<?xml version="1.0" encoding="UTF-8"?>
<svg id="Ebene_2" data-name="Ebene 2" xmlns="http://www.w3.org/2000/svg" viewBox="0 0 1920 1041.29055">
  <defs>
    <style>
      .cls-1 {
        stroke-dasharray: 26.71743 26.71743;
      }

      .cls-1, .cls-2, .cls-3 {
        fill: none;
        stroke-miterlimit: 10;
      }

      .cls-1, .cls-3 {
        stroke: #0d435c;
        stroke-width: 2.20998px;
      }

      .cls-4 {
        fill: #0d435c;
      }

      .cls-2 {
        stroke: #7996a5;
        stroke-width: 2px;
      }

      .cls-5 {
        fill: #f3f5f7;
      }
    </style>
  </defs>
  <rect class="cls-5" x="-4.26855" y="-3.48745" width="1929.85598" height="1049.84169"/>
  <g>
    <path class="cls-4" d="M118.44842,249.0965v18.73047c0,3.1123-.97363,5.57324-2.91992,7.38281s-4.60645,2.71484-7.97852,2.71484c-3.32031,0-5.95703-.87891-7.91016-2.63672s-2.94922-4.17285-2.98828-7.24609v-18.94531h5.85938v18.76953c0,1.8623.44629,3.21973,1.33789,4.07227s2.12598,1.2793,3.70117,1.2793c3.29395,0,4.96777-1.73145,5.01953-5.19531v-18.92578h5.87891Z"/>
    <path class="cls-4" d="M128.07733,256.40118l.17578,2.44141c1.51074-1.8877,3.53516-2.83203,6.07422-2.83203,2.23926,0,3.90625.65723,5,1.97266s1.65332,3.28125,1.67969,5.89844v13.65234h-5.64453v-13.54688c0-1.2002-.26074-2.07129-.78125-2.61328-.52051-.54102-1.38672-.8125-2.59766-.8125-1.58887,0-2.78027.67871-3.57422,2.03613v14.93652h-5.64453v-21.13281h5.3125Z"/>
    <path class="cls-4" d="M145.2453,250.93243c0-.84668.2832-1.54297.84961-2.08984s1.33789-.82031,2.31445-.82031c.96387,0,1.73145.27344,2.30469.82031s.85938,1.24316.85938,2.08984c0,.85938-.29004,1.5625-.86914,2.10938s-1.34473.82031-2.29492.82031-1.71582-.27344-2.29492-.82031-.86914-1.25-.86914-2.10938ZM151.24139,277.534h-5.66406v-21.13281h5.66406v21.13281Z"/>
    <path class="cls-4" d="M162.64764,251.20587v5.19531h3.61328v4.14062h-3.61328v10.54688c0,.78125.14941,1.34082.44922,1.67969s.87207.50781,1.71875.50781c.625,0,1.17871-.0459,1.66016-.13672v4.27734c-1.10645.33887-2.24609.50781-3.41797.50781-3.95801,0-5.97656-1.99902-6.05469-5.99609v-11.38672h-3.08594v-4.14062h3.08594v-5.19531h5.64453Z"/>
    <path class="cls-4" d="M179.13202,277.92462c-3.09863,0-5.62207-.9502-7.56836-2.85156s-2.91992-4.43359-2.91992-7.59766v-.54688c0-2.12207.41016-4.02051,1.23047-5.69336s1.98242-2.96191,3.48633-3.86719,3.21973-1.35742,5.14648-1.35742c2.89062,0,5.16602.91113,6.82617,2.73438s2.49023,4.40723,2.49023,7.75391v2.30469h-13.45703c.18262,1.37988.73242,2.4873,1.65039,3.32031s2.08008,1.25,3.48633,1.25c2.1748,0,3.87402-.78809,5.09766-2.36328l2.77344,3.10547c-.84668,1.19824-1.99219,2.13184-3.4375,2.80273s-3.04688,1.00586-4.80469,1.00586ZM178.48748,260.56134c-1.12012,0-2.02832.37891-2.72461,1.1377s-1.14258,1.84473-1.33789,3.25684h7.85156v-.45117c-.02637-1.25586-.36426-2.22656-1.01562-2.91309s-1.5752-1.03027-2.77344-1.03027Z"/>
    <path class="cls-4" d="M190.14764,266.81134c0-3.29395.73926-5.91797,2.2168-7.87109s3.49902-2.92969,6.06445-2.92969c2.05762,0,3.75684.76855,5.09766,2.30469v-10.78125h5.66406v30h-5.09766l-.27344-2.24609c-1.40625,1.75781-3.21582,2.63672-5.42969,2.63672-2.4873,0-4.48242-.97949-5.98633-2.93945s-2.25586-4.68457-2.25586-8.17383ZM195.79217,267.21271c0,1.98828.34473,3.5127,1.03516,4.57129.69043,1.06055,1.69238,1.58984,3.00781,1.58984,1.74512,0,2.97559-.73926,3.69141-2.2168v-8.37891c-.70312-1.47754-1.9209-2.2168-3.65234-2.2168-2.72168,0-4.08203,2.21777-4.08203,6.65137Z"/>
    <path class="cls-4" d="M238.64373,270.07306c0-1.10645-.39062-1.95605-1.17188-2.54883s-2.1875-1.21777-4.21875-1.875-3.63965-1.30566-4.82422-1.94336c-3.22949-1.74512-4.84375-4.09473-4.84375-7.05078,0-1.53613.43262-2.90723,1.29883-4.11133s2.10938-2.14551,3.73047-2.82227,3.44043-1.01562,5.45898-1.01562c2.03125,0,3.84082.36816,5.42969,1.10352s2.82227,1.77441,3.70117,3.11523,1.31836,2.86426,1.31836,4.57031h-5.85938c0-1.30176-.41016-2.31445-1.23047-3.03711s-1.97266-1.08398-3.45703-1.08398c-1.43262,0-2.5459.30273-3.33984.9082s-1.19141,1.40332-1.19141,2.39258c0,.9248.46582,1.69922,1.39648,2.32422s2.30176,1.21094,4.11133,1.75781c3.33301,1.00293,5.76172,2.24609,7.28516,3.73047s2.28516,3.33301,2.28516,5.54688c0,2.46094-.93066,4.3916-2.79297,5.79102s-4.36816,2.09961-7.51953,2.09961c-2.1875,0-4.17969-.40039-5.97656-1.20117s-3.16699-1.89746-4.11133-3.29102-1.41602-3.00781-1.41602-4.84375h5.87891c0,3.1377,1.875,4.70703,5.625,4.70703,1.39355,0,2.48047-.2832,3.26172-.84961s1.17188-1.35742,1.17188-2.37305Z"/>
    <path class="cls-4" d="M254.8742,251.20587v5.19531h3.61328v4.14062h-3.61328v10.54688c0,.78125.14941,1.34082.44922,1.67969s.87207.50781,1.71875.50781c.625,0,1.17871-.0459,1.66016-.13672v4.27734c-1.10645.33887-2.24609.50781-3.41797.50781-3.95801,0-5.97656-1.99902-6.05469-5.99609v-11.38672h-3.08594v-4.14062h3.08594v-5.19531h5.64453Z"/>
    <path class="cls-4" d="M273.87811,277.534c-.26074-.50781-.44922-1.13965-.56641-1.89453-1.36719,1.52344-3.14453,2.28516-5.33203,2.28516-2.07031,0-3.78613-.59863-5.14648-1.79688s-2.04102-2.70801-2.04102-4.53125c0-2.23926.83008-3.95801,2.49023-5.15625s4.05957-1.80371,7.19727-1.81641h2.59766v-1.21094c0-.97656-.25098-1.75781-.75195-2.34375s-1.29199-.87891-2.37305-.87891c-.9502,0-1.69629.22754-2.23633.68359s-.81055,1.08105-.81055,1.875h-5.64453c0-1.22363.37793-2.35645,1.13281-3.39844s1.82324-1.8584,3.20312-2.45117,2.92969-.88867,4.64844-.88867c2.60449,0,4.6709.6543,6.20117,1.96289s2.29492,3.14746,2.29492,5.51758v9.16016c.0127,2.00488.29297,3.52246.83984,4.55078v.33203h-5.70312ZM269.21014,273.60822c.83301,0,1.60156-.18555,2.30469-.55664s1.22363-.86914,1.5625-1.49414v-3.63281h-2.10938c-2.8252,0-4.3291.97656-4.51172,2.92969l-.01953.33203c0,.70312.24707,1.28223.74219,1.73828s1.17188.68359,2.03125.68359Z"/>
    <path class="cls-4" d="M289.83514,251.20587v5.19531h3.61328v4.14062h-3.61328v10.54688c0,.78125.14941,1.34082.44922,1.67969s.87207.50781,1.71875.50781c.625,0,1.17871-.0459,1.66016-.13672v4.27734c-1.10645.33887-2.24609.50781-3.41797.50781-3.95801,0-5.97656-1.99902-6.05469-5.99609v-11.38672h-3.08594v-4.14062h3.08594v-5.19531h5.64453Z"/>
    <path class="cls-4" d="M306.31952,277.92462c-3.09863,0-5.62207-.9502-7.56836-2.85156s-2.91992-4.43359-2.91992-7.59766v-.54688c0-2.12207.41016-4.02051,1.23047-5.69336s1.98242-2.96191,3.48633-3.86719,3.21973-1.35742,5.14648-1.35742c2.89062,0,5.16602.91113,6.82617,2.73438s2.49023,4.40723,2.49023,7.75391v2.30469h-13.45703c.18262,1.37988.73242,2.4873,1.65039,3.32031s2.08008,1.25,3.48633,1.25c2.1748,0,3.87402-.78809,5.09766-2.36328l2.77344,3.10547c-.84668,1.19824-1.99219,2.13184-3.4375,2.80273s-3.04688,1.00586-4.80469,1.00586ZM305.67498,260.56134c-1.12012,0-2.02832.37891-2.72461,1.1377s-1.14258,1.84473-1.33789,3.25684h7.85156v-.45117c-.02637-1.25586-.36426-2.22656-1.01562-2.91309s-1.5752-1.03027-2.77344-1.03027Z"/>
    <path class="cls-4" d="M329.65936,271.69415c0-.69043-.3418-1.2334-1.02539-1.63086s-1.78027-.75195-3.29102-1.06445c-5.02637-1.05469-7.53906-3.19043-7.53906-6.40625,0-1.875.77832-3.44043,2.33398-4.69727s3.59082-1.88477,6.10352-1.88477c2.68262,0,4.82715.63184,6.43555,1.89453s2.41211,2.90332,2.41211,4.92188h-5.64453c0-.80762-.26074-1.47461-.78125-2.00195s-1.33496-.79102-2.44141-.79102c-.9502,0-1.68652.21484-2.20703.64453s-.78125.97656-.78125,1.64062c0,.625.2959,1.12988.88867,1.51367s1.5918.71582,2.99805.99609,2.59082.5957,3.55469.94727c2.98145,1.09375,4.47266,2.98828,4.47266,5.68359,0,1.92676-.82715,3.48633-2.48047,4.67773s-3.78906,1.78711-6.40625,1.78711c-1.77051,0-3.34277-.31543-4.7168-.94727s-2.45117-1.49707-3.23242-2.59766-1.17188-2.28809-1.17188-3.56445h5.35156c.05176,1.00293.42285,1.77051,1.11328,2.30469s1.61426.80078,2.77344.80078c1.08105,0,1.89746-.20508,2.45117-.61523s.83008-.94727.83008-1.61133Z"/>
    <path class="cls-4" d="M107.45233,337.84357h-4.66797v10.41016h-5.85938v-28.4375h10.56641c3.35938,0,5.9502.74902,7.77344,2.24609s2.73438,3.61328,2.73438,6.34766c0,1.94043-.41992,3.55762-1.25977,4.85352s-2.1123,2.32715-3.81836,3.0957l6.15234,11.62109v.27344h-6.28906l-5.33203-10.41016ZM102.78436,333.09747h4.72656c1.47168,0,2.61035-.37402,3.41797-1.12305s1.21094-1.78027,1.21094-3.0957c0-1.34082-.38086-2.39551-1.14258-3.16406s-1.93066-1.15234-3.50586-1.15234h-4.70703v8.53516Z"/>
    <path class="cls-4" d="M134.73748,346.10529c-1.39355,1.69238-3.32031,2.53906-5.78125,2.53906-2.26562,0-3.99414-.65137-5.18555-1.95312s-1.7998-3.20996-1.82617-5.72266v-13.84766h5.64453v13.66797c0,2.20312,1.00293,3.30469,3.00781,3.30469,1.91406,0,3.22949-.66504,3.94531-1.99414v-14.97852h5.66406v21.13281h-5.3125l-.15625-2.14844Z"/>
    <path class="cls-4" d="M155.90936,342.41388c0-.69043-.3418-1.2334-1.02539-1.63086s-1.78027-.75195-3.29102-1.06445c-5.02637-1.05469-7.53906-3.19043-7.53906-6.40625,0-1.875.77832-3.44043,2.33398-4.69727s3.59082-1.88477,6.10352-1.88477c2.68262,0,4.82715.63184,6.43555,1.89453s2.41211,2.90332,2.41211,4.92188h-5.64453c0-.80762-.26074-1.47461-.78125-2.00195s-1.33496-.79102-2.44141-.79102c-.9502,0-1.68652.21484-2.20703.64453s-.78125.97656-.78125,1.64062c0,.625.2959,1.12988.88867,1.51367s1.5918.71582,2.99805.99609,2.59082.5957,3.55469.94727c2.98145,1.09375,4.47266,2.98828,4.47266,5.68359,0,1.92676-.82715,3.48633-2.48047,4.67773s-3.78906,1.78711-6.40625,1.78711c-1.77051,0-3.34277-.31543-4.7168-.94727s-2.45117-1.49707-3.23242-2.59766-1.17188-2.28809-1.17188-3.56445h5.35156c.05176,1.00293.42285,1.77051,1.11328,2.30469s1.61426.80078,2.77344.80078c1.08105,0,1.89746-.20508,2.45117-.61523s.83008-.94727.83008-1.61133Z"/>
    <path class="cls-4" d="M176.47577,342.41388c0-.69043-.3418-1.2334-1.02539-1.63086s-1.78027-.75195-3.29102-1.06445c-5.02637-1.05469-7.53906-3.19043-7.53906-6.40625,0-1.875.77832-3.44043,2.33398-4.69727s3.59082-1.88477,6.10352-1.88477c2.68262,0,4.82715.63184,6.43555,1.89453s2.41211,2.90332,2.41211,4.92188h-5.64453c0-.80762-.26074-1.47461-.78125-2.00195s-1.33496-.79102-2.44141-.79102c-.9502,0-1.68652.21484-2.20703.64453s-.78125.97656-.78125,1.64062c0,.625.2959,1.12988.88867,1.51367s1.5918.71582,2.99805.99609,2.59082.5957,3.55469.94727c2.98145,1.09375,4.47266,2.98828,4.47266,5.68359,0,1.92676-.82715,3.48633-2.48047,4.67773s-3.78906,1.78711-6.40625,1.78711c-1.77051,0-3.34277-.31543-4.7168-.94727s-2.45117-1.49707-3.23242-2.59766-1.17188-2.28809-1.17188-3.56445h5.35156c.05176,1.00293.42285,1.77051,1.11328,2.30469s1.61426.80078,2.77344.80078c1.08105,0,1.89746-.20508,2.45117-.61523s.83008-.94727.83008-1.61133Z"/>
    <path class="cls-4" d="M185.5578,321.65216c0-.84668.2832-1.54297.84961-2.08984s1.33789-.82031,2.31445-.82031c.96387,0,1.73145.27344,2.30469.82031s.85938,1.24316.85938,2.08984c0,.85938-.29004,1.5625-.86914,2.10938s-1.34473.82031-2.29492.82031-1.71582-.27344-2.29492-.82031-.86914-1.25-.86914-2.10938ZM191.55389,348.25372h-5.66406v-21.13281h5.66406v21.13281Z"/>
    <path class="cls-4" d="M208.44842,348.25372c-.26074-.50781-.44922-1.13965-.56641-1.89453-1.36719,1.52344-3.14453,2.28516-5.33203,2.28516-2.07031,0-3.78613-.59863-5.14648-1.79688s-2.04102-2.70801-2.04102-4.53125c0-2.23926.83008-3.95801,2.49023-5.15625s4.05957-1.80371,7.19727-1.81641h2.59766v-1.21094c0-.97656-.25098-1.75781-.75195-2.34375s-1.29199-.87891-2.37305-.87891c-.9502,0-1.69629.22754-2.23633.68359s-.81055,1.08105-.81055,1.875h-5.64453c0-1.22363.37793-2.35645,1.13281-3.39844s1.82324-1.8584,3.20312-2.45117,2.92969-.88867,4.64844-.88867c2.60449,0,4.6709.6543,6.20117,1.96289s2.29492,3.14746,2.29492,5.51758v9.16016c.0127,2.00488.29297,3.52246.83984,4.55078v.33203h-5.70312ZM203.78045,344.32794c.83301,0,1.60156-.18555,2.30469-.55664s1.22363-.86914,1.5625-1.49414v-3.63281h-2.10938c-2.8252,0-4.3291.97656-4.51172,2.92969l-.01953.33203c0,.70312.24707,1.28223.74219,1.73828s1.17188.68359,2.03125.68359Z"/>
    <path class="cls-4" d="M118.44842,390.53497v18.73047c0,3.1123-.97363,5.57324-2.91992,7.38281s-4.60645,2.71484-7.97852,2.71484c-3.32031,0-5.95703-.87891-7.91016-2.63672s-2.94922-4.17285-2.98828-7.24609v-18.94531h5.85938v18.76953c0,1.8623.44629,3.21973,1.33789,4.07227s2.12598,1.2793,3.70117,1.2793c3.29395,0,4.96777-1.73145,5.01953-5.19531v-18.92578h5.87891Z"/>
    <path class="cls-4" d="M128.07733,397.83966l.17578,2.44141c1.51074-1.8877,3.53516-2.83203,6.07422-2.83203,2.23926,0,3.90625.65723,5,1.97266s1.65332,3.28125,1.67969,5.89844v13.65234h-5.64453v-13.54688c0-1.2002-.26074-2.07129-.78125-2.61328-.52051-.54102-1.38672-.8125-2.59766-.8125-1.58887,0-2.78027.67871-3.57422,2.03613v14.93652h-5.64453v-21.13281h5.3125Z"/>
    <path class="cls-4" d="M145.2453,392.37091c0-.84668.2832-1.54297.84961-2.08984s1.33789-.82031,2.31445-.82031c.96387,0,1.73145.27344,2.30469.82031s.85938,1.24316.85938,2.08984c0,.85938-.29004,1.5625-.86914,2.10938s-1.34473.82031-2.29492.82031-1.71582-.27344-2.29492-.82031-.86914-1.25-.86914-2.10938ZM151.24139,418.97247h-5.66406v-21.13281h5.66406v21.13281Z"/>
    <path class="cls-4" d="M162.64764,392.64435v5.19531h3.61328v4.14062h-3.61328v10.54688c0,.78125.14941,1.34082.44922,1.67969s.87207.50781,1.71875.50781c.625,0,1.17871-.0459,1.66016-.13672v4.27734c-1.10645.33887-2.24609.50781-3.41797.50781-3.95801,0-5.97656-1.99902-6.05469-5.99609v-11.38672h-3.08594v-4.14062h3.08594v-5.19531h5.64453Z"/>
    <path class="cls-4" d="M179.13202,419.3631c-3.09863,0-5.62207-.9502-7.56836-2.85156s-2.91992-4.43359-2.91992-7.59766v-.54688c0-2.12207.41016-4.02051,1.23047-5.69336s1.98242-2.96191,3.48633-3.86719,3.21973-1.35742,5.14648-1.35742c2.89062,0,5.16602.91113,6.82617,2.73438s2.49023,4.40723,2.49023,7.75391v2.30469h-13.45703c.18262,1.37988.73242,2.4873,1.65039,3.32031s2.08008,1.25,3.48633,1.25c2.1748,0,3.87402-.78809,5.09766-2.36328l2.77344,3.10547c-.84668,1.19824-1.99219,2.13184-3.4375,2.80273s-3.04688,1.00586-4.80469,1.00586ZM178.48748,401.99982c-1.12012,0-2.02832.37891-2.72461,1.1377s-1.14258,1.84473-1.33789,3.25684h7.85156v-.45117c-.02637-1.25586-.36426-2.22656-1.01562-2.91309s-1.5752-1.03027-2.77344-1.03027Z"/>
    <path class="cls-4" d="M190.14764,408.24982c0-3.29395.73926-5.91797,2.2168-7.87109s3.49902-2.92969,6.06445-2.92969c2.05762,0,3.75684.76855,5.09766,2.30469v-10.78125h5.66406v30h-5.09766l-.27344-2.24609c-1.40625,1.75781-3.21582,2.63672-5.42969,2.63672-2.4873,0-4.48242-.97949-5.98633-2.93945s-2.25586-4.68457-2.25586-8.17383ZM195.79217,408.65118c0,1.98828.34473,3.5127,1.03516,4.57129.69043,1.06055,1.69238,1.58984,3.00781,1.58984,1.74512,0,2.97559-.73926,3.69141-2.2168v-8.37891c-.70312-1.47754-1.9209-2.2168-3.65234-2.2168-2.72168,0-4.08203,2.21777-4.08203,6.65137Z"/>
    <path class="cls-4" d="M232.80389,407.56622l-3.04688,3.28125v8.125h-5.85938v-28.4375h5.85938v12.89062l2.57812-3.53516,7.24609-9.35547h7.20703l-10.09766,12.63672,10.39062,15.80078h-6.97266l-7.30469-11.40625Z"/>
    <path class="cls-4" d="M248.87811,392.37091c0-.84668.2832-1.54297.84961-2.08984s1.33789-.82031,2.31445-.82031c.96387,0,1.73145.27344,2.30469.82031s.85938,1.24316.85938,2.08984c0,.85938-.29004,1.5625-.86914,2.10938s-1.34473.82031-2.29492.82031-1.71582-.27344-2.29492-.82031-.86914-1.25-.86914-2.10938ZM254.8742,418.97247h-5.66406v-21.13281h5.66406v21.13281Z"/>
    <path class="cls-4" d="M264.71795,397.83966l.17578,2.44141c1.51074-1.8877,3.53516-2.83203,6.07422-2.83203,2.23926,0,3.90625.65723,5,1.97266s1.65332,3.28125,1.67969,5.89844v13.65234h-5.64453v-13.54688c0-1.2002-.26074-2.07129-.78125-2.61328-.52051-.54102-1.38672-.8125-2.59766-.8125-1.58887,0-2.78027.67871-3.57422,2.03613v14.93652h-5.64453v-21.13281h5.3125Z"/>
    <path class="cls-4" d="M281.10467,408.24982c0-3.24219.77148-5.85254,2.31445-7.83203s3.62305-2.96875,6.24023-2.96875c2.31738,0,4.12109.79395,5.41016,2.38281l.23438-1.99219h5.11719v20.42969c0,1.84863-.41992,3.45703-1.25977,4.82422s-2.02148,2.40918-3.54492,3.125-3.30762,1.07422-5.35156,1.07422c-1.5498,0-3.05957-.30957-4.53125-.92773s-2.58496-1.41602-3.33984-2.39258l2.5-3.4375c1.40625,1.5752,3.1123,2.36328,5.11719,2.36328,1.49707,0,2.66309-.40039,3.49609-1.20117s1.25-1.93652,1.25-3.4082v-1.13281c-1.30176,1.47168-3.01465,2.20703-5.13672,2.20703-2.53906,0-4.59277-.99316-6.16211-2.97852s-2.35352-4.61914-2.35352-7.90039v-.23438ZM286.7492,408.65118c0,1.92285.38379,3.43066,1.15234,4.52246.76855,1.09277,1.82324,1.63867,3.16406,1.63867,1.71875,0,2.94922-.64746,3.69141-1.94238v-8.92773c-.75488-1.29492-1.97266-1.94238-3.65234-1.94238-1.35449,0-2.41895.55566-3.19336,1.66797s-1.16211,2.77344-1.16211,4.9834Z"/>
    <path class="cls-4" d="M303.87811,408.24982c0-3.29395.73926-5.91797,2.2168-7.87109s3.49902-2.92969,6.06445-2.92969c2.05762,0,3.75684.76855,5.09766,2.30469v-10.78125h5.66406v30h-5.09766l-.27344-2.24609c-1.40625,1.75781-3.21582,2.63672-5.42969,2.63672-2.4873,0-4.48242-.97949-5.98633-2.93945s-2.25586-4.68457-2.25586-8.17383ZM309.52264,408.65118c0,1.98828.34473,3.5127,1.03516,4.57129.69043,1.06055,1.69238,1.58984,3.00781,1.58984,1.74512,0,2.97559-.73926,3.69141-2.2168v-8.37891c-.70312-1.47754-1.9209-2.2168-3.65234-2.2168-2.72168,0-4.08203,2.21777-4.08203,6.65137Z"/>
    <path class="cls-4" d="M326.41717,408.21075c0-2.09668.40332-3.96484,1.21094-5.60547s1.96973-2.91016,3.48633-3.80859,3.27832-1.34766,5.2832-1.34766c2.85156,0,5.17871.87207,6.98242,2.61719s2.80957,4.11426,3.01758,7.10938l.03906,1.44531c0,3.24219-.90527,5.84277-2.71484,7.80273s-4.23828,2.93945-7.28516,2.93945-5.47852-.97656-7.29492-2.92969-2.72461-4.60938-2.72461-7.96875v-.25391ZM332.0617,408.61114c0,2.00879.37793,3.54395,1.13281,4.60742.75488,1.0625,1.83594,1.59375,3.24219,1.59375,1.36719,0,2.43457-.52539,3.20312-1.57422.76855-1.05078,1.15234-2.72949,1.15234-5.03711,0-1.96973-.38379-3.49512-1.15234-4.57812-.76855-1.08203-1.84863-1.62305-3.24219-1.62305-1.37988,0-2.44824.53809-3.20312,1.61328-.75488,1.07617-1.13281,2.74219-1.13281,4.99805Z"/>
    <path class="cls-4" d="M355.20623,397.83966l.17578,2.36328c1.49707-1.83594,3.52246-2.75391,6.07422-2.75391,2.72168,0,4.58984,1.07422,5.60547,3.22266,1.48438-2.14844,3.60059-3.22266,6.34766-3.22266,2.29199,0,3.99707.66699,5.11719,2.00195s1.67969,3.34277,1.67969,6.02539v13.49609h-5.66406v-13.50781c0-1.2002-.23438-2.07812-.70312-2.63281s-1.2959-.83203-2.48047-.83203c-1.69238,0-2.86426.80957-3.51562,2.42773l.01953,14.54492h-5.64453v-13.48828c0-1.22656-.24121-2.11426-.72266-2.66211s-1.30176-.82227-2.46094-.82227c-1.60156,0-2.76074.66602-3.47656,1.99707v14.97559h-5.64453v-21.13281h5.29297Z"/>
    <path class="cls-4" d="M114.03436,478.07111h-11.25v11.62109h-5.85938v-28.4375h18.51562v4.74609h-12.65625v7.34375h11.25v4.72656Z"/>
    <path class="cls-4" d="M129.83514,473.85236c-.76855-.10449-1.44531-.15625-2.03125-.15625-2.13574,0-3.53516.72266-4.19922,2.16797v13.82812h-5.64453v-21.13281h5.33203l.15625,2.51953c1.13281-1.94043,2.70215-2.91016,4.70703-2.91016.625,0,1.21094.08496,1.75781.25391l-.07812,5.42969Z"/>
    <path class="cls-4" d="M144.21014,489.6922c-.26074-.50781-.44922-1.13965-.56641-1.89453-1.36719,1.52344-3.14453,2.28516-5.33203,2.28516-2.07031,0-3.78613-.59863-5.14648-1.79688s-2.04102-2.70801-2.04102-4.53125c0-2.23926.83008-3.95801,2.49023-5.15625s4.05957-1.80371,7.19727-1.81641h2.59766v-1.21094c0-.97656-.25098-1.75781-.75195-2.34375s-1.29199-.87891-2.37305-.87891c-.9502,0-1.69629.22754-2.23633.68359s-.81055,1.08105-.81055,1.875h-5.64453c0-1.22363.37793-2.35645,1.13281-3.39844s1.82324-1.8584,3.20312-2.45117,2.92969-.88867,4.64844-.88867c2.60449,0,4.6709.6543,6.20117,1.96289s2.29492,3.14746,2.29492,5.51758v9.16016c.0127,2.00488.29297,3.52246.83984,4.55078v.33203h-5.70312ZM139.54217,485.76642c.83301,0,1.60156-.18555,2.30469-.55664s1.22363-.86914,1.5625-1.49414v-3.63281h-2.10938c-2.8252,0-4.3291.97656-4.51172,2.92969l-.01953.33203c0,.70312.24707,1.28223.74219,1.73828s1.17188.68359,2.03125.68359Z"/>
    <path class="cls-4" d="M158.60467,468.55939l.17578,2.44141c1.51074-1.8877,3.53516-2.83203,6.07422-2.83203,2.23926,0,3.90625.65723,5,1.97266s1.65332,3.28125,1.67969,5.89844v13.65234h-5.64453v-13.54688c0-1.2002-.26074-2.07129-.78125-2.61328-.52051-.54102-1.38672-.8125-2.59766-.8125-1.58887,0-2.78027.67871-3.57422,2.03613v14.93652h-5.64453v-21.13281h5.3125Z"/>
    <path class="cls-4" d="M184.60077,485.53204c1.04199,0,1.8877-.28613,2.53906-.85938s.98926-1.33496,1.01562-2.28516h5.29297c-.0127,1.43262-.40332,2.74414-1.17188,3.93555s-1.81934,2.11621-3.1543,2.77344-2.80957.98633-4.42383.98633c-3.02051,0-5.40332-.95996-7.14844-2.88086s-2.61719-4.57324-2.61719-7.95898v-.37109c0-3.25488.86621-5.85254,2.59766-7.79297s4.1084-2.91016,7.12891-2.91016c2.64355,0,4.7627.75195,6.35742,2.25586s2.40527,3.50586,2.43164,6.00586h-5.29297c-.02637-1.09961-.36426-1.99316-1.01562-2.67969-.65137-.6875-1.51074-1.03125-2.57812-1.03125-1.31543,0-2.30762.47949-2.97852,1.4375-.6709.95898-1.00586,2.51367-1.00586,4.66504v.58691c0,2.17871.33203,3.74316.99609,4.69531s1.67285,1.42773,3.02734,1.42773Z"/>
    <path class="cls-4" d="M206.39764,490.08282c-3.09863,0-5.62207-.9502-7.56836-2.85156s-2.91992-4.43359-2.91992-7.59766v-.54688c0-2.12207.41016-4.02051,1.23047-5.69336s1.98242-2.96191,3.48633-3.86719,3.21973-1.35742,5.14648-1.35742c2.89062,0,5.16602.91113,6.82617,2.73438s2.49023,4.40723,2.49023,7.75391v2.30469h-13.45703c.18262,1.37988.73242,2.4873,1.65039,3.32031s2.08008,1.25,3.48633,1.25c2.1748,0,3.87402-.78809,5.09766-2.36328l2.77344,3.10547c-.84668,1.19824-1.99219,2.13184-3.4375,2.80273s-3.04688,1.00586-4.80469,1.00586ZM205.75311,472.71954c-1.12012,0-2.02832.37891-2.72461,1.1377s-1.14258,1.84473-1.33789,3.25684h7.85156v-.45117c-.02637-1.25586-.36426-2.22656-1.01562-2.91309s-1.5752-1.03027-2.77344-1.03027Z"/>
    <path class="cls-4" d="M119.2492,550.93927c-.22168,3.05957-1.35059,5.46875-3.38867,7.22656s-4.72363,2.63672-8.05664,2.63672c-3.64551,0-6.51367-1.22754-8.60352-3.68164s-3.13477-5.82324-3.13477-10.10742v-1.73828c0-2.73438.48145-5.14355,1.44531-7.22656s2.34082-3.68164,4.13086-4.79492,3.87012-1.66992,6.24023-1.66992c3.28125,0,5.9248.87891,7.92969,2.63672s3.16406,4.22559,3.47656,7.40234h-5.85938c-.14355-1.83594-.6543-3.16699-1.5332-3.99414s-2.2168-1.24023-4.01367-1.24023c-1.95312,0-3.41504.7002-4.38477,2.09961s-1.46777,3.57129-1.49414,6.51367v2.14844c0,3.07324.46582,5.31934,1.39648,6.73828s2.39941,2.12891,4.4043,2.12891c1.80957,0,3.16113-.41309,4.05273-1.24023s1.40332-2.10645,1.5332-3.83789h5.85938Z"/>
    <path class="cls-4" d="M128.23358,541.5838c1.49707-1.79688,3.37891-2.69531,5.64453-2.69531,4.58301,0,6.90723,2.66309,6.97266,7.98828v13.53516h-5.64453v-13.41016c0-1.21289-.26074-2.11035-.78125-2.69141-.52051-.58008-1.38672-.87109-2.59766-.87109-1.65332,0-2.85156.63965-3.59375,1.91797v15.05469h-5.64453v-30h5.64453v11.17188Z"/>
    <path class="cls-4" d="M145.06952,533.81036c0-.84668.2832-1.54297.84961-2.08984s1.33789-.82031,2.31445-.82031c.96387,0,1.73145.27344,2.30469.82031s.85938,1.24316.85938,2.08984c0,.85938-.29004,1.5625-.86914,2.10938s-1.34473.82031-2.29492.82031-1.71582-.27344-2.29492-.82031-.86914-1.25-.86914-2.10938ZM151.06561,560.41193h-5.66406v-21.13281h5.66406v21.13281Z"/>
    <path class="cls-4" d="M160.90936,539.27911l.17578,2.44141c1.51074-1.8877,3.53516-2.83203,6.07422-2.83203,2.23926,0,3.90625.65723,5,1.97266s1.65332,3.28125,1.67969,5.89844v13.65234h-5.64453v-13.54688c0-1.2002-.26074-2.07129-.78125-2.61328-.52051-.54102-1.38672-.8125-2.59766-.8125-1.58887,0-2.78027.67871-3.57422,2.03613v14.93652h-5.64453v-21.13281h5.3125Z"/>
    <path class="cls-4" d="M190.36248,560.41193c-.26074-.50781-.44922-1.13965-.56641-1.89453-1.36719,1.52344-3.14453,2.28516-5.33203,2.28516-2.07031,0-3.78613-.59863-5.14648-1.79688s-2.04102-2.70801-2.04102-4.53125c0-2.23926.83008-3.95801,2.49023-5.15625s4.05957-1.80371,7.19727-1.81641h2.59766v-1.21094c0-.97656-.25098-1.75781-.75195-2.34375s-1.29199-.87891-2.37305-.87891c-.9502,0-1.69629.22754-2.23633.68359s-.81055,1.08105-.81055,1.875h-5.64453c0-1.22363.37793-2.35645,1.13281-3.39844s1.82324-1.8584,3.20312-2.45117,2.92969-.88867,4.64844-.88867c2.60449,0,4.6709.6543,6.20117,1.96289s2.29492,3.14746,2.29492,5.51758v9.16016c.0127,2.00488.29297,3.52246.83984,4.55078v.33203h-5.70312ZM185.69452,556.48614c.83301,0,1.60156-.18555,2.30469-.55664s1.22363-.86914,1.5625-1.49414v-3.63281h-2.10938c-2.8252,0-4.3291.97656-4.51172,2.92969l-.01953.33203c0,.70312.24707,1.28223.74219,1.73828s1.17188.68359,2.03125.68359Z"/>
    <path class="cls-4" d="M103.15545,631.13165h-5.85938v-28.4375h5.85938v28.4375Z"/>
    <path class="cls-4" d="M119.65936,625.29181c0-.69043-.3418-1.2334-1.02539-1.63086s-1.78027-.75195-3.29102-1.06445c-5.02637-1.05469-7.53906-3.19043-7.53906-6.40625,0-1.875.77832-3.44043,2.33398-4.69727s3.59082-1.88477,6.10352-1.88477c2.68262,0,4.82715.63184,6.43555,1.89453s2.41211,2.90332,2.41211,4.92188h-5.64453c0-.80762-.26074-1.47461-.78125-2.00195s-1.33496-.79102-2.44141-.79102c-.9502,0-1.68652.21484-2.20703.64453s-.78125.97656-.78125,1.64062c0,.625.2959,1.12988.88867,1.51367s1.5918.71582,2.99805.99609,2.59082.5957,3.55469.94727c2.98145,1.09375,4.47266,2.98828,4.47266,5.68359,0,1.92676-.82715,3.48633-2.48047,4.67773s-3.78906,1.78711-6.40625,1.78711c-1.77051,0-3.34277-.31543-4.7168-.94727s-2.45117-1.49707-3.23242-2.59766-1.17188-2.28809-1.17188-3.56445h5.35156c.05176,1.00293.42285,1.77051,1.11328,2.30469s1.61426.80078,2.77344.80078c1.08105,0,1.89746-.20508,2.45117-.61523s.83008-.94727.83008-1.61133Z"/>
    <path class="cls-4" d="M140.65545,615.29181c-.76855-.10449-1.44531-.15625-2.03125-.15625-2.13574,0-3.53516.72266-4.19922,2.16797v13.82812h-5.64453v-21.13281h5.33203l.15625,2.51953c1.13281-1.94043,2.70215-2.91016,4.70703-2.91016.625,0,1.21094.08496,1.75781.25391l-.07812,5.42969Z"/>
    <path class="cls-4" d="M155.03045,631.13165c-.26074-.50781-.44922-1.13965-.56641-1.89453-1.36719,1.52344-3.14453,2.28516-5.33203,2.28516-2.07031,0-3.78613-.59863-5.14648-1.79688s-2.04102-2.70801-2.04102-4.53125c0-2.23926.83008-3.95801,2.49023-5.15625s4.05957-1.80371,7.19727-1.81641h2.59766v-1.21094c0-.97656-.25098-1.75781-.75195-2.34375s-1.29199-.87891-2.37305-.87891c-.9502,0-1.69629.22754-2.23633.68359s-.81055,1.08105-.81055,1.875h-5.64453c0-1.22363.37793-2.35645,1.13281-3.39844s1.82324-1.8584,3.20312-2.45117,2.92969-.88867,4.64844-.88867c2.60449,0,4.6709.6543,6.20117,1.96289s2.29492,3.14746,2.29492,5.51758v9.16016c.0127,2.00488.29297,3.52246.83984,4.55078v.33203h-5.70312ZM150.36248,627.20587c.83301,0,1.60156-.18555,2.30469-.55664s1.22363-.86914,1.5625-1.49414v-3.63281h-2.10938c-2.8252,0-4.3291.97656-4.51172,2.92969l-.01953.33203c0,.70312.24707,1.28223.74219,1.73828s1.17188.68359,2.03125.68359Z"/>
    <path class="cls-4" d="M173.95623,631.52228c-3.09863,0-5.62207-.9502-7.56836-2.85156s-2.91992-4.43359-2.91992-7.59766v-.54688c0-2.12207.41016-4.02051,1.23047-5.69336s1.98242-2.96191,3.48633-3.86719,3.21973-1.35742,5.14648-1.35742c2.89062,0,5.16602.91113,6.82617,2.73438s2.49023,4.40723,2.49023,7.75391v2.30469h-13.45703c.18262,1.37988.73242,2.4873,1.65039,3.32031s2.08008,1.25,3.48633,1.25c2.1748,0,3.87402-.78809,5.09766-2.36328l2.77344,3.10547c-.84668,1.19824-1.99219,2.13184-3.4375,2.80273s-3.04688,1.00586-4.80469,1.00586ZM173.3117,614.159c-1.12012,0-2.02832.37891-2.72461,1.1377s-1.14258,1.84473-1.33789,3.25684h7.85156v-.45117c-.02637-1.25586-.36426-2.22656-1.01562-2.91309s-1.5752-1.03027-2.77344-1.03027Z"/>
    <path class="cls-4" d="M191.8078,631.13165h-5.66406v-30h5.66406v30Z"/>
    <path class="cls-4" d="M103.15545,701.85138h-5.85938v-28.4375h5.85938v28.4375Z"/>
    <path class="cls-4" d="M113.40936,680.71857l.17578,2.44141c1.51074-1.8877,3.53516-2.83203,6.07422-2.83203,2.23926,0,3.90625.65723,5,1.97266s1.65332,3.28125,1.67969,5.89844v13.65234h-5.64453v-13.54688c0-1.2002-.26074-2.07129-.78125-2.61328-.52051-.54102-1.38672-.8125-2.59766-.8125-1.58887,0-2.78027.67871-3.57422,2.03613v14.93652h-5.64453v-21.13281h5.3125Z"/>
    <path class="cls-4" d="M129.73748,691.12872c0-3.29395.73926-5.91797,2.2168-7.87109s3.49902-2.92969,6.06445-2.92969c2.05762,0,3.75684.76855,5.09766,2.30469v-10.78125h5.66406v30h-5.09766l-.27344-2.24609c-1.40625,1.75781-3.21582,2.63672-5.42969,2.63672-2.4873,0-4.48242-.97949-5.98633-2.93945s-2.25586-4.68457-2.25586-8.17383ZM135.38202,691.53009c0,1.98828.34473,3.5127,1.03516,4.57129.69043,1.06055,1.69238,1.58984,3.00781,1.58984,1.74512,0,2.97559-.73926,3.69141-2.2168v-8.37891c-.70312-1.47754-1.9209-2.2168-3.65234-2.2168-2.72168,0-4.08203,2.21777-4.08203,6.65137Z"/>
    <path class="cls-4" d="M153.11639,675.24982c0-.84668.2832-1.54297.84961-2.08984s1.33789-.82031,2.31445-.82031c.96387,0,1.73145.27344,2.30469.82031s.85938,1.24316.85938,2.08984c0,.85938-.29004,1.5625-.86914,2.10938s-1.34473.82031-2.29492.82031-1.71582-.27344-2.29492-.82031-.86914-1.25-.86914-2.10938ZM159.11248,701.85138h-5.66406v-21.13281h5.66406v21.13281Z"/>
    <path class="cls-4" d="M176.00702,701.85138c-.26074-.50781-.44922-1.13965-.56641-1.89453-1.36719,1.52344-3.14453,2.28516-5.33203,2.28516-2.07031,0-3.78613-.59863-5.14648-1.79688s-2.04102-2.70801-2.04102-4.53125c0-2.23926.83008-3.95801,2.49023-5.15625s4.05957-1.80371,7.19727-1.81641h2.59766v-1.21094c0-.97656-.25098-1.75781-.75195-2.34375s-1.29199-.87891-2.37305-.87891c-.9502,0-1.69629.22754-2.23633.68359s-.81055,1.08105-.81055,1.875h-5.64453c0-1.22363.37793-2.35645,1.13281-3.39844s1.82324-1.8584,3.20312-2.45117,2.92969-.88867,4.64844-.88867c2.60449,0,4.6709.6543,6.20117,1.96289s2.29492,3.14746,2.29492,5.51758v9.16016c.0127,2.00488.29297,3.52246.83984,4.55078v.33203h-5.70312ZM171.33905,697.9256c.83301,0,1.60156-.18555,2.30469-.55664s1.22363-.86914,1.5625-1.49414v-3.63281h-2.10938c-2.8252,0-4.3291.97656-4.51172,2.92969l-.01953.33203c0,.70312.24707,1.28223.74219,1.73828s1.17188.68359,2.03125.68359Z"/>
    <path class="cls-4" d="M102.78436,762.5506v10.01953h-5.85938v-28.4375h11.09375c2.13574,0,4.01367.39062,5.63477,1.17188s2.86816,1.8916,3.74023,3.33008,1.30859,3.07617,1.30859,4.91211c0,2.78613-.9541,4.9834-2.86133,6.5918s-4.54785,2.41211-7.91992,2.41211h-5.13672ZM102.78436,757.8045h5.23438c1.5498,0,2.73145-.36426,3.54492-1.09375s1.2207-1.77051,1.2207-3.125c0-1.39355-.41016-2.51953-1.23047-3.37891s-1.95312-1.30176-3.39844-1.32812h-5.37109v8.92578Z"/>
    <path class="cls-4" d="M134.38592,772.57013c-.26074-.50781-.44922-1.13965-.56641-1.89453-1.36719,1.52344-3.14453,2.28516-5.33203,2.28516-2.07031,0-3.78613-.59863-5.14648-1.79688s-2.04102-2.70801-2.04102-4.53125c0-2.23926.83008-3.95801,2.49023-5.15625s4.05957-1.80371,7.19727-1.81641h2.59766v-1.21094c0-.97656-.25098-1.75781-.75195-2.34375s-1.29199-.87891-2.37305-.87891c-.9502,0-1.69629.22754-2.23633.68359s-.81055,1.08105-.81055,1.875h-5.64453c0-1.22363.37793-2.35645,1.13281-3.39844s1.82324-1.8584,3.20312-2.45117,2.92969-.88867,4.64844-.88867c2.60449,0,4.6709.6543,6.20117,1.96289s2.29492,3.14746,2.29492,5.51758v9.16016c.0127,2.00488.29297,3.52246.83984,4.55078v.33203h-5.70312ZM129.71795,768.64435c.83301,0,1.60156-.18555,2.30469-.55664s1.22363-.86914,1.5625-1.49414v-3.63281h-2.10938c-2.8252,0-4.3291.97656-4.51172,2.92969l-.01953.33203c0,.70312.24707,1.28223.74219,1.73828s1.17188.68359,2.03125.68359Z"/>
    <path class="cls-4" d="M151.26092,764.09357l-2.03125,2.03125v6.44531h-5.64453v-30h5.64453v16.62109l1.09375-1.40625,5.41016-6.34766h6.77734l-7.63672,8.80859,8.30078,12.32422h-6.48438l-5.42969-8.47656Z"/>
    <path class="cls-4" d="M164.91327,745.96857c0-.84668.2832-1.54297.84961-2.08984s1.33789-.82031,2.31445-.82031c.96387,0,1.73145.27344,2.30469.82031s.85938,1.24316.85938,2.08984c0,.85938-.29004,1.5625-.86914,2.10938s-1.34473.82031-2.29492.82031-1.71582-.27344-2.29492-.82031-.86914-1.25-.86914-2.10938ZM170.90936,772.57013h-5.66406v-21.13281h5.66406v21.13281Z"/>
    <path class="cls-4" d="M187.00311,766.73029c0-.69043-.3418-1.2334-1.02539-1.63086s-1.78027-.75195-3.29102-1.06445c-5.02637-1.05469-7.53906-3.19043-7.53906-6.40625,0-1.875.77832-3.44043,2.33398-4.69727s3.59082-1.88477,6.10352-1.88477c2.68262,0,4.82715.63184,6.43555,1.89453s2.41211,2.90332,2.41211,4.92188h-5.64453c0-.80762-.26074-1.47461-.78125-2.00195s-1.33496-.79102-2.44141-.79102c-.9502,0-1.68652.21484-2.20703.64453s-.78125.97656-.78125,1.64062c0,.625.2959,1.12988.88867,1.51367s1.5918.71582,2.99805.99609,2.59082.5957,3.55469.94727c2.98145,1.09375,4.47266,2.98828,4.47266,5.68359,0,1.92676-.82715,3.48633-2.48047,4.67773s-3.78906,1.78711-6.40625,1.78711c-1.77051,0-3.34277-.31543-4.7168-.94727s-2.45117-1.49707-3.23242-2.59766-1.17188-2.28809-1.17188-3.56445h5.35156c.05176,1.00293.42285,1.77051,1.11328,2.30469s1.61426.80078,2.77344.80078c1.08105,0,1.89746-.20508,2.45117-.61523s.83008-.94727.83008-1.61133Z"/>
    <path class="cls-4" d="M202.88202,746.242v5.19531h3.61328v4.14062h-3.61328v10.54688c0,.78125.14941,1.34082.44922,1.67969s.87207.50781,1.71875.50781c.625,0,1.17871-.0459,1.66016-.13672v4.27734c-1.10645.33887-2.24609.50781-3.41797.50781-3.95801,0-5.97656-1.99902-6.05469-5.99609v-11.38672h-3.08594v-4.14062h3.08594v-5.19531h5.64453Z"/>
    <path class="cls-4" d="M221.88592,772.57013c-.26074-.50781-.44922-1.13965-.56641-1.89453-1.36719,1.52344-3.14453,2.28516-5.33203,2.28516-2.07031,0-3.78613-.59863-5.14648-1.79688s-2.04102-2.70801-2.04102-4.53125c0-2.23926.83008-3.95801,2.49023-5.15625s4.05957-1.80371,7.19727-1.81641h2.59766v-1.21094c0-.97656-.25098-1.75781-.75195-2.34375s-1.29199-.87891-2.37305-.87891c-.9502,0-1.69629.22754-2.23633.68359s-.81055,1.08105-.81055,1.875h-5.64453c0-1.22363.37793-2.35645,1.13281-3.39844s1.82324-1.8584,3.20312-2.45117,2.92969-.88867,4.64844-.88867c2.60449,0,4.6709.6543,6.20117,1.96289s2.29492,3.14746,2.29492,5.51758v9.16016c.0127,2.00488.29297,3.52246.83984,4.55078v.33203h-5.70312ZM217.21795,768.64435c.83301,0,1.60156-.18555,2.30469-.55664s1.22363-.86914,1.5625-1.49414v-3.63281h-2.10938c-2.8252,0-4.3291.97656-4.51172,2.92969l-.01953.33203c0,.70312.24707,1.28223.74219,1.73828s1.17188.68359,2.03125.68359Z"/>
    <path class="cls-4" d="M236.28045,751.43732l.17578,2.44141c1.51074-1.8877,3.53516-2.83203,6.07422-2.83203,2.23926,0,3.90625.65723,5,1.97266s1.65332,3.28125,1.67969,5.89844v13.65234h-5.64453v-13.54688c0-1.2002-.26074-2.07129-.78125-2.61328-.52051-.54102-1.38672-.8125-2.59766-.8125-1.58887,0-2.78027.67871-3.57422,2.03613v14.93652h-5.64453v-21.13281h5.3125Z"/>
    <path class="cls-4" d="M120.04998,843.28986h-5.85938l-11.40625-18.71094v18.71094h-5.85938v-28.4375h5.85938l11.42578,18.75v-18.75h5.83984v28.4375Z"/>
    <path class="cls-4" d="M123.91717,832.52814c0-2.09668.40332-3.96484,1.21094-5.60547s1.96973-2.91016,3.48633-3.80859,3.27832-1.34766,5.2832-1.34766c2.85156,0,5.17871.87207,6.98242,2.61719s2.80957,4.11426,3.01758,7.10938l.03906,1.44531c0,3.24219-.90527,5.84277-2.71484,7.80273s-4.23828,2.93945-7.28516,2.93945-5.47852-.97656-7.29492-2.92969-2.72461-4.60938-2.72461-7.96875v-.25391ZM129.5617,832.92853c0,2.00879.37793,3.54395,1.13281,4.60742.75488,1.0625,1.83594,1.59375,3.24219,1.59375,1.36719,0,2.43457-.52539,3.20312-1.57422.76855-1.05078,1.15234-2.72949,1.15234-5.03711,0-1.96973-.38379-3.49512-1.15234-4.57812-.76855-1.08203-1.84863-1.62305-3.24219-1.62305-1.37988,0-2.44824.53809-3.20312,1.61328-.75488,1.07617-1.13281,2.74219-1.13281,4.99805Z"/>
    <path class="cls-4" d="M159.28827,827.45001c-.76855-.10449-1.44531-.15625-2.03125-.15625-2.13574,0-3.53516.72266-4.19922,2.16797v13.82812h-5.64453v-21.13281h5.33203l.15625,2.51953c1.13281-1.94043,2.70215-2.91016,4.70703-2.91016.625,0,1.21094.08496,1.75781.25391l-.07812,5.42969Z"/>
    <path class="cls-4" d="M169.73748,816.96173v5.19531h3.61328v4.14062h-3.61328v10.54688c0,.78125.14941,1.34082.44922,1.67969s.87207.50781,1.71875.50781c.625,0,1.17871-.0459,1.66016-.13672v4.27734c-1.10645.33887-2.24609.50781-3.41797.50781-3.95801,0-5.97656-1.99902-6.05469-5.99609v-11.38672h-3.08594v-4.14062h3.08594v-5.19531h5.64453Z"/>
    <path class="cls-4" d="M182.00311,824.46173c1.49707-1.79688,3.37891-2.69531,5.64453-2.69531,4.58301,0,6.90723,2.66309,6.97266,7.98828v13.53516h-5.64453v-13.41016c0-1.21289-.26074-2.11035-.78125-2.69141-.52051-.58008-1.38672-.87109-2.59766-.87109-1.65332,0-2.85156.63965-3.59375,1.91797v15.05469h-5.64453v-30h5.64453v11.17188Z"/>
    <path class="cls-4" d="M218.11639,831.88361l-3.04688,3.28125v8.125h-5.85938v-28.4375h5.85938v12.89062l2.57812-3.53516,7.24609-9.35547h7.20703l-10.09766,12.63672,10.39062,15.80078h-6.97266l-7.30469-11.40625Z"/>
    <path class="cls-4" d="M232.82342,832.52814c0-2.09668.40332-3.96484,1.21094-5.60547s1.96973-2.91016,3.48633-3.80859,3.27832-1.34766,5.2832-1.34766c2.85156,0,5.17871.87207,6.98242,2.61719s2.80957,4.11426,3.01758,7.10938l.03906,1.44531c0,3.24219-.90527,5.84277-2.71484,7.80273s-4.23828,2.93945-7.28516,2.93945-5.47852-.97656-7.29492-2.92969-2.72461-4.60938-2.72461-7.96875v-.25391ZM238.46795,832.92853c0,2.00879.37793,3.54395,1.13281,4.60742.75488,1.0625,1.83594,1.59375,3.24219,1.59375,1.36719,0,2.43457-.52539,3.20312-1.57422.76855-1.05078,1.15234-2.72949,1.15234-5.03711,0-1.96973-.38379-3.49512-1.15234-4.57812-.76855-1.08203-1.84863-1.62305-3.24219-1.62305-1.37988,0-2.44824.53809-3.20312,1.61328-.75488,1.07617-1.13281,2.74219-1.13281,4.99805Z"/>
    <path class="cls-4" d="M268.19452,827.45001c-.76855-.10449-1.44531-.15625-2.03125-.15625-2.13574,0-3.53516.72266-4.19922,2.16797v13.82812h-5.64453v-21.13281h5.33203l.15625,2.51953c1.13281-1.94043,2.70215-2.91016,4.70703-2.91016.625,0,1.21094.08496,1.75781.25391l-.07812,5.42969Z"/>
    <path class="cls-4" d="M280.26483,843.68048c-3.09863,0-5.62207-.9502-7.56836-2.85156s-2.91992-4.43359-2.91992-7.59766v-.54688c0-2.12207.41016-4.02051,1.23047-5.69336s1.98242-2.96191,3.48633-3.86719,3.21973-1.35742,5.14648-1.35742c2.89062,0,5.16602.91113,6.82617,2.73438s2.49023,4.40723,2.49023,7.75391v2.30469h-13.45703c.18262,1.37988.73242,2.4873,1.65039,3.32031s2.08008,1.25,3.48633,1.25c2.1748,0,3.87402-.78809,5.09766-2.36328l2.77344,3.10547c-.84668,1.19824-1.99219,2.13184-3.4375,2.80273s-3.04688,1.00586-4.80469,1.00586ZM279.6203,826.3172c-1.12012,0-2.02832.37891-2.72461,1.1377s-1.14258,1.84473-1.33789,3.25684h7.85156v-.45117c-.02637-1.25586-.36426-2.22656-1.01562-2.91309s-1.5752-1.03027-2.77344-1.03027Z"/>
    <path class="cls-4" d="M304.40545,843.28986c-.26074-.50781-.44922-1.13965-.56641-1.89453-1.36719,1.52344-3.14453,2.28516-5.33203,2.28516-2.07031,0-3.78613-.59863-5.14648-1.79688s-2.04102-2.70801-2.04102-4.53125c0-2.23926.83008-3.95801,2.49023-5.15625s4.05957-1.80371,7.19727-1.81641h2.59766v-1.21094c0-.97656-.25098-1.75781-.75195-2.34375s-1.29199-.87891-2.37305-.87891c-.9502,0-1.69629.22754-2.23633.68359s-.81055,1.08105-.81055,1.875h-5.64453c0-1.22363.37793-2.35645,1.13281-3.39844s1.82324-1.8584,3.20312-2.45117,2.92969-.88867,4.64844-.88867c2.60449,0,4.6709.6543,6.20117,1.96289s2.29492,3.14746,2.29492,5.51758v9.16016c.0127,2.00488.29297,3.52246.83984,4.55078v.33203h-5.70312ZM299.73748,839.36407c.83301,0,1.60156-.18555,2.30469-.55664s1.22363-.86914,1.5625-1.49414v-3.63281h-2.10938c-2.8252,0-4.3291.97656-4.51172,2.92969l-.01953.33203c0,.70312.24707,1.28223.74219,1.73828s1.17188.68359,2.03125.68359Z"/>
  </g>
  <line class="cls-2" x1="444.24139" y1="247.53395" x2="444.24139" y2="875.47582"/>
  <line class="cls-2" x1="1850.02913" y1="875.47582" x2="444.24139" y2="875.47582"/>
  <g>
    <path class="cls-4" d="M454.45623,947.12579h-5.64453v-21.78809l-6.73828,2.08105v-4.55078l11.77734-4.21875h.60547v28.47656Z"/>
    <path class="cls-4" d="M476.89764,935.75861c-1.47168,1.44531-3.19043,2.16797-5.15625,2.16797-2.5127,0-4.52441-.8623-6.03516-2.58789s-2.26562-4.05273-2.26562-6.98242c0-1.8623.40723-3.57129,1.2207-5.12695s1.9502-2.7666,3.4082-3.63281,3.09863-1.29883,4.92188-1.29883c1.875,0,3.54199.46875,5,1.40625s2.59082,2.28516,3.39844,4.04297,1.21777,3.76953,1.23047,6.03516v2.08984c0,4.73926-1.17871,8.46387-3.53516,11.17188s-5.69629,4.15332-10.01953,4.33594l-1.38672.01953v-4.70703l1.25-.01953c4.90918-.22168,7.56543-2.52637,7.96875-6.91406ZM473.12811,933.61017c.91113,0,1.69629-.23438,2.35352-.70312s1.15527-1.03516,1.49414-1.69922v-2.32422c0-1.91406-.36426-3.39844-1.09375-4.45312s-1.70605-1.58203-2.92969-1.58203c-1.13281,0-2.06348.51758-2.79297,1.55273s-1.09375,2.33398-1.09375,3.89648c0,1.5498.35449,2.82227,1.06445,3.81836s1.70898,1.49414,2.99805,1.49414Z"/>
    <path class="cls-4" d="M503.34295,936.42267h3.22266v4.55078h-3.22266v6.15234h-5.64453v-6.15234h-11.66016l-.25391-3.55469,11.85547-18.73047h5.70312v17.73438ZM491.40936,936.42267h6.28906v-10.03906l-.37109.64453-5.91797,9.39453Z"/>
    <path class="cls-4" d="M528.73358,935.36798c0,3.93262-.81348,6.94043-2.44141,9.02344s-4.01074,3.125-7.14844,3.125c-3.09863,0-5.46875-1.02246-7.10938-3.06641s-2.48047-4.97363-2.51953-8.78906v-5.23438c0-3.97168.82324-6.98535,2.4707-9.04297s4.02051-3.08594,7.11914-3.08594,5.46875,1.01855,7.10938,3.05664,2.48047,4.96387,2.51953,8.7793v5.23438ZM523.08905,929.6131c0-2.35938-.32227-4.07617-.9668-5.15137s-1.65039-1.61328-3.01758-1.61328c-1.32812,0-2.30762.51172-2.93945,1.53516-.63184,1.02246-.9668,2.62305-1.00586,4.79883v6.9209c0,2.32031.31543,4.04395.94727,5.1709.63184,1.12793,1.64355,1.69141,3.03711,1.69141,1.37988,0,2.37598-.54102,2.98828-1.62305.6123-1.08105.93066-2.73633.95703-4.96582v-6.76367Z"/>
    <path class="cls-4" d="M613.57538,947.12579h-5.64453v-21.78809l-6.73828,2.08105v-4.55078l11.77734-4.21875h.60547v28.47656Z"/>
    <path class="cls-4" d="M636.01678,935.75861c-1.47168,1.44531-3.19043,2.16797-5.15625,2.16797-2.5127,0-4.52441-.8623-6.03516-2.58789s-2.26562-4.05273-2.26562-6.98242c0-1.8623.40723-3.57129,1.2207-5.12695s1.9502-2.7666,3.4082-3.63281,3.09863-1.29883,4.92188-1.29883c1.875,0,3.54199.46875,5,1.40625s2.59082,2.28516,3.39844,4.04297,1.21777,3.76953,1.23047,6.03516v2.08984c0,4.73926-1.17871,8.46387-3.53516,11.17188s-5.69629,4.15332-10.01953,4.33594l-1.38672.01953v-4.70703l1.25-.01953c4.90918-.22168,7.56543-2.52637,7.96875-6.91406ZM632.24725,933.61017c.91113,0,1.69629-.23438,2.35352-.70312s1.15527-1.03516,1.49414-1.69922v-2.32422c0-1.91406-.36426-3.39844-1.09375-4.45312s-1.70605-1.58203-2.92969-1.58203c-1.13281,0-2.06348.51758-2.79297,1.55273s-1.09375,2.33398-1.09375,3.89648c0,1.5498.35449,2.82227,1.06445,3.81836s1.70898,1.49414,2.99805,1.49414Z"/>
    <path class="cls-4" d="M646.60272,933.14142l1.64062-14.45312h15.9375v4.70703h-11.30859l-.70312,6.11328c1.34082-.71582,2.7666-1.07422,4.27734-1.07422,2.70801,0,4.83105.83984,6.36719,2.51953s2.30469,4.03027,2.30469,7.05078c0,1.83594-.3877,3.47949-1.16211,4.93164s-1.88477,2.57812-3.33008,3.37891-3.15137,1.20117-5.11719,1.20117c-1.71875,0-3.31348-.34863-4.78516-1.04492s-2.63379-1.67676-3.48633-2.93945-1.30566-2.70215-1.35742-4.31641h5.58594c.11719,1.18457.53027,2.10645,1.24023,2.76367s1.6377.98633,2.7832.98633c1.27637,0,2.25879-.45898,2.94922-1.37695s1.03516-2.2168,1.03516-3.89648c0-1.61426-.39746-2.85156-1.19141-3.71094s-1.9209-1.28906-3.37891-1.28906c-1.34082,0-2.42871.35156-3.26172,1.05469l-.54688.50781-4.49219-1.11328Z"/>
    <path class="cls-4" d="M687.85272,935.36798c0,3.93262-.81348,6.94043-2.44141,9.02344s-4.01074,3.125-7.14844,3.125c-3.09863,0-5.46875-1.02246-7.10938-3.06641s-2.48047-4.97363-2.51953-8.78906v-5.23438c0-3.97168.82324-6.98535,2.4707-9.04297s4.02051-3.08594,7.11914-3.08594,5.46875,1.01855,7.10938,3.05664,2.48047,4.96387,2.51953,8.7793v5.23438ZM682.20819,929.6131c0-2.35938-.32227-4.07617-.9668-5.15137s-1.65039-1.61328-3.01758-1.61328c-1.32812,0-2.30762.51172-2.93945,1.53516-.63184,1.02246-.9668,2.62305-1.00586,4.79883v6.9209c0,2.32031.31543,4.04395.94727,5.1709.63184,1.12793,1.64355,1.69141,3.03711,1.69141,1.37988,0,2.37598-.54102,2.98828-1.62305.6123-1.08105.93066-2.73633.95703-4.96582v-6.76367Z"/>
    <path class="cls-4" d="M772.69354,947.12579h-5.64453v-21.78809l-6.73828,2.08105v-4.55078l11.77734-4.21875h.60547v28.47656Z"/>
    <path class="cls-4" d="M795.13495,935.75861c-1.47168,1.44531-3.19043,2.16797-5.15625,2.16797-2.5127,0-4.52441-.8623-6.03516-2.58789s-2.26562-4.05273-2.26562-6.98242c0-1.8623.40723-3.57129,1.2207-5.12695s1.9502-2.7666,3.4082-3.63281,3.09863-1.29883,4.92188-1.29883c1.875,0,3.54199.46875,5,1.40625s2.59082,2.28516,3.39844,4.04297,1.21777,3.76953,1.23047,6.03516v2.08984c0,4.73926-1.17871,8.46387-3.53516,11.17188s-5.69629,4.15332-10.01953,4.33594l-1.38672.01953v-4.70703l1.25-.01953c4.90918-.22168,7.56543-2.52637,7.96875-6.91406ZM791.36541,933.61017c.91113,0,1.69629-.23438,2.35352-.70312s1.15527-1.03516,1.49414-1.69922v-2.32422c0-1.91406-.36426-3.39844-1.09375-4.45312s-1.70605-1.58203-2.92969-1.58203c-1.13281,0-2.06348.51758-2.79297,1.55273s-1.09375,2.33398-1.09375,3.89648c0,1.5498.35449,2.82227,1.06445,3.81836s1.70898,1.49414,2.99805,1.49414Z"/>
    <path class="cls-4" d="M820.19354,918.39532v4.64844h-.54688c-2.55176.03906-4.60645.70312-6.16211,1.99219s-2.49023,3.0791-2.80273,5.37109c1.51074-1.53613,3.41797-2.30469,5.72266-2.30469,2.47363,0,4.44043.88574,5.89844,2.65625s2.1875,4.10156,2.1875,6.99219c0,1.84863-.40039,3.52246-1.20117,5.01953s-1.93359,2.66309-3.39844,3.49609-3.12207,1.25-4.9707,1.25c-2.99512,0-5.41309-1.04199-7.25586-3.125s-2.76367-4.86328-2.76367-8.33984v-2.03125c0-3.08594.58301-5.81055,1.74805-8.17383s2.83887-4.19238,5.01953-5.48828,4.70996-1.9502,7.58789-1.96289h.9375ZM814.68573,932.65314c-.91113,0-1.73828.2373-2.48047.71191-.74219.47363-1.28906,1.10156-1.64062,1.88086v1.71582c0,1.88477.37109,3.35645,1.11328,4.41504.74219,1.05957,1.78418,1.58887,3.125,1.58887,1.21094,0,2.19043-.47754,2.93945-1.43262s1.12305-2.19336,1.12305-3.71387c0-1.54688-.37793-2.79395-1.13281-3.74316-.75488-.94824-1.77051-1.42285-3.04688-1.42285Z"/>
    <path class="cls-4" d="M846.97088,935.36798c0,3.93262-.81348,6.94043-2.44141,9.02344s-4.01074,3.125-7.14844,3.125c-3.09863,0-5.46875-1.02246-7.10938-3.06641s-2.48047-4.97363-2.51953-8.78906v-5.23438c0-3.97168.82324-6.98535,2.4707-9.04297s4.02051-3.08594,7.11914-3.08594,5.46875,1.01855,7.10938,3.05664,2.48047,4.96387,2.51953,8.7793v5.23438ZM841.32635,929.6131c0-2.35938-.32227-4.07617-.9668-5.15137s-1.65039-1.61328-3.01758-1.61328c-1.32812,0-2.30762.51172-2.93945,1.53516-.63184,1.02246-.9668,2.62305-1.00586,4.79883v6.9209c0,2.32031.31543,4.04395.94727,5.1709.63184,1.12793,1.64355,1.69141,3.03711,1.69141,1.37988,0,2.37598-.54102,2.98828-1.62305.6123-1.08105.93066-2.73633.95703-4.96582v-6.76367Z"/>
    <path class="cls-4" d="M931.81268,947.12579h-5.64453v-21.78809l-6.73828,2.08105v-4.55078l11.77734-4.21875h.60547v28.47656Z"/>
    <path class="cls-4" d="M954.25409,935.75861c-1.47168,1.44531-3.19043,2.16797-5.15625,2.16797-2.5127,0-4.52441-.8623-6.03516-2.58789s-2.26562-4.05273-2.26562-6.98242c0-1.8623.40723-3.57129,1.2207-5.12695s1.9502-2.7666,3.4082-3.63281,3.09863-1.29883,4.92188-1.29883c1.875,0,3.54199.46875,5,1.40625s2.59082,2.28516,3.39844,4.04297,1.21777,3.76953,1.23047,6.03516v2.08984c0,4.73926-1.17871,8.46387-3.53516,11.17188s-5.69629,4.15332-10.01953,4.33594l-1.38672.01953v-4.70703l1.25-.01953c4.90918-.22168,7.56543-2.52637,7.96875-6.91406ZM950.48456,933.61017c.91113,0,1.69629-.23438,2.35352-.70312s1.15527-1.03516,1.49414-1.69922v-2.32422c0-1.91406-.36426-3.39844-1.09375-4.45312s-1.70605-1.58203-2.92969-1.58203c-1.13281,0-2.06348.51758-2.79297,1.55273s-1.09375,2.33398-1.09375,3.89648c0,1.5498.35449,2.82227,1.06445,3.81836s1.70898,1.49414,2.99805,1.49414Z"/>
    <path class="cls-4" d="M983.33612,921.83868l-10.99609,25.28711h-5.95703l11.01562-23.88672h-14.14062v-4.55078h20.07812v3.15039Z"/>
    <path class="cls-4" d="M1006.09002,935.36798c0,3.93262-.81348,6.94043-2.44141,9.02344s-4.01074,3.125-7.14844,3.125c-3.09863,0-5.46875-1.02246-7.10938-3.06641s-2.48047-4.97363-2.51953-8.78906v-5.23438c0-3.97168.82324-6.98535,2.4707-9.04297s4.02051-3.08594,7.11914-3.08594,5.46875,1.01855,7.10938,3.05664,2.48047,4.96387,2.51953,8.7793v5.23438ZM1000.44549,929.6131c0-2.35938-.32227-4.07617-.9668-5.15137s-1.65039-1.61328-3.01758-1.61328c-1.32812,0-2.30762.51172-2.93945,1.53516-.63184,1.02246-.9668,2.62305-1.00586,4.79883v6.9209c0,2.32031.31543,4.04395.94727,5.1709.63184,1.12793,1.64355,1.69141,3.03711,1.69141,1.37988,0,2.37598-.54102,2.98828-1.62305.6123-1.08105.93066-2.73633.95703-4.96582v-6.76367Z"/>
    <path class="cls-4" d="M1090.93182,947.12579h-5.64453v-21.78809l-6.73828,2.08105v-4.55078l11.77734-4.21875h.60547v28.47656Z"/>
    <path class="cls-4" d="M1113.37323,935.75861c-1.47168,1.44531-3.19043,2.16797-5.15625,2.16797-2.5127,0-4.52441-.8623-6.03516-2.58789s-2.26562-4.05273-2.26562-6.98242c0-1.8623.40723-3.57129,1.2207-5.12695s1.9502-2.7666,3.4082-3.63281,3.09863-1.29883,4.92188-1.29883c1.875,0,3.54199.46875,5,1.40625s2.59082,2.28516,3.39844,4.04297,1.21777,3.76953,1.23047,6.03516v2.08984c0,4.73926-1.17871,8.46387-3.53516,11.17188s-5.69629,4.15332-10.01953,4.33594l-1.38672.01953v-4.70703l1.25-.01953c4.90918-.22168,7.56543-2.52637,7.96875-6.91406ZM1109.6037,933.61017c.91113,0,1.69629-.23438,2.35352-.70312s1.15527-1.03516,1.49414-1.69922v-2.32422c0-1.91406-.36426-3.39844-1.09375-4.45312s-1.70605-1.58203-2.92969-1.58203c-1.13281,0-2.06348.51758-2.79297,1.55273s-1.09375,2.33398-1.09375,3.89648c0,1.5498.35449,2.82227,1.06445,3.81836s1.70898,1.49414,2.99805,1.49414Z"/>
    <path class="cls-4" d="M1141.65448,926.24689c0,1.37988-.34473,2.60449-1.03516,3.67188s-1.64062,1.9209-2.85156,2.55859c1.37988.66406,2.47363,1.5791,3.28125,2.74414s1.21094,2.53613,1.21094,4.11133c0,2.52637-.85938,4.52148-2.57812,5.98633s-4.05566,2.19727-7.01172,2.19727-5.2998-.73535-7.03125-2.20703-2.59766-3.46387-2.59766-5.97656c0-1.5752.40332-2.94922,1.21094-4.12109s1.89453-2.08301,3.26172-2.73438c-1.21094-.6377-2.1582-1.49121-2.8418-2.55859s-1.02539-2.29199-1.02539-3.67188c0-2.42188.80762-4.35254,2.42188-5.79102s3.80859-2.1582,6.58203-2.1582c2.76074,0,4.95117.71289,6.57227,2.13867s2.43164,3.3623,2.43164,5.81055ZM1136.59588,938.92267c0-1.2373-.3584-2.22656-1.07422-2.96875s-1.67969-1.11328-2.89062-1.11328c-1.19824,0-2.15527.36816-2.87109,1.10352s-1.07422,1.72852-1.07422,2.97852c0,1.21094.35156,2.1875,1.05469,2.92969s1.67969,1.11328,2.92969,1.11328c1.22363,0,2.18457-.3584,2.88086-1.07422s1.04492-1.70605,1.04492-2.96875ZM1136.00995,926.52032c0-1.10645-.29297-1.99512-.87891-2.66602s-1.41309-1.00586-2.48047-1.00586c-1.05469,0-1.875.3252-2.46094.97656s-.87891,1.5498-.87891,2.69531c0,1.13281.29297,2.04395.87891,2.73438s1.41309,1.03516,2.48047,1.03516,1.8916-.34473,2.4707-1.03516.86914-1.60156.86914-2.73438Z"/>
    <path class="cls-4" d="M1165.20916,935.36798c0,3.93262-.81348,6.94043-2.44141,9.02344s-4.01074,3.125-7.14844,3.125c-3.09863,0-5.46875-1.02246-7.10938-3.06641s-2.48047-4.97363-2.51953-8.78906v-5.23438c0-3.97168.82324-6.98535,2.4707-9.04297s4.02051-3.08594,7.11914-3.08594,5.46875,1.01855,7.10938,3.05664,2.48047,4.96387,2.51953,8.7793v5.23438ZM1159.56463,929.6131c0-2.35938-.32227-4.07617-.9668-5.15137s-1.65039-1.61328-3.01758-1.61328c-1.32812,0-2.30762.51172-2.93945,1.53516-.63184,1.02246-.9668,2.62305-1.00586,4.79883v6.9209c0,2.32031.31543,4.04395.94727,5.1709.63184,1.12793,1.64355,1.69141,3.03711,1.69141,1.37988,0,2.37598-.54102,2.98828-1.62305.6123-1.08105.93066-2.73633.95703-4.96582v-6.76367Z"/>
    <path class="cls-4" d="M1250.04998,947.12579h-5.64453v-21.78809l-6.73828,2.08105v-4.55078l11.77734-4.21875h.60547v28.47656Z"/>
    <path class="cls-4" d="M1272.49139,935.75861c-1.47168,1.44531-3.19043,2.16797-5.15625,2.16797-2.5127,0-4.52441-.8623-6.03516-2.58789s-2.26562-4.05273-2.26562-6.98242c0-1.8623.40723-3.57129,1.2207-5.12695s1.9502-2.7666,3.4082-3.63281,3.09863-1.29883,4.92188-1.29883c1.875,0,3.54199.46875,5,1.40625s2.59082,2.28516,3.39844,4.04297,1.21777,3.76953,1.23047,6.03516v2.08984c0,4.73926-1.17871,8.46387-3.53516,11.17188s-5.69629,4.15332-10.01953,4.33594l-1.38672.01953v-4.70703l1.25-.01953c4.90918-.22168,7.56543-2.52637,7.96875-6.91406ZM1268.72186,933.61017c.91113,0,1.69629-.23438,2.35352-.70312s1.15527-1.03516,1.49414-1.69922v-2.32422c0-1.91406-.36426-3.39844-1.09375-4.45312s-1.70605-1.58203-2.92969-1.58203c-1.13281,0-2.06348.51758-2.79297,1.55273s-1.09375,2.33398-1.09375,3.89648c0,1.5498.35449,2.82227,1.06445,3.81836s1.70898,1.49414,2.99805,1.49414Z"/>
    <path class="cls-4" d="M1295.44061,935.75861c-1.47168,1.44531-3.19043,2.16797-5.15625,2.16797-2.5127,0-4.52441-.8623-6.03516-2.58789s-2.26562-4.05273-2.26562-6.98242c0-1.8623.40723-3.57129,1.2207-5.12695s1.9502-2.7666,3.4082-3.63281,3.09863-1.29883,4.92188-1.29883c1.875,0,3.54199.46875,5,1.40625s2.59082,2.28516,3.39844,4.04297,1.21777,3.76953,1.23047,6.03516v2.08984c0,4.73926-1.17871,8.46387-3.53516,11.17188s-5.69629,4.15332-10.01953,4.33594l-1.38672.01953v-4.70703l1.25-.01953c4.90918-.22168,7.56543-2.52637,7.96875-6.91406ZM1291.67108,933.61017c.91113,0,1.69629-.23438,2.35352-.70312s1.15527-1.03516,1.49414-1.69922v-2.32422c0-1.91406-.36426-3.39844-1.09375-4.45312s-1.70605-1.58203-2.92969-1.58203c-1.13281,0-2.06348.51758-2.79297,1.55273s-1.09375,2.33398-1.09375,3.89648c0,1.5498.35449,2.82227,1.06445,3.81836s1.70898,1.49414,2.99805,1.49414Z"/>
    <path class="cls-4" d="M1324.32733,935.36798c0,3.93262-.81348,6.94043-2.44141,9.02344s-4.01074,3.125-7.14844,3.125c-3.09863,0-5.46875-1.02246-7.10938-3.06641s-2.48047-4.97363-2.51953-8.78906v-5.23438c0-3.97168.82324-6.98535,2.4707-9.04297s4.02051-3.08594,7.11914-3.08594,5.46875,1.01855,7.10938,3.05664,2.48047,4.96387,2.51953,8.7793v5.23438ZM1318.6828,929.6131c0-2.35938-.32227-4.07617-.9668-5.15137s-1.65039-1.61328-3.01758-1.61328c-1.32812,0-2.30762.51172-2.93945,1.53516-.63184,1.02246-.9668,2.62305-1.00586,4.79883v6.9209c0,2.32031.31543,4.04395.94727,5.1709.63184,1.12793,1.64355,1.69141,3.03711,1.69141,1.37988,0,2.37598-.54102,2.98828-1.62305.6123-1.08105.93066-2.73633.95703-4.96582v-6.76367Z"/>
    <path class="cls-4" d="M1414.95038,947.12579h-19.49219v-3.86719l9.19922-9.80469c1.2627-1.37988,2.19727-2.58496,2.80273-3.61328s.9082-2.00488.9082-2.92969c0-1.2627-.31934-2.25586-.95703-2.97852s-1.5498-1.08398-2.73438-1.08398c-1.27637,0-2.28223.43945-3.01758,1.31836s-1.10352,2.03418-1.10352,3.4668h-5.66406c0-1.73145.41309-3.31348,1.24023-4.74609s1.99512-2.55566,3.50586-3.36914,3.22266-1.2207,5.13672-1.2207c2.92969,0,5.20508.70312,6.82617,2.10938s2.43164,3.3916,2.43164,5.95703c0,1.40625-.36426,2.83887-1.09375,4.29688s-1.97949,3.15723-3.75,5.09766l-6.46484,6.81641h12.22656v4.55078Z"/>
    <path class="cls-4" d="M1437.54803,935.36798c0,3.93262-.81348,6.94043-2.44141,9.02344s-4.01074,3.125-7.14844,3.125c-3.09863,0-5.46875-1.02246-7.10938-3.06641s-2.48047-4.97363-2.51953-8.78906v-5.23438c0-3.97168.82324-6.98535,2.4707-9.04297s4.02051-3.08594,7.11914-3.08594,5.46875,1.01855,7.10938,3.05664,2.48047,4.96387,2.51953,8.7793v5.23438ZM1431.9035,929.6131c0-2.35938-.32227-4.07617-.9668-5.15137s-1.65039-1.61328-3.01758-1.61328c-1.32812,0-2.30762.51172-2.93945,1.53516-.63184,1.02246-.9668,2.62305-1.00586,4.79883v6.9209c0,2.32031.31543,4.04395.94727,5.1709.63184,1.12793,1.64355,1.69141,3.03711,1.69141,1.37988,0,2.37598-.54102,2.98828-1.62305.6123-1.08105.93066-2.73633.95703-4.96582v-6.76367Z"/>
    <path class="cls-4" d="M1460.49725,935.36798c0,3.93262-.81348,6.94043-2.44141,9.02344s-4.01074,3.125-7.14844,3.125c-3.09863,0-5.46875-1.02246-7.10938-3.06641s-2.48047-4.97363-2.51953-8.78906v-5.23438c0-3.97168.82324-6.98535,2.4707-9.04297s4.02051-3.08594,7.11914-3.08594,5.46875,1.01855,7.10938,3.05664,2.48047,4.96387,2.51953,8.7793v5.23438ZM1454.85272,929.6131c0-2.35938-.32227-4.07617-.9668-5.15137s-1.65039-1.61328-3.01758-1.61328c-1.32812,0-2.30762.51172-2.93945,1.53516-.63184,1.02246-.9668,2.62305-1.00586,4.79883v6.9209c0,2.32031.31543,4.04395.94727,5.1709.63184,1.12793,1.64355,1.69141,3.03711,1.69141,1.37988,0,2.37598-.54102,2.98828-1.62305.6123-1.08105.93066-2.73633.95703-4.96582v-6.76367Z"/>
    <path class="cls-4" d="M1483.44647,935.36798c0,3.93262-.81348,6.94043-2.44141,9.02344s-4.01074,3.125-7.14844,3.125c-3.09863,0-5.46875-1.02246-7.10938-3.06641s-2.48047-4.97363-2.51953-8.78906v-5.23438c0-3.97168.82324-6.98535,2.4707-9.04297s4.02051-3.08594,7.11914-3.08594,5.46875,1.01855,7.10938,3.05664,2.48047,4.96387,2.51953,8.7793v5.23438ZM1477.80194,929.6131c0-2.35938-.32227-4.07617-.9668-5.15137s-1.65039-1.61328-3.01758-1.61328c-1.32812,0-2.30762.51172-2.93945,1.53516-.63184,1.02246-.9668,2.62305-1.00586,4.79883v6.9209c0,2.32031.31543,4.04395.94727,5.1709.63184,1.12793,1.64355,1.69141,3.03711,1.69141,1.37988,0,2.37598-.54102,2.98828-1.62305.6123-1.08105.93066-2.73633.95703-4.96582v-6.76367Z"/>
    <path class="cls-4" d="M1574.06952,947.12579h-19.49219v-3.86719l9.19922-9.80469c1.2627-1.37988,2.19727-2.58496,2.80273-3.61328s.9082-2.00488.9082-2.92969c0-1.2627-.31934-2.25586-.95703-2.97852s-1.5498-1.08398-2.73438-1.08398c-1.27637,0-2.28223.43945-3.01758,1.31836s-1.10352,2.03418-1.10352,3.4668h-5.66406c0-1.73145.41309-3.31348,1.24023-4.74609s1.99512-2.55566,3.50586-3.36914,3.22266-1.2207,5.13672-1.2207c2.92969,0,5.20508.70312,6.82617,2.10938s2.43164,3.3916,2.43164,5.95703c0,1.40625-.36426,2.83887-1.09375,4.29688s-1.97949,3.15723-3.75,5.09766l-6.46484,6.81641h12.22656v4.55078Z"/>
    <path class="cls-4" d="M1596.66717,935.36798c0,3.93262-.81348,6.94043-2.44141,9.02344s-4.01074,3.125-7.14844,3.125c-3.09863,0-5.46875-1.02246-7.10938-3.06641s-2.48047-4.97363-2.51953-8.78906v-5.23438c0-3.97168.82324-6.98535,2.4707-9.04297s4.02051-3.08594,7.11914-3.08594,5.46875,1.01855,7.10938,3.05664,2.48047,4.96387,2.51953,8.7793v5.23438ZM1591.02264,929.6131c0-2.35938-.32227-4.07617-.9668-5.15137s-1.65039-1.61328-3.01758-1.61328c-1.32812,0-2.30762.51172-2.93945,1.53516-.63184,1.02246-.9668,2.62305-1.00586,4.79883v6.9209c0,2.32031.31543,4.04395.94727,5.1709.63184,1.12793,1.64355,1.69141,3.03711,1.69141,1.37988,0,2.37598-.54102,2.98828-1.62305.6123-1.08105.93066-2.73633.95703-4.96582v-6.76367Z"/>
    <path class="cls-4" d="M1614.1867,947.12579h-5.64453v-21.78809l-6.73828,2.08105v-4.55078l11.77734-4.21875h.60547v28.47656Z"/>
    <path class="cls-4" d="M1642.56561,935.36798c0,3.93262-.81348,6.94043-2.44141,9.02344s-4.01074,3.125-7.14844,3.125c-3.09863,0-5.46875-1.02246-7.10938-3.06641s-2.48047-4.97363-2.51953-8.78906v-5.23438c0-3.97168.82324-6.98535,2.4707-9.04297s4.02051-3.08594,7.11914-3.08594,5.46875,1.01855,7.10938,3.05664,2.48047,4.96387,2.51953,8.7793v5.23438ZM1636.92108,929.6131c0-2.35938-.32227-4.07617-.9668-5.15137s-1.65039-1.61328-3.01758-1.61328c-1.32812,0-2.30762.51172-2.93945,1.53516-.63184,1.02246-.9668,2.62305-1.00586,4.79883v6.9209c0,2.32031.31543,4.04395.94727,5.1709.63184,1.12793,1.64355,1.69141,3.03711,1.69141,1.37988,0,2.37598-.54102,2.98828-1.62305.6123-1.08105.93066-2.73633.95703-4.96582v-6.76367Z"/>
    <path class="cls-4" d="M1733.18866,947.12579h-19.49219v-3.86719l9.19922-9.80469c1.2627-1.37988,2.19727-2.58496,2.80273-3.61328s.9082-2.00488.9082-2.92969c0-1.2627-.31934-2.25586-.95703-2.97852s-1.5498-1.08398-2.73438-1.08398c-1.27637,0-2.28223.43945-3.01758,1.31836s-1.10352,2.03418-1.10352,3.4668h-5.66406c0-1.73145.41309-3.31348,1.24023-4.74609s1.99512-2.55566,3.50586-3.36914,3.22266-1.2207,5.13672-1.2207c2.92969,0,5.20508.70312,6.82617,2.10938s2.43164,3.3916,2.43164,5.95703c0,1.40625-.36426,2.83887-1.09375,4.29688s-1.97949,3.15723-3.75,5.09766l-6.46484,6.81641h12.22656v4.55078Z"/>
    <path class="cls-4" d="M1755.78631,935.36798c0,3.93262-.81348,6.94043-2.44141,9.02344s-4.01074,3.125-7.14844,3.125c-3.09863,0-5.46875-1.02246-7.10938-3.06641s-2.48047-4.97363-2.51953-8.78906v-5.23438c0-3.97168.82324-6.98535,2.4707-9.04297s4.02051-3.08594,7.11914-3.08594,5.46875,1.01855,7.10938,3.05664,2.48047,4.96387,2.51953,8.7793v5.23438ZM1750.14178,929.6131c0-2.35938-.32227-4.07617-.9668-5.15137s-1.65039-1.61328-3.01758-1.61328c-1.32812,0-2.30762.51172-2.93945,1.53516-.63184,1.02246-.9668,2.62305-1.00586,4.79883v6.9209c0,2.32031.31543,4.04395.94727,5.1709.63184,1.12793,1.64355,1.69141,3.03711,1.69141,1.37988,0,2.37598-.54102,2.98828-1.62305.6123-1.08105.93066-2.73633.95703-4.96582v-6.76367Z"/>
    <path class="cls-4" d="M1779.08709,947.12579h-19.49219v-3.86719l9.19922-9.80469c1.2627-1.37988,2.19727-2.58496,2.80273-3.61328s.9082-2.00488.9082-2.92969c0-1.2627-.31934-2.25586-.95703-2.97852s-1.5498-1.08398-2.73438-1.08398c-1.27637,0-2.28223.43945-3.01758,1.31836s-1.10352,2.03418-1.10352,3.4668h-5.66406c0-1.73145.41309-3.31348,1.24023-4.74609s1.99512-2.55566,3.50586-3.36914,3.22266-1.2207,5.13672-1.2207c2.92969,0,5.20508.70312,6.82617,2.10938s2.43164,3.3916,2.43164,5.95703c0,1.40625-.36426,2.83887-1.09375,4.29688s-1.97949,3.15723-3.75,5.09766l-6.46484,6.81641h12.22656v4.55078Z"/>
    <path class="cls-4" d="M1801.68475,935.36798c0,3.93262-.81348,6.94043-2.44141,9.02344s-4.01074,3.125-7.14844,3.125c-3.09863,0-5.46875-1.02246-7.10938-3.06641s-2.48047-4.97363-2.51953-8.78906v-5.23438c0-3.97168.82324-6.98535,2.4707-9.04297s4.02051-3.08594,7.11914-3.08594,5.46875,1.01855,7.10938,3.05664,2.48047,4.96387,2.51953,8.7793v5.23438ZM1796.04022,929.6131c0-2.35938-.32227-4.07617-.9668-5.15137s-1.65039-1.61328-3.01758-1.61328c-1.32812,0-2.30762.51172-2.93945,1.53516-.63184,1.02246-.9668,2.62305-1.00586,4.79883v6.9209c0,2.32031.31543,4.04395.94727,5.1709.63184,1.12793,1.64355,1.69141,3.03711,1.69141,1.37988,0,2.37598-.54102,2.98828-1.62305.6123-1.08105.93066-2.73633.95703-4.96582v-6.76367Z"/>
  </g>
  <rect class="cls-4" x="548.91937" y="245.34027" width="702.26922" height="32.04477"/>
  <rect class="cls-4" x="613.62495" y="316.38401" width="732.59489" height="32.04477"/>
  <rect class="cls-4" x="661.28956" y="385.9985" width="700.1242" height="32.04477"/>
  <rect class="cls-4" x="741.51087" y="456.6099" width="571.08149" height="32.04477"/>
  <rect class="cls-4" x="899.68326" y="526.33248" width="333.56949" height="32.04477"/>
  <rect class="cls-4" x="867.95167" y="600.37286" width="905.34334" height="32.04477"/>
  <rect class="cls-4" x="802.4253" y="669.92967" width="970.31748" height="32.04477"/>
  <rect class="cls-4" x="1407.75403" y="737.33954" width="364.98875" height="32.04477"/>
  <rect class="cls-4" x="1216.60896" y="811.37992" width="556.42108" height="32.04477"/>
  <g>
    <path class="cls-4" d="M804.53338,206.01349h-5.85938l-11.40625-18.71094v18.71094h-5.85938v-28.4375h5.85938l11.42578,18.75v-18.75h5.83984v28.4375Z"/>
    <path class="cls-4" d="M815.50995,195.99396v10.01953h-5.85938v-28.4375h11.09375c2.13574,0,4.01367.39062,5.63477,1.17188s2.86816,1.8916,3.74023,3.33008,1.30859,3.07617,1.30859,4.91211c0,2.78613-.9541,4.9834-2.86133,6.5918s-4.54785,2.41211-7.91992,2.41211h-5.13672ZM815.50995,191.24786h5.23438c1.5498,0,2.73145-.36426,3.54492-1.09375s1.2207-1.77051,1.2207-3.125c0-1.39355-.41016-2.51953-1.23047-3.37891s-1.95312-1.30176-3.39844-1.32812h-5.37109v8.92578Z"/>
    <path class="cls-4" d="M856.8576,182.32208h-8.71094v23.69141h-5.85938v-23.69141h-8.59375v-4.74609h23.16406v4.74609Z"/>
    <path class="cls-4" d="M878.34198,206.40411c-3.09863,0-5.62207-.9502-7.56836-2.85156s-2.91992-4.43359-2.91992-7.59766v-.54688c0-2.12207.41016-4.02051,1.23047-5.69336s1.98242-2.96191,3.48633-3.86719,3.21973-1.35742,5.14648-1.35742c2.89062,0,5.16602.91113,6.82617,2.73438s2.49023,4.40723,2.49023,7.75391v2.30469h-13.45703c.18262,1.37988.73242,2.4873,1.65039,3.32031s2.08008,1.25,3.48633,1.25c2.1748,0,3.87402-.78809,5.09766-2.36328l2.77344,3.10547c-.84668,1.19824-1.99219,2.13184-3.4375,2.80273s-3.04688,1.00586-4.80469,1.00586ZM877.69745,189.04083c-1.12012,0-2.02832.37891-2.72461,1.1377s-1.14258,1.84473-1.33789,3.25684h7.85156v-.45117c-.02637-1.25586-.36426-2.22656-1.01562-2.91309s-1.5752-1.03027-2.77344-1.03027Z"/>
    <path class="cls-4" d="M895.43182,184.88068l.17578,2.44141c1.51074-1.8877,3.53516-2.83203,6.07422-2.83203,2.23926,0,3.90625.65723,5,1.97266s1.65332,3.28125,1.67969,5.89844v13.65234h-5.64453v-13.54688c0-1.2002-.26074-2.07129-.78125-2.61328-.52051-.54102-1.38672-.8125-2.59766-.8125-1.58887,0-2.78027.67871-3.57422,2.03613v14.93652h-5.64453v-21.13281h5.3125Z"/>
    <path class="cls-4" d="M919.39666,179.68536v5.19531h3.61328v4.14062h-3.61328v10.54688c0,.78125.14941,1.34082.44922,1.67969s.87207.50781,1.71875.50781c.625,0,1.17871-.0459,1.66016-.13672v4.27734c-1.10645.33887-2.24609.50781-3.41797.50781-3.95801,0-5.97656-1.99902-6.05469-5.99609v-11.38672h-3.08594v-4.14062h3.08594v-5.19531h5.64453Z"/>
    <path class="cls-4" d="M938.02948,190.17364c-.76855-.10449-1.44531-.15625-2.03125-.15625-2.13574,0-3.53516.72266-4.19922,2.16797v13.82812h-5.64453v-21.13281h5.33203l.15625,2.51953c1.13281-1.94043,2.70215-2.91016,4.70703-2.91016.625,0,1.21094.08496,1.75781.25391l-.07812,5.42969Z"/>
    <path class="cls-4" d="M948.98651,198.02521l3.90625-13.14453h6.05469l-8.49609,24.41406-.46875,1.11328c-1.2627,2.76074-3.34668,4.14062-6.25,4.14062-.82031,0-1.65332-.12402-2.5-.37109v-4.27734l.85938.01953c1.06738,0,1.86523-.16309,2.39258-.48828s.94043-.86621,1.24023-1.62109l.66406-1.73828-7.40234-21.19141h6.07422l3.92578,13.14453Z"/>
    <path class="cls-4" d="M971.09588,179.41193c0-.84668.2832-1.54297.84961-2.08984s1.33789-.82031,2.31445-.82031c.96387,0,1.73145.27344,2.30469.82031s.85938,1.24316.85938,2.08984c0,.85938-.29004,1.5625-.86914,2.10938s-1.34473.82031-2.29492.82031-1.71582-.27344-2.29492-.82031-.86914-1.25-.86914-2.10938ZM977.09198,206.01349h-5.66406v-21.13281h5.66406v21.13281Z"/>
    <path class="cls-4" d="M986.93573,184.88068l.17578,2.44141c1.51074-1.8877,3.53516-2.83203,6.07422-2.83203,2.23926,0,3.90625.65723,5,1.97266s1.65332,3.28125,1.67969,5.89844v13.65234h-5.64453v-13.54688c0-1.2002-.26074-2.07129-.78125-2.61328-.52051-.54102-1.38672-.8125-2.59766-.8125-1.58887,0-2.78027.67871-3.57422,2.03613v14.93652h-5.64453v-21.13281h5.3125Z"/>
    <path class="cls-4" d="M1010.90057,179.68536v5.19531h3.61328v4.14062h-3.61328v10.54688c0,.78125.14941,1.34082.44922,1.67969s.87207.50781,1.71875.50781c.625,0,1.17871-.0459,1.66016-.13672v4.27734c-1.10645.33887-2.24609.50781-3.41797.50781-3.95801,0-5.97656-1.99902-6.05469-5.99609v-11.38672h-3.08594v-4.14062h3.08594v-5.19531h5.64453Z"/>
    <path class="cls-4" d="M1016.19354,195.25177c0-2.09668.40332-3.96484,1.21094-5.60547s1.96973-2.91016,3.48633-3.80859,3.27832-1.34766,5.2832-1.34766c2.85156,0,5.17871.87207,6.98242,2.61719s2.80957,4.11426,3.01758,7.10938l.03906,1.44531c0,3.24219-.90527,5.84277-2.71484,7.80273s-4.23828,2.93945-7.28516,2.93945-5.47852-.97656-7.29492-2.92969-2.72461-4.60938-2.72461-7.96875v-.25391ZM1021.83807,195.65216c0,2.00879.37793,3.54395,1.13281,4.60742.75488,1.0625,1.83594,1.59375,3.24219,1.59375,1.36719,0,2.43457-.52539,3.20312-1.57422.76855-1.05078,1.15234-2.72949,1.15234-5.03711,0-1.96973-.38379-3.49512-1.15234-4.57812-.76855-1.08203-1.84863-1.62305-3.24219-1.62305-1.37988,0-2.44824.53809-3.20312,1.61328-.75488,1.07617-1.13281,2.74219-1.13281,4.99805Z"/>
    <path class="cls-4" d="M1067.13104,194.39239h-11.25v11.62109h-5.85938v-28.4375h18.51562v4.74609h-12.65625v7.34375h11.25v4.72656Z"/>
    <path class="cls-4" d="M1070.27557,195.25177c0-2.09668.40332-3.96484,1.21094-5.60547s1.96973-2.91016,3.48633-3.80859,3.27832-1.34766,5.2832-1.34766c2.85156,0,5.17871.87207,6.98242,2.61719s2.80957,4.11426,3.01758,7.10938l.03906,1.44531c0,3.24219-.90527,5.84277-2.71484,7.80273s-4.23828,2.93945-7.28516,2.93945-5.47852-.97656-7.29492-2.92969-2.72461-4.60938-2.72461-7.96875v-.25391ZM1075.9201,195.65216c0,2.00879.37793,3.54395,1.13281,4.60742.75488,1.0625,1.83594,1.59375,3.24219,1.59375,1.36719,0,2.43457-.52539,3.20312-1.57422.76855-1.05078,1.15234-2.72949,1.15234-5.03711,0-1.96973-.38379-3.49512-1.15234-4.57812-.76855-1.08203-1.84863-1.62305-3.24219-1.62305-1.37988,0-2.44824.53809-3.20312,1.61328-.75488,1.07617-1.13281,2.74219-1.13281,4.99805Z"/>
    <path class="cls-4" d="M1105.64666,190.17364c-.76855-.10449-1.44531-.15625-2.03125-.15625-2.13574,0-3.53516.72266-4.19922,2.16797v13.82812h-5.64453v-21.13281h5.33203l.15625,2.51953c1.13281-1.94043,2.70215-2.91016,4.70703-2.91016.625,0,1.21094.08496,1.75781.25391l-.07812,5.42969Z"/>
    <path class="cls-4" d="M1116.77948,201.85333c1.04199,0,1.8877-.28613,2.53906-.85938s.98926-1.33496,1.01562-2.28516h5.29297c-.0127,1.43262-.40332,2.74414-1.17188,3.93555s-1.81934,2.11621-3.1543,2.77344-2.80957.98633-4.42383.98633c-3.02051,0-5.40332-.95996-7.14844-2.88086s-2.61719-4.57324-2.61719-7.95898v-.37109c0-3.25488.86621-5.85254,2.59766-7.79297s4.1084-2.91016,7.12891-2.91016c2.64355,0,4.7627.75195,6.35742,2.25586s2.40527,3.50586,2.43164,6.00586h-5.29297c-.02637-1.09961-.36426-1.99316-1.01562-2.67969-.65137-.6875-1.51074-1.03125-2.57812-1.03125-1.31543,0-2.30762.47949-2.97852,1.4375-.6709.95898-1.00586,2.51367-1.00586,4.66504v.58691c0,2.17871.33203,3.74316.99609,4.69531s1.67285,1.42773,3.02734,1.42773Z"/>
    <path class="cls-4" d="M1138.57635,206.40411c-3.09863,0-5.62207-.9502-7.56836-2.85156s-2.91992-4.43359-2.91992-7.59766v-.54688c0-2.12207.41016-4.02051,1.23047-5.69336s1.98242-2.96191,3.48633-3.86719,3.21973-1.35742,5.14648-1.35742c2.89062,0,5.16602.91113,6.82617,2.73438s2.49023,4.40723,2.49023,7.75391v2.30469h-13.45703c.18262,1.37988.73242,2.4873,1.65039,3.32031s2.08008,1.25,3.48633,1.25c2.1748,0,3.87402-.78809,5.09766-2.36328l2.77344,3.10547c-.84668,1.19824-1.99219,2.13184-3.4375,2.80273s-3.04688,1.00586-4.80469,1.00586ZM1137.93182,189.04083c-1.12012,0-2.02832.37891-2.72461,1.1377s-1.14258,1.84473-1.33789,3.25684h7.85156v-.45117c-.02637-1.25586-.36426-2.22656-1.01562-2.91309s-1.5752-1.03027-2.77344-1.03027Z"/>
  </g>
  <g>
    <path class="cls-4" d="M101.71698,160.94415v10.01953h-5.85938v-28.4375h11.09375c2.13574,0,4.01367.39062,5.63477,1.17188s2.86816,1.8916,3.74023,3.33008,1.30859,3.07617,1.30859,4.91211c0,2.78613-.9541,4.9834-2.86133,6.5918s-4.54785,2.41211-7.91992,2.41211h-5.13672ZM101.71698,156.19806h5.23438c1.5498,0,2.73145-.36426,3.54492-1.09375s1.2207-1.77051,1.2207-3.125c0-1.39355-.41016-2.51953-1.23047-3.37891s-1.95312-1.30176-3.39844-1.32812h-5.37109v8.92578Z"/>
    <path class="cls-4" d="M133.16229,155.12384c-.76855-.10449-1.44531-.15625-2.03125-.15625-2.13574,0-3.53516.72266-4.19922,2.16797v13.82812h-5.64453v-21.13281h5.33203l.15625,2.51953c1.13281-1.94043,2.70215-2.91016,4.70703-2.91016.625,0,1.21094.08496,1.75781.25391l-.07812,5.42969Z"/>
    <path class="cls-4" d="M134.2951,160.20197c0-2.09668.40332-3.96484,1.21094-5.60547s1.96973-2.91016,3.48633-3.80859,3.27832-1.34766,5.2832-1.34766c2.85156,0,5.17871.87207,6.98242,2.61719s2.80957,4.11426,3.01758,7.10938l.03906,1.44531c0,3.24219-.90527,5.84277-2.71484,7.80273s-4.23828,2.93945-7.28516,2.93945-5.47852-.97656-7.29492-2.92969-2.72461-4.60938-2.72461-7.96875v-.25391ZM139.93963,160.60236c0,2.00879.37793,3.54395,1.13281,4.60742.75488,1.0625,1.83594,1.59375,3.24219,1.59375,1.36719,0,2.43457-.52539,3.20312-1.57422.76855-1.05078,1.15234-2.72949,1.15234-5.03711,0-1.96973-.38379-3.49512-1.15234-4.57812-.76855-1.08203-1.84863-1.62305-3.24219-1.62305-1.37988,0-2.44824.53809-3.20312,1.61328-.75488,1.07617-1.13281,2.74219-1.13281,4.99805Z"/>
    <path class="cls-4" d="M156.91229,160.24103c0-3.29395.73926-5.91797,2.2168-7.87109s3.49902-2.92969,6.06445-2.92969c2.05762,0,3.75684.76855,5.09766,2.30469v-10.78125h5.66406v30h-5.09766l-.27344-2.24609c-1.40625,1.75781-3.21582,2.63672-5.42969,2.63672-2.4873,0-4.48242-.97949-5.98633-2.93945s-2.25586-4.68457-2.25586-8.17383ZM162.55682,160.64239c0,1.98828.34473,3.5127,1.03516,4.57129.69043,1.06055,1.69238,1.58984,3.00781,1.58984,1.74512,0,2.97559-.73926,3.69141-2.2168v-8.37891c-.70312-1.47754-1.9209-2.2168-3.65234-2.2168-2.72168,0-4.08203,2.21777-4.08203,6.65137Z"/>
    <path class="cls-4" d="M192.98651,168.81525c-1.39355,1.69238-3.32031,2.53906-5.78125,2.53906-2.26562,0-3.99414-.65137-5.18555-1.95312s-1.7998-3.20996-1.82617-5.72266v-13.84766h5.64453v13.66797c0,2.20312,1.00293,3.30469,3.00781,3.30469,1.91406,0,3.22949-.66504,3.94531-1.99414v-14.97852h5.66406v21.13281h-5.3125l-.15625-2.14844Z"/>
    <path class="cls-4" d="M211.50213,166.80353c1.04199,0,1.8877-.28613,2.53906-.85938s.98926-1.33496,1.01562-2.28516h5.29297c-.0127,1.43262-.40332,2.74414-1.17188,3.93555s-1.81934,2.11621-3.1543,2.77344-2.80957.98633-4.42383.98633c-3.02051,0-5.40332-.95996-7.14844-2.88086s-2.61719-4.57324-2.61719-7.95898v-.37109c0-3.25488.86621-5.85254,2.59766-7.79297s4.1084-2.91016,7.12891-2.91016c2.64355,0,4.7627.75195,6.35742,2.25586s2.40527,3.50586,2.43164,6.00586h-5.29297c-.02637-1.09961-.36426-1.99316-1.01562-2.67969-.65137-.6875-1.51074-1.03125-2.57812-1.03125-1.31543,0-2.30762.47949-2.97852,1.4375-.6709.95898-1.00586,2.51367-1.00586,4.66504v.58691c0,2.17871.33203,3.74316.99609,4.69531s1.67285,1.42773,3.02734,1.42773Z"/>
    <path class="cls-4" d="M230.33026,144.63556v5.19531h3.61328v4.14062h-3.61328v10.54688c0,.78125.14941,1.34082.44922,1.67969s.87207.50781,1.71875.50781c.625,0,1.17871-.0459,1.66016-.13672v4.27734c-1.10645.33887-2.24609.50781-3.41797.50781-3.95801,0-5.97656-1.99902-6.05469-5.99609v-11.38672h-3.08594v-4.14062h3.08594v-5.19531h5.64453Z"/>
    <path class="cls-4" d="M237.04901,144.36212c0-.84668.2832-1.54297.84961-2.08984s1.33789-.82031,2.31445-.82031c.96387,0,1.73145.27344,2.30469.82031s.85938,1.24316.85938,2.08984c0,.85938-.29004,1.5625-.86914,2.10938s-1.34473.82031-2.29492.82031-1.71582-.27344-2.29492-.82031-.86914-1.25-.86914-2.10938ZM243.0451,170.96368h-5.66406v-21.13281h5.66406v21.13281Z"/>
    <path class="cls-4" d="M246.81463,160.20197c0-2.09668.40332-3.96484,1.21094-5.60547s1.96973-2.91016,3.48633-3.80859,3.27832-1.34766,5.2832-1.34766c2.85156,0,5.17871.87207,6.98242,2.61719s2.80957,4.11426,3.01758,7.10938l.03906,1.44531c0,3.24219-.90527,5.84277-2.71484,7.80273s-4.23828,2.93945-7.28516,2.93945-5.47852-.97656-7.29492-2.92969-2.72461-4.60938-2.72461-7.96875v-.25391ZM252.45916,160.60236c0,2.00879.37793,3.54395,1.13281,4.60742.75488,1.0625,1.83594,1.59375,3.24219,1.59375,1.36719,0,2.43457-.52539,3.20312-1.57422.76855-1.05078,1.15234-2.72949,1.15234-5.03711,0-1.96973-.38379-3.49512-1.15234-4.57812-.76855-1.08203-1.84863-1.62305-3.24219-1.62305-1.37988,0-2.44824.53809-3.20312,1.61328-.75488,1.07617-1.13281,2.74219-1.13281,4.99805Z"/>
    <path class="cls-4" d="M275.50604,149.83087l.17578,2.44141c1.51074-1.8877,3.53516-2.83203,6.07422-2.83203,2.23926,0,3.90625.65723,5,1.97266s1.65332,3.28125,1.67969,5.89844v13.65234h-5.64453v-13.54688c0-1.2002-.26074-2.07129-.78125-2.61328-.52051-.54102-1.38672-.8125-2.59766-.8125-1.58887,0-2.78027.67871-3.57422,2.03613v14.93652h-5.64453v-21.13281h5.3125Z"/>
    <path class="cls-4" d="M321.69745,160.59259c0,3.25488-.73926,5.8623-2.2168,7.82227s-3.47363,2.93945-5.98633,2.93945c-2.13574,0-3.86035-.74219-5.17578-2.22656v9.96094h-5.64453v-29.25781h5.23438l.19531,2.07031c1.36719-1.64062,3.15137-2.46094,5.35156-2.46094,2.60449,0,4.62891.96387,6.07422,2.89062s2.16797,4.58301,2.16797,7.96875v.29297ZM316.05291,160.16193c0-1.97168-.34863-3.49316-1.04492-4.56445s-1.70898-1.60645-3.03711-1.60645c-1.77051,0-2.98828.67969-3.65234,2.03711v8.67871c.69043,1.39844,1.9209,2.09668,3.69141,2.09668,2.69531,0,4.04297-2.21387,4.04297-6.6416Z"/>
    <path class="cls-4" d="M334.9201,171.35431c-3.09863,0-5.62207-.9502-7.56836-2.85156s-2.91992-4.43359-2.91992-7.59766v-.54688c0-2.12207.41016-4.02051,1.23047-5.69336s1.98242-2.96191,3.48633-3.86719,3.21973-1.35742,5.14648-1.35742c2.89062,0,5.16602.91113,6.82617,2.73438s2.49023,4.40723,2.49023,7.75391v2.30469h-13.45703c.18262,1.37988.73242,2.4873,1.65039,3.32031s2.08008,1.25,3.48633,1.25c2.1748,0,3.87402-.78809,5.09766-2.36328l2.77344,3.10547c-.84668,1.19824-1.99219,2.13184-3.4375,2.80273s-3.04688,1.00586-4.80469,1.00586ZM334.27557,153.99103c-1.12012,0-2.02832.37891-2.72461,1.1377s-1.14258,1.84473-1.33789,3.25684h7.85156v-.45117c-.02637-1.25586-.36426-2.22656-1.01562-2.91309s-1.5752-1.03027-2.77344-1.03027Z"/>
    <path class="cls-4" d="M358.68963,155.12384c-.76855-.10449-1.44531-.15625-2.03125-.15625-2.13574,0-3.53516.72266-4.19922,2.16797v13.82812h-5.64453v-21.13281h5.33203l.15625,2.51953c1.13281-1.94043,2.70215-2.91016,4.70703-2.91016.625,0,1.21094.08496,1.75781.25391l-.07812,5.42969Z"/>
    <path class="cls-4" d="M361.36541,144.36212c0-.84668.2832-1.54297.84961-2.08984s1.33789-.82031,2.31445-.82031c.96387,0,1.73145.27344,2.30469.82031s.85938,1.24316.85938,2.08984c0,.85938-.29004,1.5625-.86914,2.10938s-1.34473.82031-2.29492.82031-1.71582-.27344-2.29492-.82031-.86914-1.25-.86914-2.10938ZM367.36151,170.96368h-5.66406v-21.13281h5.66406v21.13281Z"/>
    <path class="cls-4" d="M371.13104,160.20197c0-2.09668.40332-3.96484,1.21094-5.60547s1.96973-2.91016,3.48633-3.80859,3.27832-1.34766,5.2832-1.34766c2.85156,0,5.17871.87207,6.98242,2.61719s2.80957,4.11426,3.01758,7.10938l.03906,1.44531c0,3.24219-.90527,5.84277-2.71484,7.80273s-4.23828,2.93945-7.28516,2.93945-5.47852-.97656-7.29492-2.92969-2.72461-4.60938-2.72461-7.96875v-.25391ZM376.77557,160.60236c0,2.00879.37793,3.54395,1.13281,4.60742.75488,1.0625,1.83594,1.59375,3.24219,1.59375,1.36719,0,2.43457-.52539,3.20312-1.57422.76855-1.05078,1.15234-2.72949,1.15234-5.03711,0-1.96973-.38379-3.49512-1.15234-4.57812-.76855-1.08203-1.84863-1.62305-3.24219-1.62305-1.37988,0-2.44824.53809-3.20312,1.61328-.75488,1.07617-1.13281,2.74219-1.13281,4.99805Z"/>
    <path class="cls-4" d="M393.74823,160.24103c0-3.29395.73926-5.91797,2.2168-7.87109s3.49902-2.92969,6.06445-2.92969c2.05762,0,3.75684.76855,5.09766,2.30469v-10.78125h5.66406v30h-5.09766l-.27344-2.24609c-1.40625,1.75781-3.21582,2.63672-5.42969,2.63672-2.4873,0-4.48242-.97949-5.98633-2.93945s-2.25586-4.68457-2.25586-8.17383ZM399.39276,160.64239c0,1.98828.34473,3.5127,1.03516,4.57129.69043,1.06055,1.69238,1.58984,3.00781,1.58984,1.74512,0,2.97559-.73926,3.69141-2.2168v-8.37891c-.70312-1.47754-1.9209-2.2168-3.65234-2.2168-2.72168,0-4.08203,2.21777-4.08203,6.65137Z"/>
    <path class="cls-4" d="M426.24823,160.20197c0-2.09668.40332-3.96484,1.21094-5.60547s1.96973-2.91016,3.48633-3.80859,3.27832-1.34766,5.2832-1.34766c2.85156,0,5.17871.87207,6.98242,2.61719s2.80957,4.11426,3.01758,7.10938l.03906,1.44531c0,3.24219-.90527,5.84277-2.71484,7.80273s-4.23828,2.93945-7.28516,2.93945-5.47852-.97656-7.29492-2.92969-2.72461-4.60938-2.72461-7.96875v-.25391ZM431.89276,160.60236c0,2.00879.37793,3.54395,1.13281,4.60742.75488,1.0625,1.83594,1.59375,3.24219,1.59375,1.36719,0,2.43457-.52539,3.20312-1.57422.76855-1.05078,1.15234-2.72949,1.15234-5.03711,0-1.96973-.38379-3.49512-1.15234-4.57812-.76855-1.08203-1.84863-1.62305-3.24219-1.62305-1.37988,0-2.44824.53809-3.20312,1.61328-.75488,1.07617-1.13281,2.74219-1.13281,4.99805Z"/>
    <path class="cls-4" d="M451.28729,170.96368v-16.99219h-3.14453v-4.14062h3.14453v-1.79688c0-2.37012.68066-4.20898,2.04102-5.51758s3.26465-1.96289,5.71289-1.96289c.78125,0,1.73828.12891,2.87109.3877l-.05859,4.33887c-.46875-.11719-1.04199-.17578-1.71875-.17578-2.12207,0-3.18359,1.00488-3.18359,3.01367v1.71289h4.19922v4.14062h-4.19922v16.99219h-5.66406Z"/>
    <path class="cls-4" d="M480.27166,160.94415v10.01953h-5.85938v-28.4375h11.09375c2.13574,0,4.01367.39062,5.63477,1.17188s2.86816,1.8916,3.74023,3.33008,1.30859,3.07617,1.30859,4.91211c0,2.78613-.9541,4.9834-2.86133,6.5918s-4.54785,2.41211-7.91992,2.41211h-5.13672ZM480.27166,156.19806h5.23438c1.5498,0,2.73145-.36426,3.54492-1.09375s1.2207-1.77051,1.2207-3.125c0-1.39355-.41016-2.51953-1.23047-3.37891s-1.95312-1.30176-3.39844-1.32812h-5.37109v8.92578Z"/>
    <path class="cls-4" d="M512.49823,168.81525c-1.39355,1.69238-3.32031,2.53906-5.78125,2.53906-2.26562,0-3.99414-.65137-5.18555-1.95312s-1.7998-3.20996-1.82617-5.72266v-13.84766h5.64453v13.66797c0,2.20312,1.00293,3.30469,3.00781,3.30469,1.91406,0,3.22949-.66504,3.94531-1.99414v-14.97852h5.66406v21.13281h-5.3125l-.15625-2.14844Z"/>
  </g>
  <g>
    <line class="cls-3" x1="959.87616" y1="239.95629" x2="959.87616" y2="253.21606"/>
    <line class="cls-1" x1="959.87616" y1="279.93334" x2="959.87616" y2="907.7932"/>
    <line class="cls-3" x1="959.87616" y1="921.1516" x2="959.87616" y2="934.41186"/>
  </g>
</svg>