<?xml version="1.0" encoding="UTF-8"?>
<svg id="Ebene_2" data-name="Ebene 2" xmlns="http://www.w3.org/2000/svg" viewBox="0 0 1920 1280">
  <defs>
    <style>
      .cls-1 {
        fill: #004056;
      }

      .cls-2 {
        fill: #02405a;
      }

      .cls-3, .cls-4, .cls-5, .cls-6, .cls-7, .cls-8, .cls-9, .cls-10, .cls-11, .cls-12, .cls-13 {
        stroke-miterlimit: 10;
      }

      .cls-3, .cls-14, .cls-15, .cls-16 {
        stroke-width: 1.68927px;
      }

      .cls-3, .cls-14, .cls-17, .cls-18 {
        fill: #aebfc7;
      }

      .cls-3, .cls-14, .cls-9, .cls-11 {
        stroke: #aebfc7;
      }

      .cls-4 {
        opacity: .27;
      }

      .cls-4, .cls-19 {
        fill: #ced9de;
      }

      .cls-4, .cls-7, .cls-9, .cls-11 {
        stroke-width: 2px;
      }

      .cls-4, .cls-16 {
        stroke: #7996a5;
      }

      .cls-20 {
        fill: #90172f;
      }

      .cls-14, .cls-15, .cls-16 {
        stroke-linejoin: round;
      }

      .cls-5, .cls-6 {
        stroke: #90172f;
      }

      .cls-5, .cls-6, .cls-8, .cls-10, .cls-11, .cls-12, .cls-13 {
        fill: none;
      }

      .cls-5, .cls-10 {
        stroke-width: 10px;
      }

      .cls-6 {
        stroke-width: 10.73471px;
      }

      .cls-15, .cls-7 {
        fill: #fff;
        stroke: #ced9de;
      }

      .cls-7 {
        opacity: .56;
      }

      .cls-21, .cls-9 {
        fill: #f3f5f7;
      }

      .cls-22 {
        fill: #426b7e;
      }

      .cls-23 {
        fill: #9ab9c2;
        opacity: .4;
      }

      .cls-8 {
        stroke: #004056;
        stroke-width: 10.13564px;
      }

      .cls-16 {
        fill: #7996a5;
      }

      .cls-18 {
        opacity: .49;
      }

      .cls-9, .cls-11 {
        opacity: .36;
      }

      .cls-10 {
        stroke: #fac102;
      }

      .cls-12 {
        stroke-width: 9.95156px;
      }

      .cls-12, .cls-13 {
        stroke: #426b7e;
      }

      .cls-13 {
        stroke-width: 10.33075px;
      }

      .cls-24 {
        fill: #fac102;
      }
    </style>
  </defs>
  <rect class="cls-21" x=".00282" y="-.25518" width="1920.31866" height="1280.25675"/>
  <g>
    <polygon class="cls-4" points="1763.08867 1151.14288 1751.56225 1151.14288 1597.83833 1026.13663 1597.83833 474.57586 1609.36475 474.57586 1763.08867 556.51853 1763.08867 1151.14288"/>
    <path class="cls-17" d="M1751.59651,684.7944v466.24124l-153.72391-125.00626v-437.5476s20.27129,27.39846,44.48365,41.47517c34.09884,19.8243,45.45191,3.58992,70.94271,17.10411,27.81355,14.74499,38.29756,37.73334,38.29756,37.73334Z"/>
    <rect class="cls-17" x="1751.59651" y="684.7944" width="11.49216" height="466.34848"/>
    <polygon class="cls-7" points="1751.56225 1151.14288 1597.83833 1026.13663 1597.83833 475.62719 1751.56225 556.51853 1751.56225 1151.14288"/>
  </g>
  <g>
    <line class="cls-10" x1="1387.59082" y1="985.7128" x2="1652.97205" y2="985.7128"/>
    <polygon class="cls-24" points="1643.06482 1000.23917 1697.26892 985.72257 1643.06482 971.18643 1643.06482 1000.23917"/>
  </g>
  <g>
    <polygon class="cls-16" points="1390.31306 1151.14288 1378.78663 1151.14288 1225.06272 1026.13663 1225.06272 474.57586 1236.58914 474.57586 1390.31306 556.51853 1390.31306 1151.14288"/>
    <polygon class="cls-17" points="1378.78663 1151.14288 1225.06272 1026.13663 1225.06272 474.57586 1378.78663 556.51853 1378.78663 1151.14288"/>
  </g>
  <path class="cls-18" d="M1763.7703,684.61402s-18.50311-31.16067-44.59361-44.98991c-17.45605-9.253-50.39654-1.76805-74.44832-17.52249-24.21951-15.8643-34.44468-33.3867-34.44468-33.3867l-12.4111-.23313s17.06092,22.82283,37.01991,37.00421c35.55015,25.25932,56.40262,9.60498,78.40645,21.57507,28.14346,15.31004,38.6213,37.73334,38.6213,37.73334l11.85005-.18039Z"/>
  <line class="cls-10" x1="1018.67809" y1="985.71281" x2="1343.69096" y2="985.71281"/>
  <g>
    <path class="cls-6" d="M1005.48456,850.77884c2.22205,3.37201,4.4624,6.42212,6.87585,6.40576,5.32507-.03632,9.59607-15.12439,14.92133-15.20349,5.47705-.08258,10.29248,15.25299,15.7677,15.20349,5.37463-.04956,9.82715-15.21008,15.20349-15.20349,5.37622.00659,9.82874,15.22644,15.20349,15.20349,5.32507-.02655,9.59607-15.13098,14.92126-15.20349,5.47534-.07581,10.29248,15.33203,15.7677,15.20349,5.22607-.12219,9.13086-15.07812,14.35889-15.20349,5.47351-.13531,10.29065,15.25299,15.76599,15.20349,5.37451-.04956,9.82715-15.21344,15.20349-15.20349,5.37451.00659,9.82861,15.25299,15.20337,15.20349,5.27734-.04956,9.36523-15.12762,14.64099-15.20349,5.42407-.07922,10.05957,15.27936,15.48389,15.20349,5.27563-.07263,9.36853-15.00549,14.64087-15.20349,5.52307-.21112,10.56775,14.49078,16.0481,15.20349,4.21667.54425,14.92139-8.16595,14.92139-8.16595h10.35901"/>
    <polygon class="cls-20" points="1240.13623 864.61228 1298.32275 849.02915 1240.13623 833.42502 1240.13623 864.61228"/>
  </g>
  <line class="cls-3" x1="914.90112" y1="556.51853" x2="926.42754" y2="556.51853"/>
  <g>
    <polygon class="cls-23" points="1017.53745 1151.14288 1006.01102 1111.45784 852.28711 986.45159 852.28711 473.58374 863.81353 474.57586 1017.53745 556.51853 1017.53745 1151.14288"/>
    <polygon class="cls-14" points="1017.53745 1151.14288 1006.01102 1151.14288 852.28711 1026.13663 852.28711 474.57586 863.81353 474.57586 1017.53745 556.51853 1017.53745 1151.14288"/>
    <polygon class="cls-19" points="1003.94917 1152.17381 850.22526 1027.16755 850.22526 475.60679 1003.94917 557.54946 1003.94917 1152.17381"/>
  </g>
  <line class="cls-10" x1="639.27805" y1="985.71281" x2="969.26787" y2="985.71281"/>
  <path class="cls-6" d="M620.2672,849.58945c2.45131,3.79749,4.90278,7.59514,7.58839,7.59514,5.36986,0,9.80573-15.20346,15.17542-15.20346,5.37138-.00338,9.80742,15.1837,15.1788,15.20346,5.4077.01974,9.98226-15.22323,15.39148-15.20346,5.37138.01636,9.80573,15.1837,15.17711,15.20346,5.4077.01974,9.98378-15.24637,15.39317-15.20346,5.33338.04291,9.62751,15.20346,14.96088,15.20346,5.33185,0,9.62768-15.16056,14.95936-15.20346,5.40939-.04629,9.98395,15.20346,15.39317,15.20346s9.98395-15.22661,15.39317-15.20346c5.37138.01974,9.80573,15.20346,15.17711,15.20346s9.80573-15.20346,15.17542-15.20346,9.80742,15.21326,15.17863,15.20346c5.34841-.00997,9.70843-15.16393,15.05836-15.20346,5.42578-.0397,10.06148,15.25296,15.48726,15.20346,5.3251-.04952,9.59778-15.15735,14.92136-15.20346,5.42578-.04952,10.05979,15.26276,15.48557,15.20346,5.30364-.05946,9.49879-15.16056,14.80412-15.20346,2.98275-.02652,5.69978,4.63233,8.44485,8.79774"/>
  <g>
    <line class="cls-13" x1="639.38147" y1="698.41751" x2="876.81323" y2="698.41751"/>
    <polygon class="cls-22" points="866.57831 713.42435 922.57526 698.42761 866.57831 683.41071 866.57831 713.42435"/>
  </g>
  <g>
    <path class="cls-2" d="M121.37451,188.70811h-7.00195v15.61523h-8.78906v-42.65625h15.84961c5.03906,0,8.92578,1.12354,11.66016,3.36914,2.73438,2.24609,4.10156,5.41992,4.10156,9.52148,0,2.91064-.62988,5.33691-1.88965,7.28027-1.25977,1.94385-3.16895,3.49121-5.72754,4.64355l9.22852,17.43164v.41016h-9.43359l-7.99805-15.61523ZM114.37256,181.58897h7.08984c2.20703,0,3.91602-.56104,5.12695-1.68457,1.21094-1.12305,1.81641-2.67041,1.81641-4.64355,0-2.01123-.57129-3.59326-1.71387-4.74609-1.14258-1.15234-2.89551-1.72852-5.25879-1.72852h-7.06055v12.80273Z"/>
    <path class="cls-2" d="M161.6875,204.32335c-.39062-.76172-.67383-1.70898-.84961-2.8418-2.05078,2.28516-4.7168,3.42773-7.99805,3.42773-3.10596,0-5.6792-.89795-7.72021-2.69531-2.04102-1.79688-3.06152-4.06201-3.06152-6.79688,0-3.35889,1.24512-5.93701,3.73535-7.73438,2.49023-1.79688,6.08936-2.70508,10.79639-2.72461h3.89648v-1.81641c0-1.46484-.37598-2.63672-1.12793-3.51562s-1.93848-1.31836-3.55957-1.31836c-1.42578,0-2.54395.3418-3.35449,1.02539-.81055.68408-1.21582,1.62158-1.21582,2.8125h-8.46729c0-1.83545.56641-3.53467,1.69922-5.09766,1.13281-1.5625,2.73438-2.7876,4.80469-3.67676,2.0708-.88867,4.39502-1.33301,6.97314-1.33301,3.90625,0,7.00684.98145,9.30176,2.94434s3.44238,4.72168,3.44238,8.27637v13.74023c.01953,3.00781.43945,5.28369,1.25977,6.82617v.49805h-8.55469ZM154.68555,198.43467c1.25,0,2.40234-.27832,3.45703-.83496s1.83594-1.30371,2.34375-2.24121v-5.44922h-3.16406c-4.23828,0-6.49414,1.46484-6.76758,4.39453l-.0293.49805c0,1.05469.37109,1.92383,1.11328,2.60742.74219.68408,1.75781,1.02539,3.04688,1.02539Z"/>
    <path class="cls-2" d="M174.16797,188.23936c0-4.94092,1.1084-8.87695,3.3252-11.80664s5.24902-4.39453,9.09668-4.39453c3.08594,0,5.63477,1.15283,7.64648,3.45703v-16.17188h8.49609v45h-7.64648l-.41016-3.36914c-2.10938,2.63672-4.82422,3.95508-8.14453,3.95508-3.73047,0-6.72363-1.46924-8.97949-4.40918-2.25586-2.93945-3.38379-7.02637-3.38379-12.26074ZM182.63477,188.8419c0,2.98242.51758,5.26758,1.55273,6.85742,1.03516,1.58887,2.53906,2.38379,4.51172,2.38379,2.61719,0,4.46289-1.1084,5.53711-3.32568v-12.56738c-1.05469-2.2168-2.88086-3.32568-5.47852-3.32568-4.08203,0-6.12305,3.32617-6.12305,9.97754Z"/>
    <path class="cls-2" d="M209.23633,164.421c0-1.26953.4248-2.31445,1.27441-3.13477s2.00684-1.23047,3.47168-1.23047c1.44531,0,2.59766.41016,3.45703,1.23047s1.28906,1.86523,1.28906,3.13477c0,1.28906-.43457,2.34375-1.30371,3.16406s-2.0166,1.23047-3.44238,1.23047-2.57324-.41016-3.44238-1.23047-1.30371-1.875-1.30371-3.16406ZM218.23047,204.32335h-8.49609v-31.69922h8.49609v31.69922Z"/>
    <path class="cls-2" d="M243.57227,204.32335c-.39062-.76172-.67383-1.70898-.84961-2.8418-2.05078,2.28516-4.7168,3.42773-7.99805,3.42773-3.10547,0-5.67871-.89795-7.71973-2.69531-2.04102-1.79688-3.06152-4.06201-3.06152-6.79688,0-3.35889,1.24512-5.93701,3.73535-7.73438,2.49023-1.79688,6.08887-2.70508,10.7959-2.72461h3.89648v-1.81641c0-1.46484-.37598-2.63672-1.12793-3.51562s-1.93848-1.31836-3.55957-1.31836c-1.42578,0-2.54395.3418-3.35449,1.02539-.81055.68408-1.21582,1.62158-1.21582,2.8125h-8.4668c0-1.83545.56641-3.53467,1.69922-5.09766,1.13281-1.5625,2.73438-2.7876,4.80469-3.67676,2.07031-.88867,4.39453-1.33301,6.97266-1.33301,3.90625,0,7.00684.98145,9.30176,2.94434s3.44238,4.72168,3.44238,8.27637v13.74023c.01953,3.00781.43945,5.28369,1.25977,6.82617v.49805h-8.55469ZM236.57031,198.43467c1.25,0,2.40234-.27832,3.45703-.83496s1.83594-1.30371,2.34375-2.24121v-5.44922h-3.16406c-4.23828,0-6.49414,1.46484-6.76758,4.39453l-.0293.49805c0,1.05469.37109,1.92383,1.11328,2.60742.74219.68408,1.75781,1.02539,3.04688,1.02539Z"/>
    <path class="cls-2" d="M267.50781,164.83116v7.79297h5.41992v6.21094h-5.41992v15.82031c0,1.17188.22461,2.01172.67383,2.51953.44922.5083,1.30859.76172,2.57812.76172.9375,0,1.76758-.06836,2.49023-.20508v6.41602c-1.66016.50781-3.36914.76172-5.12695.76172-5.9375,0-8.96484-2.99805-9.08203-8.99414v-17.08008h-4.62891v-6.21094h4.62891v-7.79297h8.4668Z"/>
    <path class="cls-2" d="M277.58594,164.421c0-1.26953.4248-2.31445,1.27441-3.13477s2.00684-1.23047,3.47168-1.23047c1.44531,0,2.59766.41016,3.45703,1.23047s1.28906,1.86523,1.28906,3.13477c0,1.28906-.43457,2.34375-1.30371,3.16406s-2.0166,1.23047-3.44238,1.23047-2.57324-.41016-3.44238-1.23047-1.30371-1.875-1.30371-3.16406ZM286.58008,204.32335h-8.49609v-31.69922h8.49609v31.69922Z"/>
    <path class="cls-2" d="M292.23438,188.18077c0-3.14453.60547-5.94727,1.81641-8.4082s2.9541-4.36523,5.22949-5.71289,4.91699-2.02148,7.9248-2.02148c4.27734,0,7.76855,1.30859,10.47363,3.92578,2.70508,2.61768,4.21387,6.17188,4.52637,10.66406l.05859,2.16797c0,4.86328-1.35742,8.76465-4.07227,11.7041-2.71484,2.93994-6.35742,4.40918-10.92773,4.40918s-8.21777-1.46484-10.94238-4.39453-4.08691-6.91406-4.08691-11.95312v-.38086ZM300.70117,188.78184c0,3.0127.56641,5.31592,1.69922,6.90967,1.13281,1.59473,2.75391,2.3916,4.86328,2.3916,2.05078,0,3.65234-.78711,4.80469-2.3623,1.15234-1.57422,1.72852-4.09277,1.72852-7.55518,0-2.95361-.57617-5.24219-1.72852-6.86572s-2.77344-2.43555-4.86328-2.43555c-2.07031,0-3.67188.80713-4.80469,2.4209s-1.69922,4.11279-1.69922,7.49658Z"/>
    <path class="cls-2" d="M335.27148,172.62413l.26367,3.66211c2.26562-2.83154,5.30273-4.24805,9.11133-4.24805,3.35938,0,5.85938.98633,7.5,2.95898,1.64062,1.97314,2.48047,4.92188,2.51953,8.84766v20.47852h-8.4668v-20.32031c0-1.80078-.39062-3.10742-1.17188-3.91992s-2.08008-1.21875-3.89648-1.21875c-2.38281,0-4.16992,1.01807-5.36133,3.05371v22.40527h-8.4668v-31.69922h7.96875Z"/>
    <path class="cls-2" d="M386.16016,164.83116v7.79297h5.41992v6.21094h-5.41992v15.82031c0,1.17188.22461,2.01172.67383,2.51953.44922.5083,1.30859.76172,2.57812.76172.9375,0,1.76758-.06836,2.49023-.20508v6.41602c-1.66016.50781-3.36914.76172-5.12695.76172-5.9375,0-8.96484-2.99805-9.08203-8.99414v-17.08008h-4.62891v-6.21094h4.62891v-7.79297h8.4668Z"/>
    <path class="cls-2" d="M408.13281,192.34092l5.85938-19.7168h9.08203l-12.74414,36.62109-.70312,1.66992c-1.89453,4.14062-5.01953,6.21094-9.375,6.21094-1.23047,0-2.48047-.18604-3.75-.55664v-6.41602l1.28906.0293c1.60156,0,2.79785-.24463,3.58887-.73242.79102-.48828,1.41113-1.29932,1.86035-2.43164l.99609-2.60742-11.10352-31.78711h9.11133l5.88867,19.7168Z"/>
    <path class="cls-2" d="M454.94922,188.7667c0,4.88281-1.1084,8.79395-3.3252,11.7334-2.2168,2.93994-5.20996,4.40918-8.97949,4.40918-3.20312,0-5.79102-1.11328-7.76367-3.33984v14.94141h-8.4668v-43.88672h7.85156l.29297,3.10547c2.05078-2.46094,4.72656-3.69141,8.02734-3.69141,3.90625,0,6.94336,1.4458,9.11133,4.33594,2.16797,2.89062,3.25195,6.875,3.25195,11.95312v.43945ZM446.48242,188.1212c0-2.95801-.52246-5.24023-1.56738-6.84717-1.04492-1.60645-2.56348-2.40967-4.55566-2.40967-2.65625,0-4.48242,1.01904-5.47852,3.05615v13.01807c1.03516,2.09668,2.88086,3.14453,5.53711,3.14453,4.04297,0,6.06445-3.3208,6.06445-9.96191Z"/>
    <path class="cls-2" d="M474.7832,204.90928c-4.64844,0-8.43262-1.42529-11.35254-4.27734-2.91992-2.85156-4.37988-6.65039-4.37988-11.39648v-.82031c0-3.18311.61523-6.03027,1.8457-8.54004,1.23047-2.50928,2.97363-4.44287,5.22949-5.80078,2.25586-1.35742,4.8291-2.03613,7.71973-2.03613,4.33594,0,7.74902,1.36719,10.23926,4.10156,2.49023,2.73486,3.73535,6.61133,3.73535,11.63086v3.45703h-20.18555c.27344,2.07031,1.09863,3.73096,2.47559,4.98047,1.37695,1.25,3.12012,1.875,5.22949,1.875,3.26172,0,5.81055-1.18164,7.64648-3.54492l4.16016,4.6582c-1.26953,1.79736-2.98828,3.19824-5.15625,4.2041s-4.57031,1.50879-7.20703,1.50879ZM473.81641,178.86436c-1.67969,0-3.04199.56885-4.08691,1.70703s-1.71387,2.76611-2.00684,4.88477h11.77734v-.67725c-.03906-1.88281-.54688-3.33984-1.52344-4.36963s-2.36328-1.54492-4.16016-1.54492Z"/>
    <path class="cls-2" d="M509.79297,195.56358c0-1.03516-.5127-1.8501-1.53809-2.44629-1.02539-.5957-2.6709-1.12793-4.93652-1.59668-7.53906-1.58203-11.30859-4.78516-11.30859-9.60938,0-2.8125,1.16699-5.16064,3.50098-7.0459,2.33398-1.88477,5.38574-2.82715,9.15527-2.82715,4.02344,0,7.24121.94775,9.65332,2.8418,2.41211,1.89453,3.61816,4.35547,3.61816,7.38281h-8.4668c0-1.21094-.39062-2.21191-1.17188-3.00293s-2.00195-1.18652-3.66211-1.18652c-1.42578,0-2.5293.32227-3.31055.9668s-1.17188,1.46484-1.17188,2.46094c0,.9375.44434,1.69482,1.33301,2.27051.88867.57617,2.3877,1.07422,4.49707,1.49414,2.10938.42041,3.88672.89355,5.33203,1.4209,4.47266,1.64062,6.70898,4.48242,6.70898,8.52539,0,2.89062-1.24023,5.22949-3.7207,7.0166s-5.68359,2.68066-9.60938,2.68066c-2.65625,0-5.01465-.47363-7.0752-1.4209s-3.67676-2.24561-4.84863-3.89648c-1.17188-1.65039-1.75781-3.43213-1.75781-5.34668h8.02734c.07812,1.50439.63477,2.65625,1.66992,3.45703,1.03516.80127,2.42188,1.20117,4.16016,1.20117,1.62109,0,2.84668-.30762,3.67676-.92285s1.24512-1.4209,1.24512-2.41699Z"/>
    <path class="cls-2" d="M556.78516,204.32335c-.39062-.76172-.67383-1.70898-.84961-2.8418-2.05078,2.28516-4.7168,3.42773-7.99805,3.42773-3.10547,0-5.67871-.89795-7.71973-2.69531-2.04102-1.79688-3.06152-4.06201-3.06152-6.79688,0-3.35889,1.24512-5.93701,3.73535-7.73438,2.49023-1.79688,6.08887-2.70508,10.7959-2.72461h3.89648v-1.81641c0-1.46484-.37598-2.63672-1.12793-3.51562s-1.93848-1.31836-3.55957-1.31836c-1.42578,0-2.54395.3418-3.35449,1.02539-.81055.68408-1.21582,1.62158-1.21582,2.8125h-8.4668c0-1.83545.56641-3.53467,1.69922-5.09766,1.13281-1.5625,2.73438-2.7876,4.80469-3.67676,2.07031-.88867,4.39453-1.33301,6.97266-1.33301,3.90625,0,7.00684.98145,9.30176,2.94434s3.44238,4.72168,3.44238,8.27637v13.74023c.01953,3.00781.43945,5.28369,1.25977,6.82617v.49805h-8.55469ZM549.7832,198.43467c1.25,0,2.40234-.27832,3.45703-.83496s1.83594-1.30371,2.34375-2.24121v-5.44922h-3.16406c-4.23828,0-6.49414,1.46484-6.76758,4.39453l-.0293.49805c0,1.05469.37109,1.92383,1.11328,2.60742.74219.68408,1.75781,1.02539,3.04688,1.02539Z"/>
    <path class="cls-2" d="M578.37695,172.62413l.26367,3.66211c2.26562-2.83154,5.30273-4.24805,9.11133-4.24805,3.35938,0,5.85938.98633,7.5,2.95898,1.64062,1.97314,2.48047,4.92188,2.51953,8.84766v20.47852h-8.4668v-20.32031c0-1.80078-.39062-3.10742-1.17188-3.91992s-2.08008-1.21875-3.89648-1.21875c-2.38281,0-4.16992,1.01807-5.36133,3.05371v22.40527h-8.4668v-31.69922h7.96875Z"/>
    <path class="cls-2" d="M602.86914,188.23936c0-4.94092,1.1084-8.87695,3.3252-11.80664s5.24902-4.39453,9.09668-4.39453c3.08594,0,5.63477,1.15283,7.64648,3.45703v-16.17188h8.49609v45h-7.64648l-.41016-3.36914c-2.10938,2.63672-4.82422,3.95508-8.14453,3.95508-3.73047,0-6.72363-1.46924-8.97949-4.40918-2.25586-2.93945-3.38379-7.02637-3.38379-12.26074ZM611.33594,188.8419c0,2.98242.51758,5.26758,1.55273,6.85742,1.03516,1.58887,2.53906,2.38379,4.51172,2.38379,2.61719,0,4.46289-1.1084,5.53711-3.32568v-12.56738c-1.05469-2.2168-2.88086-3.32568-5.47852-3.32568-4.08203,0-6.12305,3.32617-6.12305,9.97754Z"/>
    <path class="cls-2" d="M663.07422,164.83116v7.79297h5.41992v6.21094h-5.41992v15.82031c0,1.17188.22461,2.01172.67383,2.51953.44922.5083,1.30859.76172,2.57812.76172.9375,0,1.76758-.06836,2.49023-.20508v6.41602c-1.66016.50781-3.36914.76172-5.12695.76172-5.9375,0-8.96484-2.99805-9.08203-8.99414v-17.08008h-4.62891v-6.21094h4.62891v-7.79297h8.4668Z"/>
    <path class="cls-2" d="M681.47266,176.08116c2.24609-2.69531,5.06836-4.04297,8.4668-4.04297,6.875,0,10.36133,3.99463,10.45898,11.98242v20.30273h-8.4668v-20.11475c0-1.82031-.39062-3.16602-1.17188-4.03711-.78125-.87158-2.08008-1.30713-3.89648-1.30713-2.48047,0-4.27734.95947-5.39062,2.87744v22.58154h-8.4668v-45h8.4668v16.75781Z"/>
    <path class="cls-2" d="M721.375,204.90928c-4.64844,0-8.43262-1.42529-11.35254-4.27734-2.91992-2.85156-4.37988-6.65039-4.37988-11.39648v-.82031c0-3.18311.61523-6.03027,1.8457-8.54004,1.23047-2.50928,2.97363-4.44287,5.22949-5.80078,2.25586-1.35742,4.8291-2.03613,7.71973-2.03613,4.33594,0,7.74902,1.36719,10.23926,4.10156,2.49023,2.73486,3.73535,6.61133,3.73535,11.63086v3.45703h-20.18555c.27344,2.07031,1.09863,3.73096,2.47559,4.98047,1.37695,1.25,3.12012,1.875,5.22949,1.875,3.26172,0,5.81055-1.18164,7.64648-3.54492l4.16016,4.6582c-1.26953,1.79736-2.98828,3.19824-5.15625,4.2041s-4.57031,1.50879-7.20703,1.50879ZM720.4082,178.86436c-1.67969,0-3.04199.56885-4.08691,1.70703s-1.71387,2.76611-2.00684,4.88477h11.77734v-.67725c-.03906-1.88281-.54688-3.33984-1.52344-4.36963s-2.36328-1.54492-4.16016-1.54492Z"/>
    <path class="cls-2" d="M752.83984,188.23936c0-4.94092,1.1084-8.87695,3.3252-11.80664s5.24902-4.39453,9.09668-4.39453c3.08594,0,5.63477,1.15283,7.64648,3.45703v-16.17188h8.49609v45h-7.64648l-.41016-3.36914c-2.10938,2.63672-4.82422,3.95508-8.14453,3.95508-3.73047,0-6.72363-1.46924-8.97949-4.40918-2.25586-2.93945-3.38379-7.02637-3.38379-12.26074ZM761.30664,188.8419c0,2.98242.51758,5.26758,1.55273,6.85742,1.03516,1.58887,2.53906,2.38379,4.51172,2.38379,2.61719,0,4.46289-1.1084,5.53711-3.32568v-12.56738c-1.05469-2.2168-2.88086-3.32568-5.47852-3.32568-4.08203,0-6.12305,3.32617-6.12305,9.97754Z"/>
    <path class="cls-2" d="M802.55664,204.90928c-4.64844,0-8.43262-1.42529-11.35254-4.27734-2.91992-2.85156-4.37988-6.65039-4.37988-11.39648v-.82031c0-3.18311.61523-6.03027,1.8457-8.54004,1.23047-2.50928,2.97363-4.44287,5.22949-5.80078,2.25586-1.35742,4.8291-2.03613,7.71973-2.03613,4.33594,0,7.74902,1.36719,10.23926,4.10156,2.49023,2.73486,3.73535,6.61133,3.73535,11.63086v3.45703h-20.18555c.27344,2.07031,1.09863,3.73096,2.47559,4.98047,1.37695,1.25,3.12012,1.875,5.22949,1.875,3.26172,0,5.81055-1.18164,7.64648-3.54492l4.16016,4.6582c-1.26953,1.79736-2.98828,3.19824-5.15625,4.2041s-4.57031,1.50879-7.20703,1.50879ZM801.58984,178.86436c-1.67969,0-3.04199.56885-4.08691,1.70703s-1.71387,2.76611-2.00684,4.88477h11.77734v-.67725c-.03906-1.88281-.54688-3.33984-1.52344-4.36963s-2.36328-1.54492-4.16016-1.54492Z"/>
    <path class="cls-2" d="M819.16797,188.23936c0-4.86328,1.15723-8.77881,3.47168-11.74805,2.31445-2.96875,5.43457-4.45312,9.36035-4.45312,3.47656,0,6.18164,1.19141,8.11523,3.57422l.35156-2.98828h7.67578v30.64453c0,2.77295-.62988,5.18555-1.88965,7.23633s-3.03223,3.61328-5.31738,4.6875c-2.28516,1.07373-4.96094,1.61133-8.02734,1.61133-2.32422,0-4.58984-.46436-6.79688-1.3916-2.20703-.92773-3.87695-2.12402-5.00977-3.58887l3.75-5.15625c2.10938,2.36279,4.66797,3.54492,7.67578,3.54492,2.24609,0,3.99414-.60059,5.24414-1.80176s1.875-2.90527,1.875-5.1123v-1.69922c-1.95312,2.20752-4.52148,3.31055-7.70508,3.31055-3.80859,0-6.88965-1.48926-9.24316-4.46777-2.35352-2.97803-3.53027-6.92871-3.53027-11.85059v-.35156ZM827.63477,188.8419c0,2.88428.57617,5.14551,1.72852,6.78418,1.15234,1.63818,2.73438,2.45703,4.74609,2.45703,2.57812,0,4.42383-.9707,5.53711-2.91357v-13.3916c-1.13281-1.94238-2.95898-2.91357-5.47852-2.91357-2.03125,0-3.62793.83398-4.79004,2.50146-1.16211,1.66846-1.74316,4.15967-1.74316,7.47607Z"/>
    <path class="cls-2" d="M872.45898,180.56358c-1.15234-.15625-2.16797-.23438-3.04688-.23438-3.20312,0-5.30273,1.08398-6.29883,3.25195v20.74219h-8.4668v-31.69922h7.99805l.23438,3.7793c1.69922-2.91016,4.05273-4.36523,7.06055-4.36523.9375,0,1.81641.12744,2.63672.38086l-.11719,8.14453Z"/>
    <path class="cls-2" d="M891.12109,204.90928c-4.64844,0-8.43262-1.42529-11.35254-4.27734-2.91992-2.85156-4.37988-6.65039-4.37988-11.39648v-.82031c0-3.18311.61523-6.03027,1.8457-8.54004,1.23047-2.50928,2.97363-4.44287,5.22949-5.80078,2.25586-1.35742,4.8291-2.03613,7.71973-2.03613,4.33594,0,7.74902,1.36719,10.23926,4.10156,2.49023,2.73486,3.73535,6.61133,3.73535,11.63086v3.45703h-20.18555c.27344,2.07031,1.09863,3.73096,2.47559,4.98047,1.37695,1.25,3.12012,1.875,5.22949,1.875,3.26172,0,5.81055-1.18164,7.64648-3.54492l4.16016,4.6582c-1.26953,1.79736-2.98828,3.19824-5.15625,4.2041s-4.57031,1.50879-7.20703,1.50879ZM890.1543,178.86436c-1.67969,0-3.04199.56885-4.08691,1.70703s-1.71387,2.76611-2.00684,4.88477h11.77734v-.67725c-.03906-1.88281-.54688-3.33984-1.52344-4.36963s-2.36328-1.54492-4.16016-1.54492Z"/>
    <path class="cls-2" d="M923.55273,204.90928c-4.64844,0-8.43262-1.42529-11.35254-4.27734-2.91992-2.85156-4.37988-6.65039-4.37988-11.39648v-.82031c0-3.18311.61523-6.03027,1.8457-8.54004,1.23047-2.50928,2.97363-4.44287,5.22949-5.80078,2.25586-1.35742,4.8291-2.03613,7.71973-2.03613,4.33594,0,7.74902,1.36719,10.23926,4.10156,2.49023,2.73486,3.73535,6.61133,3.73535,11.63086v3.45703h-20.18555c.27344,2.07031,1.09863,3.73096,2.47559,4.98047,1.37695,1.25,3.12012,1.875,5.22949,1.875,3.26172,0,5.81055-1.18164,7.64648-3.54492l4.16016,4.6582c-1.26953,1.79736-2.98828,3.19824-5.15625,4.2041s-4.57031,1.50879-7.20703,1.50879ZM922.58594,178.86436c-1.67969,0-3.04199.56885-4.08691,1.70703s-1.71387,2.76611-2.00684,4.88477h11.77734v-.67725c-.03906-1.88281-.54688-3.33984-1.52344-4.36963s-2.36328-1.54492-4.16016-1.54492Z"/>
    <path class="cls-2" d="M955.01758,188.18077c0-3.14453.60547-5.94727,1.81641-8.4082s2.9541-4.36523,5.22949-5.71289,4.91699-2.02148,7.9248-2.02148c4.27734,0,7.76855,1.30859,10.47363,3.92578,2.70508,2.61768,4.21387,6.17188,4.52637,10.66406l.05859,2.16797c0,4.86328-1.35742,8.76465-4.07227,11.7041-2.71484,2.93994-6.35742,4.40918-10.92773,4.40918s-8.21777-1.46484-10.94238-4.39453-4.08691-6.91406-4.08691-11.95312v-.38086ZM963.48438,188.78184c0,3.0127.56641,5.31592,1.69922,6.90967,1.13281,1.59473,2.75391,2.3916,4.86328,2.3916,2.05078,0,3.65234-.78711,4.80469-2.3623,1.15234-1.57422,1.72852-4.09277,1.72852-7.55518,0-2.95361-.57617-5.24219-1.72852-6.86572s-2.77344-2.43555-4.86328-2.43555c-2.07031,0-3.67188.80713-4.80469,2.4209s-1.69922,4.11279-1.69922,7.49658Z"/>
    <path class="cls-2" d="M992.57617,204.32335v-25.48828h-4.7168v-6.21094h4.7168v-2.69531c0-3.55469,1.02051-6.31348,3.06152-8.27637s4.89746-2.94434,8.56934-2.94434c1.17188,0,2.60742.19385,4.30664.58105l-.08789,6.50879c-.70312-.17578-1.5625-.26367-2.57812-.26367-3.18359,0-4.77539,1.50684-4.77539,4.52002v2.56982h6.29883v6.21094h-6.29883v25.48828h-8.49609Z"/>
    <path class="cls-2" d="M1055.24219,188.7667c0,4.88281-1.1084,8.79395-3.3252,11.7334-2.2168,2.93994-5.20996,4.40918-8.97949,4.40918-3.20312,0-5.79102-1.11328-7.76367-3.33984v14.94141h-8.4668v-43.88672h7.85156l.29297,3.10547c2.05078-2.46094,4.72656-3.69141,8.02734-3.69141,3.90625,0,6.94336,1.4458,9.11133,4.33594,2.16797,2.89062,3.25195,6.875,3.25195,11.95312v.43945ZM1046.77539,188.1212c0-2.95801-.52246-5.24023-1.56738-6.84717-1.04492-1.60645-2.56348-2.40967-4.55566-2.40967-2.65625,0-4.48242,1.01904-5.47852,3.05615v13.01807c1.03516,2.09668,2.88086,3.14453,5.53711,3.14453,4.04297,0,6.06445-3.3208,6.06445-9.96191Z"/>
    <path class="cls-2" d="M1075.07617,204.90928c-4.64844,0-8.43262-1.42529-11.35254-4.27734-2.91992-2.85156-4.37988-6.65039-4.37988-11.39648v-.82031c0-3.18311.61523-6.03027,1.8457-8.54004,1.23047-2.50928,2.97363-4.44287,5.22949-5.80078,2.25586-1.35742,4.8291-2.03613,7.71973-2.03613,4.33594,0,7.74902,1.36719,10.23926,4.10156,2.49023,2.73486,3.73535,6.61133,3.73535,11.63086v3.45703h-20.18555c.27344,2.07031,1.09863,3.73096,2.47559,4.98047,1.37695,1.25,3.12012,1.875,5.22949,1.875,3.26172,0,5.81055-1.18164,7.64648-3.54492l4.16016,4.6582c-1.26953,1.79736-2.98828,3.19824-5.15625,4.2041s-4.57031,1.50879-7.20703,1.50879ZM1074.10938,178.86436c-1.67969,0-3.04199.56885-4.08691,1.70703s-1.71387,2.76611-2.00684,4.88477h11.77734v-.67725c-.03906-1.88281-.54688-3.33984-1.52344-4.36963s-2.36328-1.54492-4.16016-1.54492Z"/>
    <path class="cls-2" d="M1100.71094,172.62413l.26367,3.66211c2.26562-2.83154,5.30273-4.24805,9.11133-4.24805,3.35938,0,5.85938.98633,7.5,2.95898,1.64062,1.97314,2.48047,4.92188,2.51953,8.84766v20.47852h-8.4668v-20.32031c0-1.80078-.39062-3.10742-1.17188-3.91992s-2.08008-1.21875-3.89648-1.21875c-2.38281,0-4.16992,1.01807-5.36133,3.05371v22.40527h-8.4668v-31.69922h7.96875Z"/>
    <path class="cls-2" d="M1141.11133,204.90928c-4.64844,0-8.43262-1.42529-11.35254-4.27734-2.91992-2.85156-4.37988-6.65039-4.37988-11.39648v-.82031c0-3.18311.61523-6.03027,1.8457-8.54004,1.23047-2.50928,2.97363-4.44287,5.22949-5.80078,2.25586-1.35742,4.8291-2.03613,7.71973-2.03613,4.33594,0,7.74902,1.36719,10.23926,4.10156,2.49023,2.73486,3.73535,6.61133,3.73535,11.63086v3.45703h-20.18555c.27344,2.07031,1.09863,3.73096,2.47559,4.98047,1.37695,1.25,3.12012,1.875,5.22949,1.875,3.26172,0,5.81055-1.18164,7.64648-3.54492l4.16016,4.6582c-1.26953,1.79736-2.98828,3.19824-5.15625,4.2041s-4.57031,1.50879-7.20703,1.50879ZM1140.14453,178.86436c-1.67969,0-3.04199.56885-4.08691,1.70703s-1.71387,2.76611-2.00684,4.88477h11.77734v-.67725c-.03906-1.88281-.54688-3.33984-1.52344-4.36963s-2.36328-1.54492-4.16016-1.54492Z"/>
    <path class="cls-2" d="M1169.08984,164.83116v7.79297h5.41992v6.21094h-5.41992v15.82031c0,1.17188.22461,2.01172.67383,2.51953.44922.5083,1.30859.76172,2.57812.76172.9375,0,1.76758-.06836,2.49023-.20508v6.41602c-1.66016.50781-3.36914.76172-5.12695.76172-5.9375,0-8.96484-2.99805-9.08203-8.99414v-17.08008h-4.62891v-6.21094h4.62891v-7.79297h8.4668Z"/>
    <path class="cls-2" d="M1197.03906,180.56358c-1.15234-.15625-2.16797-.23438-3.04688-.23438-3.20312,0-5.30273,1.08398-6.29883,3.25195v20.74219h-8.4668v-31.69922h7.99805l.23438,3.7793c1.69922-2.91016,4.05273-4.36523,7.06055-4.36523.9375,0,1.81641.12744,2.63672.38086l-.11719,8.14453Z"/>
    <path class="cls-2" d="M1219.48047,204.32335c-.39062-.76172-.67383-1.70898-.84961-2.8418-2.05078,2.28516-4.7168,3.42773-7.99805,3.42773-3.10547,0-5.67871-.89795-7.71973-2.69531-2.04102-1.79688-3.06152-4.06201-3.06152-6.79688,0-3.35889,1.24512-5.93701,3.73535-7.73438,2.49023-1.79688,6.08887-2.70508,10.7959-2.72461h3.89648v-1.81641c0-1.46484-.37598-2.63672-1.12793-3.51562s-1.93848-1.31836-3.55957-1.31836c-1.42578,0-2.54395.3418-3.35449,1.02539-.81055.68408-1.21582,1.62158-1.21582,2.8125h-8.4668c0-1.83545.56641-3.53467,1.69922-5.09766,1.13281-1.5625,2.73438-2.7876,4.80469-3.67676,2.07031-.88867,4.39453-1.33301,6.97266-1.33301,3.90625,0,7.00684.98145,9.30176,2.94434s3.44238,4.72168,3.44238,8.27637v13.74023c.01953,3.00781.43945,5.28369,1.25977,6.82617v.49805h-8.55469ZM1212.47852,198.43467c1.25,0,2.40234-.27832,3.45703-.83496s1.83594-1.30371,2.34375-2.24121v-5.44922h-3.16406c-4.23828,0-6.49414,1.46484-6.76758,4.39453l-.0293.49805c0,1.05469.37109,1.92383,1.11328,2.60742.74219.68408,1.75781,1.02539,3.04688,1.02539Z"/>
    <path class="cls-2" d="M1243.41602,164.83116v7.79297h5.41992v6.21094h-5.41992v15.82031c0,1.17188.22461,2.01172.67383,2.51953.44922.5083,1.30859.76172,2.57812.76172.9375,0,1.76758-.06836,2.49023-.20508v6.41602c-1.66016.50781-3.36914.76172-5.12695.76172-5.9375,0-8.96484-2.99805-9.08203-8.99414v-17.08008h-4.62891v-6.21094h4.62891v-7.79297h8.4668Z"/>
    <path class="cls-2" d="M1253.49414,164.421c0-1.26953.4248-2.31445,1.27441-3.13477s2.00684-1.23047,3.47168-1.23047c1.44531,0,2.59766.41016,3.45703,1.23047s1.28906,1.86523,1.28906,3.13477c0,1.28906-.43457,2.34375-1.30371,3.16406s-2.0166,1.23047-3.44238,1.23047-2.57324-.41016-3.44238-1.23047-1.30371-1.875-1.30371-3.16406ZM1262.48828,204.32335h-8.49609v-31.69922h8.49609v31.69922Z"/>
    <path class="cls-2" d="M1268.14258,188.18077c0-3.14453.60547-5.94727,1.81641-8.4082s2.9541-4.36523,5.22949-5.71289,4.91699-2.02148,7.9248-2.02148c4.27734,0,7.76855,1.30859,10.47363,3.92578,2.70508,2.61768,4.21387,6.17188,4.52637,10.66406l.05859,2.16797c0,4.86328-1.35742,8.76465-4.07227,11.7041-2.71484,2.93994-6.35742,4.40918-10.92773,4.40918s-8.21777-1.46484-10.94238-4.39453-4.08691-6.91406-4.08691-11.95312v-.38086ZM1276.60938,188.78184c0,3.0127.56641,5.31592,1.69922,6.90967,1.13281,1.59473,2.75391,2.3916,4.86328,2.3916,2.05078,0,3.65234-.78711,4.80469-2.3623,1.15234-1.57422,1.72852-4.09277,1.72852-7.55518,0-2.95361-.57617-5.24219-1.72852-6.86572s-2.77344-2.43555-4.86328-2.43555c-2.07031,0-3.67188.80713-4.80469,2.4209s-1.69922,4.11279-1.69922,7.49658Z"/>
    <path class="cls-2" d="M1311.17969,172.62413l.26367,3.66211c2.26562-2.83154,5.30273-4.24805,9.11133-4.24805,3.35938,0,5.85938.98633,7.5,2.95898,1.64062,1.97314,2.48047,4.92188,2.51953,8.84766v20.47852h-8.4668v-20.32031c0-1.80078-.39062-3.10742-1.17188-3.91992s-2.08008-1.21875-3.89648-1.21875c-2.38281,0-4.16992,1.01807-5.36133,3.05371v22.40527h-8.4668v-31.69922h7.96875Z"/>
  </g>
  <g>
    <path class="cls-2" d="M498.43652,372.36973v10.15527h-5.93945v-28.82324h11.24414c2.16504,0,4.06836.39551,5.71191,1.1875,1.64258.79199,2.90625,1.91699,3.79102,3.37598.88379,1.45801,1.32617,3.11719,1.32617,4.97852,0,2.82422-.9668,5.05078-2.90039,6.68066-1.93359,1.63086-4.60938,2.44531-8.02734,2.44531h-5.20605ZM498.43652,367.55919h5.30469c1.57031,0,2.76855-.36914,3.59375-1.1084.82422-.73926,1.2373-1.79492,1.2373-3.16797,0-1.41211-.41602-2.55371-1.24805-3.4248-.83105-.87109-1.97949-1.31934-3.44434-1.3457h-5.44336v9.04688Z"/>
    <path class="cls-2" d="M530.68359,382.52501c-.26367-.51465-.45508-1.1543-.57422-1.91992-1.38574,1.54395-3.18652,2.31543-5.4043,2.31543-2.09766,0-3.83691-.60645-5.21582-1.82129-1.37988-1.21387-2.06934-2.74414-2.06934-4.5918,0-2.27051.8418-4.0127,2.52441-5.22656s4.11426-1.82812,7.29492-1.84082h2.63281v-1.22754c0-.99023-.25391-1.78223-.76172-2.37598-.50879-.59375-1.31055-.89062-2.40527-.89062-.96387,0-1.71973.23145-2.2666.69336-.54785.46191-.82227,1.09473-.82227,1.90039h-5.7207c0-1.24023.38281-2.38867,1.14844-3.44531.76465-1.05566,1.84766-1.88379,3.24609-2.48438,1.39844-.59961,2.96973-.90039,4.71191-.90039,2.63867,0,4.73438.66309,6.28516,1.98926s2.32617,3.19043,2.32617,5.59277v9.28418c.0127,2.03223.29688,3.57031.85059,4.6123v.33691h-5.78027ZM525.95215,378.54551c.84473,0,1.62402-.1875,2.33594-.56348.71289-.37598,1.24121-.88086,1.58398-1.51465v-3.68164h-2.1377c-2.86426,0-4.38867.98926-4.57324,2.96875l-.01953.33691c0,.71289.25,1.2998.75195,1.76172s1.1875.69238,2.05859.69238Z"/>
    <path class="cls-2" d="M559.28906,372.01329c0,3.2998-.74902,5.94238-2.24609,7.92871-1.49805,1.98633-3.52148,2.97852-6.06836,2.97852-2.16406,0-3.91309-.75195-5.24512-2.25684v10.09668h-5.72168v-29.65527h5.30566l.19824,2.09863c1.38574-1.66309,3.19336-2.49414,5.42383-2.49414,2.63965,0,4.69141.97656,6.15625,2.92969s2.19727,4.64551,2.19727,8.07715v.29688ZM553.56836,371.57676c0-1.99805-.35352-3.54102-1.05957-4.62598-.70605-1.08594-1.73145-1.62891-3.07812-1.62891-1.79492,0-3.02832.68848-3.70117,2.06543v8.79688c.69922,1.41602,1.94629,2.12402,3.74121,2.12402,2.73145,0,4.09766-2.24316,4.09766-6.73145Z"/>
    <path class="cls-2" d="M572.69141,382.92051c-3.14062,0-5.69824-.96289-7.6709-2.88965s-2.95898-4.49414-2.95898-7.70117v-.55371c0-2.15137.41504-4.0752,1.24707-5.77051.83105-1.69629,2.00879-3.00293,3.5332-3.91992s3.2627-1.37598,5.2168-1.37598c2.92969,0,5.23535.92383,6.91797,2.77148s2.52441,4.46777,2.52441,7.85938v2.33594h-13.63965c.18457,1.39844.74219,2.52051,1.67285,3.36523s2.1084,1.2666,3.5332,1.2666c2.2041,0,3.92676-.79785,5.16699-2.39551l2.81152,3.14844c-.8584,1.21387-2.01953,2.16113-3.48438,2.83984-1.46484.67969-3.08789,1.01953-4.87012,1.01953ZM572.03809,365.32188c-1.13477,0-2.05566.38477-2.76172,1.15332-.70605.76953-1.15723,1.86914-1.35547,3.30078h7.95801v-.45703c-.02637-1.27246-.37012-2.25684-1.0293-2.95312-.66016-.69531-1.59766-1.04395-2.81152-1.04395Z"/>
    <path class="cls-2" d="M596.7832,366.47032c-.77832-.10547-1.46484-.1582-2.05859-.1582-2.16504,0-3.58301.73242-4.25586,2.19727v14.01562h-5.72168v-21.41992h5.4043l.1582,2.55371c1.14844-1.96582,2.73828-2.94922,4.77148-2.94922.63281,0,1.22754.08594,1.78125.25781l-.0791,5.50293Z"/>
  </g>
  <g>
    <path class="cls-2" d="M113.354,956.16368l.17871,2.47461c1.53027-1.91309,3.58301-2.87012,6.15625-2.87012,2.26953,0,3.95898.66699,5.06836,1.99902,1.1084,1.33398,1.67578,3.32617,1.70215,5.97852v13.83789h-5.72168v-13.73047c0-1.2168-.26367-2.09961-.79102-2.64941-.52832-.54785-1.40625-.82324-2.63281-.82324-1.61035,0-2.81836.68848-3.62305,2.06348v15.13965h-5.72168v-21.41992h5.38477Z"/>
    <path class="cls-2" d="M140.65283,977.97911c-3.14062,0-5.69824-.96289-7.6709-2.88965s-2.95898-4.49414-2.95898-7.70117v-.55371c0-2.15137.41504-4.0752,1.24707-5.77051.83105-1.69629,2.00879-3.00293,3.5332-3.91992s3.2627-1.37598,5.2168-1.37598c2.92969,0,5.23535.92383,6.91797,2.77148s2.52441,4.46777,2.52441,7.85938v2.33594h-13.63965c.18457,1.39844.74219,2.52051,1.67285,3.36523s2.1084,1.2666,3.5332,1.2666c2.2041,0,3.92676-.79785,5.16699-2.39551l2.81152,3.14844c-.8584,1.21387-2.01953,2.16113-3.48438,2.83984-1.46484.67969-3.08789,1.01953-4.87012,1.01953ZM139.99951,960.38047c-1.13477,0-2.05566.38477-2.76172,1.15332-.70605.76953-1.15723,1.86914-1.35547,3.30078h7.95801v-.45703c-.02637-1.27246-.37012-2.25684-1.0293-2.95312-.66016-.69531-1.59766-1.04395-2.81152-1.04395Z"/>
    <path class="cls-2" d="M165.53711,975.40586c-1.41211,1.71582-3.36523,2.57324-5.85938,2.57324-2.29688,0-4.04883-.65918-5.25586-1.97949-1.20801-1.31934-1.8252-3.25293-1.85156-5.7998v-14.03613h5.72168v13.85449c0,2.23242,1.01562,3.34863,3.04785,3.34863,1.94043,0,3.27344-.67383,3.99902-2.02148v-15.18164h5.74121v21.41992h-5.38477l-.1582-2.17773Z"/>
    <path class="cls-2" d="M182.24512,950.89805v5.26562h3.66211v4.19727h-3.66211v10.68945c0,.79199.15137,1.36035.45508,1.70312s.88379.51465,1.74219.51465c.63379,0,1.19434-.0459,1.68262-.13867v4.33496c-1.12207.34375-2.27637.51465-3.46387.51465-4.0127,0-6.05762-2.02539-6.13672-6.07715v-11.54102h-3.12793v-4.19727h3.12793v-5.26562h5.7207Z"/>
    <path class="cls-2" d="M201.13086,961.52891c-.77832-.10547-1.46484-.1582-2.05859-.1582-2.16504,0-3.58301.73242-4.25586,2.19727v14.01562h-5.72168v-21.41992h5.4043l.1582,2.55371c1.14844-1.96582,2.73828-2.94922,4.77148-2.94922.63281,0,1.22754.08594,1.78125.25781l-.0791,5.50293Z"/>
    <path class="cls-2" d="M202.99219,966.67637c0-2.125.40918-4.01953,1.22754-5.68164.81738-1.66309,1.99609-2.9502,3.5332-3.86035,1.53711-.91113,3.32227-1.36621,5.35547-1.36621,2.88965,0,5.24902.88477,7.07715,2.65234,1.82715,1.76953,2.84668,4.1709,3.05762,7.20605l.04004,1.46484c0,3.28613-.91699,5.92285-2.75195,7.90918-1.83398,1.98633-4.2959,2.97852-7.38379,2.97852s-5.55273-.98926-7.39355-2.96875-2.76172-4.67188-2.76172-8.07715v-.25684ZM208.71289,967.08165c0,2.03613.38281,3.59277,1.14844,4.66992s1.86133,1.61523,3.28613,1.61523c1.38574,0,2.46777-.53223,3.24707-1.5957.77832-1.06445,1.16797-2.76562,1.16797-5.10547,0-1.99609-.38965-3.54199-1.16797-4.63965-.7793-1.09668-1.875-1.64551-3.28613-1.64551-1.39941,0-2.48145.5459-3.24707,1.63574-.76562,1.09082-1.14844,2.7793-1.14844,5.06543Z"/>
    <path class="cls-2" d="M232.07227,956.16368l.17871,2.47461c1.53027-1.91309,3.58301-2.87012,6.15625-2.87012,2.26953,0,3.95898.66699,5.06836,1.99902,1.1084,1.33398,1.67578,3.32617,1.70215,5.97852v13.83789h-5.72168v-13.73047c0-1.2168-.26367-2.09961-.79102-2.64941-.52832-.54785-1.40625-.82324-2.63281-.82324-1.61035,0-2.81836.68848-3.62305,2.06348v15.13965h-5.72168v-21.41992h5.38477Z"/>
    <path class="cls-2" d="M151.97656,1010.18028c-.77832-.10547-1.46484-.1582-2.05908-.1582-2.16504,0-3.58301.73242-4.25586,2.19727v14.01562h-5.72168v-21.41992h5.4043l.1582,2.55371c1.14844-1.96582,2.73828-2.94922,4.77197-2.94922.63281,0,1.22754.08594,1.78125.25781l-.0791,5.50293Z"/>
    <path class="cls-2" d="M167.14062,1026.23497c-.26367-.51465-.45508-1.1543-.57422-1.91992-1.38574,1.54395-3.18652,2.31543-5.4043,2.31543-2.09766,0-3.83691-.60645-5.21582-1.82129-1.37988-1.21387-2.06934-2.74414-2.06934-4.5918,0-2.27051.8418-4.0127,2.52441-5.22656s4.11426-1.82812,7.29492-1.84082h2.63281v-1.22754c0-.99023-.25391-1.78223-.76172-2.37598-.50879-.59375-1.31055-.89062-2.40527-.89062-.96387,0-1.71973.23145-2.2666.69336-.54785.46191-.82227,1.09473-.82227,1.90039h-5.7207c0-1.24023.38281-2.38867,1.14844-3.44531.76465-1.05566,1.84766-1.88379,3.24609-2.48438,1.39844-.59961,2.96973-.90039,4.71191-.90039,2.63867,0,4.73438.66309,6.28516,1.98926s2.32617,3.19043,2.32617,5.59277v9.28418c.0127,2.03223.29688,3.57031.85059,4.6123v.33691h-5.78027ZM162.40918,1022.25547c.84473,0,1.62402-.1875,2.33594-.56348.71289-.37598,1.24121-.88086,1.58398-1.51465v-3.68164h-2.1377c-2.86426,0-4.38867.98926-4.57324,2.96875l-.01953.33691c0,.71289.25,1.2998.75195,1.76172s1.1875.69238,2.05859.69238Z"/>
    <path class="cls-2" d="M184.46191,1018.13829l3.95898-13.32324h6.13672l-8.61133,24.74609-.47461,1.12793c-1.28027,2.79785-3.39258,4.19727-6.33496,4.19727-.83203,0-1.67676-.12598-2.53418-.37695v-4.33496l.87109.01953c1.08203,0,1.89062-.16504,2.4248-.49512.53516-.3291.95312-.87695,1.25684-1.64258l.67383-1.76172-7.50293-21.47949h6.15625l3.97949,13.32324Z"/>
    <path class="cls-2" d="M208.41504,1020.31602c0-.69922-.34668-1.25-1.03906-1.65332-.69336-.40234-1.80469-.76172-3.33594-1.0791-5.09473-1.06836-7.6416-3.23242-7.6416-6.49316,0-1.90039.78906-3.48633,2.36621-4.76074,1.57715-1.27344,3.63867-1.91016,6.18652-1.91016,2.71777,0,4.89258.64062,6.52246,1.91992,1.62988,1.28027,2.44531,2.94336,2.44531,4.98926h-5.72168c0-.81836-.26367-1.49512-.79199-2.0293-.52734-.53418-1.35254-.80176-2.47461-.80176-.96289,0-1.70898.21777-2.23633.65332-.52832.43555-.79199.98926-.79199,1.66309,0,.63281.2998,1.14453.90039,1.53418.60059.38867,1.61328.72559,3.03906,1.00977,1.4248.2832,2.62598.60352,3.60254.95996,3.02246,1.1084,4.5332,3.02832,4.5332,5.76074,0,1.95312-.83789,3.5332-2.51367,4.74121-1.67676,1.20703-3.84082,1.81055-6.49316,1.81055-1.79492,0-3.38867-.31934-4.78125-.95996-1.39258-.63965-2.48438-1.51758-3.27637-2.63281-.79102-1.11523-1.1875-2.31934-1.1875-3.6123h5.4248c.05176,1.01562.42871,1.79492,1.12793,2.33594s1.63672.81152,2.81152.81152c1.09473,0,1.92285-.20801,2.48438-.62402.56055-.41504.84082-.95996.84082-1.63281Z"/>
  </g>
  <g>
    <path class="cls-2" d="M1646.93262,355.8629l2.81152-13.63965h5.52344l-5.46387,21.41992h-4.79102l-4.05859-13.48145-4.05762,13.48145h-4.77148l-5.46289-21.41992h5.52246l2.79199,13.62012,3.91895-13.62012h4.1377l3.89941,13.63965Z"/>
    <path class="cls-2" d="M1670.50977,363.64317c-.26367-.51465-.45508-1.1543-.57422-1.91992-1.38574,1.54395-3.18652,2.31543-5.4043,2.31543-2.09766,0-3.83691-.60645-5.21582-1.82129-1.37988-1.21387-2.06934-2.74414-2.06934-4.5918,0-2.27051.8418-4.0127,2.52441-5.22656s4.11426-1.82812,7.29492-1.84082h2.63281v-1.22754c0-.99023-.25391-1.78223-.76172-2.37598-.50879-.59375-1.31055-.89062-2.40527-.89062-.96387,0-1.71973.23145-2.2666.69336-.54785.46191-.82227,1.09473-.82227,1.90039h-5.7207c0-1.24023.38281-2.38867,1.14844-3.44531.76465-1.05566,1.84766-1.88379,3.24609-2.48438,1.39844-.59961,2.96973-.90039,4.71191-.90039,2.63867,0,4.73438.66309,6.28516,1.98926s2.32617,3.19043,2.32617,5.59277v9.28418c.0127,2.03223.29688,3.57031.85059,4.6123v.33691h-5.78027ZM1665.77832,359.66368c.84473,0,1.62402-.1875,2.33594-.56348.71289-.37598,1.24121-.88086,1.58398-1.51465v-3.68164h-2.1377c-2.86426,0-4.38867.98926-4.57324,2.96875l-.01953.33691c0,.71289.25,1.2998.75195,1.76172s1.1875.69238,2.05859.69238Z"/>
    <path class="cls-2" d="M1686.68359,336.95762v5.26562h3.66211v4.19727h-3.66211v10.68945c0,.79199.15137,1.36035.45508,1.70312s.88379.51465,1.74219.51465c.63379,0,1.19434-.0459,1.68262-.13867v4.33496c-1.12207.34375-2.27637.51465-3.46387.51465-4.0127,0-6.05762-2.02539-6.13672-6.07715v-11.54102h-3.12793v-4.19727h3.12793v-5.26562h5.7207Z"/>
    <path class="cls-2" d="M1703.3916,364.03868c-3.14062,0-5.69824-.96289-7.6709-2.88965s-2.95898-4.49414-2.95898-7.70117v-.55371c0-2.15137.41504-4.0752,1.24707-5.77051.83105-1.69629,2.00879-3.00293,3.5332-3.91992s3.2627-1.37598,5.2168-1.37598c2.92969,0,5.23535.92383,6.91797,2.77148s2.52441,4.46777,2.52441,7.85938v2.33594h-13.63965c.18457,1.39844.74219,2.52051,1.67285,3.36523s2.1084,1.2666,3.5332,1.2666c2.2041,0,3.92676-.79785,5.16699-2.39551l2.81152,3.14844c-.8584,1.21387-2.01953,2.16113-3.48438,2.83984-1.46484.67969-3.08789,1.01953-4.87012,1.01953ZM1702.73828,346.44004c-1.13477,0-2.05566.38477-2.76172,1.15332-.70605.76953-1.15723,1.86914-1.35547,3.30078h7.95801v-.45703c-.02637-1.27246-.37012-2.25684-1.0293-2.95312-.66016-.69531-1.59766-1.04395-2.81152-1.04395Z"/>
    <path class="cls-2" d="M1727.4834,347.58848c-.77832-.10547-1.46484-.1582-2.05859-.1582-2.16504,0-3.58301.73242-4.25586,2.19727v14.01562h-5.72168v-21.41992h5.4043l.1582,2.55371c1.14844-1.96582,2.73828-2.94922,4.77148-2.94922.63281,0,1.22754.08594,1.78125.25781l-.0791,5.50293Z"/>
    <path class="cls-2" d="M1731.71973,370.86876l-2.98926-1.56348.71289-1.28711c.88477-1.61035,1.33984-3.21387,1.36621-4.81055v-4.43457h4.83008l-.01953,3.95996c-.01367,1.46484-.38281,2.94238-1.1084,4.43359-.72656,1.49121-1.65625,2.72559-2.79199,3.70215Z"/>
    <path class="cls-2" d="M1568.74805,399.96934c1.05566,0,1.91406-.29004,2.57324-.87109.66016-.58008,1.00293-1.35254,1.03027-2.31543h5.36426c-.01367,1.45117-.40918,2.78125-1.1875,3.98828-.7793,1.20801-1.84473,2.14453-3.19727,2.81152-1.35254.66602-2.84766.99902-4.4834.99902-3.0625,0-5.47754-.97266-7.24609-2.91992-1.76855-1.94629-2.65234-4.63477-2.65234-8.06641v-.37598c0-3.2998.87695-5.93262,2.63281-7.89941,1.75488-1.96582,4.16406-2.94922,7.22559-2.94922,2.67871,0,4.82715.76172,6.44336,2.28613,1.61719,1.52441,2.43848,3.55371,2.46484,6.08789h-5.36426c-.02734-1.11426-.37012-2.02051-1.03027-2.7168-.65918-.69629-1.53027-1.04492-2.6123-1.04492-1.33301,0-2.33984.48633-3.01953,1.45703-.67969.97168-1.01953,2.54785-1.01953,4.72852v.59473c0,2.20801.33691,3.79395,1.00977,4.75879s1.69629,1.44727,3.06836,1.44727Z"/>
    <path class="cls-2" d="M1580.0918,393.27891c0-2.125.40918-4.01953,1.22754-5.68164.81738-1.66309,1.99609-2.9502,3.5332-3.86035,1.53711-.91113,3.32227-1.36621,5.35547-1.36621,2.88965,0,5.24902.88477,7.07715,2.65234,1.82715,1.76953,2.84668,4.1709,3.05762,7.20605l.04004,1.46484c0,3.28613-.91699,5.92285-2.75195,7.90918-1.83398,1.98633-4.2959,2.97852-7.38379,2.97852s-5.55273-.98926-7.39355-2.96875-2.76172-4.67188-2.76172-8.07715v-.25684ZM1585.8125,393.68419c0,2.03613.38281,3.59277,1.14844,4.66992s1.86133,1.61523,3.28613,1.61523c1.38574,0,2.46777-.53223,3.24707-1.5957.77832-1.06445,1.16797-2.76562,1.16797-5.10547,0-1.99609-.38965-3.54199-1.16797-4.63965-.7793-1.09668-1.875-1.64551-3.28613-1.64551-1.39941,0-2.48145.5459-3.24707,1.63574-.76562,1.09082-1.14844,2.7793-1.14844,5.06543Z"/>
    <path class="cls-2" d="M1609.17188,382.76622l.17871,2.47461c1.53027-1.91309,3.58301-2.87012,6.15625-2.87012,2.26953,0,3.95898.66699,5.06836,1.99902,1.1084,1.33398,1.67578,3.32617,1.70215,5.97852v13.83789h-5.72168v-13.73047c0-1.2168-.26367-2.09961-.79102-2.64941-.52832-.54785-1.40625-.82324-2.63281-.82324-1.61035,0-2.81836.68848-3.62305,2.06348v15.13965h-5.72168v-21.41992h5.38477Z"/>
    <path class="cls-2" d="M1635.52051,399.96934c1.05566,0,1.91406-.29004,2.57324-.87109.66016-.58008,1.00293-1.35254,1.03027-2.31543h5.36426c-.01367,1.45117-.40918,2.78125-1.1875,3.98828-.7793,1.20801-1.84473,2.14453-3.19727,2.81152-1.35254.66602-2.84766.99902-4.4834.99902-3.0625,0-5.47754-.97266-7.24609-2.91992-1.76855-1.94629-2.65234-4.63477-2.65234-8.06641v-.37598c0-3.2998.87695-5.93262,2.63281-7.89941,1.75488-1.96582,4.16406-2.94922,7.22559-2.94922,2.67871,0,4.82715.76172,6.44336,2.28613,1.61719,1.52441,2.43848,3.55371,2.46484,6.08789h-5.36426c-.02734-1.11426-.37012-2.02051-1.03027-2.7168-.65918-.69629-1.53027-1.04492-2.6123-1.04492-1.33301,0-2.33984.48633-3.01953,1.45703-.67969.97168-1.01953,2.54785-1.01953,4.72852v.59473c0,2.20801.33691,3.79395,1.00977,4.75879s1.69629,1.44727,3.06836,1.44727Z"/>
    <path class="cls-2" d="M1659.79102,388.13145c-.77832-.10547-1.46484-.1582-2.05859-.1582-2.16504,0-3.58301.73242-4.25586,2.19727v14.01562h-5.72168v-21.41992h5.4043l.1582,2.55371c1.14844-1.96582,2.73828-2.94922,4.77148-2.94922.63281,0,1.22754.08594,1.78125.25781l-.0791,5.50293Z"/>
    <path class="cls-2" d="M1672.40039,404.58165c-3.14062,0-5.69824-.96289-7.6709-2.88965s-2.95898-4.49414-2.95898-7.70117v-.55371c0-2.15137.41504-4.0752,1.24707-5.77051.83105-1.69629,2.00879-3.00293,3.5332-3.91992s3.2627-1.37598,5.2168-1.37598c2.92969,0,5.23535.92383,6.91797,2.77148s2.52441,4.46777,2.52441,7.85938v2.33594h-13.63965c.18457,1.39844.74219,2.52051,1.67285,3.36523s2.1084,1.2666,3.5332,1.2666c2.2041,0,3.92676-.79785,5.16699-2.39551l2.81152,3.14844c-.8584,1.21387-2.01953,2.16113-3.48438,2.83984-1.46484.67969-3.08789,1.01953-4.87012,1.01953ZM1671.74707,386.98301c-1.13477,0-2.05566.38477-2.76172,1.15332-.70605.76953-1.15723,1.86914-1.35547,3.30078h7.95801v-.45703c-.02637-1.27246-.37012-2.25684-1.0293-2.95312-.66016-.69531-1.59766-1.04395-2.81152-1.04395Z"/>
    <path class="cls-2" d="M1691.30664,377.50059v5.26562h3.66211v4.19727h-3.66211v10.68945c0,.79199.15137,1.36035.45508,1.70312s.88379.51465,1.74219.51465c.63379,0,1.19434-.0459,1.68262-.13867v4.33496c-1.12207.34375-2.27637.51465-3.46387.51465-4.0127,0-6.05762-2.02539-6.13672-6.07715v-11.54102h-3.12793v-4.19727h3.12793v-5.26562h5.7207Z"/>
    <path class="cls-2" d="M1708.01367,404.58165c-3.14062,0-5.69824-.96289-7.6709-2.88965s-2.95898-4.49414-2.95898-7.70117v-.55371c0-2.15137.41504-4.0752,1.24707-5.77051.83105-1.69629,2.00879-3.00293,3.5332-3.91992s3.2627-1.37598,5.2168-1.37598c2.92969,0,5.23535.92383,6.91797,2.77148s2.52441,4.46777,2.52441,7.85938v2.33594h-13.63965c.18457,1.39844.74219,2.52051,1.67285,3.36523s2.1084,1.2666,3.5332,1.2666c2.2041,0,3.92676-.79785,5.16699-2.39551l2.81152,3.14844c-.8584,1.21387-2.01953,2.16113-3.48438,2.83984-1.46484.67969-3.08789,1.01953-4.87012,1.01953ZM1707.36035,386.98301c-1.13477,0-2.05566.38477-2.76172,1.15332-.70605.76953-1.15723,1.86914-1.35547,3.30078h7.95801v-.45703c-.02637-1.27246-.37012-2.25684-1.0293-2.95312-.66016-.69531-1.59766-1.04395-2.81152-1.04395Z"/>
    <path class="cls-2" d="M1721.55469,411.41172l-2.98926-1.56348.71289-1.28711c.88477-1.61035,1.33984-3.21387,1.36621-4.81055v-4.43457h4.83008l-.01953,3.95996c-.01367,1.46484-.38281,2.94238-1.1084,4.43359-.72656,1.49121-1.65625,2.72559-2.79199,3.70215Z"/>
    <path class="cls-2" d="M1749.92285,404.58165c-3.14062,0-5.69824-.96289-7.6709-2.88965s-2.95898-4.49414-2.95898-7.70117v-.55371c0-2.15137.41504-4.0752,1.24707-5.77051.83105-1.69629,2.00879-3.00293,3.5332-3.91992s3.2627-1.37598,5.2168-1.37598c2.92969,0,5.23535.92383,6.91797,2.77148s2.52441,4.46777,2.52441,7.85938v2.33594h-13.63965c.18457,1.39844.74219,2.52051,1.67285,3.36523s2.1084,1.2666,3.5332,1.2666c2.2041,0,3.92676-.79785,5.16699-2.39551l2.81152,3.14844c-.8584,1.21387-2.01953,2.16113-3.48438,2.83984-1.46484.67969-3.08789,1.01953-4.87012,1.01953ZM1749.26953,386.98301c-1.13477,0-2.05566.38477-2.76172,1.15332-.70605.76953-1.15723,1.86914-1.35547,3.30078h7.95801v-.45703c-.02637-1.27246-.37012-2.25684-1.0293-2.95312-.66016-.69531-1.59766-1.04395-2.81152-1.04395Z"/>
    <path class="cls-2" d="M1768.82812,377.50059v5.26562h3.66211v4.19727h-3.66211v10.68945c0,.79199.15137,1.36035.45508,1.70312s.88379.51465,1.74219.51465c.63379,0,1.19434-.0459,1.68262-.13867v4.33496c-1.12207.34375-2.27637.51465-3.46387.51465-4.0127,0-6.05762-2.02539-6.13672-6.07715v-11.54102h-3.12793v-4.19727h3.12793v-5.26562h5.7207Z"/>
    <path class="cls-2" d="M1784.58594,399.96934c1.05566,0,1.91406-.29004,2.57324-.87109.66016-.58008,1.00293-1.35254,1.03027-2.31543h5.36426c-.01367,1.45117-.40918,2.78125-1.1875,3.98828-.7793,1.20801-1.84473,2.14453-3.19727,2.81152-1.35254.66602-2.84766.99902-4.4834.99902-3.0625,0-5.47754-.97266-7.24609-2.91992-1.76855-1.94629-2.65234-4.63477-2.65234-8.06641v-.37598c0-3.2998.87695-5.93262,2.63281-7.89941,1.75488-1.96582,4.16406-2.94922,7.22559-2.94922,2.67871,0,4.82715.76172,6.44336,2.28613,1.61719,1.52441,2.43848,3.55371,2.46484,6.08789h-5.36426c-.02734-1.11426-.37012-2.02051-1.03027-2.7168-.65918-.69629-1.53027-1.04492-2.6123-1.04492-1.33301,0-2.33984.48633-3.01953,1.45703-.67969.97168-1.01953,2.54785-1.01953,4.72852v.59473c0,2.20801.33691,3.79395,1.00977,4.75879s1.69629,1.44727,3.06836,1.44727Z"/>
    <path class="cls-2" d="M1797.11719,401.37461c0-.91016.30664-1.64941.9209-2.2168.61328-.56738,1.38184-.85156,2.30566-.85156.9375,0,1.71289.28418,2.32617.85156.61426.56738.9209,1.30664.9209,2.2168,0,.89844-.30371,1.62695-.91113,2.1875-.60645.56152-1.38574.8418-2.33594.8418-.93652,0-1.70898-.28027-2.31543-.8418-.60742-.56055-.91113-1.28906-.91113-2.1875Z"/>
  </g>
  <g>
    <path class="cls-2" d="M136.95166,696.4879c0,1.90039-.27734,3.64746-.83203,5.24121s-1.38086,2.97363-2.47949,4.1416c-1.09863,1.16895-2.45508,2.07422-4.06738,2.71777-1.61426.64258-3.47949.96484-5.59766.96484-.79199,0-1.53418-.0498-2.22754-.14844-.69336-.09961-1.33594-.24316-1.92969-.43066-.59375-.18848-1.13867-.4209-1.63379-.69824-.49414-.27637-.9502-.59375-1.36523-.9502.09863.67383.17285,1.39551.22266,2.16797.04883.77148.07422,1.53418.07422,2.28613v6.71094c0,.19824-.05957.37598-.17871.53516-.11816.1582-.32129.29102-.6084.40039-.28711.1084-.66797.19336-1.14355.25195-.47461.05957-1.0791.08984-1.81055.08984-.7334,0-1.33691-.03027-1.81152-.08984-.47559-.05859-.85645-.14355-1.14355-.25195-.28711-.10938-.49023-.24219-.6084-.40039-.11914-.15918-.17871-.33691-.17871-.53516v-37.68164c0-2.2168.31641-4.16211.9502-5.83496s1.51953-3.07324,2.6582-4.20215c1.1377-1.12793,2.50391-1.97949,4.09766-2.55371,1.59277-.57324,3.35059-.86133,5.27051-.86133,2.01953,0,3.77637.27832,5.27051.83203,1.49512.55469,2.73242,1.30176,3.71191,2.24219.98047.94043,1.71191,2.0293,2.19727,3.26562.48535,1.2373.72754,2.5498.72754,3.93457,0,2.05957-.45996,3.84082-1.38086,5.3457-.91992,1.50391-2.31152,2.59277-4.17188,3.26562,1.28711.19824,2.4248.59375,3.41504,1.18848.98926.59375,1.82129,1.34082,2.49414,2.24121.67285.90137,1.1875,1.93555,1.54395,3.10352s.53516,2.40527.53516,3.71191ZM129.05225,696.96251c0-.96973-.11816-1.85547-.35547-2.65723-.23828-.80176-.60938-1.48535-1.11426-2.04883-.50488-.56445-1.1582-1-1.95996-1.30664s-1.7666-.46094-2.89453-.46094h-1.72266c-.41602,0-.72266-.22656-.91992-.68262-.19824-.45508-.29785-1.22754-.29785-2.31641,0-.55371.02539-1.02441.07422-1.41016.0498-.38574.11914-.69238.20801-.9209.08984-.22656.20801-.39062.35645-.48926s.32129-.14844.51953-.14844h.38672c.98926,0,1.83594-.15332,2.53809-.46094.70312-.30664,1.28223-.7373,1.7373-1.29102.45508-.55469.78711-1.19238.99512-1.91602.20801-.72168.31152-1.48926.31152-2.30078,0-.71289-.0791-1.38086-.2373-2.00488-.15918-.62305-.4209-1.16699-.78711-1.63281-.36621-.46484-.84668-.83594-1.44043-1.11328s-1.30664-.41602-2.1377-.41602c-.87109,0-1.63281.15332-2.28613.45996-.65332.30762-1.19824.7627-1.63379,1.36621-.43555.60449-.75684,1.35645-.96484,2.25684-.20801.90137-.31152,1.93555-.31152,3.10352v20.37012c.87109.83105,1.81543,1.4502,2.83594,1.85547,1.01855.40625,2.03418.6084,3.04297.6084,1.0293,0,1.92578-.14844,2.6875-.44531s1.39062-.72168,1.88574-1.27637c.49512-.55371.86621-1.22754,1.11328-2.01953.24805-.79102.37109-1.69238.37109-2.70215Z"/>
    <path class="cls-2" d="M162.47949,698.95176h-11.14551v-4.6123h11.14551v4.6123Z"/>
    <path class="cls-2" d="M179.10742,692.93419c-.77832-.10547-1.46484-.1582-2.05859-.1582-2.16504,0-3.58301.73242-4.25586,2.19727v14.01562h-5.72168v-21.41992h5.4043l.1582,2.55371c1.14844-1.96582,2.73828-2.94922,4.77148-2.94922.63281,0,1.22754.08594,1.78125.25781l-.0791,5.50293Z"/>
    <path class="cls-2" d="M194.27148,708.98887c-.26367-.51465-.45508-1.1543-.57422-1.91992-1.38574,1.54395-3.18652,2.31543-5.4043,2.31543-2.09766,0-3.83691-.60645-5.21582-1.82129-1.37988-1.21387-2.06934-2.74414-2.06934-4.5918,0-2.27051.8418-4.0127,2.52441-5.22656s4.11426-1.82812,7.29492-1.84082h2.63281v-1.22754c0-.99023-.25391-1.78223-.76172-2.37598-.50879-.59375-1.31055-.89062-2.40527-.89062-.96387,0-1.71973.23145-2.2666.69336-.54785.46191-.82227,1.09473-.82227,1.90039h-5.7207c0-1.24023.38281-2.38867,1.14844-3.44531.76465-1.05566,1.84766-1.88379,3.24609-2.48438,1.39844-.59961,2.96973-.90039,4.71191-.90039,2.63867,0,4.73438.66309,6.28516,1.98926s2.32617,3.19043,2.32617,5.59277v9.28418c.0127,2.03223.29688,3.57031.85059,4.6123v.33691h-5.78027ZM189.54004,705.00938c.84473,0,1.62402-.1875,2.33594-.56348.71289-.37598,1.24121-.88086,1.58398-1.51465v-3.68164h-2.1377c-2.86426,0-4.38867.98926-4.57324,2.96875l-.01953.33691c0,.71289.25,1.2998.75195,1.76172s1.1875.69238,2.05859.69238Z"/>
    <path class="cls-2" d="M211.59375,700.89219l3.95898-13.32324h6.13672l-8.61133,24.74609-.47461,1.12793c-1.28027,2.79785-3.39258,4.19727-6.33496,4.19727-.83203,0-1.67676-.12598-2.53418-.37695v-4.33496l.87109.01953c1.08203,0,1.89062-.16504,2.4248-.49512.53516-.3291.95312-.87695,1.25684-1.64258l.67383-1.76172-7.50293-21.47949h6.15625l3.97949,13.32324Z"/>
    <path class="cls-2" d="M235.54688,703.06993c0-.69922-.34668-1.25-1.03906-1.65332-.69336-.40234-1.80469-.76172-3.33594-1.0791-5.09473-1.06836-7.6416-3.23242-7.6416-6.49316,0-1.90039.78906-3.48633,2.36621-4.76074,1.57715-1.27344,3.63867-1.91016,6.18652-1.91016,2.71777,0,4.89258.64062,6.52246,1.91992,1.62988,1.28027,2.44531,2.94336,2.44531,4.98926h-5.72168c0-.81836-.26367-1.49512-.79199-2.0293-.52734-.53418-1.35254-.80176-2.47461-.80176-.96289,0-1.70898.21777-2.23633.65332-.52832.43555-.79199.98926-.79199,1.66309,0,.63281.2998,1.14453.90039,1.53418.60059.38867,1.61328.72559,3.03906,1.00977,1.4248.2832,2.62598.60352,3.60254.95996,3.02246,1.1084,4.5332,3.02832,4.5332,5.76074,0,1.95312-.83789,3.5332-2.51367,4.74121-1.67676,1.20703-3.84082,1.81055-6.49316,1.81055-1.79492,0-3.38867-.31934-4.78125-.95996-1.39258-.63965-2.48438-1.51758-3.27637-2.63281-.79102-1.11523-1.1875-2.31934-1.1875-3.6123h5.4248c.05176,1.01562.42871,1.79492,1.12793,2.33594s1.63672.81152,2.81152.81152c1.09473,0,1.92285-.20801,2.48438-.62402.56055-.41504.84082-.95996.84082-1.63281Z"/>
  </g>
  <g>
    <path class="cls-2" d="M125.729,831.23692c0,.19824-.06445.37695-.19336.53516s-.34082.28711-.63867.38574c-.29688.09961-.69727.17773-1.20215.2373s-1.13379.08887-1.88574.08887c-1.50488,0-2.53418-.1084-3.08789-.32617-.55469-.21777-.83203-.52441-.83203-.9209v-10.71973c0-3.04785-.16309-5.64648-.48926-7.79395-.32715-2.14844-.76758-3.93945-1.32129-5.375-.55469-1.43555-1.19336-2.56348-1.91602-3.38477s-1.48438-1.44531-2.28613-1.87109-1.61328-.69238-2.43457-.80176c-.82227-.1084-1.59961-.16309-2.33105-.16309-.13867,0-.26758-.03027-.38672-.08887-.11816-.05957-.22266-.21777-.31152-.47559-.08887-.25684-.1582-.62793-.20801-1.11328s-.07422-1.16309-.07422-2.03418c0-.77246.03027-1.38574.08887-1.84082.05957-.45508.13867-.81152.23828-1.06934.09863-.25684.22754-.42578.38574-.50488s.32617-.11914.50488-.11914c1.72266,0,3.38965.25293,5.00391.75781,1.6123.50488,3.0625,1.32129,4.34961,2.44922,1.28711,1.12891,2.37988,2.6084,3.28125,4.43945.90039,1.83105,1.5,4.06348,1.79688,6.69629h.11816c.31641-2.63281.91016-4.86523,1.78223-6.69629.87109-1.83105,1.94434-3.31055,3.22168-4.43945,1.27637-1.12793,2.71191-1.94434,4.30566-2.44922,1.59277-.50488,3.27051-.75781,5.0332-.75781.17773,0,.3457.04004.50488.11914.1582.0791.28613.24805.38574.50488.09863.25781.17871.61426.2373,1.06934.05957.45508.08984,1.06836.08984,1.84082,0,.87109-.02539,1.54883-.07422,2.03418-.0498.48535-.11914.85645-.20801,1.11328-.08984.25781-.19336.41602-.3125.47559-.11816.05859-.24707.08887-.38574.08887-.75195,0-1.53418.05469-2.3457.16309-.81152.10938-1.61816.37109-2.41992.78711-.80176.41504-1.56445,1.03906-2.28711,1.87012-.72266.83203-1.35547,1.96484-1.90039,3.40039-.54395,1.43555-.97949,3.22168-1.30566,5.35938-.32715,2.13867-.49023,4.73242-.49023,7.78027v10.74902Z"/>
    <path class="cls-2" d="M161.11523,822.26915h-11.146v-4.6123h11.146v4.6123Z"/>
    <path class="cls-2" d="M177.74414,816.25157c-.77832-.10547-1.46484-.1582-2.05859-.1582-2.16504,0-3.58301.73242-4.25586,2.19727v14.01562h-5.72168v-21.41992h5.4043l.1582,2.55371c1.14844-1.96582,2.73828-2.94922,4.77148-2.94922.63281,0,1.22754.08594,1.78125.25781l-.0791,5.50293Z"/>
    <path class="cls-2" d="M192.90723,832.30626c-.26367-.51465-.45508-1.1543-.57422-1.91992-1.38574,1.54395-3.18652,2.31543-5.4043,2.31543-2.09766,0-3.83691-.60645-5.21582-1.82129-1.37988-1.21387-2.06934-2.74414-2.06934-4.5918,0-2.27051.8418-4.0127,2.52441-5.22656s4.11426-1.82812,7.29492-1.84082h2.63281v-1.22754c0-.99023-.25391-1.78223-.76172-2.37598-.50879-.59375-1.31055-.89062-2.40527-.89062-.96387,0-1.71973.23145-2.2666.69336-.54785.46191-.82227,1.09473-.82227,1.90039h-5.7207c0-1.24023.38281-2.38867,1.14844-3.44531.76465-1.05566,1.84766-1.88379,3.24609-2.48438,1.39844-.59961,2.96973-.90039,4.71191-.90039,2.63867,0,4.73438.66309,6.28516,1.98926s2.32617,3.19043,2.32617,5.59277v9.28418c.0127,2.03223.29688,3.57031.85059,4.6123v.33691h-5.78027ZM188.17578,828.32676c.84473,0,1.62402-.1875,2.33594-.56348.71289-.37598,1.24121-.88086,1.58398-1.51465v-3.68164h-2.1377c-2.86426,0-4.38867.98926-4.57324,2.96875l-.01953.33691c0,.71289.25,1.2998.75195,1.76172s1.1875.69238,2.05859.69238Z"/>
    <path class="cls-2" d="M210.22949,824.20958l3.95898-13.32324h6.13672l-8.61133,24.74609-.47461,1.12793c-1.28027,2.79785-3.39258,4.19727-6.33496,4.19727-.83203,0-1.67676-.12598-2.53418-.37695v-4.33496l.87109.01953c1.08203,0,1.89062-.16504,2.4248-.49512.53516-.3291.95312-.87695,1.25684-1.64258l.67383-1.76172-7.50293-21.47949h6.15625l3.97949,13.32324Z"/>
    <path class="cls-2" d="M234.18262,826.38731c0-.69922-.34668-1.25-1.03906-1.65332-.69336-.40234-1.80469-.76172-3.33594-1.0791-5.09473-1.06836-7.6416-3.23242-7.6416-6.49316,0-1.90039.78906-3.48633,2.36621-4.76074,1.57715-1.27344,3.63867-1.91016,6.18652-1.91016,2.71777,0,4.89258.64062,6.52246,1.91992,1.62988,1.28027,2.44531,2.94336,2.44531,4.98926h-5.72168c0-.81836-.26367-1.49512-.79199-2.0293-.52734-.53418-1.35254-.80176-2.47461-.80176-.96289,0-1.70898.21777-2.23633.65332-.52832.43555-.79199.98926-.79199,1.66309,0,.63281.2998,1.14453.90039,1.53418.60059.38867,1.61328.72559,3.03906,1.00977,1.4248.2832,2.62598.60352,3.60254.95996,3.02246,1.1084,4.5332,3.02832,4.5332,5.76074,0,1.95312-.83789,3.5332-2.51367,4.74121-1.67676,1.20703-3.84082,1.81055-6.49316,1.81055-1.79492,0-3.38867-.31934-4.78125-.95996-1.39258-.63965-2.48438-1.51758-3.27637-2.63281-.79102-1.11523-1.1875-2.31934-1.1875-3.6123h5.4248c.05176,1.01562.42871,1.79492,1.12793,2.33594s1.63672.81152,2.81152.81152c1.09473,0,1.92285-.20801,2.48438-.62402.56055-.41504.84082-.95996.84082-1.63281Z"/>
  </g>
  <g>
    <path class="cls-2" d="M137.45752,890.1793c.35547.69336.58789,1.24707.69727,1.66309.1084.41504.04492.73242-.19336.9502-.2373.21777-.66797.35547-1.29102.41504-.62402.05957-1.49023.08887-2.59863.08887-.93066,0-1.66309-.01953-2.19727-.05859-.53418-.04004-.95508-.10449-1.26172-.19336-.30762-.08887-.53027-.21289-.66797-.37109-.13867-.1582-.25781-.35645-.35645-.59375l-7.21582-13.86719-7.18652,13.86719c-.11816.2373-.24707.43555-.38574.59375s-.36133.28223-.66797.37109c-.30762.08887-.73242.15332-1.27734.19336-.54395.03906-1.26172.05859-2.15234.05859-1.0293,0-1.82617-.0293-2.39062-.08887s-.94531-.19727-1.14355-.41504c-.19727-.21777-.2373-.53516-.11816-.9502.11816-.41602.36621-.96973.74219-1.66309l9.20508-16.77734-8.55176-15.76758c-.35645-.71289-.59863-1.28223-.72754-1.70801-.12891-.4248-.0791-.74219.14844-.9502s.64844-.33594,1.26172-.38574c.61328-.04883,1.48535-.07422,2.61328-.07422.93066,0,1.66797.01953,2.21191.05957.54492.04004.97559.10352,1.29199.19238.31641.08984.53906.21387.66797.37207s.25293.35547.37109.59375l6.74121,12.70898,6.5625-12.70898c.11816-.23828.24219-.43555.37109-.59375.12793-.1582.33594-.28223.62305-.37207.28711-.08887.68359-.15234,1.18848-.19238s1.20215-.05957,2.09277-.05957c.99023,0,1.77148.02539,2.3457.07422.57422.0498.96973.18359,1.18848.40137.21777.21777.27148.53418.16309.9502-.10938.41504-.33203.97949-.66797,1.69238l-8.55176,15.67871,9.11621,16.86621Z"/>
    <path class="cls-2" d="M162.80664,883.08165h-11.14551v-4.6123h11.14551v4.6123Z"/>
    <path class="cls-2" d="M179.43555,877.06407c-.77832-.10547-1.46484-.1582-2.05859-.1582-2.16504,0-3.58301.73242-4.25586,2.19727v14.01562h-5.72168v-21.41992h5.4043l.1582,2.55371c1.14844-1.96582,2.73828-2.94922,4.77148-2.94922.63281,0,1.22754.08594,1.78125.25781l-.0791,5.50293Z"/>
    <path class="cls-2" d="M194.59863,893.11876c-.26367-.51465-.45508-1.1543-.57422-1.91992-1.38574,1.54395-3.18652,2.31543-5.4043,2.31543-2.09766,0-3.83691-.60645-5.21582-1.82129-1.37988-1.21387-2.06934-2.74414-2.06934-4.5918,0-2.27051.8418-4.0127,2.52441-5.22656s4.11426-1.82812,7.29492-1.84082h2.63281v-1.22754c0-.99023-.25391-1.78223-.76172-2.37598-.50879-.59375-1.31055-.89062-2.40527-.89062-.96387,0-1.71973.23145-2.2666.69336-.54785.46191-.82227,1.09473-.82227,1.90039h-5.7207c0-1.24023.38281-2.38867,1.14844-3.44531.76465-1.05566,1.84766-1.88379,3.24609-2.48438,1.39844-.59961,2.96973-.90039,4.71191-.90039,2.63867,0,4.73438.66309,6.28516,1.98926s2.32617,3.19043,2.32617,5.59277v9.28418c.0127,2.03223.29688,3.57031.85059,4.6123v.33691h-5.78027ZM189.86719,889.13926c.84473,0,1.62402-.1875,2.33594-.56348.71289-.37598,1.24121-.88086,1.58398-1.51465v-3.68164h-2.1377c-2.86426,0-4.38867.98926-4.57324,2.96875l-.01953.33691c0,.71289.25,1.2998.75195,1.76172s1.1875.69238,2.05859.69238Z"/>
    <path class="cls-2" d="M211.9209,885.02208l3.95898-13.32324h6.13672l-8.61133,24.74609-.47461,1.12793c-1.28027,2.79785-3.39258,4.19727-6.33496,4.19727-.83203,0-1.67676-.12598-2.53418-.37695v-4.33496l.87109.01953c1.08203,0,1.89062-.16504,2.4248-.49512.53516-.3291.95312-.87695,1.25684-1.64258l.67383-1.76172-7.50293-21.47949h6.15625l3.97949,13.32324Z"/>
    <path class="cls-2" d="M235.87402,887.19981c0-.69922-.34668-1.25-1.03906-1.65332-.69336-.40234-1.80469-.76172-3.33594-1.0791-5.09473-1.06836-7.6416-3.23242-7.6416-6.49316,0-1.90039.78906-3.48633,2.36621-4.76074,1.57715-1.27344,3.63867-1.91016,6.18652-1.91016,2.71777,0,4.89258.64062,6.52246,1.91992,1.62988,1.28027,2.44531,2.94336,2.44531,4.98926h-5.72168c0-.81836-.26367-1.49512-.79199-2.0293-.52734-.53418-1.35254-.80176-2.47461-.80176-.96289,0-1.70898.21777-2.23633.65332-.52832.43555-.79199.98926-.79199,1.66309,0,.63281.2998,1.14453.90039,1.53418.60059.38867,1.61328.72559,3.03906,1.00977,1.4248.2832,2.62598.60352,3.60254.95996,3.02246,1.1084,4.5332,3.02832,4.5332,5.76074,0,1.95312-.83789,3.5332-2.51367,4.74121-1.67676,1.20703-3.84082,1.81055-6.49316,1.81055-1.79492,0-3.38867-.31934-4.78125-.95996-1.39258-.63965-2.48438-1.51758-3.27637-2.63281-.79102-1.11523-1.1875-2.31934-1.1875-3.6123h5.4248c.05176,1.01562.42871,1.79492,1.12793,2.33594s1.63672.81152,2.81152.81152c1.09473,0,1.92285-.20801,2.48438-.62402.56055-.41504.84082-.95996.84082-1.63281Z"/>
  </g>
  <g>
    <path class="cls-2" d="M140.8999,572.38926c0,.93066-.04492,1.6084-.13379,2.03418s-.20801.71289-.35645.86133-.36133.27148-.63867.37109c-.27734.09863-.61816.1875-1.02441.2666-.40527.0791-.83105.14355-1.27637.19336-.44531.04883-.90625.07422-1.38086.07422-.87109,0-1.67285-.0791-2.40527-.2373-.73242-.15918-1.38574-.42578-1.95996-.80176s-1.05957-.87598-1.45508-1.5c-.39648-.62305-.70312-1.41016-.9209-2.36035-.41504.73242-.9248,1.40039-1.52832,2.00391-.60449.60449-1.29688,1.12402-2.0791,1.55957s-1.63867.77148-2.56836,1.00879c-.93066.23828-1.9209.35645-2.96973.35645-2.05859,0-3.84082-.35156-5.34473-1.05371-1.50488-.70215-2.75684-1.69727-3.75684-2.98438-.99902-1.28613-1.74219-2.83594-2.22656-4.64746-.48535-1.81055-.72754-3.81543-.72754-6.0127,0-2.2959.28711-4.37988.86133-6.25098.57324-1.87012,1.41016-3.46875,2.50879-4.79492s2.4502-2.34668,4.05371-3.05859c1.60352-.71289,3.44434-1.06934,5.52246-1.06934,1.20801,0,2.34082.16797,3.40039.50488,1.05859.33691,2.00391.82715,2.83594,1.46973.83105.64355,1.53906,1.43555,2.12305,2.37598s1.00488,2.02441,1.26172,3.25098c.25684-1.08789.45508-2.02344.59375-2.80566s.24219-1.43555.3125-1.95996c.06836-.52441.12793-.93066.17773-1.21777.04883-.28613.12305-.47949.22266-.5791.05957-.0791.15332-.14844.28223-.20801.12891-.05859.31152-.11328.54883-.16309.23828-.04883.54004-.08887.90625-.11816.36621-.03027.81641-.04492,1.35059-.04492.71289,0,1.30176.02539,1.76758.07422.46484.0498.82617.11914,1.08301.20801.25781.08887.44043.20801.5498.35645.1084.14844.16309.31152.16309.48926,0,.39648-.0498.95605-.14844,1.67773-.09863.72363-.23242,1.54492-.40039,2.46484-.16895.9209-.37695,1.90527-.62402,2.95508-.24805,1.04883-.51465,2.1084-.80176,3.17676-.28711,1.06934-.59375,2.1084-.91992,3.11816-.32715,1.00977-.65918,1.94043-.99512,2.79102.01953,1.24707.10352,2.25195.25195,3.01367.14844.7627.35156,1.36133.60938,1.79688.25684.43555.54395.72754.86133.87598.31641.14844.63281.22266.9502.22266.35547,0,.67188-.0293.9502-.08887.27637-.05957.52344-.11914.74219-.17871.21777-.05859.41016-.11816.5791-.17773.16797-.05957.32129-.08887.45996-.08887.11914,0,.22266.04004.31152.11816.08887.08008.16406.22852.22266.44629.05957.21777.10449.50977.13379.87598.03027.36621.04492.83594.04492,1.41016ZM127.24072,561.19395c0-1.52344-.14844-2.85059-.44629-3.97852-.29688-1.12891-.70801-2.05859-1.23145-2.79102-.52539-.73242-1.12891-1.27246-1.81152-1.61914-.68359-.3457-1.41113-.51953-2.18262-.51953-1.0293,0-1.90527.24316-2.62793.72754-.72266.48535-1.31738,1.13867-1.78223,1.95996-.46484.82227-.80664,1.7666-1.02441,2.83594s-.32617,2.1875-.32617,3.35547c0,1.20801.08398,2.36035.25195,3.45898.16797,1.09961.46484,2.06934.8916,2.91016.4248.8418.98438,1.50977,1.67773,2.00488.69238.49512,1.58301.74219,2.67188.74219.9502,0,1.79688-.22754,2.53906-.68262s1.36035-1.08398,1.85547-1.88574.87598-1.75195,1.14355-2.85059.40137-2.29102.40137-3.57812v-.08984Z"/>
    <path class="cls-2" d="M165.24023,565.49961h-11.14551v-4.6123h11.14551v4.6123Z"/>
    <path class="cls-2" d="M181.86816,559.48204c-.77832-.10547-1.46484-.1582-2.05859-.1582-2.16504,0-3.58301.73242-4.25586,2.19727v14.01562h-5.72168v-21.41992h5.4043l.1582,2.55371c1.14844-1.96582,2.73828-2.94922,4.77148-2.94922.63281,0,1.22754.08594,1.78125.25781l-.0791,5.50293Z"/>
    <path class="cls-2" d="M197.03223,575.53672c-.26367-.51465-.45508-1.1543-.57422-1.91992-1.38574,1.54395-3.18652,2.31543-5.4043,2.31543-2.09766,0-3.83691-.60645-5.21582-1.82129-1.37988-1.21387-2.06934-2.74414-2.06934-4.5918,0-2.27051.8418-4.0127,2.52441-5.22656s4.11426-1.82812,7.29492-1.84082h2.63281v-1.22754c0-.99023-.25391-1.78223-.76172-2.37598-.50879-.59375-1.31055-.89062-2.40527-.89062-.96387,0-1.71973.23145-2.2666.69336-.54785.46191-.82227,1.09473-.82227,1.90039h-5.7207c0-1.24023.38281-2.38867,1.14844-3.44531.76465-1.05566,1.84766-1.88379,3.24609-2.48438,1.39844-.59961,2.96973-.90039,4.71191-.90039,2.63867,0,4.73438.66309,6.28516,1.98926s2.32617,3.19043,2.32617,5.59277v9.28418c.0127,2.03223.29688,3.57031.85059,4.6123v.33691h-5.78027ZM192.30078,571.55723c.84473,0,1.62402-.1875,2.33594-.56348.71289-.37598,1.24121-.88086,1.58398-1.51465v-3.68164h-2.1377c-2.86426,0-4.38867.98926-4.57324,2.96875l-.01953.33691c0,.71289.25,1.2998.75195,1.76172s1.1875.69238,2.05859.69238Z"/>
    <path class="cls-2" d="M214.35449,567.44004l3.95898-13.32324h6.13672l-8.61133,24.74609-.47461,1.12793c-1.28027,2.79785-3.39258,4.19727-6.33496,4.19727-.83203,0-1.67676-.12598-2.53418-.37695v-4.33496l.87109.01953c1.08203,0,1.89062-.16504,2.4248-.49512.53516-.3291.95312-.87695,1.25684-1.64258l.67383-1.76172-7.50293-21.47949h6.15625l3.97949,13.32324Z"/>
    <path class="cls-2" d="M238.30664,569.61778c0-.69922-.34668-1.25-1.03906-1.65332-.69336-.40234-1.80469-.76172-3.33594-1.0791-5.09473-1.06836-7.6416-3.23242-7.6416-6.49316,0-1.90039.78906-3.48633,2.36621-4.76074,1.57715-1.27344,3.63867-1.91016,6.18652-1.91016,2.71777,0,4.89258.64062,6.52246,1.91992,1.62988,1.28027,2.44531,2.94336,2.44531,4.98926h-5.72168c0-.81836-.26367-1.49512-.79199-2.0293-.52734-.53418-1.35254-.80176-2.47461-.80176-.96289,0-1.70898.21777-2.23633.65332-.52832.43555-.79199.98926-.79199,1.66309,0,.63281.2998,1.14453.90039,1.53418.60059.38867,1.61328.72559,3.03906,1.00977,1.4248.2832,2.62598.60352,3.60254.95996,3.02246,1.1084,4.5332,3.02832,4.5332,5.76074,0,1.95312-.83789,3.5332-2.51367,4.74121-1.67676,1.20703-3.84082,1.81055-6.49316,1.81055-1.79492,0-3.38867-.31934-4.78125-.95996-1.39258-.63965-2.48438-1.51758-3.27637-2.63281-.79102-1.11523-1.1875-2.31934-1.1875-3.6123h5.4248c.05176,1.01562.42871,1.79492,1.12793,2.33594s1.63672.81152,2.81152.81152c1.09473,0,1.92285-.20801,2.48438-.62402.56055-.41504.84082-.95996.84082-1.63281Z"/>
  </g>
  <g>
    <path class="cls-2" d="M778.42969,343.30919h-8.8291v24.0127h-5.93945v-24.0127h-8.70996v-4.81055h23.47852v4.81055Z"/>
    <path class="cls-2" d="M787.02148,348.2379c1.51758-1.82031,3.4248-2.73145,5.7207-2.73145,4.64551,0,7.00098,2.69922,7.06738,8.09668v13.71875h-5.72168v-13.5918c0-1.22949-.26367-2.13965-.79102-2.72754-.52832-.58887-1.40625-.88379-2.63281-.88379-1.67676,0-2.89062.64844-3.64258,1.94434v15.25879h-5.72168v-30.40723h5.72168v11.32324Z"/>
    <path class="cls-2" d="M804.08594,340.35997c0-.8584.28711-1.56445.86035-2.11914.57422-.55371,1.35645-.83105,2.34668-.83105.97559,0,1.75488.27734,2.33594.83105.58008.55469.87012,1.26074.87012,2.11914,0,.87012-.29297,1.58301-.88086,2.1377-.58691.55371-1.3623.83105-2.3252.83105-.96387,0-1.73926-.27734-2.32617-.83105-.58789-.55469-.88086-1.26758-.88086-2.1377ZM810.16309,367.32188h-5.74121v-21.41992h5.74121v21.41992Z"/>
    <path class="cls-2" d="M820.13965,345.90196l.17871,2.47461c1.53027-1.91309,3.58301-2.87012,6.15625-2.87012,2.26953,0,3.95898.66699,5.06836,1.99902,1.1084,1.33398,1.67578,3.32617,1.70215,5.97852v13.83789h-5.72168v-13.73047c0-1.2168-.26367-2.09961-.79102-2.64941-.52832-.54785-1.40625-.82324-2.63281-.82324-1.61035,0-2.81836.68848-3.62305,2.06348v15.13965h-5.72168v-21.41992h5.38477Z"/>
    <path class="cls-2" d="M866.97754,356.81016c0,3.43164-.73242,6.10742-2.19727,8.02734-1.46582,1.91992-3.51074,2.87988-6.1377,2.87988-2.32227,0-4.17676-.89062-5.5625-2.67188l-.25684,2.27637h-5.14746v-30.40723h5.72168v10.9082c1.31934-1.54395,3.05469-2.31641,5.20605-2.31641,2.61328,0,4.66211.95996,6.14648,2.88086,1.48438,1.91992,2.22754,4.62207,2.22754,8.10645v.31641ZM861.25586,356.37364c0-2.1709-.34277-3.75586-1.0293-4.75586-.68652-.99902-1.70898-1.49902-3.06836-1.49902-1.82129,0-3.0752.74805-3.76074,2.24414v8.47852c.69922,1.50977,1.96582,2.26367,3.80078,2.26367,1.84668,0,3.06152-.91309,3.64258-2.74023.27637-.87305.41504-2.2041.41504-3.99121Z"/>
    <path class="cls-2" d="M869.61035,356.41465c0-2.125.40918-4.01953,1.22754-5.68164.81738-1.66309,1.99609-2.9502,3.5332-3.86035,1.53711-.91113,3.32227-1.36621,5.35547-1.36621,2.88965,0,5.24902.88477,7.07715,2.65234,1.82715,1.76953,2.84668,4.1709,3.05762,7.20605l.04004,1.46484c0,3.28613-.91699,5.92285-2.75195,7.90918-1.83398,1.98633-4.2959,2.97852-7.38379,2.97852s-5.55273-.98926-7.39355-2.96875-2.76172-4.67188-2.76172-8.07715v-.25684ZM875.33105,356.81993c0,2.03613.38281,3.59277,1.14844,4.66992s1.86133,1.61523,3.28613,1.61523c1.38574,0,2.46777-.53223,3.24707-1.5957.77832-1.06445,1.16797-2.76562,1.16797-5.10547,0-1.99609-.38965-3.54199-1.16797-4.63965-.7793-1.09668-1.875-1.64551-3.28613-1.64551-1.39941,0-2.48145.5459-3.24707,1.63574-.76562,1.09082-1.14844,2.7793-1.14844,5.06543Z"/>
    <path class="cls-2" d="M905.83691,367.32188c-.26367-.51465-.45508-1.1543-.57422-1.91992-1.38574,1.54395-3.18652,2.31543-5.4043,2.31543-2.09766,0-3.83691-.60645-5.21582-1.82129-1.37988-1.21387-2.06934-2.74414-2.06934-4.5918,0-2.27051.8418-4.0127,2.52441-5.22656s4.11426-1.82812,7.29492-1.84082h2.63281v-1.22754c0-.99023-.25391-1.78223-.76172-2.37598-.50879-.59375-1.31055-.89062-2.40527-.89062-.96387,0-1.71973.23145-2.2666.69336-.54785.46191-.82227,1.09473-.82227,1.90039h-5.7207c0-1.24023.38281-2.38867,1.14844-3.44531.76465-1.05566,1.84766-1.88379,3.24609-2.48438,1.39844-.59961,2.96973-.90039,4.71191-.90039,2.63867,0,4.73438.66309,6.28516,1.98926s2.32617,3.19043,2.32617,5.59277v9.28418c.0127,2.03223.29688,3.57031.85059,4.6123v.33691h-5.78027ZM901.10547,363.34239c.84473,0,1.62402-.1875,2.33594-.56348.71289-.37598,1.24121-.88086,1.58398-1.51465v-3.68164h-2.1377c-2.86426,0-4.38867.98926-4.57324,2.96875l-.01953.33691c0,.71289.25,1.2998.75195,1.76172s1.1875.69238,2.05859.69238Z"/>
    <path class="cls-2" d="M927.19727,351.26719c-.77832-.10547-1.46484-.1582-2.05859-.1582-2.16504,0-3.58301.73242-4.25586,2.19727v14.01562h-5.72168v-21.41992h5.4043l.1582,2.55371c1.14844-1.96582,2.73828-2.94922,4.77148-2.94922.63281,0,1.22754.08594,1.78125.25781l-.0791,5.50293Z"/>
    <path class="cls-2" d="M929.05859,356.45372c0-3.33887.74902-5.99805,2.24707-7.97754,1.49707-1.97949,3.5459-2.96973,6.14648-2.96973,2.08496,0,3.80762.7793,5.16699,2.33594v-10.92773h5.74023v30.40723h-5.16602l-.27734-2.27637c-1.42578,1.78125-3.25977,2.67188-5.50391,2.67188-2.52051,0-4.54297-.99219-6.06738-2.97852s-2.28613-4.74805-2.28613-8.28516ZM934.7793,356.86094c0,2.01465.34961,3.55957,1.0498,4.63379.69922,1.07324,1.71484,1.61035,3.04785,1.61035,1.76855,0,3.01562-.74902,3.74219-2.24707v-8.49219c-.71289-1.49805-1.94727-2.24707-3.70215-2.24707-2.75879,0-4.1377,2.24805-4.1377,6.74219Z"/>
    <path class="cls-2" d="M974.49023,361.40294c0-.69922-.34668-1.25-1.03906-1.65332-.69336-.40234-1.80469-.76172-3.33594-1.0791-5.09473-1.06836-7.6416-3.23242-7.6416-6.49316,0-1.90039.78906-3.48633,2.36621-4.76074,1.57715-1.27344,3.63867-1.91016,6.18652-1.91016,2.71777,0,4.89258.64062,6.52246,1.91992,1.62988,1.28027,2.44531,2.94336,2.44531,4.98926h-5.72168c0-.81836-.26367-1.49512-.79199-2.0293-.52734-.53418-1.35254-.80176-2.47461-.80176-.96289,0-1.70898.21777-2.23633.65332-.52832.43555-.79199.98926-.79199,1.66309,0,.63281.2998,1.14453.90039,1.53418.60059.38867,1.61328.72559,3.03906,1.00977,1.4248.2832,2.62598.60352,3.60254.95996,3.02246,1.1084,4.5332,3.02832,4.5332,5.76074,0,1.95312-.83789,3.5332-2.51367,4.74121-1.67676,1.20703-3.84082,1.81055-6.49316,1.81055-1.79492,0-3.38867-.31934-4.78125-.95996-1.39258-.63965-2.48438-1.51758-3.27637-2.63281-.79102-1.11523-1.1875-2.31934-1.1875-3.6123h5.4248c.05176,1.01562.42871,1.79492,1.12793,2.33594s1.63672.81152,2.81152.81152c1.09473,0,1.92285-.20801,2.48438-.62402.56055-.41504.84082-.95996.84082-1.63281Z"/>
    <path class="cls-2" d="M996.56348,365.14415c-1.41211,1.71582-3.36523,2.57324-5.85938,2.57324-2.29688,0-4.04883-.65918-5.25586-1.97949-1.20801-1.31934-1.8252-3.25293-1.85156-5.7998v-14.03613h5.72168v13.85449c0,2.23242,1.01562,3.34863,3.04785,3.34863,1.94043,0,3.27344-.67383,3.99902-2.02148v-15.18164h5.74121v21.41992h-5.38477l-.1582-2.17773Z"/>
    <path class="cls-2" d="M1015.33008,363.10508c1.05566,0,1.91406-.29004,2.57324-.87109.66016-.58008,1.00293-1.35254,1.03027-2.31543h5.36426c-.01367,1.45117-.40918,2.78125-1.1875,3.98828-.7793,1.20801-1.84473,2.14453-3.19727,2.81152-1.35254.66602-2.84766.99902-4.4834.99902-3.0625,0-5.47754-.97266-7.24609-2.91992-1.76855-1.94629-2.65234-4.63477-2.65234-8.06641v-.37598c0-3.2998.87695-5.93262,2.63281-7.89941,1.75488-1.96582,4.16406-2.94922,7.22559-2.94922,2.67871,0,4.82715.76172,6.44336,2.28613,1.61719,1.52441,2.43848,3.55371,2.46484,6.08789h-5.36426c-.02734-1.11426-.37012-2.02051-1.03027-2.7168-.65918-.69629-1.53027-1.04492-2.6123-1.04492-1.33301,0-2.33984.48633-3.01953,1.45703-.67969.97168-1.01953,2.54785-1.01953,4.72852v.59473c0,2.20801.33691,3.79395,1.00977,4.75879s1.69629,1.44727,3.06836,1.44727Z"/>
    <path class="cls-2" d="M1033.14648,348.2379c1.51758-1.82031,3.4248-2.73145,5.7207-2.73145,4.64551,0,7.00098,2.69922,7.06738,8.09668v13.71875h-5.72168v-13.5918c0-1.22949-.26367-2.13965-.79102-2.72754-.52832-.58887-1.40625-.88379-2.63281-.88379-1.67676,0-2.89062.64844-3.64258,1.94434v15.25879h-5.72168v-30.40723h5.72168v11.32324Z"/>
    <path class="cls-2" d="M793.24707,407.86485c-.26367-.51465-.45508-1.1543-.57422-1.91992-1.38574,1.54395-3.18652,2.31543-5.4043,2.31543-2.09766,0-3.83691-.60645-5.21582-1.82129-1.37988-1.21387-2.06934-2.74414-2.06934-4.5918,0-2.27051.8418-4.0127,2.52441-5.22656s4.11426-1.82812,7.29492-1.84082h2.63281v-1.22754c0-.99023-.25391-1.78223-.76172-2.37598-.50879-.59375-1.31055-.89062-2.40527-.89062-.96387,0-1.71973.23145-2.2666.69336-.54785.46191-.82227,1.09473-.82227,1.90039h-5.7207c0-1.24023.38281-2.38867,1.14844-3.44531.76465-1.05566,1.84766-1.88379,3.24609-2.48438,1.39844-.59961,2.96973-.90039,4.71191-.90039,2.63867,0,4.73438.66309,6.28516,1.98926s2.32617,3.19043,2.32617,5.59277v9.28418c.0127,2.03223.29688,3.57031.85059,4.6123v.33691h-5.78027ZM788.51562,403.88536c.84473,0,1.62402-.1875,2.33594-.56348.71289-.37598,1.24121-.88086,1.58398-1.51465v-3.68164h-2.1377c-2.86426,0-4.38867.98926-4.57324,2.96875l-.01953.33691c0,.71289.25,1.2998.75195,1.76172s1.1875.69238,2.05859.69238Z"/>
    <path class="cls-2" d="M814.17188,401.9459c0-.69922-.34668-1.25-1.03906-1.65332-.69336-.40234-1.80469-.76172-3.33594-1.0791-5.09473-1.06836-7.6416-3.23242-7.6416-6.49316,0-1.90039.78906-3.48633,2.36621-4.76074,1.57715-1.27344,3.63867-1.91016,6.18652-1.91016,2.71777,0,4.89258.64062,6.52246,1.91992,1.62988,1.28027,2.44531,2.94336,2.44531,4.98926h-5.72168c0-.81836-.26367-1.49512-.79199-2.0293-.52734-.53418-1.35254-.80176-2.47461-.80176-.96289,0-1.70898.21777-2.23633.65332-.52832.43555-.79199.98926-.79199,1.66309,0,.63281.2998,1.14453.90039,1.53418.60059.38867,1.61328.72559,3.03906,1.00977,1.4248.2832,2.62598.60352,3.60254.95996,3.02246,1.1084,4.5332,3.02832,4.5332,5.76074,0,1.95312-.83789,3.5332-2.51367,4.74121-1.67676,1.20703-3.84082,1.81055-6.49316,1.81055-1.79492,0-3.38867-.31934-4.78125-.95996-1.39258-.63965-2.48438-1.51758-3.27637-2.63281-.79102-1.11523-1.1875-2.31934-1.1875-3.6123h5.4248c.05176,1.01562.42871,1.79492,1.12793,2.33594s1.63672.81152,2.81152.81152c1.09473,0,1.92285-.20801,2.48438-.62402.56055-.41504.84082-.95996.84082-1.63281Z"/>
    <path class="cls-2" d="M845.9248,407.86485c-.26367-.51465-.45508-1.1543-.57422-1.91992-1.38574,1.54395-3.18652,2.31543-5.4043,2.31543-2.09766,0-3.83691-.60645-5.21582-1.82129-1.37988-1.21387-2.06934-2.74414-2.06934-4.5918,0-2.27051.8418-4.0127,2.52441-5.22656s4.11426-1.82812,7.29492-1.84082h2.63281v-1.22754c0-.99023-.25391-1.78223-.76172-2.37598-.50879-.59375-1.31055-.89062-2.40527-.89062-.96387,0-1.71973.23145-2.2666.69336-.54785.46191-.82227,1.09473-.82227,1.90039h-5.7207c0-1.24023.38281-2.38867,1.14844-3.44531.76465-1.05566,1.84766-1.88379,3.24609-2.48438,1.39844-.59961,2.96973-.90039,4.71191-.90039,2.63867,0,4.73438.66309,6.28516,1.98926s2.32617,3.19043,2.32617,5.59277v9.28418c.0127,2.03223.29688,3.57031.85059,4.6123v.33691h-5.78027ZM841.19336,403.88536c.84473,0,1.62402-.1875,2.33594-.56348.71289-.37598,1.24121-.88086,1.58398-1.51465v-3.68164h-2.1377c-2.86426,0-4.38867.98926-4.57324,2.96875l-.01953.33691c0,.71289.25,1.2998.75195,1.76172s1.1875.69238,2.05859.69238Z"/>
    <path class="cls-2" d="M861.28711,407.86485h-5.74121v-30.40723h5.74121v30.40723Z"/>
    <path class="cls-2" d="M878.82617,405.68711c-1.41211,1.71582-3.36523,2.57324-5.85938,2.57324-2.29688,0-4.04883-.65918-5.25586-1.97949-1.20801-1.31934-1.8252-3.25293-1.85156-5.7998v-14.03613h5.72168v13.85449c0,2.23242,1.01562,3.34863,3.04785,3.34863,1.94043,0,3.27344-.67383,3.99902-2.02148v-15.18164h5.74121v21.41992h-5.38477l-.1582-2.17773Z"/>
    <path class="cls-2" d="M894.0498,386.44493l.17773,2.39551c1.51758-1.86035,3.57031-2.79102,6.15625-2.79102,2.75879,0,4.65234,1.08887,5.68164,3.2666,1.50488-2.17773,3.64941-3.2666,6.43359-3.2666,2.32324,0,4.05176.67676,5.1875,2.0293,1.13477,1.35254,1.70215,3.38867,1.70215,6.10742v13.67871h-5.74121v-13.69043c0-1.21777-.2373-2.10645-.71289-2.66895-.47461-.5625-1.3125-.84375-2.51367-.84375-1.71582,0-2.90332.82031-3.56348,2.46094l.01953,14.74219h-5.7207v-13.6709c0-1.24414-.24414-2.14355-.73242-2.69824-.48828-.55566-1.32031-.83398-2.49414-.83398-1.62305,0-2.79785.6748-3.52344,2.02441v15.17871h-5.72168v-21.41992h5.36523Z"/>
    <path class="cls-2" d="M923.74414,380.90294c0-.8584.28711-1.56445.86035-2.11914.57422-.55371,1.35645-.83105,2.34668-.83105.97559,0,1.75488.27734,2.33594.83105.58008.55469.87012,1.26074.87012,2.11914,0,.87012-.29297,1.58301-.88086,2.1377-.58691.55371-1.3623.83105-2.3252.83105-.96387,0-1.73926-.27734-2.32617-.83105-.58789-.55469-.88086-1.26758-.88086-2.1377ZM929.82129,407.86485h-5.74121v-21.41992h5.74121v21.41992Z"/>
    <path class="cls-2" d="M939.79785,386.44493l.17871,2.47461c1.53027-1.91309,3.58301-2.87012,6.15625-2.87012,2.26953,0,3.95898.66699,5.06836,1.99902,1.1084,1.33398,1.67578,3.32617,1.70215,5.97852v13.83789h-5.72168v-13.73047c0-1.2168-.26367-2.09961-.79102-2.64941-.52832-.54785-1.40625-.82324-2.63281-.82324-1.61035,0-2.81836.68848-3.62305,2.06348v15.13965h-5.72168v-21.41992h5.38477Z"/>
    <path class="cls-2" d="M957.19922,380.90294c0-.8584.28711-1.56445.86035-2.11914.57422-.55371,1.35645-.83105,2.34668-.83105.97559,0,1.75488.27734,2.33594.83105.58008.55469.87012,1.26074.87012,2.11914,0,.87012-.29297,1.58301-.88086,2.1377-.58691.55371-1.3623.83105-2.3252.83105-.96387,0-1.73926-.27734-2.32617-.83105-.58789-.55469-.88086-1.26758-.88086-2.1377ZM963.27637,407.86485h-5.74121v-21.41992h5.74121v21.41992Z"/>
    <path class="cls-2" d="M980.81641,405.68711c-1.41211,1.71582-3.36523,2.57324-5.85938,2.57324-2.29688,0-4.04883-.65918-5.25586-1.97949-1.20801-1.31934-1.8252-3.25293-1.85156-5.7998v-14.03613h5.72168v13.85449c0,2.23242,1.01562,3.34863,3.04785,3.34863,1.94043,0,3.27344-.67383,3.99902-2.02148v-15.18164h5.74121v21.41992h-5.38477l-.1582-2.17773Z"/>
    <path class="cls-2" d="M996.04004,386.44493l.17773,2.39551c1.51758-1.86035,3.57031-2.79102,6.15625-2.79102,2.75879,0,4.65234,1.08887,5.68164,3.2666,1.50488-2.17773,3.64941-3.2666,6.43359-3.2666,2.32324,0,4.05176.67676,5.1875,2.0293,1.13477,1.35254,1.70215,3.38867,1.70215,6.10742v13.67871h-5.74121v-13.69043c0-1.21777-.2373-2.10645-.71289-2.66895-.47461-.5625-1.3125-.84375-2.51367-.84375-1.71582,0-2.90332.82031-3.56348,2.46094l.01953,14.74219h-5.7207v-13.6709c0-1.24414-.24414-2.14355-.73242-2.69824-.48828-.55566-1.32031-.83398-2.49414-.83398-1.62305,0-2.79785.6748-3.52344,2.02441v15.17871h-5.72168v-21.41992h5.36523Z"/>
  </g>
  <g>
    <path class="cls-2" d="M1206.88867,343.30919h-8.8291v24.0127h-5.93945v-24.0127h-8.70996v-4.81055h23.47852v4.81055Z"/>
    <path class="cls-2" d="M1215.48047,348.2379c1.51758-1.82031,3.4248-2.73145,5.7207-2.73145,4.64551,0,7.00098,2.69922,7.06738,8.09668v13.71875h-5.72168v-13.5918c0-1.22949-.26367-2.13965-.79102-2.72754-.52832-.58887-1.40625-.88379-2.63281-.88379-1.67676,0-2.89062.64844-3.64258,1.94434v15.25879h-5.72168v-30.40723h5.72168v11.32324Z"/>
    <path class="cls-2" d="M1232.54492,340.35997c0-.8584.28711-1.56445.86035-2.11914.57422-.55371,1.35645-.83105,2.34668-.83105.97559,0,1.75488.27734,2.33594.83105.58008.55469.87012,1.26074.87012,2.11914,0,.87012-.29297,1.58301-.88086,2.1377-.58691.55371-1.3623.83105-2.3252.83105-.96387,0-1.73926-.27734-2.32617-.83105-.58789-.55469-.88086-1.26758-.88086-2.1377ZM1238.62207,367.32188h-5.74121v-21.41992h5.74121v21.41992Z"/>
    <path class="cls-2" d="M1248.59863,345.90196l.17871,2.47461c1.53027-1.91309,3.58301-2.87012,6.15625-2.87012,2.26953,0,3.95898.66699,5.06836,1.99902,1.1084,1.33398,1.67578,3.32617,1.70215,5.97852v13.83789h-5.72168v-13.73047c0-1.2168-.26367-2.09961-.79102-2.64941-.52832-.54785-1.40625-.82324-2.63281-.82324-1.61035,0-2.81836.68848-3.62305,2.06348v15.13965h-5.72168v-21.41992h5.38477Z"/>
    <path class="cls-2" d="M1295.43652,356.81016c0,3.43164-.73242,6.10742-2.19727,8.02734-1.46582,1.91992-3.51074,2.87988-6.1377,2.87988-2.32227,0-4.17676-.89062-5.5625-2.67188l-.25684,2.27637h-5.14746v-30.40723h5.72168v10.9082c1.31934-1.54395,3.05469-2.31641,5.20605-2.31641,2.61328,0,4.66211.95996,6.14648,2.88086,1.48438,1.91992,2.22754,4.62207,2.22754,8.10645v.31641ZM1289.71484,356.37364c0-2.1709-.34277-3.75586-1.0293-4.75586-.68652-.99902-1.70898-1.49902-3.06836-1.49902-1.82129,0-3.0752.74805-3.76074,2.24414v8.47852c.69922,1.50977,1.96582,2.26367,3.80078,2.26367,1.84668,0,3.06152-.91309,3.64258-2.74023.27637-.87305.41504-2.2041.41504-3.99121Z"/>
    <path class="cls-2" d="M1298.06934,356.41465c0-2.125.40918-4.01953,1.22754-5.68164.81738-1.66309,1.99609-2.9502,3.5332-3.86035,1.53711-.91113,3.32227-1.36621,5.35547-1.36621,2.88965,0,5.24902.88477,7.07715,2.65234,1.82715,1.76953,2.84668,4.1709,3.05762,7.20605l.04004,1.46484c0,3.28613-.91699,5.92285-2.75195,7.90918-1.83398,1.98633-4.2959,2.97852-7.38379,2.97852s-5.55273-.98926-7.39355-2.96875-2.76172-4.67188-2.76172-8.07715v-.25684ZM1303.79004,356.81993c0,2.03613.38281,3.59277,1.14844,4.66992s1.86133,1.61523,3.28613,1.61523c1.38574,0,2.46777-.53223,3.24707-1.5957.77832-1.06445,1.16797-2.76562,1.16797-5.10547,0-1.99609-.38965-3.54199-1.16797-4.63965-.7793-1.09668-1.875-1.64551-3.28613-1.64551-1.39941,0-2.48145.5459-3.24707,1.63574-.76562,1.09082-1.14844,2.7793-1.14844,5.06543Z"/>
    <path class="cls-2" d="M1334.2959,367.32188c-.26367-.51465-.45508-1.1543-.57422-1.91992-1.38574,1.54395-3.18652,2.31543-5.4043,2.31543-2.09766,0-3.83691-.60645-5.21582-1.82129-1.37988-1.21387-2.06934-2.74414-2.06934-4.5918,0-2.27051.8418-4.0127,2.52441-5.22656s4.11426-1.82812,7.29492-1.84082h2.63281v-1.22754c0-.99023-.25391-1.78223-.76172-2.37598-.50879-.59375-1.31055-.89062-2.40527-.89062-.96387,0-1.71973.23145-2.2666.69336-.54785.46191-.82227,1.09473-.82227,1.90039h-5.7207c0-1.24023.38281-2.38867,1.14844-3.44531.76465-1.05566,1.84766-1.88379,3.24609-2.48438,1.39844-.59961,2.96973-.90039,4.71191-.90039,2.63867,0,4.73438.66309,6.28516,1.98926s2.32617,3.19043,2.32617,5.59277v9.28418c.0127,2.03223.29688,3.57031.85059,4.6123v.33691h-5.78027ZM1329.56445,363.34239c.84473,0,1.62402-.1875,2.33594-.56348.71289-.37598,1.24121-.88086,1.58398-1.51465v-3.68164h-2.1377c-2.86426,0-4.38867.98926-4.57324,2.96875l-.01953.33691c0,.71289.25,1.2998.75195,1.76172s1.1875.69238,2.05859.69238Z"/>
    <path class="cls-2" d="M1355.65625,351.26719c-.77832-.10547-1.46484-.1582-2.05859-.1582-2.16504,0-3.58301.73242-4.25586,2.19727v14.01562h-5.72168v-21.41992h5.4043l.1582,2.55371c1.14844-1.96582,2.73828-2.94922,4.77148-2.94922.63281,0,1.22754.08594,1.78125.25781l-.0791,5.50293Z"/>
    <path class="cls-2" d="M1357.51758,356.45372c0-3.33887.74902-5.99805,2.24707-7.97754,1.49707-1.97949,3.5459-2.96973,6.14648-2.96973,2.08496,0,3.80762.7793,5.16699,2.33594v-10.92773h5.74023v30.40723h-5.16602l-.27734-2.27637c-1.42578,1.78125-3.25977,2.67188-5.50391,2.67188-2.52051,0-4.54297-.99219-6.06738-2.97852s-2.28613-4.74805-2.28613-8.28516ZM1363.23828,356.86094c0,2.01465.34961,3.55957,1.0498,4.63379.69922,1.07324,1.71484,1.61035,3.04785,1.61035,1.76855,0,3.01562-.74902,3.74219-2.24707v-8.49219c-.71289-1.49805-1.94727-2.24707-3.70215-2.24707-2.75879,0-4.1377,2.24805-4.1377,6.74219Z"/>
    <path class="cls-2" d="M1180.94531,401.9459c0-.69922-.34668-1.25-1.03906-1.65332-.69336-.40234-1.80469-.76172-3.33594-1.0791-5.09473-1.06836-7.6416-3.23242-7.6416-6.49316,0-1.90039.78906-3.48633,2.36621-4.76074,1.57715-1.27344,3.63867-1.91016,6.18652-1.91016,2.71777,0,4.89258.64062,6.52246,1.91992,1.62988,1.28027,2.44531,2.94336,2.44531,4.98926h-5.72168c0-.81836-.26367-1.49512-.79199-2.0293-.52734-.53418-1.35254-.80176-2.47461-.80176-.96289,0-1.70898.21777-2.23633.65332-.52832.43555-.79199.98926-.79199,1.66309,0,.63281.2998,1.14453.90039,1.53418.60059.38867,1.61328.72559,3.03906,1.00977,1.4248.2832,2.62598.60352,3.60254.95996,3.02246,1.1084,4.5332,3.02832,4.5332,5.76074,0,1.95312-.83789,3.5332-2.51367,4.74121-1.67676,1.20703-3.84082,1.81055-6.49316,1.81055-1.79492,0-3.38867-.31934-4.78125-.95996-1.39258-.63965-2.48438-1.51758-3.27637-2.63281-.79102-1.11523-1.1875-2.31934-1.1875-3.6123h5.4248c.05176,1.01562.42871,1.79492,1.12793,2.33594s1.63672.81152,2.81152.81152c1.09473,0,1.92285-.20801,2.48438-.62402.56055-.41504.84082-.95996.84082-1.63281Z"/>
    <path class="cls-2" d="M1203.01855,405.68711c-1.41211,1.71582-3.36523,2.57324-5.85938,2.57324-2.29688,0-4.04883-.65918-5.25586-1.97949-1.20801-1.31934-1.8252-3.25293-1.85156-5.7998v-14.03613h5.72168v13.85449c0,2.23242,1.01562,3.34863,3.04785,3.34863,1.94043,0,3.27344-.67383,3.99902-2.02148v-15.18164h5.74121v21.41992h-5.38477l-.1582-2.17773Z"/>
    <path class="cls-2" d="M1221.78516,403.64805c1.05566,0,1.91406-.29004,2.57324-.87109.66016-.58008,1.00293-1.35254,1.03027-2.31543h5.36426c-.01367,1.45117-.40918,2.78125-1.1875,3.98828-.7793,1.20801-1.84473,2.14453-3.19727,2.81152-1.35254.66602-2.84766.99902-4.4834.99902-3.0625,0-5.47754-.97266-7.24609-2.91992-1.76855-1.94629-2.65234-4.63477-2.65234-8.06641v-.37598c0-3.2998.87695-5.93262,2.63281-7.89941,1.75488-1.96582,4.16406-2.94922,7.22559-2.94922,2.67871,0,4.82715.76172,6.44336,2.28613,1.61719,1.52441,2.43848,3.55371,2.46484,6.08789h-5.36426c-.02734-1.11426-.37012-2.02051-1.03027-2.7168-.65918-.69629-1.53027-1.04492-2.6123-1.04492-1.33301,0-2.33984.48633-3.01953,1.45703-.67969.97168-1.01953,2.54785-1.01953,4.72852v.59473c0,2.20801.33691,3.79395,1.00977,4.75879s1.69629,1.44727,3.06836,1.44727Z"/>
    <path class="cls-2" d="M1239.60156,388.78086c1.51758-1.82031,3.4248-2.73145,5.7207-2.73145,4.64551,0,7.00098,2.69922,7.06738,8.09668v13.71875h-5.72168v-13.5918c0-1.22949-.26367-2.13965-.79102-2.72754-.52832-.58887-1.40625-.88379-2.63281-.88379-1.67676,0-2.89062.64844-3.64258,1.94434v15.25879h-5.72168v-30.40723h5.72168v11.32324Z"/>
    <path class="cls-2" d="M1279.21387,407.86485c-.26367-.51465-.45508-1.1543-.57422-1.91992-1.38574,1.54395-3.18652,2.31543-5.4043,2.31543-2.09766,0-3.83691-.60645-5.21582-1.82129-1.37988-1.21387-2.06934-2.74414-2.06934-4.5918,0-2.27051.8418-4.0127,2.52441-5.22656s4.11426-1.82812,7.29492-1.84082h2.63281v-1.22754c0-.99023-.25391-1.78223-.76172-2.37598-.50879-.59375-1.31055-.89062-2.40527-.89062-.96387,0-1.71973.23145-2.2666.69336-.54785.46191-.82227,1.09473-.82227,1.90039h-5.7207c0-1.24023.38281-2.38867,1.14844-3.44531.76465-1.05566,1.84766-1.88379,3.24609-2.48438,1.39844-.59961,2.96973-.90039,4.71191-.90039,2.63867,0,4.73438.66309,6.28516,1.98926s2.32617,3.19043,2.32617,5.59277v9.28418c.0127,2.03223.29688,3.57031.85059,4.6123v.33691h-5.78027ZM1274.48242,403.88536c.84473,0,1.62402-.1875,2.33594-.56348.71289-.37598,1.24121-.88086,1.58398-1.51465v-3.68164h-2.1377c-2.86426,0-4.38867.98926-4.57324,2.96875l-.01953.33691c0,.71289.25,1.2998.75195,1.76172s1.1875.69238,2.05859.69238Z"/>
    <path class="cls-2" d="M1300.1377,401.9459c0-.69922-.34668-1.25-1.03906-1.65332-.69336-.40234-1.80469-.76172-3.33594-1.0791-5.09473-1.06836-7.6416-3.23242-7.6416-6.49316,0-1.90039.78906-3.48633,2.36621-4.76074,1.57715-1.27344,3.63867-1.91016,6.18652-1.91016,2.71777,0,4.89258.64062,6.52246,1.91992,1.62988,1.28027,2.44531,2.94336,2.44531,4.98926h-5.72168c0-.81836-.26367-1.49512-.79199-2.0293-.52734-.53418-1.35254-.80176-2.47461-.80176-.96289,0-1.70898.21777-2.23633.65332-.52832.43555-.79199.98926-.79199,1.66309,0,.63281.2998,1.14453.90039,1.53418.60059.38867,1.61328.72559,3.03906,1.00977,1.4248.2832,2.62598.60352,3.60254.95996,3.02246,1.1084,4.5332,3.02832,4.5332,5.76074,0,1.95312-.83789,3.5332-2.51367,4.74121-1.67676,1.20703-3.84082,1.81055-6.49316,1.81055-1.79492,0-3.38867-.31934-4.78125-.95996-1.39258-.63965-2.48438-1.51758-3.27637-2.63281-.79102-1.11523-1.1875-2.31934-1.1875-3.6123h5.4248c.05176,1.01562.42871,1.79492,1.12793,2.33594s1.63672.81152,2.81152.81152c1.09473,0,1.92285-.20801,2.48438-.62402.56055-.41504.84082-.95996.84082-1.63281Z"/>
    <path class="cls-2" d="M1325.5166,407.86485h-5.74121v-30.40723h5.74121v30.40723Z"/>
    <path class="cls-2" d="M1340.08691,408.26036c-3.14062,0-5.69824-.96289-7.6709-2.88965s-2.95898-4.49414-2.95898-7.70117v-.55371c0-2.15137.41504-4.0752,1.24707-5.77051.83105-1.69629,2.00879-3.00293,3.5332-3.91992s3.2627-1.37598,5.2168-1.37598c2.92969,0,5.23535.92383,6.91797,2.77148s2.52441,4.46777,2.52441,7.85938v2.33594h-13.63965c.18457,1.39844.74219,2.52051,1.67285,3.36523s2.1084,1.2666,3.5332,1.2666c2.2041,0,3.92676-.79785,5.16699-2.39551l2.81152,3.14844c-.8584,1.21387-2.01953,2.16113-3.48438,2.83984-1.46484.67969-3.08789,1.01953-4.87012,1.01953ZM1339.43359,390.66172c-1.13477,0-2.05566.38477-2.76172,1.15332-.70605.76953-1.15723,1.86914-1.35547,3.30078h7.95801v-.45703c-.02637-1.27246-.37012-2.25684-1.0293-2.95312-.66016-.69531-1.59766-1.04395-2.81152-1.04395Z"/>
    <path class="cls-2" d="M1364.55469,407.86485c-.26367-.51465-.45508-1.1543-.57422-1.91992-1.38574,1.54395-3.18652,2.31543-5.4043,2.31543-2.09766,0-3.83691-.60645-5.21582-1.82129-1.37988-1.21387-2.06934-2.74414-2.06934-4.5918,0-2.27051.8418-4.0127,2.52441-5.22656s4.11426-1.82812,7.29492-1.84082h2.63281v-1.22754c0-.99023-.25391-1.78223-.76172-2.37598-.50879-.59375-1.31055-.89062-2.40527-.89062-.96387,0-1.71973.23145-2.2666.69336-.54785.46191-.82227,1.09473-.82227,1.90039h-5.7207c0-1.24023.38281-2.38867,1.14844-3.44531.76465-1.05566,1.84766-1.88379,3.24609-2.48438,1.39844-.59961,2.96973-.90039,4.71191-.90039,2.63867,0,4.73438.66309,6.28516,1.98926s2.32617,3.19043,2.32617,5.59277v9.28418c.0127,2.03223.29688,3.57031.85059,4.6123v.33691h-5.78027ZM1359.82324,403.88536c.84473,0,1.62402-.1875,2.33594-.56348.71289-.37598,1.24121-.88086,1.58398-1.51465v-3.68164h-2.1377c-2.86426,0-4.38867.98926-4.57324,2.96875l-.01953.33691c0,.71289.25,1.2998.75195,1.76172s1.1875.69238,2.05859.69238Z"/>
    <path class="cls-2" d="M1372.98828,396.99669c0-3.33887.74902-5.99805,2.24707-7.97754,1.49707-1.97949,3.5459-2.96973,6.14648-2.96973,2.08496,0,3.80762.7793,5.16699,2.33594v-10.92773h5.74023v30.40723h-5.16602l-.27734-2.27637c-1.42578,1.78125-3.25977,2.67188-5.50391,2.67188-2.52051,0-4.54297-.99219-6.06738-2.97852s-2.28613-4.74805-2.28613-8.28516ZM1378.70898,397.40391c0,2.01465.34961,3.55957,1.0498,4.63379.69922,1.07324,1.71484,1.61035,3.04785,1.61035,1.76855,0,3.01562-.74902,3.74219-2.24707v-8.49219c-.71289-1.49805-1.94727-2.24707-3.70215-2.24707-2.75879,0-4.1377,2.24805-4.1377,6.74219Z"/>
  </g>
  <g>
    <polygon class="cls-15" points="638.99862 1151.14288 485.27471 1026.13663 485.27471 474.57586 610.35344 533.85524 638.99862 594.7772 638.99862 1151.14288"/>
    <polygon class="cls-19" points="610.35344 533.85524 610.35344 571.00693 638.99862 594.7772 610.35344 533.85524"/>
  </g>
  <g>
    <line class="cls-8" x1="279.3862" y1="564.31656" x2="524.54694" y2="564.31656"/>
    <polygon class="cls-1" points="514.50531 579.03995 569.44464 564.32645 514.50531 549.59317 514.50531 579.03995"/>
  </g>
  <line class="cls-12" x1="279.38619" y1="698.41753" x2="559.0056" y2="698.41753"/>
  <line class="cls-10" x1="279.6781" y1="985.71281" x2="597.51321" y2="985.71281"/>
  <path class="cls-5" d="M277.79912,841.98113s9.80573,15.1837,15.17542,15.20346c5.41108.01974,9.98564-15.24637,15.39486-15.20346,5.33185.03953,9.62751,15.1837,14.95936,15.20346,5.37138.01974,9.80725-15.18049,15.17711-15.20346,5.41091-.02314,9.98547,15.20346,15.39469,15.20346,5.4077,0,9.98395-15.26951,15.39165-15.20346,5.29537.06267,9.44929,15.16377,14.74483,15.20346,5.37138.03953,9.80573-15.20025,15.17542-15.20346,5.36969-.00659,9.80573,15.1837,15.17542,15.20346,5.41091.01974,9.98716-15.22661,15.39638-15.20346,5.36969.01974,9.80404,15.20346,15.17542,15.20346s9.80573-15.20025,15.17711-15.20346c5.36969-.00338,9.80573,15.16377,15.17542,15.20346,5.44892.03632,10.16368-15.28607,15.61092-15.20346,5.29554.07906,9.45098,15.144,14.74483,15.20346,5.40939.05608,9.98716-15.24316,15.39486-15.20346,5.33338.03632,9.62751,15.16377,14.95936,15.20346,5.40922.03632,9.98378-15.22323,15.39486-15.20346,2.68392.00828,5.13539,3.80914,7.58856,7.60832"/>
  <line class="cls-11" x1="1609.36475" y1="474.57586" x2="1609.19671" y2="588.54687"/>
  <line class="cls-9" x1="1751.56225" y1="556.51853" x2="1762.2762" y2="556.51853"/>
</svg>