<?xml version="1.0" encoding="UTF-8"?>
<svg id="Ebene_2" data-name="Ebene 2" xmlns="http://www.w3.org/2000/svg" xmlns:xlink="http://www.w3.org/1999/xlink" viewBox="0 0 1920 1280">
  <defs>
    <style>
      .cls-1 {
        fill: url(#Unbenannter_Verlauf_4);
      }

      .cls-2 {
        fill: url(#Unbenannter_Verlauf_3);
      }

      .cls-3 {
        fill: url(#Unbenannter_Verlauf_6);
      }

      .cls-4 {
        fill: url(#Unbenannter_Verlauf_7);
      }

      .cls-5 {
        fill: url(#Unbenannter_Verlauf_16-12);
      }

      .cls-6 {
        fill: url(#Unbenannter_Verlauf_16-10);
      }

      .cls-7 {
        fill: url(#Unbenannter_Verlauf_16-11);
      }

      .cls-8 {
        fill: url(#Neues_Verlaufsfeld_3-20);
      }

      .cls-9 {
        fill: url(#Neues_Verlaufsfeld_3-23);
      }

      .cls-10 {
        fill: url(#Neues_Verlaufsfeld_3-22);
      }

      .cls-11 {
        fill: url(#Neues_Verlaufsfeld_3-24);
      }

      .cls-12 {
        fill: url(#Neues_Verlaufsfeld_3-21);
      }

      .cls-13 {
        fill: url(#Neues_Verlaufsfeld_3-19);
      }

      .cls-14 {
        fill: url(#Neues_Verlaufsfeld_3-18);
      }

      .cls-15 {
        fill: url(#Neues_Verlaufsfeld_3-17);
      }

      .cls-16 {
        fill: url(#Neues_Verlaufsfeld_3-16);
      }

      .cls-17 {
        fill: url(#Neues_Verlaufsfeld_3-15);
      }

      .cls-18 {
        fill: url(#Neues_Verlaufsfeld_3-14);
      }

      .cls-19 {
        fill: url(#Neues_Verlaufsfeld_3-11);
      }

      .cls-20 {
        fill: url(#Neues_Verlaufsfeld_3-10);
      }

      .cls-21 {
        fill: url(#Neues_Verlaufsfeld_3-13);
      }

      .cls-22 {
        fill: url(#Neues_Verlaufsfeld_3-12);
      }

      .cls-23 {
        fill: url(#Neues_Verlaufsfeld_3-2);
      }

      .cls-24 {
        fill: url(#Neues_Verlaufsfeld_3-7);
      }

      .cls-25 {
        fill: url(#Neues_Verlaufsfeld_3-8);
      }

      .cls-26 {
        fill: url(#Neues_Verlaufsfeld_3-5);
      }

      .cls-27 {
        fill: url(#Neues_Verlaufsfeld_3-6);
      }

      .cls-28 {
        fill: url(#Neues_Verlaufsfeld_3-9);
      }

      .cls-29 {
        fill: url(#Neues_Verlaufsfeld_3-3);
      }

      .cls-30 {
        fill: url(#Neues_Verlaufsfeld_3-4);
      }

      .cls-31 {
        fill: #0e425c;
      }

      .cls-32 {
        fill: #f3f5f7;
      }

      .cls-33 {
        fill: url(#Unbenannter_Verlauf_16-6);
      }

      .cls-34 {
        fill: url(#Unbenannter_Verlauf_16-8);
      }

      .cls-35 {
        fill: url(#Unbenannter_Verlauf_16-7);
      }

      .cls-36 {
        fill: url(#Unbenannter_Verlauf_16-9);
      }

      .cls-37 {
        fill: url(#Unbenannter_Verlauf_16-3);
      }

      .cls-38 {
        fill: url(#Unbenannter_Verlauf_16-5);
      }

      .cls-39 {
        fill: url(#Unbenannter_Verlauf_16-2);
      }

      .cls-40 {
        fill: url(#Unbenannter_Verlauf_16-4);
      }

      .cls-41 {
        fill: url(#Unbenannter_Verlauf_7-2);
      }

      .cls-42 {
        fill: url(#Unbenannter_Verlauf_3-4);
      }

      .cls-43 {
        fill: url(#Unbenannter_Verlauf_3-3);
      }

      .cls-44 {
        fill: url(#Unbenannter_Verlauf_3-2);
      }

      .cls-45 {
        fill: none;
        stroke: #14455c;
        stroke-miterlimit: 10;
        stroke-width: 7.6817px;
      }

      .cls-46 {
        fill: url(#Unbenannter_Verlauf_20);
      }

      .cls-47 {
        fill: url(#Unbenannter_Verlauf_21);
      }

      .cls-48 {
        fill: url(#Unbenannter_Verlauf_22);
      }

      .cls-49 {
        fill: url(#Unbenannter_Verlauf_18);
      }

      .cls-50 {
        fill: url(#Unbenannter_Verlauf_19);
      }

      .cls-51 {
        fill: url(#Unbenannter_Verlauf_16);
      }

      .cls-52 {
        fill: url(#Unbenannter_Verlauf_17);
      }

      .cls-53 {
        fill: url(#Neues_Verlaufsfeld_3);
      }
    </style>
    <radialGradient id="Unbenannter_Verlauf_7" data-name="Unbenannter Verlauf 7" cx="1324.38141" cy="466.81441" fx="1301.75841" fy="449.75718" r="35.6742" gradientUnits="userSpaceOnUse">
      <stop offset=".01161" stop-color="#f3f5f7"/>
      <stop offset=".19744" stop-color="#d0dadf"/>
      <stop offset=".48194" stop-color="#a1b5c0"/>
      <stop offset=".70024" stop-color="#839eac"/>
      <stop offset=".82452" stop-color="#7996a5"/>
    </radialGradient>
    <radialGradient id="Unbenannter_Verlauf_3" data-name="Unbenannter Verlauf 3" cx="940.45476" cy="613.10441" fx="940.45476" fy="613.10441" r="35.67442" gradientUnits="userSpaceOnUse">
      <stop offset="0" stop-color="#f3f5f7"/>
      <stop offset=".18849" stop-color="#d0dadf"/>
      <stop offset=".47704" stop-color="#a1b5c0"/>
      <stop offset=".69847" stop-color="#839eac"/>
      <stop offset=".82452" stop-color="#7996a5"/>
    </radialGradient>
    <radialGradient id="Unbenannter_Verlauf_20" data-name="Unbenannter Verlauf 20" cx="946.37732" cy="632.27898" fx="922.18993" fy="611.98887" r="35.67419" gradientUnits="userSpaceOnUse">
      <stop offset=".03797" stop-color="#e9d2d7"/>
      <stop offset=".12121" stop-color="#dfbdc4"/>
      <stop offset=".42048" stop-color="#bd7684"/>
      <stop offset=".67005" stop-color="#a44256"/>
      <stop offset=".85732" stop-color="#952239"/>
      <stop offset=".96089" stop-color="#90172f"/>
    </radialGradient>
    <radialGradient id="Neues_Verlaufsfeld_3" data-name="Neues Verlaufsfeld 3" cx="1248.01713" cy="816.98088" fx="1230.02801" fy="799.9712" r="35.67431" gradientUnits="userSpaceOnUse">
      <stop offset="0" stop-color="#f3f5f7"/>
      <stop offset=".18849" stop-color="#d0dadf"/>
      <stop offset=".47704" stop-color="#a1b5c0"/>
      <stop offset=".69847" stop-color="#839eac"/>
      <stop offset=".82452" stop-color="#7996a5"/>
    </radialGradient>
    <radialGradient id="Neues_Verlaufsfeld_3-2" data-name="Neues Verlaufsfeld 3" cx="1353.90747" cy="855.0273" fx="1334.75621" fy="837.01106" r="35.67435" xlink:href="#Neues_Verlaufsfeld_3"/>
    <radialGradient id="Neues_Verlaufsfeld_3-3" data-name="Neues Verlaufsfeld 3" cx="1326.91951" cy="810.29242" fx="1308.75532" fy="792.33258" r="35.67431" xlink:href="#Neues_Verlaufsfeld_3"/>
    <radialGradient id="Unbenannter_Verlauf_22" data-name="Unbenannter Verlauf 22" cx="1292.83501" cy="803.30911" fx="1272.38748" fy="780.49877" r="35.67394" gradientUnits="userSpaceOnUse">
      <stop offset=".0053" stop-color="#e9d2d7"/>
      <stop offset=".49049" stop-color="#bc7483"/>
      <stop offset=".96089" stop-color="#90172f"/>
    </radialGradient>
    <radialGradient id="Unbenannter_Verlauf_16" data-name="Unbenannter Verlauf 16" cx="1352.32165" cy="895.31317" fx="1334.60344" fy="874.85577" r="35.6742" gradientUnits="userSpaceOnUse">
      <stop offset=".0053" stop-color="#e9d2d7"/>
      <stop offset=".18" stop-color="#dbb5bd"/>
      <stop offset=".5597" stop-color="#b86b7a"/>
      <stop offset=".96089" stop-color="#90172f"/>
    </radialGradient>
    <radialGradient id="Unbenannter_Verlauf_16-2" data-name="Unbenannter Verlauf 16" cx="1223.67124" cy="859.63906" fx="1203.00946" fy="838.65909" r="35.6745" xlink:href="#Unbenannter_Verlauf_16"/>
    <radialGradient id="Neues_Verlaufsfeld_3-4" data-name="Neues Verlaufsfeld 3" cx="1262.60937" cy="392.93183" fx="1262.60937" fy="392.93183" r="35.67421" xlink:href="#Neues_Verlaufsfeld_3"/>
    <radialGradient id="Unbenannter_Verlauf_16-3" data-name="Unbenannter Verlauf 16" cx="1237.47849" cy="451.58852" fx="1217.82938" fy="433.79074" r="35.67421" xlink:href="#Unbenannter_Verlauf_16"/>
    <radialGradient id="Unbenannter_Verlauf_16-4" data-name="Unbenannter Verlauf 16" cx="818.15616" cy="750.8001" fx="797.57997" fy="730.47557" r="35.67423" xlink:href="#Unbenannter_Verlauf_16"/>
    <radialGradient id="Neues_Verlaufsfeld_3-5" data-name="Neues Verlaufsfeld 3" cx="781.96805" cy="716.61864" fx="763.51158" fy="701.74635" r="35.67442" xlink:href="#Neues_Verlaufsfeld_3"/>
    <radialGradient id="Unbenannter_Verlauf_4" data-name="Unbenannter Verlauf 4" cx="809.90497" cy="707.77465" fx="809.90497" fy="707.77465" r="47.8427" gradientTransform="translate(394.01114 -197.87015) rotate(29.69377) scale(1 .82046)" gradientUnits="userSpaceOnUse">
      <stop offset="0" stop-color="#f3f5f7"/>
      <stop offset=".1738" stop-color="#d0dadf"/>
      <stop offset=".43988" stop-color="#a1b5c0"/>
      <stop offset=".64405" stop-color="#839eac"/>
      <stop offset=".76028" stop-color="#7996a5"/>
    </radialGradient>
    <radialGradient id="Unbenannter_Verlauf_3-2" data-name="Unbenannter Verlauf 3" cx="912.9118" cy="702.00526" fx="888.59905" fy="686.30558" r="35.67441" xlink:href="#Unbenannter_Verlauf_3"/>
    <radialGradient id="Neues_Verlaufsfeld_3-6" data-name="Neues Verlaufsfeld 3" cx="358.12347" cy="671.25147" fx="343.82775" fy="656.55242" r="35.6744" xlink:href="#Neues_Verlaufsfeld_3"/>
    <radialGradient id="Neues_Verlaufsfeld_3-7" data-name="Neues Verlaufsfeld 3" cx="1176.98942" cy="1078.15698" fx="1162.69371" fy="1063.45792" r="35.6744" xlink:href="#Neues_Verlaufsfeld_3"/>
    <radialGradient id="Neues_Verlaufsfeld_3-8" data-name="Neues Verlaufsfeld 3" cx="1561.11669" cy="668.25029" fx="1546.82097" fy="653.55123" r="35.6744" xlink:href="#Neues_Verlaufsfeld_3"/>
    <radialGradient id="Neues_Verlaufsfeld_3-9" data-name="Neues Verlaufsfeld 3" cx="1176.75681" cy="251.86042" fx="1162.46109" fy="237.16136" r="35.6744" xlink:href="#Neues_Verlaufsfeld_3"/>
    <radialGradient id="Neues_Verlaufsfeld_3-10" data-name="Neues Verlaufsfeld 3" cx="819.39837" cy="583.64594" fx="801.6627" fy="569.11951" r="35.67442" xlink:href="#Neues_Verlaufsfeld_3"/>
    <radialGradient id="Neues_Verlaufsfeld_3-11" data-name="Neues Verlaufsfeld 3" cx="903.7215" cy="586.96211" fx="894.25339" fy="577.87569" r="35.6744" xlink:href="#Neues_Verlaufsfeld_3"/>
    <radialGradient id="Neues_Verlaufsfeld_3-12" data-name="Neues Verlaufsfeld 3" cx="1340.90849" cy="389.16273" fx="1323.01623" fy="371.8212" r="35.67423" xlink:href="#Neues_Verlaufsfeld_3"/>
    <radialGradient id="Neues_Verlaufsfeld_3-13" data-name="Neues Verlaufsfeld 3" cx="1362.19232" cy="414.86138" fx="1340.77747" fy="395.83489" r="35.67421" xlink:href="#Neues_Verlaufsfeld_3"/>
    <radialGradient id="Neues_Verlaufsfeld_3-14" data-name="Neues Verlaufsfeld 3" cx="1355.21128" cy="499.53106" fx="1333.22079" fy="482.18339" r="35.67422" xlink:href="#Neues_Verlaufsfeld_3"/>
    <radialGradient id="Neues_Verlaufsfeld_3-15" data-name="Neues Verlaufsfeld 3" cx="1378.18135" cy="469.31964" fx="1360.86812" fy="455.28428" r="35.67422" xlink:href="#Neues_Verlaufsfeld_3"/>
    <radialGradient id="Unbenannter_Verlauf_18" data-name="Unbenannter Verlauf 18" cx="789.68089" cy="618.10365" fx="770.63537" fy="598.16642" r="35.67421" gradientUnits="userSpaceOnUse">
      <stop offset=".0053" stop-color="#e9d2d7"/>
      <stop offset=".01466" stop-color="#e7cfd4"/>
      <stop offset=".35805" stop-color="#c2818e"/>
      <stop offset=".64094" stop-color="#a7475a"/>
      <stop offset=".84941" stop-color="#96243b"/>
      <stop offset=".96089" stop-color="#90172f"/>
    </radialGradient>
    <radialGradient id="Unbenannter_Verlauf_17" data-name="Unbenannter Verlauf 17" cx="863.66321" cy="575.62276" fx="846.98522" fy="561.02353" r="35.67421" gradientUnits="userSpaceOnUse">
      <stop offset=".0053" stop-color="#e9d2d7"/>
      <stop offset=".47987" stop-color="#bb7381"/>
      <stop offset=".96089" stop-color="#90172f"/>
    </radialGradient>
    <radialGradient id="Unbenannter_Verlauf_16-5" data-name="Unbenannter Verlauf 16" cx="1303.21376" cy="385.08597" fx="1283.07687" fy="365.6232" r="35.67421" xlink:href="#Unbenannter_Verlauf_16"/>
    <radialGradient id="Neues_Verlaufsfeld_3-16" data-name="Neues Verlaufsfeld 3" cx="904.25051" cy="750.57983" fx="883.48575" fy="735.48281" r="36.56803" xlink:href="#Neues_Verlaufsfeld_3"/>
    <radialGradient id="Neues_Verlaufsfeld_3-17" data-name="Neues Verlaufsfeld 3" cx="948.58592" cy="724.48706" fx="926.27106" fy="711.03756" r="35.67445" xlink:href="#Neues_Verlaufsfeld_3"/>
    <radialGradient id="Neues_Verlaufsfeld_3-18" data-name="Neues Verlaufsfeld 3" cx="951.49283" cy="676.40809" fx="932.23243" fy="664.28617" r="35.6744" xlink:href="#Neues_Verlaufsfeld_3"/>
    <radialGradient id="Unbenannter_Verlauf_21" data-name="Unbenannter Verlauf 21" cx="904.78559" cy="670.8037" fx="881.28455" fy="651.79368" r="35.67424" gradientUnits="userSpaceOnUse">
      <stop offset=".0053" stop-color="#e9d2d7"/>
      <stop offset=".38995" stop-color="#c2818e"/>
      <stop offset=".78037" stop-color="#9e354a"/>
      <stop offset=".96089" stop-color="#90172f"/>
    </radialGradient>
    <radialGradient id="Unbenannter_Verlauf_3-3" data-name="Unbenannter Verlauf 3" cx="769.74643" cy="666.33039" fx="751.39503" fy="651.18079" r="35.6744" xlink:href="#Unbenannter_Verlauf_3"/>
    <radialGradient id="Unbenannter_Verlauf_19" data-name="Unbenannter Verlauf 19" cx="882.29656" cy="625.7686" fx="860.68583" fy="607.11494" r="35.67419" gradientUnits="userSpaceOnUse">
      <stop offset=".0053" stop-color="#e9d2d7"/>
      <stop offset=".48314" stop-color="#bb7281"/>
      <stop offset=".96089" stop-color="#90172f"/>
    </radialGradient>
    <radialGradient id="Neues_Verlaufsfeld_3-19" data-name="Neues Verlaufsfeld 3" cx="843.37448" cy="626.20702" fx="824.77996" fy="613.07567" r="35.67442" xlink:href="#Neues_Verlaufsfeld_3"/>
    <radialGradient id="Unbenannter_Verlauf_3-4" data-name="Unbenannter Verlauf 3" cx="859.55946" cy="688.62014" fx="837.83726" fy="671.48827" r="35.6744" xlink:href="#Unbenannter_Verlauf_3"/>
    <radialGradient id="Unbenannter_Verlauf_16-6" data-name="Unbenannter Verlauf 16" cx="812.56405" cy="661.88114" fx="793.0336" fy="643.88607" r="35.67424" xlink:href="#Unbenannter_Verlauf_16"/>
    <radialGradient id="Unbenannter_Verlauf_16-7" data-name="Unbenannter Verlauf 16" cx="1332.93621" cy="429.61617" fx="1308.38534" fy="410.8168" r="35.67419" xlink:href="#Unbenannter_Verlauf_16"/>
    <radialGradient id="Neues_Verlaufsfeld_3-20" data-name="Neues Verlaufsfeld 3" cx="1251.86711" cy="416.94972" fx="1232.45099" fy="396.97347" r="35.67422" xlink:href="#Neues_Verlaufsfeld_3"/>
    <radialGradient id="Unbenannter_Verlauf_6" data-name="Unbenannter Verlauf 6" cx="1256.63954" cy="499.53333" fx="1235.15993" fy="481.2489" r="35.6742" gradientUnits="userSpaceOnUse">
      <stop offset=".05393" stop-color="#f3f5f7"/>
      <stop offset=".23009" stop-color="#d0dadf"/>
      <stop offset=".49977" stop-color="#a1b5c0"/>
      <stop offset=".70671" stop-color="#839eac"/>
      <stop offset=".82452" stop-color="#7996a5"/>
    </radialGradient>
    <radialGradient id="Unbenannter_Verlauf_7-2" data-name="Unbenannter Verlauf 7" cx="1295.92625" cy="450.76732" fx="1273.30325" fy="433.71008" xlink:href="#Unbenannter_Verlauf_7"/>
    <radialGradient id="Unbenannter_Verlauf_16-8" data-name="Unbenannter Verlauf 16" cx="1264.10967" cy="852.65648" fx="1246.3412" fy="831.06893" r="35.67394" xlink:href="#Unbenannter_Verlauf_16"/>
    <radialGradient id="Unbenannter_Verlauf_16-9" data-name="Unbenannter Verlauf 16" cx="1274.50099" cy="928.60026" fx="1255.88144" fy="905.91095" r="35.67393" xlink:href="#Unbenannter_Verlauf_16"/>
    <radialGradient id="Neues_Verlaufsfeld_3-21" data-name="Neues Verlaufsfeld 3" cx="1242.73311" cy="910.39738" fx="1225.23116" fy="893.24354" r="35.67412" xlink:href="#Neues_Verlaufsfeld_3"/>
    <radialGradient id="Neues_Verlaufsfeld_3-22" data-name="Neues Verlaufsfeld 3" cx="1326.91951" cy="921.07758" fx="1308.21374" fy="902.59742" r="35.6742" xlink:href="#Neues_Verlaufsfeld_3"/>
    <radialGradient id="Neues_Verlaufsfeld_3-23" data-name="Neues Verlaufsfeld 3" cx="1278.88162" cy="889.04211" fx="1260.7483" fy="870.27656" r="35.67411" xlink:href="#Neues_Verlaufsfeld_3"/>
    <radialGradient id="Unbenannter_Verlauf_16-10" data-name="Unbenannter Verlauf 16" cx="874.60046" cy="730.97289" fx="854.56897" fy="711.32405" r="35.67425" xlink:href="#Unbenannter_Verlauf_16"/>
    <radialGradient id="Neues_Verlaufsfeld_3-24" data-name="Neues Verlaufsfeld 3" cx="849.38007" cy="756.19958" fx="828.75523" fy="739.66454" r="35.87052" xlink:href="#Neues_Verlaufsfeld_3"/>
    <radialGradient id="Unbenannter_Verlauf_16-11" data-name="Unbenannter Verlauf 16" cx="1309.13985" cy="511.88704" fx="1287.96989" fy="494.28048" r="35.67421" xlink:href="#Unbenannter_Verlauf_16"/>
    <radialGradient id="Unbenannter_Verlauf_16-12" data-name="Unbenannter Verlauf 16" cx="1318.23355" cy="863.18226" fx="1299.99705" fy="842.14765" r="35.67392" xlink:href="#Unbenannter_Verlauf_16"/>
  </defs>
  <rect class="cls-32" x="-.49751" y="-.67104" width="1920.72689" height="1280.77709"/>
  <path class="cls-4" d="M1299.16037,492.04196c13.92906,13.92753,36.51202,13.93198,50.44707-.00307,13.93198-13.93352,13.92906-36.51955,0-50.44557-13.93506-13.93656-36.51509-13.9381-50.45015-.00307-13.93503,13.9337-13.93214,36.51512.00307,50.45171Z"/>
  <path class="cls-2" d="M915.23396,638.33192c13.92753,13.92753,36.51064,13.93214,50.44723-.00292,13.93198-13.93367,13.92906-36.5197,0-50.44569-13.93521-13.93659-36.51663-13.93813-50.45168-.00307-13.93352,13.93367-13.93214,36.51509.00446,50.45168Z"/>
  <path class="cls-46" d="M921.15688,657.50575c13.92768,13.92753,36.51064,13.93352,50.44569-.00154,13.93352-13.93508,13.92906-36.51955.00154-50.44707-13.93506-13.93659-36.51663-13.93659-50.45168-.00154-13.93352,13.93352-13.93198,36.51507.00446,50.45015Z"/>
  <path class="cls-53" d="M1222.79603,842.20908c13.92906,13.92615,36.51205,13.93214,50.44707-.00292,13.93214-13.93506,13.92906-36.5211,0-50.44723-13.93503-13.93506-36.51509-13.93797-50.45015-.00292-13.93506,13.93506-13.93198,36.51509.00307,50.45307Z"/>
  <path class="cls-23" d="M1328.68636,880.25452c13.92906,13.92906,36.51202,13.93214,50.44707-.00307,13.93214-13.93198,13.92906-36.51955,0-50.44554-13.93506-13.93659-36.51494-13.93813-50.44999-.00307-13.93521,13.93367-13.93214,36.51663.00292,50.45168Z"/>
  <path class="cls-29" d="M1301.69841,835.52063c13.92906,13.92615,36.51202,13.93214,50.44707-.00294,13.93214-13.93519,13.92906-36.52106,0-50.44723-13.93506-13.93504-36.51494-13.93795-50.45015-.0029-13.93506,13.93506-13.93198,36.51494.00307,50.45307Z"/>
  <path class="cls-48" d="M1267.61396,828.53657c13.92906,13.92616,36.51202,13.93216,50.44707-.0029,13.93198-13.93521,13.92906-36.51816,0-50.44723-13.93506-13.93506-36.51509-13.93506-50.45015,0-13.93503,13.93214-13.93214,36.51509.00307,50.45013Z"/>
  <path class="cls-51" d="M1327.10211,920.53994c13.92596,13.92753,36.50892,13.93352,50.44397-.00154,13.93521-13.93506,13.92906-36.51955.00307-50.44707-13.93506-13.93659-36.51801-13.93659-50.45319-.00154-13.93201,13.93352-13.93201,36.51509.00615,50.45015Z"/>
  <path class="cls-39" d="M1198.45013,884.86508c13.92906,13.92906,36.51202,13.93506,50.44707,0,13.93216-13.93506,13.92909-36.52108,0-50.44723-13.93506-13.93797-36.51494-13.93797-50.45015-.00292-13.93506,13.93506-13.93198,36.51509.00307,50.45015Z"/>
  <path class="cls-30" d="M1237.38818,418.15862c13.92906,13.92753,36.51205,13.93352,50.44723-.00154,13.93198-13.93506,13.92906-36.51955,0-50.44723-13.93518-13.93644-36.51509-13.93644-50.45015-.00138-13.93506,13.93352-13.93214,36.51494.00292,50.45015Z"/>
  <path class="cls-37" d="M1212.25739,476.8153c13.92906,13.92753,36.51202,13.93352,50.4471-.00154,13.93211-13.93506,13.92904-36.51955,0-50.44723-13.93508-13.93644-36.51496-13.93644-50.45017-.00138-13.93506,13.93352-13.93198,36.51494.00307,50.45015Z"/>
  <path class="cls-40" d="M792.93578,776.02685c13.92753,13.92753,36.51064,13.93367,50.44569-.00154,13.93352-13.93506,13.92906-36.51955.0014-50.44707-13.93507-13.93661-36.51649-13.93661-50.45155-.00154-13.93367,13.93367-13.93214,36.51509.00446,50.45015Z"/>
  <path class="cls-26" d="M756.63483,742.73267c13.92767,13.92753,36.51062,13.93214,50.44723-.00292,13.93197-13.93367,13.92905-36.5197,0-50.44569-13.93507-13.93659-36.51664-13.93813-50.4517-.00307-13.93352,13.93367-13.93214,36.51509.00447,50.45168Z"/>
  <path class="cls-1" d="M797.39512,742.73267c13.92753,13.92753,36.51048,13.93214,50.44707-.00292,13.93214-13.93367,13.92906-36.5197,0-50.44569-13.93506-13.93659-36.51647-13.93813-50.45153-.00307-13.93367,13.93367-13.93214,36.51509.00446,50.45168Z"/>
  <path class="cls-44" d="M887.69099,727.2327c13.92768,13.92766,36.51064,13.93214,50.44723-.00292,13.93198-13.93367,13.92906-36.51955,0-50.44569-13.93506-13.93659-36.51663-13.93797-50.45168-.00292-13.9335,13.9335-13.93214,36.51494.00446,50.45153Z"/>
  <path class="cls-27" d="M332.90267,696.47901c13.92768,13.92755,36.51064,13.93201,50.44723-.00307,13.93198-13.9335,13.92906-36.51952,0-50.44569-13.93521-13.93641-36.51663-13.93795-50.45168-.00289-13.93353,13.93352-13.93214,36.51509.00445,50.45166Z"/>
  <path class="cls-24" d="M1151.76862,1103.38451c13.92768,13.92755,36.51064,13.93201,50.44723-.00307,13.93198-13.9335,13.92906-36.51952,0-50.44569-13.93521-13.93641-36.51663-13.93795-50.45168-.00289-13.93353,13.93352-13.93214,36.51509.00445,50.45166Z"/>
  <path class="cls-25" d="M1535.89589,693.47782c13.92768,13.92755,36.51064,13.93201,50.44723-.00307,13.93198-13.9335,13.92906-36.51952,0-50.44569-13.93521-13.93641-36.51663-13.93795-50.45168-.00289-13.93353,13.93352-13.93214,36.51509.00445,50.45166Z"/>
  <path class="cls-28" d="M1151.53601,277.08795c13.92768,13.92755,36.51064,13.93201,50.44723-.00307,13.93198-13.9335,13.92906-36.51952,0-50.44569-13.93521-13.93641-36.51663-13.93795-50.45168-.00289-13.93353,13.93352-13.93214,36.51509.00445,50.45166Z"/>
  <path class="cls-20" d="M794.17757,608.87341c13.92768,13.92768,36.51065,13.93211,50.44723-.00292,13.93198-13.93367,13.92906-36.51955,0-50.44569-13.93504-13.93659-36.51663-13.93813-50.45168-.00292-13.93352,13.93352-13.93212,36.51494.00446,50.45153Z"/>
  <path class="cls-19" d="M878.50077,612.18963c13.92753,13.92753,36.51048,13.93214,50.44707-.00307,13.93214-13.93352,13.92906-36.51955,0-50.44554-13.93506-13.93662-36.51647-13.93816-50.45153-.00307-13.93366,13.93367-13.93212,36.51509.00446,50.45168Z"/>
  <path class="cls-22" d="M1315.68733,414.39016c13.92906,13.92768,36.51202,13.93214,50.44723-.00292,13.93198-13.93367,13.92906-36.51958,0-50.44569-13.93521-13.93659-36.51509-13.93797-50.45015-.00292-13.93521,13.93352-13.93214,36.51494.00292,50.45153Z"/>
  <path class="cls-21" d="M1336.97122,440.08893c13.92906,13.92753,36.51202,13.93198,50.44707-.00307,13.93214-13.93352,13.92906-36.51955,0-50.44554-13.93506-13.93662-36.51509-13.93816-50.45015-.00307-13.93506,13.93352-13.93198,36.51509.00307,50.45168Z"/>
  <path class="cls-18" d="M1329.9901,524.75858c13.92906,13.92753,36.51217,13.93214,50.44723-.00307,13.93198-13.93352,13.92906-36.51958,0-50.44554-13.93506-13.93659-36.51509-13.93813-50.45015-.00307-13.93506,13.93364-13.93214,36.51509.00292,50.45168Z"/>
  <path class="cls-17" d="M1352.96024,494.54708c13.92903,13.92768,36.51199,13.93214,50.44705-.00295,13.93214-13.93349,13.92922-36.51952,0-50.44569-13.93506-13.93656-36.51494-13.93795-50.44999-.00289-13.93521,13.93352-13.93214,36.51509.00295,50.45153Z"/>
  <g>
    <path class="cls-31" d="M1248.65144,235.54454l.23438,3.2583c2.01562-2.51953,4.71777-3.7793,8.10645-3.7793,2.98828,0,5.21289.87744,6.67285,2.63232,1.45996,1.75537,2.20703,4.37939,2.24219,7.87207v18.22021h-7.5332v-18.0791c0-1.60254-.34766-2.76514-1.04297-3.48828-.69531-.72217-1.85059-1.08398-3.4668-1.08398-2.12012,0-3.70996.90576-4.76953,2.7168v19.93457h-7.5332v-28.20361h7.08984Z"/>
    <path class="cls-31" d="M1284.59578,264.26963c-4.13574,0-7.50293-1.26855-10.10059-3.80566s-3.89648-5.91699-3.89648-10.13965v-.72998c0-2.83252.54688-5.36523,1.6416-7.59814s2.64648-3.95312,4.65332-5.16113c2.00684-1.20752,4.2959-1.81152,6.86816-1.81152,3.85742,0,6.89453,1.21631,9.11035,3.64893,2.21582,2.43311,3.32324,5.88232,3.32324,10.34814v3.07617h-17.95996c.24316,1.8418.97754,3.31934,2.20312,4.43115,1.22461,1.1123,2.77637,1.66797,4.65234,1.66797,2.90234,0,5.16992-1.05078,6.80371-3.15381l3.70117,4.14453c-1.12988,1.59912-2.6582,2.8457-4.58789,3.74023-1.92871.89502-4.06641,1.34277-6.41211,1.34277ZM1283.73543,241.09678c-1.49414,0-2.70605.50635-3.63574,1.51855-.92969,1.0127-1.52539,2.46143-1.78516,4.34619h10.47852v-.60254c-.03516-1.67529-.4873-2.97119-1.35547-3.8877-.86914-.9165-2.10352-1.37451-3.70215-1.37451Z"/>
    <path class="cls-31" d="M1317.3614,260.88096c-1.85938,2.25928-4.43164,3.38867-7.71582,3.38867-3.02344,0-5.33008-.86865-6.91992-2.60693-1.59082-1.7373-2.40332-4.2832-2.4375-7.63721v-18.48096h7.5332v18.2417c0,2.93994,1.33789,4.40967,4.01367,4.40967,2.55469,0,4.30957-.88672,5.26562-2.66162v-19.98975h7.55957v28.20361h-7.08984l-.20898-2.86719Z"/>
    <path class="cls-31" d="M1339.3614,228.61094v6.93359h4.82227v5.52637h-4.82227v14.07568c0,1.04248.19922,1.78955.59961,2.24121.39941.45215,1.16406.67773,2.29395.67773.83398,0,1.57227-.06055,2.21582-.18213v5.7085c-1.47754.45166-2.99805.67773-4.56152.67773-5.2832,0-7.97656-2.66748-8.08105-8.00244v-15.19629h-4.11816v-5.52637h4.11816v-6.93359h7.5332Z"/>
    <path class="cls-31" d="M1364.22762,242.6085c-1.02539-.13867-1.92871-.2085-2.71094-.2085-2.84961,0-4.71777.96436-5.60352,2.89355v18.45459h-7.5332v-28.20361h7.11621l.20801,3.36279c1.51172-2.58936,3.60547-3.88379,6.28223-3.88379.83398,0,1.61621.11279,2.3457.33887l-.10449,7.24609Z"/>
    <path class="cls-31" d="M1366.67879,249.38585c0-2.79785.53809-5.2915,1.61621-7.48096,1.07715-2.18945,2.62793-3.88379,4.65234-5.08301s4.375-1.79834,7.05078-1.79834c3.80566,0,6.91211,1.16406,9.31836,3.49268,2.40723,2.32861,3.74902,5.49121,4.02734,9.48779l.05273,1.9292c0,4.32666-1.20801,7.79834-3.62402,10.41309-2.41504,2.61572-5.65625,3.92334-9.72266,3.92334-4.06543,0-7.31152-1.30322-9.73535-3.91016-2.42383-2.60645-3.63574-6.15137-3.63574-10.63477v-.33887ZM1374.21199,249.92051c0,2.68018.50293,4.72998,1.51172,6.14795,1.00684,1.41846,2.4502,2.12744,4.32617,2.12744,1.8252,0,3.25-.7002,4.27539-2.10156,1.02539-1.40088,1.53809-3.64111,1.53809-6.72217,0-2.62744-.5127-4.66406-1.53809-6.10889-1.02539-1.44385-2.46777-2.1665-4.32715-2.1665-1.8418,0-3.26758.71777-4.27441,2.15381-1.00879,1.43604-1.51172,3.65918-1.51172,6.66992Z"/>
    <path class="cls-31" d="M1404.9698,235.54454l.23438,3.2583c2.01562-2.51953,4.71777-3.7793,8.10645-3.7793,2.98828,0,5.21289.87744,6.67285,2.63232,1.45996,1.75537,2.20703,4.37939,2.24219,7.87207v18.22021h-7.5332v-18.0791c0-1.60254-.34766-2.76514-1.04297-3.48828-.69531-.72217-1.85059-1.08398-3.4668-1.08398-2.12012,0-3.70996.90576-4.76953,2.7168v19.93457h-7.5332v-28.20361h7.08984Z"/>
  </g>
  <g>
    <path class="cls-31" d="M1640.14656,653.42735l.23438,3.25781c2.01562-2.51953,4.71777-3.7793,8.10645-3.7793,2.98828,0,5.21289.87793,6.67285,2.63281s2.20703,4.37891,2.24219,7.87207v18.21973h-7.5332v-18.0791c0-1.60254-.34766-2.76562-1.04297-3.48828s-1.85059-1.08398-3.4668-1.08398c-2.12012,0-3.70996.90527-4.76953,2.7168v19.93457h-7.5332v-28.20312h7.08984Z"/>
    <path class="cls-31" d="M1676.0909,682.15196c-4.13574,0-7.50293-1.26855-10.10059-3.80566s-3.89648-5.91699-3.89648-10.13965v-.73047c0-2.83203.54688-5.36426,1.6416-7.59766,1.09473-2.23242,2.64648-3.95312,4.65332-5.16113s4.2959-1.81152,6.86816-1.81152c3.85742,0,6.89453,1.2168,9.11035,3.64941s3.32324,5.88184,3.32324,10.34766v3.07617h-17.95996c.24316,1.8418.97754,3.31934,2.20312,4.43066,1.22461,1.1123,2.77637,1.66895,4.65234,1.66895,2.90234,0,5.16992-1.05176,6.80371-3.1543l3.70117,4.14453c-1.12988,1.59863-2.6582,2.8457-4.58789,3.74023-1.92871.89453-4.06641,1.34277-6.41211,1.34277ZM1675.23055,658.97911c-1.49414,0-2.70605.50586-3.63574,1.51855s-1.52539,2.46094-1.78516,4.34668h10.47852v-.60254c-.03516-1.67578-.4873-2.97168-1.35547-3.8877-.86914-.91699-2.10352-1.375-3.70215-1.375Z"/>
    <path class="cls-31" d="M1708.85652,678.76329c-1.85938,2.25879-4.43164,3.38867-7.71582,3.38867-3.02344,0-5.33008-.86914-6.91992-2.60645-1.59082-1.7373-2.40332-4.28418-2.4375-7.6377v-18.48047h7.5332v18.24121c0,2.94043,1.33789,4.41016,4.01367,4.41016,2.55469,0,4.30957-.8877,5.26562-2.66211v-19.98926h7.55957v28.20312h-7.08984l-.20898-2.86719Z"/>
    <path class="cls-31" d="M1730.85652,646.49376v6.93359h4.82227v5.52539h-4.82227v14.07617c0,1.04199.19922,1.79004.59961,2.24121.39941.45215,1.16406.67773,2.29395.67773.83398,0,1.57227-.06055,2.21582-.18262v5.70898c-1.47754.45117-2.99805.67773-4.56152.67773-5.2832,0-7.97656-2.66699-8.08105-8.00293v-15.19629h-4.11816v-5.52539h4.11816v-6.93359h7.5332Z"/>
    <path class="cls-31" d="M1755.72273,660.49083c-1.02539-.13867-1.92871-.20801-2.71094-.20801-2.84961,0-4.71777.96387-5.60352,2.89258v18.45508h-7.5332v-28.20312h7.11621l.20801,3.3623c1.51172-2.58887,3.60547-3.88379,6.28223-3.88379.83398,0,1.61621.11328,2.3457.33887l-.10449,7.24609Z"/>
    <path class="cls-31" d="M1758.1739,667.26817c0-2.79785.53809-5.29199,1.61621-7.48145,1.07715-2.18945,2.62793-3.88379,4.65234-5.08203,2.02441-1.19922,4.375-1.79883,7.05078-1.79883,3.80566,0,6.91211,1.16406,9.31836,3.49219,2.40723,2.3291,3.74902,5.49219,4.02734,9.48828l.05273,1.92871c0,4.32715-1.20801,7.79883-3.62402,10.41406-2.41504,2.61523-5.65625,3.92285-9.72266,3.92285-4.06543,0-7.31152-1.30371-9.73535-3.91016s-3.63574-6.15137-3.63574-10.63477v-.33887ZM1765.70711,667.80235c0,2.68066.50293,4.73047,1.51172,6.14844,1.00684,1.41895,2.4502,2.12793,4.32617,2.12793,1.8252,0,3.25-.70117,4.27539-2.10156,1.02539-1.40137,1.53809-3.6416,1.53809-6.72266,0-2.62793-.5127-4.66406-1.53809-6.1084s-2.46777-2.16699-4.32715-2.16699c-1.8418,0-3.26758.71777-4.27441,2.15332-1.00879,1.43652-1.51172,3.66016-1.51172,6.66992Z"/>
    <path class="cls-31" d="M1796.46492,653.42735l.23438,3.25781c2.01562-2.51953,4.71777-3.7793,8.10645-3.7793,2.98828,0,5.21289.87793,6.67285,2.63281s2.20703,4.37891,2.24219,7.87207v18.21973h-7.5332v-18.0791c0-1.60254-.34766-2.76562-1.04297-3.48828s-1.85059-1.08398-3.4668-1.08398c-2.12012,0-3.70996.90527-4.76953,2.7168v19.93457h-7.5332v-28.20312h7.08984Z"/>
  </g>
  <g>
    <path class="cls-31" d="M1258.82723,1066.40196l.23438,3.25781c2.01562-2.51953,4.71777-3.7793,8.10645-3.7793,2.98828,0,5.21289.87793,6.67285,2.63281s2.20703,4.37891,2.24219,7.87207v18.21973h-7.5332v-18.0791c0-1.60254-.34766-2.76562-1.04297-3.48828s-1.85059-1.08398-3.4668-1.08398c-2.12012,0-3.70996.90527-4.76953,2.7168v19.93457h-7.5332v-28.20312h7.08984Z"/>
    <path class="cls-31" d="M1294.77156,1095.12657c-4.13574,0-7.50293-1.26855-10.10059-3.80566s-3.89648-5.91699-3.89648-10.13965v-.73047c0-2.83203.54688-5.36426,1.6416-7.59766,1.09473-2.23242,2.64648-3.95312,4.65332-5.16113s4.2959-1.81152,6.86816-1.81152c3.85742,0,6.89453,1.2168,9.11035,3.64941s3.32324,5.88184,3.32324,10.34766v3.07617h-17.95996c.24316,1.8418.97754,3.31934,2.20312,4.43066,1.22461,1.1123,2.77637,1.66895,4.65234,1.66895,2.90234,0,5.16992-1.05176,6.80371-3.1543l3.70117,4.14453c-1.12988,1.59863-2.6582,2.8457-4.58789,3.74023-1.92871.89453-4.06641,1.34277-6.41211,1.34277ZM1293.91121,1071.95372c-1.49414,0-2.70605.50586-3.63574,1.51855s-1.52539,2.46094-1.78516,4.34668h10.47852v-.60254c-.03516-1.67578-.4873-2.97168-1.35547-3.8877-.86914-.91699-2.10352-1.375-3.70215-1.375Z"/>
    <path class="cls-31" d="M1327.53719,1091.7379c-1.85938,2.25879-4.43164,3.38867-7.71582,3.38867-3.02344,0-5.33008-.86914-6.91992-2.60645-1.59082-1.7373-2.40332-4.28418-2.4375-7.6377v-18.48047h7.5332v18.24121c0,2.94043,1.33789,4.41016,4.01367,4.41016,2.55469,0,4.30957-.8877,5.26562-2.66211v-19.98926h7.55957v28.20312h-7.08984l-.20898-2.86719Z"/>
    <path class="cls-31" d="M1349.53719,1059.46836v6.93359h4.82227v5.52539h-4.82227v14.07617c0,1.04199.19922,1.79004.59961,2.24121.39941.45215,1.16406.67773,2.29395.67773.83398,0,1.57227-.06055,2.21582-.18262v5.70898c-1.47754.45117-2.99805.67773-4.56152.67773-5.2832,0-7.97656-2.66699-8.08105-8.00293v-15.19629h-4.11816v-5.52539h4.11816v-6.93359h7.5332Z"/>
    <path class="cls-31" d="M1374.4034,1073.46544c-1.02539-.13867-1.92871-.20801-2.71094-.20801-2.84961,0-4.71777.96387-5.60352,2.89258v18.45508h-7.5332v-28.20312h7.11621l.20801,3.3623c1.51172-2.58887,3.60547-3.88379,6.28223-3.88379.83398,0,1.61621.11328,2.3457.33887l-.10449,7.24609Z"/>
    <path class="cls-31" d="M1376.85457,1080.24278c0-2.79785.53809-5.29199,1.61621-7.48145,1.07715-2.18945,2.62793-3.88379,4.65234-5.08203,2.02441-1.19922,4.375-1.79883,7.05078-1.79883,3.80566,0,6.91211,1.16406,9.31836,3.49219,2.40723,2.3291,3.74902,5.49219,4.02734,9.48828l.05273,1.92871c0,4.32715-1.20801,7.79883-3.62402,10.41406-2.41504,2.61523-5.65625,3.92285-9.72266,3.92285-4.06543,0-7.31152-1.30371-9.73535-3.91016s-3.63574-6.15137-3.63574-10.63477v-.33887ZM1384.38777,1080.77696c0,2.68066.50293,4.73047,1.51172,6.14844,1.00684,1.41895,2.4502,2.12793,4.32617,2.12793,1.8252,0,3.25-.70117,4.27539-2.10156,1.02539-1.40137,1.53809-3.6416,1.53809-6.72266,0-2.62793-.5127-4.66406-1.53809-6.1084s-2.46777-2.16699-4.32715-2.16699c-1.8418,0-3.26758.71777-4.27441,2.15332-1.00879,1.43652-1.51172,3.66016-1.51172,6.66992Z"/>
    <path class="cls-31" d="M1415.14558,1066.40196l.23438,3.25781c2.01562-2.51953,4.71777-3.7793,8.10645-3.7793,2.98828,0,5.21289.87793,6.67285,2.63281s2.20703,4.37891,2.24219,7.87207v18.21973h-7.5332v-18.0791c0-1.60254-.34766-2.76562-1.04297-3.48828s-1.85059-1.08398-3.4668-1.08398c-2.12012,0-3.70996.90527-4.76953,2.7168v19.93457h-7.5332v-28.20312h7.08984Z"/>
  </g>
  <g>
    <path class="cls-31" d="M109.79012,653.74571l.23438,3.25781c2.01562-2.51953,4.71777-3.7793,8.10645-3.7793,2.98828,0,5.21289.87793,6.67285,2.63281s2.20703,4.37891,2.24219,7.87207v18.21973h-7.5332v-18.0791c0-1.60254-.34766-2.76562-1.04297-3.48828s-1.85059-1.08398-3.4668-1.08398c-2.12012,0-3.70996.90527-4.76953,2.7168v19.93457h-7.5332v-28.20312h7.08984Z"/>
    <path class="cls-31" d="M145.73445,682.47032c-4.13574,0-7.50293-1.26855-10.10059-3.80566s-3.89648-5.91699-3.89648-10.13965v-.73047c0-2.83203.54688-5.36426,1.6416-7.59766,1.09473-2.23242,2.64648-3.95312,4.65332-5.16113s4.2959-1.81152,6.86816-1.81152c3.85742,0,6.89453,1.2168,9.11035,3.64941s3.32324,5.88184,3.32324,10.34766v3.07617h-17.95996c.24316,1.8418.97754,3.31934,2.20312,4.43066,1.22461,1.1123,2.77637,1.66895,4.65234,1.66895,2.90234,0,5.16992-1.05176,6.80371-3.1543l3.70117,4.14453c-1.12988,1.59863-2.6582,2.8457-4.58789,3.74023-1.92871.89453-4.06641,1.34277-6.41211,1.34277ZM144.8741,659.29747c-1.49414,0-2.70605.50586-3.63574,1.51855s-1.52539,2.46094-1.78516,4.34668h10.47852v-.60254c-.03516-1.67578-.4873-2.97168-1.35547-3.8877-.86914-.91699-2.10352-1.375-3.70215-1.375Z"/>
    <path class="cls-31" d="M178.50008,679.08165c-1.85938,2.25879-4.43164,3.38867-7.71582,3.38867-3.02344,0-5.33008-.86914-6.91992-2.60645-1.59082-1.7373-2.40332-4.28418-2.4375-7.6377v-18.48047h7.5332v18.24121c0,2.94043,1.33789,4.41016,4.01367,4.41016,2.55469,0,4.30957-.8877,5.26562-2.66211v-19.98926h7.55957v28.20312h-7.08984l-.20898-2.86719Z"/>
    <path class="cls-31" d="M200.50008,646.81211v6.93359h4.82227v5.52539h-4.82227v14.07617c0,1.04199.19922,1.79004.59961,2.24121.39941.45215,1.16406.67773,2.29395.67773.83398,0,1.57227-.06055,2.21582-.18262v5.70898c-1.47754.45117-2.99805.67773-4.56152.67773-5.2832,0-7.97656-2.66699-8.08105-8.00293v-15.19629h-4.11816v-5.52539h4.11816v-6.93359h7.5332Z"/>
    <path class="cls-31" d="M225.36629,660.80919c-1.02539-.13867-1.92871-.20801-2.71094-.20801-2.84961,0-4.71777.96387-5.60352,2.89258v18.45508h-7.5332v-28.20312h7.11621l.20801,3.3623c1.51172-2.58887,3.60547-3.88379,6.28223-3.88379.83398,0,1.61621.11328,2.3457.33887l-.10449,7.24609Z"/>
    <path class="cls-31" d="M227.81746,667.58653c0-2.79785.53809-5.29199,1.61621-7.48145,1.07715-2.18945,2.62793-3.88379,4.65234-5.08203,2.02441-1.19922,4.375-1.79883,7.05078-1.79883,3.80566,0,6.91211,1.16406,9.31836,3.49219,2.40723,2.3291,3.74902,5.49219,4.02734,9.48828l.05273,1.92871c0,4.32715-1.20801,7.79883-3.62402,10.41406-2.41504,2.61523-5.65625,3.92285-9.72266,3.92285-4.06543,0-7.31152-1.30371-9.73535-3.91016s-3.63574-6.15137-3.63574-10.63477v-.33887ZM235.35066,668.12071c0,2.68066.50293,4.73047,1.51172,6.14844,1.00684,1.41895,2.4502,2.12793,4.32617,2.12793,1.8252,0,3.25-.70117,4.27539-2.10156,1.02539-1.40137,1.53809-3.6416,1.53809-6.72266,0-2.62793-.5127-4.66406-1.53809-6.1084s-2.46777-2.16699-4.32715-2.16699c-1.8418,0-3.26758.71777-4.27441,2.15332-1.00879,1.43652-1.51172,3.66016-1.51172,6.66992Z"/>
    <path class="cls-31" d="M266.10848,653.74571l.23438,3.25781c2.01562-2.51953,4.71777-3.7793,8.10645-3.7793,2.98828,0,5.21289.87793,6.67285,2.63281s2.20703,4.37891,2.24219,7.87207v18.21973h-7.5332v-18.0791c0-1.60254-.34766-2.76562-1.04297-3.48828s-1.85059-1.08398-3.4668-1.08398c-2.12012,0-3.70996.90527-4.76953,2.7168v19.93457h-7.5332v-28.20312h7.08984Z"/>
  </g>
  <g>
    <path class="cls-31" d="M452.29793,474.08458v6.93359h4.82227v5.52539h-4.82227v14.07617c0,1.04199.19922,1.79004.59961,2.24121.39941.45215,1.16406.67773,2.29395.67773.83398,0,1.57227-.06055,2.21582-.18262v5.70898c-1.47754.45117-2.99805.67773-4.56152.67773-5.2832,0-7.97656-2.66699-8.08105-8.00293v-15.19629h-4.11816v-5.52539h4.11816v-6.93359h7.5332Z"/>
    <path class="cls-31" d="M477.66023,509.22129c-.34766-.67773-.59863-1.52051-.75586-2.52832-1.82422,2.0332-4.19629,3.0498-7.11523,3.0498-2.76367,0-5.05273-.79883-6.86914-2.39844-1.81543-1.59863-2.72363-3.61426-2.72363-6.04688,0-2.98926,1.10742-5.28223,3.32324-6.88184,2.21582-1.59863,5.41699-2.40625,9.60547-2.42383h3.4668v-1.61621c0-1.30371-.33496-2.3457-1.00391-3.12793s-1.72461-1.17285-3.16699-1.17285c-1.26855,0-2.26367.30371-2.98438.91211s-1.08105,1.44238-1.08105,2.50195h-7.5332c0-1.63281.50391-3.14453,1.51172-4.53516,1.00781-1.38965,2.43262-2.48047,4.27441-3.27148,1.8418-.79004,3.91016-1.18555,6.2041-1.18555,3.47559,0,6.2334.87305,8.27539,2.61914,2.04199,1.74707,3.06348,4.20117,3.06348,7.36426v12.22461c.0166,2.67676.39062,4.70117,1.12012,6.07324v.44336h-7.61133ZM471.43074,503.98204c1.1123,0,2.1377-.24805,3.07617-.74316s1.63281-1.16016,2.08496-1.99414v-4.84766h-2.81543c-3.77051,0-5.77734,1.30273-6.02051,3.90918l-.02637.44336c0,.93848.33008,1.71191.99023,2.32031s1.56445.91211,2.71094.91211Z"/>
    <path class="cls-31" d="M505.78523,488.08165c-1.02539-.13867-1.92871-.20801-2.71094-.20801-2.84961,0-4.71777.96387-5.60352,2.89258v18.45508h-7.5332v-28.20312h7.11621l.20801,3.3623c1.51172-2.58887,3.60547-3.88379,6.28223-3.88379.83398,0,1.61621.11328,2.3457.33887l-.10449,7.24609Z"/>
    <path class="cls-31" d="M508.31453,494.91075c0-4.32715,1.0293-7.81055,3.08887-10.45215,2.05859-2.6416,4.83496-3.96191,8.32812-3.96191,3.09277,0,5.5,1.05957,7.21973,3.17969l.31348-2.6582h6.8291v27.26465c0,2.46777-.56055,4.61426-1.68164,6.43848s-2.69727,3.21484-4.73047,4.1709c-2.0332.95508-4.41406,1.43359-7.14258,1.43359-2.06836,0-4.08398-.41309-6.04688-1.23828-1.96387-.82617-3.4502-1.88965-4.45801-3.19336l3.33691-4.58789c1.87695,2.10254,4.15332,3.1543,6.8291,3.1543,1.99805,0,3.55371-.53418,4.66602-1.60352,1.11133-1.06836,1.66797-2.58496,1.66797-4.54785v-1.51172c-1.7373,1.96387-4.02246,2.94531-6.85547,2.94531-3.38867,0-6.12988-1.3252-8.22363-3.97559-2.09375-2.64941-3.14062-6.16406-3.14062-10.54297v-.31348ZM515.84773,495.44688c0,2.56641.51172,4.57812,1.53711,6.03613s2.43359,2.18652,4.22266,2.18652c2.29395,0,3.93652-.86426,4.92676-2.59277v-11.91406c-1.00781-1.72852-2.63281-2.59277-4.87402-2.59277-1.80762,0-3.22852.74219-4.26172,2.22559-1.03418,1.48438-1.55078,3.70117-1.55078,6.65137Z"/>
    <path class="cls-31" d="M552.86043,509.74278c-4.13574,0-7.50293-1.26855-10.10059-3.80566s-3.89648-5.91699-3.89648-10.13965v-.73047c0-2.83203.54688-5.36426,1.6416-7.59766,1.09473-2.23242,2.64648-3.95312,4.65332-5.16113s4.2959-1.81152,6.86816-1.81152c3.85742,0,6.89453,1.2168,9.11035,3.64941s3.32324,5.88184,3.32324,10.34766v3.07617h-17.95996c.24316,1.8418.97754,3.31934,2.20312,4.43066,1.22461,1.1123,2.77637,1.66895,4.65234,1.66895,2.90234,0,5.16992-1.05176,6.80371-3.1543l3.70117,4.14453c-1.12988,1.59863-2.6582,2.8457-4.58789,3.74023-1.92871.89453-4.06641,1.34277-6.41211,1.34277ZM552.00008,486.56993c-1.49414,0-2.70605.50586-3.63574,1.51855s-1.52539,2.46094-1.78516,4.34668h10.47852v-.60254c-.03516-1.67578-.4873-2.97168-1.35547-3.8877-.86914-.91699-2.10352-1.375-3.70215-1.375Z"/>
    <path class="cls-31" d="M577.75398,474.08458v6.93359h4.82227v5.52539h-4.82227v14.07617c0,1.04199.19922,1.79004.59961,2.24121.39941.45215,1.16406.67773,2.29395.67773.83398,0,1.57227-.06055,2.21582-.18262v5.70898c-1.47754.45117-2.99805.67773-4.56152.67773-5.2832,0-7.97656-2.66699-8.08105-8.00293v-15.19629h-4.11816v-5.52539h4.11816v-6.93359h7.5332Z"/>
    <path class="cls-31" d="M607.00008,481.01817l.23438,3.25781c2.01562-2.51953,4.71777-3.7793,8.10645-3.7793,2.98828,0,5.21289.87793,6.67285,2.63281s2.20703,4.37891,2.24219,7.87207v18.21973h-7.5332v-18.0791c0-1.60254-.34766-2.76562-1.04297-3.48828s-1.85059-1.08398-3.4668-1.08398c-2.12012,0-3.70996.90527-4.76953,2.7168v19.93457h-7.5332v-28.20312h7.08984Z"/>
    <path class="cls-31" d="M646.85555,506.35411c-1.85938,2.25879-4.43164,3.38867-7.71582,3.38867-3.02344,0-5.33008-.86914-6.91992-2.60645-1.59082-1.7373-2.40332-4.28418-2.4375-7.6377v-18.48047h7.5332v18.24121c0,2.94043,1.33789,4.41016,4.01367,4.41016,2.55469,0,4.30957-.8877,5.26562-2.66211v-19.98926h7.55957v28.20312h-7.08984l-.20898-2.86719Z"/>
    <path class="cls-31" d="M671.56551,503.66954c1.38965,0,2.51953-.38281,3.38867-1.14746s1.32031-1.78125,1.35547-3.0498h7.06348c-.01758,1.91211-.53809,3.66211-1.56348,5.25293-1.02539,1.58984-2.42871,2.82422-4.20996,3.70117s-3.74902,1.31641-5.9043,1.31641c-4.03125,0-7.21094-1.28125-9.54004-3.84473-2.32812-2.56348-3.49219-6.10352-3.49219-10.62207v-.49512c0-4.34473,1.15527-7.81152,3.4668-10.40039,2.31055-2.58887,5.48242-3.88379,9.51367-3.88379,3.52734,0,6.35547,1.00293,8.48438,3.01074,2.12891,2.00684,3.20996,4.67871,3.24512,8.01465h-7.06348c-.03516-1.4668-.48633-2.65918-1.35547-3.57617s-2.01562-1.37598-3.44043-1.37598c-1.75586,0-3.08105.63965-3.97559,1.91895-.89551,1.2793-1.3418,3.35449-1.3418,6.22559v.7832c0,2.90723.44238,4.99512,1.3291,6.26562.88574,1.27051,2.23242,1.90625,4.04004,1.90625Z"/>
    <path class="cls-31" d="M695.62508,509.22129h-7.55957v-40.03711h7.55957v40.03711Z"/>
    <path class="cls-31" d="M714.80965,509.74278c-4.13574,0-7.50293-1.26855-10.10059-3.80566s-3.89648-5.91699-3.89648-10.13965v-.73047c0-2.83203.54688-5.36426,1.6416-7.59766,1.09473-2.23242,2.64648-3.95312,4.65332-5.16113s4.2959-1.81152,6.86816-1.81152c3.85742,0,6.89453,1.2168,9.11035,3.64941s3.32324,5.88184,3.32324,10.34766v3.07617h-17.95996c.24316,1.8418.97754,3.31934,2.20312,4.43066,1.22461,1.1123,2.77637,1.66895,4.65234,1.66895,2.90234,0,5.16992-1.05176,6.80371-3.1543l3.70117,4.14453c-1.12988,1.59863-2.6582,2.8457-4.58789,3.74023-1.92871.89453-4.06641,1.34277-6.41211,1.34277ZM713.9493,486.56993c-1.49414,0-2.70605.50586-3.63574,1.51855s-1.52539,2.46094-1.78516,4.34668h10.47852v-.60254c-.03516-1.67578-.4873-2.97168-1.35547-3.8877-.86914-.91699-2.10352-1.375-3.70215-1.375Z"/>
    <path class="cls-31" d="M747.5743,506.35411c-1.85938,2.25879-4.43164,3.38867-7.71582,3.38867-3.02344,0-5.33008-.86914-6.91992-2.60645-1.59082-1.7373-2.40332-4.28418-2.4375-7.6377v-18.48047h7.5332v18.24121c0,2.94043,1.33789,4.41016,4.01367,4.41016,2.55469,0,4.30957-.8877,5.26562-2.66211v-19.98926h7.55957v28.20312h-7.08984l-.20898-2.86719Z"/>
    <path class="cls-31" d="M775.83015,501.42735c0-.9209-.45605-1.64648-1.36816-2.17676-.91211-.5293-2.37695-1.00293-4.39258-1.41992-6.70801-1.4082-10.06152-4.25781-10.06152-8.5498,0-2.50293,1.03809-4.5918,3.11523-6.26855,2.07617-1.67676,4.79199-2.51562,8.14551-2.51562,3.58008,0,6.44238.84277,8.58887,2.52832,2.14551,1.68555,3.21875,3.875,3.21875,6.56836h-7.5332c0-1.07715-.34766-1.96777-1.04199-2.67188-.69531-.70312-1.78125-1.05566-3.25879-1.05566-1.26855,0-2.25.28711-2.94531.86035s-1.04199,1.30371-1.04199,2.18945c0,.83398.39453,1.50781,1.18555,2.02051s2.12402.95605,4.00098,1.3291c1.87695.37402,3.45801.79492,4.74414,1.26465,3.97949,1.45898,5.96875,3.9873,5.96875,7.58496,0,2.57227-1.10352,4.65234-3.30957,6.24316-2.20703,1.58984-5.05762,2.38477-8.5498,2.38477-2.36328,0-4.46191-.42188-6.29492-1.26465-1.83398-.84277-3.27148-1.99805-4.31445-3.4668-1.04199-1.46777-1.56348-3.05371-1.56348-4.75684h7.1416c.06934,1.33887.56445,2.36328,1.48633,3.07617.9209.71289,2.1543,1.06836,3.70117,1.06836,1.44238,0,2.53223-.27344,3.27148-.82129.73828-.54688,1.10742-1.26367,1.10742-2.15039Z"/>
  </g>
  <g>
    <path class="cls-31" d="M1455.17586,468.2584v-22.67773h-4.19629v-5.52539h4.19629v-2.39844c0-3.16211.9082-5.61719,2.72461-7.36328,1.81543-1.74707,4.35645-2.62012,7.62402-2.62012,1.04297,0,2.32031.17285,3.83203.5166l-.07812,5.79102c-.62598-.15625-1.39062-.23438-2.29395-.23438-2.83301,0-4.24902,1.34082-4.24902,4.02148v2.28711h5.60449v5.52539h-5.60449v22.67773h-7.55957Z"/>
    <path class="cls-31" d="M1472.19734,432.75645c0-1.12988.37793-2.05957,1.13379-2.78906.75684-.72949,1.78613-1.09473,3.08887-1.09473,1.28613,0,2.31152.36523,3.07617,1.09473s1.14648,1.65918,1.14648,2.78906c0,1.14648-.38672,2.08496-1.15918,2.81543-.77344.72949-1.79492,1.09473-3.06348,1.09473s-2.28906-.36523-3.0625-1.09473c-.77344-.73047-1.16016-1.66895-1.16016-2.81543ZM1480.20027,468.2584h-7.55957v-28.20312h7.55957v28.20312Z"/>
    <path class="cls-31" d="M1501.67781,460.46446c0-.9209-.45605-1.64648-1.36816-2.17676-.91211-.5293-2.37695-1.00293-4.39258-1.41992-6.70801-1.4082-10.06152-4.25781-10.06152-8.5498,0-2.50293,1.03809-4.5918,3.11523-6.26855,2.07617-1.67676,4.79199-2.51562,8.14551-2.51562,3.58008,0,6.44238.84277,8.58887,2.52832,2.14551,1.68555,3.21875,3.875,3.21875,6.56836h-7.5332c0-1.07715-.34766-1.96777-1.04199-2.67188-.69531-.70312-1.78125-1.05566-3.25879-1.05566-1.26855,0-2.25.28711-2.94531.86035s-1.04199,1.30371-1.04199,2.18945c0,.83398.39453,1.50781,1.18555,2.02051s2.12402.95605,4.00098,1.3291c1.87695.37402,3.45801.79492,4.74414,1.26465,3.97949,1.45898,5.96875,3.9873,5.96875,7.58496,0,2.57227-1.10352,4.65234-3.30957,6.24316-2.20703,1.58984-5.05762,2.38477-8.5498,2.38477-2.36328,0-4.46191-.42188-6.29492-1.26465-1.83398-.84277-3.27148-1.99805-4.31445-3.4668-1.04199-1.46777-1.56348-3.05371-1.56348-4.75684h7.1416c.06934,1.33887.56445,2.36328,1.48633,3.07617.9209.71289,2.1543,1.06836,3.70117,1.06836,1.44238,0,2.53223-.27344,3.27148-.82129.73828-.54688,1.10742-1.26367,1.10742-2.15039Z"/>
    <path class="cls-31" d="M1529.12605,460.46446c0-.9209-.45605-1.64648-1.36816-2.17676-.91211-.5293-2.37695-1.00293-4.39258-1.41992-6.70801-1.4082-10.06152-4.25781-10.06152-8.5498,0-2.50293,1.03809-4.5918,3.11523-6.26855,2.07617-1.67676,4.79199-2.51562,8.14551-2.51562,3.58008,0,6.44238.84277,8.58887,2.52832,2.14551,1.68555,3.21875,3.875,3.21875,6.56836h-7.5332c0-1.07715-.34766-1.96777-1.04199-2.67188-.69531-.70312-1.78125-1.05566-3.25879-1.05566-1.26855,0-2.25.28711-2.94531.86035s-1.04199,1.30371-1.04199,2.18945c0,.83398.39453,1.50781,1.18555,2.02051s2.12402.95605,4.00098,1.3291c1.87695.37402,3.45801.79492,4.74414,1.26465,3.97949,1.45898,5.96875,3.9873,5.96875,7.58496,0,2.57227-1.10352,4.65234-3.30957,6.24316-2.20703,1.58984-5.05762,2.38477-8.5498,2.38477-2.36328,0-4.46191-.42188-6.29492-1.26465-1.83398-.84277-3.27148-1.99805-4.31445-3.4668-1.04199-1.46777-1.56348-3.05371-1.56348-4.75684h7.1416c.06934,1.33887.56445,2.36328,1.48633,3.07617.9209.71289,2.1543,1.06836,3.70117,1.06836,1.44238,0,2.53223-.27344,3.27148-.82129.73828-.54688,1.10742-1.26367,1.10742-2.15039Z"/>
    <path class="cls-31" d="M1541.24617,432.75645c0-1.12988.37793-2.05957,1.13379-2.78906.75684-.72949,1.78613-1.09473,3.08887-1.09473,1.28613,0,2.31152.36523,3.07617,1.09473s1.14648,1.65918,1.14648,2.78906c0,1.14648-.38672,2.08496-1.15918,2.81543-.77344.72949-1.79492,1.09473-3.06348,1.09473s-2.28906-.36523-3.0625-1.09473c-.77344-.73047-1.16016-1.66895-1.16016-2.81543ZM1549.2491,468.2584h-7.55957v-28.20312h7.55957v28.20312Z"/>
    <path class="cls-31" d="M1554.27937,453.8961c0-2.79785.53809-5.29199,1.61621-7.48145,1.07715-2.18945,2.62793-3.88379,4.65234-5.08203,2.02441-1.19922,4.375-1.79883,7.05078-1.79883,3.80566,0,6.91211,1.16406,9.31836,3.49219,2.40723,2.3291,3.74902,5.49219,4.02734,9.48828l.05273,1.92871c0,4.32715-1.20801,7.79883-3.62402,10.41406-2.41504,2.61523-5.65625,3.92285-9.72266,3.92285-4.06543,0-7.31152-1.30371-9.73535-3.91016s-3.63574-6.15137-3.63574-10.63477v-.33887ZM1561.81258,454.43028c0,2.68066.50293,4.73047,1.51172,6.14844,1.00684,1.41895,2.4502,2.12793,4.32617,2.12793,1.8252,0,3.25-.70117,4.27539-2.10156,1.02539-1.40137,1.53809-3.6416,1.53809-6.72266,0-2.62793-.5127-4.66406-1.53809-6.1084s-2.46777-2.16699-4.32715-2.16699c-1.8418,0-3.26758.71777-4.27441,2.15332-1.00879,1.43652-1.51172,3.66016-1.51172,6.66992Z"/>
    <path class="cls-31" d="M1592.57039,440.05528l.23438,3.25781c2.01562-2.51953,4.71777-3.7793,8.10645-3.7793,2.98828,0,5.21289.87793,6.67285,2.63281s2.20703,4.37891,2.24219,7.87207v18.21973h-7.5332v-18.0791c0-1.60254-.34766-2.76562-1.04297-3.48828s-1.85059-1.08398-3.4668-1.08398c-2.12012,0-3.70996.90527-4.76953,2.7168v19.93457h-7.5332v-28.20312h7.08984Z"/>
    <path class="cls-31" d="M1654.2159,454.41758c0,4.34375-.98633,7.82422-2.95801,10.43945-1.97266,2.61523-4.63574,3.92285-7.98926,3.92285-2.85059,0-5.15234-.99023-6.90723-2.97168v13.29395h-7.5332v-39.04688h6.98535l.26074,2.7627c1.82422-2.18945,4.20508-3.28418,7.14258-3.28418,3.47461,0,6.17676,1.28613,8.10645,3.85742,1.92871,2.57227,2.89258,6.11719,2.89258,10.63477v.3916ZM1646.68367,453.84336c0-2.63184-.46582-4.66309-1.39453-6.09277-.93066-1.42871-2.28125-2.14355-4.05371-2.14355-2.36328,0-3.98828.90625-4.87402,2.71875v11.58301c.9209,1.86523,2.5625,2.79785,4.92578,2.79785,3.59766,0,5.39648-2.95508,5.39648-8.86328Z"/>
    <path class="cls-31" d="M1674.73055,447.11876c-1.02539-.13867-1.92871-.20801-2.71094-.20801-2.84961,0-4.71777.96387-5.60352,2.89258v18.45508h-7.5332v-28.20312h7.11621l.20801,3.3623c1.51172-2.58887,3.60547-3.88379,6.28223-3.88379.83398,0,1.61621.11328,2.3457.33887l-.10449,7.24609Z"/>
    <path class="cls-31" d="M1677.18172,453.8961c0-2.79785.53809-5.29199,1.61621-7.48145,1.07715-2.18945,2.62793-3.88379,4.65234-5.08203,2.02441-1.19922,4.375-1.79883,7.05078-1.79883,3.80566,0,6.91211,1.16406,9.31836,3.49219,2.40723,2.3291,3.74902,5.49219,4.02734,9.48828l.05273,1.92871c0,4.32715-1.20801,7.79883-3.62402,10.41406-2.41504,2.61523-5.65625,3.92285-9.72266,3.92285-4.06543,0-7.31152-1.30371-9.73535-3.91016s-3.63574-6.15137-3.63574-10.63477v-.33887ZM1684.71492,454.43028c0,2.68066.50293,4.73047,1.51172,6.14844,1.00684,1.41895,2.4502,2.12793,4.32617,2.12793,1.8252,0,3.25-.70117,4.27539-2.10156,1.02539-1.40137,1.53809-3.6416,1.53809-6.72266,0-2.62793-.5127-4.66406-1.53809-6.1084s-2.46777-2.16699-4.32715-2.16699c-1.8418,0-3.26758.71777-4.27441,2.15332-1.00879,1.43652-1.51172,3.66016-1.51172,6.66992Z"/>
    <path class="cls-31" d="M1707.36531,453.94786c0-4.39551.98535-7.89746,2.95801-10.50391,1.97266-2.60742,4.66992-3.91016,8.09375-3.91016,2.74512,0,5.0127,1.02539,6.80273,3.0752v-14.3877h7.55957v40.03711h-6.80371l-.36426-2.99805c-1.87695,2.34668-4.29297,3.51953-7.24609,3.51953-3.31934,0-5.98242-1.30762-7.98926-3.92285-2.00781-2.61523-3.01074-6.25195-3.01074-10.90918ZM1714.89851,454.48399c0,2.65332.45996,4.6875,1.38086,6.10156s2.25879,2.12109,4.01465,2.12109c2.32812,0,3.9707-.98633,4.92578-2.95898v-11.18164c-.9375-1.97266-2.56348-2.95898-4.87402-2.95898-3.63184,0-5.44727,2.95898-5.44727,8.87695Z"/>
    <path class="cls-31" d="M1755.50984,465.39122c-1.85938,2.25879-4.43164,3.38867-7.71582,3.38867-3.02344,0-5.33008-.86914-6.91992-2.60645-1.59082-1.7373-2.40332-4.28418-2.4375-7.6377v-18.48047h7.5332v18.24121c0,2.94043,1.33789,4.41016,4.01367,4.41016,2.55469,0,4.30957-.8877,5.26562-2.66211v-19.98926h7.55957v28.20312h-7.08984l-.20898-2.86719Z"/>
    <path class="cls-31" d="M1780.2198,462.70665c1.38965,0,2.51953-.38281,3.38867-1.14746s1.32031-1.78125,1.35547-3.0498h7.06348c-.01758,1.91211-.53809,3.66211-1.56348,5.25293-1.02539,1.58984-2.42871,2.82422-4.20996,3.70117s-3.74902,1.31641-5.9043,1.31641c-4.03125,0-7.21094-1.28125-9.54004-3.84473-2.32812-2.56348-3.49219-6.10352-3.49219-10.62207v-.49512c0-4.34473,1.15527-7.81152,3.4668-10.40039,2.31055-2.58887,5.48242-3.88379,9.51367-3.88379,3.52734,0,6.35547,1.00293,8.48438,3.01074,2.12891,2.00684,3.20996,4.67871,3.24512,8.01465h-7.06348c-.03516-1.4668-.48633-2.65918-1.35547-3.57617s-2.01562-1.37598-3.44043-1.37598c-1.75586,0-3.08105.63965-3.97559,1.91895-.89551,1.2793-1.3418,3.35449-1.3418,6.22559v.7832c0,2.90723.44238,4.99512,1.3291,6.26562.88574,1.27051,2.23242,1.90625,4.04004,1.90625Z"/>
    <path class="cls-31" d="M1805.34773,433.12169v6.93359h4.82227v5.52539h-4.82227v14.07617c0,1.04199.19922,1.79004.59961,2.24121.39941.45215,1.16406.67773,2.29395.67773.83398,0,1.57227-.06055,2.21582-.18262v5.70898c-1.47754.45117-2.99805.67773-4.56152.67773-5.2832,0-7.97656-2.66699-8.08105-8.00293v-15.19629h-4.11816v-5.52539h4.11816v-6.93359h7.5332Z"/>
  </g>
  <g>
    <path class="cls-31" d="M1455.17586,895.69004v-22.67773h-4.19629v-5.52539h4.19629v-2.39844c0-3.16211.9082-5.61719,2.72461-7.36328,1.81543-1.74707,4.35645-2.62012,7.62402-2.62012,1.04297,0,2.32031.17285,3.83203.5166l-.07812,5.79102c-.62598-.15625-1.39062-.23438-2.29395-.23438-2.83301,0-4.24902,1.34082-4.24902,4.02148v2.28711h5.60449v5.52539h-5.60449v22.67773h-7.55957Z"/>
    <path class="cls-31" d="M1472.19734,860.18809c0-1.12988.37793-2.05957,1.13379-2.78906.75684-.72949,1.78613-1.09473,3.08887-1.09473,1.28613,0,2.31152.36523,3.07617,1.09473s1.14648,1.65918,1.14648,2.78906c0,1.14648-.38672,2.08496-1.15918,2.81543-.77344.72949-1.79492,1.09473-3.06348,1.09473s-2.28906-.36523-3.0625-1.09473c-.77344-.73047-1.16016-1.66895-1.16016-2.81543ZM1480.20027,895.69004h-7.55957v-28.20312h7.55957v28.20312Z"/>
    <path class="cls-31" d="M1501.67781,887.8961c0-.9209-.45605-1.64648-1.36816-2.17676-.91211-.5293-2.37695-1.00293-4.39258-1.41992-6.70801-1.4082-10.06152-4.25781-10.06152-8.5498,0-2.50293,1.03809-4.5918,3.11523-6.26855,2.07617-1.67676,4.79199-2.51562,8.14551-2.51562,3.58008,0,6.44238.84277,8.58887,2.52832,2.14551,1.68555,3.21875,3.875,3.21875,6.56836h-7.5332c0-1.07715-.34766-1.96777-1.04199-2.67188-.69531-.70312-1.78125-1.05566-3.25879-1.05566-1.26855,0-2.25.28711-2.94531.86035s-1.04199,1.30371-1.04199,2.18945c0,.83398.39453,1.50781,1.18555,2.02051s2.12402.95605,4.00098,1.3291c1.87695.37402,3.45801.79492,4.74414,1.26465,3.97949,1.45898,5.96875,3.9873,5.96875,7.58496,0,2.57227-1.10352,4.65234-3.30957,6.24316-2.20703,1.58984-5.05762,2.38477-8.5498,2.38477-2.36328,0-4.46191-.42188-6.29492-1.26465-1.83398-.84277-3.27148-1.99805-4.31445-3.4668-1.04199-1.46777-1.56348-3.05371-1.56348-4.75684h7.1416c.06934,1.33887.56445,2.36328,1.48633,3.07617.9209.71289,2.1543,1.06836,3.70117,1.06836,1.44238,0,2.53223-.27344,3.27148-.82129.73828-.54688,1.10742-1.26367,1.10742-2.15039Z"/>
    <path class="cls-31" d="M1529.12605,887.8961c0-.9209-.45605-1.64648-1.36816-2.17676-.91211-.5293-2.37695-1.00293-4.39258-1.41992-6.70801-1.4082-10.06152-4.25781-10.06152-8.5498,0-2.50293,1.03809-4.5918,3.11523-6.26855,2.07617-1.67676,4.79199-2.51562,8.14551-2.51562,3.58008,0,6.44238.84277,8.58887,2.52832,2.14551,1.68555,3.21875,3.875,3.21875,6.56836h-7.5332c0-1.07715-.34766-1.96777-1.04199-2.67188-.69531-.70312-1.78125-1.05566-3.25879-1.05566-1.26855,0-2.25.28711-2.94531.86035s-1.04199,1.30371-1.04199,2.18945c0,.83398.39453,1.50781,1.18555,2.02051s2.12402.95605,4.00098,1.3291c1.87695.37402,3.45801.79492,4.74414,1.26465,3.97949,1.45898,5.96875,3.9873,5.96875,7.58496,0,2.57227-1.10352,4.65234-3.30957,6.24316-2.20703,1.58984-5.05762,2.38477-8.5498,2.38477-2.36328,0-4.46191-.42188-6.29492-1.26465-1.83398-.84277-3.27148-1.99805-4.31445-3.4668-1.04199-1.46777-1.56348-3.05371-1.56348-4.75684h7.1416c.06934,1.33887.56445,2.36328,1.48633,3.07617.9209.71289,2.1543,1.06836,3.70117,1.06836,1.44238,0,2.53223-.27344,3.27148-.82129.73828-.54688,1.10742-1.26367,1.10742-2.15039Z"/>
    <path class="cls-31" d="M1541.24617,860.18809c0-1.12988.37793-2.05957,1.13379-2.78906.75684-.72949,1.78613-1.09473,3.08887-1.09473,1.28613,0,2.31152.36523,3.07617,1.09473s1.14648,1.65918,1.14648,2.78906c0,1.14648-.38672,2.08496-1.15918,2.81543-.77344.72949-1.79492,1.09473-3.06348,1.09473s-2.28906-.36523-3.0625-1.09473c-.77344-.73047-1.16016-1.66895-1.16016-2.81543ZM1549.2491,895.69004h-7.55957v-28.20312h7.55957v28.20312Z"/>
    <path class="cls-31" d="M1554.27937,881.32774c0-2.79785.53809-5.29199,1.61621-7.48145,1.07715-2.18945,2.62793-3.88379,4.65234-5.08203,2.02441-1.19922,4.375-1.79883,7.05078-1.79883,3.80566,0,6.91211,1.16406,9.31836,3.49219,2.40723,2.3291,3.74902,5.49219,4.02734,9.48828l.05273,1.92871c0,4.32715-1.20801,7.79883-3.62402,10.41406-2.41504,2.61523-5.65625,3.92285-9.72266,3.92285-4.06543,0-7.31152-1.30371-9.73535-3.91016s-3.63574-6.15137-3.63574-10.63477v-.33887ZM1561.81258,881.86192c0,2.68066.50293,4.73047,1.51172,6.14844,1.00684,1.41895,2.4502,2.12793,4.32617,2.12793,1.8252,0,3.25-.70117,4.27539-2.10156,1.02539-1.40137,1.53809-3.6416,1.53809-6.72266,0-2.62793-.5127-4.66406-1.53809-6.1084s-2.46777-2.16699-4.32715-2.16699c-1.8418,0-3.26758.71777-4.27441,2.15332-1.00879,1.43652-1.51172,3.66016-1.51172,6.66992Z"/>
    <path class="cls-31" d="M1592.57039,867.48692l.23438,3.25781c2.01562-2.51953,4.71777-3.7793,8.10645-3.7793,2.98828,0,5.21289.87793,6.67285,2.63281s2.20703,4.37891,2.24219,7.87207v18.21973h-7.5332v-18.0791c0-1.60254-.34766-2.76562-1.04297-3.48828s-1.85059-1.08398-3.4668-1.08398c-2.12012,0-3.70996.90527-4.76953,2.7168v19.93457h-7.5332v-28.20312h7.08984Z"/>
    <path class="cls-31" d="M1654.2159,881.84922c0,4.34375-.98633,7.82422-2.95801,10.43945-1.97266,2.61523-4.63574,3.92285-7.98926,3.92285-2.85059,0-5.15234-.99023-6.90723-2.97168v13.29395h-7.5332v-39.04688h6.98535l.26074,2.7627c1.82422-2.18945,4.20508-3.28418,7.14258-3.28418,3.47461,0,6.17676,1.28613,8.10645,3.85742,1.92871,2.57227,2.89258,6.11719,2.89258,10.63477v.3916ZM1646.68367,881.27501c0-2.63184-.46582-4.66309-1.39453-6.09277-.93066-1.42871-2.28125-2.14355-4.05371-2.14355-2.36328,0-3.98828.90625-4.87402,2.71875v11.58301c.9209,1.86523,2.5625,2.79785,4.92578,2.79785,3.59766,0,5.39648-2.95508,5.39648-8.86328Z"/>
    <path class="cls-31" d="M1674.73055,874.5504c-1.02539-.13867-1.92871-.20801-2.71094-.20801-2.84961,0-4.71777.96387-5.60352,2.89258v18.45508h-7.5332v-28.20312h7.11621l.20801,3.3623c1.51172-2.58887,3.60547-3.88379,6.28223-3.88379.83398,0,1.61621.11328,2.3457.33887l-.10449,7.24609Z"/>
    <path class="cls-31" d="M1677.18172,881.32774c0-2.79785.53809-5.29199,1.61621-7.48145,1.07715-2.18945,2.62793-3.88379,4.65234-5.08203,2.02441-1.19922,4.375-1.79883,7.05078-1.79883,3.80566,0,6.91211,1.16406,9.31836,3.49219,2.40723,2.3291,3.74902,5.49219,4.02734,9.48828l.05273,1.92871c0,4.32715-1.20801,7.79883-3.62402,10.41406-2.41504,2.61523-5.65625,3.92285-9.72266,3.92285-4.06543,0-7.31152-1.30371-9.73535-3.91016s-3.63574-6.15137-3.63574-10.63477v-.33887ZM1684.71492,881.86192c0,2.68066.50293,4.73047,1.51172,6.14844,1.00684,1.41895,2.4502,2.12793,4.32617,2.12793,1.8252,0,3.25-.70117,4.27539-2.10156,1.02539-1.40137,1.53809-3.6416,1.53809-6.72266,0-2.62793-.5127-4.66406-1.53809-6.1084s-2.46777-2.16699-4.32715-2.16699c-1.8418,0-3.26758.71777-4.27441,2.15332-1.00879,1.43652-1.51172,3.66016-1.51172,6.66992Z"/>
    <path class="cls-31" d="M1707.36531,881.3795c0-4.39551.98535-7.89746,2.95801-10.50391,1.97266-2.60742,4.66992-3.91016,8.09375-3.91016,2.74512,0,5.0127,1.02539,6.80273,3.0752v-14.3877h7.55957v40.03711h-6.80371l-.36426-2.99805c-1.87695,2.34668-4.29297,3.51953-7.24609,3.51953-3.31934,0-5.98242-1.30762-7.98926-3.92285-2.00781-2.61523-3.01074-6.25195-3.01074-10.90918ZM1714.89851,881.91563c0,2.65332.45996,4.6875,1.38086,6.10156s2.25879,2.12109,4.01465,2.12109c2.32812,0,3.9707-.98633,4.92578-2.95898v-11.18164c-.9375-1.97266-2.56348-2.95898-4.87402-2.95898-3.63184,0-5.44727,2.95898-5.44727,8.87695Z"/>
    <path class="cls-31" d="M1755.50984,892.82286c-1.85938,2.25879-4.43164,3.38867-7.71582,3.38867-3.02344,0-5.33008-.86914-6.91992-2.60645-1.59082-1.7373-2.40332-4.28418-2.4375-7.6377v-18.48047h7.5332v18.24121c0,2.94043,1.33789,4.41016,4.01367,4.41016,2.55469,0,4.30957-.8877,5.26562-2.66211v-19.98926h7.55957v28.20312h-7.08984l-.20898-2.86719Z"/>
    <path class="cls-31" d="M1780.2198,890.13829c1.38965,0,2.51953-.38281,3.38867-1.14746s1.32031-1.78125,1.35547-3.0498h7.06348c-.01758,1.91211-.53809,3.66211-1.56348,5.25293-1.02539,1.58984-2.42871,2.82422-4.20996,3.70117s-3.74902,1.31641-5.9043,1.31641c-4.03125,0-7.21094-1.28125-9.54004-3.84473-2.32812-2.56348-3.49219-6.10352-3.49219-10.62207v-.49512c0-4.34473,1.15527-7.81152,3.4668-10.40039,2.31055-2.58887,5.48242-3.88379,9.51367-3.88379,3.52734,0,6.35547,1.00293,8.48438,3.01074,2.12891,2.00684,3.20996,4.67871,3.24512,8.01465h-7.06348c-.03516-1.4668-.48633-2.65918-1.35547-3.57617s-2.01562-1.37598-3.44043-1.37598c-1.75586,0-3.08105.63965-3.97559,1.91895-.89551,1.2793-1.3418,3.35449-1.3418,6.22559v.7832c0,2.90723.44238,4.99512,1.3291,6.26562.88574,1.27051,2.23242,1.90625,4.04004,1.90625Z"/>
    <path class="cls-31" d="M1805.34773,860.55333v6.93359h4.82227v5.52539h-4.82227v14.07617c0,1.04199.19922,1.79004.59961,2.24121.39941.45215,1.16406.67773,2.29395.67773.83398,0,1.57227-.06055,2.21582-.18262v5.70898c-1.47754.45117-2.99805.67773-4.56152.67773-5.2832,0-7.97656-2.66699-8.08105-8.00293v-15.19629h-4.11816v-5.52539h4.11816v-6.93359h7.5332Z"/>
  </g>
  <path class="cls-49" d="M764.46044,643.3304c13.92768,13.92753,36.51064,13.93367,50.44569-.00154,13.93352-13.93506,13.92906-36.51955.00154-50.4471-13.93506-13.93657-36.51663-13.93657-50.45168-.00154-13.93352,13.9337-13.93198,36.51512.00446,50.45017Z"/>
  <path class="cls-52" d="M838.44288,600.84954c13.92754,13.92753,36.51048,13.93352,50.44554-.00154,13.93367-13.93506,13.92906-36.51955.00154-50.44707-13.93506-13.93662-36.51646-13.93662-50.45168-.00154-13.93352,13.93352-13.93198,36.51509.00461,50.45015Z"/>
  <path class="cls-38" d="M1277.99271,410.31275c13.92904,13.92753,36.51199,13.93352,50.44705-.00154,13.93214-13.93509,13.92906-36.51955,0-50.44707-13.93506-13.93659-36.51509-13.93659-50.45012-.00154-13.93508,13.93367-13.93216,36.51506.00307,50.45015Z"/>
  <path class="cls-16" d="M879.02981,775.80665c13.92751,13.92909,36.51047,13.93216,50.44706-.0029,13.93214-13.93214,13.92906-36.51816,0-50.44492-13.93506-13.93659-36.51647-13.93813-50.45153-.00307-13.93367,13.93291-13.93214,36.51586.00447,50.45089Z"/>
  <path class="cls-15" d="M923.36509,749.71517c13.92768,13.92615,36.51064,13.93214,50.44723-.00292,13.93198-13.93429,13.92906-36.52032,0-50.44646-13.93506-13.93659-36.51663-13.93797-50.45168-.00294-13.93352,13.93354-13.93198,36.51511.00446,50.45232Z"/>
  <path class="cls-14" d="M926.272,701.6356c13.9277,13.92753,36.51064,13.93214,50.44723-.00292,13.93198-13.93367,13.92906-36.5197,0-50.44569-13.93506-13.93659-36.51663-13.93813-50.45168-.00307-13.93352,13.93367-13.93198,36.51509.00446,50.45168Z"/>
  <path class="cls-47" d="M879.56518,696.03041c13.9277,13.92768,36.51064,13.93367,50.44569-.00138,13.93352-13.93521,13.92906-36.5197.00154-50.44723-13.93506-13.93659-36.51663-13.93659-50.45168-.00154-13.93352,13.93367-13.93214,36.51509.00446,50.45015Z"/>
  <path class="cls-43" d="M744.5257,691.55783c13.92753,13.92768,36.51048,13.93214,50.44707-.00292,13.93214-13.93367,13.92906-36.51955,0-50.44569-13.93506-13.93659-36.51647-13.93797-50.45153-.00294-13.93367,13.93354-13.93214,36.51496.00446,50.45155Z"/>
  <path class="cls-50" d="M857.07612,650.99538c13.92768,13.92753,36.51064,13.93352,50.44569-.00154,13.93352-13.93508,13.92906-36.51955.00154-50.44707-13.93506-13.93659-36.51663-13.93659-50.45168-.00154-13.93352,13.93352-13.93198,36.51507.00446,50.45015Z"/>
  <path class="cls-13" d="M818.15368,651.43449c13.92753,13.92768,36.51064,13.93211,50.44723-.00292,13.93198-13.93367,13.92906-36.51955,0-50.44569-13.93521-13.93659-36.51663-13.93813-50.45168-.00292-13.93352,13.93352-13.93214,36.51494.00446,50.45153Z"/>
  <path class="cls-42" d="M834.33866,713.84768c13.9277,13.92753,36.51064,13.93198,50.44723-.00307,13.93198-13.93352,13.92906-36.51955,0-50.44556-13.93506-13.93657-36.51663-13.9381-50.45168-.00307-13.93352,13.93354-13.93214,36.51512.00446,50.45171Z"/>
  <path class="cls-33" d="M787.34363,687.10798c13.92753,13.92753,36.51065,13.93352,50.44569-.00154,13.93352-13.93506,13.92906-36.51955.00154-50.44723-13.93521-13.93659-36.51663-13.93659-50.45168-.00138-13.93352,13.93352-13.93212,36.51491.00446,50.45015Z"/>
  <path class="cls-35" d="M1307.71653,454.84295c13.92615,13.9275,36.5091,13.93352,50.44416-.00154,13.93506-13.93506,13.92906-36.51955.00307-50.44707-13.93506-13.93659-36.51816-13.93659-50.45322-.00154-13.93198,13.93349-13.93198,36.51509.00599,50.45015Z"/>
  <path class="cls-8" d="M1226.64607,442.17722c13.92906,13.92753,36.51202,13.93214,50.44707-.00292,13.93198-13.9337,13.92906-36.51955,0-50.44569-13.93506-13.93659-36.51509-13.93813-50.45015-.00307-13.93503,13.93367-13.93214,36.51506.00307,50.45168Z"/>
  <path class="cls-3" d="M1231.41843,524.76085c13.92906,13.92756,36.51202,13.93201,50.44707-.00307,13.93216-13.93349,13.92909-36.51952,0-50.44551-13.93506-13.93659-36.51507-13.93813-50.45015-.00307-13.93506,13.93352-13.93198,36.51509.00307,50.45166Z"/>
  <path class="cls-41" d="M1270.7052,475.99487c13.92906,13.92753,36.51202,13.93198,50.44707-.00307,13.93198-13.93352,13.92906-36.51955,0-50.44557-13.93506-13.93656-36.51509-13.9381-50.45015-.00307-13.93503,13.9337-13.93214,36.51512.00307,50.45171Z"/>
  <path class="cls-34" d="M1238.8886,877.88395c13.92904,13.92615,36.51199,13.93214,50.44705-.00292,13.93214-13.93506,13.92906-36.51816,0-50.44723-13.93506-13.93506-36.51509-13.93506-50.45012,0-13.93508,13.93214-13.93201,36.51509.00307,50.45015Z"/>
  <path class="cls-36" d="M1249.27991,953.8278c13.92906,13.92599,36.51202,13.93198,50.44707-.00307,13.93217-13.93506,13.92909-36.51801,0-50.44707-13.93506-13.93506-36.51506-13.93506-50.45015,0-13.93506,13.93198-13.93214,36.51509.00307,50.45015Z"/>
  <path class="cls-12" d="M1217.51201,935.62412c13.92906,13.92906,36.51205,13.93214,50.44707-.00292,13.93214-13.93214,13.92906-36.51816,0-50.44416-13.93503-13.93813-36.51509-13.93813-50.45015-.00307-13.93506,13.93214-13.93198,36.51509.00307,50.45015Z"/>
  <path class="cls-10" d="M1301.69841,946.30512c13.92906,13.92753,36.51202,13.93198,50.44707-.00307,13.93214-13.93354,13.92906-36.51955,0-50.44554-13.93506-13.93659-36.51494-13.93813-50.45015-.00307-13.93506,13.93367-13.93198,36.51507.00307,50.45168Z"/>
  <path class="cls-9" d="M1253.66052,914.2689c13.92906,13.92906,36.51202,13.93197,50.4471-.00307,13.93211-13.93198,13.92904-36.51801,0-50.44416-13.93508-13.93797-36.51512-13.93797-50.45018-.00292-13.93506,13.93198-13.93198,36.51509.00307,50.45015Z"/>
  <g>
    <line class="cls-45" x1="1018.26936" y1="671.79697" x2="1475.25817" y2="671.79697"/>
    <polyline class="cls-45" points="1442.12641 638.73204 1475.27169 671.79329 1442.12936 704.86127"/>
  </g>
  <g>
    <line class="cls-45" x1="427.71977" y1="671.79697" x2="689.45603" y2="671.79697"/>
    <polyline class="cls-45" points="656.32426 638.73204 689.46955 671.79329 656.32718 704.86127"/>
  </g>
  <g>
    <line class="cls-45" x1="1008.23968" y1="606.70521" x2="1202.81164" y2="500.09619"/>
    <polyline class="cls-45" points="1157.67569 487.69885 1202.82363 500.08635 1190.32582 545.20586"/>
  </g>
  <g>
    <line class="cls-45" x1="951.49269" y1="530.38327" x2="1137.67471" y2="301.46506"/>
    <polyline class="cls-45" points="1091.26344 307.54221 1137.68072 301.45154 1143.65952 347.88601"/>
  </g>
  <g>
    <line class="cls-45" x1="933.6515" y1="811.26783" x2="1126.11622" y2="1034.9296"/>
    <polyline class="cls-45" points="1128.32609 988.17481 1126.1282 1034.93713 1079.36744 1032.62817"/>
  </g>
  <g>
    <line class="cls-45" x1="1011.06777" y1="753.79615" x2="1182.341" y2="819.43562"/>
    <polyline class="cls-45" points="1162.10757 777.22824 1182.35606 819.43716 1140.09475 839.58502"/>
  </g>
  <path class="cls-6" d="M849.38007,756.19958c13.92753,13.9277,36.51064,13.93369,50.44569-.00136,13.93354-13.93521,13.92906-36.5197.00138-50.44723-13.93506-13.93659-36.51647-13.93659-50.45153-.00154-13.93367,13.93367-13.93214,36.51509.00446,50.45013Z"/>
  <path class="cls-11" d="M824.15929,781.42701c13.92767,13.92768,36.51062,13.93214,50.44723-.00292,13.93197-13.93367,13.92905-36.51955,0-50.44569-13.93507-13.93659-36.51665-13.93797-50.4517-.00292-13.93352,13.93352-13.93214,36.51494.00447,50.45153Z"/>
  <path class="cls-7" d="M1283.91944,537.11381c13.92771,13.92753,36.51064,13.93352,50.44569-.00154,13.93352-13.93506,13.92906-36.51958.00154-50.44707-13.93506-13.93659-36.51663-13.93659-50.45168-.00154-13.93352,13.93352-13.93214,36.51509.00446,50.45015Z"/>
  <path class="cls-5" d="M1293.01303,888.40901c13.92906,13.92751,36.51202,13.93366,50.44707-.00154,13.9306-13.93506,13.92753-36.51955,0-50.44707-13.93506-13.93659-36.51509-13.93659-50.45015-.00154-13.93506,13.93367-13.93198,36.51509.00307,50.45015Z"/>
</svg>