<?xml version="1.0" encoding="UTF-8"?>
<svg id="Ebene_2" data-name="Ebene 2" xmlns="http://www.w3.org/2000/svg" viewBox="0 0 1920 1041.29055">
  <defs>
    <style>
      .cls-1 {
        fill: #0d435c;
      }

      .cls-2 {
        stroke: #7996a5;
        stroke-width: 2px;
      }

      .cls-2, .cls-3, .cls-4 {
        fill: none;
        stroke-miterlimit: 10;
      }

      .cls-5 {
        fill: #aebfc7;
      }

      .cls-6 {
        fill: #f3f5f7;
      }

      .cls-3 {
        stroke-dasharray: 26.74232 26.74232;
      }

      .cls-3, .cls-4 {
        stroke: #0d435c;
        stroke-width: 2.21204px;
      }
    </style>
  </defs>
  <rect class="cls-6" x="-1.63796" y="-5.67172" width="1927.01778" height="1048.78032"/>
  <g>
    <path class="cls-1" d="M113.48828,155.69264v10.01953h-5.85938v-28.4375h11.09375c2.13525,0,4.01367.39062,5.63477,1.17188s2.86768,1.8916,3.74023,3.33008c.87207,1.43848,1.30859,3.07617,1.30859,4.91211,0,2.78613-.9541,4.9834-2.86133,6.5918-1.90771,1.6084-4.54785,2.41211-7.91992,2.41211h-5.13672ZM113.48828,150.94655h5.23438c1.54932,0,2.73096-.36426,3.54492-1.09375.81348-.72949,1.2207-1.77051,1.2207-3.125,0-1.39355-.41016-2.51953-1.23047-3.37891s-1.95312-1.30176-3.39844-1.32812h-5.37109v8.92578Z"/>
    <path class="cls-1" d="M144.93359,149.87233c-.76855-.10449-1.44531-.15625-2.03125-.15625-2.13574,0-3.53516.72266-4.19922,2.16797v13.82812h-5.64453v-21.13281h5.33203l.15625,2.51953c1.13281-1.94043,2.70166-2.91016,4.70703-2.91016.625,0,1.21094.08496,1.75781.25391l-.07812,5.42969Z"/>
    <path class="cls-1" d="M146.06641,154.95046c0-2.09668.40332-3.96484,1.21094-5.60547.80713-1.64062,1.96924-2.91016,3.48633-3.80859,1.5166-.89844,3.27832-1.34766,5.2832-1.34766,2.85156,0,5.17871.87207,6.98242,2.61719s2.80957,4.11426,3.01758,7.10938l.03906,1.44531c0,3.24219-.90527,5.84277-2.71484,7.80273s-4.23828,2.93945-7.28516,2.93945-5.47852-.97656-7.29492-2.92969-2.72461-4.60938-2.72461-7.96875v-.25391ZM151.71094,155.35085c0,2.00879.37793,3.54395,1.13281,4.60742.75488,1.0625,1.83594,1.59375,3.24219,1.59375,1.36719,0,2.43457-.52539,3.20312-1.57422.76855-1.05078,1.15234-2.72949,1.15234-5.03711,0-1.96973-.38379-3.49512-1.15234-4.57812-.76855-1.08203-1.84863-1.62305-3.24219-1.62305-1.37988,0-2.44824.53809-3.20312,1.61328-.75488,1.07617-1.13281,2.74219-1.13281,4.99805Z"/>
    <path class="cls-1" d="M168.68359,154.98952c0-3.29395.73926-5.91797,2.2168-7.87109s3.49902-2.92969,6.06445-2.92969c2.05762,0,3.75684.76855,5.09766,2.30469v-10.78125h5.66406v30h-5.09766l-.27344-2.24609c-1.40625,1.75781-3.21582,2.63672-5.42969,2.63672-2.4873,0-4.48242-.97949-5.98633-2.93945s-2.25586-4.68457-2.25586-8.17383ZM174.32812,155.39089c0,1.98828.34473,3.5127,1.03516,4.57129.69043,1.06055,1.69238,1.58984,3.00781,1.58984,1.74512,0,2.97559-.73926,3.69141-2.2168v-8.37891c-.70312-1.47754-1.9209-2.2168-3.65234-2.2168-2.72168,0-4.08203,2.21777-4.08203,6.65137Z"/>
    <path class="cls-1" d="M204.75781,163.56374c-1.39355,1.69238-3.32031,2.53906-5.78125,2.53906-2.26562,0-3.99414-.65137-5.18555-1.95312s-1.7998-3.20996-1.82617-5.72266v-13.84766h5.64453v13.66797c0,2.20312,1.00293,3.30469,3.00781,3.30469,1.91406,0,3.22949-.66504,3.94531-1.99414v-14.97852h5.66406v21.13281h-5.3125l-.15625-2.14844Z"/>
    <path class="cls-1" d="M223.27344,161.55202c1.04199,0,1.8877-.28613,2.53906-.85938s.98926-1.33496,1.01562-2.28516h5.29297c-.0127,1.43262-.40332,2.74414-1.17188,3.93555s-1.81934,2.11621-3.1543,2.77344-2.80957.98633-4.42383.98633c-3.02051,0-5.40332-.95996-7.14844-2.88086s-2.61719-4.57324-2.61719-7.95898v-.37109c0-3.25488.86621-5.85254,2.59766-7.79297s4.1084-2.91016,7.12891-2.91016c2.64355,0,4.7627.75195,6.35742,2.25586s2.40527,3.50586,2.43164,6.00586h-5.29297c-.02637-1.09961-.36426-1.99316-1.01562-2.67969-.65137-.6875-1.51074-1.03125-2.57812-1.03125-1.31543,0-2.30762.47949-2.97852,1.4375-.6709.95898-1.00586,2.51367-1.00586,4.66504v.58691c0,2.17871.33203,3.74316.99609,4.69531s1.67285,1.42773,3.02734,1.42773Z"/>
    <path class="cls-1" d="M242.10156,139.38405v5.19531h3.61328v4.14062h-3.61328v10.54688c0,.78125.14941,1.34082.44922,1.67969s.87207.50781,1.71875.50781c.625,0,1.17871-.0459,1.66016-.13672v4.27734c-1.10645.33887-2.24609.50781-3.41797.50781-3.95801,0-5.97656-1.99902-6.05469-5.99609v-11.38672h-3.08594v-4.14062h3.08594v-5.19531h5.64453Z"/>
    <path class="cls-1" d="M248.82031,139.11061c0-.84668.2832-1.54297.84961-2.08984s1.33789-.82031,2.31445-.82031c.96387,0,1.73145.27344,2.30469.82031s.85938,1.24316.85938,2.08984c0,.85938-.29004,1.5625-.86914,2.10938s-1.34473.82031-2.29492.82031-1.71582-.27344-2.29492-.82031-.86914-1.25-.86914-2.10938ZM254.81641,165.71218h-5.66406v-21.13281h5.66406v21.13281Z"/>
    <path class="cls-1" d="M258.58594,154.95046c0-2.09668.40332-3.96484,1.21094-5.60547s1.96973-2.91016,3.48633-3.80859,3.27832-1.34766,5.2832-1.34766c2.85156,0,5.17871.87207,6.98242,2.61719s2.80957,4.11426,3.01758,7.10938l.03906,1.44531c0,3.24219-.90527,5.84277-2.71484,7.80273s-4.23828,2.93945-7.28516,2.93945-5.47852-.97656-7.29492-2.92969-2.72461-4.60938-2.72461-7.96875v-.25391ZM264.23047,155.35085c0,2.00879.37793,3.54395,1.13281,4.60742.75488,1.0625,1.83594,1.59375,3.24219,1.59375,1.36719,0,2.43457-.52539,3.20312-1.57422.76855-1.05078,1.15234-2.72949,1.15234-5.03711,0-1.96973-.38379-3.49512-1.15234-4.57812-.76855-1.08203-1.84863-1.62305-3.24219-1.62305-1.37988,0-2.44824.53809-3.20312,1.61328-.75488,1.07617-1.13281,2.74219-1.13281,4.99805Z"/>
    <path class="cls-1" d="M287.27734,144.57936l.17578,2.44141c1.51074-1.8877,3.53516-2.83203,6.07422-2.83203,2.23926,0,3.90625.65723,5,1.97266s1.65332,3.28125,1.67969,5.89844v13.65234h-5.64453v-13.54688c0-1.2002-.26074-2.07129-.78125-2.61328-.52051-.54102-1.38672-.8125-2.59766-.8125-1.58887,0-2.78027.67871-3.57422,2.03613v14.93652h-5.64453v-21.13281h5.3125Z"/>
    <path class="cls-1" d="M333.46875,155.34108c0,3.25488-.73926,5.8623-2.2168,7.82227s-3.47363,2.93945-5.98633,2.93945c-2.13574,0-3.86035-.74219-5.17578-2.22656v9.96094h-5.64453v-29.25781h5.23438l.19531,2.07031c1.36719-1.64062,3.15137-2.46094,5.35156-2.46094,2.60449,0,4.62891.96387,6.07422,2.89062s2.16797,4.58301,2.16797,7.96875v.29297ZM327.82422,154.91042c0-1.97168-.34863-3.49316-1.04492-4.56445s-1.70898-1.60645-3.03711-1.60645c-1.77051,0-2.98828.67969-3.65234,2.03711v8.67871c.69043,1.39844,1.9209,2.09668,3.69141,2.09668,2.69531,0,4.04297-2.21387,4.04297-6.6416Z"/>
    <path class="cls-1" d="M346.69141,166.1028c-3.09863,0-5.62207-.9502-7.56836-2.85156s-2.91992-4.43359-2.91992-7.59766v-.54688c0-2.12207.41016-4.02051,1.23047-5.69336s1.98242-2.96191,3.48633-3.86719,3.21973-1.35742,5.14648-1.35742c2.89062,0,5.16602.91113,6.82617,2.73438s2.49023,4.40723,2.49023,7.75391v2.30469h-13.45703c.18262,1.37988.73242,2.4873,1.65039,3.32031s2.08008,1.25,3.48633,1.25c2.1748,0,3.87402-.78809,5.09766-2.36328l2.77344,3.10547c-.84668,1.19824-1.99219,2.13184-3.4375,2.80273s-3.04688,1.00586-4.80469,1.00586ZM346.04688,148.73952c-1.12012,0-2.02832.37891-2.72461,1.1377s-1.14258,1.84473-1.33789,3.25684h7.85156v-.45117c-.02637-1.25586-.36426-2.22656-1.01562-2.91309s-1.5752-1.03027-2.77344-1.03027Z"/>
    <path class="cls-1" d="M370.46094,149.87233c-.76855-.10449-1.44531-.15625-2.03125-.15625-2.13574,0-3.53516.72266-4.19922,2.16797v13.82812h-5.64453v-21.13281h5.33203l.15625,2.51953c1.13281-1.94043,2.70215-2.91016,4.70703-2.91016.625,0,1.21094.08496,1.75781.25391l-.07812,5.42969Z"/>
    <path class="cls-1" d="M373.13672,139.11061c0-.84668.2832-1.54297.84961-2.08984s1.33789-.82031,2.31445-.82031c.96387,0,1.73145.27344,2.30469.82031s.85938,1.24316.85938,2.08984c0,.85938-.29004,1.5625-.86914,2.10938s-1.34473.82031-2.29492.82031-1.71582-.27344-2.29492-.82031-.86914-1.25-.86914-2.10938ZM379.13281,165.71218h-5.66406v-21.13281h5.66406v21.13281Z"/>
    <path class="cls-1" d="M382.90234,154.95046c0-2.09668.40332-3.96484,1.21094-5.60547s1.96973-2.91016,3.48633-3.80859,3.27832-1.34766,5.2832-1.34766c2.85156,0,5.17871.87207,6.98242,2.61719s2.80957,4.11426,3.01758,7.10938l.03906,1.44531c0,3.24219-.90527,5.84277-2.71484,7.80273s-4.23828,2.93945-7.28516,2.93945-5.47852-.97656-7.29492-2.92969-2.72461-4.60938-2.72461-7.96875v-.25391ZM388.54688,155.35085c0,2.00879.37793,3.54395,1.13281,4.60742.75488,1.0625,1.83594,1.59375,3.24219,1.59375,1.36719,0,2.43457-.52539,3.20312-1.57422.76855-1.05078,1.15234-2.72949,1.15234-5.03711,0-1.96973-.38379-3.49512-1.15234-4.57812-.76855-1.08203-1.84863-1.62305-3.24219-1.62305-1.37988,0-2.44824.53809-3.20312,1.61328-.75488,1.07617-1.13281,2.74219-1.13281,4.99805Z"/>
    <path class="cls-1" d="M405.51953,154.98952c0-3.29395.73926-5.91797,2.2168-7.87109s3.49902-2.92969,6.06445-2.92969c2.05762,0,3.75684.76855,5.09766,2.30469v-10.78125h5.66406v30h-5.09766l-.27344-2.24609c-1.40625,1.75781-3.21582,2.63672-5.42969,2.63672-2.4873,0-4.48242-.97949-5.98633-2.93945s-2.25586-4.68457-2.25586-8.17383ZM411.16406,155.39089c0,1.98828.34473,3.5127,1.03516,4.57129.69043,1.06055,1.69238,1.58984,3.00781,1.58984,1.74512,0,2.97559-.73926,3.69141-2.2168v-8.37891c-.70312-1.47754-1.9209-2.2168-3.65234-2.2168-2.72168,0-4.08203,2.21777-4.08203,6.65137Z"/>
    <path class="cls-1" d="M438.01953,154.95046c0-2.09668.40332-3.96484,1.21094-5.60547s1.96973-2.91016,3.48633-3.80859,3.27832-1.34766,5.2832-1.34766c2.85156,0,5.17871.87207,6.98242,2.61719s2.80957,4.11426,3.01758,7.10938l.03906,1.44531c0,3.24219-.90527,5.84277-2.71484,7.80273s-4.23828,2.93945-7.28516,2.93945-5.47852-.97656-7.29492-2.92969-2.72461-4.60938-2.72461-7.96875v-.25391ZM443.66406,155.35085c0,2.00879.37793,3.54395,1.13281,4.60742.75488,1.0625,1.83594,1.59375,3.24219,1.59375,1.36719,0,2.43457-.52539,3.20312-1.57422.76855-1.05078,1.15234-2.72949,1.15234-5.03711,0-1.96973-.38379-3.49512-1.15234-4.57812-.76855-1.08203-1.84863-1.62305-3.24219-1.62305-1.37988,0-2.44824.53809-3.20312,1.61328-.75488,1.07617-1.13281,2.74219-1.13281,4.99805Z"/>
    <path class="cls-1" d="M463.05859,165.71218v-16.99219h-3.14453v-4.14062h3.14453v-1.79688c0-2.37012.68066-4.20898,2.04102-5.51758s3.26465-1.96289,5.71289-1.96289c.78125,0,1.73828.12891,2.87109.3877l-.05859,4.33887c-.46875-.11719-1.04199-.17578-1.71875-.17578-2.12207,0-3.18359,1.00488-3.18359,3.01367v1.71289h4.19922v4.14062h-4.19922v16.99219h-5.66406Z"/>
    <path class="cls-1" d="M509.32812,165.71218h-5.85938v-12.1875h-11.42578v12.1875h-5.85938v-28.4375h5.85938v11.52344h11.42578v-11.52344h5.85938v28.4375Z"/>
    <path class="cls-1" d="M531.55469,153.34889h-11.25v7.65625h13.20312v4.70703h-19.0625v-28.4375h19.02344v4.74609h-13.16406v6.77734h11.25v4.55078Z"/>
    <path class="cls-1" d="M558.46875,137.27468v18.73047c0,3.1123-.97363,5.57324-2.91992,7.38281s-4.60645,2.71484-7.97852,2.71484c-3.32031,0-5.95703-.87891-7.91016-2.63672s-2.94922-4.17285-2.98828-7.24609v-18.94531h5.85938v18.76953c0,1.8623.44629,3.21973,1.33789,4.07227s2.12598,1.2793,3.70117,1.2793c3.29395,0,4.96777-1.73145,5.01953-5.19531v-18.92578h5.87891Z"/>
  </g>
  <g>
    <path class="cls-1" d="M129.68945,249.82643v18.73047c0,3.1123-.97363,5.57324-2.91992,7.38281-1.94678,1.80957-4.60645,2.71484-7.97852,2.71484-3.32031,0-5.95703-.87891-7.91016-2.63672s-2.94922-4.17285-2.98828-7.24609v-18.94531h5.85938v18.76953c0,1.8623.4458,3.21973,1.33789,4.07227.8916.85254,2.12549,1.2793,3.70117,1.2793,3.29395,0,4.96729-1.73145,5.01953-5.19531v-18.92578h5.87891Z"/>
    <path class="cls-1" d="M139.31836,257.13112l.17578,2.44141c1.51025-1.8877,3.53516-2.83203,6.07422-2.83203,2.23926,0,3.90625.65723,5,1.97266s1.65332,3.28125,1.67969,5.89844v13.65234h-5.64453v-13.54688c0-1.2002-.26074-2.07129-.78125-2.61328-.521-.54102-1.38672-.8125-2.59766-.8125-1.58887,0-2.78027.67871-3.57422,2.03613v14.93652h-5.64453v-21.13281h5.3125Z"/>
    <path class="cls-1" d="M156.48633,251.66237c0-.84668.2832-1.54297.84961-2.08984s1.33789-.82031,2.31445-.82031c.96387,0,1.73145.27344,2.30469.82031s.85938,1.24316.85938,2.08984c0,.85938-.29004,1.5625-.86914,2.10938s-1.34473.82031-2.29492.82031-1.71582-.27344-2.29492-.82031-.86914-1.25-.86914-2.10938ZM162.48242,278.26393h-5.66406v-21.13281h5.66406v21.13281Z"/>
    <path class="cls-1" d="M173.88867,251.93581v5.19531h3.61328v4.14062h-3.61328v10.54688c0,.78125.14941,1.34082.44922,1.67969s.87207.50781,1.71875.50781c.625,0,1.17871-.0459,1.66016-.13672v4.27734c-1.10645.33887-2.24609.50781-3.41797.50781-3.95801,0-5.97656-1.99902-6.05469-5.99609v-11.38672h-3.08594v-4.14062h3.08594v-5.19531h5.64453Z"/>
    <path class="cls-1" d="M190.37305,278.65456c-3.09863,0-5.62207-.9502-7.56836-2.85156s-2.91992-4.43359-2.91992-7.59766v-.54688c0-2.12207.41016-4.02051,1.23047-5.69336s1.98242-2.96191,3.48633-3.86719,3.21973-1.35742,5.14648-1.35742c2.89062,0,5.16602.91113,6.82617,2.73438s2.49023,4.40723,2.49023,7.75391v2.30469h-13.45703c.18262,1.37988.73242,2.4873,1.65039,3.32031s2.08008,1.25,3.48633,1.25c2.1748,0,3.87402-.78809,5.09766-2.36328l2.77344,3.10547c-.84668,1.19824-1.99219,2.13184-3.4375,2.80273s-3.04688,1.00586-4.80469,1.00586ZM189.72852,261.29128c-1.12012,0-2.02832.37891-2.72461,1.1377s-1.14258,1.84473-1.33789,3.25684h7.85156v-.45117c-.02637-1.25586-.36426-2.22656-1.01562-2.91309s-1.5752-1.03027-2.77344-1.03027Z"/>
    <path class="cls-1" d="M201.38867,267.54128c0-3.29395.73926-5.91797,2.2168-7.87109s3.49902-2.92969,6.06445-2.92969c2.05762,0,3.75684.76855,5.09766,2.30469v-10.78125h5.66406v30h-5.09766l-.27344-2.24609c-1.40625,1.75781-3.21582,2.63672-5.42969,2.63672-2.4873,0-4.48242-.97949-5.98633-2.93945s-2.25586-4.68457-2.25586-8.17383ZM207.0332,267.94264c0,1.98828.34473,3.5127,1.03516,4.57129.69043,1.06055,1.69238,1.58984,3.00781,1.58984,1.74512,0,2.97559-.73926,3.69141-2.2168v-8.37891c-.70312-1.47754-1.9209-2.2168-3.65234-2.2168-2.72168,0-4.08203,2.21777-4.08203,6.65137Z"/>
    <path class="cls-1" d="M249.88477,270.803c0-1.10645-.39062-1.95605-1.17188-2.54883s-2.1875-1.21777-4.21875-1.875-3.63965-1.30566-4.82422-1.94336c-3.22949-1.74512-4.84375-4.09473-4.84375-7.05078,0-1.53613.43262-2.90723,1.29883-4.11133s2.10938-2.14551,3.73047-2.82227,3.44043-1.01562,5.45898-1.01562c2.03125,0,3.84082.36816,5.42969,1.10352s2.82227,1.77441,3.70117,3.11523,1.31836,2.86426,1.31836,4.57031h-5.85938c0-1.30176-.41016-2.31445-1.23047-3.03711s-1.97266-1.08398-3.45703-1.08398c-1.43262,0-2.5459.30273-3.33984.9082s-1.19141,1.40332-1.19141,2.39258c0,.9248.46582,1.69922,1.39648,2.32422s2.30176,1.21094,4.11133,1.75781c3.33301,1.00293,5.76172,2.24609,7.28516,3.73047s2.28516,3.33301,2.28516,5.54688c0,2.46094-.93066,4.3916-2.79297,5.79102s-4.36816,2.09961-7.51953,2.09961c-2.1875,0-4.17969-.40039-5.97656-1.20117s-3.16699-1.89746-4.11133-3.29102-1.41602-3.00781-1.41602-4.84375h5.87891c0,3.1377,1.875,4.70703,5.625,4.70703,1.39355,0,2.48047-.2832,3.26172-.84961s1.17188-1.35742,1.17188-2.37305Z"/>
    <path class="cls-1" d="M266.11523,251.93581v5.19531h3.61328v4.14062h-3.61328v10.54688c0,.78125.14941,1.34082.44922,1.67969s.87207.50781,1.71875.50781c.625,0,1.17871-.0459,1.66016-.13672v4.27734c-1.10645.33887-2.24609.50781-3.41797.50781-3.95801,0-5.97656-1.99902-6.05469-5.99609v-11.38672h-3.08594v-4.14062h3.08594v-5.19531h5.64453Z"/>
    <path class="cls-1" d="M285.11914,278.26393c-.26074-.50781-.44922-1.13965-.56641-1.89453-1.36719,1.52344-3.14453,2.28516-5.33203,2.28516-2.07031,0-3.78613-.59863-5.14648-1.79688s-2.04102-2.70801-2.04102-4.53125c0-2.23926.83008-3.95801,2.49023-5.15625s4.05957-1.80371,7.19727-1.81641h2.59766v-1.21094c0-.97656-.25098-1.75781-.75195-2.34375s-1.29199-.87891-2.37305-.87891c-.9502,0-1.69629.22754-2.23633.68359s-.81055,1.08105-.81055,1.875h-5.64453c0-1.22363.37793-2.35645,1.13281-3.39844s1.82324-1.8584,3.20312-2.45117,2.92969-.88867,4.64844-.88867c2.60449,0,4.6709.6543,6.20117,1.96289s2.29492,3.14746,2.29492,5.51758v9.16016c.0127,2.00488.29297,3.52246.83984,4.55078v.33203h-5.70312ZM280.45117,274.33815c.83301,0,1.60156-.18555,2.30469-.55664s1.22363-.86914,1.5625-1.49414v-3.63281h-2.10938c-2.8252,0-4.3291.97656-4.51172,2.92969l-.01953.33203c0,.70312.24707,1.28223.74219,1.73828s1.17188.68359,2.03125.68359Z"/>
    <path class="cls-1" d="M301.07617,251.93581v5.19531h3.61328v4.14062h-3.61328v10.54688c0,.78125.14941,1.34082.44922,1.67969s.87207.50781,1.71875.50781c.625,0,1.17871-.0459,1.66016-.13672v4.27734c-1.10645.33887-2.24609.50781-3.41797.50781-3.95801,0-5.97656-1.99902-6.05469-5.99609v-11.38672h-3.08594v-4.14062h3.08594v-5.19531h5.64453Z"/>
    <path class="cls-1" d="M317.56055,278.65456c-3.09863,0-5.62207-.9502-7.56836-2.85156s-2.91992-4.43359-2.91992-7.59766v-.54688c0-2.12207.41016-4.02051,1.23047-5.69336s1.98242-2.96191,3.48633-3.86719,3.21973-1.35742,5.14648-1.35742c2.89062,0,5.16602.91113,6.82617,2.73438s2.49023,4.40723,2.49023,7.75391v2.30469h-13.45703c.18262,1.37988.73242,2.4873,1.65039,3.32031s2.08008,1.25,3.48633,1.25c2.1748,0,3.87402-.78809,5.09766-2.36328l2.77344,3.10547c-.84668,1.19824-1.99219,2.13184-3.4375,2.80273s-3.04688,1.00586-4.80469,1.00586ZM316.91602,261.29128c-1.12012,0-2.02832.37891-2.72461,1.1377s-1.14258,1.84473-1.33789,3.25684h7.85156v-.45117c-.02637-1.25586-.36426-2.22656-1.01562-2.91309s-1.5752-1.03027-2.77344-1.03027Z"/>
    <path class="cls-1" d="M340.90039,272.42409c0-.69043-.3418-1.2334-1.02539-1.63086s-1.78027-.75195-3.29102-1.06445c-5.02637-1.05469-7.53906-3.19043-7.53906-6.40625,0-1.875.77832-3.44043,2.33398-4.69727s3.59082-1.88477,6.10352-1.88477c2.68262,0,4.82715.63184,6.43555,1.89453s2.41211,2.90332,2.41211,4.92188h-5.64453c0-.80762-.26074-1.47461-.78125-2.00195s-1.33496-.79102-2.44141-.79102c-.9502,0-1.68652.21484-2.20703.64453s-.78125.97656-.78125,1.64062c0,.625.2959,1.12988.88867,1.51367s1.5918.71582,2.99805.99609,2.59082.5957,3.55469.94727c2.98145,1.09375,4.47266,2.98828,4.47266,5.68359,0,1.92676-.82715,3.48633-2.48047,4.67773s-3.78906,1.78711-6.40625,1.78711c-1.77051,0-3.34277-.31543-4.7168-.94727s-2.45117-1.49707-3.23242-2.59766-1.17188-2.28809-1.17188-3.56445h5.35156c.05176,1.00293.42285,1.77051,1.11328,2.30469s1.61426.80078,2.77344.80078c1.08105,0,1.89746-.20508,2.45117-.61523s.83008-.94727.83008-1.61133Z"/>
    <path class="cls-1" d="M118.69336,338.63893h-4.66797v10.41016h-5.85938v-28.4375h10.56641c3.35938,0,5.9502.74902,7.77344,2.24609,1.82275,1.49707,2.73438,3.61328,2.73438,6.34766,0,1.94043-.41992,3.55762-1.25977,4.85352s-2.11279,2.32715-3.81836,3.0957l6.15234,11.62109v.27344h-6.28906l-5.33203-10.41016ZM114.02539,333.89284h4.72656c1.47119,0,2.61035-.37402,3.41797-1.12305.80713-.74902,1.21094-1.78027,1.21094-3.0957,0-1.34082-.38086-2.39551-1.14258-3.16406s-1.93066-1.15234-3.50586-1.15234h-4.70703v8.53516Z"/>
    <path class="cls-1" d="M145.97852,346.90065c-1.39355,1.69238-3.32031,2.53906-5.78125,2.53906-2.26562,0-3.99414-.65137-5.18555-1.95312s-1.80029-3.20996-1.82617-5.72266v-13.84766h5.64453v13.66797c0,2.20312,1.00244,3.30469,3.00781,3.30469,1.91406,0,3.229-.66504,3.94531-1.99414v-14.97852h5.66406v21.13281h-5.3125l-.15625-2.14844Z"/>
    <path class="cls-1" d="M167.15039,343.20925c0-.69043-.3418-1.2334-1.02539-1.63086s-1.78027-.75195-3.29102-1.06445c-5.02637-1.05469-7.53906-3.19043-7.53906-6.40625,0-1.875.77832-3.44043,2.33398-4.69727s3.59082-1.88477,6.10352-1.88477c2.68262,0,4.82715.63184,6.43555,1.89453s2.41211,2.90332,2.41211,4.92188h-5.64453c0-.80762-.26074-1.47461-.78125-2.00195s-1.33496-.79102-2.44141-.79102c-.9502,0-1.68652.21484-2.20703.64453s-.78125.97656-.78125,1.64062c0,.625.2959,1.12988.88867,1.51367s1.5918.71582,2.99805.99609,2.59082.5957,3.55469.94727c2.98145,1.09375,4.47266,2.98828,4.47266,5.68359,0,1.92676-.82715,3.48633-2.48047,4.67773s-3.78906,1.78711-6.40625,1.78711c-1.77051,0-3.34277-.31543-4.7168-.94727s-2.45117-1.49707-3.23242-2.59766-1.17188-2.28809-1.17188-3.56445h5.35156c.05176,1.00293.42285,1.77051,1.11328,2.30469s1.61426.80078,2.77344.80078c1.08105,0,1.89746-.20508,2.45117-.61523s.83008-.94727.83008-1.61133Z"/>
    <path class="cls-1" d="M187.7168,343.20925c0-.69043-.3418-1.2334-1.02539-1.63086s-1.78027-.75195-3.29102-1.06445c-5.02637-1.05469-7.53906-3.19043-7.53906-6.40625,0-1.875.77832-3.44043,2.33398-4.69727s3.59082-1.88477,6.10352-1.88477c2.68262,0,4.82715.63184,6.43555,1.89453s2.41211,2.90332,2.41211,4.92188h-5.64453c0-.80762-.26074-1.47461-.78125-2.00195s-1.33496-.79102-2.44141-.79102c-.9502,0-1.68652.21484-2.20703.64453s-.78125.97656-.78125,1.64062c0,.625.2959,1.12988.88867,1.51367s1.5918.71582,2.99805.99609,2.59082.5957,3.55469.94727c2.98145,1.09375,4.47266,2.98828,4.47266,5.68359,0,1.92676-.82715,3.48633-2.48047,4.67773s-3.78906,1.78711-6.40625,1.78711c-1.77051,0-3.34277-.31543-4.7168-.94727s-2.45117-1.49707-3.23242-2.59766-1.17188-2.28809-1.17188-3.56445h5.35156c.05176,1.00293.42285,1.77051,1.11328,2.30469s1.61426.80078,2.77344.80078c1.08105,0,1.89746-.20508,2.45117-.61523s.83008-.94727.83008-1.61133Z"/>
    <path class="cls-1" d="M196.79883,322.44753c0-.84668.2832-1.54297.84961-2.08984s1.33789-.82031,2.31445-.82031c.96387,0,1.73145.27344,2.30469.82031s.85938,1.24316.85938,2.08984c0,.85938-.29004,1.5625-.86914,2.10938s-1.34473.82031-2.29492.82031-1.71582-.27344-2.29492-.82031-.86914-1.25-.86914-2.10938ZM202.79492,349.04909h-5.66406v-21.13281h5.66406v21.13281Z"/>
    <path class="cls-1" d="M219.68945,349.04909c-.26074-.50781-.44922-1.13965-.56641-1.89453-1.36719,1.52344-3.14453,2.28516-5.33203,2.28516-2.07031,0-3.78613-.59863-5.14648-1.79688s-2.04102-2.70801-2.04102-4.53125c0-2.23926.83008-3.95801,2.49023-5.15625s4.05957-1.80371,7.19727-1.81641h2.59766v-1.21094c0-.97656-.25098-1.75781-.75195-2.34375s-1.29199-.87891-2.37305-.87891c-.9502,0-1.69629.22754-2.23633.68359s-.81055,1.08105-.81055,1.875h-5.64453c0-1.22363.37793-2.35645,1.13281-3.39844s1.82324-1.8584,3.20312-2.45117,2.92969-.88867,4.64844-.88867c2.60449,0,4.6709.6543,6.20117,1.96289s2.29492,3.14746,2.29492,5.51758v9.16016c.0127,2.00488.29297,3.52246.83984,4.55078v.33203h-5.70312ZM215.02148,345.12331c.83301,0,1.60156-.18555,2.30469-.55664s1.22363-.86914,1.5625-1.49414v-3.63281h-2.10938c-2.8252,0-4.3291.97656-4.51172,2.92969l-.01953.33203c0,.70312.24707,1.28223.74219,1.73828s1.17188.68359,2.03125.68359Z"/>
    <path class="cls-1" d="M129.68945,391.39675v18.73047c0,3.1123-.97363,5.57324-2.91992,7.38281-1.94678,1.80957-4.60645,2.71484-7.97852,2.71484-3.32031,0-5.95703-.87891-7.91016-2.63672s-2.94922-4.17285-2.98828-7.24609v-18.94531h5.85938v18.76953c0,1.8623.4458,3.21973,1.33789,4.07227.8916.85254,2.12549,1.2793,3.70117,1.2793,3.29395,0,4.96729-1.73145,5.01953-5.19531v-18.92578h5.87891Z"/>
    <path class="cls-1" d="M139.31836,398.70143l.17578,2.44141c1.51025-1.8877,3.53516-2.83203,6.07422-2.83203,2.23926,0,3.90625.65723,5,1.97266s1.65332,3.28125,1.67969,5.89844v13.65234h-5.64453v-13.54688c0-1.2002-.26074-2.07129-.78125-2.61328-.521-.54102-1.38672-.8125-2.59766-.8125-1.58887,0-2.78027.67871-3.57422,2.03613v14.93652h-5.64453v-21.13281h5.3125Z"/>
    <path class="cls-1" d="M156.48633,393.23268c0-.84668.2832-1.54297.84961-2.08984s1.33789-.82031,2.31445-.82031c.96387,0,1.73145.27344,2.30469.82031s.85938,1.24316.85938,2.08984c0,.85938-.29004,1.5625-.86914,2.10938s-1.34473.82031-2.29492.82031-1.71582-.27344-2.29492-.82031-.86914-1.25-.86914-2.10938ZM162.48242,419.83425h-5.66406v-21.13281h5.66406v21.13281Z"/>
    <path class="cls-1" d="M173.88867,393.50612v5.19531h3.61328v4.14062h-3.61328v10.54688c0,.78125.14941,1.34082.44922,1.67969s.87207.50781,1.71875.50781c.625,0,1.17871-.0459,1.66016-.13672v4.27734c-1.10645.33887-2.24609.50781-3.41797.50781-3.95801,0-5.97656-1.99902-6.05469-5.99609v-11.38672h-3.08594v-4.14062h3.08594v-5.19531h5.64453Z"/>
    <path class="cls-1" d="M190.37305,420.22487c-3.09863,0-5.62207-.9502-7.56836-2.85156s-2.91992-4.43359-2.91992-7.59766v-.54688c0-2.12207.41016-4.02051,1.23047-5.69336s1.98242-2.96191,3.48633-3.86719,3.21973-1.35742,5.14648-1.35742c2.89062,0,5.16602.91113,6.82617,2.73438s2.49023,4.40723,2.49023,7.75391v2.30469h-13.45703c.18262,1.37988.73242,2.4873,1.65039,3.32031s2.08008,1.25,3.48633,1.25c2.1748,0,3.87402-.78809,5.09766-2.36328l2.77344,3.10547c-.84668,1.19824-1.99219,2.13184-3.4375,2.80273s-3.04688,1.00586-4.80469,1.00586ZM189.72852,402.86159c-1.12012,0-2.02832.37891-2.72461,1.1377s-1.14258,1.84473-1.33789,3.25684h7.85156v-.45117c-.02637-1.25586-.36426-2.22656-1.01562-2.91309s-1.5752-1.03027-2.77344-1.03027Z"/>
    <path class="cls-1" d="M201.38867,409.11159c0-3.29395.73926-5.91797,2.2168-7.87109s3.49902-2.92969,6.06445-2.92969c2.05762,0,3.75684.76855,5.09766,2.30469v-10.78125h5.66406v30h-5.09766l-.27344-2.24609c-1.40625,1.75781-3.21582,2.63672-5.42969,2.63672-2.4873,0-4.48242-.97949-5.98633-2.93945s-2.25586-4.68457-2.25586-8.17383ZM207.0332,409.51296c0,1.98828.34473,3.5127,1.03516,4.57129.69043,1.06055,1.69238,1.58984,3.00781,1.58984,1.74512,0,2.97559-.73926,3.69141-2.2168v-8.37891c-.70312-1.47754-1.9209-2.2168-3.65234-2.2168-2.72168,0-4.08203,2.21777-4.08203,6.65137Z"/>
    <path class="cls-1" d="M244.04492,408.428l-3.04688,3.28125v8.125h-5.85938v-28.4375h5.85938v12.89062l2.57812-3.53516,7.24609-9.35547h7.20703l-10.09766,12.63672,10.39062,15.80078h-6.97266l-7.30469-11.40625Z"/>
    <path class="cls-1" d="M260.11914,393.23268c0-.84668.2832-1.54297.84961-2.08984s1.33789-.82031,2.31445-.82031c.96387,0,1.73145.27344,2.30469.82031s.85938,1.24316.85938,2.08984c0,.85938-.29004,1.5625-.86914,2.10938s-1.34473.82031-2.29492.82031-1.71582-.27344-2.29492-.82031-.86914-1.25-.86914-2.10938ZM266.11523,419.83425h-5.66406v-21.13281h5.66406v21.13281Z"/>
    <path class="cls-1" d="M275.95898,398.70143l.17578,2.44141c1.51074-1.8877,3.53516-2.83203,6.07422-2.83203,2.23926,0,3.90625.65723,5,1.97266s1.65332,3.28125,1.67969,5.89844v13.65234h-5.64453v-13.54688c0-1.2002-.26074-2.07129-.78125-2.61328-.52051-.54102-1.38672-.8125-2.59766-.8125-1.58887,0-2.78027.67871-3.57422,2.03613v14.93652h-5.64453v-21.13281h5.3125Z"/>
    <path class="cls-1" d="M292.3457,409.11159c0-3.24219.77148-5.85254,2.31445-7.83203s3.62305-2.96875,6.24023-2.96875c2.31738,0,4.12109.79395,5.41016,2.38281l.23438-1.99219h5.11719v20.42969c0,1.84863-.41992,3.45703-1.25977,4.82422s-2.02148,2.40918-3.54492,3.125-3.30762,1.07422-5.35156,1.07422c-1.5498,0-3.05957-.30957-4.53125-.92773s-2.58496-1.41602-3.33984-2.39258l2.5-3.4375c1.40625,1.5752,3.1123,2.36328,5.11719,2.36328,1.49707,0,2.66309-.40039,3.49609-1.20117s1.25-1.93652,1.25-3.4082v-1.13281c-1.30176,1.47168-3.01465,2.20703-5.13672,2.20703-2.53906,0-4.59277-.99316-6.16211-2.97852s-2.35352-4.61914-2.35352-7.90039v-.23438ZM297.99023,409.51296c0,1.92285.38379,3.43066,1.15234,4.52246.76855,1.09277,1.82324,1.63867,3.16406,1.63867,1.71875,0,2.94922-.64746,3.69141-1.94238v-8.92773c-.75488-1.29492-1.97266-1.94238-3.65234-1.94238-1.35449,0-2.41895.55566-3.19336,1.66797s-1.16211,2.77344-1.16211,4.9834Z"/>
    <path class="cls-1" d="M315.11914,409.11159c0-3.29395.73926-5.91797,2.2168-7.87109s3.49902-2.92969,6.06445-2.92969c2.05762,0,3.75684.76855,5.09766,2.30469v-10.78125h5.66406v30h-5.09766l-.27344-2.24609c-1.40625,1.75781-3.21582,2.63672-5.42969,2.63672-2.4873,0-4.48242-.97949-5.98633-2.93945s-2.25586-4.68457-2.25586-8.17383ZM320.76367,409.51296c0,1.98828.34473,3.5127,1.03516,4.57129.69043,1.06055,1.69238,1.58984,3.00781,1.58984,1.74512,0,2.97559-.73926,3.69141-2.2168v-8.37891c-.70312-1.47754-1.9209-2.2168-3.65234-2.2168-2.72168,0-4.08203,2.21777-4.08203,6.65137Z"/>
    <path class="cls-1" d="M337.6582,409.07253c0-2.09668.40332-3.96484,1.21094-5.60547s1.96973-2.91016,3.48633-3.80859,3.27832-1.34766,5.2832-1.34766c2.85156,0,5.17871.87207,6.98242,2.61719s2.80957,4.11426,3.01758,7.10938l.03906,1.44531c0,3.24219-.90527,5.84277-2.71484,7.80273s-4.23828,2.93945-7.28516,2.93945-5.47852-.97656-7.29492-2.92969-2.72461-4.60938-2.72461-7.96875v-.25391ZM343.30273,409.47292c0,2.00879.37793,3.54395,1.13281,4.60742.75488,1.0625,1.83594,1.59375,3.24219,1.59375,1.36719,0,2.43457-.52539,3.20312-1.57422.76855-1.05078,1.15234-2.72949,1.15234-5.03711,0-1.96973-.38379-3.49512-1.15234-4.57812-.76855-1.08203-1.84863-1.62305-3.24219-1.62305-1.37988,0-2.44824.53809-3.20312,1.61328-.75488,1.07617-1.13281,2.74219-1.13281,4.99805Z"/>
    <path class="cls-1" d="M366.44727,398.70143l.17578,2.36328c1.49707-1.83594,3.52246-2.75391,6.07422-2.75391,2.72168,0,4.58984,1.07422,5.60547,3.22266,1.48438-2.14844,3.60059-3.22266,6.34766-3.22266,2.29199,0,3.99707.66699,5.11719,2.00195s1.67969,3.34277,1.67969,6.02539v13.49609h-5.66406v-13.50781c0-1.2002-.23438-2.07812-.70312-2.63281s-1.2959-.83203-2.48047-.83203c-1.69238,0-2.86426.80957-3.51562,2.42773l.01953,14.54492h-5.64453v-13.48828c0-1.22656-.24121-2.11426-.72266-2.66211s-1.30176-.82227-2.46094-.82227c-1.60156,0-2.76074.66602-3.47656,1.99707v14.97559h-5.64453v-21.13281h5.29297Z"/>
    <path class="cls-1" d="M125.27539,478.99928h-11.25v11.62109h-5.85938v-28.4375h18.51562v4.74609h-12.65625v7.34375h11.25v4.72656Z"/>
    <path class="cls-1" d="M141.07617,474.78053c-.76855-.10449-1.44531-.15625-2.03125-.15625-2.13574,0-3.53516.72266-4.19922,2.16797v13.82812h-5.64453v-21.13281h5.33203l.15625,2.51953c1.13281-1.94043,2.70166-2.91016,4.70703-2.91016.625,0,1.21094.08496,1.75781.25391l-.07812,5.42969Z"/>
    <path class="cls-1" d="M155.45117,490.62038c-.26074-.50781-.44922-1.13965-.56641-1.89453-1.36719,1.52344-3.14453,2.28516-5.33203,2.28516-2.07031,0-3.78613-.59863-5.14648-1.79688-1.36084-1.19824-2.04102-2.70801-2.04102-4.53125,0-2.23926.83008-3.95801,2.49023-5.15625s4.05908-1.80371,7.19727-1.81641h2.59766v-1.21094c0-.97656-.25098-1.75781-.75195-2.34375s-1.29199-.87891-2.37305-.87891c-.9502,0-1.69629.22754-2.23633.68359-.54053.45605-.81055,1.08105-.81055,1.875h-5.64453c0-1.22363.37744-2.35645,1.13281-3.39844.75488-1.04199,1.82275-1.8584,3.20312-2.45117,1.37988-.59277,2.92969-.88867,4.64844-.88867,2.60449,0,4.6709.6543,6.20117,1.96289s2.29492,3.14746,2.29492,5.51758v9.16016c.0127,2.00488.29297,3.52246.83984,4.55078v.33203h-5.70312ZM150.7832,486.6946c.83301,0,1.60156-.18555,2.30469-.55664s1.22363-.86914,1.5625-1.49414v-3.63281h-2.10938c-2.82568,0-4.32959.97656-4.51172,2.92969l-.01953.33203c0,.70312.24707,1.28223.74219,1.73828.49463.45605,1.17188.68359,2.03125.68359Z"/>
    <path class="cls-1" d="M169.8457,469.48757l.17578,2.44141c1.51074-1.8877,3.53516-2.83203,6.07422-2.83203,2.23926,0,3.90625.65723,5,1.97266s1.65332,3.28125,1.67969,5.89844v13.65234h-5.64453v-13.54688c0-1.2002-.26074-2.07129-.78125-2.61328-.52051-.54102-1.38672-.8125-2.59766-.8125-1.58887,0-2.78027.67871-3.57422,2.03613v14.93652h-5.64453v-21.13281h5.3125Z"/>
    <path class="cls-1" d="M195.8418,486.46022c1.04199,0,1.8877-.28613,2.53906-.85938s.98926-1.33496,1.01562-2.28516h5.29297c-.0127,1.43262-.40332,2.74414-1.17188,3.93555s-1.81934,2.11621-3.1543,2.77344-2.80957.98633-4.42383.98633c-3.02051,0-5.40332-.95996-7.14844-2.88086s-2.61719-4.57324-2.61719-7.95898v-.37109c0-3.25488.86621-5.85254,2.59766-7.79297s4.1084-2.91016,7.12891-2.91016c2.64355,0,4.7627.75195,6.35742,2.25586s2.40527,3.50586,2.43164,6.00586h-5.29297c-.02637-1.09961-.36426-1.99316-1.01562-2.67969-.65137-.6875-1.51074-1.03125-2.57812-1.03125-1.31543,0-2.30762.47949-2.97852,1.4375-.6709.95898-1.00586,2.51367-1.00586,4.66504v.58691c0,2.17871.33203,3.74316.99609,4.69531s1.67285,1.42773,3.02734,1.42773Z"/>
    <path class="cls-1" d="M217.63867,491.011c-3.09863,0-5.62207-.9502-7.56836-2.85156s-2.91992-4.43359-2.91992-7.59766v-.54688c0-2.12207.41016-4.02051,1.23047-5.69336s1.98242-2.96191,3.48633-3.86719,3.21973-1.35742,5.14648-1.35742c2.89062,0,5.16602.91113,6.82617,2.73438s2.49023,4.40723,2.49023,7.75391v2.30469h-13.45703c.18262,1.37988.73242,2.4873,1.65039,3.32031s2.08008,1.25,3.48633,1.25c2.1748,0,3.87402-.78809,5.09766-2.36328l2.77344,3.10547c-.84668,1.19824-1.99219,2.13184-3.4375,2.80273s-3.04688,1.00586-4.80469,1.00586ZM216.99414,473.64772c-1.12012,0-2.02832.37891-2.72461,1.1377s-1.14258,1.84473-1.33789,3.25684h7.85156v-.45117c-.02637-1.25586-.36426-2.22656-1.01562-2.91309s-1.5752-1.03027-2.77344-1.03027Z"/>
    <path class="cls-1" d="M130.49023,551.93288c-.22168,3.05957-1.35107,5.46875-3.38867,7.22656-2.03809,1.75781-4.72363,2.63672-8.05664,2.63672-3.646,0-6.51367-1.22754-8.60352-3.68164s-3.13477-5.82324-3.13477-10.10742v-1.73828c0-2.73438.48145-5.14355,1.44531-7.22656.96338-2.08301,2.34033-3.68164,4.13086-4.79492,1.79004-1.11328,3.87012-1.66992,6.24023-1.66992,3.28125,0,5.92432.87891,7.92969,2.63672,2.00488,1.75781,3.16406,4.22559,3.47656,7.40234h-5.85938c-.14355-1.83594-.6543-3.16699-1.5332-3.99414s-2.2168-1.24023-4.01367-1.24023c-1.95312,0-3.41504.7002-4.38477,2.09961-.97021,1.39941-1.46826,3.57129-1.49414,6.51367v2.14844c0,3.07324.46533,5.31934,1.39648,6.73828.93066,1.41895,2.39893,2.12891,4.4043,2.12891,1.80957,0,3.16064-.41309,4.05273-1.24023.8916-.82715,1.40283-2.10645,1.5332-3.83789h5.85938Z"/>
    <path class="cls-1" d="M139.47461,542.57741c1.49707-1.79688,3.37891-2.69531,5.64453-2.69531,4.58301,0,6.90723,2.66309,6.97266,7.98828v13.53516h-5.64453v-13.41016c0-1.21289-.26074-2.11035-.78125-2.69141-.521-.58008-1.38672-.87109-2.59766-.87109-1.65381,0-2.85156.63965-3.59375,1.91797v15.05469h-5.64453v-30h5.64453v11.17188Z"/>
    <path class="cls-1" d="M156.31055,534.80397c0-.84668.2832-1.54297.84961-2.08984s1.33789-.82031,2.31445-.82031c.96387,0,1.73145.27344,2.30469.82031s.85938,1.24316.85938,2.08984c0,.85938-.29004,1.5625-.86914,2.10938s-1.34473.82031-2.29492.82031-1.71582-.27344-2.29492-.82031-.86914-1.25-.86914-2.10938ZM162.30664,561.40553h-5.66406v-21.13281h5.66406v21.13281Z"/>
    <path class="cls-1" d="M172.15039,540.27272l.17578,2.44141c1.51074-1.8877,3.53516-2.83203,6.07422-2.83203,2.23926,0,3.90625.65723,5,1.97266s1.65332,3.28125,1.67969,5.89844v13.65234h-5.64453v-13.54688c0-1.2002-.26074-2.07129-.78125-2.61328-.52051-.54102-1.38672-.8125-2.59766-.8125-1.58887,0-2.78027.67871-3.57422,2.03613v14.93652h-5.64453v-21.13281h5.3125Z"/>
    <path class="cls-1" d="M201.60352,561.40553c-.26074-.50781-.44922-1.13965-.56641-1.89453-1.36719,1.52344-3.14453,2.28516-5.33203,2.28516-2.07031,0-3.78613-.59863-5.14648-1.79688s-2.04102-2.70801-2.04102-4.53125c0-2.23926.83008-3.95801,2.49023-5.15625s4.05957-1.80371,7.19727-1.81641h2.59766v-1.21094c0-.97656-.25098-1.75781-.75195-2.34375s-1.29199-.87891-2.37305-.87891c-.9502,0-1.69629.22754-2.23633.68359s-.81055,1.08105-.81055,1.875h-5.64453c0-1.22363.37793-2.35645,1.13281-3.39844s1.82324-1.8584,3.20312-2.45117,2.92969-.88867,4.64844-.88867c2.60449,0,4.6709.6543,6.20117,1.96289s2.29492,3.14746,2.29492,5.51758v9.16016c.0127,2.00488.29297,3.52246.83984,4.55078v.33203h-5.70312ZM196.93555,557.47975c.83301,0,1.60156-.18555,2.30469-.55664s1.22363-.86914,1.5625-1.49414v-3.63281h-2.10938c-2.8252,0-4.3291.97656-4.51172,2.92969l-.01953.33203c0,.70312.24707,1.28223.74219,1.73828s1.17188.68359,2.03125.68359Z"/>
    <path class="cls-1" d="M114.39648,632.19069h-5.85938v-28.4375h5.85938v28.4375Z"/>
    <path class="cls-1" d="M130.90039,626.35085c0-.69043-.3418-1.2334-1.02539-1.63086s-1.78076-.75195-3.29102-1.06445c-5.02637-1.05469-7.53906-3.19043-7.53906-6.40625,0-1.875.77783-3.44043,2.33398-4.69727,1.55566-1.25684,3.59033-1.88477,6.10352-1.88477,2.68213,0,4.82715.63184,6.43555,1.89453,1.60791,1.2627,2.41211,2.90332,2.41211,4.92188h-5.64453c0-.80762-.26074-1.47461-.78125-2.00195-.521-.52734-1.33496-.79102-2.44141-.79102-.95068,0-1.68652.21484-2.20703.64453-.521.42969-.78125.97656-.78125,1.64062,0,.625.2959,1.12988.88867,1.51367.59229.38379,1.5918.71582,2.99805.99609s2.59082.5957,3.55469.94727c2.98145,1.09375,4.47266,2.98828,4.47266,5.68359,0,1.92676-.82715,3.48633-2.48047,4.67773-1.65381,1.19141-3.78906,1.78711-6.40625,1.78711-1.771,0-3.34326-.31543-4.7168-.94727-1.37402-.63184-2.45117-1.49707-3.23242-2.59766s-1.17188-2.28809-1.17188-3.56445h5.35156c.05176,1.00293.42285,1.77051,1.11328,2.30469.68994.53418,1.61426.80078,2.77344.80078,1.08057,0,1.89746-.20508,2.45117-.61523.55322-.41016.83008-.94727.83008-1.61133Z"/>
    <path class="cls-1" d="M151.89648,616.35085c-.76855-.10449-1.44531-.15625-2.03125-.15625-2.13574,0-3.53516.72266-4.19922,2.16797v13.82812h-5.64453v-21.13281h5.33203l.15625,2.51953c1.13281-1.94043,2.70166-2.91016,4.70703-2.91016.625,0,1.21094.08496,1.75781.25391l-.07812,5.42969Z"/>
    <path class="cls-1" d="M166.27148,632.19069c-.26074-.50781-.44922-1.13965-.56641-1.89453-1.36719,1.52344-3.14453,2.28516-5.33203,2.28516-2.07031,0-3.78613-.59863-5.14648-1.79688s-2.04102-2.70801-2.04102-4.53125c0-2.23926.83008-3.95801,2.49023-5.15625s4.05957-1.80371,7.19727-1.81641h2.59766v-1.21094c0-.97656-.25098-1.75781-.75195-2.34375s-1.29199-.87891-2.37305-.87891c-.9502,0-1.69629.22754-2.23633.68359s-.81055,1.08105-.81055,1.875h-5.64453c0-1.22363.37793-2.35645,1.13281-3.39844s1.82324-1.8584,3.20312-2.45117,2.92969-.88867,4.64844-.88867c2.60449,0,4.6709.6543,6.20117,1.96289s2.29492,3.14746,2.29492,5.51758v9.16016c.0127,2.00488.29297,3.52246.83984,4.55078v.33203h-5.70312ZM161.60352,628.26491c.83301,0,1.60156-.18555,2.30469-.55664s1.22363-.86914,1.5625-1.49414v-3.63281h-2.10938c-2.8252,0-4.3291.97656-4.51172,2.92969l-.01953.33203c0,.70312.24707,1.28223.74219,1.73828s1.17188.68359,2.03125.68359Z"/>
    <path class="cls-1" d="M185.19727,632.58132c-3.09863,0-5.62207-.9502-7.56836-2.85156s-2.91992-4.43359-2.91992-7.59766v-.54688c0-2.12207.41016-4.02051,1.23047-5.69336s1.98242-2.96191,3.48633-3.86719,3.21973-1.35742,5.14648-1.35742c2.89062,0,5.16602.91113,6.82617,2.73438s2.49023,4.40723,2.49023,7.75391v2.30469h-13.45703c.18262,1.37988.73242,2.4873,1.65039,3.32031s2.08008,1.25,3.48633,1.25c2.1748,0,3.87402-.78809,5.09766-2.36328l2.77344,3.10547c-.84668,1.19824-1.99219,2.13184-3.4375,2.80273s-3.04688,1.00586-4.80469,1.00586ZM184.55273,615.21803c-1.12012,0-2.02832.37891-2.72461,1.1377s-1.14258,1.84473-1.33789,3.25684h7.85156v-.45117c-.02637-1.25586-.36426-2.22656-1.01562-2.91309s-1.5752-1.03027-2.77344-1.03027Z"/>
    <path class="cls-1" d="M203.04883,632.19069h-5.66406v-30h5.66406v30Z"/>
    <path class="cls-1" d="M114.39648,702.97585h-5.85938v-28.4375h5.85938v28.4375Z"/>
    <path class="cls-1" d="M124.65039,681.84303l.17578,2.44141c1.51025-1.8877,3.53516-2.83203,6.07422-2.83203,2.23926,0,3.90625.65723,5,1.97266s1.65332,3.28125,1.67969,5.89844v13.65234h-5.64453v-13.54688c0-1.2002-.26074-2.07129-.78125-2.61328-.521-.54102-1.38672-.8125-2.59766-.8125-1.58887,0-2.78027.67871-3.57422,2.03613v14.93652h-5.64453v-21.13281h5.3125Z"/>
    <path class="cls-1" d="M140.97852,692.25319c0-3.29395.73877-5.91797,2.2168-7.87109,1.47754-1.95312,3.49902-2.92969,6.06445-2.92969,2.05762,0,3.75684.76855,5.09766,2.30469v-10.78125h5.66406v30h-5.09766l-.27344-2.24609c-1.40625,1.75781-3.21582,2.63672-5.42969,2.63672-2.4873,0-4.48242-.97949-5.98633-2.93945s-2.25586-4.68457-2.25586-8.17383ZM146.62305,692.65456c0,1.98828.34473,3.5127,1.03516,4.57129.68994,1.06055,1.69238,1.58984,3.00781,1.58984,1.74512,0,2.97559-.73926,3.69141-2.2168v-8.37891c-.70312-1.47754-1.9209-2.2168-3.65234-2.2168-2.72168,0-4.08203,2.21777-4.08203,6.65137Z"/>
    <path class="cls-1" d="M164.35742,676.37428c0-.84668.2832-1.54297.84961-2.08984s1.33789-.82031,2.31445-.82031c.96387,0,1.73145.27344,2.30469.82031s.85938,1.24316.85938,2.08984c0,.85938-.29004,1.5625-.86914,2.10938s-1.34473.82031-2.29492.82031-1.71582-.27344-2.29492-.82031-.86914-1.25-.86914-2.10938ZM170.35352,702.97585h-5.66406v-21.13281h5.66406v21.13281Z"/>
    <path class="cls-1" d="M187.24805,702.97585c-.26074-.50781-.44922-1.13965-.56641-1.89453-1.36719,1.52344-3.14453,2.28516-5.33203,2.28516-2.07031,0-3.78613-.59863-5.14648-1.79688s-2.04102-2.70801-2.04102-4.53125c0-2.23926.83008-3.95801,2.49023-5.15625s4.05957-1.80371,7.19727-1.81641h2.59766v-1.21094c0-.97656-.25098-1.75781-.75195-2.34375s-1.29199-.87891-2.37305-.87891c-.9502,0-1.69629.22754-2.23633.68359s-.81055,1.08105-.81055,1.875h-5.64453c0-1.22363.37793-2.35645,1.13281-3.39844s1.82324-1.8584,3.20312-2.45117,2.92969-.88867,4.64844-.88867c2.60449,0,4.6709.6543,6.20117,1.96289s2.29492,3.14746,2.29492,5.51758v9.16016c.0127,2.00488.29297,3.52246.83984,4.55078v.33203h-5.70312ZM182.58008,699.05007c.83301,0,1.60156-.18555,2.30469-.55664s1.22363-.86914,1.5625-1.49414v-3.63281h-2.10938c-2.8252,0-4.3291.97656-4.51172,2.92969l-.01953.33203c0,.70312.24707,1.28223.74219,1.73828s1.17188.68359,2.03125.68359Z"/>
    <path class="cls-1" d="M114.02539,763.74147v10.01953h-5.85938v-28.4375h11.09375c2.13525,0,4.01367.39062,5.63477,1.17188s2.86768,1.8916,3.74023,3.33008c.87207,1.43848,1.30859,3.07617,1.30859,4.91211,0,2.78613-.9541,4.9834-2.86133,6.5918-1.90771,1.6084-4.54785,2.41211-7.91992,2.41211h-5.13672ZM114.02539,758.99538h5.23438c1.54932,0,2.73096-.36426,3.54492-1.09375.81348-.72949,1.2207-1.77051,1.2207-3.125,0-1.39355-.41016-2.51953-1.23047-3.37891s-1.95312-1.30176-3.39844-1.32812h-5.37109v8.92578Z"/>
    <path class="cls-1" d="M145.62695,773.761c-.26074-.50781-.44922-1.13965-.56641-1.89453-1.36719,1.52344-3.14453,2.28516-5.33203,2.28516-2.07031,0-3.78613-.59863-5.14648-1.79688-1.36084-1.19824-2.04102-2.70801-2.04102-4.53125,0-2.23926.83008-3.95801,2.49023-5.15625s4.05908-1.80371,7.19727-1.81641h2.59766v-1.21094c0-.97656-.25098-1.75781-.75195-2.34375-.50146-.58594-1.29248-.87891-2.37305-.87891-.95068,0-1.69629.22754-2.23633.68359-.54053.45605-.81055,1.08105-.81055,1.875h-5.64453c0-1.22363.37744-2.35645,1.13281-3.39844.75488-1.04199,1.82275-1.8584,3.20312-2.45117,1.37988-.59277,2.92969-.88867,4.64844-.88867,2.604,0,4.6709.6543,6.20117,1.96289,1.52979,1.30859,2.29492,3.14746,2.29492,5.51758v9.16016c.0127,2.00488.29297,3.52246.83984,4.55078v.33203h-5.70312ZM140.95898,769.83522c.83301,0,1.60156-.18555,2.30469-.55664s1.22363-.86914,1.5625-1.49414v-3.63281h-2.10938c-2.82568,0-4.32959.97656-4.51172,2.92969l-.01953.33203c0,.70312.24707,1.28223.74219,1.73828.49463.45605,1.17188.68359,2.03125.68359Z"/>
    <path class="cls-1" d="M162.50195,765.28444l-2.03125,2.03125v6.44531h-5.64453v-30h5.64453v16.62109l1.09375-1.40625,5.41016-6.34766h6.77734l-7.63672,8.80859,8.30078,12.32422h-6.48438l-5.42969-8.47656Z"/>
    <path class="cls-1" d="M176.1543,747.15944c0-.84668.2832-1.54297.84961-2.08984s1.33789-.82031,2.31445-.82031c.96387,0,1.73145.27344,2.30469.82031s.85938,1.24316.85938,2.08984c0,.85938-.29004,1.5625-.86914,2.10938s-1.34473.82031-2.29492.82031-1.71582-.27344-2.29492-.82031-.86914-1.25-.86914-2.10938ZM182.15039,773.761h-5.66406v-21.13281h5.66406v21.13281Z"/>
    <path class="cls-1" d="M198.24414,767.92116c0-.69043-.3418-1.2334-1.02539-1.63086s-1.78027-.75195-3.29102-1.06445c-5.02637-1.05469-7.53906-3.19043-7.53906-6.40625,0-1.875.77832-3.44043,2.33398-4.69727s3.59082-1.88477,6.10352-1.88477c2.68262,0,4.82715.63184,6.43555,1.89453s2.41211,2.90332,2.41211,4.92188h-5.64453c0-.80762-.26074-1.47461-.78125-2.00195s-1.33496-.79102-2.44141-.79102c-.9502,0-1.68652.21484-2.20703.64453s-.78125.97656-.78125,1.64062c0,.625.2959,1.12988.88867,1.51367s1.5918.71582,2.99805.99609,2.59082.5957,3.55469.94727c2.98145,1.09375,4.47266,2.98828,4.47266,5.68359,0,1.92676-.82715,3.48633-2.48047,4.67773s-3.78906,1.78711-6.40625,1.78711c-1.77051,0-3.34277-.31543-4.7168-.94727s-2.45117-1.49707-3.23242-2.59766-1.17188-2.28809-1.17188-3.56445h5.35156c.05176,1.00293.42285,1.77051,1.11328,2.30469s1.61426.80078,2.77344.80078c1.08105,0,1.89746-.20508,2.45117-.61523s.83008-.94727.83008-1.61133Z"/>
    <path class="cls-1" d="M214.12305,747.43288v5.19531h3.61328v4.14062h-3.61328v10.54688c0,.78125.14941,1.34082.44922,1.67969s.87207.50781,1.71875.50781c.625,0,1.17871-.0459,1.66016-.13672v4.27734c-1.10645.33887-2.24609.50781-3.41797.50781-3.95801,0-5.97656-1.99902-6.05469-5.99609v-11.38672h-3.08594v-4.14062h3.08594v-5.19531h5.64453Z"/>
    <path class="cls-1" d="M233.12695,773.761c-.26074-.50781-.44922-1.13965-.56641-1.89453-1.36719,1.52344-3.14453,2.28516-5.33203,2.28516-2.07031,0-3.78613-.59863-5.14648-1.79688s-2.04102-2.70801-2.04102-4.53125c0-2.23926.83008-3.95801,2.49023-5.15625s4.05957-1.80371,7.19727-1.81641h2.59766v-1.21094c0-.97656-.25098-1.75781-.75195-2.34375s-1.29199-.87891-2.37305-.87891c-.9502,0-1.69629.22754-2.23633.68359s-.81055,1.08105-.81055,1.875h-5.64453c0-1.22363.37793-2.35645,1.13281-3.39844s1.82324-1.8584,3.20312-2.45117,2.92969-.88867,4.64844-.88867c2.60449,0,4.6709.6543,6.20117,1.96289s2.29492,3.14746,2.29492,5.51758v9.16016c.0127,2.00488.29297,3.52246.83984,4.55078v.33203h-5.70312ZM228.45898,769.83522c.83301,0,1.60156-.18555,2.30469-.55664s1.22363-.86914,1.5625-1.49414v-3.63281h-2.10938c-2.8252,0-4.3291.97656-4.51172,2.92969l-.01953.33203c0,.70312.24707,1.28223.74219,1.73828s1.17188.68359,2.03125.68359Z"/>
    <path class="cls-1" d="M247.52148,752.62819l.17578,2.44141c1.51074-1.8877,3.53516-2.83203,6.07422-2.83203,2.23926,0,3.90625.65723,5,1.97266s1.65332,3.28125,1.67969,5.89844v13.65234h-5.64453v-13.54688c0-1.2002-.26074-2.07129-.78125-2.61328-.52051-.54102-1.38672-.8125-2.59766-.8125-1.58887,0-2.78027.67871-3.57422,2.03613v14.93652h-5.64453v-21.13281h5.3125Z"/>
    <path class="cls-1" d="M131.29102,844.54714h-5.85938l-11.40625-18.71094v18.71094h-5.85938v-28.4375h5.85938l11.42578,18.75v-18.75h5.83984v28.4375Z"/>
    <path class="cls-1" d="M135.1582,833.78542c0-2.09668.40332-3.96484,1.21094-5.60547.80713-1.64062,1.96924-2.91016,3.48633-3.80859,1.5166-.89844,3.27783-1.34766,5.2832-1.34766,2.85156,0,5.17871.87207,6.98242,2.61719s2.80957,4.11426,3.01758,7.10938l.03906,1.44531c0,3.24219-.90527,5.84277-2.71484,7.80273-1.81055,1.95996-4.23828,2.93945-7.28516,2.93945s-5.47852-.97656-7.29492-2.92969-2.72461-4.60938-2.72461-7.96875v-.25391ZM140.80273,834.18581c0,2.00879.37744,3.54395,1.13281,4.60742.75488,1.0625,1.83594,1.59375,3.24219,1.59375,1.36719,0,2.43457-.52539,3.20312-1.57422.76807-1.05078,1.15234-2.72949,1.15234-5.03711,0-1.96973-.38428-3.49512-1.15234-4.57812-.76855-1.08203-1.84912-1.62305-3.24219-1.62305-1.38037,0-2.44824.53809-3.20312,1.61328-.75537,1.07617-1.13281,2.74219-1.13281,4.99805Z"/>
    <path class="cls-1" d="M170.5293,828.70729c-.76855-.10449-1.44531-.15625-2.03125-.15625-2.13574,0-3.53516.72266-4.19922,2.16797v13.82812h-5.64453v-21.13281h5.33203l.15625,2.51953c1.13281-1.94043,2.70215-2.91016,4.70703-2.91016.625,0,1.21094.08496,1.75781.25391l-.07812,5.42969Z"/>
    <path class="cls-1" d="M180.97852,818.21901v5.19531h3.61328v4.14062h-3.61328v10.54688c0,.78125.14941,1.34082.44922,1.67969s.87207.50781,1.71875.50781c.625,0,1.17871-.0459,1.66016-.13672v4.27734c-1.10645.33887-2.24609.50781-3.41797.50781-3.95801,0-5.97656-1.99902-6.05469-5.99609v-11.38672h-3.08594v-4.14062h3.08594v-5.19531h5.64453Z"/>
    <path class="cls-1" d="M193.24414,825.71901c1.49707-1.79688,3.37891-2.69531,5.64453-2.69531,4.58301,0,6.90723,2.66309,6.97266,7.98828v13.53516h-5.64453v-13.41016c0-1.21289-.26074-2.11035-.78125-2.69141-.52051-.58008-1.38672-.87109-2.59766-.87109-1.65332,0-2.85156.63965-3.59375,1.91797v15.05469h-5.64453v-30h5.64453v11.17188Z"/>
    <path class="cls-1" d="M229.35742,833.14089l-3.04688,3.28125v8.125h-5.85938v-28.4375h5.85938v12.89062l2.57812-3.53516,7.24609-9.35547h7.20703l-10.09766,12.63672,10.39062,15.80078h-6.97266l-7.30469-11.40625Z"/>
    <path class="cls-1" d="M244.06445,833.78542c0-2.09668.40332-3.96484,1.21094-5.60547s1.96973-2.91016,3.48633-3.80859,3.27832-1.34766,5.2832-1.34766c2.85156,0,5.17871.87207,6.98242,2.61719s2.80957,4.11426,3.01758,7.10938l.03906,1.44531c0,3.24219-.90527,5.84277-2.71484,7.80273s-4.23828,2.93945-7.28516,2.93945-5.47852-.97656-7.29492-2.92969-2.72461-4.60938-2.72461-7.96875v-.25391ZM249.70898,834.18581c0,2.00879.37793,3.54395,1.13281,4.60742.75488,1.0625,1.83594,1.59375,3.24219,1.59375,1.36719,0,2.43457-.52539,3.20312-1.57422.76855-1.05078,1.15234-2.72949,1.15234-5.03711,0-1.96973-.38379-3.49512-1.15234-4.57812-.76855-1.08203-1.84863-1.62305-3.24219-1.62305-1.37988,0-2.44824.53809-3.20312,1.61328-.75488,1.07617-1.13281,2.74219-1.13281,4.99805Z"/>
    <path class="cls-1" d="M279.43555,828.70729c-.76855-.10449-1.44531-.15625-2.03125-.15625-2.13574,0-3.53516.72266-4.19922,2.16797v13.82812h-5.64453v-21.13281h5.33203l.15625,2.51953c1.13281-1.94043,2.70215-2.91016,4.70703-2.91016.625,0,1.21094.08496,1.75781.25391l-.07812,5.42969Z"/>
    <path class="cls-1" d="M291.50586,844.93776c-3.09863,0-5.62207-.9502-7.56836-2.85156s-2.91992-4.43359-2.91992-7.59766v-.54688c0-2.12207.41016-4.02051,1.23047-5.69336s1.98242-2.96191,3.48633-3.86719,3.21973-1.35742,5.14648-1.35742c2.89062,0,5.16602.91113,6.82617,2.73438s2.49023,4.40723,2.49023,7.75391v2.30469h-13.45703c.18262,1.37988.73242,2.4873,1.65039,3.32031s2.08008,1.25,3.48633,1.25c2.1748,0,3.87402-.78809,5.09766-2.36328l2.77344,3.10547c-.84668,1.19824-1.99219,2.13184-3.4375,2.80273s-3.04688,1.00586-4.80469,1.00586ZM290.86133,827.57448c-1.12012,0-2.02832.37891-2.72461,1.1377s-1.14258,1.84473-1.33789,3.25684h7.85156v-.45117c-.02637-1.25586-.36426-2.22656-1.01562-2.91309s-1.5752-1.03027-2.77344-1.03027Z"/>
    <path class="cls-1" d="M315.64648,844.54714c-.26074-.50781-.44922-1.13965-.56641-1.89453-1.36719,1.52344-3.14453,2.28516-5.33203,2.28516-2.07031,0-3.78613-.59863-5.14648-1.79688s-2.04102-2.70801-2.04102-4.53125c0-2.23926.83008-3.95801,2.49023-5.15625s4.05957-1.80371,7.19727-1.81641h2.59766v-1.21094c0-.97656-.25098-1.75781-.75195-2.34375s-1.29199-.87891-2.37305-.87891c-.9502,0-1.69629.22754-2.23633.68359s-.81055,1.08105-.81055,1.875h-5.64453c0-1.22363.37793-2.35645,1.13281-3.39844s1.82324-1.8584,3.20312-2.45117,2.92969-.88867,4.64844-.88867c2.60449,0,4.6709.6543,6.20117,1.96289s2.29492,3.14746,2.29492,5.51758v9.16016c.0127,2.00488.29297,3.52246.83984,4.55078v.33203h-5.70312ZM310.97852,840.62135c.83301,0,1.60156-.18555,2.30469-.55664s1.22363-.86914,1.5625-1.49414v-3.63281h-2.10938c-2.8252,0-4.3291.97656-4.51172,2.92969l-.01953.33203c0,.70312.24707,1.28223.74219,1.73828s1.17188.68359,2.03125.68359Z"/>
  </g>
  <line class="cls-2" x1="455.80859" y1="248.26441" x2="455.80859" y2="876.79121"/>
  <line class="cls-2" x1="1862.90586" y1="876.79121" x2="455.80859" y2="876.79121"/>
  <g>
    <path class="cls-1" d="M466.01953,948.47975h-5.64453v-21.78809l-6.73828,2.08105v-4.55078l11.77734-4.21875h.60547v28.47656Z"/>
    <path class="cls-1" d="M488.46094,937.11257c-1.47168,1.44531-3.19043,2.16797-5.15625,2.16797-2.5127,0-4.52441-.8623-6.03516-2.58789s-2.26562-4.05273-2.26562-6.98242c0-1.8623.40723-3.57129,1.2207-5.12695s1.9502-2.7666,3.4082-3.63281,3.09863-1.29883,4.92188-1.29883c1.875,0,3.54199.46875,5,1.40625s2.59082,2.28516,3.39844,4.04297,1.21777,3.76953,1.23047,6.03516v2.08984c0,4.73926-1.17871,8.46387-3.53516,11.17188s-5.69629,4.15332-10.01953,4.33594l-1.38672.01953v-4.70703l1.25-.01953c4.90918-.22168,7.56543-2.52637,7.96875-6.91406ZM484.69141,934.96413c.91113,0,1.69629-.23438,2.35352-.70312s1.15527-1.03516,1.49414-1.69922v-2.32422c0-1.91406-.36426-3.39844-1.09375-4.45312s-1.70605-1.58203-2.92969-1.58203c-1.13281,0-2.06348.51758-2.79297,1.55273s-1.09375,2.33398-1.09375,3.89648c0,1.5498.35449,2.82227,1.06445,3.81836s1.70898,1.49414,2.99805,1.49414Z"/>
    <path class="cls-1" d="M514.90625,937.77663h3.22266v4.55078h-3.22266v6.15234h-5.64453v-6.15234h-11.66016l-.25391-3.55469,11.85547-18.73047h5.70312v17.73438ZM502.97266,937.77663h6.28906v-10.03906l-.37109.64453-5.91797,9.39453Z"/>
    <path class="cls-1" d="M540.29688,936.72194c0,3.93262-.81348,6.94043-2.44141,9.02344s-4.01074,3.125-7.14844,3.125c-3.09863,0-5.46875-1.02246-7.10938-3.06641s-2.48047-4.97363-2.51953-8.78906v-5.23438c0-3.97168.82324-6.98535,2.4707-9.04297s4.02051-3.08594,7.11914-3.08594,5.46875,1.01855,7.10938,3.05664,2.48047,4.96387,2.51953,8.7793v5.23438ZM534.65234,930.96706c0-2.35938-.32227-4.07617-.9668-5.15137s-1.65039-1.61328-3.01758-1.61328c-1.32812,0-2.30762.51172-2.93945,1.53516-.63184,1.02246-.9668,2.62305-1.00586,4.79883v6.9209c0,2.32031.31543,4.04395.94727,5.1709.63184,1.12793,1.64355,1.69141,3.03711,1.69141,1.37988,0,2.37598-.54102,2.98828-1.62305.6123-1.08105.93066-2.73633.95703-4.96582v-6.76367Z"/>
    <path class="cls-1" d="M625.28613,948.47975h-5.64453v-21.78809l-6.73828,2.08105v-4.55078l11.77734-4.21875h.60547v28.47656Z"/>
    <path class="cls-1" d="M647.72754,937.11257c-1.47168,1.44531-3.19043,2.16797-5.15625,2.16797-2.5127,0-4.52441-.8623-6.03516-2.58789s-2.26562-4.05273-2.26562-6.98242c0-1.8623.40723-3.57129,1.2207-5.12695s1.9502-2.7666,3.4082-3.63281,3.09863-1.29883,4.92188-1.29883c1.875,0,3.54199.46875,5,1.40625s2.59082,2.28516,3.39844,4.04297,1.21777,3.76953,1.23047,6.03516v2.08984c0,4.73926-1.17871,8.46387-3.53516,11.17188s-5.69629,4.15332-10.01953,4.33594l-1.38672.01953v-4.70703l1.25-.01953c4.90918-.22168,7.56543-2.52637,7.96875-6.91406ZM643.95801,934.96413c.91113,0,1.69629-.23438,2.35352-.70312s1.15527-1.03516,1.49414-1.69922v-2.32422c0-1.91406-.36426-3.39844-1.09375-4.45312s-1.70605-1.58203-2.92969-1.58203c-1.13281,0-2.06348.51758-2.79297,1.55273s-1.09375,2.33398-1.09375,3.89648c0,1.5498.35449,2.82227,1.06445,3.81836s1.70898,1.49414,2.99805,1.49414Z"/>
    <path class="cls-1" d="M658.31348,934.49538l1.64062-14.45312h15.9375v4.70703h-11.30859l-.70312,6.11328c1.34082-.71582,2.7666-1.07422,4.27734-1.07422,2.70801,0,4.83105.83984,6.36719,2.51953s2.30469,4.03027,2.30469,7.05078c0,1.83594-.3877,3.47949-1.16211,4.93164s-1.88477,2.57812-3.33008,3.37891-3.15137,1.20117-5.11719,1.20117c-1.71875,0-3.31348-.34863-4.78516-1.04492s-2.63379-1.67676-3.48633-2.93945-1.30566-2.70215-1.35742-4.31641h5.58594c.11719,1.18457.53027,2.10645,1.24023,2.76367s1.6377.98633,2.7832.98633c1.27637,0,2.25879-.45898,2.94922-1.37695s1.03516-2.2168,1.03516-3.89648c0-1.61426-.39746-2.85156-1.19141-3.71094s-1.9209-1.28906-3.37891-1.28906c-1.34082,0-2.42871.35156-3.26172,1.05469l-.54688.50781-4.49219-1.11328Z"/>
    <path class="cls-1" d="M699.56348,936.72194c0,3.93262-.81348,6.94043-2.44141,9.02344s-4.01074,3.125-7.14844,3.125c-3.09863,0-5.46875-1.02246-7.10938-3.06641s-2.48047-4.97363-2.51953-8.78906v-5.23438c0-3.97168.82324-6.98535,2.4707-9.04297s4.02051-3.08594,7.11914-3.08594,5.46875,1.01855,7.10938,3.05664,2.48047,4.96387,2.51953,8.7793v5.23438ZM693.91895,930.96706c0-2.35938-.32227-4.07617-.9668-5.15137s-1.65039-1.61328-3.01758-1.61328c-1.32812,0-2.30762.51172-2.93945,1.53516-.63184,1.02246-.9668,2.62305-1.00586,4.79883v6.9209c0,2.32031.31543,4.04395.94727,5.1709.63184,1.12793,1.64355,1.69141,3.03711,1.69141,1.37988,0,2.37598-.54102,2.98828-1.62305.6123-1.08105.93066-2.73633.95703-4.96582v-6.76367Z"/>
    <path class="cls-1" d="M784.55371,948.47975h-5.64453v-21.78809l-6.73828,2.08105v-4.55078l11.77734-4.21875h.60547v28.47656Z"/>
    <path class="cls-1" d="M806.99512,937.11257c-1.47168,1.44531-3.19043,2.16797-5.15625,2.16797-2.5127,0-4.52441-.8623-6.03516-2.58789s-2.26562-4.05273-2.26562-6.98242c0-1.8623.40723-3.57129,1.2207-5.12695s1.9502-2.7666,3.4082-3.63281,3.09863-1.29883,4.92188-1.29883c1.875,0,3.54199.46875,5,1.40625s2.59082,2.28516,3.39844,4.04297,1.21777,3.76953,1.23047,6.03516v2.08984c0,4.73926-1.17871,8.46387-3.53516,11.17188s-5.69629,4.15332-10.01953,4.33594l-1.38672.01953v-4.70703l1.25-.01953c4.90918-.22168,7.56543-2.52637,7.96875-6.91406ZM803.22559,934.96413c.91113,0,1.69629-.23438,2.35352-.70312s1.15527-1.03516,1.49414-1.69922v-2.32422c0-1.91406-.36426-3.39844-1.09375-4.45312s-1.70605-1.58203-2.92969-1.58203c-1.13281,0-2.06348.51758-2.79297,1.55273s-1.09375,2.33398-1.09375,3.89648c0,1.5498.35449,2.82227,1.06445,3.81836s1.70898,1.49414,2.99805,1.49414Z"/>
    <path class="cls-1" d="M832.05371,919.74928v4.64844h-.54688c-2.55176.03906-4.60645.70312-6.16211,1.99219s-2.49023,3.0791-2.80273,5.37109c1.51074-1.53613,3.41797-2.30469,5.72266-2.30469,2.47363,0,4.44043.88574,5.89844,2.65625s2.1875,4.10156,2.1875,6.99219c0,1.84863-.40039,3.52246-1.20117,5.01953s-1.93359,2.66309-3.39844,3.49609-3.12207,1.25-4.9707,1.25c-2.99512,0-5.41309-1.04199-7.25586-3.125s-2.76367-4.86328-2.76367-8.33984v-2.03125c0-3.08594.58301-5.81055,1.74805-8.17383s2.83887-4.19238,5.01953-5.48828,4.70996-1.9502,7.58789-1.96289h.9375ZM826.5459,934.0071c-.91113,0-1.73828.2373-2.48047.71191-.74219.47363-1.28906,1.10156-1.64062,1.88086v1.71582c0,1.88477.37109,3.35645,1.11328,4.41504.74219,1.05957,1.78418,1.58887,3.125,1.58887,1.21094,0,2.19043-.47754,2.93945-1.43262s1.12305-2.19336,1.12305-3.71387c0-1.54688-.37793-2.79395-1.13281-3.74316-.75488-.94824-1.77051-1.42285-3.04688-1.42285Z"/>
    <path class="cls-1" d="M858.83105,936.72194c0,3.93262-.81348,6.94043-2.44141,9.02344s-4.01074,3.125-7.14844,3.125c-3.09863,0-5.46875-1.02246-7.10938-3.06641s-2.48047-4.97363-2.51953-8.78906v-5.23438c0-3.97168.82324-6.98535,2.4707-9.04297s4.02051-3.08594,7.11914-3.08594,5.46875,1.01855,7.10938,3.05664,2.48047,4.96387,2.51953,8.7793v5.23438ZM853.18652,930.96706c0-2.35938-.32227-4.07617-.9668-5.15137s-1.65039-1.61328-3.01758-1.61328c-1.32812,0-2.30762.51172-2.93945,1.53516-.63184,1.02246-.9668,2.62305-1.00586,4.79883v6.9209c0,2.32031.31543,4.04395.94727,5.1709.63184,1.12793,1.64355,1.69141,3.03711,1.69141,1.37988,0,2.37598-.54102,2.98828-1.62305.6123-1.08105.93066-2.73633.95703-4.96582v-6.76367Z"/>
    <path class="cls-1" d="M943.82031,948.47975h-5.64453v-21.78809l-6.73828,2.08105v-4.55078l11.77734-4.21875h.60547v28.47656Z"/>
    <path class="cls-1" d="M966.26172,937.11257c-1.47168,1.44531-3.19043,2.16797-5.15625,2.16797-2.5127,0-4.52441-.8623-6.03516-2.58789s-2.26562-4.05273-2.26562-6.98242c0-1.8623.40723-3.57129,1.2207-5.12695s1.9502-2.7666,3.4082-3.63281,3.09863-1.29883,4.92188-1.29883c1.875,0,3.54199.46875,5,1.40625s2.59082,2.28516,3.39844,4.04297,1.21777,3.76953,1.23047,6.03516v2.08984c0,4.73926-1.17871,8.46387-3.53516,11.17188s-5.69629,4.15332-10.01953,4.33594l-1.38672.01953v-4.70703l1.25-.01953c4.90918-.22168,7.56543-2.52637,7.96875-6.91406ZM962.49219,934.96413c.91113,0,1.69629-.23438,2.35352-.70312s1.15527-1.03516,1.49414-1.69922v-2.32422c0-1.91406-.36426-3.39844-1.09375-4.45312s-1.70605-1.58203-2.92969-1.58203c-1.13281,0-2.06348.51758-2.79297,1.55273s-1.09375,2.33398-1.09375,3.89648c0,1.5498.35449,2.82227,1.06445,3.81836s1.70898,1.49414,2.99805,1.49414Z"/>
    <path class="cls-1" d="M995.34375,923.19264l-10.99609,25.28711h-5.95703l11.01562-23.88672h-14.14062v-4.55078h20.07812v3.15039Z"/>
    <path class="cls-1" d="M1018.09766,936.72194c0,3.93262-.81348,6.94043-2.44141,9.02344s-4.01074,3.125-7.14844,3.125c-3.09863,0-5.46875-1.02246-7.10938-3.06641s-2.48047-4.97363-2.51953-8.78906v-5.23438c0-3.97168.82324-6.98535,2.4707-9.04297s4.02051-3.08594,7.11914-3.08594,5.46875,1.01855,7.10938,3.05664,2.48047,4.96387,2.51953,8.7793v5.23438ZM1012.45312,930.96706c0-2.35938-.32227-4.07617-.9668-5.15137s-1.65039-1.61328-3.01758-1.61328c-1.32812,0-2.30762.51172-2.93945,1.53516-.63184,1.02246-.9668,2.62305-1.00586,4.79883v6.9209c0,2.32031.31543,4.04395.94727,5.1709.63184,1.12793,1.64355,1.69141,3.03711,1.69141,1.37988,0,2.37598-.54102,2.98828-1.62305.6123-1.08105.93066-2.73633.95703-4.96582v-6.76367Z"/>
    <path class="cls-1" d="M1103.08789,948.47975h-5.64453v-21.78809l-6.73828,2.08105v-4.55078l11.77734-4.21875h.60547v28.47656Z"/>
    <path class="cls-1" d="M1125.5293,937.11257c-1.47168,1.44531-3.19043,2.16797-5.15625,2.16797-2.5127,0-4.52441-.8623-6.03516-2.58789s-2.26562-4.05273-2.26562-6.98242c0-1.8623.40723-3.57129,1.2207-5.12695s1.9502-2.7666,3.4082-3.63281,3.09863-1.29883,4.92188-1.29883c1.875,0,3.54199.46875,5,1.40625s2.59082,2.28516,3.39844,4.04297,1.21777,3.76953,1.23047,6.03516v2.08984c0,4.73926-1.17871,8.46387-3.53516,11.17188s-5.69629,4.15332-10.01953,4.33594l-1.38672.01953v-4.70703l1.25-.01953c4.90918-.22168,7.56543-2.52637,7.96875-6.91406ZM1121.75977,934.96413c.91113,0,1.69629-.23438,2.35352-.70312s1.15527-1.03516,1.49414-1.69922v-2.32422c0-1.91406-.36426-3.39844-1.09375-4.45312s-1.70605-1.58203-2.92969-1.58203c-1.13281,0-2.06348.51758-2.79297,1.55273s-1.09375,2.33398-1.09375,3.89648c0,1.5498.35449,2.82227,1.06445,3.81836s1.70898,1.49414,2.99805,1.49414Z"/>
    <path class="cls-1" d="M1153.81055,927.60085c0,1.37988-.34473,2.60449-1.03516,3.67188s-1.64062,1.9209-2.85156,2.55859c1.37988.66406,2.47363,1.5791,3.28125,2.74414s1.21094,2.53613,1.21094,4.11133c0,2.52637-.85938,4.52148-2.57812,5.98633s-4.05566,2.19727-7.01172,2.19727-5.2998-.73535-7.03125-2.20703-2.59766-3.46387-2.59766-5.97656c0-1.5752.40332-2.94922,1.21094-4.12109s1.89453-2.08301,3.26172-2.73438c-1.21094-.6377-2.1582-1.49121-2.8418-2.55859s-1.02539-2.29199-1.02539-3.67188c0-2.42188.80762-4.35254,2.42188-5.79102s3.80859-2.1582,6.58203-2.1582c2.76074,0,4.95117.71289,6.57227,2.13867s2.43164,3.3623,2.43164,5.81055ZM1148.75195,940.27663c0-1.2373-.3584-2.22656-1.07422-2.96875s-1.67969-1.11328-2.89062-1.11328c-1.19824,0-2.15527.36816-2.87109,1.10352s-1.07422,1.72852-1.07422,2.97852c0,1.21094.35156,2.1875,1.05469,2.92969s1.67969,1.11328,2.92969,1.11328c1.22363,0,2.18457-.3584,2.88086-1.07422s1.04492-1.70605,1.04492-2.96875ZM1148.16602,927.87428c0-1.10645-.29297-1.99512-.87891-2.66602s-1.41309-1.00586-2.48047-1.00586c-1.05469,0-1.875.3252-2.46094.97656s-.87891,1.5498-.87891,2.69531c0,1.13281.29297,2.04395.87891,2.73438s1.41309,1.03516,2.48047,1.03516,1.8916-.34473,2.4707-1.03516.86914-1.60156.86914-2.73438Z"/>
    <path class="cls-1" d="M1177.36523,936.72194c0,3.93262-.81348,6.94043-2.44141,9.02344s-4.01074,3.125-7.14844,3.125c-3.09863,0-5.46875-1.02246-7.10938-3.06641s-2.48047-4.97363-2.51953-8.78906v-5.23438c0-3.97168.82324-6.98535,2.4707-9.04297s4.02051-3.08594,7.11914-3.08594,5.46875,1.01855,7.10938,3.05664,2.48047,4.96387,2.51953,8.7793v5.23438ZM1171.7207,930.96706c0-2.35938-.32227-4.07617-.9668-5.15137s-1.65039-1.61328-3.01758-1.61328c-1.32812,0-2.30762.51172-2.93945,1.53516-.63184,1.02246-.9668,2.62305-1.00586,4.79883v6.9209c0,2.32031.31543,4.04395.94727,5.1709.63184,1.12793,1.64355,1.69141,3.03711,1.69141,1.37988,0,2.37598-.54102,2.98828-1.62305.6123-1.08105.93066-2.73633.95703-4.96582v-6.76367Z"/>
    <path class="cls-1" d="M1262.35449,948.47975h-5.64453v-21.78809l-6.73828,2.08105v-4.55078l11.77734-4.21875h.60547v28.47656Z"/>
    <path class="cls-1" d="M1284.7959,937.11257c-1.47168,1.44531-3.19043,2.16797-5.15625,2.16797-2.5127,0-4.52441-.8623-6.03516-2.58789s-2.26562-4.05273-2.26562-6.98242c0-1.8623.40723-3.57129,1.2207-5.12695s1.9502-2.7666,3.4082-3.63281,3.09863-1.29883,4.92188-1.29883c1.875,0,3.54199.46875,5,1.40625s2.59082,2.28516,3.39844,4.04297,1.21777,3.76953,1.23047,6.03516v2.08984c0,4.73926-1.17871,8.46387-3.53516,11.17188s-5.69629,4.15332-10.01953,4.33594l-1.38672.01953v-4.70703l1.25-.01953c4.90918-.22168,7.56543-2.52637,7.96875-6.91406ZM1281.02637,934.96413c.91113,0,1.69629-.23438,2.35352-.70312s1.15527-1.03516,1.49414-1.69922v-2.32422c0-1.91406-.36426-3.39844-1.09375-4.45312s-1.70605-1.58203-2.92969-1.58203c-1.13281,0-2.06348.51758-2.79297,1.55273s-1.09375,2.33398-1.09375,3.89648c0,1.5498.35449,2.82227,1.06445,3.81836s1.70898,1.49414,2.99805,1.49414Z"/>
    <path class="cls-1" d="M1307.74512,937.11257c-1.47168,1.44531-3.19043,2.16797-5.15625,2.16797-2.5127,0-4.52441-.8623-6.03516-2.58789s-2.26562-4.05273-2.26562-6.98242c0-1.8623.40723-3.57129,1.2207-5.12695s1.9502-2.7666,3.4082-3.63281,3.09863-1.29883,4.92188-1.29883c1.875,0,3.54199.46875,5,1.40625s2.59082,2.28516,3.39844,4.04297,1.21777,3.76953,1.23047,6.03516v2.08984c0,4.73926-1.17871,8.46387-3.53516,11.17188s-5.69629,4.15332-10.01953,4.33594l-1.38672.01953v-4.70703l1.25-.01953c4.90918-.22168,7.56543-2.52637,7.96875-6.91406ZM1303.97559,934.96413c.91113,0,1.69629-.23438,2.35352-.70312s1.15527-1.03516,1.49414-1.69922v-2.32422c0-1.91406-.36426-3.39844-1.09375-4.45312s-1.70605-1.58203-2.92969-1.58203c-1.13281,0-2.06348.51758-2.79297,1.55273s-1.09375,2.33398-1.09375,3.89648c0,1.5498.35449,2.82227,1.06445,3.81836s1.70898,1.49414,2.99805,1.49414Z"/>
    <path class="cls-1" d="M1336.63184,936.72194c0,3.93262-.81348,6.94043-2.44141,9.02344s-4.01074,3.125-7.14844,3.125c-3.09863,0-5.46875-1.02246-7.10938-3.06641s-2.48047-4.97363-2.51953-8.78906v-5.23438c0-3.97168.82324-6.98535,2.4707-9.04297s4.02051-3.08594,7.11914-3.08594,5.46875,1.01855,7.10938,3.05664,2.48047,4.96387,2.51953,8.7793v5.23438ZM1330.9873,930.96706c0-2.35938-.32227-4.07617-.9668-5.15137s-1.65039-1.61328-3.01758-1.61328c-1.32812,0-2.30762.51172-2.93945,1.53516-.63184,1.02246-.9668,2.62305-1.00586,4.79883v6.9209c0,2.32031.31543,4.04395.94727,5.1709.63184,1.12793,1.64355,1.69141,3.03711,1.69141,1.37988,0,2.37598-.54102,2.98828-1.62305.6123-1.08105.93066-2.73633.95703-4.96582v-6.76367Z"/>
    <path class="cls-1" d="M1427.40332,948.47975h-19.49219v-3.86719l9.19922-9.80469c1.2627-1.37988,2.19727-2.58496,2.80273-3.61328s.9082-2.00488.9082-2.92969c0-1.2627-.31934-2.25586-.95703-2.97852s-1.5498-1.08398-2.73438-1.08398c-1.27637,0-2.28223.43945-3.01758,1.31836s-1.10352,2.03418-1.10352,3.4668h-5.66406c0-1.73145.41309-3.31348,1.24023-4.74609s1.99512-2.55566,3.50586-3.36914,3.22266-1.2207,5.13672-1.2207c2.92969,0,5.20508.70312,6.82617,2.10938s2.43164,3.3916,2.43164,5.95703c0,1.40625-.36426,2.83887-1.09375,4.29688s-1.97949,3.15723-3.75,5.09766l-6.46484,6.81641h12.22656v4.55078Z"/>
    <path class="cls-1" d="M1450.00098,936.72194c0,3.93262-.81348,6.94043-2.44141,9.02344s-4.01074,3.125-7.14844,3.125c-3.09863,0-5.46875-1.02246-7.10938-3.06641s-2.48047-4.97363-2.51953-8.78906v-5.23438c0-3.97168.82324-6.98535,2.4707-9.04297s4.02051-3.08594,7.11914-3.08594,5.46875,1.01855,7.10938,3.05664,2.48047,4.96387,2.51953,8.7793v5.23438ZM1444.35645,930.96706c0-2.35938-.32227-4.07617-.9668-5.15137s-1.65039-1.61328-3.01758-1.61328c-1.32812,0-2.30762.51172-2.93945,1.53516-.63184,1.02246-.9668,2.62305-1.00586,4.79883v6.9209c0,2.32031.31543,4.04395.94727,5.1709.63184,1.12793,1.64355,1.69141,3.03711,1.69141,1.37988,0,2.37598-.54102,2.98828-1.62305.6123-1.08105.93066-2.73633.95703-4.96582v-6.76367Z"/>
    <path class="cls-1" d="M1472.9502,936.72194c0,3.93262-.81348,6.94043-2.44141,9.02344s-4.01074,3.125-7.14844,3.125c-3.09863,0-5.46875-1.02246-7.10938-3.06641s-2.48047-4.97363-2.51953-8.78906v-5.23438c0-3.97168.82324-6.98535,2.4707-9.04297s4.02051-3.08594,7.11914-3.08594,5.46875,1.01855,7.10938,3.05664,2.48047,4.96387,2.51953,8.7793v5.23438ZM1467.30566,930.96706c0-2.35938-.32227-4.07617-.9668-5.15137s-1.65039-1.61328-3.01758-1.61328c-1.32812,0-2.30762.51172-2.93945,1.53516-.63184,1.02246-.9668,2.62305-1.00586,4.79883v6.9209c0,2.32031.31543,4.04395.94727,5.1709.63184,1.12793,1.64355,1.69141,3.03711,1.69141,1.37988,0,2.37598-.54102,2.98828-1.62305.6123-1.08105.93066-2.73633.95703-4.96582v-6.76367Z"/>
    <path class="cls-1" d="M1495.89941,936.72194c0,3.93262-.81348,6.94043-2.44141,9.02344s-4.01074,3.125-7.14844,3.125c-3.09863,0-5.46875-1.02246-7.10938-3.06641s-2.48047-4.97363-2.51953-8.78906v-5.23438c0-3.97168.82324-6.98535,2.4707-9.04297s4.02051-3.08594,7.11914-3.08594,5.46875,1.01855,7.10938,3.05664,2.48047,4.96387,2.51953,8.7793v5.23438ZM1490.25488,930.96706c0-2.35938-.32227-4.07617-.9668-5.15137s-1.65039-1.61328-3.01758-1.61328c-1.32812,0-2.30762.51172-2.93945,1.53516-.63184,1.02246-.9668,2.62305-1.00586,4.79883v6.9209c0,2.32031.31543,4.04395.94727,5.1709.63184,1.12793,1.64355,1.69141,3.03711,1.69141,1.37988,0,2.37598-.54102,2.98828-1.62305.6123-1.08105.93066-2.73633.95703-4.96582v-6.76367Z"/>
    <path class="cls-1" d="M1586.66992,948.47975h-19.49219v-3.86719l9.19922-9.80469c1.2627-1.37988,2.19727-2.58496,2.80273-3.61328s.9082-2.00488.9082-2.92969c0-1.2627-.31934-2.25586-.95703-2.97852s-1.5498-1.08398-2.73438-1.08398c-1.27637,0-2.28223.43945-3.01758,1.31836s-1.10352,2.03418-1.10352,3.4668h-5.66406c0-1.73145.41309-3.31348,1.24023-4.74609s1.99512-2.55566,3.50586-3.36914,3.22266-1.2207,5.13672-1.2207c2.92969,0,5.20508.70312,6.82617,2.10938s2.43164,3.3916,2.43164,5.95703c0,1.40625-.36426,2.83887-1.09375,4.29688s-1.97949,3.15723-3.75,5.09766l-6.46484,6.81641h12.22656v4.55078Z"/>
    <path class="cls-1" d="M1609.26758,936.72194c0,3.93262-.81348,6.94043-2.44141,9.02344s-4.01074,3.125-7.14844,3.125c-3.09863,0-5.46875-1.02246-7.10938-3.06641s-2.48047-4.97363-2.51953-8.78906v-5.23438c0-3.97168.82324-6.98535,2.4707-9.04297s4.02051-3.08594,7.11914-3.08594,5.46875,1.01855,7.10938,3.05664,2.48047,4.96387,2.51953,8.7793v5.23438ZM1603.62305,930.96706c0-2.35938-.32227-4.07617-.9668-5.15137s-1.65039-1.61328-3.01758-1.61328c-1.32812,0-2.30762.51172-2.93945,1.53516-.63184,1.02246-.9668,2.62305-1.00586,4.79883v6.9209c0,2.32031.31543,4.04395.94727,5.1709.63184,1.12793,1.64355,1.69141,3.03711,1.69141,1.37988,0,2.37598-.54102,2.98828-1.62305.6123-1.08105.93066-2.73633.95703-4.96582v-6.76367Z"/>
    <path class="cls-1" d="M1626.78711,948.47975h-5.64453v-21.78809l-6.73828,2.08105v-4.55078l11.77734-4.21875h.60547v28.47656Z"/>
    <path class="cls-1" d="M1655.16602,936.72194c0,3.93262-.81348,6.94043-2.44141,9.02344s-4.01074,3.125-7.14844,3.125c-3.09863,0-5.46875-1.02246-7.10938-3.06641s-2.48047-4.97363-2.51953-8.78906v-5.23438c0-3.97168.82324-6.98535,2.4707-9.04297s4.02051-3.08594,7.11914-3.08594,5.46875,1.01855,7.10938,3.05664,2.48047,4.96387,2.51953,8.7793v5.23438ZM1649.52148,930.96706c0-2.35938-.32227-4.07617-.9668-5.15137s-1.65039-1.61328-3.01758-1.61328c-1.32812,0-2.30762.51172-2.93945,1.53516-.63184,1.02246-.9668,2.62305-1.00586,4.79883v6.9209c0,2.32031.31543,4.04395.94727,5.1709.63184,1.12793,1.64355,1.69141,3.03711,1.69141,1.37988,0,2.37598-.54102,2.98828-1.62305.6123-1.08105.93066-2.73633.95703-4.96582v-6.76367Z"/>
    <path class="cls-1" d="M1745.9375,948.47975h-19.49219v-3.86719l9.19922-9.80469c1.2627-1.37988,2.19727-2.58496,2.80273-3.61328s.9082-2.00488.9082-2.92969c0-1.2627-.31934-2.25586-.95703-2.97852s-1.5498-1.08398-2.73438-1.08398c-1.27637,0-2.28223.43945-3.01758,1.31836s-1.10352,2.03418-1.10352,3.4668h-5.66406c0-1.73145.41309-3.31348,1.24023-4.74609s1.99512-2.55566,3.50586-3.36914,3.22266-1.2207,5.13672-1.2207c2.92969,0,5.20508.70312,6.82617,2.10938s2.43164,3.3916,2.43164,5.95703c0,1.40625-.36426,2.83887-1.09375,4.29688s-1.97949,3.15723-3.75,5.09766l-6.46484,6.81641h12.22656v4.55078Z"/>
    <path class="cls-1" d="M1768.53516,936.72194c0,3.93262-.81348,6.94043-2.44141,9.02344s-4.01074,3.125-7.14844,3.125c-3.09863,0-5.46875-1.02246-7.10938-3.06641s-2.48047-4.97363-2.51953-8.78906v-5.23438c0-3.97168.82324-6.98535,2.4707-9.04297s4.02051-3.08594,7.11914-3.08594,5.46875,1.01855,7.10938,3.05664,2.48047,4.96387,2.51953,8.7793v5.23438ZM1762.89062,930.96706c0-2.35938-.32227-4.07617-.9668-5.15137s-1.65039-1.61328-3.01758-1.61328c-1.32812,0-2.30762.51172-2.93945,1.53516-.63184,1.02246-.9668,2.62305-1.00586,4.79883v6.9209c0,2.32031.31543,4.04395.94727,5.1709.63184,1.12793,1.64355,1.69141,3.03711,1.69141,1.37988,0,2.37598-.54102,2.98828-1.62305.6123-1.08105.93066-2.73633.95703-4.96582v-6.76367Z"/>
    <path class="cls-1" d="M1791.83594,948.47975h-19.49219v-3.86719l9.19922-9.80469c1.2627-1.37988,2.19727-2.58496,2.80273-3.61328s.9082-2.00488.9082-2.92969c0-1.2627-.31934-2.25586-.95703-2.97852s-1.5498-1.08398-2.73438-1.08398c-1.27637,0-2.28223.43945-3.01758,1.31836s-1.10352,2.03418-1.10352,3.4668h-5.66406c0-1.73145.41309-3.31348,1.24023-4.74609s1.99512-2.55566,3.50586-3.36914,3.22266-1.2207,5.13672-1.2207c2.92969,0,5.20508.70312,6.82617,2.10938s2.43164,3.3916,2.43164,5.95703c0,1.40625-.36426,2.83887-1.09375,4.29688s-1.97949,3.15723-3.75,5.09766l-6.46484,6.81641h12.22656v4.55078Z"/>
    <path class="cls-1" d="M1814.43359,936.72194c0,3.93262-.81348,6.94043-2.44141,9.02344s-4.01074,3.125-7.14844,3.125c-3.09863,0-5.46875-1.02246-7.10938-3.06641s-2.48047-4.97363-2.51953-8.78906v-5.23438c0-3.97168.82324-6.98535,2.4707-9.04297s4.02051-3.08594,7.11914-3.08594,5.46875,1.01855,7.10938,3.05664,2.48047,4.96387,2.51953,8.7793v5.23438ZM1808.78906,930.96706c0-2.35938-.32227-4.07617-.9668-5.15137s-1.65039-1.61328-3.01758-1.61328c-1.32812,0-2.30762.51172-2.93945,1.53516-.63184,1.02246-.9668,2.62305-1.00586,4.79883v6.9209c0,2.32031.31543,4.04395.94727,5.1709.63184,1.12793,1.64355,1.69141,3.03711,1.69141,1.37988,0,2.37598-.54102,2.98828-1.62305.6123-1.08105.93066-2.73633.95703-4.96582v-6.76367Z"/>
  </g>
  <rect class="cls-1" x="560.58408" y="246.06868" width="763.47622" height="32.07462"/>
  <rect class="cls-1" x="638.00557" y="317.1786" width="623.59464" height="32.07462"/>
  <rect class="cls-1" x="704.36685" y="386.85794" width="159.30426" height="32.07462"/>
  <rect class="cls-1" x="925.5711" y="457.53512" width="464.01218" height="32.07462"/>
  <rect class="cls-1" x="880.22423" y="527.32264" width="365.3307" height="32.07462"/>
  <rect class="cls-1" x="1322.63275" y="671.0536" width="465.18342" height="32.07462"/>
  <rect class="cls-1" x="1181.023" y="738.52627" width="606.79316" height="32.07462"/>
  <rect class="cls-5" x="1664.91346" y="813.73571" width="122.9027" height="32.07462"/>
  <rect class="cls-5" x="1658.07401" y="317.1786" width="129.74216" height="32.07462"/>
  <g>
    <path class="cls-1" d="M816.41211,206.67702h-5.85938l-11.40625-18.71094v18.71094h-5.85938v-28.4375h5.85938l11.42578,18.75v-18.75h5.83984v28.4375Z"/>
    <path class="cls-1" d="M827.38867,196.65749v10.01953h-5.85938v-28.4375h11.09375c2.13574,0,4.01367.39062,5.63477,1.17188s2.86816,1.8916,3.74023,3.33008,1.30859,3.07617,1.30859,4.91211c0,2.78613-.9541,4.9834-2.86133,6.5918s-4.54785,2.41211-7.91992,2.41211h-5.13672ZM827.38867,191.91139h5.23438c1.5498,0,2.73145-.36426,3.54492-1.09375s1.2207-1.77051,1.2207-3.125c0-1.39355-.41016-2.51953-1.23047-3.37891s-1.95312-1.30176-3.39844-1.32812h-5.37109v8.92578Z"/>
    <path class="cls-1" d="M868.73633,182.98561h-8.71094v23.69141h-5.85938v-23.69141h-8.59375v-4.74609h23.16406v4.74609Z"/>
    <path class="cls-1" d="M890.2207,207.06764c-3.09863,0-5.62207-.9502-7.56836-2.85156s-2.91992-4.43359-2.91992-7.59766v-.54688c0-2.12207.41016-4.02051,1.23047-5.69336s1.98242-2.96191,3.48633-3.86719,3.21973-1.35742,5.14648-1.35742c2.89062,0,5.16602.91113,6.82617,2.73438s2.49023,4.40723,2.49023,7.75391v2.30469h-13.45703c.18262,1.37988.73242,2.4873,1.65039,3.32031s2.08008,1.25,3.48633,1.25c2.1748,0,3.87402-.78809,5.09766-2.36328l2.77344,3.10547c-.84668,1.19824-1.99219,2.13184-3.4375,2.80273s-3.04688,1.00586-4.80469,1.00586ZM889.57617,189.70436c-1.12012,0-2.02832.37891-2.72461,1.1377s-1.14258,1.84473-1.33789,3.25684h7.85156v-.45117c-.02637-1.25586-.36426-2.22656-1.01562-2.91309s-1.5752-1.03027-2.77344-1.03027Z"/>
    <path class="cls-1" d="M907.31055,185.54421l.17578,2.44141c1.51074-1.8877,3.53516-2.83203,6.07422-2.83203,2.23926,0,3.90625.65723,5,1.97266s1.65332,3.28125,1.67969,5.89844v13.65234h-5.64453v-13.54688c0-1.2002-.26074-2.07129-.78125-2.61328-.52051-.54102-1.38672-.8125-2.59766-.8125-1.58887,0-2.78027.67871-3.57422,2.03613v14.93652h-5.64453v-21.13281h5.3125Z"/>
    <path class="cls-1" d="M931.27539,180.34889v5.19531h3.61328v4.14062h-3.61328v10.54688c0,.78125.14941,1.34082.44922,1.67969s.87207.50781,1.71875.50781c.625,0,1.17871-.0459,1.66016-.13672v4.27734c-1.10645.33887-2.24609.50781-3.41797.50781-3.95801,0-5.97656-1.99902-6.05469-5.99609v-11.38672h-3.08594v-4.14062h3.08594v-5.19531h5.64453Z"/>
    <path class="cls-1" d="M949.9082,190.83718c-.76855-.10449-1.44531-.15625-2.03125-.15625-2.13574,0-3.53516.72266-4.19922,2.16797v13.82812h-5.64453v-21.13281h5.33203l.15625,2.51953c1.13281-1.94043,2.70215-2.91016,4.70703-2.91016.625,0,1.21094.08496,1.75781.25391l-.07812,5.42969Z"/>
    <path class="cls-1" d="M960.86523,198.68874l3.90625-13.14453h6.05469l-8.49609,24.41406-.46875,1.11328c-1.2627,2.76074-3.34668,4.14062-6.25,4.14062-.82031,0-1.65332-.12402-2.5-.37109v-4.27734l.85938.01953c1.06738,0,1.86523-.16309,2.39258-.48828s.94043-.86621,1.24023-1.62109l.66406-1.73828-7.40234-21.19141h6.07422l3.92578,13.14453Z"/>
    <path class="cls-1" d="M982.97461,180.07546c0-.84668.2832-1.54297.84961-2.08984s1.33789-.82031,2.31445-.82031c.96387,0,1.73145.27344,2.30469.82031s.85938,1.24316.85938,2.08984c0,.85938-.29004,1.5625-.86914,2.10938s-1.34473.82031-2.29492.82031-1.71582-.27344-2.29492-.82031-.86914-1.25-.86914-2.10938ZM988.9707,206.67702h-5.66406v-21.13281h5.66406v21.13281Z"/>
    <path class="cls-1" d="M998.81445,185.54421l.17578,2.44141c1.51074-1.8877,3.53516-2.83203,6.07422-2.83203,2.23926,0,3.90625.65723,5,1.97266s1.65332,3.28125,1.67969,5.89844v13.65234h-5.64453v-13.54688c0-1.2002-.26074-2.07129-.78125-2.61328-.52051-.54102-1.38672-.8125-2.59766-.8125-1.58887,0-2.78027.67871-3.57422,2.03613v14.93652h-5.64453v-21.13281h5.3125Z"/>
    <path class="cls-1" d="M1022.7793,180.34889v5.19531h3.61328v4.14062h-3.61328v10.54688c0,.78125.14941,1.34082.44922,1.67969s.87207.50781,1.71875.50781c.625,0,1.17871-.0459,1.66016-.13672v4.27734c-1.10645.33887-2.24609.50781-3.41797.50781-3.95801,0-5.97656-1.99902-6.05469-5.99609v-11.38672h-3.08594v-4.14062h3.08594v-5.19531h5.64453Z"/>
    <path class="cls-1" d="M1028.07227,195.9153c0-2.09668.40332-3.96484,1.21094-5.60547s1.96973-2.91016,3.48633-3.80859,3.27832-1.34766,5.2832-1.34766c2.85156,0,5.17871.87207,6.98242,2.61719s2.80957,4.11426,3.01758,7.10938l.03906,1.44531c0,3.24219-.90527,5.84277-2.71484,7.80273s-4.23828,2.93945-7.28516,2.93945-5.47852-.97656-7.29492-2.92969-2.72461-4.60938-2.72461-7.96875v-.25391ZM1033.7168,196.31569c0,2.00879.37793,3.54395,1.13281,4.60742.75488,1.0625,1.83594,1.59375,3.24219,1.59375,1.36719,0,2.43457-.52539,3.20312-1.57422.76855-1.05078,1.15234-2.72949,1.15234-5.03711,0-1.96973-.38379-3.49512-1.15234-4.57812-.76855-1.08203-1.84863-1.62305-3.24219-1.62305-1.37988,0-2.44824.53809-3.20312,1.61328-.75488,1.07617-1.13281,2.74219-1.13281,4.99805Z"/>
    <path class="cls-1" d="M1079.00977,195.05593h-11.25v11.62109h-5.85938v-28.4375h18.51562v4.74609h-12.65625v7.34375h11.25v4.72656Z"/>
    <path class="cls-1" d="M1082.1543,195.9153c0-2.09668.40332-3.96484,1.21094-5.60547s1.96973-2.91016,3.48633-3.80859,3.27832-1.34766,5.2832-1.34766c2.85156,0,5.17871.87207,6.98242,2.61719s2.80957,4.11426,3.01758,7.10938l.03906,1.44531c0,3.24219-.90527,5.84277-2.71484,7.80273s-4.23828,2.93945-7.28516,2.93945-5.47852-.97656-7.29492-2.92969-2.72461-4.60938-2.72461-7.96875v-.25391ZM1087.79883,196.31569c0,2.00879.37793,3.54395,1.13281,4.60742.75488,1.0625,1.83594,1.59375,3.24219,1.59375,1.36719,0,2.43457-.52539,3.20312-1.57422.76855-1.05078,1.15234-2.72949,1.15234-5.03711,0-1.96973-.38379-3.49512-1.15234-4.57812-.76855-1.08203-1.84863-1.62305-3.24219-1.62305-1.37988,0-2.44824.53809-3.20312,1.61328-.75488,1.07617-1.13281,2.74219-1.13281,4.99805Z"/>
    <path class="cls-1" d="M1117.52539,190.83718c-.76855-.10449-1.44531-.15625-2.03125-.15625-2.13574,0-3.53516.72266-4.19922,2.16797v13.82812h-5.64453v-21.13281h5.33203l.15625,2.51953c1.13281-1.94043,2.70215-2.91016,4.70703-2.91016.625,0,1.21094.08496,1.75781.25391l-.07812,5.42969Z"/>
    <path class="cls-1" d="M1128.6582,202.51686c1.04199,0,1.8877-.28613,2.53906-.85938s.98926-1.33496,1.01562-2.28516h5.29297c-.0127,1.43262-.40332,2.74414-1.17188,3.93555s-1.81934,2.11621-3.1543,2.77344-2.80957.98633-4.42383.98633c-3.02051,0-5.40332-.95996-7.14844-2.88086s-2.61719-4.57324-2.61719-7.95898v-.37109c0-3.25488.86621-5.85254,2.59766-7.79297s4.1084-2.91016,7.12891-2.91016c2.64355,0,4.7627.75195,6.35742,2.25586s2.40527,3.50586,2.43164,6.00586h-5.29297c-.02637-1.09961-.36426-1.99316-1.01562-2.67969-.65137-.6875-1.51074-1.03125-2.57812-1.03125-1.31543,0-2.30762.47949-2.97852,1.4375-.6709.95898-1.00586,2.51367-1.00586,4.66504v.58691c0,2.17871.33203,3.74316.99609,4.69531s1.67285,1.42773,3.02734,1.42773Z"/>
    <path class="cls-1" d="M1150.45508,207.06764c-3.09863,0-5.62207-.9502-7.56836-2.85156s-2.91992-4.43359-2.91992-7.59766v-.54688c0-2.12207.41016-4.02051,1.23047-5.69336s1.98242-2.96191,3.48633-3.86719,3.21973-1.35742,5.14648-1.35742c2.89062,0,5.16602.91113,6.82617,2.73438s2.49023,4.40723,2.49023,7.75391v2.30469h-13.45703c.18262,1.37988.73242,2.4873,1.65039,3.32031s2.08008,1.25,3.48633,1.25c2.1748,0,3.87402-.78809,5.09766-2.36328l2.77344,3.10547c-.84668,1.19824-1.99219,2.13184-3.4375,2.80273s-3.04688,1.00586-4.80469,1.00586ZM1149.81055,189.70436c-1.12012,0-2.02832.37891-2.72461,1.1377s-1.14258,1.84473-1.33789,3.25684h7.85156v-.45117c-.02637-1.25586-.36426-2.22656-1.01562-2.91309s-1.5752-1.03027-2.77344-1.03027Z"/>
  </g>
  <g>
    <line class="cls-4" x1="971.92383" y1="240.67939" x2="971.92383" y2="253.95185"/>
    <line class="cls-3" x1="971.92383" y1="280.69404" x2="971.92383" y2="909.13838"/>
    <line class="cls-4" x1="971.92383" y1="922.50947" x2="971.92383" y2="935.78193"/>
  </g>
</svg>