<?xml version="1.0" encoding="UTF-8"?>
<svg id="Ebene_2" data-name="Ebene 2" xmlns="http://www.w3.org/2000/svg" xmlns:xlink="http://www.w3.org/1999/xlink" viewBox="0 0 1920 697.38811">
  <defs>
    <style>
      .cls-1 {
        fill: url(#Unbenannter_Verlauf_8);
      }

      .cls-2 {
        fill: url(#Unbenannter_Verlauf_5);
      }

      .cls-3 {
        fill: none;
        stroke: #0d435c;
        stroke-miterlimit: 10;
        stroke-width: 5.4px;
      }

      .cls-4 {
        fill: #0d435c;
      }

      .cls-5 {
        fill: #0e425c;
      }

      .cls-6 {
        fill: #f3f5f7;
      }

      .cls-7 {
        fill: url(#Unbenannter_Verlauf_15);
      }

      .cls-8 {
        fill: url(#Unbenannter_Verlauf_10);
      }

      .cls-9 {
        fill: url(#Neues_Verlaufsfeld_3);
      }
    </style>
    <radialGradient id="Unbenannter_Verlauf_8" data-name="Unbenannter Verlauf 8" cx="470.71252" cy="320.03982" fx="407.28854" fy="249.28687" r="110.65316" gradientUnits="userSpaceOnUse">
      <stop offset=".0053" stop-color="#f3f5f7"/>
      <stop offset=".38423" stop-color="#f5e098"/>
      <stop offset=".96089" stop-color="#fac102"/>
    </radialGradient>
    <radialGradient id="Unbenannter_Verlauf_5" data-name="Unbenannter Verlauf 5" cx="889.29446" cy="320.03982" fx="825.87048" fy="249.28687" r="110.65316" gradientUnits="userSpaceOnUse">
      <stop offset=".0053" stop-color="#f3f5f7"/>
      <stop offset=".38127" stop-color="#d0de98"/>
      <stop offset=".96089" stop-color="#98ba00"/>
    </radialGradient>
    <radialGradient id="Unbenannter_Verlauf_10" data-name="Unbenannter Verlauf 10" cx="1291.13312" cy="320.03982" fx="1227.70914" fy="249.28687" r="110.65316" gradientUnits="userSpaceOnUse">
      <stop offset=".0053" stop-color="#f3f5f7"/>
      <stop offset=".42748" stop-color="#f4c598"/>
      <stop offset=".96089" stop-color="#f6881c"/>
    </radialGradient>
    <radialGradient id="Unbenannter_Verlauf_15" data-name="Unbenannter Verlauf 15" cx="1692.97359" cy="320.03982" fx="1629.54961" fy="249.28687" r="110.65316" gradientUnits="userSpaceOnUse">
      <stop offset=".0053" stop-color="#f3f5f7"/>
      <stop offset=".4219" stop-color="#db96a0"/>
      <stop offset=".96089" stop-color="#bb172b"/>
    </radialGradient>
    <radialGradient id="Neues_Verlaufsfeld_3" data-name="Neues Verlaufsfeld 3" cx="145.89475" cy="320.03982" fx="128.37869" fy="302.02956" r="43.71063" gradientUnits="userSpaceOnUse">
      <stop offset="0" stop-color="#f3f5f7"/>
      <stop offset=".18849" stop-color="#d0dadf"/>
      <stop offset=".47704" stop-color="#a1b5c0"/>
      <stop offset=".69847" stop-color="#839eac"/>
      <stop offset=".82452" stop-color="#7996a5"/>
    </radialGradient>
  </defs>
  <rect class="cls-6" x="-6.38844" y="-6.82014" width="1932.41208" height="709.09411"/>
  <polyline class="cls-3" points="140.41237 397.8279 140.41237 489.58048 465.15464 489.58048 465.15464 461.09297"/>
  <rect class="cls-6" x="166.32988" y="469.56366" width="251.40208" height="41.23711"/>
  <path class="cls-1" d="M392.48208,398.29014c43.20506,43.19607,113.2527,43.21466,156.47635-.00899,43.21412-43.22413,43.20506-113.27176,0-156.47682-43.22365-43.22365-113.26223-43.22365-156.48588,0-43.22357,43.21459-43.21459,113.26223.00953,156.48582Z"/>
  <path class="cls-2" d="M811.06402,398.29014c43.20506,43.19607,113.2527,43.21466,156.47635-.00899,43.21412-43.22413,43.20506-113.27176,0-156.47682-43.22365-43.22365-113.26223-43.22365-156.48588,0-43.22357,43.21459-43.21459,113.26223.00953,156.48582Z"/>
  <path class="cls-8" d="M1212.90268,398.29014c43.20506,43.19607,113.2527,43.21466,156.47635-.00899,43.21412-43.22413,43.20506-113.27176,0-156.47682-43.22365-43.22365-113.26223-43.22365-156.48588,0-43.22357,43.21459-43.21459,113.26223.00953,156.48582Z"/>
  <path class="cls-7" d="M1614.74314,398.29014c43.20506,43.19607,113.2527,43.21466,156.47635-.00899,43.21412-43.22413,43.20506-113.27176,0-156.47682-43.22365-43.22365-113.26223-43.22365-156.48588,0-43.22357,43.21459-43.21459,113.26223.00953,156.48582Z"/>
  <path class="cls-9" d="M114.99256,350.95025c17.06511,17.06495,44.73524,17.07041,61.81127-.00376,17.07038-17.07224,17.06681-44.74613,0-61.80939-17.07434-17.07581-44.74258-17.0777-61.81672-.00355-17.07228,17.07227-17.07058,44.7407.00545,61.8167Z"/>
  <path class="cls-5" d="M138.64142,306.63053l.22852,3.17383c1.96387-2.45508,4.5957-3.68164,7.89648-3.68164,2.91113,0,5.07812.85352,6.5,2.56445,1.42188,1.70898,2.14941,4.26562,2.18359,7.66797v17.74805h-7.33789v-17.61133c0-1.56055-.33887-2.69336-1.01562-3.39844-.67676-.70312-1.80273-1.05469-3.37695-1.05469-2.06543,0-3.61426.88281-4.64648,2.64648v19.41797h-7.33789v-27.47266h6.90625Z"/>
  <g>
    <path class="cls-5" d="M429.97248,321.38639h-14.77246v-2.93066l6.97168-7.43164c.95703-1.0459,1.66504-1.95801,2.12402-2.73828.45898-.7793.68848-1.51953.68848-2.2207,0-.95703-.24219-1.70898-.72559-2.25684s-1.17383-.82129-2.07227-.82129c-.9668,0-1.72949.33301-2.28711.99902s-.83594,1.54199-.83594,2.62695h-4.29297c0-1.3125.31348-2.51074.94043-3.59668.62598-1.08594,1.51172-1.93652,2.65625-2.55371,1.14551-.61621,2.44336-.9248,3.89355-.9248,2.2207,0,3.94531.53223,5.17383,1.59863,1.22852,1.06543,1.84277,2.57031,1.84277,4.51465,0,1.06543-.27637,2.15137-.8291,3.25684s-1.5,2.39258-2.8418,3.86328l-4.90039,5.16602h9.2666v3.44922Z"/>
    <path class="cls-5" d="M436.94514,308.71549h2.2793c1.08594,0,1.88965-.27148,2.41309-.81445s.78516-1.2627.78516-2.16113c0-.86816-.25977-1.54395-.77734-2.02832-.51855-.4834-1.23145-.72461-2.13965-.72461-.81836,0-1.50488.22461-2.05762.67285-.55273.44922-.82812,1.03418-.82812,1.75488h-4.27832c0-1.125.30371-2.13477.91016-3.02734.60742-.89355,1.45605-1.5918,2.5459-2.09473,1.09082-.50391,2.29199-.75488,3.60449-.75488,2.28027,0,4.06641.54492,5.35938,1.63574,1.29199,1.08984,1.93848,2.59277,1.93848,4.50684,0,.9873-.30078,1.89551-.90234,2.72363-.60254.8291-1.3916,1.46582-2.36914,1.91016,1.21387.43457,2.11914,1.08594,2.7168,1.9541.59668.86816.89551,1.89453.89551,3.0791,0,1.91406-.69824,3.44824-2.09473,4.60352-1.39648,1.1543-3.24414,1.73145-5.54395,1.73145-2.15137,0-3.91016-.56738-5.27734-1.70215-1.36621-1.13477-2.0498-2.63477-2.0498-4.5h4.27832c0,.80957.30371,1.4707.91016,1.9834.60645.51367,1.35449.76953,2.24219.76953,1.0166,0,1.81348-.26855,2.39062-.80664.57812-.53711.86621-1.25098.86621-2.13867,0-2.15137-1.18359-3.22754-3.55273-3.22754h-2.26465v-3.34473Z"/>
    <path class="cls-5" d="M464.034,305.56217c0,1.0459-.26172,1.97363-.78516,2.7832s-1.24316,1.45508-2.16113,1.93945c1.0459.50293,1.875,1.19629,2.4873,2.0791.61133.88379.91699,1.92188.91699,3.11621,0,1.91504-.65039,3.42676-1.95312,4.53711s-3.07422,1.66504-5.31445,1.66504-4.0166-.55762-5.3291-1.67285-1.96875-2.625-1.96875-4.5293c0-1.19434.30566-2.23535.91797-3.12305.61133-.88867,1.43555-1.5791,2.47168-2.07227-.91797-.48438-1.63574-1.12988-2.15332-1.93945-.51855-.80957-.77734-1.7373-.77734-2.7832,0-1.83496.61133-3.29883,1.83594-4.38867,1.22266-1.09082,2.88574-1.63574,4.98828-1.63574,2.0918,0,3.75195.54004,4.98047,1.62109,1.22949,1.08008,1.84375,2.54785,1.84375,4.40332ZM460.20002,315.16959c0-.9375-.27148-1.6875-.81445-2.25s-1.27344-.84375-2.19043-.84375c-.9082,0-1.63379.27832-2.17676.83594s-.81348,1.31055-.81348,2.25781c0,.91699.2666,1.65723.79883,2.21973.5332.5625,1.27344.84375,2.2207.84375.92773,0,1.65527-.27051,2.18359-.81348.52734-.54297.79199-1.29297.79199-2.25ZM459.75568,305.7692c0-.83789-.22168-1.51172-.66602-2.02051-.44434-.50781-1.07129-.76172-1.87988-.76172-.7998,0-1.4209.24609-1.86523.74023-.44434.49316-.66602,1.17383-.66602,2.04199,0,.8584.22168,1.5498.66602,2.07227.44434.52344,1.07031.78516,1.87988.78516.80859,0,1.43359-.26172,1.87207-.78516.43945-.52246.65918-1.21387.65918-2.07227Z"/>
    <path class="cls-5" d="M497.19514,301.73404v24.34961c0,4.0459-1.26562,7.24512-3.7959,9.59766s-5.98828,3.5293-10.37207,3.5293c-4.31641,0-7.74414-1.14258-10.2832-3.42773s-3.83398-5.4248-3.88477-9.41992v-24.62891h7.61719v24.40039c0,2.4209.58008,4.18555,1.73926,5.29395s2.76367,1.66309,4.81152,1.66309c4.28223,0,6.45801-2.25098,6.52539-6.75391v-24.60352h7.64258Z"/>
  </g>
  <g>
    <path class="cls-5" d="M854.10236,321.38639h-14.77246v-2.93066l6.97168-7.43164c.95703-1.0459,1.66504-1.95801,2.12402-2.73828.45898-.7793.68848-1.51953.68848-2.2207,0-.95703-.24219-1.70898-.72559-2.25684s-1.17383-.82129-2.07227-.82129c-.9668,0-1.72949.33301-2.28711.99902s-.83594,1.54199-.83594,2.62695h-4.29297c0-1.3125.31348-2.51074.94043-3.59668.62598-1.08594,1.51172-1.93652,2.65625-2.55371,1.14551-.61621,2.44336-.9248,3.89355-.9248,2.2207,0,3.94531.53223,5.17383,1.59863,1.22852,1.06543,1.84277,2.57031,1.84277,4.51465,0,1.06543-.27637,2.15137-.8291,3.25684s-1.5,2.39258-2.8418,3.86328l-4.90039,5.16602h9.2666v3.44922Z"/>
    <path class="cls-5" d="M861.07502,308.71549h2.2793c1.08594,0,1.88965-.27148,2.41309-.81445s.78516-1.2627.78516-2.16113c0-.86816-.25977-1.54395-.77734-2.02832-.51855-.4834-1.23145-.72461-2.13965-.72461-.81836,0-1.50488.22461-2.05762.67285-.55273.44922-.82812,1.03418-.82812,1.75488h-4.27832c0-1.125.30371-2.13477.91016-3.02734.60742-.89355,1.45605-1.5918,2.5459-2.09473,1.09082-.50391,2.29199-.75488,3.60449-.75488,2.28027,0,4.06641.54492,5.35938,1.63574,1.29199,1.08984,1.93848,2.59277,1.93848,4.50684,0,.9873-.30078,1.89551-.90234,2.72363-.60254.8291-1.3916,1.46582-2.36914,1.91016,1.21387.43457,2.11914,1.08594,2.7168,1.9541.59668.86816.89551,1.89453.89551,3.0791,0,1.91406-.69824,3.44824-2.09473,4.60352-1.39648,1.1543-3.24414,1.73145-5.54395,1.73145-2.15137,0-3.91016-.56738-5.27734-1.70215-1.36621-1.13477-2.0498-2.63477-2.0498-4.5h4.27832c0,.80957.30371,1.4707.91016,1.9834.60645.51367,1.35449.76953,2.24219.76953,1.0166,0,1.81348-.26855,2.39062-.80664.57812-.53711.86621-1.25098.86621-2.13867,0-2.15137-1.18359-3.22754-3.55273-3.22754h-2.26465v-3.34473Z"/>
    <path class="cls-5" d="M884.12189,312.77115c-1.11523,1.0957-2.41797,1.64355-3.90723,1.64355-1.90527,0-3.42969-.6543-4.57422-1.96191s-1.7168-3.07129-1.7168-5.29199c0-1.41113.30762-2.70605.9248-3.88574.61621-1.17871,1.47754-2.09668,2.58301-2.75293s2.34863-.98438,3.73047-.98438c1.4209,0,2.68359.35547,3.78906,1.06543,1.10547.71094,1.96387,1.73242,2.57617,3.06445.61133,1.33203.92285,2.85645.93262,4.57422v1.58398c0,3.5918-.89355,6.41406-2.67969,8.4668s-4.31738,3.14746-7.59375,3.28613l-1.05078.01465v-3.56738l.94727-.01465c3.7207-.16797,5.7334-1.91406,6.03906-5.24023ZM881.26545,311.14322c.69043,0,1.28516-.17773,1.7832-.5332.49902-.35547.87598-.78418,1.13281-1.28809v-1.76172c0-1.4502-.27637-2.5752-.8291-3.375-.55273-.79883-1.29297-1.19824-2.21973-1.19824-.85938,0-1.56445.3916-2.11719,1.17676-.55273.78418-.8291,1.76855-.8291,2.95312,0,1.17383.26855,2.13867.80664,2.89355s1.2959,1.13281,2.27246,1.13281Z"/>
    <path class="cls-5" d="M921.32502,301.73404v24.34961c0,4.0459-1.26562,7.24512-3.7959,9.59766s-5.98828,3.5293-10.37207,3.5293c-4.31641,0-7.74414-1.14258-10.2832-3.42773s-3.83398-5.4248-3.88477-9.41992v-24.62891h7.61719v24.40039c0,2.4209.58008,4.18555,1.73926,5.29395s2.76367,1.66309,4.81152,1.66309c4.28223,0,6.45801-2.25098,6.52539-6.75391v-24.60352h7.64258Z"/>
  </g>
  <g>
    <path class="cls-5" d="M204.48029,497.05436h-4.44141l-8.64453-14.18066v14.18066h-4.44043v-21.55273h4.44043l8.65918,14.21094v-14.21094h4.42676v21.55273Z"/>
    <path class="cls-5" d="M215.44806,497.35025c-2.34863,0-4.26074-.71973-5.73633-2.16113-1.47461-1.44043-2.21289-3.36035-2.21289-5.75781v-.41504c0-1.6084.31152-3.04688.93262-4.31445.62207-1.26855,1.50293-2.24512,2.64258-2.93164,1.13965-.68555,2.43945-1.02832,3.90039-1.02832,2.19141,0,3.91504.69043,5.17383,2.07227,1.25781,1.38184,1.8877,3.34082,1.8877,5.87695v1.74609h-10.19922c.1377,1.04688.55469,1.88574,1.25098,2.5166.69531.63184,1.57617.94727,2.6416.94727,1.64844,0,2.93555-.59668,3.86328-1.79102l2.10254,2.35352c-.6416.9082-1.50977,1.61621-2.60547,2.125-1.0957.50781-2.30957.76172-3.6416.76172ZM214.95978,484.19107c-.84863,0-1.53711.28711-2.06543.8623-.52734.5752-.86523,1.39746-1.01367,2.46777h5.95117v-.3418c-.02051-.95117-.27637-1.6875-.77051-2.20801-.49316-.52051-1.19336-.78027-2.10156-.78027Z"/>
    <path class="cls-5" d="M234.05549,495.42643c-1.05664,1.28223-2.5166,1.92383-4.38184,1.92383-1.7168,0-3.02734-.49316-3.92969-1.48047-.90332-.98633-1.36426-2.43262-1.38477-4.33691v-10.49512h4.27832v10.35938c0,1.66992.75977,2.50391,2.2793,2.50391,1.45117,0,2.44727-.50293,2.99023-1.51172v-11.35156h4.29297v16.0166h-4.02637l-.11816-1.62793Z"/>
    <path class="cls-5" d="M246.54865,477.10025v3.9375h2.73828v3.13867h-2.73828v7.99316c0,.5918.11328,1.0166.34082,1.27246.22656.25684.66113.38574,1.30273.38574.47363,0,.89258-.03516,1.25781-.10449v3.24219c-.83887.25684-1.70215.38477-2.58984.38477-3.00098,0-4.53027-1.51465-4.58887-4.54395v-8.62988h-2.33887v-3.13867h2.33887v-3.9375h4.27734Z"/>
    <path class="cls-5" d="M260.6717,485.04947c-.58301-.0791-1.0957-.11816-1.54004-.11816-1.61816,0-2.67871.54688-3.18262,1.64258v10.48047h-4.27734v-16.0166h4.04102l.11816,1.90918c.8584-1.46973,2.04785-2.20508,3.56738-2.20508.47363,0,.91797.06445,1.33203.19238l-.05859,4.11523Z"/>
    <path class="cls-5" d="M262.06232,488.89811c0-1.58887.30664-3.00488.91797-4.24805.6123-1.24414,1.49316-2.20605,2.64258-2.88672s2.48438-1.02148,4.00391-1.02148c2.16113,0,3.9248.66113,5.29199,1.9834s2.12891,3.11816,2.28711,5.38867l.0293,1.09473c0,2.45703-.68555,4.42871-2.05762,5.91406-1.37109,1.48535-3.21191,2.22754-5.52148,2.22754-2.30859,0-4.15137-.74023-5.52832-2.2207-1.37695-1.47949-2.06543-3.49316-2.06543-6.03906v-.19238ZM266.34064,489.20182c0,1.52246.28613,2.68555.8584,3.49121s1.3916,1.20801,2.45703,1.20801c1.03711,0,1.8457-.39746,2.42773-1.19336.58301-.7959.87402-2.06738.87402-3.81738,0-1.49219-.29102-2.64844-.87402-3.46875-.58203-.82031-1.40137-1.23047-2.45703-1.23047-1.0459,0-1.85547.40723-2.42773,1.22266s-.8584,2.07812-.8584,3.78809Z"/>
    <path class="cls-5" d="M283.80842,481.03775l.13281,1.85059c1.14453-1.43066,2.67969-2.14648,4.60352-2.14648,1.69727,0,2.96094.49805,3.79004,1.49512.82812.99707,1.25293,2.48633,1.27246,4.4707v10.34668h-4.27832v-10.2666c0-.91016-.19727-1.57031-.5918-1.98145-.39453-.41016-1.05078-.61523-1.96875-.61523-1.2041,0-2.10645.51367-2.70898,1.54297v11.32031h-4.27734v-16.0166h4.02637Z"/>
    <path class="cls-5" d="M321.59846,489.87467c-.16797,2.31934-1.02344,4.14551-2.56836,5.47754-1.54395,1.33203-3.58008,1.99805-6.10547,1.99805-2.76367,0-4.9375-.92969-6.52148-2.79004-1.58301-1.86035-2.375-4.41406-2.375-7.66016v-1.31738c0-2.07324.36426-3.89844,1.09473-5.47754s1.77441-2.79004,3.13086-3.63379c1.35742-.84375,2.93359-1.26562,4.72949-1.26562,2.4873,0,4.49023.66602,6.00977,1.99805s2.39844,3.20215,2.63477,5.61035h-4.44043c-.1084-1.3916-.49609-2.40039-1.16211-3.02734-.66602-.62598-1.67969-.93945-3.04199-.93945-1.48047,0-2.58789.53027-3.32324,1.59082-.73535,1.06152-1.1123,2.70703-1.13184,4.93652v1.62891c0,2.3291.35254,4.03125,1.05762,5.10645.70605,1.07617,1.81836,1.61328,3.33887,1.61328,1.37109,0,2.39551-.3125,3.07129-.93945s1.06348-1.59668,1.16211-2.90918h4.44043Z"/>
    <path class="cls-5" d="M333.51545,497.05436c-.19824-.38477-.34082-.86328-.42969-1.43555-1.03613,1.1543-2.38281,1.73145-4.04102,1.73145-1.56934,0-2.86914-.4541-3.90039-1.36133-1.03125-.9082-1.54688-2.05273-1.54688-3.43457,0-1.69727.62891-3,1.88672-3.9082,1.25879-.90723,3.07715-1.36621,5.45508-1.37598h1.96875v-.91797c0-.74023-.19043-1.33203-.56934-1.77637-.38086-.44434-.97949-.66602-1.79883-.66602-.7207,0-1.28613.17285-1.69531.51758-.40918.3457-.61426.81934-.61426,1.4209h-4.27734c0-.92676.28613-1.78613.8584-2.5752s1.38086-1.4082,2.42773-1.85742c1.0459-.44922,2.21973-.67383,3.52246-.67383,1.97363,0,3.54004.49609,4.7002,1.4873,1.15918.99219,1.73926,2.38574,1.73926,4.18164v6.94238c.00977,1.52051.22168,2.66992.63672,3.44922v.25195h-4.32227ZM329.97736,494.07877c.63086,0,1.21387-.14062,1.74609-.42188.5332-.28125.92773-.6582,1.18457-1.13184v-2.75391h-1.59863c-2.1416,0-3.28125.74023-3.41895,2.2207l-.01562.25195c0,.53223.1875.97168.5625,1.31738s.88867.51758,1.54004.51758Z"/>
    <path class="cls-5" d="M354.9051,489.194c0,2.46777-.55957,4.44336-1.67969,5.92871s-2.63281,2.22754-4.53711,2.22754c-1.61816,0-2.92578-.5625-3.92285-1.6875v7.5498h-4.27734v-22.1748h3.9668l.14746,1.56934c1.03711-1.24316,2.38867-1.86523,4.05664-1.86523,1.97363,0,3.50781.73047,4.60352,2.19043,1.0957,1.46094,1.64258,3.47363,1.64258,6.04004v.22168ZM350.62775,488.86783c0-1.49414-.26465-2.64746-.79199-3.45996-.52832-.81152-1.2959-1.2168-2.30176-1.2168-1.34277,0-2.26465.51465-2.76855,1.54395v6.57715c.52344,1.05957,1.45605,1.58887,2.79785,1.58887,2.04297,0,3.06445-1.67773,3.06445-5.0332Z"/>
    <path class="cls-5" d="M362.67658,477.10025v3.9375h2.73828v3.13867h-2.73828v7.99316c0,.5918.11328,1.0166.34082,1.27246.22656.25684.66113.38574,1.30273.38574.47363,0,.89258-.03516,1.25781-.10449v3.24219c-.83887.25684-1.70215.38477-2.58984.38477-3.00098,0-4.53027-1.51465-4.58887-4.54395v-8.62988h-2.33887v-3.13867h2.33887v-3.9375h4.27734Z"/>
    <path class="cls-5" d="M377.39045,495.42643c-1.05664,1.28223-2.5166,1.92383-4.38184,1.92383-1.7168,0-3.02734-.49316-3.92969-1.48047-.90332-.98633-1.36426-2.43262-1.38477-4.33691v-10.49512h4.27832v10.35938c0,1.66992.75977,2.50391,2.2793,2.50391,1.45117,0,2.44727-.50293,2.99023-1.51172v-11.35156h4.29297v16.0166h-4.02637l-.11816-1.62793Z"/>
    <path class="cls-5" d="M393.76252,485.04947c-.58301-.0791-1.0957-.11816-1.54004-.11816-1.61816,0-2.67871.54688-3.18262,1.64258v10.48047h-4.27734v-16.0166h4.04102l.11816,1.90918c.8584-1.46973,2.04785-2.20508,3.56738-2.20508.47363,0,.91797.06445,1.33203.19238l-.05859,4.11523Z"/>
    <path class="cls-5" d="M403.19123,497.35025c-2.34863,0-4.26074-.71973-5.73633-2.16113-1.47461-1.44043-2.21289-3.36035-2.21289-5.75781v-.41504c0-1.6084.31152-3.04688.93262-4.31445.62207-1.26855,1.50293-2.24512,2.64258-2.93164,1.13965-.68555,2.43945-1.02832,3.90039-1.02832,2.19141,0,3.91504.69043,5.17383,2.07227,1.25781,1.38184,1.8877,3.34082,1.8877,5.87695v1.74609h-10.19922c.1377,1.04688.55469,1.88574,1.25098,2.5166.69531.63184,1.57617.94727,2.6416.94727,1.64844,0,2.93555-.59668,3.86328-1.79102l2.10254,2.35352c-.6416.9082-1.50977,1.61621-2.60547,2.125-1.0957.50781-2.30957.76172-3.6416.76172ZM402.70295,484.19107c-.84863,0-1.53711.28711-2.06543.8623-.52734.5752-.86523,1.39746-1.01367,2.46777h5.95117v-.3418c-.02051-.95117-.27637-1.6875-.77051-2.20801-.49316-.52051-1.19336-.78027-2.10156-.78027Z"/>
  </g>
  <g>
    <path class="cls-5" d="M931.88166,497.05436v-21.55273h7.54883c2.61523,0,4.59863.50098,5.95117,1.50195,1.35156,1.00195,2.02734,2.4707,2.02734,4.4043,0,1.05566-.27148,1.98633-.81348,2.79004-.54297.80469-1.29785,1.39453-2.26562,1.76953,1.10547.27637,1.97656.83398,2.61328,1.67285s.9541,1.86426.9541,3.07812c0,2.07227-.66113,3.6416-1.9834,4.70801-1.32227,1.06543-3.20703,1.6084-5.6543,1.62793h-8.37793ZM936.32209,484.53092h3.28613c2.24023-.03906,3.36035-.93262,3.36035-2.67871,0-.97754-.28418-1.68066-.85156-2.10938-.56738-.42969-1.46289-.64453-2.68652-.64453h-3.1084v5.43262ZM936.32209,487.66959v5.81738h3.80469c1.0459,0,1.8623-.24902,2.44922-.74805.58691-.49805.88086-1.18652.88086-2.06445,0-1.97363-1.02148-2.97559-3.06445-3.00488h-4.07031Z"/>
    <path class="cls-5" d="M958.31818,497.35025c-2.34863,0-4.26074-.71973-5.73633-2.16113-1.47461-1.44043-2.21289-3.36035-2.21289-5.75781v-.41504c0-1.6084.31152-3.04688.93262-4.31445.62207-1.26855,1.50293-2.24512,2.64258-2.93164,1.13965-.68555,2.43945-1.02832,3.90039-1.02832,2.19141,0,3.91504.69043,5.17383,2.07227,1.25781,1.38184,1.8877,3.34082,1.8877,5.87695v1.74609h-10.19922c.1377,1.04688.55469,1.88574,1.25098,2.5166.69531.63184,1.57617.94727,2.6416.94727,1.64844,0,2.93555-.59668,3.86328-1.79102l2.10254,2.35352c-.6416.9082-1.50977,1.61621-2.60547,2.125-1.0957.50781-2.30957.76172-3.6416.76172ZM957.8299,484.19107c-.84863,0-1.53711.28711-2.06543.8623-.52734.5752-.86523,1.39746-1.01367,2.46777h5.95117v-.3418c-.02051-.95117-.27637-1.6875-.77051-2.20801-.49316-.52051-1.19336-.78027-2.10156-.78027Z"/>
    <path class="cls-5" d="M972.4549,477.10025v3.9375h2.73828v3.13867h-2.73828v7.99316c0,.5918.11328,1.0166.34082,1.27246.22656.25684.66113.38574,1.30273.38574.47363,0,.89258-.03516,1.25781-.10449v3.24219c-.83887.25684-1.70215.38477-2.58984.38477-3.00098,0-4.53027-1.51465-4.58887-4.54395v-8.62988h-2.33887v-3.13867h2.33887v-3.9375h4.27734Z"/>
    <path class="cls-5" d="M986.8592,497.05436c-.19824-.38477-.34082-.86328-.42969-1.43555-1.03613,1.1543-2.38281,1.73145-4.04102,1.73145-1.56934,0-2.86914-.4541-3.90039-1.36133-1.03125-.9082-1.54688-2.05273-1.54688-3.43457,0-1.69727.62891-3,1.88672-3.9082,1.25879-.90723,3.07715-1.36621,5.45508-1.37598h1.96875v-.91797c0-.74023-.19043-1.33203-.56934-1.77637-.38086-.44434-.97949-.66602-1.79883-.66602-.7207,0-1.28613.17285-1.69531.51758-.40918.3457-.61426.81934-.61426,1.4209h-4.27734c0-.92676.28613-1.78613.8584-2.5752s1.38086-1.4082,2.42773-1.85742c1.0459-.44922,2.21973-.67383,3.52246-.67383,1.97363,0,3.54004.49609,4.7002,1.4873,1.15918.99219,1.73926,2.38574,1.73926,4.18164v6.94238c.00977,1.52051.22168,2.66992.63672,3.44922v.25195h-4.32227ZM983.32111,494.07877c.63086,0,1.21387-.14062,1.74609-.42188.5332-.28125.92773-.6582,1.18457-1.13184v-2.75391h-1.59863c-2.1416,0-3.28125.74023-3.41895,2.2207l-.01562.25195c0,.53223.1875.97168.5625,1.31738s.88867.51758,1.54004.51758Z"/>
    <path class="cls-5" d="M1001.66193,497.05436v-21.55273h6.63086c1.89551,0,3.58984.42676,5.08496,1.28027s2.66211,2.06738,3.50098,3.6416,1.25781,3.3623,1.25781,5.36621v.99121c0,2.00391-.41211,3.78516-1.23535,5.34375-.82422,1.55957-1.98633,2.76855-3.48633,3.62695s-3.19238,1.29297-5.07715,1.30273h-6.67578ZM1006.10236,479.0983v14.38867h2.14648c1.73633,0,3.06445-.56738,3.98145-1.70215.91797-1.13477,1.38672-2.75879,1.40625-4.87012v-1.13965c0-2.19141-.4541-3.85156-1.36133-4.98145-.9082-1.12988-2.23535-1.69531-3.98242-1.69531h-2.19043Z"/>
    <path class="cls-5" d="M1028.45392,497.35025c-2.34863,0-4.26074-.71973-5.73633-2.16113-1.47461-1.44043-2.21289-3.36035-2.21289-5.75781v-.41504c0-1.6084.31152-3.04688.93262-4.31445.62207-1.26855,1.50293-2.24512,2.64258-2.93164,1.13965-.68555,2.43945-1.02832,3.90039-1.02832,2.19141,0,3.91504.69043,5.17383,2.07227,1.25781,1.38184,1.8877,3.34082,1.8877,5.87695v1.74609h-10.19922c.1377,1.04688.55469,1.88574,1.25098,2.5166.69531.63184,1.57617.94727,2.6416.94727,1.64844,0,2.93555-.59668,3.86328-1.79102l2.10254,2.35352c-.6416.9082-1.50977,1.61621-2.60547,2.125-1.0957.50781-2.30957.76172-3.6416.76172ZM1027.96564,484.19107c-.84863,0-1.53711.28711-2.06543.8623-.52734.5752-.86523,1.39746-1.01367,2.46777h5.95117v-.3418c-.02051-.95117-.27637-1.6875-.77051-2.20801-.49316-.52051-1.19336-.78027-2.10156-.78027Z"/>
    <path class="cls-5" d="M1044.13068,493.90103c.78906,0,1.43066-.2168,1.92383-.65137.49316-.43359.75-1.01074.76953-1.73145h4.01172c-.00977,1.08594-.30566,2.08008-.8877,2.98242-.58301.90332-1.37988,1.60449-2.39062,2.10254-1.01172.49805-2.12988.74707-3.35352.74707-2.28906,0-4.09473-.72754-5.41699-2.18359-1.32324-1.45508-1.98438-3.46582-1.98438-6.03223v-.28125c0-2.4668.65625-4.43555,1.96875-5.90625,1.3125-1.46973,3.11426-2.20508,5.40332-2.20508,2.00293,0,3.60938.56934,4.81836,1.70996,1.20898,1.13965,1.82324,2.65625,1.84277,4.55176h-4.01172c-.01953-.83301-.27637-1.51074-.76953-2.03125-.49316-.52148-1.14453-.78125-1.9541-.78125-.99609,0-1.74902.36328-2.25684,1.08887-.50879.72656-.7627,1.90527-.7627,3.53613v.44531c0,1.65039.25195,2.83594.75488,3.55762.50391.72168,1.26855,1.08203,2.29492,1.08203Z"/>
    <path class="cls-5" d="M1062.56037,497.05436c-.19824-.38477-.34082-.86328-.42969-1.43555-1.03613,1.1543-2.38281,1.73145-4.04102,1.73145-1.56934,0-2.86914-.4541-3.90039-1.36133-1.03125-.9082-1.54688-2.05273-1.54688-3.43457,0-1.69727.62891-3,1.88672-3.9082,1.25879-.90723,3.07715-1.36621,5.45508-1.37598h1.96875v-.91797c0-.74023-.19043-1.33203-.56934-1.77637-.38086-.44434-.97949-.66602-1.79883-.66602-.7207,0-1.28613.17285-1.69531.51758-.40918.3457-.61426.81934-.61426,1.4209h-4.27734c0-.92676.28613-1.78613.8584-2.5752s1.38086-1.4082,2.42773-1.85742c1.0459-.44922,2.21973-.67383,3.52246-.67383,1.97363,0,3.54004.49609,4.7002,1.4873,1.15918.99219,1.73926,2.38574,1.73926,4.18164v6.94238c.00977,1.52051.22168,2.66992.63672,3.44922v.25195h-4.32227ZM1059.02228,494.07877c.63086,0,1.21387-.14062,1.74609-.42188.5332-.28125.92773-.6582,1.18457-1.13184v-2.75391h-1.59863c-2.1416,0-3.28125.74023-3.41895,2.2207l-.01562.25195c0,.53223.1875.97168.5625,1.31738s.88867.51758,1.54004.51758Z"/>
    <path class="cls-5" d="M1075.51154,490.99967l2.96094-9.96191h4.58887l-6.43945,18.50391-.35547.84375c-.95703,2.0918-2.53613,3.1377-4.73633,3.1377-.62207,0-1.25391-.09375-1.89453-.28125v-3.24219l.65137.01562c.80859,0,1.41309-.12402,1.8125-.37012.40039-.24707.71289-.65723.94043-1.22852l.50293-1.31836-5.61035-16.06055h4.60449l2.97461,9.96191Z"/>
  </g>
  <g>
    <path class="cls-5" d="M1345.34553,497.05436v-21.55273h7.54883c2.61523,0,4.59863.50098,5.95117,1.50195,1.35156,1.00195,2.02734,2.4707,2.02734,4.4043,0,1.05566-.27148,1.98633-.81348,2.79004-.54297.80469-1.29785,1.39453-2.26562,1.76953,1.10547.27637,1.97656.83398,2.61328,1.67285s.9541,1.86426.9541,3.07812c0,2.07227-.66113,3.6416-1.9834,4.70801-1.32227,1.06543-3.20703,1.6084-5.6543,1.62793h-8.37793ZM1349.78596,484.53092h3.28613c2.24023-.03906,3.36035-.93262,3.36035-2.67871,0-.97754-.28418-1.68066-.85156-2.10938-.56738-.42969-1.46289-.64453-2.68652-.64453h-3.1084v5.43262ZM1349.78596,487.66959v5.81738h3.80469c1.0459,0,1.8623-.24902,2.44922-.74805.58691-.49805.88086-1.18652.88086-2.06445,0-1.97363-1.02148-2.97559-3.06445-3.00488h-4.07031Z"/>
    <path class="cls-5" d="M1371.78205,497.35025c-2.34863,0-4.26074-.71973-5.73633-2.16113-1.47461-1.44043-2.21289-3.36035-2.21289-5.75781v-.41504c0-1.6084.31152-3.04688.93262-4.31445.62207-1.26855,1.50293-2.24512,2.64258-2.93164,1.13965-.68555,2.43945-1.02832,3.90039-1.02832,2.19141,0,3.91504.69043,5.17383,2.07227,1.25781,1.38184,1.8877,3.34082,1.8877,5.87695v1.74609h-10.19922c.1377,1.04688.55469,1.88574,1.25098,2.5166.69531.63184,1.57617.94727,2.6416.94727,1.64844,0,2.93555-.59668,3.86328-1.79102l2.10254,2.35352c-.6416.9082-1.50977,1.61621-2.60547,2.125-1.0957.50781-2.30957.76172-3.6416.76172ZM1371.29377,484.19107c-.84863,0-1.53711.28711-2.06543.8623-.52734.5752-.86523,1.39746-1.01367,2.46777h5.95117v-.3418c-.02051-.95117-.27637-1.6875-.77051-2.20801-.49316-.52051-1.19336-.78027-2.10156-.78027Z"/>
    <path class="cls-5" d="M1385.91877,477.10025v3.9375h2.73828v3.13867h-2.73828v7.99316c0,.5918.11328,1.0166.34082,1.27246.22656.25684.66113.38574,1.30273.38574.47363,0,.89258-.03516,1.25781-.10449v3.24219c-.83887.25684-1.70215.38477-2.58984.38477-3.00098,0-4.53027-1.51465-4.58887-4.54395v-8.62988h-2.33887v-3.13867h2.33887v-3.9375h4.27734Z"/>
    <path class="cls-5" d="M1400.32306,497.05436c-.19824-.38477-.34082-.86328-.42969-1.43555-1.03613,1.1543-2.38281,1.73145-4.04102,1.73145-1.56934,0-2.86914-.4541-3.90039-1.36133-1.03125-.9082-1.54688-2.05273-1.54688-3.43457,0-1.69727.62891-3,1.88672-3.9082,1.25879-.90723,3.07715-1.36621,5.45508-1.37598h1.96875v-.91797c0-.74023-.19043-1.33203-.56934-1.77637-.38086-.44434-.97949-.66602-1.79883-.66602-.7207,0-1.28613.17285-1.69531.51758-.40918.3457-.61426.81934-.61426,1.4209h-4.27734c0-.92676.28613-1.78613.8584-2.5752s1.38086-1.4082,2.42773-1.85742c1.0459-.44922,2.21973-.67383,3.52246-.67383,1.97363,0,3.54004.49609,4.7002,1.4873,1.15918.99219,1.73926,2.38574,1.73926,4.18164v6.94238c.00977,1.52051.22168,2.66992.63672,3.44922v.25195h-4.32227ZM1396.78498,494.07877c.63086,0,1.21387-.14062,1.74609-.42188.5332-.28125.92773-.6582,1.18457-1.13184v-2.75391h-1.59863c-2.1416,0-3.28125.74023-3.41895,2.2207l-.01562.25195c0,.53223.1875.97168.5625,1.31738s.88867.51758,1.54004.51758Z"/>
    <path class="cls-5" d="M1415.1258,497.05436v-21.55273h6.63086c1.89551,0,3.58984.42676,5.08496,1.28027s2.66211,2.06738,3.50098,3.6416,1.25781,3.3623,1.25781,5.36621v.99121c0,2.00391-.41211,3.78516-1.23535,5.34375-.82422,1.55957-1.98633,2.76855-3.48633,3.62695s-3.19238,1.29297-5.07715,1.30273h-6.67578ZM1419.56623,479.0983v14.38867h2.14648c1.73633,0,3.06445-.56738,3.98145-1.70215.91797-1.13477,1.38672-2.75879,1.40625-4.87012v-1.13965c0-2.19141-.4541-3.85156-1.36133-4.98145-.9082-1.12988-2.23535-1.69531-3.98242-1.69531h-2.19043Z"/>
    <path class="cls-5" d="M1441.91779,497.35025c-2.34863,0-4.26074-.71973-5.73633-2.16113-1.47461-1.44043-2.21289-3.36035-2.21289-5.75781v-.41504c0-1.6084.31152-3.04688.93262-4.31445.62207-1.26855,1.50293-2.24512,2.64258-2.93164,1.13965-.68555,2.43945-1.02832,3.90039-1.02832,2.19141,0,3.91504.69043,5.17383,2.07227,1.25781,1.38184,1.8877,3.34082,1.8877,5.87695v1.74609h-10.19922c.1377,1.04688.55469,1.88574,1.25098,2.5166.69531.63184,1.57617.94727,2.6416.94727,1.64844,0,2.93555-.59668,3.86328-1.79102l2.10254,2.35352c-.6416.9082-1.50977,1.61621-2.60547,2.125-1.0957.50781-2.30957.76172-3.6416.76172ZM1441.42951,484.19107c-.84863,0-1.53711.28711-2.06543.8623-.52734.5752-.86523,1.39746-1.01367,2.46777h5.95117v-.3418c-.02051-.95117-.27637-1.6875-.77051-2.20801-.49316-.52051-1.19336-.78027-2.10156-.78027Z"/>
    <path class="cls-5" d="M1457.59455,493.90103c.78906,0,1.43066-.2168,1.92383-.65137.49316-.43359.75-1.01074.76953-1.73145h4.01172c-.00977,1.08594-.30566,2.08008-.8877,2.98242-.58301.90332-1.37988,1.60449-2.39062,2.10254-1.01172.49805-2.12988.74707-3.35352.74707-2.28906,0-4.09473-.72754-5.41699-2.18359-1.32324-1.45508-1.98438-3.46582-1.98438-6.03223v-.28125c0-2.4668.65625-4.43555,1.96875-5.90625,1.3125-1.46973,3.11426-2.20508,5.40332-2.20508,2.00293,0,3.60938.56934,4.81836,1.70996,1.20898,1.13965,1.82324,2.65625,1.84277,4.55176h-4.01172c-.01953-.83301-.27637-1.51074-.76953-2.03125-.49316-.52148-1.14453-.78125-1.9541-.78125-.99609,0-1.74902.36328-2.25684,1.08887-.50879.72656-.7627,1.90527-.7627,3.53613v.44531c0,1.65039.25195,2.83594.75488,3.55762.50391.72168,1.26855,1.08203,2.29492,1.08203Z"/>
    <path class="cls-5" d="M1476.02424,497.05436c-.19824-.38477-.34082-.86328-.42969-1.43555-1.03613,1.1543-2.38281,1.73145-4.04102,1.73145-1.56934,0-2.86914-.4541-3.90039-1.36133-1.03125-.9082-1.54688-2.05273-1.54688-3.43457,0-1.69727.62891-3,1.88672-3.9082,1.25879-.90723,3.07715-1.36621,5.45508-1.37598h1.96875v-.91797c0-.74023-.19043-1.33203-.56934-1.77637-.38086-.44434-.97949-.66602-1.79883-.66602-.7207,0-1.28613.17285-1.69531.51758-.40918.3457-.61426.81934-.61426,1.4209h-4.27734c0-.92676.28613-1.78613.8584-2.5752s1.38086-1.4082,2.42773-1.85742c1.0459-.44922,2.21973-.67383,3.52246-.67383,1.97363,0,3.54004.49609,4.7002,1.4873,1.15918.99219,1.73926,2.38574,1.73926,4.18164v6.94238c.00977,1.52051.22168,2.66992.63672,3.44922v.25195h-4.32227ZM1472.48615,494.07877c.63086,0,1.21387-.14062,1.74609-.42188.5332-.28125.92773-.6582,1.18457-1.13184v-2.75391h-1.59863c-2.1416,0-3.28125.74023-3.41895,2.2207l-.01562.25195c0,.53223.1875.97168.5625,1.31738s.88867.51758,1.54004.51758Z"/>
    <path class="cls-5" d="M1488.97541,490.99967l2.96094-9.96191h4.58887l-6.43945,18.50391-.35547.84375c-.95703,2.0918-2.53613,3.1377-4.73633,3.1377-.62207,0-1.25391-.09375-1.89453-.28125v-3.24219l.65137.01562c.80859,0,1.41309-.12402,1.8125-.37012.40039-.24707.71289-.65723.94043-1.22852l.50293-1.31836-5.61035-16.06055h4.60449l2.97461,9.96191Z"/>
  </g>
  <g>
    <path class="cls-4" d="M1245.22834,321.38639h-14.77246v-2.93066l6.97168-7.43164c.95703-1.0459,1.66504-1.95801,2.12402-2.73828.45898-.7793.68848-1.51953.68848-2.2207,0-.95703-.24219-1.70898-.72559-2.25684s-1.17383-.82129-2.07227-.82129c-.9668,0-1.72949.33301-2.28711.99902s-.83594,1.54199-.83594,2.62695h-4.29297c0-1.3125.31348-2.51074.94043-3.59668.62598-1.08594,1.51172-1.93652,2.65625-2.55371,1.14551-.61621,2.44336-.9248,3.89355-.9248,2.2207,0,3.94531.53223,5.17383,1.59863,1.22852,1.06543,1.84277,2.57031,1.84277,4.51465,0,1.06543-.27637,2.15137-.8291,3.25684s-1.5,2.39258-2.8418,3.86328l-4.90039,5.16602h9.2666v3.44922Z"/>
    <path class="cls-4" d="M1252.20099,308.71549h2.2793c1.08594,0,1.88965-.27148,2.41309-.81445s.78516-1.2627.78516-2.16113c0-.86816-.25977-1.54395-.77734-2.02832-.51855-.4834-1.23145-.72461-2.13965-.72461-.81836,0-1.50488.22461-2.05762.67285-.55273.44922-.82812,1.03418-.82812,1.75488h-4.27832c0-1.125.30371-2.13477.91016-3.02734.60742-.89355,1.45605-1.5918,2.5459-2.09473,1.09082-.50391,2.29199-.75488,3.60449-.75488,2.28027,0,4.06641.54492,5.35938,1.63574,1.29199,1.08984,1.93848,2.59277,1.93848,4.50684,0,.9873-.30078,1.89551-.90234,2.72363-.60254.8291-1.3916,1.46582-2.36914,1.91016,1.21387.43457,2.11914,1.08594,2.7168,1.9541.59668.86816.89551,1.89453.89551,3.0791,0,1.91406-.69824,3.44824-2.09473,4.60352-1.39648,1.1543-3.24414,1.73145-5.54395,1.73145-2.15137,0-3.91016-.56738-5.27734-1.70215-1.36621-1.13477-2.0498-2.63477-2.0498-4.5h4.27832c0,.80957.30371,1.4707.91016,1.9834.60645.51367,1.35449.76953,2.24219.76953,1.0166,0,1.81348-.26855,2.39062-.80664.57812-.53711.86621-1.25098.86621-2.13867,0-2.15137-1.18359-3.22754-3.55273-3.22754h-2.26465v-3.34473Z"/>
    <path class="cls-4" d="M1275.24787,312.77115c-1.11523,1.0957-2.41797,1.64355-3.90723,1.64355-1.90527,0-3.42969-.6543-4.57422-1.96191s-1.7168-3.07129-1.7168-5.29199c0-1.41113.30762-2.70605.9248-3.88574.61621-1.17871,1.47754-2.09668,2.58301-2.75293s2.34863-.98438,3.73047-.98438c1.4209,0,2.68359.35547,3.78906,1.06543,1.10547.71094,1.96387,1.73242,2.57617,3.06445.61133,1.33203.92285,2.85645.93262,4.57422v1.58398c0,3.5918-.89355,6.41406-2.67969,8.4668s-4.31738,3.14746-7.59375,3.28613l-1.05078.01465v-3.56738l.94727-.01465c3.7207-.16797,5.7334-1.91406,6.03906-5.24023ZM1272.39142,311.14322c.69043,0,1.28516-.17773,1.7832-.5332.49902-.35547.87598-.78418,1.13281-1.28809v-1.76172c0-1.4502-.27637-2.5752-.8291-3.375-.55273-.79883-1.29297-1.19824-2.21973-1.19824-.85938,0-1.56445.3916-2.11719,1.17676-.55273.78418-.8291,1.76855-.8291,2.95312,0,1.17383.26855,2.13867.80664,2.89355s1.2959,1.13281,2.27246,1.13281Z"/>
    <path class="cls-4" d="M1314.53303,338.70279h-7.61719l-14.82812-24.32422v24.32422h-7.61719v-36.96875h7.61719l14.85352,24.375v-24.375h7.5918v36.96875Z"/>
    <path class="cls-4" d="M1345.43342,325.22037c0,4.23145-.96094,7.62109-2.88184,10.16895s-4.51562,3.82129-7.78223,3.82129c-2.77637,0-5.01855-.96484-6.72852-2.89453v12.94922h-7.33789v-38.03516h6.80469l.25391,2.69141c1.77734-2.13281,4.09668-3.19922,6.95703-3.19922,3.38574,0,6.01758,1.25293,7.89648,3.75781s2.81836,5.95801,2.81836,10.35938v.38086ZM1338.09553,324.6608c0-2.56348-.45312-4.54199-1.3584-5.93457-.90527-1.3916-2.22168-2.08789-3.94824-2.08789-2.30176,0-3.88477.88281-4.74805,2.64844v11.28223c.89746,1.81738,2.49707,2.72559,4.79883,2.72559,3.50391,0,5.25586-2.87793,5.25586-8.63379Z"/>
  </g>
  <g>
    <path class="cls-4" d="M1646.48615,321.38639h-14.77246v-2.93066l6.97168-7.43164c.95703-1.0459,1.66504-1.95801,2.12402-2.73828.45898-.7793.68848-1.51953.68848-2.2207,0-.95703-.24219-1.70898-.72559-2.25684s-1.17383-.82129-2.07227-.82129c-.9668,0-1.72949.33301-2.28711.99902s-.83594,1.54199-.83594,2.62695h-4.29297c0-1.3125.31348-2.51074.94043-3.59668.62598-1.08594,1.51172-1.93652,2.65625-2.55371,1.14551-.61621,2.44336-.9248,3.89355-.9248,2.2207,0,3.94531.53223,5.17383,1.59863,1.22852,1.06543,1.84277,2.57031,1.84277,4.51465,0,1.06543-.27637,2.15137-.8291,3.25684s-1.5,2.39258-2.8418,3.86328l-4.90039,5.16602h9.2666v3.44922Z"/>
    <path class="cls-4" d="M1653.45881,308.71549h2.2793c1.08594,0,1.88965-.27148,2.41309-.81445s.78516-1.2627.78516-2.16113c0-.86816-.25977-1.54395-.77734-2.02832-.51855-.4834-1.23145-.72461-2.13965-.72461-.81836,0-1.50488.22461-2.05762.67285-.55273.44922-.82812,1.03418-.82812,1.75488h-4.27832c0-1.125.30371-2.13477.91016-3.02734.60742-.89355,1.45605-1.5918,2.5459-2.09473,1.09082-.50391,2.29199-.75488,3.60449-.75488,2.28027,0,4.06641.54492,5.35938,1.63574,1.29199,1.08984,1.93848,2.59277,1.93848,4.50684,0,.9873-.30078,1.89551-.90234,2.72363-.60254.8291-1.3916,1.46582-2.36914,1.91016,1.21387.43457,2.11914,1.08594,2.7168,1.9541.59668.86816.89551,1.89453.89551,3.0791,0,1.91406-.69824,3.44824-2.09473,4.60352-1.39648,1.1543-3.24414,1.73145-5.54395,1.73145-2.15137,0-3.91016-.56738-5.27734-1.70215-1.36621-1.13477-2.0498-2.63477-2.0498-4.5h4.27832c0,.80957.30371,1.4707.91016,1.9834.60645.51367,1.35449.76953,2.24219.76953,1.0166,0,1.81348-.26855,2.39062-.80664.57812-.53711.86621-1.25098.86621-2.13867,0-2.15137-1.18359-3.22754-3.55273-3.22754h-2.26465v-3.34473Z"/>
    <path class="cls-4" d="M1676.50568,312.77115c-1.11523,1.0957-2.41797,1.64355-3.90723,1.64355-1.90527,0-3.42969-.6543-4.57422-1.96191s-1.7168-3.07129-1.7168-5.29199c0-1.41113.30762-2.70605.9248-3.88574.61621-1.17871,1.47754-2.09668,2.58301-2.75293s2.34863-.98438,3.73047-.98438c1.4209,0,2.68359.35547,3.78906,1.06543,1.10547.71094,1.96387,1.73242,2.57617,3.06445.61133,1.33203.92285,2.85645.93262,4.57422v1.58398c0,3.5918-.89355,6.41406-2.67969,8.4668s-4.31738,3.14746-7.59375,3.28613l-1.05078.01465v-3.56738l.94727-.01465c3.7207-.16797,5.7334-1.91406,6.03906-5.24023ZM1673.64924,311.14322c.69043,0,1.28516-.17773,1.7832-.5332.49902-.35547.87598-.78418,1.13281-1.28809v-1.76172c0-1.4502-.27637-2.5752-.8291-3.375-.55273-.79883-1.29297-1.19824-2.21973-1.19824-.85938,0-1.56445.3916-2.11719,1.17676-.55273.78418-.8291,1.76855-.8291,2.95312,0,1.17383.26855,2.13867.80664,2.89355s1.2959,1.13281,2.27246,1.13281Z"/>
    <path class="cls-4" d="M1693.34553,325.6774v13.02539h-7.61719v-36.96875h14.42188c2.77637,0,5.21777.50781,7.3252,1.52344s3.72852,2.45898,4.8623,4.3291,1.70117,3.99902,1.70117,6.38574c0,3.62207-1.24023,6.47852-3.71973,8.56934s-5.91211,3.13574-10.2959,3.13574h-6.67773ZM1693.34553,319.50748h6.80469c2.01465,0,3.55078-.47363,4.6084-1.42188s1.58691-2.30176,1.58691-4.0625c0-1.81152-.5332-3.27539-1.59961-4.39258s-2.53906-1.69238-4.41797-1.72656h-6.98242v11.60352Z"/>
    <path class="cls-4" d="M1735.24006,335.90982c-1.81152,2.2002-4.31641,3.30078-7.51562,3.30078-2.94531,0-5.19238-.84668-6.74121-2.53906s-2.33984-4.17285-2.37402-7.43945v-18.00195h7.33789v17.76855c0,2.86426,1.30371,4.2959,3.91016,4.2959,2.48828,0,4.19824-.86426,5.12891-2.59277v-19.47168h7.36328v27.47266h-6.90625l-.20312-2.79297Z"/>
  </g>
  <g>
    <line class="cls-3" x1="611.36376" y1="323.99629" x2="739.73463" y2="323.99629"/>
    <polyline class="cls-3" points="716.66402 300.97167 739.74368 323.99525 716.66626 347.02091"/>
  </g>
  <line class="cls-3" x1="246.26362" y1="323.99629" x2="295.26441" y2="323.99629"/>
  <line class="cls-3" x1="270.76402" y1="299.22768" x2="270.76402" y2="348.22848"/>
  <g>
    <line class="cls-3" x1="1022.38448" y1="323.99629" x2="1150.75535" y2="323.99629"/>
    <polyline class="cls-3" points="1127.68474 300.97167 1150.7644 323.99525 1127.68698 347.02091"/>
  </g>
  <g>
    <line class="cls-3" x1="1078.42988" y1="398.32191" x2="1169.20179" y2="489.09382"/>
    <polyline class="cls-3" points="1169.16927 456.49957 1169.20892 489.09948 1136.60913 489.06289"/>
  </g>
  <g>
    <line class="cls-3" x1="1478.80928" y1="398.32191" x2="1569.5812" y2="489.09382"/>
    <polyline class="cls-3" points="1569.54868 456.49957 1569.58833 489.09948 1536.98853 489.06289"/>
  </g>
  <g>
    <line class="cls-3" x1="1425.42421" y1="323.99629" x2="1553.79508" y2="323.99629"/>
    <polyline class="cls-3" points="1530.72447 300.97167 1553.80413 323.99525 1530.72672 347.02091"/>
  </g>
</svg>