<?xml version="1.0" encoding="UTF-8"?>
<svg id="Ebene_2" data-name="Ebene 2" xmlns="http://www.w3.org/2000/svg" viewBox="0 0 1920 1280">
  <defs>
    <style>
      .cls-1 {
        fill: #bb172b;
      }

      .cls-2 {
        stroke: #ffb923;
        stroke-width: 4.2111px;
      }

      .cls-2, .cls-3, .cls-4 {
        stroke-miterlimit: 10;
      }

      .cls-2, .cls-4 {
        fill: none;
      }

      .cls-5 {
        fill: #02405a;
      }

      .cls-3 {
        stroke: #aebfc7;
        stroke-width: 12.92366px;
      }

      .cls-3, .cls-6 {
        fill: #f3f5f7;
      }

      .cls-7 {
        fill: #ced9de;
      }

      .cls-8 {
        fill: #90172f;
      }

      .cls-9 {
        fill: #fff;
      }

      .cls-10 {
        fill: #aebfc7;
      }

      .cls-11 {
        fill: #426b7e;
      }

      .cls-12 {
        fill: #003950;
      }

      .cls-4 {
        stroke: #426b7e;
        stroke-width: 11.74878px;
      }
    </style>
  </defs>
  <rect class="cls-6" x="-3.01381" y="-4.13623" width="1927.4039" height="1290.22846"/>
  <path class="cls-7" d="M1420.24226,536.51878c-59.05612-15.3809-169.94834-23.03518-236.40123-22.9368l-406.91665.60243s-251.70008,14.10223-327.08784,73.74575l-123.73858-73.47046-220.55264-.21004,1.14533,329.90578,219.40731-.10599,124.53771-75.9082c.02818.27931.04862.55876.07745.83799,28.01852,13.11957,167.03883,74.31153,324.33365,75.1762,176.19598.96857,455.80259.80013,455.80259.80013,0,0,120.80442,1.33568,189.39292-11.77512,83.94834-16.04686,129.13197-58.43103,128.16431-142.0013-1.01073-87.28976-40.24509-131.76223-128.16431-154.66038Z"/>
  <path class="cls-9" d="M1397.00335,561.25574c-54.8962-12.71592-157.97716-19.04397-219.74909-18.96263l-378.25338.49805s-233.97029,11.65879-304.04773,60.96812l-.00003.00007c.00003-.00007.81485,149.67938.81485,149.67938l-.07199-.69279c.0262.23091.04519.46194.07199.69279,0,0,155.27259,61.43587,301.48754,62.15072,163.78471.80075,423.69579.66149,423.69579.66149,0,0,112.29494,1.10425,176.05205-9.73489,78.035-13.26649,120.0359-48.30692,119.1364-117.3973-.93953-72.16541-37.41022-108.93232-119.1364-127.86299Z"/>
  <path class="cls-3" d="M1486.21772,685.5269c.91949-46.60532-16.22067-91.50206-87.73506-100.34809-13.91352-1.72104-67.87961-3.30228-81.91698-3.32495h-82.48621v198.71796l86.66354,1.01907c11.81635,0,66.02767-1.19655,77.73965-2.56887,63.35906-7.42396,86.62572-37.26749,87.73506-93.49512Z"/>
  <g>
    <path class="cls-1" d="M1359.39127,765.45039c-7.58301,0-14.58008-.00781-18.45117-.0127l-.33008-168.83594c9.5127.22656,37.29395.91797,46.79102,1.46289,31.75293,1.82129,54.91504,11.78809,68.8418,29.62305,11.08203,14.19238,16.4375,33.38184,15.91699,57.03613-1.2002,54.48535-28.08496,80.11328-84.6084,80.6543-5.00879.04785-14.4834.07227-28.16016.07227Z"/>
    <path class="cls-8" d="M1343.77432,599.83748c11.46045.28064,34.90991.89087,43.44556,1.38049,55.41577,3.17871,82.93115,31.25073,81.78174,83.43616-.5564,25.26184-6.65991,43.68359-18.65942,56.31836-13.31567,14.02039-33.8645,20.97058-62.82104,21.2478-4.97803.04773-14.3916.0719-27.97949.0719-5.88794,0-11.43262-.00464-15.44946-.00928l-.31787-162.44543M1337.44498,593.36824l.34302,175.22253s10.21973.01807,21.75366.01807c10.49097,0,22.06885-.01489,28.04004-.07214,63.7041-.60999,86.62573-33.38037,87.73511-83.74341.91943-41.74426-15.90112-85.76111-87.73511-89.88159-11.66187-.66895-50.13672-1.54346-50.13672-1.54346h0Z"/>
  </g>
  <rect class="cls-11" x="494.95312" y="611.83335" width="91.90138" height="133.29592"/>
  <rect class="cls-6" x="784.61711" y="598.7632" width="475.11444" height="161.66354"/>
  <rect class="cls-11" x="879.30339" y="614.06068" width="71.1309" height="131.0686"/>
  <g>
    <polygon class="cls-1" points="953.45181 618.97286 1066.51822 678.19649 953.45181 739.51582 953.45181 618.97286"/>
    <path class="cls-8" d="M956.61002,624.19246l103.1936,54.05188-103.1936,55.96582v-110.0177M950.29337,613.75313v131.0686l122.93872-66.67444-122.93872-64.39417h0Z"/>
  </g>
  <line class="cls-4" x1="586.85449" y1="679.28745" x2="879.30339" y2="679.28745"/>
  <g>
    <path class="cls-12" d="M446.22428,408.92674v-29.93848h9.64355c2.64551,0,5.02441.59961,7.13477,1.7998,2.11133,1.19922,3.75977,2.8916,4.94531,5.07812s1.78516,4.63672,1.7998,7.35156v1.37695c0,2.74219-.58008,5.19922-1.73828,7.37207s-2.78906,3.87207-4.89355,5.09863c-2.10449,1.22754-4.45117,1.84766-7.04199,1.86133h-9.84961ZM453.44205,384.56053v18.81445h2.50781c2.07031,0,3.66016-.73633,4.77051-2.20996s1.66602-3.66406,1.66602-6.57031v-1.29492c0-2.89258-.55566-5.07227-1.66602-6.53906s-2.72754-2.2002-4.85254-2.2002h-2.42578Z"/>
    <path class="cls-12" d="M483.8942,409.33787c-3.41309,0-6.17578-1.01758-8.28613-3.05371-2.11133-2.03516-3.16699-4.68457-3.16699-7.94727v-.5752c0-2.27539.42188-4.28418,1.26465-6.02441.84375-1.74121,2.07324-3.08789,3.69141-4.04102,1.61719-.95215,3.53613-1.42871,5.75684-1.42871,3.12598,0,5.59277.96973,7.40234,2.90918,1.80957,1.94043,2.71484,4.64355,2.71484,8.1123v2.69336h-13.77734c.24707,1.24707.78809,2.22754,1.625,2.94043.83594.71289,1.91895,1.06934,3.24902,1.06934,2.19238,0,3.90625-.76758,5.13965-2.30371l3.16699,3.74316c-.86328,1.19238-2.08691,2.1416-3.66992,2.84766-1.58398.70605-3.28711,1.05859-5.11035,1.05859ZM483.11295,391.61327c-2.02832,0-3.23535,1.34375-3.61914,4.03027h6.99121v-.53418c.02734-1.11035-.25391-1.9707-.84277-2.58105-.58984-.60938-1.43262-.91504-2.5293-.91504Z"/>
    <path class="cls-12" d="M504.1276,381.14745v5.53125h3.66016v4.81152h-3.66016v10.17773c0,.83691.15039,1.41895.45215,1.74805s.89746.49316,1.78906.49316c.68555,0,1.26074-.04102,1.72754-.12305v4.95605c-1.24805.39648-2.5498.5957-3.90723.5957-2.38477,0-4.14648-.56152-5.28418-1.68555s-1.70703-2.83105-1.70703-5.12012v-11.04199h-2.83691v-4.81152h2.83691v-5.53125h6.92969Z"/>
    <path class="cls-12" d="M509.02115,397.59666c0-2.2207.43164-4.19727,1.29492-5.93164.86426-1.73438,2.10449-3.06738,3.72168-3.99902,1.61816-.93262,3.5166-1.39844,5.69629-1.39844,3.33105,0,5.95605,1.03125,7.875,3.09473,1.91895,2.0625,2.87891,4.87012,2.87891,8.41992v.24707c0,3.46777-.96289,6.21973-2.88867,8.25488-1.92676,2.03613-4.53418,3.05371-7.82422,3.05371-3.16699,0-5.70996-.94922-7.62891-2.84766s-2.9541-4.47266-3.10449-7.7207l-.02051-1.17285ZM515.95084,398.02928c0,2.05566.32129,3.56348.96582,4.52344.64453.95898,1.59668,1.43945,2.8584,1.43945,2.46777,0,3.72852-1.89844,3.7832-5.69629v-.69922c0-3.98828-1.27441-5.9834-3.82422-5.9834-2.31738,0-3.57129,1.7207-3.7627,5.16113l-.02051,1.25488Z"/>
    <path class="cls-12" d="M539.90494,386.6787l.22656,2.61133c1.53516-2.01465,3.65332-3.02246,6.35352-3.02246,2.31641,0,4.04785.69238,5.19238,2.07617,1.14453,1.38477,1.7373,3.46875,1.77832,6.25098v14.33203h-6.9502v-14.04395c0-1.12402-.22559-1.9502-.67871-2.47754-.45215-.52734-1.27441-.79199-2.4668-.79199-1.35742,0-2.36523.53516-3.02246,1.60449v15.70898h-6.92969v-22.24805h6.49707Z"/>
    <path class="cls-12" d="M569.82291,408.92674c-.24707-.45215-.46582-1.11719-.6582-1.99414-1.27441,1.60352-3.05664,2.40527-5.3457,2.40527-2.09766,0-3.87988-.63379-5.34668-1.90234-1.4668-1.26758-2.2002-2.86133-2.2002-4.78027,0-2.41211.8916-4.23535,2.67383-5.46973,1.78125-1.2334,4.37207-1.85059,7.77246-1.85059h2.1377v-1.17773c0-2.05176-.88379-3.07812-2.65234-3.07812-1.64453,0-2.4668.8125-2.4668,2.43848h-6.92969c0-2.14941.91504-3.89551,2.74512-5.2373s4.16406-2.0127,7.00098-2.0127c2.83789,0,5.0791.69238,6.72363,2.07617,1.64551,1.38477,2.48828,3.2832,2.5293,5.69629v9.84863c.02734,2.04297.34277,3.60547.94629,4.68848v.34961h-6.92969ZM565.48404,404.4033c.86426,0,1.58008-.18555,2.14941-.55566.56836-.37012.97656-.78809,1.22266-1.25391v-3.55762h-2.01465c-2.41309,0-3.61914,1.08301-3.61914,3.24902,0,.63086.21289,1.1416.6377,1.53223s.9668.58594,1.62402.58594Z"/>
    <path class="cls-12" d="M587.71158,381.14745v5.53125h3.66016v4.81152h-3.66016v10.17773c0,.83691.15039,1.41895.45215,1.74805s.89746.49316,1.78906.49316c.68555,0,1.26074-.04102,1.72754-.12305v4.95605c-1.24805.39648-2.5498.5957-3.90723.5957-2.38477,0-4.14648-.56152-5.28418-1.68555s-1.70703-2.83105-1.70703-5.12012v-11.04199h-2.83691v-4.81152h2.83691v-5.53125h6.92969Z"/>
    <path class="cls-12" d="M592.60611,397.59666c0-2.2207.43164-4.19727,1.29492-5.93164.86426-1.73438,2.10449-3.06738,3.72168-3.99902,1.61816-.93262,3.5166-1.39844,5.69629-1.39844,3.33105,0,5.95605,1.03125,7.875,3.09473,1.91895,2.0625,2.87891,4.87012,2.87891,8.41992v.24707c0,3.46777-.96289,6.21973-2.88867,8.25488-1.92676,2.03613-4.53418,3.05371-7.82422,3.05371-3.16699,0-5.70996-.94922-7.62891-2.84766s-2.9541-4.47266-3.10449-7.7207l-.02051-1.17285ZM599.5358,398.02928c0,2.05566.32129,3.56348.96582,4.52344.64453.95898,1.59668,1.43945,2.8584,1.43945,2.46777,0,3.72852-1.89844,3.7832-5.69629v-.69922c0-3.98828-1.27441-5.9834-3.82422-5.9834-2.31738,0-3.57129,1.7207-3.7627,5.16113l-.02051,1.25488Z"/>
    <path class="cls-12" d="M630.58463,392.95018l-2.2832-.16504c-2.17871,0-3.57715.68555-4.19434,2.05664v14.08496h-6.92969v-22.24805h6.49805l.22656,2.8584c1.16406-2.17969,2.78906-3.26953,4.87305-3.26953.74023,0,1.38379.08203,1.93262.24609l-.12305,6.43652Z"/>
  </g>
  <g>
    <path class="cls-12" d="M750.65201,997.49412c-.09668,2.08301-.6582,3.92383-1.68652,5.52051s-2.4707,2.83398-4.32812,3.71191c-1.85742.87695-3.97852,1.31543-6.36426,1.31543-3.93457,0-7.03223-1.28125-9.29395-3.84473s-3.39258-6.18262-3.39258-10.85742v-1.48047c0-2.93262.51074-5.5,1.53125-7.7002,1.02148-2.2002,2.49121-3.89941,4.41113-5.09961,1.91895-1.19922,4.13965-1.79883,6.66211-1.79883,3.63184,0,6.55176.95605,8.75977,2.86816,2.20605,1.91211,3.46094,4.54785,3.7627,7.90625h-7.19727c-.05469-1.82324-.51367-3.13184-1.37695-3.92773-.86426-.79395-2.17969-1.19238-3.94824-1.19238-1.7959,0-3.1123.67188-3.94824,2.01562s-1.27441,3.48828-1.31543,6.43555v2.11816c0,3.19434.40039,5.47656,1.20215,6.84668.80273,1.37109,2.18359,2.05664,4.14355,2.05664,1.6582,0,2.92676-.39062,3.80371-1.17188.87793-.78125,1.34375-2.02246,1.39844-3.72168h7.17676Z"/>
    <path class="cls-12" d="M752.87271,996.30077c0-2.2207.43164-4.19727,1.29492-5.93164.86426-1.73438,2.10449-3.06738,3.72168-3.99902,1.61816-.93262,3.5166-1.39844,5.69629-1.39844,3.33105,0,5.95605,1.03125,7.875,3.09473,1.91895,2.0625,2.87891,4.87012,2.87891,8.41992v.24707c0,3.46777-.96289,6.21973-2.88867,8.25488-1.92676,2.03613-4.53418,3.05371-7.82422,3.05371-3.16699,0-5.70996-.94922-7.62891-2.84766s-2.9541-4.47266-3.10449-7.7207l-.02051-1.17285ZM759.8024,996.73338c0,2.05566.32129,3.56348.96582,4.52344.64453.95898,1.59668,1.43945,2.8584,1.43945,2.46777,0,3.72852-1.89844,3.7832-5.69629v-.69922c0-3.98828-1.27441-5.9834-3.82422-5.9834-2.31738,0-3.57129,1.7207-3.7627,5.16113l-.02051,1.25488Z"/>
    <path class="cls-12" d="M783.7565,985.3828l.22656,2.61133c1.53516-2.01465,3.65332-3.02246,6.35352-3.02246,2.31641,0,4.04785.69238,5.19238,2.07617,1.14453,1.38477,1.7373,3.46875,1.77832,6.25098v14.33203h-6.9502v-14.04395c0-1.12402-.22559-1.9502-.67871-2.47754-.45215-.52734-1.27441-.79199-2.4668-.79199-1.35742,0-2.36523.53516-3.02246,1.60449v15.70898h-6.92969v-22.24805h6.49707Z"/>
    <path class="cls-12" d="M810.01431,999.38573l3.5166-14.00293h7.29883l-7.25781,22.24805h-7.07324l-7.25879-22.24805h7.32031l3.4541,14.00293Z"/>
    <path class="cls-12" d="M833.39322,1008.04198c-3.41309,0-6.17578-1.01758-8.28613-3.05371-2.11133-2.03516-3.16699-4.68457-3.16699-7.94727v-.5752c0-2.27539.42188-4.28418,1.26465-6.02441.84375-1.74121,2.07324-3.08789,3.69141-4.04102,1.61719-.95215,3.53613-1.42871,5.75684-1.42871,3.12598,0,5.59277.96973,7.40234,2.90918,1.80957,1.94043,2.71484,4.64355,2.71484,8.1123v2.69336h-13.77734c.24707,1.24707.78809,2.22754,1.625,2.94043.83594.71289,1.91895,1.06934,3.24902,1.06934,2.19238,0,3.90625-.76758,5.13965-2.30371l3.16699,3.74316c-.86328,1.19238-2.08691,2.1416-3.66992,2.84766-1.58398.70605-3.28711,1.05859-5.11035,1.05859ZM832.61197,990.31737c-2.02832,0-3.23535,1.34375-3.61914,4.03027h6.99121v-.53418c.02734-1.11035-.25391-1.9707-.84277-2.58105-.58984-.60938-1.43262-.91504-2.5293-.91504Z"/>
    <path class="cls-12" d="M851.91959,985.3828l.22656,2.61133c1.53516-2.01465,3.65332-3.02246,6.35352-3.02246,2.31641,0,4.04785.69238,5.19238,2.07617,1.14453,1.38477,1.7373,3.46875,1.77832,6.25098v14.33203h-6.9502v-14.04395c0-1.12402-.22559-1.9502-.67871-2.47754-.45215-.52734-1.27441-.79199-2.4668-.79199-1.35742,0-2.36523.53516-3.02246,1.60449v15.70898h-6.92969v-22.24805h6.49707Z"/>
    <path class="cls-12" d="M877.37564,979.85155v5.53125h3.66016v4.81152h-3.66016v10.17773c0,.83691.15039,1.41895.45215,1.74805s.89746.49316,1.78906.49316c.68555,0,1.26074-.04102,1.72754-.12305v4.95605c-1.24805.39648-2.5498.5957-3.90723.5957-2.38477,0-4.14648-.56152-5.28418-1.68555s-1.70703-2.83105-1.70703-5.12012v-11.04199h-2.83691v-4.81152h2.83691v-5.53125h6.92969Z"/>
    <path class="cls-12" d="M883.70865,979.62498c0-.99219.35645-1.80664,1.06934-2.44043.71289-.63477,1.6377-.95215,2.77539-.95215s2.06348.31738,2.77637.95215c.71289.63379,1.06934,1.44824,1.06934,2.44043,0,.99316-.35645,1.80762-1.06934,2.44141-.71289.63477-1.63867.95215-2.77637.95215s-2.0625-.31738-2.77539-.95215c-.71289-.63379-1.06934-1.44824-1.06934-2.44141ZM891.06998,1007.63084h-6.9502v-22.24805h6.9502v22.24805Z"/>
    <path class="cls-12" d="M894.46256,996.30077c0-2.2207.43164-4.19727,1.29492-5.93164.86426-1.73438,2.10449-3.06738,3.72168-3.99902,1.61816-.93262,3.5166-1.39844,5.69629-1.39844,3.33105,0,5.95605,1.03125,7.875,3.09473,1.91895,2.0625,2.87891,4.87012,2.87891,8.41992v.24707c0,3.46777-.96289,6.21973-2.88867,8.25488-1.92676,2.03613-4.53418,3.05371-7.82422,3.05371-3.16699,0-5.70996-.94922-7.62891-2.84766s-2.9541-4.47266-3.10449-7.7207l-.02051-1.17285ZM901.39224,996.73338c0,2.05566.32129,3.56348.96582,4.52344.64453.95898,1.59668,1.43945,2.8584,1.43945,2.46777,0,3.72852-1.89844,3.7832-5.69629v-.69922c0-3.98828-1.27441-5.9834-3.82422-5.9834-2.31738,0-3.57129,1.7207-3.7627,5.16113l-.02051,1.25488Z"/>
    <path class="cls-12" d="M925.34635,985.3828l.22656,2.61133c1.53516-2.01465,3.65332-3.02246,6.35352-3.02246,2.31641,0,4.04785.69238,5.19238,2.07617,1.14453,1.38477,1.7373,3.46875,1.77832,6.25098v14.33203h-6.9502v-14.04395c0-1.12402-.22559-1.9502-.67871-2.47754-.45215-.52734-1.27441-.79199-2.4668-.79199-1.35742,0-2.36523.53516-3.02246,1.60449v15.70898h-6.92969v-22.24805h6.49707Z"/>
    <path class="cls-12" d="M955.26431,1007.63084c-.24707-.45215-.46582-1.11719-.6582-1.99414-1.27441,1.60352-3.05664,2.40527-5.3457,2.40527-2.09766,0-3.87988-.63379-5.34668-1.90234-1.4668-1.26758-2.2002-2.86133-2.2002-4.78027,0-2.41211.8916-4.23535,2.67383-5.46973,1.78125-1.2334,4.37207-1.85059,7.77246-1.85059h2.1377v-1.17773c0-2.05176-.88379-3.07812-2.65234-3.07812-1.64453,0-2.4668.8125-2.4668,2.43848h-6.92969c0-2.14941.91504-3.89551,2.74512-5.2373s4.16406-2.0127,7.00098-2.0127c2.83789,0,5.0791.69238,6.72363,2.07617,1.64551,1.38477,2.48828,3.2832,2.5293,5.69629v9.84863c.02734,2.04297.34277,3.60547.94629,4.68848v.34961h-6.92969ZM950.92545,1003.10741c.86426,0,1.58008-.18555,2.14941-.55566.56836-.37012.97656-.78809,1.22266-1.25391v-3.55762h-2.01465c-2.41309,0-3.61914,1.08301-3.61914,3.24902,0,.63086.21289,1.1416.6377,1.53223s.9668.58594,1.62402.58594Z"/>
    <path class="cls-12" d="M972.39224,1007.63084h-6.9502v-31.58301h6.9502v31.58301Z"/>
    <path class="cls-12" d="M1011.68619,997.49412c-.09668,2.08301-.6582,3.92383-1.68652,5.52051s-2.4707,2.83398-4.32812,3.71191c-1.85742.87695-3.97852,1.31543-6.36426,1.31543-3.93457,0-7.03223-1.28125-9.29395-3.84473s-3.39258-6.18262-3.39258-10.85742v-1.48047c0-2.93262.51074-5.5,1.53125-7.7002,1.02148-2.2002,2.49121-3.89941,4.41113-5.09961,1.91895-1.19922,4.13965-1.79883,6.66211-1.79883,3.63184,0,6.55176.95605,8.75977,2.86816,2.20605,1.91211,3.46094,4.54785,3.7627,7.90625h-7.19727c-.05469-1.82324-.51367-3.13184-1.37695-3.92773-.86426-.79395-2.17969-1.19238-3.94824-1.19238-1.7959,0-3.1123.67188-3.94824,2.01562s-1.27441,3.48828-1.31543,6.43555v2.11816c0,3.19434.40039,5.47656,1.20215,6.84668.80273,1.37109,2.18359,2.05664,4.14355,2.05664,1.6582,0,2.92676-.39062,3.80371-1.17188.87793-.78125,1.34375-2.02246,1.39844-3.72168h7.17676Z"/>
    <path class="cls-12" d="M1021.55631,987.76756c1.48047-1.86328,3.37207-2.7959,5.6748-2.7959,2.45312,0,4.30371.72656,5.55176,2.17969,1.24707,1.45312,1.88477,3.59766,1.91211,6.43555v14.04395h-6.9502v-13.87891c0-1.17969-.24023-2.04688-.71973-2.60156s-1.29492-.83301-2.44629-.83301c-1.42578,0-2.43359.45215-3.02246,1.35742v15.95605h-6.92969v-31.58301h6.92969v11.71973Z"/>
    <path class="cls-12" d="M1051.08267,1007.63084c-.24707-.45215-.46582-1.11719-.6582-1.99414-1.27441,1.60352-3.05664,2.40527-5.3457,2.40527-2.09766,0-3.87988-.63379-5.34668-1.90234-1.4668-1.26758-2.2002-2.86133-2.2002-4.78027,0-2.41211.8916-4.23535,2.67383-5.46973,1.78125-1.2334,4.37207-1.85059,7.77246-1.85059h2.1377v-1.17773c0-2.05176-.88379-3.07812-2.65234-3.07812-1.64453,0-2.4668.8125-2.4668,2.43848h-6.92969c0-2.14941.91504-3.89551,2.74512-5.2373s4.16406-2.0127,7.00098-2.0127c2.83789,0,5.0791.69238,6.72363,2.07617,1.64551,1.38477,2.48828,3.2832,2.5293,5.69629v9.84863c.02734,2.04297.34277,3.60547.94629,4.68848v.34961h-6.92969ZM1046.74381,1003.10741c.86426,0,1.58008-.18555,2.14941-.55566.56836-.37012.97656-.78809,1.22266-1.25391v-3.55762h-2.01465c-2.41309,0-3.61914,1.08301-3.61914,3.24902,0,.63086.21289,1.1416.6377,1.53223s.9668.58594,1.62402.58594Z"/>
    <path class="cls-12" d="M1074.35904,991.65428l-2.2832-.16504c-2.17871,0-3.57715.68555-4.19434,2.05664v14.08496h-6.92969v-22.24805h6.49805l.22656,2.8584c1.16406-2.17969,2.78906-3.26953,4.87305-3.26953.74023,0,1.38379.08203,1.93262.24609l-.12305,6.43652Z"/>
    <path class="cls-12" d="M1075.65396,996.34276c0-2.24805.37012-4.23633,1.11035-5.96387.74023-1.72656,1.80273-3.05957,3.1875-3.99902,1.38379-.93848,2.99512-1.4082,4.83203-1.4082,2.31641,0,4.12598.78125,5.42773,2.34375l.24707-1.93262h6.29199v21.40527c0,1.95996-.45605,3.66309-1.36719,5.10938-.91211,1.44629-2.23145,2.55664-3.95801,3.33105-1.72754.77441-3.72949,1.16211-6.00488,1.16211-1.63086,0-3.21094-.30859-4.73926-.92578s-2.69727-1.41895-3.50586-2.40527l2.89941-4.07129c1.28809,1.52148,2.98828,2.28223,5.09961,2.28223,3.07031,0,4.60547-1.57715,4.60547-4.72949v-.69922c-1.33008,1.4668-3.00879,2.2002-5.03711,2.2002-2.71484,0-4.9082-1.03809-6.58008-3.11523-1.67285-2.07617-2.50879-4.85547-2.50879-8.33789v-.24609ZM1082.60416,996.7744c0,1.82324.34277,3.26562,1.02832,4.32812.68457,1.0625,1.64453,1.59375,2.87793,1.59375,1.49414,0,2.58398-.50098,3.26953-1.50098v-9.35645c-.67188-1.01367-1.74805-1.52148-3.22852-1.52148-1.2334,0-2.19922.55176-2.89844,1.65527s-1.04883,2.7041-1.04883,4.80176Z"/>
    <path class="cls-12" d="M1111.45181,1008.04198c-3.41309,0-6.17578-1.01758-8.28613-3.05371-2.11133-2.03516-3.16699-4.68457-3.16699-7.94727v-.5752c0-2.27539.42188-4.28418,1.26465-6.02441.84375-1.74121,2.07324-3.08789,3.69141-4.04102,1.61719-.95215,3.53613-1.42871,5.75684-1.42871,3.12598,0,5.59277.96973,7.40234,2.90918,1.80957,1.94043,2.71484,4.64355,2.71484,8.1123v2.69336h-13.77734c.24707,1.24707.78809,2.22754,1.625,2.94043.83594.71289,1.91895,1.06934,3.24902,1.06934,2.19238,0,3.90625-.76758,5.13965-2.30371l3.16699,3.74316c-.86328,1.19238-2.08691,2.1416-3.66992,2.84766-1.58398.70605-3.28711,1.05859-5.11035,1.05859ZM1110.67056,990.31737c-2.02832,0-3.23535,1.34375-3.61914,4.03027h6.99121v-.53418c.02734-1.11035-.25391-1.9707-.84277-2.58105-.58984-.60938-1.43262-.91504-2.5293-.91504Z"/>
  </g>
  <g>
    <path class="cls-12" d="M1096.24674,378.98827v19.5957c0,2.2207-.47363,4.14355-1.41895,5.76758-.94629,1.625-2.30371,2.86133-4.07129,3.71191-1.76855.84961-3.85938,1.27441-6.27148,1.27441-3.64648,0-6.51855-.94531-8.61621-2.83789-2.09668-1.8916-3.16602-4.48242-3.20703-7.77246v-19.73926h7.25781v19.88379c.08301,3.27637,1.60449,4.91406,4.56543,4.91406,1.49414,0,2.625-.41113,3.39258-1.2334s1.15137-2.15918,1.15137-4.00977v-19.55469h7.21777Z"/>
    <path class="cls-12" d="M1113.88931,392.95018l-2.2832-.16504c-2.17871,0-3.57715.68555-4.19434,2.05664v14.08496h-6.92969v-22.24805h6.49805l.22656,2.8584c1.16406-2.17969,2.78906-3.26953,4.87305-3.26953.74023,0,1.38379.08203,1.93262.24609l-.12305,6.43652Z"/>
    <path class="cls-12" d="M1128.3024,408.92674c-.24707-.45215-.46582-1.11719-.6582-1.99414-1.27441,1.60352-3.05664,2.40527-5.3457,2.40527-2.09766,0-3.87988-.63379-5.34668-1.90234-1.4668-1.26758-2.2002-2.86133-2.2002-4.78027,0-2.41211.8916-4.23535,2.67383-5.46973,1.78125-1.2334,4.37207-1.85059,7.77246-1.85059h2.1377v-1.17773c0-2.05176-.88379-3.07812-2.65234-3.07812-1.64453,0-2.4668.8125-2.4668,2.43848h-6.92969c0-2.14941.91504-3.89551,2.74512-5.2373s4.16406-2.0127,7.00098-2.0127c2.83789,0,5.0791.69238,6.72363,2.07617,1.64551,1.38477,2.48828,3.2832,2.5293,5.69629v9.84863c.02734,2.04297.34277,3.60547.94629,4.68848v.34961h-6.92969ZM1123.96353,404.4033c.86426,0,1.58008-.18555,2.14941-.55566.56836-.37012.97656-.78809,1.22266-1.25391v-3.55762h-2.01465c-2.41309,0-3.61914,1.08301-3.61914,3.24902,0,.63086.21289,1.1416.6377,1.53223s.9668.58594,1.62402.58594Z"/>
    <path class="cls-12" d="M1144.48404,386.6787l.22656,2.61133c1.53516-2.01465,3.65332-3.02246,6.35352-3.02246,2.31641,0,4.04785.69238,5.19238,2.07617,1.14453,1.38477,1.7373,3.46875,1.77832,6.25098v14.33203h-6.9502v-14.04395c0-1.12402-.22559-1.9502-.67871-2.47754-.45215-.52734-1.27441-.79199-2.4668-.79199-1.35742,0-2.36523.53516-3.02246,1.60449v15.70898h-6.92969v-22.24805h6.49707Z"/>
    <path class="cls-12" d="M1161.81803,380.92088c0-.99219.35645-1.80664,1.06934-2.44043.71289-.63477,1.6377-.95215,2.77539-.95215s2.06348.31738,2.77637.95215c.71289.63379,1.06934,1.44824,1.06934,2.44043,0,.99316-.35645,1.80762-1.06934,2.44141-.71289.63477-1.63867.95215-2.77637.95215s-2.0625-.31738-2.77539-.95215c-.71289-.63379-1.06934-1.44824-1.06934-2.44141ZM1169.17935,408.92674h-6.9502v-22.24805h6.9502v22.24805Z"/>
    <path class="cls-12" d="M1186.69791,406.52147c-1.4668,1.87793-3.44727,2.81641-5.94238,2.81641-2.44043,0-4.28711-.70898-5.54102-2.12793-1.25488-1.41895-1.88184-3.45801-1.88184-6.11719v-14.41406h6.92969v14.45508c0,1.90527.9248,2.8584,2.77539,2.8584,1.58984,0,2.7207-.56934,3.39258-1.70703v-15.60645h6.9707v22.24805h-6.49707l-.20605-2.40527Z"/>
    <path class="cls-12" d="M1203.74381,386.6787l.22656,2.61133c1.57617-2.01465,3.69336-3.02246,6.35352-3.02246,2.80957,0,4.70801,1.11719,5.69531,3.35156,1.50781-2.23438,3.6875-3.35156,6.53906-3.35156,4.50977,0,6.82617,2.72754,6.94922,8.18359v14.47559h-6.94922v-14.04395c0-1.1377-.19238-1.9668-.57617-2.48828-.38379-.52051-1.08301-.78125-2.09668-.78125-1.37109,0-2.39258.61035-3.06445,1.83008l.02051.28809v15.19531h-6.94922v-14.00293c0-1.16504-.18555-2.00781-.55566-2.5293-.37012-.52051-1.07617-.78125-2.11816-.78125-1.3291,0-2.34375.61035-3.04297,1.83008v15.4834h-6.92969v-22.24805h6.49805Z"/>
    <path class="cls-12" d="M1264.73013,408.92674h-20.89062v-4.52344l9.62305-10.11719c2.37109-2.7002,3.55762-4.84473,3.55762-6.43555,0-1.28809-.28125-2.26855-.84375-2.94043-.56152-.6709-1.37695-1.00781-2.44629-1.00781-1.05566,0-1.91309.44922-2.57031,1.34766-.6582.89746-.9873,2.01855-.9873,3.36133h-6.9502c0-1.83691.45898-3.5332,1.37793-5.08887.91797-1.55566,2.19336-2.77246,3.82422-3.64941,1.63184-.87793,3.45508-1.31641,5.46973-1.31641,3.23535,0,5.72656.74707,7.47461,2.24121,1.74707,1.49414,2.62109,3.63965,2.62109,6.43555,0,1.17969-.21875,2.32715-.65723,3.44434-.43945,1.11719-1.12109,2.29004-2.0459,3.5166-.92578,1.22656-2.41602,2.86816-4.47266,4.9248l-3.86523,4.46191h11.78125v5.3457Z"/>
    <path class="cls-12" d="M1274.55924,391.05858h3.26953c2.59082,0,3.88574-1.26758,3.88574-3.80469,0-.98633-.30762-1.79199-.9248-2.41602-.61719-.62305-1.4873-.93555-2.61133-.93555-.91895,0-1.7168.26758-2.39551.80273-.67871.53418-1.01758,1.19922-1.01758,1.99414h-6.92969c0-1.57617.43848-2.98145,1.31543-4.21484.87793-1.23438,2.09375-2.19727,3.65039-2.88965,1.55566-.69141,3.26562-1.03809,5.12988-1.03809,3.33105,0,5.94922.76074,7.85449,2.28223s2.8584,3.6123,2.8584,6.27148c0,1.28906-.39453,2.50586-1.18262,3.64941-.78809,1.14551-1.93555,2.07422-3.44336,2.78613,1.58984.57617,2.83691,1.4502,3.74219,2.62207.9043,1.17188,1.35645,2.62207,1.35645,4.34863,0,2.67383-1.02734,4.81152-3.08398,6.41602-2.05664,1.60352-4.75684,2.40527-8.10156,2.40527-1.95996,0-3.78027-.37402-5.45898-1.12012-1.67969-.74707-2.95117-1.78223-3.81445-3.10547-.86328-1.32227-1.29492-2.82715-1.29492-4.5127h6.96973c0,.91797.37012,1.71289,1.11035,2.38477s1.65234,1.00781,2.73535,1.00781c1.21973,0,2.19336-.33984,2.91992-1.01855.72656-.67773,1.08984-1.54492,1.08984-2.60059,0-1.50781-.37793-2.57715-1.13086-3.20801-.75488-.62988-1.7959-.94531-3.12598-.94531h-3.37207v-5.16113Z"/>
    <path class="cls-12" d="M1293.02408,394.30272l1.83008-15.31445h17.49805v5.34668h-11.86426l-.67871,5.98828c.49414-.28906,1.1416-.54395,1.94336-.76465.80176-.21973,1.58691-.33008,2.35449-.33008,2.97461,0,5.26074.88086,6.85742,2.6416,1.59668,1.76172,2.39551,4.2334,2.39551,7.41309,0,1.91895-.42871,3.65723-1.28516,5.21289s-2.05957,2.75195-3.6084,3.58789c-1.5498.83594-3.37988,1.25391-5.49023,1.25391-1.87793,0-3.63965-.38672-5.28418-1.16113-1.64551-.77344-2.93359-1.83496-3.86621-3.18457-.93262-1.34863-1.3916-2.87207-1.37793-4.57031h6.9502c.06836,1.09375.41797,1.96289,1.04883,2.60547.63086.64355,1.45996.96484,2.48828.96484,2.33008,0,3.49512-1.72363,3.49512-5.1709,0-3.1875-1.42578-4.78125-4.27637-4.78125-1.61816,0-2.82422.51953-3.61914,1.55957l-5.51074-1.29688Z"/>
  </g>
  <rect class="cls-10" x="1005.94681" y="531.91571" width="13.34504" height="456.00444" transform="translate(252.7014 1772.53727) rotate(-90)"/>
  <rect class="cls-10" x="1005.94681" y="371.26979" width="13.34504" height="456.00444" transform="translate(413.34732 1611.89135) rotate(-90)"/>
  <line class="cls-2" x1="913.93772" y1="966.66217" x2="913.93772" y2="692.5229"/>
  <line class="cls-2" x1="540.88369" y1="667.11872" x2="540.88369" y2="422.24404"/>
  <line class="cls-2" x1="999.93394" y1="669.95568" x2="999.93394" y2="396.80854"/>
  <line class="cls-2" x1="997.99581" y1="399.2019" x2="1053.75456" y2="399.2019"/>
  <line class="cls-2" x1="1330.62627" y1="399.2019" x2="1386.38502" y2="399.2019"/>
  <line class="cls-2" x1="1386.31133" y1="669.95568" x2="1386.31133" y2="396.80854"/>
  <g>
    <path class="cls-5" d="M143.32681,195.1992c-1.58203,1.89453-3.81836,3.36426-6.70898,4.40918s-6.09375,1.56738-9.60938,1.56738c-3.69141,0-6.92871-.80566-9.71191-2.41699s-4.93164-3.9502-6.44531-7.0166-2.29004-6.66992-2.3291-10.81055v-2.90039c0-4.25781.71777-7.94434,2.15332-11.05957s3.50586-5.49805,6.21094-7.14844,5.87402-2.47559,9.50684-2.47559c5.05859,0,9.01367,1.20605,11.86523,3.61816s4.54102,5.92285,5.06836,10.53223h-8.55469c-.39062-2.44141-1.25488-4.22852-2.59277-5.36133s-3.17871-1.69922-5.52246-1.69922c-2.98828,0-5.26367,1.12305-6.82617,3.36914s-2.35352,5.58594-2.37305,10.01953v2.72461c0,4.47266.84961,7.85156,2.54883,10.13672s4.18945,3.42773,7.4707,3.42773c3.30078,0,5.6543-.70312,7.06055-2.10938v-7.35352h-7.99805v-6.47461h16.78711v17.02148Z"/>
    <path class="cls-5" d="M168.87369,197.36717c-2.08984,2.53906-4.98047,3.80859-8.67188,3.80859-3.39844,0-5.99121-.97656-7.77832-2.92969s-2.7002-4.81445-2.73926-8.58398v-20.77148h8.4668v20.50195c0,3.30469,1.50391,4.95703,4.51172,4.95703,2.87109,0,4.84375-.99707,5.91797-2.99219v-22.4668h8.49609v31.69922h-7.96875l-.23438-3.22266Z"/>
    <path class="cls-5" d="M191.2565,168.89061l.26367,3.66211c2.26562-2.83203,5.30273-4.24805,9.11133-4.24805,3.35938,0,5.85938.98633,7.5,2.95898s2.48047,4.92188,2.51953,8.84766v20.47852h-8.4668v-20.32031c0-1.80078-.39062-3.10742-1.17188-3.91992s-2.08008-1.21875-3.89648-1.21875c-2.38281,0-4.16992,1.01758-5.36133,3.05371v22.40527h-8.4668v-31.69922h7.96875Z"/>
    <path class="cls-5" d="M233.53189,185.73631h-16.49414v-6.82617h16.49414v6.82617Z"/>
    <path class="cls-5" d="M272.99478,165.05272h-13.06641v35.53711h-8.78906v-35.53711h-12.89062v-7.11914h34.74609v7.11914Z"/>
    <path class="cls-5" d="M289.28385,188.60741l5.85938-19.7168h9.08203l-12.74414,36.62109-.70312,1.66992c-1.89453,4.14062-5.01953,6.21094-9.375,6.21094-1.23047,0-2.48047-.18555-3.75-.55664v-6.41602l1.28906.0293c1.60156,0,2.79785-.24414,3.58887-.73242s1.41113-1.29883,1.86035-2.43164l.99609-2.60742-11.10352-31.78711h9.11133l5.88867,19.7168Z"/>
    <path class="cls-5" d="M336.10025,185.03319c0,4.88281-1.1084,8.79395-3.3252,11.7334s-5.20996,4.40918-8.97949,4.40918c-3.20312,0-5.79102-1.11328-7.76367-3.33984v14.94141h-8.4668v-43.88672h7.85156l.29297,3.10547c2.05078-2.46094,4.72656-3.69141,8.02734-3.69141,3.90625,0,6.94336,1.44531,9.11133,4.33594s3.25195,6.875,3.25195,11.95312v.43945ZM327.63346,184.38768c0-2.95801-.52246-5.24023-1.56738-6.84668s-2.56348-2.41016-4.55566-2.41016c-2.65625,0-4.48242,1.01855-5.47852,3.05566v13.01855c1.03516,2.09668,2.88086,3.14453,5.53711,3.14453,4.04297,0,6.06445-3.32031,6.06445-9.96191Z"/>
    <path class="cls-5" d="M355.93424,201.17577c-4.64844,0-8.43262-1.42578-11.35254-4.27734s-4.37988-6.65039-4.37988-11.39648v-.82031c0-3.18359.61523-6.03027,1.8457-8.54004s2.97363-4.44336,5.22949-5.80078,4.8291-2.03613,7.71973-2.03613c4.33594,0,7.74902,1.36719,10.23926,4.10156s3.73535,6.61133,3.73535,11.63086v3.45703h-20.18555c.27344,2.07031,1.09863,3.73047,2.47559,4.98047s3.12012,1.875,5.22949,1.875c3.26172,0,5.81055-1.18164,7.64648-3.54492l4.16016,4.6582c-1.26953,1.79688-2.98828,3.19824-5.15625,4.2041s-4.57031,1.50879-7.20703,1.50879ZM354.96744,175.13084c-1.67969,0-3.04199.56934-4.08691,1.70703s-1.71387,2.7666-2.00684,4.88477h11.77734v-.67676c-.03906-1.88379-.54688-3.33984-1.52344-4.37012s-2.36328-1.54492-4.16016-1.54492Z"/>
    <path class="cls-5" d="M423.96158,200.58983h-8.78906l-17.10938-28.06641v28.06641h-8.78906v-42.65625h8.78906l17.13867,28.125v-28.125h8.75977v42.65625Z"/>
    <path class="cls-5" d="M450.0651,197.36717c-2.08984,2.53906-4.98047,3.80859-8.67188,3.80859-3.39844,0-5.99121-.97656-7.77832-2.92969s-2.7002-4.81445-2.73926-8.58398v-20.77148h8.4668v20.50195c0,3.30469,1.50391,4.95703,4.51172,4.95703,2.87109,0,4.84375-.99707,5.91797-2.99219v-22.4668h8.49609v31.69922h-7.96875l-.23438-3.22266Z"/>
    <path class="cls-5" d="M476.16861,187.87498l-3.04688,3.04688v9.66797h-8.4668v-45h8.4668v24.93164l1.64062-2.10938,8.11523-9.52148h10.16602l-11.45508,13.21289,12.45117,18.48633h-9.72656l-8.14453-12.71484Z"/>
    <path class="cls-5" d="M505.64127,200.58983h-8.49609v-45h8.49609v45Z"/>
    <path class="cls-5" d="M527.20377,201.17577c-4.64844,0-8.43262-1.42578-11.35254-4.27734s-4.37988-6.65039-4.37988-11.39648v-.82031c0-3.18359.61523-6.03027,1.8457-8.54004s2.97363-4.44336,5.22949-5.80078,4.8291-2.03613,7.71973-2.03613c4.33594,0,7.74902,1.36719,10.23926,4.10156s3.73535,6.61133,3.73535,11.63086v3.45703h-20.18555c.27344,2.07031,1.09863,3.73047,2.47559,4.98047s3.12012,1.875,5.22949,1.875c3.26172,0,5.81055-1.18164,7.64648-3.54492l4.16016,4.6582c-1.26953,1.79688-2.98828,3.19824-5.15625,4.2041s-4.57031,1.50879-7.20703,1.50879ZM526.23697,175.13084c-1.67969,0-3.04199.56934-4.08691,1.70703s-1.71387,2.7666-2.00684,4.88477h11.77734v-.67676c-.03906-1.88379-.54688-3.33984-1.52344-4.37012s-2.36328-1.54492-4.16016-1.54492Z"/>
    <path class="cls-5" d="M563.41471,200.58983c-.39062-.76172-.67383-1.70898-.84961-2.8418-2.05078,2.28516-4.7168,3.42773-7.99805,3.42773-3.10547,0-5.67871-.89844-7.71973-2.69531s-3.06152-4.0625-3.06152-6.79688c0-3.35938,1.24512-5.9375,3.73535-7.73438s6.08887-2.70508,10.7959-2.72461h3.89648v-1.81641c0-1.46484-.37598-2.63672-1.12793-3.51562s-1.93848-1.31836-3.55957-1.31836c-1.42578,0-2.54395.3418-3.35449,1.02539s-1.21582,1.62109-1.21582,2.8125h-8.4668c0-1.83594.56641-3.53516,1.69922-5.09766s2.73438-2.78809,4.80469-3.67676,4.39453-1.33301,6.97266-1.33301c3.90625,0,7.00684.98145,9.30176,2.94434s3.44238,4.72168,3.44238,8.27637v13.74023c.01953,3.00781.43945,5.2832,1.25977,6.82617v.49805h-8.55469ZM556.41275,194.70116c1.25,0,2.40234-.27832,3.45703-.83496s1.83594-1.30371,2.34375-2.24121v-5.44922h-3.16406c-4.23828,0-6.49414,1.46484-6.76758,4.39453l-.0293.49805c0,1.05469.37109,1.92383,1.11328,2.60742s1.75781,1.02539,3.04688,1.02539Z"/>
    <path class="cls-5" d="M595.02603,176.83006c-1.15234-.15625-2.16797-.23438-3.04688-.23438-3.20312,0-5.30273,1.08398-6.29883,3.25195v20.74219h-8.4668v-31.69922h7.99805l.23438,3.7793c1.69922-2.91016,4.05273-4.36523,7.06055-4.36523.9375,0,1.81641.12695,2.63672.38086l-.11719,8.14453Z"/>
    <path class="cls-5" d="M647.819,188.28514l5.74219-30.35156h8.75977l-9.46289,42.65625h-8.84766l-6.94336-28.53516-6.94336,28.53516h-8.84766l-9.46289-42.65625h8.75977l5.77148,30.29297,7.03125-30.29297h7.44141l7.00195,30.35156Z"/>
    <path class="cls-5" d="M681.10025,201.17577c-4.64844,0-8.43262-1.42578-11.35254-4.27734s-4.37988-6.65039-4.37988-11.39648v-.82031c0-3.18359.61523-6.03027,1.8457-8.54004s2.97363-4.44336,5.22949-5.80078,4.8291-2.03613,7.71973-2.03613c4.33594,0,7.74902,1.36719,10.23926,4.10156s3.73535,6.61133,3.73535,11.63086v3.45703h-20.18555c.27344,2.07031,1.09863,3.73047,2.47559,4.98047s3.12012,1.875,5.22949,1.875c3.26172,0,5.81055-1.18164,7.64648-3.54492l4.16016,4.6582c-1.26953,1.79688-2.98828,3.19824-5.15625,4.2041s-4.57031,1.50879-7.20703,1.50879ZM680.13346,175.13084c-1.67969,0-3.04199.56934-4.08691,1.70703s-1.71387,2.7666-2.00684,4.88477h11.77734v-.67676c-.03906-1.88379-.54688-3.33984-1.52344-4.37012s-2.36328-1.54492-4.16016-1.54492Z"/>
    <path class="cls-5" d="M717.31119,200.58983c-.39062-.76172-.67383-1.70898-.84961-2.8418-2.05078,2.28516-4.7168,3.42773-7.99805,3.42773-3.10547,0-5.67871-.89844-7.71973-2.69531s-3.06152-4.0625-3.06152-6.79688c0-3.35938,1.24512-5.9375,3.73535-7.73438s6.08887-2.70508,10.7959-2.72461h3.89648v-1.81641c0-1.46484-.37598-2.63672-1.12793-3.51562s-1.93848-1.31836-3.55957-1.31836c-1.42578,0-2.54395.3418-3.35449,1.02539s-1.21582,1.62109-1.21582,2.8125h-8.4668c0-1.83594.56641-3.53516,1.69922-5.09766s2.73438-2.78809,4.80469-3.67676,4.39453-1.33301,6.97266-1.33301c3.90625,0,7.00684.98145,9.30176,2.94434s3.44238,4.72168,3.44238,8.27637v13.74023c.01953,3.00781.43945,5.2832,1.25977,6.82617v.49805h-8.55469ZM710.30924,194.70116c1.25,0,2.40234-.27832,3.45703-.83496s1.83594-1.30371,2.34375-2.24121v-5.44922h-3.16406c-4.23828,0-6.49414,1.46484-6.76758,4.39453l-.0293.49805c0,1.05469.37109,1.92383,1.11328,2.60742s1.75781,1.02539,3.04688,1.02539Z"/>
    <path class="cls-5" d="M759.64517,185.03319c0,4.88281-1.1084,8.79395-3.3252,11.7334s-5.20996,4.40918-8.97949,4.40918c-3.20312,0-5.79102-1.11328-7.76367-3.33984v14.94141h-8.4668v-43.88672h7.85156l.29297,3.10547c2.05078-2.46094,4.72656-3.69141,8.02734-3.69141,3.90625,0,6.94336,1.44531,9.11133,4.33594s3.25195,6.875,3.25195,11.95312v.43945ZM751.17838,184.38768c0-2.95801-.52246-5.24023-1.56738-6.84668s-2.56348-2.41016-4.55566-2.41016c-2.65625,0-4.48242,1.01855-5.47852,3.05566v13.01855c1.03516,2.09668,2.88086,3.14453,5.53711,3.14453,4.04297,0,6.06445-3.32031,6.06445-9.96191Z"/>
    <path class="cls-5" d="M763.57096,184.44725c0-3.14453.60547-5.94727,1.81641-8.4082s2.9541-4.36523,5.22949-5.71289,4.91699-2.02148,7.9248-2.02148c4.27734,0,7.76855,1.30859,10.47363,3.92578s4.21387,6.17188,4.52637,10.66406l.05859,2.16797c0,4.86328-1.35742,8.76465-4.07227,11.7041s-6.35742,4.40918-10.92773,4.40918-8.21777-1.46484-10.94238-4.39453-4.08691-6.91406-4.08691-11.95312v-.38086ZM772.03775,185.04784c0,3.0127.56641,5.31641,1.69922,6.91016,1.13281,1.59473,2.75391,2.3916,4.86328,2.3916,2.05078,0,3.65234-.78711,4.80469-2.3623,1.15234-1.57422,1.72852-4.09277,1.72852-7.55469,0-2.9541-.57617-5.24316-1.72852-6.86621s-2.77344-2.43555-4.86328-2.43555c-2.07031,0-3.67188.80664-4.80469,2.4209s-1.69922,4.1123-1.69922,7.49609Z"/>
    <path class="cls-5" d="M806.60806,168.89061l.26367,3.66211c2.26562-2.83203,5.30273-4.24805,9.11133-4.24805,3.35938,0,5.85938.98633,7.5,2.95898s2.48047,4.92188,2.51953,8.84766v20.47852h-8.4668v-20.32031c0-1.80078-.39062-3.10742-1.17188-3.91992s-2.08008-1.21875-3.89648-1.21875c-2.38281,0-4.16992,1.01758-5.36133,3.05371v22.40527h-8.4668v-31.69922h7.96875Z"/>
  </g>
</svg>