<?xml version="1.0" encoding="UTF-8"?>
<svg id="Ebene_2" data-name="Ebene 2" xmlns="http://www.w3.org/2000/svg" viewBox="0 0 1920 1280">
  <defs>
    <style>
      .cls-1 {
        fill: #bb172b;
      }

      .cls-2 {
        stroke: #ffb923;
        stroke-width: 4.2111px;
      }

      .cls-2, .cls-3, .cls-4 {
        stroke-miterlimit: 10;
      }

      .cls-2, .cls-4 {
        fill: none;
      }

      .cls-5 {
        fill: #02405a;
      }

      .cls-3, .cls-4 {
        stroke: #90172f;
        stroke-width: 4.91005px;
      }

      .cls-3, .cls-6 {
        fill: #f3f5f7;
      }

      .cls-7 {
        fill: #ced9de;
      }

      .cls-8 {
        fill: #90172f;
      }

      .cls-9 {
        fill: #fff;
      }

      .cls-10 {
        fill: #6a8a99;
      }

      .cls-11 {
        fill: #8e2031;
      }

      .cls-12 {
        fill: #003950;
      }
    </style>
  </defs>
  <rect class="cls-6" x="1.50259" y=".00366" width="1918.49741" height="1280"/>
  <g>
    <path class="cls-5" d="M116.52393,204.54113h-8.78906v-42.65625h8.78906v42.65625Z"/>
    <path class="cls-5" d="M132.05127,172.84191l.26367,3.54492c2.24561-2.75391,5.2832-4.13086,9.11133-4.13086,4.08203,0,6.88477,1.61133,8.4082,4.83398,2.22607-3.22266,5.3999-4.83398,9.521-4.83398,3.4375,0,5.99609,1.00098,7.67578,3.00293s2.51953,5.01465,2.51953,9.03809v20.24414h-8.49609v-20.26172c0-1.80078-.35156-3.11719-1.05469-3.94922s-1.94336-1.24805-3.7207-1.24805c-2.53906,0-4.29688,1.21387-5.27344,3.64062l.0293,21.81836h-8.46631v-20.23242c0-1.83984-.36182-3.1709-1.08398-3.99316-.72266-.82227-1.95312-1.2334-3.69141-1.2334-2.40234,0-4.14111.99805-5.21484,2.99512v22.46387h-8.4668v-31.69922h7.93945Z"/>
    <path class="cls-5" d="M204.58984,188.98449c0,4.88281-1.1084,8.79395-3.3252,11.7334s-5.20996,4.40918-8.97949,4.40918c-3.20312,0-5.79102-1.11328-7.76367-3.33984v14.94141h-8.4668v-43.88672h7.85156l.29297,3.10547c2.05078-2.46094,4.72656-3.69141,8.02734-3.69141,3.90625,0,6.94336,1.44531,9.11133,4.33594s3.25195,6.875,3.25195,11.95312v.43945ZM196.12305,188.33898c0-2.95801-.52246-5.24023-1.56738-6.84668s-2.56348-2.41016-4.55566-2.41016c-2.65625,0-4.48242,1.01855-5.47852,3.05566v13.01855c1.03516,2.09668,2.88086,3.14453,5.53711,3.14453,4.04297,0,6.06445-3.32031,6.06445-9.96191Z"/>
    <path class="cls-5" d="M218.76953,204.54113h-8.49609v-45h8.49609v45Z"/>
    <path class="cls-5" d="M224.42383,188.39855c0-3.14453.60547-5.94727,1.81641-8.4082s2.9541-4.36523,5.22949-5.71289,4.91699-2.02148,7.9248-2.02148c4.27734,0,7.76855,1.30859,10.47363,3.92578s4.21387,6.17188,4.52637,10.66406l.05859,2.16797c0,4.86328-1.35742,8.76465-4.07227,11.7041s-6.35742,4.40918-10.92773,4.40918-8.21777-1.46484-10.94238-4.39453-4.08691-6.91406-4.08691-11.95312v-.38086ZM232.89062,188.99914c0,3.0127.56641,5.31641,1.69922,6.91016,1.13281,1.59473,2.75391,2.3916,4.86328,2.3916,2.05078,0,3.65234-.78711,4.80469-2.3623,1.15234-1.57422,1.72852-4.09277,1.72852-7.55469,0-2.9541-.57617-5.24316-1.72852-6.86621s-2.77344-2.43555-4.86328-2.43555c-2.07031,0-3.67188.80664-4.80469,2.4209s-1.69922,4.1123-1.69922,7.49609Z"/>
    <path class="cls-5" d="M276.83594,195.78137c0-1.03516-.5127-1.85059-1.53809-2.44629s-2.6709-1.12793-4.93652-1.59668c-7.53906-1.58203-11.30859-4.78516-11.30859-9.60938,0-2.8125,1.16699-5.16113,3.50098-7.0459s5.38574-2.82715,9.15527-2.82715c4.02344,0,7.24121.94727,9.65332,2.8418s3.61816,4.35547,3.61816,7.38281h-8.4668c0-1.21094-.39062-2.21191-1.17188-3.00293s-2.00195-1.18652-3.66211-1.18652c-1.42578,0-2.5293.32227-3.31055.9668s-1.17188,1.46484-1.17188,2.46094c0,.9375.44434,1.69434,1.33301,2.27051s2.3877,1.07422,4.49707,1.49414,3.88672.89355,5.33203,1.4209c4.47266,1.64062,6.70898,4.48242,6.70898,8.52539,0,2.89062-1.24023,5.22949-3.7207,7.0166s-5.68359,2.68066-9.60938,2.68066c-2.65625,0-5.01465-.47363-7.0752-1.4209s-3.67676-2.24609-4.84863-3.89648-1.75781-3.43262-1.75781-5.34668h8.02734c.07812,1.50391.63477,2.65625,1.66992,3.45703s2.42188,1.20117,4.16016,1.20117c1.62109,0,2.84668-.30762,3.67676-.92285s1.24512-1.4209,1.24512-2.41699Z"/>
    <path class="cls-5" d="M290.45898,164.63879c0-1.26953.4248-2.31445,1.27441-3.13477s2.00684-1.23047,3.47168-1.23047c1.44531,0,2.59766.41016,3.45703,1.23047s1.28906,1.86523,1.28906,3.13477c0,1.28906-.43457,2.34375-1.30371,3.16406s-2.0166,1.23047-3.44238,1.23047-2.57324-.41016-3.44238-1.23047-1.30371-1.875-1.30371-3.16406ZM299.45312,204.54113h-8.49609v-31.69922h8.49609v31.69922Z"/>
    <path class="cls-5" d="M305.10742,188.39855c0-3.14453.60547-5.94727,1.81641-8.4082s2.9541-4.36523,5.22949-5.71289,4.91699-2.02148,7.9248-2.02148c4.27734,0,7.76855,1.30859,10.47363,3.92578s4.21387,6.17188,4.52637,10.66406l.05859,2.16797c0,4.86328-1.35742,8.76465-4.07227,11.7041s-6.35742,4.40918-10.92773,4.40918-8.21777-1.46484-10.94238-4.39453-4.08691-6.91406-4.08691-11.95312v-.38086ZM313.57422,188.99914c0,3.0127.56641,5.31641,1.69922,6.91016,1.13281,1.59473,2.75391,2.3916,4.86328,2.3916,2.05078,0,3.65234-.78711,4.80469-2.3623,1.15234-1.57422,1.72852-4.09277,1.72852-7.55469,0-2.9541-.57617-5.24316-1.72852-6.86621s-2.77344-2.43555-4.86328-2.43555c-2.07031,0-3.67188.80664-4.80469,2.4209s-1.69922,4.1123-1.69922,7.49609Z"/>
    <path class="cls-5" d="M348.14453,172.84191l.26367,3.66211c2.26562-2.83203,5.30273-4.24805,9.11133-4.24805,3.35938,0,5.85938.98633,7.5,2.95898s2.48047,4.92188,2.51953,8.84766v20.47852h-8.4668v-20.32031c0-1.80078-.39062-3.10742-1.17188-3.91992s-2.08008-1.21875-3.89648-1.21875c-2.38281,0-4.16992,1.01758-5.36133,3.05371v22.40527h-8.4668v-31.69922h7.96875Z"/>
    <path class="cls-5" d="M390.41992,189.68762h-16.49414v-6.82617h16.49414v6.82617Z"/>
    <path class="cls-5" d="M429.88281,169.00402h-13.06641v35.53711h-8.78906v-35.53711h-12.89062v-7.11914h34.74609v7.11914Z"/>
    <path class="cls-5" d="M446.17188,192.55871l5.85938-19.7168h9.08203l-12.74414,36.62109-.70312,1.66992c-1.89453,4.14062-5.01953,6.21094-9.375,6.21094-1.23047,0-2.48047-.18555-3.75-.55664v-6.41602l1.28906.0293c1.60156,0,2.79785-.24414,3.58887-.73242s1.41113-1.29883,1.86035-2.43164l.99609-2.60742-11.10352-31.78711h9.11133l5.88867,19.7168Z"/>
    <path class="cls-5" d="M492.98828,188.98449c0,4.88281-1.1084,8.79395-3.3252,11.7334s-5.20996,4.40918-8.97949,4.40918c-3.20312,0-5.79102-1.11328-7.76367-3.33984v14.94141h-8.4668v-43.88672h7.85156l.29297,3.10547c2.05078-2.46094,4.72656-3.69141,8.02734-3.69141,3.90625,0,6.94336,1.44531,9.11133,4.33594s3.25195,6.875,3.25195,11.95312v.43945ZM484.52148,188.33898c0-2.95801-.52246-5.24023-1.56738-6.84668s-2.56348-2.41016-4.55566-2.41016c-2.65625,0-4.48242,1.01855-5.47852,3.05566v13.01855c1.03516,2.09668,2.88086,3.14453,5.53711,3.14453,4.04297,0,6.06445-3.32031,6.06445-9.96191Z"/>
    <path class="cls-5" d="M512.82227,205.12707c-4.64844,0-8.43262-1.42578-11.35254-4.27734s-4.37988-6.65039-4.37988-11.39648v-.82031c0-3.18359.61523-6.03027,1.8457-8.54004s2.97363-4.44336,5.22949-5.80078,4.8291-2.03613,7.71973-2.03613c4.33594,0,7.74902,1.36719,10.23926,4.10156s3.73535,6.61133,3.73535,11.63086v3.45703h-20.18555c.27344,2.07031,1.09863,3.73047,2.47559,4.98047s3.12012,1.875,5.22949,1.875c3.26172,0,5.81055-1.18164,7.64648-3.54492l4.16016,4.6582c-1.26953,1.79688-2.98828,3.19824-5.15625,4.2041s-4.57031,1.50879-7.20703,1.50879ZM511.85547,179.08215c-1.67969,0-3.04199.56934-4.08691,1.70703s-1.71387,2.7666-2.00684,4.88477h11.77734v-.67676c-.03906-1.88379-.54688-3.33984-1.52344-4.37012s-2.36328-1.54492-4.16016-1.54492Z"/>
    <path class="cls-5" d="M547.12891,189.68762h-16.49414v-6.82617h16.49414v6.82617Z"/>
    <path class="cls-5" d="M589.16992,204.54113h-8.78906l-17.10938-28.06641v28.06641h-8.78906v-42.65625h8.78906l17.13867,28.125v-28.125h8.75977v42.65625Z"/>
    <path class="cls-5" d="M615.27344,201.31848c-2.08984,2.53906-4.98047,3.80859-8.67188,3.80859-3.39844,0-5.99121-.97656-7.77832-2.92969s-2.7002-4.81445-2.73926-8.58398v-20.77148h8.4668v20.50195c0,3.30469,1.50391,4.95703,4.51172,4.95703,2.87109,0,4.84375-.99707,5.91797-2.99219v-22.4668h8.49609v31.69922h-7.96875l-.23438-3.22266Z"/>
    <path class="cls-5" d="M641.37695,191.82629l-3.04688,3.04688v9.66797h-8.4668v-45h8.4668v24.93164l1.64062-2.10938,8.11523-9.52148h10.16602l-11.45508,13.21289,12.45117,18.48633h-9.72656l-8.14453-12.71484Z"/>
    <path class="cls-5" d="M676.50391,205.12707c-4.64844,0-8.43262-1.42578-11.35254-4.27734s-4.37988-6.65039-4.37988-11.39648v-.82031c0-3.18359.61523-6.03027,1.8457-8.54004s2.97363-4.44336,5.22949-5.80078,4.8291-2.03613,7.71973-2.03613c4.33594,0,7.74902,1.36719,10.23926,4.10156s3.73535,6.61133,3.73535,11.63086v3.45703h-20.18555c.27344,2.07031,1.09863,3.73047,2.47559,4.98047s3.12012,1.875,5.22949,1.875c3.26172,0,5.81055-1.18164,7.64648-3.54492l4.16016,4.6582c-1.26953,1.79688-2.98828,3.19824-5.15625,4.2041s-4.57031,1.50879-7.20703,1.50879ZM675.53711,179.08215c-1.67969,0-3.04199.56934-4.08691,1.70703s-1.71387,2.7666-2.00684,4.88477h11.77734v-.67676c-.03906-1.88379-.54688-3.33984-1.52344-4.37012s-2.36328-1.54492-4.16016-1.54492Z"/>
  </g>
  <path class="cls-7" d="M105.07583,486.64097l1.19664,426.15164,229.23671-.13688,132.90397-100.15373s99.94874,99.0395,214.83981,100.29061c114.89107,1.25111,297.21259,1.03354,297.21259,1.03354,0,0,196.75079,8.53347,207.06776-198.63873,5.58824-112.21832-55.67139-170.20224-113.00035-199.78061-38.5084-19.86811-81.38831-29.75541-124.71986-29.62834l-265.33593.77813s-185.08912.7143-214.53083,99.04459l-134.43716-98.68894-230.43335-.27129Z"/>
  <path class="cls-9" d="M1046.40088,547.56807c-37.60977-16.37338-79.48911-24.5215-121.80934-24.41675l-217.12909.53743c-29.50359.07303-58.4768,6.5379-84.19398,18.73946-.81509.38672-1.6383.77877-2.46928,1.17609-135.09924,64.59501-150.89775,224.78302-29.04112,305.99458,22.94991,15.295,70.5588,25.41872,95.60552,25.64887,112.20933,1.03106,267.16662.66248,267.16662.66248,0,0,192.15832,7.03253,202.23448-163.70034,5.45783-92.48093-54.3727-140.26613-110.36381-164.64181Z"/>
  <g>
    <path class="cls-1" d="M807.30273,842.97961c-80.80859,0-146.55078-65.74219-146.55078-146.55078s65.74219-146.55176,146.55078-146.55176,146.55176,65.74316,146.55176,146.55176-65.74316,146.55078-146.55176,146.55078Z"/>
    <path class="cls-8" d="M807.30304,551.71887c38.65332,0,74.99316,15.05237,102.3252,42.3844,27.33209,27.33215,42.38452,63.672,42.38452,102.32532s-15.05243,74.99316-42.38452,102.3252-63.67188,42.38452-102.3252,42.38452-74.99323-15.05249-102.32532-42.38452c-27.33203-27.33203-42.38446-63.67188-42.38446-102.3252s15.05243-74.99316,42.38446-102.32532c27.33209-27.33203,63.67194-42.3844,102.32532-42.3844M807.30304,548.03625c-81.95483,0-148.39233,66.4375-148.39233,148.39233s66.4375,148.39233,148.39233,148.39233,148.39227-66.43762,148.39227-148.39233-66.4375-148.39233-148.39227-148.39233h0Z"/>
  </g>
  <circle class="cls-3" cx="807.30301" cy="695.5275" r="82.25906"/>
  <circle class="cls-10" cx="807.30301" cy="695.5275" r="46.96561"/>
  <circle class="cls-11" cx="807.30301" cy="695.5275" r="18.0366"/>
  <circle class="cls-11" cx="1034.61558" cy="584.06995" r="18.0366"/>
  <circle class="cls-11" cx="1034.61558" cy="631.51854" r="18.0366"/>
  <circle class="cls-11" cx="1034.61558" cy="678.96713" r="18.0366"/>
  <circle class="cls-11" cx="1034.61558" cy="726.41572" r="18.0366"/>
  <circle class="cls-11" cx="1034.61558" cy="773.86431" r="18.0366"/>
  <circle class="cls-11" cx="1034.61558" cy="821.3129" r="18.0366"/>
  <rect class="cls-7" x="1006.49963" y="524.82992" width="10.79618" height="354.92427"/>
  <g>
    <path class="cls-12" d="M209.49414,653.32433v19.5957c0,2.2207-.47363,4.14355-1.41895,5.76758-.94629,1.625-2.30371,2.86133-4.07129,3.71191-1.76855.84961-3.85938,1.27441-6.27148,1.27441-3.64648,0-6.51855-.94531-8.61621-2.83789-2.09668-1.8916-3.16602-4.48242-3.20703-7.77246v-19.73926h7.25781v19.88379c.08301,3.27637,1.60449,4.91406,4.56543,4.91406,1.49414,0,2.625-.41113,3.39258-1.2334s1.15137-2.15918,1.15137-4.00977v-19.55469h7.21777Z"/>
    <path class="cls-12" d="M227.13672,667.28625l-2.2832-.16504c-2.17871,0-3.57715.68555-4.19434,2.05664v14.08496h-6.92969v-22.24805h6.49805l.22656,2.8584c1.16406-2.17969,2.78906-3.26953,4.87305-3.26953.74023,0,1.38379.08203,1.93262.24609l-.12305,6.43652Z"/>
    <path class="cls-12" d="M241.5498,683.26281c-.24707-.45215-.46582-1.11719-.6582-1.99414-1.27441,1.60352-3.05664,2.40527-5.3457,2.40527-2.09766,0-3.87988-.63379-5.34668-1.90234-1.4668-1.26758-2.2002-2.86133-2.2002-4.78027,0-2.41211.8916-4.23535,2.67383-5.46973,1.78125-1.2334,4.37207-1.85059,7.77246-1.85059h2.1377v-1.17773c0-2.05176-.88379-3.07812-2.65234-3.07812-1.64453,0-2.4668.8125-2.4668,2.43848h-6.92969c0-2.14941.91504-3.89551,2.74512-5.2373s4.16406-2.0127,7.00098-2.0127c2.83789,0,5.0791.69238,6.72363,2.07617,1.64551,1.38477,2.48828,3.2832,2.5293,5.69629v9.84863c.02734,2.04297.34277,3.60547.94629,4.68848v.34961h-6.92969ZM237.21094,678.73937c.86426,0,1.58008-.18555,2.14941-.55566.56836-.37012.97656-.78809,1.22266-1.25391v-3.55762h-2.01465c-2.41309,0-3.61914,1.08301-3.61914,3.24902,0,.63086.21289,1.1416.6377,1.53223s.9668.58594,1.62402.58594Z"/>
    <path class="cls-12" d="M257.73145,661.01476l.22656,2.61133c1.53516-2.01465,3.65332-3.02246,6.35352-3.02246,2.31641,0,4.04785.69238,5.19238,2.07617,1.14453,1.38477,1.7373,3.46875,1.77832,6.25098v14.33203h-6.9502v-14.04395c0-1.12402-.22559-1.9502-.67871-2.47754-.45215-.52734-1.27441-.79199-2.4668-.79199-1.35742,0-2.36523.53516-3.02246,1.60449v15.70898h-6.92969v-22.24805h6.49707Z"/>
    <path class="cls-12" d="M275.06543,655.25695c0-.99219.35645-1.80664,1.06934-2.44043.71289-.63477,1.6377-.95215,2.77539-.95215s2.06348.31738,2.77637.95215c.71289.63379,1.06934,1.44824,1.06934,2.44043,0,.99316-.35645,1.80762-1.06934,2.44141-.71289.63477-1.63867.95215-2.77637.95215s-2.0625-.31738-2.77539-.95215c-.71289-.63379-1.06934-1.44824-1.06934-2.44141ZM282.42676,683.26281h-6.9502v-22.24805h6.9502v22.24805Z"/>
    <path class="cls-12" d="M299.94531,680.85754c-1.4668,1.87793-3.44727,2.81641-5.94238,2.81641-2.44043,0-4.28711-.70898-5.54102-2.12793-1.25488-1.41895-1.88184-3.45801-1.88184-6.11719v-14.41406h6.92969v14.45508c0,1.90527.9248,2.8584,2.77539,2.8584,1.58984,0,2.7207-.56934,3.39258-1.70703v-15.60645h6.9707v22.24805h-6.49707l-.20605-2.40527Z"/>
    <path class="cls-12" d="M316.99121,661.01476l.22656,2.61133c1.57617-2.01465,3.69336-3.02246,6.35352-3.02246,2.80957,0,4.70801,1.11719,5.69531,3.35156,1.50781-2.23438,3.6875-3.35156,6.53906-3.35156,4.50977,0,6.82617,2.72754,6.94922,8.18359v14.47559h-6.94922v-14.04395c0-1.1377-.19238-1.9668-.57617-2.48828-.38379-.52051-1.08301-.78125-2.09668-.78125-1.37109,0-2.39258.61035-3.06445,1.83008l.02051.28809v15.19531h-6.94922v-14.00293c0-1.16504-.18555-2.00781-.55566-2.5293-.37012-.52051-1.07617-.78125-2.11816-.78125-1.3291,0-2.34375.61035-3.04297,1.83008v15.4834h-6.92969v-22.24805h6.49805Z"/>
    <path class="cls-12" d="M377.97754,683.26281h-20.89062v-4.52344l9.62305-10.11719c2.37109-2.7002,3.55762-4.84473,3.55762-6.43555,0-1.28809-.28125-2.26855-.84375-2.94043-.56152-.6709-1.37695-1.00781-2.44629-1.00781-1.05566,0-1.91309.44922-2.57031,1.34766-.6582.89746-.9873,2.01855-.9873,3.36133h-6.9502c0-1.83691.45898-3.5332,1.37793-5.08887.91797-1.55566,2.19336-2.77246,3.82422-3.64941,1.63184-.87793,3.45508-1.31641,5.46973-1.31641,3.23535,0,5.72656.74707,7.47461,2.24121,1.74707,1.49414,2.62109,3.63965,2.62109,6.43555,0,1.17969-.21875,2.32715-.65723,3.44434-.43945,1.11719-1.12109,2.29004-2.0459,3.5166-.92578,1.22656-2.41602,2.86816-4.47266,4.9248l-3.86523,4.46191h11.78125v5.3457Z"/>
    <path class="cls-12" d="M387.80664,665.39465h3.26953c2.59082,0,3.88574-1.26758,3.88574-3.80469,0-.98633-.30762-1.79199-.9248-2.41602-.61719-.62305-1.4873-.93555-2.61133-.93555-.91895,0-1.7168.26758-2.39551.80273-.67871.53418-1.01758,1.19922-1.01758,1.99414h-6.92969c0-1.57617.43848-2.98145,1.31543-4.21484.87793-1.23438,2.09375-2.19727,3.65039-2.88965,1.55566-.69141,3.26562-1.03809,5.12988-1.03809,3.33105,0,5.94922.76074,7.85449,2.28223s2.8584,3.6123,2.8584,6.27148c0,1.28906-.39453,2.50586-1.18262,3.64941-.78809,1.14551-1.93555,2.07422-3.44336,2.78613,1.58984.57617,2.83691,1.4502,3.74219,2.62207.9043,1.17188,1.35645,2.62207,1.35645,4.34863,0,2.67383-1.02734,4.81152-3.08398,6.41602-2.05664,1.60352-4.75684,2.40527-8.10156,2.40527-1.95996,0-3.78027-.37402-5.45898-1.12012-1.67969-.74707-2.95117-1.78223-3.81445-3.10547-.86328-1.32227-1.29492-2.82715-1.29492-4.5127h6.96973c0,.91797.37012,1.71289,1.11035,2.38477s1.65234,1.00781,2.73535,1.00781c1.21973,0,2.19336-.33984,2.91992-1.01855.72656-.67773,1.08984-1.54492,1.08984-2.60059,0-1.50781-.37793-2.57715-1.13086-3.20801-.75488-.62988-1.7959-.94531-3.12598-.94531h-3.37207v-5.16113Z"/>
    <path class="cls-12" d="M406.27148,668.63879l1.83008-15.31445h17.49805v5.34668h-11.86426l-.67871,5.98828c.49414-.28906,1.1416-.54395,1.94336-.76465.80176-.21973,1.58691-.33008,2.35449-.33008,2.97461,0,5.26074.88086,6.85742,2.6416,1.59668,1.76172,2.39551,4.2334,2.39551,7.41309,0,1.91895-.42871,3.65723-1.28516,5.21289s-2.05957,2.75195-3.6084,3.58789c-1.5498.83594-3.37988,1.25391-5.49023,1.25391-1.87793,0-3.63965-.38672-5.28418-1.16113-1.64551-.77344-2.93359-1.83496-3.86621-3.18457-.93262-1.34863-1.3916-2.87207-1.37793-4.57031h6.9502c.06836,1.09375.41797,1.96289,1.04883,2.60547.63086.64355,1.45996.96484,2.48828.96484,2.33008,0,3.49512-1.72363,3.49512-5.1709,0-3.1875-1.42578-4.78125-4.27637-4.78125-1.61816,0-2.82422.51953-3.61914,1.55957l-5.51074-1.29688Z"/>
  </g>
  <g>
    <path class="cls-12" d="M601.05371,1002.33215v10.15723h-7.21777v-29.93848h11.94629c2.28906,0,4.31445.42188,6.07617,1.26465s3.12598,2.04297,4.0918,3.59863c.9668,1.55566,1.4502,3.32031,1.4502,5.29492,0,2.91895-1.0459,5.25293-3.13574,7.00098-2.09082,1.74805-4.95898,2.62207-8.60547,2.62207h-4.60547ZM601.05371,996.75988h4.72852c1.39844,0,2.46387-.34961,3.19727-1.04883s1.10059-1.68652,1.10059-2.96094c0-1.39844-.37695-2.51562-1.13086-3.35156s-1.78223-1.26172-3.08398-1.27539h-4.81152v8.63672Z"/>
    <path class="cls-12" d="M619.78516,1001.1593c0-2.2207.43164-4.19727,1.29492-5.93164.86426-1.73438,2.10449-3.06738,3.72168-3.99902,1.61816-.93262,3.5166-1.39844,5.69629-1.39844,3.33105,0,5.95605,1.03125,7.875,3.09473,1.91895,2.0625,2.87891,4.87012,2.87891,8.41992v.24707c0,3.46777-.96289,6.21973-2.88867,8.25488-1.92676,2.03613-4.53418,3.05371-7.82422,3.05371-3.16699,0-5.70996-.94922-7.62891-2.84766s-2.9541-4.47266-3.10449-7.7207l-.02051-1.17285ZM626.71484,1001.59191c0,2.05566.32129,3.56348.96582,4.52344.64453.95898,1.59668,1.43945,2.8584,1.43945,2.46777,0,3.72852-1.89844,3.7832-5.69629v-.69922c0-3.98828-1.27441-5.9834-3.82422-5.9834-2.31738,0-3.57129,1.7207-3.7627,5.16113l-.02051,1.25488Z"/>
    <path class="cls-12" d="M651.61523,1012.48937h-6.9502v-31.58301h6.9502v31.58301Z"/>
    <path class="cls-12" d="M655.00781,1001.1593c0-2.2207.43164-4.19727,1.29492-5.93164.86426-1.73438,2.10449-3.06738,3.72168-3.99902,1.61816-.93262,3.5166-1.39844,5.69629-1.39844,3.33105,0,5.95605,1.03125,7.875,3.09473,1.91895,2.0625,2.87891,4.87012,2.87891,8.41992v.24707c0,3.46777-.96289,6.21973-2.88867,8.25488-1.92676,2.03613-4.53418,3.05371-7.82422,3.05371-3.16699,0-5.70996-.94922-7.62891-2.84766s-2.9541-4.47266-3.10449-7.7207l-.02051-1.17285ZM661.9375,1001.59191c0,2.05566.32129,3.56348.96582,4.52344.64453.95898,1.59668,1.43945,2.8584,1.43945,2.46777,0,3.72852-1.89844,3.7832-5.69629v-.69922c0-3.98828-1.27441-5.9834-3.82422-5.9834-2.31738,0-3.57129,1.7207-3.7627,5.16113l-.02051,1.25488Z"/>
    <path class="cls-12" d="M685.8916,990.24133l.22656,2.61133c1.53516-2.01465,3.65332-3.02246,6.35352-3.02246,2.31641,0,4.04785.69238,5.19238,2.07617,1.14453,1.38477,1.7373,3.46875,1.77832,6.25098v14.33203h-6.9502v-14.04395c0-1.12402-.22559-1.9502-.67871-2.47754-.45215-.52734-1.27441-.79199-2.4668-.79199-1.35742,0-2.36523.53516-3.02246,1.60449v15.70898h-6.92969v-22.24805h6.49707Z"/>
    <path class="cls-12" d="M703.22559,984.48351c0-.99219.35645-1.80664,1.06934-2.44043.71289-.63477,1.6377-.95215,2.77539-.95215s2.06348.31738,2.77637.95215c.71289.63379,1.06934,1.44824,1.06934,2.44043,0,.99316-.35645,1.80762-1.06934,2.44141-.71289.63477-1.63867.95215-2.77637.95215s-2.0625-.31738-2.77539-.95215c-.71289-.63379-1.06934-1.44824-1.06934-2.44141ZM710.58691,1012.48937h-6.9502v-22.24805h6.9502v22.24805Z"/>
    <path class="cls-12" d="M728.10547,1010.0841c-1.4668,1.87793-3.44727,2.81641-5.94238,2.81641-2.44043,0-4.28711-.70898-5.54102-2.12793-1.25488-1.41895-1.88184-3.45801-1.88184-6.11719v-14.41406h6.92969v14.45508c0,1.90527.9248,2.8584,2.77539,2.8584,1.58984,0,2.7207-.56934,3.39258-1.70703v-15.60645h6.9707v22.24805h-6.49707l-.20605-2.40527Z"/>
    <path class="cls-12" d="M745.15137,990.24133l.22656,2.61133c1.57617-2.01465,3.69336-3.02246,6.35352-3.02246,2.80957,0,4.70801,1.11719,5.69531,3.35156,1.50781-2.23438,3.6875-3.35156,6.53906-3.35156,4.50977,0,6.82617,2.72754,6.94922,8.18359v14.47559h-6.94922v-14.04395c0-1.1377-.19238-1.9668-.57617-2.48828-.38379-.52051-1.08301-.78125-2.09668-.78125-1.37109,0-2.39258.61035-3.06445,1.83008l.02051.28809v15.19531h-6.94922v-14.00293c0-1.16504-.18555-2.00781-.55566-2.5293-.37012-.52051-1.07617-.78125-2.11816-.78125-1.3291,0-2.34375.61035-3.04297,1.83008v15.4834h-6.92969v-22.24805h6.49805Z"/>
    <path class="cls-12" d="M788.41406,1002.24914h-12.3584v-5.3457h12.3584v5.3457Z"/>
    <path class="cls-12" d="M794.12988,1012.48937v-29.93848h10.75391c3.85156,0,6.78223.70605,8.79004,2.11816,2.00879,1.41211,3.0127,3.46094,3.0127,6.14746,0,1.5498-.35645,2.87207-1.06934,3.96875s-1.76172,1.90527-3.14551,2.42676c1.5625.41113,2.76172,1.17871,3.59766,2.30273s1.25488,2.49512,1.25488,4.1123c0,2.93359-.92871,5.1377-2.78613,6.61035-1.8584,1.47461-4.60938,2.22461-8.25586,2.25195h-12.15234ZM801.34766,995.03234h3.7627c1.57617-.01367,2.7002-.30273,3.37207-.86621.6709-.56348,1.00781-1.39551,1.00781-2.49512,0-1.26562-.36426-2.17578-1.08984-2.73242-.72754-.55762-1.89941-.83594-3.5166-.83594h-3.53613v6.92969ZM801.34766,999.76183v7.17578h4.72852c1.30273,0,2.30371-.29785,3.00195-.89453.69922-.59668,1.04883-1.43555,1.04883-2.51855,0-2.49512-1.24023-3.74902-3.72168-3.7627h-5.05762Z"/>
    <path class="cls-12" d="M831.7373,1012.90051c-3.41309,0-6.17578-1.01758-8.28613-3.05371-2.11133-2.03516-3.16699-4.68457-3.16699-7.94727v-.5752c0-2.27539.42188-4.28418,1.26465-6.02441.84375-1.74121,2.07324-3.08789,3.69141-4.04102,1.61719-.95215,3.53613-1.42871,5.75684-1.42871,3.12598,0,5.59277.96973,7.40234,2.90918,1.80957,1.94043,2.71484,4.64355,2.71484,8.1123v2.69336h-13.77734c.24707,1.24707.78809,2.22754,1.625,2.94043.83594.71289,1.91895,1.06934,3.24902,1.06934,2.19238,0,3.90625-.76758,5.13965-2.30371l3.16699,3.74316c-.86328,1.19238-2.08691,2.1416-3.66992,2.84766-1.58398.70605-3.28711,1.05859-5.11035,1.05859ZM830.95605,995.1759c-2.02832,0-3.23535,1.34375-3.61914,4.03027h6.99121v-.53418c.02734-1.11035-.25391-1.9707-.84277-2.58105-.58984-.60938-1.43262-.91504-2.5293-.91504Z"/>
    <path class="cls-12" d="M857.3584,996.51281l-2.2832-.16504c-2.17871,0-3.57715.68555-4.19434,2.05664v14.08496h-6.92969v-22.24805h6.49805l.22656,2.8584c1.16406-2.17969,2.78906-3.26953,4.87305-3.26953.74023,0,1.38379.08203,1.93262.24609l-.12305,6.43652Z"/>
    <path class="cls-12" d="M869.11914,1002.7843l3.70117-12.54297h7.42285l-9.06738,25.96973-.39062.94629c-1.28906,2.87793-3.56445,4.31738-6.82715,4.31738-.9043,0-1.85742-.13672-2.85742-.40918v-4.93652h.9043c.97363,0,1.7168-.14062,2.23145-.42188.51367-.28125.89355-.78613,1.14062-1.5127l.55566-1.48145-7.73145-22.47168h7.40234l3.51562,12.54297Z"/>
    <path class="cls-12" d="M889.35254,1012.48937h-6.9502v-31.58301h6.9502v31.58301Z"/>
    <path class="cls-12" d="M900.92871,1012.48937h-6.9502v-31.58301h6.9502v31.58301Z"/>
    <path class="cls-12" d="M905.14355,984.48351c0-.99219.35645-1.80664,1.06934-2.44043.71289-.63477,1.6377-.95215,2.77539-.95215s2.06348.31738,2.77637.95215c.71289.63379,1.06934,1.44824,1.06934,2.44043,0,.99316-.35645,1.80762-1.06934,2.44141-.71289.63477-1.63867.95215-2.77637.95215s-2.0625-.31738-2.77539-.95215c-.71289-.63379-1.06934-1.44824-1.06934-2.44141ZM912.50488,1012.48937h-6.9502v-22.24805h6.9502v22.24805Z"/>
    <path class="cls-12" d="M930.02344,1010.0841c-1.4668,1.87793-3.44727,2.81641-5.94238,2.81641-2.44043,0-4.28711-.70898-5.54102-2.12793-1.25488-1.41895-1.88184-3.45801-1.88184-6.11719v-14.41406h6.92969v14.45508c0,1.90527.9248,2.8584,2.77539,2.8584,1.58984,0,2.7207-.56934,3.39258-1.70703v-15.60645h6.9707v22.24805h-6.49707l-.20605-2.40527Z"/>
    <path class="cls-12" d="M947.06934,990.24133l.22656,2.61133c1.57617-2.01465,3.69336-3.02246,6.35352-3.02246,2.80957,0,4.70801,1.11719,5.69531,3.35156,1.50781-2.23438,3.6875-3.35156,6.53906-3.35156,4.50977,0,6.82617,2.72754,6.94922,8.18359v14.47559h-6.94922v-14.04395c0-1.1377-.19238-1.9668-.57617-2.48828-.38379-.52051-1.08301-.78125-2.09668-.78125-1.37109,0-2.39258.61035-3.06445,1.83008l.02051.28809v15.19531h-6.94922v-14.00293c0-1.16504-.18555-2.00781-.55566-2.5293-.37012-.52051-1.07617-.78125-2.11816-.78125-1.3291,0-2.34375.61035-3.04297,1.83008v15.4834h-6.92969v-22.24805h6.49805Z"/>
    <path class="cls-12" d="M995.28711,1012.48937h-7.19727v-29.93848h7.19727v29.93848Z"/>
    <path class="cls-12" d="M1006.34863,990.24133l.22656,2.61133c1.53516-2.01465,3.65332-3.02246,6.35352-3.02246,2.31641,0,4.04785.69238,5.19238,2.07617,1.14453,1.38477,1.7373,3.46875,1.77832,6.25098v14.33203h-6.9502v-14.04395c0-1.12402-.22559-1.9502-.67871-2.47754-.45215-.52734-1.27441-.79199-2.4668-.79199-1.35742,0-2.36523.53516-3.02246,1.60449v15.70898h-6.92969v-22.24805h6.49707Z"/>
    <path class="cls-12" d="M1023.68262,984.48351c0-.99219.35645-1.80664,1.06934-2.44043.71289-.63477,1.6377-.95215,2.77539-.95215s2.06348.31738,2.77637.95215c.71289.63379,1.06934,1.44824,1.06934,2.44043,0,.99316-.35645,1.80762-1.06934,2.44141-.71289.63477-1.63867.95215-2.77637.95215s-2.0625-.31738-2.77539-.95215c-.71289-.63379-1.06934-1.44824-1.06934-2.44141ZM1031.04395,1012.48937h-6.9502v-22.24805h6.9502v22.24805Z"/>
    <path class="cls-12" d="M1043.38086,984.71008v5.53125h3.66016v4.81152h-3.66016v10.17773c0,.83691.15039,1.41895.45215,1.74805s.89746.49316,1.78906.49316c.68555,0,1.26074-.04102,1.72754-.12305v4.95605c-1.24805.39648-2.5498.5957-3.90723.5957-2.38477,0-4.14648-.56152-5.28418-1.68555s-1.70703-2.83105-1.70703-5.12012v-11.04199h-2.83691v-4.81152h2.83691v-5.53125h6.92969Z"/>
    <path class="cls-12" d="M1049.71387,984.48351c0-.99219.35645-1.80664,1.06934-2.44043.71289-.63477,1.6377-.95215,2.77539-.95215s2.06348.31738,2.77637.95215c.71289.63379,1.06934,1.44824,1.06934,2.44043,0,.99316-.35645,1.80762-1.06934,2.44141-.71289.63477-1.63867.95215-2.77637.95215s-2.0625-.31738-2.77539-.95215c-.71289-.63379-1.06934-1.44824-1.06934-2.44141ZM1057.0752,1012.48937h-6.9502v-22.24805h6.9502v22.24805Z"/>
    <path class="cls-12" d="M1073.87402,1012.48937c-.24707-.45215-.46582-1.11719-.6582-1.99414-1.27441,1.60352-3.05664,2.40527-5.3457,2.40527-2.09766,0-3.87988-.63379-5.34668-1.90234-1.4668-1.26758-2.2002-2.86133-2.2002-4.78027,0-2.41211.8916-4.23535,2.67383-5.46973,1.78125-1.2334,4.37207-1.85059,7.77246-1.85059h2.1377v-1.17773c0-2.05176-.88379-3.07812-2.65234-3.07812-1.64453,0-2.4668.8125-2.4668,2.43848h-6.92969c0-2.14941.91504-3.89551,2.74512-5.2373s4.16406-2.0127,7.00098-2.0127c2.83789,0,5.0791.69238,6.72363,2.07617,1.64551,1.38477,2.48828,3.2832,2.5293,5.69629v9.84863c.02734,2.04297.34277,3.60547.94629,4.68848v.34961h-6.92969ZM1069.53516,1007.96594c.86426,0,1.58008-.18555,2.14941-.55566.56836-.37012.97656-.78809,1.22266-1.25391v-3.55762h-2.01465c-2.41309,0-3.61914,1.08301-3.61914,3.24902,0,.63086.21289,1.1416.6377,1.53223s.9668.58594,1.62402.58594Z"/>
    <path class="cls-12" d="M1091.7627,984.71008v5.53125h3.66016v4.81152h-3.66016v10.17773c0,.83691.15039,1.41895.45215,1.74805s.89746.49316,1.78906.49316c.68555,0,1.26074-.04102,1.72754-.12305v4.95605c-1.24805.39648-2.5498.5957-3.90723.5957-2.38477,0-4.14648-.56152-5.28418-1.68555s-1.70703-2.83105-1.70703-5.12012v-11.04199h-2.83691v-4.81152h2.83691v-5.53125h6.92969Z"/>
    <path class="cls-12" d="M1096.65723,1001.1593c0-2.2207.43164-4.19727,1.29492-5.93164.86426-1.73438,2.10449-3.06738,3.72168-3.99902,1.61816-.93262,3.5166-1.39844,5.69629-1.39844,3.33105,0,5.95605,1.03125,7.875,3.09473,1.91895,2.0625,2.87891,4.87012,2.87891,8.41992v.24707c0,3.46777-.96289,6.21973-2.88867,8.25488-1.92676,2.03613-4.53418,3.05371-7.82422,3.05371-3.16699,0-5.70996-.94922-7.62891-2.84766s-2.9541-4.47266-3.10449-7.7207l-.02051-1.17285ZM1103.58691,1001.59191c0,2.05566.32129,3.56348.96582,4.52344.64453.95898,1.59668,1.43945,2.8584,1.43945,2.46777,0,3.72852-1.89844,3.7832-5.69629v-.69922c0-3.98828-1.27441-5.9834-3.82422-5.9834-2.31738,0-3.57129,1.7207-3.7627,5.16113l-.02051,1.25488Z"/>
    <path class="cls-12" d="M1134.63574,996.51281l-2.2832-.16504c-2.17871,0-3.57715.68555-4.19434,2.05664v14.08496h-6.92969v-22.24805h6.49805l.22656,2.8584c1.16406-2.17969,2.78906-3.26953,4.87305-3.26953.74023,0,1.38379.08203,1.93262.24609l-.12305,6.43652Z"/>
  </g>
  <g>
    <path class="cls-12" d="M617.84766,402.14465c-.09668,2.08301-.6582,3.92383-1.68652,5.52051s-2.4707,2.83398-4.32812,3.71191c-1.85742.87695-3.97852,1.31543-6.36426,1.31543-3.93457,0-7.03223-1.28125-9.29395-3.84473s-3.39258-6.18262-3.39258-10.85742v-1.48047c0-2.93262.51074-5.5,1.53125-7.7002,1.02148-2.2002,2.49121-3.89941,4.41113-5.09961,1.91895-1.19922,4.13965-1.79883,6.66211-1.79883,3.63184,0,6.55176.95605,8.75977,2.86816,2.20605,1.91211,3.46094,4.54785,3.7627,7.90625h-7.19727c-.05469-1.82324-.51367-3.13184-1.37695-3.92773-.86426-.79395-2.17969-1.19238-3.94824-1.19238-1.7959,0-3.1123.67188-3.94824,2.01562s-1.27441,3.48828-1.31543,6.43555v2.11816c0,3.19434.40039,5.47656,1.20215,6.84668.80273,1.37109,2.18359,2.05664,4.14355,2.05664,1.6582,0,2.92676-.39062,3.80371-1.17188.87793-.78125,1.34375-2.02246,1.39844-3.72168h7.17676Z"/>
    <path class="cls-12" d="M620.06836,400.95129c0-2.2207.43164-4.19727,1.29492-5.93164.86426-1.73438,2.10449-3.06738,3.72168-3.99902,1.61816-.93262,3.5166-1.39844,5.69629-1.39844,3.33105,0,5.95605,1.03125,7.875,3.09473,1.91895,2.0625,2.87891,4.87012,2.87891,8.41992v.24707c0,3.46777-.96289,6.21973-2.88867,8.25488-1.92676,2.03613-4.53418,3.05371-7.82422,3.05371-3.16699,0-5.70996-.94922-7.62891-2.84766s-2.9541-4.47266-3.10449-7.7207l-.02051-1.17285ZM626.99805,401.3839c0,2.05566.32129,3.56348.96582,4.52344.64453.95898,1.59668,1.43945,2.8584,1.43945,2.46777,0,3.72852-1.89844,3.7832-5.69629v-.69922c0-3.98828-1.27441-5.9834-3.82422-5.9834-2.31738,0-3.57129,1.7207-3.7627,5.16113l-.02051,1.25488Z"/>
    <path class="cls-12" d="M650.95215,390.03332l.22656,2.61133c1.53516-2.01465,3.65332-3.02246,6.35352-3.02246,2.31641,0,4.04785.69238,5.19238,2.07617,1.14453,1.38477,1.7373,3.46875,1.77832,6.25098v14.33203h-6.9502v-14.04395c0-1.12402-.22559-1.9502-.67871-2.47754-.45215-.52734-1.27441-.79199-2.4668-.79199-1.35742,0-2.36523.53516-3.02246,1.60449v15.70898h-6.92969v-22.24805h6.49707Z"/>
    <path class="cls-12" d="M677.20996,404.03625l3.5166-14.00293h7.29883l-7.25781,22.24805h-7.07324l-7.25879-22.24805h7.32031l3.4541,14.00293Z"/>
    <path class="cls-12" d="M700.58887,412.6925c-3.41309,0-6.17578-1.01758-8.28613-3.05371-2.11133-2.03516-3.16699-4.68457-3.16699-7.94727v-.5752c0-2.27539.42188-4.28418,1.26465-6.02441.84375-1.74121,2.07324-3.08789,3.69141-4.04102,1.61719-.95215,3.53613-1.42871,5.75684-1.42871,3.12598,0,5.59277.96973,7.40234,2.90918,1.80957,1.94043,2.71484,4.64355,2.71484,8.1123v2.69336h-13.77734c.24707,1.24707.78809,2.22754,1.625,2.94043.83594.71289,1.91895,1.06934,3.24902,1.06934,2.19238,0,3.90625-.76758,5.13965-2.30371l3.16699,3.74316c-.86328,1.19238-2.08691,2.1416-3.66992,2.84766-1.58398.70605-3.28711,1.05859-5.11035,1.05859ZM699.80762,394.96789c-2.02832,0-3.23535,1.34375-3.61914,4.03027h6.99121v-.53418c.02734-1.11035-.25391-1.9707-.84277-2.58105-.58984-.60938-1.43262-.91504-2.5293-.91504Z"/>
    <path class="cls-12" d="M719.11523,390.03332l.22656,2.61133c1.53516-2.01465,3.65332-3.02246,6.35352-3.02246,2.31641,0,4.04785.69238,5.19238,2.07617,1.14453,1.38477,1.7373,3.46875,1.77832,6.25098v14.33203h-6.9502v-14.04395c0-1.12402-.22559-1.9502-.67871-2.47754-.45215-.52734-1.27441-.79199-2.4668-.79199-1.35742,0-2.36523.53516-3.02246,1.60449v15.70898h-6.92969v-22.24805h6.49707Z"/>
    <path class="cls-12" d="M744.57129,384.50207v5.53125h3.66016v4.81152h-3.66016v10.17773c0,.83691.15039,1.41895.45215,1.74805s.89746.49316,1.78906.49316c.68555,0,1.26074-.04102,1.72754-.12305v4.95605c-1.24805.39648-2.5498.5957-3.90723.5957-2.38477,0-4.14648-.56152-5.28418-1.68555s-1.70703-2.83105-1.70703-5.12012v-11.04199h-2.83691v-4.81152h2.83691v-5.53125h6.92969Z"/>
    <path class="cls-12" d="M750.9043,384.27551c0-.99219.35645-1.80664,1.06934-2.44043.71289-.63477,1.6377-.95215,2.77539-.95215s2.06348.31738,2.77637.95215c.71289.63379,1.06934,1.44824,1.06934,2.44043,0,.99316-.35645,1.80762-1.06934,2.44141-.71289.63477-1.63867.95215-2.77637.95215s-2.0625-.31738-2.77539-.95215c-.71289-.63379-1.06934-1.44824-1.06934-2.44141ZM758.26562,412.28137h-6.9502v-22.24805h6.9502v22.24805Z"/>
    <path class="cls-12" d="M761.6582,400.95129c0-2.2207.43164-4.19727,1.29492-5.93164.86426-1.73438,2.10449-3.06738,3.72168-3.99902,1.61816-.93262,3.5166-1.39844,5.69629-1.39844,3.33105,0,5.95605,1.03125,7.875,3.09473,1.91895,2.0625,2.87891,4.87012,2.87891,8.41992v.24707c0,3.46777-.96289,6.21973-2.88867,8.25488-1.92676,2.03613-4.53418,3.05371-7.82422,3.05371-3.16699,0-5.70996-.94922-7.62891-2.84766s-2.9541-4.47266-3.10449-7.7207l-.02051-1.17285ZM768.58789,401.3839c0,2.05566.32129,3.56348.96582,4.52344.64453.95898,1.59668,1.43945,2.8584,1.43945,2.46777,0,3.72852-1.89844,3.7832-5.69629v-.69922c0-3.98828-1.27441-5.9834-3.82422-5.9834-2.31738,0-3.57129,1.7207-3.7627,5.16113l-.02051,1.25488Z"/>
    <path class="cls-12" d="M792.54199,390.03332l.22656,2.61133c1.53516-2.01465,3.65332-3.02246,6.35352-3.02246,2.31641,0,4.04785.69238,5.19238,2.07617,1.14453,1.38477,1.7373,3.46875,1.77832,6.25098v14.33203h-6.9502v-14.04395c0-1.12402-.22559-1.9502-.67871-2.47754-.45215-.52734-1.27441-.79199-2.4668-.79199-1.35742,0-2.36523.53516-3.02246,1.60449v15.70898h-6.92969v-22.24805h6.49707Z"/>
    <path class="cls-12" d="M822.45996,412.28137c-.24707-.45215-.46582-1.11719-.6582-1.99414-1.27441,1.60352-3.05664,2.40527-5.3457,2.40527-2.09766,0-3.87988-.63379-5.34668-1.90234-1.4668-1.26758-2.2002-2.86133-2.2002-4.78027,0-2.41211.8916-4.23535,2.67383-5.46973,1.78125-1.2334,4.37207-1.85059,7.77246-1.85059h2.1377v-1.17773c0-2.05176-.88379-3.07812-2.65234-3.07812-1.64453,0-2.4668.8125-2.4668,2.43848h-6.92969c0-2.14941.91504-3.89551,2.74512-5.2373s4.16406-2.0127,7.00098-2.0127c2.83789,0,5.0791.69238,6.72363,2.07617,1.64551,1.38477,2.48828,3.2832,2.5293,5.69629v9.84863c.02734,2.04297.34277,3.60547.94629,4.68848v.34961h-6.92969ZM818.12109,407.75793c.86426,0,1.58008-.18555,2.14941-.55566.56836-.37012.97656-.78809,1.22266-1.25391v-3.55762h-2.01465c-2.41309,0-3.61914,1.08301-3.61914,3.24902,0,.63086.21289,1.1416.6377,1.53223s.9668.58594,1.62402.58594Z"/>
    <path class="cls-12" d="M839.58789,412.28137h-6.9502v-31.58301h6.9502v31.58301Z"/>
    <path class="cls-12" d="M873.22656,399.57433h-11.34961v7.15527h13.40625v5.55176h-20.62402v-29.93848h20.66504v5.57227h-13.44727v6.3125h11.34961v5.34668Z"/>
    <path class="cls-12" d="M886.92188,396.16027l3.22754-6.12695h7.19727l-5.86035,10.83594,6.14844,11.41211h-7.23828l-3.49512-6.58008-3.43457,6.58008h-7.27832l6.16797-11.41211-5.83984-10.83594h7.2793l3.12598,6.12695Z"/>
    <path class="cls-12" d="M920.23242,401.3214c0,3.45508-.77832,6.21387-2.33398,8.27637-1.55566,2.06348-3.65625,3.09473-6.30176,3.09473-2.04297,0-3.72168-.74707-5.03809-2.24121v10.38379h-6.92969v-30.80176h6.47754l.20508,2.05566c1.33008-1.64453,3.07812-2.4668,5.24414-2.4668,2.74121,0,4.87305,1.01074,6.39453,3.0332,1.52148,2.02148,2.28223,4.80078,2.28223,8.33789v.32812ZM913.30273,400.88976c0-3.94727-1.15137-5.92188-3.4541-5.92188-1.64453,0-2.74219.58984-3.29004,1.76855v8.75977c.60352,1.2334,1.71387,1.85059,3.33105,1.85059,2.20703,0,3.34473-1.90527,3.41309-5.7168v-.74023Z"/>
    <path class="cls-12" d="M930.5957,412.28137h-6.9502v-31.58301h6.9502v31.58301Z"/>
    <path class="cls-12" d="M933.98828,400.95129c0-2.2207.43164-4.19727,1.29492-5.93164.86426-1.73438,2.10449-3.06738,3.72168-3.99902,1.61816-.93262,3.5166-1.39844,5.69629-1.39844,3.33105,0,5.95605,1.03125,7.875,3.09473,1.91895,2.0625,2.87891,4.87012,2.87891,8.41992v.24707c0,3.46777-.96289,6.21973-2.88867,8.25488-1.92676,2.03613-4.53418,3.05371-7.82422,3.05371-3.16699,0-5.70996-.94922-7.62891-2.84766s-2.9541-4.47266-3.10449-7.7207l-.02051-1.17285ZM940.91797,401.3839c0,2.05566.32129,3.56348.96582,4.52344.64453.95898,1.59668,1.43945,2.8584,1.43945,2.46777,0,3.72852-1.89844,3.7832-5.69629v-.69922c0-3.98828-1.27441-5.9834-3.82422-5.9834-2.31738,0-3.57129,1.7207-3.7627,5.16113l-.02051,1.25488Z"/>
    <path class="cls-12" d="M970.15723,406.03039c0-.58887-.30859-1.0625-.92578-1.41895-.61621-.35645-1.78906-.72656-3.51562-1.11035-1.72754-.38379-3.15332-.88672-4.27734-1.51074s-1.98047-1.38086-2.57031-2.27246c-.58887-.89062-.88379-1.91211-.88379-3.06348,0-2.04297.84277-3.72559,2.5293-5.04785,1.68555-1.32324,3.89258-1.98438,6.62109-1.98438,2.93262,0,5.29102.66504,7.07324,1.99414,1.78125,1.33008,2.67285,3.07812,2.67285,5.24316h-6.9502c0-1.78125-.93945-2.67285-2.81738-2.67285-.72656,0-1.33594.20215-1.8291.60645-.49414.4043-.74023.9082-.74023,1.51172,0,.61719.30078,1.11719.9043,1.50098s1.56543.69922,2.88867.94531c1.32324.24707,2.48438.54199,3.48535.88477,3.34473,1.15137,5.01758,3.21484,5.01758,6.18945,0,2.02832-.90137,3.68066-2.7041,4.95508s-4.13672,1.91211-7.00098,1.91211c-1.90625,0-3.60547-.34277-5.09961-1.02832-1.49414-.68457-2.66016-1.61719-3.49609-2.7959s-1.25391-2.41992-1.25391-3.72168h6.47656c.02734,1.02832.37012,1.77832,1.02832,2.25098.6582.47363,1.50098.70996,2.5293.70996.94629,0,1.65527-.19238,2.12793-.57617.47363-.38379.70996-.88379.70996-1.50098Z"/>
    <path class="cls-12" d="M980.02637,384.27551c0-.99219.35645-1.80664,1.06934-2.44043.71289-.63477,1.6377-.95215,2.77539-.95215s2.06348.31738,2.77637.95215c.71289.63379,1.06934,1.44824,1.06934,2.44043,0,.99316-.35645,1.80762-1.06934,2.44141-.71289.63477-1.63867.95215-2.77637.95215s-2.0625-.31738-2.77539-.95215c-.71289-.63379-1.06934-1.44824-1.06934-2.44141ZM987.3877,412.28137h-6.9502v-22.24805h6.9502v22.24805Z"/>
    <path class="cls-12" d="M1000.52637,404.03625l3.5166-14.00293h7.29883l-7.25781,22.24805h-7.07324l-7.25879-22.24805h7.32031l3.4541,14.00293Z"/>
    <path class="cls-12" d="M1023.90625,412.6925c-3.41309,0-6.17578-1.01758-8.28613-3.05371-2.11133-2.03516-3.16699-4.68457-3.16699-7.94727v-.5752c0-2.27539.42188-4.28418,1.26465-6.02441.84375-1.74121,2.07324-3.08789,3.69141-4.04102,1.61719-.95215,3.53613-1.42871,5.75684-1.42871,3.12598,0,5.59277.96973,7.40234,2.90918,1.80957,1.94043,2.71484,4.64355,2.71484,8.1123v2.69336h-13.77734c.24707,1.24707.78809,2.22754,1.625,2.94043.83594.71289,1.91895,1.06934,3.24902,1.06934,2.19238,0,3.90625-.76758,5.13965-2.30371l3.16699,3.74316c-.86328,1.19238-2.08691,2.1416-3.66992,2.84766-1.58398.70605-3.28711,1.05859-5.11035,1.05859ZM1023.125,394.96789c-2.02832,0-3.23535,1.34375-3.61914,4.03027h6.99121v-.53418c.02734-1.11035-.25391-1.9707-.84277-2.58105-.58984-.60938-1.43262-.91504-2.5293-.91504Z"/>
    <path class="cls-12" d="M1047.71777,406.03039c0-.58887-.30859-1.0625-.92578-1.41895-.61621-.35645-1.78906-.72656-3.51562-1.11035-1.72754-.38379-3.15332-.88672-4.27734-1.51074s-1.98047-1.38086-2.57031-2.27246c-.58887-.89062-.88379-1.91211-.88379-3.06348,0-2.04297.84277-3.72559,2.5293-5.04785,1.68555-1.32324,3.89258-1.98438,6.62109-1.98438,2.93262,0,5.29102.66504,7.07324,1.99414,1.78125,1.33008,2.67285,3.07812,2.67285,5.24316h-6.9502c0-1.78125-.93945-2.67285-2.81738-2.67285-.72656,0-1.33594.20215-1.8291.60645-.49414.4043-.74023.9082-.74023,1.51172,0,.61719.30078,1.11719.9043,1.50098s1.56543.69922,2.88867.94531c1.32324.24707,2.48438.54199,3.48535.88477,3.34473,1.15137,5.01758,3.21484,5.01758,6.18945,0,2.02832-.90137,3.68066-2.7041,4.95508s-4.13672,1.91211-7.00098,1.91211c-1.90625,0-3.60547-.34277-5.09961-1.02832-1.49414-.68457-2.66016-1.61719-3.49609-2.7959s-1.25391-2.41992-1.25391-3.72168h6.47656c.02734,1.02832.37012,1.77832,1.02832,2.25098.6582.47363,1.50098.70996,2.5293.70996.94629,0,1.65527-.19238,2.12793-.57617.47363-.38379.70996-.88379.70996-1.50098Z"/>
  </g>
  <g>
    <path class="cls-12" d="M1263.37012,694.03527h-7.17676v-12.50195h-10.62988v12.50195h-7.21777v-29.93848h7.21777v11.88477h10.62988v-11.88477h7.17676v29.93848Z"/>
    <path class="cls-12" d="M1266.74219,682.70519c0-2.2207.43164-4.19727,1.29492-5.93164.86426-1.73438,2.10449-3.06738,3.72168-3.99902,1.61816-.93262,3.5166-1.39844,5.69629-1.39844,3.33105,0,5.95605,1.03125,7.875,3.09473,1.91895,2.0625,2.87891,4.87012,2.87891,8.41992v.24707c0,3.46777-.96289,6.21973-2.88867,8.25488-1.92676,2.03613-4.53418,3.05371-7.82422,3.05371-3.16699,0-5.70996-.94922-7.62891-2.84766s-2.9541-4.47266-3.10449-7.7207l-.02051-1.17285ZM1273.67188,683.13781c0,2.05566.32129,3.56348.96582,4.52344.64453.95898,1.59668,1.43945,2.8584,1.43945,2.46777,0,3.72852-1.89844,3.7832-5.69629v-.69922c0-3.98828-1.27441-5.9834-3.82422-5.9834-2.31738,0-3.57129,1.7207-3.7627,5.16113l-.02051,1.25488Z"/>
    <path class="cls-12" d="M1298.57227,694.03527h-6.9502v-31.58301h6.9502v31.58301Z"/>
    <path class="cls-12" d="M1310.14844,694.03527h-6.9502v-31.58301h6.9502v31.58301Z"/>
    <path class="cls-12" d="M1313.54102,682.70519c0-2.2207.43164-4.19727,1.29492-5.93164.86426-1.73438,2.10449-3.06738,3.72168-3.99902,1.61816-.93262,3.5166-1.39844,5.69629-1.39844,3.33105,0,5.95605,1.03125,7.875,3.09473,1.91895,2.0625,2.87891,4.87012,2.87891,8.41992v.24707c0,3.46777-.96289,6.21973-2.88867,8.25488-1.92676,2.03613-4.53418,3.05371-7.82422,3.05371-3.16699,0-5.70996-.94922-7.62891-2.84766s-2.9541-4.47266-3.10449-7.7207l-.02051-1.17285ZM1320.4707,683.13781c0,2.05566.32129,3.56348.96582,4.52344.64453.95898,1.59668,1.43945,2.8584,1.43945,2.46777,0,3.72852-1.89844,3.7832-5.69629v-.69922c0-3.98828-1.27441-5.9834-3.82422-5.9834-2.31738,0-3.57129,1.7207-3.7627,5.16113l-.02051,1.25488Z"/>
    <path class="cls-12" d="M1357.27637,684.90539l2.24121-13.11816h6.6416l-5.24316,22.24805h-5.86035l-3.68066-13.20117-3.70117,13.20117h-5.86035l-5.24316-22.24805h6.6416l2.2002,13.42676,3.53711-13.42676h4.83203l3.49512,13.11816Z"/>
    <path class="cls-12" d="M1386.66016,683.87805v10.15723h-7.21777v-29.93848h11.94629c2.28906,0,4.31445.42188,6.07617,1.26465s3.12598,2.04297,4.0918,3.59863c.9668,1.55566,1.4502,3.32031,1.4502,5.29492,0,2.91895-1.0459,5.25293-3.13574,7.00098-2.09082,1.74805-4.95898,2.62207-8.60547,2.62207h-4.60547ZM1386.66016,678.30578h4.72852c1.39844,0,2.46387-.34961,3.19727-1.04883s1.10059-1.68652,1.10059-2.96094c0-1.39844-.37695-2.51562-1.13086-3.35156s-1.78223-1.26172-3.08398-1.27539h-4.81152v8.63672Z"/>
    <path class="cls-12" d="M1413.84277,694.03527h-6.9502v-31.58301h6.9502v31.58301Z"/>
    <path class="cls-12" d="M1431.36133,691.63c-1.4668,1.87793-3.44727,2.81641-5.94238,2.81641-2.44043,0-4.28711-.70898-5.54102-2.12793-1.25488-1.41895-1.88184-3.45801-1.88184-6.11719v-14.41406h6.92969v14.45508c0,1.90527.9248,2.8584,2.77539,2.8584,1.58984,0,2.7207-.56934,3.39258-1.70703v-15.60645h6.9707v22.24805h-6.49707l-.20605-2.40527Z"/>
    <path class="cls-12" d="M1449.92871,666.25598v5.53125h3.66016v4.81152h-3.66016v10.17773c0,.83691.15039,1.41895.45215,1.74805s.89746.49316,1.78906.49316c.68555,0,1.26074-.04102,1.72754-.12305v4.95605c-1.24805.39648-2.5498.5957-3.90723.5957-2.38477,0-4.14648-.56152-5.28418-1.68555s-1.70703-2.83105-1.70703-5.12012v-11.04199h-2.83691v-4.81152h2.83691v-5.53125h6.92969Z"/>
    <path class="cls-12" d="M1454.82227,682.70519c0-2.2207.43164-4.19727,1.29492-5.93164.86426-1.73438,2.10449-3.06738,3.72168-3.99902,1.61816-.93262,3.5166-1.39844,5.69629-1.39844,3.33105,0,5.95605,1.03125,7.875,3.09473,1.91895,2.0625,2.87891,4.87012,2.87891,8.41992v.24707c0,3.46777-.96289,6.21973-2.88867,8.25488-1.92676,2.03613-4.53418,3.05371-7.82422,3.05371-3.16699,0-5.70996-.94922-7.62891-2.84766s-2.9541-4.47266-3.10449-7.7207l-.02051-1.17285ZM1461.75195,683.13781c0,2.05566.32129,3.56348.96582,4.52344.64453.95898,1.59668,1.43945,2.8584,1.43945,2.46777,0,3.72852-1.89844,3.7832-5.69629v-.69922c0-3.98828-1.27441-5.9834-3.82422-5.9834-2.31738,0-3.57129,1.7207-3.7627,5.16113l-.02051,1.25488Z"/>
    <path class="cls-12" d="M1485.8916,671.78723l.22656,2.61133c1.57617-2.01465,3.69336-3.02246,6.35352-3.02246,2.80957,0,4.70801,1.11719,5.69531,3.35156,1.50781-2.23438,3.6875-3.35156,6.53906-3.35156,4.50977,0,6.82617,2.72754,6.94922,8.18359v14.47559h-6.94922v-14.04395c0-1.1377-.19238-1.9668-.57617-2.48828-.38379-.52051-1.08301-.78125-2.09668-.78125-1.37109,0-2.39258.61035-3.06445,1.83008l.02051.28809v15.19531h-6.94922v-14.00293c0-1.16504-.18555-2.00781-.55566-2.5293-.37012-.52051-1.07617-.78125-2.11816-.78125-1.3291,0-2.34375.61035-3.04297,1.83008v15.4834h-6.92969v-22.24805h6.49805Z"/>
    <path class="cls-12" d="M1515.5625,666.02941c0-.99219.35645-1.80664,1.06934-2.44043.71289-.63477,1.6377-.95215,2.77539-.95215s2.06348.31738,2.77637.95215c.71289.63379,1.06934,1.44824,1.06934,2.44043,0,.99316-.35645,1.80762-1.06934,2.44141-.71289.63477-1.63867.95215-2.77637.95215s-2.0625-.31738-2.77539-.95215c-.71289-.63379-1.06934-1.44824-1.06934-2.44141ZM1522.92383,694.03527h-6.9502v-22.24805h6.9502v22.24805Z"/>
    <path class="cls-12" d="M1540.44238,691.63c-1.4668,1.87793-3.44727,2.81641-5.94238,2.81641-2.44043,0-4.28711-.70898-5.54102-2.12793-1.25488-1.41895-1.88184-3.45801-1.88184-6.11719v-14.41406h6.92969v14.45508c0,1.90527.9248,2.8584,2.77539,2.8584,1.58984,0,2.7207-.56934,3.39258-1.70703v-15.60645h6.9707v22.24805h-6.49707l-.20605-2.40527Z"/>
    <path class="cls-12" d="M1557.48828,671.78723l.22656,2.61133c1.57617-2.01465,3.69336-3.02246,6.35352-3.02246,2.80957,0,4.70801,1.11719,5.69531,3.35156,1.50781-2.23438,3.6875-3.35156,6.53906-3.35156,4.50977,0,6.82617,2.72754,6.94922,8.18359v14.47559h-6.94922v-14.04395c0-1.1377-.19238-1.9668-.57617-2.48828-.38379-.52051-1.08301-.78125-2.09668-.78125-1.37109,0-2.39258.61035-3.06445,1.83008l.02051.28809v15.19531h-6.94922v-14.00293c0-1.16504-.18555-2.00781-.55566-2.5293-.37012-.52051-1.07617-.78125-2.11816-.78125-1.3291,0-2.34375.61035-3.04297,1.83008v15.4834h-6.92969v-22.24805h6.49805Z"/>
    <path class="cls-12" d="M1613.45801,686.07824c0-1.05566-.37402-1.87793-1.12109-2.46777s-2.05957-1.19922-3.9375-1.83008-3.41309-1.24023-4.60547-1.83008c-3.87988-1.90527-5.81934-4.52344-5.81934-7.85449,0-1.6582.4834-3.12207,1.44922-4.39062.9668-1.26758,2.33398-2.25391,4.10254-2.96094,1.76855-.70508,3.75586-1.05859,5.96289-1.05859,2.15234,0,4.08203.38379,5.78809,1.15137,1.70703.76758,3.0332,1.86133,3.97852,3.28027.94629,1.41797,1.41895,3.03906,1.41895,4.8623h-7.19629c0-1.21973-.37402-2.16602-1.12109-2.83789-.74707-.6709-1.75781-1.00684-3.03223-1.00684-1.28906,0-2.30664.28418-3.05371.85352-.74707.56836-1.12109,1.29199-1.12109,2.16895,0,.76758.41113,1.46289,1.23438,2.08691.82227.62402,2.26855,1.26855,4.33789,1.93262,2.07031.66504,3.76953,1.38184,5.09961,2.14941,3.23535,1.86426,4.85254,4.43457,4.85254,7.70996,0,2.61914-.98633,4.6748-2.96094,6.16895-1.97363,1.49414-4.68066,2.24121-8.12207,2.24121-2.42578,0-4.62305-.43457-6.58984-1.30566-1.9668-.87012-3.44727-2.0625-4.44141-3.57812-.99414-1.51367-1.49023-3.25879-1.49023-5.23242h7.2373c0,1.60352.41406,2.78613,1.24414,3.54688.8291.76074,2.17578,1.14062,4.04004,1.14062,1.19336,0,2.13574-.25684,2.82715-.77051.69238-.51465,1.03906-1.2373,1.03906-2.16895Z"/>
    <path class="cls-12" d="M1644.71191,683.07531c0,3.45508-.77832,6.21387-2.33398,8.27637-1.55566,2.06348-3.65625,3.09473-6.30176,3.09473-2.04297,0-3.72168-.74707-5.03809-2.24121v10.38379h-6.92969v-30.80176h6.47754l.20508,2.05566c1.33008-1.64453,3.07812-2.4668,5.24414-2.4668,2.74121,0,4.87305,1.01074,6.39453,3.0332,1.52148,2.02148,2.28223,4.80078,2.28223,8.33789v.32812ZM1637.78223,682.64367c0-3.94727-1.15137-5.92188-3.4541-5.92188-1.64453,0-2.74219.58984-3.29004,1.76855v8.75977c.60352,1.2334,1.71387,1.85059,3.33105,1.85059,2.20703,0,3.34473-1.90527,3.41309-5.7168v-.74023Z"/>
    <path class="cls-12" d="M1654.54102,674.17199c1.48047-1.86328,3.37207-2.7959,5.6748-2.7959,2.45312,0,4.30371.72656,5.55176,2.17969,1.24707,1.45312,1.88477,3.59766,1.91211,6.43555v14.04395h-6.9502v-13.87891c0-1.17969-.24023-2.04688-.71973-2.60156s-1.29492-.83301-2.44629-.83301c-1.42578,0-2.43359.45215-3.02246,1.35742v15.95605h-6.92969v-31.58301h6.92969v11.71973Z"/>
    <path class="cls-12" d="M1682.29883,694.4464c-3.41309,0-6.17578-1.01758-8.28613-3.05371-2.11133-2.03516-3.16699-4.68457-3.16699-7.94727v-.5752c0-2.27539.42188-4.28418,1.26465-6.02441.84375-1.74121,2.07324-3.08789,3.69141-4.04102,1.61719-.95215,3.53613-1.42871,5.75684-1.42871,3.12598,0,5.59277.96973,7.40234,2.90918,1.80957,1.94043,2.71484,4.64355,2.71484,8.1123v2.69336h-13.77734c.24707,1.24707.78809,2.22754,1.625,2.94043.83594.71289,1.91895,1.06934,3.24902,1.06934,2.19238,0,3.90625-.76758,5.13965-2.30371l3.16699,3.74316c-.86328,1.19238-2.08691,2.1416-3.66992,2.84766-1.58398.70605-3.28711,1.05859-5.11035,1.05859ZM1681.51758,676.7218c-2.02832,0-3.23535,1.34375-3.61914,4.03027h6.99121v-.53418c.02734-1.11035-.25391-1.9707-.84277-2.58105-.58984-.60938-1.43262-.91504-2.5293-.91504Z"/>
    <path class="cls-12" d="M1707.91992,678.05871l-2.2832-.16504c-2.17871,0-3.57715.68555-4.19434,2.05664v14.08496h-6.92969v-22.24805h6.49805l.22656,2.8584c1.16406-2.17969,2.78906-3.26953,4.87305-3.26953.74023,0,1.38379.08203,1.93262.24609l-.12305,6.43652Z"/>
    <path class="cls-12" d="M1720.79102,694.4464c-3.41309,0-6.17578-1.01758-8.28613-3.05371-2.11133-2.03516-3.16699-4.68457-3.16699-7.94727v-.5752c0-2.27539.42188-4.28418,1.26465-6.02441.84375-1.74121,2.07324-3.08789,3.69141-4.04102,1.61719-.95215,3.53613-1.42871,5.75684-1.42871,3.12598,0,5.59277.96973,7.40234,2.90918,1.80957,1.94043,2.71484,4.64355,2.71484,8.1123v2.69336h-13.77734c.24707,1.24707.78809,2.22754,1.625,2.94043.83594.71289,1.91895,1.06934,3.24902,1.06934,2.19238,0,3.90625-.76758,5.13965-2.30371l3.16699,3.74316c-.86328,1.19238-2.08691,2.1416-3.66992,2.84766-1.58398.70605-3.28711,1.05859-5.11035,1.05859ZM1720.00977,676.7218c-2.02832,0-3.23535,1.34375-3.61914,4.03027h6.99121v-.53418c.02734-1.11035-.25391-1.9707-.84277-2.58105-.58984-.60938-1.43262-.91504-2.5293-.91504Z"/>
  </g>
  <path class="cls-7" d="M1035.62636,882.30167v-360.6608s141.73337,48.08811,137.93694,188.556c-3.79643,140.46789-137.93694,172.1048-137.93694,172.1048Z"/>
  <g>
    <line class="cls-4" x1="854.27617" y1="627.72445" x2="889.80417" y2="576.27824"/>
    <line class="cls-4" x1="724.90826" y1="815.05533" x2="760.43625" y2="763.60911"/>
    <line class="cls-4" x1="688.15607" y1="611.88893" x2="739.60229" y2="647.41693"/>
    <line class="cls-4" x1="876.96977" y1="742.28087" x2="928.41599" y2="777.80886"/>
  </g>
  <g>
    <line class="cls-4" x1="792.76349" y1="615.10436" x2="781.50761" y2="553.60431"/>
    <line class="cls-4" x1="833.74949" y1="839.04422" x2="822.49361" y2="777.54416"/>
    <line class="cls-4" x1="664.10144" y1="721.37161" x2="725.60149" y2="710.11572"/>
    <line class="cls-4" x1="889.81391" y1="680.06118" x2="951.31396" y2="668.80529"/>
  </g>
  <line class="cls-2" x1="756.03608" y1="671.72737" x2="456.29175" y2="671.72737"/>
  <line class="cls-2" x1="842.84447" y1="606.42776" x2="842.84447" y2="423.29113"/>
  <line class="cls-2" x1="806.87356" y1="970.65534" x2="806.87356" y2="698.41901"/>
  <line class="cls-2" x1="838.21202" y1="685.95698" x2="1211.81032" y2="685.95698"/>
</svg>