<?xml version="1.0" encoding="UTF-8"?>
<svg id="Ebene_2" data-name="Ebene 2" xmlns="http://www.w3.org/2000/svg" viewBox="0 0 1920 718.67073">
  <defs>
    <style>
      .cls-1, .cls-2, .cls-3, .cls-4, .cls-5 {
        fill: none;
      }

      .cls-6 {
        opacity: .15;
      }

      .cls-6, .cls-7 {
        fill: #d0dde0;
      }

      .cls-8 {
        fill: #90172f;
      }

      .cls-2 {
        stroke: #90172f;
        stroke-width: 3.56769px;
      }

      .cls-2, .cls-3, .cls-9, .cls-10, .cls-11, .cls-4, .cls-5, .cls-12 {
        stroke-miterlimit: 10;
      }

      .cls-13, .cls-9, .cls-10, .cls-11 {
        fill: #0d435c;
      }

      .cls-14 {
        fill: #fff;
      }

      .cls-3 {
        stroke-width: .35677px;
      }

      .cls-3, .cls-9, .cls-10, .cls-11, .cls-12 {
        stroke: #fff;
      }

      .cls-15 {
        fill: #aebfc7;
      }

      .cls-16 {
        fill: #f3f5f7;
      }

      .cls-17 {
        fill: #0d425b;
      }

      .cls-9 {
        stroke-width: .97975px;
      }

      .cls-10 {
        stroke-width: .99542px;
      }

      .cls-11, .cls-4 {
        stroke-width: .90492px;
      }

      .cls-4, .cls-5 {
        stroke: #0d435c;
      }

      .cls-5 {
        stroke-width: 1.36812px;
      }

      .cls-12 {
        stroke-width: .93636px;
      }

      .cls-12, .cls-18 {
        fill: #7996a5;
      }

      .cls-19 {
        fill: #fac102;
      }
    </style>
  </defs>
  <rect class="cls-16" x="-7.56635" y="-10.68139" width="1938.7428" height="739.06058"/>
  <path class="cls-16" d="M1843.73521,717.24381c-116.54503-316.48672-473.50003-529.31176-890.67984-529.31176S176.98776,413.93169,69.6641,717.24381h1774.07112Z"/>
  <path class="cls-15" d="M1580.60327,718.25883c-120.40357-179.73815-354.45912-301.69704-623.53552-301.69704s-503.13238,121.95889-623.53595,301.69704h1247.07147Z"/>
  <path class="cls-8" d="M1830.92929,694.73825c2.93255,7.64643,8.07937,22.50556,8.07937,22.50556l4.77125.05944s-5.60567-16.23418-8.67916-24.26273l-4.17146,1.69773ZM69.88738,717.24381h4.15178c3.68994-11.65785,5.23956-13.67729,9.6767-25.09781l-4.15738-1.716M1800.4642,627.90189h-.00346c5.76159,10.83636,11.17607,21.80415,16.23997,32.89973l4.05475-1.96793c-5.10648-11.18322-10.56353-22.23131-16.36036-33.14801l-3.9309,2.2162ZM94.03493,656.35462l4.04406,1.98982c5.1135-11.07001,10.57758-22.01591,16.38162-32.82305l-3.92012-2.2381c-5.85006,10.88748-11.3531,21.91733-16.50556,33.07132M1762.43881,565.36284c6.94787,10.09151,13.57693,20.32909,19.89443,30.70543l3.79279-2.4535c-6.35662-10.45299-13.04242-20.76361-20.03265-30.92816l-3.65457,2.67624ZM128.94061,591.29268l3.78555,2.47178c6.35646-10.35076,13.03518-20.55915,20.01844-30.62515l-3.64391-2.68715c-7.03638,10.13535-13.75758,20.41673-20.16008,30.84052M1717.90108,507.51536c7.95356,9.28471,15.63089,18.72635,23.02141,28.31039l3.50576-2.86977c-7.43655-9.64972-15.16338-19.15348-23.16654-28.5002l-3.36062,3.05958ZM170.88265,530.80916l3.49871,2.88799c7.42591-9.55847,15.13512-18.96724,23.12053-28.22638l-3.34644-3.06688c-8.03853,9.31384-15.79732,18.78473-23.2728,28.40527M1667.86738,454.61512c8.79985,8.4486,17.35189,17.05781,25.64543,25.82034l3.20835-3.22755c-8.35017-8.80999-16.95182-17.47397-25.80127-25.97366l-3.05252,3.38087ZM218.7987,475.24728l3.19417,3.23852c8.32183-8.72972,16.90219-17.30968,25.73394-25.72903l-3.04187-3.39184c-8.88136,8.46682-17.5148,17.09792-25.88624,25.88235M1613.23005,406.74968c9.50467,7.60519,18.78618,15.37462,27.84107,23.3011l2.90025-3.51964c-9.10449-7.97027-18.43906-15.78354-27.99334-23.42884l-2.74798,3.64739ZM271.71141,424.75675l2.89317,3.53056c9.07966-7.89723,18.38595-15.63384,27.91177-23.20979l-2.7338-3.65474c-9.57897,7.61249-18.93837,15.39289-28.07115,23.33397M1554.77184,363.91543c10.08543,6.76179,19.97602,13.69878,29.66473,20.79283l2.59214-3.76427c-9.73475-7.13416-19.67494-14.1004-29.81344-20.89868l-2.44344,3.87012ZM328.79566,379.35211l2.58153,3.77519c9.71-7.0648,19.62182-13.9653,29.7249-20.69784l-2.43282-3.88109c-10.15263,6.76909-20.11405,13.70246-29.87361,20.80375M1493.15487,326.05024c10.55986,5.93665,20.95329,12.04484,31.16614,18.31738l2.29117-3.96867c-10.25889-6.30173-20.69835-12.44284-31.31484-18.40501l-2.14247,4.0563ZM389.32905,338.99326l2.28053,3.9797c10.23054-6.24702,20.63816-12.32234,31.21928-18.2298l-2.13534-4.05998c-10.62718,5.93298-21.08435,12.03754-31.36447,18.31008M1428.9316,293.06655c10.95291,5.12244,21.75711,10.42015,32.40202,15.88577l1.99722-4.13302c-10.6944-5.49119-21.54464-10.81079-32.55072-15.96243l-1.84852,4.20968ZM452.706,303.59985l1.98307,4.14032c10.66258-5.44005,21.47742-10.70489,32.44811-15.80181l-1.84144-4.20968c-11.01672,5.11882-21.88112,10.40917-32.58973,15.87117M1362.58348,264.87304h.00357c11.26814,4.33018,22.40876,8.83194,33.40781,13.50162l1.70684-4.26806c-11.04855-4.69531-22.23877-9.21529-33.55295-13.56006l-1.56527,4.3265ZM518.41311,273.06237l1.6962,4.27904c11.00964-4.64778,22.15734-9.12036,33.44315-13.41761l-1.55457-4.33385c-11.32834,4.3192-22.52564,8.81005-33.58478,13.47243M1294.52506,241.38576c11.52664,3.54516,22.9329,7.26926,34.21866,11.16127l1.42359-4.37759c-11.33536-3.91029-22.78765-7.64898-34.36033-11.20879l-1.28191,4.42511ZM586.00765,247.30047l1.41295,4.38494c11.29289-3.8665,22.70974-7.55773,34.23989-11.07731l-1.26776-4.42873c-11.57971,3.53056-23.04259,7.24001-34.38508,11.1211M1225.1281,222.51339c11.71782,2.78214,23.33297,5.73582,34.84546,8.86844l1.14024-4.4689c-11.55496-3.14354-23.21971-6.11186-34.98357-8.9013l-1.00212,4.50177ZM655.1072,226.21922l1.12965,4.46528c11.51951-3.09975,23.14174-6.02791,34.87026-8.77718l-.9951-4.50539c-11.77099,2.76019-23.43926,5.69933-35.0048,8.81729M1154.70415,208.18296c11.86295,2.02269,23.63751,4.22795,35.31999,6.60117l.86758-4.53102c-11.72852-2.38414-23.54554-4.59664-35.45453-6.63031l-.73303,4.56015ZM725.36824,209.72737l.85348,4.53096c11.69307-2.3476,23.46757-4.52366,35.33414-6.51711l-.72239-4.56021c-11.9091,2.00442-23.7332,4.18778-35.46523,6.54635M868.47552,194.83833h.00346-.00346ZM1083.56479,198.31418c11.95514,1.28514,23.83592,2.7456,35.64225,4.37759l.59492-4.57475c-11.84534-1.64297-23.77205-3.11072-35.77323-4.39592l-.46394,4.59308ZM796.47566,197.75557l.59141,4.57843c11.80281-1.61015,23.69068-3.04136,35.64933-4.30099l-.4533-4.59302c-12.00469,1.25962-23.93502,2.69813-35.78744,4.31558M1011.97575,192.84121c12.01177.55499,23.95631,1.28519,35.83353,2.19428l.33285-4.60762c-11.92326-.90914-23.91373-1.64664-35.96808-2.20158l-.19831,4.61492ZM868.15683,190.22703l.32215,4.61129c11.87722-.88352,23.82533-1.5882,35.8371-2.11395l-.19128-4.61859c-12.05424.52942-24.04482,1.23773-35.96797,2.12124M956.82499,186.9557h-.24078c-5.49239,0-10.97419.04017-16.4453.11683l.06019,4.61497c5.52784-.07304,11.06973-.10953,16.62588-.10953,6.438,0,12.86173.04747,19.2713.14969l.06733-4.61497c-6.36008-.10223-12.73777-.15699-19.12962-.15699h-.20901Z"/>
  <polygon class="cls-14" points="455.17094 595.76858 455.23087 595.53185 449.28226 594.13235 455.17094 595.76858"/>
  <polygon class="cls-14" points="1022.33114 400.77803 1022.37001 401.01778 1022.37001 400.77803 1022.37001 400.77204 1022.34907 400.75709 1022.33114 400.77803"/>
  <g>
    <path class="cls-8" d="M990.11805,315.43419h-5.03516v-19.43262l-6.00977,1.85547v-4.05859l10.50488-3.7627h.54004v25.39844Z"/>
    <path class="cls-8" d="M1015.42958,304.94688c0,3.50781-.72656,6.19043-2.17773,8.04883-1.45215,1.85742-3.57715,2.78711-6.37598,2.78711-2.76367,0-4.87793-.91211-6.34082-2.73535-1.46387-1.82324-2.21289-4.43652-2.24707-7.83887v-4.66895c0-3.54199.73438-6.23047,2.20312-8.06543,1.46973-1.83496,3.58594-2.75293,6.34961-2.75293,2.76465,0,4.87793.90918,6.3418,2.72656,1.46289,1.81738,2.21191,4.42773,2.24707,7.83105v4.66797ZM1010.39442,299.81407c0-2.10449-.28711-3.63574-.8623-4.59473-.57422-.95898-1.47168-1.43848-2.69141-1.43848-1.18457,0-2.05859.45605-2.62109,1.36816-.56348.91309-.8623,2.33984-.89746,4.28125v6.17285c0,2.06934.28125,3.60645.84473,4.6123s1.46582,1.50781,2.70898,1.50781c1.23047,0,2.11914-.48145,2.66504-1.44727.5459-.96387.83008-2.44043.85352-4.42871v-6.0332Z"/>
    <path class="cls-8" d="M1035.89833,304.94688c0,3.50781-.72656,6.19043-2.17773,8.04883-1.45215,1.85742-3.57715,2.78711-6.37598,2.78711-2.76367,0-4.87793-.91211-6.34082-2.73535-1.46387-1.82324-2.21289-4.43652-2.24707-7.83887v-4.66895c0-3.54199.73438-6.23047,2.20312-8.06543,1.46973-1.83496,3.58594-2.75293,6.34961-2.75293,2.76465,0,4.87793.90918,6.3418,2.72656,1.46289,1.81738,2.21191,4.42773,2.24707,7.83105v4.66797ZM1030.86317,299.81407c0-2.10449-.28711-3.63574-.8623-4.59473-.57422-.95898-1.47168-1.43848-2.69141-1.43848-1.18457,0-2.05859.45605-2.62109,1.36816-.56348.91309-.8623,2.33984-.89746,4.28125v6.17285c0,2.06934.28125,3.60645.84473,4.6123s1.46582,1.50781,2.70898,1.50781c1.23047,0,2.11914-.48145,2.66504-1.44727.5459-.96387.83008-2.44043.85352-4.42871v-6.0332Z"/>
    <path class="cls-8" d="M1055.23524,307.87364l-1.8125,1.81152v5.74902h-5.03418v-26.75781h5.03418v14.8252l.97559-1.25488,4.82617-5.66113h6.04492l-6.81152,7.85645,7.40332,10.99219h-5.7832l-4.84277-7.56055Z"/>
    <path class="cls-8" d="M1072.16786,296.58555l.15723,2.10742c1.33496-1.6377,3.1416-2.45605,5.41797-2.45605,2.42676,0,4.09375.95801,4.99902,2.87402,1.32422-1.91602,3.21094-2.87402,5.66211-2.87402,2.04395,0,3.56543.5957,4.56348,1.78516.99902,1.19141,1.49902,2.98242,1.49902,5.375v12.03711h-5.05273v-12.04785c0-1.07031-.20898-1.85352-.62695-2.34863-.41797-.49414-1.15527-.74219-2.21191-.74219-1.50977,0-2.55566.72266-3.13574,2.16504l.01758,12.97363h-5.03516v-12.03027c0-1.09473-.21484-1.88574-.64453-2.375-.42969-.48828-1.16113-.7334-2.19434-.7334-1.42871,0-2.46289.59375-3.10156,1.78125v13.35742h-5.03418v-18.84863h4.7207Z"/>
  </g>
  <line class="cls-2" x1="958.15127" y1="191.2736" x2="958.15127" y2="415.6317"/>
  <g>
    <rect class="cls-1" x="848.02352" y="139.83331" width="219.68277" height="34.93413"/>
    <path class="cls-8" d="M857.21083,154.75987l-2.44629,2.63379v6.52246h-4.70312v-22.82812h4.70312v10.34863l2.07031-2.83789,5.81641-7.51074h5.78516l-8.10547,10.14453,8.34082,12.68359h-5.59766l-5.86328-9.15625Z"/>
    <path class="cls-8" d="M883.33094,159.21299h-8.24707l-1.56738,4.70312h-5.00195l8.49805-22.82812h4.3584l8.54492,22.82812h-5.00098l-1.58398-4.70312ZM876.35438,155.40245h5.70703l-2.86914-8.54395-2.83789,8.54395ZM880.16395,134.97374h4.93848l-4.34277,4.86035h-3.68457l3.08887-4.86035Z"/>
    <path class="cls-8" d="M900.49891,155.55967h-3.74805v8.35645h-4.70312v-22.82812h8.48242c2.69629,0,4.77637.60156,6.23926,1.80371,1.46387,1.20215,2.19531,2.90039,2.19531,5.0957,0,1.55664-.33691,2.85547-1.01074,3.89551-.6748,1.04004-1.69629,1.86816-3.06543,2.48535l4.93848,9.32812v.21973h-5.04883l-4.2793-8.35645ZM896.75087,151.7501h3.79492c1.18066,0,2.0957-.30078,2.74316-.90234.64844-.60059.97266-1.42871.97266-2.48438,0-1.07617-.30566-1.92285-.91797-2.54004-.61133-.61621-1.54883-.9248-2.81348-.9248h-3.7793v6.85156Z"/>
    <path class="cls-8" d="M918.68544,141.08799l5.86328,16.55664,5.83203-16.55664h6.17773v22.82812h-4.71973v-6.24023l.4707-10.77051-6.16113,17.01074h-3.23047l-6.14551-16.99512.46973,10.75488v6.24023h-4.70312v-22.82812h6.14648Z"/>
    <path class="cls-8" d="M953.83583,159.21299h-8.24707l-1.56738,4.70312h-5.00195l8.49805-22.82812h4.3584l8.54492,22.82812h-5.00098l-1.58398-4.70312ZM946.85926,155.40245h5.70703l-2.86914-8.54395-2.83789,8.54395ZM950.66883,134.97374h4.93848l-4.34277,4.86035h-3.68457l3.08887-4.86035Z"/>
    <path class="cls-8" d="M981.1161,163.91612h-4.7041l-9.15625-15.01953v15.01953h-4.70312v-22.82812h4.70312l9.17188,15.05176v-15.05176h4.68848v22.82812Z"/>
    <path class="cls-8" d="M993.73719,155.9669h-8.82715v-3.65234h8.82715v3.65234Z"/>
    <path class="cls-8" d="M1002.37489,160.1378h9.9873v3.77832h-14.69043v-22.82812h4.70312v19.0498Z"/>
    <path class="cls-8" d="M1020.06141,163.91612h-4.7041v-22.82812h4.7041v22.82812Z"/>
    <path class="cls-8" d="M1042.98329,163.91612h-4.7041l-9.15625-15.01953v15.01953h-4.70312v-22.82812h4.70312l9.17188,15.05176v-15.05176h4.68848v22.82812Z"/>
    <path class="cls-8" d="M1060.82508,153.99131h-9.03125v6.14648h10.59863v3.77832h-15.30176v-22.82812h15.27051v3.81055h-10.56738v5.44043h9.03125v3.65234Z"/>
  </g>
  <g>
    <rect class="cls-1" x="404.69552" y="383.39394" width="433.92993" height="111.05827"/>
    <path class="cls-13" d="M419.62098,402.77305h-8.24707l-1.56738,4.70312h-5.00195l8.49805-22.82812h4.3584l8.54492,22.82812h-5.00098l-1.58398-4.70312ZM412.64442,398.96251h5.70703l-2.86914-8.54395-2.83789,8.54395Z"/>
    <path class="cls-13" d="M443.63954,388.4586h-6.99219v19.01758h-4.7041v-19.01758h-6.89844v-3.81055h18.59473v3.81055Z"/>
    <path class="cls-13" d="M464.8993,407.47618h-4.7041v-9.7832h-9.17188v9.7832h-4.70312v-22.82812h4.70312v9.25098h9.17188v-9.25098h4.7041v22.82812Z"/>
    <path class="cls-13" d="M475.15321,384.64805l5.86328,16.55664,5.83203-16.55664h6.17773v22.82812h-4.71973v-6.24023l.4707-10.77051-6.16113,17.01074h-3.23047l-6.14551-16.99512.46973,10.75488v6.24023h-4.70312v-22.82812h6.14648Z"/>
    <path class="cls-13" d="M515.88465,396.57969c0,2.24707-.39648,4.21777-1.19141,5.91113-.79395,1.69336-1.93066,3-3.41016,3.91895-1.47852.91992-3.1748,1.37988-5.08691,1.37988-1.89258,0-3.58008-.4541-5.06445-1.36426-1.48438-.90918-2.63379-2.20801-3.44922-3.89551-.81543-1.68848-1.22852-3.62988-1.23828-5.8252v-1.12793c0-2.24805.4043-4.22559,1.21484-5.93457.80957-1.70898,1.9541-3.02051,3.43359-3.93555,1.47852-.91406,3.16895-1.37207,5.07227-1.37207,1.90137,0,3.59277.45801,5.07129,1.37207,1.47949.91504,2.62402,2.22656,3.43359,3.93555.81055,1.70898,1.21484,3.68164,1.21484,5.91797v1.01953ZM511.11903,395.54454c0-2.39258-.42871-4.21191-1.28613-5.45605-.85645-1.24316-2.08008-1.86523-3.66797-1.86523-1.5791,0-2.79688.61426-3.65332,1.8418-.85742,1.22852-1.29102,3.0293-1.30176,5.40137v1.11328c0,2.33105.42871,4.13867,1.28613,5.4248.85645,1.28516,2.08984,1.92871,3.7002,1.92871,1.57812,0,2.79004-.62012,3.63672-1.8584s1.27539-3.04395,1.28613-5.41699v-1.11328Z"/>
    <path class="cls-13" d="M531.13954,401.48692c0-.8877-.31348-1.57031-.94043-2.0459s-1.75586-.97754-3.38672-1.50488c-1.62988-.52832-2.9209-1.04785-3.87207-1.56055-2.59277-1.40039-3.88867-3.28711-3.88867-5.65918,0-1.2334.34766-2.33398,1.04297-3.30078s1.69336-1.72168,2.99414-2.26562c1.30176-.54297,2.76172-.81543,4.38281-.81543,1.62988,0,3.08301.2959,4.3584.88574,1.27441.59082,2.26562,1.4248,2.9707,2.50098.70605,1.07715,1.05859,2.2998,1.05859,3.66895h-4.7041c0-1.04492-.3291-1.8584-.9873-2.43848s-1.58398-.87012-2.77539-.87012c-1.14941,0-2.04297.24316-2.68066.72949s-.95605,1.12598-.95605,1.9209c0,.74219.37305,1.36328,1.12109,1.86523.74707.50195,1.84668.97266,3.2998,1.41113,2.67578.80469,4.625,1.80273,5.84766,2.99512,1.22363,1.19141,1.83496,2.67578,1.83496,4.45215,0,1.97559-.74805,3.52539-2.24219,4.64844-1.49512,1.12402-3.50684,1.68555-6.03613,1.68555-1.75586,0-3.35547-.32129-4.79785-.96387-1.44238-.64355-2.54199-1.52344-3.2998-2.6416-.75781-1.11914-1.13672-2.41504-1.13672-3.88867h4.71875c0,2.51953,1.50488,3.77832,4.51562,3.77832,1.11816,0,1.99121-.22754,2.61816-.68164.62695-.45508.94043-1.08984.94043-1.90527Z"/>
    <path class="cls-13" d="M543.74501,399.43321v8.04297h-4.70312v-22.82812h8.90527c1.71387,0,3.22168.31445,4.52344.94141,1.30078.62695,2.30176,1.51855,3.00195,2.67285.7002,1.15527,1.05078,2.46973,1.05078,3.94336,0,2.23633-.76562,4-2.29688,5.29102s-3.65039,1.93652-6.35742,1.93652h-4.12402ZM543.74501,395.62364h4.20215c1.24414,0,2.19238-.29297,2.8457-.87793.65332-.58594.97949-1.42188.97949-2.50879,0-1.11816-.3291-2.02246-.9873-2.71289-.6582-.68945-1.56738-1.04492-2.72754-1.06543h-4.3125v7.16504Z"/>
    <path class="cls-13" d="M578.33192,407.47618h-4.7041v-9.7832h-9.17188v9.7832h-4.70312v-22.82812h4.70312v9.25098h9.17188v-9.25098h4.7041v22.82812Z"/>
    <path class="cls-13" d="M596.17372,397.55137h-9.03125v6.14648h10.59863v3.77832h-15.30176v-22.82812h15.27051v3.81055h-10.56738v5.44043h9.03125v3.65234Z"/>
    <path class="cls-13" d="M608.95204,399.11973h-3.74805v8.35645h-4.70312v-22.82812h8.48242c2.69629,0,4.77637.60156,6.23926,1.80371,1.46387,1.20215,2.19531,2.90039,2.19531,5.0957,0,1.55664-.33691,2.85547-1.01074,3.89551-.6748,1.04004-1.69629,1.86816-3.06543,2.48535l4.93848,9.32812v.21973h-5.04883l-4.2793-8.35645ZM605.20399,395.31016h3.79492c1.18066,0,2.0957-.30078,2.74316-.90234.64844-.60059.97266-1.42871.97266-2.48438,0-1.07617-.30566-1.92285-.91797-2.54004-.61133-.61621-1.54883-.9248-2.81348-.9248h-3.7793v6.85156Z"/>
    <path class="cls-13" d="M634.72645,397.55137h-9.03125v6.14648h10.59863v3.77832h-15.30176v-22.82812h15.27051v3.81055h-10.56738v5.44043h9.03125v3.65234Z"/>
  </g>
  <g>
    <rect class="cls-1" x="1305.79918" y="186.26011" width="361.98004" height="74.25227"/>
    <path class="cls-13" d="M1319.67372,204.35362c0-.8877-.31348-1.57031-.94043-2.0459s-1.75586-.97754-3.38672-1.50488c-1.62988-.52832-2.9209-1.04785-3.87207-1.56055-2.59277-1.40039-3.88867-3.28711-3.88867-5.65918,0-1.2334.34766-2.33398,1.04297-3.30078s1.69336-1.72168,2.99414-2.26562c1.30176-.54297,2.76172-.81543,4.38281-.81543,1.62988,0,3.08301.2959,4.3584.88574,1.27441.59082,2.26562,1.4248,2.9707,2.50098.70605,1.07715,1.05859,2.2998,1.05859,3.66895h-4.7041c0-1.04492-.3291-1.8584-.9873-2.43848s-1.58398-.87012-2.77539-.87012c-1.14941,0-2.04297.24316-2.68066.72949s-.95605,1.12598-.95605,1.9209c0,.74219.37305,1.36328,1.12109,1.86523.74707.50195,1.84668.97266,3.2998,1.41113,2.67578.80469,4.625,1.80273,5.84766,2.99512,1.22363,1.19141,1.83496,2.67578,1.83496,4.45215,0,1.97559-.74805,3.52539-2.24219,4.64844-1.49512,1.12402-3.50684,1.68555-6.03613,1.68555-1.75586,0-3.35547-.32129-4.79785-.96387-1.44238-.64355-2.54199-1.52344-3.2998-2.6416-.75781-1.11914-1.13672-2.41504-1.13672-3.88867h4.71875c0,2.51953,1.50488,3.77832,4.51562,3.77832,1.11816,0,1.99121-.22754,2.61816-.68164.62695-.45508.94043-1.08984.94043-1.90527Z"/>
    <path class="cls-13" d="M1332.27919,202.29991v8.04297h-4.70312v-22.82812h8.90527c1.71387,0,3.22168.31445,4.52344.94141,1.30078.62695,2.30176,1.51855,3.00195,2.67285.7002,1.15527,1.05078,2.46973,1.05078,3.94336,0,2.23633-.76562,4-2.29688,5.29102s-3.65039,1.93652-6.35742,1.93652h-4.12402ZM1332.27919,198.49034h4.20215c1.24414,0,2.19238-.29297,2.8457-.87793.65332-.58594.97949-1.42188.97949-2.50879,0-1.11816-.3291-2.02246-.9873-2.71289-.6582-.68945-1.56738-1.04492-2.72754-1.06543h-4.3125v7.16504Z"/>
    <path class="cls-13" d="M1358.38368,205.63975h-8.24707l-1.56738,4.70312h-5.00195l8.49805-22.82812h4.3584l8.54492,22.82812h-5.00098l-1.58398-4.70312ZM1351.40712,201.8292h5.70703l-2.86914-8.54395-2.83789,8.54395Z"/>
    <path class="cls-13" d="M1384.69227,202.73936c-.17871,2.45605-1.08496,4.38965-2.7207,5.80078s-3.79199,2.11621-6.4668,2.11621c-2.92676,0-5.22949-.98535-6.90723-2.95508-1.67676-1.9707-2.51562-4.6748-2.51562-8.11328v-1.39551c0-2.19531.38672-4.12891,1.16016-5.80176.77344-1.67188,1.87891-2.95508,3.31543-3.84863,1.4375-.89355,3.10742-1.34082,5.00977-1.34082,2.63379,0,4.75586.70605,6.36523,2.11719s2.54004,3.3916,2.79102,5.94141h-4.7041c-.11523-1.47363-.52539-2.54199-1.23047-3.20605-.70508-.66309-1.7793-.99512-3.22168-.99512-1.56836,0-2.74121.56152-3.52051,1.68555-.77832,1.12305-1.17773,2.86621-1.19922,5.22852v1.72461c0,2.4668.37402,4.26953,1.12109,5.40918.74707,1.13867,1.92578,1.70898,3.53613,1.70898,1.45215,0,2.53711-.33203,3.25293-.99609.71582-.66309,1.12598-1.69043,1.23047-3.08008h4.7041Z"/>
    <path class="cls-13" d="M1401.51454,200.41807h-9.03125v6.14648h10.59863v3.77832h-15.30176v-22.82812h15.27051v3.81055h-10.56738v5.44043h9.03125v3.65234Z"/>
  </g>
  <g>
    <g>
      <path class="cls-17" d="M551.97075,487.73013c.0713.0395,3.61877,5.82184,3.87758,5.6532,4.04858-2.63796,6.66255-1.08589,7.44264-.39079,0,0,4.0594-3.97006,5.08188-5.30764"/>
      <path class="cls-17" d="M551.40087,487.36161c1.22108,1.96875,2.4406,3.93801,3.66287,5.90409.15698.25511.34568.49223.56347.80234,1.1227-1.07118,2.51094-1.3343,3.91839-1.53772,1.12762-.16419,2.22092-.05108,3.23468.49067.41064.222.66575.1532,1.00907-.15442,5.15161-4.59518,8.71237-9.46961,13.38817-14.74573,1.31185-1.53736,1.87879-2.76326,5.91933-4.71908,2.94114-1.42374,4.8579-1.24384,6.61389-.90563,3.85542.74253,7.18427,4.02469,7.77963,6.57444.95294,3.89457-.73096,5.92401-2.00941,7.2388-1.27703,1.31388-4.65987,4.55091-4.65987,4.55091,0,0,43.18103,4.49214,46.32901,4.6287l-2.99158,2.49676c-5.92176.32523-55.99172,5.13061-57.81475,5.69646l-.20504.13733c-.92356,1.02038-1.84931,2.03964-2.92128,3.22763,6.61836.33135,13.04223.65253,19.61087.98111-.49474.90852-.84015,1.66972-1.30645,2.34629-.15584.22627-.61143.31289-.94056.33825-3.73131.28396-7.46654.55041-11.19968.80522-4.37009.29638-8.74606.51047-13.10709.90504-1.08752.09685-2.1267.7404-3.1858,1.14103-1.1673.43726-2.34279.85474-3.48976,1.34951-.5616.24059-1.0412.67211-1.59574.93467-.58664.27335-1.27623.72758-1.81822.6096-1.55255-.32908-3.0239.06005-4.53176.16676-.84064.06043-1.70752-.01297-2.54339-.14713-1.13024-.18174-1.79105-.91938-2.03311-2.03876-.08602-.40145.0199-1.03223-.27396-1.08487-11.31217-2.02657-13.74647-2.28191-18.13306-2.52885l.29463-4.47182c5.75495-.21389,15.62599.27848,20.0912.7573l.65806-.12705c-.4046-1.44406-.79118-2.82073-1.18288-4.20123l-.74958-2.47772c-.68177-2.11937-27.81429-9.49981-29.19717-10.37802l-.22187-3.46293c2.33639-.03577,23.30395,1.09114,25.27558,1.1078"/>
      <path class="cls-17" d="M548.53077,502.78219c-.38728-1.36702-2.56397-9.17045-2.92807-10.48871-.98079-3.56154-1.94805-7.12181-2.94922-10.67679-.19473-.6869-.08761-1.1636.548-1.52359.61803-.3506,1.19286-.77724,1.82964-1.08702.55006-.27064,1.00573-.04244,1.34278.46939.61784.95368,1.28736,1.87575,1.88707,2.83713,1.04969,1.68129,2.09539,3.36505,3.1399,5.04911"/>
    </g>
    <line class="cls-3" x1="542.87119" y1="482.93387" x2="548.15717" y2="502.34836"/>
  </g>
  <g>
    <path class="cls-13" d="M692.84671,446.33248s-12.71552-26.52772-12.71448-33.00676c.001-6.26758,4.37441-12.79991,20.04512-12.79991s18.88521,9.2417,18.88521,13.25983-12.76002,32.54685-12.76002,32.54685h-13.45582Z"/>
    <polygon class="cls-13" points="707.60607 459.57575 691.55046 459.57575 690.19311 449.3647 708.96341 449.3647 707.60607 459.57575"/>
    <line class="cls-5" x1="693.79701" y1="444.85983" x2="693.79701" y2="451.46698"/>
    <line class="cls-5" x1="705.35952" y1="443.65853" x2="705.35952" y2="451.16665"/>
  </g>
  <path class="cls-13" d="M647.11129,318.56049l17.34022-3.84498s6.05627-2.61583,10.35937-2.70217c4.30306-.08635,14.49817,2.65925,14.49817,2.65925l9.10562.70428.33574-1.81702s-3.19371-.455-5.88181-.70063c-2.6881-.24564-9.60401-1.06687-9.22572-2.01226s7.0728-1.25325,9.60608-1.25736c2.85098-.00466,11.29006.50131,15.74206,1.32182.91312.16828,2.10267.45505,3.21545.76514l-.06685-.73562.78247.17856.41049.88764c1.02342.31766,1.84333.62562,2.09234.82662.2072.16723-.50114.33006-1.49221.47098l.54319,1.1746-1.20678-.31267-.44091-.72432c-1.63617.18065-3.42869.30034-3.42869.30034l4.57983,2.83811,8.02138.62042,3.03456.23363c1.01121-.3051,2.99528-.94093,4.37576-1.62363,1.92171-.95031,6.32231-4.614,7.88112-5.47237,1.55881-.85837,3.13798-1.02682,2.04449-2.29436s-1.99257-4.20624-1.99257-4.20624l2.83127-.40849,10.06177,6.48652,4.63436,7.01218-3.66929-.4604-5.94821-3.35834-2.59501,5.68198,1.08163.08329s.9096.54183-.80783,2.90782c-1.71742,2.36595-.9687,2.9474-2.87493,3.04426-1.90623.09686-14.34289,1.24133-14.34289,1.24133,0,0,3.33,9.54631,4.91512,9.64413,1.2064.07445,2.4335.22457,3.57716.40826l-.333-1.12629,1.43862-.06231,1.16506,1.61912c1.77423.39281,2.99266.8084,2.95547,1.00114-.05126.26556-.56772.68975-1.50143,1.0195l1.41096,1.96086-2.23329.02528-1.4005-1.53183c-2.41573.26884-7.27514.55637-8.59224.60823-1.85507.07302-11.68646-.43005-14.40847-.80672-2.60344-.36026-7.94792-1.58017-7.31415-2.12692s4.47331-1.29665,6.6634-1.4103c1.95679-.10154,5.87942-.05428,5.87942-.05428l-12.74389-9.51024c-1.74194-.06619-14.66783-.55887-22.73346-.89972-6.79183-.28703-11.57004-1.16151-17.45723-2.4501-2.87335-.62892-17.37886-2.94522-17.61787-2.95918-7.80265-.45677-14.66211-.73129-14.66211-.73129l14.38878-.12527Z"/>
  <ellipse class="cls-12" cx="1639.66544" cy="156.52931" rx="32.73512" ry="5.32119"/>
  <ellipse class="cls-14" cx="1639.60812" cy="155.89894" rx="25.13495" ry="2.27816"/>
  <circle class="cls-19" cx="1444.37743" cy="135.3296" r="42.41177"/>
  <circle class="cls-8" cx="1514.68302" cy="200.76463" r="10.52142"/>
  <circle class="cls-18" cx="1638.34916" cy="155.76885" r="13.74146"/>
  <path class="cls-14" d="M1664.74307,155.89894c0,1.25819-11.2533,2.27816-25.13495,2.27816s-25.13495-1.01997-25.13495-2.27815c.20942.02545,10.11256,1.88596,24.78867,1.91555,19.56075.03944,25.48123-1.91555,25.48123-1.91555Z"/>
  <path class="cls-14" d="M1664.4189,159.41026c0,1.25819-11.2533,2.27816-25.13495,2.27816s-25.13495-1.01997-25.13495-2.27815c.20942.02545,10.11256,1.88596,24.78867,1.91555,19.56075.03944,25.48123-1.91555,25.48123-1.91555Z"/>
  <ellipse class="cls-6" cx="799.59931" cy="87.17788" rx="3.12016" ry="2.56402"/>
  <path class="cls-6" d="M776.6902,85.51856c-.00121.00309-.00783.00664-.00499.00835,1.48957.89898.41965,2.45143,1.89766,3.03251s3.02489.16552,3.45487-.92817c.28689-.72974-.00464-1.57233-.66367-2.22806.10537-.36212.16-.75853.14481-1.1758-.0325-.89424-.36985-1.67201-.86304-2.1818"/>
  <g>
    <path class="cls-13" d="M1544.5332,262.85033s3.98656,10.71982,7.17561,12.81293c6.25868,4.10784,28.58206,10.61206,70.51988,9.66966,41.93782-.9424,61.82669-6.18019,66.37307-9.07292,4.6655-2.96853,6.00287-14.50098,6.00287-14.50098"/>
    <path class="cls-13" d="M1624.82629,304.81828c9.90756-4.89812,17.47737-14.47171,19.03586-16.36416,1.55849-1.89245,5.9-8.68303,5.9-8.68303l-36.32994,4.30048-9.88518,5.61865,11.55242,18.24545s-.18073,1.78072,9.72683-3.1174Z"/>
    <path class="cls-13" d="M1602.33259,227.29961l49.1058-16.59781s3.45095-1.17415,5.3434,2.72208-2.56038,8.0151-2.56038,8.0151l-27.60757,12.24529,9.23963,11.57737-9.35095.77925-7.68114-8.79435-3.00566,1.22453-9.46227,4.72322s-9.61505.62018-10.17165-6.83831,6.1508-9.05636,6.1508-9.05636Z"/>
    <path class="cls-13" d="M1684.05539,252.94277l6.45661-5.9s-2.36178-3.9231-2.56038-5.56604c-.33103-2.73854,0-5.78868,3.33963-7.23585s35.51135-20.26039,35.51135-20.26039c0,0,6.34529-.89057,7.01321,2.22642.66793,3.11698-.33396,5.9-1.11321,7.34718s-30.05663,23.4887-30.05663,23.4887c0,0-2.38352,2.60615-4.27598,2.60615s-3.30079-.20258-3.30079-.20258l-6.89494,6.27945-4.11887-2.78302Z"/>
    <path class="cls-4" d="M1637.32331,215.9732s-2.40382-2.01585-1.70389-2.71578,6.29943-2.55563,7.11602-2.55563,3.03306,2.42565,3.03306,2.42565l-7.38004,2.84576h-1.06514Z"/>
    <path class="cls-4" d="M1716.65038,220.79528s-2.21646-2.44978-1.98315-2.79974,3.14971-2.40575,4.43293-2.89439,3.38302,2.84707,3.38302,2.84707l-5.8328,2.84707Z"/>
    <path class="cls-11" d="M1622.2287,297.62015c0,5.43894-3.93883,9.95793-9.11963,10.86009-.6186.10772-1.25491.16388-1.90434.16388-6.08837,0-11.02397-4.9356-11.02397-11.02397s4.9356-11.02397,11.02397-11.02397,11.02397,4.9356,11.02397,11.02397Z"/>
    <path class="cls-10" d="M1694.60464,262.5114c0,9.83749-32.80561,15.46415-74.2467,15.46415s-75.82474-5.62667-75.82474-15.46415,33.59464-17.81235,75.03572-17.81235,75.03572,7.97486,75.03572,17.81235Z"/>
    <path class="cls-9" d="M1614.214,249.54763c0-.29603.01756-.58797.0517-.87484.43426-3.64873,3.55075-6.47846,7.33079-6.47846,3.75928,0,6.86228,2.79873,7.32339,6.41841.039.30615.0591.61818.0591.93489"/>
  </g>
  <path class="cls-7" d="M500.53551,717.26671c1.95054-1.42825,3.60929-2.55437,4.8519-3.26393,10.2041-5.83474,14.58238-24.78942,14.58238-24.78942l-11.66349,4.37535s0-13.12593-1.45939-17.49823c-1.4595-4.3723,34.99341-37.90631,40.8251-43.74094,5.82875-5.8318,14.57933-11.66654,20.41407-11.66654,5.82875,0,17.49518-14.57933,16.03579-18.95163-1.45939-4.3723,1.45939-16.03873,5.82875-20.41701,4.37535-4.36936-2.91291-11.6575-2.91291-11.6575l-2.91585-14.58238s0-21.87053-8.75058-29.16161c-1.12078-.93504-2.00792-1.3516-2.81698-1.3516-5.49613,0-7.4201,19.27228-55.5034,26.14091-39.43898,3.85469-90.26925,55.41826-109.34947,74.35911-28.24595,28.03963-51.23671,56.5128-68.43629,82.25337-2.22284,3.32664-4.38525,6.64816-6.48659,9.95205h167.75696Z"/>
  <path class="cls-7" d="M924.38255,552.42494c-.64728,3.72796,6.58697,2.96081,11.88222,3.61712,5.29231.65925,5.93665,6.69476,11.8733,13.38658,3.05368,3.44924,2.96375,3.34439,2.38539,3.24553-.54548-.09592-1.52537-.19478-.71326,2.68209,1.6753,5.92772,5.68198,4.27943,16.39846,6.80266,10.71941,2.52334,7.74663,4.06069,16.5302,8.01044,8.77759,3.94974,28.54133,3.0747,21.56785,6.25435-6.97948,3.18249-.52751,14.7052,2.95177,17.99558,3.48527,3.29049,9.67963,12.4007,9.67963,12.4007,0,0-.92001,20.8486-2.47239,25.89518-1.55531,5.04658-1.33952,20.20731-4.1834,22.95233-2.84399,2.74513,23.87234,10.3599,17.66296,20.78567-3.58718,6.02658,22.69168.69224,49.89045,0,19.83572-.50639,55.0778,12.46962,55.0778,12.46962,0,0,42.82997,5.5411,39.49462-2.07978-7.27323-16.62906,37.41473-10.38984,59.23735-15.58623,21.61869-5.14848,39.88407,8.46293,60.2473,8.96638,39.62636.98294,69.82186,3.18553,67.58335,7.65974-1.50534,3.0122.2796,6.2046,3.75409,9.2291h65.37836c-7.45483-13.664-17.7407-32.04054-17.7407-32.04054,0,0,11.238-2.41544,13.69841-8.77759,2.4603-6.36519,3.23638-8.88548,18.48106-12.94911,15.24762-4.06058,29.32351.54842,41.19974,4.17153,11.88516,3.61712,75.56983,24.14508,75.56983,24.14508,0,0-16.62612-27.01901-34.29518-42.60829-14.20175-12.5295-25.22689-17.42321-35.02934-31.02559-9.81148-13.60837-9.16726-7.57297-18.98168-11.41481-9.81442-3.84185-35.7635-21.83754-43.51023-25.89507-7.74673-4.06069-47.38507-23.04237-56.55526-30.61512-9.16421-7.56992-51.00219-17.77097-61.20629-25.23593-10.19495-7.46202-43.65406-7.56992-60.05241-14.37258-16.39835-6.80266-12.65547-1.09683-17.69606.65925-5.04048,1.75913-33.71072-2.52029-51.91916-6.69171-18.21137-4.16859-41.33453-5.37332-47.91552-8.34012-2.69112-1.21072-6.69781-1.6692-11.62451-1.6692-7.13234,0-16.18865.96498-25.96715,2.00182-16.53619,1.75913-47.41207,6.25729-61.88949,17.56116-7.78571,6.08047-9.66156,5.17549-15.94281,4.27039-5.40021-.77619-14.05193-1.55836-32.50011,2.0948-39.92022,7.89949-28.55342,6.69476-54.65535,16.78791-26.09595,10.09925-5.04647,11.5226-5.69385,15.25666Z"/>
</svg>