<?xml version="1.0" encoding="UTF-8"?>
<svg id="Ebene_2" data-name="Ebene 2" xmlns="http://www.w3.org/2000/svg" xmlns:xlink="http://www.w3.org/1999/xlink" viewBox="0 0 1920 1280">
  <defs>
    <style>
      .cls-1 {
        fill: none;
      }

      .cls-2 {
        stroke-width: 22.45536px;
      }

      .cls-2, .cls-3, .cls-4, .cls-5 {
        fill: #fff;
      }

      .cls-2, .cls-4, .cls-5, .cls-6, .cls-7, .cls-8 {
        stroke-miterlimit: 10;
      }

      .cls-2, .cls-8 {
        stroke: #aebfc7;
      }

      .cls-9 {
        fill: #fc0;
      }

      .cls-10 {
        fill: #039;
      }

      .cls-11 {
        fill: #90172e;
      }

      .cls-12 {
        fill: #ced9de;
      }

      .cls-13, .cls-14 {
        fill: #90172f;
      }

      .cls-15, .cls-6, .cls-7 {
        fill: #0d435c;
      }

      .cls-16 {
        clip-path: url(#clippath-1);
      }

      .cls-17, .cls-8 {
        fill: #aebfc7;
      }

      .cls-18 {
        fill: #f3f5f7;
      }

      .cls-19 {
        fill: #0c425b;
      }

      .cls-20 {
        fill: #0d425b;
      }

      .cls-21 {
        fill: #426b7e;
      }

      .cls-4 {
        stroke-width: 7.31724px;
      }

      .cls-4, .cls-5 {
        stroke: #fff;
      }

      .cls-5 {
        stroke-width: 7px;
      }

      .cls-6 {
        stroke-width: 15.77317px;
      }

      .cls-6, .cls-7 {
        stroke: #0d435c;
      }

      .cls-14 {
        opacity: .83;
      }

      .cls-7 {
        stroke-width: 6.37754px;
      }

      .cls-8 {
        stroke-width: 7.17631px;
      }

      .cls-22 {
        clip-path: url(#clippath);
      }
    </style>
    <clipPath id="clippath">
      <rect class="cls-1" x="1218.08272" y="932.42683" width="207.36302" height="295.86"/>
    </clipPath>
    <clipPath id="clippath-1">
      <rect class="cls-1" x="478.24807" y="932.42683" width="207.36302" height="295.86"/>
    </clipPath>
  </defs>
  <rect class="cls-18" x=".7513" y="1.37284" width="1918.49741" height="1276.44746"/>
  <path class="cls-17" d="M1411.8442,877.64956c.63822-25.36373,1.01299-99.91855-1.62781-122.53938-5.7851-49.58907-17.46132-94.10109-95.71815-94.10109-75.86351,0-89.58696,51.01968-93.31228,89.40052-1.0666,11.00565-1.51128,90.46671-1.53638,124.88738l20.84064-.04802c-.13079-37.56514.3209-111.44757,1.42523-122.8297,4.86371-50.13407,25.89088-70.58568,72.58279-70.58568,61.74745,0,69.53872,28.59605,75.03706,75.69141,2.06703,17.73561,2.10827,90.75225,1.57941,120.07974l20.72949.04482Z"/>
  <path class="cls-5" d="M1242.38999,874.13389c-.13079-37.56514.3209-111.44757,1.42523-122.8297,4.86371-50.13407,25.89088-70.58568,72.58279-70.58568,61.74745,0,69.53872,28.59605,75.03706,75.69141,2.06703,17.73561,2.10827,90.75225,1.57941,120.07974l-150.62449-2.35577Z"/>
  <path class="cls-4" d="M499.06009,879.96041c-.13672-39.26758-4.28907-122.43161-3.13469-134.32957,5.08413-52.40612,27.06424-73.78459,75.87221-73.78459,64.54582,0,72.69018,29.89201,78.4377,79.12171,2.16071,18.53938,2.20381,94.8651,1.65098,125.52169l-152.82621,3.47075Z"/>
  <path class="cls-17" d="M669.8224,900.78492h-191.15842l-.23126-10.17382c-.7153-31.40348-.63457-126.72364,1.11509-144.78553,3.72532-38.38084,17.44877-89.40231,93.31228-89.40231,78.25683,0,89.93296,44.51381,95.71815,94.10289,2.64071,22.62083,2.13702,114.74632,1.49873,140.10826l-.25457,10.15051ZM499.06009,879.96041h150.41647c.52886-29.32749.48763-109.28384-1.57941-127.02124-5.49834-47.09537-13.28961-75.69141-75.03706-75.69141-46.692,0-67.71908,20.45162-72.58279,70.58747-1.38041,14.22542-1.74255,98.13118-1.21721,132.12518Z"/>
  <polygon class="cls-20" points="1267.80271 875.32622 1159.88669 875.32622 334.09177 875.32622 334.09177 924.40972 511.0947 924.40972 1159.88669 924.40972 1267.80271 924.40972 1546.10276 924.40972 1598.57639 924.40972 1598.57639 875.32622 1267.80271 875.32622"/>
  <circle class="cls-3" cx="947.52299" cy="899.86797" r="222.14316"/>
  <path class="cls-3" d="M1647.73181,473.05113l-33.88342-66.28436c16.0647-24.492,25.40869-53.73761,25.40869-85.15637,0-86.22894-70.32104-156.13123-157.06665-156.13123s-157.06689,69.90228-157.06689,156.13123,70.32129,156.13123,157.06689,156.13123c13.22168,0,26.05835-1.63232,38.32617-4.69049h127.21521Z"/>
  <path class="cls-3" d="M220.59074,382.00773l33.88342-66.28436c-16.0647-24.492-25.40869-53.73761-25.40869-85.15637,0-86.22894,70.32104-156.13123,157.06665-156.13123,86.74561,0,157.06689,69.90228,157.06689,156.13123s-70.32129,156.13123-157.06689,156.13123c-13.22168,0-26.05835-1.63232-38.32617-4.69049h-127.21521Z"/>
  <circle class="cls-3" cx="176.81354" cy="599.78243" r="82.30587"/>
  <circle class="cls-3" cx="574.56396" cy="542.47547" r="82.30587"/>
  <circle class="cls-3" cx="1750.97918" cy="604.42025" r="82.30587"/>
  <g>
    <path class="cls-3" d="M1561.50781,1235.42344c-19.31055,0-40.21973-7.17871-40.49805-22.94043-.1748-10.06934-.69434-23.37012-1.2959-38.77051l-.0293-.74219c-2.30371-58.83887-5.78613-147.7334,4.44336-189.24707l.14941-.60547.37891-.49609c9.5957-12.57715,81.62793-13.21387,95.9707-13.21387,17.17383,0,34.7041.55762,52.10645,1.65723l8.71582.55078-.63477-8.71094c-.07617-1.05469-7.58984-105.96191-1.75488-156.00586,5.95312-51.02148,12.77832-79.89355,83.75977-79.99023h.19043c22.99414,0,39.86035,5.89648,51.56152,18.02539,11.5918,12.0166,18.46387,30.59961,21.00879,56.80859,3.43262,35.35059-1.45508,151.27539-1.66406,156.19238l-.02734.63574.06445.58398c.43262,3.88965,9.76465,95.39453-61.31738,104.87305-30.18457,4.02441-64.39844,6.06445-101.69141,6.06445-34.44629,0-58.61523-1.79785-58.84375-1.81641l-8.02441-.6123-.15918,8.05762c-.0166.81348-1.72168,87.81934-1.71777,137.78418,0,14.00391-20.60742,21.74414-39.99707,21.91797h-.69434Z"/>
    <path class="cls-3" d="M1763.00964,729.90904c43.86597,0,64.67834,21.58014,69.58374,72.12341,3.47388,35.77008-1.62537,154.61536-1.67664,155.81116l-.03467.83008.0896.81177c.41858,3.77191,9.42883,92.48035-58.73254,101.56915-35.63391,4.75043-72.1582,6.03796-101.2926,6.03796-34.16455,0-58.16443-1.77167-58.60852-1.80725l-11.19873-.85376-.22119,11.2298c-.01831.87213-1.72241,87.59686-1.71875,137.84387,0,11.63928-18.82483,18.75525-37.02429,18.91797h-.66736c-18.57251,0-37.26562-6.80884-37.4978-19.99304-.1792-10.2627-.71313-23.84735-1.32739-39.57678-2.29834-58.69403-5.77039-147.30566,4.35876-188.41266,5.67847-7.4425,44.86646-12.03314,93.58557-12.03314,16.521,0,34.13977.52802,51.91724,1.65167l12.14771.76794-.88501-12.14032c-.07678-1.04761-7.59497-105.4635-1.76794-155.43988,5.922-50.75531,12.20605-77.24469,80.7843-77.33795h.18652M1763.00964,723.90904h-.18652c-34.75415.04724-55.87329,6.77533-68.48572,21.81531-12.01025,14.32202-15.25903,35.12268-18.25818,60.82721-5.91125,50.6991,1.66638,155.52142,1.74365,156.57428l.38489,5.27948-5.28516-.33411c-17.4646-1.10394-35.05945-1.66364-52.29578-1.66364-24.56165,0-46.5813,1.13147-63.67847,3.27209-25.66663,3.21362-32.0144,7.63159-34.67725,11.12152l-.75708.99225-.29858,1.21173c-10.32996,41.92224-6.83948,131.06274-4.52979,190.04889l.02869.73206c.60156,15.40167,1.12109,28.703,1.29639,38.74866.14856,8.42847,5.57764,15.62012,15.28735,20.25146,7.62097,3.63501,17.63928,5.63696,28.20959,5.63696h.69421l.02673-.00024c21.35364-.19092,42.9707-8.81128,42.9707-24.91772-.00366-49.80151,1.7002-136.89789,1.71741-137.71796l.09631-4.8905,4.8689.37122c.2041.01642,24.31042,1.82458,59.06458,1.82458,37.42358,0,71.77014-2.04913,102.08545-6.09058,30.60144-4.08051,51.3822-23.86298,60.09595-57.20886,6.45593-24.70551,4.09741-48.35419,3.80713-50.96942l-.03918-.35547.01562-.37463c.21069-4.91132,5.12842-120.86359,1.65381-156.64117-5.20471-53.62799-28.50696-77.5434-75.55566-77.5434h0Z"/>
  </g>
  <g>
    <path class="cls-3" d="M369.75755,1231.5222c-19.41699-.17383-40.02441-7.91406-40.02441-21.91797.00391-49.96484-1.70117-136.9707-1.71777-137.78027l-.15918-8.06152-8.0332.61328c-.21973.01758-24.38867,1.81543-58.83496,1.81543-37.29297,0-71.50684-2.04004-101.69141-6.06445-29.29492-3.90625-49.20898-22.92285-57.58984-54.99316-6.32129-24.18848-4.01172-47.32227-3.72754-49.88086l.06445-.58301-.02539-.60059c-.21094-4.95215-5.09863-120.87695-1.66602-156.22754,2.54492-26.20898,9.41699-44.79199,21.00879-56.80859,11.70117-12.12891,28.56738-18.02539,51.56152-18.02539h.18652c70.98535.09668,77.81055,28.96875,83.76367,79.99023,5.89648,50.56641-1.67773,154.95996-1.75488,156.00879l-.63477,8.70801,8.71582-.55078c17.40234-1.09961,34.93262-1.65723,52.10645-1.65723,14.34277,0,86.375.63672,95.9707,13.21387l.37891.49609.14941.60547c10.22949,41.51367,6.74707,130.4082,4.44336,189.23047l-.0293.75879c-.60156,15.40039-1.12109,28.70117-1.2959,38.76953-.27832,15.7627-21.1875,22.94141-40.49805,22.94141h-.66699Z"/>
    <path class="cls-3" d="M169.1093,726.0078c68.57816.09326,74.86224,26.58264,80.78433,77.33795,5.827,49.97638-1.69125,154.39227-1.76801,155.43988l-.8851,12.14032,12.1478-.76794c17.7818-1.12396,35.39276-1.65167,51.91727-1.65167,48.71353,0,87.9075,4.59125,93.58557,12.03314,10.12906,41.10699,6.65707,129.71863,4.35876,188.41266-.61432,15.72943-1.14822,29.31409-1.32739,39.57678-.23215,13.1842-18.92538,19.99304-37.49783,19.99304h-.66739c-18.19946-.16272-37.02432-7.27869-37.02432-18.91797.00369-50.24701-1.70038-136.97174-1.7186-137.84387l-.22122-11.2298-11.19879.85376c-.44412.03564-24.43781,1.80725-58.60858,1.80725-29.13251,0-65.66342-1.28821-101.29256-6.03796-68.16132-9.08881-59.15115-97.79724-58.73247-101.56915l.08961-.81177-.03477-.83008c-.05115-1.1958-5.15045-120.04108-1.67661-155.81116,4.90538-50.54327,25.71776-72.12341,69.58377-72.12341h.18652M169.11745,720.0078h-.19467c-47.04869,0-70.35092,23.91541-75.55569,77.54376-3.46608,35.68958,1.44292,151.71484,1.65353,156.63654l.01591.3797-.03954.35803c-.28984,2.61133-2.64915,26.25812,3.80746,50.96606,8.71378,33.34589,29.49454,53.12836,60.09578,57.20886,30.31544,4.04144,64.66191,6.09058,102.08553,6.09058,34.75055,0,58.86047-1.80817,59.08823-1.82648l4.84537-.36932.09619,4.88275c.01736.83075,1.72113,87.35626,1.71744,137.72522,0,16.10693,21.617,24.72729,42.9707,24.91821l.02676.00024h.69424c10.57031,0,20.58862-2.00195,28.20963-5.63696,9.70975-4.63135,15.13892-11.82312,15.28729-20.25049.17538-10.04663.69492-23.34796,1.29645-38.74963l.02731-.69861c2.311-59.0188,5.80154-148.15985-4.52844-190.08234l-.29861-1.21173-.75708-.99225c-2.66254-3.48969-9.01056-7.90747-34.67917-11.12128-17.09845-2.14081-39.11746-3.27234-63.67645-3.27234-17.237,0-34.83185.55969-52.29584,1.66364l-5.2851.33411.38507-5.28223c.07703-1.05096,7.65002-105.91266,1.74347-156.57098-1.64746-14.11975-3.1637-24.78143-5.6286-34.29352-2.93546-11.32831-6.9487-19.7597-12.6297-26.53424-12.6124-15.03998-33.73163-21.76807-68.47748-21.81531h0Z"/>
  </g>
  <g>
    <g>
      <path class="cls-10" d="M674.9072,123.56789l45.68536,354.54871s-7.22457-46.92783,132.23163-43.49858c59.43387,1.46149,186.34448,17.88433,255.90019,34.39689,113.7243,26.9982,212.76409,44.47588,212.76409,44.47588,0,0-13.717-56.0111-17.14625-190.89496-2.42876-95.53119,30.86326-195.4673,30.86326-195.4673,0,0-68.8341,2.60602-177.17796-24.00476-65.15577-16.00317-169.89161-50.8416-237.76139-52.58185-156.6562-4.01683-245.35892,73.02597-245.35892,73.02597Z"/>
      <polyline class="cls-12" points="780.69989 1228.56022 636.1195 105.51244 666.77737 100.58021 811.7266 1226.49321"/>
      <line class="cls-12" x1="811.7266" y1="1080.74871" x2="797.28858" y2="1082.81571"/>
    </g>
    <g>
      <g id="s">
        <g id="c">
          <path id="t" class="cls-9" d="M966.80233,109.79075l-6.12113,18.8389,9.41945,3.06056-3.29832-21.89946Z"/>
          <path id="t-2" data-name="t" class="cls-9" d="M966.80233,109.79075l6.12113,18.8389-9.41945,3.06056,3.29832-21.89946Z"/>
        </g>
        <g id="a">
          <g id="c-2" data-name="c">
            <path id="t-3" data-name="t" class="cls-9" d="M985.64123,123.47801h-19.80839v9.9042l19.80839-9.9042Z"/>
            <path id="t-4" data-name="t" class="cls-9" d="M985.64123,123.47801l-16.02533,11.64308-5.82154-8.01266,21.84687-3.63042Z"/>
          </g>
          <g id="c-3" data-name="c">
            <path id="t-5" data-name="t" class="cls-9" d="M978.44541,145.62447l-6.12113-18.8389-9.41945,3.06056,15.54058,15.77833Z"/>
            <path id="t-6" data-name="t" class="cls-9" d="M978.44541,145.62447l-16.02532-11.64308,5.82154-8.01266,10.20378,19.65574Z"/>
          </g>
        </g>
        <g id="a-2" data-name="a">
          <g id="c-4" data-name="c">
            <path id="t-7" data-name="t" class="cls-9" d="M947.96344,123.47801h19.80839v9.9042l-19.80839-9.9042Z"/>
            <path id="t-8" data-name="t" class="cls-9" d="M947.96344,123.47801l16.02533,11.64308,5.82154-8.01266-21.84687-3.63042Z"/>
          </g>
          <g id="c-5" data-name="c">
            <path id="t-9" data-name="t" class="cls-9" d="M955.15926,145.62447l6.12113-18.8389,9.41945,3.06056-15.54058,15.77833Z"/>
            <path id="t-10" data-name="t" class="cls-9" d="M955.15926,145.62447l16.02532-11.64308-5.82154-8.01266-10.20378,19.65574Z"/>
          </g>
        </g>
      </g>
      <g id="s-2" data-name="s">
        <g id="c-6" data-name="c">
          <path id="t-11" data-name="t" class="cls-9" d="M966.80233,347.49144l-6.12113,18.8389,9.41945,3.06056-3.29832-21.89946Z"/>
          <path id="t-12" data-name="t" class="cls-9" d="M966.80233,347.49144l6.12113,18.8389-9.41945,3.06056,3.29832-21.89946Z"/>
        </g>
        <g id="a-3" data-name="a">
          <g id="c-7" data-name="c">
            <path id="t-13" data-name="t" class="cls-9" d="M985.64123,361.1787h-19.80839v9.9042l19.80839-9.9042Z"/>
            <path id="t-14" data-name="t" class="cls-9" d="M985.64123,361.1787l-16.02533,11.64308-5.82154-8.01266,21.84687-3.63042Z"/>
          </g>
          <g id="c-8" data-name="c">
            <path id="t-15" data-name="t" class="cls-9" d="M978.44541,383.32515l-6.12113-18.8389-9.41945,3.06056,15.54058,15.77833Z"/>
            <path id="t-16" data-name="t" class="cls-9" d="M978.44541,383.32515l-16.02532-11.64308,5.82154-8.01266,10.20378,19.65574Z"/>
          </g>
        </g>
        <g id="a-4" data-name="a">
          <g id="c-9" data-name="c">
            <path id="t-17" data-name="t" class="cls-9" d="M947.96344,361.1787h19.80839v9.9042l-19.80839-9.9042Z"/>
            <path id="t-18" data-name="t" class="cls-9" d="M947.96344,361.1787l16.02533,11.64308,5.82154-8.01266-21.84687-3.63042Z"/>
          </g>
          <g id="c-10" data-name="c">
            <path id="t-19" data-name="t" class="cls-9" d="M955.15926,383.32515l6.12113-18.8389,9.41945,3.06056-15.54058,15.77833Z"/>
            <path id="t-20" data-name="t" class="cls-9" d="M955.15926,383.32515l16.02532-11.64308-5.82154-8.01266-10.20378,19.65574Z"/>
          </g>
        </g>
      </g>
      <g id="l">
        <g id="s-3" data-name="s">
          <g id="c-11" data-name="c">
            <path id="t-21" data-name="t" class="cls-9" d="M847.95199,228.64109l-6.12113,18.8389,9.41945,3.06056-3.29832-21.89946Z"/>
            <path id="t-22" data-name="t" class="cls-9" d="M847.95199,228.64109l6.12113,18.8389-9.41945,3.06056,3.29832-21.89946Z"/>
          </g>
          <g id="a-5" data-name="a">
            <g id="c-12" data-name="c">
              <path id="t-23" data-name="t" class="cls-9" d="M866.79089,242.32835h-19.80839v9.9042l19.80839-9.9042Z"/>
              <path id="t-24" data-name="t" class="cls-9" d="M866.79089,242.32835l-16.02533,11.64308-5.82154-8.01266,21.84687-3.63042Z"/>
            </g>
            <g id="c-13" data-name="c">
              <path id="t-25" data-name="t" class="cls-9" d="M859.59507,264.47481l-6.12113-18.8389-9.41945,3.06056,15.54058,15.77833Z"/>
              <path id="t-26" data-name="t" class="cls-9" d="M859.59507,264.47481l-16.02532-11.64308,5.82154-8.01266,10.20378,19.65574Z"/>
            </g>
          </g>
          <g id="a-6" data-name="a">
            <g id="c-14" data-name="c">
              <path id="t-27" data-name="t" class="cls-9" d="M829.11309,242.32835h19.80839v9.9042l-19.80839-9.9042Z"/>
              <path id="t-28" data-name="t" class="cls-9" d="M829.11309,242.32835l16.02533,11.64308,5.82154-8.01266-21.84687-3.63042Z"/>
            </g>
            <g id="c-15" data-name="c">
              <path id="t-29" data-name="t" class="cls-9" d="M836.30891,264.47481l6.12113-18.8389,9.41945,3.06056-15.54058,15.77833Z"/>
              <path id="t-30" data-name="t" class="cls-9" d="M836.30891,264.47481l16.02532-11.64308-5.82154-8.01266-10.20378,19.65574Z"/>
            </g>
          </g>
        </g>
        <g id="s-4" data-name="s">
          <g id="c-16" data-name="c">
            <path id="t-31" data-name="t" class="cls-9" d="M895.73408,161.5474l16.02532-11.64308-5.82154-8.01266-10.20378,19.65574Z"/>
            <path id="t-32" data-name="t" class="cls-9" d="M895.73408,161.5474l6.12113-18.8389,9.41945,3.06056-15.54058,15.77833Z"/>
          </g>
          <g id="a-7" data-name="a">
            <g id="c-17" data-name="c">
              <path id="t-33" data-name="t" class="cls-9" d="M888.53827,139.40094l16.02532,11.64308,5.82154-8.01266-21.84686-3.63042Z"/>
              <path id="t-34" data-name="t" class="cls-9" d="M888.53827,139.40094h19.80839v9.9042s-19.80839-9.9042-19.80839-9.9042Z"/>
            </g>
            <g id="c-18" data-name="c">
              <path id="t-35" data-name="t" class="cls-9" d="M907.37716,125.71368l-6.12113,18.8389,9.41945,3.06056-3.29832-21.89946Z"/>
              <path id="t-36" data-name="t" class="cls-9" d="M907.37716,125.71368l6.12113,18.8389-9.41945,3.06056,3.29832-21.89946Z"/>
            </g>
          </g>
          <g id="a-8" data-name="a">
            <g id="c-19" data-name="c">
              <path id="t-37" data-name="t" class="cls-9" d="M919.02024,161.5474l-16.02532-11.64308,5.82154-8.01266,10.20378,19.65574Z"/>
              <path id="t-38" data-name="t" class="cls-9" d="M919.02024,161.5474l-6.12113-18.8389-9.41945,3.06056,15.54058,15.77833Z"/>
            </g>
            <g id="c-20" data-name="c">
              <path id="t-39" data-name="t" class="cls-9" d="M926.21606,139.40094l-16.02532,11.64308-5.82154-8.01266,21.84686-3.63042Z"/>
              <path id="t-40" data-name="t" class="cls-9" d="M926.21606,139.40094h-19.80839s0,9.90419,0,9.90419l19.80839-9.90419Z"/>
            </g>
          </g>
        </g>
        <g id="s-5" data-name="s">
          <g id="c-21" data-name="c">
            <path id="t-41" data-name="t" class="cls-9" d="M875.518,205.04964l-6.12113-18.8389-9.41945,3.06056,15.54058,15.77833Z"/>
            <path id="t-42" data-name="t" class="cls-9" d="M875.518,205.04964l-16.02532-11.64308,5.82154-8.01266,10.20378,19.65574Z"/>
          </g>
          <g id="a-9" data-name="a">
            <g id="c-22" data-name="c">
              <path id="t-43" data-name="t" class="cls-9" d="M852.23184,205.04964l16.02532-11.64308-5.82154-8.01266-10.20378,19.65574Z"/>
              <path id="t-44" data-name="t" class="cls-9" d="M852.23184,205.04964l6.12113-18.8389,9.41945,3.06056-15.54058,15.77833Z"/>
            </g>
            <g id="c-23" data-name="c">
              <path id="t-45" data-name="t" class="cls-9" d="M845.03602,182.90318l16.02532,11.64308,5.82154-8.01266-21.84686-3.63042Z"/>
              <path id="t-46" data-name="t" class="cls-9" d="M845.03602,182.90318h19.80839s0,9.90419,0,9.90419l-19.80839-9.90419Z"/>
            </g>
          </g>
          <g id="a-10" data-name="a">
            <g id="c-24" data-name="c">
              <path id="t-47" data-name="t" class="cls-9" d="M882.71382,182.90318l-16.02532,11.64308-5.82154-8.01266,21.84686-3.63042Z"/>
              <path id="t-48" data-name="t" class="cls-9" d="M882.71382,182.90318h-19.80839v9.9042s19.80839-9.9042,19.80839-9.9042Z"/>
            </g>
            <g id="c-25" data-name="c">
              <path id="t-49" data-name="t" class="cls-9" d="M863.87492,169.21592l6.12113,18.8389-9.41945,3.06056,3.29832-21.89946Z"/>
              <path id="t-50" data-name="t" class="cls-9" d="M863.87492,169.21592l-6.12113,18.8389,9.41945,3.06056-3.29832-21.89946Z"/>
            </g>
          </g>
        </g>
        <g id="s-6" data-name="s">
          <g id="c-26" data-name="c">
            <path id="t-51" data-name="t" class="cls-9" d="M882.71382,301.75353h-19.80839v9.9042l19.80839-9.9042Z"/>
            <path id="t-52" data-name="t" class="cls-9" d="M882.71382,301.75353l-16.02533,11.64308-5.82154-8.01266,21.84687-3.63042Z"/>
          </g>
          <g id="a-11" data-name="a">
            <g id="c-27" data-name="c">
              <path id="t-53" data-name="t" class="cls-9" d="M875.518,323.89998l-6.12113-18.8389-9.41945,3.06056,15.54058,15.77834Z"/>
              <path id="t-54" data-name="t" class="cls-9" d="M875.518,323.89998l-16.02533-11.64308,5.82154-8.01266,10.20379,19.65574Z"/>
            </g>
            <g id="c-28" data-name="c">
              <path id="t-55" data-name="t" class="cls-9" d="M852.23184,323.89998l16.02533-11.64308-5.82154-8.01266-10.20379,19.65574Z"/>
              <path id="t-56" data-name="t" class="cls-9" d="M852.23184,323.89998l6.12113-18.8389,9.41945,3.06056-15.54058,15.77833Z"/>
            </g>
          </g>
          <g id="a-12" data-name="a">
            <g id="c-29" data-name="c">
              <path id="t-57" data-name="t" class="cls-9" d="M863.87492,288.06626l6.12113,18.8389-9.41945,3.06056,3.29832-21.89947Z"/>
              <path id="t-58" data-name="t" class="cls-9" d="M863.87492,288.06626l-6.12113,18.8389,9.41945,3.06056-3.29832-21.89947Z"/>
            </g>
            <g id="c-30" data-name="c">
              <path id="t-59" data-name="t" class="cls-9" d="M845.03602,301.75353h19.80839s0,9.9042,0,9.9042l-19.80839-9.9042Z"/>
              <path id="t-60" data-name="t" class="cls-9" d="M845.03602,301.75353l16.02533,11.64308,5.82154-8.01266-21.84687-3.63042Z"/>
            </g>
          </g>
        </g>
        <g id="s-7" data-name="s">
          <g id="c-31" data-name="c">
            <path id="t-61" data-name="t" class="cls-9" d="M926.21606,345.25577h-19.80839s0,9.90419,0,9.90419l19.80839-9.90419Z"/>
            <path id="t-62" data-name="t" class="cls-9" d="M926.21606,345.25577l-16.02532,11.64308-5.82154-8.01266,21.84686-3.63042Z"/>
          </g>
          <g id="a-13" data-name="a">
            <g id="c-32" data-name="c">
              <path id="t-63" data-name="t" class="cls-9" d="M919.02024,367.40222l-6.12113-18.8389-9.41945,3.06056,15.54058,15.77833Z"/>
              <path id="t-64" data-name="t" class="cls-9" d="M919.02024,367.40222l-16.02532-11.64308,5.82154-8.01266,10.20378,19.65574Z"/>
            </g>
            <g id="c-33" data-name="c">
              <path id="t-65" data-name="t" class="cls-9" d="M895.73408,367.40222l16.02532-11.64308-5.82154-8.01266-10.20378,19.65574Z"/>
              <path id="t-66" data-name="t" class="cls-9" d="M895.73408,367.40222l6.12113-18.8389,9.41945,3.06056-15.54058,15.77833Z"/>
            </g>
          </g>
          <g id="a-14" data-name="a">
            <g id="c-34" data-name="c">
              <path id="t-67" data-name="t" class="cls-9" d="M907.37716,331.56851l6.12113,18.8389-9.41945,3.06056,3.29832-21.89946Z"/>
              <path id="t-68" data-name="t" class="cls-9" d="M907.37716,331.56851l-6.12113,18.8389,9.41945,3.06056-3.29832-21.89946Z"/>
            </g>
            <g id="c-35" data-name="c">
              <path id="t-69" data-name="t" class="cls-9" d="M888.53827,345.25577h19.80839s0,9.9042,0,9.9042l-19.80839-9.9042Z"/>
              <path id="t-70" data-name="t" class="cls-9" d="M888.53827,345.25577l16.02532,11.64308,5.82154-8.01266-21.84686-3.63042Z"/>
            </g>
          </g>
        </g>
      </g>
      <g id="l-2" data-name="l">
        <g id="s-8" data-name="s">
          <g id="c-36" data-name="c">
            <path id="t-71" data-name="t" class="cls-9" d="M1085.65268,228.64109l6.12113,18.8389-9.41945,3.06056,3.29832-21.89946Z"/>
            <path id="t-72" data-name="t" class="cls-9" d="M1085.65268,228.64109l-6.12113,18.8389,9.41945,3.06056-3.29832-21.89946Z"/>
          </g>
          <g id="a-15" data-name="a">
            <g id="c-37" data-name="c">
              <path id="t-73" data-name="t" class="cls-9" d="M1066.81378,242.32835h19.80839v9.9042l-19.80839-9.9042Z"/>
              <path id="t-74" data-name="t" class="cls-9" d="M1066.81378,242.32835l16.02533,11.64308,5.82154-8.01266-21.84687-3.63042Z"/>
            </g>
            <g id="c-38" data-name="c">
              <path id="t-75" data-name="t" class="cls-9" d="M1074.0096,264.47481l6.12113-18.8389,9.41945,3.06056-15.54058,15.77833Z"/>
              <path id="t-76" data-name="t" class="cls-9" d="M1074.0096,264.47481l16.02532-11.64308-5.82154-8.01266-10.20378,19.65574Z"/>
            </g>
          </g>
          <g id="a-16" data-name="a">
            <g id="c-39" data-name="c">
              <path id="t-77" data-name="t" class="cls-9" d="M1104.49158,242.32835h-19.80839v9.9042l19.80839-9.9042Z"/>
              <path id="t-78" data-name="t" class="cls-9" d="M1104.49158,242.32835l-16.02533,11.64308-5.82154-8.01266,21.84687-3.63042Z"/>
            </g>
            <g id="c-40" data-name="c">
              <path id="t-79" data-name="t" class="cls-9" d="M1097.29576,264.47481l-6.12113-18.8389-9.41945,3.06056,15.54058,15.77833Z"/>
              <path id="t-80" data-name="t" class="cls-9" d="M1097.29576,264.47481l-16.02532-11.64308,5.82154-8.01266,10.20378,19.65574Z"/>
            </g>
          </g>
        </g>
        <g id="s-9" data-name="s">
          <g id="c-41" data-name="c">
            <path id="t-81" data-name="t" class="cls-9" d="M1037.87059,161.5474l-16.02532-11.64308,5.82154-8.01266,10.20378,19.65574Z"/>
            <path id="t-82" data-name="t" class="cls-9" d="M1037.87059,161.5474l-6.12113-18.8389-9.41945,3.06056,15.54058,15.77833Z"/>
          </g>
          <g id="a-17" data-name="a">
            <g id="c-42" data-name="c">
              <path id="t-83" data-name="t" class="cls-9" d="M1045.0664,139.40094l-16.02532,11.64308-5.82154-8.01266,21.84686-3.63042Z"/>
              <path id="t-84" data-name="t" class="cls-9" d="M1045.0664,139.40094h-19.80839v9.9042s19.80839-9.9042,19.80839-9.9042Z"/>
            </g>
            <g id="c-43" data-name="c">
              <path id="t-85" data-name="t" class="cls-9" d="M1026.22751,125.71368l6.12113,18.8389-9.41945,3.06056,3.29832-21.89946Z"/>
              <path id="t-86" data-name="t" class="cls-9" d="M1026.22751,125.71368l-6.12113,18.8389,9.41945,3.06056-3.29832-21.89946Z"/>
            </g>
          </g>
          <g id="a-18" data-name="a">
            <g id="c-44" data-name="c">
              <path id="t-87" data-name="t" class="cls-9" d="M1014.58443,161.5474l16.02532-11.64308-5.82154-8.01266-10.20378,19.65574Z"/>
              <path id="t-88" data-name="t" class="cls-9" d="M1014.58443,161.5474l6.12113-18.8389,9.41945,3.06056-15.54058,15.77833Z"/>
            </g>
            <g id="c-45" data-name="c">
              <path id="t-89" data-name="t" class="cls-9" d="M1007.38861,139.40094l16.02532,11.64308,5.82154-8.01266-21.84686-3.63042Z"/>
              <path id="t-90" data-name="t" class="cls-9" d="M1007.38861,139.40094h19.80839s0,9.90419,0,9.90419l-19.80839-9.90419Z"/>
            </g>
          </g>
        </g>
        <g id="s-10" data-name="s">
          <g id="c-46" data-name="c">
            <path id="t-91" data-name="t" class="cls-9" d="M1058.08667,205.04964l6.12113-18.8389,9.41945,3.06056-15.54058,15.77833Z"/>
            <path id="t-92" data-name="t" class="cls-9" d="M1058.08667,205.04964l16.02532-11.64308-5.82154-8.01266-10.20378,19.65574Z"/>
          </g>
          <g id="a-19" data-name="a">
            <g id="c-47" data-name="c">
              <path id="t-93" data-name="t" class="cls-9" d="M1081.37283,205.04964l-16.02532-11.64308,5.82154-8.01266,10.20378,19.65574Z"/>
              <path id="t-94" data-name="t" class="cls-9" d="M1081.37283,205.04964l-6.12113-18.8389-9.41945,3.06056,15.54058,15.77833Z"/>
            </g>
            <g id="c-48" data-name="c">
              <path id="t-95" data-name="t" class="cls-9" d="M1088.56864,182.90318l-16.02532,11.64308-5.82154-8.01266,21.84686-3.63042Z"/>
              <path id="t-96" data-name="t" class="cls-9" d="M1088.56864,182.90318h-19.80839s0,9.90419,0,9.90419l19.80839-9.90419Z"/>
            </g>
          </g>
          <g id="a-20" data-name="a">
            <g id="c-49" data-name="c">
              <path id="t-97" data-name="t" class="cls-9" d="M1050.89085,182.90318l16.02532,11.64308,5.82154-8.01266-21.84686-3.63042Z"/>
              <path id="t-98" data-name="t" class="cls-9" d="M1050.89085,182.90318h19.80839v9.9042s-19.80839-9.9042-19.80839-9.9042Z"/>
            </g>
            <g id="c-50" data-name="c">
              <path id="t-99" data-name="t" class="cls-9" d="M1069.72975,169.21592l-6.12113,18.8389,9.41945,3.06056-3.29832-21.89946Z"/>
              <path id="t-100" data-name="t" class="cls-9" d="M1069.72975,169.21592l6.12113,18.8389-9.41945,3.06056,3.29832-21.89946Z"/>
            </g>
          </g>
        </g>
        <g id="s-11" data-name="s">
          <g id="c-51" data-name="c">
            <path id="t-101" data-name="t" class="cls-9" d="M1050.89085,301.75353h19.80839v9.9042l-19.80839-9.9042Z"/>
            <path id="t-102" data-name="t" class="cls-9" d="M1050.89085,301.75353l16.02533,11.64308,5.82154-8.01266-21.84687-3.63042Z"/>
          </g>
          <g id="a-21" data-name="a">
            <g id="c-52" data-name="c">
              <path id="t-103" data-name="t" class="cls-9" d="M1058.08667,323.89998l6.12113-18.8389,9.41945,3.06056-15.54058,15.77834Z"/>
              <path id="t-104" data-name="t" class="cls-9" d="M1058.08667,323.89998l16.02533-11.64308-5.82154-8.01266-10.20379,19.65574Z"/>
            </g>
            <g id="c-53" data-name="c">
              <path id="t-105" data-name="t" class="cls-9" d="M1081.37283,323.89998l-16.02533-11.64308,5.82154-8.01266,10.20379,19.65574Z"/>
              <path id="t-106" data-name="t" class="cls-9" d="M1081.37283,323.89998l-6.12113-18.8389-9.41945,3.06056,15.54058,15.77833Z"/>
            </g>
          </g>
          <g id="a-22" data-name="a">
            <g id="c-54" data-name="c">
              <path id="t-107" data-name="t" class="cls-9" d="M1069.72975,288.06626l-6.12113,18.8389,9.41945,3.06056-3.29832-21.89947Z"/>
              <path id="t-108" data-name="t" class="cls-9" d="M1069.72975,288.06626l6.12113,18.8389-9.41945,3.06056,3.29832-21.89947Z"/>
            </g>
            <g id="c-55" data-name="c">
              <path id="t-109" data-name="t" class="cls-9" d="M1088.56865,301.75353h-19.80839s0,9.9042,0,9.9042l19.80839-9.9042Z"/>
              <path id="t-110" data-name="t" class="cls-9" d="M1088.56865,301.75353l-16.02533,11.64308-5.82154-8.01266,21.84687-3.63042Z"/>
            </g>
          </g>
        </g>
        <g id="s-12" data-name="s">
          <g id="c-56" data-name="c">
            <path id="t-111" data-name="t" class="cls-9" d="M1007.38861,345.25577h19.80839s0,9.90419,0,9.90419l-19.80839-9.90419Z"/>
            <path id="t-112" data-name="t" class="cls-9" d="M1007.38861,345.25577l16.02532,11.64308,5.82154-8.01266-21.84686-3.63042Z"/>
          </g>
          <g id="a-23" data-name="a">
            <g id="c-57" data-name="c">
              <path id="t-113" data-name="t" class="cls-9" d="M1014.58443,367.40222l6.12113-18.8389,9.41945,3.06056-15.54058,15.77833Z"/>
              <path id="t-114" data-name="t" class="cls-9" d="M1014.58443,367.40222l16.02532-11.64308-5.82154-8.01266-10.20378,19.65574Z"/>
            </g>
            <g id="c-58" data-name="c">
              <path id="t-115" data-name="t" class="cls-9" d="M1037.87059,367.40222l-16.02532-11.64308,5.82154-8.01266,10.20378,19.65574Z"/>
              <path id="t-116" data-name="t" class="cls-9" d="M1037.87059,367.40222l-6.12113-18.8389-9.41945,3.06056,15.54058,15.77833Z"/>
            </g>
          </g>
          <g id="a-24" data-name="a">
            <g id="c-59" data-name="c">
              <path id="t-117" data-name="t" class="cls-9" d="M1026.22751,331.56851l-6.12113,18.8389,9.41945,3.06056-3.29832-21.89946Z"/>
              <path id="t-118" data-name="t" class="cls-9" d="M1026.22751,331.56851l6.12113,18.8389-9.41945,3.06056,3.29832-21.89946Z"/>
            </g>
            <g id="c-60" data-name="c">
              <path id="t-119" data-name="t" class="cls-9" d="M1045.0664,345.25577h-19.80839s0,9.9042,0,9.9042l19.80839-9.9042Z"/>
              <path id="t-120" data-name="t" class="cls-9" d="M1045.0664,345.25577l-16.02532,11.64308-5.82154-8.01266,21.84686-3.63042Z"/>
            </g>
          </g>
        </g>
      </g>
    </g>
  </g>
  <path class="cls-17" d="M362.92807,1243.70981c-33.52788-.29401-56.9447-16.48248-56.9447-39.37043.00359-38.59418-1.02724-99.31798-1.47363-123.89111-24.9263,1.30512-87.99501,3.3345-150.12073-4.94797-69.17479-9.22366-79.7215-83.16895-75.62149-121.73623-.48046-11.29966-4.96405-119.54191-1.53459-154.89302,5.84614-60.24693,34.94057-89.53139,88.9595-89.53139h.20796c82.50742.11294,93.43419,39.13021,99.86297,94.24272,4.82427,41.34245.94298,115.71799-.86052,144.58295,13.90989-.60774,38.24638-1.37324,63.26591-.67228,73.03457,2.0509,85.97817,14.72021,89.00432,26.84095,10.76184,43.0348,7.27674,132.05347,4.97307,190.95943-.60057,15.30286-1.11867,28.51896-1.28898,38.35753-.41592,23.67138-24.01917,40.06602-57.52017,40.06602-.30118,0-.60415-.00359-.90892-.00717ZM254.89199,969.55813l-11.90919.75295.86769-11.90382c.0735-1.02724,7.44706-103.40902,1.73179-152.41186-5.80664-49.76655-11.96835-75.73982-79.20877-75.83125h-.18286c-43.0115,0-63.41829,21.15975-68.22822,70.72014-3.40621,35.07323,1.59196,151.60154,1.64395,152.77399l.03406.81391-.08964.79598c-.40875,3.69843-9.24518,90.68054,57.59008,99.59047,75.91013,10.12004,155.97762,4.21295,156.78436,4.14841l10.98234-.83721.21692,11.01282c.01613.85335,1.68697,85.88854,1.68339,135.15671,0,11.4126,18.45808,18.38996,36.30305,18.54951h.65435c18.21075,0,36.54148-6.67618,36.76916-19.60365.17575-10.06267.69738-23.38275,1.29974-38.80393,2.25527-57.55244,5.6579-144.43774-4.2739-184.74399-7.45602-9.77224-73.83234-14.53018-142.6683-10.1792Z"/>
  <path class="cls-17" d="M573.29932,635.01252c-51.90529,0-94.12977-42.39838-94.12977-94.50984s42.22448-94.50805,94.12977-94.50805c51.02326,0,94.12798,44.80424,94.12798,97.83717,0,51.12904-41.34604,91.18071-94.12798,91.18071ZM573.29932,466.81914c-40.42277,0-73.30527,33.05639-73.30527,73.68354s32.8825,73.68533,73.30527,73.68533c41.10587,0,73.30354-30.9051,73.30354-70.35621,0-41.74761-33.56739-77.01266-73.30354-77.01266Z"/>
  <path class="cls-17" d="M1750.30524,698.9292h-.00368c-52.78374,0-94.12619-40.05168-94.12619-91.18071,0-53.03293,43.10651-97.83717,94.12619-97.83717,51.9036,0,94.12977,42.39838,94.12977,94.50984s-42.22618,94.50805-94.1261,94.50805ZM1750.30524,530.73582c-39.73804,0-73.30527,35.26685-73.30527,77.01266,0,39.4529,32.19767,70.35621,73.30159,70.35621,40.42098,0,73.30527-33.05639,73.30527-73.68354s-32.88429-73.68533-73.30159-73.68533Z"/>
  <path class="cls-17" d="M1563.27901,1248.35481c-33.49911,0-57.10246-16.39464-57.52017-40.06602-.16852-9.83857-.68841-23.05468-1.28719-38.35753-2.30547-58.90596-5.79056-147.92462,4.97128-190.95943,3.02615-12.12074,15.97155-24.79005,89.00432-26.84095,25.02141-.70096,49.35601.06454,63.26591.67228-1.8035-28.86496-5.683-103.2405-.86052-144.58474,6.42878-55.11072,17.35734-94.12798,99.86476-94.24093h.20617c54.01894,0,83.11337,29.28446,88.9595,89.5296,3.43131,35.3511-1.05234,143.59515-1.53459,154.89481,4.1018,38.56729-6.4467,112.51257-75.6197,121.73623-62.12752,8.28247-125.19622,6.25309-150.12252,4.94797-.4463,24.57313-1.47722,85.29693-1.47363,123.89111,0,22.88795-23.41681,39.07642-56.9447,39.37043-.30477.00359-.60595.00717-.90892.00717ZM1529.55572,984.37515c-9.9318,40.30625-6.52738,127.19155-4.2739,184.74219.60236,15.42297,1.12584,28.74305,1.30153,38.80572.22768,12.92747,18.55668,19.60365,36.76737,19.60365h.65435c17.84497-.15955,36.30305-7.13691,36.30305-18.54951-.00359-49.26817,1.66725-134.30336,1.68518-135.1585l.21692-11.01103,10.98055.83721c.80673.06454,80.87423,5.97163,156.78615-4.14841,66.83347-8.91173,57.99883-95.89204,57.58829-99.59047l-.08784-.79598.03406-.81391c.0502-1.17245,5.05016-117.70256,1.64395-152.77579-4.80983-49.55859-25.21673-70.71834-68.22822-70.71834h-.18286c-67.24221.09143-73.40387,26.06469-79.21057,75.83125-5.71347,49.00284,1.65829,151.38462,1.73358,152.41186l.86778,11.90382-11.91108-.75295c-68.83408-4.35099-135.21228.40695-142.6683,10.1792Z"/>
  <path class="cls-17" d="M82.68645,599.78332c0-52.11146,42.22448-94.50984,94.12977-94.50984,51.01973,0,94.1244,44.80424,94.1244,97.83717,0,51.12904-41.34245,91.18071-94.1244,91.18071h-.00359c-51.90171,0-94.12619-42.39659-94.12619-94.50805ZM103.51096,599.78332c0,40.62715,32.8825,73.68354,73.30527,73.68354,41.10222,0,73.30168-30.90331,73.30168-70.35621,0-41.74582-33.56912-77.01266-73.30527-77.01266-40.41919,0-73.30168,33.05639-73.30168,73.68533Z"/>
  <path class="cls-8" d="M197.94729,394.08155l153.48711,5.17846.98438.1885c80.99392,15.55632,161.836-28.82187,192.21307-105.4594,16.90713-42.63982,16.16361-89.37685-2.08666-131.6004-18.25027-42.22355-51.78459-74.78658-94.41917-91.68333-88.16732-34.95591-188.33044,8.34889-223.28111,96.51098-19.62212,49.49382-4.34854,110.863,14.69237,148.37934l3.27253,6.4482-44.86252,72.03765ZM383.46606,383.70369c-5.31992,0-10.67378-.27751-16.04851-.84562-66.59224-1.79597-116.52064-3.79876-117.01807-3.81708l-23.03603-.9294,38.90651-57.41859c-34.0841-45.15051-43.41475-99.09235-24.81628-146.01788,31.06036-78.33139,120.0549-116.81378,198.40723-85.74826,37.89595,15.02224,67.69696,43.95145,83.91041,81.45993,16.21345,37.5111,16.86795,79.04088,1.84571,116.93683-23.1774,58.48674-80.1483,96.38007-142.15097,96.38007Z"/>
  <rect class="cls-15" x="83.33722" y="1095.86765" width="198.72738" height="42.32308"/>
  <rect class="cls-15" x="1652.09877" y="1100.45349" width="198.72559" height="42.32129"/>
  <g class="cls-22">
    <path class="cls-2" d="M1267.80266,943.65299h15.46958c21.2453,0,38.49378,17.24849,38.49378,38.49378v196.42012c0,21.2453-17.24849,38.49378-38.49378,38.49378h-15.47137c-21.24431,0-38.49199-17.24768-38.49199-38.49199v-196.42192c0-21.2453,17.24849-38.49378,38.49378-38.49378Z"/>
    <path class="cls-2" d="M1360.25801,943.65299h15.4695c21.24534,0,38.49387,17.24852,38.49387,38.49387v196.42183c0,21.24431-17.24768,38.49199-38.49199,38.49199h-15.47137c-21.2453,0-38.49378-17.24849-38.49378-38.49378v-196.42012c0-21.2453,17.24849-38.49378,38.49378-38.49378Z"/>
  </g>
  <g class="cls-16">
    <path class="cls-2" d="M527.96801,943.65299h15.46779c21.2453,0,38.49378,17.24849,38.49378,38.49378v196.42192c0,21.24431-17.24768,38.49199-38.49199,38.49199h-15.46958c-21.2453,0-38.49378-17.24849-38.49378-38.49378v-196.42012c0-21.2453,17.24849-38.49378,38.49378-38.49378Z"/>
    <path class="cls-2" d="M620.42336,943.65299h15.46779c21.2453,0,38.49378,17.24849,38.49378,38.49378v196.42012c0,21.2453-17.24849,38.49378-38.49378,38.49378h-15.46958c-21.24431,0-38.49199-17.24768-38.49199-38.49199v-196.42192c0-21.2453,17.24849-38.49378,38.49378-38.49378Z"/>
  </g>
  <path class="cls-15" d="M554.2373,657.4101l7.57035,23.81203h22.71106l9.29199-23.81203s-10.08446-.99067-20.43901-.99067c-10.27898,0-19.1344.99067-19.1344.99067Z"/>
  <path class="cls-15" d="M1298.04709,657.4101l7.57035,23.81203h22.71106l9.29199-23.81203s-10.08446-.99067-20.43901-.99067c-10.27898,0-19.1344.99067-19.1344.99067Z"/>
  <polygon class="cls-6" points="571.1996 692.0039 556.64329 819.23798 574.6053 836.91804 592.48463 819.18223 575.7029 691.99367 571.1996 692.0039"/>
  <polygon class="cls-6" points="1315.27387 692.0039 1300.71756 819.23798 1318.67958 836.91804 1336.5589 819.18223 1319.77717 691.99367 1315.27387 692.0039"/>
  <path class="cls-15" d="M222.51601,705.28772l7.46203,19.001,7.47361-1.7734-2.36143-21.29009s-3.45388-.49768-7.00067.57903c-2.33425.70861-5.57354,3.48346-5.57354,3.48346Z"/>
  <path class="cls-7" d="M237.08321,728.84859s14.45546,17.57565,20.98291,33.8102c6.77802,16.85775,8.05149,128.63408,8.05149,128.63408l11.9809,11.80656,11.63221-17.28818s-17.84699-104.76437-26.70832-125.13739c-8.29649-19.0744-25.21923-31.97941-25.21923-31.97941l-.71996.15413Z"/>
  <path class="cls-15" d="M111.94383,720.758s17.8827-13.63354,57.11685-13.63354c42.28517,0,52.83871,7.54533,52.83871,7.54533l-4.13226-10.33064s-2.39365-8.4366-48.2631-8.4366c-34.36103,0-57.5602,13.63354-57.5602,13.63354v11.22191Z"/>
  <path class="cls-15" d="M1702.33528,709.14339l-8.31762,18.56606-7.19761-1.93369,2.94102-20.69485s3.45388-.49768,7.00067.57903c2.33425.70861,5.57354,3.48346,5.57354,3.48346Z"/>
  <path class="cls-7" d="M1687.76808,733.95813s-16.2768,34.26174-23.51518,54.28037c-13.30457,36.79546-1.41385,113.71593-1.41385,113.71593l-12.25908,12.25908-6.89808-15.08055s2.29669-73.92528,14.69347-108.0164c7.10846-19.54826,28.67276-57.31255,28.67276-57.31255l.71996.15413Z"/>
  <path class="cls-15" d="M1815.83317,725.86754s-17.8827-13.63354-57.11685-13.63354c-42.28517,0-57.46879,7.60111-57.46879,7.60111l4.58711-11.89225s6.56888-6.93077,52.43833-6.93077c34.36103,0,57.5602,13.63354,57.5602,13.63354v11.22191Z"/>
  <path class="cls-8" d="M1623.81079,411.39135l3.27253-6.4482c19.04092-37.51634,34.31449-98.88553,14.69237-148.37934-34.95067-88.16209-135.11379-131.46688-223.28111-96.51098-42.63458,16.89675-76.1689,49.45978-94.41917,91.68333-18.25027,42.22355-18.99379,88.96058-2.08666,131.6004,30.37706,76.63753,111.21914,121.01572,192.21307,105.4594l.98438-.1885,153.48711-5.17846-44.86252-72.03765ZM1341.00358,376.67107c-15.02224-37.89595-14.36774-79.42573,1.84571-116.93683,16.21345-37.50848,46.01446-66.43769,83.91041-81.45993,78.35233-31.06552,167.34687,7.41687,198.40723,85.74826,18.59847,46.92553,9.26782,100.86737-24.81628,146.01788l38.90651,57.41859-23.03603.9294c-.49743.01833-50.42583,2.02112-117.01807,3.81708-5.37473.56811-10.72859.84562-16.04851.84562-62.00267,0-118.97357-37.89333-142.15097-96.38007Z"/>
  <g>
    <path class="cls-19" d="M949.64457,871.4394c-16.9671,0-30.77395,13.80281-30.77395,30.7683,0,16.96791,13.80685,30.77314,30.77395,30.77314,16.96871,0,30.76911-13.80523,30.76911-30.77314,0-16.96549-13.80039-30.7683-30.76911-30.7683Z"/>
    <path class="cls-19" d="M931.1518,865.17779l-48.44055-83.89074-2.16704,1.25619c-42.62514,24.6616-69.10282,70.51472-69.10282,119.66445v2.5019h96.8851c-.05164-.84472-.25253-1.64507-.25253-2.5019,0-16.24582,9.45817-30.19628,23.07784-37.02991Z"/>
    <path class="cls-19" d="M991.21115,902.2077c0,.85602-.2017,1.65637-.25334,2.49948h96.88352v-2.5019c0-49.14892-26.47933-95.00205-69.10846-119.66526l-2.16466-1.25539-48.44055,83.88912c13.62213,6.83202,23.08349,20.78571,23.08349,37.03395Z"/>
    <path class="cls-19" d="M926.74992,936.84947l-48.37039,83.78101,2.1695,1.25135c21.33998,12.29005,45.24641,18.43871,69.14961,18.43871,23.88303,0,47.76122-6.14301,69.04392-18.42903l2.16546-1.25135-48.38084-83.78585c-6.57142,4.35513-14.42567,6.924-22.88259,6.924-8.46092,0-16.32085-2.57048-22.89466-6.92884Z"/>
  </g>
  <path class="cls-14" d="M947.51895,677.72481c-122.48585,0-222.13912,99.65328-222.13912,222.13913,0,122.49392,99.65328,222.1472,222.13912,222.1472,122.49391,0,222.14723-99.65328,222.14723-222.1472,0-122.48585-99.65332-222.13913-222.14723-222.13913ZM773.7881,899.86394c0-52.78681,23.74668-100.06475,61.0267-131.95289l188.00322,288.28339c-22.81805,11.03789-48.29855,17.40842-75.29907,17.40842-95.79272,0-173.73085-77.93894-173.73085-173.73892ZM1063.0453,1029.26572l-187.4078-287.3709c21.93782-10.02616,46.22829-15.76173,71.88145-15.76173,95.79998,0,173.73896,77.93894,173.73896,173.73085,0,51.42573-22.58896,97.56285-58.21261,129.40178Z"/>
  <circle class="cls-3" cx="1314.93661" cy="545.08852" r="82.30587"/>
  <path class="cls-17" d="M1314.93567,639.59656c-51.9035,0-94.12798-42.39659-94.12798-94.50805s42.22448-94.50984,94.12798-94.50984c51.02335,0,94.12977,44.80424,94.12977,97.83896,0,51.12724-41.34604,91.17892-94.12977,91.17892ZM1314.93567,471.40319c-40.42098,0-73.3034,33.05639-73.3034,73.68533s32.88241,73.68533,73.3034,73.68533c41.1076,0,73.30527-30.9051,73.30527-70.35621,0-41.74761-33.56732-77.01446-73.30527-77.01446Z"/>
  <polygon class="cls-21" points="490.73445 219.36594 448.00212 284.29976 473.75526 281.04451 421.28529 329.2866 401.69206 346.75492 445.67703 295.38249 416.92828 301.94546 490.73445 219.36594"/>
  <polygon class="cls-21" points="273.05532 157.67058 302.39107 222.67549 312.51566 201.11905 324.13377 265.47302 328.04894 289.23575 309.83796 229.92004 300.80561 255.4224 273.05532 157.67058"/>
  <path class="cls-11" d="M369.99528,285.92483c6.95283,1.29186,12.16767,4.37966,15.64499,9.26277,3.47736,4.88311,4.62292,10.51508,3.43701,16.89669-1.16779,6.28589-4.25188,11.08303-9.25109,14.39092-4.99956,3.30782-10.97559,4.31583-17.92835,3.02362-6.85775-1.27423-12.0251-4.35286-15.50236-9.23632-3.47732-4.88311-4.63209-10.46761-3.46388-16.75378,1.1682-6.28617,4.25629-11.1068,9.26474-14.46251,5.00838-3.35536,10.94127-4.39596,17.79895-3.12139ZM391.33397,266.53768l-34.28793-6.3717,21.93068-145.05463,44.00259,8.17695-31.64534,143.24939Z"/>
  <polygon class="cls-13" points="1412.30756 204.7269 1434.16041 281.37999 1448.86508 259.19326 1451.23332 332.24185 1451.69334 359.15403 1441.21498 290.60288 1427.07553 317.33049 1412.30756 204.7269"/>
  <path class="cls-15" d="M1493.54399,394.70094c6.12156,1.7915,10.52023,5.03651,13.19651,9.73451,2.67631,4.69802,3.19212,9.85596,1.54764,15.47457-1.61951,5.53437-4.82321,9.55857-9.61,12.07225-4.78709,2.51359-10.24126,2.87468-16.36273,1.08288-6.03784-1.76703-10.39474-4.99949-13.07093-9.69781-2.67628-4.69801-3.20466-9.81419-1.58475-15.34878,1.61991-5.53458,4.82933-9.5795,9.62875-12.13525,4.79933-2.55545,10.21776-2.94971,16.2555-1.18238ZM1514.45497,379.24459l-30.18841-8.83557,32.86987-128.16861,38.74157,11.33889-41.42303,125.66529Z"/>
</svg>