<?xml version="1.0" encoding="UTF-8"?>
<svg id="Ebene_2" data-name="Ebene 2" xmlns="http://www.w3.org/2000/svg" viewBox="0 0 1920 718.67073">
  <defs>
    <style>
      .cls-1 {
        fill: none;
      }

      .cls-2 {
        fill: #fff;
      }

      .cls-3 {
        fill: #f3f5f7;
      }

      .cls-4 {
        fill: #0c425b;
      }

      .cls-5 {
        fill: #0d425b;
      }

      .cls-6 {
        fill: #fac100;
      }
    </style>
  </defs>
  <rect class="cls-3" x=".62498" y="-.0575" width="1918.49741" height="720.13279"/>
  <rect class="cls-2" x="119.15348" y="208.44342" width="304.14962" height="398.34086"/>
  <rect class="cls-2" x="174.11453" y="153.48238" width="304.14962" height="398.34086"/>
  <rect class="cls-2" x="787.11845" y="208.44342" width="304.14962" height="398.34086"/>
  <rect class="cls-2" x="842.07949" y="153.48238" width="304.14962" height="398.34086"/>
  <rect class="cls-2" x="1460.90445" y="208.44342" width="304.14962" height="398.34086"/>
  <rect class="cls-2" x="1515.8655" y="153.48238" width="304.14962" height="398.34086"/>
  <g>
    <g>
      <rect class="cls-1" x="823.89224" y="295.82425" width="269.27532" height="102.46338"/>
      <path class="cls-5" d="M842.78711,312.94767h-10.2959v6.49121h12.16211v5.03613h-18.70996v-27.15918h18.74707v5.05469h-12.19922v5.72656h10.2959v4.85059Z"/>
      <path class="cls-5" d="M869.57812,297.31584v17.77637c0,2.01465-.42969,3.75879-1.28711,5.23242-.8584,1.47363-2.08984,2.5957-3.69336,3.36719-1.60449.77051-3.50098,1.15625-5.68945,1.15625-3.30859,0-5.91309-.8584-7.81641-2.57422-1.90234-1.71582-2.87207-4.06641-2.90918-7.05078v-17.90723h6.58398v18.03809c.0752,2.97168,1.45508,4.45801,4.1416,4.45801,1.35547,0,2.38086-.37305,3.07715-1.11914s1.04492-1.95898,1.04492-3.6377v-17.73926h6.54785Z"/>
      <path class="cls-5" d="M907.06055,315.27873c-.08691,1.89062-.59668,3.55957-1.5293,5.00879-.93262,1.44824-2.24219,2.57129-3.92676,3.36719-1.68555.7959-3.60938,1.19336-5.77344,1.19336-3.56934,0-6.37891-1.16309-8.43066-3.48828s-3.07812-5.6084-3.07812-9.84863v-1.34375c0-2.66016.46289-4.98926,1.38965-6.98535.92578-1.99609,2.25977-3.53809,4.00098-4.62598s3.75586-1.63184,6.04395-1.63184c3.29492,0,5.94434.86719,7.94629,2.60156,2.00195,1.73535,3.13965,4.12598,3.41406,7.17285h-6.5293c-.0498-1.6543-.46582-2.8418-1.25-3.56348-.7832-.7207-1.97656-1.08203-3.58105-1.08203-1.62891,0-2.82324.61035-3.58105,1.82812-.75879,1.21973-1.15723,3.16504-1.19434,5.83887v1.9209c0,2.89844.36426,4.96875,1.09082,6.21191.72754,1.24414,1.98047,1.86523,3.75879,1.86523,1.50488,0,2.65527-.35449,3.45117-1.06348.7959-.70801,1.21875-1.83398,1.26855-3.37598h6.50977Z"/>
      <path class="cls-5" d="M910.03027,314.1967c0-2.01465.3916-3.80762,1.17578-5.38086.7832-1.57324,1.9082-2.78223,3.37598-3.62891,1.4668-.84473,3.18945-1.26758,5.16699-1.26758,3.02148,0,5.40332.93555,7.14453,2.80664,1.74023,1.87207,2.61133,4.41797,2.61133,7.63867v.22363c0,3.14648-.87402,5.64355-2.62109,7.49023s-4.11328,2.76953-7.09766,2.76953c-2.87207,0-5.17969-.86133-6.91992-2.58301-1.74121-1.72266-2.68066-4.05762-2.81738-7.00488l-.01855-1.06348ZM916.31641,314.5883c0,1.86621.29199,3.2334.87695,4.10449.58398.87012,1.44824,1.30566,2.59277,1.30566,2.23828,0,3.38281-1.72266,3.43262-5.16699v-.63477c0-3.61816-1.15723-5.42773-3.46973-5.42773-2.10156,0-3.23926,1.56055-3.41406,4.68164l-.01855,1.1377Z"/>
      <path class="cls-5" d="M955.49219,315.27873c-.08691,1.89062-.59668,3.55957-1.5293,5.00879-.93262,1.44824-2.24219,2.57129-3.92676,3.36719-1.68555.7959-3.60938,1.19336-5.77344,1.19336-3.56934,0-6.37891-1.16309-8.43066-3.48828s-3.07812-5.6084-3.07812-9.84863v-1.34375c0-2.66016.46289-4.98926,1.38965-6.98535.92578-1.99609,2.25977-3.53809,4.00098-4.62598s3.75586-1.63184,6.04395-1.63184c3.29492,0,5.94434.86719,7.94629,2.60156,2.00195,1.73535,3.13965,4.12598,3.41406,7.17285h-6.5293c-.0498-1.6543-.46582-2.8418-1.25-3.56348-.7832-.7207-1.97656-1.08203-3.58105-1.08203-1.62891,0-2.82324.61035-3.58105,1.82812-.75879,1.21973-1.15723,3.16504-1.19434,5.83887v1.9209c0,2.89844.36426,4.96875,1.09082,6.21191.72754,1.24414,1.98047,1.86523,3.75879,1.86523,1.50488,0,2.65527-.35449,3.45117-1.06348.7959-.70801,1.21875-1.83398,1.26855-3.37598h6.50977Z"/>
      <path class="cls-5" d="M841.37012,365.24455h-8.97266l-1.56641,5.07324h-6.99512l9.96094-27.15918h6.15527l10.03516,27.15918h-7.03223l-1.58496-5.07324ZM833.96484,360.18888h5.83789l-2.92871-9.41992-2.90918,9.41992Z"/>
      <path class="cls-5" d="M863.90039,355.82365l-2.07129-.14844c-1.97656,0-3.24512.62207-3.80469,1.86523v12.77734h-6.28613v-20.18262h5.89453l.20508,2.59277c1.05664-1.97754,2.53027-2.96582,4.4209-2.96582.6709,0,1.25586.07422,1.75293.22363l-.11133,5.83789Z"/>
      <path class="cls-5" d="M871.70996,350.13517l.20508,2.36816c1.42969-1.82715,3.35059-2.74121,5.76367-2.74121,2.54883,0,4.27148,1.01367,5.16699,3.04004,1.36816-2.02637,3.34473-3.04004,5.93164-3.04004,4.0918,0,6.19336,2.47461,6.30469,7.42383v13.13184h-6.30469v-12.74023c0-1.03223-.17383-1.78418-.52246-2.25684-.34766-.47266-.98242-.70898-1.90234-.70898-1.24316,0-2.16992.55371-2.7793,1.66016l.01855.26074v13.78516h-6.30469v-12.70312c0-1.05664-.16797-1.82129-.50391-2.29395s-.97656-.70898-1.9209-.70898c-1.20605,0-2.12695.55371-2.76074,1.66016v14.0459h-6.28613v-20.18262h5.89453Z"/>
      <path class="cls-5" d="M908.94238,364.64689c0-.53418-.28027-.96289-.83984-1.28711-.55957-.32324-1.62305-.65918-3.18945-1.00684-1.56738-.34863-2.86035-.80469-3.87988-1.37109-1.01953-.56543-1.79688-1.25293-2.33203-2.06152-.53418-.80762-.80176-1.73438-.80176-2.7793,0-1.85254.76465-3.37891,2.29395-4.5791,1.53027-1.2002,3.53223-1.7998,6.00684-1.7998,2.66113,0,4.7998.60254,6.41699,1.80859,1.61621,1.20703,2.4248,2.79199,2.4248,4.75684h-6.30469c0-1.61621-.85254-2.4248-2.55566-2.4248-.65918,0-1.21289.18359-1.66016.55078-.44824.36621-.67188.82324-.67188,1.37012,0,.55957.27344,1.01367.82129,1.3623.54688.34766,1.41992.63379,2.62012.85742,1.2002.22461,2.25391.49219,3.16211.80273,3.03418,1.04395,4.55176,2.91602,4.55176,5.61426,0,1.84082-.81836,3.33887-2.45312,4.49609-1.63574,1.15625-3.75293,1.73438-6.35156,1.73438-1.72852,0-3.27051-.31055-4.62598-.93262s-2.41309-1.4668-3.1709-2.53711c-.75879-1.06934-1.1377-2.19434-1.1377-3.37598h5.875c.02539.93262.33594,1.61328.93262,2.04199.59766.42969,1.3623.64355,2.29492.64355.8584,0,1.50195-.17383,1.93066-.52148.42871-.34863.64355-.80273.64355-1.3623Z"/>
      <path class="cls-5" d="M944.58887,358.79045h-10.2959v6.49121h12.16211v5.03613h-18.70996v-27.15918h18.74707v5.05469h-12.19922v5.72656h10.2959v4.85059Z"/>
      <path class="cls-5" d="M957.49707,355.69377l2.92871-5.55859h6.52832l-5.31641,9.83008,5.57812,10.35254h-6.56641l-3.1709-5.96875-3.11523,5.96875h-6.60352l5.5957-10.35254-5.29688-9.83008h6.60352l2.83496,5.55859Z"/>
      <path class="cls-5" d="M987.52539,360.37541c0,3.13379-.70605,5.63672-2.11719,7.50781-1.41113,1.87207-3.31738,2.80762-5.7168,2.80762-1.85352,0-3.37695-.67773-4.57031-2.0332v9.41992h-6.28613v-27.94238h5.87598l.18652,1.86523c1.20605-1.49219,2.79102-2.23828,4.75586-2.23828,2.4873,0,4.4209.91699,5.80176,2.75098,1.37988,1.83398,2.07031,4.35547,2.07031,7.56445v.29785ZM981.23926,359.98381c0-3.58105-1.04492-5.37207-3.13379-5.37207-1.49219,0-2.4873.53516-2.98438,1.60449v7.94629c.54688,1.11914,1.55469,1.67871,3.02148,1.67871,2.00195,0,3.03418-1.72852,3.09668-5.18555v-.67188Z"/>
      <path class="cls-5" d="M989.31152,360.03947c0-2.01465.3916-3.80762,1.17578-5.38086.7832-1.57324,1.9082-2.78223,3.37598-3.62891,1.4668-.84473,3.18945-1.26758,5.16699-1.26758,3.02148,0,5.40332.93555,7.14453,2.80664,1.74023,1.87207,2.61133,4.41797,2.61133,7.63867v.22363c0,3.14648-.87402,5.64355-2.62109,7.49023s-4.11328,2.76953-7.09766,2.76953c-2.87207,0-5.17969-.86133-6.91992-2.58301-1.74121-1.72266-2.68066-4.05762-2.81738-7.00488l-.01855-1.06348ZM995.59766,360.43107c0,1.86621.29199,3.2334.87695,4.10449.58398.87012,1.44824,1.30566,2.59277,1.30566,2.23828,0,3.38281-1.72266,3.43262-5.16699v-.63477c0-3.61816-1.15723-5.42773-3.46973-5.42773-2.10156,0-3.23926,1.56055-3.41406,4.68164l-.01855,1.1377Z"/>
      <path class="cls-5" d="M1023.5127,355.82365l-2.07129-.14844c-1.97656,0-3.24512.62207-3.80469,1.86523v12.77734h-6.28613v-20.18262h5.89453l.20508,2.59277c1.05664-1.97754,2.53027-2.96582,4.4209-2.96582.6709,0,1.25586.07422,1.75293.22363l-.11133,5.83789Z"/>
      <path class="cls-5" d="M1033.53906,345.11662v5.01855h3.32031v4.36426h-3.32031v9.2334c0,.75879.13672,1.28711.41016,1.58594s.81445.44727,1.62305.44727c.62207,0,1.14453-.03711,1.56738-.11133v4.49512c-1.13184.36035-2.31348.54102-3.54395.54102-2.16406,0-3.7627-.50977-4.79395-1.5293-1.0332-1.01953-1.54883-2.56836-1.54883-4.64453v-10.01758h-2.57422v-4.36426h2.57422v-5.01855h6.28613Z"/>
      <path class="cls-5" d="M1050.03223,364.64689c0-.53418-.28027-.96289-.83984-1.28711-.55957-.32324-1.62305-.65918-3.18945-1.00684-1.56738-.34863-2.86035-.80469-3.87988-1.37109-1.01953-.56543-1.79688-1.25293-2.33203-2.06152-.53418-.80762-.80176-1.73438-.80176-2.7793,0-1.85254.76465-3.37891,2.29395-4.5791,1.53027-1.2002,3.53223-1.7998,6.00684-1.7998,2.66113,0,4.7998.60254,6.41699,1.80859,1.61621,1.20703,2.4248,2.79199,2.4248,4.75684h-6.30469c0-1.61621-.85254-2.4248-2.55566-2.4248-.65918,0-1.21289.18359-1.66016.55078-.44824.36621-.67188.82324-.67188,1.37012,0,.55957.27344,1.01367.82129,1.3623.54688.34766,1.41992.63379,2.62012.85742,1.2002.22461,2.25391.49219,3.16211.80273,3.03418,1.04395,4.55176,2.91602,4.55176,5.61426,0,1.84082-.81836,3.33887-2.45312,4.49609-1.63574,1.15625-3.75293,1.73438-6.35156,1.73438-1.72852,0-3.27051-.31055-4.62598-.93262s-2.41309-1.4668-3.1709-2.53711c-.75879-1.06934-1.1377-2.19434-1.1377-3.37598h5.875c.02539.93262.33594,1.61328.93262,2.04199.59766.42969,1.3623.64355,2.29492.64355.8584,0,1.50195-.17383,1.93066-.52148.42871-.34863.64355-.80273.64355-1.3623Z"/>
    </g>
    <g>
      <polygon class="cls-1" points="850.02654 187.85769 1113.91497 187.85769 1113.91497 542.23353 1143.07981 542.23353 1143.07981 163.18 850.02654 163.18 850.02654 187.85769"/>
      <path class="cls-4" d="M1168.8801,137.3797h-344.65386v50.47798h-54.96513v430.65412h344.65386v-50.47798h54.96513V137.3797ZM1088.11468,592.71151h-293.05327V213.65798h293.05327v379.05353ZM1143.07981,542.23353h-29.16484V187.85769h-263.88843v-24.67769h293.05327v379.05353Z"/>
    </g>
    <rect class="cls-4" x="823.1254" y="413.09336" width="185.2516" height="21.50061"/>
    <rect class="cls-4" x="823.1254" y="460.27328" width="122.05969" height="21.49952"/>
    <path class="cls-6" d="M1059.18635,514.71227c0,5.70349-2.53839,9.95522-7.61627,12.74211,4.23102,3.19779,6.34653,7.7111,6.34653,13.54101,0,5.48768-2.15568,9.78628-6.46751,12.90996-4.30622,3.11605-10.25712,4.67461-17.83961,4.67461-8.05442,0-14.33446-1.67192-18.83469-5.02447-4.49369-3.35147-6.74326-8.20809-6.74326-14.56117l13.58788-.04687c0,2.79343,1.00054,4.94273,3.00923,6.43372,2.0087,1.49862,4.99723,2.24412,8.98084,2.24412,3.51277,0,6.17215-.59182,7.99229-1.76674,1.82139-1.18255,2.72695-2.76074,2.72695-4.74219,0-2.04903-1.00707-3.71441-3.03539-5.00377-2.01524-1.28936-5.89095-2.72695-11.60643-4.30623-5.7231-1.58473-10.03462-3.23703-12.9372-4.96344-2.89479-1.72641-5.05717-3.76127-6.48822-6.1122-1.42342-2.35093-2.13622-5.18578-2.13622-8.51,0-5.64245,2.53948-9.92034,7.61736-12.83584-4.26465-3.23049-6.39449-7.74488-6.39449-13.54101,0-5.36017,2.2027-9.68601,6.60935-12.97644,4.3998-3.29152,10.3507-4.93728,17.83945-4.93728,7.74488,0,13.74265,1.77328,18.00761,5.3133,4.26574,3.54002,6.39433,8.46313,6.39433,14.76389h-13.58772c0-2.72695-.9669-4.93074-2.88826-6.60266-1.93474-1.67955-4.5745-2.51878-7.92596-2.51878-3.4452,0-6.11205.61144-7.99338,1.83322-1.88009,1.22179-2.82068,2.90133-2.82068,5.03101,0,2.2899.87302,4.00977,2.60597,5.17161,1.74728,1.16184,5.51493,2.5057,11.31106,4.04356,5.79722,1.53786,10.22333,3.164,13.28597,4.89042,3.04956,1.72532,5.31984,3.78089,6.79121,6.18523,1.47029,2.39126,2.20924,5.28714,2.20924,8.67131ZM1025.24009,504.22736c-2.35078,1.3177-3.52694,3.52694-3.52694,6.62991,0,2.16238.65176,3.83539,1.95529,5.00377,1.2959,1.18255,3.88879,2.39126,7.77758,3.64683l10.43805,3.15092c2.57218-1.47138,3.85609-3.66754,3.85609-6.58304,0-1.94113-.7128-3.53239-2.13622-4.76835-1.43105-1.24249-3.99015-2.48499-7.69148-3.74165l-10.67238-3.33839Z"/>
    <g>
      <rect class="cls-1" x="150.57536" y="295.82425" width="269.27532" height="51.23169"/>
      <path class="cls-5" d="M168.05371,319.40177h-8.97266l-1.56641,5.07324h-6.99512l9.96094-27.15918h6.15527l10.03516,27.15918h-7.03223l-1.58496-5.07324ZM160.64844,314.34611h5.83789l-2.92871-9.41992-2.90918,9.41992Z"/>
      <path class="cls-5" d="M198.68652,302.37052h-8.15234v22.10449h-6.54688v-22.10449h-8.00195v-5.05469h22.70117v5.05469Z"/>
      <path class="cls-5" d="M224.02148,302.37052h-8.15234v22.10449h-6.54688v-22.10449h-8.00195v-5.05469h22.70117v5.05469Z"/>
    </g>
    <g>
      <polygon class="cls-1" points="176.70965 187.85769 440.59809 187.85769 440.59809 542.23353 469.76292 542.23353 469.76292 163.18 176.70965 163.18 176.70965 187.85769"/>
      <path class="cls-4" d="M495.56322,137.3797H150.90936v50.47798h-54.96513v430.65412h344.65386v-50.47798h54.96513V137.3797ZM414.79779,592.71151H121.74452V213.65798h293.05327v379.05353ZM469.76292,542.23353h-29.16484V187.85769H176.70965v-24.67769h293.05327v379.05353Z"/>
    </g>
    <rect class="cls-4" x="149.80851" y="413.09336" width="211.17239" height="21.50061"/>
    <rect class="cls-4" x="149.80851" y="365.45651" width="185.2516" height="21.50061"/>
    <rect class="cls-4" x="149.80851" y="460.27328" width="122.05969" height="21.49952"/>
    <path class="cls-6" d="M385.86947,514.71227c0,5.70349-2.53839,9.95522-7.61627,12.74211,4.23102,3.19779,6.34653,7.7111,6.34653,13.54101,0,5.48768-2.15568,9.78628-6.46751,12.90996-4.30622,3.11605-10.25712,4.67461-17.83961,4.67461-8.05442,0-14.33446-1.67192-18.83469-5.02447-4.49369-3.35147-6.74326-8.20809-6.74326-14.56117l13.58788-.04687c0,2.79343,1.00054,4.94273,3.00923,6.43372,2.0087,1.49862,4.99723,2.24412,8.98084,2.24412,3.51277,0,6.17215-.59182,7.99229-1.76674,1.82139-1.18255,2.72695-2.76074,2.72695-4.74219,0-2.04903-1.00707-3.71441-3.03539-5.00377-2.01524-1.28936-5.89095-2.72695-11.60643-4.30623-5.7231-1.58473-10.03462-3.23703-12.9372-4.96344-2.89479-1.72641-5.05717-3.76127-6.48822-6.1122-1.42342-2.35093-2.13622-5.18578-2.13622-8.51,0-5.64245,2.53948-9.92034,7.61736-12.83584-4.26465-3.23049-6.39449-7.74488-6.39449-13.54101,0-5.36017,2.2027-9.68601,6.60935-12.97644,4.3998-3.29152,10.3507-4.93728,17.83945-4.93728,7.74488,0,13.74265,1.77328,18.00761,5.3133,4.26574,3.54002,6.39433,8.46313,6.39433,14.76389h-13.58772c0-2.72695-.9669-4.93074-2.88826-6.60266-1.93474-1.67955-4.5745-2.51878-7.92596-2.51878-3.4452,0-6.11205.61144-7.99338,1.83322-1.88009,1.22179-2.82068,2.90133-2.82068,5.03101,0,2.2899.87302,4.00977,2.60597,5.17161,1.74728,1.16184,5.51493,2.5057,11.31106,4.04356,5.79722,1.53786,10.22333,3.164,13.28597,4.89042,3.04956,1.72532,5.31984,3.78089,6.79121,6.18523,1.47029,2.39126,2.20924,5.28714,2.20924,8.67131ZM351.9232,504.22736c-2.35078,1.3177-3.52694,3.52694-3.52694,6.62991,0,2.16238.65176,3.83539,1.95529,5.00377,1.2959,1.18255,3.88879,2.39126,7.77758,3.64683l10.43805,3.15092c2.57218-1.47138,3.85609-3.66754,3.85609-6.58304,0-1.94113-.7128-3.53239-2.13622-4.76835-1.43105-1.24249-3.99015-2.48499-7.69148-3.74165l-10.67238-3.33839Z"/>
    <g>
      <rect class="cls-1" x="1497.06184" y="289.56797" width="268.54933" height="142.01099"/>
      <path class="cls-5" d="M1523.28516,296.91447h-9.14551v24.7998h-7.34668v-24.7998h-8.97754v-5.67188h25.46973v5.67188Z"/>
      <path class="cls-5" d="M1538.77539,310.93595h-3.97559v10.77832h-7.34668v-30.47168h11.99219c3.61328,0,6.43945.80176,8.47656,2.4043s3.05566,3.86719,3.05566,6.79395c0,2.11914-.42969,3.875-1.28711,5.26855-.8584,1.39355-2.20117,2.52344-4.0293,3.38672l6.3623,12.30371v.31445h-7.86914l-5.37891-10.77832ZM1534.7998,305.28556h4.64551c1.39551,0,2.44531-.36719,3.15039-1.10156.7041-.73438,1.05664-1.75879,1.05664-3.07422,0-1.31445-.35645-2.3457-1.06738-3.09375-.71191-.74902-1.75781-1.12305-3.13965-1.12305h-4.64551v8.39258Z"/>
      <path class="cls-5" d="M1575.38477,308.78068h-11.55176v7.2832h13.64453v5.65039h-20.99121v-30.47168h21.0332v5.67188h-13.68652v6.4248h11.55176v5.44141Z"/>
      <path class="cls-5" d="M1598.85059,316.02189h-10.06738l-1.75781,5.69238h-7.84766l11.17578-30.47168h6.90625l11.25977,30.47168h-7.89062l-1.77832-5.69238ZM1590.54199,310.35002h6.5498l-3.28516-10.56836-3.26465,10.56836Z"/>
      <path class="cls-5" d="M1633.21875,296.91447h-9.14551v24.7998h-7.34668v-24.7998h-8.97754v-5.67188h25.46973v5.67188Z"/>
      <path class="cls-5" d="M1648.87695,304.46916l5.6084-13.22656h7.93262l-9.81543,19.52637v10.94531h-7.45117v-10.94531l-9.79395-19.52637h7.88965l5.62988,13.22656Z"/>
      <path class="cls-5" d="M1525.16895,358.53947c0,2.97168-.55176,5.60254-1.65332,7.89062-1.10254,2.28809-2.66895,4.0498-4.69922,5.28418-2.0293,1.23438-4.34277,1.85254-6.9375,1.85254s-4.89746-.59668-6.90625-1.79004c-2.00977-1.19238-3.5752-2.89844-4.69824-5.11719-1.12402-2.21777-1.71289-4.76367-1.76855-7.63867v-1.71582c0-2.98535.54688-5.61914,1.64258-7.90039,1.09473-2.28125,2.66504-4.04297,4.70898-5.28516,2.04395-1.24121,4.37012-1.8623,6.97949-1.8623,2.58105,0,4.88379.61426,6.90625,1.8418,2.02344,1.22754,3.59668,2.97559,4.71973,5.24219,1.12305,2.26758,1.69141,4.86621,1.70605,7.7959v1.40234ZM1517.69727,357.2631c0-3.02734-.50586-5.32617-1.51758-6.89551-1.01172-1.57031-2.45898-2.35449-4.34277-2.35449-3.68359,0-5.62988,2.76172-5.83887,8.28711l-.02051,2.23926c0,2.98633.49414,5.28125,1.48535,6.88574.99023,1.60449,2.46289,2.40723,4.41602,2.40723,1.85547,0,3.28613-.78809,4.29004-2.36523,1.00488-1.57617,1.51367-3.84375,1.52832-6.80176v-1.40234Z"/>
      <path class="cls-5" d="M1549.21875,361.0092h-11.84473v12.13867h-7.34668v-30.47168h20.38477v5.67188h-13.03809v7.01074h11.84473v5.65039Z"/>
      <path class="cls-5" d="M1573.63086,367.49748h12.78711v5.65039h-20.13379v-30.47168h7.34668v24.82129Z"/>
      <path class="cls-5" d="M1598.41406,373.14787h-7.3252v-30.47168h7.3252v30.47168Z"/>
      <path class="cls-5" d="M1620.30859,365.04826c0-1.07422-.38086-1.91113-1.14062-2.51074-.76074-.60059-2.09668-1.2207-4.00781-1.86328-1.91211-.6416-3.47461-1.2627-4.68848-1.8623-3.94824-1.93945-5.92188-4.60449-5.92188-7.99512,0-1.6875.49121-3.17676,1.47461-4.46777.98438-1.29004,2.37598-2.29492,4.17578-3.01367s3.82227-1.07812,6.06934-1.07812c2.19043,0,4.1543.39062,5.8916,1.17188,1.73633.78223,3.08691,1.89453,4.04883,3.33789.96289,1.44434,1.44434,3.09473,1.44434,4.9502h-7.3252c0-1.24219-.37988-2.2041-1.14062-2.88867-.76074-.68262-1.78906-1.02539-3.08691-1.02539-1.31152,0-2.34766.29004-3.10742.86914-.76074.5791-1.14062,1.31445-1.14062,2.20801,0,.78125.41797,1.48926,1.25586,2.12402.83691.63477,2.30859,1.29102,4.41602,1.9668,2.10645.67773,3.83594,1.40625,5.18945,2.1875,3.29297,1.89746,4.93945,4.51367,4.93945,7.84766,0,2.66504-1.00488,4.75879-3.01367,6.2793s-4.76465,2.28125-8.2666,2.28125c-2.46973,0-4.70605-.44336-6.70801-1.3291s-3.50879-2.09961-4.52051-3.6416-1.5166-3.31738-1.5166-5.32617h7.36621c0,1.63184.42188,2.83594,1.2666,3.60938.84375.77441,2.21484,1.16211,4.1123,1.16211,1.21387,0,2.17285-.26172,2.87793-.78516.7041-.52344,1.05664-1.25879,1.05664-2.20801Z"/>
      <path class="cls-5" d="M1632.49316,373.14787v-30.47168h10.94629c3.91992,0,6.90234.71875,8.94629,2.15527,2.04395,1.4375,3.06641,3.52344,3.06641,6.25781,0,1.57715-.36328,2.92285-1.08789,4.03906-.72559,1.11621-1.79297,1.93945-3.20215,2.46973,1.58984.41895,2.81055,1.2002,3.66211,2.34375.85059,1.14453,1.27637,2.54004,1.27637,4.18555,0,2.98633-.94531,5.22949-2.83594,6.72852-1.89062,1.5-4.69141,2.26465-8.40234,2.29199h-12.36914ZM1639.83984,355.37931h3.8291c1.60449-.01367,2.74902-.30762,3.43262-.88184.68359-.57324,1.02539-1.41992,1.02539-2.53906,0-1.28809-.37012-2.21484-1.10938-2.78125-.73926-.56738-1.93262-.85059-3.57812-.85059h-3.59961v7.05273ZM1639.83984,360.19279v7.30469h4.81348c1.3252,0,2.34375-.30371,3.05566-.91113.71094-.60645,1.06738-1.46094,1.06738-2.56348,0-2.53906-1.26367-3.81543-3.78809-3.83008h-5.14844Z"/>
      <path class="cls-5" d="M1687.0166,358.53947c0,2.97168-.55176,5.60254-1.65332,7.89062-1.10254,2.28809-2.66895,4.0498-4.69922,5.28418-2.0293,1.23438-4.34277,1.85254-6.9375,1.85254s-4.89746-.59668-6.90625-1.79004c-2.00977-1.19238-3.5752-2.89844-4.69824-5.11719-1.12402-2.21777-1.71289-4.76367-1.76855-7.63867v-1.71582c0-2.98535.54688-5.61914,1.64258-7.90039,1.09473-2.28125,2.66504-4.04297,4.70898-5.28516,2.04395-1.24121,4.37012-1.8623,6.97949-1.8623,2.58105,0,4.88379.61426,6.90625,1.8418,2.02344,1.22754,3.59668,2.97559,4.71973,5.24219,1.12305,2.26758,1.69141,4.86621,1.70605,7.7959v1.40234ZM1679.54492,357.2631c0-3.02734-.50586-5.32617-1.51758-6.89551-1.01172-1.57031-2.45898-2.35449-4.34277-2.35449-3.68359,0-5.62988,2.76172-5.83887,8.28711l-.02051,2.23926c0,2.98633.49414,5.28125,1.48535,6.88574.99023,1.60449,2.46289,2.40723,4.41602,2.40723,1.85547,0,3.28613-.78809,4.29004-2.36523,1.00488-1.57617,1.51367-3.84375,1.52832-6.80176v-1.40234Z"/>
      <path class="cls-5" d="M1717.32422,373.14787h-7.30371l-10.79883-18.96094v18.96094h-7.34668v-30.47168h7.34668l10.77734,18.96094v-18.96094h7.3252v30.47168Z"/>
    </g>
    <g>
      <polygon class="cls-1" points="1523.12567 189.01875 1786.30265 189.01875 1786.30265 542.43918 1815.38885 542.43918 1815.38885 164.4076 1523.12567 164.4076 1523.12567 189.01875"/>
      <path class="cls-4" d="M1841.11959,138.67686h-343.72465v50.34189h-54.81694v429.49305h343.72465v-50.34189h54.81694V138.67686ZM1760.57191,592.78107h-292.26318V214.74949h292.26318v378.03158ZM1815.38885,542.43918h-29.08621V189.01875h-263.17697v-24.61116h292.26318v378.03158Z"/>
    </g>
    <rect class="cls-4" x="1496.29706" y="411.27176" width="184.75215" height="21.44264"/>
    <rect class="cls-4" x="1496.29706" y="458.32448" width="121.73061" height="21.44155"/>
    <path class="cls-6" d="M1731.72158,514.99212c0,5.68811-2.53155,9.92838-7.59574,12.70776,4.21961,3.18917,6.32942,7.69031,6.32942,13.50451,0,5.47289-2.14987,9.7599-6.45008,12.87515-4.29462,3.10764-10.22947,4.66201-17.79151,4.66201-8.0327,0-14.29582-1.66741-18.78391-5.01093-4.48157-3.34243-6.72508-8.18596-6.72508-14.52191l13.55124-.04674c0,2.7859.99784,4.92941,3.00112,6.41638,2.00328,1.49458,4.98375,2.23807,8.95663,2.23807,3.5033,0,6.15551-.59022,7.97074-1.76198,1.81648-1.17936,2.7196-2.75329,2.7196-4.7294,0-2.0435-1.00436-3.70439-3.02721-4.99028-2.00981-1.28588-5.87507-2.7196-11.57513-4.29462-5.70768-1.58045-10.00757-3.2283-12.90232-4.95006-2.88699-1.72176-5.04354-3.75113-6.47073-6.09572-1.41958-2.34459-2.13046-5.1718-2.13046-8.48706,0-5.62724,2.53264-9.89359,7.59683-12.80124-4.25316-3.22178-6.37725-7.724-6.37725-13.50451,0-5.34571,2.19676-9.6599,6.59154-12.94146,4.38794-3.28265,10.32279-4.92397,17.79136-4.92397,7.724,0,13.70559,1.7685,17.95906,5.29897,4.25424,3.53048,6.37709,8.44032,6.37709,14.72408h-13.55109c0-2.7196-.9643-4.91745-2.88047-6.58486-1.92953-1.67502-4.56216-2.51199-7.90459-2.51199-3.43591,0-6.09557.60979-7.97183,1.82828-1.87502,1.21849-2.81308,2.89351-2.81308,5.01745,0,2.28372.87066,3.99896,2.59894,5.15767,1.74257,1.15871,5.50006,2.49894,11.28057,4.03266,5.78159,1.53371,10.19577,3.15547,13.25015,4.87723,3.04134,1.72067,5.3055,3.7707,6.7729,6.16855,1.46632,2.38481,2.20329,5.27289,2.20329,8.64793ZM1697.86683,504.53548c-2.34444,1.31415-3.51743,3.51743-3.51743,6.61203,0,2.15655.65001,3.82504,1.95002,4.99028,1.29241,1.17936,3.87831,2.38481,7.75661,3.637l10.4099,3.14243c2.56525-1.46741,3.8457-3.65765,3.8457-6.56529,0-1.93589-.71088-3.52287-2.13046-4.75549-1.42719-1.23914-3.97939-2.47829-7.67074-3.73157l-10.6436-3.32939Z"/>
  </g>
</svg>