<?xml version="1.0" encoding="UTF-8"?>
<svg id="Ebene_2" data-name="Ebene 2" xmlns="http://www.w3.org/2000/svg" xmlns:xlink="http://www.w3.org/1999/xlink" viewBox="0 0 1920 1280">
  <defs>
    <style>
      .cls-1 {
        fill: none;
      }

      .cls-2 {
        stroke-width: 22.45536px;
      }

      .cls-2, .cls-3, .cls-4, .cls-5 {
        fill: #fff;
      }

      .cls-2, .cls-4, .cls-5, .cls-6, .cls-7, .cls-8 {
        stroke-miterlimit: 10;
      }

      .cls-2, .cls-8 {
        stroke: #aebfc7;
      }

      .cls-9, .cls-6, .cls-7 {
        fill: #0d435c;
      }

      .cls-10 {
        clip-path: url(#clippath-1);
      }

      .cls-11, .cls-8 {
        fill: #aebfc7;
      }

      .cls-12 {
        fill: #f3f5f7;
      }

      .cls-13 {
        fill: #0c425b;
      }

      .cls-14 {
        fill: #0d425b;
      }

      .cls-15 {
        fill: #fac100;
      }

      .cls-4 {
        stroke-width: 7.31724px;
      }

      .cls-4, .cls-5 {
        stroke: #fff;
      }

      .cls-5 {
        stroke-width: 7px;
      }

      .cls-6 {
        stroke-width: 15.77317px;
      }

      .cls-6, .cls-7 {
        stroke: #0d435c;
      }

      .cls-7 {
        stroke-width: 6.37754px;
      }

      .cls-8 {
        stroke-width: 7.17631px;
      }

      .cls-16 {
        clip-path: url(#clippath);
      }
    </style>
    <clipPath id="clippath">
      <rect class="cls-1" x="1218.08272" y="932.42683" width="207.36302" height="295.86"/>
    </clipPath>
    <clipPath id="clippath-1">
      <rect class="cls-1" x="478.24807" y="932.42683" width="207.36302" height="295.86"/>
    </clipPath>
  </defs>
  <rect class="cls-12" x=".7513" y="6.7955" width="1918.49741" height="1276.44746"/>
  <rect class="cls-3" x="836.88172" y="560.96774" width="311.82796" height="399.7254"/>
  <circle class="cls-3" cx="1314.93661" cy="545.08852" r="82.30587"/>
  <path class="cls-5" d="M1242.38999,874.13389c-.13079-37.56514.3209-111.44757,1.42523-122.8297,4.86371-50.13407,25.89088-70.58568,72.58279-70.58568,61.74745,0,69.53872,28.59605,75.03706,75.69141,2.06703,17.73561,2.10827,90.75225,1.57941,120.07974l-150.62449-2.35577Z"/>
  <path class="cls-4" d="M499.06009,879.96041c-.13672-39.26758-4.28907-122.43161-3.13469-134.32957,5.08413-52.40612,27.06424-73.78459,75.87221-73.78459,64.54582,0,72.69018,29.89201,78.4377,79.12171,2.16071,18.53938,2.20381,94.8651,1.65098,125.52169l-152.82621,3.47075Z"/>
  <path class="cls-3" d="M1647.73181,473.05113l-33.88342-66.28436c16.0647-24.492,25.40869-53.73761,25.40869-85.15637,0-86.22894-70.32104-156.13123-157.06665-156.13123s-157.06689,69.90228-157.06689,156.13123,70.32129,156.13123,157.06689,156.13123c13.22168,0,26.05835-1.63232,38.32617-4.69049h127.21521Z"/>
  <path class="cls-3" d="M220.59074,382.00773l33.88342-66.28436c-16.0647-24.492-25.40869-53.73761-25.40869-85.15637,0-86.22894,70.32104-156.13123,157.06665-156.13123,86.74561,0,157.06689,69.90228,157.06689,156.13123s-70.32129,156.13123-157.06689,156.13123c-13.22168,0-26.05835-1.63232-38.32617-4.69049h-127.21521Z"/>
  <circle class="cls-3" cx="176.81354" cy="599.78243" r="82.30587"/>
  <circle class="cls-3" cx="574.56396" cy="542.47547" r="82.30587"/>
  <circle class="cls-3" cx="1750.97918" cy="604.42025" r="82.30587"/>
  <g>
    <path class="cls-3" d="M1561.50781,1235.42344c-19.31055,0-40.21973-7.17871-40.49805-22.94043-.1748-10.06934-.69434-23.37012-1.2959-38.77051l-.0293-.74219c-2.30371-58.83887-5.78613-147.7334,4.44336-189.24707l.14941-.60547.37891-.49609c9.5957-12.57715,81.62793-13.21387,95.9707-13.21387,17.17383,0,34.7041.55762,52.10645,1.65723l8.71582.55078-.63477-8.71094c-.07617-1.05469-7.58984-105.96191-1.75488-156.00586,5.95312-51.02148,12.77832-79.89355,83.75977-79.99023h.19043c22.99414,0,39.86035,5.89648,51.56152,18.02539,11.5918,12.0166,18.46387,30.59961,21.00879,56.80859,3.43262,35.35059-1.45508,151.27539-1.66406,156.19238l-.02734.63574.06445.58398c.43262,3.88965,9.76465,95.39453-61.31738,104.87305-30.18457,4.02441-64.39844,6.06445-101.69141,6.06445-34.44629,0-58.61523-1.79785-58.84375-1.81641l-8.02441-.6123-.15918,8.05762c-.0166.81348-1.72168,87.81934-1.71777,137.78418,0,14.00391-20.60742,21.74414-39.99707,21.91797h-.69434Z"/>
    <path class="cls-3" d="M1763.00964,729.90904c43.86597,0,64.67834,21.58014,69.58374,72.12341,3.47388,35.77008-1.62537,154.61536-1.67664,155.81116l-.03467.83008.0896.81177c.41858,3.77191,9.42883,92.48035-58.73254,101.56915-35.63391,4.75043-72.1582,6.03796-101.2926,6.03796-34.16455,0-58.16443-1.77167-58.60852-1.80725l-11.19873-.85376-.22119,11.2298c-.01831.87213-1.72241,87.59686-1.71875,137.84387,0,11.63928-18.82483,18.75525-37.02429,18.91797h-.66736c-18.57251,0-37.26562-6.80884-37.4978-19.99304-.1792-10.2627-.71313-23.84735-1.32739-39.57678-2.29834-58.69403-5.77039-147.30566,4.35876-188.41266,5.67847-7.4425,44.86646-12.03314,93.58557-12.03314,16.521,0,34.13977.52802,51.91724,1.65167l12.14771.76794-.88501-12.14032c-.07678-1.04761-7.59497-105.4635-1.76794-155.43988,5.922-50.75531,12.20605-77.24469,80.7843-77.33795h.18652M1763.00964,723.90904h-.18652c-34.75415.04724-55.87329,6.77533-68.48572,21.81531-12.01025,14.32202-15.25903,35.12268-18.25818,60.82721-5.91125,50.6991,1.66638,155.52142,1.74365,156.57428l.38489,5.27948-5.28516-.33411c-17.4646-1.10394-35.05945-1.66364-52.29578-1.66364-24.56165,0-46.5813,1.13147-63.67847,3.27209-25.66663,3.21362-32.0144,7.63159-34.67725,11.12152l-.75708.99225-.29858,1.21173c-10.32996,41.92224-6.83948,131.06274-4.52979,190.04889l.02869.73206c.60156,15.40167,1.12109,28.703,1.29639,38.74866.14856,8.42847,5.57764,15.62012,15.28735,20.25146,7.62097,3.63501,17.63928,5.63696,28.20959,5.63696h.69421l.02673-.00024c21.35364-.19092,42.9707-8.81128,42.9707-24.91772-.00366-49.80151,1.7002-136.89789,1.71741-137.71796l.09631-4.8905,4.8689.37122c.2041.01642,24.31042,1.82458,59.06458,1.82458,37.42358,0,71.77014-2.04913,102.08545-6.09058,30.60144-4.08051,51.3822-23.86298,60.09595-57.20886,6.45593-24.70551,4.09741-48.35419,3.80713-50.96942l-.03918-.35547.01562-.37463c.21069-4.91132,5.12842-120.86359,1.65381-156.64117-5.20471-53.62799-28.50696-77.5434-75.55566-77.5434h0Z"/>
  </g>
  <g>
    <path class="cls-3" d="M369.75755,1231.5222c-19.41699-.17383-40.02441-7.91406-40.02441-21.91797.00391-49.96484-1.70117-136.9707-1.71777-137.78027l-.15918-8.06152-8.0332.61328c-.21973.01758-24.38867,1.81543-58.83496,1.81543-37.29297,0-71.50684-2.04004-101.69141-6.06445-29.29492-3.90625-49.20898-22.92285-57.58984-54.99316-6.32129-24.18848-4.01172-47.32227-3.72754-49.88086l.06445-.58301-.02539-.60059c-.21094-4.95215-5.09863-120.87695-1.66602-156.22754,2.54492-26.20898,9.41699-44.79199,21.00879-56.80859,11.70117-12.12891,28.56738-18.02539,51.56152-18.02539h.18652c70.98535.09668,77.81055,28.96875,83.76367,79.99023,5.89648,50.56641-1.67773,154.95996-1.75488,156.00879l-.63477,8.70801,8.71582-.55078c17.40234-1.09961,34.93262-1.65723,52.10645-1.65723,14.34277,0,86.375.63672,95.9707,13.21387l.37891.49609.14941.60547c10.22949,41.51367,6.74707,130.4082,4.44336,189.23047l-.0293.75879c-.60156,15.40039-1.12109,28.70117-1.2959,38.76953-.27832,15.7627-21.1875,22.94141-40.49805,22.94141h-.66699Z"/>
    <path class="cls-3" d="M169.1093,726.0078c68.57816.09326,74.86224,26.58264,80.78433,77.33795,5.827,49.97638-1.69125,154.39227-1.76801,155.43988l-.8851,12.14032,12.1478-.76794c17.7818-1.12396,35.39276-1.65167,51.91727-1.65167,48.71353,0,87.9075,4.59125,93.58557,12.03314,10.12906,41.10699,6.65707,129.71863,4.35876,188.41266-.61432,15.72943-1.14822,29.31409-1.32739,39.57678-.23215,13.1842-18.92538,19.99304-37.49783,19.99304h-.66739c-18.19946-.16272-37.02432-7.27869-37.02432-18.91797.00369-50.24701-1.70038-136.97174-1.7186-137.84387l-.22122-11.2298-11.19879.85376c-.44412.03564-24.43781,1.80725-58.60858,1.80725-29.13251,0-65.66342-1.28821-101.29256-6.03796-68.16132-9.08881-59.15115-97.79724-58.73247-101.56915l.08961-.81177-.03477-.83008c-.05115-1.1958-5.15045-120.04108-1.67661-155.81116,4.90538-50.54327,25.71776-72.12341,69.58377-72.12341h.18652M169.11745,720.0078h-.19467c-47.04869,0-70.35092,23.91541-75.55569,77.54376-3.46608,35.68958,1.44292,151.71484,1.65353,156.63654l.01591.3797-.03954.35803c-.28984,2.61133-2.64915,26.25812,3.80746,50.96606,8.71378,33.34589,29.49454,53.12836,60.09578,57.20886,30.31544,4.04144,64.66191,6.09058,102.08553,6.09058,34.75055,0,58.86047-1.80817,59.08823-1.82648l4.84537-.36932.09619,4.88275c.01736.83075,1.72113,87.35626,1.71744,137.72522,0,16.10693,21.617,24.72729,42.9707,24.91821l.02676.00024h.69424c10.57031,0,20.58862-2.00195,28.20963-5.63696,9.70975-4.63135,15.13892-11.82312,15.28729-20.25049.17538-10.04663.69492-23.34796,1.29645-38.74963l.02731-.69861c2.311-59.0188,5.80154-148.15985-4.52844-190.08234l-.29861-1.21173-.75708-.99225c-2.66254-3.48969-9.01056-7.90747-34.67917-11.12128-17.09845-2.14081-39.11746-3.27234-63.67645-3.27234-17.237,0-34.83185.55969-52.29584,1.66364l-5.2851.33411.38507-5.28223c.07703-1.05096,7.65002-105.91266,1.74347-156.57098-1.64746-14.11975-3.1637-24.78143-5.6286-34.29352-2.93546-11.32831-6.9487-19.7597-12.6297-26.53424-12.6124-15.03998-33.73163-21.76807-68.47748-21.81531h0Z"/>
  </g>
  <g>
    <polygon class="cls-1" points="849.03422 598.15277 1107.09859 598.15277 1107.09859 944.70748 1135.61976 944.70748 1135.61976 574.01972 849.03422 574.01972 849.03422 598.15277"/>
    <path class="cls-13" d="M1160.85064,548.78885h-337.04729v49.36393h-53.75204v421.14951h337.04729v-49.36393h53.75204v-421.14951ZM1081.86772,994.0714h-286.58554v-370.68775h286.58554v370.68775ZM1135.61976,944.70748h-28.52117v-346.55471h-258.06437v-24.13305h286.58554v370.68775Z"/>
  </g>
  <rect class="cls-3" x="795.28218" y="623.38365" width="286.58554" height="370.68775"/>
  <path class="cls-11" d="M362.92807,1243.70981c-33.52788-.29401-56.9447-16.48248-56.9447-39.37043.00359-38.59418-1.02724-99.31798-1.47363-123.89111-24.9263,1.30512-87.99501,3.3345-150.12073-4.94797-69.17479-9.22366-79.7215-83.16895-75.62149-121.73623-.48046-11.29966-4.96405-119.54191-1.53459-154.89302,5.84614-60.24693,34.94057-89.53139,88.9595-89.53139h.20796c82.50742.11294,93.43419,39.13021,99.86297,94.24272,4.82427,41.34245.94298,115.71799-.86052,144.58295,13.90989-.60774,38.24638-1.37324,63.26591-.67228,73.03457,2.0509,85.97817,14.72021,89.00432,26.84095,10.76184,43.0348,7.27674,132.05347,4.97307,190.95943-.60057,15.30286-1.11867,28.51896-1.28898,38.35753-.41592,23.67138-24.01917,40.06602-57.52017,40.06602-.30118,0-.60415-.00359-.90892-.00717ZM254.89199,969.55813l-11.90919.75295.86769-11.90382c.0735-1.02724,7.44706-103.40902,1.73179-152.41186-5.80664-49.76655-11.96835-75.73982-79.20877-75.83125h-.18286c-43.0115,0-63.41829,21.15975-68.22822,70.72014-3.40621,35.07323,1.59196,151.60154,1.64395,152.77399l.03406.81391-.08964.79598c-.40875,3.69843-9.24518,90.68054,57.59008,99.59047,75.91013,10.12004,155.97762,4.21295,156.78436,4.14841l10.98234-.83721.21692,11.01282c.01613.85335,1.68697,85.88854,1.68339,135.15671,0,11.4126,18.45808,18.38996,36.30305,18.54951h.65435c18.21075,0,36.54148-6.67618,36.76916-19.60365.17575-10.06267.69738-23.38275,1.29974-38.80393,2.25527-57.55244,5.6579-144.43774-4.2739-184.74399-7.45602-9.77224-73.83234-14.53018-142.6683-10.1792Z"/>
  <path class="cls-11" d="M1411.8442,877.64956c.63822-25.36373,1.01299-99.91855-1.62781-122.53938-5.7851-49.58907-17.46132-94.10109-95.71815-94.10109-75.86351,0-89.58696,51.01968-93.31228,89.40052-1.0666,11.00565-1.51128,90.46671-1.53638,124.88738l20.84064-.04802c-.13079-37.56514.3209-111.44757,1.42523-122.8297,4.86371-50.13407,25.89088-70.58568,72.58279-70.58568,61.74745,0,69.53872,28.59605,75.03706,75.69141,2.06703,17.73561,2.10827,90.75225,1.57941,120.07974l20.72949.04482Z"/>
  <path class="cls-11" d="M1314.93567,639.59656c-51.9035,0-94.12798-42.39659-94.12798-94.50805s42.22448-94.50984,94.12798-94.50984c51.02335,0,94.12977,44.80424,94.12977,97.83896,0,51.12724-41.34604,91.17892-94.12977,91.17892ZM1314.93567,471.40319c-40.42098,0-73.3034,33.05639-73.3034,73.68533s32.88241,73.68533,73.3034,73.68533c41.1076,0,73.30527-30.9051,73.30527-70.35621,0-41.74761-33.56732-77.01446-73.30527-77.01446Z"/>
  <path class="cls-11" d="M669.8224,900.78492h-191.15842l-.23126-10.17382c-.7153-31.40348-.63457-126.72364,1.11509-144.78553,3.72532-38.38084,17.44877-89.40231,93.31228-89.40231,78.25683,0,89.93296,44.51381,95.71815,94.10289,2.64071,22.62083,2.13702,114.74632,1.49873,140.10826l-.25457,10.15051ZM499.06009,879.96041h150.41647c.52886-29.32749.48763-109.28384-1.57941-127.02124-5.49834-47.09537-13.28961-75.69141-75.03706-75.69141-46.692,0-67.71908,20.45162-72.58279,70.58747-1.38041,14.22542-1.74255,98.13118-1.21721,132.12518Z"/>
  <path class="cls-11" d="M573.29932,635.01252c-51.90529,0-94.12977-42.39838-94.12977-94.50984s42.22448-94.50805,94.12977-94.50805c51.02326,0,94.12798,44.80424,94.12798,97.83717,0,51.12904-41.34604,91.18071-94.12798,91.18071ZM573.29932,466.81914c-40.42277,0-73.30527,33.05639-73.30527,73.68354s32.8825,73.68533,73.30527,73.68533c41.10587,0,73.30354-30.9051,73.30354-70.35621,0-41.74761-33.56739-77.01266-73.30354-77.01266Z"/>
  <path class="cls-11" d="M1750.30524,698.9292h-.00368c-52.78374,0-94.12619-40.05168-94.12619-91.18071,0-53.03293,43.10651-97.83717,94.12619-97.83717,51.9036,0,94.12977,42.39838,94.12977,94.50984s-42.22618,94.50805-94.1261,94.50805ZM1750.30524,530.73582c-39.73804,0-73.30527,35.26685-73.30527,77.01266,0,39.4529,32.19767,70.35621,73.30159,70.35621,40.42098,0,73.30527-33.05639,73.30527-73.68354s-32.88429-73.68533-73.30159-73.68533Z"/>
  <path class="cls-11" d="M1563.27901,1248.35481c-33.49911,0-57.10246-16.39464-57.52017-40.06602-.16852-9.83857-.68841-23.05468-1.28719-38.35753-2.30547-58.90596-5.79056-147.92462,4.97128-190.95943,3.02615-12.12074,15.97155-24.79005,89.00432-26.84095,25.02141-.70096,49.35601.06454,63.26591.67228-1.8035-28.86496-5.683-103.2405-.86052-144.58474,6.42878-55.11072,17.35734-94.12798,99.86476-94.24093h.20617c54.01894,0,83.11337,29.28446,88.9595,89.5296,3.43131,35.3511-1.05234,143.59515-1.53459,154.89481,4.1018,38.56729-6.4467,112.51257-75.6197,121.73623-62.12752,8.28247-125.19622,6.25309-150.12252,4.94797-.4463,24.57313-1.47722,85.29693-1.47363,123.89111,0,22.88795-23.41681,39.07642-56.9447,39.37043-.30477.00359-.60595.00717-.90892.00717ZM1529.55572,984.37515c-9.9318,40.30625-6.52738,127.19155-4.2739,184.74219.60236,15.42297,1.12584,28.74305,1.30153,38.80572.22768,12.92747,18.55668,19.60365,36.76737,19.60365h.65435c17.84497-.15955,36.30305-7.13691,36.30305-18.54951-.00359-49.26817,1.66725-134.30336,1.68518-135.1585l.21692-11.01103,10.98055.83721c.80673.06454,80.87423,5.97163,156.78615-4.14841,66.83347-8.91173,57.99883-95.89204,57.58829-99.59047l-.08784-.79598.03406-.81391c.0502-1.17245,5.05016-117.70256,1.64395-152.77579-4.80983-49.55859-25.21673-70.71834-68.22822-70.71834h-.18286c-67.24221.09143-73.40387,26.06469-79.21057,75.83125-5.71347,49.00284,1.65829,151.38462,1.73358,152.41186l.86778,11.90382-11.91108-.75295c-68.83408-4.35099-135.21228.40695-142.6683,10.1792Z"/>
  <path class="cls-11" d="M82.68645,599.78332c0-52.11146,42.22448-94.50984,94.12977-94.50984,51.01973,0,94.1244,44.80424,94.1244,97.83717,0,51.12904-41.34245,91.18071-94.1244,91.18071h-.00359c-51.90171,0-94.12619-42.39659-94.12619-94.50805ZM103.51096,599.78332c0,40.62715,32.8825,73.68354,73.30527,73.68354,41.10222,0,73.30168-30.90331,73.30168-70.35621,0-41.74582-33.56912-77.01266-73.30527-77.01266-40.41919,0-73.30168,33.05639-73.30168,73.68533Z"/>
  <path class="cls-8" d="M197.94729,394.08155l153.48711,5.17846.98438.1885c80.99392,15.55632,161.836-28.82187,192.21307-105.4594,16.90713-42.63982,16.16361-89.37685-2.08666-131.6004-18.25027-42.22355-51.78459-74.78658-94.41917-91.68333-88.16732-34.95591-188.33044,8.34889-223.28111,96.51098-19.62212,49.49382-4.34854,110.863,14.69237,148.37934l3.27253,6.4482-44.86252,72.03765ZM383.46606,383.70369c-5.31992,0-10.67378-.27751-16.04851-.84562-66.59224-1.79597-116.52064-3.79876-117.01807-3.81708l-23.03603-.9294,38.90651-57.41859c-34.0841-45.15051-43.41475-99.09235-24.81628-146.01788,31.06036-78.33139,120.0549-116.81378,198.40723-85.74826,37.89595,15.02224,67.69696,43.95145,83.91041,81.45993,16.21345,37.5111,16.86795,79.04088,1.84571,116.93683-23.1774,58.48674-80.1483,96.38007-142.15097,96.38007Z"/>
  <rect class="cls-9" x="83.33722" y="1095.86765" width="198.72738" height="42.32308"/>
  <rect class="cls-9" x="1652.09877" y="1100.45349" width="198.72559" height="42.32129"/>
  <g class="cls-16">
    <rect class="cls-2" x="1229.30888" y="943.65299" width="92.45715" height="273.40769" rx="38.49378" ry="38.49378"/>
    <path class="cls-2" d="M1360.25801,943.65299h15.4695c21.24534,0,38.49387,17.24852,38.49387,38.49387v196.42183c0,21.24431-17.24768,38.49199-38.49199,38.49199h-15.47137c-21.2453,0-38.49378-17.24849-38.49378-38.49378v-196.42012c0-21.2453,17.24849-38.49378,38.49378-38.49378Z"/>
  </g>
  <g class="cls-10">
    <path class="cls-2" d="M527.96801,943.65299h15.46779c21.2453,0,38.49378,17.24849,38.49378,38.49378v196.42192c0,21.24431-17.24768,38.49199-38.49199,38.49199h-15.46958c-21.2453,0-38.49378-17.24849-38.49378-38.49378v-196.42012c0-21.2453,17.24849-38.49378,38.49378-38.49378Z"/>
    <path class="cls-2" d="M620.42336,943.65299h15.46779c21.2453,0,38.49378,17.24849,38.49378,38.49378v196.42192c0,21.24431-17.24768,38.49199-38.49199,38.49199h-15.47137c-21.24431,0-38.49199-17.24768-38.49199-38.49199v-196.42192c0-21.2453,17.24849-38.49378,38.49378-38.49378Z"/>
  </g>
  <polygon class="cls-14" points="770.81301 875.32617 334.09186 875.32617 334.09186 924.40969 416.88074 924.40969 770.81301 924.40969 770.81301 875.32617"/>
  <polygon class="cls-14" points="1159.88669 875.32617 1159.88669 924.40969 1546.10274 924.40969 1598.57633 924.40969 1598.57633 875.32617 1159.88669 875.32617"/>
  <path class="cls-9" d="M554.2373,657.4101l7.57035,23.81203h22.71106l9.29199-23.81203s-10.08446-.99067-20.43901-.99067c-10.27898,0-19.1344.99067-19.1344.99067Z"/>
  <path class="cls-9" d="M1298.04709,657.4101l7.57035,23.81203h22.71106l9.29199-23.81203s-10.08446-.99067-20.43901-.99067c-10.27898,0-19.1344.99067-19.1344.99067Z"/>
  <polygon class="cls-6" points="571.1996 692.0039 556.64329 819.23798 574.6053 836.91804 592.48463 819.18223 575.7029 691.99367 571.1996 692.0039"/>
  <polygon class="cls-6" points="1315.27387 692.0039 1300.71756 819.23798 1318.67958 836.91804 1336.5589 819.18223 1319.77717 691.99367 1315.27387 692.0039"/>
  <path class="cls-9" d="M222.51601,705.28772l7.46203,19.001,7.47361-1.7734-2.36143-21.29009s-3.45388-.49768-7.00067.57903c-2.33425.70861-5.57354,3.48346-5.57354,3.48346Z"/>
  <path class="cls-7" d="M237.08321,728.84859s14.45546,17.57565,20.98291,33.8102c6.77802,16.85775,8.05149,128.63408,8.05149,128.63408l11.9809,11.80656,11.63221-17.28818s-17.84699-104.76437-26.70832-125.13739c-8.29649-19.0744-25.21923-31.97941-25.21923-31.97941l-.71996.15413Z"/>
  <path class="cls-9" d="M111.94383,720.758s17.8827-13.63354,57.11685-13.63354c42.28517,0,52.83871,7.54533,52.83871,7.54533l-4.13226-10.33064s-2.39365-8.4366-48.2631-8.4366c-34.36103,0-57.5602,13.63354-57.5602,13.63354v11.22191Z"/>
  <path class="cls-9" d="M1702.33528,709.14339l-8.31762,18.56606-7.19761-1.93369,2.94102-20.69485s3.45388-.49768,7.00067.57903c2.33425.70861,5.57354,3.48346,5.57354,3.48346Z"/>
  <path class="cls-7" d="M1687.76808,733.95813s-16.2768,34.26174-23.51518,54.28037c-13.30457,36.79546-1.41385,113.71593-1.41385,113.71593l-12.25908,12.25908-6.89808-15.08055s2.29669-73.92528,14.69347-108.0164c7.10846-19.54826,28.67276-57.31255,28.67276-57.31255l.71996.15413Z"/>
  <path class="cls-9" d="M1815.83317,725.86754s-17.8827-13.63354-57.11685-13.63354c-42.28517,0-57.46879,7.60111-57.46879,7.60111l4.58711-11.89225s6.56888-6.93077,52.43833-6.93077c34.36103,0,57.5602,13.63354,57.5602,13.63354v11.22191Z"/>
  <path class="cls-9" d="M314.76198,244.7996s17.6665-4.03676,23.74953-9.9953c6.08303-5.95854,27.48954-44.45803,36.49494-65.19915,9.0054-20.74112,7.5188-48.20859,17.05277-52.10966,9.53397-3.90107,24.68194,16.56614,23.3268,32.85834-1.35513,16.2922-11.6869,43.38448-8.25005,53.20679,2.7095,7.74359,55.38261,3.95686,60.11847,5.01671,4.73586,1.05986,18.96916,5.5366,16.96918,20.12295-1.74577,12.73232-15.70936,13.43456-15.70936,13.43456,0,0,14.90327,5.71561,13.54292,18.7562-1.58689,15.2122-19.13091,15.2173-19.13091,15.2173,0,0,13.94686,5.15425,10.01978,21.34593-3.06771,12.64843-22.12415,11.64337-22.12415,11.64337,0,0,11.91777,4.75311,8.63095,17.40011-2.70258,10.39899-17.3636,12.00535-23.06994,11.28707-5.70634-.71827-8.9116-2.17876-21.34251-1.75896-15.22495.51416-21.07008-.55511-30.53171-2.23794-21.46155-3.81712-25.01372-11.47795-33.65863-12.79798s-46.4855,2.72793-46.4855,2.72793c0,0-12.82578-67.56671-9.82498-72.98574l20.22238-5.93253Z"/>
  <path class="cls-8" d="M1623.81079,411.39135l3.27253-6.4482c19.04092-37.51634,34.31449-98.88553,14.69237-148.37934-34.95067-88.16209-135.11379-131.46688-223.28111-96.51098-42.63458,16.89675-76.1689,49.45978-94.41917,91.68333-18.25027,42.22355-18.99379,88.96058-2.08666,131.6004,30.37706,76.63753,111.21914,121.01572,192.21307,105.4594l.98438-.1885,153.48711-5.17846-44.86252-72.03765ZM1341.00358,376.67107c-15.02224-37.89595-14.36774-79.42573,1.84571-116.93683,16.21345-37.50848,46.01446-66.43769,83.91041-81.45993,78.35233-31.06552,167.34687,7.41687,198.40723,85.74826,18.59847,46.92553,9.26782,100.86737-24.81628,146.01788l38.90651,57.41859-23.03603.9294c-.49743.01833-50.42583,2.02112-117.01807,3.81708-5.37473.56811-10.72859.84562-16.04851.84562-62.00267,0-118.97357-37.89333-142.15097-96.38007Z"/>
  <path class="cls-9" d="M1551.85863,334.14705s-17.6665-4.03676-23.74953-9.9953c-6.08303-5.95854-27.48954-44.45803-36.49494-65.19915-9.0054-20.74112-7.5188-48.20859-17.05277-52.10966-9.53397-3.90107-24.68194,16.56614-23.3268,32.85834,1.35513,16.2922,11.6869,43.38448,8.25005,53.20679-2.7095,7.74359-55.38261,3.95686-60.11847,5.01671-4.73586,1.05986-18.96916,5.5366-16.96918,20.12295,1.74577,12.73232,15.70936,13.43456,15.70936,13.43456,0,0-14.90327,5.71561-13.54292,18.7562,1.58689,15.2122,19.13091,15.2173,19.13091,15.2173,0,0-13.94686,5.15425-10.01978,21.34593,3.06771,12.64843,22.12415,11.64337,22.12415,11.64337,0,0-11.91777,4.75311-8.63095,17.40011,2.70258,10.39899,17.3636,12.00535,23.06994,11.28707,5.70634-.71827,8.9116-2.17876,21.34251-1.75896,15.22495.51416,21.07008-.55511,30.53171-2.23794,21.46155-3.81712,25.01372-11.47795,33.65863-12.79798,8.6449-1.32003,46.4855,2.72793,46.4855,2.72793,0,0,12.82578-67.56671,9.82498-72.98574l-20.22238-5.93253Z"/>
  <rect class="cls-13" x="843.84686" y="791.22797" width="181.16307" height="21.02609"/>
  <rect class="cls-13" x="843.84686" y="837.36662" width="119.36582" height="21.02502"/>
  <path class="cls-15" d="M1053.57784,917.79362c0,5.57761-2.48237,9.7355-7.44818,12.46089,4.13764,3.12721,6.20646,7.54091,6.20646,13.24216,0,5.36657-2.10811,9.5703-6.32477,12.62503-4.21119,3.04727-10.03074,4.57144-17.44588,4.57144-7.87665,0-14.0181-1.63502-18.41901-4.91358-4.39451-3.2775-6.59443-8.02694-6.59443-14.2398l13.28799-.04583c0,2.73178.97845,4.83364,2.94282,6.29173,1.96437,1.46555,4.88694,2.19459,8.78263,2.19459,3.43524,0,6.03593-.57876,7.8159-1.72775,1.78119-1.15645,2.66676-2.69981,2.66676-4.63753,0-2.0038-.98485-3.63243-2.9684-4.89333-1.97076-1.2609-5.76094-2.66676-11.35027-4.21119-5.5968-1.54975-9.81316-3.16558-12.65168-4.8539-2.83091-1.68831-4.94556-3.67826-6.34502-5.9773-1.392-2.29905-2.08907-5.07133-2.08907-8.32218,0-5.51792,2.48344-9.7014,7.44925-12.55255-4.17053-3.15919-6.25336-7.57395-6.25336-13.24216,0-5.24187,2.15409-9.47224,6.46348-12.69005,4.3027-3.21888,10.12226-4.82831,17.44573-4.82831,7.57395,0,13.43934,1.73414,17.61018,5.19603,4.1716,3.46189,6.25321,8.27635,6.25321,14.43805h-13.28784c0-2.66676-.94556-4.82192-2.82451-6.45694-1.89204-1.64248-4.47354-2.46319-7.75104-2.46319-3.36916,0-5.97715.59794-7.81697,1.79277-1.8386,1.19482-2.75843,2.8373-2.75843,4.91998,0,2.23936.85375,3.92127,2.54845,5.05747,1.70871,1.1362,5.39322,2.4504,11.06142,3.95432,5.66927,1.50392,9.9977,3.09417,12.99275,4.78248,2.98226,1.68725,5.20243,3.69744,6.64133,6.04872,1.43784,2.33848,2.16048,5.17045,2.16048,8.47993ZM1020.38078,907.54011c-2.29889,1.28862-3.4491,3.4491-3.4491,6.48359,0,2.11465.63738,3.75074,1.91214,4.89333,1.2673,1.15645,3.80296,2.33848,7.60593,3.56634l10.20768,3.08138c2.51541-1.4389,3.77099-3.5866,3.77099-6.43775,0-1.89828-.69707-3.45443-2.08907-4.66311-1.39947-1.21507-3.90209-2.43015-7.52173-3.65907l-10.43683-3.26471Z"/>
  <g>
    <rect class="cls-1" x="841.924" y="701.53852" width="322.64358" height="156.35804"/>
    <path class="cls-14" d="M888.2832,739.08067c-.16797,3.64746-1.15137,6.86914-2.95117,9.66406-1.7998,2.7959-4.3252,4.96094-7.57617,6.49609-3.25195,1.53613-6.96484,2.30371-11.13965,2.30371-6.88672,0-12.30957-2.24316-16.26855-6.73047-3.95898-4.48633-5.93848-10.82129-5.93848-19.00391v-2.59082c0-5.13477.89355-9.62793,2.68164-13.47949,1.78711-3.85156,4.36035-6.82617,7.71973-8.92578s7.24707-3.14941,11.66211-3.14941c6.35742,0,11.46875,1.67383,15.33203,5.02051,3.86328,3.34766,6.05859,7.96094,6.58691,13.83887h-12.59766c-.0957-3.19043-.89941-5.48242-2.41113-6.87402s-3.81543-2.08789-6.91016-2.08789c-3.14355,0-5.44727,1.17578-6.91113,3.52734s-2.23145,6.10742-2.30273,11.26562v3.70703c0,5.5918.70117,9.58691,2.10547,11.98535,1.40332,2.39941,3.82031,3.59961,7.25195,3.59961,2.90332,0,5.12305-.68359,6.6582-2.05176,1.53613-1.36816,2.35156-3.53906,2.44824-6.51465h12.56055Z"/>
    <path class="cls-14" d="M921.28809,742.8961c0-1.84766-.6543-3.28711-1.96191-4.31934-1.30762-1.03125-3.60547-2.09961-6.89258-3.20312s-5.97461-2.17188-8.06152-3.20312c-6.79102-3.33496-10.18652-7.91895-10.18652-13.74902,0-2.90332.84668-5.46484,2.53809-7.68457,1.69141-2.21875,4.08496-3.94629,7.18066-5.18262,3.09473-1.23535,6.57324-1.85352,10.4375-1.85352,3.7666,0,7.14453.67188,10.13184,2.01562s5.30859,3.25684,6.96387,5.74023c1.65625,2.4834,2.4834,5.32129,2.4834,8.5127h-12.59668c0-2.13574-.6543-3.79102-1.96191-4.9668s-3.07715-1.76367-5.30859-1.76367c-2.25586,0-4.03711.49805-5.34473,1.49316-1.30859.99609-1.96191,2.26172-1.96191,3.79688,0,1.34473.71973,2.56152,2.15918,3.65332,1.44043,1.09277,3.97168,2.21973,7.59473,3.38379s6.59863,2.41699,8.92578,3.76074c5.66309,3.26367,8.49414,7.7627,8.49414,13.49707,0,4.58301-1.72754,8.18262-5.18262,10.79785s-8.19434,3.92285-14.2168,3.92285c-4.24707,0-8.09277-.76172-11.53516-2.28516-3.44336-1.52344-6.03516-3.61133-7.77441-6.2627-1.74023-2.65137-2.60938-5.70508-2.60938-9.16016h12.66895c0,2.80762.72559,4.87695,2.17773,6.20898,1.45117,1.33105,3.80859,1.99707,7.07227,1.99707,2.08789,0,3.7373-.4502,4.94922-1.34961,1.21094-.89941,1.81738-2.16504,1.81738-3.79688Z"/>
    <path class="cls-14" d="M973.4043,735.94981h-20.37109v20.875h-12.63379v-52.4043h35.05664v9.75391h-22.42285v12.05762h20.37109v9.71777Z"/>
    <path class="cls-14" d="M993.34473,739.04454v17.78027h-12.63379v-52.4043h20.91113c4.00684,0,7.55273.7373,10.63574,2.21387,3.08301,1.47559,5.4707,3.5752,7.16309,6.29785,1.69141,2.72363,2.53711,5.81348,2.53711,9.26855,0,5.11035-1.83008,9.19531-5.48926,12.25488s-8.67969,4.58887-15.0625,4.58887h-8.06152ZM993.34473,729.29063h8.27734c2.44824,0,4.31348-.61133,5.59668-1.83496,1.28418-1.22363,1.92578-2.95215,1.92578-5.18359,0-2.44727-.66016-4.40234-1.97949-5.86621s-3.11914-2.20703-5.39844-2.23145h-8.42188v15.11621Z"/>
  </g>
</svg>