<?xml version="1.0" encoding="UTF-8"?>
<svg id="Ebene_2" data-name="Ebene 2" xmlns="http://www.w3.org/2000/svg" viewBox="0 0 1920 743.84666">
  <defs>
    <style>
      .cls-1 {
        fill: #90172e;
        opacity: .65;
      }

      .cls-2 {
        fill: #0d435c;
      }

      .cls-3 {
        fill: #f3f5f7;
      }

      .cls-4 {
        fill: #0c425b;
      }

      .cls-5 {
        fill: #0d425b;
      }
    </style>
  </defs>
  <rect class="cls-3" x="-13.47267" y="-12.40141" width="1953.01137" height="772.03777"/>
  <path class="cls-5" d="M1291.31466,179.96932l11.66809-26.02827-9.13318-8.16586,11.98017,1.351,11.57217-25.81166-56.51753-5.9097-42.28344-38.10347-11.52399,25.91929,9.2336,8.11903-12.34764-1.11457-11.23938,25.28027,32.61482,3.61391-26.16517,58.85115-19.65157-2.81728-11.3344,25.49328,20.1636,2.992c-3.7319,13.95848.55121,27.05233,10.43283,31.44576,11.51093,5.11757,26.543-3.4653,33.51098-19.1373l2.93346-6.59871,23.7577,3.35317,11.29297-25.40096-23.67709-3.53375,20.47838-46.06038,24.2346,22.26305ZM1207.96862,208.71984l-3.44999,7.75967-22.79894-3.27796,3.44819-7.75606,22.80074,3.27436ZM1232.20052,112.9514l-13.68153-12.31072,3.40316-7.65519,23.7595,21.37319-13.48113-1.40729ZM1210.25,226.6462l11.42176-25.56533-13.68827-1.85492,24.36383-54.80041c2.39081,4.65778,6.22403,8.31132,10.99621,10.43283,4.7699,2.12106,10.05049,2.51961,15.11222,1.17447l-33.98338,76.43615c-4.96489,11.16733-15.13565,17.94121-22.21216,14.7952-6.06417-2.69614-8.34194-12.42465-5.3585-22.404l13.34828,1.78602ZM1241.09052,140.7756l8.13614.84978,6.08173,5.47153c-5.5661,1.16366-11.35286-1.40909-14.21787-6.32131ZM1251.7314,124.43621l-3.40181,7.65114-41.84887-4.36957,3.40317-7.65564,41.84751,4.37407ZM1271.84592,125.99121l31.78486,3.32165-3.40361,7.65519-18.30553-1.91076-10.07572-9.06608ZM1291.59251,156.3895l-3.40361,7.65519-18.36543-16.51997-12.91416-11.62306,3.40181-7.65114,31.28139,28.13898ZM1256.68505,214.69394l-3.44999,7.75967-14.04404-2.01839,3.45-7.75967,14.04403,2.01839Z"/>
  <g>
    <g>
      <path class="cls-4" d="M229.2217,213.69167l7.56422-4.37137-.4805-1.47168c-4.56952-14.05891,1.41629-29.63363,14.23724-37.03573,4.79603-2.77089,10.23739-4.23177,15.73999-4.23177,10.6517,0,20.55944,5.46387,26.35836,14.30298l5.84395-3.43378c-.4769-1.17266-.75115-2.4498-.75115-3.79314,0-5.01219,3.66795-9.13723,8.46038-9.91495v-6.23484c-16.66272-.82276-29.97858-14.59885-29.97858-31.46197,0-14.62587,10.34907-27.56705,24.60567-30.76801l1.4915-.3355v-8.75355l-2.23725.38233c-21.57809,3.72334-37.23973,22.3351-37.23973,44.2568,0,6.98825,1.6311,13.86841,4.73749,20.08074-6.86891.43817-13.58381,2.46331-19.58087,5.92411-19.15891,11.0642-27.38782,34.08921-19.56691,54.75358l.79619,2.10575Z"/>
      <g>
        <path class="cls-4" d="M339.29852,126.04541c0,16.97525-13.49014,30.8252-30.31093,31.47864v6.1736c5.00634.58903,8.90351,4.79603,8.90351,9.95954,0,1.43521-.30938,2.79476-.85023,4.03047l5.72687,3.35317c5.78361-8.93278,15.74855-14.4597,26.46644-14.4597,5.5026,0,10.94396,1.46088,15.73729,4.23177,12.82094,7.4021,18.8099,22.97682,14.23724,37.03573l-.4778,1.47168,7.56422,4.37137.79619-2.10575c7.81821-20.66437-.4107-43.69208-19.56961-54.75358-5.99437-3.4608-12.71241-5.48594-19.58087-5.92411,3.10909-6.21233,4.73749-13.09249,4.73749-20.08074,0-22.12299-15.82691-40.76538-37.63377-44.32345l-2.21788-.36342v8.73734l1.51402.32109c14.4606,3.06676,24.95783,16.04172,24.95783,30.84637Z"/>
        <path class="cls-4" d="M307.75864,139.35631c8.2091,0,15.73954,2.87762,21.66591,7.66284,3.01587-3.10819,5.33238-6.87747,6.7829-11.05699-7.93304-5.96104-17.76108-9.53622-28.4488-9.53622-10.68457,0-20.50991,3.57293-28.4416,9.53037,1.45502,4.17097,3.78098,7.93439,6.80001,11.04438,5.92231-4.77352,13.44285-7.64438,21.64159-7.64438Z"/>
      </g>
      <g>
        <path class="cls-4" d="M372.37899,219.51851c-5.94393,6.45235-14.40746,10.15093-23.2173,10.15093-5.4972,0-10.93856-1.46088-15.73189-4.22591-7.29582-4.2124-12.51382-11.01691-14.69522-19.15351-2.07333-7.743-1.12763-15.80214,2.59526-22.85208l-5.78496-3.3874c-1.84861,2.23319-4.60689,3.68596-7.73355,3.68596-3.21987,0-6.05381-1.53833-7.89837-3.88906l-5.81919,3.41892c7.98618,14.92309,2.75333,33.65374-12.00945,42.17717-4.79333,2.76504-10.23199,4.22591-15.72919,4.22591-8.81254,0-17.27337-3.69857-23.2173-10.15093l-1.03621-1.12538-7.58404,4.37993,1.45277,1.74278c8.54459,10.26261,21.13362,16.14529,34.53594,16.14529,7.83757,0,15.58328-2.08414,22.40715-6.02229,5.95248-3.43558,11.03628-8.19559,14.84338-13.87697,3.81026,5.68138,8.8882,10.44139,14.84338,13.87697,6.82433,3.93815,14.57273,6.02229,22.4076,6.02229,13.40502,0,25.99134-5.88268,34.53594-16.14529l1.45232-1.74278-7.58088-4.37993-1.03621,1.12538Z"/>
        <g>
          <path class="cls-4" d="M289.29324,217.62351c2.88843-3.38694,4.96536-7.31924,6.1119-11.51994-12.96055-4.97481-22.17703-17.50394-22.17703-32.21718,0-1.70045.16437-3.35812.4017-4.99283-2.37325-.59939-4.83611-.91597-7.34581-.91597-1.91166,0-3.80305.24768-5.67283.6102-.19364,1.74143-.31343,3.50493-.31343,5.2986,0,19.66373,11.95586,36.53406,28.99551,43.73711Z"/>
          <path class="cls-4" d="M320.13691,206.09412c1.18347,4.31463,3.28157,8.21225,6.09659,11.52579,17.0338-7.20576,28.98515-24.07383,28.98515-43.73351,0-1.79367-.11934-3.55762-.31298-5.2995-1.86933-.36207-3.76072-.6093-5.67238-.6093-2.51195,0-4.97436.31883-7.34671.91688.23732,1.6338.4017,3.29192.4017,4.99193,0,14.70333-9.20433,27.22615-22.15137,32.20772Z"/>
        </g>
      </g>
    </g>
    <path class="cls-1" d="M308.46927,49.50884c-68.36756,0-123.99073,55.62317-123.99073,123.99073,0,68.37206,55.62317,123.99523,123.99073,123.99523,68.37206,0,123.99523-55.62317,123.99523-123.99523,0-68.36756-55.62317-123.99073-123.99523-123.99073ZM211.49844,173.49956c0-29.46385,13.25506-55.85284,34.06309-73.65175l104.93719,160.91027c-12.73628,6.16099-26.95866,9.71681-42.02946,9.71681-53.46788,0-96.97082-43.50294-96.97082-96.97533ZM372.95226,245.72736l-104.60485-160.40094c12.24542-5.59627,25.80311-8.79768,40.12185-8.79768,53.47239,0,96.97533,43.50294,96.97533,96.97082,0,28.70414-12.60839,54.45636-32.49233,72.2278Z"/>
  </g>
  <g>
    <g>
      <path class="cls-2" d="M618.38248,190.0416c-8.9661,0-16.08675-7.12019-16.08675-16.08675s7.12064-16.08675,16.08675-16.08675c8.96655,0,16.0872,7.12019,16.0872,16.08675,0,8.70266-7.12064,16.08675-16.0872,16.08675Z"/>
      <path class="cls-2" d="M618.38248,89.22584c12.84931,0,23.18443,10.33511,23.18443,23.18398,0,10.61432-7.2625,19.83216-17.59761,22.34636h-.55886v20.39057c-1.67567-.55841-3.35182-.55841-5.02795-.55841-1.67568,0-3.35182.27921-5.0275.55841v-20.39057h-.55886c-10.33511-2.5142-17.59761-11.73204-17.59761-22.34636,0-12.56966,10.33511-23.18398,23.18398-23.18398"/>
      <path class="cls-2" d="M637.0064,179.44799l17.31841,10.05591.55841.27921.27967-.27921c4.46908-4.46909,10.33511-6.98329,16.75953-6.98329,3.9107,0,8.10057,1.11727,11.45239,3.07261,5.30716,3.07261,9.21784,8.10057,10.89352,13.96659,1.67613,5.86557.83807,12.29-2.23455,17.59716-4.18989,7.2625-11.73159,11.45239-20.11136,11.45239-3.91068,0-8.10057-1.11727-11.45239-3.07261-9.21784-5.30716-13.68693-16.20068-10.61432-26.5358l.27921-.55886-.55886-.27921-17.59716-10.05546c2.51377-2.5142,4.18989-5.30716,5.0275-8.65943"/>
      <path class="cls-2" d="M599.29743,179.16879c.83807,3.35182,2.5142,6.42443,5.02795,8.65898l-17.87682,10.33511-.55841.27921.27921.55886c2.79296,10.33511-1.39693,20.94943-10.61432,26.5358-3.63146,1.95534-7.54216,3.07261-11.45239,3.07261-8.37977,0-15.92193-4.46909-20.11181-11.45239-3.07216-5.30716-3.91022-11.45239-2.23455-17.59716,1.67613-5.86602,5.30716-10.89397,10.89397-13.96659,3.63102-1.95534,7.5417-3.07261,11.45239-3.07261,6.14523,0,12.29,2.5142,16.75954,6.98329l.27921.27921.55887-.27921,17.59715-10.33511"/>
      <g>
        <path class="cls-2" d="M626.11288,147.88425c11.73159,3.35182,19.83216,14.24579,19.83216,26.53625,0,2.23455-.27921,4.18989-.83805,6.42443l-7.54172-4.46954v-2.23455c0-7.82091-4.46909-14.8042-11.73159-17.87682v-8.37977"/>
        <path class="cls-2" d="M610.47061,147.88425v8.65898c-6.98328,3.07261-11.73159,10.05591-11.73159,17.87727v1.95489l-7.5417,4.18989c-.55886-1.95489-.83807-4.18989-.83807-6.14478.27921-12.29045,8.37977-23.18443,20.11136-26.53625"/>
        <path class="cls-2" d="M606.55993,189.78311c3.35227,2.5142,7.54216,3.91068,11.73204,3.91068s8.10012-1.39648,11.45193-3.63147l7.54216,4.18989c-5.30716,5.02795-12.01125,7.54216-18.99409,7.54216-7.2625,0-13.96659-2.79341-18.99454-7.82136l7.2625-4.18989"/>
      </g>
    </g>
    <path class="cls-1" d="M616.89234,49.50884c-68.36755,0-123.99071,55.62317-123.99071,123.99073,0,68.37206,55.62316,123.99523,123.99071,123.99523,68.37206,0,123.99523-55.62317,123.99523-123.99523,0-68.36756-55.62317-123.99073-123.99523-123.99073ZM519.92153,173.49956c0-29.46385,13.25505-55.85284,34.06308-73.65175l104.93719,160.91027c-12.73628,6.16099-26.95866,9.71681-42.02946,9.71681-53.46788,0-96.97081-43.50294-96.97081-96.97533ZM681.37533,245.72736l-104.60484-160.40094c12.24542-5.59627,25.8031-8.79768,40.12185-8.79768,53.47238,0,96.97533,43.50294,96.97533,96.97082,0,28.70414-12.60839,54.45636-32.49233,72.2278Z"/>
  </g>
  <g>
    <g>
      <path class="cls-4" d="M926.36873,157.63393c-9.47048,0-17.177,7.70427-17.177,17.17385,0,9.47093,7.70653,17.17655,17.177,17.17655,9.47138,0,17.1743-7.70563,17.1743-17.17655,0-9.46957-7.70292-17.17385-17.1743-17.17385Z"/>
      <path class="cls-4" d="M916.04668,154.1389l-27.03791-46.82504-1.20957.70117c-23.79194,13.76529-38.57091,39.35899-38.57091,66.79275v1.39648h54.07806c-.02882-.4715-.14095-.91823-.14095-1.39648,0-9.06788,5.27924-16.85456,12.88129-20.66887Z"/>
      <path class="cls-4" d="M949.56982,174.80778c0,.4778-.11258.92453-.1414,1.39513h54.07718v-1.39648c0-27.43331-14.77989-53.02701-38.57406-66.7932l-1.20824-.70072-27.03791,46.82414c7.60342,3.81341,12.88444,11.6019,12.88444,20.67113Z"/>
      <path class="cls-4" d="M913.58969,194.14367l-26.99876,46.76379,1.21094.69846c11.91127,6.8599,25.25505,10.29188,38.59703,10.29188,13.33072,0,26.65873-3.42883,38.53803-10.28648l1.20869-.69846-27.00459-46.7665c-3.66795,2.43089-8.05193,3.86475-12.77231,3.86475-4.72261,0-9.10976-1.43476-12.77904-3.86745Z"/>
    </g>
    <path class="cls-1" d="M925.3154,49.50884c-68.36755,0-123.99072,55.62317-123.99072,123.99073,0,68.37206,55.62317,123.99523,123.99072,123.99523,68.37206,0,123.99525-55.62317,123.99525-123.99523,0-68.36756-55.62319-123.99073-123.99525-123.99073ZM828.34458,173.49956c0-29.46385,13.25461-55.85284,34.06309-73.65175l104.93719,160.91027c-12.73628,6.16099-26.95866,9.71681-42.02946,9.71681-53.46833,0-96.97082-43.50294-96.97082-96.97533ZM989.7984,245.72736l-104.60484-160.40094c12.24497-5.59627,25.8031-8.79768,40.12185-8.79768,53.47238,0,96.97535,43.50294,96.97535,96.97082,0,28.70414-12.60841,54.45636-32.49236,72.2278Z"/>
  </g>
  <path class="cls-1" d="M1233.73849,49.12004c-68.36755,0-123.99071,55.62272-123.99071,123.99073,0,68.37206,55.62316,123.99523,123.99071,123.99523,68.37251,0,123.99523-55.62317,123.99523-123.99523,0-68.36801-55.62272-123.99073-123.99523-123.99073ZM1136.76767,173.11076c0-29.46385,13.25505-55.85284,34.06308-73.65175l104.93719,160.91027c-12.73583,6.16099-26.95821,9.71681-42.02946,9.71681-53.46788,0-96.97081-43.50294-96.97081-96.97533ZM1298.22148,245.33856l-104.60483-160.40094c12.24541-5.59627,25.80309-8.79768,40.12184-8.79768,53.47283,0,96.97533,43.50249,96.97533,96.97082,0,28.70414-12.60794,54.45636-32.49233,72.2278Z"/>
  <path class="cls-5" d="M1576.67093,206.80368v-19.34535c0-9.39347-3.80395-18.47936-10.46659-25.05826l-7.95873-4.73434,2.23094-8.42841,15.93949-6.97023.0617-52.02547-34.46568,15.59003-34.43867-15.39639.03062,52.09572,16.18537,6.45866,1.98281,7.93214-7.9434,5.47829c-6.65365,6.5789-10.4576,15.66479-10.4576,25.05826v19.34535l-4.54295.04413.10087,25.0452,4.4772-.10988c.84842,18.53205,16.14394,33.42317,34.61024,33.42317,18.47531,0,33.77488-14.90418,34.61474-33.44523l4.76723.01756.1013-24.93081-4.82891-.04413ZM1567.27746,230.15608c0,14.14762-11.33305,25.6563-25.26091,25.6563s-25.2564-11.50868-25.2564-25.6653l-.06575-3.75081-4.46369.03513v-14.33766l4.56456-.09232-.03513-24.54308c0-9.40248,5.0973-18.0529,13.29874-22.57378l.57642-.31658,5.79622-2.44035-4.52989-18.9369-14.95236-6.84324v-31.67228l25.07177,11.42537,25.07177-11.42537v31.67228l-14.95684,6.84324-5.04509,18.9369,6.30735,2.44035.57597.31658c8.20639,4.52088,13.30325,13.1713,13.30325,22.57378l.06575,24.65746h4.46414v14.31559l-4.56051-.03513.03062,3.75982Z"/>
  <path class="cls-1" d="M1542.16202,51.7896c-67.29306,0-122.04214,54.74863-122.04214,122.04169,0,67.29712,54.74907,122.04574,122.04214,122.04574,67.29712,0,122.04574-54.74863,122.04574-122.04574,0-67.29307-54.74862-122.04169-122.04574-122.04169ZM1446.71512,173.83129c0-29.00091,13.04656-54.97514,33.52764-72.49395l103.28807,158.38076c-12.53633,6.06417-26.53489,9.56414-41.36882,9.56414-52.62801,0-95.4469-42.81934-95.4469-95.45095ZM1605.63089,244.92381l-102.96026-157.87999c12.05268-5.50801,25.39736-8.65943,39.49139-8.65943,52.63161,0,95.4505,42.81934,95.4505,95.4469,0,28.25291-12.40979,53.60028-31.98163,71.09251Z"/>
  <path class="cls-2" d="M1110.52065,589.92734c-6.21261-19.63379-8.06624-21.40136-9.70145-22.96119-4.19575-4.00107-30.66478-24.05093-90.05991-68.84677-40.51171-30.55319-86.19905-65.01071-106.75521-81.19127l-6.32301-15.51876-1.05354-2.58488-2.04535-1.89934-23.60874-21.91715-26.95336-25.02256,5.9248,36.2975c.84039,5.15076,2.04054,12.51722,2.77831,17.07562l-12.08452-11.0298-25.64519-13.90314,18.42356,24.69671,13.55948,12.00677c-.94308-.23029-1.80496-.28906-2.87156-.28965h-.24513l-.10684.00415c-1.50166.01543-13.77909.03264-21.33904.03977l-36.77827.03502,29.05925,22.54274,25.45347,19.74538,1.90052,1.47436,2.31007.6713,19.24977,5.59532c19.19338,17.54215,60.50038,56.91954,97.10592,91.81568,53.42416,50.92891,77.32137,73.61351,81.95159,77.1071,1.71719,1.2963,3.34105,2.52137,20.86005,5.95561,8.309,1.62809,20.1389,3.56956,29.30557,3.56956,6.02268,0,13.60755-.65883,18.84557-5.8001,3.74169-3.67284,5.53597-8.8236,5.48618-15.74668-.05289-7.41928-2.28818-18.15884-6.643-31.92131ZM1102.84258,628.59425c-1.60909,1.57942-5.29552,2.18898-10.01069,2.18898-15.47187,0-42.01806-6.56517-42.56887-6.98125-8.98327-6.77766-143.53044-136.79314-180.32592-170.14963l-22.05841-6.41145-25.45288-19.74538s21.06363-.02018,21.67439-.04333h.00178c.28668,0,4.93827,2.67153,10.04986,5.65883l7.80864-4.71391,17.63711,15.61729,7.89708-8.91916-17.72793-16.18056,2.79321-4.88842c-3.56956-4.31624-6.66726-8.125-6.69872-8.38023-.07597-.60601-3.46866-21.39483-3.46866-21.39483l23.60874,21.91774,7.57598,18.59331c38.74942,30.7918,190.39655,143.56783,198.53758,151.33137.6523.62203,17.80865,45.55023,10.72769,52.50061Z"/>
  <path class="cls-2" d="M1506.7458,589.92734c-6.21261-19.63379-8.06624-21.40136-9.70145-22.96119-4.19575-4.00107-30.66478-24.05093-90.05991-68.84677-40.51171-30.55319-86.19905-65.01071-106.75521-81.19127l-6.32301-15.51876-1.05354-2.58488-2.04535-1.89934-23.60874-21.91715-26.95336-25.02256,5.9248,36.2975c.84039,5.15076,2.04054,12.51722,2.77831,17.07562l-12.08452-11.0298-25.64519-13.90314,18.42356,24.69671,13.55948,12.00677c-.94308-.23029-1.80496-.28906-2.87156-.28965h-.24513l-.10684.00415c-1.50166.01543-13.77909.03264-21.33904.03977l-36.77827.03502,29.05925,22.54274,25.45347,19.74538,1.90052,1.47436,2.31007.6713,19.24977,5.59532c19.19338,17.54215,60.50038,56.91954,97.10592,91.81568,53.42416,50.92891,77.32137,73.61351,81.95159,77.1071,1.71719,1.2963,3.34105,2.52137,20.86005,5.95561,8.309,1.62809,20.1389,3.56956,29.30557,3.56956,6.02268,0,13.60755-.65883,18.84557-5.8001,3.74169-3.67284,5.53597-8.8236,5.48618-15.74668-.05289-7.41928-2.28818-18.15884-6.643-31.92131ZM1499.06774,628.59425c-1.60909,1.57942-5.29552,2.18898-10.01069,2.18898-15.47187,0-42.01806-6.56517-42.56887-6.98125-8.98327-6.77766-143.53044-136.79314-180.32592-170.14963l-22.05841-6.41145-25.45288-19.74538s21.06363-.02018,21.67439-.04333h.00178c.28668,0,4.93827,2.67153,10.04986,5.65883l7.80864-4.71391,17.63711,15.61729,7.89708-8.91916-17.72793-16.18056,2.79321-4.88842c-3.56956-4.31624-6.66726-8.125-6.69872-8.38023-.07597-.60601-3.46866-21.39483-3.46866-21.39483l23.60874,21.91774,7.57598,18.59331c38.74942,30.7918,190.39655,143.56783,198.53758,151.33137.6523.62203,17.80865,45.55023,10.72769,52.50061Z"/>
  <path class="cls-2" d="M759.35732,589.92734c-6.21261-19.63379-8.06624-21.40136-9.70145-22.96119-4.19575-4.00107-30.66478-24.05093-90.05991-68.84677-40.51171-30.55319-86.19905-65.01071-106.75521-81.19127l-6.32301-15.51876-1.05354-2.58488-2.04535-1.89934-23.60874-21.91715-26.95336-25.02256,5.9248,36.2975c.84039,5.15076,2.04054,12.51722,2.77831,17.07562l-12.08452-11.0298-25.64519-13.90314,18.42356,24.69671,13.55948,12.00677c-.94308-.23029-1.80496-.28906-2.87156-.28965h-.24513l-.10684.00415c-1.50166.01543-13.77909.03264-21.33904.03977l-36.77827.03502,29.05925,22.54274,25.45347,19.74538,1.90052,1.47436,2.31007.6713,19.24977,5.59532c19.19338,17.54215,60.50038,56.91954,97.10592,91.81568,53.42416,50.92891,77.32137,73.61351,81.95159,77.1071,1.71719,1.2963,3.34105,2.52137,20.86005,5.95561,8.309,1.62809,20.1389,3.56956,29.30557,3.56956,6.02268,0,13.60755-.65883,18.84557-5.8001,3.74169-3.67284,5.53597-8.8236,5.48618-15.74668-.05289-7.41928-2.28818-18.15884-6.643-31.92131ZM751.67925,628.59425c-1.60909,1.57942-5.29552,2.18898-10.01069,2.18898-15.47187,0-42.01806-6.56517-42.56887-6.98125-8.98327-6.77766-143.53044-136.79314-180.32592-170.14963l-22.05841-6.41145-25.45288-19.74538s21.06363-.02018,21.67439-.04333h.00178c.28668,0,4.93827,2.67153,10.04986,5.65883l7.80864-4.71391,17.63711,15.61729,7.89708-8.91916-17.72793-16.18056,2.79321-4.88842c-3.56956-4.31624-6.66726-8.125-6.69872-8.38023-.07597-.60601-3.46866-21.39483-3.46866-21.39483l23.60874,21.91774,7.57598,18.59331c38.74942,30.7918,190.39655,143.56783,198.53758,151.33137.6523.62203,17.80865,45.55023,10.72769,52.50061Z"/>
  <polygon class="cls-1" points="1164.8252 573.95752 1013.47028 523.36768 977.2547 367.9458 950.2821 374.23071 982.63135 513.06006 847.43494 467.87158 838.6554 494.13819 990.01031 544.72803 1026.22583 700.1499 1053.19849 693.86475 1020.84924 555.03565 1156.04565 600.22412 1164.8252 573.95752"/>
  <polygon class="cls-1" points="1539.34302 561.71387 1387.98816 511.12451 1351.77258 355.70239 1324.79993 361.98731 1357.14917 500.8169 1221.95276 455.62818 1213.17334 481.89502 1364.52808 532.48438 1400.74365 687.90674 1427.71631 681.62158 1395.36719 542.79199 1530.56348 587.98096 1539.34302 561.71387"/>
</svg>