<?xml version="1.0" encoding="UTF-8"?>
<svg id="Ebene_2" data-name="Ebene 2" xmlns="http://www.w3.org/2000/svg" viewBox="0 0 1920 934.73963">
  <defs>
    <style>
      .cls-1 {
        fill: #f08b00;
      }

      .cls-2 {
        fill: #90172f;
      }

      .cls-3 {
        fill: #0d435c;
      }

      .cls-4 {
        fill: #67ac35;
      }

      .cls-5, .cls-6, .cls-7, .cls-8, .cls-9 {
        fill: #fff;
      }

      .cls-10 {
        fill: #f3f5f7;
      }

      .cls-6 {
        stroke-width: 8.59089px;
      }

      .cls-6, .cls-7 {
        stroke: #f08b00;
      }

      .cls-6, .cls-7, .cls-8, .cls-9 {
        stroke-miterlimit: 10;
      }

      .cls-7 {
        stroke-width: 10.75417px;
      }

      .cls-8 {
        stroke: #fac102;
        stroke-width: 7.12199px;
      }

      .cls-9 {
        stroke: #90172f;
        stroke-width: 9.10745px;
      }

      .cls-11 {
        fill: #fac102;
      }
    </style>
  </defs>
  <rect class="cls-10" x="-17.46317" y="-15.03441" width="1953.01137" height="964.16941"/>
  <rect class="cls-2" x="73.47791" y="614.4934" width="755.44362" height="149.6945"/>
  <rect class="cls-4" x="1279.21552" y="435.41131" width="548.2592" height="149.6945"/>
  <g>
    <circle class="cls-5" cx="1305.21996" cy="373.15062" r="66.83136"/>
    <g>
      <path class="cls-4" d="M1305.28495,442.19906c-38.23945,0-69.35044-31.11098-69.35044-69.35044s31.11098-69.35044,69.35044-69.35044,69.34688,31.11063,69.34688,69.35044-31.10743,69.35044-69.34688,69.35044ZM1305.28495,310.59896c-34.32515,0-62.24966,27.92451-62.24966,62.24966s27.92451,62.24966,62.24966,62.24966c34.3216,0,62.2461-27.92487,62.2461-62.24966s-27.9245-62.24966-62.2461-62.24966Z"/>
      <path class="cls-4" d="M1300.17949,422.06588c-3.0615-.31563-6.09531-.91884-9.01479-1.79259l6.10915-20.40799c1.64028.49244,3.35299.83221,5.08984,1.00902l-2.1842,21.19156ZM1311.60038,421.92351l-2.69758-21.12871c1.71306-.2187,3.41512-.60357,5.05859-1.14074l6.60869,20.25496c-2.91593.95008-5.93234,1.62643-8.9697,2.01449ZM1280.64881,415.74867c-2.63829-1.52205-5.15552-3.30435-7.48209-5.30144l13.86178-16.17095c1.32785,1.13719,2.76327,2.15331,4.25763,3.01321l-10.63732,18.45918ZM1330.9681,415.11741l-11.08822-18.18864c1.47022-.89789,2.87439-1.94526,4.1678-3.11369l14.27078,15.81733c-2.27438,2.05248-4.74651,3.89726-7.35037,5.48499ZM1265.40735,402.05305c-1.80644-2.46858-3.38743-5.11753-4.70178-7.87725l19.236-9.16036c.74558,1.56714,1.63992,3.07215,2.66279,4.47278l-17.19701,12.56482ZM1345.87333,401.04083l-17.50908-12.12813c.98452-1.42513,1.84088-2.95073,2.54492-4.53172l19.46464,8.66117c-1.24477,2.79451-2.75651,5.48499-4.50047,7.99867ZM1257.01671,383.32014c-.63445-2.97487-.99517-6.03282-1.07506-9.09112l21.29558-.54072c.04509,1.7475.24959,3.495.61031,5.18676l-20.83084,4.44509ZM1353.78537,382.08922l-20.9416-3.91111c.30498-1.62608.46475-3.30044.47859-4.98226l-.00355-.37776h21.30232-10.3011l10.2837-.50629.02095.6657c0,3.06505-.28439,6.1301-.83931,9.11172ZM1277.83015,367.18717l-20.85178-4.34781c.62771-3.01286,1.543-5.97388,2.72173-8.79609l19.65885,8.19643c-.6586,1.58454-1.17518,3.24861-1.5288,4.94747ZM1332.54199,366.38301c-.39871-1.67472-.96393-3.32494-1.67436-4.90273l19.41601-8.7581c1.26215,2.79451,2.26407,5.72429,2.97841,8.70271l-20.72005,4.95812ZM1282.54187,356.55341l-17.2524-12.49559c1.78194-2.46184,3.81028-4.77776,6.02572-6.88243l14.67304,15.44277c-1.26891,1.20678-2.42705,2.53107-3.44636,3.93525ZM1327.51464,355.89126c-1.05411-1.37294-2.25024-2.65924-3.55039-3.82448l14.20865-15.87272c2.28112,2.04218,4.37549,4.29952,6.23376,6.71591l-16.89203,12.98128ZM1291.19949,348.71415l-10.7204-18.40734c2.65569-1.54619,5.46085-2.84635,8.33844-3.85892l7.08338,20.08881c-1.61578.57232-3.19996,1.3037-4.70142,2.17745ZM1318.63512,348.31189c-1.5185-.82866-3.12044-1.51176-4.76711-2.03863l6.49721-20.28976c2.91593.93588,5.75908,2.1494,8.44957,3.61252l-10.17967,18.71587ZM1302.24582,345.09808l-2.26053-21.18445c3.05795-.32593,6.15779-.37102,9.1671-.12852l-1.69176,21.2331c-1.7301-.13527-3.50885-.10758-5.21481.07988Z"/>
    </g>
  </g>
  <g>
    <circle class="cls-5" cx="1405.77622" cy="387.2861" r="66.83136"/>
    <g>
      <path class="cls-4" d="M1405.84121,456.33453c-38.23945,0-69.35044-31.11098-69.35044-69.35044s31.11098-69.35044,69.35044-69.35044,69.34688,31.11063,69.34688,69.35044-31.10743,69.35044-69.34688,69.35044ZM1405.84121,324.73443c-34.32515,0-62.24966,27.92451-62.24966,62.24966s27.92451,62.24966,62.24966,62.24966c34.3216,0,62.2461-27.92487,62.2461-62.24966s-27.9245-62.24966-62.2461-62.24966Z"/>
      <path class="cls-4" d="M1400.73575,436.20135c-3.0615-.31563-6.09531-.91884-9.01479-1.79259l6.10915-20.40799c1.64028.49244,3.35299.83221,5.08984,1.00902l-2.1842,21.19156ZM1412.15664,436.05898l-2.69758-21.12871c1.71306-.2187,3.41512-.60357,5.05859-1.14074l6.60869,20.25496c-2.91593.95008-5.93234,1.62643-8.9697,2.01449ZM1381.20507,429.88414c-2.63829-1.52205-5.15552-3.30435-7.48209-5.30144l13.86178-16.17095c1.32785,1.13719,2.76327,2.15331,4.25763,3.01321l-10.63732,18.45918ZM1431.52436,429.25288l-11.08822-18.18864c1.47022-.89789,2.87439-1.94526,4.1678-3.11369l14.27078,15.81733c-2.27438,2.05248-4.74651,3.89726-7.35037,5.48499ZM1365.96361,416.18852c-1.80644-2.46858-3.38743-5.11753-4.70178-7.87725l19.236-9.16036c.74558,1.56714,1.63992,3.07215,2.66279,4.47278l-17.19701,12.56482ZM1446.42959,415.17631l-17.50908-12.12813c.98452-1.42513,1.84088-2.95073,2.54492-4.53172l19.46464,8.66117c-1.24477,2.79451-2.75651,5.48499-4.50047,7.99867ZM1357.57298,397.45561c-.63445-2.97487-.99517-6.03282-1.07506-9.09112l21.29558-.54072c.04509,1.7475.24959,3.495.61031,5.18676l-20.83084,4.44509ZM1454.34163,396.22469l-20.9416-3.91111c.30498-1.62608.46475-3.30044.47859-4.98226l-.00355-.37776h21.30232-10.3011l10.2837-.50629.02095.6657c0,3.06505-.28439,6.1301-.83931,9.11172ZM1378.38642,381.32265l-20.85178-4.34781c.62771-3.01286,1.543-5.97388,2.72173-8.79609l19.65885,8.19643c-.6586,1.58454-1.17518,3.24861-1.5288,4.94747ZM1433.09825,380.51848c-.39871-1.67472-.96393-3.32494-1.67436-4.90273l19.41601-8.7581c1.26215,2.79451,2.26407,5.72429,2.97841,8.70271l-20.72005,4.95812ZM1383.09814,370.68888l-17.2524-12.49559c1.78194-2.46184,3.81028-4.77776,6.02572-6.88243l14.67304,15.44277c-1.26891,1.20678-2.42705,2.53107-3.44636,3.93525ZM1428.0709,370.02673c-1.05411-1.37294-2.25024-2.65924-3.55039-3.82448l14.20865-15.87272c2.28112,2.04218,4.37549,4.29952,6.23376,6.71591l-16.89203,12.98128ZM1391.75576,362.84962l-10.7204-18.40734c2.65569-1.54619,5.46085-2.84635,8.33844-3.85892l7.08338,20.08881c-1.61578.57232-3.19996,1.3037-4.70142,2.17745ZM1419.19138,362.44736c-1.5185-.82866-3.12044-1.51176-4.76711-2.03863l6.49721-20.28976c2.91593.93588,5.75908,2.1494,8.44957,3.61252l-10.17967,18.71587ZM1402.80208,359.23355l-2.26053-21.18445c3.05795-.32593,6.15779-.37102,9.1671-.12852l-1.69176,21.2331c-1.7301-.13527-3.50885-.10758-5.21481.07988Z"/>
    </g>
  </g>
  <g>
    <circle class="cls-5" cx="1432.58685" cy="443.32789" r="66.83136"/>
    <g>
      <path class="cls-4" d="M1432.65185,512.37632c-38.23945,0-69.35044-31.11098-69.35044-69.35044s31.11098-69.35044,69.35044-69.35044,69.34688,31.11063,69.34688,69.35044-31.10743,69.35044-69.34688,69.35044ZM1432.65185,380.77622c-34.32515,0-62.24966,27.92451-62.24966,62.24966s27.92451,62.24966,62.24966,62.24966c34.3216,0,62.2461-27.92487,62.2461-62.24966s-27.9245-62.24966-62.2461-62.24966Z"/>
      <path class="cls-4" d="M1427.54639,492.24314c-3.0615-.31563-6.09531-.91884-9.01479-1.79259l6.10915-20.40799c1.64028.49244,3.35299.83221,5.08984,1.00902l-2.1842,21.19156ZM1438.96728,492.10077l-2.69758-21.12871c1.71306-.2187,3.41512-.60357,5.05859-1.14074l6.60869,20.25496c-2.91593.95008-5.93234,1.62643-8.9697,2.01449ZM1408.01571,485.92593c-2.63829-1.52205-5.15552-3.30435-7.48209-5.30144l13.86178-16.17095c1.32785,1.13719,2.76327,2.15331,4.25763,3.01321l-10.63732,18.45918ZM1458.335,485.29467l-11.08822-18.18864c1.47022-.89789,2.87439-1.94526,4.1678-3.11369l14.27078,15.81733c-2.27438,2.05248-4.74651,3.89726-7.35037,5.48499ZM1392.77424,472.23031c-1.80644-2.46858-3.38743-5.11753-4.70178-7.87725l19.236-9.16036c.74558,1.56714,1.63992,3.07215,2.66279,4.47278l-17.19701,12.56482ZM1473.24023,471.2181l-17.50908-12.12813c.98452-1.42513,1.84088-2.95073,2.54492-4.53172l19.46464,8.66117c-1.24477,2.79451-2.75651,5.48499-4.50047,7.99867ZM1384.38361,453.4974c-.63445-2.97487-.99517-6.03282-1.07506-9.09112l21.29558-.54072c.04509,1.7475.24959,3.495.61031,5.18676l-20.83084,4.44509ZM1481.15227,452.26648l-20.9416-3.91111c.30498-1.62608.46475-3.30044.47859-4.98226l-.00355-.37776h21.30232-10.3011l10.2837-.50629.02095.6657c0,3.06505-.28439,6.1301-.83931,9.11172ZM1405.19705,437.36444l-20.85178-4.34781c.62771-3.01286,1.543-5.97388,2.72173-8.79609l19.65885,8.19643c-.6586,1.58454-1.17518,3.24861-1.5288,4.94747ZM1459.90889,436.56027c-.39871-1.67472-.96393-3.32494-1.67436-4.90273l19.41601-8.7581c1.26215,2.79451,2.26407,5.72429,2.97841,8.70271l-20.72005,4.95812ZM1409.90877,426.73067l-17.2524-12.49559c1.78194-2.46184,3.81028-4.77776,6.02572-6.88243l14.67304,15.44277c-1.26891,1.20678-2.42705,2.53107-3.44636,3.93525ZM1454.88154,426.06852c-1.05411-1.37294-2.25024-2.65924-3.55039-3.82448l14.20865-15.87272c2.28112,2.04218,4.37549,4.29952,6.23376,6.71591l-16.89203,12.98128ZM1418.56639,418.89141l-10.7204-18.40734c2.65569-1.54619,5.46085-2.84635,8.33844-3.85892l7.08338,20.08881c-1.61578.57232-3.19996,1.3037-4.70142,2.17745ZM1446.00202,418.48915c-1.5185-.82866-3.12044-1.51176-4.76711-2.03863l6.49721-20.28976c2.91593.93588,5.75908,2.1494,8.44957,3.61252l-10.17967,18.71587ZM1429.61272,415.27534l-2.26053-21.18445c3.05795-.32593,6.15779-.37102,9.1671-.12852l-1.69176,21.2331c-1.7301-.13527-3.50885-.10758-5.21481.07988Z"/>
    </g>
  </g>
  <path class="cls-7" d="M654.05343,513.49334l-30.47701-1.93261,9.5617,34.18263-43.5696,20.8011,80.60388,50.0308,58.94048-24.7465,57.48364-69.68595-49.4998,6.08375.4425-31.44748-35.8974,11.44287-37.26714-48.00591-10.32124,53.27729Z"/>
  <polygon class="cls-11" points="712.23372 578.54632 737.85928 547.48083 714.2329 550.38315 714.53092 529.30218 694.22149 535.77548 675.5165 511.67949 670.29731 538.61351 652.75696 537.50159 658.3846 557.62268 634.65168 568.95285 675.17525 594.10403 712.23372 578.54632"/>
  <path class="cls-3" d="M1362.32649,106.93473l-55.13907,14.97604-85.36125,318.38527c4.75872.99168,9.40286,2.83392,14.24503,3.43485,6.71021.83366,13.55189.38214,20.31947.20515l83.11329-311.95017,86.55718,317.30612c3.68759.42365,7.38941.34094,11.09849.29469,3.87688-.04832,7.70025.24547,11.56202.64659,4.50079.46782,9.001.99079,13.50668,1.39339l-99.90183-344.69194Z"/>
  <polyline class="cls-3" points="837.66629 249.38485 1051.24111 192.99261 1051.24111 814.33503 936.05467 814.33503 936.05467 877.19289 1228.20671 877.19289 1228.20671 814.33503 1117.73467 814.33503 1116.0881 173.65178 1406.60513 95.89711 1406.11314 53.24043 752.91162 224.34802 752.91162 265.5194 783.66876 259.73891"/>
  <path class="cls-3" d="M783.66876,259.73891l-83.86631,352.27307c11.53237,1.21195,23.19341-.74176,34.66589,1.40643l79.30489-334.73119,85.58077,345.93641c.14749-.93387.56017-1.86062,1.05838-1.87959,10.64134-.40853,21.28446-.09961,31.92758-.02609l-94.67367-373.3331"/>
  <g>
    <path class="cls-9" d="M937.31335,688.1372c-2.30439,0-5.18127-.25979-7.02382-2.29958-1.24601-1.3759-1.8666-3.40126-1.84255-6.00873,0-.00962.03368-2.16007.03368-2.16007l.78417-69.66571c-.00481-.01443-.00481-.05292-.00962-.05292,0-.01924.03368-2.06866.03368-2.06866,0-.13951.03849-.26941.10103-.38006.7986-7.71177,4.95035-6.45614,8.50075-6.45614,3.82461.02405,9.68902-.04811,9.68902,8.86156,0,8.21691-.76973,69.18463-.77936,69.80041l-.03368,2.15525c-.00481.11065-.52438,8.16399-7.5915,8.24577l-.64946.01443c-.38487.00481-.79379.01443-1.21233.01443Z"/>
    <path class="cls-9" d="M918.78683,688.1372c-2.30439,0-5.18127-.25979-7.02382-2.29958-1.24601-1.3759-1.8666-3.40126-1.84255-6.00873,0-.00962.03368-2.16007.03368-2.16007l.78417-69.66571c-.00481-.01443-.00481-.05292-.00962-.05292,0-.01924.03368-2.06866.03368-2.06866,0-.13951.03849-.26941.10103-.38006.7986-7.71177,4.95035-6.45614,8.50075-6.45614,3.82461.02405,9.68902-.04811,9.68902,8.86156,0,8.21691-.76973,69.18463-.77936,69.80041l-.03368,2.15525c-.00481.11065-.52438,8.16399-7.5915,8.24577l-.64946.01443c-.38487.00481-.79379.01443-1.21233.01443Z"/>
    <path class="cls-9" d="M864.17499,504.11216c-1.13536,2.27071-3.70964,5.86633-4.84499,8.14186-6.50425-3.60813-9.42443-9.00588-9.52545-16.07781-.03368-2.24185.00962-4.49332-.07216-6.73517-.10103-2.81915-1.53466-4.82527-4.11326-5.88365-2.48239-1.01509-4.81084-.55806-6.9709,1.04876-1.1979.89-1.27968,1.63568-.46184,2.94423,6.07609,9.69864,5.60462,20.74913-1.16422,29.77426-6.15787,8.2121-17.2276,11.99341-27.23895,9.30416-10.3-2.76623-17.90593-11.57487-19.11345-22.00476-.63984-5.54689.47146-12.22433,4.78197-18.44474-1.8666-2.67964-4.61359-3.73802-7.53858-2.91537-2.81434.79379-4.71943,3.41088-4.83008,6.56679-.12027,3.51191.04811,7.06712-.49552,10.51168-.8419,5.33522-4.0411,9.15983-9.00107,11.88757-1.01028-1.98206-2.02536-3.78132-2.82396-5.67198-.178-.41854.23573-1.39033.67352-1.71266,2.79028-2.09752,4.07478-4.85894,4.11326-8.3035.03368-2.83839.01443-5.69603.30308-8.51037.55325-5.47954,3.62737-9.3234,8.60177-11.37763,5.17165-2.1312,10.11238-1.32779,14.49986,2.28034.63022.51957,1.25563,1.04876,1.62125,1.35184,3.42531-1.37109,6.5716-2.96347,9.89589-3.88716,6.91798-1.91952,13.50401-.65908,19.54642,3.14148,1.44806.90925,2.28515.88038,3.58888-.27903,4.43078-3.9497,9.58799-4.84451,15.01943-2.51126,5.52284,2.37655,8.31793,6.84101,8.63545,12.83531.06735,1.34222.07216,2.69407.00481,4.0411-.25497,4.87819.57538,10.36735,5.4247,13.05661"/>
    <path class="cls-9" d="M932.79405,469.03732c-13.06142,0-23.68855-11.10004-23.68855-24.74646s10.62714-24.75031,23.68855-24.75031,23.68855,11.10437,23.68855,24.75031-10.62714,24.74646-23.68855,24.74646Z"/>
    <path class="cls-9" d="M900.82846,628.53343c-5.08986,0-9.22718-4.47408-9.22718-9.96805,0-.04811,2.18756-29.38137,2.19237-29.42467l4.38505-45.88371-10.68724,16.53436c-.01443.01924-5.21495,6.01836-7.7695,6.01836-1.49617,0-4.66601-.14326-6.49893-1.56726-1.51541-1.17865-1.68914-3.34347-2.10765-5.96651-.58643-3.67546,12.17018-30.32784,12.17499-30.33265,0,0,19.03425-40.05279,19.03906-40.06242,4.54624-6.93241,9.40999-10.16048,15.29846-10.16048.27422,0,.54844.00481.82746.01924l20.85016-.00481c7.45198.08178,16.63106,4.83008,19.77734,13.75418.96217,2.67482,23.69818,65.77855,25.77646,73.50957,1.75595,6.5283-.09622,10.89173-5.65754,13.35007-1.29893.57249-2.54012.86114-3.6851.86114-3.52153,0-6.26371-2.65077-8.15918-7.88496-.00962-.01924-8.57427-17.88091-8.57427-17.88091l4.81324,37.87956c.00481.0433,2.53427,27.19381,2.53427,27.24192,0,5.49397-4.13732,9.96805-9.22718,9.96805h-56.0751Z"/>
    <path class="cls-9" d="M730.81575,603.04025c-.09574-.00385,1.37013,75.51376,1.37975,78.4628.01443,3.83424-3.87994,7.43274-8.88802,7.66847-5.61906.26941-9.28636-2.98079-9.64236-7.46449-.04811-.56768-.02405-1.14017-.02405-1.71266v-48.27673c0-.41373.0433-.82746.03849-1.2412-.01443-1.16422-.89963-1.91952-2.31401-1.97244-1.17865-.04811-2.24185.75049-2.29958,1.80887-.04811.77454.03368,1.5539.03368,2.32844.00481,16.19808.00962,32.39136-.00481,48.58944,0,3.84386-2.87688,6.90355-7.28842,7.85128-5.84998,1.25563-8.94815-2.23704-9.34264-7.26917-.05292-.6206-.02887-1.24601-.02887-1.8666-.00481-16.92452-.01924-33.84423-.00481-50.76875.00481-4.349.12027-8.69799.12989-13.04699.00481-3.57926-.06254-7.15852-.10584-10.73778,0-.178-7.6348,10.17492-9.02513,12.66212-1.30855,2.33807-3.35796,8.73648-8.63545,8.40934-2.3958.06735-5.14278-1.47212-6.18673-3.33872-.86595-1.54428-1.05838-3.04526-.05773-4.61359.72644-1.13055,1.31817-2.32844,1.97725-3.49267,5.6383-9.97767,11.27179-19.95535,16.91971-29.92821.92368-1.63568,1.94358-3.23769,2.89131-4.86857,1.50579-2.58823,4.06516-3.87272,7.40388-4.01224,2.72293-.11546,5.46511-.02887,8.19766-.02887,6.02317,0,12.05114.02887,18.07912-.00962,3.66586-.02405,6.41765,1.20752,8.41415,3.78613,4.91667,6.35511,7.33652,8.69799,12.29168,15.03867,3.63699,4.64246,12.08482-5.1043,15.68332-3.8198,3.8198,1.36147,6.13863,3.95451,5.45549,7.22587-1.50098,4.50294-6.6149,6.7496-16.36646,10.91097-6.29738,2.68926-18.68047-6.76885-18.68047-6.27333"/>
    <path class="cls-9" d="M711.06294,568.17901c-13.0518-.02405-23.7992-10.78108-23.79439-23.81364.00481-13.06575,10.71854-23.76505,23.7992-23.77034"/>
    <path class="cls-9" d="M711.06775,520.59504c13.0518-.00481,23.80882,10.72864,23.81845,23.77034.01443,12.99888-10.82919,23.83769-23.82326,23.81364"/>
    <path class="cls-9" d="M838.17775,636.23416c-6.71593.63984-13.0085,1.24601-19.45983,1.8666-.05773.45222-.17319.92368-.17319,1.39514-.00962,13.43185-.03368,26.86371.00962,40.29556.01443,4.68575,3.12704,8.04853,8.00523,8.87599,5.99911,1.01509,11.06492-2.58342,11.41611-8.1688.13951-2.25147.18762-4.51737.19243-6.77366.01924-11.80579.00962-23.61158.00962-35.41737v-2.07347ZM816.39429,638.11519c-6.55236-.63022-12.99407-1.25563-19.57529-1.89066-.03368.60135-.10103,1.22195-.10103,1.84736-.00962,13.92256-.01924,27.84512,0,41.76767.00962,4.65208,3.03083,7.90901,8.07258,8.80864,4.75311.8419,9.48697-1.54909,11.00238-5.6816.43779-1.18347.70719-2.48239.712-3.73321.04811-13.1432.03368-26.29122.02405-39.43442,0-.55325-.0866-1.10649-.1347-1.68379ZM794.7769,569.79903c-.48765,1.46295-3.23522,9.69713-5.78978,15.99451-1.71266,4.22391-3.41569,8.45264-5.1524,12.67174-3.09818,7.53377-6.2156,15.06273-9.3234,22.59168-.13951.33195-.23573.67833-.40411.99103-1.50098,2.76623-.37525,4.56548,2.9731,5.31116,3.33872.73606,6.61971,1.71266,9.95843,2.45834,9.22718,2.06385,18.6035,3.37721,28.1049,3.59369,4.37305.10103,8.78459-.24054,13.13839-.69276,9.42924-.98622,18.70453-2.69407,27.74409-5.36408.59654-.17319,1.21233-.30308,1.78001-.53881,1.62606-.67352,2.27553-1.90509,1.78482-3.46861-.34638-1.08244-.80341-2.14082-1.23157-3.19921-3.7284-9.22237-9.20981-31.75946-10.2317-34.0587,3.31059,3.00057,10.89153,4.43732,16.97987-.95081,2.30195-2.03721,12.51864-11.16337,15.9171-15.14042,1.42627-1.66909,2.04085-5.42388.95352-7.8235-1.51814-3.35038-5.1889-5.60735-9.03872-5.02151-7.34472,1.11767-15.69893,8.81999-15.69893,8.81999-4.55105-4.57992-18.21589-19.89748-22.94975-24.70832-2.38617-2.42466-5.30154-3.61775-8.90967-3.58888-5.57095.04811-11.15152.14914-16.71284-.03849-4.2191-.13951-7.43755,1.34222-10.14605,4.04591-1.62606,1.63087-3.20402,3.30023-4.82046,4.93592-7.55782,7.65404-34.36069,31.14506-35.89845,37.42349-.73811,3.01359.78417,5.75857,4.21429,7.47604,2.46315,1.23157,5.92695.61579,8.15437-1.49136,1.78001-1.68379,23.84991-19.58853,24.60496-20.22804Z"/>
  </g>
  <path class="cls-8" d="M903.90228,550.57459l-17.99768-9.22474-3.22271,23.28481-31.95478,1.12299,35.73395,51.6752,42.33109.54174,53.31723-27.13458-31.66766-9.38151,8.57576-18.9803-24.82262-2.53429-9.95099-38.99743-20.34159,29.62811Z"/>
  <polygon class="cls-1" points="922.05 605.44897 945.81863 593.35287 930.70358 588.87436 936.45344 576.15036 922.41018 574.71678 917.41557 555.14263 907.1313 570.12059 896.77306 564.81202 894.87549 578.5178 877.46999 579.12931 895.43538 605.10812 922.05 605.44897"/>
  <g>
    <circle class="cls-5" cx="1242.20545" cy="405.74684" r="66.83136"/>
    <g>
      <path class="cls-4" d="M1242.27044,474.79528c-38.23945,0-69.35044-31.11098-69.35044-69.35044s31.11098-69.35044,69.35044-69.35044,69.34688,31.11063,69.34688,69.35044-31.10743,69.35044-69.34688,69.35044ZM1242.27044,343.19518c-34.32515,0-62.24966,27.92451-62.24966,62.24966s27.92451,62.24966,62.24966,62.24966c34.3216,0,62.2461-27.92487,62.2461-62.24966s-27.9245-62.24966-62.2461-62.24966Z"/>
      <path class="cls-4" d="M1237.16498,454.6621c-3.0615-.31563-6.09531-.91884-9.01479-1.79259l6.10915-20.40799c1.64028.49244,3.35299.83221,5.08984,1.00902l-2.1842,21.19156ZM1248.58587,454.51973l-2.69758-21.12871c1.71306-.2187,3.41512-.60357,5.05859-1.14074l6.60869,20.25496c-2.91593.95008-5.93234,1.62643-8.9697,2.01449ZM1217.6343,448.34489c-2.63829-1.52205-5.15552-3.30435-7.48209-5.30144l13.86178-16.17095c1.32785,1.13719,2.76327,2.15331,4.25763,3.01321l-10.63732,18.45918ZM1267.95359,447.71363l-11.08822-18.18864c1.47022-.89789,2.87439-1.94526,4.1678-3.11369l14.27078,15.81733c-2.27438,2.05248-4.74651,3.89726-7.35037,5.48499ZM1202.39284,434.64927c-1.80644-2.46858-3.38743-5.11753-4.70178-7.87725l19.236-9.16036c.74558,1.56714,1.63992,3.07215,2.66279,4.47278l-17.19701,12.56482ZM1282.85882,433.63705l-17.50908-12.12813c.98452-1.42513,1.84088-2.95073,2.54492-4.53172l19.46464,8.66117c-1.24477,2.79451-2.75651,5.48499-4.50047,7.99867ZM1194.00221,415.91636c-.63445-2.97487-.99517-6.03282-1.07506-9.09112l21.29558-.54072c.04509,1.7475.24959,3.495.61031,5.18676l-20.83084,4.44509ZM1290.77086,414.68544l-20.9416-3.91111c.30498-1.62608.46475-3.30044.47859-4.98226l-.00355-.37776h21.30232-10.3011l10.2837-.50629.02095.6657c0,3.06505-.28439,6.1301-.83931,9.11172ZM1214.81565,399.78339l-20.85178-4.34781c.62771-3.01286,1.543-5.97388,2.72173-8.79609l19.65885,8.19643c-.6586,1.58454-1.17518,3.24861-1.5288,4.94747ZM1269.52748,398.97923c-.39871-1.67472-.96393-3.32494-1.67436-4.90273l19.41601-8.7581c1.26215,2.79451,2.26407,5.72429,2.97841,8.70271l-20.72005,4.95812ZM1219.52737,389.14963l-17.2524-12.49559c1.78194-2.46184,3.81028-4.77776,6.02572-6.88243l14.67304,15.44277c-1.26891,1.20678-2.42705,2.53107-3.44636,3.93525ZM1264.50013,388.48748c-1.05411-1.37294-2.25024-2.65924-3.55039-3.82448l14.20865-15.87272c2.28112,2.04218,4.37549,4.29952,6.23376,6.71591l-16.89203,12.98128ZM1228.18499,381.31037l-10.7204-18.40734c2.65569-1.54619,5.46085-2.84635,8.33844-3.85892l7.08338,20.08881c-1.61578.57232-3.19996,1.3037-4.70142,2.17745ZM1255.62061,380.90811c-1.5185-.82866-3.12044-1.51176-4.76711-2.03863l6.49721-20.28976c2.91593.93588,5.75908,2.1494,8.44957,3.61252l-10.17967,18.71587ZM1239.23131,377.6943l-2.26053-21.18445c3.05795-.32593,6.15779-.37102,9.1671-.12852l-1.69176,21.2331c-1.7301-.13527-3.50885-.10758-5.21481.07988Z"/>
    </g>
  </g>
  <g>
    <circle class="cls-5" cx="1368.58005" cy="423.15625" r="66.83136"/>
    <g>
      <path class="cls-4" d="M1368.64504,492.20469c-38.23945,0-69.35044-31.11098-69.35044-69.35044s31.11098-69.35044,69.35044-69.35044,69.34688,31.11063,69.34688,69.35044-31.10743,69.35044-69.34688,69.35044ZM1368.64504,360.60459c-34.32515,0-62.24966,27.92451-62.24966,62.24966s27.92451,62.24966,62.24966,62.24966c34.3216,0,62.2461-27.92487,62.2461-62.24966s-27.9245-62.24966-62.2461-62.24966Z"/>
      <path class="cls-4" d="M1363.53958,472.0715c-3.0615-.31563-6.09531-.91884-9.01479-1.79259l6.10915-20.40799c1.64028.49244,3.35299.83221,5.08984,1.00902l-2.1842,21.19156ZM1374.96047,471.92913l-2.69758-21.12871c1.71306-.2187,3.41512-.60357,5.05859-1.14074l6.60869,20.25496c-2.91593.95008-5.93234,1.62643-8.9697,2.01449ZM1344.0089,465.7543c-2.63829-1.52205-5.15552-3.30435-7.48209-5.30144l13.86178-16.17095c1.32785,1.13719,2.76327,2.15331,4.25763,3.01321l-10.63732,18.45918ZM1394.32819,465.12304l-11.08822-18.18864c1.47022-.89789,2.87439-1.94526,4.1678-3.11369l14.27078,15.81733c-2.27438,2.05248-4.74651,3.89726-7.35037,5.48499ZM1328.76744,452.05868c-1.80644-2.46858-3.38743-5.11753-4.70178-7.87725l19.236-9.16036c.74558,1.56714,1.63992,3.07215,2.66279,4.47278l-17.19701,12.56482ZM1409.23342,451.04646l-17.50908-12.12813c.98452-1.42513,1.84088-2.95073,2.54492-4.53172l19.46464,8.66117c-1.24477,2.79451-2.75651,5.48499-4.50047,7.99867ZM1320.37681,433.32577c-.63445-2.97487-.99517-6.03282-1.07506-9.09112l21.29558-.54072c.04509,1.7475.24959,3.495.61031,5.18676l-20.83084,4.44509ZM1417.14546,432.09485l-20.9416-3.91111c.30498-1.62608.46475-3.30044.47859-4.98226l-.00355-.37776h21.30232-10.3011l10.2837-.50629.02095.6657c0,3.06505-.28439,6.1301-.83931,9.11172ZM1341.19024,417.1928l-20.85178-4.34781c.62771-3.01286,1.543-5.97388,2.72173-8.79609l19.65885,8.19643c-.6586,1.58454-1.17518,3.24861-1.5288,4.94747ZM1395.90208,416.38864c-.39871-1.67472-.96393-3.32494-1.67436-4.90273l19.41601-8.7581c1.26215,2.79451,2.26407,5.72429,2.97841,8.70271l-20.72005,4.95812ZM1345.90196,406.55904l-17.2524-12.49559c1.78194-2.46184,3.81028-4.77776,6.02572-6.88243l14.67304,15.44277c-1.26891,1.20678-2.42705,2.53107-3.44636,3.93525ZM1390.87473,405.89689c-1.05411-1.37294-2.25024-2.65924-3.55039-3.82448l14.20865-15.87272c2.28112,2.04218,4.37549,4.29952,6.23376,6.71591l-16.89203,12.98128ZM1354.55959,398.71978l-10.7204-18.40734c2.65569-1.54619,5.46085-2.84635,8.33844-3.85892l7.08338,20.08881c-1.61578.57232-3.19996,1.3037-4.70142,2.17745ZM1381.99521,398.31752c-1.5185-.82866-3.12044-1.51176-4.76711-2.03863l6.49721-20.28976c2.91593.93588,5.75908,2.1494,8.44957,3.61252l-10.17967,18.71587ZM1365.60591,395.10371l-2.26053-21.18445c3.05795-.32593,6.15779-.37102,9.1671-.12852l-1.69176,21.2331c-1.7301-.13527-3.50885-.10758-5.21481.07988Z"/>
    </g>
  </g>
  <path class="cls-3" d="M1397.09676,435.0908l-217.39856,1.595c0,102.31383,69.04983,171.87811,163.41961,171.87811,77.71027,0,161.13829-56.13959,161.13829-173.27899l-107.15933-.19413Z"/>
  <path class="cls-3" d="M874.75448,614.4934l-217.21416.04879c0,102.31383,68.86543,173.42432,163.23521,173.42432,77.71027,0,161.13829-56.13959,161.13829-173.27899l-107.15933-.19413Z"/>
  <g>
    <path class="cls-5" d="M1553.70508,501.86539l.20898,2.40918c1.4541-1.85938,3.40918-2.78906,5.86328-2.78906,2.59277,0,4.34473,1.03125,5.25488,3.09277,1.3916-2.06152,3.40332-3.09277,6.03418-3.09277,4.16113,0,6.29883,2.51758,6.41309,7.55176v13.35742h-6.41309v-12.95898c0-1.0498-.17773-1.81543-.53125-2.2959-.35449-.48047-.99902-.7207-1.93555-.7207-1.26465,0-2.20703.5625-2.82715,1.68848l.01953.26562v14.02148h-6.41309v-12.9209c0-1.0752-.1709-1.85352-.5127-2.33398s-.99316-.7207-1.9541-.7207c-1.22754,0-2.16309.5625-2.80859,1.68848v14.28711h-6.39355v-20.5293h5.99512Z"/>
    <path class="cls-5" d="M1581.08398,496.55192c0-.91602.3291-1.66699.9873-2.25195.65723-.58496,1.51074-.87793,2.56152-.87793,1.0498,0,1.90332.29297,2.56152.87793.65723.58496.98633,1.33594.98633,2.25195,0,.91699-.3291,1.66797-.98633,2.25293-.6582.58594-1.51172.87793-2.56152.87793-1.05078,0-1.9043-.29199-2.56152-.87793-.6582-.58496-.9873-1.33594-.9873-2.25293ZM1587.87695,522.39469h-6.41309v-20.5293h6.41309v20.5293Z"/>
    <path class="cls-5" d="M1598.55957,522.39469h-6.41309v-29.14355h6.41309v29.14355Z"/>
    <path class="cls-5" d="M1602.44922,496.55192c0-.91602.3291-1.66699.9873-2.25195.65723-.58496,1.51074-.87793,2.56152-.87793,1.0498,0,1.90332.29297,2.56152.87793.65723.58496.98633,1.33594.98633,2.25195,0,.91699-.3291,1.66797-.98633,2.25293-.6582.58594-1.51172.87793-2.56152.87793-1.05078,0-1.9043-.29199-2.56152-.87793-.6582-.58496-.9873-1.33594-.9873-2.25293ZM1609.24219,522.39469h-6.41309v-20.5293h6.41309v20.5293Z"/>
    <path class="cls-5" d="M1620.62695,496.7609v5.10449h3.37695v4.43945h-3.37695v9.3916c0,.77246.13867,1.30957.41699,1.61328s.8291.45508,1.65137.45508c.63184,0,1.16309-.03809,1.59375-.11328v4.57227c-1.15137.36719-2.35254.55078-3.60547.55078-2.2002,0-3.82617-.51855-4.87598-1.55664-1.0498-1.03711-1.5752-2.61133-1.5752-4.72363v-10.18945h-2.61816v-4.43945h2.61816v-5.10449h6.39453Z"/>
    <path class="cls-5" d="M1638.08301,522.39469c-.22754-.41699-.42969-1.03125-.60742-1.84082-1.17578,1.48047-2.82031,2.2207-4.93262,2.2207-1.93555,0-3.58008-.58496-4.93359-1.75586-1.35352-1.16992-2.03027-2.63965-2.03027-4.41113,0-2.22559.82227-3.9082,2.4668-5.04688s4.03516-1.70801,7.17188-1.70801h1.97363v-1.08691c0-1.89355-.81543-2.84082-2.44727-2.84082-1.51855,0-2.27734.75098-2.27734,2.25h-6.39453c0-1.9834.84473-3.59375,2.5332-4.83203s3.84277-1.85742,6.46094-1.85742,4.68652.63867,6.2041,1.91602c1.51855,1.27832,2.2959,3.03027,2.33398,5.25586v9.08887c.02539,1.88477.31641,3.32715.87305,4.32617v.32227h-6.39453ZM1634.08008,518.22086c.79688,0,1.45703-.1709,1.98242-.5127.52441-.3418.90137-.72754,1.12891-1.15723v-3.28223h-1.85938c-2.22656,0-3.33984.99902-3.33984,2.99707,0,.58203.19629,1.05371.58887,1.41406.3916.36035.8916.54102,1.49902.54102Z"/>
    <path class="cls-5" d="M1659.56152,507.6525l-2.10547-.15234c-2.01172,0-3.30176.63281-3.87109,1.89746v12.99707h-6.39355v-20.5293h5.99512l.20898,2.63672c1.0752-2.01074,2.57422-3.0166,4.49707-3.0166.68262,0,1.27734.07617,1.7832.22754l-.11426,5.93945Z"/>
    <path class="cls-5" d="M1670.41504,513.43864l3.41504-11.57324h6.84961l-8.36719,23.96387-.36035.87207c-1.18945,2.65723-3.28906,3.98535-6.2998,3.98535-.83398,0-1.71387-.12598-2.63672-.37891v-4.55469h.83496c.89746,0,1.58398-.12988,2.05859-.38965.47363-.25977.8252-.72461,1.05273-1.39551l.5127-1.36719-7.13477-20.73535h6.83105l3.24414,11.57324Z"/>
    <path class="cls-5" d="M1704.24512,520.17496c-1.35352,1.7334-3.18164,2.59961-5.4834,2.59961-2.25195,0-3.95605-.65527-5.11328-1.96387-1.15723-1.30957-1.73633-3.19043-1.73633-5.64551v-13.2998h6.39453v13.33789c0,1.75879.85352,2.6377,2.56152,2.6377,1.4668,0,2.51074-.52441,3.13086-1.5752v-14.40039h6.43164v20.5293h-5.99609l-.18945-2.21973Z"/>
    <path class="cls-5" d="M1724.68066,516.62711c0-.54395-.28516-.98047-.85449-1.30957-.56836-.3291-1.65039-.66992-3.24414-1.02441s-2.90918-.81934-3.94629-1.39453c-1.03809-.57617-1.82812-1.27441-2.37207-2.09668s-.81543-1.76465-.81543-2.82715c0-1.88477.77734-3.4375,2.33301-4.6582,1.55664-1.2207,3.59277-1.83105,6.11035-1.83105,2.70605,0,4.88184.61328,6.52637,1.84082,1.64453,1.22656,2.4668,2.83984,2.4668,4.83789h-6.41309c0-1.64453-.86621-2.4668-2.59961-2.4668-.6709,0-1.2334.1875-1.68848.55957-.45508.37402-.68262.83887-.68262,1.39551,0,.56836.27734,1.03027.83398,1.38477s1.44531.64453,2.66602.87305c1.2207.22754,2.29297.49902,3.21582.81543,3.08691,1.0625,4.62988,2.9668,4.62988,5.71094,0,1.87207-.83203,3.39648-2.49512,4.57324-1.66309,1.17578-3.81641,1.76465-6.45996,1.76465-1.75879,0-3.32715-.31641-4.70605-.94922-1.37891-.63184-2.4541-1.49219-3.22559-2.58008s-1.15723-2.23242-1.15723-3.43457h5.97656c.02539.94922.3418,1.6416.94922,2.07812.60645.43555,1.38477.6543,2.33301.6543.87305,0,1.52832-.17676,1.96387-.53125.43652-.35449.65527-.81641.65527-1.38477Z"/>
    <path class="cls-5" d="M1743.76758,522.77457c-3.14941,0-5.69824-.93945-7.64648-2.81836-1.94824-1.87793-2.92188-4.32227-2.92188-7.33301v-.53125c0-2.09961.38867-3.95312,1.16699-5.55957s1.91309-2.84863,3.40625-3.72852c1.49219-.87891,3.2627-1.31836,5.3125-1.31836,2.88379,0,5.16113.89551,6.83008,2.68457,1.66992,1.79004,2.50488,4.28516,2.50488,7.48535v2.48535h-12.71289c.22852,1.15137.72754,2.05566,1.49902,2.71387.77148.65723,1.77148.98633,2.99805.98633,2.02344,0,3.60547-.70801,4.74316-2.125l2.92188,3.45312c-.79688,1.10059-1.92578,1.97656-3.38672,2.62793s-3.03223.97754-4.71484.97754ZM1743.04688,506.41911c-1.87207,0-2.98535,1.23926-3.33984,3.71875h6.45117v-.49316c.02539-1.02539-.23438-1.81836-.77734-2.38184-.54395-.5625-1.32227-.84375-2.33398-.84375Z"/>
  </g>
  <g>
    <path class="cls-5" d="M111.78223,639.0861l.2085,2.40918c1.45459-1.85938,3.40869-2.78906,5.86279-2.78906,2.59277,0,4.34521,1.03125,5.25586,3.09277,1.39111-2.06152,3.40234-3.09277,6.03369-3.09277,4.16162,0,6.29932,2.51758,6.41309,7.55176v13.35742h-6.41309v-12.95898c0-1.0498-.17725-1.81543-.53125-2.2959-.35449-.48047-.99951-.7207-1.93555-.7207-1.26465,0-2.20752.5625-2.82715,1.68848l.01904.26562v14.02148h-6.41309v-12.9209c0-1.0752-.1709-1.85352-.51221-2.33398s-.99316-.7207-1.9541-.7207c-1.22705,0-2.16309.5625-2.80811,1.68848v14.28711h-6.39453v-20.5293h5.99609Z"/>
    <path class="cls-5" d="M150.77344,659.61539c-.22852-.41699-.43066-1.03125-.60742-1.84082-1.17627,1.48047-2.8208,2.2207-4.93311,2.2207-1.93555,0-3.58008-.58496-4.93359-1.75586-1.35352-1.16992-2.02979-2.63965-2.02979-4.41113,0-2.22559.82178-3.9082,2.46631-5.04688s4.03516-1.70801,7.17236-1.70801h1.97314v-1.08691c0-1.89355-.81592-2.84082-2.44775-2.84082-1.51758,0-2.27686.75098-2.27686,2.25h-6.39404c0-1.9834.84424-3.59375,2.5332-4.83203,1.68848-1.23828,3.8418-1.85742,6.46045-1.85742s4.68701.63867,6.20459,1.91602c1.51758,1.27832,2.29492,3.03027,2.33398,5.25586v9.08887c.02539,1.88477.31641,3.32715.87305,4.32617v.32227h-6.39453ZM146.76953,655.44157c.79688,0,1.45801-.1709,1.98291-.5127s.90137-.72754,1.12891-1.15723v-3.28223h-1.85938c-2.22656,0-3.33936.99902-3.33936,2.99707,0,.58203.1958,1.05371.58789,1.41406s.89209.54102,1.49902.54102Z"/>
    <path class="cls-5" d="M159.78516,633.77262c0-.91602.3291-1.66699.9873-2.25195.65723-.58496,1.51074-.87793,2.56152-.87793,1.0498,0,1.90332.29297,2.56152.87793.65723.58496.98633,1.33594.98633,2.25195,0,.91699-.3291,1.66797-.98633,2.25293-.6582.58594-1.51172.87793-2.56152.87793-1.05078,0-1.9043-.29199-2.56152-.87793-.6582-.58496-.9873-1.33594-.9873-2.25293ZM166.57812,659.61539h-6.41309v-20.5293h6.41309v20.5293Z"/>
    <path class="cls-5" d="M176.55859,639.0861l.20898,2.40918c1.4541-1.85938,3.40918-2.78906,5.86328-2.78906,2.59277,0,4.34473,1.03125,5.25488,3.09277,1.3916-2.06152,3.40332-3.09277,6.03418-3.09277,4.16113,0,6.29883,2.51758,6.41309,7.55176v13.35742h-6.41309v-12.95898c0-1.0498-.17773-1.81543-.53125-2.2959-.35449-.48047-.99902-.7207-1.93555-.7207-1.26465,0-2.20703.5625-2.82715,1.68848l.01953.26562v14.02148h-6.41309v-12.9209c0-1.0752-.1709-1.85352-.5127-2.33398s-.99316-.7207-1.9541-.7207c-1.22754,0-2.16309.5625-2.80859,1.68848v14.28711h-6.39355v-20.5293h5.99512Z"/>
    <path class="cls-5" d="M203.9375,633.77262c0-.91602.3291-1.66699.9873-2.25195.65723-.58496,1.51074-.87793,2.56152-.87793,1.0498,0,1.90332.29297,2.56152.87793.65723.58496.98633,1.33594.98633,2.25195,0,.91699-.3291,1.66797-.98633,2.25293-.6582.58594-1.51172.87793-2.56152.87793-1.05078,0-1.9043-.29199-2.56152-.87793-.6582-.58496-.9873-1.33594-.9873-2.25293ZM210.73047,659.61539h-6.41309v-20.5293h6.41309v20.5293Z"/>
    <path class="cls-5" d="M220.54004,639.0861l.20898,2.40918c1.41699-1.85938,3.37109-2.78906,5.86328-2.78906,2.1377,0,3.73438.63867,4.79102,1.91602,1.05566,1.27832,1.60254,3.20117,1.64062,5.76855v13.22461h-6.41309v-12.95898c0-1.03711-.20898-1.7998-.62598-2.28613-.41699-.4873-1.17676-.73047-2.27734-.73047-1.25195,0-2.18164.49316-2.78906,1.47949v14.49609h-6.39355v-20.5293h5.99512Z"/>
    <path class="cls-5" d="M235.83398,649.1984c0-2.07422.34082-3.9082,1.02441-5.50195.68262-1.59375,1.66309-2.82422,2.94043-3.69043s2.76367-1.2998,4.45898-1.2998c2.1377,0,3.80762.7207,5.00879,2.16309l.22852-1.7832h5.80566v19.75098c0,1.80957-.4209,3.38086-1.26172,4.71582-.8418,1.33398-2.05859,2.3584-3.65234,3.07324s-3.44141,1.07227-5.54102,1.07227c-1.50488,0-2.96289-.28516-4.37305-.85352-1.41016-.56934-2.48926-1.30957-3.23535-2.2207l2.67578-3.75684c1.18848,1.4043,2.75684,2.10645,4.70508,2.10645,2.83398,0,4.25-1.45508,4.25-4.36426v-.64453c-1.22656,1.35352-2.77637,2.03027-4.64844,2.03027-2.50391,0-4.52832-.95898-6.07129-2.875s-2.31445-4.48047-2.31445-7.69336v-.22852ZM242.24707,649.59684c0,1.68262.31543,3.01465.94824,3.99414.63281.98047,1.51758,1.4707,2.65625,1.4707,1.37891,0,2.38477-.46191,3.0166-1.38477v-8.63379c-.61914-.93555-1.6123-1.40332-2.97852-1.40332-1.13867,0-2.03027.50879-2.6748,1.52734-.64551,1.01758-.96777,2.49512-.96777,4.42969Z"/>
    <path class="cls-5" d="M261.12598,661.98746h-4.53418l9.42969-29.99805h4.55371l-9.44922,29.99805Z"/>
    <path class="cls-5" d="M280.82129,651.96891l-1.80273,1.80273v5.84375h-6.39355v-29.16309h6.39355v15.4834l.64551-.85449,4.81934-5.99512h7.66504l-7.19043,8.44336,7.66504,12.08594h-7.32422l-4.47754-7.64648Z"/>
    <path class="cls-5" d="M293.78027,633.77262c0-.91602.3291-1.66699.9873-2.25195.65723-.58496,1.51074-.87793,2.56152-.87793,1.0498,0,1.90332.29297,2.56152.87793.65723.58496.98633,1.33594.98633,2.25195,0,.91699-.3291,1.66797-.98633,2.25293-.6582.58594-1.51172.87793-2.56152.87793-1.05078,0-1.9043-.29199-2.56152-.87793-.6582-.58496-.9873-1.33594-.9873-2.25293ZM300.57324,659.61539h-6.41309v-20.5293h6.41309v20.5293Z"/>
    <path class="cls-5" d="M311.25586,659.61539h-6.41309v-29.14355h6.41309v29.14355Z"/>
    <path class="cls-5" d="M321.93848,659.61539h-6.41309v-29.14355h6.41309v29.14355Z"/>
    <path class="cls-5" d="M325.82812,633.77262c0-.91602.3291-1.66699.9873-2.25195.65723-.58496,1.51074-.87793,2.56152-.87793,1.0498,0,1.90332.29297,2.56152.87793.65723.58496.98633,1.33594.98633,2.25195,0,.91699-.3291,1.66797-.98633,2.25293-.6582.58594-1.51172.87793-2.56152.87793-1.05078,0-1.9043-.29199-2.56152-.87793-.6582-.58496-.9873-1.33594-.9873-2.25293ZM332.62109,659.61539h-6.41309v-20.5293h6.41309v20.5293Z"/>
    <path class="cls-5" d="M342.43066,639.0861l.20898,2.40918c1.41699-1.85938,3.37109-2.78906,5.86328-2.78906,2.1377,0,3.73438.63867,4.79102,1.91602,1.05566,1.27832,1.60254,3.20117,1.64062,5.76855v13.22461h-6.41309v-12.95898c0-1.03711-.20898-1.7998-.62598-2.28613-.41699-.4873-1.17676-.73047-2.27734-.73047-1.25195,0-2.18164.49316-2.78906,1.47949v14.49609h-6.39355v-20.5293h5.99512Z"/>
    <path class="cls-5" d="M357.72461,649.1984c0-2.07422.34082-3.9082,1.02441-5.50195.68262-1.59375,1.66309-2.82422,2.94043-3.69043s2.76367-1.2998,4.45898-1.2998c2.1377,0,3.80762.7207,5.00879,2.16309l.22852-1.7832h5.80566v19.75098c0,1.80957-.4209,3.38086-1.26172,4.71582-.8418,1.33398-2.05859,2.3584-3.65234,3.07324s-3.44141,1.07227-5.54102,1.07227c-1.50488,0-2.96289-.28516-4.37305-.85352-1.41016-.56934-2.48926-1.30957-3.23535-2.2207l2.67578-3.75684c1.18848,1.4043,2.75684,2.10645,4.70508,2.10645,2.83398,0,4.25-1.45508,4.25-4.36426v-.64453c-1.22656,1.35352-2.77637,2.03027-4.64844,2.03027-2.50391,0-4.52832-.95898-6.07129-2.875s-2.31445-4.48047-2.31445-7.69336v-.22852ZM364.1377,649.59684c0,1.68262.31543,3.01465.94824,3.99414.63281.98047,1.51758,1.4707,2.65625,1.4707,1.37891,0,2.38477-.46191,3.0166-1.38477v-8.63379c-.61914-.93555-1.6123-1.40332-2.97852-1.40332-1.13867,0-2.03027.50879-2.6748,1.52734-.64551,1.01758-.96777,2.49512-.96777,4.42969Z"/>
    <path class="cls-5" d="M389.69531,649.16129c0-2.0498.39844-3.87402,1.19531-5.47461.79688-1.59961,1.94238-2.83008,3.43457-3.69043,1.49219-.85938,3.24414-1.29004,5.25586-1.29004,3.07324,0,5.49609.95215,7.2666,2.85547,1.77148,1.9043,2.65625,4.49414,2.65625,7.76953v.22852c0,3.2002-.88867,5.73926-2.66504,7.61719-1.77734,1.87891-4.18457,2.81836-7.21973,2.81836-2.92188,0-5.26855-.87598-7.03906-2.62793-1.77148-1.75195-2.72656-4.12695-2.86523-7.125l-.01953-1.08105ZM396.08984,649.55973c0,1.89648.29688,3.28809.8916,4.17383s1.47363,1.32812,2.6377,1.32812c2.27637,0,3.44043-1.75195,3.49121-5.25586v-.64453c0-3.68164-1.17676-5.52148-3.5293-5.52148-2.1377,0-3.29492,1.58691-3.47266,4.76172l-.01855,1.1582Z"/>
    <path class="cls-5" d="M413.73633,659.61539v-16.08984h-2.97949v-4.43945h2.97949v-1.63184c0-2.33984.68848-4.15527,2.06738-5.44531,1.37891-1.29102,3.31445-1.93555,5.80664-1.93555.91016,0,1.90918.13281,2.99707.39844l.01953,4.70508c-.39258-.11328-.91699-.1709-1.5752-.1709-1.93555,0-2.90234.83496-2.90234,2.50488v1.5752h4.00293v4.43945h-4.00293v16.08984h-6.41309Z"/>
    <path class="cls-5" d="M455.13672,649.50211c0,3.1875-.71875,5.7334-2.1543,7.63672-1.43555,1.9043-3.37402,2.85645-5.81543,2.85645-1.88477,0-3.43359-.68945-4.64844-2.06836v9.58203h-6.39355v-28.42285h5.97656l.18945,1.89746c1.22656-1.51855,2.83984-2.27734,4.83887-2.27734,2.5293,0,4.49609.93262,5.90039,2.79883s2.10645,4.43066,2.10645,7.69336v.30371ZM448.74219,649.10368c0-3.64258-1.0625-5.46387-3.1875-5.46387-1.51758,0-2.53027.54395-3.03613,1.63184v8.08203c.55664,1.13867,1.58105,1.70801,3.07422,1.70801,2.03613,0,3.08594-1.75781,3.14941-5.27441v-.68359Z"/>
    <path class="cls-5" d="M467.88672,659.99528c-3.14941,0-5.69824-.93945-7.64648-2.81836-1.94824-1.87793-2.92188-4.32227-2.92188-7.33301v-.53125c0-2.09961.38867-3.95312,1.16699-5.55957s1.91309-2.84863,3.40625-3.72852c1.49219-.87891,3.2627-1.31836,5.3125-1.31836,2.88379,0,5.16113.89551,6.83008,2.68457,1.66992,1.79004,2.50488,4.28516,2.50488,7.48535v2.48535h-12.71289c.22852,1.15137.72754,2.05566,1.49902,2.71387.77148.65723,1.77148.98633,2.99805.98633,2.02344,0,3.60547-.70801,4.74316-2.125l2.92188,3.45312c-.79688,1.10059-1.92578,1.97656-3.38672,2.62793s-3.03223.97754-4.71484.97754ZM467.16602,643.63981c-1.87207,0-2.98535,1.23926-3.33984,3.71875h6.45117v-.49316c.02539-1.02539-.23438-1.81836-.77734-2.38184-.54395-.5625-1.32227-.84375-2.33398-.84375Z"/>
    <path class="cls-5" d="M478.30371,649.16129c0-2.0498.39844-3.87402,1.19531-5.47461.79688-1.59961,1.94238-2.83008,3.43457-3.69043,1.49219-.85938,3.24414-1.29004,5.25586-1.29004,3.07324,0,5.49609.95215,7.2666,2.85547,1.77148,1.9043,2.65625,4.49414,2.65625,7.76953v.22852c0,3.2002-.88867,5.73926-2.66504,7.61719-1.77734,1.87891-4.18457,2.81836-7.21973,2.81836-2.92188,0-5.26855-.87598-7.03906-2.62793-1.77148-1.75195-2.72656-4.12695-2.86523-7.125l-.01953-1.08105ZM484.69824,649.55973c0,1.89648.29688,3.28809.8916,4.17383s1.47363,1.32812,2.6377,1.32812c2.27637,0,3.44043-1.75195,3.49121-5.25586v-.64453c0-3.68164-1.17676-5.52148-3.5293-5.52148-2.1377,0-3.29492,1.58691-3.47266,4.76172l-.01855,1.1582Z"/>
    <path class="cls-5" d="M519.99023,649.50211c0,3.1875-.71875,5.7334-2.1543,7.63672-1.43555,1.9043-3.37402,2.85645-5.81543,2.85645-1.88477,0-3.43359-.68945-4.64844-2.06836v9.58203h-6.39355v-28.42285h5.97656l.18945,1.89746c1.22656-1.51855,2.83984-2.27734,4.83887-2.27734,2.5293,0,4.49609.93262,5.90039,2.79883s2.10645,4.43066,2.10645,7.69336v.30371ZM513.5957,649.10368c0-3.64258-1.0625-5.46387-3.1875-5.46387-1.51758,0-2.53027.54395-3.03613,1.63184v8.08203c.55664,1.13867,1.58105,1.70801,3.07422,1.70801,2.03613,0,3.08594-1.75781,3.14941-5.27441v-.68359Z"/>
    <path class="cls-5" d="M529.55273,659.61539h-6.41309v-29.14355h6.41309v29.14355Z"/>
    <path class="cls-5" d="M543.42285,659.99528c-3.14941,0-5.69824-.93945-7.64648-2.81836-1.94824-1.87793-2.92188-4.32227-2.92188-7.33301v-.53125c0-2.09961.38867-3.95312,1.16699-5.55957s1.91309-2.84863,3.40625-3.72852c1.49219-.87891,3.2627-1.31836,5.3125-1.31836,2.88379,0,5.16113.89551,6.83008,2.68457,1.66992,1.79004,2.50488,4.28516,2.50488,7.48535v2.48535h-12.71289c.22852,1.15137.72754,2.05566,1.49902,2.71387.77148.65723,1.77148.98633,2.99805.98633,2.02344,0,3.60547-.70801,4.74316-2.125l2.92188,3.45312c-.79688,1.10059-1.92578,1.97656-3.38672,2.62793s-3.03223.97754-4.71484.97754ZM542.70215,643.63981c-1.87207,0-2.98535,1.23926-3.33984,3.71875h6.45117v-.49316c.02539-1.02539-.23438-1.81836-.77734-2.38184-.54395-.5625-1.32227-.84375-2.33398-.84375Z"/>
    <path class="cls-5" d="M109.84668,686.34977c-.74658-1.0625-1.33154-2.07422-1.75488-3.03613-.42432-.96094-.63574-1.9541-.63574-2.97852,0-2.22656.7207-4.02539,2.16309-5.39844,1.44189-1.37207,3.32666-2.05859,5.65381-2.05859,2.0874,0,3.81396.63574,5.18018,1.90723,1.36621,1.27051,2.04883,2.84863,2.04883,4.7334,0,2.35352-1.29639,4.44043-3.88916,6.26172l-1.44238,1.00586,4.25049,4.87598c.69531-1.3916,1.04346-2.91504,1.04346-4.57227h5.36963c0,3.73145-.86035,6.72266-2.58057,8.97461l4.21191,4.83789h-7.13379l-1.29053-1.46094c-1.0625.63281-2.14697,1.10059-3.25391,1.4043s-2.35596.45508-3.74707.45508c-2.73242,0-4.9209-.71777-6.56494-2.15332-1.64453-1.43555-2.4668-3.32324-2.4668-5.66406,0-1.27734.32568-2.43457.97705-3.47168s1.91943-2.24512,3.8042-3.62402l.05713-.03809ZM114.45752,696.36735c1.11279,0,2.17529-.25879,3.1875-.77734l-4.97119-5.6543-.1709.11426c-.7207.88477-1.08154,1.88477-1.08154,2.99707,0,.92383.29102,1.70801.87305,2.35352.58154.64453,1.30273.9668,2.16309.9668ZM112.97754,680.25895c0,.88574.48047,1.96094,1.44189,3.22559l1.271-.79688c.58203-.37988,1.00586-.77148,1.27148-1.17676.26562-.4043.39844-.91699.39844-1.53613,0-.58203-.20264-1.08789-.60742-1.51855-.40479-.42969-.9043-.64453-1.49854-.64453-.70898,0-1.26514.22461-1.66992.67285-.40479.44922-.60693,1.04102-.60693,1.77441Z"/>
    <path class="cls-5" d="M160.65918,690.78922c0,3.1875-.71875,5.7334-2.1543,7.63672-1.43555,1.9043-3.37402,2.85645-5.81543,2.85645-1.88477,0-3.43408-.68945-4.64795-2.06836v9.58203h-6.39453v-28.42285h5.97705l.18945,1.89746c1.22705-1.51855,2.83984-2.27734,4.83887-2.27734,2.5293,0,4.49609.93262,5.90039,2.79883s2.10645,4.43066,2.10645,7.69336v.30371ZM154.26465,690.39078c0-3.64258-1.0625-5.46387-3.1875-5.46387-1.51807,0-2.53027.54395-3.03564,1.63184v8.08203c.55615,1.13867,1.58105,1.70801,3.07373,1.70801,2.03613,0,3.08594-1.75781,3.14941-5.27441v-.68359Z"/>
    <path class="cls-5" d="M175.89453,686.16032l-2.10547-.15234c-2.01172,0-3.30176.63281-3.87109,1.89746v12.99707h-6.39355v-20.5293h5.99512l.20898,2.63672c1.0752-2.01074,2.57422-3.0166,4.49707-3.0166.68262,0,1.27734.07617,1.7832.22754l-.11426,5.93945Z"/>
    <path class="cls-5" d="M187.77246,701.28239c-3.14941,0-5.69824-.93945-7.64648-2.81836-1.94824-1.87793-2.92188-4.32227-2.92188-7.33301v-.53125c0-2.09961.38867-3.95312,1.16699-5.55957s1.91309-2.84863,3.40625-3.72852c1.49219-.87891,3.2627-1.31836,5.3125-1.31836,2.88379,0,5.16113.89551,6.83008,2.68457,1.66992,1.79004,2.50488,4.28516,2.50488,7.48535v2.48535h-12.71289c.22852,1.15137.72754,2.05566,1.49902,2.71387.77148.65723,1.77148.98633,2.99805.98633,2.02344,0,3.60547-.70801,4.74316-2.125l2.92188,3.45312c-.79688,1.10059-1.92578,1.97656-3.38672,2.62793s-3.03223.97754-4.71484.97754ZM187.05176,684.92692c-1.87207,0-2.98535,1.23926-3.33984,3.71875h6.45117v-.49316c.02539-1.02539-.23438-1.81836-.77734-2.38184-.54395-.5625-1.32227-.84375-2.33398-.84375Z"/>
    <path class="cls-5" d="M206.93652,693.29411l3.24414-12.9209h6.73535l-6.69727,20.5293h-6.52734l-6.69727-20.5293h6.75488l3.1875,12.9209Z"/>
    <path class="cls-5" d="M228.50977,701.28239c-3.14941,0-5.69824-.93945-7.64648-2.81836-1.94824-1.87793-2.92188-4.32227-2.92188-7.33301v-.53125c0-2.09961.38867-3.95312,1.16699-5.55957s1.91309-2.84863,3.40625-3.72852c1.49219-.87891,3.2627-1.31836,5.3125-1.31836,2.88379,0,5.16113.89551,6.83008,2.68457,1.66992,1.79004,2.50488,4.28516,2.50488,7.48535v2.48535h-12.71289c.22852,1.15137.72754,2.05566,1.49902,2.71387.77148.65723,1.77148.98633,2.99805.98633,2.02344,0,3.60547-.70801,4.74316-2.125l2.92188,3.45312c-.79688,1.10059-1.92578,1.97656-3.38672,2.62793s-3.03223.97754-4.71484.97754ZM227.78906,684.92692c-1.87207,0-2.98535,1.23926-3.33984,3.71875h6.45117v-.49316c.02539-1.02539-.23438-1.81836-.77734-2.38184-.54395-.5625-1.32227-.84375-2.33398-.84375Z"/>
    <path class="cls-5" d="M245.60547,680.37321l.20898,2.40918c1.41699-1.85938,3.37109-2.78906,5.86328-2.78906,2.1377,0,3.73438.63867,4.79102,1.91602,1.05566,1.27832,1.60254,3.20117,1.64062,5.76855v13.22461h-6.41309v-12.95898c0-1.03711-.20898-1.7998-.62598-2.28613-.41699-.4873-1.17676-.73047-2.27734-.73047-1.25195,0-2.18164.49316-2.78906,1.47949v14.49609h-6.39355v-20.5293h5.99512Z"/>
    <path class="cls-5" d="M269.0957,675.26871v5.10449h3.37695v4.43945h-3.37695v9.3916c0,.77246.13867,1.30957.41699,1.61328s.8291.45508,1.65137.45508c.63184,0,1.16309-.03809,1.59375-.11328v4.57227c-1.15137.36719-2.35254.55078-3.60547.55078-2.2002,0-3.82617-.51855-4.87598-1.55664-1.0498-1.03711-1.5752-2.61133-1.5752-4.72363v-10.18945h-2.61816v-4.43945h2.61816v-5.10449h6.39453Z"/>
    <path class="cls-5" d="M274.93945,675.05973c0-.91602.3291-1.66699.9873-2.25195.65723-.58496,1.51074-.87793,2.56152-.87793,1.0498,0,1.90332.29297,2.56152.87793.65723.58496.98633,1.33594.98633,2.25195,0,.91699-.3291,1.66797-.98633,2.25293-.6582.58594-1.51172.87793-2.56152.87793-1.05078,0-1.9043-.29199-2.56152-.87793-.6582-.58496-.9873-1.33594-.9873-2.25293ZM281.73242,700.9025h-6.41309v-20.5293h6.41309v20.5293Z"/>
    <path class="cls-5" d="M284.86328,690.4484c0-2.0498.39844-3.87402,1.19531-5.47461.79688-1.59961,1.94238-2.83008,3.43457-3.69043,1.49219-.85938,3.24414-1.29004,5.25586-1.29004,3.07324,0,5.49609.95215,7.2666,2.85547,1.77148,1.9043,2.65625,4.49414,2.65625,7.76953v.22852c0,3.2002-.88867,5.73926-2.66504,7.61719-1.77734,1.87891-4.18457,2.81836-7.21973,2.81836-2.92188,0-5.26855-.87598-7.03906-2.62793-1.77148-1.75195-2.72656-4.12695-2.86523-7.125l-.01953-1.08105ZM291.25781,690.84684c0,1.89648.29688,3.28809.8916,4.17383s1.47363,1.32812,2.6377,1.32812c2.27637,0,3.44043-1.75195,3.49121-5.25586v-.64453c0-3.68164-1.17676-5.52148-3.5293-5.52148-2.1377,0-3.29492,1.58691-3.47266,4.76172l-.01855,1.1582Z"/>
    <path class="cls-5" d="M313.3623,680.37321l.20898,2.40918c1.41699-1.85938,3.37109-2.78906,5.86328-2.78906,2.1377,0,3.73438.63867,4.79102,1.91602,1.05566,1.27832,1.60254,3.20117,1.64062,5.76855v13.22461h-6.41309v-12.95898c0-1.03711-.20898-1.7998-.62598-2.28613-.41699-.4873-1.17676-.73047-2.27734-.73047-1.25195,0-2.18164.49316-2.78906,1.47949v14.49609h-6.39355v-20.5293h5.99512Z"/>
    <path class="cls-5" d="M338.27539,690.4484c0-2.0498.39844-3.87402,1.19531-5.47461.79688-1.59961,1.94238-2.83008,3.43457-3.69043,1.49219-.85938,3.24414-1.29004,5.25586-1.29004,3.07324,0,5.49609.95215,7.2666,2.85547,1.77148,1.9043,2.65625,4.49414,2.65625,7.76953v.22852c0,3.2002-.88867,5.73926-2.66504,7.61719-1.77734,1.87891-4.18457,2.81836-7.21973,2.81836-2.92188,0-5.26855-.87598-7.03906-2.62793-1.77148-1.75195-2.72656-4.12695-2.86523-7.125l-.01953-1.08105ZM344.66992,690.84684c0,1.89648.29688,3.28809.8916,4.17383s1.47363,1.32812,2.6377,1.32812c2.27637,0,3.44043-1.75195,3.49121-5.25586v-.64453c0-3.68164-1.17676-5.52148-3.5293-5.52148-2.1377,0-3.29492,1.58691-3.47266,4.76172l-.01855,1.1582Z"/>
    <path class="cls-5" d="M362.31641,700.9025v-16.08984h-2.97949v-4.43945h2.97949v-1.63184c0-2.33984.68848-4.15527,2.06738-5.44531,1.37891-1.29102,3.31445-1.93555,5.80664-1.93555.91016,0,1.90918.13281,2.99707.39844l.01953,4.70508c-.39258-.11328-.91699-.1709-1.5752-.1709-1.93555,0-2.90234.83496-2.90234,2.50488v1.5752h4.00293v4.43945h-4.00293v16.08984h-6.41309Z"/>
    <path class="cls-5" d="M395.40625,695.13493c0-.54395-.28516-.98047-.85449-1.30957-.56836-.3291-1.65039-.66992-3.24414-1.02441s-2.90918-.81934-3.94629-1.39453c-1.03809-.57617-1.82812-1.27441-2.37207-2.09668s-.81543-1.76465-.81543-2.82715c0-1.88477.77734-3.4375,2.33301-4.6582,1.55664-1.2207,3.59277-1.83105,6.11035-1.83105,2.70605,0,4.88184.61328,6.52637,1.84082,1.64453,1.22656,2.4668,2.83984,2.4668,4.83789h-6.41309c0-1.64453-.86621-2.4668-2.59961-2.4668-.6709,0-1.2334.1875-1.68848.55957-.45508.37402-.68262.83887-.68262,1.39551,0,.56836.27734,1.03027.83398,1.38477s1.44531.64453,2.66602.87305c1.2207.22754,2.29297.49902,3.21582.81543,3.08691,1.0625,4.62988,2.9668,4.62988,5.71094,0,1.87207-.83203,3.39648-2.49512,4.57324-1.66309,1.17578-3.81641,1.76465-6.45996,1.76465-1.75879,0-3.32715-.31641-4.70605-.94922-1.37891-.63184-2.4541-1.49219-3.22559-2.58008s-1.15723-2.23242-1.15723-3.43457h5.97656c.02539.94922.3418,1.6416.94922,2.07812.60645.43555,1.38477.6543,2.33301.6543.87305,0,1.52832-.17676,1.96387-.53125.43652-.35449.65527-.81641.65527-1.38477Z"/>
    <path class="cls-5" d="M403.75391,690.4484c0-2.0498.39844-3.87402,1.19531-5.47461.79688-1.59961,1.94238-2.83008,3.43457-3.69043,1.49219-.85938,3.24414-1.29004,5.25586-1.29004,3.07324,0,5.49609.95215,7.2666,2.85547,1.77148,1.9043,2.65625,4.49414,2.65625,7.76953v.22852c0,3.2002-.88867,5.73926-2.66504,7.61719-1.77734,1.87891-4.18457,2.81836-7.21973,2.81836-2.92188,0-5.26855-.87598-7.03906-2.62793-1.77148-1.75195-2.72656-4.12695-2.86523-7.125l-.01953-1.08105ZM410.14844,690.84684c0,1.89648.29688,3.28809.8916,4.17383s1.47363,1.32812,2.6377,1.32812c2.27637,0,3.44043-1.75195,3.49121-5.25586v-.64453c0-3.68164-1.17676-5.52148-3.5293-5.52148-2.1377,0-3.29492,1.58691-3.47266,4.76172l-.01855,1.1582Z"/>
    <path class="cls-5" d="M435.06152,696.34879c.89746,0,1.59375-.24316,2.08691-.73047s.7334-1.16699.7207-2.04004h5.99609c0,2.25195-.80664,4.09863-2.41895,5.54102-1.61328,1.44141-3.69043,2.16309-6.2334,2.16309-2.98535,0-5.33789-.93652-7.05762-2.80859-1.7207-1.87207-2.58105-4.46484-2.58105-7.7793v-.26562c0-2.07422.38281-3.90527,1.14844-5.49316.76465-1.58691,1.86914-2.80762,3.31055-3.66113,1.44238-.85449,3.14941-1.28125,5.12305-1.28125,2.66895,0,4.78809.74023,6.35645,2.21973,1.56836,1.48047,2.35254,3.48535,2.35254,6.01465h-5.99609c0-1.0625-.25879-1.87793-.77734-2.44727s-1.21484-.85352-2.08691-.85352c-1.65723,0-2.625,1.05566-2.90332,3.16797-.08887.6709-.13281,1.59375-.13281,2.77051,0,2.06152.24707,3.49121.74023,4.28809s1.27734,1.19531,2.35254,1.19531Z"/>
    <path class="cls-5" d="M446.52148,675.05973c0-.91602.3291-1.66699.9873-2.25195.65723-.58496,1.51074-.87793,2.56152-.87793,1.0498,0,1.90332.29297,2.56152.87793.65723.58496.98633,1.33594.98633,2.25195,0,.91699-.3291,1.66797-.98633,2.25293-.6582.58594-1.51172.87793-2.56152.87793-1.05078,0-1.9043-.29199-2.56152-.87793-.6582-.58496-.9873-1.33594-.9873-2.25293ZM453.31445,700.9025h-6.41309v-20.5293h6.41309v20.5293Z"/>
    <path class="cls-5" d="M456.44531,690.4484c0-2.0498.39844-3.87402,1.19531-5.47461.79688-1.59961,1.94238-2.83008,3.43457-3.69043,1.49219-.85938,3.24414-1.29004,5.25586-1.29004,3.07324,0,5.49609.95215,7.2666,2.85547,1.77148,1.9043,2.65625,4.49414,2.65625,7.76953v.22852c0,3.2002-.88867,5.73926-2.66504,7.61719-1.77734,1.87891-4.18457,2.81836-7.21973,2.81836-2.92188,0-5.26855-.87598-7.03906-2.62793-1.77148-1.75195-2.72656-4.12695-2.86523-7.125l-.01953-1.08105ZM462.83984,690.84684c0,1.89648.29688,3.28809.8916,4.17383s1.47363,1.32812,2.6377,1.32812c2.27637,0,3.44043-1.75195,3.49121-5.25586v-.64453c0-3.68164-1.17676-5.52148-3.5293-5.52148-2.1377,0-3.29492,1.58691-3.47266,4.76172l-.01855,1.1582Z"/>
    <path class="cls-5" d="M489.00488,701.28239c-3.14941,0-5.69824-.93945-7.64648-2.81836-1.94824-1.87793-2.92188-4.32227-2.92188-7.33301v-.53125c0-2.09961.38867-3.95312,1.16699-5.55957s1.91309-2.84863,3.40625-3.72852c1.49219-.87891,3.2627-1.31836,5.3125-1.31836,2.88379,0,5.16113.89551,6.83008,2.68457,1.66992,1.79004,2.50488,4.28516,2.50488,7.48535v2.48535h-12.71289c.22852,1.15137.72754,2.05566,1.49902,2.71387.77148.65723,1.77148.98633,2.99805.98633,2.02344,0,3.60547-.70801,4.74316-2.125l2.92188,3.45312c-.79688,1.10059-1.92578,1.97656-3.38672,2.62793s-3.03223.97754-4.71484.97754ZM488.28418,684.92692c-1.87207,0-2.98535,1.23926-3.33984,3.71875h6.45117v-.49316c.02539-1.02539-.23438-1.81836-.77734-2.38184-.54395-.5625-1.32227-.84375-2.33398-.84375Z"/>
    <path class="cls-5" d="M508.90918,696.34879c.89746,0,1.59375-.24316,2.08691-.73047s.7334-1.16699.7207-2.04004h5.99609c0,2.25195-.80664,4.09863-2.41895,5.54102-1.61328,1.44141-3.69043,2.16309-6.2334,2.16309-2.98535,0-5.33789-.93652-7.05762-2.80859-1.7207-1.87207-2.58105-4.46484-2.58105-7.7793v-.26562c0-2.07422.38281-3.90527,1.14844-5.49316.76465-1.58691,1.86914-2.80762,3.31055-3.66113,1.44238-.85449,3.14941-1.28125,5.12305-1.28125,2.66895,0,4.78809.74023,6.35645,2.21973,1.56836,1.48047,2.35254,3.48535,2.35254,6.01465h-5.99609c0-1.0625-.25879-1.87793-.77734-2.44727s-1.21484-.85352-2.08691-.85352c-1.65723,0-2.625,1.05566-2.90332,3.16797-.08887.6709-.13281,1.59375-.13281,2.77051,0,2.06152.24707,3.49121.74023,4.28809s1.27734,1.19531,2.35254,1.19531Z"/>
    <path class="cls-5" d="M519.61035,690.4484c0-2.0498.39844-3.87402,1.19531-5.47461.79688-1.59961,1.94238-2.83008,3.43457-3.69043,1.49219-.85938,3.24414-1.29004,5.25586-1.29004,3.07324,0,5.49609.95215,7.2666,2.85547,1.77148,1.9043,2.65625,4.49414,2.65625,7.76953v.22852c0,3.2002-.88867,5.73926-2.66504,7.61719-1.77734,1.87891-4.18457,2.81836-7.21973,2.81836-2.92188,0-5.26855-.87598-7.03906-2.62793-1.77148-1.75195-2.72656-4.12695-2.86523-7.125l-.01953-1.08105ZM526.00488,690.84684c0,1.89648.29688,3.28809.8916,4.17383s1.47363,1.32812,2.6377,1.32812c2.27637,0,3.44043-1.75195,3.49121-5.25586v-.64453c0-3.68164-1.17676-5.52148-3.5293-5.52148-2.1377,0-3.29492,1.58691-3.47266,4.76172l-.01855,1.1582Z"/>
    <path class="cls-5" d="M548.10938,680.37321l.20898,2.40918c1.41699-1.85938,3.37109-2.78906,5.86328-2.78906,2.1377,0,3.73438.63867,4.79102,1.91602,1.05566,1.27832,1.60254,3.20117,1.64062,5.76855v13.22461h-6.41309v-12.95898c0-1.03711-.20898-1.7998-.62598-2.28613-.41699-.4873-1.17676-.73047-2.27734-.73047-1.25195,0-2.18164.49316-2.78906,1.47949v14.49609h-6.39355v-20.5293h5.99512Z"/>
    <path class="cls-5" d="M563.3457,690.4484c0-2.0498.39844-3.87402,1.19531-5.47461.79688-1.59961,1.94238-2.83008,3.43457-3.69043,1.49219-.85938,3.24414-1.29004,5.25586-1.29004,3.07324,0,5.49609.95215,7.2666,2.85547,1.77148,1.9043,2.65625,4.49414,2.65625,7.76953v.22852c0,3.2002-.88867,5.73926-2.66504,7.61719-1.77734,1.87891-4.18457,2.81836-7.21973,2.81836-2.92188,0-5.26855-.87598-7.03906-2.62793-1.77148-1.75195-2.72656-4.12695-2.86523-7.125l-.01953-1.08105ZM569.74023,690.84684c0,1.89648.29688,3.28809.8916,4.17383s1.47363,1.32812,2.6377,1.32812c2.27637,0,3.44043-1.75195,3.49121-5.25586v-.64453c0-3.68164-1.17676-5.52148-3.5293-5.52148-2.1377,0-3.29492,1.58691-3.47266,4.76172l-.01855,1.1582Z"/>
    <path class="cls-5" d="M592.01562,680.37321l.20898,2.40918c1.4541-1.85938,3.40918-2.78906,5.86328-2.78906,2.59277,0,4.34473,1.03125,5.25488,3.09277,1.3916-2.06152,3.40332-3.09277,6.03418-3.09277,4.16113,0,6.29883,2.51758,6.41309,7.55176v13.35742h-6.41309v-12.95898c0-1.0498-.17773-1.81543-.53125-2.2959-.35449-.48047-.99902-.7207-1.93555-.7207-1.26465,0-2.20703.5625-2.82715,1.68848l.01953.26562v14.02148h-6.41309v-12.9209c0-1.0752-.1709-1.85352-.5127-2.33398s-.99316-.7207-1.9541-.7207c-1.22754,0-2.16309.5625-2.80859,1.68848v14.28711h-6.39355v-20.5293h5.99512Z"/>
    <path class="cls-5" d="M619.39453,675.05973c0-.91602.3291-1.66699.9873-2.25195.65723-.58496,1.51074-.87793,2.56152-.87793,1.0498,0,1.90332.29297,2.56152.87793.65723.58496.98633,1.33594.98633,2.25195,0,.91699-.3291,1.66797-.98633,2.25293-.6582.58594-1.51172.87793-2.56152.87793-1.05078,0-1.9043-.29199-2.56152-.87793-.6582-.58496-.9873-1.33594-.9873-2.25293ZM626.1875,700.9025h-6.41309v-20.5293h6.41309v20.5293Z"/>
    <path class="cls-5" d="M638.80566,696.34879c.89746,0,1.59375-.24316,2.08691-.73047s.7334-1.16699.7207-2.04004h5.99609c0,2.25195-.80664,4.09863-2.41895,5.54102-1.61328,1.44141-3.69043,2.16309-6.2334,2.16309-2.98535,0-5.33789-.93652-7.05762-2.80859-1.7207-1.87207-2.58105-4.46484-2.58105-7.7793v-.26562c0-2.07422.38281-3.90527,1.14844-5.49316.76465-1.58691,1.86914-2.80762,3.31055-3.66113,1.44238-.85449,3.14941-1.28125,5.12305-1.28125,2.66895,0,4.78809.74023,6.35645,2.21973,1.56836,1.48047,2.35254,3.48535,2.35254,6.01465h-5.99609c0-1.0625-.25879-1.87793-.77734-2.44727s-1.21484-.85352-2.08691-.85352c-1.65723,0-2.625,1.05566-2.90332,3.16797-.08887.6709-.13281,1.59375-.13281,2.77051,0,2.06152.24707,3.49121.74023,4.28809s1.27734,1.19531,2.35254,1.19531Z"/>
    <path class="cls-5" d="M118.15723,727.44743l-2.10596-.15234c-2.01123,0-3.30176.63281-3.87061,1.89746v12.99707h-6.39453v-20.5293h5.99609l.2085,2.63672c1.0752-2.01074,2.57373-3.0166,4.49658-3.0166.68311,0,1.27783.07617,1.78369.22754l-.11377,5.93945Z"/>
    <path class="cls-5" d="M130.03467,742.5695c-3.14941,0-5.69824-.93945-7.646-2.81836-1.94824-1.87793-2.92236-4.32227-2.92236-7.33301v-.53125c0-2.09961.38916-3.95312,1.16699-5.55957s1.91309-2.84863,3.40576-3.72852c1.49268-.87891,3.26367-1.31836,5.31299-1.31836,2.88379,0,5.16064.89551,6.83057,2.68457,1.66943,1.79004,2.50439,4.28516,2.50439,7.48535v2.48535h-12.7124c.22754,1.15137.72705,2.05566,1.49902,2.71387.771.65723,1.77051.98633,2.99756.98633,2.02393,0,3.60498-.70801,4.74365-2.125l2.92188,3.45312c-.79688,1.10059-1.92578,1.97656-3.38672,2.62793s-3.03271.97754-4.71533.97754ZM129.31396,726.21403c-1.87207,0-2.98535,1.23926-3.33936,3.71875h6.45117v-.49316c.0249-1.02539-.23438-1.81836-.77832-2.38184-.54395-.5625-1.32178-.84375-2.3335-.84375Z"/>
    <path class="cls-5" d="M149.93848,737.6359c.89746,0,1.59375-.24316,2.08691-.73047s.7334-1.16699.7207-2.04004h5.99609c0,2.25195-.80664,4.09863-2.41895,5.54102-1.61328,1.44141-3.69043,2.16309-6.2334,2.16309-2.98486,0-5.33789-.93652-7.05811-2.80859s-2.58008-4.46484-2.58008-7.7793v-.26562c0-2.07422.38232-3.90527,1.14795-5.49316.76514-1.58691,1.86865-2.80762,3.31055-3.66113,1.44238-.85449,3.1499-1.28125,5.12305-1.28125,2.66895,0,4.78809.74023,6.35645,2.21973,1.56836,1.48047,2.35254,3.48535,2.35254,6.01465h-5.99609c0-1.0625-.25879-1.87793-.77734-2.44727s-1.21484-.85352-2.0874-.85352c-1.65723,0-2.625,1.05566-2.90283,3.16797-.08887.6709-.13281,1.59375-.13281,2.77051,0,2.06152.24658,3.49121.73975,4.28809.49365.79688,1.27783,1.19531,2.35303,1.19531Z"/>
    <path class="cls-5" d="M160.63965,731.73551c0-2.0498.39844-3.87402,1.19531-5.47461.79688-1.59961,1.94238-2.83008,3.43457-3.69043,1.49219-.85938,3.24414-1.29004,5.25586-1.29004,3.07324,0,5.49609.95215,7.2666,2.85547,1.77148,1.9043,2.65625,4.49414,2.65625,7.76953v.22852c0,3.2002-.88867,5.73926-2.66504,7.61719-1.77734,1.87891-4.18457,2.81836-7.21973,2.81836-2.92188,0-5.26855-.87598-7.03906-2.62793-1.77148-1.75195-2.72656-4.12695-2.86523-7.125l-.01953-1.08105ZM167.03418,732.13395c0,1.89648.29688,3.28809.8916,4.17383s1.47363,1.32812,2.6377,1.32812c2.27637,0,3.44043-1.75195,3.49121-5.25586v-.64453c0-3.68164-1.17676-5.52148-3.5293-5.52148-2.1377,0-3.29492,1.58691-3.47266,4.76172l-.01855,1.1582Z"/>
    <path class="cls-5" d="M189.13867,721.66032l.20898,2.40918c1.41699-1.85938,3.37109-2.78906,5.86328-2.78906,2.1377,0,3.73438.63867,4.79102,1.91602,1.05566,1.27832,1.60254,3.20117,1.64062,5.76855v13.22461h-6.41309v-12.95898c0-1.03711-.20898-1.7998-.62598-2.28613-.41699-.4873-1.17676-.73047-2.27734-.73047-1.25195,0-2.18164.49316-2.78906,1.47949v14.49609h-6.39355v-20.5293h5.99512Z"/>
    <path class="cls-5" d="M215.93066,736.42203c0-.54395-.28516-.98047-.85449-1.30957-.56836-.3291-1.65039-.66992-3.24414-1.02441s-2.90918-.81934-3.94629-1.39453c-1.03809-.57617-1.82812-1.27441-2.37207-2.09668s-.81543-1.76465-.81543-2.82715c0-1.88477.77734-3.4375,2.33301-4.6582,1.55664-1.2207,3.59277-1.83105,6.11035-1.83105,2.70605,0,4.88184.61328,6.52637,1.84082,1.64453,1.22656,2.4668,2.83984,2.4668,4.83789h-6.41309c0-1.64453-.86621-2.4668-2.59961-2.4668-.6709,0-1.2334.1875-1.68848.55957-.45508.37402-.68262.83887-.68262,1.39551,0,.56836.27734,1.03027.83398,1.38477s1.44531.64453,2.66602.87305c1.2207.22754,2.29297.49902,3.21582.81543,3.08691,1.0625,4.62988,2.9668,4.62988,5.71094,0,1.87207-.83203,3.39648-2.49512,4.57324-1.66309,1.17578-3.81641,1.76465-6.45996,1.76465-1.75879,0-3.32715-.31641-4.70605-.94922-1.37891-.63184-2.4541-1.49219-3.22559-2.58008s-1.15723-2.23242-1.15723-3.43457h5.97656c.02539.94922.3418,1.6416.94922,2.07812.60645.43555,1.38477.6543,2.33301.6543.87305,0,1.52832-.17676,1.96387-.53125.43652-.35449.65527-.81641.65527-1.38477Z"/>
    <path class="cls-5" d="M232.53223,716.55582v5.10449h3.37695v4.43945h-3.37695v9.3916c0,.77246.13867,1.30957.41699,1.61328s.8291.45508,1.65137.45508c.63184,0,1.16309-.03809,1.59375-.11328v4.57227c-1.15137.36719-2.35254.55078-3.60547.55078-2.2002,0-3.82617-.51855-4.87598-1.55664-1.0498-1.03711-1.5752-2.61133-1.5752-4.72363v-10.18945h-2.61816v-4.43945h2.61816v-5.10449h6.39453Z"/>
    <path class="cls-5" d="M250.8418,727.44743l-2.10547-.15234c-2.01172,0-3.30176.63281-3.87109,1.89746v12.99707h-6.39355v-20.5293h5.99512l.20898,2.63672c1.0752-2.01074,2.57422-3.0166,4.49707-3.0166.68262,0,1.27734.07617,1.7832.22754l-.11426,5.93945Z"/>
    <path class="cls-5" d="M265.37598,739.96989c-1.35352,1.7334-3.18164,2.59961-5.4834,2.59961-2.25195,0-3.95605-.65527-5.11328-1.96387-1.15723-1.30957-1.73633-3.19043-1.73633-5.64551v-13.2998h6.39453v13.33789c0,1.75879.85352,2.6377,2.56152,2.6377,1.4668,0,2.51074-.52441,3.13086-1.5752v-14.40039h6.43164v20.5293h-5.99609l-.18945-2.21973Z"/>
    <path class="cls-5" d="M283.74316,737.6359c.89746,0,1.59375-.24316,2.08691-.73047s.7334-1.16699.7207-2.04004h5.99609c0,2.25195-.80664,4.09863-2.41895,5.54102-1.61328,1.44141-3.69043,2.16309-6.2334,2.16309-2.98535,0-5.33789-.93652-7.05762-2.80859-1.7207-1.87207-2.58105-4.46484-2.58105-7.7793v-.26562c0-2.07422.38281-3.90527,1.14844-5.49316.76465-1.58691,1.86914-2.80762,3.31055-3.66113,1.44238-.85449,3.14941-1.28125,5.12305-1.28125,2.66895,0,4.78809.74023,6.35645,2.21973,1.56836,1.48047,2.35254,3.48535,2.35254,6.01465h-5.99609c0-1.0625-.25879-1.87793-.77734-2.44727s-1.21484-.85352-2.08691-.85352c-1.65723,0-2.625,1.05566-2.90332,3.16797-.08887.6709-.13281,1.59375-.13281,2.77051,0,2.06152.24707,3.49121.74023,4.28809s1.27734,1.19531,2.35254,1.19531Z"/>
    <path class="cls-5" d="M302.69824,716.55582v5.10449h3.37695v4.43945h-3.37695v9.3916c0,.77246.13867,1.30957.41699,1.61328s.8291.45508,1.65137.45508c.63184,0,1.16309-.03809,1.59375-.11328v4.57227c-1.15137.36719-2.35254.55078-3.60547.55078-2.2002,0-3.82617-.51855-4.87598-1.55664-1.0498-1.03711-1.5752-2.61133-1.5752-4.72363v-10.18945h-2.61816v-4.43945h2.61816v-5.10449h6.39453Z"/>
    <path class="cls-5" d="M308.54199,716.34684c0-.91602.3291-1.66699.9873-2.25195.65723-.58496,1.51074-.87793,2.56152-.87793,1.0498,0,1.90332.29297,2.56152.87793.65723.58496.98633,1.33594.98633,2.25195,0,.91699-.3291,1.66797-.98633,2.25293-.6582.58594-1.51172.87793-2.56152.87793-1.05078,0-1.9043-.29199-2.56152-.87793-.6582-.58496-.9873-1.33594-.9873-2.25293ZM315.33496,742.18961h-6.41309v-20.5293h6.41309v20.5293Z"/>
    <path class="cls-5" d="M318.46582,731.73551c0-2.0498.39844-3.87402,1.19531-5.47461.79688-1.59961,1.94238-2.83008,3.43457-3.69043,1.49219-.85938,3.24414-1.29004,5.25586-1.29004,3.07324,0,5.49609.95215,7.2666,2.85547,1.77148,1.9043,2.65625,4.49414,2.65625,7.76953v.22852c0,3.2002-.88867,5.73926-2.66504,7.61719-1.77734,1.87891-4.18457,2.81836-7.21973,2.81836-2.92188,0-5.26855-.87598-7.03906-2.62793-1.77148-1.75195-2.72656-4.12695-2.86523-7.125l-.01953-1.08105ZM324.86035,732.13395c0,1.89648.29688,3.28809.8916,4.17383s1.47363,1.32812,2.6377,1.32812c2.27637,0,3.44043-1.75195,3.49121-5.25586v-.64453c0-3.68164-1.17676-5.52148-3.5293-5.52148-2.1377,0-3.29492,1.58691-3.47266,4.76172l-.01855,1.1582Z"/>
    <path class="cls-5" d="M346.96484,721.66032l.20898,2.40918c1.41699-1.85938,3.37109-2.78906,5.86328-2.78906,2.1377,0,3.73438.63867,4.79102,1.91602,1.05566,1.27832,1.60254,3.20117,1.64062,5.76855v13.22461h-6.41309v-12.95898c0-1.03711-.20898-1.7998-.62598-2.28613-.41699-.4873-1.17676-.73047-2.27734-.73047-1.25195,0-2.18164.49316-2.78906,1.47949v14.49609h-6.39355v-20.5293h5.99512Z"/>
  </g>
  <path class="cls-9" d="M692.98997,605.4065c0-.178-7.6348,10.17492-9.02513,12.66212-1.30855,2.33807-3.35796,8.73648-8.63545,8.40934-2.3958.06735-5.14278-1.47212-6.18673-3.33872-.86595-1.54428-1.05838-3.04526-.05773-4.61359.72644-1.13055,1.31817-2.32844,1.97725-3.49267,5.6383-9.97767,11.27179-19.95535,16.91971-29.92821"/>
  <path class="cls-6" d="M780.21314,580.37017l-8.54203,47.791-29.64008,5.23056,11.98608,22.0806-37.27268,14.07053,66.52885,27.9559,50.87816-4.37347,38.44531-65.30962-38.54084,1.45875-5.92473-27.72884-20.84101,12.67991-27.07703-33.85533Z"/>
  <polygon class="cls-2" points="790.28264 681.83781 760.62473 669.37518 778.41453 662.65824 770.37862 647.85692 787.14765 644.8972 791.43465 620.90937 805.12423 638.02424 817.11893 630.72686 820.60694 647.04876 841.60045 646.25384 822.27143 679.08696 790.28264 681.83781"/>
</svg>