<?xml version="1.0" encoding="UTF-8"?>
<svg id="Ebene_2" data-name="Ebene 2" xmlns="http://www.w3.org/2000/svg" viewBox="0 0 1920 574.94643">
  <defs>
    <style>
      .cls-1 {
        fill: #bb172b;
      }

      .cls-2 {
        fill: none;
        stroke: #fac100;
        stroke-width: 12.65053px;
      }

      .cls-2, .cls-3, .cls-4, .cls-5 {
        stroke-miterlimit: 10;
      }

      .cls-6 {
        fill: #90172f;
      }

      .cls-7 {
        fill: #0d435c;
      }

      .cls-8, .cls-3, .cls-4, .cls-5 {
        fill: #fff;
      }

      .cls-3 {
        stroke: #0d425b;
      }

      .cls-3, .cls-5 {
        stroke-width: 11.44812px;
      }

      .cls-9 {
        fill: #f3f5f7;
      }

      .cls-4 {
        stroke: #0d435c;
        stroke-width: 10px;
      }

      .cls-10 {
        fill: #98ba00;
      }

      .cls-5 {
        stroke: #98ba00;
      }
    </style>
  </defs>
  <rect class="cls-9" x="-21.45406" y="-9.72683" width="1953.01137" height="605.40637"/>
  <g>
    <path class="cls-5" d="M1624.40712,171.98456h.00069c10.57831,0,19.15288-8.61434,19.15288-19.24066s-8.57457-19.24066-19.15288-19.24066h-.00069c-10.57763,0-19.15288,9.37552-19.15288,20.00252,0,10.62563,8.57525,18.47879,19.15288,18.47879Z"/>
    <g>
      <path class="cls-8" d="M1634.3935,340.1325c-3.9541-.09766-7.72266-1.72461-10.31934-4.46289-.50586-.5332-.95898-1.09814-1.35547-1.68701-2.39062,3.65039-6.65625,6.15527-11.33301,6.15527-.12793,0-.25684-.00146-.38477-.00537-3.86621-.0957-7.56445-1.69873-10.12402-4.39795-2.27246-2.39551-3.48438-5.4165-3.41992-8.51562l.24219-71.25146-.52441,1.32471c-1.69922,4.52344-5.81641,7.33008-10.76172,7.33008-1.6416,0-3.31055-.30811-4.96094-.91553-2.99414-1.08984-5.40332-3.30811-6.76367-6.23926-1.48047-3.18994-1.6416-7.09766-.43652-10.48242.66699-2.08936,11.06738-34.66211,14.63867-45.33984,3.84668-11.49756,16.61914-18.36182,34.16699-18.36182,15.12695,0,28.0957,6.89209,33.03711,17.55762l.09082.19531,18.38672,49.01123c2.18164,6.03711-.20898,14.13037-7.20605,16.66016-1.60645.5874-3.27832.88867-4.94922.88867-5.23926,0-9.72461-2.95215-11.50391-7.54443l-2.78516-6.13281-.15723,73.8335c-.19434,6.82959-6.1123,12.38525-13.19238,12.38525-.12793,0-.25684-.00146-.38477-.00537Z"/>
      <path class="cls-10" d="M1623.05756,189.0075c12.2467,0,23.63916,5.16504,27.84399,14.24023l18.31079,48.81067c1.1925,3.2998-.08435,7.92584-3.79211,9.26581-1.021.37329-2.03589.54797-3.00305.54797-2.87415,0-5.32129-1.54486-6.21411-4.0144l-13.74426-30.26404-.20996,99.99615c-.09839,3.47443-3.2948,6.82428-7.47119,6.82428-.07373,0-.14795-.0011-.22217-.00317-4.69385-.11658-8.22278-3.48016-8.12341-7.01587l.44031-60.61926h-7.81067l-.06445,60.81403c-.09839,3.47443-3.43115,6.82428-7.6123,6.82428-.07373,0-.14795-.0011-.22229-.00317-4.69397-.11658-8.08154-3.57825-7.98218-7.11395l.3457-101.59528-11.6947,29.53784c-.88379,2.39886-2.94641,3.65845-5.41895,3.65845-.94836,0-1.9574-.18542-2.98279-.56299-4.05762-1.47711-4.97998-6.1875-3.75781-9.5072,0,0,10.94507-34.29962,14.64746-45.36688,3.70227-11.06726,17.30823-14.45349,28.73816-14.45349M1623.05756,177.55938c-20.1283,0-34.93005,8.32513-39.59485,22.26978-3.58398,10.71295-13.67273,42.3092-14.63733,45.33142-1.68579,4.80981-1.44568,10.15521.67029,14.71521,2.00549,4.32178,5.56323,7.59509,10.01794,9.21674,2.24597.82709,4.58032,1.25372,6.89893,1.25372,1.92358,0,3.78003-.30219,5.51648-.8703l-.19617,57.67926c-.08105,4.59583,1.68701,9.03503,4.99048,12.51813,3.59912,3.79486,8.75842,6.04822,14.15503,6.18225.14404.00409.32593.00671.50659.00671,4.26465,0,8.23694-1.39972,11.44006-3.74976,3.28101,2.30737,7.29102,3.63983,11.44617,3.74304.14417.00415.32593.00671.50647.00671,10.14941,0,18.63452-8.05164,18.91479-17.94843l.00415-.1499.00037-.15002.11829-56.34125c2.56128,1.32123,5.49304,2.04767,8.60193,2.04767,2.34302,0,4.6759-.41858,6.93384-1.24402,9.21973-3.33197,14.10498-14.28748,10.62793-23.90881l-.02356-.06525-.02429-.06488-18.31079-48.81067-.15088-.4021-.18054-.38971c-5.87573-12.6814-20.88245-20.87555-38.23132-20.87555h0Z"/>
    </g>
  </g>
  <g>
    <path class="cls-5" d="M1704.19502,166.45951h.00069c10.57831,0,19.15288-8.61434,19.15288-19.24066s-8.57457-19.24066-19.15288-19.24066h-.00069c-10.57763,0-19.15288,9.37552-19.15288,20.00183s8.57525,18.47948,19.15288,18.47948Z"/>
    <g>
      <path class="cls-8" d="M1714.18256,334.6076c-3.95508-.09814-7.72266-1.7251-10.32031-4.46289-.50586-.53369-.95898-1.09814-1.35547-1.68799-2.3916,3.65137-6.65723,6.15625-11.33594,6.15625-.12695,0-.25391-.00146-.38184-.00537-3.86816-.09619-7.56543-1.69971-10.125-4.39893-2.27148-2.39502-3.4834-5.41553-3.41895-8.51465l.24219-71.25146-.52441,1.3252c-1.7002,4.52344-5.81641,7.3291-10.76172,7.3291-1.6416,0-3.31152-.30859-4.96191-.9165-2.99316-1.08936-5.40234-3.30762-6.7627-6.23828-1.48047-3.18994-1.6416-7.09717-.4375-10.48193.66602-2.08545,11.06836-34.66211,14.63965-45.34033,3.84668-11.49805,16.61914-18.3623,34.16699-18.3623,15.12695,0,28.09473,6.8916,33.03711,17.55762l.09082.19482,18.38574,49.0127c1.07422,2.97021,1.0498,6.35107-.04004,9.34033-1.26367,3.46289-3.87598,6.13037-7.16699,7.31934-1.60449.58691-3.27637.88867-4.94727.88867h-.00098c-5.23926-.00049-9.72363-2.95264-11.50293-7.54443l-2.78516-6.13281-.15723,73.8335c-.19434,6.82959-6.11328,12.38574-13.19434,12.38574-.12695,0-.25391-.00146-.38184-.00537Z"/>
      <path class="cls-10" d="M1702.84553,183.4818c12.2467,0,23.63892,5.16571,27.84399,14.24017l18.31079,48.81073c1.1925,3.30048-.08435,7.92651-3.79224,9.26575-1.021.37347-2.03613.54828-3.0033.54828-2.87415,0-5.32104-1.54517-6.21375-4.01471l-13.74438-30.26404-.20984,99.99683c-.09839,3.47418-3.29553,6.82428-7.47266,6.82428-.07312,0-.14709-.00104-.22083-.00311-4.69385-.11658-8.22278-3.4809-8.12329-7.0166l.44019-60.6192h-7.81055l-.06445,60.81464c-.09851,3.47418-3.43188,6.82428-7.61377,6.82428-.07324,0-.14722-.00104-.22095-.00311-4.69397-.11658-8.08154-3.57825-7.98206-7.11395l.34558-101.59528-11.6947,29.53778c-.88367,2.39874-2.94592,3.6582-5.41821,3.6582-.94849,0-1.95789-.18561-2.98352-.56342-4.05762-1.47711-4.97974-6.18683-3.75793-9.50653,0,0,10.94519-34.30029,14.64758-45.36688,3.70239-11.0672,17.30823-14.4541,28.73828-14.4541M1702.84553,172.03362c-20.12805,0-34.92993,8.32538-39.59497,22.27032-3.58435,10.71368-13.67542,42.31738-14.63794,45.33289-1.68518,4.80988-1.4447,10.15479.67126,14.71417,2.00549,4.32135,5.56311,7.59424,10.01758,9.21576,2.24487.82709,4.58008,1.25409,6.89966,1.25409,1.92358,0,3.77942-.30194,5.51587-.87006l-.19617,57.67834c-.08142,4.59625,1.68665,9.03558,4.99023,12.51898,3.59924,3.79504,8.75854,6.04846,14.15527,6.18243.14172.00409.32434.00665.50513.00665,4.26489,0,8.23792-1.40009,11.44116-3.75006,3.28125,2.3078,7.29114,3.6402,11.44653,3.74341.14172.00409.32434.00665.505.00665,10.15027,0,18.63599-8.05164,18.91626-17.94836l.00415-.14996.00037-.15002.11816-56.34161c2.5614,1.32129,5.49292,2.04761,8.60168,2.04761,2.34387,0,4.67737-.41882,6.93579-1.24487,4.84631-1.75031,8.70947-5.66504,10.55579-10.72467,1.54358-4.23022,1.56946-9.03516.07092-13.1828l-.0238-.06555-.02441-.06525-18.31079-48.81073-.151-.4024-.18066-.38995c-5.87634-12.68103-20.88293-20.875-38.23108-20.875h0Z"/>
    </g>
  </g>
  <g>
    <path class="cls-5" d="M1482.25487,184.63177h.00126c10.57763,0,19.15288-8.61365,19.15288-19.23997,0-10.627-8.57525-19.24066-19.15288-19.24066h-.00126c-10.57774,0-19.15288,9.37552-19.15288,20.00183s8.57514,18.47879,19.15288,18.47879Z"/>
    <g>
      <path class="cls-8" d="M1492.24116,352.77996c-3.95312-.09717-7.72168-1.72412-10.31934-4.4624-.50586-.53369-.95801-1.09863-1.35547-1.68799-2.39062,3.65088-6.65625,6.15576-11.33398,6.15576-.12695,0-.25586-.00146-.38379-.00537-3.86523-.09521-7.5625-1.69824-10.12305-4.39697-2.27148-2.39551-3.48438-5.4165-3.41992-8.51611l.24219-71.25439-.52539,1.32666c-1.69922,4.52344-5.81543,7.33008-10.76172,7.33008-1.6416,0-3.31055-.30811-4.95996-.91553-2.99512-1.08984-5.4043-3.30859-6.76465-6.23975-1.48047-3.18945-1.6416-7.09619-.4375-10.48047.66602-2.08594,11.06738-34.6626,14.63965-45.34131,3.84766-11.49756,16.62012-18.36133,34.16699-18.36133,15.12793,0,28.09668,6.89209,33.03711,17.55762l.09082.19482,18.38672,49.01172c1.07422,2.9707,1.0498,6.35107-.04102,9.34082-1.26367,3.4624-3.875,6.13037-7.16504,7.31885-1.60645.5874-3.27734.88867-4.94727.88867h-.00195c-5.23926-.00049-9.72559-2.95215-11.50391-7.54395l-2.78516-6.13281-.15723,73.83398c-.19434,6.8291-6.11328,12.38477-13.19336,12.38477-.12695,0-.25586-.00146-.38379-.00537Z"/>
      <path class="cls-10" d="M1480.90522,201.65472c12.2467,0,23.63965,5.16504,27.84399,14.24023l18.31079,48.81067c1.1925,3.2998-.08435,7.92651-3.7915,9.26581-1.021.37329-2.03601.54797-3.00317.54797-2.87427,0-5.32178-1.54486-6.2146-4.0144l-13.74365-30.26404-.21057,99.99683c-.09839,3.47375-3.2948,6.82361-7.47119,6.82361-.07373,0-.14795-.0011-.22217-.00317-4.69324-.11591-8.22278-3.48016-8.12341-7.01587l.44031-60.61926h-7.80994l-.06519,60.8147c-.09778,3.47375-3.4314,6.82361-7.61182,6.82361-.07373,0-.14795-.0011-.22217-.00317-4.69397-.11591-8.08154-3.57751-7.98206-7.11395l.34558-101.59528-11.69531,29.53778c-.8833,2.39893-2.94568,3.65851-5.41833,3.65851-.94824,0-1.9574-.18549-2.98279-.56305-4.05762-1.47705-4.98059-6.18677-3.75854-9.50647,0,0,10.94519-34.30029,14.64746-45.36755,3.70312-11.06659,17.30823-14.45349,28.73828-14.45349M1480.90522,190.2066c-20.12695,0-34.92871,8.32477-39.59473,22.2688-3.58411,10.71393-13.6731,42.31097-14.6377,45.33331-1.68542,4.80951-1.44519,10.1546.67078,14.71417,2.00562,4.3219,5.5636,7.59521,10.01843,9.21686,2.24585.82697,4.58032,1.25366,6.89893,1.25366,1.92383,0,3.77991-.302,5.51648-.87024l-.19617,57.67834c-.08142,4.59705,1.68689,9.03687,4.99121,12.52039,3.59949,3.7948,8.75916,6.04767,14.15588,6.18097.14233.00403.3241.00665.50476.00665,4.26465,0,8.23718-1.39972,11.43994-3.74933,3.28162,2.30792,7.29175,3.64001,11.44751,3.74268.14246.00409.32422.00665.50476.00665,10.14941,0,18.63452-8.05133,18.91479-17.94769l.00415-.1499.00037-.15002.11865-56.34192c2.5614,1.32123,5.49316,2.04761,8.60205,2.04761,2.34314,0,4.67603-.41858,6.93396-1.24402,4.84839-1.75153,8.71118-5.6665,10.55713-10.7262,1.54333-4.23053,1.56897-9.0354.07019-13.18262l-.02356-.06525-.02429-.06488-18.31079-48.81067-.15076-.40186-.18042-.38947c-5.87512-12.6817-20.88196-20.87604-38.23157-20.87604h0Z"/>
    </g>
  </g>
  <g>
    <path class="cls-5" d="M1568.04773,215.17489h.0008c10.5782,0,19.15288-8.61365,19.15288-19.23997,0-10.627-8.57468-19.24066-19.15288-19.24066h-.0008c-10.57763,0-19.15288,9.37552-19.15288,20.00183s8.57525,18.47879,19.15288,18.47879Z"/>
    <g>
      <path class="cls-8" d="M1578.0351,383.3239c-3.95508-.09814-7.72363-1.72559-10.32129-4.46387-.50586-.5332-.95801-1.09766-1.35449-1.68701-2.3916,3.65137-6.65723,6.15625-11.33496,6.15625-.12695,0-.25391-.00146-.38184-.00537-3.86816-.09619-7.56543-1.69971-10.12598-4.39893-2.27148-2.39551-3.4834-5.41602-3.41895-8.51514l.24219-71.25195-.52441,1.32422c-1.69824,4.52393-5.81543,7.33057-10.7627,7.33057-1.6416,0-3.31055-.30811-4.95996-.91553-2.99414-1.08984-5.40332-3.30811-6.76367-6.23877-1.48047-3.18994-1.6416-7.09717-.4375-10.48193.66602-2.08594,11.06836-34.6626,14.63965-45.34082,3.84668-11.49756,16.61914-18.36182,34.16699-18.36182,15.12793,0,28.09668,6.89209,33.03711,17.55811l.09082.19482,18.38672,49.01123c1.07422,2.9707,1.0498,6.35156-.04102,9.34131-1.26367,3.46289-3.87598,6.13037-7.16699,7.31885-1.60449.58691-3.27637.88867-4.94727.88867h0c-5.23926-.00049-9.72461-2.95215-11.50391-7.54395l-2.78516-6.1333-.15723,73.83398c-.19434,6.82959-6.11328,12.38574-13.19434,12.38574-.12695,0-.25391-.00146-.38184-.00537Z"/>
      <path class="cls-10" d="M1566.69819,232.19787c12.24683,0,23.63977,5.16504,27.84399,14.24017l18.31079,48.81073c1.1925,3.2998-.08435,7.92651-3.79211,9.26575-1.02112.37329-2.03601.54797-3.00305.54797-2.87415,0-5.32129-1.54486-6.21411-4.0144l-13.74438-30.26404-.20984,99.99683c-.09839,3.47418-3.29541,6.82428-7.47253,6.82428-.07312,0-.14709-.00104-.22083-.00311-4.69397-.11658-8.22278-3.4809-8.12341-7.0166l.44031-60.6192h-7.81067l-.06433,60.81464c-.09851,3.47418-3.43188,6.82428-7.61377,6.82428-.07324,0-.14722-.00104-.22095-.00311-4.69385-.11658-8.08142-3.57825-7.98218-7.11395l.3457-101.59528-11.6947,29.53711c-.8833,2.39893-2.94568,3.65845-5.41858,3.65845-.94836,0-1.95764-.18542-2.98328-.56299-4.0575-1.47711-4.97986-6.18683-3.75781-9.50647,0,0,10.94519-34.30035,14.64746-45.36761,3.70239-11.06653,17.30823-14.45343,28.73828-14.45343M1566.69819,220.74969c-20.12793,0-34.92969,8.32507-39.59497,22.26941-3.58362,10.71271-13.67151,42.30646-14.63733,45.33215-1.68579,4.80994-1.44556,10.15515.67041,14.71503,2.00537,4.32166,5.56311,7.59485,10.0177,9.21655,2.24683.82715,4.58118,1.25372,6.89954,1.25372,1.92346,0,3.77991-.30212,5.51611-.87006l-.19617,57.6803c-.08093,4.59589,1.68726,9.03479,4.99084,12.51776,3.59912,3.7948,8.75842,6.0481,14.15479,6.18207.14172.00409.32434.00665.50513.00665,4.26489,0,8.23792-1.40009,11.44116-3.75006,3.28113,2.30774,7.29126,3.64026,11.44653,3.74341.14172.00409.32434.00665.505.00665,10.15015,0,18.63586-8.05164,18.91614-17.94836l.00415-.14996.00037-.15002.11816-56.34192c2.5614,1.32117,5.49316,2.04767,8.60205,2.04767,2.34302,0,4.6759-.41858,6.93384-1.24402,4.84802-1.75098,8.7113-5.66589,10.5575-10.72571,1.54358-4.23059,1.56934-9.03564.07043-13.18304l-.02356-.06525-.02429-.06488-18.31079-48.81073-.15076-.40186-.18042-.3894c-5.875-12.6817-20.88184-20.8761-38.23157-20.8761h0Z"/>
    </g>
  </g>
  <path class="cls-3" d="M1773.15705,284.37213l18.77092-56.86204c.5774-1.87277,4.05619-10.79158,7.48012-12.7199,6.41172-3.61114,14.54055-1.49424,18.26827,4.85028.03977.06789.07966.13578.11932.20298,1.73768,2.98162,2.40217,6.4611,1.85357,9.86857l-13.80749,85.73812-56.25173,88.82329s-63.46852,52.99992-69.65189,57.01154c-6.18268,4.0123-3.21135,42.34892-3.21135,42.34892l-73.13753,3.86418,15.13784-111.09631c.78381-5.63477,3.21546-10.91159,6.98912-15.1687l35.05807-39.54422c2.61681-2.95214,5.94473-5.18561,9.66696-6.4899l6.19708-2.17107,32.93569-11.94912,45.49581-35.93582c2.29862-1.81585,5.28161-2.55029,8.1494-1.953.40939.08572.83387.17761,1.27.27704,6.97609,1.58887,14.11471,7.39988,13.65457,14.53987v1.01422c0,5.04092-1.79665,9.97349-5.25613,13.63948-.20721.21944-.40265.41693-.58094.58563l-83.61984,79.34422"/>
  <path class="cls-3" d="M1414.34261,284.17326l-18.77092-56.86204c-.5774-1.87346-4.05687-10.79158-7.48012-12.7199-6.41172-3.61114-14.54055-1.49424-18.26827,4.85028-.04046.06789-.07955.13578-.11932.20298-1.73768,2.98162-2.40217,6.4611-1.85357,9.86788l13.80749,85.7388,56.25173,88.82329s63.46852,52.99992,69.65189,57.01154c6.18279,4.0123,3.21135,42.34892,3.21135,42.34892l73.13753,3.86418-15.13784-111.09631c-.78381-5.63477-3.21546-10.91159-6.98912-15.1687l-35.05796-39.54422c-2.61692-2.95214-5.94484-5.1863-9.66707-6.49058l-6.19708-2.17039-32.93569-11.94912-45.49581-35.93582c-2.29931-1.81585-5.28151-2.55029-8.1494-1.953-.40939.08503-.83387.17761-1.27.27704-6.97609,1.58819-14.11471,7.39988-13.65457,14.53987v1.01422c0,5.04092,1.79665,9.97349,5.25624,13.63948.2071.21944.40253.41625.58083.58563l83.61984,79.34422"/>
  <path class="cls-4" d="M240.34388,389.94005l-155.13115.71297c0,45.73477,49.27254,76.83034,116.61287,76.83034,55.45245,0,114.98497-25.09467,114.98497-77.45654l-76.4667-.08677Z"/>
  <path class="cls-4" d="M635.9902,389.94005l-155.13115.71297c0,45.73477,49.27254,76.83034,116.61287,76.83034,55.45245,0,114.98497-25.09467,114.98497-77.45654l-76.4667-.08677Z"/>
  <polygon class="cls-4" points="371.21233 116.27115 371.21233 461.86723 304.30376 461.86723 297.74823 461.86723 297.74823 494.22074 304.30376 494.22074 484.07822 494.22074 490.6338 494.22074 490.6338 461.86723 484.07822 461.86723 417.16965 461.86723 417.16965 116.27115 371.21233 116.27115"/>
  <path class="cls-4" d="M498.8214,126.08765H223.5732l26.28695,114.37081-25.42657-3.80546-25.0202-94.56814-23.33814,94.42301-24.76045,5.33792,26.00487-115.75814h-16.71858l-.00447-24.94726h474.79951l-.00524,24.94726h-16.71784l26.00487,113.0088c-6.63072-.92439-17.16515-1.92171-24.76045-2.58858l-23.33889-95.06628-25.21147,96.05839-26.20731,7.19116,27.25897-118.60349h-275.24821,201.65086Z"/>
  <g>
    <line class="cls-2" x1="786.62307" y1="370.17408" x2="1323.66181" y2="370.17408"/>
    <polyline class="cls-2" points="1270.48958 317.10784 1323.68266 370.17169 1270.49476 423.24032"/>
  </g>
  <g>
    <path class="cls-7" d="M885.5293,322.88615v12.49658h-7.30762v-35.46729h13.83594c2.66309,0,5.00586.4873,7.02734,1.46143,2.02246.97461,3.57715,2.35938,4.66504,4.15332,1.08789,1.79492,1.63184,3.83691,1.63184,6.12646,0,3.47559-1.18945,6.21582-3.56836,8.22119-2.37891,2.00586-5.67188,3.0083-9.87793,3.0083h-6.40625ZM885.5293,316.9672h6.52832c1.93262,0,3.40625-.45459,4.4209-1.36426,1.01465-.90918,1.52246-2.2085,1.52246-3.89746,0-1.73779-.51172-3.14258-1.53418-4.21436-1.02344-1.07178-2.43652-1.62354-4.23828-1.65625h-6.69922v11.13232Z"/>
    <path class="cls-7" d="M924.94336,335.38273c-.3252-.6333-.56055-1.4209-.70703-2.36279-1.70508,1.8999-3.92188,2.8501-6.64941,2.8501-2.58203,0-4.72266-.74707-6.41895-2.24121-1.69727-1.49365-2.5459-3.37744-2.5459-5.65137,0-2.79297,1.03516-4.93652,3.10645-6.43066,2.07031-1.49414,5.0625-2.24902,8.97559-2.26562h3.24023v-1.51025c0-1.21777-.3125-2.19238-.9375-2.92334-.62598-.73047-1.6123-1.09619-2.95996-1.09619-1.18555,0-2.11523.28467-2.78906.85303s-1.01074,1.34814-1.01074,2.33838h-7.04004c0-1.52637.4707-2.93945,1.41309-4.23877.94141-1.29883,2.27344-2.31787,3.99414-3.05713,1.72168-.73877,3.6543-1.1084,5.79785-1.1084,3.24805,0,5.82617.81641,7.73438,2.44824,1.9082,1.63232,2.8623,3.92627,2.8623,6.88184v11.42432c.01562,2.50098.36523,4.39307,1.04688,5.67578v.41406h-7.1123ZM919.12109,330.48674c1.03906,0,1.99707-.23145,2.87402-.69434s1.52637-1.08398,1.94922-1.86377v-4.53076h-2.63086c-3.52441,0-5.39941,1.21826-5.62695,3.65381l-.02441.41406c0,.87695.30859,1.6001.92578,2.16797.61719.56885,1.46191.85303,2.5332.85303Z"/>
    <path class="cls-7" d="M951.22656,315.62736c-.95898-.12988-1.80273-.19482-2.5332-.19482-2.66406,0-4.40918.90137-5.2373,2.70361v17.24658h-7.04004v-26.35693h6.64941l.19531,3.14258c1.41309-2.41992,3.37012-3.62988,5.87109-3.62988.7793,0,1.50977.10596,2.19238.31689l-.09766,6.77197Z"/>
    <path class="cls-7" d="M969.1543,335.38273c-.3252-.6333-.56055-1.4209-.70703-2.36279-1.70508,1.8999-3.92188,2.8501-6.64941,2.8501-2.58203,0-4.72266-.74707-6.41895-2.24121-1.69727-1.49365-2.5459-3.37744-2.5459-5.65137,0-2.79297,1.03516-4.93652,3.10645-6.43066,2.07031-1.49414,5.0625-2.24902,8.97559-2.26562h3.24023v-1.51025c0-1.21777-.3125-2.19238-.9375-2.92334-.62598-.73047-1.6123-1.09619-2.95996-1.09619-1.18555,0-2.11523.28467-2.78906.85303s-1.01074,1.34814-1.01074,2.33838h-7.04004c0-1.52637.4707-2.93945,1.41309-4.23877.94141-1.29883,2.27344-2.31787,3.99414-3.05713,1.72168-.73877,3.6543-1.1084,5.79785-1.1084,3.24805,0,5.82617.81641,7.73438,2.44824,1.9082,1.63232,2.8623,3.92627,2.8623,6.88184v11.42432c.01562,2.50098.36523,4.39307,1.04688,5.67578v.41406h-7.1123ZM963.33203,330.48674c1.03906,0,1.99707-.23145,2.87402-.69434s1.52637-1.08398,1.94922-1.86377v-4.53076h-2.63086c-3.52441,0-5.39941,1.21826-5.62695,3.65381l-.02441.41406c0,.87695.30859,1.6001.92578,2.16797.61719.56885,1.46191.85303,2.5332.85303Z"/>
    <path class="cls-7" d="M979.53125,322.0092c0-4.10791.92188-7.38086,2.76465-9.81641,1.84375-2.43604,4.36426-3.6543,7.56445-3.6543,2.56543,0,4.68457.9585,6.35742,2.87451v-13.44629h7.06445v37.41602h-6.3584l-.34082-2.80127c-1.75391,2.19238-4.01074,3.28857-6.77148,3.28857-3.10254,0-5.59082-1.22168-7.4668-3.66602-1.875-2.44434-2.81348-5.84229-2.81348-10.19482ZM986.57129,322.51017c0,2.47998.43066,4.38037,1.29102,5.70166.86035,1.32178,2.11133,1.98242,3.75195,1.98242,2.17578,0,3.70996-.92139,4.60352-2.76514v-10.44971c-.87695-1.84326-2.39551-2.76514-4.55566-2.76514-3.39355,0-5.09082,2.76562-5.09082,8.2959Z"/>
    <path class="cls-7" d="M1008.68945,302.20549c0-1.05566.35352-1.9248,1.05957-2.60645.70605-.68213,1.66895-1.02344,2.88672-1.02344,1.20117,0,2.15918.34131,2.87402,1.02344.71484.68164,1.07227,1.55078,1.07227,2.60645,0,1.07178-.3623,1.94873-1.08398,2.63037-.72266.68213-1.67676,1.02344-2.8623,1.02344s-2.13965-.34131-2.8623-1.02344c-.72266-.68164-1.08398-1.55859-1.08398-2.63037ZM1016.16797,335.38273h-7.06445v-26.35693h7.06445v26.35693Z"/>
    <path class="cls-7" d="M1020.94238,322.0092c0-4.04346.96191-7.29932,2.88672-9.76807,1.9248-2.46826,4.51855-3.70264,7.7832-3.70264,2.88965,0,5.13965.99072,6.74707,2.97217l.29199-2.48486h6.38281v25.47998c0,2.30566-.52441,4.31152-1.57129,6.0166-1.04785,1.70557-2.52148,3.00439-4.4209,3.89746-1.90039.89307-4.12598,1.33984-6.6748,1.33984-1.93262,0-3.81641-.38574-5.65137-1.15674-1.83594-.77148-3.22363-1.76611-4.16602-2.98438l3.11816-4.28711c1.75391,1.96484,3.88184,2.94727,6.38281,2.94727,1.86719,0,3.32031-.49902,4.36035-1.49805,1.03906-.99854,1.55859-2.41553,1.55859-4.25049v-1.41309c-1.62402,1.83545-3.75977,2.75293-6.40625,2.75293-3.16699,0-5.72852-1.23828-7.68555-3.71484s-2.93555-5.76123-2.93555-9.85352v-.29248ZM1027.98242,322.51017c0,2.39844.47852,4.27881,1.4375,5.64111.95801,1.36182,2.27344,2.04297,3.94629,2.04297,2.14355,0,3.67773-.80713,4.60352-2.42285v-11.13428c-.94238-1.61523-2.45996-2.42285-4.55566-2.42285-1.68848,0-3.0166.69385-3.98242,2.08008-.96582,1.38721-1.44922,3.45898-1.44922,6.21582Z"/>
    <path class="cls-7" d="M1057.04395,309.0258l.21875,2.94775c1.86719-2.29004,4.39258-3.43506,7.57617-3.43506,3.39355,0,5.72461,1.33984,6.99121,4.01953,1.85059-2.67969,4.48926-4.01953,7.91602-4.01953,2.8584,0,4.98535.83252,6.38281,2.49707,1.39648,1.66455,2.09473,4.16943,2.09473,7.51465v16.83252h-7.06445v-16.84668c0-1.49756-.29199-2.5918-.87695-3.28369-.58398-.69189-1.61621-1.03809-3.09375-1.03809-2.11133,0-3.57227,1.00977-4.38477,3.02734l.02441,18.14111h-7.03906v-16.82227c0-1.53027-.30078-2.63721-.90137-3.3208-.60156-.68359-1.62402-1.02539-3.06934-1.02539-1.99805,0-3.44336.83008-4.33594,2.49072v18.67773h-7.04004v-26.35693h6.60156Z"/>
    <path class="cls-7" d="M1120.3291,328.09904c0-.86035-.42676-1.53809-1.2793-2.03369-.85254-.49512-2.2207-.93799-4.10449-1.32764-6.26855-1.31543-9.40234-3.97852-9.40234-7.98975,0-2.33887.96973-4.29102,2.91113-5.8584,1.94043-1.56738,4.47754-2.35107,7.6123-2.35107,3.34473,0,6.02051.78809,8.02637,2.36328,2.00488,1.5752,3.00781,3.62158,3.00781,6.13818h-7.03906c0-1.00635-.3252-1.83887-.97461-2.49658s-1.66504-.98682-3.04492-.98682c-1.18555,0-2.10352.26807-2.75293.8042-.64941.53564-.97461,1.21777-.97461,2.0459,0,.77979.36914,1.40918,1.1084,1.88818s1.98535.89307,3.73926,1.24219,3.23145.74268,4.43359,1.18115c3.71875,1.36426,5.57812,3.72705,5.57812,7.08887,0,2.40332-1.03125,4.34814-3.09375,5.83398s-4.72559,2.229-7.98926,2.229c-2.20898,0-4.16992-.39404-5.88281-1.18164-1.71387-.7876-3.05762-1.86719-4.03125-3.23975-.97461-1.37207-1.46191-2.854-1.46191-4.44531h6.6748c.06445,1.25049.52734,2.2085,1.3877,2.87402.86133.66602,2.01367.99902,3.45898.99902,1.34766,0,2.36719-.25586,3.05762-.76758.68945-.51123,1.03516-1.18115,1.03516-2.00977Z"/>
    <path class="cls-7" d="M1138.57422,311.90031c1.86719-2.24121,4.21387-3.36182,7.04004-3.36182,5.71582,0,8.61426,3.32129,8.69629,9.96338v16.88086h-7.04004v-16.72461c0-1.51367-.3252-2.63281-.97461-3.35693-.64941-.72461-1.72949-1.08691-3.23926-1.08691-2.0625,0-3.55664.79785-4.48242,2.39258v18.77588h-7.04004v-37.41602h7.04004v13.93359Z"/>
    <path class="cls-7" d="M1159.57227,302.20549c0-1.05566.35352-1.9248,1.05957-2.60645.70605-.68213,1.66895-1.02344,2.88672-1.02344,1.20117,0,2.15918.34131,2.87402,1.02344.71484.68164,1.07227,1.55078,1.07227,2.60645,0,1.07178-.3623,1.94873-1.08398,2.63037-.72266.68213-1.67676,1.02344-2.8623,1.02344s-2.13965-.34131-2.8623-1.02344c-.72266-.68164-1.08398-1.55859-1.08398-2.63037ZM1167.05078,335.38273h-7.06445v-26.35693h7.06445v26.35693Z"/>
    <path class="cls-7" d="M1174.77246,335.38273v-21.19287h-3.92188v-5.16406h3.92188v-2.24121c0-2.95508.84863-5.24902,2.5459-6.88135,1.69727-1.63184,4.07227-2.44824,7.125-2.44824.97461,0,2.16797.16113,3.58105.4834l-.07324,5.41162c-.58496-.146-1.2998-.21924-2.14355-.21924-2.64746,0-3.9707,1.25293-3.9707,3.7583v2.13672h5.2373v5.16406h-5.2373v21.19287h-7.06445Z"/>
    <path class="cls-7" d="M1199.15625,302.54631v6.47949h4.50684v5.16406h-4.50684v13.1543c0,.97412.18652,1.67285.56055,2.09473.37305.42285,1.08789.6333,2.14355.6333.7793,0,1.46973-.05664,2.07031-.17041v5.33496c-1.37988.42188-2.80078.6333-4.2627.6333-4.93652,0-7.4541-2.49268-7.55078-7.47852v-14.20166h-3.84961v-5.16406h3.84961v-6.47949h7.03906Z"/>
  </g>
  <g>
    <path class="cls-7" d="M882.60938,444.30705l-3.4834-1.9248c1.2666-2.17627,1.9248-4.55518,1.97363-7.13721v-5.26172h5.79688l-.02441,4.84766c-.01562,1.5752-.40527,3.25195-1.16895,5.03027s-1.79395,3.25977-3.09375,4.4458ZM890.79395,444.30705l-3.4834-1.9248c1.39648-2.40332,2.12012-4.79053,2.16895-7.16162v-5.2373h5.79688l-.02441,4.94531c-.03223,1.55908-.45898,3.22314-1.27832,4.99365-.82031,1.76953-1.87988,3.23145-3.17969,4.38477Z"/>
    <path class="cls-7" d="M914.59375,429.10636c0-.86035-.42676-1.53809-1.2793-2.03369-.85254-.49512-2.2207-.93799-4.10449-1.32764-6.26855-1.31543-9.40234-3.97852-9.40234-7.98975,0-2.33887.96973-4.29102,2.91113-5.8584,1.94043-1.56738,4.47754-2.35107,7.6123-2.35107,3.34473,0,6.02051.78809,8.02637,2.36328,2.00488,1.5752,3.00781,3.62158,3.00781,6.13818h-7.03906c0-1.00635-.3252-1.83887-.97461-2.49658s-1.66504-.98682-3.04492-.98682c-1.18555,0-2.10352.26807-2.75293.8042-.64941.53564-.97461,1.21777-.97461,2.0459,0,.77979.36914,1.40918,1.1084,1.88818s1.98535.89307,3.73926,1.24219,3.23145.74268,4.43359,1.18115c3.71875,1.36426,5.57812,3.72705,5.57812,7.08887,0,2.40332-1.03125,4.34814-3.09375,5.83398s-4.72559,2.229-7.98926,2.229c-2.20898,0-4.16992-.39404-5.88281-1.18164-1.71387-.7876-3.05762-1.86719-4.03125-3.23975-.97461-1.37207-1.46191-2.854-1.46191-4.44531h6.6748c.06445,1.25049.52734,2.2085,1.3877,2.87402.86133.66602,2.01367.99902,3.45898.99902,1.34766,0,2.36719-.25586,3.05762-.76758.68945-.51123,1.03516-1.18115,1.03516-2.00977Z"/>
    <path class="cls-7" d="M938.10059,436.87736c-3.86523,0-7.01172-1.18555-9.43945-3.55664-2.42773-2.37061-3.6416-5.5293-3.6416-9.47559v-.68213c0-2.64697.51172-5.01416,1.53418-7.10107,1.02344-2.08643,2.47266-3.69385,4.34863-4.82275s4.01465-1.69336,6.41895-1.69336c3.60449,0,6.44238,1.13721,8.51367,3.41064,2.07031,2.27344,3.10547,5.49707,3.10547,9.67041v2.87451h-16.7832c.22656,1.72168.91309,3.10205,2.05762,4.14111,1.14551,1.03955,2.59473,1.55908,4.34863,1.55908,2.71191,0,4.83105-.98242,6.35742-2.94775l3.45898,3.87354c-1.05566,1.49414-2.48438,2.65918-4.28711,3.49561-1.80273.83594-3.7998,1.25439-5.99219,1.25439ZM937.29688,415.2216c-1.39746,0-2.53027.47314-3.39844,1.41943-.86914.94629-1.4248,2.30029-1.66895,4.06152h9.79297v-.56299c-.0332-1.56592-.45508-2.77686-1.2666-3.6333-.8125-.85645-1.96484-1.28467-3.45898-1.28467Z"/>
    <path class="cls-7" d="M963.89746,431.20158c1.29883,0,2.35449-.35693,3.16602-1.07178.8125-.71436,1.23438-1.66455,1.2666-2.8501h6.60156c-.0166,1.78662-.50293,3.42236-1.46094,4.9082-.95898,1.48584-2.27051,2.63916-3.93457,3.45898-1.66504.81982-3.50391,1.23047-5.51758,1.23047-3.76758,0-6.73926-1.19775-8.91504-3.59326-2.17676-2.39502-3.26465-5.70361-3.26465-9.92627v-.46289c0-4.05957,1.08008-7.29932,3.24023-9.71924,2.15918-2.41992,5.12305-3.62988,8.89062-3.62988,3.29688,0,5.93945.93799,7.92969,2.81348,1.98926,1.87598,3,4.37256,3.03223,7.49072h-6.60156c-.03223-1.37109-.4541-2.48535-1.2666-3.34277-.81152-.85693-1.88379-1.28564-3.21484-1.28564-1.64062,0-2.87891.59814-3.71484,1.79346-.83691,1.19531-1.25488,3.13477-1.25488,5.81836v.73193c0,2.71631.41406,4.66797,1.24219,5.85547s2.08691,1.78076,3.77637,1.78076Z"/>
    <path class="cls-7" d="M994.73535,433.71037c-1.7373,2.11133-4.14062,3.16699-7.20996,3.16699-2.8252,0-4.98145-.81201-6.46777-2.43604-1.48535-1.62354-2.24512-4.00293-2.27734-7.13721v-17.271h7.04004v17.04688c0,2.74805,1.25,4.12158,3.75098,4.12158,2.3877,0,4.02734-.8291,4.9209-2.48779v-18.68066h7.06445v26.35693h-6.62598l-.19531-2.67969Z"/>
    <path class="cls-7" d="M1021.67773,416.63468c-.95898-.12988-1.80273-.19482-2.5332-.19482-2.66406,0-4.40918.90137-5.2373,2.70361v17.24658h-7.04004v-26.35693h6.64941l.19531,3.14258c1.41309-2.41992,3.37012-3.62988,5.87109-3.62988.7793,0,1.50977.10596,2.19238.31689l-.09766,6.77197Z"/>
    <path class="cls-7" d="M1025.01465,403.21281c0-1.05566.35352-1.9248,1.05957-2.60645.70605-.68213,1.66895-1.02344,2.88672-1.02344,1.20117,0,2.15918.34131,2.87402,1.02344.71484.68164,1.07227,1.55078,1.07227,2.60645,0,1.07178-.3623,1.94873-1.08398,2.63037-.72266.68213-1.67676,1.02344-2.8623,1.02344s-2.13965-.34131-2.8623-1.02344c-.72266-.68164-1.08398-1.55859-1.08398-2.63037ZM1032.49316,436.39006h-7.06445v-26.35693h7.06445v26.35693Z"/>
    <path class="cls-7" d="M1046.71875,403.55363v6.47949h4.50684v5.16406h-4.50684v13.1543c0,.97412.18652,1.67285.56055,2.09473.37305.42285,1.08789.6333,2.14355.6333.7793,0,1.46973-.05664,2.07031-.17041v5.33496c-1.37988.42188-2.80078.6333-4.2627.6333-4.93652,0-7.4541-2.49268-7.55078-7.47852v-14.20166h-3.84961v-5.16406h3.84961v-6.47949h7.03906Z"/>
    <path class="cls-7" d="M1064.98828,426.42716l4.87207-16.39404h7.55176l-10.59668,30.44922-.58496,1.38867c-1.5752,3.44238-4.17383,5.16406-7.79492,5.16406-1.02246,0-2.0625-.1543-3.11816-.46289v-5.33447l1.07227.02441c1.33105,0,2.32617-.20361,2.98438-.60938.65723-.40576,1.17285-1.08008,1.54688-2.02148l.82812-2.16797-9.23242-26.43018h7.5752l4.89648,16.39404Z"/>
    <path class="cls-7" d="M1085.01172,398.14591l3.3125,1.92432c-1.39648,2.2085-2.11914,4.44971-2.16797,6.72314v4.06787h-5.57812v-3.65381c0-1.52637.42578-3.1543,1.27832-4.88379s1.9043-3.12207,3.15527-4.17773ZM1093.36621,398.14591l3.31348,1.92432c-1.39746,2.2085-2.11914,4.44971-2.16797,6.72314v4.06787h-5.57812v-3.65381c0-1.52637.42578-3.1543,1.27832-4.88379s1.9043-3.12207,3.1543-4.17773Z"/>
  </g>
  <path class="cls-8" d="M156.5371,275.04653l7.21537-15.51115h8.23835l3.91754.11791,1.47014-6.57239,10.11803-5.96704,17.55521.25944,12.45296,7.69662.25944,7.09127,8.73437.17296,11.0693,12.10704,5.52483.04439,2.60419-.21735,8.73437,10.20451s-2.8538,10.72338-4.9293,13.40422-5.53465,9.85859-39.6938,9.59915-52.0626-.265-55.77887-2.07549c-6.74535-3.2862-8.72063-11.28803-8.64789-15.65268.08648-5.18873,4.06451-11.41521,8.73431-14.60071,1.29523-.88354,2.42146-.1007,2.42146-.1007Z"/>
  <path class="cls-8" d="M100.93119,343.1054l7.21537-15.51115h8.23835l3.91754.11791,1.47014-6.57239,10.11803-5.96704,17.55521.25944,12.45296,7.69662.25944,7.09127,8.73437.17296,11.0693,12.10704,5.52483.04439,2.60419-.21735,8.73437,10.20451s-2.8538,10.72338-4.9293,13.40422-5.53465,9.85859-39.6938,9.59915-52.0626-.265-55.77887-2.07549c-6.74535-3.2862-8.72063-11.28803-8.64789-15.65268.08648-5.18873,4.06451-11.41521,8.73431-14.60071,1.29523-.88354,2.42146-.1007,2.42146-.1007Z"/>
  <path class="cls-8" d="M217.85062,343.1054l7.21537-15.51115h8.23835l3.91754.11791,1.47014-6.57239,10.11803-5.96704,17.55521.25944,12.45296,7.69662.25944,7.09127,8.73437.17296,11.0693,12.10704,5.52483.04439,2.60419-.21735,8.73437,10.20451s-2.8538,10.72338-4.9293,13.40422-5.53465,9.85859-39.6938,9.59915-52.0626-.265-55.77887-2.07549c-6.74535-3.2862-8.72063-11.28803-8.64789-15.65268.08648-5.18873,4.06451-11.41521,8.73431-14.60071,1.29523-.88354,2.42146-.1007,2.42146-.1007Z"/>
  <g>
    <g>
      <path class="cls-1" d="M256.90039,280.88705c-2.37202-4.46042-6.44468-6.81679-11.78037-6.81679h-.50834l-9.31457,7.81709,9.8229.06029c2.65184,0,3.42219,1.07101,4.23119,2.5856.68324,1.28461.84177,3.47129-.14737,5.10571l-.99509,1.49227c-3.56953,5.3074-9.63684,11.63223-18.27932,11.63223h-63.45962c-7.29759,0-14.22897-4.91964-15.4429-10.96536-.48675-2.38316.03798-4.65766,1.46473-6.40669,1.79295-2.18667,4.84893-3.44375,8.3805-3.44375h5.35132l-12.10782-6.80041-.61254.23519c-2.84238,1.07696-5.29698,2.81484-7.10631,5.01788-2.95178,3.60823-4.05033,8.21081-3.09915,12.96076,1.95669,9.6867,12.13536,17.27977,23.17217,17.27977h63.45962c9.46193,0,18.27411-5.36844,24.8118-15.10947l1.04942-1.55776c2.6898-4.31306,3.11627-9.32573,1.10974-13.08654Z"/>
      <path class="cls-1" d="M234.91978,281.51596l8.17285-7.03039-14.74329-14.95019h-8.02474l.00521-1.39923h20.40645l-.01635,1.68875,15.33868-.03796.11462-10.49052-15.48607.01637.01637,2.07726-21.42313.04391-13.72587-7.73522h-19.18136l-14.33843,8.98188-.04391,6.85475h-8.23835l-7.81635,15.80313,10.55008,6.08442,68.43357.09303ZM179.46853,259.53537l.01116-3.60823,9.15083-5.32378,15.60069.02679,8.69161,5.035-.03796,3.8263-33.41633.04391ZM169.03907,273.96681l-3.1215-1.7602,2.48736-5.21511h56.82294l6.48335,6.5816-.56264.39372h-62.10951Z"/>
    </g>
    <path class="cls-1" d="M161.15646,283.02014c-4.34283,0-7.87738,3.53455-7.87738,7.87961,0,4.34357,3.53455,7.87812,7.87738,7.87812,4.3458,0,7.88035-3.53455,7.88035-7.87812,0-4.34506-3.53455-7.87961-7.88035-7.87961Z"/>
    <path class="cls-1" d="M173.15189,292.02881c0,5.23521,4.25873,9.49394,9.49394,9.49394s9.49691-4.25873,9.49691-9.49394-4.2617-9.49617-9.49691-9.49617-9.49394,4.26096-9.49394,9.49617Z"/>
    <path class="cls-1" d="M194.63903,292.02881c0,5.23521,4.2617,9.49394,9.49691,9.49394s9.49394-4.25873,9.49394-9.49394-4.2587-9.49617-9.49394-9.49617-9.49691,4.26096-9.49691,9.49617Z"/>
    <path class="cls-1" d="M225.62308,282.53264c-5.23521,0-9.49391,4.26096-9.49391,9.49617s4.2587,9.49394,9.49391,9.49394,9.49617-4.25873,9.49617-9.49394-4.26093-9.49617-9.49617-9.49617Z"/>
    <path class="cls-1" d="M242.45033,292.89663c2.85726,0,5.18088-2.32436,5.18088-5.18088,0-2.85875-2.32362-5.18311-5.18088-5.18311-2.85875,0-5.18237,2.32436-5.18237,5.18311,0,2.85652,2.32362,5.18088,5.18237,5.18088Z"/>
  </g>
  <g>
    <g>
      <path class="cls-1" d="M200.64551,349.16519c-2.37274-4.46042-6.44465-6.81679-11.78034-6.81679h-.50834l-9.31457,7.81709,9.8229.06029c2.6511,0,3.42216,1.07101,4.23119,2.5856.68324,1.28461.84177,3.47129-.14737,5.10571l-.99509,1.49227c-3.56951,5.3074-9.63758,11.63223-18.27932,11.63223h-63.45962c-7.29759,0-14.22974-4.91964-15.4429-10.96536-.48675-2.38316.03796-4.65766,1.46473-6.40669,1.79297-2.18667,4.84893-3.44375,8.3805-3.44375h5.35132l-12.10782-6.80041-.61252.23519c-2.8424,1.07696-5.297,2.81484-7.10633,5.01788-2.95178,3.60823-4.05031,8.21081-3.09915,12.96076,1.95669,9.6867,12.13536,17.27977,23.17217,17.27977h63.45962c9.46193,0,18.27411-5.36844,24.8118-15.10947l1.04942-1.55776c2.6898-4.31306,3.11629-9.32573,1.10971-13.08654Z"/>
      <path class="cls-1" d="M178.66492,349.7941l8.17211-7.03039-14.74254-14.95019h-8.02474l.00521-1.39923h20.40645l-.01637,1.68875,15.3387-.03796.11462-10.49052-15.48605.01637.01635,2.07726-21.42313.04391-13.72587-7.73522h-19.18213l-14.3384,8.98188-.04315,6.85475h-8.23837l-7.81709,15.80313,10.5508,6.08442,68.43359.09303ZM123.21367,327.81351l.01116-3.60823,9.15083-5.32378,15.60069.02679,8.69161,5.035-.03796,3.8263-33.41633.04391ZM112.78419,342.24494l-3.12146-1.7602,2.48734-5.21511h56.82294l6.48338,6.5816-.56344.39372h-62.10877Z"/>
    </g>
    <path class="cls-1" d="M104.9016,351.29827c-4.34283,0-7.87738,3.53455-7.87738,7.87961,0,4.34357,3.53455,7.87812,7.87738,7.87812,4.34506,0,7.88035-3.53455,7.88035-7.87812,0-4.34506-3.53529-7.87961-7.88035-7.87961Z"/>
    <path class="cls-1" d="M116.89706,360.30694c0,5.23521,4.2587,9.49394,9.49391,9.49394s9.49617-4.25873,9.49617-9.49394-4.26094-9.49617-9.49617-9.49617-9.49391,4.26096-9.49391,9.49617Z"/>
    <path class="cls-1" d="M138.38419,360.30694c0,5.23521,4.26094,9.49394,9.49615,9.49394,5.23595,0,9.49468-4.25873,9.49468-9.49394s-4.25873-9.49617-9.49468-9.49617c-5.23521,0-9.49615,4.26096-9.49615,9.49617Z"/>
    <path class="cls-1" d="M169.36824,350.81077c-5.23523,0-9.49396,4.26096-9.49396,9.49617s4.25873,9.49394,9.49396,9.49394,9.49615-4.25873,9.49615-9.49394-4.26096-9.49617-9.49615-9.49617Z"/>
    <path class="cls-1" d="M186.19547,361.17476c2.85652,0,5.1809-2.32436,5.1809-5.18088,0-2.85875-2.32438-5.18311-5.1809-5.18311-2.85875,0-5.18237,2.32436-5.18237,5.18311,0,2.85652,2.32362,5.18088,5.18237,5.18088Z"/>
  </g>
  <g>
    <g>
      <path class="cls-1" d="M316.62249,349.16519c-2.37202-4.46042-6.44468-6.81679-11.78037-6.81679h-.50834l-9.31457,7.81709,9.8229.06029c2.65184,0,3.42219,1.07101,4.23119,2.5856.68324,1.28461.84177,3.47129-.14737,5.10571l-.99509,1.49227c-3.56953,5.3074-9.63684,11.63223-18.27932,11.63223h-63.45962c-7.29759,0-14.22897-4.91964-15.4429-10.96536-.48675-2.38316.03798-4.65766,1.46473-6.40669,1.79295-2.18667,4.84893-3.44375,8.3805-3.44375h5.35132l-12.10782-6.80041-.61254.23519c-2.84238,1.07696-5.29698,2.81484-7.10631,5.01788-2.95178,3.60823-4.05033,8.21081-3.09915,12.96076,1.95669,9.6867,12.13536,17.27977,23.17217,17.27977h63.45962c9.46193,0,18.27411-5.36844,24.8118-15.10947l1.04942-1.55776c2.6898-4.31306,3.11627-9.32573,1.10974-13.08654Z"/>
      <path class="cls-1" d="M294.64187,349.7941l8.17285-7.03039-14.74329-14.95019h-8.02474l.00521-1.39923h20.40645l-.01635,1.68875,15.33868-.03796.11462-10.49052-15.48607.01637.01637,2.07726-21.42313.04391-13.72587-7.73522h-19.18136l-14.33843,8.98188-.04391,6.85475h-8.23835l-7.81635,15.80313,10.55008,6.08442,68.43357.09303ZM239.19062,327.81351l.01116-3.60823,9.15083-5.32378,15.60069.02679,8.69161,5.035-.03796,3.8263-33.41633.04391ZM228.76116,342.24494l-3.1215-1.7602,2.48736-5.21511h56.82294l6.48335,6.5816-.56264.39372h-62.10951Z"/>
    </g>
    <path class="cls-1" d="M220.87855,351.29827c-4.34283,0-7.87738,3.53455-7.87738,7.87961,0,4.34357,3.53455,7.87812,7.87738,7.87812,4.3458,0,7.88035-3.53455,7.88035-7.87812,0-4.34506-3.53455-7.87961-7.88035-7.87961Z"/>
    <path class="cls-1" d="M232.87399,360.30694c0,5.23521,4.25873,9.49394,9.49394,9.49394s9.49691-4.25873,9.49691-9.49394-4.2617-9.49617-9.49691-9.49617-9.49394,4.26096-9.49394,9.49617Z"/>
    <path class="cls-1" d="M254.36112,360.30694c0,5.23521,4.2617,9.49394,9.49691,9.49394s9.49394-4.25873,9.49394-9.49394-4.2587-9.49617-9.49394-9.49617-9.49691,4.26096-9.49691,9.49617Z"/>
    <path class="cls-1" d="M285.34517,350.81077c-5.23521,0-9.49391,4.26096-9.49391,9.49617s4.2587,9.49394,9.49391,9.49394,9.49617-4.25873,9.49617-9.49394-4.26093-9.49617-9.49617-9.49617Z"/>
    <path class="cls-1" d="M302.17242,361.17476c2.85726,0,5.18088-2.32436,5.18088-5.18088,0-2.85875-2.32362-5.18311-5.18088-5.18311-2.85875,0-5.18237,2.32436-5.18237,5.18311,0,2.85652,2.32362,5.18088,5.18237,5.18088Z"/>
  </g>
  <path class="cls-8" d="M496.86783,343.01892l6.44954-12.79887,8.12901-.08648,4.41042.08648,1.85243-9.16676,10.11803-5.96704,17.55521.25944,12.45296,7.69662.25944,7.09127,8.73437.17296,11.0693,12.10704,5.52483.04439,2.60419-.21735,8.73437,10.20451s-2.8538,10.72338-4.9293,13.40422-5.53465,9.85859-39.6938,9.59915-52.0626-.265-55.77887-2.07549c-6.74535-3.2862-8.72063-11.28803-8.64789-15.65268.08648-5.18873,4.06451-11.41521,8.73431-14.60071,1.29523-.88354,2.42146-.1007,2.42146-.1007Z"/>
  <path class="cls-8" d="M612.57655,343.01892l7.48729-13.66366,7.52366.51887,3.45915.51887,2.3713-9.33972,10.11803-5.96704,17.55521.25944,12.45296,7.69662.25944,7.09127,8.73437.17296,11.0693,12.10704,5.52483.04439,2.60419-.21735,8.73437,10.20451s-2.8538,10.72338-4.9293,13.40422-5.53465,9.85859-39.6938,9.59915-52.0626-.265-55.77887-2.07549c-6.74535-3.2862-8.72063-11.28803-8.64789-15.65268.08648-5.18873,4.06451-11.41521,8.73431-14.60071,1.29523-.88354,2.42146-.1007,2.42146-.1007Z"/>
  <path class="cls-8" d="M553.33853,274.78709l7.48729-13.66366,7.52366.51887,3.45915.51887,2.3713-9.33972,10.11803-5.96704,17.55521.25944,12.45296,7.69662.25944,7.09127,8.73437.17296,11.0693,12.10704,5.52483.04439,2.60419-.21735,8.73437,10.20451s-2.8538,10.72338-4.9293,13.40422-5.53465,9.85859-39.6938,9.59915-52.0626-.265-55.77887-2.07549c-6.74535-3.2862-8.72063-11.28803-8.64789-15.65268.08648-5.18873,4.06451-11.41521,8.73431-14.60071,1.29523-.88354,2.42146-.1007,2.42146-.1007Z"/>
  <g>
    <g>
      <path class="cls-6" d="M631.39424,281.51596l8.17285-7.03039-14.74329-14.95019h-8.02474l.00521-1.39923h20.40645l-.01635,1.68875,15.33868-.03796.11462-10.49052-15.48607.01637.01637,2.07726-21.42313.04391-13.72587-7.73522h-19.18136l-14.33843,8.98188-.04391,6.85475h-8.23835l-7.81635,15.80313,10.55008,6.08442,68.43357.09303ZM575.94299,259.53537l.01116-3.60823,9.15083-5.32378,15.60069.02679,8.69161,5.035-.03796,3.8263-33.41633.04391ZM565.51353,273.96681l-3.1215-1.7602,2.48736-5.21511h56.82294l6.48335,6.5816-.56264.39372h-62.10951Z"/>
      <path class="cls-6" d="M653.37485,280.88705c-2.37202-4.46042-6.44468-6.81679-11.78037-6.81679h-.50834l-9.31457,7.81709,9.8229.06029c2.65184,0,3.42219,1.07101,4.23119,2.5856.68324,1.28461.84177,3.47129-.14737,5.10571l-.99509,1.49227c-3.56953,5.3074-9.63684,11.63223-18.27932,11.63223h-63.45962c-7.29759,0-14.22897-4.91964-15.4429-10.96536-.48675-2.38316.03798-4.65766,1.46473-6.40669,1.79295-2.18667,4.84893-3.44375,8.3805-3.44375h5.35132l-12.10782-6.80041-.61254.23519c-2.84238,1.07696-5.29698,2.81484-7.10631,5.01788-2.95178,3.60823-4.05033,8.21081-3.09915,12.96076,1.95669,9.6867,12.13536,17.27977,23.17217,17.27977h63.45962c9.46193,0,18.27411-5.36844,24.8118-15.10947l1.04942-1.55776c2.6898-4.31306,3.11627-9.32573,1.10974-13.08654Z"/>
    </g>
    <path class="cls-6" d="M557.63092,283.02014c-4.34283,0-7.87738,3.53455-7.87738,7.87961,0,4.34357,3.53455,7.87812,7.87738,7.87812,4.3458,0,7.88035-3.53455,7.88035-7.87812,0-4.34506-3.53455-7.87961-7.88035-7.87961Z"/>
    <path class="cls-6" d="M569.62635,292.02881c0,5.23521,4.25873,9.49394,9.49394,9.49394s9.49691-4.25873,9.49691-9.49394-4.2617-9.49617-9.49691-9.49617-9.49394,4.26096-9.49394,9.49617Z"/>
    <path class="cls-6" d="M591.11349,292.02881c0,5.23521,4.2617,9.49394,9.49691,9.49394s9.49394-4.25873,9.49394-9.49394-4.2587-9.49617-9.49394-9.49617-9.49691,4.26096-9.49691,9.49617Z"/>
    <path class="cls-6" d="M622.09754,282.53264c-5.23521,0-9.49391,4.26096-9.49391,9.49617s4.2587,9.49394,9.49391,9.49394,9.49617-4.25873,9.49617-9.49394-4.26093-9.49617-9.49617-9.49617Z"/>
    <path class="cls-6" d="M638.92479,292.89663c2.85726,0,5.18088-2.32436,5.18088-5.18088,0-2.85875-2.32362-5.18311-5.18088-5.18311-2.85875,0-5.18237,2.32436-5.18237,5.18311,0,2.85652,2.32362,5.18088,5.18237,5.18088Z"/>
  </g>
  <g>
    <g>
      <path class="cls-6" d="M712.6421,349.00477c-2.37274-4.46042-6.4454-6.81679-11.78034-6.81679h-.50834l-9.31457,7.81709,9.8229.06029c2.6511,0,3.42216,1.07101,4.23119,2.5856.68324,1.28461.84177,3.47129-.14811,5.10571l-.99435,1.49227c-3.56953,5.3074-9.63754,11.63223-18.28007,11.63223h-63.45962c-7.29759,0-14.22899-4.91964-15.44216-10.96536-.48675-2.38316.03796-4.65766,1.46473-6.40669,1.79295-2.18667,4.84893-3.44375,8.37976-3.44375h5.35206l-12.10856-6.80041-.61179.23519c-2.84312,1.07696-5.29698,2.81484-7.10631,5.01788-2.95178,3.60823-4.05107,8.21081-3.09986,12.96076,1.95744,9.6867,12.13532,17.27977,23.17214,17.27977h63.45962c9.46268,0,18.27411-5.36844,24.81254-15.10947l1.04942-1.55776c2.68906-4.31306,3.11552-9.32573,1.10971-13.08654Z"/>
      <path class="cls-6" d="M690.66151,349.63368l8.17211-7.03039-14.74254-14.95019h-8.02474l.00521-1.39923h20.40645l-.01637,1.68875,15.3387-.03796.11465-10.49052-15.48685.01637.01637,2.07726-21.42238.04391-13.72661-7.73522h-19.18138l-14.3384,8.98188-.04391,6.85475h-8.2376l-7.81709,15.80313,10.55006,6.08442,68.43433.09303ZM635.21029,327.65309l.01039-3.60823,9.15083-5.32378,15.60143.02679,8.69161,5.035-.03796,3.8263-33.4163.04391ZM624.78003,342.08453l-3.12148-1.7602,2.48736-5.21511h56.82369l6.48335,6.5816-.56341.39372h-62.10951Z"/>
    </g>
    <path class="cls-6" d="M616.89819,351.13785c-4.34283,0-7.87812,3.53455-7.87812,7.87961,0,4.34357,3.53529,7.87812,7.87812,7.87812,4.34506,0,7.88035-3.53455,7.88035-7.87812,0-4.34506-3.53529-7.87961-7.88035-7.87961Z"/>
    <path class="cls-6" d="M628.89362,360.14652c0,5.23521,4.25873,9.49394,9.49394,9.49394s9.49617-4.25873,9.49617-9.49394-4.26096-9.49617-9.49617-9.49617-9.49394,4.26096-9.49394,9.49617Z"/>
    <path class="cls-6" d="M650.38076,360.14652c0,5.23521,4.26096,9.49394,9.49617,9.49394s9.49394-4.25873,9.49394-9.49394-4.25873-9.49617-9.49394-9.49617-9.49617,4.26096-9.49617,9.49617Z"/>
    <path class="cls-6" d="M681.36406,350.65036c-5.23521,0-9.49394,4.26096-9.49394,9.49617s4.25873,9.49394,9.49394,9.49394,9.49617-4.25873,9.49617-9.49394-4.26096-9.49617-9.49617-9.49617Z"/>
    <path class="cls-6" d="M698.19206,361.01435c2.85655,0,5.18088-2.32436,5.18088-5.18088,0-2.85875-2.32433-5.18311-5.18088-5.18311-2.85875,0-5.18311,2.32436-5.18311,5.18311,0,2.85652,2.32436,5.18088,5.18311,5.18088Z"/>
  </g>
  <g>
    <g>
      <path class="cls-6" d="M596.66515,349.00477c-2.37274-4.46042-6.4454-6.81679-11.78034-6.81679h-.50831l-9.3146,7.81709,9.8229.06029c2.6511,0,3.42216,1.07101,4.23119,2.5856.68324,1.28461.84177,3.47129-.14811,5.10571l-.99435,1.49227c-3.56953,5.3074-9.63758,11.63223-18.28007,11.63223h-63.45962c-7.29759,0-14.22896-4.91964-15.4429-10.96536-.48601-2.38316.0387-4.65766,1.46547-6.40669,1.79295-2.18667,4.84893-3.44375,8.37976-3.44375h5.35206l-12.10856-6.80041-.61179.23519c-2.84312,1.07696-5.29695,2.81484-7.10631,5.01788-2.95253,3.60823-4.05107,8.21081-3.09989,12.96076,1.95744,9.6867,12.13536,17.27977,23.17217,17.27977h63.45962c9.46268,0,18.27411-5.36844,24.8118-15.10947l1.0502-1.55776c2.68902-4.31306,3.11549-9.32573,1.10968-13.08654Z"/>
      <path class="cls-6" d="M574.68456,349.63368l8.17211-7.03039-14.74329-14.95019h-8.024l.00521-1.39923h20.40571l-.01634,1.68875,15.33867-.03796.11536-10.49052-15.48681.01637.01637,2.07726-21.42238.04391-13.72661-7.73522h-19.18135l-14.33843,8.98188-.04391,6.85475h-8.2376l-7.81709,15.80313,10.55009,6.08442,68.4343.09303ZM519.23331,327.65309l.01042-3.60823,9.15083-5.32378,15.60143.02679,8.69161,5.035-.0387,3.8263-33.41559.04391ZM508.80311,342.08453l-3.12151-1.7602,2.48736-5.21511h56.82369l6.48261,6.5816-.56264.39372h-62.10951Z"/>
    </g>
    <path class="cls-6" d="M500.92127,351.13785c-4.34286,0-7.87815,3.53455-7.87815,7.87961,0,4.34357,3.53529,7.87812,7.87815,7.87812,4.34503,0,7.87958-3.53455,7.87958-7.87812,0-4.34506-3.53455-7.87961-7.87958-7.87961Z"/>
    <path class="cls-6" d="M512.91667,360.14652c0,5.23521,4.25873,9.49394,9.49394,9.49394s9.49617-4.25873,9.49617-9.49394-4.26096-9.49617-9.49617-9.49617-9.49394,4.26096-9.49394,9.49617Z"/>
    <path class="cls-6" d="M534.40381,360.14652c0,5.23521,4.26096,9.49394,9.49617,9.49394s9.49394-4.25873,9.49394-9.49394-4.25869-9.49617-9.49394-9.49617-9.49617,4.26096-9.49617,9.49617Z"/>
    <path class="cls-6" d="M565.38711,350.65036c-5.23521,0-9.4939,4.26096-9.4939,9.49617s4.25869,9.49394,9.4939,9.49394,9.49617-4.25873,9.49617-9.49394-4.26093-9.49617-9.49617-9.49617Z"/>
    <path class="cls-6" d="M582.21511,361.01435c2.85652,0,5.18013-2.32436,5.18013-5.18088,0-2.85875-2.32362-5.18311-5.18013-5.18311-2.85875,0-5.18311,2.32436-5.18311,5.18311,0,2.85652,2.32436,5.18088,5.18311,5.18088Z"/>
  </g>
</svg>