<svg aria-label="download" viewBox="0 0 41 41" fill="none" xmlns="http://www.w3.org/2000/svg">
    <path d="M10.8608 32.4219C10.1942 32.4219 9.61084 32.1789 9.11084 31.6929C8.61084 31.2069 8.36084 30.6165 8.36084 29.9219V25.0059H10.3608V29.9219C10.3608 30.0612 10.4162 30.1792 10.5268 30.2759C10.6382 30.3732 10.7495 30.4219 10.8608 30.4219H30.5268C30.6382 30.4219 30.7495 30.3732 30.8608 30.2759C30.9715 30.1792 31.0268 30.0612 31.0268 29.9219V25.0059H33.0268V29.9219C33.0268 30.6165 32.7768 31.2069 32.2768 31.6929C31.7768 32.1789 31.1935 32.4219 30.5268 32.4219H10.8608ZM20.6938 26.3389L13.9018 19.5059L15.3188 18.1309L19.6938 22.5059V7.63086H21.6938V22.5059L26.1108 18.1309L27.5268 19.5059L20.6938 26.3389Z" fill="currentColor" />
</svg>