<svg width="299" height="295" viewBox="0 0 299 295" fill="none" xmlns="http://www.w3.org/2000/svg">
<rect x="5.40967" y="3.6665" width="287.667" height="287.667" rx="41" fill="#0076A9"/>
<path fill-rule="evenodd" clip-rule="evenodd" d="M47.4995 82.038H149.242V235.403H132.783C133.407 230.664 131.039 225.926 129.607 221.189H47.4995V82.038Z" fill="black"/>
<path d="M136.342 89.525H54.7976V208.101H136.342V89.525Z" fill="white"/>
<path fill-rule="evenodd" clip-rule="evenodd" d="M73.8553 59.9926C98.8564 58.3953 126.538 61.1582 146.892 77.194L149.243 79.0463V214.269H133.553L131.76 212.531C124.616 205.614 114.733 193.322 103.76 193.322H68.0823V60.3615L73.8555 59.9926H73.8553Z" fill="black"/>
<path fill-rule="evenodd" clip-rule="evenodd" d="M74.2493 66.1474C104.15 64.2376 127.141 69.4842 143.076 82.0378V208.101H136.05C128.839 201.119 117.703 187.154 103.76 187.154H74.2493V66.1474V66.1474Z" fill="white"/>
<path fill-rule="evenodd" clip-rule="evenodd" d="M250.986 82.038H149.243V235.403H165.702C165.077 230.664 167.447 225.926 168.879 221.189H250.986V82.038Z" fill="black"/>
<path d="M243.688 89.525H162.144V208.101H243.688V89.525Z" fill="white"/>
<path fill-rule="evenodd" clip-rule="evenodd" d="M224.629 59.9926C199.629 58.3953 171.946 61.1582 151.594 77.194L149.242 79.0463V214.269H164.932L166.726 212.531C173.87 205.614 183.753 193.322 194.726 193.322H230.404V60.3615L224.629 59.9926Z" fill="black"/>
<path fill-rule="evenodd" clip-rule="evenodd" d="M224.237 66.1474C194.335 64.2376 171.344 69.4842 155.41 82.0378V208.101H162.436C169.645 201.119 180.781 187.154 194.726 187.154H224.237V66.1474V66.1474Z" fill="white"/>
</svg>
