<svg width="290" height="290" viewBox="0 0 290 290" fill="none" xmlns="http://www.w3.org/2000/svg">
<path fill-rule="evenodd" clip-rule="evenodd" d="M15.8784 61.0779H144.999V257.691H124.111C124.902 251.616 121.897 245.542 120.08 239.469H15.8784V61.0779Z" fill="black"/>
<path d="M128.627 70.6763H25.1404V222.691H128.627V70.6763Z" fill="white"/>
<path fill-rule="evenodd" clip-rule="evenodd" d="M49.3262 32.8158C81.0548 30.768 116.186 34.31 142.017 54.868L145 57.2425V230.597H125.088L122.813 228.37C113.746 219.502 101.203 203.743 87.2777 203.743H41.9998V33.2888L49.3264 32.8158H49.3262Z" fill="black"/>
<path fill-rule="evenodd" clip-rule="evenodd" d="M49.8262 40.7063C87.7726 38.2579 116.951 44.984 137.173 61.0777V222.69H128.257C119.105 213.739 104.972 195.836 87.2778 195.836H49.8262V40.7063V40.7063Z" fill="white"/>
<path fill-rule="evenodd" clip-rule="evenodd" d="M274.122 61.0779H145V257.691H165.888C165.095 251.616 168.102 245.542 169.92 239.469H274.122V61.0779Z" fill="black"/>
<path d="M264.859 70.6763H161.372V222.691H264.859V70.6763Z" fill="white"/>
<path fill-rule="evenodd" clip-rule="evenodd" d="M240.671 32.8158C208.945 30.768 173.812 34.31 147.983 54.868L144.999 57.2425V230.597H164.911L167.187 228.37C176.253 219.502 188.796 203.743 202.722 203.743H248V33.2888L240.671 32.8158Z" fill="black"/>
<path fill-rule="evenodd" clip-rule="evenodd" d="M240.174 40.7063C202.227 38.2579 173.049 44.984 152.827 61.0777V222.69H161.743C170.892 213.739 185.025 195.836 202.722 195.836H240.174V40.7063V40.7063Z" fill="white"/>
</svg>
