<svg width="934" height="190" viewBox="0 0 934 190" fill="none" xmlns="http://www.w3.org/2000/svg">
<g clip-path="url(#clip0_215_372)">
<path d="M283.602 0H0V189.07H283.602V0Z" fill="#034EA2"/>
<path d="M135.758 41.1953L141.742 36.8283L147.727 41.1953L145.449 34.1323L151.528 29.7653H144.035L141.742 22.6173L139.449 29.7733L131.961 29.7653L138.035 34.1323L135.758 41.1953Z" fill="#FFF200"/>
<path d="M104.789 49.5153L110.773 45.1483L116.754 49.5153L114.48 42.4523L120.555 38.0853H113.062L110.77 30.9293L108.477 38.0933L100.988 38.0853L107.062 42.4523L104.789 49.5153Z" fill="#FFF200"/>
<path d="M88.113 53.6403L85.82 60.8043L78.332 60.7963L84.406 65.1633L82.129 72.2263L88.113 67.8593L94.097 72.2263L91.82 65.1633L97.894 60.7963H90.406L88.113 53.6403Z" fill="#FFF200"/>
<path d="M79.8011 98.7893L85.7821 103.156L83.5081 96.0943L89.5821 91.7263H82.0941L79.8011 84.5703L77.5081 91.7423L70.0161 91.7263L76.0941 96.0943L73.8171 103.156L79.8011 98.7893Z" fill="#FFF200"/>
<path d="M90.406 122.749L88.113 115.593L85.82 122.757L78.332 122.749L84.406 127.116L82.129 134.179L88.113 129.804L94.097 134.179L91.82 127.116L97.894 122.749H90.406Z" fill="#FFF200"/>
<path d="M113.109 145.452L110.816 138.304L108.527 145.46L101.035 145.452L107.109 149.819L104.836 156.882L110.82 152.515L116.8 156.882L114.527 149.819L120.601 145.452H113.109Z" fill="#FFF200"/>
<path d="M144.039 153.679L141.746 146.523L139.457 153.687L131.965 153.679L138.039 158.046L135.766 165.109L141.75 160.742L147.73 165.109L145.453 158.046L151.531 153.679H144.039Z" fill="#FFF200"/>
<path d="M174.969 145.452L172.68 138.304L170.383 145.46L162.899 145.452L168.969 149.819L166.696 156.882L172.68 152.515L178.664 156.882L176.383 149.819L182.461 145.452H174.969Z" fill="#FFF200"/>
<path d="M197.68 122.749L195.383 115.593L193.086 122.757L185.602 122.749L191.68 127.116L189.399 134.179L195.383 129.804L201.367 134.179L199.086 127.116L205.164 122.749H197.68Z" fill="#FFF200"/>
<path d="M213.391 91.6403H205.899L203.602 84.4843L201.313 91.6483L193.821 91.6403L199.899 96.0073L197.625 103.07L203.602 98.6953L209.586 103.07L207.313 96.0073L213.391 91.6403Z" fill="#FFF200"/>
<path d="M189.398 72.1323L195.382 67.7653L201.367 72.1323L199.086 65.0693L205.164 60.7103H197.679L195.382 53.5543L193.086 60.7183L185.601 60.7103L191.679 65.0693L189.398 72.1323Z" fill="#FFF200"/>
<path d="M172.766 30.9373L170.477 38.1013L162.985 38.0853L169.055 42.4603L166.782 49.5233L172.774 45.1483L178.75 49.5233L176.477 42.4603L182.555 38.0853H175.055L172.766 30.9373Z" fill="#FFF200"/>
<path d="M324.788 71.115V24.5867H356.685V32.4578H334.183V43.471H353.606V51.3421H334.183V71.115H324.788Z" fill="#034EA2"/>
<path d="M386.551 71.115V66.0686C385.323 67.8674 383.71 69.2849 381.711 70.3215C379.711 71.3581 377.601 71.8767 375.379 71.8767C373.115 71.8767 371.083 71.3791 369.285 70.385C367.487 69.3909 366.186 67.9944 365.382 66.1955C364.577 64.3972 364.175 61.9108 364.175 58.737V37.4089H373.094V52.8972C373.094 57.6369 373.258 60.5412 373.586 61.6091C373.913 62.6779 374.511 63.5246 375.379 64.1482C376.246 64.7727 377.347 65.0847 378.68 65.0847C380.203 65.0847 381.568 64.6672 382.775 63.8308C383.98 62.9954 384.806 61.9587 385.249 60.7204C385.695 59.4831 385.916 56.4518 385.916 51.6276V37.4088H394.835V71.1149H386.551V71.115Z" fill="#034EA2"/>
<path d="M434.729 71.115H425.811V53.9129C425.811 50.2737 425.62 47.9197 425.239 46.8514C424.858 45.7831 424.239 44.9525 423.383 44.3597C422.526 43.7674 421.494 43.471 420.288 43.471C418.743 43.471 417.357 43.8943 416.131 44.7405C414.903 45.5872 414.062 46.7083 413.608 48.1048C413.153 49.5013 412.925 52.0828 412.925 55.8489V71.115H404.006V37.4089H412.29V42.3601C415.231 38.5515 418.934 36.6472 423.399 36.6472C425.366 36.6472 427.164 37.0017 428.794 37.7107C430.423 38.4197 431.655 39.324 432.491 40.4241C433.327 41.5247 433.909 42.7727 434.238 44.1692C434.565 45.5657 434.729 47.5652 434.729 50.1677V71.115H434.729Z" fill="#034EA2"/>
<path d="M474.686 71.115H466.403V66.1638C465.027 68.0896 463.404 69.5232 461.531 70.4646C459.659 71.4055 457.771 71.8767 455.866 71.8767C451.994 71.8767 448.678 70.3166 445.916 67.1951C443.155 64.0745 441.774 59.721 441.774 54.135C441.774 48.4221 443.118 44.0793 445.806 41.1062C448.492 38.134 451.888 36.6472 455.993 36.6472C459.759 36.6472 463.017 38.2131 465.768 41.3445V24.5867H474.686V71.115V71.115ZM450.884 53.532C450.884 57.1292 451.38 59.7317 452.375 61.3396C453.814 63.6672 455.823 64.8308 458.405 64.8308C460.457 64.8308 462.203 63.9578 463.642 62.2126C465.081 60.4665 465.8 57.8591 465.8 54.3889C465.8 50.5168 465.102 47.7292 463.706 46.0261C462.309 44.323 460.521 43.4709 458.342 43.4709C456.226 43.4709 454.454 44.3122 453.025 45.9938C451.598 47.6764 450.884 50.1891 450.884 53.5319L450.884 53.532Z" fill="#034EA2"/>
<path d="M502.998 60.3874L511.885 61.8791C510.742 65.1379 508.938 67.6188 506.474 69.322C504.008 71.0251 500.924 71.8767 497.222 71.8767C491.36 71.8767 487.022 69.9621 484.209 66.1321C481.987 63.0642 480.876 59.1922 480.876 54.5159C480.876 48.93 482.337 44.5555 485.257 41.3924C488.177 38.2293 491.868 36.6473 496.333 36.6473C501.348 36.6473 505.304 38.3031 508.203 41.6141C511.102 44.9261 512.487 49.9989 512.36 56.8329H490.017C490.081 59.4779 490.8 61.5355 492.175 63.0058C493.551 64.477 495.265 65.2119 497.317 65.2119C498.714 65.2119 499.888 64.831 500.84 64.0693C501.792 63.3076 502.511 62.0805 502.998 60.3877V60.3874ZM503.506 51.3737C503.442 48.7926 502.776 46.8302 501.507 45.486C500.237 44.1427 498.692 43.4709 496.872 43.4709C494.926 43.4709 493.317 44.1799 492.048 45.5974C490.778 47.0154 490.154 48.9407 490.176 51.3738H503.506V51.3737Z" fill="#034EA2"/>
<path d="M550.542 71.115H542.259V66.1638C540.883 68.0896 539.26 69.5232 537.387 70.4646C535.515 71.4055 533.626 71.8767 531.722 71.8767C527.85 71.8767 524.533 70.3166 521.771 67.1951C519.011 64.0745 517.63 59.721 517.63 54.135C517.63 48.4221 518.974 44.0793 521.661 41.1062C524.348 38.134 527.743 36.6472 531.849 36.6472C535.614 36.6472 538.873 38.2131 541.624 41.3445V24.5867H550.542V71.115V71.115ZM526.739 53.532C526.739 57.1292 527.235 59.7317 528.231 61.3396C529.669 63.6672 531.679 64.8308 534.261 64.8308C536.313 64.8308 538.059 63.9578 539.497 62.2126C540.937 60.4665 541.655 57.8591 541.655 54.3889C541.655 50.5168 540.958 47.7292 539.562 46.0261C538.165 44.323 536.376 43.4709 534.197 43.4709C532.081 43.4709 530.309 44.3122 528.881 45.9938C527.453 47.6764 526.739 50.1891 526.739 53.5319L526.739 53.532Z" fill="#034EA2"/>
<path d="M577.013 71.115V24.5867H585.931V41.3445C588.681 38.2132 591.94 36.6472 595.706 36.6472C599.811 36.6472 603.207 38.134 605.894 41.1062C608.581 44.0793 609.925 48.3484 609.925 53.9128C609.925 59.6682 608.555 64.1008 605.814 67.2111C603.074 70.3214 599.747 71.8766 595.833 71.8766C593.907 71.8766 592.009 71.3952 590.136 70.4323C588.264 69.4699 586.649 68.047 585.296 66.1637V71.1149H577.013V71.115ZM585.867 53.532C585.867 57.0232 586.417 59.6048 587.518 61.2761C589.061 63.6462 591.114 64.8308 593.675 64.8308C595.643 64.8308 597.319 63.99 598.705 62.3074C600.091 60.6258 600.784 57.9754 600.784 54.3572C600.784 50.5066 600.086 47.7293 598.69 46.0261C597.293 44.3229 595.505 43.4709 593.325 43.4709C591.188 43.4709 589.411 44.3015 587.993 45.9626C586.576 47.6237 585.867 50.1467 585.867 53.5319V53.532Z" fill="#034EA2"/>
<path d="M612.876 37.4089H622.365L630.428 61.3396L638.299 37.4089H647.534L635.633 69.8454L633.506 75.717C632.723 77.6848 631.977 79.1867 631.269 80.2238C630.56 81.2604 629.745 82.1012 628.824 82.7467C627.904 83.3922 626.772 83.8946 625.429 84.2545C624.085 84.6139 622.566 84.7941 620.874 84.7941C619.16 84.7941 617.479 84.6139 615.828 84.2545L615.034 77.2721C616.431 77.547 617.69 77.6847 618.811 77.6847C620.885 77.6847 622.418 77.0763 623.413 75.86C624.407 74.6427 625.169 73.0929 625.698 71.2101L612.876 37.4088L612.876 37.4089Z" fill="#034EA2"/>
<path d="M340.117 115.409V122.518H334.023V136.102C334.023 138.853 334.081 140.456 334.198 140.911C334.315 141.366 334.579 141.741 334.991 142.037C335.404 142.334 335.906 142.482 336.499 142.482C337.324 142.482 338.52 142.196 340.085 141.625L340.847 148.544C338.773 149.432 336.425 149.877 333.802 149.877C332.193 149.877 330.743 149.607 329.453 149.067C328.162 148.528 327.216 147.83 326.612 146.972C326.01 146.116 325.592 144.957 325.358 143.498C325.169 142.461 325.073 140.366 325.073 137.213V122.518H320.979V115.409H325.073V108.713L334.023 103.507V115.409H340.117V115.409Z" fill="#034EA2"/>
<path d="M355.193 102.587V119.693C358.07 116.33 361.509 114.647 365.508 114.647C367.56 114.647 369.412 115.028 371.062 115.79C372.713 116.551 373.955 117.525 374.791 118.71C375.627 119.895 376.198 121.207 376.505 122.645C376.812 124.085 376.965 126.316 376.965 129.341V149.115H368.047V131.31C368.047 127.776 367.877 125.533 367.539 124.582C367.2 123.629 366.603 122.873 365.746 122.312C364.889 121.752 363.815 121.47 362.524 121.47C361.043 121.47 359.721 121.831 358.557 122.55C357.394 123.269 356.542 124.354 356.002 125.803C355.463 127.253 355.193 129.395 355.193 132.23V149.115H346.274V102.587H355.193V102.587Z" fill="#034EA2"/>
<path d="M405.529 138.387L414.416 139.879C413.273 143.137 411.47 145.619 409.005 147.322C406.539 149.025 403.455 149.877 399.753 149.877C393.892 149.877 389.554 147.962 386.74 144.133C384.519 141.064 383.407 137.192 383.407 132.515C383.407 126.929 384.868 122.555 387.788 119.392C390.708 116.229 394.399 114.647 398.864 114.647C403.879 114.647 407.835 116.303 410.734 119.614C413.633 122.926 415.019 127.999 414.892 134.833H392.548C392.612 137.478 393.331 139.536 394.706 141.006C396.082 142.476 397.796 143.212 399.849 143.212C401.245 143.212 402.419 142.831 403.371 142.069C404.323 141.308 405.042 140.081 405.529 138.388V138.387ZM406.037 129.374C405.974 126.793 405.308 124.83 404.038 123.486C402.769 122.143 401.224 121.47 399.403 121.47C397.457 121.47 395.849 122.18 394.579 123.597C393.31 125.015 392.686 126.941 392.707 129.374H406.037V129.374Z" fill="#034EA2"/>
<path d="M440.282 149.115V102.587H474.782V110.458H449.677V120.773H473.036V128.612H449.677V141.275H475.671V149.115H440.282H440.282Z" fill="#034EA2"/>
<path d="M505.76 149.115V144.068C504.532 145.867 502.919 147.285 500.92 148.322C498.92 149.358 496.809 149.877 494.588 149.877C492.323 149.877 490.292 149.38 488.494 148.384C486.695 147.39 485.394 145.994 484.591 144.195C483.786 142.397 483.384 139.911 483.384 136.737V115.409H492.303V130.897C492.303 135.637 492.467 138.541 492.795 139.609C493.122 140.678 493.72 141.524 494.588 142.148C495.455 142.773 496.556 143.085 497.889 143.085C499.412 143.085 500.776 142.667 501.983 141.831C503.188 140.996 504.015 139.959 504.458 138.72C504.903 137.483 505.125 134.452 505.125 129.628V115.409H514.044V149.115H505.76V149.115Z" fill="#034EA2"/>
<path d="M531.816 149.115H522.898V115.409H531.182V120.201C532.599 117.937 533.874 116.446 535.006 115.726C536.138 115.007 537.423 114.647 538.862 114.647C540.893 114.647 542.851 115.208 544.734 116.33L541.973 124.105C540.47 123.132 539.073 122.645 537.783 122.645C536.534 122.645 535.477 122.989 534.609 123.676C533.741 124.365 533.06 125.608 532.562 127.406C532.064 129.205 531.816 132.971 531.816 138.705V149.115L531.816 149.115Z" fill="#034EA2"/>
<path d="M546.512 131.786C546.512 128.824 547.241 125.957 548.702 123.185C550.161 120.413 552.229 118.297 554.906 116.838C557.583 115.377 560.571 114.647 563.872 114.647C568.972 114.647 573.15 116.303 576.409 119.614C579.667 122.925 581.297 127.11 581.297 132.167C581.297 137.266 579.651 141.493 576.361 144.846C573.071 148.2 568.93 149.877 563.937 149.877C560.847 149.877 557.9 149.178 555.097 147.782C552.293 146.385 550.161 144.339 548.702 141.64C547.241 138.943 546.512 135.658 546.512 131.786H546.512ZM555.652 132.261C555.652 135.605 556.446 138.166 558.032 139.943C559.62 141.72 561.576 142.609 563.904 142.609C566.232 142.609 568.184 141.72 569.76 139.943C571.336 138.166 572.124 135.584 572.124 132.199C572.124 128.898 571.336 126.359 569.76 124.582C568.184 122.804 566.231 121.916 563.904 121.916C561.577 121.916 559.62 122.804 558.032 124.582C556.446 126.359 555.652 128.919 555.652 132.261Z" fill="#034EA2"/>
<path d="M588.025 115.409H596.34V120.36C597.42 118.668 598.879 117.293 600.721 116.234C602.561 115.176 604.603 114.647 606.846 114.647C610.76 114.647 614.082 116.181 616.812 119.25C619.541 122.317 620.906 126.591 620.906 132.072C620.906 137.7 619.53 142.075 616.779 145.195C614.029 148.316 610.696 149.877 606.782 149.877C604.92 149.877 603.232 149.506 601.72 148.765C600.207 148.025 598.614 146.755 596.943 144.957V161.937H588.025V115.409H588.025ZM596.848 131.691C596.848 135.478 597.599 138.276 599.102 140.086C600.604 141.894 602.434 142.798 604.592 142.798C606.666 142.798 608.39 141.968 609.766 140.307C611.141 138.647 611.828 135.922 611.828 132.134C611.828 128.601 611.119 125.978 609.702 124.263C608.284 122.55 606.528 121.693 604.434 121.693C602.254 121.693 600.445 122.534 599.006 124.216C597.567 125.898 596.848 128.39 596.848 131.691L596.848 131.691Z" fill="#034EA2"/>
<path d="M647.502 138.387L656.389 139.879C655.246 143.137 653.442 145.619 650.978 147.322C648.512 149.025 645.428 149.877 641.726 149.877C635.864 149.877 631.526 147.962 628.713 144.133C626.491 141.064 625.38 137.192 625.38 132.515C625.38 126.929 626.841 122.555 629.761 119.392C632.681 116.229 636.372 114.647 640.837 114.647C645.852 114.647 649.808 116.303 652.707 119.614C655.605 122.926 656.991 127.999 656.864 134.833H634.52C634.585 137.478 635.304 139.536 636.679 141.006C638.055 142.476 639.768 143.212 641.821 143.212C643.218 143.212 644.392 142.831 645.344 142.069C646.296 141.308 647.015 140.081 647.502 138.388V138.387ZM648.01 129.374C647.946 126.793 647.28 124.83 646.011 123.486C644.741 122.143 643.196 121.47 641.376 121.47C639.43 121.47 637.821 122.18 636.552 123.597C635.282 125.015 634.658 126.941 634.68 129.374H648.01V129.374Z" fill="#034EA2"/>
<path d="M670.798 125.692L662.705 124.232C663.614 120.974 665.181 118.562 667.402 116.996C669.624 115.43 672.925 114.647 677.305 114.647C681.282 114.647 684.244 115.118 686.191 116.059C688.138 117.002 689.508 118.197 690.302 119.646C691.095 121.095 691.491 123.756 691.491 127.629L691.396 138.039C691.396 141.001 691.539 143.185 691.825 144.592C692.11 146 692.644 147.507 693.428 149.115H684.604C684.371 148.523 684.086 147.644 683.747 146.48C683.6 145.952 683.493 145.603 683.431 145.433C681.907 146.915 680.277 148.025 678.542 148.765C676.808 149.506 674.956 149.877 672.988 149.877C669.518 149.877 666.783 148.935 664.784 147.052C662.784 145.169 661.784 142.789 661.784 139.911C661.784 138.006 662.239 136.308 663.149 134.817C664.059 133.325 665.334 132.182 666.974 131.389C668.613 130.595 670.977 129.903 674.067 129.31C678.235 128.528 681.124 127.797 682.732 127.121V126.232C682.732 124.517 682.309 123.295 681.462 122.566C680.616 121.835 679.019 121.47 676.67 121.47C675.083 121.47 673.845 121.783 672.956 122.407C672.067 123.032 671.349 124.126 670.798 125.692L670.798 125.692ZM682.731 132.928C681.589 133.309 679.78 133.764 677.305 134.293C674.829 134.822 673.21 135.341 672.448 135.848C671.285 136.674 670.703 137.72 670.703 138.99C670.703 140.239 671.168 141.318 672.1 142.228C673.03 143.137 674.215 143.593 675.654 143.593C677.262 143.593 678.796 143.064 680.257 142.006C681.335 141.202 682.044 140.218 682.383 139.054C682.615 138.293 682.731 136.844 682.731 134.706V132.929V132.928Z" fill="#034EA2"/>
<path d="M730.942 149.115H722.024V131.913C722.024 128.274 721.834 125.92 721.453 124.851C721.072 123.783 720.453 122.952 719.597 122.359C718.739 121.767 717.708 121.47 716.502 121.47C714.957 121.47 713.571 121.894 712.345 122.74C711.117 123.587 710.276 124.709 709.821 126.105C709.366 127.502 709.139 130.083 709.139 133.849V149.115H700.22V115.409H708.504V120.36C711.445 116.551 715.148 114.647 719.613 114.647C721.58 114.647 723.378 115.002 725.008 115.711C726.637 116.42 727.869 117.324 728.705 118.423C729.541 119.524 730.123 120.773 730.451 122.17C730.779 123.566 730.943 125.565 730.943 128.168V149.115L730.942 149.115Z" fill="#034EA2"/>
<path d="M758.048 102.587H767.442V127.787C767.442 131.786 767.558 134.378 767.791 135.562C768.192 137.467 769.15 138.996 770.663 140.149C772.176 141.302 774.244 141.879 776.868 141.879C779.534 141.879 781.544 141.334 782.898 140.244C784.252 139.155 785.067 137.816 785.343 136.229C785.617 134.642 785.755 132.008 785.755 128.326V102.587H795.149V127.025C795.149 132.611 794.895 136.557 794.388 138.863C793.88 141.17 792.943 143.117 791.579 144.703C790.214 146.291 788.39 147.554 786.104 148.496C783.819 149.437 780.835 149.908 777.153 149.908C772.71 149.908 769.341 149.395 767.045 148.369C764.749 147.343 762.935 146.01 761.603 144.37C760.269 142.73 759.391 141.011 758.968 139.213C758.353 136.547 758.048 132.611 758.048 127.406V102.587L758.048 102.587Z" fill="#034EA2"/>
<path d="M835.647 149.115H826.729V131.913C826.729 128.274 826.538 125.92 826.157 124.851C825.776 123.783 825.157 122.952 824.301 122.359C823.443 121.767 822.412 121.47 821.206 121.47C819.661 121.47 818.275 121.894 817.049 122.74C815.821 123.587 814.98 124.709 814.526 126.105C814.07 127.502 813.843 130.083 813.843 133.849V149.115H804.924V115.409H813.208V120.36C816.149 116.551 819.852 114.647 824.317 114.647C826.284 114.647 828.082 115.002 829.712 115.711C831.341 116.42 832.573 117.324 833.409 118.423C834.245 119.524 834.827 120.773 835.156 122.17C835.483 123.566 835.647 125.565 835.647 128.168V149.115L835.647 149.115Z" fill="#034EA2"/>
<path d="M844.692 110.839V102.587H853.61V110.839H844.692ZM844.692 149.115V115.409H853.61V149.115H844.692Z" fill="#034EA2"/>
<path d="M860.688 131.786C860.688 128.824 861.418 125.957 862.879 123.185C864.338 120.413 866.406 118.297 869.083 116.838C871.76 115.377 874.748 114.647 878.049 114.647C883.148 114.647 887.327 116.303 890.586 119.614C893.844 122.925 895.474 127.11 895.474 132.167C895.474 137.266 893.828 141.493 890.538 144.846C887.248 148.2 883.106 149.877 878.113 149.877C875.023 149.877 872.077 149.178 869.273 147.782C866.47 146.385 864.338 144.339 862.879 141.64C861.418 138.943 860.689 135.658 860.689 131.786H860.688ZM869.829 132.261C869.829 135.605 870.623 138.166 872.209 139.943C873.797 141.72 875.753 142.609 878.081 142.609C880.409 142.609 882.36 141.72 883.937 139.943C885.513 138.166 886.301 135.584 886.301 132.199C886.301 128.898 885.513 126.359 883.937 124.582C882.36 122.804 880.408 121.916 878.081 121.916C875.754 121.916 873.797 122.804 872.209 124.582C870.623 126.359 869.829 128.919 869.829 132.261Z" fill="#034EA2"/>
<path d="M933.114 149.115H924.196V131.913C924.196 128.274 924.006 125.92 923.625 124.851C923.244 123.783 922.625 122.952 921.769 122.359C920.911 121.767 919.88 121.47 918.674 121.47C917.129 121.47 915.743 121.894 914.517 122.74C913.289 123.587 912.447 124.709 911.993 126.105C911.538 127.502 911.311 130.083 911.311 133.849V149.115H902.392V115.409H910.676V120.36C913.616 116.551 917.32 114.647 921.784 114.647C923.752 114.647 925.55 115.002 927.18 115.711C928.809 116.42 930.041 117.324 930.877 118.423C931.713 119.524 932.295 120.773 932.623 122.17C932.95 123.566 933.115 125.565 933.115 128.168V149.115L933.114 149.115Z" fill="#034EA2"/>
</g>
<defs>
<clipPath id="clip0_215_372">
<rect width="933.114" height="189.07" fill="white"/>
</clipPath>
</defs>
</svg>
