<svg width="800" height="1884" viewBox="0 0 800 1884" fill="none" xmlns="http://www.w3.org/2000/svg">
    <path fill-rule="evenodd" clip-rule="evenodd" d="M0 0.206055C266.64 0.206055 533.359 0.206055 800 0.206055C800 0.206055 800 1865.3 800 1878.3C798.021 1878.05 796.81 1876.79 794.5 1877.3C792.427 1877.76 790.102 1880.64 786.5 1879.3C785.137 1878.79 785.555 1877.76 783.5 1877.3C778.611 1883.72 765.713 1882.74 757 1880.8C751.679 1879.61 749.204 1883.49 745 1882.3C742.856 1881.69 742.23 1878.97 740 1879.8C737.152 1880.54 737.046 1882.15 733 1882.3C732.62 1881.83 728.857 1878.43 728.5 1878.3C725.916 1877.35 721.938 1879.29 720 1877.8C719.235 1877.21 718.018 1874.62 717.5 1873.8C714.162 1875.8 704.635 1878.51 698.5 1876.8C696.221 1876.16 694.973 1872.78 691.5 1873.8C691 1874.3 690.5 1874.8 690 1875.3C686.334 1875.3 682.666 1875.3 679 1875.3C676.646 1875.99 672.109 1877.71 670 1878.3C667.5 1877.97 665 1877.63 662.5 1877.3C658.461 1878.64 658.715 1882.18 651.5 1882.3C649.303 1879.29 647.427 1880.87 643 1879.8C642.762 1879.74 642.018 1878.72 641.5 1878.8C640.23 1879.01 639.467 1880.9 637 1880.3C634.544 1879.7 632.979 1876.87 631 1876.3C628.542 1875.6 625.047 1877.47 622.5 1875.8C621.217 1874.96 619.95 1872.45 618.5 1871.8C616.834 1871.63 615.166 1871.47 613.5 1871.3C612.834 1870.63 612.166 1869.97 611.5 1869.3C609.392 1868.73 609.076 1870.45 608 1870.8C605.5 1870.8 603 1870.8 600.5 1870.8C599.287 1871.17 598.176 1872.74 596 1872.3C593.523 1871.8 592.648 1869.49 591 1868.8C588.5 1868.97 586 1869.13 583.5 1869.3C582.847 1869.14 580.955 1867.9 580.5 1867.8C578.004 1867.23 574.029 1869.25 572.5 1869.8C570.167 1869.8 567.833 1869.8 565.5 1869.8C562.116 1870.8 557.419 1870.89 554 1871.8C551 1871.97 548 1872.13 545 1872.3C542.924 1873.11 539.666 1875.23 537.5 1875.8C532.913 1877.01 523.442 1871.28 520 1871.8C511.449 1873.1 504.805 1877.49 497 1878.8C492.428 1879.57 488.295 1876.09 483 1877.8C480.205 1878.7 479.311 1880.22 475 1880.3C474.918 1880.19 460.672 1871.35 460.5 1871.3C457.924 1870.53 450.85 1872.43 447 1871.8C445.256 1871.51 445.834 1869.77 443.5 1870.3C443 1870.8 442.5 1871.3 442 1871.8C438 1871.8 434 1871.8 430 1871.8C429.5 1872.47 429 1873.13 428.5 1873.8C425.857 1875.42 421.627 1874.55 419 1873.8C416.334 1873.8 413.666 1873.8 411 1873.8C408.152 1872.9 397.328 1869.09 395 1872.8C393.825 1874.33 394.081 1876.22 393.5 1877.3C392.91 1877.7 392.659 1877.69 391.5 1877.8C389.3 1875.68 383.601 1879.59 381.5 1878.8C380.029 1878.25 379.953 1876.91 377 1876.8C377 1877.13 377 1877.47 377 1877.8C377.376 1878.34 377.301 1878.27 377.5 1879.3C376.476 1879.66 375.163 1879.8 373.5 1879.8C372.927 1879.07 372.499 1878.7 372 1877.8C368.337 1880.69 355.6 1885.18 348 1882.8C346.379 1882.29 346.316 1880.15 343.5 1880.8C343.167 1881.13 342.833 1881.47 342.5 1881.8C338.334 1881.63 334.166 1881.47 330 1881.3C328.495 1881.91 324.433 1884.77 321 1883.8C320.5 1883.3 320 1882.8 319.5 1882.3C317 1882.13 314.5 1881.97 312 1881.8C311.5 1881.3 311 1880.8 310.5 1880.3C307.814 1879.25 305.318 1880.28 303 1879.3C301.358 1878.6 300.379 1876.82 298.5 1876.3C294.334 1876.13 290.166 1875.97 286 1875.8C285.049 1875.52 284.137 1874.06 283.5 1873.8C280.667 1873.8 277.833 1873.8 275 1873.8C273.456 1875.76 268.424 1879.03 266 1879.8C261 1879.63 256 1879.47 251 1879.3C250.667 1879.8 250.333 1880.3 250 1880.8C244.146 1883.45 235.539 1877.51 232 1875.8C229.459 1874.57 228.34 1877.35 226 1876.8C222.661 1876.02 218.59 1873.13 214.5 1872.8C210.859 1877.88 205.933 1873.05 201 1872.3C196.103 1871.56 192.704 1877.07 187 1874.8C184.368 1873.75 180.596 1870.39 175.5 1871.8C172.346 1872.67 169.228 1875.92 166 1876.8C163.085 1877.6 160.123 1875.79 158 1875.3C152.353 1874.01 149.567 1877.95 145 1876.8C142.958 1876.29 141.72 1874.48 140 1873.8C137.414 1872.77 135.393 1873.08 133 1871.8C132.333 1871.13 131.667 1870.47 131 1869.8C127 1869.8 123 1869.8 119 1869.8C118.212 1869.53 117.289 1868.06 116.5 1867.8C114.212 1867.03 100.708 1867.08 99 1867.8C97.717 1868.34 95.279 1870.32 93.5 1870.8C90.894 1871.5 89.987 1869.96 87.5 1869.8C86.515 1871.39 85.223 1872.48 84 1873.8C78.458 1873.85 73.294 1873.18 69 1872.8C67.945 1874.52 67.311 1875.21 64.5 1875.3C63.487 1874.24 63.029 1873.97 61 1873.8C60.014 1875.22 59.494 1875.31 57 1875.3C55.007 1873.33 53.357 1874.79 50 1873.8C48.147 1873.25 42.788 1868.8 40 1869.8C39.346 1870.03 37.982 1871.66 37 1871.8C34.471 1872.16 33.179 1868.23 30 1869.8C26.112 1871.72 23.286 1875.45 18 1875.8C11.278 1869.82 5.213 1876.84 0 1877.8C0 1864.97 0 0.206055 0 0.206055Z" fill="#c3c3c3" />
</svg>