<svg width="800" height="50" viewBox="0 0 800 50" fill="none" xmlns="http://www.w3.org/2000/svg">
  <g clip-path="url(#clip0_433_353)">
    <path fill-rule="evenodd" clip-rule="evenodd" d="M428 7.19997L452 2.19997L456.5 4.19997L457.5 3.19997L470 3.69997L479 1.19997L480.5 2.69997L488 3.19997L489.5 4.69997L497 5.69997L501.5 8.69997L514 9.19996L516.5 11.2L525 11.2L534 5.19996L549 5.69996L550 4.19996L568 9.19996L574 8.19996L585.5 12.2L613 10.2L624.5 13.2L634 8.19995L642 9.69995L655 8.19995L660 11.2L667 13.2L669 15.2L681 15.2L683.5 17.1999L701 17.1999L706.5 14.1999L712.5 15.1999L716 11.1999L731 12.1999L735.5 9.69995L739 11.1999L743 9.69994L760 15.1999L763 13.1999L770 15.1999L782 9.19994L800 7.19994L800 49.4999L0 49.5L-3.74169e-06 6.70001L5.5 7.70001L13.5 5.70001L16.5 7.70001L55 2.7L60 5.2L67 2.7L71.5 6.7L80 7.2L82.5 11.2L101.5 8.2L108.5 11.2L110 9.7L121 9.7L130 6.7L137.5 7.7L148.5 2.7L157 5.2L158.5 6.2L163 4.7L169 8.69999L177.5 9.19999L181.5 13.2L186.5 13.7L188.5 15.7L192 14.2L199.5 14.2L204 12.7L209 16.2L216.5 15.7L219.5 17.2L255 12.7L262.5 9.19999L280 13.2L303 6.19998L317 7.19998L325 4.69998L339.5 13.7L353 13.2L356.5 14.7L358 13.2L370 13.2L371.5 11.2L405 12.2L406.5 7.69997L418.5 6.19997L423 8.19997L428 7.19997Z" fill="#f4f3f1" />
  </g>
  <defs>
    <clipPath id="clip0_433_353">
      <rect width="800" height="49" fill="white" transform="translate(800 49.4999) rotate(180)" />
    </clipPath>
  </defs>
</svg>