<svg width="169" height="124" viewBox="0 0 169 124" fill="none" xmlns="http://www.w3.org/2000/svg">
<path d="M50.187 92.7095L33.6135 47.9889L137.86 31.7387L125.138 83.7041L50.187 92.7095Z" stroke="white"/>
<circle cx="33.6135" cy="47.9891" r="13.4116" transform="rotate(-8.35783 33.6135 47.9891)" fill="black" stroke="white"/>
<circle cx="138.353" cy="32.6016" r="13.4116" transform="rotate(-8.35783 138.353 32.6016)" fill="black" stroke="white"/>
<circle cx="140.795" cy="9.42505" r="7.35538" transform="rotate(-8.35783 140.795 9.42505)" fill="black" stroke="white"/>
<circle cx="159.318" cy="20.4329" r="7.35538" transform="rotate(-8.35783 159.318 20.4329)" fill="black" stroke="white"/>
<circle cx="115.937" cy="20.4329" r="7.35538" transform="rotate(-8.35783 115.937 20.4329)" fill="black" stroke="white"/>
<circle cx="8.91377" cy="50.2256" r="7.35538" transform="rotate(-8.35783 8.91377 50.2256)" fill="black" stroke="white"/>
<circle cx="55.8837" cy="45.4993" r="7.35538" transform="rotate(-8.35783 55.8837 45.4993)" fill="black" stroke="white"/>
<circle cx="30.8424" cy="25.2629" r="7.35538" transform="rotate(-8.35783 30.8424 25.2629)" fill="black" stroke="white"/>
<circle cx="115.695" cy="107.234" r="7.35538" transform="rotate(-8.35783 115.695 107.234)" fill="black" stroke="white"/>
<circle cx="28.7634" cy="96.9815" r="7.35538" transform="rotate(-8.35783 28.7634 96.9815)" fill="black" stroke="white"/>
<circle cx="49.3995" cy="114.809" r="7.35538" transform="rotate(-8.35783 49.3995 114.809)" fill="black" stroke="white"/>
<circle cx="133.765" cy="62.8206" r="7.35538" transform="rotate(-8.35783 133.765 62.8206)" fill="black" stroke="white"/>
<circle cx="122.567" cy="83.3372" r="13.4116" transform="rotate(-8.35783 122.567 83.3372)" fill="black" stroke="white"/>
<circle cx="144.983" cy="89.9673" r="7.35538" transform="rotate(-8.35783 144.983 89.9673)" fill="black" stroke="white"/>
<circle cx="51.4979" cy="91.4478" r="13.4116" transform="rotate(-8.35783 51.4979 91.4478)" fill="black" stroke="white"/>
</svg>
