<svg width="723" height="735" viewBox="0 0 723 735" fill="none" xmlns="http://www.w3.org/2000/svg">
<g clip-path="url(#clip0_1289_426)">
<rect width="723" height="734.18" fill="black"/>
<path d="M153.08 191.75C154.04 193.07 155.07 193.74 156.17 193.74C157.27 193.75 158.37 193.35 159.46 192.56L160.08 193.41L155.66 196.62L153 198.55L148.53 201.8L147.91 200.95C149 200.15 149.73 199.23 150.08 198.16C150.43 197.1 150.13 195.9 149.17 194.58L129.38 167.34C128.42 166.02 127.38 165.36 126.26 165.37C125.14 165.38 124.03 165.78 122.94 166.57L122.32 165.72L126.79 162.47L129.45 160.54L133.87 157.33L134.49 158.18C133.4 158.98 132.68 159.9 132.35 160.95C132.02 162 132.33 163.19 133.29 164.51L153.08 191.75ZM149.16 146.23L153.86 142.82L154.48 143.67C153.16 144.63 152.02 145.73 151.08 146.96C150.13 148.2 149.61 149.63 149.52 151.25L147.79 185.91L144.62 184.75L146.18 153.68C146.2 152.51 146.03 151.79 145.67 151.5C145.31 151.21 144.81 151.2 144.17 151.46C143.53 151.73 142.7 152.23 141.68 152.97L141.06 152.12L147.29 147.59L149.16 146.23ZM173.08 178.43C174.6 178.94 176.07 178.99 177.47 178.57C178.87 178.15 180.2 177.5 181.44 176.59L182.06 177.44L177.64 180.65L174.75 182.75L167.9 187.73L167.28 186.88C168.37 186.09 169.21 185.38 169.77 184.77C170.33 184.16 170.55 183.58 170.42 183.04C170.29 182.5 169.68 182.05 168.61 181.67L147.29 174.23L152.28 171.21L173.08 178.43Z" fill="white"/>
<path d="M195.93 167.97C192.23 170.66 188.57 171.54 184.96 170.62C181.35 169.7 177.99 167.1 174.89 162.84C171.82 158.61 170.46 154.64 170.81 150.92C171.16 147.2 173.1 144.07 176.61 141.51C179.86 139.15 182.9 138.31 185.76 138.97C188.61 139.64 191.12 141.46 193.29 144.45C194.03 145.47 194.74 146.6 195.41 147.84L178.09 160.68L177.23 159.49L191.12 148.01L190.35 149.69C189.87 148.31 189.23 147.07 188.43 145.98C187.11 144.17 185.48 142.96 183.54 142.35C181.6 141.74 179.7 142.11 177.85 143.45C175.77 144.96 174.66 147.05 174.5 149.74C174.34 152.42 175.58 155.57 178.21 159.2C181.01 163.05 183.87 165.47 186.81 166.45C189.74 167.43 192.57 166.94 195.29 164.96C196.99 163.73 198.16 162.34 198.8 160.81C199.44 159.28 199.72 157.85 199.63 156.53C199.54 155.21 199.34 154.11 199.05 153.23L199.91 152.86C200.44 153.91 200.83 155.29 201.06 157C201.29 158.71 201.05 160.56 200.33 162.55C199.63 164.54 198.16 166.35 195.93 167.97Z" fill="white"/>
<path d="M220.85 149.86C217.15 152.55 213.49 153.43 209.88 152.51C206.27 151.59 202.91 148.99 199.81 144.73C196.74 140.5 195.38 136.53 195.73 132.81C196.08 129.09 198.02 125.95 201.53 123.4C204.78 121.04 207.83 120.2 210.68 120.86C213.53 121.53 216.04 123.35 218.21 126.34C218.95 127.36 219.66 128.49 220.33 129.73L203.01 142.57L202.15 141.38L216.05 129.9L215.28 131.58C214.8 130.2 214.16 128.96 213.36 127.87C212.04 126.06 210.41 124.85 208.47 124.24C206.53 123.63 204.63 124 202.78 125.34C200.7 126.85 199.59 128.95 199.43 131.63C199.27 134.31 200.51 137.46 203.14 141.09C205.94 144.94 208.81 147.36 211.74 148.34C214.67 149.32 217.5 148.83 220.22 146.85C221.92 145.61 223.09 144.23 223.74 142.7C224.38 141.16 224.66 139.74 224.57 138.42C224.48 137.1 224.28 136 223.99 135.12L224.85 134.75C225.39 135.8 225.77 137.18 226 138.89C226.23 140.6 225.99 142.45 225.27 144.44C224.55 146.43 223.08 148.24 220.85 149.86Z" fill="white"/>
<path d="M247.97 146.34L244.8 148.64L241.06 151.36L240.48 150.57C241.39 149.91 241.96 149.12 242.21 148.19C242.46 147.26 242.13 146.17 241.22 144.93L220.65 116.61C219.74 115.36 218.81 114.72 217.85 114.66C216.89 114.61 215.96 114.91 215.05 115.57L214.47 114.78L218.21 112.06L221.38 109.76L247.97 146.34ZM226.06 116.31C224.97 114.1 224.62 111.82 224.99 109.48C225.36 107.13 226.78 105.07 229.23 103.29C232.1 101.21 235.12 100.54 238.29 101.29C241.46 102.04 244.82 104.85 248.35 109.73C251.86 114.56 253.48 118.59 253.2 121.82C252.92 125.05 251.35 127.71 248.48 129.79C246.06 131.55 243.66 132.19 241.28 131.73C238.9 131.27 236.76 130.17 234.86 128.43L233.33 129.54L224.52 117.42L226.06 116.31ZM246.22 128.57C248.37 127.01 249.3 124.92 248.99 122.32C248.69 119.72 247.13 116.49 244.34 112.64C241.51 108.75 238.89 106.26 236.48 105.16C234.07 104.06 231.8 104.28 229.69 105.81C228.44 106.71 227.55 107.97 227.01 109.57C226.47 111.17 226.47 113.08 227.01 115.28C227.55 117.49 228.77 119.91 230.69 122.55C232.58 125.15 234.49 127.05 236.41 128.22C238.33 129.39 240.13 129.97 241.82 129.95C243.51 129.94 244.98 129.48 246.22 128.57Z" fill="white"/>
<path d="M179.89 253.18L175.42 256.43L174.8 255.58C175.9 254.78 176.62 253.86 176.97 252.79C177.32 251.73 177.02 250.53 176.06 249.21L156.27 221.97C155.31 220.65 154.27 219.99 153.15 220C152.03 220.01 150.92 220.41 149.83 221.2L149.21 220.35L153.68 217.1L156.97 214.71L183.18 250.78L179.89 253.18ZM184.96 245.87C189.49 242.58 192.08 238.68 192.73 234.17C193.38 229.66 191.82 224.82 188.06 219.65C184.33 214.52 180.22 211.56 175.73 210.78C171.24 210 166.73 211.26 162.2 214.55L157.78 217.76L156.05 215.38L161.49 211.43C166.96 207.45 172.39 205.86 177.76 206.66C183.13 207.46 187.94 210.79 192.19 216.64C196.47 222.53 198.16 228.15 197.26 233.51C196.36 238.87 193.18 243.53 187.7 247.51L182.26 251.46L180.53 249.08L184.96 245.87Z" fill="white"/>
<path d="M201.7 197.45C204.12 195.69 206.59 194.78 209.13 194.69C211.67 194.61 214.09 195.25 216.42 196.62C218.74 197.99 220.82 199.94 222.66 202.47C224.5 205 225.71 207.58 226.29 210.21C226.88 212.84 226.74 215.35 225.87 217.74C225.01 220.13 223.37 222.2 220.95 223.95C217.33 226.58 213.64 227.39 209.89 226.36C206.14 225.33 202.85 222.86 199.99 218.93C198.15 216.4 196.94 213.82 196.36 211.19C195.77 208.56 195.91 206.05 196.78 203.66C197.64 201.28 199.28 199.21 201.7 197.45ZM219.59 222.09C222.08 220.28 223.16 217.89 222.83 214.94C222.5 211.98 221.1 208.8 218.63 205.4C216.19 202.04 213.6 199.74 210.88 198.48C208.16 197.23 205.55 197.51 203.05 199.32C200.56 201.13 199.49 203.53 199.83 206.5C200.18 209.48 201.57 212.65 204.01 216.01C206.48 219.41 209.07 221.72 211.78 222.96C214.5 224.19 217.1 223.9 219.59 222.09Z" fill="white"/>
<path d="M212.29 177.73L213.29 171.72L219.25 172.67L218.39 178.75L212.29 177.73ZM239.4 203.63C240.31 204.88 241.23 205.53 242.17 205.6C243.11 205.67 244.04 205.37 244.94 204.71L245.52 205.5L241.84 208.17L239.18 210.1L235.5 212.77L234.92 211.98C235.83 211.32 236.4 210.53 236.65 209.6C236.9 208.67 236.57 207.58 235.66 206.34L223.07 189.01C222.17 187.76 221.23 187.12 220.27 187.06C219.31 187.01 218.38 187.31 217.47 187.97L216.89 187.18L220.57 184.51L223.8 182.16L239.4 203.63Z" fill="white"/>
<path d="M253.17 193.63C254.08 194.88 255 195.53 255.94 195.6C256.88 195.67 257.82 195.36 258.77 194.67L259.35 195.46L255.67 198.13L253.01 200.06L249.27 202.78L248.69 201.99C249.6 201.33 250.17 200.54 250.42 199.61C250.67 198.68 250.34 197.59 249.43 196.35L236.84 179.02C235.93 177.77 235 177.13 234.04 177.07C233.08 177.02 232.15 177.32 231.24 177.98L230.66 177.19L234.4 174.47L237.57 172.17L253.17 193.63ZM248.76 187.57L247.29 188.64L241.08 180.09L242.72 178.9C241.64 176.62 241.28 174.25 241.62 171.78C241.96 169.31 243.26 167.25 245.53 165.61C247.98 163.83 250.36 163.26 252.64 163.9C254.93 164.55 257.11 166.3 259.2 169.17L268.75 182.31C269.66 183.56 270.58 184.21 271.52 184.28C272.46 184.35 273.39 184.05 274.29 183.39L274.87 184.18L271.19 186.85L268.53 188.78L264.79 191.5L264.21 190.71C265.12 190.05 265.69 189.26 265.94 188.33C266.19 187.4 265.86 186.31 264.95 185.07L255.82 172.5C253.95 169.93 252.24 168.31 250.68 167.63C249.12 166.95 247.49 167.22 245.79 168.46C243.67 170 242.77 172.37 243.08 175.57C243.39 178.77 245.28 182.77 248.76 187.57Z" fill="white"/>
<path d="M282.96 165.32C280.92 166.8 278.89 167.68 276.88 167.96C274.86 168.24 273.01 167.97 271.32 167.16C269.63 166.34 268.18 165.1 266.97 163.44C265.79 161.82 265.07 160.07 264.82 158.21C264.56 156.35 264.88 154.5 265.77 152.67C266.66 150.84 268.13 149.18 270.17 147.7C272.13 146.27 274.13 145.49 276.16 145.34L277.49 145.5C278.83 145.28 280.34 145.51 282.02 146.19C283.7 146.87 285.18 148.1 286.47 149.88C287.57 151.39 288.22 153.06 288.43 154.9C288.64 156.74 288.28 158.57 287.36 160.39C286.42 162.23 284.96 163.87 282.96 165.32ZM281.6 163.45C283.45 162.11 284.4 160.44 284.45 158.44C284.5 156.44 283.77 154.41 282.26 152.33C280.78 150.29 279.07 148.98 277.15 148.39C275.22 147.8 273.33 148.18 271.48 149.52C269.67 150.84 268.75 152.5 268.74 154.5C268.73 156.5 269.46 158.52 270.94 160.56C272.48 162.68 274.18 164.02 276.04 164.6C277.89 165.18 279.75 164.8 281.6 163.45ZM277.52 147.12L272.51 146.78L283.38 138.88L283.87 139.56L277.52 147.12ZM297.16 182.6C294.4 184.6 291.83 185.91 289.42 186.54C287.02 187.16 284.9 187.14 283.07 186.49C281.24 185.83 279.81 184.64 278.78 182.9L283.97 173.25L284.66 173.36L282.61 180.9C283.3 182.25 284.33 183.17 285.7 183.67C287.07 184.17 288.64 184.2 290.4 183.76C292.16 183.32 293.9 182.47 295.64 181.21C298.17 179.37 299.75 177.48 300.37 175.52C301 173.56 300.75 171.81 299.62 170.26C297.65 167.54 294.82 167.43 291.15 169.92L284.42 174.46C282.21 175.95 280.17 176.55 278.29 176.27C276.41 175.99 274.97 174.92 273.96 173.05L278.12 166.74L278.83 167L277.45 171.29C278.06 172.06 278.88 172.36 279.89 172.2C280.9 172.04 282.43 171.28 284.49 169.9L290.32 166.01C292.78 164.39 295.09 163.64 297.24 163.75C299.4 163.86 301.21 164.93 302.69 166.97C304.34 169.24 304.68 171.79 303.71 174.62C302.74 177.48 300.56 180.14 297.16 182.6Z" fill="white"/>
<path d="M55.66 463.84H51.6H46.07V462.79C47.42 462.79 48.56 462.46 49.47 461.81C50.38 461.16 50.84 460.01 50.84 458.38V424.71C50.84 423.08 50.38 421.93 49.47 421.28C48.56 420.63 47.43 420.3 46.07 420.3V419.25H51.6H54.89H60.35V420.3C59 420.3 57.88 420.63 56.99 421.28C56.1 421.93 55.66 423.08 55.66 424.71V463.84ZM69.73 460.9C71.36 460.9 72.66 460.33 73.62 459.19C74.58 458.05 75.26 456.61 75.68 454.88L76.73 455.16L74.91 461.88L74.42 463.84H54.89V460.9H69.73Z" fill="white"/>
<path d="M93.88 464.33C89.31 464.33 85.83 462.89 83.45 460.03C81.07 457.16 79.88 453.09 79.88 447.82C79.88 442.59 81.12 438.58 83.59 435.78C86.06 432.98 89.47 431.58 93.81 431.58C97.82 431.58 100.79 432.69 102.7 434.9C104.61 437.12 105.57 440.07 105.57 443.76C105.57 445.02 105.48 446.35 105.29 447.75L83.73 447.96V446.49L101.72 445.37L100.11 446.28C100.53 444.88 100.74 443.5 100.74 442.15C100.74 439.91 100.13 437.97 98.92 436.34C97.71 434.71 95.96 433.89 93.67 433.89C91.1 433.89 88.97 434.93 87.26 437C85.56 439.08 84.71 442.36 84.71 446.84C84.71 451.6 85.61 455.24 87.41 457.76C89.21 460.28 91.79 461.54 95.14 461.54C97.24 461.54 99 461.11 100.43 460.25C101.85 459.39 102.92 458.4 103.62 457.28C104.32 456.16 104.81 455.16 105.09 454.27L106 454.48C105.81 455.65 105.31 456.99 104.5 458.5C103.68 460.02 102.4 461.37 100.65 462.56C98.9 463.75 96.63 464.33 93.88 464.33Z" fill="white"/>
<path d="M127.2 446.2C129.67 446.99 131.47 448.09 132.59 449.49C133.71 450.89 134.27 452.73 134.27 455.02C134.27 458.61 133.17 461.06 130.98 462.37C128.79 463.68 126.08 464.33 122.86 464.33C120.06 464.33 117.7 463.83 115.79 462.82C113.88 461.82 112.41 460.64 111.38 459.29V449.49H112.15C112.66 453.5 113.83 456.59 115.65 458.76C117.47 460.93 119.85 462.01 122.79 462.01C125.08 462.01 126.85 461.48 128.11 460.44C129.37 459.39 130 457.86 130 455.85C130 454.45 129.6 453.28 128.81 452.35C128.02 451.42 126.66 450.65 124.75 450.04L118.73 448.15C116.54 447.4 114.87 446.38 113.73 445.07C112.59 443.76 112.02 442.06 112.02 439.96C112.02 437.67 112.93 435.7 114.75 434.04C116.57 432.38 119.25 431.56 122.8 431.56C124.76 431.56 126.68 431.86 128.57 432.47C130.46 433.08 132.01 433.89 133.23 434.92L133.79 443.46H132.95C132.02 440.15 130.74 437.72 129.14 436.18C127.53 434.64 125.47 433.87 122.94 433.87C120.98 433.87 119.38 434.37 118.15 435.37C116.91 436.37 116.3 437.65 116.3 439.18C116.3 440.44 116.65 441.44 117.35 442.19C118.05 442.94 119.22 443.57 120.85 444.08L127.2 446.2Z" fill="white"/>
<path d="M156.59 446.2C159.06 446.99 160.86 448.09 161.98 449.49C163.1 450.89 163.66 452.73 163.66 455.02C163.66 458.61 162.56 461.06 160.37 462.37C158.18 463.68 155.47 464.33 152.25 464.33C149.45 464.33 147.09 463.83 145.18 462.82C143.27 461.82 141.8 460.64 140.77 459.29V449.49H141.54C142.05 453.5 143.22 456.59 145.04 458.76C146.86 460.93 149.24 462.01 152.18 462.01C154.47 462.01 156.24 461.48 157.5 460.44C158.76 459.39 159.39 457.86 159.39 455.85C159.39 454.45 158.99 453.28 158.2 452.35C157.41 451.42 156.05 450.65 154.14 450.04L148.12 448.15C145.93 447.4 144.26 446.38 143.12 445.07C141.98 443.76 141.41 442.06 141.41 439.96C141.41 437.67 142.32 435.7 144.14 434.04C145.96 432.38 148.64 431.56 152.19 431.56C154.15 431.56 156.07 431.86 157.96 432.47C159.85 433.08 161.4 433.89 162.62 434.92L163.18 443.46H162.34C161.41 440.15 160.13 437.72 158.53 436.18C156.92 434.64 154.86 433.87 152.33 433.87C150.37 433.87 148.77 434.37 147.54 435.37C146.3 436.37 145.69 437.65 145.69 439.18C145.69 440.44 146.04 441.44 146.74 442.19C147.44 442.94 148.61 443.57 150.24 444.08L156.59 446.2Z" fill="white"/>
<path d="M93.53 478.55C97.82 478.55 101.45 479.52 104.41 481.46C107.37 483.4 109.6 486.06 111.1 489.44C112.59 492.82 113.34 496.71 113.34 501.09C113.34 505.48 112.59 509.43 111.1 512.96C109.61 516.48 107.38 519.26 104.41 521.29C101.45 523.32 97.82 524.33 93.53 524.33C89.24 524.33 85.61 523.31 82.65 521.29C79.69 519.26 77.46 516.48 75.97 512.96C74.48 509.44 73.73 505.48 73.73 501.09C73.73 496.7 74.46 492.82 75.94 489.44C77.41 486.06 79.64 483.4 82.62 481.46C85.59 479.52 89.23 478.55 93.53 478.55ZM93.53 521.88C96.61 521.88 99.26 520.98 101.48 519.19C103.7 517.39 105.36 514.92 106.48 511.77C107.6 508.62 108.16 505.06 108.16 501.1C108.16 497.18 107.6 493.7 106.48 490.67C105.36 487.64 103.69 485.27 101.48 483.56C99.26 481.86 96.61 481.01 93.53 481.01C90.4 481.01 87.74 481.86 85.55 483.56C83.36 485.26 81.69 487.63 80.55 490.67C79.41 493.7 78.83 497.18 78.83 501.1C78.83 505.07 79.4 508.63 80.55 511.77C81.69 514.92 83.36 517.39 85.55 519.19C87.74 520.99 90.4 521.88 93.53 521.88Z" fill="white"/>
<path d="M123.42 495.7L116.42 494.02V492.2H123.42V495.7ZM121.95 523.84H117.33V522.86C118.45 522.86 119.38 522.56 120.13 521.95C120.88 521.34 121.25 520.27 121.25 518.73V493.11L121.88 492.69L121.25 488.77C121.25 485.46 122.25 482.93 124.26 481.18C126.27 479.43 128.83 478.56 131.96 478.56C133.87 478.56 135.67 478.89 137.35 479.54C139.03 480.19 140.43 481.34 141.55 482.97L136.44 486.4L136.09 486.12C136.28 485.66 136.37 485.21 136.37 484.79C136.37 483.76 135.94 482.84 135.08 482.03C134.22 481.21 133.08 480.81 131.69 480.81C129.82 480.81 128.39 481.4 127.38 482.59C126.38 483.78 125.88 485.59 125.88 488.02V518.75C125.88 520.29 126.24 521.36 126.96 521.97C127.68 522.58 128.63 522.88 129.79 522.88V523.86H125.24H121.95V523.84ZM130.7 492.2H136.72V495H125.45V493.46L130.7 492.2Z" fill="white"/>
<path d="M323.1 625.75C326.6 627.01 329.19 628.56 330.87 630.41C332.55 632.25 333.39 634.76 333.39 637.93C333.39 642.69 331.97 646.03 329.12 647.94C326.27 649.85 322.52 650.81 317.85 650.81C313.93 650.81 310.63 650.13 307.94 648.78C305.25 647.43 303.22 645.72 301.82 643.67V630.02H302.73C302.87 633.66 303.56 636.86 304.8 639.61C306.04 642.36 307.8 644.5 310.08 646.01C312.37 647.53 315.03 648.29 318.06 648.29C321.37 648.29 323.94 647.46 325.76 645.8C327.58 644.14 328.49 642.01 328.49 639.39C328.49 637.24 327.92 635.43 326.78 633.97C325.64 632.5 323.83 631.35 321.36 630.51L311.35 626.94C308.55 625.96 306.46 624.66 305.08 623.05C303.7 621.44 303.02 619.23 303.02 616.44C303.02 614.43 303.56 612.58 304.63 610.87C305.7 609.17 307.38 607.77 309.67 606.67C311.96 605.57 314.76 605.03 318.07 605.03C320.78 605.03 323.28 605.43 325.6 606.22C327.91 607.01 329.9 608.18 331.58 609.72L332.14 621.76H331.23C330.53 616.95 329.12 613.36 326.99 610.98C324.87 608.6 321.89 607.41 318.07 607.41C314.76 607.41 312.23 608.17 310.48 609.69C308.73 611.21 307.86 613.18 307.86 615.61C307.86 617.06 308.28 618.34 309.12 619.46C309.96 620.58 311.31 621.47 313.18 622.12L323.1 625.75Z" fill="white"/>
<path d="M346.06 641.57C346.06 643.72 346.49 645.28 347.36 646.26C348.22 647.24 349.45 647.73 351.03 647.73C352.43 647.73 353.51 647.35 354.28 646.58C355.05 645.81 355.57 644.87 355.86 643.74H356.7C356.51 645.65 355.86 647.31 354.74 648.71C353.62 650.11 351.85 650.81 349.42 650.81C346.76 650.81 344.76 650.03 343.43 648.47C342.1 646.91 341.44 644.68 341.44 641.79V621.49H336.82V619.6C339.43 619.09 341.37 617.99 342.63 616.31C343.89 614.63 344.66 612.16 344.94 608.89H346.06V641.57ZM350.68 618.68H356.7V621.48H345.43V619.94L350.68 618.68Z" fill="white"/>
<path d="M373.5 618.05C376.49 618.05 379.03 618.76 381.13 620.18C383.23 621.6 384.82 623.55 385.89 626.03C386.96 628.51 387.5 631.3 387.5 634.43C387.5 637.56 386.96 640.36 385.89 642.83C384.82 645.3 383.23 647.25 381.13 648.68C379.03 650.1 376.49 650.81 373.5 650.81C369.02 650.81 365.57 649.29 363.14 646.26C360.71 643.23 359.5 639.28 359.5 634.43C359.5 631.3 360.04 628.5 361.11 626.03C362.18 623.56 363.77 621.61 365.87 620.18C367.97 618.77 370.51 618.05 373.5 618.05ZM373.5 648.5C376.58 648.5 378.86 647.2 380.33 644.61C381.8 642.02 382.54 638.63 382.54 634.43C382.54 630.28 381.8 626.89 380.33 624.28C378.86 621.67 376.58 620.36 373.5 620.36C370.42 620.36 368.15 621.67 366.67 624.28C365.2 626.89 364.46 630.28 364.46 634.43C364.46 638.63 365.2 642.02 366.67 644.61C368.15 647.21 370.42 648.5 373.5 648.5Z" fill="white"/>
<path d="M399.4 663.9H395.48H390.86V662.92C391.98 662.92 392.91 662.62 393.66 662.01C394.41 661.4 394.78 660.33 394.78 658.79V623.79C394.78 622.25 394.41 621.18 393.66 620.57C392.91 619.96 391.98 619.66 390.86 619.66V618.68H395.48H399.4V663.9ZM399.33 626.73C399.75 624.3 400.8 622.25 402.48 620.57C404.16 618.89 406.52 618.05 409.55 618.05C413.1 618.05 415.93 619.29 418.05 621.76C420.17 624.23 421.23 628.48 421.23 634.5C421.23 640.47 420.17 644.68 418.05 647.13C415.93 649.58 413.09 650.8 409.55 650.8C406.56 650.8 404.24 649.91 402.59 648.14C400.93 646.37 399.85 644.22 399.33 641.7H397.44V626.73H399.33ZM408.43 648.5C411.09 648.5 413.06 647.36 414.35 645.07C415.63 642.78 416.27 639.26 416.27 634.5C416.27 629.69 415.62 626.13 414.31 623.83C413 621.52 411.04 620.37 408.43 620.37C406.89 620.37 405.43 620.86 404.05 621.84C402.67 622.82 401.55 624.36 400.69 626.46C399.83 628.56 399.4 631.24 399.4 634.51C399.4 637.73 399.83 640.38 400.69 642.45C401.55 644.53 402.67 646.06 404.05 647.04C405.43 648.01 406.89 648.5 408.43 648.5Z" fill="white"/>
<path d="M289.22 710.32H283.69V709.27C285.04 709.27 286.18 708.94 287.09 708.29C288 707.64 288.46 706.49 288.46 704.86V671.19C288.46 669.56 288 668.41 287.09 667.76C286.18 667.11 285.05 666.78 283.69 666.78V665.73H289.22H293.28V710.32H289.22ZM297.62 707.38C303.22 707.38 307.61 705.75 310.78 702.48C313.95 699.21 315.54 694.38 315.54 687.99C315.54 681.64 313.95 676.84 310.78 673.57C307.61 670.3 303.22 668.67 297.62 668.67H292.16V665.73H298.88C305.65 665.73 310.97 667.63 314.84 671.44C318.71 675.24 320.65 680.76 320.65 687.99C320.65 695.27 318.71 700.81 314.84 704.61C310.97 708.41 305.65 710.32 298.88 710.32H292.16V707.38H297.62Z" fill="white"/>
<path d="M339.62 678.05C342.61 678.05 345.15 678.76 347.25 680.18C349.35 681.6 350.94 683.55 352.01 686.03C353.08 688.51 353.62 691.3 353.62 694.43C353.62 697.56 353.08 700.36 352.01 702.83C350.94 705.3 349.35 707.25 347.25 708.68C345.15 710.1 342.61 710.81 339.62 710.81C335.14 710.81 331.69 709.29 329.26 706.26C326.83 703.23 325.62 699.28 325.62 694.43C325.62 691.3 326.16 688.5 327.23 686.03C328.3 683.56 329.89 681.61 331.99 680.18C334.09 678.77 336.63 678.05 339.62 678.05ZM339.62 708.5C342.7 708.5 344.98 707.2 346.45 704.61C347.92 702.02 348.66 698.63 348.66 694.43C348.66 690.28 347.92 686.89 346.45 684.28C344.98 681.67 342.7 680.36 339.62 680.36C336.54 680.36 334.27 681.67 332.79 684.28C331.32 686.89 330.58 690.28 330.58 694.43C330.58 698.63 331.32 702.02 332.79 704.61C334.27 707.21 336.54 708.5 339.62 708.5Z" fill="white"/>
<path d="M366.5 705.21C366.5 706.75 366.86 707.82 367.58 708.43C368.3 709.04 369.23 709.34 370.34 709.34V710.32H365.79H362.5H357.95V709.34C359.07 709.34 360 709.04 360.75 708.43C361.5 707.82 361.87 706.75 361.87 705.21V683.79C361.87 682.25 361.5 681.18 360.75 680.57C360 679.96 359.07 679.66 357.95 679.66V678.68H362.5H366.49V705.21H366.5ZM359.78 668.32L364.12 664.05L368.39 668.32L364.12 672.73L359.78 668.32Z" fill="white"/>
<path d="M383.51 705.21C383.51 706.75 383.87 707.82 384.59 708.43C385.31 709.04 386.26 709.34 387.42 709.34V710.32H382.87H379.58H374.96V709.34C376.08 709.34 377.01 709.04 377.76 708.43C378.51 707.82 378.88 706.75 378.88 705.21V683.79C378.88 682.25 378.51 681.18 377.76 680.57C377.01 679.96 376.08 679.66 374.96 679.66V678.68H379.58H383.5V705.21H383.51ZM383.51 697.72H381.69V687.15H383.72C384.19 684.68 385.28 682.54 387.01 680.75C388.74 678.95 391 678.05 393.8 678.05C396.83 678.05 399.09 678.98 400.55 680.85C402.02 682.72 402.76 685.42 402.76 688.97V705.21C402.76 706.75 403.12 707.82 403.84 708.43C404.56 709.04 405.49 709.34 406.6 709.34V710.32H402.05H398.76H394.14V709.34C395.26 709.34 396.19 709.04 396.94 708.43C397.69 707.82 398.06 706.75 398.06 705.21V689.67C398.06 686.5 397.63 684.17 396.76 682.7C395.9 681.23 394.42 680.5 392.32 680.5C389.71 680.5 387.58 681.89 385.95 684.67C384.33 687.45 383.51 691.8 383.51 697.72Z" fill="white"/>
<path d="M425.58 722.15C422.17 722.15 419.32 721.69 417 720.78C414.69 719.87 412.99 718.61 411.89 717C410.79 715.39 410.34 713.58 410.52 711.57L420.39 706.81L420.88 707.3L414.79 712.2C414.56 713.69 414.85 715.05 415.67 716.26C416.49 717.47 417.73 718.42 419.41 719.09C421.09 719.77 423 720.11 425.15 720.11C428.28 720.11 430.67 719.5 432.32 718.29C433.98 717.08 434.81 715.51 434.81 713.6C434.81 710.24 432.59 708.49 428.16 708.35L420.04 708.07C417.38 707.98 415.37 707.27 414.02 705.94C412.67 704.61 412.13 702.9 412.41 700.8L419.48 698.14L419.9 698.77L416.26 701.43C416.31 702.41 416.78 703.13 417.69 703.6C418.6 704.07 420.29 704.35 422.77 704.44L429.77 704.72C432.71 704.86 435.02 705.61 436.7 706.96C438.38 708.31 439.22 710.25 439.22 712.77C439.22 715.57 437.99 717.83 435.55 719.56C433.1 721.29 429.78 722.15 425.58 722.15ZM424.25 699.82C421.73 699.82 419.57 699.34 417.78 698.39C415.98 697.43 414.64 696.13 413.75 694.47C412.86 692.81 412.42 690.96 412.42 688.9C412.42 686.89 412.86 685.06 413.75 683.41C414.64 681.76 415.98 680.45 417.78 679.49C419.58 678.53 421.74 678.05 424.25 678.05C426.68 678.05 428.75 678.59 430.48 679.66L431.46 680.57C432.67 681.18 433.76 682.25 434.71 683.79C435.67 685.33 436.15 687.2 436.15 689.39C436.15 691.26 435.69 693 434.78 694.6C433.87 696.21 432.51 697.48 430.69 698.42C428.87 699.36 426.72 699.82 424.25 699.82ZM424.25 697.51C426.54 697.51 428.29 696.72 429.5 695.13C430.71 693.54 431.32 691.47 431.32 688.9C431.32 686.38 430.71 684.32 429.5 682.7C428.29 681.09 426.54 680.29 424.25 680.29C422.01 680.29 420.29 681.09 419.11 682.7C417.92 684.31 417.32 686.38 417.32 688.9C417.32 691.51 417.9 693.6 419.07 695.17C420.23 696.73 421.96 697.51 424.25 697.51ZM430.55 681.9L426.7 678.68H440.14V679.52L430.55 681.9Z" fill="white"/>
<path d="M571.02 439.27C574.52 440.53 577.11 442.08 578.79 443.93C580.47 445.77 581.31 448.28 581.31 451.45C581.31 456.21 579.89 459.55 577.04 461.46C574.19 463.37 570.44 464.33 565.77 464.33C561.85 464.33 558.55 463.65 555.86 462.3C553.18 460.95 551.14 459.24 549.74 457.19V443.54H550.65C550.79 447.18 551.48 450.38 552.72 453.13C553.96 455.88 555.72 458.02 558 459.54C560.29 461.06 562.95 461.82 565.98 461.82C569.29 461.82 571.86 460.99 573.68 459.33C575.5 457.67 576.41 455.54 576.41 452.93C576.41 450.78 575.84 448.97 574.7 447.5C573.56 446.03 571.75 444.88 569.28 444.04L559.27 440.47C556.47 439.49 554.38 438.2 553 436.58C551.62 434.97 550.94 432.77 550.94 429.97C550.94 427.96 551.48 426.11 552.55 424.4C553.62 422.7 555.3 421.3 557.59 420.2C559.88 419.1 562.68 418.55 565.99 418.55C568.7 418.55 571.2 418.95 573.52 419.74C575.83 420.53 577.82 421.7 579.5 423.24L580.06 435.28H579.15C578.45 430.48 577.04 426.88 574.91 424.5C572.79 422.12 569.81 420.93 565.99 420.93C562.68 420.93 560.15 421.69 558.4 423.21C556.65 424.73 555.78 426.7 555.78 429.12C555.78 430.57 556.2 431.85 557.04 432.97C557.88 434.09 559.23 434.98 561.1 435.63L571.02 439.27Z" fill="white"/>
<path d="M593.98 455.09C593.98 457.24 594.41 458.8 595.28 459.78C596.14 460.76 597.37 461.25 598.95 461.25C600.35 461.25 601.43 460.87 602.2 460.09C602.97 459.32 603.49 458.38 603.78 457.26H604.62C604.43 459.17 603.78 460.83 602.66 462.23C601.54 463.63 599.77 464.33 597.34 464.33C594.68 464.33 592.68 463.55 591.35 461.98C590.02 460.42 589.36 458.19 589.36 455.3V435H584.74V433.11C587.35 432.6 589.29 431.5 590.55 429.82C591.81 428.14 592.58 425.67 592.86 422.4H593.98V455.09ZM598.6 432.2H604.62V435H593.35V433.46L598.6 432.2Z" fill="white"/>
<path d="M629.05 463.84V454.11H628.77C628.07 457.05 626.9 459.49 625.27 461.43C623.64 463.37 621.28 464.34 618.2 464.34C615.54 464.34 613.44 463.46 611.9 461.72C610.36 459.98 609.59 457.2 609.59 453.43C609.59 451.61 609.78 449.74 610.15 447.83L630.59 445.87V447.13L614.63 449.72C614.35 450.89 614.21 452.24 614.21 453.78C614.21 456.25 614.67 458.14 615.58 459.45C616.49 460.76 617.9 461.41 619.82 461.41C622.01 461.41 623.8 460.57 625.17 458.89C626.55 457.21 627.53 455.1 628.11 452.56C628.69 450.02 628.99 447.3 628.99 444.4C628.99 441.23 628.42 438.68 627.28 436.77C626.14 434.86 624.14 433.9 621.29 433.9C619.05 433.9 617.36 434.46 616.21 435.58C615.07 436.7 614.5 438.05 614.5 439.64C614.5 440.29 614.59 440.88 614.78 441.39C614.97 441.9 615.22 442.26 615.55 442.44V442.72L610.72 443.21C610.35 442.32 610.16 441.39 610.16 440.41C610.16 437.98 611.12 435.91 613.03 434.18C614.94 432.45 617.81 431.59 621.64 431.59C625.05 431.59 627.6 432.34 629.31 433.83C631.01 435.32 632.11 437.13 632.6 439.25C633.09 441.37 633.34 443.84 633.34 446.63V458.74C633.34 460.28 633.7 461.35 634.42 461.96C635.14 462.57 636.09 462.87 637.25 462.87V463.85H632.7H629.05V463.84Z" fill="white"/>
<path d="M649.84 458.73C649.84 460.27 650.2 461.34 650.92 461.95C651.64 462.56 652.59 462.86 653.75 462.86V463.84H649.2H645.91H641.29V462.86C642.41 462.86 643.34 462.56 644.09 461.95C644.84 461.34 645.21 460.27 645.21 458.73V437.31C645.21 435.77 644.84 434.7 644.09 434.09C643.34 433.48 642.41 433.18 641.29 433.18V432.2H645.91H649.83V458.73H649.84ZM650.05 443.47C650.47 440.48 651.47 437.79 653.06 435.39C654.65 432.99 656.77 431.78 659.43 431.78C660.6 431.78 661.65 431.99 662.58 432.41C663.51 432.83 664.19 433.37 664.61 434.02L662.72 439.41L662.3 439.27C662.39 438.24 662.07 437.36 661.32 436.61C660.57 435.86 659.5 435.49 658.1 435.49C655.67 435.49 653.69 436.95 652.15 439.87C650.61 442.79 649.84 447.65 649.84 454.46H648.72V443.47H650.05Z" fill="white"/>
<path d="M677.07 455.09C677.07 457.24 677.5 458.8 678.37 459.78C679.23 460.76 680.46 461.25 682.04 461.25C683.44 461.25 684.52 460.87 685.29 460.09C686.06 459.32 686.58 458.38 686.87 457.26H687.71C687.52 459.17 686.87 460.83 685.75 462.23C684.63 463.63 682.86 464.33 680.43 464.33C677.77 464.33 675.77 463.55 674.44 461.98C673.11 460.42 672.45 458.19 672.45 455.3V435H667.83V433.11C670.44 432.6 672.38 431.5 673.64 429.82C674.9 428.14 675.67 425.67 675.95 422.4H677.07V455.09ZM681.69 432.2H687.71V435H676.44V433.46L681.69 432.2Z" fill="white"/>
<path d="M545.89 523.84H540.36V522.79C541.71 522.79 542.85 522.46 543.76 521.81C544.67 521.16 545.13 520.01 545.13 518.38V484.71C545.13 483.08 544.67 481.93 543.76 481.28C542.85 480.63 541.72 480.3 540.36 480.3V479.25H545.89H549.95V523.84H545.89ZM554.29 520.9C559.89 520.9 564.28 519.27 567.45 516C570.62 512.73 572.21 507.9 572.21 501.51C572.21 495.16 570.62 490.36 567.45 487.09C564.28 483.82 559.89 482.19 554.29 482.19H548.83V479.25H555.55C562.32 479.25 567.64 481.15 571.51 484.96C575.38 488.76 577.32 494.28 577.32 501.51C577.32 508.79 575.38 514.33 571.51 518.13C567.64 521.93 562.32 523.84 555.55 523.84H548.83V520.9H554.29Z" fill="white"/>
<path d="M596.29 491.57C599.28 491.57 601.82 492.28 603.92 493.7C606.02 495.12 607.61 497.07 608.68 499.54C609.75 502.01 610.29 504.81 610.29 507.94C610.29 511.07 609.75 513.87 608.68 516.34C607.61 518.81 606.02 520.76 603.92 522.19C601.82 523.61 599.28 524.32 596.29 524.32C591.81 524.32 588.36 522.8 585.93 519.77C583.5 516.74 582.29 512.79 582.29 507.94C582.29 504.82 582.83 502.01 583.9 499.54C584.97 497.07 586.56 495.12 588.66 493.7C590.76 492.28 593.3 491.57 596.29 491.57ZM596.29 522.02C599.37 522.02 601.65 520.73 603.12 518.14C604.59 515.55 605.33 512.16 605.33 507.95C605.33 503.8 604.59 500.41 603.12 497.8C601.65 495.19 599.37 493.88 596.29 493.88C593.21 493.88 590.94 495.19 589.46 497.8C587.99 500.41 587.25 503.8 587.25 507.95C587.25 512.15 587.99 515.55 589.46 518.14C590.93 520.73 593.21 522.02 596.29 522.02Z" fill="white"/>
<path d="M623.17 518.73C623.17 520.27 623.53 521.34 624.25 521.95C624.97 522.56 625.9 522.86 627.01 522.86V523.84H622.46H619.17H614.62V522.86C615.74 522.86 616.67 522.56 617.42 521.95C618.17 521.34 618.54 520.27 618.54 518.73V497.31C618.54 495.77 618.17 494.7 617.42 494.09C616.67 493.48 615.74 493.18 614.62 493.18V492.2H619.17H623.16V518.73H623.17ZM616.45 481.84L620.79 477.57L625.06 481.84L620.79 486.25L616.45 481.84Z" fill="white"/>
<path d="M640.17 518.73C640.17 520.27 640.53 521.34 641.25 521.95C641.97 522.56 642.92 522.86 644.08 522.86V523.84H639.53H636.24H631.62V522.86C632.74 522.86 633.67 522.56 634.42 521.95C635.17 521.34 635.54 520.27 635.54 518.73V497.31C635.54 495.77 635.17 494.7 634.42 494.09C633.67 493.48 632.74 493.18 631.62 493.18V492.2H636.24H640.16V518.73H640.17ZM640.17 511.24H638.35V500.67H640.38C640.85 498.2 641.94 496.06 643.67 494.26C645.4 492.46 647.66 491.57 650.46 491.57C653.49 491.57 655.75 492.5 657.21 494.37C658.68 496.24 659.42 498.94 659.42 502.49V518.73C659.42 520.27 659.78 521.34 660.5 521.95C661.22 522.56 662.15 522.86 663.26 522.86V523.84H658.71H655.42H650.8V522.86C651.92 522.86 652.85 522.56 653.6 521.95C654.35 521.34 654.72 520.27 654.72 518.73V503.19C654.72 500.02 654.29 497.7 653.42 496.23C652.56 494.76 651.08 494.02 648.98 494.02C646.37 494.02 644.24 495.41 642.61 498.19C640.99 500.97 640.17 505.32 640.17 511.24Z" fill="white"/>
<path d="M682.24 535.67C678.83 535.67 675.98 535.21 673.66 534.3C671.35 533.39 669.65 532.13 668.55 530.52C667.45 528.91 667 527.1 667.18 525.09L677.05 520.33L677.54 520.82L671.45 525.72C671.22 527.21 671.51 528.57 672.33 529.78C673.15 530.99 674.39 531.94 676.07 532.61C677.75 533.29 679.66 533.62 681.81 533.62C684.94 533.62 687.33 533.01 688.98 531.8C690.64 530.59 691.47 529.02 691.47 527.11C691.47 523.75 689.25 522 684.82 521.86L676.7 521.58C674.04 521.49 672.03 520.78 670.68 519.45C669.33 518.12 668.79 516.41 669.07 514.31L676.14 511.65L676.56 512.28L672.92 514.94C672.97 515.92 673.44 516.65 674.35 517.11C675.26 517.58 676.95 517.86 679.43 517.95L686.43 518.23C689.37 518.37 691.68 519.12 693.36 520.47C695.04 521.82 695.88 523.76 695.88 526.28C695.88 529.08 694.65 531.34 692.21 533.07C689.77 534.81 686.44 535.67 682.24 535.67ZM680.91 513.34C678.39 513.34 676.23 512.86 674.44 511.9C672.64 510.94 671.3 509.64 670.41 507.98C669.52 506.32 669.08 504.47 669.08 502.42C669.08 500.41 669.52 498.58 670.41 496.92C671.3 495.26 672.64 493.96 674.44 493C676.24 492.04 678.4 491.57 680.91 491.57C683.34 491.57 685.41 492.11 687.14 493.18L688.12 494.09C689.33 494.7 690.42 495.77 691.37 497.31C692.33 498.85 692.81 500.72 692.81 502.91C692.81 504.78 692.35 506.51 691.44 508.12C690.53 509.73 689.17 511 687.35 511.93C685.53 512.88 683.39 513.34 680.91 513.34ZM680.91 511.03C683.2 511.03 684.95 510.24 686.16 508.65C687.37 507.06 687.98 504.99 687.98 502.42C687.98 499.9 687.37 497.84 686.16 496.22C684.95 494.61 683.2 493.81 680.91 493.81C678.67 493.81 676.95 494.61 675.77 496.22C674.58 497.83 673.98 499.9 673.98 502.42C673.98 505.03 674.56 507.12 675.73 508.69C676.9 510.25 678.63 511.03 680.91 511.03ZM687.21 495.42L683.36 492.2H696.8V493.04L687.21 495.42Z" fill="white"/>
<path d="M464.86 121.96L460.39 118.71L461.01 117.86C462.11 118.66 463.27 119.1 464.5 119.19C465.73 119.28 466.92 118.73 468.07 117.55L491.71 93.1099C492.89 91.8899 493.36 90.7999 493.12 89.8499C492.89 88.8999 492.22 88.0299 491.13 87.2299L491.75 86.3799L496.17 89.5899L498.32 91.1499L470.79 119.52C469.61 120.74 469.24 121.9 469.66 122.98C470.08 124.07 470.99 125.12 472.39 126.13L471.77 126.98L466.16 122.91L464.86 121.96ZM481.57 134.1L496.85 90.0799L500.7 92.8799L485.36 136.85L481.57 134.1ZM484.51 136.24C484.77 135.8 484.97 135.45 485.1 135.2C485.93 133.9 486.89 132.6 487.97 131.31C489.05 130.02 490.42 128.79 492.07 127.63L519.9 106.84L522.45 108.69L485.48 136.95L484.51 136.24ZM500.76 148.05L495.38 144.14L496 143.29C497.32 144.25 498.55 144.76 499.7 144.81C500.84 144.86 501.8 144.13 502.56 142.6L521.03 107.65L524.14 109.91L528.61 113.16L527.99 114.01C526.89 113.21 525.85 112.84 524.86 112.9C523.87 112.96 522.97 113.73 522.17 115.23L506.29 145.31C505.56 146.8 505.41 148.1 505.86 149.24C506.31 150.37 507.1 151.35 508.23 152.17L507.61 153.02L503.14 149.77L500.76 148.05Z" fill="white"/>
<path d="M539.67 136.42C542.09 138.18 543.72 140.25 544.59 142.63C545.45 145.02 545.59 147.52 545.01 150.16C544.42 152.79 543.21 155.37 541.38 157.9C539.55 160.43 537.46 162.38 535.14 163.75C532.82 165.12 530.39 165.76 527.85 165.68C525.31 165.6 522.84 164.68 520.42 162.92C516.8 160.29 514.89 157.03 514.71 153.15C514.53 149.27 515.87 145.37 518.72 141.44C520.56 138.91 522.64 136.96 524.96 135.59C527.28 134.22 529.71 133.58 532.25 133.66C534.77 133.75 537.25 134.67 539.67 136.42ZM521.77 161.06C524.26 162.87 526.86 163.16 529.57 161.93C532.28 160.7 534.87 158.38 537.34 154.99C539.78 151.63 541.17 148.46 541.52 145.48C541.87 142.5 540.79 140.11 538.3 138.3C535.81 136.49 533.2 136.21 530.47 137.46C527.74 138.71 525.16 141.02 522.72 144.38C520.25 147.78 518.85 150.96 518.52 153.92C518.2 156.86 519.28 159.25 521.77 161.06Z" fill="white"/>
<path d="M545.62 174.32C544.71 175.57 544.38 176.65 544.61 177.56C544.84 178.48 545.42 179.28 546.37 179.96L545.79 180.75L542.11 178.08L539.45 176.15L535.71 173.43L536.29 172.64C537.2 173.3 538.13 173.6 539.09 173.55C540.05 173.5 540.98 172.85 541.89 171.6L554.48 154.27C555.39 153.02 555.71 151.94 555.47 151.01C555.22 150.08 554.65 149.29 553.74 148.63L554.32 147.84L558.06 150.56L561.23 152.86L545.62 174.32ZM554.76 162.1C556.85 159.93 559.25 158.34 561.95 157.33C564.65 156.32 567.07 156.59 569.22 158.16C570.16 158.84 570.89 159.63 571.4 160.52C571.91 161.41 572.14 162.24 572.1 163.02L567.4 166.27L567.14 165.91C567.82 165.13 568.07 164.22 567.91 163.18C567.74 162.14 567.1 161.2 565.96 160.38C564 158.95 561.54 158.97 558.58 160.42C555.62 161.87 552.14 165.36 548.13 170.87L547.22 170.21L553.68 161.32L554.76 162.1Z" fill="white"/>
<path d="M568.83 198.1C565.13 195.41 563.16 192.21 562.92 188.49C562.68 184.77 564.11 180.78 567.21 176.51C570.28 172.28 573.64 169.76 577.29 168.95C580.94 168.14 584.52 169.01 588.03 171.56C591.28 173.92 593.02 176.56 593.27 179.48C593.52 182.4 592.55 185.35 590.39 188.33C589.65 189.35 588.79 190.37 587.82 191.39L570.26 178.89L571.12 177.7L586.33 187.37L584.49 187.16C585.65 186.27 586.63 185.28 587.43 184.19C588.75 182.38 589.39 180.45 589.37 178.42C589.35 176.39 588.41 174.7 586.56 173.35C584.48 171.84 582.15 171.43 579.55 172.11C576.95 172.79 574.34 174.94 571.7 178.57C568.9 182.42 567.49 185.89 567.46 188.99C567.43 192.08 568.78 194.62 571.5 196.6C573.2 197.83 574.88 198.52 576.54 198.66C578.2 198.8 579.64 198.62 580.87 198.12C582.09 197.63 583.08 197.1 583.83 196.55L584.44 197.26C583.6 198.09 582.41 198.88 580.86 199.63C579.31 200.38 577.47 200.72 575.36 200.65C573.25 200.58 571.06 199.72 568.83 198.1Z" fill="white"/>
<path d="M502.23 167.29C505.7 169.81 508.07 172.73 509.33 176.04C510.59 179.35 510.83 182.81 510.05 186.43C509.27 190.05 507.59 193.63 505.01 197.18C502.43 200.73 499.5 203.49 496.22 205.46C492.94 207.43 489.51 208.37 485.92 208.27C482.33 208.17 478.8 206.86 475.32 204.34C471.85 201.82 469.51 198.86 468.3 195.48C467.09 192.1 466.92 188.54 467.79 184.81C468.65 181.08 470.37 177.44 472.95 173.89C475.53 170.34 478.41 167.63 481.58 165.76C484.76 163.89 488.12 163.04 491.68 163.23C495.24 163.41 498.75 164.77 502.23 167.29ZM476.76 202.35C479.25 204.16 481.92 204.99 484.77 204.84C487.62 204.69 490.42 203.67 493.18 201.78C495.94 199.89 498.48 197.34 500.81 194.13C503.11 190.96 504.7 187.82 505.58 184.7C506.46 181.58 506.5 178.69 505.71 176.01C504.92 173.33 503.28 171.08 500.78 169.27C498.25 167.43 495.6 166.56 492.82 166.65C490.04 166.74 487.3 167.67 484.6 169.46C481.89 171.24 479.39 173.72 477.08 176.89C474.75 180.1 473.12 183.31 472.19 186.53C471.26 189.75 471.16 192.73 471.88 195.48C472.6 198.22 474.23 200.51 476.76 202.35Z" fill="white"/>
<path d="M498.6 220.64L494.86 217.92L495.44 217.13C496.35 217.79 497.28 218.09 498.24 218.04C499.2 217.99 500.13 217.34 501.04 216.09L516.1 195.36L516.86 195.39L518.65 191.85C520.6 189.17 522.9 187.71 525.55 187.47C528.2 187.23 530.79 188.04 533.32 189.87C534.87 190.99 536.13 192.32 537.11 193.83C538.08 195.35 538.55 197.09 538.49 199.07L532.34 198.84L532.22 198.41C532.65 198.14 532.98 197.84 533.23 197.5C533.83 196.67 534.02 195.67 533.81 194.5C533.59 193.33 532.92 192.34 531.78 191.51C530.27 190.41 528.76 190.05 527.25 190.42C525.74 190.79 524.27 191.96 522.84 193.92L504.78 218.78C503.88 220.03 503.54 221.11 503.77 222.02C504 222.94 504.58 223.74 505.53 224.42L504.95 225.21L501.27 222.54L498.6 220.64ZM516.33 198.73L511.65 193.26L512.72 191.79L518.38 195.9L516.33 198.73ZM524.27 200.18L529.14 203.72L527.49 205.99L518.37 199.37L519.27 198.12L524.27 200.18Z" fill="white"/>
<path d="M584.58 687.04L402.12 435.91C382.15 408.43 341.18 408.43 321.22 435.91L138.76 687.04" stroke="white" stroke-miterlimit="10" stroke-linecap="round"/>
<path d="M584.58 687.04L402.12 435.91C382.15 408.43 394.81 369.46 427.12 358.97L722.34 263.05" stroke="white" stroke-miterlimit="10" stroke-linecap="round"/>
<path d="M722.34 263.04L427.12 358.96C394.81 369.46 361.67 345.38 361.67 311.41V1" stroke="white" stroke-miterlimit="10" stroke-linecap="round"/>
<path d="M361.67 1V311.41C361.67 345.38 328.52 369.46 296.22 358.96L1 263.04" stroke="white" stroke-miterlimit="10" stroke-linecap="round"/>
<path d="M1 263.04L296.22 358.96C328.53 369.46 341.19 408.42 321.22 435.9L138.76 687.04" stroke="white" stroke-miterlimit="10" stroke-linecap="round"/>
</g>
<defs>
<clipPath id="clip0_1289_426">
<rect width="723" height="734.18" fill="white"/>
</clipPath>
</defs>
</svg>
