<svg width="723" height="735" viewBox="0 0 723 735" fill="none" xmlns="http://www.w3.org/2000/svg">
<g clip-path="url(#clip0_1455_486)">
<rect width="723" height="734.18" transform="translate(0 0.26416)" fill="black"/>
<path d="M584.58 687.304L402.12 436.174C382.15 408.694 341.18 408.694 321.22 436.174L138.76 687.304" stroke="white" stroke-miterlimit="10" stroke-linecap="round"/>
<path d="M584.58 687.304L402.12 436.174C382.15 408.694 394.81 369.724 427.12 359.234L722.34 263.314" stroke="white" stroke-miterlimit="10" stroke-linecap="round"/>
<path d="M722.34 263.304L427.12 359.224C394.81 369.724 361.67 345.644 361.67 311.674V1.26416" stroke="white" stroke-miterlimit="10" stroke-linecap="round"/>
<path d="M361.67 1.26416V311.674C361.67 345.644 328.52 369.724 296.22 359.224L1 263.304" stroke="white" stroke-miterlimit="10" stroke-linecap="round"/>
<path d="M1 263.304L296.22 359.224C328.53 369.724 341.19 408.684 321.22 436.164L138.76 687.304" stroke="white" stroke-miterlimit="10" stroke-linecap="round"/>
<path d="M119.266 193.894C120.306 195.695 121.524 196.686 122.921 196.865C124.29 196.997 125.645 196.677 126.985 195.904L127.425 196.666L121.674 199.986L119.249 201.386L113.43 204.746L112.99 203.984C114.329 203.211 115.284 202.197 115.854 200.945C116.443 199.619 116.218 198.055 115.178 196.254L96.178 163.345C95.138 161.544 93.9099 160.59 92.4938 160.484C91.0972 160.305 89.7291 160.602 88.3897 161.375L87.9497 160.613L93.7694 157.253L96.1942 155.853L101.945 152.533L102.385 153.295C101.045 154.069 100.104 155.105 99.5605 156.404C98.9906 157.657 99.2256 159.184 100.266 160.985L119.266 193.894ZM120.443 141.853L126.193 138.533L126.633 139.295C125.202 140.122 123.847 141.243 122.57 142.658C121.339 144.046 120.569 145.752 120.261 147.778L114.042 186.287L111.038 184.603L116.728 149.818C116.953 148.395 116.826 147.482 116.348 147.081C115.89 146.607 115.238 146.491 114.392 146.733C113.592 146.948 112.638 147.375 111.53 148.015L111.09 147.253L118.849 142.773L120.443 141.853ZM143.174 181.384C145.043 182.275 146.877 182.572 148.675 182.273C150.473 181.973 152.088 181.411 153.52 180.584L153.96 181.346L148.209 184.666L145.577 186.186L136.847 191.226L136.407 190.464C137.654 189.744 138.663 189.038 139.434 188.347C140.178 187.609 140.529 186.883 140.486 186.169C140.416 185.409 139.742 184.72 138.462 184.104L115.184 173.064L120.521 170.629L143.174 181.384ZM170.585 172.394C166.151 174.954 161.976 175.455 158.059 173.898C154.189 172.315 150.761 168.936 147.774 163.763C144.814 158.636 143.735 153.994 144.537 149.836C145.358 145.605 147.87 142.276 152.073 139.85C155.999 137.583 159.503 137.038 162.584 138.215C165.639 139.346 168.193 141.69 170.246 145.246C170.913 146.401 171.597 147.853 172.3 149.603L151.307 161.723L150.627 160.545L168.081 149.175L166.986 150.639C166.456 148.974 165.871 147.588 165.231 146.479C163.844 144.077 162.034 142.382 159.8 141.393C157.613 140.377 155.341 140.55 152.985 141.91C150.445 143.376 148.874 145.669 148.273 148.787C147.691 151.833 148.693 155.596 151.28 160.076C154.133 165.018 157.198 168.299 160.473 169.918C163.768 171.465 167.078 171.278 170.403 169.358C172.62 168.078 174.178 166.563 175.076 164.813C175.994 162.989 176.453 161.277 176.453 159.676C176.452 158.075 176.304 156.806 176.009 155.868L176.782 155.606C177.276 156.676 177.584 158.223 177.706 160.246C177.846 162.197 177.399 164.303 176.364 166.563C175.329 168.824 173.403 170.767 170.585 172.394ZM200.693 155.011C196.259 157.571 192.084 158.072 188.167 156.515C184.297 154.932 180.869 151.553 177.882 146.38C174.922 141.254 173.843 136.611 174.645 132.453C175.466 128.222 177.978 124.894 182.181 122.467C186.107 120.2 189.611 119.655 192.692 120.833C195.747 121.963 198.301 124.307 200.354 127.863C201.021 129.018 201.705 130.47 202.408 132.22L181.415 144.34L180.735 143.163L198.189 131.793L197.094 133.256C196.564 131.592 195.979 130.205 195.339 129.096C193.952 126.695 192.142 124.999 189.908 124.01C187.72 122.995 185.449 123.167 183.093 124.527C180.553 125.994 178.982 128.286 178.381 131.405C177.799 134.45 178.801 138.213 181.388 142.693C184.241 147.635 187.306 150.916 190.581 152.536C193.875 154.082 197.186 153.895 200.511 151.975C202.728 150.695 204.286 149.18 205.184 147.43C206.102 145.606 206.561 143.894 206.561 142.293C206.56 140.693 206.412 139.423 206.117 138.485L206.89 138.224C207.384 139.293 207.692 140.84 207.813 142.863C207.954 144.814 207.507 146.92 206.472 149.18C205.437 151.441 203.511 153.384 200.693 155.011ZM231.63 154.424L228.512 156.224L223.663 159.024L223.263 158.331C224.371 157.691 225.154 156.808 225.613 155.681C226.071 154.554 225.82 153.16 224.86 151.497L204.94 116.995C203.98 115.332 202.897 114.417 201.693 114.25C200.488 114.084 199.331 114.321 198.223 114.961L197.823 114.268L202.672 111.468L205.79 109.668L231.63 154.424ZM210.59 117.982C209.566 115.247 209.346 112.573 209.929 109.957C210.532 107.268 212.381 105.031 215.476 103.244C218.894 101.271 222.326 100.921 225.771 102.196C229.217 103.471 232.66 107.087 236.1 113.045C239.513 118.958 240.91 123.724 240.291 127.345C239.646 130.921 237.614 133.695 234.196 135.668C231.148 137.428 228.318 137.861 225.708 136.966C223.097 136.071 220.778 134.454 218.75 132.115L217.087 133.075L208.927 118.942L210.59 117.982ZM232.175 134.248C234.762 132.755 236.072 130.49 236.104 127.453C236.137 124.417 234.727 120.428 231.873 115.485C228.993 110.497 226.207 107.271 223.515 105.808C220.842 104.272 218.236 104.237 215.695 105.704C214.125 106.611 212.94 107.972 212.141 109.788C211.342 111.604 211.131 113.851 211.506 116.529C211.856 119.16 212.963 122.092 214.83 125.325C216.67 128.512 218.642 130.915 220.746 132.533C222.851 134.151 224.889 135.068 226.861 135.284C228.834 135.5 230.605 135.155 232.175 134.248ZM140.553 215.599C139.593 213.936 138.51 213.021 137.305 212.854C136.101 212.688 134.944 212.924 133.836 213.564L133.436 212.872L138.285 210.072L141.403 208.272L163.923 247.277C164.883 248.94 165.965 249.855 167.17 250.022C168.375 250.188 169.531 249.951 170.64 249.311L171.04 250.004L166.19 252.804L163.073 254.604L140.553 215.599ZM151.525 230.603L159.685 244.736L158.022 245.696C159.034 248.622 159.275 251.439 158.744 254.147C158.214 256.855 156.424 259.089 153.376 260.849C149.958 262.823 146.54 263.195 143.121 261.967C139.675 260.692 136.246 257.099 132.832 251.187C129.392 245.228 127.982 240.439 128.601 236.817C129.22 233.196 131.238 230.399 134.656 228.425C137.751 226.639 140.59 226.17 143.173 227.018C145.777 227.794 148.006 229.309 149.862 231.563L151.525 230.603ZM153.157 258.389C154.727 257.483 155.912 256.121 156.711 254.305C157.51 252.489 157.735 250.265 157.385 247.634C157.036 245.003 155.942 242.094 154.102 238.907C152.235 235.673 150.25 233.248 148.145 231.63C146.015 229.966 143.963 229.026 141.991 228.809C140.018 228.593 138.247 228.939 136.677 229.845C134.136 231.312 132.84 233.6 132.788 236.709C132.755 239.746 134.178 243.758 137.058 248.747C139.912 253.689 142.661 256.905 145.308 258.395C147.954 259.884 150.57 259.883 153.157 258.389ZM169.259 208.447C172.122 206.794 174.983 206.097 177.842 206.355C180.701 206.614 183.359 207.697 185.815 209.604C188.291 211.439 190.395 213.857 192.129 216.859C193.889 219.908 194.944 222.963 195.295 226.024C195.692 229.059 195.288 231.879 194.082 234.484C192.877 237.089 190.842 239.218 187.979 240.871C183.637 243.378 179.408 243.787 175.293 242.099C171.223 240.384 167.829 237.171 165.109 232.459C163.349 229.411 162.27 226.37 161.873 223.335C161.476 220.3 161.88 217.48 163.085 214.875C164.291 212.27 166.349 210.127 169.259 208.447ZM186.859 238.932C189.999 237.118 191.572 234.455 191.576 230.942C191.58 227.43 190.356 223.549 187.902 219.299C185.476 215.096 182.74 212.118 179.696 210.366C176.625 208.567 173.519 208.574 170.379 210.387C167.238 212.201 165.679 214.887 165.701 218.446C165.697 221.958 166.908 225.816 169.335 230.019C171.788 234.269 174.537 237.27 177.581 239.022C180.625 240.775 183.718 240.745 186.859 238.932ZM210.725 220.257C211.685 221.919 212.744 222.847 213.902 223.041C215.107 223.207 216.264 222.971 217.372 222.331L217.772 223.023L212.992 225.783L210.567 227.183L205.717 229.983L205.317 229.291C206.426 228.651 207.209 227.767 207.667 226.641C208.125 225.514 207.874 224.119 206.914 222.457L194.754 201.395C193.794 199.732 192.712 198.817 191.507 198.651C190.302 198.484 189.146 198.721 188.037 199.361L187.637 198.668L192.487 195.868L195.605 194.068L210.725 220.257ZM183.686 187.185L185.385 180.847L191.723 182.545L190.065 188.953L183.686 187.185ZM223.33 203.187L221.529 204.227L215.489 193.765L217.567 192.565C216.642 189.897 216.537 187.155 217.253 184.341C217.968 181.526 219.688 179.332 222.413 177.759C225.323 176.079 227.991 175.739 230.416 176.741C232.888 177.715 235.111 179.912 237.084 183.33L246.484 199.611C247.444 201.274 248.503 202.202 249.662 202.395C250.866 202.562 252.023 202.325 253.132 201.685L253.532 202.378L248.751 205.138L246.257 206.578L241.407 209.378L241.007 208.685C242.116 208.045 242.899 207.162 243.357 206.035C243.815 204.908 243.564 203.514 242.604 201.851L233.524 186.124C231.711 182.983 229.916 180.94 228.139 179.996C226.361 179.051 224.411 179.192 222.286 180.419C219.607 181.965 218.24 184.664 218.184 188.514C218.175 192.338 219.89 197.229 223.33 203.187ZM227.57 210.531C228.53 212.194 229.589 213.122 230.748 213.315C231.952 213.482 233.109 213.245 234.218 212.605L234.618 213.298L229.837 216.058L227.412 217.458L222.563 220.258L222.163 219.565C223.271 218.925 224.054 218.042 224.512 216.915C224.97 215.788 224.719 214.394 223.759 212.731L211.599 191.669C210.639 190.006 209.557 189.092 208.352 188.925C207.148 188.758 205.991 188.995 204.883 189.635L204.483 188.942L209.332 186.142L212.45 184.342L227.57 210.531ZM279.465 203.017C276.139 204.937 273.055 206.102 270.212 206.511C267.37 206.921 264.927 206.637 262.886 205.661C260.87 204.73 259.359 203.232 258.351 201.166L265.549 190.913L266.204 191.089L262.601 199.728C263.296 201.359 264.466 202.531 266.11 203.245C267.753 203.959 269.63 204.169 271.739 203.875C273.848 203.581 275.918 202.847 277.951 201.674C281.138 199.834 283.212 197.774 284.174 195.494C285.163 193.26 285.098 191.173 283.978 189.234C281.925 185.677 278.562 185.186 273.89 187.76L266.397 191.902C263.552 193.482 261.041 194.039 258.863 193.573C256.73 193.079 255.189 191.69 254.24 189.406L259.608 182.704L260.274 183.058L258.024 187.96C258.572 189.122 259.467 189.713 260.711 189.734C261.974 189.682 263.972 188.929 266.704 187.475L273.475 183.843C276.439 182.255 279.138 181.651 281.574 182.03C284.01 182.41 285.962 183.87 287.428 186.41C289.002 189.135 289.031 192.013 287.516 195.043C286.029 198.119 283.345 200.777 279.465 203.017ZM265.17 181.617C262.722 183.031 260.354 183.782 258.065 183.872C255.796 183.888 253.756 183.342 251.945 182.232C250.181 181.095 248.712 179.511 247.538 177.478C246.392 175.492 245.767 173.451 245.665 171.354C245.61 169.231 246.17 167.214 247.345 165.304C248.54 163.321 250.362 161.622 252.81 160.209C255.027 158.929 257.21 158.284 259.36 158.275L260.81 158.546C262.477 158.446 264.225 158.915 266.056 159.952C267.906 160.916 269.471 162.506 270.751 164.723C271.817 166.571 272.365 168.533 272.394 170.61C272.423 172.687 271.827 174.694 270.605 176.632C269.43 178.542 267.618 180.204 265.17 181.617ZM264.05 179.677C266.406 178.317 267.74 176.469 268.054 174.132C268.387 171.723 267.807 169.225 266.314 166.638C264.847 164.098 262.987 162.37 260.734 161.454C258.527 160.511 256.246 160.72 253.89 162.08C251.581 163.413 250.259 165.284 249.926 167.694C249.639 170.077 250.229 172.538 251.695 175.078C253.189 177.665 255.039 179.43 257.246 180.372C259.426 181.269 261.694 181.037 264.05 179.677ZM260.739 160.342L255.526 159.473L268.897 151.753L269.297 152.445L260.739 160.342Z" fill="white"/>
<path d="M482.835 145.018L495.151 93.2857L499.1 95.5657L486.853 147.338L482.835 145.018ZM462.535 133.298L456.715 129.938L457.155 129.176C458.495 129.95 459.919 130.31 461.427 130.257C463.009 130.185 464.458 129.328 465.775 127.687L489.486 97.4976C490.803 95.8563 491.223 94.4359 490.746 93.2364C490.341 92.0174 489.469 91.0212 488.129 90.2479L488.569 89.4857L494.389 92.8457L496.398 94.0057L468.616 129.327C467.299 130.968 466.958 132.465 467.593 133.817C468.302 135.15 469.488 136.296 471.15 137.256L470.71 138.018L463.505 133.858L462.535 133.298ZM486.091 146.898C486.265 146.383 486.419 146.01 486.552 145.779C487.161 144.406 487.937 143.007 488.883 141.582C489.902 140.138 491.181 138.721 492.722 137.333L522.587 109.126L525.358 110.726L486.922 147.378L486.091 146.898ZM505.975 158.378L499.185 154.458L499.625 153.696C501.15 154.576 502.62 154.963 504.036 154.857C505.525 154.731 506.651 153.688 507.414 151.727L524.111 110.006L527.159 111.766L532.979 115.126L532.539 115.888C531.2 115.115 529.878 114.844 528.574 115.076C527.342 115.289 526.345 116.376 525.582 118.338L511.293 153.967C510.531 155.928 510.49 157.598 511.172 158.977C511.927 160.337 512.974 161.403 514.313 162.176L513.873 162.938L508.053 159.578L505.975 158.378ZM548.305 140.232C551.168 141.886 553.203 144.015 554.409 146.62C555.614 149.225 556.005 152.068 555.581 155.149C555.23 158.21 554.188 161.242 552.455 164.244C550.695 167.293 548.577 169.734 546.101 171.569C543.672 173.43 541.028 174.49 538.169 174.748C535.31 175.007 532.448 174.31 529.585 172.656C525.243 170.15 522.774 166.692 522.179 162.284C521.629 157.902 522.715 153.355 525.435 148.644C527.195 145.596 529.29 143.141 531.719 141.28C534.148 139.418 536.793 138.358 539.652 138.1C542.511 137.841 545.395 138.552 548.305 140.232ZM530.705 170.716C533.846 172.53 536.938 172.56 539.982 170.807C543.026 169.055 545.775 166.053 548.229 161.804C550.655 157.601 551.866 153.743 551.862 150.23C551.885 146.672 550.326 143.985 547.185 142.172C544.044 140.359 540.938 140.352 537.867 142.15C534.823 143.903 532.088 146.881 529.661 151.084C527.208 155.333 525.983 159.215 525.987 162.727C525.992 166.24 527.564 168.903 530.705 170.716ZM559.08 182.203C558.12 183.866 557.846 185.247 558.258 186.347C558.716 187.474 559.499 188.357 560.608 188.997L560.208 189.69L555.427 186.93L553.002 185.53L548.153 182.73L548.553 182.037C549.661 182.677 550.818 182.914 552.022 182.747C553.227 182.58 554.309 181.666 555.269 180.003L567.429 158.941C568.389 157.278 568.64 155.884 568.182 154.757C567.724 153.63 566.941 152.747 565.833 152.107L566.233 151.414L571.082 154.214L574.2 156.014L559.08 182.203ZM567.928 167.358C570.024 164.688 572.55 162.606 575.507 161.11C578.537 159.596 581.368 159.598 584.001 161.118C585.109 161.758 585.982 162.54 586.62 163.462C587.284 164.338 587.641 165.16 587.691 165.928L583.009 169.876L582.772 169.647C583.478 168.638 583.661 167.573 583.322 166.454C583.056 165.315 582.23 164.345 580.845 163.545C578.397 162.132 575.544 162.487 572.286 164.609C569.055 166.685 565.453 171.164 561.48 178.046L561.134 177.846L567.374 167.038L567.928 167.358ZM587.971 206.365C583.537 203.805 581.015 200.44 580.405 196.27C579.841 192.126 581.053 187.468 584.039 182.295C586.999 177.168 590.48 173.912 594.482 172.527C598.556 171.123 602.695 171.635 606.898 174.061C610.824 176.328 613.048 179.09 613.569 182.347C614.117 185.558 613.365 188.941 611.311 192.498C610.645 193.652 609.729 194.971 608.565 196.455L587.573 184.335L588.253 183.157L606.826 192.587L605.011 192.37C606.188 191.079 607.096 189.879 607.736 188.771C609.123 186.369 609.686 183.954 609.425 181.525C609.211 179.122 607.926 177.241 605.571 175.881C603.03 174.414 600.259 174.2 597.258 175.239C594.33 176.258 591.572 179.007 588.985 183.488C586.132 188.43 584.823 192.724 585.058 196.37C585.366 199.996 587.183 202.77 590.508 204.69C592.725 205.97 594.817 206.561 596.782 206.464C598.82 206.347 600.532 205.889 601.918 205.088C603.304 204.287 604.33 203.524 604.994 202.799L605.607 203.338C604.928 204.301 603.743 205.341 602.051 206.458C600.432 207.555 598.385 208.221 595.91 208.455C593.434 208.688 590.788 207.992 587.971 206.365ZM501.923 191.973C504.787 193.627 506.822 195.756 508.027 198.361C509.233 200.966 509.624 203.809 509.2 206.89C508.849 209.952 507.807 212.983 506.073 215.985C504.313 219.034 502.196 221.475 499.72 223.31C497.29 225.171 494.646 226.231 491.787 226.49C488.928 226.748 486.067 226.051 483.203 224.397C478.862 221.891 476.393 218.433 475.797 214.025C475.248 209.643 476.333 205.097 479.053 200.385C480.813 197.337 482.908 194.882 485.338 193.021C487.767 191.16 490.411 190.1 493.27 189.841C496.129 189.583 499.013 190.293 501.923 191.973ZM484.323 222.458C487.464 224.271 490.557 224.301 493.601 222.549C496.645 220.796 499.394 217.795 501.847 213.545C504.274 209.342 505.485 205.484 505.481 201.972C505.503 198.413 503.944 195.727 500.803 193.913C497.663 192.1 494.557 192.093 491.486 193.892C488.442 195.644 485.706 198.622 483.28 202.825C480.826 207.075 479.602 210.956 479.606 214.469C479.61 217.981 481.183 220.644 484.323 222.458ZM506.621 237.271L501.771 234.471L502.171 233.778C503.28 234.418 504.436 234.655 505.641 234.488C506.846 234.322 507.928 233.407 508.888 231.744L524.008 205.555L524.77 205.995L526.328 201.537C528.088 198.489 530.358 196.69 533.139 196.14C535.947 195.544 538.736 196.045 541.507 197.645C543.494 198.792 545.108 200.155 546.351 201.735C547.621 203.269 548.371 205.118 548.599 207.282L542.307 207.622L542.149 207.254C542.501 206.964 542.757 206.681 542.917 206.404C543.504 205.388 543.552 204.184 543.062 202.792C542.619 201.428 541.681 200.332 540.249 199.505C538.448 198.465 536.719 198.206 535.063 198.728C533.407 199.25 531.899 200.689 530.539 203.044L512.699 233.944C511.739 235.607 511.464 236.988 511.876 238.088C512.334 239.215 513.118 240.098 514.226 240.738L513.826 241.431L509.046 238.671L506.621 237.271ZM524.297 209.695L518.468 204.112L519.228 202.795L526.017 206.715L524.297 209.695ZM532.391 210.395L538.488 213.915L537.088 216.34L526.141 210.02L526.861 208.773L532.391 210.395Z" fill="white"/>
<path d="M98.44 444.04C100.52 444.04 102.147 443.373 103.32 442.04C104.493 440.707 105.32 439.16 105.8 437.4L106.68 437.64L104.6 445.16L104.12 447H81.4V444.04H98.44ZM82.28 447H78.52H71.8V446.12C73.3467 446.12 74.68 445.72 75.8 444.92C76.9733 444.067 77.56 442.6 77.56 440.52V402.52C77.56 400.44 76.9733 399 75.8 398.2C74.68 397.347 73.3467 396.92 71.8 396.92V396.04H78.52H81.32H87.96V396.92C86.4133 396.92 85.08 397.347 83.96 398.2C82.84 399 82.28 400.44 82.28 402.52V447ZM125.599 447.56C120.479 447.56 116.613 445.907 113.999 442.6C111.439 439.293 110.159 434.653 110.159 428.68C110.159 422.76 111.546 418.2 114.319 415C117.146 411.747 120.986 410.12 125.839 410.12C130.373 410.12 133.679 411.4 135.759 413.96C137.839 416.467 138.879 419.773 138.879 423.88C138.879 425.213 138.746 426.813 138.479 428.68H114.239V427.32L135.039 426.2L133.359 426.92C133.733 425.213 133.919 423.72 133.919 422.44C133.919 419.667 133.199 417.293 131.759 415.32C130.373 413.347 128.319 412.36 125.599 412.36C122.666 412.36 120.159 413.56 118.079 415.96C116.053 418.307 115.039 422.067 115.039 427.24C115.039 432.947 116.053 437.32 118.079 440.36C120.159 443.347 123.119 444.84 126.959 444.84C129.519 444.84 131.626 444.307 133.279 443.24C134.986 442.12 136.239 440.867 137.039 439.48C137.839 438.093 138.346 436.92 138.559 435.96L139.359 436.12C139.253 437.293 138.746 438.787 137.839 440.6C136.986 442.36 135.546 443.96 133.519 445.4C131.493 446.84 128.853 447.56 125.599 447.56ZM163.885 427.08C166.498 427.987 168.445 429.213 169.725 430.76C171.005 432.253 171.645 434.307 171.645 436.92C171.645 441.027 170.445 443.827 168.045 445.32C165.645 446.813 162.632 447.56 159.005 447.56C155.912 447.56 153.272 447 151.085 445.88C148.952 444.707 147.298 443.347 146.125 441.8V430.2H146.925C147.405 435 148.685 438.733 150.765 441.4C152.845 444.013 155.592 445.32 159.005 445.32C161.672 445.32 163.752 444.707 165.245 443.48C166.738 442.2 167.485 440.36 167.485 437.96C167.485 436.307 167.005 434.947 166.045 433.88C165.138 432.76 163.538 431.8 161.245 431L154.445 428.68C151.938 427.827 150.045 426.653 148.765 425.16C147.485 423.667 146.845 421.693 146.845 419.24C146.845 416.787 147.805 414.653 149.725 412.84C151.698 411.027 154.685 410.12 158.685 410.12C160.925 410.12 163.138 410.467 165.325 411.16C167.512 411.853 169.298 412.787 170.685 413.96L171.245 423.8H170.445C169.432 419.8 167.992 416.893 166.125 415.08C164.258 413.267 161.858 412.36 158.925 412.36C156.578 412.36 154.658 412.947 153.165 414.12C151.725 415.293 151.005 416.787 151.005 418.6C151.005 420.147 151.432 421.373 152.285 422.28C153.138 423.187 154.445 423.933 156.205 424.52L163.885 427.08ZM197.635 427.08C200.248 427.987 202.195 429.213 203.475 430.76C204.755 432.253 205.395 434.307 205.395 436.92C205.395 441.027 204.195 443.827 201.795 445.32C199.395 446.813 196.382 447.56 192.755 447.56C189.662 447.56 187.022 447 184.835 445.88C182.702 444.707 181.048 443.347 179.875 441.8V430.2H180.675C181.155 435 182.435 438.733 184.515 441.4C186.595 444.013 189.342 445.32 192.755 445.32C195.422 445.32 197.502 444.707 198.995 443.48C200.488 442.2 201.235 440.36 201.235 437.96C201.235 436.307 200.755 434.947 199.795 433.88C198.888 432.76 197.288 431.8 194.995 431L188.195 428.68C185.688 427.827 183.795 426.653 182.515 425.16C181.235 423.667 180.595 421.693 180.595 419.24C180.595 416.787 181.555 414.653 183.475 412.84C185.448 411.027 188.435 410.12 192.435 410.12C194.675 410.12 196.888 410.467 199.075 411.16C201.262 411.853 203.048 412.787 204.435 413.96L204.995 423.8H204.195C203.182 419.8 201.742 416.893 199.875 415.08C198.008 413.267 195.608 412.36 192.675 412.36C190.328 412.36 188.408 412.947 186.915 414.12C185.475 415.293 184.755 416.787 184.755 418.6C184.755 420.147 185.182 421.373 186.035 422.28C186.888 423.187 188.195 423.933 189.955 424.52L197.635 427.08ZM125.564 478.12C128.871 478.12 131.697 478.947 134.044 480.6C136.391 482.253 138.151 484.52 139.324 487.4C140.551 490.227 141.164 493.373 141.164 496.84C141.164 500.36 140.551 503.533 139.324 506.36C138.151 509.187 136.391 511.427 134.044 513.08C131.697 514.733 128.871 515.56 125.564 515.56C120.551 515.56 116.684 513.8 113.964 510.28C111.297 506.76 109.964 502.28 109.964 496.84C109.964 493.32 110.551 490.147 111.724 487.32C112.897 484.493 114.657 482.253 117.004 480.6C119.351 478.947 122.204 478.12 125.564 478.12ZM125.564 513.32C129.191 513.32 131.884 511.8 133.644 508.76C135.404 505.72 136.284 501.747 136.284 496.84C136.284 491.987 135.404 488.04 133.644 485C131.884 481.907 129.191 480.36 125.564 480.36C121.937 480.36 119.244 481.907 117.484 485C115.724 488.04 114.844 491.987 114.844 496.84C114.844 501.747 115.724 505.72 117.484 508.76C119.244 511.8 121.937 513.32 125.564 513.32ZM152.281 515H146.681V514.2C147.961 514.2 149.081 513.827 150.041 513.08C151.001 512.333 151.481 511 151.481 509.08V478.84H152.361L151.481 474.2C151.481 470.68 152.548 467.987 154.681 466.12C156.814 464.2 159.481 463.24 162.681 463.24C164.974 463.24 167.054 463.613 168.921 464.36C170.788 465.053 172.361 466.28 173.641 468.04L168.361 471.48L168.041 471.24C168.201 470.813 168.281 470.44 168.281 470.12C168.281 468.947 167.721 467.88 166.601 466.92C165.534 465.96 164.174 465.48 162.521 465.48C160.441 465.48 158.814 466.12 157.641 467.4C156.468 468.68 155.881 470.68 155.881 473.4V509.08C155.881 511 156.334 512.333 157.241 513.08C158.201 513.827 159.321 514.2 160.601 514.2V515H155.081H152.281ZM153.801 482.28L145.961 480.36V478.84H153.801V482.28ZM161.161 478.84H168.201V481.64H155.561V480.2L161.161 478.84Z" fill="white"/>
<path d="M532.816 418.84C536.869 420.333 539.936 422.12 542.016 424.2C544.096 426.227 545.136 429.107 545.136 432.84C545.136 438.6 543.483 442.493 540.176 444.52C536.923 446.547 532.736 447.56 527.616 447.56C523.083 447.56 519.296 446.787 516.256 445.24C513.269 443.693 511.029 441.747 509.536 439.4V424.04H510.336C510.443 428.2 511.163 431.88 512.496 435.08C513.883 438.227 515.856 440.707 518.416 442.52C520.976 444.28 524.043 445.16 527.616 445.16C531.563 445.16 534.629 444.147 536.816 442.12C539.003 440.093 540.096 437.507 540.096 434.36C540.096 431.8 539.403 429.64 538.016 427.88C536.629 426.067 534.443 424.653 531.456 423.64L519.856 419.48C516.976 418.467 514.763 417.08 513.216 415.32C511.669 413.56 510.896 411.107 510.896 407.96C510.896 405.773 511.483 403.72 512.656 401.8C513.883 399.88 515.776 398.307 518.336 397.08C520.896 395.853 524.069 395.24 527.856 395.24C530.949 395.24 533.776 395.693 536.336 396.6C538.896 397.507 541.136 398.84 543.056 400.6L543.616 414.36H542.816C542.016 408.707 540.416 404.493 538.016 401.72C535.669 398.893 532.203 397.48 527.616 397.48C523.883 397.48 520.976 398.387 518.896 400.2C516.869 401.96 515.856 404.307 515.856 407.24C515.856 408.893 516.309 410.387 517.216 411.72C518.176 413.053 519.696 414.093 521.776 414.84L532.816 418.84ZM559.506 437.16C559.506 439.773 559.986 441.667 560.946 442.84C561.959 443.96 563.399 444.52 565.266 444.52C566.813 444.52 568.039 444.12 568.946 443.32C569.906 442.52 570.546 441.56 570.866 440.44H571.586C571.373 442.413 570.626 444.093 569.346 445.48C568.066 446.867 566.199 447.56 563.746 447.56C560.813 447.56 558.626 446.707 557.186 445C555.746 443.293 555.026 440.84 555.026 437.64V413.64H549.986V411.8C552.706 411.16 554.733 409.907 556.066 408.04C557.453 406.12 558.306 403.32 558.626 399.64H559.506V437.16ZM564.386 410.84H571.426V413.64H558.786V412.2L564.386 410.84ZM599.922 447V435.56H599.522C598.668 438.973 597.282 441.827 595.362 444.12C593.495 446.413 590.775 447.56 587.202 447.56C584.268 447.56 581.922 446.573 580.162 444.6C578.455 442.573 577.602 439.373 577.602 435C577.602 433.08 577.762 430.973 578.082 428.68L601.282 426.6V427.8L582.562 430.6C582.295 431.987 582.162 433.533 582.162 435.24C582.162 438.333 582.695 440.653 583.762 442.2C584.882 443.747 586.642 444.52 589.042 444.52C591.815 444.52 594.002 443.48 595.602 441.4C597.255 439.267 598.375 436.707 598.962 433.72C599.602 430.733 599.922 427.72 599.922 424.68C599.922 421.053 599.255 418.093 597.922 415.8C596.588 413.507 594.135 412.36 590.562 412.36C587.842 412.36 585.788 413.027 584.402 414.36C583.015 415.693 582.322 417.267 582.322 419.08C582.322 419.933 582.455 420.68 582.722 421.32C582.988 421.96 583.335 422.36 583.762 422.52V422.84L578.722 423.4C578.348 422.493 578.162 421.427 578.162 420.2C578.162 417.48 579.175 415.133 581.202 413.16C583.282 411.133 586.535 410.12 590.962 410.12C594.802 410.12 597.682 410.973 599.602 412.68C601.522 414.387 602.748 416.467 603.282 418.92C603.868 421.32 604.162 424.12 604.162 427.32V441.08C604.162 443 604.615 444.333 605.522 445.08C606.482 445.827 607.602 446.2 608.882 446.2V447H603.362H599.922ZM622.787 441.08C622.787 443 623.241 444.333 624.147 445.08C625.107 445.827 626.227 446.2 627.507 446.2V447H621.987H619.187H613.587V446.2C614.867 446.2 615.987 445.827 616.947 445.08C617.907 444.333 618.387 443 618.387 441.08V416.76C618.387 414.84 617.907 413.507 616.947 412.76C615.987 412.013 614.867 411.64 613.587 411.64V410.84H619.187H622.787V441.08ZM623.027 423.8C623.507 420.44 624.654 417.373 626.467 414.6C628.334 411.773 630.787 410.36 633.827 410.36C635.107 410.36 636.254 410.6 637.267 411.08C638.281 411.507 639.001 412.04 639.427 412.68L637.347 418.44L637.027 418.36C637.134 417.133 636.761 416.12 635.907 415.32C635.107 414.467 633.907 414.04 632.307 414.04C629.481 414.04 627.187 415.773 625.427 419.24C623.667 422.653 622.787 428.333 622.787 436.28H622.387V423.8H623.027ZM653.568 437.16C653.568 439.773 654.048 441.667 655.008 442.84C656.022 443.96 657.462 444.52 659.328 444.52C660.875 444.52 662.102 444.12 663.008 443.32C663.968 442.52 664.608 441.56 664.928 440.44H665.648C665.435 442.413 664.688 444.093 663.408 445.48C662.128 446.867 660.262 447.56 657.808 447.56C654.875 447.56 652.688 446.707 651.248 445C649.808 443.293 649.088 440.84 649.088 437.64V413.64H644.048V411.8C646.768 411.16 648.795 409.907 650.128 408.04C651.515 406.12 652.368 403.32 652.688 399.64H653.568V437.16ZM658.448 410.84H665.488V413.64H652.848V412.2L658.448 410.84ZM528.566 469.96C528.566 468.04 528.086 466.707 527.126 465.96C526.166 465.213 525.046 464.84 523.766 464.84V464.04H529.366H532.966V509.08C532.966 511 533.446 512.333 534.406 513.08C535.366 513.827 536.486 514.2 537.766 514.2V515H532.166H528.566V469.96ZM530.566 488.44V504.76H528.646C528.059 507.8 526.859 510.36 525.046 512.44C523.233 514.52 520.566 515.56 517.046 515.56C513.099 515.56 509.953 514.173 507.606 511.4C505.259 508.573 504.086 503.747 504.086 496.92C504.086 490.04 505.259 485.187 507.606 482.36C509.953 479.533 513.099 478.12 517.046 478.12C520.619 478.12 523.313 479.133 525.126 481.16C526.993 483.133 528.166 485.56 528.646 488.44H530.566ZM518.086 513.32C519.899 513.32 521.606 512.733 523.206 511.56C524.806 510.387 526.113 508.573 527.126 506.12C528.139 503.667 528.646 500.6 528.646 496.92C528.646 493.187 528.139 490.093 527.126 487.64C526.113 485.133 524.806 483.293 523.206 482.12C521.606 480.947 519.899 480.36 518.086 480.36C515.153 480.36 512.886 481.693 511.286 484.36C509.739 486.973 508.966 491.16 508.966 496.92C508.966 502.627 509.739 506.787 511.286 509.4C512.833 512.013 515.099 513.32 518.086 513.32ZM557.002 478.12C560.308 478.12 563.135 478.947 565.482 480.6C567.828 482.253 569.588 484.52 570.762 487.4C571.988 490.227 572.602 493.373 572.602 496.84C572.602 500.36 571.988 503.533 570.762 506.36C569.588 509.187 567.828 511.427 565.482 513.08C563.135 514.733 560.308 515.56 557.002 515.56C551.988 515.56 548.122 513.8 545.402 510.28C542.735 506.76 541.402 502.28 541.402 496.84C541.402 493.32 541.988 490.147 543.162 487.32C544.335 484.493 546.095 482.253 548.442 480.6C550.788 478.947 553.642 478.12 557.002 478.12ZM557.002 513.32C560.628 513.32 563.322 511.8 565.082 508.76C566.842 505.72 567.722 501.747 567.722 496.84C567.722 491.987 566.842 488.04 565.082 485C563.322 481.907 560.628 480.36 557.002 480.36C553.375 480.36 550.682 481.907 548.922 485C547.162 488.04 546.282 491.987 546.282 496.84C546.282 501.747 547.162 505.72 548.922 508.76C550.682 511.8 553.375 513.32 557.002 513.32ZM587.008 509.08C587.008 511 587.461 512.333 588.368 513.08C589.328 513.827 590.448 514.2 591.728 514.2V515H586.208H583.408H577.808V514.2C579.088 514.2 580.208 513.827 581.168 513.08C582.128 512.333 582.608 511 582.608 509.08V484.76C582.608 482.84 582.128 481.507 581.168 480.76C580.208 480.013 579.088 479.64 577.808 479.64V478.84H583.408H587.008V509.08ZM580.128 466.92L584.768 462.28L589.408 466.92L584.768 471.64L580.128 466.92ZM606.459 500.6H604.379V488.52H606.779C607.312 485.747 608.592 483.32 610.619 481.24C612.646 479.16 615.232 478.12 618.379 478.12C621.739 478.12 624.219 479.16 625.819 481.24C627.472 483.32 628.299 486.333 628.299 490.28V509.08C628.299 511 628.752 512.333 629.659 513.08C630.619 513.827 631.739 514.2 633.019 514.2V515H627.499H624.619H619.019V514.2C620.299 514.2 621.419 513.827 622.379 513.08C623.339 512.333 623.819 511 623.819 509.08V490.92C623.819 487.293 623.286 484.627 622.219 482.92C621.152 481.213 619.392 480.36 616.939 480.36C613.846 480.36 611.312 482.013 609.339 485.32C607.419 488.627 606.459 493.72 606.459 500.6ZM606.459 509.08C606.459 511 606.912 512.333 607.819 513.08C608.779 513.827 609.899 514.2 611.179 514.2V515H605.659H602.859H597.259V514.2C598.539 514.2 599.659 513.827 600.619 513.08C601.579 512.333 602.059 511 602.059 509.08V484.76C602.059 482.84 601.579 481.507 600.619 480.76C599.659 480.013 598.539 479.64 597.259 479.64V478.84H602.859H606.459V509.08ZM655.158 528.52C651.318 528.52 648.065 527.987 645.398 526.92C642.732 525.853 640.758 524.387 639.478 522.52C638.198 520.707 637.638 518.653 637.798 516.36L649.158 511.08L649.638 511.56L642.198 517.24C641.985 519 642.412 520.6 643.478 522.04C644.545 523.48 646.065 524.6 648.038 525.4C650.012 526.2 652.172 526.6 654.518 526.6C658.198 526.6 661.025 525.853 662.998 524.36C664.972 522.92 665.958 521.08 665.958 518.84C665.958 514.733 663.292 512.627 657.958 512.52L649.398 512.36C646.145 512.307 643.692 511.533 642.038 510.04C640.438 508.547 639.798 506.573 640.118 504.12L648.118 501L648.518 501.64L644.118 504.76C644.012 506.04 644.492 507 645.558 507.64C646.678 508.227 648.785 508.573 651.878 508.68L659.558 508.92C662.918 509.027 665.558 509.853 667.478 511.4C669.398 512.947 670.358 515.187 670.358 518.12C670.358 521.267 668.945 523.773 666.118 525.64C663.292 527.56 659.638 528.52 655.158 528.52ZM653.478 502.84C650.652 502.84 648.225 502.307 646.198 501.24C644.225 500.12 642.732 498.627 641.718 496.76C640.758 494.893 640.278 492.787 640.278 490.44C640.278 488.147 640.758 486.067 641.718 484.2C642.732 482.333 644.225 480.867 646.198 479.8C648.225 478.68 650.652 478.12 653.478 478.12C656.038 478.12 658.252 478.653 660.118 479.72L661.238 480.68C662.732 481.427 664.012 482.707 665.078 484.52C666.198 486.28 666.758 488.44 666.758 491C666.758 493.133 666.252 495.107 665.238 496.92C664.225 498.733 662.705 500.173 660.678 501.24C658.705 502.307 656.305 502.84 653.478 502.84ZM653.478 500.6C656.198 500.6 658.278 499.667 659.718 497.8C661.212 495.88 661.958 493.427 661.958 490.44C661.958 487.507 661.212 485.08 659.718 483.16C658.278 481.24 656.198 480.28 653.478 480.28C650.812 480.28 648.732 481.24 647.238 483.16C645.798 485.08 645.078 487.507 645.078 490.44C645.078 493.427 645.798 495.88 647.238 497.8C648.678 499.667 650.758 500.6 653.478 500.6ZM660.278 482.2L656.198 478.84H671.638V479.64L660.278 482.2Z" fill="white"/>
<path d="M317.316 575.274C321.369 576.767 324.436 578.554 326.516 580.634C328.596 582.661 329.636 585.541 329.636 589.274C329.636 595.034 327.983 598.927 324.676 600.954C321.423 602.981 317.236 603.994 312.116 603.994C307.583 603.994 303.796 603.221 300.756 601.674C297.769 600.127 295.529 598.181 294.036 595.834V580.474H294.836C294.943 584.634 295.663 588.314 296.996 591.514C298.383 594.661 300.356 597.141 302.916 598.954C305.476 600.714 308.543 601.594 312.116 601.594C316.063 601.594 319.129 600.581 321.316 598.554C323.503 596.527 324.596 593.941 324.596 590.794C324.596 588.234 323.903 586.074 322.516 584.314C321.129 582.501 318.943 581.087 315.956 580.074L304.356 575.914C301.476 574.901 299.263 573.514 297.716 571.754C296.169 569.994 295.396 567.541 295.396 564.394C295.396 562.207 295.983 560.154 297.156 558.234C298.383 556.314 300.276 554.741 302.836 553.514C305.396 552.287 308.569 551.674 312.356 551.674C315.449 551.674 318.276 552.127 320.836 553.034C323.396 553.941 325.636 555.274 327.556 557.034L328.116 570.794H327.316C326.516 565.141 324.916 560.927 322.516 558.154C320.169 555.327 316.703 553.914 312.116 553.914C308.383 553.914 305.476 554.821 303.396 556.634C301.369 558.394 300.356 560.741 300.356 563.674C300.356 565.327 300.809 566.821 301.716 568.154C302.676 569.487 304.196 570.527 306.276 571.274L317.316 575.274ZM344.006 593.594C344.006 596.207 344.486 598.101 345.446 599.274C346.459 600.394 347.899 600.954 349.766 600.954C351.313 600.954 352.539 600.554 353.446 599.754C354.406 598.954 355.046 597.994 355.366 596.874H356.086C355.873 598.847 355.126 600.527 353.846 601.914C352.566 603.301 350.699 603.994 348.246 603.994C345.313 603.994 343.126 603.141 341.686 601.434C340.246 599.727 339.526 597.274 339.526 594.074V570.074H334.486V568.234C337.206 567.594 339.233 566.341 340.566 564.474C341.953 562.554 342.806 559.754 343.126 556.074H344.006V593.594ZM348.886 567.274H355.926V570.074H343.286V568.634L348.886 567.274ZM374.939 566.554C378.246 566.554 381.072 567.381 383.419 569.034C385.766 570.687 387.526 572.954 388.699 575.834C389.926 578.661 390.539 581.807 390.539 585.274C390.539 588.794 389.926 591.967 388.699 594.794C387.526 597.621 385.766 599.861 383.419 601.514C381.072 603.167 378.246 603.994 374.939 603.994C369.926 603.994 366.059 602.234 363.339 598.714C360.672 595.194 359.339 590.714 359.339 585.274C359.339 581.754 359.926 578.581 361.099 575.754C362.272 572.927 364.032 570.687 366.379 569.034C368.726 567.381 371.579 566.554 374.939 566.554ZM374.939 601.754C378.566 601.754 381.259 600.234 383.019 597.194C384.779 594.154 385.659 590.181 385.659 585.274C385.659 580.421 384.779 576.474 383.019 573.434C381.259 570.341 378.566 568.794 374.939 568.794C371.312 568.794 368.619 570.341 366.859 573.434C365.099 576.474 364.219 580.421 364.219 585.274C364.219 590.181 365.099 594.154 366.859 597.194C368.619 600.234 371.312 601.754 374.939 601.754ZM403.896 618.954H400.296H394.696V618.154C395.976 618.154 397.096 617.781 398.056 617.034C399.016 616.287 399.496 614.954 399.496 613.034V573.194C399.496 571.274 399.016 569.941 398.056 569.194C397.096 568.447 395.976 568.074 394.696 568.074V567.274H400.296H403.896V618.954ZM403.896 576.874C404.376 573.994 405.523 571.567 407.336 569.594C409.203 567.567 411.923 566.554 415.496 566.554C419.443 566.554 422.589 567.967 424.936 570.794C427.283 573.621 428.456 578.474 428.456 585.354C428.456 592.181 427.283 597.007 424.936 599.834C422.589 602.607 419.443 603.994 415.496 603.994C411.976 603.994 409.309 602.954 407.496 600.874C405.683 598.794 404.483 596.234 403.896 593.194H401.976V576.874H403.896ZM414.456 601.754C417.443 601.754 419.709 600.447 421.256 597.834C422.803 595.221 423.576 591.061 423.576 585.354C423.576 579.594 422.776 575.407 421.176 572.794C419.629 570.127 417.389 568.794 414.456 568.794C412.643 568.794 410.936 569.381 409.336 570.554C407.736 571.727 406.429 573.567 405.416 576.074C404.403 578.527 403.896 581.621 403.896 585.354C403.896 589.034 404.403 592.101 405.416 594.554C406.429 597.007 407.736 598.821 409.336 599.994C410.936 601.167 412.643 601.754 414.456 601.754ZM303.066 626.394C303.066 624.474 302.586 623.141 301.626 622.394C300.666 621.647 299.546 621.274 298.266 621.274V620.474H303.866H307.466V665.514C307.466 667.434 307.946 668.767 308.906 669.514C309.866 670.261 310.986 670.634 312.266 670.634V671.434H306.666H303.066V626.394ZM305.066 644.874V661.194H303.146C302.559 664.234 301.359 666.794 299.546 668.874C297.733 670.954 295.066 671.994 291.546 671.994C287.599 671.994 284.453 670.607 282.106 667.834C279.759 665.007 278.586 660.181 278.586 653.354C278.586 646.474 279.759 641.621 282.106 638.794C284.453 635.967 287.599 634.554 291.546 634.554C295.119 634.554 297.813 635.567 299.626 637.594C301.493 639.567 302.666 641.994 303.146 644.874H305.066ZM292.586 669.754C294.399 669.754 296.106 669.167 297.706 667.994C299.306 666.821 300.613 665.007 301.626 662.554C302.639 660.101 303.146 657.034 303.146 653.354C303.146 649.621 302.639 646.527 301.626 644.074C300.613 641.567 299.306 639.727 297.706 638.554C296.106 637.381 294.399 636.794 292.586 636.794C289.653 636.794 287.386 638.127 285.786 640.794C284.239 643.407 283.466 647.594 283.466 653.354C283.466 659.061 284.239 663.221 285.786 665.834C287.333 668.447 289.599 669.754 292.586 669.754ZM331.502 634.554C334.808 634.554 337.635 635.381 339.982 637.034C342.328 638.687 344.088 640.954 345.262 643.834C346.488 646.661 347.102 649.807 347.102 653.274C347.102 656.794 346.488 659.967 345.262 662.794C344.088 665.621 342.328 667.861 339.982 669.514C337.635 671.167 334.808 671.994 331.502 671.994C326.488 671.994 322.622 670.234 319.902 666.714C317.235 663.194 315.902 658.714 315.902 653.274C315.902 649.754 316.488 646.581 317.662 643.754C318.835 640.927 320.595 638.687 322.942 637.034C325.288 635.381 328.142 634.554 331.502 634.554ZM331.502 669.754C335.128 669.754 337.822 668.234 339.582 665.194C341.342 662.154 342.222 658.181 342.222 653.274C342.222 648.421 341.342 644.474 339.582 641.434C337.822 638.341 335.128 636.794 331.502 636.794C327.875 636.794 325.182 638.341 323.422 641.434C321.662 644.474 320.782 648.421 320.782 653.274C320.782 658.181 321.662 662.154 323.422 665.194C325.182 668.234 327.875 669.754 331.502 669.754ZM361.508 665.514C361.508 667.434 361.961 668.767 362.868 669.514C363.828 670.261 364.948 670.634 366.228 670.634V671.434H360.708H357.908H352.308V670.634C353.588 670.634 354.708 670.261 355.668 669.514C356.628 668.767 357.108 667.434 357.108 665.514V641.194C357.108 639.274 356.628 637.941 355.668 637.194C354.708 636.447 353.588 636.074 352.308 636.074V635.274H357.908H361.508V665.514ZM354.628 623.354L359.268 618.714L363.908 623.354L359.268 628.074L354.628 623.354ZM380.959 657.034H378.879V644.954H381.279C381.812 642.181 383.092 639.754 385.119 637.674C387.146 635.594 389.732 634.554 392.879 634.554C396.239 634.554 398.719 635.594 400.319 637.674C401.972 639.754 402.799 642.767 402.799 646.714V665.514C402.799 667.434 403.252 668.767 404.159 669.514C405.119 670.261 406.239 670.634 407.519 670.634V671.434H401.999H399.119H393.519V670.634C394.799 670.634 395.919 670.261 396.879 669.514C397.839 668.767 398.319 667.434 398.319 665.514V647.354C398.319 643.727 397.786 641.061 396.719 639.354C395.652 637.647 393.892 636.794 391.439 636.794C388.346 636.794 385.812 638.447 383.839 641.754C381.919 645.061 380.959 650.154 380.959 657.034ZM380.959 665.514C380.959 667.434 381.412 668.767 382.319 669.514C383.279 670.261 384.399 670.634 385.679 670.634V671.434H380.159H377.359H371.759V670.634C373.039 670.634 374.159 670.261 375.119 669.514C376.079 668.767 376.559 667.434 376.559 665.514V641.194C376.559 639.274 376.079 637.941 375.119 637.194C374.159 636.447 373.039 636.074 371.759 636.074V635.274H377.359H380.959V665.514ZM429.658 684.954C425.818 684.954 422.565 684.421 419.898 683.354C417.232 682.287 415.258 680.821 413.978 678.954C412.698 677.141 412.138 675.087 412.298 672.794L423.658 667.514L424.138 667.994L416.698 673.674C416.485 675.434 416.912 677.034 417.978 678.474C419.045 679.914 420.565 681.034 422.538 681.834C424.512 682.634 426.672 683.034 429.018 683.034C432.698 683.034 435.525 682.287 437.498 680.794C439.472 679.354 440.458 677.514 440.458 675.274C440.458 671.167 437.792 669.061 432.458 668.954L423.898 668.794C420.645 668.741 418.192 667.967 416.538 666.474C414.938 664.981 414.298 663.007 414.618 660.554L422.618 657.434L423.018 658.074L418.618 661.194C418.512 662.474 418.992 663.434 420.058 664.074C421.178 664.661 423.285 665.007 426.378 665.114L434.058 665.354C437.418 665.461 440.058 666.287 441.978 667.834C443.898 669.381 444.858 671.621 444.858 674.554C444.858 677.701 443.445 680.207 440.618 682.074C437.792 683.994 434.138 684.954 429.658 684.954ZM427.978 659.274C425.152 659.274 422.725 658.741 420.698 657.674C418.725 656.554 417.232 655.061 416.218 653.194C415.258 651.327 414.778 649.221 414.778 646.874C414.778 644.581 415.258 642.501 416.218 640.634C417.232 638.767 418.725 637.301 420.698 636.234C422.725 635.114 425.152 634.554 427.978 634.554C430.538 634.554 432.752 635.087 434.618 636.154L435.738 637.114C437.232 637.861 438.512 639.141 439.578 640.954C440.698 642.714 441.258 644.874 441.258 647.434C441.258 649.567 440.752 651.541 439.738 653.354C438.725 655.167 437.205 656.607 435.178 657.674C433.205 658.741 430.805 659.274 427.978 659.274ZM427.978 657.034C430.698 657.034 432.778 656.101 434.218 654.234C435.712 652.314 436.458 649.861 436.458 646.874C436.458 643.941 435.712 641.514 434.218 639.594C432.778 637.674 430.698 636.714 427.978 636.714C425.312 636.714 423.232 637.674 421.738 639.594C420.298 641.514 419.578 643.941 419.578 646.874C419.578 649.861 420.298 652.314 421.738 654.234C423.178 656.101 425.258 657.034 427.978 657.034ZM434.778 638.634L430.698 635.274H446.138V636.074L434.778 638.634Z" fill="white"/>
</g>
<defs>
<clipPath id="clip0_1455_486">
<rect width="723" height="734.18" fill="white" transform="translate(0 0.26416)"/>
</clipPath>
</defs>
</svg>
