<svg width="169" height="127" viewBox="0 0 169 127" fill="none" xmlns="http://www.w3.org/2000/svg">
<path d="M84.2266 7.03809V53.7498M84.2266 53.7498H39.4798M84.2266 53.7498H133.684M84.2266 53.7498L84.6534 78.8065M84.6534 78.8065H49.8986M84.6534 78.8065V106.283M84.6534 78.8065H98.5553H119.408M15.1438 106.283V86.8065C15.1438 82.3882 18.7255 78.8065 23.1438 78.8065H49.8986M49.8986 78.8065V106.283M119.408 78.8065V106.283M119.408 78.8065H146.163C150.581 78.8065 154.163 82.3882 154.163 86.8065V106.283" stroke="white"/>
<circle cx="84.3694" cy="15.0508" r="14.5508" fill="black" stroke="white"/>
<circle cx="47.4202" cy="53.1944" r="14.5508" fill="black" stroke="white"/>
<circle cx="121.319" cy="53.1944" r="14.5508" fill="black" stroke="white"/>
<circle cx="15.9202" cy="111.194" r="14.5508" fill="black" stroke="white"/>
<circle cx="50.3948" cy="111.194" r="14.5508" fill="black" stroke="white"/>
<circle cx="84.8694" cy="111.194" r="14.5508" fill="black" stroke="white"/>
<circle cx="119.344" cy="111.194" r="14.5508" fill="black" stroke="white"/>
<circle cx="153.819" cy="111.194" r="14.5508" fill="black" stroke="white"/>
</svg>
