<?xml version="1.0" encoding="utf-8"?>
<!-- Generator: Adobe Illustrator 24.2.1, SVG Export Plug-In . SVG Version: 6.00 Build 0)  -->
<svg version="1.1" id="Ebene_1" xmlns="http://www.w3.org/2000/svg" xmlns:xlink="http://www.w3.org/1999/xlink" x="0px" y="0px"
	 viewBox="0 0 425 372.7" style="enable-background:new 0 0 425 372.7;" xml:space="preserve">
<style type="text/css">
	.st0{fill:#7894A1;}
	.st1{fill:#921F35;}
</style>
<g>
	<path class="st0" d="M200.5,246.5c-5.7,0-11.3-0.5-16.9-1.4l-4-0.7l-0.8-7.5c-0.3-2.6-0.5-5.2-0.8-7.8c-0.2-2.3-0.5-4.6-0.7-6.9
		c-0.2-1.6-0.3-3.2-0.5-4.8c-1.6-0.5-3.3-1.2-4.9-1.8c-2-0.8-4.4-1.9-6.9-3.2c-1.6,1.1-4.2,2.8-6.6,4.5l-3.8,2.5l-29.4-31.7l3.2-3.6
		c1.5-1.7,3.3-3.8,4.1-4.6c-1.8-3.8-3.4-7.8-4.8-11.8c-5.6-0.5-11.2-1.2-16.6-1.8c-2.2-0.2-4.3-0.5-6.5-0.7l-4-0.4l-0.6-4
		c-1.8-11-1.8-22.1,0.1-33l0.7-4l24.8-2.5c0.4,0,0.8-0.1,1.2-0.1c0.4,0,0.7-0.1,1.1-0.1c1-2.7,2.1-5.4,3.2-8l0.7-1.7
		c0.3-0.8,0.7-1.4,1-2c0,0-0.1-0.1-0.1-0.1l-0.3-0.3l-3.1-3.9c-3.2-4-6.5-8.1-9.8-12.1c-2.7-3.3-2.6-7.3,0.3-10.5
		c1-1.1,1.9-2.2,2.9-3.4c1.6-2,3.3-4,5.3-5.9c2.5-2.5,5.2-4.7,7.8-6.9c1.1-0.9,2.3-1.9,3.4-2.9c2.8-2.6,7.1-2.7,9.9-0.1
		c0.8,0.6,1.6,1.3,2.4,1.9c1.3,1.1,2.6,2.1,4,3.2c1.7,1.4,3.4,2.8,5.1,4.2c1.7,1.4,3.4,2.8,5,4.2c3.8-1.8,7.7-3.4,11.7-4.8
		c0.6-5.5,1.2-11,1.8-16.5l1.2-10.6l4-0.6c10.9-1.8,22-1.7,32.9,0.1l4,0.7l2.5,24.7c0.1,0.8,0.2,1.6,0.3,2.4c2.6,0.9,5.4,1.9,8.1,3
		c1.3,0.5,2.5,1.1,3.7,1.8c1.3-1.1,2.6-2.2,3.9-3.3c2.7-2.3,5.4-4.5,8.2-6.8c1.7-1.4,3.6-2.8,5.6-4l0.3-0.2l0.4-0.2
		c2.3-1,5-0.8,7.1,0.6l0.3,0.2l0.3,0.3c5.5,4.8,17.6,17.5,19.6,19.6c1.3,1.2,2.1,2.8,2.2,4.6c0.2,1.9-0.4,3.8-1.7,5.2
		c-0.1,0.1-0.1,0.1-0.2,0.2c-4.1,5-8.2,10.1-12.3,15.2c-0.3,0.4-0.6,0.8-1,1.1c-0.1,0.1-0.2,0.2-0.3,0.3c1.6,3.3,2.9,6.7,4.1,10
		c0.2,0.6,0.4,1.2,0.7,1.8c5.6,0.5,11.2,1.2,16.6,1.8c2.1,0.2,4.3,0.5,6.5,0.7l4,0.4l0.6,4c1.8,10.9,1.7,22-0.1,33l-0.7,4l-22.8,2.3
		c-0.5,0.1-1.1,0.1-1.6,0.2c-0.9,0.1-1.8,0.2-2.7,0.3c-0.3,0.7-0.5,1.4-0.8,2.1c-0.7,2-1.4,4-2.2,6c-0.4,1.1-0.9,2-1.4,2.8
		c-0.2,0.3-0.3,0.6-0.4,0.8c1,1.2,2,2.4,3,3.7c2,2.4,4,4.9,5.9,7.3c1.3,1.6,2.5,3.2,3.7,4.8l1,1.3c2.3,2.8,2.1,6.9-0.5,9.5
		c-4.9,5.2-17.2,17.2-19.4,19.3c-1.2,1.3-2.8,2.1-4.6,2.2c-1.9,0.2-3.8-0.4-5.2-1.7c-0.1-0.1-0.2-0.1-0.2-0.2
		c-0.9-0.8-1.9-1.5-2.8-2.2c-1.2-1-2.5-2-3.7-3c-2.8-2.2-5.5-4.5-8.2-6.8l-1.9-1.5c-3.8,1.8-7.8,3.4-11.7,4.8
		c-0.6,5.5-1.2,11-1.8,16.5l-1.2,10.6l-4,0.6C211.2,246,205.8,246.5,200.5,246.5z M189.3,235.2c7.2,0.9,14.4,0.9,21.6,0.1l0.3-2.5
		c0.6-5.8,1.3-11.5,1.9-17.3c0.5-4.8,2.5-6.4,6.3-7.7l0.1,0c4-1.4,8-3,11.9-4.8c3.5-1.7,6.9-1.4,9.8,1.1l2.6,2.2
		c2.7,2.3,5.4,4.5,8.2,6.7c1.2,1,2.4,1.9,3.6,2.9c0.3,0.2,0.6,0.5,0.9,0.7c3.5-3.4,10.8-10.5,15.2-15.1c-1-1.3-1.9-2.5-2.8-3.6
		c-2-2.4-3.9-4.8-5.9-7.2c-1.2-1.5-2.5-3-3.7-4.5l-0.1-0.1c-0.5-0.6-1.6-1.9-1.8-3.8c-0.2-1.6,0-3.1,0.4-4.7l0.2-0.5
		c0.4-1,0.9-1.9,1.4-2.7c0.3-0.6,0.6-1.1,0.8-1.6c0.7-1.8,1.4-3.7,2.1-5.7c0.4-1.1,0.8-2.3,1.2-3.4c1.3-3.6,3.7-5.5,7.1-5.6
		c1.3-0.1,2.6-0.2,4-0.4c0.6-0.1,1.1-0.1,1.7-0.2l14.7-1.5c0.9-7.2,0.9-14.4,0.1-21.6c-0.8-0.1-1.6-0.2-2.4-0.3
		c-6-0.7-11.6-1.3-17.3-1.9c-3.7-0.2-6.8-2.7-7.8-6.3c-0.3-0.8-0.6-1.5-0.9-2.3c-1.3-3.4-2.4-6.6-3.9-9.6c-1.8-3.6-1.5-6.9,0.9-10
		c0.4-0.5,0.8-0.9,1.2-1.4c0.2-0.3,0.5-0.6,0.7-0.8c3.6-4.4,7.1-8.8,10.7-13.2c-3.4-3.6-10.6-11-15.2-15.3c-0.8,0.6-1.6,1.1-2.3,1.8
		c-2.7,2.2-5.4,4.5-8.1,6.7c-1.5,1.3-3,2.5-4.5,3.8c-0.7,0.6-1.4,1-2.1,1.4c-2.7,1.6-6,1.5-8.5-0.4c-1-0.6-2.1-1.2-3.2-1.6
		c-2.9-1.2-5.9-2.2-8.8-3.2c-3.6-1-6-4.3-5.9-8c0-0.8-0.1-1.7-0.3-2.5l0-0.3l-1.7-16.7c-7.2-0.9-14.4-0.9-21.6-0.1l-0.3,2.5
		c-0.6,5.7-1.3,11.4-1.9,17.1c-0.5,4.6-1.9,6.4-5.9,7.8l-0.3,0.1c-3.9,1.3-7.8,2.9-11.5,4.6c-3.4,2.1-7.8,1.6-10.7-1.1
		c-1.8-1.5-3.7-3-5.5-4.5c-1.7-1.4-3.4-2.8-5.1-4.2c-1.3-1-2.6-2.1-3.8-3.1c-0.2-0.2-0.5-0.4-0.7-0.6c-0.6,0.5-1.1,0.9-1.7,1.4
		c-2.6,2.2-5,4.2-7.2,6.4c-1.6,1.5-3,3.3-4.5,5.1c-0.6,0.7-1.2,1.4-1.8,2.1c2.9,3.5,5.7,7.1,8.5,10.6l3,3.7c0.8,0.9,1.5,1.8,2.1,2.8
		c1,1.8,1.3,3.8,1,5.7l-0.1,0.4l-0.1,0.4c-0.4,1.2-0.9,2.2-1.4,3c-0.2,0.4-0.4,0.8-0.5,1l-0.7,1.7c-1.2,2.7-2.2,5.3-3.2,7.9
		c-1.3,3.8-3,5.9-7.9,6.4c-0.5,0-1.1,0.1-1.6,0.2c-0.5,0.1-1,0.1-1.4,0.2l-16.7,1.7c-0.9,7.2-0.9,14.4-0.1,21.6
		c0.8,0.1,1.6,0.2,2.4,0.3c5.7,0.7,11.6,1.3,17.4,1.9c5.6,0.5,7.1,4.7,7.7,6.1l0.1,0.2c1.3,4,2.9,7.9,4.8,11.8
		c2.8,5.4-0.1,9.1-1.1,10.4c-0.2,0.3-0.9,1-1.6,1.8l16.7,18c4.4-3,4.8-3.2,5-3.3c2.6-1.4,5.6-1.2,7.9,0.3c2.4,1.3,5,2.4,7,3.2
		c1.8,0.8,3.7,1.4,5.6,2c3.2,0.9,5.4,3.7,5.5,7c0.2,2.1,0.4,4.2,0.6,6.3c0.2,2.3,0.5,4.6,0.7,6.9C188.8,230.4,189,232.8,189.3,235.2
		z M267.9,109.1L267.9,109.1L267.9,109.1z"/>
</g>
<g>
	<path class="st0" d="M334.3,140.6c-0.8,0-1.6-0.2-2.4-0.6c-3.8-1.6-7.7-3.2-11.5-4.7c-2.3-0.8-3.8-3-3.6-5.4c0-2.8-0.1-5.6-0.1-8.4
		c0-2.3-0.1-4.6-0.1-6.9c-0.3-0.3-0.6-0.6-0.8-0.9c-5.1,0-10.3,0-15.4,0c-2.4,0.1-4.6-1.3-5.4-3.6c-1.6-3.8-3.2-7.7-4.8-11.6
		c-1-2.1-0.5-4.7,1.2-6.2c2-2,3.9-4,5.8-6c1.7-1.7,3.3-3.4,5-5.1c0-0.5-0.1-0.9-0.1-1.2c-1.7-1.7-3.4-3.4-5.1-5.1
		c-1.9-1.9-3.8-3.8-5.8-5.8c-1.7-1.6-2.3-4-1.4-6.2c5.1-13.8,35.3-38.4,41.2-41.7c2.2-1.3,5-0.9,6.7,1c2.1,2,4.2,4.1,6.2,6.1
		c1.6,1.5,3.2,3.1,4.7,4.6c0.5,0,1,0,1.4-0.1c1.7-1.7,3.4-3.4,5.1-5.1c1.8-1.8,3.7-3.7,5.5-5.5c1.6-1.9,4.3-2.4,6.5-1.3
		c3.7,1.6,7.6,3.1,11.4,4.7c2.3,0.8,3.8,3,3.7,5.4c0,3.1,0.1,6.1,0.1,9.2c0,2.2,0.1,4.3,0.1,6.5c0.3,0.3,0.5,0.5,0.7,0.6
		c5.1,0,10.3,0,15.4,0c2.5-0.1,4.8,1.4,5.6,3.8c1.6,3.8,3.1,7.6,4.7,11.3c1.1,2.2,0.6,4.8-1.2,6.4c-2.2,2.3-4.5,4.5-6.7,6.8
		c-1.4,1.5-2.9,2.9-4.3,4.4c0.1,0.4,0.1,0.8,0.2,1c2,2,3.9,3.9,5.9,5.9c1.6,1.6,3.3,3.3,4.9,4.9c1.8,1.6,2.4,4.2,1.4,6.4
		c-1.6,3.9-3.2,7.8-4.8,11.6c-0.8,2.2-3,3.7-5.3,3.6c-5.2,0.1-10.4,0.1-15.5,0.2c-0.2,0.2-0.5,0.4-0.7,0.6c0,2.3,0,4.5,0,6.8
		c0,2.9,0,5.8,0,8.6c0.2,2.5-1.3,4.7-3.7,5.5c-3.8,1.6-7.6,3.2-11.4,4.7c-2.2,1.1-4.8,0.6-6.4-1.2c-3.6-3.6-7.4-7.2-11-10.8
		c-0.3,0-0.6,0-1.1-0.1c-1.5,1.5-2.9,2.9-4.4,4.4c-2.2,2.2-4.4,4.4-6.5,6.5C337.3,140,335.8,140.6,334.3,140.6z M325.7,127.8
		c2.6,1,5.2,2.1,7.7,3.2c1.7-1.7,3.4-3.4,5-5.1c1.7-1.7,3.4-3.4,5.1-5.1c1.2-1.3,3-2,4.8-1.9c4.2,0.2,5.8,0.3,7.2,1.7
		c3.5,3.4,7.1,6.9,10.6,10.3c2.5-1.1,5.1-2.1,7.7-3.2c0-2.2,0-4.4,0-6.6c0-2.5,0-5.1,0-7.6c-0.1-2.1,0.7-4,2.3-5.3
		c0.1-0.1,0.3-0.3,0.5-0.4c2.2-1.8,3.5-3,5.4-3c4.9-0.1,9.9-0.2,14.8-0.2c1-2.5,2.1-5.1,3.2-7.7c-1.2-1.2-2.3-2.3-3.5-3.5
		c-2.2-2.2-4.3-4.3-6.5-6.5c-1.3-1.3-2-3.3-2.3-7.2c-0.2-1.9,0.5-3.7,1.8-5c1.7-1.7,3.4-3.5,5.1-5.2c1.7-1.8,3.5-3.6,5.2-5.3
		c-1.1-2.5-2.1-5.1-3.2-7.7c-4.8,0-9.6,0-14.5,0c0,0,0,0,0,0c-2,0-3.7-1.2-6.5-3.6l-0.1-0.1c-1.3-1.1-2.1-2.9-2.1-4.7
		c0-2.5-0.1-5.1-0.1-7.6c0-2.4-0.1-4.8-0.1-7.1c-2.6-1-5.2-2.1-7.7-3.2c-1.4,1.4-2.7,2.7-4.1,4.1c-2,2-3.9,3.9-5.9,5.9
		c-1.2,1.2-2.9,1.8-6,1.9c-3.3,0.2-5-0.2-6.2-1.5c-1.9-1.9-3.9-3.8-5.8-5.7c-1.5-1.4-3-2.9-4.5-4.3c-7.2,5.1-28.8,23.7-34.2,33.9
		c1.4,1.4,2.8,2.8,4.3,4.2c2,2,4,4,5.9,5.9c1.5,1.5,1.7,3.6,1.9,7l0,0.3c0.1,1.8-0.6,3.6-1.8,4.8c-1.9,2-3.8,3.9-5.8,5.9
		c-1.5,1.5-2.9,3-4.4,4.5c1.1,2.6,2.1,5.1,3.2,7.7c4.7,0,9.5,0,14.2,0c1.9-0.1,3.8,0.7,5.1,2.2l0.4,0.4c2.2,2.4,3.4,3.9,3.4,6
		c0,2.7,0.1,5.4,0.1,8.1C325.7,123.5,325.7,125.6,325.7,127.8z M381.9,114.9C381.9,114.9,381.9,114.9,381.9,114.9
		C381.9,114.9,381.9,114.9,381.9,114.9z M381.6,45.7L381.6,45.7C381.7,45.8,381.6,45.8,381.6,45.7z M349.6,110
		c-11.6,0-22.6-6.8-27.3-18.2c-3-7.3-3-15.3,0-22.6s8.7-13,16-16c15-6.3,32.4,0.9,38.6,15.9l0,0.1c3,7.3,3,15.3,0,22.6
		c-3,7.3-8.7,13-16,16C357.2,109.3,353.3,110,349.6,110z M349.5,59.9c-2.6,0-5.3,0.5-7.9,1.6c-5.1,2.1-9,6.1-11.1,11.1
		c-2.1,5.1-2.1,10.7,0,15.7c4.4,10.4,16.4,15.4,26.9,11.1c5.1-2.1,9-6,11.1-11.1s2.1-10.7,0-15.7l4.1-1.8l-4.1,1.7
		C365.2,64.7,357.6,59.9,349.5,59.9z"/>
</g>
<g>
	<path class="st0" d="M201.1,197.6c-28.2,0-51.1-22.9-51.1-51.1c0-28.2,22.9-51.1,51.1-51.1s51.1,22.9,51.1,51.1
		C252.3,174.6,229.4,197.6,201.1,197.6z M201.1,106.5c-22,0-39.9,17.9-39.9,39.9c0,22,17.9,39.9,39.9,39.9s39.9-17.9,39.9-39.9
		C241,124.4,223.1,106.5,201.1,106.5z"/>
</g>
<polygon class="st1" points="405.9,319.9 330.4,258.6 338.5,290.4 281.8,235 271.7,225.8 326.2,269.1 318.3,238.2 396.1,310.9 "/>
<polygon class="st1" points="7.9,83.2 53.5,87.5 42.1,77.1 78.7,84 85.1,85.1 52.5,82.3 63.6,92.3 14.1,84.1 "/>
<polygon class="st1" points="87.6,2.8 96.1,32.4 99.8,22.7 104.5,47.3 105.5,51.5 99.1,30.4 95.6,39.8 88.5,6.9 "/>
<polygon class="st1" points="285.7,300.6 277.9,271 274,280.6 269.9,256 269,251.8 274.9,272.9 278.6,263.6 284.9,296.5 "/>
<polygon class="st1" points="1.6,4.9 60.9,52.2 54.4,27.4 98.9,70.2 106.9,77.3 64.1,44 70.5,67.9 9.3,11.9 "/>
<g>
	<path class="st0" d="M147.5,358.3c-1.7,0-3.4-0.7-4.6-2c-4-4.1-8.2-8.3-12.3-12.4c-0.1,0-0.3,0-0.4,0c-0.2,0-0.4,0-0.6,0
		c-1.7,1.7-3.4,3.3-5.2,5c-2.4,2.4-4.9,4.7-7.3,7.1c-1.8,2-4.8,2.5-7.1,1.3c-4.2-1.9-8.5-3.7-12.7-5.5c-2.5-0.9-4.1-3.4-4-6.1
		c0-3.1,0-6.3,0-9.4c0-2.6,0-5.2,0-7.8c-0.3-0.3-0.6-0.6-0.9-0.9c-2.7,0-5.4-0.1-8.1-0.1c-3,0-6-0.1-9.1-0.1c-2.7,0.1-5.1-1.6-6-4.1
		c-1.7-4.3-3.4-8.6-5.1-12.9c-1.6-3.2,0.5-5.4,4.4-9.7c1-1,3-3.3,4.1-4.3l0,0c2.2-2.2,2.6-2.6,3.1-3c0.4-0.4,0.7-0.7,2.2-2.2
		c0-0.4,0-0.8,0-1.2c-1.9-1.9-3.8-3.9-5.6-5.8c-2.1-2.2-4.2-4.3-6.3-6.5c-2-1.8-2.5-4.7-1.3-7.1c1.3-3,2.6-6,3.9-9l1.7-4
		c0.2-0.4,0.4-0.8,0.5-1l1.4-2.6l3-0.1l5.2,0c4.4,0,8.7,0,13.1,0.1c0.3-0.3,0.5-0.5,0.8-0.8c0-2.4,0.1-4.9,0.1-7.3
		c0.1-3.2,0.1-6.5,0.1-9.7c-0.2-2.8,1.6-5.4,4.3-6.3c4.2-1.6,8.5-3.3,12.7-5c2.4-1.1,5.3-0.5,7.1,1.4c2.3,2.3,4.6,4.6,6.9,7
		c1.8,1.8,3.6,3.6,5.4,5.5c0.3,0,0.6,0,1,0c2.1-2,4.1-4,6.2-6c2.1-2,4.1-4,6.2-6c1.9-2,4.8-2.6,7.3-1.3c4.2,1.8,8.4,3.7,12.6,5.4
		c2.5,0.9,4.2,3.4,4,6.1c0,3.4,0,6.8-0.1,10.2c0,2.4,0,4.9,0,7.3c0.2,0.2,0.4,0.4,0.6,0.6c2.6,0,5.2,0.1,7.8,0.1
		c3.2,0.1,6.4,0.1,9.6,0.1c2.8-0.1,5.3,1.7,6.1,4.3c1.6,4.2,3.3,8.4,5,12.6c1.2,2.4,0.6,5.3-1.4,7.1c-2.5,2.5-5,5-7.6,7.5
		c-1.6,1.6-3.3,3.3-4.9,4.9c0,0.3,0,0.6,0,0.8c2.3,2.3,4.5,4.6,6.7,6.9c1.8,1.8,3.6,3.7,5.4,5.5c2,1.8,2.6,4.7,1.4,7.1
		c-1.9,4.2-3.7,8.6-5.5,12.8c-0.9,2.5-3.4,4.1-6,3.9c-5.8,0-11.7,0-17.6,0c0,0,0,0-0.1,0.1c-0.2,0.2-0.3,0.4-0.5,0.5
		c0,2.6-0.1,5.1-0.1,7.7c0,3.2-0.1,6.4-0.1,9.6c0.1,2.7-1.6,5.3-4.2,6.1c-4.2,1.6-8.5,3.4-12.8,5.1
		C149.3,358.2,148.4,358.3,147.5,358.3z M131,333.9c0.4,0,0.8,0,1.3,0c1.5,0.1,3.1,0.7,4.3,1.7l0.3,0.3c3.9,3.9,7.8,7.8,11.6,11.7
		c2.9-1.2,5.8-2.3,8.6-3.4c0-2.5,0.1-4.9,0.1-7.4c0-2.8,0.1-5.7,0.1-8.5c-0.1-2.3,0.9-4.5,2.7-5.9c0.2-0.1,0.4-0.4,0.7-0.7
		c0.4-0.4,0.9-0.9,1.4-1.4c1.1-1,2.6-1.6,4.2-1.7l0.4,0c5.5,0,11.1,0,16.5,0c1.2-2.8,2.4-5.7,3.7-8.5c-1.3-1.3-2.5-2.6-3.8-3.9
		c-2.3-2.4-4.7-4.8-7-7.2c-1.9-1.7-2.9-4.2-2.5-6.8c0-0.4,0-0.9,0-1.4c-0.2-2.1,0.6-4.2,2.1-5.6c1.9-1.9,3.9-3.8,5.8-5.7
		c2-2,3.9-3.9,5.9-5.8c-1.2-2.9-2.3-5.8-3.4-8.6c-2.5,0-4.9-0.1-7.4-0.1c-2.9,0-5.7-0.1-8.6-0.1c-2.4,0.1-4.6-0.9-6.1-2.8
		c-0.4-0.4-0.8-0.9-1.3-1.3c-1.5-1.3-2.4-3.3-2.3-5.3c0-2.8,0-5.7,0-8.5c0-2.6,0-5.3,0-7.9c-2.8-1.2-5.7-2.4-8.5-3.7
		c-1.5,1.5-3.1,3-4.6,4.4c-2.2,2.1-4.4,4.2-6.5,6.4c-1.7,1.9-4.2,2.8-6.8,2.5c-0.5-0.1-1-0.1-1.5,0c-2,0.2-4.1-0.6-5.5-2.1
		c-2.1-2.1-4.2-4.2-6.3-6.4c-1.7-1.8-3.5-3.5-5.2-5.3c-2.9,1.2-5.8,2.3-8.6,3.4c0,2.5-0.1,5.1-0.1,7.6c0,2.8-0.1,5.6-0.1,8.4
		c0,2.2-0.9,4.3-2.6,5.6c-0.6,0.5-1.1,1-1.6,1.5c-1.4,1.6-3.5,2.5-5.7,2.4c-4.7,0-9.3-0.1-14-0.1l-1.9,0l-0.7,1.6
		c-1,2.3-2,4.6-3,6.9c1.6,1.6,3.1,3.2,4.7,4.9c2.1,2.2,4.3,4.4,6.4,6.7c1.5,1.4,2.2,3.5,2,5.5c0,0.8-0.1,1.8,0,2.8
		c0.1,2-0.7,4-2.1,5.4c-2.2,2.1-2.6,2.6-3,3c-0.4,0.4-0.8,0.8-3.1,3.1l-0.3,0.3c-0.8,0.8-3.4,3.5-5,5.3c1.1,2.8,2.2,5.6,3.3,8.4
		c2.2,0,4.5,0.1,6.7,0.1c3,0,6.1,0.1,9.1,0.1c2.1-0.1,4.2,0.9,5.6,2.5c0.6,0.7,1.2,1.3,1.8,1.9c1.5,1.4,2.4,3.4,2.3,5.4
		c0,3,0,6,0,8.9c0,2.4,0,4.8,0,7.1c2.8,1.2,5.7,2.4,8.5,3.7c1.9-1.8,3.7-3.6,5.6-5.4c2-1.9,4-3.8,5.9-5.8c1.4-1.4,3.4-2.2,5.4-2.1
		c0.4,0,0.8,0,1.2,0C130.4,333.9,130.7,333.9,131,333.9z M131.6,343.9C131.6,343.9,131.7,343.9,131.6,343.9
		C131.7,343.9,131.6,343.9,131.6,343.9z M166.2,330.2C166.2,330.2,166.2,330.2,166.2,330.2C166.2,330.2,166.2,330.2,166.2,330.2z
		 M168.6,328C168.6,328,168.5,328.1,168.6,328C168.5,328.1,168.6,328,168.6,328z M73.5,306.3L73.5,306.3c0,0.1,0,0.1,0,0.1
		C73.6,306.4,73.5,306.3,73.5,306.3z M79.5,303.8L79.5,303.8C79.4,303.8,79.4,303.8,79.5,303.8z M183.5,293.3
		C183.4,293.3,183.4,293.4,183.5,293.3C183.4,293.4,183.5,293.3,183.5,293.3z M169.7,255.7C169.7,255.8,169.8,255.8,169.7,255.7
		C169.8,255.8,169.7,255.8,169.7,255.7z M129.6,238.6C129.6,238.6,129.6,238.6,129.6,238.6C129.6,238.6,129.6,238.6,129.6,238.6z
		 M130.9,324.2c-13.1,0-25.5-7.9-30.6-20.8c-6.7-16.9,1.6-36,18.4-42.7c8.2-3.2,17.1-3.1,25.2,0.4c8.1,3.5,14.3,9.9,17.5,18l0,0.1
		c6.7,16.9-1.6,36.1-18.5,42.7C139,323.4,134.9,324.2,130.9,324.2z M130.8,268.3c-2.8,0-5.7,0.5-8.4,1.6
		c-5.7,2.3-10.2,6.6-12.6,12.2c-2.4,5.6-2.5,11.8-0.3,17.5c4.7,11.7,18,17.5,29.7,12.8c11.7-4.6,17.5-18,12.9-29.7l4.6-1.9l-4.6,1.8
		C148.5,273.8,139.9,268.3,130.8,268.3z"/>
</g>
</svg>
