<?xml version="1.0" encoding="utf-8"?>
<!-- Generator: Adobe Illustrator 25.4.0, SVG Export Plug-In . SVG Version: 6.00 Build 0)  -->
<svg version="1.1" id="Layer_1" xmlns="http://www.w3.org/2000/svg" xmlns:xlink="http://www.w3.org/1999/xlink" x="0px" y="0px"
	 viewBox="0 0 711.2 238.1" style="enable-background:new 0 0 711.2 238.1;" xml:space="preserve">
<style type="text/css">
	.st0{fill:none;stroke:#000000;stroke-width:1.712;}
</style>
<g>
	<path d="M569.7,94.1l13.1-24.5l12.8,24.5H569.7z M587.9,62.3h-10.6l-26.8,50.6h9.2l5.8-11.3h34.1l5.8,11.3h9.2L587.9,62.3z
		 M491.9,105.4V69.9h24.3c5.6,0,10.2,1.7,13.7,5c3.5,3.3,5.2,7.7,5.2,13.1c0,5.1-1.6,9.3-4.9,12.5c-3.2,3.3-7.4,4.9-12.4,4.9H491.9z
		 M483.5,62.3v50.6h33.7c7.5,0,13.8-2.2,18.9-6.7c5.5-4.8,8.2-10.8,8.2-18c0-7.9-2.6-14.2-7.7-18.8c-5.2-4.7-12.1-7-20.9-7h-32.2
		V62.3z M454,101.4c-4.3,3.5-10.1,5.3-17.2,5.3c-7.2,0-13-1.8-17.3-5.3s-6.5-8.1-6.5-13.9c0-5.5,2.2-10.1,6.6-13.7
		c4.4-3.6,10.2-5.4,17.2-5.4c6.4,0,11.8,1.6,16.2,4.8c5,3.7,7.6,8.5,7.6,14.4C460.5,93.3,458.4,97.9,454,101.4 M459,67.6
		c-6-4.6-13.4-6.9-22.2-6.9c-8.8,0-16.2,2.3-22.2,6.9c-6.9,5.2-10.4,11.9-10.4,20c0,8.3,3.4,14.9,10.2,20.1c6,4.5,13.4,6.8,22.4,6.8
		c8.9,0,16.3-2.2,22.2-6.7c6.8-5.1,10.2-11.8,10.2-20.1C469.3,79.5,465.8,72.8,459,67.6 M389.9,62.3h-8.4v41.5l-38.7-41.5h-10.4
		v50.6h8.4V71.4l38.7,41.5h10.4V62.3z M315.9,62.3h-8.4v32.2c0,4-1.7,7-5.1,9.1s-8.5,3.1-15.1,3.1s-11.7-1-15.1-3.1
		c-3.5-2.1-5.2-5.1-5.2-9.1V62.3h-8.4v34.3c0,5.2,2.6,9.5,7.7,12.8c5.3,3.4,12.3,5.1,21.1,5.1c8.7,0,15.7-1.7,20.9-5.1
		c5.1-3.3,7.7-7.5,7.7-12.8V62.3H315.9z"/>
	<path d="M615.6,169.4c-2.3-1.5-5.1-2.3-8.4-2.3c-2.5,0-4.4,0.4-5.8,1.3c-1.4,0.8-2.1,2-2.1,3.5c0,1.4,0.6,2.4,1.8,3
		c1,0.5,2.8,0.9,5.4,1c2.9,0.2,4.7,0.4,5.3,0.5c1.3,0.3,1.9,1,1.9,2c0,0.8-0.5,1.5-1.4,2c-1,0.5-2.4,0.8-4.2,0.8
		c-2.8,0-5.4-0.7-7.9-2.2l-1.4,1.9c2.2,1.8,5.3,2.6,9.3,2.6c2.7,0,4.8-0.5,6.3-1.4s2.2-2.2,2.2-3.8c0-1.3-0.5-2.3-1.4-3
		s-2.4-1.2-4.3-1.4c-0.7-0.1-2.1-0.2-4.3-0.3c-1.5-0.1-2.5-0.2-3.2-0.5c-0.9-0.3-1.4-0.8-1.4-1.5s0.4-1.2,1.3-1.6
		c0.8-0.4,2.1-0.6,3.7-0.6c2.4,0,4.8,0.6,7.1,1.8L615.6,169.4z M581.3,174.8v-5h9.1c2.2,0,3.2,0.9,3.2,2.6c0,1.6-1,2.4-3,2.4H581.3z
		 M592.2,177c1.2-0.2,2.2-0.7,2.9-1.4c0.8-0.8,1.1-1.9,1.1-3.2c0-1.5-0.5-2.7-1.4-3.6c-0.9-0.9-2.2-1.3-3.9-1.3h-12.3v15.6h2.6v-6
		h7.9l4.2,5.9h3L592.2,177z M573.5,167.4h-2.6V183h2.6V167.4z M554.1,177.2l4-7.6l4,7.6H554.1z M559.7,167.4h-3.3l-8.2,15.6h2.8
		l1.8-3.5h10.5l1.8,3.5h2.8L559.7,167.4z M547.5,167.4h-15.7V183h2.6v-6.9h9.1v-2.3h-9.1v-4h13.1V167.4z M528.7,167.4H513V183h2.6
		v-6.9h9.1v-2.3h-9.1v-4h13.1V167.4z M496.2,177.2l4-7.6l4,7.6H496.2z M501.8,167.4h-3.3l-8.2,15.6h2.8l1.8-3.5h10.5l1.8,3.5h2.8
		L501.8,167.4z M483.1,167.4h-17.5v2.3h7.4V183h2.6v-13.3h7.4v-2.3H483.1z M462.6,167.4H460v12.8l-11.9-12.8h-3.2V183h2.6v-12.8
		l11.9,12.8h3.2V167.4z M441,180.7h-13.7v-4.6h9.1v-2.3h-9.1v-4h13.1v-2.3h-15.7v15.6H441L441,180.7L441,180.7z M419.5,167.4h-3.2
		l-7.5,9.4l-7.5-9.4h-3.2V183h2.6v-12.7h0.1l8,10.2l8.1-10.2h0.1V183h2.6v-15.6H419.5z M381.3,177.2l4-7.6l4,7.6H381.3z
		 M386.9,167.4h-3.3l-8.2,15.6h2.8l1.8-3.5h10.5l1.8,3.5h2.8L386.9,167.4z M372.5,167.4h-3.3l-7.5,9.4l-7.5-9.4H351V183h2.6v-12.7
		h0.1l8,10.2l8.1-10.2h0.1V183h2.6L372.5,167.4L372.5,167.4z M331.9,174.8v-5h9.1c2.2,0,3.2,0.9,3.2,2.6c0,1.6-1,2.4-3,2.4H331.9z
		 M342.8,177c1.2-0.2,2.2-0.7,2.9-1.4c0.8-0.8,1.1-1.9,1.1-3.2c0-1.5-0.5-2.7-1.4-3.6c-0.9-0.9-2.2-1.3-3.9-1.3h-12.3v15.6h2.6v-6
		h7.9l4.2,5.9h3L342.8,177z M312.5,177.2l4-7.6l4,7.6H312.5z M318.2,167.4h-3.3l-8.2,15.6h2.8l1.8-3.5h10.5l1.8,3.5h2.8L318.2,167.4
		z M304,169.4c-2.3-1.5-5.1-2.3-8.4-2.3c-2.5,0-4.4,0.4-5.8,1.3c-1.4,0.8-2.1,2-2.1,3.5c0,1.4,0.6,2.4,1.8,3c1,0.5,2.8,0.9,5.4,1
		c2.9,0.2,4.7,0.4,5.3,0.5c1.3,0.3,1.9,1,1.9,2c0,0.8-0.5,1.5-1.4,2c-1,0.5-2.4,0.8-4.2,0.8c-2.8,0-5.4-0.7-7.9-2.2l-1.4,1.9
		c2.2,1.8,5.3,2.6,9.3,2.6c2.7,0,4.8-0.5,6.3-1.4s2.2-2.2,2.2-3.8c0-1.3-0.5-2.3-1.4-3s-2.4-1.2-4.3-1.4c-0.7-0.1-2.1-0.2-4.3-0.3
		c-1.5-0.1-2.5-0.2-3.2-0.5c-0.9-0.3-1.4-0.8-1.4-1.5s0.4-1.2,1.3-1.6c0.8-0.4,2.1-0.6,3.7-0.6c2.4,0,4.8,0.6,7.1,1.8L304,169.4z
		 M283.5,167.4h-2.6V183h2.6V167.4z M260.6,180.7v-10.9h7.5c1.7,0,3.1,0.5,4.2,1.5c1.1,1,1.6,2.4,1.6,4s-0.5,2.9-1.5,3.9
		s-2.3,1.5-3.8,1.5H260.6z M258,167.4V183h10.4c2.3,0,4.2-0.7,5.8-2.1c1.7-1.5,2.5-3.3,2.5-5.6c0-2.4-0.8-4.4-2.4-5.8
		c-1.6-1.4-3.7-2.2-6.4-2.2H258V167.4z"/>
	<path d="M615.6,169.4c-2.3-1.5-5.1-2.3-8.4-2.3c-2.5,0-4.4,0.4-5.8,1.3c-1.4,0.8-2.1,2-2.1,3.5c0,1.4,0.6,2.4,1.8,3
		c1,0.5,2.8,0.9,5.4,1c2.9,0.2,4.7,0.4,5.3,0.5c1.3,0.3,1.9,1,1.9,2c0,0.8-0.5,1.5-1.4,2c-1,0.5-2.4,0.8-4.2,0.8
		c-2.8,0-5.4-0.7-7.9-2.2l-1.4,1.9c2.2,1.8,5.3,2.6,9.3,2.6c2.7,0,4.8-0.5,6.3-1.4s2.2-2.2,2.2-3.8c0-1.3-0.5-2.3-1.4-3
		s-2.4-1.2-4.3-1.4c-0.7-0.1-2.1-0.2-4.3-0.3c-1.5-0.1-2.5-0.2-3.2-0.5c-0.9-0.3-1.4-0.8-1.4-1.5s0.4-1.2,1.3-1.6
		c0.8-0.4,2.1-0.6,3.7-0.6c2.4,0,4.8,0.6,7.1,1.8L615.6,169.4z M581.3,174.8v-5h9.1c2.2,0,3.2,0.9,3.2,2.6c0,1.6-1,2.4-3,2.4H581.3z
		 M592.2,177c1.2-0.2,2.2-0.7,2.9-1.4c0.8-0.8,1.1-1.9,1.1-3.2c0-1.5-0.5-2.7-1.4-3.6c-0.9-0.9-2.2-1.3-3.9-1.3h-12.3v15.6h2.6v-6
		h7.9l4.2,5.9h3L592.2,177z M573.5,167.4h-2.6V183h2.6V167.4z M554.1,177.2l4-7.6l4,7.6H554.1z M559.7,167.4h-3.3l-8.2,15.6h2.8
		l1.8-3.5h10.5l1.8,3.5h2.8L559.7,167.4z M547.5,167.4h-15.7V183h2.6v-6.9h9.1v-2.3h-9.1v-4h13.1V167.4z M528.7,167.4H513V183h2.6
		v-6.9h9.1v-2.3h-9.1v-4h13.1V167.4z M496.2,177.2l4-7.6l4,7.6H496.2z M501.8,167.4h-3.3l-8.2,15.6h2.8l1.8-3.5h10.5l1.8,3.5h2.8
		L501.8,167.4z M483.1,167.4h-17.5v2.3h7.4V183h2.6v-13.3h7.4v-2.3H483.1z M462.6,167.4H460v12.8l-11.9-12.8h-3.2V183h2.6v-12.8
		l11.9,12.8h3.2V167.4z M441,180.7h-13.7v-4.6h9.1v-2.3h-9.1v-4h13.1v-2.3h-15.7v15.6H441L441,180.7L441,180.7z M419.5,167.4h-3.2
		l-7.5,9.4l-7.5-9.4h-3.2V183h2.6v-12.7h0.1l8,10.2l8.1-10.2h0.1V183h2.6v-15.6H419.5z M381.3,177.2l4-7.6l4,7.6H381.3z
		 M386.9,167.4h-3.3l-8.2,15.6h2.8l1.8-3.5h10.5l1.8,3.5h2.8L386.9,167.4z M372.5,167.4h-3.3l-7.5,9.4l-7.5-9.4H351V183h2.6v-12.7
		h0.1l8,10.2l8.1-10.2h0.1V183h2.6L372.5,167.4L372.5,167.4z M331.9,174.8v-5h9.1c2.2,0,3.2,0.9,3.2,2.6c0,1.6-1,2.4-3,2.4H331.9z
		 M342.8,177c1.2-0.2,2.2-0.7,2.9-1.4c0.8-0.8,1.1-1.9,1.1-3.2c0-1.5-0.5-2.7-1.4-3.6c-0.9-0.9-2.2-1.3-3.9-1.3h-12.3v15.6h2.6v-6
		h7.9l4.2,5.9h3L342.8,177z M312.5,177.2l4-7.6l4,7.6H312.5z M318.2,167.4h-3.3l-8.2,15.6h2.8l1.8-3.5h10.5l1.8,3.5h2.8L318.2,167.4
		z M304,169.4c-2.3-1.5-5.1-2.3-8.4-2.3c-2.5,0-4.4,0.4-5.8,1.3c-1.4,0.8-2.1,2-2.1,3.5c0,1.4,0.6,2.4,1.8,3c1,0.5,2.8,0.9,5.4,1
		c2.9,0.2,4.7,0.4,5.3,0.5c1.3,0.3,1.9,1,1.9,2c0,0.8-0.5,1.5-1.4,2c-1,0.5-2.4,0.8-4.2,0.8c-2.8,0-5.4-0.7-7.9-2.2l-1.4,1.9
		c2.2,1.8,5.3,2.6,9.3,2.6c2.7,0,4.8-0.5,6.3-1.4s2.2-2.2,2.2-3.8c0-1.3-0.5-2.3-1.4-3s-2.4-1.2-4.3-1.4c-0.7-0.1-2.1-0.2-4.3-0.3
		c-1.5-0.1-2.5-0.2-3.2-0.5c-0.9-0.3-1.4-0.8-1.4-1.5s0.4-1.2,1.3-1.6c0.8-0.4,2.1-0.6,3.7-0.6c2.4,0,4.8,0.6,7.1,1.8L304,169.4z
		 M283.5,167.4h-2.6V183h2.6V167.4z M260.6,180.7v-10.9h7.5c1.7,0,3.1,0.5,4.2,1.5c1.1,1,1.6,2.4,1.6,4s-0.5,2.9-1.5,3.9
		s-2.3,1.5-3.8,1.5H260.6z M258,167.4V183h10.4c2.3,0,4.2-0.7,5.8-2.1c1.7-1.5,2.5-3.3,2.5-5.6c0-2.4-0.8-4.4-2.4-5.8
		c-1.6-1.4-3.7-2.2-6.4-2.2H258V167.4z"/>
	<path d="M603.2,150.3v-4h7.3c1.7,0,2.6,0.7,2.6,2.1c0,1.3-0.8,1.9-2.4,1.9H603.2z M611.9,152.1c1-0.2,1.8-0.5,2.3-1.1
		c0.6-0.6,0.9-1.5,0.9-2.5c0-1.2-0.4-2.2-1.1-2.9c-0.7-0.7-1.8-1.1-3.1-1.1h-9.8V157h2.1v-4.8h6.3l3.4,4.8h2.4L611.9,152.1z
		 M593.7,154.1c-1.1,0.9-2.5,1.3-4.2,1.3c-1.8,0-3.2-0.4-4.3-1.3c-1.1-0.9-1.6-2-1.6-3.4c0-1.4,0.5-2.5,1.6-3.4
		c1.1-0.9,2.5-1.3,4.2-1.3c1.6,0,2.9,0.4,4,1.2c1.2,0.9,1.9,2.1,1.9,3.5C595.3,152.1,594.7,153.2,593.7,154.1 M594.9,145.8
		c-1.5-1.1-3.3-1.7-5.5-1.7s-4,0.6-5.5,1.7c-1.7,1.3-2.5,2.9-2.5,4.9s0.8,3.7,2.5,4.9c1.5,1.1,3.3,1.7,5.5,1.7s4-0.6,5.5-1.7
		c1.7-1.3,2.5-2.9,2.5-5C597.4,148.7,596.6,147,594.9,145.8 M579.5,144.5h-12.6V157h2.1v-5.5h7.3v-1.9H569v-3.2h10.5V144.5z
		 M558.3,155.1h-11v-3.7h7.3v-1.9h-7.3v-3.2h10.5v-1.9h-12.6v12.5h13.1V155.1z M534.4,144.1c-2.2,0-4,0.6-5.5,1.7
		c-1.7,1.3-2.5,2.9-2.5,4.9s0.8,3.7,2.5,5c1.5,1.1,3.3,1.7,5.5,1.7c1.6,0,2.9-0.2,4.1-0.7c1.1-0.5,2.1-1.2,3-2.3l-1.8-1
		c-1.3,1.4-3,2-5.2,2c-1.8,0-3.3-0.4-4.3-1.3c-1.1-0.9-1.6-2-1.6-3.4c0-1.4,0.5-2.5,1.6-3.4c1.1-0.9,2.5-1.3,4.2-1.3
		c2.3,0,4,0.7,5.3,2l1.9-0.7C539.9,145.1,537.5,144.1,534.4,144.1 M522.7,144.5h-2.1V157h2.1V144.5z M518,144.5h-12.6V157h2.1v-5.5
		h7.3v-1.9h-7.3v-3.2H518V144.5z M502.8,144.5h-12.6V157h2.1v-5.5h7.3v-1.9h-7.3v-3.2h10.5V144.5z M482.8,154.1
		c-1.1,0.9-2.5,1.3-4.2,1.3c-1.8,0-3.2-0.4-4.3-1.3c-1.1-0.9-1.6-2-1.6-3.4c0-1.4,0.5-2.5,1.6-3.4c1.1-0.9,2.5-1.3,4.2-1.3
		c1.6,0,2.9,0.4,4,1.2c1.2,0.9,1.9,2.1,1.9,3.5C484.4,152.1,483.9,153.2,482.8,154.1 M484,145.8c-1.5-1.1-3.3-1.7-5.5-1.7
		s-4,0.6-5.5,1.7c-1.7,1.3-2.5,2.9-2.5,4.9s0.8,3.7,2.5,4.9c1.5,1.1,3.3,1.7,5.5,1.7s4-0.6,5.5-1.7c1.7-1.3,2.5-2.9,2.5-5
		C486.6,148.7,485.7,147,484,145.8 M461.7,146c-1.8-1.2-4.1-1.8-6.8-1.8c-2,0-3.5,0.3-4.6,1s-1.6,1.6-1.6,2.8c0,1.1,0.5,1.9,1.4,2.4
		c0.8,0.4,2.3,0.7,4.3,0.8c2.3,0.1,3.7,0.3,4.3,0.4c1,0.3,1.5,0.8,1.5,1.6c0,0.7-0.4,1.2-1.2,1.6c-0.8,0.4-1.9,0.6-3.4,0.6
		c-2.3,0-4.4-0.6-6.3-1.8l-1.1,1.5c1.8,1.4,4.2,2.1,7.4,2.1c2.2,0,3.9-0.4,5-1.1c1.2-0.7,1.8-1.7,1.8-3.1c0-1-0.4-1.8-1.1-2.4
		c-0.7-0.6-1.9-0.9-3.5-1.2c-0.6-0.1-1.7-0.2-3.4-0.3c-1.2-0.1-2-0.2-2.5-0.4c-0.7-0.3-1.1-0.7-1.1-1.2s0.3-0.9,1-1.2
		c0.7-0.3,1.7-0.4,2.9-0.4c1.9,0,3.8,0.5,5.6,1.4L461.7,146z M445.2,144.5h-2.1v10.2l-9.5-10.2H431V157h2.1v-10.2l9.5,10.2h2.6
		V144.5z M423.6,154.1c-1.1,0.9-2.5,1.3-4.2,1.3c-1.8,0-3.2-0.4-4.3-1.3c-1.1-0.9-1.6-2-1.6-3.4c0-1.4,0.5-2.5,1.6-3.4
		c1.1-0.9,2.5-1.3,4.2-1.3c1.6,0,2.9,0.4,4,1.2c1.2,0.9,1.9,2.1,1.9,3.5C425.2,152.1,424.6,153.2,423.6,154.1 M424.8,145.8
		c-1.5-1.1-3.3-1.7-5.5-1.7s-4,0.6-5.5,1.7c-1.7,1.3-2.5,2.9-2.5,4.9s0.8,3.7,2.5,4.9c1.5,1.1,3.3,1.7,5.5,1.7s4-0.6,5.5-1.7
		c1.7-1.3,2.5-2.9,2.5-5C427.3,148.7,426.5,147,424.8,145.8 M407.6,144.5h-2.1V157h2.1V144.5z M403,144.5h-14v1.9h6V157h2.1v-10.6h6
		v-1.9H403z M377.1,152.3l3.2-6l3.2,6H377.1z M381.6,144.5H379l-6.6,12.5h2.3l1.4-2.8h8.4l1.4,2.8h2.3L381.6,144.5z M369.9,144.5
		h-2.1v10.2l-9.5-10.2h-2.6V157h2.1v-10.2l9.5,10.2h2.6V144.5z M333.9,155.1v-8.8h6c1.4,0,2.5,0.4,3.4,1.2c0.9,0.8,1.3,1.9,1.3,3.2
		c0,1.3-0.4,2.3-1.2,3.1c-0.8,0.8-1.8,1.2-3.1,1.2h-6.4V155.1z M331.9,144.5V157h8.3c1.8,0,3.4-0.6,4.7-1.7c1.3-1.2,2-2.7,2-4.4
		c0-1.9-0.6-3.5-1.9-4.6c-1.3-1.2-3-1.7-5.2-1.7L331.9,144.5L331.9,144.5z M328.6,155.1h-11v-3.7h7.3v-1.9h-7.3v-3.2h10.5v-1.9
		h-12.6v12.5h13.1V155.1z M312.9,144.5h-14v1.9h6V157h2.1v-10.6h6v-1.9H312.9z M296.3,144.5h-2.1V157h2.1V144.5z M289.9,144.5h-2.1
		v10.2l-9.5-10.2h-2.6V157h2.1v-10.2l9.5,10.2h2.6V144.5z M271.5,144.5h-2.1v7.9c0,1-0.4,1.7-1.3,2.2c-0.9,0.5-2.1,0.8-3.7,0.8
		s-2.9-0.3-3.7-0.8c-0.8-0.5-1.3-1.3-1.3-2.2v-7.9h-2.1v8.4c0,1.3,0.6,2.3,1.9,3.2c1.3,0.8,3,1.3,5.2,1.3c2.1,0,3.9-0.4,5.1-1.3
		c1.3-0.8,1.9-1.9,1.9-3.2v-8.4H271.5z"/>
	<line class="st0" x1="258" y1="127.4" x2="614.4" y2="127.4"/>
</g>
<g>
	<path d="M203.5,83.9c6.3,12.1,8.1,28.9,4,42.6c-4.2,16.2-17.8,32.6-33.7,39.3c-17.9,8.8-43.3,6.6-59.2-4.8
		c-22.1-15.2-31.2-41.3-24.5-67.1c4.1-15.4,16.3-30.9,31.2-38c8.4-4.2,17.6-6.4,27.6-6.5C171.8,49.3,193.6,62.8,203.5,83.9z
		 M150.1,52.3c0.4,2.4,0.3,5.7,0.1,8.4c0-0.3,0.1-0.5,0.3-0.7c0.4-0.2,0.8,0.1,1,0.4c0,0.4,0.2,1.2-0.2,1.4c0.4,0.1,0.5-0.2,0.9-0.2
		c6.9,0.5,13.4,2.5,19.1,5.8v-0.2c1.2-0.6,2.7-1.3,3.9-0.3c1.5-0.5,1.7,1.2,2.9,1.5c1.4,0.8,3,2.4,3.2,4.1c0.3,0.5,1.1,0.9,1.2,1.5
		c1-2.1,2.9-3.5,4.6-5.3l1-0.4c-9.1-8.7-20-13.5-32.1-15.2C154.1,52.7,152,52.9,150.1,52.3z M146.7,52.6c-12.1,0.5-23,4.6-32.6,11.5
		c-1.8,1.3-3.5,3.2-5.4,4.3h0.3c2.4,1.8,4.7,4.3,6.7,6.5l0.2-0.4c8.8-8.1,19.1-12.5,31-13l-0.3-0.7l-0.1-7.3L146.7,52.6z
		 M157.1,57.2l-4.4,1.9c-0.4-0.2-1.1-0.3-1.3,0.2c-0.2,0.2,0,0.4,0.1,0.5c1.6,2.1,4.4,0.9,6.4,0.5c1.5,0.6,2.8-0.1,3.9-1v-0.2
		C160.8,57.5,158.9,57.3,157.1,57.2z M150.1,64.6l0.3,0.6c-0.1,2.8,0.1,5.8-0.2,8.5c1.2-0.4,2.3,0.1,3.5,0.1
		c5.9,1,11.5,2.9,16.3,6.5c-0.6-0.6-1.3-1.3-1.4-2.2c0.1-0.1,0.2-0.2,0.4-0.1c0.1-0.9-0.9-1.4-1.1-2.3c0.2-0.2,0.4-0.4,0.7-0.3
		c1,1,1.9,2,2.7,3.1c0.7-0.3,1.2,0.2,1.7,0.5c0.9,0.5,0.3,1.6,1,2.2c0.1,1.8,2.3,2.8,2.2,4.6c0,0.4,0.5,0.1,0.7,0.3l1.8,2.2
		c-0.3,0.4-0.1,0.9,0.3,1.2c0.8,0.4,1.3-0.7,2.1-0.5c1.2,0.7-0.2,1.5-0.1,2.2c0.5,0,1-0.4,1.4,0.1c0.2,0.7-0.5,1.1-0.8,1.5
		c0,0.7,0.5,0.5,1,0.7c0.5,0,0.9,0.6,0.7,1.1c1.5,1.6-0.5,3.3,0.3,4.9c0.5,1.1-0.1,2.2-0.8,3c0,1.3-1.2,2.1-1.7,3.3l-1.5,0.3
		c-0.8,0.8,0.7,1.8-0.1,2.3l3.4,0.1l-0.4-0.4c-0.5-1.3-0.4-3.1,0.5-4.3c0.5-1.1,0.6-2.4,1.6-3.3c0.2-0.1,0.6-0.5,0.8,0
		c0.1,1,0,2.2-0.5,3.1c1,1.4,0.8,3.2,0.9,4.9c3-0.2,5.9-0.2,8.9-0.2l-0.3-0.6c-0.5-5.6-1.6-10.9-3.9-15.7c-0.6,0-1.1,0.5-1.8,0.4
		c-0.2-0.1-0.4-0.3-0.4-0.6c-1.2-1.2-2-2.7-3.3-3.7c-1.5,0.2-2.2-1.6-3.6-1.8c-1.2-0.5-0.4-2.5-2.2-2c-0.9-0.4-1.7-1-1.9-2
		c0-1.6-0.3-3.3-1.7-4.3c-1.1-0.4-1.5,1.1-2.6,0.8c-0.6-0.3-0.3-1.1-0.5-1.6s-0.7-0.8-0.6-1.4c1.4-1.9-1.7-1.8-1-3.7
		c-0.2-1.3-1.5-1.8-2.2-2.9c-4.7-2.1-9.4-3.6-14.7-4.2C152.4,65,151.2,65.2,150.1,64.6z M177.5,64.7c-0.6,0.6-1.2-0.5-1.8,0.2
		c0,0.3,0,0.6,0.2,0.9c1.3,0.5,1.4,2.3,3.1,1.9c0.5-0.5-0.3-1.1-0.2-1.8C178.6,65.2,178.1,64.9,177.5,64.7z M123.1,72.8
		c-1.9,1.3-3.6,3-5.5,4.2c2.2,1.4,4.1,3.8,6.1,5.7l0.2,0.6c5.1-4.9,11.4-7.8,18.2-9.2c1.6-0.2,3.2-0.7,4.8-0.4
		c-0.1-2.9-0.4-5.9-0.1-8.7C138,65.5,130.1,68.1,123.1,72.8z M190.4,70.1c-1.7,2.2-3.9,4.3-6,6.5l-1,0.2c0.6,0.2,0.8,0.9,1.2,1.4
		c2.2,1.2,2.8,3.5,4.7,4.9c1.1,2.3,3.6,4,3.7,6.6c2.6,5.8,4.4,12,4.6,18.8l-0.2,0.4c0.3,0,0.5-0.1,0.7-0.3l8.7-0.2
		c-0.6-0.8-0.3-2.1-0.5-3.1C205.2,91.8,199.4,80.3,190.4,70.1z M107.1,70.3c-8.6,9.6-14,20.6-15.5,33.1c-0.3,1.8-0.1,3.7-0.5,5.5
		c3-0.2,6.3-0.2,9.4,0l-0.2-1.2c0.6-9.7,3.7-18.3,9.1-26c1.4-1.5,2.4-3.5,4.1-4.6c-2-1.8-4-4-6.1-6L107.1,70.3z M146.9,76.6
		l-0.5,0.3c-7.7,0.5-14.4,3.8-20.2,8.6c2.3,1.6,4.4,4.2,6.5,6c0.2-0.2,0.3-0.4,0.5-0.7c2.9-2.1,5.8-3.9,9.2-4.8
		c1.5-0.2,3-0.9,4.6-0.5C146.6,82.7,146.6,79.6,146.9,76.6z M150.1,76.7l0.3,0.7l-0.1,8.2l0.8-0.2c5,0.7,9.6,2.3,13.6,5.5l0.2,0.6
		c1.4-1.9,3.4-3.5,5-5.4l1.5-0.9l-0.7-0.3c-3.3-2.8-7-4.9-10.9-6.3C156.8,77.7,153.5,77.2,150.1,76.7z M115.4,79l-0.1,0.6l-3.3,4.2
		c-5.4,7.4-7.9,15.9-8.7,25.1l8.3-0.2l0.8,0.3c-0.3-0.2-0.2-0.6-0.4-0.9c0.7-8.6,3.7-16.3,9.7-22.8C119.5,83.4,117.3,81.2,115.4,79z
		 M173.3,87.4l-0.2,0.4c-2.8,2.9-5.8,5.9-8.5,8.9c0.2,0.4,0.5,0.7,0.8,0.9c0.1-0.7,0.5-1.4,0.6-2.1c0.7-1,1.8-0.4,2.8-0.2
		c1.5-0.3,2.8,0.3,4.3,0.3c1.1,0.5,1.2,1.9,2.2,2.5c0.3,0.4,0.1,0.8-0.3,1.2c0.3,2.3,1.4-0.6,2.5-0.1c0.5,0.2,1.1,0.1,1.5,0.6
		c0.2,0.9,1.3,0.8,1.4,1.7c-0.1,0.5-0.6,0.6-0.9,0.8c0.3,0.9-0.9,1.5-0.5,2.5c1.8,0.3,1.8-1.7,2.6-2.6c-0.5-1.6-0.8-3.2-1.7-4.6
		c-1-0.2-1.6-1.4-2.6-1.6c-1.9-0.8,0.3-2,0.1-3.1C176.4,90.8,174.7,89.1,173.3,87.4z M124,87.7c-4.2,5-7,10.5-8.1,16.8
		c-0.3,1.5-0.2,3.2-0.7,4.5c1.1-0.5,2.6-0.3,3.8-0.2c-0.7-0.4-0.1-1.2-0.5-1.7c-0.1-0.8-0.2-1.7,0.5-2.2c-0.1-1.2,1.2-1.9,1.4-3
		c0.3-1.3,1.8-0.4,2.5-1.1c0.5-0.2,0.1-0.7,0.1-1c0.6-0.8,1.5-0.8,2.3-1.2c0.5-0.8,1.2-1.6,2-2.1c1.8,0.1,1.8-2.5,3.6-2.5
		C128.4,92.1,126.1,89.8,124,87.7z M150.2,88.7c0.6,1.7,0.1,4.3,0.4,6.3l2.2,0.7c0.6-1.1,2-1.3,2.6-2.3c0.4-0.3,0.8,0,1.2,0.4
		c0.1,0.8-0.1,1.6-0.4,2.4c-0.8,1.6-2.8,1.8-3.8,3c0.7,0.4,1.1-0.3,1.7-0.5c0.8,0.1,1.5,0.8,2,1.4c0.5,0.2,1.1-0.1,1.5-0.3
		c0.3-2.5,3.5-2.2,4.4-4.5l-0.6,0.2c-0.2-0.3-0.8-0.2-0.8-0.7c0.5-0.5,1.2-1.2,1.8-1.5c-2.7-1.7-5.5-3.2-8.6-3.9
		C152.6,89.1,151.4,89.1,150.2,88.7z M133.9,95h0.7c0.7,0.7,1.9,0.6,2.5,1.5c0.3,0.5-0.5,0.5-0.5,0.9c0.2,0.1,0.4,0.2,0.5,0.4
		c0.6,0.2,0.5-0.3,0.7-0.6c0.8-0.8,0.9,0.7,1.6,0.7c0.5-0.3,1.2-0.4,1.6,0.2c0.5-0.4,1.5,0,1.7-0.8c0.9-1,0.4-2.5,1.8-3.2
		c0.5,0.3,0,0.7,0.2,1.2c0.9,0.4,2-0.8,2.8,0.2c-0.7-2-0.5-4.4-0.5-6.6C142,89.6,137.5,91.2,133.9,95z M148.6,100.1
		c-0.5-0.5-1.5-0.2-2.2,0c0.6,0.6,0.4,1.7,0.7,2.5c-0.9,1.5-2.4,1.8-3.8,2.3c-0.4,0.5-0.3,1.5-1.2,1.5c-0.3,0.7-1.3,1.1-0.9,2
		c-0.5,1-0.2,2.4-0.5,3.5c-1.8,1.1-1.3-1.5-2.2-2l-0.3,0.5c-0.4,0.1-0.6-0.1-0.8-0.4c-0.3-0.1-0.7-0.2-1,0.1c-0.4,0.7-1,1.2-0.8,2.1
		c-0.2,0.5-1.1,0.4-1,0.9c1,0,2.1-0.2,3.1-0.4c0.7,0.2,1.3-0.3,2-0.4c0.2,0.1,0.5,0.4,0.4,0.7h0.2c0.5-0.4,0.7-0.9,0.5-1.5
		c0.1-0.6,0.8-0.6,1.2-0.8c0.4,0.2,0.2,0.6,0.2,0.9c1.4,0.5-0.3,1.5-0.5,2.2c-0.4,0.6,0,1.9-1.2,1.7c-0.2-0.1-0.4-0.3-0.3-0.5H140
		c0,0.5,0.3,1.2,0.8,1.4c0.8-0.7,0.9-1.9,2.1-2c0.6-0.7-0.3-1.7,0.7-2.2c1.6,0,3.3-0.7,4.5,0.6c-0.1,0.5-0.3,0.8,0.2,1.2
		c-0.3,0.7-0.5,1.5-1.1,2c0.2,0.4,0,0.9-0.3,1.2c-0.4,1.8-2.5,1-3.8,1.6c1.9,1.5,4.2,2,6.7,1.8c1.3-0.1,0.7-1.7,1.4-2.4
		c0.4-2.1,2.4-0.7,3.5-1.2c0.5-0.9,0.9-1.8,1-2.8c-0.8-0.5-1.1-1.4-0.8-2.3c-0.5-0.7-0.5-2-1.6-2.1c-0.2-0.2,0-0.5,0.1-0.7
		c0-0.7,0.6-0.9,0.8-1.4c-0.7-0.5-0.5-1.5-0.5-2c-1.2,0.3-1.3-1.2-2.2-1.5c-0.2-0.7-1-0.8-1.6-0.9c-1.5,0.7-1.7-1.1-2.8-1.5
		c-0.1-0.3-0.4-0.8,0-1.1c0.5-0.5,1.3-0.1,1.9-0.1L148.6,100.1z M122.3,107.5c-2.5,0.8,0.4,2.6-0.2,4.2c-0.3,0.9-1.2,0.1-1.9,0.4
		l-0.2,1.6c-0.4,0.9-1.5,0.2-2.1,0.9c-0.4,0.6,0,1.2,0.4,1.7c-0.8,1.9,1.9,2.5,1.9,4.3c0.8,1.1-0.1,2.7,1.1,3.6
		c0.3,2-0.3,4.6,1.5,6.2l0.3,1.9c0.4,1.3-1.5,1-1.3,2.1c0.4-0.2,0.5,0.3,0.5,0.4v-0.1c2.3-2.7,5-5.5,7.8-7.9l-1.2-1.2
		c-2.2-3.2-3.8-6.6-4.7-10.4l-1-0.3c0,1-0.5,1.7-0.4,2.7l-0.3,0.4c-0.6,0-1-0.5-1.6-0.9c-0.1-0.3-0.5-0.9,0.1-1.2
		c0.3,0,0.5,0.1,0.7,0.2c0.3-0.3,0.2-0.8,0.3-1.2c0.1-0.7-0.5-1.4-0.1-2c0.6-0.1,1,0.6,1.2,1c0.6,0.2,1-0.3,1.5-0.5
		c0-0.5,0.7-1.2-0.1-1.5c0.4-1.2,0.1-2.4-0.1-3.6C124.2,107.3,123.1,107.4,122.3,107.5z M179,108.6c-0.2,0.1-0.6,0-0.9,0.1
		C178.4,108.5,178.7,108.6,179,108.6z M177.1,111.5l0.9,0.9c0.9,0.6,0.3,2,1.3,2.5c1.2,0.6,1.6,2,2.1,3c0.2-0.3,0.2-0.6,0.3-0.9
		c0.4-1.7,0.4-3.5,0.9-5.2C180.8,112,178.7,112.2,177.1,111.5z M197.8,112l-0.5-0.4l0.3,0.8c-0.5,10.1-3.8,19-9.6,26.9
		c-1.1,1.3-2.2,3-3.6,3.9c2.3,1.8,4.8,4.5,6.8,6.6l0.2-0.5c9.3-10.6,14.5-22.8,15.1-37l0.4-0.7l-0.5,0.2L197.8,112z M185.7,111.7
		c0.2,1.8-0.3,3.6-0.4,5.5l1,1.1c0.3,0.4,0.2,1.1-0.2,1.4s-1,0.2-1.4-0.1c-1.3,4.1-2.8,8-5.3,11.6c-1,1.3-2,3-3.3,3.7l2.8,2.4
		c0.2-0.2,0.1-0.4,0.1-0.6c0-0.4,0.2-0.8,0.6-0.7c1.3,0,1.4,1.4,2.1,2.1c-0.2,1.2,0.8,2.1,0.5,3.1c7.6-8.1,11.5-17.9,12.1-28.9
		l0.4-0.5c-2.7,0.3-5.6,0.1-8.4,0.1L185.7,111.7z M115,111.8l0.5,0.7c0.1,2,0.8,3.9,0.4,5.9c0.3-0.6,0.4-1.4,1.2-1.7
		c0.1-0.5-0.7-0.7-0.6-1.2c0.6-1.1,0-2.9,1.5-3.4C116.9,112.3,115.9,112.5,115,111.8z M100.4,112l-0.8,0.3l-8.4-0.1
		c0.5,9.7,3.1,18.5,7.4,26.6c2.2,4,5.3,7.6,8.1,11.3l6-6.2l0.7-0.3c-1-0.7-1.9-1.9-2.8-2.9c-1-0.3-2-1-2.5-1.9
		c-0.3-0.3,0-0.9-0.4-1.2l-0.4,0.5c-1.1,0.5-1.5-0.6-2.2-1c-0.9-0.5-0.5-2.3-1.8-2c-0.5,0-0.6-0.6-0.9-0.9c-1.2,0.1-1.5-1.2-2.1-1.8
		c-0.1,0.3,0,0.6-0.4,0.8c-1.2,0.3-1.6-1.2-2.5-1.8c-0.2,0.1-0.4,0.3-0.7,0.3c-0.7-0.6-1.2-1.5-1.2-2.5c-1-1.1-0.5-2.9-0.4-4.3
		c0.2-0.4,0.7-0.6,0.6-1c0.3-0.6,0.9-0.7,1.6-0.7c0.2,0.1,0.5,0.4,0.6,0.6c0.4-0.2,1.3,0,0.9-0.8c0.5-0.5,1.3-0.6,2-0.7
		c0.5,0.6,0.7,1.3,1.4,1.9l-0.4-0.7c-0.7-3-1.3-6-1.5-9.2c0-0.2-0.4-0.3-0.2-0.5l0.1,0.1C100.4,113,100.3,112.4,100.4,112z
		 M112.3,112l-0.7,0.3c-2.8-0.1-5.8,0.2-8.4-0.2l0.4,0.5l0.6,5.5c0.3,2.2,1.2,4.2,1.2,6.3c0.3-0.5,0.1-1.4,0.9-1.5
		c-0.3-0.7,0.6-1.2,0.1-1.8c0.3-1.5,0.5-2.9,1.7-4c1.5-0.1,1.7-2.1,3.2-2.2c0.8,0,1.3,1,1.6,1.4C112,115.2,112,113.3,112.3,112z
		 M127.8,115.7c0.8,1.6,1.3,3.4,2.2,4.9c0.5,1.4,1.8,2.5,2.3,3.8c0.6-1.1,1.7-2,2.5-3c0.1-0.5,0-0.8-0.3-1.2c-0.3-0.6,0-1.5-0.5-2.1
		c-0.8,0.3,0.3,1.1-0.1,1.5c-0.3,0.2-0.7-0.1-0.7-0.4c-0.7-0.1-1.2-0.7-1.5-1.4c0.6-0.4-0.2-0.5-0.3-0.8c-0.2,0-0.2,0.1-0.5,0.4
		c-0.2,0-0.3,0-0.5-0.1C130.5,115.6,128.6,116.6,127.8,115.7z M137.3,118.1c-0.2,0.8-0.7,1.4-1.2,2h0.1c0.7-0.5,1.2-1.5,2.2-1.5
		L137.3,118.1z M161.3,120.6c0,0.5,0.1,1.1,0.5,1.5c1.2-0.2,0.7,1.5,1.8,1.3c0.6-0.2,0-0.7,0.2-1.1c-0.2-0.9-1.1-1-1.7-1.5
		c-0.1-0.2,0.1-0.3,0.2-0.5C161.8,120,161.5,120.2,161.3,120.6z M178.4,120.6c-0.9-0.1-1.9,0.5-2.7-0.2c-0.3-0.2-0.5,0.1-0.4,0.4
		c-0.3,0.5-0.6,1-1.3,0.8c-0.5-0.2-0.5-0.8-0.7-1.2c0,0.3-0.1,0.6-0.2,0.9c-0.6,0.7-0.8,1.3-1.3,2c-0.6,0.7-1.7,0.5-2.3,1
		c-0.1,1.5-1.7,1.2-2.6,1.6c-0.1,0.2,0.2,0.2,0.2,0.4c0.4,0.1,1,0.1,1.3-0.3c1.3,0.3,1-1.3,1.7-1.8c0.6-0.1,1.2-0.6,1.9-0.2
		c0.7,0.8,0.8,2,0.7,3.1c-0.7,0.7-0.4,1.9-0.9,2.8c0.1,1-1.1,1.5-0.9,2.5c-0.4,0.5-1.1,0.5-1.7,0.5c-2.4-0.9-4.9-1.5-7.6-1.7
		c-0.2,0.1-0.4,0.3-0.4,0.6c1.1,0.6,2.4,0.6,3.6,1.1c1,0.3,1.7,1.5,3,1.2c1.1-0.6,2.9,0.4,3.6-0.8c-0.1-1.1,0.8-1.9,1.3-2.9l0.4-0.1
		c0.6,0.6,0.6,1.6,0.8,2.3c0.8-0.9,1.5-1.9,2.3-2.8c2-2.9,3.7-6,4.4-9.4C180,120.2,179.2,120.4,178.4,120.6z M140.3,120.6
		c-1.3,2.1-3.8,4.1-5.6,6c3.2,2.7,6.9,4.3,10.9,5c0.2-0.8-0.1-1.8,0.3-2.5c0.3-0.7,1.1-0.6,1.7-0.5c0.4,0,0.6-0.5,0.4-0.8
		c-0.9-0.2-0.5-1.2-0.8-1.7c0-0.3,0.5-0.2,0.4-0.6c-0.6-0.5,0.3-1-0.2-1.5c0.2-0.2,0.4-0.5,0.7-0.5c-1.9,1-4-0.2-5.7-1
		C141.6,122,140.4,121.6,140.3,120.6z M157.9,125.9c-0.1,0.2-0.4,0.7,0,0.8c0.7-0.8,2.3-0.7,2.3-1.8
		C159.1,124.8,158.6,125.3,157.9,125.9z M161.3,128.2c-0.9,0-1.4,0.7-2.1,1.3c-0.8,0.5-1.3-0.9-2-0.6c0,0.2,0.2,0.2,0.3,0.3
		c0.2,0.2,0.2,0.7,0,0.9c-1,0.9-1.5-0.5-2.5-0.4v0.4c0,0.2-0.1,0.5-0.4,0.4c-0.6-1-1.8-0.6-2.5-1.5c-0.4-0.2-0.8,0.1-1,0.3
		c-0.2,0.5-1.2-0.1-0.9,0.7c-0.8,0.3-0.8,1.1-1.4,1.6c-0.9-0.2-1.4,0.9-2.2,0.9c0.1,0.2,0,0.5,0.3,0.5c0.5,0.2,1.1,0.3,1.8,0.2
		c0.9-1.5,2.4-0.2,3.7-0.8c0.8,0.2,0.2,1,0.8,1.3c1.2-0.4,2.2,1.1,3.2,0.2c-0.1-1.4,1.5-1.3,2.4-1.7c1.4-0.8,2.9-1.9,2.8-3.7
		L161.3,128.2z M132,129c-1.8,2.2-3.9,4.5-6,6.2c0.9,0.1,1.5,1.1,2.2,1.5c4.5,3.8,10.2,5.6,15.5,6.9l-1.5-0.7
		c-1.1-1.2-2.6-2.7-2.7-4.4c1.1-0.4,1-1.6,1.3-2.4c0.9-1,2-1.5,3.2-1.8c-3.1,1.3-5.7-1-8.3-2.2C134.5,131.3,132.8,130.5,132,129z
		 M174.1,137.5l-0.2-0.6c-0.3,0.7-0.8,1.2-1.4,1.7c0,0.5-0.2,1.2,0.4,1.5c1.2,0.4,2.8,1.2,3.1,2.6c-0.5,1.3-3,2.5-1.5,4
		c0.5,0.7-0.7,1-0.5,1.6l0.4-0.6c1.8-1.4,3.8-2.8,5.4-4.5h0.2c-0.4-0.1-0.8,0.2-1.2,0.1c-0.8-0.4-1-1.2-1-2L174.1,137.5z
		 M125.4,138.6l-0.1-0.2l0.1,0.4V138.6z M126.4,139.9c-0.4-0.2-0.6-0.5-0.7-0.9L126.4,139.9z M126.6,140.2c0.2,0.7,1.2,1.2,0.9,2.1
		c-0.5,0.8-1.6,0.8-2.4,0.8c-1.7-0.3-3,1-4.6,1.2c-1.5,0.5-2-1.4-3.4-1.2c8.4,7.4,18.1,12,29.3,12.6l0.8,0.6l-0.4-1v-8l-0.7,0.3
		C138.8,147.2,132.3,144.5,126.6,140.2z M182.6,145.9l-0.2-0.7c-0.8,1.7-2.7,2.7-4.1,4c-2,2-5.2,2.4-6.2,5.2c-1.1,1-1.4,2.5-2.9,3
		c-0.5,1.5-2.1,1.4-3,2.4c-2.5,2.3-4.2-1.5-6.5-1.9l-4.6,0.8c-1.6,0-3.2,0.6-4.7,0.1c0.2,3.1,0.2,6.4,0,9.5l0.6-0.4
		c14.6-0.6,27.2-6.2,38-16L182.6,145.9z M115.3,145.8l-0.1,0.3l-6.2,6.3c9.5,8.2,20.1,13.5,32.3,15.1c1.9,0.3,4.2,0.2,6,0.7
		l-0.5-0.7v-8.2l0.3-0.5l-0.9,0.3C134.4,158.3,124,154.1,115.3,145.8z M149.9,147.9l0.5,0.7c0,2.5,0.3,5,0,7.5
		c2.2-0.8,4.8-0.6,7.3-1c-0.5-0.2-1-0.3-1.3-0.8c-1.4-0.1-2.1-1.6-2.5-2.7c-0.2-0.8,0.3-1.5,0.7-2.2c-0.6-1.2-2.5-0.3-3.6-0.8
		C150.5,148.3,150.3,147.9,149.9,147.9z"/>
	<g>
		<path d="M205.6,60.8c4.5,4,6.5,9.1,7.8,14.4l0.7,1.7c-6.5-4.6-12.3-10.9-16.4-17.4l-5-5.1C197.1,56.3,201.8,57.4,205.6,60.8z"/>
		<path d="M93,68.7c-3,3.7-6.8,6.1-10.1,9.2c1.8-3.8,1.9-8.2,4.5-11.7c3.7-6.4,10.5-8.6,16.5-11C99.4,59.2,96.3,64.1,93,68.7z"/>
		<path d="M221.4,75.4c1.4,6.4-0.6,12.6,0.7,19l-0.1,0.1c-3.5-6.8-10.8-10-15.9-15.5c-2.9-3.2-4.2-7.2-4.9-11.4
			c2.9,7,10.7,8.5,15.2,14.4c1.5,1.4,2,3.2,3,4.8l0.2-0.2c-2.6-5.5-3.5-11.7-5.2-17.6c-0.9-2.5-2.7-5.1-5.1-6.7
			C215,63.6,220.2,69.8,221.4,75.4z"/>
		<path d="M87.5,63.5c-6,4.1-5.6,11.5-7.5,17.7c-0.6,2.3-1.7,4.4-2.2,6.7L78,88c1-2.6,2.8-5.1,4.9-7.3c4.3-3.9,10.6-6.4,12.7-12.2
			c-0.1,8.1-6.8,14.4-13.3,19c-2.7,2.3-5.2,5-6.7,8c-0.2-2,0.3-4.1,0.2-6.3c-0.8-7.1-1.3-15.1,3.7-20.4
			C81.6,66.2,84.4,64.3,87.5,63.5z"/>
		<path d="M225.2,76.8c5.4,7.3,6.5,18.8,2.6,27.2c-1.5,3.5-2.5,7.3-3.1,11.2c-0.3-0.7-0.3-1.6-0.6-2.3c-2.1-8.1-9.8-14-13-21.7
			c-1-2.5-1.8-5.1-2.3-7.8c3.4,6.3,11.8,9.5,14,16.4c0.9,1.8,0.9,3.9,1.5,5.8c0.1,0,0.2-0.1,0.2-0.2c-1-7.1-0.7-14.6,0.3-21.6
			c-0.1-3.8-0.4-7.5-2.5-10.5C223.6,74.1,224.2,75.6,225.2,76.8z"/>
		<path d="M74.7,74.5c-4.6,7-0.8,15.8-1,23.8l-0.6,8.1c0.1,0.1,0.1,0.3,0.3,0.2c0.3-0.9,0.3-1.9,0.5-2.8C75,97.2,80.7,92.6,85.7,88
			c1.1-1.2,2-2.4,2.5-3.8c-0.4,3.3-1.4,6.6-2.8,9.6c-3.9,7.6-11.1,13.8-12.4,22.4c-0.6-8.3-6.3-14.5-5.7-23.3
			c-0.2-7.1,2.8-13,7-18.3C74.4,74.6,74.5,74.5,74.7,74.5z"/>
		<path d="M230.2,124c-3.2,4.5-7,8.7-10,13.3c0.3-3.6,0.8-8.1-0.7-11.6c-2.5-7.4-4.6-15-5.3-23.1l0.1-3.1c1.8,8.3,10,14.1,9.5,23.4
			c0.2,2.3-0.5,4.2-0.9,6.2l0.2,0.2l0.4-0.4c1.2-4.6,1.8-9.4,3.7-13.7c2.7-6.1,6-12.4,4.7-19.8C235.9,104.1,234.6,115.8,230.2,124z"
			/>
		<path d="M72.3,121c0.9,3.1,1.1,6.4,2.3,9.2c0.1,0.1,0.2-0.1,0.3-0.2c-3.1-8.7,1.4-16.8,5.9-23.6c1.1-1.8,1.7-3.9,2.3-6
			c0.5,3.9-0.5,8.5-1.1,12.6c-1.1,5.2-2.7,10.1-4.2,15.2c-0.9,3.2-0.7,6.7-0.2,10l-0.5-0.4c-3.3-6.1-9.8-10.8-11.8-17.5
			c-1.6-5.3-2.7-11.5-1.6-17.2c0.5-2.2,0.9-4.5,1.9-6.6C63.9,106,70.2,112.8,72.3,121z"/>
		<path d="M217.7,138.3c-0.2,4.1-1.5,7.7-3.7,11h0.4c2.9-3.8,5.2-7.9,8.6-11.5c5.3-5.1,10.6-10.3,11.3-17.4
			c1.8,11.8-4.8,22.1-14.6,28.8c-4,2.6-8.1,5.1-12,8.1v-0.4c5.9-9.9,3-23.4,6.7-34.3l1.4-3.6C215,125.8,217.9,131.5,217.7,138.3z"/>
		<path d="M87.6,151.7c0.6,2.2,1.9,4.2,2.8,6.4c-9-6.2-21.3-12-25.3-23.3c-1.7-3.9-1.9-8.7-1.5-13.1c0.7,10,11.5,15.3,16.5,23.6
			c1.2,1.7,2.2,3.6,3.8,5c-0.2-1.1-1.2-2-1.6-3.1c-1.8-3.5-2.4-7.6-2-11.8c0.5-5.1,2.6-9.9,1.8-15.3
			C86.5,129.6,85.1,141.4,87.6,151.7z"/>
		<path d="M204.2,159.2c-1.5,2.7-3.8,5.3-6.2,7.4c0.8,0,1.5-0.7,2.2-1.2c6.5-6.5,15-8.3,22-13.6c2.8-2.2,5.4-5.2,6.6-8.4
			c-1.3,10.8-12,20.8-22.1,24.1c-5.2,1.4-10.8,1.8-15.8,3.6c8.6-7.4,8.1-18.8,13.8-27.4c1.8-2.5,3.3-5,5.5-7.4
			C206.7,143.3,208.2,152.4,204.2,159.2z"/>
		<path d="M96.1,150.1c3,7.5,4.2,15.9,11.2,21.5c-7.6-2.5-16.4-1.8-23.1-6.5c-7.3-4.5-13.8-12.1-15.2-20.4
			c5,11.4,17.6,12.3,26.1,19.3c1.5,1.4,3.2,2.5,4.9,3.4l0.1-0.1c-1.9-1.8-4.2-3.8-5.5-6c-4.9-6.9-3.2-16.5-6.9-23.9
			C91,141.3,94,145.5,96.1,150.1z"/>
		<path d="M185.9,172.2c-1.8,1.2-4.2,1.4-6.1,2.3c2.7,0.1,5.2-0.9,7.9-1.2c10-1.6,21.4,0,28.4-8.5c-2.6,5.9-9.1,10.9-15.1,13
			c-10.2,3.8-20.5-0.9-30.3-2.5l-1.9-0.2V175c4.7-1.1,9.2-2.5,12.9-5.8c5.5-5.3,10.4-10.7,16.5-14.8
			C193.8,160.3,193.4,168.5,185.9,172.2z"/>
		<path d="M115.8,169.5c3.9,3.4,8.5,5,13.5,6c-1.2,0.4-2.7,0.3-4,0.6c-8.8,2.2-18.6,5.7-28,2.5c-6.1-1.9-12.4-6.7-15.4-12.7
			c8.1,9.2,21.2,6.1,32,8.5c1.5,0.2,2.9,0.8,4.5,0.6c-1.3-0.8-3.1-0.7-4.5-1.5c-8.4-3-9.7-12.1-14.2-18.2
			C105.5,159.2,110.4,164.4,115.8,169.5z"/>
		<path d="M181.6,181.9c6.5,2.4,15,1.8,20.6-2.2c-2.9,3.6-6.8,6.2-10.9,7.6c-9.1,3.4-18.6-0.2-25.7-5.5c-2.9-1.8-5.4-4.5-9.1-4.2
			c-1.3,0-2.6,0-3.8,0.4c6.9,3.2,13.3,7.6,19.2,13.3c-1,1.1-2.3,2.2-3.5,3.1c-5.6-6.1-11.9-11.9-18.9-15.4c-1.4,0.2-2.7,1-3.9,1.7
			c-5.7,3.6-11.3,8.2-15.6,13.9l-3.6-3c5.8-5.9,12.2-10.5,19.3-13.7c-6.9-2.2-11.4,3.6-16.7,6.5c-6.1,4.3-14.9,6.3-22.3,3.3
			c-4-1.5-7.8-3.7-10.7-7.3c5.8,4,14.5,4.4,21.1,1.8c8.9-3.8,18.1-8.7,28.8-6.4c1.7,0,3.3,1.7,4.9,0.3c7.9-2.1,16.9-0.6,23.8,3
			L181.6,181.9z"/>
	</g>
</g>
</svg>
