<?xml version="1.0" encoding="UTF-8"?>
<svg id="Ebene_2" data-name="Ebene 2" xmlns="http://www.w3.org/2000/svg" viewBox="0 0 1920 1280">
  <defs>
    <style>
      .cls-1 {
        fill: #940330;
      }

      .cls-2 {
        fill: #ced9de;
      }

      .cls-3 {
        fill: #90172f;
      }

      .cls-4 {
        fill: #0d435c;
      }

      .cls-5 {
        fill: #fff;
      }

      .cls-6 {
        fill: #a0b8c0;
      }

      .cls-7 {
        stroke: #fff;
        stroke-width: 1.84497px;
      }

      .cls-7, .cls-8 {
        stroke-miterlimit: 10;
      }

      .cls-7, .cls-9 {
        fill: #7996a5;
      }

      .cls-10 {
        fill: #f3f5f7;
      }

      .cls-8 {
        fill: none;
        stroke: #fac102;
        stroke-width: 8px;
      }

      .cls-11 {
        fill: #fac102;
      }
    </style>
  </defs>
  <rect class="cls-10" x="-.41221" y="-.27015" width="1918.49741" height="1280"/>
  <polygon class="cls-8" points="791.88408 439.51446 747.57822 433.57099 780.41356 408.79655 755.14263 378.99913 797.62703 384.54033 812.95639 321.72569 828.62553 376.29755 864.28635 356.30588 846.74929 395.75478 878.08472 399.60788 853.48005 419.52279 883.73771 434.65162 834.569 437.89352 809.71449 472.4737 791.88408 439.51446"/>
  <polygon class="cls-1" points="803.05655 435.74322 771.68259 431.53452 794.93402 413.9912 777.03912 392.891 807.12325 396.81484 817.9783 352.33443 829.07397 390.97795 854.32617 376.82141 841.90779 404.75604 864.0971 407.4845 846.67399 421.58669 868.1001 432.29974 833.28267 434.5954 815.68265 459.08238 803.05655 435.74322"/>
  <g>
    <path class="cls-3" d="M885.28198,460.76864c104.59223,51.88584,221.6349,107.35691,324.37097,161.82765,7.08936,3.833,14.21387,7.59618,21.27283,11.49023l-.18494.36865c-7.34277-3.32764-14.62012-6.78613-21.93225-10.17529-50.95327-23.93639-101.5397-49.40661-151.53676-75.19263-42.48361-22.05705-130.6892-65.75702-171.98985-88.3186h0Z"/>
    <path class="cls-3" d="M1053.86438,545.27352c9.91357,3.08042,20.58071,6.88923,30.28429,10.65086,2.48158.97316,5.06849,1.73195,7.60707,2.58937,5.16073,1.70992,9.55867,4.80217,13.62489,8.4121,2.04076,1.86964,4.00146,3.90284,5.69799,6.47267l-.47913.9751c-3.07129.22607-5.87854-.08447-8.60559-.55859-5.34137-1.01459-10.47684-2.60858-14.9823-5.65038-3.80444-2.69776-9.4793-6.18174-13.525-8.61517-6.56735-4.18659-13.76143-8.81505-20.10144-13.30084-.00003-.00001.47922-.97511.47922-.97511h0Z"/>
    <path class="cls-3" d="M1162.38186,599.53227c9.91357,3.08042,20.58071,6.88923,30.28429,10.65086,2.48158.97316,5.06849,1.73195,7.60707,2.58937,5.16073,1.70992,9.55867,4.80217,13.62489,8.4121,2.04076,1.86964,4.00146,3.90284,5.69799,6.47267l-.47913.9751c-3.07129.22607-5.87854-.08447-8.60559-.55859-5.34137-1.01459-10.47684-2.60858-14.9823-5.65038-3.80444-2.69776-9.4793-6.18174-13.525-8.61517-6.56735-4.18659-13.76143-8.81505-20.10144-13.30084-.00003-.00001.47922-.97511.47922-.97511h0Z"/>
    <path class="cls-3" d="M956.41833,496.48837c9.91358,3.08077,20.58041,6.88993,30.28435,10.65086,2.48158.97316,5.06855,1.73195,7.60707,2.58937,5.16048,1.71007,9.55842,4.80228,13.62483,8.4121,2.04082,1.87013,4.00146,3.90284,5.69805,6.47315l-.47919.97461c-3.07123.22656-5.87848-.08447-8.60547-.55811-5.34143-1.01481-10.47684-2.60886-14.98236-5.65087-3.80469-2.69778-9.47949-6.18124-13.52494-8.61517-6.56743-4.18673-13.76141-8.8145-20.1015-13.30084-.00003-.00001.47916-.97511.47916-.97511h0Z"/>
    <path class="cls-3" d="M857.67572,447.64511c9.91363,3.08032,20.58048,6.88951,30.28435,10.65037,2.48152.97365,5.06849,1.73244,7.607,2.58986,5.16076,1.70955,9.55865,4.80207,13.62489,8.4121,2.04082,1.86964,4.00146,3.90284,5.69805,6.47267l-.47919.9751c-3.07129.22607-5.87848-.08447-8.60553-.55859-5.3414-1.01459-10.47687-2.60858-14.9823-5.65038-3.80461-2.69771-9.47935-6.18191-13.52494-8.61566-6.56743-4.18673-13.76144-8.81417-20.1015-13.30084-.00003-.00001.47916-.97462.47916-.97462h0Z"/>
  </g>
  <rect class="cls-6" x="1248.38858" y="598.69108" width="22.3268" height="100.79643" transform="translate(112.84053 1481.45998) rotate(-63.23858)"/>
  <path class="cls-4" d="M1756.02084,813.90078c1.26251-2.91539,53.97306-8.80383,53.97306-8.80383l-71.43945,176.70605-33.18434-51.03885c20.20622-37.17435,17.57901-36.48958,29.07604-64.63091,15.96603-39.0801,11.67485-29.37171,21.57469-52.23246Z"/>
  <path class="cls-2" d="M1192.48357,1280.07278c-49.88059-209.67197-208.98213-386.73389-431.20379-449.09154C435.14233,739.46403,96.56768,929.66137,5.05041,1255.79847c-2.26875,8.08506-4.3571,16.17792-6.28181,24.27431h1193.71497Z"/>
  <path class="cls-9" d="M799.94859,983.30319c.0914-.89956.06735-1.9723-.29344-3.1629.32711-.25496.68582-.5484,1.0102-.87551.06735-.07216.13262-.14672.20685-.24293,1.88331-.60612,3.17733-1.58506,4.32737-3.69687.69752-1.33251.87037-2.85743.46148-4.29337-.33673-1.18819-.95488-1.89533-1.60671-2.64096.66866-.85386,1.14249-1.86166,1.30605-2.8863.10583-.71195.10102-1.43112-.07456-2.12864-.04089-.1852-.24534-.48586-.35357-.76006.23331-3.65357.07489-6.79001-2.29942-9.01968-.19483-.54118-.43776-1.16414-.78652-1.81837,3.36013-1.16414,7.19409-2.77566,8.87777-6.54227.7336-1.62595,1.29643-4.29337-.12748-7.63426-.97653-2.22004-3.25911-3.57901-5.64512-3.41305-.1395.00481-.28108.01203-.42813.04089-1.98914-.25736-7.29271-2.16232-10.23914-3.38178-2.61691-4.6277-4.53149-5.23382-18.95783-6.40998-4.82766-5.82551-12.041-4.46654-16.91162-3.54052-4.28134.81297-6.29902.98856-7.02813-.05051-1.49366-1.85445-3.95182-2.59045-6.21275-1.8809-.5625.19001-1.07274.44016-1.53695.77208-2.49905-.74803-4.47857-.46902-6.19111,1.34453-10.65732-1.80875-30.03192-4.16589-33.92842,1.71254-4.68061-1.14971-10.98476-2.54716-17.13706,2.37398-1.48917,1.17857-2.22758,2.98732-2.13378,4.79847-.32471.41851-.57245.88032-.78171,1.37821-1.72216,4.40401-.79133,7.6078.2766,9.50554,2.82857,4.94038,8.79632,5.96501,14.64555,6.91268,2.16953.35357,6.06363,1.00539,6.92952,2.12864-2.44133,3.41545-2.99694,6.22478-2.80211,8.3414-.60853.5941-1.23389,1.25313-1.7871,2.07092-.46181.65663-.76487,1.40466-.91159,2.17434-1.44796,2.02762-2.13345,4.22121-1.90977,6.39074.00481.23331.05292.47864.08418.69512-3.35051,2.85984-6.02514,6.69621-5.25995,10.82361.13918.73601.40889,1.59708.90886,2.45576-5.10875,4.1731-6.52063,6.39555-6.88382,9.99861-.04089.31268-.03816.63739-.00962.94767-10.51542,15.51144-6.12376,25.03622,3.65598,46.24088.72398,1.54657,2.05408,2.66261,3.64395,3.10758.62296.17558,1.29643.24774,1.95787.20204,14.36173-1.06552,49.56734-18.05619,66.17316-35.21763,11.35758,7.5645,26.74876-2.70831,33.21647-7.1027.57726-.06975,1.16895-.20445,1.74894-.3656,2.38808-.67347,4.05732-2.82376,4.14391-5.27711.07216-2.31866-.21888-4.09133-3.03302-8.58914.88546-1.09439,1.55138-2.39082,1.6957-3.4852Z"/>
  <path class="cls-9" d="M899.16504,1150.03735c.52194-1.77748.55802-4.22121-1.43834-6.84293,1.76305-7.35765,2.36436-11.73039-.97413-14.93659-1.99876-1.8809-4.42325-2.23688-6.66735-2.08054-1.38783-3.14606-2.86946-8.10087-4.13943-12.32689-3.55255-11.76647-6.92919-22.92922-13.89511-27.08549,1.00539-3.17012,1.38783-6.67456.16596-9.58972-.43776-1.00299-1.15692-1.90015-2.0754-2.50627l-1.89085-1.26997c-2.03724-1.40707-4.87784-1.27719-6.81166.33433-2.89351,2.38601-4.38203,5.62828-5.57777,8.23316-1.87609,4.12981-2.40765,4.69985-4.36312,4.82252-1.81115.0938-3.46596,1.04147-4.47376,2.5664-1.00058,1.50328-1.21224,3.41305-.57966,5.11837.15634.43776.16596,1.39023.1828,2.32106.01684,2.09016.04329,4.96924,1.63797,7.87237.38003.70955.90918,1.29883,1.51771,1.77026-.16837,1.18098-.15153,2.27296.11305,3.22784.46421,1.56582,1.65274,2.94162,3.12923,3.70408.40168,1.29402,1.16654,2.20321,2.49217,3.17733.53363.40649,1.14938.69271,1.76993.86829.50991.90678,1.22908,1.73418,2.20802,2.44854.70233.47624,1.41188.83703,2.16232,1.04869-.29825.98134-.58688,1.8328-.85867,2.50386-1.1906.74322-2.18637,1.7438-2.58083,3.15568-.24293.85867-.26939,1.77748-.07697,2.66501.00722.03608.04089.06975.0481.10583.00481.03127-.01924.05773-.00962.08899.43535,2.32347,1.07274,3.84599,2.02522,4.99329-1.46239,3.31924-1.50809,6.36428-.12988,9.13753.41851.81297.99096,1.66684,1.82799,2.48222-4.92595,3.59825-5.28673,4.72391-5.55853,7.75211-.17318,1.94344.74082,3.79789,2.28258,4.99329.57245.44016,1.22187.76006,1.90977.95488,1.15933.32471,2.41487.30547,3.5742-.11064,1.27959-.42813,6.36702-.80816,10.08039-1.08477,14.69606-1.11122,23.09037-2.04687,24.97368-8.51217Z"/>
  <path class="cls-9" d="M842.24727,1089.86768c-1.08236-.92843-4.75277-3.53331-9.88076-.19964-.10343.03848-.1852.08659-.26939.13229,0,0-.20445.15153-.52915.40649-.95248.75284-2.9777,2.43171-4.92595,4.59402-.75525.4594-1.3734,1.09679-1.85204,1.89052-.22128.37762-.42059.76006-.56764,1.11363-1.9266,2.81895-3.18455,5.98666-2.14308,8.87296.20685.59169.51024,1.16173.88513,1.63797-.27179,1.54657-.25015,3.03542.28863,4.25007.33673.78892.87792,1.49847,1.5129,2.04687.24293,1.11122.78411,1.90977,1.7414,2.87427.34636.32952.70714.61574,1.0992.86589.51713,1.04628,1.29643,1.98433,2.49905,2.73717.58962.37522,1.20984.6422,1.81115.81057,2.29701.64461,4.5363-.06975,6.18389-.90678,1.62114-.33192,3.08353-1.33491,3.92329-2.83579.11753-.17558,7.46556-21.90218.22336-28.29052Z"/>
  <path class="cls-9" d="M142.19522,1163.12669c2.43173.914,5.08467.29106,6.70344-1.68609,9.11586-11.43214,14.75378-24.67539,20.20167-37.48579.4645-1.07515.9284-2.14787,1.37099-3.23022-.34876.99094-.70236,2.00355-1.04869,2.99697-16.81892,47.17516-36.98309,103.77601-4.55569,156.35123h52.35826c12.32972-11.8882,33.3153-34.10883,30.16107-44.80549-.47383-1.61635-1.63076-2.93674-3.18209-3.60307-11.66067-5.17124-19.81447,2.01318-25.80593,7.18925-6.57595,5.68368-9.57049,7.43703-13.97926,5.3204-.62057-.43048-14.826-10.06836-10.29446-31.75162.71434-.72633,1.60667-1.68131,2.79005-2.92481,51.76816-55.12824,66.45941-55.14991,69.97349-53.88716,2.17433.84183,3.50924,4.82974,3.67039,10.94391.06732,1.98908,1.76061,4.13217,3.49483,5.12795l2.92989,1.28442c1.38753.50507,2.70077.69031,4.0694.19239,2.59766-.59169,14.4411.95008,22.287,1.96989,11.39606,1.48408,18.86676,2.35237,23.92261,2.33311.03608,5.73169-2.30424,16.2186-13.45465,33.9139-1.72489,2.75887-1.70322,4.82744-1.05832,6.32829-.01955,2.54239-.58236,8.5916-.99371,12.78389-1.38747,14.85481-1.54655,17.40441.66385,19.92259,1.06074,1.17866,2.66746,1.88338,4.21402,1.99404,1.99877.05055,3.89408-.92356,4.97164-2.61219,6.00108-9.2505,11.15584-19.20099,16.15607-28.84606,14.06105-27.16487,27.34764-52.80717,56.9009-57.57922.63019-.10098,1.27002-.3151,1.84724-.63976,4.08652-2.25853,7.2786-5.46236,10.15498-8.9403.60852.05527,1.26511.02882,1.88604-.12029,5.88528-1.40707,8.36272-2.56401,16.33369-10.65763,1.3208.16115,2.68187-.15153,3.82434-.91884,8.71661-5.80143,18.71281-8.74065,23.87206-9.95769.05055-.00963.12749-.03372.17562-.04334.52432.0313,1.25342.07458,1.38298.11066,1.58747,1.18581,3.82197,1.39745,5.69803.57965.26219-.11302.57486-.23331.92362-.31988.9982,1.22909,2.39323,2.03727,3.95903,2.15271,6.97767.6374,8.04319.63498,12.80556-1.64038,1.52494-.73117,2.64579-2.08534,3.06222-3.72814.01648-.06496.60581-2.65542.62535-2.72031.25705-.92362.27388-1.89053.06224-2.78527,3.13403-1.18102,7.88435-2.83824,14.36652-5.04865.19723.0313.40409.04328.60852.05533,2.08055.09619,4.78882.02403,7.76896-.11302-.50512.80812-.87791,1.72211-1.26039,2.84296-.55319,1.5586-.40887,3.26636.39446,4.69747.825,1.43595,2.2805,2.60729,3.80751,2.78049,15.77123,3.31443,47.89092-7.80262,56.10276-13.37322,1.60637-1.1016,2.51316-2.93195,2.47738-4.8634-.05805-1.94101-1.08507-3.73292-2.74199-4.75516-3.64423-2.2032-7.36275-4.47378-12.93571-4.50986.09619-1.24592.23809-2.82855.40645-4.91147.01447-.1347.02888-.26939.02197-.41135,1.03877-.40403,2.10429-.89232,3.22756-1.43353,24.20641,1.90499,48.98041,3.59829,61.99041-9.33712,6.49416-6.47013,9.34197-15.95642,8.45685-28.15587-.14432-1.96505-1.27958-3.69442-3.01138-4.62289l-4.1803-2.19116c.07216-3.63915,2.21283-6.97761,5.44069-11.62938,4.19955-6.04921,9.41413-13.57281,6.81404-23.70849-.10104-.37527-.23331-.73601-.39688-1.06074.89238-.37521,1.64038-.97653,2.21283-1.69572,1.26517.86351,2.81208,1.20506,4.33188.914,1.58747-.29585,2.96803-1.25071,3.81985-2.63374.44944-.77688.87756-1.56102,1.29127-2.37156,2.21767-.23331,4.13465-1.78228,4.83695-3.94704.3536-1.11601.5343-1.74857.82985-2.69144,1.35416-.47147,2.55196-1.31566,3.24469-2.67467.0072-.02161.04086-.05769.05291-.10098.67342-1.24592,1.00535-2.84544.73117-4.17315-.15395-.77688-.8827-1.25549-1.3397-1.91456.68305.19003,1.36887.3993,2.09047.64224,4.85856,1.50327,10.78961,3.39858,17.46417.08415,2.09738-1.03422,3.34567-3.25431,3.14879-5.6042-.34427-3.89413-.63769-4.99574-5.41453-12.56746.80091-.37757,1.5201-.96206,2.07813-1.71012.49066-.67348.84183-1.43111,1.00056-2.24407.76005-.48103,1.40707-1.13526,1.89053-1.94828,1.04149-1.81594,1.02466-4.06727-.07216-5.85676-.71919-1.15209-1.205-2.72516-1.75825-4.38479-.90673-2.87184-1.96747-6.11169-4.45211-9.05575-.65181-.73838-1.44794-1.28679-2.34752-1.63076.00242-.25492-.00963-.53636-.00963-.79129-.06974-2.79974-.13706-5.94581-1.38056-9.1905-.57457-1.50327-1.72701-2.68423-3.20861-3.26146-1.12569-.5268-2.46509-.78656-3.8003-.90443-.43296-.35354-.93325-.63256-1.45278-.84904-.72155-.31746-2.53271-.96448-5.19291-1.38782-.43054-.6061-1.00062-1.13768-1.67168-1.55618l-3.25189-2.02522c-.86829-.54599-1.87128-.84904-2.92475-.88996-1.9579-.04086-4.37274-.02403-7.07865.21406-.56282-.38962-1.22189-.5989-1.90257-.81296-.32951-.06974-30.76552-4.53147-43.21748,5.5008-9.15643-2.93922-12.62752-2.13104-17.38994.88754-.76005.48345-1.27716,1.17134-1.59946,1.98436-2.5183.31268-4.20439.04807-5.40219-.47389.5027-1.54897.34876-3.30717-.56282-4.76715-2.96089-4.88507-6.15267-7.70406-9.96738-8.14659-2.85501-.47867-5.34443.30547-7.46107,1.49606-.98858-.2766-1.89017-.53158-2.72752-.76489.1491-.44495.23809-.93082.25735-1.41186.07694-1.18339.07488-2.82855.04571-4.04082-.04571-1.49364-.65907-2.94164-1.75347-3.99033-2.00597-1.92897-4.2837-3.14607-6.35947-4.16825.11545-.40893.19965-.87071.22882-1.30367.12478-2.09738-.88784-4.02399-2.5715-5.12317.31061-1.76546-.22853-3.56215-1.43595-4.87303-1.36857-1.47203-3.38417-2.13104-5.3276-1.72695-7.80746,1.65479-15.97809-6.54471-25.37781-15.97088-14.67441-14.65516-34.35891-34.40225-64.11873-21.62799-7.39646-4.76237-12.28632-4.42081-16.15636-3.42267-.85146.22611-1.63076.60858-2.27536,1.16898-3.93021.05533-5.81832.84662-9.10629,4.30058-.39446.42334-.70472.86829-.96419,1.37578-24.92104-2.24407-27.42251-1.74378-39.86249,3.45397-1.15451.48587-2.08291,1.31324-2.68902,2.32585-1.25555.1804-2.49669.38726-3.75702.58927-1.65208.27902-3.11478,1.27964-3.96387,2.73478-.4642.74806-.72639,1.60188-.79099,2.48706-5.22934-.26219-14.37408-.86109-30.9438-1.98914-2.38845-.15879-4.60369,1.20984-5.58501,3.39137-.96212,2.18395-.47625,4.7528,1.25555,6.41964,2.03272,2.00597,4.18272,4.16347,22.03444,8.15374.06738.34155.42092.5412.55083.86593.21406.53394.49066.89717.85418,1.35174.31959.40887.38484.9597.81266,1.2748,8.12008,5.89284,18.1957,3.25426,22.1451,1.81352,1.13048-.39925,2.08291-1.15209,2.74919-2.12384.19003-.01683.40167-.02645.59169-.04086.72155.47861,1.62834.80333,2.51346.86587,2.48706.21164,4.82496,1.53935,7.55974,3.02579.39925.22611.80333.43296,1.22425.66628-.35838.87313-.51711,1.84724-.40651,2.85265.27902,2.23202,1.83762,4.10572,3.98826,4.77919.30033.08421.59376.19003.89439.27423-4.76237,4.0143-10.53014,6.81882-16.5673,9.75804-6.46292,3.14365-13.16872,6.40517-19.04237,11.40327-1.76546,1.49848-2.46055,3.89656-1.739,6.11417.01476.02888.02409.07694.03372.12507-6.7296,4.2501-13.84462,8.9716-19.43199,13.19518l-1.30367-.71434c-1.81116-1.0631-3.97344-.9525-5.70045.09141-105.97278,63.80157-117.88838,82.90163-135.9205,111.82476-6.60689,10.58547-14.07067,22.57565-27.52326,38.81344-.7721.94045-1.23872,2.10701-1.30125,3.31927-.28858,5.15204-5.76293,17.236-10.15977,26.96044-7.9036,17.51738-11.93243,26.92672-9.63539,32.85322.76489,1.97473,2.25405,3.52613,4.15626,4.33909ZM594.05703,979.20702c-.01205-.63498.41129-2.86706,1.18339-6.53024,2.41962-.94287,5.20732-1.55139,8.13691-2.1647,6.66045-1.44557,14.70087-3.1942,20.41337-10.09245,1.57543.57971,3.08112,1.07278,4.59915,1.35901-.01955.48103-.01234.94765.0574,1.35895l.3536,2.04447c-.06017.05291-.14916.12023-.2117.17314-1.34212,1.15215-2.04447,2.83098-1.9843,4.51707-2.28499,1.20984-4.59643,2.50867-6.80926,4.04082-17.66176-3.10273-18.14521-3.02821-21.50776.12749-.1034.09862-.12265.24294-.21406.34634-.09377.08179-.17798.12749-.26939.21406-.46627.42334-.87307.88754-1.11843,1.26039-.00478.02161-.01199.04328-.01199.04328-1.69814,2.67225-.90201,6.18627,1.75099,7.87956.47383.29585.98616.53158,1.52252.6831.51475.14432,1.03428,0,1.5586-.00242,4.01436,1.93145,6.08771,5.60904,8.52659,11.61018,2.22009,5.46472,4.68542,11.5307,10.22957,15.63405-5.7053,2.9176-11.01607,5.08715-15.27337,6.30177.78172-1.42632,1.95306-3.02579,3.17288-4.7215,1.64487-.27417,3.1433-.92604,4.08139-2.13825.43775-.57244.61094-.7793.81054-1.48644.30341-.75048.49579-1.85445.47176-2.67225-.10133-2.3451-1.8163-4.19234-3.96175-4.93314.26697-1.11123.30783-2.27536-.1419-3.39864-3.12924-7.82665-8.22596-12.45438-13.86352-13.98895-.69545-.1491-1.37613-.27175-2.05681-.33913.37037-.52195.79129-1.01261.97169-1.65721.34155-1.2122-.00478-2.36914-.41608-3.46838ZM608.70735,1012.47402c.04813-.06011.06496-.1034.11308-.17078l.07216.12991c-.07458.04328-.11066.00478-.18524.04086ZM609.21726,1002.9709c.03372-.077.05775-.15153.08663-.23089.01683.00957.04086.01683.05533.02645l-.14196.20444ZM509.64965,990.09802c1.34212-.98858,2.03969-2.64579,2.15029-4.28375.0385-.54599-.00963-1.11365-.13676-1.65964,14.48409-4.96922,35.84269-10.09481,41.97847-10.24876.05533-.00242.08657-.06254.1419-.06496,1.54177-.05533,2.78049-.63256,3.80509-1.7462.02645-.02888.0698-.01683.09383-.04328.72875.04086,1.51289.05291,2.36914.06254-.06254.30547-.1106.63982-.1106.96448-.06496,2.29703,1.26517,4.40883,3.36492,5.34449,9.85187,4.43286,15.2589,6.87658,18.72728,8.05754-7.38412,3.28077-14.50364,9.50554-20.36495,14.62392-21.94575,19.34543-42.51306,29.48836-55.62167,34.52012,5.04622-4.86098,10.06357-8.62042,12.66395-10.4604,1.70776-1.21226,2.63103-3.26878,2.36164-5.36132-1.14004-9.14474-8.96433-18.40498-17.01951-25.69284,2.02522-1.35416,3.39621-2.35957,5.597-4.01194Z"/>
  <path class="cls-9" d="M929.13177,1280.07278c4.14634-12.84506,6.89435-23.47075,29.07731-29.40469,1.50356-.31994,3.33155.26219,5.40697,1.70292,6.93899,4.72658,14.16167,16.7128,19.53557,27.70177h21.22396c-6.02819-10.7674-12.13976-21.81188-14.88387-33.73657,5.40213,6.7492,11.53554,17.6666,16.81272,27.09271,1.24055,2.2123,2.48653,4.43298,3.74054,6.64386h180.25488c-26.94508-122.12956-97.36157-238.96103-201.7963-329.28854-2.13624-1.80396-5.27269-1.84966-7.42298-.04328-.61815.54357-1.11571,1.16892-1.4503,1.86165-1.51301-1.04869-3.47328-1.3205-5.22911-.67826l-4.25736,1.63076c-1.4503.54357-2.61692,1.65237-3.22774,3.0787-.60846,1.42869-.62299,3.04504-.00968,4.49061,9.26266,21.89496,10.5038,24.81493,16.78662,29.00969.05504.29343.09614.5604.15838.83221-1.50333-.00484-2.98008.55319-4.10572,1.67404-1.84937,1.89053-2.18407,4.80807-.77452,7.05698,5.46236,8.7599,9.84502,14.1116,14.28237,18.27506-.30553.26219-.57965.57971-.81786.93082-1.47888,2.1311-1.32771,4.97648.36565,6.95842.45469.52189.94045,1.09676,1.47687,1.66442-.01205.04328-.00213.09141-.01925.15631.01441,1.76546-.61579,3.67287-1.32771,5.88328-.27896.91636-.59406,1.87128-.87797,2.88146-1.66678-1.48886-3.52571-2.70591-5.33717-3.51408-2.4413-1.12563-5.17372-.3872-6.75629,1.62598-.16841.18282-.2936.37999-.41856.57723-7.79547-5.15441-17.40441-7.89639-21.89018-8.82964-2.13588-2.54475-5.27233-5.07026-8.54342-6.28973-.8227-1.5273-2.33796-2.64815-4.01678-2.93437-1.89543-.34639-3.86278.30547-5.17844,1.69808l-1.86897-.52432c-.02161-.00726-.04334-.01205-.06484-.01925-2.23214-.62535-4.65147.15395-6.08063,2.0228-5.29383,6.90067-6.92943,9.01246-7.75685,12.53375-.61094.19965-1.2435.39204-1.95306.60852-2.26095.70956-3.87234,2.7372-4.00474,5.10876-.08893,1.38782-.24979,3.28797-.40887,4.68058-.21164,2.07093.6831,4.08174,2.38602,5.27954,1.30881.94529,2.95363,2.10217,4.49782,3.20619-.61342,5.48155-2.8719,12.05029-5.05101,18.41218-4.55805,13.26734-9.28427,26.97485-2.92965,38.09431,3.73062,6.51341,10.65285,10.65527,20.90154,13.3467-.35112,4.88023.81066,10.65042,6.01567,29.16122-4.84669,5.217-15.09066,14.8981-36.32408,25.84921-1.42632.71192-2.50141,2.14787-2.92965,3.67281q-1.33491,4.83695-10.61671,8.27887c-2.83824,1.03186-4.37038,4.10093-3.49005,6.98724,1.73174,5.72213,4.8298,10.69129,7.85795,15.50172,4.15142,6.58563,10.85008,19.16992,10.41947,25.9046-7.28787,3.38659-20.50472-4.87551-25.40178-4.63977-6.19589.30069-21.07445-6.21266-25.50282,6.19589-.71883,2.02286-.09141,14.19344-.6374,16.79595-1.38339,6.59673-4.45914,16.5288-6.33112,24.83471h78.4931ZM988.04649,1057.3271c-.02681.59406.01653,1.18575.17042,1.78465-.43497-.42328-.91612-.85866-1.42113-1.37099.44218-.08415.85105-.22369,1.25071-.41365ZM978.70411,1108.12352c-.87986.90915-1.44557,2.09496-1.57301,3.37933-.44017,4.04566.27671,9.99141,2.79253,14.1501.9212,1.50811,2.57605,2.46055,4.17551,2.70106,1.22933.15879,2.48216-.09135,3.53327-.69988.15401.27417.28628.54357.42576.79129l-3.31207,5.69561c-5.6114,9.68116-10.46282,18.04901-13.4814,18.56855-.63504.12265-1.47687-.01925-2.62412-.55083.17314-.20444.33919-.45936.47383-.69993,8.38469-15.02075,3.84117-30.19302-.16558-43.57102-.69751-2.30424-1.36893-4.53147-1.97751-6.74194,3.61512,3.63195,7.74729,5.74138,11.73277,6.97767Z"/>
  <path class="cls-7" d="M578.25335,324.7326c0,5.79057-28.87781,10.48504-64.50055,10.48504s-64.49979-4.69446-64.49979-10.48504,28.87781-10.48428,64.49979-10.48428,64.50055,4.69371,64.50055,10.48428Z"/>
  <ellipse class="cls-5" cx="513.63985" cy="323.49095" rx="49.52496" ry="4.48904"/>
  <circle class="cls-11" cx="247.39245" cy="252.6127" r="83.56704" transform="translate(-44.12768 452.69322) rotate(-80.06135)"/>
  <path class="cls-3" d="M406.65093,381.54387c0,11.44925-9.28129,20.73053-20.73053,20.73053-11.45,0-20.73129-9.28129-20.73129-20.73053,0-11.45,9.28129-20.73129,20.73129-20.73129,11.44925,0,20.73053,9.28129,20.73053,20.73129Z"/>
  <path class="cls-9" d="M538.23481,323.23474c0,14.95361-12.12162,27.07522-27.07522,27.07522s-27.07598-12.12162-27.07598-27.07522,12.12248-27.07598,27.07598-27.07598,27.07522,12.12237,27.07522,27.07598Z"/>
  <path class="cls-5" d="M563.16482,323.49095c0,2.47875-22.17306,4.48904-49.52496,4.48904s-49.52496-2.01029-49.52496-4.48904c.41323.05003,19.92551,3.71585,48.84274,3.77422,38.5419.07808,50.20719-3.77422,50.20719-3.77422Z"/>
  <path class="cls-5" d="M562.52656,330.40946c0,2.47875-22.17296,4.48904-49.52496,4.48904s-49.52496-2.01029-49.52496-4.48904c.41237.05003,19.92551,3.71585,48.84274,3.77422,38.54114.07808,50.20719-3.77422,50.20719-3.77422Z"/>
  <path class="cls-4" d="M1753.47934,794.39803s-111.32102-59.08703-140.87256-68.29409l-51.38712,21.70361c-15.95473,7.7202-23.62557,37.07468-29.38329,51.99547-9.44464,24.47514,24.17583,85.59086,24.17583,85.59086,0,0,145.25,65.07969,146.28574,64.39858,12.89932-8.48283,82.58307-70.75854,51.18141-155.39444"/>
  <path class="cls-4" d="M1650.56137,764.97219s-90.80723-48.1987-114.91313-55.70912l-41.9177,17.70416c-13.01466,6.29755-19.27194,30.24271-23.96866,42.41395-7.70422,19.96496,19.7208,69.81852,19.7208,69.81852,0,0,118.48391,53.08707,119.32879,52.53147,10.52229-6.91965,67.36499-57.71944,41.7499-126.75897"/>
  <path class="cls-4" d="M1568.63102,712.76266s-106.97383-56.77962-135.37136-65.62714l-49.3804,20.85607c-9.87027,4.63953-28.72033,55.12326-31.13294,63.23808-1.49046,5.01317,26.12883,68.97537,26.12883,68.97537,0,0,139.57786,62.53827,140.57315,61.88375,12.39559-8.15157,79.35813-67.99536,49.18273-149.32614"/>
  <path class="cls-4" d="M1387.7709,672.53358s-50.81367-26.9709-64.30278-31.17356l-23.4562,9.90685c-4.68848,2.20382-13.64245,26.18411-14.78847,30.03874-.70799,2.38131,12.41146,32.76401,12.41146,32.76401,0,0,66.30092,29.70632,66.77369,29.39542,5.88803-3.87208,37.69592-32.29849,23.3623-70.93145"/>
  <polygon class="cls-6" points="1701.11211 753.29364 1658.9464 733.36119 1801.40772 425.84395 1843.57343 445.7764 1701.11211 753.29364"/>
  <polygon class="cls-6" points="1476.79389 1233.04211 1434.62818 1213.10966 1577.0895 905.59242 1619.25521 925.52487 1476.79389 1233.04211"/>
  <rect class="cls-6" x="1101.14606" y="421.5913" width="11.7185" height="52.90425" transform="translate(2181.16176 -73.86806) rotate(132.05091)"/>
  <path class="cls-4" d="M878.46103,295.88847c-1.04269,1.30128-28.54425-3.01284-28.54425-3.01284l60.62559-79.57616,9.73676,30.43307c-15.37519,16.0242-13.9503,16.04113-23.66595,28.69744-13.49221,17.57591-9.97597,13.25462-18.15214,23.4585Z"/>
  <path class="cls-4" d="M877.04849,306.11418s48.1823,45.32218,61.86952,54.07363l29.02041-3.87603c9.14615-1.70042,17.09256-15.50049,22.07272-22.25777,8.16914-11.08423-.39374-46.67943-.39374-46.67943,0,0-64.53064-53.05209-65.14929-52.8506-7.7048,2.50941-51.60386,24.39417-47.41962,71.5902"/>
  <path class="cls-4" d="M925.08169,335.25632s39.30346,36.97039,50.46845,44.10916l23.67264-3.16177c7.46073-1.38708,13.94282-12.64412,18.00524-18.1562,6.66376-9.04167-.32118-38.07753-.32118-38.07753,0,0-52.63919-43.27586-53.14384-43.1115-6.28499,2.04699-42.09451,19.89891-38.68132,58.39784"/>
  <path class="cls-4" d="M959.33581,373.02873s46.30074,43.5523,59.45346,51.962l27.88714-3.72467c5.6393-.98284,22.16996-23.93308,24.51456-27.70758,1.44844-2.33181-3.68217-38.53755-3.68217-38.53755,0,0-62.01066-50.98035-62.60515-50.78673-7.40392,2.41142-49.58869,23.44156-45.56784,68.79453"/>
  <path class="cls-4" d="M1045.33475,418.42791s21.99333,20.68779,28.241,24.68249l13.24668-1.76926c2.67873-.46686,10.53096-11.36846,11.64467-13.16139.68803-1.10763-1.74907-18.30573-1.74907-18.30573,0,0-29.4557-24.21619-29.73809-24.12422-3.51694,1.14545-23.55514,11.13498-21.64519,32.67811"/>
  <path class="cls-6" d="M862.41412,390.12802c-.55823,1.9209-1.48102,3.75098-2.16748,5.62842-.42078,1.15137-.80682,2.32129-1.08405,3.51562-.20844.89893-.4118,1.91553-.20996,2.83398.1853.84375.71863,1.18359,1.38501,1.24951,1.29254-.39355,2.58356-.79736,3.87616-1.1958.35089-.10791.16193.81543-.06281.93213-.96893.50098-2.57654,1.25928-3.8584,1.21387-1.9281.60205-3.86206,1.18555-5.81866,1.68311.72058.43701,1.45837.81543,2.27258,1.08154,1.04218.34033,2.11932.57031,3.19409.78076,2.24152.43848,4.50287.77832,6.73169,1.2793l49.78906-59.03027-18.58911-15.92773-39.63379,46.99023c.76587.26709,1.50867.59082,2.185,1.03613,2.60895,1.71777,2.79584,5.1582,1.99066,7.9292Z"/>
  <path class="cls-6" d="M895.14856,401.37995c-1.05218.16073-2.05293.16884-3.1091.04604-.39623-.04624-.79553-.10075-1.19483-.16331-.27263.21078-.54112.42665-.81816.63193-4.27517,3.17081-8.99151,5.4809-14.04396,6.84758l-4.62138,16.71304c2.67702.48042,5.34088,1.6811,7.58189,2.81446,1.59791.80776,3.26771,1.52874,5.00416.6665,1.15334-.57267,2.10655-1.52572,2.96417-2.46707,1.04321-1.14436,2.08756-2.27366,3.03863-3.4982,5.42309-6.9837,8.81347-15.47545,13.79185-22.7717l.27191-.98271c-2.96759.68176-5.89849,1.70941-8.86518,2.16344Z"/>
  <path class="cls-6" d="M851.71893,387.70363c1.60732-1.35323,3.47131-2.61483,4.99309-3.94943.4523-.39681.70662-.71216,1.14176-1.28645.54627-.72074,1.01794-1.51906,1.26293-2.39582.39747-1.42305.01366-2.84234-.7674-4.05973-.34749-.54184-.75655-1.0401-1.18562-1.5224l-29.69158,10.37439c1.32658,1.11791,2.72761,2.15391,4.21727,3.08462,4.83108,3.01871,10.16522,4.649,15.60321,6.01226-.08095-.3417-.06834-.73585.08836-1.20307.31432-.9373.97215-1.75942,1.62399-2.48411.83462-.92804,1.76046-1.76753,2.71398-2.57025Z"/>
  <path class="cls-6" d="M816.55281,478.75782c-7.11713,2.90332-14.14258,6.02637-21.08362,9.32764l11.53998,9.8877,19.48193-23.09814c-3.33044,1.24854-6.64502,2.53906-9.93829,3.88281Z"/>
  <path class="cls-6" d="M853.11288,488.68188c3.14771-1.12158,6.53632-2.5083,9.94495-2.01758.24744.03516.10962.56543.06006.67432-1.80896,3.98389-5.31812,6.62012-8.61304,9.33594,2.25891.03662,4.51929.18604,6.7442.58838,3.83423.69336,7.5246,2.19629,10.38171,4.90479l32.68628-38.75342c-2.42084,1.5625-4.76031,3.26318-7.06128,4.95996-4.88086,3.59961-9.76141,7.34424-15.31384,9.86523-1.33508.60645-2.71075,1.22363-4.11786,1.6416-.96948.28809-2.0224.48047-3.02917.27783-1.77936-.35742-2.88934-1.98047-3.94128-3.31348-1.45361-1.84131-3.33185-3.83691-5.47339-5.23389l-15.25281,18.0835c1.01337-.31445,2.01251-.6665,2.98547-1.01318Z"/>
  <path class="cls-6" d="M810.6153,426.24852c-2.12494-3.73184-5.37203-6.71527-8.73079-9.32384-.34546-.26815.39525-.6876.62009-.69813,4.22082-.20206,8.73829.09859,12.66941-1.69145-2.43557-2.3074-5.94562-3.23225-9.04803-4.25334-1.15864-.38162-2.34549-.78075-3.50061-1.25104l-25.01801,5.36244c.78318,1.18891,1.68864,2.29588,2.69493,3.31173,6.18858,6.24463,14.82717,9.72202,20.22591,16.81l12.10631-2.59505c-.34183-1.97482-1.00445-3.88928-2.01921-5.67132Z"/>
  <path class="cls-6" d="M805.91499,444.199c-1.91187-.38965-3.86053-.57324-5.81207-.62988-4.55383-.13232-9.09747.34326-13.64978.34961-3.35919.00439-6.80554-.24756-9.97119-1.40479l-8.052,9.54639,6.37079,5.4585c10.18378-4.86279,20.55536-9.33545,31.11426-13.31982Z"/>
  <polygon class="cls-6" points="1077.8404 122.32955 1096.42955 138.25697 981.74183 274.23118 963.15269 258.30377 1077.8404 122.32955"/>
</svg>