<?xml version="1.0" encoding="UTF-8"?>
<svg id="Ebene_2" data-name="Ebene 2" xmlns="http://www.w3.org/2000/svg" viewBox="0 0 1920 1280">
  <defs>
    <style>
      .cls-1 {
        stroke: #f3f5f7;
        stroke-width: 3.36297px;
      }

      .cls-1, .cls-2, .cls-3 {
        stroke-miterlimit: 10;
      }

      .cls-1, .cls-4 {
        fill: #124a64;
      }

      .cls-2 {
        fill: none;
        stroke: #124a64;
        stroke-width: 15.08781px;
      }

      .cls-5 {
        fill: #932338;
      }

      .cls-6 {
        fill: #ced9de;
      }

      .cls-7 {
        fill: #7894a3;
      }

      .cls-8 {
        fill: #90172f;
      }

      .cls-9, .cls-3 {
        fill: #0d435c;
      }

      .cls-10 {
        fill: #f3f5f7;
      }

      .cls-11 {
        fill: #fcc203;
      }

      .cls-3 {
        stroke: #0d435c;
        stroke-width: 5.33739px;
      }

      .cls-12 {
        fill: #7996a5;
      }

      .cls-13 {
        fill: #a1b9c0;
      }
    </style>
  </defs>
  <rect class="cls-10" x="-7.61359" y="-7.64482" width="1935.7395" height="1298.11094"/>
  <path class="cls-6" d="M1189.82324,1281.00852c-49.88059-209.67197-208.98213-386.73389-431.20379-449.09154C432.482,740.39977,93.90735,930.59711,2.39008,1256.7342c-2.26875,8.08506-4.3571,16.17792-6.28181,24.27431h1193.71497Z"/>
  <path class="cls-12" d="M797.28826,984.97551c.0914-.89956.06735-1.9723-.29344-3.1629.32711-.25496.68582-.5484,1.0102-.87551.06735-.07216.13262-.14672.20685-.24293,1.88331-.60612,3.17733-1.58506,4.32737-3.69687.69752-1.33251.87037-2.85743.46148-4.29337-.33673-1.18819-.95488-1.89533-1.60671-2.64096.66866-.85386,1.14249-1.86166,1.30605-2.8863.10583-.71195.10102-1.43112-.07456-2.12864-.04089-.1852-.24534-.48586-.35357-.76006.23331-3.65357.07489-6.79001-2.29942-9.01968-.19483-.54118-.43776-1.16414-.78652-1.81837,3.36013-1.16414,7.19409-2.77566,8.87777-6.54227.7336-1.62595,1.29643-4.29337-.12748-7.63426-.97653-2.22004-3.25911-3.57901-5.64512-3.41305-.1395.00481-.28108.01203-.42813.04089-1.98914-.25736-7.29271-2.16232-10.23914-3.38178-2.61691-4.6277-4.53149-5.23382-18.95783-6.40998-4.82766-5.82551-12.041-4.46654-16.91162-3.54052-4.28134.81297-6.29902.98856-7.02813-.05051-1.49366-1.85445-3.95182-2.59045-6.21275-1.8809-.5625.19001-1.07274.44016-1.53695.77208-2.49905-.74803-4.47857-.46902-6.19111,1.34453-10.65732-1.80875-30.03192-4.16589-33.92842,1.71254-4.68061-1.14971-10.98476-2.54716-17.13706,2.37398-1.48917,1.17857-2.22758,2.98732-2.13378,4.79847-.32471.41851-.57245.88032-.78171,1.37821-1.72216,4.40401-.79133,7.6078.2766,9.50554,2.82857,4.94038,8.79632,5.96501,14.64555,6.91268,2.16953.35357,6.06363,1.00539,6.92952,2.12864-2.44133,3.41545-2.99694,6.22478-2.80211,8.3414-.60853.5941-1.23389,1.25313-1.7871,2.07092-.46181.65663-.76487,1.40466-.91159,2.17434-1.44796,2.02762-2.13345,4.22121-1.90977,6.39074.00481.23331.05292.47864.08418.69512-3.35051,2.85984-6.02514,6.69621-5.25995,10.82361.13918.73601.40889,1.59708.90886,2.45576-5.10875,4.1731-6.52063,6.39555-6.88382,9.99861-.04089.31268-.03816.63739-.00962.94767-10.51542,15.51144-6.12376,25.03622,3.65598,46.24088.72398,1.54657,2.05408,2.66261,3.64395,3.10758.62296.17558,1.29643.24774,1.95787.20204,14.36173-1.06552,49.56734-18.05619,66.17316-35.21763,11.35758,7.5645,26.74876-2.70831,33.21647-7.1027.57726-.06975,1.16895-.20445,1.74894-.3656,2.38808-.67347,4.05732-2.82376,4.14391-5.27711.07216-2.31866-.21888-4.09133-3.03302-8.58914.88546-1.09439,1.55138-2.39082,1.6957-3.4852Z"/>
  <path class="cls-12" d="M896.50471,1150.97308c.52194-1.77748.55802-4.22121-1.43834-6.84293,1.76305-7.35765,2.36436-11.73039-.97413-14.93659-1.99876-1.8809-4.42325-2.23688-6.66735-2.08054-1.38783-3.14606-2.86946-8.10087-4.13943-12.32689-3.55255-11.76647-6.92919-22.92922-13.89511-27.08549,1.00539-3.17012,1.38783-6.67456.16596-9.58972-.43776-1.00299-1.15692-1.90015-2.0754-2.50627l-1.89085-1.26997c-2.03724-1.40707-4.87784-1.27719-6.81166.33433-2.89351,2.38601-4.38203,5.62828-5.57777,8.23316-1.87609,4.12981-2.40765,4.69985-4.36312,4.82252-1.81115.0938-3.46596,1.04147-4.47376,2.5664-1.00058,1.50328-1.21224,3.41305-.57966,5.11837.15634.43776.16596,1.39023.1828,2.32106.01684,2.09016.04329,4.96924,1.63797,7.87237.38003.70955.90918,1.29883,1.51771,1.77026-.16837,1.18098-.15153,2.27296.11305,3.22784.46421,1.56582,1.65274,2.94162,3.12923,3.70408.40168,1.29402,1.16654,2.20321,2.49217,3.17733.53363.40649,1.14938.69271,1.76993.86829.50991.90678,1.22908,1.73418,2.20802,2.44854.70233.47624,1.41188.83703,2.16232,1.04869-.29825.98134-.58688,1.8328-.85867,2.50386-1.1906.74322-2.18637,1.7438-2.58083,3.15568-.24293.85867-.26939,1.77748-.07697,2.66501.00722.03608.04089.06975.0481.10583.00481.03127-.01924.05773-.00962.08899.43535,2.32347,1.07274,3.84599,2.02522,4.99329-1.46239,3.31924-1.50809,6.36428-.12988,9.13753.41851.81297.99096,1.66684,1.82799,2.48222-4.92595,3.59825-5.28673,4.72391-5.55853,7.75211-.17318,1.94344.74082,3.79789,2.28258,4.99329.57245.44016,1.22187.76006,1.90977.95488,1.15933.32471,2.41487.30547,3.5742-.11064,1.27959-.42813,6.36702-.80816,10.08039-1.08477,14.69606-1.11122,23.09037-2.04687,24.97368-8.51217Z"/>
  <path class="cls-12" d="M839.58694,1091.53999c-1.08236-.92843-4.75277-3.53331-9.88076-.19964-.10343.03848-.1852.08659-.26939.13229,0,0-.20445.15153-.52915.40649-.95248.75284-2.9777,2.43171-4.92595,4.59402-.75525.4594-1.3734,1.09679-1.85204,1.89052-.22128.37762-.42059.76006-.56764,1.11363-1.9266,2.81895-3.18455,5.98666-2.14308,8.87296.20685.59169.51024,1.16173.88513,1.63797-.27179,1.54657-.25015,3.03542.28863,4.25007.33673.78892.87792,1.49847,1.5129,2.04687.24293,1.11122.78411,1.90977,1.7414,2.87427.34636.32952.70714.61574,1.0992.86589.51713,1.04628,1.29643,1.98433,2.49905,2.73717.58962.37522,1.20984.6422,1.81115.81057,2.29701.64461,4.5363-.06975,6.18389-.90678,1.62114-.33192,3.08353-1.33491,3.92329-2.83579.11753-.17558,7.46556-21.90218.22336-28.29052Z"/>
  <path class="cls-12" d="M139.53489,1164.06242c2.43173.914,5.08467.29106,6.70344-1.68609,9.11586-11.43214,14.75378-24.67539,20.20167-37.48579.4645-1.07515.9284-2.14787,1.37099-3.23022-.34876.99094-.70236,2.00355-1.04869,2.99697-16.81892,47.17516-36.98309,103.77601-4.55569,156.35123h52.35826c12.32972-11.8882,33.3153-34.10883,30.16107-44.80549-.47383-1.61635-1.63076-2.93674-3.18209-3.60307-11.66067-5.17124-19.81447,2.01318-25.80593,7.18925-6.57595,5.68368-9.57049,7.43703-13.97926,5.3204-.62057-.43048-14.826-10.06836-10.29446-31.75162.71434-.72633,1.60667-1.68131,2.79005-2.92481,51.76816-55.12824,66.45941-55.14991,69.97349-53.88716,2.17433.84183,3.50924,4.82974,3.67039,10.94391.06732,1.98908,1.76061,4.13217,3.49483,5.12795l2.92989,1.28442c1.38753.50507,2.70077.69031,4.0694.19239,2.59766-.59169,14.4411.95008,22.287,1.96989,11.39606,1.48408,18.86676,2.35237,23.92261,2.33311.03608,5.73169-2.30424,16.2186-13.45465,33.9139-1.72489,2.75887-1.70322,4.82744-1.05832,6.32829-.01955,2.54239-.58236,8.5916-.99371,12.78389-1.38747,14.85481-1.54655,17.40441.66385,19.92259,1.06074,1.17866,2.66746,1.88338,4.21402,1.99404,1.99877.05055,3.89408-.92356,4.97164-2.61219,6.00108-9.2505,11.15584-19.20099,16.15607-28.84606,14.06105-27.16487,27.34764-52.80717,56.9009-57.57922.63019-.10098,1.27002-.3151,1.84724-.63976,4.08652-2.25853,7.2786-5.46236,10.15498-8.9403.60852.05527,1.26511.02882,1.88604-.12029,5.88528-1.40707,8.36272-2.56401,16.33369-10.65763,1.3208.16115,2.68187-.15153,3.82434-.91884,8.71661-5.80143,18.71281-8.74065,23.87206-9.95769.05055-.00963.12749-.03372.17562-.04334.52432.0313,1.25342.07458,1.38298.11066,1.58747,1.18581,3.82197,1.39745,5.69803.57965.26219-.11302.57486-.23331.92362-.31988.9982,1.22909,2.39323,2.03727,3.95903,2.15271,6.97767.6374,8.04319.63498,12.80556-1.64038,1.52494-.73117,2.64579-2.08534,3.06222-3.72814.01648-.06496.60581-2.65542.62535-2.72031.25705-.92362.27388-1.89053.06224-2.78527,3.13403-1.18102,7.88435-2.83824,14.36652-5.04865.19723.0313.40409.04328.60852.05533,2.08055.09619,4.78882.02403,7.76896-.11302-.50512.80812-.87791,1.72211-1.26039,2.84296-.55319,1.5586-.40887,3.26636.39446,4.69747.825,1.43595,2.2805,2.60729,3.80751,2.78049,15.77123,3.31443,47.89092-7.80262,56.10276-13.37322,1.60637-1.1016,2.51316-2.93195,2.47738-4.8634-.05805-1.94101-1.08507-3.73292-2.74199-4.75516-3.64423-2.2032-7.36275-4.47378-12.93571-4.50986.09619-1.24592.23809-2.82855.40645-4.91147.01447-.1347.02888-.26939.02197-.41135,1.03877-.40403,2.10429-.89232,3.22756-1.43353,24.20641,1.90499,48.98041,3.59829,61.99041-9.33712,6.49416-6.47013,9.34197-15.95642,8.45685-28.15587-.14432-1.96505-1.27958-3.69442-3.01138-4.62289l-4.1803-2.19116c.07216-3.63915,2.21283-6.97761,5.44069-11.62938,4.19955-6.04921,9.41413-13.57281,6.81404-23.70849-.10104-.37527-.23331-.73601-.39688-1.06074.89238-.37521,1.64038-.97653,2.21283-1.69572,1.26517.86351,2.81208,1.20506,4.33188.914,1.58747-.29585,2.96803-1.25071,3.81985-2.63374.44944-.77688.87756-1.56102,1.29127-2.37156,2.21767-.23331,4.13465-1.78228,4.83695-3.94704.3536-1.11601.5343-1.74857.82985-2.69144,1.35416-.47147,2.55196-1.31566,3.24469-2.67467.0072-.02161.04086-.05769.05291-.10098.67342-1.24592,1.00535-2.84544.73117-4.17315-.15395-.77688-.8827-1.25549-1.3397-1.91456.68305.19003,1.36887.3993,2.09047.64224,4.85856,1.50327,10.78961,3.39858,17.46417.08415,2.09738-1.03422,3.34567-3.25431,3.14879-5.6042-.34427-3.89413-.63769-4.99574-5.41453-12.56746.80091-.37757,1.5201-.96206,2.07813-1.71012.49066-.67348.84183-1.43111,1.00056-2.24407.76005-.48103,1.40707-1.13526,1.89053-1.94828,1.04149-1.81594,1.02466-4.06727-.07216-5.85676-.71919-1.15209-1.205-2.72516-1.75825-4.38479-.90673-2.87184-1.96747-6.11169-4.45211-9.05575-.65181-.73838-1.44794-1.28679-2.34752-1.63076.00242-.25492-.00963-.53636-.00963-.79129-.06974-2.79974-.13706-5.94581-1.38056-9.1905-.57457-1.50327-1.72701-2.68423-3.20861-3.26146-1.12569-.5268-2.46509-.78656-3.8003-.90443-.43296-.35354-.93325-.63256-1.45278-.84904-.72155-.31746-2.53271-.96448-5.19291-1.38782-.43054-.6061-1.00062-1.13768-1.67168-1.55618l-3.25189-2.02522c-.86829-.54599-1.87128-.84904-2.92475-.88996-1.9579-.04086-4.37274-.02403-7.07865.21406-.56282-.38962-1.22189-.5989-1.90257-.81296-.32951-.06974-30.76552-4.53147-43.21748,5.5008-9.15643-2.93922-12.62752-2.13104-17.38994.88754-.76005.48345-1.27716,1.17134-1.59946,1.98436-2.5183.31268-4.20439.04807-5.40219-.47389.5027-1.54897.34876-3.30717-.56282-4.76715-2.96089-4.88507-6.15267-7.70406-9.96738-8.14659-2.85501-.47867-5.34443.30547-7.46107,1.49606-.98858-.2766-1.89017-.53158-2.72752-.76489.1491-.44495.23809-.93082.25735-1.41186.07694-1.18339.07488-2.82855.04571-4.04082-.04571-1.49364-.65907-2.94164-1.75347-3.99033-2.00597-1.92897-4.2837-3.14607-6.35947-4.16825.11545-.40893.19965-.87071.22882-1.30367.12478-2.09738-.88784-4.02399-2.5715-5.12317.31061-1.76546-.22853-3.56215-1.43595-4.87303-1.36857-1.47203-3.38417-2.13104-5.3276-1.72695-7.80746,1.65479-15.97809-6.54471-25.37781-15.97088-14.67441-14.65516-34.35891-34.40225-64.11873-21.62799-7.39646-4.76237-12.28632-4.42081-16.15636-3.42267-.85146.22611-1.63076.60858-2.27536,1.16898-3.93021.05533-5.81832.84662-9.10629,4.30058-.39446.42334-.70472.86829-.96419,1.37578-24.92104-2.24407-27.42251-1.74378-39.86249,3.45397-1.15451.48587-2.08291,1.31324-2.68902,2.32585-1.25555.1804-2.49669.38726-3.75702.58927-1.65208.27902-3.11478,1.27964-3.96387,2.73478-.4642.74806-.72639,1.60188-.79099,2.48706-5.22934-.26219-14.37408-.86109-30.9438-1.98914-2.38845-.15879-4.60369,1.20984-5.58501,3.39137-.96212,2.18395-.47625,4.7528,1.25555,6.41964,2.03272,2.00597,4.18272,4.16347,22.03444,8.15374.06738.34155.42092.5412.55083.86593.21406.53394.49066.89717.85418,1.35174.31959.40887.38484.9597.81266,1.2748,8.12008,5.89284,18.1957,3.25426,22.1451,1.81352,1.13048-.39925,2.08291-1.15209,2.74919-2.12384.19003-.01683.40167-.02645.59169-.04086.72155.47861,1.62834.80333,2.51346.86587,2.48706.21164,4.82496,1.53935,7.55974,3.02579.39925.22611.80333.43296,1.22425.66628-.35838.87313-.51711,1.84724-.40651,2.85265.27902,2.23202,1.83762,4.10572,3.98826,4.77919.30033.08421.59376.19003.89439.27423-4.76237,4.0143-10.53014,6.81882-16.5673,9.75804-6.46292,3.14365-13.16872,6.40517-19.04237,11.40327-1.76546,1.49848-2.46055,3.89656-1.739,6.11417.01476.02888.02409.07694.03372.12507-6.7296,4.2501-13.84462,8.9716-19.43199,13.19518l-1.30367-.71434c-1.81116-1.0631-3.97344-.9525-5.70045.09141-105.97278,63.80157-117.88838,82.90163-135.9205,111.82476-6.60689,10.58547-14.07067,22.57565-27.52326,38.81344-.7721.94045-1.23872,2.10701-1.30125,3.31927-.28858,5.15204-5.76293,17.236-10.15977,26.96044-7.9036,17.51738-11.93243,26.92672-9.63539,32.85322.76489,1.97473,2.25405,3.52613,4.15626,4.33909ZM591.3967,980.14276c-.01205-.63498.41129-2.86706,1.18339-6.53024,2.41962-.94287,5.20732-1.55139,8.13691-2.1647,6.66045-1.44557,14.70087-3.1942,20.41337-10.09245,1.57543.57971,3.08112,1.07278,4.59915,1.35901-.01955.48103-.01234.94765.0574,1.35895l.3536,2.04447c-.06017.05291-.14916.12023-.2117.17314-1.34212,1.15215-2.04447,2.83098-1.9843,4.51707-2.28499,1.20984-4.59643,2.50867-6.80926,4.04082-17.66176-3.10273-18.14521-3.02821-21.50776.12749-.1034.09862-.12265.24294-.21406.34634-.09377.08179-.17798.12749-.26939.21406-.46627.42334-.87307.88754-1.11843,1.26039-.00478.02161-.01199.04328-.01199.04328-1.69814,2.67225-.90201,6.18627,1.75099,7.87956.47383.29585.98616.53158,1.52252.6831.51475.14432,1.03428,0,1.5586-.00242,4.01436,1.93145,6.08771,5.60904,8.52659,11.61018,2.22009,5.46472,4.68542,11.5307,10.22957,15.63405-5.7053,2.9176-11.01607,5.08715-15.27337,6.30177.78172-1.42632,1.95306-3.02579,3.17288-4.7215,1.64487-.27417,3.1433-.92604,4.08139-2.13825.43775-.57244.61094-.7793.81054-1.48644.30341-.75048.49579-1.85445.47176-2.67225-.10133-2.3451-1.8163-4.19234-3.96175-4.93314.26697-1.11123.30783-2.27536-.1419-3.39864-3.12924-7.82665-8.22596-12.45438-13.86352-13.98895-.69545-.1491-1.37613-.27175-2.05681-.33913.37037-.52195.79129-1.01261.97169-1.65721.34155-1.2122-.00478-2.36914-.41608-3.46838ZM606.04702,1013.40975c.04813-.06011.06496-.1034.11308-.17078l.07216.12991c-.07458.04328-.11066.00478-.18524.04086ZM606.55693,1003.90663c.03372-.077.05775-.15153.08663-.23089.01683.00957.04086.01683.05533.02645l-.14196.20444ZM506.98932,991.03376c1.34212-.98858,2.03969-2.64579,2.15029-4.28375.0385-.54599-.00963-1.11365-.13676-1.65964,14.48409-4.96922,35.84269-10.09481,41.97847-10.24876.05533-.00242.08657-.06254.1419-.06496,1.54177-.05533,2.78049-.63256,3.80509-1.7462.02645-.02888.0698-.01683.09383-.04328.72875.04086,1.51289.05291,2.36914.06254-.06254.30547-.1106.63982-.1106.96448-.06496,2.29703,1.26517,4.40883,3.36492,5.34449,9.85187,4.43286,15.2589,6.87658,18.72728,8.05754-7.38412,3.28077-14.50364,9.50554-20.36495,14.62392-21.94575,19.34543-42.51306,29.48836-55.62167,34.52012,5.04622-4.86098,10.06357-8.62042,12.66395-10.4604,1.70776-1.21226,2.63103-3.26878,2.36164-5.36132-1.14004-9.14474-8.96433-18.40498-17.01951-25.69284,2.02522-1.35416,3.39621-2.35957,5.597-4.01194Z"/>
  <path class="cls-12" d="M926.47144,1281.00852c4.14634-12.84506,6.89435-23.47075,29.07731-29.40469,1.50356-.31994,3.33155.26219,5.40697,1.70292,6.93899,4.72658,14.16167,16.7128,19.53557,27.70177h21.22396c-6.02819-10.7674-12.13976-21.81188-14.88387-33.73657,5.40213,6.7492,11.53554,17.6666,16.81272,27.09271,1.24055,2.2123,2.48653,4.43298,3.74054,6.64386h180.25488c-26.94508-122.12956-97.36157-238.96103-201.7963-329.28854-2.13624-1.80396-5.27269-1.84966-7.42298-.04328-.61815.54357-1.11571,1.16892-1.4503,1.86165-1.51301-1.04869-3.47328-1.3205-5.22911-.67826l-4.25736,1.63076c-1.4503.54357-2.61692,1.65237-3.22774,3.0787-.60846,1.42869-.62299,3.04504-.00968,4.49061,9.26266,21.89496,10.5038,24.81493,16.78662,29.00969.05504.29343.09614.5604.15838.83221-1.50333-.00484-2.98008.55319-4.10572,1.67404-1.84937,1.89053-2.18407,4.80807-.77452,7.05698,5.46236,8.7599,9.84502,14.1116,14.28237,18.27506-.30553.26219-.57965.57971-.81786.93082-1.47888,2.1311-1.32771,4.97648.36565,6.95842.45469.52189.94045,1.09676,1.47687,1.66442-.01205.04328-.00213.09141-.01925.15631.01441,1.76546-.61579,3.67287-1.32771,5.88328-.27896.91636-.59406,1.87128-.87797,2.88146-1.66678-1.48886-3.52571-2.70591-5.33717-3.51408-2.4413-1.12563-5.17372-.3872-6.75629,1.62598-.16841.18282-.2936.37999-.41856.57723-7.79547-5.15441-17.40441-7.89639-21.89018-8.82964-2.13588-2.54475-5.27233-5.07026-8.54342-6.28973-.8227-1.5273-2.33796-2.64815-4.01678-2.93437-1.89543-.34639-3.86278.30547-5.17844,1.69808l-1.86897-.52432c-.02161-.00726-.04334-.01205-.06484-.01925-2.23214-.62535-4.65147.15395-6.08063,2.0228-5.29383,6.90067-6.92943,9.01246-7.75685,12.53375-.61094.19965-1.2435.39204-1.95306.60852-2.26095.70956-3.87234,2.7372-4.00474,5.10876-.08893,1.38782-.24979,3.28797-.40887,4.68058-.21164,2.07093.6831,4.08174,2.38602,5.27954,1.30881.94529,2.95363,2.10217,4.49782,3.20619-.61342,5.48155-2.8719,12.05029-5.05101,18.41218-4.55805,13.26734-9.28427,26.97485-2.92965,38.09431,3.73062,6.51341,10.65285,10.65527,20.90154,13.3467-.35112,4.88023.81066,10.65042,6.01567,29.16122-4.84669,5.217-15.09066,14.8981-36.32408,25.84921-1.42632.71192-2.50141,2.14787-2.92965,3.67281q-1.33491,4.83695-10.61671,8.27887c-2.83824,1.03186-4.37038,4.10093-3.49005,6.98724,1.73174,5.72213,4.8298,10.69129,7.85795,15.50172,4.15142,6.58563,10.85008,19.16992,10.41947,25.9046-7.28787,3.38659-20.50472-4.87551-25.40178-4.63977-6.19589.30069-21.07445-6.21266-25.50282,6.19589-.71883,2.02286-.09141,14.19344-.6374,16.79595-1.38339,6.59673-4.45914,16.5288-6.33112,24.83471h78.4931ZM985.38616,1058.26284c-.02681.59406.01653,1.18575.17042,1.78465-.43497-.42328-.91612-.85866-1.42113-1.37099.44218-.08415.85105-.22369,1.25071-.41365ZM976.04378,1109.05925c-.87986.90915-1.44557,2.09496-1.57301,3.37933-.44017,4.04566.27671,9.99141,2.79253,14.1501.9212,1.50811,2.57605,2.46055,4.17551,2.70106,1.22933.15879,2.48216-.09135,3.53327-.69988.15401.27417.28628.54357.42576.79129l-3.31207,5.69561c-5.6114,9.68116-10.46282,18.04901-13.4814,18.56855-.63504.12265-1.47687-.01925-2.62412-.55083.17314-.20444.33919-.45936.47383-.69993,8.38469-15.02075,3.84117-30.19302-.16558-43.57102-.69751-2.30424-1.36893-4.53147-1.97751-6.74194,3.61512,3.63195,7.74729,5.74138,11.73277,6.97767Z"/>
  <g>
    <path class="cls-8" d="M392.85004,831.58232c.67896-7.81812,1.77063-15.61548,3.55029-23.27594l.40027.09692c-1.90741,7.60388-3.13513,15.37408-3.95056,23.17902Z"/>
    <path class="cls-8" d="M416.91827,768.64885c5.44339-5.27521,11.94647-9.44067,18.96185-12.31665,7.01855-2.89612,14.49258-4.54785,22.01068-5.37207l.16333,1.63062c-7.40442.7146-14.75754,2.24115-21.66916,4.98828-6.90869,2.72839-13.32562,6.71954-18.73953,11.82947l-.72717-.75964Z"/>
    <path class="cls-8" d="M502.95242,753.93724c14.79623,2.95593,29.27689,7.2475,43.49155,12.20209l-.83057,2.34576c-14.09436-5.03912-28.44495-9.41479-43.08398-12.46057l.423-2.08728Z"/>
    <path class="cls-8" d="M588.36871,782.8748c13.75586,6.09619,27.31592,12.61768,40.72614,19.42413l-1.46289,2.85278c-13.31372-6.89142-26.77484-13.49762-40.42664-19.67822l1.16339-2.59869Z"/>
    <path class="cls-8" d="M668.86395,823.58165c13.11798,7.34399,26.11578,14.89709,39.01624,22.60925l-1.81677,3.02948c-12.85468-7.7309-25.80444-15.3017-38.87079-22.66211l1.67133-2.97662Z"/>
    <path class="cls-8" d="M746.30396,869.778c12.72089,8.00073,25.36072,16.12817,37.93195,24.3587l-2.06915,3.15118c-12.5321-8.25214-25.13159-16.40063-37.81067-24.42175l1.94788-3.08813Z"/>
    <path class="cls-8" d="M821.75677,919.13884c12.44507,8.51709,24.44147,17.69122,35.93011,27.46039l-2.50787,2.96356c-11.43695-9.62994-23.33508-18.7088-35.62787-27.21936l2.20563-3.20459Z"/>
    <path class="cls-8" d="M890.66168,977.53984c10.47119,10.8479,20.40686,22.20868,29.78058,34.01172l-2.81281,2.24097c-9.34027-11.68451-19.23376-22.92456-29.65399-33.65137l2.68622-2.60132Z"/>
    <path class="cls-8" d="M946.86914,1048.21397c8.22986,12.62024,15.93939,25.58167,22.99872,38.88733l-2.86493,1.53979c-7.1593-13.14618-14.78601-26.03815-23.02185-38.53357l2.88806-1.89355Z"/>
    <path class="cls-8" d="M989.39142,1127.82243c5.95258,13.82654,11.35773,27.88336,16.23132,42.11786l-2.2558.78424c-4.99011-14.13098-10.50574-28.07355-16.56055-41.77423l2.58502-1.12787Z"/>
    <path class="cls-8" d="M1018.64484,1213.13694c3.76892,14.55969,7.01825,29.24951,9.72906,44.03455l-1.21252.23193c-2.93665-14.71106-6.40771-29.31104-10.39233-43.76477l1.87579-.50171Z"/>
  </g>
  <g>
    <path class="cls-3" d="M748.70906,868.44461l-2.66647,5.99068-5.00933,3.75599c-2.52472-1.15361-4.81948-2.1814-4.94435-2.16388-.28314.03969-10.0881,1.03537-10.0881,1.03537l12.7739,8.00024,10.56911,1.95175c18.69142,13.80567,87.41613,68.03171,91.91547,70.76631.36026.21899,21.8118,3.23897,24.70213-.23134,2.97093-3.56709-7.11993-23.6795-7.45267-23.93861-4.15341-3.23275-80.03134-48.63256-99.51266-61.15269l-4.39761-8.30121-12.01701-9.09774s2.55315,9.519,2.61667,9.79753c.02666.11735,1.64725,1.74533,3.51093,3.58761Z"/>
    <polygon class="cls-9" points="725.64274 863.64644 729.35695 858.36209 754.45697 875.68305 750.74276 880.9674 725.64274 863.64644"/>
  </g>
  <ellipse class="cls-4" cx="1175.34715" cy="721.99848" rx="43.04183" ry="79.20507" transform="translate(-199.20592 837.43927) rotate(-36.36247)"/>
  <g>
    <path class="cls-13" d="M1302.79965,547.15924c3.41372-12.825,71.30061-227.15165,71.30061-227.15165l152.15944,43.37906-59.18153,251.09373-164.27852-67.32114Z"/>
    <polygon class="cls-13" points="1625.09466 711.57261 1680.29187 458.27155 1858.41172 452.4558 1778.19109 719.21498 1625.09466 711.57261"/>
    <polyline class="cls-13" points="1474.92251 617.69497 1535.07758 365.90053 1669.38774 463.27174 1617.10984 710.77526 1474.92251 617.69497"/>
  </g>
  <g>
    <path class="cls-1" d="M1074.30714,505.77319c14.4405-15.79298,252.09991-199.91501,252.09991-199.91501,0,0,6.38785,85.34212,84.67277,98.92735,0,0-227.87116,232.00082-234.70004,233.41022-105.07627,21.68645-136.15442-95.14871-102.07263-132.42256Z"/>
    <g>
      <path class="cls-1" d="M1452.7604,287.74229c11.20646,8.64598,31.88934,19.07071,45.32907,23.11257,4.1934-49.42217-62.07952-79.06323-79.03433-71.58603,6.15446,18.15446,18.50722,36.74788,33.70526,48.47347Z"/>
      <path class="cls-1" d="M1480.10182,304.50882c-20.39395-9.03977-37.87131-23.25307-49.95032-42.09321-4.66959-7.28332-8.31981-15.06455-11.09635-23.14679l-92.33492,63.86935c.71792,87.43193,85.2917,99.65031,85.2917,99.65031l86.01558-91.00495c.03166-.31986.0331-.61148.06196-.92867-6.12946-1.70201-12.15733-3.76178-17.98765-6.34604Z"/>
    </g>
  </g>
  <path class="cls-13" d="M744.06313,252.97398c3.41372-12.825,107.53402-213.08931,107.53402-213.08931l111.53848,129.59138-58.96119,251.15895-160.11131-167.66103Z"/>
  <polygon class="cls-13" points="1073.57885 440.78929 1127.48546 185.57483 1280.80652 255.60951 1240.3039 485.16767 1073.57885 440.78929"/>
  <polyline class="cls-13" points="912.88574 424.45418 973.04081 172.65973 1116.71471 184.36866 1062.16939 442.39661 912.88574 424.45418"/>
  <g>
    <rect class="cls-7" x="1058.03767" y="624.11204" width="1.65341" height="19.88382" rx=".82671" ry=".82671" transform="translate(1178.12297 1862.46575) rotate(-126.45851)"/>
    <rect class="cls-7" x="1046.57897" y="608.53332" width="1.55068" height="19.88382" rx=".77534" ry=".77534" transform="translate(1172.29294 1828.37316) rotate(-126.45804)"/>
    <rect class="cls-7" x="1055.75623" y="610.53474" width="1.52537" height="27.6388" rx=".76269" ry=".76269" transform="translate(1182.17941 1845.11609) rotate(-126.45824)"/>
  </g>
  <g>
    <path class="cls-9" d="M979.36027,706.28641s8.38626.6333,9.51303.52399c1.12677-.10932,3.96135-.52568,5.51098-1.80685,1.54963-1.28117,12.44862-10.68092,12.44862-10.68092l-9.52798-1.29074s-15.78358,12.48956-17.94465,13.25453Z"/>
    <polygon class="cls-9" points="1001.32702 692.01358 1015.05079 685.62711 986.61721 652.71714 978.23485 665.00845 1001.32702 692.01358"/>
    <path class="cls-9" d="M945.12642,716.62299s-10.69599-12.41778,0,0c10.69599,12.41778,25.90943,2.42975,25.90943,2.42975,10.19274-9.09548,20.38549-18.19096,30.57823-27.28644l-12.70592-14.89195"/>
    <path class="cls-9" d="M945.07993,716.63309s10.57903,12.51757,0,0c-10.57903-12.51757,1.67954-25.96885,1.67954-25.96885,10.58673-8.63371,21.17345-17.26743,31.76018-25.90114l12.70592,14.89195"/>
    <path class="cls-9" d="M960.7628,684.48927s.69486-8.38138.98021-9.47689,1.14277-3.82919,2.65192-5.1578c1.50916-1.32861,12.50755-10.61185,12.50755-10.61185l-.22537,9.61237s-14.81866,13.62049-15.91431,15.63418Z"/>
  </g>
  <g>
    <path class="cls-11" d="M998.02309,658.86291s8.16995-11.27562,12.86599-11.41034c4.69258-.13172,8.49491-2.49367,12.49391-2.79766,3.99903-.30383,6.99666,6.29919,6.99666,6.29919,0,0-7.2633,8.32386-9.4661,11.96939-2.20574,3.64192-15.53195,9.33672-15.53195,9.33672l-8.14162-9.98737s3.99411-6.9496.78311-3.40993"/>
    <path class="cls-5" d="M1025.02588,648.83077c-3.89598,3.53864-8.07309,5.84943-12.68618,6.71338,1.6361-1.07199,3.03413-2.34852,4.13454-3.88794.34049-.47977.62461-.98493.93037-1.47813-.02102-.01844-.04274-.0305-.0674-.04616-.07892.03456-.16062.06559-.23731.11014-2.6314,1.51469-5.31224,2.58197-8.03787,3.25139-1.4921.36577-2.98242.84317-4.45864,1.6006-2.20452,1.11897-4.00569,2.71814-5.52682,4.62431-.64629.81238-1.23684,1.65663-1.85563,2.48815-.00293-.0036-.01391-.02442-.01421-.05395.01842-2.46546.20783-4.96921.94336-7.59105.59179-2.11224,1.53261-4.17574,3.11582-6.1445,1.33185-1.65675,2.95456-3.01515,4.73626-4.22961,2.47505-1.68456,5.07967-2.74324,7.71397-3.70705,1.88876-.68913,3.78932-1.33451,5.64483-2.27606.98112-.49649,1.93457-1.1071,2.89925-1.66752.08019-.04758.15754-.09866.29005-.17691-1.33922,2.43583-3.35737,4.3963-5.58888,6.3285.15468-.0072.22893.00361.30581-.01151,4.10754-.72537,8.23785-1.70727,12.40287-3.38361,2.08745-.83929,4.12734-1.85383,6.08688-3.14193,1.27528-.84338,2.46034-1.79745,3.56672-2.84803.03992-.03853.0763-.07418.17702-.16227.04201.42372.09588.79619.10882,1.18425.07797,2.61287-.61843,5.33369-1.82973,8.12339-1.49344,3.4359-3.67765,6.67383-6.26844,9.78506-.12322.148-.23635.29378-.41287.515.33514-.04123.6021-.05665.8701-.11466,1.1153-.23704,2.16951-.77514,3.17143-1.50876,1.51562-1.11046,2.17331-1.77748,3.57437-3.50263-.04905.2244-.09095.44298-.14647.66667-.72862,2.74709-1.91032,5.4709-3.3923,8.18394-1.35681,2.47994-2.97574,4.86444-4.97984,7.10479-2.63684,2.95255-5.67082,5.33053-9.23818,6.93008-2.86384,1.28778-5.66776,1.89034-8.42687,2.05176-2.54523.1537-4.92049-.07493-7.20202-.51701-.04178-.0075-.07936-.02443-.16525-.04952,5.23042-2.00376,9.61466-5.28624,13.29588-9.61347,3.67698-4.31796,5.95409-8.8209,6.56657-13.54911"/>
  </g>
  <g>
    <rect class="cls-7" x="1014.35758" y="756.40345" width="1.65341" height="19.88382" rx=".82671" ry=".82671" transform="translate(1040.56413 2038.05295) rotate(-128.19185)"/>
    <rect class="cls-7" x="1002.43287" y="741.18005" width="1.55068" height="19.88382" rx=".77533" ry=".77533" transform="translate(1033.13593 2004.00473) rotate(-128.1913)"/>
    <rect class="cls-7" x="1011.78377" y="742.90154" width="1.52537" height="27.6388" rx=".76269" ry=".76269" transform="translate(1043.85124 2020.40482) rotate(-128.19147)"/>
  </g>
  <g>
    <path class="cls-9" d="M935.69649,843.13159s8.38626.6333,9.51303.52399,3.96135-.52568,5.51098-1.80685c1.54963-1.28117,12.44862-10.68092,12.44862-10.68092l-9.52798-1.29074s-15.78358,12.48956-17.94465,13.25453Z"/>
    <polygon class="cls-9" points="957.66324 828.85876 971.38701 822.47229 942.95343 789.56232 934.57107 801.85363 957.66324 828.85876"/>
    <path class="cls-9" d="M901.46264,853.46817s-10.69599-12.41778,0,0c10.69599,12.41778,25.90943,2.42975,25.90943,2.42975,10.19274-9.09548,20.38549-18.19096,30.57823-27.28644l-12.70592-14.89195"/>
    <path class="cls-9" d="M901.41615,853.47827s10.57903,12.51757,0,0c-10.57903-12.51757,1.67954-25.96885,1.67954-25.96885,10.58673-8.63371,21.17345-17.26743,31.76018-25.90114l12.70592,14.89195"/>
    <path class="cls-9" d="M917.09902,821.33445s.69486-8.38138.98021-9.47689c.28534-1.09551,1.14277-3.82919,2.65192-5.1578s12.50755-10.61185,12.50755-10.61185l-.22537,9.61237s-14.81866,13.62049-15.91431,15.63418Z"/>
  </g>
  <g>
    <path class="cls-11" d="M954.67868,793.93572s7.93068-11.44518,12.62284-11.67877c4.68877-.23052,8.44051-2.67202,12.43222-3.06016,3.99174-.38798,7.12777,6.15045,7.12777,6.15045,0,0-7.08638,8.47498-9.21193,12.16609-2.12855,3.68757-15.33187,9.66175-15.33187,9.66175l-8.35015-9.81369s3.84687-7.03218.71112-3.42566"/>
    <path class="cls-5" d="M981.46421,783.33713c-3.82059,3.6199-7.94811,6.01815-12.54198,6.97906,1.61316-1.10621,2.984-2.41189,4.05174-3.97415.33031-.48683.60373-.99786.89904-1.4974-.02141-.01799-.04338-.02959-.06836-.04473-.07817.03622-.15921.06896-.23493.11511-2.59891,1.56978-5.25668,2.69327-7.96762,3.41994-1.48407.39711-2.964.9058-4.42395,1.69414-2.18046,1.16515-3.94756,2.80189-5.42821,4.73968-.62904.82581-1.20167,1.68231-1.80282,2.52668-.00301-.00354-.01442-.02412-.01534-.05363-.03351-2.4653.10314-4.97248.78328-7.60923.54718-2.12423,1.44433-4.2071,2.98572-6.20875,1.29666-1.68443,2.8904-3.0767,4.64613-4.32842,2.43902-1.73631,5.02077-2.84961,7.63419-3.86869,1.87383-.72875,3.76037-1.41401,5.59565-2.39444.97045-.51705,1.91082-1.1476,2.86349-1.72821.07917-.04926.15543-.10195.28626-.18298-1.28762,2.4635-3.26404,4.46603-5.45437,6.4448.15449-.01046.22895-.00121.3055-.01795,4.09136-.81172,8.20007-1.88038,12.32886-3.64407,2.06931-.88307,4.08738-1.94034,6.01936-3.26942,1.25724-.87005,2.42194-1.84887,3.50595-2.92251.0391-.03937.07472-.07577.17356-.16596.05092.42274.11263.79399.13374,1.18169.13298,2.61065-.50597,5.34553-1.65825,8.16012-1.42074,3.46659-3.53628,6.7498-6.06098,9.91491-.12007.15056-.23012.29869-.40194.52358.3342-.04828.60077-.06931.86749-.13296,1.11006-.26047,2.15271-.82066,3.13895-1.57522,1.4919-1.14213,2.1354-1.82285,3.49982-3.57713-.04431.22538-.0816.4448-.1324.66961-.67061,2.76183-1.79468,5.50992-3.2192,8.25357-1.30428,2.50796-2.87264,4.92603-4.82911,7.20809-2.57408,3.00743-5.55731,5.44878-9.09019,7.1231-2.83608,1.34781-5.62669,2.00928-8.38179,2.22878-2.54143.20727-4.92097.02872-7.21131-.36522-.04193-.00662-.07986-.02275-.16626-.04603,5.18706-2.11347,9.5012-5.48755,13.09048-9.89135,3.58523-4.39444,5.767-8.94433,6.27977-13.6844"/>
  </g>
  <path class="cls-2" d="M1175.34715,721.99848s67.99544-62.3833,64.50567-70.15277c-3.48977-7.76947-54.73686-136.00972-54.73686-136.00972"/>
  <path class="cls-4" d="M1186.97231,696.65744l-68.50189,61.22444c-3.76985,3.36935.85791,9.19241,4.99146,6.2807l80.84035-56.94476-17.32992-10.56037Z"/>
</svg>