<?xml version="1.0" encoding="UTF-8"?>
<!-- Generator: Adobe Illustrator 24.2.1, SVG Export Plug-In . SVG Version: 6.00 Build 0)  -->
<svg version="1.1" id="Ebene_1" xmlns="http://www.w3.org/2000/svg" xmlns:xlink="http://www.w3.org/1999/xlink" x="0px" y="0px" viewBox="0 0 425 199.8" style="enable-background:new 0 0 425 199.8;" xml:space="preserve">
<style type="text/css">
	.st0{fill:#0C425B;}
	.st1{fill:#436C7E;}
	.st2{fill:#7995A4;}
	.st3{fill:#AEBFC8;}
	.st4{fill:#CED9DE;}
	.st5{fill:#FFFFFF;}
	.st6{fill:none;stroke:#AEBFC8;stroke-width:1.3696;stroke-miterlimit:10;}
</style>
<rect x="50.6" y="158.8" class="st0" width="326.8" height="12.8"/>
<rect x="50.6" y="135.5" class="st1" width="291.6" height="12.8"/>
<rect x="50.6" y="112.2" class="st2" width="174.3" height="12.8"/>
<rect x="50.6" y="89" class="st3" width="152.5" height="12.8"/>
<rect x="50.6" y="65.7" class="st4" width="140.8" height="12.8"/>
<g>
	<g>
		<path class="st5" d="M122.8,171.1h-6.9v-1.5l3.2-3.4c0.8-0.9,1.2-1.6,1.2-2.1c0-0.4-0.1-0.8-0.3-1s-0.5-0.3-0.8-0.3    c-0.4,0-0.6,0.1-0.9,0.4s-0.3,0.7-0.3,1.1h-2.3c0-0.6,0.2-1.2,0.5-1.7s0.7-0.9,1.3-1.2s1.1-0.4,1.8-0.4c1.1,0,1.9,0.2,2.5,0.7    c0.6,0.5,0.9,1.2,0.9,2.1c0,0.4-0.1,0.8-0.2,1.1s-0.4,0.8-0.7,1.2c-0.3,0.4-0.8,1-1.5,1.6l-1.3,1.5h3.9V171.1z"/>
		<path class="st5" d="M130.7,163.9c0,0.5-0.1,0.9-0.4,1.3c-0.2,0.4-0.6,0.7-1,0.9c0.5,0.2,0.8,0.6,1.1,1s0.4,0.9,0.4,1.4    c0,0.9-0.3,1.6-0.9,2.1c-0.6,0.5-1.5,0.8-2.5,0.8c-1.1,0-1.9-0.3-2.6-0.8s-0.9-1.2-0.9-2.1c0-0.5,0.1-1,0.4-1.4s0.7-0.7,1.2-1    c-0.4-0.2-0.8-0.5-1-0.9s-0.4-0.8-0.4-1.3c0-0.9,0.3-1.5,0.9-2.1s1.4-0.8,2.4-0.8c1,0,1.8,0.3,2.4,0.8S130.7,163,130.7,163.9z     M128.5,168.2c0-0.4-0.1-0.7-0.3-0.9c-0.2-0.2-0.5-0.3-0.8-0.3s-0.6,0.1-0.8,0.3s-0.3,0.5-0.3,0.9c0,0.4,0.1,0.7,0.3,0.9    c0.2,0.2,0.5,0.3,0.9,0.3c0.3,0,0.6-0.1,0.8-0.3S128.5,168.6,128.5,168.2z M127.4,162.8c-0.3,0-0.5,0.1-0.7,0.3    c-0.2,0.2-0.2,0.5-0.2,0.8c0,0.4,0.1,0.6,0.2,0.9s0.4,0.3,0.7,0.3c0.3,0,0.5-0.1,0.7-0.3c0.2-0.2,0.2-0.5,0.2-0.9    s-0.1-0.6-0.2-0.8C127.9,162.9,127.7,162.8,127.4,162.8z"/>
	</g>
</g>
<g>
	<g>
		<path class="st5" d="M122.8,147.6h-6.9v-1.5l3.2-3.4c0.8-0.9,1.2-1.6,1.2-2.1c0-0.4-0.1-0.8-0.3-1s-0.5-0.3-0.8-0.3    c-0.4,0-0.6,0.1-0.9,0.4s-0.3,0.7-0.3,1.1h-2.3c0-0.6,0.2-1.2,0.5-1.7s0.7-0.9,1.3-1.2s1.1-0.4,1.8-0.4c1.1,0,1.9,0.2,2.5,0.7    c0.6,0.5,0.9,1.2,0.9,2.1c0,0.4-0.1,0.8-0.2,1.1s-0.4,0.8-0.7,1.2c-0.3,0.4-0.8,1-1.5,1.6l-1.3,1.5h3.9V147.6z"/>
		<path class="st5" d="M124.1,142.8l0.6-5.1h5.8v1.8h-3.9l-0.2,2c0.2-0.1,0.4-0.2,0.6-0.3c0.3-0.1,0.5-0.1,0.8-0.1    c1,0,1.7,0.3,2.3,0.9c0.5,0.6,0.8,1.4,0.8,2.5c0,0.6-0.1,1.2-0.4,1.7c-0.3,0.5-0.7,0.9-1.2,1.2s-1.1,0.4-1.8,0.4    c-0.6,0-1.2-0.1-1.8-0.4c-0.5-0.3-1-0.6-1.3-1.1c-0.3-0.4-0.5-1-0.5-1.5h2.3c0,0.4,0.1,0.7,0.3,0.9c0.2,0.2,0.5,0.3,0.8,0.3    c0.8,0,1.2-0.6,1.2-1.7c0-1.1-0.5-1.6-1.4-1.6c-0.5,0-0.9,0.2-1.2,0.5L124.1,142.8z"/>
	</g>
</g>
<g>
	<g>
		<path class="st5" d="M121,124.1h-2.3v-7.4l-2.3,0.7v-1.8l4.4-1.5h0.2V124.1z"/>
		<path class="st5" d="M124.1,119.3l0.6-5.1h5.8v1.8h-3.9l-0.2,2c0.2-0.1,0.4-0.2,0.6-0.3c0.3-0.1,0.5-0.1,0.8-0.1    c1,0,1.7,0.3,2.3,0.9c0.5,0.6,0.8,1.4,0.8,2.5c0,0.6-0.1,1.2-0.4,1.7c-0.3,0.5-0.7,0.9-1.2,1.2s-1.1,0.4-1.8,0.4    c-0.6,0-1.2-0.1-1.8-0.4c-0.5-0.3-1-0.6-1.3-1.1c-0.3-0.4-0.5-1-0.5-1.5h2.3c0,0.4,0.1,0.7,0.3,0.9c0.2,0.2,0.5,0.3,0.8,0.3    c0.8,0,1.2-0.6,1.2-1.7c0-1.1-0.5-1.6-1.4-1.6c-0.5,0-0.9,0.2-1.2,0.5L124.1,119.3z"/>
	</g>
</g>
<g>
	<g>
		<path class="st5" d="M121,100.6h-2.3v-7.4l-2.3,0.7v-1.8l4.4-1.5h0.2V100.6z"/>
		<path class="st5" d="M126,94.7h1.1c0.9,0,1.3-0.4,1.3-1.3c0-0.3-0.1-0.6-0.3-0.8s-0.5-0.3-0.9-0.3c-0.3,0-0.6,0.1-0.8,0.3    s-0.3,0.4-0.3,0.7h-2.3c0-0.5,0.1-1,0.4-1.4s0.7-0.7,1.2-1s1.1-0.3,1.7-0.3c1.1,0,2,0.3,2.6,0.8s1,1.2,1,2.1    c0,0.4-0.1,0.8-0.4,1.2s-0.6,0.7-1.1,0.9c0.5,0.2,0.9,0.5,1.2,0.9s0.5,0.9,0.5,1.4c0,0.9-0.3,1.6-1,2.1s-1.6,0.8-2.7,0.8    c-0.7,0-1.3-0.1-1.8-0.4s-1-0.6-1.3-1s-0.4-0.9-0.4-1.5h2.3c0,0.3,0.1,0.6,0.4,0.8s0.5,0.3,0.9,0.3c0.4,0,0.7-0.1,1-0.3    s0.4-0.5,0.4-0.9c0-0.5-0.1-0.9-0.4-1.1s-0.6-0.3-1-0.3H126V94.7z"/>
	</g>
</g>
<g>
	<g>
		<path class="st5" d="M121,77.1h-2.3v-7.4l-2.3,0.7v-1.8l4.4-1.5h0.2V77.1z"/>
		<path class="st5" d="M130.9,77.1h-6.9v-1.5l3.2-3.4c0.8-0.9,1.2-1.6,1.2-2.1c0-0.4-0.1-0.8-0.3-1s-0.5-0.3-0.8-0.3    c-0.4,0-0.6,0.1-0.9,0.4s-0.3,0.7-0.3,1.1h-2.3c0-0.6,0.2-1.2,0.5-1.7s0.7-0.9,1.3-1.2s1.1-0.4,1.8-0.4c1.1,0,1.9,0.2,2.5,0.7    s0.9,1.2,0.9,2.1c0,0.4-0.1,0.8-0.2,1.1s-0.4,0.8-0.7,1.2s-0.8,1-1.5,1.6l-1.3,1.5h3.9V77.1z"/>
	</g>
</g>
<g>
	<g>
		<path class="st0" d="M54.2,190c0,1.7-0.3,3-0.9,3.8c-0.6,0.8-1.5,1.2-2.7,1.2c-1.2,0-2.1-0.4-2.7-1.2c-0.6-0.8-0.9-2-0.9-3.6v-1.9    c0-1.7,0.3-2.9,0.9-3.7s1.5-1.2,2.7-1.2c1.2,0,2.1,0.4,2.7,1.2c0.6,0.8,0.9,2,0.9,3.6V190z M52.8,188c0-1.2-0.2-2.1-0.5-2.7    c-0.3-0.6-0.9-0.8-1.6-0.8c-0.7,0-1.3,0.3-1.6,0.8c-0.3,0.6-0.5,1.4-0.5,2.6v2.3c0,1.2,0.2,2.1,0.5,2.7c0.4,0.6,0.9,0.9,1.6,0.9    c0.7,0,1.2-0.3,1.6-0.8c0.3-0.6,0.5-1.4,0.5-2.6V188z"/>
		<path class="st0" d="M59.1,185.7c0-0.7,0.2-1.2,0.7-1.7c0.4-0.4,1-0.7,1.7-0.7c0.7,0,1.3,0.2,1.7,0.7s0.6,1,0.6,1.7v0.6    c0,0.7-0.2,1.2-0.7,1.7c-0.4,0.4-1,0.7-1.7,0.7c-0.7,0-1.2-0.2-1.7-0.7c-0.4-0.4-0.7-1-0.7-1.7V185.7z M60.2,186.3    c0,0.4,0.1,0.7,0.3,1c0.2,0.3,0.5,0.4,0.9,0.4c0.4,0,0.7-0.1,0.9-0.4s0.3-0.6,0.3-1v-0.6c0-0.4-0.1-0.7-0.3-1    c-0.2-0.3-0.5-0.4-0.9-0.4c-0.4,0-0.7,0.1-0.9,0.4c-0.2,0.3-0.3,0.6-0.3,1V186.3z M61.8,194l-0.8-0.5l5.6-8.9l0.8,0.5L61.8,194z     M64.7,192.1c0-0.7,0.2-1.2,0.7-1.7c0.4-0.4,1-0.7,1.7-0.7c0.7,0,1.2,0.2,1.7,0.7s0.7,1,0.7,1.7v0.6c0,0.7-0.2,1.2-0.7,1.7    c-0.4,0.4-1,0.7-1.7,0.7c-0.7,0-1.2-0.2-1.7-0.7c-0.4-0.4-0.7-1-0.7-1.7V192.1z M65.7,192.7c0,0.4,0.1,0.8,0.3,1    c0.2,0.3,0.5,0.4,0.9,0.4c0.4,0,0.7-0.1,0.9-0.4c0.2-0.3,0.3-0.6,0.3-1.1v-0.6c0-0.4-0.1-0.7-0.3-1s-0.5-0.4-0.9-0.4    c-0.4,0-0.7,0.1-0.9,0.4c-0.2,0.3-0.3,0.6-0.3,1V192.7z"/>
	</g>
</g>
<g>
	<g>
		<path class="st0" d="M164.3,194.9h-1.5v-9.6l-2.9,1.1V185l4.1-1.6h0.2V194.9z"/>
		<path class="st0" d="M175.6,190c0,1.7-0.3,3-0.9,3.8c-0.6,0.8-1.5,1.2-2.7,1.2c-1.2,0-2.1-0.4-2.7-1.2c-0.6-0.8-0.9-2-0.9-3.6    v-1.9c0-1.7,0.3-2.9,0.9-3.7s1.5-1.2,2.7-1.2c1.2,0,2.1,0.4,2.7,1.2c0.6,0.8,0.9,2,0.9,3.6V190z M174.1,188c0-1.2-0.2-2.1-0.5-2.7    c-0.3-0.6-0.9-0.8-1.6-0.8c-0.7,0-1.3,0.3-1.6,0.8c-0.3,0.6-0.5,1.4-0.5,2.6v2.3c0,1.2,0.2,2.1,0.5,2.7c0.4,0.6,0.9,0.9,1.6,0.9    c0.7,0,1.2-0.3,1.6-0.8c0.3-0.6,0.5-1.4,0.5-2.6V188z"/>
		<path class="st0" d="M180.4,185.7c0-0.7,0.2-1.2,0.7-1.7c0.4-0.4,1-0.7,1.7-0.7c0.7,0,1.3,0.2,1.7,0.7s0.6,1,0.6,1.7v0.6    c0,0.7-0.2,1.2-0.7,1.7c-0.4,0.4-1,0.7-1.7,0.7c-0.7,0-1.2-0.2-1.7-0.7c-0.4-0.4-0.7-1-0.7-1.7V185.7z M181.5,186.3    c0,0.4,0.1,0.7,0.3,1c0.2,0.3,0.5,0.4,0.9,0.4c0.4,0,0.7-0.1,0.9-0.4s0.3-0.6,0.3-1v-0.6c0-0.4-0.1-0.7-0.3-1    c-0.2-0.3-0.5-0.4-0.9-0.4c-0.4,0-0.7,0.1-0.9,0.4c-0.2,0.3-0.3,0.6-0.3,1V186.3z M183.1,194l-0.8-0.5l5.6-8.9l0.8,0.5L183.1,194z     M186,192.1c0-0.7,0.2-1.2,0.7-1.7c0.4-0.4,1-0.7,1.7-0.7c0.7,0,1.2,0.2,1.7,0.7s0.7,1,0.7,1.7v0.6c0,0.7-0.2,1.2-0.7,1.7    c-0.4,0.4-1,0.7-1.7,0.7c-0.7,0-1.2-0.2-1.7-0.7c-0.4-0.4-0.7-1-0.7-1.7V192.1z M187,192.7c0,0.4,0.1,0.8,0.3,1    c0.2,0.3,0.5,0.4,0.9,0.4c0.4,0,0.7-0.1,0.9-0.4c0.2-0.3,0.3-0.6,0.3-1.1v-0.6c0-0.4-0.1-0.7-0.3-1s-0.5-0.4-0.9-0.4    c-0.4,0-0.7,0.1-0.9,0.4c-0.2,0.3-0.3,0.6-0.3,1V192.7z"/>
	</g>
</g>
<g>
	<g>
		<path class="st0" d="M283.9,194.9h-7.5v-1l3.9-4.4c0.6-0.7,1-1.2,1.2-1.6s0.3-0.8,0.3-1.3c0-0.6-0.2-1.1-0.5-1.5    c-0.4-0.4-0.8-0.6-1.4-0.6c-0.7,0-1.3,0.2-1.7,0.6c-0.4,0.4-0.6,1-0.6,1.7h-1.4c0-1,0.3-1.9,1-2.5c0.7-0.6,1.6-1,2.7-1    c1.1,0,1.9,0.3,2.5,0.8s0.9,1.3,0.9,2.2c0,1.1-0.7,2.5-2.1,4l-3,3.3h5.7V194.9z"/>
		<path class="st0" d="M292.5,190c0,1.7-0.3,3-0.9,3.8c-0.6,0.8-1.5,1.2-2.7,1.2c-1.2,0-2.1-0.4-2.7-1.2s-0.9-2-0.9-3.6v-1.9    c0-1.7,0.3-2.9,0.9-3.7s1.5-1.2,2.7-1.2c1.2,0,2.1,0.4,2.7,1.2c0.6,0.8,0.9,2,0.9,3.6V190z M291,188c0-1.2-0.2-2.1-0.5-2.7    c-0.3-0.6-0.9-0.8-1.6-0.8c-0.7,0-1.3,0.3-1.6,0.8c-0.3,0.6-0.5,1.4-0.5,2.6v2.3c0,1.2,0.2,2.1,0.5,2.7s0.9,0.9,1.6,0.9    c0.7,0,1.2-0.3,1.6-0.8c0.3-0.6,0.5-1.4,0.5-2.6V188z"/>
		<path class="st0" d="M297.3,185.7c0-0.7,0.2-1.2,0.7-1.7c0.4-0.4,1-0.7,1.7-0.7c0.7,0,1.3,0.2,1.7,0.7s0.6,1,0.6,1.7v0.6    c0,0.7-0.2,1.2-0.7,1.7c-0.4,0.4-1,0.7-1.7,0.7c-0.7,0-1.2-0.2-1.7-0.7c-0.4-0.4-0.7-1-0.7-1.7V185.7z M298.4,186.3    c0,0.4,0.1,0.7,0.3,1s0.5,0.4,0.9,0.4c0.4,0,0.7-0.1,0.9-0.4s0.3-0.6,0.3-1v-0.6c0-0.4-0.1-0.7-0.3-1s-0.5-0.4-0.9-0.4    s-0.7,0.1-0.9,0.4s-0.3,0.6-0.3,1V186.3z M300,194l-0.8-0.5l5.6-8.9l0.8,0.5L300,194z M302.9,192.1c0-0.7,0.2-1.2,0.7-1.7    c0.4-0.4,1-0.7,1.7-0.7s1.2,0.2,1.7,0.7s0.7,1,0.7,1.7v0.6c0,0.7-0.2,1.2-0.7,1.7c-0.4,0.4-1,0.7-1.7,0.7s-1.2-0.2-1.7-0.7    c-0.4-0.4-0.7-1-0.7-1.7V192.1z M303.9,192.7c0,0.4,0.1,0.8,0.3,1s0.5,0.4,0.9,0.4c0.4,0,0.7-0.1,0.9-0.4c0.2-0.3,0.3-0.6,0.3-1.1    v-0.6c0-0.4-0.1-0.7-0.3-1s-0.5-0.4-0.9-0.4c-0.4,0-0.7,0.1-0.9,0.4s-0.3,0.6-0.3,1V192.7z"/>
	</g>
</g>
<g>
	<g>
		<path class="st0" d="M395.5,188.5h1.1c0.7,0,1.2-0.2,1.6-0.5c0.4-0.3,0.6-0.8,0.6-1.4c0-1.3-0.7-2-2-2c-0.6,0-1.1,0.2-1.5,0.5    c-0.4,0.4-0.6,0.8-0.6,1.4h-1.4c0-0.9,0.3-1.6,1-2.2c0.7-0.6,1.5-0.9,2.5-0.9c1.1,0,1.9,0.3,2.5,0.9c0.6,0.6,0.9,1.4,0.9,2.4    c0,0.5-0.2,1-0.5,1.4c-0.3,0.5-0.8,0.8-1.3,1c0.6,0.2,1.1,0.5,1.4,1c0.3,0.5,0.5,1,0.5,1.7c0,1-0.3,1.8-1,2.4    c-0.7,0.6-1.5,0.9-2.6,0.9s-1.9-0.3-2.6-0.9s-1-1.3-1-2.3h1.5c0,0.6,0.2,1.1,0.6,1.4s0.9,0.5,1.6,0.5c0.7,0,1.2-0.2,1.6-0.5    c0.4-0.4,0.6-0.9,0.6-1.6c0-0.7-0.2-1.2-0.6-1.5c-0.4-0.4-1-0.5-1.8-0.5h-1.1V188.5z"/>
		<path class="st0" d="M409.4,190c0,1.7-0.3,3-0.9,3.8c-0.6,0.8-1.5,1.2-2.7,1.2c-1.2,0-2.1-0.4-2.7-1.2s-0.9-2-0.9-3.6v-1.9    c0-1.7,0.3-2.9,0.9-3.7s1.5-1.2,2.7-1.2c1.2,0,2.1,0.4,2.7,1.2c0.6,0.8,0.9,2,0.9,3.6V190z M407.9,188c0-1.2-0.2-2.1-0.5-2.7    c-0.3-0.6-0.9-0.8-1.6-0.8c-0.7,0-1.3,0.3-1.6,0.8c-0.3,0.6-0.5,1.4-0.5,2.6v2.3c0,1.2,0.2,2.1,0.5,2.7s0.9,0.9,1.6,0.9    c0.7,0,1.2-0.3,1.6-0.8c0.3-0.6,0.5-1.4,0.5-2.6V188z"/>
		<path class="st0" d="M414.2,185.7c0-0.7,0.2-1.2,0.7-1.7c0.4-0.4,1-0.7,1.7-0.7c0.7,0,1.3,0.2,1.7,0.7s0.6,1,0.6,1.7v0.6    c0,0.7-0.2,1.2-0.7,1.7c-0.4,0.4-1,0.7-1.7,0.7c-0.7,0-1.2-0.2-1.7-0.7c-0.4-0.4-0.7-1-0.7-1.7V185.7z M415.3,186.3    c0,0.4,0.1,0.7,0.3,1s0.5,0.4,0.9,0.4c0.4,0,0.7-0.1,0.9-0.4s0.3-0.6,0.3-1v-0.6c0-0.4-0.1-0.7-0.3-1s-0.5-0.4-0.9-0.4    s-0.7,0.1-0.9,0.4s-0.3,0.6-0.3,1V186.3z M416.9,194l-0.8-0.5l5.6-8.9l0.8,0.5L416.9,194z M419.8,192.1c0-0.7,0.2-1.2,0.7-1.7    c0.4-0.4,1-0.7,1.7-0.7s1.2,0.2,1.7,0.7s0.7,1,0.7,1.7v0.6c0,0.7-0.2,1.2-0.7,1.7c-0.4,0.4-1,0.7-1.7,0.7s-1.2-0.2-1.7-0.7    c-0.4-0.4-0.7-1-0.7-1.7V192.1z M420.8,192.7c0,0.4,0.1,0.8,0.3,1s0.5,0.4,0.9,0.4c0.4,0,0.7-0.1,0.9-0.4c0.2-0.3,0.3-0.6,0.3-1.1    v-0.6c0-0.4-0.1-0.7-0.3-1s-0.5-0.4-0.9-0.4c-0.4,0-0.7,0.1-0.9,0.4s-0.3,0.6-0.3,1V192.7z"/>
	</g>
</g>
<g>
	<g>
		<path class="st0" d="M1.4,5.3C1.4,4.6,1.6,4,2,3.6c0.5-0.4,1.1-0.6,1.8-0.6c0.8,0,1.4,0.2,1.9,0.6s0.7,1,0.7,1.7v0.6    c0,0.7-0.2,1.3-0.7,1.7C5.3,8,4.7,8.2,3.9,8.2C3.1,8.2,2.5,8,2.1,7.6c-0.5-0.4-0.7-1-0.7-1.7V5.3z M3.1,5.9c0,0.3,0.1,0.5,0.2,0.7    c0.2,0.2,0.4,0.3,0.6,0.3c0.5,0,0.8-0.3,0.8-1V5.3c0-0.3-0.1-0.5-0.2-0.7C4.4,4.4,4.2,4.3,3.9,4.3c-0.3,0-0.5,0.1-0.6,0.3    C3.1,4.8,3.1,5,3.1,5.3V5.9z M4.4,13.6L3.2,13l5.6-8.9L10,4.7L4.4,13.6z M6.8,11.7c0-0.7,0.2-1.3,0.7-1.7c0.5-0.4,1.1-0.6,1.8-0.6    c0.8,0,1.4,0.2,1.9,0.6c0.5,0.4,0.7,1,0.7,1.8v0.5c0,0.7-0.2,1.3-0.7,1.7c-0.5,0.4-1.1,0.6-1.8,0.6c-0.8,0-1.4-0.2-1.8-0.6    c-0.5-0.4-0.7-1-0.7-1.7V11.7z M8.5,12.3c0,0.2,0.1,0.5,0.2,0.6c0.2,0.2,0.4,0.3,0.6,0.3c0.5,0,0.8-0.2,0.8-0.7l0-0.8    c0-0.3-0.1-0.5-0.2-0.7c-0.2-0.2-0.4-0.3-0.6-0.3c-0.2,0-0.5,0.1-0.6,0.2c-0.2,0.2-0.2,0.4-0.2,0.6V12.3z"/>
		<path class="st0" d="M16.9,10.1c0-0.8,0.2-1.6,0.5-2.3c0.3-0.7,0.8-1.2,1.4-1.5C19.4,6,20.2,5.8,21,5.8c1.3,0,2.3,0.4,3,1.2    c0.7,0.8,1.1,1.9,1.1,3.2v0.1c0,1.3-0.4,2.4-1.1,3.1c-0.7,0.8-1.7,1.2-3,1.2c-1.2,0-2.2-0.4-2.9-1.1c-0.7-0.7-1.1-1.7-1.2-2.9    L16.9,10.1z M19.6,10.3c0,0.8,0.1,1.4,0.4,1.7c0.2,0.4,0.6,0.5,1.1,0.5c0.9,0,1.4-0.7,1.4-2.2v-0.3c0-1.5-0.5-2.3-1.5-2.3    c-0.9,0-1.4,0.7-1.4,2L19.6,10.3z"/>
		<path class="st0" d="M26.8,14.4V7.8h-1.2V6h1.2V5.3c0-1,0.3-1.7,0.9-2.2c0.6-0.5,1.4-0.8,2.4-0.8c0.4,0,0.8,0.1,1.2,0.2l0,1.9    c-0.2,0-0.4-0.1-0.6-0.1c-0.8,0-1.2,0.3-1.2,1V6h1.6v1.8h-1.6v6.6H26.8z"/>
		<path class="st0" d="M45.1,3.1v7.4c0,0.8-0.2,1.6-0.5,2.2s-0.9,1.1-1.5,1.4c-0.7,0.3-1.5,0.5-2.4,0.5c-1.4,0-2.5-0.4-3.3-1.1    s-1.2-1.7-1.2-3V3.1h2.8v7.6c0,1.2,0.6,1.9,1.7,1.9c0.6,0,1-0.2,1.3-0.5c0.3-0.3,0.4-0.8,0.4-1.5V3.1H45.1z"/>
		<path class="st0" d="M56.3,14.4h-2.7l-4-7.1v7.1h-2.7V3.1h2.7l4,7.1V3.1h2.7V14.4z"/>
		<path class="st0" d="M67.3,13c-0.4,0.5-1,0.8-1.9,1.1s-1.7,0.4-2.7,0.4c-1.5,0-2.7-0.5-3.6-1.4c-0.9-0.9-1.4-2.2-1.4-3.8l0-1    c0-1.1,0.2-2.1,0.6-2.9c0.4-0.8,1-1.5,1.7-1.9c0.7-0.5,1.6-0.7,2.6-0.7c1.4,0,2.5,0.3,3.3,1c0.8,0.6,1.2,1.6,1.4,2.9h-2.6    c-0.1-0.6-0.3-1.1-0.6-1.4C63.7,5.1,63.3,5,62.7,5c-0.7,0-1.2,0.3-1.6,0.9c-0.4,0.6-0.6,1.4-0.6,2.5v0.7c0,1.1,0.2,2,0.6,2.6    c0.4,0.6,1,0.9,1.8,0.9c0.7,0,1.2-0.2,1.6-0.5v-1.8h-1.9V8.4h4.6V13z"/>
		<path class="st0" d="M75.4,12.3h-3.8L71,14.4H68l4.2-11.4h2.6L79,14.4H76L75.4,12.3z M72.3,10.2h2.4l-1.2-3.9L72.3,10.2z"/>
		<path class="st0" d="M91,9.9h-4.4v4.5h-2.7V3.1h7.6v2.1h-4.9v2.6H91V9.9z"/>
		<path class="st0" d="M92.4,3.8c0-0.4,0.1-0.7,0.4-0.9c0.3-0.2,0.6-0.4,1.1-0.4c0.4,0,0.8,0.1,1.1,0.4c0.3,0.2,0.4,0.5,0.4,0.9    s-0.1,0.7-0.4,0.9c-0.3,0.2-0.6,0.4-1.1,0.4c-0.4,0-0.8-0.1-1.1-0.4C92.5,4.5,92.4,4.2,92.4,3.8z M95.2,14.4h-2.6V6h2.6V14.4z"/>
		<path class="st0" d="M101.9,8.4l-0.9-0.1c-0.8,0-1.4,0.3-1.6,0.8v5.4h-2.6V6h2.5l0.1,1.1c0.4-0.8,1.1-1.2,1.9-1.2    c0.3,0,0.5,0,0.7,0.1L101.9,8.4z"/>
		<path class="st0" d="M107.3,12.1c0-0.2-0.1-0.4-0.4-0.5c-0.2-0.1-0.7-0.3-1.3-0.4c-0.7-0.1-1.2-0.3-1.6-0.6    c-0.4-0.2-0.8-0.5-1-0.9c-0.2-0.3-0.3-0.7-0.3-1.2c0-0.8,0.3-1.4,1-1.9c0.6-0.5,1.5-0.8,2.5-0.8c1.1,0,2,0.3,2.7,0.8    c0.7,0.5,1,1.2,1,2h-2.6c0-0.7-0.4-1-1.1-1c-0.3,0-0.5,0.1-0.7,0.2c-0.2,0.2-0.3,0.3-0.3,0.6c0,0.2,0.1,0.4,0.3,0.6    c0.2,0.1,0.6,0.3,1.1,0.4c0.5,0.1,0.9,0.2,1.3,0.3c1.3,0.4,1.9,1.2,1.9,2.4c0,0.8-0.3,1.4-1,1.9c-0.7,0.5-1.6,0.7-2.7,0.7    c-0.7,0-1.4-0.1-1.9-0.4c-0.6-0.3-1-0.6-1.3-1.1c-0.3-0.4-0.5-0.9-0.5-1.4h2.5c0,0.4,0.1,0.7,0.4,0.9s0.6,0.3,1,0.3    c0.4,0,0.6-0.1,0.8-0.2C107.2,12.5,107.3,12.3,107.3,12.1z"/>
		<path class="st0" d="M114.1,3.9V6h1.4v1.8h-1.4v3.9c0,0.3,0.1,0.5,0.2,0.7c0.1,0.1,0.3,0.2,0.7,0.2c0.3,0,0.5,0,0.7,0v1.9    c-0.5,0.2-1,0.2-1.5,0.2c-0.9,0-1.6-0.2-2-0.6c-0.4-0.4-0.6-1.1-0.6-1.9V7.8h-1.1V6h1.1V3.9H114.1z"/>
		<path class="st0" d="M129.9,10.6c0,0.8-0.2,1.5-0.6,2.1c-0.4,0.6-0.9,1.1-1.6,1.4c-0.7,0.3-1.5,0.5-2.4,0.5    c-1.5,0-2.7-0.5-3.5-1.5c-0.9-1-1.3-2.3-1.3-4.1V8.5c0-1.1,0.2-2.1,0.6-2.9c0.4-0.8,0.9-1.5,1.7-1.9c0.7-0.5,1.6-0.7,2.5-0.7    c1.4,0,2.5,0.4,3.3,1.1c0.8,0.7,1.3,1.7,1.4,3h-2.7c0-0.7-0.2-1.2-0.5-1.5c-0.3-0.3-0.8-0.5-1.5-0.5c-0.7,0-1.2,0.3-1.5,0.8    c-0.3,0.5-0.5,1.3-0.5,2.4v0.8c0,1.2,0.2,2.1,0.5,2.6c0.3,0.5,0.8,0.8,1.6,0.8c0.6,0,1.1-0.1,1.4-0.4c0.3-0.3,0.5-0.8,0.5-1.4    H129.9z"/>
		<path class="st0" d="M130.7,10.1c0-0.8,0.2-1.6,0.5-2.3c0.3-0.7,0.8-1.2,1.4-1.5c0.6-0.4,1.3-0.5,2.2-0.5c1.3,0,2.3,0.4,3,1.2    c0.7,0.8,1.1,1.9,1.1,3.2v0.1c0,1.3-0.4,2.4-1.1,3.1c-0.7,0.8-1.7,1.2-3,1.2c-1.2,0-2.2-0.4-2.9-1.1c-0.7-0.7-1.1-1.7-1.2-2.9    L130.7,10.1z M133.4,10.3c0,0.8,0.1,1.4,0.4,1.7c0.2,0.4,0.6,0.5,1.1,0.5c0.9,0,1.4-0.7,1.4-2.2v-0.3c0-1.5-0.5-2.3-1.5-2.3    c-0.9,0-1.4,0.7-1.4,2L133.4,10.3z"/>
		<path class="st0" d="M142.5,6l0.1,1c0.6-0.8,1.4-1.1,2.4-1.1c1.1,0,1.8,0.4,2.2,1.3c0.6-0.8,1.4-1.3,2.5-1.3c1.7,0,2.6,1,2.6,3.1    v5.5h-2.6V9.1c0-0.4-0.1-0.7-0.2-0.9c-0.1-0.2-0.4-0.3-0.8-0.3c-0.5,0-0.9,0.2-1.2,0.7l0,0.1v5.8h-2.6V9.1c0-0.4-0.1-0.8-0.2-1    c-0.1-0.2-0.4-0.3-0.8-0.3c-0.5,0-0.9,0.2-1.2,0.7v5.9h-2.6V6H142.5z"/>
		<path class="st0" d="M156.3,6l0.1,1c0.6-0.8,1.4-1.1,2.4-1.1c1.1,0,1.8,0.4,2.2,1.3c0.6-0.8,1.4-1.3,2.5-1.3c1.7,0,2.6,1,2.6,3.1    v5.5h-2.6V9.1c0-0.4-0.1-0.7-0.2-0.9c-0.1-0.2-0.4-0.3-0.8-0.3c-0.5,0-0.9,0.2-1.2,0.7l0,0.1v5.8h-2.6V9.1c0-0.4-0.1-0.8-0.2-1    c-0.1-0.2-0.4-0.3-0.8-0.3c-0.5,0-0.9,0.2-1.2,0.7v5.9h-2.6V6H156.3z"/>
		<path class="st0" d="M167.6,3.8c0-0.4,0.1-0.7,0.4-0.9c0.3-0.2,0.6-0.4,1.1-0.4c0.4,0,0.8,0.1,1.1,0.4c0.3,0.2,0.4,0.5,0.4,0.9    s-0.1,0.7-0.4,0.9c-0.3,0.2-0.6,0.4-1.1,0.4c-0.4,0-0.8-0.1-1.1-0.4C167.7,4.5,167.6,4.2,167.6,3.8z M170.4,14.4h-2.6V6h2.6V14.4z    "/>
		<path class="st0" d="M175.1,3.9V6h1.4v1.8h-1.4v3.9c0,0.3,0.1,0.5,0.2,0.7c0.1,0.1,0.3,0.2,0.7,0.2c0.3,0,0.5,0,0.7,0v1.9    c-0.5,0.2-1,0.2-1.5,0.2c-0.9,0-1.6-0.2-2-0.6c-0.4-0.4-0.6-1.1-0.6-1.9V7.8h-1.1V6h1.1V3.9H175.1z"/>
		<path class="st0" d="M180.6,3.9V6h1.4v1.8h-1.4v3.9c0,0.3,0.1,0.5,0.2,0.7c0.1,0.1,0.3,0.2,0.7,0.2c0.3,0,0.5,0,0.7,0v1.9    c-0.5,0.2-1,0.2-1.5,0.2c-0.9,0-1.6-0.2-2-0.6c-0.4-0.4-0.6-1.1-0.6-1.9V7.8h-1.1V6h1.1V3.9H180.6z"/>
		<path class="st0" d="M187.1,14.6c-1.3,0-2.3-0.4-3.1-1.2c-0.8-0.8-1.2-1.8-1.2-3v-0.2c0-0.9,0.2-1.6,0.5-2.3    c0.3-0.7,0.8-1.2,1.4-1.5c0.6-0.4,1.3-0.5,2.2-0.5c1.2,0,2.1,0.4,2.8,1.1c0.7,0.7,1,1.8,1,3.1v1h-5.2c0.1,0.5,0.3,0.8,0.6,1.1    c0.3,0.3,0.7,0.4,1.2,0.4c0.8,0,1.5-0.3,2-0.9l1.2,1.4c-0.3,0.5-0.8,0.8-1.4,1.1S187.8,14.6,187.1,14.6z M186.8,7.9    c-0.8,0-1.2,0.5-1.4,1.5h2.7V9.2c0-0.4-0.1-0.7-0.3-1C187.5,8,187.2,7.9,186.8,7.9z"/>
		<path class="st0" d="M195.8,14.6c-1.3,0-2.3-0.4-3.1-1.2s-1.2-1.8-1.2-3v-0.2c0-0.9,0.2-1.6,0.5-2.3c0.3-0.7,0.8-1.2,1.4-1.5    c0.6-0.4,1.3-0.5,2.2-0.5c1.2,0,2.1,0.4,2.8,1.1c0.7,0.7,1,1.8,1,3.1v1h-5.2c0.1,0.5,0.3,0.8,0.6,1.1c0.3,0.3,0.7,0.4,1.2,0.4    c0.8,0,1.5-0.3,2-0.9l1.2,1.4c-0.3,0.5-0.8,0.8-1.4,1.1S196.5,14.6,195.8,14.6z M195.5,7.9c-0.8,0-1.2,0.5-1.4,1.5h2.7V9.2    c0-0.4-0.1-0.7-0.3-1C196.2,8,195.9,7.9,195.5,7.9z"/>
		<path class="st0" d="M208.7,10.4h-1.5v4h-2.7V3.1h4.5c1.3,0,2.4,0.3,3.2,0.9c0.8,0.6,1.1,1.4,1.1,2.5c0,0.8-0.2,1.4-0.5,2    c-0.3,0.5-0.8,0.9-1.5,1.3l2.4,4.6v0.1h-2.9L208.7,10.4z M207.3,8.3h1.7c0.5,0,0.9-0.1,1.2-0.4s0.4-0.7,0.4-1.1s-0.1-0.9-0.4-1.2    s-0.7-0.4-1.2-0.4h-1.7V8.3z"/>
		<path class="st0" d="M218.9,14.6c-1.3,0-2.3-0.4-3.1-1.2s-1.2-1.8-1.2-3v-0.2c0-0.9,0.2-1.6,0.5-2.3c0.3-0.7,0.8-1.2,1.4-1.5    c0.6-0.4,1.3-0.5,2.2-0.5c1.2,0,2.1,0.4,2.8,1.1c0.7,0.7,1,1.8,1,3.1v1h-5.2c0.1,0.5,0.3,0.8,0.6,1.1c0.3,0.3,0.7,0.4,1.2,0.4    c0.8,0,1.5-0.3,2-0.9l1.2,1.4c-0.3,0.5-0.8,0.8-1.4,1.1S219.6,14.6,218.9,14.6z M218.6,7.9c-0.8,0-1.2,0.5-1.4,1.5h2.7V9.2    c0-0.4-0.1-0.7-0.3-1C219.4,8,219,7.9,218.6,7.9z"/>
		<path class="st0" d="M228,12.1c0-0.2-0.1-0.4-0.4-0.5c-0.2-0.1-0.7-0.3-1.3-0.4c-0.7-0.1-1.2-0.3-1.6-0.6c-0.4-0.2-0.8-0.5-1-0.9    c-0.2-0.3-0.3-0.7-0.3-1.2c0-0.8,0.3-1.4,1-1.9c0.6-0.5,1.5-0.8,2.5-0.8c1.1,0,2,0.3,2.7,0.8c0.7,0.5,1,1.2,1,2h-2.6    c0-0.7-0.4-1-1.1-1c-0.3,0-0.5,0.1-0.7,0.2c-0.2,0.2-0.3,0.3-0.3,0.6c0,0.2,0.1,0.4,0.3,0.6c0.2,0.1,0.6,0.3,1.1,0.4    s0.9,0.2,1.3,0.3c1.3,0.4,1.9,1.2,1.9,2.4c0,0.8-0.3,1.4-1,1.9s-1.6,0.7-2.7,0.7c-0.7,0-1.4-0.1-1.9-0.4s-1-0.6-1.3-1.1    c-0.3-0.4-0.5-0.9-0.5-1.4h2.5c0,0.4,0.1,0.7,0.4,0.9s0.6,0.3,1,0.3c0.4,0,0.6-0.1,0.8-0.2C227.9,12.5,228,12.3,228,12.1z"/>
		<path class="st0" d="M231.4,10.1c0-0.8,0.2-1.6,0.5-2.3c0.3-0.7,0.8-1.2,1.4-1.5c0.6-0.4,1.3-0.5,2.2-0.5c1.3,0,2.3,0.4,3,1.2    c0.7,0.8,1.1,1.9,1.1,3.2v0.1c0,1.3-0.4,2.4-1.1,3.1s-1.7,1.2-3,1.2c-1.2,0-2.2-0.4-2.9-1.1c-0.7-0.7-1.1-1.7-1.2-2.9L231.4,10.1z     M234,10.3c0,0.8,0.1,1.4,0.4,1.7c0.2,0.4,0.6,0.5,1.1,0.5c0.9,0,1.4-0.7,1.4-2.2v-0.3c0-1.5-0.5-2.3-1.5-2.3    c-0.9,0-1.4,0.7-1.4,2L234,10.3z"/>
		<path class="st0" d="M243.5,14.4h-2.6v-12h2.6V14.4z"/>
		<path class="st0" d="M250.2,13.5c-0.6,0.7-1.3,1.1-2.3,1.1c-0.9,0-1.6-0.3-2.1-0.8s-0.7-1.3-0.7-2.3V6h2.6v5.5    c0,0.7,0.4,1.1,1.1,1.1c0.6,0,1-0.2,1.3-0.6V6h2.6v8.5h-2.5L250.2,13.5z"/>
		<path class="st0" d="M257.2,3.9V6h1.4v1.8h-1.4v3.9c0,0.3,0.1,0.5,0.2,0.7s0.3,0.2,0.7,0.2c0.3,0,0.5,0,0.7,0v1.9    c-0.5,0.2-1,0.2-1.5,0.2c-0.9,0-1.6-0.2-2-0.6c-0.4-0.4-0.6-1.1-0.6-1.9V7.8h-1.1V6h1.1V3.9H257.2z"/>
		<path class="st0" d="M259.6,3.8c0-0.4,0.1-0.7,0.4-0.9c0.3-0.2,0.6-0.4,1.1-0.4s0.8,0.1,1.1,0.4c0.3,0.2,0.4,0.5,0.4,0.9    s-0.1,0.7-0.4,0.9c-0.3,0.2-0.6,0.4-1.1,0.4S260.3,5,260,4.7C259.8,4.5,259.6,4.2,259.6,3.8z M262.4,14.4h-2.6V6h2.6V14.4z"/>
		<path class="st0" d="M263.7,10.1c0-0.8,0.2-1.6,0.5-2.3c0.3-0.7,0.8-1.2,1.4-1.5c0.6-0.4,1.3-0.5,2.2-0.5c1.3,0,2.3,0.4,3,1.2    c0.7,0.8,1.1,1.9,1.1,3.2v0.1c0,1.3-0.4,2.4-1.1,3.1s-1.7,1.2-3,1.2c-1.2,0-2.2-0.4-2.9-1.1c-0.7-0.7-1.1-1.7-1.2-2.9L263.7,10.1z     M266.3,10.3c0,0.8,0.1,1.4,0.4,1.7c0.2,0.4,0.6,0.5,1.1,0.5c0.9,0,1.4-0.7,1.4-2.2v-0.3c0-1.5-0.5-2.3-1.5-2.3    c-0.9,0-1.4,0.7-1.4,2L266.3,10.3z"/>
		<path class="st0" d="M275.4,6l0.1,1c0.6-0.8,1.4-1.1,2.4-1.1c0.9,0,1.5,0.3,2,0.8c0.4,0.5,0.7,1.3,0.7,2.4v5.4h-2.6V9.1    c0-0.4-0.1-0.7-0.3-0.9c-0.2-0.2-0.5-0.3-0.9-0.3c-0.5,0-0.9,0.2-1.1,0.6v6H273V6H275.4z"/>
		<path class="st0" d="M286.5,12.1c0-0.2-0.1-0.4-0.4-0.5c-0.2-0.1-0.7-0.3-1.3-0.4c-0.7-0.1-1.2-0.3-1.6-0.6    c-0.4-0.2-0.8-0.5-1-0.9c-0.2-0.3-0.3-0.7-0.3-1.2c0-0.8,0.3-1.4,1-1.9c0.6-0.5,1.5-0.8,2.5-0.8c1.1,0,2,0.3,2.7,0.8    c0.7,0.5,1,1.2,1,2h-2.6c0-0.7-0.4-1-1.1-1c-0.3,0-0.5,0.1-0.7,0.2c-0.2,0.2-0.3,0.3-0.3,0.6c0,0.2,0.1,0.4,0.3,0.6    c0.2,0.1,0.6,0.3,1.1,0.4s0.9,0.2,1.3,0.3c1.3,0.4,1.9,1.2,1.9,2.4c0,0.8-0.3,1.4-1,1.9s-1.6,0.7-2.7,0.7c-0.7,0-1.4-0.1-1.9-0.4    s-1-0.6-1.3-1.1c-0.3-0.4-0.5-0.9-0.5-1.4h2.5c0,0.4,0.1,0.7,0.4,0.9s0.6,0.3,1,0.3c0.4,0,0.6-0.1,0.8-0.2    C286.4,12.5,286.5,12.3,286.5,12.1z"/>
		<path class="st0" d="M8.7,30.2l0.9-5h2.5l-2,8.5H7.8l-1.4-5l-1.4,5H2.8l-2-8.5h2.5l0.8,5.1l1.3-5.1h1.8L8.7,30.2z"/>
		<path class="st0" d="M13,23c0-0.4,0.1-0.7,0.4-0.9c0.3-0.2,0.6-0.4,1.1-0.4c0.4,0,0.8,0.1,1.1,0.4c0.3,0.2,0.4,0.5,0.4,0.9    s-0.1,0.7-0.4,0.9c-0.3,0.2-0.6,0.4-1.1,0.4c-0.4,0-0.8-0.1-1.1-0.4C13.1,23.7,13,23.4,13,23z M15.8,33.6h-2.6v-8.5h2.6V33.6z"/>
		<path class="st0" d="M20.5,23.1v2.1h1.4V27h-1.4v3.9c0,0.3,0.1,0.5,0.2,0.7c0.1,0.1,0.3,0.2,0.7,0.2c0.3,0,0.5,0,0.7,0v1.9    c-0.5,0.2-1,0.2-1.5,0.2c-0.9,0-1.6-0.2-2-0.6c-0.4-0.4-0.6-1.1-0.6-1.9V27h-1.1v-1.8h1.1v-2.1H20.5z"/>
		<path class="st0" d="M25.5,26.1c0.6-0.7,1.3-1.1,2.2-1.1c0.9,0,1.6,0.3,2.1,0.8c0.5,0.6,0.7,1.4,0.7,2.4v5.3h-2.6v-5.3    c0-0.4-0.1-0.8-0.3-1c-0.2-0.2-0.5-0.3-0.9-0.3c-0.5,0-0.9,0.2-1.1,0.5v6.1h-2.6v-12h2.6V26.1z"/>
		<path class="st0" d="M45.3,32.2c-0.4,0.5-1,0.8-1.9,1.1s-1.7,0.4-2.7,0.4c-1.5,0-2.7-0.5-3.6-1.4c-0.9-0.9-1.4-2.2-1.4-3.8l0-1    c0-1.1,0.2-2.1,0.6-2.9c0.4-0.8,1-1.5,1.7-1.9c0.7-0.5,1.6-0.7,2.6-0.7c1.4,0,2.5,0.3,3.3,1c0.8,0.6,1.2,1.6,1.4,2.9h-2.6    c-0.1-0.6-0.3-1.1-0.6-1.4c-0.3-0.3-0.8-0.4-1.3-0.4c-0.7,0-1.2,0.3-1.6,0.9c-0.4,0.6-0.6,1.4-0.6,2.5v0.7c0,1.1,0.2,2,0.6,2.6    c0.4,0.6,1,0.9,1.8,0.9c0.7,0,1.2-0.2,1.6-0.5v-1.8h-1.9v-1.9h4.6V32.2z"/>
		<path class="st0" d="M50.9,33.8c-1.3,0-2.3-0.4-3.1-1.2c-0.8-0.8-1.2-1.8-1.2-3v-0.2c0-0.9,0.2-1.6,0.5-2.3    c0.3-0.7,0.8-1.2,1.4-1.5c0.6-0.4,1.3-0.5,2.2-0.5c1.2,0,2.1,0.4,2.8,1.1c0.7,0.7,1,1.8,1,3.1v1h-5.2c0.1,0.5,0.3,0.8,0.6,1.1    c0.3,0.3,0.7,0.4,1.2,0.4c0.8,0,1.5-0.3,2-0.9l1.2,1.4c-0.3,0.5-0.8,0.8-1.4,1.1S51.6,33.8,50.9,33.8z M50.6,27.1    c-0.8,0-1.2,0.5-1.4,1.5h2.7v-0.2c0-0.4-0.1-0.7-0.3-1C51.4,27.2,51,27.1,50.6,27.1z"/>
		<path class="st0" d="M58,25.2l0.1,1c0.6-0.8,1.4-1.1,2.4-1.1c0.9,0,1.5,0.3,2,0.8c0.4,0.5,0.7,1.3,0.7,2.4v5.4h-2.6v-5.3    c0-0.4-0.1-0.7-0.3-0.9c-0.2-0.2-0.5-0.3-0.9-0.3c-0.5,0-0.9,0.2-1.1,0.6v6h-2.6v-8.5H58z"/>
		<path class="st0" d="M64.2,29.4c0-1.3,0.3-2.4,0.9-3.2c0.6-0.8,1.4-1.2,2.4-1.2c0.8,0,1.4,0.3,1.9,0.9v-4.3h2.6v12h-2.4l-0.1-0.9    c-0.5,0.7-1.2,1.1-2.1,1.1c-1,0-1.8-0.4-2.4-1.2C64.5,31.9,64.2,30.8,64.2,29.4z M66.9,29.5c0,1.5,0.4,2.2,1.3,2.2    c0.6,0,1-0.2,1.2-0.7v-3.2c-0.2-0.5-0.7-0.8-1.2-0.8c-0.8,0-1.3,0.7-1.3,2L66.9,29.5z"/>
		<path class="st0" d="M77.6,33.8c-1.3,0-2.3-0.4-3.1-1.2c-0.8-0.8-1.2-1.8-1.2-3v-0.2c0-0.9,0.2-1.6,0.5-2.3    c0.3-0.7,0.8-1.2,1.4-1.5c0.6-0.4,1.3-0.5,2.2-0.5c1.2,0,2.1,0.4,2.8,1.1c0.7,0.7,1,1.8,1,3.1v1H76c0.1,0.5,0.3,0.8,0.6,1.1    c0.3,0.3,0.7,0.4,1.2,0.4c0.8,0,1.5-0.3,2-0.9l1.2,1.4c-0.3,0.5-0.8,0.8-1.4,1.1S78.3,33.8,77.6,33.8z M77.3,27.1    c-0.8,0-1.2,0.5-1.4,1.5h2.7v-0.2c0-0.4-0.1-0.7-0.3-1C78.1,27.2,77.8,27.1,77.3,27.1z"/>
		<path class="st0" d="M87.4,27.6l-0.9-0.1c-0.8,0-1.4,0.3-1.6,0.8v5.4h-2.6v-8.5h2.5l0.1,1.1c0.4-0.8,1.1-1.2,1.9-1.2    c0.3,0,0.5,0,0.7,0.1L87.4,27.6z"/>
		<path class="st0" d="M96.7,29.6h-1.5v4h-2.7V22.3h4.5c1.3,0,2.4,0.3,3.2,0.9c0.8,0.6,1.1,1.4,1.1,2.5c0,0.8-0.2,1.4-0.5,2    c-0.3,0.5-0.8,0.9-1.5,1.3l2.4,4.6v0.1h-2.9L96.7,29.6z M95.2,27.5h1.7c0.5,0,0.9-0.1,1.2-0.4c0.3-0.3,0.4-0.7,0.4-1.1    s-0.1-0.9-0.4-1.2s-0.7-0.4-1.2-0.4h-1.7V27.5z"/>
		<path class="st0" d="M106.8,33.8c-1.3,0-2.3-0.4-3.1-1.2c-0.8-0.8-1.2-1.8-1.2-3v-0.2c0-0.9,0.2-1.6,0.5-2.3    c0.3-0.7,0.8-1.2,1.4-1.5c0.6-0.4,1.3-0.5,2.2-0.5c1.2,0,2.1,0.4,2.8,1.1c0.7,0.7,1,1.8,1,3.1v1h-5.2c0.1,0.5,0.3,0.8,0.6,1.1    c0.3,0.3,0.7,0.4,1.2,0.4c0.8,0,1.5-0.3,2-0.9l1.2,1.4c-0.3,0.5-0.8,0.8-1.4,1.1S107.5,33.8,106.8,33.8z M106.5,27.1    c-0.8,0-1.2,0.5-1.4,1.5h2.7v-0.2c0-0.4-0.1-0.7-0.3-1C107.3,27.2,107,27.1,106.5,27.1z"/>
		<path class="st0" d="M112,33.6V27h-1.2v-1.8h1.2v-0.7c0-1,0.3-1.7,0.9-2.2c0.6-0.5,1.4-0.8,2.4-0.8c0.4,0,0.8,0.1,1.2,0.2l0,1.9    c-0.2,0-0.4-0.1-0.6-0.1c-0.8,0-1.2,0.3-1.2,1v0.6h1.6V27h-1.6v6.6H112z"/>
		<path class="st0" d="M121.3,33.8c-1.3,0-2.3-0.4-3.1-1.2c-0.8-0.8-1.2-1.8-1.2-3v-0.2c0-0.9,0.2-1.6,0.5-2.3    c0.3-0.7,0.8-1.2,1.4-1.5c0.6-0.4,1.3-0.5,2.2-0.5c1.2,0,2.1,0.4,2.8,1.1c0.7,0.7,1,1.8,1,3.1v1h-5.2c0.1,0.5,0.3,0.8,0.6,1.1    c0.3,0.3,0.7,0.4,1.2,0.4c0.8,0,1.5-0.3,2-0.9l1.2,1.4c-0.3,0.5-0.8,0.8-1.4,1.1S122,33.8,121.3,33.8z M121.1,27.1    c-0.8,0-1.2,0.5-1.4,1.5h2.7v-0.2c0-0.4-0.1-0.7-0.3-1C121.8,27.2,121.5,27.1,121.1,27.1z"/>
		<path class="st0" d="M131.1,27.6l-0.9-0.1c-0.8,0-1.4,0.3-1.6,0.8v5.4H126v-8.5h2.5l0.1,1.1c0.4-0.8,1.1-1.2,1.9-1.2    c0.3,0,0.5,0,0.7,0.1L131.1,27.6z"/>
		<path class="st0" d="M136.1,33.8c-1.3,0-2.3-0.4-3.1-1.2c-0.8-0.8-1.2-1.8-1.2-3v-0.2c0-0.9,0.2-1.6,0.5-2.3    c0.3-0.7,0.8-1.2,1.4-1.5c0.6-0.4,1.3-0.5,2.2-0.5c1.2,0,2.1,0.4,2.8,1.1c0.7,0.7,1,1.8,1,3.1v1h-5.2c0.1,0.5,0.3,0.8,0.6,1.1    c0.3,0.3,0.7,0.4,1.2,0.4c0.8,0,1.5-0.3,2-0.9l1.2,1.4c-0.3,0.5-0.8,0.8-1.4,1.1S136.8,33.8,136.1,33.8z M135.8,27.1    c-0.8,0-1.2,0.5-1.4,1.5h2.7v-0.2c0-0.4-0.1-0.7-0.3-1C136.6,27.2,136.2,27.1,135.8,27.1z"/>
		<path class="st0" d="M143.2,25.2l0.1,1c0.6-0.8,1.4-1.1,2.4-1.1c0.9,0,1.5,0.3,2,0.8c0.4,0.5,0.7,1.3,0.7,2.4v5.4h-2.6v-5.3    c0-0.4-0.1-0.7-0.3-0.9c-0.2-0.2-0.5-0.3-0.9-0.3c-0.5,0-0.9,0.2-1.1,0.6v6h-2.6v-8.5H143.2z"/>
		<path class="st0" d="M153.3,31.8c0.4,0,0.7-0.1,0.9-0.3c0.2-0.2,0.3-0.5,0.3-0.8h2.5c0,0.9-0.3,1.7-1,2.3s-1.5,0.9-2.6,0.9    c-1.2,0-2.2-0.4-2.9-1.2c-0.7-0.8-1.1-1.8-1.1-3.2v-0.1c0-0.9,0.2-1.6,0.5-2.3c0.3-0.7,0.8-1.2,1.4-1.5s1.3-0.5,2.1-0.5    c1.1,0,2,0.3,2.6,0.9c0.6,0.6,1,1.4,1,2.5h-2.5c0-0.4-0.1-0.8-0.3-1c-0.2-0.2-0.5-0.4-0.9-0.4c-0.7,0-1.1,0.4-1.2,1.3    c0,0.3-0.1,0.7-0.1,1.1c0,0.8,0.1,1.4,0.3,1.8S152.9,31.8,153.3,31.8z"/>
		<path class="st0" d="M162.2,33.8c-1.3,0-2.3-0.4-3.1-1.2c-0.8-0.8-1.2-1.8-1.2-3v-0.2c0-0.9,0.2-1.6,0.5-2.3    c0.3-0.7,0.8-1.2,1.4-1.5c0.6-0.4,1.3-0.5,2.2-0.5c1.2,0,2.1,0.4,2.8,1.1c0.7,0.7,1,1.8,1,3.1v1h-5.2c0.1,0.5,0.3,0.8,0.6,1.1    c0.3,0.3,0.7,0.4,1.2,0.4c0.8,0,1.5-0.3,2-0.9l1.2,1.4c-0.3,0.5-0.8,0.8-1.4,1.1S162.9,33.8,162.2,33.8z M161.9,27.1    c-0.8,0-1.2,0.5-1.4,1.5h2.7v-0.2c0-0.4-0.1-0.7-0.3-1C162.6,27.2,162.3,27.1,161.9,27.1z"/>
		<path class="st0" d="M171.2,31.3c0-0.2-0.1-0.4-0.4-0.5c-0.2-0.1-0.7-0.3-1.3-0.4c-0.7-0.1-1.2-0.3-1.6-0.6    c-0.4-0.2-0.8-0.5-1-0.9c-0.2-0.3-0.3-0.7-0.3-1.2c0-0.8,0.3-1.4,1-1.9c0.6-0.5,1.5-0.8,2.5-0.8c1.1,0,2,0.3,2.7,0.8    c0.7,0.5,1,1.2,1,2h-2.6c0-0.7-0.4-1-1.1-1c-0.3,0-0.5,0.1-0.7,0.2c-0.2,0.2-0.3,0.3-0.3,0.6c0,0.2,0.1,0.4,0.3,0.6    c0.2,0.1,0.6,0.3,1.1,0.4c0.5,0.1,0.9,0.2,1.3,0.3c1.3,0.4,1.9,1.2,1.9,2.4c0,0.8-0.3,1.4-1,1.9c-0.7,0.5-1.6,0.7-2.7,0.7    c-0.7,0-1.4-0.1-1.9-0.4c-0.6-0.3-1-0.6-1.3-1.1c-0.3-0.4-0.5-0.9-0.5-1.4h2.5c0,0.4,0.1,0.7,0.4,0.9s0.6,0.3,1,0.3    c0.4,0,0.6-0.1,0.8-0.2C171.1,31.7,171.2,31.5,171.2,31.3z"/>
	</g>
</g>
<g>
	<g>
		<path class="st0" d="M10,77.1H2.5v-1l3.9-4.4c0.6-0.7,1-1.2,1.2-1.6C7.9,69.6,8,69.2,8,68.8c0-0.6-0.2-1.1-0.5-1.5    S6.6,66.7,6,66.7c-0.7,0-1.3,0.2-1.7,0.6s-0.6,1-0.6,1.7H2.3c0-1,0.3-1.9,1-2.5c0.7-0.6,1.6-1,2.7-1c1.1,0,1.9,0.3,2.5,0.8    c0.6,0.6,0.9,1.3,0.9,2.2c0,1.1-0.7,2.5-2.1,4l-3,3.3H10V77.1z"/>
		<path class="st0" d="M18.5,72.2c0,1.7-0.3,3-0.9,3.8s-1.5,1.2-2.7,1.2c-1.2,0-2.1-0.4-2.7-1.2c-0.6-0.8-0.9-2-0.9-3.6v-1.9    c0-1.7,0.3-2.9,0.9-3.7s1.5-1.2,2.7-1.2c1.2,0,2.1,0.4,2.7,1.2s0.9,2,0.9,3.6V72.2z M17.1,70.3c0-1.2-0.2-2.1-0.5-2.7    s-0.9-0.8-1.6-0.8c-0.7,0-1.3,0.3-1.6,0.8c-0.3,0.6-0.5,1.4-0.5,2.6v2.3c0,1.2,0.2,2.1,0.5,2.7c0.4,0.6,0.9,0.9,1.6,0.9    c0.7,0,1.2-0.3,1.6-0.8c0.3-0.6,0.5-1.4,0.5-2.6V70.3z"/>
		<path class="st0" d="M25,77.1h-1.5v-9.6l-2.9,1.1v-1.3l4.1-1.6H25V77.1z"/>
		<path class="st0" d="M29.8,71.4l0.6-5.7h5.8v1.3h-4.6l-0.3,3.1c0.6-0.3,1.2-0.5,1.9-0.5c1,0,1.9,0.3,2.5,1s0.9,1.6,0.9,2.8    c0,1.2-0.3,2.1-0.9,2.8s-1.5,1-2.7,1c-1,0-1.8-0.3-2.5-0.8c-0.6-0.6-1-1.3-1.1-2.3h1.4c0.1,0.7,0.3,1.1,0.7,1.5s0.9,0.5,1.5,0.5    c0.7,0,1.2-0.2,1.6-0.7s0.6-1.1,0.6-1.9c0-0.8-0.2-1.4-0.6-1.8s-1-0.7-1.7-0.7c-0.6,0-1.1,0.1-1.5,0.4L31,71.7L29.8,71.4z"/>
	</g>
</g>
<g>
	<g>
		<path class="st0" d="M10,100.7H2.5v-1l3.9-4.4c0.6-0.7,1-1.2,1.2-1.6C7.9,93.2,8,92.8,8,92.4c0-0.6-0.2-1.1-0.5-1.5    S6.6,90.3,6,90.3c-0.7,0-1.3,0.2-1.7,0.6s-0.6,1-0.6,1.7H2.3c0-1,0.3-1.9,1-2.5c0.7-0.6,1.6-1,2.7-1c1.1,0,1.9,0.3,2.5,0.8    c0.6,0.6,0.9,1.3,0.9,2.2c0,1.1-0.7,2.5-2.1,4l-3,3.3H10V100.7z"/>
		<path class="st0" d="M18.5,95.8c0,1.7-0.3,3-0.9,3.8s-1.5,1.2-2.7,1.2c-1.2,0-2.1-0.4-2.7-1.2c-0.6-0.8-0.9-2-0.9-3.6v-1.9    c0-1.7,0.3-2.9,0.9-3.7s1.5-1.2,2.7-1.2c1.2,0,2.1,0.4,2.7,1.2s0.9,2,0.9,3.6V95.8z M17.1,93.9c0-1.2-0.2-2.1-0.5-2.7    s-0.9-0.8-1.6-0.8c-0.7,0-1.3,0.3-1.6,0.8c-0.3,0.6-0.5,1.4-0.5,2.6v2.3c0,1.2,0.2,2.1,0.5,2.7c0.4,0.6,0.9,0.9,1.6,0.9    c0.7,0,1.2-0.3,1.6-0.8c0.3-0.6,0.5-1.4,0.5-2.6V93.9z"/>
		<path class="st0" d="M25,100.7h-1.5v-9.6l-2.9,1.1v-1.3l4.1-1.6H25V100.7z"/>
		<path class="st0" d="M34.8,89.3v1.2h-0.3c-1.1,0-2,0.4-2.7,1c-0.7,0.6-1.1,1.6-1.2,2.7c0.6-0.7,1.4-1,2.5-1c1,0,1.8,0.3,2.4,1    c0.6,0.7,0.9,1.6,0.9,2.7c0,1.2-0.3,2.1-1,2.8c-0.6,0.7-1.5,1.1-2.6,1.1c-1.1,0-2-0.4-2.6-1.3c-0.7-0.8-1-1.9-1-3.2v-0.6    c0-2.1,0.4-3.7,1.3-4.8c0.9-1.1,2.2-1.7,4-1.7H34.8z M32.9,94.4c-0.5,0-1,0.1-1.4,0.4c-0.4,0.3-0.7,0.7-0.9,1.1v0.5    c0,0.9,0.2,1.7,0.6,2.3s0.9,0.9,1.6,0.9c0.7,0,1.2-0.2,1.5-0.7c0.4-0.5,0.6-1.1,0.6-1.9c0-0.8-0.2-1.4-0.6-1.9    C34.1,94.7,33.6,94.4,32.9,94.4z"/>
	</g>
</g>
<g>
	<g>
		<path class="st0" d="M10,124.3H2.5v-1l3.9-4.4c0.6-0.7,1-1.2,1.2-1.6S8,116.4,8,116c0-0.6-0.2-1.1-0.5-1.5s-0.8-0.6-1.4-0.6    c-0.7,0-1.3,0.2-1.7,0.6s-0.6,1-0.6,1.7H2.3c0-1,0.3-1.9,1-2.5s1.6-1,2.7-1c1.1,0,1.9,0.3,2.5,0.8s0.9,1.3,0.9,2.2    c0,1.1-0.7,2.5-2.1,4l-3,3.3H10V124.3z"/>
		<path class="st0" d="M18.5,119.4c0,1.7-0.3,3-0.9,3.8s-1.5,1.2-2.7,1.2c-1.2,0-2.1-0.4-2.7-1.2s-0.9-2-0.9-3.6v-1.9    c0-1.7,0.3-2.9,0.9-3.7s1.5-1.2,2.7-1.2c1.2,0,2.1,0.4,2.7,1.2s0.9,2,0.9,3.6V119.4z M17.1,117.5c0-1.2-0.2-2.1-0.5-2.7    s-0.9-0.8-1.6-0.8c-0.7,0-1.3,0.3-1.6,0.8s-0.5,1.4-0.5,2.6v2.3c0,1.2,0.2,2.1,0.5,2.7s0.9,0.9,1.6,0.9c0.7,0,1.2-0.3,1.6-0.8    s0.5-1.4,0.5-2.6V117.5z"/>
		<path class="st0" d="M25,124.3h-1.5v-9.6l-2.9,1.1v-1.3l4.1-1.6H25V124.3z"/>
		<path class="st0" d="M36.5,113.7l-4.7,10.6h-1.5l4.7-10.2h-6.2v-1.2h7.7V113.7z"/>
	</g>
</g>
<g>
	<g>
		<path class="st0" d="M10,147.9H2.5v-1l3.9-4.4c0.6-0.7,1-1.2,1.2-1.6S8,140,8,139.6c0-0.6-0.2-1.1-0.5-1.5s-0.8-0.6-1.4-0.6    c-0.7,0-1.3,0.2-1.7,0.6s-0.6,1-0.6,1.7H2.3c0-1,0.3-1.9,1-2.5s1.6-1,2.7-1c1.1,0,1.9,0.3,2.5,0.8s0.9,1.3,0.9,2.2    c0,1.1-0.7,2.5-2.1,4l-3,3.3H10V147.9z"/>
		<path class="st0" d="M18.5,143c0,1.7-0.3,3-0.9,3.8s-1.5,1.2-2.7,1.2c-1.2,0-2.1-0.4-2.7-1.2s-0.9-2-0.9-3.6v-1.9    c0-1.7,0.3-2.9,0.9-3.7s1.5-1.2,2.7-1.2c1.2,0,2.1,0.4,2.7,1.2s0.9,2,0.9,3.6V143z M17.1,141.1c0-1.2-0.2-2.1-0.5-2.7    s-0.9-0.8-1.6-0.8c-0.7,0-1.3,0.3-1.6,0.8s-0.5,1.4-0.5,2.6v2.3c0,1.2,0.2,2.1,0.5,2.7s0.9,0.9,1.6,0.9c0.7,0,1.2-0.3,1.6-0.8    s0.5-1.4,0.5-2.6V141.1z"/>
		<path class="st0" d="M25,147.9h-1.5v-9.6l-2.9,1.1V138l4.1-1.6H25V147.9z"/>
		<path class="st0" d="M36.1,139.5c0,0.6-0.1,1.1-0.4,1.5s-0.7,0.8-1.2,1c0.6,0.3,1.1,0.6,1.4,1.1s0.5,1,0.5,1.7c0,1-0.3,1.8-1,2.4    s-1.5,0.9-2.6,0.9c-1.1,0-2-0.3-2.6-0.9s-1-1.4-1-2.3c0-0.6,0.2-1.2,0.5-1.7s0.8-0.9,1.4-1.1c-0.5-0.2-0.9-0.6-1.2-1    s-0.4-0.9-0.4-1.5c0-1,0.3-1.7,0.9-2.3s1.4-0.8,2.4-0.8c1,0,1.8,0.3,2.4,0.8S36.1,138.5,36.1,139.5z M34.9,144.8    c0-0.6-0.2-1.2-0.6-1.6s-0.9-0.6-1.6-0.6s-1.2,0.2-1.6,0.6s-0.6,0.9-0.6,1.6s0.2,1.2,0.6,1.5s0.9,0.6,1.6,0.6    c0.7,0,1.2-0.2,1.6-0.6S34.9,145.4,34.9,144.8z M32.7,137.5c-0.6,0-1,0.2-1.4,0.5s-0.5,0.8-0.5,1.4c0,0.6,0.2,1,0.5,1.4    s0.8,0.5,1.4,0.5s1-0.2,1.4-0.5s0.5-0.8,0.5-1.4s-0.2-1-0.5-1.4S33.3,137.5,32.7,137.5z"/>
	</g>
</g>
<g>
	<g>
		<path class="st0" d="M10,171.5H2.5v-1l3.9-4.4c0.6-0.7,1-1.2,1.2-1.6s0.3-0.8,0.3-1.3c0-0.6-0.2-1.1-0.5-1.5s-0.8-0.6-1.4-0.6    c-0.7,0-1.3,0.2-1.7,0.6s-0.6,1-0.6,1.7H2.3c0-1,0.3-1.9,1-2.5s1.6-1,2.7-1c1.1,0,1.9,0.3,2.5,0.8s0.9,1.3,0.9,2.2    c0,1.1-0.7,2.5-2.1,4l-3,3.3H10V171.5z"/>
		<path class="st0" d="M18.5,166.6c0,1.7-0.3,3-0.9,3.8s-1.5,1.2-2.7,1.2c-1.2,0-2.1-0.4-2.7-1.2s-0.9-2-0.9-3.6v-1.9    c0-1.7,0.3-2.9,0.9-3.7s1.5-1.2,2.7-1.2c1.2,0,2.1,0.4,2.7,1.2s0.9,2,0.9,3.6V166.6z M17.1,164.7c0-1.2-0.2-2.1-0.5-2.7    s-0.9-0.8-1.6-0.8c-0.7,0-1.3,0.3-1.6,0.8s-0.5,1.4-0.5,2.6v2.3c0,1.2,0.2,2.1,0.5,2.7s0.9,0.9,1.6,0.9c0.7,0,1.2-0.3,1.6-0.8    s0.5-1.4,0.5-2.6V164.7z"/>
		<path class="st0" d="M25,171.5h-1.5v-9.6l-2.9,1.1v-1.3l4.1-1.6H25V171.5z"/>
		<path class="st0" d="M34.7,166.5c-0.3,0.4-0.7,0.6-1.1,0.9s-0.9,0.3-1.4,0.3c-0.7,0-1.2-0.2-1.7-0.5s-0.9-0.8-1.1-1.4    s-0.4-1.2-0.4-1.9c0-0.8,0.1-1.4,0.4-2.1s0.7-1.1,1.2-1.4s1.2-0.5,1.9-0.5c1.1,0,2,0.4,2.7,1.3s1,2,1,3.4v0.4    c0,2.2-0.4,3.8-1.3,4.8s-2.2,1.5-4,1.6h-0.3v-1.2h0.3c1.2,0,2.1-0.3,2.8-0.9S34.6,167.8,34.7,166.5z M32.5,166.5    c0.5,0,0.9-0.1,1.3-0.4s0.7-0.7,0.9-1.1v-0.6c0-0.9-0.2-1.7-0.6-2.3s-0.9-0.9-1.6-0.9c-0.6,0-1.1,0.2-1.5,0.7s-0.6,1.1-0.6,1.9    c0,0.8,0.2,1.4,0.6,1.9S31.9,166.5,32.5,166.5z"/>
	</g>
</g>
<line class="st6" x1="50.4" y1="178.7" x2="402.1" y2="178.7"/>
</svg>