<?xml version="1.0" encoding="UTF-8" standalone="no"?>
<!-- Generator: Adobe Illustrator 16.0.0, SVG Export Plug-In . SVG Version: 6.00 Build 0)  -->

<svg
   xmlns:dc="http://purl.org/dc/elements/1.1/"
   xmlns:cc="http://creativecommons.org/ns#"
   xmlns:rdf="http://www.w3.org/1999/02/22-rdf-syntax-ns#"
   xmlns:svg="http://www.w3.org/2000/svg"
   xmlns="http://www.w3.org/2000/svg"
   xmlns:sodipodi="http://sodipodi.sourceforge.net/DTD/sodipodi-0.dtd"
   xmlns:inkscape="http://www.inkscape.org/namespaces/inkscape"
   version="1.1"
   id="Ebene_1"
   x="0px"
   y="0px"
   width="440px"
   height="440px"
   viewBox="0 0 440 440"
   enable-background="new 0 0 440 440"
   xml:space="preserve"
   inkscape:version="0.48.4 r9939"
   sodipodi:docname="EUTM_Mali.svg"><metadata
   id="metadata153"><rdf:RDF><cc:Work
       rdf:about=""><dc:format>image/svg+xml</dc:format><dc:type
         rdf:resource="http://purl.org/dc/dcmitype/StillImage" /><dc:title></dc:title></cc:Work></rdf:RDF></metadata><defs
   id="defs151">
	
	
</defs><sodipodi:namedview
   pagecolor="#ffffff"
   bordercolor="#666666"
   borderopacity="1"
   objecttolerance="10"
   gridtolerance="10"
   guidetolerance="10"
   inkscape:pageopacity="0"
   inkscape:pageshadow="2"
   inkscape:window-width="1366"
   inkscape:window-height="705"
   id="namedview149"
   showgrid="false"
   inkscape:zoom="0.70710678"
   inkscape:cx="-98.066319"
   inkscape:cy="233.74813"
   inkscape:window-x="-8"
   inkscape:window-y="-8"
   inkscape:window-maximized="1"
   inkscape:current-layer="Ebene_1" />
<circle
   sodipodi:ry="220"
   sodipodi:rx="220"
   sodipodi:cy="220"
   sodipodi:cx="220"
   style="fill:#292c72;fill-opacity:1"
   id="circle5"
   r="220"
   cy="220"
   cx="220" /><circle
   sodipodi:ry="155"
   sodipodi:rx="155"
   sodipodi:cy="220"
   sodipodi:cx="220"
   style="fill:#00a3de;fill-opacity:1;stroke:#ffcc00;stroke-opacity:1;stroke-width:5.1;stroke-miterlimit:4;stroke-dasharray:none"
   id="circle7"
   r="155"
   cy="220"
   cx="220" /><path
   style="fill:#ce1221;fill-opacity:1;stroke:none"
   d="m 83.686834,288.37152 c 6.893837,13.34429 15.636562,27.08763 27.865246,38.82719 l 257.6658,-138.61209 c -3.64734,-17.62893 -9.7079,-31.98284 -17.92324,-46.10442 z"
   id="path3898"
   inkscape:connector-curvature="0"
   sodipodi:nodetypes="ccccc" /><path
   style="fill:#ffcc00;stroke:#ffcc00;stroke-width:5;stroke-linecap:round;stroke-linejoin:miter;stroke-opacity:1;fill-opacity:1;stroke-miterlimit:4;stroke-dasharray:none"
   d="M 83.526988,288.41398 351.22388,142.42036"
   id="path3900"
   inkscape:connector-curvature="0"
   sodipodi:nodetypes="cc" /><path
   sodipodi:nodetypes="cc"
   inkscape:connector-curvature="0"
   id="path3902"
   d="M 111.52699,327.22648 369.22388,188.42036"
   style="fill:#ffcc00;fill-opacity:1;stroke:#ffcc00;stroke-width:5;stroke-linecap:round;stroke-linejoin:miter;stroke-opacity:1;stroke-miterlimit:4;stroke-dasharray:none" /><path
   style="fill:#292c72;fill-opacity:1"
   inkscape:connector-curvature="0"
   id="Democratic_Republic_of_Congo"
   d="m 275.69101,95.903637 0.48008,0.94618 0.69343,0.94618 2.29369,1.66711 0.74679,0.902373 0.53342,1.03504 0.37338,0.76597 0.69344,0.63079 1.01497,0.4055 0.85199,0.49563 0.48008,0.71966 0.80012,0.72089 1.49356,1.0363 h 0.74678 l 0.80013,0.13517 0.74679,0.27034 0.80011,-0.045 1.2802,-0.67582 1.49358,-1.12642 1.12017,-0.67585 2.77375,0.22654 1.54693,0.58574 1.28018,0.76594 0.95868,-0.045 2.08032,-1.44181 1.06683,-1.53192 1.06831,-0.36044 1.65211,0.67585 1.38838,1.44055 1.17351,2.07259 0.85346,0.81102 1.17204,1.21652 2.29517,2.65834 2.93231,1.35168 1.17352,0.6308 0.37338,0.67585 0.21485,0.85732 0.10514,0.94619 0.37339,0.40551 0.80012,-0.13517 0.69493,-0.13517 0.74678,0.2716 0.53194,0.67584 0.26671,0.54067 0.26818,0.58574 0.7468,0.36045 0.16002,0.76597 -0.53342,0.90112 -0.48008,0.81102 -0.6401,1.62203 -0.32005,1.62203 0.42526,0.54069 0.48008,0.49561 0.21484,0.45057 0.15854,0.54068 -0.0533,0.6308 -0.95866,2.29787 -0.53343,1.98248 v 1.0363 l 1.33354,0.7209 1.70546,-0.045 0.58676,0.49563 0.5334,0.71965 0.47861,0.36044 h 0.74678 l 0.48006,0.2716 0.21486,0.49563 0.58676,0.54068 0.48007,0.63203 -0.21336,0.76471 -0.0533,0.63079 -1.22684,1.62329 -2.82711,3.28912 -6.02612,5.99252 h -0.0533 l -2.02699,0.72089 -1.06684,1.12516 -0.74825,1.75721 -1.76029,1.48685 -1.38687,0.63205 -0.16002,0.36046 -0.0533,1.62202 0.10672,2.34295 -0.6401,1.0801 -0.90681,2.11765 -0.48007,1.30665 -0.37339,0.27034 -0.42674,0.67584 -0.2667,2.16397 -0.16003,0.72089 -0.69344,4.45935 0.21484,1.26284 -0.53341,2.11639 -0.0533,1.21778 -0.21485,1.44055 -0.37339,1.21778 0.0533,1.93744 0.21485,3.19901 -0.0533,0.4055 -0.53342,0.3154 -0.90532,0.81101 -0.85347,0.49562 -0.69343,0.13517 -1.06832,1.44056 -0.95867,1.30788 -0.69345,1.30665 -0.21484,0.63079 0.16002,1.66708 0.10526,1.98249 -0.21336,0.90112 -0.37339,0.49563 -1.54692,1.0801 -0.96013,0.76597 -0.4786,0.40551 -0.26819,0.63079 0.42674,1.48687 0.0533,1.0801 0.32005,0.63079 1.22686,0.54193 v 0.49562 0.58698 l 0.64158,0.67459 1.17203,1.39676 0.90681,1.3517 v 1.17271 l -0.16002,1.93743 -0.052,1.08136 0.10516,1.53193 -0.0533,2.83981 -0.052,2.02628 0.10515,1.03629 1.38835,2.52443 0.64011,2.74844 0.26671,2.02629 v 0.67709 l -0.47861,2.2979 -0.58674,2.29787 -0.0533,0.85608 0.2682,1.12641 0.95867,2.61327 0.74678,1.93743 0.32152,1.12641 0.53193,1.3517 0.64011,2.02754 0.16002,0.99124 -0.16002,0.72091 -1.44022,2.56822 -0.10526,0.81101 0.26671,1.98248 0.42673,1.93744 0.6401,1.08135 1.54691,3.01754 1.12017,1.0363 2.13368,1.48686 1.86694,1.53192 0.69344,0.81102 0.69345,0.85607 1.22686,2.25283 0.80012,1.84856 0.3734,1.66709 1.01349,2.25283 0.90679,2.11765 1.22687,2.56822 0.80012,1.80226 0.3734,1.21652 -2.24036,0.36045 -3.30718,0.49562 -3.62575,0.54068 -3.7354,0.58574 -3.67909,0.58574 -3.52054,0.54192 -3.2005,0.49562 -0.95867,0.3154 0.4786,1.39675 -0.2667,1.48686 -0.64159,1.17147 -1.01348,1.4418 -0.48008,0.54068 -1.01349,1.12642 -0.85348,0.76597 -1.76027,1.30663 -1.12017,0.76471 v 0.6771 l 1.76027,3.19901 0.80013,2.29787 0.2667,2.07261 -0.0533,1.17147 -0.10515,2.43304 -0.16002,2.92867 -0.10672,1.12642 0.42672,2.0726 -0.10515,1.62203 -1.2802,1.80101 -0.37338,1.7572 -0.69344,2.38799 -0.90682,3.33419 -0.69344,1.7572 0.32005,1.12512 0.32006,0.76594 0.26671,1.0363 0.64157,1.53193 0.74678,0.90238 0.42674,0.40426 2.4537,1.93868 1.01351,0.94618 1.60025,1.84732 1.12017,1.26158 1.65359,0.27159 1.97216,0.49563 1.06831,0.36045 0.74678,-0.18024 0.26671,-0.4055 v -0.94618 l -0.10672,-0.67585 0.21484,-0.54193 0.69345,-0.36046 1.70693,-0.0439 0.74679,-0.45056 0.64011,-0.13517 -0.0533,2.0726 -0.0533,1.93742 -0.10515,2.38799 -0.0533,2.74846 -0.0533,2.20777 -0.0533,2.38799 -0.10672,2.74844 v 0.31539 l -0.32005,0.6308 -0.64011,0.18022 -0.90679,-0.54068 -0.0533,-0.54068 -0.21335,-1.03629 -0.42673,-0.49563 -0.53343,-0.18022 -0.95866,0.27034 -1.2802,0.7209 -1.70546,0.67585 -0.69491,0.36045 -1.17352,-0.045 -1.22537,-0.36045 -0.90682,-0.85608 -0.21484,-1.26283 -0.80012,-1.26157 -1.06685,-1.89238 -0.53341,-0.76596 -0.74677,-0.85607 -0.74679,-0.0901 -0.80012,-0.27034 -0.47859,-1.26283 -0.42674,-1.62205 -0.32005,-0.63077 -0.48008,-0.80978 -0.69344,-0.49561 -1.54691,-0.6308 -2.13366,-0.90112 -2.72041,-1.12642 -1.33208,-0.0901 -1.4417,-0.18023 -0.90532,-0.54068 -0.53342,-0.40551 -0.53341,-1.57697 -0.80014,-1.84856 -2.34702,-2.20778 -0.47859,-2.38799 -0.48008,-0.36045 -0.85346,0.18022 -0.64011,0.3154 -0.26817,0.6308 -0.69346,2.20902 -0.37338,0.99123 -0.2667,0.27033 -0.53344,0.31541 -0.85346,0.31539 -1.22538,0.13517 -1.76027,-0.045 -2.13366,-0.36045 -1.17203,-0.22529 -3.14717,-0.36045 -0.90679,-0.18148 -1.28019,-0.49562 -0.95867,-0.49563 -3.04196,-1.03629 -1.38688,0.13517 -0.6401,-0.7209 -0.64158,-0.36046 -0.80013,-0.67585 -0.37338,-0.94618 -0.42525,-2.02749 0.10515,-1.0801 0.42672,-1.17273 -0.42672,-0.36046 h -0.53342 l -0.79866,0.40552 -1.4417,0.22528 -2.61373,0.54068 -0.90681,0.31664 -1.0135,0.22529 -0.80013,0.18022 -1.97362,1.17273 -0.64011,0.13517 -1.17352,-0.45057 -0.5334,-0.63079 0.58674,-0.67585 0.21337,-0.85732 -0.37339,-1.71215 -0.53341,-0.80976 -1.76027,-0.54193 -0.64011,-0.0888 -0.26818,-0.94744 -0.4786,-0.85608 -0.96016,-0.18023 -0.48007,-0.0901 -0.48006,0.27034 -0.32005,0.72089 -0.0533,0.49562 -0.90532,0.44932 -1.76028,-0.0901 -1.8136,-0.40425 -1.22686,-0.13517 -0.85347,0.0901 -3.14716,1.35169 -1.06683,0.18024 -3.41387,-0.13393 -1.92028,-0.27158 -1.38838,-0.045 -0.95866,0.40551 -1.22687,0.99125 -1.01348,0.54192 -0.48007,-0.0901 -0.26671,-0.40551 -0.42674,-0.58574 -0.10672,-1.44181 -0.48007,-1.66708 0.37339,-0.85609 1.01497,-0.58573 0.3734,-1.26283 -0.32154,-1.89236 v -1.35171 l 0.32154,-0.76595 -0.3734,-1.84732 -0.96015,-2.97372 -1.38688,-2.388 -1.8151,-1.89237 -1.17352,-1.75721 -0.53194,-1.71214 0.26673,-4.05508 0.58675,-3.60453 0.48007,-2.83855 -0.10672,-4.77599 -1.17204,-3.1089 -0.26818,-3.33418 0.74677,-3.55946 0.10672,-2.4781 -0.42673,-1.26159 -0.32005,-0.18148 -0.3734,-0.13392 -3.14715,-0.0901 -4.21399,-0.18024 -3.62723,-0.045 -4.00061,-0.045 -0.64011,-0.45056 -0.26671,-0.85607 v -0.81102 l 0.85346,-2.52316 -0.10672,-0.22529 -1.4417,-0.045 -3.78726,0.40426 -2.56039,0.40551 -1.60026,0.13517 -2.77377,0.67584 -1.76026,1.48687 -0.58677,1.80226 0.0533,1.53192 -0.10672,1.08134 -0.80013,1.17274 -0.6401,1.30663 -0.0533,0.67585 -0.37339,3.55946 -2.61374,0.45056 H 164.705 l -0.58677,-0.045 -3.2005,-0.85732 h -1.17351 l -1.01348,0.45056 -1.97365,0.45057 -1.86696,0.31539 -1.9203,1.03631 -0.48008,0.0888 -1.22686,-0.54068 -1.76027,0.045 -1.76027,0.27032 -0.85346,0.0901 -0.58677,-0.31539 -1.60023,-2.61328 -2.13368,-3.51566 -1.1735,-2.20777 -0.42527,-0.54193 -0.74678,-0.7647 -1.06832,-1.44181 -0.42672,-1.3517 0.21485,-1.30664 -0.58676,-1.71214 -1.38688,-2.20777 -0.90682,-2.07259 -0.42671,-1.98249 -0.10527,-1.71215 0.21337,-1.39675 -0.2667,-1.08135 -0.74679,-0.67585 -0.42672,-0.85607 -0.2682,-0.3154 -0.6401,-0.81102 -1.38687,-0.90112 -1.49505,-0.45057 -3.36054,-0.045 h -4.37401 l -3.94578,0.045 -4.37402,0.0901 -4.4807,0.0901 -1.17352,0.0888 -3.41387,0.0902 -2.72042,-0.22529 -1.01349,-0.18147 -1.76028,-0.0889 -2.773751,-0.045 -1.546915,0.0901 h -3.625753 l -0.321521,0.0438 -0.586769,0.22654 -1.546906,-0.3154 -1.493559,0.0888 -0.853463,-0.40426 -1.866954,0.27034 -0.906818,0.31539 -1.440214,1.12641 -2.188503,0.58573 -0.800116,-0.045 -0.531933,-0.18148 -1.280203,-1.26157 -0.958673,-1.17147 -0.373385,-0.67585 0.531932,-0.13517 1.706935,-0.27033 1.332058,-0.13517 0.214857,-0.31541 0.213365,-3.64957 0.05329,-3.73969 -0.480078,-0.49563 -0.426731,-0.31539 v -0.22528 l 0.641588,-0.49562 0.958654,-0.54068 0.268194,-0.22654 1.013491,-0.99124 2.08033,-2.29788 1.493559,-0.54068 1.440223,-0.63078 0.214857,-0.22654 0.213356,-0.40425 h 0.640106 l 0.214848,0.22528 0.320048,0.49561 0.533414,0.67585 1.013492,0.81103 1.066838,0.85731 0.480077,0.0888 0.853463,-0.40551 0.958663,-0.67585 1.388368,-0.44931 0.373385,-0.45057 0.158557,-0.94619 0.106721,-1.0363 0.160019,-1.21652 0.266703,-0.13517 0.533414,-0.13517 0.90534,0.36046 0.42673,0.31664 h 0.80012 l 0.48008,-0.31664 0.90679,-0.58574 1.12018,-0.22528 1.22686,-0.58574 1.17351,-0.7209 0.53194,-0.045 0.58676,0.94618 0.53194,0.67586 0.10672,0.40551 -0.53193,0.76595 -0.58676,1.08011 0.48007,1.30664 0.10672,1.26283 v 0.76471 l 0.37338,0.27159 0.2667,0.18023 0.42674,-0.18023 0.85199,0.0438 1.01497,0.4055 0.94534,-0.0376 0.9068,-0.49561 1.76028,-1.89363 2.56039,-3.33417 2.08033,-2.07136 1.70545,-0.85732 1.12017,-0.99124 0.58676,-1.12642 0.95866,-0.76471 2.027,-0.63079 1.54689,-0.67585 1.54691,-2.25282 2.08034,-4.10014 0.58674,-3.64958 0.32154,-2.25282 -0.16003,-7.66084 -0.16003,-2.47686 0.32153,-1.39676 0.80013,-0.94618 2.07883,-1.98248 1.38837,-1.62205 1.06683,-1.93742 2.07886,-4.37048 0.9068,-1.39676 0.42674,-0.63078 1.22685,-1.17273 1.76028,-1.03629 2.24182,-0.85607 3.4672,-3.06385 2.77378,-3.01877 -0.3734,-3.69463 0.64011,-3.06385 1.49356,-3.87486 0.48007,-4.10014 -0.53341,-4.32542 0.21485,-3.55947 1.44022,-4.10014 0.58675,-1.53192 0.21338,-2.4781 v -4.01004 l 1.81361,-5.40677 1.70693,-3.28911 1.9203,-3.64958 0.74679,-2.20778 0.95865,-2.92991 -0.15853,-2.34169 -0.16002,-2.70338 0.48008,-3.7397 -0.21337,-2.20902 -0.69494,-1.89237 0.3734,-1.21652 1.33354,-0.49563 1.76027,-1.89237 3.04195,-5.001273 3.36052,-2.43305 2.2937,-0.76596 2.45372,0.0901 1.5469,0.40551 0.74678,0.81102 1.86697,1.17147 2.93379,1.53191 2.18699,1.938683 1.22687,1.98249 0.95866,1.08011 1.17352,0.36045 1.86845,-0.18023 2.13217,0.45057 2.24035,1.12516 1.38837,0.40551 0.47859,-0.3154 1.12165,0.18023 2.45223,0.90238 1.92031,-0.49563 2.93378,0.36046 6.72105,1.62203 0.37339,-0.27034 0.15855,-0.0901 0.53342,-0.6308 1.49356,-3.24406 1.17352,-1.98248 0.58675,-0.72091 1.44022,-1.0363 1.6536,-0.27033 1.6521,0.0901 1.33354,0.44931 1.22686,0.54193 h 1.38688 l 1.38689,-0.54193 2.02698,-0.94618 2.18848,-0.585743 1.86696,-0.67585 3.09382,-1.21779 1.22685,-0.54067 1.49357,-0.22528 4.32067,1.08136 2.77377,-0.72091 1.17352,0.22528 2.40036,-0.76596 0.42524,-0.54068 1.49507,-2.61327 1.6521,-0.765965 2.45371,0.405515 1.38836,0.40551 4.63924,1.08009 6.0276,1.17273 1.76028,0.18022 0.74825,0.13517 0.64011,-0.18148 1.92031,-1.48686 0.69342,-0.22528 0.53342,0.0438 3.78429,1.22028 z" />
<g
   id="g9">
	<polygon
   fill="#FFCC00"
   points="407.574,195.662 413.613,214.254 433.16,214.254 417.348,225.744 423.387,244.336 407.574,232.844    391.758,244.336 397.801,225.744 381.984,214.254 401.535,214.254  "
   id="polygon11" />
	<polygon
   fill="#FFCC00"
   points="382.445,289.449 388.484,308.043 408.031,308.043 392.219,319.531 398.258,338.125    382.445,326.633 366.629,338.125 372.668,319.531 356.855,308.043 376.402,308.043  "
   id="polygon13" />
	<polygon
   fill="#FFCC00"
   points="313.789,358.105 319.828,376.699 339.375,376.699 323.563,388.188 329.602,406.781    313.789,395.289 297.973,406.781 304.012,388.188 288.199,376.699 307.746,376.699  "
   id="polygon15" />
	<polygon
   fill="#FFCC00"
   points="220,383.238 226.039,401.828 245.586,401.828 229.773,413.32 235.813,431.91 220,420.418    204.184,431.91 210.225,413.32 194.41,401.828 213.959,401.828  "
   id="polygon17" />
	<polygon
   fill="#FFCC00"
   points="126.213,358.105 132.252,376.699 151.799,376.699 135.986,388.188 142.025,406.781    126.213,395.289 110.396,406.781 116.438,388.188 100.623,376.699 120.172,376.699  "
   id="polygon19" />
	<polygon
   fill="#FFCC00"
   points="57.557,289.449 63.596,308.043 83.143,308.043 67.33,319.531 73.369,338.125 57.557,326.633    41.74,338.125 47.781,319.531 31.967,308.043 51.516,308.043  "
   id="polygon21" />
	<polygon
   fill="#FFCC00"
   points="32.426,195.662 38.465,214.254 58.012,214.254 42.199,225.744 48.238,244.336 32.426,232.844    16.609,244.336 22.65,225.744 6.836,214.254 26.385,214.254  "
   id="polygon23" />
	<polygon
   fill="#FFCC00"
   points="57.557,101.875 63.596,120.467 83.143,120.467 67.33,131.957 73.369,150.549 57.557,139.057    41.74,150.549 47.781,131.957 31.967,120.467 51.516,120.467  "
   id="polygon25" />
	<polygon
   fill="#FFCC00"
   points="126.213,33.217 132.252,51.809 151.799,51.809 135.986,63.299 142.025,81.891 126.213,70.398    110.396,81.891 116.438,63.299 100.623,51.809 120.172,51.809  "
   id="polygon27" />
	<polygon
   fill="#FFCC00"
   points="220,8.088 226.039,26.68 245.586,26.68 229.773,38.17 235.813,56.762 220,45.27 204.184,56.762    210.225,38.17 194.41,26.68 213.959,26.68  "
   id="polygon29" />
	<polygon
   fill="#FFCC00"
   points="313.785,33.217 319.824,51.809 339.371,51.809 323.559,63.299 329.598,81.891 313.785,70.398    297.969,81.891 304.012,63.299 288.195,51.809 307.746,51.809  "
   id="polygon31" />
	<polygon
   fill="#FFCC00"
   points="382.445,101.875 388.484,120.467 408.031,120.467 392.219,131.957 398.258,150.549    382.445,139.057 366.629,150.549 372.668,131.957 356.855,120.467 376.402,120.467  "
   id="polygon33" />
</g>
<g
   id="TT"
   display="none">
	<path
   id="Mali"
   display="inline"
   fill="none"
   stroke="#FFFFFF"
   d="M306.219,184.219c-0.086,3.422-0.113,6.844-0.16,10.266   c-0.023,1.863-0.043,3.727-0.074,5.588c-0.016,1.068,0.477,5.098-0.203,5.818c-0.75,0.797-0.223,3.172-0.492,4.203   c-0.488,1.885-1.355,3.443-1.977,5.266c-0.328,0.959-0.707,2.746-1.438,3.465c-1.086,1.07-3.41,1.158-3.129,3.332   c-1.113-0.197-3.137-0.924-4.25-0.73c-0.383,0.066-0.465,0.098-0.516,0.535c-0.078,0.678-1.668,0.389-2.254,0.408   c-2.961,0.104-5.938,0.123-8.895,0.301c-1.625,0.1-3.25,0.191-4.879,0.275c-1.305,0.068-2.414,2.313-3.566,2.846   c-1.625,0.752-6.547-0.943-7.086,0.77c-1.543-0.59-3.488-1.727-5.113-1.264c-1.387,0.395-2.457-0.859-4.168-0.137   c-1.535,0.648-2.488,2.125-4.098,2.77c-1.734,0.695-3.254,1.938-4.961,2.602c-0.766,0.297-2.051,0-2.68,0.531   c-0.57,0.48-0.246,2.227-0.859,2.633c-1.316,0.867-3.324-1.109-5.039-0.367c-1.934,0.836-2.594,2.738-3.344,4.434   c-0.223,0.5,0.344,0.969-0.281,1.363c-0.754,0.477-1.691-0.504-2.355-0.23c-1.578,0.645,0.109,3.43-1.559,4.121   c-2.789,1.16-2.027-0.273-4.773-1.148c-1.871-0.594-2.957,0.645-4.121,1.969c-1.479,1.684,1.926,3.098-0.84,4.465   c-2.158,1.066,0.078,1.844-0.822,3.969c-0.535,1.258-2.385,2.551-3.627,3.031c-1.594,0.613-3.238,0.352-4.445,1.746   c-1.004,1.164,0.25,3.066,0.021,4.477c-0.291,1.785-2.486,3.293-2.303,4.527c0.254,1.73,0.086,3.742-0.59,5.355   c-2.045-0.617-2.77,0.688-4.053,1.535c-0.814,0.539-1.014,1.027-2.068,0.563c-1.398-0.613-0.152-0.637-0.334-1.531   c-0.236-1.164,0.09-3.75-1.309-3.348c-0.824,0.238-0.816,1.355-0.699,1.313c-0.834,0.301-1.746-0.223-2.357-0.867   c-0.443,0.762-0.395,1.492-0.25,2.355c0.186,1.109-1.146,0.574-1.875,0.711c-1.279,0.238-0.992,2.773-1.988,1.77   c-0.715-0.723-2.637-0.313-2.871-1.266c-0.059-0.234-1.076-1.41-1.342-1.387c-2.189,0.191-2.516,2.691-4.623,2.754   c0.816-1.977-1.605-1.859-2.422-3.023c-1.047-1.492,0.152-3.551-0.49-4.879c-0.91-1.883-2.559,0.297-3.191-0.434   c-0.645-0.742,1.383-2.582,2.029-3.016c1.436-0.969-3.572-3-3.5-4.199c0.115-1.945-0.346-3.387-1.08-5.191   c-0.359-0.883-2.457-4.121-3.9-2.57c-0.324,0.348,0.842,2.191-0.234,2.258c-1.826,0.105-2.344,1.902-3.619,2.25   c-1.092,0.297-3.607-1.383-4.693-1.773c-1.834-0.664-2.541,2.184-3.652,2.641c-1.289,0.531-1.207,0.082-1.934-1.273   c-1.545-2.875-2.076-0.211-3.949,0.504c-1.328,0.508-2.242-1.582-2.219-2.336c0.02-0.621,0.789-1.121,0.863-1.594   c0.139-0.898-0.395-1.262-0.432-2.238c-0.031-0.809,0.941-2.762,0.432-3.414c-0.672-0.863-1.109-1.934-1.418-2.992   c-0.469-1.602-1.193-0.785-1.889-1.027c-0.395-0.137-0.205,0.941-0.807,0.25c-0.268-0.309-0.152-0.84-0.334-1.055   c-0.432-0.508-0.824-1.039-1.221-1.574c-0.719-0.977,0.48-1.219,0.512-1.887c0.045-0.953,0.051-1.879-0.156-2.84   c-0.371-1.723-0.855-2.004-1.691-3.48c-0.729-1.281,0.607-2.41-0.592-3.949c3.99,2.289,3.859-4.152,5.234-6.17   c0.883-1.295,2.424-2.625,3.6-1.334c0.467,0.512,3.484,4.143,4.037,4.133c1.217-0.021,1.953-2.488,3.578-2.836   c1.6-0.344,3.059,0.459,4.605,0.549c1.871,0.109,3.49-0.313,5.324-0.6c1.686-0.264,0.395-1.715,1.916-2.35   c-0.57,3.115,7.475,1.869,9.547,1.869c4.109,0,8.223-0.014,12.332,0.051c4.107,0.064,8.223,0.051,12.33,0.051   c2.791,0,2.396-0.457,2.98-3.133c0.523-2.391,1.557-4.195-0.102-6.121c-2.391-2.777-1.77-7.799-2.025-11.418   c-0.295-4.168-0.564-8.336-0.863-12.504c-0.598-8.32-1.09-16.648-1.617-24.973c-0.785-12.41-1.443-24.824-2.086-37.242   c4.213,0,8.426,0.027,12.637,0.061c1.844,0.014,3.369-0.307,4.898,0.766c1.793,1.258,3.551,2.563,5.313,3.861   c7.102,5.238,14.238,10.422,21.387,15.598c7.18,5.199,14.383,10.369,21.59,15.529c1.582,1.131,3.145,2.291,4.754,3.383   c0.516,0.352,0.422,1.275,0.371,1.83c-0.113,1.27,0.168,1.439,1.105,2.215c1.602,1.326,2.715,1.051,3.461,2.986   c0.797,2.066,3.652,1.023,5.156,1.717c1.152,0.533,1.328,1.885,2.641,2.199c1.438,0.344,2.895,0.555,4.297,1.029   c1.391,0.471,1.875,0.924,2.23,2.105c0.109,0.365,0.52,3.404,0.258,3.602c-1.906,1.447-1.137,3.369,1.086,3.734   C300.23,186.125,303.953,184.639,306.219,184.219z" />
	
		<text
   transform="matrix(1 0 0 1 92.8862 305.4492)"
   display="inline"
   fill="#FFFFFF"
   font-family="'DejaVuSansMono-Bold'"
   font-size="24"
   letter-spacing="1"
   id="text37">TRAINING MISSION</text>


	<g
   display="inline"
   id="g39">
		
			<text
   transform="matrix(1 0 0 1 174.4922 343)"
   fill="#FFCC00"
   font-family="'DejaVuSansMono-Bold'"
   font-size="36"
   letter-spacing="1"
   id="text41">MALI</text>


	</g>
	<path
   display="inline"
   fill="none"
   d="M65,220c0-85.604,69.396-155,155-155c85.605,0,155,69.396,155,155"
   id="path43" />
	<text
   transform="matrix(0.3885 -0.9215 0.9215 0.3885 102.3882 182.2476)"
   display="inline"
   id="text45"><tspan
     x="0"
     y="0"
     fill="#FFFFFF"
     font-family="'DejaVuSansMono-Bold'"
     font-size="36"
     id="tspan47">E</tspan><tspan
     x="22.071"
     y="0.039"
     fill="#FFFFFF"
     font-family="'DejaVuSansMono-Bold'"
     font-size="36"
     rotate="10.288"
     id="tspan49">U</tspan><tspan
     x="43.839"
     y="4.034"
     fill="#FFFFFF"
     font-family="'DejaVuSansMono-Bold'"
     font-size="36"
     rotate="20.517"
     id="tspan51">R</tspan><tspan
     x="64.54"
     y="11.822"
     fill="#FFFFFF"
     font-family="'DejaVuSansMono-Bold'"
     font-size="36"
     rotate="30.723"
     id="tspan53">O</tspan><tspan
     x="83.508"
     y="23.134"
     fill="#FFFFFF"
     font-family="'DejaVuSansMono-Bold'"
     font-size="36"
     rotate="40.987"
     id="tspan55">P</tspan><tspan
     x="100.129"
     y="37.619"
     fill="#FFFFFF"
     font-family="'DejaVuSansMono-Bold'"
     font-size="36"
     rotate="51.317"
     id="tspan57">E</tspan><tspan
     x="113.883"
     y="54.859"
     fill="#FFFFFF"
     font-family="'DejaVuSansMono-Bold'"
     font-size="36"
     rotate="61.612"
     id="tspan59">A</tspan><tspan
     x="124.386"
     y="74.391"
     fill="#FFFFFF"
     font-family="'DejaVuSansMono-Bold'"
     font-size="36"
     rotate="71.75"
     id="tspan61">N</tspan><tspan
     x="131.269"
     y="95.36"
     fill="#FFFFFF"
     font-family="'DejaVuSansMono-Bold'"
     font-size="36"
     rotate="82.036"
     id="tspan63"> </tspan><tspan
     x="134.288"
     y="117.184"
     fill="#FFFFFF"
     font-family="'DejaVuSansMono-Bold'"
     font-size="36"
     rotate="92.364"
     id="tspan65">U</tspan><tspan
     x="133.335"
     y="139.263"
     fill="#FFFFFF"
     font-family="'DejaVuSansMono-Bold'"
     font-size="36"
     rotate="102.643"
     id="tspan67">N</tspan><tspan
     x="128.453"
     y="160.836"
     fill="#FFFFFF"
     font-family="'DejaVuSansMono-Bold'"
     font-size="36"
     rotate="112.855"
     id="tspan69">I</tspan><tspan
     x="119.835"
     y="181.191"
     fill="#FFFFFF"
     font-family="'DejaVuSansMono-Bold'"
     font-size="36"
     rotate="123.065"
     id="tspan71">O</tspan><tspan
     x="107.762"
     y="199.675"
     fill="#FFFFFF"
     font-family="'DejaVuSansMono-Bold'"
     font-size="36"
     rotate="133.347"
     id="tspan73">N</tspan></text>


</g>
<g
   id="TT_1_">
	
	<g
   id="g77">
		
		
		
		
		
		
		
		
		
		
		
		
		
		
		
	</g>
	<g
   id="g109">
		<g
   id="g111">
			
			
			
			
		</g>
	</g>
	<g
   id="g121">
		
		
		
		
		
		
		
		
		
		
		
		
		
	</g>
</g>
<g
   id="g3880"
   transform="matrix(1.020893,0,0,1.020893,460.39273,-7.931255)"
   style="opacity:1;stroke:#000000;stroke-opacity:1;stroke-width:0.48976729;stroke-miterlimit:4;stroke-dasharray:none"><g
     id="text3846"
     style="font-size:72.86491393999999400px;font-style:normal;font-weight:normal;line-height:125%;letter-spacing:0px;word-spacing:0px;fill:#ffcc00;fill-opacity:1;stroke:#000000;font-family:Sans;stroke-opacity:1;stroke-width:0.48976729;stroke-miterlimit:4;stroke-dasharray:none"><path
       id="path3870"
       d="m -360.69632,238.50737 0,-52.15819 37.71328,0 0,6.1551 -30.81104,0 0,15.97478 28.85422,0 0,6.11951 -28.85422,0 0,17.75371 32.02071,0 0,6.15509 z"
       inkscape:connector-curvature="0"
       style="stroke:#000000;stroke-opacity:1;stroke-width:0.48976729;stroke-miterlimit:4;stroke-dasharray:none" /><path
       id="path3872"
       d="m -277.94057,186.34918 6.90225,0 0,30.13505 c -5e-5,5.24193 -0.59303,9.40462 -1.77893,12.48808 -1.186,3.08349 -3.32664,5.59177 -6.42193,7.52487 -3.09538,1.9331 -7.15726,2.89965 -12.18567,2.89965 -4.88614,0 -8.8828,-0.84202 -11.98997,-2.52607 -3.10721,-1.68405 -5.32494,-4.12118 -6.6532,-7.3114 -1.32827,-3.1902 -1.9924,-7.54857 -1.9924,-13.07513 l 0,-30.13505 6.90225,0 0,30.09948 c -2e-5,4.53035 0.421,7.8688 1.26304,10.01536 0.84201,2.14659 2.28887,3.80099 4.34058,4.96321 2.05168,1.16224 4.55997,1.74336 7.52487,1.74335 5.07584,1e-5 8.693,-1.15036 10.85146,-3.45112 2.1584,-2.30073 3.23761,-6.72433 3.23765,-13.2708 z"
       inkscape:connector-curvature="0"
       style="stroke:#000000;stroke-opacity:1;stroke-width:0.48976729;stroke-miterlimit:4;stroke-dasharray:none" /><path
       id="path3874"
       d="m -259.15508,238.50737 0,-52.15819 35.18721,0 0,6.1551 -28.28497,0 0,16.15267 24.47806,0 0,6.15509 -24.47806,0 0,23.69533 z"
       inkscape:connector-curvature="0"
       style="stroke:#000000;stroke-opacity:1;stroke-width:0.48976729;stroke-miterlimit:4;stroke-dasharray:none" /><path
       id="path3876"
       d="m -217.06563,213.10427 c 0,-8.65742 2.32446,-15.43513 6.9734,-20.33315 4.64892,-4.89794 10.64983,-7.34693 18.00276,-7.34698 4.81493,5e-5 9.15551,1.15043 13.02176,3.45112 3.86616,2.3008 6.81324,5.5088 8.84127,9.62401 2.02793,4.11529 3.04192,8.78201 3.04197,14.00016 -5e-5,5.28937 -1.06741,10.02132 -3.20207,14.19585 -2.13476,4.17456 -5.15894,7.33512 -9.07254,9.48169 -3.91368,2.14658 -8.13566,3.21986 -12.66597,3.21986 -4.90987,0 -9.29788,-1.18595 -13.16407,-3.55785 -3.86622,-2.3719 -6.79552,-5.60955 -8.78791,-9.71295 -1.9924,-4.10338 -2.9886,-8.44396 -2.9886,-13.02176 z m 7.11572,0.10674 c -1e-5,6.28556 1.68997,11.23691 5.06994,14.85405 3.37995,3.61716 7.61972,5.42574 12.71934,5.42573 5.19444,1e-5 9.46979,-1.82636 12.82608,-5.4791 3.3562,-3.65272 5.03432,-8.83532 5.03437,-15.54783 -5e-5,-4.24568 -0.71755,-7.95178 -2.15251,-11.11831 -1.43504,-3.16645 -3.53418,-5.62137 -6.29741,-7.36476 -2.7633,-1.74331 -5.86456,-2.61498 -9.30379,-2.61503 -4.88615,5e-5 -9.09035,1.67817 -12.61261,5.03437 -3.52229,3.35628 -5.28342,8.9599 -5.28341,16.81088 z"
       inkscape:connector-curvature="0"
       style="stroke:#000000;stroke-opacity:1;stroke-width:0.48976729;stroke-miterlimit:4;stroke-dasharray:none" /><path
       id="path3878"
       d="m -158.21867,238.50737 0,-52.15819 23.12607,0 c 4.6489,6e-5 8.18303,0.46851 10.60241,1.40536 2.4193,0.93695 4.3524,2.59135 5.79931,4.96321 1.44681,2.37195 2.17024,4.9929 2.17029,7.86286 -5e-5,3.70021 -1.19786,6.81926 -3.59343,9.35717 -2.39567,2.53796 -6.09584,4.15086 -11.10052,4.83868 1.82633,0.87763 3.2139,1.74337 4.1627,2.59724 2.01608,1.8501 3.92546,4.16271 5.72815,6.93782 l 9.07253,14.19585 -8.68117,0 -6.90224,-10.85146 c -2.01616,-3.1309 -3.67649,-5.52653 -4.981,-7.18688 -1.30458,-1.66031 -2.47274,-2.82254 -3.50449,-3.4867 -1.03181,-0.66411 -2.08137,-1.12663 -3.14871,-1.38756 -0.78275,-0.16601 -2.06358,-0.24903 -3.84248,-0.24905 l -8.00518,0 0,23.16165 z m 6.90224,-29.13885 14.83626,0 c 3.15461,3e-5 5.62139,-0.32611 7.40035,-0.97841 1.77889,-0.65224 3.13087,-1.69588 4.05595,-3.13091 0.92501,-1.43497 1.38753,-2.9945 1.38757,-4.67859 -4e-5,-2.46674 -0.89544,-4.49471 -2.68618,-6.08393 -1.79083,-1.58913 -4.61932,-2.38372 -8.48549,-2.38377 l -16.50846,0 z"
       inkscape:connector-curvature="0"
       style="stroke:#000000;stroke-opacity:1;stroke-width:0.48976729;stroke-miterlimit:4;stroke-dasharray:none" /></g><g
     id="text3850"
     style="font-size:40.36609649999999800px;font-style:normal;font-weight:normal;line-height:125%;letter-spacing:0px;word-spacing:0px;fill:#ffcc00;fill-opacity:1;stroke:#000000;font-family:Sans;stroke-opacity:1;stroke-width:0.48976728;stroke-miterlimit:4;stroke-dasharray:none"
     transform="scale(1.0091525,0.99093055)"><path
       id="path3855"
       d="m -315.64023,285.70938 0,-28.89487 12.81151,0 c 2.57542,3e-5 4.53328,0.25954 5.87358,0.77854 1.34026,0.51906 2.41117,1.43558 3.21273,2.74955 0.80152,1.31403 1.20229,2.76599 1.20231,4.35591 -2e-5,2.04986 -0.66359,3.77777 -1.99071,5.18373 -1.32716,1.406 -3.377,2.29952 -6.14952,2.68057 1.01176,0.48619 1.78045,0.9658 2.30607,1.43883 1.11688,1.02493 2.17465,2.30608 3.17331,3.84345 l 5.02605,7.86429 -4.80924,0 -3.82374,-6.01155 c -1.11692,-1.73447 -2.03672,-3.06161 -2.7594,-3.98142 -0.72272,-0.91979 -1.36986,-1.56365 -1.94144,-1.93158 -0.5716,-0.36791 -1.15305,-0.62414 -1.74433,-0.76869 -0.43364,-0.092 -1.14319,-0.13796 -2.12868,-0.13797 l -4.43475,0 0,12.83121 z m 3.82375,-16.1425 8.21907,0 c 1.7476,2e-5 3.11416,-0.18065 4.09968,-0.54202 0.98548,-0.36133 1.73446,-0.93949 2.24694,-1.73448 0.51244,-0.79495 0.76867,-1.65891 0.76869,-2.59187 -2e-5,-1.36654 -0.49606,-2.49 -1.4881,-3.37041 -0.99209,-0.88035 -2.55904,-1.32054 -4.70084,-1.32057 l -9.14544,0 z"
       inkscape:connector-curvature="0"
       style="stroke:#000000;stroke-opacity:1;stroke-width:0.48976728;stroke-miterlimit:4;stroke-dasharray:none" /><path
       id="path3857"
       d="m -286.52854,285.70938 0,-28.89487 9.95355,0 c 2.24693,3e-5 3.96169,0.138 5.14431,0.41391 1.65562,0.38109 3.06817,1.07094 4.23765,2.06955 1.52422,1.28775 2.66412,2.93353 3.41969,4.93736 0.75552,2.00387 1.1333,4.29351 1.13333,6.86894 -3e-5,2.19439 -0.25626,4.13911 -0.76869,5.83416 -0.51249,1.69507 -1.16949,3.09776 -1.97101,4.20808 -0.80156,1.11034 -1.67865,1.98415 -2.63128,2.62144 -0.95267,0.63729 -2.10242,1.12018 -3.44925,1.44868 -1.34687,0.3285 -2.8941,0.49275 -4.64171,0.49275 z m 3.82374,-3.40983 6.16923,0 c 1.90529,0 3.39996,-0.17739 4.48403,-0.53217 1.08403,-0.35478 1.94798,-0.8541 2.59186,-1.49796 0.90664,-0.90666 1.61292,-2.12539 2.11883,-3.65621 0.50587,-1.5308 0.75881,-3.38682 0.75883,-5.56807 -2e-5,-3.02219 -0.49605,-5.34468 -1.4881,-6.96749 -0.99209,-1.62277 -2.19769,-2.7101 -3.61679,-3.26201 -1.02494,-0.39417 -2.674,-0.59127 -4.94721,-0.5913 l -6.07068,0 z"
       inkscape:connector-curvature="0"
       style="stroke:#000000;stroke-opacity:1;stroke-width:0.48976728;stroke-miterlimit:4;stroke-dasharray:none" /><path
       id="path3859"
       d="m -225.54578,275.57844 3.82374,0.96579 c -0.80156,3.14046 -2.24368,5.53523 -4.32634,7.1843 -2.08271,1.64907 -4.62859,2.4736 -7.63763,2.4736 -3.11419,0 -5.64693,-0.634 -7.59821,-1.90201 -1.9513,-1.26801 -3.43611,-3.10433 -4.45446,-5.50895 -1.01835,-2.40461 -1.52753,-4.98662 -1.52753,-7.74603 0,-3.00905 0.57488,-5.63376 1.72463,-7.87415 1.14975,-2.24035 2.78567,-3.94198 4.90779,-5.1049 2.1221,-1.16286 4.45774,-1.7443 7.00691,-1.74433 2.89078,3e-5 5.32168,0.73587 7.2927,2.20752 1.97098,1.47171 3.34411,3.54126 4.11939,6.20865 l -3.76461,0.88695 c -0.67016,-2.10238 -1.64252,-3.63318 -2.91708,-4.59243 -1.2746,-0.95919 -2.87768,-1.4388 -4.80924,-1.43883 -2.22067,3e-5 -4.0767,0.5322 -5.56808,1.59651 -1.4914,1.06436 -2.53931,2.49334 -3.14374,4.28693 -0.60445,1.79363 -0.90667,3.64308 -0.90666,5.54837 -1e-5,2.45719 0.35805,4.60229 1.07419,6.43531 0.71612,1.83304 1.82974,3.20288 3.34085,4.10954 1.51109,0.90666 3.14702,1.35999 4.90779,1.35999 2.1418,0 3.95512,-0.61758 5.43996,-1.85274 1.4848,-1.23516 2.49001,-3.06818 3.01563,-5.49909 z"
       inkscape:connector-curvature="0"
       style="stroke:#000000;stroke-opacity:1;stroke-width:0.48976728;stroke-miterlimit:4;stroke-dasharray:none" /><path
       id="path3861"
       d="m -218.15452,271.63644 c 0,-4.79609 1.28772,-8.55084 3.86316,-11.26427 2.57543,-2.71339 5.89985,-4.07009 9.97326,-4.07012 2.66741,3e-5 5.07203,0.63732 7.21387,1.91187 2.14179,1.27461 3.77444,3.05179 4.89793,5.33156 1.12345,2.27981 1.68518,4.8651 1.68521,7.75589 -3e-5,2.93023 -0.59133,5.55166 -1.7739,7.86429 -1.18263,2.31264 -2.85798,4.06355 -5.02605,5.25272 -2.16812,1.18917 -4.50704,1.78375 -7.01677,1.78375 -2.71999,0 -5.15089,-0.657 -7.2927,-1.971 -2.14183,-1.314 -3.76461,-3.10761 -4.86837,-5.38083 -1.10376,-2.27321 -1.65564,-4.67783 -1.65564,-7.21386 z m 3.942,0.0591 c -10e-6,3.48211 0.93622,6.22508 2.80868,8.22892 1.87244,2.00386 4.22121,3.00578 7.04632,3.00578 2.87765,0 5.24613,-1.01178 7.10546,-3.03534 1.85929,-2.02355 2.78894,-4.89464 2.78897,-8.61327 -3e-5,-2.35205 -0.39751,-4.40517 -1.19246,-6.15938 -0.79499,-1.75417 -1.95788,-3.11416 -3.48867,-4.07997 -1.53083,-0.96577 -3.24888,-1.44866 -5.15417,-1.44869 -2.70685,3e-5 -5.03591,0.92968 -6.98719,2.78897 -1.9513,1.85933 -2.92695,4.96365 -2.92694,9.31298 z"
       inkscape:connector-curvature="0"
       style="stroke:#000000;stroke-opacity:1;stroke-width:0.48976728;stroke-miterlimit:4;stroke-dasharray:none" /><path
       id="path3863"
       d="m -185.65272,285.70938 0,-28.89487 3.92229,0 15.17671,22.68622 0,-22.68622 3.66606,0 0,28.89487 -3.92229,0 -15.17671,-22.70593 0,22.70593 z"
       inkscape:connector-curvature="0"
       style="stroke:#000000;stroke-opacity:1;stroke-width:0.48976728;stroke-miterlimit:4;stroke-dasharray:none" /><path
       id="path3865"
       d="m -142.92142,274.37613 0,-3.39012 12.23991,-0.0197 0,10.72224 c -1.87905,1.49796 -3.8172,2.62472 -5.81445,3.38027 -1.9973,0.75555 -4.04714,1.13332 -6.14952,1.13332 -2.83826,0 -5.41698,-0.60772 -7.73618,-1.82317 -2.31922,-1.21545 -4.07012,-2.97293 -5.25272,-5.27243 -1.1826,-2.29949 -1.7739,-4.86836 -1.7739,-7.70661 0,-2.81195 0.58801,-5.43666 1.76405,-7.87415 1.17602,-2.43745 2.86779,-4.24748 5.07532,-5.43011 2.20751,-1.18257 4.7501,-1.77387 7.62778,-1.7739 2.08924,3e-5 3.97811,0.33838 5.66662,1.01506 1.68847,0.67674 3.01232,1.61954 3.97157,2.82839 0.95919,1.20891 1.68846,2.7857 2.18781,4.7304 l -3.44925,0.94608 c -0.43365,-1.47166 -0.97239,-2.62798 -1.61622,-3.46896 -0.64388,-0.84093 -1.56368,-1.51436 -2.7594,-2.02027 -1.19576,-0.50587 -2.5229,-0.75881 -3.98142,-0.75884 -1.74764,3e-5 -3.25874,0.26611 -4.53331,0.79826 -1.27459,0.53219 -2.30279,1.2319 -3.08461,2.09911 -0.78184,0.86726 -1.38957,1.81991 -1.82318,2.85795 -0.73584,1.78706 -1.10376,3.72521 -1.10376,5.81446 0,2.57545 0.44347,4.73041 1.33043,6.46488 0.88694,1.73448 2.17794,3.0222 3.87301,3.86316 1.69505,0.84096 3.49523,1.26144 5.40055,1.26144 1.65562,0 3.27184,-0.31864 4.84866,-0.95594 1.57678,-0.63728 2.77251,-1.31728 3.58722,-2.03998 l 0,-5.38083 z"
       inkscape:connector-curvature="0"
       style="stroke:#000000;stroke-opacity:1;stroke-width:0.48976728;stroke-miterlimit:4;stroke-dasharray:none" /><path
       id="path3867"
       d="m -126.22705,271.63644 c -10e-6,-4.79609 1.28771,-8.55084 3.86316,-11.26427 2.57543,-2.71339 5.89985,-4.07009 9.97326,-4.07012 2.6674,3e-5 5.07202,0.63732 7.21386,1.91187 2.1418,1.27461 3.77444,3.05179 4.89794,5.33156 1.123443,2.27981 1.685178,4.8651 1.685207,7.75589 -2.9e-5,2.93023 -0.591329,5.55166 -1.773897,7.86429 -1.18263,2.31264 -2.85798,4.06355 -5.02606,5.25272 -2.16812,1.18917 -4.50704,1.78375 -7.01676,1.78375 -2.71999,0 -5.15089,-0.657 -7.2927,-1.971 -2.14183,-1.314 -3.76462,-3.10761 -4.86837,-5.38083 -1.10377,-2.27321 -1.65565,-4.67783 -1.65564,-7.21386 z m 3.942,0.0591 c -1e-5,3.48211 0.93622,6.22508 2.80867,8.22892 1.87244,2.00386 4.22122,3.00578 7.04633,3.00578 2.87764,0 5.24613,-1.01178 7.10546,-3.03534 1.85929,-2.02355 2.78894,-4.89464 2.78897,-8.61327 -3e-5,-2.35205 -0.39751,-4.40517 -1.19246,-6.15938 -0.79499,-1.75417 -1.95788,-3.11416 -3.48867,-4.07997 -1.53083,-0.96577 -3.24889,-1.44866 -5.15417,-1.44869 -2.70685,3e-5 -5.03592,0.92968 -6.9872,2.78897 -1.95129,1.85933 -2.92694,4.96365 -2.92693,9.31298 z"
       inkscape:connector-curvature="0"
       style="stroke:#000000;stroke-opacity:1;stroke-width:0.48976728;stroke-miterlimit:4;stroke-dasharray:none" /></g></g><polygon
   id="polygon3069"
   points="245.586,26.68 229.773,38.17 235.813,56.762 220,45.27 204.184,56.762 210.225,38.17 194.41,26.68 213.959,26.68 220,8.088 226.039,26.68 "
   transform="matrix(1.4955415,0,0,1.4955415,-196.95874,100.88618)"
   style="fill:#ffcc00;stroke:#000000;stroke-width:0.33432707;stroke-miterlimit:4;stroke-opacity:1;stroke-dasharray:none" /></svg>