<?xml version="1.0" encoding="UTF-8"?>
<!-- Generator: Adobe Illustrator 25.2.1, SVG Export Plug-In . SVG Version: 6.00 Build 0)  -->
<svg version="1.1" id="Ebene_1" xmlns="http://www.w3.org/2000/svg" xmlns:xlink="http://www.w3.org/1999/xlink" x="0px" y="0px" viewBox="0 0 425 352" style="enable-background:new 0 0 425 352;" xml:space="preserve">
<style type="text/css">
	.st0{fill:none;stroke:#C3D0D6;stroke-width:0.75;stroke-miterlimit:10;}
	.st1{fill:none;stroke:#C3D0D6;stroke-width:0.8151;stroke-miterlimit:10;}
	.st2{fill:none;stroke:#C3D0D6;stroke-width:0.8144;stroke-miterlimit:10;}
	.st3{fill:#0D3249;}
	.st4{fill:#F8B70C;}
	.st5{fill:#0E3349;}
	.st6{fill:none;}
	.st7{enable-background:new    ;}
	.st8{fill:none;stroke:#9EB1BB;stroke-width:1.2499;stroke-miterlimit:10;}
	.st9{fill:#FFFFFF;}
	.st10{fill:none;stroke:#9EB1BB;stroke-width:1.3;stroke-miterlimit:10;}
</style>
<line class="st0" x1="139.8" y1="294.8" x2="139.8" y2="63.6"/>
<line class="st0" x1="185.5" y1="294.8" x2="185.5" y2="63.6"/>
<line class="st0" x1="94" y1="294.8" x2="94" y2="63.6"/>
<line class="st0" x1="231.3" y1="294.8" x2="231.3" y2="63.5"/>
<line class="st0" x1="277" y1="294.8" x2="277" y2="63.5"/>
<line class="st0" x1="322.8" y1="294.8" x2="322.8" y2="63.5"/>
<line class="st0" x1="368.5" y1="294.8" x2="368.5" y2="63.5"/>
<line class="st1" x1="47.3" y1="248.6" x2="414.1" y2="248.6"/>
<line class="st1" x1="47.3" y1="202.2" x2="414.1" y2="202.2"/>
<line class="st1" x1="47.3" y1="155.9" x2="414.1" y2="155.9"/>
<line class="st1" x1="47.3" y1="109.5" x2="414.1" y2="109.5"/>
<line class="st2" x1="47.9" y1="63.2" x2="414.1" y2="63.2"/>
<g>
	<g>
		<path class="st3" d="M4.4,15.4H1.7V4h2.7V15.4z"/>
		<path class="st3" d="M8.6,6.9l0.1,1c0.6-0.8,1.4-1.1,2.4-1.1c0.9,0,1.5,0.3,2,0.8c0.4,0.5,0.7,1.3,0.7,2.4v5.4h-2.6V10    c0-0.4-0.1-0.7-0.3-0.9S10.4,8.8,10,8.8C9.4,8.8,9.1,9,8.8,9.4v6H6.2V6.9H8.6z"/>
		<path class="st3" d="M18.8,13.5c0.4,0,0.7-0.1,0.9-0.3c0.2-0.2,0.3-0.5,0.3-0.8h2.5c0,0.9-0.3,1.7-1,2.3s-1.5,0.9-2.6,0.9    c-1.2,0-2.2-0.4-2.9-1.2c-0.7-0.8-1.1-1.8-1.1-3.2v-0.1c0-0.9,0.2-1.6,0.5-2.3s0.8-1.2,1.4-1.5s1.3-0.5,2.1-0.5    c1.1,0,2,0.3,2.6,0.9s1,1.4,1,2.5H20c0-0.4-0.1-0.8-0.3-1c-0.2-0.2-0.5-0.4-0.9-0.4c-0.7,0-1.1,0.4-1.2,1.3c0,0.3-0.1,0.7-0.1,1.1    c0,0.8,0.1,1.4,0.3,1.8S18.4,13.5,18.8,13.5z"/>
		<path class="st3" d="M28.7,9.3l-0.9-0.1c-0.8,0-1.4,0.3-1.6,0.8v5.4h-2.6V6.9H26L26.1,8c0.4-0.8,1.1-1.2,1.9-1.2    c0.3,0,0.5,0,0.7,0.1V9.3z"/>
		<path class="st3" d="M33.7,15.5c-1.3,0-2.3-0.4-3.1-1.2c-0.8-0.8-1.2-1.8-1.2-3v-0.2c0-0.9,0.2-1.6,0.5-2.3s0.8-1.2,1.4-1.5    c0.6-0.4,1.3-0.5,2.2-0.5c1.2,0,2.1,0.4,2.8,1.1s1,1.8,1,3.1v1H32c0.1,0.5,0.3,0.8,0.6,1.1s0.7,0.4,1.2,0.4c0.8,0,1.5-0.3,2-0.9    L37,14c-0.3,0.5-0.8,0.8-1.4,1.1C35,15.4,34.4,15.5,33.7,15.5z M33.4,8.8c-0.8,0-1.2,0.5-1.4,1.5h2.7v-0.2c0-0.4-0.1-0.7-0.3-1    C34.1,8.9,33.8,8.8,33.4,8.8z"/>
		<path class="st3" d="M43.1,15.4c-0.1-0.2-0.2-0.4-0.2-0.8c-0.5,0.6-1.2,0.9-2,0.9s-1.5-0.2-2-0.7c-0.6-0.5-0.8-1.1-0.8-1.8    c0-0.9,0.3-1.6,1-2.1c0.7-0.5,1.7-0.7,3-0.7h0.8V9.8c0-0.8-0.3-1.2-1-1.2c-0.6,0-0.9,0.3-0.9,0.9h-2.6c0-0.8,0.3-1.5,1-2    s1.6-0.8,2.7-0.8S44,7,44.7,7.5c0.6,0.5,0.9,1.2,1,2.2v3.7c0,0.8,0.1,1.4,0.4,1.8v0.1L43.1,15.4L43.1,15.4z M41.4,13.7    c0.3,0,0.6-0.1,0.8-0.2c0.2-0.1,0.4-0.3,0.5-0.5v-1.4H42c-0.9,0-1.4,0.4-1.4,1.2c0,0.2,0.1,0.4,0.2,0.6    C41,13.6,41.2,13.7,41.4,13.7z"/>
		<path class="st3" d="M51.2,13c0-0.2-0.1-0.4-0.4-0.5c-0.2-0.1-0.7-0.3-1.3-0.4c-0.7-0.1-1.2-0.3-1.6-0.6c-0.4-0.2-0.8-0.5-1-0.9    c-0.2-0.3-0.3-0.7-0.3-1.2c0-0.8,0.3-1.4,1-1.9c0.6-0.5,1.5-0.8,2.5-0.8c1.1,0,2,0.3,2.7,0.8s1,1.2,1,2h-2.6c0-0.7-0.4-1-1.1-1    c-0.3,0-0.5,0.1-0.7,0.2c-0.2,0.2-0.3,0.3-0.3,0.6c0,0.2,0.1,0.4,0.3,0.6c0.2,0.1,0.6,0.3,1.1,0.4c0.5,0.1,0.9,0.2,1.3,0.3    c1.3,0.4,1.9,1.2,1.9,2.4c0,0.8-0.3,1.4-1,1.9s-1.6,0.7-2.7,0.7c-0.7,0-1.4-0.1-1.9-0.4c-0.6-0.3-1-0.6-1.3-1.1    c-0.3-0.4-0.5-0.9-0.5-1.4h2.5c0,0.4,0.1,0.7,0.4,0.9s0.6,0.3,1,0.3s0.6-0.1,0.8-0.2C51.2,13.4,51.2,13.2,51.2,13z"/>
		<path class="st3" d="M59.1,15.5c-1.3,0-2.3-0.4-3.1-1.2s-1.2-1.8-1.2-3v-0.2c0-0.9,0.2-1.6,0.5-2.3s0.8-1.2,1.4-1.5    c0.6-0.4,1.3-0.5,2.2-0.5c1.2,0,2.1,0.4,2.8,1.1s1,1.8,1,3.1v1h-5.2c0.1,0.5,0.3,0.8,0.6,1.1s0.7,0.4,1.2,0.4c0.8,0,1.5-0.3,2-0.9    l1.2,1.4c-0.3,0.5-0.8,0.8-1.4,1.1C60.4,15.4,59.8,15.5,59.1,15.5z M58.8,8.8c-0.8,0-1.2,0.5-1.4,1.5h2.7v-0.2    c0-0.4-0.1-0.7-0.3-1C59.5,8.9,59.2,8.8,58.8,8.8z"/>
		<path class="st3" d="M63.4,11.1c0-1.3,0.3-2.4,0.9-3.2c0.6-0.8,1.4-1.2,2.4-1.2c0.8,0,1.4,0.3,1.9,0.9V3.4h2.6v12h-2.4l-0.1-0.9    c-0.5,0.7-1.2,1.1-2.1,1.1c-1,0-1.8-0.4-2.4-1.2C63.7,13.6,63.4,12.5,63.4,11.1z M66,11.2c0,1.5,0.4,2.2,1.3,2.2    c0.6,0,1-0.2,1.2-0.7V9.5c-0.2-0.5-0.7-0.8-1.2-0.8c-0.8,0-1.3,0.7-1.3,2V11.2z"/>
		<path class="st3" d="M86,11.5c0,0.8-0.2,1.5-0.6,2.1s-0.9,1.1-1.6,1.4c-0.7,0.3-1.5,0.5-2.4,0.5c-1.5,0-2.7-0.5-3.5-1.5    c-0.9-1-1.3-2.3-1.3-4.1V9.4c0-1.1,0.2-2.1,0.6-2.9c0.3-0.9,0.8-1.5,1.6-2c0.7-0.5,1.6-0.7,2.5-0.7c1.4,0,2.5,0.4,3.3,1.1    s1.3,1.7,1.4,3h-2.7c0-0.7-0.2-1.2-0.5-1.5C82.5,6.1,82,6,81.3,6s-1.2,0.3-1.5,0.8s-0.5,1.3-0.5,2.4V10c0,1.2,0.2,2.1,0.5,2.6    s0.8,0.8,1.6,0.8c0.6,0,1.1-0.1,1.4-0.4c0.3-0.3,0.5-0.8,0.5-1.4H86V11.5z"/>
		<path class="st3" d="M92,15.4c-0.1-0.2-0.2-0.4-0.2-0.8c-0.5,0.6-1.2,0.9-2,0.9s-1.5-0.2-2-0.7C87.2,14.3,87,13.7,87,13    c0-0.9,0.3-1.6,1-2.1c0.7-0.5,1.7-0.7,3-0.7h0.8V9.8c0-0.8-0.3-1.2-1-1.2c-0.6,0-0.9,0.3-0.9,0.9H87c0-0.8,0.3-1.5,1-2    s1.6-0.8,2.7-0.8s1.9,0.3,2.6,0.8c0.6,0.5,0.9,1.2,1,2.2v3.7c0,0.8,0.1,1.4,0.4,1.8v0.1L92,15.4L92,15.4z M90.3,13.7    c0.3,0,0.6-0.1,0.8-0.2c0.2-0.1,0.4-0.3,0.5-0.5v-1.4h-0.8c-0.9,0-1.4,0.4-1.4,1.2c0,0.2,0.1,0.4,0.2,0.6    C89.9,13.6,90.1,13.7,90.3,13.7z"/>
		<path class="st3" d="M98.1,6.9l0.1,1c0.6-0.8,1.4-1.1,2.4-1.1c0.9,0,1.5,0.3,2,0.8c0.4,0.5,0.7,1.3,0.7,2.4v5.4h-2.6V10    c0-0.4-0.1-0.7-0.3-0.9c-0.2-0.2-0.5-0.3-0.9-0.3c-0.5,0-0.9,0.2-1.1,0.6v6h-2.6V6.9H98.1z"/>
		<path class="st3" d="M108.3,13.5c0.4,0,0.7-0.1,0.9-0.3c0.2-0.2,0.3-0.5,0.3-0.8h2.5c0,0.9-0.3,1.7-1,2.3s-1.5,0.9-2.6,0.9    c-1.2,0-2.2-0.4-2.9-1.2c-0.7-0.8-1.1-1.8-1.1-3.2v-0.1c0-0.9,0.2-1.6,0.5-2.3s0.8-1.2,1.4-1.5s1.3-0.5,2.1-0.5    c1.1,0,2,0.3,2.6,0.9s1,1.4,1,2.5h-2.5c0-0.4-0.1-0.8-0.3-1c-0.2-0.2-0.5-0.4-0.9-0.4c-0.7,0-1.1,0.4-1.2,1.3    c0,0.3-0.1,0.7-0.1,1.1c0,0.8,0.1,1.4,0.3,1.8S107.9,13.5,108.3,13.5z"/>
		<path class="st3" d="M117.1,15.5c-1.3,0-2.3-0.4-3.1-1.2c-0.8-0.8-1.2-1.8-1.2-3v-0.2c0-0.9,0.2-1.6,0.5-2.3s0.8-1.2,1.4-1.5    c0.6-0.4,1.3-0.5,2.2-0.5c1.2,0,2.1,0.4,2.8,1.1c0.7,0.7,1,1.8,1,3.1v1h-5.2c0.1,0.5,0.3,0.8,0.6,1.1c0.3,0.3,0.7,0.4,1.2,0.4    c0.8,0,1.5-0.3,2-0.9l1.2,1.4c-0.3,0.5-0.8,0.8-1.4,1.1C118.5,15.4,117.8,15.5,117.1,15.5z M116.8,8.8c-0.8,0-1.2,0.5-1.4,1.5h2.7    v-0.2c0-0.4-0.1-0.7-0.3-1C117.6,8.9,117.3,8.8,116.8,8.8z"/>
		<path class="st3" d="M126.9,9.3L126,9.2c-0.8,0-1.4,0.3-1.6,0.8v5.4h-2.6V6.9h2.5l0.1,1.1c0.4-0.8,1.1-1.2,1.9-1.2    c0.3,0,0.5,0,0.7,0.1L126.9,9.3z"/>
		<path class="st3" d="M136.1,11.3h-1.5v4h-2.7V4h4.5c1.3,0,2.4,0.3,3.2,0.9s1.1,1.4,1.1,2.5c0,0.8-0.2,1.4-0.5,2    c-0.3,0.5-0.8,0.9-1.5,1.3l2.4,4.6v0.1h-2.9L136.1,11.3z M134.7,9.2h1.7c0.5,0,0.9-0.1,1.2-0.4c0.3-0.3,0.4-0.7,0.4-1.1    c0-0.5-0.1-0.9-0.4-1.2s-0.7-0.4-1.2-0.4h-1.7V9.2z"/>
		<path class="st3" d="M142.2,4.7c0-0.4,0.1-0.7,0.4-0.9c0.3-0.2,0.6-0.4,1.1-0.4c0.4,0,0.8,0.1,1.1,0.4c0.3,0.2,0.4,0.5,0.4,0.9    s-0.1,0.7-0.4,0.9c-0.3,0.2-0.6,0.4-1.1,0.4c-0.4,0-0.8-0.1-1.1-0.4C142.4,5.4,142.2,5.1,142.2,4.7z M145,15.4h-2.6V6.9h2.6V15.4z    "/>
		<path class="st3" d="M151.1,13c0-0.2-0.1-0.4-0.4-0.5c-0.2-0.1-0.7-0.3-1.3-0.4c-0.7-0.1-1.2-0.3-1.6-0.6c-0.4-0.2-0.8-0.5-1-0.9    c-0.2-0.3-0.3-0.7-0.3-1.2c0-0.8,0.3-1.4,1-1.9c0.6-0.5,1.5-0.8,2.5-0.8c1.1,0,2,0.3,2.7,0.8s1,1.2,1,2H151c0-0.7-0.4-1-1.1-1    c-0.3,0-0.5,0.1-0.7,0.2c-0.2,0.2-0.3,0.3-0.3,0.6c0,0.2,0.1,0.4,0.3,0.6c0.2,0.1,0.6,0.3,1.1,0.4c0.5,0.1,0.9,0.2,1.3,0.3    c1.3,0.4,1.9,1.2,1.9,2.4c0,0.8-0.3,1.4-1,1.9s-1.6,0.7-2.7,0.7c-0.7,0-1.4-0.1-1.9-0.4c-0.6-0.3-1-0.6-1.3-1.1    c-0.3-0.4-0.5-0.9-0.5-1.4h2.5c0,0.4,0.1,0.7,0.4,0.9s0.6,0.3,1,0.3s0.6-0.1,0.8-0.2C151,13.4,151.1,13.2,151.1,13z"/>
		<path class="st3" d="M158.2,12.2l-0.7,0.7v2.4h-2.6v-12h2.6v6.4l0.3-0.4l2-2.5h3.2l-3,3.5l3.2,5h-3L158.2,12.2z"/>
		<path class="st3" d="M175.4,11.2c0,1.4-0.3,2.5-0.9,3.2c-0.6,0.7-1.4,1.1-2.4,1.1c-0.9,0-1.6-0.3-2.1-1l-0.1,0.9h-2.4v-12h2.6v4.2    c0.5-0.6,1.1-0.8,1.9-0.8c1.1,0,1.9,0.4,2.4,1.1c0.6,0.8,0.9,1.8,0.9,3.2v0.1H175.4z M172.8,11c0-0.8-0.1-1.4-0.3-1.7    s-0.5-0.5-1-0.5c-0.6,0-1,0.2-1.2,0.7v3.4c0.2,0.4,0.6,0.7,1.2,0.7c0.6,0,1-0.3,1.2-0.9C172.7,12.3,172.8,11.8,172.8,11z"/>
		<path class="st3" d="M180,11.7l1.4-4.8h2.8l-3.4,9.9l-0.1,0.4c-0.5,1.1-1.4,1.6-2.6,1.6c-0.3,0-0.7-0.1-1.1-0.2v-1.9h0.3    c0.4,0,0.7-0.1,0.8-0.2s0.3-0.3,0.4-0.6l0.2-0.6l-2.9-8.5h2.8L180,11.7z"/>
		<path class="st3" d="M195.4,13.2h-3.8l-0.7,2.1H188L192.3,4h2.6l4.2,11.4h-2.9L195.4,13.2z M192.3,11.1h2.4l-1.2-3.9L192.3,11.1z"/>
		<path class="st3" d="M199.4,11.1c0-0.9,0.1-1.6,0.4-2.3s0.7-1.2,1.2-1.5c0.5-0.4,1.1-0.5,1.8-0.5c0.9,0,1.6,0.3,2.1,0.9L205,7h2.4    v8.1c0,0.7-0.2,1.4-0.5,1.9s-0.8,1-1.5,1.3s-1.4,0.4-2.3,0.4c-0.6,0-1.2-0.1-1.8-0.4s-1-0.5-1.3-0.9l1.1-1.5    c0.5,0.6,1.1,0.9,1.9,0.9c1.2,0,1.8-0.6,1.8-1.8v-0.3c-0.5,0.6-1.1,0.8-1.9,0.8c-1,0-1.9-0.4-2.5-1.2S199.4,12.5,199.4,11.1    L199.4,11.1z M202.1,11.2c0,0.7,0.1,1.2,0.4,1.6c0.3,0.4,0.6,0.6,1.1,0.6c0.6,0,1-0.2,1.2-0.6V9.4c-0.3-0.4-0.7-0.6-1.2-0.6    s-0.8,0.2-1.1,0.6S202.1,10.5,202.1,11.2z"/>
		<path class="st3" d="M213,15.5c-1.3,0-2.3-0.4-3.1-1.2s-1.2-1.8-1.2-3v-0.2c0-0.9,0.2-1.6,0.5-2.3s0.8-1.2,1.4-1.5    c0.6-0.4,1.3-0.5,2.2-0.5c1.2,0,2.1,0.4,2.8,1.1s1,1.8,1,3.1v1h-5.2c0.1,0.5,0.3,0.8,0.6,1.1s0.7,0.4,1.2,0.4c0.8,0,1.5-0.3,2-0.9    l1.2,1.4c-0.3,0.5-0.8,0.8-1.4,1.1C214.4,15.4,213.7,15.5,213,15.5z M212.7,8.8c-0.8,0-1.2,0.5-1.4,1.5h2.7v-0.2    c0-0.4-0.1-0.7-0.3-1C213.5,8.9,213.2,8.8,212.7,8.8z"/>
		<path class="st3" d="M226.4,15.4c-0.1-0.2-0.2-0.4-0.2-0.8c-0.5,0.6-1.2,0.9-2,0.9s-1.5-0.2-2-0.7c-0.6-0.5-0.8-1.1-0.8-1.8    c0-0.9,0.3-1.6,1-2.1s1.7-0.7,3-0.7h0.8V9.8c0-0.8-0.3-1.2-1-1.2c-0.6,0-0.9,0.3-0.9,0.9h-2.6c0-0.8,0.3-1.5,1-2s1.6-0.8,2.7-0.8    s1.9,0.3,2.6,0.8c0.6,0.5,0.9,1.2,1,2.2v3.7c0,0.8,0.1,1.4,0.4,1.8v0.1L226.4,15.4L226.4,15.4z M224.8,13.7c0.3,0,0.6-0.1,0.8-0.2    s0.4-0.3,0.5-0.5v-1.4h-0.8c-0.9,0-1.4,0.4-1.4,1.2c0,0.2,0.1,0.4,0.2,0.6S224.5,13.7,224.8,13.7z"/>
		<path class="st3" d="M233.2,4.8v2.1h1.4v1.8h-1.4v3.9c0,0.3,0.1,0.5,0.2,0.7s0.3,0.2,0.7,0.2c0.3,0,0.5,0,0.7,0v1.9    c-0.5,0.2-1,0.2-1.5,0.2c-0.9,0-1.6-0.2-2-0.6c-0.4-0.4-0.6-1.1-0.6-1.9V8.7h-1.1V6.9h1.1V4.8H233.2z"/>
		<path class="st3" d="M246.8,10.5h-4.3v2.7h5.1v2.1h-7.8V4h7.9v2.1h-5.1v2.4h4.3L246.8,10.5L246.8,10.5z"/>
		<path class="st3" d="M252,9.2l1.2-2.3h2.7l-2.2,4.1l2.3,4.3h-2.8l-1.3-2.5l-1.3,2.5h-2.8l2.3-4.3L248,6.9h2.8L252,9.2z"/>
		<path class="st3" d="M264.6,11.2c0,1.3-0.3,2.4-0.9,3.1c-0.6,0.8-1.4,1.2-2.4,1.2c-0.8,0-1.4-0.3-1.9-0.9v3.9h-2.6V6.9h2.5    l0.1,0.8c0.5-0.6,1.2-0.9,2-0.9c1,0,1.9,0.4,2.4,1.2c0.6,0.8,0.9,1.8,0.9,3.2l0,0H264.6z M262,11c0-1.5-0.4-2.2-1.3-2.2    c-0.6,0-1,0.2-1.2,0.7v3.3c0.2,0.5,0.7,0.7,1.3,0.7c0.8,0,1.3-0.7,1.3-2.2L262,11L262,11z"/>
		<path class="st3" d="M265.5,11.1c0-0.8,0.2-1.6,0.5-2.3s0.8-1.2,1.4-1.5c0.6-0.4,1.3-0.5,2.2-0.5c1.3,0,2.3,0.4,3,1.2    s1.1,1.9,1.1,3.2v0.1c0,1.3-0.4,2.4-1.1,3.1s-1.7,1.2-3,1.2c-1.2,0-2.2-0.4-2.9-1.1c-0.7-0.7-1.1-1.7-1.2-2.9V11.1z M268.1,11.2    c0,0.8,0.1,1.4,0.4,1.7c0.2,0.4,0.6,0.5,1.1,0.5c0.9,0,1.4-0.7,1.4-2.2v-0.3c0-1.5-0.5-2.3-1.5-2.3c-0.9,0-1.4,0.7-1.4,2V11.2z"/>
		<path class="st3" d="M279.2,13c0-0.2-0.1-0.4-0.4-0.5c-0.2-0.1-0.7-0.3-1.3-0.4c-0.7-0.1-1.2-0.3-1.6-0.6c-0.4-0.2-0.8-0.5-1-0.9    c-0.2-0.3-0.3-0.7-0.3-1.2c0-0.8,0.3-1.4,1-1.9c0.6-0.5,1.5-0.8,2.5-0.8c1.1,0,2,0.3,2.7,0.8s1,1.2,1,2h-2.6c0-0.7-0.4-1-1.1-1    c-0.3,0-0.5,0.1-0.7,0.2c-0.2,0.2-0.3,0.3-0.3,0.6c0,0.2,0.1,0.4,0.3,0.6c0.2,0.1,0.6,0.3,1.1,0.4s0.9,0.2,1.3,0.3    c1.3,0.4,1.9,1.2,1.9,2.4c0,0.8-0.3,1.4-1,1.9s-1.6,0.7-2.7,0.7c-0.7,0-1.4-0.1-1.9-0.4c-0.6-0.3-1-0.6-1.3-1.1    c-0.3-0.4-0.5-0.9-0.5-1.4h2.5c0,0.4,0.1,0.7,0.4,0.9s0.6,0.3,1,0.3s0.6-0.1,0.8-0.2C279.1,13.4,279.2,13.2,279.2,13z"/>
		<path class="st3" d="M288,14.5c-0.6,0.7-1.3,1.1-2.3,1.1c-0.9,0-1.6-0.3-2.1-0.8s-0.7-1.3-0.7-2.3V6.9h2.6v5.5    c0,0.7,0.4,1.1,1.1,1.1c0.6,0,1-0.2,1.3-0.6v-6h2.6v8.5H288V14.5z"/>
		<path class="st3" d="M297.1,9.3l-0.9-0.1c-0.8,0-1.4,0.3-1.6,0.8v5.4H292V6.9h2.5l0.1,1.1c0.4-0.8,1.1-1.2,1.9-1.2    c0.3,0,0.5,0,0.7,0.1L297.1,9.3z"/>
		<path class="st3" d="M302.2,15.5c-1.3,0-2.3-0.4-3.1-1.2s-1.2-1.8-1.2-3v-0.2c0-0.9,0.2-1.6,0.5-2.3s0.8-1.2,1.4-1.5    c0.6-0.4,1.3-0.5,2.2-0.5c1.2,0,2.1,0.4,2.8,1.1c0.7,0.7,1,1.8,1,3.1v1h-5.2c0.1,0.5,0.3,0.8,0.6,1.1c0.3,0.3,0.7,0.4,1.2,0.4    c0.8,0,1.5-0.3,2-0.9l1.2,1.4c-0.3,0.5-0.8,0.8-1.4,1.1C303.5,15.4,302.9,15.5,302.2,15.5z M301.9,8.8c-0.8,0-1.2,0.5-1.4,1.5h2.7    v-0.2c0-0.4-0.1-0.7-0.3-1C302.6,8.9,302.3,8.8,301.9,8.8z"/>
		<path class="st3" d="M313.8,4.8v2.1h1.4v1.8h-1.4v3.9c0,0.3,0.1,0.5,0.2,0.7s0.3,0.2,0.7,0.2c0.3,0,0.5,0,0.7,0v1.9    c-0.5,0.2-1,0.2-1.5,0.2c-0.9,0-1.6-0.2-2-0.6c-0.4-0.4-0.6-1.1-0.6-1.9V8.7h-1.1V6.9h1.1V4.8H313.8z"/>
		<path class="st3" d="M315.9,11.1c0-0.8,0.2-1.6,0.5-2.3s0.8-1.2,1.4-1.5c0.6-0.4,1.3-0.5,2.2-0.5c1.3,0,2.3,0.4,3,1.2    s1.1,1.9,1.1,3.2v0.1c0,1.3-0.4,2.4-1.1,3.1s-1.7,1.2-3,1.2c-1.2,0-2.2-0.4-2.9-1.1c-0.7-0.7-1.1-1.7-1.2-2.9V11.1z M318.6,11.2    c0,0.8,0.1,1.4,0.4,1.7c0.2,0.4,0.6,0.5,1.1,0.5c0.9,0,1.4-0.7,1.4-2.2v-0.3c0-1.5-0.5-2.3-1.5-2.3c-0.9,0-1.4,0.7-1.4,2V11.2z"/>
		<path class="st3" d="M9.3,34.6h-8v-1.7L5,29c0.9-1,1.4-1.8,1.4-2.4c0-0.5-0.1-0.9-0.3-1.1c-0.2-0.3-0.5-0.4-0.9-0.4    s-0.7,0.2-1,0.5c-0.2,0.3-0.4,0.8-0.4,1.3H1.1c0-0.7,0.2-1.3,0.5-1.9s0.8-1.1,1.5-1.4C3.7,23.2,4.4,23,5.2,23    c1.2,0,2.2,0.3,2.8,0.9c0.7,0.6,1,1.4,1,2.4c0,0.4-0.1,0.9-0.2,1.3C8.6,28.1,8.3,28.5,8,29c-0.4,0.5-0.9,1.1-1.7,1.9l-1.5,1.7h4.5    V34.6z"/>
		<path class="st3" d="M18.5,29.9c0,1.5-0.3,2.7-1,3.6c-0.7,0.8-1.7,1.2-2.9,1.2c-1.3,0-2.2-0.4-2.9-1.3c-0.7-0.8-1-2-1-3.5v-2.1    c0-1.5,0.3-2.7,1-3.6c0.7-0.8,1.7-1.2,2.9-1.2c1.3,0,2.2,0.4,2.9,1.3c0.7,0.8,1,2,1,3.6V29.9z M15.9,27.5c0-0.8-0.1-1.4-0.3-1.8    s-0.6-0.6-1-0.6c-0.5,0-0.8,0.2-1,0.6s-0.3,0.9-0.3,1.7v2.9c0,0.8,0.1,1.5,0.3,1.9c0.2,0.4,0.6,0.6,1,0.6s0.8-0.2,1-0.6    c0.2-0.4,0.3-1,0.3-1.8V27.5z"/>
		<path class="st3" d="M22.4,26.1l0.1,1c0.6-0.8,1.4-1.1,2.4-1.1c1.1,0,1.8,0.4,2.2,1.3c0.6-0.8,1.4-1.3,2.5-1.3    c1.7,0,2.6,1,2.6,3.1v5.5h-2.6v-5.3c0-0.4-0.1-0.7-0.2-0.9c-0.1-0.2-0.4-0.3-0.8-0.3c-0.5,0-0.9,0.2-1.2,0.7v0.1v5.8h-2.6v-5.3    c0-0.4-0.1-0.8-0.2-1s-0.4-0.3-0.8-0.3c-0.5,0-0.9,0.2-1.2,0.7v5.9H20v-8.5h2.4V26.1z"/>
		<path class="st3" d="M39.7,31.5c0-0.4-0.1-0.7-0.4-0.9c-0.3-0.2-0.8-0.5-1.5-0.7s-1.3-0.5-1.8-0.7c-1.5-0.7-2.2-1.7-2.2-3    c0-0.6,0.2-1.2,0.6-1.7c0.4-0.5,0.9-0.9,1.6-1.1c0.7-0.3,1.4-0.4,2.3-0.4c0.8,0,1.6,0.1,2.2,0.4c0.6,0.3,1.2,0.7,1.5,1.2    s0.5,1.2,0.5,1.8h-2.7c0-0.5-0.1-0.8-0.4-1.1c-0.3-0.3-0.7-0.4-1.2-0.4S37.3,25,37,25.2c-0.3,0.2-0.4,0.5-0.4,0.8s0.2,0.6,0.5,0.8    c0.3,0.2,0.9,0.5,1.6,0.7c0.8,0.3,1.4,0.5,1.9,0.8c1.2,0.7,1.8,1.7,1.8,2.9c0,1-0.4,1.8-1.1,2.3c-0.8,0.6-1.8,0.9-3.1,0.9    c-0.9,0-1.8-0.2-2.5-0.5s-1.3-0.8-1.7-1.4c-0.4-0.6-0.6-1.2-0.6-2h2.8c0,0.6,0.2,1.1,0.5,1.3c0.3,0.3,0.8,0.4,1.5,0.4    c0.5,0,0.8-0.1,1.1-0.3C39.6,32.2,39.7,31.9,39.7,31.5z"/>
		<path class="st3" d="M47.1,31.4l1.3-5.3h2.8l-2.8,8.5h-2.7L43,26.1h2.8L47.1,31.4z"/>
		<path class="st3" d="M60.3,30.5h-1.5v4h-2.7V23.2h4.5c1.3,0,2.4,0.3,3.2,0.9s1.1,1.4,1.1,2.5c0,0.8-0.2,1.4-0.5,2    c-0.3,0.5-0.8,0.9-1.5,1.3l2.4,4.6v0.1h-2.9L60.3,30.5z M58.8,28.4h1.7c0.5,0,0.9-0.1,1.2-0.4s0.4-0.7,0.4-1.1    c0-0.5-0.1-0.9-0.4-1.2s-0.7-0.4-1.2-0.4h-1.7V28.4z"/>
		<path class="st3" d="M71.2,34.6c-0.1-0.2-0.2-0.4-0.2-0.8c-0.5,0.6-1.2,0.9-2,0.9s-1.5-0.2-2-0.7c-0.6-0.5-0.8-1.1-0.8-1.8    c0-0.9,0.3-1.6,1-2.1s1.7-0.7,3-0.7H71V29c0-0.8-0.3-1.2-1-1.2c-0.6,0-0.9,0.3-0.9,0.9h-2.6c0-0.8,0.3-1.5,1-2s1.6-0.8,2.7-0.8    s1.9,0.3,2.6,0.8c0.6,0.5,0.9,1.2,1,2.2v3.7c0,0.8,0.1,1.4,0.4,1.8v0.1h-3V34.6z M69.5,32.9c0.3,0,0.6-0.1,0.8-0.2    c0.2-0.1,0.4-0.3,0.5-0.5v-1.4H70c-0.9,0-1.4,0.4-1.4,1.2c0,0.2,0.1,0.4,0.2,0.6C69.1,32.8,69.3,32.9,69.5,32.9z"/>
		<path class="st3" d="M74.6,30.3c0-1.3,0.3-2.4,0.9-3.2c0.6-0.8,1.4-1.2,2.4-1.2c0.8,0,1.4,0.3,1.9,0.9v-4.3h2.6v12H80l-0.1-0.9    c-0.5,0.7-1.2,1.1-2.1,1.1c-1,0-1.8-0.4-2.4-1.2C74.9,32.8,74.6,31.7,74.6,30.3z M77.2,30.4c0,1.5,0.4,2.3,1.3,2.3    c0.6,0,1-0.2,1.2-0.7v-3.2C79.5,28.3,79,28,78.5,28c-0.8,0-1.3,0.7-1.3,2V30.4z"/>
		<path class="st3" d="M83.9,23.9c0-0.4,0.1-0.7,0.4-0.9c0.3-0.2,0.6-0.4,1.1-0.4c0.4,0,0.8,0.1,1.1,0.4c0.3,0.2,0.4,0.5,0.4,0.9    s-0.1,0.7-0.4,0.9c-0.3,0.2-0.6,0.4-1.1,0.4c-0.4,0-0.8-0.1-1.1-0.4C84,24.6,83.9,24.3,83.9,23.9z M86.7,34.6H84v-8.5h2.6    L86.7,34.6L86.7,34.6z"/>
		<path class="st3" d="M93.1,34.6c-0.1-0.2-0.2-0.4-0.2-0.8c-0.5,0.6-1.2,0.9-2,0.9s-1.5-0.2-2-0.7c-0.6-0.5-0.8-1.1-0.8-1.8    c0-0.9,0.3-1.6,1-2.1s1.7-0.7,3-0.7h0.8V29c0-0.8-0.3-1.2-1-1.2c-0.6,0-0.9,0.3-0.9,0.9h-2.6c0-0.8,0.3-1.5,1-2s1.6-0.8,2.7-0.8    s1.9,0.3,2.6,0.8c0.6,0.5,0.9,1.2,1,2.2v3.7c0,0.8,0.1,1.4,0.4,1.8v0.1h-3V34.6z M91.4,32.9c0.3,0,0.6-0.1,0.8-0.2    c0.2-0.1,0.4-0.3,0.5-0.5v-1.4h-0.8c-0.9,0-1.4,0.4-1.4,1.2c0,0.2,0.1,0.4,0.2,0.6C91,32.8,91.2,32.9,91.4,32.9z"/>
		<path class="st3" d="M99.9,24v2.1h1.4v1.8h-1.4v3.9c0,0.3,0.1,0.5,0.2,0.7c0.1,0.1,0.3,0.2,0.7,0.2c0.3,0,0.5,0,0.7,0v1.9    c-0.5,0.2-1,0.2-1.5,0.2c-0.9,0-1.6-0.2-2-0.6c-0.4-0.4-0.6-1.1-0.6-1.9v-4.2h-1.1v-1.8h1.1V24H99.9z"/>
		<path class="st3" d="M102.3,23.9c0-0.4,0.1-0.7,0.4-0.9c0.3-0.2,0.6-0.4,1.1-0.4c0.4,0,0.8,0.1,1.1,0.4c0.3,0.2,0.4,0.5,0.4,0.9    s-0.1,0.7-0.4,0.9c-0.3,0.2-0.6,0.4-1.1,0.4c-0.4,0-0.8-0.1-1.1-0.4C102.4,24.6,102.3,24.3,102.3,23.9z M105.1,34.6h-2.6v-8.5h2.6    V34.6z"/>
		<path class="st3" d="M106.3,30.3c0-0.8,0.2-1.6,0.5-2.3c0.3-0.7,0.8-1.2,1.4-1.5c0.6-0.4,1.3-0.5,2.2-0.5c1.3,0,2.3,0.4,3,1.2    c0.7,0.8,1.1,1.9,1.1,3.2v0.1c0,1.3-0.4,2.4-1.1,3.1c-0.7,0.8-1.7,1.2-3,1.2c-1.2,0-2.2-0.4-2.9-1.1c-0.7-0.7-1.1-1.7-1.2-2.9    V30.3z M109,30.4c0,0.8,0.1,1.4,0.4,1.7c0.2,0.4,0.6,0.5,1.1,0.5c0.9,0,1.4-0.7,1.4-2.2v-0.3c0-1.5-0.5-2.3-1.5-2.3    c-0.9,0-1.4,0.7-1.4,2V30.4z"/>
		<path class="st3" d="M118.1,26.1l0.1,1c0.6-0.8,1.4-1.1,2.4-1.1c0.9,0,1.5,0.3,2,0.8c0.4,0.5,0.7,1.3,0.7,2.4v5.4h-2.6v-5.3    c0-0.4-0.1-0.7-0.3-0.9c-0.2-0.2-0.5-0.3-0.9-0.3c-0.5,0-0.9,0.2-1.1,0.6v6h-2.6v-8.5h2.3V26.1z"/>
	</g>
</g>
<g>
	<g>
		<path class="st3" d="M5.6,67.9H4.1v-9.6l-2.9,1.1v-1.3l4.1-1.6h0.2v11.4H5.6z"/>
		<path class="st3" d="M9.8,70.2L9,69.7c0.5-0.7,0.7-1.4,0.8-2.1v-1.3h1.4v1.1c0,0.5-0.1,1.1-0.4,1.6S10.2,69.9,9.8,70.2z"/>
		<path class="st3" d="M19.9,63.1c0,1.7-0.3,3-0.9,3.8s-1.5,1.2-2.7,1.2s-2.1-0.4-2.7-1.2c-0.6-0.8-0.9-2-0.9-3.6v-1.9    c0-1.7,0.3-2.9,0.9-3.7s1.5-1.2,2.7-1.2s2.1,0.4,2.7,1.2s0.9,2,0.9,3.6V63.1z M18.4,61.1c0-1.2-0.2-2.1-0.5-2.7s-0.9-0.8-1.6-0.8    c-0.7,0-1.3,0.3-1.6,0.8c-0.3,0.6-0.5,1.4-0.5,2.6v2.3c0,1.2,0.2,2.1,0.5,2.7c0.4,0.6,0.9,0.9,1.6,0.9s1.2-0.3,1.6-0.8    c0.3-0.6,0.5-1.4,0.5-2.6V61.1z"/>
		<path class="st3" d="M28.8,63.1c0,1.7-0.3,3-0.9,3.8s-1.5,1.2-2.7,1.2s-2.1-0.4-2.7-1.2c-0.6-0.8-0.9-2-0.9-3.6v-1.9    c0-1.7,0.3-2.9,0.9-3.7s1.5-1.2,2.7-1.2s2.1,0.4,2.7,1.2s0.9,2,0.9,3.6V63.1z M27.3,61.1c0-1.2-0.2-2.1-0.5-2.7s-0.9-0.8-1.6-0.8    s-1.3,0.3-1.6,0.8C23.2,59,23.1,59.9,23,61v2.3c0,1.2,0.2,2.1,0.5,2.7c0.4,0.6,0.9,0.9,1.6,0.9s1.2-0.3,1.6-0.8    c0.3-0.6,0.5-1.4,0.5-2.6L27.3,61.1L27.3,61.1z"/>
		<path class="st3" d="M37.7,63.1c0,1.7-0.3,3-0.9,3.8s-1.5,1.2-2.7,1.2s-2.1-0.4-2.7-1.2c-0.6-0.8-0.9-2-0.9-3.6v-1.9    c0-1.7,0.3-2.9,0.9-3.7s1.5-1.2,2.7-1.2s2.1,0.4,2.7,1.2s0.9,2,0.9,3.6V63.1z M36.2,61.1c0-1.2-0.2-2.1-0.5-2.7s-0.9-0.8-1.6-0.8    c-0.7,0-1.3,0.3-1.6,0.8C32.2,59,32,59.8,32,61v2.3c0,1.2,0.2,2.1,0.5,2.7c0.4,0.6,0.9,0.9,1.6,0.9c0.7,0,1.2-0.3,1.6-0.8    c0.3-0.6,0.5-1.4,0.5-2.6V61.1z"/>
	</g>
</g>
<g>
	<g>
		<path class="st3" d="M19.7,106.1c0,0.6-0.1,1.1-0.4,1.5s-0.7,0.8-1.2,1c0.6,0.3,1.1,0.6,1.4,1.1s0.5,1,0.5,1.7c0,1-0.3,1.8-1,2.4    s-1.5,0.9-2.6,0.9s-2-0.3-2.6-0.9c-0.7-0.6-1-1.4-1-2.3c0-0.6,0.2-1.2,0.5-1.7s0.8-0.9,1.4-1.1c-0.5-0.2-0.9-0.6-1.2-1    s-0.4-0.9-0.4-1.5c0-1,0.3-1.7,0.9-2.3c0.6-0.6,1.4-0.8,2.4-0.8s1.8,0.3,2.4,0.8S19.7,105.1,19.7,106.1z M18.5,111.4    c0-0.6-0.2-1.2-0.6-1.6s-0.9-0.6-1.6-0.6c-0.7,0-1.2,0.2-1.6,0.6c-0.4,0.4-0.6,0.9-0.6,1.6s0.2,1.2,0.6,1.5s0.9,0.6,1.6,0.6    s1.2-0.2,1.6-0.6S18.5,112,18.5,111.4z M16.3,104.2c-0.6,0-1,0.2-1.4,0.5s-0.5,0.8-0.5,1.4s0.2,1,0.5,1.4s0.8,0.5,1.4,0.5    c0.6,0,1-0.2,1.4-0.5c0.3-0.4,0.5-0.8,0.5-1.4s-0.2-1-0.5-1.4S16.9,104.2,16.3,104.2z"/>
		<path class="st3" d="M28.8,109.6c0,1.7-0.3,3-0.9,3.8s-1.5,1.2-2.7,1.2s-2.1-0.4-2.7-1.2c-0.6-0.8-0.9-2-0.9-3.6v-1.9    c0-1.7,0.3-2.9,0.9-3.7s1.5-1.2,2.7-1.2s2.1,0.4,2.7,1.2s0.9,2,0.9,3.6V109.6z M27.3,107.7c0-1.2-0.2-2.1-0.5-2.7    s-0.9-0.8-1.6-0.8s-1.3,0.3-1.6,0.8c-0.3,0.6-0.5,1.4-0.5,2.6v2.3c0,1.2,0.2,2.1,0.5,2.7c0.4,0.6,0.9,0.9,1.6,0.9s1.2-0.3,1.6-0.8    c0.3-0.6,0.5-1.4,0.5-2.6V107.7z"/>
		<path class="st3" d="M37.7,109.6c0,1.7-0.3,3-0.9,3.8s-1.5,1.2-2.7,1.2s-2.1-0.4-2.7-1.2c-0.6-0.8-0.9-2-0.9-3.6v-1.9    c0-1.7,0.3-2.9,0.9-3.7s1.5-1.2,2.7-1.2s2.1,0.4,2.7,1.2s0.9,2,0.9,3.6V109.6z M36.2,107.7c0-1.2-0.2-2.1-0.5-2.7    s-0.9-0.8-1.6-0.8c-0.7,0-1.3,0.3-1.6,0.8c-0.3,0.6-0.5,1.4-0.5,2.6v2.3c0,1.2,0.2,2.1,0.5,2.7c0.4,0.6,0.9,0.9,1.6,0.9    c0.7,0,1.2-0.3,1.6-0.8c0.3-0.6,0.5-1.4,0.5-2.6V107.7z"/>
	</g>
</g>
<g>
	<g>
		<path class="st3" d="M168.7,340.7H165v4.1h-1.2v-9.3h5.5v1H165v3.2h3.7V340.7z"/>
		<path class="st3" d="M173.2,344.9c-0.9,0-1.6-0.3-2.2-0.9s-0.8-1.4-0.8-2.5v-0.2c0-0.7,0.1-1.3,0.4-1.8c0.3-0.5,0.6-1,1.1-1.3    s0.9-0.5,1.5-0.5c0.9,0,1.5,0.3,2,0.9s0.7,1.4,0.7,2.5v0.5h-4.5c0,0.7,0.2,1.2,0.6,1.6c0.4,0.4,0.8,0.6,1.4,0.6    c0.4,0,0.7-0.1,1-0.3c0.3-0.2,0.5-0.4,0.7-0.7l0.7,0.6C175.1,344.4,174.3,344.9,173.2,344.9z M173.1,338.7c-0.5,0-0.8,0.2-1.2,0.5    c-0.3,0.3-0.5,0.8-0.6,1.5h3.3v-0.1c0-0.6-0.2-1.1-0.5-1.4C173.9,338.9,173.5,338.7,173.1,338.7z"/>
		<path class="st3" d="M178.1,337.9v0.8c0.5-0.6,1.1-0.9,2-0.9s1.6,0.4,1.9,1.1c0.2-0.3,0.5-0.6,0.9-0.8s0.8-0.3,1.3-0.3    c1.5,0,2.2,0.8,2.2,2.4v4.6h-1.1v-4.6c0-0.5-0.1-0.9-0.3-1.1s-0.6-0.4-1.1-0.4c-0.4,0-0.8,0.1-1,0.4c-0.3,0.3-0.4,0.6-0.5,1.1v4.6    h-1.1v-4.5c0-1-0.5-1.5-1.4-1.5c-0.7,0-1.3,0.3-1.5,1v5H177v-6.9L178.1,337.9L178.1,337.9z"/>
		<path class="st3" d="M192,344.8c-0.1-0.1-0.1-0.4-0.2-0.7c-0.5,0.6-1.2,0.9-1.9,0.9s-1.2-0.2-1.6-0.6c-0.4-0.4-0.6-0.9-0.6-1.5    c0-0.7,0.3-1.3,0.8-1.7c0.5-0.4,1.3-0.6,2.2-0.6h1.1V340c0-0.4-0.1-0.7-0.4-1c-0.2-0.2-0.6-0.4-1-0.4s-0.7,0.1-1,0.3    c-0.3,0.2-0.4,0.5-0.4,0.8h-1.1c0-0.3,0.1-0.7,0.4-1c0.2-0.3,0.6-0.6,1-0.8c0.4-0.2,0.8-0.3,1.3-0.3c0.8,0,1.4,0.2,1.8,0.6    s0.7,0.9,0.7,1.6v3.2c0,0.6,0.1,1.1,0.2,1.5v0.1H192V344.8z M190.2,343.9c0.4,0,0.7-0.1,1-0.3c0.3-0.2,0.5-0.4,0.7-0.7v-1.4H191    c-1.4,0-2.1,0.4-2.1,1.3c0,0.4,0.1,0.7,0.4,0.9C189.5,343.7,189.8,343.9,190.2,343.9z"/>
		<path class="st3" d="M195.9,344.8h-1.1V335h1.1V344.8z"/>
		<path class="st3" d="M200.4,344.9c-0.9,0-1.6-0.3-2.2-0.9s-0.8-1.4-0.8-2.5v-0.2c0-0.7,0.1-1.3,0.4-1.8c0.3-0.5,0.6-1,1.1-1.3    s0.9-0.5,1.5-0.5c0.9,0,1.5,0.3,2,0.9s0.7,1.4,0.7,2.5v0.5h-4.5c0,0.7,0.2,1.2,0.6,1.6c0.4,0.4,0.8,0.6,1.4,0.6    c0.4,0,0.7-0.1,1-0.3c0.3-0.2,0.5-0.4,0.7-0.7l0.7,0.6C202.4,344.4,201.5,344.9,200.4,344.9z M200.3,338.7c-0.5,0-0.8,0.2-1.2,0.5    c-0.3,0.3-0.5,0.8-0.6,1.5h3.3v-0.1c0-0.6-0.2-1.1-0.5-1.4C201.1,338.9,200.7,338.7,200.3,338.7z"/>
		<path class="st3" d="M208.1,342.9c0-0.3-0.1-0.6-0.3-0.7c-0.2-0.2-0.6-0.3-1.2-0.5c-0.6-0.1-1-0.3-1.4-0.5    c-0.3-0.2-0.6-0.4-0.7-0.6c-0.2-0.2-0.2-0.5-0.2-0.9c0-0.6,0.2-1,0.7-1.4s1-0.6,1.8-0.6s1.4,0.2,1.8,0.6c0.5,0.4,0.7,0.9,0.7,1.5    H208c0-0.3-0.1-0.6-0.4-0.8c-0.3-0.2-0.6-0.4-1-0.4s-0.7,0.1-1,0.3c-0.2,0.2-0.3,0.4-0.3,0.7c0,0.3,0.1,0.5,0.3,0.6    s0.6,0.3,1.2,0.4s1,0.3,1.4,0.5s0.6,0.4,0.8,0.7c0.2,0.3,0.3,0.6,0.3,0.9c0,0.6-0.2,1.1-0.7,1.5s-1.1,0.6-1.8,0.6    c-0.5,0-1-0.1-1.4-0.3s-0.7-0.5-1-0.8c-0.2-0.4-0.3-0.7-0.3-1.1h1.1c0,0.4,0.2,0.7,0.5,0.9c0.3,0.2,0.7,0.3,1.1,0.3    c0.4,0,0.8-0.1,1-0.3C208,343.5,208.1,343.2,208.1,342.9z"/>
	</g>
</g>
<g>
	<g>
		<path class="st3" d="M18.4,149.7v1.2h-0.3c-1.1,0-2,0.4-2.7,1s-1.1,1.6-1.2,2.7c0.6-0.7,1.4-1,2.5-1c1,0,1.8,0.3,2.4,1    s0.9,1.6,0.9,2.7c0,1.2-0.3,2.1-1,2.8c-0.6,0.7-1.5,1.1-2.6,1.1s-2-0.4-2.6-1.3c-0.7-0.8-1-1.9-1-3.2v-0.6c0-2.1,0.4-3.7,1.3-4.8    c0.9-1.1,2.2-1.7,4-1.7h0.3V149.7z M16.5,154.8c-0.5,0-1,0.1-1.4,0.4c-0.4,0.3-0.7,0.7-0.9,1.1v0.5c0,0.9,0.2,1.7,0.6,2.3    s0.9,0.9,1.6,0.9s1.2-0.2,1.5-0.7c0.4-0.5,0.6-1.1,0.6-1.9c0-0.8-0.2-1.4-0.6-1.9C17.7,155,17.2,154.8,16.5,154.8z"/>
		<path class="st3" d="M28.8,156.2c0,1.7-0.3,3-0.9,3.8s-1.5,1.2-2.7,1.2s-2.1-0.4-2.7-1.2s-0.9-2-0.9-3.6v-1.9    c0-1.7,0.3-2.9,0.9-3.7s1.5-1.2,2.7-1.2s2.1,0.4,2.7,1.2s0.9,2,0.9,3.6V156.2z M27.3,154.2c0-1.2-0.2-2.1-0.5-2.7    s-0.9-0.8-1.6-0.8s-1.3,0.3-1.6,0.8c-0.3,0.6-0.5,1.4-0.5,2.6v2.3c0,1.2,0.2,2.1,0.5,2.7c0.4,0.6,0.9,0.9,1.6,0.9s1.2-0.3,1.6-0.8    c0.3-0.6,0.5-1.4,0.5-2.6V154.2z"/>
		<path class="st3" d="M37.7,156.2c0,1.7-0.3,3-0.9,3.8s-1.5,1.2-2.7,1.2s-2.1-0.4-2.7-1.2s-0.9-2-0.9-3.6v-1.9    c0-1.7,0.3-2.9,0.9-3.7s1.5-1.2,2.7-1.2s2.1,0.4,2.7,1.2s0.9,2,0.9,3.6V156.2z M36.2,154.2c0-1.2-0.2-2.1-0.5-2.7    s-0.9-0.8-1.6-0.8c-0.7,0-1.3,0.3-1.6,0.8c-0.3,0.6-0.5,1.4-0.5,2.6v2.3c0,1.2,0.2,2.1,0.5,2.7c0.4,0.6,0.9,0.9,1.6,0.9    c0.7,0,1.2-0.3,1.6-0.8c0.3-0.6,0.5-1.4,0.5-2.6V154.2z"/>
	</g>
</g>
<g>
	<g>
		<path class="st3" d="M18.9,203.8h1.6v1.2h-1.6v2.6h-1.5V205h-5.2v-0.9l5.1-7.9h1.5v7.6H18.9z M13.9,203.8h3.5v-5.6l-0.2,0.3    L13.9,203.8z"/>
		<path class="st3" d="M28.8,202.7c0,1.7-0.3,3-0.9,3.8s-1.5,1.2-2.7,1.2s-2.1-0.4-2.7-1.2s-0.9-2-0.9-3.6V201    c0-1.7,0.3-2.9,0.9-3.7s1.5-1.2,2.7-1.2s2.1,0.4,2.7,1.2s0.9,2,0.9,3.6V202.7z M27.3,200.8c0-1.2-0.2-2.1-0.5-2.7    s-0.9-0.8-1.6-0.8s-1.3,0.3-1.6,0.8s-0.5,1.4-0.5,2.6v2.3c0,1.2,0.2,2.1,0.5,2.7s0.9,0.9,1.6,0.9s1.2-0.3,1.6-0.8s0.5-1.4,0.5-2.6    V200.8z"/>
		<path class="st3" d="M37.7,202.7c0,1.7-0.3,3-0.9,3.8s-1.5,1.2-2.7,1.2s-2.1-0.4-2.7-1.2s-0.9-2-0.9-3.6V201    c0-1.7,0.3-2.9,0.9-3.7s1.5-1.2,2.7-1.2s2.1,0.4,2.7,1.2s0.9,2,0.9,3.6V202.7z M36.2,200.8c0-1.2-0.2-2.1-0.5-2.7    s-0.9-0.8-1.6-0.8c-0.7,0-1.3,0.3-1.6,0.8s-0.5,1.4-0.5,2.6v2.3c0,1.2,0.2,2.1,0.5,2.7s0.9,0.9,1.6,0.9c0.7,0,1.2-0.3,1.6-0.8    s0.5-1.4,0.5-2.6V200.8z"/>
	</g>
</g>
<g>
	<g>
		<path class="st3" d="M20.2,254.1h-7.5v-1l3.9-4.4c0.6-0.7,1-1.2,1.2-1.6s0.3-0.8,0.3-1.3c0-0.6-0.2-1.1-0.5-1.5s-0.8-0.6-1.4-0.6    c-0.7,0-1.3,0.2-1.7,0.6s-0.6,1-0.6,1.7h-1.4c0-1,0.3-1.9,1-2.5s1.6-1,2.7-1s1.9,0.3,2.5,0.8s0.9,1.3,0.9,2.2c0,1.1-0.7,2.5-2.1,4    l-3,3.3h5.7V254.1z"/>
		<path class="st3" d="M28.8,249.3c0,1.7-0.3,3-0.9,3.8s-1.5,1.2-2.7,1.2s-2.1-0.4-2.7-1.2s-0.9-2-0.9-3.6v-1.9    c0-1.7,0.3-2.9,0.9-3.7s1.5-1.2,2.7-1.2s2.1,0.4,2.7,1.2s0.9,2,0.9,3.6V249.3z M27.3,247.3c0-1.2-0.2-2.1-0.5-2.7    s-0.9-0.8-1.6-0.8s-1.3,0.3-1.6,0.8s-0.5,1.4-0.5,2.6v2.3c0,1.2,0.2,2.1,0.5,2.7s0.9,0.9,1.6,0.9s1.2-0.3,1.6-0.8s0.5-1.4,0.5-2.6    V247.3z"/>
		<path class="st3" d="M37.7,249.3c0,1.7-0.3,3-0.9,3.8s-1.5,1.2-2.7,1.2s-2.1-0.4-2.7-1.2s-0.9-2-0.9-3.6v-1.9    c0-1.7,0.3-2.9,0.9-3.7s1.5-1.2,2.7-1.2s2.1,0.4,2.7,1.2s0.9,2,0.9,3.6V249.3z M36.2,247.3c0-1.2-0.2-2.1-0.5-2.7    s-0.9-0.8-1.6-0.8c-0.7,0-1.3,0.3-1.6,0.8S32,246,32,247.2v2.3c0,1.2,0.2,2.1,0.5,2.7s0.9,0.9,1.6,0.9c0.7,0,1.2-0.3,1.6-0.8    s0.5-1.4,0.5-2.6V247.3z"/>
	</g>
</g>
<g>
	<g>
		<path class="st3" d="M37.7,295.8c0,1.7-0.3,3-0.9,3.8s-1.5,1.2-2.7,1.2s-2.1-0.4-2.7-1.2s-0.9-2-0.9-3.6v-1.9    c0-1.7,0.3-2.9,0.9-3.7s1.5-1.2,2.7-1.2s2.1,0.4,2.7,1.2s0.9,2,0.9,3.6V295.8z M36.2,293.9c0-1.2-0.2-2.1-0.5-2.7    s-0.9-0.8-1.6-0.8c-0.7,0-1.3,0.3-1.6,0.8s-0.5,1.4-0.5,2.6v2.3c0,1.2,0.2,2.1,0.5,2.7s0.9,0.9,1.6,0.9c0.7,0,1.2-0.3,1.6-0.8    s0.5-1.4,0.5-2.6V293.9z"/>
	</g>
</g>
<g>
	<polygon class="st4" points="413.9,284.8 370.1,274 323.4,266.5 277.1,259.1 230.7,253.1 183.5,243.7 140.7,219.4 116,201.2    94.5,174.1 72,129.3 47.7,73.8 48.5,69 74.7,128 97.1,172.6 118.1,199 142.4,216.9 184.5,240.8 231.2,250.1 277.5,256.1    323.9,263.5 370.7,271.1 414.6,281.9  "/>
</g>
<g>
	<g>
		<path class="st3" d="M78.3,337.6l2.8,7l2.8-7h1.5v8.5h-1.1v-3.3l0.1-3.6l-2.8,6.9h-0.9l-2.8-6.9l0.1,3.6v3.3h-1.1v-8.5H78.3z"/>
		<path class="st3" d="M91,346.1c-0.1-0.1-0.1-0.3-0.2-0.7c-0.5,0.5-1.1,0.8-1.8,0.8c-0.6,0-1.1-0.2-1.5-0.5s-0.6-0.8-0.6-1.3    c0-0.7,0.3-1.2,0.8-1.5s1.2-0.5,2.1-0.5h1.1v-0.5c0-0.4-0.1-0.7-0.3-0.9s-0.6-0.3-1-0.3s-0.7,0.1-1,0.3s-0.4,0.4-0.4,0.7H87    c0-0.3,0.1-0.6,0.3-0.9s0.5-0.5,0.9-0.7s0.8-0.3,1.3-0.3c0.7,0,1.3,0.2,1.7,0.5s0.6,0.9,0.6,1.5v2.9c0,0.6,0.1,1,0.2,1.4v0.1h-1    V346.1z M89.2,345.3c0.3,0,0.7-0.1,1-0.3s0.5-0.4,0.7-0.7V343H90c-1.3,0-2,0.4-2,1.2c0,0.3,0.1,0.6,0.3,0.8S88.9,345.3,89.2,345.3    z"/>
		<path class="st3" d="M94.7,346.1h-1.1v-9h1.1V346.1z"/>
		<path class="st3" d="M99,346.2c-0.9,0-1.6-0.3-2.1-0.8s-0.8-1.3-0.8-2.3v-0.2c0-0.6,0.1-1.2,0.4-1.7s0.6-0.9,1-1.2    s0.9-0.4,1.4-0.4c0.8,0,1.5,0.3,1.9,0.8s0.7,1.3,0.7,2.3v0.5h-4.3c0,0.6,0.2,1.1,0.5,1.5s0.8,0.6,1.3,0.6c0.4,0,0.7-0.1,1-0.2    s0.5-0.4,0.7-0.6l0.7,0.5C100.9,345.8,100.1,346.2,99,346.2z M98.9,340.6c-0.4,0-0.8,0.2-1.1,0.5s-0.5,0.8-0.6,1.3h3.2v-0.1    c0-0.6-0.2-1-0.4-1.3S99.3,340.6,98.9,340.6z"/>
		<path class="st3" d="M106.4,344.4c0-0.3-0.1-0.5-0.3-0.7s-0.6-0.3-1.2-0.4s-1-0.3-1.3-0.4s-0.6-0.4-0.7-0.6s-0.2-0.5-0.2-0.8    c0-0.5,0.2-1,0.7-1.3s1-0.5,1.7-0.5s1.3,0.2,1.7,0.6s0.7,0.8,0.7,1.4h-1.1c0-0.3-0.1-0.6-0.4-0.8s-0.6-0.3-1-0.3s-0.7,0.1-0.9,0.3    s-0.3,0.4-0.3,0.7c0,0.3,0.1,0.5,0.3,0.6s0.6,0.3,1.1,0.4s1,0.3,1.3,0.4s0.6,0.4,0.7,0.6s0.2,0.5,0.2,0.9c0,0.6-0.2,1-0.7,1.4    s-1,0.5-1.8,0.5c-0.5,0-1-0.1-1.3-0.3s-0.7-0.4-0.9-0.8s-0.3-0.7-0.3-1h1.1c0,0.4,0.2,0.7,0.4,0.9s0.6,0.3,1.1,0.3    c0.4,0,0.7-0.1,1-0.2S106.4,344.7,106.4,344.4z"/>
	</g>
</g>
<rect x="43.6" y="337.4" class="st5" width="26.4" height="8.3"/>
<rect x="128.6" y="336.7" class="st4" width="26.4" height="8.3"/>
<rect x="392" y="473.2" class="st6" width="224" height="16.7"/>
<g class="st7">
	<path class="st5" d="M390.8,563.2l1.8-5.3h0.9l-2.4,6.4h-0.7l-2.4-6.4h0.9L390.8,563.2z"/>
	<path class="st5" d="M396,564.5c-0.6,0-1.2-0.2-1.6-0.6c-0.4-0.4-0.6-1-0.6-1.7v-0.1c0-0.5,0.1-0.9,0.3-1.3   c0.2-0.4,0.4-0.7,0.8-0.9c0.3-0.2,0.7-0.3,1.1-0.3c0.6,0,1.1,0.2,1.4,0.6c0.3,0.4,0.5,1,0.5,1.8v0.3h-3.2c0,0.5,0.1,0.8,0.4,1.1   s0.6,0.4,1,0.4c0.3,0,0.5-0.1,0.7-0.2c0.2-0.1,0.4-0.3,0.5-0.5l0.5,0.4C397.4,564.2,396.8,564.5,396,564.5z M395.9,560.2   c-0.3,0-0.6,0.1-0.8,0.4c-0.2,0.2-0.4,0.6-0.4,1h2.4v-0.1c0-0.4-0.1-0.7-0.3-1C396.5,560.3,396.3,560.2,395.9,560.2z"/>
	<path class="st5" d="M401.1,560.3c-0.1,0-0.3,0-0.4,0c-0.5,0-0.9,0.2-1.1,0.7v3.4h-0.8v-4.8h0.8v0.5c0.3-0.4,0.6-0.6,1.1-0.6   c0.2,0,0.3,0,0.4,0.1V560.3z"/>
	<path class="st5" d="M403.2,558.5v1.2h0.9v0.6h-0.9v3c0,0.2,0,0.3,0.1,0.4c0.1,0.1,0.2,0.1,0.4,0.1c0.1,0,0.2,0,0.4-0.1v0.7   c-0.2,0.1-0.4,0.1-0.6,0.1c-0.4,0-0.6-0.1-0.8-0.3s-0.3-0.5-0.3-0.9v-2.9h-0.9v-0.6h0.9v-1.2L403.2,558.5L403.2,558.5z"/>
	<path class="st5" d="M405,558.4c0-0.1,0-0.2,0.1-0.3s0.2-0.1,0.4-0.1s0.3,0,0.4,0.1s0.1,0.2,0.1,0.3s0,0.2-0.1,0.3   s-0.2,0.1-0.4,0.1s-0.3,0-0.4-0.1C405.1,558.6,405,558.5,405,558.4z M405.9,564.4h-0.8v-4.8h0.8V564.4z"/>
	<path class="st5" d="M409.1,563.8c0.3,0,0.5-0.1,0.8-0.3s0.3-0.4,0.4-0.7h0.8c0,0.3-0.1,0.5-0.3,0.8s-0.4,0.4-0.7,0.6   c-0.3,0.1-0.6,0.2-0.9,0.2c-0.6,0-1.2-0.2-1.5-0.6c-0.4-0.4-0.6-1-0.6-1.8v-0.1c0-0.5,0.1-0.9,0.3-1.2c0.2-0.4,0.4-0.6,0.7-0.8   s0.7-0.3,1.1-0.3c0.5,0,1,0.2,1.3,0.5c0.4,0.3,0.5,0.7,0.6,1.2h-0.8c0-0.3-0.1-0.6-0.3-0.8s-0.5-0.3-0.8-0.3c-0.4,0-0.7,0.1-1,0.4   c-0.2,0.3-0.3,0.7-0.3,1.3v0.2c0,0.5,0.1,1,0.3,1.3S408.7,563.8,409.1,563.8z"/>
	<path class="st5" d="M414.9,564.4c0-0.1-0.1-0.3-0.1-0.5c-0.4,0.4-0.8,0.6-1.4,0.6c-0.5,0-0.9-0.1-1.2-0.4s-0.5-0.6-0.5-1   c0-0.5,0.2-0.9,0.6-1.2s0.9-0.4,1.6-0.4h0.8v-0.4c0-0.3-0.1-0.5-0.3-0.7s-0.4-0.3-0.8-0.3c-0.3,0-0.5,0.1-0.7,0.2   c-0.2,0.1-0.3,0.3-0.3,0.5h-0.8c0-0.2,0.1-0.5,0.3-0.7s0.4-0.4,0.7-0.5c0.3-0.1,0.6-0.2,1-0.2c0.5,0,1,0.1,1.3,0.4s0.5,0.7,0.5,1.1   v2.2c0,0.4,0.1,0.8,0.2,1v0.1h-0.9L414.9,564.4L414.9,564.4z M413.5,563.7c0.3,0,0.5-0.1,0.7-0.2c0.2-0.1,0.4-0.3,0.5-0.5v-1h-0.6   c-1,0-1.5,0.3-1.5,0.9c0,0.3,0.1,0.5,0.3,0.6C413.1,563.6,413.2,563.7,413.5,563.7z"/>
	<path class="st5" d="M417.7,564.4h-0.8v-6.8h0.8V564.4z"/>
	<path class="st5" d="M422.2,563.7h3v0.7h-3.9V558h0.8v5.7H422.2z"/>
	<path class="st5" d="M426.1,558.4c0-0.1,0-0.2,0.1-0.3s0.2-0.1,0.4-0.1s0.3,0,0.4,0.1s0.1,0.2,0.1,0.3s0,0.2-0.1,0.3   s-0.2,0.1-0.4,0.1s-0.3,0-0.4-0.1C426.1,558.6,426.1,558.5,426.1,558.4z M427,564.4h-0.8v-4.8h0.8V564.4z"/>
	<path class="st5" d="M429,559.6v0.6c0.4-0.5,0.8-0.7,1.4-0.7c1,0,1.5,0.6,1.5,1.7v3.1h-0.8v-3.1c0-0.3-0.1-0.6-0.2-0.8   c-0.2-0.2-0.4-0.2-0.7-0.2s-0.5,0.1-0.7,0.2c-0.2,0.1-0.4,0.3-0.5,0.6v3.4h-0.7v-4.8H429L429,559.6z"/>
	<path class="st5" d="M435.2,564.5c-0.6,0-1.2-0.2-1.6-0.6c-0.4-0.4-0.6-1-0.6-1.7v-0.1c0-0.5,0.1-0.9,0.3-1.3   c0.2-0.4,0.4-0.7,0.8-0.9c0.3-0.2,0.7-0.3,1.1-0.3c0.6,0,1.1,0.2,1.4,0.6c0.3,0.4,0.5,1,0.5,1.8v0.3h-3.2c0,0.5,0.1,0.8,0.4,1.1   s0.6,0.4,1,0.4c0.3,0,0.5-0.1,0.7-0.2c0.2-0.1,0.4-0.3,0.5-0.5l0.5,0.4C436.6,564.2,436,564.5,435.2,564.5z M435.1,560.2   c-0.3,0-0.6,0.1-0.8,0.4c-0.2,0.2-0.4,0.6-0.4,1h2.4v-0.1c0-0.4-0.1-0.7-0.3-1C435.7,560.3,435.4,560.2,435.1,560.2z"/>
	<path class="st5" d="M440.8,563.1c0-0.2-0.1-0.4-0.2-0.5c-0.2-0.1-0.5-0.2-0.9-0.3s-0.7-0.2-1-0.3c-0.2-0.1-0.4-0.3-0.5-0.4   c-0.1-0.2-0.2-0.4-0.2-0.6c0-0.4,0.2-0.7,0.5-1s0.8-0.4,1.3-0.4s1,0.1,1.3,0.4s0.5,0.6,0.5,1.1h-0.8c0-0.2-0.1-0.4-0.3-0.6   s-0.4-0.2-0.7-0.2s-0.5,0.1-0.7,0.2c-0.2,0.1-0.3,0.3-0.3,0.5s0.1,0.3,0.2,0.4c0.1,0.1,0.4,0.2,0.8,0.3s0.7,0.2,1,0.3   s0.4,0.3,0.6,0.5c0.1,0.2,0.2,0.4,0.2,0.6c0,0.4-0.2,0.8-0.5,1c-0.3,0.3-0.8,0.4-1.3,0.4c-0.4,0-0.7-0.1-1-0.2   c-0.3-0.1-0.5-0.3-0.7-0.6c-0.2-0.2-0.2-0.5-0.2-0.8h0.8c0,0.3,0.1,0.5,0.3,0.6c0.2,0.2,0.5,0.2,0.8,0.2s0.6-0.1,0.7-0.2   C440.7,563.5,440.8,563.3,440.8,563.1z"/>
	<path class="st5" d="M447.6,563.1c0-0.2-0.1-0.4-0.2-0.5c-0.2-0.1-0.5-0.2-0.9-0.3s-0.7-0.2-1-0.3c-0.2-0.1-0.4-0.3-0.5-0.4   c-0.1-0.2-0.2-0.4-0.2-0.6c0-0.4,0.2-0.7,0.5-1s0.8-0.4,1.3-0.4s1,0.1,1.3,0.4s0.5,0.6,0.5,1.1h-0.8c0-0.2-0.1-0.4-0.3-0.6   s-0.4-0.2-0.7-0.2s-0.5,0.1-0.7,0.2c-0.2,0.1-0.3,0.3-0.3,0.5s0.1,0.3,0.2,0.4c0.1,0.1,0.4,0.2,0.8,0.3s0.7,0.2,1,0.3   s0.4,0.3,0.6,0.5c0.1,0.2,0.2,0.4,0.2,0.6c0,0.4-0.2,0.8-0.5,1c-0.3,0.3-0.8,0.4-1.3,0.4c-0.4,0-0.7-0.1-1-0.2   c-0.3-0.1-0.5-0.3-0.7-0.6c-0.2-0.2-0.2-0.5-0.2-0.8h0.8c0,0.3,0.1,0.5,0.3,0.6c0.2,0.2,0.5,0.2,0.8,0.2s0.6-0.1,0.7-0.2   C447.5,563.5,447.6,563.3,447.6,563.1z"/>
	<path class="st5" d="M450.3,560.2c0.4-0.4,0.8-0.7,1.4-0.7c1,0,1.5,0.6,1.5,1.7v3.1h-0.8v-3.1c0-0.3-0.1-0.6-0.2-0.8   c-0.2-0.2-0.4-0.2-0.7-0.2s-0.5,0.1-0.7,0.2c-0.2,0.1-0.4,0.3-0.5,0.6v3.4h-0.8v-6.8h0.8L450.3,560.2L450.3,560.2z"/>
	<path class="st5" d="M454.2,561.9c0-0.5,0.1-0.9,0.3-1.3c0.2-0.4,0.4-0.7,0.8-0.9c0.3-0.2,0.7-0.3,1.1-0.3c0.6,0,1.2,0.2,1.6,0.7   c0.4,0.4,0.6,1,0.6,1.8v0.1c0,0.5-0.1,0.9-0.3,1.2c-0.2,0.4-0.4,0.7-0.8,0.9c-0.3,0.2-0.7,0.3-1.1,0.3c-0.6,0-1.2-0.2-1.6-0.7   C454.4,563.3,454.2,562.7,454.2,561.9L454.2,561.9z M455.1,562c0,0.5,0.1,1,0.4,1.3c0.2,0.3,0.6,0.5,1,0.5s0.7-0.2,1-0.5   c0.2-0.3,0.4-0.8,0.4-1.4c0-0.5-0.1-0.9-0.4-1.3c-0.2-0.3-0.6-0.5-1-0.5s-0.7,0.2-1,0.5S455.1,561.4,455.1,562z"/>
	<path class="st5" d="M463.8,563.2l0.9-3.6h0.8l-1.4,4.8h-0.7l-1.2-3.6l-1.1,3.6h-0.7l-1.4-4.8h0.8l0.9,3.6l1.1-3.6h0.7L463.8,563.2   z"/>
	<path class="st5" d="M469.7,558.5v1.2h0.9v0.6h-0.9v3c0,0.2,0,0.3,0.1,0.4c0.1,0.1,0.2,0.1,0.4,0.1c0.1,0,0.2,0,0.4-0.1v0.7   c-0.2,0.1-0.4,0.1-0.6,0.1c-0.4,0-0.6-0.1-0.8-0.3s-0.3-0.5-0.3-0.9v-2.9H468v-0.6h0.9v-1.2L469.7,558.5L469.7,558.5L469.7,558.5z"/>
	<path class="st5" d="M472.3,560.2c0.4-0.4,0.8-0.7,1.4-0.7c1,0,1.5,0.6,1.5,1.7v3.1h-0.8v-3.1c0-0.3-0.1-0.6-0.2-0.8   c-0.2-0.2-0.4-0.2-0.7-0.2s-0.5,0.1-0.7,0.2c-0.2,0.1-0.4,0.3-0.5,0.6v3.4h-0.8v-6.8h0.8L472.3,560.2L472.3,560.2z"/>
	<path class="st5" d="M478.5,564.5c-0.6,0-1.2-0.2-1.6-0.6c-0.4-0.4-0.6-1-0.6-1.7v-0.1c0-0.5,0.1-0.9,0.3-1.3   c0.2-0.4,0.4-0.7,0.8-0.9c0.3-0.2,0.7-0.3,1.1-0.3c0.6,0,1.1,0.2,1.4,0.6c0.3,0.4,0.5,1,0.5,1.8v0.3h-3.2c0,0.5,0.1,0.8,0.4,1.1   s0.6,0.4,1,0.4c0.3,0,0.5-0.1,0.7-0.2c0.2-0.1,0.4-0.3,0.5-0.5l0.5,0.4C479.8,564.2,479.2,564.5,478.5,564.5z M478.4,560.2   c-0.3,0-0.6,0.1-0.8,0.4c-0.2,0.2-0.4,0.6-0.4,1h2.4v-0.1c0-0.4-0.1-0.7-0.3-1C479,560.3,478.7,560.2,478.4,560.2z"/>
	<path class="st5" d="M486.5,561.6c-0.2,0.2-0.4,0.4-0.6,0.5s-0.5,0.2-0.8,0.2c-0.4,0-0.7-0.1-1-0.3s-0.5-0.4-0.6-0.8   c-0.2-0.3-0.2-0.7-0.2-1.1c0-0.4,0.1-0.8,0.2-1.2c0.2-0.3,0.4-0.6,0.7-0.8c0.3-0.2,0.6-0.3,1-0.3c0.6,0,1.1,0.2,1.5,0.7   s0.5,1.1,0.5,1.9v0.2c0,1.2-0.2,2.2-0.7,2.7c-0.5,0.6-1.2,0.9-2.2,0.9h-0.2v-0.7h0.2c0.7,0,1.2-0.2,1.5-0.5   C486.3,562.8,486.5,562.3,486.5,561.6z M485.3,561.6c0.3,0,0.5-0.1,0.8-0.2c0.2-0.2,0.4-0.4,0.5-0.6v-0.3c0-0.5-0.1-1-0.3-1.3   s-0.5-0.5-0.9-0.5s-0.6,0.1-0.9,0.4c-0.2,0.3-0.3,0.6-0.3,1.1c0,0.4,0.1,0.8,0.3,1.1C484.6,561.4,484.9,561.6,485.3,561.6z"/>
	<path class="st5" d="M488.8,561.2l0.3-3.2h3.3v0.8h-2.6l-0.2,1.7c0.3-0.2,0.7-0.3,1.1-0.3c0.6,0,1,0.2,1.4,0.6   c0.3,0.4,0.5,0.9,0.5,1.6s-0.2,1.2-0.5,1.6c-0.4,0.4-0.9,0.6-1.5,0.6s-1-0.2-1.4-0.5s-0.6-0.7-0.6-1.3h0.8c0,0.4,0.2,0.6,0.4,0.8   c0.2,0.2,0.5,0.3,0.8,0.3c0.4,0,0.7-0.1,0.9-0.4s0.3-0.6,0.3-1.1c0-0.4-0.1-0.8-0.3-1c-0.2-0.3-0.5-0.4-0.9-0.4s-0.6,0.1-0.8,0.2   l-0.2,0.2L488.8,561.2z"/>
	<path class="st5" d="M495.7,559.2c0-0.4,0.1-0.7,0.4-0.9c0.2-0.2,0.6-0.4,0.9-0.4c0.4,0,0.7,0.1,0.9,0.4s0.4,0.6,0.4,1v0.3   c0,0.4-0.1,0.7-0.4,0.9c-0.2,0.2-0.6,0.4-0.9,0.4c-0.4,0-0.7-0.1-0.9-0.4c-0.2-0.2-0.4-0.6-0.4-1V559.2z M496.3,559.5   c0,0.2,0.1,0.4,0.2,0.6c0.1,0.1,0.3,0.2,0.5,0.2s0.4-0.1,0.5-0.2c0.1-0.1,0.2-0.3,0.2-0.6v-0.3c0-0.2-0.1-0.4-0.2-0.6   c-0.1-0.2-0.3-0.2-0.5-0.2s-0.4,0.1-0.5,0.2c-0.1,0.1-0.2,0.3-0.2,0.6V559.5z M497.2,563.9l-0.5-0.3l3.1-5l0.5,0.3L497.2,563.9z    M498.8,562.8c0-0.4,0.1-0.7,0.4-0.9c0.2-0.2,0.6-0.4,0.9-0.4s0.7,0.1,0.9,0.4s0.4,0.6,0.4,1v0.3c0,0.4-0.1,0.7-0.4,0.9   c-0.2,0.2-0.6,0.4-0.9,0.4s-0.7-0.1-0.9-0.4c-0.2-0.2-0.4-0.6-0.4-1V562.8z M499.4,563.1c0,0.2,0.1,0.4,0.2,0.6s0.3,0.2,0.5,0.2   s0.4-0.1,0.5-0.2c0.1-0.1,0.2-0.3,0.2-0.6v-0.3c0-0.2-0.1-0.4-0.2-0.6c-0.1-0.1-0.3-0.2-0.5-0.2s-0.4,0.1-0.5,0.2   c-0.1,0.1-0.2,0.3-0.2,0.6V563.1z"/>
	<path class="st5" d="M506.5,563.8c0.3,0,0.5-0.1,0.8-0.3c0.2-0.2,0.3-0.4,0.4-0.7h0.8c0,0.3-0.1,0.5-0.3,0.8s-0.4,0.4-0.7,0.6   c-0.3,0.1-0.6,0.2-0.9,0.2c-0.6,0-1.2-0.2-1.5-0.6c-0.4-0.4-0.6-1-0.6-1.8v-0.1c0-0.5,0.1-0.9,0.3-1.2c0.2-0.4,0.4-0.6,0.7-0.8   s0.7-0.3,1.1-0.3c0.5,0,1,0.2,1.3,0.5c0.4,0.3,0.5,0.7,0.6,1.2h-0.8c0-0.3-0.1-0.6-0.3-0.8s-0.5-0.3-0.8-0.3c-0.4,0-0.7,0.1-1,0.4   c-0.2,0.3-0.3,0.7-0.3,1.3v0.2c0,0.5,0.1,1,0.3,1.3S506.1,563.8,506.5,563.8z"/>
	<path class="st5" d="M509.1,561.9c0-0.5,0.1-0.9,0.3-1.3c0.2-0.4,0.4-0.7,0.8-0.9c0.3-0.2,0.7-0.3,1.1-0.3c0.6,0,1.2,0.2,1.6,0.7   c0.4,0.4,0.6,1,0.6,1.8v0.1c0,0.5-0.1,0.9-0.3,1.2c-0.2,0.4-0.4,0.7-0.8,0.9c-0.3,0.2-0.7,0.3-1.1,0.3c-0.6,0-1.2-0.2-1.6-0.7   C509.3,563.3,509.1,562.7,509.1,561.9L509.1,561.9z M509.9,562c0,0.5,0.1,1,0.4,1.3c0.2,0.3,0.6,0.5,1,0.5s0.7-0.2,1-0.5   c0.2-0.3,0.4-0.8,0.4-1.4c0-0.5-0.1-0.9-0.4-1.3c-0.2-0.3-0.6-0.5-1-0.5s-0.7,0.2-1,0.5S509.9,561.4,509.9,562z"/>
	<path class="st5" d="M515.2,559.6v0.6c0.4-0.5,0.8-0.7,1.4-0.7c1,0,1.5,0.6,1.5,1.7v3.1h-0.8v-3.1c0-0.3-0.1-0.6-0.2-0.8   c-0.2-0.2-0.4-0.2-0.7-0.2s-0.5,0.1-0.7,0.2c-0.2,0.1-0.4,0.3-0.5,0.6v3.4h-0.8v-4.8H515.2L515.2,559.6z"/>
	<path class="st5" d="M519.8,564.4v-4.1H519v-0.6h0.8v-0.5c0-0.5,0.1-0.9,0.4-1.2c0.3-0.3,0.7-0.4,1.2-0.4c0.2,0,0.4,0,0.6,0.1v0.7   c-0.1,0-0.3,0-0.4,0c-0.3,0-0.5,0.1-0.6,0.2c-0.1,0.1-0.2,0.4-0.2,0.7v0.5h1v0.6h-1v4.1L519.8,564.4L519.8,564.4z"/>
	<path class="st5" d="M522.6,558.4c0-0.1,0-0.2,0.1-0.3s0.2-0.1,0.4-0.1s0.3,0,0.4,0.1c0.1,0.1,0.1,0.2,0.1,0.3s0,0.2-0.1,0.3   s-0.2,0.1-0.4,0.1s-0.3,0-0.4-0.1C522.6,558.6,522.6,558.5,522.6,558.4z M523.4,564.4h-0.8v-4.8h0.8V564.4z"/>
	<path class="st5" d="M524.6,562c0-0.7,0.2-1.3,0.5-1.8c0.3-0.4,0.8-0.7,1.4-0.7c0.6,0,1,0.2,1.3,0.6v-2.5h0.8v6.8h-0.7v-0.5   c-0.3,0.4-0.8,0.6-1.4,0.6c-0.6,0-1-0.2-1.3-0.7C524.7,563.3,524.6,562.7,524.6,562L524.6,562z M525.4,562c0,0.5,0.1,1,0.3,1.3   s0.5,0.5,0.9,0.5c0.5,0,0.9-0.2,1.1-0.7v-2.2c-0.2-0.4-0.6-0.7-1.1-0.7c-0.4,0-0.7,0.2-0.9,0.5S525.4,561.4,525.4,562z"/>
	<path class="st5" d="M531.8,564.5c-0.6,0-1.2-0.2-1.6-0.6c-0.4-0.4-0.6-1-0.6-1.7v-0.1c0-0.5,0.1-0.9,0.3-1.3   c0.2-0.4,0.4-0.7,0.8-0.9c0.3-0.2,0.7-0.3,1.1-0.3c0.6,0,1.1,0.2,1.4,0.6c0.3,0.4,0.5,1,0.5,1.8v0.3h-3.2c0,0.5,0.1,0.8,0.4,1.1   c0.3,0.3,0.6,0.4,1,0.4c0.3,0,0.5-0.1,0.7-0.2c0.2-0.1,0.4-0.3,0.5-0.5l0.5,0.4C533.2,564.2,532.6,564.5,531.8,564.5z M531.7,560.2   c-0.3,0-0.6,0.1-0.8,0.4c-0.2,0.2-0.4,0.6-0.4,1h2.4v-0.1c0-0.4-0.1-0.7-0.3-1C532.3,560.3,532,560.2,531.7,560.2z"/>
	<path class="st5" d="M535.4,559.6v0.6c0.4-0.5,0.8-0.7,1.4-0.7c1,0,1.5,0.6,1.5,1.7v3.1h-0.8v-3.1c0-0.3-0.1-0.6-0.2-0.8   c-0.2-0.2-0.4-0.2-0.7-0.2s-0.5,0.1-0.7,0.2c-0.2,0.1-0.4,0.3-0.5,0.6v3.4h-0.8v-4.8H535.4L535.4,559.6z"/>
	<path class="st5" d="M541.5,563.8c0.3,0,0.5-0.1,0.8-0.3c0.2-0.2,0.3-0.4,0.4-0.7h0.8c0,0.3-0.1,0.5-0.3,0.8s-0.4,0.4-0.7,0.6   c-0.3,0.1-0.6,0.2-0.9,0.2c-0.6,0-1.2-0.2-1.5-0.6c-0.4-0.4-0.6-1-0.6-1.8v-0.1c0-0.5,0.1-0.9,0.3-1.2c0.2-0.4,0.4-0.6,0.7-0.8   s0.7-0.3,1.1-0.3c0.5,0,1,0.2,1.3,0.5c0.4,0.3,0.5,0.7,0.6,1.2h-0.8c0-0.3-0.1-0.6-0.3-0.8s-0.5-0.3-0.8-0.3c-0.4,0-0.7,0.1-1,0.4   c-0.2,0.3-0.3,0.7-0.3,1.3v0.2c0,0.5,0.1,1,0.3,1.3S541,563.8,541.5,563.8z"/>
	<path class="st5" d="M546.2,564.5c-0.6,0-1.2-0.2-1.6-0.6c-0.4-0.4-0.6-1-0.6-1.7v-0.1c0-0.5,0.1-0.9,0.3-1.3   c0.2-0.4,0.4-0.7,0.8-0.9c0.3-0.2,0.7-0.3,1.1-0.3c0.6,0,1.1,0.2,1.4,0.6c0.3,0.4,0.5,1,0.5,1.8v0.3h-3.2c0,0.5,0.1,0.8,0.4,1.1   c0.3,0.3,0.6,0.4,1,0.4c0.3,0,0.5-0.1,0.7-0.2c0.2-0.1,0.4-0.3,0.5-0.5l0.5,0.4C547.6,564.2,547,564.5,546.2,564.5z M546.1,560.2   c-0.3,0-0.6,0.1-0.8,0.4c-0.2,0.2-0.4,0.6-0.4,1h2.4v-0.1c0-0.4-0.1-0.7-0.3-1C546.8,560.3,546.5,560.2,546.1,560.2z"/>
	<path class="st5" d="M551.3,558.4c0-0.1,0-0.2,0.1-0.3s0.2-0.1,0.4-0.1s0.3,0,0.4,0.1c0.1,0.1,0.1,0.2,0.1,0.3s0,0.2-0.1,0.3   s-0.2,0.1-0.4,0.1s-0.3,0-0.4-0.1C551.3,558.6,551.3,558.5,551.3,558.4z M552.1,564.4h-0.8v-4.8h0.8V564.4z"/>
	<path class="st5" d="M554.2,559.6v0.6c0.4-0.5,0.8-0.7,1.4-0.7c1,0,1.5,0.6,1.5,1.7v3.1h-0.8v-3.1c0-0.3-0.1-0.6-0.2-0.8   c-0.2-0.2-0.4-0.2-0.7-0.2s-0.5,0.1-0.7,0.2c-0.2,0.1-0.4,0.3-0.5,0.6v3.4h-0.8v-4.8H554.2L554.2,559.6z"/>
	<path class="st5" d="M559.5,558.5v1.2h0.9v0.6h-0.9v3c0,0.2,0,0.3,0.1,0.4c0.1,0.1,0.2,0.1,0.4,0.1c0.1,0,0.2,0,0.4-0.1v0.7   c-0.2,0.1-0.4,0.1-0.6,0.1c-0.4,0-0.6-0.1-0.8-0.3s-0.3-0.5-0.3-0.9v-2.9h-0.9v-0.6h0.9v-1.2L559.5,558.5L559.5,558.5L559.5,558.5z   "/>
	<path class="st5" d="M563.3,564.5c-0.6,0-1.2-0.2-1.6-0.6c-0.4-0.4-0.6-1-0.6-1.7v-0.1c0-0.5,0.1-0.9,0.3-1.3   c0.2-0.4,0.4-0.7,0.8-0.9c0.3-0.2,0.7-0.3,1.1-0.3c0.6,0,1.1,0.2,1.4,0.6c0.3,0.4,0.5,1,0.5,1.8v0.3H562c0,0.5,0.1,0.8,0.4,1.1   c0.3,0.3,0.6,0.4,1,0.4c0.3,0,0.5-0.1,0.7-0.2c0.2-0.1,0.4-0.3,0.5-0.5l0.5,0.4C564.7,564.2,564.1,564.5,563.3,564.5z M563.2,560.2   c-0.3,0-0.6,0.1-0.8,0.4c-0.2,0.2-0.4,0.6-0.4,1h2.4v-0.1c0-0.4-0.1-0.7-0.3-1C563.8,560.3,563.6,560.2,563.2,560.2z"/>
	<path class="st5" d="M568.4,560.3c-0.1,0-0.3,0-0.4,0c-0.5,0-0.9,0.2-1.1,0.7v3.4h-0.8v-4.8h0.8v0.5c0.3-0.4,0.6-0.6,1.1-0.6   c0.2,0,0.3,0,0.4,0.1V560.3z"/>
	<path class="st5" d="M570.8,563.3l1.2-3.7h0.8l-1.7,4.8h-0.6l-1.7-4.8h0.8L570.8,563.3z"/>
	<path class="st5" d="M576.5,564.4c0-0.1-0.1-0.3-0.1-0.5c-0.4,0.4-0.8,0.6-1.4,0.6c-0.5,0-0.9-0.1-1.2-0.4s-0.5-0.6-0.5-1   c0-0.5,0.2-0.9,0.6-1.2c0.4-0.3,0.9-0.4,1.6-0.4h0.8v-0.4c0-0.3-0.1-0.5-0.3-0.7s-0.4-0.3-0.8-0.3c-0.3,0-0.5,0.1-0.7,0.2   c-0.2,0.1-0.3,0.3-0.3,0.5h-0.8c0-0.2,0.1-0.5,0.3-0.7s0.4-0.4,0.7-0.5s0.6-0.2,1-0.2c0.5,0,1,0.1,1.3,0.4s0.5,0.7,0.5,1.1v2.2   c0,0.4,0.1,0.8,0.2,1v0.1h-0.9L576.5,564.4L576.5,564.4z M575.1,563.7c0.3,0,0.5-0.1,0.7-0.2c0.2-0.1,0.4-0.3,0.5-0.5v-1h-0.6   c-1,0-1.5,0.3-1.5,0.9c0,0.3,0.1,0.5,0.3,0.6S574.9,563.7,575.1,563.7z"/>
	<path class="st5" d="M579.3,564.4h-0.8v-6.8h0.8V564.4z"/>
	<path class="st5" d="M580.6,563.9c0-0.1,0-0.3,0.1-0.4c0.1-0.1,0.2-0.1,0.4-0.1s0.3,0,0.4,0.1c0.1,0.1,0.1,0.2,0.1,0.4   c0,0.1,0,0.2-0.1,0.3s-0.2,0.1-0.4,0.1s-0.3,0-0.4-0.1C580.7,564.2,580.6,564.1,580.6,563.9z"/>
</g>
<g>
	<g>
		<path class="st3" d="M51,312.1c0,1.7-0.3,3-0.9,3.8c-0.6,0.8-1.5,1.2-2.7,1.2s-2.1-0.4-2.7-1.2c-0.6-0.8-0.9-2-0.9-3.6v-1.9    c0-1.7,0.3-2.9,0.9-3.7s1.5-1.2,2.7-1.2s2.1,0.4,2.7,1.2c0.6,0.8,0.9,2,0.9,3.6V312.1z M49.6,310.2c0-1.2-0.2-2.1-0.5-2.7    s-0.9-0.8-1.6-0.8c-0.7,0-1.3,0.3-1.6,0.8c-0.3,0.6-0.5,1.4-0.5,2.6v2.3c0,1.2,0.2,2.1,0.5,2.7c0.4,0.6,0.9,0.9,1.6,0.9    c0.7,0,1.2-0.3,1.6-0.8c0.3-0.6,0.5-1.4,0.5-2.6V310.2z"/>
	</g>
</g>
<g>
	<g>
		<path class="st3" d="M89.9,317h-1.5v-9.6l-2.9,1.1v-1.3l4.1-1.6h0.2V317H89.9z"/>
		<path class="st3" d="M101.2,312.1c0,1.7-0.3,3-0.9,3.8s-1.5,1.2-2.7,1.2s-2.1-0.4-2.7-1.2c-0.6-0.8-0.9-2-0.9-3.6v-1.9    c0-1.7,0.3-2.9,0.9-3.7s1.5-1.2,2.7-1.2s2.1,0.4,2.7,1.2c0.6,0.8,0.9,2,0.9,3.6V312.1z M99.8,310.2c0-1.2-0.2-2.1-0.5-2.7    s-0.9-0.8-1.6-0.8s-1.3,0.3-1.6,0.8c-0.3,0.6-0.5,1.4-0.5,2.6v2.3c0,1.2,0.2,2.1,0.5,2.7c0.4,0.6,0.9,0.9,1.6,0.9s1.2-0.3,1.6-0.8    c0.3-0.6,0.5-1.4,0.5-2.6V310.2z"/>
	</g>
</g>
<g>
	<g>
		<path class="st3" d="M138.3,317h-7.5v-1l3.9-4.4c0.6-0.7,1-1.2,1.2-1.6s0.3-0.8,0.3-1.3c0-0.6-0.2-1.1-0.5-1.5    c-0.4-0.4-0.8-0.6-1.4-0.6c-0.7,0-1.3,0.2-1.7,0.6s-0.6,1-0.6,1.7h-1.4c0-1,0.3-1.9,1-2.5s1.6-1,2.7-1c1.1,0,1.9,0.3,2.5,0.8    c0.6,0.6,0.9,1.3,0.9,2.2c0,1.1-0.7,2.5-2.1,4l-3,3.3h5.7L138.3,317L138.3,317z"/>
		<path class="st3" d="M147,312.1c0,1.7-0.3,3-0.9,3.8c-0.6,0.8-1.5,1.2-2.7,1.2s-2.1-0.4-2.7-1.2c-0.6-0.8-0.9-2-0.9-3.6v-1.9    c0-1.7,0.3-2.9,0.9-3.7s1.5-1.2,2.7-1.2s2.1,0.4,2.7,1.2c0.6,0.8,0.9,2,0.9,3.6V312.1z M145.5,310.2c0-1.2-0.2-2.1-0.5-2.7    s-0.9-0.8-1.6-0.8c-0.7,0-1.3,0.3-1.6,0.8c-0.3,0.6-0.5,1.4-0.5,2.6v2.3c0,1.2,0.2,2.1,0.5,2.7c0.4,0.6,0.9,0.9,1.6,0.9    c0.7,0,1.2-0.3,1.6-0.8c0.3-0.6,0.5-1.4,0.5-2.6V310.2z"/>
	</g>
</g>
<g>
	<g>
		<path class="st3" d="M178.7,310.6h1.1c0.7,0,1.2-0.2,1.6-0.5c0.4-0.3,0.6-0.8,0.6-1.4c0-1.3-0.7-2-2-2c-0.6,0-1.1,0.2-1.5,0.5    c-0.4,0.4-0.6,0.8-0.6,1.4h-1.4c0-0.9,0.3-1.6,1-2.2s1.5-0.9,2.5-0.9c1.1,0,1.9,0.3,2.5,0.9s0.9,1.4,0.9,2.4c0,0.5-0.2,1-0.5,1.4    c-0.3,0.5-0.8,0.8-1.3,1c0.6,0.2,1.1,0.5,1.4,1c0.3,0.5,0.5,1,0.5,1.7c0,1-0.3,1.8-1,2.4s-1.5,0.9-2.6,0.9s-1.9-0.3-2.6-0.9    c-0.7-0.6-1-1.3-1-2.3h1.5c0,0.6,0.2,1.1,0.6,1.4s0.9,0.5,1.6,0.5c0.7,0,1.2-0.2,1.6-0.5c0.4-0.4,0.6-0.9,0.6-1.6    s-0.2-1.2-0.6-1.5c-0.4-0.4-1-0.5-1.8-0.5h-1.1V310.6z"/>
		<path class="st3" d="M192.7,312.1c0,1.7-0.3,3-0.9,3.8c-0.6,0.8-1.5,1.2-2.7,1.2s-2.1-0.4-2.7-1.2c-0.6-0.8-0.9-2-0.9-3.6v-1.9    c0-1.7,0.3-2.9,0.9-3.7s1.5-1.2,2.7-1.2s2.1,0.4,2.7,1.2c0.6,0.8,0.9,2,0.9,3.6V312.1z M191.2,310.2c0-1.2-0.2-2.1-0.5-2.7    s-0.9-0.8-1.6-0.8c-0.7,0-1.3,0.3-1.6,0.8c-0.3,0.6-0.5,1.4-0.5,2.6v2.3c0,1.2,0.2,2.1,0.5,2.7c0.4,0.6,0.9,0.9,1.6,0.9    c0.7,0,1.2-0.3,1.6-0.8c0.3-0.6,0.5-1.4,0.5-2.6V310.2z"/>
	</g>
</g>
<g>
	<g>
		<path class="st3" d="M228.4,313.2h1.6v1.2h-1.6v2.6h-1.5v-2.6h-5.2v-0.9l5.1-7.9h1.5L228.4,313.2L228.4,313.2z M223.4,313.2h3.5    v-5.6l-0.2,0.3L223.4,313.2z"/>
		<path class="st3" d="M238.4,312.1c0,1.7-0.3,3-0.9,3.8c-0.6,0.8-1.5,1.2-2.7,1.2s-2.1-0.4-2.7-1.2s-0.9-2-0.9-3.6v-1.9    c0-1.7,0.3-2.9,0.9-3.7s1.5-1.2,2.7-1.2s2.1,0.4,2.7,1.2c0.6,0.8,0.9,2,0.9,3.6V312.1z M237,310.2c0-1.2-0.2-2.1-0.5-2.7    s-0.9-0.8-1.6-0.8c-0.7,0-1.3,0.3-1.6,0.8c-0.3,0.6-0.5,1.4-0.5,2.6v2.3c0,1.2,0.2,2.1,0.5,2.7s0.9,0.9,1.6,0.9    c0.7,0,1.2-0.3,1.6-0.8c0.3-0.6,0.5-1.4,0.5-2.6V310.2z"/>
	</g>
</g>
<g>
	<g>
		<path class="st3" d="M268.7,311.3l0.6-5.7h5.8v1.3h-4.6l-0.3,3.1c0.6-0.3,1.2-0.5,1.9-0.5c1,0,1.9,0.3,2.5,1s0.9,1.6,0.9,2.8    c0,1.2-0.3,2.1-0.9,2.8c-0.6,0.7-1.5,1-2.7,1c-1,0-1.8-0.3-2.5-0.8c-0.6-0.6-1-1.3-1.1-2.3h1.4c0.1,0.7,0.3,1.1,0.7,1.5    c0.4,0.3,0.9,0.5,1.5,0.5c0.7,0,1.2-0.2,1.6-0.7s0.6-1.1,0.6-1.9s-0.2-1.4-0.6-1.8s-1-0.7-1.7-0.7c-0.6,0-1.1,0.1-1.5,0.4    l-0.4,0.3L268.7,311.3z"/>
		<path class="st3" d="M284.1,312.1c0,1.7-0.3,3-0.9,3.8s-1.5,1.2-2.7,1.2s-2.1-0.4-2.7-1.2s-0.9-2-0.9-3.6v-1.9    c0-1.7,0.3-2.9,0.9-3.7s1.5-1.2,2.7-1.2s2.1,0.4,2.7,1.2c0.6,0.8,0.9,2,0.9,3.6V312.1z M282.7,310.2c0-1.2-0.2-2.1-0.5-2.7    s-0.9-0.8-1.6-0.8s-1.3,0.3-1.6,0.8c-0.3,0.6-0.5,1.4-0.5,2.6v2.3c0,1.2,0.2,2.1,0.5,2.7s0.9,0.9,1.6,0.9s1.2-0.3,1.6-0.8    c0.3-0.6,0.5-1.4,0.5-2.6V310.2z"/>
	</g>
</g>
<g>
	<g>
		<path class="st3" d="M319.4,305.6v1.2h-0.3c-1.1,0-2,0.4-2.7,1s-1.1,1.6-1.2,2.7c0.6-0.7,1.4-1,2.5-1c1,0,1.8,0.3,2.4,1    s0.9,1.6,0.9,2.7c0,1.2-0.3,2.1-1,2.8s-1.5,1.1-2.6,1.1s-2-0.4-2.6-1.3s-1-1.9-1-3.2V312c0-2.1,0.4-3.7,1.3-4.8    c0.9-1.1,2.2-1.7,4-1.7L319.4,305.6L319.4,305.6z M317.5,310.7c-0.5,0-1,0.1-1.4,0.4s-0.7,0.7-0.9,1.1v0.5c0,0.9,0.2,1.7,0.6,2.3    c0.4,0.6,0.9,0.9,1.6,0.9s1.2-0.2,1.5-0.7c0.4-0.5,0.6-1.1,0.6-1.9s-0.2-1.4-0.6-1.9C318.6,311,318.1,310.7,317.5,310.7z"/>
		<path class="st3" d="M329.9,312.1c0,1.7-0.3,3-0.9,3.8s-1.5,1.2-2.7,1.2s-2.1-0.4-2.7-1.2s-0.9-2-0.9-3.6v-1.9    c0-1.7,0.3-2.9,0.9-3.7s1.5-1.2,2.7-1.2s2.1,0.4,2.7,1.2c0.6,0.8,0.9,2,0.9,3.6V312.1z M328.4,310.2c0-1.2-0.2-2.1-0.5-2.7    s-0.9-0.8-1.6-0.8s-1.3,0.3-1.6,0.8c-0.3,0.6-0.5,1.4-0.5,2.6v2.3c0,1.2,0.2,2.1,0.5,2.7s0.9,0.9,1.6,0.9s1.2-0.3,1.6-0.8    c0.3-0.6,0.5-1.4,0.5-2.6V310.2z"/>
	</g>
</g>
<g>
	<g>
		<path class="st3" d="M366.8,306.4l-4.7,10.6h-1.5l4.7-10.2h-6.2v-1.2h7.7V306.4z"/>
		<path class="st3" d="M375.6,312.1c0,1.7-0.3,3-0.9,3.8s-1.5,1.2-2.7,1.2s-2.1-0.4-2.7-1.2c-0.6-0.8-0.9-2-0.9-3.6v-1.9    c0-1.7,0.3-2.9,0.9-3.7s1.5-1.2,2.7-1.2s2.1,0.4,2.7,1.2c0.6,0.8,0.9,2,0.9,3.6V312.1z M374.1,310.2c0-1.2-0.2-2.1-0.5-2.7    s-0.9-0.8-1.6-0.8s-1.3,0.3-1.6,0.8c-0.3,0.6-0.5,1.4-0.5,2.6v2.3c0,1.2,0.2,2.1,0.5,2.7c0.4,0.6,0.9,0.9,1.6,0.9s1.2-0.3,1.6-0.8    c0.3-0.6,0.5-1.4,0.5-2.6V310.2z"/>
	</g>
</g>
<g>
	<g>
		<path class="st3" d="M412.1,308.6c0,0.6-0.2,1.1-0.4,1.5c-0.3,0.4-0.7,0.8-1.2,1c0.6,0.3,1.1,0.6,1.4,1.1s0.5,1,0.5,1.7    c0,1-0.3,1.8-1,2.4s-1.5,0.9-2.6,0.9s-2-0.3-2.6-0.9c-0.7-0.6-1-1.4-1-2.3c0-0.6,0.2-1.2,0.5-1.7s0.8-0.9,1.4-1.1    c-0.5-0.2-0.9-0.6-1.2-1c-0.3-0.4-0.4-0.9-0.4-1.5c0-1,0.3-1.7,0.9-2.3c0.6-0.6,1.4-0.8,2.4-0.8s1.8,0.3,2.4,0.8    S412.1,307.6,412.1,308.6z M410.9,313.9c0-0.6-0.2-1.2-0.6-1.6s-0.9-0.6-1.6-0.6s-1.2,0.2-1.6,0.6s-0.6,0.9-0.6,1.6    c0,0.6,0.2,1.2,0.6,1.5c0.4,0.4,0.9,0.6,1.6,0.6s1.2-0.2,1.6-0.6C410.7,315,410.9,314.5,410.9,313.9z M408.7,306.6    c-0.6,0-1,0.2-1.4,0.5s-0.5,0.8-0.5,1.4s0.2,1,0.5,1.4s0.8,0.5,1.4,0.5s1-0.2,1.4-0.5c0.3-0.4,0.5-0.8,0.5-1.4s-0.2-1-0.5-1.4    C409.8,306.8,409.3,306.6,408.7,306.6z"/>
		<path class="st3" d="M421.3,312.1c0,1.7-0.3,3-0.9,3.8s-1.5,1.2-2.7,1.2s-2.1-0.4-2.7-1.2c-0.6-0.8-0.9-2-0.9-3.6v-1.9    c0-1.7,0.3-2.9,0.9-3.7s1.5-1.2,2.7-1.2s2.1,0.4,2.7,1.2c0.6,0.8,0.9,2,0.9,3.6V312.1z M419.9,310.2c0-1.2-0.2-2.1-0.5-2.7    s-0.9-0.8-1.6-0.8s-1.3,0.3-1.6,0.8c-0.3,0.6-0.5,1.4-0.5,2.6v2.3c0,1.2,0.2,2.1,0.5,2.7c0.4,0.6,0.9,0.9,1.6,0.9s1.2-0.3,1.6-0.8    c0.3-0.6,0.5-1.4,0.5-2.6V310.2z"/>
	</g>
</g>
<g>
	<polygon class="st5" points="413.9,288.3 369.6,278.6 324,271.9 277.2,265.8 232.2,264.5 184.4,262.5 184.2,262.4 139.1,249.7    116.3,240.9 93,227.4 71.5,205 47.7,172.9 48,168.3 73.8,203.2 94.9,225 117.7,238.2 140.1,246.8 184.9,259.5 232.3,261.5    277.5,262.8 324.4,269 370.2,275.6 414.5,285.4  "/>
</g>
<line class="st8" x1="47.9" y1="295.6" x2="47.9" y2="62.8"/>
<line class="st0" x1="414.3" y1="63.3" x2="414.3" y2="295.1"/>
<rect x="149.5" y="71.1" class="st9" width="251.6" height="34.4"/>
<g>
	<g>
		<path class="st3" d="M162.5,80.9l1.5-4.8h1.2l-2.5,7.3c-0.4,1.1-1,1.6-1.9,1.6h-0.2l-0.4-0.1V84h0.3c0.4,0,0.7-0.1,0.9-0.2    s0.4-0.4,0.5-0.8l0.2-0.6l-2.3-6.3h1.2L162.5,80.9z"/>
		<path class="st3" d="M173.9,77.7H169v-0.9h4.9V77.7z M173.9,80.1H169v-0.9h4.9V80.1z"/>
		<path class="st3" d="M180.9,81.7c0.4,0,0.7-0.1,1-0.4s0.4-0.5,0.5-0.9h1c0,0.4-0.1,0.7-0.4,1s-0.5,0.6-0.9,0.8s-0.8,0.3-1.2,0.3    c-0.9,0-1.5-0.3-2.1-0.9s-0.8-1.4-0.8-2.4V79c0-0.6,0.1-1.2,0.3-1.6s0.6-0.9,1-1.1s0.9-0.4,1.5-0.4c0.7,0,1.3,0.2,1.8,0.6    s0.7,1,0.8,1.7h-1c0-0.4-0.2-0.7-0.5-1s-0.6-0.4-1-0.4c-0.6,0-1,0.2-1.3,0.6s-0.5,1-0.5,1.7v0.2c0,0.7,0.2,1.3,0.5,1.7    S180.3,81.7,180.9,81.7z"/>
		<path class="st3" d="M188.5,82.5c-0.1-0.1-0.1-0.3-0.2-0.7c-0.5,0.5-1.1,0.8-1.8,0.8c-0.6,0-1.1-0.2-1.5-0.5s-0.6-0.8-0.6-1.3    c0-0.7,0.3-1.2,0.8-1.5s1.2-0.5,2.1-0.5h1.1v-0.5c0-0.4-0.1-0.7-0.3-0.9s-0.6-0.3-1-0.3s-0.7,0.1-1,0.3s-0.4,0.4-0.4,0.7h-1.1    c0-0.3,0.1-0.6,0.3-0.9s0.5-0.5,0.9-0.7s0.8-0.3,1.3-0.3c0.7,0,1.3,0.2,1.7,0.5s0.6,0.9,0.6,1.5V81c0,0.6,0.1,1,0.2,1.4v0.1H188.5    z M186.7,81.6c0.3,0,0.7-0.1,1-0.3s0.5-0.4,0.7-0.7v-1.3h-0.8c-1.3,0-2,0.4-2,1.2c0,0.3,0.1,0.6,0.3,0.8S186.3,81.6,186.7,81.6z"/>
		<path class="st3" d="M194.7,80.8c0-0.3-0.1-0.5-0.3-0.7s-0.6-0.3-1.2-0.4s-1-0.3-1.3-0.4s-0.6-0.4-0.7-0.6s-0.2-0.5-0.2-0.8    c0-0.5,0.2-1,0.7-1.3s1-0.5,1.7-0.5s1.3,0.2,1.7,0.6s0.7,0.8,0.7,1.4h-1.1c0-0.3-0.1-0.6-0.4-0.8s-0.6-0.3-1-0.3s-0.7,0.1-0.9,0.3    s-0.3,0.4-0.3,0.7c0,0.3,0.1,0.5,0.3,0.6s0.6,0.3,1.1,0.4s1,0.3,1.3,0.4s0.6,0.4,0.7,0.6s0.2,0.5,0.2,0.9c0,0.6-0.2,1-0.7,1.4    s-1,0.5-1.8,0.5c-0.5,0-1-0.1-1.3-0.3s-0.7-0.4-0.9-0.8s-0.3-0.7-0.3-1h1.1c0,0.4,0.2,0.7,0.4,0.9s0.6,0.3,1.1,0.3    c0.4,0,0.7-0.1,1-0.2S194.7,81.1,194.7,80.8z"/>
		<path class="st3" d="M199.8,82.6c-0.9,0-1.6-0.3-2.1-0.8s-0.8-1.3-0.8-2.3v-0.2c0-0.6,0.1-1.2,0.4-1.7s0.6-0.9,1-1.2    s0.9-0.4,1.4-0.4c0.8,0,1.5,0.3,1.9,0.8s0.7,1.3,0.7,2.3v0.5H198c0,0.6,0.2,1.1,0.5,1.5s0.8,0.6,1.3,0.6c0.4,0,0.7-0.1,1-0.2    s0.5-0.4,0.7-0.6l0.7,0.5C201.6,82.2,200.8,82.6,199.8,82.6z M199.6,76.9c-0.4,0-0.8,0.2-1.1,0.5s-0.5,0.8-0.6,1.3h3.2v-0.1    c0-0.6-0.2-1-0.4-1.3S200.1,76.9,199.6,76.9z"/>
		<path class="st3" d="M207.1,80.8c0-0.3-0.1-0.5-0.3-0.7s-0.6-0.3-1.2-0.4s-1-0.3-1.3-0.4s-0.6-0.4-0.7-0.6s-0.2-0.5-0.2-0.8    c0-0.5,0.2-1,0.7-1.3s1-0.5,1.7-0.5s1.3,0.2,1.7,0.6s0.7,0.8,0.7,1.4H207c0-0.3-0.1-0.6-0.4-0.8s-0.6-0.3-1-0.3s-0.7,0.1-0.9,0.3    s-0.3,0.4-0.3,0.7c0,0.3,0.1,0.5,0.3,0.6s0.6,0.3,1.1,0.4s1,0.3,1.3,0.4s0.6,0.4,0.7,0.6s0.2,0.5,0.2,0.9c0,0.6-0.2,1-0.7,1.4    s-1,0.5-1.8,0.5c-0.5,0-1-0.1-1.3-0.3s-0.7-0.4-0.9-0.8s-0.3-0.7-0.3-1h1.1c0,0.4,0.2,0.7,0.4,0.9s0.6,0.3,1.1,0.3    c0.4,0,0.7-0.1,1-0.2S207.1,81.1,207.1,80.8z"/>
		<path class="st3" d="M217.8,79.4c0,1-0.2,1.7-0.7,2.3s-1,0.9-1.8,0.9s-1.4-0.2-1.8-0.7V85h-1.1v-8.8h1l0.1,0.7    c0.4-0.5,1.1-0.8,1.8-0.8c0.8,0,1.4,0.3,1.8,0.9S217.8,78.2,217.8,79.4L217.8,79.4z M216.7,79.2c0-0.7-0.2-1.3-0.5-1.7    s-0.7-0.6-1.3-0.6c-0.7,0-1.1,0.3-1.5,0.9v3c0.3,0.6,0.8,0.9,1.5,0.9c0.5,0,0.9-0.2,1.2-0.6S216.7,80.1,216.7,79.2z"/>
		<path class="st3" d="M221.7,82.6c-0.9,0-1.6-0.3-2.1-0.8s-0.8-1.3-0.8-2.3v-0.2c0-0.6,0.1-1.2,0.4-1.7s0.6-0.9,1-1.2    s0.9-0.4,1.4-0.4c0.8,0,1.5,0.3,1.9,0.8s0.7,1.3,0.7,2.3v0.5h-4.3c0,0.6,0.2,1.1,0.5,1.5s0.8,0.6,1.3,0.6c0.4,0,0.7-0.1,1-0.2    s0.5-0.4,0.7-0.6l0.7,0.5C223.6,82.2,222.8,82.6,221.7,82.6z M221.6,76.9c-0.4,0-0.8,0.2-1.1,0.5s-0.5,0.8-0.6,1.3h3.2v-0.1    c0-0.6-0.2-1-0.4-1.3S222,76.9,221.6,76.9z"/>
		<path class="st3" d="M228.4,77.1c-0.2,0-0.3,0-0.5,0c-0.7,0-1.2,0.3-1.4,0.9v4.5h-1.1v-6.3h1.1v0.7c0.4-0.6,0.9-0.8,1.5-0.8    c0.2,0,0.4,0,0.5,0.1v0.9H228.4z"/>
		<path class="st3" d="M235.7,82.5h-1.1v-7.2l-2.2,0.8v-1l3.1-1.2h0.2V82.5z"/>
		<path class="st3" d="M244.2,78.8c0,1.3-0.2,2.2-0.7,2.8s-1.1,0.9-2,0.9s-1.6-0.3-2-0.9s-0.7-1.5-0.7-2.7v-1.4    c0-1.3,0.2-2.2,0.7-2.8s1.1-0.9,2-0.9s1.6,0.3,2,0.9s0.7,1.5,0.7,2.7V78.8z M243.1,77.3c0-0.9-0.1-1.6-0.4-2s-0.7-0.6-1.2-0.6    c-0.6,0-1,0.2-1.2,0.6s-0.4,1.1-0.4,1.9V79c0,0.9,0.1,1.6,0.4,2s0.7,0.7,1.2,0.7s0.9-0.2,1.2-0.6s0.4-1.1,0.4-2V77.3z"/>
		<path class="st3" d="M250.8,78.8c0,1.3-0.2,2.2-0.7,2.8s-1.1,0.9-2,0.9s-1.6-0.3-2-0.9s-0.7-1.5-0.7-2.7v-1.4    c0-1.3,0.2-2.2,0.7-2.8s1.1-0.9,2-0.9s1.6,0.3,2,0.9s0.7,1.5,0.7,2.7V78.8z M249.8,77.3c0-0.9-0.1-1.6-0.4-2s-0.7-0.6-1.2-0.6    c-0.6,0-1,0.2-1.2,0.6s-0.4,1.1-0.4,1.9V79c0,0.9,0.1,1.6,0.4,2s0.7,0.7,1.2,0.7s0.9-0.2,1.2-0.6s0.4-1.1,0.4-2V77.3z"/>
		<path class="st3" d="M252.2,84.2l-0.6-0.4c0.4-0.5,0.6-1,0.6-1.6v-1h1.1V82c0,0.4-0.1,0.8-0.3,1.2S252.5,83.9,252.2,84.2z"/>
		<path class="st3" d="M259.8,78.8c0,1.3-0.2,2.2-0.7,2.8s-1.1,0.9-2,0.9s-1.6-0.3-2-0.9s-0.7-1.5-0.7-2.7v-1.4    c0-1.3,0.2-2.2,0.7-2.8s1.1-0.9,2-0.9s1.6,0.3,2,0.9s0.7,1.5,0.7,2.7V78.8z M258.7,77.3c0-0.9-0.1-1.6-0.4-2s-0.7-0.6-1.2-0.6    c-0.6,0-1,0.2-1.2,0.6s-0.4,1.1-0.4,1.9V79c0,0.9,0.1,1.6,0.4,2c0.3,0.4,0.7,0.7,1.2,0.7s0.9-0.2,1.2-0.6s0.4-1.1,0.4-2V77.3z"/>
		<path class="st3" d="M266.5,78.8c0,1.3-0.2,2.2-0.7,2.8s-1.1,0.9-2,0.9s-1.6-0.3-2-0.9s-0.7-1.5-0.7-2.7v-1.4    c0-1.3,0.2-2.2,0.7-2.8s1.1-0.9,2-0.9s1.6,0.3,2,0.9s0.7,1.5,0.7,2.7V78.8z M265.4,77.3c0-0.9-0.1-1.6-0.4-2s-0.7-0.6-1.2-0.6    c-0.6,0-1,0.2-1.2,0.6s-0.4,1.1-0.4,1.9V79c0,0.9,0.1,1.6,0.4,2s0.7,0.7,1.2,0.7s0.9-0.2,1.2-0.6s0.4-1.1,0.4-2V77.3z"/>
		<path class="st3" d="M273.1,78.8c0,1.3-0.2,2.2-0.7,2.8s-1.1,0.9-2,0.9s-1.6-0.3-2-0.9s-0.7-1.5-0.7-2.7v-1.4    c0-1.3,0.2-2.2,0.7-2.8s1.1-0.9,2-0.9s1.6,0.3,2,0.9s0.7,1.5,0.7,2.7V78.8z M272,77.3c0-0.9-0.1-1.6-0.4-2s-0.7-0.6-1.2-0.6    c-0.6,0-1,0.2-1.2,0.6s-0.4,1.1-0.4,1.9V79c0,0.9,0.1,1.6,0.4,2s0.7,0.7,1.2,0.7s0.9-0.2,1.2-0.6s0.4-1.1,0.4-2V77.3z"/>
		<path class="st3" d="M281.4,82.5c-0.1-0.1-0.1-0.3-0.2-0.7c-0.5,0.5-1.1,0.8-1.8,0.8c-0.6,0-1.1-0.2-1.5-0.5s-0.6-0.8-0.6-1.3    c0-0.7,0.3-1.2,0.8-1.5s1.2-0.5,2.1-0.5h1.1v-0.5c0-0.4-0.1-0.7-0.3-0.9s-0.6-0.3-1-0.3s-0.7,0.1-1,0.3s-0.4,0.4-0.4,0.7h-1.1    c0-0.3,0.1-0.6,0.3-0.9s0.5-0.5,0.9-0.7s0.8-0.3,1.3-0.3c0.7,0,1.3,0.2,1.7,0.5s0.6,0.9,0.6,1.5V81c0,0.6,0.1,1,0.2,1.4v0.1H281.4    z M279.6,81.6c0.3,0,0.7-0.1,1-0.3s0.5-0.4,0.7-0.7v-1.3h-0.8c-1.3,0-2,0.4-2,1.2c0,0.3,0.1,0.6,0.3,0.8S279.2,81.6,279.6,81.6z"/>
		<path class="st3" d="M283.6,79.2c0-1,0.2-1.8,0.7-2.4s1.1-0.9,1.8-0.9c0.8,0,1.4,0.3,1.8,0.8L288,76h1v6.2c0,0.8-0.2,1.5-0.7,1.9    s-1.1,0.7-2,0.7c-0.5,0-0.9-0.1-1.3-0.3s-0.8-0.5-1-0.8l0.6-0.7c0.5,0.6,1,0.9,1.7,0.9c0.5,0,0.9-0.1,1.2-0.4s0.4-0.7,0.4-1.3    v-0.5c-0.4,0.5-1,0.8-1.8,0.8c-0.7,0-1.3-0.3-1.8-0.9S283.6,80.3,283.6,79.2z M284.7,79.4c0,0.7,0.1,1.3,0.4,1.7s0.7,0.6,1.2,0.6    c0.7,0,1.2-0.3,1.5-0.9v-2.9c-0.3-0.6-0.8-0.9-1.5-0.9c-0.5,0-0.9,0.2-1.2,0.6S284.7,78.6,284.7,79.4z"/>
		<path class="st3" d="M293.2,82.6c-0.9,0-1.6-0.3-2.1-0.8s-0.8-1.3-0.8-2.3v-0.2c0-0.6,0.1-1.2,0.4-1.7s0.6-0.9,1-1.2    s0.9-0.4,1.4-0.4c0.8,0,1.5,0.3,1.9,0.8s0.7,1.3,0.7,2.3v0.5h-4.3c0,0.6,0.2,1.1,0.5,1.5s0.8,0.6,1.3,0.6c0.4,0,0.7-0.1,1-0.2    s0.5-0.4,0.7-0.6l0.7,0.5C295,82.2,294.3,82.6,293.2,82.6z M293.1,76.9c-0.4,0-0.8,0.2-1.1,0.5s-0.5,0.8-0.6,1.3h3.2v-0.1    c0-0.6-0.2-1-0.4-1.3S293.5,76.9,293.1,76.9z"/>
		<path class="st3" d="M299.1,79.3h-2.9v-0.9h2.9V79.3z"/>
		<path class="st3" d="M305.4,79.4c0,1-0.2,1.7-0.7,2.3s-1,0.9-1.8,0.9s-1.4-0.2-1.8-0.7V85H300v-8.8h1l0.1,0.7    c0.4-0.5,1.1-0.8,1.8-0.8c0.8,0,1.4,0.3,1.8,0.9S305.4,78.2,305.4,79.4L305.4,79.4z M304.4,79.2c0-0.7-0.2-1.3-0.5-1.7    s-0.7-0.6-1.3-0.6c-0.7,0-1.1,0.3-1.5,0.9v3c0.3,0.6,0.8,0.9,1.5,0.9c0.5,0,0.9-0.2,1.2-0.6S304.4,80.1,304.4,79.2z"/>
		<path class="st3" d="M309.4,82.6c-0.9,0-1.6-0.3-2.1-0.8s-0.8-1.3-0.8-2.3v-0.2c0-0.6,0.1-1.2,0.4-1.7s0.6-0.9,1-1.2    s0.9-0.4,1.4-0.4c0.8,0,1.5,0.3,1.9,0.8s0.7,1.3,0.7,2.3v0.5h-4.3c0,0.6,0.2,1.1,0.5,1.5s0.8,0.6,1.3,0.6c0.4,0,0.7-0.1,1-0.2    s0.5-0.4,0.7-0.6l0.7,0.5C311.2,82.2,310.4,82.6,309.4,82.6z M309.2,76.9c-0.4,0-0.8,0.2-1.1,0.5s-0.5,0.8-0.6,1.3h3.2v-0.1    c0-0.6-0.2-1-0.4-1.3S309.7,76.9,309.2,76.9z"/>
		<path class="st3" d="M315.7,82.6c-0.9,0-1.6-0.3-2.1-0.8s-0.8-1.3-0.8-2.3v-0.2c0-0.6,0.1-1.2,0.4-1.7s0.6-0.9,1-1.2    s0.9-0.4,1.4-0.4c0.8,0,1.5,0.3,1.9,0.8s0.7,1.3,0.7,2.3v0.5h-4.3c0,0.6,0.2,1.1,0.5,1.5s0.8,0.6,1.3,0.6c0.4,0,0.7-0.1,1-0.2    s0.5-0.4,0.7-0.6l0.7,0.5C317.5,82.2,316.7,82.6,315.7,82.6z M315.5,76.9c-0.4,0-0.8,0.2-1.1,0.5s-0.5,0.8-0.6,1.3h3.2v-0.1    c0-0.6-0.2-1-0.4-1.3S316,76.9,315.5,76.9z"/>
		<path class="st3" d="M322.4,77.1c-0.2,0-0.3,0-0.5,0c-0.7,0-1.2,0.3-1.4,0.9v4.5h-1.1v-6.3h1.1v0.7c0.4-0.6,0.9-0.8,1.5-0.8    c0.2,0,0.4,0,0.5,0.1v0.9H322.4z"/>
		<path class="st3" d="M327,80.8c0-0.3-0.1-0.5-0.3-0.7s-0.6-0.3-1.2-0.4s-1-0.3-1.3-0.4s-0.6-0.4-0.7-0.6s-0.2-0.5-0.2-0.8    c0-0.5,0.2-1,0.7-1.3s1-0.5,1.7-0.5s1.3,0.2,1.7,0.6s0.7,0.8,0.7,1.4H327c0-0.3-0.1-0.6-0.4-0.8s-0.6-0.3-1-0.3s-0.7,0.1-0.9,0.3    s-0.3,0.4-0.3,0.7c0,0.3,0.1,0.5,0.3,0.6s0.6,0.3,1.1,0.4s1,0.3,1.3,0.4s0.6,0.4,0.7,0.6s0.2,0.5,0.2,0.9c0,0.6-0.2,1-0.7,1.4    s-1,0.5-1.8,0.5c-0.5,0-1-0.1-1.3-0.3s-0.7-0.4-0.9-0.8s-0.3-0.7-0.3-1h1.1c0,0.4,0.2,0.7,0.4,0.9s0.6,0.3,1.1,0.3    c0.4,0,0.7-0.1,1-0.2S327,81.1,327,80.8z"/>
	</g>
</g>
<g>
	<g>
		<path class="st3" d="M162.3,96.5l1.4-2.3h1.3l-2.1,3.1l2.1,3.2h-1.3l-1.5-2.4l-1.5,2.4h-1.3l2.1-3.2l-2.1-3.1h1.3L162.3,96.5z"/>
		<path class="st3" d="M173.9,95.7H169v-0.9h4.9V95.7z M173.9,98.2H169v-0.9h4.9V98.2z"/>
		<path class="st3" d="M183.3,98.3h-3.6l-0.8,2.2h-1.2L181,92h1l3.3,8.5h-1.2L183.3,98.3z M180,97.3h2.9l-1.5-4L180,97.3z"/>
		<path class="st3" d="M185.9,97.3c0-1,0.2-1.8,0.7-2.4s1.1-0.9,1.8-0.9c0.8,0,1.4,0.3,1.8,0.8l0.1-0.7h1v6.2c0,0.8-0.2,1.5-0.7,1.9    s-1.1,0.7-2,0.7c-0.5,0-0.9-0.1-1.3-0.3s-0.8-0.5-1-0.8l0.6-0.7c0.5,0.6,1,0.9,1.7,0.9c0.5,0,0.9-0.1,1.2-0.4s0.4-0.7,0.4-1.3    v-0.5c-0.4,0.5-1,0.8-1.8,0.8c-0.7,0-1.3-0.3-1.8-0.9S185.9,98.3,185.9,97.3z M187,97.4c0,0.7,0.1,1.3,0.4,1.7s0.7,0.6,1.2,0.6    c0.7,0,1.2-0.3,1.5-0.9v-2.9c-0.3-0.6-0.8-0.9-1.5-0.9c-0.5,0-0.9,0.2-1.2,0.6S187,96.6,187,97.4z"/>
		<path class="st3" d="M195.4,100.6c-0.9,0-1.6-0.3-2.1-0.8s-0.8-1.3-0.8-2.3v-0.2c0-0.6,0.1-1.2,0.4-1.7s0.6-0.9,1-1.2    s0.9-0.4,1.4-0.4c0.8,0,1.5,0.3,1.9,0.8s0.7,1.3,0.7,2.3v0.5h-4.3c0,0.6,0.2,1.1,0.5,1.5s0.8,0.6,1.3,0.6c0.4,0,0.7-0.1,1-0.2    s0.5-0.4,0.7-0.6l0.7,0.5C197.3,100.2,196.5,100.6,195.4,100.6z M195.3,94.9c-0.4,0-0.8,0.2-1.1,0.5s-0.5,0.8-0.6,1.3h3.2v-0.1    c0-0.6-0.2-1-0.4-1.3S195.8,94.9,195.3,94.9z"/>
		<path class="st3" d="M205.9,100.5c-0.1-0.1-0.1-0.3-0.2-0.7c-0.5,0.5-1.1,0.8-1.8,0.8c-0.6,0-1.1-0.2-1.5-0.5s-0.6-0.8-0.6-1.3    c0-0.7,0.3-1.2,0.8-1.5s1.2-0.5,2.1-0.5h1.1v-0.5c0-0.4-0.1-0.7-0.3-0.9s-0.6-0.3-1-0.3s-0.7,0.1-1,0.3s-0.4,0.4-0.4,0.7H202    c0-0.3,0.1-0.6,0.3-0.9s0.5-0.5,0.9-0.7s0.8-0.3,1.3-0.3c0.7,0,1.3,0.2,1.7,0.5s0.6,0.9,0.6,1.5V99c0,0.6,0.1,1,0.2,1.4v0.1H205.9    z M204.1,99.7c0.3,0,0.7-0.1,1-0.3s0.5-0.4,0.7-0.7v-1.3H205c-1.3,0-2,0.4-2,1.2c0,0.3,0.1,0.6,0.3,0.8S203.8,99.7,204.1,99.7z"/>
		<path class="st3" d="M209.9,92.6v1.5h1.2V95h-1.2v3.9c0,0.3,0.1,0.4,0.2,0.6s0.3,0.2,0.5,0.2c0.1,0,0.3,0,0.5-0.1v0.9    c-0.3,0.1-0.6,0.1-0.8,0.1c-0.5,0-0.8-0.1-1.1-0.4s-0.4-0.7-0.4-1.2v-4h-1.2v-0.8h1.2v-1.5L209.9,92.6L209.9,92.6z"/>
		<path class="st3" d="M216.7,92.6v1.5h1.2V95h-1.2v3.9c0,0.3,0.1,0.4,0.2,0.6s0.3,0.2,0.5,0.2c0.1,0,0.3,0,0.5-0.1v0.9    c-0.3,0.1-0.6,0.1-0.8,0.1c-0.5,0-0.8-0.1-1.1-0.4s-0.4-0.7-0.4-1.2v-4h-1.2v-0.8h1.2v-1.5L216.7,92.6L216.7,92.6z"/>
		<path class="st3" d="M220.1,94.9c0.5-0.6,1.1-0.9,1.9-0.9c1.3,0,2,0.8,2,2.3v4.2h-1v-4.2c0-0.5-0.1-0.8-0.3-1s-0.5-0.3-1-0.3    c-0.4,0-0.7,0.1-0.9,0.3s-0.5,0.4-0.6,0.7v4.5h-1.1v-9h1.1L220.1,94.9L220.1,94.9z"/>
		<path class="st3" d="M228.2,100.6c-0.9,0-1.6-0.3-2.1-0.8s-0.8-1.3-0.8-2.3v-0.2c0-0.6,0.1-1.2,0.4-1.7s0.6-0.9,1-1.2    s0.9-0.4,1.4-0.4c0.8,0,1.5,0.3,1.9,0.8s0.7,1.3,0.7,2.3v0.5h-4.3c0,0.6,0.2,1.1,0.5,1.5s0.8,0.6,1.3,0.6c0.4,0,0.7-0.1,1-0.2    s0.5-0.4,0.7-0.6l0.7,0.5C230.1,100.2,229.3,100.6,228.2,100.6z M228.1,94.9c-0.4,0-0.8,0.2-1.1,0.5s-0.5,0.8-0.6,1.3h3.2v-0.1    c0-0.6-0.2-1-0.4-1.3S228.5,94.9,228.1,94.9z"/>
		<path class="st3" d="M236.2,92.6v1.5h1.2V95h-1.2v3.9c0,0.3,0.1,0.4,0.2,0.6s0.3,0.2,0.5,0.2c0.1,0,0.3,0,0.5-0.1v0.9    c-0.3,0.1-0.6,0.1-0.8,0.1c-0.5,0-0.8-0.1-1.1-0.4s-0.4-0.7-0.4-1.2v-4H234v-0.8h1.2v-1.5L236.2,92.6L236.2,92.6z"/>
		<path class="st3" d="M238.6,92.5c0-0.2,0.1-0.3,0.2-0.4s0.3-0.2,0.5-0.2s0.4,0.1,0.5,0.2s0.2,0.3,0.2,0.4s-0.1,0.3-0.2,0.4    s-0.3,0.2-0.5,0.2s-0.4-0.1-0.5-0.2S238.6,92.7,238.6,92.5z M239.8,100.5h-1.1v-6.3h1.1V100.5z"/>
		<path class="st3" d="M242.5,94.2v0.7c0.5-0.5,1.1-0.8,1.9-0.8c0.9,0,1.5,0.3,1.8,1c0.2-0.3,0.5-0.6,0.8-0.7s0.7-0.3,1.2-0.3    c1.4,0,2.1,0.7,2.1,2.2v4.2h-1.1v-4.2c0-0.5-0.1-0.8-0.3-1s-0.6-0.3-1-0.3s-0.7,0.1-1,0.4s-0.4,0.6-0.5,1v4.2h-1.1v-4.2    c0-0.9-0.5-1.4-1.4-1.4c-0.7,0-1.2,0.3-1.5,0.9v4.6h-1.1v-6.3L242.5,94.2L242.5,94.2z"/>
		<path class="st3" d="M254.5,100.6c-0.9,0-1.6-0.3-2.1-0.8s-0.8-1.3-0.8-2.3v-0.2c0-0.6,0.1-1.2,0.4-1.7s0.6-0.9,1-1.2    s0.9-0.4,1.4-0.4c0.8,0,1.5,0.3,1.9,0.8c0.4,0.5,0.7,1.3,0.7,2.3v0.5h-4.3c0,0.6,0.2,1.1,0.5,1.5s0.8,0.6,1.3,0.6    c0.4,0,0.7-0.1,1-0.2s0.5-0.4,0.7-0.6l0.7,0.5C256.4,100.2,255.6,100.6,254.5,100.6z M254.4,94.9c-0.4,0-0.8,0.2-1.1,0.5    s-0.5,0.8-0.6,1.3h3.2v-0.1c0-0.6-0.2-1-0.4-1.3S254.9,94.9,254.4,94.9z"/>
		<path class="st3" d="M260.8,97.3c0-0.6,0.1-1.2,0.4-1.7s0.6-0.9,1-1.1s0.9-0.4,1.5-0.4c0.9,0,1.6,0.3,2.1,0.9s0.8,1.4,0.8,2.4v0.1    c0,0.6-0.1,1.2-0.4,1.7s-0.6,0.9-1,1.1s-0.9,0.4-1.5,0.4c-0.9,0-1.6-0.3-2.1-0.9S260.8,98.3,260.8,97.3L260.8,97.3z M261.9,97.4    c0,0.7,0.2,1.3,0.5,1.7s0.8,0.6,1.3,0.6c0.6,0,1-0.2,1.3-0.6s0.5-1,0.5-1.8c0-0.7-0.2-1.3-0.5-1.7s-0.8-0.6-1.3-0.6    s-1,0.2-1.3,0.6S261.9,96.6,261.9,97.4z"/>
		<path class="st3" d="M268.4,100.5V95h-1v-0.8h1v-0.7c0-0.7,0.2-1.2,0.5-1.6s0.9-0.6,1.5-0.6c0.2,0,0.5,0,0.7,0.1l-0.1,0.9    c-0.2,0-0.4-0.1-0.6-0.1c-0.4,0-0.6,0.1-0.8,0.3s-0.3,0.5-0.3,0.9v0.7h1.4V95h-1.4v5.5H268.4z"/>
		<path class="st3" d="M277.5,100.6c-0.9,0-1.6-0.3-2.1-0.8s-0.8-1.3-0.8-2.3v-0.2c0-0.6,0.1-1.2,0.4-1.7s0.6-0.9,1-1.2    s0.9-0.4,1.4-0.4c0.8,0,1.5,0.3,1.9,0.8s0.7,1.3,0.7,2.3v0.5h-4.3c0,0.6,0.2,1.1,0.5,1.5s0.8,0.6,1.3,0.6c0.4,0,0.7-0.1,1-0.2    s0.5-0.4,0.7-0.6l0.7,0.5C279.3,100.2,278.5,100.6,277.5,100.6z M277.4,94.9c-0.4,0-0.8,0.2-1.1,0.5s-0.5,0.8-0.6,1.3h3.2v-0.1    c0-0.6-0.2-1-0.4-1.3S277.8,94.9,277.4,94.9z"/>
		<path class="st3" d="M283.3,96.5l1.4-2.3h1.3l-2.1,3.1l2.1,3.2h-1.3l-1.5-2.4l-1.5,2.4h-1.3l2.1-3.2l-2.1-3.1h1.3L283.3,96.5z"/>
		<path class="st3" d="M292.4,97.4c0,1-0.2,1.7-0.7,2.3s-1,0.9-1.8,0.9s-1.4-0.2-1.8-0.7v3.1H287v-8.8h1l0.1,0.7    c0.4-0.5,1.1-0.8,1.8-0.8c0.8,0,1.4,0.3,1.8,0.9S292.4,96.3,292.4,97.4L292.4,97.4z M291.3,97.3c0-0.7-0.2-1.3-0.5-1.7    s-0.7-0.6-1.3-0.6c-0.7,0-1.1,0.3-1.5,0.9v3c0.3,0.6,0.8,0.9,1.5,0.9c0.5,0,0.9-0.2,1.2-0.6S291.3,98.1,291.3,97.3z"/>
		<path class="st3" d="M293.4,97.3c0-0.6,0.1-1.2,0.4-1.7s0.6-0.9,1-1.1s0.9-0.4,1.5-0.4c0.9,0,1.6,0.3,2.1,0.9s0.8,1.4,0.8,2.4v0.1    c0,0.6-0.1,1.2-0.4,1.7s-0.6,0.9-1,1.1s-0.9,0.4-1.5,0.4c-0.9,0-1.6-0.3-2.1-0.9S293.4,98.3,293.4,97.3L293.4,97.3z M294.5,97.4    c0,0.7,0.2,1.3,0.5,1.7s0.8,0.6,1.3,0.6c0.6,0,1-0.2,1.3-0.6s0.5-1,0.5-1.8c0-0.7-0.2-1.3-0.5-1.7s-0.8-0.6-1.3-0.6    s-1,0.2-1.3,0.6S294.5,96.6,294.5,97.4z"/>
		<path class="st3" d="M304.1,98.8c0-0.3-0.1-0.5-0.3-0.7s-0.6-0.3-1.2-0.4s-1-0.3-1.3-0.4s-0.6-0.4-0.7-0.6s-0.2-0.5-0.2-0.8    c0-0.5,0.2-1,0.7-1.3s1-0.5,1.7-0.5s1.3,0.2,1.7,0.6s0.7,0.8,0.7,1.4h-1.1c0-0.3-0.1-0.6-0.4-0.8s-0.6-0.3-1-0.3s-0.7,0.1-0.9,0.3    s-0.3,0.4-0.3,0.7c0,0.3,0.1,0.5,0.3,0.6s0.6,0.3,1.1,0.4s1,0.3,1.3,0.4s0.6,0.4,0.7,0.6s0.2,0.5,0.2,0.9c0,0.6-0.2,1-0.7,1.4    s-1,0.5-1.8,0.5c-0.5,0-1-0.1-1.3-0.3s-0.7-0.4-0.9-0.8s-0.3-0.7-0.3-1h1.1c0,0.4,0.2,0.7,0.4,0.9s0.6,0.3,1.1,0.3    c0.4,0,0.7-0.1,1-0.2S304.1,99.1,304.1,98.8z"/>
		<path class="st3" d="M310.5,99.9c-0.4,0.5-1,0.7-1.9,0.7c-0.7,0-1.2-0.2-1.5-0.6s-0.5-1-0.5-1.7v-4.1h1.1v4.1c0,1,0.4,1.4,1.2,1.4    c0.8,0,1.4-0.3,1.7-0.9v-4.6h1.1v6.3h-1L310.5,99.9z"/>
		<path class="st3" d="M316.2,95.1c-0.2,0-0.3,0-0.5,0c-0.7,0-1.2,0.3-1.4,0.9v4.5h-1.1v-6.3h1.1v0.7c0.4-0.6,0.9-0.8,1.5-0.8    c0.2,0,0.4,0,0.5,0.1v0.9H316.2z"/>
		<path class="st3" d="M319.7,100.6c-0.9,0-1.6-0.3-2.1-0.8s-0.8-1.3-0.8-2.3v-0.2c0-0.6,0.1-1.2,0.4-1.7s0.6-0.9,1-1.2    s0.9-0.4,1.4-0.4c0.8,0,1.5,0.3,1.9,0.8s0.7,1.3,0.7,2.3v0.5h-4.3c0,0.6,0.2,1.1,0.5,1.5s0.8,0.6,1.3,0.6c0.4,0,0.7-0.1,1-0.2    s0.5-0.4,0.7-0.6l0.7,0.5C321.6,100.2,320.8,100.6,319.7,100.6z M319.6,94.9c-0.4,0-0.8,0.2-1.1,0.5s-0.5,0.8-0.6,1.3h3.2v-0.1    c0-0.6-0.2-1-0.4-1.3S320,94.9,319.6,94.9z"/>
		<path class="st3" d="M326.2,97c0-0.9,0.1-1.7,0.4-2.5s0.6-1.6,1.1-2.2s1-1.1,1.5-1.4l0.2,0.7c-0.6,0.4-1,1.1-1.4,2s-0.6,1.9-0.6,3    v0.5c0,1.5,0.3,2.8,0.8,3.9c0.3,0.7,0.7,1.2,1.2,1.6l-0.2,0.7c-0.5-0.3-1-0.8-1.5-1.5C326.7,100.5,326.2,98.9,326.2,97z"/>
		<path class="st3" d="M335.2,98.3h-3.6l-0.8,2.2h-1.2l3.3-8.5h1l3.3,8.5H336L335.2,98.3z M332,97.3h2.9l-1.5-4L332,97.3z"/>
		<path class="st3" d="M342,99.9c-0.4,0.5-1,0.7-1.9,0.7c-0.7,0-1.2-0.2-1.5-0.6s-0.5-1-0.5-1.7v-4.1h1.1v4.1c0,1,0.4,1.4,1.2,1.4    c0.8,0,1.4-0.3,1.7-0.9v-4.6h1.1v6.3h-1L342,99.9z"/>
		<path class="st3" d="M344.4,97.3c0-1,0.2-1.8,0.7-2.4s1.1-0.9,1.8-0.9c0.8,0,1.4,0.3,1.8,0.8l0.1-0.7h1v6.2c0,0.8-0.2,1.5-0.7,1.9    s-1.1,0.7-2,0.7c-0.5,0-0.9-0.1-1.3-0.3s-0.8-0.5-1-0.8l0.6-0.7c0.5,0.6,1,0.9,1.7,0.9c0.5,0,0.9-0.1,1.2-0.4s0.4-0.7,0.4-1.3    v-0.5c-0.4,0.5-1,0.8-1.8,0.8c-0.7,0-1.3-0.3-1.8-0.9S344.4,98.3,344.4,97.3z M345.4,97.4c0,0.7,0.1,1.3,0.4,1.7s0.7,0.6,1.2,0.6    c0.7,0,1.2-0.3,1.5-0.9v-2.9c-0.3-0.6-0.8-0.9-1.5-0.9c-0.5,0-0.9,0.2-1.2,0.6S345.4,96.6,345.4,97.4z"/>
		<path class="st3" d="M355.2,99.9c-0.4,0.5-1,0.7-1.9,0.7c-0.7,0-1.2-0.2-1.5-0.6s-0.5-1-0.5-1.7v-4.1h1.1v4.1c0,1,0.4,1.4,1.2,1.4    c0.8,0,1.4-0.3,1.7-0.9v-4.6h1.1v6.3h-1L355.2,99.9z"/>
		<path class="st3" d="M361.5,98.8c0-0.3-0.1-0.5-0.3-0.7s-0.6-0.3-1.2-0.4s-1-0.3-1.3-0.4s-0.6-0.4-0.7-0.6s-0.2-0.5-0.2-0.8    c0-0.5,0.2-1,0.7-1.3s1-0.5,1.7-0.5s1.3,0.2,1.7,0.6s0.7,0.8,0.7,1.4h-1.1c0-0.3-0.1-0.6-0.4-0.8s-0.6-0.3-1-0.3s-0.7,0.1-0.9,0.3    s-0.3,0.4-0.3,0.7c0,0.3,0.1,0.5,0.3,0.6s0.6,0.3,1.1,0.4s1,0.3,1.3,0.4s0.6,0.4,0.7,0.6s0.2,0.5,0.2,0.9c0,0.6-0.2,1-0.7,1.4    s-1,0.5-1.8,0.5c-0.5,0-1-0.1-1.3-0.3s-0.7-0.4-0.9-0.8s-0.3-0.7-0.3-1h1.1c0,0.4,0.2,0.7,0.4,0.9s0.6,0.3,1.1,0.3    c0.4,0,0.7-0.1,1-0.2S361.5,99.1,361.5,98.8z"/>
		<path class="st3" d="M365.4,92.6v1.5h1.2V95h-1.2v3.9c0,0.3,0.1,0.4,0.2,0.6s0.3,0.2,0.5,0.2c0.1,0,0.3,0,0.5-0.1v0.9    c-0.3,0.1-0.6,0.1-0.8,0.1c-0.5,0-0.8-0.1-1.1-0.4s-0.4-0.7-0.4-1.2v-4h-1.2v-0.8h1.2v-1.5L365.4,92.6L365.4,92.6z"/>
		<path class="st3" d="M374.1,100.5H373v-7.2l-2.2,0.8v-1l3.1-1.2h0.2V100.5z"/>
		<path class="st3" d="M381.4,96.7c-0.2,0.3-0.5,0.5-0.8,0.7s-0.7,0.2-1,0.2c-0.5,0-0.9-0.1-1.3-0.4s-0.6-0.6-0.8-1    s-0.3-0.9-0.3-1.5s0.1-1.1,0.3-1.5s0.5-0.8,0.9-1s0.9-0.4,1.4-0.4c0.8,0,1.5,0.3,2,0.9s0.7,1.5,0.7,2.6v0.3c0,1.7-0.3,2.9-1,3.6    s-1.6,1.2-3,1.2h-0.2v-0.9h0.2c0.9,0,1.6-0.2,2.1-0.7C381.1,98.4,381.3,97.7,381.4,96.7z M379.7,96.7c0.4,0,0.7-0.1,1-0.3    s0.5-0.5,0.7-0.8v-0.4c0-0.7-0.2-1.3-0.5-1.7s-0.7-0.7-1.2-0.7s-0.9,0.2-1.1,0.5s-0.4,0.8-0.4,1.4s0.1,1.1,0.4,1.4    S379.2,96.7,379.7,96.7z"/>
		<path class="st3" d="M388.5,97.6h1.2v0.9h-1.2v2h-1.1v-2h-3.9v-0.6l3.8-5.9h1.2V97.6z M384.7,97.6h2.7v-4.2l-0.1,0.2L384.7,97.6z"/>
		<path class="st3" d="M391.1,96.2l0.4-4.3h4.4v1h-3.5l-0.3,2.3c0.4-0.2,0.9-0.4,1.4-0.4c0.8,0,1.4,0.3,1.9,0.8s0.7,1.2,0.7,2.1    s-0.2,1.6-0.7,2.1s-1.1,0.8-2,0.8c-0.8,0-1.4-0.2-1.8-0.6s-0.7-1-0.8-1.7h1c0.1,0.5,0.2,0.9,0.5,1.1s0.7,0.4,1.1,0.4    c0.5,0,0.9-0.2,1.2-0.5s0.4-0.8,0.4-1.4s-0.2-1-0.5-1.4s-0.7-0.5-1.2-0.5s-0.8,0.1-1.1,0.3l-0.3,0.2L391.1,96.2z"/>
		<path class="st3" d="M399.8,97.1c0,0.9-0.1,1.7-0.3,2.5s-0.6,1.5-1,2.2s-1,1.2-1.5,1.4l-0.2-0.7c0.6-0.5,1.1-1.2,1.5-2.1    s0.6-2,0.6-3.2V97c0-0.8-0.1-1.6-0.3-2.3s-0.4-1.3-0.7-1.9s-0.7-1-1-1.3l0.2-0.7c0.5,0.3,1,0.8,1.5,1.4s0.8,1.4,1,2.2    S399.8,96.2,399.8,97.1z"/>
	</g>
</g>
<line class="st10" x1="48.3" y1="294.9" x2="414.7" y2="294.9"/>
</svg>