<?xml version="1.0" encoding="UTF-8"?>
<svg id="Ebene_4" data-name="Ebene 4" xmlns="http://www.w3.org/2000/svg" viewBox="0 0 1920 910.61643">
  <defs>
    <style>
      .cls-1 {
        fill: #bb172b;
      }

      .cls-2 {
        fill: #0e435c;
      }

      .cls-3 {
        fill: #90172f;
      }

      .cls-4 {
        fill: #0d435c;
      }

      .cls-5, .cls-6, .cls-7 {
        fill: #fff;
      }

      .cls-8 {
        fill: #f3f5f7;
      }

      .cls-9 {
        fill: #426b7e;
      }

      .cls-6 {
        stroke: #0d435c;
      }

      .cls-6, .cls-7 {
        stroke-miterlimit: 10;
        stroke-width: 10.85844px;
      }

      .cls-10 {
        fill: #7996a5;
      }

      .cls-7 {
        stroke: #90172f;
      }
    </style>
  </defs>
  <rect class="cls-8" x="-8.92185" y="-7.83197" width="1945.37501" height="930.54778"/>
  <g>
    <circle class="cls-5" cx="1364.7939" cy="469.64173" r="75.3874"/>
    <g>
      <path class="cls-1" d="M1364.86721,547.53005c-43.13503,0-78.22898-35.09395-78.22898-78.22898s35.09395-78.22898,78.22898-78.22898,78.22496,35.09355,78.22496,78.22898-35.08994,78.22898-78.22496,78.22898ZM1364.86721,399.08194c-38.7196,0-70.21913,31.49953-70.21913,70.21913s31.49953,70.21913,70.21913,70.21913c38.7156,0,70.21512-31.49993,70.21512-70.21913s-31.49952-70.21913-70.21512-70.21913Z"/>
      <path class="cls-1" d="M1359.10813,524.81933c-3.45345-.35604-6.87565-1.03647-10.1689-2.02209l6.89127-23.0207c1.85027.55548,3.78225.93875,5.74146,1.1382l-2.46383,23.90459ZM1371.99117,524.65873l-3.04294-23.8337c1.93238-.2467,3.85234-.68084,5.70622-1.28678l7.45477,22.84809c-3.28924,1.07172-6.69183,1.83466-10.11804,2.27239ZM1337.07705,517.69337c-2.97606-1.71691-5.81555-3.72738-8.43998-5.98015l15.63642-18.24123c1.49784,1.28278,3.11703,2.42899,4.8027,3.39898l-11.99915,20.8224ZM1393.83843,516.98129l-12.50778-20.51723c1.65844-1.01285,3.24239-2.1943,4.70138-3.51232l16.09779,17.84234c-2.56555,2.31525-5.35418,4.3962-8.29139,6.18721ZM1319.88431,502.24437c-2.03771-2.78462-3.8211-5.7727-5.30372-8.88572l21.69868-10.3331c.84103,1.76777,1.84987,3.46546,3.00369,5.0454l-19.39865,14.17343ZM1410.65189,501.10257l-19.75067-13.68082c1.11057-1.60758,2.07655-3.32849,2.87073-5.11188l21.95658,9.77001c-1.40413,3.15228-3.10941,6.18721-5.07664,9.02269ZM1310.41947,481.11319c-.71568-3.35573-1.12258-6.80517-1.21269-10.25501l24.02193-.60995c.05086,1.97122.28155,3.94245.68845,5.85079l-23.49769,5.01416ZM1419.57687,479.72468l-23.62263-4.41182c.34402-1.83426.52424-3.72298.53986-5.62011l-.004-.42612h24.02953-11.61989l11.60026-.5711.02363.75092c0,3.45745-.32079,6.9149-.94676,10.27824ZM1333.89754,462.91482l-23.52132-4.90443c.70807-3.39858,1.74054-6.73868,3.07017-9.9222l22.17566,9.24577c-.74291,1.7874-1.32563,3.66451-1.72452,5.58086ZM1395.61381,462.0077c-.44975-1.88912-1.08734-3.75061-1.88872-5.5304l21.90173-9.87935c1.42374,3.15228,2.55393,6.45714,3.35972,9.81687l-23.37273,5.59288ZM1339.21247,450.91967l-19.46113-14.09533c2.01007-2.77701,4.29808-5.38943,6.79716-7.76355l16.55155,17.41982c-1.43136,1.36127-2.73777,2.85511-3.88758,4.43906ZM1389.94284,450.17275c-1.18906-1.5487-2.53832-2.99969-4.00492-4.3141l16.02771-17.90481c2.57316,2.30363,4.93566,4.84996,7.03184,7.57571l-19.05462,14.6432ZM1348.97848,442.0768l-12.09287-20.76393c2.99568-1.74414,6.15997-3.21075,9.40596-4.35295l7.99022,22.66066c-1.82264.64559-3.60964,1.47061-5.30332,2.45622ZM1379.92653,441.62304c-1.71291-.93475-3.51993-1.7053-5.37741-2.29963l7.32901-22.88734c3.28924,1.0557,6.49639,2.42458,9.53132,4.07501l-11.48292,21.11196ZM1361.439,437.99778l-2.54994-23.89658c3.44944-.36765,6.94614-.41851,10.34071-.14498l-1.90835,23.95145c-1.9516-.15259-3.95807-.12135-5.88243.09011Z"/>
    </g>
  </g>
  <polygon class="cls-10" points="905.0896 99.45011 905.0896 802.94265 792.38418 802.94265 781.34161 802.94265 781.34161 857.44114 792.38418 857.44114 1095.20869 857.44114 1106.25136 857.44114 1106.25136 802.94265 1095.20869 802.94265 982.50327 802.94265 982.50327 99.45011 905.0896 99.45011"/>
  <rect class="cls-2" x="557.7753" y="539.47131" width="7.31006" height="47.32525" transform="translate(-191.54587 307.49613) rotate(-26.33428)"/>
  <g>
    <circle class="cls-5" cx="350.5076" cy="469.64173" r="75.3874"/>
    <g>
      <path class="cls-4" d="M350.58091,547.53005c-43.13503,0-78.22898-35.09395-78.22898-78.22898s35.09395-78.22898,78.22898-78.22898,78.22496,35.09355,78.22496,78.22898-35.08994,78.22898-78.22496,78.22898ZM350.58091,399.08194c-38.7196,0-70.21913,31.49953-70.21913,70.21913s31.49953,70.21913,70.21913,70.21913c38.7156,0,70.21512-31.49993,70.21512-70.21913s-31.49952-70.21913-70.21512-70.21913Z"/>
      <path class="cls-4" d="M344.82183,524.81933c-3.45345-.35604-6.87565-1.03647-10.1689-2.02209l6.89127-23.0207c1.85027.55548,3.78225.93875,5.74146,1.1382l-2.46383,23.90459ZM357.70487,524.65873l-3.04294-23.8337c1.93238-.2467,3.85234-.68084,5.70622-1.28678l7.45477,22.84809c-3.28924,1.07172-6.69183,1.83466-10.11804,2.27239ZM322.79075,517.69337c-2.97606-1.71691-5.81555-3.72738-8.43998-5.98015l15.63642-18.24123c1.49784,1.28278,3.11703,2.42899,4.8027,3.39898l-11.99915,20.8224ZM379.55213,516.98129l-12.50778-20.51723c1.65844-1.01285,3.24239-2.1943,4.70138-3.51232l16.09779,17.84234c-2.56555,2.31525-5.35418,4.3962-8.29139,6.18721ZM305.59801,502.24437c-2.03771-2.78462-3.8211-5.7727-5.30372-8.88572l21.69868-10.3331c.84103,1.76777,1.84987,3.46546,3.00369,5.0454l-19.39865,14.17343ZM396.36559,501.10257l-19.75067-13.68082c1.11057-1.60758,2.07655-3.32849,2.87073-5.11188l21.95658,9.77001c-1.40413,3.15228-3.10941,6.18721-5.07664,9.02269ZM296.13317,481.11319c-.71568-3.35573-1.12258-6.80517-1.21269-10.25501l24.02193-.60995c.05086,1.97122.28155,3.94245.68845,5.85079l-23.49769,5.01416ZM405.29057,479.72468l-23.62263-4.41182c.34402-1.83426.52424-3.72298.53986-5.62011l-.004-.42612h24.02953-11.61989l11.60026-.5711.02363.75092c0,3.45745-.32079,6.9149-.94676,10.27824ZM319.61124,462.91482l-23.52132-4.90443c.70807-3.39858,1.74054-6.73868,3.07017-9.9222l22.17566,9.24577c-.74291,1.7874-1.32563,3.66451-1.72452,5.58086ZM381.32752,462.0077c-.44975-1.88912-1.08734-3.75061-1.88872-5.5304l21.90173-9.87935c1.42374,3.15228,2.55393,6.45714,3.35972,9.81687l-23.37273,5.59288ZM324.92617,450.91967l-19.46113-14.09533c2.01007-2.77701,4.29808-5.38943,6.79716-7.76355l16.55155,17.41982c-1.43136,1.36127-2.73777,2.85511-3.88758,4.43906ZM375.65654,450.17275c-1.18906-1.5487-2.53832-2.99969-4.00492-4.3141l16.02771-17.90481c2.57316,2.30363,4.93566,4.84996,7.03184,7.57571l-19.05462,14.6432ZM334.69218,442.0768l-12.09287-20.76393c2.99568-1.74414,6.15997-3.21075,9.40596-4.35295l7.99022,22.66066c-1.82264.64559-3.60964,1.47061-5.30332,2.45622ZM365.64023,441.62304c-1.71291-.93475-3.51993-1.7053-5.37741-2.29963l7.32901-22.88734c3.28924,1.0557,6.49639,2.42458,9.53132,4.07501l-11.48292,21.11196ZM347.1527,437.99778l-2.54994-23.89658c3.44944-.36765,6.94614-.41851,10.34071-.14498l-1.90835,23.95145c-1.9516-.15259-3.95807-.12135-5.88243.09011Z"/>
    </g>
  </g>
  <path class="cls-10" d="M1303.87571,115.98571H472.56347l223.00062,512.42026-37.9124-1.12089-209.07262-484.35257-190.17047,484.35257h-39.87394L423.32037,115.98571h-223.95201l-.00752-42.02288h1501.69127l-.00883,42.02288h-211.99327l190.07668,511.29937c-11.16924-1.5571-23.64651,1.12332-36.44055,0l-174.14151-485.43613-187.6048,486.35794-41.00117.19909,204.62157-512.42026h-848.02429,707.33979Z"/>
  <path class="cls-6" d="M651.20926,450.03465l-9.6963-18.8841c-26.83461,13.63658-152.44475,78.07397-152.44475,78.07397l-3.35379,34.08811,2.33429,5.16965s6.77184,1.34537,10.05823,2.34379c2.63744.8012,5.13862,2.5198,5.90014,5.24071.79261,2.82578,1.27474,5.92555,1.28088,8.80128.0217,9.80562-2.03435,41.53255-.65796,47.595.63256,1.23195,1.26544,2.46452,1.89768,3.69585,2.50086,1.54378,11.89961,6.52443,14.05171,7.56778,2.45806,1.19148,4.95253,1.38109,7.51862.50447,6.73372-2.30016,13.50438-4.50394,20.17346-6.98042,4.71232-1.7503,13.88327-5.91156,13.88327-5.91156l3.05122-9.79297s-5.43283-8.12807-6.16046-10.27868c-3.27866-9.68925-4.05554-13.81387-4.8729-24.01993-.46887-5.8552-.60863-12.78096-.60863-12.78096,0,0,33.4259-20.02382,37.17696-23.12055,10.04511-8.29326,4.53126-38.61203,4.53126-38.61203l30.63712-15.36932,2.1654-15.43173,23.13455-11.89837ZM570.32101,521.6741c-7.97294,5.86791-23.10832,13.88105-23.10832,13.88105l-6.53363-16.5832,31.58254-15.76374s7.109,11.80662-1.9406,18.46589Z"/>
  <g>
    <circle class="cls-5" cx="624.04896" cy="583.82248" r="75.3874"/>
    <g>
      <path class="cls-9" d="M624.12227,661.7108c-43.13503,0-78.22898-35.09395-78.22898-78.22898s35.09395-78.22898,78.22898-78.22898,78.22496,35.09355,78.22496,78.22898-35.08994,78.22898-78.22496,78.22898ZM624.12227,513.26268c-38.7196,0-70.21913,31.49953-70.21913,70.21913s31.49953,70.21913,70.21913,70.21913c38.7156,0,70.21512-31.49993,70.21512-70.21913s-31.49952-70.21913-70.21512-70.21913Z"/>
      <path class="cls-9" d="M618.36319,639.00007c-3.45345-.35604-6.87565-1.03647-10.1689-2.02209l6.89127-23.0207c1.85027.55548,3.78225.93875,5.74146,1.1382l-2.46383,23.90459ZM631.24623,638.83948l-3.04294-23.8337c1.93238-.2467,3.85234-.68084,5.70622-1.28678l7.45477,22.84809c-3.28924,1.07172-6.69183,1.83466-10.11804,2.27239ZM596.33211,631.87411c-2.97606-1.71691-5.81555-3.72738-8.43998-5.98015l15.63642-18.24123c1.49784,1.28278,3.11703,2.42899,4.8027,3.39898l-11.99915,20.8224ZM653.09349,631.16204l-12.50778-20.51723c1.65844-1.01285,3.24239-2.1943,4.70138-3.51232l16.09779,17.84234c-2.56555,2.31525-5.35418,4.3962-8.29139,6.18721ZM579.13937,616.42512c-2.03771-2.78462-3.8211-5.7727-5.30372-8.88572l21.69868-10.3331c.84103,1.76777,1.84987,3.46546,3.00369,5.0454l-19.39865,14.17343ZM669.90695,615.28331l-19.75067-13.68082c1.11057-1.60758,2.07655-3.32849,2.87073-5.11188l21.95658,9.77001c-1.40413,3.15228-3.10941,6.18721-5.07664,9.02269ZM569.67453,595.29394c-.71568-3.35573-1.12258-6.80517-1.21269-10.25501l24.02193-.60995c.05086,1.97122.28155,3.94245.68845,5.85079l-23.49769,5.01416ZM678.83193,593.90543l-23.62263-4.41182c.34402-1.83426.52424-3.72298.53986-5.62011l-.004-.42612h24.02953-11.61989l11.60026-.5711.02363.75092c0,3.45745-.32079,6.9149-.94676,10.27824ZM593.1526,577.09556l-23.52132-4.90443c.70807-3.39858,1.74054-6.73868,3.07017-9.9222l22.17566,9.24577c-.74291,1.7874-1.32563,3.66451-1.72452,5.58086ZM654.86887,576.18845c-.44975-1.88912-1.08734-3.75061-1.88872-5.5304l21.90173-9.87935c1.42374,3.15228,2.55393,6.45714,3.35972,9.81687l-23.37273,5.59288ZM598.46753,565.10042l-19.46113-14.09533c2.01007-2.77701,4.29808-5.38943,6.79716-7.76355l16.55155,17.41982c-1.43136,1.36127-2.73777,2.85511-3.88758,4.43906ZM649.1979,564.3535c-1.18906-1.5487-2.53832-2.99969-4.00492-4.3141l16.02771-17.90481c2.57316,2.30363,4.93566,4.84996,7.03184,7.57571l-19.05462,14.6432ZM608.23354,556.25754l-12.09287-20.76393c2.99568-1.74414,6.15997-3.21075,9.40596-4.35295l7.99022,22.66066c-1.82264.64559-3.60964,1.47061-5.30332,2.45622ZM639.18159,555.80379c-1.71291-.93475-3.51993-1.7053-5.37741-2.29963l7.32901-22.88734c3.28924,1.0557,6.49639,2.42458,9.53132,4.07501l-11.48292,21.11196ZM620.69406,552.17853l-2.54994-23.89658c3.44944-.36765,6.94614-.41851,10.34071-.14498l-1.90835,23.95145c-1.9516-.15259-3.95807-.12135-5.88243.09011Z"/>
    </g>
  </g>
  <g>
    <path class="cls-5" d="M463.51366,484.65923l35.53059,12.9349s12.44407,29.25826,2.76017,49.45323c-9.6839,20.19498-30.30216,31.3005-30.30216,31.3005l-37.16972-13.53162s-12.39618-24.31067-3.0588-45.538c9.33738-21.22732,32.23993-34.61901,32.23993-34.61901Z"/>
    <g>
      <path class="cls-9" d="M521.29631,488.99932l-11.07377-8.18864-2.229,10.47251,5.84713,3.51389s-4.33438,21.99052,7.72728,33.69478l-.46325,6.16577,4.08416,1.28895,3.60054-7.05317c-8.73398-11.38561-10.07285-25.19453-7.4931-39.89409Z"/>
      <rect class="cls-1" x="444.95316" y="560.71849" width="6.77617" height="41.41975" transform="translate(-251.38004 803.82205) rotate(-69.99598)"/>
      <path class="cls-9" d="M472.28917,477.0075l27.04032,9.84402,3.27998-13.34369-23.21265-8.45056c1.27726-8.52308-3.56966-17.07374-11.974-20.13333-9.59185-3.49191-20.23624,1.47074-23.72815,11.0626s1.47087,20.23591,11.06272,23.72782c6.1365,2.23399,12.68239.97887,17.53179-2.70685ZM472.57506,466.50043c-2.30555,6.33308-9.33306,9.60946-15.66614,7.3039-6.33341-2.30568-9.60979-9.33318-7.30424-15.66626,2.30568-6.33341,9.33318-9.60979,15.6666-7.30412,6.33308,2.30555,9.60946,9.33306,7.30378,15.66647Z"/>
      <path class="cls-9" d="M502.53861,495.27326l-.1624-.27833-38.90706-14.1641-.2856.08935c-.24434.07431-24.57393,7.81829-34.7283,35.71111-10.87232,29.86495,2.03989,49.70621,2.1696,49.90604l.16465.24185,40.74983,14.83496.3021-.10542c.22969-.08002,22.99124-8.36517,32.30459-33.94781,10.97973-30.15998-1.48021-52.07048-1.60741-52.28765ZM486.94179,526.95252l13.7579,5.00856c-.62472,3.50777-1.56724,6.99992-2.8024,10.39278-1.23651,3.39655-2.75968,6.67732-4.53617,9.7654l-14.30596-5.20808c2.06734-4.11589,3.92804-8.43677,5.5384-12.86021.83625-2.29707,1.60606-4.62594,2.34824-7.09844ZM446.80812,535.17166l-14.36475-5.22948c.62459-3.50743,1.56677-6.99972,2.80328-10.39626,1.23517-3.39285,2.75867-6.6735,4.5353-9.76192l13.78041,5.01675c-1.02354,2.37769-1.92932,4.65668-2.76324,6.94736-1.60913,4.42008-2.95014,8.93054-3.991,13.42354ZM488.97272,519.33745c2.16716-9.60223,2.23763-16.43693,1.79088-20.81389l5.81795,2.11802c3.54683,6.43829,5.30279,14.65145,4.98878,23.28202l-12.5976-4.58615ZM470.07153,573.46137l-7.43726-2.70753c2.90672-3.03359,7.67951-8.61004,12.59523-16.88095l13.63122,4.96244c-5.30803,6.8125-11.93322,11.9745-18.78919,14.62604ZM468.69616,551.49442c-5.12311,8.13605-10.17105,13.82011-12.99913,16.73391l-4.37102-1.59127c-.34509-4.09487-.65229-11.76957.55409-21.26452l16.81607,6.12188ZM445.31214,542.98148c-1.47441,9.47539-1.32044,16.8675-.99361,21.10452l-7.75749-2.82411c-3.54863-6.44275-5.30279-14.65564-4.98864-23.28235l13.73974,5.00195ZM472.69083,544.59425l-19.50192-7.09967c.96906-4.70866,2.24285-9.24359,3.79106-13.49633.84579-2.32328,1.77744-4.59704,2.83548-6.92107l20.88836,7.6044c-.69577,2.46733-1.44854,4.80583-2.29078,7.11936-1.55053,4.25912-3.4742,8.55747-5.7222,12.7933ZM463.40823,510.03071c5.03315-8.84848,10.1789-14.14796,13.06924-16.70801l7.20641,2.62349c.4328,3.83301.7529,11.1817-1.15108,21.04681l-19.12456-6.96229ZM468.98443,490.59487c-3.16804,3.00505-7.52588,8.23822-12.08166,17.06753l-12.62077-4.59459c5.30545-6.80963,11.92896-11.97225,18.78906-14.62571l5.91338,2.15276Z"/>
    </g>
  </g>
  <rect class="cls-2" x="1572.0616" y="539.47131" width="7.31006" height="47.32525" transform="translate(-86.2844 757.4412) rotate(-26.33428)"/>
  <path class="cls-7" d="M1665.49556,450.03465l-9.6963-18.8841c-26.83461,13.63658-152.44475,78.07397-152.44475,78.07397l-3.35379,34.08811,2.33429,5.16965s6.77184,1.34537,10.05823,2.34379c2.63744.8012,5.13862,2.5198,5.90014,5.24071.79261,2.82578,1.27474,5.92555,1.28088,8.80128.0217,9.80562-2.03435,41.53255-.65796,47.595.63256,1.23195,1.26544,2.46452,1.89768,3.69585,2.50086,1.54378,11.89961,6.52443,14.05171,7.56778,2.45806,1.19148,4.95253,1.38109,7.51862.50447,6.73372-2.30016,13.50438-4.50394,20.17346-6.98042,4.71232-1.7503,13.88327-5.91156,13.88327-5.91156l3.05122-9.79297s-5.43283-8.12807-6.16046-10.27868c-3.27866-9.68925-4.05554-13.81387-4.8729-24.01993-.46887-5.8552-.60863-12.78096-.60863-12.78096,0,0,33.4259-20.02382,37.17696-23.12055,10.04511-8.29326,4.53126-38.61203,4.53126-38.61203l30.63712-15.36932,2.1654-15.43173,23.13455-11.89837ZM1584.60731,521.6741c-7.97294,5.86791-23.10832,13.88105-23.10832,13.88105l-6.53363-16.5832,31.58254-15.76374s7.109,11.80662-1.9406,18.46589Z"/>
  <g>
    <circle class="cls-5" cx="1638.33526" cy="583.82248" r="75.3874"/>
    <g>
      <path class="cls-1" d="M1638.40857,661.7108c-43.13503,0-78.22898-35.09395-78.22898-78.22898s35.09395-78.22898,78.22898-78.22898,78.22496,35.09355,78.22496,78.22898-35.08994,78.22898-78.22496,78.22898ZM1638.40857,513.26268c-38.7196,0-70.21913,31.49953-70.21913,70.21913s31.49953,70.21913,70.21913,70.21913c38.7156,0,70.21512-31.49993,70.21512-70.21913s-31.49952-70.21913-70.21512-70.21913Z"/>
      <path class="cls-1" d="M1632.64949,639.00007c-3.45345-.35604-6.87565-1.03647-10.1689-2.02209l6.89127-23.0207c1.85027.55548,3.78225.93875,5.74146,1.1382l-2.46383,23.90459ZM1645.53253,638.83948l-3.04294-23.8337c1.93238-.2467,3.85234-.68084,5.70622-1.28678l7.45477,22.84809c-3.28924,1.07172-6.69183,1.83466-10.11804,2.27239ZM1610.6184,631.87411c-2.97606-1.71691-5.81555-3.72738-8.43998-5.98015l15.63642-18.24123c1.49784,1.28278,3.11703,2.42899,4.8027,3.39898l-11.99915,20.8224ZM1667.37979,631.16204l-12.50778-20.51723c1.65844-1.01285,3.24239-2.1943,4.70138-3.51232l16.09779,17.84234c-2.56555,2.31525-5.35418,4.3962-8.29139,6.18721ZM1593.42567,616.42512c-2.03771-2.78462-3.8211-5.7727-5.30372-8.88572l21.69868-10.3331c.84103,1.76777,1.84987,3.46546,3.00369,5.0454l-19.39865,14.17343ZM1684.19325,615.28331l-19.75067-13.68082c1.11057-1.60758,2.07655-3.32849,2.87073-5.11188l21.95658,9.77001c-1.40413,3.15228-3.10941,6.18721-5.07664,9.02269ZM1583.96083,595.29394c-.71568-3.35573-1.12258-6.80517-1.21269-10.25501l24.02193-.60995c.05086,1.97122.28155,3.94245.68845,5.85079l-23.49769,5.01416ZM1693.11822,593.90543l-23.62263-4.41182c.34402-1.83426.52424-3.72298.53986-5.62011l-.004-.42612h24.02953-11.61989l11.60026-.5711.02363.75092c0,3.45745-.32079,6.9149-.94676,10.27824ZM1607.43889,577.09556l-23.52132-4.90443c.70807-3.39858,1.74054-6.73868,3.07017-9.9222l22.17566,9.24577c-.74291,1.7874-1.32563,3.66451-1.72452,5.58086ZM1669.15517,576.18845c-.44975-1.88912-1.08734-3.75061-1.88872-5.5304l21.90173-9.87935c1.42374,3.15228,2.55393,6.45714,3.35972,9.81687l-23.37273,5.59288ZM1612.75383,565.10042l-19.46113-14.09533c2.01007-2.77701,4.29808-5.38943,6.79716-7.76355l16.55155,17.41982c-1.43136,1.36127-2.73777,2.85511-3.88758,4.43906ZM1663.4842,564.3535c-1.18906-1.5487-2.53832-2.99969-4.00492-4.3141l16.02771-17.90481c2.57316,2.30363,4.93566,4.84996,7.03184,7.57571l-19.05462,14.6432ZM1622.51984,556.25754l-12.09287-20.76393c2.99568-1.74414,6.15997-3.21075,9.40596-4.35295l7.99022,22.66066c-1.82264.64559-3.60964,1.47061-5.30332,2.45622ZM1653.46789,555.80379c-1.71291-.93475-3.51993-1.7053-5.37741-2.29963l7.32901-22.88734c3.28924,1.0557,6.49639,2.42458,9.53132,4.07501l-11.48292,21.11196ZM1634.98036,552.17853l-2.54994-23.89658c3.44944-.36765,6.94614-.41851,10.34071-.14498l-1.90835,23.95145c-1.9516-.15259-3.95807-.12135-5.88243.09011Z"/>
    </g>
  </g>
  <g>
    <path class="cls-5" d="M1477.79996,484.65923l35.53059,12.9349s12.44407,29.25826,2.76017,49.45323c-9.6839,20.19498-30.30216,31.3005-30.30216,31.3005l-37.16972-13.53162s-12.39618-24.31067-3.0588-45.538c9.33738-21.22732,32.23993-34.61901,32.23993-34.61901Z"/>
    <g>
      <path class="cls-1" d="M1535.58261,488.99932l-11.07377-8.18864-2.229,10.47251,5.84713,3.51389s-4.33438,21.99052,7.72728,33.69478l-.46325,6.16577,4.08416,1.28895,3.60054-7.05317c-8.73398-11.38561-10.07285-25.19453-7.4931-39.89409Z"/>
      <rect class="cls-1" x="1459.23945" y="560.71849" width="6.77617" height="41.41975" transform="translate(415.9331 1756.91508) rotate(-69.99598)"/>
      <path class="cls-1" d="M1486.57547,477.0075l27.04032,9.84402,3.27998-13.34369-23.21265-8.45056c1.27726-8.52308-3.56966-17.07374-11.974-20.13333-9.59185-3.49191-20.23624,1.47074-23.72815,11.0626-3.49191,9.59185,1.47087,20.23591,11.06272,23.72782,6.1365,2.23399,12.68239.97887,17.53179-2.70685ZM1486.86136,466.50043c-2.30555,6.33308-9.33306,9.60946-15.66614,7.3039-6.33341-2.30568-9.60979-9.33318-7.30424-15.66626,2.30568-6.33341,9.33318-9.60979,15.6666-7.30412,6.33308,2.30555,9.60946,9.33306,7.30378,15.66647Z"/>
      <path class="cls-1" d="M1516.82491,495.27326l-.1624-.27833-38.90706-14.1641-.2856.08935c-.24434.07431-24.57393,7.81829-34.7283,35.71111-10.87232,29.86495,2.03989,49.70621,2.1696,49.90604l.16465.24185,40.74983,14.83496.3021-.10542c.22969-.08002,22.99124-8.36517,32.30459-33.94781,10.97973-30.15998-1.48021-52.07048-1.60741-52.28765ZM1501.22809,526.95252l13.7579,5.00856c-.62472,3.50777-1.56724,6.99992-2.8024,10.39278-1.23651,3.39655-2.75968,6.67732-4.53617,9.7654l-14.30596-5.20808c2.06734-4.11589,3.92804-8.43677,5.5384-12.86021.83625-2.29707,1.60606-4.62594,2.34824-7.09844ZM1461.09442,535.17166l-14.36475-5.22948c.62459-3.50743,1.56677-6.99972,2.80328-10.39626,1.23517-3.39285,2.75867-6.6735,4.5353-9.76192l13.78041,5.01675c-1.02354,2.37769-1.92932,4.65668-2.76324,6.94736-1.60913,4.42008-2.95014,8.93054-3.991,13.42354ZM1503.25902,519.33745c2.16716-9.60223,2.23763-16.43693,1.79088-20.81389l5.81795,2.11802c3.54683,6.43829,5.30279,14.65145,4.98878,23.28202l-12.5976-4.58615ZM1484.35783,573.46137l-7.43726-2.70753c2.90672-3.03359,7.67951-8.61004,12.59523-16.88095l13.63122,4.96244c-5.30803,6.8125-11.93322,11.9745-18.78919,14.62604ZM1482.98246,551.49442c-5.12311,8.13605-10.17105,13.82011-12.99913,16.73391l-4.37102-1.59127c-.34509-4.09487-.65229-11.76957.55409-21.26452l16.81607,6.12188ZM1459.59844,542.98148c-1.47441,9.47539-1.32044,16.8675-.99361,21.10452l-7.75749-2.82411c-3.54863-6.44275-5.30279-14.65564-4.98864-23.28235l13.73974,5.00195ZM1486.97713,544.59425l-19.50192-7.09967c.96906-4.70866,2.24285-9.24359,3.79106-13.49633.84579-2.32328,1.77744-4.59704,2.83548-6.92107l20.88836,7.6044c-.69577,2.46733-1.44854,4.80583-2.29078,7.11936-1.55053,4.25912-3.4742,8.55747-5.7222,12.7933ZM1477.69453,510.03071c5.03315-8.84848,10.1789-14.14796,13.06924-16.70801l7.20641,2.62349c.4328,3.83301.7529,11.1817-1.15108,21.04681l-19.12456-6.96229ZM1483.27073,490.59487c-3.16804,3.00505-7.52588,8.23822-12.08166,17.06753l-12.62077-4.59459c5.30545-6.80963,11.92896-11.97225,18.78906-14.62571l5.91338,2.15276Z"/>
    </g>
  </g>
  <g>
    <path class="cls-5" d="M388.08361,589.99085l12.22564-6.86931s18.55218,15.07332,16.14691,26.29788c-2.40526,11.22456-10.62325,29.66492-27.66053,33.27282s-150.98715,2.80614-155.36838,1.20263-46.28948-20.98017-41.94097-46.10089c2.09679-12.11285,19.69747-6.82136,30.33909-7.93841,7.88351-.82753,11.58885-.82753,11.58885-.82753l90.84015-5.26476,50.3101-.60132-4.96508,5.67883"/>
    <path class="cls-9" d="M413.36015,592.40496c5.46274,6.66611,7.49478,15.19898,5.72198,24.02675-3.74484,18.56685-23.39393,33.11093-44.73205,33.11093h-131.86129c-18.45024,0-35.73108-10.6034-48.65972-29.8574l-2.1243-3.15504c-4.92161-7.8825-5.76047-16.96272-2.17751-23.68091v-.00057c4.25993-8.00194,11.58206-12.25847,21.18586-12.3196l11.11226,9.32644-10.90623.07019c-7.40308,0-10.00284,3.72786-11.85828,7.22252-1.82884,3.42051-2.46279,9.31455.46867,14.16824l2.09091,3.12561c7.87967,11.7264,21.36529,25.70276,40.86834,25.70276h131.86129c16.74141,0,32.67396-11.47282,35.51542-25.57484,1.21187-5.99424-.12736-11.75187-3.77088-16.2116-4.02276-4.90746-10.50718-7.89779-18.01101-8.36759l12.22564-6.86931c5.23463,2.03487,9.74304,5.24029,13.0509,9.28342Z"/>
    <polygon class="cls-5" points="354.32018 552.29441 354.32018 535.658 327.66184 520.6251 292.78551 520.6251 271.16903 535.658 267.73068 555.10055 354.32018 552.29441"/>
    <polygon class="cls-5" points="385.3913 575.14441 375.56668 555.30099 249.49077 555.30099 227.82471 577.23557 236.46225 584.56503 372.5601 584.56503 385.3913 575.14441"/>
    <path class="cls-9" d="M359.31808,534.53371l-27.32103-17.11272h-37.94424s-28.51875,16.07689-28.51875,16.07689l-48.94556-.09679.03566-4.31823-25.13786-.03226.15905,14.83333,24.90013.05717-.0283-3.49183h49.40574s.01302,9.87379.01302,9.87379h-18.70213s-26.98255,27.3799-26.98255,27.3799l13.16298,11.32509,139.96681-.19245,18.27987-10.54284-13.83089-27.9697h-18.42251s-.08943-15.78935-.08943-15.78935ZM372.54049,558.8497l7.51006,15.76331-10.12624,5.69537h-131.06206s-5.435-3.82408-5.435-3.82408l17.37932-17.6346h121.73392ZM350.84011,550.32305h-2.46222s-73.91249-.09339-73.91249-.09339l-.13245-13.43071,20.61247-11.94602,34.1479-.06453.15679-.00057,21.55717,12.54261.03283,12.9926Z"/>
    <g>
      <path class="cls-9" d="M385.3934,595.63701c9.02418,0,16.36924,7.34507,16.36924,16.3736,0,9.02418-7.34507,16.36924-16.36924,16.36924-9.02853,0-16.37363-7.34507-16.37363-16.36924s7.3451-16.3736,16.37363-16.3736Z"/>
      <path class="cls-5" d="M368.44018,612.01047c0-9.34795,7.60515-16.9531,16.9531-16.9531,9.34569,0,16.94914,7.60515,16.94914,16.9531s-7.60345,16.94914-16.94914,16.94914c-9.34795,0-16.9531-7.60345-16.9531-16.94914ZM369.59941,612.01047c0,8.70664,7.08497,15.78991,15.79388,15.78991,8.70664,0,15.78991-7.08327,15.78991-15.78991s-7.08327-15.79388-15.78991-15.79388c-8.7089,0-15.79388,7.08497-15.79388,15.79388Z"/>
    </g>
    <g>
      <path class="cls-9" d="M360.4688,614.35661c0,10.87812-8.84934,19.72697-19.72746,19.72697-10.87815,0-19.73182-8.84885-19.73182-19.72697,0-10.87812,8.85366-19.73182,19.73182-19.73182,10.87812,0,19.72746,8.8537,19.72746,19.73182Z"/>
      <path class="cls-5" d="M320.4297,614.35665c0-11.19999,9.11192-20.31134,20.31191-20.31134,11.19716,0,20.30682,9.11135,20.30682,20.31134,0,11.19716-9.10965,20.30682-20.30682,20.30682-11.19999,0-20.31191-9.10965-20.31191-20.30682ZM321.58892,614.35665c0,10.55812,8.59174,19.14759,19.15269,19.14759,10.55812,0,19.14759-8.58947,19.14759-19.14759,0-10.56038-8.58947-19.15212-19.14759-19.15212-10.56095,0-19.15269,8.59174-19.15269,19.15212Z"/>
    </g>
    <g>
      <path class="cls-9" d="M315.8211,614.35661c0,10.87812-8.8537,19.72697-19.73182,19.72697s-19.72746-8.84885-19.72746-19.72697c0-10.87812,8.84934-19.73182,19.72746-19.73182s19.73182,8.8537,19.73182,19.73182Z"/>
      <path class="cls-5" d="M275.78198,614.35665c0-11.19999,9.10965-20.31134,20.30738-20.31134,11.19999,0,20.31134,9.11135,20.31134,20.31134,0,11.19716-9.11135,20.30682-20.31134,20.30682-11.19773,0-20.30738-9.10965-20.30738-20.30682ZM276.94121,614.35665c0,10.55812,8.59004,19.14759,19.14816,19.14759,10.56038,0,19.15212-8.58947,19.15212-19.14759,0-10.56038-8.59174-19.15212-19.15212-19.15212-10.55812,0-19.14816,8.59174-19.14816,19.15212Z"/>
    </g>
    <g>
      <path class="cls-9" d="M251.44158,594.6248c10.87812,0,19.72746,8.8537,19.72746,19.73182s-8.84934,19.72697-19.72746,19.72697c-10.87812,0-19.73182-8.84885-19.73182-19.72697s8.8537-19.73182,19.73182-19.73182Z"/>
      <path class="cls-5" d="M231.13031,614.35665c0-11.19999,9.11135-20.31134,20.31134-20.31134,11.19716,0,20.30682,9.11135,20.30682,20.31134,0,11.19716-9.10965,20.30682-20.30682,20.30682-11.19999,0-20.31134-9.10965-20.31134-20.30682ZM232.28953,614.35665c0,10.55812,8.59174,19.14759,19.15212,19.14759,10.55812,0,19.14759-8.58947,19.14759-19.14759,0-10.56038-8.58947-19.15212-19.14759-19.15212-10.56038,0-19.15212,8.59174-19.15212,19.15212Z"/>
    </g>
    <g>
      <path class="cls-9" d="M216.47574,616.15874c-5.93572,0-10.76431-4.82907-10.76431-10.76479,0-5.94056,4.82859-10.76915,10.76431-10.76915,5.94056,0,10.76915,4.82859,10.76915,10.76915s-4.82859,10.76479-10.76915,10.76479Z"/>
      <path class="cls-5" d="M205.13208,605.39417c0-6.258,5.08859-11.34886,11.34376-11.34886,6.258,0,11.34886,5.09085,11.34886,11.34886s-5.09085,11.34433-11.34886,11.34433c-6.25517,0-11.34376-5.08916-11.34376-11.34433ZM206.29131,605.39417c0,5.61613,4.56898,10.18511,10.18454,10.18511,5.61839,0,10.18963-4.56898,10.18963-10.18511s-4.57124-10.18963-10.18963-10.18963c-5.61556,0-10.18454,4.57124-10.18454,10.18963Z"/>
    </g>
  </g>
  <g>
    <path class="cls-5" d="M420.64891,643.06271l25.26542,21.02995,11.89807-7.60182-5.21804,12.87724,25.0546,20.8549,24.10278-60.89152,55.41454-35.10086-25.18948-20.83513-11.87737,7.72744,5.07012-13.35796-24.56842-20.32143-14.135,35.07621-57.19422-47.30741,9.22696-20.93627-24.77558-20.49278-9.57978,21.44996c-14.33324-8.47452-30.19518-7.7855-38.13815,1.81749-9.25322,11.18706-4.39384,30.53482,10.8371,43.13288l6.41254,5.30405-11.09556,25.32632,24.686,20.41868,11.27112-25.18111,44.76344,37.02546-32.23107,19.98572Z"/>
    <path class="cls-4" d="M420.64891,643.06271l25.26542,21.02995,11.89807-7.60182-5.21804,12.87724,25.0546,20.8549,24.10278-60.89152,55.41454-35.10086-25.18948-20.83513-11.87737,7.72744,5.07012-13.35796-24.56842-20.32143-14.135,35.07621-57.19422-47.30741,9.22696-20.93627-24.77558-20.49278-9.57978,21.44996c-14.33324-8.47452-30.19518-7.7855-38.13815,1.81749-9.25322,11.18706-4.39384,30.53482,10.8371,43.13288l6.41254,5.30405-11.09556,25.32632,24.686,20.41868,11.27112-25.18111,44.76344,37.02546-32.23107,19.98572ZM414.61136,541.63719l-7.54109-6.23751,10.71549-24.28626,7.53709,6.2342-10.7115,24.28957ZM513.37846,598.25832l17.90966-11.36354,7.43991,6.15382-31.09591,19.73456,5.74634-14.52484ZM394.00753,538.60467l24.82811,20.61166,6.30794-14.6159,53.25751,44.05122c-5.91152,1.20691-11.15655,4.32767-14.99227,8.96502-3.83439,4.63575-5.9158,10.37258-5.99467,16.40799l-74.28394-61.44294c-10.85274-8.97669-15.21376-22.36724-9.52501-29.24488,4.87437-5.89306,16.37887-5.40161,26.52826,1.00713l-6.12594,14.2607ZM479.73784,599.48811l-3.46872,8.76576-7.96004,5.05151c.43631-6.53921,5.08773-12.16274,11.42876-13.81726ZM494.56972,616.36963l-7.43591-6.15051,17.84029-45.08963,7.43951,6.15349-17.84389,45.08665ZM486.59984,638.21099l-13.55269,34.24519-7.43991-6.15382,7.80315-19.723,13.18945-8.36837ZM446.73272,650.69056l-7.43951-6.15349,24.03543-15.25436,16.90841-10.72548,7.43591,6.15051-40.94024,25.98282ZM392.85909,593.85031l-7.54109-6.23751,6.59942-14.96015,7.54109,6.23751-6.59942,14.96015Z"/>
  </g>
  <g>
    <path class="cls-5" d="M1387.69305,585.62687l12.22564-6.86931s18.55218,15.07332,16.14691,26.29788c-2.40526,11.22456-10.62325,29.66492-27.66053,33.27282-17.03729,3.6079-150.98715,2.80614-155.36838,1.20263-4.38123-1.60351-46.28948-20.98017-41.94097-46.10089,2.09679-12.11285,19.69747-6.82136,30.33909-7.93841,7.88351-.82753,11.58885-.82753,11.58885-.82753l90.84015-5.26476,50.3101-.60132-4.96508,5.67883"/>
    <path class="cls-1" d="M1412.96959,588.04098c5.46274,6.66611,7.49478,15.19898,5.72198,24.02675-3.74484,18.56685-23.39393,33.11093-44.73205,33.11093h-131.86129c-18.45024,0-35.73108-10.6034-48.65972-29.8574l-2.1243-3.15504c-4.92161-7.8825-5.76047-16.96272-2.17751-23.68091v-.00057c4.25993-8.00194,11.58206-12.25847,21.18586-12.3196l11.11226,9.32644-10.90623.07019c-7.40308,0-10.00284,3.72786-11.85828,7.22252-1.82884,3.42051-2.46279,9.31455.46867,14.16824l2.09091,3.12561c7.87967,11.7264,21.36529,25.70276,40.86834,25.70276h131.86129c16.74141,0,32.67396-11.47282,35.51542-25.57484,1.21187-5.99424-.12736-11.75187-3.77088-16.2116-4.02276-4.90746-10.50718-7.89779-18.01101-8.36759l12.22564-6.86931c5.23463,2.03487,9.74304,5.24029,13.0509,9.28342Z"/>
    <polygon class="cls-5" points="1353.92962 547.93043 1353.92962 531.29402 1327.27128 516.26112 1292.39496 516.26112 1270.77848 531.29402 1267.34012 550.73657 1353.92962 547.93043"/>
    <polygon class="cls-5" points="1385.00074 570.78043 1375.17612 550.937 1249.10021 550.937 1227.43415 572.87159 1236.0717 580.20105 1372.16954 580.20105 1385.00074 570.78043"/>
    <path class="cls-1" d="M1358.92752,530.16972l-27.32103-17.11272h-37.94424s-28.51875,16.07689-28.51875,16.07689l-48.94556-.09679.03566-4.31823-25.13786-.03226.15905,14.83333,24.90013.05717-.0283-3.49183h49.40574s.01302,9.87379.01302,9.87379h-18.70213s-26.98255,27.3799-26.98255,27.3799l13.16298,11.32509,139.96681-.19245,18.27987-10.54284-13.83089-27.9697h-18.42251s-.08943-15.78935-.08943-15.78935ZM1372.14993,554.48571l7.51006,15.76331-10.12624,5.69537h-131.06206s-5.435-3.82408-5.435-3.82408l17.37932-17.6346h121.73392ZM1350.44955,545.95907h-2.46222s-73.91249-.09339-73.91249-.09339l-.13245-13.43071,20.61247-11.94602,34.1479-.06453.15679-.00057,21.55717,12.54261.03283,12.9926Z"/>
    <g>
      <path class="cls-1" d="M1385.00284,591.27302c9.02418,0,16.36924,7.34507,16.36924,16.3736,0,9.02418-7.34507,16.36924-16.36924,16.36924-9.02853,0-16.37363-7.34507-16.37363-16.36924,0-9.02853,7.3451-16.3736,16.37363-16.3736Z"/>
      <path class="cls-1" d="M1368.04962,607.64649c0-9.34795,7.60515-16.9531,16.9531-16.9531,9.34569,0,16.94914,7.60515,16.94914,16.9531,0,9.34569-7.60345,16.94914-16.94914,16.94914-9.34795,0-16.9531-7.60345-16.9531-16.94914ZM1369.20885,607.64649c0,8.70664,7.08497,15.78991,15.79388,15.78991,8.70664,0,15.78991-7.08327,15.78991-15.78991,0-8.7089-7.08327-15.79388-15.78991-15.79388-8.7089,0-15.79388,7.08497-15.79388,15.79388Z"/>
    </g>
    <g>
      <path class="cls-1" d="M1360.07824,609.99263c0,10.87812-8.84934,19.72697-19.72746,19.72697-10.87815,0-19.73182-8.84885-19.73182-19.72697,0-10.87812,8.85366-19.73182,19.73182-19.73182,10.87812,0,19.72746,8.8537,19.72746,19.73182Z"/>
      <path class="cls-1" d="M1320.03914,609.99267c0-11.19999,9.11192-20.31134,20.31191-20.31134,11.19716,0,20.30682,9.11135,20.30682,20.31134,0,11.19716-9.10965,20.30682-20.30682,20.30682-11.19999,0-20.31191-9.10965-20.31191-20.30682ZM1321.19836,609.99267c0,10.55812,8.59174,19.14759,19.15269,19.14759,10.55812,0,19.14759-8.58947,19.14759-19.14759,0-10.56038-8.58947-19.15212-19.14759-19.15212-10.56095,0-19.15269,8.59174-19.15269,19.15212Z"/>
    </g>
    <g>
      <path class="cls-1" d="M1315.43054,609.99263c0,10.87812-8.8537,19.72697-19.73182,19.72697s-19.72746-8.84885-19.72746-19.72697c0-10.87812,8.84934-19.73182,19.72746-19.73182s19.73182,8.8537,19.73182,19.73182Z"/>
      <path class="cls-1" d="M1275.39143,609.99267c0-11.19999,9.10965-20.31134,20.30738-20.31134,11.19999,0,20.31134,9.11135,20.31134,20.31134,0,11.19716-9.11135,20.30682-20.31134,20.30682-11.19773,0-20.30738-9.10965-20.30738-20.30682ZM1276.55065,609.99267c0,10.55812,8.59004,19.14759,19.14816,19.14759,10.56038,0,19.15212-8.58947,19.15212-19.14759,0-10.56038-8.59174-19.15212-19.15212-19.15212-10.55812,0-19.14816,8.59174-19.14816,19.15212Z"/>
    </g>
    <g>
      <path class="cls-1" d="M1251.05102,590.26081c10.87812,0,19.72746,8.8537,19.72746,19.73182,0,10.87812-8.84934,19.72697-19.72746,19.72697s-19.73182-8.84885-19.73182-19.72697c0-10.87812,8.8537-19.73182,19.73182-19.73182Z"/>
      <path class="cls-1" d="M1230.73975,609.99267c0-11.19999,9.11135-20.31134,20.31134-20.31134,11.19716,0,20.30682,9.11135,20.30682,20.31134,0,11.19716-9.10965,20.30682-20.30682,20.30682-11.19999,0-20.31134-9.10965-20.31134-20.30682ZM1231.89898,609.99267c0,10.55812,8.59174,19.14759,19.15212,19.14759,10.55812,0,19.14759-8.58947,19.14759-19.14759,0-10.56038-8.58947-19.15212-19.14759-19.15212-10.56038,0-19.15212,8.59174-19.15212,19.15212Z"/>
    </g>
    <g>
      <path class="cls-1" d="M1216.08519,611.79475c-5.93572,0-10.76431-4.82907-10.76431-10.76479,0-5.94056,4.82859-10.76915,10.76431-10.76915,5.94056,0,10.76915,4.82859,10.76915,10.76915,0,5.93572-4.82859,10.76479-10.76915,10.76479Z"/>
      <path class="cls-1" d="M1204.74152,601.03019c0-6.258,5.08859-11.34886,11.34376-11.34886,6.258,0,11.34886,5.09085,11.34886,11.34886,0,6.25517-5.09085,11.34433-11.34886,11.34433-6.25517,0-11.34376-5.08916-11.34376-11.34433ZM1205.90075,601.03019c0,5.61613,4.56898,10.18511,10.18454,10.18511,5.61839,0,10.18963-4.56898,10.18963-10.18511,0-5.61839-4.57124-10.18963-10.18963-10.18963-5.61556,0-10.18454,4.57124-10.18454,10.18963Z"/>
    </g>
  </g>
  <path class="cls-10" d="M548.1273,624.91334l-348.14968,1.20098c0,77.0388,110.57881,129.41832,261.70589,129.41832,124.44795,0,258.05251-42.27119,258.05251-130.47313l-171.60872-.14617Z"/>
  <g>
    <path class="cls-5" d="M1420.52809,644.31627l25.26542,21.02995,11.89807-7.60182-5.21804,12.87724,25.0546,20.8549,24.10278-60.89152,55.41454-35.10086-25.18948-20.83513-11.87737,7.72744,5.07012-13.35796-24.56842-20.32143-14.135,35.07621-57.19422-47.30741,9.22696-20.93627-24.77558-20.49278-9.57978,21.44996c-14.33324-8.47452-30.19518-7.7855-38.13815,1.81749-9.25322,11.18706-4.39384,30.53482,10.8371,43.13288l6.41254,5.30405-11.09556,25.32632,24.686,20.41868,11.27112-25.18111,44.76344,37.02546-32.23107,19.98572Z"/>
    <path class="cls-3" d="M1420.52809,644.31627l25.26542,21.02995,11.89807-7.60182-5.21804,12.87724,25.0546,20.8549,24.10278-60.89152,55.41454-35.10086-25.18948-20.83513-11.87737,7.72744,5.07012-13.35796-24.56842-20.32143-14.135,35.07621-57.19422-47.30741,9.22696-20.93627-24.77558-20.49278-9.57978,21.44996c-14.33324-8.47452-30.19518-7.7855-38.13815,1.81749-9.25322,11.18706-4.39384,30.53482,10.8371,43.13288l6.41254,5.30405-11.09556,25.32632,24.686,20.41868,11.27112-25.18111,44.76344,37.02546-32.23107,19.98572ZM1414.49054,542.89075l-7.54109-6.23751,10.71549-24.28626,7.53709,6.2342-10.7115,24.28957ZM1513.25764,599.51188l17.90966-11.36354,7.43991,6.15382-31.09591,19.73456,5.74634-14.52484ZM1393.88671,539.85823l24.82811,20.61166,6.30794-14.6159,53.25751,44.05122c-5.91152,1.20691-11.15655,4.32767-14.99227,8.96502-3.83439,4.63575-5.9158,10.37258-5.99467,16.40799l-74.28394-61.44294c-10.85274-8.97669-15.21376-22.36724-9.52501-29.24488,4.87437-5.89306,16.37887-5.40161,26.52826,1.00713l-6.12594,14.2607ZM1479.61702,600.74167l-3.46872,8.76576-7.96004,5.05151c.43631-6.53921,5.08773-12.16274,11.42876-13.81726ZM1494.4489,617.6232l-7.43591-6.15051,17.84029-45.08963,7.43951,6.15349-17.84389,45.08665ZM1486.47902,639.46455l-13.55269,34.24519-7.43991-6.15382,7.80315-19.723,13.18945-8.36837ZM1446.6119,651.94412l-7.43951-6.15349,24.03543-15.25436,16.90841-10.72548,7.43591,6.15051-40.94024,25.98282ZM1392.73827,595.10387l-7.54109-6.23751,6.59942-14.96015,7.54109,6.23751-6.59942,14.96015Z"/>
  </g>
  <path class="cls-10" d="M1548.15883,627.28507l-348.14968,1.20098c0,77.0388,110.57881,129.41832,261.70589,129.41832,124.44795,0,258.05251-42.27119,258.05251-130.47313l-171.60872-.14617Z"/>
</svg>