<?xml version="1.0" encoding="UTF-8"?>
<svg id="Ebene_4" data-name="Ebene 4" xmlns="http://www.w3.org/2000/svg" viewBox="0 0 1920 935.86728">
  <defs>
    <style>
      .cls-1, .cls-2, .cls-3 {
        fill: none;
      }

      .cls-4 {
        fill: #bb172b;
      }

      .cls-4, .cls-2, .cls-5, .cls-6, .cls-7, .cls-8, .cls-9, .cls-3 {
        stroke-miterlimit: 10;
      }

      .cls-4, .cls-6 {
        stroke-width: 5px;
      }

      .cls-4, .cls-6, .cls-8 {
        stroke: #0d435c;
      }

      .cls-2, .cls-7 {
        stroke: #114a64;
      }

      .cls-2, .cls-7, .cls-9 {
        stroke-width: 11.11034px;
      }

      .cls-10 {
        fill: #90172f;
      }

      .cls-11 {
        fill: #0d435c;
      }

      .cls-5, .cls-12, .cls-9 {
        fill: #aebfc7;
      }

      .cls-5, .cls-9 {
        stroke: #aebfc7;
      }

      .cls-13, .cls-6, .cls-7, .cls-8 {
        fill: #fff;
      }

      .cls-14 {
        fill: #f3f5f7;
      }

      .cls-15 {
        fill: #426b7e;
      }

      .cls-8 {
        stroke-width: 4px;
      }

      .cls-3 {
        stroke: #f9c000;
        stroke-width: 1.5933px;
      }
    </style>
  </defs>
  <rect class="cls-14" x="-10.01142" y="-9.34877" width="1938.56283" height="961.30448"/>
  <rect class="cls-5" x="-14.82352" y="735.26437" width="1949.64704" height="216.36107"/>
  <polyline class="cls-9" points="795.84151 732.70945 747.84161 729.15391 648.28626 729.15391 588.21354 732.70945 501.30594 736.265 435.84224 732.70945 386.95345 732.70945 301.25573 736.265 194.06495 729.15391 92.73182 736.265 -7.71242 729.15391"/>
  <polyline class="cls-9" points="1604.93354 736.265 1556.93363 732.70945 1457.37828 732.70945 1397.30556 736.265 1310.39796 739.82055 1244.93426 736.265 1196.04547 736.265 1110.34775 739.82055 1003.15697 732.70945 901.82384 739.82055 795.84151 732.70945"/>
  <polyline class="cls-9" points="1923.03124 743.3761 1815.84046 736.265 1714.50733 743.3761 1604.93354 736.265"/>
  <polygon class="cls-7" points="403.68784 534.03538 414.89811 557.99701 383.09384 571.12275 319.93213 658.23973 297.95603 660.56531 354.56294 582.01331 245.41232 629.33971 263.485 658.23973 245.6045 658.23973 231.07494 634.91533 212.88941 642.02699 201.55993 621.80786 403.68784 534.03538"/>
  <polygon class="cls-7" points="413.10652 511.34237 417.29801 519.25616 465.01471 498.97897 445.46496 458.17571 399.73199 479.11068 403.72387 486.45003 176.77663 587.47899 188.32952 609.89504 413.10652 511.34237"/>
  <path class="cls-7" d="M214.7257,658.23973v43.93227s400.23765,1.73703,400.23765,1.73703l28.11441-9.31341v-74.62514s-18.65631-18.6562-18.65631-18.6562h-107.6275v-39.96022s-48.51128,0-48.51128,0v41.4067s-36.34435,36.34435-36.34435,36.34435h-52.02362s0,19.13462,0,19.13462h-165.189ZM237.9065,682.92015v-.19579h137.7684v.19579h-137.7684ZM440.55943,658.34142v-.19953h104.25559v.19953h-104.25559Z"/>
  <polyline class="cls-2" points="478.8781 658.34142 583.13369 658.34142 608.33834 673.57619"/>
  <path class="cls-11" d="M534.61159,705.91169c0,14.777,12.02719,26.79776,26.80419,26.79776,14.777,0,26.79776-12.02077,26.79776-26.79776s-12.02077-26.80419-26.79776-26.80419-26.80419,12.02719-26.80419,26.80419Z"/>
  <path class="cls-11" d="M459.30485,705.91169c0,14.777,12.02719,26.79776,26.80419,26.79776s26.79776-12.02077,26.79776-26.79776-12.02077-26.80419-26.79776-26.80419-26.80419,12.02719-26.80419,26.80419Z"/>
  <path class="cls-11" d="M317.56041,713.8891c0,13.67458,11.12992,24.79855,24.80449,24.79855s24.79855-11.12397,24.79855-24.79855-11.12397-24.80449-24.79855-24.80449-24.80449,11.12992-24.80449,24.80449Z"/>
  <path class="cls-11" d="M251.65269,713.8891c0,13.67458,11.12992,24.79855,24.80449,24.79855,13.67458,0,24.79855-11.12397,24.79855-24.79855s-11.12397-24.80449-24.79855-24.80449c-13.67458,0-24.80449,11.12992-24.80449,24.80449Z"/>
  <path class="cls-6" d="M1165.00327,265.03385l-82.43035-10.58413-36.68219,7.43942,2.26369,34.64095,27.06124-2.76366s63.19302-17.51641,72.51329-20.43901c9.32026-2.9226,17.59266-4.83417,17.27432-8.29357Z"/>
  <path class="cls-6" d="M1172.80739,288.73981l-67.42435,48.58747-35.79426,10.9407-14.51816-31.5332,25.1078-10.46647s63.90337-14.71539,73.49001-16.58761c9.58664-1.87222,17.77025-4.13391,19.13897-.94089Z"/>
  <path class="cls-6" d="M1261.19315,271.10102l-6.98878-27.16837-179.64499,42.17522,5.76072,25.5625s172.82144-38.57424,180.87305-40.56935Z"/>
  <path class="cls-4" d="M1395.42843,240.02907l-6.132-27.5737-107.56204,25.09753,5.60982,27.68165s101.90736-23.63285,108.08421-25.20547Z"/>
  <path class="cls-6" d="M1275.80029,238.69218l-32.39131-13.89652-24.28242,6.36982,14.69321,18.7872,14.50287-.82093s26.17279-8.02591,27.47764-10.43957Z"/>
  <path class="cls-6" d="M1284.46606,260.04818l-22.96327,31.12026-26.32834,6.1557,3.02896-24.93828,13.52632-7.15081s30.24622-6.65369,32.73632-5.18687Z"/>
  <path class="cls-6" d="M1475.90938,204.68591c-1.37549-5.44922-31.50562-4.69922-38.48413-3.49146-12.51782,2.71338-48.14819,11.26538-48.14819,11.26538l6.12793,27.57446c21.70947-5.37878,39.14844-8.81165,47.62085-10.87476.00317.02173.00659.04333.00977.06494-.00977-.06494-.11597-.03784-.00977-.06494,8.04321-2.06104,34.62085-17.5896,32.88354-24.47363Z"/>
  <polygon class="cls-8" points="1165.64193 280.37481 1044.12426 309.4985 1043.47587 306.5772 1164.99354 277.45351 1165.64193 280.37481"/>
  <path class="cls-6" d="M1280.85229,237.51872c-12.51775,2.71337-48.14827,11.26532-48.14827,11.26532l6.12791,27.57454c21.87963-5.421,39.43307-8.86727,47.82995-10.92481-1.07875-9.45939-4.37011-23.91974-5.80958-27.91504Z"/>
  <g>
    <polygon class="cls-10" points="474.06442 464.85672 485.88376 459.86271 485.94235 460.00638 474.06442 464.85672"/>
    <polygon class="cls-10" points="510.14352 450.11234 534.56052 440.75797 534.83249 441.49686 510.31247 450.55216 510.14352 450.11234"/>
    <polygon class="cls-10" points="559.10739 431.74515 583.78854 423.10343 584.19675 424.30606 559.47116 432.77506 559.10739 431.74515"/>
    <polygon class="cls-10" points="608.57272 414.76041 633.45456 406.70975 633.94089 408.26102 609.02194 416.13688 608.57272 414.76041"/>
    <polygon class="cls-10" points="658.42966 398.94889 683.50876 391.53031 684.02682 393.33011 658.9487 400.67582 658.42966 398.94889"/>
    <polygon class="cls-10" points="708.67477 384.40995 733.92331 377.5867 734.42917 379.512 709.18796 386.27237 708.67477 384.40995"/>
    <polygon class="cls-10" points="759.2529 371.06571 784.66012 364.85392 785.14596 366.90531 759.74948 373.05399 759.2529 371.06571"/>
    <polygon class="cls-10" points="810.11081 358.86307 835.57761 352.9484 836.03952 354.92728 810.59518 360.92704 810.11081 358.86307"/>
    <polygon class="cls-10" points="861.05124 347.06376 886.53317 341.21488 886.95016 343.02372 861.49069 348.95755 861.05124 347.06376"/>
    <polygon class="cls-10" points="912.03757 335.46 937.56296 329.79715 937.87106 331.16214 912.40817 337.08316 912.03757 335.46"/>
    <polygon class="cls-10" points="963.10495 324.20987 988.68942 318.81607 988.83835 319.50443 963.35055 325.31656 963.10495 324.20987"/>
    <path class="cls-10" d="M1014.32761,313.6597c4.20166-.80029,8.40137-1.61853,12.62695-2.28418-4.21191.7417-8.39551,1.6355-12.58105,2.51147l-.0459-.22729Z"/>
  </g>
  <line class="cls-3" x1="1305.95212" y1="176.85726" x2="1196.50839" y2="176.85726"/>
  <g>
    <rect class="cls-1" x="1074.55938" y="156.70106" width="149.90596" height="34.89919"/>
    <path class="cls-11" d="M1091.84079,171.95841l2.67969-14.16406h4.08789l-4.41602,19.90625h-4.12891l-3.24023-13.31641-3.24023,13.31641h-4.12891l-4.41602-19.90625h4.08789l2.69336,14.13672,3.28125-14.13672h3.47266l3.26758,14.16406Z"/>
    <path class="cls-11" d="M1108.68454,177.7006c-.18262-.35547-.31445-.79785-.39648-1.32617-.95703,1.06641-2.20117,1.59961-3.73242,1.59961-1.44922,0-2.65039-.41895-3.60254-1.25781-.95264-.83887-1.42871-1.89551-1.42871-3.17188,0-1.56738.58105-2.77051,1.74316-3.60938s2.84131-1.2627,5.03809-1.27148h1.81836v-.84766c0-.68359-.17578-1.23047-.52637-1.64062-.35107-.41016-.90479-.61523-1.66113-.61523-.66553,0-1.1875.15918-1.56543.47852-.37842.31934-.56738.75684-.56738,1.3125h-3.95117c0-.85645.26416-1.64941.79297-2.37891.52832-.72949,1.27588-1.30078,2.24219-1.71582.96582-.41504,2.05078-.62207,3.25391-.62207,1.82275,0,3.26953.45801,4.34082,1.37402,1.0708.91602,1.60645,2.20312,1.60645,3.8623v6.41211c.00879,1.40332.20508,2.46582.58789,3.18555v.23242h-3.99219ZM1105.41696,174.95255c.58301,0,1.12109-.12988,1.61328-.38965s.85645-.6084,1.09375-1.0459v-2.54297h-1.47656c-1.97803,0-3.03076.68359-3.1582,2.05078l-.01367.23242c0,.49219.17285.89746.51953,1.2168.34619.31934.82031.47852,1.42188.47852Z"/>
    <path class="cls-11" d="M1123.43649,166.61271c-.53809-.07324-1.01172-.10938-1.42188-.10938-1.49512,0-2.47461.50586-2.93945,1.51758v9.67969h-3.95117v-14.79297h3.73242l.10938,1.76367c.79297-1.3584,1.89111-2.03711,3.29492-2.03711.4375,0,.84766.05957,1.23047.17773l-.05469,3.80078Z"/>
    <path class="cls-11" d="M1129.19235,164.52091c1.04785-1.25781,2.36523-1.88672,3.95117-1.88672,3.20801,0,4.83496,1.86426,4.88086,5.5918v9.47461h-3.95117v-9.38672c0-.84961-.18262-1.47754-.54688-1.88379-.36475-.40723-.9707-.61035-1.81836-.61035-1.15771,0-1.99609.44727-2.51562,1.34277v10.53809h-3.95117v-21h3.95117v7.82031Z"/>
    <path class="cls-11" d="M1147.81345,177.97403c-2.16943,0-3.93555-.66504-5.29785-1.99609-1.36279-1.33105-2.04395-3.10352-2.04395-5.31836v-.38281c0-1.48535.28711-2.81445.86133-3.98535s1.3877-2.07324,2.44043-2.70703,2.25342-.9502,3.60254-.9502c2.02344,0,3.61621.6377,4.77832,1.91406s1.74316,3.08496,1.74316,5.42773v1.61328h-9.41992c.12744.96582.5127,1.74121,1.15527,2.32422s1.45605.875,2.44043.875c1.52197,0,2.71143-.55176,3.56836-1.6543l1.94141,2.17383c-.59277.83887-1.39453,1.49219-2.40625,1.96191s-2.13281.7041-3.36328.7041ZM1147.36227,165.81974c-.78418,0-1.41992.26562-1.90723.79688-.48779.53125-.7998,1.29102-.93652,2.2793h5.49609v-.31641c-.01855-.87793-.25537-1.55859-.71094-2.03906-.45605-.48047-1.10303-.7207-1.94141-.7207Z"/>
    <path class="cls-11" d="M1164.71188,177.7006c-.18262-.35547-.31445-.79785-.39648-1.32617-.95703,1.06641-2.20117,1.59961-3.73242,1.59961-1.44922,0-2.65039-.41895-3.60254-1.25781-.95264-.83887-1.42871-1.89551-1.42871-3.17188,0-1.56738.58105-2.77051,1.74316-3.60938s2.84131-1.2627,5.03809-1.27148h1.81836v-.84766c0-.68359-.17578-1.23047-.52637-1.64062-.35107-.41016-.90479-.61523-1.66113-.61523-.66553,0-1.1875.15918-1.56543.47852-.37842.31934-.56738.75684-.56738,1.3125h-3.95117c0-.85645.26416-1.64941.79297-2.37891.52832-.72949,1.27588-1.30078,2.24219-1.71582.96582-.41504,2.05078-.62207,3.25391-.62207,1.82275,0,3.26953.45801,4.34082,1.37402,1.0708.91602,1.60645,2.20312,1.60645,3.8623v6.41211c.00879,1.40332.20508,2.46582.58789,3.18555v.23242h-3.99219ZM1161.4443,174.95255c.58301,0,1.12109-.12988,1.61328-.38965s.85645-.6084,1.09375-1.0459v-2.54297h-1.47656c-1.97803,0-3.03076.68359-3.1582,2.05078l-.01367.23242c0,.49219.17285.89746.51953,1.2168.34619.31934.82031.47852,1.42188.47852Z"/>
    <path class="cls-11" d="M1170.5361,170.19474c0-2.30566.51709-4.14258,1.55176-5.50977,1.03418-1.36719,2.44922-2.05078,4.24512-2.05078,1.43994,0,2.62939.53809,3.56836,1.61328v-7.54688h3.96484v21h-3.56836l-.19141-1.57227c-.98438,1.23047-2.25146,1.8457-3.80078,1.8457-1.74121,0-3.1377-.68555-4.19043-2.05762s-1.5791-3.2793-1.5791-5.72168ZM1174.48727,170.47599c0,1.3916.24121,2.45801.72461,3.2002.48291.74121,1.18457,1.1123,2.10547,1.1123,1.22119,0,2.08252-.51758,2.58398-1.55176v-5.86523c-.49219-1.03418-1.34473-1.55176-2.55664-1.55176-1.90527,0-2.85742,1.55176-2.85742,4.65625Z"/>
  </g>
  <line class="cls-3" x1="1356.90716" y1="224.79566" x2="1305.95212" y2="176.85726"/>
  <g>
    <rect class="cls-1" x="1184.86728" y="81.69875" width="149.90596" height="34.89919"/>
    <path class="cls-11" d="M1194.04294,83.10489l6.57422,18.5625,6.53906-18.5625h6.92578v25.59375h-5.29102v-6.99609l.52734-12.07617-6.9082,19.07227h-3.62109l-6.89062-19.05469.52734,12.05859v6.99609h-5.27344v-25.59375h6.89062Z"/>
    <path class="cls-11" d="M1218.31833,84.75724c0-.76172.25488-1.38867.76465-1.88086s1.2041-.73828,2.08301-.73828c.86719,0,1.55859.24609,2.07422.73828s.77344,1.11914.77344,1.88086c0,.77344-.26074,1.40625-.78223,1.89844s-1.20996.73828-2.06543.73828-1.54395-.24609-2.06543-.73828-.78223-1.125-.78223-1.89844ZM1223.71481,108.69864h-5.09766v-19.01953h5.09766v19.01953Z"/>
    <path class="cls-11" d="M1238.19919,103.44278c0-.62109-.30762-1.11035-.92285-1.46777s-1.60254-.67676-2.96191-.95801c-4.52344-.94922-6.78516-2.87109-6.78516-5.76562,0-1.6875.7002-3.09668,2.10059-4.22754s3.23145-1.69629,5.49316-1.69629c2.41406,0,4.34473.56836,5.79199,1.70508s2.1709,2.61328,2.1709,4.42969h-5.08008c0-.72656-.23438-1.32715-.70312-1.80176s-1.20117-.71191-2.19727-.71191c-.85547,0-1.51758.19336-1.98633.58008s-.70312.87891-.70312,1.47656c0,.5625.2666,1.0166.7998,1.3623s1.43262.64453,2.69824.89648,2.33203.53613,3.19922.85254c2.68359.98438,4.02539,2.68945,4.02539,5.11523,0,1.73438-.74414,3.1377-2.23242,4.20996s-3.41016,1.6084-5.76562,1.6084c-1.59375,0-3.00879-.28418-4.24512-.85254s-2.20605-1.34766-2.90918-2.33789-1.05469-2.05957-1.05469-3.20801h4.81641c.04688.90234.38086,1.59375,1.00195,2.07422s1.45312.7207,2.49609.7207c.97266,0,1.70801-.18457,2.20605-.55371s.74707-.85254.74707-1.4502Z"/>
    <path class="cls-11" d="M1256.70895,103.44278c0-.62109-.30762-1.11035-.92285-1.46777s-1.60254-.67676-2.96191-.95801c-4.52344-.94922-6.78516-2.87109-6.78516-5.76562,0-1.6875.7002-3.09668,2.10059-4.22754s3.23145-1.69629,5.49316-1.69629c2.41406,0,4.34473.56836,5.79199,1.70508s2.1709,2.61328,2.1709,4.42969h-5.08008c0-.72656-.23438-1.32715-.70312-1.80176s-1.20117-.71191-2.19727-.71191c-.85547,0-1.51758.19336-1.98633.58008s-.70312.87891-.70312,1.47656c0,.5625.2666,1.0166.7998,1.3623s1.43262.64453,2.69824.89648,2.33203.53613,3.19922.85254c2.68359.98438,4.02539,2.68945,4.02539,5.11523,0,1.73438-.74414,3.1377-2.23242,4.20996s-3.41016,1.6084-5.76562,1.6084c-1.59375,0-3.00879-.28418-4.24512-.85254s-2.20605-1.34766-2.90918-2.33789-1.05469-2.05957-1.05469-3.20801h4.81641c.04688.90234.38086,1.59375,1.00195,2.07422s1.45312.7207,2.49609.7207c.97266,0,1.70801-.18457,2.20605-.55371s.74707-.85254.74707-1.4502Z"/>
    <path class="cls-11" d="M1264.88278,84.75724c0-.76172.25488-1.38867.76465-1.88086s1.2041-.73828,2.08301-.73828c.86719,0,1.55859.24609,2.07422.73828s.77344,1.11914.77344,1.88086c0,.77344-.26074,1.40625-.78223,1.89844s-1.20996.73828-2.06543.73828-1.54395-.24609-2.06543-.73828-.78223-1.125-.78223-1.89844ZM1270.27927,108.69864h-5.09766v-19.01953h5.09766v19.01953Z"/>
    <path class="cls-11" d="M1279.82419,108.69864h-5.09766v-27h5.09766v27Z"/>
    <path class="cls-11" d="M1292.76169,109.05021c-2.78906,0-5.05957-.85547-6.81152-2.56641s-2.62793-3.99023-2.62793-6.83789v-.49219c0-1.91016.36914-3.61816,1.10742-5.12402s1.78418-2.66602,3.1377-3.48047,2.89746-1.22168,4.63184-1.22168c2.60156,0,4.64941.82031,6.14355,2.46094s2.24121,3.9668,2.24121,6.97852v2.07422h-12.11133c.16406,1.24219.65918,2.23828,1.48535,2.98828s1.87207,1.125,3.1377,1.125c1.95703,0,3.48633-.70898,4.58789-2.12695l2.49609,2.79492c-.76172,1.07812-1.79297,1.91895-3.09375,2.52246s-2.74219.90527-4.32422.90527ZM1292.18161,93.42325c-1.00781,0-1.8252.3418-2.45215,1.02441s-1.02832,1.65918-1.2041,2.93066h7.06641v-.40625c-.02344-1.12988-.32812-2.00391-.91406-2.62207s-1.41797-.92676-2.49609-.92676Z"/>
  </g>
  <g>
    <rect class="cls-1" x="164.59648" y="383.847" width="342.28217" height="71.70773"/>
    <path class="cls-11" d="M173.77243,385.25333l6.57422,18.5625,6.53906-18.5625h6.92578v25.59375h-5.29102v-6.99609l.52734-12.07617-6.9082,19.07227h-3.62109l-6.89062-19.05469.52734,12.05859v6.99609h-5.27344v-25.59375h6.89062Z"/>
    <path class="cls-11" d="M198.04782,386.90567c0-.76172.25488-1.38867.76465-1.88086s1.2041-.73828,2.08301-.73828c.86719,0,1.55859.24609,2.07422.73828s.77344,1.11914.77344,1.88086c0,.77344-.26074,1.40625-.78223,1.89844s-1.20996.73828-2.06543.73828-1.54395-.24609-2.06543-.73828-.78223-1.125-.78223-1.89844ZM203.4443,410.84708h-5.09766v-19.01953h5.09766v19.01953Z"/>
    <path class="cls-11" d="M217.92868,405.59122c0-.62109-.30762-1.11035-.92285-1.46777s-1.60254-.67676-2.96191-.95801c-4.52344-.94922-6.78516-2.87109-6.78516-5.76562,0-1.6875.7002-3.09668,2.10059-4.22754s3.23145-1.69629,5.49316-1.69629c2.41406,0,4.34473.56836,5.79199,1.70508s2.1709,2.61328,2.1709,4.42969h-5.08008c0-.72656-.23438-1.32715-.70312-1.80176s-1.20117-.71191-2.19727-.71191c-.85547,0-1.51758.19336-1.98633.58008s-.70312.87891-.70312,1.47656c0,.5625.2666,1.0166.7998,1.3623s1.43262.64453,2.69824.89648,2.33203.53613,3.19922.85254c2.68359.98438,4.02539,2.68945,4.02539,5.11523,0,1.73438-.74414,3.1377-2.23242,4.20996s-3.41016,1.6084-5.76562,1.6084c-1.59375,0-3.00879-.28418-4.24512-.85254s-2.20605-1.34766-2.90918-2.33789-1.05469-2.05957-1.05469-3.20801h4.81641c.04688.90234.38086,1.59375,1.00195,2.07422s1.45312.7207,2.49609.7207c.97266,0,1.70801-.18457,2.20605-.55371s.74707-.85254.74707-1.4502Z"/>
    <path class="cls-11" d="M236.43845,405.59122c0-.62109-.30762-1.11035-.92285-1.46777s-1.60254-.67676-2.96191-.95801c-4.52344-.94922-6.78516-2.87109-6.78516-5.76562,0-1.6875.7002-3.09668,2.10059-4.22754s3.23145-1.69629,5.49316-1.69629c2.41406,0,4.34473.56836,5.79199,1.70508s2.1709,2.61328,2.1709,4.42969h-5.08008c0-.72656-.23438-1.32715-.70312-1.80176s-1.20117-.71191-2.19727-.71191c-.85547,0-1.51758.19336-1.98633.58008s-.70312.87891-.70312,1.47656c0,.5625.2666,1.0166.7998,1.3623s1.43262.64453,2.69824.89648,2.33203.53613,3.19922.85254c2.68359.98438,4.02539,2.68945,4.02539,5.11523,0,1.73438-.74414,3.1377-2.23242,4.20996s-3.41016,1.6084-5.76562,1.6084c-1.59375,0-3.00879-.28418-4.24512-.85254s-2.20605-1.34766-2.90918-2.33789-1.05469-2.05957-1.05469-3.20801h4.81641c.04688.90234.38086,1.59375,1.00195,2.07422s1.45312.7207,2.49609.7207c.97266,0,1.70801-.18457,2.20605-.55371s.74707-.85254.74707-1.4502Z"/>
    <path class="cls-11" d="M244.61227,386.90567c0-.76172.25488-1.38867.76465-1.88086s1.2041-.73828,2.08301-.73828c.86719,0,1.55859.24609,2.07422.73828s.77344,1.11914.77344,1.88086c0,.77344-.26074,1.40625-.78223,1.89844s-1.20996.73828-2.06543.73828-1.54395-.24609-2.06543-.73828-.78223-1.125-.78223-1.89844ZM250.00876,410.84708h-5.09766v-19.01953h5.09766v19.01953Z"/>
    <path class="cls-11" d="M259.55368,410.84708h-5.09766v-27h5.09766v27Z"/>
    <path class="cls-11" d="M272.49118,411.19864c-2.78906,0-5.05957-.85547-6.81152-2.56641s-2.62793-3.99023-2.62793-6.83789v-.49219c0-1.91016.36914-3.61816,1.10742-5.12402s1.78418-2.66602,3.1377-3.48047,2.89746-1.22168,4.63184-1.22168c2.60156,0,4.64941.82031,6.14355,2.46094s2.24121,3.9668,2.24121,6.97852v2.07422h-12.11133c.16406,1.24219.65918,2.23828,1.48535,2.98828s1.87207,1.125,3.1377,1.125c1.95703,0,3.48633-.70898,4.58789-2.12695l2.49609,2.79492c-.76172,1.07812-1.79297,1.91895-3.09375,2.52246s-2.74219.90527-4.32422.90527ZM271.9111,395.57169c-1.00781,0-1.8252.3418-2.45215,1.02441s-1.02832,1.65918-1.2041,2.93066h7.06641v-.40625c-.02344-1.12988-.32812-2.00391-.91406-2.62207s-1.41797-.92676-2.49609-.92676Z"/>
    <path class="cls-11" d="M297.52243,410.84708h-5.09766v-27h5.09766v27Z"/>
    <path class="cls-11" d="M312.72751,410.84708c-.23438-.45703-.4043-1.02539-.50977-1.70508-1.23047,1.37109-2.83008,2.05664-4.79883,2.05664-1.86328,0-3.40723-.53906-4.63184-1.61719s-1.83691-2.4375-1.83691-4.07812c0-2.01562.74707-3.5625,2.24121-4.64062s3.65332-1.62305,6.47754-1.63477h2.33789v-1.08984c0-.87891-.22559-1.58203-.67676-2.10938s-1.16309-.79102-2.13574-.79102c-.85547,0-1.52637.20508-2.0127.61523s-.72949.97266-.72949,1.6875h-5.08008c0-1.10156.33984-2.12109,1.01953-3.05859s1.64062-1.67285,2.88281-2.20605,2.63672-.7998,4.18359-.7998c2.34375,0,4.2041.58887,5.58105,1.7666s2.06543,2.83301,2.06543,4.96582v8.24414c.01172,1.80469.26367,3.16992.75586,4.0957v.29883h-5.13281ZM308.52634,407.31388c.75,0,1.44141-.16699,2.07422-.50098s1.10156-.78223,1.40625-1.34473v-3.26953h-1.89844c-2.54297,0-3.89648.87891-4.06055,2.63672l-.01758.29883c0,.63281.22266,1.1543.66797,1.56445s1.05469.61523,1.82812.61523Z"/>
    <path class="cls-11" d="M332.39743,408.91349c-1.25391,1.52344-2.98828,2.28516-5.20312,2.28516-2.03906,0-3.59473-.58594-4.66699-1.75781s-1.62012-2.88867-1.64355-5.15039v-12.46289h5.08008v12.30176c0,1.98242.90234,2.97363,2.70703,2.97363,1.72266,0,2.90625-.59863,3.55078-1.79492v-13.48047h5.09766v19.01953h-4.78125l-.14062-1.93359Z"/>
    <path class="cls-11" d="M345.82712,391.82755l.1582,2.19727c1.35938-1.69922,3.18164-2.54883,5.4668-2.54883,2.01562,0,3.51562.5918,4.5,1.77539s1.48828,2.95312,1.51172,5.30859v12.28711h-5.08008v-12.19238c0-1.08008-.23438-1.86426-.70312-2.35156s-1.24805-.73145-2.33789-.73145c-1.42969,0-2.50195.61133-3.2168,1.83203v13.44336h-5.08008v-19.01953h4.78125Z"/>
    <path class="cls-11" d="M369.2236,407.10294c.9375,0,1.69922-.25781,2.28516-.77344s.89062-1.20117.91406-2.05664h4.76367c-.01172,1.28906-.36328,2.46973-1.05469,3.54199s-1.6377,1.9043-2.83887,2.49609-2.52832.8877-3.98145.8877c-2.71875,0-4.86328-.86426-6.43359-2.59277s-2.35547-4.11621-2.35547-7.16309v-.33398c0-2.92969.7793-5.26758,2.33789-7.01367s3.69727-2.61914,6.41602-2.61914c2.37891,0,4.28613.67676,5.72168,2.03027s2.16504,3.15527,2.18848,5.40527h-4.76367c-.02344-.98926-.32812-1.79395-.91406-2.41211s-1.35938-.92773-2.32031-.92773c-1.18359,0-2.07715.43164-2.68066,1.29395s-.90527,2.2627-.90527,4.19824v.52832c0,1.96094.29883,3.36914.89648,4.22559.59766.85742,1.50586,1.28516,2.72461,1.28516Z"/>
    <path class="cls-11" d="M385.04391,393.90177c1.34766-1.61719,3.04102-2.42578,5.08008-2.42578,4.125,0,6.2168,2.39648,6.27539,7.18945v12.18164h-5.08008v-12.06836c0-1.09277-.23438-1.90039-.70312-2.42285s-1.24805-.78418-2.33789-.78418c-1.48828,0-2.56641.57617-3.23438,1.72656v13.54883h-5.08008v-27h5.08008v10.05469Z"/>
    <path class="cls-11" d="M408.98532,411.19864c-2.78906,0-5.05957-.85547-6.81152-2.56641s-2.62793-3.99023-2.62793-6.83789v-.49219c0-1.91016.36914-3.61816,1.10742-5.12402s1.78418-2.66602,3.1377-3.48047,2.89746-1.22168,4.63184-1.22168c2.60156,0,4.64941.82031,6.14355,2.46094s2.24121,3.9668,2.24121,6.97852v2.07422h-12.11133c.16406,1.24219.65918,2.23828,1.48535,2.98828s1.87207,1.125,3.1377,1.125c1.95703,0,3.48633-.70898,4.58789-2.12695l2.49609,2.79492c-.76172,1.07812-1.79297,1.91895-3.09375,2.52246s-2.74219.90527-4.32422.90527ZM408.40524,395.57169c-1.00781,0-1.8252.3418-2.45215,1.02441s-1.02832,1.65918-1.2041,2.93066h7.06641v-.40625c-.02344-1.12988-.32812-2.00391-.91406-2.62207s-1.41797-.92676-2.49609-.92676Z"/>
    <path class="cls-11" d="M430.3779,396.59122c-.69141-.09375-1.30078-.14062-1.82812-.14062-1.92188,0-3.18164.65039-3.7793,1.95117v12.44531h-5.08008v-19.01953h4.79883l.14062,2.26758c1.01953-1.74609,2.43164-2.61914,4.23633-2.61914.5625,0,1.08984.07617,1.58203.22852l-.07031,4.88672Z"/>
  </g>
  <path class="cls-12" d="M278.38327,169.85074c-7.22813,1.10995-22.74695-5.12382-20.44642-14.25323,1.72236-5.43021,7.6051-8.81322,12.92632-8.66814-2.69494,3.4099-5.57367,6.51561-6.2633,10.11696.02168.28207.06905.19857.13643.29232.72291,1.18474,2.31102,2.3917,3.42136,3.41042,3.42356,3.02436,6.80271,5.64373,10.22561,9.10167h0Z"/>
  <path class="cls-12" d="M295.57614,155.33072c-8.14839-1.78391-17.48175-5.18235-20.47802-13.84154-3.43799-9.43324,4.22373-19.11549,13.59833-19.63639-2.83955,3.00087-5.14814,5.86794-6.40009,8.87038-4.77283,11.33185,7.81951,16.78967,13.27979,24.60754h0Z"/>
  <path class="cls-12" d="M413.34225,154.22513c7.95399,3.78302,11.54019,12.52431,4.52373,19.28042-5.25732,5.0342-12.51362,7.14913-19.34596,7.95244-4.47855.46038-8.90824.40947-13.42044-.39766,7.65805-4.04593,16.00153-6.01669,23.45749-9.74602,9.9177-4.76531,8.94054-8.45409,4.78518-17.08918h0Z"/>
  <path class="cls-12" d="M305.51169,123.61344c8.6012-6.95991,20.54155-8.12478,31.227-6.59599,10.8877,1.67177,21.02704,6.79748,29.95901,12.95284.00002-.00004-3.11326-.46464-3.11326-.46464,13.62759-4.32325,30.14698-3.30872,40.64879,7.4065,4.0639,3.70806,7.78461,7.81805,10.90834,12.33836,1.47311,2.04081,3.59215,5.62575,1.12942,7.73787,1.56528-2.47615-.91018-4.79855-2.65086-6.42219-1.96587-1.80908-3.96343-3.55579-6.03081-5.20557-3.99321-3.12963-8.3425-6.47788-12.82124-8.65082-8.93871-3.99659-19.75705-3.17081-29.02251-.35709,0,.0001-1.68164.52537-1.68164.52537l-1.43213-.98987c-8.36139-5.78715-17.19102-10.81063-27.02442-13.38366-9.80633-2.45264-20.48888-2.94873-30.0957,1.10888h0Z"/>
  <path class="cls-12" d="M303.97165,152.35636c2.73507,2.0317,5.89333,2.55357,9.09714,3.1656,3.15038.50062,6.32628.89238,9.51761.98774,2.28596.06553,4.96875.14498,7.24512.09345,4.09099-.44219,7.97315-1.97254,12.24219-2.46196-2.94874,1.76364-5.77198,3.61142-9.03565,4.98764-4.99333,1.93706-10.57879,2.37084-15.85007,1.47062-4.99385-1.04914-11.22963-3.04468-13.21633-8.24308h0Z"/>
  <path class="cls-12" d="M295.57614,169.57755c17.47173,12.40736,39.88029,17.85557,60.50493,11.62423,5.05955-1.60396,10.17351-4.18225,15.2314-6.19992,0,0,2.62305-1.04077,2.62305-1.04077.47998-.17688,1.03027-.36292,1.63379-.19958.65418.17436.71924.85855-.04398.9568-.12398.03222-.32174-.05873-.28365-.19984.09834.24395.38478-.02383.45557-.14928.02051-.03749.03027-.07619.01709-.08241-.00732-.00806-.01953.03809-.01953.03809-.02295.00403-.146-.02612-.21582-.00928-.33447.04224-.6792.29346-.98535.57874l-2.1582,1.81812c-4.43878,3.66633-8.82488,7.11099-14.11815,9.72316-21.16239,10.02554-49.81309,2.87957-62.64112-16.85805h0Z"/>
  <path class="cls-12" d="M406.88473,135.22477c7.73122-4.82681,17.33486-6.62874,26.41844-5.89204.00001.00008-.22167,4.88374-.22167,4.88374-2.21602.25933-4.69927-.32302-6.50974-1.6961-3.60524-2.56749-4.7977-6.81047-5.1176-10.96898-.92023-9.34142,3.21806-18.72872,9.33588-25.42401,14.56587-15.7288,38.0821-20.65679,58.68932-17.97895,7.0389.97249,14.65225,3.33055,19.79397,8.61821,2.32691,2.1545,3.87368,3.37413,7.0367,3.78476,10.81466.70214,19.35242,5.761,27.22938,12.87982-5.80417-2.90718-11.77039-5.952-18.12538-7.06204-3.30351-.622-6.07563-.47248-9.54983-.46515-3.79267.13556-8.01108-1.83642-10.73672-4.13003-4.8297-3.97905-10.4675-5.01401-16.57772-5.57061-17.98169-1.20419-38.37112,2.8214-51.60117,15.69591-5.97628,5.99524-9.77287,14.14811-8.6673,22.59503.321,2.42876,1.86754,4.7237,4.49651,4.81453,0,.00002-.22168,4.88381-.22168,4.88381-8.3557-1.88623-17.42738-1.58895-25.67139,1.0321h0Z"/>
  <path class="cls-12" d="M523.42624,87.50992c11.40794-1.20528,32.08452-3.18167,41.86188,3.46782,9.39903,7.50898,21.31957,17.62789,18.94346,31.19659-.00016.00002-5.52848-5.26304-5.52848-5.26304,5.84033-1.49878,11.8501-2.32361,17.9043-2.44702,12.05407-.16242,25.14999,2.55757,34.16653,11.16254,4.31364,4.10834,7.88807,10.37197,6.09763,16.43625-.74995-8.57822-8.81902-13.59351-16.14443-16.25926-15.10244-5.12041-31.64871-2.42112-46.74763,1.53044-.00003-.00009,1.39059-6.92233,1.39059-6.92233,1.60263-8.80487-8.41497-17.87248-13.94904-24.03549-2.87468-2.60341-6.68233-3.47005-10.59289-4.5496-8.97337-2.15693-18.1798-3.0571-27.40192-4.31688h0Z"/>
  <path class="cls-12" d="M650.39304,138.10941c19.40715,8.12087,29.33818,33.93417,4.51498,42.42905-.4598.23818-.92855.46767-1.2264.99807-.24707-.59045-.01709-1.27869.18066-1.88757.67968-1.6254,1.79862-3.1175,2.71288-4.51197,3.25392-4.46843,5.24372-9.11778,3.73661-14.44389-2.16157-8.06068-6.84124-14.47057-9.91873-22.5837h0Z"/>
  <path class="cls-12" d="M494.53952,130.26358c5.35634-4.3951,12.18699-6.75686,18.96338-8.03686,20.96204-3.91308,42.36017,4.15738,59.50871,15.82569.00008-.00026-3.83147-.56007-3.83147-.56007,13.11858-3.85027,27.849-4.46517,40.52102,1.29854,7.47848,3.53115,13.24658,9.2521,18.83505,15.04971,2.87629,3.61178,13.42669,13.65358,8.23882,17.85735,2.06398-3.15141-1.2559-6.04865-3.48397-8.07047-2.53425-2.26245-5.09968-4.45618-7.79011-6.48376-5.15443-3.88948-10.75135-8.04321-16.51898-10.68173-11.5226-4.83061-25.27486-3.78528-37.15533-.29619,0,.00013-2.05908.62513-2.05908.62513l-1.77295-1.18481c-16.0746-10.92987-34.2858-19.32177-54.06403-18.99494-6.52484.0539-13.10346,1.0395-19.39105,3.65241h0Z"/>
  <path class="cls-12" d="M435.44723,163.2891c26.53135,12.23006,57.01316,15.64131,85.58933,10.5959,7.14201-1.39653,14.37999-3.77374,21.54983-5.5892,1.33198-.24881,4.35208-1.3455,5.73775-1.07915.83797.09122,1.33593.87924.14015.99669-.14499.0024-.40817-.00468-.41794-.20207.06982.15857.26025.07678.38281.0332.13135-.05701.26758-.14368.33496-.23584.05566-.05237-.00635-.0769.00586.02869-.69637-.00462-1.37366.27246-2.03515.71233-12.06654,7.22513-24.99387,13.56767-39.20273,15.08148-25.13392,2.94084-53.36902-2.43926-72.08487-20.34203h0Z"/>
  <path class="cls-12" d="M566.16794,192.78995c3.12228,1.19734,7.90422.59275,11.17572.64033,11.14977-.17825,22.77974,1.32352,33.60211,1.85221,7.15723.29811,14.3921-.03051,21.79151-.5786,7.40137-.49841,14.9375-1.30908,22.7334-1.22766-13.88047,7.13899-29.12968,11.46031-44.91354,10.87293-7.92825-.34925-15.46585-1.89856-22.81351-3.59754-3.68994-.87781-7.36914-1.83301-11.02783-2.92761-3.57562-1.18529-7.92068-2.05518-10.54785-5.03406h0Z"/>
  <g>
    <circle class="cls-13" cx="1717.28929" cy="244.36876" r="1.63138"/>
    <path class="cls-12" d="M1718.92062,244.36881c-.02477,2.42537-3.67165,2.56905-3.76221-.00007.08803-2.57454,3.7386-2.42671,3.76221.00007h0ZM1718.92062,244.36881c-.07644-1.91765-2.75412-1.7741-2.76318.00006.00609,1.77834,2.68681,1.91896,2.76318-.00006h0Z"/>
  </g>
  <path class="cls-12" d="M1600.55685,356.2819c-7.59244-1.02793-14.93873-2.73304-21.33213-7.31404-7.94154-5.81985-10.04272-17.16715-2.4662-24.22102,4.16259-3.91917,9.32983-5.65953,14.41479-5.64659-1.87573,1.75037-3.64014,3.34192-5.19092,5.00464-15.23426,15.82289,5.77242,21.45542,14.57446,32.177h0Z"/>
  <path class="cls-12" d="M1588.42648,314.85172c8.48205-4.48837,18.36592-6.09909,27.97728-5.53368.00002.00011-.18773,4.89012-.18773,4.89012-4.53023.57572-9.16918-2.15152-10.90033-6.41929-2.7604-7.4373-.65578-16.09777,3.83424-22.34228,15.24622-21.68357,54.98196-27.15012,78.81655-19.33031,1.74197.62838,3.4783,1.39864,5.16214,2.39425,3.01786,1.75747,4.98323,4.09233,7.93093,5.28088,2.74949,1.1105,6.21382.97753,9.3388,1.57111,8.61906,1.42824,16.30709,5.90456,23.16456,11.047-6.11265-2.5463-12.34847-5.14798-18.86349-6.09612-5.20933-.99535-10.09271.30834-15.41214-1.01043-1.98508-.51888-3.82395-1.48543-5.3486-2.43636-7.89189-5.59238-17.6646-5.65001-27.00366-5.71202-18.69387.37651-48.86543,6.43215-55.56589,26.41165-.69525,2.3408-.87168,4.8666-.51099,7.28389.28933,2.55889,2.44287,4.39867,5.10204,4.45101,0,.00005-.18775,4.89006-.18775,4.89006-8.97067-1.72806-18.37201-1.61732-27.34595.66052h0Z"/>
  <path class="cls-12" d="M1712.20138,272.16642c11.69148-1.14253,34.44666-3.24751,44.50665,3.02275,9.18339,6.33227,22.23777,15.14845,19.64178,28.20883-.00024.00011-5.18188-5.30714-5.18188-5.30714,2.98193-.65027,5.99097-1.16882,9.02344-1.51819,15.09677-1.66602,31.72533-.54487,44.49055,8.58581,4.75776,3.5318,9.87633,9.47959,8.00587,15.81059-.68413-8.65291-10.9421-12.68332-18.1542-14.66841-15.81578-3.86379-32.50333-1.67713-48.22746,1.72285-.00002-.00003,1.49339-6.64419,1.49339-6.64419.20605-.91687.24927-1.81836.08521-2.81287-.73283-3.71244-3.2614-6.65685-5.98747-9.67167-2.47032-2.63369-5.41749-5.29194-8.2125-7.77681-3.64853-3.31639-8.90132-4.03393-13.71768-5.16169-9.16062-1.76782-18.44723-2.62986-27.76571-3.78985h0Z"/>
  <path class="cls-12" d="M1847.04831,317.43229c20.09932,6.12562,30.68349,31.42002,4.72301,38.02131-.47594.18169-.93394.33916-1.23009.82829-.34598-1.16781.62775-2.36124,1.20914-3.28164,2.48805-3.54168,6.28905-6.98823,6.70592-11.19883.23853-4.8604-2.49032-8.78183-5.1688-13.46966-2.00994-3.38752-4.31048-6.81049-6.23919-10.89948h0Z"/>
  <path class="cls-12" d="M1612.69992,358.45694c2.92492,6.28457,7.01284,7.81652,13.60612,8.79962,5.86947.93976,11.79501,1.80378,17.68466,2.55256,11.53515,1.27471,23.00227,3.36887,34.50585,1.50321,3.08504-.57948,7.33721-.62942,10.49097.15463,3.13248.72567,5.82722,1.64034,8.81131,2.4257,5.55222,1.44599,11.27732,2.41401,17.07029,3.08039,11.78812,1.27366,23.6099,1.05152,35.47436-.58439-11.08411,5.31246-23.55136,7.45075-35.83861,7.5323-6.20606-.00736-12.44312-.60294-18.60743-1.8538-5.49504-1.11457-10.43845-3.27674-16.07592-2.00904-12.41649,2.0023-25.03387-.66627-37.09377-3.43143-5.92919-1.44466-11.75756-3.13448-17.53051-5.18795-6.53616-2.25746-11.60259-5.42022-12.49731-12.98181h0Z"/>
  <path class="cls-12" d="M1681.5217,310.41324c5.97339-4.08925,13.04703-6.18175,20.13624-7.38671,21.7332-3.58735,43.89898,3.1115,62.70159,13.87327.00006-.00023-3.26068-.42406-3.26068-.42406,14.26531-3.46349,29.7745-3.93969,43.54714,1.76922,6.81412,3.02947,12.37579,7.50395,17.9102,12.26744,2.63544,2.3951,5.19794,4.86007,7.54291,7.52084,2.05374,2.26427,6.07346,6.79117,2.48594,9.44731,2.46173-3.20247-1.86126-5.83959-4.14206-7.65226-2.7765-2.06348-5.58094-4.05384-8.49867-5.8661-5.61986-3.47831-11.59127-7.17948-17.79073-9.2408-12.3783-3.78707-26.32296-2.779-38.85259.32265,0,.00017-1.71411.45061-1.71411.45061l-1.54688-.87427c-17.7082-10.15669-37.36887-17.42085-58.02422-17.26959-6.8647-.00189-13.77192.78351-20.49409,3.06244h0Z"/>
  <path class="cls-12" d="M1618.76218,339.95792c24.26826,9.32577,50.05297,12.05247,75.77024,10.82552,12.94897-.46613,25.40184-3.64323,38.05028-6.43282.00004.00025,3.88725-.78161,3.88725-.78161.83238-.15448,1.80905-.29989,2.66114.01696.71068.2724.37601.79499-.33109.78258-.15158-.00974-.41159.01272-.45041-.18637.08374.1532.28809.05725.41992.021.16266-.05827.3453-.16486.38313-.25671-.03718.01868.0075.12512-.00007.11841-.78501-.07306-1.55223.2802-2.28566.67029.00002,0-3.55638,1.75305-3.55638,1.75305-11.91051,5.9758-24.74052,10.74292-38.1297,11.99271-25.89991,2.58661-55.65306-1.88252-76.41864-18.52298h0Z"/>
  <path class="cls-12" d="M1757.59567,366.34903c3.34991,1.03111,8.41521.3955,11.88274.40097,11.83717-.2943,24.07745.99327,35.64606,1.46485,15.7379.67267,31.33062-1.53995,47.3164-1.25197-23.97639,10.78837-46.27843,12.61583-71.738,6.80915-3.92556-.81289-7.84182-1.70169-11.74173-2.72683-3.83188-1.12832-8.30493-1.8742-11.36548-4.69617h0Z"/>
  <polygon class="cls-15" points="917.17429 740.6986 944.37255 720.32161 976.27064 716.67473 1003.15697 740.6986 1003.15697 740.6986 917.17429 740.6986"/>
  <polygon class="cls-15" points="975.74029 749.95457 995.9005 734.85051 1019.54435 732.14732 1039.47335 749.95457 1039.47335 749.95457 975.74029 749.95457"/>
  <polygon class="cls-15" points="1793.03334 832.22676 1760.06929 807.53004 1721.40912 803.11005 1688.82313 832.22676 1688.82313 832.22676 1793.03334 832.22676"/>
  <polygon class="cls-15" points="1722.0519 843.44491 1697.61791 825.13892 1668.96178 821.86269 1644.80802 843.44491 1644.80802 843.44491 1722.0519 843.44491"/>
  <polygon class="cls-15" points="132.05327 836.42104 99.08923 811.72432 60.42905 807.30433 27.84306 836.42104 27.84306 836.42104 132.05327 836.42104"/>
</svg>