<?xml version="1.0" encoding="UTF-8"?>
<svg id="Ebene_4" data-name="Ebene 4" xmlns="http://www.w3.org/2000/svg" viewBox="0 0 1920 592.4321">
  <defs>
    <style>
      .cls-1, .cls-2 {
        fill: none;
      }

      .cls-2 {
        stroke: #fac100;
        stroke-width: 12.65053px;
      }

      .cls-2, .cls-3, .cls-4, .cls-5 {
        stroke-miterlimit: 10;
      }

      .cls-6 {
        fill: #90172f;
      }

      .cls-7 {
        fill: #0d435c;
      }

      .cls-8, .cls-3, .cls-4, .cls-5 {
        fill: #fff;
      }

      .cls-3 {
        stroke: #0d425b;
      }

      .cls-3, .cls-5 {
        stroke-width: 11.44812px;
      }

      .cls-9 {
        fill: #f3f5f7;
      }

      .cls-4 {
        stroke: #0d435c;
        stroke-width: 10px;
      }

      .cls-10 {
        fill: #7996a5;
      }

      .cls-11 {
        fill: #98ba00;
      }

      .cls-5 {
        stroke: #98ba00;
      }
    </style>
  </defs>
  <rect class="cls-9" x="-16.50569" y="-8.37843" width="1953.01137" height="605.40637"/>
  <g>
    <path class="cls-5" d="M1629.35549,161.42746h.00069c10.57831,0,19.15288-8.61434,19.15288-19.24066s-8.57457-19.24066-19.15288-19.24066h-.00069c-10.57763,0-19.15288,9.37552-19.15288,20.00252,0,10.62563,8.57525,18.47879,19.15288,18.47879Z"/>
    <g>
      <path class="cls-8" d="M1639.34164,329.57562c-3.9541-.09766-7.72266-1.72461-10.31934-4.46387-.50586-.5332-.95898-1.09766-1.35547-1.68652-2.3916,3.65039-6.65723,6.15625-11.33398,6.15625-.12695,0-.25586-.00195-.38379-.00586-3.86621-.0957-7.56445-1.69922-10.12402-4.39844-2.27246-2.39551-3.48438-5.41602-3.41992-8.51562l.24219-71.24902-.52344,1.32227c-1.69922,4.52344-5.81641,7.33008-10.7627,7.33008-1.6416,0-3.31152-.30762-4.96191-.91602-2.99316-1.08887-5.40234-3.30664-6.7627-6.23828-1.48047-3.19043-1.6416-7.09766-.43652-10.4834.66797-2.09277,11.06738-34.66211,14.63867-45.33887,3.84668-11.49805,16.61914-18.36133,34.16699-18.36133,15.12793,0,28.0957,6.8916,33.03809,17.55762l.09082.19434,18.38574,49.01172c2.18164,6.03711-.20801,14.13086-7.20605,16.65918-1.60645.58789-3.27832.88867-4.94824.88867-5.24023,0-9.72559-2.95117-11.50488-7.54395l-2.78516-6.13281-.15723,73.83203c-.19238,6.83008-6.11133,12.3877-13.19336,12.3877-.12695,0-.25586-.00195-.38379-.00586Z"/>
      <path class="cls-11" d="M1628.00594,178.45062c12.24683,0,23.63916,5.16504,27.84399,14.23975l18.31079,48.81104c1.19263,3.2998-.08423,7.92578-3.79224,9.26562-1.021.37305-2.03589.54785-3.00293.54785-2.87427,0-5.32129-1.54492-6.21411-4.01416l-13.74438-30.26416-.20972,99.99609c-.09863,3.47461-3.29517,6.82422-7.47192,6.82422-.07349,0-.14771-.00098-.22168-.00293-4.6936-.1167-8.22266-3.47998-8.12329-7.01611l.44019-60.61914h-7.81055l-.06445,60.81396c-.09839,3.47461-3.4314,6.82422-7.61304,6.82422-.07349,0-.14771-.00098-.22168-.00293-4.69385-.1167-8.08154-3.57812-7.98193-7.11377l.34546-101.5957-11.69458,29.53809c-.88354,2.39844-2.94629,3.6582-5.4187,3.6582-.94849,0-1.95728-.18506-2.98291-.56299-4.05786-1.47705-4.97998-6.1875-3.75806-9.50684,0,0,10.94507-34.2998,14.64771-45.36719,3.70215-11.06689,17.30811-14.45312,28.73804-14.45312M1628.00594,167.00238c-20.12817,0-34.92993,8.3252-39.59473,22.26953-3.58447,10.71387-13.67432,42.31348-14.63794,45.33252-1.68555,4.80957-1.44507,10.15479.67114,14.71484,2.00537,4.32129,5.56323,7.59473,10.01807,9.21631,2.24487.82666,4.57959,1.25342,6.89868,1.25342,1.92358,0,3.77979-.30176,5.51636-.87012l-.19629,57.67725c-.08179,4.59668,1.68604,9.03564,4.98975,12.51953,3.59912,3.79492,8.75854,6.04883,14.15552,6.18262.14307.00439.32544.00684.5061.00684,4.26489,0,8.2373-1.3999,11.44067-3.75,3.28076,2.30762,7.29077,3.64014,11.44604,3.74316.14307.00439.32544.00684.5061.00684,10.14893,0,18.63452-8.05127,18.91553-17.94775l.00415-.15039.00024-.15039.11816-56.34131c2.56152,1.32129,5.49316,2.04785,8.60205,2.04785,2.34277,0,4.67554-.41846,6.93335-1.24365,4.84912-1.75244,8.71191-5.66699,10.55786-10.72607,1.54395-4.23047,1.56958-9.03564.07031-13.18311l-.02344-.06494-.02417-.06494-18.31079-48.81104-.15088-.40234-.18066-.38965c-5.87573-12.68115-20.88257-20.875-38.2312-20.875h0Z"/>
    </g>
  </g>
  <g>
    <path class="cls-5" d="M1709.14339,155.9024h.00069c10.57831,0,19.15288-8.61434,19.15288-19.24066s-8.57457-19.24066-19.15288-19.24066h-.00069c-10.57763,0-19.15288,9.37552-19.15288,20.00183s8.57525,18.47948,19.15288,18.47948Z"/>
    <g>
      <path class="cls-8" d="M1719.12972,324.05023c-3.95312-.09766-7.72266-1.72461-10.31934-4.46289-.50586-.5332-.95898-1.09863-1.35547-1.6875-2.39062,3.65137-6.65625,6.15625-11.33398,6.15625-.12695,0-.25586-.00195-.38379-.00586-3.86621-.0957-7.56445-1.69922-10.12402-4.39844-2.27246-2.39551-3.48438-5.41602-3.41992-8.51465l.24219-71.24902-.52441,1.32324c-1.7002,4.52246-5.81641,7.32812-10.76172,7.32812-1.6416,0-3.31152-.30762-4.96191-.91602-2.99414-1.08984-5.40234-3.30859-6.7627-6.23926-1.48047-3.18945-1.6416-7.09668-.43652-10.48145.66602-2.08887,11.06738-34.66211,14.63867-45.33984,3.84668-11.49805,16.61914-18.3623,34.16699-18.3623,15.12695,0,28.09473,6.8916,33.03711,17.55664l.09082.19531,18.38672,49.0127c1.07422,2.9707,1.0498,6.35156-.04102,9.34082-1.26367,3.46289-3.87598,6.12988-7.16602,7.31934-1.60547.58691-3.27734.88867-4.94727.88867h-.00098c-5.23926,0-9.72559-2.95215-11.50391-7.54492l-2.78516-6.13281-.15723,73.83203c-.19238,6.83008-6.11133,12.3877-13.19336,12.3877-.12695,0-.25586-.00195-.38379-.00586Z"/>
      <path class="cls-11" d="M1707.79403,172.92474c12.24658,0,23.63892,5.16553,27.84375,14.24023l18.31079,48.81055c1.19263,3.30078-.08423,7.92676-3.79199,9.26562-1.02124.37354-2.03638.54834-3.00366.54834-2.87402,0-5.3208-1.54492-6.21362-4.01465l-13.74438-30.26416-.20972,99.99707c-.09839,3.47412-3.29565,6.82422-7.47266,6.82422-.07324,0-.14697-.00098-.2207-.00293-4.69409-.1167-8.2229-3.48096-8.12354-7.0166l.44043-60.61963h-7.81079l-.06445,60.81494c-.09839,3.47412-3.43188,6.82422-7.61377,6.82422-.07324,0-.14697-.00098-.2207-.00293-4.69409-.1167-8.08154-3.57861-7.98218-7.11426l.3457-101.59521-11.69482,29.53809c-.88354,2.39844-2.94604,3.6582-5.41821,3.6582-.94873,0-1.95801-.18555-2.98364-.56348-4.05737-1.47705-4.97974-6.18701-3.75781-9.50684,0,0,10.94531-34.30029,14.64746-45.3667,3.70239-11.06738,17.30835-14.4541,28.73853-14.4541M1707.79403,161.4765c-20.12817,0-34.93018,8.32568-39.59521,22.27051-3.58374,10.71191-13.67285,42.30957-14.63745,45.33154-1.6853,4.81006-1.44507,10.15576.6709,14.71533,2.00537,4.32129,5.56299,7.59424,10.01733,9.21582,2.24585.82715,4.58081,1.25391,6.8999,1.25391,1.92334,0,3.77954-.30176,5.51587-.87012l-.19629,57.6792c-.08081,4.59619,1.68726,9.03516,4.99072,12.51855,3.59912,3.79492,8.7583,6.04834,14.15479,6.18262.14209.00391.32446.00635.50513.00635,4.26514,0,8.23804-1.3999,11.44141-3.75,3.28101,2.30762,7.29077,3.64014,11.44629,3.74365.14209.00391.32422.00635.50513.00635,10.15015,0,18.63599-8.05176,18.91626-17.94824l.00415-.15039.00024-.1499.11816-56.3418c2.56128,1.32129,5.49268,2.04785,8.60156,2.04785,2.34399,0,4.67773-.41895,6.93652-1.24512,4.84546-1.74951,8.70898-5.66455,10.55542-10.72412,1.54346-4.23047,1.56909-9.03564.07056-13.18311l-.02368-.06543-.02441-.06543-18.31079-48.81055-.15088-.40234-.18066-.38965c-5.87598-12.68115-20.88257-20.87549-38.23096-20.87549h0Z"/>
    </g>
  </g>
  <g>
    <path class="cls-5" d="M1487.20324,174.07467h.00126c10.57763,0,19.15288-8.61365,19.15288-19.23997,0-10.627-8.57525-19.24066-19.15288-19.24066h-.00126c-10.57774,0-19.15288,9.37552-19.15288,20.00183s8.57514,18.47879,19.15288,18.47879Z"/>
    <g>
      <path class="cls-8" d="M1497.18929,342.22308c-3.95312-.09766-7.72168-1.72461-10.31934-4.46289-.50586-.5332-.95801-1.09766-1.35449-1.68652-2.39062,3.65039-6.65625,6.15527-11.33398,6.15527-.12695,0-.25586-.00195-.38379-.00586-3.86621-.0957-7.56445-1.69922-10.12402-4.39844-2.27246-2.39551-3.48438-5.41602-3.41992-8.51562l.24219-71.25195-.52441,1.3252c-1.69922,4.52344-5.81641,7.33008-10.7627,7.33008-1.64062,0-3.30957-.30859-4.95898-.91504-2.99609-1.09082-5.40527-3.30957-6.76562-6.24121-1.48047-3.18945-1.6416-7.0957-.43652-10.48047.66602-2.08887,11.06738-34.66211,14.63867-45.33984,3.84766-11.49805,16.62012-18.36133,34.16699-18.36133,15.12793,0,28.0957,6.89062,33.03809,17.55566l.09082.19531,18.38574,49.0127c2.18164,6.03711-.20801,14.13086-7.20605,16.65918-1.60645.58789-3.27832.88965-4.94824.88965-5.24023-.00098-9.72656-2.95215-11.50488-7.54492l-2.78418-6.13184-.1582,73.83203c-.19238,6.83008-6.11133,12.38672-13.19336,12.38672-.12695,0-.25586-.00195-.38379-.00586Z"/>
      <path class="cls-11" d="M1485.8536,191.09759c12.24683,0,23.63965,5.16504,27.84399,14.24023l18.31079,48.81055c1.19263,3.2998-.08423,7.92676-3.7915,9.26611-1.02075.37305-2.03613.54785-3.00293.54785-2.87476,0-5.32202-1.54492-6.21484-4.01465l-13.74365-30.26367-.21069,99.99658c-.09839,3.47363-3.29443,6.82324-7.47095,6.82324-.07373,0-.14819-.00098-.22241-.00293-4.69312-.11572-8.22266-3.47998-8.12329-7.01562l.44019-60.61914h-7.80981l-.06519,60.81445c-.09766,3.47363-3.43091,6.82324-7.61157,6.82324-.07373,0-.14819-.00098-.22241-.00293-4.69385-.11572-8.08154-3.57715-7.98218-7.11377l.3457-101.59521-11.69531,29.5376c-.8833,2.39893-2.9458,3.65869-5.41821,3.65869-.94849,0-1.95752-.18555-2.98291-.56299-4.05762-1.47705-4.98047-6.18701-3.75854-9.50635,0,0,10.94507-34.30078,14.64746-45.36768,3.70312-11.06689,17.30835-14.45361,28.73828-14.45361M1485.8536,179.64935c-20.1272,0-34.92896,8.3252-39.59473,22.26904-3.58374,10.7124-13.67065,42.30322-14.63745,45.33252-1.68579,4.80957-1.44556,10.15527.67065,14.71484,2.00562,4.32227,5.56348,7.59521,10.01831,9.2168,2.24585.82715,4.58032,1.25391,6.89893,1.25391,1.92383,0,3.77979-.30225,5.51636-.87012l-.19629,57.6792c-.08081,4.59668,1.68774,9.03662,4.99194,12.51953,3.59961,3.79492,8.75928,6.04736,14.15601,6.18066.1416.00391.32397.00635.50439.00635,4.26489,0,8.23706-1.39941,11.4397-3.74902,3.28174,2.30811,7.29224,3.64014,11.44775,3.74268.14185.00391.32422.00635.50464.00635,10.14917,0,18.63428-8.05127,18.91455-17.94727l.00415-.1499.00024-.15039.1189-56.3418c2.56152,1.32129,5.49316,2.04785,8.60229,2.04785,2.34277,0,4.67554-.41846,6.93335-1.24365,4.84888-1.75195,8.71167-5.66699,10.55762-10.72705,1.54346-4.23047,1.56885-9.03564.06982-13.18262l-.02344-.06543-.02417-.06445-18.31079-48.81055-.15088-.40186-.18042-.38965c-5.875-12.68164-20.88184-20.87598-38.23145-20.87598h0Z"/>
    </g>
  </g>
  <g>
    <path class="cls-5" d="M1572.9961,204.61779h.0008c10.5782,0,19.15288-8.61365,19.15288-19.23997,0-10.627-8.57468-19.24066-19.15288-19.24066h-.0008c-10.57763,0-19.15288,9.37552-19.15288,20.00183s8.57525,18.47879,19.15288,18.47879Z"/>
    <g>
      <path class="cls-8" d="M1582.98421,372.76702c-3.95703-.09863-7.72559-1.72656-10.32227-4.46484-.50586-.5332-.95801-1.09766-1.35449-1.68652-2.3916,3.65137-6.6582,6.15723-11.33594,6.15723-.12598,0-.25293-.00195-.37988-.00586-3.87012-.09668-7.56738-1.7002-10.12695-4.39941-2.27148-2.39551-3.4834-5.41602-3.41895-8.51465l.24219-71.25-.52344,1.32129c-1.69922,4.52441-5.81641,7.33105-10.7627,7.33105-1.6416,0-3.31055-.30762-4.96094-.91602-2.99414-1.08887-5.40234-3.30664-6.76367-6.2373-1.48047-3.19043-1.6416-7.09766-.43652-10.4834.66602-2.08887,11.06738-34.66211,14.63867-45.33984,3.84668-11.49805,16.61914-18.36133,34.16699-18.36133,15.12793,0,28.0957,6.8916,33.03809,17.55762l.09082.19434,18.38574,49.01172c1.07422,2.9707,1.0498,6.35156-.04102,9.34082-1.26367,3.46289-3.875,6.13086-7.16602,7.31934-1.60547.58691-3.27734.88867-4.94727.88867-5.24023-.00098-9.72656-2.95312-11.50488-7.54492l-2.78516-6.13281-.15723,73.83301c-.19238,6.83008-6.11133,12.3877-13.19531,12.3877-.12598,0-.25293-.00195-.37988-.00586Z"/>
      <path class="cls-11" d="M1571.64657,221.64056c12.24683,0,23.63965,5.16504,27.84399,14.24023l18.31079,48.81104c1.19263,3.2998-.08423,7.92627-3.79224,9.26562-1.02075.37305-2.03613.54785-3.00293.54785-2.87451,0-5.32129-1.54443-6.21411-4.01416l-13.74438-30.26416-.20996,99.99658c-.09839,3.47412-3.29541,6.82422-7.47266,6.82422-.07324,0-.14697-.00098-.2207-.00293-4.69385-.1167-8.22266-3.48096-8.12329-7.0166l.44019-60.61914h-7.81055l-.06445,60.81445c-.09839,3.47412-3.43188,6.82422-7.61401,6.82422-.07324,0-.14697-.00098-.2207-.00293-4.69385-.1167-8.0813-3.57812-7.98193-7.11377l.34546-101.59521-11.69458,29.53711c-.8833,2.39893-2.9458,3.6582-5.41846,3.6582-.94849,0-1.95776-.18555-2.9834-.56299-4.05762-1.47705-4.97974-6.18652-3.75781-9.50635,0,0,10.94507-34.30029,14.64746-45.36768,3.70239-11.06641,17.30835-14.45361,28.73828-14.45361M1571.64657,210.19232c-20.12793,0-34.92969,8.3252-39.59497,22.26953-3.58374,10.71289-13.67163,42.30713-14.63745,45.33252-1.68555,4.81055-1.44531,10.15576.67065,14.71533,2.00562,4.32178,5.56323,7.59424,10.01782,9.21582,2.24658.82715,4.58081,1.25391,6.89941,1.25391,1.92383,0,3.77954-.30176,5.51611-.87012l-.19629,57.67969c-.08081,4.59619,1.68701,9.03516,4.99048,12.51807,3.59888,3.79492,8.7583,6.04834,14.15479,6.18262.14185.00391.32422.00635.50513.00635,4.26514,0,8.23828-1.3999,11.44165-3.75,3.28101,2.30762,7.29077,3.64014,11.44604,3.74365.14209.00391.32446.00635.50513.00635,10.15015,0,18.63599-8.05176,18.91626-17.94824l.00415-.15039.00024-.1499.11841-56.3418c2.56128,1.32129,5.49316,2.04785,8.60205,2.04785,2.34277,0,4.67554-.41846,6.93335-1.24365,4.84839-1.75146,8.71167-5.66602,10.55786-10.72607,1.54395-4.23047,1.56958-9.03564.07056-13.18311l-.02368-.06494-.02417-.06494-18.31079-48.81104-.15088-.40186-.18042-.38965c-5.875-12.68164-20.88184-20.87598-38.23145-20.87598h0Z"/>
    </g>
  </g>
  <path class="cls-3" d="M1778.10542,273.81503l18.77092-56.86204c.5774-1.87277,4.05619-10.79158,7.48012-12.7199,6.41172-3.61114,14.54055-1.49424,18.26827,4.85028.03977.06789.07966.13578.11932.20298,1.73768,2.98162,2.40217,6.4611,1.85357,9.86857l-13.80749,85.73812-56.25173,88.82329s-63.46852,52.99992-69.65189,57.01154c-6.18268,4.0123-3.21135,42.34892-3.21135,42.34892l-73.13753,3.86418,15.13784-111.09631c.78381-5.63477,3.21546-10.91159,6.98912-15.1687l35.05807-39.54422c2.61681-2.95214,5.94473-5.18561,9.66696-6.4899l6.19708-2.17107,32.93569-11.94912,45.49581-35.93582c2.29862-1.81585,5.28161-2.55029,8.1494-1.953.40939.08572.83387.17761,1.27.27704,6.97609,1.58887,14.11471,7.39988,13.65457,14.53987v1.01422c0,5.04092-1.79665,9.97349-5.25613,13.63948-.20721.21944-.40265.41693-.58094.58563l-83.61984,79.34422"/>
  <path class="cls-3" d="M1419.29098,273.61616l-18.77092-56.86204c-.5774-1.87346-4.05687-10.79158-7.48012-12.7199-6.41172-3.61114-14.54055-1.49424-18.26827,4.85028-.04046.06789-.07955.13578-.11932.20298-1.73768,2.98162-2.40217,6.4611-1.85357,9.86788l13.80749,85.7388,56.25173,88.82329s63.46852,52.99992,69.65189,57.01154c6.18279,4.0123,3.21135,42.34892,3.21135,42.34892l73.13753,3.86418-15.13784-111.09631c-.78381-5.63477-3.21546-10.91159-6.98912-15.1687l-35.05796-39.54422c-2.61692-2.95214-5.94484-5.1863-9.66707-6.49058l-6.19708-2.17039-32.93569-11.94912-45.49581-35.93582c-2.29931-1.81585-5.28151-2.55029-8.1494-1.953-.40939.08503-.83387.17761-1.27.27704-6.97609,1.58819-14.11471,7.39988-13.65457,14.53987v1.01422c0,5.04092,1.79665,9.97349,5.25624,13.63948.2071.21944.40253.41625.58083.58563l83.61984,79.34422"/>
  <path class="cls-4" d="M245.29225,379.38294l-155.13115.71297c0,45.73477,49.27254,76.83034,116.61287,76.83034,55.45245,0,114.98497-25.09467,114.98497-77.45654l-76.4667-.08677Z"/>
  <path class="cls-4" d="M640.93857,379.38294l-155.13115.71297c0,45.73477,49.27254,76.83034,116.61287,76.83034,55.45245,0,114.98497-25.09467,114.98497-77.45654l-76.4667-.08677Z"/>
  <polygon class="cls-4" points="376.1607 105.71405 376.1607 451.31012 309.25213 451.31012 302.6966 451.31012 302.6966 483.66363 309.25213 483.66363 489.0266 483.66363 495.58217 483.66363 495.58217 451.31012 489.0266 451.31012 422.11802 451.31012 422.11802 105.71405 376.1607 105.71405"/>
  <path class="cls-4" d="M503.76978,115.53055H228.52157l26.28695,114.37081-25.42657-3.80546-25.0202-94.56814-23.33814,94.42301-24.76045,5.33792,26.00487-115.75814h-16.71858l-.00447-24.94726h474.79951l-.00524,24.94726h-16.71784l26.00487,113.0088c-6.63072-.92439-17.16515-1.92171-24.76045-2.58858l-23.33889-95.06628-25.21147,96.05839-26.20731,7.19116,27.25897-118.60349h-275.24821,201.65086Z"/>
  <g>
    <line class="cls-2" x1="791.57144" y1="359.61698" x2="1328.61018" y2="359.61698"/>
    <polyline class="cls-2" points="1275.43795 306.55074 1328.63104 359.61459 1275.44313 412.68322"/>
  </g>
  <g>
    <rect class="cls-1" x="880.00288" y="287.4095" width="450.83882" height="137.96161"/>
    <path class="cls-7" d="M890.47769,312.32923v12.49658h-7.30762v-35.46729h13.83594c2.66309,0,5.00586.4873,7.02734,1.46143,2.02246.97461,3.57715,2.35938,4.66504,4.15332,1.08789,1.79492,1.63184,3.83691,1.63184,6.12646,0,3.47559-1.18945,6.21582-3.56836,8.22119-2.37891,2.00586-5.67188,3.0083-9.87793,3.0083h-6.40625ZM890.47769,306.41028h6.52832c1.93262,0,3.40625-.45459,4.4209-1.36426,1.01465-.90918,1.52246-2.2085,1.52246-3.89746,0-1.73779-.51172-3.14258-1.53418-4.21436-1.02344-1.07178-2.43652-1.62354-4.23828-1.65625h-6.69922v11.13232Z"/>
    <path class="cls-7" d="M929.89175,324.82581c-.3252-.6333-.56055-1.4209-.70703-2.36279-1.70508,1.8999-3.92188,2.8501-6.64941,2.8501-2.58203,0-4.72266-.74707-6.41895-2.24121-1.69727-1.49365-2.5459-3.37744-2.5459-5.65137,0-2.79297,1.03516-4.93652,3.10645-6.43066,2.07031-1.49414,5.0625-2.24902,8.97559-2.26562h3.24023v-1.51025c0-1.21777-.3125-2.19238-.9375-2.92334-.62598-.73047-1.6123-1.09619-2.95996-1.09619-1.18555,0-2.11523.28467-2.78906.85303s-1.01074,1.34814-1.01074,2.33838h-7.04004c0-1.52637.4707-2.93945,1.41309-4.23877.94141-1.29883,2.27344-2.31787,3.99414-3.05713,1.72168-.73877,3.6543-1.1084,5.79785-1.1084,3.24805,0,5.82617.81641,7.73438,2.44824,1.9082,1.63232,2.8623,3.92627,2.8623,6.88184v11.42432c.01562,2.50098.36523,4.39307,1.04688,5.67578v.41406h-7.1123ZM924.06949,319.92982c1.03906,0,1.99707-.23145,2.87402-.69434s1.52637-1.08398,1.94922-1.86377v-4.53076h-2.63086c-3.52441,0-5.39941,1.21826-5.62695,3.65381l-.02441.41406c0,.87695.30859,1.6001.92578,2.16797.61719.56885,1.46191.85303,2.5332.85303Z"/>
    <path class="cls-7" d="M956.17496,305.07044c-.95898-.12988-1.80273-.19482-2.5332-.19482-2.66406,0-4.40918.90137-5.2373,2.70361v17.24658h-7.04004v-26.35693h6.64941l.19531,3.14258c1.41309-2.41992,3.37012-3.62988,5.87109-3.62988.7793,0,1.50977.10596,2.19238.31689l-.09766,6.77197Z"/>
    <path class="cls-7" d="M974.10269,324.82581c-.3252-.6333-.56055-1.4209-.70703-2.36279-1.70508,1.8999-3.92188,2.8501-6.64941,2.8501-2.58203,0-4.72266-.74707-6.41895-2.24121-1.69727-1.49365-2.5459-3.37744-2.5459-5.65137,0-2.79297,1.03516-4.93652,3.10645-6.43066,2.07031-1.49414,5.0625-2.24902,8.97559-2.26562h3.24023v-1.51025c0-1.21777-.3125-2.19238-.9375-2.92334-.62598-.73047-1.6123-1.09619-2.95996-1.09619-1.18555,0-2.11523.28467-2.78906.85303s-1.01074,1.34814-1.01074,2.33838h-7.04004c0-1.52637.4707-2.93945,1.41309-4.23877.94141-1.29883,2.27344-2.31787,3.99414-3.05713,1.72168-.73877,3.6543-1.1084,5.79785-1.1084,3.24805,0,5.82617.81641,7.73438,2.44824,1.9082,1.63232,2.8623,3.92627,2.8623,6.88184v11.42432c.01562,2.50098.36523,4.39307,1.04688,5.67578v.41406h-7.1123ZM968.28043,319.92982c1.03906,0,1.99707-.23145,2.87402-.69434s1.52637-1.08398,1.94922-1.86377v-4.53076h-2.63086c-3.52441,0-5.39941,1.21826-5.62695,3.65381l-.02441.41406c0,.87695.30859,1.6001.92578,2.16797.61719.56885,1.46191.85303,2.5332.85303Z"/>
    <path class="cls-7" d="M984.47964,311.45228c0-4.10791.92188-7.38086,2.76465-9.81641,1.84375-2.43604,4.36426-3.6543,7.56445-3.6543,2.56543,0,4.68457.9585,6.35742,2.87451v-13.44629h7.06445v37.41602h-6.3584l-.34082-2.80127c-1.75391,2.19238-4.01074,3.28857-6.77148,3.28857-3.10254,0-5.59082-1.22168-7.4668-3.66602-1.875-2.44434-2.81348-5.84229-2.81348-10.19482ZM991.51968,311.95325c0,2.47998.43066,4.38037,1.29102,5.70166.86035,1.32178,2.11133,1.98242,3.75195,1.98242,2.17578,0,3.70996-.92139,4.60352-2.76514v-10.44971c-.87695-1.84326-2.39551-2.76514-4.55566-2.76514-3.39355,0-5.09082,2.76562-5.09082,8.2959Z"/>
    <path class="cls-7" d="M1013.63785,291.64857c0-1.05566.35352-1.9248,1.05957-2.60645.70605-.68213,1.66895-1.02344,2.88672-1.02344,1.20117,0,2.15918.34131,2.87402,1.02344.71484.68164,1.07227,1.55078,1.07227,2.60645,0,1.07178-.3623,1.94873-1.08398,2.63037-.72266.68213-1.67676,1.02344-2.8623,1.02344s-2.13965-.34131-2.8623-1.02344c-.72266-.68164-1.08398-1.55859-1.08398-2.63037ZM1021.11636,324.82581h-7.06445v-26.35693h7.06445v26.35693Z"/>
    <path class="cls-7" d="M1025.89078,311.45228c0-4.04346.96191-7.29932,2.88672-9.76807,1.9248-2.46826,4.51855-3.70264,7.7832-3.70264,2.88965,0,5.13965.99072,6.74707,2.97217l.29199-2.48486h6.38281v25.47998c0,2.30566-.52441,4.31152-1.57129,6.0166-1.04785,1.70557-2.52148,3.00439-4.4209,3.89746-1.90039.89307-4.12598,1.33984-6.6748,1.33984-1.93262,0-3.81641-.38574-5.65137-1.15674-1.83594-.77148-3.22363-1.76611-4.16602-2.98438l3.11816-4.28711c1.75391,1.96484,3.88184,2.94727,6.38281,2.94727,1.86719,0,3.32031-.49902,4.36035-1.49805,1.03906-.99854,1.55859-2.41553,1.55859-4.25049v-1.41309c-1.62402,1.83545-3.75977,2.75293-6.40625,2.75293-3.16699,0-5.72852-1.23828-7.68555-3.71484s-2.93555-5.76123-2.93555-9.85352v-.29248ZM1032.93082,311.95325c0,2.39844.47852,4.27881,1.4375,5.64111.95801,1.36182,2.27344,2.04297,3.94629,2.04297,2.14355,0,3.67773-.80713,4.60352-2.42285v-11.13428c-.94238-1.61523-2.45996-2.42285-4.55566-2.42285-1.68848,0-3.0166.69385-3.98242,2.08008-.96582,1.38721-1.44922,3.45898-1.44922,6.21582Z"/>
    <path class="cls-7" d="M1061.99234,298.46888l.21875,2.94775c1.86719-2.29004,4.39258-3.43506,7.57617-3.43506,3.39355,0,5.72461,1.33984,6.99121,4.01953,1.85059-2.67969,4.48926-4.01953,7.91602-4.01953,2.8584,0,4.98535.83252,6.38281,2.49707,1.39648,1.66455,2.09473,4.16943,2.09473,7.51465v16.83252h-7.06445v-16.84668c0-1.49756-.29199-2.5918-.87695-3.28369-.58398-.69189-1.61621-1.03809-3.09375-1.03809-2.11133,0-3.57227,1.00977-4.38477,3.02734l.02441,18.14111h-7.03906v-16.82227c0-1.53027-.30078-2.63721-.90137-3.3208-.60156-.68359-1.62402-1.02539-3.06934-1.02539-1.99805,0-3.44336.83008-4.33594,2.49072v18.67773h-7.04004v-26.35693h6.60156Z"/>
    <path class="cls-7" d="M1125.2775,317.54212c0-.86035-.42676-1.53809-1.2793-2.03369-.85254-.49512-2.2207-.93799-4.10449-1.32764-6.26855-1.31543-9.40234-3.97852-9.40234-7.98975,0-2.33887.96973-4.29102,2.91113-5.8584,1.94043-1.56738,4.47754-2.35107,7.6123-2.35107,3.34473,0,6.02051.78809,8.02637,2.36328,2.00488,1.5752,3.00781,3.62158,3.00781,6.13818h-7.03906c0-1.00635-.3252-1.83887-.97461-2.49658s-1.66504-.98682-3.04492-.98682c-1.18555,0-2.10352.26807-2.75293.8042-.64941.53564-.97461,1.21777-.97461,2.0459,0,.77979.36914,1.40918,1.1084,1.88818s1.98535.89307,3.73926,1.24219,3.23145.74268,4.43359,1.18115c3.71875,1.36426,5.57812,3.72705,5.57812,7.08887,0,2.40332-1.03125,4.34814-3.09375,5.83398s-4.72559,2.229-7.98926,2.229c-2.20898,0-4.16992-.39404-5.88281-1.18164-1.71387-.7876-3.05762-1.86719-4.03125-3.23975-.97461-1.37207-1.46191-2.854-1.46191-4.44531h6.6748c.06445,1.25049.52734,2.2085,1.3877,2.87402.86133.66602,2.01367.99902,3.45898.99902,1.34766,0,2.36719-.25586,3.05762-.76758.68945-.51123,1.03516-1.18115,1.03516-2.00977Z"/>
    <path class="cls-7" d="M1143.52261,301.34339c1.86719-2.24121,4.21387-3.36182,7.04004-3.36182,5.71582,0,8.61426,3.32129,8.69629,9.96338v16.88086h-7.04004v-16.72461c0-1.51367-.3252-2.63281-.97461-3.35693-.64941-.72461-1.72949-1.08691-3.23926-1.08691-2.0625,0-3.55664.79785-4.48242,2.39258v18.77588h-7.04004v-37.41602h7.04004v13.93359Z"/>
    <path class="cls-7" d="M1164.52066,291.64857c0-1.05566.35352-1.9248,1.05957-2.60645.70605-.68213,1.66895-1.02344,2.88672-1.02344,1.20117,0,2.15918.34131,2.87402,1.02344.71484.68164,1.07227,1.55078,1.07227,2.60645,0,1.07178-.3623,1.94873-1.08398,2.63037-.72266.68213-1.67676,1.02344-2.8623,1.02344s-2.13965-.34131-2.8623-1.02344c-.72266-.68164-1.08398-1.55859-1.08398-2.63037ZM1171.99918,324.82581h-7.06445v-26.35693h7.06445v26.35693Z"/>
    <path class="cls-7" d="M1179.72086,324.82581v-21.19287h-3.92188v-5.16406h3.92188v-2.24121c0-2.95508.84863-5.24902,2.5459-6.88135,1.69727-1.63184,4.07227-2.44824,7.125-2.44824.97461,0,2.16797.16113,3.58105.4834l-.07324,5.41162c-.58496-.146-1.2998-.21924-2.14355-.21924-2.64746,0-3.9707,1.25293-3.9707,3.7583v2.13672h5.2373v5.16406h-5.2373v21.19287h-7.06445Z"/>
    <path class="cls-7" d="M1204.10464,291.98939v6.47949h4.50684v5.16406h-4.50684v13.1543c0,.97412.18652,1.67285.56055,2.09473.37305.42285,1.08789.6333,2.14355.6333.7793,0,1.46973-.05664,2.07031-.17041v5.33496c-1.37988.42188-2.80078.6333-4.2627.6333-4.93652,0-7.4541-2.49268-7.55078-7.47852v-14.20166h-3.84961v-5.16406h3.84961v-6.47949h7.03906Z"/>
  </g>
  <g>
    <rect class="cls-1" x="882.46648" y="388.4171" width="450.83882" height="137.96161"/>
    <path class="cls-7" d="M887.55777,433.75013l-3.4834-1.9248c1.2666-2.17627,1.9248-4.55518,1.97363-7.13721v-5.26172h5.79688l-.02441,4.84766c-.01562,1.5752-.40527,3.25195-1.16895,5.03027s-1.79395,3.25977-3.09375,4.4458ZM895.74234,433.75013l-3.4834-1.9248c1.39648-2.40332,2.12012-4.79053,2.16895-7.16162v-5.2373h5.79688l-.02441,4.94531c-.03223,1.55908-.45898,3.22314-1.27832,4.99365-.82031,1.76953-1.87988,3.23145-3.17969,4.38477Z"/>
    <path class="cls-7" d="M919.54214,418.54944c0-.86035-.42676-1.53809-1.2793-2.03369-.85254-.49512-2.2207-.93799-4.10449-1.32764-6.26855-1.31543-9.40234-3.97852-9.40234-7.98975,0-2.33887.96973-4.29102,2.91113-5.8584,1.94043-1.56738,4.47754-2.35107,7.6123-2.35107,3.34473,0,6.02051.78809,8.02637,2.36328,2.00488,1.5752,3.00781,3.62158,3.00781,6.13818h-7.03906c0-1.00635-.3252-1.83887-.97461-2.49658s-1.66504-.98682-3.04492-.98682c-1.18555,0-2.10352.26807-2.75293.8042-.64941.53564-.97461,1.21777-.97461,2.0459,0,.77979.36914,1.40918,1.1084,1.88818s1.98535.89307,3.73926,1.24219,3.23145.74268,4.43359,1.18115c3.71875,1.36426,5.57812,3.72705,5.57812,7.08887,0,2.40332-1.03125,4.34814-3.09375,5.83398s-4.72559,2.229-7.98926,2.229c-2.20898,0-4.16992-.39404-5.88281-1.18164-1.71387-.7876-3.05762-1.86719-4.03125-3.23975-.97461-1.37207-1.46191-2.854-1.46191-4.44531h6.6748c.06445,1.25049.52734,2.2085,1.3877,2.87402.86133.66602,2.01367.99902,3.45898.99902,1.34766,0,2.36719-.25586,3.05762-.76758.68945-.51123,1.03516-1.18115,1.03516-2.00977Z"/>
    <path class="cls-7" d="M943.04898,426.32044c-3.86523,0-7.01172-1.18555-9.43945-3.55664-2.42773-2.37061-3.6416-5.5293-3.6416-9.47559v-.68213c0-2.64697.51172-5.01416,1.53418-7.10107,1.02344-2.08643,2.47266-3.69385,4.34863-4.82275s4.01465-1.69336,6.41895-1.69336c3.60449,0,6.44238,1.13721,8.51367,3.41064,2.07031,2.27344,3.10547,5.49707,3.10547,9.67041v2.87451h-16.7832c.22656,1.72168.91309,3.10205,2.05762,4.14111,1.14551,1.03955,2.59473,1.55908,4.34863,1.55908,2.71191,0,4.83105-.98242,6.35742-2.94775l3.45898,3.87354c-1.05566,1.49414-2.48438,2.65918-4.28711,3.49561-1.80273.83594-3.7998,1.25439-5.99219,1.25439ZM942.24527,404.66468c-1.39746,0-2.53027.47314-3.39844,1.41943-.86914.94629-1.4248,2.30029-1.66895,4.06152h9.79297v-.56299c-.0332-1.56592-.45508-2.77686-1.2666-3.6333-.8125-.85645-1.96484-1.28467-3.45898-1.28467Z"/>
    <path class="cls-7" d="M968.84586,420.64466c1.29883,0,2.35449-.35693,3.16602-1.07178.8125-.71436,1.23438-1.66455,1.2666-2.8501h6.60156c-.0166,1.78662-.50293,3.42236-1.46094,4.9082-.95898,1.48584-2.27051,2.63916-3.93457,3.45898-1.66504.81982-3.50391,1.23047-5.51758,1.23047-3.76758,0-6.73926-1.19775-8.91504-3.59326-2.17676-2.39502-3.26465-5.70361-3.26465-9.92627v-.46289c0-4.05957,1.08008-7.29932,3.24023-9.71924,2.15918-2.41992,5.12305-3.62988,8.89062-3.62988,3.29688,0,5.93945.93799,7.92969,2.81348,1.98926,1.87598,3,4.37256,3.03223,7.49072h-6.60156c-.03223-1.37109-.4541-2.48535-1.2666-3.34277-.81152-.85693-1.88379-1.28564-3.21484-1.28564-1.64062,0-2.87891.59814-3.71484,1.79346-.83691,1.19531-1.25488,3.13477-1.25488,5.81836v.73193c0,2.71631.41406,4.66797,1.24219,5.85547s2.08691,1.78076,3.77637,1.78076Z"/>
    <path class="cls-7" d="M999.68375,423.15345c-1.7373,2.11133-4.14062,3.16699-7.20996,3.16699-2.8252,0-4.98145-.81201-6.46777-2.43604-1.48535-1.62354-2.24512-4.00293-2.27734-7.13721v-17.271h7.04004v17.04688c0,2.74805,1.25,4.12158,3.75098,4.12158,2.3877,0,4.02734-.8291,4.9209-2.48779v-18.68066h7.06445v26.35693h-6.62598l-.19531-2.67969Z"/>
    <path class="cls-7" d="M1026.62613,406.07776c-.95898-.12988-1.80273-.19482-2.5332-.19482-2.66406,0-4.40918.90137-5.2373,2.70361v17.24658h-7.04004v-26.35693h6.64941l.19531,3.14258c1.41309-2.41992,3.37012-3.62988,5.87109-3.62988.7793,0,1.50977.10596,2.19238.31689l-.09766,6.77197Z"/>
    <path class="cls-7" d="M1029.96304,392.65589c0-1.05566.35352-1.9248,1.05957-2.60645.70605-.68213,1.66895-1.02344,2.88672-1.02344,1.20117,0,2.15918.34131,2.87402,1.02344.71484.68164,1.07227,1.55078,1.07227,2.60645,0,1.07178-.3623,1.94873-1.08398,2.63037-.72266.68213-1.67676,1.02344-2.8623,1.02344s-2.13965-.34131-2.8623-1.02344c-.72266-.68164-1.08398-1.55859-1.08398-2.63037ZM1037.44156,425.83314h-7.06445v-26.35693h7.06445v26.35693Z"/>
    <path class="cls-7" d="M1051.66714,392.99671v6.47949h4.50684v5.16406h-4.50684v13.1543c0,.97412.18652,1.67285.56055,2.09473.37305.42285,1.08789.6333,2.14355.6333.7793,0,1.46973-.05664,2.07031-.17041v5.33496c-1.37988.42188-2.80078.6333-4.2627.6333-4.93652,0-7.4541-2.49268-7.55078-7.47852v-14.20166h-3.84961v-5.16406h3.84961v-6.47949h7.03906Z"/>
    <path class="cls-7" d="M1069.93668,415.87024l4.87207-16.39404h7.55176l-10.59668,30.44922-.58496,1.38867c-1.5752,3.44238-4.17383,5.16406-7.79492,5.16406-1.02246,0-2.0625-.1543-3.11816-.46289v-5.33447l1.07227.02441c1.33105,0,2.32617-.20361,2.98438-.60938.65723-.40576,1.17285-1.08008,1.54688-2.02148l.82812-2.16797-9.23242-26.43018h7.5752l4.89648,16.39404Z"/>
    <path class="cls-7" d="M1089.96011,387.58899l3.3125,1.92432c-1.39648,2.2085-2.11914,4.44971-2.16797,6.72314v4.06787h-5.57812v-3.65381c0-1.52637.42578-3.1543,1.27832-4.88379s1.9043-3.12207,3.15527-4.17773ZM1098.31461,387.58899l3.31348,1.92432c-1.39746,2.2085-2.11914,4.44971-2.16797,6.72314v4.06787h-5.57812v-3.65381c0-1.52637.42578-3.1543,1.27832-4.88379s1.9043-3.12207,3.1543-4.17773Z"/>
  </g>
  <path class="cls-8" d="M161.48548,264.48942l7.21537-15.51115h8.23835l3.91754.11791,1.47014-6.57239,10.11803-5.96704,17.55521.25944,12.45296,7.69662.25944,7.09127,8.73437.17296,11.0693,12.10704,5.52483.04439,2.60419-.21735,8.73437,10.20451s-2.8538,10.72338-4.9293,13.40422c-2.07549,2.68084-5.53465,9.85859-39.6938,9.59915-34.15915-.25944-52.0626-.265-55.77887-2.07549-6.74535-3.2862-8.72063-11.28803-8.64789-15.65268.08648-5.18873,4.06451-11.41521,8.73431-14.60071,1.29523-.88354,2.42146-.1007,2.42146-.1007Z"/>
  <path class="cls-8" d="M105.87956,332.54829l7.21537-15.51115h8.23835l3.91754.11791,1.47014-6.57239,10.11803-5.96704,17.55521.25944,12.45296,7.69662.25944,7.09127,8.73437.17296,11.0693,12.10704,5.52483.04439,2.60419-.21735,8.73437,10.20451s-2.8538,10.72338-4.9293,13.40422-5.53465,9.85859-39.6938,9.59915-52.0626-.265-55.77887-2.07549c-6.74535-3.2862-8.72063-11.28803-8.64789-15.65268.08648-5.18873,4.06451-11.41521,8.73431-14.60071,1.29523-.88354,2.42146-.1007,2.42146-.1007Z"/>
  <path class="cls-8" d="M222.79899,332.54829l7.21537-15.51115h8.23835l3.91754.11791,1.47014-6.57239,10.11803-5.96704,17.55521.25944,12.45296,7.69662.25944,7.09127,8.73437.17296,11.0693,12.10704,5.52483.04439,2.60419-.21735,8.73437,10.20451s-2.8538,10.72338-4.9293,13.40422-5.53465,9.85859-39.6938,9.59915-52.0626-.265-55.77887-2.07549c-6.74535-3.2862-8.72063-11.28803-8.64789-15.65268.08648-5.18873,4.06451-11.41521,8.73431-14.60071,1.29523-.88354,2.42146-.1007,2.42146-.1007Z"/>
  <g>
    <g>
      <path class="cls-10" d="M261.84877,270.32995c-2.37202-4.46042-6.44468-6.81679-11.78037-6.81679h-.50834l-9.31457,7.81709,9.8229.06029c2.65184,0,3.42219,1.07101,4.23119,2.5856.68324,1.28461.84177,3.47129-.14737,5.10571l-.99509,1.49227c-3.56953,5.3074-9.63684,11.63223-18.27932,11.63223h-63.45962c-7.29759,0-14.22897-4.91964-15.4429-10.96536-.48675-2.38316.03798-4.65766,1.46473-6.40669,1.79295-2.18667,4.84893-3.44375,8.3805-3.44375h5.35132l-12.10782-6.80041-.61254.23519c-2.84238,1.07696-5.29698,2.81484-7.10631,5.01788-2.95178,3.60823-4.05033,8.21081-3.09915,12.96076,1.95669,9.6867,12.13536,17.27977,23.17217,17.27977h63.45962c9.46193,0,18.27411-5.36844,24.8118-15.10947l1.04942-1.55776c2.6898-4.31306,3.11627-9.32573,1.10974-13.08654Z"/>
      <path class="cls-10" d="M239.86815,270.95886l8.17285-7.03039-14.74329-14.95019h-8.02474l.00521-1.39923h20.40645l-.01635,1.68875,15.33868-.03796.11462-10.49052-15.48607.01637.01637,2.07726-21.42313.04391-13.72587-7.73522h-19.18136l-14.33843,8.98188-.04391,6.85475h-8.23835l-7.81635,15.80313,10.55008,6.08442,68.43357.09303ZM184.4169,248.97827l.01116-3.60823,9.15083-5.32378,15.60069.02679,8.69161,5.035-.03796,3.8263-33.41633.04391ZM173.98744,263.4097l-3.1215-1.7602,2.48736-5.21511h56.82294l6.48335,6.5816-.56264.39372h-62.10951Z"/>
    </g>
    <path class="cls-10" d="M166.10483,272.46303c-4.34283,0-7.87738,3.53455-7.87738,7.87961,0,4.34357,3.53455,7.87812,7.87738,7.87812,4.3458,0,7.88035-3.53455,7.88035-7.87812,0-4.34506-3.53455-7.87961-7.88035-7.87961Z"/>
    <path class="cls-10" d="M178.10026,281.4717c0,5.23521,4.25873,9.49394,9.49394,9.49394s9.49691-4.25873,9.49691-9.49394-4.2617-9.49617-9.49691-9.49617-9.49394,4.26096-9.49394,9.49617Z"/>
    <path class="cls-10" d="M199.5874,281.4717c0,5.23521,4.2617,9.49394,9.49691,9.49394s9.49394-4.25873,9.49394-9.49394-4.2587-9.49617-9.49394-9.49617-9.49691,4.26096-9.49691,9.49617Z"/>
    <path class="cls-10" d="M230.57145,271.97553c-5.23521,0-9.49391,4.26096-9.49391,9.49617s4.2587,9.49394,9.49391,9.49394,9.49617-4.25873,9.49617-9.49394-4.26093-9.49617-9.49617-9.49617Z"/>
    <path class="cls-10" d="M247.3987,282.33952c2.85726,0,5.18088-2.32436,5.18088-5.18088,0-2.85875-2.32362-5.18311-5.18088-5.18311-2.85875,0-5.18237,2.32436-5.18237,5.18311,0,2.85652,2.32362,5.18088,5.18237,5.18088Z"/>
  </g>
  <g>
    <g>
      <path class="cls-10" d="M205.59389,338.60808c-2.37274-4.46042-6.44465-6.81679-11.78034-6.81679h-.50834l-9.31457,7.81709,9.8229.06029c2.6511,0,3.42216,1.07101,4.23119,2.5856.68324,1.28461.84177,3.47129-.14737,5.10571l-.99509,1.49227c-3.56951,5.3074-9.63758,11.63223-18.27932,11.63223h-63.45962c-7.29759,0-14.22974-4.91964-15.4429-10.96536-.48675-2.38316.03796-4.65766,1.46473-6.40669,1.79297-2.18667,4.84893-3.44375,8.3805-3.44375h5.35132l-12.10782-6.80041-.61252.23519c-2.8424,1.07696-5.297,2.81484-7.10633,5.01788-2.95178,3.60823-4.05031,8.21081-3.09915,12.96076,1.95669,9.6867,12.13536,17.27977,23.17217,17.27977h63.45962c9.46193,0,18.27411-5.36844,24.8118-15.10947l1.04942-1.55776c2.6898-4.31306,3.11629-9.32573,1.10971-13.08654Z"/>
      <path class="cls-10" d="M183.6133,339.23699l8.17211-7.03039-14.74254-14.95019h-8.02474l.00521-1.39923h20.40645l-.01637,1.68875,15.3387-.03796.11462-10.49052-15.48605.01637.01635,2.07726-21.42313.04391-13.72587-7.73522h-19.18213l-14.3384,8.98188-.04315,6.85475h-8.23837l-7.81709,15.80313,10.5508,6.08442,68.43359.09303ZM128.16205,317.2564l.01116-3.60823,9.15083-5.32378,15.60069.02679,8.69161,5.035-.03796,3.8263-33.41633.04391ZM117.73256,331.68784l-3.12146-1.7602,2.48734-5.21511h56.82294l6.48338,6.5816-.56344.39372h-62.10877Z"/>
    </g>
    <path class="cls-10" d="M109.84997,340.74117c-4.34283,0-7.87738,3.53455-7.87738,7.87961,0,4.34357,3.53455,7.87812,7.87738,7.87812,4.34506,0,7.88035-3.53455,7.88035-7.87812,0-4.34506-3.53529-7.87961-7.88035-7.87961Z"/>
    <path class="cls-10" d="M121.84543,349.74984c0,5.23521,4.2587,9.49394,9.49391,9.49394s9.49617-4.25873,9.49617-9.49394-4.26094-9.49617-9.49617-9.49617-9.49391,4.26096-9.49391,9.49617Z"/>
    <path class="cls-10" d="M143.33257,349.74984c0,5.23521,4.26094,9.49394,9.49615,9.49394,5.23595,0,9.49468-4.25873,9.49468-9.49394s-4.25873-9.49617-9.49468-9.49617c-5.23521,0-9.49615,4.26096-9.49615,9.49617Z"/>
    <path class="cls-10" d="M174.31662,340.25367c-5.23523,0-9.49396,4.26096-9.49396,9.49617s4.25873,9.49394,9.49396,9.49394,9.49615-4.25873,9.49615-9.49394-4.26096-9.49617-9.49615-9.49617Z"/>
    <path class="cls-10" d="M191.14384,350.61766c2.85652,0,5.1809-2.32436,5.1809-5.18088,0-2.85875-2.32438-5.18311-5.1809-5.18311-2.85875,0-5.18237,2.32436-5.18237,5.18311,0,2.85652,2.32362,5.18088,5.18237,5.18088Z"/>
  </g>
  <g>
    <g>
      <path class="cls-10" d="M321.57086,338.60808c-2.37202-4.46042-6.44468-6.81679-11.78037-6.81679h-.50834l-9.31457,7.81709,9.8229.06029c2.65184,0,3.42219,1.07101,4.23119,2.5856.68324,1.28461.84177,3.47129-.14737,5.10571l-.99509,1.49227c-3.56953,5.3074-9.63684,11.63223-18.27932,11.63223h-63.45962c-7.29759,0-14.22897-4.91964-15.4429-10.96536-.48675-2.38316.03798-4.65766,1.46473-6.40669,1.79295-2.18667,4.84893-3.44375,8.3805-3.44375h5.35132l-12.10782-6.80041-.61254.23519c-2.84238,1.07696-5.29698,2.81484-7.10631,5.01788-2.95178,3.60823-4.05033,8.21081-3.09915,12.96076,1.95669,9.6867,12.13536,17.27977,23.17217,17.27977h63.45962c9.46193,0,18.27411-5.36844,24.8118-15.10947l1.04942-1.55776c2.6898-4.31306,3.11627-9.32573,1.10974-13.08654Z"/>
      <path class="cls-10" d="M299.59025,339.23699l8.17285-7.03039-14.74329-14.95019h-8.02474l.00521-1.39923h20.40645l-.01635,1.68875,15.33868-.03796.11462-10.49052-15.48607.01637.01637,2.07726-21.42313.04391-13.72587-7.73522h-19.18136l-14.33843,8.98188-.04391,6.85475h-8.23835l-7.81635,15.80313,10.55008,6.08442,68.43357.09303ZM244.13899,317.2564l.01116-3.60823,9.15083-5.32378,15.60069.02679,8.69161,5.035-.03796,3.8263-33.41633.04391ZM233.70953,331.68784l-3.1215-1.7602,2.48736-5.21511h56.82294l6.48335,6.5816-.56264.39372h-62.10951Z"/>
    </g>
    <path class="cls-10" d="M225.82692,340.74117c-4.34283,0-7.87738,3.53455-7.87738,7.87961,0,4.34357,3.53455,7.87812,7.87738,7.87812,4.3458,0,7.88035-3.53455,7.88035-7.87812,0-4.34506-3.53455-7.87961-7.88035-7.87961Z"/>
    <path class="cls-10" d="M237.82236,349.74984c0,5.23521,4.25873,9.49394,9.49394,9.49394s9.49691-4.25873,9.49691-9.49394-4.2617-9.49617-9.49691-9.49617-9.49394,4.26096-9.49394,9.49617Z"/>
    <path class="cls-10" d="M259.30949,349.74984c0,5.23521,4.2617,9.49394,9.49691,9.49394s9.49394-4.25873,9.49394-9.49394-4.2587-9.49617-9.49394-9.49617-9.49691,4.26096-9.49691,9.49617Z"/>
    <path class="cls-10" d="M290.29354,340.25367c-5.23521,0-9.49391,4.26096-9.49391,9.49617s4.2587,9.49394,9.49391,9.49394,9.49617-4.25873,9.49617-9.49394-4.26093-9.49617-9.49617-9.49617Z"/>
    <path class="cls-10" d="M307.12079,350.61766c2.85726,0,5.18088-2.32436,5.18088-5.18088,0-2.85875-2.32362-5.18311-5.18088-5.18311-2.85875,0-5.18237,2.32436-5.18237,5.18311,0,2.85652,2.32362,5.18088,5.18237,5.18088Z"/>
  </g>
  <path class="cls-8" d="M501.8162,332.46181l6.44954-12.79887,8.12901-.08648,4.41042.08648,1.85243-9.16676,10.11803-5.96704,17.55521.25944,12.45296,7.69662.25944,7.09127,8.73437.17296,11.0693,12.10704,5.52483.04439,2.60419-.21735,8.73437,10.20451s-2.8538,10.72338-4.9293,13.40422-5.53465,9.85859-39.6938,9.59915c-34.15915-.25944-52.0626-.265-55.77887-2.07549-6.74535-3.2862-8.72063-11.28803-8.64789-15.65268.08648-5.18873,4.06451-11.41521,8.73431-14.60071,1.29523-.88354,2.42146-.1007,2.42146-.1007Z"/>
  <path class="cls-8" d="M617.52493,332.46181l7.48729-13.66366,7.52366.51887,3.45915.51887,2.3713-9.33972,10.11803-5.96704,17.55521.25944,12.45296,7.69662.25944,7.09127,8.73437.17296,11.0693,12.10704,5.52483.04439,2.60419-.21735,8.73437,10.20451s-2.8538,10.72338-4.9293,13.40422-5.53465,9.85859-39.6938,9.59915c-34.15915-.25944-52.0626-.265-55.77887-2.07549-6.74535-3.2862-8.72063-11.28803-8.64789-15.65268.08648-5.18873,4.06451-11.41521,8.73431-14.60071,1.29523-.88354,2.42146-.1007,2.42146-.1007Z"/>
  <path class="cls-8" d="M558.2869,264.22999l7.48729-13.66366,7.52366.51887,3.45915.51887,2.3713-9.33972,10.11803-5.96704,17.55521.25944,12.45296,7.69662.25944,7.09127,8.73437.17296,11.0693,12.10704,5.52483.04439,2.60419-.21735,8.73437,10.20451s-2.8538,10.72338-4.9293,13.40422c-2.07549,2.68084-5.53465,9.85859-39.6938,9.59915-34.15915-.25944-52.0626-.265-55.77887-2.07549-6.74535-3.2862-8.72063-11.28803-8.64789-15.65268.08648-5.18873,4.06451-11.41521,8.73431-14.60071,1.29523-.88354,2.42146-.1007,2.42146-.1007Z"/>
  <g>
    <g>
      <path class="cls-6" d="M636.34261,270.95886l8.17285-7.03039-14.74329-14.95019h-8.02474l.00521-1.39923h20.40645l-.01635,1.68875,15.33868-.03796.11462-10.49052-15.48607.01637.01637,2.07726-21.42313.04391-13.72587-7.73522h-19.18136l-14.33843,8.98188-.04391,6.85475h-8.23835l-7.81635,15.80313,10.55008,6.08442,68.43357.09303ZM580.89136,248.97827l.01116-3.60823,9.15083-5.32378,15.60069.02679,8.69161,5.035-.03796,3.8263-33.41633.04391ZM570.4619,263.4097l-3.1215-1.7602,2.48736-5.21511h56.82294l6.48335,6.5816-.56264.39372h-62.10951Z"/>
      <path class="cls-6" d="M658.32323,270.32995c-2.37202-4.46042-6.44468-6.81679-11.78037-6.81679h-.50834l-9.31457,7.81709,9.8229.06029c2.65184,0,3.42219,1.07101,4.23119,2.5856.68324,1.28461.84177,3.47129-.14737,5.10571l-.99509,1.49227c-3.56953,5.3074-9.63684,11.63223-18.27932,11.63223h-63.45962c-7.29759,0-14.22897-4.91964-15.4429-10.96536-.48675-2.38316.03798-4.65766,1.46473-6.40669,1.79295-2.18667,4.84893-3.44375,8.3805-3.44375h5.35132l-12.10782-6.80041-.61254.23519c-2.84238,1.07696-5.29698,2.81484-7.10631,5.01788-2.95178,3.60823-4.05033,8.21081-3.09915,12.96076,1.95669,9.6867,12.13536,17.27977,23.17217,17.27977h63.45962c9.46193,0,18.27411-5.36844,24.8118-15.10947l1.04942-1.55776c2.6898-4.31306,3.11627-9.32573,1.10974-13.08654Z"/>
    </g>
    <path class="cls-6" d="M562.57929,272.46303c-4.34283,0-7.87738,3.53455-7.87738,7.87961,0,4.34357,3.53455,7.87812,7.87738,7.87812,4.3458,0,7.88035-3.53455,7.88035-7.87812,0-4.34506-3.53455-7.87961-7.88035-7.87961Z"/>
    <path class="cls-6" d="M574.57472,281.4717c0,5.23521,4.25873,9.49394,9.49394,9.49394s9.49691-4.25873,9.49691-9.49394-4.2617-9.49617-9.49691-9.49617-9.49394,4.26096-9.49394,9.49617Z"/>
    <path class="cls-6" d="M596.06186,281.4717c0,5.23521,4.2617,9.49394,9.49691,9.49394s9.49394-4.25873,9.49394-9.49394-4.2587-9.49617-9.49394-9.49617-9.49691,4.26096-9.49691,9.49617Z"/>
    <path class="cls-6" d="M627.04591,271.97553c-5.23521,0-9.49391,4.26096-9.49391,9.49617s4.2587,9.49394,9.49391,9.49394,9.49617-4.25873,9.49617-9.49394-4.26093-9.49617-9.49617-9.49617Z"/>
    <path class="cls-6" d="M643.87316,282.33952c2.85726,0,5.18088-2.32436,5.18088-5.18088,0-2.85875-2.32362-5.18311-5.18088-5.18311-2.85875,0-5.18237,2.32436-5.18237,5.18311,0,2.85652,2.32362,5.18088,5.18237,5.18088Z"/>
  </g>
  <g>
    <g>
      <path class="cls-6" d="M717.59047,338.44767c-2.37274-4.46042-6.4454-6.81679-11.78034-6.81679h-.50834l-9.31457,7.81709,9.8229.06029c2.6511,0,3.42216,1.07101,4.23119,2.5856.68324,1.28461.84177,3.47129-.14811,5.10571l-.99435,1.49227c-3.56953,5.3074-9.63754,11.63223-18.28007,11.63223h-63.45962c-7.29759,0-14.22899-4.91964-15.44216-10.96536-.48675-2.38316.03796-4.65766,1.46473-6.40669,1.79295-2.18667,4.84893-3.44375,8.37976-3.44375h5.35206l-12.10856-6.80041-.61179.23519c-2.84312,1.07696-5.29698,2.81484-7.10631,5.01788-2.95178,3.60823-4.05107,8.21081-3.09986,12.96076,1.95744,9.6867,12.13532,17.27977,23.17214,17.27977h63.45962c9.46268,0,18.27411-5.36844,24.81254-15.10947l1.04942-1.55776c2.68906-4.31306,3.11552-9.32573,1.10971-13.08654Z"/>
      <path class="cls-6" d="M695.60988,339.07658l8.17211-7.03039-14.74254-14.95019h-8.02474l.00521-1.39923h20.40645l-.01637,1.68875,15.3387-.03796.11465-10.49052-15.48685.01637.01637,2.07726-21.42238.04391-13.72661-7.73522h-19.18138l-14.3384,8.98188-.04391,6.85475h-8.2376l-7.81709,15.80313,10.55006,6.08442,68.43433.09303ZM640.15867,317.09599l.01039-3.60823,9.15083-5.32378,15.60143.02679,8.69161,5.035-.03796,3.8263-33.4163.04391ZM629.7284,331.52742l-3.12148-1.7602,2.48736-5.21511h56.82369l6.48335,6.5816-.56341.39372h-62.10951Z"/>
    </g>
    <path class="cls-6" d="M621.84656,340.58075c-4.34283,0-7.87812,3.53455-7.87812,7.87961,0,4.34357,3.53529,7.87812,7.87812,7.87812,4.34506,0,7.88035-3.53455,7.88035-7.87812,0-4.34506-3.53529-7.87961-7.88035-7.87961Z"/>
    <path class="cls-6" d="M633.84199,349.58942c0,5.23521,4.25873,9.49394,9.49394,9.49394s9.49617-4.25873,9.49617-9.49394-4.26096-9.49617-9.49617-9.49617-9.49394,4.26096-9.49394,9.49617Z"/>
    <path class="cls-6" d="M655.32913,349.58942c0,5.23521,4.26096,9.49394,9.49617,9.49394s9.49394-4.25873,9.49394-9.49394-4.25873-9.49617-9.49394-9.49617-9.49617,4.26096-9.49617,9.49617Z"/>
    <path class="cls-6" d="M686.31244,340.09325c-5.23521,0-9.49394,4.26096-9.49394,9.49617s4.25873,9.49394,9.49394,9.49394,9.49617-4.25873,9.49617-9.49394-4.26096-9.49617-9.49617-9.49617Z"/>
    <path class="cls-6" d="M703.14043,350.45724c2.85655,0,5.18088-2.32436,5.18088-5.18088,0-2.85875-2.32433-5.18311-5.18088-5.18311-2.85875,0-5.18311,2.32436-5.18311,5.18311,0,2.85652,2.32436,5.18088,5.18311,5.18088Z"/>
  </g>
  <g>
    <g>
      <path class="cls-6" d="M601.61352,338.44767c-2.37274-4.46042-6.4454-6.81679-11.78034-6.81679h-.50831l-9.3146,7.81709,9.8229.06029c2.6511,0,3.42216,1.07101,4.23119,2.5856.68324,1.28461.84177,3.47129-.14811,5.10571l-.99435,1.49227c-3.56953,5.3074-9.63758,11.63223-18.28007,11.63223h-63.45962c-7.29759,0-14.22896-4.91964-15.4429-10.96536-.48601-2.38316.0387-4.65766,1.46547-6.40669,1.79295-2.18667,4.84893-3.44375,8.37976-3.44375h5.35206l-12.10856-6.80041-.61179.23519c-2.84312,1.07696-5.29695,2.81484-7.10631,5.01788-2.95253,3.60823-4.05107,8.21081-3.09989,12.96076,1.95744,9.6867,12.13536,17.27977,23.17217,17.27977h63.45962c9.46268,0,18.27411-5.36844,24.8118-15.10947l1.0502-1.55776c2.68902-4.31306,3.11549-9.32573,1.10968-13.08654Z"/>
      <path class="cls-6" d="M579.63293,339.07658l8.17211-7.03039-14.74329-14.95019h-8.024l.00521-1.39923h20.40571l-.01634,1.68875,15.33867-.03796.11536-10.49052-15.48681.01637.01637,2.07726-21.42238.04391-13.72661-7.73522h-19.18135l-14.33843,8.98188-.04391,6.85475h-8.2376l-7.81709,15.80313,10.55009,6.08442,68.4343.09303ZM524.18168,317.09599l.01042-3.60823,9.15083-5.32378,15.60143.02679,8.69161,5.035-.0387,3.8263-33.41559.04391ZM513.75148,331.52742l-3.12151-1.7602,2.48736-5.21511h56.82369l6.48261,6.5816-.56264.39372h-62.10951Z"/>
    </g>
    <path class="cls-6" d="M505.86964,340.58075c-4.34286,0-7.87815,3.53455-7.87815,7.87961,0,4.34357,3.53529,7.87812,7.87815,7.87812,4.34503,0,7.87958-3.53455,7.87958-7.87812,0-4.34506-3.53455-7.87961-7.87958-7.87961Z"/>
    <path class="cls-6" d="M517.86504,349.58942c0,5.23521,4.25873,9.49394,9.49394,9.49394s9.49617-4.25873,9.49617-9.49394-4.26096-9.49617-9.49617-9.49617-9.49394,4.26096-9.49394,9.49617Z"/>
    <path class="cls-6" d="M539.35218,349.58942c0,5.23521,4.26096,9.49394,9.49617,9.49394s9.49394-4.25873,9.49394-9.49394-4.25869-9.49617-9.49394-9.49617-9.49617,4.26096-9.49617,9.49617Z"/>
    <path class="cls-6" d="M570.33549,340.09325c-5.23521,0-9.4939,4.26096-9.4939,9.49617s4.25869,9.49394,9.4939,9.49394,9.49617-4.25873,9.49617-9.49394-4.26093-9.49617-9.49617-9.49617Z"/>
    <path class="cls-6" d="M587.16348,350.45724c2.85652,0,5.18013-2.32436,5.18013-5.18088,0-2.85875-2.32362-5.18311-5.18013-5.18311-2.85875,0-5.18311,2.32436-5.18311,5.18311,0,2.85652,2.32436,5.18088,5.18311,5.18088Z"/>
  </g>
</svg>