<?xml version="1.0" encoding="UTF-8"?>
<svg id="Ebene_4" data-name="Ebene 4" xmlns="http://www.w3.org/2000/svg" viewBox="0 0 1920 910.61643">
  <defs>
    <style>
      .cls-1, .cls-2 {
        fill: none;
      }

      .cls-3 {
        fill: #0e435c;
      }

      .cls-4 {
        stroke: #90172f;
        stroke-width: 21.54014px;
      }

      .cls-4, .cls-5 {
        fill: #f3f5f7;
      }

      .cls-4, .cls-6, .cls-7, .cls-2 {
        stroke-miterlimit: 10;
      }

      .cls-8 {
        fill: #0d435c;
      }

      .cls-9, .cls-6, .cls-7 {
        fill: #fff;
      }

      .cls-6 {
        stroke-width: 3.27554px;
      }

      .cls-6, .cls-7 {
        stroke: #0e435c;
      }

      .cls-7 {
        stroke-width: 5.61333px;
      }

      .cls-2 {
        stroke: #fac102;
        stroke-width: 18.26204px;
      }
    </style>
  </defs>
  <rect class="cls-5" x="-11.91728" y="-9.34877" width="1945.37501" height="930.54778"/>
  <g>
    <g>
      <path class="cls-9" d="M61.00796,168.143l138.14746-1.96387,88.37988-.9209c.20898-.00293,20.1875-.31738,31.63574-.31738,3.69531,0,6.12207.03223,7.21289.0957,2.35449.1377,10.25195,1.7207,18.37109,4.22363,11.26074,3.47168,14.00684,6.02246,14.11523,6.71191-.02539,1.20801-2.80664,4.24414-13.0752,7.86719-7.8252,2.75977-16.04395,4.41016-19.47168,4.41016l-.50098-.00293c-6.75879,0-111.39453.92285-112.45117.93262l-152.46045,2.16699.09717-23.20312Z"/>
      <path class="cls-3" d="M319.17113,166.57904c4.56296,0,6.38864.05029,7.11636.09277,2.05255.11963,9.19501,1.53369,16.74063,3.77686,8.64951,2.57178,12.61908,4.68408,13.92651,5.76074-.97147,1.11719-4.34299,3.59277-12.6871,6.4248-7.61115,2.58301-14.92599,3.97705-17.94437,3.97705l-.14526-.00098c-.06229-.00146-.17972-.00195-.3504-.00195-6.71829,0-111.41393.92432-112.48828.93359l-150.78337,2.14307.08329-19.92773,136.52676-1.94043,88.40364-.92139c.20032-.00293,20.16681-.31641,31.60159-.31641M319.17116,163.30316c-11.59372,0-31.65344.31738-31.65344.31738l-88.38596.9209-139.75468,1.98633-.11068,26.47998,154.11935-2.19043s105.66022-.93359,112.44171-.93359c.14459,0,.24408.00049.29678.00146.06476.00098.13153.00146.19894.00146,7.93509,0,34.05231-7.37842,34.18393-13.89648.10736-5.33447-28.42783-12.26172-34.0289-12.58838-1.21951-.0708-3.89792-.09863-7.30707-.09863h0Z"/>
    </g>
    <g>
      <path class="cls-9" d="M239.15639,166.18597l-.28418-10.08789,7.46289-.38867c5.78711,3.66602,12.14941,8.00488,14.86719,10.2627-3.08398.54297-9.3457,1.14648-14.86621,1.50195l-7.17969-1.28809Z"/>
      <path class="cls-3" d="M245.8977,157.37298c3.93726,2.50439,8.16592,5.33545,11.19272,7.51904-3.09888.35645-7.06436.7002-10.66107.93506l-5.67346-1.01807-.20117-7.15869,5.34299-.27734M246.76928,154.04779l-9.57867.49756.36584,13.01709,8.6861,1.55908s16.59808-1.05371,17.70929-2.2959c1.11151-1.24219-17.18256-12.77783-17.18256-12.77783h0Z"/>
    </g>
    <g>
      <path class="cls-9" d="M47.68618,170.38714l3.38965-19.87598,23.39844.79785,48.80029,18.47168c-1.74561.28613-4.22705.43457-6.24463.55566-.89258.05371-1.81592.10938-2.75635.1748-6.25488.4375-47.58691,1.94336-50.31592,2.04297l-16.27148-2.16699Z"/>
      <path class="cls-3" d="M52.44955,152.19671l21.6986.73926,41.80672,15.82471c-.58905.03613-1.18883.07422-1.79588.1167-6.14038.4292-46.37334,1.89893-50.12276,2.03564l-14.45004-1.92432,2.86337-16.79199M49.70157,148.82562l-3.91538,22.96143,18.09225,2.40918s43.97078-1.59424,50.50896-2.05127c6.53789-.45654,12.23456-.41602,12.56544-2.72363l-52.15175-19.74072-25.09953-.85498h0Z"/>
    </g>
    <g>
      <path class="cls-9" d="M239.48061,198.87542l-.00391-10.1709,7.6582-2.08984c5.25977.3623,11.19629.96191,14.21777,1.50195-2.73145,2.33008-8.75391,6.86035-14.42871,10.93359l-7.44336-.1748Z"/>
      <path class="cls-3" d="M247.29867,188.26849c3.41504.23926,7.15692.58154,10.10516.93457-2.97946,2.3291-7.11902,5.40967-10.99072,8.19727l-5.2952-.12451-.0022-7.32129,6.18295-1.68604M246.971,184.96283l-9.13159,2.49023.00391,13.02197,9.58917.22559s16.70197-11.95605,16.81244-13.26123c.11044-1.30469-17.27393-2.47656-17.27393-2.47656h0Z"/>
    </g>
    <g>
      <path class="cls-9" d="M48.48794,188.88519l16.20264-2.62891c2.73096.02148,44.08936.35449,50.354.61328.94287.03906,1.86865.06738,2.76367.0957,2.01855.06445,4.50146.14258,6.25391.37891l-48.25488,19.85156-23.3667,1.46191-3.95264-19.77246Z"/>
      <path class="cls-3" d="M64.81595,187.89593c3.75181.02979,44.01065.35547,50.16061.60986.60803.0249,1.20879.0459,1.79875.06543l-41.34064,17.00635-21.66866,1.35596-3.33927-16.70361,14.38921-2.33398M64.56495,184.6181l-18.01618,2.92236,4.56616,22.84082,25.06493-1.56836,51.56975-21.21436c-.39597-2.29736-6.08937-2.09521-12.63783-2.36572-6.54814-.27051-50.54682-.61475-50.54682-.61475h0Z"/>
    </g>
    <line class="cls-6" x1="96.53599" y1="179.33304" x2="59.61753" y2="179.85777"/>
  </g>
  <g>
    <g>
      <path class="cls-9" d="M61.00796,253.06292l138.14746-1.96387,88.37988-.9209c.20898-.00293,20.1875-.31738,31.63574-.31738,3.69531,0,6.12207.03223,7.21289.0957,2.35449.1377,10.25195,1.7207,18.37109,4.22363,11.26074,3.47168,14.00684,6.02246,14.11523,6.71191-.02539,1.20703-2.80664,4.24316-13.0752,7.86621-7.8252,2.76074-16.04492,4.41113-19.47168,4.41113l-.50098-.00293c-6.75879,0-111.39453.92285-112.45117.93262l-152.46045,2.16699.09717-23.20312Z"/>
      <path class="cls-3" d="M319.17113,251.49896c4.56296,0,6.38864.05029,7.11636.09277,2.05246.11963,9.19485,1.53369,16.74054,3.77686,8.64951,2.57129,12.61911,4.68359,13.92661,5.76025-.97137,1.11719-4.34274,3.59326-12.68683,6.42529-7.61118,2.58301-14.92618,3.97705-17.94464,3.97705l-.1431-.00098c-.06311-.00146-.18317-.00195-.35773-.00195-6.76532,0-111.4093.92383-112.48312.93311l-150.78337,2.14307.08329-19.92725,136.52676-1.94043,88.40364-.92139c.20032-.00293,20.16681-.31641,31.60159-.31641M319.17116,248.22308c-11.59372,0-31.65344.31738-31.65344.31738l-88.38596.9209-139.75468,1.98633-.11068,26.47949,154.11935-2.19043s105.60748-.93311,112.43658-.93311c.14734,0,.2486.00049.30191.00146.06476.00098.13153.00146.19894.00146,7.93509,0,34.05231-7.37842,34.18393-13.89697.10736-5.33398-28.42783-12.26123-34.0289-12.58789-1.21951-.0708-3.89792-.09863-7.30707-.09863h0Z"/>
    </g>
    <g>
      <path class="cls-9" d="M239.15639,251.10492l-.28418-10.08691,7.46289-.38867c5.78711,3.66602,12.14941,8.00488,14.86719,10.2627-3.08398.54297-9.3457,1.14648-14.86621,1.50195l-7.17969-1.28906Z"/>
      <path class="cls-3" d="M245.89776,242.29242c3.93768,2.50488,8.16626,5.33545,11.19312,7.51953-3.09897.35645-7.06454.7002-10.66153.93506l-5.67346-1.01807-.20117-7.15869,5.34305-.27783M246.76928,238.96722l-9.57867.49805.36584,13.01709,8.6861,1.55908s16.59808-1.05371,17.70929-2.29639c1.11151-1.24219-17.18256-12.77783-17.18256-12.77783h0Z"/>
    </g>
    <g>
      <path class="cls-9" d="M47.68618,255.30706l3.38965-19.87598,23.39844.79688,48.7998,18.47168c-1.74365.28613-4.22119.43457-6.23584.55566-.89502.05371-1.82129.10938-2.76514.17578-6.25439.4375-47.58643,1.94336-50.31543,2.04297l-16.27148-2.16699Z"/>
      <path class="cls-3" d="M52.44954,237.11615l21.69859.73975,41.80676,15.82471c-.58904.03613-1.18874.07422-1.79564.1167-6.14053.42871-46.37351,1.89893-50.12294,2.03564l-14.45013-1.9248,2.86337-16.79199M49.70157,233.74505l-3.91538,22.96143,18.09225,2.40967s43.97078-1.59473,50.50896-2.05127c6.53789-.45654,12.23456-.41602,12.56544-2.72363l-52.15175-19.74072-25.09953-.85547h0Z"/>
    </g>
    <g>
      <path class="cls-9" d="M239.48061,283.79535l-.00391-10.17188,7.6582-2.08887c5.25977.36133,11.19727.96191,14.21875,1.50098-2.73242,2.33105-8.75488,6.86133-14.42969,10.93457l-7.44336-.1748Z"/>
      <path class="cls-3" d="M247.29873,273.18792c3.41504.23926,7.15704.58154,10.10532.93457-2.97949,2.32959-7.11923,5.41016-10.99094,8.19775l-5.2952-.12451-.0022-7.32129,6.18301-1.68652M246.971,269.88226l-9.13159,2.49072.00391,13.02197,9.58917.22559s16.70197-11.95605,16.81244-13.26123c.11044-1.30469-17.27393-2.47705-17.27393-2.47705h0Z"/>
    </g>
    <g>
      <path class="cls-9" d="M48.48794,273.80511l16.20264-2.62891c2.73096.02148,44.08936.35449,50.354.61328.94287.03906,1.86865.06738,2.76367.0957,2.01855.06445,4.50146.14258,6.25391.37891l-48.25488,19.85156-23.3667,1.46191-3.95264-19.77246Z"/>
      <path class="cls-3" d="M64.81592,272.81536c3.75182.02979,44.01077.35596,50.16064.61035.60771.0249,1.20816.0459,1.79785.06543l-41.33976,17.00635-21.66862,1.35547-3.33929-16.70361,14.38918-2.33398M64.56495,269.53753l-18.01618,2.92236,4.56616,22.84082,25.06493-1.56787,51.56975-21.21484c-.39597-2.29688-6.08937-2.09473-12.63783-2.36523-6.54814-.27051-50.54682-.61523-50.54682-.61523h0Z"/>
    </g>
    <line class="cls-6" x1="96.53599" y1="264.25277" x2="59.61753" y2="264.7775"/>
  </g>
  <g>
    <g>
      <path class="cls-9" d="M61.00796,344.52386l138.14746-1.96387,88.37988-.9209c.20898-.00293,20.1875-.31738,31.63574-.31738,3.69531,0,6.12207.03223,7.21289.0957,2.35449.1377,10.25195,1.7207,18.37109,4.22363,11.26074,3.47168,14.00684,6.02246,14.11523,6.71191-.02539,1.20703-2.80664,4.24316-13.0752,7.86621-7.8252,2.76074-16.04492,4.41113-19.47168,4.41113l-.50098-.00293c-6.75879,0-111.39453.92285-112.45117.93262l-152.46045,2.16699.09717-23.20312Z"/>
      <path class="cls-3" d="M319.15899,342.95941h0c4.5715,0,6.40018.05078,7.12881.09326,2.05206.11963,9.19415,1.5332,16.74023,3.77686,8.64951,2.57129,12.61905,4.68359,13.92654,5.76025-.97174,1.11719-4.34351,3.59326-12.68704,6.4248-7.61115,2.58301-14.92599,3.97705-17.94437,3.97705l-.14526-.00098c-.06229-.00146-.17972-.00195-.3504-.00195-6.71829,0-111.41393.92432-112.48828.93359l-150.78337,2.14307.08329-19.92773,136.52676-1.94043,88.40364-.92139c.2002-.00293,20.15295-.31641,31.58945-.31641M319.15899,339.68402c-11.5954,0-31.64127.31689-31.64127.31689l-88.38596.9209-139.75468,1.98633-.11068,26.47998,154.11935-2.19043s105.66022-.93359,112.44171-.93359c.14459,0,.24408.00049.29678.00146.06476.00098.13153.00146.19894.00146,7.93509,0,34.05231-7.37842,34.18393-13.89648.10736-5.33398-28.42783-12.26172-34.0289-12.58789-1.22083-.07129-3.90485-.09863-7.31924-.09863h0Z"/>
    </g>
    <g>
      <path class="cls-9" d="M239.15639,342.56585l-.28418-10.08691,7.46289-.38867c5.78711,3.66602,12.14941,8.00488,14.86719,10.2627-3.08398.54297-9.34473,1.14746-14.86621,1.50195l-7.17969-1.28906Z"/>
      <path class="cls-3" d="M245.8977,333.75335c3.93726,2.50439,8.16592,5.33545,11.19272,7.51904-3.09888.35645-7.06436.7002-10.66107.93506l-5.67346-1.01807-.20117-7.15869,5.34299-.27734M246.76928,330.42816l-9.57867.49756.36584,13.01709,8.6861,1.55908s16.59808-1.05371,17.70929-2.2959c1.11151-1.24219-17.18256-12.77783-17.18256-12.77783h0Z"/>
    </g>
    <g>
      <path class="cls-9" d="M47.68618,346.768l3.38965-19.87695,23.39844.79785,48.7998,18.47168c-1.74365.28613-4.22119.43457-6.23584.55566-.89502.05371-1.82129.10938-2.76514.17578-6.25439.43652-47.58643,1.94336-50.31543,2.04297l-16.27148-2.16699Z"/>
      <path class="cls-3" d="M52.44955,328.57708l21.6986.73926,41.80757,15.8252c-.58936.03613-1.18939.07422-1.79648.1167-6.14052.42871-46.3736,1.89844-50.12302,2.03516l-14.45004-1.92432,2.86337-16.79199M49.70157,325.20599l-3.91538,22.96143,18.09225,2.40918s43.97078-1.59424,50.50896-2.05078c6.53789-.45703,12.23456-.4165,12.56544-2.72412l-52.15175-19.74072-25.09953-.85498h0Z"/>
    </g>
    <g>
      <path class="cls-9" d="M239.48061,375.25628l-.00391-10.17188,7.6582-2.08887c5.25977.36133,11.19727.96191,14.21875,1.50098-2.73242,2.33105-8.75488,6.86133-14.42969,10.93457l-7.44336-.1748Z"/>
      <path class="cls-3" d="M247.29867,364.64886c3.41492.23926,7.15726.58154,10.10547.93457-2.97949,2.3291-7.11938,5.41016-10.99106,8.19727l-5.29517-.12451-.0022-7.32129,6.18295-1.68604M246.971,361.3432l-9.13159,2.49023.00391,13.02246,9.58917.2251s16.70197-11.95557,16.81244-13.26074c.11044-1.30518-17.27393-2.47705-17.27393-2.47705h0Z"/>
    </g>
    <g>
      <path class="cls-9" d="M48.48794,365.26507l16.20264-2.62793c2.73096.02148,44.08936.35449,50.354.61328.94287.03906,1.86865.06738,2.76367.0957,2.01904.06445,4.50146.14258,6.25391.37891l-48.25488,19.85156-23.3667,1.46094-3.95264-19.77246Z"/>
      <path class="cls-3" d="M64.81595,364.2763c3.75181.02979,44.01065.35547,50.16061.60986.60803.0249,1.20879.0459,1.79875.06543l-41.34064,17.00635-21.66866,1.35596-3.33927-16.70361,14.38921-2.33398M64.56495,360.99847l-18.01618,2.92236,4.56616,22.84082,25.06493-1.56836,51.56975-21.21436c-.39597-2.29736-6.08937-2.09521-12.63783-2.36572-6.54814-.27051-50.54682-.61475-50.54682-.61475h0Z"/>
    </g>
    <line class="cls-6" x1="96.53599" y1="355.71349" x2="59.61753" y2="356.23821"/>
  </g>
  <g>
    <g>
      <path class="cls-9" d="M61.00796,444.78851l138.14746-1.96387,88.37988-.9209c.20898-.00293,20.1875-.31738,31.63574-.31738,3.69531,0,6.12207.03223,7.21289.0957,2.35547.1377,10.25391,1.72168,18.37207,4.22461,11.26074,3.47168,14.00684,6.02246,14.11426,6.71191-.02539,1.20703-2.80664,4.24316-13.07324,7.86621-7.8252,2.76074-16.04492,4.41016-19.47168,4.41016-.00098,0-.50293-.00293-.50293-.00293-6.75879,0-111.39453.92285-112.45117.93262l-152.46045,2.16699.09717-23.20312Z"/>
      <path class="cls-3" d="M319.1585,443.22454c4.57199,0,6.40033.05078,7.1293.09326,2.05206.11963,9.19415,1.5332,16.74023,3.77686,8.64951,2.57129,12.61905,4.68359,13.92654,5.76025-.9715,1.11719-4.34323,3.59326-12.68805,6.42529-7.61154,2.58301-14.92618,3.97705-17.94412,3.97705l-.14233-.00098c-.06311-.00146-.18317-.00195-.35773-.00195-6.76532,0-111.4093.92383-112.48312.93311l-150.78337,2.14307.08329-19.92773,136.52676-1.93994,88.40361-.92188c.20023-.00293,20.15207-.31641,31.58899-.31641M319.1585,439.94915c-11.59579,0-31.64078.31689-31.64078.31689l-88.38596.92139-139.75468,1.98584-.11068,26.47998,154.11935-2.19043s105.60748-.93311,112.43658-.93311c.14734,0,.2486.00049.30191.00146.0643.00098.13126.00146.19815.00146,7.93335,0,34.0531-7.37891,34.18472-13.89697.10736-5.33398-28.42783-12.26172-34.0289-12.58789-1.22113-.07129-3.90402-.09863-7.31973-.09863h0Z"/>
    </g>
    <g>
      <path class="cls-9" d="M239.15639,442.83148l-.28418-10.08789,7.46289-.38867c5.78711,3.66602,12.14941,8.00488,14.86719,10.2627-3.08398.54297-9.3457,1.14648-14.86621,1.50195l-7.17969-1.28809Z"/>
      <path class="cls-3" d="M245.8977,434.01849c3.93768,2.50488,8.16605,5.33545,11.1929,7.51904-3.09866.35693-7.06439.70068-10.66122.93555l-5.67349-1.01855-.20117-7.15869,5.34299-.27734M246.76928,430.69329l-9.57867.49756.36584,13.01709,8.6861,1.55957s16.59808-1.0542,17.70929-2.29639c1.11151-1.24219-17.18256-12.77783-17.18256-12.77783h0Z"/>
    </g>
    <g>
      <path class="cls-9" d="M47.68618,447.03363l3.38965-19.87695,23.39844.79785,48.80029,18.47168c-1.74561.28613-4.22705.43457-6.24463.55566-.89258.05371-1.81592.10938-2.75635.1748-6.25537.4375-47.58691,1.94434-50.31592,2.04395l-16.27148-2.16699Z"/>
      <path class="cls-3" d="M52.44954,428.84222l21.69856.73975,41.80736,15.82471c-.58928.03613-1.18921.07422-1.79622.1167-6.14052.42871-46.3736,1.89844-50.12302,2.03516l-14.45004-1.92432,2.86336-16.79199M49.70157,425.47113l-3.91538,22.96143,18.09225,2.40918s43.97078-1.59424,50.50896-2.05078c6.53789-.45703,12.23456-.4165,12.56544-2.72412l-52.15175-19.74023-25.09953-.85547h0Z"/>
    </g>
    <g>
      <path class="cls-9" d="M239.48061,475.52093l-.00391-10.1709,7.6582-2.08887c5.25977.36133,11.19629.96191,14.21777,1.50098-2.73242,2.33105-8.75488,6.86133-14.42871,10.93359l-7.44336-.1748Z"/>
      <path class="cls-3" d="M247.29867,464.914c3.41492.23926,7.15726.58154,10.10547.93457-2.97949,2.3291-7.11938,5.41016-10.99106,8.19727l-5.29517-.12451-.0022-7.32129,6.18295-1.68604M246.971,461.60833l-9.13159,2.49023.00391,13.02246,9.58917.2251s16.70197-11.95557,16.81244-13.26074c.11044-1.30518-17.27393-2.47705-17.27393-2.47705h0Z"/>
    </g>
    <g>
      <path class="cls-9" d="M48.48794,465.5307l16.20264-2.62891c2.73096.02148,44.08936.35449,50.354.61328.94287.03906,1.86865.06738,2.76367.0957,2.01855.06445,4.50146.14258,6.25391.37891l-48.25488,19.85156-23.3667,1.46191-3.95264-19.77246Z"/>
      <path class="cls-3" d="M64.81595,464.54144c3.75181.02979,44.01065.35547,50.16061.60986.60803.0249,1.20879.0459,1.79875.06543l-41.34064,17.00635-21.66866,1.35596-3.33927-16.70361,14.38921-2.33398M64.56495,461.26361l-18.01618,2.92236,4.56616,22.84082,25.06493-1.56836,51.56975-21.21436c-.39597-2.29736-6.08937-2.09521-12.63783-2.36572-6.54814-.27051-50.54682-.61475-50.54682-.61475h0Z"/>
    </g>
    <line class="cls-6" x1="96.53599" y1="455.97867" x2="59.61753" y2="456.5034"/>
  </g>
  <g>
    <g>
      <path class="cls-9" d="M61.00796,544.11566l138.14746-1.96387,88.37988-.9209c.20898-.00293,20.1875-.31738,31.63574-.31738,3.69531,0,6.12207.03223,7.21289.0957,2.35547.1377,10.25293,1.7207,18.37109,4.22363,11.26074,3.47168,14.00684,6.02246,14.11523,6.71191-.02539,1.20801-2.80664,4.24414-13.07324,7.86621-7.8252,2.76074-16.04492,4.41113-19.47168,4.41113-.00098,0-.50293-.00293-.50293-.00293-6.75879,0-111.39453.92285-112.45117.93262l-152.46045,2.16699.09717-23.20312Z"/>
      <path class="cls-3" d="M319.1585,542.55169c4.57199,0,6.40033.05078,7.1293.09326,2.05206.11963,9.19415,1.5332,16.74023,3.77686,8.64951,2.57129,12.61905,4.68359,13.92654,5.76025-.97174,1.11719-4.34351,3.59326-12.68704,6.4248-7.61115,2.58301-14.92599,3.97705-17.94437,3.97705l-.14526-.00098c-.06229-.00146-.17972-.00195-.3504-.00195-6.71829,0-111.41393.92432-112.48828.93359l-150.78337,2.14307.08329-19.92773,136.52676-1.94043,88.40361-.92139c.20023-.00293,20.15207-.31641,31.58899-.31641M319.1585,539.2763c-11.59579,0-31.64078.31689-31.64078.31689l-88.38596.9209-139.75468,1.98633-.11068,26.47998,154.11935-2.19043s105.66022-.93359,112.44171-.93359c.14459,0,.24408.00049.29678.00146.06476.00098.13153.00146.19894.00146,7.93509,0,34.05231-7.37842,34.18393-13.89648.10736-5.33398-28.42783-12.26172-34.0289-12.58789-1.22113-.07129-3.90402-.09863-7.31973-.09863h0Z"/>
    </g>
    <g>
      <path class="cls-9" d="M239.15639,542.15863l-.28418-10.08789,7.46289-.38867c5.78711,3.66602,12.14941,8.00488,14.86719,10.2627-3.08398.54297-9.3457,1.14648-14.86621,1.50195l-7.17969-1.28809Z"/>
      <path class="cls-3" d="M245.8977,533.34564c3.93726,2.50439,8.16592,5.33545,11.19272,7.51904-3.09888.35645-7.06436.7002-10.66107.93506l-5.67346-1.01807-.20117-7.15869,5.34299-.27734M246.76928,530.02044l-9.57867.49756.36584,13.01709,8.6861,1.55908s16.59808-1.05371,17.70929-2.2959c1.11151-1.24219-17.18256-12.77783-17.18256-12.77783h0Z"/>
    </g>
    <g>
      <path class="cls-9" d="M47.68618,546.3598l3.38965-19.87598,23.39844.79785,48.80029,18.47168c-1.74561.28613-4.22705.43457-6.24463.55566-.89258.05371-1.81592.10938-2.75635.1748-6.25537.4375-47.58691,1.94434-50.31592,2.04395l-16.27148-2.16797Z"/>
      <path class="cls-3" d="M52.44955,528.16937l21.6986.73926,41.80756,15.8252c-.58934.03613-1.18939.07422-1.79646.1167-6.14052.42871-46.3736,1.89844-50.12302,2.03516l-14.45004-1.92432,2.86337-16.79199M49.70157,524.79827l-3.91538,22.96143,18.09225,2.40918s43.97078-1.59424,50.50896-2.05078c6.53789-.45703,12.23456-.4165,12.56544-2.72412l-52.15175-19.74072-25.09953-.85498h0Z"/>
    </g>
    <g>
      <path class="cls-9" d="M239.48061,574.84808l-.00391-10.1709,7.6582-2.08887c5.25977.36133,11.19629.96191,14.21777,1.50098-2.73242,2.33105-8.75488,6.86133-14.42871,10.93359l-7.44336-.1748Z"/>
      <path class="cls-3" d="M247.29867,564.24115c3.41492.23926,7.15726.58154,10.10547.93457-2.97949,2.3291-7.11938,5.41016-10.99106,8.19727l-5.29517-.12451-.0022-7.32129,6.18295-1.68604M246.971,560.93548l-9.13159,2.49023.00391,13.02246,9.58917.2251s16.70197-11.95557,16.81244-13.26074c.11044-1.30518-17.27393-2.47705-17.27393-2.47705h0Z"/>
    </g>
    <g>
      <path class="cls-9" d="M48.48794,564.85785l16.20264-2.62891c2.73096.02148,44.08936.35449,50.354.61328.94287.03906,1.86865.06738,2.76367.0957,2.01855.06445,4.50146.14258,6.25391.37891l-48.25488,19.85156-23.3667,1.46191-3.95264-19.77246Z"/>
      <path class="cls-3" d="M64.81595,563.86859c3.75181.02979,44.01065.35547,50.16061.60986.60803.0249,1.20879.0459,1.79875.06543l-41.34064,17.00635-21.66866,1.35596-3.33927-16.70361,14.38921-2.33398M64.56495,560.59076l-18.01618,2.92236,4.56616,22.84082,25.06493-1.56836,51.56975-21.21436c-.39597-2.29736-6.08937-2.09521-12.63783-2.36572-6.54814-.27051-50.54682-.61475-50.54682-.61475h0Z"/>
    </g>
    <line class="cls-6" x1="96.53599" y1="555.30577" x2="59.61753" y2="555.8305"/>
  </g>
  <g>
    <g>
      <path class="cls-9" d="M61.00796,644.79437l138.14746-1.96387,88.37988-.9209c.20898-.00293,20.1875-.31738,31.63574-.31738,3.69531,0,6.12207.03223,7.21289.0957,2.35449.1377,10.25195,1.7207,18.37109,4.22363,11.26074,3.47168,14.00684,6.02246,14.11523,6.71191-.02539,1.20703-2.80664,4.24316-13.0752,7.86621-7.8252,2.76074-16.04492,4.41113-19.47168,4.41113l-.50098-.00293c-6.75879,0-111.39453.92285-112.45117.93262l-152.46045,2.16699.09717-23.20312Z"/>
      <path class="cls-3" d="M319.17113,643.2304c4.56296,0,6.38864.05029,7.11636.09277,2.05246.11963,9.19485,1.53369,16.74054,3.77686,8.64951,2.57129,12.61911,4.68359,13.92661,5.76025-.97137,1.11719-4.34274,3.59326-12.68683,6.42529-7.61118,2.58301-14.92618,3.97705-17.94464,3.97705l-.1431-.00098c-.06311-.00146-.18317-.00195-.35773-.00195-6.76532,0-111.4093.92383-112.48312.93311l-150.78337,2.14307.08329-19.92725,136.52676-1.94043,88.40364-.92139c.20032-.00293,20.16681-.31641,31.60159-.31641M319.17116,639.95452c-11.59372,0-31.65344.31738-31.65344.31738l-88.38596.9209-139.75468,1.98633-.11068,26.47949,154.11935-2.19043s105.60748-.93311,112.43658-.93311c.14734,0,.2486.00049.30191.00146.06476.00098.13153.00146.19894.00146,7.93509,0,34.05231-7.37842,34.18393-13.89697.10736-5.33398-28.42783-12.26123-34.0289-12.58789-1.21951-.0708-3.89792-.09863-7.30707-.09863h0Z"/>
    </g>
    <g>
      <path class="cls-9" d="M239.15639,642.83636l-.28418-10.08691,7.46289-.38867c5.78711,3.66602,12.14941,8.00488,14.86719,10.2627-3.08398.54297-9.3457,1.14648-14.86621,1.50195l-7.17969-1.28906Z"/>
      <path class="cls-3" d="M245.89776,634.02386c3.93768,2.50488,8.16626,5.33545,11.19312,7.51953-3.09897.35645-7.06454.7002-10.66153.93506l-5.67346-1.01807-.20117-7.15869,5.34305-.27783M246.76928,630.69867l-9.57867.49805.36584,13.01709,8.6861,1.55908s16.59808-1.05371,17.70929-2.29639c1.11151-1.24219-17.18256-12.77783-17.18256-12.77783h0Z"/>
    </g>
    <g>
      <path class="cls-9" d="M47.68618,647.03851l3.38965-19.87598,23.39844.79688,48.7998,18.47168c-1.74365.28613-4.22119.43457-6.23584.55566-.89551.05371-1.82129.10938-2.76514.17578-6.25488.4375-47.58643,1.94336-50.31543,2.04297l-16.27148-2.16699Z"/>
      <path class="cls-3" d="M52.44954,628.84759l21.69859.73975,41.80676,15.82471c-.58904.03613-1.18874.07422-1.79564.1167-6.14053.42871-46.37351,1.89893-50.12294,2.03564l-14.45013-1.9248,2.86337-16.79199M49.70157,625.4765l-3.91538,22.96143,18.09225,2.40967s43.97078-1.59473,50.50896-2.05127c6.53789-.45654,12.23456-.41602,12.56544-2.72363l-52.15175-19.74072-25.09953-.85547h0Z"/>
    </g>
    <g>
      <path class="cls-9" d="M239.48061,675.52679l-.00391-10.17188,7.6582-2.08887c5.25977.36133,11.19727.96191,14.21875,1.50098-2.73242,2.33105-8.75488,6.86133-14.42969,10.93457l-7.44336-.1748Z"/>
      <path class="cls-3" d="M247.29867,664.91986c3.41504.23926,7.15692.58154,10.10516.93457-2.97946,2.3291-7.11902,5.40967-10.99072,8.19727l-5.2952-.12451-.0022-7.32129,6.18295-1.68604M246.971,661.61419l-9.13159,2.49023.00391,13.02197,9.58917.22559s16.70197-11.95605,16.81244-13.26123c.11044-1.30469-17.27393-2.47656-17.27393-2.47656h0Z"/>
    </g>
    <g>
      <path class="cls-9" d="M48.48794,665.53656l16.20264-2.62891c2.73096.02148,44.08936.35449,50.354.61328.94287.03906,1.86865.06738,2.76367.0957,2.01855.06445,4.50146.14258,6.25391.37891l-48.25488,19.85156-23.3667,1.46191-3.95264-19.77246Z"/>
      <path class="cls-3" d="M64.81592,664.54681c3.75182.02979,44.01077.35596,50.16064.61035.60771.0249,1.20816.0459,1.79785.06543l-41.33976,17.00635-21.66862,1.35547-3.33929-16.70361,14.38918-2.33398M64.56495,661.26898l-18.01618,2.92236,4.56616,22.84082,25.06493-1.56787,51.56975-21.21484c-.39597-2.29688-6.08937-2.09473-12.63783-2.36523-6.54814-.27051-50.54682-.61523-50.54682-.61523h0Z"/>
    </g>
    <line class="cls-6" x1="96.53599" y1="655.98424" x2="59.61753" y2="656.50896"/>
  </g>
  <g>
    <g>
      <path class="cls-9" d="M61.00796,744.12152l138.14746-1.96387,88.37988-.9209c.20898-.00293,20.1875-.31738,31.63574-.31738,3.69531,0,6.12207.03223,7.21289.0957,2.35449.1377,10.25195,1.7207,18.37109,4.22363,11.26074,3.47168,14.00684,6.02246,14.11523,6.71191-.02539,1.20703-2.80664,4.24316-13.0752,7.86621-7.8252,2.76074-16.04492,4.41113-19.47168,4.41113l-.50098-.00293c-6.75879,0-111.39453.92285-112.45117.93262l-152.46045,2.16699.09717-23.20312Z"/>
      <path class="cls-3" d="M319.17113,742.55755c4.56296,0,6.38864.05029,7.11636.09277,2.05246.11963,9.19485,1.53369,16.74054,3.77686,8.64951,2.57129,12.61911,4.68359,13.92661,5.76025-.97137,1.11719-4.34274,3.59326-12.68683,6.42529-7.61118,2.58301-14.92618,3.97705-17.94464,3.97705l-.1431-.00098c-.06311-.00146-.18317-.00195-.35773-.00195-6.76532,0-111.4093.92383-112.48312.93311l-150.78337,2.14307.08329-19.92773,136.52676-1.93994,88.40364-.92139c.20032-.00293,20.16681-.31641,31.60159-.31641M319.17116,739.28167c-11.59372,0-31.65344.31738-31.65344.31738l-88.38596.9209-139.75468,1.98584-.11068,26.47998,154.11935-2.19043s105.60748-.93311,112.43658-.93311c.14734,0,.2486.00049.30191.00146.06476.00098.13153.00146.19894.00146,7.93509,0,34.05231-7.37842,34.18393-13.89697.10736-5.33398-28.42783-12.26123-34.0289-12.58789-1.21951-.0708-3.89792-.09863-7.30707-.09863h0Z"/>
    </g>
    <g>
      <path class="cls-9" d="M239.15639,742.16351l-.28418-10.08691,7.46289-.38867c5.78711,3.66602,12.14941,8.00488,14.86719,10.2627-3.08398.54297-9.3457,1.14648-14.86621,1.50195l-7.17969-1.28906Z"/>
      <path class="cls-3" d="M245.89776,733.35101c3.93768,2.50488,8.16626,5.33545,11.19312,7.51953-3.09897.35645-7.06454.7002-10.66153.93506l-5.67346-1.01807-.20117-7.15869,5.34305-.27783M246.76928,730.02581l-9.57867.49805.36584,13.01709,8.6861,1.55908s16.59808-1.05371,17.70929-2.29639c1.11151-1.24219-17.18256-12.77783-17.18256-12.77783h0Z"/>
    </g>
    <g>
      <path class="cls-9" d="M47.68618,746.36566l3.38965-19.87598,23.39844.79688,48.7998,18.47168c-1.74365.28613-4.22119.43457-6.23584.55566-.89502.05371-1.82129.10938-2.76514.17578-6.25439.4375-47.58643,1.94336-50.31543,2.04297l-16.27148-2.16699Z"/>
      <path class="cls-3" d="M52.44954,728.17474l21.69859.73975,41.80674,15.82471c-.58902.03613-1.18874.07422-1.79562.1167-6.14052.42871-46.3736,1.89844-50.12302,2.03516l-14.45004-1.92432,2.86336-16.79199M49.70157,724.80365l-3.91538,22.96143,18.09225,2.40918s43.97078-1.59424,50.50896-2.05078c6.53789-.45654,12.23456-.4165,12.56544-2.72363l-52.15175-19.74072-25.09953-.85547h0Z"/>
    </g>
    <g>
      <path class="cls-9" d="M239.48061,774.85394l-.00391-10.17188,7.6582-2.08887c5.25977.36133,11.19727.96191,14.21875,1.50098-2.73242,2.33105-8.75488,6.86133-14.42969,10.93457l-7.44336-.1748Z"/>
      <path class="cls-3" d="M247.29873,764.24652c3.41504.23926,7.15704.58154,10.10532.93457-2.97949,2.32959-7.11923,5.41016-10.99094,8.19775l-5.2952-.12451-.0022-7.32129,6.18301-1.68652M246.971,760.94085l-9.13159,2.49072.00391,13.02197,9.58917.22559s16.70197-11.95605,16.81244-13.26123c.11044-1.30469-17.27393-2.47705-17.27393-2.47705h0Z"/>
    </g>
    <g>
      <path class="cls-9" d="M48.48794,764.8637l16.20264-2.62891c2.73096.02148,44.08936.35449,50.354.61328.94287.03906,1.86865.06738,2.76367.0957,2.01855.06445,4.50146.14258,6.25391.37891l-48.25488,19.85156-23.3667,1.46191-3.95264-19.77246Z"/>
      <path class="cls-3" d="M64.81592,763.87396c3.75182.02979,44.01077.35596,50.16064.61035.60771.0249,1.20816.0459,1.79785.06543l-41.33976,17.00635-21.66862,1.35547-3.33929-16.70361,14.38918-2.33398M64.56495,760.59613l-18.01618,2.92236,4.56616,22.84082,25.06493-1.56787,51.56975-21.21484c-.39597-2.29688-6.08937-2.09473-12.63783-2.36523-6.54814-.27051-50.54682-.61523-50.54682-.61523h0Z"/>
    </g>
    <line class="cls-6" x1="96.53599" y1="755.31134" x2="59.61753" y2="755.83607"/>
  </g>
  <g>
    <g>
      <path class="cls-9" d="M857.55483,344.52386l138.14746-1.96387,88.37988-.9209c.20898-.00293,20.18848-.31738,31.63574-.31738,3.69531,0,6.12207.03223,7.21289.0957,2.35449.1377,10.25293,1.7207,18.37207,4.22363,11.26074,3.47168,14.00684,6.02246,14.11523,6.71191-.02539,1.20703-2.80664,4.24316-13.0752,7.86621-7.8252,2.76074-16.04492,4.41113-19.47168,4.41113l-.50098-.00293c-6.75879,0-111.39551.92285-112.45215.93262l-152.45996,2.16699.09668-23.20312Z"/>
      <path class="cls-3" d="M1115.70632,342.95941h0c4.57153,0,6.40015.05078,7.12878.09326,2.052.11963,9.19409,1.5332,16.74023,3.77686,8.64954,2.57129,12.61914,4.68359,13.92664,5.76025-.97156,1.11719-4.34302,3.59277-12.68713,6.4248-7.61121,2.58301-14.92603,3.97705-17.94446,3.97705l-.14526-.00098c-.06226-.00146-.17969-.00195-.35034-.00195-6.71826,0-111.41382.92432-112.48816.93359l-150.78345,2.14307.08331-19.92773,136.52673-1.94043,88.40375-.92139c.2002-.00293,20.15283-.31641,31.58936-.31641M1115.70632,339.68402c-11.59546,0-31.64124.31689-31.64124.31689l-88.38605.9209-139.75464,1.98633-.11066,26.47998,154.11938-2.19043s105.66016-.93359,112.44165-.93359c.14453,0,.24402.00049.29675.00146.0647.00098.13147.00146.19885.00146,7.9353,0,34.05249-7.37842,34.18408-13.89648.1073-5.33398-28.42786-12.26172-34.02893-12.58789-1.22083-.07129-3.90479-.09863-7.31921-.09863h0Z"/>
    </g>
    <g>
      <path class="cls-9" d="M1035.70327,342.56585l-.28418-10.08691,7.46289-.38867c5.78711,3.66602,12.14941,8.00488,14.86719,10.2627-3.08301.54297-9.34473,1.14648-14.86523,1.50195l-7.18066-1.28906Z"/>
      <path class="cls-3" d="M1042.44497,333.75335c3.93726,2.50439,8.16589,5.33545,11.19275,7.51904-3.09888.35645-7.06433.7002-10.66113.93506l-5.67334-1.01807-.20117-7.15869,5.3429-.27734M1043.31655,330.42816l-9.57861.49756.36584,13.01709,8.68604,1.55908s16.59814-1.05371,17.70935-2.2959c1.11145-1.24219-17.18262-12.77783-17.18262-12.77783h0Z"/>
    </g>
    <g>
      <path class="cls-9" d="M844.23354,346.768l3.38965-19.87695,23.39941.79785,48.79883,18.47168c-1.74414.28613-4.2207.43457-6.23535.55566-.89551.05371-1.82227.10938-2.76562.17578-6.25488.43652-47.58594,1.94336-50.31543,2.04297l-16.27148-2.16699Z"/>
      <path class="cls-3" d="M848.99685,328.57708l21.69861.73926,41.80756,15.8252c-.58936.03613-1.18939.07422-1.79645.1167-6.14056.42871-46.3736,1.89844-50.12305,2.03516l-14.45007-1.92432,2.8634-16.79199M846.24886,325.20599l-3.91541,22.96143,18.09229,2.40918s43.97076-1.59424,50.50897-2.05078c6.53784-.45703,12.23456-.4165,12.56543-2.72412l-52.15173-19.74072-25.09955-.85498h0Z"/>
    </g>
    <g>
      <path class="cls-9" d="M1036.02846,375.25628l-.00391-10.17188,7.6582-2.08887c5.25977.36133,11.19629.96191,14.21777,1.50098-2.73242,2.33105-8.75488,6.86133-14.42969,10.93457l-7.44238-.1748Z"/>
      <path class="cls-3" d="M1043.84597,364.64886c3.41492.23926,7.15723.58154,10.10547.93457-2.97949,2.3291-7.11938,5.41016-10.99109,8.19727l-5.29517-.12451-.0022-7.32129,6.18298-1.68604M1043.51833,361.3432l-9.13159,2.49023.00391,13.02246,9.58911.2251s16.70203-11.95557,16.8125-13.26074-17.27393-2.47705-17.27393-2.47705h0Z"/>
    </g>
    <g>
      <path class="cls-9" d="M845.0353,365.26507l16.20312-2.62793c2.73047.02148,44.08789.35449,50.35352.61328.94336.03906,1.86816.06738,2.76367.0957,2.01855.06445,4.50098.14258,6.25391.37891l-48.25586,19.85156-23.36621,1.46094-3.95215-19.77246Z"/>
      <path class="cls-3" d="M861.36324,364.2763c3.75183.02979,44.01068.35547,50.16064.60986.60803.0249,1.20874.0459,1.79871.06543l-41.34058,17.00635-21.6687,1.35596-3.33923-16.70361,14.38916-2.33398M861.11226,360.99847l-18.01617,2.92236,4.56616,22.84082,25.06494-1.56836,51.5697-21.21436c-.39594-2.29736-6.08936-2.09521-12.63782-2.36572-6.54816-.27051-50.54681-.61475-50.54681-.61475h0Z"/>
    </g>
    <line class="cls-6" x1="893.08329" y1="355.71349" x2="856.16484" y2="356.23821"/>
  </g>
  <g>
    <g>
      <path class="cls-9" d="M857.55483,444.78851l138.14746-1.96387,88.37988-.9209c.20898-.00293,20.18848-.31738,31.63574-.31738,3.69531,0,6.12207.03223,7.21289.0957,2.35547.1377,10.25488,1.72168,18.37305,4.22461,11.26074,3.47168,14.00684,6.02246,14.11426,6.71191-.02539,1.20703-2.80664,4.24316-13.07324,7.86621-7.8252,2.76074-16.04492,4.41016-19.47168,4.41016-.00098,0-.50293-.00293-.50293-.00293-6.75879,0-111.39551.92285-112.45215.93262l-152.45996,2.16699.09668-23.20312Z"/>
      <path class="cls-3" d="M1115.70583,443.22454c4.57202,0,6.40027.05078,7.12927.09326,2.052.11963,9.19409,1.5332,16.74023,3.77686,8.64954,2.57129,12.61914,4.68359,13.92664,5.76025-.97156,1.11719-4.34326,3.59326-12.68811,6.42529-7.61157,2.58301-14.92627,3.97705-17.94421,3.97705l-.14233-.00098c-.06311-.00146-.18323-.00195-.35767-.00195-6.76538,0-111.40918.92383-112.48303.93311l-150.78345,2.14307.08331-19.92773,136.52673-1.93994,88.40363-.92188c.20032-.00293,20.1521-.31641,31.58899-.31641M1115.70583,439.94915c-11.59583,0-31.64075.31689-31.64075.31689l-88.38605.92139-139.75464,1.98584-.11066,26.47998,154.11938-2.19043s105.60742-.93311,112.43652-.93311c.14734,0,.24854.00049.30188.00146.06421.00098.13123.00146.19812.00146,7.93347,0,34.05322-7.37891,34.18481-13.89697.1073-5.33398-28.42786-12.26172-34.02893-12.58789-1.22107-.07129-3.90405-.09863-7.3197-.09863h0Z"/>
    </g>
    <g>
      <path class="cls-9" d="M1035.70327,442.83148l-.28418-10.08789,7.46289-.38867c5.78711,3.66602,12.14941,8.00488,14.86719,10.2627-3.08398.54297-9.34473,1.14648-14.86523,1.50195l-7.18066-1.28809Z"/>
      <path class="cls-3" d="M1042.44497,434.01849c3.93774,2.50488,8.16602,5.33545,11.19287,7.51953-3.09851.35645-7.0647.7002-10.66113.93506l-5.67346-1.01855-.20117-7.15869,5.3429-.27734M1043.31655,430.69329l-9.57861.49756.36584,13.01709,8.68604,1.55957s16.59814-1.0542,17.70935-2.29639c1.11145-1.24219-17.18262-12.77783-17.18262-12.77783h0Z"/>
    </g>
    <g>
      <path class="cls-9" d="M844.23354,447.03363l3.38965-19.87695,23.39941.79785,48.7998,18.47168c-1.74609.28613-4.22754.43457-6.24512.55566-.89258.05371-1.81641.10938-2.75684.1748-6.25488.4375-47.58594,1.94434-50.31543,2.04395l-16.27148-2.16699Z"/>
      <path class="cls-3" d="M848.99685,428.84222l21.69855.73975,41.80737,15.82471c-.58929.03613-1.18921.07422-1.7962.1167-6.14056.42871-46.3736,1.89844-50.12305,2.03516l-14.45007-1.92432,2.8634-16.79199M846.24886,425.47113l-3.91541,22.96143,18.09229,2.40918s43.97076-1.59424,50.50897-2.05078c6.53784-.45703,12.23456-.4165,12.56543-2.72412l-52.15173-19.74023-25.09955-.85547h0Z"/>
    </g>
    <g>
      <path class="cls-9" d="M1036.02846,475.52093l-.00391-10.1709,7.6582-2.08887c5.25879.36133,11.19629.96191,14.2168,1.50098-2.73242,2.33105-8.75488,6.86133-14.42871,10.93359l-7.44238-.1748Z"/>
      <path class="cls-3" d="M1043.84597,464.914c3.41492.23926,7.15723.58154,10.10547.93457-2.97949,2.3291-7.11938,5.41016-10.99109,8.19727l-5.29517-.12451-.0022-7.32129,6.18298-1.68604M1043.51833,461.60833l-9.13159,2.49023.00391,13.02246,9.58911.2251s16.70203-11.95557,16.8125-13.26074-17.27393-2.47705-17.27393-2.47705h0Z"/>
    </g>
    <g>
      <path class="cls-9" d="M845.0353,465.5307l16.20312-2.62891c2.73047.02148,44.08789.35449,50.35352.61328.94336.03906,1.86816.06738,2.76367.0957,2.01855.06445,4.50098.14258,6.25391.37891l-48.25586,19.85156-23.36621,1.46191-3.95215-19.77246Z"/>
      <path class="cls-3" d="M861.36324,464.54144c3.75183.02979,44.01068.35547,50.16064.60986.60803.0249,1.20874.0459,1.79871.06543l-41.34058,17.00635-21.6687,1.35596-3.33923-16.70361,14.38916-2.33398M861.11226,461.26361l-18.01617,2.92236,4.56616,22.84082,25.06494-1.56836,51.5697-21.21436c-.39594-2.29736-6.08936-2.09521-12.63782-2.36572-6.54816-.27051-50.54681-.61475-50.54681-.61475h0Z"/>
    </g>
    <line class="cls-6" x1="893.08329" y1="455.97867" x2="856.16484" y2="456.5034"/>
  </g>
  <g>
    <g>
      <path class="cls-9" d="M857.55483,544.11566l138.14746-1.96387,88.37988-.9209c.20898-.00293,20.18848-.31738,31.63574-.31738,3.69531,0,6.12207.03223,7.21289.0957,2.35547.1377,10.25391,1.7207,18.37207,4.22363,11.26074,3.47168,14.00684,6.02246,14.11523,6.71191-.02539,1.20801-2.80664,4.24414-13.07324,7.86621-7.8252,2.76074-16.04492,4.41113-19.47168,4.41113-.00098,0-.50293-.00293-.50293-.00293-6.75879,0-111.39551.92285-112.45215.93262l-152.45996,2.16699.09668-23.20312Z"/>
      <path class="cls-3" d="M1115.70583,542.55169c4.57202,0,6.40027.05078,7.12927.09326,2.052.11963,9.19409,1.5332,16.74023,3.77686,8.64954,2.57129,12.61914,4.68359,13.92664,5.76025-.97156,1.11719-4.34302,3.59277-12.68713,6.4248-7.61121,2.58301-14.92603,3.97705-17.94446,3.97705l-.14526-.00098c-.06226-.00146-.17969-.00195-.35034-.00195-6.71826,0-111.41382.92432-112.48816.93359l-150.78345,2.14307.08331-19.92773,136.52673-1.94043,88.40363-.92139c.20032-.00293,20.1521-.31641,31.58899-.31641M1115.70583,539.2763c-11.59583,0-31.64075.31689-31.64075.31689l-88.38605.9209-139.75464,1.98633-.11066,26.47998,154.11938-2.19043s105.66016-.93359,112.44165-.93359c.14453,0,.24402.00049.29675.00146.0647.00098.13147.00146.19885.00146,7.9353,0,34.05249-7.37842,34.18408-13.89648.1073-5.33398-28.42786-12.26172-34.02893-12.58789-1.22107-.07129-3.90405-.09863-7.3197-.09863h0Z"/>
    </g>
    <g>
      <path class="cls-9" d="M1035.70327,542.15863l-.28418-10.08789,7.46289-.38867c5.78711,3.66602,12.14941,8.00488,14.86719,10.2627-3.08398.54297-9.34473,1.14648-14.86523,1.50195l-7.18066-1.28809Z"/>
      <path class="cls-3" d="M1042.44497,533.34564c3.93726,2.50439,8.16589,5.33545,11.19275,7.51904-3.09888.35645-7.06433.7002-10.66113.93506l-5.67334-1.01807-.20117-7.15869,5.3429-.27734M1043.31655,530.02044l-9.57861.49756.36584,13.01709,8.68604,1.55908s16.59814-1.05371,17.70935-2.2959c1.11145-1.24219-17.18262-12.77783-17.18262-12.77783h0Z"/>
    </g>
    <g>
      <path class="cls-9" d="M844.23354,546.3598l3.38965-19.87598,23.39941.79785,48.7998,18.47168c-1.74609.28613-4.22754.43457-6.24512.55566-.89258.05371-1.81641.10938-2.75684.1748-6.25488.4375-47.58594,1.94434-50.31543,2.04395l-16.27148-2.16797Z"/>
      <path class="cls-3" d="M848.99685,528.16937l21.69861.73926,41.80756,15.8252c-.58936.03613-1.18939.07422-1.79645.1167-6.14056.42871-46.3736,1.89844-50.12305,2.03516l-14.45007-1.92432,2.8634-16.79199M846.24886,524.79827l-3.91541,22.96143,18.09229,2.40918s43.97076-1.59424,50.50897-2.05078c6.53784-.45703,12.23456-.4165,12.56543-2.72412l-52.15173-19.74072-25.09955-.85498h0Z"/>
    </g>
    <g>
      <path class="cls-9" d="M1036.02846,574.84808l-.00391-10.1709,7.6582-2.08887c5.25879.36133,11.19629.96191,14.2168,1.50098-2.73242,2.33105-8.75488,6.86133-14.42871,10.93359l-7.44238-.1748Z"/>
      <path class="cls-3" d="M1043.84597,564.24115c3.41492.23926,7.15723.58154,10.10547.93457-2.97949,2.3291-7.11938,5.41016-10.99109,8.19727l-5.29517-.12451-.0022-7.32129,6.18298-1.68604M1043.51833,560.93548l-9.13159,2.49023.00391,13.02246,9.58911.2251s16.70203-11.95557,16.8125-13.26074-17.27393-2.47705-17.27393-2.47705h0Z"/>
    </g>
    <g>
      <path class="cls-9" d="M845.0353,564.85785l16.20312-2.62891c2.73047.02148,44.08789.35449,50.35352.61328.94336.03906,1.86816.06738,2.76367.0957,2.01855.06445,4.50098.14258,6.25391.37891l-48.25586,19.85156-23.36621,1.46191-3.95215-19.77246Z"/>
      <path class="cls-3" d="M861.36324,563.86859c3.75183.02979,44.01068.35547,50.16064.60986.60803.0249,1.20874.0459,1.79871.06543l-41.34058,17.00635-21.6687,1.35596-3.33923-16.70361,14.38916-2.33398M861.11226,560.59076l-18.01617,2.92236,4.56616,22.84082,25.06494-1.56836,51.5697-21.21436c-.39594-2.29736-6.08936-2.09521-12.63782-2.36572-6.54816-.27051-50.54681-.61475-50.54681-.61475h0Z"/>
    </g>
    <line class="cls-6" x1="893.08329" y1="555.30577" x2="856.16484" y2="555.8305"/>
  </g>
  <g>
    <g>
      <path class="cls-9" d="M1731.12514,729.3891l-3.36523-236.74512-1.57812-151.45703c-.00977-.58984-.90234-57.58594-.37891-66.5752.23535-4.03613,2.94727-17.57031,7.2373-31.48438,5.9502-19.29883,10.32129-24.00391,11.50293-24.18945,2.09082.04395,7.3418,4.87891,13.59375,22.72949,4.77832,13.64355,7.53613,27.66699,7.44238,33.3418-.07129,4.31348,1.52832,185.55957,1.59668,193.27246l3.71387,261.27344-39.76465-.16602Z"/>
      <path class="cls-3" d="M1744.949,222.22064c1.93213,1.67822,6.22363,7.53467,11.11914,22.06445,4.30334,12.77197,6.78845,25.62793,6.70483,30.67773-.07202,4.34863,1.52808,185.62891,1.59668,193.37402l3.67224,258.39941-34.15015-.14307-3.32507-233.96729-1.57886-151.49854c-.00903-.57373-.901-57.46533-.3833-66.35156.20496-3.51709,2.62781-15.75732,6.47241-28.68848,4.40723-14.82373,8.02722-21.62646,9.87207-23.8667M1744.52163,216.13275c-9.1344,0-20.96252,48.73535-21.52087,58.31641-.53589,9.19678.37451,66.76709.37451,66.76709l1.57837,151.46826,3.40369,239.49902,45.37866.18994-3.75354-264.11621s-1.66858-188.87402-1.59692-193.20166c.21814-13.17432-12.54749-58.69482-23.8125-58.92236-.01672-.00049-.03467-.00049-.05139-.00049h0Z"/>
    </g>
    <g>
      <path class="cls-9" d="M1709.81948,411.79242c6.28125-9.91797,13.7168-20.81934,17.58594-25.47754.93066,5.28516,1.96582,16.01367,2.5752,25.47363l-2.20898,12.30566-17.28809.48535-.66406-12.78711ZM1729.54604,384.11566"/>
      <path class="cls-3" d="M1725.55434,393.35931c.61108,5.31104,1.2002,12.10645,1.60254,18.27051l-1.74524,9.72266-12.26733.34473-.47595-9.15625c4.29236-6.74805,9.14319-13.99414,12.88599-19.18164M1728.63418,381.518c-3.04395,0-21.66431,29.5293-21.66431,29.5293l.85315,16.41504,22.3075-.62695,2.672-14.88525s-1.80579-28.44434-3.93506-30.34863c-.06274-.05615-.14087-.0835-.23328-.0835h0Z"/>
    </g>
    <g>
      <path class="cls-9" d="M1700.90932,746.41058l1.36621-40.09961,31.64941-83.6123c.50098,3.05762.76172,7.39355.95898,10.67773.0918,1.53223.1875,3.11621.2998,4.73047.74902,10.71973,3.33203,81.5498,3.50195,86.22754l-3.71289,27.88477-34.06348-5.80859Z"/>
      <path class="cls-3" d="M1732.18422,635.22503c.06201,1.00977.12744,2.0376.20007,3.07812.73486,10.52246,3.25366,79.4707,3.48755,85.896l-3.29749,24.76318-28.77661-4.90723,1.26709-37.18457,27.11938-71.64551M1733.31618,616.37835l-33.82983,89.37305-1.4657,43.01318,39.34937,6.70996,4.12878-31.00488s-2.7323-75.35352-3.51477-86.55762c-.78259-11.2041-.71338-20.9668-4.66785-21.53369h0Z"/>
    </g>
    <g>
      <path class="cls-9" d="M1762.78139,410.42035c.62012-9.01367,1.64746-19.1875,2.57227-24.36523,3.99414,4.68262,11.75879,15.00293,18.73828,24.72754l-.2998,12.75586-17.43066.00488-3.58008-13.12305Z"/>
      <path class="cls-3" d="M1767.21621,392.82269c3.99182,5.10596,9.271,12.19971,14.04761,18.83496l-.21326,9.07422-12.54602.00391-2.88977-10.5957c.40991-5.85254.99634-12.26514,1.60144-17.31738M1764.17299,381.09808c-2.22766.00098-4.22339,29.60352-4.22339,29.60352l4.26782,15.64893,22.31616-.00684.38623-16.43311s-20.48889-28.62207-22.72559-28.81152c-.00708-.00049-.01416-.00098-.02124-.00098h0Z"/>
    </g>
    <g>
      <path class="cls-9" d="M1762.16713,723.07855c.03711-4.68066.60645-75.55664,1.0498-86.29297.06641-1.61621.11621-3.20312.16504-4.7373.10352-3.28906.24121-7.62988.65527-10.7002l34.0127,82.67871,2.50488,40.04395-33.88281,6.77344-4.50488-27.76562Z"/>
      <path class="cls-3" d="M1766.13357,633.81976l29.14404,70.8457,2.32324,37.13428-28.62524,5.72217-4-24.65869c.05127-6.42969.61011-75.42188,1.04541-85.96143.04309-1.0415.07922-2.0708.11255-3.08203M1764.46645,615.01263c-3.93689.67871-3.59033,10.43555-4.05396,21.65771-.4635,11.22168-1.05383,86.62305-1.05383,86.62305l5.00818,30.87451,39.14258-7.8252-2.68738-42.9541-36.35559-88.37598h0Z"/>
    </g>
    <line class="cls-7" x1="1750.30192" y1="668.50399" x2="1751.20115" y2="731.77161"/>
  </g>
  <g>
    <line class="cls-2" x1="423.68081" y1="504.9675" x2="772.67173" y2="504.9675"/>
    <polyline class="cls-2" points="730.92184 463.37061 772.70184 504.96404 731.45316 546.04046"/>
  </g>
  <g>
    <rect class="cls-1" x="422.62901" y="366.96634" width="368.9141" height="93.43255"/>
    <path class="cls-8" d="M425.20163,402.88099v-34.04492h10.96582c3.00879,0,5.71289.68262,8.11426,2.04688,2.39941,1.36328,4.27441,3.28906,5.62305,5.77539,1.34766,2.48633,2.03027,5.27246,2.0459,8.3584v1.56641c0,3.11816-.65918,5.91211-1.97559,8.38281-1.31738,2.4707-3.17285,4.4043-5.56543,5.79883-2.39258,1.39551-5.0625,2.10059-8.00781,2.11621h-11.2002ZM433.40866,375.17298v21.39453h2.85254c2.35352,0,4.16211-.83789,5.4248-2.51367,1.2627-1.6748,1.89355-4.16504,1.89355-7.4707v-1.47266c0-3.28906-.63086-5.76758-1.89355-7.43555s-3.10254-2.50195-5.51855-2.50195h-2.75879Z"/>
    <path class="cls-8" d="M455.73874,371.03431c0-1.12891.40527-2.05371,1.21582-2.77539s1.8623-1.08203,3.15625-1.08203,2.3457.36035,3.15723,1.08203c.80957.72168,1.21582,1.64648,1.21582,2.77539,0,1.12988-.40625,2.05469-1.21582,2.77637-.81152.72168-1.86328,1.08203-3.15723,1.08203s-2.3457-.36035-3.15625-1.08203-1.21582-1.64648-1.21582-2.77637ZM464.10983,402.88099h-7.90332v-25.2998h7.90332v25.2998Z"/>
    <path class="cls-8" d="M482.20749,395.77259c0-.66992-.35156-1.20801-1.05273-1.61328s-2.03418-.82617-3.99805-1.2627-3.58594-1.00879-4.86328-1.71875c-1.27832-.70898-2.25293-1.57031-2.92285-2.58301-.6709-1.01367-1.00586-2.1748-1.00586-3.48438,0-2.32227.95898-4.23535,2.87598-5.74023,1.91699-1.50391,4.42676-2.25684,7.5293-2.25684,3.33594,0,6.0166.75684,8.04297,2.26855s3.04004,3.5,3.04004,5.96191h-7.90332c0-2.02539-1.06738-3.03906-3.20312-3.03906-.82617,0-1.51953.23047-2.08105.68945-.56152.45996-.8418,1.0332-.8418,1.71875,0,.70117.34277,1.27051,1.0293,1.70703.68555.43652,1.78027.79492,3.28516,1.0752,1.50391.28125,2.8252.61621,3.96289,1.00586,3.80273,1.30957,5.70508,3.65527,5.70508,7.03809,0,2.30664-1.02539,4.18555-3.07422,5.63477-2.05078,1.4502-4.7041,2.1748-7.96191,2.1748-2.16699,0-4.09961-.38965-5.79883-1.16895s-3.02441-1.83984-3.97461-3.18066c-.95117-1.33984-1.42676-2.75098-1.42676-4.23145h7.36523c.03125,1.16895.4209,2.02246,1.16895,2.55957.74902.53809,1.70703.80762,2.87598.80762,1.07617,0,1.88281-.21875,2.4209-.65527.53711-.43652.80664-1.00488.80664-1.70703Z"/>
    <path class="cls-8" d="M507.74069,402.88099c-.28027-.51465-.53027-1.27051-.74805-2.26855-1.4502,1.82422-3.47656,2.73633-6.0791,2.73633-2.38574,0-4.41211-.7207-6.08008-2.16309-1.66797-1.44141-2.50195-3.25391-2.50195-5.43652,0-2.74316,1.01367-4.81641,3.04004-6.21973,2.02637-1.40234,4.97266-2.10449,8.83887-2.10449h2.43164v-1.33887c0-2.33398-1.00586-3.50098-3.0166-3.50098-1.87012,0-2.80566.9248-2.80566,2.77246h-7.87988c0-2.44336,1.04004-4.42871,3.12109-5.95508,2.08105-1.52539,4.73535-2.28906,7.96191-2.28906s5.77539.78809,7.64648,2.3623c1.87012,1.57422,2.8291,3.7334,2.87598,6.47656v11.2002c.03027,2.32324.38867,4.09961,1.0752,5.33105v.39746h-7.87988ZM502.8071,397.73646c.98242,0,1.79688-.20996,2.44336-.63086s1.11035-.89648,1.3916-1.42676v-4.04492h-2.29199c-2.74316,0-4.11523,1.23145-4.11523,3.69434,0,.71777.24219,1.29785.72559,1.74219.48242.44434,1.09863.66602,1.84668.66602Z"/>
    <path class="cls-8" d="M534.20944,384.71302l-2.5957-.1875c-2.47852,0-4.06836.78027-4.77051,2.33887v16.0166h-7.87891v-25.2998h7.38867l.25684,3.25c1.3252-2.47852,3.17188-3.71777,5.54199-3.71777.8418,0,1.57422.09375,2.19727.28125l-.13965,7.31836Z"/>
    <path class="cls-8" d="M544.49753,377.58118l.25684,2.96973c1.79199-2.29102,4.20117-3.4375,7.22461-3.4375,3.19531,0,5.35449,1.27148,6.47754,3.81152,1.71387-2.54004,4.19238-3.81152,7.43555-3.81152,5.12793,0,7.7627,3.10254,7.90332,9.30664v16.46094h-7.90332v-15.96973c0-1.29395-.21875-2.2373-.65527-2.8291-.43652-.59277-1.23145-.88867-2.38477-.88867-1.55859,0-2.7207.69336-3.4834,2.08105l.02344.32715v17.2793h-7.90332v-15.92285c0-1.3252-.21094-2.28418-.63184-2.87598-.4209-.59277-1.22363-.88867-2.4082-.88867-1.51172,0-2.66602.69336-3.46094,2.08105v17.60645h-7.87891v-25.2998h7.38867Z"/>
    <path class="cls-8" d="M592.54733,402.88099c-.28027-.51465-.53027-1.27051-.74805-2.26855-1.4502,1.82422-3.47656,2.73633-6.0791,2.73633-2.38574,0-4.41211-.7207-6.08008-2.16309-1.66797-1.44141-2.50195-3.25391-2.50195-5.43652,0-2.74316,1.01367-4.81641,3.04004-6.21973,2.02637-1.40234,4.97266-2.10449,8.83887-2.10449h2.43164v-1.33887c0-2.33398-1.00586-3.50098-3.0166-3.50098-1.87012,0-2.80566.9248-2.80566,2.77246h-7.87988c0-2.44336,1.04004-4.42871,3.12109-5.95508,2.08105-1.52539,4.73535-2.28906,7.96191-2.28906s5.77539.78809,7.64648,2.3623c1.87012,1.57422,2.8291,3.7334,2.87598,6.47656v11.2002c.03027,2.32324.38867,4.09961,1.0752,5.33105v.39746h-7.87988ZM587.61374,397.73646c.98242,0,1.79688-.20996,2.44336-.63086s1.11035-.89648,1.3916-1.42676v-4.04492h-2.29199c-2.74316,0-4.11523,1.23145-4.11523,3.69434,0,.71777.24219,1.29785.72559,1.74219.48242.44434,1.09863.66602,1.84668.66602Z"/>
    <path class="cls-8" d="M611.15964,377.58118l.25684,2.96973c1.79199-2.29102,4.20117-3.4375,7.22461-3.4375,3.19531,0,5.35449,1.27148,6.47754,3.81152,1.71387-2.54004,4.19238-3.81152,7.43555-3.81152,5.12793,0,7.7627,3.10254,7.90332,9.30664v16.46094h-7.90332v-15.96973c0-1.29395-.21875-2.2373-.65527-2.8291-.43652-.59277-1.23145-.88867-2.38477-.88867-1.55859,0-2.7207.69336-3.4834,2.08105l.02344.32715v17.2793h-7.90332v-15.92285c0-1.3252-.21094-2.28418-.63184-2.87598-.4209-.59277-1.22363-.88867-2.4082-.88867-1.51172,0-2.66602.69336-3.46094,2.08105v17.60645h-7.87891v-25.2998h7.38867Z"/>
    <path class="cls-8" d="M657.1987,403.34876c-3.88184,0-7.02246-1.15723-9.42285-3.47266-2.40039-2.31445-3.60059-5.32715-3.60059-9.03711v-.6543c0-2.58789.47852-4.87109,1.4375-6.85156.95898-1.97949,2.35742-3.51074,4.19727-4.59473,1.83887-1.08301,4.02148-1.625,6.54688-1.625,3.55371,0,6.36035,1.10352,8.41797,3.30859,2.05762,2.20605,3.08594,5.28125,3.08594,9.22461v3.06348h-15.66602c.28027,1.41797.89648,2.5332,1.84766,3.34375.9502.81055,2.18164,1.21582,3.69434,1.21582,2.49316,0,4.44238-.87305,5.8457-2.61914l3.60059,4.25586c-.98242,1.35547-2.37305,2.43555-4.17383,3.23828s-3.7373,1.2041-5.81055,1.2041ZM656.31003,383.19349c-2.30664,0-3.67871,1.52734-4.11523,4.58301h7.9502v-.6084c.03125-1.2627-.28906-2.24023-.95898-2.93457-.66992-.69336-1.62891-1.04004-2.87598-1.04004Z"/>
    <path class="cls-8" d="M678.26608,377.58118l.25684,2.96973c1.74609-2.29102,4.1543-3.4375,7.22559-3.4375,2.63379,0,4.60254.78809,5.9043,2.3623,1.30078,1.57422,1.97559,3.94336,2.02246,7.10742v16.29785h-7.90332v-15.96973c0-1.27832-.25684-2.21777-.77148-2.81738-.51465-.60059-1.4502-.90039-2.80566-.90039-1.54395,0-2.68945.60742-3.4375,1.82324v17.86426h-7.87988v-25.2998h7.38867Z"/>
    <path class="cls-8" d="M707.21335,371.29212v6.28906h4.16211v5.47168h-4.16211v11.57422c0,.95117.17188,1.61328.51465,1.9873s1.02051.56152,2.03418.56152c.7793,0,1.43457-.04688,1.96387-.14062v5.63574c-1.41797.45117-2.89941.67773-4.44238.67773-2.71191,0-4.71484-.63867-6.00879-1.91699s-1.94043-3.21875-1.94043-5.82227v-12.55664h-3.22754v-5.47168h3.22754v-6.28906h7.87891Z"/>
    <path class="cls-8" d="M740.64987,402.88099c-.28027-.51465-.53027-1.27051-.74805-2.26855-1.4502,1.82422-3.47656,2.73633-6.0791,2.73633-2.38574,0-4.41211-.7207-6.08008-2.16309-1.66797-1.44141-2.50195-3.25391-2.50195-5.43652,0-2.74316,1.01367-4.81641,3.04004-6.21973,2.02637-1.40234,4.97266-2.10449,8.83887-2.10449h2.43164v-1.33887c0-2.33398-1.00586-3.50098-3.0166-3.50098-1.87012,0-2.80566.9248-2.80566,2.77246h-7.87988c0-2.44336,1.04004-4.42871,3.12109-5.95508,2.08105-1.52539,4.73535-2.28906,7.96191-2.28906s5.77539.78809,7.64648,2.3623c1.87012,1.57422,2.8291,3.7334,2.87598,6.47656v11.2002c.03027,2.32324.38867,4.09961,1.0752,5.33105v.39746h-7.87988ZM735.71628,397.73646c.98242,0,1.79688-.20996,2.44336-.63086s1.11035-.89648,1.3916-1.42676v-4.04492h-2.29199c-2.74316,0-4.11523,1.23145-4.11523,3.69434,0,.71777.24219,1.29785.72559,1.74219.48242.44434,1.09863.66602,1.84668.66602Z"/>
    <path class="cls-8" d="M765.061,395.77259c0-.66992-.35156-1.20801-1.05273-1.61328s-2.03418-.82617-3.99805-1.2627-3.58594-1.00879-4.86328-1.71875c-1.27832-.70898-2.25293-1.57031-2.92285-2.58301-.6709-1.01367-1.00586-2.1748-1.00586-3.48438,0-2.32227.95898-4.23535,2.87598-5.74023,1.91699-1.50391,4.42676-2.25684,7.5293-2.25684,3.33594,0,6.0166.75684,8.04297,2.26855s3.04004,3.5,3.04004,5.96191h-7.90332c0-2.02539-1.06738-3.03906-3.20312-3.03906-.82617,0-1.51953.23047-2.08105.68945-.56152.45996-.8418,1.0332-.8418,1.71875,0,.70117.34277,1.27051,1.0293,1.70703.68555.43652,1.78027.79492,3.28516,1.0752,1.50391.28125,2.8252.61621,3.96289,1.00586,3.80273,1.30957,5.70508,3.65527,5.70508,7.03809,0,2.30664-1.02539,4.18555-3.07422,5.63477-2.05078,1.4502-4.7041,2.1748-7.96191,2.1748-2.16699,0-4.09961-.38965-5.79883-1.16895s-3.02441-1.83984-3.97461-3.18066c-.95117-1.33984-1.42676-2.75098-1.42676-4.23145h7.36523c.03125,1.16895.4209,2.02246,1.16895,2.55957.74902.53809,1.70703.80762,2.87598.80762,1.07617,0,1.88281-.21875,2.4209-.65527.53711-.43652.80664-1.00488.80664-1.70703Z"/>
    <path class="cls-8" d="M439.0903,460.34485c-.28027-.51465-.53027-1.27051-.74805-2.26855-1.4502,1.82422-3.47656,2.73633-6.0791,2.73633-2.38574,0-4.41211-.7207-6.08008-2.16309-1.66797-1.44141-2.50195-3.25391-2.50195-5.43652,0-2.74316,1.01367-4.81641,3.04004-6.21973,2.02637-1.40234,4.97266-2.10449,8.83887-2.10449h2.43164v-1.33887c0-2.33398-1.00586-3.50098-3.0166-3.50098-1.87012,0-2.80566.9248-2.80566,2.77246h-7.87988c0-2.44336,1.04004-4.42871,3.12109-5.95508,2.08105-1.52539,4.73535-2.28906,7.96191-2.28906s5.77539.78809,7.64648,2.3623c1.87012,1.57422,2.8291,3.7334,2.87598,6.47656v11.2002c.03027,2.32324.38867,4.09961,1.0752,5.33105v.39746h-7.87988ZM434.15671,455.20032c.98242,0,1.79688-.20996,2.44336-.63086s1.11035-.89648,1.3916-1.42676v-4.04492h-2.29199c-2.74316,0-4.11523,1.23145-4.11523,3.69434,0,.71777.24219,1.29785.72559,1.74219.48242.44434,1.09863.66602,1.84668.66602Z"/>
    <path class="cls-8" d="M485.66745,447.88196c0,3.92871-.88477,7.06543-2.6543,9.41113-1.76953,2.34668-4.1582,3.51953-7.16602,3.51953-2.32324,0-4.23242-.84961-5.72949-2.54883v11.80762h-7.87891v-35.02637h7.36523l.2334,2.33887c1.51172-1.87109,3.49902-2.80664,5.96289-2.80664,3.11719,0,5.54102,1.15039,7.27148,3.44922,1.73047,2.2998,2.5957,5.45996,2.5957,9.48145v.37402ZM477.78757,447.39075c0-4.48926-1.30957-6.7334-3.92871-6.7334-1.87012,0-3.11719.66992-3.74121,2.01074v9.96094c.68652,1.40234,1.94922,2.10449,3.78809,2.10449,2.50977,0,3.80371-2.16699,3.88184-6.50098v-.8418Z"/>
    <path class="cls-8" d="M504.44382,442.17689l-2.5957-.1875c-2.47852,0-4.06836.78027-4.77051,2.33887v16.0166h-7.87891v-25.2998h7.38867l.25684,3.25c1.3252-2.47852,3.17188-3.71777,5.54199-3.71777.8418,0,1.57422.09375,2.19727.28125l-.13965,7.31836Z"/>
    <path class="cls-8" d="M505.4487,447.46107c0-2.52539.49121-4.77344,1.47266-6.74512.98242-1.97266,2.39355-3.48828,4.23242-4.54785,1.83984-1.06055,3.99902-1.59082,6.47754-1.59082,3.78711,0,6.77246,1.17383,8.95508,3.51953,2.18164,2.3457,3.27344,5.53809,3.27344,9.5752v.28027c0,3.94434-1.0957,7.07324-3.28516,9.3877-2.19043,2.31543-5.15625,3.47266-8.89746,3.47266-3.60059,0-6.49219-1.0791-8.6748-3.23828s-3.35938-5.08594-3.53027-8.78027l-.02344-1.33301ZM513.32858,447.95228c0,2.33789.36621,4.05273,1.09863,5.14453.73242,1.09082,1.81641,1.63672,3.25,1.63672,2.80664,0,4.24023-2.15918,4.30273-6.47754v-.79492c0-4.53613-1.44922-6.80371-4.34863-6.80371-2.63477,0-4.06152,1.95605-4.2793,5.86816l-.02344,1.42676Z"/>
    <path class="cls-8" d="M544.02975,454.73353c1.10645,0,1.96387-.30078,2.57129-.90039.6084-.60059.9043-1.43848.88867-2.51367h7.38867c0,2.77441-.99316,5.05078-2.98047,6.82715-1.98828,1.77734-4.54785,2.66602-7.68164,2.66602-3.67871,0-6.57812-1.15332-8.69824-3.46094-2.12012-2.30664-3.17969-5.50195-3.17969-9.58691v-.32715c0-2.55566.47168-4.8125,1.41504-6.76855.94238-1.95605,2.30273-3.46094,4.08008-4.5127,1.77637-1.05273,3.88086-1.5791,6.3125-1.5791,3.28906,0,5.90039.91211,7.83301,2.73633,1.93359,1.82324,2.89941,4.29492,2.89941,7.41211h-7.38867c0-1.30957-.31934-2.31543-.95801-3.0166-.63965-.70117-1.49707-1.05176-2.57227-1.05176-2.04199,0-3.23535,1.30176-3.57715,3.9043-.10938.82617-.16406,1.96387-.16406,3.41406,0,2.54102.30371,4.30273.91211,5.28418.60742.98242,1.57422,1.47363,2.89941,1.47363Z"/>
    <path class="cls-8" d="M570.45163,460.81263c-3.88184,0-7.02246-1.15723-9.42285-3.47266-2.40039-2.31445-3.60059-5.32715-3.60059-9.03711v-.6543c0-2.58789.47852-4.87109,1.4375-6.85156.95898-1.97949,2.35742-3.51074,4.19727-4.59473,1.83887-1.08301,4.02148-1.625,6.54688-1.625,3.55371,0,6.36035,1.10352,8.41797,3.30859,2.05762,2.20605,3.08594,5.28125,3.08594,9.22461v3.06348h-15.66602c.28027,1.41797.89648,2.5332,1.84766,3.34375.9502.81055,2.18164,1.21582,3.69434,1.21582,2.49316,0,4.44238-.87305,5.8457-2.61914l3.60059,4.25586c-.98242,1.35547-2.37305,2.43555-4.17383,3.23828s-3.7373,1.2041-5.81055,1.2041ZM569.56296,440.65735c-2.30664,0-3.67871,1.52734-4.11523,4.58301h7.9502v-.6084c.03125-1.2627-.28906-2.24023-.95898-2.93457-.66992-.69336-1.62891-1.04004-2.87598-1.04004Z"/>
    <path class="cls-8" d="M597.52878,453.23646c0-.66992-.35156-1.20801-1.05273-1.61328s-2.03418-.82617-3.99805-1.2627-3.58594-1.00879-4.86328-1.71875c-1.27832-.70898-2.25293-1.57031-2.92285-2.58301-.6709-1.01367-1.00586-2.1748-1.00586-3.48438,0-2.32227.95898-4.23535,2.87598-5.74023,1.91699-1.50391,4.42676-2.25684,7.5293-2.25684,3.33594,0,6.0166.75684,8.04297,2.26855s3.04004,3.5,3.04004,5.96191h-7.90332c0-2.02539-1.06738-3.03906-3.20312-3.03906-.82617,0-1.51953.23047-2.08105.68945-.56152.45996-.8418,1.0332-.8418,1.71875,0,.70117.34277,1.27051,1.0293,1.70703.68555.43652,1.78027.79492,3.28516,1.0752,1.50391.28125,2.8252.61621,3.96289,1.00586,3.80273,1.30957,5.70508,3.65527,5.70508,7.03809,0,2.30664-1.02539,4.18555-3.07422,5.63477-2.05078,1.4502-4.7041,2.1748-7.96191,2.1748-2.16699,0-4.09961-.38965-5.79883-1.16895s-3.02441-1.83984-3.97461-3.18066c-.95117-1.33984-1.42676-2.75098-1.42676-4.23145h7.36523c.03125,1.16895.4209,2.02246,1.16895,2.55957.74902.53809,1.70703.80762,2.87598.80762,1.07617,0,1.88281-.21875,2.4209-.65527.53711-.43652.80664-1.00488.80664-1.70703Z"/>
    <path class="cls-8" d="M622.0571,453.23646c0-.66992-.35156-1.20801-1.05273-1.61328s-2.03418-.82617-3.99805-1.2627-3.58594-1.00879-4.86328-1.71875c-1.27832-.70898-2.25293-1.57031-2.92285-2.58301-.6709-1.01367-1.00586-2.1748-1.00586-3.48438,0-2.32227.95898-4.23535,2.87598-5.74023,1.91699-1.50391,4.42676-2.25684,7.5293-2.25684,3.33594,0,6.0166.75684,8.04297,2.26855s3.04004,3.5,3.04004,5.96191h-7.90332c0-2.02539-1.06738-3.03906-3.20312-3.03906-.82617,0-1.51953.23047-2.08105.68945-.56152.45996-.8418,1.0332-.8418,1.71875,0,.70117.34277,1.27051,1.0293,1.70703.68555.43652,1.78027.79492,3.28516,1.0752,1.50391.28125,2.8252.61621,3.96289,1.00586,3.80273,1.30957,5.70508,3.65527,5.70508,7.03809,0,2.30664-1.02539,4.18555-3.07422,5.63477-2.05078,1.4502-4.7041,2.1748-7.96191,2.1748-2.16699,0-4.09961-.38965-5.79883-1.16895s-3.02441-1.83984-3.97461-3.18066c-.95117-1.33984-1.42676-2.75098-1.42676-4.23145h7.36523c.03125,1.16895.4209,2.02246,1.16895,2.55957.74902.53809,1.70703.80762,2.87598.80762,1.07617,0,1.88281-.21875,2.4209-.65527.53711-.43652.80664-1.00488.80664-1.70703Z"/>
  </g>
  <g>
    <line class="cls-2" x1="1218.78177" y1="504.9675" x2="1567.7727" y2="504.9675"/>
    <polyline class="cls-2" points="1526.02281 463.37061 1567.8028 504.96404 1526.55413 546.04046"/>
  </g>
  <g>
    <rect class="cls-1" x="1217.72998" y="366.96634" width="368.9141" height="93.43255"/>
    <path class="cls-8" d="M1220.3027,402.88099v-34.04492h10.96582c3.00879,0,5.71289.68262,8.11426,2.04688,2.39941,1.36328,4.27441,3.28906,5.62305,5.77539,1.34766,2.48633,2.03027,5.27246,2.0459,8.3584v1.56641c0,3.11816-.65918,5.91211-1.97559,8.38281-1.31738,2.4707-3.17285,4.4043-5.56543,5.79883-2.39258,1.39551-5.0625,2.10059-8.00781,2.11621h-11.2002ZM1228.50973,375.17298v21.39453h2.85254c2.35352,0,4.16211-.83789,5.4248-2.51367,1.2627-1.6748,1.89355-4.16504,1.89355-7.4707v-1.47266c0-3.28906-.63086-5.76758-1.89355-7.43555s-3.10254-2.50195-5.51855-2.50195h-2.75879Z"/>
    <path class="cls-8" d="M1250.83981,371.03431c0-1.12891.40527-2.05371,1.21582-2.77539s1.8623-1.08203,3.15625-1.08203,2.3457.36035,3.15723,1.08203c.80957.72168,1.21582,1.64648,1.21582,2.77539,0,1.12988-.40625,2.05469-1.21582,2.77637-.81152.72168-1.86328,1.08203-3.15723,1.08203s-2.3457-.36035-3.15625-1.08203-1.21582-1.64648-1.21582-2.77637ZM1259.21091,402.88099h-7.90332v-25.2998h7.90332v25.2998Z"/>
    <path class="cls-8" d="M1277.30856,395.77259c0-.66992-.35156-1.20801-1.05273-1.61328s-2.03418-.82617-3.99805-1.2627-3.58594-1.00879-4.86328-1.71875c-1.27832-.70898-2.25293-1.57031-2.92285-2.58301-.6709-1.01367-1.00586-2.1748-1.00586-3.48438,0-2.32227.95898-4.23535,2.87598-5.74023,1.91699-1.50391,4.42676-2.25684,7.5293-2.25684,3.33594,0,6.0166.75684,8.04297,2.26855s3.04004,3.5,3.04004,5.96191h-7.90332c0-2.02539-1.06738-3.03906-3.20312-3.03906-.82617,0-1.51953.23047-2.08105.68945-.56152.45996-.8418,1.0332-.8418,1.71875,0,.70117.34277,1.27051,1.0293,1.70703.68555.43652,1.78027.79492,3.28516,1.0752,1.50391.28125,2.8252.61621,3.96289,1.00586,3.80273,1.30957,5.70508,3.65527,5.70508,7.03809,0,2.30664-1.02539,4.18555-3.07422,5.63477-2.05078,1.4502-4.7041,2.1748-7.96191,2.1748-2.16699,0-4.09961-.38965-5.79883-1.16895s-3.02441-1.83984-3.97461-3.18066c-.95117-1.33984-1.42676-2.75098-1.42676-4.23145h7.36523c.03125,1.16895.4209,2.02246,1.16895,2.55957.74902.53809,1.70703.80762,2.87598.80762,1.07617,0,1.88281-.21875,2.4209-.65527.53711-.43652.80664-1.00488.80664-1.70703Z"/>
    <path class="cls-8" d="M1302.84177,402.88099c-.28027-.51465-.53027-1.27051-.74805-2.26855-1.4502,1.82422-3.47656,2.73633-6.0791,2.73633-2.38574,0-4.41211-.7207-6.08008-2.16309-1.66797-1.44141-2.50195-3.25391-2.50195-5.43652,0-2.74316,1.01367-4.81641,3.04004-6.21973,2.02637-1.40234,4.97266-2.10449,8.83887-2.10449h2.43164v-1.33887c0-2.33398-1.00586-3.50098-3.0166-3.50098-1.87012,0-2.80566.9248-2.80566,2.77246h-7.87988c0-2.44336,1.04004-4.42871,3.12109-5.95508,2.08105-1.52539,4.73535-2.28906,7.96191-2.28906s5.77539.78809,7.64648,2.3623c1.87012,1.57422,2.8291,3.7334,2.87598,6.47656v11.2002c.03027,2.32324.38867,4.09961,1.0752,5.33105v.39746h-7.87988ZM1297.90817,397.73646c.98242,0,1.79688-.20996,2.44336-.63086s1.11035-.89648,1.3916-1.42676v-4.04492h-2.29199c-2.74316,0-4.11523,1.23145-4.11523,3.69434,0,.71777.24219,1.29785.72559,1.74219.48242.44434,1.09863.66602,1.84668.66602Z"/>
    <path class="cls-8" d="M1329.31052,384.71302l-2.5957-.1875c-2.47852,0-4.06836.78027-4.77051,2.33887v16.0166h-7.87891v-25.2998h7.38867l.25684,3.25c1.3252-2.47852,3.17188-3.71777,5.54199-3.71777.8418,0,1.57422.09375,2.19727.28125l-.13965,7.31836Z"/>
    <path class="cls-8" d="M1339.5986,377.58118l.25684,2.96973c1.79199-2.29102,4.20117-3.4375,7.22461-3.4375,3.19531,0,5.35449,1.27148,6.47754,3.81152,1.71387-2.54004,4.19238-3.81152,7.43555-3.81152,5.12793,0,7.7627,3.10254,7.90332,9.30664v16.46094h-7.90332v-15.96973c0-1.29395-.21875-2.2373-.65527-2.8291-.43652-.59277-1.23145-.88867-2.38477-.88867-1.55859,0-2.7207.69336-3.4834,2.08105l.02344.32715v17.2793h-7.90332v-15.92285c0-1.3252-.21094-2.28418-.63184-2.87598-.4209-.59277-1.22363-.88867-2.4082-.88867-1.51172,0-2.66602.69336-3.46094,2.08105v17.60645h-7.87891v-25.2998h7.38867Z"/>
    <path class="cls-8" d="M1387.64841,402.88099c-.28027-.51465-.53027-1.27051-.74805-2.26855-1.4502,1.82422-3.47656,2.73633-6.0791,2.73633-2.38574,0-4.41211-.7207-6.08008-2.16309-1.66797-1.44141-2.50195-3.25391-2.50195-5.43652,0-2.74316,1.01367-4.81641,3.04004-6.21973,2.02637-1.40234,4.97266-2.10449,8.83887-2.10449h2.43164v-1.33887c0-2.33398-1.00586-3.50098-3.0166-3.50098-1.87012,0-2.80566.9248-2.80566,2.77246h-7.87988c0-2.44336,1.04004-4.42871,3.12109-5.95508,2.08105-1.52539,4.73535-2.28906,7.96191-2.28906s5.77539.78809,7.64648,2.3623c1.87012,1.57422,2.8291,3.7334,2.87598,6.47656v11.2002c.03027,2.32324.38867,4.09961,1.0752,5.33105v.39746h-7.87988ZM1382.71481,397.73646c.98242,0,1.79688-.20996,2.44336-.63086s1.11035-.89648,1.3916-1.42676v-4.04492h-2.29199c-2.74316,0-4.11523,1.23145-4.11523,3.69434,0,.71777.24219,1.29785.72559,1.74219.48242.44434,1.09863.66602,1.84668.66602Z"/>
    <path class="cls-8" d="M1406.26071,377.58118l.25684,2.96973c1.79199-2.29102,4.20117-3.4375,7.22461-3.4375,3.19531,0,5.35449,1.27148,6.47754,3.81152,1.71387-2.54004,4.19238-3.81152,7.43555-3.81152,5.12793,0,7.7627,3.10254,7.90332,9.30664v16.46094h-7.90332v-15.96973c0-1.29395-.21875-2.2373-.65527-2.8291-.43652-.59277-1.23145-.88867-2.38477-.88867-1.55859,0-2.7207.69336-3.4834,2.08105l.02344.32715v17.2793h-7.90332v-15.92285c0-1.3252-.21094-2.28418-.63184-2.87598-.4209-.59277-1.22363-.88867-2.4082-.88867-1.51172,0-2.66602.69336-3.46094,2.08105v17.60645h-7.87891v-25.2998h7.38867Z"/>
    <path class="cls-8" d="M1452.29977,403.34876c-3.88184,0-7.02246-1.15723-9.42285-3.47266-2.40039-2.31445-3.60059-5.32715-3.60059-9.03711v-.6543c0-2.58789.47852-4.87109,1.4375-6.85156.95898-1.97949,2.35742-3.51074,4.19727-4.59473,1.83887-1.08301,4.02148-1.625,6.54688-1.625,3.55371,0,6.36035,1.10352,8.41797,3.30859,2.05762,2.20605,3.08594,5.28125,3.08594,9.22461v3.06348h-15.66602c.28027,1.41797.89648,2.5332,1.84766,3.34375.9502.81055,2.18164,1.21582,3.69434,1.21582,2.49316,0,4.44238-.87305,5.8457-2.61914l3.60059,4.25586c-.98242,1.35547-2.37305,2.43555-4.17383,3.23828s-3.7373,1.2041-5.81055,1.2041ZM1451.4111,383.19349c-2.30664,0-3.67871,1.52734-4.11523,4.58301h7.9502v-.6084c.03125-1.2627-.28906-2.24023-.95898-2.93457-.66992-.69336-1.62891-1.04004-2.87598-1.04004Z"/>
    <path class="cls-8" d="M1473.36716,377.58118l.25684,2.96973c1.74609-2.29102,4.1543-3.4375,7.22559-3.4375,2.63379,0,4.60254.78809,5.9043,2.3623,1.30078,1.57422,1.97559,3.94336,2.02246,7.10742v16.29785h-7.90332v-15.96973c0-1.27832-.25684-2.21777-.77148-2.81738-.51465-.60059-1.4502-.90039-2.80566-.90039-1.54395,0-2.68945.60742-3.4375,1.82324v17.86426h-7.87988v-25.2998h7.38867Z"/>
    <path class="cls-8" d="M1502.31442,371.29212v6.28906h4.16211v5.47168h-4.16211v11.57422c0,.95117.17188,1.61328.51465,1.9873s1.02051.56152,2.03418.56152c.7793,0,1.43457-.04688,1.96387-.14062v5.63574c-1.41797.45117-2.89941.67773-4.44238.67773-2.71191,0-4.71484-.63867-6.00879-1.91699s-1.94043-3.21875-1.94043-5.82227v-12.55664h-3.22754v-5.47168h3.22754v-6.28906h7.87891Z"/>
    <path class="cls-8" d="M1535.75095,402.88099c-.28027-.51465-.53027-1.27051-.74805-2.26855-1.4502,1.82422-3.47656,2.73633-6.0791,2.73633-2.38574,0-4.41211-.7207-6.08008-2.16309-1.66797-1.44141-2.50195-3.25391-2.50195-5.43652,0-2.74316,1.01367-4.81641,3.04004-6.21973,2.02637-1.40234,4.97266-2.10449,8.83887-2.10449h2.43164v-1.33887c0-2.33398-1.00586-3.50098-3.0166-3.50098-1.87012,0-2.80566.9248-2.80566,2.77246h-7.87988c0-2.44336,1.04004-4.42871,3.12109-5.95508,2.08105-1.52539,4.73535-2.28906,7.96191-2.28906s5.77539.78809,7.64648,2.3623c1.87012,1.57422,2.8291,3.7334,2.87598,6.47656v11.2002c.03027,2.32324.38867,4.09961,1.0752,5.33105v.39746h-7.87988ZM1530.81735,397.73646c.98242,0,1.79688-.20996,2.44336-.63086s1.11035-.89648,1.3916-1.42676v-4.04492h-2.29199c-2.74316,0-4.11523,1.23145-4.11523,3.69434,0,.71777.24219,1.29785.72559,1.74219.48242.44434,1.09863.66602,1.84668.66602Z"/>
    <path class="cls-8" d="M1560.16208,395.77259c0-.66992-.35156-1.20801-1.05273-1.61328s-2.03418-.82617-3.99805-1.2627-3.58594-1.00879-4.86328-1.71875c-1.27832-.70898-2.25293-1.57031-2.92285-2.58301-.6709-1.01367-1.00586-2.1748-1.00586-3.48438,0-2.32227.95898-4.23535,2.87598-5.74023,1.91699-1.50391,4.42676-2.25684,7.5293-2.25684,3.33594,0,6.0166.75684,8.04297,2.26855s3.04004,3.5,3.04004,5.96191h-7.90332c0-2.02539-1.06738-3.03906-3.20312-3.03906-.82617,0-1.51953.23047-2.08105.68945-.56152.45996-.8418,1.0332-.8418,1.71875,0,.70117.34277,1.27051,1.0293,1.70703.68555.43652,1.78027.79492,3.28516,1.0752,1.50391.28125,2.8252.61621,3.96289,1.00586,3.80273,1.30957,5.70508,3.65527,5.70508,7.03809,0,2.30664-1.02539,4.18555-3.07422,5.63477-2.05078,1.4502-4.7041,2.1748-7.96191,2.1748-2.16699,0-4.09961-.38965-5.79883-1.16895s-3.02441-1.83984-3.97461-3.18066c-.95117-1.33984-1.42676-2.75098-1.42676-4.23145h7.36523c.03125,1.16895.4209,2.02246,1.16895,2.55957.74902.53809,1.70703.80762,2.87598.80762,1.07617,0,1.88281-.21875,2.4209-.65527.53711-.43652.80664-1.00488.80664-1.70703Z"/>
    <path class="cls-8" d="M1234.19137,460.34485c-.28027-.51465-.53027-1.27051-.74805-2.26855-1.4502,1.82422-3.47656,2.73633-6.0791,2.73633-2.38574,0-4.41211-.7207-6.08008-2.16309-1.66797-1.44141-2.50195-3.25391-2.50195-5.43652,0-2.74316,1.01367-4.81641,3.04004-6.21973,2.02637-1.40234,4.97266-2.10449,8.83887-2.10449h2.43164v-1.33887c0-2.33398-1.00586-3.50098-3.0166-3.50098-1.87012,0-2.80566.9248-2.80566,2.77246h-7.87988c0-2.44336,1.04004-4.42871,3.12109-5.95508,2.08105-1.52539,4.73535-2.28906,7.96191-2.28906s5.77539.78809,7.64648,2.3623c1.87012,1.57422,2.8291,3.7334,2.87598,6.47656v11.2002c.03027,2.32324.38867,4.09961,1.0752,5.33105v.39746h-7.87988ZM1229.25778,455.20032c.98242,0,1.79688-.20996,2.44336-.63086s1.11035-.89648,1.3916-1.42676v-4.04492h-2.29199c-2.74316,0-4.11523,1.23145-4.11523,3.69434,0,.71777.24219,1.29785.72559,1.74219.48242.44434,1.09863.66602,1.84668.66602Z"/>
    <path class="cls-8" d="M1258.60251,453.23646c0-.66992-.35156-1.20801-1.05273-1.61328s-2.03418-.82617-3.99805-1.2627-3.58594-1.00879-4.86328-1.71875c-1.27832-.70898-2.25293-1.57031-2.92285-2.58301-.6709-1.01367-1.00586-2.1748-1.00586-3.48438,0-2.32227.95898-4.23535,2.87598-5.74023,1.91699-1.50391,4.42676-2.25684,7.5293-2.25684,3.33594,0,6.0166.75684,8.04297,2.26855s3.04004,3.5,3.04004,5.96191h-7.90332c0-2.02539-1.06738-3.03906-3.20312-3.03906-.82617,0-1.51953.23047-2.08105.68945-.56152.45996-.8418,1.0332-.8418,1.71875,0,.70117.34277,1.27051,1.0293,1.70703.68555.43652,1.78027.79492,3.28516,1.0752,1.50391.28125,2.8252.61621,3.96289,1.00586,3.80273,1.30957,5.70508,3.65527,5.70508,7.03809,0,2.30664-1.02539,4.18555-3.07422,5.63477-2.05078,1.4502-4.7041,2.1748-7.96191,2.1748-2.16699,0-4.09961-.38965-5.79883-1.16895s-3.02441-1.83984-3.97461-3.18066c-.95117-1.33984-1.42676-2.75098-1.42676-4.23145h7.36523c.03125,1.16895.4209,2.02246,1.16895,2.55957.74902.53809,1.70703.80762,2.87598.80762,1.07617,0,1.88281-.21875,2.4209-.65527.53711-.43652.80664-1.00488.80664-1.70703Z"/>
    <path class="cls-8" d="M1294.04977,460.81263c-3.88184,0-7.02246-1.15723-9.42285-3.47266-2.40039-2.31445-3.60059-5.32715-3.60059-9.03711v-.6543c0-2.58789.47852-4.87109,1.4375-6.85156.95898-1.97949,2.35742-3.51074,4.19727-4.59473,1.83887-1.08301,4.02148-1.625,6.54688-1.625,3.55371,0,6.36035,1.10352,8.41797,3.30859,2.05762,2.20605,3.08594,5.28125,3.08594,9.22461v3.06348h-15.66602c.28027,1.41797.89648,2.5332,1.84766,3.34375.9502.81055,2.18164,1.21582,3.69434,1.21582,2.49316,0,4.44238-.87305,5.8457-2.61914l3.60059,4.25586c-.98242,1.35547-2.37305,2.43555-4.17383,3.23828s-3.7373,1.2041-5.81055,1.2041ZM1293.1611,440.65735c-2.30664,0-3.67871,1.52734-4.11523,4.58301h7.9502v-.6084c.03125-1.2627-.28906-2.24023-.95898-2.93457-.66992-.69336-1.62891-1.04004-2.87598-1.04004Z"/>
    <path class="cls-8" d="M1315.11716,435.04505l.25684,2.96973c1.74609-2.29102,4.1543-3.4375,7.22559-3.4375,2.63379,0,4.60254.78809,5.9043,2.3623,1.30078,1.57422,1.97559,3.94336,2.02246,7.10742v16.29785h-7.90332v-15.96973c0-1.27832-.25684-2.21777-.77148-2.81738-.51465-.60059-1.4502-.90039-2.80566-.90039-1.54395,0-2.68945.60742-3.4375,1.82324v17.86426h-7.87988v-25.2998h7.38867Z"/>
    <path class="cls-8" d="M1333.89352,447.50794c0-4.00586.86523-7.16211,2.5957-9.46973,1.73047-2.30664,4.14648-3.46094,7.24805-3.46094,2.25977,0,4.16211.88867,5.70508,2.66602v-12.81348h7.90332v35.91504h-7.08496l-.39746-2.71191c-1.62109,2.12012-3.67871,3.17969-6.17285,3.17969-3.00879,0-5.39355-1.15332-7.1543-3.46094-1.76172-2.30664-2.64258-5.58789-2.64258-9.84375ZM1341.77341,447.99915c0,4.48926,1.30957,6.73438,3.92773,6.73438,1.74609,0,2.99316-.7334,3.74121-2.19824v-9.63379c-.7168-1.49609-1.94824-2.24414-3.69434-2.24414-2.43164,0-3.74902,1.96387-3.95117,5.8916l-.02344,1.4502Z"/>
    <path class="cls-8" d="M1386.99509,453.23646c0-.66992-.35156-1.20801-1.05273-1.61328s-2.03418-.82617-3.99805-1.2627-3.58594-1.00879-4.86328-1.71875c-1.27832-.70898-2.25293-1.57031-2.92285-2.58301-.6709-1.01367-1.00586-2.1748-1.00586-3.48438,0-2.32227.95898-4.23535,2.87598-5.74023,1.91699-1.50391,4.42676-2.25684,7.5293-2.25684,3.33594,0,6.0166.75684,8.04297,2.26855s3.04004,3.5,3.04004,5.96191h-7.90332c0-2.02539-1.06738-3.03906-3.20312-3.03906-.82617,0-1.51953.23047-2.08105.68945-.56152.45996-.8418,1.0332-.8418,1.71875,0,.70117.34277,1.27051,1.0293,1.70703.68555.43652,1.78027.79492,3.28516,1.0752,1.50391.28125,2.8252.61621,3.96289,1.00586,3.80273,1.30957,5.70508,3.65527,5.70508,7.03809,0,2.30664-1.02539,4.18555-3.07422,5.63477-2.05078,1.4502-4.7041,2.1748-7.96191,2.1748-2.16699,0-4.09961-.38965-5.79883-1.16895s-3.02441-1.83984-3.97461-3.18066c-.95117-1.33984-1.42676-2.75098-1.42676-4.23145h7.36523c.03125,1.16895.4209,2.02246,1.16895,2.55957.74902.53809,1.70703.80762,2.87598.80762,1.07617,0,1.88281-.21875,2.4209-.65527.53711-.43652.80664-1.00488.80664-1.70703Z"/>
    <path class="cls-8" d="M1407.45407,428.75599v6.28906h4.16211v5.47168h-4.16211v11.57422c0,.95117.17188,1.61328.51465,1.9873s1.02051.56152,2.03418.56152c.7793,0,1.43457-.04688,1.96387-.14062v5.63574c-1.41797.45117-2.89941.67773-4.44238.67773-2.71191,0-4.71484-.63867-6.00879-1.91699s-1.94043-3.21875-1.94043-5.82227v-12.55664h-3.22754v-5.47168h3.22754v-6.28906h7.87891Z"/>
    <path class="cls-8" d="M1428.96579,460.34485c-.28027-.51465-.53027-1.27051-.74805-2.26855-1.4502,1.82422-3.47656,2.73633-6.0791,2.73633-2.38574,0-4.41211-.7207-6.08008-2.16309-1.66797-1.44141-2.50195-3.25391-2.50195-5.43652,0-2.74316,1.01367-4.81641,3.04004-6.21973,2.02637-1.40234,4.97266-2.10449,8.83887-2.10449h2.43164v-1.33887c0-2.33398-1.00586-3.50098-3.0166-3.50098-1.87012,0-2.80566.9248-2.80566,2.77246h-7.87988c0-2.44336,1.04004-4.42871,3.12109-5.95508,2.08105-1.52539,4.73535-2.28906,7.96191-2.28906s5.77539.78809,7.64648,2.3623c1.87012,1.57422,2.8291,3.7334,2.87598,6.47656v11.2002c.03027,2.32324.38867,4.09961,1.0752,5.33105v.39746h-7.87988ZM1424.0322,455.20032c.98242,0,1.79688-.20996,2.44336-.63086s1.11035-.89648,1.3916-1.42676v-4.04492h-2.29199c-2.74316,0-4.11523,1.23145-4.11523,3.69434,0,.71777.24219,1.29785.72559,1.74219.48242.44434,1.09863.66602,1.84668.66602Z"/>
    <path class="cls-8" d="M1449.30759,428.75599v6.28906h4.16211v5.47168h-4.16211v11.57422c0,.95117.17188,1.61328.51465,1.9873s1.02051.56152,2.03418.56152c.7793,0,1.43457-.04688,1.96387-.14062v5.63574c-1.41797.45117-2.89941.67773-4.44238.67773-2.71191,0-4.71484-.63867-6.00879-1.91699s-1.94043-3.21875-1.94043-5.82227v-12.55664h-3.22754v-5.47168h3.22754v-6.28906h7.87891Z"/>
    <path class="cls-8" d="M1468.80856,460.81263c-3.88184,0-7.02246-1.15723-9.42285-3.47266-2.40039-2.31445-3.60059-5.32715-3.60059-9.03711v-.6543c0-2.58789.47852-4.87109,1.4375-6.85156.95898-1.97949,2.35742-3.51074,4.19727-4.59473,1.83887-1.08301,4.02148-1.625,6.54688-1.625,3.55371,0,6.36035,1.10352,8.41797,3.30859,2.05762,2.20605,3.08594,5.28125,3.08594,9.22461v3.06348h-15.66602c.28027,1.41797.89648,2.5332,1.84766,3.34375.9502.81055,2.18164,1.21582,3.69434,1.21582,2.49316,0,4.44238-.87305,5.8457-2.61914l3.60059,4.25586c-.98242,1.35547-2.37305,2.43555-4.17383,3.23828s-3.7373,1.2041-5.81055,1.2041ZM1467.91989,440.65735c-2.30664,0-3.67871,1.52734-4.11523,4.58301h7.9502v-.6084c.03125-1.2627-.28906-2.24023-.95898-2.93457-.66992-.69336-1.62891-1.04004-2.87598-1.04004Z"/>
  </g>
  <line class="cls-4" x1="1648.04945" y1="569.00397" x2="1847.06845" y2="396.21041"/>
  <line class="cls-4" x1="1647.11561" y1="396.21041" x2="1849.45223" y2="566.17076"/>
</svg>