<?xml version="1.0" encoding="UTF-8"?>
<svg id="Ebene_4" xmlns="http://www.w3.org/2000/svg" version="1.1" viewBox="0 0 1920 1197.1">
  <!-- Generator: Adobe Illustrator 29.2.1, SVG Export Plug-In . SVG Version: 2.1.0 Build 116)  -->
  <defs>
    <style>
      .st0, .st1, .st2, .st3, .st4, .st5, .st6, .st7, .st8, .st9, .st10, .st11, .st12 {
        stroke: #0d435c;
      }

      .st0, .st1, .st3, .st13, .st14, .st15 {
        fill: none;
      }

      .st0, .st1, .st3, .st4, .st10 {
        stroke-width: 7.7px;
      }

      .st0, .st13, .st4 {
        stroke-linejoin: round;
      }

      .st1 {
        stroke-dasharray: 21.3;
      }

      .st1, .st16, .st2, .st3, .st14, .st17, .st18, .st15, .st5, .st7, .st8, .st9, .st10, .st11, .st19, .st12, .st20 {
        stroke-miterlimit: 10;
      }

      .st16 {
        stroke: #f3f5f7;
        stroke-width: 4.8px;
      }

      .st16, .st2, .st21, .st20 {
        fill: #0d435c;
      }

      .st2 {
        stroke-width: 1.8px;
      }

      .st13 {
        stroke-linecap: round;
      }

      .st13, .st14, .st17, .st18 {
        stroke: #0d425b;
      }

      .st13, .st18 {
        stroke-width: 8.2px;
      }

      .st14, .st17 {
        stroke-width: 8.8px;
      }

      .st22, .st17, .st18, .st4, .st5, .st6, .st7, .st8, .st9, .st10, .st11, .st19 {
        fill: #fff;
      }

      .st23, .st12 {
        fill: #f3f5f7;
      }

      .st24 {
        fill: #0d425b;
      }

      .st15, .st19 {
        stroke: #114a64;
        stroke-width: 7.4px;
      }

      .st5 {
        stroke-width: 5.8px;
      }

      .st6 {
        stroke-miterlimit: 10;
        stroke-width: 5px;
      }

      .st7 {
        stroke-width: 9.7px;
      }

      .st8 {
        stroke-width: 8.6px;
      }

      .st9 {
        stroke-width: 8.9px;
      }

      .st11 {
        stroke-width: 6.5px;
      }

      .st12 {
        stroke-width: 5.2px;
      }

      .st20 {
        stroke: #426b7e;
        stroke-width: .6px;
      }
    </style>
  </defs>
  <rect class="st23" x="-16.5" y="-24.8" width="1953" height="1234.2"/>
  <g>
    <g>
      <path class="st22" d="M1158.8,680.9c-3.6,0-6.6-2.5-7.3-5.8h-.5c-4.8,0-6.4-.3-7.2-.5-3-.8-4.3-3.4-3-16-3.4-7.8-7.7-16.8-9.2-18.8-.6-.2-1.5-.5-2.7-.6-1.1,1.7-3,2.9-5.2,2.9h-30.3c-2.2,0-4.1-1.1-5.2-2.9-1,.2-1.9.4-2.5.6-1.6,2-5.9,11-9.2,18.8,1.3,12.7,0,15.3-3,16-.8.2-2.4.5-7.2.5s-.3,0-.5,0c-.8,3.3-3.8,5.8-7.3,5.8h-.2c-4.1,0-7.5-3.4-7.5-7.5v-18.2c0-4.1,3.4-7.5,7.5-7.5h.2c3.7,0,6.8,2.7,7.4,6.2,1.8-4.2,5.1-14.3,5.9-17.8-.3,0-.7-.3-1.1-.3-6.3-.2-11.4-5.4-11.4-11.8v-17.7c0-2.9,1-5.5,2.7-7.6-67-4.5-68.1-5-68.9-5.4-2.2-1.1-3.5-3.4-3.6-6.5,0-2.2.5-6.8,3.4-8.6,1.5-.9,3.7-1.4,6.6-1.4s.6,0,.7,0c1.6,0,38.9.4,56.1.4s7.8,0,8.3,0c3.2-.2,9.2-2.2,11.9-3.3v-.4h-18.5c-9.3,0-16.9-7.6-16.9-16.9v-5.1c0-9.3,7.6-16.9,16.9-16.9h25.9v-4c0-3.5,2.9-6.4,6.4-6.4h6.7v-19.4h-3.7c-6.4,0-7.6,0-8.8-1.2-2.1-.9-10.9-1.5-16.2-1.5s-102.4,2.5-146.4,10.3c-15.8,2.8-19.2,4.6-26,10.3l-1.1.9-52.6-2.4,22.5-5.9c.3,0,27-7.1,44.6-11,31.6-6.9,127.2-12.5,146.2-12.7,5.4,0,9.2-.3,10.8-.4,1.8-1.5,3.8-2.3,6.1-2.3s1,0,1.5,0h.7c.3,0,.5,0,.6-.1v-.2c.4-.8,1.6-3.1,4.8-3.1s11.2.2,16.9.3v-16.3h-10.4c-7.8,0-14.1-6.3-14.1-14.1s6.3-14.1,14.1-14.1h44.9c7.8,0,14.1,6.3,14.1,14.1s-6.3,14.1-14.1,14.1h-10.9v16.2c5.6-.1,15.4-.3,17-.3,3.3,0,4.5,2.3,4.8,3.1v.2s.3,0,.6.1h2.2c2.3,0,4.3.7,6.1,2.3,1.6.1,5.3.3,10.8.4,18.9.3,114.6,5.8,146.2,12.7,17.6,3.9,44.4,10.9,44.6,11l22.5,5.9-52.6,2.4-1.1-.9c-6.7-5.7-10.1-7.5-26-10.3-44-7.8-145.5-10.3-146.4-10.3-5.3,0-14.1.6-16.2,1.5-1.1,1.2-2.4,1.2-8.8,1.2s-2.6,0-3.9,0v19.5h7.1c3.5,0,6.4,2.9,6.4,6.4v4h24.7c9.3,0,16.9,7.6,16.9,16.9v5.1c0,9.3-7.6,16.9-16.9,16.9h-18.3v.4c2.6,1.1,8.7,3,11.9,3.3h8.3c17.2,0,54.5-.4,56.1-.4h.7c2.9,0,5.1.5,6.6,1.4,2.9,1.7,3.5,6.4,3.4,8.6,0,3.1-1.4,5.5-3.6,6.5-.7.4-1.6.8-37.1,3.4-10.4.8-22.5,1.6-31.1,2.1,1.6,2,2.6,4.6,2.6,7.4v17.7c0,5.1-3.2,9.5-7.8,11.1h0l-.6.2c-.9.3-1.7.4-2.7.5-.4,0-.8.2-1.2.4.8,3.5,4.1,13.6,5.9,17.8.6-3.5,3.7-6.2,7.4-6.2h.2c4.1,0,7.5,3.4,7.5,7.5v18.2c0,4.1-3.4,7.5-7.5,7.5h-.4Z"/>
      <path class="st21" d="M1131.1,445c5.8,0,10.5,4.7,10.5,10.5s-4.7,10.5-10.5,10.5h-14.5v23.4c2.5,0,18.5-.3,20.6-.4h0c2.3,0,.7,2.7,4.8,3.4h.6c.7,0,1.4-.1,2.2-.1,1.3,0,2.8.3,4.4,2,.3.3,6.5.6,12.4.7,21,.3,114.9,5.9,145.4,12.7,17.8,3.9,44.5,10.9,44.5,10.9l-27.9,1.3c-7.5-6.4-11.7-8.2-27.6-11.1-44.2-7.8-145.1-10.4-147-10.4s-16.8.3-18.7,2.5c0,.2-2.9.2-6.3.2h-7.4v26.7h10.6c1.6,0,2.9,1.3,2.9,2.9v7.5h28.2c7.4,0,13.4,6,13.4,13.4v5.1c0,7.4-6,13.4-13.4,13.4h-21.6c-.3,1.6-.5,5.6-.2,6.1.7,1,10.3,4.3,15,4.7h8.5c17.8,0,56.2-.4,56.2-.4h.6c1.1,0,3.5,0,4.7.8,1.7,1,2.7,7.5,0,8.8-1.3.6-68.5,5.7-76.9,5.7s0,0-.2,0h-.3c-7.1,0,1.5,2.2,1.5,2.2,4.6,0,8.3,3.7,8.3,8.3v17.7c0,4.5-3.5,8.1-8,8.3h0s-4.7.8-4.4,3.4c.3,2.6,6.3,21.8,8,22.4,1.5.5,4.4.8,5,.8v-3.7c0-2.2,1.8-4,4-4h.2c2.2,0,4,1.8,4,4v18.2c0,2.2-1.8,4-4,4h-.2c-2.2,0-4-1.8-4-4v-1.9h-3.9c-2.4,0-5.2,0-6.4-.4-1.6-.4-.2-13.2-.2-13.2,0,0-8.6-20.1-10.9-21.3-1.6-.8-4.7-1.3-7.2-1.5v.6c0,1.4-1.2,2.6-2.6,2.6h-30.3c-1.4,0-2.6-1.2-2.6-2.6v-.6c-2.5.2-5.5.7-7,1.5-2.3,1.1-10.9,21.3-10.9,21.3,0,0,1.3,12.8-.2,13.2-1.2.3-3.9.4-6.4.4h-3.9v1.9c0,2.2-1.8,4-4,4h-.2c-2.2,0-4-1.8-4-4v-18.2c0-2.2,1.8-4,4-4h.2c2.2,0,4,1.8,4,4v3.7c.7,0,3.5-.3,5-.8,1.7-.6,7.8-19.8,8-22.4.3-2.6-4.4-3.4-4.4-3.4-4.6,0-8.3-3.7-8.3-8.3v-17.7c0-4.6,3.7-8.3,8.3-8.3,3.8-2,2.2-2.2,1.2-2.2s-.5,0-.5,0c0,0-75.7-5-77.1-5.7-2.7-1.3-1.7-7.8,0-8.8,1.3-.8,3.6-.8,4.7-.8s.6,0,.6,0c0,0,38.4.4,56.2.4s7.6,0,8.5,0c4.7-.3,14.3-3.7,15-4.7.3-.5,0-4.5-.2-6.1h-21.8c-7.4,0-13.4-6-13.4-13.4v-5.1c0-7.4,6-13.4,13.4-13.4h29.5v-7.5c0-1.6,1.3-2.9,2.9-2.9h10.2v-26.6h-7.2c-3.4,0-6.2,0-6.3-.2-1.9-2.3-16.8-2.5-18.7-2.5s-102.8,2.6-147,10.4c-15.9,2.8-20.2,4.7-27.6,11.1l-27.9-1.3s26.7-7,44.5-10.9c30.5-6.7,124.5-12.3,145.4-12.7,5.9,0,12.1-.3,12.4-.7,1.6-1.7,3.1-2,4.4-2s1.5.1,2.2.1.4,0,.6,0c4.1-.7,2.5-3.4,4.8-3.4h0c2,0,17.3.3,20.4.4v-23.5h-14c-5.8,0-10.5-4.7-10.5-10.5s4.7-10.5,10.5-10.5h44.9M1131.1,437.9h-44.9c-9.7,0-17.6,7.9-17.6,17.6s7.9,17.6,17.6,17.6h6.8v9.2c-5.4,0-11.9-.2-13.2-.2h0c-2.1,0-4.8.6-6.8,3.3h-.8c-2.8,0-5.2.8-7.4,2.4-1.8.1-5.1.3-9.5.3-23,.3-116.5,6.1-146.9,12.8-17.7,3.9-44.5,10.9-44.8,11l-45.1,11.9,46.6,2.1,27.9,1.3h2.8c0,0,2.1-1.7,2.1-1.7,6.2-5.3,9.2-6.8,24.3-9.5,41.1-7.3,136.8-10.2,145.8-10.3,4.8,0,11.9.5,14.4,1.1,2,1.6,4.5,1.6,10.6,1.6h0v12.3h-3.1c-5.5,0-10,4.5-10,10v.4h-22.3c-11.3,0-20.5,9.2-20.5,20.5v5.1c0,7.1,3.6,13.4,9.1,17.1-18.5,0-44.5-.4-46.3-.4h-.8c-5.3,0-7.6,1.4-8.4,1.9-4,2.4-5.3,7.8-5.1,11.8.2,4.4,2.2,7.9,5.6,9.6,1.7.8,2.1,1,41.7,3.8,8.2.6,16.4,1.1,23.1,1.6-.4,1.4-.6,2.9-.6,4.4v17.7c0,7.2,4.9,13.2,11.6,14.9-.7,2.2-1.5,4.9-2.4,7.4-1.8-1.3-4.1-2.1-6.5-2.1h-.2c-6.1,0-11.1,5-11.1,11.1v18.2c0,6.1,5,11.1,11.1,11.1h.2c4.2,0,7.9-2.4,9.8-5.8,3.7,0,5.2-.3,6.2-.6,6.6-1.7,6.3-9.3,6.1-13.9,0-1.9-.2-3.7-.3-5,2.6-5.9,5.6-12.4,7.4-15.6,1.6,1.2,3.7,2,5.9,2h30.3c2.3,0,4.4-.8,6-2.1,1.8,3.2,4.9,9.7,7.5,15.7,0,1.3-.2,3.1-.3,5-.2,4.6-.5,12.3,6.1,13.9,1,.2,2.5.5,6.2.6,1.9,3.5,5.5,5.8,9.8,5.8h.2c6.1,0,11.1-5,11.1-11.1v-18.2c0-6.1-5-11.1-11.1-11.1h-.2c-2.4,0-4.7.8-6.5,2.1-.9-2.5-1.7-5.2-2.4-7.4l4-.6v-1.1c4.4-2.7,7.3-7.6,7.3-13.2v-17.7c0-1.4-.2-2.8-.6-4.2,7.9-.5,17.5-1.2,25.8-1.8,36.1-2.7,36.9-3,38.4-3.8,3.4-1.7,5.4-5.1,5.6-9.6.2-3.9-1.1-9.3-5.1-11.8-.8-.5-3.1-1.9-8.4-1.9s-.6,0-.8,0c-1.8,0-28,.3-46.5.4,5.5-3.7,9.1-9.9,9.1-17.1v-5.1c0-11.3-9.2-20.5-20.5-20.5h-21.1v-.4c0-5.5-4.5-10-10-10h-3.5v-12.4h.3c6,0,8.6,0,10.6-1.6,2.5-.6,9.6-1.1,14.4-1.1,9,0,104.7,3,145.8,10.3,15.1,2.7,18,4.2,24.3,9.5l2.1,1.8h2.8c0,0,27.9-1.4,27.9-1.4l46.6-2.1-45.1-11.9c-.3,0-27.1-7.1-44.8-11-30.4-6.7-123.9-12.5-146.9-12.8-4.3,0-7.6-.2-9.5-.3-2.2-1.6-4.7-2.4-7.4-2.4s-.5,0-.8,0c-2.1-2.7-4.8-3.3-6.8-3.3h0c-1.3,0-8,.1-13.4.2v-9.1h7.3c9.7,0,17.6-7.9,17.6-17.6s-7.9-17.6-17.6-17.6h.1Z"/>
    </g>
    <g>
      <polygon class="st21" points="1094.1 579.2 1096.2 570.1 1121 570.1 1123.1 579.2 1094.1 579.2"/>
      <path class="st21" d="M1119.1,572.5l1,4.2h-23l1-4.2h21M1121.8,567.7h-26.3c-.7,0-1.3.5-1.5,1.2l-2.5,10.9c-.2,1,.5,1.9,1.5,1.9h31.3c1,0,1.7-.9,1.5-1.9l-2.5-10.9c-.2-.7-.8-1.2-1.5-1.2h0Z"/>
    </g>
    <path class="st21" d="M1131.9,586.2l-3.5-13.6h0l-3.2-3.8c0-.2-.4,0-.3.2l3,11.4.2.8,3.6,5.1c0,.2.4,0,.4-.2h-.2Z"/>
    <path class="st21" d="M1085.5,586.2l3.5-13.6h0l3.2-3.8c0-.2.4,0,.3.2l-3,11.4-.2.8-3.6,5.1c0,.2-.4,0-.4-.2h.2Z"/>
  </g>
  <g>
    <path class="st17" d="M458.3,551.4l19.1,30.9s1.1,1.9,1.9,3.1c4.5-4.3,8.8-4.2,14.4-5.1,4.5-.7,8.9-.2,13,2,1.7.9,2.7.6,4.1-.6,20.7-18.5,35-38.1,53.8-59.3,5.3-6.2,7.6-11.1,23.8-19,11.8-5.7,19.5-5,26.6-3.6,15.5,3,28.9,16.2,31.3,26.4,3.8,15.7-2.9,23.8-8.1,29.1-5.1,5.3-18.7,18.3-18.7,18.3,0,0,173.6,18.1,186.3,18.6l-12,10c-23.8,1.3-225.2,20.6-232.5,22.9l-.8.6c-3.7,4.1-7.4,8.2-11.7,13,26.6,1.3,52.4,2.6,78.9,3.9-2,3.7-3.4,6.7-5.3,9.4-.6.9-2.5,1.3-3.8,1.4-15,1.1-30,2.2-45,3.2-17.6,1.2-35.2,2.1-52.7,3.6-4.4.4-8.6,3-12.8,4.6-4.7,1.8-9.4,3.4-14,5.4-2.3,1-4.2,2.7-6.4,3.8-2.4,1.1-5.1,2.9-7.3,2.5-6.2-1.3-12.2.2-18.2.7-3.4.2-6.9,0-10.2-.6-4.5-.7-7.2-3.7-8.2-8.2-.3-1.6,0-4.2-1.1-4.4-39.8-5.3-51.3-7.4-72.9-10.2l1.2-18s72.4,3.1,80.8,3l2.6-.5c-1.6-5.8-3.2-11.3-4.8-16.9l-3-10c-2.7-8.5-111.9-38.2-117.4-41.7l-.9-13.9c9.4,0,194.6,4.4,202.5,4.5"/>
    <path class="st14" d="M446.8,612.8c-1.6-5.5-10-35.9-11.5-41.2-3.9-14.3-7.8-28.6-11.9-42.9-.8-2.8-.4-4.7,2.2-6.1,2.5-1.4,4.8-3.1,7.4-4.4,2.2-1.1,4-.2,5.4,1.9,2.5,3.8,22.7,35.7,25.1,39.5"/>
    <polygon class="st22" points="434.9 553.2 437.7 563.8 462.2 566.1 453.9 552.7 434.9 553.2"/>
  </g>
  <polygon class="st19" points="445.9 143 453.4 159 432.2 167.7 390 225.9 375.3 227.4 413.1 175 340.2 206.6 352.3 225.9 340.4 225.9 330.7 210.3 318.5 215.1 311 201.6 445.9 143"/>
  <polygon class="st19" points="452.2 127.8 455 133.1 486.9 119.6 473.8 92.3 443.3 106.3 445.9 111.2 294.4 178.6 302.1 193.6 452.2 127.8"/>
  <path class="st19" d="M319.8,225.9v29.3l267.2,1.2,18.8-6.2v-49.8l-12.5-12.5h-71.9v-26.7h-32.4v27.6l-24.3,24.3h-34.7v12.8h-110.3.1ZM335.2,242.4h0c0-.1,92-.1,92-.1h0c0,.1-92,.1-92,.1ZM470.5,225.9h0c0-.1,69.6-.1,69.6-.1h0c0,.1-69.6.1-69.6.1h0Z"/>
  <polyline class="st15" points="496.1 225.9 565.7 225.9 582.5 236.1"/>
  <path class="st21" d="M533.3,257.7c0,9.9,8,17.9,17.9,17.9s17.9-8,17.9-17.9-8-17.9-17.9-17.9-17.9,8-17.9,17.9Z"/>
  <path class="st21" d="M483,257.7c0,9.9,8,17.9,17.9,17.9s17.9-8,17.9-17.9-8-17.9-17.9-17.9-17.9,8-17.9,17.9Z"/>
  <path class="st21" d="M388.4,263c0,9.1,7.4,16.6,16.6,16.6s16.6-7.4,16.6-16.6-7.4-16.6-16.6-16.6-16.6,7.4-16.6,16.6Z"/>
  <path class="st21" d="M344.4,263c0,9.1,7.4,16.6,16.6,16.6s16.6-7.4,16.6-16.6-7.4-16.6-16.6-16.6-16.6,7.4-16.6,16.6Z"/>
  <g>
    <path class="st18" d="M557.3,1023.6h-20.7v-15.6c0-10.3-3.8-13.8-14-13.8h-21v-17.5c0-5.4,4.3-5.6,4.3-5.6h11v-17.2h-23.8c-5.8,0-8.5,4.9-8.5,8.5v31.9h-17.5c-11.8,0-26.4,29.4-26.4,29.4h-53.6c-15.9,0-29.1,10.9-32.9,25.6h-8.7l-5.1-17.4h-16.1l6.3,21.6v8.6l-6.3,21.6h16.1l5.1-17.4h8.9c3.8,14.6,17,25.4,32.8,25.4h170.1c18.8,0,34-15.2,34-34s-15.2-34-34-34"/>
    <path class="st13" d="M380,1044.6h173.4c14.3,0,14.3,8.4,14.3,8.4"/>
    <line class="st13" x1="315.5" y1="1057.8" x2="329.1" y2="1057.8"/>
    <line class="st13" x1="315.5" y1="1071" x2="315.5" y2="1044.7"/>
  </g>
  <g>
    <path class="st4" d="M878.8,998.9h0c0-8.6-9.4-15.5-21-15.5s-21,6.9-21,15.5h.3c-7.7,4.6-12.5,11.1-12.5,16.7l66.5.8c0-5.7-4.8-12.7-12.4-17.5h.1Z"/>
    <path class="st10" d="M1347.5,1018.8c-14.5,53.6-56.1,66.3-56.1,66.3l-567-2.6-23.8-67.1,646.9,3.4h0Z"/>
    <polygon class="st9" points="1217.4 995.6 921.1 995.6 904.3 1014.7 1230.2 1017.3 1217.4 995.6"/>
    <polygon class="st9" points="1182.4 965.1 978 965.1 965.6 994.3 1182.4 994.3 1182.4 965.1"/>
    <path class="st3" d="M717.4,1062.6c.3.6,606.4,0,606.4,0"/>
    <g>
      <path class="st4" d="M808.5,1015.8c0-8.6-9.4-15.5-21-15.5s-21,6.9-21,15.5"/>
      <line class="st3" x1="740.6" y1="994.5" x2="771.8" y2="1005.5"/>
    </g>
    <line class="st3" x1="792.1" y1="969.5" x2="842.9" y2="987.5"/>
    <g>
      <line class="st3" x1="1329.8" y1="995.6" x2="1298.6" y2="1006.7"/>
      <path class="st10" d="M1260.1,1016.5c0-8.6,9.4-15.5,21-15.5s21,6.9,21,15.5"/>
    </g>
    <polygon class="st10" points="1022.1 945.6 1138 945.6 1145.1 962 1022.1 962 1022.1 945.6"/>
    <rect class="st3" x="1027.1" y="892.8" width="11.3" height="51.6"/>
    <rect class="st7" x="1104.6" y="870.9" width="21.1" height="73.6"/>
    <polygon class="st8" points="1117.2 801.8 1051.4 801.8 1051.4 824.1 1080.1 824.1 1080.1 944.5 1087.4 944.5 1087.4 824.1 1117.2 824.1 1117.2 801.8"/>
    <line class="st1" x1="728.5" y1="1039.9" x2="1311.7" y2="1039.9"/>
    <line class="st1" x1="981.9" y1="979.8" x2="1184.9" y2="979.8"/>
    <line class="st0" x1="836.9" y1="998.9" x2="878.9" y2="998.9"/>
    <polyline class="st10" points="1053.6 944.5 1053.6 877.5 1067.1 877.5 1067.1 944.5"/>
  </g>
  <polygon class="st16" points="1330.6 146.2 1281.8 167.7 1280.8 165.4 1260.1 174.5 1266.1 188.7 1287 179.6 1285.8 176.8 1335.7 154.9 1330.6 146.2"/>
  <polygon class="st11" points="1186.4 197.8 1186.4 186.7 1210.1 170.3 1250.6 170.4 1273.1 185.9 1273 197.7 1186.4 197.8"/>
  <path class="st11" d="M1084,197s-10.9,8.7-13,24.2,2.8,29.3,5.8,33.1,10.7,14.3,16.9,14.8c6.3.5,9.5,0,9.5,0l242,.3,30.8-47.6-36.6-7.1s-19.5-17.8-21.8-18.1-233.6.5-233.6.5h0Z"/>
  <rect class="st2" x="1106.7" y="217.5" width="39.7" height="7.8" rx="3.2" ry="3.2"/>
  <rect class="st2" x="1160" y="217.5" width="39.7" height="7.8" rx="3.2" ry="3.2"/>
  <rect class="st2" x="1211" y="217.5" width="39.7" height="7.8" rx="3.2" ry="3.2"/>
  <rect class="st2" x="1263.5" y="217.5" width="39.7" height="7.8" rx="3.2" ry="3.2"/>
  <rect class="st20" x="1097.3" y="183.5" width="74.5" height="6.7"/>
  <path class="st22" d="M764,232.5l-10.5-5.9s-16,13-13.9,22.7,9.2,25.6,23.9,28.7,130.2,2.4,134,1,39.9-18.1,36.2-39.8c-1.8-10.4-17-5.9-26.2-6.8-6.8-.7-10-.7-10-.7l-78.4-4.5-43.4-.5,4.3,4.9"/>
  <path class="st24" d="M742.2,234.5c-4.7,5.8-6.5,13.1-4.9,20.7,3.2,16,20.2,28.6,38.6,28.6h113.7c15.9,0,30.8-9.1,42-25.8l1.8-2.7c4.2-6.8,5-14.6,1.9-20.4h0c-3.7-6.9-10-10.6-18.3-10.6l-9.6,8h9.4c6.4,0,8.6,3.3,10.2,6.3,1.6,3,2.1,8-.4,12.2l-1.8,2.7c-6.8,10.1-18.4,22.2-35.3,22.2h-113.7c-14.4,0-28.2-9.9-30.6-22.1-1-5.2,0-10.1,3.3-14,3.5-4.2,9.1-6.8,15.5-7.2l-10.5-5.9c-4.5,1.8-8.4,4.5-11.3,8h0Z"/>
  <polygon class="st22" points="793.1 199.9 793.1 185.6 816.1 172.6 846.2 172.6 864.9 185.6 867.8 202.4 793.1 199.9"/>
  <polygon class="st22" points="766.3 219.6 774.8 202.5 883.6 202.5 902.2 221.4 894.8 227.8 777.4 227.8 766.3 219.6"/>
  <path class="st24" d="M788.7,198.2h-15.9l-11.9,24.1,15.8,9.1,120.7.2,11.4-9.8-23.3-23.6h-16.1v-8.5h42.6v3h21.5v-12.8c0,0-21.5,0-21.5,0v3.7h-42.2l-24.6-13.9h-32.7l-23.6,14.8v13.6h-.2ZM882.4,205.6l15,15.2-4.7,3.3h-113.1l-8.7-4.9,6.5-13.6h105ZM796.2,187l18.6-10.8h29.6l17.8,10.3v11.6h-66v-11.2h0Z"/>
  <g>
    <path class="st24" d="M766.3,237.3c-7.8,0-14.1,6.3-14.1,14.1s6.3,14.1,14.1,14.1,14.1-6.3,14.1-14.1-6.3-14.1-14.1-14.1h0Z"/>
    <path class="st22" d="M766.3,266.1c-8.1,0-14.6-6.6-14.6-14.6s6.6-14.6,14.6-14.6,14.6,6.6,14.6,14.6-6.6,14.6-14.6,14.6ZM766.3,237.8c-7.5,0-13.6,6.1-13.6,13.6s6.1,13.6,13.6,13.6,13.6-6.1,13.6-13.6-6.1-13.6-13.6-13.6h0Z"/>
  </g>
  <g>
    <path class="st24" d="M787.8,253.5c0,9.4,7.6,17,17,17s17-7.6,17-17-7.6-17-17-17-17,7.6-17,17h0Z"/>
    <path class="st22" d="M804.8,271c-9.7,0-17.5-7.9-17.5-17.5s7.9-17.5,17.5-17.5,17.5,7.9,17.5,17.5-7.9,17.5-17.5,17.5ZM804.8,236.9c-9.1,0-16.5,7.4-16.5,16.5s7.4,16.5,16.5,16.5,16.5-7.4,16.5-16.5-7.4-16.5-16.5-16.5h0Z"/>
  </g>
  <g>
    <path class="st24" d="M826.3,253.5c0,9.4,7.6,17,17,17s17-7.6,17-17-7.6-17-17-17-17,7.6-17,17h0Z"/>
    <path class="st22" d="M843.4,271c-9.7,0-17.5-7.9-17.5-17.5s7.9-17.5,17.5-17.5,17.5,7.9,17.5,17.5-7.9,17.5-17.5,17.5ZM843.4,236.9c-9.1,0-16.5,7.4-16.5,16.5s7.4,16.5,16.5,16.5,16.5-7.4,16.5-16.5-7.4-16.5-16.5-16.5h0Z"/>
  </g>
  <g>
    <path class="st24" d="M881.9,236.4c-9.4,0-17,7.6-17,17s7.6,17,17,17,17-7.6,17-17-7.6-17-17-17h0Z"/>
    <path class="st22" d="M881.9,271c-9.7,0-17.5-7.9-17.5-17.5s7.9-17.5,17.5-17.5,17.5,7.9,17.5,17.5-7.9,17.5-17.5,17.5ZM881.9,236.9c-9.1,0-16.5,7.4-16.5,16.5s7.4,16.5,16.5,16.5,16.5-7.4,16.5-16.5-7.4-16.5-16.5-16.5h0Z"/>
  </g>
  <g>
    <path class="st24" d="M912,255c5.1,0,9.3-4.2,9.3-9.3s-4.2-9.3-9.3-9.3-9.3,4.2-9.3,9.3,4.2,9.3,9.3,9.3Z"/>
    <path class="st22" d="M912,255.5c-5.4,0-9.8-4.4-9.8-9.8s4.4-9.8,9.8-9.8,9.8,4.4,9.8,9.8-4.4,9.8-9.8,9.8ZM912,236.9c-4.8,0-8.8,3.9-8.8,8.8s3.9,8.8,8.8,8.8,8.8-3.9,8.8-8.8-3.9-8.8-8.8-8.8Z"/>
  </g>
  <g>
    <path class="st22" d="M1333.6,272.4h-4.1c.5-1.8.6-3.4.6-5.3-.2-6.1-3.2-11.5-8.2-14.9s-11.2-4.1-16.9-1.9c-7.2,2.7-12.1,10-11.9,17.7,0,1.2.5,2.9.7,4l-4.2.3c-.3-1.4-.5-2.8-.5-4.2-.3-9.4,5.6-18.3,14.5-21.6,6.9-2.6,14.4-1.8,20.6,2.3,6.1,4.1,9.8,10.7,10,18.1,0,2.3.2,3.1-.5,5.4h0Z"/>
    <path class="st21" d="M1291.4,265.1c-2.3,14,9.7,26,23.7,23.7,8.5-1.4,15.3-8.2,16.7-16.7,2.3-14-9.7-26-23.7-23.7-8.5,1.4-15.3,8.2-16.7,16.7h0Z"/>
  </g>
  <g>
    <path class="st22" d="M1272.1,272.4h-4.1c.5-1.8.6-3.4.6-5.3-.2-6.1-3.2-11.5-8.2-14.9s-11.2-4.1-16.9-1.9c-7.2,2.7-12.1,10-11.9,17.7,0,1.2.5,2.9.7,4l-4.2.3c-.3-1.4-.5-2.8-.5-4.2-.3-9.4,5.6-18.3,14.5-21.6,6.9-2.6,14.4-1.8,20.6,2.3,6.1,4.1,9.8,10.7,10,18.1,0,2.3.2,3.1-.5,5.4h0Z"/>
    <path class="st21" d="M1229.9,265.1c-2.3,14,9.7,26,23.7,23.7,8.5-1.4,15.3-8.2,16.7-16.7,2.3-14-9.7-26-23.7-23.7-8.5,1.4-15.3,8.2-16.7,16.7h0Z"/>
  </g>
  <g>
    <path class="st22" d="M1210.7,272.4h-4.1c.5-1.8.6-3.4.6-5.3-.2-6.1-3.2-11.5-8.2-14.9s-11.2-4.1-16.9-1.9c-7.2,2.7-12.1,10-11.9,17.7,0,1.2.5,2.9.7,4l-4.2.3c-.3-1.4-.5-2.8-.5-4.2-.3-9.4,5.6-18.3,14.5-21.6,6.9-2.6,14.4-1.8,20.6,2.3,6.1,4.1,9.8,10.7,10,18.1,0,2.3.2,3.1-.5,5.4h0Z"/>
    <path class="st21" d="M1168.5,265.1c-2.3,14,9.7,26,23.7,23.7,8.5-1.4,15.3-8.2,16.7-16.7,2.3-14-9.7-26-23.7-23.7-8.5,1.4-15.3,8.2-16.7,16.7h0Z"/>
  </g>
  <g>
    <path class="st22" d="M1149.3,272.4h-4.1c.5-1.8.6-3.4.6-5.3-.2-6.1-3.2-11.5-8.2-14.9s-11.2-4.1-16.9-1.9c-7.2,2.7-12.1,10-11.9,17.7,0,1.2.5,2.9.7,4l-4.2.3c-.3-1.4-.5-2.8-.5-4.2-.3-9.4,5.6-18.3,14.5-21.6,6.9-2.6,14.4-1.8,20.6,2.3,6.1,4.1,9.8,10.7,10,18.1,0,2.3.2,3.1-.5,5.4h0Z"/>
    <path class="st21" d="M1107.1,265.1c-2.3,14,9.7,26,23.7,23.7,8.5-1.4,15.3-8.2,16.7-16.7,2.3-14-9.7-26-23.7-23.7-8.5,1.4-15.3,8.2-16.7,16.7h0Z"/>
  </g>
  <g>
    <g>
      <rect class="st6" x="1608.7" y="179.2" width="26.6" height="69.6" transform="translate(1006.1 1729.6) rotate(-75.4)"/>
      <polygon class="st5" points="1589.3 177.4 1519.7 160.7 1520.4 158.1 1491 151.1 1486.9 167 1516.5 174.2 1517.3 171 1588.3 188.3 1589.3 177.4"/>
      <path class="st5" d="M1586.1,172.8l-4.5,20.1,69.3,16.2,1.3,17.5,35,34.3s25.9,0,29.2,1.9,44.7,24.6,44.7,24.6l27.2-1.3-.6-16.2h-23.3l-42.8-30.5-21.4-3.2-2.6-39.5-111.4-24h0Z"/>
      <g>
        <path class="st22" d="M1688,263.8c.5-1.6.9-3.1,1.2-4.8,3.8-22.7-15.7-42.2-38.4-38.4-8.2,1.4-15.4,5.8-20.4,12.1l2.8.7,51.6,29.2,1.3,1.3h2,0Z"/>
        <path class="st21" d="M1656.4,222.7c-1.7,0-3.5.1-5.2.4-12.6,2.1-22.9,12.4-25,25h0c-1.7,10,1.5,19.8,8.6,26.9s16.9,10.2,26.9,8.6c12.6-2.1,22.9-12.4,25-25,1.7-10-1.5-19.8-8.6-26.9-5.9-5.8-13.5-9-21.7-9h0Z"/>
      </g>
      <g>
        <polygon class="st22" points="1617.6 229.3 1627 231.8 1639.3 181.3 1629.8 179.3 1617.6 229.3"/>
        <path class="st21" d="M1615,252.6l4.4,1.1,22.6-95.2-4.4-1.1-22.6,95.2Z"/>
      </g>
    </g>
    <circle class="st12" cx="1655.4" cy="253.8" r="13.6"/>
  </g>
</svg>