<?xml version="1.0" encoding="UTF-8"?>
<svg id="Ebene_4" data-name="Ebene 4" xmlns="http://www.w3.org/2000/svg" viewBox="0 0 1920 910.61643">
  <defs>
    <style>
      .cls-1, .cls-2, .cls-3, .cls-4, .cls-5 {
        stroke-miterlimit: 10;
      }

      .cls-1, .cls-3 {
        stroke: #90172f;
      }

      .cls-1, .cls-6, .cls-5 {
        fill: #f3f5f7;
      }

      .cls-1, .cls-5 {
        stroke-width: 21.54014px;
      }

      .cls-2, .cls-3 {
        fill: none;
        stroke-width: 14px;
      }

      .cls-2, .cls-5 {
        stroke: #0d435c;
      }

      .cls-7 {
        fill: #90172f;
      }

      .cls-8 {
        fill: #0d435c;
      }

      .cls-4 {
        fill: #fff;
        stroke: #f3f5f7;
      }
    </style>
  </defs>
  <rect class="cls-6" x="-11.91728" y="-9.34877" width="1945.37501" height="930.54778"/>
  <g>
    <path class="cls-7" d="M354.28211,723.07535c-4.4692-8.39505-12.16744-12.83074-22.25921-12.83074l-12.68311,10.64439,12.68311.08169c7.19386,0,9.64446,3.46972,11.5331,7.02556,1.78284,3.33538,2.39795,9.08249-.46109,13.8159l-2.10959,3.15282c-7.92461,11.79243-21.47626,25.85389-41.03481,25.85389h-133.97926c-16.74236,0-32.67277-11.44206-35.50819-25.51287-1.19676-5.92033.12502-11.5956,3.70986-15.98307,4.34909-5.30571,11.63447-8.35223,19.97686-8.35223l-14.50725-8.15146c-5.48978,2.08548-10.22811,5.3874-13.76374,9.70843-5.66595,6.91533-7.77062,15.76212-5.93512,24.90219,3.85897,19.13096,24.08089,34.11508,46.02759,34.11508h133.97926c18.94836,0,36.6808-10.86583,49.92982-30.59714l2.15785-3.20547c5.12265-8.20313,5.98278-17.65568,2.24393-24.66697Z"/>
    <path class="cls-7" d="M309.38879,720.05933l14.01762-12.06111-28.03089-28.44425h-18.65954l.0123-8.85417h49.01703l-.02854,3.54895,26.47589-.06053.1742-16.24879-26.72981.03395.03592,4.38845-48.98406.09645-28.97619-16.33442h-38.87703s-28.17803,17.64928-28.17803,17.64928l-.08956,15.78082h-18.49863l-14.46001,29.24192,19.18801,11.06709,142.59132.19634ZM190.4803,667.28126l21.47327-12.49366,34.53877.06446,20.5098,11.8874-.12495,12.72051-74.5171.09399h-1.91082l.03104-12.27271ZM168.18172,689.39576h123.07058l16.99726,17.24724-4.80082,3.37819h-132.82626l-9.67497-5.44153,7.23421-15.18391Z"/>
    <path class="cls-7" d="M154.75064,726.18486c-9.1691,0-16.63213,7.46303-16.63213,16.63656,0,9.1691,7.46303,16.63213,16.63213,16.63213,9.17353,0,16.63659-7.46303,16.63659-16.63213,0-9.17353-7.46306-16.63656-16.63659-16.63656Z"/>
    <path class="cls-7" d="M180.07553,745.2051c0,11.05282,8.99146,20.04379,20.04428,20.04379,11.05286,0,20.04871-8.99097,20.04871-20.04379s-8.99585-20.04871-20.04871-20.04871-20.04428,8.99589-20.04428,20.04871Z"/>
    <path class="cls-7" d="M225.44027,745.2051c0,11.05282,8.99589,20.04379,20.04871,20.04379,11.05282,0,20.04428-8.99097,20.04428-20.04379s-8.99146-20.04871-20.04428-20.04871-20.04871,8.99589-20.04871,20.04871Z"/>
    <path class="cls-7" d="M290.85371,725.15639c-11.05282,0-20.04428,8.99589-20.04428,20.04871,0,11.05282,8.99146,20.04379,20.04428,20.04379,11.05282,0,20.04871-8.99097,20.04871-20.04379s-8.99589-20.04871-20.04871-20.04871Z"/>
    <path class="cls-7" d="M326.3811,747.03617c6.03105,0,10.93718-4.90662,10.93718-10.93767,0-6.03597-4.90613-10.9421-10.93718-10.9421-6.03597,0-10.9421,4.90613-10.9421,10.9421,0,6.03105,4.90613,10.93767,10.9421,10.93767Z"/>
  </g>
  <g>
    <path class="cls-7" d="M624.74324,723.07535c-4.4692-8.39505-12.16744-12.83074-22.25921-12.83074l-12.68311,10.64439,12.68311.08169c7.19386,0,9.64446,3.46972,11.5331,7.02556,1.78284,3.33538,2.39795,9.08249-.46109,13.8159l-2.10959,3.15282c-7.92461,11.79243-21.47626,25.85389-41.03481,25.85389h-133.97926c-16.74236,0-32.67277-11.44206-35.50819-25.51287-1.19676-5.92033.12502-11.5956,3.70986-15.98307,4.34909-5.30571,11.63447-8.35223,19.97686-8.35223l-14.50725-8.15146c-5.48978,2.08548-10.22811,5.3874-13.76374,9.70843-5.66595,6.91533-7.77062,15.76212-5.93512,24.90219,3.85897,19.13096,24.08089,34.11508,46.02759,34.11508h133.97926c18.94836,0,36.6808-10.86583,49.92982-30.59714l2.15785-3.20547c5.12265-8.20313,5.98278-17.65568,2.24393-24.66697Z"/>
    <path class="cls-7" d="M579.84992,720.05933l14.01762-12.06111-28.03089-28.44425h-18.65954l.0123-8.85417h49.01703l-.02854,3.54895,26.47589-.06053.1742-16.24879-26.72981.03395.03592,4.38845-48.98406.09645-28.97619-16.33442h-38.87703s-28.17803,17.64928-28.17803,17.64928l-.08956,15.78082h-18.49863l-14.46001,29.24192,19.18801,11.06709,142.59132.19634ZM460.94142,667.28126l21.47327-12.49366,34.53877.06446,20.5098,11.8874-.12495,12.72051-74.5171.09399h-1.91082l.03104-12.27271ZM438.64285,689.39576h123.07058l16.99726,17.24724-4.80082,3.37819h-132.82626l-9.67497-5.44153,7.23421-15.18391Z"/>
    <path class="cls-7" d="M425.21176,726.18486c-9.1691,0-16.63213,7.46303-16.63213,16.63656,0,9.1691,7.46303,16.63213,16.63213,16.63213,9.17353,0,16.63659-7.46303,16.63659-16.63213,0-9.17353-7.46306-16.63656-16.63659-16.63656Z"/>
    <path class="cls-7" d="M450.53665,745.2051c0,11.05282,8.99146,20.04379,20.04428,20.04379,11.05286,0,20.04871-8.99097,20.04871-20.04379s-8.99585-20.04871-20.04871-20.04871-20.04428,8.99589-20.04428,20.04871Z"/>
    <path class="cls-7" d="M495.90139,745.2051c0,11.05282,8.99589,20.04379,20.04871,20.04379,11.05282,0,20.04428-8.99097,20.04428-20.04379s-8.99146-20.04871-20.04428-20.04871-20.04871,8.99589-20.04871,20.04871Z"/>
    <path class="cls-7" d="M561.31484,725.15639c-11.05282,0-20.04428,8.99589-20.04428,20.04871s8.99146,20.04379,20.04428,20.04379c11.05282,0,20.04871-8.99097,20.04871-20.04379s-8.99589-20.04871-20.04871-20.04871Z"/>
    <path class="cls-7" d="M596.84222,747.03617c6.03105,0,10.93718-4.90662,10.93718-10.93767,0-6.03597-4.90613-10.9421-10.93718-10.9421-6.03597,0-10.9421,4.90613-10.9421,10.9421,0,6.03105,4.90613,10.93767,10.9421,10.93767Z"/>
  </g>
  <g>
    <path class="cls-7" d="M895.20436,723.07535c-4.4692-8.39505-12.16744-12.83074-22.25921-12.83074l-12.68311,10.64439,12.68311.08169c7.19386,0,9.64446,3.46972,11.5331,7.02556,1.78284,3.33538,2.39795,9.08249-.46109,13.8159l-2.10959,3.15282c-7.92461,11.79243-21.47626,25.85389-41.03481,25.85389h-133.97926c-16.74236,0-32.67277-11.44206-35.50819-25.51287-1.19676-5.92033.12502-11.5956,3.70986-15.98307,4.34909-5.30571,11.63447-8.35223,19.97686-8.35223l-14.50725-8.15146c-5.48978,2.08548-10.22811,5.3874-13.76374,9.70843-5.66595,6.91533-7.77062,15.76212-5.93512,24.90219,3.85897,19.13096,24.08089,34.11508,46.02759,34.11508h133.97926c18.94836,0,36.6808-10.86583,49.92982-30.59714l2.15785-3.20547c5.12265-8.20313,5.98278-17.65568,2.24393-24.66697Z"/>
    <path class="cls-7" d="M850.31104,720.05933l14.01762-12.06111-28.03089-28.44425h-18.65954l.0123-8.85417h49.01703l-.02854,3.54895,26.47589-.06053.1742-16.24879-26.72981.03395.03592,4.38845-48.98406.09645-28.97619-16.33442h-38.87703s-28.17803,17.64928-28.17803,17.64928l-.08956,15.78082h-18.49863l-14.46001,29.24192,19.18801,11.06709,142.59132.19634ZM731.40255,667.28126l21.47327-12.49366,34.53877.06446,20.5098,11.8874-.12495,12.72051-74.5171.09399h-1.91082l.03104-12.27271ZM709.10397,689.39576h123.07058l16.99726,17.24724-4.80082,3.37819h-132.82626l-9.67497-5.44153,7.23421-15.18391Z"/>
    <path class="cls-7" d="M695.67288,726.18486c-9.1691,0-16.63213,7.46303-16.63213,16.63656,0,9.1691,7.46303,16.63213,16.63213,16.63213,9.17353,0,16.63659-7.46303,16.63659-16.63213,0-9.17353-7.46306-16.63656-16.63659-16.63656Z"/>
    <path class="cls-7" d="M720.99777,745.2051c0,11.05282,8.99146,20.04379,20.04428,20.04379,11.05286,0,20.04871-8.99097,20.04871-20.04379s-8.99585-20.04871-20.04871-20.04871-20.04428,8.99589-20.04428,20.04871Z"/>
    <path class="cls-7" d="M766.36251,745.2051c0,11.05282,8.99589,20.04379,20.04871,20.04379,11.05282,0,20.04428-8.99097,20.04428-20.04379s-8.99146-20.04871-20.04428-20.04871-20.04871,8.99589-20.04871,20.04871Z"/>
    <path class="cls-7" d="M831.77596,725.15639c-11.05282,0-20.04428,8.99589-20.04428,20.04871,0,11.05282,8.99146,20.04379,20.04428,20.04379,11.05282,0,20.04871-8.99097,20.04871-20.04379s-8.99589-20.04871-20.04871-20.04871Z"/>
    <path class="cls-7" d="M867.30334,747.03617c6.03105,0,10.93718-4.90662,10.93718-10.93767,0-6.03597-4.90613-10.9421-10.93718-10.9421-6.03597,0-10.9421,4.90613-10.9421,10.9421,0,6.03105,4.90613,10.93767,10.9421,10.93767Z"/>
  </g>
  <g>
    <path class="cls-7" d="M354.28211,479.49768c-4.4692-8.39505-12.16744-12.83074-22.25921-12.83074l-12.68311,10.64439,12.68311.08169c7.19386,0,9.64446,3.46972,11.5331,7.02556,1.78284,3.33538,2.39795,9.08249-.46109,13.8159l-2.10959,3.15282c-7.92461,11.79243-21.47626,25.85389-41.03481,25.85389h-133.97926c-16.74236,0-32.67277-11.44206-35.50819-25.51287-1.19676-5.92033.12502-11.5956,3.70986-15.98307,4.34909-5.30571,11.63447-8.35223,19.97686-8.35223l-14.50725-8.15146c-5.48978,2.08548-10.22811,5.3874-13.76374,9.70843-5.66595,6.91533-7.77062,15.76212-5.93512,24.90219,3.85897,19.13096,24.08089,34.11508,46.02759,34.11508h133.97926c18.94836,0,36.6808-10.86583,49.92982-30.59714l2.15785-3.20547c5.12265-8.20313,5.98278-17.65568,2.24393-24.66697Z"/>
    <path class="cls-7" d="M309.38879,476.48166l14.01762-12.06111-28.03089-28.44425h-18.65954l.0123-8.85417h49.01703l-.02854,3.54895,26.47589-.06053.1742-16.24879-26.72981.03395.03592,4.38845-48.98406.09645-28.97619-16.33442h-38.87703l-28.17803,17.64928-.08956,15.78082h-18.49863l-14.46001,29.24192,19.18801,11.06709,142.59132.19634ZM190.4803,423.70359l21.47327-12.49366,34.53877.06446,20.5098,11.8874-.12495,12.72051-74.5171.09399h-1.91082l.03104-12.27271ZM168.18172,445.81809h123.07058l16.99726,17.24724-4.80082,3.37819h-132.82626l-9.67497-5.44153,7.23421-15.18391Z"/>
    <path class="cls-7" d="M154.75064,482.60719c-9.1691,0-16.63213,7.46303-16.63213,16.63656,0,9.1691,7.46303,16.63213,16.63213,16.63213,9.17353,0,16.63659-7.46303,16.63659-16.63213,0-9.17353-7.46306-16.63656-16.63659-16.63656Z"/>
    <path class="cls-7" d="M180.07553,501.62743c0,11.05282,8.99146,20.04379,20.04428,20.04379s20.04871-8.99097,20.04871-20.04379-8.99585-20.04871-20.04871-20.04871-20.04428,8.99589-20.04428,20.04871Z"/>
    <path class="cls-7" d="M225.44027,501.62743c0,11.05282,8.99589,20.04379,20.04871,20.04379s20.04428-8.99097,20.04428-20.04379-8.99146-20.04871-20.04428-20.04871-20.04871,8.99589-20.04871,20.04871Z"/>
    <path class="cls-7" d="M290.85371,481.57872c-11.05282,0-20.04428,8.99589-20.04428,20.04871,0,11.05282,8.99146,20.04379,20.04428,20.04379s20.04871-8.99097,20.04871-20.04379-8.99589-20.04871-20.04871-20.04871Z"/>
    <path class="cls-7" d="M326.3811,503.4585c6.03105,0,10.93718-4.90662,10.93718-10.93767,0-6.03597-4.90613-10.9421-10.93718-10.9421-6.03597,0-10.9421,4.90613-10.9421,10.9421,0,6.03105,4.90613,10.93767,10.9421,10.93767Z"/>
  </g>
  <g>
    <path class="cls-7" d="M624.74324,479.49768c-4.4692-8.39505-12.16744-12.83074-22.25921-12.83074l-12.68311,10.64439,12.68311.08169c7.19386,0,9.64446,3.46972,11.5331,7.02556,1.78284,3.33538,2.39795,9.08249-.46109,13.8159l-2.10959,3.15282c-7.92461,11.79243-21.47626,25.85389-41.03481,25.85389h-133.97926c-16.74236,0-32.67277-11.44206-35.50819-25.51287-1.19676-5.92033.12502-11.5956,3.70986-15.98307,4.34909-5.30571,11.63447-8.35223,19.97686-8.35223l-14.50725-8.15146c-5.48978,2.08548-10.22811,5.3874-13.76374,9.70843-5.66595,6.91533-7.77062,15.76212-5.93512,24.90219,3.85897,19.13096,24.08089,34.11508,46.02759,34.11508h133.97926c18.94836,0,36.6808-10.86583,49.92982-30.59714l2.15785-3.20547c5.12265-8.20313,5.98278-17.65568,2.24393-24.66697Z"/>
    <path class="cls-7" d="M579.84992,476.48166l14.01762-12.06111-28.03089-28.44425h-18.65954l.0123-8.85417h49.01703l-.02854,3.54895,26.47589-.06053.1742-16.24879-26.72981.03395.03592,4.38845-48.98406.09645-28.97619-16.33442h-38.87703l-28.17803,17.64928-.08956,15.78082h-18.49863l-14.46001,29.24192,19.18801,11.06709,142.59132.19634ZM460.94142,423.70359l21.47327-12.49366,34.53877.06446,20.5098,11.8874-.12495,12.72051-74.5171.09399h-1.91082l.03104-12.27271ZM438.64285,445.81809h123.07058l16.99726,17.24724-4.80082,3.37819h-132.82626l-9.67497-5.44153,7.23421-15.18391Z"/>
    <path class="cls-7" d="M425.21176,482.60719c-9.1691,0-16.63213,7.46303-16.63213,16.63656,0,9.1691,7.46303,16.63213,16.63213,16.63213,9.17353,0,16.63659-7.46303,16.63659-16.63213,0-9.17353-7.46306-16.63656-16.63659-16.63656Z"/>
    <path class="cls-7" d="M450.53665,501.62743c0,11.05282,8.99146,20.04379,20.04428,20.04379s20.04871-8.99097,20.04871-20.04379-8.99585-20.04871-20.04871-20.04871-20.04428,8.99589-20.04428,20.04871Z"/>
    <path class="cls-7" d="M495.90139,501.62743c0,11.05282,8.99589,20.04379,20.04871,20.04379s20.04428-8.99097,20.04428-20.04379-8.99146-20.04871-20.04428-20.04871-20.04871,8.99589-20.04871,20.04871Z"/>
    <path class="cls-7" d="M561.31484,481.57872c-11.05282,0-20.04428,8.99589-20.04428,20.04871s8.99146,20.04379,20.04428,20.04379,20.04871-8.99097,20.04871-20.04379-8.99589-20.04871-20.04871-20.04871Z"/>
    <path class="cls-7" d="M596.84222,503.4585c6.03105,0,10.93718-4.90662,10.93718-10.93767,0-6.03597-4.90613-10.9421-10.93718-10.9421-6.03597,0-10.9421,4.90613-10.9421,10.9421,0,6.03105,4.90613,10.93767,10.9421,10.93767Z"/>
  </g>
  <g>
    <path class="cls-7" d="M895.20436,479.49768c-4.4692-8.39505-12.16744-12.83074-22.25921-12.83074l-12.68311,10.64439,12.68311.08169c7.19386,0,9.64446,3.46972,11.5331,7.02556,1.78284,3.33538,2.39795,9.08249-.46109,13.8159l-2.10959,3.15282c-7.92461,11.79243-21.47626,25.85389-41.03481,25.85389h-133.97926c-16.74236,0-32.67277-11.44206-35.50819-25.51287-1.19676-5.92033.12502-11.5956,3.70986-15.98307,4.34909-5.30571,11.63447-8.35223,19.97686-8.35223l-14.50725-8.15146c-5.48978,2.08548-10.22811,5.3874-13.76374,9.70843-5.66595,6.91533-7.77062,15.76212-5.93512,24.90219,3.85897,19.13096,24.08089,34.11508,46.02759,34.11508h133.97926c18.94836,0,36.6808-10.86583,49.92982-30.59714l2.15785-3.20547c5.12265-8.20313,5.98278-17.65568,2.24393-24.66697Z"/>
    <path class="cls-7" d="M850.31104,476.48166l14.01762-12.06111-28.03089-28.44425h-18.65954l.0123-8.85417h49.01703l-.02854,3.54895,26.47589-.06053.1742-16.24879-26.72981.03395.03592,4.38845-48.98406.09645-28.97619-16.33442h-38.87703l-28.17803,17.64928-.08956,15.78082h-18.49863l-14.46001,29.24192,19.18801,11.06709,142.59132.19634ZM731.40255,423.70359l21.47327-12.49366,34.53877.06446,20.5098,11.8874-.12495,12.72051-74.5171.09399h-1.91082l.03104-12.27271ZM709.10397,445.81809h123.07058l16.99726,17.24724-4.80082,3.37819h-132.82626l-9.67497-5.44153,7.23421-15.18391Z"/>
    <path class="cls-7" d="M695.67288,482.60719c-9.1691,0-16.63213,7.46303-16.63213,16.63656,0,9.1691,7.46303,16.63213,16.63213,16.63213,9.17353,0,16.63659-7.46303,16.63659-16.63213,0-9.17353-7.46306-16.63656-16.63659-16.63656Z"/>
    <path class="cls-7" d="M720.99777,501.62743c0,11.05282,8.99146,20.04379,20.04428,20.04379s20.04871-8.99097,20.04871-20.04379-8.99585-20.04871-20.04871-20.04871-20.04428,8.99589-20.04428,20.04871Z"/>
    <path class="cls-7" d="M766.36251,501.62743c0,11.05282,8.99589,20.04379,20.04871,20.04379s20.04428-8.99097,20.04428-20.04379-8.99146-20.04871-20.04428-20.04871-20.04871,8.99589-20.04871,20.04871Z"/>
    <path class="cls-7" d="M831.77596,481.57872c-11.05282,0-20.04428,8.99589-20.04428,20.04871,0,11.05282,8.99146,20.04379,20.04428,20.04379s20.04871-8.99097,20.04871-20.04379-8.99589-20.04871-20.04871-20.04871Z"/>
    <path class="cls-7" d="M867.30334,503.4585c6.03105,0,10.93718-4.90662,10.93718-10.93767,0-6.03597-4.90613-10.9421-10.93718-10.9421-6.03597,0-10.9421,4.90613-10.9421,10.9421,0,6.03105,4.90613,10.93767,10.9421,10.93767Z"/>
  </g>
  <path class="cls-2" d="M228.95161,219.15463c8.53642,33.74604,49.98904,53.13735,92.58673,43.31183,42.59812-9.82558,70.21003-45.14749,61.6736-78.89354-8.53644-33.74604-49.98905-53.13735-92.58718-43.31177-42.59769,9.82552-70.21003,45.14749-61.67314,78.89348Z"/>
  <path class="cls-8" d="M471.56609,201.87542l.69067.52246.34509.26904c.02734.021.05994.0498.09497.08545-.34741.55078-.24182.08301-.30933.20508-.94533-.58277-3.56753-2.27671-4.56302-2.9043-49.25791-30.57032-109.96067-58.43113-168.99143-48.36711-41.47776,6.23183-88.83433,25.28911-128.5706,39.42541-26.07758,9.10555-53.36438,17.85495-81.25568,20.21228-9.35304.7426-18.78419.7387-27.98414-.5655,18.28442-3.15576,35.39453-8.88281,52.14917-15.63379,29.43783-11.96626,58.17442-26.68088,87.68182-38.86316,39.11553-15.95194,81.39689-29.44314,124.28224-27.47221,52.345,3.52623,100.58836,30.52173,138.66442,65.22316,3.01971,2.79181,5.94862,5.69678,8.79925,8.65959-.02722.14696.19031-.2173-.16663.27977-.01147-.01904-.02698-.04346-.05054-.07275l-.26709-.33447-.54919-.66895h0Z"/>
  <path class="cls-8" d="M434.20098,217.56732c-.53361-.19631-1.20061.04294-1.72539.15572-2.37659.8316-4.51648,2.22216-6.64817,3.55079-4.40954,2.90856-10.96157,7.46531-15.3657,10.57764-1.38733.94298-4.4348,3.09014-5.75263,3.97659-5.92787,3.43876-11.52775,7.35462-17.58159,11.28419-10.91244,7.17322-22.52073,13.90373-34.86492,18.72746-37.67654,15.10828-80.10696,9.8697-117.06147-4.57497-29.95802-11.56482-57.88939-28.18245-83.18014-47.8672,11.66829,5.17955,23.23763,10.35973,34.86605,15.24205,49.82056,20.52054,106.4432,40.20735,159.03769,20.56571,17.77451-6.3988,32.07199-16.36959,49.40792-25.62737.00007.00013,2.24958-1.14001,2.24958-1.14001,6.92109-2.70544,14.03133-5.07692,21.42737-6.2251,4.4403-.63985,9.17154-1.19672,13.54603.22986-.00001.00013.62304.2721.62304.2721.3949.21191.80762.46582,1.02234.85254h0Z"/>
  <path class="cls-8" d="M269.384,221.94918c5.12303,20.21602,27.52128,32.45439,50.02781,27.33503,22.50649-5.11936,36.59873-25.65795,31.47573-45.87398-5.12346-20.21597-27.52172-32.45434-50.02825-27.33498-22.50651,5.11936-36.5988,25.65752-31.47529,45.87392Z"/>
  <path class="cls-4" d="M311.20267,213.22372c-3.70764,6.86282-1.1503,15.43195,5.71251,19.13959,6.86287,3.70807,15.43195,1.1503,19.14002-5.71257,3.70764-6.86282,1.14989-15.4319-5.71257-19.14002-6.86282-3.70764-15.43233-1.14981-19.13997,5.713Z"/>
  <path class="cls-2" d="M786.31044,208.73438c-5.79443,35.17371-45.87577,58.61975-89.52466,52.36796-43.64843-6.25138-74.33537-39.83329-68.54094-75.00662,5.79443-35.17371,45.87621-58.61973,89.52467-52.36834,43.64889,6.25179,74.33581,39.83332,68.54093,75.00701Z"/>
  <path class="cls-8" d="M544.55645,213.19427c33.8326-44.72942,86.15162-79.20914,142.51483-86.25091,56.89222-6.25614,113.12033,12.19233,165.71367,31.21127,34.631,12.32082,68.12388,25.78182,105.14489,29.09885-9.09176,2.08288-18.5234,2.88953-27.94113,2.94275-28.07015.0447-55.95517-6.36865-83.00193-13.27879-36.13215-9.52868-82.10167-23.26704-118.759-27.4427-8.7258-.97026-17.48116-1.86048-26.25566-1.97146-13.01928-.17981-25.92196,1.22068-38.73181,3.9059-43.96394,9.60602-84.19103,33.06024-118.68385,61.7851h0Z"/>
  <path class="cls-8" d="M578.71074,221.38958c6.43931-2.47973,13.7395-1.48105,20.40439-.66141,6.6896,1.03641,13.1824,2.73661,19.4982,4.79569,12.67078,5.21631,23.70251,11.43896,35.16589,16.10742,25.51648,11.13845,52.72997,13.9942,80.07303,9.05246,47.09237-8.42391,89.35805-32.32745,130.94889-55.13183-19.14533,17.71689-40.25878,33.4079-62.91935,46.39876-40.67652,23.43646-89.81843,37.75622-136.01862,22.83261-18.97949-5.67991-36.11046-16.55596-53.36739-25.4277-.00014.00031-16.48952-9.47918-16.48952-9.47918-5.64566-2.99797-11.10074-6.64048-17.29553-8.48682h0Z"/>
  <path class="cls-8" d="M746.05608,214.02424c-3.43202,20.75368-24.90404,34.95592-47.95958,31.72242-23.05509-3.23393-38.96263-22.67927-35.53062-43.43252,3.43202-20.75368,24.90404-34.95592,47.95958-31.72242,23.05509,3.23393,38.96263,22.67927,35.53062,43.43252Z"/>
  <path class="cls-4" d="M703.28493,208.80675c4.30915,6.58229,2.46639,15.41216-4.11591,19.72174-6.58272,4.30913-15.4126,2.46638-19.72218-4.11592-4.30913-6.58272-2.46635-15.41259,4.11591-19.72174,6.58274-4.30957,15.41261-2.46682,19.72218,4.11592Z"/>
  <path class="cls-3" d="M1164.15161,219.15463c8.53642,33.74604,49.98904,53.13735,92.58673,43.31183,42.59812-9.82558,70.21003-45.14749,61.6736-78.89354s-49.98905-53.13735-92.58718-43.31177c-42.59769,9.82552-70.21003,45.14749-61.67314,78.89348Z"/>
  <path class="cls-7" d="M1406.7661,201.87542l.69067.52246.34509.26904c.02728.021.05994.0498.09491.08545-.34741.55078-.2417.08301-.30927.20508-.94534-.58279-3.5675-2.27665-4.56296-2.9043-49.25802-30.57027-109.96064-58.43113-168.99149-48.3671-41.47781,6.23183-88.83436,25.28916-128.57066,39.42541-26.07771,9.10559-53.36444,17.855-81.2558,20.21228-9.35292.7426-18.78407.7387-27.9839-.5655,18.2843-3.15576,35.39441-8.88281,52.14905-15.63379,29.43785-11.96626,58.17452-26.68088,87.68182-38.86316,39.11557-15.95193,81.39692-29.44315,124.2823-27.47221,52.34501,3.52624,100.58833,30.52172,138.66442,65.22316,3.01966,2.79182,5.94862,5.69675,8.79925,8.65959-.02716.14696.19031-.2173-.16663.27977-.01154-.01904-.02698-.04346-.0506-.07275l-.26703-.33447-.54919-.66895h0Z"/>
  <path class="cls-7" d="M1369.40105,217.56732c-.53372-.1963-1.20068.04292-1.72551.15572-2.37658.83165-4.51646,2.22216-6.64811,3.55079-4.40958,2.90855-10.96161,7.46529-15.36576,10.57764-1.38732.94299-4.43474,3.09015-5.75257,3.97659-5.92785,3.43882-11.52779,7.35461-17.58159,11.28419-10.91247,7.17319-22.5207,13.9037-34.86492,18.72746-37.67649,15.10825-80.10696,9.86974-117.06141-4.57497-29.95796-11.56473-57.88958-28.18254-83.18027-47.8672,11.66841,5.17955,23.23775,10.35973,34.86605,15.24205,49.82066,20.52051,106.44314,40.20738,159.03769,20.56571,17.77458-6.39874,32.07203-16.36957,49.40798-25.62737.00007.00013,2.24952-1.14001,2.24952-1.14001,6.92106-2.70538,14.03137-5.07694,21.42737-6.2251,4.44036-.63984,9.17156-1.19674,13.54603.22986-.00001.00013.6231.2721.6231.2721.3949.21191.80768.46582,1.0224.85254h0Z"/>
  <path class="cls-7" d="M1204.584,221.94918c5.12303,20.21602,27.52128,32.45439,50.02781,27.33503,22.50649-5.11936,36.59873-25.65795,31.47573-45.87398-5.12346-20.21597-27.52172-32.45434-50.02825-27.33498-22.50651,5.11936-36.5988,25.65752-31.47529,45.87392Z"/>
  <path class="cls-4" d="M1246.40267,213.22372c-3.70764,6.86282-1.1503,15.43195,5.71251,19.13959,6.86287,3.70807,15.43195,1.1503,19.14002-5.71257,3.70764-6.86282,1.14989-15.4319-5.71257-19.14002-6.86282-3.70764-15.43233-1.14981-19.13997,5.713Z"/>
  <path class="cls-3" d="M1721.51044,208.73438c-5.79443,35.17371-45.87577,58.61975-89.52466,52.36796-43.64843-6.25138-74.33537-39.83329-68.54094-75.00662,5.79443-35.17371,45.87621-58.61973,89.52467-52.36834,43.64889,6.25179,74.33581,39.83332,68.54093,75.00701Z"/>
  <path class="cls-7" d="M1479.75646,213.19427c33.83251-44.72941,86.15166-79.20914,142.51476-86.25091,56.89226-6.25612,113.12032,12.1923,165.7137,31.21127,34.63103,12.32079,68.12381,25.78181,105.14486,29.09885-9.09167,2.08288-18.5234,2.88952-27.94104,2.94275-28.07021.0447-55.95514-6.36863-83.00196-13.27879-36.13219-9.52868-82.10165-23.26704-118.75906-27.4427-8.72574-.97026-17.48114-1.86048-26.25554-1.97146-13.01941-.17981-25.92194,1.22068-38.73193,3.9059-43.96398,9.60606-84.19097,33.0602-118.68378,61.7851h0Z"/>
  <path class="cls-7" d="M1513.91069,221.38958c6.43935-2.47971,13.73944-1.48107,20.40439-.66141,6.68966,1.03641,13.1824,2.73661,19.49826,4.79569,12.67078,5.21631,23.70251,11.43896,35.16589,16.10742,25.51643,11.13845,52.73005,13.99419,80.07303,9.05246,47.09231-8.42391,89.35808-32.32745,130.94883-55.13183-19.14529,17.71692-40.25877,33.40793-62.91928,46.39876-40.67647,23.43644-89.81849,37.75622-136.01862,22.83261-18.97951-5.67987-36.11046-16.55596-53.36739-25.4277-.00014.00031-16.48952-9.47918-16.48952-9.47918-5.6458-2.99803-11.10066-6.64048-17.29559-8.48682h0Z"/>
  <path class="cls-7" d="M1681.25608,214.02424c-3.43202,20.75368-24.90404,34.95592-47.95958,31.72242-23.05509-3.23393-38.96263-22.67927-35.53062-43.43252,3.43202-20.75368,24.90404-34.95592,47.95958-31.72242,23.05509,3.23393,38.96263,22.67927,35.53062,43.43252Z"/>
  <path class="cls-4" d="M1638.48493,208.80675c4.30915,6.58229,2.46639,15.41216-4.11591,19.72174-6.58272,4.30913-15.4126,2.46638-19.72218-4.11592-4.30913-6.58272-2.46635-15.41259,4.11591-19.72174,6.58274-4.30957,15.41261-2.46682,19.72218,4.11592Z"/>
  <line class="cls-5" x1="136.98178" y1="559.56668" x2="336.00078" y2="386.77312"/>
  <line class="cls-5" x1="136.04794" y1="386.77312" x2="338.38455" y2="556.73346"/>
  <line class="cls-5" x1="404.8252" y1="559.56668" x2="603.84419" y2="386.77312"/>
  <line class="cls-5" x1="403.89136" y1="386.77312" x2="606.22797" y2="556.73346"/>
  <line class="cls-5" x1="136.98178" y1="796.64139" x2="336.00078" y2="623.84783"/>
  <line class="cls-5" x1="136.04794" y1="623.84783" x2="338.38455" y2="793.80817"/>
  <line class="cls-5" x1="404.8252" y1="796.64139" x2="603.84419" y2="623.84783"/>
  <line class="cls-5" x1="403.89136" y1="623.84783" x2="606.22797" y2="793.80817"/>
  <g>
    <path class="cls-8" d="M1450.42576,723.07535c4.4692-8.39505,12.16744-12.83074,22.25921-12.83074l12.68311,10.64439-12.68311.08169c-7.19386,0-9.64446,3.46972-11.5331,7.02556-1.78284,3.33538-2.39795,9.08249.46109,13.8159l2.10959,3.15282c7.92461,11.79243,21.47626,25.85389,41.03481,25.85389h133.97926c16.74236,0,32.67277-11.44206,35.50819-25.51287,1.19676-5.92033-.12502-11.5956-3.70986-15.98307-4.34909-5.30571-11.63447-8.35223-19.97686-8.35223l14.50725-8.15146c5.48978,2.08548,10.22811,5.3874,13.76374,9.70843,5.66595,6.91533,7.77062,15.76212,5.93512,24.90219-3.85897,19.13096-24.08089,34.11508-46.02759,34.11508h-133.97926c-18.94836,0-36.6808-10.86583-49.92982-30.59714l-2.15785-3.20547c-5.12265-8.20313-5.98278-17.65568-2.24393-24.66697Z"/>
    <path class="cls-8" d="M1637.91039,719.86299l19.18801-11.06709-14.46001-29.24192h-18.49863s-.08956-15.78082-.08956-15.78082l-28.17803-17.64928h-38.87703s-28.97619,16.33442-28.97619,16.33442l-48.98406-.09645.03592-4.38845-26.72981-.03395.1742,16.24879,26.47589.06053-.02854-3.54895h49.01703s.0123,8.85417.0123,8.85417h-18.65954s-28.03089,28.44425-28.03089,28.44425l14.01762,12.06111,142.59132-.19634ZM1614.25861,679.55397h-1.91082s-74.5171-.09399-74.5171-.09399l-.12495-12.72051,20.5098-11.8874,34.53877-.06446,21.47327,12.49366.03104,12.27271ZM1643.76035,704.57967l-9.67497,5.44153h-132.82626s-4.80082-3.37819-4.80082-3.37819l16.99726-17.24724h123.07058s7.23421,15.18391,7.23421,15.18391Z"/>
    <path class="cls-8" d="M1649.95724,726.18486c9.1691,0,16.63213,7.46303,16.63213,16.63656,0,9.1691-7.46303,16.63213-16.63213,16.63213-9.17353,0-16.63659-7.46303-16.63659-16.63213,0-9.17353,7.46306-16.63656,16.63659-16.63656Z"/>
    <path class="cls-8" d="M1624.63234,745.2051c0,11.05282-8.99146,20.04379-20.04428,20.04379-11.05286,0-20.04871-8.99097-20.04871-20.04379,0-11.05282,8.99585-20.04871,20.04871-20.04871,11.05282,0,20.04428,8.99589,20.04428,20.04871Z"/>
    <path class="cls-8" d="M1579.2676,745.2051c0,11.05282-8.99589,20.04379-20.04871,20.04379s-20.04428-8.99097-20.04428-20.04379c0-11.05282,8.99146-20.04871,20.04428-20.04871s20.04871,8.99589,20.04871,20.04871Z"/>
    <path class="cls-8" d="M1513.85416,725.15639c11.05282,0,20.04428,8.99589,20.04428,20.04871,0,11.05282-8.99146,20.04379-20.04428,20.04379-11.05282,0-20.04871-8.99097-20.04871-20.04379,0-11.05282,8.99589-20.04871,20.04871-20.04871Z"/>
    <path class="cls-8" d="M1478.32677,747.03617c-6.03105,0-10.93718-4.90662-10.93718-10.93767s4.90613-10.9421,10.93718-10.9421c6.03597,0,10.9421,4.90613,10.9421,10.9421s-4.90613,10.93767-10.9421,10.93767Z"/>
  </g>
  <g>
    <path class="cls-8" d="M1179.96463,723.07535c4.4692-8.39505,12.16744-12.83074,22.25921-12.83074l12.68311,10.64439-12.68311.08169c-7.19386,0-9.64446,3.46972-11.5331,7.02556-1.78284,3.33538-2.39795,9.08249.46109,13.8159l2.10959,3.15282c7.92461,11.79243,21.47626,25.85389,41.03481,25.85389h133.97926c16.74236,0,32.67277-11.44206,35.50819-25.51287,1.19676-5.92033-.12502-11.5956-3.70986-15.98307-4.34909-5.30571-11.63447-8.35223-19.97686-8.35223l14.50725-8.15146c5.48978,2.08548,10.22811,5.3874,13.76374,9.70843,5.66595,6.91533,7.77062,15.76212,5.93512,24.90219-3.85897,19.13096-24.08089,34.11508-46.02759,34.11508h-133.97926c-18.94836,0-36.6808-10.86583-49.92982-30.59714l-2.15785-3.20547c-5.12265-8.20313-5.98278-17.65568-2.24393-24.66697Z"/>
    <path class="cls-8" d="M1367.44927,719.86299l19.18801-11.06709-14.46001-29.24192h-18.49863s-.08956-15.78082-.08956-15.78082l-28.17803-17.64928h-38.87703s-28.97619,16.33442-28.97619,16.33442l-48.98406-.09645.03592-4.38845-26.72981-.03395.1742,16.24879,26.47589.06053-.02854-3.54895h49.01703s.0123,8.85417.0123,8.85417h-18.65954s-28.03089,28.44425-28.03089,28.44425l14.01762,12.06111,142.59132-.19634ZM1343.79748,679.55397h-1.91082s-74.5171-.09399-74.5171-.09399l-.12495-12.72051,20.5098-11.8874,34.53877-.06446,21.47327,12.49366.03104,12.27271ZM1373.29923,704.57967l-9.67497,5.44153h-132.82626s-4.80082-3.37819-4.80082-3.37819l16.99726-17.24724h123.07058s7.23421,15.18391,7.23421,15.18391Z"/>
    <path class="cls-8" d="M1379.49611,726.18486c9.1691,0,16.63213,7.46303,16.63213,16.63656,0,9.1691-7.46303,16.63213-16.63213,16.63213-9.17353,0-16.63659-7.46303-16.63659-16.63213,0-9.17353,7.46306-16.63656,16.63659-16.63656Z"/>
    <path class="cls-8" d="M1354.17122,745.2051c0,11.05282-8.99146,20.04379-20.04428,20.04379-11.05286,0-20.04871-8.99097-20.04871-20.04379,0-11.05282,8.99585-20.04871,20.04871-20.04871,11.05282,0,20.04428,8.99589,20.04428,20.04871Z"/>
    <path class="cls-8" d="M1308.80648,745.2051c0,11.05282-8.99589,20.04379-20.04871,20.04379-11.05282,0-20.04428-8.99097-20.04428-20.04379,0-11.05282,8.99146-20.04871,20.04428-20.04871,11.05282,0,20.04871,8.99589,20.04871,20.04871Z"/>
    <path class="cls-8" d="M1243.39303,725.15639c11.05282,0,20.04428,8.99589,20.04428,20.04871s-8.99146,20.04379-20.04428,20.04379c-11.05282,0-20.04871-8.99097-20.04871-20.04379,0-11.05282,8.99589-20.04871,20.04871-20.04871Z"/>
    <path class="cls-8" d="M1207.86565,747.03617c-6.03105,0-10.93718-4.90662-10.93718-10.93767s4.90613-10.9421,10.93718-10.9421c6.03597,0,10.9421,4.90613,10.9421,10.9421s-4.90613,10.93767-10.9421,10.93767Z"/>
  </g>
  <g>
    <path class="cls-8" d="M1450.42576,479.49768c4.4692-8.39505,12.16744-12.83074,22.25921-12.83074l12.68311,10.64439-12.68311.08169c-7.19386,0-9.64446,3.46972-11.5331,7.02556-1.78284,3.33538-2.39795,9.08249.46109,13.8159l2.10959,3.15282c7.92461,11.79243,21.47626,25.85389,41.03481,25.85389h133.97926c16.74236,0,32.67277-11.44206,35.50819-25.51287,1.19676-5.92033-.12502-11.5956-3.70986-15.98307-4.34909-5.30571-11.63447-8.35223-19.97686-8.35223l14.50725-8.15146c5.48978,2.08548,10.22811,5.3874,13.76374,9.70843,5.66595,6.91533,7.77062,15.76212,5.93512,24.90219-3.85897,19.13096-24.08089,34.11508-46.02759,34.11508h-133.97926c-18.94836,0-36.6808-10.86583-49.92982-30.59714l-2.15785-3.20547c-5.12265-8.20313-5.98278-17.65568-2.24393-24.66697Z"/>
    <path class="cls-8" d="M1637.91039,476.28532l19.18801-11.06709-14.46001-29.24192h-18.49863s-.08956-15.78082-.08956-15.78082l-28.17803-17.64928h-38.87703s-28.97619,16.33442-28.97619,16.33442l-48.98406-.09645.03592-4.38845-26.72981-.03395.1742,16.24879,26.47589.06053-.02854-3.54895h49.01703s.0123,8.85417.0123,8.85417h-18.65954s-28.03089,28.44425-28.03089,28.44425l14.01762,12.06111,142.59132-.19634ZM1614.25861,435.9763h-1.91082s-74.5171-.09399-74.5171-.09399l-.12495-12.72051,20.5098-11.8874,34.53877-.06446,21.47327,12.49366.03104,12.27271ZM1643.76035,461.002l-9.67497,5.44153h-132.82626s-4.80082-3.37819-4.80082-3.37819l16.99726-17.24724h123.07058s7.23421,15.18391,7.23421,15.18391Z"/>
    <path class="cls-8" d="M1649.95724,482.60719c9.1691,0,16.63213,7.46303,16.63213,16.63656s-7.46303,16.63213-16.63213,16.63213c-9.17353,0-16.63659-7.46303-16.63659-16.63213s7.46306-16.63656,16.63659-16.63656Z"/>
    <path class="cls-8" d="M1624.63234,501.62743c0,11.05282-8.99146,20.04379-20.04428,20.04379-11.05286,0-20.04871-8.99097-20.04871-20.04379,0-11.05282,8.99585-20.04871,20.04871-20.04871,11.05282,0,20.04428,8.99589,20.04428,20.04871Z"/>
    <path class="cls-8" d="M1579.2676,501.62743c0,11.05282-8.99589,20.04379-20.04871,20.04379-11.05282,0-20.04428-8.99097-20.04428-20.04379s8.99146-20.04871,20.04428-20.04871,20.04871,8.99589,20.04871,20.04871Z"/>
    <path class="cls-8" d="M1513.85416,481.57872c11.05282,0,20.04428,8.99589,20.04428,20.04871,0,11.05282-8.99146,20.04379-20.04428,20.04379-11.05282,0-20.04871-8.99097-20.04871-20.04379s8.99589-20.04871,20.04871-20.04871Z"/>
    <path class="cls-8" d="M1478.32677,503.4585c-6.03105,0-10.93718-4.90662-10.93718-10.93767s4.90613-10.9421,10.93718-10.9421c6.03597,0,10.9421,4.90613,10.9421,10.9421,0,6.03105-4.90613,10.93767-10.9421,10.93767Z"/>
  </g>
  <g>
    <path class="cls-8" d="M1179.96463,479.49768c4.4692-8.39505,12.16744-12.83074,22.25921-12.83074l12.68311,10.64439-12.68311.08169c-7.19386,0-9.64446,3.46972-11.5331,7.02556-1.78284,3.33538-2.39795,9.08249.46109,13.8159l2.10959,3.15282c7.92461,11.79243,21.47626,25.85389,41.03481,25.85389h133.97926c16.74236,0,32.67277-11.44206,35.50819-25.51287,1.19676-5.92033-.12502-11.5956-3.70986-15.98307-4.34909-5.30571-11.63447-8.35223-19.97686-8.35223l14.50725-8.15146c5.48978,2.08548,10.22811,5.3874,13.76374,9.70843,5.66595,6.91533,7.77062,15.76212,5.93512,24.90219-3.85897,19.13096-24.08089,34.11508-46.02759,34.11508h-133.97926c-18.94836,0-36.6808-10.86583-49.92982-30.59714l-2.15785-3.20547c-5.12265-8.20313-5.98278-17.65568-2.24393-24.66697Z"/>
    <path class="cls-8" d="M1367.44927,476.28532l19.18801-11.06709-14.46001-29.24192h-18.49863s-.08956-15.78082-.08956-15.78082l-28.17803-17.64928h-38.87703s-28.97619,16.33442-28.97619,16.33442l-48.98406-.09645.03592-4.38845-26.72981-.03395.1742,16.24879,26.47589.06053-.02854-3.54895h49.01703s.0123,8.85417.0123,8.85417h-18.65954s-28.03089,28.44425-28.03089,28.44425l14.01762,12.06111,142.59132-.19634ZM1343.79748,435.9763h-1.91082s-74.5171-.09399-74.5171-.09399l-.12495-12.72051,20.5098-11.8874,34.53877-.06446,21.47327,12.49366.03104,12.27271ZM1373.29923,461.002l-9.67497,5.44153h-132.82626s-4.80082-3.37819-4.80082-3.37819l16.99726-17.24724h123.07058s7.23421,15.18391,7.23421,15.18391Z"/>
    <path class="cls-8" d="M1379.49611,482.60719c9.1691,0,16.63213,7.46303,16.63213,16.63656s-7.46303,16.63213-16.63213,16.63213c-9.17353,0-16.63659-7.46303-16.63659-16.63213s7.46306-16.63656,16.63659-16.63656Z"/>
    <path class="cls-8" d="M1354.17122,501.62743c0,11.05282-8.99146,20.04379-20.04428,20.04379-11.05286,0-20.04871-8.99097-20.04871-20.04379,0-11.05282,8.99585-20.04871,20.04871-20.04871,11.05282,0,20.04428,8.99589,20.04428,20.04871Z"/>
    <path class="cls-8" d="M1308.80648,501.62743c0,11.05282-8.99589,20.04379-20.04871,20.04379-11.05282,0-20.04428-8.99097-20.04428-20.04379s8.99146-20.04871,20.04428-20.04871c11.05282,0,20.04871,8.99589,20.04871,20.04871Z"/>
    <path class="cls-8" d="M1243.39303,481.57872c11.05282,0,20.04428,8.99589,20.04428,20.04871,0,11.05282-8.99146,20.04379-20.04428,20.04379s-20.04871-8.99097-20.04871-20.04379c0-11.05282,8.99589-20.04871,20.04871-20.04871Z"/>
    <path class="cls-8" d="M1207.86565,503.4585c-6.03105,0-10.93718-4.90662-10.93718-10.93767s4.90613-10.9421,10.93718-10.9421c6.03597,0,10.9421,4.90613,10.9421,10.9421s-4.90613,10.93767-10.9421,10.93767Z"/>
  </g>
  <line class="cls-1" x1="1667.72609" y1="559.56668" x2="1468.70709" y2="386.77312"/>
  <line class="cls-1" x1="1668.65993" y1="386.77312" x2="1466.32332" y2="556.73346"/>
  <line class="cls-1" x1="1676.94161" y1="800.57578" x2="1477.92261" y2="627.78222"/>
  <line class="cls-1" x1="1677.87545" y1="627.78222" x2="1475.53883" y2="797.74257"/>
</svg>