<svg xmlns="http://www.w3.org/2000/svg" viewBox="0 0 1920 1080"><defs><style>.cls-1,.cls-16,.cls-2,.cls-20,.cls-24,.cls-3,.cls-31,.cls-8{fill:none;}.cls-1{stroke:#666;}.cls-1,.cls-11,.cls-12,.cls-15,.cls-16,.cls-19,.cls-2,.cls-20,.cls-23,.cls-24,.cls-25,.cls-26,.cls-3,.cls-31,.cls-35,.cls-37,.cls-42,.cls-43,.cls-44,.cls-45,.cls-7,.cls-8{stroke-miterlimit:10;}.cls-1,.cls-2,.cls-3{stroke-width:2.21px;}.cls-2{stroke:#ccc;}.cls-3{stroke:#999;}.cls-4{font-size:26.57px;font-family:MyriadPro-Regular, Myriad Pro;}.cls-5{fill:#4e647a;}.cls-6{fill:#90b2d4;}.cls-7{fill:#5e8cba;}.cls-11,.cls-12,.cls-15,.cls-16,.cls-19,.cls-20,.cls-23,.cls-24,.cls-25,.cls-26,.cls-31,.cls-35,.cls-37,.cls-42,.cls-43,.cls-44,.cls-45,.cls-7,.cls-8{stroke:#fff;}.cls-7,.cls-8{stroke-width:0.83px;}.cls-9{fill:#7a684e;}.cls-10{fill:#d4b890;}.cls-11,.cls-30{fill:gray;}.cls-11,.cls-12{stroke-width:1.05px;}.cls-12{fill:#e5c494;}.cls-13{fill:#4e7a6c;}.cls-14{fill:#90d4bf;}.cls-15,.cls-43{fill:#66c2a5;}.cls-15,.cls-16{stroke-width:2.02px;}.cls-17{fill:#8f7e2d;}.cls-18{fill:#dec75d;}.cls-19,.cls-44{fill:#ffd92f;}.cls-19,.cls-20{stroke-width:1.6px;}.cls-21{fill:#6e8a41;}.cls-22{fill:#b5db77;}.cls-23{fill:#a6d854;}.cls-23,.cls-24{stroke-width:2.77px;}.cls-25{fill:#cbc9e2;}.cls-25,.cls-26,.cls-31,.cls-35,.cls-37,.cls-42,.cls-43,.cls-44,.cls-45{stroke-width:1.11px;}.cls-26{fill:#8a8899;}.cls-27{font-size:23.95px;}.cls-27,.cls-46{fill:#fff;font-family:Roboto-Regular, Roboto;}.cls-28{letter-spacing:-0.01em;}.cls-29{fill:#772000;}.cls-32{letter-spacing:-0.02em;}.cls-33{letter-spacing:-0.04em;}.cls-34{letter-spacing:-0.01em;}.cls-35{fill:#608075;}.cls-36{letter-spacing:-0.04em;}.cls-37{fill:#7a724d;}.cls-38{letter-spacing:-0.01em;}.cls-39{letter-spacing:-0.01em;}.cls-40{letter-spacing:-0.01em;}.cls-41{letter-spacing:0em;}.cls-42{fill:#755f61;}.cls-45{fill:#fbb4b9;}.cls-46{font-size:44.28px;}.cls-47{letter-spacing:-0.01em;}.cls-48{letter-spacing:-0.01em;}.cls-49{letter-spacing:0em;}</style></defs><title>Zeichenfläche 1</title><g id="Ticks"><line class="cls-1" x1="77.14" y1="33" x2="77.14" y2="1080"/><line class="cls-2" x1="104.35" y1="82.3" x2="104.35" y2="1080"/><line class="cls-2" x1="131.55" y1="82.3" x2="131.55" y2="1080"/><line class="cls-2" x1="158.76" y1="82.3" x2="158.76" y2="1080"/><line class="cls-2" x1="185.96" y1="82.3" x2="185.96" y2="1080"/><line class="cls-3" x1="213.17" y1="64.52" x2="213.17" y2="1080"/><line class="cls-2" x1="240.37" y1="82.3" x2="240.37" y2="1080"/><line class="cls-2" x1="267.58" y1="82.3" x2="267.58" y2="1080"/><line class="cls-2" x1="294.78" y1="82.3" x2="294.78" y2="1080"/><line class="cls-2" x1="319.27" y1="82.3" x2="319.27" y2="1080"/><line class="cls-1" x1="346.47" y1="33" x2="346.47" y2="1080"/><line class="cls-2" x1="373.68" y1="82.3" x2="373.68" y2="1080"/><line class="cls-2" x1="400.88" y1="82.3" x2="400.88" y2="1080"/><line class="cls-2" x1="428.09" y1="82.3" x2="428.09" y2="1080"/><line class="cls-2" x1="455.29" y1="82.3" x2="455.29" y2="1080"/><line class="cls-3" x1="482.5" y1="64.52" x2="482.5" y2="1080"/><line class="cls-2" x1="509.7" y1="82.3" x2="509.7" y2="1080"/><line class="cls-2" x1="536.91" y1="82.3" x2="536.91" y2="1080"/><line class="cls-2" x1="564.11" y1="82.3" x2="564.11" y2="1080"/><line class="cls-2" x1="588.6" y1="82.3" x2="588.6" y2="1080"/><line class="cls-1" x1="615.8" y1="33" x2="615.8" y2="1080"/><line class="cls-2" x1="643.01" y1="82.3" x2="643.01" y2="1080"/><line class="cls-2" x1="670.21" y1="82.3" x2="670.21" y2="1080"/><line class="cls-2" x1="697.42" y1="82.3" x2="697.42" y2="1080"/><line class="cls-2" x1="724.62" y1="82.3" x2="724.62" y2="1080"/><line class="cls-3" x1="751.83" y1="64.52" x2="751.83" y2="1080"/><line class="cls-2" x1="779.03" y1="82.3" x2="779.03" y2="1080"/><line class="cls-2" x1="806.24" y1="82.3" x2="806.24" y2="1080"/><line class="cls-2" x1="833.44" y1="82.3" x2="833.44" y2="1080"/><line class="cls-2" x1="857.92" y1="82.3" x2="857.92" y2="1080"/><line class="cls-1" x1="885.13" y1="33" x2="885.13" y2="1080"/><line class="cls-2" x1="912.33" y1="82.3" x2="912.33" y2="1080"/><line class="cls-2" x1="939.54" y1="82.3" x2="939.54" y2="1080"/><line class="cls-2" x1="966.74" y1="82.3" x2="966.74" y2="1080"/><line class="cls-2" x1="993.95" y1="82.3" x2="993.95" y2="1080"/><line class="cls-3" x1="1021.15" y1="64.52" x2="1021.15" y2="1080"/><line class="cls-2" x1="1048.36" y1="82.3" x2="1048.36" y2="1080"/><line class="cls-2" x1="1075.56" y1="82.3" x2="1075.56" y2="1080"/><line class="cls-2" x1="1102.77" y1="82.3" x2="1102.77" y2="1080"/><line class="cls-2" x1="1127.25" y1="82.3" x2="1127.25" y2="1080"/><line class="cls-1" x1="1154.46" y1="33" x2="1154.46" y2="1080"/><line class="cls-2" x1="1181.66" y1="82.3" x2="1181.66" y2="1080"/><line class="cls-2" x1="1208.87" y1="82.3" x2="1208.87" y2="1080"/><line class="cls-2" x1="1236.07" y1="82.3" x2="1236.07" y2="1080"/><line class="cls-2" x1="1263.28" y1="82.3" x2="1263.28" y2="1080"/><line class="cls-3" x1="1290.48" y1="64.52" x2="1290.48" y2="1080"/><line class="cls-2" x1="1317.69" y1="82.3" x2="1317.69" y2="1080"/><line class="cls-2" x1="1344.89" y1="82.3" x2="1344.89" y2="1080"/><line class="cls-2" x1="1372.1" y1="82.3" x2="1372.1" y2="1080"/><line class="cls-2" x1="1396.58" y1="82.3" x2="1396.58" y2="1080"/><line class="cls-1" x1="1423.79" y1="33" x2="1423.79" y2="1080"/><line class="cls-2" x1="1450.99" y1="82.3" x2="1450.99" y2="1080"/><line class="cls-2" x1="1478.2" y1="82.3" x2="1478.2" y2="1080"/><line class="cls-2" x1="1505.4" y1="82.3" x2="1505.4" y2="1080"/><line class="cls-2" x1="1532.61" y1="82.3" x2="1532.61" y2="1080"/><line class="cls-3" x1="1559.81" y1="64.52" x2="1559.81" y2="1080"/><line class="cls-2" x1="1587.02" y1="82.3" x2="1587.02" y2="1080"/><line class="cls-2" x1="1614.22" y1="82.3" x2="1614.22" y2="1080"/><line class="cls-2" x1="1641.43" y1="82.3" x2="1641.43" y2="1080"/><line class="cls-2" x1="1665.91" y1="82.3" x2="1665.91" y2="1080"/><line class="cls-1" x1="1693.12" y1="33" x2="1693.12" y2="1080"/><line class="cls-2" x1="1720.32" y1="82.3" x2="1720.32" y2="1080"/><line class="cls-2" x1="1747.53" y1="82.3" x2="1747.53" y2="1080"/><line class="cls-2" x1="1774.73" y1="82.3" x2="1774.73" y2="1080"/><line class="cls-2" x1="1801.94" y1="82.3" x2="1801.94" y2="1080"/><g id="Labels"><text class="cls-4" transform="translate(80.81 56.74)">1950</text><text class="cls-4" transform="translate(350.14 56.74)">1960</text><text class="cls-4" transform="translate(619.47 56.74)">1970</text><text class="cls-4" transform="translate(888.8 56.74)">1980</text><text class="cls-4" transform="translate(1158.13 56.74)">1990</text><text class="cls-4" transform="translate(1427.46 56.74)">2000</text><text class="cls-4" transform="translate(1696.79 56.74)">2010</text></g></g><g id="Tlatelolco"><g id="Timeline"><rect id="Timeline-2" data-name="Timeline" class="cls-5" x="294.78" y="324.05" width="293.81" height="74.84"/><rect id="Timeline-3" data-name="Timeline" class="cls-6" x="294.78" y="379.31" width="293.81" height="19.58"/></g><g id="Map"><path class="cls-7" d="M200.06,176.21l-.1.87-2.14.43,1.19,1.67L199,181.1l-1.59,2.12,1.37,2.9,1.57-.23.82-2.64L200,182l-.18-2.77,4.52-1.5-.5-1.73,1.27-1.17,1.31,2.59,2.55.06,2.36,2,.14,1.22,3.25,0,3.88-.38,2.08,1.64,2.77.45,2-1.14,0-.93,4.5-.22,4.35-.05-3.08,1.09,1.23,1.73,2.91.27,2.74,1.8.58,2.93,1.89-.09,1.42.87-2.87,2.14-.32,1.33,1.24,1.35-.89.67-2.24.58.08,1.68-1,1,2.45,2.74.49,1-1.33,1.39L233.61,204l-2.6.57-1,.85-2.89-.91-2.69-.47-.67.34,1.62.93-.14,2.42.5,2.28,3.07.31.21.75-2.6,1-.41,1.53-1.5.58-2.69.84-.7,1.11-2.82.23-2-1.92-1.1-3.59-1-1.27-1.32-.79,1.84-1.8-.12-.82-1-1.07-.72-2.39.28-2.6.8-1.22.66-1.94-1.28-.63-2.07.41-2.61-.19-1.46.39-2.56-3.12-2.11-.47-4.66.35-.87-1.27-.89-.3-.13-.76.43-1.35-.28-1.46-.8-.8-.47-1.68-1.86-.23,1-2.15.45-2.6,1-1.37,1.41-1,.92-1.84Z"/><path class="cls-7" d="M221.22,459.13l-3.44.32-1.85-2.24-2.19-.17h-3.88V443.37l1.4,2.78,1.81,4.57,4.72,3.72,5.09,1.57Zm1.94-158.5,2.14,2.82,1.41-3.15,4.14.16.58.83,6.67,6.39,3,.6,4.44,2.93,3.74,1.55.52,1.76-3.57,6.12,3.66,1.1,4.08.62,2.87-.65,3.29-3.11.6-3.55,1.8-.76,1.83,2.32-.08,3.22-3.05,2.24-2.43,1.66-4.09,4-4.84,5.66-.91,3.35-1,4.36,0,4.27-.79,1-.28,2.81-.25,2.28,4.61,3.77-.49,3.07,2.27,2-.18,2.2-3.48,5.85L244,370.73l-7.28,1-4-.47.76,2.78-.74,3.52.67,2.39-2.17,1.68-3.72.66-3.5-1.75-1.4,1.26.5,4.8,2.45,1.48,2-1.54,1.09,2.54-3.34,1.53-2.91,3.08-.53,5.06-.85,2.73h-3.43l-2.85,2.64-1,3.9,3.57,3.86,3.47,1.07-1.24,4.83-4.28,3.08-2.36,6.51-3.31,2.23-1.49,2.67,1.18,6,2.42,3.4-1.53-.3-3.37-.92-8.78-.79-1.5-3.4.06-4.31-2.42.36-1.28-2.07-.32-6,2.78-2.43,1.15-3.47-.43-2.73,1.93-4.56,1.32-6.93-.39-3,1.58-1-.39-1.92-1.68-1,1.19-2.11L198,393.26l-.84-5.7,1.46-1-.61-5.88.85-4.85,1-4.17L202,370l-1.1-4.48v-4.17l2.74-2.93-.08-3.72,2.07-4.28v-4l-.94-.79L203,338.25l2.24-4.32-.35-4,1.29-3.75,2.38-3.83,2.56-2.52L210,318.2l.76-1.29-.12-6.65,3.95-2,1.24-4.09-.44-1,3-3.52Z"/><path class="cls-7" d="M230.85,300.48l-4.14-.17-1.41,3.15-2.14-2.82-4.75-.94-3,3.52-2.63.53-1.42-5.37L209.4,294l1.14-3.72-1.9-1.62-.48-2.74-1.79-2.59,2.29-4.06-1.57-3.16.84-1.26-.66-1.39,1.42-1.86.08-3.16.17-2.61.79-1.24-3.15-5.93,2.71.31,1.86-.09.82-1.1,3.17-1.49,1.9-1.37,4.75-.62-.38,2.74.44,1.41-.3,2.46,3.95,3.3,4.06.61,1.42,1.39,2.46.74,1.5,1.07,2.28,0,2.11,1.1.16,2.15.71,1.09.05,1.62-1.06.05,1.4,4.36,7,.16-.53,2.17.39,1.49,2,1.06.87,2.36-.65,3-1,1.67.35,2.19-1.14.79-.05-1.18-3.39-2-3.37-.06-6.33,1.11L233,294.59l-.09,2.07-1.44,4.65Z"/><path class="cls-7" d="M249.8,333.41l4.84-5.66,4.1-4,2.43-1.66,3.05-2.24.08-3.22-1.83-2.32-1.8.76.71-2.3.49-2.36v-2.17l-1.31-.71-1.36.63-1.35-.17-.43-1.53-.34-3.59-.69-1.16L254,300.67l-1.48.76-3.83-.75.23-5.26-1.07-2.15,1.14-.79-.35-2.19,1-1.67.65-3-.87-2.36-2-1.06-.39-1.49.53-2.17-7-.16-1.4-4.36,1.06-.05-.05-1.62-.71-1.09-.16-2.15-2.11-1.1-2.28,0-1.5-1.07-2.46-.74-1.42-1.39-4.06-.61-3.95-3.3.3-2.46-.44-1.41.38-2.74-4.75.62-1.9,1.37L212,257.83l-.82,1.1-1.86.09-2.71-.31-2,.63-1.66-.43.25-5.57-3,2.15-3.2-.09-1.37-2-2.41-.21.76-1.57-2-2.23-1.51-3.28,1-.66V244l2.2-1-.36-2,.92-1.27.27-1.68,4.14-2.47,3-.69.48-.54,3.28.17,1.63-9.9L207,223l-.57-2.06-1.61-1.32V217l2-.6.72.38.12-1.39L205.6,215l0-2.25,7.07.08,1.2-1.24,1,1.14.7,2.14.69-.45,2,1.92,2.82-.23.7-1.11,2.69-.84,1.5-.58.41-1.53,2.6-1-.21-.75-3.07-.31-.5-2.28.14-2.42-1.62-.93.67-.34,2.69.47,2.89.91,1-.85,2.6-.57,4.06-1.35,1.33-1.39-.49-1,1.89-.16.85.83-.48,1.59L242,203l.84,1.68-1,1.27-.58,3.08.93,1.83.26,1.67,2.24,1.68,1.79.18.4-.7,1.14-.16,1.64-.63,1.18-1,2,.3.88-.13,2,.3.32-.74-.61-.71.36-1,1.46.32,1.72-.38,2.07.76,1.59.75,1.13-1,.8.16.5,1,1.73-.26,1.39-1.37,1.11-2.67,2.15-3.3,1.24-.17.89,2,2,6.32,1.94.6.1,2.49-2.73,3,1.13,1.09,6.42.57.13,3.61,2.76-2.37,4.57,1.31,6,2.2,1.77,2.11-.6,2,4.22-1.11,7.07,1.92,5.42-.14,5.36,3,4.63,4.05,2.8,1,3.11.16,1.32,1.14,1.23,4.62.61,2.19-1.45,6-1.85,2.38-5.11,5.1-2.32,4.16-2.68,3.21-.91.08-1,2.72.26,7-1,5.8-.39,2.5L315.29,286l-.65,5.1-3.68,5-.62,4-2.94,1.7-.85,2.34h-3.94l-5.71,1.51-2.56,1.75-4.06,1.15L286,311.69l-3.07,4-.53,3,.61,2.24-.69,4.12-.82,2L279,329.28l-4,7.35-3.2,3.35-2.47,2-1.64,4.09-2.41,2.47-1-2.46,1.61-2-2.1-2.91-2.85-2.36-3.74-2.69-1.35.12L252.16,333Z"/><path class="cls-7" d="M177.54,130.71l-.89.19-.92-2.28-1.36-1.15.79-2.52,1.09.16,1.27,3.3Zm-1-11.25-4,.65-.26-1.49,1.71-.32,2.39.12Zm3,0-.62,2.86-.67-.52.06-2.11-1.63-1.59v-.47Z"/><path class="cls-7" d="M135.41,153.7l0-.56.44-.18.66.45,1.29-2.29.69-.05v.56h.69l-.05,1-.6,1.64.32.58-.38,1.36.22.35-.41,1.9-.71,1-.66.12-.72,1.29H135.1l.28-4.25Z"/><path class="cls-7" d="M209.84,443.37V457h3.88l2.19.17-1.2,2.56-3.11,2-1.79-.21-2.15-.52L205,459.12l-3.81-.92-4.57-3.51-3.7-3.33-5-6.8,3,1.26,5.1,4.05,4.82,2.2,1.88-2.81,1.18-4.14,3.34-2.47Zm1.5-145,1.42,5.37,2.61-.53.44,1-1.24,4.09-3.95,2,.12,6.65-.76,1.29,1.09,1.59-2.56,2.52-2.38,3.83-1.29,3.75.35,4-2.24,4.32,1.67,7.37.94.79v4l-2.07,4.28.08,3.72-2.74,2.93v4.17l1.1,4.48-2.17,1.68-1,4.17-.85,4.85.61,5.88-1.46,1,.84,5.7,1.64,1.89-1.19,2.11,1.68,1,.39,1.92-1.58,1,.39,3-1.32,6.93L196,415.64l.43,2.73-1.15,3.47-2.78,2.43.32,6,1.28,2.07,2.42-.36-.06,4.31,1.5,3.4,8.78.79,3.37.92-3.22,0-1.75,1.46-3.28,2.16-.58,5.67-1.54.14-4.09-2-4.16-4.21h0l-4.52-3.4-1.14-3.72,1-3.39L185,430.24l-.47-9.5,1.54-5.22,3.83-4.13-5.51-1.54,3.46-4.62,1.23-8.49,4,1.77L195,388.19l-2.43-1.29L191.45,393l-2.29-.7,1.14-7,1.24-8.85,1.67-3.21-1-4.53-.3-5.15,1.53-.14,2.23-7.25,2.51-7,1.54-6.43-.84-6.36,1.09-3.46-.44-5.13,2.12-5,.66-7.82,1.17-8.25,1.14-8.74-.27-6.3-.75-5.37,1.86-1,1-1.94,1.77,2.58.48,2.74,1.9,1.62L209.39,294Z"/><path class="cls-7" d="M185.39,219.52l-1.55-.85L182,217.48l-1,.57-3.08-.5-.88-1.55-.67.06L172.74,214l-.49-1.13,1.36-.27-.16-1.8.84-1.31,1.8-.25,1.54-2.27,1.39-1.89-1.35-.87.69-2.1-.82-3.31.78-.94-.57-3.07-1.48-1.94.47-1.76,1.18.26.69-1.09-.84-2.14.44-.54,1.86.12,2.73-2.55,1.49-.39,0-1.2.67-3.09,2.08-1.71,2.28-.06.28-.76,2.85.3,2.86-1.85,1.41-.83,1.75-1.77,1.29.22.94,1-.7,1.24-2.33.62-.92,1.84-1.41,1-1,1.37-.45,2.6-1,2.15,1.86.23.47,1.68.8.8.28,1.46-.43,1.35.13.76.89.3.87,1.27,4.66-.35,2.11.47,2.56,3.12,1.46-.39,2.61.19,2.07-.41,1.28.63-.66,1.94-.8,1.22-.28,2.6.72,2.39,1,1.07.12.82-1.84,1.8,1.32.79,1,1.27,1.1,3.59-.69.45-.7-2.14-1-1.14-1.2,1.24-7.07-.08,0,2.25,2.12.38-.12,1.39-.72-.38-2,.6v2.61l1.61,1.32L207,223l-.09,1.57-1.63,9.9-1.81-1.93-1.09-.08,2.34-3.68-2.78-1.7-2.17.31-1.31-.62-2,1-2.71-.45-2.14-3.78-1.68-.93-1.15-1.71-2.41-1.71Z"/><path class="cls-7" d="M157.83,189.22l-2-.82-.74-.76.41-.63-.13-.8-1-.88-1.42-.71-1.26-.47-.23-1.07-1-.66.23,1.07-.72.87-.83-1L148,183l-.49-.74,0-1.11.48-1.17-1-.52.83-.7.54-.48,2.39,1,.83-.48,1.15.31.61.75,1.06.25.87-.78.93,2,1.4,1.48,1.71,1.57-1.41.32,0,1.46.75.54-.54.44.14.66-.3.74Z"/><path class="cls-7" d="M160.35,133l3.15.28,2.85,0,3.4,1.33,1.45,1.44,3.39-.44,1.28.91,3.08,2.42,2.25,1.75,1.19-.05,2.17.79-.27,1.09,2.68.16,2.74,1.58-.43.89-2.42.49-2.45.19-2.5-.31-5.19.38,2.43-2.15-1.48-1-2.34-.26-1.26-1.11-.87-2.2-2,.14-3.39-1-1.09-.82-4.72-.61-1.27-.76,1.36-1-3.56-.19-2.6,2-1.51.05-.52,1-1.79.43-1.55-.38,1.92-1.2.78-1.41,1.64-.87,1.85-.76,2.76-.38Z"/><path class="cls-7" d="M198.67,146.44l.45-.66,2.83,0,2.15,1,1-.1.66,1.36,2-.08-.12,1.14,1.62.14,1.79,1.4-1.35,1.55-1.73-.83-1.66.16-1.19-.18-.66.7-1.4.23-.54-.93-1.2.56-1.45,2.59-.93-.6-.19-1.09.08-1-.93-1.14.88-.65.28-1.46Z"/><path class="cls-7" d="M167.5,231.25l1.93-2.69-.79-1.58-1.39,1.68-2.17-1.59.74-1-.61-3.28,1.27-.54.67-2.24,1.37-2.33-.26-1.46,2-.78,2.49-1.44,3.64,2.06.67-.06.88,1.55,3.08.5,1-.57,1.79,1.19,1.55.85.5,2.73-1.13,2.34-4,3.78-4.36,1.42-2.23,3.15-.69,2.43-2.06,1.49L170,235l-1.48-.39-1.5.28-.09-1.32,1-.85Z"/><path class="cls-8" d="M268.2,209.94l-1.39,1.37-1.73.26-.49-1-.82-.16-1.13,1-1.58-.74.92-1.54.31-1.64.62-1.55-1.41-2.14-.28-2.47,1.89-3.12,1.23.4,2.67.85,3.84,3.05.6,1.48-2.15,3.3Z"/><path class="cls-7" d="M132,169l-1.86-.65-2.27-.06-1.66-.74-2-1.53.09-1.09.41-.88-.5-.7,1.75-3.06h4.65l.1-1.27-.6-.23-.4-.82-1.35-.87L127,155.8h1.64v-2.14h3.39l3.35,0,0,3-.28,4.25h1.07l1.19.69.31-.57,1.06.48L137.09,163l-1.72,1-.26.71.28.72-.75,1-.85.22.19.44-.67.41-1.24.93Z"/><path class="cls-7" d="M242.06,188.7l2.38,1.33,2.25,2.37.09,1.88,1.37.09,1.94,1.76,1.44,1.27-.58,3.26-2.2.94.19.84-.67,1.88,1.62,2.61H251l.48,2,2.21,3.13-.88.13-2-.3-1.18,1-1.64.63-1.14.16-.4.7-1.79-.18-2.24-1.68-.26-1.67-.93-1.83.58-3.08,1-1.27L242,203l-1.24-.54.48-1.59-.85-.83-1.89.16-2.45-2.74,1-1-.08-1.68,2.24-.58.89-.67-1.24-1.35.32-1.33Z"/><path class="cls-7" d="M142,171.74l-.62-1.15-1.11-.32.26-1.49-.49-.4-.75-.26-1.59.44-.13-.5-1.1-.6-.78-.74-1.07-.31.75-1-.28-.72.26-.71,1.72-1,1.64-1.44.38.16.8-.66,1-.05.34.3.57-.18,1.68.34,1.68-.1,1.17-.41.43-.41,1.15.19.87.26.94-.09.72-.32,1.66.52.58.08,1.1.7,1,.84,1.32.57,1,1-1.24-.08-.5.5-1.26.49h-.92l-.8.48-.72-.17-.62-.57-.38.1-.47.89-.35,0-.06.78-1.27,1-.66.44-.38.47-1.07-.75-.78,1-.76,0-.85.09.08,1.83-.53,0-.45.85Z"/><path class="cls-7" d="M193.31,145.66l2.21.17,3.15.61.32,2.08-.28,1.46-.88.65.93,1.14-.08,1-2.41-.65-1.71.26-2.21-.27-1.7.71-2-1.19.32-1.23,3.34.53,2.74.31,1.31-.85-1.66-1.64,0-1.46-2.29-.6Z"/><path class="cls-7" d="M177.42,151.11l2.45.34,1.93.92.6,1-2.55.06-1.1.63-2-.61-2.07-1.39.43-.87,1.53-.26Z"/><path class="cls-7" d="M106.39,122.32,105,125.83l-.63,2.86-.27,5.28-.35,1.9.63,2.12,1.13,1.9.72,3,2.41,2.86.84,2.19,1.42,1.88,3.86,1,1.5,1.58,3.18-1.06,2.76-.38,2.72-.69,2.29-.66,2.3-1.55.87-2.24.3-3.22.63-1.13,2.45-1,3.84-.89,3.21.13,2.2-.32.87.82-.12,1.86-2,2.29-.85,2.34.66.66-.54,1.66-.91,3-.92-1-.76.06-.69.05-1.29,2.29-.66-.45-.44.18,0,.56-3.35,0h-3.39v2.14H127l1.35,1.27,1.35.87.4.82.6.23-.1,1.27H126l-1.75,3.06.5.7-.41.88-.09,1.09-4.1-4-1.88-1.22-3-1-2,.27-2.93,1.41-1.83.38-2.56-1-2.72-.72-3.39-1.72-2.72-.53L93,156.11l-3-1.81-.92-1-2-.22-3.72-1.2-1.51-1.73L77.88,148l-1.81-2.42-.87-1.88,1.2-.38-.38-1.1.84-1v-1.35l-1.22-1.73-.34-1.55-1.22-2-3.2-3.91-3.65-3.09-1.76-2.47-3.12-1.63-.66-1,.56-2.49-1.85-.94-2.15-2-.91-2.83-2-.34-2.1-2.15-1.71-2-.16-1.29-2-3.13-1.28-3.21.05-1.62-2.63-1.67-1.2.18-2.07-1.17-.58,1.72.6,2,.35,3.15L44,106.48l2.69,2.86.6,1,.56.28L48.3,112,49,112l.74,2.64,1.1,1,.76,1.44,2.29,2.07,1.2,3.74,1.07,1.75,1,1.86.19,2.1,1.75.13,1.46,1.8,1.32,1.76-.09.7-1.53,1.44h-.65l-1-2.39-2.37-2.24-2.61-1.92-1.86-1,.12-2.91-.54-2.17-1.73-1.24-2.5-1.8-.48.52-.91-1.06-2.24-1-2.14-2.37.26-.31,1.49.23,1.35-1.53.14-1.85-2.8-2.94-2.12-1.15-1.35-2.6L37,101.93l-1.68-3.38-1.48-3.83L38,94.4l4.61-.47-.34.83,5.48,2.08,8.28,3,7.22,0h2.87V98h6.29l1.32,1.51,1.86,1.33,2.15,1.85,1.2,2.19.91,2.28,1.88,1.26,3,1.24L87,106.44l3-.08L92.52,108l1.83,2.82,1.26,2.41,2.14,2.33.8,2.83,1,1.9,2.82,1.24,2.58.88Z"/><path class="cls-7" d="M147.86,178.75l-1.26-1.17-1.7-1.49-.8-1.24-1.53-1.15L140.76,172l.4-.57.61.56.27-.27,1.13-.14.45-.85.53,0-.08-1.83.85-.09.76,0,.78-1,1.07.75.38-.47.66-.44,1.27-1,.06-.78.35,0,.47-.89.38-.1.62.57.72.17.8-.48h.92l1.26-.49.5-.5,1.24.08-.31.36-.18.83.36,1.36-.83,1.27-.39,1.49-.13,1.64.21.94.09,1.67-.56.36-.34,1.58.25,1-.75.94.18,1,.54.61-.87.78-1.06-.25-.61-.75-1.15-.31-.83.48-2.39-1Z"/><path class="cls-7" d="M176.28,192.86l-1.2-1-.78-2,.89-1-.92-.25-.67-1.2-1.81-1-1.59.23-.72,1.27-1.48.91-.79.13-.35.76,1.72,2-1,.47-.53.54-1.68.18-.63-2.17-.47.62-1.2-.21-.72-1.48-1.49-.23-.94-.43h-1.55l-.12.79-.41-.54.19-.72.3-.74-.14-.66.54-.44-.75-.54,0-1.46,1.41-.32,1.29,1.31-.08.78,1.45.16.35-.3,1,.91,1.79-.27,1.54-.92,2.2-.74,1.24-1.09,2,.21-.14.36,2,.13,1.62.63,1.18,1.09,1.37,1-.44.54.84,2.14-.69,1.09-1.18-.26Z"/><path class="cls-7" d="M206.37,283.38l-1,2-1.86,1-3.64-2.17-.32-1.55-7.18-3.78-6.51-4.1-2.81-2.3-1.5-3.07.6-1.07-3.07-4.85-3.59-6.78-3.42-7.28-1.49-1.67L169.47,245l-2.82-2.38-2.59-1.46,1.18-1.62-1.76-3.46,1.13-2.52,2.9-2.29.43,1.51-1,.85.09,1.32,1.5-.28L170,235l1.51,1.83,2.06-1.49.69-2.43,2.23-3.15,4.36-1.42,4-3.78,1.13-2.34-.5-2.73,1-.35,2.41,1.71,1.15,1.71,1.68.93,2.14,3.78,2.71.45,2-1,1.31.62,2.17-.31,2.78,1.7-2.34,3.68,1.09.08,1.81,1.93-3.28-.17-.48.54-3,.69L194.4,238l-.27,1.68-.92,1.27.36,2-2.2,1v1.54l-1,.66,1.51,3.28,2,2.23-.76,1.57,2.41.21,1.37,2,3.2.09,3-2.15-.25,5.57,1.66.43,2-.63,3.15,5.93-.79,1.24-.17,2.61-.08,3.16-1.42,1.86.66,1.39-.84,1.26,1.57,3.16Z"/><path class="cls-8" d="M218.39,151l1.85.34.66.75-.93,1-2.73,0-2.12.13-.21-1.62.5-.56Z"/><path class="cls-7" d="M231.43,301.31l1.44-4.65.09-2.07,1.73-3.39,6.33-1.11,3.37.06,3.39,2,.05,1.18,1.07,2.15-.23,5.26,3.83.75,1.48-.76,2.45,1.06.69,1.16.34,3.59.43,1.53,1.35.17,1.36-.63,1.31.71v2.17l-.49,2.36-.71,2.3-.6,3.56-3.29,3.11-2.87.65-4.08-.62-3.65-1.1,3.57-6.12-.53-1.77-3.73-1.55-4.44-2.93-3-.6Z"/><path class="cls-7" d="M251.54,197.4l4.35.72.39-.66,2.94-.26,3.9,1-1.89,3.11.28,2.47,1.44,2.15-.63,1.55-.32,1.64-.93,1.51-2.07-.76-1.72.38-1.46-.32-.36,1,.61.71-.32.74-2-.3L251.52,209l-.48-2h-1.15l-1.62-2.61.67-1.88-.19-.84,2.2-.94Z"/><path class="cls-7" d="M140.3,170.27l-.4.87-2.1-.05-1.31-.35L135,170l-2-.23-1-.8.12-.54,1.24-.93.67-.41-.19-.44.85-.22,1.07.31.78.74,1.1.6.13.5,1.59-.44.75.26.49.4Z"/><path class="cls-7" d="M235.08,180l2.08-.48.76.13-.14,2.73-3,.4-.66-.32,1.06-1Z"/><path class="cls-7" d="M249.8,333.41l2.36-.44,3.64,3.24,1.35-.12,3.74,2.69,2.85,2.36,2.1,2.91-1.61,2,1,2.46-1.57,2.74-4.1,2.43-2.68-.88-2,.48-3.35-1.89-2.46.14-2.21-2.42.28-2.8.79-1,0-4.27,1-4.36Z"/></g></g><g id="Pelindaba"><g id="Timeline-4" data-name="Timeline"><rect id="Timeline-5" data-name="Timeline" class="cls-9" x="455.29" y="420.64" width="1210.62" height="74.84"/><rect id="Timeline-6" data-name="Timeline" class="cls-10" x="455.29" y="475.9" width="1210.62" height="19.58"/></g><g id="Map-2" data-name="Map"><path class="cls-11" d="M1719.31,286l6,0,14.41,0h0l-14.41,0-6,0-.18.15-.08.07-2.93,5.27-3.06,1.88-1.68,3.15-.1,2.72-1.24,2.95-1.55.81-2.57,3.19-1.58,3.54.3,1.68-1.51,2.59-1.78,1.35-.21,2.29-.2,2.09,1-1.65,18.08,0-.87-7.16,1.14-2.55,4.31-.44-.15-12.94,15.17.28v-7.79l.1-1v-.35Z"/><path class="cls-11" d="M1740.5,374.63l0,3.62-.69,1.42-2.44.12-1.58,2.65,2.83.33L1741,385l.82,1.84,2.11,1.07,2.72,5-3.13,3-2.83,2.75-2.85,2.11h-3.24l-3.72,1.07-2.93-1-1.89,1.27-4.07-3.06-1.1-2-2.57,1-2.14-.31-1.24.77-2.07-.54-2.78-3.8-.74-1.47-3.46-1.83-1.17-2.77-1.93-2-3.1-2.4,0-1.51-2.52-1.86-3.15-1.81,1.42-.51,1.58-.87,1.19-4.15,1.27-2.16,3.34-.64.79,1.27,2.37,2.72,1.27.41,1.66-.81,3.33.16.64,1h4.59l.16-1,2.37-.87.48-1.37,1.75-1,3.89,2.72,2.37-.48,2.31-3.36,2.54-2.57-.4-2.82-1.12-1.37,2.78-.25.31-1,2.14.31-.56,3.46.56,3.38,2.37,1.84.56,1.6-.08,2.32Z"/><path class="cls-12" d="M1841.88,361.1l1.09,1.45-.15,2-2.63,1.12,2,1.27-1.71,2.5-1-.82-1.1.33-2.59-.08-.08-1.42-.35-1.3,1.55-2.19,1.63-2.07,2,.41Z"/><path class="cls-12" d="M1718.35,446.83l1.14,3.44,1.32,2.77,1.05,1.5,1.76,2.42,3-.38,1.53-.66,2.55.66.69-1.15,1.15-2.7,2.87-.18.25-.81,2.35,0-.4,1.66,5.6,0,.08,2.91.94,1.79-.68,2.8.35,2.87,1.55,1.73-.25,5.55,1.14-.43,2,.12,2.87-.69,2.11.28.49,1.45-.53,2.27.81,2.21-.69,1.76.4,1.63-9.62-.07-.21,15.08,3.11,3.92,3,3-8.48,2-11.18-.68-3.19-2.31-18.72.21-.69.35-2.75-2.17-3-.15-2.77.82-2.22.92-.43-3,.64-4.2,1.6-4.36.25-2,1.5-4.26,1.1-1.93,2.65-3.08,1.48-2.09.48-3.47-.25-2.65-1.38-1.66-1.24-2.83-1.14-2.78.25-1,1.42-1.84-1.4-4.48-.94-3.1-2.31-2.91.44-.89,1.91-.63,1.33.08,1.61-.56Zm-18-.89-1.17.49L1698,443l1.86-2,1.4-.77,1.73,1.58-1.68,1-.76,1.19Z"/><path class="cls-12" d="M1629.92,375.4l-3.16-1.2-2.17.18-1.61,1.17-2.07-1-.81-1.53-2.07-1-.31-2.7,1.27-2-.12-1.58,3.67-3.89.68-3.23,1.27-1.15,2.24.63,1.93-1,.63-1.22,3.59-2.11.87-1.48,4.31-2,2.55-.68,1.15.91,2.95,0-.36,2.31L1645,355l2.6,3.08.13,2.27,5.34,1.07-.12,3.21-1,1.42-2.26.43-.94,2-1.58.53-4.05-.1-2.14-.36-1.48.76-2-.35-8,.21-.12,2.65Z"/><path class="cls-12" d="M1655.39,391.07l-3.82.54-1.14-3.19.21-10.64-.94-1-.16-2.29-1.61-1.63-1.4-1.37.59-2.47,1.58-.53.94-2,2.26-.43,1-1.42,1.55-1.37,1.66,0,3.52,2.7-.18,1.56,1,2.77-.91,1.88.48,1.25-2.24,2.88-1.42,1.43-.87,2.91.12,2.95Z"/><path class="cls-12" d="M1761.39,506.39l.92.86,1.47,2.82,5.22,5.35,2,.53,0,1.73,1.35,3.13,3.57.76,2.95,2.24-6.54,3.66-4.15,3.72-1.53,3.34-1.38,1.89-2.52.41-.81,2.42-.48,1.58-2.95,1.19-3.75-.25-2.21-1.42-1.94-.63-2.26,1.19-1.14,2.44-2.19,1.53-2.31,2.29-3.31.53-1-1.79.43-3.13-2.75-4.82-1.24-.76V522.59l4.54-.18.13-17.41,3.44-.15,7.11-1.7,1.78,2,2.93-1.89,1.42,0,2.6-1.09.82.36Z"/><path class="cls-12" d="M1785.34,403.73l-.28,5.37,1.84.61-1.48,1.63-1.78,1.22-1.76,2.4-1,2.12-.26,3.69-1.07,1.75,0,3.46-1.33,1.28L1778,430l-.64.35-.43,2.52,1.17,2.07.3,5.55.82,4.23-.46,2.4.92,2.67,2.68,2.59,2.49,5.85-1.81-.48-6.21.79-1.24.54-1.32,3,1,2.06-.82,5.52-.58,4.69,1.25.84,3.23,1.81,1.27-.84.4,5.07-3.54,0-1.89-2.59-1.7-2-3.54-.66-1-2.45-2.83,1.48-3.69-.66-1.55-2.12-2.93-.43-2.16.12-.26-1.45-1.6-.12-2.11-.28-2.85.69-2-.12-1.15.43.25-5.55-1.53-1.73-.35-2.85.68-2.8-.92-1.79-.08-2.9-5.62,0,.41-1.66-2.35,0-.25.81-2.87.18-1.17,2.68-.69,1.17-2.55-.66-1.52.66-3.06.36-1.76-2.42-1.05-1.5-1.33-2.77-1.14-3.44-13.62,0-1.63.54-1.33-.08-1.91.63-.64-1.43,1.17-.49.15-2,.76-1.19,1.68-1,1.22.46,1.58-1.76,2.5,0,.3,1.3,1.73.82,2.72-2.9,2.68-2.24,1.17-1.47-.15-3.79,2-4.46,2.11-2.35,3-2.21.53-1.47.12-1.68.76-1.6-.25-2.6.58-4.07.91-2.87,1.38-2.45.26-2.77.41-3.21,1.81-2.34,2.47-1.48,3.8,1.56,2.93,1.7,3.38.46,3.44.89,1.38-2.77.64-.36,2.09.46,5.15-2.29,1.81,1,1.5-.13.69-1.12,1.71-.4,3.47.48,3,.1,1.53-.48,2.78,3.8,2.07.54,1.24-.77,2.14.31,2.57-1,1.1,2Z"/><path class="cls-12" d="M1713.51,385.7l3.82-.36.86-1.19.76.1,1.15,1,5.81-1.76,2-1.81,2.42-1.63-.46-1.63,1.3-.43,4.46.3,4.35-2.16,3.33-5.09,2.35-1.88,2.91-.81.53,2,2.67,2.91v1.89l-.74,1.94.3,1.43,1.6,1.33,3.52,2,2.52,1.86,0,1.51,3.1,2.4,1.93,2,1.17,2.77,3.46,1.83.74,1.47-1.53.48-3-.1-3.47-.48-1.71.4-.69,1.12-1.5.13-1.81-1-5.15,2.29-2.09-.46-.64.36-1.38,2.77-3.44-.89-3.38-.46-2.93-1.7-3.8-1.56-2.47,1.48-1.81,2.34-.41,3.21-3-.26-3.13-.77-2.75,2.44-2.42,4.28-.49-1.33-.2-2.09-2.11-1.48-1.71-2.37-.4-1.65-2.17-2.4.36-1.37-.46-1.94.36-3.57,1.1-.84Z"/><path class="cls-12" d="M1703,441.79l-1.73-1.58-1.4.77-1.86,2-3.79-4.86,3.51-2.54-1.73-3,1.58-1.15,3.11-.56.36-2,2.47,2.21,4.08.2L1709,429l.58-3-.51-3.59-2.17-2.7,2-5.32-1.15-.91-3.43.36-1.3-2.35.35-2,5.81.18,3.74,1.2,3.67,1.09.33-2.47,2.42-4.28,2.75-2.44,3.13.77,3,.26-.26,2.77-1.38,2.45-.91,2.87-.58,4.07.25,2.6-.76,1.6-.12,1.68-.53,1.47-3,2.21-2.11,2.35-2,4.46.15,3.79-1.17,1.47-2.68,2.24-2.72,2.9-1.73-.82-.3-1.3-2.5,0-1.58,1.76Z"/><path class="cls-12" d="M1629.77,396.9l-2.09,0-3.23-.91-2.95,0-5.48.81-3.19,1.33-4.58,1.68-.89-.12.35-3.79.44-.58-.13-1.83-2-1.93-1.47-.31-1.35-1.27,1-2-.46-2.24.21-1.35h.74l.26-2-.36-.89.44-.64,1.71-.56-1.14-3.72-1.07-1.91.38-1.6.92-.35.59-.43,1.28.69,3.56,0,.86-1.37.79.1,1.33-.53.72,2,1.07-.59L1618,372l2.07,1,.81,1.53,2.07,1,1.61-1.17,2.17-.18,3.16,1.2,1.22,6.6-1.94,3.89-1.2,5.22,2,4Z"/><path class="cls-12" d="M1703.35,409.43l-.58-.25-2.73.59-2.82-.63-2.19.31-7.51-.12.68-3.62-1.81-3-2.11-.79-.94-2.06-1.19-.66.07-1.27,1.19-3.26,2.19-4.45,1.33,0,2.75-2.7,1.76-.07,2.59,1.89,3.18-1.56.43-1.91,1-1.88.71-2.34,2.47-1.91.94-3.24,1-1,.66-2.42,1.22-3,3.89-3.62.25-1.56.51-.84-1.83-1.88.15-1.48,1.3-.28,1.83,3,.31,3.11-.16,3.11,2.5,4.23-2.57,0-1.3.33-2.11-.46-1,2.19,2.72,2.72,2,.79.66,1.93,1.45,3.18-.72,1.27-2.32,4.68-1.1.84-.36,3.57.46,1.94-.36,1.37,2.17,2.4.4,1.65,1.71,2.37,2.11,1.48.2,2.09.49,1.33-.33,2.47-3.67-1.09-3.74-1.2Z"/><path class="cls-12" d="M1698.37,309l-15.82,9.47-13.37,9.63-6.5,2.17-5.12.48,0-3.1-2.14-.79-2.88-1.4-1.09-2.29-15.58-10.79-15.58-11L1602.87,289l.1-1v-.35l0-6.18,7.46-3.89,4.61-.81,3.77-1.42,1.78-2.67,5.4-2.12.2-4,2.67-.48,2.09-2,6-.92.84-2.11-1.22-1.17-1.6-5.81-.26-3.38L1633,247.2l4.43-3.08,5-1,2.91-2.35,4.45-1.73,7.82-1,7.64-.48,2.32.86,4.35-2.26,4.94,0,1.88,1.33,3.15-.35-.94,2.95.74,5.4-1.09,4.64-2.85,3.1.41,4.17,3.77,3.26,0,1.33,2.83,2.19,2,9.65,1.5,4.68.25,2.44-.81,4.26.33,2.37-.59,2.83.41,3.24-1.84,2.12,2.73,3.72.18,2.17,1.63,2.82,2.16-.92,3.66,2.34Z"/><path class="cls-12" d="M1804.21,278l-1.3,2.12-1,4-1.25,2.7-1.09.92-1.53-1.68-2.09-2.34-3.29-7.53-.46.48,1.91,5.55,2.83,5.24,3.49,8,1.7,2.77,1.48,2.87,4.15,5.6-.92.87.15,3.24,5.38,4.46.81,1H1758.4v-36.9l-1.38-4.25,1.19-3.29-.71-2.29,1.66-2.59,6.14-.08,4.45,1.42,4.58,1.6,2.14.82,3.56-1.7,1.89-1.53,4.08-.44,3.28.68,1.27,2.67,1.07-1.76,3.69,1.27,3.61.31,2.27-1.35Z"/><path class="cls-12" d="M1838.51,361.84l-1.58-1.53-1.89-2.75-2-1.51-1.2-1.65-4-1.89-3.16,0-1.12-1-2.7,1.12-2.8-2.16-1.45,3.54-5.37-1-.49-1.89,2-7,.44-3.18,1.45-1.48,3.41-.79,2.34-2.75,2.68,5.57,1.27,4.4,2.54,2.32,6.29,4.48,2.57,2.7,2.5,2.73,1.45,1.61,2.27,1.42-1.4,1.15Z"/><path class="cls-12" d="M1818,350.42l2.8,2.16,2.7-1.12,1.12,1,3.16,0,4,1.89L1833,356l2,1.51,1.89,2.75,1.58,1.53-1.63,2.07-1.55,2.19.35,1.3.08,1.42,2.59.08,1.1-.33,1,.82-1,1.66,1.71,2.57,1.7,2.24,1.76,1.66,15.1,5.5,3.89,0-13.06,13.87-6,.2-4.12,3.24-2.95.08-1.27,1.45h-3.16l-1.86-1.55-4.22,1.93-1.37,1.91-3.08-.36-1-.53-1.09.12-1.45,0-5.85-3.92h-3.21l-1.58-1.5v-2.59l-2.4-.77-2.72-5-2.11-1.07-.82-1.84-2.34-2.26-2.83-.33,1.58-2.65,2.44-.12.69-1.42,0-4.17,1.37-4.87,2.17-1.32.48-1.91,2-3.57,2.78-2.34,1.88-4.63.74-4.07,5.37,1Z"/><path class="cls-12" d="M1694.19,438.1l-4.74-4.64-3.06-3.79-2.8-4.74.15-1.51,1-1.48,1.12-3.33.94-3.41,1.56-.26,6.7,0,0-5.52,2.19-.31,2.82.63,2.73-.59.58.25-.35,2,1.3,2.35,3.43-.36,1.15.91-2,5.32,2.17,2.7.51,3.59-.58,3-1.42,2.17-4.08-.2-2.47-2.21-.36,2-3.11.56-1.58,1.15,1.73,3Z"/><path class="cls-12" d="M1647.87,392.59l-7.25,2.7-2.57,1.58-4.17,1.33-4.12-1.3.21-1.83-2-4,1.2-5.22,1.94-3.89-1.22-6.6-.64-3.51.12-2.65,8-.21,2,.35,1.48-.76,2.14.36-.35,1.47,1.93,2.4v3.38l.44,3.66,1.15,1.7-1,4.17.36,2.31,1.24,2.93Z"/><path class="cls-12" d="M1604,384.47l-1.3-.12-.94,1.86-1.32,0-.89-1,.3-1.86-1.93-2.83-1.2.51-1,.12-1.27.26,0-1.7-.74-1.22.15-1.35-1-2-1.28-1.66h-3.69l-1.07.87-1.28.1-.79,1-.53,1.3-2.47,2-2-2.75-1.79-1.83-1.19-.59-1.15-.94-.51-2.06-.68-1-1.35-.77,2.06-2.27,1.4.08,1.2-.79h1l.72-.63-.4-1.55.51-.49.08-1.6,2.22,0,3.33,1.15,1-.12.35-.51,2.5.36.68-.26.26,1.73.74,0,1.2-.63.76.16,1.28,1.19,2,.38,1.27-1,1.5-.63,1.1-.66.92.13,1,1,.56,1.3,1.89,2-1,1.2-.18,1.51,1-.46.58.56-.25,1.38,1.42,1.35-.92.35-.38,1.6,1.07,1.91,1.14,3.72-1.71.56-.44.64.36.89-.26,2Z"/><path class="cls-12" d="M1573.11,368.87l-2.47-2-1.94-.3-1.05-1.33,0-.71-1.4-1-.3-1,2.45-.77,1.53.15,1.24-.53,8.53.2-.08,1.6-.51.49.4,1.55-.72.63h-1l-1.2.79-1.4-.08Z"/><path class="cls-12" d="M1832.23,423.78l2.73,3.77-3.23,1.84-1.14,1.91-1.75.33-.64,3.24-1.48,1.84-.91,3.06L1824,441.3l-6.62-4.59L1817,434l-16.73-9.34-.79-.51,0-4.86,1.32-1.86,2.27-3,1.68-3.34-2-5.27-.54-2.31-2.19-3.19,2.83-2.75,3.13-3,2.4.77v2.59l1.58,1.5h3.21l5.85,3.92,1.45,0,1.09-.12,1,.53,3.08.36,1.37-1.91,4.22-1.93,1.86,1.55h3.16l-4,5.22Z"/><path class="cls-12" d="M1607.36,399.8l-1.22,0-4.76-2.19-4.18-3.51-3.94-2.52-3.11-3,1.1-1.48.25-1.33,2.07-2.52,2.16-2.16,1-.12,1.2-.51,1.93,2.83-.3,1.86.89,1,1.32,0,.94-1.86,1.3.12-.21,1.35.46,2.24-1,2,1.35,1.27,1.47.31,2,1.93.13,1.83-.44.58Z"/><path class="cls-12" d="M1776.76,558.75l1.61,1.58L1777,562.9l-.79,1.73-2.57.82-.86,1.71-1.65.53-3.46-4.1,2.45-3.34,2.5-2.06,2.16-1.05Z"/><path class="cls-12" d="M1711.53,312l-3.26,1.84-2.6-2.73-7.29-2.16-2-3.15-3.66-2.34-2.16.92-1.63-2.82-.18-2.17-2.73-3.72,1.84-2.12-.41-3.24.59-2.83-.33-2.37.81-4.26-.25-2.44-1.5-4.68,2.26-1.24.4-2.27-.49-2.22,3.18-2.07,1.42-1.73,2.26-1.56.26-4.2,5.42,1.89,1.94-.48,3.85.92,6.13,2.42,2.16,4.81,4.15,1.05,6.5,2.24,4.92,2.65,2.26-1.38,2.21-2.45-1.07-4.13,1.45-2.63,3.33-2.55,3.18-.74,6.24,1.12,1.58,2.44,1.71,0,1.47.92,4.59.64,1.12,1.78-1.66,2.59.71,2.29-1.19,3.29,1.38,4.25v46.72l-5.3,0-.07,2-18.41-9.39-18.43-9.5Z"/><path class="cls-12" d="M1603,287.69l0-6.18,7.46-3.89,4.61-.81,3.77-1.42,1.78-2.67,5.4-2.12.2-4,2.67-.48,2.09-2,6-.92.84-2.11-1.22-1.17-1.6-5.81-.26-3.38L1633,247.2l-2-.07-4.78-1.24-4.4.4-2.78-2.4-3.39,0-1.47,3.47-3.08,5.78-3.43,2.29-4.63,2.52-3,3.69-.63,2.87-1.76,4.64,1.15,6.64-3.85,4.41-2.31,1.4-3.64,3.57-4.3.58-2.14,1.84,6,0,14.41,0h0l-14.41,0-6,0Z"/><path class="cls-12" d="M1871.72,477.49l1.22,2,1.14,3.11.76,5.7,1.19,2.22-.46,2.27-.81,1.42-1.58-2.8-.86,1.42.87,3.52-.41,2-1.27,1.1-.3,4.08-1.81,5.63-2.27,6.74-2.87,9.34-1.76,6.93-2.09,5.85-3.75,1.2-4,2.16-2.65-1.3-3.67-1.81-1.27-2.67-.31-4.46-1.61-4-.43-3.57.82-3.56,2.12-.86,0-1.63,2.21-3.72.41-3.1-1.07-2.31-.87-3-.36-4.45,1.61-2.68.61-3,2.31-.16,2.59-1,1.7-.86,2-.07,2.62-2.72,3.8-2.93,1.38-2.37-.63-2,2,.58,2.55-3.28.08-2.83,1.53-2.11Z"/><path class="cls-12" d="M1586.78,352l1.55-.86.77-2.8,1.47-.12,3.23,1.32,2.6-.94,1.78.31.71-1.05,18.53-.07,1-3.34-.81-.59L1615.4,323l-2.22-21.51,7.06-.08,15.58,11,15.58,10.79,1.09,2.29,2.88,1.4,2.14.79,0,3.1,5.12-.48,0,11.12-2.54,3.19-.4,2.95-4.1.74-6.29.41-1.71,1.7-3,.18-2.95,0-1.15-.91-2.55.68-4.31,2-.87,1.48-3.59,2.11-.63,1.22-1.93,1-2.24-.63-1.27,1.15-.68,3.23-3.67,3.89.12,1.58-1.27,2,.31,2.7-1.91.69-1.07.59-.72-2-1.33.53-.79-.1-.86,1.37-3.56,0-1.28-.69-.59.43-1.42-1.35.25-1.38-.58-.56-1,.46.18-1.51,1-1.2-1.89-2-.56-1.3-1-1-.92-.13-1.1.66-1.5.63-1.27,1-2-.38-1.28-1.19-.76-.16-1.2.63-.74,0-.26-1.73.21-1.47-.4-1.81-1.73-1.33L1587,355Z"/><path class="cls-12" d="M1586.78,352l-3-3.26-2.8-3.51-3.06-1.27-2.21-1.4-2.59,0-2.24,1-2.31-.41-1.58,1.53-.4-2.57,1.28-2.37.58-4.53-.51-4.79-.56-2.42.46-2.42-1.19-2.34-2.44-2.11,1-1.65,18.08,0-.87-7.16,1.14-2.55,4.31-.44-.15-12.94,15.17.28V289l17.37,12.4-7.06.08L1615.4,323l2.22,20.88.81.59-1,3.34-18.53.07-.71,1.05-1.78-.31-2.6.94-3.23-1.32-1.47.12-.77,2.8Z"/><path class="cls-12" d="M1802.53,473l-1.28,3.56,1.28,6.13,1.61-.07,1.66,1.51,1.93,3.43.4,6.13-2,1-1.42,3.31-3-2.95-.33-3.36,1-2.22-.28-1.89-1.81-1.2-1.28.43-2.65-2.27-2.42-1.22,1.4-4.38,1.45-1.63-.89-3.89.92-3.79.79-1.27-1.17-4-2.17-2.07,4.51.86.94,1.28,1.56,2.17Z"/><path class="cls-12" d="M1802.53,473l3.47-.38,5.55,1.32,1.22-.59,3.21-.12,1.65-1.4,2.77.07,5-1.81,3.67-2.7.76,2.09-.2,4.66.58,4.12.18,7.38.81,2.31-1.37,3.41-1.79,3.31-2.95,3-4.22,1.83-5.2,2.32-5.22,5.19-1.78.89-3.23,3.44-1.89,1.14-.4,3.49,2.19,3.71.91,2.9.07,1.48.81-.25-.13,4.87-.74,2.32,1.09.86-.69,2.09-1.93,1.79-3.8,1.71-5.55,2.73-2,1.89.4,2.14,1.17.35-.4,2.7-3.49,0-.4-2.27-.69-2.29-.4-1.83.82-5.65-1.2-3.57-2.21-7,4.86-5.62,1.22-3.54.71-.44.51-2.87-.74-1.45.2-3.62.91-3.36,0-6.08-2.39-1.55-2.21-.35-1-1.19-2.14-1-3.85.1-.3-1.78-.44-3.38,14-3.92,2.65,2.27,1.28-.43,1.81,1.2.28,1.89-1,2.22.33,3.36,3,2.95,1.42-3.31,2-1-.4-6.13-1.93-3.43-1.66-1.51-1.61.07-1.28-6.13Z"/><path class="cls-12" d="M1718.43,556.76l-3.43-3.94-1.81-3.79-1-5-1.14-3.71-1.55-7.77-.1-6-.59-2.7-1.79-2-2.39-4.07-2.42-5.88-1-3-3.77-4.73-.28-3.71,2.22-.91,2.77-.82,3,.15,2.75,2.17.69-.35,18.72-.2,3.19,2.31,11.18.68,8.48-2,3.79-1.1,3,.28,1.81,1.09,0,.4-2.6,1.09-1.42,0-2.93,1.89-1.78-2-7.11,1.7-3.44.15-.13,17.41-4.54.18v14.59l0,19-4.12,2.68-2.47.38-2.91-1-2.07-.38-.77-2.24-1.83-1.43Z"/><path class="cls-12" d="M1652.91,364.66l.12-3.21-5.34-1.07-.13-2.27L1645,355l-.63-2.16.36-2.31,3-.18,1.71-1.7,6.29-.41,4.1-.74.4-2.95,2.54-3.19,0-11.12,6.5-2.17,13.37-9.63,15.82-9.47,7.29,2.16,2.6,2.73,3.26-1.84,1.14,7.69,1.73,1.28.08,1.56,1.91,1.68-1,2.11-1.78,9.85-.23,6.24-5.9,4.51-2,6.26,1.93,1.75,0,3,3,.12-.46,2.21-1.3.28-.15,1.48-.87.12-3.11-5.15-1.09-.2-3.61,2.63-3.57-1.37-2.49-.28-1.33.66-2.72-.13-2.72,2-2.35.12-5.58-2.44-2.19,1.15-2.35-.08-1.73-1.78-4.64-1.76-5,.56-1.2,1-.64,2.72-1.33,1.89-.31,4.18-3.52-2.7-1.66,0Z"/><path class="cls-12" d="M1682.22,397.92l-4.79,1.65-1.76-.23-1.78,1-3.69-.1-2.47-2.88-1.51-3.33-3.28-3-3.47,0h-4.07l.26-7.46-.12-2.95.87-2.91,1.42-1.43,2.24-2.88-.48-1.25.91-1.88-1-2.77.18-1.56.31-4.18,1.33-1.89.64-2.72,1.2-1,5-.56,4.64,1.76,1.73,1.78,2.35.08,2.19-1.15,5.58,2.44,2.35-.12,2.72-2,2.72.13,1.33-.66,2.49.28,3.57,1.37,3.61-2.63,1.09.2,3.11,5.15.87-.12,1.83,1.88-.51.84-.25,1.56-3.89,3.62-1.22,3-.66,2.42-1,1-.94,3.24-2.47,1.91-.71,2.34-1,1.88-.43,1.91-3.18,1.56-2.59-1.89-1.76.07-2.75,2.7-1.33,0-2.19,4.45Z"/><path class="cls-12" d="M1799.78,376.22l-.64-.08.08-2.32-.56-1.6-2.37-1.84-.56-3.38.56-3.46-2.14-.31-.31,1-2.78.25,1.12,1.37.4,2.82-2.54,2.57-2.31,3.36-2.37.48-3.89-2.72-1.75,1-.48,1.37-2.37.87-.16,1h-4.59l-.64-1-3.33-.16-1.66.81-1.27-.41-2.37-2.72-.79-1.27-3.34.64-1.27,2.16-1.19,4.15-1.58.87-1.42.51-.38-.23-1.6-1.33-.3-1.43.74-1.94v-1.89l-2.67-2.91-.53-2,0-1.14-1.7-1.37,0-2.73-1-1.81-1.63.28.46-1.73,1.2-2-.53-1.94,1.51-1.45-1-1.1,1.22-2.93,2.11-3.51,4,.33L1753,328.2l.07-2,5.3,0v-9.81h54.79l1.48,4.84-1,.89.68,5,1.7,5.8,1.75,1.2,2.54,1.78-2.34,2.75-3.41.79-1.45,1.48-.44,3.18-2,7,.49,1.89-.74,4.07-1.88,4.63-2.78,2.34-2,3.57-.48,1.91-2.17,1.32-1.37,4.87Z"/><path class="cls-12" d="M1590.15,388.63l-1.25-.35-3.31-1.86-2.4-2.47-.81-1.7-.58-3.43,2.47-2,.53-1.3.79-1,1.28-.1,1.07-.87h3.69l1.28,1.66,1,2-.15,1.35.74,1.22,0,1.7,1.27-.26-2.16,2.16-2.07,2.52-.25,1.33Z"/><path class="cls-12" d="M1565.8,356.89l-1.91-3.69-2.31-1.68,2-.91,2.24-3.34,1.09-2.45,1.58-1.53,2.31.41,2.24-1,2.59,0,2.21,1.4,3.06,1.27,2.8,3.51,3,3.26L1587,355l.91,2.7,1.73,1.33.4,1.81-.21,1.47-.68.26-2.5-.36-.35.51-1,.12-3.33-1.15-2.22,0-8.53-.2-1.24.53-1.53-.15-2.45.77-.76-3.61,4.2.1,1.12-.66.82,0,1.71-1.09,2,1,2,.08,2-1.07-.92-1.35-1.53.79-1.43,0-1.81-1.17-1.47.08-1.05,1.1Z"/><path class="cls-12" d="M1879.06,365.56l-.12-1.3-1.75,0-2.19,1.61-2.45.46-2.12.69-1.47.1-2.63.16-1.65.86-2.29.31-4.07,1.45-5,.54-4.36,1.2-2.29,0-2.07-2-.91-1.93-1.5-.87-1.71,2.5-1,1.66,1.71,2.57,1.7,2.24,1.76,1.66,15.1,5.5,3.89,0-13.06,13.87-6,.2-4.12,3.24-2.95.08-1.27,1.45-4,5.22,0,16.71,2.73,3.77,1-1.09,1.07-2.4,5.06-5.57,4.3-3.49,6.92-4.54,4.61-3.72,5.43-6.27,3.94-5.15,4-6.75,2.85-5.91,2.22-5.19,1.3-5,1-1.68,0-2.47Z"/><path class="cls-12" d="M1791,547.21l-.94,2.29-2.7.54-2.77-2.78,0-1.78,1.25-1.93.44-1.48,1.33-.36,2.32.94.69,2.29Z"/><path class="cls-12" d="M1709.9,360.34l.46-2.21-3-.12,0-3-1.93-1.75,2-6.26,5.9-4.51.23-6.24,1.78-9.85,1-2.11-1.91-1.68-.08-1.56-1.73-1.28-1.14-7.69,4.66-2.73,18.43,9.5L1753,328.2l.23,19.12-4-.33-2.11,3.51-1.22,2.93,1,1.1-1.51,1.45.53,1.94-1.2,2-.46,1.73,1.63-.28,1,1.81,0,2.73,1.7,1.37,0,1.14-2.91.81-2.35,1.88-3.33,5.09-4.35,2.16-4.46-.3-1.3.43.46,1.63-2.42,1.63-2,1.81-5.81,1.76-1.15-1-.76-.1-.86,1.19-3.82.36.72-1.27-1.45-3.18-.66-1.93-2-.79-2.72-2.72,1-2.19,2.11.46,1.3-.33,2.57,0-2.5-4.23.16-3.11-.31-3.11Z"/><path class="cls-12" d="M1651.57,391.62l-3.71,1-1-1.61L1645.6,388l-.36-2.31,1-4.17-1.15-1.7-.44-3.66v-3.38l-1.93-2.4.35-1.47,4.05.1-.59,2.47,1.4,1.37,1.61,1.63.16,2.29.94,1-.21,10.64Z"/><path class="cls-12" d="M1686.75,273.78l-2-9.65-2.83-2.19,0-1.33-3.77-3.26-.41-4.17,2.85-3.1,1.09-4.64-.74-5.4.94-2.95,5-2.32,3.23.69-.13,2.91,3.92-2.12.33,1.1-2.32,2.82,0,2.63,1.6,1.4-.61,4.87-3,2.82.87,3,2.39.1,1.17,2.62,1.76.86-.26,4.2-2.26,1.56-1.42,1.73L1688.9,268l.49,2.22-.4,2.27Z"/><path class="cls-12" d="M1799.5,424.19l.79.51L1817,434l.33,2.67,6.62,4.59-2.12,5.68.26,2.62,3,1.68.13,1.2-1.27,2.8.26,1.4-.3,2.22,1.61,2.9,1.91,4.59,1.68,1-3.67,2.7-5,1.81-2.77-.07-1.65,1.4-3.21.12-1.22.59-5.55-1.32-3.47.38-1.28-6.36-1.56-2.17-.94-1.28-4.51-.86-2.63-1.4-2.93-.77-1.84-.79-1.93-1.17-2.49-5.85-2.68-2.59-.92-2.67.46-2.4-.82-4.23,1.91-.21,1.66-1.66,1.81-2.4,1.14-1,0-1.5-1-1-.26-1.81,1.32-.58.28-2.7-1.84-2.59,1.63-.56,5.06.07Z"/><path class="cls-12" d="M1790.09,424.55l-5.06-.07-1.63.56-2.75,1.42-1.12-.48,0-3.46,1.07-1.75.26-3.69,1-2.12,1.76-2.4,1.78-1.22,1.48-1.63-1.84-.61.28-5.37,1.89-1.27,2.93,1,3.72-1.07h3.24l2.85-2.11,2.19,3.19.54,2.31,2,5.27-1.68,3.34-2.27,3-1.32,1.86,0,4.86Z"/><path class="cls-12" d="M1788.5,560.34l-.91.76-2,2.68-1.28,2.73-2.62,3.84-5.22,5.57-3.26,3.26-3.49,2.49-4.82,2.14-2.35.28-.59,1.53-2.8-.82-2.29,1.05-5-1.07-2.8.68-1.91-.3-4.76,2.19-3.94.89-2.85,2.11-2.11.13-2-2-1.56-.1-2-2.49-.21.77-.61-1.5,0-3.23-1.5-3.67,1.48-1-.12-4.17-3-5-2.32-4.51v0l-3.31-6.83,2.21-2.59,1.83,1.43.77,2.24,2.07.38,2.9,1,2.49-.38,4.12-2.68v-19l1.25.76,2.73,4.82-.43,3.11,1,1.81,3.31-.53,2.31-2.29,2.19-1.53,1.14-2.44,2.26-1.19,1.94.63,2.21,1.43,3.75.25,2.95-1.19.46-1.58.81-2.42,2.52-.41,1.38-1.89,1.53-3.34,4.15-3.72,6.54-3.66,1.88,0,2.24.84,1.55-.59,2.45.49,2.21,7,1.2,3.57-.82,5.65.4,1.83-2.34-.94-1.33.36-.43,1.48-1.27,1.93,0,1.78,2.75,2.8,2.7-.56.94-2.29,3.51,0-1.15,3.75-.54,4.31-1.2,2.35Zm-11.74-1.58-2-1.61-2.16,1.07-2.5,2.06-2.47,3.34,3.46,4.08,1.65-.53.86-1.7,2.57-.82.79-1.73,1.42-2.57Z"/><path class="cls-12" d="M1794.23,462.36l2.17,2.07,1.17,4-.79,1.27-.92,3.79.89,3.89L1795.3,479l-1.4,4.38,2.42,1.22-14,3.92.44,3.38-3.51.66-2.62,1.89-.56,1.66-1.66.36-4,4-2.55,3.11-1.56.12-1.5-.56-5.15-.53-.82-.36,0-.4-1.81-1.09-3-.28-3.79,1.1-3-3-3.11-3.92.21-15.08,9.62.07-.4-1.63.69-1.76-.81-2.19.53-2.27-.49-1.45,1.6.12.26,1.45,2.16-.12,2.93.43,1.55,2.12,3.69.66,2.83-1.48,1,2.45,3.54.66,1.7,2,1.89,2.59,3.54,0-.4-5.07-1.27.84-3.23-1.81-1.25-.84.58-4.69.82-5.52-1-2.06,1.32-3,1.24-.54,6.21-.79,1.81.48,1.93,1.17,1.84.79,2.93.77Z"/><path class="cls-12" d="M1787,524.59l-2.45-.49-1.56.59-2.22-.84-1.88,0-2.95-2.24-3.57-.76-1.35-3.13,0-1.73-2-.53-5.22-5.35-1.47-2.82-.92-.86-1.78-3.87,5.15.53,1.5.56,1.56-.12,2.55-3.11,4-4,1.66-.36.56-1.66,2.62-1.89,3.51-.66.3,1.78,3.85-.1,2.14,1,1,1.19,2.21.35,2.39,1.55,0,6.08-.91,3.36-.2,3.62.74,1.45-.51,2.87-.71.44-1.22,3.54Z"/><path class="cls-12" d="M1565.21,359l.59-2.09,5-.15,1.05-1.1,1.47-.08,1.81,1.17,1.43,0,1.53-.79.92,1.35-2,1.07-2-.08-2-1-1.71,1.09-.82,0-1.12.66Z"/><path class="cls-12" d="M1783.41,425l1.84,2.59-.28,2.7-1.32.58-2.45-.3-1.42,2.62-2.82-.36.43-2.52.64-.35.16-2.73,1.33-1.28,1.12.48Z"/></g></g><g id="Bangkok"><g id="Timeline-7" data-name="Timeline"><rect id="Timeline-8" data-name="Timeline" class="cls-13" x="643.01" y="517.23" width="701.42" height="74.84"/><rect id="Timeline-9" data-name="Timeline" class="cls-14" x="643.01" y="572.49" width="701.42" height="19.58"/></g><g id="Map-3" data-name="Map"><path class="cls-15" d="M529.74,681.68l3.51-3.32,7.55-4.83-.41,4.36-.51,5.62-4.23-.28-1.86,3Z"/><path class="cls-15" d="M587.42,812.11l-3.73.16L571.94,806l8.24-1.77,4.64,2.72,3.1,2.72Zm32.95-.88-7.58,2-1.07-1.07.79-3,3.82-5.43,8.75-3.54.88,1.77.16,2.72ZM562.5,793l3.19,2.37,5.46-.73,2.21,3.79-10.23,1.8-6.13,1.2-4.77-.06,3-5.12,4.86-.06Zm44.32,0-1.3,4.93-13.3,2.53-11.78-1.11,0-3.25,7-1.86,5.56,2.65,5.91-.66ZM480.34,781.31l17,.88,2-3.66,16.43,4.26,3.22,5.75,13.3,1.61,10.87,5.28L533,798.81l-9.73-3.57-8,.25-9.19-.66-8.28-1.61-10.27-3.38L481,789l-3.7,1.11-16.14-3.66-1.55-3.82-8.12-.66,6.06-8.47,10.74.54,7.14,3.44,3.66.66Zm231.16-5-4.55,6-.85-6.66,1.58-3.19,1.86-3,2,2.59ZM645.29,752,642,754.9l-6.13-1.61-1.74-3.79,9-.41Zm28.56-3.19,3.22,6.73-7.49-3.63-7.39-.73-5,.57-6.13-.32,2.12-4.83,10.93-.38Zm32.5-17.12,2.46,14.25,9.16,5.28,7.39-9.35,10.17-5.31h7.87l7.58,3.06,6.57,3.16,9.51,1.67.16,28.74.16,28.93-7.9-7.3-9-1.8-2.18,2.53-11.21.28,3.76-7.23,5.59-2.46-2.31-9.63-4.26-7.42-17.18-7.49-7.3-.73-13.3-8.15-2.62,4.3-3.41.79-2-3.22,0-3.82-6.76-4.33,9.54-3.16,6.32.16-.76-2.34-13,0-3.51-5.24-7.9-1.61-3.76-4.36,11.94-2.12,4.55-2.87,14.21,3.6ZM627.5,709l-7.11,8.72-6.66,1.71-8.53-1.71-14.75.44-7.74,1.26-1.26,6.66,7.93,7.83,4.77-4,16.52-3-.73,4-3.85-1.26-3.85,5.15-7.8,3.41,8.37,11.28-1.61,3,8,10.17-.06,5.81-4.74,2.59-3.47-3.1,4.3-7.23-8.69,3.41-2.21-2.43,1.14-3.41L589,753.26l.66-8.59-5.91,2.68.76,10.27.35,12.64-5.62,1.3L575.48,769l2.53-8.12-1.36-8.5-3.73-.06-2.75-6,3.66-5.78,1.26-7,4.45-13.27,1.86-3.63,7.52-6.54,6.92,2.59L607,713.87l10.17-.38,8.75-6.38ZM658,711.56l-.47,7.68-4.58-.85-1.36,5.34,3.66,4.64-2.5,1-3.57-5.56-2.62-11.25,1.77-7,2.94-3.19.63,4.8,5.24.76Zm-95.77-6.13,9.92,8.15-10.49,1-3,6,.38,8-8.53,6-.19,8.75L547,756.86l-1.3-3.13-10.08,4-3.51-5.4-6.32-.51L521.37,749l-10.52,3.16-3.22-4.26-5.81.47-7.3-1-1.36-11.81-4.42-2.43-4.26-7.52-1.23-7.71,1-8.15,5.28-5.84,1.48,5.88,6.06,5,5.72-1.8,5.65.63,5.15-4.45,4.23-.76,8.37,2.46,7.23-1.86L538,696.69l3.41-3.06,3.06-10h10.17l7.68,1.48-5,8,6.51,8.34ZM455.48,773.1l-9.79.19-7.45-7.39-11.37-7.2-3.79-5.34-6.7-7.17-4.39-6.6-6.73-12.32-7.77-7.33-2.59-7.55-3.25-6.85-8-5.53L379,692.45l-6.66-4.93-9.22-9.73-.79-4.49,5.72.35,13.71,1.71,7.83,8.62,6.85,6,4.9,3.66,8.4,9.48,9,.13,7.45,6,5.12,7.36,6.73,4-3.54,7.17,5.09,3.06,3.19.22,1.52,6.13,3.1,4.93,6.51.79,4.3,5.56-2.21,11Z"/><path class="cls-15" d="M434.91,627.45l-3.6-4.68-4.45-9.29-2.12-10.9,5.69-7.52,11.43-1.74,8.31,1.3,7.3,3.57,4-6.29,7.87,3.35,2.05,6.06-1.11,10.8L455.41,619l3.89,5.46-9.29.63-7.68,3.6Z"/><path class="cls-15" d="M450.17,594.63l2.87-4.11.41-7.71-7.17-8-.57-9.07L439,558.24l-6.7-.63-1.77,3.22-5.21.25-2.65-1.61-9.32,5.5-.22-8.28,2.18-9.82-6-.41-.51-5.62L405,537.93l1.9-3.47,7.55-6.13.79,2.21,4.71.25L418.58,520l4.58-1.39,5.18,7.49,4,8.59,10.9.09,3.44,8.18L441,545.35l-2.56,3.38,10.61,5.56,7.36,10.93,5.59,8.12,6.7,6.38,2.24,6.44-1.61,9.1-7.87-3.35-4,6.29Z"/><path class="cls-15" d="M399.91,540.11l-5.18,4-6.25.44-4,10.08-3.73,1.67,4.3,8.12,5.62,6.73,3.6,6.06-3.22,8-3.06,1.67,2.12,4.58,5.91,7.2,1,5.05-.16,4.2,3.47,8.21-4.86,8.37-4.3,9.19-.85-6.63,2.72-6.89-3-5.31.73-9.82-3.6-4.68-2.87-10.87-1.61-11.56-3.82-7.58L373,575l-10.08,6.51-5-.82-5.5-2.12,3.06-11.4-1.83-8.66-6.95-10.71,1.07-3.38-5.18-1.2-6.29-7.64-.57-7.61,3.1,1.45.16-6.79,4.39-2.27-.95-4,2-3.25.35-10,6.92,2.21,3.95-8,.47-4.74,4.86-8.21-.25-5.62,11.47-6.82,6.32,1.8-.73-6.1,3.13-1.83-.69-3.79,5.18-.76,3,5.88,3.85,2.37.28,7.58-.38,8.12-8.37,8.15-1.07,11.47,9.35-1.58,2.12,8.84,5.62,1.86-2.59,7.9,6.57,3.57,3.85,1.74,6.48-2.75.28,3.92-7.55,6.13-1.9,3.47Z"/><path class="cls-15" d="M413.47,666.84l.69,4.55,5.84-1,2.91-3.63,2,.82,5.24,5.34,3.73,5.91.51,5.94-.95,4,.85,3L435,697l3.13,2.43,3.47,7.77-.16,3-6.29.6-8.37-6.51-10.49-7-1-4.49-5.12-5.91-1.23-7.3-3.19-4.8,1-6.44-2-3.76,1.55-1.58Zm155.38,15.26-6.51,3-7.68-1.48H544.49l-3.06,10L538,696.69l-4.55,12.26-7.23,1.86-8.37-2.46-4.23.76-5.15,4.45-5.65-.63-5.72,1.8-6.06-5-1.48-5.88,6.48,3,6.85-1.64,1.77-7.45,3.79-1.67,10.61-1.9,6.35-7,4.36-5.59,4,4.58,1.86-3,4.23.28.51-5.62.41-4.36,6.82-6.16,4.45-6.92,3.57,0,4.55,4.49.41,3.85,5.84,2.46,7.39,2.65-.63,3.47-5.94.44Z"/><path class="cls-15" d="M637.55,647.22l.92,5.91.54,5-3,8.12-3.22-9-4.14,4.49,2.84,6.51-2.53,4.14-10.42-5.15-2.5-6.41,2.72-4.2-5.62-4.2-2.78,3.7-4.17-.35-6.57,5-1.45-2.59,3.47-7.49,5.59-2.5,4.83-3.35,3.13,4,6.73-2.43,1.45-4,6.25-.25-.54-6.89,7.17,4.23.76,4.49Zm-21.2-16.62-3.19,2.94-2.78,5.65-2.78,2.65-5.46-6.16,1.83-2.4,2.21-2.5,1-5.56,4.9-.54-1.42,6,6.57-8.65Zm-48.52,8.59-11.78,8.43,4.36-6.22,6.41-5.5,5.31-6.19,4.64-8.91,1.58,7.3L572.51,633Zm29.95-23.06,5.31,2.78h5.62l-.16,3.76-4.11,3.79-5.62,2.68-.32-4.17.63-4.58Zm32-2.43,2.5,10-6.82-2.37.19,3,2.18,5.53-4.2,2-.38-6.29-2.65-.47-1.39-5.43,5.21.73-.13-3.41-5.4-6.89,8.5.19Zm-35.19-8.18-2.34,7.8-3.79-4.49L584,602l7.58.32Zm-1.83-49.72,5.46,2.65,2.72-2.4.79,2.37-1.45,3.85,3,6.6L601,576.53l-5.21,3-1.39,7.36,2,7.23,4.71,1,3.92-1.07,11.06,5-.85,4.93,2.91,2.18-.92,4.17L610.32,606,607,601.23l-2.27,3.32-5.65-5.43-8.05,1.33-4.42-2,.44-3.76,2.78-2.31-2.65-2.12-1.14,3.29-4.36-5.21-1.33-4-.32-8.75,3.57,3,.92-14.37,2.87-8.4Z"/><path class="cls-15" d="M426.86,613.49l-8-4.14-7.58.19,1.3-7.11-7.8.06-.69,9.92-4.77,13.11-2.87,7.9.6,6.48,5.75.28,3.6,8.12L408,656l4.93,5.09,5.37,1,4.58,4.58L420,670.31l-5.88,1.07-.69-4.55-7.2-3.89-1.55,1.58-3.51-3.38-1.52-4.39-4.71-5-4.3-4.2-1.45,5.21-1.67-4.93,1-5.56,2.59-8.56,4.3-9.19,4.86-8.37-3.47-8.21.16-4.2-1-5.05-5.91-7.2-2.12-4.58,3.06-1.67,3.22-8-3.6-6.06L385,564.46l-4.3-8.12,3.73-1.67,4-10.08,6.25-.44,5.18-4,5.05-2.18,3.85,2.91.51,5.62,6,.41-2.18,9.82.22,8.28,9.32-5.5,2.65,1.61,5.21-.25,1.77-3.22,6.7.63,6.73,7.52.57,9.07,7.17,8-.41,7.71-2.87,4.11-8.31-1.3-11.43,1.74-5.69,7.52Z"/><path class="cls-16" d="M625.1,800.07l1-2.08,7.61-2,6.19-.32,2.75-1.11,3.35,1.11-3.25,2.4L633.57,802l-7.42,2.59-.16-2.72Z"/><path class="cls-15" d="M475.25,527.22l-11.81,8.09L456,544.18l-2,6.48,6.79,9.76,8.28,12.07,8,5.65,5.4,7.36,4,16.8-1.2,15.86-7.36,5.91-10.17,5.78-7.2,7.45-11.06,8.28-3.22-5.72,2.5-6-6.57-5.09,7.68-3.6,9.29-.63L455.41,619l14.88-6.92,1.11-10.8-2.05-6.06,1.61-9.1-2.24-6.44-6.7-6.38-5.59-8.12-7.36-10.93-10.61-5.56,2.56-3.38,5.65-2.43-3.44-8.18-10.9-.09-4-8.59-5.18-7.49,4.77-2.34,7,.06,8.62-1.11,7.55-5.12,4.26,3.6,8.12,1.74-1.42,5.5,4.23,3.85Z"/></g></g><g id="Rarotonga"><g id="Timeline-10" data-name="Timeline"><rect id="Timeline-11" data-name="Timeline" class="cls-17" x="779.03" y="613.82" width="268.76" height="74.84"/><rect id="Timeline-12" data-name="Timeline" class="cls-18" x="779.03" y="669.08" width="268.76" height="19.58"/></g><g id="Map-4" data-name="Map"><path class="cls-19" d="M1032.85,1002l6.8,3.21,3.84-1.28,5.5-1.78,4.22.63.5,11.12-2.41,3.26-.73,7.68-2.46-2.63-4.89,6.7-1.46-.53-4.32-.3-4.34-8.23-1-6.27-4.06-8.16.18-4.27Zm-12.92-215.95,2.53,5.65L1027,789l2.33,3.06,3.39,2.84-.73,3.21,1.51,6.22,1.08,3.64,1.78.88,1.91,6.27-.68,3.81,2.28,5,7.63,3.86,5,3.54,4.72,3.24-.93,1.81,4,4.69,2.74,8.16,2.81-1.66,2.86,3.29,1.73-1.15,1.2,8.05,5,4.69,3.26,2.94,5.5,6.25,2,6.25.18,4.44-.48,4.87,3.36,6.72L1090,901l-1.23,3.71-1.91,7.2.15,4.67-1.38,5.87L1082.5,930l-5.22,4.09-2.56,6.5-2.36,4.19-2.08,7.35-2.71,4.29-1.78,6.47-.9,6,.35,2.79-4,3.06-7.88.33-6.5,3.64-3.24,3.46-4.24,3.86-5.82-4-4.32-1.58,1.1-4.64-3.84,1.68L1020.3,984l-6.07-2.43-4-1.41-4-.63-6.8-2.58-4.54-5.47-1.3-6.67-1.63-4.39-3.46-3.51-6.78-1L984,951.7l-1.71-6.32-3.44,5.9-6.27,1.58,3.69-4.72,1.05-4.89,2.71-4.14-.55-6.2-5.72,7.15-4.39,2.89-2.68,6.75-5.5-3.51.23-4.49-4.39-6.1-3.71-3.14,1.33-1.93-9-5-4.94-.23-6.78-4-12.6.78-9.11,3-8,2.76-6.72-.55L890,931.48l-6.1,1.93-1.35,4.39L880,941.21l-6,.2-4.42.75-6.22-1.53-5.07.93-4.82.38-4.19,4.52-2.06-.38-3.54,2.41-3.39,2.71-5.14-.33h-4.72L823,945.43l-3.79-1.61.15-4.84,3.49-1.15,1.2-1.91-.25-3,.85-5.77-.78-4.89L820.14,914,819,909.34l.3-4.59-2.81-5.22-.18-2.33L813.19,894l-.88-6.2-4-6.22-1-3.34,3.09,3.39L808,874.44l3.49,2.26,2.08,3-.13-4-3.49-6.1-.68-2.43-1.63-2.31.75-4.44,1.43-1.88,1-3.81L810,850.3l2.91-5.45.53,5.75,3-5.19,5.72-2.51,3.44-3.21,5.37-2.76,3.19-.58,1.93.93,5.55-2.79,4.27-.83L847,832l1.86-.68,3.89.18,7.4-2.18,3.81-3.29,1.81-4,4.12-3.74.33-2.94.18-4,4.92-6.2,3,6.3,3-1.46-2.51-3.46,2.21-3.54,3.11,1.58.85-5.55,3.84-3.56,1.71-2.86,3.54-1.23.1-2,3.09.85.13-1.81,3.09-1,3.41-1L909,789.8l3.91,4.29,4.39.05,4.47.68-1.48-4,3.36-5.77,3.16-1.88-1.1-1.78,3.06-4.09L933,774.8l3.59.85,5.92-1.36-.13-3.64-5.14-2.36,3.74-1,4.67,1.76,3.74,2.94,5.92,1.83,2-.73,4.37,2.21,4.12-2.06,2.63.63,1.66-1.38,3.24,3.54-1.88,3.84-2.66,2.91-2.41.25.83,2.89-2.06,3.59L962.64,793l.5,2,5.6,4,5.42,2.33,3.61,2.51,5.09,4.32h2l3.69,1.88,1.08,2.26,6.72,2.48,4.64-2.51,1.38-3.94,1.43-3.24.88-4,2.13-5.77-1-3.49.5-2.11-.8-4.12.93-5.42,1.35-1.46-1.1-2.38,1.71-3.79,1.33-3.91.18-2,2.61-2.66,2,3.49L1015,772l1.76.85.3,3,2.56,3.64.53,4.06Z"/><path class="cls-19" d="M1277.75,802.43l-.88,3.51-.58.4-4.47,1.81-4.49,1.53-.9-2.74,3.51-1.51,2.23-.4,4.12-2.28Zm-14.65,10.81-3.19-.9-2.71,2.51.68,3.24,3.89.9,4.37-1,1.15-3.84-2.41-2.11Z"/><path class="cls-20" d="M1176.25,839.74l5.77,4.67,3.64,3.46L1183,849.7l-3.89-2.06-5-3.39-4.54-4-4.64-5.27-1-2.53,3,.13,4,2.53,3.09,2.53Z"/><path class="cls-19" d="M1227.19,1003.22l1.61,3.84,5-3.76,2,3.94v3.94l-2.61,4.37-4.59,7-3.59,3.86,2.58,4.67-5.42.13-6,3.66-1.88,6.45-4,10.11-5.52,4.52-3.51,2.91-6.47-.23-4.57-3.36-7.65-.7-1.18-3.71,3.79-7.43,8.86-9.71,4.54-1.83,5-3.69,6-5,4.22-5,3.14-7.05,2.66-2.38,1.05-5.19,4.94-4.27Zm11.19-42.71,5.09,9.21.15-6,3.19,2.38,1.05,6.65,5.67,2.89,4.74.7,4-3.39,3.56,1-1.71,7.9-2.13,5.24-5.37-.18-1.88,2.76.65,3.91-1,1.71-2.66,4.94-3.49,6.35-5.45,3.74-1.2-2.46-2.94-1.35,4.06-7.63-2.31-5-7.58-3.64.2-3.29,5.09-3.14,1.18-6.88-.33-5.72-2.86-5.87.2-1.53-3.36-3.59-5.55-7.63-2.94-6,2.61-.68,3.84,4.74,5.47,2.23Z"/><path class="cls-19" d="M1106.59,736.71l-2,.7-3-2.71-3.09-4.47-1.51-5.34,1-.68.75,2.08,2.13,1.58,3.41,4.44,3.31,2.38Zm-27.43-9.41-3.69.58-1.1,2-3.84,1.71-3.61,1.66h-3.74l-5.77-2-4-2L1054,727l6.3,1,3.84-.55,1.05-3.36,1-.18.68,3.74,4-.53,2-2.41,3.94-2.51-.78-4.14,4.22-.13,1.43,1.15-.15,3.89Zm-33.7,13.42,6.27,4.62,4.57,7.5,4-.23-.28,3.14,5.45,1.2-2.11,1.33,7.48,3-.78,2.06-4.67.5-1.73-1.83-6-.8-7.1-1.08-5.47-4.52-4-3.89-3.66-6.17-9.18-3.09-6,2L1018,746.8l.9,5.22-5.52,2.43-3.94-1.18-7.28-.3-.13-23-.13-22.83,12.22,4.82,13,4,4.84,3.59,3.91,3.54,1.08,4.14,11.72,4.34,1.71,3.74-6.47.75Zm41.83-20.3-2.21,1.86-1.33-4.14-1.63-2.71-3.19-2.28-4-3-5.07-2.06,2-1.68,3.79,2,2.38,1.53,3,1.68,2.81,2.94,2.68,2.23Z"/><path class="cls-19" d="M1150.48,762.63l2,2.43-4.92-.05-2.68-4.37,4.19,1.73Zm-8.91-4.34-2.74.15-4.32-.73-1.48-1.1.45-2.81,4.64,1.1,2.28,1.48Zm5.82-1.93-1.05,1.3-5.22-6.15-1.46-4.22H1142l2.53,5.65Zm-12.7-8.93.3,1.43-5.52-3-3.86-2.53L1123,741l1.05-.73,3.24,1.68,5.77,3.24Zm-16.44-7-1.41.4-3.09-1.61-2.89-2.89.35-1.18,4.19,3Z"/><path class="cls-19" d="M1190.78,805.66l-2.31,1-2.36-3.19.25-2Zm-5.19-11.14,1.15,5.85-1.88-.9-1.46.4-1-2-.15-5.55Z"/></g></g><g id="Semipalatinsk"><g id="Timeline-13" data-name="Timeline"><rect id="Timeline-14" data-name="Timeline" class="cls-21" x="1236.07" y="613.82" width="429.84" height="74.84"/><rect id="Timeline-15" data-name="Timeline" class="cls-22" x="1236.07" y="669.08" width="429.84" height="19.58"/></g><g id="Map-5" data-name="Map"><path class="cls-23" d="M1693.67,955.28l2.74-7.22,8-2.35,20.08,5.69,1.87-9.74,6.91-3.48,17.39,7,4.43-1.83,20.21.43,18.08,1.74,6.09,6,7.52,2.39-1.7,3.74-19.21,8.82-4.35,6.43-15.65,1.91L1761.48,985l-12.91-2.13-8.39,3.13-11.65,7.48,1.7,3.69-3.48,3.61-23,2.39-15.08-5.09-13.21,1.22,1.17-9.13,13.26,2.65,4.48-4.91,9.26,1.56L1719.18,978l-14.43-8.52-8.69,4-9-6.09,10.22-10.56Z"/><path class="cls-23" d="M1693.67,955.28l-7,3-16,11.35-5.35,11.52-4.56.09-3.3-7.61-15.52-.52-2.48-13.3-6-.13.91-16.52L1619.81,931l-20.91,1.3-14.3,2.43L1573,919.55l-10-6.43-18.91-12.35-2.26-1.52-31.38,10.22.48,61.42-6.26.78-8.52-12.74-8.26-4.61-13.82,3.43-5.39,5.43-.7-4,3-6.82-2.3-5.74L1454.54,941,1449,925.9l-6.69-4.26-.43-5.56,11.87,1.61.48-12.52,10.35-2.78,10.65,2.56,2.22-17L1475.28,877l-12.21.87-10.35-4.35-14.13,7.78-11.35,3.74-6.22-2.87,1.26-9.13-7.78-12-9,.48-10.35-12.3,7-14-3.56-3.78,9.69-20.73,12.56,11,1.52-13.87,25.13-21.08,19-.52,26.91,13.48,14.39,7.78,13-8.13,19.3-.35,15.61,10,3.56-5.69,17.08.83,3.09-9.17-19.78-13.43,11.69-9.69-2.26-5.43,11.69-5.26L1572,747.24l5.56-7,45.6-7.22,6-5.17,30.52-7.78,11-8.87,21.91,4.61,3.83,21.78,12.74-5,15.65,7.09-1,11.22,11.69-1.17,30.52-19.52-4.43,6.52L1777,752.54l27.21,50.34,6.52-10.13,16.78,11.13,17.52-5,6.69,3.48,5.87,11.08,8.52,3.65,5.22,8,15.69-2.52,6.48,11.43-9.3,12.3-10.13,1.74-.57,18.17-6.78,8.09-24.17-5.87-8.78,31.56-6.26,3.87-24.13,6.87,11,29.34L1806,944.5l1,9.39-7.52-2.39-6.09-6-18.08-1.74-20.21-.43-4.43,1.83-17.39-7-6.91,3.48-1.87,9.74-20.08-5.69-8,2.35Z"/><path class="cls-23" d="M1694.32,987.93l-4.48,4.91-13.26-2.65-1.17,9.13,13.21-1.22,15.08,5.09,23-2.39,3.09,14.48,4-1.56,7.39,3.52-.39,6,1.83,8.74h-12.61l-8.39-1.13-7.56,6.82-5.43,1.48-4.26,3.22-4.83-5,1.17-12.82-3.69-.74,1.3-4.74-6.56-3.48-5.26,5.35-1.3,6.22-1.87,2.26-7.3-.3-3.91,7-4.13-2.91-8.82,4.87-3.69-1.83,6.82-15.52-2.61-11.56-9-3.74,3.17-6.91,10.17.74,5.78-8.74,3.87-10.22,16.3-3.74-2.52,7.43,1.74,4.43Z"/><path class="cls-23" d="M1574.82,1058.69l-1.09-12.65-9.09-.52-13.91-13.43-9.74-1.7-13.48-7.78-8.69-1.43-5.35,2.87-8.13-.43-8.65,8.78-10.74,3-2.26-10.82,1.78-16.21L1476,1003l3.13-10.78-8.09-1,2.7-13.43,11.48,4,10.74-5.17-8.91-9.69-3.48-9.3-9.82,4.17-1.22,11.87-3.83-10.48,5.39-5.43,13.82-3.43,8.26,4.61,8.52,12.74,6.26-.78,13.74-.22-2-8.17,10.43-5.65,10.26-9.56,16.43,8.69,1.3,13,4.65,3.35,13.17-.74,4.09,2.91,6,16.47,14,10.91,8,7.35,12.74,7.61,16.21,6.61-.35,9.39-3.65-.48-5.78-4.09-1.91,5.43-10.26,3-2.43,12.13-6.87,4.56-9.61,2.26-2.56,6.74-9.17,2Z"/><path class="cls-23" d="M1639.5,1032.83l.35-9.39-16.21-6.61-12.74-7.61-8-7.35L1589,991l-6-16.47-4.09-2.91-13.17.74-4.65-3.35-1.3-13-16.43-8.69-10.26,9.56-10.43,5.65,2,8.17-13.74.22-.48-61.42,31.38-10.22,2.26,1.52L1563,913.12l10,6.43,11.65,15.21,14.3-2.43,20.91-1.3,14.56,12.17-.91,16.52,6,.13,2.48,13.3,15.52.52,3.3,7.61,4.56-.09,5.35-11.52,16-11.35,7-3,3.61,1.61-10.22,10.56,9,6.09,8.69-4,14.43,8.52-15.61,11.48-9.26-1.56-5,.43-1.74-4.43,2.52-7.43-16.3,3.74-3.87,10.22-5.78,8.74-10.17-.74-3.17,6.91,9,3.74,2.61,11.56-6.82,15.52-9.22-3.22Z"/><polygon class="cls-24" points="1473.71 961.8 1483.54 957.63 1487.01 966.93 1495.92 976.62 1483.67 981.28 1473.71 977.84 1473.71 961.8"/></g></g><g id="Ebene_16" data-name="Ebene 16"><path class="cls-25" d="M1499.47,101.28l-1.09,8.89-8.22.05,2.81,4.63-4.84,13.78-2.76,3.59-12.74.52-7.38,4.78-12.07-1.61-20.85-5.46-3.22-7.44-14.41,3.74-1.72,4-8.84-3-7.44-.57-6.6-3.85,2.24-5.25-.57-3.85,4.42-1.14,7.38,5.93,2.08-5.67,12.85.94,10.45-3.85,7,.62,4.52,4.42,1.4-3.64-2.08-14.15,5.25-2.81,5.1-10.14L1461,91.86l8.16-9,5.15-1.66,11.34,6.76,6.81-1.14,6.76,4.16-1.2,2.81Z"/><rect class="cls-26" x="1367.29" y="158.55" width="165.53" height="27.99"/><text class="cls-27" transform="translate(1373.25 180.33)"><tspan class="cls-28">A</tspan><tspan x="15.49" y="0">ustria (1999)</tspan></text><polygon class="cls-29" points="1352.51 206.59 1355.63 214.35 1352.23 215.63 1350.23 214.24 1348.3 216.53 1324.61 178.12 1332.33 175.67 1336.6 172.12 1345.2 177.25 1348.79 181.35 1350.57 187.83 1348.46 191.23 1351.19 195.71 1353.1 202.36 1352.51 206.59"/><polygon class="cls-29" points="1324.61 178.12 1348.3 216.53 1342.85 218.85 1340.02 221.85 1334.48 224.43 1324.61 202.29 1321.49 190.65 1324.61 178.12"/><polygon class="cls-30" points="1340.51 235.7 1344.8 240.67 1342.14 245.97 1339.4 247.43 1340.49 254.81 1339.75 256.71 1337.39 254.41 1333.76 254.08 1328.3 256.09 1321.6 255.6 1320.51 258.56 1316.66 255.46 1314.36 256.05 1306.22 252.64 1304.64 255.08 1298.18 255 1299.13 246.91 1302.98 239.04 1292.01 236.93 1288.43 233.87 1288.86 228.74 1287.36 226.07 1288.22 218.02 1293.43 200.65 1295.32 189.16 1293.88 184.89 1295.37 182.17 1301.73 181.46 1303.15 184.28 1308.33 177.96 1306.6 173.11 1306.23 165.65 1311.98 167.38 1316.85 165.37 1316.99 170.48 1324.7 173.51 1324.61 178.12 1321.49 190.65 1324.61 202.29 1334.48 224.43 1336.63 232.88 1340.51 235.7"/><polyline class="cls-31" points="1348.3 216.53 1350.23 214.24 1352.23 215.63 1355.63 214.35 1352.51 206.59 1353.1 202.36 1351.19 195.71 1348.46 191.23 1350.57 187.83 1348.79 181.35 1345.2 177.25 1336.6 172.12 1332.33 175.67 1324.61 178.12 1324.7 173.51 1316.99 170.48 1316.85 165.37 1311.98 167.38 1306.23 165.65 1306.6 173.11 1308.33 177.96 1303.15 184.28 1301.73 181.46 1295.37 182.17 1293.88 184.89 1295.32 189.16 1293.43 200.65 1288.22 218.02 1287.36 226.07 1288.86 228.74 1288.43 233.87 1292.01 236.93 1302.98 239.04 1299.13 246.91 1298.18 255 1304.64 255.08 1306.22 252.64 1314.36 256.05 1316.66 255.46 1320.51 258.56 1321.6 255.6 1328.3 256.09 1333.76 254.08 1337.39 254.41 1339.75 256.71 1340.49 254.81 1339.4 247.43 1342.14 245.97 1344.8 240.67 1340.51 235.7 1336.63 232.88 1334.48 224.43"/><polyline class="cls-31" points="1324.61 178.12 1321.49 190.65 1324.61 202.29 1334.48 224.43 1340.02 221.85 1342.85 218.85 1348.3 216.53"/><line class="cls-31" x1="1348.3" y1="216.53" x2="1324.61" y2="178.11"/><rect class="cls-29" x="1218.09" y="269.43" width="226.98" height="63.34"/><text class="cls-27" transform="translate(1223.9 294.53)">East Germany: 1990<tspan x="42.65" y="28.74">(2+4</tspan><tspan class="cls-32" x="91.31" y="28.74"> </tspan><tspan class="cls-33" x="96.77" y="28.74">T</tspan><tspan class="cls-34" x="110.18" y="28.74">r</tspan><tspan x="118.06" y="28.74">eaty)</tspan></text><rect class="cls-35" x="946.49" y="184.02" width="301.2" height="63.34"/><text class="cls-27" transform="translate(952.04 209.12)">The Philippines: 1987-1997<tspan x="39.83" y="28.74">(</tspan><tspan class="cls-36" x="48.01" y="28.74">T</tspan><tspan class="cls-34" x="61.42" y="28.74">r</tspan><tspan x="69.3" y="28.74">eaty of Bangkok)</tspan></text><rect class="cls-37" x="747.97" y="262.86" width="281.37" height="63.34"/><text class="cls-27" transform="translate(755.46 287.96)">New <tspan class="cls-38" x="53.68" y="0">Z</tspan><tspan x="67.77" y="0">ealand: 1987-1986</tspan><tspan x="19.12" y="28.74">(</tspan><tspan class="cls-33" x="27.3" y="28.74">T</tspan><tspan class="cls-39" x="40.71" y="28.74">r</tspan><tspan x="48.6" y="28.74">eaty of Ra</tspan><tspan class="cls-40" x="155.06" y="28.74">r</tspan><tspan class="cls-41" x="162.93" y="28.74">o</tspan><tspan class="cls-40" x="176.58" y="28.74">t</tspan><tspan x="184.17" y="28.74">onga)</tspan></text><rect class="cls-42" x="520.45" y="180.3" width="243.24" height="63.34"/><text class="cls-27" transform="translate(528.64 205.4)">Mongolia: 1992-2010<tspan x="-1.66" y="28.74">(UN + P5 </tspan><tspan class="cls-39" x="99.04" y="28.74">r</tspan><tspan x="106.92" y="28.74">ecognition)</tspan></text><path class="cls-43" d="M1129.56,146.24l1,6.44.58,5.44-3.3,8.84-3.51-9.84-4.51,4.89,3.1,7.09-2.75,4.51L1108.81,168l-2.72-7,3-4.58-6.13-4.58-3,4-4.54-.38-7.16,5.4-1.58-2.82,3.79-8.16,6.09-2.72,5.27-3.65,3.41,4.37,7.33-2.65,1.58-4.34,6.81-.28-.58-7.5,7.81,4.61.83,4.89Zm-23.09-18.1-3.48,3.2-3,6.16-3,2.89-6-6.71,2-2.62,2.41-2.72,1.07-6.06,5.33-.59-1.55,6.57,7.16-9.43Zm-52.86,9.36-12.84,9.19,4.75-6.78,7-6,5.78-6.75,5.06-9.7,1.72,7.95-6.37,5.37Zm32.63-25.12,5.78,3h6.13l-.17,4.1-4.47,4.13-6.13,2.93L1087,122l.69-5Zm34.9-2.65,2.72,10.94-7.43-2.58.21,3.27,2.37,6-4.58,2.17-.41-6.85-2.89-.52-1.51-5.92,5.68.79-.14-3.72-5.88-7.5,9.26.21Zm-38.34-8.91-2.55,8.5-4.13-4.89-4.92-7.5,8.26.34Zm-2-54.17,6,2.89,3-2.62.86,2.58L1089,53.7l3.3,7.19-2.55,8.33-5.68,3.3-1.51,8,2.17,7.88,5.13,1.1,4.27-1.17,12,5.47-.93,5.37,3.17,2.37-1,4.54-7.5-4.82-3.58-5.16-2.48,3.61-6.16-5.92-8.78,1.45-4.82-2.17.48-4.1,3-2.51-2.89-2.31-1.24,3.58-4.75-5.68-1.45-4.34-.34-9.53,3.89,3.3,1-15.66,3.13-9.15Z"/><path class="cls-44" d="M892.43,159.14l1.7,4.06,5.28-4,2.15,4.17v4.17l-2.76,4.62-4.86,7.43-3.8,4.09,2.73,4.94-5.73.13-6.37,3.88-2,6.82-4.22,10.7-5.84,4.78L865,218l-6.85-.24-4.83-3.56-8.1-.74L844,209.55l4-7.86,9.37-10.27,4.81-1.94,5.34-3.9,6.37-5.34,4.46-5.26,3.32-7.46,2.81-2.52,1.11-5.5,5.23-4.51ZM904.27,114l5.39,9.74.16-6.32,3.37,2.52,1.11,7,6,3.05,5,.74,4.25-3.58,3.77,1.09-1.81,8.36-2.26,5.55-5.68-.19-2,2.92.69,4.14-1.09,1.81-2.81,5.23-3.69,6.72-5.76,4-1.27-2.6-3.11-1.43,4.3-8.07-2.44-5.34-8-3.85.21-3.48,5.39-3.32,1.25-7.27-.35-6.05-3-6.21.21-1.62-3.56-3.8-5.87-8.07-3.11-6.4,2.76-.72,4.06,5,5.79,2.36Z"/><path class="cls-45" d="M542.18,106.7l6-1.49,10.76-7.52,8.58-4.16,4.89,2.71,5.89.12,3.76,4.12,5.63.3L595.8,103l5.47-6.09L599,91.66l5.85-9.37,6.31,3.76,5.11,1.07,6.63,2.31,1.07,6.67,8,3.7,5.33-1.63L644.41,97l5.65,1.17,5.53,4.2,3.42,4.42,5.23-.08,7.1,1.39,5.19-2.13,7.42-1.43,8.26-6.15,3.38.94,3,2.94,6.71-.72-2.73,6.53-4,8.48L700,120l3.2-1.07,5.55,1.31,4.34-3.1,4.52,2.67,5.11,5.81-.62,2.92-4.44-.92-8.18,1.09-4,2.33-4.12,5.35-8.6,3.12-5.61,4.22-5.79-1.61-3.18-.72-3,5.11,1.79,3,.92,2.57-4,2.61-4,4.12-6.57,2.67-8.46.3-9.11,2.63-6.55,4-2.49-2.33h-6.82l-8.34-4.6L616,160.42l-7.5,1.07-11.64-1.71-6.21.18-3.3-4.56-2.57-7.18-3.48-.86-6.82-4.93-7.6-1.11L560.2,140l-2-3.48,2.17-9.51-3.88-6.65-8-3.16-4.74-4.48Z"/></g><g id="Ebene_15" data-name="Ebene 15"><text class="cls-46" transform="translate(300.99 365.37)">Tlatelolco</text><text class="cls-46" transform="translate(460.89 462.36)"><tspan class="cls-47">P</tspan><tspan x="27.65" y="0">elindaba</tspan></text><text class="cls-46" transform="translate(648.26 557.97)">Bangkok</text><text class="cls-46" transform="translate(782.35 654.43)">Ra<tspan class="cls-48" x="51.34" y="0">r</tspan><tspan class="cls-49" x="65.89" y="0">o</tspan><tspan class="cls-48" x="91.14" y="0">t</tspan><tspan x="105.17" y="0">onga</tspan></text><text class="cls-46" transform="translate(1238.38 654.43)">Semipalatinsk</text></g></svg>