<svg id="Ebene_1" data-name="Ebene 1" xmlns="http://www.w3.org/2000/svg" viewBox="0 0 425 200">
  <defs>
    <style>
      .cls-1, .cls-2, .cls-3, .cls-5, .cls-6, .cls-7 {
        fill: #fff;
      }

      .cls-1, .cls-2, .cls-3 {
        stroke: #0c425b;
      }

      .cls-1, .cls-2, .cls-3, .cls-5, .cls-6 {
        stroke-miterlimit: 10;
      }

      .cls-1 {
        stroke-width: 6.3355px;
      }

      .cls-2, .cls-5 {
        stroke-width: 6px;
      }

      .cls-3 {
        stroke-width: 5.8677px;
      }

      .cls-4 {
        fill: #09425b;
      }

      .cls-5 {
        stroke: #446d80;
      }

      .cls-6 {
        stroke: #fbc307;
        stroke-width: 8px;
      }

      .cls-8 {
        fill: #fbc307;
      }
    </style>
  </defs>
  <rect class="cls-1" x="5.6517" y="5.1543" width="148.9784" height="150.2337"/>
  <rect class="cls-2" x="26.4135" y="25.6434" width="26.118" height="18.763"/>
  <rect class="cls-2" x="66.1917" y="25.6434" width="26.118" height="18.763"/>
  <rect class="cls-2" x="105.9698" y="25.6434" width="26.118" height="18.763"/>
  <rect class="cls-2" x="26.4135" y="56.8914" width="26.118" height="18.763"/>
  <rect class="cls-2" x="66.1917" y="56.8914" width="26.118" height="18.763"/>
  <rect class="cls-2" x="105.9698" y="56.8914" width="26.118" height="18.763"/>
  <rect class="cls-3" x="27.6148" y="100.4394" width="62.4856" height="52.4253"/>
  <rect class="cls-4" x="55.6102" y="100.7281" width="6.4947" height="55.2811"/>
  <rect class="cls-5" x="105.4124" y="56.5522" width="177.3492" height="99.3237"/>
  <rect class="cls-5" x="227.1547" y="73.3765" width="31.9713" height="21.6952"/>
  <rect class="cls-5" x="176.7173" y="73.3765" width="31.9713" height="21.6952"/>
  <rect class="cls-5" x="227.1547" y="112.7321" width="31.9713" height="23.0857"/>
  <rect class="cls-5" x="176.7173" y="112.7321" width="31.9713" height="23.0857"/>
  <rect class="cls-5" x="128.6442" y="112.7321" width="31.9713" height="23.0857"/>
  <rect class="cls-5" x="127.4818" y="73.3765" width="31.9713" height="21.6952"/>
  <path class="cls-6" d="M379.143,63.0419h.0006a15.2834,15.2834,0,0,0,0-30.5664h-.0006c-8.4021,0-15.2137,7.4472-15.2137,15.8881S370.7409,63.0419,379.143,63.0419Z"/>
  <g>
    <path class="cls-7" d="M388.0635,195.0062a11.1938,11.1938,0,0,1-7.8164-3.3755,9.59,9.59,0,0,1-1.4766-2.0244,10.3076,10.3076,0,0,1-8.999,5.4038l-.2891-.0039a10.9764,10.9764,0,0,1-7.6611-3.3242,8.9812,8.9812,0,0,1-2.5645-6.438l.2012-59.436-1.499,3.7847a8.3263,8.3263,0,0,1-8.0225,5.4331,10.84,10.84,0,0,1-3.7519-.6939,8.9339,8.9339,0,0,1-5.0664-4.6743,10.6687,10.6687,0,0,1-.3243-7.9194c.502-1.5738,8.7872-27.523,11.629-36.0166,2.9775-8.899,12.93-14.212,26.621-14.212,11.8047,0,21.91,5.35,25.7461,13.63l.0625.1358L419.45,124.1879c1.6416,4.541-.1465,10.6294-5.3975,12.5268a10.8977,10.8977,0,0,1-3.7441.6734h-.001a9.0434,9.0434,0,0,1-8.6338-5.6578l-3.2588-7.1748-.13,61.147a9.8352,9.8352,0,0,1-9.9327,9.3076Z"/>
    <path class="cls-8" d="M379.0436,75.51c9.7278,0,18.7773,4.1029,22.117,11.3113l14.5448,38.7717c.9473,2.6212-.0671,6.2958-3.0119,7.36a6.9465,6.9465,0,0,1-2.3855.4353,5.0664,5.0664,0,0,1-4.9362-3.1887l-10.9173-24.04-.167,79.43a5.8828,5.8828,0,0,1-5.935,5.4206c-.0583,0-.117-.0008-.1758-.0025-3.7283-.0925-6.5316-2.7645-6.4525-5.5732l.3495-48.1513H375.87l-.0515,48.3064a5.99,5.99,0,0,1-6.0471,5.4206q-.0876,0-.176-.0025c-3.7284-.0925-6.4193-2.842-6.34-5.6507l.2746-80.7L354.24,128.12a4.3618,4.3618,0,0,1-4.3038,2.9059,6.8825,6.8825,0,0,1-2.3695-.4473c-3.2232-1.1731-3.956-4.9145-2.9855-7.5514,0,0,8.6942-27.2454,11.6351-36.0362S369.9643,75.51,379.0436,75.51m0-8c-15.4951,0-26.8649,6.3337-30.4142,16.9428-2.85,8.5206-10.89,33.7009-11.6271,36.0088a14.5494,14.5494,0,0,0,.488,10.8811,12.9161,12.9161,0,0,0,7.34,6.7533,14.7846,14.7846,0,0,0,5.1057.93,12.828,12.828,0,0,0,5.4807-1.21l-.1614,47.4411a12.9641,12.9641,0,0,0,3.664,9.1786,15.01,15.01,0,0,0,10.4776,4.57c.1063.003.2408.0049.3744.0049a14.27,14.27,0,0,0,9.0759-3.2567,15.4121,15.4121,0,0,0,9.1311,3.2518c.1064.003.2409.0049.3743.0049a13.8634,13.8634,0,0,0,13.9318-13.1944l.003-.1046v-.1047l.0983-46.6971a13.5631,13.5631,0,0,0,7.9223,2.4788,14.91,14.91,0,0,0,5.1325-.9217,13.02,13.02,0,0,0,7.7338-7.8675,14.4694,14.4694,0,0,0,.0548-9.7252l-.0165-.0455-.017-.0452L408.6508,84.0113l-.1053-.2809-.1261-.2722C403.9308,73.77,392.4,67.51,379.0436,67.51Z"/>
  </g>
  <path class="cls-6" d="M283.0554,62.1688h0a15.2834,15.2834,0,0,0,0-30.5665h0c-8.4021,0-15.2138,7.4472-15.2138,15.8881S274.6533,62.1688,283.0554,62.1688Z"/>
  <g>
    <path class="cls-7" d="M291.9769,194.1332a11.1952,11.1952,0,0,1-7.8184-3.376,9.5941,9.5941,0,0,1-1.4756-2.0234,10.3126,10.3126,0,0,1-9.001,5.4033l-.2871-.0039a10.9774,10.9774,0,0,1-7.6611-3.3242,8.9809,8.9809,0,0,1-2.5644-6.438l.2011-59.4385-1.5,3.7866a8.3238,8.3238,0,0,1-8.0224,5.4336,10.85,10.85,0,0,1-3.751-.6934,8.9361,8.9361,0,0,1-5.0664-4.6738,10.6719,10.6719,0,0,1-.3242-7.9209c.5019-1.5737,8.7871-27.5224,11.6289-36.0161,2.9775-8.8989,12.93-14.2119,26.6211-14.2119,11.8046,0,21.91,5.35,25.7461,13.63l.0625.1357,14.5976,38.9121a10.4412,10.4412,0,0,1-.0332,7.04,8.9292,8.9292,0,0,1-5.3642,5.4873,10.9075,10.9075,0,0,1-3.7452.6733h0a9.0425,9.0425,0,0,1-8.6338-5.6577l-3.2587-7.1753-.13,61.147a9.8364,9.8364,0,0,1-9.9336,9.3081Z"/>
    <path class="cls-8" d="M282.956,74.6367c9.7277,0,18.7772,4.1029,22.1169,11.3113L319.6177,124.72c.9473,2.6212-.067,6.2959-3.0119,7.36a6.9484,6.9484,0,0,1-2.3855.4353,5.0665,5.0665,0,0,1-4.9362-3.1888l-10.9172-24.04-.1671,79.43a5.8828,5.8828,0,0,1-5.9349,5.4206q-.0876,0-.1759-.0025c-3.7283-.0926-6.5316-2.7646-6.4525-5.5732l.3495-48.1513h-6.2039l-.0514,48.3064a5.99,5.99,0,0,1-6.0472,5.4206c-.0583,0-.1171-.0009-.1759-.0025-3.7285-.0926-6.4193-2.8421-6.34-5.6508l.2745-80.7-9.29,23.4626a4.3618,4.3618,0,0,1-4.3038,2.9059,6.8825,6.8825,0,0,1-2.3695-.4473c-3.2232-1.1732-3.956-4.9146-2.9855-7.5514,0,0,8.6943-27.2455,11.6352-36.0363s13.7481-11.4809,22.8275-11.4809m0-8c-15.4952,0-26.865,6.3338-30.4142,16.9428-2.85,8.52-10.89,33.698-11.6271,36.0086a14.5488,14.5488,0,0,0,.488,10.8814,12.9158,12.9158,0,0,0,7.34,6.7533,14.7837,14.7837,0,0,0,5.1057.93,12.8283,12.8283,0,0,0,5.4807-1.21l-.1614,47.4411a12.9637,12.9637,0,0,0,3.6639,9.1786,15.01,15.01,0,0,0,10.4776,4.57c.1064.0031.2409.005.3744.005a14.2705,14.2705,0,0,0,9.0759-3.2568,15.4121,15.4121,0,0,0,9.1311,3.2518c.1064.0031.2409.005.3744.005a13.8633,13.8633,0,0,0,13.9317-13.1944l.003-.1047,0-.1047.0982-46.697a13.5631,13.5631,0,0,0,7.9223,2.4788,14.9081,14.9081,0,0,0,5.1325-.9218,13.02,13.02,0,0,0,7.7339-7.8674,14.47,14.47,0,0,0,.0547-9.7252l-.0165-.0455-.0169-.0453L312.5632,83.1381l-.1054-.2809-.1261-.2722c-4.4886-9.6882-16.0193-15.9483-29.3757-15.9483Z"/>
  </g>
</svg>
