<svg id="Ebene_1" data-name="Ebene 1" xmlns="http://www.w3.org/2000/svg" viewBox="0 0 425 200">
  <defs>
    <style>
      .cls-1, .cls-5 {
        fill: none;
        stroke-miterlimit: 10;
        stroke-width: 8px;
      }

      .cls-1 {
        stroke: #0c425b;
      }

      .cls-2 {
        fill: #09425b;
      }

      .cls-3 {
        fill: #0c425b;
      }

      .cls-4 {
        fill: #bccf0f;
      }

      .cls-5 {
        stroke: #921f35;
      }

      .cls-6 {
        fill: #921f35;
      }
    </style>
  </defs>
  <rect class="cls-1" x="150.3157" y="5.8664" width="124.9918" height="188.3772"/>
  <g>
    <path class="cls-2" d="M311.7277,145.3958l2.4732-1.4293-.1571-.4812a10.2985,10.2985,0,0,1,18.4191-8.8162l1.9107-1.1227a3.2771,3.2771,0,0,1,2.5206-4.4818v-2.0385a10.3048,10.3048,0,0,1-1.7567-20.3464l.4877-.11V103.708l-.7315.125a14.6868,14.6868,0,0,0-10.6268,21.0354,14.6848,14.6848,0,0,0-12.7994,19.8389Z"/>
    <g>
      <path class="cls-2" d="M347.7177,116.7394a10.3167,10.3167,0,0,1-9.91,10.2921V129.05a3.2742,3.2742,0,0,1,2.6332,4.5741l1.8723,1.0963a10.3006,10.3006,0,0,1,18.4536,8.7649l-.1562.4812,2.4732,1.4293.26-.6885a14.6856,14.6856,0,0,0-12.8-19.8389,14.6868,14.6868,0,0,0-10.7556-21.0572l-.7251-.1188v2.8567l.495.1051A10.3543,10.3543,0,0,1,347.7177,116.7394Z"/>
      <path class="cls-2" d="M337.4056,121.0916a11.2359,11.2359,0,0,1,7.0837,2.5052,9.79,9.79,0,0,0,2.2177-3.615,15.4336,15.4336,0,0,0-18.6005-.002,9.8246,9.8246,0,0,0,2.2233,3.611A11.236,11.236,0,0,1,337.4056,121.0916Z"/>
    </g>
    <g>
      <path class="cls-2" d="M358.5336,147.3009a10.312,10.312,0,0,1-17.5393-4.3252,10.2335,10.2335,0,0,1,.8485-7.4716l-1.8914-1.1075a3.2567,3.2567,0,0,1-5.111-.0663l-1.9025,1.1177a10.3057,10.3057,0,0,1-16.66,11.8529l-.3388-.368-2.48,1.432.4749.57a14.6849,14.6849,0,0,0,23.4709-1.2273,14.6824,14.6824,0,0,0,23.471,1.2273l.4749-.57-2.4786-1.432Z"/>
      <g>
        <path class="cls-2" d="M331.3684,146.6812a9.7687,9.7687,0,0,0,1.9983-3.7665,11.1655,11.1655,0,0,1-7.12-12.1659,9.2936,9.2936,0,0,0-4.2565-.1,15.4582,15.4582,0,0,0,9.3778,16.0324Z"/>
        <path class="cls-2" d="M341.4527,142.9117a9.8169,9.8169,0,0,0,1.9933,3.7683,15.4587,15.4587,0,0,0,9.3745-16.0314,9.2934,9.2934,0,0,0-4.2566.1005,11.1653,11.1653,0,0,1-7.1112,12.1626Z"/>
      </g>
    </g>
  </g>
  <rect class="cls-1" x="6.1617" y="5.8115" width="124.9918" height="188.4801"/>
  <rect class="cls-1" x="293.6932" y="5.8993" width="124.9918" height="188.4801"/>
  <g>
    <path class="cls-3" d="M52.7561,143.5247a6.118,6.118,0,1,1,6.118-6.118A6.1423,6.1423,0,0,1,52.7561,143.5247Z"/>
    <path class="cls-3" d="M52.7561,105.1833a8.7842,8.7842,0,0,1,2.1246,17.3156h-.2125v7.7549a5.8808,5.8808,0,0,0-1.9121-.2125,11.6986,11.6986,0,0,0-1.9122.2125v-7.7549h-.2125A8.7468,8.7468,0,0,1,43.9389,114a8.8636,8.8636,0,0,1,8.8172-8.8171"/>
    <path class="cls-3" d="M59.839,139.4959l6.5863,3.8243.2124.1062.1063-.1062a8.8689,8.8689,0,0,1,10.7293-1.4873,9.0084,9.0084,0,0,1,4.143,5.3116,8.7145,8.7145,0,0,1-8.4985,11.048,8.9108,8.9108,0,0,1-4.3554-1.1685,8.7449,8.7449,0,0,1-4.0368-10.092l.1062-.2124-.2124-.1063-6.6926-3.8243a6.9294,6.9294,0,0,0,1.9122-3.2931"/>
    <path class="cls-3" d="M45.4978,139.39a6.4657,6.4657,0,0,0,1.9121,3.2932l-6.7987,3.9305-.2125.1063.1062.2124a8.9384,8.9384,0,0,1-4.0368,10.092,9.2274,9.2274,0,0,1-4.3554,1.1685,8.92,8.92,0,0,1-7.6487-4.3555,8.7727,8.7727,0,0,1,3.2932-12.0041,9.2275,9.2275,0,0,1,4.3555-1.1685,9.1,9.1,0,0,1,6.3738,2.6558l.1063.1062.2124-.1062,6.6926-3.9306"/>
    <g>
      <path class="cls-3" d="M55.6959,127.4918a10.485,10.485,0,0,1,7.5424,10.0919,9.6469,9.6469,0,0,1-.3186,2.4433l-2.8683-1.7v-.85a7.2985,7.2985,0,0,0-4.4617-6.7988v-3.1869"/>
      <path class="cls-3" d="M49.747,127.4918v3.2931a7.4665,7.4665,0,0,0-4.4617,6.7988v.7436l-2.8682,1.5935a8.8467,8.8467,0,0,1-.3187-2.3371,10.7105,10.7105,0,0,1,7.6486-10.0919"/>
      <path class="cls-3" d="M48.26,143.4264a7.5046,7.5046,0,0,0,4.4617,1.4872,7.847,7.847,0,0,0,4.3555-1.381l2.8682,1.5935a10.382,10.382,0,0,1-7.2237,2.8682,10.1176,10.1176,0,0,1-7.2237-2.9744l2.762-1.5935"/>
    </g>
  </g>
  <rect class="cls-3" x="46.6381" y="35.3055" width="63.5845" height="6.8064"/>
  <rect class="cls-3" x="46.6381" y="57.3608" width="63.5845" height="6.8064"/>
  <rect class="cls-3" x="23.2702" y="79.4161" width="86.9524" height="6.8064"/>
  <rect class="cls-2" x="332.9646" y="36.1786" width="64.7895" height="6.8064"/>
  <rect class="cls-2" x="332.9646" y="58.2339" width="64.7895" height="6.8064"/>
  <rect class="cls-2" x="310.8017" y="80.2892" width="86.9524" height="6.8064"/>
  <rect class="cls-2" x="190.5458" y="35.3055" width="64.4142" height="6.8064"/>
  <rect class="cls-2" x="190.5458" y="57.3608" width="64.4142" height="6.8064"/>
  <rect class="cls-2" x="168.0076" y="79.4161" width="86.8765" height="6.8064"/>
  <polygon class="cls-4" points="89.476 128.953 74.938 115.698 80.777 109.294 88.92 116.718 108.253 95.581 114.649 101.429 89.476 128.953"/>
  <polygon class="cls-4" points="233.79 128.953 219.251 115.698 225.091 109.294 233.234 116.718 252.567 95.581 258.962 101.429 233.79 128.953"/>
  <g>
    <path class="cls-2" d="M193.9188,121.5729a5.769,5.769,0,1,0,5.7687,5.7686A5.7758,5.7758,0,0,0,193.9188,121.5729Z"/>
    <path class="cls-2" d="M190.4517,120.399,181.37,104.6709l-.4063.2355a26.003,26.003,0,0,0-12.9556,22.4351v.469h18.1643c-.01-.1583-.0474-.3084-.0474-.469A7.7749,7.7749,0,0,1,190.4517,120.399Z"/>
    <path class="cls-2" d="M201.7118,127.3415c0,.16-.0378.3105-.0474.4686h18.1639v-.4691a26.0025,26.0025,0,0,0-12.9567-22.4351l-.4058-.2354-9.0817,15.7278A7.7751,7.7751,0,0,1,201.7118,127.3415Z"/>
    <path class="cls-2" d="M189.6264,133.8362l-9.0687,15.7076.4069.2345a26.0069,26.0069,0,0,0,25.9089.0019l.406-.2347-9.0706-15.7084a7.74,7.74,0,0,1-8.5825-.0009Z"/>
  </g>
  <line class="cls-5" x1="373.1149" y1="101.5036" x2="401.9919" y2="130.3806"/>
  <line class="cls-5" x1="401.9919" y1="101.5036" x2="373.1149" y2="130.3806"/>
  <path class="cls-4" d="M41.1633,51.0849a4.6025,4.6025,0,0,1-2.5692,4.2978A5.39,5.39,0,0,1,40.735,59.95a5.0807,5.0807,0,0,1-2.1817,4.3544,10.0986,10.0986,0,0,1-6.0173,1.5767,10.45,10.45,0,0,1-6.3526-1.6946,5.753,5.753,0,0,1-2.2745-4.9117l4.5832-.0158a2.54,2.54,0,0,0,1.0149,2.17,5.0321,5.0321,0,0,0,3.029.7569,4.9958,4.9958,0,0,0,2.696-.596,1.8258,1.8258,0,0,0,.92-1.5995,1.94,1.94,0,0,0-1.024-1.6878,16.2316,16.2316,0,0,0-3.9148-1.4522A18.6015,18.6015,0,0,1,26.85,55.1766a6.1992,6.1992,0,0,1-2.1884-2.0617,5.4367,5.4367,0,0,1-.7206-2.87A4.7131,4.7131,0,0,1,26.51,45.9151a5.4018,5.4018,0,0,1-2.1569-4.5674,5.2088,5.2088,0,0,1,2.2294-4.3771,9.8266,9.8266,0,0,1,6.0172-1.6651,9.2527,9.2527,0,0,1,6.074,1.792,6.1172,6.1172,0,0,1,2.1569,4.98H36.2469a2.8127,2.8127,0,0,0-.974-2.2271,3.94,3.94,0,0,0-2.6735-.85,4.9422,4.9422,0,0,0-2.696.6184,1.9261,1.9261,0,0,0-.9514,1.697,1.9632,1.9632,0,0,0,.8789,1.7445,15.18,15.18,0,0,0,3.8152,1.3638,19.8262,19.8262,0,0,1,4.4812,1.6493A6.1439,6.1439,0,0,1,40.4179,48.16,5.4826,5.4826,0,0,1,41.1633,51.0849Zm-11.45-3.5364a2.3555,2.3555,0,0,0-1.1894,2.236,2.1525,2.1525,0,0,0,.6593,1.688,7.7528,7.7528,0,0,0,2.6235,1.23l3.5206,1.0625a2.4043,2.4043,0,0,0,1.3-2.22,2.0333,2.0333,0,0,0-.7205-1.6085,8.1767,8.1767,0,0,0-2.594-1.262Z"/>
  <path class="cls-4" d="M185.2619,51.0849a4.6023,4.6023,0,0,1-2.5692,4.2978,5.39,5.39,0,0,1,2.141,4.5674,5.0807,5.0807,0,0,1-2.1817,4.3544,10.0988,10.0988,0,0,1-6.0173,1.5767,10.45,10.45,0,0,1-6.3526-1.6946,5.753,5.753,0,0,1-2.2745-4.9117l4.5831-.0158a2.5394,2.5394,0,0,0,1.015,2.17,6.4186,6.4186,0,0,0,5.7249.1609,1.8257,1.8257,0,0,0,.92-1.5995,1.9407,1.9407,0,0,0-1.024-1.6878,16.2346,16.2346,0,0,0-3.9149-1.4522,18.6,18.6,0,0,1-4.3634-1.6742,6.2,6.2,0,0,1-2.1885-2.0617,5.4376,5.4376,0,0,1-.7205-2.87,4.7129,4.7129,0,0,1,2.5692-4.3294,5.4016,5.4016,0,0,1-2.1569-4.5674,5.2088,5.2088,0,0,1,2.2294-4.3771,9.8266,9.8266,0,0,1,6.0172-1.6651,9.2528,9.2528,0,0,1,6.074,1.792,6.1171,6.1171,0,0,1,2.1568,4.98h-4.5833a2.8127,2.8127,0,0,0-.974-2.2271,3.94,3.94,0,0,0-2.6735-.85,4.9422,4.9422,0,0,0-2.696.6184,1.9261,1.9261,0,0,0-.9514,1.697,1.9632,1.9632,0,0,0,.8789,1.7445,15.1781,15.1781,0,0,0,3.8152,1.3638,19.8281,19.8281,0,0,1,4.4812,1.6493,6.1439,6.1439,0,0,1,2.2906,2.0865A5.4825,5.4825,0,0,1,185.2619,51.0849Zm-11.45-3.5364a2.3555,2.3555,0,0,0-1.1894,2.236,2.1522,2.1522,0,0,0,.6593,1.688,7.7528,7.7528,0,0,0,2.6235,1.23l3.5206,1.0625a2.4045,2.4045,0,0,0,1.3-2.22,2.0336,2.0336,0,0,0-.7205-1.6085,8.1779,8.1779,0,0,0-2.594-1.262Z"/>
  <path class="cls-6" d="M327.3594,51.0849a4.6023,4.6023,0,0,1-2.5692,4.2978,5.39,5.39,0,0,1,2.1409,4.5674,5.0806,5.0806,0,0,1-2.1816,4.3544,10.099,10.099,0,0,1-6.0173,1.5767,10.45,10.45,0,0,1-6.3527-1.6946,5.7533,5.7533,0,0,1-2.2745-4.9117l4.5832-.0158a2.5394,2.5394,0,0,0,1.015,2.17,6.4186,6.4186,0,0,0,5.7249.1609,1.8257,1.8257,0,0,0,.92-1.5995,1.9407,1.9407,0,0,0-1.024-1.6878,16.2346,16.2346,0,0,0-3.9149-1.4522,18.6,18.6,0,0,1-4.3634-1.6742,6.2,6.2,0,0,1-2.1885-2.0617,5.4366,5.4366,0,0,1-.72-2.87,4.7129,4.7129,0,0,1,2.5692-4.3294,5.4016,5.4016,0,0,1-2.1569-4.5674,5.2088,5.2088,0,0,1,2.2294-4.3771,9.8263,9.8263,0,0,1,6.0171-1.6651,9.2525,9.2525,0,0,1,6.074,1.792,6.1169,6.1169,0,0,1,2.1569,4.98h-4.5833a2.8125,2.8125,0,0,0-.9741-2.2271,3.9394,3.9394,0,0,0-2.6735-.85,4.9419,4.9419,0,0,0-2.6959.6184,1.9262,1.9262,0,0,0-.9515,1.697,1.9633,1.9633,0,0,0,.879,1.7445,15.1781,15.1781,0,0,0,3.8152,1.3638,19.8281,19.8281,0,0,1,4.4812,1.6493,6.1439,6.1439,0,0,1,2.2906,2.0865A5.4825,5.4825,0,0,1,327.3594,51.0849Zm-11.45-3.5364a2.3555,2.3555,0,0,0-1.1895,2.236,2.1522,2.1522,0,0,0,.6594,1.688,7.753,7.753,0,0,0,2.6234,1.23l3.5206,1.0625a2.4044,2.4044,0,0,0,1.3006-2.22,2.0336,2.0336,0,0,0-.7205-1.6085,8.1779,8.1779,0,0,0-2.594-1.262Z"/>
</svg>
