<svg id="Ebene_1" data-name="Ebene 1" xmlns="http://www.w3.org/2000/svg" viewBox="0 0 425 200">
  <defs>
    <style>
      .cls-1 {
        fill: #fbc307;
      }

      .cls-2 {
        fill: #0c425b;
      }

      .cls-3 {
        fill: #fff;
      }
    </style>
  </defs>
  <g>
    <path class="cls-1" d="M144.4323,80.2889c-5.133,0-10.7783-6.0733-10.7783-10.8192,0-4.7485,5.6453-6.373,10.7783-6.373,5.1354,0,9.2979,3.8462,9.2979,8.5947s-4.1625,8.5975-9.2979,8.5975M128.7309,93.2642h0a4.6066,4.6066,0,0,1-3.99-6.91l2.3934-4.1487a1.8466,1.8466,0,0,1,3.1946,0l2.3933,4.1487a4.6066,4.6066,0,0,1-3.9908,6.91M113.03,80.2889c-5.1353,0-9.2978-3.849-9.2978-8.5975s4.1625-8.5947,9.2978-8.5947c5.1331,0,10.7784,1.6245,10.7784,6.373,0,4.7459-5.6453,10.8192-10.7784,10.8192m15.7011-53.7683A35.04,35.04,0,0,0,93.69,61.5621v8.2213a25.9086,25.9086,0,0,0,14.4036,23.2189v9.1809a6.2336,6.2336,0,0,0,6.2315,6.2316h28.8126a6.2336,6.2336,0,0,0,6.2315-6.2316V93.0023a25.9087,25.9087,0,0,0,14.4036-23.2189V61.5621a35.04,35.04,0,0,0-35.0416-35.0415"/>
    <path class="cls-1" d="M176.6313,112.6473a10.8307,10.8307,0,1,0,10.5816-17.2352l-1.1794-.2154-.1971-1.1835a6.9382,6.9382,0,0,0-13.7836,1.13,6.83,6.83,0,0,0,.463,2.49l.5566,1.435L74.8471,149.1139l-.8412-1.2537a6.9362,6.9362,0,1,0-10.2088,9.1919l.921.7668-.41,1.1259a10.833,10.833,0,1,0,21.0139,3.703,10.6508,10.6508,0,0,0-.4871-3.1972l-.4339-1.3761,91.3678-46.5533Z"/>
    <g>
      <path class="cls-1" d="M72.15,116.5649a10.5034,10.5034,0,0,0,9.2464-5.5119l29.9718,15.2721,12.8643-6.5547L83.6748,99.1054a6.6155,6.6155,0,1,0-11.9122-3.9609c0,.1391.0138.2754.0219.4146a10.5059,10.5059,0,0,0,.3652,21.0058Z"/>
      <path class="cls-1" d="M189.1177,145.1185a6.6207,6.6207,0,0,0-6.2721,4.5166l-36.8392-18.77L133.1412,137.42l40.3379,20.5541a10.5066,10.5066,0,1,0,18.6453-.3434,6.6158,6.6158,0,0,0-3.0067-12.5117Z"/>
    </g>
  </g>
  <g>
    <path class="cls-2" d="M128.8586,199.0172A99.5854,99.5854,0,0,1,43.83,150.9811,98.9169,98.9169,0,0,1,128.5188,1.1593a99.5877,99.5877,0,0,1,85.0264,48.04c13.1777,21.9736,17.1435,40.707,13.2617,62.64l-.1817,1.022,188.6319,55.4448c.5986.5308,3.208,3.335,1.3906,10.6011-1.79,7.1513-5.5332,9.268-6.5791,9.73L218.2278,141.8361l-.3877.9c-7.7451,17.9721-19.543,30.9912-38.2559,42.2129A98.6576,98.6576,0,0,1,128.8586,199.0172ZM128.5539,22.129a77.9107,77.9107,0,1,0,67.004,37.8575A77.7412,77.7412,0,0,0,128.5539,22.129Z"/>
    <path class="cls-3" d="M128.5187,2.3191a98.6584,98.6584,0,0,1,47.6231,12.29,97.6005,97.6005,0,0,1,36.4089,35.1866c13.0212,21.7124,16.9434,40.2068,13.1145,61.8409l-.3617,2.0438,1.9914.5854,187.35,55.0682c.6446.7035,2.386,3.2651.8782,9.291s-4.4414,8.1625-5.5847,8.7868l-190.4837-46.47-1.9039-.4645-.7756,1.8c-7.6419,17.7343-19.2957,30.5881-37.7865,41.6774a97.5026,97.5026,0,0,1-50.13,13.9032,98.6708,98.6708,0,0,1-47.6249-12.2886,97.7577,97.7577,0,0,1,47.2853-183.25m.304,176.8882A79.1113,79.1113,0,0,0,167.0835,30.91,79.806,79.806,0,0,0,128.5591,20.97h-.0049A79.11,79.11,0,0,0,90.2925,169.267a79.8337,79.8337,0,0,0,38.53,9.94M128.5187,0a100.0886,100.0886,0,1,0,.34,200.177,99.4971,99.4971,0,0,0,51.3227-14.2334c18.6515-11.1857,30.7112-24.1544,38.7237-42.7486L410.1481,189.85s5.3678-1.6441,7.6244-10.6622-1.9711-11.9312-1.9711-11.9312L227.9488,112.041c4.059-22.9342-.5177-41.9418-13.4093-63.4379A100.1656,100.1656,0,0,0,128.5187,0Zm.3039,176.8882a76.7833,76.7833,0,1,1,39.3787-10.92,76.8578,76.8578,0,0,1-39.3787,10.92Z"/>
  </g>
</svg>
