<?xml version="1.0" encoding="UTF-8"?>
<svg id="Ebene_2" data-name="Ebene 2" xmlns="http://www.w3.org/2000/svg" viewBox="0 0 1920 1061.88888">
  <defs>
    <style>
      .cls-1, .cls-2, .cls-3, .cls-4, .cls-5, .cls-6, .cls-7 {
        fill: none;
      }

      .cls-8 {
        stroke-width: 1.32141px;
      }

      .cls-8, .cls-2, .cls-3, .cls-4, .cls-5, .cls-6, .cls-7, .cls-9 {
        stroke: #0d435c;
      }

      .cls-8, .cls-2, .cls-3, .cls-4, .cls-5, .cls-6, .cls-7, .cls-9, .cls-10 {
        stroke-miterlimit: 10;
      }

      .cls-8, .cls-11, .cls-9 {
        fill: #0d435c;
      }

      .cls-2 {
        stroke-width: 5px;
      }

      .cls-3 {
        stroke-width: 4.25954px;
      }

      .cls-4 {
        stroke-width: 4.67642px;
      }

      .cls-5 {
        stroke-width: 3.49163px;
      }

      .cls-6 {
        stroke-width: 2.6293px;
      }

      .cls-7 {
        stroke-width: 2.79952px;
      }

      .cls-9 {
        stroke-width: .87531px;
      }

      .cls-12 {
        fill: #f3f5f7;
      }

      .cls-13 {
        fill: #98ba00;
      }

      .cls-14 {
        fill: #fac102;
      }

      .cls-10 {
        fill: #fff;
        stroke: #98ba00;
        stroke-width: 12.28636px;
      }
    </style>
  </defs>
  <rect class="cls-12" x="-11.58414" y="-11.88665" width="1953.01137" height="1087.57355"/>
  <g>
    <g>
      <polyline class="cls-7" points="533.89953 104.32875 533.89953 288.99778 492.06824 324.85432"/>
      <line class="cls-7" x1="533.89953" y1="283.02302" x2="576.30253" y2="325.42602"/>
    </g>
    <g>
      <polyline class="cls-7" points="533.89953 104.32875 685.80711 186.27946 643.97581 228.11076"/>
      <line class="cls-7" x1="685.80711" y1="186.27946" x2="728.2101" y2="228.68246"/>
    </g>
    <line class="cls-7" x1="316.95655" y1="197.70184" x2="381.07809" y2="187.05367"/>
    <line class="cls-7" x1="686.09296" y1="179.54784" x2="686.09296" y2="234.7921"/>
    <g>
      <polyline class="cls-7" points="532.98567 105.10295 381.07809 187.05367 422.90939 228.88496"/>
      <line class="cls-7" x1="381.07809" y1="187.05367" x2="338.6751" y2="229.45666"/>
    </g>
    <line class="cls-7" x1="380.79224" y1="189.28892" x2="380.79224" y2="281.25682"/>
    <line class="cls-7" x1="380.25401" y1="278.73339" x2="338.42271" y2="320.56469"/>
    <line class="cls-7" x1="380.25401" y1="278.73339" x2="422.657" y2="321.13639"/>
    <line class="cls-7" x1="380.53985" y1="272.00177" x2="380.53985" y2="323.63489"/>
    <line class="cls-7" x1="728.2101" y1="228.68246" x2="630.38963" y2="324.86845"/>
    <line class="cls-7" x1="727.39493" y1="231.12383" x2="680.11504" y2="324.05328"/>
    <line class="cls-7" x1="728.2101" y1="228.68246" x2="736.76939" y2="325.68362"/>
    <line class="cls-7" x1="573.72116" y1="330.89473" x2="531.88986" y2="372.72603"/>
    <line class="cls-7" x1="574.007" y1="324.16311" x2="574.007" y2="375.79622"/>
    <line class="cls-7" x1="681.48778" y1="330.72463" x2="723.31908" y2="372.55593"/>
    <line class="cls-7" x1="681.20193" y1="323.99301" x2="681.20193" y2="375.62612"/>
    <line class="cls-7" x1="531.34641" y1="373.48093" x2="531.34641" y2="410.17715"/>
    <line class="cls-7" x1="723.31908" y1="373.48093" x2="723.31908" y2="410.17715"/>
    <line class="cls-7" x1="338.14831" y1="328.53878" x2="435.96878" y2="409.78788"/>
    <line class="cls-7" x1="338.96348" y1="330.98016" x2="386.24337" y2="408.97271"/>
    <line class="cls-7" x1="338.14831" y1="328.53878" x2="329.58902" y2="410.60305"/>
    <path class="cls-14" d="M563.69469,104.32875c0,17.56533-14.23951,31.80484-31.80484,31.80484-.47312,0-.94382-.01033-1.41189-.03078-16.91017-.73871-30.39294-14.68185-30.39294-31.77406,0-17.56533,14.23951-31.80484,31.80484-31.80484s31.80484,14.23951,31.80484,31.80484Z"/>
    <path class="cls-14" d="M656.03519,228.11076c0,6.66021-5.39917,12.05938-12.05938,12.05938-.17939,0-.35787-.00392-.53535-.01167-6.4118-.28009-11.52403-5.56689-11.52403-12.04771,0-6.66021,5.39917-12.05938,12.05938-12.05938s12.05938,5.39917,12.05938,12.05938Z"/>
    <path class="cls-14" d="M740.26948,228.68246c0,6.66021-5.39917,12.05938-12.05938,12.05938-.17939,0-.35787-.00392-.53535-.01167-6.4118-.28009-11.52403-5.56689-11.52403-12.04771,0-6.66021,5.39917-12.05938,12.05938-12.05938s12.05938,5.39917,12.05938,12.05938Z"/>
    <path class="cls-14" d="M698.15234,230.85211c0,6.66021-5.39917,12.05938-12.05938,12.05938-.17939,0-.35787-.00392-.53535-.01167-6.4118-.28009-11.52403-5.56689-11.52403-12.04771,0-6.66021,5.39917-12.05938,12.05938-12.05938s12.05938,5.39917,12.05938,12.05938Z"/>
    <path class="cls-14" d="M328.60834,199.46804c0,6.66021-5.39917,12.05938-12.05938,12.05938-.17939,0-.35787-.00392-.53535-.01167-6.4118-.28009-11.52403-5.56689-11.52403-12.04771,0-6.66021,5.39917-12.05938,12.05938-12.05938s12.05938,5.39917,12.05938,12.05938Z"/>
    <path class="cls-14" d="M410.85001,228.88496c0,6.66021,5.39917,12.05938,12.05938,12.05938.17939,0,.35787-.00392.53535-.01167,6.4118-.28009,11.52403-5.56689,11.52403-12.04771,0-6.66021-5.39917-12.05938-12.05938-12.05938-6.66021,0-12.05938,5.39917-12.05938,12.05938Z"/>
    <path class="cls-14" d="M326.61572,229.45666c0,6.66021,5.39917,12.05938,12.05938,12.05938.17939,0,.35787-.00392.53535-.01167,6.4118-.28009,11.52403-5.56689,11.52403-12.04771,0-6.66021-5.39917-12.05938-12.05938-12.05938-6.66021,0-12.05938,5.39917-12.05938,12.05938Z"/>
    <path class="cls-14" d="M368.73286,231.62631c0,6.66021,5.39917,12.05938,12.05938,12.05938.17939,0,.35787-.00392.53535-.01167,6.4118-.28009,11.52403-5.56689,11.52403-12.04771,0-6.66021-5.39917-12.05938-12.05938-12.05938-6.66021,0-12.05938,5.39917-12.05938,12.05938Z"/>
    <path class="cls-14" d="M618.33026,324.86845c0,6.66021,5.39917,12.05938,12.05938,12.05938.17939,0,.35787-.00392.53535-.01167,6.4118-.28009,11.52403-5.56689,11.52403-12.04771,0-6.66021-5.39917-12.05938-12.05938-12.05938-6.66021,0-12.05938,5.39917-12.05938,12.05938Z"/>
    <path class="cls-14" d="M725.52519,325.27603c0,6.66021,5.39917,12.05938,12.05938,12.05938.17939,0,.35787-.00392.53535-.01167,6.4118-.28009,11.52403-5.56689,11.52403-12.04771,0-6.66021-5.39917-12.05938-12.05938-12.05938-6.66021,0-12.05938,5.39917-12.05938,12.05938Z"/>
    <path class="cls-14" d="M521.32496,282.88716c0,6.66021,5.39917,12.05938,12.05938,12.05938.17939,0,.35787-.00392.53535-.01167,6.4118-.28009,11.52403-5.56689,11.52403-12.04771,0-6.66021-5.39917-12.05938-12.05938-12.05938s-12.05938,5.39917-12.05938,12.05938Z"/>
    <path class="cls-14" d="M368.48048,186.69703c0,6.66021,5.39917,12.05938,12.05938,12.05938.17939,0,.35787-.00392.53535-.01167,6.4118-.28009,11.52403-5.56689,11.52403-12.04771,0-6.66021-5.39917-12.05938-12.05938-12.05938-6.66021,0-12.05938,5.39917-12.05938,12.05938Z"/>
    <path class="cls-14" d="M674.16944,188.32738c0,6.66021,5.39917,12.05938,12.05938,12.05938.17939,0,.35787-.00392.53535-.01167,6.4118-.28009,11.52403-5.56689,11.52403-12.04771,0-6.66021-5.39917-12.05938-12.05938-12.05938-6.66021,0-12.05938,5.39917-12.05938,12.05938Z"/>
    <path class="cls-14" d="M521.73254,170.80121c0,6.66021,5.39917,12.05938,12.05938,12.05938.17939,0,.35787-.00392.53535-.01167,6.4118-.28009,11.52403-5.56689,11.52403-12.04771,0-6.66021-5.39917-12.05938-12.05938-12.05938-6.66021,0-12.05938,5.39917-12.05938,12.05938Z"/>
    <path class="cls-14" d="M350.48209,320.56469c0,6.66021-5.39917,12.05938-12.05938,12.05938-.17939,0-.35787-.00392-.53535-.01167-6.4118-.28009-11.52403-5.56689-11.52403-12.04771,0-6.66021,5.39917-12.05938,12.05938-12.05938s12.05938,5.39917,12.05938,12.05938Z"/>
    <path class="cls-14" d="M434.71638,321.13639c0,6.66021-5.39917,12.05938-12.05938,12.05938-.17939,0-.35787-.00392-.53535-.01167-6.4118-.28009-11.52403-5.56689-11.52403-12.04771,0-6.66021,5.39917-12.05938,12.05938-12.05938s12.05938,5.39917,12.05938,12.05938Z"/>
    <path class="cls-14" d="M392.59923,323.30604c0,6.66021-5.39917,12.05938-12.05938,12.05938-.17939,0-.35787-.00392-.53535-.01167-6.4118-.28009-11.52403-5.56689-11.52403-12.04771,0-6.66021,5.39917-12.05938,12.05938-12.05938s12.05938,5.39917,12.05938,12.05938Z"/>
    <path class="cls-14" d="M368.61634,280.78131c0,6.66021,5.39917,12.05938,12.05938,12.05938.17939,0,.35787-.00392.53535-.01167,6.4118-.28009,11.52403-5.56689,11.52403-12.04771,0-6.66021-5.39917-12.05938-12.05938-12.05938-6.66021,0-12.05938,5.39917-12.05938,12.05938Z"/>
    <path class="cls-14" d="M670.09359,324.86845c0,6.66021,5.39917,12.05938,12.05938,12.05938.17939,0,.35787-.00392.53535-.01167,6.4118-.28009,11.52403-5.56689,11.52403-12.04771,0-6.66021-5.39917-12.05938-12.05938-12.05938-6.66021,0-12.05938,5.39917-12.05938,12.05938Z"/>
    <path class="cls-14" d="M480.56643,324.86845c0,6.66021,5.39917,12.05938,12.05938,12.05938.17939,0,.35787-.00392.53535-.01167,6.4118-.28009,11.52403-5.56689,11.52403-12.04771,0-6.66021-5.39917-12.05938-12.05938-12.05938-6.66021,0-12.05938,5.39917-12.05938,12.05938Z"/>
    <path class="cls-14" d="M562.89866,324.85432c0,6.66021,5.39917,12.05938,12.05938,12.05938.17939,0,.35787-.00392.53535-.01167,6.4118-.28009,11.52403-5.56689,11.52403-12.04771,0-6.66021-5.39917-12.05938-12.05938-12.05938-6.66021,0-12.05938,5.39917-12.05938,12.05938Z"/>
    <path class="cls-14" d="M543.94924,372.72603c0,6.66021-5.39917,12.05938-12.05938,12.05938-.17939,0-.35787-.00392-.53535-.01167-6.4118-.28009-11.52403-5.56689-11.52403-12.04771,0-6.66021,5.39917-12.05938,12.05938-12.05938s12.05938,5.39917,12.05938,12.05938Z"/>
    <path class="cls-14" d="M586.06638,375.46737c0,6.66021-5.39917,12.05938-12.05938,12.05938-.17939,0-.35787-.00392-.53535-.01167-6.4118-.28009-11.52403-5.56689-11.52403-12.04771,0-6.66021,5.39917-12.05938,12.05938-12.05938s12.05938,5.39917,12.05938,12.05938Z"/>
    <path class="cls-14" d="M711.2597,372.55593c0,6.66021,5.39917,12.05938,12.05938,12.05938.17939,0,.35787-.00392.53535-.01167,6.4118-.28009,11.52403-5.56689,11.52403-12.04771,0-6.66021-5.39917-12.05938-12.05938-12.05938-6.66021,0-12.05938,5.39917-12.05938,12.05938Z"/>
    <path class="cls-14" d="M669.14255,375.29727c0,6.66021,5.39917,12.05938,12.05938,12.05938.17939,0,.35787-.00392.53535-.01167,6.4118-.28009,11.52403-5.56689,11.52403-12.04771,0-6.66021-5.39917-12.05938-12.05938-12.05938-6.66021,0-12.05938,5.39917-12.05938,12.05938Z"/>
    <path class="cls-14" d="M543.40579,409.8483c0,6.66021-5.39917,12.05938-12.05938,12.05938-.17939,0-.35787-.00392-.53535-.01167-6.4118-.28009-11.52403-5.56689-11.52403-12.04771,0-6.66021,5.39917-12.05938,12.05938-12.05938s12.05938,5.39917,12.05938,12.05938Z"/>
    <path class="cls-14" d="M735.37846,409.8483c0,6.66021-5.39917,12.05938-12.05938,12.05938-.17939,0-.35787-.00392-.53535-.01167-6.4118-.28009-11.52403-5.56689-11.52403-12.04771,0-6.66021,5.39917-12.05938,12.05938-12.05938s12.05938,5.39917,12.05938,12.05938Z"/>
    <path class="cls-14" d="M341.65107,410.17715c0,6.66021-5.39917,12.05938-12.05938,12.05938-.17939,0-.35787-.00392-.53535-.01167-6.4118-.28009-11.52403-5.56689-11.52403-12.04771,0-6.66021,5.39917-12.05938,12.05938-12.05938s12.05938,5.39917,12.05938,12.05938Z"/>
    <path class="cls-14" d="M398.30543,410.17715c0,6.66021-5.39917,12.05938-12.05938,12.05938-.17939,0-.35787-.00392-.53535-.01167-6.4118-.28009-11.52403-5.56689-11.52403-12.04771,0-6.66021,5.39917-12.05938,12.05938-12.05938s12.05938,5.39917,12.05938,12.05938Z"/>
    <path class="cls-14" d="M449.66117,410.17715c0,6.66021-5.39917,12.05938-12.05938,12.05938-.17939,0-.35787-.00392-.53535-.01167-6.4118-.28009-11.52403-5.56689-11.52403-12.04771,0-6.66021,5.39917-12.05938,12.05938-12.05938s12.05938,5.39917,12.05938,12.05938Z"/>
  </g>
  <g>
    <polyline class="cls-5" points="1440.46103 377.26309 1440.46103 355.92896 1460.64197 355.92896"/>
    <line class="cls-5" x1="1516.57199" y1="336.90122" x2="1478.51651" y2="336.90122"/>
    <line class="cls-5" x1="1450.8398" y1="539.86377" x2="1450.8398" y2="518.52964"/>
    <line class="cls-5" x1="1472.75053" y1="573.88306" x2="1472.75053" y2="607.32576"/>
    <polyline class="cls-5" points="1372.99905 479.89756 1372.99905 458.56343 1408.74814 458.56343 1408.74814 496.61891 1431.81206 496.61891 1431.81206 513.34026"/>
    <polyline class="cls-5" points="1407.59494 524.29562 1407.59494 549.08934 1379.34163 549.08934 1379.34163 496.61891 1408.74814 496.61891"/>
    <polyline class="cls-5" points="1409.32473 541.59357 1436.42483 541.59357 1484.85909 541.59357 1484.85909 518.52964"/>
    <polyline class="cls-5" points="1434.11845 541.59357 1434.11845 570.42347 1416.82051 570.42347"/>
    <polyline class="cls-5" points="1459.48877 542.17017 1459.48877 573.88306 1475.05692 573.88306"/>
    <polyline class="cls-5" points="1484.85909 520.83603 1552.89765 520.83603 1569.61902 520.83603 1569.61902 490.85293 1492.93147 490.85293 1492.93147 460.86983 1452.5696 460.86983 1452.5696 420.50796 1408.74814 420.50796 1408.74814 458.56343"/>
    <polyline class="cls-5" points="1553.47427 520.83603 1553.47427 576.18946 1503.88683 576.18946 1503.88683 619.43432 1552.32108 619.43432"/>
    <polyline class="cls-5" points="1569.61902 520.83603 1596.71913 520.83603 1596.71913 588.29801 1596.71913 599.82998 1533.05684 599.82998"/>
    <polyline class="cls-5" points="1596.71913 587.14482 1660.72153 587.14482 1660.72153 546.20635 1689.55144 546.20635 1689.55144 570.42347"/>
    <polyline class="cls-5" points="1452.5696 420.50796 1488.89528 420.50796 1488.89528 355.35236 1540.78911 355.35236 1555.20407 355.35236"/>
    <polyline class="cls-5" points="1425.46948 418.77816 1425.46948 379.56949 1450.8398 379.56949"/>
    <line class="cls-5" x1="1492.93147" y1="460.86983" x2="1492.93147" y2="443.57188"/>
    <polyline class="cls-5" points="1487.74208 404.36321 1521.76137 404.36321 1521.76137 423.96754"/>
    <polyline class="cls-5" points="1554.05087 477.01457 1554.05087 450.49106 1547.13168 450.49106 1526.37416 450.49106 1526.37416 471.82519"/>
    <polyline class="cls-5" points="1546.55509 450.49106 1546.55509 409.55259 1579.99779 409.55259 1579.99779 427.42713"/>
    <polyline class="cls-5" points="1579.99779 409.55259 1579.99779 345.5502 1643.42358 345.5502 1643.42358 377.26309 1624.39584 377.26309"/>
    <polyline class="cls-5" points="1626.12564 369.19072 1626.12564 438.3825 1602.48512 438.3825 1602.48512 467.21241 1586.91696 467.21241"/>
    <polyline class="cls-5" points="1643.42358 377.26309 1683.78545 377.26309 1683.78545 411.28238"/>
    <polyline class="cls-5" points="1651.49596 407.2462 1651.49596 430.88672 1671.1003 430.88672 1671.1003 453.95065 1603.63831 453.95065"/>
    <polyline class="cls-5" points="1804.87107 492.00613 1713.19196 492.00613 1713.19196 515.07005 1644.57678 515.07005 1644.57678 486.81674 1635.35121 486.81674"/>
    <polyline class="cls-5" points="1832.54778 509.30407 1832.54778 471.82519 1797.95189 471.82519 1797.95189 414.74197"/>
    <line class="cls-5" x1="1797.95189" y1="455.68044" x2="1706.27278" y2="455.68044"/>
    <polyline class="cls-5" points="1750.09424 455.10384 1750.09424 404.93981 1776.04116 404.93981 1776.04116 381.29928 1800.25828 381.29928"/>
    <polyline class="cls-5" points="1750.09424 404.93981 1750.09424 380.72268 1722.41753 380.72268 1722.41753 358.23535 1691.85783 358.23535"/>
    <line class="cls-5" x1="1749.51764" y1="424.54414" x2="1702.81319" y2="424.54414"/>
    <polyline class="cls-5" points="1671.1003 453.95065 1671.1003 492.00613 1713.19196 492.00613"/>
    <polyline class="cls-5" points="1713.19196 515.07005 1713.19196 541.01697 1768.54538 541.01697 1768.54538 571.00007 1829.66479 571.00007 1829.66479 517.95304"/>
    <line class="cls-5" x1="1791.03271" y1="493.15932" x2="1791.03271" y2="541.01697"/>
    <polyline class="cls-5" points="1727.03032 564.65749 1727.03032 596.37039 1803.14127 596.37039 1803.14127 629.81308 1830.81798 629.81308"/>
    <polyline class="cls-5" points="1660.72153 587.14482 1660.72153 615.97473 1713.76856 615.97473"/>
    <line class="cls-5" x1="1727.03032" y1="596.37039" x2="1727.03032" y2="614.24493"/>
    <polyline class="cls-5" points="1644.57678 515.07005 1627.85543 515.07005 1627.85543 554.85532"/>
    <polyline class="cls-5" points="1631.89162 587.14482 1631.89162 635.57907 1713.19196 635.57907"/>
    <polyline class="cls-5" points="1768.54538 571.00007 1768.54538 634.42587 1731.0665 634.42587"/>
    <line class="cls-5" x1="1577.69139" y1="380.72268" x2="1517.14859" y2="380.72268"/>
    <polyline class="cls-5" points="1609.40429 346.12679 1609.40429 314.99049 1567.88923 314.99049"/>
    <polyline class="cls-5" points="1643.42358 345.5502 1672.25349 345.5502 1672.25349 324.21606 1705.69618 324.21606"/>
    <polyline class="cls-5" points="1800.25828 437.8059 1821.01581 437.8059 1821.01581 453.37405"/>
    <line class="cls-5" x1="1726.45372" y1="456.83364" x2="1726.45372" y2="475.86138"/>
    <line class="cls-5" x1="1791.60931" y1="513.34026" x2="1823.89881" y2="513.34026"/>
    <line class="cls-5" x1="1460.64197" y1="460.86983" x2="1460.64197" y2="498.9253"/>
    <polyline class="cls-5" points="1408.74814 420.50796 1396.63957 420.50796 1396.63957 392.83124"/>
    <polyline class="cls-5" points="1392.60339 550.24254 1392.60339 567.54048 1362.62028 567.54048"/>
    <line class="cls-5" x1="1551.16788" y1="547.93615" x2="1509.07621" y2="547.93615"/>
    <line class="cls-5" x1="1569.61902" y1="490.85293" x2="1597.87233" y2="490.85293"/>
    <polyline class="cls-5" points="1829.66479 571.00007 1829.66479 590.60441 1852.15211 590.60441 1852.15211 575.03626"/>
    <polyline class="cls-5" points="1831.39458 555.43192 1860.80109 555.43192 1860.80109 493.15932"/>
    <path class="cls-5" d="M1517.14859,353.62257s-.5766-25.37032,0-25.94692c.5766-.5766,29.9831,0,29.9831,0"/>
    <polyline class="cls-5" points="1654.95555 346.12679 1654.95555 321.33307 1634.19801 321.33307"/>
    <polyline class="cls-5" points="1722.41753 358.23535 1722.41753 340.93741 1696.47061 340.93741"/>
    <polyline class="cls-5" points="1671.67689 635.00247 1671.67689 667.29196 1690.70463 667.29196 1690.70463 636.73226 1690.70463 697.85167"/>
    <polyline class="cls-5" points="1748.94105 636.15566 1748.94105 666.71537 1718.95794 666.71537 1718.95794 636.73226"/>
    <polyline class="cls-5" points="1691.85783 685.7431 1706.27278 685.7431 1706.27278 710.53683"/>
    <line class="cls-5" x1="1669.9471" y1="648.26423" x2="1649.76616" y2="648.26423"/>
    <line class="cls-5" x1="1689.55144" y1="614.82153" x2="1689.55144" y2="598.10019"/>
    <polyline class="cls-5" points="1372.99905 458.56343 1372.99905 430.31012 1383.95442 430.31012"/>
    <polyline class="cls-5" points="1379.91823 514.49345 1352.24152 514.49345 1352.24152 486.81674"/>
    <polyline class="cls-5" points="1623.81925 403.78661 1597.29573 403.78661 1597.29573 374.3801"/>
    <line class="cls-5" x1="1705.11959" y1="423.96754" x2="1705.11959" y2="402.63341"/>
    <line class="cls-5" x1="1750.09424" y1="380.72268" x2="1750.09424" y2="354.19917"/>
    <line class="cls-5" x1="1829.66479" y1="590.60441" x2="1829.66479" y2="606.74916"/>
    <line class="cls-5" x1="1352.24152" y1="514.49345" x2="1352.24152" y2="536.98078"/>
    <line class="cls-5" x1="1488.31868" y1="392.83124" x2="1464.67816" y2="392.83124"/>
    <line class="cls-5" x1="1755.86022" y1="480.47416" x2="1755.86022" y2="512.18706"/>
    <polyline class="cls-5" points="1832.54778 471.82519 1845.80954 471.82519 1845.80954 448.76126"/>
    <line class="cls-5" x1="1799.10508" y1="417.04837" x2="1817.55623" y2="417.04837"/>
    <line class="cls-5" x1="1797.95189" y1="436.6527" x2="1777.19435" y2="436.6527"/>
    <line class="cls-5" x1="1808.33066" y1="568.69368" x2="1808.33066" y2="553.12553"/>
    <line class="cls-5" x1="1617.47667" y1="561.1979" x2="1580.57439" y2="561.1979"/>
    <line class="cls-5" x1="1671.67689" y1="667.29196" x2="1671.67689" y2="684.58991"/>
    <line class="cls-5" x1="1690.70463" y1="556.00852" x2="1703.38979" y2="556.00852"/>
    <line class="cls-5" x1="1658.99173" y1="560.62131" x2="1635.92781" y2="560.62131"/>
    <line class="cls-5" x1="1630.73842" y1="617.12792" x2="1611.71069" y2="617.12792"/>
    <polyline class="cls-5" points="1450.2632 443.57188 1429.50567 443.57188 1429.50567 466.63581"/>
    <line class="cls-5" x1="1527.52736" y1="505.26788" x2="1570.19562" y2="505.26788"/>
    <circle class="cls-8" cx="1460.15723" cy="356.34741" r="6.039"/>
    <circle class="cls-8" cx="1452.34887" cy="379.32623" r="6.039"/>
    <circle class="cls-8" cx="1396.17109" cy="394.20066" r="6.039"/>
    <circle class="cls-8" cx="1383.42737" cy="430.91825" r="6.039"/>
    <circle class="cls-8" cx="1352.51855" cy="488.10057" r="6.039"/>
    <circle class="cls-8" cx="1351.7415" cy="535.64289" r="6.039"/>
    <circle class="cls-8" cx="1363.30725" cy="567.51796" r="6.039"/>
    <circle class="cls-8" cx="1407.4125" cy="525.36548" r="6.039"/>
    <circle class="cls-8" cx="1431.90666" cy="512.69158" r="6.039"/>
    <circle class="cls-8" cx="1451.21819" cy="518.48009" r="6.039"/>
    <circle class="cls-8" cx="1461.23208" cy="499.56722" r="6.039"/>
    <circle class="cls-8" cx="1416.46464" cy="569.64417" r="6.039"/>
    <circle class="cls-8" cx="1473.25731" cy="605.53965" r="6.039"/>
    <circle class="cls-8" cx="1493.49455" cy="445.25438" r="6.039"/>
    <circle class="cls-8" cx="1467.27285" cy="393.23666" r="6.039"/>
    <circle class="cls-8" cx="1479.91972" cy="337.13096" r="6.039"/>
    <circle class="cls-8" cx="1547.41549" cy="327.41663" r="6.039"/>
    <circle class="cls-8" cx="1554.63873" cy="354.72396" r="6.039"/>
    <circle class="cls-8" cx="1518.04727" cy="380.66187" r="6.039"/>
    <circle class="cls-8" cx="1580.06986" cy="424.92929" r="6.039"/>
    <circle class="cls-8" cx="1526.12865" cy="470.29585" r="6.039"/>
    <circle class="cls-8" cx="1553.6905" cy="476.34113" r="6.039"/>
    <circle class="cls-8" cx="1522.50239" cy="423.74006" r="6.039"/>
    <circle class="cls-8" cx="1597.41511" cy="375.75178" r="6.039"/>
    <circle class="cls-8" cx="1571.60783" cy="315.15942" r="6.039"/>
    <circle class="cls-8" cx="1634.13945" cy="321.69119" r="6.039"/>
    <circle class="cls-8" cx="1706.83812" cy="323.71605" r="6.039"/>
    <circle class="cls-8" cx="1691.81729" cy="358.94709" r="6.039"/>
    <circle class="cls-8" cx="1696.3625" cy="340.6829" r="6.039"/>
    <circle class="cls-8" cx="1750.14154" cy="355.09335" r="6.039"/>
    <circle class="cls-8" cx="1800.07584" cy="381.90966" r="6.039"/>
    <circle class="cls-8" cx="1652.023" cy="409.09311" r="6.039"/>
    <circle class="cls-8" cx="1684.15484" cy="412.30269" r="6.039"/>
    <circle class="cls-8" cx="1706.32233" cy="403.7303" r="6.039"/>
    <circle class="cls-8" cx="1706.07007" cy="456.16244" r="6.039"/>
    <circle class="cls-8" cx="1726.91545" cy="475.62038" r="6.039"/>
    <circle class="cls-8" cx="1817.43009" cy="417.13846" r="6.039"/>
    <circle class="cls-8" cx="1775.37221" cy="436.91848" r="6.039"/>
    <circle class="cls-8" cx="1821.14645" cy="452.78844" r="6.039"/>
    <circle class="cls-8" cx="1845.97396" cy="449.94374" r="6.039"/>
    <circle class="cls-8" cx="1860.98578" cy="494.50397" r="6.039"/>
    <circle class="cls-8" cx="1831.24118" cy="513.94589" r="9.71232"/>
    <circle class="cls-8" cx="1756.43682" cy="476.43798" r="6.039"/>
    <circle class="cls-8" cx="1755.86022" cy="514.49345" r="6.039"/>
    <circle class="cls-8" cx="1791.03271" cy="541.01697" r="6.039"/>
    <circle class="cls-8" cx="1852.15211" cy="575.03626" r="6.039"/>
    <circle class="cls-8" cx="1829.66479" cy="606.74916" r="6.039"/>
    <circle class="cls-8" cx="1829.08819" cy="630.38968" r="6.039"/>
    <circle class="cls-8" cx="1627.44864" cy="559.34785" r="11.16845"/>
    <circle class="cls-8" cx="1632.46822" cy="486.24014" r="6.039"/>
    <circle class="cls-8" cx="1597.87233" cy="490.85293" r="6.039"/>
    <circle class="cls-8" cx="1584.26596" cy="467.26646" r="6.039"/>
    <circle class="cls-8" cx="1506.09863" cy="547.32802" r="6.039"/>
    <circle class="cls-8" cx="1581.76587" cy="562.01775" r="6.039"/>
    <circle class="cls-8" cx="1550.21514" cy="619.851" r="6.039"/>
    <circle class="cls-8" cx="1533.05684" cy="597.79837" r="6.039"/>
    <circle class="cls-8" cx="1610.65434" cy="617.67524" r="6.039"/>
    <circle class="cls-8" cx="1703.02942" cy="556.79008" r="6.039"/>
    <circle class="cls-8" cx="1689.70009" cy="571.86047" r="6.039"/>
    <circle class="cls-8" cx="1807.85091" cy="554.6864" r="6.039"/>
    <circle class="cls-8" cx="1804.72692" cy="492.0264" r="6.039"/>
    <circle class="cls-8" cx="1727.57088" cy="566.28368" r="6.039"/>
    <circle class="cls-8" cx="1722.79367" cy="625.69131" r="14.85641"/>
    <circle class="cls-8" cx="1689.64829" cy="599.59799" r="6.039"/>
    <circle class="cls-8" cx="1651.04549" cy="648.33855" r="6.039"/>
    <circle class="cls-8" cx="1671.20165" cy="682.83759" r="6.039"/>
    <circle class="cls-8" cx="1690.80374" cy="697.21425" r="6.039"/>
    <circle class="cls-8" cx="1706.87416" cy="710.94225" r="6.039"/>
    <circle class="cls-8" cx="1429.49666" cy="466.58851" r="6.039"/>
    <circle class="cls-8" cx="1524.06777" cy="505.84448" r="6.039"/>
    <circle class="cls-8" cx="1625.54904" cy="366.30773" r="6.039"/>
    <circle class="cls-8" cx="1372.99905" cy="479.89756" r="6.039"/>
  </g>
  <rect class="cls-10" x="85.81518" y="617.58301" width="279.73613" height="160.53732" transform="translate(-61.30903 22.89588) rotate(-5.11421)"/>
  <path class="cls-11" d="M138.89347,666.13781c-7.74462-10.42767-3.84415-20.8733,4.04658-27.83283,2.78304-2.45456,8.40409-2.96807,11.1864,1.0199,1.51136,2.16628,1.13152,6.92186-1.42095,6.97222-3.86542.07627-4.43807,1.88352-4.80985,2.50104-2.19862,3.65262-1.62018,9.86578,1.13328,13.02869,6.01601,6.90883,17.18028,11.45044,26.89221,6.61947,1.49555-1.0935,7.51221-3.15328,12.24213-3.06053,4.45469.08735,8.91344-.46186,16.8443,2.87743,8.40297,3.53821,48.08615,5.01228,58.60641,2.46231.58125.08555,1.39416-.25384,1.85465-.66786,4.82675-4.3409,9.91965-8.21427,16.10394-10.32311,1.26495-.43127,3.05694-1.51808,3.93674-2.52427,1.9131-2.1877,3.81739-4.38421,5.67556-6.61803.9826-1.18151,3.72445-2.95343,4.99573-2.18981.9143.54886-.9062,6.41102-.31721,7.46156-.33058,3.80859,1.19208,4.23458,5.57206,5.55903,1.49696.4524,2.69361,2.30388,3.74944,3.72268,1.77474,2.3838,3.40407,4.87603,5.10663,7.3137,1.96837,2.81719,1.80044,6.62437-.46718,9.20708-4.03285,4.59298-4.97567,4.67395-12.77873,4.41343-2.74325-.09154-4.33914,1.04104-5.64423,3.102-2.85521,4.50813-3.10356,10.07429-5.11968,14.86136-1.21828,2.89268-2.0708,4.32593-1.96096,7.40962-.26123,1.7948,13.44553,24.89559,16.03458,27.94126.41226.53055,4.72218.32073,5.48404.32601,4.89047.0338,8.71983,2.21728,10.77516,6.00157,2.59996,4.78591-.35312,9.02647-5.79984,9.06731-3.42132.0257-10.40127.25665-12.79493-.98964-.15279-.07957-.26405-.18342-.37917-.31122,0,0-16.97599-18.86163-17.00557-18.8905-1.75115-1.69658-14.02535-11.83345-14.12219-11.90104l-8.4336-5.87025c-3.17523-4.12791-12.21332,15.69907-13.8761,20.97927-.4869,1.5459-1.41693,3.30029.03074,4.0294.23364.11774.16299.25947,2.31032.14864,6.51487-.33625,7.80839,6.75405,6.5569,10.59192-.63047,1.93345-2.66348,2.2212-5.38412,2.09287-2.66215-.12557-10.08399.11844-12.74909.10436-3.67551-.01936-7.16835-2.39122-7.19863-6.06673-.02394-2.91682,1.43994-6.68471,2.21214-8.50991,1.88213-4.44868,4.09508-15.03058,5.21146-20.3495.47704-2.27361-1.38289-4.36097-3.70191-4.21874-2.06835.12674-4.17719.26264-5.05101.26228-7.06514-.00493-10.79191-2.00744-17.85635-2.05778-1.21461-.0088-1.40929,9.16038-9.03789,13.62894-1.65732.9708-2.32782,3.14003-3.02701,4.89716-1.009,2.53448-.48866,5.05699,1.62757,6.88982.79988.69321,2.13947,1.23714,3.15763,1.13011,7.77067-.81572,12.28549,4.24831,10.43647,11.8588-.39853,1.64025-1.4695,2.4866-3.08158,2.49822-5.07354.03697-10.1499.09717-15.22027-.01479-2.37993-.05246-5.18303-1.91486-6.19344-4.07087-2.83127-6.04171-4.85971-10.95737-7.75323-15.87938-2.89353-4.92202-.70464-8.05308.30199-15.20019.10703-.10139.13402-2.72983.21641-2.84671-.59205.0432,2.08908-.53401-.07081.05323-1.47548.401-4.16272,4.19238-7.29571,6.71618-3.31914,2.67375-5.99191,3.53369-16.13205,7.22101-.28047.10199-5.02422,2.39196-5.53099,3.84097-.50678,1.44903-1.31928,2.43338.02339,4.64471,4.16449,6.85879,3.87527,9.64331-.60398,12.48227-6.30877,3.99852-14.80812-10.01089-16.22982-15.43111-.90742-3.45955,6.70674-7.88903,8.8428-10.02184,7.04712-7.03642,7.16369-10.94514,15.80317-21.94084,3.24236-4.12664,1.59245-6.65151.52294-14.66902-.21566-1.61667,1.32073-5.30399,1.65425-6.42509-1.93479-1.51319-4.85112-3.55297-10.84494-7.1049-4.3483-2.57673-8.20793-5.84842-11.25501-9.95133Z"/>
  <g>
    <line class="cls-4" x1="395.19974" y1="685.74313" x2="454.27235" y2="685.74313"/>
    <polyline class="cls-4" points="434.52583 666.03596 454.28012 685.74217 434.52772 705.45025"/>
  </g>
  <g>
    <line class="cls-4" x1="613.89177" y1="858.9213" x2="613.89177" y2="917.9939"/>
    <polyline class="cls-4" points="633.59893 898.24738 613.89272 918.00167 594.18465 898.24928"/>
  </g>
  <polygon class="cls-13" points="734.55988 1002.31925 706.67733 976.89963 717.26564 965.2883 733.5522 980.13495 771.59083 938.54386 783.18682 949.14752 734.55988 1002.31925"/>
  <polyline class="cls-6" points="523.10199 619.36651 505.49306 720.80927 505.49306 720.80927"/>
  <polyline class="cls-6" points="609.99824 619.36651 570.95235 720.80927 570.95235 720.80927"/>
  <line class="cls-6" x1="710.6754" y1="720.04367" x2="703.01934" y2="619.36651"/>
  <line class="cls-6" x1="641.77088" y1="722.34048" x2="609.99824" y2="619.36651"/>
  <line class="cls-6" x1="609.99824" y1="619.36651" x2="505.49306" y2="720.80927"/>
  <line class="cls-6" x1="703.01934" y1="619.36651" x2="642.15368" y2="721.19208"/>
  <line class="cls-6" x1="710.2926" y1="721.19208" x2="608.46703" y2="620.51492"/>
  <line class="cls-6" x1="523.10199" y1="619.36651" x2="570.95235" y2="720.80927"/>
  <line class="cls-6" x1="703.01934" y1="619.36651" x2="505.49306" y2="720.80927"/>
  <line class="cls-6" x1="710.2926" y1="721.19208" x2="523.10199" y2="619.36651"/>
  <line class="cls-6" x1="523.10199" y1="619.36651" x2="642.15368" y2="721.19208"/>
  <line class="cls-6" x1="703.01934" y1="619.36651" x2="571.33515" y2="719.66086"/>
  <line class="cls-6" x1="505.49306" y1="720.80927" x2="613.82627" y2="816.50999"/>
  <line class="cls-6" x1="710.2926" y1="721.19208" x2="613.82627" y2="816.50999"/>
  <line class="cls-6" x1="642.15368" y1="721.19208" x2="613.82627" y2="816.50999"/>
  <line class="cls-6" x1="571.33515" y1="719.66086" x2="613.82627" y2="816.50999"/>
  <path class="cls-13" d="M542.73736,619.36651c0,10.84432-8.79106,19.63537-19.63537,19.63537-.29209,0-.58269-.00638-.87166-.019-10.43984-.45606-18.76371-9.06414-18.76371-19.61637,0-10.84432,8.79106-19.63537,19.63537-19.63537s19.63537,8.79106,19.63537,19.63537Z"/>
  <path class="cls-13" d="M629.63361,619.36651c0,10.84432-8.79106,19.63537-19.63537,19.63537-.29209,0-.58269-.00638-.87166-.019-10.43984-.45606-18.76371-9.06414-18.76371-19.61637,0-10.84432,8.79106-19.63537,19.63537-19.63537s19.63537,8.79106,19.63537,19.63537Z"/>
  <path class="cls-13" d="M722.65471,619.36651c0,10.84432-8.79106,19.63537-19.63537,19.63537-.29209,0-.58269-.00638-.87166-.019-10.43984-.45606-18.76371-9.06414-18.76371-19.61637,0-10.84432,8.79106-19.63537,19.63537-19.63537s19.63537,8.79106,19.63537,19.63537Z"/>
  <path class="cls-13" d="M633.46164,814.59598c0,10.84432-8.79106,19.63537-19.63537,19.63537-.29209,0-.58269-.00638-.87166-.019-10.43984-.45606-18.76371-9.06414-18.76371-19.61637,0-10.84432,8.79106-19.63537,19.63537-19.63537s19.63537,8.79106,19.63537,19.63537Z"/>
  <path class="cls-13" d="M494.16692,720.80927c0,6.25525,5.07088,11.32613,11.32613,11.32613.16848,0,.33611-.00368.50279-.01096,6.02194-.26306,10.82334-5.2284,10.82334-11.31517,0-6.25525-5.07088-11.32613-11.32613-11.32613-6.25525,0-11.32613,5.07088-11.32613,11.32613Z"/>
  <path class="cls-13" d="M630.82755,721.19208c0,6.25525,5.07088,11.32613,11.32613,11.32613.16848,0,.33611-.00368.50279-.01096,6.02194-.26306,10.82334-5.2284,10.82334-11.31517,0-6.25525-5.07088-11.32613-11.32613-11.32613-6.25525,0-11.32613,5.07088-11.32613,11.32613Z"/>
  <path class="cls-13" d="M559.62621,720.80927c0,6.25525,5.07088,11.32613,11.32613,11.32613.16848,0,.33611-.00368.50279-.01096,6.02194-.26306,10.82334-5.2284,10.82334-11.31517,0-6.25525-5.07088-11.32613-11.32613-11.32613-6.25525,0-11.32613,5.07088-11.32613,11.32613Z"/>
  <path class="cls-13" d="M698.96646,721.19208c0,6.25525,5.07088,11.32613,11.32613,11.32613.16848,0,.33611-.00368.50279-.01096,6.02194-.26306,10.82334-5.2284,10.82334-11.31517,0-6.25525-5.07088-11.32613-11.32613-11.32613-6.25525,0-11.32613,5.07088-11.32613,11.32613Z"/>
  <g>
    <path class="cls-11" d="M571.38178,970.60317l-4.37798-2.41825c1.59159-2.73569,2.41825-5.72709,2.47997-8.97199v-6.61326h7.28561l-.03086,6.09302c-.01984,1.97957-.50922,4.087-1.46814,6.32228-.96113,2.23528-2.25512,4.09802-3.8886,5.58821ZM581.66981,970.60317l-4.38018-2.41825c1.75692-3.02226,2.66514-6.02248,2.72687-9.00285v-6.5824h7.28561l-.03086,6.21647c-.03968,1.95973-.57535,4.05173-1.60702,6.27599-1.02946,2.22426-2.36314,4.06054-3.99441,5.51105Z"/>
    <path class="cls-9" d="M615.34787,986.47393c-.26877,3.70156-1.63474,6.61551-4.09961,8.74187-2.46487,2.12635-5.71394,3.18953-9.74551,3.18953-4.41091,0-7.87942-1.48505-10.40723-4.45344-2.52781-2.97009-3.79342-7.04589-3.79342-12.22739v-2.10254c0-3.30861.58347-6.22256,1.74871-8.74187,1.16524-2.52101,2.8323-4.45344,4.99778-5.8007s4.68138-2.02089,7.54771-2.02089c3.97033,0,7.16667,1.06318,9.59411,3.19123,2.42404,2.12635,3.82744,5.11006,4.20508,8.9545h-7.08842c-.17351-2.22162-.791-3.83254-1.85418-4.83278s-2.68261-1.50036-4.85659-1.50036c-2.3611,0-4.13023.84714-5.30398,2.53972-1.17375,1.69428-1.77593,4.32075-1.80655,7.87942v2.59926c0,3.71857.56306,6.4352,1.68918,8.15159s2.90205,2.57544,5.32779,2.57544c2.18929,0,3.82404-.50012,4.90252-1.50036s1.69768-2.54822,1.85418-4.64226h7.08842Z"/>
    <path class="cls-11" d="M639.9814,997.7925c-.40782-.7958-.70321-1.78558-.88838-2.96935-2.1427,2.38739-4.92908,3.58218-8.35696,3.58218-3.24711,0-5.93651-.93908-8.06818-2.81725-2.13388-1.87817-3.20082-4.24571-3.20082-7.10264,0-3.51164,1.30281-6.20544,3.90403-8.08361,2.60342-1.87817,6.36416-2.82607,11.28443-2.84811h4.07157v-1.89801c0-1.52987-.39459-2.75553-1.17937-3.67477-.78477-.91704-2.02586-1.37776-3.71886-1.37776-1.49019,0-2.66074.35712-3.50723,1.07135-.8465.71644-1.26975,1.6952-1.26975,2.9407h-8.84855c0-1.91785.59078-3.69461,1.77456-5.32809s2.85913-2.91424,5.02167-3.84231c2.16474-.92806,4.59401-1.39319,7.28782-1.39319,4.08259,0,7.32309,1.02506,9.7215,3.07737,2.39841,2.05011,3.59761,4.93349,3.59761,8.65015v14.3596c.01984,3.1435.45852,5.52207,1.31604,7.13351v.52024h-8.94113ZM632.66493,991.63776c1.30502,0,2.51084-.29098,3.61305-.87295,1.10221-.57976,1.91785-1.36233,2.44911-2.34109v-5.69622h-3.30663c-4.43089,0-6.78741,1.53207-7.07399,4.59401l-.03086.52024c0,1.10221.38798,2.01043,1.16393,2.72466s1.83849,1.07135,3.18539,1.07135Z"/>
    <path class="cls-11" d="M664.99497,956.51913v8.14533h5.66536v6.48981h-5.66536v16.53536c0,1.22345.23587,2.10081.70541,2.63208s1.36674.7958,2.6938.7958c.98097,0,1.8473-.07054,2.60342-.21383v6.70585c-1.73488.52906-3.52266.7958-5.35895.7958-6.20544,0-9.36879-3.13248-9.49224-9.39965v-17.8514h-4.8365v-6.48981h4.8365v-8.14533h8.84855Z"/>
    <path class="cls-11" d="M681.19085,949.7229l4.16415,2.41825c-1.75472,2.77537-2.66294,5.59262-2.72466,8.45175v5.11205h-7.01006v-4.59181c0-1.92005.53567-3.96575,1.60702-6.13931s2.3918-3.92387,3.96355-5.25093ZM691.69271,949.7229l4.16415,2.41825c-1.75472,2.77537-2.66294,5.59262-2.72466,8.45175v5.11205h-7.01006v-4.59181c0-1.92005.53567-3.96575,1.60702-6.13931s2.3918-3.92387,3.96355-5.25093Z"/>
  </g>
  <polyline class="cls-3" points="1205.28508 721.98389 1258.71961 722.34048 1258.71968 118.31323 1205.28516 118.31323"/>
  <g>
    <rect class="cls-1" x="806.4312" y="84.37011" width="614.64941" height="74.44592"/>
    <path class="cls-11" d="M822.19238,124.64295c-4.10645,0-7.44922-1.25879-10.0293-3.77832-2.5791-2.51953-3.86914-5.87598-3.86914-10.06836v-.72461c0-2.8125.54395-5.32715,1.63086-7.54492,1.08691-2.2168,2.62695-3.9248,4.62012-5.125,1.99219-1.19824,4.26562-1.79785,6.81934-1.79785,3.83105,0,6.8457,1.20703,9.0459,3.62305s3.2998,5.84082,3.2998,10.27539v3.05371h-17.83203c.24121,1.8291.9707,3.2959,2.18652,4.40039,1.2168,1.10449,2.75684,1.65625,4.62012,1.65625,2.88184,0,5.13281-1.04395,6.75488-3.13184l3.67578,4.11523c-1.12207,1.58789-2.64062,2.8252-4.55566,3.71387s-4.03711,1.33301-6.36719,1.33301ZM821.33887,101.63416c-1.48438,0-2.6875.50195-3.61035,1.50781-.92383,1.00488-1.51465,2.44336-1.77344,4.31543h10.4043v-.59863c-.03418-1.66309-.48242-2.9502-1.3457-3.86035-.8623-.90918-2.08789-1.36426-3.6748-1.36426Z"/>
    <path class="cls-11" d="M848.61816,104.48084l4.71094-8.35938h7.99707l-7.97168,13.7168,8.30859,14.28711h-8.02344l-4.99512-8.7998-4.96973,8.7998h-8.04883l8.30762-14.28711-7.94531-13.7168h8.02344l4.60645,8.35938Z"/>
    <path class="cls-11" d="M890.13281,110.3822c0,4.31348-.97949,7.76855-2.9375,10.36523-1.95898,2.59766-4.60352,3.89551-7.93262,3.89551-2.83008,0-5.11621-.9834-6.85938-2.9502v13.19922h-7.47949v-38.77051h6.93652l.25879,2.74316c1.81152-2.17383,4.1748-3.26074,7.0918-3.26074,3.4502,0,6.13379,1.27637,8.04883,3.83008s2.87305,6.07422,2.87305,10.55957v.38867ZM882.65332,109.81189c0-2.61328-.46191-4.62988-1.38477-6.04883-.92383-1.41895-2.26465-2.12891-4.02539-2.12891-2.34668,0-3.95996.90039-4.83984,2.69922v11.50098c.91504,1.85254,2.54492,2.77832,4.8916,2.77832,3.57227,0,5.3584-2.93359,5.3584-8.80078Z"/>
    <path class="cls-11" d="M907.6543,124.64295c-4.10645,0-7.44922-1.25879-10.0293-3.77832-2.5791-2.51953-3.86914-5.87598-3.86914-10.06836v-.72461c0-2.8125.54395-5.32715,1.63086-7.54492,1.08691-2.2168,2.62695-3.9248,4.62012-5.125,1.99219-1.19824,4.26562-1.79785,6.81934-1.79785,3.83105,0,6.8457,1.20703,9.0459,3.62305s3.2998,5.84082,3.2998,10.27539v3.05371h-17.83203c.24121,1.8291.9707,3.2959,2.18652,4.40039,1.2168,1.10449,2.75684,1.65625,4.62012,1.65625,2.88184,0,5.13281-1.04395,6.75488-3.13184l3.67578,4.11523c-1.12207,1.58789-2.64062,2.8252-4.55566,3.71387s-4.03711,1.33301-6.36719,1.33301ZM906.80078,101.63416c-1.48438,0-2.6875.50195-3.61035,1.50781-.92383,1.00488-1.51465,2.44336-1.77344,4.31543h10.4043v-.59863c-.03418-1.66309-.48242-2.9502-1.3457-3.86035-.8623-.90918-2.08789-1.36426-3.6748-1.36426Z"/>
    <path class="cls-11" d="M939.15332,103.13513c-1.01855-.1377-1.91504-.20703-2.69238-.20703-2.83008,0-4.68457.95801-5.56445,2.87305v18.32422h-7.47949v-28.00391h7.06543l.20703,3.33789c1.50098-2.57031,3.58008-3.85547,6.23828-3.85547.82812,0,1.60449.1123,2.3291.33594l-.10352,7.19531Z"/>
    <path class="cls-11" d="M953,89.2367v6.88477h4.78809v5.48633h-4.78809v13.97656c0,1.03516.19824,1.77734.5957,2.22559.39648.44922,1.15527.67285,2.27734.67285.82812,0,1.56152-.05957,2.2002-.18066v5.66797c-1.4668.44824-2.97656.67285-4.5293.67285-5.24609,0-7.91992-2.64844-8.02344-7.94531v-15.08984h-4.08984v-5.48633h4.08984v-6.88477h7.47949Z"/>
    <path class="cls-11" d="M990.32227,116.38709c0-.91504-.45312-1.63477-1.35938-2.16113-.90527-.52637-2.35938-.99707-4.36035-1.41113-6.66113-1.39746-9.99121-4.22754-9.99121-8.48926,0-2.48438,1.03125-4.55957,3.09277-6.22461,2.0625-1.66504,4.75781-2.49707,8.08887-2.49707,3.55371,0,6.39648.83691,8.52734,2.50977,2.13086,1.67383,3.19727,3.84863,3.19727,6.52246h-7.48047c0-1.06934-.34473-1.9541-1.03516-2.65234-.69043-.69922-1.76855-1.04883-3.23535-1.04883-1.25977,0-2.23438.28516-2.9248.85449s-1.03516,1.29395-1.03516,2.17383c0,.82812.39258,1.49707,1.17773,2.00586s2.10938.94922,3.97266,1.32031c1.86426.37109,3.43359.78906,4.71094,1.25488,3.95117,1.44922,5.92676,3.95996,5.92676,7.53223,0,2.55371-1.0957,4.61914-3.28711,6.19824s-5.02051,2.36816-8.48926,2.36816c-2.34668,0-4.42969-.41895-6.25-1.25488-1.82129-.83691-3.24902-1.98438-4.28418-3.44238s-1.55273-3.03223-1.55273-4.72363h7.0918c.06836,1.3291.56055,2.34668,1.47559,3.05371.91406.70801,2.13867,1.06152,3.6748,1.06152,1.43262,0,2.51465-.27148,3.24805-.81543s1.10059-1.25488,1.10059-2.13477Z"/>
    <path class="cls-11" d="M1012.86523,113.53943l5.17676-17.41797h8.02344l-11.25879,32.35254-.62109,1.47461c-1.67383,3.6582-4.43457,5.4873-8.28223,5.4873-1.08691,0-2.19141-.16406-3.31348-.49219v-5.66797l1.13965.02637c1.41406,0,2.47168-.2168,3.16992-.64746.69922-.43164,1.24609-1.14746,1.64355-2.14844l.87988-2.30273-9.80859-28.08203h8.04883l5.20215,17.41797Z"/>
    <path class="cls-11" d="M1044.18262,116.38709c0-.91504-.45312-1.63477-1.35938-2.16113-.90527-.52637-2.35938-.99707-4.36035-1.41113-6.66113-1.39746-9.99121-4.22754-9.99121-8.48926,0-2.48438,1.03125-4.55957,3.09277-6.22461,2.0625-1.66504,4.75781-2.49707,8.08887-2.49707,3.55371,0,6.39648.83691,8.52734,2.50977,2.13086,1.67383,3.19727,3.84863,3.19727,6.52246h-7.48047c0-1.06934-.34473-1.9541-1.03516-2.65234-.69043-.69922-1.76855-1.04883-3.23535-1.04883-1.25977,0-2.23438.28516-2.9248.85449s-1.03516,1.29395-1.03516,2.17383c0,.82812.39258,1.49707,1.17773,2.00586s2.10938.94922,3.97266,1.32031c1.86426.37109,3.43359.78906,4.71094,1.25488,3.95117,1.44922,5.92676,3.95996,5.92676,7.53223,0,2.55371-1.0957,4.61914-3.28711,6.19824s-5.02051,2.36816-8.48926,2.36816c-2.34668,0-4.42969-.41895-6.25-1.25488-1.82129-.83691-3.24902-1.98438-4.28418-3.44238s-1.55273-3.03223-1.55273-4.72363h7.0918c.06836,1.3291.56055,2.34668,1.47559,3.05371.91406.70801,2.13867,1.06152,3.6748,1.06152,1.43262,0,2.51465-.27148,3.24805-.81543s1.10059-1.25488,1.10059-2.13477Z"/>
    <path class="cls-11" d="M1065.22461,89.2367v6.88477h4.78809v5.48633h-4.78809v13.97656c0,1.03516.19824,1.77734.5957,2.22559.39648.44922,1.15527.67285,2.27734.67285.82812,0,1.56152-.05957,2.2002-.18066v5.66797c-1.4668.44824-2.97656.67285-4.5293.67285-5.24609,0-7.91992-2.64844-8.02344-7.94531v-15.08984h-4.08984v-5.48633h4.08984v-6.88477h7.47949Z"/>
    <path class="cls-11" d="M1087.06836,124.64295c-4.10645,0-7.44922-1.25879-10.0293-3.77832-2.5791-2.51953-3.86914-5.87598-3.86914-10.06836v-.72461c0-2.8125.54395-5.32715,1.63086-7.54492,1.08691-2.2168,2.62695-3.9248,4.62012-5.125,1.99219-1.19824,4.26562-1.79785,6.81934-1.79785,3.83105,0,6.8457,1.20703,9.0459,3.62305s3.2998,5.84082,3.2998,10.27539v3.05371h-17.83203c.24121,1.8291.9707,3.2959,2.18652,4.40039,1.2168,1.10449,2.75684,1.65625,4.62012,1.65625,2.88184,0,5.13281-1.04395,6.75488-3.13184l3.67578,4.11523c-1.12207,1.58789-2.64062,2.8252-4.55566,3.71387s-4.03711,1.33301-6.36719,1.33301ZM1086.21484,101.63416c-1.48438,0-2.6875.50195-3.61035,1.50781-.92383,1.00488-1.51465,2.44336-1.77344,4.31543h10.4043v-.59863c-.03418-1.66309-.48242-2.9502-1.3457-3.86035-.8623-.90918-2.08789-1.36426-3.6748-1.36426Z"/>
    <path class="cls-11" d="M1109.84473,96.12146l.2334,3.13086c1.9834-2.43262,4.66699-3.64844,8.04883-3.64844,3.60645,0,6.08203,1.42285,7.42871,4.27051,1.9668-2.84766,4.77051-4.27051,8.41113-4.27051,3.03711,0,5.29688.88379,6.78125,2.65234,1.4834,1.76855,2.22559,4.43066,2.22559,7.98438v17.88477h-7.50586v-17.89941c0-1.5918-.31055-2.75391-.93164-3.48926s-1.7168-1.10254-3.28711-1.10254c-2.24316,0-3.7959,1.07227-4.6582,3.2168l.02539,19.27441h-7.47949v-17.87402c0-1.62598-.31934-2.80176-.95801-3.52832-.63867-.72559-1.72559-1.08887-3.26074-1.08887-2.12207,0-3.6582.88184-4.60742,2.64551v19.8457h-7.47949v-28.00391h7.01367Z"/>
    <path class="cls-11" d="M1163.88672,116.38709c0-.91504-.45312-1.63477-1.35938-2.16113-.90527-.52637-2.35938-.99707-4.36035-1.41113-6.66113-1.39746-9.99121-4.22754-9.99121-8.48926,0-2.48438,1.03125-4.55957,3.09277-6.22461,2.0625-1.66504,4.75781-2.49707,8.08887-2.49707,3.55371,0,6.39648.83691,8.52734,2.50977,2.13086,1.67383,3.19727,3.84863,3.19727,6.52246h-7.48047c0-1.06934-.34473-1.9541-1.03516-2.65234-.69043-.69922-1.76855-1.04883-3.23535-1.04883-1.25977,0-2.23438.28516-2.9248.85449s-1.03516,1.29395-1.03516,2.17383c0,.82812.39258,1.49707,1.17773,2.00586s2.10938.94922,3.97266,1.32031c1.86426.37109,3.43359.78906,4.71094,1.25488,3.95117,1.44922,5.92676,3.95996,5.92676,7.53223,0,2.55371-1.0957,4.61914-3.28711,6.19824s-5.02051,2.36816-8.48926,2.36816c-2.34668,0-4.42969-.41895-6.25-1.25488-1.82129-.83691-3.24902-1.98438-4.28418-3.44238s-1.55273-3.03223-1.55273-4.72363h7.0918c.06836,1.3291.56055,2.34668,1.47559,3.05371.91406.70801,2.13867,1.06152,3.6748,1.06152,1.43262,0,2.51465-.27148,3.24805-.81543s1.10059-1.25488,1.10059-2.13477Z"/>
  </g>
  <g>
    <rect class="cls-1" x="766.30575" y="689.61458" width="516.56703" height="60.09257"/>
    <path class="cls-11" d="M776.19141,701.36463l.2334,3.13086c1.9834-2.43262,4.66699-3.64844,8.04883-3.64844,3.60645,0,6.08203,1.42285,7.42871,4.27051,1.9668-2.84766,4.77051-4.27051,8.41113-4.27051,3.03711,0,5.29688.88379,6.78125,2.65234,1.4834,1.76855,2.22559,4.43066,2.22559,7.98438v17.88477h-7.50586v-17.89941c0-1.5918-.31055-2.75391-.93164-3.48926s-1.7168-1.10254-3.28711-1.10254c-2.24316,0-3.7959,1.07227-4.6582,3.2168l.02539,19.27441h-7.47949v-17.87402c0-1.62598-.31934-2.80176-.95801-3.52832-.63867-.72559-1.72559-1.08887-3.26074-1.08887-2.12207,0-3.6582.88184-4.60742,2.64551v19.8457h-7.47949v-28.00391h7.01367Z"/>
    <path class="cls-11" d="M831.29395,729.36853c-.34473-.67285-.59473-1.50977-.75-2.51074-1.81152,2.01855-4.16699,3.02832-7.06641,3.02832-2.74316,0-5.0166-.79297-6.81934-2.38086-1.80371-1.58789-2.70508-3.58887-2.70508-6.00488,0-2.96777,1.10059-5.24512,3.2998-6.83301,2.2002-1.58691,5.37891-2.38965,9.53809-2.40723h3.44238v-1.60449c0-1.29395-.33301-2.3291-.99707-3.10547s-1.71191-1.16504-3.14453-1.16504c-1.25977,0-2.24707.30273-2.96289.90625-.7168.60352-1.07422,1.43262-1.07422,2.48438h-7.48047c0-1.62109.50098-3.12305,1.50098-4.50293,1.00098-1.38086,2.41602-2.46289,4.24512-3.24902,1.8291-.78418,3.88184-1.17676,6.16016-1.17676,3.4502,0,6.18945.86621,8.21777,2.60059,2.02637,1.73438,3.04102,4.17188,3.04102,7.31152v12.13867c.0166,2.65723.3877,4.66797,1.1123,6.03027v.44043h-7.55762ZM825.1084,724.16638c1.10449,0,2.12207-.24609,3.05371-.7373.93262-.49219,1.62207-1.15234,2.07129-1.98047v-4.81445h-2.7959c-3.74414,0-5.7373,1.29492-5.97852,3.88281l-.02539.43945c0,.93262.32715,1.7002.9834,2.30371.65527.60449,1.55273.90625,2.69141.90625Z"/>
    <path class="cls-11" d="M855.13086,723.85584c1.38086,0,2.50195-.37988,3.36523-1.13867.8623-.75977,1.31055-1.76855,1.3457-3.02832h7.01367c-.01758,1.89844-.53516,3.63672-1.55273,5.21484-1.01855,1.5791-2.41113,2.80469-4.17969,3.67578-1.76953.87109-3.72363,1.30664-5.8623,1.30664-4.00293,0-7.16113-1.27246-9.47266-3.81738-2.3125-2.54492-3.46875-6.06055-3.46875-10.54688v-.49219c0-4.31348,1.14746-7.75586,3.44238-10.32715,2.29492-2.57031,5.44336-3.85547,9.44727-3.85547,3.50195,0,6.31055.99609,8.4248,2.98926,2.11328,1.99219,3.1875,4.64551,3.22168,7.95801h-7.01367c-.03516-1.45605-.4834-2.64062-1.3457-3.55078-.86328-.91113-2.00195-1.36621-3.41699-1.36621-1.74316,0-3.05859.63477-3.94629,1.90527-.88965,1.26953-1.33301,3.33105-1.33301,6.18164v.77734c0,2.88672.43945,4.96094,1.31934,6.22168.87988,1.26172,2.2168,1.89258,4.01172,1.89258Z"/>
    <path class="cls-11" d="M878.4248,704.41834c1.9834-2.38086,4.47754-3.57129,7.47949-3.57129,6.07324,0,9.15332,3.52832,9.24023,10.58496v17.93652h-7.48047v-17.76953c0-1.6084-.34473-2.79785-1.03516-3.56738s-1.83691-1.1543-3.44238-1.1543c-2.19141,0-3.77832.84766-4.76172,2.54199v19.94922h-7.48047v-39.75488h7.48047v14.80469Z"/>
    <path class="cls-11" d="M900.73535,694.11756c0-1.12207.375-2.04492,1.12598-2.76953.75-.72461,1.77246-1.08691,3.06641-1.08691,1.27734,0,2.29492.3623,3.05469,1.08691.75879.72461,1.13867,1.64746,1.13867,2.76953,0,1.13867-.38477,2.07031-1.15234,2.79492s-1.78125,1.08691-3.04102,1.08691-2.27344-.3623-3.04102-1.08691-1.15137-1.65625-1.15137-2.79492ZM908.68066,729.36853h-7.50586v-28.00391h7.50586v28.00391Z"/>
    <path class="cls-11" d="M921.72559,701.36463l.23242,3.23438c2.00195-2.50098,4.68457-3.75195,8.0498-3.75195,2.9668,0,5.17578.87109,6.62598,2.61328,1.44922,1.74316,2.19043,4.34863,2.22559,7.81641v18.0918h-7.48047v-17.95117c0-1.5918-.34473-2.74609-1.03516-3.46387s-1.83691-1.07617-3.44238-1.07617c-2.10547,0-3.68359.89941-4.73633,2.69727v19.79395h-7.47949v-28.00391h7.04004Z"/>
    <path class="cls-11" d="M957.41602,729.88611c-4.10645,0-7.44922-1.25879-10.0293-3.77832-2.5791-2.51953-3.86914-5.87598-3.86914-10.06836v-.72461c0-2.8125.54395-5.32715,1.63086-7.54492,1.08691-2.2168,2.62695-3.9248,4.62012-5.125,1.99219-1.19824,4.26562-1.79785,6.81934-1.79785,3.83105,0,6.8457,1.20703,9.0459,3.62305s3.2998,5.84082,3.2998,10.27539v3.05371h-17.83203c.24121,1.8291.9707,3.2959,2.18652,4.40039,1.2168,1.10449,2.75684,1.65625,4.62012,1.65625,2.88184,0,5.13281-1.04395,6.75488-3.13184l3.67578,4.11523c-1.12207,1.58789-2.64062,2.8252-4.55566,3.71387s-4.03711,1.33301-6.36719,1.33301ZM956.5625,706.87732c-1.48438,0-2.6875.50195-3.61035,1.50781-.92383,1.00488-1.51465,2.44336-1.77344,4.31543h10.4043v-.59863c-.03418-1.66309-.48242-2.9502-1.3457-3.86035-.8623-.90918-2.08789-1.36426-3.6748-1.36426Z"/>
    <path class="cls-11" d="M994.27246,729.36853h-7.50586v-39.75488h7.50586v39.75488Z"/>
    <path class="cls-11" d="M1013.32129,729.88611c-4.10645,0-7.44922-1.25879-10.0293-3.77832-2.5791-2.51953-3.86914-5.87598-3.86914-10.06836v-.72461c0-2.8125.54395-5.32715,1.63086-7.54492,1.08691-2.2168,2.62695-3.9248,4.62012-5.125,1.99219-1.19824,4.26562-1.79785,6.81934-1.79785,3.83105,0,6.8457,1.20703,9.0459,3.62305s3.2998,5.84082,3.2998,10.27539v3.05371h-17.83203c.24121,1.8291.9707,3.2959,2.18652,4.40039,1.2168,1.10449,2.75684,1.65625,4.62012,1.65625,2.88184,0,5.13281-1.04395,6.75488-3.13184l3.67578,4.11523c-1.12207,1.58789-2.64062,2.8252-4.55566,3.71387s-4.03711,1.33301-6.36719,1.33301ZM1012.46777,706.87732c-1.48438,0-2.6875.50195-3.61035,1.50781-.92383,1.00488-1.51465,2.44336-1.77344,4.31543h10.4043v-.59863c-.03418-1.66309-.48242-2.9502-1.3457-3.86035-.8623-.90918-2.08789-1.36426-3.6748-1.36426Z"/>
    <path class="cls-11" d="M1045.31152,729.36853c-.34473-.67285-.59473-1.50977-.75-2.51074-1.81152,2.01855-4.16699,3.02832-7.06641,3.02832-2.74316,0-5.0166-.79297-6.81934-2.38086-1.80371-1.58789-2.70508-3.58887-2.70508-6.00488,0-2.96777,1.10059-5.24512,3.2998-6.83301,2.2002-1.58691,5.37891-2.38965,9.53809-2.40723h3.44238v-1.60449c0-1.29395-.33301-2.3291-.99707-3.10547s-1.71191-1.16504-3.14453-1.16504c-1.25977,0-2.24707.30273-2.96289.90625-.7168.60352-1.07422,1.43262-1.07422,2.48438h-7.48047c0-1.62109.50098-3.12305,1.50098-4.50293,1.00098-1.38086,2.41602-2.46289,4.24512-3.24902,1.8291-.78418,3.88184-1.17676,6.16016-1.17676,3.4502,0,6.18945.86621,8.21777,2.60059,2.02637,1.73438,3.04102,4.17188,3.04102,7.31152v12.13867c.0166,2.65723.3877,4.66797,1.1123,6.03027v.44043h-7.55762ZM1039.12598,724.16638c1.10449,0,2.12207-.24609,3.05371-.7373.93262-.49219,1.62207-1.15234,2.07129-1.98047v-4.81445h-2.7959c-3.74414,0-5.7373,1.29492-5.97852,3.88281l-.02539.43945c0,.93262.32715,1.7002.9834,2.30371.65527.60449,1.55273.90625,2.69141.90625Z"/>
    <path class="cls-11" d="M1073.23828,708.3783c-1.01855-.1377-1.91504-.20703-2.69238-.20703-2.83008,0-4.68457.95801-5.56445,2.87305v18.32422h-7.47949v-28.00391h7.06543l.20703,3.33789c1.50098-2.57031,3.58008-3.85547,6.23828-3.85547.82812,0,1.60449.1123,2.3291.33594l-.10352,7.19531Z"/>
    <path class="cls-11" d="M1083.7207,701.36463l.23242,3.23438c2.00195-2.50098,4.68457-3.75195,8.0498-3.75195,2.9668,0,5.17578.87109,6.62598,2.61328,1.44922,1.74316,2.19043,4.34863,2.22559,7.81641v18.0918h-7.48047v-17.95117c0-1.5918-.34473-2.74609-1.03516-3.46387s-1.83691-1.07617-3.44238-1.07617c-2.10547,0-3.68359.89941-4.73633,2.69727v19.79395h-7.47949v-28.00391h7.04004Z"/>
    <path class="cls-11" d="M1106.4707,694.11756c0-1.12207.375-2.04492,1.12598-2.76953.75-.72461,1.77246-1.08691,3.06641-1.08691,1.27734,0,2.29492.3623,3.05469,1.08691.75879.72461,1.13867,1.64746,1.13867,2.76953,0,1.13867-.38477,2.07031-1.15234,2.79492s-1.78125,1.08691-3.04102,1.08691-2.27344-.3623-3.04102-1.08691-1.15137-1.65625-1.15137-2.79492ZM1114.41602,729.36853h-7.50586v-28.00391h7.50586v28.00391Z"/>
    <path class="cls-11" d="M1127.46094,701.36463l.23242,3.23438c2.00195-2.50098,4.68457-3.75195,8.0498-3.75195,2.9668,0,5.17578.87109,6.62598,2.61328,1.44922,1.74316,2.19043,4.34863,2.22559,7.81641v18.0918h-7.48047v-17.95117c0-1.5918-.34473-2.74609-1.03516-3.46387s-1.83691-1.07617-3.44238-1.07617c-2.10547,0-3.68359.89941-4.73633,2.69727v19.79395h-7.47949v-28.00391h7.04004Z"/>
    <path class="cls-11" d="M1149.17578,715.15955c0-4.29688,1.02246-7.75586,3.06641-10.37891,2.04492-2.62305,4.80176-3.93359,8.26953-3.93359,3.07129,0,5.46094,1.05176,7.16895,3.15723l.31152-2.63965h6.78027v27.07227c0,2.4502-.55566,4.58105-1.66895,6.39258s-2.67871,3.19238-4.69727,4.1416c-2.01953.94824-4.38379,1.42285-7.0918,1.42285-2.05371,0-4.05566-.41016-6.00488-1.22949-1.9502-.81934-3.42578-1.87598-4.42578-3.16992l3.3125-4.55566c1.86426,2.08789,4.12402,3.13184,6.78125,3.13184,1.98438,0,3.52832-.53027,4.63281-1.5918,1.10449-1.06055,1.65625-2.56641,1.65625-4.5166v-1.50098c-1.72559,1.9502-3.99414,2.9248-6.80664,2.9248-3.36426,0-6.08691-1.31543-8.16602-3.94727-2.0791-2.63086-3.11816-6.12109-3.11816-10.46875v-.31055ZM1156.65527,715.69177c0,2.54785.50879,4.5459,1.52734,5.99316,1.01758,1.44727,2.41504,2.1709,4.19238,2.1709,2.27832,0,3.9082-.8584,4.8916-2.57422v-11.83008c-1-1.7168-2.61328-2.57422-4.83984-2.57422-1.79395,0-3.20508.73633-4.23145,2.20996s-1.54004,3.6748-1.54004,6.60449Z"/>
  </g>
  <line class="cls-2" x1="1258.71233" y1="506.54573" x2="1324.15215" y2="506.54573"/>
</svg>