<?xml version="1.0" encoding="UTF-8"?>
<svg id="Ebene_2" data-name="Ebene 2" xmlns="http://www.w3.org/2000/svg" xmlns:xlink="http://www.w3.org/1999/xlink" viewBox="0 0 1920 780.93571">
  <defs>
    <style>
      .cls-1 {
        fill: url(#Unbenannter_Verlauf_3);
      }

      .cls-2 {
        fill: #fff;
        stroke: #f3f5f7;
        stroke-width: .85751px;
      }

      .cls-2, .cls-3, .cls-4, .cls-5 {
        stroke-miterlimit: 10;
      }

      .cls-3 {
        stroke-width: 11.56304px;
      }

      .cls-3, .cls-4, .cls-5 {
        fill: none;
        stroke: #0d435c;
      }

      .cls-4 {
        stroke-width: 11.54339px;
      }

      .cls-5 {
        stroke-width: 12.00519px;
      }

      .cls-6 {
        fill: #90172f;
      }

      .cls-7 {
        fill: #0d435c;
      }

      .cls-8 {
        fill: #f3f5f7;
      }

      .cls-9 {
        fill: #bbcf12;
      }
    </style>
    <radialGradient id="Unbenannter_Verlauf_3" data-name="Unbenannter Verlauf 3" cx="1459.81509" cy="516.80654" fx="1459.81509" fy="516.80654" r="420.19323" gradientTransform="translate(0 155.04196) scale(1 .7)" gradientUnits="userSpaceOnUse">
      <stop offset="0" stop-color="#f3f5f7"/>
      <stop offset=".06967" stop-color="#eef1f4"/>
      <stop offset=".13937" stop-color="#e2e8ec"/>
      <stop offset=".20916" stop-color="#ced9de"/>
      <stop offset=".27904" stop-color="#b2c3cb"/>
      <stop offset=".349" stop-color="#8ea7b3"/>
      <stop offset=".41909" stop-color="#618495"/>
      <stop offset=".48797" stop-color="#2e5c72"/>
      <stop offset=".52756" stop-color="#0d435c"/>
      <stop offset=".53422" stop-color="#184c63"/>
      <stop offset=".56259" stop-color="#466f82"/>
      <stop offset=".59368" stop-color="#6f8f9e"/>
      <stop offset=".62683" stop-color="#93aab6"/>
      <stop offset=".66259" stop-color="#b1c1ca"/>
      <stop offset=".70186" stop-color="#c9d4da"/>
      <stop offset=".74602" stop-color="#dbe3e7"/>
      <stop offset=".79789" stop-color="#e9edf0"/>
      <stop offset=".86475" stop-color="#f0f3f5"/>
      <stop offset="1" stop-color="#f3f5f7"/>
    </radialGradient>
  </defs>
  <rect class="cls-8" x="-11.61466" y="-9.91846" width="1953.01137" height="808.3131"/>
  <path class="cls-1" d="M955.01447,336.22683c0,9.05906-2.04213,16.04528-6.11102,20.95866-4.0689,4.91339-9.79606,7.37008-17.19685,7.37008-7.4622,0-13.23543-2.47205-17.31969-7.41614-4.08425-4.94409-6.12638-11.91496-6.12638-20.9126v-12.25276c0-9.05906,2.02677-16.04528,6.09567-20.95866,4.0689-4.91339,9.82677-7.37008,17.25827-7.37008s13.18937,2.47205,17.27362,7.41614c4.08425,4.94409,6.12638,11.93031,6.12638,20.95866v12.20669ZM939.49124,321.99337c0-4.82126-.62953-8.41417-1.88858-10.80945-1.25906-2.36457-3.25512-3.5622-5.98819-3.5622-2.67165,0-4.62165,1.10551-5.83465,3.31654-1.21299,2.21102-1.85787,5.55827-1.95,10.04173v17.13543c0,5.00551.62953,8.6752,1.88858,10.9937,1.25906,2.3185,3.25512,3.47008,5.98819,3.47008,2.64094,0,4.59094-1.13622,5.85-3.37795,1.25906-2.27244,1.90394-5.80394,1.93465-10.6252v-16.58268ZM1015.63055,336.22683c0,9.05906-2.04213,16.04528-6.11102,20.95866-4.0689,4.91339-9.79606,7.37008-17.19685,7.37008-7.4622,0-13.23543-2.47205-17.31969-7.41614-4.08425-4.94409-6.12638-11.91496-6.12638-20.9126v-12.25276c0-9.05906,2.02677-16.04528,6.09567-20.95866,4.0689-4.91339,9.82677-7.37008,17.25827-7.37008s13.18937,2.47205,17.27362,7.41614c4.08425,4.94409,6.12638,11.93031,6.12638,20.95866v12.20669ZM1000.10733,321.99337c0-4.82126-.62953-8.41417-1.88858-10.80945-1.25906-2.36457-3.25512-3.5622-5.98819-3.5622-2.67165,0-4.62165,1.10551-5.83465,3.31654-1.21299,2.21102-1.85787,5.55827-1.95,10.04173v17.13543c0,5.00551.62953,8.6752,1.88858,10.9937,1.25906,2.3185,3.25512,3.47008,5.98819,3.47008,2.64094,0,4.59094-1.13622,5.85-3.37795,1.25906-2.27244,1.90394-5.80394,1.93465-10.6252v-16.58268ZM1076.24664,336.22683c0,9.05906-2.04213,16.04528-6.11102,20.95866-4.0689,4.91339-9.79606,7.37008-17.19685,7.37008-7.4622,0-13.23543-2.47205-17.31969-7.41614-4.08425-4.94409-6.12638-11.91496-6.12638-20.9126v-12.25276c0-9.05906,2.02677-16.04528,6.09567-20.95866,4.0689-4.91339,9.82677-7.37008,17.25827-7.37008s13.18937,2.47205,17.27362,7.41614c4.08425,4.94409,6.12638,11.93031,6.12638,20.95866v12.20669ZM1060.72341,321.99337c0-4.82126-.62953-8.41417-1.88858-10.80945-1.25906-2.36457-3.25512-3.5622-5.98819-3.5622-2.67165,0-4.62165,1.10551-5.83465,3.31654-1.21299,2.21102-1.85787,5.55827-1.95,10.04173v17.13543c0,5.00551.62953,8.6752,1.88858,10.9937,1.25906,2.3185,3.25512,3.47008,5.98819,3.47008,2.64094,0,4.59094-1.13622,5.85-3.37795,1.25906-2.27244,1.90394-5.80394,1.93465-10.6252v-16.58268ZM1120.97099,363.63432h-15.56929v-49.56378l-15.29291,4.46811v-11.79213l29.43425-10.17992h1.42795v67.06772ZM1181.58707,336.22683c0,9.05906-2.04213,16.04528-6.11102,20.95866-4.0689,4.91339-9.79606,7.37008-17.19685,7.37008-7.4622,0-13.23543-2.47205-17.31969-7.41614-4.08425-4.94409-6.12638-11.91496-6.12638-20.9126v-12.25276c0-9.05906,2.02677-16.04528,6.09567-20.95866,4.0689-4.91339,9.82677-7.37008,17.25827-7.37008s13.18937,2.47205,17.27362,7.41614c4.08425,4.94409,6.12638,11.93031,6.12638,20.95866v12.20669ZM1166.06384,321.99337c0-4.82126-.62953-8.41417-1.88858-10.80945-1.25906-2.36457-3.25512-3.5622-5.98819-3.5622-2.67165,0-4.62165,1.10551-5.83465,3.31654-1.21299,2.21102-1.85787,5.55827-1.95,10.04173v17.13543c0,5.00551.62953,8.6752,1.88858,10.9937,1.25906,2.3185,3.25512,3.47008,5.98819,3.47008,2.64094,0,4.59094-1.13622,5.85-3.37795,1.25906-2.27244,1.90394-5.80394,1.93465-10.6252v-16.58268ZM1242.20315,336.22683c0,9.05906-2.04213,16.04528-6.11102,20.95866-4.0689,4.91339-9.79606,7.37008-17.19685,7.37008-7.4622,0-13.23543-2.47205-17.31969-7.41614-4.08425-4.94409-6.12638-11.91496-6.12638-20.9126v-12.25276c0-9.05906,2.02677-16.04528,6.09567-20.95866,4.0689-4.91339,9.82677-7.37008,17.25827-7.37008s13.18937,2.47205,17.27362,7.41614c4.08425,4.94409,6.12638,11.93031,6.12638,20.95866v12.20669ZM1226.67992,321.99337c0-4.82126-.62953-8.41417-1.88858-10.80945-1.25906-2.36457-3.25512-3.5622-5.98819-3.5622-2.67165,0-4.62165,1.10551-5.83465,3.31654-1.21299,2.21102-1.85787,5.55827-1.95,10.04173v17.13543c0,5.00551.62953,8.6752,1.88858,10.9937,1.25906,2.3185,3.25512,3.47008,5.98819,3.47008,2.64094,0,4.59094-1.13622,5.85-3.37795,1.25906-2.27244,1.90394-5.80394,1.93465-10.6252v-16.58268ZM1286.9275,363.63432h-15.56929v-49.56378l-15.29291,4.46811v-11.79213l29.43425-10.17992h1.42795v67.06772ZM1331.65185,363.63432h-15.56929v-49.56378l-15.29291,4.46811v-11.79213l29.43425-10.17992h1.42795v67.06772ZM1392.26794,336.22683c0,9.05906-2.04213,16.04528-6.11102,20.95866-4.0689,4.91339-9.79606,7.37008-17.19685,7.37008-7.4622,0-13.23543-2.47205-17.31969-7.41614-4.08425-4.94409-6.12638-11.91496-6.12638-20.9126v-12.25276c0-9.05906,2.02677-16.04528,6.09567-20.95866,4.0689-4.91339,9.82677-7.37008,17.25827-7.37008s13.18937,2.47205,17.27362,7.41614c4.08425,4.94409,6.12638,11.93031,6.12638,20.95866v12.20669ZM1376.74471,321.99337c0-4.82126-.62953-8.41417-1.88858-10.80945-1.25906-2.36457-3.25512-3.5622-5.98819-3.5622-2.67165,0-4.62165,1.10551-5.83465,3.31654-1.21299,2.21102-1.85787,5.55827-1.95,10.04173v17.13543c0,5.00551.62953,8.6752,1.88858,10.9937,1.25906,2.3185,3.25512,3.47008,5.98819,3.47008,2.64094,0,4.59094-1.13622,5.85-3.37795,1.25906-2.27244,1.90394-5.80394,1.93465-10.6252v-16.58268ZM1452.88402,336.22683c0,9.05906-2.04213,16.04528-6.11102,20.95866-4.0689,4.91339-9.79606,7.37008-17.19685,7.37008-7.4622,0-13.23543-2.47205-17.31969-7.41614-4.08425-4.94409-6.12638-11.91496-6.12638-20.9126v-12.25276c0-9.05906,2.02677-16.04528,6.09567-20.95866,4.0689-4.91339,9.82677-7.37008,17.25827-7.37008s13.18937,2.47205,17.27362,7.41614c4.08425,4.94409,6.12638,11.93031,6.12638,20.95866v12.20669ZM1437.36079,321.99337c0-4.82126-.62953-8.41417-1.88858-10.80945-1.25906-2.36457-3.25512-3.5622-5.98819-3.5622-2.67165,0-4.62165,1.10551-5.83465,3.31654-1.21299,2.21102-1.85787,5.55827-1.95,10.04173v17.13543c0,5.00551.62953,8.6752,1.88858,10.9937s3.25512,3.47008,5.98819,3.47008c2.64094,0,4.59094-1.13622,5.85-3.37795,1.25906-2.27244,1.90394-5.80394,1.93465-10.6252v-16.58268ZM942.85384,457.97132h-15.56929v-49.56378l-15.29291,4.46811v-11.79213l29.43425-10.17992h1.42795v67.06772ZM993.43304,457.97132h-15.56929v-49.56378l-15.29291,4.46811v-11.79213l29.43425-10.17992h1.42795v67.06772ZM1044.01224,457.97132h-15.56929v-49.56378l-15.29291,4.46811v-11.79213l29.43425-10.17992h1.42795v67.06772ZM1094.59144,457.97132h-15.56929v-49.56378l-15.29291,4.46811v-11.79213l29.43425-10.17992h1.42795v67.06772ZM1161.06237,430.56384c0,9.05906-2.04213,16.04528-6.11102,20.95866-4.0689,4.91339-9.79606,7.37008-17.19685,7.37008-7.4622,0-13.23543-2.47205-17.31969-7.41614-4.08425-4.94409-6.12638-11.91496-6.12638-20.9126v-12.25276c0-9.05906,2.02677-16.04528,6.09567-20.95866,4.0689-4.91339,9.82677-7.37008,17.25827-7.37008s13.18937,2.47205,17.27362,7.41614c4.08425,4.94409,6.12638,11.93031,6.12638,20.95866v12.20669ZM1145.53914,416.33038c0-4.82126-.62953-8.41417-1.88858-10.80945-1.25906-2.36457-3.25512-3.5622-5.98819-3.5622-2.67165,0-4.62165,1.10551-5.83465,3.31654-1.21299,2.21102-1.85787,5.55827-1.95,10.04173v17.13543c0,5.00551.62953,8.6752,1.88858,10.9937,1.25906,2.3185,3.25512,3.47008,5.98819,3.47008,2.64094,0,4.59094-1.13622,5.85-3.37795,1.25906-2.27244,1.90394-5.80394,1.93465-10.6252v-16.58268ZM1211.64157,457.97132h-15.56929v-49.56378l-15.29291,4.46811v-11.79213l29.43425-10.17992h1.42795v67.06772ZM1278.1125,430.56384c0,9.05906-2.04213,16.04528-6.11102,20.95866-4.0689,4.91339-9.79606,7.37008-17.19685,7.37008-7.4622,0-13.23543-2.47205-17.31969-7.41614-4.08425-4.94409-6.12638-11.91496-6.12638-20.9126v-12.25276c0-9.05906,2.02677-16.04528,6.09567-20.95866s9.82677-7.37008,17.25827-7.37008,13.18937,2.47205,17.27362,7.41614c4.08425,4.94409,6.12638,11.93031,6.12638,20.95866v12.20669ZM1262.58927,416.33038c0-4.82126-.62953-8.41417-1.88858-10.80945-1.25906-2.36457-3.25512-3.5622-5.98819-3.5622-2.67165,0-4.62165,1.10551-5.83465,3.31654-1.21299,2.21102-1.85787,5.55827-1.95,10.04173v17.13543c0,5.00551.62953,8.6752,1.88858,10.9937,1.25906,2.3185,3.25512,3.47008,5.98819,3.47008,2.64094,0,4.59094-1.13622,5.85-3.37795,1.25906-2.27244,1.90394-5.80394,1.93465-10.6252v-16.58268ZM1328.6917,457.97132h-15.56929v-49.56378l-15.29291,4.46811v-11.79213l29.43425-10.17992h1.42795v67.06772ZM1395.16263,430.56384c0,9.05906-2.04213,16.04528-6.11102,20.95866-4.0689,4.91339-9.79606,7.37008-17.19685,7.37008-7.4622,0-13.23543-2.47205-17.31969-7.41614-4.08425-4.94409-6.12638-11.91496-6.12638-20.9126v-12.25276c0-9.05906,2.02677-16.04528,6.09567-20.95866,4.0689-4.91339,9.82677-7.37008,17.25827-7.37008s13.18937,2.47205,17.27362,7.41614c4.08425,4.94409,6.12638,11.93031,6.12638,20.95866v12.20669ZM1379.6394,416.33038c0-4.82126-.62953-8.41417-1.88858-10.80945-1.25906-2.36457-3.25512-3.5622-5.98819-3.5622-2.67165,0-4.62165,1.10551-5.83465,3.31654-1.21299,2.21102-1.85787,5.55827-1.95,10.04173v17.13543c0,5.00551.62953,8.6752,1.88858,10.9937,1.25906,2.3185,3.25512,3.47008,5.98819,3.47008,2.64094,0,4.59094-1.13622,5.85-3.37795,1.25906-2.27244,1.90394-5.80394,1.93465-10.6252v-16.58268ZM1445.74183,457.97132h-15.56929v-49.56378l-15.29291,4.46811v-11.79213l29.43425-10.17992h1.42795v67.06772ZM955.01447,524.90085c0,9.05906-2.04213,16.04528-6.11102,20.95866-4.0689,4.91339-9.79606,7.37008-17.19685,7.37008-7.4622,0-13.23543-2.47205-17.31969-7.41614-4.08425-4.94409-6.12638-11.91496-6.12638-20.9126v-12.25276c0-9.05906,2.02677-16.04528,6.09567-20.95866,4.0689-4.91339,9.82677-7.37008,17.25827-7.37008s13.18937,2.47205,17.27362,7.41614c4.08425,4.94409,6.12638,11.93031,6.12638,20.95866v12.20669ZM939.49124,510.66739c0-4.82126-.62953-8.41417-1.88858-10.80945-1.25906-2.36457-3.25512-3.5622-5.98819-3.5622-2.67165,0-4.62165,1.10551-5.83465,3.31654-1.21299,2.21102-1.85787,5.55827-1.95,10.04173v17.13543c0,5.00551.62953,8.6752,1.88858,10.9937,1.25906,2.3185,3.25512,3.47008,5.98819,3.47008,2.64094,0,4.59094-1.13622,5.85-3.37795,1.25906-2.27244,1.90394-5.80394,1.93465-10.6252v-16.58268ZM999.73882,552.30833h-15.56929v-49.56378l-15.29291,4.46811v-11.79213l29.43425-10.17992h1.42795v67.06772ZM1060.3549,524.90085c0,9.05906-2.04213,16.04528-6.11102,20.95866-4.0689,4.91339-9.79606,7.37008-17.19685,7.37008-7.4622,0-13.23543-2.47205-17.31969-7.41614-4.08425-4.94409-6.12638-11.91496-6.12638-20.9126v-12.25276c0-9.05906,2.02677-16.04528,6.09567-20.95866,4.0689-4.91339,9.82677-7.37008,17.25827-7.37008s13.18937,2.47205,17.27362,7.41614c4.08425,4.94409,6.12638,11.93031,6.12638,20.95866v12.20669ZM1044.83168,510.66739c0-4.82126-.62953-8.41417-1.88858-10.80945-1.25906-2.36457-3.25512-3.5622-5.98819-3.5622-2.67165,0-4.62165,1.10551-5.83465,3.31654-1.21299,2.21102-1.85787,5.55827-1.95,10.04173v17.13543c0,5.00551.62953,8.6752,1.88858,10.9937s3.25512,3.47008,5.98819,3.47008c2.64094,0,4.59094-1.13622,5.85-3.37795,1.25906-2.27244,1.90394-5.80394,1.93465-10.6252v-16.58268ZM1105.07925,552.30833h-15.56929v-49.56378l-15.29291,4.46811v-11.79213l29.43425-10.17992h1.42795v67.06772ZM1165.69534,524.90085c0,9.05906-2.04213,16.04528-6.11102,20.95866-4.0689,4.91339-9.79606,7.37008-17.19685,7.37008-7.4622,0-13.23543-2.47205-17.31969-7.41614-4.08425-4.94409-6.12638-11.91496-6.12638-20.9126v-12.25276c0-9.05906,2.02677-16.04528,6.09567-20.95866,4.0689-4.91339,9.82677-7.37008,17.25827-7.37008s13.18937,2.47205,17.27362,7.41614c4.08425,4.94409,6.12638,11.93031,6.12638,20.95866v12.20669ZM1150.17211,510.66739c0-4.82126-.62953-8.41417-1.88858-10.80945-1.25906-2.36457-3.25512-3.5622-5.98819-3.5622-2.67165,0-4.62165,1.10551-5.83465,3.31654-1.21299,2.21102-1.85787,5.55827-1.95,10.04173v17.13543c0,5.00551.62953,8.6752,1.88858,10.9937,1.25906,2.3185,3.25512,3.47008,5.98819,3.47008,2.64094,0,4.59094-1.13622,5.85-3.37795,1.25906-2.27244,1.90394-5.80394,1.93465-10.6252v-16.58268ZM1210.41969,552.30833h-15.56929v-49.56378l-15.29291,4.46811v-11.79213l29.43425-10.17992h1.42795v67.06772ZM1271.03577,524.90085c0,9.05906-2.04213,16.04528-6.11102,20.95866-4.0689,4.91339-9.79606,7.37008-17.19685,7.37008-7.4622,0-13.23543-2.47205-17.31969-7.41614-4.08425-4.94409-6.12638-11.91496-6.12638-20.9126v-12.25276c0-9.05906,2.02677-16.04528,6.09567-20.95866,4.0689-4.91339,9.82677-7.37008,17.25827-7.37008s13.18937,2.47205,17.27362,7.41614c4.08425,4.94409,6.12638,11.93031,6.12638,20.95866v12.20669ZM1255.51254,510.66739c0-4.82126-.62953-8.41417-1.88858-10.80945-1.25906-2.36457-3.25512-3.5622-5.98819-3.5622-2.67165,0-4.62165,1.10551-5.83465,3.31654-1.21299,2.21102-1.85787,5.55827-1.95,10.04173v17.13543c0,5.00551.62953,8.6752,1.88858,10.9937,1.25906,2.3185,3.25512,3.47008,5.98819,3.47008,2.64094,0,4.59094-1.13622,5.85-3.37795,1.25906-2.27244,1.90394-5.80394,1.93465-10.6252v-16.58268ZM1331.65185,524.90085c0,9.05906-2.04213,16.04528-6.11102,20.95866-4.0689,4.91339-9.79606,7.37008-17.19685,7.37008-7.4622,0-13.23543-2.47205-17.31969-7.41614-4.08425-4.94409-6.12638-11.91496-6.12638-20.9126v-12.25276c0-9.05906,2.02677-16.04528,6.09567-20.95866,4.0689-4.91339,9.82677-7.37008,17.25827-7.37008s13.18937,2.47205,17.27362,7.41614c4.08425,4.94409,6.12638,11.93031,6.12638,20.95866v12.20669ZM1316.12862,510.66739c0-4.82126-.62953-8.41417-1.88858-10.80945-1.25906-2.36457-3.25512-3.5622-5.98819-3.5622-2.67165,0-4.62165,1.10551-5.83465,3.31654-1.21299,2.21102-1.85787,5.55827-1.95,10.04173v17.13543c0,5.00551.62953,8.6752,1.88858,10.9937s3.25512,3.47008,5.98819,3.47008c2.64094,0,4.59094-1.13622,5.85-3.37795,1.25906-2.27244,1.90394-5.80394,1.93465-10.6252v-16.58268ZM1392.26794,524.90085c0,9.05906-2.04213,16.04528-6.11102,20.95866-4.0689,4.91339-9.79606,7.37008-17.19685,7.37008-7.4622,0-13.23543-2.47205-17.31969-7.41614-4.08425-4.94409-6.12638-11.91496-6.12638-20.9126v-12.25276c0-9.05906,2.02677-16.04528,6.09567-20.95866,4.0689-4.91339,9.82677-7.37008,17.25827-7.37008s13.18937,2.47205,17.27362,7.41614c4.08425,4.94409,6.12638,11.93031,6.12638,20.95866v12.20669ZM1376.74471,510.66739c0-4.82126-.62953-8.41417-1.88858-10.80945-1.25906-2.36457-3.25512-3.5622-5.98819-3.5622-2.67165,0-4.62165,1.10551-5.83465,3.31654-1.21299,2.21102-1.85787,5.55827-1.95,10.04173v17.13543c0,5.00551.62953,8.6752,1.88858,10.9937,1.25906,2.3185,3.25512,3.47008,5.98819,3.47008,2.64094,0,4.59094-1.13622,5.85-3.37795,1.25906-2.27244,1.90394-5.80394,1.93465-10.6252v-16.58268ZM1452.88402,524.90085c0,9.05906-2.04213,16.04528-6.11102,20.95866-4.0689,4.91339-9.79606,7.37008-17.19685,7.37008-7.4622,0-13.23543-2.47205-17.31969-7.41614-4.08425-4.94409-6.12638-11.91496-6.12638-20.9126v-12.25276c0-9.05906,2.02677-16.04528,6.09567-20.95866,4.0689-4.91339,9.82677-7.37008,17.25827-7.37008s13.18937,2.47205,17.27362,7.41614c4.08425,4.94409,6.12638,11.93031,6.12638,20.95866v12.20669ZM1437.36079,510.66739c0-4.82126-.62953-8.41417-1.88858-10.80945-1.25906-2.36457-3.25512-3.5622-5.98819-3.5622-2.67165,0-4.62165,1.10551-5.83465,3.31654-1.21299,2.21102-1.85787,5.55827-1.95,10.04173v17.13543c0,5.00551.62953,8.6752,1.88858,10.9937,1.25906,2.3185,3.25512,3.47008,5.98819,3.47008,2.64094,0,4.59094-1.13622,5.85-3.37795,1.25906-2.27244,1.90394-5.80394,1.93465-10.6252v-16.58268ZM1513.5001,338.78513c0,9.05906-2.04213,16.04528-6.11102,20.95866s-9.79606,7.37008-17.19685,7.37008c-7.4622,0-13.23543-2.47205-17.31969-7.41614-4.08425-4.94409-6.12638-11.91496-6.12638-20.9126v-12.25276c0-9.05906,2.02677-16.04528,6.09567-20.95866,4.0689-4.91339,9.82677-7.37008,17.25827-7.37008s13.18937,2.47205,17.27362,7.41614c4.08425,4.94409,6.12638,11.93031,6.12638,20.95866v12.20669ZM1497.97687,324.55166c0-4.82126-.62953-8.41417-1.88858-10.80945-1.25906-2.36457-3.25512-3.5622-5.98819-3.5622-2.67165,0-4.62165,1.10551-5.83465,3.31654-1.21299,2.21102-1.85787,5.55827-1.95,10.04173v17.13543c0,5.00551.62953,8.6752,1.88858,10.9937s3.25512,3.47008,5.98819,3.47008c2.64094,0,4.59094-1.13622,5.85-3.37795,1.25906-2.27244,1.90394-5.80394,1.93465-10.6252v-16.58268ZM1574.11618,338.78513c0,9.05906-2.04213,16.04528-6.11102,20.95866-4.0689,4.91339-9.79606,7.37008-17.19685,7.37008-7.4622,0-13.23543-2.47205-17.31969-7.41614-4.08425-4.94409-6.12638-11.91496-6.12638-20.9126v-12.25276c0-9.05906,2.02677-16.04528,6.09567-20.95866,4.0689-4.91339,9.82677-7.37008,17.25827-7.37008s13.18937,2.47205,17.27362,7.41614c4.08425,4.94409,6.12638,11.93031,6.12638,20.95866v12.20669ZM1558.59295,324.55166c0-4.82126-.62953-8.41417-1.88858-10.80945-1.25906-2.36457-3.25512-3.5622-5.98819-3.5622-2.67165,0-4.62165,1.10551-5.83465,3.31654-1.21299,2.21102-1.85787,5.55827-1.95,10.04173v17.13543c0,5.00551.62953,8.6752,1.88858,10.9937,1.25906,2.3185,3.25512,3.47008,5.98819,3.47008,2.64094,0,4.59094-1.13622,5.85-3.37795,1.25906-2.27244,1.90394-5.80394,1.93465-10.6252v-16.58268ZM1634.73227,338.78513c0,9.05906-2.04213,16.04528-6.11102,20.95866-4.0689,4.91339-9.79606,7.37008-17.19685,7.37008-7.4622,0-13.23543-2.47205-17.31969-7.41614-4.08425-4.94409-6.12638-11.91496-6.12638-20.9126v-12.25276c0-9.05906,2.02677-16.04528,6.09567-20.95866s9.82677-7.37008,17.25827-7.37008,13.18937,2.47205,17.27362,7.41614c4.08425,4.94409,6.12638,11.93031,6.12638,20.95866v12.20669ZM1619.20904,324.55166c0-4.82126-.62953-8.41417-1.88858-10.80945-1.25906-2.36457-3.25512-3.5622-5.98819-3.5622-2.67165,0-4.62165,1.10551-5.83465,3.31654-1.21299,2.21102-1.85787,5.55827-1.95,10.04173v17.13543c0,5.00551.62953,8.6752,1.88858,10.9937,1.25906,2.3185,3.25512,3.47008,5.98819,3.47008,2.64094,0,4.59094-1.13622,5.85-3.37795,1.25906-2.27244,1.90394-5.80394,1.93465-10.6252v-16.58268ZM1679.45662,366.19261h-15.56929v-49.56378l-15.29291,4.46811v-11.79213l29.43425-10.17992h1.42795v67.06772ZM1740.0727,338.78513c0,9.05906-2.04213,16.04528-6.11102,20.95866-4.0689,4.91339-9.79606,7.37008-17.19685,7.37008-7.4622,0-13.23543-2.47205-17.31969-7.41614-4.08425-4.94409-6.12638-11.91496-6.12638-20.9126v-12.25276c0-9.05906,2.02677-16.04528,6.09567-20.95866s9.82677-7.37008,17.25827-7.37008,13.18937,2.47205,17.27362,7.41614c4.08425,4.94409,6.12638,11.93031,6.12638,20.95866v12.20669ZM1724.54947,324.55166c0-4.82126-.62953-8.41417-1.88858-10.80945-1.25906-2.36457-3.25512-3.5622-5.98819-3.5622-2.67165,0-4.62165,1.10551-5.83465,3.31654-1.21299,2.21102-1.85787,5.55827-1.95,10.04173v17.13543c0,5.00551.62953,8.6752,1.88858,10.9937,1.25906,2.3185,3.25512,3.47008,5.98819,3.47008,2.64094,0,4.59094-1.13622,5.85-3.37795,1.25906-2.27244,1.90394-5.80394,1.93465-10.6252v-16.58268ZM1800.68878,338.78513c0,9.05906-2.04213,16.04528-6.11102,20.95866-4.0689,4.91339-9.79606,7.37008-17.19685,7.37008-7.4622,0-13.23543-2.47205-17.31969-7.41614-4.08425-4.94409-6.12638-11.91496-6.12638-20.9126v-12.25276c0-9.05906,2.02677-16.04528,6.09567-20.95866,4.0689-4.91339,9.82677-7.37008,17.25827-7.37008s13.18937,2.47205,17.27362,7.41614c4.08425,4.94409,6.12638,11.93031,6.12638,20.95866v12.20669ZM1785.16555,324.55166c0-4.82126-.62953-8.41417-1.88858-10.80945-1.25906-2.36457-3.25512-3.5622-5.98819-3.5622-2.67165,0-4.62165,1.10551-5.83465,3.31654-1.21299,2.21102-1.85787,5.55827-1.95,10.04173v17.13543c0,5.00551.62953,8.6752,1.88858,10.9937,1.25906,2.3185,3.25512,3.47008,5.98819,3.47008,2.64094,0,4.59094-1.13622,5.85-3.37795,1.25906-2.27244,1.90394-5.80394,1.93465-10.6252v-16.58268ZM1845.41313,366.19261h-15.56929v-49.56378l-15.29291,4.46811v-11.79213l29.43425-10.17992h1.42795v67.06772ZM1890.13748,366.19261h-15.56929v-49.56378l-15.29291,4.46811v-11.79213l29.43425-10.17992h1.42795v67.06772ZM1950.75356,338.78513c0,9.05906-2.04213,16.04528-6.11102,20.95866-4.0689,4.91339-9.79606,7.37008-17.19685,7.37008-7.4622,0-13.23543-2.47205-17.31969-7.41614-4.08425-4.94409-6.12638-11.91496-6.12638-20.9126v-12.25276c0-9.05906,2.02677-16.04528,6.09567-20.95866,4.0689-4.91339,9.82677-7.37008,17.25827-7.37008s13.18937,2.47205,17.27362,7.41614c4.08425,4.94409,6.12638,11.93031,6.12638,20.95866v12.20669ZM1935.23034,324.55166c0-4.82126-.62953-8.41417-1.88858-10.80945-1.25906-2.36457-3.25512-3.5622-5.98819-3.5622-2.67165,0-4.62165,1.10551-5.83465,3.31654-1.21299,2.21102-1.85787,5.55827-1.95,10.04173v17.13543c0,5.00551.62953,8.6752,1.88858,10.9937s3.25512,3.47008,5.98819,3.47008c2.64094,0,4.59094-1.13622,5.85-3.37795,1.25906-2.27244,1.90394-5.80394,1.93465-10.6252v-16.58268ZM2011.36965,338.78513c0,9.05906-2.04213,16.04528-6.11102,20.95866-4.0689,4.91339-9.79606,7.37008-17.19685,7.37008-7.4622,0-13.23543-2.47205-17.31969-7.41614-4.08425-4.94409-6.12638-11.91496-6.12638-20.9126v-12.25276c0-9.05906,2.02677-16.04528,6.09567-20.95866,4.0689-4.91339,9.82677-7.37008,17.25827-7.37008s13.18937,2.47205,17.27362,7.41614c4.08425,4.94409,6.12638,11.93031,6.12638,20.95866v12.20669ZM1995.84642,324.55166c0-4.82126-.62953-8.41417-1.88858-10.80945-1.25906-2.36457-3.25512-3.5622-5.98819-3.5622-2.67165,0-4.62165,1.10551-5.83465,3.31654-1.21299,2.21102-1.85787,5.55827-1.95,10.04173v17.13543c0,5.00551.62953,8.6752,1.88858,10.9937,1.25906,2.3185,3.25512,3.47008,5.98819,3.47008,2.64094,0,4.59094-1.13622,5.85-3.37795,1.25906-2.27244,1.90394-5.80394,1.93465-10.6252v-16.58268ZM1496.32103,460.52962h-15.56929v-49.56378l-15.29291,4.46811v-11.79213l29.43425-10.17992h1.42795v67.06772ZM1546.90023,460.52962h-15.56929v-49.56378l-15.29291,4.46811v-11.79213l29.43425-10.17992h1.42795v67.06772ZM1597.47943,460.52962h-15.56929v-49.56378l-15.29291,4.46811v-11.79213l29.43425-10.17992h1.42795v67.06772ZM1648.05863,460.52962h-15.56929v-49.56378l-15.29291,4.46811v-11.79213l29.43425-10.17992h1.42795v67.06772ZM1714.52956,433.12213c0,9.05906-2.04213,16.04528-6.11102,20.95866-4.0689,4.91339-9.79606,7.37008-17.19685,7.37008-7.4622,0-13.23543-2.47205-17.31969-7.41614-4.08425-4.94409-6.12638-11.91496-6.12638-20.9126v-12.25276c0-9.05906,2.02677-16.04528,6.09567-20.95866,4.0689-4.91339,9.82677-7.37008,17.25827-7.37008s13.18937,2.47205,17.27362,7.41614c4.08425,4.94409,6.12638,11.93031,6.12638,20.95866v12.20669ZM1699.00633,418.88867c0-4.82126-.62953-8.41417-1.88858-10.80945-1.25906-2.36457-3.25512-3.5622-5.98819-3.5622-2.67165,0-4.62165,1.10551-5.83465,3.31654-1.21299,2.21102-1.85787,5.55827-1.95,10.04173v17.13543c0,5.00551.62953,8.6752,1.88858,10.9937,1.25906,2.3185,3.25512,3.47008,5.98819,3.47008,2.64094,0,4.59094-1.13622,5.85-3.37795,1.25906-2.27244,1.90394-5.80394,1.93465-10.6252v-16.58268ZM1765.10876,460.52962h-15.56929v-49.56378l-15.29291,4.46811v-11.79213l29.43425-10.17992h1.42795v67.06772ZM1831.57969,433.12213c0,9.05906-2.04213,16.04528-6.11102,20.95866-4.0689,4.91339-9.79606,7.37008-17.19685,7.37008-7.4622,0-13.23543-2.47205-17.31969-7.41614-4.08425-4.94409-6.12638-11.91496-6.12638-20.9126v-12.25276c0-9.05906,2.02677-16.04528,6.09567-20.95866,4.0689-4.91339,9.82677-7.37008,17.25827-7.37008s13.18937,2.47205,17.27362,7.41614c4.08425,4.94409,6.12638,11.93031,6.12638,20.95866v12.20669ZM1816.05646,418.88867c0-4.82126-.62953-8.41417-1.88858-10.80945-1.25906-2.36457-3.25512-3.5622-5.98819-3.5622-2.67165,0-4.62165,1.10551-5.83465,3.31654-1.21299,2.21102-1.85787,5.55827-1.95,10.04173v17.13543c0,5.00551.62953,8.6752,1.88858,10.9937,1.25906,2.3185,3.25512,3.47008,5.98819,3.47008,2.64094,0,4.59094-1.13622,5.85-3.37795,1.25906-2.27244,1.90394-5.80394,1.93465-10.6252v-16.58268ZM1882.15889,460.52962h-15.56929v-49.56378l-15.29291,4.46811v-11.79213l29.43425-10.17992h1.42795v67.06772ZM1948.62982,433.12213c0,9.05906-2.04213,16.04528-6.11102,20.95866-4.0689,4.91339-9.79606,7.37008-17.19685,7.37008-7.4622,0-13.23543-2.47205-17.31969-7.41614-4.08425-4.94409-6.12638-11.91496-6.12638-20.9126v-12.25276c0-9.05906,2.02677-16.04528,6.09567-20.95866,4.0689-4.91339,9.82677-7.37008,17.25827-7.37008s13.18937,2.47205,17.27362,7.41614c4.08425,4.94409,6.12638,11.93031,6.12638,20.95866v12.20669ZM1933.10659,418.88867c0-4.82126-.62953-8.41417-1.88858-10.80945-1.25906-2.36457-3.25512-3.5622-5.98819-3.5622-2.67165,0-4.62165,1.10551-5.83465,3.31654-1.21299,2.21102-1.85787,5.55827-1.95,10.04173v17.13543c0,5.00551.62953,8.6752,1.88858,10.9937,1.25906,2.3185,3.25512,3.47008,5.98819,3.47008,2.64094,0,4.59094-1.13622,5.85-3.37795,1.25906-2.27244,1.90394-5.80394,1.93465-10.6252v-16.58268ZM1999.20902,460.52962h-15.56929v-49.56378l-15.29291,4.46811v-11.79213l29.43425-10.17992h1.42795v67.06772ZM1513.5001,527.45914c0,9.05906-2.04213,16.04528-6.11102,20.95866s-9.79606,7.37008-17.19685,7.37008c-7.4622,0-13.23543-2.47205-17.31969-7.41614-4.08425-4.94409-6.12638-11.91496-6.12638-20.9126v-12.25276c0-9.05906,2.02677-16.04528,6.09567-20.95866,4.0689-4.91339,9.82677-7.37008,17.25827-7.37008s13.18937,2.47205,17.27362,7.41614c4.08425,4.94409,6.12638,11.93031,6.12638,20.95866v12.20669ZM1497.97687,513.22568c0-4.82126-.62953-8.41417-1.88858-10.80945-1.25906-2.36457-3.25512-3.5622-5.98819-3.5622-2.67165,0-4.62165,1.10551-5.83465,3.31654-1.21299,2.21102-1.85787,5.55827-1.95,10.04173v17.13543c0,5.00551.62953,8.6752,1.88858,10.9937,1.25906,2.3185,3.25512,3.47008,5.98819,3.47008,2.64094,0,4.59094-1.13622,5.85-3.37795,1.25906-2.27244,1.90394-5.80394,1.93465-10.6252v-16.58268ZM1558.22445,554.86662h-15.56929v-49.56378l-15.29291,4.46811v-11.79213l29.43425-10.17992h1.42795v67.06772ZM1618.84053,527.45914c0,9.05906-2.04213,16.04528-6.11102,20.95866-4.0689,4.91339-9.79606,7.37008-17.19685,7.37008-7.4622,0-13.23543-2.47205-17.31969-7.41614-4.08425-4.94409-6.12638-11.91496-6.12638-20.9126v-12.25276c0-9.05906,2.02677-16.04528,6.09567-20.95866,4.0689-4.91339,9.82677-7.37008,17.25827-7.37008s13.18937,2.47205,17.27362,7.41614c4.08425,4.94409,6.12638,11.93031,6.12638,20.95866v12.20669ZM1603.3173,513.22568c0-4.82126-.62953-8.41417-1.88858-10.80945-1.25906-2.36457-3.25512-3.5622-5.98819-3.5622-2.67165,0-4.62165,1.10551-5.83465,3.31654-1.21299,2.21102-1.85787,5.55827-1.95,10.04173v17.13543c0,5.00551.62953,8.6752,1.88858,10.9937,1.25906,2.3185,3.25512,3.47008,5.98819,3.47008,2.64094,0,4.59094-1.13622,5.85-3.37795,1.25906-2.27244,1.90394-5.80394,1.93465-10.6252v-16.58268ZM1663.56488,554.86662h-15.56929v-49.56378l-15.29291,4.46811v-11.79213l29.43425-10.17992h1.42795v67.06772ZM1724.18097,527.45914c0,9.05906-2.04213,16.04528-6.11102,20.95866-4.0689,4.91339-9.79606,7.37008-17.19685,7.37008-7.4622,0-13.23543-2.47205-17.31969-7.41614-4.08425-4.94409-6.12638-11.91496-6.12638-20.9126v-12.25276c0-9.05906,2.02677-16.04528,6.09567-20.95866,4.0689-4.91339,9.82677-7.37008,17.25827-7.37008s13.18937,2.47205,17.27362,7.41614c4.08425,4.94409,6.12638,11.93031,6.12638,20.95866v12.20669ZM1708.65774,513.22568c0-4.82126-.62953-8.41417-1.88858-10.80945-1.25906-2.36457-3.25512-3.5622-5.98819-3.5622-2.67165,0-4.62165,1.10551-5.83465,3.31654-1.21299,2.21102-1.85787,5.55827-1.95,10.04173v17.13543c0,5.00551.62953,8.6752,1.88858,10.9937,1.25906,2.3185,3.25512,3.47008,5.98819,3.47008,2.64094,0,4.59094-1.13622,5.85-3.37795,1.25906-2.27244,1.90394-5.80394,1.93465-10.6252v-16.58268ZM1768.90532,554.86662h-15.56929v-49.56378l-15.29291,4.46811v-11.79213l29.43425-10.17992h1.42795v67.06772ZM1829.5214,527.45914c0,9.05906-2.04213,16.04528-6.11102,20.95866-4.0689,4.91339-9.79606,7.37008-17.19685,7.37008-7.4622,0-13.23543-2.47205-17.31969-7.41614-4.08425-4.94409-6.12638-11.91496-6.12638-20.9126v-12.25276c0-9.05906,2.02677-16.04528,6.09567-20.95866,4.0689-4.91339,9.82677-7.37008,17.25827-7.37008s13.18937,2.47205,17.27362,7.41614c4.08425,4.94409,6.12638,11.93031,6.12638,20.95866v12.20669ZM1813.99817,513.22568c0-4.82126-.62953-8.41417-1.88858-10.80945-1.25906-2.36457-3.25512-3.5622-5.98819-3.5622-2.67165,0-4.62165,1.10551-5.83465,3.31654-1.21299,2.21102-1.85787,5.55827-1.95,10.04173v17.13543c0,5.00551.62953,8.6752,1.88858,10.9937,1.25906,2.3185,3.25512,3.47008,5.98819,3.47008,2.64094,0,4.59094-1.13622,5.85-3.37795,1.25906-2.27244,1.90394-5.80394,1.93465-10.6252v-16.58268ZM1890.13748,527.45914c0,9.05906-2.04213,16.04528-6.11102,20.95866-4.0689,4.91339-9.79606,7.37008-17.19685,7.37008-7.4622,0-13.23543-2.47205-17.31969-7.41614-4.08425-4.94409-6.12638-11.91496-6.12638-20.9126v-12.25276c0-9.05906,2.02677-16.04528,6.09567-20.95866,4.0689-4.91339,9.82677-7.37008,17.25827-7.37008s13.18937,2.47205,17.27362,7.41614c4.08425,4.94409,6.12638,11.93031,6.12638,20.95866v12.20669ZM1874.61425,513.22568c0-4.82126-.62953-8.41417-1.88858-10.80945-1.25906-2.36457-3.25512-3.5622-5.98819-3.5622-2.67165,0-4.62165,1.10551-5.83465,3.31654-1.21299,2.21102-1.85787,5.55827-1.95,10.04173v17.13543c0,5.00551.62953,8.6752,1.88858,10.9937,1.25906,2.3185,3.25512,3.47008,5.98819,3.47008,2.64094,0,4.59094-1.13622,5.85-3.37795,1.25906-2.27244,1.90394-5.80394,1.93465-10.6252v-16.58268ZM1950.75356,527.45914c0,9.05906-2.04213,16.04528-6.11102,20.95866-4.0689,4.91339-9.79606,7.37008-17.19685,7.37008-7.4622,0-13.23543-2.47205-17.31969-7.41614-4.08425-4.94409-6.12638-11.91496-6.12638-20.9126v-12.25276c0-9.05906,2.02677-16.04528,6.09567-20.95866,4.0689-4.91339,9.82677-7.37008,17.25827-7.37008s13.18937,2.47205,17.27362,7.41614c4.08425,4.94409,6.12638,11.93031,6.12638,20.95866v12.20669ZM1935.23034,513.22568c0-4.82126-.62953-8.41417-1.88858-10.80945-1.25906-2.36457-3.25512-3.5622-5.98819-3.5622-2.67165,0-4.62165,1.10551-5.83465,3.31654-1.21299,2.21102-1.85787,5.55827-1.95,10.04173v17.13543c0,5.00551.62953,8.6752,1.88858,10.9937,1.25906,2.3185,3.25512,3.47008,5.98819,3.47008,2.64094,0,4.59094-1.13622,5.85-3.37795,1.25906-2.27244,1.90394-5.80394,1.93465-10.6252v-16.58268ZM2011.36965,527.45914c0,9.05906-2.04213,16.04528-6.11102,20.95866-4.0689,4.91339-9.79606,7.37008-17.19685,7.37008-7.4622,0-13.23543-2.47205-17.31969-7.41614-4.08425-4.94409-6.12638-11.91496-6.12638-20.9126v-12.25276c0-9.05906,2.02677-16.04528,6.09567-20.95866,4.0689-4.91339,9.82677-7.37008,17.25827-7.37008s13.18937,2.47205,17.27362,7.41614c4.08425,4.94409,6.12638,11.93031,6.12638,20.95866v12.20669ZM1995.84642,513.22568c0-4.82126-.62953-8.41417-1.88858-10.80945-1.25906-2.36457-3.25512-3.5622-5.98819-3.5622-2.67165,0-4.62165,1.10551-5.83465,3.31654-1.21299,2.21102-1.85787,5.55827-1.95,10.04173v17.13543c0,5.00551.62953,8.6752,1.88858,10.9937,1.25906,2.3185,3.25512,3.47008,5.98819,3.47008,2.64094,0,4.59094-1.13622,5.85-3.37795,1.25906-2.27244,1.90394-5.80394,1.93465-10.6252v-16.58268ZM942.85384,640.15118h-15.56929v-49.56378l-15.29291,4.46811v-11.79213l29.43425-10.17992h1.42795v67.06772ZM993.43304,640.15118h-15.56929v-49.56378l-15.29291,4.46811v-11.79213l29.43425-10.17992h1.42795v67.06772ZM1044.01224,640.15118h-15.56929v-49.56378l-15.29291,4.46811v-11.79213l29.43425-10.17992h1.42795v67.06772ZM1094.59144,640.15118h-15.56929v-49.56378l-15.29291,4.46811v-11.79213l29.43425-10.17992h1.42795v67.06772ZM1161.06237,612.7437c0,9.05906-2.04213,16.04528-6.11102,20.95866-4.0689,4.91339-9.79606,7.37008-17.19685,7.37008-7.4622,0-13.23543-2.47205-17.31969-7.41614-4.08425-4.94409-6.12638-11.91496-6.12638-20.9126v-12.25276c0-9.05906,2.02677-16.04528,6.09567-20.95866,4.0689-4.91339,9.82677-7.37008,17.25827-7.37008s13.18937,2.47205,17.27362,7.41614c4.08425,4.94409,6.12638,11.93031,6.12638,20.95866v12.20669ZM1145.53914,598.51024c0-4.82126-.62953-8.41417-1.88858-10.80945-1.25906-2.36457-3.25512-3.5622-5.98819-3.5622-2.67165,0-4.62165,1.10551-5.83465,3.31654s-1.85787,5.55827-1.95,10.04173v17.13543c0,5.00551.62953,8.6752,1.88858,10.9937,1.25906,2.3185,3.25512,3.47008,5.98819,3.47008,2.64094,0,4.59094-1.13622,5.85-3.37795,1.25906-2.27244,1.90394-5.80394,1.93465-10.6252v-16.58268ZM1211.64157,640.15118h-15.56929v-49.56378l-15.29291,4.46811v-11.79213l29.43425-10.17992h1.42795v67.06772ZM1278.1125,612.7437c0,9.05906-2.04213,16.04528-6.11102,20.95866-4.0689,4.91339-9.79606,7.37008-17.19685,7.37008-7.4622,0-13.23543-2.47205-17.31969-7.41614-4.08425-4.94409-6.12638-11.91496-6.12638-20.9126v-12.25276c0-9.05906,2.02677-16.04528,6.09567-20.95866,4.0689-4.91339,9.82677-7.37008,17.25827-7.37008s13.18937,2.47205,17.27362,7.41614c4.08425,4.94409,6.12638,11.93031,6.12638,20.95866v12.20669ZM1262.58927,598.51024c0-4.82126-.62953-8.41417-1.88858-10.80945-1.25906-2.36457-3.25512-3.5622-5.98819-3.5622-2.67165,0-4.62165,1.10551-5.83465,3.31654s-1.85787,5.55827-1.95,10.04173v17.13543c0,5.00551.62953,8.6752,1.88858,10.9937,1.25906,2.3185,3.25512,3.47008,5.98819,3.47008,2.64094,0,4.59094-1.13622,5.85-3.37795,1.25906-2.27244,1.90394-5.80394,1.93465-10.6252v-16.58268ZM1328.6917,640.15118h-15.56929v-49.56378l-15.29291,4.46811v-11.79213l29.43425-10.17992h1.42795v67.06772ZM1395.16263,612.7437c0,9.05906-2.04213,16.04528-6.11102,20.95866-4.0689,4.91339-9.79606,7.37008-17.19685,7.37008-7.4622,0-13.23543-2.47205-17.31969-7.41614s-6.12638-11.91496-6.12638-20.9126v-12.25276c0-9.05906,2.02677-16.04528,6.09567-20.95866,4.0689-4.91339,9.82677-7.37008,17.25827-7.37008s13.18937,2.47205,17.27362,7.41614c4.08425,4.94409,6.12638,11.93031,6.12638,20.95866v12.20669ZM1379.6394,598.51024c0-4.82126-.62953-8.41417-1.88858-10.80945-1.25906-2.36457-3.25512-3.5622-5.98819-3.5622-2.67165,0-4.62165,1.10551-5.83465,3.31654s-1.85787,5.55827-1.95,10.04173v17.13543c0,5.00551.62953,8.6752,1.88858,10.9937,1.25906,2.3185,3.25512,3.47008,5.98819,3.47008,2.64094,0,4.59094-1.13622,5.85-3.37795,1.25906-2.27244,1.90394-5.80394,1.93465-10.6252v-16.58268ZM1445.74183,640.15118h-15.56929v-49.56378l-15.29291,4.46811v-11.79213l29.43425-10.17992h1.42795v67.06772ZM955.01447,707.08071c0,9.05906-2.04213,16.04528-6.11102,20.95866-4.0689,4.91339-9.79606,7.37008-17.19685,7.37008-7.4622,0-13.23543-2.47205-17.31969-7.41614-4.08425-4.94409-6.12638-11.91496-6.12638-20.9126v-12.25276c0-9.05906,2.02677-16.04528,6.09567-20.95866,4.0689-4.91339,9.82677-7.37008,17.25827-7.37008s13.18937,2.47205,17.27362,7.41614c4.08425,4.94409,6.12638,11.93031,6.12638,20.95866v12.20669ZM939.49124,692.84724c0-4.82126-.62953-8.41417-1.88858-10.80945-1.25906-2.36457-3.25512-3.5622-5.98819-3.5622-2.67165,0-4.62165,1.10551-5.83465,3.31654-1.21299,2.21102-1.85787,5.55827-1.95,10.04173v17.13543c0,5.00551.62953,8.6752,1.88858,10.9937,1.25906,2.3185,3.25512,3.47008,5.98819,3.47008,2.64094,0,4.59094-1.13622,5.85-3.37795,1.25906-2.27244,1.90394-5.80394,1.93465-10.6252v-16.58268ZM999.73882,734.48819h-15.56929v-49.56378l-15.29291,4.46811v-11.79213l29.43425-10.17992h1.42795v67.06772ZM1060.3549,707.08071c0,9.05906-2.04213,16.04528-6.11102,20.95866-4.0689,4.91339-9.79606,7.37008-17.19685,7.37008-7.4622,0-13.23543-2.47205-17.31969-7.41614-4.08425-4.94409-6.12638-11.91496-6.12638-20.9126v-12.25276c0-9.05906,2.02677-16.04528,6.09567-20.95866,4.0689-4.91339,9.82677-7.37008,17.25827-7.37008s13.18937,2.47205,17.27362,7.41614c4.08425,4.94409,6.12638,11.93031,6.12638,20.95866v12.20669ZM1044.83168,692.84724c0-4.82126-.62953-8.41417-1.88858-10.80945-1.25906-2.36457-3.25512-3.5622-5.98819-3.5622-2.67165,0-4.62165,1.10551-5.83465,3.31654-1.21299,2.21102-1.85787,5.55827-1.95,10.04173v17.13543c0,5.00551.62953,8.6752,1.88858,10.9937,1.25906,2.3185,3.25512,3.47008,5.98819,3.47008,2.64094,0,4.59094-1.13622,5.85-3.37795,1.25906-2.27244,1.90394-5.80394,1.93465-10.6252v-16.58268ZM1105.07925,734.48819h-15.56929v-49.56378l-15.29291,4.46811v-11.79213l29.43425-10.17992h1.42795v67.06772ZM1165.69534,707.08071c0,9.05906-2.04213,16.04528-6.11102,20.95866-4.0689,4.91339-9.79606,7.37008-17.19685,7.37008-7.4622,0-13.23543-2.47205-17.31969-7.41614-4.08425-4.94409-6.12638-11.91496-6.12638-20.9126v-12.25276c0-9.05906,2.02677-16.04528,6.09567-20.95866s9.82677-7.37008,17.25827-7.37008,13.18937,2.47205,17.27362,7.41614c4.08425,4.94409,6.12638,11.93031,6.12638,20.95866v12.20669ZM1150.17211,692.84724c0-4.82126-.62953-8.41417-1.88858-10.80945-1.25906-2.36457-3.25512-3.5622-5.98819-3.5622-2.67165,0-4.62165,1.10551-5.83465,3.31654-1.21299,2.21102-1.85787,5.55827-1.95,10.04173v17.13543c0,5.00551.62953,8.6752,1.88858,10.9937,1.25906,2.3185,3.25512,3.47008,5.98819,3.47008,2.64094,0,4.59094-1.13622,5.85-3.37795,1.25906-2.27244,1.90394-5.80394,1.93465-10.6252v-16.58268ZM1210.41969,734.48819h-15.56929v-49.56378l-15.29291,4.46811v-11.79213l29.43425-10.17992h1.42795v67.06772ZM1271.03577,707.08071c0,9.05906-2.04213,16.04528-6.11102,20.95866-4.0689,4.91339-9.79606,7.37008-17.19685,7.37008-7.4622,0-13.23543-2.47205-17.31969-7.41614-4.08425-4.94409-6.12638-11.91496-6.12638-20.9126v-12.25276c0-9.05906,2.02677-16.04528,6.09567-20.95866s9.82677-7.37008,17.25827-7.37008,13.18937,2.47205,17.27362,7.41614c4.08425,4.94409,6.12638,11.93031,6.12638,20.95866v12.20669ZM1255.51254,692.84724c0-4.82126-.62953-8.41417-1.88858-10.80945-1.25906-2.36457-3.25512-3.5622-5.98819-3.5622-2.67165,0-4.62165,1.10551-5.83465,3.31654-1.21299,2.21102-1.85787,5.55827-1.95,10.04173v17.13543c0,5.00551.62953,8.6752,1.88858,10.9937,1.25906,2.3185,3.25512,3.47008,5.98819,3.47008,2.64094,0,4.59094-1.13622,5.85-3.37795,1.25906-2.27244,1.90394-5.80394,1.93465-10.6252v-16.58268ZM1331.65185,707.08071c0,9.05906-2.04213,16.04528-6.11102,20.95866-4.0689,4.91339-9.79606,7.37008-17.19685,7.37008-7.4622,0-13.23543-2.47205-17.31969-7.41614-4.08425-4.94409-6.12638-11.91496-6.12638-20.9126v-12.25276c0-9.05906,2.02677-16.04528,6.09567-20.95866,4.0689-4.91339,9.82677-7.37008,17.25827-7.37008s13.18937,2.47205,17.27362,7.41614c4.08425,4.94409,6.12638,11.93031,6.12638,20.95866v12.20669ZM1316.12862,692.84724c0-4.82126-.62953-8.41417-1.88858-10.80945-1.25906-2.36457-3.25512-3.5622-5.98819-3.5622-2.67165,0-4.62165,1.10551-5.83465,3.31654-1.21299,2.21102-1.85787,5.55827-1.95,10.04173v17.13543c0,5.00551.62953,8.6752,1.88858,10.9937,1.25906,2.3185,3.25512,3.47008,5.98819,3.47008,2.64094,0,4.59094-1.13622,5.85-3.37795,1.25906-2.27244,1.90394-5.80394,1.93465-10.6252v-16.58268ZM1392.26794,707.08071c0,9.05906-2.04213,16.04528-6.11102,20.95866-4.0689,4.91339-9.79606,7.37008-17.19685,7.37008-7.4622,0-13.23543-2.47205-17.31969-7.41614-4.08425-4.94409-6.12638-11.91496-6.12638-20.9126v-12.25276c0-9.05906,2.02677-16.04528,6.09567-20.95866,4.0689-4.91339,9.82677-7.37008,17.25827-7.37008s13.18937,2.47205,17.27362,7.41614c4.08425,4.94409,6.12638,11.93031,6.12638,20.95866v12.20669ZM1376.74471,692.84724c0-4.82126-.62953-8.41417-1.88858-10.80945-1.25906-2.36457-3.25512-3.5622-5.98819-3.5622-2.67165,0-4.62165,1.10551-5.83465,3.31654-1.21299,2.21102-1.85787,5.55827-1.95,10.04173v17.13543c0,5.00551.62953,8.6752,1.88858,10.9937,1.25906,2.3185,3.25512,3.47008,5.98819,3.47008,2.64094,0,4.59094-1.13622,5.85-3.37795,1.25906-2.27244,1.90394-5.80394,1.93465-10.6252v-16.58268ZM1452.88402,707.08071c0,9.05906-2.04213,16.04528-6.11102,20.95866-4.0689,4.91339-9.79606,7.37008-17.19685,7.37008-7.4622,0-13.23543-2.47205-17.31969-7.41614-4.08425-4.94409-6.12638-11.91496-6.12638-20.9126v-12.25276c0-9.05906,2.02677-16.04528,6.09567-20.95866,4.0689-4.91339,9.82677-7.37008,17.25827-7.37008s13.18937,2.47205,17.27362,7.41614c4.08425,4.94409,6.12638,11.93031,6.12638,20.95866v12.20669ZM1437.36079,692.84724c0-4.82126-.62953-8.41417-1.88858-10.80945-1.25906-2.36457-3.25512-3.5622-5.98819-3.5622-2.67165,0-4.62165,1.10551-5.83465,3.31654s-1.85787,5.55827-1.95,10.04173v17.13543c0,5.00551.62953,8.6752,1.88858,10.9937s3.25512,3.47008,5.98819,3.47008c2.64094,0,4.59094-1.13622,5.85-3.37795,1.25906-2.27244,1.90394-5.80394,1.93465-10.6252v-16.58268ZM1496.32103,642.70947h-15.56929v-49.56378l-15.29291,4.46811v-11.79213l29.43425-10.17992h1.42795v67.06772ZM1546.90023,642.70947h-15.56929v-49.56378l-15.29291,4.46811v-11.79213l29.43425-10.17992h1.42795v67.06772ZM1597.47943,642.70947h-15.56929v-49.56378l-15.29291,4.46811v-11.79213l29.43425-10.17992h1.42795v67.06772ZM1648.05863,642.70947h-15.56929v-49.56378l-15.29291,4.46811v-11.79213l29.43425-10.17992h1.42795v67.06772ZM1714.52956,615.30199c0,9.05906-2.04213,16.04528-6.11102,20.95866-4.0689,4.91339-9.79606,7.37008-17.19685,7.37008-7.4622,0-13.23543-2.47205-17.31969-7.41614-4.08425-4.94409-6.12638-11.91496-6.12638-20.9126v-12.25276c0-9.05906,2.02677-16.04528,6.09567-20.95866,4.0689-4.91339,9.82677-7.37008,17.25827-7.37008s13.18937,2.47205,17.27362,7.41614,6.12638,11.93031,6.12638,20.95866v12.20669ZM1699.00633,601.06853c0-4.82126-.62953-8.41417-1.88858-10.80945-1.25906-2.36457-3.25512-3.5622-5.98819-3.5622-2.67165,0-4.62165,1.10551-5.83465,3.31654-1.21299,2.21102-1.85787,5.55827-1.95,10.04173v17.13543c0,5.00551.62953,8.6752,1.88858,10.9937,1.25906,2.3185,3.25512,3.47008,5.98819,3.47008,2.64094,0,4.59094-1.13622,5.85-3.37795,1.25906-2.27244,1.90394-5.80394,1.93465-10.6252v-16.58268ZM1765.10876,642.70947h-15.56929v-49.56378l-15.29291,4.46811v-11.79213l29.43425-10.17992h1.42795v67.06772ZM1831.57969,615.30199c0,9.05906-2.04213,16.04528-6.11102,20.95866-4.0689,4.91339-9.79606,7.37008-17.19685,7.37008-7.4622,0-13.23543-2.47205-17.31969-7.41614-4.08425-4.94409-6.12638-11.91496-6.12638-20.9126v-12.25276c0-9.05906,2.02677-16.04528,6.09567-20.95866,4.0689-4.91339,9.82677-7.37008,17.25827-7.37008s13.18937,2.47205,17.27362,7.41614c4.08425,4.94409,6.12638,11.93031,6.12638,20.95866v12.20669ZM1816.05646,601.06853c0-4.82126-.62953-8.41417-1.88858-10.80945-1.25906-2.36457-3.25512-3.5622-5.98819-3.5622-2.67165,0-4.62165,1.10551-5.83465,3.31654-1.21299,2.21102-1.85787,5.55827-1.95,10.04173v17.13543c0,5.00551.62953,8.6752,1.88858,10.9937,1.25906,2.3185,3.25512,3.47008,5.98819,3.47008,2.64094,0,4.59094-1.13622,5.85-3.37795,1.25906-2.27244,1.90394-5.80394,1.93465-10.6252v-16.58268ZM1882.15889,642.70947h-15.56929v-49.56378l-15.29291,4.46811v-11.79213l29.43425-10.17992h1.42795v67.06772ZM1948.62982,615.30199c0,9.05906-2.04213,16.04528-6.11102,20.95866-4.0689,4.91339-9.79606,7.37008-17.19685,7.37008-7.4622,0-13.23543-2.47205-17.31969-7.41614-4.08425-4.94409-6.12638-11.91496-6.12638-20.9126v-12.25276c0-9.05906,2.02677-16.04528,6.09567-20.95866,4.0689-4.91339,9.82677-7.37008,17.25827-7.37008s13.18937,2.47205,17.27362,7.41614c4.08425,4.94409,6.12638,11.93031,6.12638,20.95866v12.20669ZM1933.10659,601.06853c0-4.82126-.62953-8.41417-1.88858-10.80945-1.25906-2.36457-3.25512-3.5622-5.98819-3.5622-2.67165,0-4.62165,1.10551-5.83465,3.31654-1.21299,2.21102-1.85787,5.55827-1.95,10.04173v17.13543c0,5.00551.62953,8.6752,1.88858,10.9937,1.25906,2.3185,3.25512,3.47008,5.98819,3.47008,2.64094,0,4.59094-1.13622,5.85-3.37795,1.25906-2.27244,1.90394-5.80394,1.93465-10.6252v-16.58268ZM1999.20902,642.70947h-15.56929v-49.56378l-15.29291,4.46811v-11.79213l29.43425-10.17992h1.42795v67.06772ZM1513.5001,709.639c0,9.05906-2.04213,16.04528-6.11102,20.95866-4.0689,4.91339-9.79606,7.37008-17.19685,7.37008-7.4622,0-13.23543-2.47205-17.31969-7.41614-4.08425-4.94409-6.12638-11.91496-6.12638-20.9126v-12.25276c0-9.05906,2.02677-16.04528,6.09567-20.95866,4.0689-4.91339,9.82677-7.37008,17.25827-7.37008s13.18937,2.47205,17.27362,7.41614c4.08425,4.94409,6.12638,11.93031,6.12638,20.95866v12.20669ZM1497.97687,695.40554c0-4.82126-.62953-8.41417-1.88858-10.80945-1.25906-2.36457-3.25512-3.5622-5.98819-3.5622-2.67165,0-4.62165,1.10551-5.83465,3.31654-1.21299,2.21102-1.85787,5.55827-1.95,10.04173v17.13543c0,5.00551.62953,8.6752,1.88858,10.9937,1.25906,2.3185,3.25512,3.47008,5.98819,3.47008,2.64094,0,4.59094-1.13622,5.85-3.37795,1.25906-2.27244,1.90394-5.80394,1.93465-10.6252v-16.58268ZM1558.22445,737.04648h-15.56929v-49.56378l-15.29291,4.46811v-11.79213l29.43425-10.17992h1.42795v67.06772ZM1618.84053,709.639c0,9.05906-2.04213,16.04528-6.11102,20.95866-4.0689,4.91339-9.79606,7.37008-17.19685,7.37008-7.4622,0-13.23543-2.47205-17.31969-7.41614-4.08425-4.94409-6.12638-11.91496-6.12638-20.9126v-12.25276c0-9.05906,2.02677-16.04528,6.09567-20.95866,4.0689-4.91339,9.82677-7.37008,17.25827-7.37008s13.18937,2.47205,17.27362,7.41614c4.08425,4.94409,6.12638,11.93031,6.12638,20.95866v12.20669ZM1603.3173,695.40554c0-4.82126-.62953-8.41417-1.88858-10.80945-1.25906-2.36457-3.25512-3.5622-5.98819-3.5622-2.67165,0-4.62165,1.10551-5.83465,3.31654-1.21299,2.21102-1.85787,5.55827-1.95,10.04173v17.13543c0,5.00551.62953,8.6752,1.88858,10.9937,1.25906,2.3185,3.25512,3.47008,5.98819,3.47008,2.64094,0,4.59094-1.13622,5.85-3.37795,1.25906-2.27244,1.90394-5.80394,1.93465-10.6252v-16.58268ZM1663.56488,737.04648h-15.56929v-49.56378l-15.29291,4.46811v-11.79213l29.43425-10.17992h1.42795v67.06772ZM1724.18097,709.639c0,9.05906-2.04213,16.04528-6.11102,20.95866-4.0689,4.91339-9.79606,7.37008-17.19685,7.37008-7.4622,0-13.23543-2.47205-17.31969-7.41614-4.08425-4.94409-6.12638-11.91496-6.12638-20.9126v-12.25276c0-9.05906,2.02677-16.04528,6.09567-20.95866,4.0689-4.91339,9.82677-7.37008,17.25827-7.37008s13.18937,2.47205,17.27362,7.41614c4.08425,4.94409,6.12638,11.93031,6.12638,20.95866v12.20669ZM1708.65774,695.40554c0-4.82126-.62953-8.41417-1.88858-10.80945-1.25906-2.36457-3.25512-3.5622-5.98819-3.5622-2.67165,0-4.62165,1.10551-5.83465,3.31654-1.21299,2.21102-1.85787,5.55827-1.95,10.04173v17.13543c0,5.00551.62953,8.6752,1.88858,10.9937,1.25906,2.3185,3.25512,3.47008,5.98819,3.47008,2.64094,0,4.59094-1.13622,5.85-3.37795,1.25906-2.27244,1.90394-5.80394,1.93465-10.6252v-16.58268ZM1768.90532,737.04648h-15.56929v-49.56378l-15.29291,4.46811v-11.79213l29.43425-10.17992h1.42795v67.06772ZM1829.5214,709.639c0,9.05906-2.04213,16.04528-6.11102,20.95866-4.0689,4.91339-9.79606,7.37008-17.19685,7.37008-7.4622,0-13.23543-2.47205-17.31969-7.41614-4.08425-4.94409-6.12638-11.91496-6.12638-20.9126v-12.25276c0-9.05906,2.02677-16.04528,6.09567-20.95866,4.0689-4.91339,9.82677-7.37008,17.25827-7.37008s13.18937,2.47205,17.27362,7.41614c4.08425,4.94409,6.12638,11.93031,6.12638,20.95866v12.20669ZM1813.99817,695.40554c0-4.82126-.62953-8.41417-1.88858-10.80945-1.25906-2.36457-3.25512-3.5622-5.98819-3.5622-2.67165,0-4.62165,1.10551-5.83465,3.31654-1.21299,2.21102-1.85787,5.55827-1.95,10.04173v17.13543c0,5.00551.62953,8.6752,1.88858,10.9937,1.25906,2.3185,3.25512,3.47008,5.98819,3.47008,2.64094,0,4.59094-1.13622,5.85-3.37795,1.25906-2.27244,1.90394-5.80394,1.93465-10.6252v-16.58268ZM1890.13748,709.639c0,9.05906-2.04213,16.04528-6.11102,20.95866-4.0689,4.91339-9.79606,7.37008-17.19685,7.37008-7.4622,0-13.23543-2.47205-17.31969-7.41614-4.08425-4.94409-6.12638-11.91496-6.12638-20.9126v-12.25276c0-9.05906,2.02677-16.04528,6.09567-20.95866,4.0689-4.91339,9.82677-7.37008,17.25827-7.37008s13.18937,2.47205,17.27362,7.41614c4.08425,4.94409,6.12638,11.93031,6.12638,20.95866v12.20669ZM1874.61425,695.40554c0-4.82126-.62953-8.41417-1.88858-10.80945-1.25906-2.36457-3.25512-3.5622-5.98819-3.5622-2.67165,0-4.62165,1.10551-5.83465,3.31654-1.21299,2.21102-1.85787,5.55827-1.95,10.04173v17.13543c0,5.00551.62953,8.6752,1.88858,10.9937,1.25906,2.3185,3.25512,3.47008,5.98819,3.47008,2.64094,0,4.59094-1.13622,5.85-3.37795,1.25906-2.27244,1.90394-5.80394,1.93465-10.6252v-16.58268ZM1950.75356,709.639c0,9.05906-2.04213,16.04528-6.11102,20.95866-4.0689,4.91339-9.79606,7.37008-17.19685,7.37008-7.4622,0-13.23543-2.47205-17.31969-7.41614-4.08425-4.94409-6.12638-11.91496-6.12638-20.9126v-12.25276c0-9.05906,2.02677-16.04528,6.09567-20.95866,4.0689-4.91339,9.82677-7.37008,17.25827-7.37008s13.18937,2.47205,17.27362,7.41614c4.08425,4.94409,6.12638,11.93031,6.12638,20.95866v12.20669ZM1935.23034,695.40554c0-4.82126-.62953-8.41417-1.88858-10.80945-1.25906-2.36457-3.25512-3.5622-5.98819-3.5622-2.67165,0-4.62165,1.10551-5.83465,3.31654-1.21299,2.21102-1.85787,5.55827-1.95,10.04173v17.13543c0,5.00551.62953,8.6752,1.88858,10.9937,1.25906,2.3185,3.25512,3.47008,5.98819,3.47008,2.64094,0,4.59094-1.13622,5.85-3.37795,1.25906-2.27244,1.90394-5.80394,1.93465-10.6252v-16.58268ZM2011.36965,709.639c0,9.05906-2.04213,16.04528-6.11102,20.95866-4.0689,4.91339-9.79606,7.37008-17.19685,7.37008-7.4622,0-13.23543-2.47205-17.31969-7.41614-4.08425-4.94409-6.12638-11.91496-6.12638-20.9126v-12.25276c0-9.05906,2.02677-16.04528,6.09567-20.95866,4.0689-4.91339,9.82677-7.37008,17.25827-7.37008s13.18937,2.47205,17.27362,7.41614c4.08425,4.94409,6.12638,11.93031,6.12638,20.95866v12.20669ZM1995.84642,695.40554c0-4.82126-.62953-8.41417-1.88858-10.80945-1.25906-2.36457-3.25512-3.5622-5.98819-3.5622-2.67165,0-4.62165,1.10551-5.83465,3.31654-1.21299,2.21102-1.85787,5.55827-1.95,10.04173v17.13543c0,5.00551.62953,8.6752,1.88858,10.9937,1.25906,2.3185,3.25512,3.47008,5.98819,3.47008,2.64094,0,4.59094-1.13622,5.85-3.37795,1.25906-2.27244,1.90394-5.80394,1.93465-10.6252v-16.58268Z"/>
  <g>
    <path class="cls-7" d="M284.02895,527.09423c-3.49959-6.57397-9.52793-10.04722-17.43023-10.04722l-9.93151,8.33505,9.93151.06397c5.63322,0,7.55235,2.71689,9.03121,5.50151,1.39607,2.61152,1.87774,7.11208-.36125,10.81864l-1.65196,2.46853c-6.20519,9.23441-16.81686,20.24496-32.13229,20.24496h-104.91255c-13.11031,0-25.58466-8.95971-27.80483-19.97779-.93699-4.63602.09784-9.08013,2.90504-12.51575,3.40552-4.15436,9.11023-6.5401,15.64281-6.5401l-11.36004-6.383c-4.29876,1.63314-8.00885,4.2188-10.77771,7.60221-4.43658,5.41496-6.08478,12.34265-4.64731,19.49989,3.02169,14.98052,18.85641,26.71356,36.04205,26.71356h104.91255c14.83752,0,28.72301-8.50815,39.09761-23.95905l1.68959-2.50992c4.01136-6.42345,4.68494-13.82528,1.75732-19.3155Z"/>
    <path class="cls-7" d="M248.87496,524.73247l10.97668-9.44467-21.9496-22.27322h-14.61127l.00964-6.93333h38.38264l-.02211,2.77898,20.7318-.04704.13641-12.72366-20.93077.02634.02822,3.43656-38.357.07526-22.68997-12.79045h-30.4427l-22.06484,13.8201-.07009,12.35723h-14.48568l-11.32288,22.89788,15.0252,8.6662,111.65632.15381ZM155.76367,483.40434l16.81475-9.78287,27.04565.05033,16.06026,9.30826-.09807,9.96114-58.35055.07338h-1.49626l.02422-9.61024ZM138.30286,500.72122h96.37053l13.30974,13.50542-3.75924,2.64539h-104.00989l-7.5761-4.26113,5.66497-11.88968Z"/>
    <path class="cls-7" d="M127.78527,529.52889c-7.17981,0-13.02376,5.84394-13.02376,13.02752,0,7.17981,5.84394,13.02376,13.02376,13.02376,7.18357,0,13.02752-5.84394,13.02752-13.02376,0-7.18357-5.84394-13.02752-13.02752-13.02752Z"/>
    <path class="cls-7" d="M147.6163,544.42286c0,8.65491,7.04058,15.69549,15.69549,15.69549s15.69925-7.04058,15.69925-15.69549-7.04434-15.69925-15.69925-15.69925-15.69549,7.04434-15.69549,15.69925Z"/>
    <path class="cls-7" d="M183.13905,544.42286c0,8.65491,7.04434,15.69549,15.69925,15.69549s15.69549-7.04058,15.69549-15.69549-7.04058-15.69925-15.69549-15.69925-15.69925,7.04434-15.69925,15.69925Z"/>
    <path class="cls-7" d="M234.36106,528.72361c-8.65491,0-15.69549,7.04434-15.69549,15.69925s7.04058,15.69549,15.69549,15.69549,15.69925-7.04058,15.69925-15.69549-7.04434-15.69925-15.69925-15.69925Z"/>
    <path class="cls-7" d="M262.18095,545.85657c4.72257,0,8.5646-3.84203,8.5646-8.5646,0-4.72633-3.84203-8.56836-8.5646-8.56836-4.72633,0-8.56836,3.84203-8.56836,8.56836,0,4.72257,3.84203,8.5646,8.56836,8.5646Z"/>
  </g>
  <g>
    <path class="cls-7" d="M331.99123,361.53988c-3.49959-6.57397-9.52793-10.04722-17.43023-10.04722l-9.93151,8.33505,9.93151.06397c5.63322,0,7.55235,2.71689,9.03121,5.50151,1.39607,2.61152,1.87774,7.11208-.36125,10.81864l-1.65196,2.46853c-6.20519,9.23441-16.81686,20.24496-32.13229,20.24496h-104.91255c-13.11031,0-25.58466-8.95971-27.80483-19.97779-.93699-4.63602.09784-9.08013,2.90504-12.51575,3.40552-4.15436,9.11023-6.5401,15.64281-6.5401l-11.36004-6.383c-4.29876,1.63314-8.00885,4.2188-10.77771,7.60221-4.43658,5.41496-6.08478,12.34265-4.64731,19.49989,3.02169,14.98052,18.85641,26.71356,36.04205,26.71356h104.91255c14.83752,0,28.72301-8.50815,39.09761-23.95905l1.68959-2.50992c4.01136-6.42345,4.68494-13.82528,1.75732-19.3155Z"/>
    <path class="cls-7" d="M296.83724,359.17813l10.97668-9.44467-21.9496-22.27322h-14.61127l.00964-6.93333h38.38264l-.02211,2.77898,20.7318-.04704.13641-12.72366-20.93077.02634.02822,3.43656-38.357.07526-22.68997-12.79045h-30.4427l-22.06484,13.8201-.07009,12.35723h-14.48568l-11.32288,22.89788,15.0252,8.6662,111.65632.15381ZM203.72595,317.85l16.81475-9.78287,27.04565.05033,16.06026,9.30826-.09807,9.96114-58.35055.07338h-1.49626l.02422-9.61024ZM186.26514,335.16687h96.37053l13.30974,13.50542-3.75924,2.64539h-104.00989l-7.5761-4.26113,5.66497-11.88968Z"/>
    <path class="cls-7" d="M175.74755,363.97455c-7.17981,0-13.02376,5.84394-13.02376,13.02752,0,7.17981,5.84394,13.02376,13.02376,13.02376,7.18357,0,13.02752-5.84394,13.02752-13.02376,0-7.18357-5.84394-13.02752-13.02752-13.02752Z"/>
    <path class="cls-7" d="M195.57858,378.86852c0,8.65491,7.04058,15.69549,15.69549,15.69549s15.69925-7.04058,15.69925-15.69549-7.04434-15.69925-15.69925-15.69925-15.69549,7.04434-15.69549,15.69925Z"/>
    <path class="cls-7" d="M231.10133,378.86852c0,8.65491,7.04434,15.69549,15.69925,15.69549s15.69549-7.04058,15.69549-15.69549-7.04058-15.69925-15.69549-15.69925-15.69925,7.04434-15.69925,15.69925Z"/>
    <path class="cls-7" d="M282.32334,363.16926c-8.65491,0-15.69549,7.04434-15.69549,15.69925s7.04058,15.69549,15.69549,15.69549,15.69925-7.04058,15.69925-15.69549-7.04434-15.69925-15.69925-15.69925Z"/>
    <path class="cls-7" d="M310.14323,380.30222c4.72257,0,8.5646-3.84203,8.5646-8.5646,0-4.72633-3.84203-8.56836-8.5646-8.56836-4.72633,0-8.56836,3.84203-8.56836,8.56836,0,4.72257,3.84203,8.5646,8.56836,8.5646Z"/>
  </g>
  <g>
    <path class="cls-7" d="M292.0973,688.60234c-3.49959-6.57397-9.52793-10.04722-17.43023-10.04722l-9.93151,8.33505,9.93151.06397c5.63322,0,7.55235,2.71689,9.03121,5.50151,1.39607,2.61152,1.87774,7.11208-.36125,10.81864l-1.65196,2.46853c-6.20519,9.23441-16.81686,20.24496-32.13229,20.24496h-104.91255c-13.11031,0-25.58466-8.95971-27.80483-19.97779-.93699-4.63602.09784-9.08013,2.90504-12.51575,3.40552-4.15436,9.11023-6.5401,15.64281-6.5401l-11.36004-6.383c-4.29876,1.63314-8.00885,4.2188-10.77771,7.60221-4.43658,5.41496-6.08478,12.34265-4.64731,19.49989,3.02169,14.98052,18.85641,26.71356,36.04205,26.71356h104.91255c14.83752,0,28.72301-8.50815,39.09761-23.95905l1.68959-2.50992c4.01136-6.42345,4.68494-13.82528,1.75732-19.3155Z"/>
    <path class="cls-7" d="M256.94332,686.24059l10.97668-9.44467-21.9496-22.27322h-14.61127l.00964-6.93333h38.38264l-.02211,2.77898,20.7318-.04704.13641-12.72366-20.93077.02634.02822,3.43656-38.357.07526-22.68997-12.79045h-30.4427l-22.06484,13.8201-.07009,12.35723h-14.48568l-11.32288,22.89788,15.0252,8.6662,111.65632.15381ZM163.83203,644.91246l16.81475-9.78287,27.04565.05033,16.06026,9.30826-.09807,9.96114-58.35055.07338h-1.49626l.02422-9.61024ZM146.37122,662.22933h96.37053l13.30974,13.50542-3.75924,2.64539h-104.00989l-7.5761-4.26113,5.66497-11.88968Z"/>
    <path class="cls-7" d="M135.85362,691.03701c-7.17981,0-13.02376,5.84394-13.02376,13.02752,0,7.17981,5.84394,13.02376,13.02376,13.02376,7.18357,0,13.02752-5.84394,13.02752-13.02376,0-7.18357-5.84394-13.02752-13.02752-13.02752Z"/>
    <path class="cls-7" d="M155.68465,705.93098c0,8.65491,7.04058,15.69549,15.69549,15.69549s15.69925-7.04058,15.69925-15.69549-7.04434-15.69925-15.69925-15.69925-15.69549,7.04434-15.69549,15.69925Z"/>
    <path class="cls-7" d="M191.20741,705.93098c0,8.65491,7.04434,15.69549,15.69925,15.69549s15.69549-7.04058,15.69549-15.69549-7.04058-15.69925-15.69549-15.69925-15.69925,7.04434-15.69925,15.69925Z"/>
    <path class="cls-7" d="M242.42942,690.23172c-8.65491,0-15.69549,7.04434-15.69549,15.69925s7.04058,15.69549,15.69549,15.69549,15.69925-7.04058,15.69925-15.69549-7.04434-15.69925-15.69925-15.69925Z"/>
    <path class="cls-7" d="M270.2493,707.36468c4.72257,0,8.5646-3.84203,8.5646-8.5646,0-4.72633-3.84203-8.56836-8.5646-8.56836-4.72633,0-8.56836,3.84203-8.56836,8.56836,0,4.72257,3.84203,8.5646,8.56836,8.5646Z"/>
  </g>
  <polygon class="cls-9" points="320.248 380.74737 292.71158 355.64331 303.16845 344.17612 319.25283 358.83846 356.81925 317.76368 368.27129 328.23571 320.248 380.74737"/>
  <polygon class="cls-9" points="260.00399 556.22432 232.46757 531.12026 242.92444 519.65306 259.00882 534.31541 296.57524 493.24063 308.02728 503.71265 260.00399 556.22432"/>
  <g>
    <path class="cls-7" d="M669.77088,527.09423c-3.49959-6.57397-9.52793-10.04722-17.43023-10.04722l-9.93151,8.33505,9.93151.06397c5.63322,0,7.55235,2.71689,9.03121,5.50151,1.39607,2.61152,1.87774,7.11208-.36125,10.81864l-1.65196,2.46853c-6.20519,9.23441-16.81686,20.24496-32.13229,20.24496h-104.91255c-13.11031,0-25.58466-8.95971-27.80483-19.97779-.93699-4.63602.09784-9.08013,2.90504-12.51575,3.40552-4.15436,9.11023-6.5401,15.64281-6.5401l-11.36004-6.383c-4.29876,1.63314-8.00885,4.2188-10.77771,7.60221-4.43658,5.41496-6.08478,12.34265-4.64731,19.49989,3.02169,14.98052,18.85641,26.71356,36.04205,26.71356h104.91255c14.83752,0,28.72301-8.50815,39.09761-23.95905l1.68959-2.50992c4.01136-6.42345,4.68494-13.82528,1.75732-19.3155Z"/>
    <path class="cls-7" d="M634.6169,524.73247l10.97668-9.44467-21.9496-22.27322h-14.61127l.00964-6.93333h38.38264l-.02211,2.77898,20.7318-.04704.13641-12.72366-20.93077.02634.02822,3.43656-38.357.07526-22.68997-12.79045h-30.4427l-22.06484,13.8201-.07009,12.35723h-14.48568l-11.32288,22.89788,15.0252,8.6662,111.65632.15381ZM541.50561,483.40434l16.81475-9.78287,27.04565.05033,16.06026,9.30826-.09807,9.96114-58.35055.07338h-1.49626l.02422-9.61024ZM524.0448,500.72122h96.37053l13.30974,13.50542-3.75924,2.64539h-104.00989l-7.5761-4.26113,5.66497-11.88968Z"/>
    <path class="cls-7" d="M513.5272,529.52889c-7.17981,0-13.02376,5.84394-13.02376,13.02752,0,7.17981,5.84394,13.02376,13.02376,13.02376,7.18357,0,13.02752-5.84394,13.02752-13.02376,0-7.18357-5.84394-13.02752-13.02752-13.02752Z"/>
    <path class="cls-7" d="M533.35823,544.42286c0,8.65491,7.04058,15.69549,15.69549,15.69549s15.69925-7.04058,15.69925-15.69549-7.04434-15.69925-15.69925-15.69925-15.69549,7.04434-15.69549,15.69925Z"/>
    <path class="cls-7" d="M568.88099,544.42286c0,8.65491,7.04434,15.69549,15.69925,15.69549s15.69549-7.04058,15.69549-15.69549-7.04058-15.69925-15.69549-15.69925-15.69925,7.04434-15.69925,15.69925Z"/>
    <path class="cls-7" d="M620.10299,528.72361c-8.65491,0-15.69549,7.04434-15.69549,15.69925s7.04058,15.69549,15.69549,15.69549,15.69925-7.04058,15.69925-15.69549-7.04434-15.69925-15.69925-15.69925Z"/>
    <path class="cls-7" d="M647.92288,545.85657c4.72257,0,8.5646-3.84203,8.5646-8.5646,0-4.72633-3.84203-8.56836-8.5646-8.56836-4.72633,0-8.56836,3.84203-8.56836,8.56836,0,4.72257,3.84203,8.5646,8.56836,8.5646Z"/>
  </g>
  <g>
    <path class="cls-7" d="M754.95968,361.53988c-3.49959-6.57397-9.52793-10.04722-17.43023-10.04722l-9.93151,8.33505,9.93151.06397c5.63322,0,7.55235,2.71689,9.03121,5.50151,1.39607,2.61152,1.87774,7.11208-.36125,10.81864l-1.65196,2.46853c-6.20519,9.23441-16.81686,20.24496-32.13229,20.24496h-104.91255c-13.11031,0-25.58466-8.95971-27.80483-19.97779-.93699-4.63602.09784-9.08013,2.90504-12.51575,3.40552-4.15436,9.11023-6.5401,15.64281-6.5401l-11.36004-6.383c-4.29876,1.63314-8.00885,4.2188-10.77771,7.60221-4.43658,5.41496-6.08478,12.34265-4.64731,19.49989,3.02169,14.98052,18.85641,26.71356,36.04205,26.71356h104.91255c14.83752,0,28.72301-8.50815,39.09761-23.95905l1.68959-2.50992c4.01136-6.42345,4.68494-13.82528,1.75732-19.3155Z"/>
    <path class="cls-7" d="M719.80569,359.17813l10.97668-9.44467-21.9496-22.27322h-14.61127l.00964-6.93333h38.38264l-.02211,2.77898,20.7318-.04704.13641-12.72366-20.93077.02634.02822,3.43656-38.357.07526-22.68997-12.79045h-30.4427l-22.06484,13.8201-.07009,12.35723h-14.48568l-11.32288,22.89788,15.0252,8.6662,111.65632.15381ZM626.6944,317.85l16.81475-9.78287,27.04565.05033,16.06026,9.30826-.09807,9.96114-58.35055.07338h-1.49626l.02422-9.61024ZM609.23359,335.16687h96.37053l13.30974,13.50542-3.75924,2.64539h-104.00989l-7.5761-4.26113,5.66497-11.88968Z"/>
    <path class="cls-7" d="M598.716,363.97455c-7.17981,0-13.02376,5.84394-13.02376,13.02752,0,7.17981,5.84394,13.02376,13.02376,13.02376,7.18357,0,13.02752-5.84394,13.02752-13.02376,0-7.18357-5.84394-13.02752-13.02752-13.02752Z"/>
    <path class="cls-7" d="M618.54702,378.86852c0,8.65491,7.04058,15.69549,15.69549,15.69549s15.69925-7.04058,15.69925-15.69549-7.04434-15.69925-15.69925-15.69925-15.69549,7.04434-15.69549,15.69925Z"/>
    <path class="cls-7" d="M654.06978,378.86852c0,8.65491,7.04434,15.69549,15.69925,15.69549s15.69549-7.04058,15.69549-15.69549-7.04058-15.69925-15.69549-15.69925-15.69925,7.04434-15.69925,15.69925Z"/>
    <path class="cls-7" d="M705.29179,363.16926c-8.65491,0-15.69549,7.04434-15.69549,15.69925s7.04058,15.69549,15.69549,15.69549,15.69925-7.04058,15.69925-15.69549-7.04434-15.69925-15.69925-15.69925Z"/>
    <path class="cls-7" d="M733.11168,380.30222c4.72257,0,8.5646-3.84203,8.5646-8.5646,0-4.72633-3.84203-8.56836-8.5646-8.56836-4.72633,0-8.56836,3.84203-8.56836,8.56836,0,4.72257,3.84203,8.5646,8.56836,8.5646Z"/>
  </g>
  <polygon class="cls-9" points="743.21645 380.74737 715.68003 355.64331 726.1369 344.17612 742.22128 358.83846 779.7877 317.76368 791.23974 328.23571 743.21645 380.74737"/>
  <polygon class="cls-9" points="645.74592 556.22432 618.2095 531.12026 628.66637 519.65306 644.75075 534.31541 682.31718 493.24063 693.76921 503.71265 645.74592 556.22432"/>
  <g>
    <path class="cls-7" d="M933.28212,527.09423c-3.49959-6.57397-9.52793-10.04722-17.43023-10.04722l-9.93151,8.33505,9.93151.06397c5.63322,0,7.55235,2.71689,9.03121,5.50151,1.39607,2.61152,1.87774,7.11208-.36125,10.81864l-1.65196,2.46853c-6.20519,9.23441-16.81686,20.24496-32.13229,20.24496h-104.91255c-13.11031,0-25.58466-8.95971-27.80483-19.97779-.93699-4.63602.09784-9.08013,2.90504-12.51575,3.40552-4.15436,9.11023-6.5401,15.64281-6.5401l-11.36004-6.383c-4.29876,1.63314-8.00885,4.2188-10.77771,7.60221-4.43658,5.41496-6.08478,12.34265-4.64731,19.49989,3.02169,14.98052,18.85641,26.71356,36.04205,26.71356h104.91255c14.83752,0,28.72301-8.50815,39.09761-23.95905l1.68959-2.50992c4.01136-6.42345,4.68494-13.82528,1.75732-19.3155Z"/>
    <path class="cls-7" d="M898.12814,524.73247l10.97668-9.44467-21.9496-22.27322h-14.61127l.00964-6.93333h38.38264l-.02211,2.77898,20.7318-.04704.13641-12.72366-20.93077.02634.02822,3.43656-38.357.07526-22.68997-12.79045h-30.4427l-22.06484,13.8201-.07009,12.35723h-14.48568l-11.32288,22.89788,15.0252,8.6662,111.65632.15381ZM805.01684,483.40434l16.81475-9.78287,27.04565.05033,16.06026,9.30826-.09807,9.96114-58.35055.07338h-1.49626l.02422-9.61024ZM787.55603,500.72122h96.37053l13.30974,13.50542-3.75924,2.64539h-104.00989l-7.5761-4.26113,5.66497-11.88968Z"/>
    <path class="cls-7" d="M777.03844,529.52889c-7.17981,0-13.02376,5.84394-13.02376,13.02752,0,7.17981,5.84394,13.02376,13.02376,13.02376,7.18357,0,13.02752-5.84394,13.02752-13.02376,0-7.18357-5.84394-13.02752-13.02752-13.02752Z"/>
    <path class="cls-7" d="M796.86947,544.42286c0,8.65491,7.04058,15.69549,15.69549,15.69549s15.69925-7.04058,15.69925-15.69549-7.04434-15.69925-15.69925-15.69925-15.69549,7.04434-15.69549,15.69925Z"/>
    <path class="cls-7" d="M832.39222,544.42286c0,8.65491,7.04434,15.69549,15.69925,15.69549s15.69549-7.04058,15.69549-15.69549-7.04058-15.69925-15.69549-15.69925-15.69925,7.04434-15.69925,15.69925Z"/>
    <path class="cls-7" d="M883.61423,528.72361c-8.65491,0-15.69549,7.04434-15.69549,15.69925s7.04058,15.69549,15.69549,15.69549,15.69925-7.04058,15.69925-15.69549-7.04434-15.69925-15.69925-15.69925Z"/>
    <path class="cls-7" d="M911.43412,545.85657c4.72257,0,8.5646-3.84203,8.5646-8.5646,0-4.72633-3.84203-8.56836-8.5646-8.56836-4.72633,0-8.56836,3.84203-8.56836,8.56836,0,4.72257,3.84203,8.5646,8.56836,8.5646Z"/>
  </g>
  <polygon class="cls-9" points="909.25716 556.22432 881.72074 531.12026 892.17761 519.65306 908.26199 534.31541 945.82841 493.24063 957.28045 503.71265 909.25716 556.22432"/>
  <polygon class="cls-9" points="268.57046 719.44941 241.03405 694.34535 251.49091 682.87815 267.57529 697.5405 305.14172 656.46572 316.59376 666.93774 268.57046 719.44941"/>
  <g>
    <path class="cls-7" d="M553.87917,686.32818c-3.49959-6.57397-9.52793-10.04722-17.43023-10.04722l-9.93151,8.33505,9.93151.06397c5.63322,0,7.55235,2.71689,9.03121,5.50151,1.39607,2.61152,1.87774,7.11208-.36125,10.81864l-1.65196,2.46853c-6.20519,9.23441-16.81686,20.24496-32.13229,20.24496h-104.91255c-13.11031,0-25.58466-8.95971-27.80483-19.97779-.93699-4.63602.09784-9.08013,2.90504-12.51575,3.40552-4.15436,9.11023-6.5401,15.64281-6.5401l-11.36004-6.383c-4.29876,1.63314-8.00885,4.2188-10.77771,7.60221-4.43658,5.41496-6.08478,12.34265-4.64731,19.49989,3.02169,14.98052,18.85641,26.71356,36.04205,26.71356h104.91255c14.83752,0,28.72301-8.50815,39.09761-23.95905l1.68959-2.50992c4.01136-6.42345,4.68494-13.82528,1.75732-19.3155Z"/>
    <path class="cls-7" d="M518.72519,683.96643l10.97668-9.44467-21.9496-22.27322h-14.61127l.00964-6.93333h38.38264l-.02211,2.77898,20.7318-.04704.13641-12.72366-20.93077.02634.02822,3.43656-38.357.07526-22.68997-12.79045h-30.4427l-22.06484,13.8201-.07009,12.35723h-14.48568l-11.32288,22.89788,15.0252,8.6662,111.65632.15381ZM425.6139,642.6383l16.81475-9.78287,27.04565.05033,16.06026,9.30826-.09807,9.96114-58.35055.07338h-1.49626l.02422-9.61024ZM408.15309,659.95517h96.37053l13.30974,13.50542-3.75924,2.64539h-104.00989l-7.5761-4.26113,5.66497-11.88968Z"/>
    <path class="cls-7" d="M397.63549,688.76285c-7.17981,0-13.02376,5.84394-13.02376,13.02752,0,7.17981,5.84394,13.02376,13.02376,13.02376,7.18357,0,13.02752-5.84394,13.02752-13.02376,0-7.18357-5.84394-13.02752-13.02752-13.02752Z"/>
    <path class="cls-7" d="M417.46652,703.65682c0,8.65491,7.04058,15.69549,15.69549,15.69549s15.69925-7.04058,15.69925-15.69549-7.04434-15.69925-15.69925-15.69925-15.69549,7.04434-15.69549,15.69925Z"/>
    <path class="cls-7" d="M452.98928,703.65682c0,8.65491,7.04434,15.69549,15.69925,15.69549s15.69549-7.04058,15.69549-15.69549-7.04058-15.69925-15.69549-15.69925-15.69925,7.04434-15.69925,15.69925Z"/>
    <path class="cls-7" d="M504.21129,687.95756c-8.65491,0-15.69549,7.04434-15.69549,15.69925s7.04058,15.69549,15.69549,15.69549,15.69925-7.04058,15.69925-15.69549-7.04434-15.69925-15.69925-15.69925Z"/>
    <path class="cls-7" d="M532.03117,705.09052c4.72257,0,8.5646-3.84203,8.5646-8.5646,0-4.72633-3.84203-8.56836-8.5646-8.56836-4.72633,0-8.56836,3.84203-8.56836,8.56836,0,4.72257,3.84203,8.5646,8.56836,8.5646Z"/>
  </g>
  <polygon class="cls-9" points="528.78938 707.77281 501.25297 682.66875 511.70983 671.20155 527.79421 685.8639 565.36064 644.78912 576.81268 655.26114 528.78938 707.77281"/>
  <g>
    <path class="cls-7" d="M817.50977,686.32818c-3.49959-6.57397-9.52793-10.04722-17.43023-10.04722l-9.93151,8.33505,9.93151.06397c5.63322,0,7.55235,2.71689,9.03121,5.50151,1.39607,2.61152,1.87774,7.11208-.36125,10.81864l-1.65196,2.46853c-6.20519,9.23441-16.81686,20.24496-32.13229,20.24496h-104.91255c-13.11031,0-25.58466-8.95971-27.80483-19.97779-.93699-4.63602.09784-9.08013,2.90504-12.51575,3.40552-4.15436,9.11023-6.5401,15.64281-6.5401l-11.36004-6.383c-4.29876,1.63314-8.00885,4.2188-10.77771,7.60221-4.43658,5.41496-6.08478,12.34265-4.64731,19.49989,3.02169,14.98052,18.85641,26.71356,36.04205,26.71356h104.91255c14.83752,0,28.72301-8.50815,39.09761-23.95905l1.68959-2.50992c4.01136-6.42345,4.68494-13.82528,1.75732-19.3155Z"/>
    <path class="cls-7" d="M782.35579,683.96643l10.97668-9.44467-21.9496-22.27322h-14.61127l.00964-6.93333h38.38264l-.02211,2.77898,20.7318-.04704.13641-12.72366-20.93077.02634.02822,3.43656-38.357.07526-22.68997-12.79045h-30.4427l-22.06484,13.8201-.07009,12.35723h-14.48568l-11.32288,22.89788,15.0252,8.6662,111.65632.15381ZM689.24449,642.6383l16.81475-9.78287,27.04565.05033,16.06026,9.30826-.09807,9.96114-58.35055.07338h-1.49626l.02422-9.61024ZM671.78368,659.95517h96.37053l13.30974,13.50542-3.75924,2.64539h-104.00989l-7.5761-4.26113,5.66497-11.88968Z"/>
    <path class="cls-7" d="M661.26609,688.76285c-7.17981,0-13.02376,5.84394-13.02376,13.02752,0,7.17981,5.84394,13.02376,13.02376,13.02376,7.18357,0,13.02752-5.84394,13.02752-13.02376,0-7.18357-5.84394-13.02752-13.02752-13.02752Z"/>
    <path class="cls-7" d="M681.09712,703.65682c0,8.65491,7.04058,15.69549,15.69549,15.69549s15.69925-7.04058,15.69925-15.69549-7.04434-15.69925-15.69925-15.69925-15.69549,7.04434-15.69549,15.69925Z"/>
    <path class="cls-7" d="M716.61987,703.65682c0,8.65491,7.04434,15.69549,15.69925,15.69549s15.69549-7.04058,15.69549-15.69549-7.04058-15.69925-15.69549-15.69925-15.69925,7.04434-15.69925,15.69925Z"/>
    <path class="cls-7" d="M767.84188,687.95756c-8.65491,0-15.69549,7.04434-15.69549,15.69925s7.04058,15.69549,15.69549,15.69549,15.69925-7.04058,15.69925-15.69549-7.04434-15.69925-15.69925-15.69925Z"/>
    <path class="cls-7" d="M795.66177,705.09052c4.72257,0,8.5646-3.84203,8.5646-8.5646,0-4.72633-3.84203-8.56836-8.5646-8.56836-4.72633,0-8.56836,3.84203-8.56836,8.56836,0,4.72257,3.84203,8.5646,8.56836,8.5646Z"/>
  </g>
  <polygon class="cls-9" points="792.41998 707.77281 764.88356 682.66875 775.34043 671.20155 791.42481 685.8639 828.99123 644.78912 840.44327 655.26114 792.41998 707.77281"/>
  <path class="cls-6" d="M1432.84269,571.30849c0-19.07726,2.15913-34.13203,6.46261-45.17171,4.31826-11.03228,11.29847-20.60049,20.9702-28.70463,9.66433-8.09675,17.01426-15.51322,22.04237-22.24202,5.02812-6.72141,7.54957-14.13788,7.54957-22.23462,0-19.72796-8.49604-29.59194-25.48072-29.59194-7.83795,0-14.17485,2.87638-19.00332,8.62174-4.83586,5.75276-7.3795,13.51676-7.64569,23.32159h-66.22325c.2588-26.13141,8.48864-46.4731,24.68213-61.03985,16.20089-14.56675,38.93093-21.85012,68.19013-21.85012,29.1335,0,51.70086,6.7288,67.7021,20.18641,16.00124,13.45021,24.00186,32.59402,24.00186,57.40925,0,10.84742-2.15174,20.70401-6.46261,29.59194-4.31087,8.88054-11.23932,17.96073-20.77056,27.23316l-22.5304,20.96281c-6.40345,6.14465-10.84742,12.44459-13.32451,18.91459-2.48448,6.46261-3.85982,14.66287-4.11862,24.5934h-56.04131ZM1424.8125,630.87688c0-9.67173,3.4901-17.6058,10.47771-23.80961,6.9876-6.20381,15.70547-9.30941,26.16099-9.30941,10.44813,0,19.166,3.1056,26.16099,9.30941,6.9876,6.20381,10.47771,14.13788,10.47771,23.80961,0,9.66433-3.4901,17.59841-10.47771,23.80221-6.995,6.2112-15.71286,9.30941-26.16099,9.30941-10.45552,0-19.17339-3.09821-26.16099-9.30941-6.9876-6.20381-10.47771-14.13788-10.47771-23.80221Z"/>
  <path class="cls-4" d="M290.92676,173.68252c7.29281,28.94428,40.58714,46.11248,74.36474,38.34637,33.77795-7.76615,55.24795-37.52596,47.95512-66.47023-7.29282-28.94427-40.58715-46.11248-74.3651-38.34633-33.7776,7.76611-55.24795,37.52596-47.95476,66.47019Z"/>
  <path class="cls-7" d="M498.97226,154.75964l.59225.44824.2959.23047c.02344.01807.05142.04297.08142.07324-.29791.47217-.20731.07129-.26523.17627-.79487-.50056-3.06756-1.95527-3.90655-2.49901-42.39795-26.24479-94.12371-50.0678-144.91876-41.46769-35.56019,5.33525-76.18113,21.69232-110.25111,33.80818-22.36198,7.80833-45.76061,15.31133-69.67789,17.33193-8.01875.66156-16.1103.5932-23.99662-.48444,31.27429-5.49069,58.80594-19.38779,87.39945-32.36805,49.75937-22.74585,108.09499-47.69258,163.75347-34.26215,38.373,9.29526,72.89726,30.91309,100.62254,58.50193-.00021.00034,1.03016,1.06675,1.03016,1.06675,0,0,.12714.12695.12714.12695-.02328.12598.16321-.18604-.14285.23975-.00992-.01611-.02316-.03662-.0434-.06201-.06315-.07864-.60049-.74519-.69992-.86035h0Z"/>
  <path class="cls-7" d="M452.65773,172.59261c-1.32948-.22988-2.58469.59603-3.75303,1.14737-3.51229,1.9006-6.75959,4.26072-10.04863,6.51715-2.25874,1.59666-7.66965,5.35592-9.84336,6.86379-.00006.00002-1.64465,1.13039-1.64465,1.13039,0,0-1.64642.97461-1.64642.97461-9.10961,5.59472-18.12699,12.19511-27.76894,17.42132-25.34817,14.45387-55.1706,18.37401-83.59789,12.70524-38.17531-7.43068-73.13819-26.8184-103.67044-50.33571,10.00585,4.44157,19.9267,8.88346,29.89817,13.06999,47.36282,19.86473,102.37105,37.42352,150.44601,11.44975,9.8384-4.86087,19.53631-11.3804,30.22802-16.76764,1.89531-.69714,4.00022-1.57228,5.93429-2.18016,5.58051-1.90679,20.87715-6.15324,25.46688-1.99609h0Z"/>
  <path class="cls-7" d="M317.14151,169.20378c4.39307,17.33551,23.59988,27.83009,42.89953,23.44016,19.29962-4.38992,31.38391-22.00205,26.99087-39.33756-4.39344-17.33547-23.60025-27.83004-42.89991-23.44012-19.29964,4.38992-31.38397,22.00167-26.99049,39.33752Z"/>
  <path class="cls-2" d="M353.00159,161.72159c-3.17935,5.88496-.9864,13.23311,4.89856,16.41246,5.885,3.17972,13.23311.9864,16.41283-4.8986,3.17935-5.88496.98604-13.23307-4.8986-16.41283-5.88496-3.17935-13.23344-.98598-16.41279,4.89898Z"/>
  <path class="cls-3" d="M752.45729,164.73839c-4.94199,30.16602-37.0996,50.60799-71.82641,45.65823-34.72645-4.94942-58.8717-33.41631-53.92972-63.58199,4.94199-30.16602,37.09995-50.60798,71.82642-45.65856,34.72682,4.94976,58.87205,33.41632,53.92971,63.58233Z"/>
  <path class="cls-7" d="M545.14966,164.46569c29.11367-38.41683,73.76426-67.87346,122.2084-73.96132,32.55345-3.69209,65.86417,2.55538,96.9058,11.62374,45.67946,12.7914,87.72232,35.39199,135.35896,40.09355-7.79684,1.74501-15.88345,2.50185-23.95968,2.52284-24.09441.01931-48.14442-5.46882-71.17537-11.38665-35.23404-9.27682-77.05892-22.12233-113.14364-24.65273-54.0686-4.81479-105.52361,22.0263-146.19449,55.76057h0Z"/>
  <path class="cls-7" d="M583.8102,177.66823c5.52144-2.12744,11.78183-1.26969,17.49705-.56762,5.73647.88842,11.3041,2.34643,16.71999,4.11254,10.86536,4.47266,20.32526,9.80908,30.15527,13.81201,40.88291,18.22182,82.54533,8.24269,122.16353-9.32214,20.14244-8.81483,39.44105-19.52138,58.79049-30.19154-20.59846,18.97383-43.70265,35.4701-68.98587,47.66419-37.93743,18.3961-78.85138,24.0352-117.9232,5.37012-10.12263-4.62312-19.75013-10.63324-29.44617-15.4714-.00004.00008-14.13987-8.12882-14.13987-8.12882-4.84142-2.57123-9.51861-5.69481-14.83124-7.27734h0Z"/>
  <path class="cls-7" d="M725.3933,163.43876c-2.943,17.79657-21.35556,29.97518-41.126,27.20241-19.77005-2.77314-33.41099-19.44779-30.468-37.24398,2.943-17.79657,21.35556-29.97518,41.126-27.20241,19.77005,2.77314,33.41099,19.44779,30.468,37.24398Z"/>
  <path class="cls-2" d="M688.71645,158.96469c3.69515,5.6444,2.11497,13.21614-3.52945,16.91166-5.64478,3.69514-13.21651,2.11495-16.91204-3.52946-3.69514-5.64478-2.11493-13.21651,3.52945-16.91166,5.64479-3.69552,13.21652-2.11533,16.91204,3.52946Z"/>
  <path class="cls-5" d="M1222.62147,173.67386c7.3201,28.93769,42.86628,45.566,79.39438,37.14048,36.52847-8.42557,60.20607-38.71459,52.88595-67.65229-7.32011-28.93769-42.8663-45.566-79.39477-37.14043-36.5281,8.42552-60.20607,38.71459-52.88557,67.65224Z"/>
  <path class="cls-7" d="M1430.66674,158.8568l.59222.44824s.29593.23047.29593.23047c.02341.01807.05142.04297.08142.07324-.29791.47217-.20731.07129-.26526.17578-.79531-.4996-3.06748-1.9551-3.90652-2.49853-42.39797-26.245-94.12365-50.06784-144.91875-41.46769-35.56022,5.33525-76.18113,21.69233-110.25113,33.80818-22.36197,7.80833-45.76063,15.31133-69.67789,17.33193-8.01875.66156-16.11031.5932-23.99662-.48444,31.27427-5.49069,58.80594-19.38778,87.39944-32.36805,49.75841-22.7459,108.09588-47.69272,163.7535-34.26215,38.37297,9.29509,72.89725,30.91301,100.62251,58.50193-.00021.00034,1.03019,1.06675,1.03019,1.06675,0,0,.12714.12695.12714.12695-.02332.12598.16318-.18604-.14285.23975-.00992-.01611-.02319-.03662-.04343-.06201-.06316-.07865-.60046-.74517-.69989-.86035h0Z"/>
  <path class="cls-7" d="M1398.62567,172.31286c-1.32949-.22973-2.58469.596-3.75303,1.14737-3.51231,1.90057-6.75957,4.26071-10.04863,6.51715-2.25874,1.59666-7.66965,5.35592-9.84336,6.86379-.00006.00002-1.64465,1.13039-1.64465,1.13039l-1.64645.97461c-9.10939,5.59485-18.12675,12.19522-27.76891,17.42132-25.3477,14.45381-55.17108,18.37416-83.59789,12.70524-38.17544-7.43058-73.13823-26.81835-103.67044-50.33571,10.00583,4.44157,19.92669,8.88395,29.89815,13.06999,47.36234,19.86504,102.3715,37.42356,150.44603,11.44975,9.83829-4.86129,19.53678-11.37968,30.22799-16.76764,1.8953-.69712,4.00023-1.57228,5.93428-2.18016,5.58079-1.90685,20.87675-6.15316,25.46691-1.99609h0Z"/>
  <path class="cls-7" d="M1257.29281,176.07022c4.39307,17.33551,23.59988,27.83009,42.89953,23.44016,19.29962-4.38992,31.38391-22.00205,26.99087-39.33756-4.39344-17.33547-23.60025-27.83004-42.89991-23.44012-19.29964,4.38992-31.38397,22.00167-26.99049,39.33752Z"/>
  <path class="cls-2" d="M1293.15288,168.58802c-3.17935,5.88496-.9864,13.23311,4.89856,16.41246,5.885,3.17972,13.23311.9864,16.41283-4.8986,3.17935-5.88496.98604-13.23307-4.8986-16.41283-5.88496-3.17935-13.23344-.98598-16.41279,4.89898Z"/>
  <path class="cls-5" d="M1684.15151,164.73835c-4.96881,30.16194-39.3391,50.26724-76.76862,44.90624-37.42913-5.36065-63.7436-34.1576-58.77479-64.3192,4.96881-30.16194,39.33948-50.26722,76.76863-44.90657,37.42952,5.361,63.74397,34.15761,58.77479,64.31953Z"/>
  <path class="cls-7" d="M1476.84414,168.56286c29.11365-38.41687,73.76421-67.87342,122.20837-73.96132,32.55344-3.6921,65.86419,2.55538,96.9058,11.62374,45.67945,12.79108,87.72231,35.39212,135.35896,40.09355-7.79684,1.74501-15.88345,2.50185-23.95968,2.52284-24.09431.01932-48.14447-5.46915-71.1753-11.38665-35.23404-9.27673-77.05901-22.12245-113.1437-24.65273-54.06856-4.81483-105.52359,22.02629-146.19446,55.76057h0Z"/>
  <path class="cls-7" d="M1506.13189,175.59069c5.52145-2.12743,11.78182-1.2697,17.49705-.56762,5.73647.88891,11.3041,2.34643,16.71999,4.11254,10.86542,4.47314,20.32526,9.80908,30.15527,13.81201,40.88281,18.22202,82.54531,8.24262,122.16353-9.32214,20.14253-8.8148,39.44098-19.52136,58.79049-30.19154-20.59847,18.97385-43.70263,35.47013-68.98587,47.66419-37.93742,18.3961-78.85132,24.03522-117.92314,5.37012-10.12265-4.62311-19.75018-10.63323-29.44623-15.4714-.00004.00008-14.13987-8.12882-14.13987-8.12882-4.8414-2.57125-9.51862-5.69481-14.83124-7.27734h0Z"/>
  <path class="cls-7" d="M1649.63285,169.27448c-2.943,17.79657-21.35556,29.97518-41.126,27.20241-19.77005-2.77314-33.41099-19.44779-30.468-37.24398,2.943-17.79657,21.35556-29.97518,41.126-27.20241,19.77005,2.77314,33.41099,19.44779,30.468,37.24398Z"/>
  <path class="cls-2" d="M1612.956,164.80041c3.69515,5.6444,2.11497,13.21614-3.52945,16.91166-5.64478,3.69514-13.21651,2.11495-16.91204-3.52946-3.69514-5.64478-2.11493-13.21651,3.52945-16.91166,5.64479-3.69552,13.21652-2.11533,16.91204,3.52946Z"/>
  <path class="cls-9" d="M386.53129,506.92192c9.30486,3.83796,15.6625,9.66762,19.07377,17.48825,3.41133,7.82065,3.35543,16.00056-.16746,24.54091-3.46959,8.41236-9.17161,14.18932-17.10427,17.33057-7.93313,3.14105-16.55189,2.7927-25.85655-1.04573-9.1776-3.78551-15.4718-9.58849-18.88288-17.40958-3.41128-7.82063-3.38212-15.93713.08813-24.34975,3.47025-8.41262,9.18472-14.22114,17.14427-17.42629,7.95935-3.20468,16.52759-2.91437,25.70499.87161ZM421.93573,486.17708l-45.88672-18.92812,73.0769-195.59649,58.88762,24.29091-86.0778,190.23371Z"/>
</svg>