<?xml version="1.0" encoding="UTF-8"?>
<svg id="Ebene_2" data-name="Ebene 2" xmlns="http://www.w3.org/2000/svg" viewBox="0 0 1920 561.08078">
  <defs>
    <style>
      .cls-1 {
        stroke-width: 9.90879px;
      }

      .cls-1, .cls-2, .cls-3 {
        fill: none;
      }

      .cls-1, .cls-2, .cls-3, .cls-4 {
        stroke: #0d435c;
        stroke-miterlimit: 10;
      }

      .cls-2, .cls-4 {
        stroke-width: 9.7551px;
      }

      .cls-3 {
        stroke-width: 7.02614px;
      }

      .cls-5, .cls-4 {
        fill: #0d435c;
      }

      .cls-6 {
        fill: #f3f5f7;
      }

      .cls-7 {
        fill: #0d425b;
      }
    </style>
  </defs>
  <rect class="cls-6" x="-11.61466" y="-9.91846" width="1953.01137" height="592.12533"/>
  <rect class="cls-2" x="818.80341" y="100.07922" width="289.81395" height="57.31395"/>
  <circle class="cls-4" cx="856.69527" cy="128.28389" r="3.90635"/>
  <circle class="cls-4" cx="1067.08818" cy="128.28389" r="3.85493"/>
  <circle class="cls-5" cx="1001.26017" cy="128.28389" r="3.85493"/>
  <circle class="cls-5" cx="925.95831" cy="128.59811" r="3.85493"/>
  <rect class="cls-2" x="882.39495" y="157.27313" width="159.54359" height="88.81808"/>
  <line class="cls-2" x1="883.62853" y1="184.82318" x2="1039.06018" y2="184.82318"/>
  <line class="cls-2" x1="1038.64898" y1="216.48519" x2="947.36373" y2="216.48519"/>
  <line class="cls-2" x1="879.10539" y1="216.48519" x2="920.63607" y2="216.48519"/>
  <rect class="cls-2" x="921.04726" y="246.50241" width="81.82777" height="44.82024"/>
  <polyline class="cls-1" points="1004.17859 292.74696 961.32903 337.56719 919.75214 292.74696"/>
  <path class="cls-2" d="M962.57794,331.20854v46.87621s4.93434,21.79333-14.39182,21.79333c-16.864,0-105.26588,0-105.26588,0,0,0-17.27018-.41119-17.27018,13.56943,0,13.98062,16.44779,14.39182,16.44779,14.39182h239.72659s16.0366.41119,16.0366,14.80301c0,14.39182-13.98062,15.21421-13.98062,15.21421l-257.81916-.41119"/>
  <g>
    <polyline class="cls-3" points="189.99397 141.31387 189.99397 121.43515 208.79817 121.43515"/>
    <line class="cls-3" x1="260.91266" y1="103.70548" x2="225.45332" y2="103.70548"/>
    <line class="cls-3" x1="199.6647" y1="292.82198" x2="199.6647" y2="272.94326"/>
    <line class="cls-3" x1="221.35593" y1="321.02828" x2="221.35593" y2="352.18952"/>
    <polyline class="cls-3" points="127.13423 236.94665 127.13423 217.06793 160.44452 217.06793 160.44452 252.52727 181.93503 252.52727 181.93503 268.10789"/>
    <polyline class="cls-3" points="159.36999 278.31589 159.36999 301.41819 133.04412 301.41819 133.04412 252.52727 160.44452 252.52727"/>
    <polyline class="cls-3" points="160.98178 294.43377 186.23311 294.43377 231.36321 294.43377 231.36321 271.57878"/>
    <polyline class="cls-3" points="184.08408 294.43377 184.08408 321.29691 167.9662 321.29691"/>
    <polyline class="cls-3" points="207.72365 294.97103 207.72365 324.52049 222.22974 324.52049"/>
    <polyline class="cls-3" points="231.36321 275.09231 294.76019 275.09231 310.34084 275.09231 310.34084 247.15465 238.88489 247.15465 238.88489 219.21698 201.27649 219.21698 201.27649 181.60858 160.44452 181.60858 160.44452 217.06793"/>
    <polyline class="cls-3" points="295.29748 275.09231 295.29748 326.66954 249.09288 326.66954 249.09288 366.96425 294.22296 366.96425"/>
    <polyline class="cls-3" points="310.34084 275.09231 335.59219 275.09231 335.59219 337.95205 335.59219 348.69731 276.27292 348.69731"/>
    <polyline class="cls-3" points="335.59219 336.87753 395.22836 336.87753 395.22836 298.73187 422.0915 298.73187 422.0915 321.29691"/>
    <polyline class="cls-3" points="201.27649 181.60858 235.12405 181.60858 235.12405 120.89789 283.4777 120.89789 296.90927 120.89789"/>
    <polyline class="cls-3" points="176.02514 179.9968 176.02514 143.46293 199.6647 143.46293"/>
    <line class="cls-3" x1="238.88489" y1="219.21698" x2="238.88489" y2="203.0991"/>
    <polyline class="cls-3" points="234.04952 166.56523 265.74803 166.56523 265.74803 184.83216"/>
    <polyline class="cls-3" points="295.83474 234.26034 295.83474 209.54625 289.38758 209.54625 270.04613 209.54625 270.04613 229.42497"/>
    <polyline class="cls-3" points="288.85033 209.54625 288.85033 171.40059 320.01157 171.40059 320.01157 188.05574"/>
    <polyline class="cls-3" points="320.01157 171.40059 320.01157 111.76442 379.11048 111.76442 379.11048 141.31387 361.3808 141.31387"/>
    <polyline class="cls-3" points="362.99259 133.7922 362.99259 198.26373 340.96482 198.26373 340.96482 225.12687 326.45872 225.12687"/>
    <polyline class="cls-3" points="379.11048 141.31387 416.71887 141.31387 416.71887 173.01238"/>
    <polyline class="cls-3" points="386.63216 169.25154 386.63216 191.27931 404.89909 191.27931 404.89909 212.76983 342.03934 212.76983"/>
    <polyline class="cls-3" points="529.54406 248.22917 444.11927 248.22917 444.11927 269.71968 380.185 269.71968 380.185 243.39381 371.5888 243.39381"/>
    <polyline class="cls-3" points="555.33267 264.34705 555.33267 229.42497 523.09691 229.42497 523.09691 174.87184"/>
    <line class="cls-3" x1="523.09691" y1="214.38161" x2="437.67212" y2="214.38161"/>
    <polyline class="cls-3" points="478.50409 213.84435 478.50409 167.10249 502.68092 167.10249 502.68092 145.07471 525.24596 145.07471"/>
    <polyline class="cls-3" points="478.50409 167.10249 478.50409 144.53745 452.71548 144.53745 452.71548 123.5842 424.24055 123.5842"/>
    <line class="cls-3" x1="477.96683" y1="185.36942" x2="434.44854" y2="185.36942"/>
    <polyline class="cls-3" points="404.89909 212.76983 404.89909 248.22917 444.11927 248.22917"/>
    <polyline class="cls-3" points="444.11927 269.71968 444.11927 293.89651 495.6965 293.89651 495.6965 321.83417 552.64636 321.83417 552.64636 272.406"/>
    <line class="cls-3" x1="516.64975" y1="249.3037" x2="516.64975" y2="293.89651"/>
    <polyline class="cls-3" points="457.01358 315.92428 457.01358 345.47374 527.93227 345.47374 527.93227 376.63498 553.72088 376.63498"/>
    <polyline class="cls-3" points="395.22836 336.87753 395.22836 363.74067 444.65654 363.74067"/>
    <line class="cls-3" x1="457.01358" y1="345.47374" x2="457.01358" y2="362.12888"/>
    <polyline class="cls-3" points="380.185 269.71968 364.60438 269.71968 364.60438 306.79082"/>
    <polyline class="cls-3" points="368.36522 336.87753 368.36522 382.00761 444.11927 382.00761"/>
    <polyline class="cls-3" points="495.6965 321.83417 495.6965 380.93308 460.77442 380.93308"/>
    <line class="cls-3" x1="317.86252" y1="144.53745" x2="261.44993" y2="144.53745"/>
    <polyline class="cls-3" points="347.41197 112.30168 347.41197 83.28949 308.72905 83.28949"/>
    <polyline class="cls-3" points="379.11048 111.76442 405.97362 111.76442 405.97362 91.8857 437.13486 91.8857"/>
    <polyline class="cls-3" points="525.24596 197.72647 544.58742 197.72647 544.58742 212.23256"/>
    <line class="cls-3" x1="456.47632" y1="215.45614" x2="456.47632" y2="233.18581"/>
    <line class="cls-3" x1="517.18701" y1="268.10789" x2="547.27373" y2="268.10789"/>
    <line class="cls-3" x1="208.79817" y1="219.21698" x2="208.79817" y2="254.67632"/>
    <polyline class="cls-3" points="160.44452 181.60858 149.162 181.60858 149.162 155.81997"/>
    <polyline class="cls-3" points="145.40116 302.49271 145.40116 318.6106 117.4635 318.6106"/>
    <line class="cls-3" x1="293.14843" y1="300.34366" x2="253.92825" y2="300.34366"/>
    <line class="cls-3" x1="310.34084" y1="247.15465" x2="336.66672" y2="247.15465"/>
    <polyline class="cls-3" points="552.64636 321.83417 552.64636 340.10111 573.59961 340.10111 573.59961 325.59501"/>
    <polyline class="cls-3" points="554.25815 307.32808 581.65855 307.32808 581.65855 249.3037"/>
    <path class="cls-3" d="M261.44993,119.2861s-.53726-23.63956,0-24.17683,27.93767,0,27.93767,0"/>
    <polyline class="cls-3" points="389.85573 112.30168 389.85573 89.19938 370.51427 89.19938"/>
    <polyline class="cls-3" points="452.71548 123.5842 452.71548 107.46632 428.53865 107.46632"/>
    <polyline class="cls-3" points="405.43635 381.47034 405.43635 411.55706 423.16603 411.55706 423.16603 383.08213 423.16603 440.03199"/>
    <polyline class="cls-3" points="477.42957 382.54487 477.42957 411.0198 449.4919 411.0198 449.4919 383.08213"/>
    <polyline class="cls-3" points="424.24055 428.74947 437.67212 428.74947 437.67212 451.85177"/>
    <line class="cls-3" x1="403.82457" y1="393.82739" x2="385.02037" y2="393.82739"/>
    <line class="cls-3" x1="422.0915" y1="362.66615" x2="422.0915" y2="347.08552"/>
    <polyline class="cls-3" points="127.13423 217.06793 127.13423 190.74205 137.34222 190.74205"/>
    <polyline class="cls-3" points="133.58138 269.18242 107.79277 269.18242 107.79277 243.39381"/>
    <polyline class="cls-3" points="360.84354 166.02796 336.12945 166.02796 336.12945 138.62756"/>
    <line class="cls-3" x1="437.9638" y1="185.17285" x2="437.9638" y2="165.29413"/>
    <line class="cls-3" x1="478.50409" y1="144.53745" x2="478.50409" y2="119.82336"/>
    <line class="cls-3" x1="552.64636" y1="340.10111" x2="552.64636" y2="355.14447"/>
    <line class="cls-3" x1="107.79277" y1="269.18242" x2="107.79277" y2="290.13567"/>
    <line class="cls-3" x1="234.58679" y1="155.81997" x2="212.55901" y2="155.81997"/>
    <line class="cls-3" x1="483.87672" y1="237.48391" x2="483.87672" y2="267.03337"/>
    <polyline class="cls-3" points="555.33267 229.42497 567.68972 229.42497 567.68972 207.93446"/>
    <line class="cls-3" x1="524.17143" y1="178.38501" x2="541.36384" y2="178.38501"/>
    <line class="cls-3" x1="523.09691" y1="196.65194" x2="503.75545" y2="196.65194"/>
    <line class="cls-3" x1="532.76764" y1="319.68512" x2="532.76764" y2="305.17903"/>
    <line class="cls-3" x1="354.93365" y1="312.70071" x2="320.54883" y2="312.70071"/>
    <line class="cls-3" x1="405.43635" y1="411.55706" x2="405.43635" y2="427.67494"/>
    <line class="cls-3" x1="423.16603" y1="307.86534" x2="434.98581" y2="307.86534"/>
    <line class="cls-3" x1="393.61657" y1="312.16344" x2="372.12606" y2="312.16344"/>
    <line class="cls-3" x1="367.2907" y1="364.8152" x2="349.56102" y2="364.8152"/>
    <polyline class="cls-3" points="199.12744 203.0991 179.78598 203.0991 179.78598 224.58961"/>
    <line class="cls-3" x1="271.12066" y1="260.58622" x2="310.8781" y2="260.58622"/>
    <circle class="cls-5" cx="208.3465" cy="121.82506" r="5.62702"/>
    <circle class="cls-5" cx="201.07082" cy="143.23627" r="5.62702"/>
    <circle class="cls-5" cx="148.72548" cy="157.09597" r="5.62702"/>
    <circle class="cls-5" cx="136.85113" cy="191.3087" r="5.62702"/>
    <circle class="cls-5" cx="108.0509" cy="244.59005" r="5.62702"/>
    <circle class="cls-5" cx="107.32686" cy="288.88905" r="5.62702"/>
    <circle class="cls-5" cx="118.10359" cy="318.58961" r="5.62702"/>
    <circle class="cls-5" cx="159.2" cy="279.31276" r="5.62702"/>
    <circle class="cls-5" cx="182.02318" cy="267.50347" r="5.62702"/>
    <circle class="cls-5" cx="200.01728" cy="272.89709" r="5.62702"/>
    <circle class="cls-5" cx="209.34803" cy="255.27445" r="5.62702"/>
    <circle class="cls-5" cx="167.63461" cy="320.57077" r="5.62702"/>
    <circle class="cls-5" cx="220.55289" cy="354.01747" r="5.62702"/>
    <circle class="cls-5" cx="239.40956" cy="204.66681" r="5.62702"/>
    <circle class="cls-5" cx="214.97669" cy="156.19773" r="5.62702"/>
    <circle class="cls-5" cx="226.7608" cy="103.91954" r="5.62702"/>
    <circle class="cls-5" cx="289.65202" cy="94.86793" r="5.62702"/>
    <circle class="cls-5" cx="296.3825" cy="120.31236" r="5.62702"/>
    <circle class="cls-5" cx="262.2873" cy="144.48079" r="5.62702"/>
    <circle class="cls-5" cx="320.07873" cy="185.7283" r="5.62702"/>
    <circle class="cls-5" cx="269.81737" cy="227.99997" r="5.62702"/>
    <circle class="cls-5" cx="295.49895" cy="233.63283" r="5.62702"/>
    <circle class="cls-5" cx="266.43849" cy="184.62019" r="5.62702"/>
    <circle class="cls-5" cx="336.24068" cy="139.90566" r="5.62702"/>
    <circle class="cls-5" cx="312.19398" cy="83.44689" r="5.62702"/>
    <circle class="cls-5" cx="370.45971" cy="89.53307" r="5.62702"/>
    <circle class="cls-5" cx="438.19889" cy="91.41979" r="5.62702"/>
    <circle class="cls-5" cx="424.20278" cy="124.24739" r="5.62702"/>
    <circle class="cls-5" cx="428.43792" cy="107.22917" r="5.62702"/>
    <circle class="cls-5" cx="478.54817" cy="120.65654" r="5.62702"/>
    <circle class="cls-5" cx="525.07596" cy="145.64346" r="5.62702"/>
    <circle class="cls-5" cx="387.12325" cy="170.97246" r="5.62702"/>
    <circle class="cls-5" cx="417.06306" cy="173.96308" r="5.62702"/>
    <circle class="cls-5" cx="437.71829" cy="165.9755" r="5.62702"/>
    <circle class="cls-5" cx="437.48324" cy="214.83073" r="5.62702"/>
    <circle class="cls-5" cx="456.90655" cy="232.96125" r="5.62702"/>
    <circle class="cls-5" cx="541.24631" cy="178.46895" r="5.62702"/>
    <circle class="cls-5" cx="502.05761" cy="196.89959" r="5.62702"/>
    <circle class="cls-5" cx="544.70914" cy="211.68691" r="5.62702"/>
    <circle class="cls-5" cx="567.84292" cy="209.03627" r="5.62702"/>
    <circle class="cls-5" cx="581.83064" cy="250.55661" r="5.62702"/>
    <circle class="cls-5" cx="554.11521" cy="268.67221" r="9.04975"/>
    <circle class="cls-5" cx="484.41398" cy="233.72308" r="5.62702"/>
    <circle class="cls-5" cx="483.87672" cy="269.18242" r="5.62702"/>
    <circle class="cls-5" cx="516.64975" cy="293.89651" r="5.62702"/>
    <circle class="cls-5" cx="573.59961" cy="325.59501" r="5.62702"/>
    <circle class="cls-5" cx="552.64636" cy="355.14447" r="5.62702"/>
    <circle class="cls-5" cx="552.1091" cy="377.17224" r="5.62702"/>
    <circle class="cls-5" cx="364.22534" cy="310.97686" r="10.40654"/>
    <circle class="cls-5" cx="368.90248" cy="242.85654" r="5.62702"/>
    <circle class="cls-5" cx="336.66672" cy="247.15465" r="5.62702"/>
    <circle class="cls-5" cx="323.98857" cy="225.17724" r="5.62702"/>
    <circle class="cls-5" cx="251.15379" cy="299.77702" r="5.62702"/>
    <circle class="cls-5" cx="321.65904" cy="313.46463" r="5.62702"/>
    <circle class="cls-5" cx="292.26069" cy="367.3525" r="5.62702"/>
    <circle class="cls-5" cx="276.27292" cy="346.8043" r="5.62702"/>
    <circle class="cls-5" cx="348.57674" cy="365.32518" r="5.62702"/>
    <circle class="cls-5" cx="434.65002" cy="308.59358" r="5.62702"/>
    <circle class="cls-5" cx="422.23001" cy="322.63587" r="5.62702"/>
    <circle class="cls-5" cx="532.32062" cy="306.63341" r="5.62702"/>
    <circle class="cls-5" cx="529.40974" cy="248.24806" r="5.62702"/>
    <circle class="cls-5" cx="457.51727" cy="317.43953" r="5.62702"/>
    <circle class="cls-5" cx="453.02901" cy="371.54522" r="17.38002"/>
    <circle class="cls-5" cx="422.18174" cy="348.48115" r="5.62702"/>
    <circle class="cls-5" cx="386.21242" cy="393.89664" r="5.62702"/>
    <circle class="cls-5" cx="404.99353" cy="426.04217" r="5.62702"/>
    <circle class="cls-5" cx="423.25837" cy="439.43806" r="5.62702"/>
    <circle class="cls-5" cx="438.23247" cy="452.22953" r="5.62702"/>
    <circle class="cls-5" cx="179.77759" cy="224.54554" r="5.62702"/>
    <circle class="cls-5" cx="267.89708" cy="261.12348" r="5.62702"/>
    <circle class="cls-5" cx="362.45533" cy="131.10588" r="5.62702"/>
    <circle class="cls-5" cx="127.13423" cy="236.94665" r="5.62702"/>
  </g>
  <g>
    <path class="cls-7" d="M1452.40264,197.69898c0,6.17102-1.39109,10.93002-4.16282,14.27701-2.77173,3.34699-6.67306,5.02049-11.71447,5.02049-5.08324,0-9.01596-1.68396-11.79815-5.05187-2.78219-3.36791-4.17328-8.11645-4.17328-14.24563v-8.34656c0-6.17102,1.38063-10.93002,4.15236-14.27701,2.77173-3.34699,6.69398-5.02049,11.75631-5.02049s8.98458,1.68396,11.76677,5.05187,4.17328,8.12691,4.17328,14.27701v8.31518ZM1441.82823,188.00316c0-3.28424-.42883-5.73172-1.2865-7.36338-.85767-1.61074-2.21738-2.42657-4.07915-2.42657-1.81993,0-3.14826.75307-3.97455,2.25922-.82629,1.50615-1.26558,3.78628-1.32834,6.84041v11.67263c0,3.40975.42883,5.90953,1.2865,7.48889s2.21738,2.36381,4.07915,2.36381c1.79901,0,3.12735-.77399,3.98501-2.30106.85767-1.54798,1.29696-3.95363,1.31788-7.23787v-11.2961Z"/>
    <path class="cls-7" d="M1489.80527,197.69898c0,6.17102-1.39109,10.93002-4.16282,14.27701-2.77173,3.34699-6.67306,5.02049-11.71447,5.02049-5.08324,0-9.01596-1.68396-11.79815-5.05187-2.78219-3.36791-4.17328-8.11645-4.17328-14.24563v-8.34656c0-6.17102,1.38063-10.93002,4.15236-14.27701,2.77173-3.34699,6.69398-5.02049,11.75631-5.02049s8.98458,1.68396,11.76677,5.05187,4.17328,8.12691,4.17328,14.27701v8.31518ZM1479.23087,188.00316c0-3.28424-.42883-5.73172-1.2865-7.36338-.85767-1.61074-2.21738-2.42657-4.07915-2.42657-1.81993,0-3.14826.75307-3.97455,2.25922-.82629,1.50615-1.26558,3.78628-1.32834,6.84041v11.67263c0,3.40975.42883,5.90953,1.2865,7.48889s2.21738,2.36381,4.07915,2.36381c1.79901,0,3.12735-.77399,3.98501-2.30106.85767-1.54798,1.29696-3.95363,1.31788-7.23787v-11.2961Z"/>
    <path class="cls-7" d="M1527.21836,197.69898c0,6.17102-1.39109,10.93002-4.16282,14.27701-2.77173,3.34699-6.67306,5.02049-11.71447,5.02049-5.08324,0-9.01596-1.68396-11.79815-5.05187-2.78219-3.36791-4.17328-8.11645-4.17328-14.24563v-8.34656c0-6.17102,1.38063-10.93002,4.15236-14.27701,2.77173-3.34699,6.69398-5.02049,11.75631-5.02049s8.98458,1.68396,11.76677,5.05187,4.17328,8.12691,4.17328,14.27701v8.31518ZM1516.64395,188.00316c0-3.28424-.42883-5.73172-1.2865-7.36338-.85767-1.61074-2.21738-2.42657-4.07915-2.42657-1.81993,0-3.14826.75307-3.97455,2.25922-.82629,1.50615-1.26558,3.78628-1.32834,6.84041v11.67263c0,3.40975.42883,5.90953,1.2865,7.48889s2.21738,2.36381,4.07915,2.36381c1.79901,0,3.12735-.77399,3.98501-2.30106.85767-1.54798,1.29696-3.95363,1.31788-7.23787v-11.2961Z"/>
    <path class="cls-7" d="M1556.33718,216.36892h-10.60578v-33.76278l-10.41751,3.04367v-8.03278l20.05057-6.93455h.97272v45.68643Z"/>
    <path class="cls-7" d="M1602.03408,197.69898c0,6.17102-1.39109,10.93002-4.16282,14.27701-2.77173,3.34699-6.67306,5.02049-11.71447,5.02049-5.08324,0-9.01596-1.68396-11.79815-5.05187-2.78219-3.36791-4.17328-8.11645-4.17328-14.24563v-8.34656c0-6.17102,1.38063-10.93002,4.15236-14.27701,2.77173-3.34699,6.69398-5.02049,11.75631-5.02049s8.98458,1.68396,11.76677,5.05187c2.78219,3.36791,4.17328,8.12691,4.17328,14.27701v8.31518ZM1591.45968,188.00316c0-3.28424-.42883-5.73172-1.2865-7.36338-.85767-1.61074-2.21738-2.42657-4.07915-2.42657-1.81993,0-3.14826.75307-3.97455,2.25922-.82629,1.50615-1.26558,3.78628-1.32834,6.84041v11.67263c0,3.40975.42883,5.90953,1.2865,7.48889s2.21738,2.36381,4.07915,2.36381c1.79901,0,3.12735-.77399,3.98501-2.30106.85767-1.54798,1.29696-3.95363,1.31788-7.23787v-11.2961Z"/>
    <path class="cls-7" d="M1639.43671,197.69898c0,6.17102-1.39109,10.93002-4.16282,14.27701-2.77173,3.34699-6.67306,5.02049-11.71447,5.02049-5.08324,0-9.01596-1.68396-11.79815-5.05187-2.78219-3.36791-4.17328-8.11645-4.17328-14.24563v-8.34656c0-6.17102,1.38063-10.93002,4.15236-14.27701,2.77173-3.34699,6.69398-5.02049,11.75631-5.02049s8.98458,1.68396,11.76677,5.05187c2.78219,3.36791,4.17328,8.12691,4.17328,14.27701v8.31518ZM1628.86231,188.00316c0-3.28424-.42883-5.73172-1.2865-7.36338-.85767-1.61074-2.21738-2.42657-4.07915-2.42657-1.81993,0-3.14826.75307-3.97455,2.25922-.82629,1.50615-1.26558,3.78628-1.32834,6.84041v11.67263c0,3.40975.42883,5.90953,1.2865,7.48889s2.21738,2.36381,4.07915,2.36381c1.79901,0,3.12735-.77399,3.98501-2.30106.85767-1.54798,1.29696-3.95363,1.31788-7.23787v-11.2961Z"/>
    <path class="cls-7" d="M1668.56599,216.36892h-10.60578v-33.76278l-10.41751,3.04367v-8.03278l20.05057-6.93455h.97272v45.68643Z"/>
    <path class="cls-7" d="M1705.96862,216.36892h-10.60578v-33.76278l-10.41751,3.04367v-8.03278l20.05057-6.93455h.97272v45.68643Z"/>
    <path class="cls-7" d="M1751.65506,197.69898c0,6.17102-1.39109,10.93002-4.16282,14.27701-2.77173,3.34699-6.67306,5.02049-11.71447,5.02049-5.08324,0-9.01596-1.68396-11.79815-5.05187-2.78219-3.36791-4.17328-8.11645-4.17328-14.24563v-8.34656c0-6.17102,1.38063-10.93002,4.15236-14.27701,2.77173-3.34699,6.69398-5.02049,11.75631-5.02049s8.98458,1.68396,11.76677,5.05187,4.17328,8.12691,4.17328,14.27701v8.31518ZM1741.08066,188.00316c0-3.28424-.42883-5.73172-1.2865-7.36338-.85767-1.61074-2.21738-2.42657-4.07915-2.42657-1.81993,0-3.14826.75307-3.97455,2.25922-.82629,1.50615-1.26558,3.78628-1.32834,6.84041v11.67263c0,3.40975.42883,5.90953,1.2865,7.48889s2.21738,2.36381,4.07915,2.36381c1.79901,0,3.12735-.77399,3.98501-2.30106.85767-1.54798,1.29696-3.95363,1.31788-7.23787v-11.2961Z"/>
    <path class="cls-7" d="M1789.06815,197.69898c0,6.17102-1.39109,10.93002-4.16282,14.27701s-6.67306,5.02049-11.71447,5.02049c-5.08324,0-9.01596-1.68396-11.79815-5.05187-2.78219-3.36791-4.17328-8.11645-4.17328-14.24563v-8.34656c0-6.17102,1.38063-10.93002,4.15236-14.27701,2.77173-3.34699,6.69398-5.02049,11.75631-5.02049s8.98458,1.68396,11.76677,5.05187c2.78219,3.36791,4.17328,8.12691,4.17328,14.27701v8.31518ZM1778.49375,188.00316c0-3.28424-.42883-5.73172-1.2865-7.36338-.85767-1.61074-2.21738-2.42657-4.07915-2.42657-1.81993,0-3.14826.75307-3.97455,2.25922-.82629,1.50615-1.26558,3.78628-1.32834,6.84041v11.67263c0,3.40975.42883,5.90953,1.2865,7.48889s2.21738,2.36381,4.07915,2.36381c1.79901,0,3.12735-.77399,3.98501-2.30106.85767-1.54798,1.29696-3.95363,1.31788-7.23787v-11.2961Z"/>
    <path class="cls-7" d="M1444.11883,280.63115h-10.60578v-33.76278l-10.41751,3.04367v-8.03278l20.05057-6.93455h.97272v45.68643Z"/>
    <path class="cls-7" d="M1481.52146,280.63115h-10.60578v-33.76278l-10.41751,3.04367v-8.03278l20.05057-6.93455h.97272v45.68643Z"/>
    <path class="cls-7" d="M1518.93455,280.63115h-10.60578v-33.76278l-10.41751,3.04367v-8.03278l20.05057-6.93455h.97272v45.68643Z"/>
    <path class="cls-7" d="M1556.33718,280.63115h-10.60578v-33.76278l-10.41751,3.04367v-8.03278l20.05057-6.93455h.97272v45.68643Z"/>
    <path class="cls-7" d="M1602.03408,261.96122c0,6.17102-1.39109,10.93002-4.16282,14.27701-2.77173,3.34699-6.67306,5.02049-11.71447,5.02049-5.08324,0-9.01596-1.68396-11.79815-5.05187s-4.17328-8.11645-4.17328-14.24563v-8.34656c0-6.17102,1.38063-10.93002,4.15236-14.27701s6.69398-5.02049,11.75631-5.02049,8.98458,1.68396,11.76677,5.05187,4.17328,8.12691,4.17328,14.27701v8.31518ZM1591.45968,252.2654c0-3.28424-.42883-5.73172-1.2865-7.36338-.85767-1.61074-2.21738-2.42657-4.07915-2.42657-1.81993,0-3.14826.75307-3.97455,2.25922-.82629,1.50615-1.26558,3.78628-1.32834,6.84041v11.67263c0,3.40975.42883,5.90953,1.2865,7.48889.85767,1.57936,2.21738,2.36381,4.07915,2.36381,1.79901,0,3.12735-.77399,3.98501-2.30106.85767-1.54798,1.29696-3.95363,1.31788-7.23787v-11.2961Z"/>
    <path class="cls-7" d="M1631.1529,280.63115h-10.60578v-33.76278l-10.41751,3.04367v-8.03278l20.05057-6.93455h.97272v45.68643Z"/>
    <path class="cls-7" d="M1676.8498,261.96122c0,6.17102-1.39109,10.93002-4.16282,14.27701s-6.67306,5.02049-11.71447,5.02049c-5.08324,0-9.01596-1.68396-11.79815-5.05187-2.78219-3.36791-4.17328-8.11645-4.17328-14.24563v-8.34656c0-6.17102,1.38063-10.93002,4.15236-14.27701,2.77173-3.34699,6.69398-5.02049,11.75631-5.02049s8.98458,1.68396,11.76677,5.05187,4.17328,8.12691,4.17328,14.27701v8.31518ZM1666.2754,252.2654c0-3.28424-.42883-5.73172-1.2865-7.36338-.85767-1.61074-2.21738-2.42657-4.07915-2.42657-1.81993,0-3.14826.75307-3.97455,2.25922-.82629,1.50615-1.26558,3.78628-1.32834,6.84041v11.67263c0,3.40975.42883,5.90953,1.2865,7.48889.85767,1.57936,2.21738,2.36381,4.07915,2.36381,1.79901,0,3.12735-.77399,3.98501-2.30106.85767-1.54798,1.29696-3.95363,1.31788-7.23787v-11.2961Z"/>
    <path class="cls-7" d="M1705.96862,280.63115h-10.60578v-33.76278l-10.41751,3.04367v-8.03278l20.05057-6.93455h.97272v45.68643Z"/>
    <path class="cls-7" d="M1751.65506,261.96122c0,6.17102-1.39109,10.93002-4.16282,14.27701s-6.67306,5.02049-11.71447,5.02049c-5.08324,0-9.01596-1.68396-11.79815-5.05187s-4.17328-8.11645-4.17328-14.24563v-8.34656c0-6.17102,1.38063-10.93002,4.15236-14.27701,2.77173-3.34699,6.69398-5.02049,11.75631-5.02049s8.98458,1.68396,11.76677,5.05187,4.17328,8.12691,4.17328,14.27701v8.31518ZM1741.08066,252.2654c0-3.28424-.42883-5.73172-1.2865-7.36338-.85767-1.61074-2.21738-2.42657-4.07915-2.42657-1.81993,0-3.14826.75307-3.97455,2.25922s-1.26558,3.78628-1.32834,6.84041v11.67263c0,3.40975.42883,5.90953,1.2865,7.48889.85767,1.57936,2.21738,2.36381,4.07915,2.36381,1.79901,0,3.12735-.77399,3.98501-2.30106.85767-1.54798,1.29696-3.95363,1.31788-7.23787v-11.2961Z"/>
    <path class="cls-7" d="M1780.78434,280.63115h-10.60578v-33.76278l-10.41751,3.04367v-8.03278l20.05057-6.93455h.97272v45.68643Z"/>
    <path class="cls-7" d="M1452.40264,326.22345c0,6.17102-1.39109,10.93002-4.16282,14.27701-2.77173,3.34699-6.67306,5.02049-11.71447,5.02049-5.08324,0-9.01596-1.68396-11.79815-5.05187-2.78219-3.36791-4.17328-8.11645-4.17328-14.24563v-8.34656c0-6.17102,1.38063-10.93002,4.15236-14.27701,2.77173-3.34699,6.69398-5.02049,11.75631-5.02049s8.98458,1.68396,11.76677,5.05187c2.78219,3.36791,4.17328,8.12691,4.17328,14.27701v8.31518ZM1441.82823,316.52764c0-3.28424-.42883-5.73172-1.2865-7.36338-.85767-1.61074-2.21738-2.42657-4.07915-2.42657-1.81993,0-3.14826.75307-3.97455,2.25922-.82629,1.50615-1.26558,3.78628-1.32834,6.84041v11.67263c0,3.40975.42883,5.90953,1.2865,7.48889s2.21738,2.36381,4.07915,2.36381c1.79901,0,3.12735-.77399,3.98501-2.30106.85767-1.54798,1.29696-3.95363,1.31788-7.23787v-11.2961Z"/>
    <path class="cls-7" d="M1481.52146,344.89339h-10.60578v-33.76278l-10.41751,3.04367v-8.03278l20.05057-6.93455h.97272v45.68643Z"/>
    <path class="cls-7" d="M1527.21836,326.22345c0,6.17102-1.39109,10.93002-4.16282,14.27701-2.77173,3.34699-6.67306,5.02049-11.71447,5.02049-5.08324,0-9.01596-1.68396-11.79815-5.05187-2.78219-3.36791-4.17328-8.11645-4.17328-14.24563v-8.34656c0-6.17102,1.38063-10.93002,4.15236-14.27701,2.77173-3.34699,6.69398-5.02049,11.75631-5.02049s8.98458,1.68396,11.76677,5.05187c2.78219,3.36791,4.17328,8.12691,4.17328,14.27701v8.31518ZM1516.64395,316.52764c0-3.28424-.42883-5.73172-1.2865-7.36338-.85767-1.61074-2.21738-2.42657-4.07915-2.42657-1.81993,0-3.14826.75307-3.97455,2.25922-.82629,1.50615-1.26558,3.78628-1.32834,6.84041v11.67263c0,3.40975.42883,5.90953,1.2865,7.48889s2.21738,2.36381,4.07915,2.36381c1.79901,0,3.12735-.77399,3.98501-2.30106.85767-1.54798,1.29696-3.95363,1.31788-7.23787v-11.2961Z"/>
    <path class="cls-7" d="M1556.33718,344.89339h-10.60578v-33.76278l-10.41751,3.04367v-8.03278l20.05057-6.93455h.97272v45.68643Z"/>
    <path class="cls-7" d="M1602.03408,326.22345c0,6.17102-1.39109,10.93002-4.16282,14.27701-2.77173,3.34699-6.67306,5.02049-11.71447,5.02049-5.08324,0-9.01596-1.68396-11.79815-5.05187-2.78219-3.36791-4.17328-8.11645-4.17328-14.24563v-8.34656c0-6.17102,1.38063-10.93002,4.15236-14.27701,2.77173-3.34699,6.69398-5.02049,11.75631-5.02049s8.98458,1.68396,11.76677,5.05187c2.78219,3.36791,4.17328,8.12691,4.17328,14.27701v8.31518ZM1591.45968,316.52764c0-3.28424-.42883-5.73172-1.2865-7.36338-.85767-1.61074-2.21738-2.42657-4.07915-2.42657-1.81993,0-3.14826.75307-3.97455,2.25922-.82629,1.50615-1.26558,3.78628-1.32834,6.84041v11.67263c0,3.40975.42883,5.90953,1.2865,7.48889s2.21738,2.36381,4.07915,2.36381c1.79901,0,3.12735-.77399,3.98501-2.30106.85767-1.54798,1.29696-3.95363,1.31788-7.23787v-11.2961Z"/>
    <path class="cls-7" d="M1631.1529,344.89339h-10.60578v-33.76278l-10.41751,3.04367v-8.03278l20.05057-6.93455h.97272v45.68643Z"/>
    <path class="cls-7" d="M1676.8498,326.22345c0,6.17102-1.39109,10.93002-4.16282,14.27701-2.77173,3.34699-6.67306,5.02049-11.71447,5.02049-5.08324,0-9.01596-1.68396-11.79815-5.05187-2.78219-3.36791-4.17328-8.11645-4.17328-14.24563v-8.34656c0-6.17102,1.38063-10.93002,4.15236-14.27701,2.77173-3.34699,6.69398-5.02049,11.75631-5.02049s8.98458,1.68396,11.76677,5.05187c2.78219,3.36791,4.17328,8.12691,4.17328,14.27701v8.31518ZM1666.2754,316.52764c0-3.28424-.42883-5.73172-1.2865-7.36338-.85767-1.61074-2.21738-2.42657-4.07915-2.42657-1.81993,0-3.14826.75307-3.97455,2.25922-.82629,1.50615-1.26558,3.78628-1.32834,6.84041v11.67263c0,3.40975.42883,5.90953,1.2865,7.48889s2.21738,2.36381,4.07915,2.36381c1.79901,0,3.12735-.77399,3.98501-2.30106.85767-1.54798,1.29696-3.95363,1.31788-7.23787v-11.2961Z"/>
    <path class="cls-7" d="M1714.25243,326.22345c0,6.17102-1.39109,10.93002-4.16282,14.27701-2.77173,3.34699-6.67306,5.02049-11.71447,5.02049-5.08324,0-9.01596-1.68396-11.79815-5.05187-2.78219-3.36791-4.17328-8.11645-4.17328-14.24563v-8.34656c0-6.17102,1.38063-10.93002,4.15236-14.27701,2.77173-3.34699,6.69398-5.02049,11.75631-5.02049s8.98458,1.68396,11.76677,5.05187c2.78219,3.36791,4.17328,8.12691,4.17328,14.27701v8.31518ZM1703.67803,316.52764c0-3.28424-.42883-5.73172-1.2865-7.36338-.85767-1.61074-2.21738-2.42657-4.07915-2.42657-1.81993,0-3.14826.75307-3.97455,2.25922-.82629,1.50615-1.26558,3.78628-1.32834,6.84041v11.67263c0,3.40975.42883,5.90953,1.2865,7.48889s2.21738,2.36381,4.07915,2.36381c1.79901,0,3.12735-.77399,3.98501-2.30106.85767-1.54798,1.29696-3.95363,1.31788-7.23787v-11.2961Z"/>
    <path class="cls-7" d="M1751.65506,326.22345c0,6.17102-1.39109,10.93002-4.16282,14.27701-2.77173,3.34699-6.67306,5.02049-11.71447,5.02049-5.08324,0-9.01596-1.68396-11.79815-5.05187-2.78219-3.36791-4.17328-8.11645-4.17328-14.24563v-8.34656c0-6.17102,1.38063-10.93002,4.15236-14.27701s6.69398-5.02049,11.75631-5.02049,8.98458,1.68396,11.76677,5.05187c2.78219,3.36791,4.17328,8.12691,4.17328,14.27701v8.31518ZM1741.08066,316.52764c0-3.28424-.42883-5.73172-1.2865-7.36338-.85767-1.61074-2.21738-2.42657-4.07915-2.42657-1.81993,0-3.14826.75307-3.97455,2.25922-.82629,1.50615-1.26558,3.78628-1.32834,6.84041v11.67263c0,3.40975.42883,5.90953,1.2865,7.48889.85767,1.57936,2.21738,2.36381,4.07915,2.36381,1.79901,0,3.12735-.77399,3.98501-2.30106.85767-1.54798,1.29696-3.95363,1.31788-7.23787v-11.2961Z"/>
    <path class="cls-7" d="M1789.06815,326.22345c0,6.17102-1.39109,10.93002-4.16282,14.27701-2.77173,3.34699-6.67306,5.02049-11.71447,5.02049-5.08324,0-9.01596-1.68396-11.79815-5.05187-2.78219-3.36791-4.17328-8.11645-4.17328-14.24563v-8.34656c0-6.17102,1.38063-10.93002,4.15236-14.27701,2.77173-3.34699,6.69398-5.02049,11.75631-5.02049s8.98458,1.68396,11.76677,5.05187c2.78219,3.36791,4.17328,8.12691,4.17328,14.27701v8.31518ZM1778.49375,316.52764c0-3.28424-.42883-5.73172-1.2865-7.36338-.85767-1.61074-2.21738-2.42657-4.07915-2.42657-1.81993,0-3.14826.75307-3.97455,2.25922-.82629,1.50615-1.26558,3.78628-1.32834,6.84041v11.67263c0,3.40975.42883,5.90953,1.2865,7.48889.85767,1.57936,2.21738,2.36381,4.07915,2.36381,1.79901,0,3.12735-.77399,3.98501-2.30106.85767-1.54798,1.29696-3.95363,1.31788-7.23787v-11.2961Z"/>
  </g>
  <path class="cls-7" d="M1843.21554,107.5054h-461.30565v288.99775l-.07648-5.22812-121.66314,19.03446.07322,17.78802,3.15872,3.1378c3.29469,3.27378,7.53073,7.52027,244.07936,7.52027,57.12896,0,127.84462-.25102,215.32661-.81583l120.57537-23.02103-.168-307.41333ZM1394.61712,120.21262h435.8912v273.1658l-435.8912-3.48541V120.21262ZM1725.16397,420.01488c-143.97293.93088-366.96157-2.3035-438.48259-4.76145l106.32995-16.49929,433.45537,2.40235-101.30273,18.85838Z"/>
</svg>