<?xml version="1.0" encoding="UTF-8"?>
<svg id="Ebene_2" data-name="Ebene 2" xmlns="http://www.w3.org/2000/svg" viewBox="0 0 1920 766.97859">
  <defs>
    <style>
      .cls-1, .cls-2, .cls-3 {
        fill: none;
      }

      .cls-4 {
        fill: #ef9200;
      }

      .cls-2 {
        stroke: #acbec6;
        stroke-width: 5.24833px;
      }

      .cls-2, .cls-3 {
        stroke-miterlimit: 10;
      }

      .cls-5 {
        fill: #0b425b;
      }

      .cls-6 {
        fill: #f9c000;
      }

      .cls-7 {
        fill: #aebfc7;
      }

      .cls-8 {
        fill: #f3f5f7;
      }

      .cls-9 {
        fill: #bace10;
      }

      .cls-3 {
        stroke: #0b425b;
        stroke-width: 10.46277px;
      }

      .cls-10 {
        fill: #7996a5;
      }

      .cls-11 {
        fill: #8f172e;
      }
    </style>
  </defs>
  <rect class="cls-8" x="-21.45406" y="-9.72683" width="1953.01137" height="794.49767"/>
  <g>
    <ellipse class="cls-7" cx="1607.73452" cy="501.7451" rx="233.69205" ry="223.80742"/>
    <g>
      <g>
        <path class="cls-10" d="M1475.12776,535.56683c.34843-.56136.00394-.88757-.25429-1.05931-.51969-.34218-1.54089-.725-2.97484-.3208-.9688-1.88414-2.07127-3.65707-3.21009-5.33375-1.53126-2.24984-2.98553-4.38848-3.87521-6.77519l-.1882-2.54925c-.48761-7.0746-1.02654-15.00466-9.26456-18.54624,3.13952-5.20116,9.74362-17.0663,7.27991-20.99284-.34218-.54749-.90678-.91534-1.54837-1.00088-4.84187-.70147-7.10882,2.79733-8.78551,5.32948-1.83923,2.78022-2.76312,3.73833-4.6109,3.41326-.27375-.0941-6.51856-2.18141-7.09171-10.65895.1882-.34218.41917-.78702.72714-1.36873,13.40496-25.7235,18.82854-27.25476,20.25715-27.1521.88967.08555,1.79645,1.42005,2.48937,3.66134.23097.72714,1.07787,1.34306,1.82212,1.53126l1.21474.17109c.5646.04277,1.06932-.02566,1.52271-.35074.89823-.48761,5.43213-1.14631,8.43477-1.58259,4.36281-.63304,7.21148-1.08643,9.07636-1.61681.60737,2.11297.82979,6.2277-1.45427,13.91823-.35074,1.19764-.12832,1.95899.26519,2.4466.25664.941.67581,3.23362.95811,4.82476,1.02654,5.62889,1.23185,6.58699,2.30973,7.28847.51327.32507,1.18053.41917,1.76223.29941.74424-.1882,1.34306-.74424,1.56548-1.47994,1.25752-4.03774,2.13008-8.24657,2.97698-12.32709,2.37816-11.48874,4.62801-22.3359,15.04743-27.16066.22242-.10265.43628-.24808.61593-.42773,1.27463-1.25752,2.12153-2.77167,2.823-4.35426.23097-.04277.4705-.11976.68436-.23953,2.02743-1.1292,2.823-1.81356,4.92741-5.62889.50472-.07699.97522-.33363,1.3174-.73569,2.61769-3.04542,6.00529-5.16694,7.78463-6.15071.01711-.00855.04277-.02566.05988-.03422.19675-.04277.4705-.10265.52183-.10265.71003.27375,1.55693.11976,2.1643-.3764.08555-.06844.1882-.14543.30796-.21386.49616.35074,1.09498.50472,1.68524.38495,2.64335-.48761,3.03686-.59882,4.55957-1.93333.48761-.42773.76135-1.04365.74424-1.6938,0-.02566-.05133-1.04365-.05133-1.06932,0-.36785-.0941-.72714-.26519-1.0351,1.0351-.76135,2.61769-1.86489,4.78199-3.35338.07699-.00855.15398-.02566.23097-.04277.77846-.17965,1.77079-.48761,2.85722-.8469-.10265.35074-.14543.72714-.17109,1.18053-.04277.63304.1882,1.24896.63304,1.6938.45339.44484,1.11209.72714,1.6938.63304,6.16782-.41062,16.8781-7.84451,19.33326-10.75305.47905-.57315.62448-1.34306.41062-2.05309-.22242-.71003-.78702-1.26607-1.5056-1.47138-1.57404-.43628-3.18229-.88967-5.24393-.32507-.0941-.4705-.20531-1.06932-.35929-1.85633-.00855-.05133-.01711-.10265-.03422-.15398.34218-.25664.68436-.54749,1.04365-.86401,9.13625-1.80501,18.46069-3.74689,21.92528-9.87194,1.72802-3.06252,1.79645-6.86074.20531-11.27488-.25664-.71003-.85545-1.23185-1.59114-1.39439l-1.77079-.3764c-.35074-1.35162.0941-2.80589.80413-4.85898.92389-2.66902,2.0702-5.98818.05988-9.46132-.07699-.12832-.16254-.24808-.25664-.35074.29085-.23097.50472-.53038.64159-.85545.55604.1882,1.16342.15398,1.6938-.11121.55604-.27375-.35904-.82401-.18795-1.42283.08555-.33363,1.48824-.61315,1.55668-.95533.79557-.31652,1.34306-1.08643,1.37728-1.95899.01497-.44911.01604-.70147.0278-1.08001.45125-.31438.80627-.75066.92175-1.32381,0-.00855.00855-.02566.00855-.04277.11976-.53038.07699-1.15486-.16254-1.61681-.13687-.27161-.45553-.37212-.69292-.56888.27161,0,.54642.00642.83834.02139,1.95043.05133,4.33715.13687,6.45868-1.77934.66725-.59882.89823-1.54837.58171-2.39527-.53038-1.40294-.7528-1.77934-3.30205-4.08051.25664-.22242.46195-.51327.59026-.8469.11121-.29941.16254-.61593.13687-.93244.23097-.25664.40206-.5646.49616-.91534.19675-.77846-.04277-1.60825-.63304-2.15574-.38495-.35074-.72714-.88112-1.10354-1.43716-.63304-.96666-1.36017-2.05309-2.58347-2.88288-.31652-.20531-.66725-.32507-1.0351-.35929-.02566-.0941-.05988-.19675-.08555-.29085-.31652-1.02654-.66725-2.18141-1.46283-3.25072-.36785-.49616-.91534-.81268-1.52271-.87256-.4705-.07699-.99233-.03422-1.49704.05988-.19675-.08555-.41062-.13687-.62448-.16254-.29941-.04277-1.0351-.0941-2.06164.02566-.22242-.17965-.48761-.31652-.77846-.40206l-1.4115-.41062c-.3764-.11121-.77846-.11976-1.17197-.02566-.72714.1882-1.61681.44484-2.59203.81268-.24808-.08555-.51327-.0941-.78702-.10265-.12832.00855-11.83093,1.51415-15.38961,6.51-3.68701-.13687-4.88464.52183-6.33036,2.13008-.23097.25664-.35074.5646-.38495.89823-.89823.3764-1.54837.45339-2.04453.38495.02566-.62448-.21386-1.25752-.70147-1.70235-1.5997-1.49704-3.07108-2.20707-4.52535-1.9761-1.10354.11976-1.94188.66725-2.60058,1.32595h-1.08643c.00855-.17965-.00855-.36785-.05133-.54749-.0941-.44484-.26519-1.05221-.40206-1.49704-.17109-.54749-.54749-1.01799-1.06076-1.29174-.941-.50472-1.90766-.71858-2.78022-.88112,0-.16254-.01711-.34218-.05133-.50472-.17109-.78702-.74424-1.39439-1.47994-1.62536-.06844-.68436-.45339-1.29174-1.0351-1.65103-.6587-.40206-1.47138-.43628-2.14719-.08555-2.71179,1.42005-6.57844-.76135-11.0268-3.26783-6.93773-3.89231-16.25362-9.1448-25.92025-1.34306-3.22506-.99233-4.99585-.35929-6.3218.41062-.29085.17109-.53894.39351-.71858.66725-1.44572.42773-2.06164.91534-2.9171,2.53214-.10265.19675-.17109.39351-.21386.60737-9.43566,1.75368-10.30822,2.19852-14.36307,5.40647-.3764.29941-.63304.70147-.7528,1.13775-.44484.19675-.88112.40206-1.32595.60737-.58171.27375-1.01799.79557-1.18053,1.42005-.0941.32507-.10265.66725-.03422,1.00088-1.95899.44484-5.39791,1.17197-11.63417,2.47226-.89823.1882-1.57404.92389-1.71091,1.83067-.12832.90678.31652,1.80501,1.1292,2.24129.95811.53038,1.9761,1.10354,8.98227.72714.05988.11976.21172.15612.29299.26305.13473.17537.27375.28016.45553.41062.1604.11762.24167.31438.432.38709,3.61002,1.33451,7.05749-.68436,8.36634-1.62536.3764-.26519.65014-.64159.79557-1.06932.06844-.02566.14543-.05133.21386-.07699.31652.10265.68436.12832,1.01799.05988.941-.17965,1.94188.06844,3.1053.33363.17109.04277.34218.07699.52183.11976-.04277.35929,0,.73569.14543,1.09498.33363.79557,1.10354,1.32595,1.96754,1.35162.11976,0,.23953.00855.35929.00855-1.34306,1.9761-3.18229,3.61002-5.10706,5.32092-2.06164,1.83067-4.20028,3.72978-5.8513,6.18493-.49616.73569-.50472,1.6938-.00855,2.43804.00855.00855.01711.02566.02566.04277-2.04453,2.26695-4.18317,4.74777-5.80853,6.8864l-.55604-.12832c-.77846-.20531-1.56548.05988-2.09586.62448-32.52435,34.54322-34.94529,42.83257-38.60663,55.38208-1.34306,4.59379-2.85722,9.79495-6.14216,17.18607-.1882.42773-.23953.90678-.13687,1.36017.42773,1.93333-.34218,6.96339-.95811,11.00969-1.10354,7.28847-1.61681,11.18078-.15398,13.13122.48761.65014,1.19764,1.06932,1.98465,1.17197.99233.08555,1.90766-.41917,2.30117-1.3174,2.18141-5.16694,2.89143-10.64185,3.5758-15.9371.05988-.44484.11976-.88967.17109-1.33451-.02566.40206-.05133.81268-.07699,1.21474-1.61681,23.43088-3.62712,52.58475,29.18808,67.78616,3.49881,2.37816,3.67845,6.18493,3.89231,10.59907.23953,4.86753.50472,10.39376,5.79998,14.00378.3764.25664.80413.38495,1.23185.38495h.01711c.0941.44484.32507.8469.66725,1.16342l.94955.81268c.41062.35074.92389.53894,1.44572.53894.31652,0,.63304-.06844.92389-.20531,1.30884-.61593,2.54925-1.33451,3.78966-2.06164l1.38584-.79129c.27802.19034.41189.39079.91518.23593.44522-.36779,2.6326-3.77468,2.6326-3.77468ZM1549.92671,350.65338c.00642-.01283.02352-.01283.02994-.02566.27375-.05988.5646-.13687.88112-.22242.00855.11976.02566.24808.05988.36785.21386.85545.92389,1.49704,1.79645,1.62536,4.09762.61593,6.34747.95811,7.75041,1.0351-2.38672,1.9761-4.37137,5.01296-6.00529,7.51088-6.09939,9.41855-12.64361,15.29551-16.96365,18.51202,1.36017-2.31828,2.823-4.22594,3.59291-5.1755.50472-.62448.63304-1.47994.31652-2.22418-1.36873-3.25928-5.21827-5.86841-8.94805-7.72475.60737-.71003,1.00944-1.2233,1.65103-2.06164.39351-.50472.47905-1.18908.35074-1.80501-.04277-.20531-.11976-.41062-.22242-.59882,4.83331-3.33627,12.19022-7.44245,14.44006-8.13537.02032-.00642.02566-.03208.04598-.0385.56353-.17965.96132-.52183,1.22437-1.03938ZM1575.44917,340.80711c-.3764.5646-.46195,1.25752-.26519,1.87344-.71858.68436-1.43716,1.40294-2.09586,2.19852-6.84363.68436-7.01472.76135-7.93006,2.27551-.0278.04705-.01925.10265-.04277.1497-.02566.04063-.0524.0663-.07699.10693-.12832.20531-.23097.41917-.2823.58171v.01711c-.35074,1.16342.30796,2.37816,1.46283,2.7289.20531.05988.41917.0941.63304.0941.20531,0,.38175-.10693.57529-.16254,1.68311.29727,3.93636.37024,5.45907,2.3335,1.38584,1.7879,2.32513,3.45661,4.79739,4.39761-1.80501,1.66813-4.048,4.4069-5.49372,5.29657.14115-.60737.40741-1.31954.68222-2.07234.57957-.27161,1.06504-.66725,1.28532-1.21261.10265-.25664.14543-.35074.14543-.63304.03422-.30796-.00855-.73569-.10265-1.0351-.28016-.85545-1.1046-1.36017-1.97396-1.4115-.01711-.43842-.1219-.87256-.4042-1.24041-1.96754-2.56636-4.3286-3.74689-6.56989-3.72978-.27268.01711-.5368.04277-.7945.08768.08234-.23097.18713-.45553.18713-.71217,0-.48333-.24808-.8747-.51327-1.23827-.07057-.23311-.14543-1.1014-.23953-2.53428.79557-.59882,1.17993-2.96968,2.19792-3.50006,2.30973-1.2233,5.68081-.84565,7.0752-3.98516.64159.05133,1.24896.07699,1.83923.02566.04277.17965.0941.35074.16254.49616l.34218.71858c-.01711.02566-.04277.05988-.05988.08555ZM1572.22411,356.61589l-.03101.08982c.00428-.03208.00535-.06202.00749-.0941.00749.00214.01711.00214.02352.00428ZM1573.0539,360.23446c-.02352.02352-.04063.01283-.06416.03422.01069-.0278.01283-.04491.02352-.07485l.04063.04063Z"/>
        <path class="cls-10" d="M1640.59198,329.67765c-.05988-.34218-.17965-.73569-.43628-1.13775.0941-.12832.19675-.27375.2823-.42773.01711-.03422.03422-.06844.05133-.11121.63304-.41917,1.00944-.91534,1.21474-1.81356.11976-.5646.02566-1.14631-.27375-1.63392-.24808-.4042-.54963-.60096-.86722-.8084.15826-.38495.22883-.80627.18285-1.20191-.03422-.27375-.11121-.53894-.24808-.77846-.03422-.06416-.14115-.15398-.20959-.2438-.29192-1.373-.67581-2.51503-1.78362-3.09247-.12832-.17965-.2823-.38495-.47905-.59026,1.12064-.77846,2.36961-1.77079,2.60058-3.33627.10265-.67581.03422-1.71946-.83834-2.80589-.59026-.71858-1.57404-.98377-2.43804-.67581-.05133.01711-.10265.03422-.15398.05988-.76135.11121-2.9171-.04277-4.13184-.1882-1.44572-1.43716-2.21563-1.46283-7.66487-.40206-2.38672-1.65103-4.9103-.40206-6.61266.44484-1.49704.74424-2.22418,1.01799-2.60058.71003-.74424-.53038-1.72802-.54749-2.48937-.05133-.1882.12832-.35074.27375-.48761.44484-1.00088-.01711-1.70235.29085-2.14719,1.13775-4.12329.43628-11.52296,1.57404-12.35275,4.14895-1.84778.05988-4.32004.19675-6.08228,2.65191-.42773.59026-.51327,1.33451-.29085,1.99321-.07699.1882-.11976.38495-.14543.59026-.17965,1.80501.49616,2.89143,1.08643,3.4817,1.55693,1.53126,3.86665,1.29174,6.12505,1.0351.83834-.0941,2.34394-.25664,2.78022.06844-.54749,1.51415-.46195,2.60913-.17109,3.37049-.16254.2823-.32507.59026-.44484.94955-.10265.29085-.13687.59882-.11121.89823-.32507.89823-.35074,1.77934-.04277,2.55781.02566.08555.06844.17109.10265.24808-.941,1.40294-1.53126,3.09674-.82124,4.54246.12832.25664.31652.54749.59026.81268-1.45427,2.0702-1.74513,3.03686-1.5056,4.40559.01711.11976.05133.23953.0941.35074-2.27551,6.81797.33363,9.88049,6.14216,16.69846.42773.49616,1.0351.76991,1.66813.76991.24808,0,.50472-.04277.74424-.12832,5.1926-1.882,16.43327-11.80526,20.78753-19.86364,4.97874,1.61681,9.59819-3.77255,11.53152-6.06517.20531-.08555.41062-.19675.60737-.31652.81268-.49616,1.20619-1.46283.98377-2.37816-.21386-.86401-.50472-1.48849-2.01032-2.85722.21386-.49616.32507-1.04365.26519-1.46283Z"/>
        <path class="cls-10" d="M1694.51123,380.97066c.00855-.71003-.23097-1.61681-1.24041-2.37816-.11121-2.89999-.34218-4.57668-1.90766-5.41502-.93244-.48761-1.86489-.36785-2.67757-.07699-.83834-1.01799-1.89911-2.69468-2.80589-4.12329-2.53214-3.97786-4.93597-7.75041-7.93861-8.56309.04277-1.27463-.17965-2.60913-.93244-3.55869-.26519-.32507-.62448-.58171-1.02654-.71003l-.82979-.27375c-.89823-.30796-1.93333.03422-2.48082.82979-.82124,1.18053-1.0351,2.53214-1.20619,3.61857-.26519,1.71946-.40206,1.98465-1.11209,2.23273-.6587.22242-1.17197.74424-1.38584,1.4115-.21386.6587-.0941,1.38584.31652,1.95043.10265.14543.20531.49616.30796.83834.22242.76991.53038,1.83067,1.42005,2.73745.21386.22242.4705.38495.74424.49616.05988.45339.17965.85545.3764,1.18053.33363.53038.91534.91534,1.53982,1.04365.2823.43628.6587.69292,1.24896.91534.23953.0941.49616.13687.74424.13687.2823.2823.63304.51327,1.06932.67581.30796.10265.60737.16254.90678.16254-.00855.39351-.02673.73783-.05774,1.01371-.3625.39779-.62662.87042-.62662,1.43289,0,.34218.08555.68436.24808.99233.00642.01283.02246.02139.02887.03422.00535.01069-.00107.02352.00535.03422.40206.81268.79557,1.30884,1.26607,1.63392-.19675,1.37728-3.17352,5.78265-2.37794,6.66377.23953.25664.53894.51327.93244.72714-1.44572,1.83923-1.46283,2.29262-1.24896,3.43892.13687.73569,3.94342-1.95022,4.63634-1.66792.25664.10265.53038.15398.80413.15398.46195,0,.92389-.13687,1.30884-.41062.42773-.29085,2.26695-.95811,3.61002-1.44572,5.31237-1.93333,8.31501-3.14807,8.34067-5.73154Z"/>
        <path class="cls-10" d="M1667.25648,364.64861c-.49616-.23097-2.12153-.81268-3.6699.94955-.03422.02566-.05988.05133-.08555.07699,0,0-.05988.07699-.15398.20531-.27375.3764-.8469,1.20619-1.34306,2.20707-.23097.24808-.39351.54749-.48761.88967-.04277.16254-.07699.32507-.0941.4705-.41917,1.24041-.55604,2.5407.12832,3.49881.13687.19675.30796.3764.49616.51327.05988.59882.22242,1.14631.54749,1.53982.20531.25664.47905.46195.76991.59882.20531.38495.48761.62448.941.88112.16254.08555.32507.15398.49616.20531.29941.33363.68436.59882,1.20619.7528.25664.07699.51327.11121.7528.11121.91534,0,1.66813-.49616,2.18996-.97522.5646-.29085,1.00088-.81268,1.15486-1.45427.02566-.07699.48761-8.8625-2.84866-10.47075Z"/>
        <path class="cls-10" d="M1706.85543,298.12852c-.96936-.45747-2.13863-.13687-2.74601.7528-.17109.26519-.29085.54749-.34218.83834-.66725-.23097-1.42005-.12832-2.00176.29085l-1.40294,1.04365c-.47905.35074-.79557.88112-.87256,1.47138s.08555,1.18908.46195,1.65958c5.68877,7.12593,6.45012,8.07548,9.20468,8.97371.05133.10265.0941.19675.14543.29085-.55604.15398-1.04365.51327-1.34306,1.04365-.48761.88967-.30796,2.00176.44484,2.68612,2.92565,2.66902,5.0985,4.19172,7.1687,5.2696-.08555.12832-.15398.27375-.20531.42773-.32507.941.02566,1.9761.85545,2.53214.22242.14543.46195.30796.71858.46195,0,.01711.00855.03422.00855.05988.1882.65014.15398,1.42005.11976,2.30973-.00855.36785-.02566.7528-.02566,1.15486-.76991-.3764-1.58259-.63304-2.33539-.74424-1.01799-.16254-1.95043.39351-2.32683,1.30029-.04277.08555-.06844.17109-.0941.25664-3.41326-1.09498-7.24569-1.11209-8.99937-.99233-1.05221-.71858-2.47226-1.32595-3.80677-1.43716-.46195-.47905-1.13775-.73569-1.7879-.66725-.73569.06844-1.39439.51327-1.73657,1.16342h-.76991c-.88967,0-1.70235.53894-2.03598,1.37728-1.24041,3.09674-1.62536,4.0463-1.56548,5.43213-.20531.13687-.41917.27375-.6587.42773-.76135.49616-1.14631,1.4115-.94955,2.30117.11121.52183.24808,1.24041.33363,1.77079.13687.78702.67581,1.43716,1.42861,1.70235.58171.21386,1.30884.4705,1.99321.71858.34218,2.08731.1882,4.74777.04277,7.32268-.30796,5.37225-.63304,10.92415,2.86577,14.37162,2.05309,2.01887,5.03862,2.83155,9.10203,2.76312.3764,1.83923,1.40294,3.84954,5.24393,10.14568-1.24896,2.42949-4.02919,7.06605-10.73595,13.31086-.45339.41062-.70147,1.05221-.70147,1.65958q.00855,1.92477-3.06252,4.15751c-.941.67581-1.18908,1.96754-.5646,2.94276,1.23185,1.93333,2.89143,3.44748,4.50824,4.9103,2.21563,2.00176,5.99306,5.95458,6.532,8.48672-2.34009,2.00579-8.07776.32464-9.8618.91932-2.25651.75217-8.4265-.11106-8.77533,4.9309-.0568.82099,1.43626,5.25079,1.50434,6.26809.24885,3.7186-.08357,10.36325.6686,13.53908.21043.88848,3.05434,3.43598,3.96112,3.55574,2.38044.30422,4.53826.50307,6.49095.59432s2.61354,2.74563,4.17347,2.61948c.90877-.07349,2.84062-2.85497,3.62547-3.00344,2.35462-.4454,4.16715-1.23017,5.53096-2.3661,3.1994-2.66046,4.49452-8.1131,4.71694-12.01397.31652-5.74865-.42256-10.26205,7.74702-15.10392.52183-.27375,1.25752-.24808,2.17285.06844,4.96163,1.66813,8.9442,5.66267,11.37369,9.19569-.05988.04277,1.86623,2.68814,1.81491,2.72236-1.7879,1.18053-4.12084,10.56605-4.38603,13.15808-.15398,1.47138.37193-.10746,1.66367,1.20994.59026.59026,2.67354-1.90564,3.44345-2.17938,4.30293-1.40294,8.52887-4.40559,10.23978-6.64688.15398-.11121.29941-.24808.41917-.41062.99233-1.30029.23953-2.52359-.5646-3.81532-.11976-.17965-.23953-.36785-.34218-.53894-.04277-.42773-.21386-.83834-.50472-1.18053-1.53126-1.7879-3.26783-3.53302-5.03862-5.31237-3.40471-3.41326-6.89496-6.91207-9.18757-11.11234,2.69468,1.93333,9.95281,5.42458,12.87847,8.35879,5.92829,5.93685,1.97908,4.17317,7.8646,5.74721.61593.16254,2.19198,5.19904,2.72236,4.83975.52183-.35929,4.16635,1.99422,4.23478,1.36118.30796-2.6348.27313-6.20905-5.57818-12.31699,1.19764.16254,2.48082.21386,3.78111-.05133l.11121.06844c.54749,3.20795.82124,4.14895,2.45515,5.49201.03422.35074.06844.71003.10265,1.05221.08555.88112.69292,1.61681,1.53982,1.882.60737.1882,2.47226.76135,2.823,4.10618.11121,1.00944.90678,1.82212,1.91622,1.94188.3764.02566.78702-.00855,1.1292-.16254.21386.19675.43628.38495.66725.54749.71003.50472,1.66813.53894,2.39527.08555.61593-.36785.99233-1.00088,1.05221-1.6938,3.27639-.11121,5.57756-1.33451,7.13448-2.55781,7.01472,12.42119,3.28494,14.979,1.83067,15.97988-.99233.68436-1.24896,2.04453-.5646,3.04542.69292.99233,2.06164,1.24041,3.04542.5646.08555-.05988.12297-.13687.20531-.19675l1.14096,1.27463c-.77953.7143-1.03403,1.85847-.43093,2.77167q2.5407,3.83243,4.3286,6.11649c.46195.59026,1.18908.90678,1.96754.82124.42773-.04277.82979-.21386,1.14631-.47905,7.85307,12.12178,21.12115,34.09839,24.04681,48.16205.21386,1.00944,1.09498,1.73657,2.12153,1.74513h.02566c1.01799,0,1.90766-.70147,2.13863-1.70235,3.06271-13.37814,4.93268-21.55001,5.86615-27.48987.31116-1.97996-1.1023-3.71672-1.81699-5.14609-1.66367-3.32733,2.58124-3.56002,2.48315-5.15542-.21332-3.46969-.92526-6.85394-1.99841-11.74795-.00855-.06844-.02566-.12832-.04277-.1882,0-.00855-.00855-.00855-.00855-.00855-.03422-.13687-.0941-.25664-.15398-.3764v-.00855c-.04277-.06844-.07699-.13687-.11976-.19675-3.94364-5.78287-4.85042-7.33979-5.58611-8.99082,3.02831,1.68524,4.53391,4.48258,5.83419,8.40056.36785,1.10354,1.53126,1.71946,2.64335,1.42005,1.12064-.29085,3.63102-1.98361,3.37565-3.11613-14.35514-63.66193-60.22917-120.45835-129.70051-153.24372ZM1717.30908,337.80447c.15398-.07699.29085-.17109.41917-.2823.05133.22242.12832.43628.24808.64159-.20531-.11121-.42773-.22242-.66725-.35929ZM1715.91469,358.17282c-.49616-.77846-.97522-1.53126-1.42861-2.28406,1.71091.96666,3.45603,1.3174,5.05573,1.36017-.23097.42773-.31652.92389-.23097,1.4115.25664,1.53982,1.13775,3.66134,2.49793,4.93597.49616.46195,1.20619.64159,1.82212.5646.4705-.06844.90678-.29085,1.23185-.62448.08555.08555.16254.17109.23953.24808l-.63304,2.4466c-1.06932,4.15751-1.99321,7.75041-3.05397,8.25513-.22242.11121-.54749.14543-1.02654.06844.04277-.0941.07699-.20531.10265-.30796,1.53982-6.4159-1.71091-11.54863-4.57668-16.07398Z"/>
      </g>
      <path class="cls-10" d="M1830.76201,520.51044c-.34218-.27375-3.51856-4.46362-3.92918-4.50639-.43628-.26519-1.30884-1.00944-1.96754-1.56548-2.84866-2.40383-6.1713-9.10043-11.09871-8.091-11.01556-13.84814-10.92529-19.67454-16.36598-31.78776-1.77934-3.93509-1.16735-11.18328-3.40864-16.47854l-6.68109-11.12945c-.30796-.51327-.82124-.88112-1.4115-1.00944-.59026-.12832-1.20619,0-1.70235.33363-2.13863,1.47138-3.37904,2.95987-4.47402,4.26871-1.52271,1.82212-2.75456,3.2935-6.33036,4.55957-.70147-.50472-1.81356-1.37728-2.61769-2.01032-2.55781-2.02743-3.78966-2.99409-4.8162-3.13096-2.64335-1.18908-5.2696-1.3174-8.28079-1.46283-3.77255-.17965-8.47755-.41062-15.77457-2.85722l-.91534-.1882c-8.66575-1.77934-19.01151-1.68921-25.33331.55208-1.96919.69878-8.27388-.75217-10.53039-.16715-1.30102.3373-3.70764,4.07815-4.5966,5.09805-24.73414,28.37721-15.86332,51.82153-29.16956,63.8605-1.90089,10.77171,16.36107,35.97223,23.19979,40.47692,3.81589,2.51355,4.47116,9.86863,8.24128,10.31729,7.85267.9345,15.48562-1.69525,22.39711-4.07828,2.73122-.93911,5.64161-6.17307,8.11952-6.84147,7.85992-2.12014,12.10609.16663,18.08984,8.17314-.08555,9.5212-4.57541,12.79082-4.44709,18.95864.11801,5.68628,6.55948,14.96417,6.31955,19.1927-.22326,3.93468-3.39682,8.72794-4.21303,12.40504-2.23595,10.07318,1.1517,13.848-9.36229,35.57671-2.45343,5.07038-8.61663,19.23555-11.70916,25.60913-.43628.89823-.21386,1.96754.53894,2.61769l4.14851-.374c.40206.35929,2.28686-1.87246,2.80869-1.87246.22242,0,11.71992-2.25654,11.93692-2.34057,6.58768-2.55111,12.23309-2.39524,18.50081-6.70288,1.38273-.95031,11.24052-9.81717,12.5203-10.9446,31.10405-27.40119,59.80124-86.83214,62.39324-127.93391.04146-.65739-9.56582-6.11629-10.07909-6.5269Z"/>
      <path class="cls-10" d="M1473.05652,539.63187c-.63879,2.26481.18652,6.3457,1.3379,15.49208-6.0395,7.20292-8.49466,16.0312-7.29702,26.25388,2.6348,22.43855,22.72085,47.27238,40.87358,59.93309,4.32004,4.52535,4.37992,5.4578,3.92653,10.5563-.72714,1.47138-.3764,3.44748.04277,5.08995,2.57492,10.12002,19.06807,40.07801,26.80992,42.68715l.17965.05133q2.45515,3.56724,3.31061,4.71355c.3764.48761.93244.80413,1.54837.86401,3.36193.30796,5.86841,2.39527,8.51177,4.6109.97522.81268,1.95899,1.63392,3.01975,2.39527.14543.31652.36785.59882.6587.82124,2.96842,2.24984,16.42471,4.91886,17.69934,4.91886h.05133c.81268-.07699,1.60825-.81268,1.91622-1.56548l.30796-.76135c.41917-1.1292-.14543-2.38672-1.27463-2.81444-11.39464-4.3286-15.22708-9.38433-16.51881-12.30998.26519-.12832.50472-.30796.70147-.53894.71858-.82124.71858-2.04453.00855-2.86577-.76135-.88112-1.65103-1.46283-2.49793-1.94188,1.07787-.6587,1.64247-1.3174,2.01887-2.12153,4.24305-.71858,4.53391-.83834,5.90263-1.5997.58171-.32507.98377-.88967,1.09498-1.53982.11976-.65014-.06844-1.3174-.50472-1.81356l-1.16342-1.34306c2.14719-.91534,3.90942-2.88288,5.30381-4.43125,1.48849-1.66813,3.03686-3.37904,4.50824-3.73833.66725-.16254,1.21474-.62448,1.48849-1.24041.63304-1.42861,1.25752-3.07963,1.91622-4.82476,2.1643-5.73154,4.85898-12.86603,9.55542-14.43151,9.05926-4.67078,9.63241-39.08568,9.64096-46.95586,1.48849-4.29438,1.44572-8.12681-.11976-11.4032-2.65191-5.5519-9.11914-8.46899-15.32118-10.67606-.00855-1.93333-.23953-2.61769-.99233-4.40559-.2823-.6587-.86401-1.13775-1.56548-1.29174-9.40999-1.96754-12.49818-2.61769-15.20141.33363-3.75544-9.86338-13.73859-33.51668-23.58486-35.8093-1.3174-.30796-2.99409-.35929-4.8162.52183-2.98553-9.21324-14.92767-14.35451-23.92704-18.23828-3.88162-1.66813-8.2701-3.5651-9.05391-4.76274-.32614-.80627-.97843-1.44786-1.8959-1.44786h-.1882c-.53359.02139-1.01478.29085-1.42005.65228-1.4639-1.5334-3.0112-2.38244-4.86753-2.26909-4.19172.13687-7.56221,4.80765-10.81294,9.32445-1.53982,2.13863-3.25072,4.5168-4.61945,5.646-.47692-.14757-.94207-.34646-1.62857-.67153-.1263-.46507-.0236-.8081-.70111-.71131-.65815.44522-2.3616,3.65854-2.3616,3.65854Z"/>
    </g>
  </g>
  <g>
    <path class="cls-5" d="M468.56445,512.44523h-27.40332v-7.23438h27.40332v7.23438ZM468.56445,525.71769h-27.40332v-7.23389h27.40332v7.23389Z"/>
    <g>
      <rect class="cls-1" x="441.64243" y="464.97838" width="111.60268" height="55.80134"/>
      <path class="cls-5" d="M455.37402,475.70695l-5.33398,14.0083h-7.0498l9.16504-22.28467h6.4375l9.16504,22.28467h-7.01953l-5.36426-14.0083Z"/>
    </g>
  </g>
  <g>
    <g>
      <rect class="cls-1" x="251.85858" y="56.52028" width="488.07872" height="177.13476"/>
      <path class="cls-5" d="M267.88965,80.33781l5.5791-9.90088h9.47168l-9.44141,16.24561,9.83984,16.92041h-9.50293l-5.91602-10.42188-5.88477,10.42188h-9.5332l9.83984-16.92041-9.41016-16.24561h9.50195l5.45605,9.90088Z"/>
      <path class="cls-5" d="M323.98438,103.60295h-8.8584v-34.19385l-10.5752,3.26514v-7.14209l18.4834-6.62061h.9502v44.69141Z"/>
      <path class="cls-5" d="M368.52246,85.14982c0,6.17188-1.27734,10.89258-3.83203,14.16162-2.55469,3.27002-6.29395,4.90479-11.21875,4.90479-4.86328,0-8.58203-1.604-11.15723-4.8125-2.5752-3.20801-3.89258-7.80615-3.9541-13.79395v-8.21484c0-6.23242,1.29199-10.96289,3.87793-14.19238,2.58398-3.22852,6.30859-4.84277,11.17285-4.84277,4.86328,0,8.58203,1.59912,11.15723,4.79688,2.5752,3.19873,3.89258,7.79102,3.9541,13.77832v8.21484ZM359.66406,76.11808c0-3.70215-.50586-6.39746-1.51758-8.08496s-2.58984-2.53125-4.73535-2.53125c-2.08496,0-3.62305.80322-4.61328,2.40869-.99219,1.60547-1.51758,4.11621-1.5791,7.53223v10.86133c0,3.64111.49512,6.34668,1.48633,8.11572.99121,1.76953,2.58008,2.6543,4.7666,2.6543,2.16602,0,3.72949-.84912,4.69043-2.54688.95996-1.69727,1.46094-4.29492,1.50195-7.79346v-10.61572Z"/>
      <path class="cls-5" d="M404.53906,85.14982c0,6.17188-1.27734,10.89258-3.83203,14.16162-2.55469,3.27002-6.29395,4.90479-11.21875,4.90479-4.86328,0-8.58203-1.604-11.15723-4.8125-2.5752-3.20801-3.89258-7.80615-3.9541-13.79395v-8.21484c0-6.23242,1.29199-10.96289,3.87793-14.19238,2.58398-3.22852,6.30859-4.84277,11.17285-4.84277,4.86328,0,8.58203,1.59912,11.15723,4.79688,2.5752,3.19873,3.89258,7.79102,3.9541,13.77832v8.21484ZM395.68066,76.11808c0-3.70215-.50586-6.39746-1.51758-8.08496s-2.58984-2.53125-4.73535-2.53125c-2.08496,0-3.62305.80322-4.61328,2.40869-.99219,1.60547-1.51758,4.11621-1.5791,7.53223v10.86133c0,3.64111.49512,6.34668,1.48633,8.11572.99121,1.76953,2.58008,2.6543,4.7666,2.6543,2.16602,0,3.72949-.84912,4.69043-2.54688.95996-1.69727,1.46094-4.29492,1.50195-7.79346v-10.61572Z"/>
      <path class="cls-5" d="M411.34375,99.25041c0-1.41016.47461-2.5542,1.4248-3.43311.95117-.87842,2.14062-1.31836,3.57129-1.31836,1.45117,0,2.65137.43994,3.60156,1.31836.9502.87891,1.42578,2.02295,1.42578,3.43311,0,1.38965-.4707,2.51855-1.41016,3.38721-.94043.86865-2.14551,1.30273-3.61719,1.30273-1.45117,0-2.64648-.43408-3.58594-1.30273-.94043-.86865-1.41016-1.99756-1.41016-3.38721Z"/>
      <path class="cls-5" d="M458.79395,85.14982c0,6.17188-1.27734,10.89258-3.83203,14.16162-2.55469,3.27002-6.29395,4.90479-11.21875,4.90479-4.86328,0-8.58203-1.604-11.15723-4.8125-2.5752-3.20801-3.89258-7.80615-3.9541-13.79395v-8.21484c0-6.23242,1.29199-10.96289,3.87793-14.19238,2.58398-3.22852,6.30859-4.84277,11.17285-4.84277,4.86328,0,8.58203,1.59912,11.15723,4.79688,2.5752,3.19873,3.89258,7.79102,3.9541,13.77832v8.21484ZM449.93555,76.11808c0-3.70215-.50586-6.39746-1.51758-8.08496s-2.58984-2.53125-4.73535-2.53125c-2.08496,0-3.62305.80322-4.61328,2.40869-.99219,1.60547-1.51758,4.11621-1.5791,7.53223v10.86133c0,3.64111.49512,6.34668,1.48633,8.11572.99121,1.76953,2.58008,2.6543,4.7666,2.6543,2.16602,0,3.72949-.84912,4.69043-2.54688.95996-1.69727,1.46094-4.29492,1.50195-7.79346v-10.61572Z"/>
      <path class="cls-5" d="M494.81055,85.14982c0,6.17188-1.27734,10.89258-3.83203,14.16162-2.55469,3.27002-6.29395,4.90479-11.21875,4.90479-4.86328,0-8.58203-1.604-11.15723-4.8125-2.5752-3.20801-3.89258-7.80615-3.9541-13.79395v-8.21484c0-6.23242,1.29199-10.96289,3.87793-14.19238,2.58398-3.22852,6.30859-4.84277,11.17285-4.84277,4.86328,0,8.58203,1.59912,11.15723,4.79688,2.5752,3.19873,3.89258,7.79102,3.9541,13.77832v8.21484ZM485.95215,76.11808c0-3.70215-.50586-6.39746-1.51758-8.08496s-2.58984-2.53125-4.73535-2.53125c-2.08496,0-3.62305.80322-4.61328,2.40869-.99219,1.60547-1.51758,4.11621-1.5791,7.53223v10.86133c0,3.64111.49512,6.34668,1.48633,8.11572.99121,1.76953,2.58008,2.6543,4.7666,2.6543,2.16602,0,3.72949-.84912,4.69043-2.54688.95996-1.69727,1.46094-4.29492,1.50195-7.79346v-10.61572Z"/>
      <path class="cls-5" d="M530.82715,85.14982c0,6.17188-1.27734,10.89258-3.83203,14.16162-2.55469,3.27002-6.29395,4.90479-11.21875,4.90479-4.86328,0-8.58203-1.604-11.15723-4.8125-2.5752-3.20801-3.89258-7.80615-3.9541-13.79395v-8.21484c0-6.23242,1.29199-10.96289,3.87793-14.19238,2.58398-3.22852,6.30859-4.84277,11.17285-4.84277,4.86328,0,8.58203,1.59912,11.15723,4.79688,2.5752,3.19873,3.89258,7.79102,3.9541,13.77832v8.21484ZM521.96875,76.11808c0-3.70215-.50586-6.39746-1.51758-8.08496s-2.58984-2.53125-4.73535-2.53125c-2.08496,0-3.62305.80322-4.61328,2.40869-.99219,1.60547-1.51758,4.11621-1.5791,7.53223v10.86133c0,3.64111.49512,6.34668,1.48633,8.11572.99121,1.76953,2.58008,2.6543,4.7666,2.6543,2.16602,0,3.72949-.84912,4.69043-2.54688.95996-1.69727,1.46094-4.29492,1.50195-7.79346v-10.61572Z"/>
      <path class="cls-5" d="M537.63184,99.25041c0-1.41016.47461-2.5542,1.4248-3.43311.95117-.87842,2.14062-1.31836,3.57129-1.31836,1.45117,0,2.65137.43994,3.60156,1.31836.9502.87891,1.42578,2.02295,1.42578,3.43311,0,1.38965-.4707,2.51855-1.41016,3.38721-.94043.86865-2.14551,1.30273-3.61719,1.30273-1.45117,0-2.64648-.43408-3.58594-1.30273-.94043-.86865-1.41016-1.99756-1.41016-3.38721Z"/>
      <path class="cls-5" d="M585.08203,85.14982c0,6.17188-1.27734,10.89258-3.83203,14.16162-2.55469,3.27002-6.29395,4.90479-11.21875,4.90479-4.86328,0-8.58203-1.604-11.15723-4.8125-2.5752-3.20801-3.89258-7.80615-3.9541-13.79395v-8.21484c0-6.23242,1.29199-10.96289,3.87793-14.19238,2.58398-3.22852,6.30859-4.84277,11.17285-4.84277,4.86328,0,8.58203,1.59912,11.15723,4.79688,2.5752,3.19873,3.89258,7.79102,3.9541,13.77832v8.21484ZM576.22363,76.11808c0-3.70215-.50586-6.39746-1.51758-8.08496s-2.58984-2.53125-4.73535-2.53125c-2.08496,0-3.62305.80322-4.61328,2.40869-.99219,1.60547-1.51758,4.11621-1.5791,7.53223v10.86133c0,3.64111.49512,6.34668,1.48633,8.11572.99121,1.76953,2.58008,2.6543,4.7666,2.6543,2.16602,0,3.72949-.84912,4.69043-2.54688.95996-1.69727,1.46094-4.29492,1.50195-7.79346v-10.61572Z"/>
      <path class="cls-5" d="M621.09863,85.14982c0,6.17188-1.27734,10.89258-3.83203,14.16162-2.55469,3.27002-6.29395,4.90479-11.21875,4.90479-4.86328,0-8.58203-1.604-11.15723-4.8125-2.5752-3.20801-3.89258-7.80615-3.9541-13.79395v-8.21484c0-6.23242,1.29199-10.96289,3.87793-14.19238,2.58398-3.22852,6.30859-4.84277,11.17285-4.84277,4.86328,0,8.58203,1.59912,11.15723,4.79688,2.5752,3.19873,3.89258,7.79102,3.9541,13.77832v8.21484ZM612.24023,76.11808c0-3.70215-.50586-6.39746-1.51758-8.08496s-2.58984-2.53125-4.73535-2.53125c-2.08496,0-3.62305.80322-4.61328,2.40869-.99219,1.60547-1.51758,4.11621-1.5791,7.53223v10.86133c0,3.64111.49512,6.34668,1.48633,8.11572.99121,1.76953,2.58008,2.6543,4.7666,2.6543,2.16602,0,3.72949-.84912,4.69043-2.54688.95996-1.69727,1.46094-4.29492,1.50195-7.79346v-10.61572Z"/>
      <path class="cls-5" d="M657.11523,85.14982c0,6.17188-1.27734,10.89258-3.83203,14.16162-2.55469,3.27002-6.29395,4.90479-11.21875,4.90479-4.86328,0-8.58203-1.604-11.15723-4.8125-2.5752-3.20801-3.89258-7.80615-3.9541-13.79395v-8.21484c0-6.23242,1.29199-10.96289,3.87793-14.19238,2.58398-3.22852,6.30859-4.84277,11.17285-4.84277,4.86328,0,8.58203,1.59912,11.15723,4.79688,2.5752,3.19873,3.89258,7.79102,3.9541,13.77832v8.21484ZM648.25684,76.11808c0-3.70215-.50586-6.39746-1.51758-8.08496s-2.58984-2.53125-4.73535-2.53125c-2.08496,0-3.62305.80322-4.61328,2.40869-.99219,1.60547-1.51758,4.11621-1.5791,7.53223v10.86133c0,3.64111.49512,6.34668,1.48633,8.11572.99121,1.76953,2.58008,2.6543,4.7666,2.6543,2.16602,0,3.72949-.84912,4.69043-2.54688.95996-1.69727,1.46094-4.29492,1.50195-7.79346v-10.61572Z"/>
    </g>
    <path class="cls-3" d="M227.33928,213.83907l.00021.00006h0c157.54505-90.60779,356.68609-90.60779,488.77817-6.20019l.00023.00005"/>
    <polyline class="cls-3" points="721.55705 175.97361 721.63693 214.25064 685.10065 215.98579"/>
  </g>
  <g>
    <rect class="cls-1" x="68.67669" y="180.28911" width="488.07872" height="177.13476"/>
    <path class="cls-5" d="M93.22949,227.3715h-8.8584v-34.19385l-10.5752,3.26514v-7.14209l18.4834-6.62061h.9502v44.69141Z"/>
    <path class="cls-5" d="M116.25,194.20549l.27588,3.83154c2.37012-2.96289,5.54785-4.44482,9.53271-4.44482,3.51465,0,6.13086,1.03223,7.84717,3.09619,1.7168,2.06396,2.59521,5.14941,2.63623,9.25684v21.42627h-8.85889v-21.26025c0-1.88428-.40869-3.25195-1.22607-4.10205-.81738-.84961-2.17627-1.2749-4.07666-1.2749-2.49316,0-4.36328,1.06543-5.60938,3.19531v23.44189h-8.8584v-33.16602h8.3374Z"/>
    <path class="cls-5" d="M151.56152,194.20549l.27637,3.70898c2.34961-2.88135,5.52734-4.32227,9.53223-4.32227,4.27148,0,7.2041,1.68604,8.79785,5.05762,2.3291-3.37158,5.65039-5.05762,9.96191-5.05762,3.5957,0,6.27344,1.04736,8.03125,3.14209,1.75586,2.09473,2.63477,5.24658,2.63477,9.45605v21.18115h-8.88867v-21.19922c0-1.88428-.36719-3.26123-1.10352-4.13184s-2.0332-1.30615-3.89258-1.30615c-2.65625,0-4.49609,1.27002-5.51758,3.80957l.03125,22.82764h-8.85938v-21.16846c0-1.92529-.37793-3.31836-1.13379-4.17822-.75586-.86035-2.04395-1.29053-3.8623-1.29053-2.51367,0-4.33203,1.04443-5.45605,3.13379v23.50342h-8.8584v-33.16602h8.30664Z"/>
  </g>
  <g>
    <rect class="cls-1" x="749.03154" y="179.96323" width="193.17867" height="81.93077"/>
    <path class="cls-5" d="M773.58398,227.04533h-8.8584v-34.19385l-10.5752,3.26514v-7.14209l18.4834-6.62061h.9502v44.69141Z"/>
    <path class="cls-5" d="M818.12207,208.5922c0,6.17188-1.27734,10.89258-3.83203,14.16162-2.55469,3.27002-6.29395,4.90479-11.21875,4.90479-4.86328,0-8.58203-1.604-11.15723-4.8125-2.5752-3.20801-3.89258-7.80615-3.9541-13.79395v-8.21484c0-6.23242,1.29199-10.96289,3.87793-14.19238,2.58398-3.22852,6.30859-4.84277,11.17285-4.84277,4.86328,0,8.58203,1.59912,11.15723,4.79688,2.5752,3.19873,3.89258,7.79102,3.9541,13.77832v8.21484ZM809.26367,199.56047c0-3.70215-.50586-6.39746-1.51758-8.08496s-2.58984-2.53125-4.73535-2.53125c-2.08496,0-3.62305.80322-4.61328,2.40869-.99219,1.60547-1.51758,4.11621-1.5791,7.53223v10.86133c0,3.64111.49512,6.34668,1.48633,8.11572.99121,1.76953,2.58008,2.6543,4.7666,2.6543,2.16602,0,3.72949-.84912,4.69043-2.54688.95996-1.69727,1.46094-4.29492,1.50195-7.79346v-10.61572Z"/>
    <path class="cls-5" d="M838.26074,220.51652c1.63477,0,2.96289-.44922,3.98438-1.34912,1.02148-.89893,1.55273-2.09424,1.59473-3.58594h8.30664c-.02051,2.24805-.63379,4.30664-1.83984,6.17627-1.20508,1.86963-2.85547,3.3208-4.9502,4.35254s-4.40918,1.54834-6.94238,1.54834c-4.74121,0-8.48047-1.50684-11.21875-4.52148-2.73926-3.01416-4.10742-7.17773-4.10742-12.49072v-.58252c0-5.1084,1.3584-9.18555,4.07617-12.23047s6.44727-4.56738,11.18848-4.56738c4.14844,0,7.47363,1.18018,9.97754,3.54053,2.50293,2.36035,3.77539,5.50195,3.81641,9.42578h-8.30664c-.04199-1.7251-.57324-3.12793-1.59473-4.20605-1.02148-1.07861-2.37012-1.61816-4.0459-1.61816-2.06445,0-3.62207.75244-4.6748,2.25635-1.05273,1.50439-1.57812,3.94531-1.57812,7.32178v.9209c0,3.41846.52051,5.87451,1.56348,7.36816,1.04199,1.49414,2.625,2.24121,4.75098,2.24121Z"/>
    <path class="cls-5" d="M865.51074,193.87931l.27637,3.70898c2.34961-2.88135,5.52734-4.32227,9.5332-4.32227,4.27051,0,7.20312,1.68604,8.79688,5.05762,2.33008-3.37158,5.65039-5.05762,9.96191-5.05762,3.59668,0,6.27344,1.04736,8.03125,3.14209,1.75684,2.09473,2.63574,5.24658,2.63574,9.45605v21.18115h-8.88867v-21.19922c0-1.88428-.36816-3.26123-1.10352-4.13184-.73633-.87061-2.03418-1.30615-3.89355-1.30615-2.65625,0-4.49512,1.27002-5.5166,3.80957l.03027,22.82764h-8.8584v-21.16846c0-1.92529-.37891-3.31836-1.13477-4.17822-.75586-.86035-2.04297-1.29053-3.8623-1.29053-2.5127,0-4.33203,1.04443-5.45605,3.13379v23.50342h-8.8584v-33.16602h8.30664Z"/>
  </g>
  <g>
    <rect class="cls-1" x="1463.90247" y="179.96323" width="327.97556" height="81.93077"/>
    <path class="cls-5" d="M1488.45508,227.04533h-8.8584v-34.19385l-10.5752,3.26514v-7.14209l18.4834-6.62061h.9502v44.69141Z"/>
    <path class="cls-5" d="M1532.99316,208.5922c0,6.17188-1.27734,10.89258-3.83203,14.16162-2.55469,3.27002-6.29395,4.90479-11.21875,4.90479-4.86328,0-8.58203-1.604-11.15723-4.8125-2.5752-3.20801-3.89258-7.80615-3.9541-13.79395v-8.21484c0-6.23242,1.29199-10.96289,3.87793-14.19238,2.58398-3.22852,6.30859-4.84277,11.17285-4.84277,4.86328,0,8.58203,1.59912,11.15723,4.79688,2.5752,3.19873,3.89258,7.79102,3.9541,13.77832v8.21484ZM1524.13477,199.56047c0-3.70215-.50586-6.39746-1.51758-8.08496s-2.58984-2.53125-4.73535-2.53125c-2.08496,0-3.62305.80322-4.61328,2.40869-.99219,1.60547-1.51758,4.11621-1.5791,7.53223v10.86133c0,3.64111.49512,6.34668,1.48633,8.11572.99121,1.76953,2.58008,2.6543,4.7666,2.6543,2.16602,0,3.72949-.84912,4.69043-2.54688.95996-1.69727,1.46094-4.29492,1.50195-7.79346v-10.61572Z"/>
    <path class="cls-5" d="M1539.79785,222.69279c0-1.41016.47461-2.5542,1.4248-3.43311.95117-.87842,2.14062-1.31836,3.57129-1.31836,1.45117,0,2.65137.43994,3.60156,1.31836.9502.87891,1.42578,2.02295,1.42578,3.43311,0,1.38965-.4707,2.51855-1.41016,3.38721-.94043.86865-2.14551,1.30273-3.61719,1.30273-1.45117,0-2.64648-.43408-3.58594-1.30273-.94043-.86865-1.41016-1.99756-1.41016-3.38721Z"/>
    <path class="cls-5" d="M1587.24805,208.5922c0,6.17188-1.27734,10.89258-3.83203,14.16162-2.55469,3.27002-6.29395,4.90479-11.21875,4.90479-4.86328,0-8.58203-1.604-11.15723-4.8125-2.5752-3.20801-3.89258-7.80615-3.9541-13.79395v-8.21484c0-6.23242,1.29199-10.96289,3.87793-14.19238,2.58398-3.22852,6.30859-4.84277,11.17285-4.84277,4.86328,0,8.58203,1.59912,11.15723,4.79688,2.5752,3.19873,3.89258,7.79102,3.9541,13.77832v8.21484ZM1578.38965,199.56047c0-3.70215-.50586-6.39746-1.51758-8.08496s-2.58984-2.53125-4.73535-2.53125c-2.08496,0-3.62305.80322-4.61328,2.40869-.99219,1.60547-1.51758,4.11621-1.5791,7.53223v10.86133c0,3.64111.49512,6.34668,1.48633,8.11572.99121,1.76953,2.58008,2.6543,4.7666,2.6543,2.16602,0,3.72949-.84912,4.69043-2.54688.95996-1.69727,1.46094-4.29492,1.50195-7.79346v-10.61572Z"/>
    <path class="cls-5" d="M1623.26465,208.5922c0,6.17188-1.27734,10.89258-3.83203,14.16162-2.55469,3.27002-6.29395,4.90479-11.21875,4.90479-4.86328,0-8.58203-1.604-11.15723-4.8125-2.5752-3.20801-3.89258-7.80615-3.9541-13.79395v-8.21484c0-6.23242,1.29199-10.96289,3.87793-14.19238,2.58398-3.22852,6.30859-4.84277,11.17285-4.84277,4.86328,0,8.58203,1.59912,11.15723,4.79688,2.5752,3.19873,3.89258,7.79102,3.9541,13.77832v8.21484ZM1614.40625,199.56047c0-3.70215-.50586-6.39746-1.51758-8.08496s-2.58984-2.53125-4.73535-2.53125c-2.08496,0-3.62305.80322-4.61328,2.40869-.99219,1.60547-1.51758,4.11621-1.5791,7.53223v10.86133c0,3.64111.49512,6.34668,1.48633,8.11572.99121,1.76953,2.58008,2.6543,4.7666,2.6543,2.16602,0,3.72949-.84912,4.69043-2.54688.95996-1.69727,1.46094-4.29492,1.50195-7.79346v-10.61572Z"/>
    <path class="cls-5" d="M1659.28125,208.5922c0,6.17188-1.27734,10.89258-3.83203,14.16162-2.55469,3.27002-6.29395,4.90479-11.21875,4.90479-4.86328,0-8.58203-1.604-11.15723-4.8125-2.5752-3.20801-3.89258-7.80615-3.9541-13.79395v-8.21484c0-6.23242,1.29199-10.96289,3.87793-14.19238,2.58398-3.22852,6.30859-4.84277,11.17285-4.84277,4.86328,0,8.58203,1.59912,11.15723,4.79688,2.5752,3.19873,3.89258,7.79102,3.9541,13.77832v8.21484ZM1650.42285,199.56047c0-3.70215-.50586-6.39746-1.51758-8.08496s-2.58984-2.53125-4.73535-2.53125c-2.08496,0-3.62305.80322-4.61328,2.40869-.99219,1.60547-1.51758,4.11621-1.5791,7.53223v10.86133c0,3.64111.49512,6.34668,1.48633,8.11572.99121,1.76953,2.58008,2.6543,4.7666,2.6543,2.16602,0,3.72949-.84912,4.69043-2.54688.95996-1.69727,1.46094-4.29492,1.50195-7.79346v-10.61572Z"/>
    <path class="cls-5" d="M1677.67285,213.74211l-3.18848,3.18799v10.11523h-8.8584v-47.08252h8.8584v26.08545l1.7168-2.20703,8.49121-9.96191h10.63574l-11.98438,13.82422,13.02734,19.3418h-10.17676l-8.52148-13.30322Z"/>
    <path class="cls-5" d="M1707.4668,193.87931l.27637,3.70898c2.34961-2.88135,5.52734-4.32227,9.5332-4.32227,4.27051,0,7.20312,1.68604,8.79688,5.05762,2.33008-3.37158,5.65039-5.05762,9.96191-5.05762,3.59668,0,6.27344,1.04736,8.03125,3.14209,1.75684,2.09473,2.63574,5.24658,2.63574,9.45605v21.18115h-8.88867v-21.19922c0-1.88428-.36816-3.26123-1.10352-4.13184-.73633-.87061-2.03418-1.30615-3.89355-1.30615-2.65625,0-4.49512,1.27002-5.5166,3.80957l.03027,22.82764h-8.8584v-21.16846c0-1.92529-.37891-3.31836-1.13477-4.17822-.75586-.86035-2.04297-1.29053-3.8623-1.29053-2.5127,0-4.33203,1.04443-5.45605,3.13379v23.50342h-8.8584v-33.16602h8.30664Z"/>
  </g>
  <g>
    <g>
      <line class="cls-2" x1="170.10475" y1="448.80035" x2="107.70499" y2="476.86296"/>
      <line class="cls-2" x1="123.62004" y1="540.50084" x2="107.70499" y2="476.86296"/>
      <circle class="cls-11" cx="170.10475" cy="448.80035" r="18.44902"/>
      <circle class="cls-11" cx="123.62004" cy="540.50084" r="18.44902"/>
      <circle class="cls-5" cx="108.3637" cy="475.72725" r="23.32584"/>
    </g>
    <g>
      <rect class="cls-1" x="170.10475" y="483.49215" width="488.07872" height="177.13476"/>
      <path class="cls-5" d="M204.22363,511.66154c-.30273,4.19922-1.85352,7.50439-4.65039,9.91699-2.79492,2.41211-6.48047,3.61816-11.05469,3.61816-5.00391,0-8.93945-1.68408-11.80664-5.05225-2.86816-3.36816-4.30176-7.99121-4.30176-13.87012v-2.38525c0-3.75244.66113-7.05811,1.9834-9.91699s3.21094-5.05225,5.66797-6.58008,5.31055-2.2915,8.56445-2.2915c4.50195,0,8.12891,1.20605,10.88086,3.61816s4.3418,5.79883,4.77148,10.1582h-8.04102c-.19727-2.51953-.89844-4.34619-2.10352-5.48096-1.20703-1.13477-3.04297-1.70215-5.50781-1.70215-2.68164,0-4.6875.96094-6.01758,2.88135-1.33203,1.9209-2.01562,4.90039-2.05078,8.93848v2.94824c0,4.21729.63867,7.29932,1.91602,9.24658,1.27734,1.94775,3.29297,2.92188,6.04492,2.92188,2.48242,0,4.33594-.56738,5.56055-1.70215,1.22461-1.13428,1.92578-2.89014,2.10352-5.2666h8.04102Z"/>
      <path class="cls-5" d="M241.55957,506.03312c0,3.8418-.67969,7.20947-2.03711,10.10449-1.3584,2.89453-3.30176,5.12842-5.83008,6.7002-2.52832,1.57275-5.42676,2.35889-8.69727,2.35889-3.2334,0-6.12012-.77734-8.65625-2.33203-2.53809-1.5542-4.50293-3.77441-5.89648-6.66016-1.39453-2.88525-2.10059-6.20459-2.11816-9.95703v-1.92969c0-3.8418.69238-7.22314,2.07715-10.14453,1.38477-2.92188,3.3418-5.16406,5.87012-6.72754s5.41797-2.34521,8.6709-2.34521c3.25098,0,6.1416.78174,8.66992,2.34521s4.48535,3.80566,5.87012,6.72754c1.38379,2.92139,2.07715,6.29395,2.07715,10.11768v1.74219ZM233.41113,504.26408c0-4.09131-.73242-7.20068-2.19727-9.32715-1.46582-2.12598-3.55566-3.18945-6.27148-3.18945-2.69824,0-4.78027,1.0498-6.24512,3.14941-1.46582,2.09961-2.20703,5.17725-2.22461,9.2334v1.90283c0,3.98486.73242,7.07568,2.19727,9.27344s3.57422,3.29688,6.3252,3.29688c2.69824,0,4.77148-1.05908,6.21875-3.17627s2.17969-5.20361,2.19727-9.26025v-1.90283Z"/>
      <path class="cls-5" d="M262.49219,506.78361h-16.61719v-3.69873l7.69141-6.88818c1.00098-.87891,1.71973-1.69531,2.1582-2.44922.4375-.75342.65625-1.33691.65625-1.74951,0-1.50684-.84863-2.26074-2.5459-2.26074-.89355,0-1.60449.27979-2.13086.83838-.52734.55908-.79102,1.26221-.79102,2.10986h-5.52051c0-2.07275.76367-3.81445,2.29102-5.22656,1.52734-1.41113,3.49805-2.11719,5.91016-2.11719,2.64355,0,4.68555.57617,6.12402,1.72852,1.43848,1.15283,2.15723,2.79248,2.15723,4.91846,0,1.25098-.32129,2.39453-.96484,3.43066-.64258,1.03662-1.92969,2.33154-3.85938,3.88623l-3.9668,3.08252h9.4082v4.39551Z"/>
    </g>
  </g>
  <g>
    <g>
      <rect class="cls-1" x="958.43045" y="56.52028" width="488.07872" height="177.13476"/>
      <path class="cls-5" d="M974.46094,80.33781l5.5791-9.90088h9.47168l-9.44141,16.24561,9.83984,16.92041h-9.50293l-5.91602-10.42188-5.88477,10.42188h-9.5332l9.83984-16.92041-9.41016-16.24561h9.50195l5.45605,9.90088Z"/>
      <path class="cls-5" d="M1030.55566,103.60295h-8.8584v-34.19385l-10.5752,3.26514v-7.14209l18.4834-6.62061h.9502v44.69141Z"/>
      <path class="cls-5" d="M1075.09375,85.14982c0,6.17188-1.27734,10.89258-3.83203,14.16162-2.55469,3.27002-6.29395,4.90479-11.21875,4.90479-4.86328,0-8.58203-1.604-11.15723-4.8125-2.5752-3.20801-3.89258-7.80615-3.9541-13.79395v-8.21484c0-6.23242,1.29199-10.96289,3.87793-14.19238,2.58398-3.22852,6.30859-4.84277,11.17285-4.84277,4.86328,0,8.58203,1.59912,11.15723,4.79688,2.5752,3.19873,3.89258,7.79102,3.9541,13.77832v8.21484ZM1066.23535,76.11808c0-3.70215-.50586-6.39746-1.51758-8.08496s-2.58984-2.53125-4.73535-2.53125c-2.08496,0-3.62305.80322-4.61328,2.40869-.99219,1.60547-1.51758,4.11621-1.5791,7.53223v10.86133c0,3.64111.49512,6.34668,1.48633,8.11572.99121,1.76953,2.58008,2.6543,4.7666,2.6543,2.16602,0,3.72949-.84912,4.69043-2.54688.95996-1.69727,1.46094-4.29492,1.50195-7.79346v-10.61572Z"/>
      <path class="cls-5" d="M1111.11035,85.14982c0,6.17188-1.27734,10.89258-3.83203,14.16162-2.55469,3.27002-6.29395,4.90479-11.21875,4.90479-4.86328,0-8.58203-1.604-11.15723-4.8125-2.5752-3.20801-3.89258-7.80615-3.9541-13.79395v-8.21484c0-6.23242,1.29199-10.96289,3.87793-14.19238,2.58398-3.22852,6.30859-4.84277,11.17285-4.84277,4.86328,0,8.58203,1.59912,11.15723,4.79688,2.5752,3.19873,3.89258,7.79102,3.9541,13.77832v8.21484ZM1102.25195,76.11808c0-3.70215-.50586-6.39746-1.51758-8.08496s-2.58984-2.53125-4.73535-2.53125c-2.08496,0-3.62305.80322-4.61328,2.40869-.99219,1.60547-1.51758,4.11621-1.5791,7.53223v10.86133c0,3.64111.49512,6.34668,1.48633,8.11572.99121,1.76953,2.58008,2.6543,4.7666,2.6543,2.16602,0,3.72949-.84912,4.69043-2.54688.95996-1.69727,1.46094-4.29492,1.50195-7.79346v-10.61572Z"/>
      <path class="cls-5" d="M1117.91504,99.25041c0-1.41016.47461-2.5542,1.4248-3.43311.95117-.87842,2.14062-1.31836,3.57129-1.31836,1.45117,0,2.65137.43994,3.60156,1.31836.9502.87891,1.42578,2.02295,1.42578,3.43311,0,1.38965-.4707,2.51855-1.41016,3.38721-.94043.86865-2.14551,1.30273-3.61719,1.30273-1.45117,0-2.64648-.43408-3.58594-1.30273-.94043-.86865-1.41016-1.99756-1.41016-3.38721Z"/>
      <path class="cls-5" d="M1165.36523,85.14982c0,6.17188-1.27734,10.89258-3.83203,14.16162-2.55469,3.27002-6.29395,4.90479-11.21875,4.90479-4.86328,0-8.58203-1.604-11.15723-4.8125-2.5752-3.20801-3.89258-7.80615-3.9541-13.79395v-8.21484c0-6.23242,1.29199-10.96289,3.87793-14.19238,2.58398-3.22852,6.30859-4.84277,11.17285-4.84277,4.86328,0,8.58203,1.59912,11.15723,4.79688,2.5752,3.19873,3.89258,7.79102,3.9541,13.77832v8.21484ZM1156.50684,76.11808c0-3.70215-.50586-6.39746-1.51758-8.08496s-2.58984-2.53125-4.73535-2.53125c-2.08496,0-3.62305.80322-4.61328,2.40869-.99219,1.60547-1.51758,4.11621-1.5791,7.53223v10.86133c0,3.64111.49512,6.34668,1.48633,8.11572.99121,1.76953,2.58008,2.6543,4.7666,2.6543,2.16602,0,3.72949-.84912,4.69043-2.54688.95996-1.69727,1.46094-4.29492,1.50195-7.79346v-10.61572Z"/>
      <path class="cls-5" d="M1201.38184,85.14982c0,6.17188-1.27734,10.89258-3.83203,14.16162-2.55469,3.27002-6.29395,4.90479-11.21875,4.90479-4.86328,0-8.58203-1.604-11.15723-4.8125-2.5752-3.20801-3.89258-7.80615-3.9541-13.79395v-8.21484c0-6.23242,1.29199-10.96289,3.87793-14.19238,2.58398-3.22852,6.30859-4.84277,11.17285-4.84277,4.86328,0,8.58203,1.59912,11.15723,4.79688,2.5752,3.19873,3.89258,7.79102,3.9541,13.77832v8.21484ZM1192.52344,76.11808c0-3.70215-.50586-6.39746-1.51758-8.08496s-2.58984-2.53125-4.73535-2.53125c-2.08496,0-3.62305.80322-4.61328,2.40869-.99219,1.60547-1.51758,4.11621-1.5791,7.53223v10.86133c0,3.64111.49512,6.34668,1.48633,8.11572.99121,1.76953,2.58008,2.6543,4.7666,2.6543,2.16602,0,3.72949-.84912,4.69043-2.54688.95996-1.69727,1.46094-4.29492,1.50195-7.79346v-10.61572Z"/>
      <path class="cls-5" d="M1237.39844,85.14982c0,6.17188-1.27734,10.89258-3.83203,14.16162-2.55469,3.27002-6.29395,4.90479-11.21875,4.90479-4.86328,0-8.58203-1.604-11.15723-4.8125-2.5752-3.20801-3.89258-7.80615-3.9541-13.79395v-8.21484c0-6.23242,1.29199-10.96289,3.87793-14.19238,2.58398-3.22852,6.30859-4.84277,11.17285-4.84277,4.86328,0,8.58203,1.59912,11.15723,4.79688,2.5752,3.19873,3.89258,7.79102,3.9541,13.77832v8.21484ZM1228.54004,76.11808c0-3.70215-.50586-6.39746-1.51758-8.08496s-2.58984-2.53125-4.73535-2.53125c-2.08496,0-3.62305.80322-4.61328,2.40869-.99219,1.60547-1.51758,4.11621-1.5791,7.53223v10.86133c0,3.64111.49512,6.34668,1.48633,8.11572.99121,1.76953,2.58008,2.6543,4.7666,2.6543,2.16602,0,3.72949-.84912,4.69043-2.54688.95996-1.69727,1.46094-4.29492,1.50195-7.79346v-10.61572Z"/>
      <path class="cls-5" d="M1244.20312,99.25041c0-1.41016.47461-2.5542,1.4248-3.43311.95117-.87842,2.14062-1.31836,3.57129-1.31836,1.45117,0,2.65137.43994,3.60156,1.31836.9502.87891,1.42578,2.02295,1.42578,3.43311,0,1.38965-.4707,2.51855-1.41016,3.38721-.94043.86865-2.14551,1.30273-3.61719,1.30273-1.45117,0-2.64648-.43408-3.58594-1.30273-.94043-.86865-1.41016-1.99756-1.41016-3.38721Z"/>
      <path class="cls-5" d="M1291.65332,85.14982c0,6.17188-1.27734,10.89258-3.83203,14.16162-2.55469,3.27002-6.29395,4.90479-11.21875,4.90479-4.86328,0-8.58203-1.604-11.15723-4.8125-2.5752-3.20801-3.89258-7.80615-3.9541-13.79395v-8.21484c0-6.23242,1.29199-10.96289,3.87793-14.19238,2.58398-3.22852,6.30859-4.84277,11.17285-4.84277,4.86328,0,8.58203,1.59912,11.15723,4.79688,2.5752,3.19873,3.89258,7.79102,3.9541,13.77832v8.21484ZM1282.79492,76.11808c0-3.70215-.50586-6.39746-1.51758-8.08496s-2.58984-2.53125-4.73535-2.53125c-2.08496,0-3.62305.80322-4.61328,2.40869-.99219,1.60547-1.51758,4.11621-1.5791,7.53223v10.86133c0,3.64111.49512,6.34668,1.48633,8.11572.99121,1.76953,2.58008,2.6543,4.7666,2.6543,2.16602,0,3.72949-.84912,4.69043-2.54688.95996-1.69727,1.46094-4.29492,1.50195-7.79346v-10.61572Z"/>
      <path class="cls-5" d="M1327.66992,85.14982c0,6.17188-1.27734,10.89258-3.83203,14.16162-2.55469,3.27002-6.29395,4.90479-11.21875,4.90479-4.86328,0-8.58203-1.604-11.15723-4.8125-2.5752-3.20801-3.89258-7.80615-3.9541-13.79395v-8.21484c0-6.23242,1.29199-10.96289,3.87793-14.19238,2.58398-3.22852,6.30859-4.84277,11.17285-4.84277,4.86328,0,8.58203,1.59912,11.15723,4.79688,2.5752,3.19873,3.89258,7.79102,3.9541,13.77832v8.21484ZM1318.81152,76.11808c0-3.70215-.50586-6.39746-1.51758-8.08496s-2.58984-2.53125-4.73535-2.53125c-2.08496,0-3.62305.80322-4.61328,2.40869-.99219,1.60547-1.51758,4.11621-1.5791,7.53223v10.86133c0,3.64111.49512,6.34668,1.48633,8.11572.99121,1.76953,2.58008,2.6543,4.7666,2.6543,2.16602,0,3.72949-.84912,4.69043-2.54688.95996-1.69727,1.46094-4.29492,1.50195-7.79346v-10.61572Z"/>
      <path class="cls-5" d="M1363.68652,85.14982c0,6.17188-1.27734,10.89258-3.83203,14.16162-2.55469,3.27002-6.29395,4.90479-11.21875,4.90479-4.86328,0-8.58203-1.604-11.15723-4.8125-2.5752-3.20801-3.89258-7.80615-3.9541-13.79395v-8.21484c0-6.23242,1.29199-10.96289,3.87793-14.19238,2.58398-3.22852,6.30859-4.84277,11.17285-4.84277,4.86328,0,8.58203,1.59912,11.15723,4.79688,2.5752,3.19873,3.89258,7.79102,3.9541,13.77832v8.21484ZM1354.82812,76.11808c0-3.70215-.50586-6.39746-1.51758-8.08496s-2.58984-2.53125-4.73535-2.53125c-2.08496,0-3.62305.80322-4.61328,2.40869-.99219,1.60547-1.51758,4.11621-1.5791,7.53223v10.86133c0,3.64111.49512,6.34668,1.48633,8.11572.99121,1.76953,2.58008,2.6543,4.7666,2.6543,2.16602,0,3.72949-.84912,4.69043-2.54688.95996-1.69727,1.46094-4.29492,1.50195-7.79346v-10.61572Z"/>
    </g>
    <path class="cls-3" d="M933.91115,213.83907l.00021.00006h0c157.54505-90.60779,356.68609-90.60779,488.77817-6.20019l.00023.00005"/>
    <polyline class="cls-3" points="1428.12892 175.97361 1428.2088 212.50575 1389.92762 214.24089"/>
  </g>
  <g>
    <path class="cls-5" d="M1224.91602,510.4091h-27.40332v-7.23438h27.40332v7.23438ZM1224.91602,523.68156h-27.40332v-7.23389h27.40332v7.23389Z"/>
    <g>
      <rect class="cls-1" x="1197.99409" y="462.9426" width="111.60268" height="55.80134"/>
      <path class="cls-5" d="M1211.72656,473.67131l-5.33398,14.0083h-7.0498l9.16504-22.28467h6.4375l9.16504,22.28467h-7.01953l-5.36426-14.0083Z"/>
    </g>
  </g>
  <g>
    <g>
      <circle class="cls-4" cx="884.25594" cy="510.12962" r="77.04882"/>
      <circle class="cls-6" cx="884.25594" cy="510.12963" r="67.9968" transform="translate(239.07133 1301.25391) rotate(-80.78253)"/>
    </g>
    <g>
      <circle class="cls-4" cx="743.81038" cy="495.18532" r="86.10104"/>
      <path class="cls-6" d="M753.15889,425.49585c-6.44062,4.26398-6.04319,14.5984-5.98365,15.75189.59706,11.56858,9.49543,13.65838,19.31147,29.31169,10.85081,17.30342,7.85075,27.30508,16.25523,30.42318,7.80677,2.89636,17.90907-2.94566,23.09269-9.33018,11.54285-14.21705,2.26099-35.51557.43639-39.42181,0-.00006-11.16908-23.91162-43.02433-28.27405-3.58157-.49047-7.10193-.4375-10.08781,1.53928Z"/>
      <g>
        <polygon class="cls-9" points="714.02298 384.3409 714.02298 395.18324 717.84968 409.55497 710.33448 401.79506 707.00734 408.22822 717.84968 416.23018 724.86532 413.04125 721.03861 398.37217 721.03861 384.3409 714.02298 384.3409"/>
        <path class="cls-9" d="M630.47307,382.11334c.72711-1.92086,4.27491-2.48373,50.38504,4.46449,19.03007,2.8676,28.19047,4.43488,30.61371,10.84235,1.68872,4.46524-.2034,10.46415-3.8267,14.03129-12.03408,11.84761-43.5914-2.7096-58.67626-12.11794-4.77335-2.9771-20.23656-12.62143-18.49579-17.22019Z"/>
        <path class="cls-9" d="M711.75288,323.82137c-2.23081-.26056-3.81297,2.06466-9.31417,38.10818-2.27039,14.87549-3.16589,22.11233,2.92547,26.47333,4.24495,3.0391,11.10639,4.12552,15.88198,2.97242,15.86124-3.82973,9.27574-32.4992,3.5409-47.20376-1.81468-4.65301-7.69338-19.72637-13.03418-20.35018Z"/>
      </g>
    </g>
    <path class="cls-4" d="M901.36917,508.14187h38.5303c3.81927,0,6.51596-3.74197,5.30773-7.36509l-8.56518-25.68443c-1.25694-3.76919-5.93225-5.06385-8.94896-2.47809l-29.96512,25.68443c-3.94396,3.38054-1.55327,9.84318,3.64123,9.84318Z"/>
    <path class="cls-4" d="M897.64749,521.28376l28.40853,26.02959c2.81596,2.58015,7.33217,1.64297,8.88898-1.84461l11.03628-24.72353c1.61957-3.62818-.95293-7.74119-4.924-7.87268l-39.44481-1.30607c-5.19166-.1719-7.79491,6.20808-3.96498,9.71729Z"/>
    <path class="cls-4" d="M882.1048,491.15932l1.9092-38.48297c.18925-3.81458-3.4145-6.69337-7.09304-5.66615l-26.07729,7.28198c-3.82684,1.06863-5.35157,5.67405-2.91847,8.81518l24.16809,31.20099c3.18096,4.10662,9.75412,2.0391,10.01151-3.14903Z"/>
    <path class="cls-4" d="M895.04613,495.52761l27.40528-27.08385c2.71652-2.68465,2.00426-7.24175-1.40189-8.96946l-24.1463-12.24779c-3.54347-1.79736-7.7789.56818-8.107,4.52785l-3.25897,39.33164c-.42894,5.17676,5.81421,8.09295,9.50888,4.44161Z"/>
    <path class="cls-4" d="M866.19814,510.53332h-38.5303c-3.81927,0-6.51596,3.74197-5.30773,7.36509l8.56518,25.68443c1.25694,3.76919,5.93225,5.06385,8.94896,2.47809l29.96512-25.68443c3.94396-3.38054,1.55327-9.84318-3.64123-9.84318Z"/>
    <path class="cls-4" d="M867.77939,498.02578l-25.0923-29.23971c-2.48724-2.89835-7.08311-2.5079-9.04577.7685l-13.91334,23.22652c-2.04178,3.40849.02046,7.7996,3.94732,8.40497l39.00564,6.0132c5.13386.79145,8.4813-5.23149,5.09845-9.17347Z"/>
    <path class="cls-4" d="M886.21118,528.38689l-.03964,38.53028c-.00393,3.81927,3.73526,6.5198,7.35962,5.3153l25.69323-8.53875c3.77048-1.25306,5.06995-5.92704,2.4873-8.94641l-25.65359-29.99153c-3.37648-3.94744-9.84158-1.5634-9.84692,3.6311Z"/>
    <path class="cls-4" d="M872.52118,523.14758l-27.40528,27.08385c-2.71652,2.68465-2.00426,7.24175,1.40189,8.96946l24.1463,12.24779c3.54347,1.79736,7.7789-.56818,8.107-4.52785l3.25897-39.33164c.42894-5.17676-5.81421-8.09295-9.50888-4.44161Z"/>
  </g>
</svg>