<?xml version="1.0" encoding="UTF-8"?>
<svg id="Ebene_2" data-name="Ebene 2" xmlns="http://www.w3.org/2000/svg" viewBox="0 0 1920 780.93571">
  <defs>
    <style>
      .cls-1, .cls-2, .cls-3 {
        fill: none;
      }

      .cls-2 {
        stroke-width: 3.89251px;
      }

      .cls-2, .cls-3 {
        stroke: #7996a5;
        stroke-miterlimit: 10;
      }

      .cls-3 {
        stroke-width: 3.8226px;
      }

      .cls-4 {
        fill: #0d435c;
      }

      .cls-5 {
        fill: #fff;
      }

      .cls-6 {
        fill: #f3f5f7;
      }

      .cls-7 {
        fill: #7996a5;
      }

      .cls-8 {
        fill: #fac102;
      }
    </style>
  </defs>
  <rect class="cls-6" x="-11.61466" y="-9.91846" width="1953.01137" height="808.3131"/>
  <rect class="cls-5" x="226.43622" y="78.19344" width="610.71102" height="415.24175"/>
  <rect class="cls-5" x="1081.16884" y="78.19344" width="610.71102" height="415.24175"/>
  <path class="cls-4" d="M1705.28602,507.56539V70.05548h-636.61158v437.50991h305.41776v79.32414h-98.38421v31.387h220.33598v-31.387h-98.38421v-79.32414h307.62626ZM1090.9426,92.32364h592.07473v392.9736h-592.07473V92.32364Z"/>
  <path class="cls-4" d="M851.00153,507.56539V70.05548H214.38996v437.50991h305.41776v79.32414h-98.38421v31.387h220.33598v-31.387h-98.38421v-79.32414h307.62626ZM236.65811,92.32364h592.07473v392.9736H236.65811V92.32364Z"/>
  <circle class="cls-5" cx="459.24166" cy="42.89806" r="1.54862"/>
  <g>
    <rect class="cls-1" x="267.22026" y="684.90321" width="530.95043" height="46.97838"/>
    <path class="cls-4" d="M307.90625,709.53632c-.26562,3.67188-1.62109,6.5625-4.06641,8.67188s-5.66797,3.16406-9.66797,3.16406c-4.375,0-7.81641-1.47266-10.32422-4.41797s-3.76172-6.98828-3.76172-12.12891v-2.08594c0-3.28125.57812-6.17188,1.73438-8.67188s2.80859-4.41797,4.95703-5.75391,4.64453-2.00391,7.48828-2.00391c3.9375,0,7.10938,1.05469,9.51562,3.16406s3.79688,5.07031,4.17188,8.88281h-7.03125c-.17188-2.20312-.78516-3.80078-1.83984-4.79297s-2.66016-1.48828-4.81641-1.48828c-2.34375,0-4.09766.83984-5.26172,2.51953s-1.76172,4.28516-1.79297,7.81641v2.57812c0,3.6875.55859,6.38281,1.67578,8.08594s2.87891,2.55469,5.28516,2.55469c2.17188,0,3.79297-.49609,4.86328-1.48828s1.68359-2.52734,1.83984-4.60547h7.03125Z"/>
    <path class="cls-4" d="M311.02344,707.98944c0-2.51562.48438-4.75781,1.45312-6.72656s2.36328-3.49219,4.18359-4.57031,3.93359-1.61719,6.33984-1.61719c3.42188,0,6.21484,1.04688,8.37891,3.14062s3.37109,4.9375,3.62109,8.53125l.04688,1.73438c0,3.89062-1.08594,7.01172-3.25781,9.36328s-5.08594,3.52734-8.74219,3.52734-6.57422-1.17188-8.75391-3.51562-3.26953-5.53125-3.26953-9.5625v-.30469ZM317.79688,708.46991c0,2.41016.45312,4.25293,1.35938,5.52832s2.20312,1.91309,3.89062,1.91309c1.64062,0,2.92188-.62988,3.84375-1.88965s1.38281-3.27441,1.38281-6.04395c0-2.36328-.46094-4.19434-1.38281-5.49316s-2.21875-1.94824-3.89062-1.94824c-1.65625,0-2.9375.64551-3.84375,1.93652s-1.35938,3.29004-1.35938,5.99707Z"/>
    <path class="cls-4" d="M345.45312,695.54413l.21094,2.92969c1.8125-2.26562,4.24219-3.39844,7.28906-3.39844,2.6875,0,4.6875.78906,6,2.36719s1.98438,3.9375,2.01562,7.07812v16.38281h-6.77344v-16.25586c0-1.44141-.3125-2.48633-.9375-3.13672-.625-.64941-1.66406-.97461-3.11719-.97461-1.90625,0-3.33594.81445-4.28906,2.44336v17.92383h-6.77344v-25.35938h6.375Z"/>
    <path class="cls-4" d="M375.59375,712.63007l4.71094-17.08594h7.07812l-8.55469,25.35938h-6.46875l-8.55469-25.35938h7.07812l4.71094,17.08594Z"/>
    <path class="cls-4" d="M401.72656,721.37226c-3.71875,0-6.74609-1.14062-9.08203-3.42188s-3.50391-5.32031-3.50391-9.11719v-.65625c0-2.54688.49219-4.82422,1.47656-6.83203s2.37891-3.55469,4.18359-4.64062,3.86328-1.62891,6.17578-1.62891c3.46875,0,6.19922,1.09375,8.19141,3.28125s2.98828,5.28906,2.98828,9.30469v2.76562h-16.14844c.21875,1.65625.87891,2.98438,1.98047,3.98438s2.49609,1.5,4.18359,1.5c2.60938,0,4.64844-.94531,6.11719-2.83594l3.32812,3.72656c-1.01562,1.4375-2.39062,2.55859-4.125,3.36328s-3.65625,1.20703-5.76562,1.20703ZM400.95312,700.53632c-1.34375,0-2.43359.45508-3.26953,1.36523-.83594.91113-1.37109,2.21289-1.60547,3.9082h9.42188v-.54199c-.03125-1.50586-.4375-2.67188-1.21875-3.49512-.78125-.82422-1.89062-1.23633-3.32812-1.23633Z"/>
    <path class="cls-4" d="M422.23438,695.54413l.21094,2.92969c1.8125-2.26562,4.24219-3.39844,7.28906-3.39844,2.6875,0,4.6875.78906,6,2.36719s1.98438,3.9375,2.01562,7.07812v16.38281h-6.77344v-16.25586c0-1.44141-.3125-2.48633-.9375-3.13672-.625-.64941-1.66406-.97461-3.11719-.97461-1.90625,0-3.33594.81445-4.28906,2.44336v17.92383h-6.77344v-25.35938h6.375Z"/>
    <path class="cls-4" d="M450.99219,689.30976v6.23438h4.33594v4.96875h-4.33594v12.65625c0,.9375.17969,1.60938.53906,2.01562s1.04688.60938,2.0625.60938c.75,0,1.41406-.05469,1.99219-.16406v5.13281c-1.32812.40625-2.69531.60938-4.10156.60938-4.75,0-7.17188-2.39844-7.26562-7.19531v-13.66406h-3.70312v-4.96875h3.70312v-6.23438h6.77344Z"/>
    <path class="cls-4" d="M459.05469,688.98163c0-1.01562.33984-1.85156,1.01953-2.50781s1.60547-.98438,2.77734-.98438c1.15625,0,2.07812.32812,2.76562.98438s1.03125,1.49219,1.03125,2.50781c0,1.03125-.34766,1.875-1.04297,2.53125s-1.61328.98438-2.75391.98438-2.05859-.32812-2.75391-.98438-1.04297-1.5-1.04297-2.53125ZM466.25,720.90351h-6.79688v-25.35938h6.79688v25.35938Z"/>
    <path class="cls-4" d="M470.77344,707.98944c0-2.51562.48438-4.75781,1.45312-6.72656s2.36328-3.49219,4.18359-4.57031,3.93359-1.61719,6.33984-1.61719c3.42188,0,6.21484,1.04688,8.37891,3.14062s3.37109,4.9375,3.62109,8.53125l.04688,1.73438c0,3.89062-1.08594,7.01172-3.25781,9.36328s-5.08594,3.52734-8.74219,3.52734-6.57422-1.17188-8.75391-3.51562-3.26953-5.53125-3.26953-9.5625v-.30469ZM477.54688,708.46991c0,2.41016.45312,4.25293,1.35938,5.52832s2.20312,1.91309,3.89062,1.91309c1.64062,0,2.92188-.62988,3.84375-1.88965s1.38281-3.27441,1.38281-6.04395c0-2.36328-.46094-4.19434-1.38281-5.49316s-2.21875-1.94824-3.89062-1.94824c-1.65625,0-2.9375.64551-3.84375,1.93652s-1.35938,3.29004-1.35938,5.99707Z"/>
    <path class="cls-4" d="M505.20312,695.54413l.21094,2.92969c1.8125-2.26562,4.24219-3.39844,7.28906-3.39844,2.6875,0,4.6875.78906,6,2.36719s1.98438,3.9375,2.01562,7.07812v16.38281h-6.77344v-16.25586c0-1.44141-.3125-2.48633-.9375-3.13672-.625-.64941-1.66406-.97461-3.11719-.97461-1.90625,0-3.33594.81445-4.28906,2.44336v17.92383h-6.77344v-25.35938h6.375Z"/>
    <path class="cls-4" d="M540.54688,720.90351c-.3125-.60938-.53906-1.36719-.67969-2.27344-1.64062,1.82812-3.77344,2.74219-6.39844,2.74219-2.48438,0-4.54297-.71875-6.17578-2.15625s-2.44922-3.25-2.44922-5.4375c0-2.6875.99609-4.75,2.98828-6.1875s4.87109-2.16406,8.63672-2.17969h3.11719v-1.45312c0-1.17188-.30078-2.10938-.90234-2.8125s-1.55078-1.05469-2.84766-1.05469c-1.14062,0-2.03516.27344-2.68359.82031s-.97266,1.29688-.97266,2.25h-6.77344c0-1.46875.45312-2.82812,1.35938-4.07812s2.1875-2.23047,3.84375-2.94141,3.51562-1.06641,5.57812-1.06641c3.125,0,5.60547.78516,7.44141,2.35547s2.75391,3.77734,2.75391,6.62109v10.99219c.01562,2.40625.35156,4.22656,1.00781,5.46094v.39844h-6.84375ZM534.94531,716.19257c1,0,1.92188-.22266,2.76562-.66797s1.46875-1.04297,1.875-1.79297v-4.35938h-2.53125c-3.39062,0-5.19531,1.17188-5.41406,3.51562l-.02344.39844c0,.84375.29688,1.53906.89062,2.08594s1.40625.82031,2.4375.82031Z"/>
    <path class="cls-4" d="M558.73438,720.90351h-6.79688v-36h6.79688v36Z"/>
    <path class="cls-4" d="M603.5,709.53632c-.26562,3.67188-1.62109,6.5625-4.06641,8.67188s-5.66797,3.16406-9.66797,3.16406c-4.375,0-7.81641-1.47266-10.32422-4.41797s-3.76172-6.98828-3.76172-12.12891v-2.08594c0-3.28125.57812-6.17188,1.73438-8.67188s2.80859-4.41797,4.95703-5.75391,4.64453-2.00391,7.48828-2.00391c3.9375,0,7.10938,1.05469,9.51562,3.16406s3.79688,5.07031,4.17188,8.88281h-7.03125c-.17188-2.20312-.78516-3.80078-1.83984-4.79297s-2.66016-1.48828-4.81641-1.48828c-2.34375,0-4.09766.83984-5.26172,2.51953s-1.76172,4.28516-1.79297,7.81641v2.57812c0,3.6875.55859,6.38281,1.67578,8.08594s2.87891,2.55469,5.28516,2.55469c2.17188,0,3.79297-.49609,4.86328-1.48828s1.68359-2.52734,1.83984-4.60547h7.03125Z"/>
    <path class="cls-4" d="M606.61719,707.98944c0-2.51562.48438-4.75781,1.45312-6.72656s2.36328-3.49219,4.18359-4.57031,3.93359-1.61719,6.33984-1.61719c3.42188,0,6.21484,1.04688,8.37891,3.14062s3.37109,4.9375,3.62109,8.53125l.04688,1.73438c0,3.89062-1.08594,7.01172-3.25781,9.36328s-5.08594,3.52734-8.74219,3.52734-6.57422-1.17188-8.75391-3.51562-3.26953-5.53125-3.26953-9.5625v-.30469ZM613.39062,708.46991c0,2.41016.45312,4.25293,1.35938,5.52832s2.20312,1.91309,3.89062,1.91309c1.64062,0,2.92188-.62988,3.84375-1.88965s1.38281-3.27441,1.38281-6.04395c0-2.36328-.46094-4.19434-1.38281-5.49316s-2.21875-1.94824-3.89062-1.94824c-1.65625,0-2.9375.64551-3.84375,1.93652s-1.35938,3.29004-1.35938,5.99707Z"/>
    <path class="cls-4" d="M641.16406,695.54413l.21094,2.83594c1.79688-2.20312,4.22656-3.30469,7.28906-3.30469,3.26562,0,5.50781,1.28906,6.72656,3.86719,1.78125-2.57812,4.32031-3.86719,7.61719-3.86719,2.75,0,4.79688.80078,6.14062,2.40234s2.01562,4.01172,2.01562,7.23047v16.19531h-6.79688v-16.20898c0-1.44141-.28125-2.49414-.84375-3.15918-.5625-.66602-1.55469-.99902-2.97656-.99902-2.03125,0-3.4375.9707-4.21875,2.91309l.02344,17.4541h-6.77344v-16.18555c0-1.47266-.28906-2.53711-.86719-3.19531-.57812-.65723-1.5625-.98633-2.95312-.98633-1.92188,0-3.3125.79883-4.17188,2.39648v17.9707h-6.77344v-25.35938h6.35156Z"/>
    <path class="cls-4" d="M699.19531,708.45819c0,3.90625-.88672,7.03516-2.66016,9.38672s-4.16797,3.52734-7.18359,3.52734c-2.5625,0-4.63281-.89062-6.21094-2.67188v11.95312h-6.77344v-35.10938h6.28125l.23438,2.48438c1.64062-1.96875,3.78125-2.95312,6.42188-2.95312,3.125,0,5.55469,1.15625,7.28906,3.46875s2.60156,5.5,2.60156,9.5625v.35156ZM692.42188,707.94159c0-2.36621-.41797-4.19238-1.25391-5.47754s-2.05078-1.92773-3.64453-1.92773c-2.125,0-3.58594.81543-4.38281,2.44531v10.41406c.82812,1.67773,2.30469,2.51562,4.42969,2.51562,3.23438,0,4.85156-2.65625,4.85156-7.96973Z"/>
    <path class="cls-4" d="M718.57812,718.32538c-1.67188,2.03125-3.98438,3.04688-6.9375,3.04688-2.71875,0-4.79297-.78125-6.22266-2.34375s-2.16016-3.85156-2.19141-6.86719v-16.61719h6.77344v16.40234c0,2.64355,1.20312,3.96484,3.60938,3.96484,2.29688,0,3.875-.79785,4.73438-2.39355v-17.97363h6.79688v25.35938h-6.375l-.1875-2.57812Z"/>
    <path class="cls-4" d="M738.35938,689.30976v6.23438h4.33594v4.96875h-4.33594v12.65625c0,.9375.17969,1.60938.53906,2.01562s1.04688.60938,2.0625.60938c.75,0,1.41406-.05469,1.99219-.16406v5.13281c-1.32812.40625-2.69531.60938-4.10156.60938-4.75,0-7.17188-2.39844-7.26562-7.19531v-13.66406h-3.70312v-4.96875h3.70312v-6.23438h6.77344Z"/>
    <path class="cls-4" d="M758.14062,721.37226c-3.71875,0-6.74609-1.14062-9.08203-3.42188s-3.50391-5.32031-3.50391-9.11719v-.65625c0-2.54688.49219-4.82422,1.47656-6.83203s2.37891-3.55469,4.18359-4.64062,3.86328-1.62891,6.17578-1.62891c3.46875,0,6.19922,1.09375,8.19141,3.28125s2.98828,5.28906,2.98828,9.30469v2.76562h-16.14844c.21875,1.65625.87891,2.98438,1.98047,3.98438s2.49609,1.5,4.18359,1.5c2.60938,0,4.64844-.94531,6.11719-2.83594l3.32812,3.72656c-1.01562,1.4375-2.39062,2.55859-4.125,3.36328s-3.65625,1.20703-5.76562,1.20703ZM757.36719,700.53632c-1.34375,0-2.43359.45508-3.26953,1.36523-.83594.91113-1.37109,2.21289-1.60547,3.9082h9.42188v-.54199c-.03125-1.50586-.4375-2.67188-1.21875-3.49512-.78125-.82422-1.89062-1.23633-3.32812-1.23633Z"/>
    <path class="cls-4" d="M786.66406,701.89569c-.92188-.125-1.73438-.1875-2.4375-.1875-2.5625,0-4.24219.86719-5.03906,2.60156v16.59375h-6.77344v-25.35938h6.39844l.1875,3.02344c1.35938-2.32812,3.24219-3.49219,5.64844-3.49219.75,0,1.45312.10156,2.10938.30469l-.09375,6.51562Z"/>
  </g>
  <g>
    <rect class="cls-1" x="1164.7329" y="683.54285" width="439.32626" height="57.35864"/>
    <path class="cls-4" d="M1203.99707,703.25409c0,3.1875-.51562,5.95703-1.54688,8.30859s-2.46094,4.23828-4.28906,5.66016l5.67188,4.45312-4.47656,3.96094-7.26562-5.83594c-.82812.14062-1.6875.21094-2.57812.21094-2.82812,0-5.35156-.67969-7.57031-2.03906s-3.9375-3.30078-5.15625-5.82422-1.83594-5.42578-1.85156-8.70703v-1.6875c0-3.35938.60547-6.31641,1.81641-8.87109s2.92188-4.51562,5.13281-5.88281,4.73828-2.05078,7.58203-2.05078,5.37109.68359,7.58203,2.05078,3.92188,3.32812,5.13281,5.88281,1.81641,5.50391,1.81641,8.84766v1.52344ZM1196.87207,701.70722c0-3.57812-.64062-6.29688-1.92188-8.15625s-3.10938-2.78906-5.48438-2.78906c-2.35938,0-4.17969.91797-5.46094,2.75391s-1.92969,4.52734-1.94531,8.07422v1.66406c0,3.48438.64062,6.1875,1.92188,8.10938s3.125,2.88281,5.53125,2.88281c2.35938,0,4.17188-.92578,5.4375-2.77734s1.90625-4.55078,1.92188-8.09766v-1.66406Z"/>
    <path class="cls-4" d="M1223.89551,716.96503c-1.67188,2.03125-3.98438,3.04688-6.9375,3.04688-2.71875,0-4.79297-.78125-6.22266-2.34375s-2.16016-3.85156-2.19141-6.86719v-16.61719h6.77344v16.40234c0,2.64355,1.20312,3.96484,3.60938,3.96484,2.29688,0,3.875-.79785,4.73438-2.39355v-17.97363h6.79688v25.35938h-6.375l-.1875-2.57812Z"/>
    <path class="cls-4" d="M1250.2627,719.54315c-.3125-.60938-.53906-1.36719-.67969-2.27344-1.64062,1.82812-3.77344,2.74219-6.39844,2.74219-2.48438,0-4.54297-.71875-6.17578-2.15625s-2.44922-3.25-2.44922-5.4375c0-2.6875.99609-4.75,2.98828-6.1875s4.87109-2.16406,8.63672-2.17969h3.11719v-1.45312c0-1.17188-.30078-2.10938-.90234-2.8125s-1.55078-1.05469-2.84766-1.05469c-1.14062,0-2.03516.27344-2.68359.82031s-.97266,1.29688-.97266,2.25h-6.77344c0-1.46875.45312-2.82812,1.35938-4.07812s2.1875-2.23047,3.84375-2.94141,3.51562-1.06641,5.57812-1.06641c3.125,0,5.60547.78516,7.44141,2.35547s2.75391,3.77734,2.75391,6.62109v10.99219c.01562,2.40625.35156,4.22656,1.00781,5.46094v.39844h-6.84375ZM1244.66113,714.83222c1,0,1.92188-.22266,2.76562-.66797s1.46875-1.04297,1.875-1.79297v-4.35938h-2.53125c-3.39062,0-5.19531,1.17188-5.41406,3.51562l-.02344.39844c0,.84375.29688,1.53906.89062,2.08594s1.40625.82031,2.4375.82031Z"/>
    <path class="cls-4" d="M1267.53613,694.18378l.21094,2.92969c1.8125-2.26562,4.24219-3.39844,7.28906-3.39844,2.6875,0,4.6875.78906,6,2.36719s1.98438,3.9375,2.01562,7.07812v16.38281h-6.77344v-16.25586c0-1.44141-.3125-2.48633-.9375-3.13672-.625-.64941-1.66406-.97461-3.11719-.97461-1.90625,0-3.33594.81445-4.28906,2.44336v17.92383h-6.77344v-25.35938h6.375Z"/>
    <path class="cls-4" d="M1296.29395,687.9494v6.23438h4.33594v4.96875h-4.33594v12.65625c0,.9375.17969,1.60938.53906,2.01562s1.04688.60938,2.0625.60938c.75,0,1.41406-.05469,1.99219-.16406v5.13281c-1.32812.40625-2.69531.60938-4.10156.60938-4.75,0-7.17188-2.39844-7.26562-7.19531v-13.66406h-3.70312v-4.96875h3.70312v-6.23438h6.77344Z"/>
    <path class="cls-4" d="M1319.59082,716.96503c-1.67188,2.03125-3.98438,3.04688-6.9375,3.04688-2.71875,0-4.79297-.78125-6.22266-2.34375s-2.16016-3.85156-2.19141-6.86719v-16.61719h6.77344v16.40234c0,2.64355,1.20312,3.96484,3.60938,3.96484,2.29688,0,3.875-.79785,4.73438-2.39355v-17.97363h6.79688v25.35938h-6.375l-.1875-2.57812Z"/>
    <path class="cls-4" d="M1337.61426,694.18378l.21094,2.83594c1.79688-2.20312,4.22656-3.30469,7.28906-3.30469,3.26562,0,5.50781,1.28906,6.72656,3.86719,1.78125-2.57812,4.32031-3.86719,7.61719-3.86719,2.75,0,4.79688.80078,6.14062,2.40234s2.01562,4.01172,2.01562,7.23047v16.19531h-6.79688v-16.20898c0-1.44141-.28125-2.49414-.84375-3.15918-.5625-.66602-1.55469-.99902-2.97656-.99902-2.03125,0-3.4375.9707-4.21875,2.91309l.02344,17.4541h-6.77344v-16.18555c0-1.47266-.28906-2.53711-.86719-3.19531-.57812-.65723-1.5625-.98633-2.95312-.98633-1.92188,0-3.3125.79883-4.17188,2.39648v17.9707h-6.77344v-25.35938h6.35156Z"/>
    <path class="cls-4" d="M1412.00488,708.17597c-.26562,3.67188-1.62109,6.5625-4.06641,8.67188s-5.66797,3.16406-9.66797,3.16406c-4.375,0-7.81641-1.47266-10.32422-4.41797s-3.76172-6.98828-3.76172-12.12891v-2.08594c0-3.28125.57812-6.17188,1.73438-8.67188s2.80859-4.41797,4.95703-5.75391,4.64453-2.00391,7.48828-2.00391c3.9375,0,7.10938,1.05469,9.51562,3.16406s3.79688,5.07031,4.17188,8.88281h-7.03125c-.17188-2.20312-.78516-3.80078-1.83984-4.79297s-2.66016-1.48828-4.81641-1.48828c-2.34375,0-4.09766.83984-5.26172,2.51953s-1.76172,4.28516-1.79297,7.81641v2.57812c0,3.6875.55859,6.38281,1.67578,8.08594s2.87891,2.55469,5.28516,2.55469c2.17188,0,3.79297-.49609,4.86328-1.48828s1.68359-2.52734,1.83984-4.60547h7.03125Z"/>
    <path class="cls-4" d="M1415.12207,706.62909c0-2.51562.48438-4.75781,1.45312-6.72656s2.36328-3.49219,4.18359-4.57031,3.93359-1.61719,6.33984-1.61719c3.42188,0,6.21484,1.04688,8.37891,3.14062s3.37109,4.9375,3.62109,8.53125l.04688,1.73438c0,3.89062-1.08594,7.01172-3.25781,9.36328s-5.08594,3.52734-8.74219,3.52734-6.57422-1.17188-8.75391-3.51562-3.26953-5.53125-3.26953-9.5625v-.30469ZM1421.89551,707.10956c0,2.41016.45312,4.25293,1.35938,5.52832s2.20312,1.91309,3.89062,1.91309c1.64062,0,2.92188-.62988,3.84375-1.88965s1.38281-3.27441,1.38281-6.04395c0-2.36328-.46094-4.19434-1.38281-5.49316s-2.21875-1.94824-3.89062-1.94824c-1.65625,0-2.9375.64551-3.84375,1.93652s-1.35938,3.29004-1.35938,5.99707Z"/>
    <path class="cls-4" d="M1449.66895,694.18378l.21094,2.83594c1.79688-2.20312,4.22656-3.30469,7.28906-3.30469,3.26562,0,5.50781,1.28906,6.72656,3.86719,1.78125-2.57812,4.32031-3.86719,7.61719-3.86719,2.75,0,4.79688.80078,6.14062,2.40234s2.01562,4.01172,2.01562,7.23047v16.19531h-6.79688v-16.20898c0-1.44141-.28125-2.49414-.84375-3.15918-.5625-.66602-1.55469-.99902-2.97656-.99902-2.03125,0-3.4375.9707-4.21875,2.91309l.02344,17.4541h-6.77344v-16.18555c0-1.47266-.28906-2.53711-.86719-3.19531-.57812-.65723-1.5625-.98633-2.95312-.98633-1.92188,0-3.3125.79883-4.17188,2.39648v17.9707h-6.77344v-25.35938h6.35156Z"/>
    <path class="cls-4" d="M1507.7002,707.09784c0,3.90625-.88672,7.03516-2.66016,9.38672s-4.16797,3.52734-7.18359,3.52734c-2.5625,0-4.63281-.89062-6.21094-2.67188v11.95312h-6.77344v-35.10938h6.28125l.23438,2.48438c1.64062-1.96875,3.78125-2.95312,6.42188-2.95312,3.125,0,5.55469,1.15625,7.28906,3.46875s2.60156,5.5,2.60156,9.5625v.35156ZM1500.92676,706.58124c0-2.36621-.41797-4.19238-1.25391-5.47754s-2.05078-1.92773-3.64453-1.92773c-2.125,0-3.58594.81543-4.38281,2.44531v10.41406c.82812,1.67773,2.30469,2.51562,4.42969,2.51562,3.23438,0,4.85156-2.65625,4.85156-7.96973Z"/>
    <path class="cls-4" d="M1527.08301,716.96503c-1.67188,2.03125-3.98438,3.04688-6.9375,3.04688-2.71875,0-4.79297-.78125-6.22266-2.34375s-2.16016-3.85156-2.19141-6.86719v-16.61719h6.77344v16.40234c0,2.64355,1.20312,3.96484,3.60938,3.96484,2.29688,0,3.875-.79785,4.73438-2.39355v-17.97363h6.79688v25.35938h-6.375l-.1875-2.57812Z"/>
    <path class="cls-4" d="M1546.86426,687.9494v6.23438h4.33594v4.96875h-4.33594v12.65625c0,.9375.17969,1.60938.53906,2.01562s1.04688.60938,2.0625.60938c.75,0,1.41406-.05469,1.99219-.16406v5.13281c-1.32812.40625-2.69531.60938-4.10156.60938-4.75,0-7.17188-2.39844-7.26562-7.19531v-13.66406h-3.70312v-4.96875h3.70312v-6.23438h6.77344Z"/>
    <path class="cls-4" d="M1566.64551,720.0119c-3.71875,0-6.74609-1.14062-9.08203-3.42188s-3.50391-5.32031-3.50391-9.11719v-.65625c0-2.54688.49219-4.82422,1.47656-6.83203s2.37891-3.55469,4.18359-4.64062,3.86328-1.62891,6.17578-1.62891c3.46875,0,6.19922,1.09375,8.19141,3.28125s2.98828,5.28906,2.98828,9.30469v2.76562h-16.14844c.21875,1.65625.87891,2.98438,1.98047,3.98438s2.49609,1.5,4.18359,1.5c2.60938,0,4.64844-.94531,6.11719-2.83594l3.32812,3.72656c-1.01562,1.4375-2.39062,2.55859-4.125,3.36328s-3.65625,1.20703-5.76562,1.20703ZM1565.87207,699.17597c-1.34375,0-2.43359.45508-3.26953,1.36523-.83594.91113-1.37109,2.21289-1.60547,3.9082h9.42188v-.54199c-.03125-1.50586-.4375-2.67188-1.21875-3.49512-.78125-.82422-1.89062-1.23633-3.32812-1.23633Z"/>
    <path class="cls-4" d="M1595.16895,700.53534c-.92188-.125-1.73438-.1875-2.4375-.1875-2.5625,0-4.24219.86719-5.03906,2.60156v16.59375h-6.77344v-25.35938h6.39844l.1875,3.02344c1.35938-2.32812,3.24219-3.49219,5.64844-3.49219.75,0,1.45312.10156,2.10938.30469l-.09375,6.51562Z"/>
  </g>
  <g>
    <polygon class="cls-7" points="497.12785 220.79736 491.90534 220.79736 491.90534 184.41406 517.68474 167.10081 520.59676 171.4349 497.12785 187.19652 497.12785 220.79736"/>
    <polygon class="cls-7" points="477.282 220.79736 472.05948 220.79736 472.05948 176.37824 499.25634 156.89948 499.25634 131.78022 504.47885 131.78022 504.47885 159.58323 477.282 179.06199 477.282 220.79736"/>
    <rect class="cls-7" x="453.31644" y="129.20752" width="5.22251" height="91.58984"/>
    <polygon class="cls-7" points="435.38622 220.79736 430.16371 220.79736 430.16371 199.08059 453.84393 167.69462 458.01145 170.84109 435.38622 200.82966 435.38622 220.79736"/>
    <polygon class="cls-7" points="418.48016 220.79736 413.25764 220.79736 413.25764 172.82305 381.65111 150.45077 384.66802 146.18762 418.48016 170.12079 418.48016 220.79736"/>
    <polygon class="cls-7" points="400.47128 220.79736 395.24877 220.79736 395.24877 199.34588 367.03086 180.89743 369.88735 176.52631 400.47128 196.52023 400.47128 220.79736"/>
    <circle class="cls-7" cx="372.76764" cy="181.52901" r="10.18889"/>
    <circle class="cls-7" cx="383.15962" cy="148.31905" r="10.18889"/>
    <circle class="cls-7" cx="454.72362" cy="129.20823" r="10.18889"/>
    <circle class="cls-7" cx="500.66308" cy="129.20823" r="10.18889"/>
    <circle class="cls-7" cx="519.1404" cy="169.26744" r="10.18889"/>
    <polygon class="cls-7" points="372.62046 416.35312 369.70844 412.01902 393.17735 396.2574 393.17735 362.65502 398.39986 362.65502 398.39986 399.03986 372.62046 416.35312"/>
    <polygon class="cls-7" points="391.04886 451.67217 385.82635 451.67217 385.82635 423.86915 413.0232 404.39193 413.0232 362.65502 418.24571 362.65502 418.24571 407.07568 391.04886 426.5529 391.04886 451.67217"/>
    <rect class="cls-7" x="431.76625" y="362.65502" width="5.22251" height="91.58984"/>
    <polygon class="cls-7" points="436.46127 415.7593 432.29374 412.61284 454.91897 382.62427 454.91897 362.65502 460.14148 362.65502 460.14148 384.37333 436.46127 415.7593"/>
    <polygon class="cls-7" points="505.63718 437.2663 471.82504 413.33159 471.82504 362.65502 477.04755 362.65502 477.04755 410.62933 508.65408 433.00315 505.63718 437.2663"/>
    <polygon class="cls-7" points="520.41784 406.92761 489.83392 386.93215 489.83392 362.65502 495.05643 362.65502 495.05643 384.1065 523.27434 402.55649 520.41784 406.92761"/>
    <circle class="cls-7" cx="517.53735" cy="401.92458" r="10.18889"/>
    <circle class="cls-7" cx="507.14537" cy="435.13455" r="10.18889"/>
    <circle class="cls-7" cx="435.58137" cy="454.24536" r="10.18889"/>
    <circle class="cls-7" cx="389.64191" cy="454.24536" r="10.18889"/>
    <circle class="cls-7" cx="371.16459" cy="414.18616" r="10.18889"/>
    <polygon class="cls-7" points="566.57368 366.09608 550.81206 342.62717 517.20969 342.62717 517.20969 337.40466 553.59452 337.40466 570.90778 363.18406 566.57368 366.09608"/>
    <polygon class="cls-7" points="606.22837 349.97663 578.42536 349.97663 558.94659 322.78132 517.20969 322.78132 517.20969 317.55881 561.63034 317.55881 581.10911 344.75412 606.22837 344.75412 606.22837 349.97663"/>
    <rect class="cls-7" x="517.20969" y="298.81576" width="91.58984" height="5.22251"/>
    <polygon class="cls-7" points="567.1675 303.51077 537.17893 280.884 517.20969 280.884 517.20969 275.66149 538.92799 275.66149 570.31396 299.34325 567.1675 303.51077"/>
    <polygon class="cls-7" points="567.88779 263.97948 517.20969 263.97948 517.20969 258.75696 565.18554 258.75696 587.55781 227.15044 591.82096 230.16734 567.88779 263.97948"/>
    <polygon class="cls-7" points="541.48835 245.9706 517.20969 245.9706 517.20969 240.74809 538.6627 240.74809 557.11116 212.53018 561.48227 215.38667 541.48835 245.9706"/>
    <circle class="cls-7" cx="556.4795" cy="218.2666" r="10.18889"/>
    <circle class="cls-7" cx="589.68947" cy="228.65858" r="10.18889"/>
    <circle class="cls-7" cx="608.80028" cy="300.22259" r="10.18889"/>
    <circle class="cls-7" cx="608.80028" cy="346.16204" r="10.18889"/>
    <circle class="cls-7" cx="568.74108" cy="364.63937" r="10.18889"/>
    <polygon class="cls-7" points="378.71596 245.50172 342.33267 245.50172 325.01786 219.72231 329.35196 216.81029 345.11513 240.27921 378.71596 240.27921 378.71596 245.50172"/>
    <polygon class="cls-7" points="378.71596 265.34757 334.29685 265.34757 314.81808 238.15072 289.69882 238.15072 289.69882 232.92821 317.50183 232.92821 336.98059 260.12506 378.71596 260.12506 378.71596 265.34757"/>
    <rect class="cls-7" x="287.12612" y="278.86811" width="91.58984" height="5.22251"/>
    <polygon class="cls-7" points="378.71596 307.24334 356.99919 307.24334 325.61168 283.56312 328.75815 279.3956 358.74826 302.02083 378.71596 302.02083 378.71596 307.24334"/>
    <polygon class="cls-7" points="308.36937 355.75594 304.10622 352.73904 328.03939 318.9269 378.71596 318.9269 378.71596 324.14941 330.74165 324.14941 308.36937 355.75594"/>
    <polygon class="cls-7" points="338.81603 370.3762 334.44491 367.5197 354.43884 336.93577 378.71596 336.93577 378.71596 342.15829 357.26448 342.15829 338.81603 370.3762"/>
    <circle class="cls-7" cx="339.44703" cy="364.63937" r="10.18889"/>
    <circle class="cls-7" cx="306.23707" cy="354.24737" r="10.18889"/>
    <circle class="cls-7" cx="287.12628" cy="282.68336" r="10.18889"/>
    <circle class="cls-7" cx="287.1263" cy="236.74391" r="10.18889"/>
    <circle class="cls-7" cx="327.18551" cy="218.2666" r="10.18889"/>
    <path class="cls-7" d="M498.78437,364.71873h-101.64309c-12.37609,0-22.44477-10.06868-22.44477-22.44323v-101.64464c0-12.37609,10.06868-22.44477,22.44477-22.44477h101.64309c12.37609,0,22.44477,10.06868,22.44477,22.44477v101.64464c0,12.37455-10.06868,22.44323-22.44477,22.44323ZM397.14127,223.40861c-9.49646,0-17.22226,7.7258-17.22226,17.22226v101.64464c0,9.49646,7.7258,17.22072,17.22226,17.22072h101.64309c9.49646,0,17.22226-7.72426,17.22226-17.22072v-101.64464c0-9.49646-7.7258-17.22226-17.22226-17.22226h-101.64309Z"/>
    <g>
      <g id="oTPJfa">
        <g>
          <path class="cls-8" d="M712.47264,366.20169c-6.78584,4.60683-9.44884,11.1265-9.5776,18.99504-1.59304.25553-3.16939.60885-4.73061,1.03105-1.30217-7.26743.93403-13.77683,6.08498-19.46686.96782-1.06904,1.34794-1.7702.7142-3.27559-1.11271-2.6435.41011-5.65117,3.0085-6.7349,2.4668-1.02907,5.08504-.019,6.33514,2.44362,1.2738,2.50958.46437,5.44697-1.8346,7.00766Z"/>
          <path class="cls-8" d="M717.94695,389.30449c-2.46544-1.63582-5.33091-2.82223-8.14238-4.18826-3.9737-.42862-7.95172-.52406-11.92844-.03833-2.05287.25101-4.0722.63855-6.06949,1.10274.01872.02981.0409.05586.05947.08567-7.99204,3.17144-11.91001,8.75103-13.45212,15.71142-.69639,3.14288-1.05783,6.36994-1.20298,9.57144-.35266,7.78481-1.83543,15.30609-7.20882,21.74668-9.48274,11.36609-22.40882,17.99029-38.40471,19.7386-5.594.61149-11.54555,1.17864-16.9473.18337-4.94614-.91135-9.30936-2.64086-13.10594-5.04074-4.59449-1.40786-19.284-.5897-21.83757-.18788-7.12415,2.15388-24.27274,7.2879-25.3172,8.34996-9.65224,9.81497,46.65019,9.91439,60.61308,10.02812,13.55364.11047,41.29919.02005,54.67196-1.79464,17.69308-2.40088,17.42215-10.9024,26.72215-24.36976,4.14348-6.00019,6.25155-12.07562,9.87792-18.33032,1.14279-1.97075,2.00792-5.08184,6.44816-4.15585,8.01113,1.67066,14.49843-7.83216,14.33455-12.19427-.24711-6.57686-3.02877-12.18375-9.11035-16.21794Z"/>
          <path class="cls-8" d="M728.24807,376.70143c-.63479.02555-1.3664-.09194-1.88633.17786-4.98813,2.58625-9.40799,5.81281-12.58594,10.64938-2.02073-.56039-4.0635-1.0351-6.14085-1.32695-.37201-.05211-.74564-.07039-1.1184-.11022,1.70546-2.03689,3.34191-4.15444,5.33459-5.85615,2.9798-2.54442,6.35078-4.64418,9.62919-6.82086,1.0693-.70994,1.73841-1.32294,1.91176-2.74933.36587-3.00811,2.99083-4.94003,5.74943-4.58256,2.65777.34445,4.50753,2.64112,4.4067,5.47111-.10208,2.86707-2.33487,5.02922-5.30014,5.14771Z"/>
        </g>
      </g>
      <path class="cls-8" d="M629.16452,409.25513c-6.0842-1.38506-10.85452,2.73116-10.82649,9.39044.04392,10.43392,9.85917,16.04409,18.1366,14.79036,8.58678-1.30059,15.99735-9.2933,17.45302-18.58874,2.22236-14.19121-9.77841-27.34008-22.80109-26.66532-6.57133.34049-12.54703,2.64621-17.5986,6.71683-10.448,8.41914-12.99257,19.84388-10.0047,32.21415,2.37847,9.84727,9.46596,16.26309,19.10078,19.46698,3.45784,1.14984,10.10469,2.52852,13.61338,3.3076-3.19485,1.78984-9.7974,1.91897-13.66951,2.04851-8.29089.27734-15.44897-1.33177-21.80094-6.34111-12.22104-9.63786-18.45375-27.08362-14.27133-43.5011,2.01756-7.91965,6.23506-14.58072,11.64606-20.55423,5.65042-6.2378,12.30565-11.10344,20.33751-13.75789,14.92657-4.93306,28.73633-2.78471,40.99657,7.28459,8.65272,7.10644,14.97851,16.12466,15.8469,27.37669,1.04904,13.59274-3.08626,26.41702-13.55558,35.24451-9.03585,7.61882-17.1704,12.65188-32.08154,9.03705-15.88185-2.4697-26.88809-19.94401-22.57215-35.07689,2.75944-9.67536,11.91821-17.44903,21.23802-18.02613,10.58683-.65555,20.15302,7.39658,20.74102,17.45832.59484,10.17913-7.81192,18.81104-17.9355,18.41586-4.37501-.17078-7.72358-2.5646-9.03593-6.45964-1.36257-4.04408-.20685-8.61219,2.99723-11.21452,1.24413-1.01045,2.71887-1.73691,4.0463-2.56633Z"/>
    </g>
  </g>
  <g>
    <polygon class="cls-7" points="1333.10748 222.76183 1327.88497 222.76183 1327.88497 186.37853 1353.66437 169.06527 1356.57639 173.39937 1333.10748 189.16099 1333.10748 222.76183"/>
    <polygon class="cls-7" points="1313.26163 222.76183 1308.03912 222.76183 1308.03912 178.34271 1335.23597 158.86395 1335.23597 133.74468 1340.45848 133.74468 1340.45848 161.5477 1313.26163 181.02646 1313.26163 222.76183"/>
    <rect class="cls-7" x="1289.29607" y="131.17199" width="5.22251" height="91.58984"/>
    <polygon class="cls-7" points="1271.36586 222.76183 1266.14334 222.76183 1266.14334 201.04506 1289.82356 169.65909 1293.99108 172.80556 1271.36586 202.79412 1271.36586 222.76183"/>
    <polygon class="cls-7" points="1254.45979 222.76183 1249.23728 222.76183 1249.23728 174.78752 1217.63075 152.41524 1220.64765 148.15209 1254.45979 172.08526 1254.45979 222.76183"/>
    <polygon class="cls-7" points="1236.45091 222.76183 1231.2284 222.76183 1231.2284 201.31035 1203.01049 182.8619 1205.86698 178.49078 1236.45091 198.4847 1236.45091 222.76183"/>
    <circle class="cls-7" cx="1208.74727" cy="183.49348" r="10.18889"/>
    <circle class="cls-7" cx="1219.13925" cy="150.28352" r="10.18889"/>
    <circle class="cls-7" cx="1290.70325" cy="131.1727" r="10.18889"/>
    <circle class="cls-7" cx="1336.64271" cy="131.1727" r="10.18889"/>
    <circle class="cls-7" cx="1355.12003" cy="171.23191" r="10.18889"/>
    <polygon class="cls-7" points="1208.60009 418.31759 1205.68807 413.98349 1229.15698 398.22187 1229.15698 364.61949 1234.37949 364.61949 1234.37949 401.00433 1208.60009 418.31759"/>
    <polygon class="cls-7" points="1227.02849 453.63663 1221.80598 453.63663 1221.80598 425.83362 1249.00283 406.3564 1249.00283 364.61949 1254.22534 364.61949 1254.22534 409.04015 1227.02849 428.51737 1227.02849 453.63663"/>
    <rect class="cls-7" x="1267.74588" y="364.61949" width="5.22251" height="91.58984"/>
    <polygon class="cls-7" points="1272.4409 417.72377 1268.27338 414.57731 1290.89861 384.58874 1290.89861 364.61949 1296.12112 364.61949 1296.12112 386.3378 1272.4409 417.72377"/>
    <polygon class="cls-7" points="1341.61681 439.23077 1307.80467 415.29606 1307.80467 364.61949 1313.02719 364.61949 1313.02719 412.5938 1344.63372 434.96762 1341.61681 439.23077"/>
    <polygon class="cls-7" points="1356.39748 408.89208 1325.81355 388.89661 1325.81355 364.61949 1331.03606 364.61949 1331.03606 386.07097 1359.25397 404.52096 1356.39748 408.89208"/>
    <circle class="cls-7" cx="1353.51698" cy="403.88905" r="10.18889"/>
    <circle class="cls-7" cx="1343.125" cy="437.09902" r="10.18889"/>
    <circle class="cls-7" cx="1271.561" cy="456.20983" r="10.18889"/>
    <circle class="cls-7" cx="1225.62154" cy="456.20983" r="10.18889"/>
    <circle class="cls-7" cx="1207.14422" cy="416.15062" r="10.18889"/>
    <polygon class="cls-7" points="1402.55331 368.06055 1386.79169 344.59164 1353.18932 344.59164 1353.18932 339.36913 1389.57415 339.36913 1406.88741 365.14853 1402.55331 368.06055"/>
    <polygon class="cls-7" points="1442.208 351.9411 1414.40499 351.9411 1394.92623 324.74579 1353.18932 324.74579 1353.18932 319.52327 1397.60997 319.52327 1417.08874 346.71859 1442.208 346.71859 1442.208 351.9411"/>
    <rect class="cls-7" x="1353.18932" y="300.78023" width="91.58984" height="5.22251"/>
    <polygon class="cls-7" points="1403.14713 305.47524 1373.15856 282.84847 1353.18932 282.84847 1353.18932 277.62596 1374.90763 277.62596 1406.29359 301.30772 1403.14713 305.47524"/>
    <polygon class="cls-7" points="1403.86742 265.94395 1353.18932 265.94395 1353.18932 260.72143 1401.16517 260.72143 1423.53745 229.1149 1427.80059 232.13181 1403.86742 265.94395"/>
    <polygon class="cls-7" points="1377.46798 247.93507 1353.18932 247.93507 1353.18932 242.71256 1374.64234 242.71256 1393.09079 214.49465 1397.4619 217.35114 1377.46798 247.93507"/>
    <circle class="cls-7" cx="1392.45913" cy="220.23107" r="10.18889"/>
    <circle class="cls-7" cx="1425.6691" cy="230.62305" r="10.18889"/>
    <circle class="cls-7" cx="1444.77991" cy="302.18706" r="10.18889"/>
    <circle class="cls-7" cx="1444.77991" cy="348.12651" r="10.18889"/>
    <circle class="cls-7" cx="1404.72071" cy="366.60383" r="10.18889"/>
    <polygon class="cls-7" points="1214.69559 247.46619 1178.3123 247.46619 1160.9975 221.68678 1165.33159 218.77476 1181.09476 242.24368 1214.69559 242.24368 1214.69559 247.46619"/>
    <polygon class="cls-7" points="1214.69559 267.31204 1170.27648 267.31204 1150.79771 240.11519 1125.67845 240.11519 1125.67845 234.89267 1153.48146 234.89267 1172.96023 262.08953 1214.69559 262.08953 1214.69559 267.31204"/>
    <rect class="cls-7" x="1123.10575" y="280.83258" width="91.58984" height="5.22251"/>
    <polygon class="cls-7" points="1214.69559 309.20781 1192.97883 309.20781 1161.59131 285.52759 1164.73778 281.36007 1194.72789 303.9853 1214.69559 303.9853 1214.69559 309.20781"/>
    <polygon class="cls-7" points="1144.34901 357.72041 1140.08586 354.70351 1164.01903 320.89137 1214.69559 320.89137 1214.69559 326.11388 1166.72128 326.11388 1144.34901 357.72041"/>
    <polygon class="cls-7" points="1174.79566 372.34067 1170.42455 369.48417 1190.41847 338.90024 1214.69559 338.90024 1214.69559 344.12275 1193.24412 344.12275 1174.79566 372.34067"/>
    <circle class="cls-7" cx="1175.42667" cy="366.60384" r="10.18889"/>
    <circle class="cls-7" cx="1142.2167" cy="356.21184" r="10.18889"/>
    <circle class="cls-7" cx="1123.10591" cy="284.64783" r="10.18889"/>
    <circle class="cls-7" cx="1123.10593" cy="238.70838" r="10.18889"/>
    <circle class="cls-7" cx="1163.16514" cy="220.23107" r="10.18889"/>
    <path class="cls-7" d="M1334.764,366.6832h-101.64309c-12.37609,0-22.44477-10.06868-22.44477-22.44323v-101.64464c0-12.37609,10.06868-22.44477,22.44477-22.44477h101.64309c12.37609,0,22.44477,10.06868,22.44477,22.44477v101.64464c0,12.37455-10.06868,22.44323-22.44477,22.44323ZM1233.12091,225.37308c-9.49646,0-17.22226,7.7258-17.22226,17.22226v101.64464c0,9.49646,7.7258,17.22072,17.22226,17.22072h101.64309c9.49646,0,17.22226-7.72426,17.22226-17.22072v-101.64464c0-9.49646-7.7258-17.22226-17.22226-17.22226h-101.64309Z"/>
  </g>
  <ellipse class="cls-3" cx="1283.08585" cy="293.68784" rx="50.87894" ry="20.68931" transform="translate(417.21379 1285.06436) rotate(-61.75836)"/>
  <g>
    <ellipse class="cls-2" cx="1282.19725" cy="293.41125" rx="20.68931" ry="52.75683" transform="translate(39.95279 725.78684) rotate(-32.0803)"/>
    <ellipse class="cls-2" cx="1282.19725" cy="297.15623" rx="20.68931" ry="52.75683" transform="translate(976.4859 1577.34067) rotate(-89.61741)"/>
  </g>
  <path class="cls-8" d="M1609.78251,331.80413c3.31786-3.72779,4.59586-3.68788,6.5094.67688,1.90187,4.33818,4.60361,7.58091,8.53296,10.34029,4.74527,3.33237,8.6238,7.67194,9.02869,14.07297.05357.8468,1.19403,1.57558,1.64277,2.45507,2.13243,4.17933,4.36732,8.31965,6.22223,12.6219.9917,2.3001-.49588,4.04497-3.2822,4.67746-.66496.15094-.46237-.04443-1.14957.94965-3.55917,5.14834-5.89341,5.79734-12.09714,4.77012-.58023-.09608-.69553-.13085-.97985.21468.25397,2.18816-.01759,5.32928-1.17593,6.71688-1.24079,1.48638-4.04028,1.89325-6.3894,1.14353-2.39911-1.19955-3.2228-2.76775-5.06201-4.39976-.97059-.86123-1.80521-1.99664-2.36756-3.16832-.84919-1.76939-2.08544-2.91282-3.94578-2.17613-.97608.38657-10.71374,6.33829-13.5694,10.42875-1.50528,2.15615-1.18343,3.86203.88909,5.85729,13.17782,12.68637,26.82886,24.97428,38.98383,38.58941,5.83208,6.53267,11.68868,12.66856,18.67389,17.83104,2.15422,1.59207,2.90482,3.66587,3.58449,6.39957.71434,2.87295,3.4362,5.82496,6.07212,7.49056,3.04093,1.92152,6.8898,2.71753,10.49056,3.56664,6.01544,1.41855,9.54581,6.02203,8.62215,12.03752-.1156.7529-1.26408,1.99809-1.79951,1.93169-3.91926-.48601-7.91808,2.33533-11.78141-.28286-.37745-.25575-1.11856-.12798-1.64232.00837-5.72665,1.49117-10.38441-1.22375-14.96697-3.92276-2.61798-1.54191-2.99593-4.28402-3.06305-7.12673-.02867-1.2152-.26194-2.93221-1.06864-3.54638-12.03284-9.16192-24.13527-18.23465-36.33494-27.17338-2.15217-1.57693-5.07327-2.11594-7.19439-3.72173-3.63476-2.75176-6.90734-5.97986-10.35468-8.98191-1.49359-1.30068-2.86067-2.93082-4.59824-3.7366-9.60599-4.45471-19.30848-8.70137-29.43085-13.22157-.3122.47493-1.08747,1.65425-2.00631,3.05194,9.68536,8.23296,15.19767,19.60041,22.88793,29.29715,1.06777,1.34637,3.03419,2.03616,4.67355,2.85112.8824.43868,2.13897.23367,2.9078.77328,3.4566,2.42617,7.12099,3.61608,11.43382,3.90905,3.68622.25039,7.03839,7.07251,5.62939,10.64513-.84098,2.13239-2.69819,3.08291-5.22894,2.56585-1.06746-.21808-2.28884.30882-3.43889.50506-1.41566.24154-3.35679,1.2042-4.1541.61507-3.57021-2.63799-8.52352,1.58592-11.73086-2.751-1.51653-2.0506-3.87926-3.46581-5.79883-5.23377-.64188-.59116-1.48659-1.33937-1.5725-2.09179-.381-3.33667-2.84449-4.83627-5.15496-6.6737-4.68801-3.72811-9.27915-7.58985-13.73909-11.58739-1.99504-1.78818-3.83308-3.86976-5.29521-6.10993-3.33458-5.10907-7.81959-8.66166-13.35441-11.07644-8.01636-3.49744-6.19311-20.00569-7.23838-20.21376-2.18144-3.4625-7.32845-2.85988-11.95937-7.92445-9.31099-7.8049-9.72764-14.34018-14.43723-21.61461-1.65365-2.55427-2.86289-5.39348-4.47569-7.97742-4.70255-7.53415-8.18147-15.58953-10.45139-24.15698-1.41775-5.35116-4.84063-9.28766-9.22338-12.16373-4.74568-3.11422-7.9207-7.41019-10.54679-12.14152-1.80379-3.24986-4.27886-4.65716-7.70862-4.23623-5.03713.61822-10.0486,1.48139-15.04625,2.37804-10.86632,1.94957-20.23117-1.95507-25.4949-11.10163-.95299-1.65595-1.24804-4.10496-.88742-6.00591.55657-2.93385-.54983-4.42733-3.06663-4.96199-7.18285-1.52585-21.16626-10.22178-25.22911-10.87886-5.03595-.81444-7.92681-4.43153-11.72886-7.4433-3.78975-3.00205-4.5741-6.49425-.58395-9.46638.31632-.23562.4736-.69965.67347-1.07424,2.03325-3.81055,3.47614-4.03896,6.52036-1.06707.5258.51331,1.16498.91053,1.61992,1.26005-.46623-1.88613,2.31076-4.00061,2.83586-3.85778,2.85744.77727,5.39091,1.0879,8.62655,3.60049,6.8922,5.35202,8.09928,9.35671,16.80813,9.54358,4.28412.09193,7.06992-.6672,11.32455-1.15661,2.29016-.26344,4.22489-.61927,6.17658,1.71502,1.85356,2.21691,1.5088,5.24827.52729,7.12003-.4825.92014-.78034,1.93706-1.32702,3.3319,6.18405-1.88986,11.65655-4.51461,17.31922-5.02329,5.59233-.50236,11.37694,1.13465,17.53371,1.88907-.98357-1.53646-1.87788-3.26868-3.07999-4.75146-4.43462-5.46996-10.66307-7.98894-17.21396-9.44173-12.44324-2.75952-24.9381-5.33799-37.49192-7.53176-10.66859-1.86432-21.625-2.33764-32.13081-4.80322-9.71672-2.28039-19.24396-5.84311-28.40278-9.86871-6.89857-3.03216-12.99025-7.82084-16.96688-14.60513-1.3657-2.32994-3.12211-5.38585-.37752-7.2942,2.73141-1.89919,4.2994,1.37418,5.76494,3.17313,7.7449,9.50689,18.32843,13.88719,29.73465,17.06878,13.93111,3.88587,28.24409,4.73799,42.52055,6.16163,20.4962,2.04387,40.79376,5.04943,59.73861,13.98561,10.7911,5.09011,19.9711,12.35975,28.73194,20.21068,7.89303,7.07324,16.24338,13.81243,21.25046,23.51194,2.22584,4.31181,4.50805,8.60632,6.47719,13.03641,4.70232,10.579,12.0577,18.78829,22.02847,24.51314,2.52509,1.44982,5.72574,1.7842,8.65865,2.44056,1.75272.39226,3.73203.04276,5.35978.67217,4.96563,1.92007,8.9951-.01053,12.99133-2.57518,8.20989-5.26883,17.05006-8.20429,26.93941-7.14236,2.09727.2252,2.64661-.80868,2.87416-2.74472.25705-2.18705.66007-4.52388,1.69782-6.41196,1.44597-2.63083,3.17973-2.46333,4.83058.0188.43735.65757.81434,1.35508,1.22594,2.03005.34694.56894.7038,1.13181,1.22202,1.96331Z"/>
</svg>