<svg width="125" height="135" viewBox="0 0 125 135" fill="none" xmlns="http://www.w3.org/2000/svg">
  <title>Auswärtiges Amt Logo</title>
  <g clip-path="url(#clip0_160_254)">
    <path d="M5.585 1.34611C5.364 1.19911 4.881 1.02011 4.304 1.02011C3.024 1.02011 1.774 1.86011 1.774 4.03311C1.774 6.13311 2.751 7.17211 4.136 7.17211C4.64 7.17211 5.039 7.07711 5.344 6.96211V4.87311L4.703 4.72611C4.598 4.70511 4.556 4.67311 4.556 4.61111C4.556 4.51611 4.629 4.39011 4.672 4.29611H7.065C7.065 4.29611 7.076 4.35911 7.076 4.41211C7.076 4.58011 6.981 4.70611 6.72 4.78011L6.478 4.84211V7.03611C6.195 7.28811 5.418 7.85511 3.874 7.85511C2.026 7.85511 0.578003 6.71111 0.578003 4.16011C0.578003 1.43111 2.604 0.360107 4.347 0.360107C5.46 0.360107 6.017 0.675107 6.363 0.833107C6.394 1.14711 6.426 1.79911 6.426 1.88311C6.426 2.20811 6.331 2.41811 6.058 2.41811C5.974 2.41811 5.89 2.39711 5.817 2.37611L5.585 1.34611Z" fill="black" />
    <path d="M8.86105 5.20898C8.87205 6.51098 9.49205 7.11998 10.394 7.11998C11.066 7.11998 11.444 6.85698 11.706 6.63698C11.81 6.72098 11.863 6.89898 11.863 6.99398C11.863 7.25698 11.171 7.85498 10.005 7.85498C8.71405 7.85498 7.74805 7.11998 7.74805 5.29298C7.74805 3.46598 8.85105 2.53198 10.047 2.53198C11.234 2.53198 11.832 3.25698 11.832 4.30598C11.832 4.57898 11.779 4.94698 11.706 5.20898H8.86105ZM10.699 4.65298C10.72 4.55798 10.752 4.37998 10.752 4.20098C10.752 3.62298 10.541 3.12998 9.93305 3.12998C9.31405 3.12998 8.94605 3.62298 8.87205 4.65198L10.699 4.65298Z" fill="black" />
    <path d="M15.676 3.23492H14.395V7.16092L15.109 7.29792C15.213 7.31892 15.256 7.34992 15.256 7.43392C15.256 7.53892 15.182 7.69592 15.151 7.72792H12.653C12.653 7.72792 12.642 7.66492 12.642 7.63392C12.642 7.44492 12.768 7.36092 12.967 7.28692L13.324 7.16092V3.23492H12.547C12.547 3.23492 12.536 3.17192 12.536 3.14092C12.536 2.94092 12.662 2.83592 12.861 2.78392L13.324 2.65792V2.55392C13.324 0.863923 14.352 0.0449219 15.256 0.0449219C15.78 0.0449219 15.99 0.275922 15.99 0.600922C15.99 0.863922 15.833 1.01092 15.676 1.09492C15.581 0.989921 15.308 0.790922 14.983 0.790922C14.532 0.790922 14.374 1.04292 14.374 1.66192C14.374 1.98692 14.395 2.65892 14.395 2.65892H15.791L15.676 3.23492Z" fill="black" />
    <path d="M21.082 5.14608C21.082 6.96208 19.812 7.85408 18.531 7.85408C17.219 7.85408 16.137 7.01408 16.137 5.25008C16.137 3.47608 17.397 2.53108 18.73 2.53108C20.043 2.53208 21.082 3.31908 21.082 5.14608ZM17.671 1.80808C17.356 1.80808 17.104 1.57708 17.104 1.24108C17.104 0.884076 17.356 0.653076 17.671 0.653076C17.996 0.653076 18.237 0.884076 18.237 1.24108C18.237 1.57708 17.996 1.80808 17.671 1.80808ZM17.262 5.18808C17.262 6.59508 17.828 7.22508 18.606 7.22508C19.382 7.22508 19.96 6.61608 19.96 5.20908C19.96 3.80208 19.383 3.15108 18.606 3.15108C17.828 3.15108 17.262 3.77108 17.262 5.18808ZM19.57 1.80808C19.234 1.80808 18.993 1.57708 18.993 1.24108C18.993 0.884076 19.234 0.653076 19.57 0.653076C19.885 0.653076 20.127 0.884076 20.127 1.24108C20.127 1.57708 19.886 1.80808 19.57 1.80808Z" fill="black" />
    <path d="M23.519 3.49798H23.55C23.771 3.14198 24.159 2.53198 24.841 2.53198C25.335 2.53198 25.566 2.76298 25.566 3.08898C25.566 3.31998 25.462 3.51998 25.378 3.62398C25.294 3.58198 25.031 3.46698 24.674 3.46698C24.097 3.46698 23.803 3.69798 23.582 4.00198V7.16198L24.338 7.29898C24.443 7.31998 24.485 7.35098 24.485 7.43498C24.485 7.53998 24.401 7.69698 24.381 7.72898H21.84C21.84 7.72898 21.829 7.66598 21.829 7.63498C21.829 7.44598 21.955 7.36198 22.154 7.28798L22.522 7.16198V3.27798L21.777 3.16198C21.777 3.16198 21.766 3.09998 21.766 3.05798C21.766 2.87898 21.902 2.75298 22.154 2.73198L23.582 2.59598L23.519 3.49798Z" fill="black" />
    <path d="M30.469 7.14091L31.236 7.24591C31.236 7.24591 31.247 7.28791 31.247 7.32991C31.247 7.51891 31.11 7.64491 30.858 7.66591L29.472 7.79191V7.10891H29.44C29.209 7.43491 28.768 7.85491 27.949 7.85491C26.921 7.85491 25.955 7.19291 25.955 5.36691C25.955 3.41391 27.32 2.53191 28.664 2.53191C28.968 2.53191 29.23 2.58491 29.409 2.62691V0.789911L28.664 0.68491C28.664 0.68491 28.653 0.61191 28.653 0.56991C28.653 0.39091 28.789 0.264911 29.041 0.244911L30.469 0.10791V7.14091ZM29.409 3.47691C29.252 3.32991 28.968 3.16191 28.527 3.16191C27.676 3.16191 27.047 3.77091 27.047 5.15691C27.047 6.51091 27.635 7.05691 28.338 7.05691C28.947 7.05691 29.273 6.77291 29.409 6.61591V3.47691Z" fill="black" />
    <path d="M32.959 5.20898C32.969 6.51098 33.588 7.11998 34.491 7.11998C35.163 7.11998 35.541 6.85698 35.803 6.63698C35.907 6.72098 35.96 6.89898 35.96 6.99398C35.96 7.25698 35.267 7.85498 34.102 7.85498C32.811 7.85498 31.845 7.11998 31.845 5.29298C31.845 3.46598 32.948 2.53198 34.144 2.53198C35.331 2.53198 35.929 3.25698 35.929 4.30598C35.929 4.57898 35.876 4.94698 35.803 5.20898H32.959ZM34.796 4.65298C34.817 4.55798 34.848 4.37998 34.848 4.20098C34.848 3.62298 34.639 3.12998 34.03 3.12998C33.411 3.12998 33.044 3.62298 32.969 4.65198L34.796 4.65298Z" fill="black" />
    <path d="M38.408 3.49798H38.439C38.66 3.14198 39.048 2.53198 39.73 2.53198C40.224 2.53198 40.455 2.76298 40.455 3.08898C40.455 3.31998 40.351 3.51998 40.267 3.62398C40.183 3.58198 39.92 3.46698 39.563 3.46698C38.986 3.46698 38.692 3.69798 38.471 4.00198V7.16198L39.227 7.29898C39.332 7.31998 39.374 7.35098 39.374 7.43498C39.374 7.53998 39.29 7.69698 39.27 7.72898H36.729C36.729 7.72898 36.718 7.66598 36.718 7.63498C36.718 7.44598 36.844 7.36198 37.043 7.28798L37.411 7.16198V3.27798L36.666 3.16198C36.666 3.16198 36.655 3.09998 36.655 3.05798C36.655 2.87898 36.791 2.75298 37.043 2.73198L38.471 2.59598L38.408 3.49798Z" fill="black" />
    <path d="M43.982 3.23497H42.544V6.29997C42.544 6.77197 42.69 7.16097 43.216 7.16097C43.625 7.16097 43.961 6.98197 44.045 6.90897C44.098 6.99297 44.14 7.14997 44.14 7.25597C44.14 7.35997 43.773 7.85397 42.817 7.85397C41.862 7.85397 41.484 7.29797 41.484 6.48897V3.23497H40.697C40.697 3.23497 40.686 3.17197 40.686 3.14097C40.686 2.94097 40.812 2.82597 41.011 2.78397L41.526 2.65797L41.767 1.24097H42.544V2.65797H44.098L43.982 3.23497Z" fill="black" />
    <path d="M51.353 7.14091L52.119 7.24591C52.119 7.24591 52.13 7.28791 52.13 7.32991C52.13 7.51891 51.993 7.64491 51.741 7.66591L50.355 7.79191V7.10891H50.324C50.094 7.43491 49.652 7.85491 48.834 7.85491C47.805 7.85491 46.839 7.19291 46.839 5.36691C46.839 3.41391 48.203 2.53191 49.547 2.53191C49.852 2.53191 50.114 2.58491 50.293 2.62691V0.789911L49.547 0.68491C49.547 0.68491 49.537 0.61191 49.537 0.56991C49.537 0.39091 49.674 0.264911 49.926 0.244911L51.354 0.10791L51.353 7.14091ZM50.293 3.47691C50.135 3.32991 49.852 3.16191 49.411 3.16191C48.56 3.16191 47.931 3.77091 47.931 5.15691C47.931 6.51091 48.519 7.05691 49.222 7.05691C49.831 7.05691 50.157 6.77291 50.293 6.61591V3.47691Z" fill="black" />
    <path d="M57.4111 7.14095L58.1771 7.24595C58.1771 7.24595 58.1881 7.28795 58.1881 7.32995C58.1881 7.51895 58.0511 7.64495 57.7991 7.66595L56.4131 7.79195V7.09895H56.3921C56.2241 7.31895 55.7631 7.85495 54.8391 7.85495C53.7161 7.85495 53.1911 7.19295 53.1911 5.95495V3.27795L52.4461 3.16195C52.4461 3.16195 52.4351 3.09995 52.4351 3.05795C52.4351 2.87895 52.5721 2.75295 52.8241 2.73195L54.2521 2.59595V5.90295C54.2521 6.85795 54.7561 7.07895 55.2181 7.07895C55.7531 7.07895 56.1091 6.84795 56.3511 6.57495V3.27895L55.6051 3.16295C55.6051 3.16295 55.5951 3.10095 55.5951 3.05895C55.5951 2.87995 55.7321 2.75395 55.9841 2.73295L57.4111 2.59695V7.14095Z" fill="black" />
    <path d="M60.383 3.49798H60.414C60.635 3.14198 61.023 2.53198 61.706 2.53198C62.199 2.53198 62.43 2.76298 62.43 3.08898C62.43 3.31998 62.326 3.51998 62.242 3.62398C62.158 3.58198 61.895 3.46698 61.539 3.46698C60.961 3.46698 60.667 3.69798 60.447 4.00198V7.16198L61.203 7.29898C61.307 7.31998 61.349 7.35098 61.349 7.43498C61.349 7.53998 61.265 7.69698 61.244 7.72898H58.704C58.704 7.72898 58.693 7.66598 58.693 7.63498C58.693 7.44598 58.819 7.36198 59.019 7.28798L59.386 7.16198V3.27798L58.64 3.16198C58.64 3.16198 58.63 3.09998 58.63 3.05798C58.63 2.87898 58.767 2.75298 59.019 2.73198L60.447 2.59598L60.383 3.49798Z" fill="black" />
    <path d="M65.2651 3.16198C64.5621 3.16198 63.9531 3.66598 63.9531 5.04098C63.9531 6.36398 64.4681 7.12998 65.4551 7.12998C66.1051 7.12998 66.4831 6.79398 66.6511 6.62598C66.7461 6.71998 66.8191 6.88798 66.8191 6.98198C66.8191 7.24498 66.2421 7.85398 65.0881 7.85398C63.7231 7.85398 62.8411 6.99298 62.8411 5.26098C62.8411 3.48698 64.0281 2.53198 65.4451 2.53198C66.6001 2.53198 66.8931 3.09898 66.8931 3.40398C66.8931 3.68798 66.7571 3.94998 66.3581 4.03398C66.2001 3.66598 65.9581 3.16198 65.2651 3.16198Z" fill="black" />
    <path d="M69.161 3.28791H69.182C69.392 3.03591 69.896 2.53191 70.799 2.53191C71.849 2.53191 72.446 3.15191 72.446 4.37991V7.16191L73.055 7.29891C73.16 7.31991 73.201 7.35091 73.201 7.43491C73.201 7.53991 73.117 7.69691 73.097 7.72891H70.714C70.714 7.72891 70.703 7.66591 70.703 7.63491C70.703 7.44591 70.829 7.35091 71.028 7.28791L71.375 7.16191V4.50591C71.375 3.61391 70.893 3.34091 70.356 3.34091C69.706 3.34091 69.359 3.62391 69.16 3.82391V7.16191L69.748 7.29891C69.852 7.31991 69.894 7.35091 69.894 7.43491C69.894 7.53991 69.821 7.69691 69.79 7.72891H67.406C67.406 7.72891 67.396 7.66591 67.396 7.63491C67.396 7.44591 67.522 7.35091 67.721 7.28791L68.088 7.16191V0.789911L67.343 0.68491C67.343 0.68491 67.332 0.61191 67.332 0.56991C67.332 0.39091 67.469 0.264911 67.721 0.244911L69.159 0.10791V3.28791H69.161Z" fill="black" />
    <path d="M74.558 3.82298C74.191 3.82298 73.908 3.57098 73.908 3.18298C73.908 2.78398 74.191 2.53198 74.558 2.53198C74.926 2.53198 75.22 2.78398 75.22 3.18298C75.22 3.57098 74.926 3.82298 74.558 3.82298ZM74.558 7.86498C74.191 7.86498 73.908 7.61298 73.908 7.22498C73.908 6.82598 74.191 6.57398 74.558 6.57398C74.926 6.57398 75.22 6.82598 75.22 7.22498C75.22 7.61298 74.926 7.86498 74.558 7.86498Z" fill="black" />
    <path d="M4.31503 118.762C4.31503 119.182 4.47203 119.308 4.65103 119.308C4.89203 119.308 5.01803 119.182 5.04903 119.129C5.10203 119.203 5.17503 119.35 5.17503 119.444C5.17503 119.581 4.90303 119.99 4.22003 119.99C3.73703 119.99 3.43203 119.78 3.33803 119.255H3.31703C3.20203 119.455 2.81303 120.011 1.94203 120.011C1.14403 120.011 0.577026 119.465 0.577026 118.636C0.577026 117.513 1.80603 117.093 2.98103 117.093H3.25403V116.62C3.25403 115.665 3.00203 115.287 2.35103 115.287C2.11003 115.287 1.90003 115.36 1.81603 115.391C1.72103 115.591 1.63703 115.958 1.58503 116.315C1.58503 116.315 1.42803 116.326 1.34403 116.326C0.988027 116.326 0.788027 116.158 0.788027 115.833C0.788027 115.182 1.64803 114.688 2.62503 114.688C3.77903 114.688 4.31503 115.318 4.31503 116.504V118.762ZM3.01303 117.617C2.16303 117.659 1.68003 117.964 1.68003 118.52C1.68003 118.96 1.93203 119.254 2.36303 119.254C2.79403 119.254 3.11903 118.971 3.25603 118.803V117.607L3.01303 117.617Z" fill="black" />
    <path d="M10.309 119.297L11.076 119.402C11.076 119.402 11.087 119.444 11.087 119.486C11.087 119.674 10.95 119.8 10.698 119.822L9.31201 119.948V119.255H9.29101C9.12301 119.476 8.66101 120.011 7.73701 120.011C6.61301 120.011 6.08901 119.35 6.08901 118.112V115.434L5.34401 115.319C5.34401 115.319 5.33301 115.257 5.33301 115.215C5.33301 115.036 5.47001 114.91 5.72201 114.889L7.15001 114.753V118.06C7.15001 119.015 7.65401 119.236 8.11601 119.236C8.65101 119.236 9.00901 119.005 9.25001 118.732V115.435L8.50501 115.32C8.50501 115.32 8.49401 115.258 8.49401 115.216C8.49401 115.037 8.63001 114.911 8.88201 114.89L10.31 114.754V119.297H10.309Z" fill="black" />
    <path d="M14.647 115.392H13.366V119.319L14.08 119.456C14.184 119.477 14.227 119.508 14.227 119.592C14.227 119.697 14.153 119.855 14.122 119.886H11.624C11.624 119.886 11.613 119.824 11.613 119.792C11.613 119.603 11.739 119.519 11.938 119.445L12.295 119.319V115.392H11.518C11.518 115.392 11.507 115.33 11.507 115.298C11.507 115.098 11.633 114.993 11.832 114.941L12.295 114.815V114.711C12.295 113.021 13.323 112.201 14.227 112.201C14.751 112.201 14.961 112.432 14.961 112.758C14.961 113.021 14.804 113.167 14.647 113.251C14.552 113.147 14.279 112.947 13.954 112.947C13.503 112.947 13.345 113.199 13.345 113.818C13.345 114.143 13.366 114.815 13.366 114.815H14.762L14.647 115.392Z" fill="black" />
    <path d="M19.886 115.413H19.036C19.235 115.676 19.361 115.99 19.361 116.368C19.361 117.481 18.437 118.111 17.293 118.111C17.114 118.111 16.957 118.09 16.8 118.058C16.653 118.142 16.506 118.288 16.506 118.531C16.506 118.783 16.674 118.898 17.03 118.898H18.248C19.214 118.898 19.76 119.338 19.76 120.094C19.76 121.144 18.732 122.11 16.957 122.11C15.666 122.11 15.036 121.659 15.036 120.892C15.036 120.158 15.613 119.811 15.991 119.696V119.675C15.718 119.529 15.56 119.277 15.56 118.941C15.56 118.332 16.117 118.048 16.316 117.944V117.923C15.728 117.66 15.35 117.125 15.35 116.369C15.35 115.266 16.274 114.689 17.345 114.689C17.628 114.689 17.901 114.731 18.163 114.815H20L19.886 115.413ZM16.862 119.843C16.716 119.843 16.59 119.833 16.473 119.822C16.201 119.979 16.022 120.242 16.022 120.598C16.022 121.144 16.358 121.491 17.125 121.491C18.144 121.491 18.773 121.018 18.773 120.463C18.773 120.032 18.532 119.843 17.996 119.843H16.862ZM16.4 116.379C16.4 117.208 16.82 117.533 17.345 117.533C17.911 117.533 18.321 117.208 18.321 116.379C18.321 115.634 17.912 115.256 17.366 115.256C16.82 115.256 16.4 115.57 16.4 116.379Z" fill="black" />
    <path d="M22.112 115.654H22.143C22.364 115.298 22.752 114.688 23.434 114.688C23.928 114.688 24.159 114.919 24.159 115.245C24.159 115.475 24.055 115.676 23.971 115.78C23.887 115.738 23.624 115.623 23.267 115.623C22.69 115.623 22.396 115.853 22.175 116.158V119.318L22.931 119.455C23.036 119.476 23.078 119.507 23.078 119.591C23.078 119.696 22.994 119.854 22.974 119.885H20.433C20.433 119.885 20.422 119.823 20.422 119.791C20.422 119.602 20.548 119.518 20.747 119.444L21.115 119.318V115.433L20.37 115.318C20.37 115.318 20.359 115.256 20.359 115.214C20.359 115.035 20.495 114.909 20.747 114.888L22.175 114.752L22.112 115.654Z" fill="black" />
    <path d="M29.368 119.297L30.134 119.402C30.134 119.402 30.145 119.444 30.145 119.486C30.145 119.674 30.008 119.8 29.756 119.822L28.37 119.948V119.255H28.349C28.181 119.476 27.719 120.011 26.795 120.011C25.672 120.011 25.147 119.35 25.147 118.112V115.434L24.402 115.319C24.402 115.319 24.391 115.257 24.391 115.215C24.391 115.036 24.528 114.91 24.78 114.889L26.208 114.753V118.06C26.208 119.015 26.712 119.236 27.174 119.236C27.709 119.236 28.066 119.005 28.308 118.732V115.435L27.562 115.32C27.562 115.32 27.552 115.258 27.552 115.216C27.552 115.037 27.689 114.911 27.941 114.89L29.369 114.754L29.368 119.297Z" fill="black" />
    <path d="M35.6879 119.318L36.3069 119.455C36.4119 119.476 36.4539 119.507 36.4539 119.591C36.4539 119.696 36.3699 119.854 36.3499 119.885H33.9659C33.9659 119.885 33.9549 119.823 33.9549 119.791C33.9549 119.602 34.0819 119.507 34.2809 119.444L34.6269 119.318V116.662C34.6269 115.769 34.1229 115.497 33.6089 115.497C33.0099 115.497 32.6219 115.78 32.4019 115.959V119.318L32.9999 119.455C33.1049 119.476 33.1469 119.507 33.1469 119.591C33.1469 119.696 33.0629 119.854 33.0419 119.885H30.6599C30.6599 119.885 30.6489 119.823 30.6489 119.791C30.6489 119.602 30.7749 119.518 30.9749 119.444L31.3419 119.318V115.433L30.5959 115.318C30.5959 115.318 30.5859 115.256 30.5859 115.214C30.5859 115.035 30.7229 114.909 30.9749 114.888L32.4029 114.752L32.3399 115.486H32.3709C32.6549 115.181 33.1269 114.688 34.0929 114.688C35.1219 114.688 35.6889 115.349 35.6889 116.536L35.6879 119.318Z" fill="black" />
    <path d="M41.5049 119.297L42.2719 119.402C42.2719 119.402 42.2829 119.444 42.2829 119.486C42.2829 119.674 42.1459 119.8 41.8939 119.822L40.5079 119.948V119.265H40.4769C40.2459 119.59 39.8049 120.01 38.9859 120.01C37.9579 120.01 36.9919 119.349 36.9919 117.523C36.9919 115.57 38.3569 114.688 39.7009 114.688C40.0049 114.688 40.2669 114.741 40.4459 114.783V112.946L39.7009 112.841C39.7009 112.841 39.6899 112.768 39.6899 112.726C39.6899 112.547 39.8259 112.421 40.0779 112.401L41.5059 112.264L41.5049 119.297ZM40.4449 115.634C40.2879 115.487 40.0039 115.319 39.5629 115.319C38.7119 115.319 38.0829 115.928 38.0829 117.314C38.0829 118.668 38.6709 119.213 39.3739 119.213C39.9829 119.213 40.3089 118.93 40.4449 118.773V115.634Z" fill="black" />
    <path d="M46.1789 117.365C46.1889 118.667 46.8079 119.276 47.7109 119.276C48.3829 119.276 48.7609 119.013 49.0229 118.793C49.1269 118.877 49.1799 119.056 49.1799 119.15C49.1799 119.413 48.4869 120.01 47.3219 120.01C46.0309 120.01 45.0649 119.276 45.0649 117.448C45.0649 115.622 46.1679 114.687 47.3639 114.687C48.5509 114.687 49.1489 115.412 49.1489 116.461C49.1489 116.733 49.0959 117.102 49.0229 117.363H46.1789V117.365ZM48.0149 116.81C48.0359 116.715 48.0669 116.537 48.0669 116.358C48.0669 115.781 47.8579 115.288 47.2489 115.288C46.6299 115.288 46.2629 115.781 46.1879 116.81H48.0149Z" fill="black" />
    <path d="M51.69 119.318L52.309 119.455C52.413 119.476 52.455 119.507 52.455 119.591C52.455 119.696 52.371 119.854 52.351 119.885H49.947C49.947 119.885 49.936 119.823 49.936 119.791C49.936 119.602 50.062 119.518 50.262 119.444L50.629 119.318V115.433L49.883 115.318C49.883 115.318 49.873 115.256 49.873 115.214C49.873 115.035 50.01 114.909 50.262 114.888L51.69 114.752V119.318ZM51.154 113.712C50.766 113.712 50.471 113.45 50.471 113.04C50.471 112.642 50.766 112.368 51.154 112.368C51.532 112.368 51.847 112.641 51.847 113.04C51.847 113.45 51.532 113.712 51.154 113.712Z" fill="black" />
    <path d="M58.02 119.318L58.639 119.455C58.744 119.476 58.786 119.507 58.786 119.591C58.786 119.696 58.702 119.854 58.682 119.885H56.298C56.298 119.885 56.287 119.823 56.287 119.791C56.287 119.602 56.414 119.507 56.613 119.444L56.959 119.318V116.662C56.959 115.769 56.455 115.497 55.941 115.497C55.342 115.497 54.954 115.78 54.734 115.959V119.318L55.332 119.455C55.437 119.476 55.479 119.507 55.479 119.591C55.479 119.696 55.395 119.854 55.374 119.885H52.991C52.991 119.885 52.98 119.823 52.98 119.791C52.98 119.602 53.106 119.518 53.306 119.444L53.673 119.318V115.433L52.927 115.318C52.927 115.318 52.917 115.256 52.917 115.214C52.917 115.035 53.054 114.909 53.306 114.888L54.734 114.752L54.671 115.486H54.702C54.986 115.181 55.458 114.688 56.424 114.688C57.453 114.688 58.02 115.349 58.02 116.536V119.318Z" fill="black" />
    <path d="M60.436 117.365C60.447 118.667 61.067 119.276 61.969 119.276C62.641 119.276 63.019 119.013 63.281 118.793C63.385 118.877 63.438 119.056 63.438 119.15C63.438 119.413 62.746 120.01 61.58 120.01C60.289 120.01 59.323 119.276 59.323 117.448C59.323 115.622 60.426 114.687 61.622 114.687C62.809 114.687 63.407 115.412 63.407 116.461C63.407 116.733 63.354 117.102 63.281 117.363H60.436V117.365ZM62.274 116.81C62.295 116.715 62.327 116.537 62.327 116.358C62.327 115.781 62.116 115.288 61.508 115.288C60.889 115.288 60.521 115.781 60.447 116.81H62.274Z" fill="black" />
    <path d="M66.694 115.466C66.579 115.382 66.316 115.256 66.001 115.256C65.655 115.256 65.298 115.402 65.298 115.844C65.298 116.306 65.791 116.578 66.295 116.872C66.925 117.25 67.597 117.659 67.597 118.499C67.597 119.36 66.883 120.011 65.729 120.011C65.141 120.011 64.616 119.833 64.396 119.697C64.353 119.434 64.322 119.162 64.322 118.888C64.322 118.468 64.437 118.3 64.753 118.3C64.806 118.3 64.89 118.311 64.89 118.311L65.11 119.204C65.215 119.277 65.52 119.414 65.825 119.414C66.339 119.414 66.665 119.214 66.665 118.773C66.665 118.322 66.161 118.07 65.688 117.776C65.047 117.366 64.407 116.957 64.407 116.054C64.407 115.235 65.121 114.689 66.129 114.689C66.738 114.689 67.169 114.899 67.358 115.078C67.379 115.224 67.4 115.445 67.4 115.655C67.4 116.022 67.327 116.264 66.949 116.264C66.896 116.264 66.823 116.253 66.823 116.253L66.694 115.466Z" fill="black" />
    <path d="M74.474 116.138V116.159C75.493 116.327 76.164 116.904 76.164 117.86C76.164 119.036 75.198 119.885 73.309 119.885H70.642C70.642 119.885 70.631 119.823 70.631 119.77C70.631 119.602 70.715 119.456 70.988 119.392L71.429 119.288V113.22L70.788 113.074C70.683 113.053 70.641 113.021 70.641 112.958C70.641 112.864 70.714 112.738 70.757 112.644H73.224C75.092 112.644 75.985 113.305 75.985 114.47C75.986 115.466 75.378 115.938 74.474 116.138ZM73.131 113.282H72.564V115.928H73.121C74.318 115.928 74.822 115.34 74.822 114.594C74.821 113.733 74.286 113.282 73.131 113.282ZM73.257 116.536H72.564V119.245H73.195C74.423 119.245 74.968 118.667 74.968 117.849C74.968 117.071 74.39 116.536 73.257 116.536Z" fill="black" />
    <path d="M78.233 117.365C78.244 118.667 78.864 119.276 79.766 119.276C80.438 119.276 80.816 119.013 81.078 118.793C81.182 118.877 81.235 119.056 81.235 119.15C81.235 119.413 80.543 120.01 79.377 120.01C78.086 120.01 77.12 119.276 77.12 117.448C77.12 115.622 78.223 114.687 79.419 114.687C80.606 114.687 81.204 115.412 81.204 116.461C81.204 116.733 81.151 117.102 81.078 117.363H78.233V117.365ZM80.071 116.81C80.092 116.715 80.124 116.537 80.124 116.358C80.124 115.781 79.913 115.288 79.305 115.288C78.686 115.288 78.318 115.781 78.244 116.81H80.071Z" fill="black" />
    <path d="M84.492 115.466C84.376 115.382 84.114 115.256 83.799 115.256C83.452 115.256 83.096 115.402 83.096 115.844C83.096 116.306 83.589 116.578 84.093 116.872C84.723 117.25 85.395 117.659 85.395 118.499C85.395 119.36 84.681 120.011 83.527 120.011C82.939 120.011 82.414 119.833 82.193 119.697C82.152 119.434 82.12 119.162 82.12 118.888C82.12 118.468 82.236 118.3 82.551 118.3C82.604 118.3 82.688 118.311 82.688 118.311L82.909 119.204C83.013 119.277 83.318 119.414 83.622 119.414C84.137 119.414 84.462 119.214 84.462 118.773C84.462 118.322 83.958 118.07 83.486 117.776C82.845 117.366 82.205 116.957 82.205 116.054C82.205 115.235 82.919 114.689 83.927 114.689C84.536 114.689 84.966 114.899 85.156 115.078C85.177 115.224 85.198 115.445 85.198 115.655C85.198 116.022 85.125 116.264 84.747 116.264C84.694 116.264 84.621 116.253 84.621 116.253L84.492 115.466Z" fill="black" />
    <path d="M88.649 115.318C87.946 115.318 87.337 115.822 87.337 117.197C87.337 118.52 87.852 119.287 88.839 119.287C89.489 119.287 89.867 118.951 90.035 118.783C90.13 118.877 90.203 119.045 90.203 119.139C90.203 119.402 89.626 120.01 88.472 120.01C87.107 120.01 86.225 119.15 86.225 117.417C86.225 115.643 87.412 114.688 88.829 114.688C89.984 114.688 90.277 115.255 90.277 115.559C90.277 115.843 90.141 116.105 89.742 116.189C89.584 115.822 89.343 115.318 88.649 115.318Z" fill="black" />
    <path d="M92.546 115.444H92.567C92.777 115.192 93.281 114.688 94.184 114.688C95.234 114.688 95.831 115.307 95.831 116.536V119.318L96.44 119.455C96.545 119.476 96.586 119.507 96.586 119.591C96.586 119.696 96.502 119.854 96.482 119.885H94.099C94.099 119.885 94.088 119.823 94.088 119.791C94.088 119.602 94.214 119.507 94.413 119.444L94.76 119.318V116.662C94.76 115.769 94.278 115.497 93.741 115.497C93.091 115.497 92.744 115.78 92.545 115.979V119.318L93.133 119.455C93.237 119.476 93.279 119.507 93.279 119.591C93.279 119.696 93.206 119.854 93.175 119.885H90.791C90.791 119.885 90.781 119.823 90.781 119.791C90.781 119.602 90.907 119.507 91.106 119.444L91.473 119.318V112.946L90.728 112.841C90.728 112.841 90.717 112.768 90.717 112.726C90.717 112.547 90.854 112.421 91.106 112.401L92.544 112.264V115.444H92.546Z" fill="black" />
    <path d="M98.719 119.318L99.327 119.455C99.432 119.476 99.474 119.507 99.474 119.591C99.474 119.696 99.401 119.854 99.37 119.885H96.975C96.975 119.885 96.965 119.823 96.965 119.791C96.965 119.602 97.091 119.507 97.29 119.444L97.657 119.318V112.946L96.912 112.841C96.912 112.841 96.901 112.768 96.901 112.726C96.901 112.547 97.038 112.421 97.29 112.401L98.718 112.264L98.719 119.318Z" fill="black" />
    <path d="M104.819 119.297L105.585 119.402C105.585 119.402 105.596 119.444 105.596 119.486C105.596 119.674 105.459 119.8 105.207 119.822L103.821 119.948V119.255H103.8C103.632 119.476 103.17 120.011 102.246 120.011C101.123 120.011 100.598 119.35 100.598 118.112V115.434L99.853 115.319C99.853 115.319 99.842 115.257 99.842 115.215C99.842 115.036 99.979 114.91 100.231 114.889L101.659 114.753V118.06C101.659 119.015 102.163 119.236 102.625 119.236C103.16 119.236 103.517 119.005 103.759 118.732V115.435L103.013 115.32C103.013 115.32 103.003 115.258 103.003 115.216C103.003 115.037 103.14 114.911 103.392 114.89L104.82 114.754L104.819 119.297Z" fill="black" />
    <path d="M108.599 115.466C108.483 115.382 108.221 115.256 107.906 115.256C107.559 115.256 107.203 115.402 107.203 115.844C107.203 116.306 107.696 116.578 108.2 116.872C108.83 117.25 109.502 117.659 109.502 118.499C109.502 119.36 108.788 120.011 107.634 120.011C107.046 120.011 106.521 119.833 106.3 119.697C106.259 119.434 106.227 119.162 106.227 118.888C106.227 118.468 106.343 118.3 106.658 118.3C106.711 118.3 106.795 118.311 106.795 118.311L107.016 119.204C107.12 119.277 107.425 119.414 107.729 119.414C108.244 119.414 108.569 119.214 108.569 118.773C108.569 118.322 108.065 118.07 107.593 117.776C106.952 117.366 106.312 116.957 106.312 116.054C106.312 115.235 107.026 114.689 108.034 114.689C108.643 114.689 109.073 114.899 109.263 115.078C109.284 115.224 109.305 115.445 109.305 115.655C109.305 116.022 109.232 116.264 108.854 116.264C108.801 116.264 108.728 116.253 108.728 116.253L108.599 115.466Z" fill="black" />
    <path d="M112.736 115.466C112.62 115.382 112.358 115.256 112.043 115.256C111.696 115.256 111.34 115.402 111.34 115.844C111.34 116.306 111.833 116.578 112.337 116.872C112.967 117.25 113.639 117.659 113.639 118.499C113.639 119.36 112.925 120.011 111.771 120.011C111.183 120.011 110.658 119.833 110.437 119.697C110.396 119.434 110.364 119.162 110.364 118.888C110.364 118.468 110.48 118.3 110.795 118.3C110.848 118.3 110.932 118.311 110.932 118.311L111.153 119.204C111.257 119.277 111.562 119.414 111.866 119.414C112.381 119.414 112.706 119.214 112.706 118.773C112.706 118.322 112.202 118.07 111.73 117.776C111.089 117.366 110.449 116.957 110.449 116.054C110.449 115.235 111.163 114.689 112.171 114.689C112.78 114.689 113.21 114.899 113.4 115.078C113.421 115.224 113.442 115.445 113.442 115.655C113.442 116.022 113.369 116.264 112.991 116.264C112.938 116.264 112.865 116.253 112.865 116.253L112.736 115.466Z" fill="black" />
    <path d="M115.581 117.365C115.592 118.667 116.212 119.276 117.114 119.276C117.786 119.276 118.164 119.013 118.426 118.793C118.53 118.877 118.583 119.056 118.583 119.15C118.583 119.413 117.891 120.01 116.725 120.01C115.434 120.01 114.468 119.276 114.468 117.448C114.468 115.622 115.571 114.687 116.767 114.687C117.954 114.687 118.552 115.412 118.552 116.461C118.552 116.733 118.499 117.102 118.426 117.363H115.581V117.365ZM117.419 116.81C117.44 116.715 117.472 116.537 117.472 116.358C117.472 115.781 117.261 115.288 116.653 115.288C116.034 115.288 115.666 115.781 115.592 116.81H117.419Z" fill="black" />
    <path d="M121.84 115.466C121.724 115.382 121.462 115.256 121.147 115.256C120.8 115.256 120.444 115.402 120.444 115.844C120.444 116.306 120.937 116.578 121.441 116.872C122.071 117.25 122.743 117.659 122.743 118.499C122.743 119.36 122.029 120.011 120.875 120.011C120.287 120.011 119.762 119.833 119.541 119.697C119.5 119.434 119.468 119.162 119.468 118.888C119.468 118.468 119.584 118.3 119.899 118.3C119.952 118.3 120.036 118.311 120.036 118.311L120.257 119.204C120.361 119.277 120.666 119.414 120.97 119.414C121.485 119.414 121.81 119.214 121.81 118.773C121.81 118.322 121.306 118.07 120.834 117.776C120.193 117.366 119.553 116.957 119.553 116.054C119.553 115.235 120.267 114.689 121.275 114.689C121.884 114.689 122.314 114.899 122.504 115.078C122.525 115.224 122.546 115.445 122.546 115.655C122.546 116.022 122.473 116.264 122.095 116.264C122.042 116.264 121.969 116.253 121.969 116.253L121.84 115.466Z" fill="black" />
    <path d="M5.15499 131.298L5.92099 131.403C5.92099 131.403 5.93199 131.444 5.93199 131.487C5.93199 131.675 5.79499 131.801 5.54299 131.823L4.15699 131.948V131.266H4.12599C3.89599 131.591 3.45399 132.011 2.63599 132.011C1.60699 132.011 0.640991 131.35 0.640991 129.523C0.640991 127.571 2.00499 126.689 3.34899 126.689C3.65399 126.689 3.91599 126.741 4.09499 126.784V124.946L3.34899 124.842C3.34899 124.842 3.33899 124.769 3.33899 124.726C3.33899 124.548 3.47599 124.422 3.72799 124.401L5.15599 124.265L5.15499 131.298ZM4.09499 127.634C3.93699 127.488 3.65399 127.32 3.21299 127.32C2.36199 127.32 1.73299 127.928 1.73299 129.314C1.73299 130.668 2.32099 131.214 3.02399 131.214C3.63299 131.214 3.95899 130.931 4.09499 130.773V127.634Z" fill="black" />
    <path d="M7.64303 129.366C7.65403 130.668 8.27403 131.276 9.17603 131.276C9.84803 131.276 10.226 131.014 10.488 130.794C10.592 130.878 10.645 131.057 10.645 131.151C10.645 131.413 9.95303 132.011 8.78703 132.011C7.49603 132.011 6.53003 131.276 6.53003 129.449C6.53003 127.622 7.63303 126.688 8.82903 126.688C10.016 126.688 10.614 127.412 10.614 128.462C10.614 128.734 10.561 129.102 10.488 129.364H7.64303V129.366ZM9.48103 128.81C9.50203 128.716 9.53403 128.538 9.53403 128.359C9.53403 127.782 9.32303 127.289 8.71503 127.289C8.09603 127.289 7.72803 127.782 7.65403 128.81H9.48103Z" fill="black" />
    <path d="M13.9011 127.466C13.7861 127.382 13.5231 127.256 13.2081 127.256C12.8621 127.256 12.5051 127.403 12.5051 127.844C12.5051 128.306 12.9981 128.579 13.5021 128.873C14.1321 129.251 14.8041 129.66 14.8041 130.5C14.8041 131.36 14.0901 132.012 12.9361 132.012C12.3481 132.012 11.8231 131.833 11.6031 131.697C11.5601 131.435 11.5291 131.162 11.5291 130.889C11.5291 130.469 11.6441 130.301 11.9601 130.301C12.0131 130.301 12.0971 130.312 12.0971 130.312L12.3171 131.204C12.4221 131.277 12.7271 131.414 13.0321 131.414C13.5461 131.414 13.8721 131.215 13.8721 130.773C13.8721 130.322 13.3681 130.07 12.8951 129.776C12.2541 129.367 11.6141 128.958 11.6141 128.054C11.6141 127.236 12.3281 126.69 13.3361 126.69C13.9451 126.69 14.3761 126.9 14.5651 127.078C14.5861 127.225 14.6071 127.446 14.6071 127.656C14.6071 128.023 14.5341 128.264 14.1561 128.264C14.1031 128.264 14.0301 128.253 14.0301 128.253L13.9011 127.466Z" fill="black" />
    <path d="M20.222 131.886H17.849C17.849 131.886 17.838 131.824 17.838 131.771C17.838 131.603 17.922 131.456 18.195 131.393L18.636 131.288V125.221L17.995 125.074C17.89 125.053 17.848 125.022 17.848 124.959C17.848 124.864 17.921 124.738 17.964 124.644H20.221C22.867 124.644 24.451 125.631 24.451 128.162C24.453 130.71 22.878 131.886 20.222 131.886ZM20.19 125.282H19.77V131.245H20.19C22.132 131.245 23.246 130.227 23.246 128.19C23.246 126.228 22.122 125.282 20.19 125.282Z" fill="black" />
    <path d="M26.5009 129.366C26.5119 130.668 27.1319 131.276 28.0339 131.276C28.7059 131.276 29.0839 131.014 29.3459 130.794C29.4499 130.878 29.5029 131.057 29.5029 131.151C29.5029 131.413 28.8109 132.011 27.6449 132.011C26.3539 132.011 25.3879 131.276 25.3879 129.449C25.3879 127.622 26.4909 126.688 27.6869 126.688C28.8739 126.688 29.4719 127.412 29.4719 128.462C29.4719 128.734 29.4189 129.102 29.3459 129.364H26.5009V129.366ZM28.3389 128.81C28.3599 128.716 28.3919 128.538 28.3919 128.359C28.3919 127.782 28.1809 127.289 27.5729 127.289C26.9539 127.289 26.5859 127.782 26.5119 128.81H28.3389Z" fill="black" />
    <path d="M35.038 131.298L35.804 131.403C35.804 131.403 35.815 131.444 35.815 131.487C35.815 131.675 35.678 131.801 35.426 131.823L34.04 131.948V131.256H34.019C33.851 131.477 33.389 132.012 32.465 132.012C31.342 132.012 30.817 131.351 30.817 130.112V127.435L30.072 127.32C30.072 127.32 30.061 127.257 30.061 127.215C30.061 127.037 30.198 126.91 30.45 126.89L31.878 126.753V130.061C31.878 131.016 32.382 131.237 32.844 131.237C33.379 131.237 33.736 131.006 33.978 130.733V127.436L33.232 127.321C33.232 127.321 33.222 127.258 33.222 127.216C33.222 127.038 33.359 126.911 33.611 126.891L35.039 126.754V131.298H35.038Z" fill="black" />
    <path d="M39.417 127.393H37.979V130.458C37.979 130.931 38.125 131.319 38.651 131.319C39.06 131.319 39.396 131.14 39.48 131.067C39.533 131.151 39.575 131.308 39.575 131.413C39.575 131.518 39.207 132.012 38.252 132.012C37.297 132.012 36.919 131.455 36.919 130.648V127.393H36.132C36.132 127.393 36.121 127.33 36.121 127.298C36.121 127.099 36.247 126.984 36.446 126.942L36.961 126.816L37.202 125.398H37.979V126.816H39.533L39.417 127.393Z" fill="black" />
    <path d="M42.493 127.466C42.378 127.382 42.115 127.256 41.8 127.256C41.454 127.256 41.097 127.403 41.097 127.844C41.097 128.306 41.59 128.579 42.094 128.873C42.724 129.251 43.396 129.66 43.396 130.5C43.396 131.36 42.682 132.012 41.528 132.012C40.94 132.012 40.415 131.833 40.195 131.697C40.152 131.435 40.121 131.162 40.121 130.889C40.121 130.469 40.236 130.301 40.552 130.301C40.605 130.301 40.689 130.312 40.689 130.312L40.909 131.204C41.014 131.277 41.319 131.414 41.624 131.414C42.138 131.414 42.464 131.215 42.464 130.773C42.464 130.322 41.96 130.07 41.487 129.776C40.846 129.367 40.206 128.958 40.206 128.054C40.206 127.236 40.92 126.69 41.928 126.69C42.537 126.69 42.968 126.9 43.157 127.078C43.178 127.225 43.199 127.446 43.199 127.656C43.199 128.023 43.126 128.264 42.748 128.264C42.695 128.264 42.622 128.253 42.622 128.253L42.493 127.466Z" fill="black" />
    <path d="M46.65 127.319C45.947 127.319 45.338 127.823 45.338 129.198C45.338 130.52 45.852 131.287 46.839 131.287C47.489 131.287 47.867 130.951 48.035 130.783C48.13 130.878 48.203 131.046 48.203 131.14C48.203 131.403 47.626 132.011 46.471 132.011C45.107 132.011 44.225 131.151 44.225 129.418C44.225 127.644 45.412 126.689 46.829 126.689C47.983 126.689 48.278 127.255 48.278 127.56C48.278 127.843 48.141 128.106 47.742 128.19C47.585 127.823 47.344 127.319 46.65 127.319Z" fill="black" />
    <path d="M50.546 127.445H50.567C50.777 127.193 51.281 126.689 52.184 126.689C53.234 126.689 53.831 127.308 53.831 128.537V131.319L54.44 131.455C54.545 131.476 54.586 131.508 54.586 131.592C54.586 131.696 54.502 131.855 54.482 131.886H52.099C52.099 131.886 52.088 131.824 52.088 131.791C52.088 131.603 52.214 131.508 52.413 131.444L52.76 131.319V128.663C52.76 127.77 52.278 127.497 51.741 127.497C51.091 127.497 50.744 127.781 50.545 127.98V131.319L51.133 131.455C51.237 131.476 51.279 131.508 51.279 131.592C51.279 131.696 51.206 131.855 51.175 131.886H48.791C48.791 131.886 48.781 131.824 48.781 131.791C48.781 131.603 48.907 131.508 49.106 131.444L49.473 131.319V124.946L48.728 124.842C48.728 124.842 48.717 124.769 48.717 124.726C48.717 124.548 48.854 124.422 49.106 124.401L50.544 124.265V127.445H50.546Z" fill="black" />
    <path d="M56.237 129.366C56.247 130.668 56.866 131.276 57.769 131.276C58.441 131.276 58.819 131.014 59.081 130.794C59.185 130.878 59.238 131.057 59.238 131.151C59.238 131.413 58.545 132.011 57.38 132.011C56.089 132.011 55.123 131.276 55.123 129.449C55.123 127.622 56.226 126.688 57.422 126.688C58.609 126.688 59.207 127.412 59.207 128.462C59.207 128.734 59.154 129.102 59.081 129.364H56.237V129.366ZM58.074 128.81C58.095 128.716 58.126 128.538 58.126 128.359C58.126 127.782 57.917 127.289 57.308 127.289C56.689 127.289 56.322 127.782 56.247 128.81H58.074Z" fill="black" />
    <path d="M65.035 131.319L65.655 131.455C65.759 131.476 65.801 131.508 65.801 131.592C65.801 131.696 65.717 131.855 65.696 131.886H63.313C63.313 131.886 63.303 131.824 63.303 131.791C63.303 131.603 63.428 131.508 63.628 131.444L63.975 131.319V128.663C63.975 127.77 63.471 127.497 62.956 127.497C62.357 127.497 61.969 127.781 61.748 127.96V131.319L62.347 131.455C62.452 131.476 62.494 131.508 62.494 131.592C62.494 131.696 62.41 131.855 62.389 131.886H60.006C60.006 131.886 59.995 131.824 59.995 131.791C59.995 131.603 60.121 131.519 60.32 131.444L60.688 131.319V127.434L59.943 127.319C59.943 127.319 59.932 127.256 59.932 127.214C59.932 127.036 60.068 126.909 60.32 126.889L61.748 126.752L61.686 127.487H61.717C62 127.182 62.473 126.689 63.439 126.689C64.468 126.689 65.035 127.35 65.035 128.537V131.319Z" fill="black" />
    <path d="M72.385 128.138V128.159C73.404 128.327 74.075 128.904 74.075 129.859C74.075 131.035 73.109 131.885 71.22 131.885H68.553C68.553 131.885 68.542 131.823 68.542 131.77C68.542 131.602 68.626 131.455 68.899 131.392L69.34 131.287V125.22L68.699 125.073C68.594 125.052 68.552 125.021 68.552 124.958C68.552 124.863 68.625 124.737 68.668 124.643H71.135C73.003 124.643 73.896 125.305 73.896 126.47C73.896 127.466 73.288 127.938 72.385 128.138ZM71.041 125.282H70.474V127.928H71.031C72.228 127.928 72.732 127.34 72.732 126.595C72.731 125.733 72.196 125.282 71.041 125.282ZM71.167 128.537H70.474V131.245H71.105C72.333 131.245 72.878 130.668 72.878 129.849C72.878 129.072 72.301 128.537 71.167 128.537Z" fill="black" />
    <path d="M79.714 131.298L80.481 131.403C80.481 131.403 80.492 131.444 80.492 131.487C80.492 131.675 80.355 131.801 80.103 131.823L78.717 131.948V131.256H78.696C78.528 131.477 78.066 132.012 77.142 132.012C76.018 132.012 75.494 131.351 75.494 130.112V127.435L74.749 127.32C74.749 127.32 74.738 127.257 74.738 127.215C74.738 127.037 74.875 126.91 75.127 126.89L76.555 126.753V130.061C76.555 131.016 77.059 131.237 77.521 131.237C78.056 131.237 78.414 131.006 78.655 130.733V127.436L77.91 127.321C77.91 127.321 77.899 127.258 77.899 127.216C77.899 127.038 78.035 126.911 78.287 126.891L79.715 126.754L79.714 131.298Z" fill="black" />
    <path d="M86.034 131.319L86.653 131.455C86.758 131.476 86.8 131.508 86.8 131.592C86.8 131.696 86.716 131.855 86.696 131.886H84.312C84.312 131.886 84.301 131.824 84.301 131.791C84.301 131.603 84.428 131.508 84.627 131.444L84.973 131.319V128.663C84.973 127.77 84.469 127.497 83.955 127.497C83.356 127.497 82.968 127.781 82.748 127.96V131.319L83.346 131.455C83.451 131.476 83.493 131.508 83.493 131.592C83.493 131.696 83.409 131.855 83.388 131.886H81.005C81.005 131.886 80.994 131.824 80.994 131.791C80.994 131.603 81.12 131.519 81.32 131.444L81.687 131.319V127.434L80.941 127.319C80.941 127.319 80.931 127.256 80.931 127.214C80.931 127.036 81.068 126.909 81.32 126.889L82.748 126.752L82.685 127.487H82.716C83 127.182 83.472 126.689 84.438 126.689C85.467 126.689 86.034 127.35 86.034 128.537V131.319Z" fill="black" />
    <path d="M91.852 131.298L92.618 131.403C92.618 131.403 92.629 131.444 92.629 131.487C92.629 131.675 92.492 131.801 92.24 131.823L90.854 131.948V131.266H90.823C90.593 131.591 90.151 132.011 89.333 132.011C88.304 132.011 87.338 131.35 87.338 129.523C87.338 127.571 88.702 126.689 90.046 126.689C90.351 126.689 90.613 126.741 90.792 126.784V124.946L90.046 124.842C90.046 124.842 90.036 124.769 90.036 124.726C90.036 124.548 90.173 124.422 90.425 124.401L91.853 124.265L91.852 131.298ZM90.792 127.634C90.634 127.488 90.351 127.32 89.91 127.32C89.059 127.32 88.43 127.928 88.43 129.314C88.43 130.668 89.018 131.214 89.721 131.214C90.33 131.214 90.656 130.931 90.792 130.773V127.634Z" fill="black" />
    <path d="M94.3411 129.366C94.3511 130.668 94.9701 131.276 95.8731 131.276C96.5451 131.276 96.9231 131.014 97.1851 130.794C97.2891 130.878 97.3421 131.057 97.3421 131.151C97.3421 131.413 96.6491 132.011 95.4841 132.011C94.1931 132.011 93.2271 131.276 93.2271 129.449C93.2271 127.622 94.3301 126.688 95.5261 126.688C96.7131 126.688 97.3111 127.412 97.3111 128.462C97.3111 128.734 97.2581 129.102 97.1851 129.364H94.3411V129.366ZM96.1781 128.81C96.1991 128.716 96.2301 128.538 96.2301 128.359C96.2301 127.782 96.0211 127.289 95.4121 127.289C94.7931 127.289 94.4261 127.782 94.3511 128.81H96.1781Z" fill="black" />
    <path d="M100.598 127.466C100.483 127.382 100.22 127.256 99.905 127.256C99.559 127.256 99.202 127.403 99.202 127.844C99.202 128.306 99.695 128.579 100.199 128.873C100.829 129.251 101.501 129.66 101.501 130.5C101.501 131.36 100.787 132.012 99.633 132.012C99.045 132.012 98.52 131.833 98.3 131.697C98.257 131.435 98.226 131.162 98.226 130.889C98.226 130.469 98.341 130.301 98.657 130.301C98.71 130.301 98.794 130.312 98.794 130.312L99.014 131.204C99.119 131.277 99.424 131.414 99.729 131.414C100.243 131.414 100.569 131.215 100.569 130.773C100.569 130.322 100.065 130.07 99.592 129.776C98.951 129.367 98.311 128.958 98.311 128.054C98.311 127.236 99.025 126.69 100.033 126.69C100.642 126.69 101.073 126.9 101.262 127.078C101.283 127.225 101.304 127.446 101.304 127.656C101.304 128.023 101.231 128.264 100.853 128.264C100.8 128.264 100.727 128.253 100.727 128.253L100.598 127.466Z" fill="black" />
    <path d="M105.333 127.393H103.896V130.458C103.896 130.931 104.042 131.319 104.568 131.319C104.977 131.319 105.313 131.14 105.397 131.067C105.45 131.151 105.492 131.308 105.492 131.413C105.492 131.518 105.125 132.012 104.169 132.012C103.214 132.012 102.836 131.455 102.836 130.648V127.393H102.049C102.049 127.393 102.038 127.33 102.038 127.298C102.038 127.099 102.164 126.984 102.363 126.942L102.878 126.816L103.119 125.398H103.896V126.816H105.45L105.333 127.393Z" fill="black" />
    <path d="M109.68 130.763C109.68 131.183 109.837 131.309 110.016 131.309C110.257 131.309 110.383 131.183 110.414 131.13C110.467 131.203 110.54 131.351 110.54 131.444C110.54 131.581 110.268 131.991 109.585 131.991C109.102 131.991 108.797 131.78 108.703 131.256H108.682C108.567 131.455 108.178 132.012 107.307 132.012C106.509 132.012 105.942 131.466 105.942 130.637C105.942 129.513 107.171 129.093 108.346 129.093H108.619V128.621C108.619 127.665 108.367 127.288 107.716 127.288C107.475 127.288 107.265 127.361 107.181 127.392C107.086 127.591 107.002 127.959 106.95 128.316C106.95 128.316 106.793 128.327 106.709 128.327C106.353 128.327 106.153 128.159 106.153 127.833C106.153 127.183 107.013 126.689 107.99 126.689C109.144 126.689 109.68 127.319 109.68 128.504V130.763ZM108.378 129.618C107.528 129.66 107.045 129.965 107.045 130.52C107.045 130.961 107.297 131.255 107.728 131.255C108.159 131.255 108.484 130.972 108.621 130.804V129.607L108.378 129.618Z" fill="black" />
    <path d="M115.644 127.413H114.793C114.993 127.676 115.119 127.991 115.119 128.369C115.119 129.481 114.195 130.111 113.051 130.111C112.872 130.111 112.715 130.09 112.558 130.059C112.411 130.143 112.264 130.289 112.264 130.531C112.264 130.783 112.432 130.899 112.788 130.899H114.006C114.972 130.899 115.518 131.339 115.518 132.095C115.518 133.145 114.49 134.111 112.715 134.111C111.424 134.111 110.794 133.66 110.794 132.893C110.794 132.159 111.371 131.812 111.749 131.696V131.675C111.477 131.528 111.318 131.276 111.318 130.94C111.318 130.332 111.875 130.048 112.074 129.943V129.922C111.486 129.659 111.108 129.124 111.108 128.368C111.108 127.265 112.032 126.688 113.103 126.688C113.386 126.688 113.66 126.73 113.921 126.814H115.759L115.644 127.413ZM112.621 131.844C112.475 131.844 112.349 131.833 112.233 131.823C111.96 131.98 111.781 132.243 111.781 132.599C111.781 133.145 112.117 133.492 112.884 133.492C113.903 133.492 114.532 133.019 114.532 132.463C114.532 132.032 114.29 131.844 113.755 131.844H112.621ZM112.159 128.38C112.159 129.209 112.579 129.534 113.104 129.534C113.67 129.534 114.081 129.209 114.081 128.38C114.081 127.634 113.671 127.256 113.125 127.256C112.579 127.256 112.159 127.571 112.159 128.38Z" fill="black" />
    <path d="M117.388 129.366C117.399 130.668 118.019 131.276 118.921 131.276C119.593 131.276 119.971 131.014 120.233 130.794C120.337 130.878 120.39 131.057 120.39 131.151C120.39 131.413 119.698 132.011 118.532 132.011C117.241 132.011 116.275 131.276 116.275 129.449C116.275 127.622 117.378 126.688 118.574 126.688C119.761 126.688 120.359 127.412 120.359 128.462C120.359 128.734 120.306 129.102 120.233 129.364H117.388V129.366ZM119.225 128.81C119.246 128.716 119.278 128.538 119.278 128.359C119.278 127.782 119.067 127.289 118.459 127.289C117.84 127.289 117.472 127.782 117.398 128.81H119.225Z" fill="black" />
    <path d="M123.645 127.466C123.53 127.382 123.267 127.256 122.952 127.256C122.606 127.256 122.249 127.403 122.249 127.844C122.249 128.306 122.742 128.579 123.246 128.873C123.876 129.251 124.548 129.66 124.548 130.5C124.548 131.36 123.834 132.012 122.68 132.012C122.092 132.012 121.567 131.833 121.347 131.697C121.304 131.435 121.273 131.162 121.273 130.889C121.273 130.469 121.388 130.301 121.704 130.301C121.757 130.301 121.841 130.312 121.841 130.312L122.061 131.204C122.166 131.277 122.471 131.414 122.776 131.414C123.29 131.414 123.616 131.215 123.616 130.773C123.616 130.322 123.112 130.07 122.639 129.776C121.998 129.367 121.358 128.958 121.358 128.054C121.358 127.236 122.072 126.69 123.08 126.69C123.689 126.69 124.12 126.9 124.309 127.078C124.33 127.225 124.351 127.446 124.351 127.656C124.351 128.023 124.278 128.264 123.9 128.264C123.847 128.264 123.774 128.253 123.774 128.253L123.645 127.466Z" fill="black" />
    <path d="M31.5 70.47H33V90.47H29.5V70.47H31.5Z" fill="#FFCC00" />
    <path d="M31.5 50.47H33V70.47H29.5V50.47H31.5Z" fill="#FF0000" />
    <path d="M20.392 37.4609C21.415 39.0799 22.217 39.0529 23.427 39.0529C22.426 38.2849 21.764 37.3029 21.448 36.8009L19.578 33.8089C19.395 32.8849 18.917 32.0209 18.202 31.3779C18.442 31.2869 18.642 31.1909 18.763 31.0999C17.542 31.0999 16.332 30.4799 15.666 30.4799C15.238 30.4799 14.962 30.7359 14.962 31.0739C14.99 31.4509 15.378 31.8339 16.094 31.8339C16.257 31.8339 16.464 31.8129 16.692 31.7749C17.08 32.3159 17.393 32.8049 17.393 33.5019C17.393 34.8119 15.827 35.8329 14.246 35.8329C14.157 35.8329 14.072 35.8299 13.982 35.8229C13.838 35.4989 13.362 34.9529 13.362 34.3329C13.362 33.2919 14.041 32.4419 14.041 31.4109C14.041 30.7699 13.729 30.3739 13.608 30.2089C13.802 30.0289 14.015 29.8069 14.064 29.6559C13.951 29.7039 13.818 29.7109 13.622 29.7109C12.864 29.7109 12.247 29.5129 11.644 29.5129C11.301 29.5129 11.208 29.6189 11.208 29.7199C11.208 29.7569 11.214 29.7949 11.224 29.8129C11.096 29.7619 10.975 29.7299 10.832 29.7029C10.655 29.6689 10.463 29.6519 10.259 29.6519C9.52704 29.6519 9.26704 29.9589 9.26704 30.2219C9.26704 30.4449 9.44204 30.8509 9.64104 31.1599C9.92704 31.0169 10.269 30.9189 10.426 30.9189C10.814 30.9189 11.16 31.2889 11.343 31.7279C11.082 31.7589 11.031 31.7709 10.767 31.7709C10.055 31.7709 9.57005 31.5159 9.47005 31.5159C9.46005 31.5159 9.44105 31.5209 9.44105 31.5369C9.44105 31.6369 9.64305 31.9009 10.042 32.0469C10.566 32.2389 11.353 32.3189 11.484 32.3399C11.484 32.3629 11.351 32.6109 11.202 32.6589C11.17 32.6689 11.146 32.6699 11.109 32.6629C10.561 32.5549 10.408 32.5089 9.71305 32.2439C9.69205 32.2359 9.67905 32.2489 9.67905 32.2719C9.67905 32.5469 10.391 33.1539 11.029 33.3859C10.496 34.0659 9.83104 34.7619 9.51704 35.8229C9.42804 35.8299 9.34204 35.8329 9.25304 35.8329C7.67204 35.8329 6.10505 34.8119 6.10505 33.5019C6.10505 32.8039 6.41804 32.3159 6.80704 31.7749C7.03504 31.8129 7.24205 31.8339 7.40505 31.8339C8.12205 31.8339 8.51005 31.4499 8.53805 31.0739C8.53805 30.7359 8.26305 30.4799 7.83305 30.4799C7.16705 30.4799 5.95805 31.0999 4.73605 31.0999C4.85705 31.1909 5.05705 31.2869 5.29705 31.3779C4.58205 32.0209 4.10405 32.8839 3.92105 33.8089L2.05105 36.8009C1.73605 37.3029 1.07204 38.2849 0.0710449 39.0529C1.28104 39.0529 2.08305 39.0799 3.10705 37.4609L4.06505 35.9269C4.13605 36.1259 4.22405 36.3199 4.32605 36.5099L2.41905 39.5609C2.10205 40.0669 1.44404 41.0409 0.439045 41.8129C1.64904 41.8129 2.45105 41.8409 3.47505 40.2229L5.11705 37.5949C5.24005 37.7259 5.36904 37.8539 5.50504 37.9759L3.18904 41.6839C2.87104 42.1909 2.21704 43.1619 1.21004 43.9339C2.42004 43.9339 3.22205 43.9629 4.24605 42.3439L6.50405 38.7289C6.65305 38.8229 6.80505 38.9149 6.96205 38.9999L4.20605 43.4099C3.88805 43.9179 3.23405 44.8869 2.22705 45.6599C3.43705 45.6599 4.23905 45.6879 5.26305 44.0699L8.10105 39.5269C8.26905 39.5909 8.43905 39.6529 8.61305 39.7089L5.40605 44.8419C5.09305 45.3419 4.42305 46.3279 3.42705 47.0919C4.63605 47.0919 5.43905 47.1189 6.46205 45.5019L9.88005 40.0309C9.91505 40.0369 9.94905 40.0429 9.98305 40.0499C10.076 40.3459 10.141 40.6209 10.141 40.8969C10.141 42.6159 9.01305 44.1339 7.65905 45.3059C7.74505 45.3439 7.89605 45.3569 8.03605 45.3569C8.31505 45.3569 8.49605 45.3419 8.62205 45.3199C8.30805 46.0329 7.63505 46.9539 7.29405 47.4299C6.85105 47.3499 6.20605 47.2869 5.78405 47.2869C5.34205 47.2869 5.29205 47.5459 5.29205 47.7759C5.29205 48.1769 5.48005 48.4969 5.69805 48.6739C5.78005 48.4689 5.94505 48.1949 6.76105 48.1949C6.77705 48.1949 6.80505 48.1969 6.84305 48.1999C6.60405 48.4659 5.85705 49.0689 5.85705 49.5549C5.85705 49.8769 6.21105 50.3599 6.67605 50.3599C6.64805 50.2559 6.65205 50.1609 6.65205 50.0889C6.65205 49.6939 7.00105 49.2339 7.29605 48.9119C7.28705 49.0079 7.29205 48.9979 7.29205 49.1089C7.29205 50.0409 7.37604 50.4679 7.96704 50.4679C8.25704 50.4679 8.45704 50.3089 8.52604 50.2609C8.14204 49.9069 8.12205 49.6299 8.12205 49.1079C8.12305 48.9719 8.12405 48.8389 8.12505 48.6559C8.12605 48.5369 8.12505 48.3789 8.10505 48.2639C8.31705 48.2349 8.40205 48.2349 8.56505 48.2349C8.56505 48.2349 9.40504 48.1689 9.60704 48.6049C9.83504 48.3959 10.166 48.1009 10.166 47.7759C10.166 47.5609 10.064 47.3179 9.63105 47.3179C9.46705 47.3179 8.95205 47.4189 8.52105 47.4189C8.63705 47.1609 9.15204 46.4069 9.59904 45.8599C9.66604 46.0719 9.77205 46.3009 10.006 46.4889C10.038 46.1369 10.245 45.0239 10.795 44.3739C10.859 44.8129 10.945 45.2649 10.945 46.2159C10.945 48.5289 10.389 50.2379 9.20805 50.5649C9.36205 50.8329 9.68704 51.0729 10.024 51.0729C10.456 51.0729 10.691 50.5849 10.931 50.1239C11.056 50.4639 11.401 51.2979 11.747 51.2979C12.093 51.2979 12.438 50.4639 12.563 50.1239C12.803 50.5849 13.038 51.0729 13.47 51.0729C13.807 51.0729 14.133 50.8329 14.286 50.5649C13.105 50.2389 12.548 48.5299 12.548 46.2159C12.548 45.2649 12.634 44.8139 12.698 44.3739C13.248 45.0239 13.455 46.1379 13.487 46.4889C13.721 46.3009 13.827 46.0719 13.895 45.8599C14.341 46.4069 14.857 47.1609 14.973 47.4189C14.541 47.4189 14.026 47.3179 13.863 47.3179C13.431 47.3179 13.329 47.5609 13.329 47.7759C13.329 48.1009 13.66 48.3959 13.888 48.6049C14.09 48.1679 14.93 48.2349 14.93 48.2349C15.093 48.2349 15.178 48.2349 15.39 48.2639C15.37 48.3779 15.369 48.5359 15.37 48.6559C15.372 48.8399 15.372 48.9719 15.373 49.1079C15.373 49.6299 15.353 49.9079 14.97 50.2609C15.039 50.3089 15.239 50.4679 15.529 50.4679C16.12 50.4679 16.205 50.0399 16.205 49.1089C16.205 48.9979 16.208 49.0069 16.201 48.9119C16.495 49.2329 16.845 49.6939 16.845 50.0889C16.845 50.1599 16.849 50.2559 16.821 50.3599C17.287 50.3599 17.64 49.8779 17.64 49.5549C17.64 49.0689 16.893 48.4649 16.654 48.1999C16.693 48.1969 16.72 48.1949 16.736 48.1949C17.553 48.1949 17.717 48.4689 17.799 48.6739C18.017 48.4959 18.205 48.1769 18.205 47.7759C18.205 47.5459 18.156 47.2869 17.714 47.2869C17.292 47.2869 16.647 47.3489 16.203 47.4299C15.863 46.9529 15.19 46.0329 14.875 45.3199C15.001 45.3419 15.183 45.3569 15.461 45.3569C15.601 45.3569 15.752 45.3439 15.838 45.3059C14.484 44.1339 13.356 42.6159 13.356 40.8969C13.356 40.6219 13.421 40.3459 13.514 40.0499C13.548 40.0429 13.583 40.0369 13.618 40.0309L17.035 45.5019C18.058 47.1189 18.861 47.0919 20.07 47.0919C19.074 46.3279 18.405 45.3419 18.092 44.8419L14.884 39.7089C15.058 39.6529 15.228 39.5919 15.396 39.5269L18.234 44.0699C19.257 45.6879 20.059 45.6599 21.27 45.6599C20.263 44.8869 19.609 43.9179 19.291 43.4099L16.535 38.9999C16.692 38.9139 16.845 38.8219 16.993 38.7289L19.252 42.3439C20.276 43.9629 21.077 43.9339 22.287 43.9339C21.281 43.1629 20.627 42.1909 20.308 41.6839L17.992 37.9759C18.128 37.8539 18.258 37.7259 18.38 37.5949L20.022 40.2229C21.046 41.8409 21.847 41.8129 23.058 41.8129C22.052 41.0419 21.396 40.0669 21.078 39.5609L19.171 36.5099C19.274 36.3199 19.361 36.1259 19.432 35.9269L20.392 37.4609ZM5.08605 33.9479C5.08605 32.8079 5.91505 31.9059 6.20705 31.6529C6.27705 31.6699 6.34705 31.6869 6.41705 31.7009C6.10705 32.0789 5.56005 32.7139 5.56005 33.5539C5.56005 35.2219 7.34205 36.6699 9.36005 36.6699C9.34705 36.8129 9.34005 36.9629 9.34005 37.1169C9.34005 37.3629 9.35404 37.5919 9.37804 37.8079C7.09504 37.7949 5.08605 35.9429 5.08605 33.9479ZM8.17805 47.6219L8.16505 47.6609H8.20505C8.84605 47.6609 9.15804 47.6149 9.36404 47.5849C9.47204 47.5709 9.55004 47.5599 9.63404 47.5599C9.80004 47.5599 9.92604 47.5759 9.92604 47.7789C9.92604 47.9169 9.76505 48.1329 9.61005 48.2589C9.37405 48.0359 9.04705 47.9919 8.56705 47.9919C8.34205 47.9919 8.04905 48.0319 7.89105 48.0539L7.86604 48.0569L7.83805 48.0609L7.84705 48.1359C7.86605 48.2689 7.88905 48.4339 7.88905 48.6569L7.88605 48.8589L7.88405 49.1099C7.88405 49.6539 7.95905 49.9639 8.14905 50.1989C8.10005 50.2179 8.02005 50.2319 7.96805 50.2319C7.63105 50.2319 7.53205 50.0849 7.53205 49.1109C7.53205 48.9159 7.52105 48.7319 7.51405 48.6099L7.50504 48.4289L7.46205 48.4619C6.96005 48.8449 6.44305 49.5279 6.41205 50.0399C6.26105 49.9419 6.09705 49.7239 6.09705 49.5559C6.09705 49.2769 6.51705 48.8579 7.00205 48.3719L7.28205 48.0929L7.31705 48.0569L7.22505 48.0349C7.12105 48.0079 6.92704 47.9589 6.76204 47.9589C6.21704 47.9589 5.87605 48.0619 5.66505 48.2909C5.59005 48.1819 5.52604 47.9269 5.52604 47.7769C5.52604 47.6799 5.54505 47.6119 5.58405 47.5729C5.63205 47.5269 5.70605 47.5269 5.77105 47.5269H5.78505C6.38505 47.5269 7.10305 47.6349 7.38305 47.6799L7.40005 47.6839L7.41105 47.6699C7.45905 47.6049 8.60404 46.0799 8.90104 45.2719C8.96904 45.2469 9.02904 45.2269 9.14804 45.2269C9.37404 45.2269 9.43605 45.3789 9.50105 45.6119C8.78605 46.4809 8.34005 47.1569 8.17805 47.6219ZM14.352 45.2269C14.472 45.2269 14.53 45.2469 14.6 45.2719C14.897 46.0809 16.042 47.6049 16.09 47.6699L16.101 47.6839L16.118 47.6799C16.398 47.6349 17.115 47.5269 17.716 47.5269H17.729C17.794 47.5269 17.868 47.5269 17.916 47.5729C17.955 47.6119 17.974 47.6799 17.974 47.7769C17.974 47.9259 17.911 48.1809 17.835 48.2909C17.625 48.0619 17.284 47.9589 16.738 47.9589C16.573 47.9589 16.38 48.0079 16.275 48.0349L16.232 48.0449L16.183 48.0579L16.498 48.3729C16.984 48.8579 17.404 49.2769 17.404 49.5569C17.404 49.7249 17.24 49.9439 17.089 50.0409C17.057 49.5289 16.54 48.8459 16.038 48.4629L15.995 48.4309L15.987 48.6109C15.98 48.7329 15.969 48.9169 15.969 49.1119C15.969 50.0859 15.87 50.2329 15.533 50.2329C15.481 50.2329 15.402 50.2179 15.353 50.1999C15.543 49.9659 15.618 49.6549 15.618 49.1109L15.615 48.8599L15.613 48.6579C15.613 48.4349 15.636 48.2699 15.654 48.1369L15.664 48.0619L15.611 48.0549C15.453 48.0329 15.16 47.9929 14.936 47.9929C14.456 47.9929 14.129 48.0369 13.893 48.2599C13.737 48.1339 13.577 47.9169 13.577 47.7799C13.577 47.5769 13.704 47.5609 13.869 47.5609C13.953 47.5609 14.031 47.5729 14.139 47.5859C14.346 47.6159 14.657 47.6619 15.298 47.6619H15.337L15.325 47.6229C15.162 47.1579 14.717 46.4819 14.001 45.6129C14.064 45.3789 14.127 45.2269 14.352 45.2269ZM11.702 31.9269C11.631 31.6309 11.479 31.3269 11.286 31.0979C11.11 30.8909 10.819 30.6439 10.428 30.6439C10.249 30.6439 9.94905 30.7269 9.75805 30.8079C9.68605 30.6789 9.54705 30.3649 9.54705 30.2239C9.54705 30.0789 9.79305 29.9319 10.261 29.9319C11.293 29.9319 11.91 30.3989 11.91 31.1809C11.909 31.4549 11.8 31.7049 11.702 31.9269ZM12.165 30.9099C12.128 30.6889 12.044 30.4889 11.916 30.3179C11.922 30.1159 12.005 29.9229 12.331 30.0819C12.155 30.2619 12.291 30.5809 12.291 30.5809C12.291 30.5809 12.651 30.4139 12.577 30.1769C13.11 30.3029 12.726 31.0199 12.165 30.9099ZM14.173 37.8089C14.2 37.5849 14.216 37.3539 14.216 37.1179C14.216 36.9889 14.217 36.8399 14.201 36.6699C16.194 36.6419 17.942 35.2059 17.942 33.5549C17.942 32.7149 17.394 32.0799 17.085 31.7019C17.155 31.6869 17.225 31.6709 17.295 31.6539C17.587 31.9079 18.416 32.8099 18.416 33.9489C18.415 35.9289 16.435 37.7679 14.173 37.8089Z" fill="black" />
    <path d="M33 30.4709V50.4699H31.5H29.5V30.4709H33Z" fill="black" />
    <path d="M45.736 38.47H44.594L43.856 35.84H41.369L40.619 38.47H39.572L42.25 30.259H43.059L45.736 38.47ZM43.629 35.055L42.986 32.806C42.899 32.504 42.823 32.217 42.76 31.943C42.697 31.669 42.661 31.441 42.653 31.259H42.63C42.622 31.441 42.584 31.666 42.517 31.931C42.45 32.197 42.372 32.48 42.285 32.782L41.607 35.055H43.629ZM50.543 38.47H49.662V37.827H49.638C49.614 37.875 49.563 37.944 49.483 38.035C49.404 38.126 49.303 38.214 49.18 38.297C49.057 38.38 48.908 38.454 48.734 38.517C48.56 38.581 48.365 38.612 48.151 38.612C47.897 38.612 47.669 38.574 47.467 38.499C47.265 38.424 47.092 38.303 46.949 38.136C46.806 37.969 46.697 37.753 46.622 37.487C46.547 37.221 46.509 36.894 46.509 36.505V32.756H47.473V36.433C47.473 36.909 47.55 37.248 47.705 37.45C47.86 37.652 48.1 37.753 48.425 37.753C48.703 37.753 48.937 37.684 49.127 37.545C49.317 37.406 49.468 37.269 49.579 37.135V32.756H50.543V38.47ZM54.482 33.913C54.419 33.842 54.304 33.744 54.137 33.621C53.97 33.498 53.752 33.437 53.482 33.437C53.228 33.437 53.034 33.497 52.899 33.616C52.764 33.735 52.697 33.878 52.697 34.044C52.697 34.258 52.759 34.435 52.882 34.574C53.005 34.713 53.193 34.862 53.447 35.02L53.804 35.234C54.193 35.464 54.498 35.712 54.72 35.978C54.942 36.244 55.053 36.587 55.053 37.007C55.053 37.459 54.896 37.84 54.583 38.149C54.27 38.458 53.819 38.613 53.232 38.613C53.002 38.613 52.8 38.589 52.625 38.542C52.45 38.495 52.298 38.439 52.167 38.375C52.036 38.312 51.927 38.242 51.84 38.167C51.753 38.092 51.681 38.022 51.626 37.959L52.09 37.197C52.138 37.245 52.195 37.3 52.263 37.364C52.33 37.427 52.412 37.489 52.507 37.548C52.602 37.607 52.709 37.657 52.828 37.697C52.947 37.737 53.086 37.757 53.244 37.757C53.53 37.757 53.748 37.693 53.899 37.567C54.05 37.44 54.125 37.285 54.125 37.103C54.125 36.968 54.107 36.851 54.072 36.752C54.036 36.653 53.983 36.564 53.911 36.484C53.84 36.405 53.752 36.329 53.649 36.258C53.546 36.187 53.427 36.107 53.292 36.02L52.935 35.794C52.578 35.564 52.298 35.322 52.096 35.068C51.894 34.814 51.793 34.489 51.793 34.092C51.793 33.878 51.835 33.681 51.918 33.503C52.001 33.325 52.118 33.17 52.269 33.039C52.42 32.908 52.596 32.805 52.799 32.73C53.001 32.655 53.217 32.617 53.447 32.617C53.669 32.617 53.859 32.639 54.018 32.682C54.177 32.726 54.314 32.781 54.429 32.849C54.544 32.917 54.639 32.984 54.715 33.051C54.79 33.119 54.852 33.176 54.899 33.224L54.482 33.913ZM62.717 32.758L60.98 38.47H60.123L59.54 36.471C59.453 36.185 59.379 35.92 59.32 35.674C59.26 35.428 59.223 35.194 59.207 34.972H59.183C59.167 35.194 59.123 35.432 59.052 35.686C58.981 35.94 58.897 36.206 58.802 36.483L58.147 38.47H57.326L55.529 32.758H56.564L57.421 35.995C57.5 36.296 57.57 36.576 57.629 36.834C57.689 37.092 57.722 37.336 57.73 37.566H57.754C57.778 37.336 57.827 37.096 57.903 36.846C57.978 36.596 58.064 36.324 58.159 36.031L58.778 34.163L58.35 32.759H59.35L60.219 35.912C60.306 36.237 60.386 36.543 60.457 36.828C60.528 37.114 60.568 37.36 60.576 37.566H60.6C60.616 37.36 60.655 37.112 60.719 36.822C60.782 36.532 60.858 36.229 60.945 35.912L61.79 32.759L62.717 32.758ZM63.229 37.018C63.229 36.685 63.292 36.407 63.419 36.185C63.546 35.963 63.717 35.782 63.931 35.643C64.145 35.504 64.397 35.405 64.687 35.345C64.976 35.285 65.284 35.256 65.609 35.256H65.906V34.71C65.906 34.226 65.821 33.893 65.65 33.71C65.479 33.528 65.239 33.436 64.93 33.436C64.644 33.436 64.406 33.498 64.216 33.62C64.026 33.743 63.875 33.852 63.764 33.947L63.359 33.304C63.422 33.241 63.504 33.169 63.603 33.09C63.702 33.011 63.823 32.935 63.966 32.864C64.109 32.793 64.271 32.733 64.454 32.686C64.637 32.638 64.843 32.615 65.073 32.615C65.66 32.615 66.104 32.778 66.406 33.103C66.707 33.428 66.858 33.952 66.858 34.674V37.28C66.858 37.526 66.866 37.766 66.882 38C66.898 38.234 66.914 38.391 66.93 38.47H66.014L65.978 37.839H65.954C65.922 37.91 65.875 37.992 65.811 38.083C65.748 38.174 65.668 38.258 65.573 38.333C65.478 38.408 65.363 38.474 65.228 38.529C65.093 38.585 64.935 38.612 64.752 38.612C64.538 38.612 64.338 38.572 64.151 38.493C63.964 38.414 63.802 38.303 63.663 38.16C63.524 38.017 63.417 37.849 63.342 37.654C63.266 37.461 63.229 37.249 63.229 37.018ZM64.954 37.792C65.089 37.792 65.208 37.772 65.311 37.733C65.414 37.693 65.503 37.646 65.579 37.59C65.654 37.534 65.718 37.473 65.769 37.406C65.82 37.339 65.866 37.281 65.906 37.233V35.972L65.597 35.984C65.137 36 64.788 36.079 64.55 36.222C64.312 36.365 64.193 36.595 64.193 36.912C64.193 37.205 64.26 37.426 64.395 37.572C64.53 37.719 64.716 37.792 64.954 37.792ZM64.728 31.116C64.728 31.298 64.672 31.445 64.561 31.556C64.45 31.667 64.315 31.723 64.156 31.723C63.997 31.723 63.863 31.667 63.751 31.556C63.64 31.445 63.584 31.298 63.584 31.116C63.584 30.934 63.639 30.787 63.751 30.676C63.862 30.565 63.997 30.509 64.156 30.509C64.315 30.509 64.45 30.565 64.561 30.676C64.672 30.787 64.728 30.934 64.728 31.116ZM66.561 31.116C66.561 31.298 66.506 31.445 66.394 31.556C66.283 31.667 66.148 31.723 65.989 31.723C65.83 31.723 65.695 31.667 65.584 31.556C65.473 31.445 65.417 31.298 65.417 31.116C65.417 30.934 65.473 30.787 65.584 30.676C65.695 30.565 65.83 30.509 65.989 30.509C66.148 30.509 66.282 30.565 66.394 30.676C66.505 30.787 66.561 30.934 66.561 31.116ZM70.821 33.603C70.797 33.587 70.746 33.567 70.666 33.544C70.586 33.521 70.48 33.508 70.345 33.508C70.044 33.508 69.808 33.589 69.637 33.752C69.466 33.915 69.345 34.091 69.274 34.282V38.471H68.31V32.759H69.191V33.532H69.215C69.255 33.421 69.306 33.312 69.37 33.205C69.433 33.098 69.513 33.003 69.608 32.919C69.703 32.836 69.816 32.77 69.947 32.723C70.078 32.675 70.235 32.652 70.417 32.652C70.552 32.652 70.661 32.664 70.744 32.688C70.827 32.712 70.893 32.732 70.94 32.747L70.821 33.603ZM74.212 33.544H72.962V36.709C72.962 37.114 73.014 37.389 73.117 37.536C73.22 37.683 73.395 37.756 73.641 37.756C73.784 37.756 73.907 37.736 74.01 37.696C74.113 37.656 74.188 37.621 74.236 37.589L74.367 38.363C74.327 38.395 74.232 38.444 74.081 38.512C73.93 38.579 73.728 38.613 73.474 38.613C72.982 38.613 72.613 38.476 72.367 38.202C72.121 37.928 71.998 37.474 71.998 36.84V33.544H71.308V32.901L71.998 32.758L72.105 31.163H72.962V32.758H74.33L74.212 33.544ZM76.271 38.47H75.307V32.758H76.271V38.47ZM75.795 31.378C75.597 31.378 75.438 31.315 75.319 31.188C75.2 31.061 75.141 30.895 75.141 30.688C75.141 30.49 75.201 30.327 75.319 30.2C75.438 30.073 75.597 30.01 75.795 30.01C75.985 30.01 76.14 30.073 76.259 30.2C76.378 30.327 76.437 30.49 76.437 30.688C76.437 30.894 76.377 31.061 76.259 31.188C76.14 31.314 75.985 31.378 75.795 31.378ZM81.84 33.508H81.126C81.309 33.81 81.4 34.151 81.4 34.531C81.4 34.833 81.35 35.104 81.251 35.346C81.152 35.588 81.013 35.792 80.835 35.959C80.656 36.126 80.446 36.252 80.204 36.34C79.962 36.427 79.702 36.471 79.424 36.471C79.369 36.471 79.317 36.471 79.269 36.471C79.221 36.471 79.17 36.467 79.114 36.459C79.019 36.499 78.92 36.562 78.816 36.649C78.713 36.736 78.661 36.851 78.661 36.994C78.661 37.113 78.707 37.21 78.798 37.286C78.889 37.361 79.038 37.399 79.244 37.399H79.97C80.24 37.399 80.49 37.427 80.72 37.482C80.95 37.538 81.15 37.627 81.321 37.75C81.491 37.873 81.624 38.03 81.72 38.22C81.815 38.41 81.863 38.64 81.863 38.91C81.863 39.219 81.798 39.501 81.667 39.755C81.536 40.009 81.352 40.227 81.114 40.409C80.876 40.591 80.586 40.734 80.245 40.837C79.904 40.94 79.523 40.992 79.103 40.992C78.492 40.992 78.028 40.859 77.711 40.593C77.394 40.327 77.235 39.944 77.235 39.445C77.235 39.231 77.273 39.046 77.348 38.892C77.423 38.737 77.513 38.602 77.616 38.487C77.719 38.372 77.824 38.281 77.931 38.213C78.038 38.146 78.123 38.092 78.187 38.052V38.03C77.941 37.848 77.818 37.582 77.818 37.233C77.818 37.082 77.848 36.951 77.907 36.84C77.967 36.729 78.034 36.638 78.109 36.566C78.184 36.495 78.26 36.437 78.335 36.393C78.41 36.349 78.468 36.32 78.508 36.304V36.28C78.214 36.145 77.978 35.933 77.8 35.643C77.621 35.353 77.532 34.983 77.532 34.53C77.532 34.213 77.584 33.933 77.687 33.691C77.79 33.449 77.929 33.249 78.104 33.09C78.279 32.931 78.483 32.812 78.717 32.733C78.951 32.654 79.203 32.614 79.473 32.614C79.743 32.614 79.997 32.662 80.235 32.757H81.972L81.84 33.508ZM79.187 38.292C79.02 38.292 78.874 38.28 78.747 38.256C78.676 38.296 78.606 38.343 78.539 38.399C78.471 38.455 78.41 38.522 78.354 38.601C78.299 38.68 78.253 38.774 78.217 38.881C78.181 38.988 78.163 39.113 78.163 39.256C78.163 39.867 78.5 40.172 79.174 40.172C79.753 40.172 80.181 40.059 80.459 39.833C80.737 39.607 80.875 39.347 80.875 39.054C80.875 38.776 80.788 38.58 80.613 38.465C80.439 38.35 80.204 38.293 79.911 38.293L79.187 38.292ZM80.46 34.531C80.46 34.119 80.363 33.825 80.168 33.65C79.974 33.476 79.745 33.388 79.484 33.388C79.206 33.388 78.968 33.475 78.77 33.65C78.572 33.824 78.472 34.118 78.472 34.531C78.472 34.944 78.571 35.237 78.77 35.412C78.968 35.586 79.198 35.674 79.46 35.674C79.738 35.674 79.974 35.587 80.168 35.412C80.363 35.237 80.46 34.944 80.46 34.531ZM86.529 34.686C86.529 34.932 86.521 35.144 86.505 35.323C86.489 35.502 86.473 35.658 86.457 35.793H83.542C83.574 36.467 83.718 36.963 83.976 37.28C84.234 37.597 84.605 37.756 85.089 37.756C85.256 37.756 85.406 37.736 85.541 37.696C85.676 37.656 85.793 37.609 85.892 37.553C85.991 37.497 86.074 37.442 86.142 37.386C86.209 37.33 86.259 37.287 86.291 37.255L86.648 37.933C86.608 37.973 86.549 38.03 86.47 38.106C86.391 38.181 86.284 38.257 86.149 38.332C86.014 38.407 85.847 38.473 85.649 38.528C85.451 38.584 85.217 38.611 84.947 38.611C84.59 38.611 84.267 38.551 83.977 38.432C83.687 38.313 83.442 38.128 83.239 37.879C83.037 37.629 82.88 37.312 82.769 36.927C82.658 36.542 82.602 36.08 82.602 35.541C82.602 35.033 82.66 34.595 82.775 34.226C82.89 33.857 83.047 33.554 83.245 33.316C83.443 33.078 83.673 32.901 83.935 32.786C84.197 32.671 84.478 32.614 84.78 32.614C85.327 32.614 85.756 32.786 86.065 33.132C86.374 33.478 86.529 33.996 86.529 34.686ZM84.72 33.401C84.379 33.401 84.105 33.544 83.899 33.829C83.693 34.115 83.574 34.527 83.542 35.067H85.624C85.632 35.027 85.638 34.97 85.642 34.894C85.646 34.819 85.648 34.737 85.648 34.65C85.648 34.253 85.569 33.946 85.41 33.728C85.251 33.51 85.021 33.401 84.72 33.401ZM90.277 33.913C90.214 33.842 90.099 33.744 89.932 33.621C89.765 33.498 89.547 33.437 89.277 33.437C89.023 33.437 88.829 33.497 88.694 33.616C88.559 33.735 88.492 33.878 88.492 34.044C88.492 34.258 88.553 34.435 88.676 34.574C88.799 34.713 88.987 34.862 89.241 35.02L89.598 35.234C89.987 35.464 90.292 35.712 90.514 35.978C90.736 36.244 90.847 36.587 90.847 37.007C90.847 37.459 90.69 37.84 90.377 38.149C90.064 38.458 89.613 38.613 89.026 38.613C88.796 38.613 88.594 38.589 88.419 38.542C88.244 38.495 88.092 38.439 87.961 38.375C87.83 38.312 87.721 38.242 87.634 38.167C87.547 38.092 87.475 38.022 87.42 37.959L87.884 37.197C87.932 37.245 87.989 37.3 88.057 37.364C88.124 37.427 88.206 37.489 88.301 37.548C88.396 37.607 88.503 37.657 88.622 37.697C88.741 37.737 88.88 37.757 89.038 37.757C89.324 37.757 89.542 37.693 89.693 37.567C89.844 37.44 89.919 37.285 89.919 37.103C89.919 36.968 89.901 36.851 89.866 36.752C89.83 36.653 89.777 36.564 89.705 36.484C89.634 36.405 89.546 36.329 89.443 36.258C89.34 36.187 89.221 36.107 89.086 36.02L88.729 35.794C88.372 35.564 88.092 35.322 87.89 35.068C87.688 34.814 87.587 34.489 87.587 34.092C87.587 33.878 87.629 33.681 87.712 33.503C87.795 33.325 87.912 33.17 88.063 33.039C88.214 32.908 88.39 32.805 88.593 32.73C88.795 32.655 89.011 32.617 89.242 32.617C89.464 32.617 89.654 32.639 89.813 32.682C89.972 32.726 90.108 32.781 90.224 32.849C90.339 32.917 90.434 32.984 90.51 33.051C90.585 33.119 90.647 33.176 90.694 33.224L90.277 33.913ZM99.762 38.47H98.62L97.882 35.84H95.395L94.645 38.47H93.598L96.275 30.259H97.084L99.762 38.47ZM97.655 35.055L97.012 32.806C96.925 32.504 96.849 32.217 96.786 31.943C96.723 31.669 96.687 31.441 96.679 31.259H96.655C96.647 31.441 96.609 31.666 96.542 31.931C96.474 32.197 96.397 32.48 96.31 32.782L95.632 35.055H97.655ZM103.57 38.47V34.793C103.57 34.325 103.503 33.988 103.368 33.781C103.233 33.575 103.015 33.472 102.714 33.472C102.555 33.472 102.415 33.492 102.292 33.531C102.169 33.571 102.06 33.62 101.965 33.68C101.87 33.74 101.787 33.805 101.715 33.876C101.644 33.947 101.584 34.011 101.537 34.066V38.469H100.573V32.757H101.454V33.4H101.478C101.518 33.336 101.577 33.259 101.656 33.168C101.735 33.077 101.835 32.989 101.954 32.906C102.073 32.823 102.212 32.753 102.371 32.698C102.53 32.643 102.708 32.615 102.906 32.615C103.556 32.615 104.017 32.869 104.286 33.377C104.341 33.298 104.417 33.212 104.512 33.121C104.607 33.03 104.718 32.947 104.845 32.871C104.972 32.796 105.115 32.734 105.273 32.687C105.431 32.64 105.606 32.616 105.797 32.616C106.955 32.616 107.534 33.29 107.534 34.639V38.471H106.57V34.794C106.57 34.326 106.487 33.989 106.32 33.782C106.153 33.575 105.908 33.473 105.582 33.473C105.312 33.473 105.088 33.538 104.91 33.669C104.731 33.8 104.591 33.925 104.487 34.044C104.503 34.131 104.515 34.225 104.523 34.324C104.531 34.423 104.535 34.528 104.535 34.639V38.471L103.57 38.47ZM111.412 33.544H110.163V36.709C110.163 37.114 110.215 37.389 110.318 37.536C110.421 37.683 110.596 37.756 110.842 37.756C110.985 37.756 111.108 37.736 111.211 37.696C111.314 37.656 111.389 37.621 111.437 37.589L111.568 38.363C111.528 38.395 111.433 38.444 111.282 38.512C111.131 38.579 110.929 38.613 110.675 38.613C110.183 38.613 109.814 38.476 109.568 38.202C109.322 37.928 109.199 37.474 109.199 36.84V33.544H108.509V32.901L109.199 32.758L109.306 31.163H110.163V32.758H111.531L111.412 33.544Z" fill="black" />
  </g>
  <defs>
    <clipPath id="clip0_160_254">
      <rect width="125" height="135" fill="white" />
    </clipPath>
  </defs>
</svg>