<svg viewBox="0 0 13 13" fill="none" xmlns="http://www.w3.org/2000/svg">
  <title>Download</title>
  <path d="M6.5 9.82143L3.21427 6.5357L3.87142 5.86785L6.03571 8.03214V0H6.96429V8.03214L9.12858 5.86785L9.78573 6.5357L6.5 9.82143ZM1.49999 13C1.07262 13 0.715774 12.8568 0.429464 12.5705C0.143155 12.2842 0 11.9274 0 11.5V9.25001H0.928571V11.5C0.928571 11.6429 0.988093 11.7738 1.10714 11.8929C1.22619 12.0119 1.35715 12.0714 1.49999 12.0714H11.5C11.6429 12.0714 11.7738 12.0119 11.8929 11.8929C12.0119 11.7738 12.0714 11.6429 12.0714 11.5V9.25001H13V11.5C13 11.9274 12.8568 12.2842 12.5705 12.5705C12.2842 12.8568 11.9274 13 11.5 13H1.49999Z" fill="black" />
</svg>