<svg width="282" height="102" viewBox="0 0 282 102" fill="none" xmlns="http://www.w3.org/2000/svg">
  <title>Justus-Liebig-Universität Logo</title>
  <g clip-path="url(#clip0_160_191)">
    <path d="M2.52391 15.9205C2.58516 17.3705 2.73014 20.1518 5.68889 20.1518C8.85514 20.1518 8.82514 17.428 8.82514 15.683V1.12675H11.6364V15.5356C11.6364 17.4881 11.6364 22.6655 5.68889 22.6655C3.94389 22.6655 0.808898 22.3105 0.0976485 17.933C-0.0198515 17.133 0.0101393 16.6893 0.0101393 16.2755L2.52391 15.9205Z" fill="black" />
    <path d="M33.6526 1.12675V13.3767C33.6526 16.1855 33.6526 22.6655 25.3701 22.6655C17.3526 22.6655 16.9976 17.133 16.9976 13.3767V1.12675H19.8088V13.3455C19.8088 15.9205 19.8088 20.1518 25.1338 20.1518C30.3413 20.1518 30.8438 17.1618 30.8438 13.3455V1.12675H33.6526Z" fill="black" />
    <path d="M39.3601 15.2693C39.3901 15.7418 39.5089 16.6293 39.9214 17.428C41.1064 19.7055 44.0351 20.1518 45.6026 20.1518C48.5326 20.1518 50.8689 18.9092 50.8689 16.5405C50.8689 14.0567 48.7402 13.523 44.4489 12.488C41.6977 11.838 37.5264 10.8605 37.5264 6.63052C37.5264 3.34677 40.2476 0.77298 44.9526 0.77298C49.5089 0.77298 52.7626 2.96175 52.9101 7.133L50.2176 7.34052C50.0714 5.80177 49.4489 3.28801 45.0714 3.28801C43.2351 3.28801 40.1889 3.81927 40.1889 6.45177C40.1889 8.28802 41.3714 8.96803 45.2476 9.82678C49.1226 10.683 53.5614 11.6905 53.5614 16.3343C53.5614 19.8543 50.5426 22.6655 45.7214 22.6655C40.6326 22.6655 38.3264 20.7118 37.2314 18.1093C36.7576 16.9543 36.7276 16.0667 36.6976 15.5055L39.3601 15.2693Z" fill="black" />
    <path d="M61.7152 3.64302H54.7627V1.12677H71.539V3.64302H64.5265V22.3105H61.7152V3.64302Z" fill="black" />
    <path d="M90.1889 1.12675V13.3767C90.1889 16.1855 90.189 22.6655 81.9052 22.6655C73.889 22.6655 73.5339 17.133 73.5339 13.3767V1.12675H76.344V13.3455C76.344 15.9205 76.344 20.1518 81.6677 20.1518C86.8752 20.1518 87.379 17.1618 87.379 13.3455V1.12675H90.1889Z" fill="black" />
    <path d="M95.5664 15.2693C95.5964 15.7418 95.7165 16.6293 96.129 17.428C97.3115 19.7055 100.243 20.1518 101.81 20.1518C104.739 20.1518 107.075 18.9092 107.075 16.5405C107.075 14.0567 104.945 13.523 100.655 12.488C97.904 11.838 93.7327 10.8605 93.7327 6.63052C93.7327 3.34677 96.4539 0.77298 101.16 0.77298C105.714 0.77298 108.969 2.96175 109.116 7.133L106.424 7.34052C106.276 5.80177 105.655 3.28801 101.279 3.28801C99.4427 3.28801 96.3952 3.81927 96.3952 6.45177C96.3952 8.28802 97.5789 8.96803 101.455 9.82678C105.33 10.683 109.768 11.6905 109.768 16.3343C109.768 19.8543 106.75 22.6655 101.928 22.6655C96.8402 22.6655 94.5327 20.7118 93.4389 18.1093C92.9639 16.9543 92.9339 16.0667 92.9039 15.5055L95.5664 15.2693Z" fill="black" />
    <path d="M126.668 1.12677H129.478V19.7955H139.919V22.3105H126.668V1.12677Z" fill="black" />
    <path d="M142.635 22.3105H145.444V1.12677H142.635V22.3105Z" fill="black" />
    <path d="M151.126 1.12677H166.45V3.64302H153.936V10.1217H165.651V12.6356H153.936V19.7955H166.955V22.3105H151.126V1.12677Z" fill="black" />
    <path d="M173.52 12.5168H178.434C180.149 12.5168 183.816 12.5168 183.816 16.1568C183.816 19.8243 180.268 19.7955 178.789 19.7955H173.52V12.5168ZM170.711 22.3105H178.816C180.029 22.3105 181.539 22.3105 183.373 21.5705C185.385 20.7717 186.716 18.553 186.716 16.1568C186.716 14.5005 186.005 12.0143 182.753 11.0393C185.504 9.64676 185.681 7.31051 185.681 6.54051C185.681 4.97426 184.941 3.4355 183.609 2.4005C182.041 1.18675 179.971 1.12677 178.67 1.12677H170.711V22.3105ZM173.52 3.64302H177.751C180.089 3.64302 182.929 3.64305 182.929 6.8968C182.929 10.0331 179.971 10.003 178.108 10.003H173.52V3.64302Z" fill="black" />
    <path d="M190.646 22.3105H193.458V1.12677H190.646V22.3105Z" fill="black" />
    <path d="M207.645 11.5105H216.609V19.3518C215.486 20.268 212.439 22.6655 207.851 22.6655C201.431 22.6655 197.025 18.493 197.025 11.808C197.025 7.63548 199.036 0.771759 207.645 0.771759C214.716 0.771759 215.899 5.53427 216.285 7.04427L213.771 7.75426C213.385 6.42301 212.47 3.1693 207.645 3.1693C200.486 3.1693 199.925 9.5593 199.925 11.6293C199.925 13.8781 200.369 16.1267 201.848 17.7842C203.356 19.4405 205.636 20.1493 207.705 20.1493C210.929 20.1493 213.385 18.3742 213.889 17.9605V14.0268H207.645V11.5105Z" fill="black" />
    <path d="M219.449 15.9495H227.409V13.3463H219.449V15.9495Z" fill="black" />
    <path d="M108.818 36.628V48.8755C108.818 51.6868 108.818 58.168 100.535 58.168C92.5164 58.168 92.1614 52.6355 92.1614 48.8755V36.628H94.9726V48.848C94.9726 51.4217 94.9726 55.6517 100.299 55.6517C105.505 55.6517 106.008 52.663 106.008 48.848V36.628H108.818Z" fill="black" />
    <path d="M113.855 36.6281H116.726L127.79 53.2543H127.849V36.6281H130.511V57.8105H127.643L116.576 41.1843H116.519V57.8105H113.855V36.6281Z" fill="black" />
    <path d="M136.591 57.8105H139.4V36.6268H136.591V57.8105Z" fill="black" />
    <path d="M142.27 36.6281H145.288L150.79 52.0118L150.939 52.368C151.351 53.5218 151.44 53.7594 151.885 55.4743H151.945C152.24 54.3218 152.654 53.1056 153.039 52.0118L158.778 36.6281H161.619L153.334 57.8105H150.465L142.27 36.6281Z" fill="black" />
    <path d="M164.161 36.6281H179.488V39.1418H166.974V45.6218H178.689V48.1369H166.974V55.2968H179.99V57.8105H164.161V36.6281Z" fill="black" />
    <path d="M186.73 38.9643H193.416C194.51 38.9643 195.426 39.0843 196.318 39.5581C197.201 40.0306 197.941 41.0956 197.941 42.4281C197.941 43.6993 197.201 44.9718 196.106 45.4443C194.954 45.948 194.006 45.9481 192.735 45.9481H186.73V38.9643ZM183.92 57.8105H186.73V48.4618H189.955C192.291 48.4618 193.266 48.6694 196.285 53.4331L199.068 57.8105H202.589L198.889 52.0418C197.233 49.4681 195.961 48.6993 194.894 48.1968V48.1369C198.504 47.6631 200.843 45.8293 200.843 42.4281C200.843 40.2093 199.688 38.0193 197.529 37.1906C196.136 36.6581 194.775 36.6281 193.298 36.6281H183.92V57.8105Z" fill="black" />
    <path d="M205.924 50.7692C205.954 51.243 206.071 52.1305 206.485 52.9292C207.669 55.2092 210.598 55.6517 212.168 55.6517C215.094 55.6517 217.433 54.4092 217.433 52.0417C217.433 49.5567 215.301 49.0242 211.011 47.988C208.259 47.3367 204.09 46.3605 204.09 42.1305C204.09 38.8468 206.811 36.273 211.515 36.273C216.07 36.273 219.326 38.463 219.474 42.6342L216.78 42.8417C216.633 41.303 216.013 38.7892 211.633 38.7892C209.798 38.7892 206.753 39.3205 206.753 41.953C206.753 43.7867 207.935 44.468 211.81 45.3255C215.686 46.1842 220.125 47.1905 220.125 51.8343C220.125 55.3555 217.105 58.168 212.285 58.168C207.196 58.168 204.886 56.213 203.791 53.6105C203.32 52.4555 203.291 51.568 203.261 51.0055L205.924 50.7692Z" fill="black" />
    <path d="M224.384 57.8105H227.195V36.6268H224.384V57.8105Z" fill="black" />
    <path d="M236.826 39.1418H229.874V36.6281H246.648V39.1418H239.638V57.8105H236.826V39.1418Z" fill="black" />
    <path d="M254.488 42.8981C254.989 41.5706 255.345 40.2381 255.611 38.8468H255.67C256.115 40.5643 256.589 41.8656 257.121 43.2556L259.339 49.1431H252.15L254.488 42.8981ZM246.055 57.8105H249.014L251.351 51.3618H260.196L262.684 57.8105H265.848L257.209 36.6281H254.19L246.055 57.8105Z" fill="black" />
    <path d="M271.883 39.1418H264.931V36.6281H281.705V39.1418H274.693V57.8105H271.883V39.1418Z" fill="black" />
    <path d="M101.438 78.5706H110.403V86.4106C109.278 87.3269 106.23 89.7219 101.644 89.7219C95.2264 89.7219 90.8164 85.5532 90.8164 78.8657C90.8164 74.6932 92.8289 67.8319 101.438 67.8319C108.508 67.8319 109.693 72.5931 110.076 74.1019L107.561 74.8119C107.176 73.4819 106.26 70.2256 101.438 70.2256C94.2789 70.2256 93.7164 76.6169 93.7164 78.6881C93.7164 80.9356 94.1601 83.1844 95.6414 84.8419C97.1476 86.4981 99.4251 87.2081 101.498 87.2081C104.723 87.2081 107.176 85.4344 107.681 85.0169V81.0844H101.438V78.5706Z" fill="black" />
    <path d="M115.019 89.3682H117.828V68.1869H115.019V89.3682Z" fill="black" />
    <path d="M123.505 68.1857H138.826V70.7006H126.316V77.1781H138.03V79.6944H126.316V86.8531H139.331V89.3682H123.505V68.1857Z" fill="black" />
    <path d="M143.906 82.3269C143.933 82.8019 144.053 83.6894 144.469 84.4869C145.65 86.7644 148.579 87.2081 150.148 87.2081C153.076 87.2081 155.414 85.9656 155.414 83.5981C155.414 81.1144 153.284 80.5819 148.995 79.5456C146.244 78.8956 142.071 77.9194 142.071 73.6881C142.071 70.4031 144.793 67.8319 149.496 67.8319C154.054 67.8319 157.308 70.0194 157.453 74.1906L154.764 74.3969C154.615 72.8582 153.995 70.3456 149.615 70.3456C147.781 70.3456 144.733 70.8769 144.733 73.5119C144.733 75.3457 145.916 76.0256 149.791 76.8831C153.666 77.7406 158.105 78.7469 158.105 83.3907C158.105 86.9119 155.089 89.7219 150.265 89.7219C145.178 89.7219 142.87 87.7719 141.775 85.1656C141.301 84.0131 141.271 83.1269 141.241 82.5644L143.906 82.3269Z" fill="black" />
    <path d="M163.309 82.3269C163.338 82.8019 163.455 83.6894 163.87 84.4869C165.053 86.7644 167.983 87.2081 169.55 87.2081C172.479 87.2081 174.818 85.9656 174.818 83.5981C174.818 81.1144 172.685 80.5819 168.396 79.5456C165.646 78.8956 161.475 77.9194 161.475 73.6881C161.475 70.4031 164.195 67.8319 168.899 67.8319C173.456 67.8319 176.71 70.0194 176.859 74.1906L174.166 74.3969C174.018 72.8582 173.396 70.3456 169.018 70.3456C167.184 70.3456 164.138 70.8769 164.138 73.5119C164.138 75.3457 165.32 76.0256 169.196 76.8831C173.071 77.7406 177.509 78.7469 177.509 83.3907C177.509 86.9119 174.493 89.7219 169.67 89.7219C164.58 89.7219 162.273 87.7719 161.178 85.1656C160.703 84.0131 160.675 83.1269 160.645 82.5644L163.309 82.3269Z" fill="black" />
    <path d="M180.32 68.1869H195.644V70.7019H183.129V77.1819H194.845V79.6969H183.129V86.8544H196.149V89.3694H180.32V68.1869Z" fill="black" />
    <path d="M200.051 68.1869H202.921L213.988 84.8156H214.046V68.1869H216.71V89.3694H213.839L202.776 72.7444H202.715V89.3694H200.051V68.1869Z" fill="black" />
    <path d="M52.5064 76.9769C52.6039 75.9006 52.8001 73.9681 52.8764 72.9668C53.4051 65.9981 53.3439 58.5681 53.0989 55.0406L52.9689 53.1769L51.1014 53.1618C44.9601 53.1106 39.0839 53.9194 35.8064 54.4719C35.9076 53.0994 35.9989 51.2969 35.9989 49.2806C35.9989 47.2644 35.9551 45.7044 35.9001 44.5481C38.3289 44.9981 42.1126 45.6344 45.8076 45.9819C51.6614 46.5344 56.4439 46.4669 56.9126 46.4569C57.4089 46.4669 62.1776 46.5319 68.0101 45.9819C71.7064 45.6344 75.4889 44.9981 77.9189 44.5481C77.8639 45.7044 77.8189 47.2644 77.8189 49.2806C77.8189 51.2969 77.9114 53.0994 78.0126 54.4719C74.7351 53.9194 68.8589 53.1106 62.7176 53.1618L60.8501 53.1769L60.7201 55.0406C60.4751 58.5681 60.4151 65.9981 60.9414 72.9668C61.0189 73.9681 61.2164 75.9006 61.3126 76.9769C61.6751 80.9506 62.4139 84.9281 62.9501 87.4756C61.6289 87.3593 60.4126 87.2781 59.4251 87.2369C58.1076 87.1844 57.1801 87.2081 56.9101 87.2181C56.6376 87.2081 55.7114 87.1844 54.3939 87.2369C53.4064 87.2781 52.1901 87.3593 50.8701 87.4756C51.4051 84.9281 52.1439 80.9506 52.5064 76.9769Z" fill="#3E69AC" />
    <path fill-rule="evenodd" clip-rule="evenodd" d="M56.9101 101.233C56.9101 101.233 44.3851 97.2094 36.3438 82.2969C32.0776 74.3807 29.2051 64.3956 29.2051 54.2819V36.5869H84.6126V54.2819C84.6126 64.3956 81.7438 74.3807 77.4751 82.2969C69.4338 97.2094 56.9101 101.233 56.9101 101.233ZM55.6176 98.6844C54.3876 98.1069 52.6638 97.1856 50.7051 95.8269C46.7638 93.0906 41.8413 88.5656 37.9838 81.4131C33.8501 73.7444 31.0676 64.0606 31.0676 54.2819V38.4494H82.7513V54.2819C82.7513 64.0606 79.9688 73.7444 75.8351 81.4131C71.9788 88.5656 67.0551 93.0906 63.1163 95.8269C61.1538 97.1856 59.4338 98.1069 58.2001 98.6844C57.6638 98.9382 57.2263 99.1207 56.9101 99.2469C56.5938 99.1207 56.1563 98.9382 55.6176 98.6844Z" fill="black" />
    <path fill-rule="evenodd" clip-rule="evenodd" d="M56.9102 89.2355C56.9102 89.2355 55.9564 89.1943 54.4764 89.2543C52.8539 89.3193 50.5977 89.5005 48.2852 89.7693C48.2852 89.7693 49.9052 83.283 50.4952 76.7943C50.5927 75.728 50.7889 73.8081 50.8652 72.8143C51.3839 65.9543 51.3277 58.6518 51.0839 55.1793C42.0164 55.1055 33.5402 56.9493 33.5402 56.9493C33.5402 56.9493 33.9814 53.633 33.9814 49.2805C33.9814 44.1205 33.6864 42.0543 33.6864 42.0543C33.6864 42.0543 39.9602 43.4006 45.9977 43.9731C52.0364 44.5431 56.9102 44.4393 56.9102 44.4393C56.9102 44.4393 61.7827 44.5431 67.8202 43.9731C73.8589 43.4006 80.1327 42.0543 80.1327 42.0543C80.1327 42.0543 79.8364 44.1205 79.8364 49.2805C79.8364 53.633 80.2789 56.9493 80.2789 56.9493C80.2789 56.9493 71.8014 55.1055 62.7339 55.1793C62.4914 58.6518 62.4352 65.9543 62.9539 72.8143C63.0289 73.8081 63.2264 75.728 63.3227 76.7943C63.9139 83.283 65.5352 89.7693 65.5352 89.7693C63.2214 89.5005 60.9664 89.3193 59.3439 89.2543C57.8639 89.1943 56.9102 89.2355 56.9102 89.2355ZM54.4452 88.478C53.0652 88.5343 51.2314 88.6718 49.2927 88.8768C49.7752 86.7531 50.8189 81.8093 51.2689 76.8643C51.3664 75.7931 51.5627 73.8705 51.6377 72.8718C52.1627 65.9718 52.1027 58.6206 51.8602 55.1256L51.8114 54.408L51.0927 54.4031C43.8552 54.3431 36.9889 55.4943 34.4289 55.9793C34.5614 54.6493 34.7589 52.1943 34.7589 49.2805C34.7589 46.1455 34.6502 44.1356 34.5627 43.0268C36.6014 43.4318 41.3302 44.3118 45.9252 44.7456C51.8064 45.3006 56.5939 45.2218 56.9102 45.2155C57.2252 45.2218 62.0127 45.3006 67.8939 44.7456C72.4877 44.3118 77.2177 43.4318 79.2564 43.0268C79.1702 44.1356 79.0602 46.1455 79.0602 49.2805C79.0602 52.1943 79.2577 54.6493 79.3914 55.9793C76.8289 55.4943 69.9639 54.3431 62.7289 54.4031L62.0077 54.408L61.9589 55.1256C61.7164 58.6206 61.6589 65.9718 62.1814 72.8718C62.2564 73.8705 62.4514 75.7931 62.5502 76.8643C62.9989 81.8093 64.0427 86.7531 64.5277 88.8768C62.5877 88.6718 60.7539 88.5343 59.3739 88.478C58.0214 88.423 57.0964 88.4518 56.9102 88.4593C56.7239 88.4518 55.7989 88.423 54.4452 88.478Z" fill="black" />
    <path d="M1.06641 29.2493H281.465" stroke="black" stroke-width="1.68625" stroke-miterlimit="10" />
  </g>
  <defs>
    <clipPath id="clip0_160_191">
      <rect width="282" height="102" fill="white" />
    </clipPath>
  </defs>
</svg>