<svg width="100" height="100" viewBox="0 0 100 100" fill="none" xmlns="http://www.w3.org/2000/svg">
<g clip-path="url(#clip0_3_139)">
<path fill-rule="evenodd" clip-rule="evenodd" d="M66.6684 0H0V11.4646C3.99461 7.89179 9.52391 5.77953 15.8911 5.77953C22.2636 5.77953 29.2291 8.75973 33.516 13.4034L25.5353 22.8717C23.0325 19.4744 19.2834 17.2731 16.067 17.2731C11.0665 17.2731 7.43296 21.2082 7.43296 26.8017C7.43296 32.3953 11.0665 36.4459 16.067 36.4459C19.0472 36.4459 22.7963 34.6015 25.5353 31.6816V31.6766L33.516 40.19C28.8673 45.2508 21.4897 48.5275 15.3534 48.5275C9.22232 48.5275 3.88398 46.4354 0 42.8879V66.6684L33.3367 100H100V93.9442H92.2053L87.2048 83.1089H82.0234V93.9442H68.2079V52.2063H88.3908C93.0191 52.2063 97.1003 53.1258 100 54.8493V33.3367L78.3396 11.673V47.9396H66.7907L50.3569 26.6208V47.9396H37.7928V6.19666H49.3467L65.8358 27.636V6.19666H72.8641L66.6684 0ZM63.4487 63.0969V52.2013H25.872V63.0969H37.7224V93.9392H51.5379V63.0969H63.4487Z" fill="white"/>
<path d="M88.3908 72.6254H82.0184V62.6797H88.3908C91.366 62.6797 93.0948 64.4638 93.0948 67.5596C93.0948 70.6554 91.366 72.6204 88.3908 72.6204V72.6254Z" fill="white"/>
</g>
<defs>
<clipPath id="clip0_3_139">
<rect width="100" height="100" fill="white"/>
</clipPath>
</defs>
</svg>
