<?xml version="1.0" encoding="UTF-8"?>
<svg xmlns="http://www.w3.org/2000/svg" width="14.8cm" height="5.27266cm" viewBox="0 0 419.52756 149.46113">
  <title>PRIF Logo</title>
  <defs>
    <style>
      .c,
      .d {
        fill: #0083b5;
      }

      .e,
      .f {
        fill: #224663;
      }

      .f,
      .d {
        font-family: Roboto-Regular, Roboto;
        font-size: 10px;
      }
    </style>
  </defs>
  <g id="a">
    <g>
      <path class="e" d="M296.36291,111.10564c0-4.28021-1.32515-6.49703-3.00561-7.64993h6.43292v-24.93313l7.67793,.33987v-11.83699h-29.2894v11.83699l7.68034-.33987v23.70263h-2.13316v30.9994h4.53707v-14.30472h.05995l3.99112,14.30472h4.77914l-3.99112-14.10038c2.25518-1.6859,3.26082-4.60455,3.26082-8.01859Zm-7.30967,4.48245l-.79024-.04209v-8.26532h.60603c2.28411-.16211,3.07661,1.6459,3.07661,3.8672,0,2.54997-.82128,4.44021-2.8924,4.44021Z" />
      <polygon class="e" points="19.63043 47.81992 44.57803 47.81992 44.57803 34.83019 32.9998 34.83019 32.9998 30.1643 43.22066 30.1643 43.22066 30.1634 43.22185 30.1634 43.22185 17.80908 32.9998 17.80908 32.9998 13.26975 44.19066 13.26975 44.19066 13.26886 44.19185 13.26886 44.19185 .27912 19.63043 .27912 19.63043 .27988 19.62909 .27988 19.62909 47.81858 19.63043 47.81858 19.63043 47.81992" />
      <polygon class="e" points="344.75322 20.17441 352.06632 19.73245 352.06632 47.82141 352.06737 47.82141 365.33918 47.82141 365.34038 47.82141 365.34038 19.7326 369.21366 19.96649 372.65661 20.17441 372.65661 15.72927 372.65781 15.72927 372.65781 .28061 372.65661 .28061 344.75322 .28061 344.75233 .28061 344.75233 20.17441 344.75322 15.72927 344.75322 20.17441" />
      <path class="e" d="M161.97996,20.015l-.00028,.00045-10.01323,27.80313h.00103l-.0006,.00134h23.89109v-11.41846h3.70891c4.69695,0,9.05218,.39987,11.95099,2.60326v-.00104l.00045,.0003v-5.87521h-11.2541l8.05488-20.30381L193.29602,.27988h0l.0003-.00076h-37.82667v.00076h-.00045V14.65579h6.40411c1.24043,0,3.71398-.37749,3.71547-.37778-1.29398,1.89218-2.53008,3.65569-3.60867,5.73669l-.00015,.0003Z" />
      <path class="e" d="M96.07031,34.70601c0-5.67296-2.51934-9.45792-6.49271-11.28815v-.37539c3.19877-1.32394,4.79899-5.42429,4.79899-9.58464,0-2.35235-.34845-4.28021-.93884-5.89073-7.16976-4.10706-15.77788-6.52151-25.34288-7.28781h-3.46488V38.74859c2.63703,1.57723,4.4128,4.20273,4.4128,8.60519,0,.16434-.02221,.30643-.02669,.46629h13.68483c6.39501,0,13.36937-3.34285,13.36937-13.11406Zm-19.13417-22.95185h.92122c1.93791,0,4.40624-.25106,4.40624,3.27852,0,3.27852-2.17985,3.53181-4.11761,3.53181h-1.20985v-6.81033Zm1.50057,24.71551h-1.50057v-7.88083h1.30517c2.13316,0,5.52495-.06448,5.52495,3.91153,0,3.90496-3.1497,3.96929-5.32955,3.96929Z" />
      <path class="e" d="M27.32942,93.503H15.17631v-3.57822h11.42281v-9.46687H15.17631v-3.47838h11.74917v-9.95346H2.1709v35.19974H.01014l-.00791,30.99956H3.44056v-12.86763H7.61367v-5.75969H3.44056v-6.61702h4.63043v-4.52469h1.3074v29.76904h4.5372v-14.3071h.06205l3.98665,14.3071h4.78138l-3.9868-14.10277c2.25101-1.68366,3.25874-4.60231,3.25874-8.01859,0-4.27798-1.32306-6.49703-3.00561-7.64768h4.98112v29.76904h4.53719v-30.99956h-1.2009v-8.72281Zm-12.62147,22.08346l-.79235-.0421v-8.26308h.60813c2.28411-.16209,3.0787,1.64606,3.0787,3.86721,0,2.54773-.82337,4.43797-2.89448,4.43797Z" />
      <path class="e" d="M139.19327,67.02532h-10.65462v66.19899h2.22415v-14.2247l-.03117-1.27275-.20419-3.12746,.05995-.08,5.32075,18.70492h4.0754v-30.99939h-.79026v-35.1996Zm-3.2274,53.90677l-5.02557-17.47427h4.73471v12.70315c0,1.60589,.08889,3.20956,.34858,4.68903l-.05771,.08209Z" />
      <path class="e" d="M182.67272,102.43597l4.74558,9.57792c-.7567-5.34205-2.59467-8.33398-4.74558-9.57792Z" />
      <path class="e" d="M175.85857,131.53304v-27.60968c-1.97565,2.34563-3.39418,6.71704-3.39418,13.80275s1.41853,11.4592,3.39418,13.80693Z" />
      <polygon class="e" points="248.3731 133.22476 252.90822 133.22476 252.90822 132.00097 248.3731 125.22169 248.3731 133.22476" />
      <path class="e" d="M279.04419,91.03571c0-6.18388-4.27095-9.1758-10.17104-10.43303l-3.15194-.67973c-1.06994-.23986-2.79483-.43316-2.79483-1.78591,0-1.49918,1.78023-1.93233,3.00127-1.93233,2.99875,0,5.69589,1.20379,8.08203,2.7543l3.76469-9.32685c-3.76469-2.17458-7.78028-3.18747-12.1531-3.18747-1.0322,0-2.0644,.07553-3.07885,.2221v23.53829c1.14332,.21091,2.36632,.55092,2.36632,1.89681,0,1.21066-1.18973,1.81486-2.36632,2.05025v13.82708h3.67385v-4.26468c6.85443-1.1217,12.82791-5.32205,12.82791-12.67883Z" />
      <rect class="e" x="262.54317" y="114.59969" width="3.21414" height="5.75953" />
      <path class="e" d="M274.77309,101.73072c-4.05108,0-8.07114,4.35812-8.07114,15.99495,0,9.43135,2.64151,14.07814,5.79792,15.50194h4.54617c3.15431-1.4238,5.79581-6.07059,5.79581-15.50194,0-11.63683-4.02006-15.99495-8.06876-15.99495Zm0,26.31261c-3.01456,0-3.22771-7.85202-3.22771-10.31766,0-2.7564,.21315-10.31975,3.22771-10.31975,3.01428,0,3.2295,7.56335,3.2295,10.31975,0,2.46564-.21522,10.31766-3.2295,10.31766Z" />
      <path class="e" d="M302.20647,110.28083c0-1.89009,.88125-3.0385,2.28411-3.0385,1.24759,0,2.37736,.90392,3.28752,1.97233v-5.96178c-1.24535-.98617-2.55723-1.52157-4.01782-1.52157-3.89566,0-5.99988,4.23602-5.99988,9.12701,0,4.52246,1.61365,6.82376,4.23067,9.21149,1.28294,1.23289,2.68148,2.13682,2.68148,4.52246,0,2.05234-1.15645,3.37165-2.61928,3.37165-1.33843,0-2.3751-.65958-3.43846-1.64575v5.8373c.46626,.4642,1.05217,.81302,1.66478,1.07289h4.57061c2.77023-1.24827,4.26858-4.77351,4.26858-9.17148,0-8.38727-6.91232-8.67609-6.91232-13.77603Z" />
      <path class="e" d="M310.92558,126.21443v-17.08783c-.99461,2.51221-1.53381,5.4219-1.53381,8.31174,0,3.09194,.52593,6.15955,1.53381,8.77609Z" />
      <path class="e" d="M343.7695,123.60729c-.02894,2.29892-.02894,4.56231-2.25309,4.56231-2.46831,0-2.25309-3.53614-2.25309-5.88164v-18.83164h3.25411v-24.93315l7.68051,.33764v-11.83475h-19.83793v66.19915h2.78129v-29.76889h1.58482v21.79239c0,4.37588,1.4406,6.96809,3.96457,7.97874h5.71588c3.70697-1.42828,3.90013-5.68415,3.90013-8.39175v-22.6099h-4.5372v21.38148Z" />
      <path class="e" d="M74.56849,84.75721v-.29091c3.35838-1.01512,5.03883-4.15602,5.03883-7.34558,0-8.40742-7.5804-10.09541-15.00552-10.09541h-16.22194v26.09259h12.91905v-4.39796h1.37393c2.23758,0,5.79568-.04881,5.79568,2.9964,0,.56646-.11978,1.02618-.32622,1.40156h3.19415c3.49398,0,6.81699-.2909,9.95998-.84406-.42601-3.71391-2.93222-6.24388-6.72794-7.51663Zm-11.99559-3.72272h-1.27399v-5.21771h.96552c2.03337,0,4.62595-.19314,4.62595,2.51235,0,2.51431-2.28859,2.70536-4.31749,2.70536Z" />
      <path class="e" d="M108.2795,75.23318c1.62243-2.50549,2.98323-5.24443,4.0575-8.20741h-4.0575v8.20741Z" />
      <path class="e" d="M83.16573,67.02547v24.88881c4.77019-1.02617,9.08306-2.7052,12.89876-4.96427l.00015,.00075c.39692-.23763,.79652-.47301,1.18464-.72153l.00075,.00104c2.73249-1.7571,5.18531-3.83392,7.3407-6.20179l-8.05563-13.00301h-13.36937Zm12.86102,17.29531h-.40811l-.00015-.0009h.40826l.43167,.67421-.43167-.67332Z" />
      <polygon class="e" points="180.85772 98.77475 180.85772 92.19757 177.59929 92.19757 180.85772 98.77475" />
      <path class="e" d="M229.60095,74.97794c3.35614-2.21458,6.01094-4.80456,8.01327-7.95187h-8.01327v7.95187Z" />
      <rect class="e" x="308.68725" y="67.02547" width="2.23758" height="36.43025" />
      <path class="e" d="M372.67168,87.32077c0,2.84551-.10218,5.35757-3.81586,5.35757-3.71144,0-3.81123-2.51206-3.81123-5.35757v-20.2953h-13.93335v21.5482c0,7.13228,3.16984,11.64369,8.49059,13.84484v13.7426c0,1.60605,.09099,3.20971,.36843,4.68918l-.06205,.08209-5.66486-18.70717h-4.35522v30.9994h4.5372v-14.22471l-.02879-1.27499-.21539-3.12522,.0622-.08,5.60266,18.70493h4.29511v-29.55994c1.3474,.21539,2.77694,.33749,4.28422,.35749-2.62376,3.13418-3.434,8.94043-3.434,13.86707,0,5.92403,1.5028,13.39632,5.88458,15.33761h4.59493c.4806-.21941,.9072-.5242,1.30487-.87303-.39752,.34912-.82397,.65421-1.30472,.87362h3.62256v-4.47799c-.08101,.21569-.18438,.4051-.27373,.61123,.08935-.20628,.19272-.39584,.27356-.61182v-12.79196h-5.97124v5.7552h2.89463c0,2.13891-.36858,6.33254-2.68148,6.33254-3.35181,0-3.50038-7.11228-3.50038-10.31975,0-2.91865,.30399-10.56633,3.37836-10.3199,1.7358,0,2.09975,2.42788,2.3129,3.98721l3.5672-1.85695v-3.15627c-.61484-1.45052-1.42718-2.62775-2.4373-3.43419,.8635-.27091,1.67151-.60182,2.4373-.97945v-15.38641h7.51164v-19.55348h-13.93335v20.2953Z" />
      <polygon class="e" points="387.56906 78.86141 395.24507 78.52393 395.24507 86.58028 409.17723 86.58028 409.17827 86.58028 414.58449 86.58028 414.58568 67.02457 387.56906 67.02457 387.56906 78.86141" />
      <polygon class="e" points="18.61509 32.56068 14.43513 32.56068 14.43513 .27973 .00015 .27973 .00015 47.82067 18.61509 47.82067 18.61509 32.56068" />
      <rect class="e" x="128.53715" y=".27988" width="5.85117" height="47.54094" />
      <path class="e" d="M110.45711,32.37097c0-2.63223-.27534-5.22428-.61947-7.9165-2.9722-5.69968-7.06758-10.38647-12.07315-14.0759V47.81947h12.69262v-15.4485Z" />
      <polygon class="e" points="151.14308 47.81858 151.14515 47.81858 151.14515 .27779 151.14308 .27779 137.8711 .27779 137.86901 .27779 137.86901 47.81858 137.8711 47.81858 151.14308 47.81858" />
      <path class="e" d="M224.47337,32.37201c0-3.15194-.38857-6.24164-.82352-9.52017h.38842l11.67578,24.96867h6.69483c.00895-.50196,.01775-1.00841,.01775-1.52589,0-10.00003-2.27024-18.13744-6.23287-24.65372l-.0006-.00404c-1.43374-2.35413-3.07601-4.50811-4.9292-6.44731l-.00045-.0009c-5.15414-5.391-11.84015-9.1982-19.48261-11.65489V47.82052h12.69247v-15.4485Zm12.35283-5.7352h-.0003c-.02924-.22016-.05519-.446-.08443-.66675,.02924,.22074,.05534,.44659,.08472,.66675Z" />
      <path class="e" d="M289.0783,31.61451c0-8.06964-4.07122-11.97684-9.6894-13.61603l-3.00322-.88631c-1.01877-.31091-2.66373-.56421-2.66373-2.33011,0-1.95458,1.69375-2.52102,2.85675-2.52102,2.85913,0,5.42516,1.57485,7.70271,3.59166l3.58689-12.16775c-2.37063-1.87487-4.84999-3.07642-7.45824-3.68497h-7.82025c-4.09315,1.02827-7.83129,3.7493-10.04649,7.99413V24.77105c1.7625,2.65207,4.4662,4.26467,7.4472,4.95098l2.66373,.63302c1.20985,.31554,2.95445,.5042,2.95445,2.64774,0,2.14577-2.08215,2.83655-3.38953,2.83655-3.05425,0-5.91339-1.95472-8.28401-4.34931l-.67928-.69063-.71255,2.35235v12.92956c3.43385,1.58382,7.26522,2.49446,10.69251,2.49446,7.89575,0,15.84247-5.61087,15.84247-16.96126Z" />
      <polygon class="e" points="295.56863 47.82141 308.84059 47.82141 308.84059 19.73245 310.92498 19.85903 310.92498 .28061 288.25239 .28061 288.25239 20.17441 295.56863 19.73245 295.56863 47.82141" />
      <rect class="e" x="330.35911" y=".28227" width="13.18323" height="47.53855" />
      <path class="e" d="M379.09339,38.16647h26.76575c.95447-2.70311,1.48071-5.93507,1.48071-9.7645V.28122h-13.2742V26.76279c0,3.72063-.09546,6.99675-3.63373,6.99675-3.53603,0-3.63149-3.27613-3.63149-6.99675V.28122h-13.27405V28.40197c0,7.63887,2.0377,12.97197,5.56701,16.23048v-6.46598Z" />
      <polygon class="e" points="408.25585 .28061 408.25585 20.17441 415.56985 19.73245 415.56985 38.16796 419.52756 38.16796 419.52756 .28061 408.25585 .28061" />
      <path class="e" d="M60.99656,37.28956v-.0006l.00089,.00015V.27912h-13.2739v.00046h-.00119V36.40101h3.48502c3.20981,0,6.72601,.1,9.78919,.88855Z" />
      <path class="e" d="M208.24755,47.82052V2.49655c-4.20651-1.08841-8.65914-1.80143-13.2742-2.17682V45.74594c.07549,.64854,.12664,1.33275,.12888,2.07458h13.14533Z" />
      <path class="e" d="M164.6273,92.39057l-.16648-.19314,18.2307-25.17106h-39.01862v11.01292h11.39165c1.28084,0,2.45056-.19105,3.61611-.43108l.21972,.14226c-1.33201,1.45052-2.61718,2.80088-3.72487,4.39588l-15.11859,21.31028h1.51832v29.76874h3.84464c6.79685,0,9.19194-6.41479,9.19194-15.25297,0-8.92058-2.39509-12.82315-4.81912-14.51577h9.53158v29.76874h4.30854v-15.78838h.05758l3.96024,15.78838h4.54153l-4.54153-16.69229,3.67356-13.07645h4.53511v-11.2592h-7.67378c-1.17211,0-2.39076,.09538-3.55824,.19314Zm-14.31969,25.53958c0,3.86481-.95895,10.03541-4.42608,9.78674v-19.97991c3.55602,0,4.42608,6.24821,4.42608,10.19318Zm13.38279-1.85039h-.05758v-12.62314h3.32526l-3.26769,12.62314Z" />
      <path class="e" d="M45.25925,127.61823v-19.97976c.50625,0,.95255,.13822,1.35513,.36688v-5.65416c-.85693-.17328-1.58708-.17328-2.0465-.15119v-35.17527h-13.9335v35.20199h-.39736v30.99716h9.19641v-5.7552h-4.65698v-6.98795h4.04885v-5.7552h-4.04885v-6.74571h4.59493v-4.52245h1.27863v29.7665h4.05092c.68376,0,1.31411-.07538,1.91345-.18882v-5.60415l.00164-.00075v-.09941c-.40393,.21016-.85067,.3239-1.35678,.28748Z" />
      <path class="e" d="M200.76754,102.22611v-35.19975h-13.93335v36.43026h2.56155v12.54553l4.53496,9.15357v-6.15716l-.03103-1.2729-.21091-3.12731,.05773-.07792,5.6049,18.70494h4.29288v-30.99925h-2.87673Zm-6.58057,1.2317h4.73454l.34874,17.39218-5.08328-17.39218Z" />
      <path class="e" d="M240.63847,116.53202l.59038-1.9901-3.08526-4.61097,.0003-.00104-.27386-.40973-1.47504,5.59894v-7.80276l-11.6233-17.37665c-2.64807-3.8872-6.118-9.70659-6.118-9.70659,2.88805-.96408,3.50767-1.29738,5.88054-2.42579l-6.68154-10.78186h-13.36937v36.43025h.83454v29.7689h4.5372v-12.86763h4.17311v-5.75729h-4.17311v-6.61927h4.63043v-4.5247h1.30949v29.7689h9.28757v-5.7552h-4.75037v-25.2442h-2.53038v-15.16685l3.03425,2.71252,7.97792,12.45433h-3.18759v30.9994h4.53929v-29.7689h1.70477v29.7689h4.53498v-15.78628h.06218l4.17086,15.78628h4.78362l-4.78362-16.69259Z" />
    </g>
  </g>
  <g id="b">
    <g>
      <g>
        <polygon class="c" points="128.537 .6899 128.537 1.86725 132.24876 1.86725 128.537 11.16652 128.537 14.33786 133.98335 .6899 128.537 .6899" />
        <polygon class="c" points="134.85909 38.91009 134.38847 37.69242 128.537 22.55289 128.537 25.75856 133.14386 37.73272 128.537 37.73272 128.537 38.91009 134.38847 38.91009 134.85909 38.91009" />
        <path class="c" d="M112.74376,37.73272v-7.18079l-.017-.09717c-.18436-.54376-.38096-1.07542-.58233-1.6071l-.57741-1.50754v11.56997h3.24844l-.19645-1.17737h-1.87526Z" />
        <path class="c" d="M145.43882,39.40295c2.46699,0,4.28885-.71974,5.70633-1.80307,3.58898-2.74298,4.30824-8.05368,4.30824-11.65802,0-3.61839-.71926-8.94909-4.30824-11.70205-1.41748-1.08722-3.23935-1.81009-5.70633-1.81009-3.75574,0-6.07894,1.61082-7.56996,3.80421-1.96849,2.89581-2.44445,6.83615-2.44445,9.70793,0,2.86059,.47596,6.78615,2.44445,9.67136,1.49102,2.18503,3.81422,3.78973,7.56996,3.78973Zm-8.83783-13.46109c0-2.10294,.27684-4.83755,1.26787-7.20915,1.18047-2.82417,3.3897-5.12547,7.56996-5.12547,2.59288,0,4.39416,.92033,5.70633,2.2613,2.58005,2.6364,3.13165,7.01913,3.13165,10.07332,0,3.04149-.5516,7.40602-3.13165,10.03182-1.31218,1.33544-3.11345,2.2519-5.70633,2.2519-2.77501,0-5.88085-1.08244-7.56996-5.02218-.76475-1.78426-1.26787-4.09691-1.26787-7.26154Z" />
        <path class="c" d="M145.43882,33.2125c2.69043,0,3.09317-4.55664,3.09317-7.27065,0-2.71655-.40274-7.27304-3.09317-7.27304s-3.09317,4.55649-3.09317,7.27304c0,2.71401,.40274,7.27065,3.09317,7.27065Zm0-13.36631c1.41689,0,1.91897,3.28449,1.91897,6.09567,0,2.80878-.50208,6.09089-1.91897,6.09089-1.41182,0-1.91404-3.28211-1.91404-6.09089,0-2.81118,.50223-6.09567,1.91404-6.09567Z" />
        <path class="c" d="M170.62314,12.42971c-2.04023,0-3.94473,1.0366-5.25228,2.81611v-2.32563h-8.10276v25.99244h8.10276V22.84424c0-2.2625,.96075-2.2625,1.27609-2.2625,.29115,0,.5046,.08,.66957,.2524,.59187,.61912,.52162,2.25279,.4803,3.23119l-.00239,.08494c-.0097,.21358-.017,.403-.017,.56316v14.19919h8.0956V22.31019l.00477-.80601c.02431-2.6461,.05579-5.94029-1.76608-7.77799-.85156-.85944-2.02577-1.29648-3.48859-1.29648Zm4.07331,25.30301h-5.74243v-13.01928c0-.14808,.00731-.32524,.01462-.52182l.00477-.07776c.0534-1.24051,.1335-3.11224-.81025-4.09542-.39051-.40778-.90243-.61406-1.51621-.61406-1.55756,0-2.45268,1.25499-2.45268,3.43987v14.88848h-5.74959V14.09994h5.74959v3.83317h1.07948l.15289-.37136c.94852-2.4034,2.98638-3.95452,5.1965-3.95452,1.15481,0,2.02323,.31061,2.65405,.95154,1.47251,1.48335,1.44596,4.50813,1.42403,6.93809l-.00477,16.23585Z" />
        <path class="c" d="M179.85163,36.40937v2.50072h8.10038V19.79753h3.19029v-6.87496h-3.19029l-.00476-4.26767c-.01225-.9687-.02671-2.17518,.49729-2.70446,.20137-.20628,.4827-.30092,.88544-.30092,.33232,0,.5216,.08733,.93642,.31793l.63409,.34988,.24181,.13329V.27898h-1.17914V4.54978c-.20137-.05344-.40751-.07776-.63318-.07776-.71808,0-1.29787,.22091-1.72239,.65555-.87096,.87869-.85156,2.36205-.83695,3.54913l.00477,5.42325h3.18774v4.52261h-3.18774v19.11017h-5.7472V18.62255h-2.55216v-4.52261h2.55216V6.53555c0-3.21045,.51804-5.08248,1.7103-6.25657h-1.49521c-.93927,1.39559-1.39168,3.33612-1.39168,6.25657v6.38702h-2.55453v6.87496h2.55453v16.61184Z" />
        <path class="c" d="M201.20773,38.91009V1.0735c-.38545-.06015-.78819-.08777-1.1766-.14239V37.73272h-5.7472V.31793l-1.17659-.07762V38.91009h8.10039Z" />
        <path class="c" d="M208.2477,11.13682c.02759,.0006,.05027,.01612,.07786,.01612,1.32888,0,2.54828-.5563,3.45518-1.42902,.94434-.90856,1.54964-2.16115,1.54964-3.53315,0-.79108-.23045-1.57246-.60321-2.29862-.05608-.10956-1.98385-.78228-1.98385-.78228l.42795,.49316c.26476,.30643,.44883,.65914,.60947,1.01841,.22359,.49943,.37305,1.02408,.37305,1.56933,0,.55391-.14558,1.07363-.37305,1.55351-.61529,1.29663-1.94103,2.23115-3.45518,2.23115-.02759,0-.05027-.01537-.07786-.01597-2.04575-.04523-3.7019-1.75308-3.7019-3.86571,0-1.66053,1.05055-3.06612,2.67835-3.57838l.4445-.13986c-.63765-.15926-1.30725-.26703-1.95551-.40897-1.43926,.89974-2.34393,2.42907-2.34393,4.12721,0,2.76103,2.18492,4.99784,4.87848,5.04308Z" />
        <path class="c" d="M208.2477,12.92257h-3.94443v25.98752h8.09799V12.92257h-4.15356Zm2.97443,24.81015h-5.74467V14.09994h5.74467v23.63278Z" />
        <path class="c" d="M226.38474,14.09994h3.67563c-.42183-.40539-.86095-.79138-1.30097-1.17737h-3.14867l-2.90388,6.68316V8.43236c-.38111-.22867-.78683-.42629-1.17659-.64511v15.00848h1.07473l3.77976-8.69579Z" />
        <path class="c" d="M232.47395,16.60527c-.27326-.31687-.53251-.64793-.81606-.95466l-4.32942,7.82232-.07533,.13359,6.55998,14.1262h-6.29791l-3.14776-7.36901-1.76248-4.12572h-1.07473v11.49473h-5.74482V5.0504c-.38633-.15657-.78444-.29703-1.17659-.44571V38.91009h8.09799v-9.43852l1.76652,4.13275,2.268,5.30578h8.91793l-7.08636-15.25506,3.90101-7.04975Z" />
        <path class="c" d="M239.54571,37.73272v-8.7943c-.36903-1.02812-.73835-2.05428-1.1742-3.02149v12.99316h3.59539c-.05191-.41106-.1602-.77377-.22046-1.17737h-2.20073Z" />
        <polygon class="c" points="267.55637 34.38181 267.55637 28.89542 267.55637 22.11346 274.76399 22.11346 274.76399 16.53214 274.76399 13.45663 274.10261 13.45663 267.55637 13.45663 267.55637 6.26613 275.55231 6.26613 275.55231 .00016 274.26908 .00016 274.26908 4.97951 266.27059 4.97951 266.27059 14.74087 273.48061 14.74087 273.48061 20.82683 266.27059 20.82683 266.27059 28.22405 266.27059 33.50177 266.27059 37.30553 262.54332 37.30553 262.54332 38.58977 267.55637 38.58977 267.55637 34.38181" />
        <path class="c" d="M287.71601,39.04398c.26238,.01582,.49731,.07493,.76938,.07493,2.96056,0,5.31419-.99021,7.08324-2.78894,2.37122-2.41101,3.66147-6.31732,3.66147-11.65041,0-5.41116-1.39735-14.48802-10.74472-14.48802-.08651,0-.14767,.02822-.23282,.02972-.87798,.01612-1.66123,.13777-2.40122,.30554-2.14793,.48734-3.77454,1.52574-4.94725,2.92984-1.04562,1.25215-1.76637,2.75237-2.24608,4.32603-.72239,2.36937-.91986,4.88591-.91986,6.8969,0,8.94685,3.55481,13.97933,9.97786,14.36442Zm-7.80921-20.8607c.46001-1.48156,1.16078-2.87253,2.1703-4.01198,.85917-.9702,1.95954-1.73338,3.34659-2.19369,.83486-.27704,1.76801-.44629,2.82887-.46883,.08486-.00179,.14631-.03061,.23282-.03061,8.23134,0,9.45894,8.27086,9.45894,13.20139,0,4.63976-.96612,7.64843-2.3757,9.64942-1.89316,2.68729-4.6094,3.5033-7.08324,3.5033-.1335,0-.27237-.02493-.40691-.0294-4.2268-.14239-9.05455-2.58848-9.05455-13.12332,0-1.89352,.19285-4.27513,.88287-6.49628Z" />
        <path class="c" d="M288.48538,32.48426c.19527,0,.35202-.07403,.5255-.11657,2.39778-.58585,2.80051-4.96919,2.80051-7.68813,0-1.36799-.1068-3.16135-.5073-4.68933-.45271-1.72605-1.28339-3.1106-2.81871-3.1106-.08651,0-.15079,.04299-.23282,.0515-1.75684,.18299-2.54069,2.241-2.86586,4.45708-.16825,1.14826-.22732,2.32698-.22732,3.29135,0,2.91551,.43182,7.8047,3.32601,7.8047Zm-1.95447-9.79241c.18378-2.20548,.70479-4.18154,1.72164-4.45798,.07814-.0212,.14855-.07,.23282-.07,.70391,0,1.18869,.78198,1.51265,1.90532,.36932,1.28051,.52759,3.00925,.52759,4.61037,0,2.60326-.40274,5.5734-1.48714,6.32806-.16855,.11717-.35053,.19001-.55309,.19001-1.50653,0-2.04023-3.51032-2.04023-6.51807,0-.65331,.03089-1.32797,.08577-1.98771Z" />
        <path class="c" d="M309.85355,12.67495v-1.95666h-8.70447v27.87149h8.70447v-13.91022c0-2.07935,.0704-3.72272,.6414-4.8468,.11398-.22419,.27103-.40659,.43003-.58749v-1.71023l-.15438,.09716c-.81905,.50914-1.26845,1.27291-1.59081,2.12116-.1165,.30643-.26745,.58928-.33934,.92512-.26297,1.22901-.26775,2.6255-.26775,4.00109v12.62837h-6.13784V12.00492h6.13784v3.2118h1.1159l.17957-.31569c.32413-.54883,.68435-1.00438,1.05681-1.44798v-1.88621l-.20286,.18807c-.30086,.27912-.592,.58748-.86857,.92004Z" />
        <path class="c" d="M332.12802,12.58032h-.00492c-.52401-.3836-1.0674-.72586-1.62047-1.01721l-.14351-.07582v1.47873c.1872,.10836,.37246,.21717,.54131,.33046l-.54131,.98318v2.66058l2.22012-4.02497-.45121-.33494Z" />
        <path class="c" d="M332.27838,29.15604c0-2.12413-.54815-3.84288-1.68359-5.25816l-.23568-.29404v2.4946c.39483,.89766,.6432,1.88351,.6432,3.05761,0,1.32977-.25136,2.52445-.6432,3.62898v2.84387l.25029-.3845c1.09157-1.66277,1.66897-3.77003,1.66897-6.08835Z" />
        <path class="c" d="M343.54235,39.00635c.29845,.02673,.56217,.11255,.87571,.11255,1.61095,0,3.052-.32046,4.53661-1.0099l.36888-.17225v-8.42145l-1.00446,.69436c-.66959,.46122-1.27116,.67481-1.89704,.67481-1.44195,0-2.3311-.8075-2.8797-1.95875-.60532-1.26991-.79326-2.96104-.79326-4.50843,0-.84691,.10874-2.74685,.79326-4.27379,.28533-.6363,.67956-1.18618,1.20998-1.58217l.0003-.0003,.0006-.0003c.47672-.35569,1.03951-.6057,1.7707-.6057,.75207,0,1.1742,.16269,1.72237,.67242l1.07725,.98557V11.20383l-.38335-.16986c-1.31976-.57301-2.57155-.84004-3.93981-.84004-.0898,0-.1596,.02821-.24806,.03-.43152,.0091-.80816,.09538-1.20998,.14717-6.92053,.89228-9.49297,7.85247-9.49297,14.4686,0,6.79734,2.97041,13.57976,9.49297,14.16664Zm0-27.34488c.3969-.06015,.77905-.14151,1.20998-.1521,.08815-.00209,.15826-.03121,.24806-.03121,1.05771,0,2.02815,.1845,3.04217,.5778v4.89158c-.44152-.19419-.92182-.27912-1.51863-.27912-.6754,0-1.2464,.16837-1.7707,.40539l-.0003,.0003-.0006,.0003c-.45465,.20598-.86007,.47972-1.20998,.8284-1.47418,1.46962-2.07426,4.03555-2.07426,6.51449,0,3.67003,.89439,5.6452,2.07426,6.69165,.87974,.7805,1.91375,1.05975,2.8797,1.05975,.54817,0,1.08187-.11164,1.62051-.33986v5.27995c-1.17899,.49525-2.33873,.72584-3.6245,.72584-.32055,0-.57576-.09731-.87571-.12895-6.40831-.67541-8.21197-8.25562-8.21197-12.86599,0-5.98163,2.23012-12.2691,8.21197-13.17824Z" />
        <path class="c" d="M371.05076,20.79041l.00386-.71272,.00089-.1418c.02924-2.84029,.05832-6.37732-1.89227-8.35085-.91705-.92258-2.17851-1.39111-3.75052-1.39111-2.17373,0-4.21636,1.10213-5.62355,2.99327V.28047h-1.27608v15.82957h1.1839l.15528-.40539c1.01892-2.56848,3.20235-4.22648,5.56045-4.22648,1.23237,0,2.15912,.33018,2.83348,1.01469,1.58186,1.59008,1.54785,4.82859,1.52846,7.43588v.07179l-.00492,17.30501h-6.14263v-13.93933c0-.11896,.0097-.25494,.01462-.4054l.0097-.24522c.05817-1.32799,.14066-3.33315-.86365-4.38424-.42213-.43944-.97522-.66272-1.64003-.66272-1.67389,0-2.63464,1.34722-2.63464,3.69719v15.93972h-6.14263V.28047h-1.28085V38.59216h8.69956V21.36581c0-2.4131,1.02385-2.4131,1.35857-2.4131,.31055,0,.53864,.08508,.71329,.26703,.63558,.66287,.55309,2.40579,.50954,3.44733l-.00492,.09223c-.0097,.23062-.01462,.43451-.01462,.60691v15.22595h8.69973V20.79041Z" />
        <path class="c" d="M384.60715,10.71829l-.0534,16.85976v.27927c.00492,.8375,.01954,2.23578-.51908,2.78192-.1699,.16762-.38812,.24524-.67928,.24524-.31053,0-.53862-.08748-.72299-.27673-.69375-.72824-.60649-2.77237-.55801-3.88183,.01462-.29852,.02431-.56555,.02431-.78168V10.71829h-8.69956V27.31341c0,1.07677,.01566,2.72744,.3644,4.45409,.53131,2.63028,1.85617,5.43907,5.2396,6.67898l.09041,.0003v-.28031h8.74834c2.16074-.93782,3.65414-2.61729,4.51153-4.91083,.53549-1.43231,.90006-3.02716,.90006-4.93964V10.71829h-8.64633Zm7.36531,1.28424V28.316c0,1.80322-.2986,3.73167-1.1299,5.39175-1.17107,2.33847-3.43281,4.1269-7.70062,4.1269-4.18727,0-8.46672-1.2502-8.46672-10.52124V12.00253h6.14265v13.94171c0,.19911-.00986,.44435-.02926,.76228-.05817,1.46141-.15036,3.67301,.91705,4.78724,.42213,.44674,.97524,.67495,1.64973,.67495,.6405,0,1.1742-.21119,1.59141-.62391,.91705-.92735,.90243-2.59519,.88796-3.69479l.04848-15.84748h6.08923Z" />
        <path class="c" d="M409.97345,10.19153c-.5868,0-1.16003,.09403-1.7176,.24853-.31548,.08702-.61499,.22389-.91615,.35747-1.1393,.50586-2.17702,1.29604-2.9898,2.38967v-2.46891h-8.69956v27.44818h8.69956V21.36343c0-2.41071,1.02385-2.41071,1.35859-2.41071,.31053,0,.5386,.08508,.71327,.26703,.63558,.66287,.55311,2.40832,.50939,3.45211l-.00477,.09956c-.00968,.22583-.01462,.42733-.01462,.5948v14.80176h8.69971V20.78803l.0097-.90064c.01939-2.82566,.0437-6.3409-1.89719-8.30234-.91705-.92497-2.17851-1.39351-3.75052-1.39351Zm4.36194,9.72749l-.00492,17.08858h-6.13771v-13.6414c0-.15538,.00972-.3424,.01939-.55107v-.09717c.05817-1.33037,.14066-3.33793-.86857-4.38902l-.00388-.00284c-.41184-.42973-.97805-.66003-1.63121-.66003-1.67391,0-2.63466,1.34738-2.63466,3.69734v15.94211h-6.14263V12.00492h6.14263v4.10751h1.17912l.16005-.40778c.61531-1.55097,1.68001-2.70744,2.9267-3.42957,.30265-.17538,.59217-.3839,.91615-.49839,.5513-.19507,1.12901-.29852,1.7176-.29852,1.23237,0,2.15912,.33257,2.83348,1.0123,1.55993,1.5756,1.54755,4.73844,1.52816,7.31677-.0003,.03582,.0006,.07597,.0003,.1118Z" />
        <path class="c" d="M419.52756,14.04651l-.2722,.60451c-1.54295,3.4133-1.77102,7.98202-1.77102,10.3999,0,2.56356,.30563,6.24627,1.77577,9.22983l.26745,.54675v-3.62525c-.59501-2.2213-.76237-4.51723-.76237-6.15134,0-1.57739,.13529-4.40917,.76237-7.07467v-3.92974Z" />
        <polygon class="c" points="5.95126 22.21794 11.15506 22.21794 11.15506 14.21159 5.95126 14.21159 5.95126 7.4047 11.72516 7.4047 11.72516 .27988 0 .27988 0 1.03947 10.61167 1.03947 10.61167 6.29031 4.83777 6.29031 4.83777 15.32836 10.04157 15.32836 10.04157 21.10371 4.83777 21.10371 4.83777 36.50684 0 36.50684 0 37.62107 5.95126 37.62107 5.95126 22.21794" />
        <path class="c" d="M19.62909,37.84929h.45614v-12.83957c0-4.25811,.28625-6.12492,3.02023-6.12492,.24269,0,.45375,.03642,.72791,.08747l.65498,.12135v-7.96993l-.61858,.07284c-1.51384,.17732-2.76083,.98572-3.78453,2.45922v-1.53664h-6.4144v25.73019h5.95827Zm-4.84955-1.11184V13.22841h4.19696v2.97386h.99223l.14065-.32523c.91227-1.99801,1.93105-3.08074,3.26784-3.45704v5.36505c-.08726-.00716-.17705-.01209-.27177-.01209-1.92135,0-2.92715,.81541-3.47636,2.02577-.6311,1.39081-.65258,3.30956-.65258,5.211v11.72773h-4.19696Z" />
        <path class="c" d="M25.52426,37.84929h6.41187V12.1191h-6.41187v25.73019Zm1.10872-24.62088h4.19443v23.50904h-4.19443V13.22841Z" />
        <path class="c" d="M28.712,10.30319c2.13495,0,3.93981-2.2407,3.93981-4.89412,0-2.75282-1.7176-4.99115-3.82824-4.99115-2.2513,0-4.01499,2.15085-4.01499,4.89413,0,2.75282,1.75162,4.99114,3.90341,4.99114Zm.11157-8.77579c1.47506,0,2.71952,1.77695,2.71952,3.88168,0,2.05144-1.29547,3.78466-2.83109,3.78466-1.54054,0-2.79468-1.74053-2.79468-3.88168,0-2.12174,1.27607-3.78466,2.90626-3.78466Z" />
        <path class="c" d="M43.26317,23.1259v-1.1411c0-.27822-.01462-.63511-.04132-1.01408-.07338-1.04542-.29803-2.31265-.87394-3.16164-.36321-.53525-.85335-.91243-1.55934-.91243-.65615,0-1.11706,.39166-1.49773,.91243-.69256,.94825-1.01311,2.48833-1.01311,4.03019v1.28663h4.98543Zm-3.87671-1.10946v-.17717c0-1.32559,.29355-3.83332,1.40212-3.83332,1.00923,0,1.36587,2.14368,1.36587,3.97885l-2.76799,.03164Z" />
        <path class="c" d="M45.73031,35.74695c.94867-1.42261,1.55993-3.44225,1.81962-6.00103l.06296-.61182h-5.68412v.55361c0,.20598-.03565,.30613-.04848,.47674-.12619,1.71053-.80726,1.79785-1.09171,1.79785-.67317,0-1.01833-.80347-1.20538-1.79785-.17407-.92646-.21196-2.01771-.22598-2.7976h8.36246l.00268-.06852,.13081-3.29134c.04788-1.23707-.00641-2.39773-.13081-3.49569-.34054-3.00598-1.29905-5.45369-2.829-7.04498-.21405-.22268-.4721-.32403-.70136-.50733-1.00833-.80541-2.12063-1.32782-3.32825-1.32782-1.63899,0-2.94386,.63808-4.01587,1.63859-1.18301,1.10453-2.05785,2.67849-2.64942,4.53932-.73939,2.32473-1.07605,5.03248-1.07605,7.68604,0,1.8283,.17661,3.32195,.42303,4.66933,.36036,1.96993,.91226,3.5333,1.60572,4.66575,1.9224,3.13866,4.6798,3.50465,5.82671,3.50465,1.42957,0,2.62435-.45032,3.60017-1.28872,.42362-.3639,.81815-.77959,1.15227-1.29917Zm-4.75244,1.47843c-2.04724,0-3.43132-1.00617-4.42802-2.39519-.95807-1.33424-1.54994-3.01194-1.87317-4.66575-.36888-1.88725-.44316-3.68182-.44316-4.66933,0-2.6852,.35814-5.41953,1.13482-7.68604,.72105-2.10413,1.82649-3.75854,3.4097-4.53932,.62751-.30957,1.30247-.52928,2.08572-.52928,.66571,0,1.30039,.20762,1.90688,.52928,.46345,.24582,.91555,.54107,1.32217,.96377,1.87781,1.95414,2.81902,5.40863,2.65165,9.72988l-.0898,2.29399h-8.42301l.017,.92736c.01268,.82914,.03789,1.94129,.21375,2.9797,.26073,1.53754,.86215,2.90729,2.32618,2.90729,.94375,0,2.07917-.50002,2.23191-2.82818h3.35524c-.26937,2.09264-.79816,3.73854-1.57454,4.89889-.06087,.09478-.15827,.12568-.22316,.21404-.87976,1.19946-2.06574,1.8689-3.60017,1.8689Z" />
        <path class="c" d="M75.2087,21.9848c0-1.52933-.24269-5.08815-2.47459-5.08815-1.85095,0-2.51084,2.55385-2.51084,4.94263v1.28663h4.98543v-1.1411Zm-3.87671,.03164v-.17717c0-1.32559,.29355-3.83332,1.40212-3.83332,1.00684,0,1.36349,2.14368,1.36349,3.97885l-2.76561,.03164Z" />
        <path class="c" d="M72.92339,38.33484c1.72028,0,3.10256-.65182,4.16057-1.86501,.20107-.23061,.41124-.44644,.5871-.72048,.95344-1.42246,1.56471-3.44225,1.82186-6.00342l.0631-.61182h-5.68171v.55361c0,2.27459-.82726,2.27459-1.1402,2.27459-1.30024,0-1.40212-2.96895-1.43134-4.59544h8.36006l.13589-3.35986c.07906-2.03786-.11978-3.86556-.50193-5.50206-.46941-2.0116-1.24968-3.69615-2.36078-4.90292-.0364-.0394-.06011-.09702-.0971-.13569-1.15466-1.20155-2.54724-1.83515-4.02946-1.83515-5.70842,0-7.74149,7.16139-7.74149,13.86395,0,11.91236,6.01167,12.83972,7.85545,12.83972Zm-.11396-25.59436c1.17405,0,2.29008,.51719,3.2289,1.49304,.34262,.3566,.61872,.81513,.89766,1.26754,.5361,.869,.96672,1.88009,1.25758,3.06209,.38782,1.5759,.57338,3.38136,.49402,5.40026l-.0898,2.29399h-8.42555l.02193,.92736c.02909,2.05622,.07995,5.88699,2.53993,5.88699,.94375,0,2.07663-.50002,2.22952-2.82818h3.35763c-.24298,1.88561-.72657,3.35225-1.38527,4.48753-.0713,.12314-.1156,.29733-.19167,.41136-.88796,1.38141-2.17373,2.08294-3.82093,2.08294-6.26151,0-6.74674-8.9773-6.74674-11.73026,0-6.16612,1.74191-12.75464,6.63278-12.75464Z" />
        <path class="c" d="M87.43563,21.93629c0-.84959,.11411-2.2722,.87588-2.2722,.14066,0,.24254,.0412,.33472,.13344,.53624,.556,.47314,2.44713,.43913,3.42778-.00477,.21374-.01208,.40554-.01208,.56331v14.06067h6.41425V21.40462l.00492-.7987c.01447-2.42296-.0364-5.28906-1.11662-7.13812-.17094-.29239-.30011-.62658-.53072-.85839-.64527-.64809-1.48221-.97826-2.48653-.97826-1.49937,0-2.91118,.90542-3.92295,2.47131v-1.98338h-6.41425v25.73019h6.41425v-15.913Zm-1.10857,0v14.80355h-4.19696V13.22841h4.19696v3.80167h1.03831l.12366-.39077c.71806-2.36699,2.23922-3.89631,3.86955-3.89631,.70837,0,1.26386,.2112,1.70059,.64809,.58471,.58809,.88274,1.55336,1.06682,2.63192,.24476,1.43186,.26505,3.0894,.25535,4.58052l-.00119,7.1796-.00119,8.9567h-4.19711v-12.95122c0-.14569,.00492-.32285,.01224-.52197l.00237-.07776c.00582-.17807,.00701-.38928,.01119-.58809,.0258-1.25201-.02208-2.80134-.76326-3.57032-.30325-.31554-.68406-.47586-1.13288-.47586-.90496,0-1.98445,.5875-1.98445,3.38167Z" />
        <path class="c" d="M105.4608,21.45806l-.16737,.24762,.16497-.24762-.00239-.00239c-1.01415-.67496-1.74668-1.16035-1.76608-1.95666,0-.57048,.15274-1.24782,.87573-1.24782,.51192,0,.95822,.21852,1.49445,.73078l.16588-.14777c-.41185-.54868-.8128-1.10767-1.24939-1.63202-.13738-.0206-.27118-.06284-.41094-.06284-1.20567,0-1.98445,.92975-1.98445,2.37414,.03878,1.39349,1.11841,2.10727,2.26592,2.867,1.68836,1.12647,3.79184,2.52729,3.79184,6.77315,0,4.90368-2.17373,8.07174-5.54106,8.07174-1.6812,0-3.55646-.88601-5.0533-2.37907l1.81948-3.80406c.6502,.63361,1.44582,1.19931,2.48175,1.19931,1.04324,0,2.09856-.89094,2.09856-2.5879,.03386-1.58515-1.0941-2.37176-2.29499-3.20686-1.67644-1.16289-3.76277-2.61207-3.76277-7.04496,0-2.70923,1.06263-4.80904,2.99129-5.91118l.07667-.04403c-.28236-.2627-.59217-.49584-.88214-.75108-1.36095,.85706-2.28978,2.16951-2.80812,3.77675-.28863,.89616-.4888,1.85442-.4888,2.92954,0,1.35857,.19048,2.45773,.4888,3.38688,.80249,2.49773,2.44939,3.6651,3.75425,4.5708,1.20821,.83513,1.83648,1.3159,1.8147,2.27952,0,.98079-.49731,1.49544-.98745,1.49544-.78115,0-1.42882-.54615-2.22221-1.42977l-.55548-.61182-1.80381,3.76794-1.0492,2.1919,.25715,.27912c.24686,.26643,.5255,.48031,.79205,.71526,1.61751,1.4244,3.53841,2.29011,5.33358,2.29011,4.0393,0,6.64963-3.60495,6.64963-9.18359,0-4.84306-2.47683-6.49149-4.28675-7.69558Z" />
        <path class="c" d="M63.88165,37.84929V.29106l-1.10872-.02417V36.73984h-2.86256l-.03699,.29554h-.02133c.72537,.14329,1.47179,.30658,1.98938,.81392h2.04022Z" />
        <path class="c" d="M52.68721,36.44549l-.20525-.2348c-2.07917-2.37906-2.63463-8.19322-2.63463-11.25202,0-2.0392,.21836-12.21566,4.52451-12.21566,1.33904,0,2.44774,1.13364,3.04694,3.11463l.11887,.39315h1.04085V.27898h-1.11111V13.38379c-.80309-1.13856-1.87541-1.75262-3.09555-1.75262-5.08492,0-5.63324,9.31955-5.63324,13.32751,0,3.83571,.67898,8.7955,2.53098,11.44443,.46001,.0003,.94733,.03642,1.41763,.04239Z" />
        <path class="c" d="M56.47995,17.72445c-2.01353,0-2.43566,3.88168-2.43566,7.13706,0,4.76784,.84426,7.18587,2.51085,7.18587,2.08646,0,2.39687-4.50335,2.39687-7.18587,0-2.6655-.32025-7.13706-2.47206-7.13706Zm.07519,13.21108c-.69869,0-1.40212-1.87905-1.40212-6.07402,0-3.43748,.57008-6.02776,1.32693-6.02776,.77639,0,1.36349,2.59029,1.36349,6.02776,0,3.58077-.67928,6.07402-1.2883,6.07402Z" />
        <path class="c" d="M58.57597,36.81088v-2.85058h-1.00431l-.14066,.34957-.00254,.00478c-.33472,.87153-.73746,1.56336-1.19837,2.05383l-.16766,.17837c.4533,.03253,.87185,.06284,1.32098,.11135,.0279-.03761,.05608,.00373,.08398-.03478v.04582c.37723,.04179,.73747,.08642,1.10857,.14165Z" />
        <path class="c" d="M20.21858,87.19523c0-4.14631-3.71174-4.14631-5.70588-4.14631h-1.28831v8.26846h1.31247c.17348,0,.39215-.0003,.63961-.00821,1.13782-.03552,2.89061-.26792,4.00321-1.38425,.60618-.60824,1.0389-1.45544,1.0389-2.72969Zm-5.04211,2.81373c-.22598,.0106-.39065,.0509-.63961,.0509h-.0631v-5.75581h.03893c3.37449,0,4.45651,.70153,4.45651,2.89118,0,1.60903-.84813,2.44222-2.74174,2.72969-.311,.04732-.67928,.06672-1.05099,.08403Z" />
        <path class="c" d="M24.0759,81.02913v20.31948l-5.7017-7.84545-.45063-.61988c1.77369-.41062,3.04529-1.49425,3.78945-2.95835,.43063-.84706,.73015-1.7874,.73015-2.88493,0-4.04451-2.59333-6.01088-7.93048-6.01088h-3.51052v20.76338h3.47159v-8.00859l5.55315,7.88232,.0874,.12627h3.96159v.00239h3.47398v-20.76577h-3.47398Zm-3.31393,19.5084l-4.95814-7.03437-.62737-.89004-.36052-.51168-.08741-.12612h-1.50415v8.5622h-.97283v-18.25088h2.26114c4.62148,0,6.6811,1.46634,6.6811,4.75335,0,1.15633-.36604,2.10653-.93524,2.88493-.76177,1.04139-1.93105,1.73964-3.49456,1.87307l-1.11111,.09224,1.17241,1.61291,5.11326,7.03437h-1.17659Zm5.53852,0h-.97283v-18.25088h.97283v18.25088Z" />
        <path class="c" d="M29.02986,81.02913v20.76577h11.59867v-3.2724h-8.12961v-6.40404h7.88946v-3.27478h-7.88946v-4.53963h8.12961v-3.27492h-11.59867Zm10.34675,1.25513v.76228h-8.12708v7.05213h7.88947v.76228h-7.88947v8.9167h8.12708v.75989h-9.09738v-18.25326h9.09738Z" />
        <path class="c" d="M128.47391,81.02913v12.24984l.00239,.30345c.00239,.88124,.06235,2.39101,.02014,2.58803l.04206,2.06965,.23866-.32927c.95823-1.31827,.95344-2.99089,.94852-4.33334l-.00239-11.29084h.98016v11.58459c0,1.91293-.11651,3.4933-1.57695,4.97412-.15587,.16329-.36873,.33569-.588,.51226v1.55858l.16095-.10448c.49253-.31793,.93644-.6869,1.31978-1.09229,1.78802-1.80382,1.93358-3.71675,1.93358-5.84819v-12.84211h-3.4789Z" />
        <path class="c" d="M149.01721,90.82675v4.40395l-1.80978-1.85322-8.01401-8.20532-5.74138-5.87864v22.50138h3.47636v-14.1262l2.26502,2.31593,6.03987,6.17552,7.13574,7.29647,.12216,.12508v-22.55257h-3.47398v9.79762Zm1.25178-8.5401h.97282v18.22893l-5.27346-5.39145-6.77493-6.92615-3.51679-3.59541v15.93495h-.97522v-18.17072l4.49201,4.59843,7.27775,7.45036,3.28603,3.36404,.51179,.52197v-16.01495Z" />
        <path class="c" d="M166.63963,83.52969c-2.49145-2.07562-5.07269-2.50057-8.18286-2.50057h-4.38371v20.76338h4.32793c3.27514,0,5.80776-.4369,8.29936-2.60729,2.07752-1.81218,3.20922-4.22826,3.39552-6.9878,.01715-.25673,.07607-.49823,.07607-.76108,0-1.96024-.50133-3.7054-1.36975-5.23264-.56413-.99199-1.25311-1.91024-2.16255-2.67401Zm2.28292,7.90665c0,.26494-.05489,.50465-.07369,.76108-.17779,2.40489-1.14213,4.44827-2.96608,6.03864-2.21983,1.92757-4.42265,2.30385-7.4818,2.30385h-3.07855v-18.25565h3.13434c2.92089,0,5.17712,.36896,7.38231,2.20906,.93972,.7878,1.65033,1.74247,2.16553,2.81118,.59128,1.22692,.91794,2.60848,.91794,4.13184Z" />
        <path class="c" d="M165.13802,85.09051c-1.95297-1.69441-4.05153-2.04159-6.60115-2.04159h-2.2416v16.72871h2.2416c2.61272,0,4.75736-.37151,6.7175-2.18249,1.54026-1.40589,2.42418-3.3012,2.61674-5.38071,.02491-.26927,.08101-.52958,.08101-.80481,0-1.11574-.23494-2.18205-.62441-3.17075-.47851-1.21439-1.20418-2.30533-2.18969-3.14836Zm-.72537,11.57488v.00239c-1.66912,1.53918-3.55661,1.85472-5.87578,1.85472h-.99222v-14.21845h.99222c2.2683,0,4.11925,.29376,5.78598,1.73577,1.03652,.889,1.74117,2.1007,2.09975,3.44927,.16393,.61809,.27774,1.25543,.27774,1.92054,0,.29867-.05339,.58331-.08769,.87303-.19988,1.69516-.94033,3.23419-2.2,4.38275Z" />
        <path class="c" d="M202.39638,82.71159c-.55757,0-1.09947,.06433-1.62868,.16284-4.0769,.75869-7.17529,4.2917-7.17529,8.53757s3.09839,7.77903,7.17529,8.53772c.52921,.09851,1.07112,.16284,1.62868,.16284,.72269,0,1.41465-.11076,2.08707-.2736,3.84703-.93199,6.71929-4.34364,6.71929-8.42697s-2.87226-7.49484-6.71929-8.42682c-.67242-.16284-1.36438-.2736-2.08707-.2736Zm7.55698,8.70042c0,3.38718-2.3214,6.21985-5.46991,7.1184-.6672,.19061-1.35827,.32464-2.08707,.32464-.5604,0-1.1029-.06972-1.62868-.18449-3.38271-.73705-5.92338-3.7057-5.92338-7.25856s2.54067-6.52137,5.92338-7.25856c.52578-.11463,1.06828-.18449,1.62868-.18449,.7288,0,1.41987,.13419,2.08707,.32479,3.14851,.89839,5.46991,3.73122,5.46991,7.11825Z" />
        <path class="c" d="M204.48345,80.89957c-.67719-.12717-1.37229-.20538-2.08707-.20538-.55757,0-1.09291,.08194-1.62868,.16016-5.306,.77422-9.39989,5.20189-9.39989,10.582,0,5.35593,4.09389,9.7651,9.39989,10.53618,.53577,.07791,1.07112,.15986,1.62868,.15986,.71478,0,1.40988-.07822,2.08707-.20479,5.08567-.95019,8.94404-5.28742,8.94404-10.49125,0-5.22727-3.85837-9.5827-8.94404-10.53677Zm0,19.7502c-.67391,.14225-1.3696,.22762-2.08707,.22762-.55757,0-1.09617-.07194-1.62868-.15912-4.61404-.75465-8.14798-4.61573-8.14798-9.28193,0-4.68799,3.53394-8.56698,8.14798-9.32507,.53251-.08732,1.07112-.15957,1.62868-.15957,.71747,0,1.41316,.08584,2.08707,.22883,4.39132,.93154,7.69214,4.72261,7.69214,9.25582,0,4.51231-3.30082,8.28607-7.69214,9.21343Z" />
        <path class="c" d="M310.73659,81.02913h-3.50306v20.76577h3.46905v-8.00621l.2224,.31375v-2.12712h-1.46924v8.5622h-.98014v-18.25088l.21166,.0006,2.23772,.00582v-1.25663h-.0719c-.03401-.00478-.07279-.00731-.1165-.00731Z" />
        <polygon class="c" points="309.45574 91.31738 310.92498 91.31738 310.92498 90.04926 310.69781 90.05986 310.69781 84.30405 310.92498 84.30615 310.92498 83.05101 309.45574 83.04892 309.45574 91.31738" />
        <path class="c" d="M342.5176,80.97793c-.62411-.10657-1.21807-.28374-1.88885-.28374-4.55271,0-8.65241,2.84058-10.26874,6.97153v7.59723c1.61945,4.06975,5.71543,6.86943,10.26874,6.86943,.63498,0,1.25848-.18478,1.88885-.30016,1.56663-.28643,3.10314-.79377,4.42844-1.7268l.26193-.1918v-4.5032l-1.05771,1.03647c-1.0495,1.02572-2.31557,1.72605-3.63267,2.09846-.64977,.18389-1.30757,.31225-1.96657,.31225-4.05138,0-7.47686-3.40837-7.47686-7.44558s3.40117-7.44543,7.42346-7.44543c.6845,0,1.35857,.12747,2.01997,.30957,1.34497,.36987,2.61136,1.06781,3.62297,2.09129l1.0674,1.07542v-4.52738l-.25715-.18449c-1.34186-.98542-2.84108-1.48186-4.43322-1.75307Zm3.4483,3.57614c-1.03682-.77019-2.22368-1.21812-3.4483-1.50604-.66675-.15687-1.33248-.33405-2.01997-.33405-4.70158,0-8.67046,3.98362-8.67046,8.69803,0,4.71694,3.99319,8.70057,8.72386,8.70057,.6614,0,1.31397-.17896,1.96657-.33584,1.20938-.29076,2.39239-.74407,3.4483-1.52604v1.00497c-1.04861,.68943-2.23562,1.08453-3.4483,1.33454-.62769,.12926-1.25507,.28464-1.88885,.28464-5.39056,0-9.78173-4.20946-9.78173-9.38508,0-5.2607,4.39117-9.53808,9.78173-9.53808,.66989,0,1.27295,.14808,1.88885,.26674,1.22669,.23673,2.39209,.62212,3.4483,1.34275v.99288Z" />
        <path class="c" d="M360.94398,88.94801h-8.97133v-7.91889h-3.46918v20.76577h3.46918v-9.57449h8.97133v9.57449h3.4692v-20.76577h-3.4692v7.91889Zm1.24699-6.66375h.98014v18.25326h-.98014v-9.57449h-11.4604v9.57449h-.98492v-18.25326h.98492v7.91889h11.4604v-7.91889Z" />
        <path class="c" d="M377.94054,93.57271c.0049,1.37156,.00968,2.78685-.83458,3.77242-.78593,.92004-2.13971,1.51246-3.44487,1.51246-1.37305,0-2.81903-.66272-3.52262-1.60948-.75192-1.01482-.75192-2.46654-.75192-3.74824v-12.47075h-3.46443v12.84211c0,2.15324,.1602,4.23856,2.14942,6.09567,1.41689,1.35469,3.50799,2.16548,5.58956,2.16548,2.03813,0,3.99468-.76616,5.43215-2.07683v-1.81157l-.28415,.34658c-.06802,.08254-.13589,.16747-.21837,.2524-1.23237,1.29155-3.02769,2.03189-4.92963,2.03189-1.77102,0-3.53709-.68212-4.73068-1.82546-1.63034-1.51486-1.7613-3.17045-1.7613-5.17816v-11.58459h.97522v11.21069c-.00477,1.40081-.01447,3.14866,.99476,4.49841,1.07217,1.46142,3.04693,2.11683,4.52201,2.11683,1.6594,0,3.3867-.76466,4.39593-1.94935,.66675-.78198,.92361-1.69591,1.03623-2.62266,.08055-.66437,.09636-1.33499,.09429-1.9704v-11.28352h.9752v4.2923h1.24699v-5.54982h-3.46918v12.54359Z" />
        <polygon class="c" points="398.47905 86.58028 399.72604 86.58028 399.72604 82.28665 400.70126 82.28665 400.70126 86.58028 401.94825 86.58028 401.94825 81.02913 398.47905 81.02913 398.47905 86.58028" />
        <polygon class="c" points="382.91387 79.29591 382.91387 86.57894 384.16086 86.57894 384.16086 82.36919 386.60503 84.87155 388.30994 86.57894 390.06647 86.57894 386.60503 83.07414 382.91387 79.29591" />
        <polygon class="c" points="385.1361 86.57894 386.60503 86.57894 386.60503 86.10385 385.1361 84.60019 385.1361 86.57894" />
        <path class="c" d="M403.69986,86.43789l-.07831,.14238h1.46626c1.77786-2.85251,4.93263-4.63096,8.31114-4.63096,.36381,0,.74238,.0194,1.15958,.06059l.0261,.0027v-1.25469c-.41914-.04135-.81246-.06373-1.18569-.06373-4.05138,0-7.76803,2.2019-9.69909,5.74371Z" />
        <path class="c" d="M406.2374,86.4064l-.12468,.17388h1.6418c1.44314-1.65141,3.46339-2.61131,5.61534-2.61131,.36381,0,.73746,.02926,1.1742,.09477l.04057,.00568v-1.26872c-.45032-.05851-.83978-.08911-1.21477-.08911-2.80931,0-5.47304,1.38126-7.13247,3.6948Z" />
        <path class="c" d="M299.79022,83.95956c-1.16244-.55928-2.4503-.90094-3.82796-.90094-4.85447,0-8.80397,3.90123-8.80397,8.69818s3.9495,8.70057,8.80397,8.70057c1.37766,0,2.66552-.34166,3.82796-.90124,2.93489-1.4129,4.9784-4.36305,4.9784-7.79933s-2.04352-6.38523-4.9784-7.79724Zm0,14.18008c-1.12693,.65899-2.42537,1.06259-3.82796,1.06259-4.16534,0-7.55206-3.34031-7.55206-7.44543s3.38672-7.44304,7.55206-7.44304c1.40259,0,2.70102,.4036,3.82796,1.06244,2.21953,1.29752,3.72664,3.65779,3.72664,6.3806s-1.50711,5.08427-3.72664,6.38284Z" />
        <path class="c" d="M299.79022,81.74692c-1.19719-.43495-2.477-.70556-3.82796-.70556-4.51871,0-8.40124,2.6652-10.10332,6.46195-.58889,1.31365-.92523,2.75773-.92523,4.2802,0,1.51575,.33634,2.95344,.92523,4.26111,1.70208,3.78003,5.58462,6.43493,10.10332,6.43493,1.35096,0,2.63077-.2697,3.82796-.70286,4.19247-1.51665,7.20062-5.40653,7.20062-9.99318,0-4.60768-3.00814-8.51398-7.20062-10.03659Zm0,18.71926c-1.17661,.48494-2.46969,.75586-3.82796,.75586-5.39056,0-9.77681-4.2338-9.77681-9.43852,0-5.23159,4.38625-9.48716,9.77681-9.48716,1.35827,0,2.65135,.27255,3.82796,.75988,3.49469,1.44814,5.95124,4.81338,5.95124,8.72728,0,3.89393-2.45654,7.24185-5.95124,8.68267Z" />
        <polygon class="c" points="216.17117 84.57586 216.17117 100.5108 215.19595 100.5108 215.19595 82.34008 228.33039 95.78909 228.55995 95.60281 225.64085 91.23887 213.94657 79.2668 213.94657 101.76833 217.4207 101.76833 217.4207 87.64198 217.80181 88.032 223.36823 93.72406 231.81898 102.36552 231.91118 102.45777 233.12326 102.42493 232.02305 100.78022 216.17117 84.57586" />
        <polygon class="c" points="183.36692 90.76392 186.83419 87.40227 193.40806 81.02913 188.61682 81.02913 186.83419 82.78159 180.99674 88.52083 180.99674 81.02913 177.52754 81.02913 177.52754 92.02577 178.77692 94.61843 178.77692 94.5744 178.77692 92.19772 178.77692 82.28665 179.74736 82.28665 179.74736 91.50918 186.83419 84.53855 189.12382 82.28665 190.31249 82.28665 186.83419 85.65771 181.82399 90.51391 181.61533 90.71779 186.83419 96.33314 190.74193 100.53752 189.38336 100.53752 186.83419 97.74814 180.95305 91.3126 180.05031 92.19772 179.74736 92.49475 179.74736 96.53315 179.74736 96.51032 180.99674 99.0982 180.99674 93.21583 186.83419 99.60375 188.74778 101.69788 188.83758 101.7949 193.61672 101.7949 186.83419 94.49544 183.36692 90.76392" />
        <path class="c" d="M48.40866,81.12628l-.02879-.00118c-.6499-.06344-1.35499-.09597-2.15703-.09597h-4.38371v20.76577h3.47159v-17.48845h.99222c.68898,0,1.35364,.04373,2.03786,.13836,.01446,.00209,.02445,.00821,.03907,.0103,1.53323,.2115,2.68282,.69972,3.71144,1.58709,1.50907,1.29155,2.37272,3.24822,2.37272,5.36981,0,.50988-.06802,1.04632-.20629,1.63873l-.01551,.06703h1.2658c.13647-.62809,.20777-1.17528,.20777-1.70575,0-2.48818-1.02385-4.79202-2.80931-6.32389-1.26146-1.08751-2.64673-1.67739-4.49051-1.90561-.01238-.00149-.02372-.00091-.0361-.00254-.70688-.08643-1.38765-.13105-2.07693-.13105h-2.24159v17.4886h-.97284v-18.25088h3.13434c.82964,0,1.50653,.02911,2.12764,.08986,.0112,.00119,.0185,.00552,.02938,.00672,2.14703,.21911,3.71458,.84929,5.22529,2.11264,2.01846,1.69441,3.08586,4.09527,3.08586,6.94286,0,.50989-.0534,1.02691-.16975,1.62412l-.01074,.05493h1.26101c.11306-.61839,.17124-1.15767,.17124-1.67905,0-3.23104-1.22268-5.96699-3.53706-7.90903-1.7079-1.42514-3.55886-2.16787-5.99706-2.40341Z" />
        <polygon class="c" points="61.29892 81.02913 58.45962 81.02913 58.45962 93.11776 59.7114 93.11776 59.7114 82.28665 68.81368 82.28665 68.81368 83.04892 60.68422 83.04892 60.68422 90.1012 61.29892 90.1012 67.95735 90.1012 68.57115 90.1012 68.57115 90.86348 68.33487 90.86348 61.29892 90.86348 60.68422 90.86348 60.68422 93.11776 61.29892 93.11776 61.93599 93.11776 61.93599 92.121 68.3744 92.121 69.82291 92.121 69.82291 88.84368 65.29421 88.84368 61.93599 88.84368 61.93599 88.71979 61.93599 84.30405 70.06306 84.30405 70.06306 81.02913 62.68687 81.02913 61.29892 81.02913" />
        <path class="c" d="M73.62937,93.02164c.4175-.01582,.83695-.02821,1.24938-.05254v-5.3004l4.71918,4.82575c.5152-.07403,1.05189-.11463,1.55814-.2024l-7.5267-7.68948v8.41907Z" />
        <path class="c" d="M75.82697,83.82239l-4.4222-4.52649v13.81917c.42751-.0006,.82934-.04373,1.25177-.05284v-10.69305l2.00473,2.0495,.67631,.69137,5.55492,5.67879,1.30278,1.33215,.97031-.23225v.02552c.15407-.03314,.28668-.09583,.43942-.13045l-.43942-.44972-7.33862-7.5117Z" />
        <path class="c" d="M86.96995,90.78541c.41394-.12687,.84336-.2327,1.24938-.37047v-8.1283h.97283v7.83963c.4184-.15284,.84233-.29554,1.25177-.45943v-8.63773h-3.47398v9.75629Z" />
        <path class="c" d="M98.26537,82.71159c-2.20521,0-3.93502,1.60455-3.93502,3.65346,0,.45151,.11917,.87452,.32233,1.26751,.36187-.19537,.76759-.33657,1.1208-.54196-.12977-.23703-.19376-.4739-.19376-.72556,0-.51226,.17467-1.0002,.50223-1.40559l.21837-.2124,.15796,.24643-.15796-.24643,.21837-.2124c.48269-.36658,1.0941-.5657,1.74668-.5657,.61739,0,1.08992,.14568,1.51982,.38823,.35454-.27315,.73819-.51405,1.08171-.79929l-.07607-.05493c-.7303-.53167-1.55516-.79138-2.52546-.79138Z" />
        <path class="c" d="M98.31624,80.69418c-3.53946,0-6.2105,2.40579-6.2105,5.59564,0,.84332,.19436,1.59396,.56159,2.30235,.38126-.18001,.76326-.35882,1.13631-.54928-.28474-.53406-.44614-1.10423-.44614-1.75307,0-2.81849,2.55469-4.33813,4.95873-4.33813,1.14899,0,2.24012,.37779,3.16178,1.07782,.31831-.27643,.60097-.58988,.90944-.87691l-.02938-.02373c-1.16943-.93945-2.56678-1.4347-4.04184-1.4347Z" />
      </g>
      <path class="c" d="M277.88134,84.30405h6.85337v-3.27492h-14.26717l-7.92511,7.78843v1.76994l.33681-.30494,8.09769-7.99829h1.19121l-8.49342,8.23203-.00401,.00359-.20467,.20031,1.4084,1.51515,7.71821,8.30219h-1.35618l-6.77329-7.37186-1.92076-2.06621v1.70963l.90006,1.07557,7.15602,7.81321,.0898,.09702h4.13387v-.00239h3.05918v-9.67151h6.64484v-3.27732h-6.64484v-4.53963Zm-3.47653-1.62858v17.97115l-.18407-.19806-9.00072-9.68703,8.6429-8.37772,.54189-.52525v.8169Zm4.55525,7.42573h4.31421v.76228h-6.64471v9.67643h-.9752v-18.25565h7.83099v.76466h-6.85579v7.05228h2.3305Z" />
      <g>
        <path class="c" d="M156.1094,44.51258c-7.05654,0-12.79912,5.8885-12.79912,13.1275,0,7.20349,5.74258,13.06303,12.79912,13.06303,7.05431,0,12.79465-5.85953,12.79465-13.06303,0-7.23899-5.74034-13.1275-12.79465-13.1275Zm0,21.93912c-4.73708,0-8.58829-3.96706-8.58829-8.84266,0-4.87785,3.85121-8.84714,8.58829-8.84714s8.59037,3.96929,8.59037,8.84714c0,4.87561-3.85344,8.84266-8.59037,8.84266Z" />
        <polygon class="c" points=".00119 70.26652 3.30647 70.26652 3.30647 58.9315 10.49606 58.9315 10.49606 54.68458 3.30647 54.68458 3.30647 49.83121 10.72697 49.83121 10.72697 45.58428 .00119 45.58428 .00119 70.26652" />
        <path class="c" d="M26.68683,45.58444v23.24932l-6.14203-9.09372c2.91223-.86631,4.74573-3.49614,4.74573-6.94138,0-4.78665-2.94326-7.21439-8.75028-7.21439h-3.96218v24.61776h4.08882v-8.96267l5.61594,8.57399,.25074,.38868h8.23969v-24.61776h-4.08644v.00016Zm-10.01994,10.51513v-6.26836c3.42938,.01776,4.53705,.79287,4.53705,3.14745,0,1.85697-.7746,3.09866-4.53705,3.12091Z" />
        <path class="c" d="M107.47387,62.93124l-.13991-1.0417-4.03766,1.19067,.17766,.89064c.77011,3.96049,3.66236,6.52822,7.38275,6.60599,.70583-1.49933,1.33187-3.06537,1.87347-4.69575-.52386,.28658-1.11886,.46435-1.7625,.46435-1.78232,0-3.22085-1.4038-3.49382-3.41419Z" />
        <path class="c" d="M111.4547,45.19248c-3.92668,0-6.88769,2.89432-6.88769,6.73465,0,3.87616,2.69476,5.48429,5.22737,6.69032l1.39183,.64421c1.30084,.62197,2.28635,1.13274,2.85018,1.88143,.34188-1.55276,.61932-3.15194,.82352-4.80009-.62156-.3709-1.27205-.69301-1.91345-.98839l-1.43852-.66197c-1.2719-.60421-2.85227-1.35724-2.85227-2.67655,0-1.44604,1.20523-2.57893,2.74353-2.57893,1.36737,0,2.21088,.56868,3.01232,2.02577l.43719,.79302,.37305-.25315c.04878-1.00633,.08204-2.02144,.08204-3.05656,0-.89064-.02431-1.76367-.05773-2.6276-1.1011-.72853-2.39076-1.12616-3.79139-1.12616Z" />
        <polygon class="c" points="218.16696 65.96751 211.83221 65.96751 211.83221 44.84187 211.83176 44.84187 211.83176 44.84142 207.62748 44.84142 207.62748 70.22114 218.16696 70.22114 218.16696 70.21935 218.16725 70.21935 218.16725 65.96795 218.16696 65.96795 218.16696 65.96751" />
        <path class="c" d="M239.79899,44.84082l-8.6302,8.90923v-8.90923h-4.20427v25.37973h4.20427v-10.20213l6.29522,7.23453c.83009-1.27067,1.55367-2.62998,2.16866-4.09587l-5.66934-6.40389,8.43957-8.58728c.01551-.61078,.02431-1.23484,.02431-1.87024,0-.4954-.02431-.9684-.0355-1.45485h-2.59273Z" />
        <polygon class="c" points="262.54287 70.30354 265.92139 70.30354 265.92139 58.8509 273.22882 58.8509 273.22882 54.45964 265.92139 54.45964 265.92139 49.6018 273.46181 49.6018 273.46181 45.21039 262.54287 45.21039 262.54287 70.30354" />
        <path class="c" d="M286.1689,44.81246c-6.80133,0-12.33299,5.82177-12.33299,12.97629,0,7.119,5.53166,12.91211,12.33299,12.91211,6.79909,0,12.33061-5.79311,12.33061-12.91211,0-7.15452-5.53151-12.97629-12.33061-12.97629Zm0,21.49685c-4.47068,0-8.10664-3.836-8.10664-8.5516s3.63597-8.55399,8.10664-8.55399,8.10858,3.83839,8.10858,8.55399-3.63806,8.5516-8.10858,8.5516Z" />
        <path class="c" d="M299.55156,45.21159v25.09314h4.21979v-9.03148l5.64695,8.62056,.26417,.41092h1.24311v-5.9285l-3.18759-4.72007c1.30293-.39763,2.37734-1.15946,3.18759-2.17249v-9.80659c-1.4585-1.63709-3.89789-2.46549-7.31415-2.46549h-4.05987Zm4.21979,4.39126c3.43607,.02224,4.54375,.80406,4.54375,3.16075,0,1.85934-.77683,3.10537-4.54375,3.13209v-6.29284Z" />
        <path class="c" d="M331.26214,52.07908l3.44728-2.32563-.43734-.85959c-.899-1.75023-2.27084-2.98298-3.91341-3.60959v5.26668c.1508,.20658,.29743,.43077,.44182,.69302l.46166,.83511Z" />
        <path class="c" d="M330.35882,55.6288v5.37309l.00075,.00149v3.71973l-.00075,.00164v5.37981c2.85227-1.19722,4.81912-4.08258,4.81912-7.54111,0-3.84929-2.33528-5.66639-4.81912-6.93466Z" />
        <path class="c" d="M354.80257,47.55558l-.38185-.3021c-2.09768-1.64142-4.40624-2.44101-7.0588-2.44101-6.80131,0-12.33299,5.84849-12.33299,13.0363,0,2.91581,.94688,5.59863,2.52247,7.75724,2.25445,3.08895,5.80717,5.09577,9.81052,5.09577,2.47506,0,4.97902-.86392,7.04789-2.43431l.21494-.16419,.17782-.13462v-.0009l.00013-.00015v-6.01969l-.00013,.00015v-.00119l-1.49179,1.56812c-.84351,.88737-1.8156,1.58621-2.84541,2.06279-1.02964,.4763-2.11675,.73049-3.18997,.73049-4.35058,0-8.02207-3.91601-8.02207-8.5516s3.64686-8.55175,7.96436-8.55175c1.08334,0,2.15925,.24733,3.16847,.69317,1.07501,.47525,2.07424,1.17677,2.91358,2.08891l.91048,.989,.59247,.64466v-6.06402l-.00013-.00015v-.0009Z" />
        <polygon class="c" points="373.72953 45.21024 369.50544 45.21024 369.50544 54.57935 360.04335 54.57935 360.04335 45.21113 360.04275 45.21113 360.04275 45.21024 355.81849 45.21024 355.81849 70.30338 355.81923 70.30338 355.81923 70.30428 360.04335 70.30428 360.04335 58.97374 369.50544 58.97374 369.50544 70.30338 369.50617 70.30338 369.50617 70.30428 373.73043 70.30428 373.73043 45.21113 373.72953 45.21113 373.72953 45.21024" />
        <path class="c" d="M388.09187,60.36246c.00433,1.63276,.0088,3.17418-.84798,4.25826-.82785,1.04169-2.26189,1.71679-3.65148,1.71679-1.43837,0-3.00546-.76406-3.72681-1.81903-.77698-1.12617-.7749-2.78775-.77042-4.25589v-8.31397h-.00209v-6.71032h-4.22202v15.45746c0,2.51206,.19093,5.15323,2.44625,7.41215,1.59141,1.64142,3.93772,2.62326,6.27509,2.62326,2.51069,0,4.89459-1.06617,6.5306-2.91432,2.02427-2.20787,2.19298-4.62679,2.19298-7.12109v-8.74714h-4.22411v8.41384Z" />
        <polygon class="c" points="410.7925 51.94997 410.7925 61.7188 401.92692 51.94997 393.67171 51.94997 393.67171 70.30368 397.89135 70.30368 397.89135 53.88454 414.58613 72.24736 414.58613 51.94997 410.7925 51.94997" />
        <path class="c" d="M65.502,56.0942v-.0009c-1.13438,.95736-2.48832,1.65471-3.98217,2.16339-.01581,.4048-.08353,.79407-.15124,1.18319-.20407,1.1708-.61247,2.26936-1.25715,3.22001-.28654,.42211-.61455,.81676-.98238,1.17886-.70404,.6966-1.44821,1.16692-2.24205,1.48873-1.20523,.48778-2.52769,.62406-4.0211,.62406h-.90794v-6.41046h-.00091v-.00045c-.19093,.00224-.38393,.00657-.57263,.00657h-3.51395v.0006h-.00119v10.6529h4.85014c3.56929,0,6.33072-.51526,9.07888-3.08074,2.50383-2.35235,3.82674-5.53101,3.82674-9.19596,0-.62854-.05101-1.23498-.12216-1.83025l-.00089,.00046Z" />
        <polygon class="c" points="32.64749 45.90326 32.64749 70.51877 32.64749 70.51907 45.53103 70.51907 45.53103 66.26991 45.53088 66.26991 45.53088 66.26961 36.73183 66.26961 36.73183 59.24853 45.27566 59.24853 45.27566 55.00161 45.27342 55.00161 45.27342 55.00131 36.73183 55.00131 36.73183 50.14809 45.53103 50.14809 45.53103 45.90117 32.64749 45.90117 32.64749 45.90326" />
        <path class="c" d="M68.93421,45.58384h-.00089c.06876,.55749,.10874,1.14394,.10874,1.77023,0,3.03865-.74805,5.311-1.98669,7.03914v15.80837h12.8834v-.00015h.00104v-4.24916h-8.79786v-7.02123h8.53936v-4.24692h-.00134v-.00015h-8.53802v-4.85323h8.79681v-.00029h.00104v-4.24692h-11.0056v.0003Z" />
        <polygon class="c" points="98.10666 45.58428 98.10666 61.8785 93.15136 56.41944 81.2587 43.31642 81.2587 43.31806 81.2587 70.20144 81.2587 70.20204 85.34528 70.20204 85.34528 70.20144 85.34528 53.9938 102.1931 72.52543 102.1931 72.52469 102.19325 72.52484 102.19325 45.58354 98.10666 45.58354 98.10666 45.58428" />
        <polygon class="c" points="147.40807 44.84187 141.53227 44.84187 132.9064 53.74901 132.9064 44.84187 128.70228 44.84187 128.70228 70.21935 132.9064 70.21935 132.9064 60.0217 141.78093 70.21935 147.62106 70.21935 135.70094 56.75214 147.40807 44.84187" />
        <polygon class="c" points="170.60584 70.2201 174.8122 70.2201 174.8122 53.30554 175.85782 54.42725 175.85782 48.24098 170.60584 42.59698 170.60584 70.2201" />
        <path class="c" d="M195.10506,47.88439c0,1.70591-.25089,3.13867-.68152,4.36903v17.96743h4.20204v-11.68787h7.64693v-4.25364h-7.64693v-5.18667h7.89125v-4.2514h-11.68041c.16646,.9196,.26864,1.91696,.26864,3.04312Z" />
        <path class="c" d="M188.51793,61.84806l-3.02783-3.25628c-1.70701,.2821-3.52499,.39314-5.36281,.41748l12.59701,13.51617v-17.35874c-1.11213,1.23931-2.5526,2.09458-4.20636,2.67431v4.00706Z" />
        <polygon class="c" points="219.11609 44.84216 219.11592 44.84216 219.11592 70.2195 219.11609 70.2195 223.32245 70.2195 223.32258 70.2195 223.32258 44.84216 223.32245 44.84216 219.11609 44.84216" />
      </g>
      <path class="c" d="M10.00264,84.30405v-3.27492H.01119v20.76577H3.14687v-9.67643h6.64486v-3.27478H3.14687v-4.53963h6.85577Zm-7.83159,5.79715h6.36876v.75974H1.89749v9.67658H.92228v-18.25088h7.83099v.76228H1.89749v7.05228h.27356Z" />
    </g><text class="f" transform="translate(142.42353 118.75135)">
      <tspan x="0" y="0"> </tspan>
    </text><text class="f" transform="translate(129.21357 132.75135)">
      <tspan x="0" y="0"> </tspan>
    </text><text class="f" transform="translate(120.82343 146.75135)">
      <tspan x="0" y="0"> </tspan>
    </text><text class="d" transform="translate(120.82343 11.25135)">
      <tspan x="0" y="0"> </tspan>
    </text>
  </g>
</svg>