<svg width="176" height="176" viewBox="0 0 176 176" fill="none" xmlns="http://www.w3.org/2000/svg">
  <title>Search</title>
  <g>
    <path d="M168.398 176L101.138 108.74C95.7671 113.312 89.5906 116.851 82.6084 119.358C75.6263 121.864 68.6097 123.117 61.5586 123.117C44.3539 123.117 29.793 117.162 17.8759 105.251C5.95863 93.3408 0 78.7877 0 61.5923C0 44.3968 5.95532 29.8326 17.866 17.8996C29.7766 5.96652 44.3296 0 61.525 0C78.7206 0 93.2849 5.95855 105.218 17.8757C117.151 29.7928 123.117 44.3538 123.117 61.5587C123.117 69.0228 121.795 76.2459 119.151 83.2281C116.507 90.2103 113.037 96.1803 108.74 101.138L176 168.398L168.398 176ZM61.5586 112.376C75.8122 112.376 87.8451 107.47 97.6571 97.6573C107.469 87.845 112.375 75.8122 112.375 61.5587C112.375 47.3053 107.469 35.2724 97.6571 25.4602C87.8451 15.6479 75.8122 10.7418 61.5586 10.7418C47.3052 10.7418 35.2724 15.6479 25.4601 25.4602C15.6481 35.2724 10.742 47.3053 10.742 61.5587C10.742 75.8122 15.6481 87.845 25.4601 97.6573C35.2724 107.47 47.3052 112.376 61.5586 112.376Z" fill="#1C1B1F" />
  </g>

</svg>