<svg width="76" height="76" viewBox="0 0 76 76" fill="none" xmlns="http://www.w3.org/2000/svg">
<g clip-path="url(#clip0_174_191)">
<mask id="mask0_174_191" style="mask-type:alpha" maskUnits="userSpaceOnUse" x="0" y="0" width="76" height="76">
<rect width="76" height="76" fill="#D9D9D9"/>
</mask>
<g mask="url(#mask0_174_191)">
<path d="M13.8847 44.6195H16.351L18.1109 39.76H27.1968L28.975 44.6195H31.484L24.1703 25.1689H21.1375L13.8847 44.6195ZM19.0183 37.4397L22.5747 27.751H22.7331L26.2895 37.4397H19.0183ZM43.968 30.3756V27.4282C45.669 26.5675 47.4909 25.922 49.4335 25.4917C51.3762 25.0613 53.3706 24.8461 55.4167 24.8461C56.5859 24.8461 57.7085 24.9212 58.7844 25.0714C59.8602 25.2217 60.9705 25.4348 62.1154 25.7109V28.5853C61.0111 28.2321 59.9343 27.9875 58.8848 27.8515C57.8354 27.7155 56.6793 27.6475 55.4167 27.6475C53.3706 27.6475 51.3731 27.8779 49.4244 28.3387C47.4757 28.7994 45.6569 29.4784 43.968 30.3756ZM43.968 47.6705V44.6013C45.5879 43.7406 47.3996 43.0951 49.4031 42.6647C51.4066 42.2344 53.4112 42.0192 55.4167 42.0192C56.5859 42.0192 57.7085 42.0943 58.7844 42.2445C59.8602 42.3947 60.9705 42.6079 62.1154 42.8839V45.7583C61.0111 45.4051 59.9343 45.1605 58.8848 45.0245C57.8354 44.8885 56.6793 44.8205 55.4167 44.8205C53.3706 44.8205 51.3731 45.0682 49.4244 45.5635C47.4757 46.0588 45.6569 46.7611 43.968 47.6705ZM43.968 39.0839V36.0147C45.669 35.154 47.4909 34.5085 49.4335 34.0782C51.3762 33.6479 53.3706 33.4327 55.4167 33.4327C56.5859 33.4327 57.7085 33.5078 58.7844 33.658C59.8602 33.8082 60.9705 34.0214 62.1154 34.2975V37.1718C61.0111 36.8186 59.9343 36.574 58.8848 36.438C57.8354 36.302 56.6793 36.2339 55.4167 36.2339C53.3706 36.2339 51.3731 36.4846 49.4244 36.986C47.4757 37.4874 45.6569 38.1867 43.968 39.0839ZM20.5834 50.7884C23.3481 50.7884 26.0368 51.1061 28.6493 51.7415C31.2618 52.3768 33.8509 53.4111 36.4167 54.8442V23.7744C34.131 22.1423 31.6119 20.9183 28.8593 20.1022C26.1068 19.2862 23.3481 18.8782 20.5834 18.8782C18.6834 18.8782 17.0198 18.9919 15.5928 19.2192C14.1658 19.4466 12.5814 19.8688 10.8398 20.4859C10.3526 20.6483 10.0075 20.8817 9.80452 21.1862C9.60153 21.4907 9.50004 21.8257 9.50004 22.191V50.7397C9.50004 51.3081 9.70302 51.7242 10.109 51.9881C10.515 52.252 10.9616 52.2825 11.4487 52.0795C12.6058 51.6898 13.9425 51.3772 15.4588 51.1417C16.9752 50.9062 18.6834 50.7884 20.5834 50.7884ZM39.5834 54.8442C42.1492 53.4111 44.7383 52.3768 47.3508 51.7415C49.9633 51.1061 52.6519 50.7884 55.4167 50.7884C57.3167 50.7884 59.0249 50.9062 60.5413 51.1417C62.0576 51.3772 63.3943 51.6898 64.5514 52.0795C65.0385 52.2825 65.4851 52.252 65.8911 51.9881C66.2971 51.7242 66.5 51.3081 66.5 50.7397V22.191C66.5 21.8257 66.3986 21.5009 66.1956 21.2167C65.9926 20.9325 65.6475 20.6889 65.1603 20.4859C63.4186 19.8688 61.8343 19.4466 60.4073 19.2192C58.9802 18.9919 57.3167 18.8782 55.4167 18.8782C52.6519 18.8782 49.8933 19.2862 47.1408 20.1022C44.3882 20.9183 41.8691 22.1423 39.5834 23.7744V54.8442ZM38 59.436C35.4261 57.674 32.6614 56.32 29.7058 55.3741C26.7503 54.4281 23.7095 53.9552 20.5834 53.9552C18.9351 53.9552 17.3162 54.0932 15.7268 54.3693C14.1374 54.6453 12.5895 55.0878 11.0834 55.6968C9.93445 56.1556 8.85554 56.0175 7.84664 55.2827C6.8378 54.5479 6.33337 53.5329 6.33337 52.2379V21.6308C6.33337 20.8472 6.53939 20.1205 6.95143 19.4506C7.36352 18.7808 7.94104 18.3139 8.68399 18.05C10.5434 17.2299 12.4779 16.6351 14.4875 16.2657C16.4972 15.8962 18.5291 15.7115 20.5834 15.7115C23.6851 15.7115 26.7107 16.1581 29.6601 17.0512C32.6096 17.9444 35.3895 19.2435 38 20.9487C40.6105 19.2435 43.3905 17.9444 46.3399 17.0512C49.2894 16.1581 52.315 15.7115 55.4167 15.7115C57.471 15.7115 59.5029 15.8962 61.5125 16.2657C63.5222 16.6351 65.4567 17.2299 67.3161 18.05C68.059 18.3139 68.6366 18.7808 69.0487 19.4506C69.4607 20.1205 69.6667 20.8472 69.6667 21.6308V52.2379C69.6667 53.5329 69.1217 54.5276 68.0316 55.2218C66.9416 55.9161 65.7815 56.0338 64.5514 55.575C63.0858 55.0066 61.5887 54.5946 60.0602 54.3388C58.5316 54.083 56.9838 53.9552 55.4167 53.9552C52.2906 53.9552 49.2498 54.4281 46.2943 55.3741C43.3387 56.32 40.574 57.674 38 59.436Z" fill="#1C1B1F"/>
</g>
</g>
<defs>
<clipPath id="clip0_174_191">
<rect width="76" height="76" fill="white"/>
</clipPath>
</defs>
</svg>
