<svg width="780" height="296" viewBox="0 0 780 296" fill="none" xmlns="http://www.w3.org/2000/svg">
<path d="M305.509 36.4833V41.2683H320.736V88.2905H326.451V41.2683H341.762V36.4833H305.509ZM353.378 36.4833V88.2905H381.549V83.5055H359.176V63.8525H379.438V59.0612H359.176V41.2683H381.549V36.4833H353.378ZM419.726 39.7417C424.697 39.7417 429.071 40.7423 433.151 43.4491L435.351 39.2927C430.482 36.7527 425.672 35.348 419.726 35.348C404.409 35.348 392.35 46.3868 392.35 62.1977C392.35 79.0541 404.396 89.041 419.726 89.041C424.973 89.041 430.534 87.0205 435.12 84.4356L433.061 80.741C429.013 82.9924 424.318 84.6537 419.726 84.6537C407.141 84.6537 398.258 74.6348 398.258 62.1977C398.258 49.7542 407.141 39.7417 419.726 39.7417ZM448.474 36.4833V88.2905H454.272V63.4677H482.514V88.2905H488.274V36.4833H482.514V58.7661H454.272V36.4833H448.474ZM512.77 35.2903L506.753 36.8297V88.2905H512.289L512.263 43.8147L542.724 89.4322L548.836 87.7453V36.4833H543.449L543.346 80.9271L512.77 35.2903ZM569.824 88.2905H575.577V36.4769H569.824V88.2905ZM605.121 85.1283C601.093 85.1283 596.962 83.3773 594.095 81.4787L591.786 85.2374C595.968 87.7517 600.105 89.0602 605.499 89.0602C616.769 89.0602 622.003 81.9982 622.003 74.4616C622.003 66.5657 616.397 63.2368 610.477 60.3889L606.121 58.3043C602.343 56.3993 598.328 53.9234 598.328 49.0422C598.328 42.3202 603.87 39.2863 608.616 39.2863C613.459 39.2863 616.609 40.9925 619.598 42.9296L621.599 39.126C617.596 36.804 613.19 35.3544 608.315 35.3544C599.175 35.3544 592.876 40.8898 592.876 48.6574C592.876 59.4973 600.81 61.4601 608.437 65.1418C612.632 67.1623 616.089 69.7023 616.089 74.994C616.089 81.2029 611.535 85.1283 605.121 85.1283ZM662.021 39.7417C666.992 39.7417 671.373 40.7423 675.446 43.4491L677.646 39.2927C672.777 36.7527 667.967 35.348 662.021 35.348C646.704 35.348 634.645 46.3868 634.645 62.1977C634.645 79.0541 646.691 89.041 662.021 89.041C667.267 89.041 672.829 87.0205 677.415 84.4356L675.349 80.741C671.308 82.9924 666.613 84.6537 662.021 84.6537C649.436 84.6537 640.553 74.6348 640.553 62.1977C640.553 49.7542 649.436 39.7417 662.021 39.7417ZM692.488 36.4833V88.2905H698.286V63.4677H726.528V88.2905H732.281V36.4833H726.528V58.7661H698.286V36.4833H692.488ZM750.748 36.4833V88.2905H778.964V83.5055H756.591V63.8525H776.853V59.0676H756.591V41.2683H778.964V36.4833H750.748ZM351.736 156.178V122.196H345.937V155.338C345.937 166.96 340.331 170.629 331.39 170.629C321.583 170.629 317.446 165.28 317.446 155.338V122.196H311.48L311.634 156.678C311.634 168.493 318.587 174.914 331.39 174.914C341.12 174.914 351.736 171.796 351.736 156.178ZM374.153 121.048L368.137 122.581V174.048H373.672L373.646 129.572L404.107 175.19L410.22 173.503V122.241H404.832L404.729 166.684L374.153 121.048ZM428.398 174.048H434.196V122.196H428.398V174.048ZM451.046 121.4L445.414 123.177L465.202 174.048H470.924L490.833 123.254L485.33 121.413L468.217 167.916L451.046 121.4ZM502.019 122.196V174.048H530.19V169.263H507.818V149.61H528.035V144.819H507.818V126.981H530.19V122.196H502.019ZM556.508 147.487H549.6V126.686H557.951C566.879 126.686 569.548 131.054 569.548 137.025C569.548 145.274 563.102 147.487 556.508 147.487ZM559.413 122.241L543.756 122.202V174.093H549.6V151.765H554.346C558.175 151.765 560.151 153.17 562.409 155.928L564.635 158.776L576.802 175.356L581.863 172.329L571.607 158.756C569.593 156.249 566.835 151.406 563.525 150.617L563.583 149.546C570.728 148.584 574.897 144.44 574.897 136.082C574.897 127.641 569.176 122.241 559.413 122.241ZM602.568 171.238C598.54 171.238 594.409 169.487 591.542 167.589L589.239 171.347C593.415 173.862 597.559 175.17 602.947 175.17C614.216 175.17 619.45 168.108 619.45 160.572C619.45 152.676 613.851 149.34 607.924 146.499L603.575 144.414C599.797 142.509 595.782 140.034 595.782 135.152C595.782 128.43 601.317 125.396 606.07 125.396C610.906 125.396 614.062 127.103 617.051 129.04L619.046 125.236C615.043 122.921 610.643 121.471 605.762 121.471C596.628 121.471 590.323 127 590.323 134.774C590.323 145.607 598.258 147.57 605.884 151.252C610.085 153.279 613.542 155.806 613.542 161.104C613.542 167.319 608.982 171.238 602.568 171.238ZM635.004 174.048H640.803V122.196H635.004V174.048ZM652.137 122.196V126.981H667.364V174.048H673.085V126.981H688.389V122.196H652.137ZM714.649 127.423L724.18 153.067H704.81L714.649 127.423ZM738.202 173.426L717.696 122.196H711.621L690.5 173.426L696.227 175.427L703.2 157.262H725.745L732.512 175.459L738.202 173.426ZM729.607 118.912H724.398V125.685H729.607V118.912ZM705.06 118.912H699.896V125.685H705.06V118.912ZM743.519 122.196V126.981H758.74V174.048H764.461V126.981H779.772V122.196H743.519ZM325.027 255.277H317.446V212.443L326.207 212.475C340.581 212.475 350.01 219.832 350.01 233.52C350.01 247.125 340.408 255.277 325.027 255.277ZM327.432 207.908L311.602 207.953V259.76H325.668C343.622 259.76 355.501 250.658 355.501 233.141C355.501 220.473 348.253 207.908 327.432 207.908ZM387.661 213.129L397.199 238.779H377.822L387.661 213.129ZM411.214 259.138L390.708 207.914H384.64L363.518 259.138L369.24 261.139L376.212 242.974H398.758L405.525 261.178L411.214 259.138ZM437.75 233.199H430.842V212.404H439.193C448.128 212.404 450.79 216.766 450.79 222.744C450.79 230.993 444.35 233.199 437.75 233.199ZM440.662 207.959L424.998 207.915V259.805H430.842V237.484H435.594C439.424 237.484 441.399 238.889 443.651 241.64L445.876 244.495L458.05 261.069L463.105 258.041L452.855 244.469C450.841 241.967 448.083 237.118 444.773 236.336L444.824 235.265C451.97 234.302 456.139 230.159 456.139 221.795C456.139 213.36 450.424 207.959 440.662 207.959ZM495.06 207.953H488.729L474.233 259.202L479.814 260.697L492.02 215.701L505.169 259.76H511.673L525.04 215.605L537.079 260.697L542.576 259.208L528.157 207.953H521.794L508.414 253.109L495.06 207.953ZM567.277 256.803C563.249 256.803 559.118 255.052 556.251 253.153L553.949 256.919C558.124 259.427 562.268 260.735 567.662 260.735C578.925 260.735 584.166 253.679 584.166 246.136C584.166 238.241 578.56 234.912 572.639 232.07L568.284 229.979C564.506 228.08 560.491 225.598 560.491 220.723C560.491 214.001 566.026 210.968 570.779 210.968C575.622 210.968 578.771 212.667 581.76 214.611L583.755 210.807C579.753 208.485 575.353 207.036 570.471 207.036C561.338 207.036 555.033 212.571 555.033 220.339C555.033 231.179 562.967 233.135 570.6 236.817C574.795 238.843 578.252 241.377 578.252 246.669C578.252 252.884 573.691 256.803 567.277 256.803ZM593.806 207.953V212.738H609.033V259.76H614.755V212.738H630.059V207.953H593.806ZM657.011 213.174L666.543 238.824H647.166L657.011 213.174ZM680.564 259.183L660.058 207.953H653.984L632.862 259.183L638.59 261.184L645.562 243.019H668.108L674.875 261.222L680.564 259.183ZM705.804 255.277H698.222V212.443L706.984 212.475C721.358 212.475 730.793 219.832 730.793 233.52C730.793 247.124 721.185 255.277 705.804 255.277ZM708.209 207.908L692.379 207.953V259.76H706.452C724.398 259.76 736.277 250.658 736.277 233.141C736.277 220.473 729.029 207.908 708.209 207.908ZM743.339 207.953V212.738H758.56V259.76H764.275V212.738H779.586V207.953H743.339Z" fill="#231F20"/>
<path d="M98.4853 70.0358C98.4853 71.5431 97.2667 72.7618 95.7657 72.7618C94.2648 72.7618 93.0461 71.5431 93.0461 70.0358C93.0461 68.5284 94.2648 67.3162 95.7657 67.3162C97.2667 67.3162 98.4853 68.5284 98.4853 70.0358Z" fill="#231F20"/>
<path d="M143.147 76.7258C141.98 77.0401 140.787 77.5661 139.581 77.534C139.215 77.5212 136.233 77.0594 136.605 77.9894C137.631 80.5487 140.383 80.9207 142.814 81.5429C142.814 81.5429 142.968 78.323 143.147 76.7258Z" fill="#231F20"/>
<path d="M159.311 86.3085L159.324 86.3147C157.861 85.6348 156.117 85.1024 154.956 83.9671C154.718 83.7362 153.513 81.767 153.25 83.005C152.659 85.8464 153.525 89.5923 155.706 91.5486C155.706 91.5486 158.156 87.9698 159.311 86.3085Z" fill="#231F20"/>
<path d="M175.622 94.307C175.622 95.5385 174.621 96.5327 173.396 96.5327C172.165 96.5327 171.171 95.5385 171.171 94.307C171.171 93.0819 172.165 92.0813 173.396 92.0813C174.621 92.0813 175.622 93.0819 175.622 94.307Z" fill="#231F20"/>
<path d="M189.913 76.9696C189.913 78.5218 188.656 79.779 187.103 79.779C185.551 79.779 184.288 78.5218 184.288 76.9696C184.288 75.4173 185.551 74.1602 187.103 74.1602C188.656 74.1602 189.913 75.4173 189.913 76.9696Z" fill="#231F20"/>
<path d="M182.652 85.3208C182.652 86.7063 181.523 87.8352 180.131 87.8352C178.739 87.8352 177.61 86.7063 177.61 85.3208C177.61 83.9289 178.739 82.8 180.131 82.8C181.523 82.8 182.652 83.9289 182.652 85.3208Z" fill="#231F20"/>
<path d="M208.347 63.0572C205.923 63.8846 203.286 62.5889 202.459 60.1644C201.632 57.7398 202.927 55.1036 205.352 54.2762L206.647 54.0132L209.611 62.4671L208.347 63.0572Z" fill="#231F20"/>
<path d="M212.061 145.749C212.401 149.764 210.592 153.349 207.937 153.574C205.281 153.805 202.748 150.662 202.408 146.647C202.068 142.631 203.973 139.116 206.628 138.892C209.284 138.661 211.715 141.733 212.061 145.749Z" fill="#231F20"/>
<path d="M175.269 48.2022L197.892 10.705C55.2539 -38.8573 -62.6961 133.382 40.8477 246.849L61.8028 221.75M175.269 48.2022C86.6448 13.7389 -12.6336 121.503 61.8028 221.75M175.269 48.2022C166.937 46.6371 161.697 47.3427 158.144 52.4804M61.8028 221.75C57.0178 214.951 58.0826 210.147 61.264 202.45M181.202 58.2724C98.3186 29.5113 43.3749 93.8197 45.5942 152.375C47.8263 210.917 86.6448 214.739 82.3025 246.887M78.0114 225.522C19.0845 263.846 128.01 321.971 216.705 278.605C213.568 275.712 199.047 271.171 186.584 267.72M65.2151 207.947C124.617 162.868 148.163 81.4147 201.542 38.8952L214.607 77.2519C165.135 109.624 139.19 194.362 79.4931 228.337M204.524 47.6634C150.921 93.2937 125.893 179.84 69.8397 213.938M211.067 66.8545C156.014 108.348 133.949 182.168 75.0416 220.859M180.587 14.3867L164.833 44.7962M172.793 4.16252L156.149 42.9297M156.245 11.6543L146.803 41.8521M146.951 1.95605L136.707 41.7239M132.936 12.2444L128.324 42.4294M121.057 4.56662L118.356 44.2318M108.511 16.1891L109.511 46.7397M95.6247 11.8852L100.756 50.1072M85.7533 25.7911L92.5202 54.1417M73.0212 23.2639L84.9387 58.6829M65.4011 38.1255L76.8632 64.5198M52.2649 38.7541L70.4298 70.0424M47.3196 54.2379L63.7335 76.8029M34.8184 57.0986L57.9158 83.7687M32.7915 73.4804L52.1431 92.0365M20.4892 78.291L47.9674 99.2396M21.3487 94.134L43.8496 107.924M10.0854 101.081L40.7259 116.378M13.7222 117.058L38.3783 124.826M3.40826 126.686L36.7363 133.549M10.1624 141.31L35.7549 144.139M1.5674 152.432L35.7613 153.119M10.8102 165.395L36.6529 162.971M4.78089 179.179L38.2885 172.028M16.506 189.262L41.0017 182.072M12.9718 204.355L43.8496 189.994M25.287 211.077L47.217 197.703M24.9085 226.388L51.7261 206.343M37.0762 233.693L56.633 214.348M67.6269 86.7513C82.3474 108.778 113.219 91.2733 147.81 103.467M65.1638 89.9776C67.2356 132.087 109.473 127.154 124.232 140.059M142.576 111.587C122.128 102.177 80.5193 116.814 65.9912 97.2641M137.593 119.393C122.519 113.389 89.3516 120.714 73.0404 113.556M131.948 128.219C122.179 124.896 97.395 128.283 91.4234 126.615M121.801 70.4721L120.255 53.4938M122.346 76.4822L123.295 86.8667C108.844 89.4067 93.5657 72.5439 108.075 57.1114M113.822 63.237L121.647 68.7916M122.487 77.9831C121.461 78.4578 120.319 78.7207 119.113 78.7207C114.681 78.7207 111.083 75.1224 111.083 70.6902C111.083 67.8423 112.552 65.3472 114.777 63.9233M106.163 80.5167C96.3944 83.557 87.6775 75.2892 85.4133 69.4908M73.1238 80.4205L83.0465 83.0567C91.0963 92.5112 111.942 91.8377 116.253 86.6487M114.508 88.0918C114.765 91.1193 116.214 95.2565 120.063 98.6944M81.2698 82.5821C79.5059 85.4107 79.7881 93.6657 80.8272 96.7317M134.86 70.4401L127.779 99.1755M154.314 77.207L133.289 99.8618M143.866 71.338C143.102 76.944 142.018 83.2684 143.609 88.7461M142.916 59.8118C153.917 57.631 155.193 73.6664 143.654 72.8518M138.33 63.7565C125.733 52.9358 150.363 43.4108 148.952 60.7867M134.924 58.9266C125.175 59.2473 127.926 71.5882 134.501 71.8961M161.562 72.2809C158.855 61.4282 169.676 58.003 174.878 65.6294M161.434 66.5787C153.044 62.7174 147.021 71.338 153.326 78.2782M196.475 55.014L194.768 69.4587L205.089 71.5818M212.414 78.7272C212.414 78.7272 233.568 142.522 239.757 158.769C245.78 174.58 250.437 182.361 235.537 183.252M235.537 183.252C223.69 180.36 218.161 186.684 218.161 186.684C218.161 186.684 209.951 181.097 218.161 173.496M235.537 183.252C231.663 186.934 230.072 189.038 232.83 192.694C235.588 196.344 235.8 197.511 228.994 202.886M228.994 202.886C222.991 202.213 214.293 205.304 206.814 206.856M228.994 202.886C232.08 204.349 233.516 207.203 232.432 210.987C228.398 211.173 227.032 212.79 224.838 216.009C250.867 239.934 189.688 258.446 141.274 228.062M162.742 134.819C165.186 146.217 160.1 162.714 139.318 168.795M169.509 125.134C179.798 154.119 157.284 179.66 132.365 178.249M81.5777 233.905C58.1082 247.189 74.3938 266.925 91.8211 272.307C128.728 254.033 118.068 215.528 109.883 204.567M88.0816 222.962C91.8852 228.37 96.946 247.567 69.8911 249.992M96.1378 216.972C108.601 236.932 92.6934 257.849 72.1873 257.657M103.097 211.038C115.444 233.033 109.794 258.247 80.1601 266.354M127.445 231.076C128.33 243.699 121.724 271.851 91.1732 282.325M103.2 276.623C117.407 279.221 148.028 289.189 157.765 293.749M111.929 269.741C127.586 273.435 167.175 285.917 180.792 290.779M190.939 245.008C185.352 262.538 185.352 278.669 187.924 289.144M205.974 283.333C203.742 281.556 194.794 278.932 186.379 276.739M118.485 195.343C118.921 198.287 119.62 201.52 121.268 204.56M125.944 186.485C126.105 192.187 127.452 197.158 129.042 200.93M127.285 195.754C132.307 189.205 143.904 191.847 139.651 203.104M134.86 183.438C148.574 183.868 153.865 200.699 145.405 209.621M137.676 178.147L136.938 183.631M171.761 134.62C181.196 126.218 183.12 116.808 182.274 108.162M189.47 99.6373C193.639 117.924 190.772 133.203 171.543 145.909M202.709 86.3664C203.819 95.9299 200.599 103.248 191.055 110.285M211.702 79.2275C213.979 96.7958 207.347 114.403 190.355 120.9M186.019 131.753C199.13 125.839 216.609 122.908 228.892 128.001M181.01 149.681C181.01 149.681 192.331 154.799 207.872 152.246M196.404 142.041C195.897 146.781 196.417 150.04 197.712 152.945M90.0379 126.012C64.2145 137.096 52.2778 179.417 91.1412 183.939M102.751 130.675C57.6144 144.973 76.2283 185.549 101.025 172.342M121.32 137.943C78.1076 141.342 81.1607 166.236 91.5004 166.236C101.84 166.236 101.263 150.957 87.8315 150.957M96.9267 143.818C106.747 147.891 108.658 156.505 107.606 163.869M108.177 139.899C112.244 143.08 115.784 148.885 116.156 152.015M81.7893 121.548C46.2356 146.724 62.9445 163.426 52.4574 172.977C60.9882 172.977 62.162 171.636 66.979 166.819M75.3752 126.455C69.5832 121.939 61.9054 116.212 60.7188 108.515C56.4149 120.387 62.9445 130.259 66.3312 135.364M59.6348 172.278C66.1644 185.747 74.8171 188.557 82.7579 192.681M61.7707 176.197C61.7707 180.776 62.9445 189.679 61.713 193.592C69.519 193.688 71.9885 189.897 73.7909 188.031M46.1715 160.527C49.494 158.045 55.9402 153.619 57.6079 153.786M45.6904 154.478C46.8706 151.784 55.2796 141.105 63.3486 139.354M46.768 133.786L53.6825 144.844M58.8394 141.156L54.9461 132.831L62.5276 129.001M47.9161 127.815C52.0148 124.819 57.3257 122.542 60.0132 122.305M180.157 150.566C180.157 150.566 190.022 138.725 213.921 140.2M213.921 140.2C213.921 141.131 211.266 141.887 209.874 142.356M213.921 140.2L206.724 140.162M207.969 202.642C207.475 203.136 206.243 206.824 206.673 207.626M137.637 216.163C137.637 219.595 134.854 222.372 131.435 222.372C128.003 222.372 125.226 219.595 125.226 216.163C125.226 212.738 128.003 209.961 131.435 209.961C134.854 209.961 137.637 212.738 137.637 216.163ZM146.861 216.163C146.861 224.694 139.953 231.596 131.435 231.596C122.911 231.596 115.996 224.694 115.996 216.163C115.996 207.639 122.911 200.737 131.435 200.737C139.953 200.737 146.861 207.639 146.861 216.163Z" stroke="#231F20" stroke-width="2.70036" stroke-linecap="round" stroke-linejoin="round"/>
</svg>
