<?xml version="1.0" encoding="UTF-8"?>
<svg id="Ebene_2" data-name="Ebene 2" xmlns="http://www.w3.org/2000/svg" viewBox="0 0 1920 1280">
  <defs>
    <style>
      .cls-1 {
        stroke: #124a64;
        stroke-width: 3.11487px;
      }

      .cls-1, .cls-2, .cls-3, .cls-4 {
        stroke-miterlimit: 10;
      }

      .cls-1, .cls-3, .cls-4 {
        fill: none;
      }

      .cls-5 {
        fill: #afc0c8;
      }

      .cls-6 {
        fill: #932338;
      }

      .cls-7 {
        fill: #90172f;
      }

      .cls-8, .cls-2 {
        fill: #0d435c;
      }

      .cls-9 {
        fill: #fff;
      }

      .cls-2 {
        stroke: #426b7e;
        stroke-width: 2px;
      }

      .cls-10 {
        fill: #f3f5f7;
      }

      .cls-11 {
        fill: #fcc203;
      }

      .cls-3 {
        stroke-width: 4.20193px;
      }

      .cls-3, .cls-4 {
        stroke: #0b425b;
      }

      .cls-4 {
        stroke-width: 6.21885px;
      }

      .cls-12 {
        fill: #124a64;
      }

      .cls-13 {
        fill: #d4dde0;
      }

      .cls-14 {
        fill: #fac102;
      }

      .cls-15 {
        fill: #a1b9c0;
      }
    </style>
  </defs>
  <rect class="cls-10" x="-15.80411" y="-17.52858" width="1952.82537" height="1297.50667"/>
  <path class="cls-13" d="M1919.06709,1280c-185.29407-276.60652-545.4919-464.29413-959.58476-464.29413S185.19097,1003.39348-.1031,1280h1919.17019Z"/>
  <path class="cls-5" d="M257.89797,1280c3.00176-2.198,8.17518-2.93792,7.46679-5.02299-22.25058-65.49264,8.13013-44.6025,22.44144-38.14947s-2.12-8.85795,5.72221-16.51345c7.84221-7.65549,41.84979-16.14637,46.67984-32.67589,8.40237-28.75478-26.51415-13.44379-9.76996-38.32077,7.08524-10.5266,22.43674-17.95412,31.41607-17.95412,8.97011,0,26.92406-22.43674,24.67814-29.16546-2.24592-6.72871,2.24592-24.68266,8.97011-31.42059,6.7334-6.72419-4.48279-17.94021-4.48279-17.94021l-4.48732-22.44144s0-33.65746-13.46664-44.87801c-1.72482-1.43897-3.09007-2.08004-4.33517-2.08004-8.45822,0-11.4191,29.65891-85.41649,40.22934-60.69429,5.93215-138.91911,85.28546-168.28245,114.43433-43.46887,43.15135-78.85031,86.9699-105.31946,126.58314-3.42082,5.1195-6.74865,10.23113-9.98248,15.31562h258.16816Z"/>
  <path class="cls-5" d="M909.18171,1026.31815c-.99612,5.73711,10.13697,4.55652,18.28605,5.56654,8.14456,1.01455,9.13615,10.30285,18.27231,20.60117,4.69944,5.30817,4.56104,5.14682,3.67098,4.99467-.83946-.14762-2.34746-.29976-1.09766,4.12757,2.57818,9.12241,8.74424,6.58579,25.23627,10.46889,16.49655,3.88328,11.9216,6.24917,25.43901,12.32759,13.50819,6.07843,43.92345,4.73178,33.19166,9.62508-10.74101,4.89766-.81181,22.63044,4.54261,27.69415,5.36363,5.06388,14.89639,19.08395,14.89639,19.08395,0,0-1.41585,32.08478-3.80486,39.85117-2.39354,7.76638-2.06144,31.09788-6.438,35.3223-4.37673,4.22459,36.73815,15.94328,27.18226,31.98793-5.52047,9.27456,34.92117,1.06532,76.77848,0,30.52601-.7793,84.76152,19.19001,84.76152,19.19001,0,0,65.91282,8.52742,60.77991-3.20065-11.19307-25.59115,57.57909-15.98936,91.16282-23.9863,33.26991-7.92322,61.37926,13.02395,92.71707,13.79873,60.98265,1.51269,107.45177,4.90235,104.00682,11.78789-2.31663,4.6356.43028,9.54851,5.77733,14.20305h100.61348c-11.47255-21.0281-27.3019-49.30853-27.3019-49.30853,0,0,17.29462-3.71723,21.08105-13.50819,3.78626-9.79565,4.9806-13.67424,28.44128-19.92793,23.4652-6.249,45.12717.84398,63.404,6.41974,18.29057,5.56654,116.29755,37.15787,116.29755,37.15787,0,0-25.58663-41.58068-52.77827-65.57167-21.85566-19.28217-38.82271-26.8133-53.9081-47.74657-15.0993-20.94248-14.10787-11.65435-29.2117-17.56673-15.10383-5.91238-55.03793-33.60669-66.95971-39.851-11.92177-6.24917-72.92285-35.46087-87.03525-47.11488-14.10318-11.64966-78.4894-27.34848-94.19291-38.83662-15.68943-11.48361-67.18105-11.64966-92.41715-22.11856-25.2361-10.46889-19.47603-1.68796-27.2332,1.01455-7.757,2.7072-51.87883-3.87858-79.90055-10.29815-28.02624-6.41521-63.61144-8.26922-73.73919-12.83495-4.14148-1.86322-10.30754-2.5688-17.88944-2.5688-10.97625,0-24.91339,1.48505-39.96192,3.08068-25.44823,2.7072-72.96441,9.62961-95.24432,27.0256-11.98176,9.3575-14.86858,7.96477-24.53505,6.57188-8.31061-1.19451-21.6251-2.39823-50.01578,3.22378-61.43488,12.15685-43.94204,10.30285-84.1114,25.83562-40.16014,15.54215-7.76622,17.73261-8.7625,23.47911Z"/>
  <g>
    <g>
      <path class="cls-8" d="M293.77953,1173.52805c0,11.83728-29.52521,21.4282-65.94558,21.4282-36.41017,0-65.93506-9.59092-65.93506-21.4282s29.52489-21.4384,65.93506-21.4384c36.42037,0,65.94558,9.60128,65.94558,21.4384"/>
      <path class="cls-9" d="M265.26662,1172.08213c0,6.70752-16.75804,12.16106-37.42343,12.16106s-37.43395-5.45354-37.43395-12.16106c0-6.72825,16.76825-12.17142,37.43395-12.17142s37.42343,5.44318,37.42343,12.17142"/>
    </g>
    <ellipse class="cls-8" cx="227.55565" cy="1170.1895" rx="16.43365" ry="5.85308"/>
  </g>
  <g>
    <polygon class="cls-7" points="227.55565 1170.18961 228.2337 1128.96012 228.67218 1128.97086 227.55565 1170.18961"/>
    <polygon class="cls-7" points="229.17134 1087.81998 230.37971 1046.55558 231.51884 1046.59732 229.98396 1087.84464 229.17134 1087.81998"/>
    <polygon class="cls-7" points="231.89987 1005.34244 233.88333 964.14396 235.67381 964.25113 233.36514 1005.40934 231.89987 1005.34244"/>
    <path class="cls-7" d="M236.74425,922.9794c.61209-6.85449,1.2944-13.70557,2.17284-20.54565.44441-3.41968.94078-6.83618,1.55544-10.24683.32152-1.70459.64911-3.40845,1.07106-5.10913.41956-1.70239.86829-3.39746,1.61234-5.10425l2.0731.93311c-.64113,1.4436-1.09647,3.08081-1.50247,4.70972-.41403,1.63306-.74397,3.30371-1.06741,4.97388-.62068,3.35059-1.12962,6.73511-1.5872,10.12817-.90546,6.78955-1.61902,13.61572-2.26251,20.44873l-2.06517-.18774Z"/>
    <polygon class="cls-7" points="262.92725 845.68619 282.75769 809.48038 285.04843 810.74259 265.06952 846.86393 262.92725 845.68619"/>
    <polygon class="cls-7" points="302.63412 773.27066 322.5159 737.14396 325.10254 738.57657 305.07312 774.61759 302.63412 773.27066"/>
    <polygon class="cls-7" points="342.45416 701.04703 362.49521 665.00223 365.37085 666.61795 345.18723 702.56778 342.45416 701.04703"/>
    <path class="cls-7" d="M383.0051,629.13993l.7229-1.1272c.12909-.19299.25787-.38354.42178-.60388.09622-.12183.14496-.20605.37503-.44263.04504-.04211.04099-.04346.12811-.11707l.17664-.13464.01807-.02173.03876-.03943.04309-.03455.10229-.09998.20929-.20508.43158-.43408.8837-.91248,3.57553-3.72034c2.39944-2.47876,4.83395-4.92883,7.30444-7.34143,4.93625-4.83081,10.034-9.49731,15.25562-14.02148l2.26297,2.62598c-5.17273,4.46875-10.22507,9.07971-15.11938,13.85559-2.44986,2.38538-4.86343,4.80725-7.24759,7.26282l-3.57315,3.70703-.91064.93738-.47775.47888-.25162.24512-.12875.12439-.20309.17334-.20743.16833-.10504.08203c-.04132.03052.08487-.05505.11395-.08398l.06931-.06226c.07883-.08386-.00204.00415-.03531.05347l-.3158.45251-.66946,1.04126-2.88803-1.80591Z"/>
    <path class="cls-7" d="M445.82947,574.98929c11.6376-7.47986,23.88495-14.07056,36.71802-19.34387l1.36005,3.32007c-12.60843,5.15918-24.6796,11.62878-36.17221,18.99182l-1.90585-2.96802Z"/>
    <path class="cls-7" d="M522.56836,544.40152c6.88-1.02002,13.83582-1.57825,20.7998-1.60815,3.46301-.04626,7.08002.14563,10.55951.6875,3.49957.53064,6.94489,1.349,10.30688,2.39807l-1.10944,3.53955c-3.19659-1.00244-6.45612-1.78052-9.75146-2.2854-3.31458-.51526-6.58234-.69836-9.99036-.66089-6.78217.01904-13.56335.55286-20.28058,1.53845l-.53436-3.60913Z"/>
    <path class="cls-7" d="M600.5293,566.39457c10.83569,8.66736,20.64911,18.46252,29.87769,28.71094l-2.85181,2.55884c-9.11261-10.15125-18.7829-19.82349-29.37891-28.32373l2.35303-2.94604Z"/>
    <path class="cls-7" d="M656.51324,627.14237c8.27325,11.03076,16.17969,22.31946,23.86658,33.74402l-3.28217,2.20447c-7.6416-11.3938-15.49451-22.64075-23.69989-33.61487l3.11548-2.33362Z"/>
    <polygon class="cls-7" points="702.8797 695.5048 724.78766 730.44083 721.46967 732.53507 699.51221 697.63565 702.8797 695.5048"/>
    <path class="cls-7" d="M747.50128,764.6796c2.02075,2.74048,4.09204,5.4375,6.27246,8.00684,2.1994,2.57007,4.43579,4.99634,7.02191,7.04541,5.30872,4.35498,10.6394,8.65527,16.06146,12.83789l-2.32025,3.01099c-5.46765-4.20483-10.84253-8.52808-16.16681-12.88306-2.80957-2.22266-5.26038-4.87402-7.52563-7.51807-2.27057-2.66797-4.39105-5.42261-6.45282-8.20972l3.10968-2.29028Z"/>
    <path class="cls-7" d="M810.53583,815.96256c11.66296,7.08008,23.8291,13.39502,36.61865,17.95459l-1.22797,3.46997c-13.13135-4.66162-25.5033-11.07153-37.33295-18.22705l1.94226-3.19751Z"/>
    <path class="cls-7" d="M886.84235,843.71012c13.48328,2.38306,27.08594,4.18555,40.71442,5.8623l-.43402,3.55151c-13.65533-1.66309-27.31805-3.45508-40.91095-5.83984l.63055-3.57397Z"/>
    <path class="cls-7" d="M968.51141,854.77506c13.63654,2.12012,27.16919,4.73608,40.61438,7.771l-.75873,3.37427c-13.37439-2.99634-26.8526-5.57544-40.38336-7.6582l.52771-3.48706Z"/>
    <path class="cls-7" d="M1049.19092,872.52311c13.29602,3.45142,26.57617,6.8667,40.03113,9.32764l-.57202,3.15625c-13.60461-2.43018-26.99915-5.76221-40.30872-9.20312l.84961-3.28076Z"/>
    <path class="cls-7" d="M1130.03845,887.2819c13.64185,2.13721,27.10608,4.9978,40.56775,7.75854l-.56299,2.76392c-13.4762-2.70117-26.92798-5.49365-40.45886-7.55054l.4541-2.97192Z"/>
    <path class="cls-7" d="M1211.05273,902.75797c13.5293,2.21167,27.14307,3.92407,40.81213,4.61938l-.11841,2.44604c-13.79517-.6394-27.50867-2.30347-41.1134-4.46436l.41968-2.60107Z"/>
    <path class="cls-7" d="M1292.76343,905.70572l10.17297-1.61499c3.39954-.52344,6.80261-1.02441,10.20923-1.50122,6.81335-.95361,13.64087-1.81128,20.48169-2.55469l.22888,2.0647c-6.81433.77148-13.61633,1.65698-20.40491,2.63843-3.39429.49097-6.78516,1.00562-10.17273,1.54272l-10.17297,1.66211-.34216-2.23706Z"/>
    <path class="cls-7" d="M1374.83252,897.18375c13.76855-.33423,27.57446-.01099,41.29028,1.43164l-.1543,1.51025c-13.64075-1.33325-27.37927-1.55444-41.08411-1.12036l-.05188-1.82153Z"/>
    <path class="cls-7" d="M1456.49426,907.32096c3.25037,1.177,6.45264,2.49268,9.58154,3.96875,3.12939,1.46851,6.18274,3.12793,9.12683,4.92334,5.90894,3.55762,11.64478,7.38403,17.27637,11.34961l-.52148.74536c-5.64673-3.91431-11.39307-7.68652-17.29895-11.18311-2.94287-1.76489-5.95471-3.37231-9.06458-4.80444-3.10425-1.43652-6.28198-2.71484-9.50854-3.85645l.40881-1.14307Z"/>
    <path class="cls-7" d="M1525.14282,952.7631c10.57849,8.7854,20.92175,17.8479,31.06946,27.12085l-.12805.14136c-10.23682-9.17017-20.66528-18.12622-31.32153-26.79932l.38013-.46289Z"/>
  </g>
  <g>
    <path class="cls-12" d="M1152.76998,510.70653l-40.05753,24.83701s-5.31457,4.95139-.62751,12.61971c4.69662,7.65921,14.0067,2.36184,14.0067,2.36184,0,0,38.48843-17.87758,38.83583-21.0037.34772-3.13998,5.49715-13.65909-12.15748-18.81486"/>
    <polygon class="cls-15" points="1248.95621 560.58662 1205.20569 556.28857 1183.96788 582.29361 1226.68923 590.70778 1248.95621 560.58662"/>
    <polygon class="cls-15" points="1199.78708 555.06349 1161.77221 535.25274 1130.80703 551.44426 1179.15407 580.79078 1199.78708 555.06349"/>
    <polygon class="cls-15" points="1134.1283 517.93063 1103.31317 501.8787 1083.45026 510.51542 1111.50309 530.8372 1134.1283 517.93063"/>
    <polygon class="cls-15" points="1088.26705 472.71261 1099.9054 498.58594 1079.24576 507.18522 1069.86332 478.65755 1088.26705 472.71261"/>
    <path class="cls-12" d="M1130.12045,600.13364s17.80675-14.23052-7.52218-52.50084c-18.14399-27.41338-38.3772-28.41545-48.39316-25.03568-10.01607,3.38437,55.91534,77.53652,55.91534,77.53652"/>
    <path class="cls-9" d="M1110.51609,554.29786c-15.57841-20.6112-33.35787-33.42942-39.7027-28.6322-6.3496,4.80171,1.13846,25.39794,16.72175,45.99999,15.57841,20.6112,33.35321,33.42931,39.70281,28.62761,6.34497-4.79722-1.14309-25.39338-16.72186-45.99539"/>
    <path class="cls-1" d="M1112.01463,552.68266c-15.57841-20.6112-33.35787-33.42942-39.7027-28.6322-6.3496,4.80171,1.13846,25.39794,16.72175,45.99999,15.57841,20.6112,33.35321,33.42931,39.70281,28.62761,6.34497-4.79722-1.14309-25.39338-16.72186-45.99539Z"/>
    <path class="cls-12" d="M1110.88185,557.53719s-31.91024,27.14845-34.56825,25.63439c-2.6579-1.51866,1.71044-5.67174,1.71044-5.67174l33.19434-28.11954-.33653,8.15689Z"/>
  </g>
  <g>
    <path class="cls-8" d="M1217.94629,513.27115c0-1.16211-.41113-2.05469-1.23145-2.67676-.82031-.62305-2.29785-1.2793-4.43164-1.96973s-3.82324-1.37109-5.06836-2.04199c-3.3916-1.83301-5.08789-4.30176-5.08789-7.40625,0-1.61426.45508-3.05371,1.36426-4.31934.91016-1.26465,2.21582-2.25293,3.91895-2.96484,1.70312-.71094,3.61426-1.06641,5.73438-1.06641,2.13379,0,4.03516.38672,5.7041,1.15918s2.96484,1.86328,3.8877,3.27246c.92383,1.40918,1.38477,3.00879,1.38477,4.80078h-6.1543c0-1.36719-.43164-2.43164-1.29297-3.19043s-2.07227-1.13867-3.63184-1.13867c-1.50488,0-2.67383.31836-3.50781.9541-.83496.63574-1.25195,1.47363-1.25195,2.51367,0,.9707.48926,1.78516,1.4668,2.44141s2.41797,1.27148,4.31934,1.84668c3.50098,1.05273,6.05273,2.35938,7.65234,3.91895,1.60059,1.55859,2.40039,3.50098,2.40039,5.82617,0,2.58594-.97754,4.61328-2.93359,6.08398-1.95605,1.46973-4.58887,2.20508-7.89941,2.20508-2.29785,0-4.39062-.4209-6.27832-1.26172-1.88672-.84082-3.32715-1.99316-4.31836-3.45703-.99219-1.46387-1.4873-3.16016-1.4873-5.08789h6.17578c0,3.2959,1.96875,4.94434,5.9082,4.94434,1.46387,0,2.60645-.29785,3.42676-.89258s1.23145-1.42578,1.23145-2.49316Z"/>
    <path class="cls-8" d="M1240.76074,521.10904c-.27344-.5332-.47168-1.19629-.59473-1.99023-1.43652,1.60059-3.30371,2.40039-5.60156,2.40039-2.1748,0-3.97656-.62891-5.40625-1.8877-1.42969-1.25781-2.14355-2.84473-2.14355-4.75977,0-2.35254.87207-4.1582,2.61523-5.41602,1.74414-1.25879,4.26465-1.89453,7.56055-1.9082h2.72949v-1.27246c0-1.02539-.26367-1.84668-.79004-2.46191-.52734-.61523-1.35742-.92383-2.49316-.92383-.99805,0-1.78125.24023-2.34863.71875-.56836.47852-.85156,1.13574-.85156,1.96973h-5.92969c0-1.28613.39648-2.47559,1.18945-3.57031.79395-1.09375,1.91504-1.95215,3.36523-2.5752,1.44922-.62207,3.07715-.93359,4.88281-.93359,2.73535,0,4.90723.6875,6.51465,2.0625,1.60742,1.37402,2.41113,3.30664,2.41113,5.7959v9.62305c.0127,2.10645.30762,3.7002.88184,4.78027v.34863h-5.99121ZM1235.85742,516.98502c.875,0,1.68262-.19531,2.4209-.58496s1.28516-.91309,1.6416-1.56934v-3.81641h-2.21582c-2.96875,0-4.54883,1.02637-4.74023,3.07812l-.02051.34863c0,.73828.25977,1.34766.78027,1.82617.51953.47852,1.23047.71777,2.13379.71777Z"/>
    <path class="cls-8" d="M1257.52344,493.45182v5.45801h3.7959v4.34961h-3.7959v11.0791c0,.82031.15723,1.40918.47266,1.76465.31445.35547.91602.5332,1.80469.5332.65723,0,1.23828-.04785,1.74414-.14355v4.49316c-1.16211.35547-2.35938.5332-3.58984.5332-4.1582,0-6.27832-2.09961-6.36035-6.29883v-11.96094h-3.24219v-4.34961h3.24219v-5.45801h5.92871Z"/>
    <path class="cls-8" d="M1274.84082,521.5192c-3.25586,0-5.90625-.99805-7.9502-2.99512-2.04492-1.99707-3.06738-4.65723-3.06738-7.98145v-.57422c0-2.22949.43066-4.22363,1.29199-5.98145.8623-1.75684,2.08301-3.11133,3.66309-4.06152,1.5791-.95117,3.38184-1.42676,5.40625-1.42676,3.03613,0,5.42676.95801,7.16992,2.87305,1.74414,1.91504,2.61621,4.62988,2.61621,8.14551v2.4209h-14.13574c.19043,1.44922.76855,2.6123,1.7334,3.4873.96387.87598,2.18457,1.31348,3.66211,1.31348,2.28418,0,4.06934-.82715,5.35547-2.48242l2.91309,3.26172c-.88965,1.25879-2.09277,2.24023-3.61133,2.94434-1.51758.7041-3.2002,1.05664-5.04688,1.05664ZM1274.16406,503.27994c-1.17676,0-2.13086.39844-2.8623,1.19531-.73242.79688-1.2002,1.9375-1.40527,3.4209h8.24707v-.47461c-.02734-1.31836-.38281-2.33887-1.06641-3.05957-.68457-.72168-1.65527-1.08203-2.91309-1.08203Z"/>
    <path class="cls-8" d="M1293.59375,521.10904h-5.9502v-31.51465h5.9502v31.51465Z"/>
    <path class="cls-8" d="M1304.73438,521.10904h-5.9502v-31.51465h5.9502v31.51465Z"/>
    <path class="cls-8" d="M1309.57617,493.16471c0-.88867.29785-1.62109.89258-2.19531s1.40527-.8623,2.43164-.8623c1.01172,0,1.81836.28809,2.4209.8623.60156.57422.90234,1.30664.90234,2.19531,0,.90234-.30469,1.6416-.91309,2.21582s-1.41211.86133-2.41016.86133c-.99902,0-1.80273-.28711-2.41113-.86133s-.91309-1.31348-.91309-2.21582ZM1315.875,521.10904h-5.9502v-22.19922h5.9502v22.19922Z"/>
    <path class="cls-8" d="M1327.85645,493.45182v5.45801h3.7959v4.34961h-3.7959v11.0791c0,.82031.15723,1.40918.47266,1.76465.31445.35547.91602.5332,1.80469.5332.65723,0,1.23828-.04785,1.74414-.14355v4.49316c-1.16211.35547-2.35938.5332-3.58984.5332-4.1582,0-6.27832-2.09961-6.36035-6.29883v-11.96094h-3.24219v-4.34961h3.24219v-5.45801h5.92871Z"/>
    <path class="cls-8" d="M1345.17383,521.5192c-3.25586,0-5.90625-.99805-7.9502-2.99512-2.04492-1.99707-3.06738-4.65723-3.06738-7.98145v-.57422c0-2.22949.43066-4.22363,1.29199-5.98145.8623-1.75684,2.08301-3.11133,3.66309-4.06152,1.5791-.95117,3.38184-1.42676,5.40625-1.42676,3.03613,0,5.42676.95801,7.16992,2.87305,1.74414,1.91504,2.61621,4.62988,2.61621,8.14551v2.4209h-14.13574c.19043,1.44922.76855,2.6123,1.7334,3.4873.96387.87598,2.18457,1.31348,3.66211,1.31348,2.28418,0,4.06934-.82715,5.35547-2.48242l2.91309,3.26172c-.88965,1.25879-2.09277,2.24023-3.61133,2.94434-1.51758.7041-3.2002,1.05664-5.04688,1.05664ZM1344.49707,503.27994c-1.17676,0-2.13086.39844-2.8623,1.19531-.73242.79688-1.2002,1.9375-1.40527,3.4209h8.24707v-.47461c-.02734-1.31836-.38281-2.33887-1.06641-3.05957-.68457-.72168-1.65527-1.08203-2.91309-1.08203Z"/>
  </g>
  <g>
    <path class="cls-6" d="M1645.00236,1069.56659c0,10.79459-26.92448,19.54069-60.13675,19.54069-33.20297,0-60.12715-8.7461-60.12715-19.54069s26.92419-19.55,60.12715-19.55c33.21227,0,60.13675,8.75555,60.13675,19.55"/>
    <path class="cls-9" d="M1619.00102,1068.24803c0,6.11669-15.28191,11.08985-34.12698,11.08985s-34.13657-4.97316-34.13657-11.08985c0-6.13559,15.29121-11.0993,34.13657-11.0993s34.12698,4.96371,34.12698,11.0993"/>
    <path class="cls-6" d="M1600.51997,1067.56491c0,2.56298-6.38345,4.63996-14.24363,4.63996s-14.24334-2.07698-14.24334-4.63996c0-2.55324,6.38345-4.63022,14.24334-4.63022s14.24363,2.07698,14.24363,4.63022"/>
  </g>
  <g>
    <path class="cls-8" d="M1277.91699,1049.4567v-29.87305h9.19238c2.62598,0,4.97461.5918,7.04688,1.77441,2.07227,1.18359,3.69043,2.86621,4.85254,5.04785s1.74414,4.66016,1.74414,7.4375v1.37402c0,2.77734-.57129,5.24609-1.71289,7.40723-1.14258,2.16113-2.75293,3.83691-4.83203,5.02637-2.0791,1.19043-4.4248,1.79199-7.03711,1.80566h-9.25391ZM1284.07227,1024.569v19.94336h2.97559c2.40723,0,4.24707-.78711,5.51855-2.35938,1.27246-1.57324,1.92188-3.82324,1.94922-6.75098v-1.5791c0-3.03711-.62891-5.33789-1.8877-6.9043s-3.09766-2.34961-5.51855-2.34961h-3.03711Z"/>
    <path class="cls-8" d="M1315.05371,1049.86686c-3.25586,0-5.90625-.99805-7.9502-2.99512-2.04492-1.99707-3.06738-4.65723-3.06738-7.98145v-.57422c0-2.22949.43066-4.22363,1.29199-5.98145.8623-1.75684,2.08301-3.11133,3.66309-4.06152,1.5791-.95117,3.38184-1.42676,5.40625-1.42676,3.03613,0,5.42676.95801,7.16992,2.87305,1.74414,1.91504,2.61621,4.62988,2.61621,8.14551v2.4209h-14.13574c.19043,1.44922.76855,2.6123,1.7334,3.4873.96387.87598,2.18457,1.31348,3.66211,1.31348,2.28418,0,4.06934-.82715,5.35547-2.48242l2.91309,3.26172c-.88965,1.25879-2.09277,2.24023-3.61133,2.94434-1.51758.7041-3.2002,1.05664-5.04688,1.05664ZM1314.37695,1031.6276c-1.17676,0-2.13086.39844-2.8623,1.19531-.73242.79688-1.2002,1.9375-1.40527,3.4209h8.24707v-.47461c-.02734-1.31836-.38281-2.33887-1.06641-3.05957-.68457-.72168-1.65527-1.08203-2.91309-1.08203Z"/>
    <path class="cls-8" d="M1334.64746,1021.79947v5.45801h3.7959v4.34961h-3.7959v11.0791c0,.82031.15723,1.40918.47266,1.76465.31445.35547.91602.5332,1.80469.5332.65723,0,1.23828-.04785,1.74414-.14355v4.49316c-1.16211.35547-2.35938.5332-3.58984.5332-4.1582,0-6.27832-2.09961-6.36035-6.29883v-11.96094h-3.24219v-4.34961h3.24219v-5.45801h5.92871Z"/>
    <path class="cls-8" d="M1340.82324,1038.15201c0-2.20215.42383-4.16504,1.27148-5.88867.84863-1.72363,2.06934-3.05762,3.66211-4.00098,1.59375-.94336,3.44336-1.41602,5.55078-1.41602,2.99512,0,5.43945.91699,7.33496,2.75,1.89355,1.83301,2.9502,4.32227,3.16895,7.46777l.04199,1.51855c0,3.40527-.95117,6.1377-2.85254,8.19629s-4.45215,3.08789-7.65234,3.08789c-3.20117,0-5.75586-1.02539-7.66406-3.07715-1.90723-2.05176-2.86133-4.84277-2.86133-8.37109v-.2666ZM1346.75195,1038.57291c0,2.10938.39648,3.72266,1.19043,4.83887.79297,1.11621,1.92871,1.6748,3.40625,1.6748,1.43555,0,2.55762-.55176,3.36426-1.6543s1.21094-2.86621,1.21094-5.29102c0-2.06836-.4043-3.67188-1.21094-4.80859s-1.94238-1.70508-3.40527-1.70508c-1.4502,0-2.57227.56445-3.36523,1.69531-.79395,1.12988-1.19043,2.87988-1.19043,5.25Z"/>
    <path class="cls-8" d="M1370.96289,1027.25748l.18457,2.56445c1.58594-1.9834,3.71289-2.97559,6.38086-2.97559,2.35254,0,4.10352.69141,5.25195,2.07227,1.14941,1.38184,1.7373,3.44727,1.76465,6.19629v14.3418h-5.92969v-14.23047c0-1.26172-.27344-2.17676-.82031-2.74609-.54785-.56836-1.45703-.85254-2.72852-.85254-1.66895,0-2.9209.71289-3.75488,2.13867v15.69043h-5.92969v-22.19922h5.58105Z"/>
    <path class="cls-8" d="M1401.90234,1049.4567c-.27344-.5332-.47168-1.19629-.59473-1.99023-1.43652,1.60059-3.30371,2.40039-5.60156,2.40039-2.1748,0-3.97656-.62891-5.40625-1.8877-1.42969-1.25781-2.14355-2.84473-2.14355-4.75977,0-2.35254.87207-4.1582,2.61523-5.41602,1.74414-1.25879,4.26465-1.89453,7.56055-1.9082h2.72949v-1.27246c0-1.02539-.26367-1.84668-.79004-2.46191-.52734-.61523-1.35742-.92383-2.49316-.92383-.99805,0-1.78125.24023-2.34863.71875-.56836.47852-.85156,1.13574-.85156,1.96973h-5.92969c0-1.28613.39648-2.47559,1.18945-3.57031.79395-1.09375,1.91504-1.95215,3.36523-2.5752,1.44922-.62207,3.07715-.93359,4.88281-.93359,2.73535,0,4.90723.6875,6.51465,2.0625,1.60742,1.37402,2.41113,3.30664,2.41113,5.7959v9.62305c.0127,2.10645.30762,3.7002.88184,4.78027v.34863h-5.99121ZM1396.99902,1045.33268c.875,0,1.68262-.19531,2.4209-.58496s1.28516-.91309,1.6416-1.56934v-3.81641h-2.21582c-2.96875,0-4.54883,1.02637-4.74023,3.07812l-.02051.34863c0,.73828.25977,1.34766.78027,1.82617.51953.47852,1.23047.71777,2.13379.71777Z"/>
    <path class="cls-8" d="M1418.66504,1021.79947v5.45801h3.7959v4.34961h-3.7959v11.0791c0,.82031.15723,1.40918.47266,1.76465.31445.35547.91602.5332,1.80469.5332.65723,0,1.23828-.04785,1.74414-.14355v4.49316c-1.16211.35547-2.35938.5332-3.58984.5332-4.1582,0-6.27832-2.09961-6.36035-6.29883v-11.96094h-3.24219v-4.34961h3.24219v-5.45801h5.92871Z"/>
    <path class="cls-8" d="M1425.72363,1021.51236c0-.88867.29785-1.62109.89258-2.19531s1.40527-.8623,2.43164-.8623c1.01172,0,1.81836.28809,2.4209.8623.60156.57422.90234,1.30664.90234,2.19531,0,.90234-.30469,1.6416-.91309,2.21582s-1.41211.86133-2.41016.86133c-.99902,0-1.80273-.28711-2.41113-.86133s-.91309-1.31348-.91309-2.21582ZM1432.02246,1049.4567h-5.9502v-22.19922h5.9502v22.19922Z"/>
    <path class="cls-8" d="M1435.98242,1038.15201c0-2.20215.42383-4.16504,1.27148-5.88867.84863-1.72363,2.06934-3.05762,3.66211-4.00098,1.59375-.94336,3.44336-1.41602,5.55078-1.41602,2.99512,0,5.43945.91699,7.33496,2.75,1.89355,1.83301,2.9502,4.32227,3.16895,7.46777l.04199,1.51855c0,3.40527-.95117,6.1377-2.85254,8.19629s-4.45215,3.08789-7.65234,3.08789c-3.20117,0-5.75586-1.02539-7.66406-3.07715-1.90723-2.05176-2.86133-4.84277-2.86133-8.37109v-.2666ZM1441.91113,1038.57291c0,2.10938.39648,3.72266,1.19043,4.83887.79297,1.11621,1.92871,1.6748,3.40625,1.6748,1.43555,0,2.55762-.55176,3.36426-1.6543s1.21094-2.86621,1.21094-5.29102c0-2.06836-.4043-3.67188-1.21094-4.80859s-1.94238-1.70508-3.40527-1.70508c-1.4502,0-2.57227.56445-3.36523,1.69531-.79395,1.12988-1.19043,2.87988-1.19043,5.25Z"/>
    <path class="cls-8" d="M1466.12207,1027.25748l.18457,2.56445c1.58594-1.9834,3.71289-2.97559,6.38086-2.97559,2.35254,0,4.10352.69141,5.25195,2.07227,1.14941,1.38184,1.7373,3.44727,1.76465,6.19629v14.3418h-5.92969v-14.23047c0-1.26172-.27344-2.17676-.82031-2.74609-.54785-.56836-1.45703-.85254-2.72852-.85254-1.66895,0-2.9209.71289-3.75488,2.13867v15.69043h-5.92969v-22.19922h5.58105Z"/>
  </g>
  <g>
    <line class="cls-4" x1="1070.76835" y1="627.11993" x2="871.96268" y2="755.53315"/>
    <polyline class="cls-4" points="908.07362 763.26377 871.95473 755.53979 879.76326 719.43912"/>
  </g>
  <g>
    <line class="cls-4" x1="1128.14774" y1="635.59938" x2="1167.43777" y2="833.9022"/>
    <polyline class="cls-4" points="1187.94694 803.19169 1167.44101 833.91204 1136.76878 813.33425"/>
  </g>
  <g>
    <path class="cls-8" d="M564.88477,761.28482c-1.10742,1.32715-2.67383,2.35645-4.69824,3.08789s-4.26758,1.09766-6.72949,1.09766c-2.58496,0-4.85254-.56445-6.80176-1.69238-1.94922-1.12891-3.4541-2.7666-4.51367-4.91406s-1.60352-4.6709-1.63086-7.57031v-2.03125c0-2.98242.50293-5.56348,1.50781-7.74609,1.00586-2.18066,2.45508-3.84961,4.34961-5.00586,1.89453-1.15527,4.11426-1.7334,6.6582-1.7334,3.54199,0,6.3125.84473,8.30957,2.5332,1.99707,1.68945,3.17969,4.14844,3.54883,7.37598h-5.99023c-.27441-1.70898-.87988-2.96094-1.81641-3.75391s-2.22559-1.19043-3.86719-1.19043c-2.09277,0-3.68652.78711-4.78027,2.35938-1.09473,1.57324-1.64844,3.91211-1.66211,7.01758v1.90723c0,3.13281.59473,5.49902,1.78516,7.09961,1.18945,1.59961,2.93359,2.40039,5.23145,2.40039,2.31152,0,3.95996-.49219,4.94434-1.47754v-5.14941h-5.60059v-4.53418h11.75586v11.91992Z"/>
    <path class="cls-8" d="M575.73828,765.06022h-5.9502v-31.51465h5.9502v31.51465Z"/>
    <path class="cls-8" d="M580.58008,737.11588c0-.88867.29785-1.62109.89258-2.19531s1.40527-.8623,2.43164-.8623c1.01172,0,1.81836.28809,2.4209.8623.60156.57422.90234,1.30664.90234,2.19531,0,.90234-.30469,1.6416-.91309,2.21582s-1.41211.86133-2.41016.86133c-.99902,0-1.80273-.28711-2.41113-.86133s-.91309-1.31348-.91309-2.21582ZM586.87891,765.06022h-5.9502v-22.19922h5.9502v22.19922Z"/>
    <path class="cls-8" d="M590.83887,753.79654c0-3.46094.77539-6.2168,2.32812-8.26855s3.67578-3.07812,6.37109-3.07812c2.16113,0,3.94531.80762,5.35449,2.42188v-11.32617h5.9502v31.51465h-5.35449l-.28809-2.35938c-1.47656,1.84668-3.37793,2.76953-5.70312,2.76953-2.61328,0-4.70898-1.0293-6.28906-3.08789-1.5791-2.05859-2.36914-4.91992-2.36914-8.58594ZM596.76758,754.21842c0,2.08789.3623,3.68945,1.08789,4.80176.72461,1.11328,1.77832,1.66992,3.15918,1.66992,1.83301,0,3.12598-.77637,3.87793-2.3291v-8.80078c-.73828-1.55273-2.01758-2.3291-3.83691-2.3291-2.8584,0-4.28809,2.3291-4.28809,6.9873Z"/>
    <path class="cls-8" d="M625.65625,765.47037c-3.25586,0-5.90625-.99805-7.9502-2.99512-2.04492-1.99707-3.06738-4.65723-3.06738-7.98145v-.57422c0-2.22949.43066-4.22363,1.29199-5.98145.8623-1.75684,2.08301-3.11133,3.66309-4.06152,1.5791-.95117,3.38184-1.42676,5.40625-1.42676,3.03613,0,5.42676.95801,7.16992,2.87305,1.74414,1.91504,2.61621,4.62988,2.61621,8.14551v2.4209h-14.13574c.19043,1.44922.76855,2.6123,1.7334,3.4873.96387.87598,2.18457,1.31348,3.66211,1.31348,2.28418,0,4.06934-.82715,5.35547-2.48242l2.91309,3.26172c-.88965,1.25879-2.09277,2.24023-3.61133,2.94434-1.51758.7041-3.2002,1.05664-5.04688,1.05664ZM624.97949,747.23111c-1.17676,0-2.13086.39844-2.8623,1.19531-.73242.79688-1.2002,1.9375-1.40527,3.4209h8.24707v-.47461c-.02734-1.31836-.38281-2.33887-1.06641-3.05957-.68457-.72168-1.65527-1.08203-2.91309-1.08203Z"/>
    <path class="cls-8" d="M650.62598,748.42057c-.80762-.10938-1.51855-.16406-2.13379-.16406-2.24316,0-3.71387.75879-4.41113,2.27734v14.52637h-5.92969v-22.19922h5.60156l.16406,2.64648c1.18945-2.03809,2.83789-3.05762,4.94434-3.05762.65625,0,1.27246.08984,1.84668.26758l-.08203,5.70312Z"/>
  </g>
  <g>
    <path class="cls-8" d="M757.62695,900.46549l.18457,2.48242c1.57227-1.92871,3.69922-2.89355,6.38086-2.89355,2.8584,0,4.82129,1.12891,5.88867,3.38574,1.55859-2.25684,3.78125-3.38574,6.66797-3.38574,2.40723,0,4.19824.70117,5.375,2.10352s1.76465,3.51172,1.76465,6.3291v14.17773h-5.9502v-14.18945c0-1.26172-.24609-2.18262-.73828-2.76562s-1.36133-.87402-2.60547-.87402c-1.77832,0-3.00977.84961-3.69336,2.5498l.02051,15.2793h-5.92969v-14.16895c0-1.28906-.25293-2.2207-.75879-2.79688-.50684-.57617-1.36816-.86328-2.58496-.86328-1.68262,0-2.90039.69922-3.65234,2.09766v15.73145h-5.92969v-22.19922h5.56055Z"/>
    <path class="cls-8" d="M801.30762,922.66471c-.27344-.5332-.47168-1.19629-.59473-1.99023-1.43652,1.60059-3.30371,2.40039-5.60156,2.40039-2.1748,0-3.97656-.62891-5.40625-1.8877-1.42969-1.25781-2.14355-2.84473-2.14355-4.75977,0-2.35254.87207-4.1582,2.61523-5.41602,1.74414-1.25879,4.26465-1.89453,7.56055-1.9082h2.72949v-1.27246c0-1.02539-.26367-1.84668-.79004-2.46191-.52734-.61523-1.35742-.92383-2.49316-.92383-.99805,0-1.78125.24023-2.34863.71875-.56836.47852-.85156,1.13574-.85156,1.96973h-5.92969c0-1.28613.39648-2.47559,1.18945-3.57031.79395-1.09375,1.91504-1.95215,3.36523-2.5752,1.44922-.62207,3.07715-.93359,4.88281-.93359,2.73535,0,4.90723.6875,6.51465,2.0625,1.60742,1.37402,2.41113,3.30664,2.41113,5.7959v9.62305c.0127,2.10645.30762,3.7002.88184,4.78027v.34863h-5.99121ZM796.4043,918.54068c.875,0,1.68262-.19531,2.4209-.58496s1.28516-.91309,1.6416-1.56934v-3.81641h-2.21582c-2.96875,0-4.54883,1.02637-4.74023,3.07812l-.02051.34863c0,.73828.25977,1.34766.78027,1.82617.51953.47852,1.23047.71777,2.13379.71777Z"/>
    <path class="cls-8" d="M820.2041,918.29459c1.09473,0,1.9834-.30078,2.66797-.90234.68359-.60254,1.03906-1.40234,1.06641-2.40137h5.56055c-.01367,1.50488-.4248,2.88281-1.23145,4.13477-.80664,1.25098-1.91113,2.22266-3.31348,2.91309s-2.95117,1.03613-4.64746,1.03613c-3.17285,0-5.67578-1.00879-7.50879-3.02637s-2.74902-4.80371-2.74902-8.36035v-.38965c0-3.41992.90918-6.14844,2.72852-8.18652s4.31543-3.05762,7.48828-3.05762c2.77734,0,5.00293.79004,6.67871,2.37012s2.52734,3.68262,2.55469,6.30859h-5.56055c-.02734-1.1543-.38281-2.09277-1.06641-2.81445-.68457-.72266-1.58691-1.08301-2.70898-1.08301-1.38086,0-2.42383.50293-3.12891,1.50977-.7041,1.00684-1.05664,2.64062-1.05664,4.90039v.61719c0,2.28809.34961,3.93164,1.04688,4.93164s1.75781,1.5,3.17969,1.5Z"/>
    <path class="cls-8" d="M838.66992,902.88639c1.57227-1.8877,3.54883-2.83203,5.92969-2.83203,4.81445,0,7.25586,2.79785,7.32422,8.3916v14.21875h-5.92969v-14.08691c0-1.27441-.27344-2.2168-.82031-2.82715-.54785-.61035-1.45703-.91504-2.72852-.91504-1.7373,0-2.99609.67188-3.77539,2.01465v15.81445h-5.92969v-31.51465h5.92969v11.73633Z"/>
    <path class="cls-8" d="M879.1709,906.3942c0,2.54492-.63672,4.61035-1.9082,6.19629-1.27246,1.58691-2.91309,2.37988-4.92383,2.37988-1.0127,0-1.95312-.19434-2.82129-.58398-.86914-.39062-1.87109-1.12891-3.00586-2.21582-1.13574-1.08789-2.18164-1.63184-3.13965-1.63184-.79297,0-1.43555.34277-1.92871,1.02637-.49219.68359-.73828,1.55957-.73828,2.62598l-4.41113-.04102c0-2.54395.61914-4.58887,1.85645-6.13477,1.23828-1.5459,2.88281-2.31836,4.93457-2.31836,1.06738,0,2.03809.20508,2.91406.61523.875.41113,1.87012,1.14648,2.98438,2.20605,1.11523,1.05957,2.13086,1.58984,3.04688,1.58984.80762,0,1.46777-.3623,1.98047-1.08691.5127-.72559.76953-1.60742.76953-2.64746l4.39062.02051Z"/>
    <path class="cls-8" d="M897.80078,922.66471h-5.92969v-22.8877l-7.07812,2.18555v-4.78027l12.37109-4.43164h.63672v29.91406Z"/>
    <path class="cls-8" d="M927.61133,910.31315c0,4.13086-.85449,7.29102-2.56445,9.47949s-4.21289,3.28223-7.50879,3.28223c-3.25586,0-5.74512-1.07324-7.46875-3.2207s-2.60547-5.22559-2.64648-9.2334v-5.49805c0-4.17188.86523-7.33789,2.5957-9.5,1.72949-2.16113,4.22266-3.24121,7.47852-3.24121,3.25488,0,5.74414,1.07031,7.46777,3.21094s2.60547,5.21484,2.64648,9.22266v5.49805ZM921.68262,904.26822c0-2.47852-.33887-4.28223-1.01562-5.41211-.67773-1.12988-1.73438-1.69434-3.16992-1.69434-1.39551,0-2.4248.53809-3.08789,1.6123-.66406,1.0752-1.01562,2.75488-1.05664,5.04199v7.26953c0,2.4375.33105,4.24805.99512,5.43262.66309,1.18457,1.72656,1.77637,3.19043,1.77637,1.44922,0,2.49609-.56836,3.13867-1.7041.64258-1.13672.97754-2.875,1.00586-5.2168v-7.10547Z"/>
  </g>
  <g>
    <path class="cls-8" d="M494.19336,336.51139c0-1.16211-.41113-2.05469-1.23145-2.67676-.82031-.62305-2.29785-1.2793-4.43164-1.96973s-3.82324-1.37109-5.06836-2.04199c-3.3916-1.83301-5.08789-4.30176-5.08789-7.40625,0-1.61426.45508-3.05371,1.36426-4.31934.91016-1.26465,2.21582-2.25293,3.91895-2.96484,1.70312-.71094,3.61426-1.06641,5.73438-1.06641,2.13379,0,4.03516.38672,5.7041,1.15918s2.96484,1.86328,3.8877,3.27246c.92383,1.40918,1.38477,3.00879,1.38477,4.80078h-6.1543c0-1.36719-.43164-2.43164-1.29297-3.19043s-2.07227-1.13867-3.63184-1.13867c-1.50488,0-2.67383.31836-3.50781.9541-.83496.63574-1.25195,1.47363-1.25195,2.51367,0,.9707.48926,1.78516,1.4668,2.44141s2.41797,1.27148,4.31934,1.84668c3.50098,1.05273,6.05273,2.35938,7.65234,3.91895,1.60059,1.55859,2.40039,3.50098,2.40039,5.82617,0,2.58594-.97754,4.61328-2.93359,6.08398-1.95605,1.46973-4.58887,2.20508-7.89941,2.20508-2.29785,0-4.39062-.4209-6.27832-1.26172-1.88672-.84082-3.32715-1.99316-4.31836-3.45703-.99219-1.46387-1.4873-3.16016-1.4873-5.08789h6.17578c0,3.2959,1.96875,4.94434,5.9082,4.94434,1.46387,0,2.60645-.29785,3.42676-.89258s1.23145-1.42578,1.23145-2.49316Z"/>
    <path class="cls-8" d="M514.36133,344.75943c-3.25586,0-5.90625-.99805-7.9502-2.99512-2.04492-1.99707-3.06738-4.65723-3.06738-7.98145v-.57422c0-2.22949.43066-4.22363,1.29199-5.98145.8623-1.75684,2.08301-3.11133,3.66309-4.06152,1.5791-.95117,3.38184-1.42676,5.40625-1.42676,3.03613,0,5.42676.95801,7.16992,2.87305,1.74414,1.91504,2.61621,4.62988,2.61621,8.14551v2.4209h-14.13574c.19043,1.44922.76855,2.6123,1.7334,3.4873.96387.87598,2.18457,1.31348,3.66211,1.31348,2.28418,0,4.06934-.82715,5.35547-2.48242l2.91309,3.26172c-.88965,1.25879-2.09277,2.24023-3.61133,2.94434-1.51758.7041-3.2002,1.05664-5.04688,1.05664ZM513.68457,326.52018c-1.17676,0-2.13086.39844-2.8623,1.19531-.73242.79688-1.2002,1.9375-1.40527,3.4209h8.24707v-.47461c-.02734-1.31836-.38281-2.33887-1.06641-3.05957-.68457-.72168-1.65527-1.08203-2.91309-1.08203Z"/>
    <path class="cls-8" d="M546.83984,333.45475c0,3.41992-.77637,6.1582-2.32812,8.2168-1.55273,2.05859-3.64941,3.08789-6.28906,3.08789-2.24316,0-4.05566-.7793-5.43652-2.33887v10.46387h-5.92969v-30.73438h5.49902l.20508,2.1748c1.43555-1.72363,3.30957-2.58594,5.62109-2.58594,2.73633,0,4.86328,1.0127,6.38086,3.03711,1.51855,2.02441,2.27734,4.81445,2.27734,8.37109v.30762ZM540.91113,333.0026c0-2.07129-.36621-3.66992-1.09766-4.79492-.73242-1.125-1.7959-1.6875-3.19043-1.6875-1.86035,0-3.13965.71289-3.83691,2.13965v9.11719c.72461,1.46875,2.01758,2.20215,3.87793,2.20215,2.83105,0,4.24707-2.3252,4.24707-6.97656Z"/>
    <path class="cls-8" d="M560.73047,344.75943c-3.25586,0-5.90625-.99805-7.9502-2.99512-2.04492-1.99707-3.06738-4.65723-3.06738-7.98145v-.57422c0-2.22949.43066-4.22363,1.29199-5.98145.8623-1.75684,2.08301-3.11133,3.66309-4.06152,1.5791-.95117,3.38184-1.42676,5.40625-1.42676,3.03613,0,5.42676.95801,7.16992,2.87305,1.74414,1.91504,2.61621,4.62988,2.61621,8.14551v2.4209h-14.13574c.19043,1.44922.76855,2.6123,1.7334,3.4873.96387.87598,2.18457,1.31348,3.66211,1.31348,2.28418,0,4.06934-.82715,5.35547-2.48242l2.91309,3.26172c-.88965,1.25879-2.09277,2.24023-3.61133,2.94434-1.51758.7041-3.2002,1.05664-5.04688,1.05664ZM560.05371,326.52018c-1.17676,0-2.13086.39844-2.8623,1.19531-.73242.79688-1.2002,1.9375-1.40527,3.4209h8.24707v-.47461c-.02734-1.31836-.38281-2.33887-1.06641-3.05957-.68457-.72168-1.65527-1.08203-2.91309-1.08203Z"/>
    <path class="cls-8" d="M585.7002,327.70963c-.80762-.10938-1.51855-.16406-2.13379-.16406-2.24316,0-3.71387.75879-4.41113,2.27734v14.52637h-5.92969v-22.19922h5.60156l.16406,2.64648c1.18945-2.03809,2.83789-3.05762,4.94434-3.05762.65625,0,1.27246.08984,1.84668.26758l-.08203,5.70312Z"/>
    <path class="cls-8" d="M601.41602,344.34928c-.27344-.5332-.47168-1.19629-.59473-1.99023-1.43652,1.60059-3.30371,2.40039-5.60156,2.40039-2.1748,0-3.97656-.62891-5.40625-1.8877-1.42969-1.25781-2.14355-2.84473-2.14355-4.75977,0-2.35254.87207-4.1582,2.61523-5.41602,1.74414-1.25879,4.26465-1.89453,7.56055-1.9082h2.72949v-1.27246c0-1.02539-.26367-1.84668-.79004-2.46191-.52734-.61523-1.35742-.92383-2.49316-.92383-.99805,0-1.78125.24023-2.34863.71875-.56836.47852-.85156,1.13574-.85156,1.96973h-5.92969c0-1.28613.39648-2.47559,1.18945-3.57031.79395-1.09375,1.91504-1.95215,3.36523-2.5752,1.44922-.62207,3.07715-.93359,4.88281-.93359,2.73535,0,4.90723.6875,6.51465,2.0625,1.60742,1.37402,2.41113,3.30664,2.41113,5.7959v9.62305c.0127,2.10645.30762,3.7002.88184,4.78027v.34863h-5.99121ZM596.5127,340.22525c.875,0,1.68262-.19531,2.4209-.58496s1.28516-.91309,1.6416-1.56934v-3.81641h-2.21582c-2.96875,0-4.54883,1.02637-4.74023,3.07812l-.02051.34863c0,.73828.25977,1.34766.78027,1.82617.51953.47852,1.23047.71777,2.13379.71777Z"/>
    <path class="cls-8" d="M618.17773,316.69205v5.45801h3.7959v4.34961h-3.7959v11.0791c0,.82031.15723,1.40918.47266,1.76465.31445.35547.91602.5332,1.80469.5332.65723,0,1.23828-.04785,1.74414-.14355v4.49316c-1.16211.35547-2.35938.5332-3.58984.5332-4.1582,0-6.27832-2.09961-6.36035-6.29883v-11.96094h-3.24219v-4.34961h3.24219v-5.45801h5.92871Z"/>
    <path class="cls-8" d="M625.23633,316.40494c0-.88867.29785-1.62109.89258-2.19531s1.40527-.8623,2.43164-.8623c1.01172,0,1.81836.28809,2.4209.8623.60156.57422.90234,1.30664.90234,2.19531,0,.90234-.30469,1.6416-.91309,2.21582s-1.41211.86133-2.41016.86133c-.99902,0-1.80273-.28711-2.41113-.86133s-.91309-1.31348-.91309-2.21582ZM631.53516,344.34928h-5.9502v-22.19922h5.9502v22.19922Z"/>
    <path class="cls-8" d="M635.49512,333.04459c0-2.20215.42383-4.16504,1.27148-5.88867.84863-1.72363,2.06934-3.05762,3.66211-4.00098,1.59375-.94336,3.44336-1.41602,5.55078-1.41602,2.99512,0,5.43945.91699,7.33496,2.75,1.89355,1.83301,2.9502,4.32227,3.16895,7.46777l.04199,1.51855c0,3.40527-.95117,6.1377-2.85254,8.19629s-4.45215,3.08789-7.65234,3.08789c-3.20117,0-5.75586-1.02539-7.66406-3.07715-1.90723-2.05176-2.86133-4.84277-2.86133-8.37109v-.2666ZM641.42383,333.46549c0,2.10938.39648,3.72266,1.19043,4.83887.79297,1.11621,1.92871,1.6748,3.40625,1.6748,1.43555,0,2.55762-.55176,3.36426-1.6543s1.21094-2.86621,1.21094-5.29102c0-2.06836-.4043-3.67188-1.21094-4.80859s-1.94238-1.70508-3.40527-1.70508c-1.4502,0-2.57227.56445-3.36523,1.69531-.79395,1.12988-1.19043,2.87988-1.19043,5.25Z"/>
    <path class="cls-8" d="M665.63477,322.15006l.18457,2.56445c1.58594-1.9834,3.71289-2.97559,6.38086-2.97559,2.35254,0,4.10352.69141,5.25195,2.07227,1.14941,1.38184,1.7373,3.44727,1.76465,6.19629v14.3418h-5.92969v-14.23047c0-1.26172-.27344-2.17676-.82031-2.74609-.54785-.56836-1.45703-.85254-2.72852-.85254-1.66895,0-2.9209.71289-3.75488,2.13867v15.69043h-5.92969v-22.19922h5.58105Z"/>
    <path class="cls-8" d="M523.86133,394.77213h-5.92969v-22.8877l-7.07812,2.18555v-4.78027l12.37109-4.43164h.63672v29.91406Z"/>
    <path class="cls-8" d="M553.67188,382.42057c0,4.13086-.85449,7.29102-2.56445,9.47949s-4.21289,3.28223-7.50879,3.28223c-3.25586,0-5.74512-1.07324-7.46875-3.2207s-2.60547-5.22559-2.64648-9.2334v-5.49805c0-4.17188.86523-7.33789,2.5957-9.5,1.72949-2.16113,4.22266-3.24121,7.47852-3.24121,3.25488,0,5.74414,1.07031,7.46777,3.21094s2.60547,5.21484,2.64648,9.22266v5.49805ZM547.74316,376.37565c0-2.47852-.33887-4.28223-1.01562-5.41211-.67773-1.12988-1.73438-1.69434-3.16992-1.69434-1.39551,0-2.4248.53809-3.08789,1.6123-.66406,1.0752-1.01562,2.75488-1.05664,5.04199v7.26953c0,2.4375.33105,4.24805.99512,5.43262.66309,1.18457,1.72656,1.77637,3.19043,1.77637,1.44922,0,2.49609-.56836,3.13867-1.7041.64258-1.13672.97754-2.875,1.00586-5.2168v-7.10547Z"/>
    <path class="cls-8" d="M577.7793,382.42057c0,4.13086-.85449,7.29102-2.56445,9.47949s-4.21289,3.28223-7.50879,3.28223c-3.25586,0-5.74512-1.07324-7.46875-3.2207s-2.60547-5.22559-2.64648-9.2334v-5.49805c0-4.17188.86523-7.33789,2.5957-9.5,1.72949-2.16113,4.22266-3.24121,7.47852-3.24121,3.25488,0,5.74414,1.07031,7.46777,3.21094s2.60547,5.21484,2.64648,9.22266v5.49805ZM571.85059,376.37565c0-2.47852-.33887-4.28223-1.01562-5.41211-.67773-1.12988-1.73438-1.69434-3.16992-1.69434-1.39551,0-2.4248.53809-3.08789,1.6123-.66406,1.0752-1.01562,2.75488-1.05664,5.04199v7.26953c0,2.4375.33105,4.24805.99512,5.43262.66309,1.18457,1.72656,1.77637,3.19043,1.77637,1.44922,0,2.49609-.56836,3.13867-1.7041.64258-1.13672.97754-2.875,1.00586-5.2168v-7.10547Z"/>
    <path class="cls-8" d="M600.55469,385.86783l-2.13379,2.13379v6.77051h-5.92969v-31.51465h5.92969v17.45996l1.14844-1.47656,5.68359-6.66797h7.11914l-8.02148,9.25293,8.71973,12.94629h-6.81152l-5.7041-8.9043Z"/>
    <path class="cls-8" d="M620.49707,372.57291l.18457,2.48242c1.57227-1.92871,3.69922-2.89355,6.38086-2.89355,2.8584,0,4.82129,1.12891,5.88867,3.38574,1.55859-2.25684,3.78125-3.38574,6.66797-3.38574,2.40723,0,4.19824.70117,5.375,2.10352s1.76465,3.51172,1.76465,6.3291v14.17773h-5.9502v-14.18945c0-1.26172-.24609-2.18262-.73828-2.76562s-1.36133-.87402-2.60547-.87402c-1.77832,0-3.00977.84961-3.69336,2.5498l.02051,15.2793h-5.92969v-14.16895c0-1.28906-.25293-2.2207-.75879-2.79688-.50684-.57617-1.36816-.86328-2.58496-.86328-1.68262,0-2.90039.69922-3.65234,2.09766v15.73145h-5.92969v-22.19922h5.56055Z"/>
  </g>
  <line class="cls-3" x1="475.87664" y1="391.48485" x2="495.32531" y2="391.48485"/>
  <path class="cls-8" d="M487.83496,374.52701l-11.9209-4.16406v-5.70508l17.87109,7.49023v4.82031l-17.87109,7.50977v-5.72461l11.9209-4.22656Z"/>
  <g>
    <path class="cls-8" d="M781.44115,837.60216c25.62941-1.62092,87.21524,18.7669,93.9789,8.53282,3.70197-5.60144-40.46899-49.54617-54.34775-73.24335-8.32333,8.33013-27.35234,5.62667-33.08852,12.64996-3.71645,4.55037-6.96046,9.41698-9.82346,15.36501-3.46671,7.20229,5.79258,24.96357,3.28082,36.69556Z"/>
    <line class="cls-2" x1="780.77023" y1="822.52571" x2="842.6908" y2="835.021"/>
    <line class="cls-2" x1="808.31633" y1="779.31547" x2="850.14526" y2="821.44988"/>
  </g>
  <g>
    <path class="cls-8" d="M1113.36456,928.59966c23.38341-10.6165,88.19528-13.42713,90.88391-25.39603,1.47157-6.55096-55.4257-31.94611-76.81499-49.17036-4.82275,10.7429-23.57157,14.97301-26.43986,23.57552-1.85836,5.57355-3.16276,11.27494-3.72696,17.85199-.68317,7.96394,14.27983,21.27958,16.09791,33.13888Z"/>
    <line class="cls-2" x1="1107.38359" y1="914.74407" x2="1169.70567" y2="904.43644"/>
    <line class="cls-2" x1="1117.79004" y1="864.5682" x2="1171.85506" y2="889.10268"/>
  </g>
  <path class="cls-8" d="M366.15313,655.6944c-4.67795-2.55031-23.95182,19.55224-26.81904,24.36622-2.74735,4.6125-17.73856,34.6318-17.73856,34.6318l-23.5718,46.57121,23.30261,12.47337c14.57738-28.67983,40.4572-79.58197,41.31732-81.17308,3.65135-6.75537,9.27461-33.72648,3.50947-36.86951"/>
  <path class="cls-8" d="M317.80131,780.67215l-23.2909-12.46709-22.95608,45.54532,23.31991,12.48263s19.13321-38.09634,22.92706-45.56086Z"/>
  <path class="cls-8" d="M313.58978,737.05412c-.58966-1.55681-19.23372,9.34795-19.23372,9.34795l-3.96744,8.71877,11.70538,5.66694,5.37981-6.98096s6.70563-15.19589,6.11597-16.7527Z"/>
  <path class="cls-8" d="M252.83484,859.67261l-41.49996,37.13671-12.31036,21.85222,18.54876,14.03864,10.46245-14.92646s18.82504-39.70574,21.42966-45.71056c2.60461-6.00482,5.26226-11.03535,3.36944-12.39054Z"/>
  <path class="cls-8" d="M331.99513,746.2824c1.10573.6986,4.01514,21.00473,4.01514,21.00473l-4.61324,8.39497-11.54348-5.98984,1.99572-9.23985s9.04013-14.86861,10.14586-14.17001Z"/>
  <path class="cls-8" d="M269.31193,867.33249l-4.93283,55.47115-10.14662,22.9371-22.34583-6.46556,5.70223-17.31319s20.55603-38.83784,23.80976-44.5172c3.25373-5.67935,5.69501-10.81837,7.91329-10.1123Z"/>
  <path class="cls-8" d="M296.70596,813.49038l-15.46147-8.27618-15.2392,30.23489,15.48073,8.28649s12.70143-25.28994,15.21994-30.2452Z"/>
  <path class="cls-8" d="M324.95647,758.35474l-15.46147-8.27618-15.2392,30.23489,15.48073,8.28649s12.70143-25.28994,15.21994-30.2452Z"/>
  <path class="cls-8" d="M286.70208,796.00025c-.47926-1.26532-15.63252,7.5977-15.63252,7.5977l-3.2246,7.08632,9.51374,4.6059,4.37253-5.67389s5.45011-12.35071,4.97085-13.61603Z"/>
  <path class="cls-8" d="M301.66133,803.50069c.8987.5678,3.26337,17.07193,3.26337,17.07193l-3.74949,6.82315-9.38215-4.86834,1.62205-7.50984s7.34751-12.08471,8.24621-11.5169Z"/>
  <g>
    <path class="cls-7" d="M1645.00236,1069.56659c0,10.79459-26.92448,19.54069-60.13675,19.54069-33.20297,0-60.12715-8.7461-60.12715-19.54069s26.92419-19.55,60.12715-19.55c33.21227,0,60.13675,8.75555,60.13675,19.55"/>
    <path class="cls-9" d="M1619.00102,1068.24803c0,6.11669-15.28191,11.08985-34.12698,11.08985s-34.13657-4.97316-34.13657-11.08985c0-6.13559,15.29121-11.0993,34.13657-11.0993s34.12698,4.96371,34.12698,11.0993"/>
    <path class="cls-7" d="M1600.51997,1067.56491c0,2.56298-6.38345,4.63996-14.24363,4.63996s-14.24334-2.07698-14.24334-4.63996c0-2.55324,6.38345-4.63022,14.24334-4.63022s14.24363,2.07698,14.24363,4.63022"/>
  </g>
  <g>
    <path class="cls-7" d="M1569.2375,1048.51272s-4.49718-11.76562,1.04761-18.6443c5.54485-6.87008,6.81339-15.19212,11.26456-21.28101,4.45142-6.08875,17.55436-2.30731,17.55436-2.30731,0,0,3.6817,29.69615,5.37225,37.52608,2.29293,10.61991-8.44765,20.39504-8.44765,20.39504,0,0-5.3924,4.46519-9.29242,4.46519-4.70161,0-8.70733-4.06409-8.70733-4.06409,0,0-8.6707-9.21079-8.91206-14.40006"/>
    <path class="cls-14" d="M1589.52724,1011.34037c.29938,9.89356-1.50019,18.68894-5.90103,26.33995.46625-3.6489.3492-7.20731-.50733-10.66139-.26995-1.07297-.64506-2.09637-.97666-3.1361-.05205.00753-.09583.02385-.14834.03996-.047.15506-.10246.30979-.13247.47384-1.04931,5.61278-2.79872,10.74961-5.17167,15.46441-1.30002,2.58019-2.43826,5.29421-3.15893,8.33022-1.09355,4.51898-1.28532,14.20997,11.64517,18.39109,0,0,4.59998.80935,5.03282,2.70998-.00873-.0002-3.27063.68797-7.03931-.31644-8.12337-2.165-15.43449-7.95388-18.2844-12.20873-2.29692-3.42674-4.09773-7.29296-4.97824-11.96185-.74153-3.92833-.70113-7.908-.26069-11.93914.61542-5.59677,2.28399-10.61413,4.12447-15.55804,1.32233-3.54237,2.72163-7.04816,3.64243-10.8514.48884-2.00934.7807-4.11852,1.15806-6.18245.02994-.17279.05142-.34578.10144-.63085,1.8464,4.89071,2.18367,10.17134,2.21984,15.72248.17868-.22995.28485-.3229.35717-.4513,3.98131-6.75892,7.62368-13.8638,10.31557-21.86674,1.35038-4.0099,2.39211-8.16591,2.94454-12.54128.35227-2.85373.43605-5.71368.28573-8.57906-.00632-.10416-.01284-.19972-.01574-.45134.65712.45762,1.25549.83566,1.82611,1.29127,3.83097,3.0808,6.87019,7.40065,9.3788,12.5408,3.08782,6.33304,5.04863,13.41183,6.33155,20.91714.06106.35699.13126.69685.23188,1.2195.35051-.52953.65463-.93005.89912-1.3841,1.02372-1.88419,1.54236-4.04886,1.71758-6.37763.26405-3.52364.11393-5.2789-.64083-9.38975.26091.34428.52222.67124.77421,1.02392,3.03741,4.39801,5.488,9.41534,7.5563,14.84885,1.88797,4.96975,3.31924,10.19767,4.07383,15.80014.99979,7.37727.6929,14.62036-1.37861,21.67499-1.65771,5.66788-4.22192,10.41292-7.36208,14.55494-2.88989,3.82679-9.6165,9.39264-17.97873,11.09606-.07823.01594-4.87904-2.77833-5.03282-2.70998,11.14964-4.9554,17.3894-18.74989,15.70016-29.29987-1.68117-10.53259-5.33712-19.28972-11.3489-25.94212"/>
  </g>
  <polygon class="cls-8" points="268.06698 820.70571 219.16731 918.23364 242.58586 930.51958 291.38689 833.18833 268.06698 820.70571"/>
  <line class="cls-8" x1="247.61979" y1="891.19343" x2="231.09259" y2="924.1561"/>
  <g>
    <path class="cls-11" d="M235.5,927.39843s-2.60342,13.6498-6.78925,15.76155c-4.18398,2.10757-6.61851,5.85292-10.10283,7.82221-3.48441,1.96917-8.99095-2.72644-8.99095-2.72644,0,0,3.0351-10.59864,3.48051-14.82589.44959-4.22524,10.0767-15.01774,10.0767-15.01774l11.58835,5.57356s-.66372,7.97161.73746,3.41276"/>
    <path class="cls-6" d="M215.35396,947.90546c2.02051-4.84818,4.81534-8.70613,8.6172-11.44159-1.02396,1.66188-1.74615,3.40767-2.08802,5.26487-.10432.57777-.14697,1.15458-.21422,1.72977.02681.00775.05154.00944.08046.01315.05666-.06467.11733-.12733.16774-.20007,1.73562-2.48364,3.70552-4.58398,5.88448-6.34384,1.19313-.96278,2.33734-2.02566,3.35015-3.33558,1.51763-1.9452,2.46733-4.15334,3.03392-6.5202.23968-1.00787.41547-2.02091.62219-3.03443.00418.00201.02292.01616.0357.04272,1.02814,2.23537,1.918,4.57781,2.3645,7.25836.36041,2.15921.38481,4.4223-.21134,6.872-.50126,2.06129-1.39176,3.97626-2.4869,5.82857-1.52237,2.57086-3.42704,4.63114-5.39874,6.61829-1.41449,1.42303-2.85817,2.81153-4.13565,4.44854-.67606.86435-1.27875,1.82008-1.91287,2.73523-.05229.07698-.10053.1559-.1871.28276.17777-2.76832,1.17042-5.39485,2.36782-8.08625-.1367.07205-.20837.09375-.27143.14-3.40382,2.39602-6.71951,5.03346-9.77227,8.31305-1.53037,1.6429-2.9435,3.42398-4.16812,5.41818-.79484,1.30243-1.46125,2.66663-2.01568,4.08468-.01974.05173-.0375.09936-.09117.22163-.21751-.36503-.42403-.67874-.60017-1.02387-1.17769-2.32771-1.70148-5.08112-1.78923-8.11495-.10668-3.73724.49465-7.58834,1.51703-11.49727.04861-.18593.08906-.36559.1548-.64027-.28533.17927-.52.30633-.73756.47231-.90724.6868-1.6317,1.61971-2.22606,2.70713-.89881,1.64558-1.21038,2.52695-1.74519,4.67937-.05078-.22353-.10555-.43878-.15017-.66441-.5058-2.79079-.59239-5.75255-.40309-8.83183.17498-2.81562.62723-5.6561,1.48857-8.52954,1.13123-3.78507,2.86475-7.2193,5.41007-10.17623,2.04179-2.37713,4.31982-4.10975,6.7443-5.42482,2.23451-1.21746,4.47747-2.01744,6.72619-2.58485.04093-.01093.08206-.01156.17029-.02528-3.87662,4.0269-6.44682,8.85055-7.93912,14.32023-1.49239,5.45951-1.64159,10.49292-.19132,15.02446"/>
  </g>
  <g>
    <line class="cls-4" x1="540.66001" y1="414.8515" x2="541.54991" y2="527.2303"/>
    <polyline class="cls-4" points="567.53823 500.99351 541.55122 527.24058 515.36509 501.19219"/>
  </g>
</svg>