<?xml version="1.0" encoding="UTF-8"?>
<svg id="Ebene_2" data-name="Ebene 2" xmlns="http://www.w3.org/2000/svg" viewBox="0 0 1920 789.26758">
  <defs>
    <style>
      .cls-1 {
        fill: #d4dde0;
      }

      .cls-1, .cls-2, .cls-3, .cls-4, .cls-5, .cls-6, .cls-7 {
        stroke-width: 6.92998px;
      }

      .cls-1, .cls-2, .cls-5, .cls-6, .cls-7 {
        stroke-miterlimit: 10;
      }

      .cls-1, .cls-6, .cls-7 {
        stroke: #114a64;
      }

      .cls-2 {
        stroke: #7996a5;
      }

      .cls-2, .cls-4, .cls-6 {
        fill: none;
      }

      .cls-8 {
        fill: #0e435c;
      }

      .cls-3 {
        fill: #aebfc7;
      }

      .cls-3, .cls-4 {
        stroke-linecap: round;
        stroke-linejoin: round;
      }

      .cls-3, .cls-4, .cls-5 {
        stroke: #0d425b;
      }

      .cls-9 {
        fill: #90172f;
      }

      .cls-10 {
        fill: #0d435c;
      }

      .cls-11, .cls-5, .cls-7 {
        fill: #fff;
      }

      .cls-12 {
        fill: #f3f5f7;
      }

      .cls-13 {
        fill: #0d425b;
      }

      .cls-14 {
        fill: #932337;
      }
    </style>
  </defs>
  <rect class="cls-12" x="-15.58529" y="-12.15532" width="1959.64406" height="822.72258"/>
  <path class="cls-13" d="M546.08501,584.37098c28.30911,16.76408,124.00911,28.08049,163.98527,65.33398,25.44918,23.71605,133.35257,37.99665,167.20346,49.94118,6.75127,2.38218,12.81077,3.97404,19.22366,5.09132l73.45018.42043c13.85784-5.20975,7.52256-15.8824,44.21984-14.55638,88.85018,3.21015,39.57138-6.97481,111.5308-40.56917,51.99957-24.27607,77.99946-36.4141,106.53317-45.10132,35.14244-10.69929,13.25531,1.33955,42.09885-10.81328,22.83289-9.6205,51.61826.60887,80.56436-9.9593,8.0075-2.92358,14.73572-4.90648,20.72923-6.24117h-841.71726c4.01591,1.90718,8.07813,4.02564,12.17843,6.45371Z"/>
  <path class="cls-2" d="M71.42002,562.8275c24.39114-4.06519-.51427,12.8427,90.05324,2.54628,61.80221-7.02616,56.29177-8.41545,74.57552-3.52423,36.59102,9.78869,106.53779-7.20825,141.95872.72044,33.43548,7.4843,57.12189-6.92003,97.6573-.74979,17.97519,2.7361,43.5285,6.62581,70.42029,22.55083,28.30895,16.76418,124.00903,28.0806,163.98511,65.33407,25.44929,23.716,133.35273,37.99656,167.20356,49.94113,19.54677,6.89726,33.22327,7.26911,66.80899,8.20034,49.95588,1.3851,20.13921-19.04957,70.0847-17.24508,88.85006,3.21024,39.57136-6.97469,111.53077-40.56898,51.99964-24.27614,77.99942-36.41411,106.53325-45.10147,35.14232-10.69927,13.25528,1.3396,42.09869-10.81334,22.83306-9.62048,51.61834.60898,80.56452-9.9592,31.82289-11.61856,43.49345-8.42564,68.77253-8.42564,5.56805,0,32.08195,8.84903,51.76192,16.40058,19.02703,7.30112,76.76998-7.18733,93.35663-7.94942,73.50212-3.37712,143.4208,7.37467,154.68534,15.40634,22.23658,15.85477,78.56849,2.77477,97.05367,11.97223"/>
  <g>
    <path class="cls-9" d="M1298.9895,194.78796c3.24146,1.14648,6.40002,2.51904,9.53503,3.93457,3.1344,1.42041,6.2124,2.96143,9.26855,4.54346,3.05762,1.58057,6.07227,3.24219,9.07068,4.93359,2.99548,1.69678,5.9563,3.45361,8.90308,5.23535l-.71167,1.13037c-2.88232-1.85938-5.78064-3.69531-8.71558-5.47217-2.93787-1.771-5.89417-3.51465-8.89563-5.17822-2.99915-1.66748-6.03015-3.27881-9.09314-4.83008-3.0708-1.5332-6.16809-3.02539-9.36133-4.29688Z"/>
    <path class="cls-9" d="M1369.78467,236.86901c10.94849,8.36328,21.55481,17.17432,31.83093,26.354l-1.97559,2.17627c-10.0813-9.29297-20.46545-18.26367-31.21887-26.77588l1.36353-1.75439Z"/>
    <path class="cls-9" d="M1431.41797,291.85241c9.60364,9.87842,18.91479,20.03711,27.95825,30.42627l-2.59875,2.25488c-8.97302-10.37158-18.2124-20.51221-27.73987-30.37354l2.38037-2.30762Z"/>
    <path class="cls-9" d="M1485.63684,354.16784c4.23987,5.4248,8.44031,10.88086,12.53894,16.41211,4.10596,5.52588,8.15137,11.09619,12.13892,16.70654l-2.50366,1.79639c-4.02637-5.55664-8.1095-11.0708-12.25159-16.54004-4.14954-5.46338-8.31641-10.91309-12.56763-16.29639l2.64502-2.07861Z"/>
    <polygon class="cls-9" points="1533.46765 421.47009 1555.25146 456.5238 1553.75061 457.43835 1531.38562 422.84362 1533.46765 421.47009"/>
    <polygon class="cls-9" points="1575.61755 492.39782 1582.55359 505.40759 1575.12305 492.67761 1575.61755 492.39782"/>
  </g>
  <path class="cls-14" d="M1712.44847,613.83233c0,18.66708-87.23556,33.7917-194.84365,33.7917-107.57794,0-194.81256-15.12462-194.81256-33.7917s87.23462-33.80779,194.81256-33.80779c107.60808,0,194.84365,15.14096,194.84365,33.80779"/>
  <path class="cls-11" d="M1628.20388,611.55215c0,10.57758-49.51353,19.17767-110.57174,19.17767s-110.60282-8.60008-110.60282-19.17767c0-10.61026,49.54367-19.19401,110.60282-19.19401s110.57174,8.58374,110.57174,19.19401"/>
  <path class="cls-14" d="M1568.3251,610.37083c0,4.43215-20.68245,8.02388-46.14951,8.02388s-46.14857-3.59173-46.14857-8.02388c0-4.41531,20.68245-8.00703,46.14857-8.00703s46.14951,3.59173,46.14951,8.00703"/>
  <g>
    <polygon class="cls-11" points="1598.27451 548.8731 1599.29699 537.95112 1614.71315 529.69621 1639.14897 529.69621 1655.43951 538.08215 1656.62428 550.13694 1598.27451 548.8731"/>
    <polygon class="cls-11" points="1566.80289 570.08909 1580.20128 552.60714 1598.94155 552.60714 1623.37736 552.60714 1674.37465 555.56591 1678.73655 567.90027 1667.0236 572.53284 1566.80289 570.08909"/>
    <path class="cls-11" d="M1556.63839,572.53284l8.16,6.84831,107.54974,1.36299,14.14051-6.93575h0s10.98764,4.58197,10.6058,14.50959c-.38183,9.92761-6.87513,25.58269-25.20194,27.11002-18.32681,1.52732-102.71151.38183-102.71151.38183,0,0-23.67353-7.25479-32.07409-32.07382-2.07375-6.12678,19.53148-11.20316,19.53148-11.20316Z"/>
    <g>
      <path class="cls-10" d="M1538.2404,579.28112c3.14691-5.91146,8.56773-9.03469,15.67366-9.03469l8.93064,7.49507-8.93064.05752c-5.06552,0-6.79124,2.44309-8.12107,4.94708-1.25538,2.34834-1.68851,6.39534.32484,9.72836l1.48548,2.21976c5.57985,8.30379,15.1221,18.20472,28.89408,18.20472h94.33972c11.78908,0,23.00631-8.05677,25.00273-17.96448.84256-4.16881-.08798-8.16506-2.61228-11.25444-3.06232-3.73569-8.19213-5.88101-14.06636-5.88101l10.2152-5.73973c3.86554,1.46856,7.20174,3.79364,9.69156,6.83608,3.98947,4.86926,5.47157,11.09879,4.17897,17.53474-2.71717,13.47082-16.95611,24.02144-32.40982,24.02144h-94.33972c-13.34224,0-25.82838-7.65072-35.15745-21.54451l-1.51932-2.25698c-3.60711-5.77611-4.2128-12.432-1.58022-17.36893Z"/>
      <path class="cls-10" d="M1670.25553,577.01907l13.511-7.79284-10.18179-20.59029h-13.02585s-.06302-11.1119-.06302-11.1119l-19.8412-12.42735h-27.37476s-20.40333,11.50146-20.40333,11.50146l-34.49148-.06768.02538-3.09024-18.82142-.02369.12266,11.4414,18.6425.0423-.01988-2.49892h34.51453s.00867,6.23461.00867,6.23461h-13.13879s-19.73758,20.02858-19.73758,20.02858l9.87048,8.49286,100.40388-.13831ZM1653.60121,548.63594h-1.34547s-52.47013-.06598-52.47013-.06598l-.08819-8.95728,14.44175-8.3702,24.32006-.04526,15.1202,8.79698.02178,8.64175ZM1674.37465,566.25738l-6.8126,3.83171h-93.52804s-3.38039-2.3788-3.38039-2.3788l11.96842-12.14438h86.65855s5.09407,10.69147,5.09407,10.69147Z"/>
      <path class="cls-10" d="M1678.73824,584.90813c6.45625,0,11.71125,5.25501,11.71125,11.71464,0,6.45625-5.25501,11.71125-11.71125,11.71125-6.45963,0-11.71464-5.25501-11.71464-11.71125,0-6.45963,5.25501-11.71464,11.71464-11.71464Z"/>
      <path class="cls-10" d="M1660.90573,598.30112c0,7.78269-6.33105,14.11374-14.11374,14.11374s-14.11712-6.33105-14.11712-14.11374c0-7.78269,6.33443-14.11712,14.11712-14.11712s14.11374,6.33443,14.11374,14.11712Z"/>
      <path class="cls-10" d="M1628.96287,598.30112c0,7.78269-6.33443,14.11374-14.11712,14.11374-7.78269,0-14.11374-6.33105-14.11374-14.11374,0-7.78269,6.33105-14.11712,14.11374-14.11712s14.11712,6.33443,14.11712,14.11712Z"/>
      <path class="cls-10" d="M1582.90289,584.184c7.78269,0,14.11374,6.33443,14.11374,14.11712,0,7.78269-6.33105,14.11374-14.11374,14.11374-7.78269,0-14.11712-6.33105-14.11712-14.11374s6.33443-14.11712,14.11712-14.11712Z"/>
      <path class="cls-10" d="M1557.88662,599.59034c-4.24664,0-7.70148-3.45484-7.70148-7.70148,0-4.25002,3.45484-7.70486,7.70148-7.70486,4.25002,0,7.70486,3.45484,7.70486,7.70486,0,4.24664-3.45484,7.70148-7.70486,7.70148Z"/>
    </g>
  </g>
  <g>
    <polygon class="cls-11" points="1422.09401 524.58456 1423.11648 513.66258 1438.53265 505.40767 1462.96846 505.40767 1479.25901 513.79361 1480.44377 525.8484 1422.09401 524.58456"/>
    <polygon class="cls-11" points="1390.62238 545.80054 1404.02078 528.31859 1422.76104 528.31859 1447.19686 528.31859 1498.19414 531.27737 1502.55604 543.61172 1490.84309 548.24429 1390.62238 545.80054"/>
    <path class="cls-11" d="M1380.45788,548.24429l10.04669,8.09888,105.66306.11243,14.14051-6.93575h0s10.98764,4.58197,10.6058,14.50959c-.38183,9.92761-6.87513,25.58269-25.20194,27.11002-18.32681,1.52732-102.71151.38183-102.71151.38183,0,0-23.67353-7.25479-32.07409-32.07382-2.07375-6.12678,19.53148-11.20316,19.53148-11.20316Z"/>
    <g>
      <path class="cls-10" d="M1362.0599,554.99258c3.14691-5.91146,8.56773-9.03469,15.67366-9.03469l8.93064,7.49507-8.93064.05752c-5.06552,0-6.79124,2.44309-8.12107,4.94708-1.25538,2.34834-1.68851,6.39534.32484,9.72836l1.48548,2.21976c5.57985,8.30379,15.1221,18.20472,28.89408,18.20472h94.33972c11.78908,0,23.00631-8.05677,25.00273-17.96448.84256-4.16881-.08798-8.16506-2.61228-11.25444-3.06232-3.73569-8.19213-5.88101-14.06636-5.88101l10.2152-5.73973c3.86554,1.46856,7.20174,3.79364,9.69156,6.83608,3.98947,4.86926,5.47157,11.09879,4.17897,17.53474-2.71717,13.47082-16.95611,24.02144-32.40982,24.02144h-94.33972c-13.34224,0-25.82838-7.65072-35.15745-21.54451l-1.51932-2.25698c-3.60711-5.77611-4.2128-12.432-1.58022-17.36893Z"/>
      <path class="cls-10" d="M1494.07503,552.73052l13.511-7.79284-10.18179-20.59029h-13.02585s-.06302-11.1119-.06302-11.1119l-19.8412-12.42735h-27.37476s-20.40333,11.50146-20.40333,11.50146l-34.49148-.06768.02538-3.09024-18.82142-.02369.12266,11.4414,18.6425.0423-.01988-2.49892h34.51453s.00867,6.23461.00867,6.23461h-13.13879s-19.73758,20.02858-19.73758,20.02858l9.87048,8.49286,100.40388-.13831ZM1477.42071,524.34739h-1.34547s-52.47013-.06598-52.47013-.06598l-.08819-8.95728,14.44175-8.3702,24.32006-.04526,15.1202,8.79698.02178,8.64175ZM1498.19414,541.96884l-6.8126,3.83171h-93.52804s-3.38039-2.3788-3.38039-2.3788l11.96842-12.14438h86.65855s5.09407,10.69147,5.09407,10.69147Z"/>
      <path class="cls-10" d="M1502.55773,560.61959c6.45625,0,11.71125,5.25501,11.71125,11.71464,0,6.45625-5.25501,11.71125-11.71125,11.71125-6.45963,0-11.71464-5.25501-11.71464-11.71125,0-6.45963,5.25501-11.71464,11.71464-11.71464Z"/>
      <path class="cls-10" d="M1484.72522,574.01258c0,7.78269-6.33105,14.11374-14.11374,14.11374-7.78269,0-14.11712-6.33105-14.11712-14.11374,0-7.78269,6.33443-14.11712,14.11712-14.11712s14.11374,6.33443,14.11374,14.11712Z"/>
      <path class="cls-10" d="M1452.78236,574.01258c0,7.78269-6.33443,14.11374-14.11712,14.11374-7.78269,0-14.11374-6.33105-14.11374-14.11374,0-7.78269,6.33105-14.11712,14.11374-14.11712,7.78269,0,14.11712,6.33443,14.11712,14.11712Z"/>
      <path class="cls-10" d="M1406.72238,559.89546c7.78269,0,14.11374,6.33443,14.11374,14.11712,0,7.78269-6.33105,14.11374-14.11374,14.11374-7.78269,0-14.11712-6.33105-14.11712-14.11374,0-7.78269,6.33443-14.11712,14.11712-14.11712Z"/>
      <path class="cls-10" d="M1381.70611,575.3018c-4.24664,0-7.70148-3.45484-7.70148-7.70148,0-4.25002,3.45484-7.70486,7.70148-7.70486,4.25002,0,7.70486,3.45484,7.70486,7.70486,0,4.24664-3.45484,7.70148-7.70486,7.70148Z"/>
    </g>
  </g>
  <g>
    <path class="cls-1" d="M1208.15255,160.72021s-.62435-21.11673-1.37439-22.09128c-.75003-.97455-9.08725,1.0969-9.08725,1.0969l-1.13028,24.29276,11.59192-3.29838Z"/>
    <path class="cls-7" d="M1426.98528,234.76425c-3.31822,2.48884-6.7514,2.27494-9.97411.75858-9.514-4.48824-21.42794-9.12318-30.84959-13.82522-13.85575-6.9096-89.90589-39.13257-94.77286-40.20312l-4.72783.46802c-2.82286.92839-27.36482,5.88301-42.00957,9.30546-3.06199.71558-1.17062,1.7468-2.45605,2.62047-1.46517.99583-4.6078.1747-7.5343-.46827-1.6928-.37192-.8185-3.65346-1.92387-3.82709-3.21319-.51519-5.63373,1.0918-8.87475.73254-1.58493-.17934-5.72875,3.22071-7.32607,3.10063-1.68399-.13821-8.19604-1.60338-7.42985-2.91711,1.70001-2.91491-1.17184-1.73701-4.73072-3.44262-1.98553-.94834-7.99682-4.85434-9.71998-6.23784-2.32983-1.87195-.86537-.25495-3.77951.41564-1.86115.42827-4.17032-.17316-4.59689-.82543-.92921-1.42086-7.52977-33.05444-11.51588-61.55187,0,0,3.52784-2.53252,7.00432-2.21403,0,0,13.63855,39.18529,15.75173,45.43673l10.76701-2.02262c2.90702-1.14086,25.97854-7.0748,26.87283-10.71303l-3.00808-2.63954c-.35188-.91097-19.08762-17.20515-22.52181-18.87037,0,0-36.5068-26.77808-40.46344-28.74296-2.17151-1.08235,4.46685-6.19828,8.25169-4.08558,1.20966.67524,2.14955,1.90783,3.50277,2.66463,20.3499,11.3809,82.09094,41.5902,82.09094,41.5902,3.93071-.98089,24.37351-6.0014,27.8296-4.64559,2.77069,1.08399,5.10508,2.75232,6.70568,5.29005.64483,1.03412,1.31283,1.20719,2.48869.95363,17.62273-3.77357,14.81875-1.53089,32.24138-7.46353,4.96174-1.79283,22.67708-12.66748,34.37015-11.88649,8.51213.56759,11.96851,1.86309,15.51578,4.89847,7.78864,6.66324,12.6406,14.4762,10.69845,21.03062-2.86741,10.06726-7.28836,10.95892-11.88708,12.2901-4.59399,1.33217-51.83303,11.68545-50.26519,13.084,5.42395,4.7983,61.14605,36.41806,87.65574,52.2743,1.98698,1.19127,3.98983,2.35246,5.9435,3.5891,1.72922,1.10395,8.35291,1.82836,2.67716,6.07914"/>
  </g>
  <g>
    <path class="cls-5" d="M990.87941,611.14102h-17.35011v-13.10732c0-8.62567-3.2135-11.61284-11.73856-11.61284h-17.60875v-14.73654c0-4.52657,3.61588-4.7289,3.61588-4.7289h9.22637v-14.48392h-20.00932c-4.90379,0-7.14194,4.14937-7.14194,7.14194v26.80741h-14.73654c-9.90816,0-22.16587,24.72015-22.16587,24.72015h-45.03047c-13.32827,0-24.44352,9.1789-27.61215,21.50125h-7.33396l-4.29501-14.64432-13.51493.02515,5.26662,18.14523v7.25689l-5.26662,18.17038h13.51493l4.29501-14.64432h7.43456c3.2189,12.27205,14.28388,21.35037,27.5367,21.35037h142.88901c15.79273,0,28.59289-12.80016,28.59289-28.56774.02515-15.79273-12.77501-28.59289-28.56774-28.59289"/>
    <path class="cls-4" d="M841.94669,628.76105h145.69471c12.05279,0,12.05279,7.05212,12.05279,7.05212"/>
    <line class="cls-3" x1="787.76601" y1="639.8693" x2="799.18345" y2="639.8693"/>
    <line class="cls-3" x1="787.76601" y1="650.88687" x2="787.76601" y2="628.85173"/>
  </g>
  <polygon class="cls-7" points="339.4534 444.69305 346.44571 459.6389 326.60808 467.82596 287.21153 522.1644 273.50413 523.61497 308.81219 474.61886 240.73046 504.13828 252.00313 522.1644 240.85033 522.1644 231.78765 507.61602 220.44459 512.05185 213.37792 499.44035 339.4534 444.69305"/>
  <polygon class="cls-7" points="345.32822 430.53849 347.94263 435.47464 377.70549 422.82693 365.51151 397.37626 336.98598 410.43426 339.47588 415.01212 197.91956 478.02802 205.12557 492.00984 345.32822 430.53849"/>
  <path class="cls-7" d="M221.58996,522.1644v27.40236s249.64466,1.08346,249.64466,1.08346l17.53611-5.80916v-46.54676s-11.63671-11.63664-11.63671-11.63664h-67.13169v-24.92483s-30.25848,0-30.25848,0v25.82706s-22.66946,22.66946-22.66946,22.66946h-32.44927s0,11.93505,0,11.93505h-103.03516ZM236.04877,537.5586v-.12212h85.93181v.12212h-85.93181ZM362.45173,522.22784v-.12445h65.0285v.12445h-65.0285Z"/>
  <polyline class="cls-6" points="386.35266 522.22784 451.38115 522.22784 467.10233 531.73038"/>
  <path class="cls-10" d="M421.11593,551.89937c0,9.21702,7.50185,16.71487,16.71887,16.71487,9.21702,0,16.71487-7.49785,16.71487-16.71487,0-9.21702-7.49785-16.71887-16.71487-16.71887s-16.71887,7.50185-16.71887,16.71887Z"/>
  <path class="cls-10" d="M374.14402,551.89937c0,9.21702,7.50185,16.71487,16.71887,16.71487s16.71487-7.49785,16.71487-16.71487c0-9.21702-7.49785-16.71887-16.71487-16.71887s-16.71887,7.50185-16.71887,16.71887Z"/>
  <path class="cls-10" d="M285.73219,556.8752c0,8.52939,6.94219,15.46787,15.47158,15.46787,8.52939,0,15.46787-6.93848,15.46787-15.46787s-6.93848-15.47158-15.46787-15.47158-15.47158,6.94219-15.47158,15.47158Z"/>
  <path class="cls-10" d="M244.62284,556.8752c0,8.52939,6.94219,15.46787,15.47158,15.46787,8.52939,0,15.46787-6.93848,15.46787-15.46787,0-8.52939-6.93848-15.47158-15.46787-15.47158-8.52939,0-15.47158,6.94219-15.47158,15.47158Z"/>
  <g>
    <path class="cls-9" d="M390.8609,405.953c2.83978-1.93555,5.77063-3.73486,8.72003-5.49902,2.95325-1.7583,5.9371-3.46582,8.94492-5.13037l.14163.26025c-3.02899,1.61963-6.03494,3.2832-9.01157,4.99805-2.97287,1.7207-5.92795,3.47656-8.79501,5.37109Z"/>
    <path class="cls-9" d="M444.40186,377.54186c12.18393-5.4624,24.54523-10.52783,37.02887-15.26953l.42569,1.13965c-12.51355,4.60059-24.91019,9.52588-37.13599,14.8501l-.31857-.72021Z"/>
    <path class="cls-9" d="M519.22919,348.9989c12.70239-4.12891,25.51459-7.91504,38.388-11.47363l.51001,1.87354c-12.87579,3.45312-25.6731,7.19482-38.39825,11.16797l-.49976-1.56787Z"/>
    <path class="cls-9" d="M596.44403,327.63024c13.00336-3.05273,26.06232-5.86865,39.16473-8.46533l.47131,2.42041c-13.09198,2.50537-26.14246,5.23047-39.13928,8.19189l-.49677-2.14697Z"/>
    <path class="cls-9" d="M675.03729,312.02185c13.1814-2.16113,26.39124-4.15771,39.63654-5.88818l.38153,2.92041c-13.21655,1.72705-26.41864,3.57129-39.58356,5.66064l-.43451-2.69287Z"/>
    <path class="cls-9" d="M754.4718,301.4652c13.28668-1.37061,26.59167-2.56104,39.90948-3.58057l.23468,3.10986c-13.2934.98926-26.57391,2.14795-39.83618,3.4873l-.30798-3.0166Z"/>
    <path class="cls-9" d="M834.36829,295.32995c13.3385-.68652,26.68512-1.21191,40.03571-1.58398l.08813,3.29102c-13.32617.34277-26.64838.83789-39.96246,1.49463l-.16138-3.20166Z"/>
    <path class="cls-9" d="M914.46478,293.08239c6.6756-.02783,13.35962-.04883,20.04297.03369,6.68292.07471,13.36517.2168,20.04541.42627l-.1123,3.45947c-6.65631-.22266-13.31488-.37744-19.97449-.46533-6.65918-.0957-13.31909-.08789-19.98682-.0752l-.01477-3.37891Z"/>
    <path class="cls-9" d="M994.5932,295.69909c13.32977.99316,26.63898,2.25977,39.91632,3.79883l-.37744,3.28516c-13.23547-1.50732-26.50159-2.74268-39.78717-3.70557l.24829-3.37842Z"/>
    <path class="cls-9" d="M1074.23462,304.93298c13.20227,2.08398,26.36145,4.43848,39.46667,7.06104l-.61389,3.0835c-13.06836-2.58789-26.18945-4.9082-39.35229-6.9585l.49951-3.18604Z"/>
    <path class="cls-9" d="M1152.84387,320.66491c12.98633,3.15674,25.90796,6.57812,38.75464,10.26025l-.81848,2.86621c-12.81531-3.64453-25.70422-7.0293-38.65637-10.1499l.72021-2.97656Z"/>
    <path class="cls-9" d="M1229.89526,342.77136c12.67737,4.22559,25.26868,8.70605,37.76404,13.4375l-.91528,2.43945c-12.49146-4.64258-25.07544-9.0332-37.74194-13.16895l.89319-2.70801Z"/>
    <path class="cls-9" d="M1304.84766,371.15222c12.29333,5.22998,24.4812,10.70605,36.55322,16.4248l-.89929,1.91309c-12.08105-5.63232-24.2749-11.02148-36.57104-16.16357l.91711-2.17432Z"/>
    <path class="cls-9" d="M1377.2572,405.46227c11.83044,6.19971,23.52991,12.64844,35.07239,19.36572l-.77307,1.3457c-11.59985-6.57324-23.32104-12.93018-35.16187-19.0542l.86255-1.65723Z"/>
    <path class="cls-9" d="M1446.52649,445.68884c11.24341,7.20215,22.32825,14.65039,33.22119,22.36865l-.4292.61182c-10.95959-7.60107-22.10645-14.9292-33.4071-22.00879l.61511-.97168Z"/>
    <path class="cls-9" d="M1511.75061,492.12683c5.35229,4.3125,10.65808,8.6875,15.77087,13.28076-5.17395-4.52344-10.53625-8.82471-15.94348-13.0625l.17261-.21826Z"/>
  </g>
  <g>
    <g>
      <path class="cls-8" d="M505.21094,359.53063s2.12793-3.33105,2.27539-3.57031c.24121-.40527.30957-.48242,1.78711-1.24414l.03027-1.16113-.52051-.99414c-.85059.09668-.98633.09668-1.0918.09668h-.39355l-.38477-.17285c-.21191-.09375-8.50293-3.67383-8.50293-3.67383l11.41602-2.95312,3.82422.70605c4.79004-1.65918,15.5166-5.63867,25.01367-9.16309,12.26758-4.55078,19.84277-7.35449,20.97168-7.62988l.20312-.0498.2168-.00098c.10449,0,10.80469,1.61133,11.55176,5.17871.64453,3.06738-6.73047,9.93066-7.48535,10.20898-1.08496.40234-8.85547,2.31055-21.44434,5.39062-9.80664,2.39941-20.88672,5.11133-25.76855,6.4209l-3.3584,2.93652-11.05957,3.93262,2.71973-4.25781Z"/>
      <path class="cls-10" d="M560.05591,331.45251c.36261,0,9.45905,1.90674,9.85651,3.80176.39093,1.86377-6.22186,8.16602-6.38855,8.22754-2.08173.77197-37.99677,9.30225-47.45319,11.86865l-3.41144,2.9834-5.98828,2.12988s2.23697-3.50244,2.29794-3.60645c.02689-.0459.96729-.53564,2.00946-1.06836l.06924-2.63916-1.28281-2.44971c-1.00369.12305-1.89471.2251-2.07394.2251-.01663,0-.02716-.00098-.03107-.00293-.10873-.05225-3.92413-1.69922-3.92413-1.69922l6.15302-1.59229,3.89551.71875c9.23816-3.16406,44.10718-16.36914,46.26306-16.89648.00189-.00049.00476-.00049.00867-.00049M560.05688,327.98718h-.41632l-.41229.09912c-1.16986.28613-7.0257,2.44385-21.11908,7.67285-9.23309,3.42578-19.62708,7.28223-24.59491,9.01709l-2.99692-.55273-.75424-.13916-.74255.19189-6.15298,1.59229-9.7818,2.53125,9.27664,4.00439c.00061.00049,3.55417,1.53418,3.86362,1.67236l.00015-.00049c.14886.06689.29929.12305.45151.16846-.28647.2373-.47144.479-.67447.82031-.24072.38428-2.25214,3.5332-2.25247,3.53369l-5.439,8.51611,9.52036-3.38623,5.98825-2.12988.62256-.22119.49731-.43506,2.80566-2.45361c5.04089-1.33936,15.79236-3.97021,25.33575-6.30518,14.50226-3.54834,20.52069-5.03516,21.64697-5.45264.38287-.1416,1.29138-.47705,4.78076-4.37646,3.16711-3.53955,4.2309-5.72949,3.79419-7.81152-.5592-2.66553-3.33594-4.01367-7.33313-5.21777-1.59338-.47998-4.93213-1.3374-5.91357-1.33789h0Z"/>
    </g>
    <rect class="cls-8" x="496.78128" y="353.14677" width="17.6331" height="2.72363" transform="translate(-79.97745 158.53131) rotate(-16.53278)"/>
  </g>
  <g>
    <g>
      <path class="cls-8" d="M1469.96289,338.6029c-2.6709,0-9.44238-2.08301-10.22559-2.82422-.8418-.7959-5.98438-6.91016-14.30469-16.82031-6.5-7.74219-13.84473-16.49023-17.18359-20.29199l-4.12012-1.71094-8.4209-8.17773,5.02148.55469s3.94629.43555,4.21191.46094c.46582.03418.56543.06152,1.9043,1.05078l1.05469-.4873.6582-.90332c-.72363-1.12207-.75781-1.2666-.75781-1.73535-.00879-.20996-.4668-9.22656-.4668-9.22656l7.69922,8.92773,1.06055,3.74219c3.61133,3.56543,11.93945,11.43359,19.3125,18.40137,9.49414,8.9707,15.35156,14.51367,16.09766,15.40332.82617.98145,2.0791,8.17969,1.83398,10.54883-.11816,1.14648-.48926,1.9502-1.13477,2.45605-.54199.4248-1.27539.63184-2.24023.63184Z"/>
      <path class="cls-10" d="M1429.31982,283.44714l4.15088,4.81299,1.07959,3.81152c6.92603,6.88379,34.19958,32.30762,35.62634,34.00732.11438.13623,2.49768,9.3208.95752,10.52881-.2356.18506-.64563.26318-1.1709.26318-2.81543,0-8.92566-2.24756-9.03455-2.35059-1.61353-1.5249-25.15771-29.95605-31.64441-37.2998l-4.1853-1.73877-4.55994-4.42773s4.13074.45605,4.25098.46484c.05298.00391.90833.63037,1.84741,1.3291l2.39734-1.10596,1.62878-2.23438c-.60571-.92432-1.13-1.73877-1.13062-1.78955-.00159-.12061-.21313-4.271-.21313-4.271M1425.34497,273.53259l.5144,10.09082c0,.00049.19019,3.72803.20959,4.18506.0033.1792.01416.33984.03687.49365-.33313-.14648-.62805-.20459-1.0177-.23535-.44031-.04492-4.16821-.45654-4.16882-.45654l-10.04297-1.10889,7.2489,7.03857,4.55994,4.42773.47412.46045.61035.25342,3.44214,1.43018c3.43286,3.92871,10.55261,12.4082,16.87231,19.93506,9.59656,11.42969,13.5918,16.16699,14.4646,16.9917,1.3335,1.26074,8.82312,3.29736,11.41455,3.29736,1.36792,0,2.45068-.32764,3.30994-1.00195,1.01831-.79883,1.62-2.02197,1.78784-3.63525.16382-1.5752-.0387-3.76514-.61926-6.69482-.8385-4.23193-1.19666-4.65869-1.61133-5.15283-.77136-.91895-5.29932-5.21582-16.22839-15.54248-7.15674-6.76172-15.21313-14.37402-18.96692-18.06006l-.83057-2.93262-.20898-.73779-.50098-.58105-4.15088-4.81299-6.59875-7.65137h0Z"/>
    </g>
    <rect class="cls-8" x="1424.04238" y="278.63989" width="2.72363" height="17.6331" transform="translate(184.24716 1045.04309) rotate(-42.80109)"/>
  </g>
  <g>
    <path class="cls-9" d="M963.60181,535.18054c1.40082-3.01074,3.07733-5.88721,4.82391-8.71338,1.75348-2.82422,3.64008-5.56494,5.60699-8.24707,1.98138-2.6709,4.03046-5.29395,6.16943-7.84326,1.0506-1.29102,2.16925-2.52295,3.25128-3.78809l3.35608-3.69775.87939.84424-3.43347,3.58252c-1.10846,1.22705-2.25482,2.42236-3.33344,3.67725-2.1955,2.47656-4.30408,5.02979-6.34839,7.63477-2.02185,2.62158-3.98547,5.29053-5.84357,8.03467-1.84271,2.75244-3.6192,5.55957-5.12823,8.51611Z"/>
    <path class="cls-9" d="M1016.86676,476.6239c10.82391-7.78809,22.30963-14.64795,34.22211-20.64795l1.21143,2.45703c-11.89124,5.74463-23.37866,12.34863-34.23254,19.88818l-1.20099-1.69727Z"/>
    <path class="cls-9" d="M1088.01196,440.62976c12.62769-4.2915,25.50793-7.81494,38.52673-10.6748l.69849,3.2251c-12.92419,2.76465-25.70874,6.18701-38.24121,10.36963l-.98401-2.91992Z"/>
    <path class="cls-9" d="M1165.94958,423.33825l9.93799-1.02441c3.30566-.36719,6.64209-.62891,9.97229-.84473,6.66431-.4248,13.34363-.59961,20.01904-.53076l-.02551,3.20996c-6.59753-.03613-13.19531.16846-19.77563.61963-3.29138.22998-6.57178.50146-9.86072.88574l-9.86157,1.07178-.40588-3.38721Z"/>
    <path class="cls-9" d="M1245.75281,424.22253c6.59351,1.01514,13.15222,2.24951,19.65979,3.70654,6.50195,1.48291,12.95276,3.17822,19.34241,5.07178l-.72778,2.52148c-6.36389-1.78564-12.78162-3.37207-19.24219-4.74658-6.45471-1.40088-12.95227-2.59961-19.48303-3.56982l.45081-2.9834Z"/>
    <path class="cls-9" d="M1322.28528,446.66003c6.10889,2.64453,12.14124,5.46143,18.0885,8.44434,5.93884,3,11.78223,6.18408,17.53613,9.51611l-.63184,1.12012c-5.80872-3.18701-11.70862-6.20166-17.67773-9.06592-5.96082-2.88135-12.0011-5.59473-18.11182-8.13428l.79675-1.88037Z"/>
    <path class="cls-9" d="M1391.104,486.66296c2.14563,1.65967,4.27368,3.34326,6.33289,5.10742-2.1145-1.69678-4.2937-3.31006-6.48901-4.89795l.15613-.20947Z"/>
  </g>
  <g>
    <g>
      <path class="cls-8" d="M1007.18652,489.21325s1.20898-3.77539,1.28711-4.03516c.13086-.45215.17773-.54492,1.40918-1.6582l-.26758-1.13086-.75684-.82715c-1.11035.43262-1.20605.43457-1.49902.43457h-.17285l-.16699-.03223c-.23047-.03809-4.15137-.625-4.15137-.62598l-4.99707-.74902,10.28027-5.77441,3.87793-.2959c4.21191-2.83203,13.58105-9.43457,21.87598-15.2793,10.67383-7.52148,17.26758-12.15918,18.28711-12.71387.25391-.1377.63574-.3457,4.30566-.3457,6.55176,0,7.99512,1.07812,8.58008,2.24219.48438.96484.61816,2.47559-1.66602,6.95703-.02246.04297-2.20117,4.29102-2.95703,4.82422-.9502.66895-7.97168,4.5-19.35059,10.69434-8.86914,4.82812-18.89062,10.28418-23.27637,12.79883l-2.49609,3.69824-9.68457,6.62988,1.53906-4.81152Z"/>
      <path class="cls-10" d="M1056.49658,447.91247c2.85229,0,6.50354.23242,7.03284,1.28662.85449,1.70215-3.927,9.48535-4.07227,9.58789-1.81519,1.27832-34.3551,18.7085-42.84082,23.60791l-2.5351,3.75684-5.24463,3.58984s1.26703-3.95801,1.29938-4.07422c.01428-.05127.79816-.76514,1.66943-1.54639l-.60791-2.56934-1.86652-2.04004c-1.01288.40479-1.90521.75293-1.97589.75293h-.00238c-.11841-.02246-4.22815-.63916-4.22815-.63916l5.54138-3.11279,3.94977-.30127c8.12189-5.42139,38.45508-27.10352,40.40454-28.16406.06213-.03369,1.59534-.13477,3.47632-.13477M1056.49658,444.44714c-4.10925,0-4.53809.2334-5.13159.55615-1.05554.57422-6.1709,4.16211-18.47314,12.83057-8.04236,5.66748-17.0954,12.04688-21.45081,14.99219l-3.03864.23145-.76477.05859-.6687.37549-5.54138,3.11279-8.80884,4.94824,9.99164,1.49951c.00061,0,3.67078.55029,4.13867.62451l.27814.05273.22375.00049c-.21484.30176-.33136.58203-.44019.96289-.13397.43164-1.27399,3.9917-1.27417,3.99219l-3.08038,9.62305,8.33759-5.70703,5.24463-3.58984.54541-.37354.36963-.54785,2.08496-3.08936c4.53333-2.58545,14.26227-7.88184,22.89825-12.5835,13.10095-7.13232,18.53418-10.10596,19.51562-10.79688.31116-.21973,1.13-.79736,3.50305-5.45361,2.15674-4.23145,2.62512-6.62061,1.67078-8.52197-1.17041-2.33057-3.91577-3.19727-10.12952-3.19727h0Z"/>
    </g>
    <rect class="cls-8" x="997.45986" y="482.89715" width="17.6331" height="2.72363" transform="translate(-105.03514 594.19353) rotate(-31.34816)"/>
  </g>
</svg>