<?xml version="1.0" encoding="UTF-8"?>
<svg id="Ebene_2" xmlns="http://www.w3.org/2000/svg" version="1.1" viewBox="0 0 1920 615.6">
  <!-- Generator: Adobe Illustrator 29.0.1, SVG Export Plug-In . SVG Version: 2.1.0 Build 192)  -->
  <defs>
    <style>
      .st0 {
        fill: #fff;
        stroke: #fac102;
        stroke-width: 2.3px;
      }

      .st0, .st1, .st2 {
        stroke-miterlimit: 10;
      }

      .st1 {
        stroke-width: 3px;
      }

      .st1, .st2 {
        fill: none;
        stroke: #0d435c;
      }

      .st3 {
        fill: #0d435c;
      }

      .st2 {
        stroke-width: 1.9px;
      }

      .st4 {
        fill: #f3f5f7;
      }
    </style>
  </defs>
  <rect class="st4" x="-27.1" y="-12.2" width="1959.6" height="643.8"/>
  <g>
    <polyline class="st1" points="925.5 248.1 925.5 168 1453.5 168 1453.5 255.2"/>
    <line class="st1" x1="1626.4" y1="438.9" x2="1626.4" y2="523.6"/>
    <line class="st1" x1="1777.6" y1="438.9" x2="1777.6" y2="523.6"/>
    <line class="st1" x1="324" y1="460.7" x2="324" y2="492.4"/>
    <polyline class="st1" points="127.4 492.7 127.4 460.7 155.3 460.7"/>
    <polyline class="st1" points="505.9 492.7 505.9 460.7 478.1 460.7"/>
    <line class="st1" x1="1196.7" y1="167.4" x2="1196.7" y2="252.1"/>
    <line class="st1" x1="1195" y1="314.3" x2="1195" y2="338.6"/>
    <line class="st1" x1="1453.6" y1="338.6" x2="1453.6" y2="369.5"/>
    <line class="st1" x1="1243.1" y1="338.6" x2="1243.1" y2="369.5"/>
    <line class="st1" x1="1089.7" y1="338.6" x2="1089.7" y2="369.5"/>
    <line class="st1" x1="935.3" y1="338.6" x2="935.3" y2="369.5"/>
    <polyline class="st1" points="177.4 417.8 96.4 417.8 96.4 460.7 551.3 460.7 551.3 417.8 451.8 417.8"/>
    <polyline class="st1" points="711.9 417.8 692.3 417.8 692.3 460.9 1324.5 460.9 1324.5 417.8 1304.4 417.8"/>
    <polyline class="st1" points="827 90.5 1199 90.5 1199 138.8"/>
    <polyline class="st1" points="685 90.5 424.6 90.5 424.6 138.8"/>
    <polyline class="st1" points="539.7 171.4 306.7 171.4 306.7 248.2"/>
    <polyline class="st1" points="350.5 171.4 583.6 171.4 583.6 248.2"/>
    <polyline class="st1" points="776.3 373.1 776.3 338.6 1729 338.6 1729 376.2"/>
    <line class="st1" x1="893" y1="460.9" x2="893" y2="492.4"/>
    <line class="st1" x1="1079.2" y1="460.9" x2="1079.2" y2="492.4"/>
  </g>
  <rect class="st0" x="685" y="59.2" width="216" height="67.4"/>
  <g>
    <path class="st3" d="M720.9,82.6l3.8,12,3.8-12h5.5v17.2h-4.2v-4l.4-8.2-4.2,12.2h-2.7l-4.2-12.3.4,8.2v4h-4.1v-17.2s5.4,0,5.4,0Z"/>
    <path class="st3" d="M736.5,83.7c0-.6.2-1,.6-1.4.4-.4.9-.5,1.6-.5s1.2.2,1.6.5c.4.4.6.8.6,1.4s-.2,1-.6,1.4c-.4.4-.9.5-1.6.5s-1.2-.2-1.6-.5c-.4-.4-.6-.8-.6-1.4ZM740.7,99.8h-4v-12.8h4v12.8Z"/>
    <path class="st3" d="M749.8,96.2c0-.3-.2-.6-.5-.8-.4-.2-1-.4-2-.6-1-.2-1.8-.5-2.5-.9-.6-.4-1.1-.8-1.5-1.3-.3-.5-.5-1.1-.5-1.8,0-1.2.5-2.1,1.5-2.9,1-.8,2.2-1.1,3.8-1.1s3,.4,4.1,1.1c1,.8,1.5,1.8,1.5,3h-4c0-1-.5-1.5-1.6-1.5s-.8.1-1.1.3c-.3.2-.4.5-.4.9s.2.6.5.9.9.4,1.7.5c.8.1,1.4.3,2,.5,1.9.7,2.9,1.8,2.9,3.6s-.5,2.1-1.6,2.8c-1,.7-2.4,1.1-4,1.1s-2.1-.2-2.9-.6-1.5-.9-2-1.6-.7-1.4-.7-2.1h3.7c0,.6.2,1,.6,1.3.4.3.9.4,1.5.4s1-.1,1.2-.3c.3-.2.4-.5.4-.9Z"/>
    <path class="st3" d="M762.2,96.2c0-.3-.2-.6-.5-.8-.4-.2-1-.4-2-.6-1-.2-1.8-.5-2.5-.9-.6-.4-1.1-.8-1.5-1.3-.3-.5-.5-1.1-.5-1.8,0-1.2.5-2.1,1.5-2.9,1-.8,2.2-1.1,3.8-1.1s3,.4,4.1,1.1c1,.8,1.5,1.8,1.5,3h-4c0-1-.5-1.5-1.6-1.5s-.8.1-1.1.3c-.3.2-.4.5-.4.9s.2.6.5.9.9.4,1.7.5c.8.1,1.4.3,2,.5,1.9.7,2.9,1.8,2.9,3.6s-.5,2.1-1.6,2.8c-1,.7-2.4,1.1-4,1.1s-2.1-.2-2.9-.6-1.5-.9-2-1.6-.7-1.4-.7-2.1h3.7c0,.6.2,1,.6,1.3.4.3.9.4,1.5.4s1-.1,1.2-.3c.3-.2.4-.5.4-.9Z"/>
    <path class="st3" d="M767.9,83.7c0-.6.2-1,.6-1.4.4-.4.9-.5,1.6-.5s1.2.2,1.6.5c.4.4.6.8.6,1.4s-.2,1-.6,1.4c-.4.4-.9.5-1.6.5s-1.2-.2-1.6-.5c-.4-.4-.6-.8-.6-1.4ZM772.1,99.8h-4v-12.8h4v12.8Z"/>
    <path class="st3" d="M778.8,99.8h-4v-18.2h4v18.2Z"/>
    <path class="st3" d="M787.4,100.1c-2,0-3.5-.6-4.8-1.8-1.2-1.2-1.8-2.7-1.8-4.6v-.3c0-1.3.2-2.5.7-3.5.5-1,1.2-1.8,2.1-2.3.9-.5,2-.8,3.3-.8s3.2.6,4.3,1.7c1,1.1,1.6,2.7,1.6,4.7v1.5h-7.9c.1.7.5,1.3.9,1.7.5.4,1.1.6,1.9.6,1.3,0,2.2-.4,3-1.3l1.8,2.2c-.5.7-1.2,1.2-2.1,1.6-.9.4-1.9.6-2.9.6ZM787,89.9c-1.2,0-1.9.8-2.1,2.3h4v-.3c0-.6-.1-1.1-.5-1.5s-.8-.5-1.5-.5Z"/>
    <path class="st3" d="M801.1,96.2c0-.3-.2-.6-.5-.8-.4-.2-1-.4-2-.6-1-.2-1.8-.5-2.5-.9-.6-.4-1.1-.8-1.5-1.3-.3-.5-.5-1.1-.5-1.8,0-1.2.5-2.1,1.5-2.9,1-.8,2.2-1.1,3.8-1.1s3,.4,4.1,1.1c1,.8,1.5,1.8,1.5,3h-4c0-1-.5-1.5-1.6-1.5s-.8.1-1.1.3c-.3.2-.4.5-.4.9s.2.6.5.9.9.4,1.7.5c.8.1,1.4.3,2,.5,1.9.7,2.9,1.8,2.9,3.6s-.5,2.1-1.6,2.8c-1,.7-2.4,1.1-4,1.1s-2.1-.2-2.9-.6-1.5-.9-2-1.6-.7-1.4-.7-2.1h3.7c0,.6.2,1,.6,1.3.4.3.9.4,1.5.4s1-.1,1.2-.3c.3-.2.4-.5.4-.9Z"/>
  </g>
  <rect class="st0" x="201.9" y="248.2" width="216" height="67.4"/>
  <rect class="st0" x="437.6" y="492.7" width="155.2" height="67.4"/>
  <rect class="st0" x="811.2" y="492.7" width="155.2" height="67.4"/>
  <rect class="st0" x="1001.6" y="492.7" width="155.2" height="67.4"/>
  <rect class="st0" x="49.8" y="492.7" width="155.2" height="67.4"/>
  <rect class="st0" x="246.4" y="492.7" width="155.2" height="67.4"/>
  <rect class="st0" x="874.5" y="370.5" width="121.5" height="67.4"/>
  <rect class="st0" x="1031.5" y="370.5" width="121.5" height="67.4"/>
  <rect class="st0" x="1182.4" y="370.5" width="121.5" height="67.4"/>
  <rect class="st0" x="1565.6" y="492.7" width="121.5" height="67.4"/>
  <rect class="st0" x="1716.9" y="492.7" width="121.5" height="67.4"/>
  <rect class="st0" x="339.5" y="136.6" width="216" height="67.4"/>
  <rect class="st0" x="1353.5" y="247.3" width="216" height="67.4"/>
  <rect class="st0" x="1090.1" y="247.3" width="216" height="67.4"/>
  <rect class="st0" x="793" y="247.3" width="255.6" height="67.4"/>
  <rect class="st0" x="458.2" y="246.4" width="252" height="69.3"/>
  <g>
    <path class="st3" d="M379.7,174h-5.7l-1,3.2h-4.4l6.3-17.2h3.9l6.4,17.2h-4.5l-1-3.2ZM375.1,170.8h3.7l-1.9-6-1.8,6Z"/>
    <path class="st3" d="M386.2,161.1c0-.6.2-1,.6-1.4.4-.4.9-.5,1.6-.5s1.2.2,1.6.5c.4.4.6.8.6,1.4s-.2,1-.6,1.4c-.4.4-.9.5-1.6.5s-1.2-.2-1.6-.5c-.4-.4-.6-.8-.6-1.4ZM390.5,177.2h-4v-12.8h4v12.8Z"/>
    <path class="st3" d="M400.7,168h-1.3c-1.3,0-2.1.3-2.4,1.1v8.1h-4v-12.8h3.7v1.6c.8-1.3,1.7-1.9,2.9-1.9s.8,0,1.1.1v3.7Z"/>
    <path class="st3" d="M408.3,177.2v-17.2h6.2c2.2,0,3.9.4,5.1,1.2s1.7,2,1.7,3.5-.2,1.7-.6,2.3c-.4.6-1,1.1-1.8,1.4.9.2,1.6.7,2.1,1.3.5.6.7,1.4.7,2.4,0,1.7-.5,3-1.6,3.8-1.1.8-2.6,1.3-4.7,1.3h-7ZM412.5,167.2h2.2c.9,0,1.6-.2,1.9-.5.4-.3.6-.8.6-1.4s-.2-1.3-.6-1.6c-.4-.3-1.1-.5-2-.5h-2v4ZM412.5,169.9v4.1h2.7c.7,0,1.3-.2,1.7-.5.4-.3.6-.8.6-1.4,0-1.4-.7-2.2-2.1-2.2h-2.9Z"/>
    <path class="st3" d="M431.5,168h-1.3c-1.3,0-2.1.3-2.4,1.1v8.1h-4v-12.8h3.7v1.6c.8-1.3,1.7-1.9,2.9-1.9s.8,0,1.1.1v3.7Z"/>
    <path class="st3" d="M438.9,177.5c-2,0-3.5-.6-4.8-1.8-1.2-1.2-1.8-2.7-1.8-4.6v-.3c0-1.3.2-2.5.7-3.5.5-1,1.2-1.8,2.1-2.3.9-.5,2-.8,3.3-.8s3.2.6,4.3,1.7c1,1.1,1.6,2.7,1.6,4.7v1.5h-7.9c.1.7.5,1.3.9,1.7.5.4,1.1.6,1.9.6,1.3,0,2.2-.4,3-1.3l1.8,2.2c-.5.7-1.2,1.2-2.1,1.6-.9.4-1.9.6-2.9.6ZM438.4,167.3c-1.2,0-1.9.8-2.1,2.3h4v-.3c0-.6-.1-1.1-.5-1.5s-.8-.5-1.5-.5Z"/>
    <path class="st3" d="M453.1,177.2c-.1-.3-.3-.6-.4-1.1-.7.9-1.8,1.4-3.1,1.4s-2.2-.4-3.1-1.1c-.8-.7-1.3-1.6-1.3-2.7s.5-2.4,1.5-3.1c1-.7,2.5-1.1,4.5-1.1h1.2v-.7c0-1.2-.5-1.8-1.5-1.8s-1.4.5-1.4,1.4h-4c0-1.2.5-2.2,1.6-3s2.4-1.2,4-1.2,2.9.4,3.9,1.2,1.4,1.9,1.5,3.3v5.7c0,1.2.2,2.1.5,2.7v.2h-4ZM450.6,174.6c.5,0,.9-.1,1.2-.3.3-.2.6-.5.7-.7v-2h-1.2c-1.4,0-2.1.6-2.1,1.9s.1.7.4.9.6.3.9.3Z"/>
    <path class="st3" d="M463.3,161.2v3.2h2.1v2.8h-2.1v5.8c0,.5,0,.8.3,1,.2.2.5.3,1,.3s.7,0,1,0v2.8c-.7.2-1.5.3-2.2.3-1.4,0-2.4-.3-3-1-.7-.6-1-1.6-1-2.9v-6.3h-1.6v-2.8h1.6v-3.2h4Z"/>
    <path class="st3" d="M470.9,165.8c.9-1.1,1.9-1.6,3.3-1.6s2.5.4,3.2,1.3,1.1,2.1,1.1,3.7v8.1h-4v-8c0-.7-.1-1.2-.4-1.5-.3-.3-.7-.5-1.4-.5s-1.4.3-1.7.8v9.2h-4v-18.2h4v6.7Z"/>
    <path class="st3" d="M480.6,161.1c0-.6.2-1,.6-1.4.4-.4.9-.5,1.6-.5s1.2.2,1.6.5c.4.4.6.8.6,1.4s-.2,1-.6,1.4c-.4.4-.9.5-1.6.5s-1.2-.2-1.6-.5c-.4-.4-.6-.8-.6-1.4ZM484.9,177.2h-4v-12.8h4v12.8Z"/>
    <path class="st3" d="M491,164.4v1.5c1-1.2,2.2-1.7,3.8-1.7s2.3.4,3,1.2c.7.8,1,2,1,3.6v8.2h-4v-8.1c0-.6-.1-1.1-.4-1.4-.3-.3-.7-.5-1.4-.5s-1.4.3-1.7.9v9h-4v-12.8h3.7Z"/>
    <path class="st3" d="M500.5,170.7c0-1.3.2-2.4.6-3.4.4-1,1-1.8,1.8-2.3.8-.5,1.7-.8,2.8-.8s2.4.4,3.1,1.3v-1.1h3.8v12.3c0,1.1-.3,2.1-.8,2.9-.5.8-1.3,1.5-2.3,1.9-1,.4-2.1.7-3.5.7s-1.8-.2-2.7-.5c-.9-.4-1.5-.8-2-1.4l1.7-2.3c.7.9,1.7,1.3,2.9,1.3,1.8,0,2.6-.9,2.6-2.7v-.4c-.8.8-1.7,1.3-2.9,1.3s-2.8-.6-3.8-1.8c-1-1.2-1.4-2.8-1.4-4.8h0ZM504.5,171c0,1,.2,1.9.6,2.5.4.6.9.9,1.7.9s1.5-.3,1.9-.9v-5.4c-.4-.6-1-.9-1.9-.9s-1.3.3-1.7,1c-.4.6-.6,1.6-.6,2.8Z"/>
  </g>
  <g>
    <path class="st3" d="M232.1,284.6c0,1.2-.4,2.3-1,3.2-.6.9-1.4,1.6-2.5,2.1-1.1.5-2.3.8-3.7.8-2.3,0-4-.7-5.3-2.2-1.3-1.5-2-3.6-2-6.2v-.9c0-1.7.3-3.2.9-4.4.6-1.3,1.4-2.2,2.5-2.9,1.1-.7,2.4-1,3.8-1,2.1,0,3.8.5,5,1.6,1.3,1.1,2,2.6,2.2,4.5h-4.1c0-1-.3-1.8-.8-2.3-.5-.5-1.3-.7-2.3-.7s-1.8.4-2.3,1.2c-.5.8-.7,2-.8,3.7v1.2c0,1.8.2,3.1.7,3.9s1.3,1.2,2.4,1.2,1.7-.2,2.2-.7c.5-.4.8-1.2.8-2.1h4.1Z"/>
    <path class="st3" d="M241.6,281.3h-1.3c-1.3,0-2.1.3-2.4,1.1v8.1h-4v-12.8h3.7v1.6c.8-1.3,1.7-1.9,2.9-1.9s.8,0,1.1.1v3.7Z"/>
    <path class="st3" d="M250.7,289.1c-.8,1.1-2,1.6-3.4,1.6s-2.5-.4-3.2-1.2-1.1-2-1.1-3.5v-8.3h4v8.3c0,1.1.5,1.6,1.6,1.6s1.6-.3,1.9-1v-9h4v12.8h-3.7v-1.4Z"/>
    <path class="st3" d="M256.7,274.3c0-.6.2-1,.6-1.4.4-.4.9-.5,1.6-.5s1.2.2,1.6.5c.4.4.6.8.6,1.4s-.2,1-.6,1.4c-.4.4-.9.5-1.6.5s-1.2-.2-1.6-.5c-.4-.4-.6-.8-.6-1.4ZM260.9,290.4h-4v-12.8h4v12.8Z"/>
    <path class="st3" d="M270.1,286.8c0-.3-.2-.6-.5-.8-.4-.2-1-.4-2-.6-1-.2-1.8-.5-2.5-.9-.6-.4-1.1-.8-1.5-1.3-.3-.5-.5-1.1-.5-1.8,0-1.2.5-2.1,1.5-2.9,1-.8,2.2-1.1,3.8-1.1s3,.4,4.1,1.1c1,.8,1.5,1.8,1.5,3h-4c0-1-.5-1.5-1.6-1.5s-.8.1-1.1.3c-.3.2-.4.5-.4.9s.2.6.5.9.9.4,1.7.5c.8.1,1.4.3,2,.5,1.9.7,2.9,1.8,2.9,3.6s-.5,2.1-1.6,2.8c-1,.7-2.4,1.1-4,1.1s-2.1-.2-2.9-.6-1.5-.9-2-1.6-.7-1.4-.7-2.1h3.7c0,.6.2,1,.6,1.3.4.3.9.4,1.5.4s1-.1,1.2-.3c.3-.2.4-.5.4-.9Z"/>
    <path class="st3" d="M281.9,290.7c-2,0-3.5-.6-4.8-1.8-1.2-1.2-1.8-2.7-1.8-4.6v-.3c0-1.3.2-2.5.7-3.5.5-1,1.2-1.8,2.1-2.3.9-.5,2-.8,3.3-.8s3.2.6,4.3,1.7c1,1.1,1.6,2.7,1.6,4.7v1.5h-7.9c.1.7.5,1.3.9,1.7.5.4,1.1.6,1.9.6,1.3,0,2.2-.4,3-1.3l1.8,2.2c-.5.7-1.2,1.2-2.1,1.6-.9.4-1.9.6-2.9.6ZM281.5,280.5c-1.2,0-1.9.8-2.1,2.3h4v-.3c0-.6-.1-1.1-.5-1.5s-.8-.5-1.5-.5Z"/>
    <path class="st3" d="M300.6,273.2l3.8,12,3.8-12h5.5v17.2h-4.2v-4l.4-8.2-4.2,12.2h-2.7l-4.2-12.3.4,8.2v4h-4.1v-17.2h5.4Z"/>
    <path class="st3" d="M316.1,274.3c0-.6.2-1,.6-1.4.4-.4.9-.5,1.6-.5s1.2.2,1.6.5c.4.4.6.8.6,1.4s-.2,1-.6,1.4c-.4.4-.9.5-1.6.5s-1.2-.2-1.6-.5c-.4-.4-.6-.8-.6-1.4ZM320.4,290.4h-4v-12.8h4v12.8Z"/>
    <path class="st3" d="M329.5,286.8c0-.3-.2-.6-.5-.8-.4-.2-1-.4-2-.6-1-.2-1.8-.5-2.5-.9-.6-.4-1.1-.8-1.5-1.3-.3-.5-.5-1.1-.5-1.8,0-1.2.5-2.1,1.5-2.9,1-.8,2.2-1.1,3.8-1.1s3,.4,4.1,1.1c1,.8,1.5,1.8,1.5,3h-4c0-1-.5-1.5-1.6-1.5s-.8.1-1.1.3c-.3.2-.4.5-.4.9s.2.6.5.9.9.4,1.7.5c.8.1,1.4.3,2,.5,1.9.7,2.9,1.8,2.9,3.6s-.5,2.1-1.6,2.8c-1,.7-2.4,1.1-4,1.1s-2.1-.2-2.9-.6-1.5-.9-2-1.6-.7-1.4-.7-2.1h3.7c0,.6.2,1,.6,1.3.4.3.9.4,1.5.4s1-.1,1.2-.3c.3-.2.4-.5.4-.9Z"/>
    <path class="st3" d="M341.9,286.8c0-.3-.2-.6-.5-.8-.4-.2-1-.4-2-.6-1-.2-1.8-.5-2.5-.9-.6-.4-1.1-.8-1.5-1.3-.3-.5-.5-1.1-.5-1.8,0-1.2.5-2.1,1.5-2.9,1-.8,2.2-1.1,3.8-1.1s3,.4,4.1,1.1c1,.8,1.5,1.8,1.5,3h-4c0-1-.5-1.5-1.6-1.5s-.8.1-1.1.3c-.3.2-.4.5-.4.9s.2.6.5.9.9.4,1.7.5c.8.1,1.4.3,2,.5,1.9.7,2.9,1.8,2.9,3.6s-.5,2.1-1.6,2.8c-1,.7-2.4,1.1-4,1.1s-2.1-.2-2.9-.6-1.5-.9-2-1.6-.7-1.4-.7-2.1h3.7c0,.6.2,1,.6,1.3.4.3.9.4,1.5.4s1-.1,1.2-.3c.3-.2.4-.5.4-.9Z"/>
    <path class="st3" d="M347.6,274.3c0-.6.2-1,.6-1.4.4-.4.9-.5,1.6-.5s1.2.2,1.6.5c.4.4.6.8.6,1.4s-.2,1-.6,1.4c-.4.4-.9.5-1.6.5s-1.2-.2-1.6-.5c-.4-.4-.6-.8-.6-1.4ZM351.8,290.4h-4v-12.8h4v12.8Z"/>
    <path class="st3" d="M358.5,290.4h-4v-18.2h4v18.2Z"/>
    <path class="st3" d="M367.1,290.7c-2,0-3.5-.6-4.8-1.8-1.2-1.2-1.8-2.7-1.8-4.6v-.3c0-1.3.2-2.5.7-3.5.5-1,1.2-1.8,2.1-2.3.9-.5,2-.8,3.3-.8s3.2.6,4.3,1.7c1,1.1,1.6,2.7,1.6,4.7v1.5h-7.9c.1.7.5,1.3.9,1.7.5.4,1.1.6,1.9.6,1.3,0,2.2-.4,3-1.3l1.8,2.2c-.5.7-1.2,1.2-2.1,1.6-.9.4-1.9.6-2.9.6ZM366.7,280.5c-1.2,0-1.9.8-2.1,2.3h4v-.3c0-.6-.1-1.1-.5-1.5s-.8-.5-1.5-.5Z"/>
    <path class="st3" d="M380.8,286.8c0-.3-.2-.6-.5-.8-.4-.2-1-.4-2-.6-1-.2-1.8-.5-2.5-.9-.6-.4-1.1-.8-1.5-1.3-.3-.5-.5-1.1-.5-1.8,0-1.2.5-2.1,1.5-2.9,1-.8,2.2-1.1,3.8-1.1s3,.4,4.1,1.1c1,.8,1.5,1.8,1.5,3h-4c0-1-.5-1.5-1.6-1.5s-.8.1-1.1.3c-.3.2-.4.5-.4.9s.2.6.5.9.9.4,1.7.5c.8.1,1.4.3,2,.5,1.9.7,2.9,1.8,2.9,3.6s-.5,2.1-1.6,2.8c-1,.7-2.4,1.1-4,1.1s-2.1-.2-2.9-.6-1.5-.9-2-1.6-.7-1.4-.7-2.1h3.7c0,.6.2,1,.6,1.3.4.3.9.4,1.5.4s1-.1,1.2-.3c.3-.2.4-.5.4-.9Z"/>
  </g>
  <g>
    <path class="st3" d="M72.1,530.6c0-.3-.2-.6-.5-.8-.4-.2-1-.4-2-.6s-1.8-.5-2.5-.9c-.6-.4-1.1-.8-1.5-1.3-.3-.5-.5-1.1-.5-1.8,0-1.2.5-2.1,1.5-2.9,1-.8,2.2-1.1,3.8-1.1s3,.4,4.1,1.1c1,.8,1.5,1.8,1.5,3h-4c0-1-.5-1.5-1.6-1.5s-.8.1-1.1.3-.4.5-.4.9.2.6.5.9.9.4,1.7.5c.8.1,1.4.3,2,.5,1.9.7,2.9,1.8,2.9,3.6s-.5,2.1-1.6,2.8c-1,.7-2.4,1.1-4,1.1s-2.1-.2-2.9-.6c-.9-.4-1.5-.9-2-1.6s-.7-1.4-.7-2.1h3.7c0,.6.2,1,.6,1.3.4.3.9.4,1.5.4s1-.1,1.2-.3c.3-.2.4-.5.4-.9h0Z"/>
    <path class="st3" d="M85.4,532.9c-.8,1.1-2,1.6-3.4,1.6s-2.5-.4-3.2-1.2c-.7-.8-1.1-2-1.1-3.5v-8.3h4v8.3c0,1.1.5,1.6,1.6,1.6s1.6-.3,1.9-1v-9h4v12.8h-3.7v-1.4Z"/>
    <path class="st3" d="M103.3,528c0,2.1-.4,3.7-1.3,4.8-.9,1.1-2.1,1.7-3.7,1.7s-2.3-.5-3.1-1.5l-.2,1.3h-3.6v-18.2h4v6.4c.7-.8,1.7-1.3,2.9-1.3s2.8.6,3.7,1.7,1.3,2.8,1.3,4.8c0,0,0,.2,0,.2ZM99.3,527.7c0-1.2-.2-2.1-.5-2.6-.3-.5-.8-.8-1.5-.8s-1.5.3-1.9,1v5.1c.3.7,1,1,1.9,1s1.5-.5,1.8-1.4c.1-.4.2-1.2.2-2.3h0Z"/>
    <path class="st3" d="M111.7,530.6c0-.3-.2-.6-.5-.8-.4-.2-1-.4-2-.6s-1.8-.5-2.5-.9c-.6-.4-1.1-.8-1.5-1.3-.3-.5-.5-1.1-.5-1.8,0-1.2.5-2.1,1.5-2.9,1-.8,2.2-1.1,3.8-1.1s3,.4,4.1,1.1c1,.8,1.5,1.8,1.5,3h-4c0-1-.5-1.5-1.6-1.5s-.8.1-1.1.3-.4.5-.4.9.2.6.5.9.9.4,1.7.5c.8.1,1.4.3,2,.5,1.9.7,2.9,1.8,2.9,3.6s-.5,2.1-1.6,2.8c-1,.7-2.4,1.1-4,1.1s-2.1-.2-2.9-.6c-.9-.4-1.5-.9-2-1.6s-.7-1.4-.7-2.1h3.7c0,.6.2,1,.6,1.3.4.3.9.4,1.5.4s1-.1,1.2-.3c.3-.2.4-.5.4-.9h0Z"/>
    <path class="st3" d="M116.9,527.7c0-1.3.2-2.4.7-3.4.5-1,1.2-1.8,2.1-2.3.9-.5,2-.8,3.3-.8,1.9,0,3.4.6,4.5,1.8,1.1,1.2,1.7,2.8,1.7,4.8h0c0,2.1-.6,3.7-1.7,4.9s-2.6,1.8-4.5,1.8-3.3-.5-4.4-1.6-1.7-2.6-1.8-4.4c0,0,0-.7,0-.7ZM120.9,528c0,1.2.2,2,.6,2.6.4.6.9.8,1.6.8,1.4,0,2.1-1.1,2.2-3.3v-.4c0-2.3-.7-3.4-2.2-3.4s-2.1,1-2.2,3v.7Z"/>
    <path class="st3" d="M134.7,521.5v1.5c1-1.2,2.2-1.7,3.8-1.7s2.3.4,3,1.2c.7.8,1,2,1,3.6v8.2h-4v-8.1c0-.6-.1-1.1-.4-1.4-.3-.3-.7-.5-1.4-.5s-1.4.3-1.7.9v9h-4v-12.8s3.7,0,3.7,0Z"/>
    <path class="st3" d="M144.7,518.1c0-.6.2-1,.6-1.4.4-.4.9-.5,1.6-.5s1.2.2,1.6.5c.4.4.6.8.6,1.4s-.2,1-.6,1.4-.9.5-1.6.5-1.2-.2-1.6-.5-.6-.8-.6-1.4ZM148.9,534.2h-4v-12.8h4v12.8Z"/>
    <path class="st3" d="M156.7,531.4c.6,0,1-.2,1.3-.5.3-.3.5-.7.4-1.3h3.7c0,1.4-.5,2.6-1.5,3.5-1,.9-2.3,1.3-3.9,1.3s-3.3-.6-4.4-1.7-1.6-2.8-1.6-4.8v-.2c0-1.3.2-2.4.7-3.4.5-1,1.2-1.7,2.1-2.3.9-.5,2-.8,3.2-.8s3,.5,4,1.4c1,.9,1.5,2.2,1.5,3.7h-3.7c0-.7-.2-1.2-.5-1.5-.3-.4-.8-.5-1.3-.5-1,0-1.6.7-1.8,2,0,.4,0,1,0,1.7,0,1.3.2,2.2.5,2.7.3.5.8.7,1.5.7Z"/>
  </g>
  <g>
    <path class="st3" d="M271.5,528.9c0-.3-.2-.6-.5-.8-.4-.2-1-.4-2-.6-1-.2-1.8-.5-2.5-.9-.6-.4-1.1-.8-1.5-1.3-.3-.5-.5-1.1-.5-1.8,0-1.2.5-2.1,1.5-2.9,1-.8,2.2-1.1,3.8-1.1s3,.4,4.1,1.1c1,.8,1.5,1.8,1.5,3h-4c0-1-.5-1.5-1.6-1.5s-.8.1-1.1.3c-.3.2-.4.5-.4.9s.2.6.5.9.9.4,1.7.5c.8.1,1.4.3,2,.5,1.9.7,2.9,1.8,2.9,3.6s-.5,2.1-1.6,2.8c-1,.7-2.4,1.1-4,1.1s-2.1-.2-2.9-.6-1.5-.9-2-1.6-.7-1.4-.7-2.1h3.7c0,.6.2,1,.6,1.3.4.3.9.4,1.5.4s1-.1,1.2-.3c.3-.2.4-.5.4-.9Z"/>
    <path class="st3" d="M284.8,531.1c-.8,1.1-2,1.6-3.4,1.6s-2.5-.4-3.2-1.2-1.1-2-1.1-3.5v-8.3h4v8.3c0,1.1.5,1.6,1.6,1.6s1.6-.3,1.9-1v-9h4v12.8h-3.7v-1.4Z"/>
    <path class="st3" d="M302.7,526.1c0,2-.4,3.6-1.3,4.8-.9,1.2-2.1,1.8-3.6,1.8s-2.1-.4-2.9-1.3v6h-4v-17.7h3.7v1.2c.9-.9,1.9-1.4,3.1-1.4s2.8.6,3.7,1.7c.9,1.2,1.3,2.8,1.3,4.8v.2ZM298.8,525.9c0-2.3-.7-3.4-2-3.4s-1.6.3-1.9,1v5c.3.7,1,1.1,1.9,1.1s1.9-1.1,2-3.3v-.4Z"/>
    <path class="st3" d="M310.7,532.7c-2,0-3.5-.6-4.8-1.8-1.2-1.2-1.8-2.7-1.8-4.6v-.3c0-1.3.2-2.5.7-3.5.5-1,1.2-1.8,2.1-2.3.9-.5,2-.8,3.3-.8s3.2.6,4.3,1.7c1,1.1,1.6,2.7,1.6,4.7v1.5h-7.9c.1.7.5,1.3.9,1.7.5.4,1.1.6,1.9.6,1.3,0,2.2-.4,3-1.3l1.8,2.2c-.5.7-1.2,1.2-2.1,1.6-.9.4-1.9.6-2.9.6ZM310.2,522.5c-1.2,0-1.9.8-2.1,2.3h4v-.3c0-.6-.1-1.1-.5-1.5s-.8-.5-1.5-.5Z"/>
    <path class="st3" d="M325.4,523.3h-1.3c-1.3,0-2.1.3-2.4,1.1v8.1h-4v-12.8h3.7v1.6c.8-1.3,1.7-1.9,2.9-1.9s.8,0,1.1.1v3.7Z"/>
    <path class="st3" d="M333.5,528.9c0-.3-.2-.6-.5-.8-.4-.2-1-.4-2-.6-1-.2-1.8-.5-2.5-.9-.6-.4-1.1-.8-1.5-1.3-.3-.5-.5-1.1-.5-1.8,0-1.2.5-2.1,1.5-2.9,1-.8,2.2-1.1,3.8-1.1s3,.4,4.1,1.1c1,.8,1.5,1.8,1.5,3h-4c0-1-.5-1.5-1.6-1.5s-.8.1-1.1.3c-.3.2-.4.5-.4.9s.2.6.5.9.9.4,1.7.5c.8.1,1.4.3,2,.5,1.9.7,2.9,1.8,2.9,3.6s-.5,2.1-1.6,2.8c-1,.7-2.4,1.1-4,1.1s-2.1-.2-2.9-.6-1.5-.9-2-1.6-.7-1.4-.7-2.1h3.7c0,.6.2,1,.6,1.3.4.3.9.4,1.5.4s1-.1,1.2-.3c.3-.2.4-.5.4-.9Z"/>
    <path class="st3" d="M338.7,525.9c0-1.3.2-2.4.7-3.4.5-1,1.2-1.8,2.1-2.3.9-.5,2-.8,3.3-.8,1.9,0,3.4.6,4.5,1.8,1.1,1.2,1.7,2.8,1.7,4.8h0c0,2.1-.6,3.7-1.7,4.9-1.1,1.2-2.6,1.8-4.5,1.8s-3.3-.5-4.4-1.6c-1.1-1.1-1.7-2.6-1.8-4.4v-.7ZM342.7,526.2c0,1.2.2,2,.6,2.6.4.6.9.8,1.6.8,1.4,0,2.1-1.1,2.2-3.3v-.4c0-2.3-.7-3.4-2.2-3.4s-2.1,1-2.2,3v.7Z"/>
    <path class="st3" d="M356.5,519.7v1.5c1-1.2,2.2-1.7,3.8-1.7s2.3.4,3,1.2c.7.8,1,2,1,3.6v8.2h-4v-8.1c0-.6-.1-1.1-.4-1.4-.3-.3-.7-.5-1.4-.5s-1.4.3-1.7.9v9h-4v-12.8h3.7Z"/>
    <path class="st3" d="M366.4,516.3c0-.6.2-1,.6-1.4.4-.4.9-.5,1.6-.5s1.2.2,1.6.5c.4.4.6.8.6,1.4s-.2,1-.6,1.4c-.4.4-.9.5-1.6.5s-1.2-.2-1.6-.5c-.4-.4-.6-.8-.6-1.4ZM370.7,532.4h-4v-12.8h4v12.8Z"/>
    <path class="st3" d="M378.5,529.6c.6,0,1-.2,1.3-.5.3-.3.5-.7.4-1.3h3.7c0,1.4-.5,2.6-1.5,3.5-1,.9-2.3,1.3-3.9,1.3s-3.3-.6-4.4-1.7-1.6-2.8-1.6-4.8v-.2c0-1.3.2-2.4.7-3.4.5-1,1.2-1.7,2.1-2.3.9-.5,2-.8,3.2-.8s3,.5,4,1.4c1,.9,1.5,2.2,1.5,3.7h-3.7c0-.7-.2-1.2-.5-1.5-.3-.4-.8-.5-1.3-.5-1,0-1.6.7-1.8,2,0,.4,0,1,0,1.7,0,1.3.2,2.2.5,2.7.3.5.8.7,1.5.7Z"/>
  </g>
  <g>
    <path class="st3" d="M458.2,521c.9-1.1,1.9-1.6,3.3-1.6s2.5.4,3.2,1.3,1.1,2.1,1.1,3.7v8.1h-4v-8c0-.7-.1-1.2-.4-1.5-.3-.3-.7-.5-1.4-.5s-1.4.3-1.7.8v9.2h-4v-18.2h4v6.7Z"/>
    <path class="st3" d="M473.1,526.9l2.1-7.2h4.3l-5.2,14.9-.2.5c-.7,1.7-2,2.5-3.9,2.5s-1.1,0-1.6-.2v-2.8h.5c.6,0,1,0,1.3-.2.3-.2.5-.5.7-.9l.3-.9-4.4-12.9h4.3l2,7.2Z"/>
    <path class="st3" d="M492.4,526.1c0,2-.4,3.6-1.3,4.8-.9,1.2-2.1,1.8-3.6,1.8s-2.1-.4-2.9-1.3v6h-4v-17.7h3.7v1.2c.9-.9,1.9-1.4,3.1-1.4s2.8.6,3.7,1.7c.9,1.2,1.3,2.8,1.3,4.8v.2ZM488.4,525.9c0-2.3-.7-3.4-2-3.4s-1.6.3-1.9,1v5c.3.7,1,1.1,1.9,1.1s1.9-1.1,2-3.3v-.4Z"/>
    <path class="st3" d="M500.3,532.7c-2,0-3.5-.6-4.8-1.8-1.2-1.2-1.8-2.7-1.8-4.6v-.3c0-1.3.2-2.5.7-3.5.5-1,1.2-1.8,2.1-2.3.9-.5,2-.8,3.3-.8s3.2.6,4.3,1.7c1,1.1,1.6,2.7,1.6,4.7v1.5h-7.9c.1.7.5,1.3.9,1.7.5.4,1.1.6,1.9.6,1.3,0,2.2-.4,3-1.3l1.8,2.2c-.5.7-1.2,1.2-2.1,1.6-.9.4-1.9.6-2.9.6ZM499.9,522.5c-1.2,0-1.9.8-2.1,2.3h4v-.3c0-.6-.1-1.1-.5-1.5s-.8-.5-1.5-.5Z"/>
    <path class="st3" d="M515.1,523.3h-1.3c-1.3,0-2.1.3-2.4,1.1v8.1h-4v-12.8h3.7v1.6c.8-1.3,1.7-1.9,2.9-1.9s.8,0,1.1.1v3.7Z"/>
    <path class="st3" d="M523.2,528.9c0-.3-.2-.6-.5-.8-.4-.2-1-.4-2-.6-1-.2-1.8-.5-2.5-.9-.6-.4-1.1-.8-1.5-1.3-.3-.5-.5-1.1-.5-1.8,0-1.2.5-2.1,1.5-2.9,1-.8,2.2-1.1,3.8-1.1s3,.4,4.1,1.1c1,.8,1.5,1.8,1.5,3h-4c0-1-.5-1.5-1.6-1.5s-.8.1-1.1.3c-.3.2-.4.5-.4.9s.2.6.5.9.9.4,1.7.5c.8.1,1.4.3,2,.5,1.9.7,2.9,1.8,2.9,3.6s-.5,2.1-1.6,2.8c-1,.7-2.4,1.1-4,1.1s-2.1-.2-2.9-.6-1.5-.9-2-1.6-.7-1.4-.7-2.1h3.7c0,.6.2,1,.6,1.3.4.3.9.4,1.5.4s1-.1,1.2-.3c.3-.2.4-.5.4-.9Z"/>
    <path class="st3" d="M528.4,525.9c0-1.3.2-2.4.7-3.4.5-1,1.2-1.8,2.1-2.3.9-.5,2-.8,3.3-.8,1.9,0,3.4.6,4.5,1.8,1.1,1.2,1.7,2.8,1.7,4.8h0c0,2.1-.6,3.7-1.7,4.9-1.1,1.2-2.6,1.8-4.5,1.8s-3.3-.5-4.4-1.6c-1.1-1.1-1.7-2.6-1.8-4.4v-.7ZM532.4,526.2c0,1.2.2,2,.6,2.6.4.6.9.8,1.6.8,1.4,0,2.1-1.1,2.2-3.3v-.4c0-2.3-.7-3.4-2.2-3.4s-2.1,1-2.2,3v.7Z"/>
    <path class="st3" d="M546.1,519.7v1.5c1-1.2,2.2-1.7,3.8-1.7s2.3.4,3,1.2c.7.8,1,2,1,3.6v8.2h-4v-8.1c0-.6-.1-1.1-.4-1.4-.3-.3-.7-.5-1.4-.5s-1.4.3-1.7.9v9h-4v-12.8h3.7Z"/>
    <path class="st3" d="M556.1,516.3c0-.6.2-1,.6-1.4.4-.4.9-.5,1.6-.5s1.2.2,1.6.5c.4.4.6.8.6,1.4s-.2,1-.6,1.4c-.4.4-.9.5-1.6.5s-1.2-.2-1.6-.5c-.4-.4-.6-.8-.6-1.4ZM560.3,532.4h-4v-12.8h4v12.8Z"/>
    <path class="st3" d="M568.2,529.6c.6,0,1-.2,1.3-.5.3-.3.5-.7.4-1.3h3.7c0,1.4-.5,2.6-1.5,3.5-1,.9-2.3,1.3-3.9,1.3s-3.3-.6-4.4-1.7-1.6-2.8-1.6-4.8v-.2c0-1.3.2-2.4.7-3.4.5-1,1.2-1.7,2.1-2.3.9-.5,2-.8,3.2-.8s3,.5,4,1.4c1,.9,1.5,2.2,1.5,3.7h-3.7c0-.7-.2-1.2-.5-1.5-.3-.4-.8-.5-1.3-.5-1,0-1.6.7-1.8,2,0,.4,0,1,0,1.7,0,1.3.2,2.2.5,2.7.3.5.8.7,1.5.7Z"/>
  </g>
  <g>
    <path class="st3" d="M473.9,271.7h7.2v3.2h-11.4v-17.2h4.1v14Z"/>
    <path class="st3" d="M482.1,268.3c0-1.3.2-2.4.7-3.4.5-1,1.2-1.8,2.1-2.3.9-.5,2-.8,3.3-.8,1.9,0,3.4.6,4.5,1.8,1.1,1.2,1.7,2.8,1.7,4.8h0c0,2.1-.6,3.7-1.7,4.9-1.1,1.2-2.6,1.8-4.5,1.8s-3.3-.5-4.4-1.6c-1.1-1.1-1.7-2.6-1.8-4.4v-.7ZM486.1,268.6c0,1.2.2,2,.6,2.6.4.6.9.8,1.6.8,1.4,0,2.1-1.1,2.2-3.3v-.4c0-2.3-.7-3.4-2.2-3.4s-2.1,1-2.2,3v.7Z"/>
    <path class="st3" d="M499.9,262.1v1.5c1-1.2,2.2-1.7,3.8-1.7s2.3.4,3,1.2c.7.8,1,2,1,3.6v8.2h-4v-8.1c0-.6-.1-1.1-.4-1.4-.3-.3-.7-.5-1.4-.5s-1.4.3-1.7.9v9h-4v-12.8h3.7Z"/>
    <path class="st3" d="M509.4,268.4c0-1.3.2-2.4.6-3.4.4-1,1-1.8,1.8-2.3.8-.5,1.7-.8,2.8-.8s2.4.4,3.1,1.3v-1.1h3.8v12.3c0,1.1-.3,2.1-.8,2.9-.5.8-1.3,1.5-2.3,1.9-1,.4-2.1.7-3.5.7s-1.8-.2-2.7-.5c-.9-.4-1.5-.8-2-1.4l1.7-2.3c.7.9,1.7,1.3,2.9,1.3,1.8,0,2.6-.9,2.6-2.7v-.4c-.8.8-1.7,1.3-2.9,1.3s-2.8-.6-3.8-1.8c-1-1.2-1.4-2.8-1.4-4.8h0ZM513.4,268.6c0,1,.2,1.9.6,2.5.4.6.9.9,1.7.9s1.5-.3,1.9-.9v-5.4c-.4-.6-1-.9-1.9-.9s-1.3.3-1.7,1c-.4.6-.6,1.6-.6,2.8Z"/>
    <path class="st3" d="M531.6,269h-7.1v-3.1h7.1v3.1Z"/>
    <path class="st3" d="M541.3,268.8h-2.2v6.1h-4.1v-17.2h6.8c2,0,3.6.5,4.8,1.4s1.7,2.2,1.7,3.8-.2,2.2-.7,3-1.2,1.4-2.3,1.9l3.6,6.9v.2h-4.4l-3-6.1ZM539,265.6h2.6c.8,0,1.4-.2,1.8-.6.4-.4.6-1,.6-1.7s-.2-1.3-.6-1.7c-.4-.4-1-.6-1.8-.6h-2.6v4.7Z"/>
    <path class="st3" d="M557.7,274.9c-.1-.3-.3-.6-.4-1.1-.7.9-1.8,1.4-3.1,1.4s-2.2-.4-3.1-1.1c-.8-.7-1.3-1.6-1.3-2.7s.5-2.4,1.5-3.1c1-.7,2.5-1.1,4.5-1.1h1.2v-.7c0-1.2-.5-1.8-1.5-1.8s-1.4.5-1.4,1.4h-4c0-1.2.5-2.2,1.6-3s2.4-1.2,4-1.2,2.9.4,3.9,1.2,1.4,1.9,1.5,3.3v5.7c0,1.2.2,2.1.5,2.7v.2h-4ZM555.2,272.3c.5,0,.9-.1,1.2-.3.3-.2.6-.5.7-.7v-2h-1.2c-1.4,0-2.1.6-2.1,1.9s.1.7.4.9.6.3.9.3Z"/>
    <path class="st3" d="M567,262.1v1.5c1-1.2,2.2-1.7,3.8-1.7s2.3.4,3,1.2c.7.8,1,2,1,3.6v8.2h-4v-8.1c0-.6-.1-1.1-.4-1.4-.3-.3-.7-.5-1.4-.5s-1.4.3-1.7.9v9h-4v-12.8h3.7Z"/>
    <path class="st3" d="M576.5,268.4c0-1.3.2-2.4.6-3.4.4-1,1-1.8,1.8-2.3.8-.5,1.7-.8,2.8-.8s2.4.4,3.1,1.3v-1.1h3.8v12.3c0,1.1-.3,2.1-.8,2.9-.5.8-1.3,1.5-2.3,1.9-1,.4-2.1.7-3.5.7s-1.8-.2-2.7-.5c-.9-.4-1.5-.8-2-1.4l1.7-2.3c.7.9,1.7,1.3,2.9,1.3,1.8,0,2.6-.9,2.6-2.7v-.4c-.8.8-1.7,1.3-2.9,1.3s-2.8-.6-3.8-1.8c-1-1.2-1.4-2.8-1.4-4.8h0ZM580.5,268.6c0,1,.2,1.9.6,2.5.4.6.9.9,1.7.9s1.5-.3,1.9-.9v-5.4c-.4-.6-1-.9-1.9-.9s-1.3.3-1.7,1c-.4.6-.6,1.6-.6,2.8Z"/>
    <path class="st3" d="M597.1,275.1c-2,0-3.5-.6-4.8-1.8-1.2-1.2-1.8-2.7-1.8-4.6v-.3c0-1.3.2-2.5.7-3.5.5-1,1.2-1.8,2.1-2.3.9-.5,2-.8,3.3-.8s3.2.6,4.3,1.7c1,1.1,1.6,2.7,1.6,4.7v1.5h-7.9c.1.7.5,1.3.9,1.7.5.4,1.1.6,1.9.6,1.3,0,2.2-.4,3-1.3l1.8,2.2c-.5.7-1.2,1.2-2.1,1.6-.9.4-1.9.6-2.9.6ZM596.6,264.9c-1.2,0-1.9.8-2.1,2.3h4v-.3c0-.6-.1-1.1-.5-1.5s-.8-.5-1.5-.5Z"/>
    <path class="st3" d="M609.6,268.3c0-1.3.2-2.4.7-3.4.5-1,1.2-1.8,2.1-2.3.9-.5,2-.8,3.3-.8,1.9,0,3.4.6,4.5,1.8,1.1,1.2,1.7,2.8,1.7,4.8h0c0,2.1-.6,3.7-1.7,4.9-1.1,1.2-2.6,1.8-4.5,1.8s-3.3-.5-4.4-1.6c-1.1-1.1-1.7-2.6-1.8-4.4v-.7ZM613.6,268.6c0,1.2.2,2,.6,2.6.4.6.9.8,1.6.8,1.4,0,2.1-1.1,2.2-3.3v-.4c0-2.3-.7-3.4-2.2-3.4s-2.1,1-2.2,3v.7Z"/>
    <path class="st3" d="M627.3,262.1v1.5c1-1.2,2.2-1.7,3.8-1.7s2.3.4,3,1.2c.7.8,1,2,1,3.6v8.2h-4v-8.1c0-.6-.1-1.1-.4-1.4-.3-.3-.7-.5-1.4-.5s-1.4.3-1.7.9v9h-4v-12.8h3.7Z"/>
    <path class="st3" d="M643.5,275.1c-2,0-3.5-.6-4.8-1.8-1.2-1.2-1.8-2.7-1.8-4.6v-.3c0-1.3.2-2.5.7-3.5.5-1,1.2-1.8,2.1-2.3.9-.5,2-.8,3.3-.8s3.2.6,4.3,1.7c1,1.1,1.6,2.7,1.6,4.7v1.5h-7.9c.1.7.5,1.3.9,1.7.5.4,1.1.6,1.9.6,1.3,0,2.2-.4,3-1.3l1.8,2.2c-.5.7-1.2,1.2-2.1,1.6-.9.4-1.9.6-2.9.6ZM643.1,264.9c-1.2,0-1.9.8-2.1,2.3h4v-.3c0-.6-.1-1.1-.5-1.5s-.8-.5-1.5-.5Z"/>
    <path class="st3" d="M661.6,269.6l1.3-7.5h3.8l-3,12.8h-3.4l-2.1-7.6-2.1,7.6h-3.4l-3-12.8h3.8l1.3,7.7,2-7.7h2.8l2,7.5Z"/>
    <path class="st3" d="M675.3,274.9c-.1-.3-.3-.6-.4-1.1-.7.9-1.8,1.4-3.1,1.4s-2.2-.4-3.1-1.1c-.8-.7-1.3-1.6-1.3-2.7s.5-2.4,1.5-3.1c1-.7,2.5-1.1,4.5-1.1h1.2v-.7c0-1.2-.5-1.8-1.5-1.8s-1.4.5-1.4,1.4h-4c0-1.2.5-2.2,1.6-3s2.4-1.2,4-1.2,2.9.4,3.9,1.2,1.4,1.9,1.5,3.3v5.7c0,1.2.2,2.1.5,2.7v.2h-4ZM672.8,272.3c.5,0,.9-.1,1.2-.3.3-.2.6-.5.7-.7v-2h-1.2c-1.4,0-2.1.6-2.1,1.9s.1.7.4.9.6.3.9.3Z"/>
    <path class="st3" d="M685.9,269.3l2.1-7.2h4.3l-5.2,14.9-.2.5c-.7,1.7-2,2.5-3.9,2.5s-1.1,0-1.6-.2v-2.8h.5c.6,0,1,0,1.3-.2.3-.2.5-.5.7-.9l.3-.9-4.4-12.9h4.3l2,7.2Z"/>
    <path class="st3" d="M476.7,302.1c-.1-.3-.3-.6-.4-1.1-.7.9-1.8,1.4-3.1,1.4s-2.2-.4-3.1-1.1c-.8-.7-1.3-1.6-1.3-2.7s.5-2.4,1.5-3.1c1-.7,2.5-1.1,4.5-1.1h1.2v-.7c0-1.2-.5-1.8-1.5-1.8s-1.4.5-1.4,1.4h-4c0-1.2.5-2.2,1.6-3s2.4-1.2,4-1.2,2.9.4,3.9,1.2,1.4,1.9,1.5,3.3v5.7c0,1.2.2,2.1.5,2.7v.2h-4ZM474.2,299.5c.5,0,.9-.1,1.2-.3.3-.2.6-.5.7-.7v-2h-1.2c-1.4,0-2.1.6-2.1,1.9s.1.7.4.9.6.3.9.3Z"/>
    <path class="st3" d="M487,286.1v3.2h2.1v2.8h-2.1v5.8c0,.5,0,.8.3,1,.2.2.5.3,1,.3s.7,0,1,0v2.8c-.7.2-1.5.3-2.2.3-1.4,0-2.4-.3-3-1-.7-.6-1-1.6-1-2.9v-6.3h-1.6v-2.8h1.6v-3.2h4Z"/>
    <path class="st3" d="M495.3,286.1v3.2h2.1v2.8h-2.1v5.8c0,.5,0,.8.3,1,.2.2.5.3,1,.3s.7,0,1,0v2.8c-.7.2-1.5.3-2.2.3-1.4,0-2.4-.3-3-1-.7-.6-1-1.6-1-2.9v-6.3h-1.6v-2.8h1.6v-3.2h4Z"/>
    <path class="st3" d="M506.2,302.1c-.1-.3-.3-.6-.4-1.1-.7.9-1.8,1.4-3.1,1.4s-2.2-.4-3.1-1.1c-.8-.7-1.3-1.6-1.3-2.7s.5-2.4,1.5-3.1c1-.7,2.5-1.1,4.5-1.1h1.2v-.7c0-1.2-.5-1.8-1.5-1.8s-1.4.5-1.4,1.4h-4c0-1.2.5-2.2,1.6-3s2.4-1.2,4-1.2,2.9.4,3.9,1.2,1.4,1.9,1.5,3.3v5.7c0,1.2.2,2.1.5,2.7v.2h-4ZM503.7,299.5c.5,0,.9-.1,1.2-.3.3-.2.6-.5.7-.7v-2h-1.2c-1.4,0-2.1.6-2.1,1.9s.1.7.4.9.6.3.9.3Z"/>
    <path class="st3" d="M517.2,299.2c.6,0,1-.2,1.3-.5.3-.3.5-.7.4-1.3h3.7c0,1.4-.5,2.6-1.5,3.5-1,.9-2.3,1.3-3.9,1.3s-3.3-.6-4.4-1.7-1.6-2.8-1.6-4.8v-.2c0-1.3.2-2.4.7-3.4.5-1,1.2-1.7,2.1-2.3.9-.5,2-.8,3.2-.8s3,.5,4,1.4c1,.9,1.5,2.2,1.5,3.7h-3.7c0-.7-.2-1.2-.5-1.5-.3-.4-.8-.5-1.3-.5-1,0-1.6.7-1.8,2,0,.4,0,1,0,1.7,0,1.3.2,2.2.5,2.7.3.5.8.7,1.5.7Z"/>
    <path class="st3" d="M529.5,297.3l-1.1,1.1v3.6h-4v-18.2h4v9.6l.4-.5,3-3.7h4.8l-4.5,5.3,4.8,7.5h-4.6l-2.8-4.8Z"/>
    <path class="st3" d="M543.2,295.6c0-2,.4-3.6,1.3-4.8.9-1.2,2.1-1.7,3.7-1.7s2.1.4,2.9,1.3v-6.5h4v18.2h-3.6l-.2-1.4c-.8,1.1-1.9,1.6-3.1,1.6s-2.7-.6-3.6-1.7c-.9-1.2-1.3-2.8-1.3-5ZM547.2,295.8c0,2.3.7,3.4,2,3.4s1.5-.4,1.9-1.1v-4.9c-.4-.8-1-1.1-1.9-1.1s-1.9,1-2,3v.7Z"/>
    <path class="st3" d="M565,292.9h-1.3c-1.3,0-2.1.3-2.4,1.1v8.1h-4v-12.8h3.7v1.6c.8-1.3,1.7-1.9,2.9-1.9s.8,0,1.1.1v3.7Z"/>
    <path class="st3" d="M565.5,295.6c0-1.3.2-2.4.7-3.4.5-1,1.2-1.8,2.1-2.3.9-.5,2-.8,3.3-.8,1.9,0,3.4.6,4.5,1.8,1.1,1.2,1.7,2.8,1.7,4.8h0c0,2.1-.6,3.7-1.7,4.9-1.1,1.2-2.6,1.8-4.5,1.8s-3.3-.5-4.4-1.6c-1.1-1.1-1.7-2.6-1.8-4.4v-.7ZM569.5,295.8c0,1.2.2,2,.6,2.6.4.6.9.8,1.6.8,1.4,0,2.1-1.1,2.2-3.3v-.4c0-2.3-.7-3.4-2.2-3.4s-2.1,1-2.2,3v.7Z"/>
    <path class="st3" d="M583.3,289.3v1.5c1-1.2,2.2-1.7,3.8-1.7s2.3.4,3,1.2c.7.8,1,2,1,3.6v8.2h-4v-8.1c0-.6-.1-1.1-.4-1.4-.3-.3-.7-.5-1.4-.5s-1.4.3-1.7.9v9h-4v-12.8h3.7Z"/>
    <path class="st3" d="M599.5,302.3c-2,0-3.5-.6-4.8-1.8-1.2-1.2-1.8-2.7-1.8-4.6v-.3c0-1.3.2-2.5.7-3.5.5-1,1.2-1.8,2.1-2.3.9-.5,2-.8,3.3-.8s3.2.6,4.3,1.7c1,1.1,1.6,2.7,1.6,4.7v1.5h-7.9c.1.7.5,1.3.9,1.7.5.4,1.1.6,1.9.6,1.3,0,2.2-.4,3-1.3l1.8,2.2c-.5.7-1.2,1.2-2.1,1.6-.9.4-1.9.6-2.9.6ZM599,292.1c-1.2,0-1.9.8-2.1,2.3h4v-.3c0-.6-.1-1.1-.5-1.5s-.8-.5-1.5-.5Z"/>
    <path class="st3" d="M613.1,298.5c0-.3-.2-.6-.5-.8-.4-.2-1-.4-2-.6-1-.2-1.8-.5-2.5-.9-.6-.4-1.1-.8-1.5-1.3-.3-.5-.5-1.1-.5-1.8,0-1.2.5-2.1,1.5-2.9,1-.8,2.2-1.1,3.8-1.1s3,.4,4.1,1.1c1,.8,1.5,1.8,1.5,3h-4c0-1-.5-1.5-1.6-1.5s-.8.1-1.1.3c-.3.2-.4.5-.4.9s.2.6.5.9.9.4,1.7.5c.8.1,1.4.3,2,.5,1.9.7,2.9,1.8,2.9,3.6s-.5,2.1-1.6,2.8c-1,.7-2.4,1.1-4,1.1s-2.1-.2-2.9-.6-1.5-.9-2-1.6-.7-1.4-.7-2.1h3.7c0,.6.2,1,.6,1.3.4.3.9.4,1.5.4s1-.1,1.2-.3c.3-.2.4-.5.4-.9Z"/>
  </g>
  <g>
    <path class="st3" d="M803.9,290v-17.2h6.2c2.2,0,3.9.4,5.1,1.2s1.7,2,1.7,3.5-.2,1.7-.6,2.3c-.4.6-1,1.1-1.8,1.4.9.2,1.6.7,2.1,1.3.5.6.7,1.4.7,2.4,0,1.7-.5,3-1.6,3.8-1.1.8-2.6,1.3-4.7,1.3h-7ZM808,280h2.2c.9,0,1.6-.2,1.9-.5.4-.3.6-.8.6-1.4s-.2-1.3-.6-1.6c-.4-.3-1.1-.5-2-.5h-2v4ZM808,282.7v4.1h2.7c.7,0,1.3-.2,1.7-.5.4-.3.6-.8.6-1.4,0-1.4-.7-2.2-2.1-2.2h-2.9Z"/>
    <path class="st3" d="M818.8,283.5c0-1.3.2-2.4.7-3.4.5-1,1.2-1.8,2.1-2.3.9-.5,2-.8,3.3-.8,1.9,0,3.4.6,4.5,1.8,1.1,1.2,1.7,2.8,1.7,4.8h0c0,2.1-.6,3.7-1.7,4.9-1.1,1.2-2.6,1.8-4.5,1.8s-3.3-.5-4.4-1.6c-1.1-1.1-1.7-2.6-1.8-4.4v-.7ZM822.8,283.7c0,1.2.2,2,.6,2.6.4.6.9.8,1.6.8,1.4,0,2.1-1.1,2.2-3.3v-.4c0-2.3-.7-3.4-2.2-3.4s-2.1,1-2.2,3v.7Z"/>
    <path class="st3" d="M832.4,283.5c0-1.3.2-2.4.7-3.4.5-1,1.2-1.8,2.1-2.3.9-.5,2-.8,3.3-.8,1.9,0,3.4.6,4.5,1.8,1.1,1.2,1.7,2.8,1.7,4.8h0c0,2.1-.6,3.7-1.7,4.9-1.1,1.2-2.6,1.8-4.5,1.8s-3.3-.5-4.4-1.6c-1.1-1.1-1.7-2.6-1.8-4.4v-.7ZM836.4,283.7c0,1.2.2,2,.6,2.6.4.6.9.8,1.6.8,1.4,0,2.1-1.1,2.2-3.3v-.4c0-2.3-.7-3.4-2.2-3.4s-2.1,1-2.2,3v.7Z"/>
    <path class="st3" d="M853.2,286.4c0-.3-.2-.6-.5-.8-.4-.2-1-.4-2-.6-1-.2-1.8-.5-2.5-.9-.6-.4-1.1-.8-1.5-1.3-.3-.5-.5-1.1-.5-1.8,0-1.2.5-2.1,1.5-2.9,1-.8,2.2-1.1,3.8-1.1s3,.4,4.1,1.1c1,.8,1.5,1.8,1.5,3h-4c0-1-.5-1.5-1.6-1.5s-.8.1-1.1.3c-.3.2-.4.5-.4.9s.2.6.5.9.9.4,1.7.5c.8.1,1.4.3,2,.5,1.9.7,2.9,1.8,2.9,3.6s-.5,2.1-1.6,2.8c-1,.7-2.4,1.1-4,1.1s-2.1-.2-2.9-.6-1.5-.9-2-1.6-.7-1.4-.7-2.1h3.7c0,.6.2,1,.6,1.3.4.3.9.4,1.5.4s1-.1,1.2-.3c.3-.2.4-.5.4-.9Z"/>
    <path class="st3" d="M863.5,274v3.2h2.1v2.8h-2.1v5.8c0,.5,0,.8.3,1,.2.2.5.3,1,.3s.7,0,1,0v2.8c-.7.2-1.5.3-2.2.3-1.4,0-2.4-.3-3-1-.7-.6-1-1.6-1-2.9v-6.3h-1.6v-2.8h1.6v-3.2h4Z"/>
    <path class="st3" d="M887.5,287.9c-.6.7-1.6,1.3-2.8,1.7-1.2.4-2.6.7-4,.7-2.3,0-4.1-.7-5.4-2.1-1.3-1.4-2.1-3.3-2.2-5.8v-1.5c0-1.7.3-3.2.9-4.4s1.5-2.2,2.6-2.9c1.1-.7,2.4-1,3.9-1,2.1,0,3.8.5,5,1.5,1.2,1,1.9,2.4,2.1,4.4h-4c-.1-1-.4-1.6-.9-2.1-.5-.4-1.1-.6-2-.6s-1.8.4-2.4,1.3c-.6.9-.9,2.1-.9,3.8v1c0,1.7.3,3,.9,3.9.6.9,1.5,1.3,2.8,1.3s1.9-.2,2.4-.7v-2.7h-2.9v-2.8h7v7.1Z"/>
    <path class="st3" d="M893.9,290h-4v-18.2h4v18.2Z"/>
    <path class="st3" d="M896.3,273.9c0-.6.2-1,.6-1.4.4-.4.9-.5,1.6-.5s1.2.2,1.6.5c.4.4.6.8.6,1.4s-.2,1-.6,1.4c-.4.4-.9.5-1.6.5s-1.2-.2-1.6-.5c-.4-.4-.6-.8-.6-1.4ZM900.5,290h-4v-12.8h4v12.8Z"/>
    <path class="st3" d="M902.5,283.5c0-2,.4-3.6,1.3-4.8.9-1.2,2.1-1.7,3.7-1.7s2.1.4,2.9,1.3v-6.5h4v18.2h-3.6l-.2-1.4c-.8,1.1-1.9,1.6-3.1,1.6s-2.7-.6-3.6-1.7c-.9-1.2-1.3-2.8-1.3-5ZM906.5,283.7c0,2.3.7,3.4,2,3.4s1.5-.4,1.9-1.1v-4.9c-.4-.8-1-1.1-1.9-1.1s-1.9,1-2,3v.7Z"/>
    <path class="st3" d="M922.8,290.2c-2,0-3.5-.6-4.8-1.8-1.2-1.2-1.8-2.7-1.8-4.6v-.3c0-1.3.2-2.5.7-3.5.5-1,1.2-1.8,2.1-2.3.9-.5,2-.8,3.3-.8s3.2.6,4.3,1.7c1,1.1,1.6,2.7,1.6,4.7v1.5h-7.9c.1.7.5,1.3.9,1.7.5.4,1.1.6,1.9.6,1.3,0,2.2-.4,3-1.3l1.8,2.2c-.5.7-1.2,1.2-2.1,1.6-.9.4-1.9.6-2.9.6ZM922.4,280c-1.2,0-1.9.8-2.1,2.3h4v-.3c0-.6-.1-1.1-.5-1.5s-.8-.5-1.5-.5Z"/>
    <path class="st3" d="M942.7,285.3l3.4-12.5h4.6l-5.8,17.2h-4.5l-5.7-17.2h4.6l3.4,12.5Z"/>
    <path class="st3" d="M957.5,290.2c-2,0-3.5-.6-4.8-1.8-1.2-1.2-1.8-2.7-1.8-4.6v-.3c0-1.3.2-2.5.7-3.5.5-1,1.2-1.8,2.1-2.3.9-.5,2-.8,3.3-.8s3.2.6,4.3,1.7c1,1.1,1.6,2.7,1.6,4.7v1.5h-7.9c.1.7.5,1.3.9,1.7.5.4,1.1.6,1.9.6,1.3,0,2.2-.4,3-1.3l1.8,2.2c-.5.7-1.2,1.2-2.1,1.6-.9.4-1.9.6-2.9.6ZM957,280c-1.2,0-1.9.8-2.1,2.3h4v-.3c0-.6-.1-1.1-.5-1.5s-.8-.5-1.5-.5Z"/>
    <path class="st3" d="M968.4,278.6c.9-1.1,1.9-1.6,3.3-1.6s2.5.4,3.2,1.3,1.1,2.1,1.1,3.7v8.1h-4v-8c0-.7-.1-1.2-.4-1.5-.3-.3-.7-.5-1.4-.5s-1.4.3-1.7.8v9.2h-4v-18.2h4v6.7Z"/>
    <path class="st3" d="M978.1,273.9c0-.6.2-1,.6-1.4.4-.4.9-.5,1.6-.5s1.2.2,1.6.5c.4.4.6.8.6,1.4s-.2,1-.6,1.4c-.4.4-.9.5-1.6.5s-1.2-.2-1.6-.5c-.4-.4-.6-.8-.6-1.4ZM982.3,290h-4v-12.8h4v12.8Z"/>
    <path class="st3" d="M990.2,287.2c.6,0,1-.2,1.3-.5.3-.3.5-.7.4-1.3h3.7c0,1.4-.5,2.6-1.5,3.5-1,.9-2.3,1.3-3.9,1.3s-3.3-.6-4.4-1.7-1.6-2.8-1.6-4.8v-.2c0-1.3.2-2.4.7-3.4.5-1,1.2-1.7,2.1-2.3.9-.5,2-.8,3.2-.8s3,.5,4,1.4c1,.9,1.5,2.2,1.5,3.7h-3.7c0-.7-.2-1.2-.5-1.5-.3-.4-.8-.5-1.3-.5-1,0-1.6.7-1.8,2,0,.4,0,1,0,1.7,0,1.3.2,2.2.5,2.7.3.5.8.7,1.5.7Z"/>
    <path class="st3" d="M1001.6,290h-4v-18.2h4v18.2Z"/>
    <path class="st3" d="M1010.2,290.2c-2,0-3.5-.6-4.8-1.8-1.2-1.2-1.8-2.7-1.8-4.6v-.3c0-1.3.2-2.5.7-3.5.5-1,1.2-1.8,2.1-2.3.9-.5,2-.8,3.3-.8s3.2.6,4.3,1.7c1,1.1,1.6,2.7,1.6,4.7v1.5h-7.9c.1.7.5,1.3.9,1.7.5.4,1.1.6,1.9.6,1.3,0,2.2-.4,3-1.3l1.8,2.2c-.5.7-1.2,1.2-2.1,1.6-.9.4-1.9.6-2.9.6ZM1009.7,280c-1.2,0-1.9.8-2.1,2.3h4v-.3c0-.6-.1-1.1-.5-1.5s-.8-.5-1.5-.5Z"/>
    <path class="st3" d="M1023.9,286.4c0-.3-.2-.6-.5-.8-.4-.2-1-.4-2-.6-1-.2-1.8-.5-2.5-.9-.6-.4-1.1-.8-1.5-1.3-.3-.5-.5-1.1-.5-1.8,0-1.2.5-2.1,1.5-2.9,1-.8,2.2-1.1,3.8-1.1s3,.4,4.1,1.1c1,.8,1.5,1.8,1.5,3h-4c0-1-.5-1.5-1.6-1.5s-.8.1-1.1.3c-.3.2-.4.5-.4.9s.2.6.5.9.9.4,1.7.5c.8.1,1.4.3,2,.5,1.9.7,2.9,1.8,2.9,3.6s-.5,2.1-1.6,2.8c-1,.7-2.4,1.1-4,1.1s-2.1-.2-2.9-.6-1.5-.9-2-1.6-.7-1.4-.7-2.1h3.7c0,.6.2,1,.6,1.3.4.3.9.4,1.5.4s1-.1,1.2-.3c.3-.2.4-.5.4-.9Z"/>
  </g>
  <g>
    <path class="st3" d="M1380.9,281.6h-2.2v6.1h-4.1v-17.2h6.8c2,0,3.6.5,4.8,1.4s1.7,2.2,1.7,3.8-.2,2.2-.7,3-1.2,1.4-2.3,1.9l3.6,6.9v.2h-4.4l-3-6.1ZM1378.7,278.4h2.6c.8,0,1.4-.2,1.8-.6.4-.4.6-1,.6-1.7s-.2-1.3-.6-1.7c-.4-.4-1-.6-1.8-.6h-2.6v4.7Z"/>
    <path class="st3" d="M1389.6,281.2c0-1.3.2-2.4.7-3.4.5-1,1.2-1.8,2.1-2.3.9-.5,2-.8,3.3-.8,1.9,0,3.4.6,4.5,1.8,1.1,1.2,1.7,2.8,1.7,4.8h0c0,2.1-.6,3.7-1.7,4.9-1.1,1.2-2.6,1.8-4.5,1.8s-3.3-.5-4.4-1.6c-1.1-1.1-1.7-2.6-1.8-4.4v-.7ZM1393.6,281.4c0,1.2.2,2,.6,2.6.4.6.9.8,1.6.8,1.4,0,2.1-1.1,2.2-3.3v-.4c0-2.3-.7-3.4-2.2-3.4s-2.1,1-2.2,3v.7Z"/>
    <path class="st3" d="M1409.1,284.9c.6,0,1-.2,1.3-.5.3-.3.5-.7.4-1.3h3.7c0,1.4-.5,2.6-1.5,3.5-1,.9-2.3,1.3-3.9,1.3s-3.3-.6-4.4-1.7-1.6-2.8-1.6-4.8v-.2c0-1.3.2-2.4.7-3.4.5-1,1.2-1.7,2.1-2.3.9-.5,2-.8,3.2-.8s3,.5,4,1.4c1,.9,1.5,2.2,1.5,3.7h-3.7c0-.7-.2-1.2-.5-1.5-.3-.4-.8-.5-1.3-.5-1,0-1.6.7-1.8,2,0,.4,0,1,0,1.7,0,1.3.2,2.2.5,2.7.3.5.8.7,1.5.7Z"/>
    <path class="st3" d="M1421.4,282.9l-1.1,1.1v3.6h-4v-18.2h4v9.6l.4-.5,3-3.7h4.8l-4.5,5.3,4.8,7.5h-4.6l-2.8-4.8Z"/>
    <path class="st3" d="M1435.5,287.9c-2,0-3.5-.6-4.8-1.8-1.2-1.2-1.8-2.7-1.8-4.6v-.3c0-1.3.2-2.5.7-3.5.5-1,1.2-1.8,2.1-2.3.9-.5,2-.8,3.3-.8s3.2.6,4.3,1.7c1,1.1,1.6,2.7,1.6,4.7v1.5h-7.9c.1.7.5,1.3.9,1.7.5.4,1.1.6,1.9.6,1.3,0,2.2-.4,3-1.3l1.8,2.2c-.5.7-1.2,1.2-2.1,1.6-.9.4-1.9.6-2.9.6ZM1435,277.8c-1.2,0-1.9.8-2.1,2.3h4v-.3c0-.6-.1-1.1-.5-1.5s-.8-.5-1.5-.5Z"/>
    <path class="st3" d="M1447.1,271.7v3.2h2.1v2.8h-2.1v5.8c0,.5,0,.8.3,1,.2.2.5.3,1,.3s.7,0,1,0v2.8c-.7.2-1.5.3-2.2.3-1.4,0-2.4-.3-3-1-.7-.6-1-1.6-1-2.9v-6.3h-1.6v-2.8h1.6v-3.2h4Z"/>
    <path class="st3" d="M1466.8,284.5h-5.7l-1,3.2h-4.4l6.3-17.2h3.9l6.4,17.2h-4.5l-1-3.2ZM1462.1,281.3h3.7l-1.9-6-1.8,6Z"/>
    <path class="st3" d="M1481,278.5h-1.3c-1.3,0-2.1.3-2.4,1.1v8.1h-4v-12.8h3.7v1.6c.8-1.3,1.7-1.9,2.9-1.9s.8,0,1.1.1v3.7Z"/>
    <path class="st3" d="M1487.7,271.7v3.2h2.1v2.8h-2.1v5.8c0,.5,0,.8.3,1,.2.2.5.3,1,.3s.7,0,1,0v2.8c-.7.2-1.5.3-2.2.3-1.4,0-2.4-.3-3-1-.7-.6-1-1.6-1-2.9v-6.3h-1.6v-2.8h1.6v-3.2h4Z"/>
    <path class="st3" d="M1491.3,271.6c0-.6.2-1,.6-1.4.4-.4.9-.5,1.6-.5s1.2.2,1.6.5c.4.4.6.8.6,1.4s-.2,1-.6,1.4c-.4.4-.9.5-1.6.5s-1.2-.2-1.6-.5c-.4-.4-.6-.8-.6-1.4ZM1495.6,287.7h-4v-12.8h4v12.8Z"/>
    <path class="st3" d="M1502.2,287.7h-4v-18.2h4v18.2Z"/>
    <path class="st3" d="M1508.9,287.7h-4v-18.2h4v18.2Z"/>
    <path class="st3" d="M1517.5,287.9c-2,0-3.5-.6-4.8-1.8-1.2-1.2-1.8-2.7-1.8-4.6v-.3c0-1.3.2-2.5.7-3.5.5-1,1.2-1.8,2.1-2.3.9-.5,2-.8,3.3-.8s3.2.6,4.3,1.7c1,1.1,1.6,2.7,1.6,4.7v1.5h-7.9c.1.7.5,1.3.9,1.7.5.4,1.1.6,1.9.6,1.3,0,2.2-.4,3-1.3l1.8,2.2c-.5.7-1.2,1.2-2.1,1.6-.9.4-1.9.6-2.9.6ZM1517.1,277.8c-1.2,0-1.9.8-2.1,2.3h4v-.3c0-.6-.1-1.1-.5-1.5s-.8-.5-1.5-.5Z"/>
    <path class="st3" d="M1532.2,278.5h-1.3c-1.3,0-2.1.3-2.4,1.1v8.1h-4v-12.8h3.7v1.6c.8-1.3,1.7-1.9,2.9-1.9s.8,0,1.1.1v3.7Z"/>
    <path class="st3" d="M1539,282.1l2.1-7.2h4.3l-5.2,14.9-.2.5c-.7,1.7-2,2.5-3.9,2.5s-1.1,0-1.6-.2v-2.8h.5c.6,0,1,0,1.3-.2.3-.2.5-.5.7-.9l.3-.9-4.4-12.9h4.3l2,7.2Z"/>
  </g>
  <g>
    <path class="st3" d="M1104.5,287.7v-17.2h6.2c2.2,0,3.9.4,5.1,1.2s1.7,2,1.7,3.5-.2,1.7-.6,2.3c-.4.6-1,1.1-1.8,1.4.9.2,1.6.7,2.1,1.3.5.6.7,1.4.7,2.4,0,1.7-.5,3-1.6,3.8-1.1.8-2.6,1.3-4.7,1.3h-7ZM1108.6,277.7h2.2c.9,0,1.6-.2,1.9-.5.4-.3.6-.8.6-1.4s-.2-1.3-.6-1.6c-.4-.3-1.1-.5-2-.5h-2v4ZM1108.6,280.4v4.1h2.7c.7,0,1.3-.2,1.7-.5.4-.3.6-.8.6-1.4,0-1.4-.7-2.2-2.1-2.2h-2.9Z"/>
    <path class="st3" d="M1127.1,287.7c-.1-.3-.3-.6-.4-1.1-.7.9-1.8,1.4-3.1,1.4s-2.2-.4-3.1-1.1c-.8-.7-1.3-1.6-1.3-2.7s.5-2.4,1.5-3.1c1-.7,2.5-1.1,4.5-1.1h1.2v-.7c0-1.2-.5-1.8-1.5-1.8s-1.4.5-1.4,1.4h-4c0-1.2.5-2.2,1.6-3s2.4-1.2,4-1.2,2.9.4,3.9,1.2,1.4,1.9,1.5,3.3v5.7c0,1.2.2,2.1.5,2.7v.2h-4ZM1124.6,285.1c.5,0,.9-.1,1.2-.3.3-.2.6-.5.7-.7v-2h-1.2c-1.4,0-2.1.6-2.1,1.9s.1.7.4.9.6.3.9.3Z"/>
    <path class="st3" d="M1137,287.7h-4v-18.2h4v18.2Z"/>
    <path class="st3" d="M1143.6,287.7h-4v-18.2h4v18.2Z"/>
    <path class="st3" d="M1146,271.6c0-.6.2-1,.6-1.4.4-.4.9-.5,1.6-.5s1.2.2,1.6.5c.4.4.6.8.6,1.4s-.2,1-.6,1.4c-.4.4-.9.5-1.6.5s-1.2-.2-1.6-.5c-.4-.4-.6-.8-.6-1.4ZM1150.3,287.7h-4v-12.8h4v12.8Z"/>
    <path class="st3" d="M1159.4,284.1c0-.3-.2-.6-.5-.8-.4-.2-1-.4-2-.6-1-.2-1.8-.5-2.5-.9-.6-.4-1.1-.8-1.5-1.3-.3-.5-.5-1.1-.5-1.8,0-1.2.5-2.1,1.5-2.9,1-.8,2.2-1.1,3.8-1.1s3,.4,4.1,1.1c1,.8,1.5,1.8,1.5,3h-4c0-1-.5-1.5-1.6-1.5s-.8.1-1.1.3c-.3.2-.4.5-.4.9s.2.6.5.9.9.4,1.7.5c.8.1,1.4.3,2,.5,1.9.7,2.9,1.8,2.9,3.6s-.5,2.1-1.6,2.8c-1,.7-2.4,1.1-4,1.1s-2.1-.2-2.9-.6-1.5-.9-2-1.6-.7-1.4-.7-2.1h3.7c0,.6.2,1,.6,1.3.4.3.9.4,1.5.4s1-.1,1.2-.3c.3-.2.4-.5.4-.9Z"/>
    <path class="st3" d="M1169.8,271.7v3.2h2.1v2.8h-2.1v5.8c0,.5,0,.8.3,1,.2.2.5.3,1,.3s.7,0,1,0v2.8c-.7.2-1.5.3-2.2.3-1.4,0-2.4-.3-3-1-.7-.6-1-1.6-1-2.9v-6.3h-1.6v-2.8h1.6v-3.2h4Z"/>
    <path class="st3" d="M1173.4,271.6c0-.6.2-1,.6-1.4.4-.4.9-.5,1.6-.5s1.2.2,1.6.5c.4.4.6.8.6,1.4s-.2,1-.6,1.4c-.4.4-.9.5-1.6.5s-1.2-.2-1.6-.5c-.4-.4-.6-.8-.6-1.4ZM1177.6,287.7h-4v-12.8h4v12.8Z"/>
    <path class="st3" d="M1185.5,284.9c.6,0,1-.2,1.3-.5.3-.3.5-.7.4-1.3h3.7c0,1.4-.5,2.6-1.5,3.5-1,.9-2.3,1.3-3.9,1.3s-3.3-.6-4.4-1.7-1.6-2.8-1.6-4.8v-.2c0-1.3.2-2.4.7-3.4.5-1,1.2-1.7,2.1-2.3.9-.5,2-.8,3.2-.8s3,.5,4,1.4c1,.9,1.5,2.2,1.5,3.7h-3.7c0-.7-.2-1.2-.5-1.5-.3-.4-.8-.5-1.3-.5-1,0-1.6.7-1.8,2,0,.4,0,1,0,1.7,0,1.3.2,2.2.5,2.7.3.5.8.7,1.5.7Z"/>
    <path class="st3" d="M1204.3,270.5l3.8,12,3.8-12h5.5v17.2h-4.2v-4l.4-8.2-4.2,12.2h-2.7l-4.2-12.3.4,8.2v4h-4.1v-17.2h5.4Z"/>
    <path class="st3" d="M1219.9,271.6c0-.6.2-1,.6-1.4.4-.4.9-.5,1.6-.5s1.2.2,1.6.5c.4.4.6.8.6,1.4s-.2,1-.6,1.4c-.4.4-.9.5-1.6.5s-1.2-.2-1.6-.5c-.4-.4-.6-.8-.6-1.4ZM1224.1,287.7h-4v-12.8h4v12.8Z"/>
    <path class="st3" d="M1233.2,284.1c0-.3-.2-.6-.5-.8-.4-.2-1-.4-2-.6-1-.2-1.8-.5-2.5-.9-.6-.4-1.1-.8-1.5-1.3-.3-.5-.5-1.1-.5-1.8,0-1.2.5-2.1,1.5-2.9,1-.8,2.2-1.1,3.8-1.1s3,.4,4.1,1.1c1,.8,1.5,1.8,1.5,3h-4c0-1-.5-1.5-1.6-1.5s-.8.1-1.1.3c-.3.2-.4.5-.4.9s.2.6.5.9.9.4,1.7.5c.8.1,1.4.3,2,.5,1.9.7,2.9,1.8,2.9,3.6s-.5,2.1-1.6,2.8c-1,.7-2.4,1.1-4,1.1s-2.1-.2-2.9-.6-1.5-.9-2-1.6-.7-1.4-.7-2.1h3.7c0,.6.2,1,.6,1.3.4.3.9.4,1.5.4s1-.1,1.2-.3c.3-.2.4-.5.4-.9Z"/>
    <path class="st3" d="M1245.6,284.1c0-.3-.2-.6-.5-.8-.4-.2-1-.4-2-.6-1-.2-1.8-.5-2.5-.9-.6-.4-1.1-.8-1.5-1.3-.3-.5-.5-1.1-.5-1.8,0-1.2.5-2.1,1.5-2.9,1-.8,2.2-1.1,3.8-1.1s3,.4,4.1,1.1c1,.8,1.5,1.8,1.5,3h-4c0-1-.5-1.5-1.6-1.5s-.8.1-1.1.3c-.3.2-.4.5-.4.9s.2.6.5.9.9.4,1.7.5c.8.1,1.4.3,2,.5,1.9.7,2.9,1.8,2.9,3.6s-.5,2.1-1.6,2.8c-1,.7-2.4,1.1-4,1.1s-2.1-.2-2.9-.6-1.5-.9-2-1.6-.7-1.4-.7-2.1h3.7c0,.6.2,1,.6,1.3.4.3.9.4,1.5.4s1-.1,1.2-.3c.3-.2.4-.5.4-.9Z"/>
    <path class="st3" d="M1251.3,271.6c0-.6.2-1,.6-1.4.4-.4.9-.5,1.6-.5s1.2.2,1.6.5c.4.4.6.8.6,1.4s-.2,1-.6,1.4c-.4.4-.9.5-1.6.5s-1.2-.2-1.6-.5c-.4-.4-.6-.8-.6-1.4ZM1255.5,287.7h-4v-12.8h4v12.8Z"/>
    <path class="st3" d="M1262.2,287.7h-4v-18.2h4v18.2Z"/>
    <path class="st3" d="M1270.8,287.9c-2,0-3.5-.6-4.8-1.8-1.2-1.2-1.8-2.7-1.8-4.6v-.3c0-1.3.2-2.5.7-3.5.5-1,1.2-1.8,2.1-2.3.9-.5,2-.8,3.3-.8s3.2.6,4.3,1.7c1,1.1,1.6,2.7,1.6,4.7v1.5h-7.9c.1.7.5,1.3.9,1.7.5.4,1.1.6,1.9.6,1.3,0,2.2-.4,3-1.3l1.8,2.2c-.5.7-1.2,1.2-2.1,1.6-.9.4-1.9.6-2.9.6ZM1270.4,277.8c-1.2,0-1.9.8-2.1,2.3h4v-.3c0-.6-.1-1.1-.5-1.5s-.8-.5-1.5-.5Z"/>
    <path class="st3" d="M1284.5,284.1c0-.3-.2-.6-.5-.8-.4-.2-1-.4-2-.6-1-.2-1.8-.5-2.5-.9-.6-.4-1.1-.8-1.5-1.3-.3-.5-.5-1.1-.5-1.8,0-1.2.5-2.1,1.5-2.9,1-.8,2.2-1.1,3.8-1.1s3,.4,4.1,1.1c1,.8,1.5,1.8,1.5,3h-4c0-1-.5-1.5-1.6-1.5s-.8.1-1.1.3c-.3.2-.4.5-.4.9s.2.6.5.9.9.4,1.7.5c.8.1,1.4.3,2,.5,1.9.7,2.9,1.8,2.9,3.6s-.5,2.1-1.6,2.8c-1,.7-2.4,1.1-4,1.1s-2.1-.2-2.9-.6-1.5-.9-2-1.6-.7-1.4-.7-2.1h3.7c0,.6.2,1,.6,1.3.4.3.9.4,1.5.4s1-.1,1.2-.3c.3-.2.4-.5.4-.9Z"/>
  </g>
  <rect class="st0" x="1349.6" y="370.5" width="216" height="67.4"/>
  <g>
    <path class="st3" d="M1372.9,407.2c0-.6-.2-1.1-.6-1.4-.4-.3-1.2-.7-2.3-1.1s-2-.7-2.6-1.1c-2.2-1.1-3.3-2.6-3.3-4.5s.3-1.8.8-2.5c.6-.7,1.3-1.3,2.4-1.7,1-.4,2.2-.6,3.4-.6s2.3.2,3.3.7c1,.4,1.7,1.1,2.3,1.9.5.8.8,1.7.8,2.8h-4.1c0-.7-.2-1.2-.6-1.6-.4-.4-1-.6-1.7-.6s-1.3.2-1.8.5c-.4.3-.6.7-.6,1.2s.2.8.7,1.2,1.3.7,2.5,1.1c1.2.4,2.2.8,2.9,1.2,1.9,1.1,2.8,2.5,2.8,4.4s-.6,2.7-1.7,3.5-2.7,1.3-4.7,1.3-2.7-.2-3.8-.8c-1.1-.5-2-1.2-2.6-2.1-.6-.9-.9-1.9-.9-3h4.2c0,.9.2,1.6.7,2,.5.4,1.3.7,2.3.7s1.2-.1,1.6-.4c.4-.3.6-.7.6-1.2Z"/>
    <path class="st3" d="M1385.2,412c-2,0-3.5-.6-4.8-1.8-1.2-1.2-1.8-2.7-1.8-4.6v-.3c0-1.3.2-2.5.7-3.5.5-1,1.2-1.8,2.1-2.3.9-.5,2-.8,3.3-.8s3.2.6,4.3,1.7c1,1.1,1.6,2.7,1.6,4.7v1.5h-7.9c.1.7.5,1.3.9,1.7.5.4,1.1.6,1.9.6,1.3,0,2.2-.4,3-1.3l1.8,2.2c-.5.7-1.2,1.2-2.1,1.6-.9.4-1.9.6-2.9.6ZM1384.7,401.8c-1.2,0-1.9.8-2.1,2.3h4v-.3c0-.6-.1-1.1-.5-1.5s-.8-.5-1.5-.5Z"/>
    <path class="st3" d="M1404,405.4c0,2-.4,3.6-1.3,4.8-.9,1.2-2.1,1.8-3.6,1.8s-2.1-.4-2.9-1.3v6h-4v-17.7h3.7v1.2c.9-.9,1.9-1.4,3.1-1.4s2.8.6,3.7,1.7c.9,1.2,1.3,2.8,1.3,4.8v.2ZM1400,405.2c0-2.3-.7-3.4-2-3.4s-1.6.3-1.9,1v5c.3.7,1,1.1,1.9,1.1s1.9-1.1,2-3.3v-.4Z"/>
    <path class="st3" d="M1412,412c-2,0-3.5-.6-4.8-1.8-1.2-1.2-1.8-2.7-1.8-4.6v-.3c0-1.3.2-2.5.7-3.5.5-1,1.2-1.8,2.1-2.3.9-.5,2-.8,3.3-.8s3.2.6,4.3,1.7c1,1.1,1.6,2.7,1.6,4.7v1.5h-7.9c.1.7.5,1.3.9,1.7.5.4,1.1.6,1.9.6,1.3,0,2.2-.4,3-1.3l1.8,2.2c-.5.7-1.2,1.2-2.1,1.6-.9.4-1.9.6-2.9.6ZM1411.5,401.8c-1.2,0-1.9.8-2.1,2.3h4v-.3c0-.6-.1-1.1-.5-1.5s-.8-.5-1.5-.5Z"/>
    <path class="st3" d="M1426.7,402.5h-1.3c-1.3,0-2.1.3-2.4,1.1v8.1h-4v-12.8h3.7v1.6c.8-1.3,1.7-1.9,2.9-1.9s.8,0,1.1.1v3.7Z"/>
    <path class="st3" d="M1435,411.7c-.1-.3-.3-.6-.4-1.1-.7.9-1.8,1.4-3.1,1.4s-2.2-.4-3.1-1.1c-.8-.7-1.3-1.6-1.3-2.7s.5-2.4,1.5-3.1c1-.7,2.5-1.1,4.5-1.1h1.2v-.7c0-1.2-.5-1.8-1.5-1.8s-1.4.5-1.4,1.4h-4c0-1.2.5-2.2,1.6-3s2.4-1.2,4-1.2,2.9.4,3.9,1.2,1.4,1.9,1.5,3.3v5.7c0,1.2.2,2.1.5,2.7v.2h-4ZM1432.5,409.1c.5,0,.9-.1,1.2-.3.3-.2.6-.5.7-.7v-2h-1.2c-1.4,0-2.1.6-2.1,1.9s.1.7.4.9.6.3.9.3Z"/>
    <path class="st3" d="M1452.5,405.4c0,2.1-.4,3.7-1.3,4.8-.9,1.1-2.1,1.7-3.7,1.7s-2.3-.5-3.1-1.5l-.2,1.3h-3.6v-18.2h4v6.4c.7-.8,1.7-1.3,2.9-1.3s2.8.6,3.7,1.7,1.3,2.8,1.3,4.8v.2ZM1448.5,405.2c0-1.2-.2-2.1-.5-2.6-.3-.5-.8-.8-1.5-.8s-1.5.3-1.9,1v5.1c.3.7,1,1,1.9,1s1.5-.5,1.8-1.4c.1-.4.2-1.2.2-2.3Z"/>
    <path class="st3" d="M1458.4,411.7h-4v-18.2h4v18.2Z"/>
    <path class="st3" d="M1467.1,412c-2,0-3.5-.6-4.8-1.8-1.2-1.2-1.8-2.7-1.8-4.6v-.3c0-1.3.2-2.5.7-3.5.5-1,1.2-1.8,2.1-2.3.9-.5,2-.8,3.3-.8s3.2.6,4.3,1.7c1,1.1,1.6,2.7,1.6,4.7v1.5h-7.9c.1.7.5,1.3.9,1.7.5.4,1.1.6,1.9.6,1.3,0,2.2-.4,3-1.3l1.8,2.2c-.5.7-1.2,1.2-2.1,1.6-.9.4-1.9.6-2.9.6ZM1466.6,401.8c-1.2,0-1.9.8-2.1,2.3h4v-.3c0-.6-.1-1.1-.5-1.5s-.8-.5-1.5-.5Z"/>
    <path class="st3" d="M1486.7,405.6h-2.2v6.1h-4.1v-17.2h6.8c2,0,3.6.5,4.8,1.4s1.7,2.2,1.7,3.8-.2,2.2-.7,3-1.2,1.4-2.3,1.9l3.6,6.9v.2h-4.4l-3-6.1ZM1484.4,402.4h2.6c.8,0,1.4-.2,1.8-.6.4-.4.6-1,.6-1.7s-.2-1.3-.6-1.7c-.4-.4-1-.6-1.8-.6h-2.6v4.7Z"/>
    <path class="st3" d="M1502.5,407l3.4-12.5h4.6l-5.8,17.2h-4.5l-5.7-17.2h4.6l3.4,12.5Z"/>
  </g>
  <g>
    <path class="st3" d="M1587.7,515.2l3.8,12,3.8-12h5.5v17.2h-4.2v-4l.4-8.2-4.2,12.2h-2.7l-4.2-12.3.4,8.2v4h-4.1v-17.2h5.4Z"/>
    <path class="st3" d="M1613.5,529.2h-5.7l-1,3.2h-4.4l6.3-17.2h3.9l6.4,17.2h-4.5l-1-3.2ZM1608.8,526h3.7l-1.9-6-1.8,6Z"/>
    <path class="st3" d="M1626.6,526.4h-2.2v6.1h-4.1v-17.2h6.8c2,0,3.6.5,4.8,1.4s1.7,2.2,1.7,3.8-.2,2.2-.7,3-1.2,1.4-2.3,1.9l3.6,6.9v.2h-4.4l-3-6.1ZM1624.3,523.2h2.6c.8,0,1.4-.2,1.8-.6.4-.4.6-1,.6-1.7s-.2-1.3-.6-1.7c-.4-.4-1-.6-1.8-.6h-2.6v4.7Z"/>
    <path class="st3" d="M1642.4,527.8l3.4-12.5h4.6l-5.8,17.2h-4.5l-5.7-17.2h4.6l3.4,12.5Z"/>
  </g>
  <g>
    <path class="st3" d="M1753.5,515.2l3.8,12,3.8-12h5.5v17.2h-4.2v-4l.4-8.2-4.2,12.2h-2.7l-4.2-12.3.4,8.2v4h-4.1v-17.2h5.4Z"/>
    <path class="st3" d="M1773.7,532.4h-4.1v-17.2h4.1v17.2Z"/>
    <path class="st3" d="M1782.9,526.4h-2.2v6.1h-4.1v-17.2h6.8c2,0,3.6.5,4.8,1.4s1.7,2.2,1.7,3.8-.2,2.2-.7,3-1.2,1.4-2.3,1.9l3.6,6.9v.2h-4.4l-3-6.1ZM1780.7,523.2h2.6c.8,0,1.4-.2,1.8-.6.4-.4.6-1,.6-1.7s-.2-1.3-.6-1.7c-.4-.4-1-.6-1.8-.6h-2.6v4.7Z"/>
    <path class="st3" d="M1798.8,527.8l3.4-12.5h4.6l-5.8,17.2h-4.5l-5.7-17.2h4.6l3.4,12.5Z"/>
  </g>
  <g>
    <path class="st3" d="M843.6,527.9c0-.6-.2-1.1-.6-1.4-.4-.3-1.2-.7-2.3-1.1s-2-.7-2.6-1.1c-2.2-1.1-3.3-2.6-3.3-4.5s.3-1.8.8-2.5c.6-.7,1.3-1.3,2.4-1.7,1-.4,2.2-.6,3.4-.6s2.3.2,3.3.7c1,.4,1.7,1.1,2.3,1.9.5.8.8,1.7.8,2.8h-4.1c0-.7-.2-1.2-.6-1.6-.4-.4-1-.6-1.7-.6s-1.3.2-1.8.5c-.4.3-.6.7-.6,1.2s.2.8.7,1.2,1.3.7,2.5,1.1c1.2.4,2.2.8,2.9,1.2,1.9,1.1,2.8,2.5,2.8,4.4s-.6,2.7-1.7,3.5-2.7,1.3-4.7,1.3-2.7-.2-3.8-.8c-1.1-.5-2-1.2-2.6-2.1-.6-.9-.9-1.9-.9-3h4.2c0,.9.2,1.6.7,2,.5.4,1.3.7,2.3.7s1.2-.1,1.6-.4c.4-.3.6-.7.6-1.2Z"/>
    <path class="st3" d="M849.2,525.9c0-1.3.2-2.4.7-3.4.5-1,1.2-1.8,2.1-2.3.9-.5,2-.8,3.3-.8,1.9,0,3.4.6,4.5,1.8,1.1,1.2,1.7,2.8,1.7,4.8h0c0,2.1-.6,3.7-1.7,4.9-1.1,1.2-2.6,1.8-4.5,1.8s-3.3-.5-4.4-1.6c-1.1-1.1-1.7-2.6-1.8-4.4v-.7ZM853.2,526.2c0,1.2.2,2,.6,2.6.4.6.9.8,1.6.8,1.4,0,2.1-1.1,2.2-3.3v-.4c0-2.3-.7-3.4-2.2-3.4s-2.1,1-2.2,3v.7Z"/>
    <path class="st3" d="M867.5,532.4h-4v-18.2h4v18.2Z"/>
    <path class="st3" d="M869.9,516.3c0-.6.2-1,.6-1.4.4-.4.9-.5,1.6-.5s1.2.2,1.6.5c.4.4.6.8.6,1.4s-.2,1-.6,1.4c-.4.4-.9.5-1.6.5s-1.2-.2-1.6-.5c-.4-.4-.6-.8-.6-1.4ZM874.2,532.4h-4v-12.8h4v12.8Z"/>
    <path class="st3" d="M876.1,526c0-2,.4-3.6,1.3-4.8.9-1.2,2.1-1.7,3.7-1.7s2.1.4,2.9,1.3v-6.5h4v18.2h-3.6l-.2-1.4c-.8,1.1-1.9,1.6-3.1,1.6s-2.7-.6-3.6-1.7c-.9-1.2-1.3-2.8-1.3-5ZM880.1,526.2c0,2.3.7,3.4,2,3.4s1.5-.4,1.9-1.1v-4.9c-.4-.8-1-1.1-1.9-1.1s-1.9,1-2,3v.7Z"/>
    <path class="st3" d="M907.3,525.6h-6.7v6.9h-4.1v-17.2h11.5v3.2h-7.4v4h6.7v3.2Z"/>
    <path class="st3" d="M916.8,531.1c-.8,1.1-2,1.6-3.4,1.6s-2.5-.4-3.2-1.2-1.1-2-1.1-3.5v-8.3h4v8.3c0,1.1.5,1.6,1.6,1.6s1.6-.3,1.9-1v-9h4v12.8h-3.7v-1.4Z"/>
    <path class="st3" d="M929.1,532.7c-2,0-3.5-.6-4.8-1.8-1.2-1.2-1.8-2.7-1.8-4.6v-.3c0-1.3.2-2.5.7-3.5.5-1,1.2-1.8,2.1-2.3.9-.5,2-.8,3.3-.8s3.2.6,4.3,1.7c1,1.1,1.6,2.7,1.6,4.7v1.5h-7.9c.1.7.5,1.3.9,1.7.5.4,1.1.6,1.9.6,1.3,0,2.2-.4,3-1.3l1.8,2.2c-.5.7-1.2,1.2-2.1,1.6-.9.4-1.9.6-2.9.6ZM928.6,522.5c-1.2,0-1.9.8-2.1,2.3h4v-.3c0-.6-.1-1.1-.5-1.5s-.8-.5-1.5-.5Z"/>
    <path class="st3" d="M940.3,532.4h-4v-18.2h4v18.2Z"/>
  </g>
  <g>
    <path class="st3" d="M1024.1,529.3h7.2v3.2h-11.4v-17.2h4.1v14Z"/>
    <path class="st3" d="M1032.8,516.3c0-.6.2-1,.6-1.4.4-.4.9-.5,1.6-.5s1.2.2,1.6.5c.4.4.6.8.6,1.4s-.2,1-.6,1.4c-.4.4-.9.5-1.6.5s-1.2-.2-1.6-.5c-.4-.4-.6-.8-.6-1.4ZM1037.1,532.4h-4v-12.8h4v12.8Z"/>
    <path class="st3" d="M1039,525.9c0-2,.4-3.6,1.3-4.8.9-1.2,2.1-1.7,3.7-1.7s2.4.5,3.1,1.6l.3-1.4h3.5v17.7h-4v-6c-.8.9-1.7,1.3-2.9,1.3s-2.7-.6-3.6-1.8c-.9-1.2-1.3-2.8-1.3-5ZM1043,526.2c0,2.3.7,3.4,2,3.4s1.5-.3,1.9-1v-5.1c-.3-.7-1-1-1.9-1s-1.9,1-2,3v.7Z"/>
    <path class="st3" d="M1060.7,531.1c-.8,1.1-2,1.6-3.4,1.6s-2.5-.4-3.2-1.2-1.1-2-1.1-3.5v-8.3h4v8.3c0,1.1.5,1.6,1.6,1.6s1.6-.3,1.9-1v-9h4v12.8h-3.7v-1.4Z"/>
    <path class="st3" d="M1066.7,516.3c0-.6.2-1,.6-1.4.4-.4.9-.5,1.6-.5s1.2.2,1.6.5c.4.4.6.8.6,1.4s-.2,1-.6,1.4c-.4.4-.9.5-1.6.5s-1.2-.2-1.6-.5c-.4-.4-.6-.8-.6-1.4ZM1071,532.4h-4v-12.8h4v12.8Z"/>
    <path class="st3" d="M1072.9,526c0-2,.4-3.6,1.3-4.8.9-1.2,2.1-1.7,3.7-1.7s2.1.4,2.9,1.3v-6.5h4v18.2h-3.6l-.2-1.4c-.8,1.1-1.9,1.6-3.1,1.6s-2.7-.6-3.6-1.7c-.9-1.2-1.3-2.8-1.3-5ZM1076.9,526.2c0,2.3.7,3.4,2,3.4s1.5-.4,1.9-1.1v-4.9c-.4-.8-1-1.1-1.9-1.1s-1.9,1-2,3v.7Z"/>
    <path class="st3" d="M1104.1,525.6h-6.7v6.9h-4.1v-17.2h11.5v3.2h-7.4v4h6.7v3.2Z"/>
    <path class="st3" d="M1113.7,531.1c-.8,1.1-2,1.6-3.4,1.6s-2.5-.4-3.2-1.2-1.1-2-1.1-3.5v-8.3h4v8.3c0,1.1.5,1.6,1.6,1.6s1.6-.3,1.9-1v-9h4v12.8h-3.7v-1.4Z"/>
    <path class="st3" d="M1125.9,532.7c-2,0-3.5-.6-4.8-1.8-1.2-1.2-1.8-2.7-1.8-4.6v-.3c0-1.3.2-2.5.7-3.5.5-1,1.2-1.8,2.1-2.3.9-.5,2-.8,3.3-.8s3.2.6,4.3,1.7c1,1.1,1.6,2.7,1.6,4.7v1.5h-7.9c.1.7.5,1.3.9,1.7.5.4,1.1.6,1.9.6,1.3,0,2.2-.4,3-1.3l1.8,2.2c-.5.7-1.2,1.2-2.1,1.6-.9.4-1.9.6-2.9.6ZM1125.4,522.5c-1.2,0-1.9.8-2.1,2.3h4v-.3c0-.6-.1-1.1-.5-1.5s-.8-.5-1.5-.5Z"/>
    <path class="st3" d="M1137.1,532.4h-4v-18.2h4v18.2Z"/>
  </g>
  <g>
    <path class="st3" d="M904.5,394.5l3.8,12,3.8-12h5.5v17.2h-4.2v-4l.4-8.2-4.2,12.2h-2.7l-4.2-12.3.4,8.2v4h-4.1v-17.2h5.4Z"/>
    <path class="st3" d="M926.6,405.6h-2.2v6.1h-4.1v-17.2h6.8c2,0,3.6.5,4.8,1.4s1.7,2.2,1.7,3.8-.2,2.2-.7,3-1.2,1.4-2.3,1.9l3.6,6.9v.2h-4.4l-3-6.1ZM924.4,402.4h2.6c.8,0,1.4-.2,1.8-.6.4-.4.6-1,.6-1.7s-.2-1.3-.6-1.7c-.4-.4-1-.6-1.8-.6h-2.6v4.7Z"/>
    <path class="st3" d="M936,411.7v-17.2h6.2c2.2,0,3.9.4,5.1,1.2s1.7,2,1.7,3.5-.2,1.7-.6,2.3c-.4.6-1,1.1-1.8,1.4.9.2,1.6.7,2.1,1.3.5.6.7,1.4.7,2.4,0,1.7-.5,3-1.6,3.8-1.1.8-2.6,1.3-4.7,1.3h-7ZM940.2,401.7h2.2c.9,0,1.6-.2,1.9-.5.4-.3.6-.8.6-1.4s-.2-1.3-.6-1.6c-.4-.3-1.1-.5-2-.5h-2v4ZM940.2,404.4v4.1h2.7c.7,0,1.3-.2,1.7-.5.4-.3.6-.8.6-1.4,0-1.4-.7-2.2-2.1-2.2h-2.9Z"/>
    <path class="st3" d="M957.1,394.5l3.8,12,3.8-12h5.5v17.2h-4.2v-4l.4-8.2-4.2,12.2h-2.7l-4.2-12.3.4,8.2v4h-4.1v-17.2h5.4Z"/>
  </g>
  <g>
    <path class="st3" d="M1069.1,411.7h-4.1v-17.2h4.1v17.2Z"/>
    <path class="st3" d="M1078.4,405.6h-2.2v6.1h-4.1v-17.2h6.8c2,0,3.6.5,4.8,1.4s1.7,2.2,1.7,3.8-.2,2.2-.7,3-1.2,1.4-2.3,1.9l3.6,6.9v.2h-4.4l-3-6.1ZM1076.2,402.4h2.6c.8,0,1.4-.2,1.8-.6.4-.4.6-1,.6-1.7s-.2-1.3-.6-1.7c-.4-.4-1-.6-1.8-.6h-2.6v4.7Z"/>
    <path class="st3" d="M1087.8,411.7v-17.2h6.2c2.2,0,3.9.4,5.1,1.2s1.7,2,1.7,3.5-.2,1.7-.6,2.3c-.4.6-1,1.1-1.8,1.4.9.2,1.6.7,2.1,1.3.5.6.7,1.4.7,2.4,0,1.7-.5,3-1.6,3.8-1.1.8-2.6,1.3-4.7,1.3h-7ZM1091.9,401.7h2.2c.9,0,1.6-.2,1.9-.5.4-.3.6-.8.6-1.4s-.2-1.3-.6-1.6c-.4-.3-1.1-.5-2-.5h-2v4ZM1091.9,404.4v4.1h2.7c.7,0,1.3-.2,1.7-.5.4-.3.6-.8.6-1.4,0-1.4-.7-2.2-2.1-2.2h-2.9Z"/>
    <path class="st3" d="M1108.9,394.5l3.8,12,3.8-12h5.5v17.2h-4.2v-4l.4-8.2-4.2,12.2h-2.7l-4.2-12.3.4,8.2v4h-4.1v-17.2h5.4Z"/>
  </g>
  <g>
    <path class="st3" d="M1220.1,411.7h-4.1v-17.2h4.1v17.2Z"/>
    <path class="st3" d="M1236.9,405.9c0,1.2-.4,2.3-1,3.2-.6.9-1.4,1.6-2.5,2.1-1.1.5-2.3.8-3.7.8-2.3,0-4-.7-5.3-2.2-1.3-1.5-2-3.6-2-6.2v-.9c0-1.7.3-3.2.9-4.4.6-1.3,1.4-2.2,2.5-2.9,1.1-.7,2.4-1,3.8-1,2.1,0,3.8.5,5,1.6,1.3,1.1,2,2.6,2.2,4.5h-4.1c0-1-.3-1.8-.8-2.3-.5-.5-1.3-.7-2.3-.7s-1.8.4-2.3,1.2c-.5.8-.7,2-.8,3.7v1.2c0,1.8.2,3.1.7,3.9s1.3,1.2,2.4,1.2,1.7-.2,2.2-.7c.5-.4.8-1.2.8-2.1h4.1Z"/>
    <path class="st3" d="M1238.8,411.7v-17.2h6.2c2.2,0,3.9.4,5.1,1.2s1.7,2,1.7,3.5-.2,1.7-.6,2.3c-.4.6-1,1.1-1.8,1.4.9.2,1.6.7,2.1,1.3.5.6.7,1.4.7,2.4,0,1.7-.5,3-1.6,3.8-1.1.8-2.6,1.3-4.7,1.3h-7ZM1243,401.7h2.2c.9,0,1.6-.2,1.9-.5.4-.3.6-.8.6-1.4s-.2-1.3-.6-1.6c-.4-.3-1.1-.5-2-.5h-2v4ZM1243,404.4v4.1h2.7c.7,0,1.3-.2,1.7-.5.4-.3.6-.8.6-1.4,0-1.4-.7-2.2-2.1-2.2h-2.9Z"/>
    <path class="st3" d="M1259.9,394.5l3.8,12,3.8-12h5.5v17.2h-4.2v-4l.4-8.2-4.2,12.2h-2.7l-4.2-12.3.4,8.2v4h-4.1v-17.2h5.4Z"/>
  </g>
  <line class="st2" x1="390.6" y1="315.7" x2="390.6" y2="400.4"/>
  <line class="st2" x1="236.3" y1="315.7" x2="236.3" y2="400.4"/>
  <rect class="st0" x="1088.7" y="136.6" width="216" height="67.4"/>
  <g>
    <path class="st3" d="M1109.5,177.2h-4.1l-6.1-10.7v10.7h-4.1v-17.2h4.1l6.1,10.7v-10.7h4.1v17.2Z"/>
    <path class="st3" d="M1111.5,170.7c0-1.3.2-2.4.7-3.4.5-1,1.2-1.8,2.1-2.3.9-.5,2-.8,3.3-.8,1.9,0,3.4.6,4.5,1.8,1.1,1.2,1.7,2.8,1.7,4.8h0c0,2.1-.6,3.7-1.7,4.9-1.1,1.2-2.6,1.8-4.5,1.8s-3.3-.5-4.4-1.6c-1.1-1.1-1.7-2.6-1.8-4.4v-.7ZM1115.5,171c0,1.2.2,2,.6,2.6.4.6.9.8,1.6.8,1.4,0,2.1-1.1,2.2-3.3v-.4c0-2.3-.7-3.4-2.2-3.4s-2.1,1-2.2,3v.7Z"/>
    <path class="st3" d="M1129.2,164.4v1.5c1-1.2,2.2-1.7,3.8-1.7s2.3.4,3,1.2c.7.8,1,2,1,3.6v8.2h-4v-8.1c0-.6-.1-1.1-.4-1.4-.3-.3-.7-.5-1.4-.5s-1.4.3-1.7.9v9h-4v-12.8h3.7Z"/>
    <path class="st3" d="M1147,171.3h-7.1v-3.1h7.1v3.1Z"/>
    <path class="st3" d="M1160.1,174h-5.7l-1,3.2h-4.4l6.3-17.2h3.9l6.4,17.2h-4.5l-1-3.2ZM1155.4,170.8h3.7l-1.9-6-1.8,6Z"/>
    <path class="st3" d="M1166.6,161.1c0-.6.2-1,.6-1.4.4-.4.9-.5,1.6-.5s1.2.2,1.6.5c.4.4.6.8.6,1.4s-.2,1-.6,1.4c-.4.4-.9.5-1.6.5s-1.2-.2-1.6-.5c-.4-.4-.6-.8-.6-1.4ZM1170.8,177.2h-4v-12.8h4v12.8Z"/>
    <path class="st3" d="M1181,168h-1.3c-1.3,0-2.1.3-2.4,1.1v8.1h-4v-12.8h3.7v1.6c.8-1.3,1.7-1.9,2.9-1.9s.8,0,1.1.1v3.7Z"/>
    <path class="st3" d="M1188.6,177.2v-17.2h6.2c2.2,0,3.9.4,5.1,1.2s1.7,2,1.7,3.5-.2,1.7-.6,2.3c-.4.6-1,1.1-1.8,1.4.9.2,1.6.7,2.1,1.3.5.6.7,1.4.7,2.4,0,1.7-.5,3-1.6,3.8-1.1.8-2.6,1.3-4.7,1.3h-7ZM1192.8,167.2h2.2c.9,0,1.6-.2,1.9-.5.4-.3.6-.8.6-1.4s-.2-1.3-.6-1.6c-.4-.3-1.1-.5-2-.5h-2v4ZM1192.8,169.9v4.1h2.7c.7,0,1.3-.2,1.7-.5.4-.3.6-.8.6-1.4,0-1.4-.7-2.2-2.1-2.2h-2.9Z"/>
    <path class="st3" d="M1211.8,168h-1.3c-1.3,0-2.1.3-2.4,1.1v8.1h-4v-12.8h3.7v1.6c.8-1.3,1.7-1.9,2.9-1.9s.8,0,1.1.1v3.7Z"/>
    <path class="st3" d="M1219.2,177.5c-2,0-3.5-.6-4.8-1.8-1.2-1.2-1.8-2.7-1.8-4.6v-.3c0-1.3.2-2.5.7-3.5.5-1,1.2-1.8,2.1-2.3.9-.5,2-.8,3.3-.8s3.2.6,4.3,1.7c1,1.1,1.6,2.7,1.6,4.7v1.5h-7.9c.1.7.5,1.3.9,1.7.5.4,1.1.6,1.9.6,1.3,0,2.2-.4,3-1.3l1.8,2.2c-.5.7-1.2,1.2-2.1,1.6-.9.4-1.9.6-2.9.6ZM1218.7,167.3c-1.2,0-1.9.8-2.1,2.3h4v-.3c0-.6-.1-1.1-.5-1.5s-.8-.5-1.5-.5Z"/>
    <path class="st3" d="M1233.4,177.2c-.1-.3-.3-.6-.4-1.1-.7.9-1.8,1.4-3.1,1.4s-2.2-.4-3.1-1.1c-.8-.7-1.3-1.6-1.3-2.7s.5-2.4,1.5-3.1c1-.7,2.5-1.1,4.5-1.1h1.2v-.7c0-1.2-.5-1.8-1.5-1.8s-1.4.5-1.4,1.4h-4c0-1.2.5-2.2,1.6-3s2.4-1.2,4-1.2,2.9.4,3.9,1.2,1.4,1.9,1.5,3.3v5.7c0,1.2.2,2.1.5,2.7v.2h-4ZM1230.9,174.6c.5,0,.9-.1,1.2-.3.3-.2.6-.5.7-.7v-2h-1.2c-1.4,0-2.1.6-2.1,1.9s.1.7.4.9.6.3.9.3Z"/>
    <path class="st3" d="M1243.7,161.2v3.2h2.1v2.8h-2.1v5.8c0,.5,0,.8.3,1,.2.2.5.3,1,.3s.7,0,1,0v2.8c-.7.2-1.5.3-2.2.3-1.4,0-2.4-.3-3-1-.7-.6-1-1.6-1-2.9v-6.3h-1.6v-2.8h1.6v-3.2h4Z"/>
    <path class="st3" d="M1251.2,165.8c.9-1.1,1.9-1.6,3.3-1.6s2.5.4,3.2,1.3,1.1,2.1,1.1,3.7v8.1h-4v-8c0-.7-.1-1.2-.4-1.5-.3-.3-.7-.5-1.4-.5s-1.4.3-1.7.8v9.2h-4v-18.2h4v6.7Z"/>
    <path class="st3" d="M1261,161.1c0-.6.2-1,.6-1.4.4-.4.9-.5,1.6-.5s1.2.2,1.6.5c.4.4.6.8.6,1.4s-.2,1-.6,1.4c-.4.4-.9.5-1.6.5s-1.2-.2-1.6-.5c-.4-.4-.6-.8-.6-1.4ZM1265.2,177.2h-4v-12.8h4v12.8Z"/>
    <path class="st3" d="M1271.3,164.4v1.5c1-1.2,2.2-1.7,3.8-1.7s2.3.4,3,1.2c.7.8,1,2,1,3.6v8.2h-4v-8.1c0-.6-.1-1.1-.4-1.4-.3-.3-.7-.5-1.4-.5s-1.4.3-1.7.9v9h-4v-12.8h3.7Z"/>
    <path class="st3" d="M1280.8,170.7c0-1.3.2-2.4.6-3.4.4-1,1-1.8,1.8-2.3.8-.5,1.7-.8,2.8-.8s2.4.4,3.1,1.3v-1.1h3.8v12.3c0,1.1-.3,2.1-.8,2.9-.5.8-1.3,1.5-2.3,1.9-1,.4-2.1.7-3.5.7s-1.8-.2-2.7-.5c-.9-.4-1.5-.8-2-1.4l1.7-2.3c.7.9,1.7,1.3,2.9,1.3,1.8,0,2.6-.9,2.6-2.7v-.4c-.8.8-1.7,1.3-2.9,1.3s-2.8-.6-3.8-1.8c-1-1.2-1.4-2.8-1.4-4.8h0ZM1284.8,171c0,1,.2,1.9.6,2.5.4.6.9.9,1.7.9s1.5-.3,1.9-.9v-5.4c-.4-.6-1-.9-1.9-.9s-1.3.3-1.7,1c-.4.6-.6,1.6-.6,2.8Z"/>
  </g>
  <rect class="st0" x="177.4" y="370.5" width="121.5" height="67.4"/>
  <g>
    <path class="st3" d="M202.7,408.5h7.2v3.2h-11.4v-17.2h4.1v14Z"/>
    <path class="st3" d="M221.6,408.5h-5.7l-1,3.2h-4.4l6.3-17.2h3.9l6.4,17.2h-4.5l-1-3.2ZM217,405.3h3.7l-1.9-6-1.8,6Z"/>
    <path class="st3" d="M242,405.9c0,1.2-.4,2.3-1,3.2-.6.9-1.4,1.6-2.5,2.1-1.1.5-2.3.8-3.7.8-2.3,0-4-.7-5.3-2.2-1.3-1.5-2-3.6-2-6.2v-.9c0-1.7.3-3.2.9-4.4.6-1.3,1.4-2.2,2.5-2.9,1.1-.7,2.4-1,3.8-1,2.1,0,3.8.5,5,1.6,1.3,1.1,2,2.6,2.2,4.5h-4.1c0-1-.3-1.8-.8-2.3-.5-.5-1.3-.7-2.3-.7s-1.8.4-2.3,1.2c-.5.8-.7,2-.8,3.7v1.2c0,1.8.2,3.1.7,3.9s1.3,1.2,2.4,1.2,1.7-.2,2.2-.7c.5-.4.8-1.2.8-2.1h4.1Z"/>
    <path class="st3" d="M249.4,394.5l3.8,12,3.8-12h5.5v17.2h-4.2v-4l.4-8.2-4.2,12.2h-2.7l-4.2-12.3.4,8.2v4h-4.1v-17.2h5.4Z"/>
  </g>
  <rect class="st0" x="331.3" y="370.5" width="121.5" height="67.4"/>
  <g>
    <path class="st3" d="M359.8,408.5h-5.7l-1,3.2h-4.4l6.3-17.2h3.9l6.4,17.2h-4.5l-1-3.2ZM355.1,405.3h3.7l-1.9-6-1.8,6Z"/>
    <path class="st3" d="M375.4,407.2c0-.6-.2-1.1-.6-1.4-.4-.3-1.2-.7-2.3-1.1s-2-.7-2.6-1.1c-2.2-1.1-3.3-2.6-3.3-4.5s.3-1.8.8-2.5c.6-.7,1.3-1.3,2.4-1.7,1-.4,2.2-.6,3.4-.6s2.3.2,3.3.7c1,.4,1.7,1.1,2.3,1.9.5.8.8,1.7.8,2.8h-4.1c0-.7-.2-1.2-.6-1.6-.4-.4-1-.6-1.7-.6s-1.3.2-1.8.5c-.4.3-.6.7-.6,1.2s.2.8.7,1.2,1.3.7,2.5,1.1c1.2.4,2.2.8,2.9,1.2,1.9,1.1,2.8,2.5,2.8,4.4s-.6,2.7-1.7,3.5-2.7,1.3-4.7,1.3-2.7-.2-3.8-.8c-1.1-.5-2-1.2-2.6-2.1-.6-.9-.9-1.9-.9-3h4.2c0,.9.2,1.6.7,2,.5.4,1.3.7,2.3.7s1.2-.1,1.6-.4c.4-.3.6-.7.6-1.2Z"/>
    <path class="st3" d="M395.6,405.9c0,1.2-.4,2.3-1,3.2-.6.9-1.4,1.6-2.5,2.1-1.1.5-2.3.8-3.7.8-2.3,0-4-.7-5.3-2.2-1.3-1.5-2-3.6-2-6.2v-.9c0-1.7.3-3.2.9-4.4.6-1.3,1.4-2.2,2.5-2.9,1.1-.7,2.4-1,3.8-1,2.1,0,3.8.5,5,1.6,1.3,1.1,2,2.6,2.2,4.5h-4.1c0-1-.3-1.8-.8-2.3-.5-.5-1.3-.7-2.3-.7s-1.8.4-2.3,1.2c-.5.8-.7,2-.8,3.7v1.2c0,1.8.2,3.1.7,3.9s1.3,1.2,2.4,1.2,1.7-.2,2.2-.7c.5-.4.8-1.2.8-2.1h4.1Z"/>
    <path class="st3" d="M403,394.5l3.8,12,3.8-12h5.5v17.2h-4.2v-4l.4-8.2-4.2,12.2h-2.7l-4.2-12.3.4,8.2v4h-4.1v-17.2h5.4Z"/>
  </g>
  <rect class="st0" x="715.6" y="370.5" width="121.5" height="67.4"/>
  <g>
    <path class="st3" d="M749.2,407.2c0-.6-.2-1.1-.6-1.4-.4-.3-1.2-.7-2.3-1.1s-2-.7-2.6-1.1c-2.2-1.1-3.3-2.6-3.3-4.5s.3-1.8.8-2.5c.6-.7,1.3-1.3,2.4-1.7,1-.4,2.2-.6,3.4-.6s2.3.2,3.3.7c1,.4,1.7,1.1,2.3,1.9.5.8.8,1.7.8,2.8h-4.1c0-.7-.2-1.2-.6-1.6-.4-.4-1-.6-1.7-.6s-1.3.2-1.8.5c-.4.3-.6.7-.6,1.2s.2.8.7,1.2,1.3.7,2.5,1.1c1.2.4,2.2.8,2.9,1.2,1.9,1.1,2.8,2.5,2.8,4.4s-.6,2.7-1.7,3.5-2.7,1.3-4.7,1.3-2.7-.2-3.8-.8c-1.1-.5-2-1.2-2.6-2.1-.6-.9-.9-1.9-.9-3h4.2c0,.9.2,1.6.7,2,.5.4,1.3.7,2.3.7s1.2-.1,1.6-.4c.4-.3.6-.7.6-1.2Z"/>
    <path class="st3" d="M761.9,405.6h-2.2v6.1h-4.1v-17.2h6.8c2,0,3.6.5,4.8,1.4s1.7,2.2,1.7,3.8-.2,2.2-.7,3-1.2,1.4-2.3,1.9l3.6,6.9v.2h-4.4l-3-6.1ZM759.6,402.4h2.6c.8,0,1.4-.2,1.8-.6.4-.4.6-1,.6-1.7s-.2-1.3-.6-1.7c-.4-.4-1-.6-1.8-.6h-2.6v4.7Z"/>
    <path class="st3" d="M771.3,411.7v-17.2h6.2c2.2,0,3.9.4,5.1,1.2s1.7,2,1.7,3.5-.2,1.7-.6,2.3c-.4.6-1,1.1-1.8,1.4.9.2,1.6.7,2.1,1.3.5.6.7,1.4.7,2.4,0,1.7-.5,3-1.6,3.8-1.1.8-2.6,1.3-4.7,1.3h-7ZM775.4,401.7h2.2c.9,0,1.6-.2,1.9-.5.4-.3.6-.8.6-1.4s-.2-1.3-.6-1.6c-.4-.3-1.1-.5-2-.5h-2v4ZM775.4,404.4v4.1h2.7c.7,0,1.3-.2,1.7-.5.4-.3.6-.8.6-1.4,0-1.4-.7-2.2-2.1-2.2h-2.9Z"/>
    <path class="st3" d="M792.3,394.5l3.8,12,3.8-12h5.5v17.2h-4.2v-4l.4-8.2-4.2,12.2h-2.7l-4.2-12.3.4,8.2v4h-4.1v-17.2h5.4Z"/>
  </g>
  <rect class="st0" x="1598.3" y="370.5" width="216" height="67.4"/>
  <g>
    <path class="st3" d="M1626.2,394.5v11.3c0,1.3-.3,2.4-.8,3.3-.5.9-1.3,1.6-2.3,2.1-1,.5-2.2.7-3.6.7-2.1,0-3.7-.5-5-1.6-1.2-1.1-1.8-2.6-1.8-4.5v-11.3h4.2v11.4c0,1.9.9,2.8,2.6,2.8s1.5-.2,2-.7c.4-.5.7-1.2.7-2.3v-11.2h4.1Z"/>
    <path class="st3" d="M1632.2,398.9v1.5c1-1.2,2.2-1.7,3.8-1.7s2.3.4,3,1.2c.7.8,1,2,1,3.6v8.2h-4v-8.1c0-.6-.1-1.1-.4-1.4-.3-.3-.7-.5-1.4-.5s-1.4.3-1.7.9v9h-4v-12.8h3.7Z"/>
    <path class="st3" d="M1642.2,395.6c0-.6.2-1,.6-1.4.4-.4.9-.5,1.6-.5s1.2.2,1.6.5c.4.4.6.8.6,1.4s-.2,1-.6,1.4c-.4.4-.9.5-1.6.5s-1.2-.2-1.6-.5c-.4-.4-.6-.8-.6-1.4ZM1646.4,411.7h-4v-12.8h4v12.8Z"/>
    <path class="st3" d="M1653.5,395.8v3.2h2.1v2.8h-2.1v5.8c0,.5,0,.8.3,1,.2.2.5.3,1,.3s.7,0,1,0v2.8c-.7.2-1.5.3-2.2.3-1.4,0-2.4-.3-3-1-.7-.6-1-1.6-1-2.9v-6.3h-1.6v-2.8h1.6v-3.2h4Z"/>
    <path class="st3" d="M1664.4,411.7c-.1-.3-.3-.6-.4-1.1-.7.9-1.8,1.4-3.1,1.4s-2.2-.4-3.1-1.1c-.8-.7-1.3-1.6-1.3-2.7s.5-2.4,1.5-3.1c1-.7,2.5-1.1,4.5-1.1h1.2v-.7c0-1.2-.5-1.8-1.5-1.8s-1.4.5-1.4,1.4h-4c0-1.2.5-2.2,1.6-3s2.4-1.2,4-1.2,2.9.4,3.9,1.2,1.4,1.9,1.5,3.3v5.7c0,1.2.2,2.1.5,2.7v.2h-4ZM1661.9,409.1c.5,0,.9-.1,1.2-.3.3-.2.6-.5.7-.7v-2h-1.2c-1.4,0-2.1.6-2.1,1.9s.1.7.4.9.6.3.9.3Z"/>
    <path class="st3" d="M1677.8,402.5h-1.3c-1.3,0-2.1.3-2.4,1.1v8.1h-4v-12.8h3.7v1.6c.8-1.3,1.7-1.9,2.9-1.9s.8,0,1.1.1v3.7Z"/>
    <path class="st3" d="M1684.5,406.1l2.1-7.2h4.3l-5.2,14.9-.2.5c-.7,1.7-2,2.5-3.9,2.5s-1.1,0-1.6-.2v-2.8h.5c.6,0,1,0,1.3-.2.3-.2.5-.5.7-.9l.3-.9-4.4-12.9h4.3l2,7.2Z"/>
    <path class="st3" d="M1698.2,411.7v-17.2h6.2c2.2,0,3.9.4,5.1,1.2s1.7,2,1.7,3.5-.2,1.7-.6,2.3c-.4.6-1,1.1-1.8,1.4.9.2,1.6.7,2.1,1.3.5.6.7,1.4.7,2.4,0,1.7-.5,3-1.6,3.8-1.1.8-2.6,1.3-4.7,1.3h-7ZM1702.3,401.7h2.2c.9,0,1.6-.2,1.9-.5.4-.3.6-.8.6-1.4s-.2-1.3-.6-1.6c-.4-.3-1.1-.5-2-.5h-2v4ZM1702.3,404.4v4.1h2.7c.7,0,1.3-.2,1.7-.5.4-.3.6-.8.6-1.4,0-1.4-.7-2.2-2.1-2.2h-2.9Z"/>
    <path class="st3" d="M1719.2,394.5l3.8,12,3.8-12h5.5v17.2h-4.2v-4l.4-8.2-4.2,12.2h-2.7l-4.2-12.3.4,8.2v4h-4.1v-17.2h5.4Z"/>
  </g>
</svg>