<?xml version="1.0" encoding="UTF-8"?>
<svg id="Ebene_2" data-name="Ebene 2" xmlns="http://www.w3.org/2000/svg" viewBox="0 0 1920 1280">
  <defs>
    <style>
      .cls-1 {
        fill: #afc0c8;
      }

      .cls-2 {
        fill: #932338;
      }

      .cls-3 {
        fill: none;
        stroke: #fff;
        stroke-width: 3px;
      }

      .cls-3, .cls-4, .cls-5 {
        stroke-miterlimit: 10;
      }

      .cls-6 {
        fill: #90172f;
      }

      .cls-7 {
        fill: #0d435c;
      }

      .cls-8, .cls-5 {
        fill: #fff;
      }

      .cls-4 {
        stroke-width: 1.15138px;
      }

      .cls-4, .cls-5 {
        stroke: #f3f5f7;
      }

      .cls-4, .cls-9 {
        fill: #7996a5;
      }

      .cls-10 {
        fill: #f3f5f7;
      }

      .cls-11 {
        fill: #d4dde0;
      }

      .cls-12 {
        fill: #fac102;
      }
    </style>
  </defs>
  <rect class="cls-10" x="-21.24095" y="-22.55133" width="1956.29154" height="1302.52079"/>
  <path class="cls-8" d="M1920.02718,1090.81209c-226.22316-277.83787-575.92689-422.46158-985.80038-422.46158C545.04929,668.35052,218.96734,827.22797-.05523,1070.89368L-.00024,1280.00131l1920.21981.04306-.19239-189.23228Z"/>
  <path class="cls-11" d="M1920.21958,1280.04437c-185.29407-276.60652-545.54677-464.96605-959.63963-464.96605S186.28859,1002.76593.99452,1279.37245l1919.22506.67193Z"/>
  <path class="cls-1" d="M257.89797,1280.00416c3.00176-2.198,8.17518-2.93792,7.46679-5.02299-22.25058-65.49264,8.13013-44.6025,22.44144-38.14947,14.3113,6.45303-2.12-8.85795,5.72221-16.51345,7.84221-7.65549,41.84979-16.14637,46.67984-32.67589,8.40237-28.75478-26.51415-13.44379-9.76996-38.32077,7.08524-10.5266,22.43674-17.95412,31.41607-17.95412,8.97011,0,26.92406-22.43674,24.67814-29.16546-2.24592-6.72871,2.24592-24.68266,8.97011-31.42059,6.7334-6.72419-4.48279-17.94021-4.48279-17.94021l-4.48732-22.44144s0-33.65746-13.46664-44.87801c-1.72482-1.43897-3.09007-2.08004-4.33517-2.08004-8.45822,0-11.4191,29.65891-85.41649,40.22934-60.69429,5.93215-138.91911,85.28546-168.28245,114.43433-43.46887,43.15135-78.85031,86.9699-105.31946,126.58314-3.42082,5.1195-6.74865,10.23113-9.98248,15.31562h258.16816Z"/>
  <g>
    <path class="cls-6" d="M228.65326,1159.6407c-.92349-13.71411-1.58629-27.4458-2.09377-41.18286l.39058-.01245c.37717,13.73779.90971,27.47339,1.70319,41.19531Z"/>
    <path class="cls-6" d="M225.73021,1077.20272c-.02211-13.74927.20631-27.50439.91495-41.24463l1.03133.05737c-.8042,13.70947-1.1297,27.44922-1.20461,41.18848l-.74167-.00122Z"/>
    <path class="cls-6" d="M231.05344,994.90535c.66289-3.38672,1.42093-6.76099,2.39008-10.08862.9726-3.32349,2.12257-6.61963,3.74135-9.74121,1.67831-3.09668,3.61136-5.92358,5.53075-8.79468,1.93373-2.85205,3.91338-5.66772,5.91145-8.46899l1.31137.94336c-2.01237,2.77954-4.00565,5.57251-5.94887,8.39551-1.91972,2.82422-3.88794,5.6731-5.50462,8.61035-1.56984,2.97339-2.72353,6.19043-3.70132,9.4502-.97623,3.26514-1.7504,6.59814-2.43105,9.9502l-1.29913-.2561Z"/>
    <polygon class="cls-6" points="273.27777 924.72249 298.63074 892.23738 300.28995 893.55867 274.78732 925.88704 273.27777 924.72249"/>
    <polygon class="cls-6" points="324.40543 860.12703 350.60065 828.27449 352.50049 829.8636 326.18649 861.5804 324.40543 860.12703"/>
    <path class="cls-6" d="M377.21732,796.75692c8.95276-10.43896,17.98907-20.80835,27.15558-31.06665l2.10797,1.89209c-9.19434,10.20068-18.26392,20.51782-27.25198,30.90698l-2.01157-1.73242Z"/>
    <path class="cls-6" d="M432.39371,735.36556c4.7879-4.95093,9.63281-9.85181,14.62561-14.61865,5.00296-4.75757,10.09845-9.43188,15.6618-13.6731l1.91391,2.55029c-5.39087,4.07104-10.46725,8.67847-15.43985,13.3689-4.96957,4.70386-9.81125,9.55884-14.59946,14.46753l-2.16202-2.09497Z"/>
    <path class="cls-6" d="M495.60837,682.30086c10.88205-8.40869,21.8533-16.72095,32.97525-24.83105l2.01978,2.77393c-11.10291,8.06885-22.05188,16.34912-32.94031,24.72437l-2.05472-2.66724Z"/>
    <path class="cls-6" d="M562.40527,633.76961c11.43121-7.67529,23.0235-15.11353,34.77863-22.28784l1.84668,3.03101c-11.71985,7.12988-23.27966,14.52393-34.6817,22.15576l-1.9436-2.89893Z"/>
    <path class="cls-6" d="M632.93658,590.77913c12.07867-6.61963,24.31683-12.95093,36.70795-18.97021l1.59991,3.2998c-12.34418,5.97485-24.53839,12.26099-36.57587,18.83569l-1.73199-3.16528Z"/>
    <path class="cls-6" d="M707.26703,554.71297c12.68762-5.37085,25.51837-10.40674,38.47919-15.08618l1.28265,3.56128c-12.90198,4.63721-25.67688,9.63013-38.31165,14.95728l-1.4502-3.43237Z"/>
    <path class="cls-6" d="M785.00336,526.68245c13.20496-3.94385,26.52368-7.5105,39.93683-10.68237l.89545,3.79907c-13.34308,3.13501-26.59442,6.66333-39.73474,10.56738l-1.09753-3.68408Z"/>
    <path class="cls-6" d="M865.44098,507.68465c13.57959-2.36597,27.23071-4.33203,40.93292-5.84399l.44153,3.9541c-13.61719,1.53955-27.19214,3.45874-40.69678,5.7937l-.67767-3.90381Z"/>
    <path class="cls-6" d="M947.59161,498.54012c6.88422-.33911,13.77356-.57275,20.66479-.70093,3.44653-.05298,6.88947-.12769,10.3399-.08765l10.34711.05615-.06555,3.85962-10.27026-.04077c-3.42206-.03516-6.85138.04419-10.27606.10181-6.85132.13721-13.70038.37939-20.54413.72632l-.1958-3.91455Z"/>
    <path class="cls-6" d="M1030.23767,500.1119c13.72791,1.27563,27.40686,3.0415,41.01074,5.25122l-.59717,3.69312c-13.52661-2.17676-27.12305-3.91211-40.76245-5.15967l.34888-3.78467Z"/>
    <path class="cls-6" d="M1111.81885,513.28157c13.43726,3.05566,26.78076,6.51294,40.01648,10.33569l-1.00269,3.48096c-13.177-3.7854-26.45776-7.20581-39.82764-10.22583l.81384-3.59082Z"/>
    <path class="cls-6" d="M1191.21362,536.15389c13.01135,4.52441,25.90454,9.38403,38.67065,14.5542l-1.31287,3.24829c-12.7207-5.13037-25.56567-9.95068-38.52563-14.43628l1.16785-3.36621Z"/>
    <path class="cls-6" d="M1267.79358,567.13167c12.50391,5.77246,24.87244,11.83618,37.09668,18.177l-1.55652,3.00586c-12.18774-6.29956-24.51807-12.32251-36.98157-18.05469l1.44141-3.12817Z"/>
    <path class="cls-6" d="M1341.09302,605.19783c11.91345,6.90405,23.67102,14.07568,35.25854,21.51196l-1.63953,2.56689c-11.58044-7.36084-23.32874-14.45679-35.2301-21.28467l1.61108-2.79419Z"/>
    <path class="cls-6" d="M1410.58276,649.81746c11.2262,7.97021,22.26294,16.20776,33.08069,24.72485l-1.65759,2.1145c-10.81812-8.44116-21.85376-16.60376-33.07715-24.49854l1.65405-2.34082Z"/>
    <path class="cls-6" d="M1475.41296,700.95711c10.33276,9.10132,20.4032,18.50366,30.13623,28.24854l-1.64355,1.64819c-9.73633-9.66357-19.81018-18.98779-30.14551-28.01147l1.65283-1.88525Z"/>
    <path class="cls-6" d="M1533.59705,759.53963c8.9115,10.50562,17.37817,21.40894,25.06543,32.86011l-1.61438,1.09106c-7.7196-11.32056-16.16357-22.14575-25.08508-32.55688l1.63403-1.39429Z"/>
    <path class="cls-6" d="M1578.76025,828.52889c2.71924,6.3479,5.0647,12.87109,6.79602,19.57275,1.72644,6.69629,2.83813,13.58423,2.94971,20.52856l-1.36047.02368c-.15784-6.80835-1.29761-13.57812-3.04761-20.17065-1.75476-6.59766-4.11865-13.03052-6.85522-19.29517l1.51758-.65918Z"/>
    <polygon class="cls-6" points="1588.53406 909.87728 1587.98328 951.11556 1587.20898 951.10164 1587.46655 909.87484 1588.53406 909.87728"/>
    <path class="cls-6" d="M1586.64587,992.33528c-.6311,13.73193-1.38452,27.46191-2.60449,41.15454l-.0387-.00342c1.08911-13.7019,1.71143-27.43506,2.21143-41.16846l.43176.01733Z"/>
  </g>
  <g>
    <g>
      <path class="cls-7" d="M294.87714,1162.97924c0,11.83728-29.52521,21.4282-65.94558,21.4282-36.41017,0-65.93506-9.59092-65.93506-21.4282s29.52489-21.4384,65.93506-21.4384c36.42037,0,65.94558,9.60128,65.94558,21.4384"/>
      <path class="cls-8" d="M266.36423,1161.53331c0,6.70752-16.75804,12.16106-37.42343,12.16106s-37.43395-5.45354-37.43395-12.16106c0-6.72825,16.76825-12.17142,37.43395-12.17142s37.42343,5.44318,37.42343,12.17142"/>
    </g>
    <ellipse class="cls-7" cx="228.65326" cy="1159.64068" rx="16.43365" ry="5.85308"/>
  </g>
  <path class="cls-1" d="M910.27932,1025.69059c-.99612,5.73711,10.13697,4.55652,18.28605,5.56654,8.14456,1.01455,9.13615,10.30285,18.27231,20.60117,4.69944,5.30817,4.56104,5.14682,3.67098,4.99467-.83946-.14762-2.34746-.29976-1.09766,4.12757,2.57818,9.12241,8.74424,6.58579,25.23627,10.46889,16.49655,3.88328,11.9216,6.24917,25.43901,12.32759,13.50819,6.07843,43.92345,4.73178,33.19166,9.62508-10.74101,4.89766-.81181,22.63044,4.54261,27.69415,5.36363,5.06388,14.89639,19.08395,14.89639,19.08395,0,0-1.41585,32.08478-3.80486,39.85117-2.39354,7.76638-2.06144,31.09788-6.438,35.3223-4.37673,4.22459,36.73815,15.94328,27.18226,31.98793-5.52047,9.27456,34.92117,1.06532,76.77848,0,30.52601-.7793,84.76152,19.19001,84.76152,19.19001,0,0,65.91282,8.52742,60.77991-3.20065-11.19307-25.59115,57.57909-15.98936,91.16282-23.9863,33.26991-7.92322,61.37926,13.02395,92.71707,13.79873,60.98265,1.51269,107.45177,4.90235,104.00682,11.78789-2.31663,4.6356.43028,9.54851,5.77733,14.20305h100.61348c-11.47255-21.0281-27.3019-49.30853-27.3019-49.30853,0,0,17.29462-3.71723,21.08105-13.50819,3.78626-9.79565,4.9806-13.67424,28.44128-19.92793,23.4652-6.249,45.12717.84398,63.404,6.41974,18.29057,5.56654,116.29755,37.15787,116.29755,37.15787,0,0-25.58663-41.58068-52.77827-65.57167-21.85566-19.28217-38.82271-26.8133-53.9081-47.74657-15.0993-20.94248-14.10787-11.65435-29.2117-17.56673-15.10383-5.91238-55.03793-33.60669-66.95971-39.851-11.92177-6.24917-72.92285-35.46087-87.03525-47.11488-14.10318-11.64966-78.4894-27.34848-94.19291-38.83662-15.68943-11.48361-67.18105-11.64966-92.41715-22.11856-25.2361-10.46889-19.47603-1.68796-27.2332,1.01455-7.757,2.7072-51.87883-3.87858-79.90055-10.29815-28.02624-6.41521-63.61144-8.26922-73.73919-12.83495-4.14148-1.86322-10.30754-2.5688-17.88944-2.5688-10.97625,0-24.91339,1.48505-39.96192,3.08068-25.44823,2.7072-72.96441,9.62961-95.24432,27.0256-11.98176,9.3575-14.86858,7.96477-24.53505,6.57188-8.31061-1.19451-21.6251-2.39823-50.01578,3.22378-61.43488,12.15685-43.94204,10.30285-84.1114,25.83562-40.16014,15.54215-7.76622,17.73261-8.7625,23.47911Z"/>
  <g>
    <path class="cls-2" d="M1646.09997,1068.93904c0,10.79459-26.92448,19.54069-60.13675,19.54069-33.20297,0-60.12715-8.7461-60.12715-19.54069s26.92419-19.55,60.12715-19.55c33.21227,0,60.13675,8.75555,60.13675,19.55"/>
    <path class="cls-8" d="M1620.09863,1067.62048c0,6.11669-15.28191,11.08985-34.12698,11.08985s-34.13657-4.97316-34.13657-11.08985c0-6.13559,15.29121-11.0993,34.13657-11.0993s34.12698,4.96371,34.12698,11.0993"/>
    <path class="cls-2" d="M1601.61758,1066.93736c0,2.56298-6.38345,4.63996-14.24363,4.63996s-14.24334-2.07698-14.24334-4.63996c0-2.55324,6.38345-4.63022,14.24334-4.63022s14.24363,2.07698,14.24363,4.63022"/>
  </g>
  <ellipse class="cls-4" cx="1539.89311" cy="479.81333" rx="40.25227" ry="6.54313"/>
  <ellipse class="cls-5" cx="1539.82263" cy="479.03821" rx="30.90684" ry="2.8013"/>
  <circle class="cls-12" cx="1366.88469" cy="439.6827" r="52.15103"/>
  <circle class="cls-6" cx="1453.33496" cy="520.14396" r="12.93751"/>
  <circle class="cls-9" cx="1538.27457" cy="478.87825" r="16.89699"/>
  <path class="cls-10" d="M1570.72946,479.03821c0,1.54712-13.83746,2.8013-30.90684,2.8013s-30.90683-1.25419-30.90683-2.8013c.25752.0313,12.43477,2.31904,30.48104,2.35543,24.0526.0485,31.33263-2.35543,31.33263-2.35543Z"/>
  <path class="cls-10" d="M1570.41369,483.51118c0,1.54712-13.9203,2.64598-30.98967,2.64598s-30.90683-1.25419-30.90683-2.8013c.25752.0313,12.43486,2.28892,30.48104,2.35543,21.50429.07925,31.41547-2.20011,31.41547-2.20011Z"/>
  <polygon class="cls-8" points="353.95371 1239.19118 354.02496 1238.90971 346.95225 1237.24574 353.95371 1239.19118"/>
  <g>
    <path class="cls-7" d="M950.76074,511.39656c.37207-10.3623.01758-20.76562-.37598-28.02051,15.55566.95996,34.7207,9.54199,36.85742,13.50684-.35449,1.26758-3.90039,4.91211-13.18164,8.75684-7.56348,3.13184-16.38184,5.28711-23.2998,5.75684ZM987.33008,497.06551"/>
    <path class="cls-7" d="M954.7655,488.03914c4.81592.7312,10.17432,2.10596,15.32007,3.96997,5.18762,1.87939,8.85046,3.77246,11.1019,5.19775-2.03318,1.4541-5.53898,3.45312-11.06992,5.52197-4.97302,1.85986-10.30853,3.25928-15.08289,4.00488.10846-6.70801-.04272-13.22412-.26917-18.69458M947.62512,479.13533c-.5614,0-1.11133.01099-1.65417.03369.76501,11.49194,1.10059,25.05347.43109,36.521.5426-.02612.92401-.04883,1.07214-.04883.00671,0,.01294.00024.01874.00024.18872.00293.38013.00415.57166.00415,16.67706,0,43.74268-10.63184,43.3548-19.1062-.30096-6.57422-26.28534-17.40405-43.79425-17.40405h0Z"/>
  </g>
  <g>
    <path class="cls-7" d="M1588.65845,893.52732,1588.78248,893.47263c-1.21289-.24023-4.90234-3.52832-9.00879-12.47559-3.2041-6.98145-5.5293-15.02832-6.25684-21.41992.9082.01172,1.83301.01758,2.77148.01758,7.14844,0,15.36328-.33984,23.5127-.9668-.24414,16.34082-7.56543,33.14648-11.01855,34.84473Z"/>
    <path class="cls-7" d="M1595.66419,862.82957c-.42981,4.78027-1.42896,9.85938-2.92493,14.70312-1.51465,4.90479-3.16125,8.34619-4.41455,10.41968-1.55493-1.96558-3.73865-5.45874-5.95483-10.74707-1.90186-4.53833-3.3916-9.36597-4.27893-13.71704,5.47595-.0415,11.48767-.26855,17.57324-.65869M1603.60718,854.39817c-8.52173.76025-18.27246,1.2959-27.3252,1.2959-2.38806,0-4.72766-.03711-6.98328-.11743.04883.53125.08691.89746.09045,1.02173.44397,15.42529,11.48279,40.78833,19.50439,40.78833.08557,0,.17004-.00293.255-.00879,6.36462-.43506,15.61462-24.02832,14.45862-42.97974h0Z"/>
  </g>
  <g>
    <path class="cls-7" d="M264.70605,740.07918v-32.75879h11.47461c3.97461,0,6.98926.76172,9.04492,2.28418,2.05469,1.52246,3.08203,3.75391,3.08203,6.69336,0,1.60449-.41309,3.01855-1.2373,4.24121-.8252,1.22266-1.97266,2.11816-3.44238,2.68848,1.67969.41992,3.00391,1.26758,3.9707,2.54199.96777,1.27539,1.45117,2.83496,1.45117,4.67969,0,3.15039-1.00488,5.53516-3.01465,7.15527s-4.875,2.44434-8.59473,2.47461h-12.73438ZM271.45605,721.045h4.99414c3.40527-.05957,5.10742-1.41699,5.10742-4.07227,0-1.48535-.43066-2.55371-1.29297-3.20605-.86328-.65234-2.22461-.97852-4.08398-.97852h-4.72461v8.25684ZM271.45605,725.81453v8.84277h5.78223c1.58984,0,2.83105-.37891,3.72363-1.13672.8916-.75684,1.33887-1.80371,1.33887-3.13867,0-3-1.55273-4.52246-4.65723-4.56738h-6.1875Z"/>
    <path class="cls-7" d="M292.67285,727.68172c0-2.41406.46387-4.56641,1.39453-6.45703.92969-1.88965,2.26855-3.35254,4.01562-4.38672,1.74805-1.03516,3.77637-1.55273,6.08691-1.55273,3.28418,0,5.96484,1.00488,8.04297,3.01465,2.07715,2.01074,3.23633,4.74023,3.47656,8.18945l.04492,1.66504c0,3.73535-1.04297,6.73145-3.12793,8.98828-2.08496,2.25781-4.88184,3.38672-8.3916,3.38672s-6.31152-1.125-8.40332-3.375c-2.09277-2.25-3.13867-5.30957-3.13867-9.17969v-.29297ZM299.1748,728.14363c0,2.31348.43457,4.08301,1.30469,5.30664.87012,1.22461,2.11523,1.83691,3.73535,1.83691,1.57422,0,2.80469-.60449,3.68945-1.81445.88477-1.20898,1.32715-3.14258,1.32715-5.80176,0-2.26855-.44238-4.02637-1.32715-5.27344-.88477-1.24609-2.12988-1.87012-3.73438-1.87012-1.59082,0-2.82031.62012-3.69043,1.85938s-1.30469,3.1582-1.30469,5.75684Z"/>
    <path class="cls-7" d="M318.72656,727.68172c0-2.41406.46387-4.56641,1.39453-6.45703.92969-1.88965,2.26855-3.35254,4.01562-4.38672,1.74805-1.03516,3.77637-1.55273,6.08691-1.55273,3.28418,0,5.96484,1.00488,8.04297,3.01465,2.07715,2.01074,3.23633,4.74023,3.47656,8.18945l.04492,1.66504c0,3.73535-1.04297,6.73145-3.12793,8.98828-2.08496,2.25781-4.88184,3.38672-8.3916,3.38672s-6.31152-1.125-8.40332-3.375c-2.09277-2.25-3.13867-5.30957-3.13867-9.17969v-.29297ZM325.22852,728.14363c0,2.31348.43457,4.08301,1.30469,5.30664.87012,1.22461,2.11523,1.83691,3.73535,1.83691,1.57422,0,2.80469-.60449,3.68945-1.81445.88477-1.20898,1.32715-3.14258,1.32715-5.80176,0-2.26855-.44238-4.02637-1.32715-5.27344-.88477-1.24609-2.12988-1.87012-3.73438-1.87012-1.59082,0-2.82031.62012-3.69043,1.85938s-1.30469,3.1582-1.30469,5.75684Z"/>
    <path class="cls-7" d="M358.97656,733.35164c0-.79492-.39355-1.4209-1.18066-1.87793-.78809-.45801-2.05176-.86621-3.79102-1.22656-5.79004-1.21484-8.68457-3.6748-8.68457-7.37988,0-2.16016.89551-3.96289,2.68848-5.41113,1.79199-1.44727,4.13574-2.1709,7.03027-2.1709,3.08984,0,5.56152.72754,7.41406,2.18262s2.77832,3.34473,2.77832,5.66992h-6.50195c0-.93066-.30078-1.69922-.90039-2.30664s-1.53711-.91113-2.8125-.91113c-1.09473,0-1.94238.24707-2.54199.74219-.60059.49512-.90039,1.125-.90039,1.89062,0,.71973.3418,1.30078,1.02441,1.74316.68164.44238,1.83301.8252,3.45312,1.14746,1.62012.32324,2.98438.68652,4.09473,1.09082,3.43457,1.26074,5.15234,3.44238,5.15234,6.54785,0,2.21973-.95215,4.01562-2.85742,5.38867-1.90527,1.37207-4.36426,2.05859-7.37988,2.05859-2.04004,0-3.85059-.36426-5.43359-1.0918-1.58203-.72656-2.82324-1.72461-3.72266-2.99219-.90039-1.26758-1.35059-2.63574-1.35059-4.10547h6.16504c.05957,1.1543.4873,2.04004,1.28223,2.6543.79492.61523,1.85938.92285,3.19531.92285,1.24414,0,2.18555-.23633,2.82324-.70898s.95605-1.09082.95605-1.85645Z"/>
    <path class="cls-7" d="M377.26953,709.75008v5.98535h4.16211v4.76953h-4.16211v12.14941c0,.90039.17188,1.54492.51758,1.93457.34473.39062,1.00488.58496,1.97949.58496.71973,0,1.35742-.05176,1.91211-.15723v4.92773c-1.27441.38965-2.58691.58496-3.93652.58496-4.56055,0-6.88477-2.30273-6.97461-6.90723v-13.11719h-3.55566v-4.76953h3.55566v-5.98535h6.50195Z"/>
  </g>
  <g>
    <path class="cls-7" d="M891.41895,550.40926l8.41504,23.75879,8.37012-23.75879h8.86426v32.75879h-6.77246v-8.95508l.6748-15.45605-8.8418,24.41113h-4.63477l-8.81934-24.38867.6748,15.43359v8.95508h-6.75v-32.75879h8.81934Z"/>
    <path class="cls-7" d="M922.49023,552.52449c0-.97461.32617-1.77734.97852-2.40723.65332-.62988,1.54199-.94531,2.66699-.94531,1.10938,0,1.99414.31543,2.6543.94531s.99023,1.43262.99023,2.40723c0,.99023-.33398,1.7998-1.00098,2.42969-.66797.62988-1.54883.94531-2.64355.94531-1.0957,0-1.97656-.31543-2.64453-.94531-.66699-.62988-1.00098-1.43945-1.00098-2.42969ZM929.39746,583.16805h-6.52441v-24.34375h6.52441v24.34375Z"/>
    <path class="cls-7" d="M933.74023,570.81649c0-3.79492.85059-6.81738,2.55371-9.06738,1.70215-2.25,4.03027-3.375,6.98535-3.375,2.37012,0,4.32715.88477,5.87207,2.65527v-12.41992h6.52539v34.55859h-5.87305l-.31445-2.58691c-1.62012,2.02441-3.70508,3.03711-6.25488,3.03711-2.86523,0-5.16309-1.12891-6.89551-3.38672-1.73242-2.25684-2.59863-5.39551-2.59863-9.41504ZM940.24219,571.2784c0,2.29102.39746,4.0459,1.19238,5.2666s1.94922,1.83105,3.46484,1.83105c2.00977,0,3.42676-.85156,4.25195-2.55469v-9.65137c-.80957-1.70215-2.21191-2.55371-4.20703-2.55371-3.13477,0-4.70215,2.55469-4.70215,7.66211Z"/>
    <path class="cls-7" d="M970.84082,578.37606c1.2002,0,2.1748-.33008,2.9248-.99023s1.13965-1.53711,1.16992-2.63281h6.09766c-.01562,1.65039-.46582,3.16113-1.35059,4.53418-.88477,1.37207-2.0957,2.4375-3.63379,3.19434-1.53711.75781-3.23633,1.13672-5.0957,1.13672-3.47949,0-6.22461-1.10645-8.23438-3.31836-2.01074-2.21289-3.01465-5.26855-3.01465-9.16895v-.42773c0-3.74902.99707-6.74121,2.99219-8.97656,1.99414-2.23535,4.73242-3.35254,8.21191-3.35254,3.04492,0,5.48633.86621,7.32324,2.59863,1.83789,1.73242,2.77148,4.03809,2.80176,6.91797h-6.09766c-.03027-1.26562-.41992-2.29492-1.16992-3.08691s-1.74023-1.1875-2.96973-1.1875c-1.51562,0-2.65918.55273-3.43164,1.65625-.77246,1.10449-1.1582,2.89551-1.1582,5.37402v.67578c0,2.50977.38281,4.3125,1.14746,5.4082.76465,1.09668,1.92676,1.64551,3.4873,1.64551Z"/>
    <path class="cls-7" d="M983.7334,570.77059c0-2.41406.46387-4.56641,1.39453-6.45703.92969-1.88965,2.26855-3.35254,4.01562-4.38672,1.74805-1.03516,3.77637-1.55273,6.08691-1.55273,3.28418,0,5.96484,1.00488,8.04297,3.01465,2.07715,2.01074,3.23633,4.74023,3.47656,8.18945l.04492,1.66504c0,3.73535-1.04297,6.73145-3.12793,8.98828-2.08496,2.25781-4.88184,3.38672-8.3916,3.38672s-6.31152-1.125-8.40332-3.375c-2.09277-2.25-3.13867-5.30957-3.13867-9.17969v-.29297ZM990.23535,571.2325c0,2.31348.43457,4.08301,1.30469,5.30664.87012,1.22461,2.11523,1.83691,3.73535,1.83691,1.57422,0,2.80469-.60449,3.68945-1.81445.88477-1.20898,1.32715-3.14258,1.32715-5.80176,0-2.26855-.44238-4.02637-1.32715-5.27344-.88477-1.24609-2.12988-1.87012-3.73438-1.87012-1.59082,0-2.82031.62012-3.69043,1.85938s-1.30469,3.1582-1.30469,5.75684Z"/>
    <path class="cls-7" d="M1025.37891,580.69344c-1.60547,1.9502-3.8252,2.9248-6.66016,2.9248-2.60938,0-4.60059-.75-5.97363-2.25-1.37207-1.5-2.07324-3.69727-2.10352-6.59277v-15.95117h6.50195v15.74512c0,2.53711,1.15527,3.80664,3.46484,3.80664,2.20508,0,3.71973-.76562,4.54492-2.29785v-17.25391h6.52539v24.34375h-6.12012l-.17969-2.47461Z"/>
    <path class="cls-7" d="M1050.2627,564.92098c-.88477-.11914-1.66504-.17969-2.33984-.17969-2.45996,0-4.07227.83203-4.83691,2.49707v15.92969h-6.50293v-24.34375h6.14258l.17969,2.90234c1.30566-2.23535,3.1123-3.35254,5.42285-3.35254.71973,0,1.39453.09766,2.02441.29199l-.08984,6.25488Z"/>
    <path class="cls-7" d="M1066.57422,576.44051c0-.79492-.39355-1.4209-1.18066-1.87793-.78809-.45801-2.05176-.86621-3.79102-1.22656-5.79004-1.21484-8.68457-3.6748-8.68457-7.37988,0-2.16016.89551-3.96289,2.68848-5.41113,1.79199-1.44727,4.13574-2.1709,7.03027-2.1709,3.08984,0,5.56152.72754,7.41406,2.18262s2.77832,3.34473,2.77832,5.66992h-6.50195c0-.93066-.30078-1.69922-.90039-2.30664s-1.53711-.91113-2.8125-.91113c-1.09473,0-1.94238.24707-2.54199.74219-.60059.49512-.90039,1.125-.90039,1.89062,0,.71973.3418,1.30078,1.02441,1.74316.68164.44238,1.83301.8252,3.45312,1.14746,1.62012.32324,2.98438.68652,4.09473,1.09082,3.43457,1.26074,5.15234,3.44238,5.15234,6.54785,0,2.21973-.95215,4.01562-2.85742,5.38867-1.90527,1.37207-4.36426,2.05859-7.37988,2.05859-2.04004,0-3.85059-.36426-5.43359-1.0918-1.58203-.72656-2.82324-1.72461-3.72266-2.99219-.90039-1.26758-1.35059-2.63574-1.35059-4.10547h6.16504c.05957,1.1543.4873,2.04004,1.28223,2.6543.79492.61523,1.85938.92285,3.19531.92285,1.24414,0,2.18555-.23633,2.82324-.70898s.95605-1.09082.95605-1.85645Z"/>
    <path class="cls-7" d="M1088.28613,583.61824c-3.57031,0-6.47656-1.09473-8.71875-3.28516-2.24219-2.18945-3.36328-5.10742-3.36328-8.75195v-.62988c0-2.44531.47266-4.63086,1.41699-6.55859.94531-1.92773,2.28418-3.41211,4.0166-4.45508,1.73242-1.04199,3.70801-1.56348,5.92871-1.56348,3.3291,0,5.9502,1.0498,7.86328,3.14941,1.91211,2.10059,2.86816,5.07812,2.86816,8.93262v2.65527h-15.50195c.20996,1.58984.84375,2.86426,1.90137,3.82422s2.39648,1.44043,4.0166,1.44043c2.50391,0,4.46191-.90723,5.87207-2.72266l3.19434,3.57715c-.97461,1.37988-2.29492,2.45605-3.95996,3.22852s-3.50977,1.15918-5.53418,1.15918ZM1087.54297,563.61629c-1.29004,0-2.33594.4375-3.1377,1.31055-.80273.87402-1.31641,2.125-1.54199,3.75195h9.04492v-.52051c-.03027-1.44629-.41992-2.56445-1.16992-3.35547s-1.81543-1.18652-3.19531-1.18652Z"/>
  </g>
  <g>
    <path class="cls-9" d="M838.00391,791.50692h-11.83398l-2.25,6.75h-7.17773l12.19434-32.75879h6.25488l12.2627,32.75879h-7.17773l-2.27246-6.75ZM827.99219,786.04012h8.18945l-4.11719-12.26172-4.07227,12.26172Z"/>
    <path class="cls-9" d="M857.87109,767.92781v5.98535h4.16211v4.76953h-4.16211v12.14941c0,.90039.17188,1.54492.51758,1.93457.34473.39062,1.00488.58496,1.97949.58496.71973,0,1.35742-.05176,1.91211-.15723v4.92773c-1.27441.38965-2.58691.58496-3.93652.58496-4.56055,0-6.88477-2.30273-6.97461-6.90723v-13.11719h-3.55566v-4.76953h3.55566v-5.98535h6.50195Z"/>
    <path class="cls-9" d="M872,776.56746c1.72461-2.06934,3.89258-3.10449,6.50293-3.10449,5.2793,0,7.95703,3.06738,8.03223,9.20215v15.5918h-6.50293v-15.44727c0-1.39844-.2998-2.43164-.89941-3.10059-.60059-.66895-1.59766-1.00391-2.99219-1.00391-1.90527,0-3.28516.7373-4.14062,2.20996v17.3418h-6.50195v-34.55859h6.50195v12.86914Z"/>
    <path class="cls-9" d="M897.53711,773.91317l.20215,2.72168c1.72461-2.11426,4.05762-3.17188,6.99707-3.17188,3.13477,0,5.28809,1.2373,6.45801,3.71191,1.70996-2.47461,4.14648-3.71191,7.31152-3.71191,2.63965,0,4.60449.76855,5.89551,2.30566,1.28906,1.53809,1.93457,3.85156,1.93457,6.94141v15.54688h-6.52441v-15.56055c0-1.38281-.27051-2.39355-.81055-3.03223-.54004-.63965-1.49219-.95898-2.85742-.95898-1.9502,0-3.2998.93262-4.0498,2.7959l.02246,16.75586h-6.50195v-15.53809c0-1.41309-.27734-2.43555-.83301-3.06641-.55469-.63184-1.5-.94727-2.83398-.94727-1.8457,0-3.18066.7666-4.00488,2.2998v17.25195h-6.50293v-24.34375h6.09766Z"/>
    <path class="cls-9" d="M930.31836,785.85945c0-2.41406.46387-4.56641,1.39453-6.45703.92969-1.88965,2.26855-3.35254,4.01562-4.38672,1.74805-1.03516,3.77637-1.55273,6.08691-1.55273,3.28418,0,5.96484,1.00488,8.04297,3.01465,2.07715,2.01074,3.23633,4.74023,3.47656,8.18945l.04492,1.66504c0,3.73535-1.04297,6.73145-3.12793,8.98828-2.08496,2.25781-4.88184,3.38672-8.3916,3.38672s-6.31152-1.125-8.40332-3.375c-2.09277-2.25-3.13867-5.30957-3.13867-9.17969v-.29297ZM936.82031,786.32137c0,2.31348.43457,4.08301,1.30469,5.30664.87012,1.22461,2.11523,1.83691,3.73535,1.83691,1.57422,0,2.80469-.60449,3.68945-1.81445.88477-1.20898,1.32715-3.14258,1.32715-5.80176,0-2.26855-.44238-4.02637-1.32715-5.27344-.88477-1.24609-2.12988-1.87012-3.73438-1.87012-1.59082,0-2.82031.62012-3.69043,1.85938s-1.30469,3.1582-1.30469,5.75684Z"/>
    <path class="cls-9" d="M970.56836,791.52938c0-.79492-.39355-1.4209-1.18066-1.87793-.78809-.45801-2.05176-.86621-3.79102-1.22656-5.79004-1.21484-8.68457-3.6748-8.68457-7.37988,0-2.16016.89551-3.96289,2.68848-5.41113,1.79199-1.44727,4.13574-2.1709,7.03027-2.1709,3.08984,0,5.56152.72754,7.41406,2.18262s2.77832,3.34473,2.77832,5.66992h-6.50195c0-.93066-.30078-1.69922-.90039-2.30664s-1.53711-.91113-2.8125-.91113c-1.09473,0-1.94238.24707-2.54199.74219-.60059.49512-.90039,1.125-.90039,1.89062,0,.71973.3418,1.30078,1.02441,1.74316.68164.44238,1.83301.8252,3.45312,1.14746,1.62012.32324,2.98438.68652,4.09473,1.09082,3.43457,1.26074,5.15234,3.44238,5.15234,6.54785,0,2.21973-.95215,4.01562-2.85742,5.38867-1.90527,1.37207-4.36426,2.05859-7.37988,2.05859-2.04004,0-3.85059-.36426-5.43359-1.0918-1.58203-.72656-2.82324-1.72461-3.72266-2.99219-.90039-1.26758-1.35059-2.63574-1.35059-4.10547h6.16504c.05957,1.1543.4873,2.04004,1.28223,2.6543.79492.61523,1.85938.92285,3.19531.92285,1.24414,0,2.18555-.23633,2.82324-.70898s.95605-1.09082.95605-1.85645Z"/>
    <path class="cls-9" d="M1002.98926,786.30965c0,3.75-.85156,6.75391-2.55371,9.01074-1.70215,2.25781-4.00098,3.38672-6.89551,3.38672-2.45996,0-4.44727-.85547-5.96191-2.56543v11.47461h-6.50293v-33.70312h6.03027l.22461,2.38477c1.5752-1.88965,3.62988-2.83496,6.16504-2.83496,3,0,5.33203,1.11035,6.99707,3.33008s2.49707,5.2793,2.49707,9.17969v.33691ZM996.4873,785.81453c0-2.27246-.40137-4.02441-1.2041-5.25879-.80176-1.2334-1.96777-1.85059-3.49805-1.85059-2.04004,0-3.44238.78223-4.20703,2.34668v9.99805c.79492,1.61035,2.21191,2.41504,4.25195,2.41504,3.10449,0,4.65723-2.55078,4.65723-7.65039Z"/>
    <path class="cls-9" d="M1013.36133,776.56746c1.72461-2.06934,3.89258-3.10449,6.50293-3.10449,5.2793,0,7.95703,3.06738,8.03223,9.20215v15.5918h-6.50293v-15.44727c0-1.39844-.2998-2.43164-.89941-3.10059-.60059-.66895-1.59766-1.00391-2.99219-1.00391-1.90527,0-3.28516.7373-4.14062,2.20996v17.3418h-6.50195v-34.55859h6.50195v12.86914Z"/>
    <path class="cls-9" d="M1044.00586,798.70711c-3.57031,0-6.47656-1.09473-8.71875-3.28516-2.24219-2.18945-3.36328-5.10742-3.36328-8.75195v-.62988c0-2.44531.47266-4.63086,1.41699-6.55859.94531-1.92773,2.28418-3.41211,4.0166-4.45508,1.73242-1.04199,3.70801-1.56348,5.92871-1.56348,3.3291,0,5.9502,1.0498,7.86328,3.14941,1.91211,2.10059,2.86816,5.07812,2.86816,8.93262v2.65527h-15.50195c.20996,1.58984.84375,2.86426,1.90137,3.82422s2.39648,1.44043,4.0166,1.44043c2.50391,0,4.46191-.90723,5.87207-2.72266l3.19434,3.57715c-.97461,1.37988-2.29492,2.45605-3.95996,3.22852s-3.50977,1.15918-5.53418,1.15918ZM1043.2627,778.70516c-1.29004,0-2.33594.4375-3.1377,1.31055-.80273.87402-1.31641,2.125-1.54199,3.75195h9.04492v-.52051c-.03027-1.44629-.41992-2.56445-1.16992-3.35547s-1.81543-1.18652-3.19531-1.18652Z"/>
    <path class="cls-9" d="M1071.38672,780.00985c-.88477-.11914-1.66504-.17969-2.33984-.17969-2.45996,0-4.07227.83203-4.83691,2.49707v15.92969h-6.50293v-24.34375h6.14258l.17969,2.90234c1.30566-2.23535,3.1123-3.35254,5.42285-3.35254.71973,0,1.39453.09766,2.02441.29199l-.08984,6.25488Z"/>
    <path class="cls-9" d="M1085.71875,798.70711c-3.57031,0-6.47656-1.09473-8.71875-3.28516-2.24219-2.18945-3.36328-5.10742-3.36328-8.75195v-.62988c0-2.44531.47266-4.63086,1.41699-6.55859.94531-1.92773,2.28418-3.41211,4.0166-4.45508,1.73242-1.04199,3.70801-1.56348,5.92871-1.56348,3.3291,0,5.9502,1.0498,7.86328,3.14941,1.91211,2.10059,2.86816,5.07812,2.86816,8.93262v2.65527h-15.50195c.20996,1.58984.84375,2.86426,1.90137,3.82422s2.39648,1.44043,4.0166,1.44043c2.50391,0,4.46191-.90723,5.87207-2.72266l3.19434,3.57715c-.97461,1.37988-2.29492,2.45605-3.95996,3.22852s-3.50977,1.15918-5.53418,1.15918ZM1084.97559,778.70516c-1.29004,0-2.33594.4375-3.1377,1.31055-.80273.87402-1.31641,2.125-1.54199,3.75195h9.04492v-.52051c-.03027-1.44629-.41992-2.56445-1.16992-3.35547s-1.81543-1.18652-3.19531-1.18652Z"/>
  </g>
  <g>
    <path class="cls-9" d="M1530.31836,589.38094c0-1.27441-.4502-2.25293-1.35059-2.93652-.89941-.68164-2.51953-1.40137-4.85938-2.15918s-4.19238-1.50391-5.55762-2.23926c-3.71973-2.00977-5.58008-4.7168-5.58008-8.12207,0-1.76953.49902-3.34863,1.49707-4.73535.99707-1.3877,2.42969-2.47168,4.29688-3.25195,1.86719-.7793,3.96289-1.16992,6.28809-1.16992,2.33984,0,4.4248.4248,6.25488,1.27148,1.83008.84766,3.25098,2.04395,4.26367,3.58887s1.51855,3.2998,1.51855,5.26465h-6.74902c0-1.5-.47266-2.66602-1.41797-3.49902-.94531-.83203-2.27246-1.24805-3.98242-1.24805-1.65039,0-2.93262.34863-3.84668,1.0459-.91504.69727-1.37305,1.61621-1.37305,2.75586,0,1.06543.53613,1.95801,1.6084,2.67773s2.65137,1.39453,4.73633,2.02441c3.83984,1.15527,6.6377,2.58789,8.39258,4.29785s2.63184,3.83984,2.63184,6.38965c0,2.83496-1.07227,5.05859-3.2168,6.6709-2.14551,1.6123-5.03223,2.41895-8.66211,2.41895-2.52051,0-4.81543-.46191-6.88477-1.38379-2.07031-.92285-3.64941-2.18652-4.73633-3.79102-1.08789-1.60547-1.63086-3.46484-1.63086-5.58008h6.77148c0,3.61523,2.16016,5.42285,6.48047,5.42285,1.60449,0,2.85742-.32715,3.75684-.97949.90039-.65234,1.35059-1.56348,1.35059-2.7334Z"/>
    <path class="cls-9" d="M1563.14355,586.0284c0,3.75-.85156,6.75391-2.55371,9.01074-1.70215,2.25781-4.00098,3.38672-6.89551,3.38672-2.45996,0-4.44727-.85547-5.96191-2.56543v11.47461h-6.50293v-33.70312h6.03027l.22461,2.38477c1.5752-1.88965,3.62988-2.83496,6.16504-2.83496,3,0,5.33203,1.11035,6.99707,3.33008s2.49707,5.2793,2.49707,9.17969v.33691ZM1556.6416,585.53328c0-2.27246-.40137-4.02441-1.2041-5.25879-.80176-1.2334-1.96777-1.85059-3.49805-1.85059-2.04004,0-3.44238.78223-4.20703,2.34668v9.99805c.79492,1.61035,2.21191,2.41504,4.25195,2.41504,3.10449,0,4.65723-2.55078,4.65723-7.65039Z"/>
    <path class="cls-9" d="M1581.27832,597.97567c-.30078-.58496-.51758-1.3125-.65234-2.18262-1.5752,1.75488-3.62305,2.63281-6.14258,2.63281-2.38477,0-4.36133-.69043-5.92871-2.07031s-2.35059-3.11914-2.35059-5.21973c0-2.5791.95605-4.55957,2.86816-5.93945s4.67578-2.07715,8.29102-2.09277h2.99219v-1.39453c0-1.125-.28906-2.02539-.86621-2.7002s-1.48828-1.0127-2.7334-1.0127c-1.09473,0-1.9541.2627-2.57617.78809-.62305.52539-.93359,1.24512-.93359,2.15918h-6.50195c0-1.40918.43457-2.71387,1.30469-3.91406.86914-1.2002,2.09961-2.1416,3.68945-2.82422,1.58984-.68164,3.375-1.02344,5.35547-1.02344,2.99902,0,5.37988.75391,7.14258,2.26074,1.7627,1.50781,2.64453,3.62695,2.64453,6.35645v10.55176c.01465,2.31055.33691,4.05762.9668,5.24219v.38281h-6.56934ZM1575.90039,593.4532c.95996,0,1.8457-.21387,2.65527-.64062.80957-.42773,1.41016-1.00195,1.7998-1.72168v-4.18457h-2.42969c-3.25488,0-4.9873,1.125-5.19727,3.375l-.02246.38184c0,.81055.28516,1.47754.85449,2.00293.57031.52539,1.35059.78711,2.33984.78711Z"/>
    <path class="cls-9" d="M1602,593.18367c1.2002,0,2.1748-.33008,2.9248-.99023s1.13965-1.53711,1.16992-2.63281h6.09766c-.01562,1.65039-.46582,3.16113-1.35059,4.53418-.88477,1.37207-2.0957,2.4375-3.63379,3.19434-1.53711.75781-3.23633,1.13672-5.0957,1.13672-3.47949,0-6.22461-1.10645-8.23438-3.31836-2.01074-2.21289-3.01465-5.26855-3.01465-9.16895v-.42773c0-3.74902.99707-6.74121,2.99219-8.97656,1.99414-2.23535,4.73242-3.35254,8.21191-3.35254,3.04492,0,5.48633.86621,7.32324,2.59863,1.83789,1.73242,2.77148,4.03809,2.80176,6.91797h-6.09766c-.03027-1.26562-.41992-2.29492-1.16992-3.08691s-1.74023-1.1875-2.96973-1.1875c-1.51562,0-2.65918.55273-3.43164,1.65625-.77246,1.10449-1.1582,2.89551-1.1582,5.37402v.67578c0,2.50977.38281,4.3125,1.14746,5.4082.76465,1.09668,1.92676,1.64551,3.4873,1.64551Z"/>
    <path class="cls-9" d="M1627.10938,598.42586c-3.57031,0-6.47656-1.09473-8.71875-3.28516-2.24219-2.18945-3.36328-5.10742-3.36328-8.75195v-.62988c0-2.44531.47266-4.63086,1.41699-6.55859.94531-1.92773,2.28418-3.41211,4.0166-4.45508,1.73242-1.04199,3.70801-1.56348,5.92871-1.56348,3.3291,0,5.9502,1.0498,7.86328,3.14941,1.91211,2.10059,2.86816,5.07812,2.86816,8.93262v2.65527h-15.50195c.20996,1.58984.84375,2.86426,1.90137,3.82422s2.39648,1.44043,4.0166,1.44043c2.50391,0,4.46191-.90723,5.87207-2.72266l3.19434,3.57715c-.97461,1.37988-2.29492,2.45605-3.95996,3.22852s-3.50977,1.15918-5.53418,1.15918ZM1626.36621,578.42391c-1.29004,0-2.33594.4375-3.1377,1.31055-.80273.87402-1.31641,2.125-1.54199,3.75195h9.04492v-.52051c-.03027-1.44629-.41992-2.56445-1.16992-3.35547s-1.81543-1.18652-3.19531-1.18652Z"/>
  </g>
  <g>
    <path class="cls-7" d="M1653.43457,873.57137h-10.03516v27.29102h-6.74902v-27.29102h-9.89941v-5.46777h26.68359v5.46777Z"/>
    <path class="cls-7" d="M1668.05859,901.31258c-3.57031,0-6.47656-1.09473-8.71875-3.28516-2.24219-2.18945-3.36328-5.10742-3.36328-8.75195v-.62988c0-2.44531.47266-4.63086,1.41699-6.55859.94531-1.92773,2.28418-3.41211,4.0166-4.45508,1.73242-1.04199,3.70801-1.56348,5.92871-1.56348,3.3291,0,5.9502,1.0498,7.86328,3.14941,1.91211,2.10059,2.86816,5.07812,2.86816,8.93262v2.65527h-15.50195c.20996,1.58984.84375,2.86426,1.90137,3.82422s2.39648,1.44043,4.0166,1.44043c2.50391,0,4.46191-.90723,5.87207-2.72266l3.19434,3.57715c-.97461,1.37988-2.29492,2.45605-3.95996,3.22852s-3.50977,1.15918-5.53418,1.15918ZM1667.31543,881.31063c-1.29004,0-2.33594.4375-3.1377,1.31055-.80273.87402-1.31641,2.125-1.54199,3.75195h9.04492v-.52051c-.03027-1.44629-.41992-2.56445-1.16992-3.35547s-1.81543-1.18652-3.19531-1.18652Z"/>
    <path class="cls-7" d="M1695.44043,882.61531c-.88477-.11914-1.66504-.17969-2.33984-.17969-2.45996,0-4.07227.83203-4.83691,2.49707v15.92969h-6.50293v-24.34375h6.14258l.17969,2.90234c1.30566-2.23535,3.1123-3.35254,5.42285-3.35254.71973,0,1.39453.09766,2.02441.29199l-.08984,6.25488Z"/>
    <path class="cls-7" d="M1704.66504,876.51863l.20215,2.72168c1.72461-2.11426,4.05762-3.17188,6.99707-3.17188,3.13477,0,5.28809,1.2373,6.45801,3.71191,1.70996-2.47461,4.14648-3.71191,7.31152-3.71191,2.63965,0,4.60449.76855,5.89551,2.30566,1.28906,1.53809,1.93457,3.85156,1.93457,6.94141v15.54688h-6.52441v-15.56055c0-1.38281-.27051-2.39355-.81055-3.03223-.54004-.63965-1.49219-.95898-2.85742-.95898-1.9502,0-3.2998.93262-4.0498,2.7959l.02246,16.75586h-6.50195v-15.53809c0-1.41309-.27734-2.43555-.83301-3.06641-.55469-.63184-1.5-.94727-2.83398-.94727-1.8457,0-3.18066.7666-4.00488,2.2998v17.25195h-6.50293v-24.34375h6.09766Z"/>
    <path class="cls-7" d="M1738.41309,870.21883c0-.97461.32617-1.77734.97852-2.40723.65332-.62988,1.54199-.94531,2.66699-.94531,1.10938,0,1.99414.31543,2.6543.94531s.99023,1.43262.99023,2.40723c0,.99023-.33398,1.7998-1.00098,2.42969-.66797.62988-1.54883.94531-2.64355.94531-1.0957,0-1.97656-.31543-2.64453-.94531-.66699-.62988-1.00098-1.43945-1.00098-2.42969ZM1745.32031,900.86238h-6.52441v-24.34375h6.52441v24.34375Z"/>
    <path class="cls-7" d="M1756.66016,876.51863l.20215,2.8125c1.74023-2.1748,4.07227-3.2627,6.99707-3.2627,2.58008,0,4.5.75781,5.75977,2.27246s1.90527,3.7793,1.93555,6.79492v15.72656h-6.50293v-15.60547c0-1.38281-.2998-2.38672-.89941-3.01074-.60059-.62305-1.59766-.93555-2.99219-.93555-1.83105,0-3.20312.78223-4.11816,2.3457v17.20605h-6.50195v-24.34375h6.12012Z"/>
    <path class="cls-7" d="M1790.58887,900.86238c-.30078-.58496-.51758-1.3125-.65234-2.18262-1.5752,1.75488-3.62305,2.63281-6.14258,2.63281-2.38477,0-4.36133-.69043-5.92871-2.07031s-2.35059-3.11914-2.35059-5.21973c0-2.5791.95605-4.55957,2.86816-5.93945s4.67578-2.07715,8.29102-2.09277h2.99219v-1.39453c0-1.125-.28906-2.02539-.86621-2.7002s-1.48828-1.0127-2.7334-1.0127c-1.09473,0-1.9541.2627-2.57617.78809-.62305.52539-.93359,1.24512-.93359,2.15918h-6.50195c0-1.40918.43457-2.71387,1.30469-3.91406.86914-1.2002,2.09961-2.1416,3.68945-2.82422,1.58984-.68164,3.375-1.02344,5.35547-1.02344,2.99902,0,5.37988.75391,7.14258,2.26074,1.7627,1.50781,2.64453,3.62695,2.64453,6.35645v10.55176c.01465,2.31055.33691,4.05762.9668,5.24219v.38281h-6.56934ZM1785.21094,896.33992c.95996,0,1.8457-.21387,2.65527-.64062.80957-.42773,1.41016-1.00195,1.7998-1.72168v-4.18457h-2.42969c-3.25488,0-4.9873,1.125-5.19727,3.375l-.02246.38184c0,.81055.28516,1.47754.85449,2.00293.57031.52539,1.35059.78711,2.33984.78711Z"/>
    <path class="cls-7" d="M1808.04785,900.86238h-6.52441v-34.55859h6.52441v34.55859Z"/>
  </g>
  <g>
    <path class="cls-7" d="M450.42128,720.85399c-4.73859-4.18018-32.84384,16.30786-37.42639,21.12012-4.3909,4.61108-29.62692,35.38135-29.62692,35.38135l-39.51459,47.65308,23.66531,20.55664c24.40497-29.32983,67.7283-81.38403,69.14169-82.9978,6.00024-6.85107,19.60074-36.56152,13.76089-41.71338"/>
    <path class="cls-7" d="M361.61721,852.6576l-23.65341-20.54644-38.53258,46.62878,23.68288,20.57203s32.15146-39.02059,38.50311-46.65438Z"/>
    <polygon class="cls-7" points="293.568 885.86555 211.35399 985.78117 235.20271 1006.15172 317.25088 906.43758 293.568 885.86555"/>
    <path class="cls-7" d="M368.22526,801.10825c-.27222-1.95551-24.70236,5.74874-24.70236,5.74874l-6.88246,9.03856,12.04512,9.63375,8.05844-6.65723s11.75347-15.80831,11.48125-17.76381Z"/>
    <path class="cls-7" d="M265.69875,926.91948l-57.76443,32.02489-19.98658,22.03094,17.75592,21.11588,16.02706-14.50809s32.21862-40.96285,36.81087-47.22156c4.59225-6.25871,8.98945-11.37677,7.15717-13.44207Z"/>
    <path class="cls-7" d="M387.08121,816.62357c1.09485,1.09886-.88431,25.34704-.88431,25.34704l-7.54407,8.49416-11.77292-9.96455,4.73943-10.16003s14.36702-14.81549,15.46187-13.71662Z"/>
    <path class="cls-7" d="M282.73755,940.11363l-20.30206,62.85021-17.76987,23.85492-24.13986-13.3574,11.1503-18.52086s33.99198-39.50366,39.24924-45.21517c5.25726-5.71151,9.43279-11.01198,11.81226-9.6117Z"/>
    <line class="cls-7" x1="251.37301" y1="961.99862" x2="223.58617" y2="995.76828"/>
    <path class="cls-7" d="M328.58565,885.05809l-15.70213-13.63958-25.57954,30.95414,15.72169,13.65658s21.34349-25.9035,25.55997-30.97113Z"/>
    <path class="cls-7" d="M375.7646,828.73207l-15.70213-13.63958-25.57954,30.95414,15.72169,13.65658s21.34349-25.9035,25.55997-30.97113Z"/>
    <path class="cls-7" d="M321.61954,862.19945c-.22125-1.58937-20.07724,4.67238-20.07724,4.67238l-5.59383,7.34624,9.78987,7.82999,6.54963-5.41077s9.55283-12.84846,9.33158-14.43783Z"/>
    <path class="cls-7" d="M336.94502,874.80978c.88986.89312-.71874,20.60122-.71874,20.60122l-6.13157,6.90377-9.56863-8.09885,3.85205-8.25773s11.67703-12.04153,12.56689-11.14841Z"/>
  </g>
  <g>
    <path class="cls-12" d="M229.03652,1004.00767s-6.66235,13.70449-11.69779,14.74203c-5.03229,1.03365-8.68133,4.30171-12.93338,5.38922-4.25212,1.08735-8.73746-5.45928-8.73746-5.45928,0,0,6.24612-10.35102,7.92742-14.69848,1.68514-4.34413,14.96499-13.01382,14.96499-13.01382l10.67224,9.21655s-2.98398,8.24873-.19602,3.82377"/>
    <path class="cls-6" d="M201.84126,1019.95068c3.52638-4.554,7.58905-7.83814,12.39653-9.64583-1.55956,1.46621-2.82369,3.10761-3.7171,4.97578-.27579.58176-.486,1.18017-.72181,1.76981.02616.01588.05186.02475.08141.03694.07848-.05225.16064-.10121.23482-.16379,2.5481-2.13245,5.2345-3.79209,8.04478-5.03147,1.53857-.67773,3.054-1.47543,4.50104-2.57225,2.16324-1.62485,3.80053-3.69057,5.07768-6.03395.54216-.99833,1.01817-2.02041,1.52706-3.03415.00385.00332.01963.02367.02556.05544.44864,2.66059.72027,5.39493.42579,8.36032-.23642,2.38887-.85825,4.79153-2.19041,7.21415-1.12054,2.0386-2.61126,3.81093-4.30067,5.45835-2.34732,2.2858-4.95321,3.92171-7.60912,5.46101-1.90462,1.1016-3.83026,2.15828-5.65108,3.52561-.96304.72152-1.87456,1.56076-2.80773,2.34805-.07738.06652-.15104.13626-.27898.24578.98045-2.87964,2.78293-5.37598,4.82073-7.88239-.16533.03715-.24741.03961-.3274.07052-4.28897,1.56227-8.55372,3.40534-12.72392,6.00342-2.09021,1.30119-4.09587,2.7822-5.96295,4.54278-1.21414,1.15127-2.31002,2.40468-3.30276,3.74715-.0357.04912-.06814.09444-.15994.20852-.12579-.44867-.25463-.83985-.34231-1.25561-.58053-2.80114-.34702-5.86577.42833-9.10247.95662-3.98674,2.69532-7.89139,4.89629-11.73675.10467-.18292.1989-.36152.3471-.63348-.35335.10811-.63814.17546-.91594.28891-1.15695.4674-2.19084,1.24764-3.13123,2.22867-1.42241,1.48477-2.00448,2.32861-3.18662,4.45408.01022-.25116.01384-.49469.03118-.74632.26325-3.09906,1.01921-6.25913,2.10085-9.46465.99102-2.93052,2.28268-5.80799,4.01683-8.60329,2.28074-3.6831,5.09867-6.82243,8.63936-9.22418,2.84172-1.93207,5.74908-3.11426,8.69197-3.81253,2.71385-.6493,5.31717-.85425,7.86004-.81135.04646.00015.09017.01125.18751.02197-5.2562,3.1534-9.35746,7.52411-12.50254,12.88719-3.14227,5.35228-4.74071,10.63791-4.50234,15.85001"/>
  </g>
  <line class="cls-3" x1="412.25105" y1="742.49848" x2="436.78656" y2="763.08575"/>
  <g>
    <path class="cls-6" d="M1569.2375,1048.51272s-4.49718-11.76562,1.04761-18.6443c5.54485-6.87008,6.81339-15.19212,11.26456-21.28101,4.45142-6.08875,17.55436-2.30731,17.55436-2.30731,0,0,3.6817,29.69615,5.37225,37.52608,2.29293,10.61991-8.44765,20.39504-8.44765,20.39504,0,0-5.3924,4.46519-9.29242,4.46519-4.70161,0-8.70733-4.06409-8.70733-4.06409,0,0-8.6707-9.21079-8.91206-14.40006"/>
    <path class="cls-12" d="M1589.52724,1011.34037c.29938,9.89356-1.50019,18.68894-5.90103,26.33995.46625-3.6489.3492-7.20731-.50733-10.66139-.26995-1.07297-.64506-2.09637-.97666-3.1361-.05205.00753-.09583.02385-.14834.03996-.047.15506-.10246.30979-.13247.47384-1.04931,5.61278-2.79872,10.74961-5.17167,15.46441-1.30002,2.58019-2.43826,5.29421-3.15893,8.33022-1.09355,4.51898-1.28532,14.20997,11.64517,18.39109,0,0,4.59998.80935,5.03282,2.70998-.00873-.0002-3.27063.68797-7.03931-.31644-8.12337-2.165-15.43449-7.95388-18.2844-12.20873-2.29692-3.42674-4.09773-7.29296-4.97824-11.96185-.74153-3.92833-.70113-7.908-.26069-11.93914.61542-5.59677,2.28399-10.61413,4.12447-15.55804,1.32233-3.54237,2.72163-7.04816,3.64243-10.8514.48884-2.00934.7807-4.11852,1.15806-6.18245.02994-.17279.05142-.34578.10144-.63085,1.8464,4.89071,2.18367,10.17134,2.21984,15.72248.17868-.22995.28485-.3229.35717-.4513,3.98131-6.75892,7.62368-13.8638,10.31557-21.86674,1.35038-4.0099,2.39211-8.16591,2.94454-12.54128.35227-2.85373.43605-5.71368.28573-8.57906-.00632-.10416-.01284-.19972-.01574-.45134.65712.45762,1.25549.83566,1.82611,1.29127,3.83097,3.0808,6.87019,7.40065,9.3788,12.5408,3.08782,6.33304,5.04863,13.41183,6.33155,20.91714.06106.35699.13126.69685.23188,1.2195.35051-.52953.65463-.93005.89912-1.3841,1.02372-1.88419,1.54236-4.04886,1.71758-6.37763.26405-3.52364.11393-5.2789-.64083-9.38975.26091.34428.52222.67124.77421,1.02392,3.03741,4.39801,5.488,9.41534,7.5563,14.84885,1.88797,4.96975,3.31924,10.19767,4.07383,15.80014.99979,7.37727.6929,14.62036-1.37861,21.67499-1.65771,5.66788-4.22192,10.41292-7.36208,14.55494-2.88989,3.82679-9.6165,9.39264-17.97873,11.09606-.07823.01594-4.87904-2.77833-5.03282-2.70998,11.14964-4.9554,17.3894-18.74989,15.70016-29.29987-1.68117-10.53259-5.33712-19.28972-11.3489-25.94212"/>
  </g>
</svg>