<?xml version="1.0" encoding="UTF-8"?>
<svg id="Ebene_2" data-name="Ebene 2" xmlns="http://www.w3.org/2000/svg" viewBox="0 0 1920 1280">
  <defs>
    <style>
      .cls-1 {
        fill: #d4dde0;
        stroke: #d4dde0;
        stroke-width: 18.16179px;
      }

      .cls-1, .cls-2, .cls-3, .cls-4 {
        stroke-miterlimit: 10;
      }

      .cls-2 {
        stroke: #fff;
        stroke-width: 18.16175px;
      }

      .cls-2, .cls-3 {
        fill: none;
      }

      .cls-3 {
        stroke-width: 19.31612px;
      }

      .cls-3, .cls-4 {
        stroke: #0d435c;
      }

      .cls-5 {
        fill: #90172f;
      }

      .cls-6 {
        fill: #0d435c;
      }

      .cls-7, .cls-4 {
        fill: #fff;
      }

      .cls-8 {
        fill: #f3f5f7;
      }

      .cls-4 {
        stroke-width: 18.80875px;
      }

      .cls-9 {
        fill: #bbcf12;
      }

      .cls-10 {
        fill: #7996a5;
      }

      .cls-11 {
        fill: #fac102;
      }
    </style>
  </defs>
  <rect class="cls-8" x="-10.2874" y="-9.50232" width="1936.54389" height="1291.88836"/>
  <circle class="cls-1" cx="1002.32462" cy="645.06675" r="360.17699"/>
  <line class="cls-2" x1="739.62047" y1="383.81894" x2="1268.1995" y2="909.46772"/>
  <line class="cls-2" x1="1266.16119" y1="379.75942" x2="737.92365" y2="910.94164"/>
  <path class="cls-4" d="M893.51993,301.74689c1.01152,26.27489,4.75183,47.55136,6.89666,65.02943l.39451,3.1582c9.20059,75.35665,76.55872,175.45864,98.07856,205.8254,19.57846-30.38915,79.51765-127.91528,89.09664-197.27187,3.24435-23.50512,7.4216-55.2143,7.40844-81.42653-36.96153-11.55293-73.51615-14.6338-105.26866-12.44897-45.75067,3.14801-82.5861,11.66246-96.60615,17.13435Z"/>
  <path class="cls-4" d="M892.25521,989.36563c.86543-26.28011,4.4874-47.57704,6.53503-65.06676l.37694-3.16034c8.78151-75.40663,75.5821-175.88155,96.93279-206.36747,19.7471,30.27984,80.22755,127.47123,90.19197,196.7735,3.37497,23.48672,7.72844,55.17218,7.86101,81.38408-36.89673,11.75823-73.43366,15.04227-105.19782,13.034-45.76746-2.89362-82.64966-11.20316-96.69992-16.59702Z"/>
  <path class="cls-4" d="M658.49646,752.58653c26.27489-1.01151,48.61086-4.95715,66.08893-7.10197l3.1582-.3945c75.35666-9.20054,175.45869-76.55861,205.82546-98.07844-30.38914-19.57848-127.91523-79.51773-197.27182-89.09676-23.50512-3.24436-55.21429-7.42164-81.42652-7.40849-11.55295,36.96152-18.71894,74.64074-16.53413,106.39324,3.14798,45.75067,10.17545,67.55281,20.15988,95.68692Z"/>
  <path class="cls-4" d="M1348.21796,544.80392c-26.27489,1.0115-52.19094,3.71569-69.66901,5.8605l-3.1582.3945c-75.35666,9.20052-175.45871,76.55855-205.82549,98.07837,30.38913,19.57849,127.9152,79.51777,197.27179,89.09683,23.50512,3.24437,55.21429,7.42165,81.42652,7.40852,11.55297-36.96152,18.71896-74.64073,16.53416-106.39324-3.14797-45.75067-6.93-64.42801-16.57978-94.44548Z"/>
  <g>
    <path class="cls-11" d="M1237.92686,634.41326c6.74841-3.95974,15.25194-1.74521,19.21168,5.0032,3.95974,6.74841,1.74521,15.25194-5.0032,19.21168-6.74841,3.95974-15.25194,1.74521-19.21168-5.0032-3.84328-6.54993-1.74521-15.25194,5.0032-19.21168Z"/>
    <path class="cls-11" d="M1282.44904,710.29045c-9.67056,5.67436-22.01321,2.46002-27.68757-7.21053-4.68751-7.98872-3.29228-18.13354,3.37601-24.58977l.42046-.24671-.24671-.42046-8.75825-14.9263c1.50809-.31967,2.76947-1.05981,4.03084-1.79994,1.26138-.74013,2.3994-1.6905,3.53742-2.64086l8.75825,14.9263.24671.42046.42046-.24671c8.88869-2.67209,18.4254,1.05824,23.11291,9.04696,5.551,9.46033,2.46002,22.01321-7.21053,27.68757"/>
    <path class="cls-11" d="M1228.58825,650.61098l-17.47503.07979-.54381.03648-.08687.33359c-1.38998,5.33736-4.6946,9.8199-9.52988,12.65708-2.94321,1.72698-6.59008,2.73639-9.97632,2.74506-5.35127.03123-10.51489-2.02592-14.36673-5.70061-3.85185-3.67469-6.05834-8.88003-6.08957-14.2313-.0538-7.3163,3.77206-13.80035,10.07895-17.50102,2.94321-1.72698,6.59008-2.73639,9.97632-2.74506,9.28133-.07637,17.45587,6.14889,19.70751,15.28429l.03648.54381.54381-.03648,17.68526-.20314c-.78187,3.00227-.80969,5.8447.03989,8.73752"/>
    <path class="cls-11" d="M1257.09259,634.1682c-2.11096-2.15269-4.72924-3.72508-7.60816-4.29671l8.89053-15.67325.2971-.45694-.45694-.2971c-6.66645-6.54494-8.20052-16.38399-3.73006-24.65932,1.86949-3.07523,4.31929-5.64313,7.2625-7.37011,6.30689-3.70067,13.95677-3.6676,20.19411-.26219,4.65628,2.63745,8.00079,6.89243,9.45324,12.25761,1.32909,5.15495.81651,10.54271-2.03117,15.32235-1.86949,3.07523-4.31929,5.64313-7.2625,7.37011-4.62505,2.71382-10.3603,3.53558-15.69766,2.1456l-.33359-.08687-.2971.45694-8.6803,15.5499"/>
    <g>
      <path class="cls-11" d="M1250.72638,669.55604c-10.30991,2.65818-21.21743-1.96346-26.64508-11.21356-.98684-1.68184-1.6401-3.2768-2.20649-5.20535l7.64989.03307c.37007.63069.61678,1.05115.98684,1.68184,3.45396,5.88643,9.90152,9.16847,16.7244,8.27375l3.70067,6.30689"/>
      <path class="cls-11" d="M1262.49924,662.64813l-3.82402-6.51712c3.89883-5.39642,4.38884-12.7492.93488-18.63563-.24671-.42046-.49342-.84092-.86349-1.47161l3.82586-6.48404c1.28395,1.2249,2.48102,2.78338,3.34451,4.25498,5.21742,9.37345,3.93163,21.14972-3.41774,28.85341"/>
      <path class="cls-11" d="M1246.93911,629.38672c-3.63295-.4118-7.40318.38739-10.55662,2.23772-3.15344,1.85033-5.47988,4.62846-7.01579,7.79056l-7.52653.17716c1.77396-6.12789,5.70927-10.98049,10.96501-14.06438,5.46597-3.20725,11.74503-4.06549,17.74956-2.50176l-3.61563,6.36069"/>
    </g>
  </g>
  <g>
    <path class="cls-9" d="M929.98117,341.86204l6.6751,3.67359.88175-1.02254c8.43151-9.75301,22.75661-12.31151,34.06525-6.08153,4.23174,2.32959,7.77679,5.73175,10.25921,9.83883,4.8053,7.95021,5.1967,17.80972,1.21564,26.12548l5.19926,2.81278c.65977-.88495,1.4892-1.6658,2.49199-2.27192,3.74098-2.26114,8.47439-1.38418,11.21698,1.84179l4.6535-2.81269c-6.90309-12.80782-2.62788-28.96117,9.95831-36.56858,10.91606-6.59794,25.24389-4.71194,34.06468,4.48484l.92308.96207,6.53358-3.94906-1.29476-1.49742c-12.5134-14.42542-33.47012-17.7187-49.8317-7.82935-5.21598,3.15267-9.61517,7.47398-12.85054,12.59477-3.42572-4.92883-7.96672-9.027-13.25525-11.94181-16.90102-9.3084-37.79838-5.06316-49.69348,10.0966l-1.21261,1.54417Z"/>
    <g>
      <path class="cls-9" d="M1045.0565,384.48055c-12.67,7.65807-29.09294,3.83728-37.16904-8.42236l-4.60784,2.7851c1.81914,4.00244.43719,8.80881-3.41678,11.13825-1.07117.64744-2.22547,1.02974-3.39162,1.18381l.08067,5.78704c9.27627.28676,17.89693,5.23094,22.7321,13.23055,2.48242,4.10707,3.84676,8.82732,3.94098,13.65488.25916,12.90856-8.66384,24.40463-21.21969,27.33406l-1.31396.30745.14965,7.61773,1.93087-.35583c18.95046-3.48692,32.42533-20.01711,32.03808-39.30684-.12112-6.03527-1.63999-11.96294-4.41149-17.2872,6.03912-.48209,11.90885-2.37043,17.12483-5.5231,16.51189-9.9802,23.28611-30.2027,16.10427-48.08405l-.72929-1.81928-6.52128,3.94162.44302,1.275c4.23468,12.17653-.71397,25.86457-11.76345,32.54316Z"/>
      <path class="cls-9" d="M1020.89281,366.94499c3.70346,6.12725,4.95303,13.04573,4.055,19.62755,3.68043.84905,7.53868.87759,11.31243.07452.87027-8.60993-.89488-17.55827-5.71644-25.53537-4.81992-7.97439-11.91914-13.69612-19.94385-16.92856-2.45673,2.96791-4.21642,6.40147-5.17551,10.05761,6.23454,2.26702,11.76982,6.58514,15.46837,12.70426Z"/>
    </g>
    <g>
      <path class="cls-9" d="M990.21417,451.33913c-7.49742-1.52561-14.07605-6.17407-18.05043-12.74955-2.4799-4.1029-3.84424-8.82315-3.94263-13.64819-.14752-7.34577,2.5774-14.30994,7.66609-19.60875,4.84383-5.04037,11.28547-7.97033,18.227-8.37222l-.08144-5.84577c-2.50075-.37227-4.82962-1.77551-6.24006-4.10903-1.45266-2.40337-1.58306-5.21256-.66066-7.64987l-5.17664-2.80084c-7.53533,12.69283-23.87612,17.23707-36.89763,10.06354-4.22631-2.33002-7.7701-5.73011-10.25-9.83301-3.97565-6.57757-5.03203-14.56097-2.89764-21.90829l.37247-1.28116-6.69018-3.6844-.64545,1.87028c-3.80512,11.0072-2.51641,23.05722,3.5296,33.06013,3.53587,5.84997,8.58563,10.69098,14.60345,14.00753,5.24961,2.89279,11.09573,4.53979,17.05355,4.81844-2.5215,5.40662-3.78334,11.34415-3.6611,17.3389.13908,6.86982,2.07915,13.59324,5.61376,19.44113,6.04727,10.00499,16.11593,16.74534,27.6304,18.493l1.95597.29792-.15096-7.63402-1.30747-.26577Z"/>
      <g>
        <path class="cls-9" d="M954.14663,388.47131c3.83089.62803,7.70257.40423,11.35539-.63517-2.13395-11.91743,3.0598-24.44882,14.04132-31.08632,1.26902-.76703,2.58045-1.39232,3.90759-1.95253-.62338-2.04156-1.49815-4.02283-2.63036-5.89603-.86229-1.42663-1.90035-2.72682-3.01446-3.95884-1.38723.64121-2.75751,1.34762-4.09595,2.15661-14.67663,8.87092-21.87452,25.40488-19.56354,41.37227Z"/>
        <path class="cls-9" d="M976.66592,406.29088c-2.68649,2.82983-4.64883,6.15417-5.85202,9.74977,13.0625,9.46321,31.04375,10.77371,45.71746,1.90455,1.33866-.80912,2.60107-1.69398,3.81383-2.62426-.57287-1.55859-1.24158-3.08173-2.104-4.50858-1.13322-1.87487-2.48222-3.56893-3.99858-5.06989-1.1125.91437-2.27595,1.78496-3.54456,2.55174-10.97422,6.63309-24.47336,5.41269-34.03214-2.00333Z"/>
      </g>
    </g>
  </g>
  <g>
    <path class="cls-5" d="M991.87622,910.22183c7.89467.32418,14.58217-5.83429,14.90632-13.72803.3242-7.89497-5.83583-14.58193-13.7305-14.90611-7.89497-.3242-14.58007,5.8353-14.90426,13.73027-.32415,7.89375,5.83347,14.57968,13.72844,14.90388Z"/>
    <path class="cls-5" d="M1000.36079,913.48839l20.93563,39.95822,1.03249-.54301c20.30368-10.66042,33.49931-31.48887,34.43837-54.35725l.0478-1.16395-45.07874-1.85109c.00779.39377.08632.77017.06995,1.16878-.3104,7.55891-4.97792,13.86913-11.44549,16.7883Z"/>
    <path class="cls-5" d="M973.12404,895.11165c.01636-.39831.12547-.7667.1655-1.15819l-45.07782-1.85106-.04781,1.16425c-.93904,22.86807,10.50507,44.70831,29.8685,56.99792l.98328.62548,24.14093-38.1063c-6.2074-3.43904-10.34302-10.11197-10.03257-17.67211Z"/>
    <path class="cls-5" d="M1003.7784,880.22522l24.10668-38.05764-.98582-.62344c-9.69399-6.12626-20.69994-9.44384-31.82152-9.90053-11.11208-.4563-22.33969,1.94583-32.47687,7.2556l-1.03148.54091,20.90973,39.90832c3.14088-1.90092,6.84462-2.94607,10.77922-2.7845,3.93675.16166,7.54476,1.50767,10.52007,3.66128Z"/>
  </g>
  <g>
    <rect class="cls-10" x="781.38814" y="613.11432" width="25.41769" height="38.64473" transform="translate(1183.55301 -305.05474) rotate(74.02455)"/>
    <path class="cls-10" d="M709.81454,613.62492l16.01703,20.12452,6.10136-9.58051-17.65038-19.9124,18.62011-14.68908-4.88806-3.33199c-17.87565,1.90386-33.57217,11.80178-43.17856,26.24167l24.9785,1.14778Z"/>
    <path class="cls-10" d="M730.51931,702.83458l-5.81758-37.90441,19.90615,10.08169-6.52899-21.34483-23.16545-2.46422,8.36349-13.13292-15.78239-19.8295-25.34488-1.1641c-4.33681,7.5577-7.08236,16.18315-7.71314,25.46778-2.22512,32.75533,22.52453,61.11264,55.28042,63.33803.08455.00576.16743-.0013.25217.00454l.5502-3.05206Z"/>
    <g>
      <path class="cls-10" d="M745.84733,651.39165l16.19284-19.61073,20.95686,41.01899,4.40016,11.66778c6.06648-8.59701,9.94205-18.90191,10.70769-30.17012,2.21655-32.63103-22.3432-60.88128-54.91443-63.29463l4.66086,3.17688-20.10728,15.85903,16.393,18.489-13.52478,21.24341,15.23508,1.62039Z"/>
      <path class="cls-10" d="M773.53455,676.67556l-13.51005-26.39607-9.15985,11.09329,9.02784,29.49807-22.15031-11.22158,4.13907,26.96324-.54602,3.03051c14.77919-.61505,28.30024-6.69825,38.45885-16.36888l-6.25952-16.59859Z"/>
    </g>
    <path class="cls-10" d="M785.78261,630.78508s14.1636-2.39685,31.83504-3.09788c17.67145-.70103,21.542,10.41415,21.542,10.41415"/>
  </g>
  <g>
    <path class="cls-7" d="M383.47192,803.6525s26.66223,8.9609,37.70351,2.8187c11.04129-6.14221,66.39813-62.66543,66.39813-62.66543l-137.06596-40.65632-51.38745,65.20849,84.35176,35.29457Z"/>
    <path class="cls-7" d="M386.0409,500.71509s27.21159-7.1205,37.80797-.23912c10.59639,6.88138,61.96686,67.05055,61.96686,67.05055l-139.52093,31.20775-46.81763-68.5633,86.56372-29.45587Z"/>
    <polygon class="cls-7" points="313.27215 698.56791 334.77066 691.51916 334.55119 612.52823 312.83715 604.80972 313.27215 698.56791"/>
    <g>
      <path class="cls-7" d="M342.36208,598.44862l.00316,1.13881.28186,101.44562.00074.26748c15.22356,3.69846,81.81109,19.85694,118.31354,28.36264.10108.01924.22168.04243.32161.06167,61.75063,11.89333,110.13284,16.77107,149.03973,18.02908-6.58393-30.28143-12.18425-68.39666-12.28152-103.40692-.08757-31.51865,7.04323-60.53692,12.89903-93.30963-51.51894,2.41561-94.13849,8.17127-116.48717,11.26868l-13.75327,2.80604c-14.83068,4.2492-118.25168,28.60837-138.33772,33.33653Z"/>
      <path class="cls-6" d="M207.50734,651.65647c.0158,5.63827,4.61139,10.20887,10.25061,10.19284l79.63822-.2207.1021,22.36209-55.84628.15562c-5.64817.01556-10.2275,4.62012-10.2117,10.26782l.00589,2.05753c.01556,5.64817,4.62012,10.23622,10.26853,10.22066l55.88636-.15468.06319,13.65569,37.06331-12.17228.09641,2.8448h0l-51.85243,66.13509,10.70003,3.46002c3.74132,1.22046,91.94046,29.73957,104.77205,33.44151,16.42484,4.72104,36.03358-8.08108,43.70509-13.81461,5.80875-4.34518,49.96844-47.44853,56.83354-54.1573,40.05408,6.40931,76.66935,10.10937,111.03706,11.22137l12.0556.39236-2.56165-11.78963c-4.45931-20.50452-11.95374-60.95142-12.0688-101.43228-.06602-24.13384,4.35367-47.24905,9.0318-71.72243,1.24498-6.51165,2.51072-13.12893,3.72175-19.90843l2.07309-11.59722-11.77076.55081c-53.61733,2.51261-98.27078,8.6998-117.3379,11.34445l-1.70808.34614c-.88304-.92808-1.98207-2.08346-3.38598-3.55622h-.00047c-11.99123-12.5767-40.70368-42.5049-46.7454-46.97506-7.70287-5.69109-27.38235-18.3838-43.78125-13.57127-12.81014,3.77268-100.85011,32.78176-104.58459,34.02297l-10.67999,3.51991,50.89982,64.17659-.21882,4.34849-35.92417-12.76486.07333,15.85186-55.61002.15374c-5.69415.01603-10.31003,4.65832-10.29423,10.3428l.00684,2.36075c.0158,5.68449,4.65737,10.30036,10.35153,10.28433l55.65034-.15468.08206,17.82591-79.5979.22117c-5.63921.01556-10.20934,4.61116-10.19331,10.25037l.00519,1.98396ZM432.74579,787.51352c-8.88089,6.63709-22.0591,13.57127-29.95461,11.29635-9.97261-2.86441-69.02284-21.89475-93.58487-29.82587l43.42614-55.58479c28.44695,6.89552,76.91151,18.60026,106.19293,25.42504l.67908.13582c6.71985,1.2945,13.33147,2.51072,19.86269,3.66705-6.39446,6.12589-43.20025,42.33042-46.62137,44.88641ZM599.52938,561.05555c-.50931,2.68992-1.02051,5.36098-1.52605,8.01317-4.85355,25.38637-9.43736,49.36175-9.36568,75.30647.09809,35.36511,5.56093,70.52649,10.04665,93.49079-41.05619-2.02593-85.56628-7.73399-135.6222-17.37697l-.166-.03018c-31.02652-7.23223-83.52526-19.9273-110.86398-26.5559l-.24522-88.01286c46.31154-10.91814,117.75101-27.86124,131.14025-31.63392l13.11195-2.6786c17.52976-2.42961,56.30537-7.77927,103.49028-10.52201ZM481.89084,550.71369c.15421-.02452.35746-.05659.62296-.09809-.26574.0415-.46899.07357-.62296.09809ZM401.97321,504.3003c7.88254-2.31737,21.09919,4.54278,30.01662,11.13035,3.25299,2.4098,28.0454,24.90676,44.19836,41.17032-12.37864,3.3275-56.63949,13.98721-126.13556,30.37479l-7.91532-9.98251c-.59396.11412-.92407.17826-1.11294.21457.18887-.03631.51851-.10045,1.11294-.21457l-33.58204-42.34645c24.51723-8.06788,83.46136-27.42597,93.41793-30.3465ZM333.00249,611.97778l.21481,80.05062-19.94498,6.53947-.43504-93.75771,20.16521,7.16762Z"/>
    </g>
  </g>
  <g>
    <path class="cls-3" d="M1085.01895,1102.24144c-68.60319,15.58174-142.22129,13.07269-213.7668-11.04138"/>
    <polyline class="cls-3" points="906.40978 1165.58409 871.8656 1090.89588 946.83936 1054.92681"/>
  </g>
  <g>
    <path class="cls-3" d="M854.59117,185.27647c67.10796-21.11185,140.68612-24.60093,213.95642-6.38798"/>
    <polyline class="cls-3" points="1027.4544 107.61162 1067.96092 179.24157 996.1623 221.19149"/>
  </g>
  <g>
    <path class="cls-3" d="M1458.25579,546.44616c14.66891,68.80416,11.18199,142.38242-13.8805,213.60124"/>
    <polyline class="cls-3" points="1519.21986 725.88113 1444.0793 759.42996 1409.1095 683.98494"/>
  </g>
</svg>