<?xml version="1.0" encoding="UTF-8"?>
<svg id="Ebene_2" xmlns="http://www.w3.org/2000/svg" version="1.1" viewBox="0 0 1920 1280">
  <!-- Generator: Adobe Illustrator 29.0.1, SVG Export Plug-In . SVG Version: 2.1.0 Build 192)  -->
  <defs>
    <style>
      .st0 {
        fill: #0d435c;
      }

      .st1 {
        fill: #fff;
      }

      .st2 {
        fill: #f3f5f7;
      }

      .st3 {
        fill: #7996a5;
      }

      .st4 {
        fill: #fac102;
      }
    </style>
  </defs>
  <rect class="st2" x="-4" y="-3.5" width="1928" height="1288"/>
  <polygon class="st1" points="321.9 383.8 1577.5 383.8 953.8 147.7 321.9 383.8"/>
  <rect class="st1" x="847.7" y="480.8" width="163.9" height="515.7"/>
  <rect class="st1" x="471" y="480.8" width="163.9" height="515.7"/>
  <rect class="st1" x="1246.5" y="480.8" width="163.9" height="515.7"/>
  <path class="st3" d="M1652.4,398.6H244L953.8,139.8l2.8,1,695.9,257.8h0ZM335,382.6h1227.8l-609.1-225.6-618.8,225.6h0Z"/>
  <path class="st4" d="M646.3,1009.4h-189.6V468h189.6v541.4ZM469.5,996.6h163.9V480.8h-163.9v515.7h0Z"/>
  <path class="st4" d="M1024.5,1009.4h-189.6V468h189.6v541.4ZM847.7,996.6h163.9V480.8h-163.9v515.7h0Z"/>
  <path class="st4" d="M1423.8,1009.4h-189.6V468h189.6v541.4ZM1247.1,996.6h163.9V480.8h-163.9v515.7Z"/>
  <polygon class="st3" points="1532 1087 1516 1087 1516 1042.4 334.7 1042.4 334.7 1087 318.7 1087 318.7 1026.3 1532 1026.3 1532 1087"/>
  <rect class="st3" x="326.7" y="423.8" width="1197.3" height="16.1"/>
  <polygon class="st3" points="1592.9 1183 1576.8 1183 1576.8 1138.4 274.8 1138.4 274.8 1183 258.7 1183 258.7 1122.3 1592.9 1122.3 1592.9 1183"/>
  <g>
    <path class="st0" d="M629.9,316.2h-11.9v32.4h-9.6v-32.4h-11.7v-7.4h33.3v7.4Z"/>
    <path class="st0" d="M642.5,322.2c2-2.5,4.5-3.7,7.5-3.7s5.7,1,7.4,2.9c1.7,1.9,2.5,4.8,2.5,8.6v18.7h-9.2v-18.5c0-1.6-.3-2.7-1-3.5-.6-.7-1.7-1.1-3.3-1.1s-3.2.6-4,1.8v21.2h-9.2v-42h9.2v15.6Z"/>
    <path class="st0" d="M679.5,349.1c-4.5,0-8.2-1.4-11-4.1-2.8-2.7-4.2-6.2-4.2-10.6v-.8c0-3,.6-5.7,1.7-8,1.1-2.3,2.8-4.1,4.9-5.4,2.2-1.3,4.7-1.9,7.7-1.9s7.4,1.3,9.8,3.9c2.4,2.6,3.6,6.2,3.6,10.8v3.6h-18.3c.3,1.7,1,3,2.2,3.9,1.1.9,2.6,1.4,4.3,1.4,2.9,0,5.2-1,6.8-3.1l4.2,5c-1.1,1.6-2.8,2.8-4.9,3.8s-4.4,1.4-6.8,1.4ZM678.4,325.6c-2.7,0-4.3,1.8-4.8,5.4h9.3v-.7c0-1.5-.3-2.6-1.1-3.4-.8-.8-1.9-1.2-3.4-1.2Z"/>
    <path class="st0" d="M743.2,348.6h-9.5l-14.1-24.8v24.8h-9.6v-39.8h9.6l14.1,24.8v-24.8h9.6v39.8Z"/>
    <path class="st0" d="M747.7,333.5c0-3,.6-5.6,1.7-7.9,1.1-2.3,2.8-4.1,4.9-5.3,2.2-1.2,4.7-1.9,7.6-1.9,4.4,0,7.9,1.4,10.5,4.1,2.6,2.7,3.8,6.5,3.8,11.2v.3c0,4.6-1.3,8.3-3.8,11-2.6,2.7-6,4.1-10.4,4.1s-7.6-1.3-10.1-3.8c-2.6-2.5-3.9-5.9-4.1-10.3v-1.6ZM756.9,334.1c0,2.7.4,4.7,1.3,6,.9,1.3,2.1,1.9,3.8,1.9,3.3,0,5-2.5,5-7.6v-.9c0-5.3-1.7-8-5.1-8s-4.7,2.3-5,6.9v1.7Z"/>
    <path class="st0" d="M788.8,319l.3,3.5c2-2.7,4.9-4,8.4-4s5.4.9,6.9,2.8c1.5,1.8,2.3,4.6,2.4,8.3v19.1h-9.2v-18.7c0-1.5-.3-2.6-.9-3.3-.6-.7-1.7-1.1-3.3-1.1s-3.1.7-4,2.1v20.9h-9.2v-29.6h8.6Z"/>
    <path class="st0" d="M829.9,335h-16.4v-7.1h16.4v7.1Z"/>
    <path class="st0" d="M847.1,335.1v13.5h-9.6v-39.8h15.9c3,0,5.7.6,8.1,1.7,2.3,1.1,4.2,2.7,5.4,4.8,1.3,2.1,1.9,4.4,1.9,7,0,3.9-1.4,7-4.2,9.3-2.8,2.3-6.6,3.5-11.4,3.5h-6.1ZM847.1,327.7h6.3c1.9,0,3.3-.5,4.3-1.4,1-.9,1.5-2.2,1.5-3.9s-.5-3.3-1.5-4.5c-1-1.1-2.4-1.7-4.1-1.7h-6.4v11.5Z"/>
    <path class="st0" d="M891.5,327.4l-3-.2c-2.9,0-4.8.9-5.6,2.7v18.7h-9.2v-29.6h8.6l.3,3.8c1.5-2.9,3.7-4.3,6.5-4.3s1.8.1,2.6.3l-.2,8.6Z"/>
    <path class="st0" d="M892.6,333.5c0-3,.6-5.6,1.7-7.9,1.1-2.3,2.8-4.1,4.9-5.3,2.2-1.2,4.7-1.9,7.6-1.9,4.4,0,7.9,1.4,10.5,4.1,2.6,2.7,3.8,6.5,3.8,11.2v.3c0,4.6-1.3,8.3-3.8,11-2.6,2.7-6,4.1-10.4,4.1s-7.6-1.3-10.1-3.8c-2.6-2.5-3.9-5.9-4.1-10.3v-1.6ZM901.8,334.1c0,2.7.4,4.7,1.3,6,.9,1.3,2.1,1.9,3.8,1.9,3.3,0,5-2.5,5-7.6v-.9c0-5.3-1.7-8-5.1-8s-4.7,2.3-5,6.9v1.7Z"/>
    <path class="st0" d="M935,348.6h-9.2v-42h9.2v42Z"/>
    <path class="st0" d="M940.6,311.4c0-1.3.5-2.4,1.4-3.2.9-.8,2.2-1.3,3.7-1.3s2.7.4,3.7,1.3c.9.8,1.4,1.9,1.4,3.2s-.5,2.4-1.4,3.2c-.9.8-2.2,1.3-3.7,1.3s-2.7-.4-3.7-1.3c-.9-.8-1.4-1.9-1.4-3.2ZM950.4,348.6h-9.2v-29.6h9.2v29.6Z"/>
    <path class="st0" d="M958.1,348.6v-23.2h-4.3v-6.4h4.3v-2.4c0-3.4,1-6,3-7.8,2-1.9,4.8-2.8,8.4-2.8s2.8.2,4.3.6v6.8c-.5-.2-1.3-.2-2.2-.2-2.8,0-4.2,1.2-4.2,3.6v2.3h5.8v6.4h-5.8v23.2h-9.2Z"/>
    <path class="st0" d="M990,349.1c-4.5,0-8.2-1.4-11-4.1-2.8-2.7-4.2-6.2-4.2-10.6v-.8c0-3,.6-5.7,1.7-8,1.1-2.3,2.8-4.1,4.9-5.4,2.2-1.3,4.7-1.9,7.7-1.9s7.4,1.3,9.8,3.9c2.4,2.6,3.6,6.2,3.6,10.8v3.6h-18.3c.3,1.7,1,3,2.2,3.9,1.1.9,2.6,1.4,4.3,1.4,2.9,0,5.2-1,6.8-3.1l4.2,5c-1.1,1.6-2.8,2.8-4.9,3.8s-4.4,1.4-6.8,1.4ZM988.9,325.6c-2.7,0-4.3,1.8-4.8,5.4h9.3v-.7c0-1.5-.3-2.6-1.1-3.4-.8-.8-1.9-1.2-3.4-1.2Z"/>
    <path class="st0" d="M1024,327.4l-3-.2c-2.9,0-4.8.9-5.6,2.7v18.7h-9.2v-29.6h8.6l.3,3.8c1.5-2.9,3.7-4.3,6.5-4.3s1.8.1,2.6.3l-.2,8.6Z"/>
    <path class="st0" d="M1043.2,348.6c-.3-.6-.6-1.5-.9-2.7-1.7,2.1-4.1,3.2-7.1,3.2s-5.2-.8-7.1-2.5c-2-1.7-2.9-3.8-2.9-6.4s1.2-5.6,3.6-7.3c2.4-1.6,5.8-2.5,10.3-2.5h2.8v-1.6c0-2.7-1.2-4.1-3.5-4.1s-3.3,1.1-3.3,3.2h-9.2c0-2.9,1.2-5.2,3.7-7s5.5-2.7,9.3-2.7,6.8.9,8.9,2.8c2.2,1.8,3.3,4.4,3.4,7.6v13.1c0,2.7.5,4.8,1.3,6.2v.5h-9.2ZM1037.4,342.6c1.1,0,2.1-.2,2.9-.7.8-.5,1.3-1,1.6-1.7v-4.7h-2.7c-3.2,0-4.8,1.4-4.8,4.3s.3,1.5.8,2c.6.5,1.3.8,2.2.8Z"/>
    <path class="st0" d="M1067,311.7v7.4h4.9v6.4h-4.9v13.5c0,1.1.2,1.9.6,2.3.4.4,1.2.7,2.4.7s1.7,0,2.3-.2v6.6c-1.7.5-3.4.8-5.2.8-3.2,0-5.5-.7-7-2.2-1.5-1.5-2.3-3.8-2.3-6.8v-14.7h-3.8v-6.4h3.8v-7.4h9.2Z"/>
    <path class="st0" d="M1075.4,311.4c0-1.3.5-2.4,1.4-3.2.9-.8,2.2-1.3,3.7-1.3s2.7.4,3.7,1.3c.9.8,1.4,1.9,1.4,3.2s-.5,2.4-1.4,3.2c-.9.8-2.2,1.3-3.7,1.3s-2.7-.4-3.7-1.3c-.9-.8-1.4-1.9-1.4-3.2ZM1085.2,348.6h-9.2v-29.6h9.2v29.6Z"/>
    <path class="st0" d="M1089.7,333.5c0-3,.6-5.6,1.7-7.9,1.1-2.3,2.8-4.1,4.9-5.3,2.2-1.2,4.7-1.9,7.6-1.9,4.4,0,7.9,1.4,10.5,4.1,2.6,2.7,3.8,6.5,3.8,11.2v.3c0,4.6-1.3,8.3-3.8,11-2.6,2.7-6,4.1-10.4,4.1s-7.6-1.3-10.1-3.8c-2.6-2.5-3.9-5.9-4.1-10.3v-1.6ZM1098.9,334.1c0,2.7.4,4.7,1.3,6,.9,1.3,2.1,1.9,3.8,1.9,3.3,0,5-2.5,5-7.6v-.9c0-5.3-1.7-8-5.1-8s-4.7,2.3-5,6.9v1.7Z"/>
    <path class="st0" d="M1130.8,319l.3,3.5c2-2.7,4.9-4,8.4-4s5.4.9,6.9,2.8c1.5,1.8,2.3,4.6,2.4,8.3v19.1h-9.2v-18.7c0-1.5-.3-2.6-.9-3.3-.6-.7-1.7-1.1-3.3-1.1s-3.1.7-4,2.1v20.9h-9.2v-29.6h8.6Z"/>
    <path class="st0" d="M1197.9,316.2h-11.9v32.4h-9.6v-32.4h-11.7v-7.4h33.3v7.4Z"/>
    <path class="st0" d="M1217.6,327.4l-3-.2c-2.9,0-4.8.9-5.6,2.7v18.7h-9.2v-29.6h8.6l.3,3.8c1.5-2.9,3.7-4.3,6.5-4.3s1.8.1,2.6.3l-.2,8.6Z"/>
    <path class="st0" d="M1234.8,349.1c-4.5,0-8.2-1.4-11-4.1-2.8-2.7-4.2-6.2-4.2-10.6v-.8c0-3,.6-5.7,1.7-8,1.1-2.3,2.8-4.1,4.9-5.4,2.2-1.3,4.7-1.9,7.7-1.9s7.4,1.3,9.8,3.9c2.4,2.6,3.6,6.2,3.6,10.8v3.6h-18.3c.3,1.7,1,3,2.2,3.9,1.1.9,2.6,1.4,4.3,1.4,2.9,0,5.2-1,6.8-3.1l4.2,5c-1.1,1.6-2.8,2.8-4.9,3.8s-4.4,1.4-6.8,1.4ZM1233.7,325.6c-2.7,0-4.3,1.8-4.8,5.4h9.3v-.7c0-1.5-.3-2.6-1.1-3.4-.8-.8-1.9-1.2-3.4-1.2Z"/>
    <path class="st0" d="M1267.6,348.6c-.3-.6-.6-1.5-.9-2.7-1.7,2.1-4.1,3.2-7.1,3.2s-5.2-.8-7.1-2.5c-2-1.7-2.9-3.8-2.9-6.4s1.2-5.6,3.6-7.3c2.4-1.6,5.8-2.5,10.3-2.5h2.8v-1.6c0-2.7-1.2-4.1-3.5-4.1s-3.3,1.1-3.3,3.2h-9.2c0-2.9,1.2-5.2,3.7-7s5.5-2.7,9.3-2.7,6.8.9,8.9,2.8c2.2,1.8,3.3,4.4,3.4,7.6v13.1c0,2.7.5,4.8,1.3,6.2v.5h-9.2ZM1261.8,342.6c1.1,0,2.1-.2,2.9-.7.8-.5,1.3-1,1.6-1.7v-4.7h-2.7c-3.2,0-4.8,1.4-4.8,4.3s.3,1.5.8,2c.6.5,1.3.8,2.2.8Z"/>
    <path class="st0" d="M1291.4,311.7v7.4h4.9v6.4h-4.9v13.5c0,1.1.2,1.9.6,2.3.4.4,1.2.7,2.4.7s1.7,0,2.3-.2v6.6c-1.7.5-3.4.8-5.2.8-3.2,0-5.5-.7-7-2.2-1.5-1.5-2.3-3.8-2.3-6.8v-14.7h-3.8v-6.4h3.8v-7.4h9.2Z"/>
    <path class="st0" d="M1311.7,335.7l4.9-16.7h9.9l-12.1,34.5-.5,1.3c-1.7,3.8-4.7,5.7-9.1,5.7s-2.5-.2-3.8-.5v-6.6h1.2c1.3,0,2.3-.2,3-.6.7-.4,1.2-1,1.5-2l.7-2-10.3-29.9h9.8l4.7,16.7Z"/>
  </g>
  <g>
    <path class="st0" d="M1343.8,910.9h-41.1v-12.7c0-3.6.8-6.8,2.4-9.7,1.6-2.9,3.9-5.1,6.9-6.7,3-1.6,6.4-2.4,10.2-2.4h1.9c3.8,0,7.2.8,10.2,2.4,3,1.6,5.3,3.8,6.9,6.7,1.6,2.9,2.5,6.1,2.5,9.7v12.7h0ZM1309.5,902.4h27.5v-4.1c0-3.3-1.1-5.8-3.2-7.6s-5.3-2.6-9.3-2.7h-2.2c-4.2,0-7.3.9-9.5,2.6-2.2,1.7-3.2,4.3-3.2,7.6v4.2h0Z"/>
    <path class="st0" d="M1305.3,873.9c-1.2,0-2.2-.4-3-1.2s-1.2-1.9-1.2-3.3.4-2.5,1.2-3.3,1.8-1.2,3-1.2,2.3.4,3.1,1.3,1.2,1.9,1.2,3.3-.4,2.5-1.2,3.3-1.8,1.3-3.1,1.3ZM1343.8,865.2v8.2h-30.6v-8.2h30.6Z"/>
    <path class="st0" d="M1335.4,841.9c-1,0-1.8.5-2.4,1.5-.6,1-1.1,2.6-1.5,4.8-1.5,7.3-4.6,10.9-9.3,10.9s-5-1.1-6.8-3.4c-1.8-2.3-2.7-5.2-2.7-8.8s.9-7,2.7-9.3,4.2-3.5,7.1-3.5v8.2c-1.2,0-2.1.4-2.9,1.1-.8.8-1.1,1.9-1.1,3.5s.3,2.4.9,3.2,1.4,1.1,2.4,1.1,1.6-.4,2.2-1.3c.6-.9,1-2.3,1.4-4.3s.9-3.7,1.4-5.1c1.6-4.3,4.3-6.5,8.2-6.5s5,1.2,6.8,3.6c1.7,2.4,2.6,5.5,2.6,9.3s-.5,4.8-1.4,6.8c-.9,2-2.2,3.5-3.8,4.7-1.6,1.1-3.3,1.7-5.2,1.7v-7.7c1.4,0,2.6-.6,3.3-1.6s1.2-2.3,1.2-4-.3-2.7-.9-3.5c-.6-.8-1.4-1.2-2.3-1.2h0Z"/>
    <path class="st0" d="M1343.8,811c-.7.4-1.6.6-2.7.8,2.2,2,3.3,4.5,3.3,7.7s-.9,5.5-2.6,7.4-3.9,3-6.6,3-5.7-1.2-7.5-3.6-2.6-5.9-2.6-10.4v-3.8h-1.8c-1.4,0-2.5.4-3.4,1.1s-1.3,1.9-1.3,3.4.3,2.5,1,3.2c.7.8,1.6,1.2,2.7,1.2v8.2c-1.8,0-3.4-.5-4.9-1.6s-2.7-2.6-3.5-4.6c-.9-2-1.3-4.2-1.3-6.7,0-3.8.9-6.8,2.8-9,1.9-2.2,4.6-3.3,8-3.3h13.2c2.9,0,5.1-.4,6.6-1.2h.5v8.2h0ZM1338.1,817.8c0-1.2-.3-2.3-.8-3.3-.5-1-1.3-1.8-2.2-2.3h-5.3v3.1c0,4.1,1.4,6.3,4.2,6.5h.5c1,0,1.9-.3,2.5-1s1-1.7,1-2.9h0Z"/>
    <path class="st0" d="M1320.9,780.6c-.2,1.1-.2,2.1-.2,2.9,0,3.1,1,5.1,3.1,6.1h20v8.2h-30.6v-7.7l3.6-.2c-2.8-1.6-4.2-3.9-4.2-6.8s.1-1.8.4-2.5h7.9q0,.1,0,.1Z"/>
    <path class="st0" d="M1313.2,769l3.4-.3c-2.7-2.2-4-5.1-4-8.8s1.6-6.6,4.7-8.1c-3.1-2.1-4.7-5.2-4.7-9.2s1-5.8,2.9-7.4c1.9-1.6,4.8-2.4,8.7-2.4h19.5v8.2h-19.5c-1.7,0-3,.3-3.8,1-.8.7-1.2,1.9-1.2,3.6,0,2.4,1.2,4.1,3.5,5.1h21s0,8.1,0,8.1h-19.5c-1.8,0-3.1.3-3.9,1-.8.7-1.2,1.9-1.2,3.6s1,4,2.9,5h21.7v8.2h-30.6v-7.7h0Z"/>
    <path class="st0" d="M1343.8,708.9c-.7.4-1.6.6-2.7.8,2.2,2,3.3,4.5,3.3,7.7s-.9,5.5-2.6,7.4-3.9,3-6.6,3-5.7-1.2-7.5-3.6-2.6-5.9-2.6-10.4v-3.8h-1.8c-1.4,0-2.5.4-3.4,1.1s-1.3,1.9-1.3,3.4.3,2.5,1,3.2,1.6,1.2,2.7,1.2v8.2c-1.8,0-3.4-.5-4.9-1.6s-2.7-2.6-3.5-4.6c-.9-2-1.3-4.2-1.3-6.7,0-3.8.9-6.8,2.8-9,1.9-2.2,4.6-3.3,8-3.3h13.2c2.9,0,5.1-.4,6.6-1.2h.5v8.2h0ZM1338.1,715.6c0-1.2-.3-2.3-.8-3.3-.5-1-1.3-1.8-2.2-2.3h-5.3v3.1c0,4.1,1.4,6.3,4.2,6.5h.5c1,0,1.9-.3,2.5-1s1-1.7,1-2.9h0Z"/>
    <path class="st0" d="M1313.2,687.9l3.4-.3c-2.7-2.2-4-5.1-4-8.8s1.6-6.6,4.7-8.1c-3.1-2.1-4.7-5.2-4.7-9.2s1-5.8,2.9-7.4c1.9-1.6,4.8-2.4,8.7-2.4h19.5v8.2h-19.5c-1.7,0-3,.3-3.8,1-.8.7-1.2,1.9-1.2,3.6,0,2.4,1.2,4.1,3.5,5.1h21s0,8.1,0,8.1h-19.5c-1.8,0-3.1.3-3.9,1-.8.7-1.2,1.9-1.2,3.6s1,4,2.9,5h21.7v8.2h-30.6v-7.7h0Z"/>
    <path class="st0" d="M1344.4,631.4c0,4.5-1.4,8.1-4.1,10.9-2.7,2.8-6.4,4.2-11,4.2h-.8c-3.1,0-5.8-.6-8.2-1.8s-4.3-2.9-5.6-5-2-4.7-2-7.4c0-4.2,1.3-7.5,4-9.9s6.4-3.6,11.2-3.6h3.3v19.5c2-.3,3.6-1.1,4.8-2.4s1.8-3,1.8-5c0-3.1-1.1-5.6-3.4-7.4l4.5-4c1.7,1.2,3.1,2.9,4.1,5,1,2.1,1.5,4.4,1.5,6.9h0ZM1319.3,632.3c0,1.6.5,2.9,1.6,3.9,1.1,1,2.7,1.7,4.7,1.9v-11.4h-.7c-1.8,0-3.2.5-4.2,1.5-1,.9-1.5,2.3-1.5,4h0Z"/>
    <path class="st0" d="M1313.2,606.7l3.5-.3c-2.7-2.2-4.1-5.1-4.1-8.8s1-5.6,2.9-7.2,4.7-2.4,8.5-2.4h19.7v8.2h-19.6c-1.7,0-3,.4-3.8,1.1-.8.8-1.2,2-1.2,3.8s1,4,2.9,5.2h21.6v8.2h-30.6v-7.7h0Z"/>
    <path class="st0" d="M1305.7,572h7.5v-5.2h6v5.2h15.3c1.1,0,1.9-.2,2.4-.6s.7-1.3.7-2.5,0-1.7-.2-2.4h6.2c.5,1.6.7,3.2.7,4.9,0,5.7-2.9,8.6-8.7,8.8h-16.5v4.5h-6v-4.5h-7.5v-8.2Z"/>
  </g>
  <path class="st0" d="M891.7,917.4h14.5v8.5h-41.1v-16c0-3.1.6-5.8,1.7-8.1s2.7-4.1,4.8-5.4c2.1-1.3,4.5-1.9,7.1-1.9,4,0,7.2,1.4,9.5,4.1s3.5,6.6,3.5,11.5v7.4h0ZM884.8,917.4v-7.6c0-2.2-.5-3.9-1.6-5.1s-2.6-1.8-4.5-1.8-3.6.6-4.9,1.8-1.9,2.8-1.9,4.9v7.8h12.9Z"/>
  <path class="st0" d="M906.7,875.4c0,4.5-1.4,8.1-4.1,10.9-2.7,2.8-6.4,4.2-11,4.2h-.8c-3.1,0-5.8-.6-8.2-1.8s-4.3-2.9-5.6-5-2-4.7-2-7.4c0-4.2,1.3-7.5,4-9.9s6.4-3.6,11.2-3.6h3.3v19.5c2-.3,3.6-1.1,4.8-2.4s1.8-3,1.8-5c0-3.1-1.1-5.6-3.4-7.4l4.5-4c1.7,1.2,3.1,2.9,4.1,5,1,2.1,1.5,4.4,1.5,6.9h0ZM881.6,876.4c0,1.6.5,2.9,1.6,3.9,1.1,1,2.7,1.7,4.7,1.9v-11.4h-.7c-1.8,0-3.2.5-4.2,1.5-1,.9-1.5,2.3-1.5,4h0Z"/>
  <path class="st0" d="M906.2,840.5c-.7.4-1.6.6-2.7.8,2.2,2,3.3,4.5,3.3,7.7s-.9,5.5-2.6,7.4-3.9,3-6.6,3-5.7-1.2-7.5-3.6-2.6-5.9-2.6-10.4v-3.8h-1.8c-1.4,0-2.5.4-3.4,1.1s-1.3,1.9-1.3,3.4.3,2.5,1,3.2,1.6,1.2,2.7,1.2v8.2c-1.8,0-3.4-.5-4.9-1.6-1.5-1.1-2.7-2.6-3.5-4.6s-1.3-4.2-1.3-6.7c0-3.8.9-6.8,2.8-9,1.9-2.2,4.6-3.3,8-3.3h13.2c2.9,0,5.1-.4,6.6-1.2h.5v8.2h0ZM900.5,847.3c0-1.2-.3-2.3-.8-3.3-.5-1-1.3-1.8-2.2-2.3h-5.3v3.1c0,4.1,1.4,6.3,4.2,6.5h.5c1,0,1.9-.3,2.5-1s1-1.7,1-2.9Z"/>
  <path class="st0" d="M900.2,814.5c0-1.5-.4-2.7-1.2-3.7s-1.9-1.4-3.3-1.5v-7.7c2.1,0,4,.6,5.7,1.7,1.7,1.1,3.1,2.6,4,4.6.9,1.9,1.4,4.1,1.4,6.4,0,4.4-1.4,7.8-4.2,10.3-2.8,2.5-6.6,3.8-11.5,3.8h-.5c-4.7,0-8.5-1.3-11.3-3.8s-4.2-5.9-4.2-10.3,1.1-6.9,3.3-9.2c2.2-2.3,5.1-3.5,8.7-3.5v7.7c-1.6,0-2.9.5-3.9,1.5s-1.5,2.2-1.5,3.7.7,3.3,2.1,4.3c1.4,1,3.6,1.5,6.7,1.5h.9c3.1,0,5.4-.5,6.8-1.4,1.4-1,2.1-2.4,2.1-4.4Z"/>
  <path class="st0" d="M906.7,783c0,4.5-1.4,8.1-4.1,10.9s-6.4,4.2-11,4.2h-.8c-3.1,0-5.8-.6-8.2-1.8s-4.3-2.9-5.6-5-2-4.7-2-7.4c0-4.2,1.3-7.5,4-9.9s6.4-3.6,11.2-3.6h3.3v19.5c2-.3,3.6-1.1,4.8-2.4s1.8-3,1.8-5c0-3.1-1.1-5.6-3.4-7.4l4.5-4c1.7,1.2,3.1,2.9,4.1,5,1,2.1,1.5,4.4,1.5,6.9h0ZM881.6,783.9c0,1.6.5,2.9,1.6,3.9,1.1,1,2.7,1.7,4.7,1.9v-11.4h-.7c-1.8,0-3.2.5-4.2,1.5-1,.9-1.5,2.3-1.5,4h0Z"/>
  <path class="st0" d="M906.2,763.6h-24.6v4.5h-6v-4.5h-2.6c-3.4,0-6.1-1-8-3-1.9-2-2.8-4.7-2.8-8.3s.2-2.5.6-4.2h6.3c-.2.8-.3,1.6-.3,2.6,0,3.1,1.5,4.6,4.4,4.6h2.5v-6.1h6v6.1h24.6v8.2Z"/>
  <path class="st0" d="M903.1,726.8c2.4,2,3.7,4.8,3.7,8.4s-.9,5.8-2.8,7.5-4.6,2.6-8.3,2.6h-20v-8.2h19.8c3.2,0,4.8-1.4,4.8-4.3s-1-4.7-2.9-5.7h-21.7v-8.2h30.6v7.7l-3.1.2h0Z"/>
  <path class="st0" d="M906.2,704.1v8.2h-43.4v-8.2h43.4Z"/>
  <path class="st0" d="M903.1,664.6c2.4,2,3.7,4.8,3.7,8.4s-.9,5.8-2.8,7.5-4.6,2.6-8.3,2.6h-20v-8.2h19.8c3.2,0,4.8-1.4,4.8-4.3s-1-4.7-2.9-5.7h-21.7v-8.2h30.6v7.7l-3.1.2h0Z"/>
  <path class="st0" d="M897.7,634c-1,0-1.8.5-2.4,1.5s-1.1,2.6-1.5,4.8c-1.5,7.3-4.6,10.9-9.3,10.9s-5-1.1-6.8-3.4c-1.8-2.3-2.7-5.2-2.7-8.8s.9-7,2.7-9.3,4.2-3.5,7.1-3.5v8.2c-1.2,0-2.1.4-2.9,1.1-.8.8-1.1,1.9-1.1,3.5s.3,2.4.9,3.2,1.4,1.1,2.4,1.1,1.6-.4,2.2-1.3c.6-.9,1-2.3,1.4-4.3s.9-3.7,1.4-5.1c1.6-4.3,4.3-6.5,8.2-6.5s5,1.2,6.8,3.6c1.7,2.4,2.6,5.5,2.6,9.3s-.5,4.8-1.4,6.8c-.9,2-2.2,3.5-3.8,4.7-1.6,1.1-3.3,1.7-5.2,1.7v-7.7c1.4,0,2.6-.6,3.3-1.6.8-1,1.2-2.3,1.2-4s-.3-2.7-.9-3.5c-.6-.8-1.4-1.2-2.3-1.2h0Z"/>
  <path class="st0" d="M906.7,606.8c0,4.5-1.4,8.1-4.1,10.9-2.7,2.8-6.4,4.2-11,4.2h-.8c-3.1,0-5.8-.6-8.2-1.8s-4.3-2.9-5.6-5-2-4.7-2-7.4c0-4.2,1.3-7.5,4-9.9s6.4-3.6,11.2-3.6h3.3v19.5c2-.3,3.6-1.1,4.8-2.4s1.8-3,1.8-5c0-3.1-1.1-5.6-3.4-7.4l4.5-4c1.7,1.2,3.1,2.9,4.1,5,1,2.1,1.5,4.4,1.5,6.9h0ZM881.6,607.7c0,1.6.5,2.9,1.6,3.9,1.1,1,2.7,1.7,4.7,1.9v-11.4h-.7c-1.8,0-3.2.5-4.2,1.5-1,.9-1.5,2.3-1.5,4h0Z"/>
  <path class="st0" d="M897.7,573c-1,0-1.8.5-2.4,1.5s-1.1,2.6-1.5,4.8c-1.5,7.3-4.6,10.9-9.3,10.9s-5-1.1-6.8-3.4c-1.8-2.3-2.7-5.2-2.7-8.8s.9-7,2.7-9.3,4.2-3.5,7.1-3.5v8.2c-1.2,0-2.1.4-2.9,1.1-.8.8-1.1,1.9-1.1,3.5s.3,2.4.9,3.2,1.4,1.1,2.4,1.1,1.6-.4,2.2-1.3c.6-.9,1-2.3,1.4-4.3s.9-3.7,1.4-5.1c1.6-4.3,4.3-6.5,8.2-6.5s5,1.2,6.8,3.6c1.7,2.4,2.6,5.5,2.6,9.3s-.5,4.8-1.4,6.8c-.9,2-2.2,3.5-3.8,4.7-1.6,1.1-3.3,1.7-5.2,1.7v-7.7c1.4,0,2.6-.6,3.3-1.6s1.2-2.3,1.2-4-.3-2.7-.9-3.5c-.6-.8-1.4-1.2-2.3-1.2h0Z"/>
  <path class="st0" d="M960,978.9c-3,0-5.7-.6-8.1-1.8s-4.2-2.8-5.5-5-1.9-4.7-1.9-7.6c0-4.1,1.3-7.5,3.8-10.1s6-4.1,10.3-4.4h2.1c4.7,0,8.5,1.3,11.3,3.9s4.2,6.1,4.2,10.5-1.4,7.9-4.2,10.6-6.7,3.9-11.5,3.9h-.4ZM960.6,970.7c2.9,0,5.1-.5,6.7-1.6,1.5-1.1,2.3-2.7,2.3-4.7s-.8-3.5-2.3-4.6c-1.5-1.1-3.9-1.7-7.3-1.7s-5.1.6-6.6,1.7-2.3,2.7-2.3,4.7.8,3.5,2.3,4.6c1.6,1.1,4,1.6,7.2,1.6h0Z"/>
  <path class="st0" d="M975.6,942.7h-24.6v4.5h-6v-4.5h-2.6c-3.4,0-6.1-1-8-3-1.9-2-2.8-4.7-2.8-8.3s.2-2.5.6-4.2h6.3c-.2.8-.3,1.6-.3,2.6,0,3.1,1.5,4.6,4.4,4.6h2.5v-6.1h6v6.1h24.6v8.2Z"/>
  <path class="st0" d="M975.6,875.8v8.5l-27.1,16.5h27.1v8.5h-41.1v-8.5l27.1-16.5h-27.1v-8.4h41.1Z"/>
  <path class="st0" d="M972.5,850.6c2.4,2,3.7,4.8,3.7,8.4s-.9,5.8-2.8,7.5-4.6,2.6-8.3,2.6h-20v-8.2h19.8c3.2,0,4.8-1.4,4.8-4.3s-1-4.7-2.9-5.7h-21.7v-8.2h30.6v7.7l-3.1.2h0Z"/>
  <path class="st0" d="M969.6,823.9c0-1.5-.4-2.7-1.2-3.7s-1.9-1.4-3.3-1.5v-7.7c2.1,0,4,.6,5.7,1.7,1.7,1.1,3.1,2.6,4,4.6.9,1.9,1.4,4.1,1.4,6.4,0,4.4-1.4,7.8-4.2,10.3-2.8,2.5-6.6,3.8-11.5,3.8h-.5c-4.7,0-8.5-1.3-11.3-3.8s-4.2-5.9-4.2-10.3,1.1-6.9,3.3-9.2c2.2-2.3,5.1-3.5,8.7-3.5v7.7c-1.6,0-2.9.5-3.9,1.5s-1.5,2.2-1.5,3.7.7,3.3,2.1,4.3c1.4,1,3.6,1.5,6.7,1.5h.9c3.1,0,5.4-.5,6.8-1.4s2.1-2.4,2.1-4.4Z"/>
  <path class="st0" d="M975.6,797.8v8.2h-43.4v-8.2h43.4Z"/>
  <path class="st0" d="M976.2,777c0,4.5-1.4,8.1-4.1,10.9-2.7,2.8-6.4,4.2-11,4.2h-.8c-3.1,0-5.8-.6-8.2-1.8s-4.3-2.9-5.6-5-2-4.7-2-7.4c0-4.2,1.3-7.5,4-9.9s6.4-3.6,11.2-3.6h3.3v19.5c2-.3,3.6-1.1,4.8-2.4s1.8-3,1.8-5c0-3.1-1.1-5.6-3.4-7.4l4.5-4c1.7,1.2,3.1,2.9,4.1,5,1,2.1,1.5,4.4,1.5,6.9h0ZM951,777.9c0,1.6.5,2.9,1.6,3.9,1.1,1,2.7,1.7,4.7,1.9v-11.4h-.7c-1.8,0-3.2.5-4.2,1.5-1,.9-1.5,2.3-1.5,4h0Z"/>
  <path class="st0" d="M975.6,742.1c-.7.4-1.6.6-2.7.8,2.2,2,3.3,4.5,3.3,7.7s-.9,5.5-2.6,7.4-3.9,3-6.6,3-5.7-1.2-7.5-3.6-2.6-5.9-2.6-10.4v-3.8h-1.8c-1.4,0-2.5.4-3.4,1.1s-1.3,1.9-1.3,3.4.3,2.5,1,3.2,1.6,1.2,2.7,1.2v8.2c-1.8,0-3.4-.5-4.9-1.6s-2.7-2.6-3.5-4.6-1.3-4.2-1.3-6.7c0-3.8.9-6.8,2.8-9,1.9-2.2,4.6-3.3,8-3.3h13.2c2.9,0,5.1-.4,6.6-1.2h.5v8.2h0ZM969.9,748.8c0-1.2-.3-2.3-.8-3.3-.5-1-1.3-1.8-2.2-2.3h-5.3v3.1c0,4.1,1.4,6.3,4.2,6.5h.5c1,0,1.9-.3,2.5-1s1-1.7,1-2.9Z"/>
  <path class="st0" d="M952.7,711.6c-.2,1.1-.2,2.1-.2,2.9,0,3.1,1,5.1,3.1,6.1h20v8.2h-30.6v-7.7l3.6-.2c-2.8-1.6-4.2-3.9-4.2-6.8s.1-1.8.4-2.5h7.9q0,.1,0,.1Z"/>
  <path class="st0" d="M957.7,668v16.3h11.1v-19.1h6.8v27.6h-41.1v-27.5h6.9v19h9.8v-16.3h6.6,0Z"/>
  <path class="st0" d="M945,653.2l3.5-.3c-2.7-2.2-4.1-5.1-4.1-8.8s1-5.6,2.9-7.2,4.7-2.4,8.5-2.4h19.7v8.2h-19.6c-1.7,0-3,.4-3.8,1.1-.8.8-1.2,2-1.2,3.8s1,4,2.9,5.2h21.6v8.2h-30.6v-7.7h0Z"/>
  <path class="st0" d="M976.2,614.3c0,4.5-1.4,8.1-4.1,10.9s-6.4,4.2-11,4.2h-.8c-3.1,0-5.8-.6-8.2-1.8s-4.3-2.9-5.6-5-2-4.7-2-7.4c0-4.2,1.3-7.5,4-9.9s6.4-3.6,11.2-3.6h3.3v19.5c2-.3,3.6-1.1,4.8-2.4s1.8-3,1.8-5c0-3.1-1.1-5.6-3.4-7.4l4.5-4c1.7,1.2,3.1,2.9,4.1,5,1,2.1,1.5,4.4,1.5,6.9h0ZM951,615.2c0,1.6.5,2.9,1.6,3.9,1.1,1,2.7,1.7,4.7,1.9v-11.4h-.7c-1.8,0-3.2.5-4.2,1.5-1,.9-1.5,2.3-1.5,4h0Z"/>
  <path class="st0" d="M952.7,579.9c-.2,1.1-.2,2.1-.2,2.9,0,3.1,1,5.1,3.1,6.1h20v8.2h-30.6v-7.7l3.6-.2c-2.8-1.6-4.2-3.9-4.2-6.8s.1-1.8.4-2.5h7.9q0,.1,0,.1Z"/>
  <path class="st0" d="M960.1,577.7c-4.7,0-8.5-1.1-11.3-3.3s-4.3-5.2-4.3-9,1.1-6,3.4-7.8l-2.9-.3v-7.4h29.5c2.7,0,5,.6,7,1.8s3.5,2.9,4.5,5.1,1.6,4.8,1.6,7.7-.4,4.4-1.3,6.6-2,3.7-3.5,4.8l-5-3.6c2.3-2,3.4-4.5,3.4-7.4s-.6-3.9-1.7-5.1c-1.2-1.2-2.8-1.8-4.9-1.8h-1.6c2.1,1.9,3.2,4.4,3.2,7.4s-1.4,6.6-4.3,8.9c-2.9,2.3-6.7,3.4-11.4,3.4h-.3ZM960.7,569.5c2.8,0,5-.6,6.5-1.7,1.6-1.1,2.4-2.6,2.4-4.6s-.9-4.3-2.8-5.3h-12.9c-1.9,1.1-2.8,2.9-2.8,5.3s.8,3.5,2.4,4.6c1.6,1.1,4,1.7,7.2,1.7Z"/>
  <path class="st0" d="M964,532.1l-19-5.6v-8.8l35.3,12.3,1.6.7c4,1.8,6,4.8,6,9s-.2,2.4-.5,3.6h-6.2v-1.2c0-1.5-.2-2.7-.7-3.5s-1.3-1.4-2.3-1.8l-2.5-1-30.6,10.7v-8.8l19-5.7h0Z"/>
  <g>
    <path class="st0" d="M564.8,932.9v8.5l-27.1,16.5h27.1v8.5h-41.1v-8.5l27.1-16.5h-27.1v-8.4h41.1Z"/>
    <path class="st0" d="M549.2,927.3c-3,0-5.7-.6-8.1-1.8s-4.2-2.8-5.5-5c-1.3-2.2-1.9-4.7-1.9-7.6,0-4.1,1.3-7.5,3.8-10.1s6-4.1,10.3-4.4h2.1c4.7,0,8.5,1.3,11.3,3.9s4.2,6.1,4.2,10.5-1.4,7.9-4.2,10.5-6.7,3.9-11.5,3.9h-.4ZM549.8,919.2c2.9,0,5.1-.5,6.7-1.6,1.5-1.1,2.3-2.7,2.3-4.7s-.8-3.5-2.3-4.6c-1.5-1.1-3.9-1.7-7.3-1.7s-5.1.6-6.6,1.7-2.3,2.7-2.3,4.7.8,3.5,2.3,4.6c1.6,1.1,4,1.6,7.2,1.6h0Z"/>
    <path class="st0" d="M534.2,885.8l3.5-.3c-2.7-2.2-4.1-5.1-4.1-8.8s1-5.6,2.9-7.2,4.7-2.4,8.5-2.4h19.7v8.2h-19.6c-1.7,0-3,.4-3.8,1.1-.8.8-1.2,2-1.2,3.8s1,4,2.9,5.2h21.6v8.2h-30.6v-7.7h0Z"/>
    <path class="st0" d="M550.5,845.1v15.9h-6.6v-15.9h6.6Z"/>
    <path class="st0" d="M550.3,829.5h14.5v8.5h-41.1v-16c0-3.1.6-5.8,1.7-8.2s2.7-4.1,4.8-5.4c2.1-1.3,4.5-1.9,7.1-1.9,4,0,7.2,1.4,9.5,4.1s3.5,6.6,3.5,11.5v7.4h0ZM543.4,829.5v-7.6c0-2.2-.5-4-1.6-5.1-1.1-1.2-2.6-1.8-4.5-1.8s-3.6.6-4.9,1.8-1.9,2.8-1.9,4.9v7.8h12.9Z"/>
    <path class="st0" d="M541.9,784c-.2,1.1-.2,2.1-.2,2.9,0,3.1,1,5.1,3.1,6.1h20v8.2h-30.6v-7.7l3.6-.2c-2.8-1.6-4.2-3.9-4.2-6.8s.1-1.8.4-2.5h7.9q0,.1,0,.1Z"/>
    <path class="st0" d="M549.2,782.4c-3,0-5.7-.6-8.1-1.8s-4.2-2.8-5.5-5-1.9-4.7-1.9-7.6c0-4.1,1.3-7.5,3.8-10.1s6-4.1,10.3-4.4h2.1c4.7,0,8.5,1.3,11.3,3.9s4.2,6.1,4.2,10.5-1.4,7.9-4.2,10.5c-2.8,2.6-6.7,3.9-11.5,3.9h-.4ZM549.8,774.2c2.9,0,5.1-.5,6.7-1.6,1.5-1.1,2.3-2.7,2.3-4.7s-.8-3.5-2.3-4.6c-1.5-1.1-3.9-1.7-7.3-1.7s-5.1.6-6.6,1.7-2.3,2.7-2.3,4.7.8,3.5,2.3,4.6c1.6,1.1,4,1.6,7.2,1.6h0Z"/>
    <path class="st0" d="M564.8,739.8v8.2h-43.4v-8.2h43.4Z"/>
    <path class="st0" d="M526.3,733.1c-1.2,0-2.2-.4-3-1.2s-1.2-1.9-1.2-3.3.4-2.5,1.2-3.3,1.8-1.2,3-1.2,2.3.4,3.1,1.3,1.2,1.9,1.2,3.3-.4,2.5-1.2,3.3-1.8,1.3-3.1,1.3ZM564.8,724.5v8.2h-30.6v-8.2h30.6Z"/>
    <path class="st0" d="M564.8,715.5h-24.6v4.5h-6v-4.5h-2.6c-3.4,0-6.1-1-8-3-1.9-2-2.8-4.7-2.8-8.3s.2-2.5.6-4.2h6.3c-.2.8-.3,1.6-.3,2.6,0,3.1,1.5,4.6,4.4,4.6h2.5v-6.1h6v6.1h24.6v8.2h0Z"/>
    <path class="st0" d="M565.3,683.6c0,4.5-1.4,8.1-4.1,10.9-2.7,2.8-6.4,4.2-11,4.2h-.8c-3.1,0-5.8-.6-8.2-1.8s-4.3-2.9-5.6-5c-1.3-2.2-2-4.7-2-7.4,0-4.2,1.3-7.5,4-9.9s6.4-3.6,11.2-3.6h3.3v19.5c2-.3,3.6-1.1,4.8-2.4,1.2-1.3,1.8-3,1.8-5,0-3.1-1.1-5.6-3.4-7.4l4.5-4c1.7,1.2,3.1,2.9,4.1,5,1,2.1,1.5,4.4,1.5,6.9h0ZM540.2,684.6c0,1.6.5,2.9,1.6,3.9,1.1,1,2.7,1.7,4.7,1.9v-11.4h-.7c-1.8,0-3.2.5-4.2,1.5-1,.9-1.5,2.3-1.5,4h0Z"/>
    <path class="st0" d="M541.9,649.2c-.2,1.1-.2,2.1-.2,2.9,0,3.1,1,5.1,3.1,6.1h20v8.2h-30.6v-7.7l3.6-.2c-2.8-1.6-4.2-3.9-4.2-6.8s.1-1.8.4-2.5h7.9q0,.1,0,.1Z"/>
    <path class="st0" d="M564.8,628.5c-.7.4-1.6.6-2.7.8,2.2,2,3.3,4.5,3.3,7.7s-.9,5.5-2.6,7.4-3.9,3-6.6,3-5.7-1.2-7.5-3.6-2.6-5.9-2.6-10.4v-3.8h-1.8c-1.4,0-2.5.4-3.4,1.1s-1.3,1.9-1.3,3.4.3,2.5,1,3.2,1.6,1.2,2.7,1.2v8.2c-1.8,0-3.4-.5-4.9-1.6s-2.7-2.6-3.5-4.6-1.3-4.2-1.3-6.7c0-3.8.9-6.8,2.8-9,1.9-2.2,4.6-3.3,8-3.3h13.2c2.9,0,5.1-.4,6.6-1.2h.5v8.2h0ZM559.1,635.2c0-1.2-.3-2.3-.8-3.3-.5-1-1.3-1.8-2.2-2.3h-5.3v3.1c0,4.1,1.4,6.3,4.2,6.5h.5c1,0,1.9-.3,2.5-1s1-1.7,1-2.9Z"/>
    <path class="st0" d="M526.7,605.4h7.5v-5.2h6v5.2h15.3c1.1,0,1.9-.2,2.4-.6s.7-1.3.7-2.5,0-1.7-.2-2.4h6.2c.5,1.6.7,3.2.7,4.9,0,5.7-2.9,8.6-8.7,8.8h-16.5v4.5h-6v-4.5h-7.5v-8.2Z"/>
    <path class="st0" d="M526.3,595.7c-1.2,0-2.2-.4-3-1.2s-1.2-1.9-1.2-3.3.4-2.5,1.2-3.3,1.8-1.2,3-1.2,2.3.4,3.1,1.3,1.2,1.9,1.2,3.3-.4,2.5-1.2,3.3-1.8,1.3-3.1,1.3ZM564.8,587v8.2h-30.6v-8.2h30.6Z"/>
    <path class="st0" d="M549.2,581.5c-3,0-5.7-.6-8.1-1.8s-4.2-2.8-5.5-5-1.9-4.7-1.9-7.6c0-4.1,1.3-7.5,3.8-10.1s6-4.1,10.3-4.4h2.1c4.7,0,8.5,1.3,11.3,3.9s4.2,6.1,4.2,10.5-1.4,7.9-4.2,10.5c-2.8,2.6-6.7,3.9-11.5,3.9h-.4ZM549.8,573.4c2.9,0,5.1-.5,6.7-1.6,1.5-1.1,2.3-2.7,2.3-4.7s-.8-3.5-2.3-4.6c-1.5-1.1-3.9-1.7-7.3-1.7s-5.1.6-6.6,1.7-2.3,2.7-2.3,4.7.8,3.5,2.3,4.6c1.6,1.1,4,1.6,7.2,1.6h0Z"/>
    <path class="st0" d="M534.2,540.1l3.5-.3c-2.7-2.2-4.1-5.1-4.1-8.8s1-5.6,2.9-7.2,4.7-2.4,8.5-2.4h19.7v8.2h-19.6c-1.7,0-3,.4-3.8,1.1-.8.8-1.2,2-1.2,3.8s1,4,2.9,5.2h21.6v8.2h-30.6v-7.7h0Z"/>
  </g>
</svg>