<?xml version="1.0" encoding="UTF-8"?>
<svg id="Ebene_2" xmlns="http://www.w3.org/2000/svg" version="1.1" viewBox="0 0 1920 1280">
  <!-- Generator: Adobe Illustrator 29.0.1, SVG Export Plug-In . SVG Version: 2.1.0 Build 192)  -->
  <defs>
    <style>
      .st0 {
        fill: none;
      }

      .st1 {
        fill: #0d435c;
      }

      .st2, .st3, .st4 {
        fill: #fff;
      }

      .st5 {
        fill: #aebfc7;
      }

      .st6 {
        fill: #f3f5f7;
      }

      .st7 {
        fill: #0c425b;
      }

      .st8 {
        fill: #0d425b;
      }

      .st9 {
        fill: #fac102;
      }

      .st3 {
        stroke-width: 14px;
      }

      .st3, .st4 {
        stroke: #aebfc7;
        stroke-miterlimit: 10;
      }

      .st4 {
        stroke-width: 17.2px;
      }
    </style>
  </defs>
  <rect class="st6" x="-.8" y="-1.3" width="1922.5" height="1282.1"/>
  <g>
    <path class="st5" d="M713,801.1h-146.4l-.2-7.8c-.5-24-.5-97,.9-110.9,2.9-29.4,13.4-68.5,71.5-68.5s68.9,34.1,73.3,72.1c2,17.3,1.6,87.9,1.1,107.3l-.2,7.8h0Z"/>
    <rect class="st4" x="574.9" y="833.9" width="70.8" height="209.4" rx="29.5" ry="29.5"/>
    <rect class="st4" x="645.7" y="833.9" width="70.8" height="209.4" rx="29.5" ry="29.5"/>
    <path class="st2" d="M582.2,785.1h115.2c.4-22.5.4-83.7-1.2-97.3-4.2-36.1-10.2-58-57.5-58s-51.9,15.7-55.6,54.1c-1.1,10.9-1.3,75.1-.9,101.2Z"/>
  </g>
  <g>
    <path class="st5" d="M1323.3,801.1h-146.4l-.2-7.8c-.5-24-.5-97,.9-110.9,2.9-29.4,13.4-68.5,71.5-68.5s68.9,34.1,73.3,72.1c2,17.3,1.6,87.9,1.1,107.3l-.2,7.8Z"/>
    <rect class="st4" x="1185.2" y="833.9" width="70.8" height="209.4" rx="29.5" ry="29.5"/>
    <rect class="st4" x="1256" y="833.9" width="70.8" height="209.4" rx="29.5" ry="29.5"/>
    <path class="st2" d="M1192.5,785.1h115.2c.4-22.5.4-83.7-1.2-97.3-4.2-36.1-10.2-58-57.5-58s-51.9,15.7-55.6,54.1c-1.1,10.9-1.3,75.1-.9,101.2Z"/>
  </g>
  <rect class="st2" x="785.1" y="486.9" width="304.5" height="370.1"/>
  <path class="st5" d="M263.4,570.6c0-39.9,32.3-72.4,72.1-72.4s72.1,34.3,72.1,74.9-31.7,69.8-72.1,69.8h0c-39.7,0-72.1-32.5-72.1-72.4Z"/>
  <path class="st2" d="M279.3,570.6c0,31.1,25.2,56.4,56.1,56.4s56.1-23.7,56.1-53.9-25.7-59-56.1-59-56.1,25.3-56.1,56.4h0Z"/>
  <path class="st5" d="M478,1063.7c-25.7-.2-43.6-12.6-43.6-30.1,0-29.6-.8-76.1-1.1-94.9-19.1,1-67.4,2.6-115-3.8-53-7.1-56-61.8-57.9-93.2-.4-8.7-3.8-91.5-1.2-118.6,4.5-46.1,26.8-68.6,68.1-68.6h.2c63.2,0,71.6,30,76.5,72.2,3.7,31.7.7,88.6-.7,110.7,10.7-.5,29.3-1.1,48.4-.5,55.9,1.6,65.8,11.3,68.2,20.6,8.2,33,5.6,101.1,3.8,146.2-.5,11.7-.9,21.8-1,29.4-.3,18.1-18.4,30.7-44,30.7s-.5,0-.7,0h0Z"/>
  <path class="st2" d="M395.3,853.7l-9.1.6.7-9.1c0-.8,5.7-79.2,1.3-116.7-4.4-38.1-9.2-58-60.7-58.1h-.1c-32.9,0-48.6,16.2-52.2,54.2-2.6,26.9,1.2,116.1,1.3,117v.6s-.7,69.5,44.1,76.9c57.9,9.6,119.4,3.2,120.1,3.2l8.4-.6.2,8.4c0,.7,1.3,65.8,1.3,103.5,0,8.7,14.1,14.1,27.8,14.2h.5c13.9,0,28-5.1,28.2-15,.1-7.7.5-17.9,1-29.7,1.7-44.1,4.3-110.6-3.3-141.5-5.7-7.5-56.5-11.1-109.3-7.8h0Z"/>
  <g>
    <path class="st5" d="M1547.3,643h0c-40.4,0-72.1-30.7-72.1-69.8s33-74.9,72.1-74.9,72.1,32.5,72.1,72.4-32.3,72.4-72.1,72.4h0Z"/>
    <path class="st2" d="M1547.3,514.2c-30.4,0-56.1,27-56.1,59s24.7,53.9,56.1,53.9,56.1-25.3,56.1-56.4-25.2-56.4-56.1-56.4h0Z"/>
  </g>
  <g>
    <path class="st5" d="M1248.3,599.7h0c-40.4,0-72.1-30.7-72.1-69.8s33-74.9,72.1-74.9,72.1,32.5,72.1,72.4-32.3,72.4-72.1,72.4h0Z"/>
    <path class="st2" d="M1248.3,470.9c-30.4,0-56.1,27-56.1,59s24.7,53.9,56.1,53.9,56.1-25.3,56.1-56.4-25.2-56.4-56.1-56.4h0Z"/>
  </g>
  <g>
    <path class="st5" d="M639.1,599.7h0c-40.4,0-72.1-30.7-72.1-69.8s33-74.9,72.1-74.9,72.1,32.5,72.1,72.4-32.3,72.4-72.1,72.4h0Z"/>
    <path class="st2" d="M639.1,470.9c-30.4,0-56.1,27-56.1,59s24.7,53.9,56.1,53.9,56.1-25.3,56.1-56.4-25.2-56.4-56.1-56.4h0Z"/>
  </g>
  <path class="st5" d="M1404.1,1063.7c-25.7,0-43.7-12.6-44-30.7-.1-7.5-.5-17.7-1-29.4-1.8-45.1-4.4-113.3,3.8-146.2,2.3-9.3,12.2-19,68.2-20.6,19.2-.5,37.8,0,48.4.5-1.4-22.1-4.4-79.1-.7-110.7,4.9-42.2,13.3-72.1,76.5-72.2h.2c41.4,0,63.6,22.4,68.1,68.6,2.6,27.1-.8,110-1.2,118.6-1.9,31.4-4.9,86.2-57.9,93.2-47.6,6.3-95.9,4.8-115,3.8-.3,18.8-1.1,65.3-1.1,94.9,0,17.5-17.9,29.9-43.6,30.1-.2,0-.5,0-.7,0Z"/>
  <path class="st2" d="M1378.3,861.5c-7.6,30.9-5,97.4-3.3,141.5.5,11.8.9,22,1,29.7.2,9.9,14.2,15,28.2,15h.5c13.7-.1,27.8-5.5,27.8-14.2,0-37.7,1.3-102.8,1.3-103.5l.2-8.4,8.4.6c.6,0,62.2,6.4,120.1-3.2,44.7-7.4,44-76.9,44-76.9v-.6c0-.9,3.9-90.1,1.3-117-3.7-38-19.3-54.2-52.2-54.2h-.1c-51.5,0-56.2,20-60.7,58.1-4.4,37.5,1.3,115.9,1.3,116.7l.7,9.1-9.1-.6c-52.7-3.3-103.5.3-109.3,7.8h0Z"/>
  <g>
    <path class="st3" d="M1465.5,429.6l1.7-3.4c10-19.7,18-51.9,7.7-77.8-18.3-46.2-70.9-68.9-117.1-50.6-22.4,8.9-39.9,25.9-49.5,48.1s-10,46.6-1.1,69c15.9,40.2,58.3,63.5,100.8,55.3h.5c0,0,80.5-2.8,80.5-2.8l-23.5-37.8h0Z"/>
    <path class="st5" d="M1365.6,385c0,5.6-4.5,10.1-10.1,10.1s-10.1-4.5-10.1-10.1,4.5-10.1,10.1-10.1,10.1,4.5,10.1,10.1"/>
    <path class="st5" d="M1398.8,385c0,5.6-4.5,10.1-10.1,10.1s-10.1-4.5-10.1-10.1,4.5-10.1,10.1-10.1,10.1,4.5,10.1,10.1"/>
    <path class="st5" d="M1432.3,385c0,5.6-4.5,10.1-10.1,10.1s-10.1-4.5-10.1-10.1,4.5-10.1,10.1-10.1,10.1,4.5,10.1,10.1"/>
  </g>
  <g>
    <path class="st3" d="M398.8,407.6l80.5,2.7h.5c42.5,8.3,84.9-15,100.8-55.2,8.9-22.4,8.5-46.9-1.1-69s-27.2-39.2-49.5-48.1c-46.2-18.3-98.8,4.4-117.1,50.6-10.3,26-2.3,58.1,7.7,77.8l1.7,3.4-23.5,37.8Z"/>
    <path class="st5" d="M522.2,325.2c0,5.6,4.5,10.1,10.1,10.1s10.1-4.5,10.1-10.1-4.5-10.1-10.1-10.1-10.1,4.5-10.1,10.1"/>
    <path class="st5" d="M489,325.2c0,5.6,4.5,10.1,10.1,10.1s10.1-4.5,10.1-10.1-4.5-10.1-10.1-10.1-10.1,4.5-10.1,10.1"/>
    <path class="st5" d="M455.5,325.2c0,5.6,4.5,10.1,10.1,10.1s10.1-4.5,10.1-10.1-4.5-10.1-10.1-10.1-10.1,4.5-10.1,10.1"/>
  </g>
  <rect class="st1" x="263.9" y="950.5" width="152.2" height="32.4"/>
  <rect class="st1" x="1465.2" y="954" width="152.2" height="32.4"/>
  <rect class="st0" x="566.3" y="825.3" width="158.8" height="226.6"/>
  <g>
    <polygon class="st8" points="790.3 781.6 455.9 781.6 455.9 819.2 519.3 819.2 790.3 819.2 790.3 781.6"/>
    <rect class="st7" x="843.7" y="747.8" width="147.2" height="19.5"/>
    <path class="st9" d="M1154.9,775.7l-82.3-82.3c15.2-17.5,24.4-40.2,24.4-65.1,0-54.8-44.6-99.4-99.4-99.4s-99.4,44.6-99.4,99.4,44.6,99.4,99.4,99.4,41.5-7,57.9-18.7l83,83s5.4,1.3,11.9-5.2,4.4-11.2,4.4-11.2ZM997.6,704.6c-42.1,0-76.3-34.2-76.3-76.3s34.2-76.3,76.3-76.3,76.3,34.2,76.3,76.3-34.2,76.3-76.3,76.3h0Z"/>
    <path class="st9" d="M1066.7,727.5v114.9l-267.4-1.8v-339.7h265.7v46.4c9.1,7.2,17,15.8,23.4,25.4v-95.3h-312.4v386.5h312.4l1.8-113.1-23.4-23.4Z"/>
    <path class="st7" d="M921.2,704.6h-77.5v19.5h103.5c-9.6-5.2-18.4-11.8-26-19.5Z"/>
    <path class="st7" d="M896.6,661.3h-52.9v19.5h61.3c-3.4-6.2-6.2-12.7-8.4-19.5Z"/>
    <path class="st7" d="M891.4,628.3c0-3.5.3-6.8.6-10.2h-48.3v19.5h48.2c-.3-3.1-.6-6.2-.6-9.3Z"/>
    <path class="st7" d="M905.6,574.9h-61.9v19.5h53.3c2.3-6.8,5.2-13.3,8.7-19.5h0Z"/>
    <path class="st7" d="M1021.3,598.5v-29.2h-57.7c-12.4,6.5-22.4,16.7-28.7,29.2h86.4,0Z"/>
    <path class="st7" d="M999.3,612.5h-69c-1.2,5-1.9,10.2-1.9,15.6s.5,9.2,1.4,13.6h69.5v-29.2h0Z"/>
    <path class="st7" d="M1022.1,654.8h-88.1c5.3,12.1,14.2,22.2,25.2,29.2h62.9v-29.2h0Z"/>
  </g>
  <path class="st8" d="M1160.6,781.6c-.2.4-.3.7-.5,1.1-.4.9-5.5,7.5-9,9.9-4,2.8-10.2,4.4-12.7,3.9-1.9-.4-11-10.7-15.6-15h-33.4s-.4,37.6-.4,37.6h335.3v-37.6h-263.6Z"/>
  <path class="st9" d="M1081.9,688.5c2-2.9,7.7-12.8,7.7-12.8v27.5s-10.8-10.3-10.8-10.3c0,0,1-1.5,3-4.4h0Z"/>
</svg>