<?xml version="1.0" encoding="UTF-8"?>
<svg id="Ebene_2" xmlns="http://www.w3.org/2000/svg" version="1.1" viewBox="0 0 1920 1280">
  <!-- Generator: Adobe Illustrator 29.0.1, SVG Export Plug-In . SVG Version: 2.1.0 Build 192)  -->
  <defs>
    <style>
      .st0 {
        fill: #0d435c;
      }

      .st1 {
        fill: #90172f;
      }

      .st2 {
        fill: #f3f5f7;
      }

      .st3 {
        fill: #fff;
        stroke: #fac102;
        stroke-miterlimit: 10;
        stroke-width: 21.6px;
      }
    </style>
  </defs>
  <rect class="st2" x="-7" y="-5.5" width="1933" height="1293"/>
  <rect class="st3" x="589.1" y="286.1" width="714.6" height="714.6" rx="32.9" ry="32.9" transform="translate(-177.7 857.6) rotate(-45)"/>
  <g>
    <path class="st0" d="M700.2,793.8h-14.2l-21-36.8v36.8h-14.3v-59.2h14.3l20.9,36.8v-36.8h14.2v59.2Z"/>
    <path class="st0" d="M734.8,789.1c-2.9,3.7-6.8,5.6-11.7,5.6s-8.5-1.4-11-4.2c-2.5-2.8-3.7-6.8-3.7-12.1v-28.5h13.7v28.6c0,3.8,1.8,5.6,5.5,5.6s5.4-1.1,6.7-3.4v-30.8h13.8v44h-12.8l-.4-4.8Z"/>
    <path class="st0" d="M774.1,784.1c1.9,0,3.4-.5,4.5-1.6s1.6-2.5,1.5-4.4h12.8c0,4.8-1.7,8.8-5.2,11.9-3.5,3.1-7.9,4.6-13.3,4.6s-11.4-2-15.1-6c-3.7-4-5.5-9.6-5.5-16.7v-.6c0-4.4.8-8.4,2.5-11.8,1.6-3.4,4-6,7.1-7.8,3.1-1.8,6.7-2.7,11-2.7s10.3,1.6,13.6,4.8c3.4,3.2,5,7.5,5,12.9h-12.8c0-2.3-.6-4-1.7-5.2-1.1-1.2-2.6-1.8-4.5-1.8-3.5,0-5.6,2.3-6.2,6.8-.2,1.4-.3,3.4-.3,5.9,0,4.4.5,7.5,1.6,9.2s2.7,2.6,5,2.6Z"/>
    <path class="st0" d="M813.2,793.8h-13.7v-62.4h13.7v62.4Z"/>
    <path class="st0" d="M842.9,794.6c-6.7,0-12.2-2-16.4-6-4.2-4-6.3-9.3-6.3-15.7v-1.1c0-4.5.8-8.5,2.5-11.9s4.1-6.1,7.3-8c3.2-1.9,7-2.8,11.4-2.8s11.1,1.9,14.6,5.8c3.6,3.8,5.4,9.2,5.4,16v5.3h-27.2c.5,2.5,1.6,4.4,3.2,5.8,1.7,1.4,3.8,2.1,6.4,2.1,4.3,0,7.7-1.5,10.2-4.6l6.3,7.4c-1.7,2.4-4.1,4.2-7.3,5.6-3.1,1.4-6.5,2.1-10.1,2.1ZM841.4,759.6c-4,0-6.4,2.7-7.2,8h13.8v-1.1c0-2.2-.5-3.9-1.7-5.1-1.2-1.2-2.8-1.8-5-1.8Z"/>
    <path class="st0" d="M891.7,793.8c-.5-.9-.9-2.2-1.3-3.9-2.5,3.2-6,4.8-10.6,4.8s-7.7-1.3-10.6-3.8-4.3-5.7-4.3-9.4,1.8-8.4,5.3-10.8c3.5-2.4,8.6-3.7,15.4-3.7h4.2v-2.3c0-4.1-1.7-6.1-5.2-6.1s-4.9,1.6-4.9,4.8h-13.7c0-4.2,1.8-7.7,5.4-10.4,3.6-2.7,8.2-4,13.8-4s10,1.4,13.3,4.1,4.9,6.5,5,11.3v19.5c0,4,.7,7.1,1.9,9.3v.7h-13.7ZM883.2,784.9c1.7,0,3.1-.4,4.2-1.1s1.9-1.6,2.4-2.5v-7h-4c-4.8,0-7.2,2.1-7.2,6.4s.4,2.3,1.3,3,1.9,1.2,3.2,1.2Z"/>
    <path class="st0" d="M937.8,762.2l-4.5-.3c-4.3,0-7.1,1.4-8.3,4.1v27.8h-13.7v-44h12.8l.4,5.6c2.3-4.3,5.5-6.5,9.6-6.5s2.7.2,3.8.5l-.2,12.7Z"/>
    <path class="st0" d="M1009.9,771.8l6.8-37.1h14.1l-12.6,59.2h-14.8l-7.9-33.7-7.8,33.7h-14.8l-12.6-59.2h14.2l6.8,37.1,8.1-37.1h12.1l8.2,37.1Z"/>
    <path class="st0" d="M1055.8,794.6c-6.7,0-12.2-2-16.4-6-4.2-4-6.3-9.3-6.3-15.7v-1.1c0-4.5.8-8.5,2.5-11.9s4.1-6.1,7.3-8c3.2-1.9,7-2.8,11.4-2.8s11.1,1.9,14.6,5.8c3.6,3.8,5.4,9.2,5.4,16v5.3h-27.2c.5,2.5,1.6,4.4,3.2,5.8,1.7,1.4,3.8,2.1,6.4,2.1,4.3,0,7.7-1.5,10.2-4.6l6.3,7.4c-1.7,2.4-4.1,4.2-7.3,5.6-3.1,1.4-6.5,2.1-10.1,2.1ZM1054.2,759.6c-4,0-6.4,2.7-7.2,8h13.8v-1.1c0-2.2-.5-3.9-1.7-5.1-1.2-1.2-2.8-1.8-5-1.8Z"/>
    <path class="st0" d="M1104.6,793.8c-.5-.9-.9-2.2-1.3-3.9-2.5,3.2-6,4.8-10.6,4.8s-7.7-1.3-10.6-3.8-4.3-5.7-4.3-9.4,1.8-8.4,5.3-10.8c3.5-2.4,8.6-3.7,15.4-3.7h4.2v-2.3c0-4.1-1.7-6.1-5.2-6.1s-4.9,1.6-4.9,4.8h-13.7c0-4.2,1.8-7.7,5.4-10.4,3.6-2.7,8.2-4,13.8-4s10,1.4,13.3,4.1,4.9,6.5,5,11.3v19.5c0,4,.7,7.1,1.9,9.3v.7h-13.7ZM1096,784.9c1.7,0,3.1-.4,4.2-1.1s1.9-1.6,2.4-2.5v-7h-4c-4.8,0-7.2,2.1-7.2,6.4s.4,2.3,1.3,3,1.9,1.2,3.2,1.2Z"/>
    <path class="st0" d="M1164.8,772.2c0,6.8-1.5,12.3-4.6,16.4-3.1,4.1-7.2,6.1-12.5,6.1s-7.4-1.5-10-4.4v20.5h-13.7v-60.9h12.8l.4,4.1c2.6-3.3,6.1-4.9,10.4-4.9s9.6,2,12.6,6c3,4,4.5,9.5,4.5,16.5v.7ZM1151.1,771.3c0-7.8-2.3-11.7-6.8-11.7s-5.4,1.2-6.5,3.5v17.3c1.2,2.4,3.4,3.7,6.6,3.7s6.6-3.8,6.7-11.3v-1.5Z"/>
    <path class="st0" d="M1169.1,771.4c0-4.4.9-8.3,2.6-11.7,1.7-3.4,4.2-6.1,7.4-7.9,3.2-1.8,6.9-2.8,11.3-2.8,6.6,0,11.8,2,15.6,6.1,3.8,4.1,5.7,9.6,5.7,16.6v.5c0,6.9-1.9,12.3-5.7,16.3-3.8,4-9,6-15.5,6s-11.3-1.9-15.1-5.6c-3.8-3.8-5.8-8.8-6.1-15.3v-2.3ZM1182.8,772.3c0,4.1.6,7,1.9,8.9,1.3,1.9,3.2,2.8,5.6,2.8,4.9,0,7.4-3.8,7.5-11.3v-1.4c0-7.9-2.5-11.8-7.6-11.8s-7.1,3.4-7.4,10.2v2.5Z"/>
    <path class="st0" d="M1230.1,749.9l.4,5.2c3-4,7.2-6,12.6-6s8,1.4,10.3,4.1c2.3,2.7,3.4,6.9,3.5,12.4v28.3h-13.7v-27.8c0-2.2-.4-3.9-1.3-4.9-.9-1-2.5-1.6-4.9-1.6s-4.7,1.1-6,3.2v31h-13.7v-44h12.8Z"/>
    <path class="st0" d="M799.2,853.5h-23v23.6h-14.3v-59.2h39.6v11h-25.3v13.6h23v11Z"/>
    <path class="st0" d="M832.3,845.5l-4.5-.3c-4.3,0-7.1,1.4-8.3,4.1v27.8h-13.7v-44h12.8l.4,5.6c2.3-4.3,5.5-6.5,9.6-6.5s2.7.2,3.8.5l-.2,12.7Z"/>
    <path class="st0" d="M857.8,877.9c-6.7,0-12.2-2-16.4-6-4.2-4-6.3-9.3-6.3-15.7v-1.1c0-4.5.8-8.5,2.5-11.9s4.1-6.1,7.3-8c3.2-1.9,7-2.8,11.4-2.8s11.1,1.9,14.6,5.8c3.6,3.8,5.4,9.2,5.4,16v5.3h-27.2c.5,2.5,1.6,4.4,3.2,5.8,1.7,1.4,3.8,2.1,6.4,2.1,4.3,0,7.7-1.5,10.2-4.6l6.3,7.4c-1.7,2.4-4.1,4.2-7.3,5.6-3.1,1.4-6.5,2.1-10.1,2.1ZM856.2,842.8c-4,0-6.4,2.7-7.2,8h13.8v-1.1c0-2.2-.5-3.9-1.7-5.1-1.2-1.2-2.8-1.8-5-1.8Z"/>
    <path class="st0" d="M903.1,877.9c-6.7,0-12.2-2-16.4-6-4.2-4-6.3-9.3-6.3-15.7v-1.1c0-4.5.8-8.5,2.5-11.9s4.1-6.1,7.3-8c3.2-1.9,7-2.8,11.4-2.8s11.1,1.9,14.6,5.8c3.6,3.8,5.4,9.2,5.4,16v5.3h-27.2c.5,2.5,1.6,4.4,3.2,5.8,1.7,1.4,3.8,2.1,6.4,2.1,4.3,0,7.7-1.5,10.2-4.6l6.3,7.4c-1.7,2.4-4.1,4.2-7.3,5.6-3.1,1.4-6.5,2.1-10.1,2.1ZM901.5,842.8c-4,0-6.4,2.7-7.2,8h13.8v-1.1c0-2.2-.5-3.9-1.7-5.1-1.2-1.2-2.8-1.8-5-1.8Z"/>
    <path class="st0" d="M953.9,856.8h-24.4v-10.6h24.4v10.6Z"/>
    <path class="st0" d="M981.2,866.1h28.3v11h-46.1v-7.5l28.2-40.6h-28.4v-11h46v7.3l-28,40.9Z"/>
    <path class="st0" d="M1012.7,854.7c0-4.4.9-8.3,2.6-11.7,1.7-3.4,4.2-6.1,7.4-7.9,3.2-1.8,6.9-2.8,11.3-2.8,6.6,0,11.8,2,15.6,6.1,3.8,4.1,5.7,9.6,5.7,16.6v.5c0,6.9-1.9,12.3-5.7,16.3-3.8,4-9,6-15.5,6s-11.3-1.9-15.1-5.6c-3.8-3.8-5.8-8.8-6.1-15.3v-2.3ZM1026.4,855.5c0,4.1.6,7,1.9,8.9,1.3,1.9,3.2,2.8,5.6,2.8,4.9,0,7.4-3.8,7.5-11.3v-1.4c0-7.9-2.5-11.8-7.6-11.8s-7.1,3.4-7.4,10.2v2.5Z"/>
    <path class="st0" d="M1073.7,833.1l.4,5.2c3-4,7.2-6,12.6-6s8,1.4,10.3,4.1c2.3,2.7,3.4,6.9,3.5,12.4v28.3h-13.7v-27.8c0-2.2-.4-3.9-1.3-4.9-.9-1-2.5-1.6-4.9-1.6s-4.7,1.1-6,3.2v31h-13.7v-44h12.8Z"/>
    <path class="st0" d="M1129.4,877.9c-6.7,0-12.2-2-16.4-6-4.2-4-6.3-9.3-6.3-15.7v-1.1c0-4.5.8-8.5,2.5-11.9s4.1-6.1,7.3-8c3.2-1.9,7-2.8,11.4-2.8s11.1,1.9,14.6,5.8c3.6,3.8,5.4,9.2,5.4,16v5.3h-27.2c.5,2.5,1.6,4.4,3.2,5.8,1.7,1.4,3.8,2.1,6.4,2.1,4.3,0,7.7-1.5,10.2-4.6l6.3,7.4c-1.7,2.4-4.1,4.2-7.3,5.6-3.1,1.4-6.5,2.1-10.1,2.1ZM1127.8,842.8c-4,0-6.4,2.7-7.2,8h13.8v-1.1c0-2.2-.5-3.9-1.7-5.1-1.2-1.2-2.8-1.8-5-1.8Z"/>
  </g>
  <g>
    <g>
      <path class="st0" d="M939.1,487.9c-14.5,0-26.3,11.8-26.3,26.3s11.8,26.3,26.3,26.3,26.3-11.8,26.3-26.3-11.8-26.3-26.3-26.3h0Z"/>
      <path class="st0" d="M923.2,482.6l-41.4-71.8-1.9,1.1c-36.5,21.1-59.1,60.3-59.1,102.4v2.1h82.9c0-.7-.2-1.4-.2-2.1,0-13.9,8.1-25.8,19.7-31.7Z"/>
      <path class="st0" d="M974.6,514.3c0,.7-.2,1.4-.2,2.1h82.9v-2.1c0-42-22.7-81.3-59.1-102.4l-1.9-1.1-41.4,71.8c11.7,5.8,19.7,17.8,19.7,31.7h0Z"/>
      <path class="st0" d="M919.5,543.9l-41.4,71.7,1.9,1.1c18.3,10.5,38.7,15.8,59.2,15.8s40.9-5.3,59.1-15.8l1.9-1.1-41.4-71.7c-5.6,3.7-12.3,5.9-19.6,5.9s-14-2.2-19.6-5.9h0Z"/>
    </g>
    <path class="st1" d="M937.5,322.2c-104.8,0-190,85.2-190,190s85.2,190,190,190,190-85.2,190-190-85.2-190-190-190h0ZM788.8,512.3c0-45.2,20.3-85.6,52.2-112.9l160.8,246.6c-19.5,9.4-41.3,14.9-64.4,14.9-81.9,0-148.6-66.7-148.6-148.6h0ZM1036.3,623l-160.3-245.8c18.8-8.6,39.5-13.5,61.5-13.5,82,0,148.6,66.7,148.6,148.6s-19.3,83.5-49.8,110.7Z"/>
  </g>
</svg>