<svg width="1059" height="282" viewBox="0 0 1059 282" fill="none" xmlns="http://www.w3.org/2000/svg">
<rect width="1058.67" height="170.707" rx="5" fill="url(#paint0_linear_128_351)"/>
<mask id="mask0_128_351" style="mask-type:alpha" maskUnits="userSpaceOnUse" x="55" y="51" width="68" height="69">
<rect x="55.4603" y="51.5938" width="67.5198" height="67.5198" fill="#D9D9D9"/>
</mask>
<g mask="url(#mask0_128_351)">
<path d="M79.6549 87.3229C80.2175 87.3229 80.6864 87.1237 81.0615 86.7251C81.4366 86.3266 81.6242 85.8694 81.6242 85.3536C81.6242 84.8378 81.4366 84.3807 81.0615 83.9821C80.6864 83.5836 80.2175 83.3843 79.6549 83.3843C79.1391 83.3843 78.6819 83.5836 78.2834 83.9821C77.8848 84.3807 77.6855 84.8378 77.6855 85.3536C77.6855 85.8694 77.8848 86.3266 78.2834 86.7251C78.6819 87.1237 79.1391 87.3229 79.6549 87.3229ZM93.8621 79.1643C94.4248 79.1643 94.8937 78.965 95.2688 78.5665C95.6439 78.1679 95.8315 77.7107 95.8315 77.195C95.8315 76.6792 95.6439 76.222 95.2688 75.8235C94.8937 75.4249 94.4248 75.2256 93.8621 75.2256C93.3464 75.2256 92.8892 75.4249 92.4906 75.8235C92.0921 76.222 91.8928 76.6792 91.8928 77.195C91.8928 77.7107 92.0921 78.1679 92.4906 78.5665C92.8892 78.965 93.3464 79.1643 93.8621 79.1643ZM84.5782 79.1643C85.0939 79.1643 85.5511 78.965 85.9497 78.5665C86.3482 78.1679 86.5475 77.7107 86.5475 77.195C86.5475 76.6792 86.3482 76.222 85.9497 75.8235C85.5511 75.4249 85.0939 75.2256 84.5782 75.2256C84.0624 75.2256 83.6052 75.4249 83.2067 75.8235C82.8081 76.222 82.6088 76.6792 82.6088 77.195C82.6088 77.7107 82.8081 78.1679 83.2067 78.5665C83.6052 78.965 84.0624 79.1643 84.5782 79.1643ZM84.5782 95.4816C85.0939 95.4816 85.5511 95.2823 85.9497 94.8837C86.3482 94.4852 86.5475 94.028 86.5475 93.5122C86.5475 92.9965 86.3482 92.5393 85.9497 92.1408C85.5511 91.7422 85.0939 91.5429 84.5782 91.5429C84.0624 91.5429 83.6052 91.7422 83.2067 92.1408C82.8081 92.5393 82.6088 92.9965 82.6088 93.5122C82.6088 94.028 82.8081 94.4852 83.2067 94.8837C83.6052 95.2823 84.0624 95.4816 84.5782 95.4816ZM87.1102 111.729C86.7819 111.729 86.5006 111.623 86.2662 111.412C86.0317 111.201 85.9145 110.931 85.9145 110.603C85.9145 110.275 86.0317 109.994 86.2662 109.759C86.5006 109.525 86.7819 109.408 87.1102 109.408H88.0245V103.078C85.9145 102.843 83.9686 102.351 82.1868 101.601C80.4051 100.85 78.8109 99.8657 77.4042 98.6466L72.9029 103.148L73.6765 103.851C73.8641 104.039 73.9813 104.285 74.0282 104.59C74.0751 104.894 73.9579 105.188 73.6765 105.469C73.4421 105.75 73.1608 105.879 72.8325 105.856C72.5043 105.832 72.223 105.703 71.9885 105.469L69.0346 102.585C68.8001 102.304 68.6829 102.023 68.6829 101.741C68.6829 101.46 68.8001 101.179 69.0346 100.897C69.3159 100.663 69.5972 100.546 69.8786 100.546C70.1599 100.546 70.4412 100.686 70.7226 100.968L71.3555 101.53L75.7865 97.0289C74.5205 95.4816 73.5359 93.8756 72.8325 92.2111C72.1292 90.5465 71.6838 88.6593 71.4962 86.5493H65.1662V87.4636C65.1662 87.7918 65.049 88.0732 64.8146 88.3076C64.5801 88.542 64.2988 88.6593 63.9706 88.6593C63.6424 88.6593 63.3727 88.542 63.1617 88.3076C62.9507 88.0732 62.8452 87.7918 62.8452 87.4636V83.2436C62.8452 82.9154 62.9507 82.6341 63.1617 82.3996C63.3727 82.1652 63.6424 82.048 63.9706 82.048C64.2988 82.048 64.5801 82.1652 64.8146 82.3996C65.049 82.6341 65.1662 82.9154 65.1662 83.2436V84.1579H71.4962C71.6838 82.048 72.1409 80.149 72.8677 78.461C73.5945 76.773 74.5909 75.1788 75.8569 73.6783L71.3555 69.177L70.7226 69.81C70.4412 70.0913 70.1599 70.2203 69.8786 70.1968C69.5972 70.1734 69.3159 70.0444 69.0346 69.81C68.8001 69.5756 68.6829 69.3059 68.6829 69.0012C68.6829 68.6964 68.8001 68.4033 69.0346 68.122L71.9885 65.168C72.2699 64.9336 72.5629 64.8163 72.8677 64.8163C73.1725 64.8163 73.4655 64.9336 73.7469 65.168C73.9813 65.4025 74.0868 65.6721 74.0634 65.9768C74.0399 66.2816 73.911 66.5512 73.6765 66.7857L72.9732 67.489L77.4745 71.9903C79.0219 70.7243 80.6278 69.7397 82.2923 69.0363C83.9569 68.333 85.8442 67.8641 87.9542 67.6297V61.2997H87.1102C86.7819 61.2997 86.5006 61.1825 86.2662 60.948C86.0317 60.7136 85.9145 60.4322 85.9145 60.104C85.9145 59.7758 86.0317 59.5062 86.2662 59.2952C86.5006 59.0842 86.7819 58.9787 87.1102 58.9787H91.3301C91.6584 58.9787 91.9397 59.0842 92.1741 59.2952C92.4086 59.5062 92.5258 59.7758 92.5258 60.104C92.5258 60.4322 92.4086 60.7136 92.1741 60.948C91.9397 61.1825 91.6584 61.2997 91.3301 61.2997H90.4158V67.6297C92.5258 67.8641 94.4131 68.333 96.0776 69.0363C97.7422 69.7397 99.3481 70.7243 100.895 71.9903L105.397 67.489L104.764 66.856C104.482 66.6216 104.342 66.352 104.342 66.0472C104.342 65.7424 104.459 65.4493 104.693 65.168C104.975 64.9336 105.256 64.8163 105.537 64.8163C105.819 64.8163 106.1 64.9336 106.381 65.168L109.406 68.2627C109.687 68.4971 109.816 68.755 109.793 69.0363C109.769 69.3177 109.64 69.599 109.406 69.8803C109.124 70.1148 108.843 70.2085 108.562 70.1617C108.28 70.1148 107.999 69.9741 107.718 69.7397L107.085 69.1067L102.583 73.608C103.849 75.1553 104.846 76.7847 105.573 78.4961C106.299 80.2076 106.757 82.0948 106.944 84.1579H113.274V83.2436C113.274 82.9154 113.391 82.6341 113.626 82.3996C113.86 82.1652 114.142 82.048 114.47 82.048C114.798 82.048 115.068 82.1652 115.279 82.3996C115.49 82.6341 115.595 82.9154 115.595 83.2436V87.4636C115.595 87.7918 115.49 88.0732 115.279 88.3076C115.068 88.542 114.798 88.6593 114.47 88.6593C114.142 88.6593 113.86 88.542 113.626 88.3076C113.391 88.0732 113.274 87.7918 113.274 87.4636V86.5493H106.944C106.757 88.6593 106.299 90.5583 105.573 92.2463C104.846 93.9342 103.849 95.5519 102.583 97.0992L107.085 101.601L107.788 100.897C108.023 100.663 108.292 100.534 108.597 100.51C108.902 100.487 109.171 100.592 109.406 100.827C109.64 101.061 109.757 101.343 109.757 101.671C109.757 101.999 109.64 102.304 109.406 102.585L106.452 105.539C106.217 105.774 105.936 105.891 105.608 105.891C105.28 105.891 104.998 105.774 104.764 105.539C104.482 105.258 104.365 104.977 104.412 104.695C104.459 104.414 104.553 104.156 104.693 103.922L105.397 103.218L100.895 98.7169C99.4419 99.936 97.8711 100.921 96.1831 101.671C94.4951 102.421 92.5727 102.913 90.4158 103.148V109.408H91.3301C91.6584 109.408 91.9397 109.525 92.1741 109.759C92.4086 109.994 92.5258 110.275 92.5258 110.603C92.5258 110.931 92.4086 111.201 92.1741 111.412C91.9397 111.623 91.6584 111.729 91.3301 111.729H87.1102ZM89.2202 99.9126C93.2526 99.9126 96.6872 98.4942 99.524 95.6574C102.361 92.8206 103.779 89.386 103.779 85.3536C103.779 81.3212 102.361 77.8866 99.524 75.0498C96.6872 72.213 93.2526 70.7947 89.2202 70.7947C85.1877 70.7947 81.7531 72.213 78.9164 75.0498C76.0796 77.8866 74.6612 81.3212 74.6612 85.3536C74.6612 89.386 76.0796 92.8206 78.9164 95.6574C81.7531 98.4942 85.1877 99.9126 89.2202 99.9126ZM89.2202 87.3229C89.7359 87.3229 90.1931 87.1237 90.5917 86.7251C90.9902 86.3266 91.1895 85.8694 91.1895 85.3536C91.1895 84.8378 90.9902 84.3807 90.5917 83.9821C90.1931 83.5836 89.7359 83.3843 89.2202 83.3843C88.7044 83.3843 88.2472 83.5836 87.8487 83.9821C87.4501 84.3807 87.2508 84.8378 87.2508 85.3536C87.2508 85.8694 87.4501 86.3266 87.8487 86.7251C88.2472 87.1237 88.7044 87.3229 89.2202 87.3229ZM98.7855 87.3229C99.3481 87.3229 99.817 87.1237 100.192 86.7251C100.567 86.3266 100.755 85.8694 100.755 85.3536C100.755 84.8378 100.567 84.3807 100.192 83.9821C99.817 83.5836 99.3481 83.3843 98.7855 83.3843C98.2697 83.3843 97.8125 83.5836 97.414 83.9821C97.0154 84.3807 96.8161 84.8378 96.8161 85.3536C96.8161 85.8694 97.0154 86.3266 97.414 86.7251C97.8125 87.1237 98.2697 87.3229 98.7855 87.3229ZM93.8621 95.4816C94.4248 95.4816 94.8937 95.2823 95.2688 94.8837C95.6439 94.4852 95.8315 94.028 95.8315 93.5122C95.8315 92.9965 95.6439 92.5393 95.2688 92.1408C94.8937 91.7422 94.4248 91.5429 93.8621 91.5429C93.3464 91.5429 92.8892 91.7422 92.4906 92.1408C92.0921 92.5393 91.8928 92.9965 91.8928 93.5122C91.8928 94.028 92.0921 94.4852 92.4906 94.8837C92.8892 95.2823 93.3464 95.4816 93.8621 95.4816Z" fill="#1C1B1F"/>
</g>
<path d="M135.886 85.713H130.121L130.089 83.2911H135.324C136.188 83.2911 136.944 83.1453 137.589 82.8536C138.235 82.562 138.735 82.1453 139.089 81.6036C139.454 81.0516 139.636 80.3953 139.636 79.6349C139.636 78.8016 139.475 78.1245 139.152 77.6036C138.839 77.0724 138.355 76.687 137.699 76.4474C137.053 76.1974 136.23 76.0724 135.23 76.0724H130.793V96.3536H127.777V73.6036H135.23C136.397 73.6036 137.438 73.7234 138.355 73.963C139.272 74.1922 140.048 74.5568 140.683 75.0568C141.329 75.5463 141.819 76.1713 142.152 76.9318C142.485 77.6922 142.652 78.6036 142.652 79.6661C142.652 80.6036 142.412 81.4526 141.933 82.213C141.454 82.963 140.787 83.5776 139.933 84.0568C139.089 84.5359 138.1 84.8432 136.964 84.9786L135.886 85.713ZM135.746 96.3536H128.933L130.636 93.9005H135.746C136.704 93.9005 137.516 93.7338 138.183 93.4005C138.86 93.0672 139.376 92.5984 139.73 91.9943C140.084 91.3797 140.261 90.6557 140.261 89.8224C140.261 88.9786 140.11 88.2495 139.808 87.6349C139.506 87.0203 139.032 86.5463 138.386 86.213C137.74 85.8797 136.907 85.713 135.886 85.713H131.589L131.621 83.2911H137.496L138.136 84.1661C139.23 84.2599 140.157 84.5724 140.918 85.1036C141.678 85.6245 142.256 86.2911 142.652 87.1036C143.058 87.9161 143.261 88.812 143.261 89.7911C143.261 91.2078 142.949 92.4057 142.324 93.3849C141.709 94.3536 140.839 95.0932 139.714 95.6036C138.589 96.1036 137.266 96.3536 135.746 96.3536ZM150.418 79.4474V96.3536H147.511V79.4474H150.418ZM147.293 74.963C147.293 74.4943 147.433 74.0984 147.714 73.7755C148.006 73.4526 148.433 73.2911 148.996 73.2911C149.548 73.2911 149.97 73.4526 150.261 73.7755C150.563 74.0984 150.714 74.4943 150.714 74.963C150.714 75.4109 150.563 75.7963 150.261 76.1193C149.97 76.4318 149.548 76.588 148.996 76.588C148.433 76.588 148.006 76.4318 147.714 76.1193C147.433 75.7963 147.293 75.4109 147.293 74.963ZM154.293 88.088V87.7286C154.293 86.5099 154.47 85.3797 154.824 84.338C155.178 83.2859 155.688 82.3745 156.355 81.6036C157.022 80.8224 157.829 80.2182 158.777 79.7911C159.725 79.3536 160.787 79.1349 161.964 79.1349C163.152 79.1349 164.22 79.3536 165.168 79.7911C166.126 80.2182 166.938 80.8224 167.605 81.6036C168.282 82.3745 168.798 83.2859 169.152 84.338C169.506 85.3797 169.683 86.5099 169.683 87.7286V88.088C169.683 89.3068 169.506 90.437 169.152 91.4786C168.798 92.5203 168.282 93.4318 167.605 94.213C166.938 94.9838 166.131 95.588 165.183 96.0255C164.246 96.4526 163.183 96.6661 161.996 96.6661C160.808 96.6661 159.74 96.4526 158.793 96.0255C157.845 95.588 157.032 94.9838 156.355 94.213C155.688 93.4318 155.178 92.5203 154.824 91.4786C154.47 90.437 154.293 89.3068 154.293 88.088ZM157.183 87.7286V88.088C157.183 88.9318 157.282 89.7286 157.48 90.4786C157.678 91.2182 157.975 91.8745 158.371 92.4474C158.777 93.0203 159.282 93.4734 159.886 93.8068C160.49 94.1297 161.194 94.2911 161.996 94.2911C162.787 94.2911 163.48 94.1297 164.074 93.8068C164.678 93.4734 165.178 93.0203 165.574 92.4474C165.97 91.8745 166.266 91.2182 166.464 90.4786C166.673 89.7286 166.777 88.9318 166.777 88.088V87.7286C166.777 86.8953 166.673 86.1088 166.464 85.3693C166.266 84.6193 165.964 83.9578 165.558 83.3849C165.162 82.8016 164.662 82.3432 164.058 82.0099C163.464 81.6766 162.766 81.5099 161.964 81.5099C161.173 81.5099 160.475 81.6766 159.871 82.0099C159.277 82.3432 158.777 82.8016 158.371 83.3849C157.975 83.9578 157.678 84.6193 157.48 85.3693C157.282 86.1088 157.183 86.8953 157.183 87.7286ZM176.449 72.3536V96.3536H173.543V72.3536H176.449ZM180.324 88.088V87.7286C180.324 86.5099 180.501 85.3797 180.855 84.338C181.209 83.2859 181.72 82.3745 182.386 81.6036C183.053 80.8224 183.86 80.2182 184.808 79.7911C185.756 79.3536 186.819 79.1349 187.996 79.1349C189.183 79.1349 190.251 79.3536 191.199 79.7911C192.157 80.2182 192.97 80.8224 193.636 81.6036C194.313 82.3745 194.829 83.2859 195.183 84.338C195.537 85.3797 195.714 86.5099 195.714 87.7286V88.088C195.714 89.3068 195.537 90.437 195.183 91.4786C194.829 92.5203 194.313 93.4318 193.636 94.213C192.97 94.9838 192.162 95.588 191.214 96.0255C190.277 96.4526 189.214 96.6661 188.027 96.6661C186.839 96.6661 185.772 96.4526 184.824 96.0255C183.876 95.588 183.063 94.9838 182.386 94.213C181.72 93.4318 181.209 92.5203 180.855 91.4786C180.501 90.437 180.324 89.3068 180.324 88.088ZM183.214 87.7286V88.088C183.214 88.9318 183.313 89.7286 183.511 90.4786C183.709 91.2182 184.006 91.8745 184.402 92.4474C184.808 93.0203 185.313 93.4734 185.918 93.8068C186.522 94.1297 187.225 94.2911 188.027 94.2911C188.819 94.2911 189.511 94.1297 190.105 93.8068C190.709 93.4734 191.209 93.0203 191.605 92.4474C192.001 91.8745 192.298 91.2182 192.496 90.4786C192.704 89.7286 192.808 88.9318 192.808 88.088V87.7286C192.808 86.8953 192.704 86.1088 192.496 85.3693C192.298 84.6193 191.996 83.9578 191.589 83.3849C191.194 82.8016 190.694 82.3432 190.089 82.0099C189.496 81.6766 188.798 81.5099 187.996 81.5099C187.204 81.5099 186.506 81.6766 185.902 82.0099C185.308 82.3432 184.808 82.8016 184.402 83.3849C184.006 83.9578 183.709 84.6193 183.511 85.3693C183.313 86.1088 183.214 86.8953 183.214 87.7286ZM210.293 79.4474H212.918V95.9943C212.918 97.4838 212.615 98.7547 212.011 99.8068C211.407 100.859 210.563 101.656 209.48 102.197C208.407 102.749 207.168 103.026 205.761 103.026C205.178 103.026 204.49 102.932 203.699 102.744C202.918 102.567 202.147 102.26 201.386 101.822C200.636 101.395 200.006 100.817 199.496 100.088L201.011 98.3693C201.72 99.2234 202.459 99.8172 203.23 100.151C204.011 100.484 204.782 100.651 205.543 100.651C206.459 100.651 207.251 100.479 207.918 100.135C208.584 99.7911 209.1 99.2807 209.464 98.6036C209.839 97.937 210.027 97.1141 210.027 96.1349V83.1661L210.293 79.4474ZM198.652 88.088V87.7599C198.652 86.4682 198.803 85.2963 199.105 84.2443C199.418 83.1818 199.86 82.2703 200.433 81.5099C201.016 80.7495 201.72 80.1661 202.543 79.7599C203.365 79.3432 204.293 79.1349 205.324 79.1349C206.386 79.1349 207.313 79.3224 208.105 79.6974C208.907 80.062 209.584 80.5984 210.136 81.3068C210.699 82.0047 211.141 82.8484 211.464 83.838C211.787 84.8276 212.011 85.9474 212.136 87.1974V88.6349C212.022 89.8745 211.798 90.9891 211.464 91.9786C211.141 92.9682 210.699 93.812 210.136 94.5099C209.584 95.2078 208.907 95.7443 208.105 96.1193C207.303 96.4838 206.365 96.6661 205.293 96.6661C204.282 96.6661 203.365 96.4526 202.543 96.0255C201.73 95.5984 201.032 94.9995 200.449 94.2286C199.865 93.4578 199.418 92.5516 199.105 91.5099C198.803 90.4578 198.652 89.3172 198.652 88.088ZM201.543 87.7599V88.088C201.543 88.9318 201.626 89.7234 201.793 90.463C201.97 91.2026 202.235 91.8536 202.589 92.4161C202.954 92.9786 203.418 93.4213 203.98 93.7443C204.543 94.0568 205.214 94.213 205.996 94.213C206.954 94.213 207.746 94.0099 208.371 93.6036C208.996 93.1974 209.49 92.6609 209.855 91.9943C210.23 91.3276 210.522 90.6036 210.73 89.8224V86.0568C210.615 85.4838 210.438 84.9318 210.199 84.4005C209.97 83.8588 209.668 83.3797 209.293 82.963C208.928 82.5359 208.475 82.1974 207.933 81.9474C207.391 81.6974 206.756 81.5724 206.027 81.5724C205.235 81.5724 204.553 81.7391 203.98 82.0724C203.418 82.3953 202.954 82.8432 202.589 83.4161C202.235 83.9786 201.97 84.6349 201.793 85.3849C201.626 86.1245 201.543 86.9161 201.543 87.7599ZM220.449 79.4474V96.3536H217.543V79.4474H220.449ZM217.324 74.963C217.324 74.4943 217.464 74.0984 217.746 73.7755C218.037 73.4526 218.464 73.2911 219.027 73.2911C219.579 73.2911 220.001 73.4526 220.293 73.7755C220.595 74.0984 220.746 74.4943 220.746 74.963C220.746 75.4109 220.595 75.7963 220.293 76.1193C220.001 76.4318 219.579 76.588 219.027 76.588C218.464 76.588 218.037 76.4318 217.746 76.1193C217.464 75.7963 217.324 75.4109 217.324 74.963ZM231.855 94.2911C232.543 94.2911 233.178 94.1505 233.761 93.8693C234.345 93.588 234.824 93.2026 235.199 92.713C235.574 92.213 235.787 91.6453 235.839 91.0099H238.589C238.537 92.0099 238.199 92.9422 237.574 93.8068C236.959 94.6609 236.152 95.3536 235.152 95.8849C234.152 96.4057 233.053 96.6661 231.855 96.6661C230.584 96.6661 229.475 96.4422 228.527 95.9943C227.589 95.5463 226.808 94.9318 226.183 94.1505C225.569 93.3693 225.105 92.4734 224.793 91.463C224.49 90.4422 224.339 89.3641 224.339 88.2286V87.5724C224.339 86.437 224.49 85.3641 224.793 84.3536C225.105 83.3328 225.569 82.4318 226.183 81.6505C226.808 80.8693 227.589 80.2547 228.527 79.8068C229.475 79.3588 230.584 79.1349 231.855 79.1349C233.178 79.1349 234.334 79.4057 235.324 79.9474C236.313 80.4786 237.089 81.2078 237.652 82.1349C238.225 83.0516 238.537 84.0932 238.589 85.2599H235.839C235.787 84.562 235.589 83.9318 235.246 83.3693C234.912 82.8068 234.454 82.3588 233.871 82.0255C233.298 81.6818 232.626 81.5099 231.855 81.5099C230.97 81.5099 230.225 81.687 229.621 82.0411C229.027 82.3849 228.553 82.8536 228.199 83.4474C227.855 84.0307 227.605 84.6818 227.449 85.4005C227.303 86.1088 227.23 86.8328 227.23 87.5724V88.2286C227.23 88.9682 227.303 89.6974 227.449 90.4161C227.595 91.1349 227.839 91.7859 228.183 92.3693C228.537 92.9526 229.011 93.4213 229.605 93.7755C230.209 94.1193 230.959 94.2911 231.855 94.2911ZM251.808 93.463V84.7599C251.808 84.0932 251.673 83.5151 251.402 83.0255C251.141 82.5255 250.746 82.1401 250.214 81.8693C249.683 81.5984 249.027 81.463 248.246 81.463C247.516 81.463 246.876 81.588 246.324 81.838C245.782 82.088 245.355 82.4161 245.043 82.8224C244.74 83.2286 244.589 83.6661 244.589 84.1349H241.699C241.699 83.5307 241.855 82.9318 242.168 82.338C242.48 81.7443 242.928 81.2078 243.511 80.7286C244.105 80.2391 244.813 79.8536 245.636 79.5724C246.47 79.2807 247.397 79.1349 248.418 79.1349C249.647 79.1349 250.73 79.3432 251.668 79.7599C252.615 80.1766 253.355 80.8068 253.886 81.6505C254.428 82.4838 254.699 83.5307 254.699 84.7911V92.6661C254.699 93.2286 254.746 93.8276 254.839 94.463C254.944 95.0984 255.095 95.6453 255.293 96.1036V96.3536H252.277C252.131 96.0203 252.016 95.5776 251.933 95.0255C251.85 94.463 251.808 93.9422 251.808 93.463ZM252.308 86.1036L252.339 88.1349H249.418C248.595 88.1349 247.86 88.2026 247.214 88.338C246.569 88.463 246.027 88.6557 245.589 88.9161C245.152 89.1766 244.819 89.5047 244.589 89.9005C244.36 90.2859 244.246 90.7391 244.246 91.2599C244.246 91.7911 244.365 92.2755 244.605 92.713C244.845 93.1505 245.204 93.4995 245.683 93.7599C246.173 94.0099 246.772 94.1349 247.48 94.1349C248.365 94.1349 249.147 93.9474 249.824 93.5724C250.501 93.1974 251.037 92.7391 251.433 92.1974C251.839 91.6557 252.058 91.1297 252.089 90.6193L253.324 92.0099C253.251 92.4474 253.053 92.9318 252.73 93.463C252.407 93.9943 251.975 94.5047 251.433 94.9943C250.902 95.4734 250.266 95.8745 249.527 96.1974C248.798 96.5099 247.975 96.6661 247.058 96.6661C245.912 96.6661 244.907 96.4422 244.043 95.9943C243.188 95.5463 242.522 94.9474 242.043 94.1974C241.574 93.437 241.339 92.588 241.339 91.6505C241.339 90.7443 241.516 89.9474 241.871 89.2599C242.225 88.562 242.735 87.9838 243.402 87.5255C244.069 87.0568 244.871 86.7026 245.808 86.463C246.746 86.2234 247.793 86.1036 248.949 86.1036H252.308ZM262.386 72.3536V96.3536H259.48V72.3536H262.386Z" fill="black"/>
<path d="M213.87 204.573V227.323H210.901V204.573H213.87ZM221.182 204.573V207.042H203.604V204.573H221.182ZM221.792 219.058V218.698C221.792 217.479 221.969 216.349 222.323 215.308C222.677 214.256 223.188 213.344 223.854 212.573C224.521 211.792 225.328 211.188 226.276 210.761C227.224 210.323 228.287 210.104 229.464 210.104C230.651 210.104 231.719 210.323 232.667 210.761C233.625 211.188 234.438 211.792 235.104 212.573C235.781 213.344 236.297 214.256 236.651 215.308C237.005 216.349 237.182 217.479 237.182 218.698V219.058C237.182 220.276 237.005 221.407 236.651 222.448C236.297 223.49 235.781 224.401 235.104 225.183C234.438 225.953 233.63 226.558 232.682 226.995C231.745 227.422 230.682 227.636 229.495 227.636C228.307 227.636 227.24 227.422 226.292 226.995C225.344 226.558 224.531 225.953 223.854 225.183C223.188 224.401 222.677 223.49 222.323 222.448C221.969 221.407 221.792 220.276 221.792 219.058ZM224.682 218.698V219.058C224.682 219.901 224.781 220.698 224.979 221.448C225.177 222.188 225.474 222.844 225.87 223.417C226.276 223.99 226.781 224.443 227.385 224.776C227.99 225.099 228.693 225.261 229.495 225.261C230.287 225.261 230.979 225.099 231.573 224.776C232.177 224.443 232.677 223.99 233.073 223.417C233.469 222.844 233.766 222.188 233.964 221.448C234.172 220.698 234.276 219.901 234.276 219.058V218.698C234.276 217.865 234.172 217.078 233.964 216.339C233.766 215.589 233.464 214.927 233.057 214.354C232.662 213.771 232.162 213.313 231.557 212.979C230.964 212.646 230.266 212.479 229.464 212.479C228.672 212.479 227.974 212.646 227.37 212.979C226.776 213.313 226.276 213.771 225.87 214.354C225.474 214.927 225.177 215.589 224.979 216.339C224.781 217.078 224.682 217.865 224.682 218.698ZM242.417 210.417L246.12 216.573L249.87 210.417H253.26L247.729 218.761L253.432 227.323H250.089L246.182 220.979L242.276 227.323H238.917L244.604 218.761L239.089 210.417H242.417ZM259.479 210.417V227.323H256.573V210.417H259.479ZM256.354 205.933C256.354 205.464 256.495 205.068 256.776 204.745C257.068 204.422 257.495 204.261 258.057 204.261C258.609 204.261 259.031 204.422 259.323 204.745C259.625 205.068 259.776 205.464 259.776 205.933C259.776 206.381 259.625 206.766 259.323 207.089C259.031 207.401 258.609 207.558 258.057 207.558C257.495 207.558 257.068 207.401 256.776 207.089C256.495 206.766 256.354 206.381 256.354 205.933ZM267.01 214.026V227.323H264.12V210.417H266.854L267.01 214.026ZM266.323 218.229L265.12 218.183C265.13 217.026 265.302 215.959 265.635 214.979C265.969 213.99 266.438 213.131 267.042 212.401C267.646 211.672 268.365 211.11 269.198 210.714C270.042 210.308 270.974 210.104 271.995 210.104C272.828 210.104 273.578 210.219 274.245 210.448C274.912 210.667 275.479 211.021 275.948 211.511C276.427 212 276.792 212.636 277.042 213.417C277.292 214.188 277.417 215.131 277.417 216.245V227.323H274.51V216.214C274.51 215.328 274.38 214.62 274.12 214.089C273.859 213.547 273.479 213.157 272.979 212.917C272.479 212.667 271.865 212.542 271.135 212.542C270.417 212.542 269.76 212.693 269.167 212.995C268.583 213.297 268.078 213.714 267.651 214.245C267.234 214.776 266.906 215.386 266.667 216.073C266.438 216.75 266.323 217.469 266.323 218.229ZM291.651 222.839C291.651 222.422 291.557 222.037 291.37 221.683C291.193 221.318 290.823 220.99 290.26 220.698C289.708 220.396 288.875 220.136 287.76 219.917C286.823 219.719 285.974 219.485 285.214 219.214C284.464 218.943 283.823 218.615 283.292 218.229C282.771 217.844 282.37 217.391 282.089 216.87C281.807 216.349 281.667 215.74 281.667 215.042C281.667 214.375 281.813 213.745 282.104 213.151C282.406 212.558 282.828 212.032 283.37 211.573C283.922 211.115 284.583 210.756 285.354 210.495C286.125 210.235 286.984 210.104 287.932 210.104C289.287 210.104 290.443 210.344 291.401 210.823C292.359 211.302 293.094 211.943 293.604 212.745C294.115 213.537 294.37 214.417 294.37 215.386H291.479C291.479 214.917 291.339 214.464 291.057 214.026C290.787 213.578 290.385 213.209 289.854 212.917C289.333 212.625 288.693 212.479 287.932 212.479C287.13 212.479 286.479 212.604 285.979 212.854C285.49 213.094 285.13 213.401 284.901 213.776C284.682 214.151 284.573 214.547 284.573 214.964C284.573 215.276 284.625 215.558 284.729 215.808C284.844 216.047 285.042 216.271 285.323 216.479C285.604 216.677 286 216.865 286.51 217.042C287.021 217.219 287.672 217.396 288.464 217.573C289.849 217.886 290.99 218.261 291.885 218.698C292.781 219.136 293.448 219.672 293.885 220.308C294.323 220.943 294.542 221.714 294.542 222.62C294.542 223.36 294.385 224.037 294.073 224.651C293.771 225.266 293.328 225.797 292.745 226.245C292.172 226.683 291.484 227.026 290.682 227.276C289.891 227.516 289 227.636 288.01 227.636C286.521 227.636 285.26 227.37 284.229 226.839C283.198 226.308 282.417 225.62 281.885 224.776C281.354 223.933 281.089 223.042 281.089 222.104H283.995C284.037 222.896 284.266 223.526 284.682 223.995C285.099 224.453 285.609 224.782 286.214 224.979C286.818 225.167 287.417 225.261 288.01 225.261C288.802 225.261 289.464 225.157 289.995 224.948C290.537 224.74 290.948 224.453 291.229 224.089C291.51 223.724 291.651 223.308 291.651 222.839ZM316.245 224.433V215.729C316.245 215.063 316.109 214.485 315.839 213.995C315.578 213.495 315.182 213.11 314.651 212.839C314.12 212.568 313.464 212.433 312.682 212.433C311.953 212.433 311.313 212.558 310.76 212.808C310.219 213.058 309.792 213.386 309.479 213.792C309.177 214.198 309.026 214.636 309.026 215.104H306.135C306.135 214.5 306.292 213.901 306.604 213.308C306.917 212.714 307.365 212.177 307.948 211.698C308.542 211.209 309.25 210.823 310.073 210.542C310.906 210.25 311.833 210.104 312.854 210.104C314.083 210.104 315.167 210.313 316.104 210.729C317.052 211.146 317.792 211.776 318.323 212.62C318.865 213.453 319.135 214.5 319.135 215.761V223.636C319.135 224.198 319.182 224.797 319.276 225.433C319.38 226.068 319.531 226.615 319.729 227.073V227.323H316.714C316.568 226.99 316.453 226.547 316.37 225.995C316.287 225.433 316.245 224.912 316.245 224.433ZM316.745 217.073L316.776 219.104H313.854C313.031 219.104 312.297 219.172 311.651 219.308C311.005 219.433 310.464 219.625 310.026 219.886C309.589 220.146 309.255 220.474 309.026 220.87C308.797 221.256 308.682 221.709 308.682 222.229C308.682 222.761 308.802 223.245 309.042 223.683C309.281 224.12 309.641 224.469 310.12 224.729C310.609 224.979 311.208 225.104 311.917 225.104C312.802 225.104 313.583 224.917 314.26 224.542C314.938 224.167 315.474 223.709 315.87 223.167C316.276 222.625 316.495 222.099 316.526 221.589L317.76 222.979C317.688 223.417 317.49 223.901 317.167 224.433C316.844 224.964 316.412 225.474 315.87 225.964C315.339 226.443 314.703 226.844 313.964 227.167C313.234 227.479 312.412 227.636 311.495 227.636C310.349 227.636 309.344 227.412 308.479 226.964C307.625 226.516 306.958 225.917 306.479 225.167C306.01 224.407 305.776 223.558 305.776 222.62C305.776 221.714 305.953 220.917 306.307 220.229C306.662 219.532 307.172 218.953 307.839 218.495C308.505 218.026 309.307 217.672 310.245 217.433C311.182 217.193 312.229 217.073 313.385 217.073H316.745ZM326.573 214.026V227.323H323.682V210.417H326.417L326.573 214.026ZM325.885 218.229L324.682 218.183C324.693 217.026 324.865 215.959 325.198 214.979C325.531 213.99 326 213.131 326.604 212.401C327.208 211.672 327.927 211.11 328.76 210.714C329.604 210.308 330.537 210.104 331.557 210.104C332.391 210.104 333.141 210.219 333.807 210.448C334.474 210.667 335.042 211.021 335.51 211.511C335.99 212 336.354 212.636 336.604 213.417C336.854 214.188 336.979 215.131 336.979 216.245V227.323H334.073V216.214C334.073 215.328 333.943 214.62 333.682 214.089C333.422 213.547 333.042 213.157 332.542 212.917C332.042 212.667 331.427 212.542 330.698 212.542C329.979 212.542 329.323 212.693 328.729 212.995C328.146 213.297 327.641 213.714 327.214 214.245C326.797 214.776 326.469 215.386 326.229 216.073C326 216.75 325.885 217.469 325.885 218.229ZM352.026 224.042V203.323H354.932V227.323H352.276L352.026 224.042ZM340.651 219.058V218.729C340.651 217.438 340.807 216.266 341.12 215.214C341.443 214.151 341.896 213.24 342.479 212.479C343.073 211.719 343.776 211.136 344.589 210.729C345.412 210.313 346.328 210.104 347.339 210.104C348.401 210.104 349.328 210.292 350.12 210.667C350.922 211.032 351.599 211.568 352.151 212.276C352.714 212.974 353.156 213.818 353.479 214.808C353.802 215.797 354.026 216.917 354.151 218.167V219.604C354.037 220.844 353.813 221.959 353.479 222.948C353.156 223.938 352.714 224.782 352.151 225.479C351.599 226.177 350.922 226.714 350.12 227.089C349.318 227.453 348.38 227.636 347.307 227.636C346.318 227.636 345.412 227.422 344.589 226.995C343.776 226.568 343.073 225.969 342.479 225.198C341.896 224.427 341.443 223.521 341.12 222.479C340.807 221.427 340.651 220.287 340.651 219.058ZM343.557 218.729V219.058C343.557 219.901 343.641 220.693 343.807 221.433C343.984 222.172 344.255 222.823 344.62 223.386C344.984 223.948 345.448 224.391 346.01 224.714C346.573 225.026 347.245 225.183 348.026 225.183C348.984 225.183 349.771 224.979 350.385 224.573C351.01 224.167 351.51 223.631 351.885 222.964C352.26 222.297 352.552 221.573 352.76 220.792V217.026C352.635 216.453 352.453 215.901 352.214 215.37C351.984 214.828 351.682 214.349 351.307 213.933C350.943 213.506 350.49 213.167 349.948 212.917C349.417 212.667 348.787 212.542 348.057 212.542C347.266 212.542 346.583 212.709 346.01 213.042C345.448 213.365 344.984 213.813 344.62 214.386C344.255 214.948 343.984 215.604 343.807 216.354C343.641 217.094 343.557 217.886 343.557 218.729ZM375.917 216.683H370.151L370.12 214.261H375.354C376.219 214.261 376.974 214.115 377.62 213.823C378.266 213.532 378.766 213.115 379.12 212.573C379.484 212.021 379.667 211.365 379.667 210.604C379.667 209.771 379.505 209.094 379.182 208.573C378.87 208.042 378.385 207.657 377.729 207.417C377.083 207.167 376.26 207.042 375.26 207.042H370.823V227.323H367.807V204.573H375.26C376.427 204.573 377.469 204.693 378.385 204.933C379.302 205.162 380.078 205.526 380.714 206.026C381.359 206.516 381.849 207.141 382.182 207.901C382.516 208.662 382.682 209.573 382.682 210.636C382.682 211.573 382.443 212.422 381.964 213.183C381.484 213.933 380.818 214.547 379.964 215.026C379.12 215.506 378.13 215.813 376.995 215.948L375.917 216.683ZM375.776 227.323H368.964L370.667 224.87H375.776C376.734 224.87 377.547 224.703 378.214 224.37C378.891 224.037 379.406 223.568 379.76 222.964C380.115 222.349 380.292 221.625 380.292 220.792C380.292 219.948 380.141 219.219 379.839 218.604C379.537 217.99 379.063 217.516 378.417 217.183C377.771 216.849 376.938 216.683 375.917 216.683H371.62L371.651 214.261H377.526L378.167 215.136C379.26 215.229 380.188 215.542 380.948 216.073C381.708 216.594 382.287 217.261 382.682 218.073C383.089 218.886 383.292 219.782 383.292 220.761C383.292 222.177 382.979 223.375 382.354 224.354C381.74 225.323 380.87 226.063 379.745 226.573C378.62 227.073 377.297 227.323 375.776 227.323ZM390.448 210.417V227.323H387.542V210.417H390.448ZM387.323 205.933C387.323 205.464 387.464 205.068 387.745 204.745C388.037 204.422 388.464 204.261 389.026 204.261C389.578 204.261 390 204.422 390.292 204.745C390.594 205.068 390.745 205.464 390.745 205.933C390.745 206.381 390.594 206.766 390.292 207.089C390 207.401 389.578 207.558 389.026 207.558C388.464 207.558 388.037 207.401 387.745 207.089C387.464 206.766 387.323 206.381 387.323 205.933ZM394.323 219.058V218.698C394.323 217.479 394.5 216.349 394.854 215.308C395.208 214.256 395.719 213.344 396.385 212.573C397.052 211.792 397.859 211.188 398.807 210.761C399.755 210.323 400.818 210.104 401.995 210.104C403.182 210.104 404.25 210.323 405.198 210.761C406.156 211.188 406.969 211.792 407.635 212.573C408.313 213.344 408.828 214.256 409.182 215.308C409.537 216.349 409.714 217.479 409.714 218.698V219.058C409.714 220.276 409.537 221.407 409.182 222.448C408.828 223.49 408.313 224.401 407.635 225.183C406.969 225.953 406.162 226.558 405.214 226.995C404.276 227.422 403.214 227.636 402.026 227.636C400.839 227.636 399.771 227.422 398.823 226.995C397.875 226.558 397.063 225.953 396.385 225.183C395.719 224.401 395.208 223.49 394.854 222.448C394.5 221.407 394.323 220.276 394.323 219.058ZM397.214 218.698V219.058C397.214 219.901 397.313 220.698 397.51 221.448C397.708 222.188 398.005 222.844 398.401 223.417C398.807 223.99 399.313 224.443 399.917 224.776C400.521 225.099 401.224 225.261 402.026 225.261C402.818 225.261 403.51 225.099 404.104 224.776C404.708 224.443 405.208 223.99 405.604 223.417C406 222.844 406.297 222.188 406.495 221.448C406.703 220.698 406.807 219.901 406.807 219.058V218.698C406.807 217.865 406.703 217.078 406.495 216.339C406.297 215.589 405.995 214.927 405.589 214.354C405.193 213.771 404.693 213.313 404.089 212.979C403.495 212.646 402.797 212.479 401.995 212.479C401.203 212.479 400.505 212.646 399.901 212.979C399.307 213.313 398.807 213.771 398.401 214.354C398.005 214.927 397.708 215.589 397.51 216.339C397.313 217.078 397.214 217.865 397.214 218.698ZM423.307 224.433V215.729C423.307 215.063 423.172 214.485 422.901 213.995C422.641 213.495 422.245 213.11 421.714 212.839C421.182 212.568 420.526 212.433 419.745 212.433C419.016 212.433 418.375 212.558 417.823 212.808C417.281 213.058 416.854 213.386 416.542 213.792C416.24 214.198 416.089 214.636 416.089 215.104H413.198C413.198 214.5 413.354 213.901 413.667 213.308C413.979 212.714 414.427 212.177 415.01 211.698C415.604 211.209 416.313 210.823 417.135 210.542C417.969 210.25 418.896 210.104 419.917 210.104C421.146 210.104 422.229 210.313 423.167 210.729C424.115 211.146 424.854 211.776 425.385 212.62C425.927 213.453 426.198 214.5 426.198 215.761V223.636C426.198 224.198 426.245 224.797 426.339 225.433C426.443 226.068 426.594 226.615 426.792 227.073V227.323H423.776C423.63 226.99 423.516 226.547 423.432 225.995C423.349 225.433 423.307 224.912 423.307 224.433ZM423.807 217.073L423.839 219.104H420.917C420.094 219.104 419.359 219.172 418.714 219.308C418.068 219.433 417.526 219.625 417.089 219.886C416.651 220.146 416.318 220.474 416.089 220.87C415.859 221.256 415.745 221.709 415.745 222.229C415.745 222.761 415.865 223.245 416.104 223.683C416.344 224.12 416.703 224.469 417.182 224.729C417.672 224.979 418.271 225.104 418.979 225.104C419.865 225.104 420.646 224.917 421.323 224.542C422 224.167 422.537 223.709 422.932 223.167C423.339 222.625 423.557 222.099 423.589 221.589L424.823 222.979C424.75 223.417 424.552 223.901 424.229 224.433C423.906 224.964 423.474 225.474 422.932 225.964C422.401 226.443 421.766 226.844 421.026 227.167C420.297 227.479 419.474 227.636 418.557 227.636C417.412 227.636 416.406 227.412 415.542 226.964C414.688 226.516 414.021 225.917 413.542 225.167C413.073 224.407 412.839 223.558 412.839 222.62C412.839 221.714 413.016 220.917 413.37 220.229C413.724 219.532 414.234 218.953 414.901 218.495C415.568 218.026 416.37 217.672 417.307 217.433C418.245 217.193 419.292 217.073 420.448 217.073H423.807ZM437.51 225.261C438.198 225.261 438.833 225.12 439.417 224.839C440 224.558 440.479 224.172 440.854 223.683C441.229 223.183 441.443 222.615 441.495 221.979H444.245C444.193 222.979 443.854 223.912 443.229 224.776C442.615 225.631 441.807 226.323 440.807 226.854C439.807 227.375 438.708 227.636 437.51 227.636C436.24 227.636 435.13 227.412 434.182 226.964C433.245 226.516 432.464 225.901 431.839 225.12C431.224 224.339 430.76 223.443 430.448 222.433C430.146 221.412 429.995 220.334 429.995 219.198V218.542C429.995 217.407 430.146 216.334 430.448 215.323C430.76 214.302 431.224 213.401 431.839 212.62C432.464 211.839 433.245 211.224 434.182 210.776C435.13 210.328 436.24 210.104 437.51 210.104C438.833 210.104 439.99 210.375 440.979 210.917C441.969 211.448 442.745 212.177 443.307 213.104C443.88 214.021 444.193 215.063 444.245 216.229H441.495C441.443 215.532 441.245 214.901 440.901 214.339C440.568 213.776 440.109 213.328 439.526 212.995C438.953 212.651 438.281 212.479 437.51 212.479C436.625 212.479 435.88 212.657 435.276 213.011C434.682 213.354 434.208 213.823 433.854 214.417C433.51 215 433.26 215.651 433.104 216.37C432.958 217.078 432.885 217.802 432.885 218.542V219.198C432.885 219.938 432.958 220.667 433.104 221.386C433.25 222.104 433.495 222.756 433.839 223.339C434.193 223.922 434.667 224.391 435.26 224.745C435.865 225.089 436.615 225.261 437.51 225.261ZM454.573 210.417V212.636H445.432V210.417H454.573ZM448.526 206.308H451.417V223.136C451.417 223.709 451.505 224.141 451.682 224.433C451.859 224.724 452.089 224.917 452.37 225.011C452.651 225.104 452.953 225.151 453.276 225.151C453.516 225.151 453.766 225.131 454.026 225.089C454.297 225.037 454.5 224.995 454.635 224.964L454.651 227.323C454.422 227.396 454.12 227.464 453.745 227.526C453.38 227.599 452.938 227.636 452.417 227.636C451.708 227.636 451.057 227.495 450.464 227.214C449.87 226.933 449.396 226.464 449.042 225.808C448.698 225.141 448.526 224.245 448.526 223.12V206.308ZM461.104 210.417V227.323H458.198V210.417H461.104ZM457.979 205.933C457.979 205.464 458.12 205.068 458.401 204.745C458.693 204.422 459.12 204.261 459.682 204.261C460.234 204.261 460.656 204.422 460.948 204.745C461.25 205.068 461.401 205.464 461.401 205.933C461.401 206.381 461.25 206.766 460.948 207.089C460.656 207.401 460.234 207.558 459.682 207.558C459.12 207.558 458.693 207.401 458.401 207.089C458.12 206.766 457.979 206.381 457.979 205.933ZM470.885 224.714L475.51 210.417H478.464L472.385 227.323H470.448L470.885 224.714ZM467.026 210.417L471.792 224.792L472.12 227.323H470.182L464.057 210.417H467.026ZM488.042 227.636C486.865 227.636 485.797 227.438 484.839 227.042C483.891 226.636 483.073 226.068 482.385 225.339C481.708 224.61 481.188 223.745 480.823 222.745C480.458 221.745 480.276 220.651 480.276 219.464V218.808C480.276 217.433 480.479 216.209 480.885 215.136C481.292 214.052 481.844 213.136 482.542 212.386C483.24 211.636 484.031 211.068 484.917 210.683C485.802 210.297 486.719 210.104 487.667 210.104C488.875 210.104 489.917 210.313 490.792 210.729C491.677 211.146 492.401 211.729 492.964 212.479C493.526 213.219 493.943 214.094 494.214 215.104C494.484 216.104 494.62 217.198 494.62 218.386V219.683H481.995V217.323H491.729V217.104C491.688 216.354 491.531 215.625 491.26 214.917C491 214.209 490.583 213.625 490.01 213.167C489.438 212.709 488.656 212.479 487.667 212.479C487.01 212.479 486.406 212.62 485.854 212.901C485.302 213.172 484.828 213.578 484.432 214.12C484.037 214.662 483.729 215.323 483.51 216.104C483.292 216.886 483.182 217.787 483.182 218.808V219.464C483.182 220.266 483.292 221.021 483.51 221.729C483.74 222.427 484.068 223.042 484.495 223.573C484.932 224.104 485.458 224.521 486.073 224.823C486.698 225.125 487.406 225.276 488.198 225.276C489.219 225.276 490.083 225.068 490.792 224.651C491.5 224.235 492.12 223.677 492.651 222.979L494.401 224.37C494.037 224.922 493.573 225.448 493.01 225.948C492.448 226.448 491.755 226.854 490.932 227.167C490.12 227.479 489.156 227.636 488.042 227.636ZM279.589 242.573H282.51L289.964 261.12L297.401 242.573H300.339L291.089 265.323H288.807L279.589 242.573ZM278.635 242.573H281.214L281.635 256.448V265.323H278.635V242.573ZM298.698 242.573H301.276V265.323H298.276V256.448L298.698 242.573ZM305.37 257.058V256.698C305.37 255.479 305.547 254.349 305.901 253.308C306.255 252.256 306.766 251.344 307.432 250.573C308.099 249.792 308.906 249.188 309.854 248.761C310.802 248.323 311.865 248.104 313.042 248.104C314.229 248.104 315.297 248.323 316.245 248.761C317.203 249.188 318.016 249.792 318.682 250.573C319.359 251.344 319.875 252.256 320.229 253.308C320.583 254.349 320.76 255.479 320.76 256.698V257.058C320.76 258.276 320.583 259.407 320.229 260.448C319.875 261.49 319.359 262.401 318.682 263.183C318.016 263.953 317.208 264.558 316.26 264.995C315.323 265.422 314.26 265.636 313.073 265.636C311.885 265.636 310.818 265.422 309.87 264.995C308.922 264.558 308.109 263.953 307.432 263.183C306.766 262.401 306.255 261.49 305.901 260.448C305.547 259.407 305.37 258.276 305.37 257.058ZM308.26 256.698V257.058C308.26 257.901 308.359 258.698 308.557 259.448C308.755 260.188 309.052 260.844 309.448 261.417C309.854 261.99 310.359 262.443 310.964 262.776C311.568 263.099 312.271 263.261 313.073 263.261C313.865 263.261 314.557 263.099 315.151 262.776C315.755 262.443 316.255 261.99 316.651 261.417C317.047 260.844 317.344 260.188 317.542 259.448C317.75 258.698 317.854 257.901 317.854 257.058V256.698C317.854 255.865 317.75 255.078 317.542 254.339C317.344 253.589 317.042 252.927 316.635 252.354C316.24 251.771 315.74 251.313 315.135 250.979C314.542 250.646 313.844 250.479 313.042 250.479C312.25 250.479 311.552 250.646 310.948 250.979C310.354 251.313 309.854 251.771 309.448 252.354C309.052 252.927 308.755 253.589 308.557 254.339C308.359 255.078 308.26 255.865 308.26 256.698ZM327.526 241.323V265.323H324.62V241.323H327.526ZM339.182 265.636C338.005 265.636 336.938 265.438 335.979 265.042C335.031 264.636 334.214 264.068 333.526 263.339C332.849 262.61 332.328 261.745 331.964 260.745C331.599 259.745 331.417 258.651 331.417 257.464V256.808C331.417 255.433 331.62 254.209 332.026 253.136C332.432 252.052 332.984 251.136 333.682 250.386C334.38 249.636 335.172 249.068 336.057 248.683C336.943 248.297 337.859 248.104 338.807 248.104C340.016 248.104 341.057 248.313 341.932 248.729C342.818 249.146 343.542 249.729 344.104 250.479C344.667 251.219 345.083 252.094 345.354 253.104C345.625 254.104 345.76 255.198 345.76 256.386V257.683H333.135V255.323H342.87V255.104C342.828 254.354 342.672 253.625 342.401 252.917C342.141 252.209 341.724 251.625 341.151 251.167C340.578 250.709 339.797 250.479 338.807 250.479C338.151 250.479 337.547 250.62 336.995 250.901C336.443 251.172 335.969 251.578 335.573 252.12C335.177 252.662 334.87 253.323 334.651 254.104C334.432 254.886 334.323 255.787 334.323 256.808V257.464C334.323 258.266 334.432 259.021 334.651 259.729C334.88 260.427 335.208 261.042 335.635 261.573C336.073 262.104 336.599 262.521 337.214 262.823C337.839 263.125 338.547 263.276 339.339 263.276C340.359 263.276 341.224 263.068 341.932 262.651C342.641 262.235 343.26 261.677 343.792 260.979L345.542 262.37C345.177 262.922 344.714 263.448 344.151 263.948C343.589 264.448 342.896 264.854 342.073 265.167C341.26 265.479 340.297 265.636 339.182 265.636ZM355.901 263.261C356.589 263.261 357.224 263.12 357.807 262.839C358.391 262.558 358.87 262.172 359.245 261.683C359.62 261.183 359.833 260.615 359.885 259.979H362.635C362.583 260.979 362.245 261.912 361.62 262.776C361.005 263.631 360.198 264.323 359.198 264.854C358.198 265.375 357.099 265.636 355.901 265.636C354.63 265.636 353.521 265.412 352.573 264.964C351.635 264.516 350.854 263.901 350.229 263.12C349.615 262.339 349.151 261.443 348.839 260.433C348.537 259.412 348.385 258.334 348.385 257.198V256.542C348.385 255.407 348.537 254.334 348.839 253.323C349.151 252.302 349.615 251.401 350.229 250.62C350.854 249.839 351.635 249.224 352.573 248.776C353.521 248.328 354.63 248.104 355.901 248.104C357.224 248.104 358.38 248.375 359.37 248.917C360.359 249.448 361.135 250.177 361.698 251.104C362.271 252.021 362.583 253.063 362.635 254.229H359.885C359.833 253.532 359.635 252.901 359.292 252.339C358.958 251.776 358.5 251.328 357.917 250.995C357.344 250.651 356.672 250.479 355.901 250.479C355.016 250.479 354.271 250.657 353.667 251.011C353.073 251.354 352.599 251.823 352.245 252.417C351.901 253 351.651 253.651 351.495 254.37C351.349 255.078 351.276 255.802 351.276 256.542V257.198C351.276 257.938 351.349 258.667 351.495 259.386C351.641 260.104 351.885 260.756 352.229 261.339C352.583 261.922 353.057 262.391 353.651 262.745C354.255 263.089 355.005 263.261 355.901 263.261ZM376.229 261.417V248.417H379.135V265.323H376.37L376.229 261.417ZM376.776 257.854L377.979 257.823C377.979 258.948 377.859 259.99 377.62 260.948C377.391 261.896 377.016 262.719 376.495 263.417C375.974 264.115 375.292 264.662 374.448 265.058C373.604 265.443 372.578 265.636 371.37 265.636C370.547 265.636 369.792 265.516 369.104 265.276C368.427 265.037 367.844 264.667 367.354 264.167C366.865 263.667 366.484 263.016 366.214 262.214C365.953 261.412 365.823 260.448 365.823 259.323V248.417H368.714V259.354C368.714 260.115 368.797 260.745 368.964 261.245C369.141 261.735 369.375 262.125 369.667 262.417C369.969 262.698 370.302 262.896 370.667 263.011C371.042 263.125 371.427 263.183 371.823 263.183C373.052 263.183 374.026 262.948 374.745 262.479C375.464 262 375.979 261.36 376.292 260.558C376.615 259.745 376.776 258.844 376.776 257.854ZM386.682 241.323V265.323H383.776V241.323H386.682ZM398.339 265.636C397.162 265.636 396.094 265.438 395.135 265.042C394.188 264.636 393.37 264.068 392.682 263.339C392.005 262.61 391.484 261.745 391.12 260.745C390.755 259.745 390.573 258.651 390.573 257.464V256.808C390.573 255.433 390.776 254.209 391.182 253.136C391.589 252.052 392.141 251.136 392.839 250.386C393.537 249.636 394.328 249.068 395.214 248.683C396.099 248.297 397.016 248.104 397.964 248.104C399.172 248.104 400.214 248.313 401.089 248.729C401.974 249.146 402.698 249.729 403.26 250.479C403.823 251.219 404.24 252.094 404.51 253.104C404.781 254.104 404.917 255.198 404.917 256.386V257.683H392.292V255.323H402.026V255.104C401.984 254.354 401.828 253.625 401.557 252.917C401.297 252.209 400.88 251.625 400.307 251.167C399.734 250.709 398.953 250.479 397.964 250.479C397.307 250.479 396.703 250.62 396.151 250.901C395.599 251.172 395.125 251.578 394.729 252.12C394.333 252.662 394.026 253.323 393.807 254.104C393.589 254.886 393.479 255.787 393.479 256.808V257.464C393.479 258.266 393.589 259.021 393.807 259.729C394.037 260.427 394.365 261.042 394.792 261.573C395.229 262.104 395.755 262.521 396.37 262.823C396.995 263.125 397.703 263.276 398.495 263.276C399.516 263.276 400.38 263.068 401.089 262.651C401.797 262.235 402.417 261.677 402.948 260.979L404.698 262.37C404.333 262.922 403.87 263.448 403.307 263.948C402.745 264.448 402.052 264.854 401.229 265.167C400.417 265.479 399.453 265.636 398.339 265.636ZM418.135 260.839C418.135 260.422 418.042 260.037 417.854 259.683C417.677 259.318 417.307 258.99 416.745 258.698C416.193 258.396 415.359 258.136 414.245 257.917C413.307 257.719 412.458 257.485 411.698 257.214C410.948 256.943 410.307 256.615 409.776 256.229C409.255 255.844 408.854 255.391 408.573 254.87C408.292 254.349 408.151 253.74 408.151 253.042C408.151 252.375 408.297 251.745 408.589 251.151C408.891 250.558 409.313 250.032 409.854 249.573C410.406 249.115 411.068 248.756 411.839 248.495C412.609 248.235 413.469 248.104 414.417 248.104C415.771 248.104 416.927 248.344 417.885 248.823C418.844 249.302 419.578 249.943 420.089 250.745C420.599 251.537 420.854 252.417 420.854 253.386H417.964C417.964 252.917 417.823 252.464 417.542 252.026C417.271 251.578 416.87 251.209 416.339 250.917C415.818 250.625 415.177 250.479 414.417 250.479C413.615 250.479 412.964 250.604 412.464 250.854C411.974 251.094 411.615 251.401 411.385 251.776C411.167 252.151 411.057 252.547 411.057 252.964C411.057 253.276 411.109 253.558 411.214 253.808C411.328 254.047 411.526 254.271 411.807 254.479C412.089 254.677 412.484 254.865 412.995 255.042C413.505 255.219 414.156 255.396 414.948 255.573C416.333 255.886 417.474 256.261 418.37 256.698C419.266 257.136 419.932 257.672 420.37 258.308C420.807 258.943 421.026 259.714 421.026 260.62C421.026 261.36 420.87 262.037 420.557 262.651C420.255 263.266 419.813 263.797 419.229 264.245C418.656 264.683 417.969 265.026 417.167 265.276C416.375 265.516 415.484 265.636 414.495 265.636C413.005 265.636 411.745 265.37 410.714 264.839C409.682 264.308 408.901 263.62 408.37 262.776C407.839 261.933 407.573 261.042 407.573 260.104H410.479C410.521 260.896 410.75 261.526 411.167 261.995C411.583 262.453 412.094 262.782 412.698 262.979C413.302 263.167 413.901 263.261 414.495 263.261C415.287 263.261 415.948 263.157 416.479 262.948C417.021 262.74 417.432 262.453 417.714 262.089C417.995 261.724 418.135 261.308 418.135 260.839Z" fill="black"/>
<path d="M627.342 204.573H634.873C636.581 204.573 638.024 204.834 639.201 205.354C640.388 205.875 641.289 206.646 641.904 207.667C642.529 208.677 642.842 209.922 642.842 211.401C642.842 212.443 642.628 213.396 642.201 214.261C641.784 215.115 641.18 215.844 640.388 216.448C639.607 217.042 638.67 217.485 637.576 217.776L636.732 218.104H629.654L629.623 215.651H634.967C636.05 215.651 636.951 215.464 637.67 215.089C638.388 214.703 638.93 214.188 639.295 213.542C639.659 212.896 639.842 212.183 639.842 211.401C639.842 210.526 639.67 209.761 639.326 209.104C638.982 208.448 638.441 207.943 637.701 207.589C636.972 207.224 636.029 207.042 634.873 207.042H630.357V227.323H627.342V204.573ZM640.638 227.323L635.107 217.011L638.248 216.995L643.857 227.136V227.323H640.638ZM656.592 224.433V215.729C656.592 215.063 656.456 214.485 656.185 213.995C655.925 213.495 655.529 213.11 654.998 212.839C654.467 212.568 653.81 212.433 653.029 212.433C652.3 212.433 651.659 212.558 651.107 212.808C650.566 213.058 650.138 213.386 649.826 213.792C649.524 214.198 649.373 214.636 649.373 215.104H646.482C646.482 214.5 646.638 213.901 646.951 213.308C647.263 212.714 647.711 212.177 648.295 211.698C648.888 211.209 649.597 210.823 650.42 210.542C651.253 210.25 652.18 210.104 653.201 210.104C654.43 210.104 655.513 210.313 656.451 210.729C657.399 211.146 658.138 211.776 658.67 212.62C659.211 213.453 659.482 214.5 659.482 215.761V223.636C659.482 224.198 659.529 224.797 659.623 225.433C659.727 226.068 659.878 226.615 660.076 227.073V227.323H657.06C656.914 226.99 656.8 226.547 656.717 225.995C656.633 225.433 656.592 224.912 656.592 224.433ZM657.092 217.073L657.123 219.104H654.201C653.378 219.104 652.644 219.172 651.998 219.308C651.352 219.433 650.81 219.625 650.373 219.886C649.935 220.146 649.602 220.474 649.373 220.87C649.144 221.256 649.029 221.709 649.029 222.229C649.029 222.761 649.149 223.245 649.388 223.683C649.628 224.12 649.987 224.469 650.467 224.729C650.956 224.979 651.555 225.104 652.263 225.104C653.149 225.104 653.93 224.917 654.607 224.542C655.284 224.167 655.821 223.709 656.217 223.167C656.623 222.625 656.842 222.099 656.873 221.589L658.107 222.979C658.034 223.417 657.836 223.901 657.513 224.433C657.191 224.964 656.758 225.474 656.217 225.964C655.685 226.443 655.05 226.844 654.31 227.167C653.581 227.479 652.758 227.636 651.842 227.636C650.696 227.636 649.691 227.412 648.826 226.964C647.972 226.516 647.305 225.917 646.826 225.167C646.357 224.407 646.123 223.558 646.123 222.62C646.123 221.714 646.3 220.917 646.654 220.229C647.008 219.532 647.519 218.953 648.185 218.495C648.852 218.026 649.654 217.672 650.592 217.433C651.529 217.193 652.576 217.073 653.732 217.073H657.092ZM674.685 224.042V203.323H677.592V227.323H674.935L674.685 224.042ZM663.31 219.058V218.729C663.31 217.438 663.467 216.266 663.779 215.214C664.102 214.151 664.555 213.24 665.138 212.479C665.732 211.719 666.435 211.136 667.248 210.729C668.071 210.313 668.987 210.104 669.998 210.104C671.06 210.104 671.987 210.292 672.779 210.667C673.581 211.032 674.258 211.568 674.81 212.276C675.373 212.974 675.816 213.818 676.138 214.808C676.461 215.797 676.685 216.917 676.81 218.167V219.604C676.696 220.844 676.472 221.959 676.138 222.948C675.816 223.938 675.373 224.782 674.81 225.479C674.258 226.177 673.581 226.714 672.779 227.089C671.977 227.453 671.039 227.636 669.967 227.636C668.977 227.636 668.071 227.422 667.248 226.995C666.435 226.568 665.732 225.969 665.138 225.198C664.555 224.427 664.102 223.521 663.779 222.479C663.467 221.427 663.31 220.287 663.31 219.058ZM666.217 218.729V219.058C666.217 219.901 666.3 220.693 666.467 221.433C666.644 222.172 666.914 222.823 667.279 223.386C667.644 223.948 668.107 224.391 668.67 224.714C669.232 225.026 669.904 225.183 670.685 225.183C671.644 225.183 672.43 224.979 673.045 224.573C673.67 224.167 674.17 223.631 674.545 222.964C674.92 222.297 675.211 221.573 675.42 220.792V217.026C675.295 216.453 675.112 215.901 674.873 215.37C674.644 214.828 674.342 214.349 673.967 213.933C673.602 213.506 673.149 213.167 672.607 212.917C672.076 212.667 671.446 212.542 670.717 212.542C669.925 212.542 669.243 212.709 668.67 213.042C668.107 213.365 667.644 213.813 667.279 214.386C666.914 214.948 666.644 215.604 666.467 216.354C666.3 217.094 666.217 217.886 666.217 218.729ZM685.232 210.417V227.323H682.326V210.417H685.232ZM682.107 205.933C682.107 205.464 682.248 205.068 682.529 204.745C682.821 204.422 683.248 204.261 683.81 204.261C684.362 204.261 684.784 204.422 685.076 204.745C685.378 205.068 685.529 205.464 685.529 205.933C685.529 206.381 685.378 206.766 685.076 207.089C684.784 207.401 684.362 207.558 683.81 207.558C683.248 207.558 682.821 207.401 682.529 207.089C682.248 206.766 682.107 206.381 682.107 205.933ZM689.107 219.058V218.698C689.107 217.479 689.284 216.349 689.638 215.308C689.993 214.256 690.503 213.344 691.17 212.573C691.836 211.792 692.644 211.188 693.592 210.761C694.539 210.323 695.602 210.104 696.779 210.104C697.967 210.104 699.034 210.323 699.982 210.761C700.941 211.188 701.753 211.792 702.42 212.573C703.097 213.344 703.612 214.256 703.967 215.308C704.321 216.349 704.498 217.479 704.498 218.698V219.058C704.498 220.276 704.321 221.407 703.967 222.448C703.612 223.49 703.097 224.401 702.42 225.183C701.753 225.953 700.946 226.558 699.998 226.995C699.06 227.422 697.998 227.636 696.81 227.636C695.623 227.636 694.555 227.422 693.607 226.995C692.659 226.558 691.847 225.953 691.17 225.183C690.503 224.401 689.993 223.49 689.638 222.448C689.284 221.407 689.107 220.276 689.107 219.058ZM691.998 218.698V219.058C691.998 219.901 692.097 220.698 692.295 221.448C692.493 222.188 692.789 222.844 693.185 223.417C693.592 223.99 694.097 224.443 694.701 224.776C695.305 225.099 696.008 225.261 696.81 225.261C697.602 225.261 698.295 225.099 698.888 224.776C699.493 224.443 699.993 223.99 700.388 223.417C700.784 222.844 701.081 222.188 701.279 221.448C701.487 220.698 701.592 219.901 701.592 219.058V218.698C701.592 217.865 701.487 217.078 701.279 216.339C701.081 215.589 700.779 214.927 700.373 214.354C699.977 213.771 699.477 213.313 698.873 212.979C698.279 212.646 697.581 212.479 696.779 212.479C695.987 212.479 695.289 212.646 694.685 212.979C694.092 213.313 693.592 213.771 693.185 214.354C692.789 214.927 692.493 215.589 692.295 216.339C692.097 217.078 691.998 217.865 691.998 218.698ZM711.263 203.323V227.323H708.357V203.323H711.263ZM715.138 219.058V218.698C715.138 217.479 715.316 216.349 715.67 215.308C716.024 214.256 716.534 213.344 717.201 212.573C717.868 211.792 718.675 211.188 719.623 210.761C720.571 210.323 721.633 210.104 722.81 210.104C723.998 210.104 725.066 210.323 726.013 210.761C726.972 211.188 727.784 211.792 728.451 212.573C729.128 213.344 729.644 214.256 729.998 215.308C730.352 216.349 730.529 217.479 730.529 218.698V219.058C730.529 220.276 730.352 221.407 729.998 222.448C729.644 223.49 729.128 224.401 728.451 225.183C727.784 225.953 726.977 226.558 726.029 226.995C725.092 227.422 724.029 227.636 722.842 227.636C721.654 227.636 720.586 227.422 719.638 226.995C718.691 226.558 717.878 225.953 717.201 225.183C716.534 224.401 716.024 223.49 715.67 222.448C715.316 221.407 715.138 220.276 715.138 219.058ZM718.029 218.698V219.058C718.029 219.901 718.128 220.698 718.326 221.448C718.524 222.188 718.821 222.844 719.217 223.417C719.623 223.99 720.128 224.443 720.732 224.776C721.336 225.099 722.039 225.261 722.842 225.261C723.633 225.261 724.326 225.099 724.92 224.776C725.524 224.443 726.024 223.99 726.42 223.417C726.816 222.844 727.112 222.188 727.31 221.448C727.519 220.698 727.623 219.901 727.623 219.058V218.698C727.623 217.865 727.519 217.078 727.31 216.339C727.112 215.589 726.81 214.927 726.404 214.354C726.008 213.771 725.508 213.313 724.904 212.979C724.31 212.646 723.612 212.479 722.81 212.479C722.019 212.479 721.321 212.646 720.717 212.979C720.123 213.313 719.623 213.771 719.217 214.354C718.821 214.927 718.524 215.589 718.326 216.339C718.128 217.078 718.029 217.865 718.029 218.698ZM745.107 210.417H747.732V226.964C747.732 228.453 747.43 229.724 746.826 230.776C746.222 231.828 745.378 232.625 744.295 233.167C743.222 233.719 741.982 233.995 740.576 233.995C739.993 233.995 739.305 233.901 738.513 233.714C737.732 233.537 736.961 233.229 736.201 232.792C735.451 232.365 734.821 231.787 734.31 231.058L735.826 229.339C736.534 230.193 737.274 230.787 738.045 231.12C738.826 231.453 739.597 231.62 740.357 231.62C741.274 231.62 742.066 231.448 742.732 231.104C743.399 230.761 743.914 230.25 744.279 229.573C744.654 228.907 744.842 228.084 744.842 227.104V214.136L745.107 210.417ZM733.467 219.058V218.729C733.467 217.438 733.618 216.266 733.92 215.214C734.232 214.151 734.675 213.24 735.248 212.479C735.831 211.719 736.534 211.136 737.357 210.729C738.18 210.313 739.107 210.104 740.138 210.104C741.201 210.104 742.128 210.292 742.92 210.667C743.722 211.032 744.399 211.568 744.951 212.276C745.513 212.974 745.956 213.818 746.279 214.808C746.602 215.797 746.826 216.917 746.951 218.167V219.604C746.836 220.844 746.612 221.959 746.279 222.948C745.956 223.938 745.513 224.782 744.951 225.479C744.399 226.177 743.722 226.714 742.92 227.089C742.118 227.453 741.18 227.636 740.107 227.636C739.097 227.636 738.18 227.422 737.357 226.995C736.545 226.568 735.847 225.969 735.263 225.198C734.68 224.427 734.232 223.521 733.92 222.479C733.618 221.427 733.467 220.287 733.467 219.058ZM736.357 218.729V219.058C736.357 219.901 736.441 220.693 736.607 221.433C736.784 222.172 737.05 222.823 737.404 223.386C737.769 223.948 738.232 224.391 738.795 224.714C739.357 225.026 740.029 225.183 740.81 225.183C741.769 225.183 742.56 224.979 743.185 224.573C743.81 224.167 744.305 223.631 744.67 222.964C745.045 222.297 745.336 221.573 745.545 220.792V217.026C745.43 216.453 745.253 215.901 745.013 215.37C744.784 214.828 744.482 214.349 744.107 213.933C743.743 213.506 743.289 213.167 742.748 212.917C742.206 212.667 741.571 212.542 740.842 212.542C740.05 212.542 739.368 212.709 738.795 213.042C738.232 213.365 737.769 213.813 737.404 214.386C737.05 214.948 736.784 215.604 736.607 216.354C736.441 217.094 736.357 217.886 736.357 218.729ZM755.263 210.417V227.323H752.357V210.417H755.263ZM752.138 205.933C752.138 205.464 752.279 205.068 752.56 204.745C752.852 204.422 753.279 204.261 753.842 204.261C754.394 204.261 754.816 204.422 755.107 204.745C755.409 205.068 755.56 205.464 755.56 205.933C755.56 206.381 755.409 206.766 755.107 207.089C754.816 207.401 754.394 207.558 753.842 207.558C753.279 207.558 752.852 207.401 752.56 207.089C752.279 206.766 752.138 206.381 752.138 205.933ZM766.67 225.261C767.357 225.261 767.993 225.12 768.576 224.839C769.159 224.558 769.638 224.172 770.013 223.683C770.388 223.183 770.602 222.615 770.654 221.979H773.404C773.352 222.979 773.013 223.912 772.388 224.776C771.774 225.631 770.967 226.323 769.967 226.854C768.967 227.375 767.868 227.636 766.67 227.636C765.399 227.636 764.289 227.412 763.342 226.964C762.404 226.516 761.623 225.901 760.998 225.12C760.383 224.339 759.92 223.443 759.607 222.433C759.305 221.412 759.154 220.334 759.154 219.198V218.542C759.154 217.407 759.305 216.334 759.607 215.323C759.92 214.302 760.383 213.401 760.998 212.62C761.623 211.839 762.404 211.224 763.342 210.776C764.289 210.328 765.399 210.104 766.67 210.104C767.993 210.104 769.149 210.375 770.138 210.917C771.128 211.448 771.904 212.177 772.467 213.104C773.039 214.021 773.352 215.063 773.404 216.229H770.654C770.602 215.532 770.404 214.901 770.06 214.339C769.727 213.776 769.269 213.328 768.685 212.995C768.112 212.651 767.441 212.479 766.67 212.479C765.784 212.479 765.039 212.657 764.435 213.011C763.842 213.354 763.368 213.823 763.013 214.417C762.67 215 762.42 215.651 762.263 216.37C762.118 217.078 762.045 217.802 762.045 218.542V219.198C762.045 219.938 762.118 220.667 762.263 221.386C762.409 222.104 762.654 222.756 762.998 223.339C763.352 223.922 763.826 224.391 764.42 224.745C765.024 225.089 765.774 225.261 766.67 225.261ZM786.623 224.433V215.729C786.623 215.063 786.487 214.485 786.217 213.995C785.956 213.495 785.56 213.11 785.029 212.839C784.498 212.568 783.842 212.433 783.06 212.433C782.331 212.433 781.691 212.558 781.138 212.808C780.597 213.058 780.17 213.386 779.857 213.792C779.555 214.198 779.404 214.636 779.404 215.104H776.513C776.513 214.5 776.67 213.901 776.982 213.308C777.295 212.714 777.743 212.177 778.326 211.698C778.92 211.209 779.628 210.823 780.451 210.542C781.284 210.25 782.211 210.104 783.232 210.104C784.461 210.104 785.545 210.313 786.482 210.729C787.43 211.146 788.17 211.776 788.701 212.62C789.243 213.453 789.513 214.5 789.513 215.761V223.636C789.513 224.198 789.56 224.797 789.654 225.433C789.758 226.068 789.909 226.615 790.107 227.073V227.323H787.092C786.946 226.99 786.831 226.547 786.748 225.995C786.664 225.433 786.623 224.912 786.623 224.433ZM787.123 217.073L787.154 219.104H784.232C783.409 219.104 782.675 219.172 782.029 219.308C781.383 219.433 780.842 219.625 780.404 219.886C779.967 220.146 779.633 220.474 779.404 220.87C779.175 221.256 779.06 221.709 779.06 222.229C779.06 222.761 779.18 223.245 779.42 223.683C779.659 224.12 780.019 224.469 780.498 224.729C780.987 224.979 781.586 225.104 782.295 225.104C783.18 225.104 783.961 224.917 784.638 224.542C785.316 224.167 785.852 223.709 786.248 223.167C786.654 222.625 786.873 222.099 786.904 221.589L788.138 222.979C788.066 223.417 787.868 223.901 787.545 224.433C787.222 224.964 786.789 225.474 786.248 225.964C785.717 226.443 785.081 226.844 784.342 227.167C783.612 227.479 782.789 227.636 781.873 227.636C780.727 227.636 779.722 227.412 778.857 226.964C778.003 226.516 777.336 225.917 776.857 225.167C776.388 224.407 776.154 223.558 776.154 222.62C776.154 221.714 776.331 220.917 776.685 220.229C777.039 219.532 777.55 218.953 778.217 218.495C778.883 218.026 779.685 217.672 780.623 217.433C781.56 217.193 782.607 217.073 783.763 217.073H787.123ZM797.201 203.323V227.323H794.295V203.323H797.201ZM654.435 258.448L658.951 242.573H661.138L659.873 248.745L655.013 265.323H652.842L654.435 258.448ZM649.763 242.573L653.357 258.136L654.435 265.323H652.279L646.763 242.573H649.763ZM666.982 258.12L670.498 242.573H673.513L668.013 265.323H665.857L666.982 258.12ZM661.467 242.573L665.857 258.448L667.451 265.323H665.279L660.592 248.745L659.31 242.573H661.467ZM682.935 265.636C681.758 265.636 680.691 265.438 679.732 265.042C678.784 264.636 677.967 264.068 677.279 263.339C676.602 262.61 676.081 261.745 675.717 260.745C675.352 259.745 675.17 258.651 675.17 257.464V256.808C675.17 255.433 675.373 254.209 675.779 253.136C676.185 252.052 676.737 251.136 677.435 250.386C678.133 249.636 678.925 249.068 679.81 248.683C680.696 248.297 681.612 248.104 682.56 248.104C683.769 248.104 684.81 248.313 685.685 248.729C686.571 249.146 687.295 249.729 687.857 250.479C688.42 251.219 688.836 252.094 689.107 253.104C689.378 254.104 689.513 255.198 689.513 256.386V257.683H676.888V255.323H686.623V255.104C686.581 254.354 686.425 253.625 686.154 252.917C685.894 252.209 685.477 251.625 684.904 251.167C684.331 250.709 683.55 250.479 682.56 250.479C681.904 250.479 681.3 250.62 680.748 250.901C680.196 251.172 679.722 251.578 679.326 252.12C678.93 252.662 678.623 253.323 678.404 254.104C678.185 254.886 678.076 255.787 678.076 256.808V257.464C678.076 258.266 678.185 259.021 678.404 259.729C678.633 260.427 678.961 261.042 679.388 261.573C679.826 262.104 680.352 262.521 680.967 262.823C681.592 263.125 682.3 263.276 683.092 263.276C684.112 263.276 684.977 263.068 685.685 262.651C686.394 262.235 687.013 261.677 687.545 260.979L689.295 262.37C688.93 262.922 688.467 263.448 687.904 263.948C687.342 264.448 686.649 264.854 685.826 265.167C685.013 265.479 684.05 265.636 682.935 265.636ZM702.857 262.433V253.729C702.857 253.063 702.722 252.485 702.451 251.995C702.191 251.495 701.795 251.11 701.263 250.839C700.732 250.568 700.076 250.433 699.295 250.433C698.566 250.433 697.925 250.558 697.373 250.808C696.831 251.058 696.404 251.386 696.092 251.792C695.789 252.198 695.638 252.636 695.638 253.104H692.748C692.748 252.5 692.904 251.901 693.217 251.308C693.529 250.714 693.977 250.177 694.56 249.698C695.154 249.209 695.862 248.823 696.685 248.542C697.519 248.25 698.446 248.104 699.467 248.104C700.696 248.104 701.779 248.313 702.717 248.729C703.664 249.146 704.404 249.776 704.935 250.62C705.477 251.453 705.748 252.5 705.748 253.761V261.636C705.748 262.198 705.795 262.797 705.888 263.433C705.993 264.068 706.144 264.615 706.342 265.073V265.323H703.326C703.18 264.99 703.066 264.547 702.982 263.995C702.899 263.433 702.857 262.912 702.857 262.433ZM703.357 255.073L703.388 257.104H700.467C699.644 257.104 698.909 257.172 698.263 257.308C697.618 257.433 697.076 257.625 696.638 257.886C696.201 258.146 695.868 258.474 695.638 258.87C695.409 259.256 695.295 259.709 695.295 260.229C695.295 260.761 695.414 261.245 695.654 261.683C695.894 262.12 696.253 262.469 696.732 262.729C697.222 262.979 697.821 263.104 698.529 263.104C699.414 263.104 700.196 262.917 700.873 262.542C701.55 262.167 702.086 261.709 702.482 261.167C702.888 260.625 703.107 260.099 703.138 259.589L704.373 260.979C704.3 261.417 704.102 261.901 703.779 262.433C703.456 262.964 703.024 263.474 702.482 263.964C701.951 264.443 701.316 264.844 700.576 265.167C699.847 265.479 699.024 265.636 698.107 265.636C696.961 265.636 695.956 265.412 695.092 264.964C694.237 264.516 693.571 263.917 693.092 263.167C692.623 262.407 692.388 261.558 692.388 260.62C692.388 259.714 692.566 258.917 692.92 258.229C693.274 257.532 693.784 256.953 694.451 256.495C695.118 256.026 695.92 255.672 696.857 255.433C697.795 255.193 698.842 255.073 699.998 255.073H703.357ZM713.185 251.667V271.823H710.279V248.417H712.935L713.185 251.667ZM724.576 256.729V257.058C724.576 258.287 724.43 259.427 724.138 260.479C723.847 261.521 723.42 262.427 722.857 263.198C722.305 263.969 721.623 264.568 720.81 264.995C719.998 265.422 719.066 265.636 718.013 265.636C716.941 265.636 715.993 265.459 715.17 265.104C714.347 264.75 713.649 264.235 713.076 263.558C712.503 262.881 712.045 262.068 711.701 261.12C711.368 260.172 711.138 259.104 711.013 257.917V256.167C711.138 254.917 711.373 253.797 711.717 252.808C712.06 251.818 712.513 250.974 713.076 250.276C713.649 249.568 714.342 249.032 715.154 248.667C715.967 248.292 716.904 248.104 717.967 248.104C719.029 248.104 719.972 248.313 720.795 248.729C721.618 249.136 722.31 249.719 722.873 250.479C723.435 251.24 723.857 252.151 724.138 253.214C724.43 254.266 724.576 255.438 724.576 256.729ZM721.67 257.058V256.729C721.67 255.886 721.581 255.094 721.404 254.354C721.227 253.604 720.951 252.948 720.576 252.386C720.211 251.813 719.743 251.365 719.17 251.042C718.597 250.709 717.914 250.542 717.123 250.542C716.394 250.542 715.758 250.667 715.217 250.917C714.685 251.167 714.232 251.506 713.857 251.933C713.482 252.349 713.175 252.828 712.935 253.37C712.706 253.901 712.534 254.453 712.42 255.026V259.073C712.628 259.802 712.92 260.49 713.295 261.136C713.67 261.771 714.17 262.287 714.795 262.683C715.42 263.068 716.206 263.261 717.154 263.261C717.935 263.261 718.607 263.099 719.17 262.776C719.743 262.443 720.211 261.99 720.576 261.417C720.951 260.844 721.227 260.188 721.404 259.448C721.581 258.698 721.67 257.901 721.67 257.058ZM727.498 257.058V256.698C727.498 255.479 727.675 254.349 728.029 253.308C728.383 252.256 728.894 251.344 729.56 250.573C730.227 249.792 731.034 249.188 731.982 248.761C732.93 248.323 733.993 248.104 735.17 248.104C736.357 248.104 737.425 248.323 738.373 248.761C739.331 249.188 740.144 249.792 740.81 250.573C741.487 251.344 742.003 252.256 742.357 253.308C742.711 254.349 742.888 255.479 742.888 256.698V257.058C742.888 258.276 742.711 259.407 742.357 260.448C742.003 261.49 741.487 262.401 740.81 263.183C740.144 263.953 739.336 264.558 738.388 264.995C737.451 265.422 736.388 265.636 735.201 265.636C734.013 265.636 732.946 265.422 731.998 264.995C731.05 264.558 730.237 263.953 729.56 263.183C728.894 262.401 728.383 261.49 728.029 260.448C727.675 259.407 727.498 258.276 727.498 257.058ZM730.388 256.698V257.058C730.388 257.901 730.487 258.698 730.685 259.448C730.883 260.188 731.18 260.844 731.576 261.417C731.982 261.99 732.487 262.443 733.092 262.776C733.696 263.099 734.399 263.261 735.201 263.261C735.993 263.261 736.685 263.099 737.279 262.776C737.883 262.443 738.383 261.99 738.779 261.417C739.175 260.844 739.472 260.188 739.67 259.448C739.878 258.698 739.982 257.901 739.982 257.058V256.698C739.982 255.865 739.878 255.078 739.67 254.339C739.472 253.589 739.17 252.927 738.763 252.354C738.368 251.771 737.868 251.313 737.263 250.979C736.67 250.646 735.972 250.479 735.17 250.479C734.378 250.479 733.68 250.646 733.076 250.979C732.482 251.313 731.982 251.771 731.576 252.354C731.18 252.927 730.883 253.589 730.685 254.339C730.487 255.078 730.388 255.865 730.388 256.698ZM749.404 252.026V265.323H746.513V248.417H749.248L749.404 252.026ZM748.717 256.229L747.513 256.183C747.524 255.026 747.696 253.959 748.029 252.979C748.362 251.99 748.831 251.131 749.435 250.401C750.039 249.672 750.758 249.11 751.592 248.714C752.435 248.308 753.368 248.104 754.388 248.104C755.222 248.104 755.972 248.219 756.638 248.448C757.305 248.667 757.873 249.021 758.342 249.511C758.821 250 759.185 250.636 759.435 251.417C759.685 252.188 759.81 253.131 759.81 254.245V265.323H756.904V254.214C756.904 253.328 756.774 252.62 756.513 252.089C756.253 251.547 755.873 251.157 755.373 250.917C754.873 250.667 754.258 250.542 753.529 250.542C752.81 250.542 752.154 250.693 751.56 250.995C750.977 251.297 750.472 251.714 750.045 252.245C749.628 252.776 749.3 253.386 749.06 254.073C748.831 254.75 748.717 255.469 748.717 256.229ZM774.045 260.839C774.045 260.422 773.951 260.037 773.763 259.683C773.586 259.318 773.217 258.99 772.654 258.698C772.102 258.396 771.269 258.136 770.154 257.917C769.217 257.719 768.368 257.485 767.607 257.214C766.857 256.943 766.217 256.615 765.685 256.229C765.164 255.844 764.763 255.391 764.482 254.87C764.201 254.349 764.06 253.74 764.06 253.042C764.06 252.375 764.206 251.745 764.498 251.151C764.8 250.558 765.222 250.032 765.763 249.573C766.316 249.115 766.977 248.756 767.748 248.495C768.519 248.235 769.378 248.104 770.326 248.104C771.68 248.104 772.836 248.344 773.795 248.823C774.753 249.302 775.487 249.943 775.998 250.745C776.508 251.537 776.763 252.417 776.763 253.386H773.873C773.873 252.917 773.732 252.464 773.451 252.026C773.18 251.578 772.779 251.209 772.248 250.917C771.727 250.625 771.086 250.479 770.326 250.479C769.524 250.479 768.873 250.604 768.373 250.854C767.883 251.094 767.524 251.401 767.295 251.776C767.076 252.151 766.967 252.547 766.967 252.964C766.967 253.276 767.019 253.558 767.123 253.808C767.237 254.047 767.435 254.271 767.717 254.479C767.998 254.677 768.394 254.865 768.904 255.042C769.414 255.219 770.066 255.396 770.857 255.573C772.243 255.886 773.383 256.261 774.279 256.698C775.175 257.136 775.842 257.672 776.279 258.308C776.717 258.943 776.935 259.714 776.935 260.62C776.935 261.36 776.779 262.037 776.467 262.651C776.164 263.266 775.722 263.797 775.138 264.245C774.566 264.683 773.878 265.026 773.076 265.276C772.284 265.516 771.394 265.636 770.404 265.636C768.914 265.636 767.654 265.37 766.623 264.839C765.592 264.308 764.81 263.62 764.279 262.776C763.748 261.933 763.482 261.042 763.482 260.104H766.388C766.43 260.896 766.659 261.526 767.076 261.995C767.493 262.453 768.003 262.782 768.607 262.979C769.211 263.167 769.81 263.261 770.404 263.261C771.196 263.261 771.857 263.157 772.388 262.948C772.93 262.74 773.342 262.453 773.623 262.089C773.904 261.724 774.045 261.308 774.045 260.839Z" fill="black"/>
<mask id="mask1_128_351" style="mask-type:alpha" maskUnits="userSpaceOnUse" x="425" y="51" width="69" height="69">
<rect x="425.98" y="51.5938" width="67.5198" height="67.5198" fill="#D9D9D9"/>
</mask>
<g mask="url(#mask1_128_351)">
<path d="M438.64 109.267C437.186 109.267 436.19 108.528 435.651 107.051C435.112 105.574 435.241 104.367 436.038 103.429L453.34 83.525V64.6054H449.331C448.909 64.6054 448.545 64.453 448.24 64.1482C447.936 63.8434 447.783 63.48 447.783 63.058C447.783 62.5891 447.936 62.2023 448.24 61.8975C448.545 61.5928 448.909 61.4404 449.331 61.4404H470.149C470.571 61.4404 470.935 61.5928 471.239 61.8975C471.544 62.2023 471.697 62.5891 471.697 63.058C471.697 63.48 471.544 63.8434 471.239 64.1482C470.935 64.453 470.571 64.6054 470.149 64.6054H466.14V83.525L483.442 103.429C484.286 104.367 484.427 105.574 483.864 107.051C483.302 108.528 482.293 109.267 480.84 109.267H438.64ZM438.007 106.102H481.473L462.975 84.7206V64.6054H456.505V84.7206L438.007 106.102Z" fill="#1C1B1F"/>
</g>
<path d="M511.265 89.1193H514.265C514.109 90.5568 513.698 91.8432 513.031 92.9786C512.364 94.1141 511.422 95.0151 510.203 95.6818C508.984 96.338 507.463 96.6661 505.64 96.6661C504.307 96.6661 503.094 96.4161 502 95.9161C500.916 95.4161 499.984 94.7078 499.203 93.7911C498.422 92.8641 497.818 91.7547 497.39 90.463C496.974 89.1609 496.765 87.713 496.765 86.1193V83.8536C496.765 82.2599 496.974 80.8172 497.39 79.5255C497.818 78.2234 498.427 77.1088 499.219 76.1818C500.021 75.2547 500.984 74.5411 502.109 74.0411C503.234 73.5411 504.5 73.2911 505.906 73.2911C507.625 73.2911 509.078 73.6141 510.265 74.2599C511.453 74.9057 512.375 75.8016 513.031 76.9474C513.698 78.0828 514.109 79.4005 514.265 80.9005H511.265C511.12 79.838 510.849 78.9266 510.453 78.1661C510.057 77.3953 509.495 76.8016 508.765 76.3849C508.036 75.9682 507.083 75.7599 505.906 75.7599C504.896 75.7599 504.005 75.9526 503.234 76.338C502.474 76.7234 501.833 77.2703 501.312 77.9786C500.802 78.687 500.416 79.5359 500.156 80.5255C499.896 81.5151 499.765 82.6141 499.765 83.8224V86.1193C499.765 87.2338 499.88 88.2807 500.109 89.2599C500.349 90.2391 500.708 91.0984 501.187 91.838C501.666 92.5776 502.276 93.1609 503.015 93.588C503.755 94.0047 504.63 94.213 505.64 94.213C506.922 94.213 507.943 94.0099 508.703 93.6036C509.463 93.1974 510.036 92.6141 510.422 91.8536C510.818 91.0932 511.099 90.1818 511.265 89.1193ZM520.828 72.3536V96.3536H517.937V72.3536H520.828ZM520.14 87.2599L518.937 87.213C518.948 86.0568 519.12 84.9891 519.453 84.0099C519.786 83.0203 520.255 82.1609 520.859 81.4318C521.463 80.7026 522.182 80.1401 523.015 79.7443C523.859 79.338 524.791 79.1349 525.812 79.1349C526.646 79.1349 527.396 79.2495 528.062 79.4786C528.729 79.6974 529.297 80.0516 529.765 80.5411C530.245 81.0307 530.609 81.6661 530.859 82.4474C531.109 83.2182 531.234 84.1609 531.234 85.2755V96.3536H528.328V85.2443C528.328 84.3588 528.198 83.6505 527.937 83.1193C527.677 82.5776 527.297 82.187 526.797 81.9474C526.297 81.6974 525.682 81.5724 524.953 81.5724C524.234 81.5724 523.578 81.7234 522.984 82.0255C522.401 82.3276 521.896 82.7443 521.469 83.2755C521.052 83.8068 520.724 84.4161 520.484 85.1036C520.255 85.7807 520.14 86.4995 520.14 87.2599ZM542.578 96.6661C541.401 96.6661 540.333 96.4682 539.375 96.0724C538.427 95.6661 537.609 95.0984 536.922 94.3693C536.245 93.6401 535.724 92.7755 535.359 91.7755C534.995 90.7755 534.812 89.6818 534.812 88.4943V87.838C534.812 86.463 535.015 85.2391 535.422 84.1661C535.828 83.0828 536.38 82.1661 537.078 81.4161C537.776 80.6661 538.568 80.0984 539.453 79.713C540.338 79.3276 541.255 79.1349 542.203 79.1349C543.411 79.1349 544.453 79.3432 545.328 79.7599C546.213 80.1766 546.937 80.7599 547.5 81.5099C548.062 82.2495 548.479 83.1245 548.75 84.1349C549.021 85.1349 549.156 86.2286 549.156 87.4161V88.713H536.531V86.3536H546.265V86.1349C546.224 85.3849 546.068 84.6557 545.797 83.9474C545.536 83.2391 545.12 82.6557 544.547 82.1974C543.974 81.7391 543.193 81.5099 542.203 81.5099C541.547 81.5099 540.943 81.6505 540.39 81.9318C539.838 82.2026 539.364 82.6088 538.969 83.1505C538.573 83.6922 538.265 84.3536 538.047 85.1349C537.828 85.9161 537.719 86.8172 537.719 87.838V88.4943C537.719 89.2963 537.828 90.0516 538.047 90.7599C538.276 91.4578 538.604 92.0724 539.031 92.6036C539.469 93.1349 539.995 93.5516 540.609 93.8536C541.234 94.1557 541.943 94.3068 542.734 94.3068C543.755 94.3068 544.62 94.0984 545.328 93.6818C546.036 93.2651 546.656 92.7078 547.187 92.0099L548.937 93.4005C548.573 93.9526 548.109 94.4786 547.547 94.9786C546.984 95.4786 546.291 95.8849 545.469 96.1974C544.656 96.5099 543.693 96.6661 542.578 96.6661ZM555.406 82.8068V96.3536H552.5V79.4474H555.25L555.406 82.8068ZM554.812 87.2599L553.469 87.213C553.479 86.0568 553.63 84.9891 553.922 84.0099C554.213 83.0203 554.646 82.1609 555.219 81.4318C555.791 80.7026 556.505 80.1401 557.359 79.7443C558.213 79.338 559.203 79.1349 560.328 79.1349C561.12 79.1349 561.849 79.2495 562.515 79.4786C563.182 79.6974 563.76 80.0463 564.25 80.5255C564.739 81.0047 565.12 81.6193 565.39 82.3693C565.661 83.1193 565.797 84.0255 565.797 85.088V96.3536H562.906V85.2286C562.906 84.3432 562.755 83.6349 562.453 83.1036C562.161 82.5724 561.745 82.187 561.203 81.9474C560.661 81.6974 560.026 81.5724 559.297 81.5724C558.443 81.5724 557.729 81.7234 557.156 82.0255C556.583 82.3276 556.125 82.7443 555.781 83.2755C555.437 83.8068 555.187 84.4161 555.031 85.1036C554.885 85.7807 554.812 86.4995 554.812 87.2599ZM565.765 85.6661L563.828 86.2599C563.838 85.3328 563.989 84.4422 564.281 83.588C564.583 82.7338 565.015 81.9734 565.578 81.3068C566.151 80.6401 566.854 80.1141 567.687 79.7286C568.521 79.3328 569.474 79.1349 570.547 79.1349C571.453 79.1349 572.255 79.2547 572.953 79.4943C573.661 79.7338 574.255 80.1036 574.734 80.6036C575.224 81.0932 575.594 81.7234 575.844 82.4943C576.094 83.2651 576.219 84.1818 576.219 85.2443V96.3536H573.312V85.213C573.312 84.2651 573.161 83.5307 572.859 83.0099C572.568 82.4786 572.151 82.1088 571.609 81.9005C571.078 81.6818 570.443 81.5724 569.703 81.5724C569.068 81.5724 568.505 81.6818 568.015 81.9005C567.526 82.1193 567.114 82.4213 566.781 82.8068C566.448 83.1818 566.193 83.6141 566.015 84.1036C565.849 84.5932 565.765 85.1141 565.765 85.6661ZM583.734 79.4474V96.3536H580.828V79.4474H583.734ZM580.609 74.963C580.609 74.4943 580.75 74.0984 581.031 73.7755C581.323 73.4526 581.75 73.2911 582.312 73.2911C582.864 73.2911 583.286 73.4526 583.578 73.7755C583.88 74.0984 584.031 74.4943 584.031 74.963C584.031 75.4109 583.88 75.7963 583.578 76.1193C583.286 76.4318 582.864 76.588 582.312 76.588C581.75 76.588 581.323 76.4318 581.031 76.1193C580.75 75.7963 580.609 75.4109 580.609 74.963ZM595.14 94.2911C595.828 94.2911 596.463 94.1505 597.047 93.8693C597.63 93.588 598.109 93.2026 598.484 92.713C598.859 92.213 599.073 91.6453 599.125 91.0099H601.875C601.823 92.0099 601.484 92.9422 600.859 93.8068C600.245 94.6609 599.437 95.3536 598.437 95.8849C597.437 96.4057 596.338 96.6661 595.14 96.6661C593.87 96.6661 592.76 96.4422 591.812 95.9943C590.875 95.5463 590.094 94.9318 589.469 94.1505C588.854 93.3693 588.39 92.4734 588.078 91.463C587.776 90.4422 587.625 89.3641 587.625 88.2286V87.5724C587.625 86.437 587.776 85.3641 588.078 84.3536C588.39 83.3328 588.854 82.4318 589.469 81.6505C590.094 80.8693 590.875 80.2547 591.812 79.8068C592.76 79.3588 593.87 79.1349 595.14 79.1349C596.463 79.1349 597.62 79.4057 598.609 79.9474C599.599 80.4786 600.375 81.2078 600.937 82.1349C601.51 83.0516 601.823 84.0932 601.875 85.2599H599.125C599.073 84.562 598.875 83.9318 598.531 83.3693C598.198 82.8068 597.739 82.3588 597.156 82.0255C596.583 81.6818 595.911 81.5099 595.14 81.5099C594.255 81.5099 593.51 81.687 592.906 82.0411C592.312 82.3849 591.838 82.8536 591.484 83.4474C591.14 84.0307 590.89 84.6818 590.734 85.4005C590.588 86.1088 590.515 86.8328 590.515 87.5724V88.2286C590.515 88.9682 590.588 89.6974 590.734 90.4161C590.88 91.1349 591.125 91.7859 591.469 92.3693C591.823 92.9526 592.297 93.4213 592.89 93.7755C593.495 94.1193 594.245 94.2911 595.14 94.2911ZM615.094 93.463V84.7599C615.094 84.0932 614.958 83.5151 614.687 83.0255C614.427 82.5255 614.031 82.1401 613.5 81.8693C612.969 81.5984 612.312 81.463 611.531 81.463C610.802 81.463 610.161 81.588 609.609 81.838C609.068 82.088 608.64 82.4161 608.328 82.8224C608.026 83.2286 607.875 83.6661 607.875 84.1349H604.984C604.984 83.5307 605.14 82.9318 605.453 82.338C605.765 81.7443 606.213 81.2078 606.797 80.7286C607.39 80.2391 608.099 79.8536 608.922 79.5724C609.755 79.2807 610.682 79.1349 611.703 79.1349C612.932 79.1349 614.015 79.3432 614.953 79.7599C615.901 80.1766 616.64 80.8068 617.172 81.6505C617.713 82.4838 617.984 83.5307 617.984 84.7911V92.6661C617.984 93.2286 618.031 93.8276 618.125 94.463C618.229 95.0984 618.38 95.6453 618.578 96.1036V96.3536H615.562C615.416 96.0203 615.302 95.5776 615.219 95.0255C615.135 94.463 615.094 93.9422 615.094 93.463ZM615.594 86.1036L615.625 88.1349H612.703C611.88 88.1349 611.146 88.2026 610.5 88.338C609.854 88.463 609.312 88.6557 608.875 88.9161C608.437 89.1766 608.104 89.5047 607.875 89.9005C607.646 90.2859 607.531 90.7391 607.531 91.2599C607.531 91.7911 607.651 92.2755 607.89 92.713C608.13 93.1505 608.489 93.4995 608.969 93.7599C609.458 94.0099 610.057 94.1349 610.765 94.1349C611.651 94.1349 612.432 93.9474 613.109 93.5724C613.786 93.1974 614.323 92.7391 614.719 92.1974C615.125 91.6557 615.344 91.1297 615.375 90.6193L616.609 92.0099C616.536 92.4474 616.338 92.9318 616.015 93.463C615.693 93.9943 615.26 94.5047 614.719 94.9943C614.187 95.4734 613.552 95.8745 612.812 96.1974C612.083 96.5099 611.26 96.6661 610.344 96.6661C609.198 96.6661 608.193 96.4422 607.328 95.9943C606.474 95.5463 605.807 94.9474 605.328 94.1974C604.859 93.437 604.625 92.588 604.625 91.6505C604.625 90.7443 604.802 89.9474 605.156 89.2599C605.51 88.562 606.021 87.9838 606.687 87.5255C607.354 87.0568 608.156 86.7026 609.094 86.463C610.031 86.2234 611.078 86.1036 612.234 86.1036H615.594ZM625.672 72.3536V96.3536H622.765V72.3536H625.672Z" fill="black"/>
<mask id="mask2_128_351" style="mask-type:alpha" maskUnits="userSpaceOnUse" x="789" y="51" width="69" height="69">
<rect x="789.5" y="51.5938" width="67.5198" height="67.5198" fill="#D9D9D9"/>
</mask>
<g mask="url(#mask2_128_351)">
<path d="M806.098 115.597C804.035 115.597 802.277 114.87 800.823 113.417C799.37 111.963 798.643 110.205 798.643 108.142C798.643 106.078 799.37 104.332 800.823 102.902C802.277 101.472 804.035 100.757 806.098 100.757C806.708 100.757 807.271 100.815 807.786 100.932C808.302 101.05 808.818 101.249 809.334 101.53L816.367 92.8089C815.523 91.7774 814.89 90.6403 814.468 89.3978C814.046 88.1552 813.952 86.8541 814.187 85.4943L804.059 82.1183C803.402 83.2436 802.523 84.1345 801.421 84.7909C800.319 85.4474 799.042 85.7756 797.588 85.7756C795.572 85.7756 793.837 85.0488 792.383 83.5953C790.93 82.1417 790.203 80.3834 790.203 78.3203C790.203 76.2572 790.93 74.4989 792.383 73.0453C793.837 71.5918 795.595 70.865 797.658 70.865C799.722 70.865 801.468 71.5918 802.898 73.0453C804.328 74.4989 805.043 76.2572 805.043 78.3203V78.883L815.242 82.3996C815.945 81.0867 816.836 80.0552 817.914 79.305C818.993 78.5547 820.212 78.039 821.572 77.7576V66.9263C819.79 66.5043 818.383 65.59 817.352 64.1834C816.32 62.7767 815.804 61.2762 815.804 59.682C815.804 57.6658 816.531 55.9309 817.985 54.4774C819.438 53.0238 821.197 52.2971 823.26 52.2971C825.323 52.2971 827.081 53.0238 828.535 54.4774C829.988 55.9309 830.715 57.6893 830.715 59.7524C830.715 61.2997 830.199 62.7767 829.168 64.1834C828.136 65.59 826.729 66.5043 824.948 66.9263V77.7576C826.307 78.039 827.538 78.5547 828.64 79.305C829.742 80.0552 830.645 81.0867 831.348 82.3996L841.476 78.883V78.3203C841.476 76.2572 842.191 74.4989 843.621 73.0453C845.051 71.5918 846.798 70.865 848.861 70.865C850.924 70.865 852.682 71.5918 854.136 73.0453C855.589 74.4989 856.316 76.2572 856.316 78.3203C856.316 80.3834 855.589 82.1417 854.136 83.5953C852.682 85.0488 850.948 85.7756 848.931 85.7756C847.478 85.7756 846.2 85.4474 845.098 84.7909C843.996 84.1345 843.117 83.2436 842.461 82.1183L832.333 85.4943C832.567 86.8541 832.485 88.1669 832.087 89.4329C831.688 90.6989 831.043 91.8008 830.152 92.7386L837.186 101.53C837.701 101.249 838.217 101.05 838.733 100.932C839.249 100.815 839.811 100.757 840.421 100.757C842.531 100.757 844.301 101.472 845.731 102.902C847.161 104.332 847.876 106.078 847.876 108.142C847.876 110.205 847.15 111.963 845.696 113.417C844.242 114.87 842.484 115.597 840.421 115.597C838.358 115.597 836.611 114.87 835.181 113.417C833.751 111.963 833.036 110.205 833.036 108.142C833.036 107.251 833.165 106.442 833.423 105.715C833.681 104.988 834.068 104.273 834.583 103.57L827.55 94.8486C826.237 95.5519 824.795 95.9036 823.225 95.9036C821.654 95.9036 820.212 95.5519 818.899 94.8486L811.936 103.64C812.452 104.344 812.839 105.047 813.097 105.75C813.354 106.454 813.483 107.251 813.483 108.142C813.483 110.205 812.768 111.963 811.338 113.417C809.908 114.87 808.162 115.597 806.098 115.597ZM797.658 82.5403C798.831 82.5403 799.827 82.13 800.648 81.3095C801.468 80.4889 801.878 79.4925 801.878 78.3203C801.878 77.1481 801.468 76.1517 800.648 75.3311C799.827 74.5106 798.807 74.1003 797.588 74.1003C796.416 74.1003 795.42 74.5106 794.599 75.3311C793.778 76.1517 793.368 77.1481 793.368 78.3203C793.368 79.4925 793.778 80.4889 794.599 81.3095C795.42 82.13 796.439 82.5403 797.658 82.5403ZM806.098 112.432C807.271 112.432 808.267 112.022 809.088 111.201C809.908 110.38 810.318 109.361 810.318 108.142C810.318 106.969 809.908 105.973 809.088 105.152C808.267 104.332 807.247 103.922 806.028 103.922C804.856 103.922 803.859 104.332 803.039 105.152C802.218 105.973 801.808 106.993 801.808 108.212C801.808 109.384 802.218 110.38 803.039 111.201C803.859 112.022 804.879 112.432 806.098 112.432ZM823.26 63.9724C824.432 63.9724 825.428 63.5621 826.249 62.7415C827.069 61.921 827.48 60.9011 827.48 59.682C827.48 58.5098 827.069 57.5134 826.249 56.6929C825.428 55.8723 824.432 55.462 823.26 55.462C822.087 55.462 821.091 55.8723 820.271 56.6929C819.45 57.5134 819.04 58.5333 819.04 59.7524C819.04 60.9246 819.45 61.921 820.271 62.7415C821.091 63.5621 822.087 63.9724 823.26 63.9724ZM823.26 92.7386C824.948 92.7386 826.366 92.1525 827.515 90.9803C828.664 89.808 829.238 88.4014 829.238 86.7603C829.238 85.0723 828.652 83.6539 827.48 82.5051C826.307 81.3563 824.901 80.782 823.26 80.782C821.619 80.782 820.212 81.3681 819.04 82.5403C817.868 83.7125 817.281 85.1192 817.281 86.7603C817.281 88.4014 817.868 89.808 819.04 90.9803C820.212 92.1525 821.619 92.7386 823.26 92.7386ZM840.491 112.432C841.664 112.432 842.66 112.022 843.48 111.201C844.301 110.38 844.711 109.361 844.711 108.142C844.711 106.969 844.301 105.973 843.48 105.152C842.66 104.332 841.64 103.922 840.421 103.922C839.249 103.922 838.252 104.332 837.432 105.152C836.611 105.973 836.201 106.993 836.201 108.212C836.201 109.384 836.611 110.38 837.432 111.201C838.252 112.022 839.272 112.432 840.491 112.432ZM848.931 82.5403C850.104 82.5403 851.1 82.13 851.92 81.3095C852.741 80.4889 853.151 79.4925 853.151 78.3203C853.151 77.1481 852.741 76.1517 851.92 75.3311C851.1 74.5106 850.08 74.1003 848.861 74.1003C847.689 74.1003 846.692 74.5106 845.872 75.3311C845.051 76.1517 844.641 77.1481 844.641 78.3203C844.641 79.4925 845.051 80.4889 845.872 81.3095C846.692 82.13 847.712 82.5403 848.931 82.5403Z" fill="#1C1B1F"/>
</g>
<path d="M890.535 73.6036V96.3536H887.504L876.051 78.8068V96.3536H873.035V73.6036H876.051L887.551 91.1974V73.6036H890.535ZM905.785 92.4474V79.4474H908.691V96.3536H905.926L905.785 92.4474ZM906.332 88.8849L907.535 88.8536C907.535 89.9786 907.415 91.0203 907.176 91.9786C906.947 92.9266 906.572 93.7495 906.051 94.4474C905.53 95.1453 904.848 95.6922 904.004 96.088C903.16 96.4734 902.134 96.6661 900.926 96.6661C900.103 96.6661 899.348 96.5463 898.66 96.3068C897.983 96.0672 897.4 95.6974 896.91 95.1974C896.421 94.6974 896.04 94.0463 895.77 93.2443C895.509 92.4422 895.379 91.4786 895.379 90.3536V79.4474H898.27V90.3849C898.27 91.1453 898.353 91.7755 898.52 92.2755C898.697 92.7651 898.931 93.1557 899.223 93.4474C899.525 93.7286 899.858 93.9266 900.223 94.0411C900.598 94.1557 900.983 94.213 901.379 94.213C902.608 94.213 903.582 93.9786 904.301 93.5099C905.02 93.0307 905.535 92.3901 905.848 91.588C906.171 90.7755 906.332 89.8745 906.332 88.8849ZM919.863 94.2911C920.551 94.2911 921.186 94.1505 921.77 93.8693C922.353 93.588 922.832 93.2026 923.207 92.713C923.582 92.213 923.796 91.6453 923.848 91.0099H926.598C926.546 92.0099 926.207 92.9422 925.582 93.8068C924.968 94.6609 924.16 95.3536 923.16 95.8849C922.16 96.4057 921.061 96.6661 919.863 96.6661C918.593 96.6661 917.483 96.4422 916.535 95.9943C915.598 95.5463 914.816 94.9318 914.191 94.1505C913.577 93.3693 913.113 92.4734 912.801 91.463C912.499 90.4422 912.348 89.3641 912.348 88.2286V87.5724C912.348 86.437 912.499 85.3641 912.801 84.3536C913.113 83.3328 913.577 82.4318 914.191 81.6505C914.816 80.8693 915.598 80.2547 916.535 79.8068C917.483 79.3588 918.593 79.1349 919.863 79.1349C921.186 79.1349 922.343 79.4057 923.332 79.9474C924.322 80.4786 925.098 81.2078 925.66 82.1349C926.233 83.0516 926.546 84.0932 926.598 85.2599H923.848C923.796 84.562 923.598 83.9318 923.254 83.3693C922.921 82.8068 922.462 82.3588 921.879 82.0255C921.306 81.6818 920.634 81.5099 919.863 81.5099C918.978 81.5099 918.233 81.687 917.629 82.0411C917.035 82.3849 916.561 82.8536 916.207 83.4474C915.863 84.0307 915.613 84.6818 915.457 85.4005C915.311 86.1088 915.238 86.8328 915.238 87.5724V88.2286C915.238 88.9682 915.311 89.6974 915.457 90.4161C915.603 91.1349 915.848 91.7859 916.191 92.3693C916.546 92.9526 917.02 93.4213 917.613 93.7755C918.218 94.1193 918.968 94.2911 919.863 94.2911ZM932.988 72.3536V96.3536H930.082V72.3536H932.988ZM944.645 96.6661C943.468 96.6661 942.4 96.4682 941.441 96.0724C940.494 95.6661 939.676 95.0984 938.988 94.3693C938.311 93.6401 937.79 92.7755 937.426 91.7755C937.061 90.7755 936.879 89.6818 936.879 88.4943V87.838C936.879 86.463 937.082 85.2391 937.488 84.1661C937.895 83.0828 938.447 82.1661 939.145 81.4161C939.843 80.6661 940.634 80.0984 941.52 79.713C942.405 79.3276 943.322 79.1349 944.27 79.1349C945.478 79.1349 946.52 79.3432 947.395 79.7599C948.28 80.1766 949.004 80.7599 949.566 81.5099C950.129 82.2495 950.546 83.1245 950.816 84.1349C951.087 85.1349 951.223 86.2286 951.223 87.4161V88.713H938.598V86.3536H948.332V86.1349C948.29 85.3849 948.134 84.6557 947.863 83.9474C947.603 83.2391 947.186 82.6557 946.613 82.1974C946.04 81.7391 945.259 81.5099 944.27 81.5099C943.613 81.5099 943.009 81.6505 942.457 81.9318C941.905 82.2026 941.431 82.6088 941.035 83.1505C940.639 83.6922 940.332 84.3536 940.113 85.1349C939.895 85.9161 939.785 86.8172 939.785 87.838V88.4943C939.785 89.2963 939.895 90.0516 940.113 90.7599C940.343 91.4578 940.671 92.0724 941.098 92.6036C941.535 93.1349 942.061 93.5516 942.676 93.8536C943.301 94.1557 944.009 94.3068 944.801 94.3068C945.822 94.3068 946.686 94.0984 947.395 93.6818C948.103 93.2651 948.723 92.7078 949.254 92.0099L951.004 93.4005C950.639 93.9526 950.176 94.4786 949.613 94.9786C949.051 95.4786 948.358 95.8849 947.535 96.1974C946.723 96.5099 945.759 96.6661 944.645 96.6661ZM964.566 93.463V84.7599C964.566 84.0932 964.431 83.5151 964.16 83.0255C963.9 82.5255 963.504 82.1401 962.973 81.8693C962.441 81.5984 961.785 81.463 961.004 81.463C960.275 81.463 959.634 81.588 959.082 81.838C958.54 82.088 958.113 82.4161 957.801 82.8224C957.499 83.2286 957.348 83.6661 957.348 84.1349H954.457C954.457 83.5307 954.613 82.9318 954.926 82.338C955.238 81.7443 955.686 81.2078 956.27 80.7286C956.863 80.2391 957.572 79.8536 958.395 79.5724C959.228 79.2807 960.155 79.1349 961.176 79.1349C962.405 79.1349 963.488 79.3432 964.426 79.7599C965.374 80.1766 966.113 80.8068 966.645 81.6505C967.186 82.4838 967.457 83.5307 967.457 84.7911V92.6661C967.457 93.2286 967.504 93.8276 967.598 94.463C967.702 95.0984 967.853 95.6453 968.051 96.1036V96.3536H965.035C964.889 96.0203 964.775 95.5776 964.691 95.0255C964.608 94.463 964.566 93.9422 964.566 93.463ZM965.066 86.1036L965.098 88.1349H962.176C961.353 88.1349 960.619 88.2026 959.973 88.338C959.327 88.463 958.785 88.6557 958.348 88.9161C957.91 89.1766 957.577 89.5047 957.348 89.9005C957.119 90.2859 957.004 90.7391 957.004 91.2599C957.004 91.7911 957.124 92.2755 957.363 92.713C957.603 93.1505 957.962 93.4995 958.441 93.7599C958.931 94.0099 959.53 94.1349 960.238 94.1349C961.124 94.1349 961.905 93.9474 962.582 93.5724C963.259 93.1974 963.796 92.7391 964.191 92.1974C964.598 91.6557 964.816 91.1297 964.848 90.6193L966.082 92.0099C966.009 92.4474 965.811 92.9318 965.488 93.463C965.165 93.9943 964.733 94.5047 964.191 94.9943C963.66 95.4734 963.025 95.8745 962.285 96.1974C961.556 96.5099 960.733 96.6661 959.816 96.6661C958.671 96.6661 957.665 96.4422 956.801 95.9943C955.947 95.5463 955.28 94.9474 954.801 94.1974C954.332 93.437 954.098 92.588 954.098 91.6505C954.098 90.7443 954.275 89.9474 954.629 89.2599C954.983 88.562 955.494 87.9838 956.16 87.5255C956.827 87.0568 957.629 86.7026 958.566 86.463C959.504 86.2234 960.551 86.1036 961.707 86.1036H965.066ZM974.895 82.1036V96.3536H972.004V79.4474H974.816L974.895 82.1036ZM980.176 79.3536L980.16 82.0411C979.921 81.9891 979.691 81.9578 979.473 81.9474C979.264 81.9266 979.025 81.9161 978.754 81.9161C978.087 81.9161 977.499 82.0203 976.988 82.2286C976.478 82.437 976.046 82.7286 975.691 83.1036C975.337 83.4786 975.056 83.9266 974.848 84.4474C974.65 84.9578 974.52 85.5203 974.457 86.1349L973.645 86.6036C973.645 85.5828 973.744 84.6245 973.941 83.7286C974.15 82.8328 974.468 82.0411 974.895 81.3536C975.322 80.6557 975.863 80.1141 976.52 79.7286C977.186 79.3328 977.978 79.1349 978.895 79.1349C979.103 79.1349 979.343 79.1609 979.613 79.213C979.884 79.2547 980.072 79.3016 980.176 79.3536Z" fill="black"/>
<line x1="350.307" y1="91.4187" x2="350.307" y2="187.464" stroke="black" stroke-width="2"/>
<line x1="713.17" y1="91.4187" x2="713.17" y2="187.464" stroke="black" stroke-width="2"/>
<defs>
<linearGradient id="paint0_linear_128_351" x1="0" y1="170.707" x2="1058.67" y2="170.707" gradientUnits="userSpaceOnUse">
<stop offset="0.263023" stop-color="#80D030"/>
<stop offset="0.409666" stop-color="#FFCE1F"/>
<stop offset="0.587594" stop-color="#FFCE1F"/>
<stop offset="0.752812" stop-color="#98CEFF"/>
</linearGradient>
</defs>
</svg>
