<?xml version="1.0" encoding="UTF-8"?>
<svg id="Ebene_2" xmlns="http://www.w3.org/2000/svg" version="1.1" viewBox="0 0 1920 1191.6">
  <!-- Generator: Adobe Illustrator 29.0.1, SVG Export Plug-In . SVG Version: 2.1.0 Build 192)  -->
  <defs>
    <style>
      .st0, .st1, .st2, .st3, .st4 {
        fill: none;
      }

      .st1 {
        stroke: #ced9de;
        stroke-width: 4.7px;
      }

      .st1, .st5, .st2, .st3, .st4, .st6, .st7, .st8 {
        stroke-miterlimit: 10;
      }

      .st5 {
        stroke: #426b7e;
        stroke-width: 4px;
      }

      .st5, .st9, .st6, .st7, .st8 {
        fill: #fff;
      }

      .st10 {
        fill: #ced9de;
      }

      .st2 {
        stroke-width: 3.2px;
      }

      .st2, .st3, .st4 {
        stroke: #0d435c;
      }

      .st3 {
        stroke-width: 3.4px;
      }

      .st4 {
        stroke-width: 3.3px;
      }

      .st11 {
        fill: #0d435c;
      }

      .st12 {
        fill: #90172f;
      }

      .st13 {
        fill: #f3f5f7;
      }

      .st14 {
        fill: #7996a5;
      }

      .st6 {
        stroke-width: 2.7px;
      }

      .st6, .st7, .st8 {
        stroke: #aebfc7;
      }

      .st7 {
        stroke-width: 3px;
      }

      .st8 {
        stroke-width: 3px;
      }

      .st15 {
        fill: #fac102;
      }

      .st16 {
        fill: #98ba00;
      }
    </style>
  </defs>
  <rect class="st13" x="1.5" y="0" width="1918.5" height="1191.6"/>
  <g>
    <rect class="st5" x="105.1" y="549.1" width="347.7" height="322.2"/>
    <g>
      <rect class="st0" x="134.2" y="790.7" width="295.7" height="81.8"/>
      <path class="st11" d="M138,835.7v-42.7h14.9c5.2,0,9.1,1,11.8,3s4,4.9,4,8.7-.5,3.9-1.6,5.5-2.6,2.8-4.5,3.5c2.2.5,3.9,1.7,5.2,3.3s1.9,3.7,1.9,6.1c0,4.1-1.3,7.2-3.9,9.3s-6.3,3.2-11.2,3.2h-16.6ZM146.8,810.9h6.5c4.4,0,6.7-1.8,6.7-5.3s-.6-3.3-1.7-4.2-2.9-1.3-5.3-1.3h-6.2v10.8ZM146.8,817.1v11.5h7.5c2.1,0,3.7-.5,4.8-1.5s1.7-2.3,1.7-4.1c0-3.9-2-5.9-6.1-5.9h-8.1Z"/>
      <path class="st11" d="M175.7,795.8c0-1.3.4-2.3,1.3-3.1s2-1.2,3.5-1.2,2.6.4,3.5,1.2,1.3,1.9,1.3,3.1-.4,2.3-1.3,3.2-2,1.2-3.4,1.2-2.6-.4-3.4-1.2-1.3-1.9-1.3-3.2ZM184.7,835.7h-8.5v-31.7h8.5v31.7Z"/>
      <path class="st11" d="M190.3,819.6c0-3.1.6-5.9,1.8-8.4s3-4.4,5.2-5.7,4.9-2,7.9-2c4.3,0,7.8,1.3,10.5,3.9s4.2,6.2,4.5,10.7v2.2c0,4.9-1.3,8.8-4,11.7s-6.4,4.4-10.9,4.4-8.2-1.5-10.9-4.4-4.1-6.9-4.1-12v-.4ZM198.8,820.2c0,3,.6,5.3,1.7,6.9,1.1,1.6,2.8,2.4,4.9,2.4s3.7-.8,4.8-2.4c1.2-1.6,1.7-4.1,1.7-7.6s-.6-5.2-1.7-6.9-2.8-2.4-4.9-2.4-3.7.8-4.8,2.4-1.7,4.1-1.7,7.5Z"/>
      <path class="st11" d="M234.5,835.7h-8.5v-45h8.5v45Z"/>
      <path class="st11" d="M240.2,819.6c0-3.1.6-5.9,1.8-8.4s3-4.4,5.2-5.7,4.9-2,7.9-2c4.3,0,7.8,1.3,10.5,3.9s4.2,6.2,4.5,10.7v2.2c0,4.9-1.3,8.8-4,11.7s-6.4,4.4-10.9,4.4-8.2-1.5-10.9-4.4-4.1-6.9-4.1-12v-.4ZM248.6,820.2c0,3,.6,5.3,1.7,6.9,1.1,1.6,2.8,2.4,4.9,2.4s3.7-.8,4.8-2.4c1.2-1.6,1.7-4.1,1.7-7.6s-.6-5.2-1.7-6.9-2.8-2.4-4.9-2.4-3.7.8-4.8,2.4-1.7,4.1-1.7,7.5Z"/>
      <path class="st11" d="M274.2,819.6c0-4.9,1.2-8.8,3.5-11.7s5.4-4.5,9.4-4.5,6.2,1.2,8.1,3.6l.4-3h7.7v30.6c0,2.8-.6,5.2-1.9,7.2s-3,3.6-5.3,4.7-5,1.6-8,1.6-4.6-.5-6.8-1.4-3.9-2.1-5-3.6l3.8-5.2c2.1,2.4,4.7,3.5,7.7,3.5s4-.6,5.2-1.8,1.9-2.9,1.9-5.1v-1.7c-2,2.2-4.5,3.3-7.7,3.3s-6.9-1.5-9.2-4.5-3.5-6.9-3.5-11.9v-.4ZM282.7,820.2c0,2.9.6,5.1,1.7,6.8,1.2,1.6,2.7,2.5,4.7,2.5s4.4-1,5.5-2.9v-13.4c-1.1-1.9-3-2.9-5.5-2.9s-3.6.8-4.8,2.5-1.7,4.2-1.7,7.5Z"/>
      <path class="st11" d="M309.6,795.8c0-1.3.4-2.3,1.3-3.1s2-1.2,3.5-1.2,2.6.4,3.5,1.2,1.3,1.9,1.3,3.1-.4,2.3-1.3,3.2-2,1.2-3.4,1.2-2.6-.4-3.4-1.2-1.3-1.9-1.3-3.2ZM318.6,835.7h-8.5v-31.7h8.5v31.7Z"/>
      <path class="st11" d="M338.8,829.5c1.6,0,2.8-.4,3.8-1.3s1.5-2,1.5-3.4h7.9c0,2.1-.6,4.1-1.8,5.9s-2.7,3.2-4.7,4.2-4.2,1.5-6.6,1.5c-4.5,0-8.1-1.4-10.7-4.3s-3.9-6.9-3.9-11.9v-.6c0-4.9,1.3-8.8,3.9-11.7s6.2-4.4,10.7-4.4,7.1,1.1,9.5,3.4,3.6,5.3,3.6,9h-7.9c0-1.6-.5-3-1.5-4-1-1-2.3-1.5-3.9-1.5s-3.5.7-4.5,2.2c-1,1.4-1.5,3.8-1.5,7v.9c0,3.3.5,5.6,1.5,7s2.5,2.1,4.5,2.1Z"/>
      <path class="st11" d="M375.2,835.7c-.4-.8-.7-1.7-.8-2.8-2.1,2.3-4.7,3.4-8,3.4s-5.7-.9-7.7-2.7-3.1-4.1-3.1-6.8,1.2-5.9,3.7-7.7,6.1-2.7,10.8-2.7h3.9v-1.8c0-1.5-.4-2.6-1.1-3.5s-1.9-1.3-3.6-1.3-2.5.3-3.4,1-1.2,1.6-1.2,2.8h-8.5c0-1.8.6-3.5,1.7-5.1s2.7-2.8,4.8-3.7,4.4-1.3,7-1.3c3.9,0,7,1,9.3,2.9s3.4,4.7,3.4,8.3v13.7c0,3,.4,5.3,1.3,6.8v.5h-8.6ZM368.2,829.8c1.2,0,2.4-.3,3.5-.8s1.8-1.3,2.3-2.2v-5.4h-3.2c-4.2,0-6.5,1.5-6.8,4.4v.5c0,1.1.3,1.9,1.1,2.6s1.8,1,3,1Z"/>
      <path class="st11" d="M398,835.7h-8.5v-45h8.5v45Z"/>
    </g>
    <g>
      <path class="st16" d="M186.4,719.5l8-4.7-.5-1.6c-4.9-15,1.5-31.5,15.1-39.4,5.1-2.9,10.9-4.5,16.7-4.5,11.3,0,21.9,5.8,28,15.2l6.2-3.7c-.5-1.2-.8-2.6-.8-4,0-5.3,3.9-9.7,9-10.5v-6.6c-17.7-.9-31.9-15.5-31.9-33.5s11-29.3,26.2-32.7l1.6-.4v-9.3l-2.4.4c-23,4-39.6,23.8-39.6,47.1s1.7,14.8,5,21.4c-7.3.5-14.5,2.6-20.8,6.3-20.4,11.8-29.1,36.3-20.8,58.2l.8,2.2h0Z"/>
      <g>
        <path class="st16" d="M303.5,626.3c0,18.1-14.4,32.8-32.2,33.5v6.6c5.3.6,9.5,5.1,9.5,10.6s-.3,3-.9,4.3l6.1,3.6c6.2-9.5,16.8-15.4,28.2-15.4s11.6,1.6,16.7,4.5c13.6,7.9,20,24.4,15.1,39.4l-.5,1.6,8,4.7.8-2.2c8.3-22-.4-46.5-20.8-58.2-6.4-3.7-13.5-5.8-20.8-6.3,3.3-6.6,5-13.9,5-21.4,0-23.5-16.8-43.4-40-47.2l-2.4-.4v9.3l1.6.3c15.4,3.3,26.6,17.1,26.6,32.8h0Z"/>
        <path class="st16" d="M269.9,640.4c8.7,0,16.7,3.1,23,8.2,3.2-3.3,5.7-7.3,7.2-11.8-8.4-6.3-18.9-10.1-30.3-10.1s-21.8,3.8-30.3,10.1c1.5,4.4,4,8.4,7.2,11.7,6.3-5.1,14.3-8.1,23-8.1h0Z"/>
      </g>
      <g>
        <path class="st16" d="M338.7,725.7c-6.3,6.9-15.3,10.8-24.7,10.8s-11.6-1.6-16.7-4.5c-7.8-4.5-13.3-11.7-15.6-20.4-2.2-8.2-1.2-16.8,2.8-24.3l-6.2-3.6c-2,2.4-4.9,3.9-8.2,3.9s-6.4-1.6-8.4-4.1l-6.2,3.6c8.5,15.9,2.9,35.8-12.8,44.9-5.1,2.9-10.9,4.5-16.7,4.5-9.4,0-18.4-3.9-24.7-10.8l-1.1-1.2-8.1,4.7,1.5,1.9c9.1,10.9,22.5,17.2,36.7,17.2s16.6-2.2,23.8-6.4c6.3-3.7,11.7-8.7,15.8-14.8,4.1,6,9.5,11.1,15.8,14.8,7.3,4.2,15.5,6.4,23.8,6.4,14.3,0,27.7-6.3,36.7-17.2l1.5-1.9-8.1-4.7-1.1,1.2h0Z"/>
        <g>
          <path class="st16" d="M250.3,723.7c3.1-3.6,5.3-7.8,6.5-12.3-13.8-5.3-23.6-18.6-23.6-34.3s.2-3.6.4-5.3c-2.5-.6-5.1-1-7.8-1s-4,.3-6,.6c-.2,1.9-.3,3.7-.3,5.6,0,20.9,12.7,38.9,30.8,46.5Z"/>
          <path class="st16" d="M283.1,711.4c1.3,4.6,3.5,8.7,6.5,12.3,18.1-7.7,30.8-25.6,30.8-46.5s-.1-3.8-.3-5.6c-2-.4-4-.6-6-.6s-5.3.3-7.8,1c.3,1.7.4,3.5.4,5.3,0,15.6-9.8,29-23.6,34.3Z"/>
        </g>
      </g>
    </g>
  </g>
  <polyline class="st4" points="336.2 872.5 336.2 1035.8 891 1035.8 891 872.5"/>
  <polyline class="st3" points="1032.6 872.5 1032.6 1035.8 1598.9 1035.8 1598.9 872.5"/>
  <polyline class="st3" points="1032.6 552.5 1032.6 389.3 1598.9 389.3 1598.9 552.5"/>
  <polyline class="st2" points="891 549.1 891 154.9 1328.8 154.9 1328.8 334.5"/>
  <rect class="st7" x="399.2" y="960.8" width="421.6" height="150"/>
  <g>
    <rect class="st0" x="419.9" y="993.9" width="387.5" height="98.1"/>
    <path class="st11" d="M444.4,1000.3h-8.9v24.3h-6v-24.3h-8.8v-4.9h23.7v4.9Z"/>
    <path class="st11" d="M442.4,1013.6c0-2.1.4-4.1,1.2-5.7.8-1.7,2-3,3.6-3.9,1.6-.9,3.4-1.4,5.4-1.4,2.9,0,5.3.9,7.2,2.7,1.8,1.8,2.9,4.2,3.1,7.3v1.5c0,3.3-.9,6-2.7,8-1.9,2-4.3,3-7.5,3s-5.6-1-7.5-3c-1.9-2-2.8-4.7-2.8-8.2v-.3ZM448.2,1014c0,2.1.4,3.6,1.2,4.7.8,1.1,1.9,1.6,3.3,1.6s2.5-.5,3.3-1.6,1.2-2.8,1.2-5.2-.4-3.6-1.2-4.7-1.9-1.7-3.3-1.7-2.5.6-3.3,1.7c-.8,1.1-1.2,2.8-1.2,5.1Z"/>
    <path class="st11" d="M474.3,1009.4l3.6-6.5h6.2l-6.2,10.6,6.4,11.1h-6.2l-3.9-6.8-3.8,6.8h-6.2l6.4-11.1-6.1-10.6h6.2l3.6,6.5Z"/>
    <path class="st11" d="M486.9,997.3c0-.9.3-1.6.9-2.1.6-.6,1.4-.8,2.4-.8s1.8.3,2.4.8c.6.6.9,1.3.9,2.1s-.3,1.6-.9,2.2-1.4.8-2.4.8-1.8-.3-2.4-.8c-.6-.6-.9-1.3-.9-2.2ZM493,1024.6h-5.8v-21.7h5.8v21.7Z"/>
    <path class="st11" d="M503.1,1002.9l.2,2.5c1.5-1.9,3.6-2.9,6.2-2.9s4,.7,5.1,2c1.1,1.3,1.7,3.4,1.7,6v14h-5.8v-13.9c0-1.2-.3-2.1-.8-2.7-.5-.6-1.4-.8-2.7-.8s-2.8.7-3.7,2.1v15.3h-5.8v-21.7h5.4Z"/>
    <path class="st11" d="M532.5,1018.6c0-.7-.3-1.3-1.1-1.7-.7-.4-1.8-.8-3.4-1.1-5.2-1.1-7.7-3.3-7.7-6.6s.8-3.5,2.4-4.8c1.6-1.3,3.7-1.9,6.3-1.9s4.9.6,6.6,1.9c1.6,1.3,2.5,3,2.5,5h-5.8c0-.8-.3-1.5-.8-2.1-.5-.5-1.4-.8-2.5-.8s-1.7.2-2.3.7c-.5.4-.8,1-.8,1.7s.3,1.2.9,1.6c.6.4,1.6.7,3.1,1s2.7.6,3.6,1c3.1,1.1,4.6,3.1,4.6,5.8s-.8,3.6-2.5,4.8c-1.7,1.2-3.9,1.8-6.6,1.8s-3.4-.3-4.8-1c-1.4-.6-2.5-1.5-3.3-2.7-.8-1.1-1.2-2.3-1.2-3.7h5.5c0,1,.4,1.8,1.1,2.4.7.5,1.7.8,2.8.8s1.9-.2,2.5-.6c.6-.4.9-1,.9-1.7Z"/>
    <path class="st11" d="M551.2,1016.8c0-1.3.4-2.6,1.1-3.7.8-1.1,2.1-2.4,4.2-3.8-.9-1.2-1.5-2.3-2-3.3-.5-1-.7-2.1-.7-3.2,0-2.3.7-4.1,2.2-5.5,1.4-1.4,3.4-2.1,5.8-2.1s4,.6,5.4,1.9c1.4,1.3,2.1,2.9,2.1,4.8s-1.2,4.4-3.5,6.1l-2.2,1.6,5,5.8c.8-1.5,1.2-3.3,1.2-5.1h4.9c0,3.8-.9,6.9-2.6,9.2l4.4,5.1h-6.6l-1.5-1.7c-2.1,1.4-4.6,2.1-7.4,2.1s-5.2-.8-6.9-2.3c-1.7-1.5-2.6-3.5-2.6-6ZM561,1020.3c1.4,0,2.7-.4,3.9-1.2l-5.7-6.6-.4.3c-1.2,1-1.8,2.2-1.8,3.6s.4,2.1,1.1,2.8c.7.7,1.7,1.1,2.9,1.1ZM558.9,1002.6c0,1,.6,2.3,1.8,3.8l1.5-1c.8-.5,1.3-1,1.6-1.5.3-.5.5-1.1.5-1.7s-.2-1.2-.7-1.7c-.5-.5-1.1-.7-1.9-.7s-1.5.3-2,.8c-.5.5-.8,1.2-.8,2.1Z"/>
    <path class="st11" d="M422.5,1083.6v-29.1h10.2c3.5,0,6.2.7,8,2s2.7,3.3,2.7,6-.4,2.7-1.1,3.8-1.8,1.9-3.1,2.4c1.5.4,2.7,1.1,3.5,2.3.9,1.1,1.3,2.5,1.3,4.2,0,2.8-.9,4.9-2.7,6.4s-4.3,2.2-7.6,2.2h-11.3ZM428.5,1066.7h4.4c3,0,4.5-1.3,4.5-3.6s-.4-2.3-1.2-2.9c-.8-.6-2-.9-3.6-.9h-4.2v7.3ZM428.5,1070.9v7.9h5.1c1.4,0,2.5-.3,3.3-1,.8-.7,1.2-1.6,1.2-2.8,0-2.7-1.4-4-4.1-4.1h-5.5Z"/>
    <path class="st11" d="M448.2,1056.3c0-.9.3-1.6.9-2.1.6-.6,1.4-.8,2.4-.8s1.8.3,2.4.8.9,1.3.9,2.1-.3,1.6-.9,2.2-1.4.8-2.4.8-1.8-.3-2.4-.8c-.6-.6-.9-1.3-.9-2.2ZM454.4,1083.6h-5.8v-21.7h5.8v21.7Z"/>
    <path class="st11" d="M458.2,1072.6c0-2.1.4-4.1,1.2-5.7s2-3,3.6-3.9c1.6-.9,3.4-1.4,5.4-1.4,2.9,0,5.3.9,7.2,2.7,1.8,1.8,2.9,4.2,3.1,7.3v1.5c0,3.3-.9,6-2.7,8-1.9,2-4.3,3-7.5,3s-5.6-1-7.5-3c-1.9-2-2.8-4.7-2.8-8.2v-.3ZM464,1073c0,2.1.4,3.6,1.2,4.7.8,1.1,1.9,1.6,3.3,1.6s2.5-.5,3.3-1.6c.8-1.1,1.2-2.8,1.2-5.2s-.4-3.6-1.2-4.7c-.8-1.1-1.9-1.7-3.3-1.7s-2.5.6-3.3,1.7c-.8,1.1-1.2,2.8-1.2,5.1Z"/>
    <path class="st11" d="M494.9,1083.6c-.3-.5-.5-1.2-.6-1.9-1.4,1.6-3.2,2.3-5.5,2.3s-3.9-.6-5.3-1.8c-1.4-1.2-2.1-2.8-2.1-4.6s.9-4.1,2.6-5.3c1.7-1.2,4.2-1.8,7.4-1.9h2.7v-1.2c0-1-.3-1.8-.8-2.4-.5-.6-1.3-.9-2.4-.9s-1.7.2-2.3.7c-.6.5-.8,1.1-.8,1.9h-5.8c0-1.3.4-2.4,1.2-3.5.8-1.1,1.9-1.9,3.3-2.5,1.4-.6,3-.9,4.8-.9,2.7,0,4.8.7,6.4,2,1.6,1.3,2.4,3.2,2.4,5.7v9.4c0,2.1.3,3.6.9,4.7v.3h-5.8ZM490.1,1079.6c.9,0,1.6-.2,2.4-.6.7-.4,1.3-.9,1.6-1.5v-3.7h-2.2c-2.9,0-4.4,1-4.6,3v.3c0,.7.2,1.3.7,1.8.5.5,1.2.7,2.1.7Z"/>
    <path class="st11" d="M513.3,1079.3c1.1,0,1.9-.3,2.6-.9.7-.6,1-1.4,1-2.3h5.4c0,1.5-.4,2.8-1.2,4-.8,1.2-1.9,2.2-3.2,2.8s-2.9,1-4.5,1c-3.1,0-5.5-1-7.3-3-1.8-2-2.7-4.7-2.7-8.2v-.4c0-3.3.9-6,2.7-8,1.8-2,4.2-3,7.3-3s4.9.8,6.5,2.3c1.6,1.5,2.5,3.6,2.5,6.2h-5.4c0-1.1-.4-2-1-2.7-.7-.7-1.5-1.1-2.6-1.1s-2.4.5-3.1,1.5c-.7,1-1,2.6-1,4.8v.6c0,2.2.3,3.8,1,4.8s1.7,1.5,3.1,1.5Z"/>
    <path class="st11" d="M532.6,1056.6v5.3h3.7v4.2h-3.7v10.8c0,.8.2,1.4.5,1.7.3.3.9.5,1.8.5s1.2,0,1.7-.1v4.4c-1.1.3-2.3.5-3.5.5-4.1,0-6.1-2-6.2-6.1v-11.7h-3.2v-4.2h3.2v-5.3h5.8Z"/>
    <path class="st11" d="M539.5,1056.3c0-.9.3-1.6.9-2.1.6-.6,1.4-.8,2.4-.8s1.8.3,2.4.8c.6.6.9,1.3.9,2.1s-.3,1.6-.9,2.2-1.4.8-2.4.8-1.8-.3-2.4-.8c-.6-.6-.9-1.3-.9-2.2ZM545.6,1083.6h-5.8v-21.7h5.8v21.7Z"/>
    <path class="st11" d="M558.5,1076.5l4-14.6h6l-7.3,21.7h-5.5l-7.3-21.7h6l4,14.6Z"/>
    <path class="st11" d="M580.8,1084c-3.2,0-5.8-1-7.8-2.9-2-1.9-3-4.5-3-7.8v-.6c0-2.2.4-4.1,1.3-5.8.8-1.7,2-3,3.6-4,1.5-.9,3.3-1.4,5.3-1.4,3,0,5.3.9,7,2.8,1.7,1.9,2.6,4.5,2.6,7.9v2.4h-13.8c.2,1.4.8,2.5,1.7,3.4.9.9,2.1,1.3,3.6,1.3,2.2,0,4-.8,5.2-2.4l2.8,3.2c-.9,1.2-2,2.2-3.5,2.9-1.5.7-3.1,1-4.9,1ZM580.2,1066.2c-1.1,0-2.1.4-2.8,1.2s-1.2,1.9-1.4,3.3h8v-.5c0-1.3-.4-2.3-1-3-.7-.7-1.6-1.1-2.8-1.1Z"/>
    <path class="st11" d="M608.7,1061.9l.2,2.4c1.5-1.9,3.6-2.8,6.2-2.8s4.7,1.1,5.7,3.3c1.5-2.2,3.7-3.3,6.5-3.3s4.1.7,5.2,2.1c1.1,1.4,1.7,3.4,1.7,6.2v13.8h-5.8v-13.8c0-1.2-.2-2.1-.7-2.7s-1.3-.9-2.5-.9c-1.7,0-2.9.8-3.6,2.5v14.9s-5.8,0-5.8,0v-13.8c0-1.3-.2-2.2-.7-2.7-.5-.6-1.3-.8-2.5-.8s-2.8.7-3.6,2v15.4h-5.8v-21.7h5.4Z"/>
    <path class="st11" d="M637.8,1072.6c0-2.1.4-4.1,1.2-5.7.8-1.7,2-3,3.6-3.9,1.6-.9,3.4-1.4,5.4-1.4,2.9,0,5.3.9,7.2,2.7,1.8,1.8,2.9,4.2,3.1,7.3v1.5c0,3.3-.9,6-2.7,8-1.9,2-4.3,3-7.5,3s-5.6-1-7.5-3c-1.9-2-2.8-4.7-2.8-8.2v-.3ZM643.6,1073c0,2.1.4,3.6,1.2,4.7.8,1.1,1.9,1.6,3.3,1.6s2.5-.5,3.3-1.6c.8-1.1,1.2-2.8,1.2-5.2s-.4-3.6-1.2-4.7c-.8-1.1-1.9-1.7-3.3-1.7s-2.5.6-3.3,1.7c-.8,1.1-1.2,2.8-1.2,5.1Z"/>
    <path class="st11" d="M668,1083.6h-5.8v-30.8h5.8v30.8Z"/>
    <path class="st11" d="M682.7,1084c-3.2,0-5.8-1-7.8-2.9-2-1.9-3-4.5-3-7.8v-.6c0-2.2.4-4.1,1.3-5.8.8-1.7,2-3,3.6-4,1.5-.9,3.3-1.4,5.3-1.4,3,0,5.3.9,7,2.8,1.7,1.9,2.6,4.5,2.6,7.9v2.4h-13.8c.2,1.4.8,2.5,1.7,3.4.9.9,2.1,1.3,3.6,1.3,2.2,0,4-.8,5.2-2.4l2.8,3.2c-.9,1.2-2,2.2-3.5,2.9-1.5.7-3.1,1-4.9,1ZM682.1,1066.2c-1.1,0-2.1.4-2.8,1.2s-1.2,1.9-1.4,3.3h8v-.5c0-1.3-.4-2.3-1-3-.7-.7-1.6-1.1-2.8-1.1Z"/>
    <path class="st11" d="M703.9,1079.3c1.1,0,1.9-.3,2.6-.9.7-.6,1-1.4,1-2.3h5.4c0,1.5-.4,2.8-1.2,4-.8,1.2-1.9,2.2-3.2,2.8s-2.9,1-4.5,1c-3.1,0-5.5-1-7.3-3-1.8-2-2.7-4.7-2.7-8.2v-.4c0-3.3.9-6,2.7-8,1.8-2,4.2-3,7.3-3s4.9.8,6.5,2.3c1.6,1.5,2.5,3.6,2.5,6.2h-5.4c0-1.1-.4-2-1-2.7-.7-.7-1.5-1.1-2.6-1.1s-2.4.5-3.1,1.5c-.7,1-1,2.6-1,4.8v.6c0,2.2.3,3.8,1,4.8s1.7,1.5,3.1,1.5Z"/>
    <path class="st11" d="M729.3,1081.4c-1.4,1.7-3.4,2.6-5.9,2.6s-4.1-.7-5.3-2c-1.2-1.3-1.8-3.3-1.9-5.9v-14.2h5.8v14c0,2.3,1,3.4,3.1,3.4s3.3-.7,4-2v-15.4h5.8v21.7h-5.4l-.2-2.2Z"/>
    <path class="st11" d="M745.4,1083.6h-5.8v-30.8h5.8v30.8Z"/>
    <path class="st11" d="M760.1,1084c-3.2,0-5.8-1-7.8-2.9-2-1.9-3-4.5-3-7.8v-.6c0-2.2.4-4.1,1.3-5.8.8-1.7,2-3,3.6-4,1.5-.9,3.3-1.4,5.3-1.4,3,0,5.3.9,7,2.8,1.7,1.9,2.6,4.5,2.6,7.9v2.4h-13.8c.2,1.4.8,2.5,1.7,3.4.9.9,2.1,1.3,3.6,1.3,2.2,0,4-.8,5.2-2.4l2.8,3.2c-.9,1.2-2,2.2-3.5,2.9-1.5.7-3.1,1-4.9,1ZM759.4,1066.2c-1.1,0-2.1.4-2.8,1.2s-1.2,1.9-1.4,3.3h8v-.5c0-1.3-.4-2.3-1-3-.7-.7-1.6-1.1-2.8-1.1Z"/>
    <path class="st11" d="M784,1077.6c0-.7-.3-1.3-1.1-1.7-.7-.4-1.8-.8-3.4-1.1-5.2-1.1-7.7-3.3-7.7-6.6s.8-3.5,2.4-4.8c1.6-1.3,3.7-1.9,6.3-1.9s4.9.6,6.6,1.9c1.6,1.3,2.5,3,2.5,5h-5.8c0-.8-.3-1.5-.8-2.1-.5-.5-1.4-.8-2.5-.8s-1.7.2-2.3.7c-.5.4-.8,1-.8,1.7s.3,1.2.9,1.6c.6.4,1.6.7,3.1,1s2.7.6,3.6,1c3.1,1.1,4.6,3.1,4.6,5.8s-.8,3.6-2.5,4.8c-1.7,1.2-3.9,1.8-6.6,1.8s-3.4-.3-4.8-1c-1.4-.6-2.5-1.5-3.3-2.7-.8-1.1-1.2-2.3-1.2-3.7h5.5c0,1,.4,1.8,1.1,2.4.7.5,1.7.8,2.8.8s1.9-.2,2.5-.6c.6-.4.9-1,.9-1.7Z"/>
  </g>
  <rect class="st8" x="1115.3" y="314.3" width="425.5" height="150"/>
  <g>
    <rect class="st0" x="1143.2" y="369.8" width="357.7" height="67"/>
    <path class="st11" d="M1152.1,400.5h-6v-29.1h6v29.1Z"/>
    <path class="st11" d="M1162.7,378.9l.2,2.5c1.5-1.9,3.6-2.9,6.2-2.9s4,.7,5.1,2c1.1,1.3,1.7,3.4,1.7,6v14h-5.8v-13.9c0-1.2-.3-2.1-.8-2.7-.5-.6-1.4-.8-2.7-.8s-2.8.7-3.7,2.1v15.3h-5.8v-21.7h5.4Z"/>
    <path class="st11" d="M1189.3,396.3c1.1,0,1.9-.3,2.6-.9.7-.6,1-1.4,1-2.3h5.4c0,1.5-.4,2.8-1.2,4-.8,1.2-1.9,2.2-3.2,2.8s-2.9,1-4.5,1c-3.1,0-5.5-1-7.3-3-1.8-2-2.7-4.7-2.7-8.2v-.4c0-3.3.9-6,2.7-8,1.8-2,4.2-3,7.3-3s4.9.8,6.5,2.3c1.6,1.5,2.5,3.6,2.5,6.2h-5.4c0-1.1-.4-2-1-2.7-.7-.7-1.5-1.1-2.6-1.1s-2.4.5-3.1,1.5c-.7,1-1,2.6-1,4.8v.6c0,2.2.3,3.8,1,4.8s1.7,1.5,3.1,1.5Z"/>
    <path class="st11" d="M1211.6,400.9c-3.2,0-5.8-1-7.8-2.9-2-1.9-3-4.5-3-7.8v-.6c0-2.2.4-4.1,1.3-5.8.8-1.7,2-3,3.6-4,1.5-.9,3.3-1.4,5.3-1.4,3,0,5.3.9,7,2.8,1.7,1.9,2.6,4.5,2.6,7.9v2.4h-13.8c.2,1.4.8,2.5,1.7,3.4.9.9,2.1,1.3,3.6,1.3,2.2,0,4-.8,5.2-2.4l2.8,3.2c-.9,1.2-2,2.2-3.5,2.9-1.5.7-3.1,1-4.9,1ZM1211,383.1c-1.1,0-2.1.4-2.8,1.2s-1.2,1.9-1.4,3.3h8v-.5c0-1.3-.4-2.3-1-3-.7-.7-1.6-1.1-2.8-1.1Z"/>
    <path class="st11" d="M1229.2,378.9l.2,2.5c1.5-1.9,3.6-2.9,6.2-2.9s4,.7,5.1,2c1.1,1.3,1.7,3.4,1.7,6v14h-5.8v-13.9c0-1.2-.3-2.1-.8-2.7-.5-.6-1.4-.8-2.7-.8s-2.8.7-3.7,2.1v15.3h-5.8v-21.7h5.4Z"/>
    <path class="st11" d="M1245.9,389.6c0-3.4.8-6.1,2.3-8.1,1.5-2,3.6-3,6.2-3s3.9.8,5.2,2.4v-11.1h5.8v30.8h-5.2l-.3-2.3c-1.4,1.8-3.3,2.7-5.6,2.7s-4.6-1-6.1-3c-1.5-2-2.3-4.8-2.3-8.4ZM1251.7,390c0,2,.4,3.6,1.1,4.7.7,1.1,1.7,1.6,3.1,1.6s3-.8,3.8-2.3v-8.6c-.7-1.5-2-2.3-3.7-2.3-2.8,0-4.2,2.3-4.2,6.8Z"/>
    <path class="st11" d="M1269.9,373.3c0-.9.3-1.6.9-2.1.6-.6,1.4-.8,2.4-.8s1.8.3,2.4.8c.6.6.9,1.3.9,2.1s-.3,1.6-.9,2.2-1.4.8-2.4.8-1.8-.3-2.4-.8c-.6-.6-.9-1.3-.9-2.2ZM1276,400.5h-5.8v-21.7h5.8v21.7Z"/>
    <path class="st11" d="M1293.3,400.5c-.3-.5-.5-1.2-.6-1.9-1.4,1.6-3.2,2.3-5.5,2.3s-3.9-.6-5.3-1.8c-1.4-1.2-2.1-2.8-2.1-4.6s.9-4.1,2.6-5.3c1.7-1.2,4.2-1.8,7.4-1.9h2.7v-1.2c0-1-.3-1.8-.8-2.4-.5-.6-1.3-.9-2.4-.9s-1.7.2-2.3.7c-.6.5-.8,1.1-.8,1.9h-5.8c0-1.3.4-2.4,1.2-3.5.8-1.1,1.9-1.9,3.3-2.5,1.4-.6,3-.9,4.8-.9,2.7,0,4.8.7,6.4,2,1.6,1.3,2.4,3.2,2.4,5.7v9.4c0,2.1.3,3.6.9,4.7v.3h-5.8ZM1288.5,396.5c.9,0,1.6-.2,2.4-.6.7-.4,1.3-.9,1.6-1.5v-3.7h-2.2c-2.9,0-4.4,1-4.6,3v.3c0,.7.2,1.3.7,1.8.5.5,1.2.7,2.1.7Z"/>
    <path class="st11" d="M1314.9,384.3c-.8-.1-1.5-.2-2.1-.2-2.2,0-3.6.7-4.3,2.2v14.2h-5.8v-21.7h5.5l.2,2.6c1.2-2,2.8-3,4.8-3s1.2,0,1.8.3v5.6Z"/>
    <path class="st11" d="M1326.2,392.4l4-13.5h6.2l-8.7,25-.5,1.1c-1.3,2.8-3.4,4.2-6.4,4.2s-1.7-.1-2.6-.4v-4.4h.9c1.1,0,1.9-.1,2.5-.5.5-.3,1-.9,1.3-1.7l.7-1.8-7.6-21.7h6.2l4,13.5Z"/>
  </g>
  <rect class="st6" x="923.9" y="80.6" width="350.4" height="148.7"/>
  <g>
    <rect class="st0" x="947.2" y="136" width="186.7" height="67"/>
    <path class="st11" d="M964.9,159.1c0-1.1-.4-2-1.2-2.6s-2.2-1.2-4.3-1.9-3.7-1.3-4.9-2c-3.3-1.8-5-4.2-5-7.2s.4-3,1.3-4.2c.9-1.2,2.2-2.2,3.8-2.9,1.7-.7,3.5-1,5.6-1s3.9.4,5.6,1.1c1.6.8,2.9,1.8,3.8,3.2.9,1.4,1.4,2.9,1.4,4.7h-6c0-1.3-.4-2.4-1.3-3.1-.8-.7-2-1.1-3.5-1.1s-2.6.3-3.4.9c-.8.6-1.2,1.4-1.2,2.5s.5,1.7,1.4,2.4c1,.6,2.4,1.2,4.2,1.8,3.4,1,5.9,2.3,7.5,3.8s2.3,3.4,2.3,5.7-1,4.5-2.9,5.9c-1.9,1.4-4.5,2.2-7.7,2.2s-4.3-.4-6.1-1.2c-1.8-.8-3.2-1.9-4.2-3.4-1-1.4-1.5-3.1-1.5-5h6c0,3.2,1.9,4.8,5.8,4.8s2.5-.3,3.3-.9c.8-.6,1.2-1.4,1.2-2.4Z"/>
    <path class="st11" d="M980,145.1l.2,2.4c1.5-1.9,3.6-2.8,6.2-2.8s4.7,1.1,5.7,3.3c1.5-2.2,3.7-3.3,6.5-3.3s4.1.7,5.2,2.1c1.1,1.4,1.7,3.4,1.7,6.2v13.8h-5.8v-13.8c0-1.2-.2-2.1-.7-2.7s-1.3-.9-2.5-.9c-1.7,0-2.9.8-3.6,2.5v14.9s-5.8,0-5.8,0v-13.8c0-1.3-.2-2.2-.7-2.7-.5-.6-1.3-.8-2.5-.8s-2.8.7-3.6,2v15.4h-5.8v-21.7h5.4Z"/>
    <path class="st11" d="M1009.2,155.7c0-2.1.4-4.1,1.2-5.7.8-1.7,2-3,3.6-3.9,1.6-.9,3.4-1.4,5.4-1.4,2.9,0,5.3.9,7.2,2.7,1.8,1.8,2.9,4.2,3.1,7.3v1.5c0,3.3-.9,6-2.7,8-1.9,2-4.3,3-7.5,3s-5.6-1-7.5-3c-1.9-2-2.8-4.7-2.8-8.2v-.3ZM1015,156.1c0,2.1.4,3.6,1.2,4.7.8,1.1,1.9,1.6,3.3,1.6s2.5-.5,3.3-1.6c.8-1.1,1.2-2.8,1.2-5.2s-.4-3.6-1.2-4.7c-.8-1.1-1.9-1.7-3.3-1.7s-2.5.6-3.3,1.7c-.8,1.1-1.2,2.8-1.2,5.1Z"/>
    <path class="st11" d="M1041.1,158l-2.1,2.1v6.6h-5.8v-30.8h5.8v17l1.1-1.4,5.5-6.5h6.9l-7.8,9,8.5,12.6h-6.6l-5.6-8.7Z"/>
    <path class="st11" d="M1064.7,167.1c-3.2,0-5.8-1-7.8-2.9-2-1.9-3-4.5-3-7.8v-.6c0-2.2.4-4.1,1.3-5.8.8-1.7,2-3,3.6-4,1.5-.9,3.3-1.4,5.3-1.4,3,0,5.3.9,7,2.8,1.7,1.9,2.6,4.5,2.6,7.9v2.4h-13.8c.2,1.4.8,2.5,1.7,3.4.9.9,2.1,1.3,3.6,1.3,2.2,0,4-.8,5.2-2.4l2.8,3.2c-.9,1.2-2,2.2-3.5,2.9-1.5.7-3.1,1-4.9,1ZM1064.1,149.3c-1.1,0-2.1.4-2.8,1.2s-1.2,1.9-1.4,3.3h8v-.5c0-1.3-.4-2.3-1-3-.7-.7-1.6-1.1-2.8-1.1Z"/>
  </g>
  <rect class="st7" x="1114.8" y="960.8" width="421.6" height="150"/>
  <g>
    <rect class="st0" x="1144.4" y="1016.1" width="342.8" height="66.8"/>
    <path class="st11" d="M1157.8,1036.2h-4.8v10.7h-6v-29.1h10.8c3.4,0,6.1.8,8,2.3,1.9,1.5,2.8,3.7,2.8,6.5s-.4,3.6-1.3,5c-.9,1.3-2.2,2.4-3.9,3.2l6.3,11.9v.3h-6.4l-5.5-10.7ZM1153,1031.3h4.8c1.5,0,2.7-.4,3.5-1.2.8-.8,1.2-1.8,1.2-3.2s-.4-2.5-1.2-3.2c-.8-.8-2-1.2-3.6-1.2h-4.8v8.7Z"/>
    <path class="st11" d="M1185.3,1046.8c-.3-.5-.5-1.2-.6-1.9-1.4,1.6-3.2,2.3-5.5,2.3s-3.9-.6-5.3-1.8c-1.4-1.2-2.1-2.8-2.1-4.6s.9-4.1,2.6-5.3c1.7-1.2,4.2-1.8,7.4-1.9h2.7v-1.2c0-1-.3-1.8-.8-2.4-.5-.6-1.3-.9-2.4-.9s-1.7.2-2.3.7c-.6.5-.8,1.1-.8,1.9h-5.8c0-1.3.4-2.4,1.2-3.5.8-1.1,1.9-1.9,3.3-2.5s3-.9,4.8-.9c2.7,0,4.8.7,6.4,2,1.6,1.3,2.4,3.2,2.4,5.7v9.4c0,2.1.3,3.6.9,4.7v.3h-5.8ZM1180.5,1042.8c.9,0,1.6-.2,2.4-.6.7-.4,1.3-.9,1.6-1.5v-3.7h-2.2c-2.9,0-4.4,1-4.6,3v.3c0,.7.2,1.3.7,1.8.5.5,1.2.7,2.1.7Z"/>
    <path class="st11" d="M1193.8,1035.8c0-3.4.8-6.1,2.3-8.1s3.6-3,6.2-3,3.9.8,5.2,2.4v-11.1h5.8v30.8h-5.2l-.3-2.3c-1.4,1.8-3.3,2.7-5.6,2.7s-4.6-1-6.1-3c-1.5-2-2.3-4.8-2.3-8.4ZM1199.6,1036.3c0,2,.4,3.6,1.1,4.7s1.7,1.6,3.1,1.6,3-.8,3.8-2.3v-8.6c-.7-1.5-2-2.3-3.7-2.3-2.8,0-4.2,2.3-4.2,6.8Z"/>
    <path class="st11" d="M1217.8,1019.6c0-.9.3-1.6.9-2.1.6-.6,1.4-.8,2.4-.8s1.8.3,2.4.8c.6.6.9,1.3.9,2.1s-.3,1.6-.9,2.2-1.4.8-2.4.8-1.8-.3-2.4-.8c-.6-.6-.9-1.3-.9-2.2ZM1223.9,1046.8h-5.8v-21.7h5.8v21.7Z"/>
    <path class="st11" d="M1227.8,1035.8c0-2.1.4-4.1,1.2-5.7.8-1.7,2-3,3.6-3.9,1.6-.9,3.4-1.4,5.4-1.4,2.9,0,5.3.9,7.2,2.7,1.8,1.8,2.9,4.2,3.1,7.3v1.5c0,3.3-.9,6-2.7,8-1.9,2-4.3,3-7.5,3s-5.6-1-7.5-3c-1.9-2-2.8-4.7-2.8-8.2v-.3ZM1233.6,1036.2c0,2.1.4,3.6,1.2,4.7.8,1.1,1.9,1.6,3.3,1.6s2.5-.5,3.3-1.6c.8-1.1,1.2-2.8,1.2-5.2s-.4-3.6-1.2-4.7c-.8-1.1-1.9-1.7-3.3-1.7s-2.5.6-3.3,1.7c-.8,1.1-1.2,2.8-1.2,5.1Z"/>
    <path class="st11" d="M1258,1046.8h-5.8v-30.8h5.8v30.8Z"/>
    <path class="st11" d="M1261.9,1035.8c0-2.1.4-4.1,1.2-5.7.8-1.7,2-3,3.6-3.9,1.6-.9,3.4-1.4,5.4-1.4,2.9,0,5.3.9,7.2,2.7,1.8,1.8,2.9,4.2,3.1,7.3v1.5c0,3.3-.9,6-2.7,8-1.9,2-4.3,3-7.5,3s-5.6-1-7.5-3c-1.9-2-2.8-4.7-2.8-8.2v-.3ZM1267.7,1036.2c0,2.1.4,3.6,1.2,4.7.8,1.1,1.9,1.6,3.3,1.6s2.5-.5,3.3-1.6c.8-1.1,1.2-2.8,1.2-5.2s-.4-3.6-1.2-4.7c-.8-1.1-1.9-1.7-3.3-1.7s-2.5.6-3.3,1.7c-.8,1.1-1.2,2.8-1.2,5.1Z"/>
    <path class="st11" d="M1285.1,1035.8c0-3.3.8-6,2.4-8,1.6-2,3.7-3,6.4-3s4.2.8,5.5,2.4l.2-2h5.2v20.9c0,1.9-.4,3.5-1.3,4.9-.9,1.4-2.1,2.5-3.6,3.2-1.6.7-3.4,1.1-5.5,1.1s-3.1-.3-4.6-1c-1.5-.6-2.6-1.5-3.4-2.5l2.6-3.5c1.4,1.6,3.2,2.4,5.2,2.4s2.7-.4,3.6-1.2c.9-.8,1.3-2,1.3-3.5v-1.2c-1.3,1.5-3.1,2.3-5.3,2.3s-4.7-1-6.3-3.1c-1.6-2-2.4-4.7-2.4-8.1v-.2ZM1290.9,1036.3c0,2,.4,3.5,1.2,4.6.8,1.1,1.9,1.7,3.2,1.7s3-.7,3.8-2v-9.2c-.8-1.3-2-2-3.7-2s-2.5.6-3.3,1.7c-.8,1.1-1.2,2.8-1.2,5.1Z"/>
    <path class="st11" d="M1309.3,1019.6c0-.9.3-1.6.9-2.1.6-.6,1.4-.8,2.4-.8s1.8.3,2.4.8c.6.6.9,1.3.9,2.1s-.3,1.6-.9,2.2-1.4.8-2.4.8-1.8-.3-2.4-.8c-.6-.6-.9-1.3-.9-2.2ZM1315.5,1046.8h-5.8v-21.7h5.8v21.7Z"/>
    <path class="st11" d="M1329.2,1042.6c1.1,0,1.9-.3,2.6-.9.7-.6,1-1.4,1-2.3h5.4c0,1.5-.4,2.8-1.2,4-.8,1.2-1.9,2.2-3.2,2.8s-2.9,1-4.5,1c-3.1,0-5.5-1-7.3-3-1.8-2-2.7-4.7-2.7-8.2v-.4c0-3.3.9-6,2.7-8,1.8-2,4.2-3,7.3-3s4.9.8,6.5,2.3c1.6,1.5,2.5,3.6,2.5,6.2h-5.4c0-1.1-.4-2-1-2.7-.7-.7-1.5-1.1-2.6-1.1s-2.4.5-3.1,1.5c-.7,1-1,2.6-1,4.8v.6c0,2.2.3,3.8,1,4.8s1.7,1.5,3.1,1.5Z"/>
    <path class="st11" d="M1354.2,1046.8c-.3-.5-.5-1.2-.6-1.9-1.4,1.6-3.2,2.3-5.5,2.3s-3.9-.6-5.3-1.8c-1.4-1.2-2.1-2.8-2.1-4.6s.9-4.1,2.6-5.3c1.7-1.2,4.2-1.8,7.4-1.9h2.7v-1.2c0-1-.3-1.8-.8-2.4-.5-.6-1.3-.9-2.4-.9s-1.7.2-2.3.7c-.6.5-.8,1.1-.8,1.9h-5.8c0-1.3.4-2.4,1.2-3.5.8-1.1,1.9-1.9,3.3-2.5,1.4-.6,3-.9,4.8-.9,2.7,0,4.8.7,6.4,2,1.6,1.3,2.4,3.2,2.4,5.7v9.4c0,2.1.3,3.6.9,4.7v.3h-5.8ZM1349.4,1042.8c.9,0,1.6-.2,2.4-.6.7-.4,1.3-.9,1.6-1.5v-3.7h-2.2c-2.9,0-4.4,1-4.6,3v.3c0,.7.2,1.3.7,1.8.5.5,1.2.7,2.1.7Z"/>
    <path class="st11" d="M1369.7,1046.8h-5.8v-30.8h5.8v30.8Z"/>
  </g>
  <g>
    <rect class="st5" x="1467.4" y="549.1" width="347.7" height="322.2"/>
    <g>
      <rect class="st0" x="1528.6" y="790.7" width="214.3" height="81.8"/>
      <path class="st11" d="M1567.1,835.7h-8.8l-17.1-28.1v28.1h-8.8v-42.7h8.8l17.1,28.1v-28.1h8.8v42.7Z"/>
      <path class="st11" d="M1593.2,832.5c-2.1,2.5-5,3.8-8.7,3.8s-6-1-7.8-2.9-2.7-4.8-2.7-8.6v-20.8h8.5v20.5c0,3.3,1.5,5,4.5,5s4.8-1,5.9-3v-22.5h8.5v31.7h-8l-.2-3.2Z"/>
      <path class="st11" d="M1621,829.5c1.6,0,2.8-.4,3.8-1.3s1.5-2,1.5-3.4h7.9c0,2.1-.6,4.1-1.8,5.9s-2.7,3.2-4.7,4.2-4.2,1.5-6.6,1.5c-4.5,0-8.1-1.4-10.7-4.3s-3.9-6.9-3.9-11.9v-.6c0-4.9,1.3-8.8,3.9-11.7s6.2-4.4,10.7-4.4,7.1,1.1,9.5,3.4,3.6,5.3,3.6,9h-7.9c0-1.6-.5-3-1.5-4-1-1-2.3-1.5-3.9-1.5s-3.5.7-4.5,2.2c-1,1.4-1.5,3.8-1.5,7v.9c0,3.3.5,5.6,1.5,7s2.5,2.1,4.5,2.1Z"/>
      <path class="st11" d="M1648,835.7h-8.5v-45h8.5v45Z"/>
      <path class="st11" d="M1669.6,836.3c-4.6,0-8.4-1.4-11.4-4.3s-4.4-6.7-4.4-11.4v-.8c0-3.2.6-6,1.8-8.5s3-4.4,5.2-5.8,4.8-2,7.7-2c4.3,0,7.7,1.4,10.2,4.1s3.7,6.6,3.7,11.6v3.5h-20.2c.3,2.1,1.1,3.7,2.5,5s3.1,1.9,5.2,1.9c3.3,0,5.8-1.2,7.6-3.5l4.2,4.7c-1.3,1.8-3,3.2-5.2,4.2s-4.6,1.5-7.2,1.5ZM1668.6,810.3c-1.7,0-3,.6-4.1,1.7s-1.7,2.8-2,4.9h11.8v-.7c0-1.9-.5-3.3-1.5-4.4s-2.4-1.5-4.2-1.5Z"/>
      <path class="st11" d="M1705.8,835.7c-.4-.8-.7-1.7-.8-2.8-2.1,2.3-4.7,3.4-8,3.4s-5.7-.9-7.7-2.7-3.1-4.1-3.1-6.8,1.2-5.9,3.7-7.7,6.1-2.7,10.8-2.7h3.9v-1.8c0-1.5-.4-2.6-1.1-3.5s-1.9-1.3-3.6-1.3-2.5.3-3.4,1-1.2,1.6-1.2,2.8h-8.5c0-1.8.6-3.5,1.7-5.1s2.7-2.8,4.8-3.7,4.4-1.3,7-1.3c3.9,0,7,1,9.3,2.9s3.4,4.7,3.4,8.3v13.7c0,3,.4,5.3,1.3,6.8v.5h-8.6ZM1698.8,829.8c1.2,0,2.4-.3,3.5-.8s1.8-1.3,2.3-2.2v-5.4h-3.2c-4.2,0-6.5,1.5-6.8,4.4v.5c0,1.1.3,1.9,1.1,2.6s1.8,1,3,1Z"/>
      <path class="st11" d="M1737.4,812c-1.2-.2-2.2-.2-3-.2-3.2,0-5.3,1.1-6.3,3.3v20.7h-8.5v-31.7h8l.2,3.8c1.7-2.9,4.1-4.4,7.1-4.4s1.8.1,2.6.4v8.1Z"/>
    </g>
    <g>
      <path class="st12" d="M1625.6,641.7c-10.9,0-19.7,8.9-19.7,19.7s8.9,19.7,19.7,19.7,19.7-8.9,19.7-19.7-8.8-19.7-19.7-19.7Z"/>
      <path class="st12" d="M1613.8,637.7l-31.1-53.8-1.4.8c-27.3,15.8-44.3,45.2-44.3,76.7v1.6h62.1c0-.5-.2-1.1-.2-1.6,0-10.4,6.1-19.4,14.8-23.7h0Z"/>
      <path class="st12" d="M1652.3,661.4c0,.5-.1,1.1-.2,1.6h62.1v-1.6c0-31.5-17-60.9-44.3-76.7l-1.4-.8-31.1,53.8c8.7,4.4,14.8,13.3,14.8,23.7h0Z"/>
      <path class="st12" d="M1610.9,683.6l-31,53.7,1.4.8c13.7,7.9,29,11.8,44.3,11.8s30.6-3.9,44.3-11.8l1.4-.8-31-53.7c-4.2,2.8-9.3,4.4-14.7,4.4s-10.5-1.6-14.7-4.4h0Z"/>
    </g>
  </g>
  <g>
    <rect class="st5" x="786.2" y="549.1" width="347.7" height="322.2"/>
    <g>
      <rect class="st0" x="828.3" y="790.7" width="295.7" height="81.8"/>
      <path class="st11" d="M865.6,821.5c-.3,4.6-2,8.2-5.1,10.8s-7.1,4-12.1,4-9.8-1.8-12.9-5.5-4.7-8.7-4.7-15.2v-2.6c0-4.1.7-7.7,2.2-10.8,1.4-3.1,3.5-5.5,6.2-7.2,2.7-1.7,5.8-2.5,9.4-2.5s8.9,1.3,11.9,4,4.7,6.3,5.2,11.1h-8.8c-.2-2.8-1-4.8-2.3-6s-3.3-1.9-6-1.9-5.1,1-6.6,3.1c-1.5,2.1-2.2,5.4-2.2,9.8v3.2c0,4.6.7,8,2.1,10.1,1.4,2.1,3.6,3.2,6.6,3.2s4.7-.6,6.1-1.9,2.1-3.2,2.3-5.8h8.8Z"/>
      <path class="st11" d="M879.1,807.5c2.2-2.7,5.1-4,8.5-4,6.9,0,10.4,4,10.5,12v20.3h-8.5v-20.1c0-1.8-.4-3.2-1.2-4s-2.1-1.3-3.9-1.3-4.3,1-5.4,2.9v22.6h-8.5v-45h8.5v16.8Z"/>
      <path class="st11" d="M919,836.3c-4.6,0-8.4-1.4-11.4-4.3s-4.4-6.7-4.4-11.4v-.8c0-3.2.6-6,1.8-8.5s3-4.4,5.2-5.8,4.8-2,7.7-2c4.3,0,7.7,1.4,10.2,4.1s3.7,6.6,3.7,11.6v3.5h-20.2c.3,2.1,1.1,3.7,2.5,5s3.1,1.9,5.2,1.9c3.3,0,5.8-1.2,7.6-3.5l4.2,4.7c-1.3,1.8-3,3.2-5.2,4.2s-4.6,1.5-7.2,1.5ZM918,810.3c-1.7,0-3,.6-4.1,1.7s-1.7,2.8-2,4.9h11.8v-.7c0-1.9-.5-3.3-1.5-4.4s-2.4-1.5-4.2-1.5Z"/>
      <path class="st11" d="M944.8,804l.3,3.5c2.2-2.8,5.3-4.1,9.1-4.1s6.9,1.6,8.4,4.8c2.2-3.2,5.4-4.8,9.5-4.8s6,1,7.7,3,2.5,5,2.5,9v20.2h-8.5v-20.3c0-1.8-.4-3.1-1.1-3.9s-1.9-1.2-3.7-1.2c-2.5,0-4.3,1.2-5.3,3.6v21.8s-8.4,0-8.4,0v-20.2c0-1.8-.4-3.2-1.1-4s-2-1.2-3.7-1.2-4.1,1-5.2,3v22.5h-8.5v-31.7h7.9Z"/>
      <path class="st11" d="M988.7,795.8c0-1.3.4-2.3,1.3-3.1s2-1.2,3.5-1.2,2.6.4,3.5,1.2,1.3,1.9,1.3,3.1-.4,2.3-1.3,3.2-2,1.2-3.4,1.2-2.6-.4-3.4-1.2-1.3-1.9-1.3-3.2ZM997.7,835.7h-8.5v-31.7h8.5v31.7Z"/>
      <path class="st11" d="M1017.9,829.5c1.6,0,2.8-.4,3.8-1.3s1.5-2,1.5-3.4h7.9c0,2.1-.6,4.1-1.8,5.9s-2.7,3.2-4.7,4.2-4.2,1.5-6.6,1.5c-4.5,0-8.1-1.4-10.7-4.3s-3.9-6.9-3.9-11.9v-.6c0-4.9,1.3-8.8,3.9-11.7s6.2-4.4,10.7-4.4,7.1,1.1,9.5,3.4,3.6,5.3,3.6,9h-7.9c0-1.6-.5-3-1.5-4-1-1-2.3-1.5-3.9-1.5s-3.5.7-4.5,2.2c-1,1.4-1.5,3.8-1.5,7v.9c0,3.3.5,5.6,1.5,7s2.5,2.1,4.5,2.1Z"/>
      <path class="st11" d="M1054.3,835.7c-.4-.8-.7-1.7-.8-2.8-2.1,2.3-4.7,3.4-8,3.4s-5.7-.9-7.7-2.7-3.1-4.1-3.1-6.8,1.2-5.9,3.7-7.7,6.1-2.7,10.8-2.7h3.9v-1.8c0-1.5-.4-2.6-1.1-3.5s-1.9-1.3-3.6-1.3-2.5.3-3.4,1-1.2,1.6-1.2,2.8h-8.5c0-1.8.6-3.5,1.7-5.1s2.7-2.8,4.8-3.7,4.4-1.3,7-1.3c3.9,0,7,1,9.3,2.9s3.4,4.7,3.4,8.3v13.7c0,3,.4,5.3,1.3,6.8v.5h-8.6ZM1047.3,829.8c1.2,0,2.4-.3,3.5-.8s1.8-1.3,2.3-2.2v-5.4h-3.2c-4.2,0-6.5,1.5-6.8,4.4v.5c0,1.1.3,1.9,1.1,2.6s1.8,1,3,1Z"/>
      <path class="st11" d="M1077.1,835.7h-8.5v-45h8.5v45Z"/>
    </g>
    <g>
      <path class="st15" d="M955.1,703c-10.6,0-19-8.4-19-19s8.4-19,19-19,19,8.4,19,19-8.4,19-19,19Z"/>
      <path class="st15" d="M955.1,583.9c15.2,0,27.4,12.2,27.4,27.4s-8.6,23.4-20.8,26.4h-.7v24.1c-2-.7-4-.7-5.9-.7s-4,.3-5.9.7v-24.1h-.7c-12.2-3-20.8-13.9-20.8-26.4s12.2-27.4,27.4-27.4"/>
      <path class="st15" d="M977.2,690.5l20.5,11.9.7.3.3-.3c5.3-5.3,12.2-8.3,19.8-8.3s9.6,1.3,13.5,3.6c6.3,3.6,10.9,9.6,12.9,16.5,2,6.9,1,14.5-2.6,20.8-5,8.6-13.9,13.5-23.8,13.5s-9.6-1.3-13.5-3.6c-10.9-6.3-16.2-19.1-12.5-31.4l.3-.7-.7-.3-20.8-11.9c3-3,5-6.3,5.9-10.2"/>
      <path class="st15" d="M932.6,690.2c1,4,3,7.6,5.9,10.2l-21.1,12.2-.7.3.3.7c3.3,12.2-1.7,24.8-12.5,31.4-4.3,2.3-8.9,3.6-13.5,3.6-9.9,0-18.8-5.3-23.8-13.5-3.6-6.3-4.6-13.5-2.6-20.8,2-6.9,6.3-12.9,12.9-16.5,4.3-2.3,8.9-3.6,13.5-3.6,7.3,0,14.5,3,19.8,8.3l.3.3.7-.3,20.8-12.2"/>
      <g>
        <path class="st15" d="M964.3,653.2c13.9,4,23.4,16.8,23.4,31.4s-.3,5-1,7.6l-8.9-5.3v-2.6c0-9.2-5.3-17.5-13.9-21.1v-9.9"/>
        <path class="st15" d="M945.8,653.2v10.2c-8.3,3.6-13.9,11.9-13.9,21.1v2.3l-8.9,5c-.7-2.3-1-5-1-7.3.3-14.5,9.9-27.4,23.8-31.4"/>
        <path class="st15" d="M941.2,702.7c4,3,8.9,4.6,13.9,4.6s9.6-1.7,13.5-4.3l8.9,5c-6.3,5.9-14.2,8.9-22.4,8.9s-16.5-3.3-22.4-9.2l8.6-5"/>
      </g>
    </g>
  </g>
  <g>
    <path class="st10" d="M1193.7,122.6l1.4-.3c.3-2.4-5.2-9.5-6.4-12.7-1.5-3.8-3.1-8.7.9-11.5-4.1,8.1,3.8,15.6,7.2,22.4,10.4,20.8,3.9,40.6-14.7,53.3-.6.4-2.8,2.3-3.3,1.8l8.3-11.8c8-16.3,6.1-34.1-4.9-48.4-6.1-7.9-18.7-15.6-14.1-27.1,3.6-9,23.6-12,25.5-21.4.2-1.2,0-6.3.5-6.3,3.5,2.3,6,8.6,5.8,12.6-.6,13.5-18,12.5-20.1,21.4-2.8,11.7,9.5,18.9,14,27.9h0Z"/>
    <g>
      <path class="st10" d="M1200.2,181.7c5-11,18.1-17.3,16.8-34.8-1-13.8-14.8-20-20.2-27.5-6-8.3-8.5-20.7-4.4-33.2,2.1-6.3,6.4-12.1,10.3-13.1-5.1,6.9-7.3,19-5.2,30.2,4.2,22.3,24.8,17.3,29.9,38.8,4.4,18.3-3.5,30.9-11.9,37.2-8.8,6.7-16.5,5.6-17.9,26.4,0,.8-.1,1.6-.6.8-1.4-9.3-.2-17.5,3.1-24.7h0ZM1207.9,128.1c5.3,5.7,11.7,12.1,9.6,25.6-1.6,10.6-8.5,16.1-13,22.2-.2.2-1.1.6-.6,1.4.3.5,7.1-6.9,7.8-7.8,5.2-5.9,9.7-12.1,8.8-24.8-.6-8.5-6.6-13.6-10.5-16.3-.9-.6-1.9-1.5-2.9-1.6-.2,1.6.3.9.6,1.3h0Z"/>
      <path class="st14" d="M1187.9,173l-.6-.3c-.1-1.9,2.3-7.7,2.8-10.2.6-3.1,1.3-7-.4-9.3,1.8,6.5-1.7,12.6-3.1,18.1-4.6,16.7-1.7,32.7,6.5,43,.3.4,1.2,1.9,1.5,1.4l-3.6-9.5c-3.5-13.2-2.7-27.5,2.2-39,2.7-6.3,8.2-12.6,6.2-21.8-1.6-7.3-10.4-9.7-11.2-17.3-.1-.9,0-5.1-.2-5.1-1.5,1.8-2.6,6.9-2.5,10.1.2,10.9,7.9,10.1,8.8,17.3,1.2,9.4-4.2,15.2-6.1,22.5h0Z"/>
      <path class="st14" d="M1207.3,126.9c-.2,1.6.3.9.6,1.3,5.3,5.7,11.7,12.1,9.6,25.6-1.6,10.6-8.5,16.1-13,22.2-.2.2-1.1.6-.6,1.4.3.5,7.1-6.9,7.8-7.8,5.2-5.9,9.7-12.1,8.8-24.8-.6-8.5-6.6-13.6-10.5-16.3-.9-.6-1.9-1.5-2.9-1.6h0Z"/>
    </g>
  </g>
  <path class="st14" d="M1180.3,160c5.5,16.5,2.3,23.9-5.7,34.4-.3.4-1.2,1.9-1.4,1.5l3.4-9.6c3.2-13.2,2.2-18.8-2.9-30.2-2.8-6.3-6.2-13.7-5.1-23.1.9-7.6,9.1-12.5,9-24.8,0-.9-.2-5.1.1-5.1,1.6,1.8,5,9.3,2.7,16.2-2.6,7.9-9.6,12.2-.2,40.7h0Z"/>
  <g>
    <path class="st10" d="M658.2,999.6c-2.4,0-5-2.8-5-5s2.6-3,5-3,4.3,1.8,4.3,4-1.9,4-4.3,4M650.9,1005.7h0c-1.7,0-2.7-1.8-1.9-3.2l1.1-1.9c.3-.6,1.2-.6,1.5,0l1.1,1.9c.8,1.4-.2,3.2-1.9,3.2M643.6,999.6c-2.4,0-4.3-1.8-4.3-4s1.9-4,4.3-4,5,.8,5,3-2.6,5-5,5M650.9,974.5c-9,0-16.3,7.3-16.3,16.3v3.8c0,4.7,2.7,8.8,6.7,10.8v4.3c0,1.6,1.3,2.9,2.9,2.9h13.4c1.6,0,2.9-1.3,2.9-2.9v-4.3c4-2,6.7-6.1,6.7-10.8v-3.8c0-9-7.3-16.3-16.3-16.3"/>
    <path class="st10" d="M673.2,1014.7c1.7,2.2,5.2,2.8,7.6.4.6-.6,1-1.3,1.2-2.1.8-3-1.1-5.9-3.9-6.4h-.5c0-.1,0-.5,0-.5-.2-1.3-1.1-2.4-2.4-2.7-2.1-.5-4.1,1.1-4.1,3.1s0,.8.2,1.2l.3.7-45.8,23.3-.3-.5c-.4-.6-1-1.1-1.7-1.3-2.5-.8-4.8,1.4-4.2,3.9.2.7.6,1.3,1.1,1.7l.3.3-.2.5c-.1.4-.2.8-.3,1.2-.3,2.9,2.1,5.6,5,5.6,2.8,0,5.1-2.3,5.1-5s0-1-.2-1.5l-.2-.6,42.6-21.7.4.5h0Z"/>
    <g>
      <path class="st10" d="M623.3,1016.4c2.4.6,4.5-.6,5.5-2.4l14,7.1,6-3.1-18.9-9.6c.5-.6.7-1.5.6-2.3-.2-1.3-1.2-2.3-2.5-2.5-1.9-.3-3.6,1.2-3.6,3s0,.1,0,.2c-3,.1-5.3,2.9-4.6,6.1.4,1.7,1.8,3.2,3.5,3.6h0Z"/>
      <path class="st10" d="M679.9,1030c-1.7-.5-3.3.5-3.8,2l-17.2-8.8-6,3.1,18.8,9.6c-.5.9-.7,2.1-.4,3.3.4,2,2.2,3.6,4.2,3.8,2.9.3,5.4-2,5.4-4.9s-.2-1.6-.6-2.3c1.3-.6,2-2.1,1.5-3.7-.3-1-1.1-1.7-2.1-2h0Z"/>
    </g>
  </g>
  <g>
    <path class="st14" d="M1469.1,1031.4c0,5.9-4.8,10.6-10.6,10.6s-10.6-4.8-10.6-10.6,4.8-10.6,10.6-10.6,10.6,4.8,10.6,10.6Z"/>
    <path class="st1" d="M1496,1052.8c-5.6,10.1-27.1,8.8-48-2.8-20.8-11.7-33.1-29.3-27.5-39.4,5.6-10.1,27.1-8.8,48,2.8,20.8,11.7,33.1,29.3,27.5,39.4Z"/>
    <path class="st1" d="M1496.4,1010c5.6,10.1-6.9,27.7-27.8,39.2-20.9,11.5-42.4,12.6-48,2.5-5.6-10.1,6.9-27.7,27.8-39.2,20.9-11.5,42.4-12.6,48-2.5Z"/>
    <path class="st1" d="M1458,988.1c11.6,0,21.1,19.2,21.2,43.1.2,23.9-9.1,43.3-20.6,43.4-11.6,0-21.1-19.2-21.2-43.1-.2-23.9,9.1-43.3,20.6-43.4Z"/>
    <g>
      <path class="st10" d="M1452.4,997.8c-3.9,0-7.2-3.2-7.2-7.2s3.2-7.2,7.2-7.2,7.2,3.2,7.2,7.2-3.2,7.2-7.2,7.2Z"/>
      <path class="st9" d="M1452.4,984.6c3.3,0,6.1,2.7,6.1,6.1s-2.7,6.1-6.1,6.1-6.1-2.7-6.1-6.1,2.7-6.1,6.1-6.1M1452.4,982.4c-4.5,0-8.2,3.7-8.2,8.2s3.7,8.2,8.2,8.2,8.2-3.7,8.2-8.2-3.7-8.2-8.2-8.2h0Z"/>
    </g>
    <g>
      <path class="st10" d="M1420.3,1057.2c-3.9,0-7.2-3.2-7.2-7.2s3.2-7.2,7.2-7.2,7.2,3.2,7.2,7.2-3.2,7.2-7.2,7.2Z"/>
      <path class="st9" d="M1420.3,1044c3.3,0,6.1,2.7,6.1,6.1s-2.7,6.1-6.1,6.1-6.1-2.7-6.1-6.1,2.7-6.1,6.1-6.1M1420.3,1041.8c-4.5,0-8.2,3.7-8.2,8.2s3.7,8.2,8.2,8.2,8.2-3.7,8.2-8.2-3.7-8.2-8.2-8.2h0Z"/>
    </g>
    <g>
      <circle class="st10" cx="1489.4" cy="1057.3" r="7.2"/>
      <path class="st9" d="M1489.4,1051.3c3.3,0,6.1,2.7,6.1,6.1s-2.7,6.1-6.1,6.1-6.1-2.7-6.1-6.1,2.7-6.1,6.1-6.1M1489.4,1049.1c-4.5,0-8.2,3.7-8.2,8.2s3.7,8.2,8.2,8.2,8.2-3.7,8.2-8.2-3.7-8.2-8.2-8.2h0Z"/>
    </g>
  </g>
  <path class="st10" d="M1162.4,150.4l1.4-.2c1.1,2.1-1.5,10.7-1.6,14.1,0,4.1.2,9.2,4.9,10.4-6.7-6.1-1.9-16-1.1-23.5,2.5-23.1-10.5-39.4-32.4-44.9-.8-.2-3.4-1.2-3.7-.5l11.9,8.1c13.2,12.5,17.6,29.8,12.3,47.1-2.9,9.5-12.1,21.1-3.8,30.3,6.5,7.2,26.3,3.1,31.4,11.2.6,1,2.1,6,2.7,5.7,2.5-3.3,2.6-10.1,1.1-13.8-5.2-12.5-21.2-5.5-26.3-13.1-6.7-10,2.4-21,3.4-31.1h0Z"/>
  <path class="st14" d="M1453.3,414.2c-2.5,8-.6,11.6,2.6,15.5-.1,0-12.3-2.9-18.1-16.4-4.2-8.3-1.8-18.9,2.3-27,2.7-5.3,13.5-21.2,15.7-24.9,1.9-3.2,2-6.9.6-10.5-.2-.6-.4-1.2-.6-2,4,2.3,7.2,5.1,9.9,8.5,6,7.7,7.6,19,6.3,28.6,0,0,3.2-3.9,3.2-12.6,0,0,3.6,5.8,3.7,5.9,3.6,4.8,6.5,9.9,7.7,15.9,1.2,6.2,0,12-3.1,17.5-6.4,14.1-16.2,16.8-16,16.5,2.3-2.7,3.6-4.7,3.5-8.3-.2-5.7-3.4-7.6-6.1-12.2-2-3.7-3.1-7.6-2.6-10-4,2.6-7.2,9.8-9,15.5h0Z"/>
  <path class="st10" d="M1456,429.7s-6.3-4.3-2.6-15.5c4.9-14.7,9-15.5,9-15.5,0,0,0,6.1,2.6,10,3.5,5.3,5.7,7.4,6.1,12.2.4,5.5-3.5,8.3-3.5,8.3l-11.6.4h0Z"/>
</svg>