<?xml version="1.0" encoding="UTF-8"?>
<svg id="Ebene_2" xmlns="http://www.w3.org/2000/svg" version="1.1" viewBox="0 0 1920 640">
  <!-- Generator: Adobe Illustrator 29.0.1, SVG Export Plug-In . SVG Version: 2.1.0 Build 192)  -->
  <defs>
    <style>
      .st0, .st1, .st2 {
        fill: none;
      }

      .st1 {
        stroke: #0d435c;
        stroke-width: 5.2px;
      }

      .st1, .st2 {
        stroke-miterlimit: 10;
      }

      .st3 {
        fill: #0d435c;
      }

      .st4 {
        fill: #f3f5f7;
      }

      .st5 {
        fill: #0c425b;
      }

      .st6 {
        fill: #0d425b;
      }

      .st7 {
        fill: #fac100;
      }

      .st2 {
        stroke: #fac102;
        stroke-width: 6.6px;
      }

      .st8 {
        fill: #fac102;
      }
    </style>
  </defs>
  <rect class="st4" x=".4" y="0" width="1919.6" height="640"/>
  <g>
    <polygon class="st0" points="1042.7 176 1136.9 176 1136.9 302.5 1147.3 302.5 1147.3 167.1 1042.7 167.1 1042.7 176"/>
    <path class="st5" d="M1156.6,157.9h-123.1v18h-19.6v153.8h123.1v-18h19.6v-153.8ZM1127.7,320.6h-104.7v-135.4h104.7v135.4ZM1147.3,302.5h-10.4v-126.6h-94.2v-8.8h104.7v135.4h0Z"/>
  </g>
  <rect class="st5" x="1040.8" y="218.9" width="58.9" height="7.7"/>
  <rect class="st5" x="1040.8" y="235.8" width="66.2" height="7.7"/>
  <rect class="st5" x="1040.8" y="252.6" width="43.6" height="7.7"/>
  <path class="st7" d="M1117.4,292.7c0,2-.9,3.6-2.7,4.6,1.5,1.1,2.3,2.8,2.3,4.8s-.8,3.5-2.3,4.6c-1.5,1.1-3.7,1.7-6.4,1.7s-5.1-.6-6.7-1.8c-1.6-1.2-2.4-2.9-2.4-5.2h4.9c0,1,.4,1.7,1.1,2.3.7.5,1.8.8,3.2.8s2.2-.2,2.9-.6c.7-.4,1-1,1-1.7s-.4-1.3-1.1-1.8c-.7-.5-2.1-1-4.1-1.5-2-.6-3.6-1.2-4.6-1.8-1-.6-1.8-1.3-2.3-2.2-.5-.8-.8-1.9-.8-3,0-2,.9-3.5,2.7-4.6-1.5-1.2-2.3-2.8-2.3-4.8s.8-3.5,2.4-4.6c1.6-1.2,3.7-1.8,6.4-1.8s4.9.6,6.4,1.9,2.3,3,2.3,5.3h-4.9c0-1-.3-1.8-1-2.4-.7-.6-1.6-.9-2.8-.9s-2.2.2-2.9.7c-.7.4-1,1-1,1.8s.3,1.4.9,1.8c.6.4,2,.9,4,1.4,2.1.5,3.7,1.1,4.7,1.7,1.1.6,1.9,1.4,2.4,2.2.5.9.8,1.9.8,3.1h0ZM1105.3,288.9c-.8.5-1.3,1.3-1.3,2.4s.2,1.4.7,1.8c.5.4,1.4.9,2.8,1.3l3.7,1.1c.9-.5,1.4-1.3,1.4-2.4s-.3-1.3-.8-1.7c-.5-.4-1.4-.9-2.7-1.3l-3.8-1.2h0Z"/>
  <g>
    <path class="st6" d="M1559.6,208c0,1.1-.4,2.2-.9,3s-1.4,1.6-2.4,2-2.2.7-3.5.7c-2.2,0-3.9-.7-5.1-2.1s-1.9-3.4-1.9-6v-.8c0-1.6.3-3,.8-4.2s1.4-2.1,2.4-2.8c1.1-.7,2.3-1,3.7-1,2,0,3.6.5,4.8,1.6s1.9,2.5,2.1,4.4h-4c0-1-.3-1.7-.8-2.2s-1.2-.7-2.2-.7-1.7.4-2.2,1.1-.7,1.9-.7,3.5v1.2c0,1.8.2,3,.7,3.8s1.2,1.1,2.3,1.1,1.6-.2,2.1-.6.7-1.1.8-2h4Z"/>
    <path class="st6" d="M1574.2,207.5l1.9-10.3h3.9l-3.5,16.5h-4.1l-2.2-9.4-2.2,9.4h-4.1l-3.5-16.5h4l1.9,10.3,2.3-10.3h3.4l2.3,10.3h0Z"/>
    <path class="st6" d="M1594.9,208c0,1.1-.4,2.2-.9,3s-1.4,1.6-2.4,2-2.2.7-3.5.7c-2.2,0-3.9-.7-5.1-2.1s-1.9-3.4-1.9-6v-.8c0-1.6.3-3,.8-4.2s1.4-2.1,2.4-2.8c1.1-.7,2.3-1,3.7-1,2,0,3.6.5,4.8,1.6s1.9,2.5,2.1,4.4h-4c0-1-.3-1.7-.8-2.2s-1.2-.7-2.2-.7-1.7.4-2.2,1.1c-.5.7-.7,1.9-.7,3.5v1.2c0,1.8.2,3,.7,3.8s1.2,1.1,2.3,1.1,1.6-.2,2.1-.6.7-1.1.8-2h4Z"/>
  </g>
  <path class="st5" d="M1666.4,154h-120.2v17.6h-19.2v150.1h120.2v-17.6h19.2v-150.1ZM1536,312.7v-132.2h102.2v132.2h-102.2ZM1657.4,295.1h-10.2v-123.6h-92v-8.6h102.2v132.2Z"/>
  <rect class="st5" x="1546.2" y="226.3" width="64.6" height="7.5"/>
  <rect class="st5" x="1546.2" y="244.4" width="26.5" height="7.6"/>
  <g>
    <path class="st7" d="M1599.9,287.4c-3.6,0-6.5-2.9-6.5-6.5s2.9-6.5,6.5-6.5,6.5,2.9,6.5,6.5-2.9,6.5-6.5,6.5Z"/>
    <path class="st7" d="M1599.9,246.5c5.2,0,9.4,4.2,9.4,9.4s-2.9,8.1-7.1,9.1h-.2v8.3c-.7-.2-1.4-.2-2-.2s-1.4.1-2,.2v-8.3h-.2c-4.2-1-7.1-4.8-7.1-9.1s4.2-9.4,9.4-9.4"/>
    <path class="st7" d="M1607.5,283.1l7,4.1h.2c0,.1.1,0,.1,0,1.8-1.8,4.2-2.8,6.8-2.8s3.3.5,4.6,1.2c2.2,1.2,3.7,3.3,4.4,5.7.7,2.4.3,5-.9,7.1-1.7,2.9-4.8,4.6-8.2,4.6s-3.3-.5-4.6-1.2c-3.7-2.2-5.6-6.6-4.3-10.8v-.2c.1,0-.1-.1-.1-.1l-7.1-4.1c1-1,1.7-2.2,2-3.5"/>
    <path class="st7" d="M1592.1,283c.3,1.4,1,2.6,2,3.5l-7.3,4.2h-.2c0,.1.1.3.1.3,1.1,4.2-.6,8.5-4.3,10.8-1.5.8-3.1,1.2-4.6,1.2-3.4,0-6.5-1.8-8.2-4.6-1.2-2.2-1.6-4.6-.9-7.1.7-2.4,2.2-4.4,4.4-5.7,1.5-.8,3.1-1.2,4.6-1.2,2.5,0,5,1,6.8,2.8h.1c0,.1.2,0,.2,0l7.1-4.2"/>
    <g>
      <path class="st7" d="M1603,270.3c4.8,1.4,8.1,5.8,8.1,10.8s-.1,1.7-.3,2.6l-3.1-1.8v-.9c0-3.2-1.8-6-4.8-7.3v-3.4"/>
      <path class="st7" d="M1596.7,270.3v3.5c-2.8,1.2-4.8,4.1-4.8,7.3v.8l-3.1,1.7c-.2-.8-.3-1.7-.3-2.5.1-5,3.4-9.4,8.2-10.8"/>
      <path class="st7" d="M1595.1,287.3c1.4,1,3.1,1.6,4.8,1.6s3.3-.6,4.6-1.5l3.1,1.7c-2.2,2-4.9,3.1-7.7,3.1s-5.7-1.1-7.7-3.2l2.9-1.7"/>
    </g>
  </g>
  <path class="st3" d="M515.8,282.7c.2-7.9.3-30.9-.5-37.9-1.8-15.4-5.4-29.1-29.6-29.1s-27.7,15.8-28.9,27.7c-.3,3.4-.5,14.9-.5,25.6l6.5,6.2c0-11.6,0-27.6.4-31.1,1.5-15.5,8-21.9,22.5-21.9s21.5,8.9,23.2,23.4c.6,5.5.7,28.1.5,37.2h6.4s0,0,0,0Z"/>
  <path class="st3" d="M485.8,209c-16.1,0-29.1-13.1-29.1-29.3s13.1-29.3,29.1-29.3,29.1,13.9,29.1,30.3-12.8,28.2-29.1,28.2ZM485.8,156.9c-12.5,0-22.7,10.2-22.7,22.8s10.2,22.8,22.7,22.8,22.7-9.6,22.7-21.8-10.4-23.8-22.7-23.8Z"/>
  <path class="st3" d="M286.1,289.9h-59.2v-3.2c-.3-9.7-.3-39.2.3-44.8,1.2-11.9,5.4-27.7,28.9-27.7s27.8,13.8,29.6,29.1c.8,7,.7,35.5.5,43.4v3.1h0ZM233.2,283.4h46.6c.2-9.1.2-33.8-.5-39.3-1.7-14.6-4.1-23.4-23.2-23.4s-21,6.3-22.5,21.9c-.4,4.4-.5,30.4-.4,40.9h0Z"/>
  <path class="st3" d="M256.2,207.5c-16.1,0-29.1-13.1-29.1-29.3s13.1-29.3,29.1-29.3,29.1,13.9,29.1,30.3-12.8,28.2-29.1,28.2ZM256.2,155.5c-12.5,0-22.7,10.2-22.7,22.8s10.2,22.8,22.7,22.8,22.7-9.6,22.7-21.8-10.4-23.8-22.7-23.8Z"/>
  <path class="st3" d="M620.7,227.3h0c-16.3,0-29.1-12.4-29.1-28.2s13.3-30.3,29.1-30.3,29.1,13.1,29.1,29.3-13.1,29.3-29.1,29.3ZM620.7,175.3c-12.3,0-22.7,10.9-22.7,23.8s10,21.8,22.7,21.8,22.7-10.2,22.7-22.8-10.2-22.8-22.7-22.8Z"/>
  <path class="st3" d="M562.7,397.5c-10.4,0-17.7-5.1-17.8-12.4,0-3-.2-7.1-.4-11.9-.7-18.2-1.8-45.8,1.5-59.1.9-3.8,4.9-7.7,27.6-8.3,7.7-.2,15.3,0,19.6.2-.6-8.9-1.8-32-.3-44.8,2-17.1,5.4-29.1,30.9-29.2h0c16.7,0,25.7,9.1,27.5,27.7,1.1,10.9-.3,44.5-.5,48,1.3,11.9-2,34.8-23.4,37.7-19.2,2.6-38.8,1.9-46.5,1.5-.1,7.6-.5,26.4-.5,38.4,0,7.1-7.3,12.1-17.6,12.2,0,0-.2,0-.3,0h0ZM552.3,315.7c-3.1,12.5-2,39.4-1.3,57.2.2,4.8.3,8.9.4,12,0,4,5.7,6.1,11.4,6.1h.2c5.5,0,11.2-2.2,11.2-5.7,0-15.3.5-41.6.5-41.9v-3.4c0,0,3.5.3,3.5.3.2,0,25,1.8,48.6-1.3,20.7-2.8,18-29.7,17.8-30.8v-.2s0-.3,0-.3c0-.4,1.6-36.4.5-47.3-1.5-15.3-7.8-21.9-21.1-21.9h0c-20.8,0-22.7,8.1-24.5,23.5-1.8,15.2.5,46.9.5,47.2l.3,3.7-3.7-.2c-21.3-1.3-41.9.1-44.2,3.2h0Z"/>
  <path class="st3" d="M104.2,196.6c0-16.1,13.1-29.3,29.1-29.3s29.1,13.9,29.1,30.3-12.8,28.2-29.1,28.2h0c-16.1,0-29.1-13.1-29.1-29.3ZM110.7,196.6c0,12.6,10.2,22.8,22.7,22.8s22.7-9.6,22.7-21.8-10.4-23.8-22.7-23.8-22.7,10.2-22.7,22.8Z"/>
  <path class="st3" d="M191,396c-10.4,0-17.6-5.1-17.6-12.2,0-12-.3-30.8-.5-38.4-7.7.4-27.2,1-46.5-1.5-21.4-2.9-24.7-25.8-23.4-37.7-.1-3.5-1.5-37-.5-48,1.8-18.7,10.8-27.7,27.5-27.7h0c25.6,0,28.9,12.1,30.9,29.2,1.5,12.8.3,35.8-.3,44.8,4.3-.2,11.8-.4,19.6-.2,22.6.6,26.6,4.6,27.6,8.3,3.3,13.3,2.3,40.9,1.5,59.1-.2,4.7-.3,8.8-.4,11.9-.1,7.3-7.4,12.4-17.8,12.4s-.2,0-.3,0h0ZM157.6,311.1l-3.7.2.3-3.7c0-.3,2.3-32,.5-47.2-1.8-15.4-3.7-23.5-24.5-23.5h0c-13.3,0-19.6,6.6-21.1,21.9-1.1,10.9.5,46.9.5,47.3v.3s0,.2,0,.2c-.1,1.1-2.9,28.1,17.8,30.8,23.5,3.1,48.3,1.3,48.6,1.3l3.4-.3v3.4c0,.3.6,26.6.6,41.9,0,3.5,5.7,5.7,11.2,5.7h.2c5.6,0,11.3-2.1,11.4-6.1,0-3.1.2-7.2.4-12,.7-17.8,1.8-44.7-1.3-57.2-2.3-3-22.9-4.5-44.2-3.2h0Z"/>
  <path class="st1" d="M582.4,152.3l.7-1.4c4-8,7.3-21,3.1-31.5-7.4-18.7-28.7-27.9-47.3-20.5-9,3.6-16.2,10.5-20,19.4-3.9,9-4,18.9-.4,27.9,6.4,16.3,23.6,25.7,40.8,22.4h.2s32.5-1.1,32.5-1.1l-9.5-15.3h0Z"/>
  <path class="st3" d="M541.9,133.7c0,2.3-1.8,4.1-4.1,4.1s-4.1-1.8-4.1-4.1,1.8-4.1,4.1-4.1,4.1,1.8,4.1,4.1"/>
  <path class="st3" d="M555.4,133.7c0,2.3-1.8,4.1-4.1,4.1s-4.1-1.8-4.1-4.1,1.8-4.1,4.1-4.1,4.1,1.8,4.1,4.1"/>
  <path class="st3" d="M568.9,133.7c0,2.3-1.8,4.1-4.1,4.1s-4.1-1.8-4.1-4.1,1.8-4.1,4.1-4.1,4.1,1.8,4.1,4.1"/>
  <path class="st1" d="M161.8,160.6l32.5,1.1h.2c17.2,3.3,34.3-6.1,40.8-22.3,3.6-9,3.4-19-.4-27.9-3.9-9-11-15.9-20-19.4-18.7-7.4-39.9,1.8-47.3,20.5-4.2,10.5-.9,23.5,3.1,31.5l.7,1.4-9.5,15.3h0Z"/>
  <path class="st3" d="M211.8,126.7c0,2.3,1.8,4.1,4.1,4.1s4.1-1.8,4.1-4.1-1.8-4.1-4.1-4.1-4.1,1.8-4.1,4.1"/>
  <path class="st3" d="M198.4,126.7c0,2.3,1.8,4.1,4.1,4.1s4.1-1.8,4.1-4.1-1.8-4.1-4.1-4.1-4.1,1.8-4.1,4.1"/>
  <path class="st3" d="M184.9,126.7c0,2.3,1.8,4.1,4.1,4.1s4.1-1.8,4.1-4.1-1.8-4.1-4.1-4.1-4.1,1.8-4.1,4.1"/>
  <rect class="st3" x="104.4" y="350.3" width="61.5" height="13.1"/>
  <rect class="st3" x="590.2" y="351.7" width="61.5" height="13.1"/>
  <g>
    <path class="st3" d="M476,391.3h-4.8c-8.5,0-15.4-6.9-15.4-15.4v-60.8c0-8.5,6.9-15.4,15.4-15.4h4.8c8.5,0,15.4,6.9,15.4,15.4v60.8c0,8.5-6.9,15.4-15.4,15.4ZM471.2,306.6c-4.7,0-8.4,3.8-8.4,8.4v60.8c0,4.7,3.8,8.4,8.4,8.4h4.8c4.7,0,8.4-3.8,8.4-8.4v-60.8c0-4.7-3.8-8.4-8.4-8.4h-4.8Z"/>
    <path class="st3" d="M504.7,391.3h-4.8c-8.5,0-15.4-6.9-15.4-15.4v-60.8c0-8.5,6.9-15.4,15.4-15.4h4.8c8.5,0,15.4,6.9,15.4,15.4v60.8c0,8.5-6.9,15.4-15.4,15.4h0ZM499.9,306.6c-4.7,0-8.4,3.8-8.4,8.4v60.8c0,4.7,3.8,8.4,8.4,8.4h4.8c4.7,0,8.4-3.8,8.4-8.4v-60.8c0-4.7-3.8-8.4-8.4-8.4h-4.8Z"/>
  </g>
  <g>
    <path class="st3" d="M246.9,391.3h-4.8c-8.5,0-15.4-6.9-15.4-15.4v-60.8c0-8.5,6.9-15.4,15.4-15.4h4.8c8.5,0,15.4,6.9,15.4,15.4v60.8c0,8.5-6.9,15.4-15.4,15.4h0ZM242.1,306.6c-4.7,0-8.4,3.8-8.4,8.4v60.8c0,4.7,3.8,8.4,8.4,8.4h4.8c4.7,0,8.4-3.8,8.4-8.4v-60.8c0-4.7-3.8-8.4-8.4-8.4h-4.8Z"/>
    <path class="st3" d="M275.6,391.3h-4.8c-8.5,0-15.4-6.9-15.4-15.4v-60.8c0-8.5,6.9-15.4,15.4-15.4h4.8c8.5,0,15.4,6.9,15.4,15.4v60.8c0,8.5-6.9,15.4-15.4,15.4ZM270.8,306.6c-4.7,0-8.4,3.8-8.4,8.4v60.8c0,4.7,3.8,8.4,8.4,8.4h4.8c4.7,0,8.4-3.8,8.4-8.4v-60.8c0-4.7-3.8-8.4-8.4-8.4h-4.8Z"/>
  </g>
  <g>
    <polygon class="st6" points="317.3 282 182.1 282 182.1 297.2 207.7 297.2 317.3 297.2 317.3 282"/>
    <rect class="st5" x="338.9" y="268.3" width="59.5" height="7.9"/>
    <path class="st8" d="M464.7,279.6l-33.3-33.3c6.1-7.1,9.9-16.2,9.9-26.3,0-22.2-18-40.2-40.2-40.2s-40.2,18-40.2,40.2,18,40.2,40.2,40.2,16.8-2.8,23.4-7.6l33.6,33.6s2.2.5,4.8-2.1c2.6-2.6,1.8-4.5,1.8-4.5h0ZM401.2,250.8c-17,0-30.8-13.8-30.8-30.8s13.8-30.8,30.8-30.8,30.8,13.8,30.8,30.8-13.8,30.8-30.8,30.8Z"/>
    <g>
      <path class="st8" d="M428.4,261.7v44.1h-107.4v-137.4h107.4v17.1c3.7,2.9,6.9,6.4,9.5,10.3v-36.9h-126.3v156.3h126.3v-44.1l-9.5-9.5h0Z"/>
      <path class="st8" d="M437.8,247.4v-3.3c-.4.7-.9,1.3-1.3,2l1.3,1.3Z"/>
    </g>
    <path class="st5" d="M369.3,250.8h-30.3v7.9h40.8c-3.9-2.1-7.4-4.8-10.5-7.9h0Z"/>
    <path class="st5" d="M359.3,233.3h-20.4v7.9h23.8c-1.4-2.5-2.5-5.1-3.4-7.9Z"/>
    <path class="st5" d="M357.2,220c0-1.4,0-2.8.2-4.1h-18.5v7.9h18.5c-.1-1.2-.2-2.5-.2-3.7Z"/>
    <path class="st5" d="M362.9,198.4h-24v7.9h20.5c.9-2.8,2.1-5.4,3.5-7.9h0Z"/>
    <path class="st5" d="M410.7,207.9v-11.8h-21.8c-5,2.6-9.1,6.8-11.6,11.8h33.4Z"/>
    <path class="st5" d="M401.8,213.6h-26.6c-.5,2-.8,4.1-.8,6.3s.2,3.7.6,5.5h26.8v-11.8h0Z"/>
    <path class="st5" d="M411.1,230.7h-34.3c2.2,4.9,5.7,9,10.2,11.8h24.1v-11.8Z"/>
  </g>
  <path class="st6" d="M466,282c0,.1-.1.3-.2.5-.1.4-1.8,2.7-3.2,3.7-1.6,1.1-3.3,1.6-4.3,1.4-.8-.2-3.9-3.8-5.8-5.5h-14.6v15.2h135.9v-15.2h-107.7s0,0,0,0Z"/>
  <g>
    <line class="st2" x1="723.6" y1="253.3" x2="937.9" y2="253.3"/>
    <polyline class="st2" points="916 231.5 937.9 253.3 916 275.2"/>
  </g>
  <g>
    <line class="st2" x1="1229.6" y1="253.3" x2="1454.4" y2="253.3"/>
    <polyline class="st2" points="1432.6 231.5 1454.5 253.3 1432.6 275.2"/>
  </g>
  <g>
    <path class="st3" d="M290.3,487.6h-6.9l-13.3-21.9v21.9h-6.9v-33.3h6.9l13.4,21.9v-21.9h6.8v33.3h0Z"/>
    <path class="st3" d="M307.3,488c-3.6,0-6.6-1.1-8.9-3.3-2.3-2.2-3.4-5.2-3.4-8.9v-.6c0-2.5.5-4.7,1.4-6.7s2.3-3.5,4.1-4.5c1.8-1.1,3.8-1.6,6-1.6,3.4,0,6,1.1,8,3.2,1.9,2.1,2.9,5.2,2.9,9.1v2.7h-15.7c.2,1.6.9,2.9,1.9,3.9,1.1,1,2.4,1.5,4.1,1.5,2.5,0,4.5-.9,6-2.8l3.2,3.6c-1,1.4-2.3,2.5-4,3.3-1.7.8-3.6,1.2-5.6,1.2h0ZM306.5,467.7c-1.3,0-2.4.4-3.2,1.3-.8.9-1.3,2.2-1.6,3.8h9.2v-.5c0-1.5-.4-2.6-1.2-3.4-.8-.8-1.8-1.2-3.2-1.2h0Z"/>
    <path class="st3" d="M320.2,475c0-3.8.9-6.8,2.7-9.2,1.8-2.3,4.2-3.5,7.3-3.5s4.8.9,6.3,2.8l.3-2.3h6v23.9c0,2.2-.5,4-1.5,5.6-1,1.6-2.4,2.8-4.1,3.7s-3.9,1.3-6.3,1.3-3.6-.4-5.3-1.1-3-1.7-3.9-2.8l2.9-4c1.6,1.8,3.6,2.8,6,2.8s3.1-.5,4.1-1.4c1-.9,1.5-2.3,1.5-4v-1.3c-1.5,1.7-3.5,2.6-6,2.6s-5.4-1.2-7.2-3.5c-1.8-2.3-2.8-5.4-2.8-9.2v-.3h0ZM326.8,475.5c0,2.2.4,4,1.3,5.3s2.1,1.9,3.7,1.9,3.5-.8,4.3-2.3v-10.4c-.9-1.5-2.3-2.3-4.3-2.3s-2.8.7-3.7,2c-.9,1.3-1.4,3.2-1.4,5.8h0Z"/>
    <path class="st3" d="M346.9,475c0-2.5.5-4.6,1.4-6.6s2.3-3.4,4.1-4.5,3.8-1.6,6.2-1.6c3.3,0,6.1,1,8.2,3.1,2.1,2,3.3,4.8,3.5,8.3v1.7c0,3.8-1,6.8-3.1,9.1s-5,3.4-8.5,3.4-6.4-1.1-8.5-3.4c-2.1-2.3-3.2-5.4-3.2-9.3v-.3h0ZM353.5,475.4c0,2.3.4,4.1,1.3,5.4.9,1.2,2.1,1.9,3.8,1.9s2.8-.6,3.7-1.8c.9-1.2,1.3-3.2,1.3-5.9s-.4-4.1-1.3-5.4-2.2-1.9-3.8-1.9-2.9.6-3.7,1.9c-.9,1.3-1.3,3.2-1.3,5.8h0Z"/>
    <path class="st3" d="M382.3,456.8v6.1h4.2v4.8h-4.2v12.3c0,.9.2,1.6.5,2s1,.6,2,.6,1.4,0,1.9-.2v5c-1.3.4-2.6.6-4,.6-4.6,0-7-2.3-7.1-7v-13.3h-3.6v-4.8h3.6v-6.1h6.6Z"/>
    <path class="st3" d="M390.1,456.4c0-1,.3-1.8,1-2.4.7-.6,1.6-1,2.7-1s2,.3,2.7,1,1,1.5,1,2.4-.3,1.8-1,2.5-1.6,1-2.7,1-2-.3-2.7-1c-.7-.6-1-1.5-1-2.5h0ZM397.1,487.6h-6.6v-24.7h6.6v24.7Z"/>
    <path class="st3" d="M416.9,487.6c-.3-.6-.5-1.3-.7-2.2-1.6,1.8-3.7,2.7-6.2,2.7s-4.4-.7-6-2.1-2.4-3.2-2.4-5.3,1-4.6,2.9-6c1.9-1.4,4.7-2.1,8.4-2.1h3v-1.4c0-1.1-.3-2.1-.9-2.7s-1.5-1-2.8-1-2,.3-2.6.8-.9,1.3-.9,2.2h-6.6c0-1.4.4-2.8,1.3-4s2.1-2.2,3.7-2.9,3.4-1,5.4-1c3,0,5.5.8,7.3,2.3,1.8,1.5,2.7,3.7,2.7,6.5v10.7c0,2.3.3,4.1,1,5.3v.4h-6.7ZM411.5,483c1,0,1.9-.2,2.7-.7.8-.4,1.4-1,1.8-1.7v-4.3h-2.5c-3.3,0-5.1,1.1-5.3,3.4v.4c0,.8.3,1.5.8,2s1.4.8,2.4.8Z"/>
    <path class="st3" d="M435.6,456.8v6.1h4.2v4.8h-4.2v12.3c0,.9.2,1.6.5,2s1,.6,2,.6,1.4,0,1.9-.2v5c-1.3.4-2.6.6-4,.6-4.6,0-7-2.3-7.1-7v-13.3h-3.6v-4.8h3.6v-6.1h6.6Z"/>
    <path class="st3" d="M454.9,488c-3.6,0-6.6-1.1-8.9-3.3-2.3-2.2-3.4-5.2-3.4-8.9v-.6c0-2.5.5-4.7,1.4-6.7s2.3-3.5,4.1-4.5c1.8-1.1,3.8-1.6,6-1.6,3.4,0,6,1.1,8,3.2,1.9,2.1,2.9,5.2,2.9,9.1v2.7h-15.7c.2,1.6.9,2.9,1.9,3.9,1.1,1,2.4,1.5,4.1,1.5,2.5,0,4.5-.9,6-2.8l3.2,3.6c-1,1.4-2.3,2.5-4,3.3-1.7.8-3.6,1.2-5.6,1.2h0ZM454.1,467.7c-1.3,0-2.4.4-3.2,1.3-.8.9-1.3,2.2-1.6,3.8h9.2v-.5c0-1.5-.4-2.6-1.2-3.4-.8-.8-1.8-1.2-3.2-1.2h0Z"/>
    <path class="st3" d="M467.8,475c0-3.9.9-6.9,2.6-9.2,1.7-2.3,4.1-3.4,7.1-3.4s4.4.9,6,2.7v-12.6h6.6v35.1h-6l-.3-2.6c-1.6,2.1-3.8,3.1-6.4,3.1s-5.2-1.1-7-3.4c-1.8-2.3-2.6-5.5-2.6-9.6h0ZM474.4,475.5c0,2.3.4,4.1,1.2,5.4.8,1.2,2,1.9,3.5,1.9s3.5-.9,4.3-2.6v-9.8c-.8-1.7-2.2-2.6-4.3-2.6-3.2,0-4.8,2.6-4.8,7.8h0Z"/>
    <path class="st3" d="M331.2,559.3h-8.4v-32.6l-10.1,3.1v-6.8l17.6-6.3h.9v42.6Z"/>
    <path class="st3" d="M364.8,542.3c-2.2,2.2-4.8,3.2-7.7,3.2s-6.8-1.3-9-3.9-3.4-6.1-3.4-10.4.6-5.3,1.8-7.7,2.9-4.1,5.1-5.4c2.2-1.3,4.6-1.9,7.4-1.9s5.3.7,7.5,2.1c2.2,1.4,3.9,3.4,5.1,6,1.2,2.6,1.8,5.6,1.8,9v3.1c0,7.1-1.8,12.7-5.3,16.7-3.5,4.1-8.5,6.2-15,6.5h-2.1s0-7,0-7h1.9c7.3-.4,11.3-3.8,11.9-10.4h0ZM359.1,539.1c1.4,0,2.5-.4,3.5-1.1s1.7-1.5,2.2-2.5v-3.5c0-2.9-.5-5.1-1.6-6.7-1.1-1.6-2.5-2.4-4.4-2.4s-3.1.8-4.2,2.3c-1.1,1.5-1.6,3.5-1.6,5.8s.5,4.2,1.6,5.7c1.1,1.5,2.6,2.2,4.5,2.2h0Z"/>
    <path class="st3" d="M399.1,542.3c-2.2,2.2-4.8,3.2-7.7,3.2s-6.8-1.3-9-3.9-3.4-6.1-3.4-10.4.6-5.3,1.8-7.7,2.9-4.1,5.1-5.4c2.2-1.3,4.6-1.9,7.4-1.9s5.3.7,7.5,2.1c2.2,1.4,3.9,3.4,5.1,6,1.2,2.6,1.8,5.6,1.8,9v3.1c0,7.1-1.8,12.7-5.3,16.7-3.5,4.1-8.5,6.2-15,6.5h-2.1s0-7,0-7h1.9c7.3-.4,11.3-3.8,11.9-10.4h0ZM393.5,539.1c1.4,0,2.5-.4,3.5-1.1s1.7-1.5,2.2-2.5v-3.5c0-2.9-.5-5.1-1.6-6.7-1.1-1.6-2.5-2.4-4.4-2.4s-3.1.8-4.2,2.3c-1.1,1.5-1.6,3.5-1.6,5.8s.5,4.2,1.6,5.7c1.1,1.5,2.6,2.2,4.5,2.2h0Z"/>
    <path class="st3" d="M442.8,559.3h-29.1v-5.8l13.8-14.7c1.9-2.1,3.3-3.9,4.2-5.4.9-1.5,1.4-3,1.4-4.4s-.5-3.4-1.4-4.5c-1-1.1-2.3-1.6-4.1-1.6s-3.4.7-4.5,2c-1.1,1.3-1.7,3-1.7,5.2h-8.5c0-2.6.6-5,1.9-7.1,1.2-2.1,3-3.8,5.2-5,2.3-1.2,4.8-1.8,7.7-1.8,4.4,0,7.8,1.1,10.2,3.2,2.4,2.1,3.6,5.1,3.6,8.9s-.5,4.2-1.6,6.4c-1.1,2.2-3,4.7-5.6,7.6l-9.7,10.2h18.3v6.8h0Z"/>
  </g>
  <g>
    <path class="st3" d="M861.2,471.7c0,3.3-.6,6.1-1.7,8.6s-2.8,4.4-5,5.7c-2.2,1.3-4.6,2-7.4,2s-5.2-.7-7.4-2-3.8-3.2-5-5.7c-1.2-2.5-1.8-5.3-1.8-8.5v-1.6c0-3.3.6-6.2,1.8-8.7,1.2-2.5,2.8-4.4,5-5.7,2.2-1.3,4.6-2,7.4-2s5.2.7,7.4,2c2.2,1.3,3.8,3.2,5,5.7,1.2,2.5,1.8,5.4,1.8,8.6v1.5h0ZM854.3,470.2c0-3.5-.6-6.1-1.9-8s-3-2.7-5.3-2.7-4.1.9-5.3,2.7-1.9,4.4-1.9,7.9v1.6c0,3.4.6,6,1.9,7.9,1.2,1.9,3,2.8,5.4,2.8s4.1-.9,5.3-2.7c1.2-1.8,1.9-4.4,1.9-7.9v-1.6h0Z"/>
    <path class="st3" d="M888,475.4c0,3.8-.9,6.9-2.6,9.2-1.7,2.3-4.1,3.4-7,3.4s-4.5-.9-6.1-2.6v11.7h-6.6v-34.2h6.1l.2,2.4c1.6-1.9,3.7-2.9,6.3-2.9s5.4,1.1,7.1,3.4,2.5,5.4,2.5,9.3v.3h0ZM881.4,474.9c0-2.3-.4-4.1-1.2-5.3-.8-1.3-2-1.9-3.6-1.9s-3.5.8-4.3,2.4v10.2c.8,1.6,2.2,2.5,4.3,2.5,3.2,0,4.7-2.6,4.7-7.8h0Z"/>
    <path class="st3" d="M903.5,488c-3.6,0-6.6-1.1-8.9-3.3-2.3-2.2-3.4-5.2-3.4-8.9v-.6c0-2.5.5-4.7,1.4-6.7,1-2,2.3-3.5,4.1-4.5,1.8-1.1,3.8-1.6,6-1.6,3.4,0,6,1.1,8,3.2,1.9,2.1,2.9,5.2,2.9,9.1v2.7h-15.7c.2,1.6.9,2.9,1.9,3.9,1.1,1,2.4,1.5,4.1,1.5,2.5,0,4.5-.9,6-2.8l3.2,3.6c-1,1.4-2.3,2.5-4,3.3-1.7.8-3.6,1.2-5.6,1.2h0ZM902.7,467.7c-1.3,0-2.4.4-3.2,1.3-.8.9-1.3,2.2-1.6,3.8h9.2v-.5c0-1.5-.4-2.6-1.2-3.4-.8-.8-1.8-1.2-3.2-1.2h0Z"/>
    <path class="st3" d="M923.5,462.8l.2,2.9c1.8-2.2,4.1-3.3,7.1-3.3s4.6.8,5.9,2.3,1.9,3.8,2,6.9v16h-6.6v-15.9c0-1.4-.3-2.4-.9-3.1-.6-.6-1.6-.9-3-.9s-3.3.8-4.2,2.4v17.5h-6.6v-24.7h6.2Z"/>
    <path class="st3" d="M955,488c-3.6,0-6.6-1.1-8.9-3.3-2.3-2.2-3.4-5.2-3.4-8.9v-.6c0-2.5.5-4.7,1.4-6.7s2.3-3.5,4.1-4.5c1.8-1.1,3.8-1.6,6-1.6,3.4,0,6,1.1,8,3.2,1.9,2.1,2.9,5.2,2.9,9.1v2.7h-15.7c.2,1.6.9,2.9,1.9,3.9,1.1,1,2.4,1.5,4.1,1.5,2.5,0,4.5-.9,6-2.8l3.2,3.6c-1,1.4-2.3,2.5-4,3.3-1.7.8-3.6,1.2-5.6,1.2h0ZM954.2,467.7c-1.3,0-2.4.4-3.2,1.3-.8.9-1.3,2.2-1.6,3.8h9.2v-.5c0-1.5-.4-2.6-1.2-3.4-.8-.8-1.8-1.2-3.2-1.2h0Z"/>
    <path class="st3" d="M967.9,475c0-3.9.9-6.9,2.6-9.2,1.7-2.3,4.1-3.4,7.1-3.4s4.4.9,6,2.7v-12.6h6.6v35.1h-6l-.3-2.6c-1.6,2.1-3.8,3.1-6.4,3.1s-5.2-1.1-7-3.4c-1.8-2.3-2.6-5.5-2.6-9.6h0ZM974.5,475.5c0,2.3.4,4.1,1.2,5.4.8,1.2,2,1.9,3.5,1.9s3.5-.9,4.3-2.6v-9.8c-.8-1.7-2.2-2.6-4.3-2.6-3.2,0-4.8,2.6-4.8,7.8h0Z"/>
    <path class="st3" d="M1008.8,487.6v-19.9h-3.7v-4.8h3.7v-2.1c0-2.8.8-4.9,2.4-6.5,1.6-1.5,3.8-2.3,6.7-2.3s2,.1,3.4.5v5.1c-.6-.1-1.3-.2-2.1-.2-2.5,0-3.7,1.2-3.7,3.5v2h4.9v4.8h-4.9v19.9h-6.6,0Z"/>
    <path class="st3" d="M1022.7,475c0-2.5.5-4.6,1.4-6.6.9-1.9,2.3-3.4,4.1-4.5,1.8-1.1,3.8-1.6,6.2-1.6,3.3,0,6.1,1,8.2,3.1,2.1,2,3.3,4.8,3.5,8.3v1.7c0,3.8-1,6.8-3.1,9.1s-5,3.4-8.5,3.4-6.4-1.1-8.5-3.4c-2.1-2.3-3.2-5.4-3.2-9.3v-.3h0ZM1029.3,475.4c0,2.3.4,4.1,1.3,5.4.9,1.2,2.1,1.9,3.8,1.9s2.8-.6,3.7-1.8c.9-1.2,1.4-3.2,1.4-5.9s-.5-4.1-1.4-5.4-2.2-1.9-3.8-1.9-2.9.6-3.7,1.9c-.9,1.3-1.3,3.2-1.3,5.8h0Z"/>
    <path class="st3" d="M1064.1,469c-.9-.1-1.7-.2-2.4-.2-2.5,0-4.1.8-4.9,2.5v16.2h-6.6v-24.7h6.2l.2,2.9c1.3-2.3,3.2-3.4,5.5-3.4s1.4,0,2.1.3v6.4c0,0,0,0,0,0Z"/>
    <path class="st3" d="M1096.6,478.8c0-1.3-.5-2.3-1.4-3s-2.6-1.4-4.9-2.2-4.3-1.5-5.6-2.3c-3.8-2-5.7-4.8-5.7-8.3s.5-3.4,1.5-4.8c1-1.4,2.5-2.5,4.4-3.3,1.9-.8,4-1.2,6.4-1.2s4.5.4,6.4,1.3c1.9.9,3.3,2.1,4.3,3.6,1,1.6,1.5,3.4,1.5,5.3h-6.9c0-1.5-.5-2.7-1.4-3.6-1-.8-2.3-1.3-4-1.3s-3,.4-3.9,1.1c-.9.7-1.4,1.6-1.4,2.8s.5,2,1.6,2.7c1.1.7,2.7,1.4,4.8,2.1,3.9,1.2,6.7,2.6,8.5,4.4s2.7,3.9,2.7,6.5-1.1,5.1-3.3,6.8c-2.2,1.6-5.1,2.5-8.8,2.5s-4.9-.5-7-1.4c-2.1-.9-3.7-2.2-4.8-3.8-1.1-1.6-1.7-3.5-1.7-5.7h6.9c0,3.7,2.2,5.5,6.6,5.5s2.9-.3,3.8-1c.9-.7,1.4-1.6,1.4-2.8h0Z"/>
    <path class="st3" d="M1107.6,456.4c0-1,.3-1.8,1-2.4.7-.6,1.6-1,2.7-1s2,.3,2.7,1,1,1.5,1,2.4-.3,1.8-1,2.5c-.7.6-1.6,1-2.7,1s-2-.3-2.7-1c-.7-.6-1-1.5-1-2.5ZM1114.7,487.6h-6.6v-24.7h6.6v24.7Z"/>
    <path class="st3" d="M1119.1,475c0-3.8.9-6.8,2.7-9.2,1.8-2.3,4.2-3.5,7.3-3.5s4.8.9,6.3,2.8l.3-2.3h6v23.9c0,2.2-.5,4-1.5,5.6-1,1.6-2.4,2.8-4.1,3.7s-3.9,1.3-6.3,1.3-3.6-.4-5.3-1.1-3-1.7-3.9-2.8l2.9-4c1.6,1.8,3.6,2.8,6,2.8s3.1-.5,4.1-1.4c1-.9,1.5-2.3,1.5-4v-1.3c-1.5,1.7-3.5,2.6-6,2.6s-5.4-1.2-7.2-3.5c-1.8-2.3-2.8-5.4-2.8-9.2v-.3h0ZM1125.7,475.5c0,2.2.5,4,1.4,5.3.9,1.3,2.1,1.9,3.7,1.9s3.4-.8,4.3-2.3v-10.4c-.9-1.5-2.3-2.3-4.3-2.3s-2.8.7-3.7,2c-.9,1.3-1.4,3.2-1.4,5.8h0Z"/>
    <path class="st3" d="M1152.9,462.8l.2,2.9c1.8-2.2,4.1-3.3,7.1-3.3s4.6.8,5.9,2.3,1.9,3.8,2,6.9v16h-6.6v-15.9c0-1.4-.3-2.4-.9-3.1-.6-.6-1.6-.9-3-.9s-3.3.8-4.2,2.4v17.5h-6.6v-24.7h6.2,0Z"/>
    <path class="st3" d="M1187.4,487.6c-.3-.6-.5-1.3-.7-2.2-1.6,1.8-3.7,2.7-6.2,2.7s-4.4-.7-6-2.1c-1.6-1.4-2.4-3.2-2.4-5.3s1-4.6,2.9-6c1.9-1.4,4.7-2.1,8.4-2.1h3v-1.4c0-1.1-.3-2.1-.9-2.7-.6-.7-1.5-1-2.8-1s-2,.3-2.6.8c-.6.5-.9,1.3-.9,2.2h-6.6c0-1.4.4-2.8,1.3-4s2.1-2.2,3.7-2.9,3.4-1,5.4-1c3,0,5.5.8,7.3,2.3,1.8,1.5,2.7,3.7,2.7,6.5v10.7c0,2.3.3,4.1,1,5.3v.4h-6.7,0ZM1181.9,483c1,0,1.9-.2,2.7-.7.8-.4,1.4-1,1.8-1.7v-4.3h-2.5c-3.3,0-5.1,1.1-5.3,3.4v.4c0,.8.3,1.5.8,2s1.4.8,2.4.8Z"/>
    <path class="st3" d="M1206,456.8v6.1h4.2v4.8h-4.2v12.3c0,.9.2,1.6.5,2s1,.6,2,.6,1.4,0,1.9-.2v5c-1.3.4-2.6.6-4,.6-4.6,0-7-2.3-7.1-7v-13.3h-3.6v-4.8h3.6v-6.1h6.6Z"/>
    <path class="st3" d="M1228.8,485.1c-1.6,2-3.9,3-6.8,3s-4.7-.8-6.1-2.3c-1.4-1.5-2.1-3.8-2.1-6.7v-16.2h6.6v16c0,2.6,1.2,3.9,3.5,3.9s3.8-.8,4.6-2.3v-17.5h6.6v24.7h-6.2l-.2-2.5h0Z"/>
    <path class="st3" d="M1254,469c-.9-.1-1.7-.2-2.4-.2-2.5,0-4.1.8-4.9,2.5v16.2h-6.6v-24.7h6.2l.2,2.9c1.3-2.3,3.2-3.4,5.5-3.4s1.4,0,2.1.3v6.4c0,0,0,0,0,0Z"/>
    <path class="st3" d="M1268.2,488c-3.6,0-6.6-1.1-8.9-3.3-2.3-2.2-3.4-5.2-3.4-8.9v-.6c0-2.5.5-4.7,1.4-6.7s2.3-3.5,4.1-4.5c1.8-1.1,3.8-1.6,6-1.6,3.4,0,6,1.1,8,3.2,1.9,2.1,2.9,5.2,2.9,9.1v2.7h-15.7c.2,1.6.9,2.9,1.9,3.9,1.1,1,2.4,1.5,4.1,1.5,2.5,0,4.5-.9,6-2.8l3.2,3.6c-1,1.4-2.3,2.5-4,3.3-1.7.8-3.6,1.2-5.6,1.2ZM1267.4,467.7c-1.3,0-2.4.4-3.2,1.3-.8.9-1.3,2.2-1.6,3.8h9.2v-.5c0-1.5-.4-2.6-1.2-3.4-.8-.8-1.8-1.2-3.2-1.2h0Z"/>
    <path class="st3" d="M1010,559.3h-8.4v-32.6l-10.1,3.1v-6.8l17.6-6.3h.9v42.6h0Z"/>
    <path class="st3" d="M1043.5,542.3c-2.2,2.2-4.8,3.2-7.7,3.2s-6.8-1.3-9-3.9c-2.3-2.6-3.4-6.1-3.4-10.4s.6-5.3,1.8-7.7c1.2-2.3,2.9-4.1,5.1-5.4,2.2-1.3,4.6-1.9,7.4-1.9s5.3.7,7.5,2.1c2.2,1.4,3.9,3.4,5.1,6,1.2,2.6,1.8,5.6,1.8,9v3.1c0,7.1-1.8,12.7-5.3,16.7-3.5,4.1-8.5,6.2-15,6.5h-2.1s0-7,0-7h1.9c7.3-.4,11.3-3.8,11.9-10.4h0ZM1037.9,539.1c1.4,0,2.5-.4,3.5-1.1,1-.7,1.7-1.5,2.2-2.5v-3.5c0-2.9-.5-5.1-1.6-6.7-1.1-1.6-2.5-2.4-4.4-2.4s-3.1.8-4.2,2.3c-1.1,1.5-1.6,3.5-1.6,5.8s.5,4.2,1.6,5.7c1.1,1.5,2.6,2.2,4.5,2.2Z"/>
    <path class="st3" d="M1077.8,542.3c-2.2,2.2-4.8,3.2-7.7,3.2s-6.8-1.3-9-3.9c-2.3-2.6-3.4-6.1-3.4-10.4s.6-5.3,1.8-7.7c1.2-2.3,2.9-4.1,5.1-5.4,2.2-1.3,4.6-1.9,7.4-1.9s5.3.7,7.5,2.1c2.2,1.4,3.9,3.4,5.1,6,1.2,2.6,1.8,5.6,1.8,9v3.1c0,7.1-1.8,12.7-5.3,16.7-3.5,4.1-8.5,6.2-15,6.5h-2.1s0-7,0-7h1.9c7.3-.4,11.3-3.8,11.9-10.4h0ZM1072.2,539.1c1.4,0,2.5-.4,3.5-1.1,1-.7,1.7-1.5,2.2-2.5v-3.5c0-2.9-.5-5.1-1.6-6.7-1.1-1.6-2.5-2.4-4.4-2.4s-3.1.8-4.2,2.3c-1.1,1.5-1.6,3.5-1.6,5.8s.5,4.2,1.6,5.7c1.1,1.5,2.6,2.2,4.5,2.2Z"/>
    <path class="st3" d="M1101,534.3h4.5c2.1,0,3.7-.5,4.8-1.6,1-1.1,1.5-2.5,1.5-4.3s-.5-3-1.5-4c-1-1-2.4-1.4-4.2-1.4s-3,.4-4.1,1.3c-1.1.9-1.6,2-1.6,3.5h-8.4c0-2.2.6-4.2,1.8-6,1.2-1.8,2.9-3.1,5-4.1,2.2-1,4.5-1.5,7.1-1.5,4.5,0,8,1.1,10.6,3.2s3.8,5.1,3.8,8.9-.6,3.7-1.8,5.4c-1.2,1.6-2.7,2.9-4.7,3.8,2.4.9,4.2,2.1,5.4,3.9s1.8,3.7,1.8,6.1c0,3.8-1.4,6.8-4.1,9.1-2.8,2.3-6.4,3.4-10.9,3.4s-7.7-1.1-10.4-3.4c-2.7-2.2-4-5.2-4-8.9h8.4c0,1.6.6,2.9,1.8,3.9,1.2,1,2.7,1.5,4.4,1.5s3.6-.5,4.7-1.6c1.1-1.1,1.7-2.5,1.7-4.2,0-4.2-2.3-6.4-7-6.4h-4.5v-6.6h0Z"/>
  </g>
  <g>
    <path class="st3" d="M1452.8,473.1h-13.2v9h15.5v5.5h-22.3v-33.3h22.3v5.6h-15.4v7.9h13.2v5.3h0Z"/>
    <path class="st3" d="M1464.8,462.8l.2,2.9c1.8-2.2,4.1-3.3,7.1-3.3s4.6.8,5.9,2.3,1.9,3.8,2,6.9v16h-6.6v-15.9c0-1.4-.3-2.4-.9-3.1-.6-.6-1.6-.9-3-.9s-3.3.8-4.2,2.4v17.5h-6.6v-24.7h6.2Z"/>
    <path class="st3" d="M1492.8,456.8v6.1h4.2v4.8h-4.2v12.3c0,.9.2,1.6.5,2s1,.6,2,.6,1.4,0,1.9-.2v5c-1.3.4-2.6.6-4,.6-4.6,0-7-2.3-7.1-7v-13.3h-3.6v-4.8h3.6v-6.1h6.6,0Z"/>
    <path class="st3" d="M1512.1,488c-3.6,0-6.6-1.1-8.9-3.3-2.3-2.2-3.4-5.2-3.4-8.9v-.6c0-2.5.5-4.7,1.4-6.7s2.3-3.5,4.1-4.5c1.8-1.1,3.8-1.6,6-1.6,3.4,0,6,1.1,8,3.2,1.9,2.1,2.9,5.2,2.9,9.1v2.7h-15.7c.2,1.6.9,2.9,1.9,3.9,1.1,1,2.4,1.5,4.1,1.5,2.5,0,4.5-.9,6-2.8l3.2,3.6c-1,1.4-2.3,2.5-4,3.3-1.7.8-3.6,1.2-5.6,1.2h0ZM1511.4,467.7c-1.3,0-2.4.4-3.2,1.3-.8.9-1.3,2.2-1.6,3.8h9.2v-.5c0-1.5-.4-2.6-1.2-3.4-.8-.8-1.8-1.2-3.2-1.2h0Z"/>
    <path class="st3" d="M1539.9,469c-.9-.1-1.7-.2-2.4-.2-2.5,0-4.1.8-4.9,2.5v16.2h-6.6v-24.7h6.2l.2,2.9c1.3-2.3,3.2-3.4,5.5-3.4s1.4,0,2.1.3v6.4c0,0,0,0,0,0Z"/>
    <path class="st3" d="M1554.1,488c-3.6,0-6.6-1.1-8.9-3.3-2.3-2.2-3.4-5.2-3.4-8.9v-.6c0-2.5.5-4.7,1.4-6.7,1-2,2.3-3.5,4.1-4.5,1.8-1.1,3.8-1.6,6-1.6,3.4,0,6,1.1,8,3.2,1.9,2.1,2.9,5.2,2.9,9.1v2.7h-15.7c.2,1.6.9,2.9,1.9,3.9,1.1,1,2.4,1.5,4.1,1.5,2.5,0,4.5-.9,6-2.8l3.2,3.6c-1,1.4-2.3,2.5-4,3.3-1.7.8-3.6,1.2-5.6,1.2h0ZM1553.3,467.7c-1.3,0-2.4.4-3.2,1.3-.8.9-1.3,2.2-1.6,3.8h9.2v-.5c0-1.5-.4-2.6-1.2-3.4-.8-.8-1.8-1.2-3.2-1.2h0Z"/>
    <path class="st3" d="M1566.9,475c0-3.9.9-6.9,2.6-9.2,1.7-2.3,4.1-3.4,7.1-3.4s4.4.9,6,2.7v-12.6h6.6v35.1h-6l-.3-2.6c-1.6,2.1-3.8,3.1-6.4,3.1s-5.2-1.1-7-3.4c-1.8-2.3-2.6-5.5-2.6-9.6h0ZM1573.5,475.5c0,2.3.4,4.1,1.2,5.4.8,1.2,2,1.9,3.5,1.9s3.5-.9,4.3-2.6v-9.8c-.8-1.7-2.2-2.6-4.3-2.6-3.2,0-4.8,2.6-4.8,7.8h0Z"/>
    <path class="st3" d="M1606,456.4c0-1,.3-1.8,1-2.4.7-.6,1.6-1,2.7-1s2,.3,2.7,1,1,1.5,1,2.4-.3,1.8-1,2.5-1.6,1-2.7,1-2-.3-2.7-1c-.7-.6-1-1.5-1-2.5ZM1613,487.6h-6.6v-24.7h6.6v24.7Z"/>
    <path class="st3" d="M1624.5,462.8l.2,2.9c1.8-2.2,4.1-3.3,7.1-3.3s4.6.8,5.9,2.3,1.9,3.8,2,6.9v16h-6.6v-15.9c0-1.4-.3-2.4-.9-3.1-.6-.6-1.6-.9-3-.9s-3.3.8-4.2,2.4v17.5h-6.6v-24.7h6.2Z"/>
    <path class="st3" d="M1652.5,456.8v6.1h4.2v4.8h-4.2v12.3c0,.9.2,1.6.5,2s1,.6,2,.6,1.4,0,1.9-.2v5c-1.3.4-2.6.6-4,.6-4.6,0-7-2.3-7.1-7v-13.3h-3.6v-4.8h3.6v-6.1h6.6,0Z"/>
    <path class="st3" d="M1658.7,475c0-2.5.5-4.6,1.4-6.6s2.3-3.4,4.1-4.5,3.8-1.6,6.2-1.6c3.3,0,6.1,1,8.2,3.1s3.3,4.8,3.5,8.3v1.7c0,3.8-1,6.8-3.1,9.1s-5,3.4-8.5,3.4-6.4-1.1-8.5-3.4c-2.1-2.3-3.2-5.4-3.2-9.3v-.3h0ZM1665.3,475.4c0,2.3.4,4.1,1.3,5.4.9,1.2,2.1,1.9,3.8,1.9s2.8-.6,3.7-1.8c.9-1.2,1.3-3.2,1.3-5.9s-.4-4.1-1.3-5.4-2.2-1.9-3.8-1.9-2.9.6-3.7,1.9c-.9,1.3-1.3,3.2-1.3,5.8h0Z"/>
    <path class="st3" d="M1718.3,474h-13.2v13.6h-6.9v-33.3h21.7v5.6h-14.8v8.6h13.2v5.5h0Z"/>
    <path class="st3" d="M1722,475c0-2.5.5-4.6,1.4-6.6s2.3-3.4,4.1-4.5,3.8-1.6,6.2-1.6c3.3,0,6.1,1,8.2,3.1s3.3,4.8,3.5,8.3v1.7c0,3.8-1,6.8-3.1,9.1s-5,3.4-8.5,3.4-6.4-1.1-8.5-3.4c-2.1-2.3-3.2-5.4-3.2-9.3v-.3h0ZM1728.6,475.4c0,2.3.4,4.1,1.3,5.4.9,1.2,2.1,1.9,3.8,1.9s2.8-.6,3.7-1.8c.9-1.2,1.3-3.2,1.3-5.9s-.4-4.1-1.3-5.4c-.9-1.3-2.2-1.9-3.8-1.9s-2.9.6-3.7,1.9c-.9,1.3-1.3,3.2-1.3,5.8h0Z"/>
    <path class="st3" d="M1763.4,469c-.9-.1-1.7-.2-2.4-.2-2.5,0-4.1.8-4.9,2.5v16.2h-6.6v-24.7h6.2l.2,2.9c1.3-2.3,3.2-3.4,5.5-3.4s1.4,0,2.1.3v6.4c0,0,0,0,0,0Z"/>
    <path class="st3" d="M1776.4,482.7c1.2,0,2.2-.3,3-1s1.2-1.6,1.2-2.7h6.2c0,1.7-.5,3.2-1.4,4.6-.9,1.4-2.1,2.5-3.7,3.2-1.6.8-3.3,1.2-5.2,1.2-3.5,0-6.3-1.1-8.4-3.4-2-2.2-3.1-5.4-3.1-9.3v-.4c0-3.8,1-6.8,3-9.1s4.8-3.4,8.3-3.4,5.6.9,7.4,2.6c1.9,1.8,2.8,4.1,2.8,7h-6.2c0-1.3-.4-2.3-1.2-3.1s-1.8-1.2-3-1.2-2.7.6-3.5,1.7c-.8,1.1-1.2,2.9-1.2,5.5v.7c0,2.5.4,4.4,1.2,5.5s2,1.7,3.5,1.7h0Z"/>
    <path class="st3" d="M1801.9,488c-3.6,0-6.6-1.1-8.9-3.3-2.3-2.2-3.4-5.2-3.4-8.9v-.6c0-2.5.5-4.7,1.4-6.7,1-2,2.3-3.5,4.1-4.5,1.8-1.1,3.8-1.6,6-1.6,3.4,0,6,1.1,8,3.2,1.9,2.1,2.9,5.2,2.9,9.1v2.7h-15.7c.2,1.6.9,2.9,1.9,3.9,1.1,1,2.4,1.5,4.1,1.5,2.5,0,4.5-.9,6-2.8l3.2,3.6c-1,1.4-2.3,2.5-4,3.3-1.7.8-3.6,1.2-5.6,1.2h0ZM1801.2,467.7c-1.3,0-2.4.4-3.2,1.3-.8.9-1.3,2.2-1.6,3.8h9.2v-.5c0-1.5-.4-2.6-1.2-3.4-.8-.8-1.8-1.2-3.2-1.2h0Z"/>
    <path class="st3" d="M1576.3,559.3h-8.4v-32.6l-10.1,3.1v-6.8l17.6-6.3h.9v42.6h0Z"/>
    <path class="st3" d="M1609.9,542.3c-2.2,2.2-4.8,3.2-7.7,3.2s-6.8-1.3-9-3.9-3.4-6.1-3.4-10.4.6-5.3,1.8-7.7,2.9-4.1,5.1-5.4c2.2-1.3,4.6-1.9,7.4-1.9s5.3.7,7.5,2.1c2.2,1.4,3.9,3.4,5.1,6,1.2,2.6,1.8,5.6,1.8,9v3.1c0,7.1-1.8,12.7-5.3,16.7-3.5,4.1-8.5,6.2-15,6.5h-2.1s0-7,0-7h1.9c7.3-.4,11.3-3.8,11.9-10.4h0ZM1604.3,539.1c1.4,0,2.5-.4,3.5-1.1s1.7-1.5,2.2-2.5v-3.5c0-2.9-.5-5.1-1.6-6.7-1.1-1.6-2.5-2.4-4.4-2.4s-3.1.8-4.2,2.3c-1.1,1.5-1.6,3.5-1.6,5.8s.5,4.2,1.6,5.7c1.1,1.5,2.6,2.2,4.5,2.2Z"/>
    <path class="st3" d="M1644.2,542.3c-2.2,2.2-4.8,3.2-7.7,3.2s-6.8-1.3-9-3.9-3.4-6.1-3.4-10.4.6-5.3,1.8-7.7,2.9-4.1,5.1-5.4c2.2-1.3,4.6-1.9,7.4-1.9s5.3.7,7.5,2.1c2.2,1.4,3.9,3.4,5.1,6,1.2,2.6,1.8,5.6,1.8,9v3.1c0,7.1-1.8,12.7-5.3,16.7-3.5,4.1-8.5,6.2-15,6.5h-2.1s0-7,0-7h1.9c7.3-.4,11.3-3.8,11.9-10.4h0ZM1638.6,539.1c1.4,0,2.5-.4,3.5-1.1s1.7-1.5,2.2-2.5v-3.5c0-2.9-.5-5.1-1.6-6.7-1.1-1.6-2.5-2.4-4.4-2.4s-3.1.8-4.2,2.3c-1.1,1.5-1.6,3.5-1.6,5.8s.5,4.2,1.6,5.7c1.1,1.5,2.6,2.2,4.5,2.2Z"/>
    <path class="st3" d="M1687.7,521.5l-16.4,37.8h-8.9l16.5-35.7h-21.1v-6.8h30v4.7h0Z"/>
  </g>
</svg>