<?xml version="1.0" encoding="UTF-8"?>
<svg id="Ebene_2" data-name="Ebene 2" xmlns="http://www.w3.org/2000/svg" xmlns:xlink="http://www.w3.org/1999/xlink" viewBox="0 0 1920 1280">
  <defs>
    <style>
      .cls-1, .cls-2, .cls-3, .cls-4, .cls-5 {
        fill: none;
      }

      .cls-2 {
        stroke: #ced9de;
        stroke-width: 4.67796px;
      }

      .cls-2, .cls-6, .cls-3, .cls-4, .cls-5, .cls-7, .cls-8, .cls-9 {
        stroke-miterlimit: 10;
      }

      .cls-6 {
        stroke: #426b7e;
        stroke-width: 4px;
      }

      .cls-6, .cls-10, .cls-7, .cls-8, .cls-9 {
        fill: #fff;
      }

      .cls-11 {
        fill: #ced9de;
      }

      .cls-12 {
        fill: #90172f;
      }

      .cls-3 {
        stroke-width: 3.16007px;
      }

      .cls-3, .cls-4, .cls-5 {
        stroke: #0d435c;
      }

      .cls-4 {
        stroke-width: 3.35143px;
      }

      .cls-5 {
        stroke-width: 3.31711px;
      }

      .cls-13 {
        fill: #0d435c;
      }

      .cls-14 {
        fill: #f3f5f7;
      }

      .cls-15 {
        fill: #7996a5;
      }

      .cls-7 {
        stroke-width: 2.72794px;
      }

      .cls-7, .cls-8, .cls-9 {
        stroke: #aebfc7;
      }

      .cls-16 {
        fill: #98ba00;
      }

      .cls-8 {
        stroke-width: 3.00529px;
      }

      .cls-9 {
        stroke-width: 3.0191px;
      }

      .cls-17 {
        fill: #fac102;
      }
    </style>
    <clipPath id="clippath">
      <rect class="cls-1" x="1916.29466" y="415.86639" width="1603.34527" height="829.92543"/>
    </clipPath>
  </defs>
  <rect class="cls-14" x="1.50259" width="1918.49741" height="1280"/>
  <g>
    <rect class="cls-6" x="105.09011" y="549.0744" width="347.66241" height="322.15433"/>
    <g>
      <rect class="cls-1" x="134.20772" y="790.72157" width="295.73648" height="81.81328"/>
      <path class="cls-13" d="M138.01611,835.72227v-42.65625h14.94189c5.17578,0,9.10156.99121,11.77734,2.97363s4.01367,4.8877,4.01367,8.71582c0,2.08984-.53711,3.93066-1.61133,5.52246s-2.56836,2.75879-4.48242,3.50098c2.1875.54688,3.91016,1.65039,5.16992,3.31055s1.89062,3.69141,1.89062,6.09375c0,4.10156-1.30859,7.20703-3.92578,9.31641s-6.34766,3.18359-11.19141,3.22266h-16.58252ZM146.80518,810.93711h6.50439c4.43359-.07812,6.65039-1.8457,6.65039-5.30273,0-1.93359-.5625-3.3252-1.68555-4.1748s-2.89453-1.27441-5.31641-1.27441h-6.15283v10.75195ZM146.80518,817.14805v11.51367h7.52979c2.07031,0,3.68555-.49316,4.84766-1.47949s1.74414-2.34863,1.74414-4.08691c0-3.90625-2.02148-5.88867-6.06445-5.94727h-8.05713Z"/>
      <path class="cls-13" d="M175.69238,795.81993c0-1.26953.4248-2.31445,1.27441-3.13477s2.00684-1.23047,3.47168-1.23047c1.44531,0,2.59766.41016,3.45703,1.23047s1.28906,1.86523,1.28906,3.13477c0,1.28906-.43457,2.34375-1.30371,3.16406s-2.0166,1.23047-3.44238,1.23047-2.57324-.41016-3.44238-1.23047-1.30371-1.875-1.30371-3.16406ZM184.68652,835.72227h-8.49609v-31.69922h8.49609v31.69922Z"/>
      <path class="cls-13" d="M190.34082,819.57969c0-3.14453.60547-5.94727,1.81641-8.4082s2.9541-4.36523,5.22949-5.71289,4.91699-2.02148,7.9248-2.02148c4.27734,0,7.76855,1.30859,10.47363,3.92578s4.21387,6.17188,4.52637,10.66406l.05859,2.16797c0,4.86328-1.35742,8.76465-4.07227,11.7041s-6.35742,4.40918-10.92773,4.40918-8.21777-1.46484-10.94238-4.39453-4.08691-6.91406-4.08691-11.95312v-.38086ZM198.80762,820.18028c0,3.0127.56641,5.31641,1.69922,6.91016,1.13281,1.59473,2.75391,2.3916,4.86328,2.3916,2.05078,0,3.65234-.78711,4.80469-2.3623,1.15234-1.57422,1.72852-4.09277,1.72852-7.55469,0-2.9541-.57617-5.24316-1.72852-6.86621s-2.77344-2.43555-4.86328-2.43555c-2.07031,0-3.67188.80664-4.80469,2.4209s-1.69922,4.1123-1.69922,7.49609Z"/>
      <path class="cls-13" d="M234.52051,835.72227h-8.49609v-45h8.49609v45Z"/>
      <path class="cls-13" d="M240.1748,819.57969c0-3.14453.60547-5.94727,1.81641-8.4082s2.9541-4.36523,5.22949-5.71289,4.91699-2.02148,7.9248-2.02148c4.27734,0,7.76855,1.30859,10.47363,3.92578s4.21387,6.17188,4.52637,10.66406l.05859,2.16797c0,4.86328-1.35742,8.76465-4.07227,11.7041s-6.35742,4.40918-10.92773,4.40918-8.21777-1.46484-10.94238-4.39453-4.08691-6.91406-4.08691-11.95312v-.38086ZM248.6416,820.18028c0,3.0127.56641,5.31641,1.69922,6.91016,1.13281,1.59473,2.75391,2.3916,4.86328,2.3916,2.05078,0,3.65234-.78711,4.80469-2.3623,1.15234-1.57422,1.72852-4.09277,1.72852-7.55469,0-2.9541-.57617-5.24316-1.72852-6.86621s-2.77344-2.43555-4.86328-2.43555c-2.07031,0-3.67188.80664-4.80469,2.4209s-1.69922,4.1123-1.69922,7.49609Z"/>
      <path class="cls-13" d="M274.18848,819.63829c0-4.86328,1.15723-8.7793,3.47168-11.74805s5.43457-4.45312,9.36035-4.45312c3.47656,0,6.18164,1.19141,8.11523,3.57422l.35156-2.98828h7.67578v30.64453c0,2.77344-.62988,5.18555-1.88965,7.23633s-3.03223,3.61328-5.31738,4.6875-4.96094,1.61133-8.02734,1.61133c-2.32422,0-4.58984-.46387-6.79688-1.3916s-3.87695-2.12402-5.00977-3.58887l3.75-5.15625c2.10938,2.36328,4.66797,3.54492,7.67578,3.54492,2.24609,0,3.99414-.60059,5.24414-1.80176s1.875-2.90527,1.875-5.1123v-1.69922c-1.95312,2.20703-4.52148,3.31055-7.70508,3.31055-3.80859,0-6.88965-1.48926-9.24316-4.46777s-3.53027-6.92871-3.53027-11.85059v-.35156ZM282.65527,820.24083c0,2.88379.57617,5.14551,1.72852,6.78418,1.15234,1.6377,2.73438,2.45703,4.74609,2.45703,2.57812,0,4.42383-.9707,5.53711-2.91406v-13.39062c-1.13281-1.94238-2.95898-2.91406-5.47852-2.91406-2.03125,0-3.62793.83398-4.79004,2.50195s-1.74316,4.15918-1.74316,7.47559Z"/>
      <path class="cls-13" d="M309.6084,795.81993c0-1.26953.4248-2.31445,1.27441-3.13477s2.00684-1.23047,3.47168-1.23047c1.44531,0,2.59766.41016,3.45703,1.23047s1.28906,1.86523,1.28906,3.13477c0,1.28906-.43457,2.34375-1.30371,3.16406s-2.0166,1.23047-3.44238,1.23047-2.57324-.41016-3.44238-1.23047-1.30371-1.875-1.30371-3.16406ZM318.60254,835.72227h-8.49609v-31.69922h8.49609v31.69922Z"/>
      <path class="cls-13" d="M338.75879,829.48204c1.5625,0,2.83203-.42969,3.80859-1.28906s1.48438-2.00195,1.52344-3.42773h7.93945c-.01953,2.14844-.60547,4.11621-1.75781,5.90332s-2.72949,3.17383-4.73145,4.16016-4.21387,1.47949-6.63574,1.47949c-4.53125,0-8.10547-1.44043-10.72266-4.32129s-3.92578-6.86035-3.92578-11.93848v-.55664c0-4.88281,1.29883-8.7793,3.89648-11.68945s6.16211-4.36523,10.69336-4.36523c3.96484,0,7.14355,1.12793,9.53613,3.38379s3.6084,5.25879,3.64746,9.00879h-7.93945c-.03906-1.64844-.54688-2.98926-1.52344-4.02051-.97656-1.03027-2.26562-1.5459-3.86719-1.5459-1.97266,0-3.46191.71875-4.46777,2.15625-1.00586,1.43848-1.50879,3.77051-1.50879,6.99805v.87988c0,3.26758.49805,5.61523,1.49414,7.04297s2.50977,2.1416,4.54102,2.1416Z"/>
      <path class="cls-13" d="M375.2334,835.72227c-.39062-.76172-.67383-1.70898-.84961-2.8418-2.05078,2.28516-4.7168,3.42773-7.99805,3.42773-3.10547,0-5.67871-.89844-7.71973-2.69531s-3.06152-4.0625-3.06152-6.79688c0-3.35938,1.24512-5.9375,3.73535-7.73438s6.08887-2.70508,10.7959-2.72461h3.89648v-1.81641c0-1.46484-.37598-2.63672-1.12793-3.51562s-1.93848-1.31836-3.55957-1.31836c-1.42578,0-2.54395.3418-3.35449,1.02539s-1.21582,1.62109-1.21582,2.8125h-8.4668c0-1.83594.56641-3.53516,1.69922-5.09766s2.73438-2.78809,4.80469-3.67676,4.39453-1.33301,6.97266-1.33301c3.90625,0,7.00684.98145,9.30176,2.94434s3.44238,4.72168,3.44238,8.27637v13.74023c.01953,3.00781.43945,5.2832,1.25977,6.82617v.49805h-8.55469ZM368.23145,829.8336c1.25,0,2.40234-.27832,3.45703-.83496s1.83594-1.30371,2.34375-2.24121v-5.44922h-3.16406c-4.23828,0-6.49414,1.46484-6.76758,4.39453l-.0293.49805c0,1.05469.37109,1.92383,1.11328,2.60742s1.75781,1.02539,3.04688,1.02539Z"/>
      <path class="cls-13" d="M397.96777,835.72227h-8.49609v-45h8.49609v45Z"/>
    </g>
    <g>
      <path class="cls-16" d="M186.38549,719.52894l8.04701-4.65051-.51111-1.56572c-4.86149-14.9562,1.50659-31.52538,15.14609-39.40003,5.10218-2.9478,10.8908-4.50193,16.74479-4.50193,11.33178,0,21.87164,5.81269,28.04091,15.21592l6.21712-3.65295c-.50754-1.24717-.79935-2.60577-.79935-4.03509,0-5.33218,3.90226-9.7203,9.00059-10.54788v-6.63284c-17.7266-.87513-31.89236-15.53091-31.89236-33.47056,0-15.55914,11.00966-29.32671,26.17655-32.73213l1.58682-.35659v-9.3126l-2.38023.40681c-22.95537,3.9611-39.61696,23.76096-39.61696,47.08184,0,7.43457,1.7354,14.75384,5.03978,21.36261-7.30709.46624-14.45074,2.62092-20.8307,6.3027-20.38199,11.77038-29.13623,36.26503-20.81584,58.24869l.8469,2.24027Z"/>
      <g>
        <path class="cls-16" d="M303.48908,626.28735c0,18.05912-14.35149,32.79305-32.24598,33.48839v6.56776c5.32624.62641,9.47188,5.10189,9.47188,10.59513,0,1.52679-.32925,2.97305-.90425,4.28768l6.09231,3.56737c6.15263-9.50308,16.75371-15.38292,28.15591-15.38292,5.85399,0,11.64261,1.55413,16.74182,4.50193,13.63949,7.87466,20.01054,24.44383,15.14608,39.40003l-.50814,1.56572,8.04701,4.65051.8469-2.24027c8.31742-21.98367-.43682-46.48128-20.8188-58.24869-6.37699-3.68177-13.52361-5.83646-20.8307-6.3027,3.30736-6.60877,5.03978-13.92804,5.03978-21.36261,0-23.53512-16.83691-43.36737-40.03595-47.15286l-2.35943-.3866v9.29507l1.61059.34203c15.38381,3.26249,26.55097,17.06572,26.55097,32.81504Z"/>
        <path class="cls-16" d="M269.93561,640.44836c8.73344,0,16.74449,3.06101,23.04898,8.15161,3.2087-3.30646,5.67302-7.3163,7.21586-11.76266-8.43926-6.34133-18.89472-10.14494-30.26484-10.14494-11.36625,0-21.81904,3.8009-30.25711,10.1387,1.54819,4.43744,4.02232,8.44104,7.23399,11.74929,6.30062-5.07811,14.30127-8.132,23.02312-8.132Z"/>
      </g>
      <g>
        <path class="cls-16" d="M338.68137,725.72764c-6.32349,6.86432-15.32735,10.79898-24.69967,10.79898-5.84805,0-11.63666-1.55413-16.73588-4.49598-7.76174-4.48113-13.31263-11.72017-15.63342-20.37605-2.2055-8.23719-1.19962-16.81076,2.76088-24.311l-6.15412-3.60362c-1.96658,2.37577-4.90101,3.92158-8.22709,3.92158-3.42562,0-6.44058-1.63644-8.403-4.13732l-6.19037,3.63687c8.49601,15.87564,2.92908,35.80209-12.77626,44.86953-5.09921,2.94185-10.88486,4.49598-16.73291,4.49598-9.3753,0-18.37618-3.93465-24.69968-10.79898l-1.10245-1.19725-8.06781,4.65942,1.54522,1.85396c9.09003,10.91784,22.48289,17.17597,36.74048,17.17597,8.33822,0,16.57838-2.21709,23.83793-6.4067,6.33241-3.65503,11.74067-8.71888,15.79092-14.76275,4.05322,6.04387,9.45553,11.10772,15.79092,14.76275,7.25954,4.18962,15.50268,6.4067,23.83793,6.4067,14.26056,0,27.65044-6.25812,36.74047-17.17597l1.54522-1.85396-8.06484-4.65942-1.10245,1.19725Z"/>
        <g>
          <path class="cls-16" d="M250.29176,723.7114c3.0729-3.603,5.28226-7.78608,6.50209-12.25531-13.78778-5.29207-23.59277-18.62134-23.59277-34.27378,0-1.80879.17473-3.57242.42731-5.31138-2.52465-.63743-5.14497-.97438-7.81493-.97438-2.03344,0-4.04579.26328-6.03496.64896-.20593,1.8528-.33311,3.72905-.33311,5.6368,0,20.91925,12.71891,38.86634,30.84637,46.52909Z"/>
          <path class="cls-16" d="M283.10412,711.44628c1.25905,4.59018,3.4913,8.73641,6.48575,12.26129,18.12152-7.66546,30.83567-25.61017,30.83567-46.52526,0-1.90804-.12718-3.78429-.33311-5.63736-1.98857-.38541-4.00062-.6484-6.03437-.6484-2.67233,0-5.29207.33935-7.81582.97527.25258,1.73837.42731,3.50229.42731,5.31049,0,15.64204-9.79191,28.96448-23.56543,34.26397Z"/>
        </g>
      </g>
    </g>
  </g>
  <polyline class="cls-5" points="336.19355 872.53485 336.19355 1035.75842 891.01687 1035.75842 891.01687 872.53485"/>
  <polyline class="cls-4" points="1032.5645 872.53485 1032.5645 1035.75842 1598.93028 1035.75842 1598.93028 872.53485"/>
  <polyline class="cls-4" points="1032.5645 552.4936 1032.5645 389.27003 1598.93028 389.27003 1598.93028 552.4936"/>
  <polyline class="cls-3" points="891.01687 549.0744 891.01687 154.90979 1328.75318 154.90979 1328.75318 334.52598"/>
  <rect class="cls-8" x="399.19315" y="960.77894" width="421.60105" height="149.95895"/>
  <g>
    <rect class="cls-1" x="419.86819" y="993.85233" width="387.47404" height="98.11461"/>
    <path class="cls-13" d="M444.41211,1000.31895h-8.92871v24.2832h-6.00586v-24.2832h-8.80859v-4.86523h23.74316v4.86523Z"/>
    <path class="cls-13" d="M442.39062,1013.5709c0-2.14844.41309-4.06348,1.24121-5.74512.82715-1.68164,2.01855-2.9834,3.57324-3.90332,1.55469-.92188,3.35938-1.38184,5.41504-1.38184,2.92285,0,5.30859.89453,7.15723,2.68262,1.84863,1.78906,2.87891,4.21777,3.09277,7.28711l.04004,1.48145c0,3.32324-.92773,5.98926-2.78223,7.99805-1.85547,2.00879-4.34473,3.0127-7.46777,3.0127s-5.61523-1.00098-7.47656-3.00293c-1.8623-2.00195-2.79297-4.72461-2.79297-8.16797v-.26074ZM448.17578,1013.98204c0,2.05859.38672,3.63281,1.16113,4.72168.77441,1.08984,1.88184,1.63477,3.32324,1.63477,1.40137,0,2.49609-.53809,3.2832-1.61426s1.18164-2.79688,1.18164-5.16309c0-2.01855-.39453-3.58203-1.18164-4.69141s-1.89551-1.66406-3.32324-1.66406c-1.41504,0-2.50879.55078-3.2832,1.65332-.77441,1.10352-1.16113,2.81055-1.16113,5.12305Z"/>
    <path class="cls-13" d="M474.30176,1009.40684l3.64258-6.46582h6.18652l-6.16602,10.61035,6.42676,11.05078h-6.20703l-3.86328-6.80664-3.84375,6.80664h-6.22559l6.42578-11.05078-6.14551-10.61035h6.20605l3.56348,6.46582Z"/>
    <path class="cls-13" d="M486.87305,997.33555c0-.86719.29102-1.58105.87109-2.1416.58105-.56055,1.37109-.8418,2.37305-.8418.9873,0,1.77441.28125,2.36133.8418.58789.56055.88086,1.27441.88086,2.1416,0,.88086-.29688,1.60156-.89062,2.16211s-1.37793.84082-2.35156.84082c-.97461,0-1.75879-.28027-2.35254-.84082-.59473-.56055-.8916-1.28125-.8916-2.16211ZM493.01953,1024.60215h-5.80566v-21.66113h5.80566v21.66113Z"/>
    <path class="cls-13" d="M503.10938,1002.94102l.18066,2.50293c1.54785-1.93555,3.62402-2.90332,6.22559-2.90332,2.2959,0,4.00391.67383,5.125,2.02246,1.12109,1.34766,1.69531,3.36328,1.72266,6.04492v13.99414h-5.78613v-13.88574c0-1.23047-.26758-2.12305-.80078-2.67871-.53418-.55469-1.4209-.83203-2.66309-.83203-1.62793,0-2.84961.69531-3.66309,2.08594v15.31055h-5.78613v-21.66113h5.44531Z"/>
    <path class="cls-13" d="M532.47852,1018.61583c0-.70703-.34961-1.26367-1.05078-1.6709-.7002-.40723-1.8252-.77051-3.37305-1.09082-5.15234-1.08203-7.72754-3.27051-7.72754-6.56641,0-1.92188.79688-3.52734,2.39258-4.81543,1.59473-1.28711,3.67969-1.93164,6.25586-1.93164,2.74902,0,4.94824.64746,6.59668,1.94238,1.64746,1.29395,2.47266,2.97559,2.47266,5.04492h-5.78613c0-.82812-.26758-1.51172-.80078-2.05273-.53418-.54004-1.36816-.81055-2.50293-.81055-.97363,0-1.72852.2207-2.26172.66016-.53418.44141-.80078,1.00195-.80078,1.68164,0,.64062.30371,1.1582.91113,1.55176.60645.39453,1.63184.73438,3.07324,1.02148s2.65527.61035,3.64258.9707c3.05664,1.12109,4.58496,3.06348,4.58496,5.8252,0,1.97559-.84766,3.57422-2.54199,4.79492-1.69531,1.22168-3.88477,1.83203-6.56641,1.83203-1.81543,0-3.42773-.32422-4.83496-.9707-1.4082-.64746-2.5127-1.53516-3.31348-2.66309-.80078-1.12695-1.20117-2.34473-1.20117-3.65332h5.48535c.05273,1.02832.43359,1.81543,1.1416,2.3623.70703.54785,1.6543.82129,2.8418.82129,1.1084,0,1.94531-.21094,2.5127-.63086.56738-.4209.85059-.9707.85059-1.65234Z"/>
    <path class="cls-13" d="M551.23633,1016.7545c0-1.34766.37598-2.5957,1.13086-3.74414.75391-1.14746,2.13867-2.42188,4.1543-3.82324-.86816-1.16113-1.54883-2.25195-2.04297-3.27344-.49316-1.02051-.74023-2.08496-.74023-3.19238,0-2.26953.7168-4.11426,2.15234-5.53613,1.43457-1.4209,3.36621-2.13184,5.79492-2.13184,2.17578,0,3.96094.64746,5.35547,1.94141,1.39453,1.29492,2.0918,2.91016,2.0918,4.8457,0,2.32227-1.17383,4.37109-3.52344,6.14551l-2.24219,1.62207,5.02539,5.8457c.78711-1.54883,1.18164-3.25684,1.18164-5.125h4.92383c0,3.79004-.87402,6.85938-2.62207,9.20898l4.36426,5.06445h-6.56641l-1.50195-1.72168c-2.14844,1.41504-4.61719,2.12207-7.40625,2.12207-2.88281,0-5.19238-.75684-6.92773-2.27246-1.73438-1.51465-2.60156-3.50586-2.60156-5.97559ZM561.04492,1020.33848c1.38867,0,2.70312-.38672,3.94434-1.1582l-5.74512-6.62988-.4209.2998c-1.18848,1.01172-1.78223,2.20312-1.78223,3.57422,0,1.1582.37109,2.09961,1.11133,2.8252.74121.72559,1.70508,1.08887,2.89258,1.08887ZM558.92383,1002.64122c0,1,.58691,2.26172,1.76172,3.7832l1.54102-1.02148c.78711-.50684,1.33105-1,1.63184-1.48047.2998-.48047.4502-1.05469.4502-1.72266,0-.66699-.24707-1.24707-.74023-1.74121-.49414-.49316-1.12891-.74121-1.90234-.74121-.82812,0-1.49121.26758-1.99219.80078-.5.53418-.75,1.24219-.75,2.12305Z"/>
    <path class="cls-13" d="M422.4707,1083.60215v-29.14844h10.20996c3.53711,0,6.21973.67773,8.04785,2.03223s2.74316,3.33984,2.74316,5.95605c0,1.42773-.36719,2.68555-1.10156,3.77344s-1.75488,1.88477-3.0625,2.39258c1.49414.37305,2.67188,1.12793,3.5332,2.26172.86035,1.13477,1.29102,2.52246,1.29102,4.16406,0,2.80273-.89453,4.9248-2.68262,6.36621s-4.33789,2.17578-7.64746,2.20215h-11.33105ZM428.47656,1066.66563h4.44434c3.0293-.05273,4.54492-1.26074,4.54492-3.62402,0-1.32031-.38379-2.27148-1.15137-2.85254-.76758-.58008-1.97852-.87012-3.63379-.87012h-4.2041v7.34668ZM428.47656,1070.90977v7.86816h5.14551c1.41406,0,2.51855-.33691,3.3125-1.01172.79395-.67383,1.19141-1.60449,1.19141-2.79297,0-2.66895-1.38086-4.02344-4.14355-4.06348h-5.50586Z"/>
    <path class="cls-13" d="M448.21582,1056.33555c0-.86719.29102-1.58105.87109-2.1416.58105-.56055,1.37109-.8418,2.37207-.8418.9873,0,1.77539.28125,2.3623.8418s.88086,1.27441.88086,2.1416c0,.88086-.29688,1.60156-.89062,2.16211s-1.37793.84082-2.35254.84082-1.75879-.28027-2.35156-.84082c-.59473-.56055-.8916-1.28125-.8916-2.16211ZM454.3623,1083.60215h-5.80566v-21.66113h5.80566v21.66113Z"/>
    <path class="cls-13" d="M458.22559,1072.5709c0-2.14844.41406-4.06348,1.24121-5.74512s2.01855-2.9834,3.57324-3.90332c1.55469-.92188,3.36035-1.38184,5.41602-1.38184,2.92285,0,5.30762.89453,7.15625,2.68262,1.84863,1.78906,2.87988,4.21777,3.09277,7.28711l.04102,1.48145c0,3.32324-.92871,5.98926-2.7832,7.99805-1.85547,2.00879-4.34375,3.0127-7.4668,3.0127s-5.61621-1.00098-7.47754-3.00293c-1.8623-2.00195-2.79297-4.72461-2.79297-8.16797v-.26074ZM464.01172,1072.98204c0,2.05859.38672,3.63281,1.16113,4.72168.77344,1.08984,1.88184,1.63477,3.32324,1.63477,1.40137,0,2.49512-.53809,3.2832-1.61426.78711-1.07617,1.18066-2.79688,1.18066-5.16309,0-2.01855-.39355-3.58203-1.18066-4.69141-.78809-1.10938-1.89551-1.66406-3.32324-1.66406-1.41504,0-2.50977.55078-3.2832,1.65332-.77441,1.10352-1.16113,2.81055-1.16113,5.12305Z"/>
    <path class="cls-13" d="M494.86133,1083.60215c-.26758-.52051-.45996-1.16797-.58105-1.94141-1.40039,1.56055-3.22266,2.3418-5.46484,2.3418-2.12207,0-3.88086-.61328-5.27539-1.8418-1.39453-1.22754-2.0918-2.77539-2.0918-4.64453,0-2.29492.85059-4.05664,2.55273-5.28516,1.70117-1.22754,4.16016-1.84863,7.37695-1.86133h2.66211v-1.24219c0-1-.25684-1.80078-.77051-2.40234-.51367-.59961-1.32422-.90039-2.43262-.90039-.97363,0-1.73828.2334-2.29199.70117-.55371.4668-.83105,1.10742-.83105,1.92188h-5.78516c0-1.25488.38672-2.41602,1.16113-3.48438.77344-1.06738,1.86816-1.9043,3.2832-2.51172,1.41406-.60742,3.00293-.91113,4.76465-.91113,2.66895,0,4.78809.6709,6.35645,2.01172,1.56738,1.3418,2.35254,3.22656,2.35254,5.65527v9.38965c.0127,2.05566.2998,3.61035.86035,4.66504v.33984h-5.8457ZM490.07715,1079.57872c.85352,0,1.64062-.19043,2.36133-.57129.7207-.37988,1.25488-.89062,1.60156-1.53125v-3.72363h-2.16211c-2.89551,0-4.4375,1.00098-4.62402,3.00293l-.02051.34082c0,.7207.25391,1.31445.76172,1.78125.50684.46777,1.20117.70117,2.08203.70117Z"/>
    <path class="cls-13" d="M513.29883,1079.33848c1.06836,0,1.93555-.29395,2.60352-.88086.66699-.58789,1.01367-1.36816,1.04102-2.34277h5.4248c-.01367,1.46875-.41406,2.8125-1.20117,4.03418-.78809,1.2207-1.86523,2.16895-3.2334,2.84277s-2.87988,1.01074-4.53418,1.01074c-3.09668,0-5.53906-.98438-7.32715-2.95312-1.78906-1.96777-2.68262-4.6875-2.68262-8.1582v-.37988c0-3.33594.8877-5.99902,2.66309-7.9873,1.77441-1.98926,4.20996-2.9834,7.30664-2.9834,2.70898,0,4.88086.77051,6.5166,2.3125,1.63477,1.54102,2.46484,3.59277,2.49219,6.15527h-5.4248c-.02734-1.12598-.37402-2.04199-1.04102-2.74609-.66797-.70508-1.54883-1.05664-2.64258-1.05664-1.34863,0-2.36621.49121-3.05371,1.47266-.6875.9834-1.03027,2.57715-1.03027,4.78223v.60156c0,2.23242.33984,3.83691,1.02051,4.8125s1.71484,1.46387,3.10254,1.46387Z"/>
    <path class="cls-13" d="M532.59766,1056.61583v5.3252h3.7041v4.24414h-3.7041v10.81055c0,.80078.15332,1.375.46094,1.72168.30664.34766.89355.52051,1.76172.52051.64062,0,1.20801-.04688,1.70117-.13965v4.38379c-1.13379.34668-2.30176.52051-3.50293.52051-4.05762,0-6.12598-2.04883-6.20605-6.14648v-11.6709h-3.16309v-4.24414h3.16309v-5.3252h5.78516Z"/>
    <path class="cls-13" d="M539.48438,1056.33555c0-.86719.29102-1.58105.87109-2.1416.58105-.56055,1.37109-.8418,2.37305-.8418.9873,0,1.77441.28125,2.36133.8418.58789.56055.88086,1.27441.88086,2.1416,0,.88086-.29688,1.60156-.89062,2.16211s-1.37793.84082-2.35156.84082c-.97461,0-1.75879-.28027-2.35254-.84082-.59473-.56055-.8916-1.28125-.8916-2.16211ZM545.63086,1083.60215h-5.80566v-21.66113h5.80566v21.66113Z"/>
    <path class="cls-13" d="M558.50391,1076.53575l4.02344-14.59473h6.04688l-7.30762,21.66113h-5.52539l-7.30762-21.66113h6.04688l4.02344,14.59473Z"/>
    <path class="cls-13" d="M580.82617,1084.00254c-3.17578,0-5.76172-.97363-7.75684-2.92285-1.99609-1.94824-2.99316-4.54395-2.99316-7.78809v-.56055c0-2.1748.41992-4.12012,1.26172-5.83496.83984-1.71484,2.03125-3.03613,3.57324-3.96387,1.54102-.92773,3.2998-1.3916,5.27441-1.3916,2.96289,0,5.2959.93457,6.99707,2.80273,1.70215,1.86914,2.55273,4.51758,2.55273,7.94824v2.36133h-13.79395c.1875,1.41504.75098,2.5498,1.69238,3.4043.94043.85352,2.13184,1.28125,3.57324,1.28125,2.22852,0,3.9707-.80762,5.22461-2.42285l2.84375,3.18262c-.86816,1.22852-2.04297,2.18652-3.52344,2.87305-1.48242.6875-3.12305,1.03125-4.92578,1.03125ZM580.16602,1066.20567c-1.14844,0-2.0791.38867-2.79297,1.16602s-1.1709,1.89062-1.37109,3.33789h8.04785v-.46289c-.02734-1.28711-.37402-2.28223-1.04102-2.98535-.66797-.7041-1.61523-1.05566-2.84277-1.05566Z"/>
    <path class="cls-13" d="M608.65332,1061.94102l.18066,2.42285c1.53418-1.88281,3.60938-2.82324,6.22559-2.82324,2.78906,0,4.7041,1.10059,5.74512,3.30371,1.52148-2.20312,3.69043-3.30371,6.50684-3.30371,2.34863,0,4.09668.68457,5.24512,2.05176,1.14746,1.36816,1.72168,3.42676,1.72168,6.17578v13.83398h-5.80566v-13.8457c0-1.23047-.24023-2.12988-.7207-2.69824s-1.32812-.85254-2.54297-.85254c-1.73438,0-2.93555.8291-3.60352,2.4873l.02051,14.90918h-5.78613v-13.8252c0-1.25781-.24707-2.16699-.74023-2.72949-.49414-.56152-1.33496-.8418-2.52246-.8418-1.6416,0-2.83008.68164-3.56348,2.0459v15.35059h-5.78516v-21.66113h5.4248Z"/>
    <path class="cls-13" d="M637.82324,1072.5709c0-2.14844.41309-4.06348,1.24121-5.74512.82715-1.68164,2.01855-2.9834,3.57324-3.90332,1.55469-.92188,3.36035-1.38184,5.41504-1.38184,2.92383,0,5.30859.89453,7.15723,2.68262,1.84863,1.78906,2.87988,4.21777,3.09277,7.28711l.04102,1.48145c0,3.32324-.92871,5.98926-2.7832,7.99805-1.85547,2.00879-4.34375,3.0127-7.4668,3.0127s-5.61621-1.00098-7.47754-3.00293c-1.8623-2.00195-2.79297-4.72461-2.79297-8.16797v-.26074ZM643.60938,1072.98204c0,2.05859.38672,3.63281,1.16016,4.72168.77441,1.08984,1.88281,1.63477,3.32422,1.63477,1.40039,0,2.49512-.53809,3.2832-1.61426.78711-1.07617,1.18066-2.79688,1.18066-5.16309,0-2.01855-.39355-3.58203-1.18066-4.69141-.78809-1.10938-1.89551-1.66406-3.32422-1.66406-1.41406,0-2.50879.55078-3.2832,1.65332-.77344,1.10352-1.16016,2.81055-1.16016,5.12305Z"/>
    <path class="cls-13" d="M668.01172,1083.60215h-5.80566v-30.75h5.80566v30.75Z"/>
    <path class="cls-13" d="M682.74609,1084.00254c-3.17578,0-5.76172-.97363-7.75684-2.92285-1.99609-1.94824-2.99316-4.54395-2.99316-7.78809v-.56055c0-2.1748.41992-4.12012,1.26172-5.83496.83984-1.71484,2.03125-3.03613,3.57324-3.96387,1.54102-.92773,3.2998-1.3916,5.27441-1.3916,2.96289,0,5.2959.93457,6.99707,2.80273,1.70215,1.86914,2.55273,4.51758,2.55273,7.94824v2.36133h-13.79395c.1875,1.41504.75098,2.5498,1.69238,3.4043.94043.85352,2.13184,1.28125,3.57324,1.28125,2.22852,0,3.9707-.80762,5.22461-2.42285l2.84375,3.18262c-.86816,1.22852-2.04297,2.18652-3.52344,2.87305-1.48242.6875-3.12305,1.03125-4.92578,1.03125ZM682.08594,1066.20567c-1.14844,0-2.0791.38867-2.79297,1.16602s-1.1709,1.89062-1.37109,3.33789h8.04785v-.46289c-.02734-1.28711-.37402-2.28223-1.04102-2.98535-.66797-.7041-1.61523-1.05566-2.84277-1.05566Z"/>
    <path class="cls-13" d="M703.94727,1079.33848c1.06836,0,1.93555-.29395,2.60352-.88086.66699-.58789,1.01367-1.36816,1.04102-2.34277h5.4248c-.01367,1.46875-.41406,2.8125-1.20117,4.03418-.78809,1.2207-1.86523,2.16895-3.2334,2.84277s-2.87988,1.01074-4.53418,1.01074c-3.09668,0-5.53906-.98438-7.32715-2.95312-1.78906-1.96777-2.68262-4.6875-2.68262-8.1582v-.37988c0-3.33594.8877-5.99902,2.66309-7.9873,1.77441-1.98926,4.20996-2.9834,7.30664-2.9834,2.70898,0,4.88086.77051,6.5166,2.3125,1.63477,1.54102,2.46484,3.59277,2.49219,6.15527h-5.4248c-.02734-1.12598-.37402-2.04199-1.04102-2.74609-.66797-.70508-1.54883-1.05664-2.64258-1.05664-1.34863,0-2.36621.49121-3.05371,1.47266-.6875.9834-1.03027,2.57715-1.03027,4.78223v.60156c0,2.23242.33984,3.83691,1.02051,4.8125s1.71484,1.46387,3.10254,1.46387Z"/>
    <path class="cls-13" d="M729.29297,1081.40001c-1.42871,1.73535-3.4043,2.60254-5.92578,2.60254-2.32227,0-4.09473-.66699-5.31543-2.00195-1.22168-1.33398-1.8457-3.29004-1.87207-5.86523v-14.19434h5.78516v14.00977c0,2.25781,1.02832,3.3877,3.08398,3.3877,1.96094,0,3.30957-.68164,4.04297-2.04492v-15.35254h5.80664v21.66113h-5.44531l-.16016-2.20215Z"/>
    <path class="cls-13" d="M745.36719,1083.60215h-5.80566v-30.75h5.80566v30.75Z"/>
    <path class="cls-13" d="M760.10156,1084.00254c-3.17578,0-5.76172-.97363-7.75684-2.92285-1.99609-1.94824-2.99316-4.54395-2.99316-7.78809v-.56055c0-2.1748.41992-4.12012,1.26172-5.83496.83984-1.71484,2.03125-3.03613,3.57324-3.96387,1.54102-.92773,3.2998-1.3916,5.27441-1.3916,2.96289,0,5.2959.93457,6.99707,2.80273,1.70215,1.86914,2.55273,4.51758,2.55273,7.94824v2.36133h-13.79395c.1875,1.41504.75098,2.5498,1.69238,3.4043.94043.85352,2.13184,1.28125,3.57324,1.28125,2.22852,0,3.9707-.80762,5.22461-2.42285l2.84375,3.18262c-.86816,1.22852-2.04297,2.18652-3.52344,2.87305-1.48242.6875-3.12305,1.03125-4.92578,1.03125ZM759.44141,1066.20567c-1.14844,0-2.0791.38867-2.79297,1.16602s-1.1709,1.89062-1.37109,3.33789h8.04785v-.46289c-.02734-1.28711-.37402-2.28223-1.04102-2.98535-.66797-.7041-1.61523-1.05566-2.84277-1.05566Z"/>
    <path class="cls-13" d="M784.02539,1077.61583c0-.70703-.34961-1.26367-1.05078-1.6709-.7002-.40723-1.8252-.77051-3.37305-1.09082-5.15234-1.08203-7.72754-3.27051-7.72754-6.56641,0-1.92188.79688-3.52734,2.39258-4.81543,1.59473-1.28711,3.67969-1.93164,6.25586-1.93164,2.74902,0,4.94824.64746,6.59668,1.94238,1.64746,1.29395,2.47266,2.97559,2.47266,5.04492h-5.78613c0-.82812-.26758-1.51172-.80078-2.05273-.53418-.54004-1.36816-.81055-2.50293-.81055-.97363,0-1.72852.2207-2.26172.66016-.53418.44141-.80078,1.00195-.80078,1.68164,0,.64062.30371,1.1582.91113,1.55176.60645.39453,1.63184.73438,3.07324,1.02148s2.65527.61035,3.64258.9707c3.05664,1.12109,4.58496,3.06348,4.58496,5.8252,0,1.97559-.84766,3.57422-2.54199,4.79492-1.69531,1.22168-3.88477,1.83203-6.56641,1.83203-1.81543,0-3.42773-.32422-4.83496-.9707-1.4082-.64746-2.5127-1.53516-3.31348-2.66309-.80078-1.12695-1.20117-2.34473-1.20117-3.65332h5.48535c.05273,1.02832.43359,1.81543,1.1416,2.3623.70703.54785,1.6543.82129,2.8418.82129,1.1084,0,1.94531-.21094,2.5127-.63086.56738-.4209.85059-.9707.85059-1.65234Z"/>
  </g>
  <rect class="cls-9" x="1115.29717" y="314.29055" width="425.48459" height="149.95895"/>
  <g>
    <rect class="cls-1" x="1143.15495" y="369.79035" width="357.67336" height="66.95363"/>
    <path class="cls-13" d="M1152.14453,400.54063h-6.00586v-29.14844h6.00586v29.14844Z"/>
    <path class="cls-13" d="M1162.6543,378.8795l.18066,2.50293c1.54785-1.93555,3.62305-2.90332,6.22559-2.90332,2.2959,0,4.00391.67383,5.125,2.02246,1.12109,1.34766,1.69531,3.36328,1.72168,6.04492v13.99414h-5.78516v-13.88574c0-1.23047-.26758-2.12305-.80078-2.67871-.53418-.55469-1.42188-.83203-2.66309-.83203-1.62793,0-2.84961.69531-3.66309,2.08594v15.31055h-5.78613v-21.66113h5.44531Z"/>
    <path class="cls-13" d="M1189.30078,396.27696c1.06738,0,1.93457-.29395,2.60254-.88086.66699-.58789,1.01367-1.36816,1.04102-2.34277h5.4248c-.01367,1.46875-.41406,2.8125-1.20117,4.03418-.78711,1.2207-1.86523,2.16895-3.2334,2.84277s-2.87891,1.01074-4.53418,1.01074c-3.09668,0-5.53906-.98438-7.32715-2.95312-1.78809-1.96777-2.68262-4.6875-2.68262-8.1582v-.37988c0-3.33594.8877-5.99902,2.66309-7.9873,1.77441-1.98926,4.20996-2.9834,7.30664-2.9834,2.70898,0,4.88184.77051,6.5166,2.3125,1.63477,1.54102,2.46582,3.59277,2.49219,6.15527h-5.4248c-.02734-1.12598-.37402-2.04199-1.04102-2.74609-.66797-.70508-1.54883-1.05664-2.64258-1.05664-1.34863,0-2.36621.49121-3.05371,1.47266-.6875.9834-1.03027,2.57715-1.03027,4.78223v.60156c0,2.23242.33984,3.83691,1.02051,4.8125s1.71484,1.46387,3.10352,1.46387Z"/>
    <path class="cls-13" d="M1211.6416,400.94102c-3.17578,0-5.76172-.97363-7.75684-2.92285-1.99609-1.94824-2.99316-4.54395-2.99316-7.78809v-.56055c0-2.1748.41992-4.12012,1.26172-5.83496.83984-1.71484,2.03125-3.03613,3.57324-3.96387,1.54102-.92773,3.2998-1.3916,5.27441-1.3916,2.96289,0,5.2959.93457,6.99707,2.80273,1.70215,1.86914,2.55273,4.51758,2.55273,7.94824v2.36133h-13.79395c.1875,1.41504.75098,2.5498,1.69238,3.4043.94043.85352,2.13184,1.28125,3.57324,1.28125,2.22852,0,3.9707-.80762,5.22461-2.42285l2.84375,3.18262c-.86816,1.22852-2.04297,2.18652-3.52344,2.87305-1.48242.6875-3.12305,1.03125-4.92578,1.03125ZM1210.98145,383.14415c-1.14844,0-2.0791.38867-2.79297,1.16602s-1.1709,1.89062-1.37109,3.33789h8.04785v-.46289c-.02734-1.28711-.37402-2.28223-1.04102-2.98535-.66797-.7041-1.61523-1.05566-2.84277-1.05566Z"/>
    <path class="cls-13" d="M1229.1582,378.8795l.18066,2.50293c1.54785-1.93555,3.62402-2.90332,6.22559-2.90332,2.2959,0,4.00391.67383,5.125,2.02246,1.12109,1.34766,1.69531,3.36328,1.72266,6.04492v13.99414h-5.78613v-13.88574c0-1.23047-.26758-2.12305-.80078-2.67871-.53418-.55469-1.4209-.83203-2.66309-.83203-1.62793,0-2.84961.69531-3.66309,2.08594v15.31055h-5.78613v-21.66113h5.44531Z"/>
    <path class="cls-13" d="M1245.89551,389.5504c0-3.37695.75684-6.06641,2.27246-8.06836,1.51465-2.00195,3.58594-3.00293,6.21582-3.00293,2.1084,0,3.85059.78809,5.22559,2.3623v-11.05078h5.80469v30.75h-5.22461l-.28027-2.30273c-1.44141,1.80273-3.29688,2.70312-5.56543,2.70312-2.5498,0-4.59473-1.00391-6.13574-3.0127-1.54199-2.00879-2.3125-4.80176-2.3125-8.37793ZM1251.68164,389.96153c0,2.03809.35254,3.59961,1.06055,4.68555.70703,1.08594,1.73438,1.62988,3.08301,1.62988,1.78809,0,3.0498-.75781,3.78418-2.27344v-8.58691c-.7207-1.51562-1.96973-2.27246-3.74414-2.27246-2.79004,0-4.18359,2.27246-4.18359,6.81738Z"/>
    <path class="cls-13" d="M1269.8584,373.27403c0-.86719.29102-1.58105.87109-2.1416.58105-.56055,1.37109-.8418,2.37305-.8418.9873,0,1.77441.28125,2.36133.8418.58789.56055.88086,1.27441.88086,2.1416,0,.88086-.29688,1.60156-.89062,2.16211s-1.37793.84082-2.35156.84082c-.97461,0-1.75879-.28027-2.35254-.84082-.59473-.56055-.8916-1.28125-.8916-2.16211ZM1276.00488,400.54063h-5.80566v-21.66113h5.80566v21.66113Z"/>
    <path class="cls-13" d="M1293.32129,400.54063c-.26758-.52051-.45996-1.16797-.58105-1.94141-1.40039,1.56055-3.22266,2.3418-5.46484,2.3418-2.12207,0-3.88086-.61328-5.27539-1.8418-1.39453-1.22754-2.0918-2.77539-2.0918-4.64453,0-2.29492.85059-4.05664,2.55273-5.28516,1.70117-1.22754,4.16016-1.84863,7.37695-1.86133h2.66211v-1.24219c0-1-.25684-1.80078-.77051-2.40234-.51367-.59961-1.32422-.90039-2.43262-.90039-.97363,0-1.73828.2334-2.29199.70117-.55371.4668-.83105,1.10742-.83105,1.92188h-5.78516c0-1.25488.38672-2.41602,1.16113-3.48438.77344-1.06738,1.86816-1.9043,3.2832-2.51172,1.41406-.60742,3.00293-.91113,4.76465-.91113,2.66895,0,4.78809.6709,6.35645,2.01172,1.56738,1.3418,2.35254,3.22656,2.35254,5.65527v9.38965c.0127,2.05566.2998,3.61035.86035,4.66504v.33984h-5.8457ZM1288.53711,396.51719c.85352,0,1.64062-.19043,2.36133-.57129.7207-.37988,1.25488-.89062,1.60156-1.53125v-3.72363h-2.16211c-2.89551,0-4.4375,1.00098-4.62402,3.00293l-.02051.34082c0,.7207.25391,1.31445.76172,1.78125.50684.46777,1.20117.70117,2.08203.70117Z"/>
    <path class="cls-13" d="M1314.92285,384.3043c-.78809-.10645-1.48242-.16016-2.08203-.16016-2.18945,0-3.62402.74121-4.30469,2.22266v14.17383h-5.78516v-21.66113h5.46484l.16016,2.58301c1.16113-1.98926,2.76953-2.9834,4.82422-2.9834.64062,0,1.24219.08691,1.80273.26074l-.08008,5.56445Z"/>
    <path class="cls-13" d="M1326.15332,392.35313l4.00391-13.47363h6.20508l-8.70801,25.02441-.48047,1.14062c-1.29492,2.83008-3.43066,4.24414-6.40625,4.24414-.84082,0-1.69531-.12695-2.5625-.37988v-4.38379l.88086.01953c1.09375,0,1.91211-.16699,2.45215-.5.54102-.33398.96387-.88867,1.27148-1.66211l.68066-1.78125-7.58691-21.72168h6.22559l4.02441,13.47363Z"/>
  </g>
  <rect class="cls-7" x="923.87616" y="80.57534" width="350.3893" height="148.6689"/>
  <g>
    <rect class="cls-1" x="947.15473" y="135.96535" width="186.74569" height="66.95363"/>
    <path class="cls-13" d="M964.87109,159.06797c0-1.13379-.40039-2.00488-1.20117-2.6123s-2.24219-1.24805-4.32422-1.92188-3.73047-1.33789-4.94434-1.99219c-3.31055-1.78809-4.96484-4.19727-4.96484-7.22656,0-1.5752.44336-2.97949,1.33105-4.21484.8877-1.23438,2.16211-2.19824,3.82422-2.89258,1.66113-.69336,3.52637-1.04102,5.59473-1.04102,2.08203,0,3.9375.37695,5.56543,1.13086,1.62793.75488,2.89355,1.81934,3.79395,3.19336.90137,1.375,1.35156,2.93652,1.35156,4.68457h-6.00586c0-1.33398-.4209-2.37207-1.26172-3.11328-.84082-.74023-2.02148-1.11035-3.54297-1.11035-1.46875,0-2.60938.30957-3.42383.93066-.81445.62012-1.2207,1.43848-1.2207,2.45215,0,.94824.47656,1.74219,1.43164,2.38281.95312.64062,2.3584,1.24023,4.21387,1.80078,3.41602,1.02832,5.90527,2.30273,7.4668,3.82422s2.34277,3.41699,2.34277,5.68555c0,2.52246-.95508,4.50098-2.86328,5.93555-1.9082,1.43555-4.47754,2.15234-7.70703,2.15234-2.24219,0-4.28418-.41016-6.12598-1.23145-1.8418-.82031-3.24707-1.94434-4.21387-3.37305-.96875-1.42773-1.45215-3.08301-1.45215-4.96484h6.02637c0,3.2168,1.92188,4.8252,5.76562,4.8252,1.42773,0,2.54199-.29102,3.34277-.87109.80078-.58105,1.20117-1.3916,1.20117-2.43262Z"/>
    <path class="cls-13" d="M980.00586,145.0543l.18066,2.42285c1.53418-1.88281,3.60938-2.82324,6.22559-2.82324,2.78906,0,4.70508,1.10059,5.74609,3.30371,1.52148-2.20312,3.68945-3.30371,6.50586-3.30371,2.34863,0,4.09766.68457,5.24512,2.05176,1.14746,1.36816,1.72168,3.42676,1.72168,6.17578v13.83398h-5.80566v-13.8457c0-1.23047-.24023-2.12988-.7207-2.69824s-1.32812-.85254-2.54199-.85254c-1.73535,0-2.93652.8291-3.60352,2.4873l.01953,14.90918h-5.78516v-13.8252c0-1.25781-.24707-2.16699-.74121-2.72949-.49414-.56152-1.33496-.8418-2.52246-.8418-1.6416,0-2.8291.68164-3.56348,2.0459v15.35059h-5.78516v-21.66113h5.4248Z"/>
    <path class="cls-13" d="M1009.1748,155.68419c0-2.14844.41309-4.06348,1.24121-5.74512.82715-1.68164,2.01855-2.9834,3.57324-3.90332,1.55469-.92188,3.36035-1.38184,5.41504-1.38184,2.92383,0,5.30859.89453,7.15723,2.68262,1.84863,1.78906,2.87988,4.21777,3.09277,7.28711l.04102,1.48145c0,3.32324-.92871,5.98926-2.7832,7.99805-1.85547,2.00879-4.34375,3.0127-7.4668,3.0127s-5.61621-1.00098-7.47754-3.00293c-1.8623-2.00195-2.79297-4.72461-2.79297-8.16797v-.26074ZM1014.96094,156.09532c0,2.05859.38672,3.63281,1.16016,4.72168.77441,1.08984,1.88281,1.63477,3.32422,1.63477,1.40039,0,2.49512-.53809,3.2832-1.61426.78711-1.07617,1.18066-2.79688,1.18066-5.16309,0-2.01855-.39355-3.58203-1.18066-4.69141-.78809-1.10938-1.89551-1.66406-3.32422-1.66406-1.41406,0-2.50879.55078-3.2832,1.65332-.77344,1.10352-1.16016,2.81055-1.16016,5.12305Z"/>
    <path class="cls-13" d="M1041.12598,158.02696l-2.08203,2.08203v6.60645h-5.78516v-30.75h5.78516v17.03711l1.12109-1.44141,5.54492-6.50684h6.94727l-7.82812,9.02832,8.50879,12.63281h-6.64648l-5.56543-8.68848Z"/>
    <path class="cls-13" d="M1064.72852,167.11583c-3.17578,0-5.76172-.97363-7.75684-2.92285-1.99609-1.94824-2.99316-4.54395-2.99316-7.78809v-.56055c0-2.1748.41992-4.12012,1.26172-5.83496.83984-1.71484,2.03125-3.03613,3.57324-3.96387,1.54102-.92773,3.2998-1.3916,5.27441-1.3916,2.96289,0,5.2959.93457,6.99707,2.80273,1.70215,1.86914,2.55273,4.51758,2.55273,7.94824v2.36133h-13.79395c.1875,1.41504.75098,2.5498,1.69238,3.4043.94043.85352,2.13184,1.28125,3.57324,1.28125,2.22852,0,3.9707-.80762,5.22461-2.42285l2.84375,3.18262c-.86816,1.22852-2.04297,2.18652-3.52344,2.87305-1.48242.6875-3.12305,1.03125-4.92578,1.03125ZM1064.06836,149.31895c-1.14844,0-2.0791.38867-2.79297,1.16602s-1.1709,1.89062-1.37109,3.33789h8.04785v-.46289c-.02734-1.28711-.37402-2.28223-1.04102-2.98535-.66797-.7041-1.61523-1.05566-2.84277-1.05566Z"/>
  </g>
  <rect class="cls-8" x="1114.77354" y="960.77894" width="421.60105" height="149.95895"/>
  <g>
    <rect class="cls-1" x="1144.36997" y="1016.08142" width="342.826" height="66.81075"/>
    <path class="cls-13" d="M1157.7627,1036.16172h-4.78418v10.66992h-6.00586v-29.14844h10.83008c3.44336,0,6.09961.76758,7.96777,2.30273,1.86816,1.53418,2.80273,3.70312,2.80273,6.50586,0,1.98926-.42969,3.64746-1.29102,4.97461-.86035,1.32812-2.16602,2.38574-3.91406,3.17383l6.30664,11.91113v.28027h-6.44629l-5.46582-10.66992ZM1152.97852,1031.29649h4.84473c1.50781,0,2.67578-.38379,3.50293-1.15137.82715-.7666,1.24121-1.82422,1.24121-3.17285,0-1.37402-.38965-2.45508-1.1709-3.24316-.78027-.78711-1.97852-1.18066-3.59375-1.18066h-4.82422v8.74805Z"/>
    <path class="cls-13" d="M1185.30957,1046.83165c-.2666-.52051-.45996-1.16797-.58008-1.94141-1.40137,1.56055-3.22363,2.3418-5.46582,2.3418-2.12207,0-3.88086-.61328-5.27539-1.8418-1.39453-1.22754-2.0918-2.77539-2.0918-4.64453,0-2.29492.85059-4.05664,2.55273-5.28516,1.70117-1.22754,4.16016-1.84863,7.37695-1.86133h2.66309v-1.24219c0-1-.25781-1.80078-.77148-2.40234-.51367-.59961-1.32422-.90039-2.43164-.90039-.97461,0-1.73926.2334-2.29297.70117-.55371.4668-.83008,1.10742-.83008,1.92188h-5.78613c0-1.25488.38672-2.41602,1.16113-3.48438.77441-1.06738,1.86816-1.9043,3.2832-2.51172s3.00293-.91113,4.76465-.91113c2.66895,0,4.78809.6709,6.35645,2.01172,1.56836,1.3418,2.35254,3.22656,2.35254,5.65527v9.38965c.0127,2.05566.2998,3.61035.86035,4.66504v.33984h-5.8457ZM1180.52539,1042.80821c.85352,0,1.6416-.19043,2.3623-.57129.7207-.37988,1.25391-.89062,1.60156-1.53125v-3.72363h-2.16211c-2.89648,0-4.43848,1.00098-4.625,3.00293l-.01953.34082c0,.7207.25293,1.31445.76074,1.78125.50684.46777,1.20117.70117,2.08203.70117Z"/>
    <path class="cls-13" d="M1193.83789,1035.84141c0-3.37695.75781-6.06641,2.27246-8.06836s3.58691-3.00293,6.21582-3.00293c2.1084,0,3.85059.78809,5.22559,2.3623v-11.05078h5.80469v30.75h-5.22461l-.28027-2.30273c-1.44141,1.80273-3.29688,2.70312-5.56543,2.70312-2.54883,0-4.59473-1.00391-6.13574-3.0127-1.54199-2.00879-2.3125-4.80176-2.3125-8.37793ZM1199.62402,1036.25254c0,2.03809.35352,3.59961,1.06055,4.68555s1.73438,1.62988,3.08301,1.62988c1.78809,0,3.0498-.75781,3.78418-2.27344v-8.58691c-.7207-1.51562-1.96973-2.27246-3.74414-2.27246-2.78906,0-4.18359,2.27246-4.18359,6.81738Z"/>
    <path class="cls-13" d="M1217.80078,1019.56504c0-.86719.29102-1.58105.87109-2.1416.58105-.56055,1.37109-.8418,2.37305-.8418.9873,0,1.77441.28125,2.36133.8418.58789.56055.88086,1.27441.88086,2.1416,0,.88086-.29688,1.60156-.89062,2.16211s-1.37793.84082-2.35156.84082c-.97461,0-1.75879-.28027-2.35254-.84082-.59473-.56055-.8916-1.28125-.8916-2.16211ZM1223.94727,1046.83165h-5.80566v-21.66113h5.80566v21.66113Z"/>
    <path class="cls-13" d="M1227.81152,1035.8004c0-2.14844.41309-4.06348,1.24121-5.74512.82715-1.68164,2.01855-2.9834,3.57324-3.90332,1.55469-.92188,3.36035-1.38184,5.41504-1.38184,2.92383,0,5.30859.89453,7.15723,2.68262,1.84863,1.78906,2.87988,4.21777,3.09277,7.28711l.04102,1.48145c0,3.32324-.92871,5.98926-2.7832,7.99805-1.85547,2.00879-4.34375,3.0127-7.4668,3.0127s-5.61621-1.00098-7.47754-3.00293c-1.8623-2.00195-2.79297-4.72461-2.79297-8.16797v-.26074ZM1233.59766,1036.21153c0,2.05859.38672,3.63281,1.16016,4.72168.77441,1.08984,1.88281,1.63477,3.32422,1.63477,1.40039,0,2.49512-.53809,3.2832-1.61426.78711-1.07617,1.18066-2.79688,1.18066-5.16309,0-2.01855-.39355-3.58203-1.18066-4.69141-.78809-1.10938-1.89551-1.66406-3.32422-1.66406-1.41406,0-2.50879.55078-3.2832,1.65332-.77344,1.10352-1.16016,2.81055-1.16016,5.12305Z"/>
    <path class="cls-13" d="M1258.00098,1046.83165h-5.80566v-30.75h5.80566v30.75Z"/>
    <path class="cls-13" d="M1261.86426,1035.8004c0-2.14844.41309-4.06348,1.24121-5.74512.82715-1.68164,2.01855-2.9834,3.57324-3.90332,1.55469-.92188,3.36035-1.38184,5.41504-1.38184,2.92383,0,5.30859.89453,7.15723,2.68262,1.84863,1.78906,2.87988,4.21777,3.09277,7.28711l.04102,1.48145c0,3.32324-.92871,5.98926-2.7832,7.99805-1.85547,2.00879-4.34375,3.0127-7.4668,3.0127s-5.61621-1.00098-7.47754-3.00293c-1.8623-2.00195-2.79297-4.72461-2.79297-8.16797v-.26074ZM1267.65039,1036.21153c0,2.05859.38672,3.63281,1.16016,4.72168.77441,1.08984,1.88281,1.63477,3.32422,1.63477,1.40039,0,2.49512-.53809,3.2832-1.61426.78711-1.07617,1.18066-2.79688,1.18066-5.16309,0-2.01855-.39355-3.58203-1.18066-4.69141-.78809-1.10938-1.89551-1.66406-3.32422-1.66406-1.41406,0-2.50879.55078-3.2832,1.65332-.77344,1.10352-1.16016,2.81055-1.16016,5.12305Z"/>
    <path class="cls-13" d="M1285.10645,1035.84141c0-3.32422.79102-5.99902,2.37305-8.02832,1.58105-2.02832,3.71289-3.04297,6.39648-3.04297,2.375,0,4.22363.81445,5.54492,2.44238l.24023-2.04199h5.24512v20.94043c0,1.89453-.43066,3.54297-1.29102,4.94531-.86133,1.40039-2.07227,2.46875-3.63379,3.20312-1.56152.7334-3.39062,1.10059-5.48535,1.10059-1.58887,0-3.13672-.31738-4.64453-.95117-1.50879-.63379-2.64941-1.45117-3.42285-2.45215l2.5625-3.52344c1.44141,1.61426,3.18945,2.42188,5.24414,2.42188,1.53516,0,2.72949-.41016,3.58398-1.23047.85352-.82129,1.28125-1.98535,1.28125-3.49414v-1.16016c-1.33496,1.50781-3.08984,2.26172-5.26562,2.26172-2.60156,0-4.70801-1.01758-6.31543-3.05273-1.6084-2.03516-2.41309-4.73438-2.41309-8.09766v-.24023ZM1290.89258,1036.25254c0,1.9707.39355,3.5166,1.18066,4.63574.78809,1.11914,1.86914,1.67969,3.24414,1.67969,1.76172,0,3.02246-.66406,3.7832-1.99121v-9.15137c-.77441-1.32715-2.02148-1.99023-3.74414-1.99023-1.3877,0-2.47852.56934-3.27246,1.70898-.79492,1.13965-1.19141,2.84277-1.19141,5.1084Z"/>
    <path class="cls-13" d="M1309.31055,1019.56504c0-.86719.29102-1.58105.87109-2.1416.58105-.56055,1.37109-.8418,2.37305-.8418.9873,0,1.77441.28125,2.36133.8418.58789.56055.88086,1.27441.88086,2.1416,0,.88086-.29688,1.60156-.89062,2.16211s-1.37793.84082-2.35156.84082c-.97461,0-1.75879-.28027-2.35254-.84082-.59473-.56055-.8916-1.28125-.8916-2.16211ZM1315.45703,1046.83165h-5.80566v-21.66113h5.80566v21.66113Z"/>
    <path class="cls-13" d="M1329.23047,1042.56797c1.06836,0,1.93555-.29395,2.60352-.88086.66699-.58789,1.01367-1.36816,1.04102-2.34277h5.4248c-.01367,1.46875-.41406,2.8125-1.20117,4.03418-.78809,1.2207-1.86523,2.16895-3.2334,2.84277s-2.87988,1.01074-4.53418,1.01074c-3.09668,0-5.53906-.98438-7.32715-2.95312-1.78906-1.96777-2.68262-4.6875-2.68262-8.1582v-.37988c0-3.33594.8877-5.99902,2.66309-7.9873,1.77441-1.98926,4.20996-2.9834,7.30664-2.9834,2.70898,0,4.88086.77051,6.5166,2.3125,1.63477,1.54102,2.46484,3.59277,2.49219,6.15527h-5.4248c-.02734-1.12598-.37402-2.04199-1.04102-2.74609-.66797-.70508-1.54883-1.05664-2.64258-1.05664-1.34863,0-2.36621.49121-3.05371,1.47266-.6875.9834-1.03027,2.57715-1.03027,4.78223v.60156c0,2.23242.33984,3.83691,1.02051,4.8125s1.71484,1.46387,3.10254,1.46387Z"/>
    <path class="cls-13" d="M1354.15527,1046.83165c-.26758-.52051-.45996-1.16797-.58105-1.94141-1.40039,1.56055-3.22266,2.3418-5.46484,2.3418-2.12207,0-3.88086-.61328-5.27539-1.8418-1.39453-1.22754-2.0918-2.77539-2.0918-4.64453,0-2.29492.85059-4.05664,2.55273-5.28516,1.70117-1.22754,4.16016-1.84863,7.37695-1.86133h2.66211v-1.24219c0-1-.25684-1.80078-.77051-2.40234-.51367-.59961-1.32422-.90039-2.43262-.90039-.97363,0-1.73828.2334-2.29199.70117-.55371.4668-.83105,1.10742-.83105,1.92188h-5.78516c0-1.25488.38672-2.41602,1.16113-3.48438.77344-1.06738,1.86816-1.9043,3.2832-2.51172,1.41406-.60742,3.00293-.91113,4.76465-.91113,2.66895,0,4.78809.6709,6.35645,2.01172,1.56738,1.3418,2.35254,3.22656,2.35254,5.65527v9.38965c.0127,2.05566.2998,3.61035.86035,4.66504v.33984h-5.8457ZM1349.37109,1042.80821c.85352,0,1.64062-.19043,2.36133-.57129.7207-.37988,1.25488-.89062,1.60156-1.53125v-3.72363h-2.16211c-2.89551,0-4.4375,1.00098-4.62402,3.00293l-.02051.34082c0,.7207.25391,1.31445.76172,1.78125.50684.46777,1.20117.70117,2.08203.70117Z"/>
    <path class="cls-13" d="M1369.69043,1046.83165h-5.80566v-30.75h5.80566v30.75Z"/>
  </g>
  <g>
    <rect class="cls-6" x="1467.38592" y="549.0744" width="347.66241" height="322.15433"/>
    <g>
      <rect class="cls-1" x="1528.62927" y="790.72157" width="214.26552" height="81.81328"/>
      <path class="cls-13" d="M1567.12598,835.72129h-8.78906l-17.10938-28.06641v28.06641h-8.78906v-42.65625h8.78906l17.13867,28.125v-28.125h8.75977v42.65625Z"/>
      <path class="cls-13" d="M1593.22949,832.49864c-2.08984,2.53906-4.98047,3.80859-8.67188,3.80859-3.39844,0-5.99121-.97656-7.77832-2.92969s-2.7002-4.81445-2.73926-8.58398v-20.77148h8.4668v20.50195c0,3.30469,1.50391,4.95703,4.51172,4.95703,2.87109,0,4.84375-.99707,5.91797-2.99219v-22.4668h8.49609v31.69922h-7.96875l-.23438-3.22266Z"/>
      <path class="cls-13" d="M1621.00293,829.48106c1.5625,0,2.83203-.42969,3.80859-1.28906s1.48438-2.00195,1.52344-3.42773h7.93945c-.01953,2.14844-.60547,4.11621-1.75781,5.90332s-2.72949,3.17383-4.73145,4.16016-4.21387,1.47949-6.63574,1.47949c-4.53125,0-8.10547-1.44043-10.72266-4.32129s-3.92578-6.86035-3.92578-11.93848v-.55664c0-4.88281,1.29883-8.7793,3.89648-11.68945s6.16211-4.36523,10.69336-4.36523c3.96484,0,7.14355,1.12793,9.53613,3.38379s3.6084,5.25879,3.64746,9.00879h-7.93945c-.03906-1.64844-.54688-2.98926-1.52344-4.02051-.97656-1.03027-2.26562-1.5459-3.86719-1.5459-1.97266,0-3.46191.71875-4.46777,2.15625-1.00586,1.43848-1.50879,3.77051-1.50879,6.99805v.87988c0,3.26758.49805,5.61523,1.49414,7.04297s2.50977,2.1416,4.54102,2.1416Z"/>
      <path class="cls-13" d="M1648.04395,835.72129h-8.49609v-45h8.49609v45Z"/>
      <path class="cls-13" d="M1669.60645,836.30723c-4.64844,0-8.43262-1.42578-11.35254-4.27734s-4.37988-6.65039-4.37988-11.39648v-.82031c0-3.18359.61523-6.03027,1.8457-8.54004s2.97363-4.44336,5.22949-5.80078,4.8291-2.03613,7.71973-2.03613c4.33594,0,7.74902,1.36719,10.23926,4.10156s3.73535,6.61133,3.73535,11.63086v3.45703h-20.18555c.27344,2.07031,1.09863,3.73047,2.47559,4.98047s3.12012,1.875,5.22949,1.875c3.26172,0,5.81055-1.18164,7.64648-3.54492l4.16016,4.6582c-1.26953,1.79688-2.98828,3.19824-5.15625,4.2041s-4.57031,1.50879-7.20703,1.50879ZM1668.63965,810.26231c-1.67969,0-3.04199.56934-4.08691,1.70703s-1.71387,2.7666-2.00684,4.88477h11.77734v-.67676c-.03906-1.88379-.54688-3.33984-1.52344-4.37012s-2.36328-1.54492-4.16016-1.54492Z"/>
      <path class="cls-13" d="M1705.81738,835.72129c-.39062-.76172-.67383-1.70898-.84961-2.8418-2.05078,2.28516-4.7168,3.42773-7.99805,3.42773-3.10547,0-5.67871-.89844-7.71973-2.69531s-3.06152-4.0625-3.06152-6.79688c0-3.35938,1.24512-5.9375,3.73535-7.73438s6.08887-2.70508,10.7959-2.72461h3.89648v-1.81641c0-1.46484-.37598-2.63672-1.12793-3.51562s-1.93848-1.31836-3.55957-1.31836c-1.42578,0-2.54395.3418-3.35449,1.02539s-1.21582,1.62109-1.21582,2.8125h-8.4668c0-1.83594.56641-3.53516,1.69922-5.09766s2.73438-2.78809,4.80469-3.67676,4.39453-1.33301,6.97266-1.33301c3.90625,0,7.00684.98145,9.30176,2.94434s3.44238,4.72168,3.44238,8.27637v13.74023c.01953,3.00781.43945,5.2832,1.25977,6.82617v.49805h-8.55469ZM1698.81543,829.83262c1.25,0,2.40234-.27832,3.45703-.83496s1.83594-1.30371,2.34375-2.24121v-5.44922h-3.16406c-4.23828,0-6.49414,1.46484-6.76758,4.39453l-.0293.49805c0,1.05469.37109,1.92383,1.11328,2.60742s1.75781,1.02539,3.04688,1.02539Z"/>
      <path class="cls-13" d="M1737.42871,811.96153c-1.15234-.15625-2.16797-.23438-3.04688-.23438-3.20312,0-5.30273,1.08398-6.29883,3.25195v20.74219h-8.4668v-31.69922h7.99805l.23438,3.7793c1.69922-2.91016,4.05273-4.36523,7.06055-4.36523.9375,0,1.81641.12695,2.63672.38086l-.11719,8.14453Z"/>
    </g>
    <g>
      <path class="cls-12" d="M1625.61063,641.69696c-10.88038,0-19.73361,8.85111-19.73361,19.73023,0,10.8808,8.85323,19.73318,19.73361,19.73318s19.73065-8.85238,19.73065-19.73318c0-10.87911-8.84984-19.73023-19.73065-19.73023Z"/>
      <path class="cls-12" d="M1613.75238,637.68195l-31.06236-53.79465-1.38989.80545c-27.33301,15.81452-44.31177,45.21737-44.31177,76.73443v1.60415h62.12725c-.03296-.54134-.16227-1.05478-.16227-1.60415,0-10.41765,6.06541-19.36342,14.79904-23.74524Z"/>
      <path class="cls-12" d="M1652.26497,661.42719c0,.54894-.12931,1.06196-.16227,1.60288h62.12598v-1.60457c0-31.51664-16.9796-60.91949-44.31557-76.73443l-1.3882-.80503-31.06193,53.79338c8.7349,4.38097,14.802,13.32844,14.802,23.74777Z"/>
      <path class="cls-12" d="M1610.92949,683.64097l-31.01756,53.7245,1.39158.80207c13.68383,7.88127,29.01407,11.82402,44.34177,11.82402,15.3146,0,30.62667-3.93937,44.27416-11.81768l1.38863-.8025-31.0239-53.72746c-4.21405,2.79289-9.25088,4.44014-14.67353,4.44014-5.42561,0-10.46582-1.64809-14.68114-4.44309Z"/>
    </g>
  </g>
  <g>
    <rect class="cls-6" x="786.23801" y="549.0744" width="347.66241" height="322.15433"/>
    <g>
      <rect class="cls-1" x="828.31057" y="790.72157" width="295.73648" height="81.81328"/>
      <path class="cls-13" d="M865.60547,821.51329c-.33203,4.58984-2.02734,8.20312-5.08398,10.83984s-7.08398,3.95508-12.08398,3.95508c-5.46875,0-9.77051-1.84082-12.90527-5.52246s-4.70215-8.73535-4.70215-15.16113v-2.60742c0-4.10156.72168-7.71484,2.16797-10.83984,1.44531-3.125,3.51074-5.52246,6.19629-7.19238,2.68457-1.66992,5.80469-2.50488,9.36035-2.50488,4.92188,0,8.88672,1.31836,11.89453,3.95508s4.74609,6.33789,5.21484,11.10352h-8.78906c-.21484-2.75391-.98242-4.75098-2.30078-5.99121s-3.32422-1.86035-6.01953-1.86035c-2.92969,0-5.12305,1.0498-6.57715,3.14941-1.45508,2.09961-2.20215,5.35645-2.24121,9.77051v3.22266c0,4.60938.69824,7.97852,2.09473,10.10742,1.39551,2.12891,3.59863,3.19336,6.60645,3.19336,2.71484,0,4.74023-.62012,6.07812-1.86035s2.10547-3.15918,2.30078-5.75684h8.78906Z"/>
      <path class="cls-13" d="M879.08203,807.48008c2.24609-2.69531,5.06836-4.04297,8.4668-4.04297,6.875,0,10.36133,3.99414,10.45898,11.98242v20.30273h-8.4668v-20.11426c0-1.82129-.39062-3.16699-1.17188-4.03809s-2.08008-1.30664-3.89648-1.30664c-2.48047,0-4.27734.95898-5.39062,2.87793v22.58105h-8.4668v-45h8.4668v16.75781Z"/>
      <path class="cls-13" d="M918.98438,836.30821c-4.64844,0-8.43262-1.42578-11.35254-4.27734s-4.37988-6.65039-4.37988-11.39648v-.82031c0-3.18359.61523-6.03027,1.8457-8.54004s2.97363-4.44336,5.22949-5.80078,4.8291-2.03613,7.71973-2.03613c4.33594,0,7.74902,1.36719,10.23926,4.10156s3.73535,6.61133,3.73535,11.63086v3.45703h-20.18555c.27344,2.07031,1.09863,3.73047,2.47559,4.98047s3.12012,1.875,5.22949,1.875c3.26172,0,5.81055-1.18164,7.64648-3.54492l4.16016,4.6582c-1.26953,1.79688-2.98828,3.19824-5.15625,4.2041s-4.57031,1.50879-7.20703,1.50879ZM918.01758,810.26329c-1.67969,0-3.04199.56934-4.08691,1.70703s-1.71387,2.7666-2.00684,4.88477h11.77734v-.67676c-.03906-1.88379-.54688-3.33984-1.52344-4.37012s-2.36328-1.54492-4.16016-1.54492Z"/>
      <path class="cls-13" d="M944.76562,804.02305l.26367,3.54492c2.24609-2.75391,5.2832-4.13086,9.11133-4.13086,4.08203,0,6.88477,1.61133,8.4082,4.83398,2.22656-3.22266,5.40039-4.83398,9.52148-4.83398,3.4375,0,5.99609,1.00098,7.67578,3.00293s2.51953,5.01465,2.51953,9.03809v20.24414h-8.49609v-20.26172c0-1.80078-.35156-3.11719-1.05469-3.94922s-1.94336-1.24805-3.7207-1.24805c-2.53906,0-4.29688,1.21387-5.27344,3.64062l.0293,21.81836h-8.4668v-20.23242c0-1.83984-.36133-3.1709-1.08398-3.99316s-1.95312-1.2334-3.69141-1.2334c-2.40234,0-4.14062.99805-5.21484,2.99512v22.46387h-8.4668v-31.69922h7.93945Z"/>
      <path class="cls-13" d="M988.71094,795.81993c0-1.26953.4248-2.31445,1.27441-3.13477s2.00684-1.23047,3.47168-1.23047c1.44531,0,2.59766.41016,3.45703,1.23047s1.28906,1.86523,1.28906,3.13477c0,1.28906-.43457,2.34375-1.30371,3.16406s-2.0166,1.23047-3.44238,1.23047-2.57324-.41016-3.44238-1.23047-1.30371-1.875-1.30371-3.16406ZM997.70508,835.72227h-8.49609v-31.69922h8.49609v31.69922Z"/>
      <path class="cls-13" d="M1017.86133,829.48204c1.5625,0,2.83203-.42969,3.80859-1.28906s1.48438-2.00195,1.52344-3.42773h7.93945c-.01953,2.14844-.60547,4.11621-1.75781,5.90332s-2.72949,3.17383-4.73145,4.16016-4.21387,1.47949-6.63574,1.47949c-4.53125,0-8.10547-1.44043-10.72266-4.32129s-3.92578-6.86035-3.92578-11.93848v-.55664c0-4.88281,1.29883-8.7793,3.89648-11.68945s6.16211-4.36523,10.69336-4.36523c3.96484,0,7.14355,1.12793,9.53613,3.38379s3.6084,5.25879,3.64746,9.00879h-7.93945c-.03906-1.64844-.54688-2.98926-1.52344-4.02051-.97656-1.03027-2.26562-1.5459-3.86719-1.5459-1.97266,0-3.46191.71875-4.46777,2.15625-1.00586,1.43848-1.50879,3.77051-1.50879,6.99805v.87988c0,3.26758.49805,5.61523,1.49414,7.04297s2.50977,2.1416,4.54102,2.1416Z"/>
      <path class="cls-13" d="M1054.33594,835.72227c-.39062-.76172-.67383-1.70898-.84961-2.8418-2.05078,2.28516-4.7168,3.42773-7.99805,3.42773-3.10547,0-5.67871-.89844-7.71973-2.69531s-3.06152-4.0625-3.06152-6.79688c0-3.35938,1.24512-5.9375,3.73535-7.73438s6.08887-2.70508,10.7959-2.72461h3.89648v-1.81641c0-1.46484-.37598-2.63672-1.12793-3.51562s-1.93848-1.31836-3.55957-1.31836c-1.42578,0-2.54395.3418-3.35449,1.02539s-1.21582,1.62109-1.21582,2.8125h-8.4668c0-1.83594.56641-3.53516,1.69922-5.09766s2.73438-2.78809,4.80469-3.67676,4.39453-1.33301,6.97266-1.33301c3.90625,0,7.00684.98145,9.30176,2.94434s3.44238,4.72168,3.44238,8.27637v13.74023c.01953,3.00781.43945,5.2832,1.25977,6.82617v.49805h-8.55469ZM1047.33398,829.8336c1.25,0,2.40234-.27832,3.45703-.83496s1.83594-1.30371,2.34375-2.24121v-5.44922h-3.16406c-4.23828,0-6.49414,1.46484-6.76758,4.39453l-.0293.49805c0,1.05469.37109,1.92383,1.11328,2.60742s1.75781,1.02539,3.04688,1.02539Z"/>
      <path class="cls-13" d="M1077.07031,835.72227h-8.49609v-45h8.49609v45Z"/>
    </g>
    <g>
      <path class="cls-17" d="M955.14854,703.01124c-10.59471,0-19.00816-8.41345-19.00816-19.00816s8.41345-19.00816,19.00816-19.00816,19.00816,8.41345,19.00816,19.00816c0,10.2831-8.41345,19.00816-19.00816,19.00816Z"/>
      <path class="cls-17" d="M955.14854,583.8873c15.18236,0,27.39426,12.2119,27.39426,27.39426,0,12.54195-8.58134,23.43365-20.79324,26.40411h-.6601v24.09375c-1.98031-.6601-3.96062-.6601-5.94092-.6601s-3.96062.33005-5.94092.6601v-24.09375h-.6601c-12.2119-2.97046-20.79324-13.86216-20.79324-26.40411,0-14.85231,12.2119-27.39426,27.39426-27.39426"/>
      <path class="cls-17" d="M977.15453,690.49389l20.46318,11.88185.6601.33005.33005-.33005c5.28082-5.28082,12.2119-8.25128,19.80308-8.25128,4.62072,0,9.57149,1.32021,13.53211,3.63057,6.27098,3.63057,10.8917,9.57149,12.872,16.50257,1.98031,6.93108.99015,14.52226-2.64041,20.79324-4.95077,8.58134-13.86216,13.53211-23.7637,13.53211-4.62072,0-9.57149-1.32021-13.53211-3.63057-10.8917-6.27098-16.17252-19.14298-12.54195-31.35488l.33005-.6601-.6601-.33005-20.79324-11.88185c2.97046-2.97046,4.95077-6.27098,5.94092-10.23159"/>
      <path class="cls-17" d="M932.59759,690.16384c.99015,3.96062,2.97046,7.59118,5.94092,10.23159l-21.12329,12.2119-.6601.33005.33005.6601c3.30051,12.2119-1.65026,24.75385-12.54195,31.35488-4.29067,2.31036-8.91139,3.63057-13.53211,3.63057-9.90154,0-18.81293-5.28082-23.7637-13.53211-3.63057-6.27098-4.62072-13.53211-2.64041-20.79324,1.98031-6.93108,6.27098-12.872,12.872-16.50257,4.29067-2.31036,8.91139-3.63057,13.53211-3.63057,7.26113,0,14.52226,2.97046,19.80308,8.25128l.33005.33005.6601-.33005,20.79324-12.2119"/>
      <g>
        <path class="cls-17" d="M964.28252,653.19809c13.86216,3.96062,23.43365,16.83262,23.43365,31.35488,0,2.64041-.33005,4.95077-.99015,7.59118l-8.91139-5.28082v-2.64041c0-9.24144-5.28082-17.49272-13.86216-21.12329v-9.90154"/>
        <path class="cls-17" d="M945.79965,653.19809v10.23159c-8.25128,3.63057-13.86216,11.88185-13.86216,21.12329v2.31036l-8.91139,4.95077c-.6601-2.31036-.99015-4.95077-.99015-7.26113.33005-14.52226,9.90154-27.39426,23.7637-31.35488"/>
        <path class="cls-17" d="M941.17893,702.70579c3.96062,2.97046,8.91139,4.62072,13.86216,4.62072s9.57149-1.65026,13.53211-4.29067l8.91139,4.95077c-6.27098,5.94092-14.19221,8.91139-22.44349,8.91139-8.58134,0-16.50257-3.30051-22.44349-9.24144l8.58134-4.95077"/>
      </g>
    </g>
  </g>
  <g>
    <path class="cls-11" d="M1193.66741,122.62743l1.35355-.34035c.29296-2.39122-5.17283-9.50712-6.38184-12.66522-1.46635-3.83032-3.06908-8.6915.92783-11.47831-4.11544,8.08665,3.77549,15.61864,7.1773,22.41933,10.38517,20.76141,3.9379,40.57449-14.73627,53.34526-.64082.43824-2.75096,2.32494-3.31354,1.78106l8.28503-11.77451c7.96046-16.32308,6.1247-34.08399-4.90676-48.40576-6.05262-7.85791-18.67046-15.56262-14.08583-27.05045,3.59845-9.01675,23.60715-12.04615,25.51186-21.42281.23608-1.16219-.09311-6.32586.50268-6.31325,3.46556,2.26233,5.9581,8.56959,5.79563,12.55734-.55015,13.50325-17.98543,12.52042-20.13209,21.41448-2.81674,11.67035,9.53729,18.87909,14.00246,27.9332Z"/>
    <g>
      <path class="cls-11" d="M1200.24798,181.74617c5.00117-10.99153,18.08112-17.27094,16.82832-34.79044-.98471-13.77045-14.79647-20.04479-20.23023-27.52622-5.99785-8.25808-8.51328-20.67195-4.38521-33.22011,2.05969-6.26085,6.40138-12.1156,10.3258-13.09625-5.08282,6.86175-7.29856,19.04404-5.20662,30.15069,4.1985,22.29098,24.77028,17.29305,29.92945,38.76446,4.39321,18.28364-3.53042,30.90711-11.90333,37.24659-8.79834,6.6616-16.46365,5.58476-17.8921,26.35106-.05223.75929-.14458,1.60589-.58943.81703-1.42789-9.25841-.15948-17.48184,3.12336-24.69682ZM1207.9065,128.14363c5.34418,5.745,11.67864,12.07091,9.64291,25.62439-1.58664,10.56354-8.54906,16.14873-13.00531,22.17975-.15698.21245-1.08461.58254-.56265,1.41307.33707.53633,7.06377-6.89092,7.84424-7.785,5.17781-5.93151,9.74608-12.12198,8.83002-24.81406-.6167-8.54441-6.62877-13.5992-10.51183-16.32668-.90108-.63292-1.915-1.51928-2.88214-1.55051-.1786,1.57753.27952.8664.64476,1.25903Z"/>
      <path class="cls-15" d="M1187.86914,172.96941l-.5935-.27453c-.12846-1.92882,2.26818-7.6687,2.79831-10.2161.64297-3.08963,1.34573-7.01079-.40683-9.25871,1.80454,6.52291-1.65547,12.59841-3.1471,18.08403-4.55369,16.7467-1.72669,32.72845,6.46156,43.02969.28099.3535,1.20624,1.87536,1.45292,1.43665l-3.63282-9.49763c-3.4905-13.16663-2.68556-27.49304,2.15151-39.04536,2.65395-6.3384,8.18662-12.55322,6.17635-21.81961-1.57785-7.27315-10.35126-9.71675-11.18643-17.2802-.10352-.93746.04083-5.1026-.22041-5.09244-1.51958,1.82485-2.61251,6.91245-2.54127,10.12909.24123,10.89208,7.88625,10.0993,8.82751,17.27348,1.23508,9.41362-4.18191,15.22837-6.13979,22.53166Z"/>
      <path class="cls-15" d="M1207.26175,126.8846c-.1786,1.57753.27952.8664.64476,1.25903,5.34418,5.745,11.67864,12.07091,9.64291,25.62439-1.58664,10.56354-8.54906,16.14873-13.00531,22.17975-.15698.21245-1.08461.58254-.56265,1.41307.33707.53633,7.06377-6.89092,7.84424-7.785,5.17781-5.93151,9.74608-12.12198,8.83002-24.81406-.6167-8.54441-6.62877-13.5992-10.51183-16.32668-.90108-.63292-1.915-1.51928-2.88214-1.55051Z"/>
    </g>
  </g>
  <path class="cls-15" d="M1180.2937,160.03789c5.47395,16.46888,2.29191,23.9351-5.65107,34.42661-.27257.36003-1.16167,1.90329-1.41863,1.47052l3.40778-9.58068c3.17895-13.2453,2.2426-18.80522-2.86562-30.24022-2.80272-6.27403-6.22841-13.68401-5.12318-23.10131.88745-7.56167,9.09443-12.48787,9.00328-24.84932-.00695-.94313-.16118-5.10022.10023-5.09622,1.5622,1.7885,4.98129,9.30801,2.70567,16.23603-2.58765,7.87799-9.63738,12.2164-.15846,40.7346Z"/>
  <g>
    <path class="cls-11" d="M658.22447,999.61195c-2.39311,0-5.025-2.83148-5.025-5.04407,0-2.21381,2.63189-2.97117,5.025-2.97117,2.3942,0,4.3348,1.79315,4.3348,4.00696s-1.94061,4.00829-4.3348,4.00829M650.90426,1005.6612h0c-1.65334,0-2.68778-1.78938-1.86044-3.22164l1.11583-1.93418c.33084-.57347,1.15851-.57347,1.48935,0l1.11583,1.93418c.82734,1.43227-.2071,3.22164-1.86057,3.22164M643.58418,999.61195c-2.39418,0-4.3348-1.79448-4.3348-4.00829s1.94062-4.00696,4.3348-4.00696c2.39311,0,5.02502.75737,5.02502,2.97117,0,2.2126-2.63191,5.04407-5.02502,5.04407M650.90426,974.54437c-9.02296,0-16.33674,7.31377-16.33674,16.33688v3.83289c0,4.74525,2.73613,8.84891,6.71515,10.82499v4.28026c0,1.60452,1.30072,2.90524,2.90524,2.90524h13.43284c1.60452,0,2.90524-1.30072,2.90524-2.90524v-4.28026c3.97901-1.97608,6.71514-6.07974,6.71514-10.82499v-3.83289c0-9.02311-7.31377-16.33688-16.33688-16.33688"/>
    <path class="cls-11" d="M673.23613,1014.69789c1.70854,2.22957,5.20183,2.83921,7.62705.42803.57891-.57556,1.01782-1.2986,1.23526-2.08544.82998-3.0034-1.08474-5.85877-3.92903-6.37786l-.54986-.10046-.07166-.43039c-.21291-1.27877-1.10669-2.39926-2.36268-2.72035-2.14911-.54942-4.08366,1.06644-4.08366,3.1259,0,.40145.07199.79121.21583,1.16096l.2595.66899-45.79409,23.33193-.34431-.5132c-.41134-.61309-.99401-1.11754-1.69886-1.33727-2.50363-.78046-4.78606,1.41819-4.15892,3.91068.17136.68105.60392,1.26889,1.14361,1.71825l.3362.27993-.19112.52488c-.13768.3791-.22875.77092-.27249,1.17038-.31701,2.89522,2.09787,5.60134,5.0104,5.60588,2.78856.00435,5.05909-2.2623,5.05909-5.04985,0-.51131-.07696-1.01269-.22712-1.49056l-.20227-.64159,42.59701-21.70384.40211.52501Z"/>
    <g>
      <path class="cls-11" d="M623.30266,1016.37645c2.35493.56959,4.52742-.56283,5.53338-2.42182l13.97333,7.12009,5.99753-3.05592-18.90848-9.63435c.47821-.63695.72068-1.46274.57847-2.34983-.20338-1.26866-1.23528-2.31917-2.50178-2.53561-1.94447-.3323-3.63034,1.15634-3.63034,3.03883,0,.06486.00645.1284.01021.19327-3.01048.10339-5.33206,2.91292-4.59288,6.0759.40588,1.73677,1.80699,3.15012,3.54057,3.56943Z"/>
      <path class="cls-11" d="M679.93531,1029.95774c-1.7235-.47639-3.3056.50587-3.80202,1.98442l-17.17496-8.75101-5.99793,3.05593,18.80612,9.58264c-.47198.94978-.65741,2.06964-.39847,3.25167.44191,2.0173,2.19289,3.58053,4.24639,3.7995,2.94638.31418,5.43831-1.98869,5.43831-4.87161,0-.84762-.21489-1.64447-.59351-2.33965,1.25827-.6436,2.02059-2.12205,1.53971-3.70641-.29245-.96356-1.09307-1.73719-2.06364-2.00547Z"/>
    </g>
  </g>
  <g>
    <path class="cls-15" d="M1469.13889,1031.36614c0,5.87376-4.76075,10.63392-10.63402,10.63392-5.87278,0-10.63344-4.76016-10.63344-10.63392,0-5.87278,4.76065-10.63392,10.63344-10.63392,5.87327,0,10.63402,4.76114,10.63402,10.63392Z"/>
    <path class="cls-2" d="M1496.04484,1052.816c-5.64708,10.09005-27.11595,8.81464-47.95151-2.84753-20.83594-11.66227-33.1487-29.29535-27.50123-39.38442,5.64708-10.09015,27.11546-8.81464,47.95141,2.84753,20.83604,11.66217,33.1488,29.29535,27.50133,39.38442Z"/>
    <path class="cls-2" d="M1496.40106,1010.01675c5.56554,10.13482-6.88963,27.66792-27.8194,39.16106-20.92929,11.49265-42.40723,12.59425-47.97287,2.45943-5.56554-10.13433,6.88962-27.66744,27.81891-39.16106,20.93027-11.49314,42.40821-12.59376,47.97336-2.45943Z"/>
    <path class="cls-2" d="M1458.02674,988.13305c11.56171-.07764,21.06506,19.21525,21.22649,43.09215.16104,23.8769-9.08131,43.29639-20.6435,43.37404-11.56171.07862-21.06555-19.21476-21.22649-43.09166-.16055-23.8769,9.08131-43.29639,20.6435-43.37452Z"/>
    <g>
      <path class="cls-11" d="M1452.44434,997.79161c-3.94434,0-7.1543-3.20898-7.1543-7.15332,0-3.94336,3.20996-7.15234,7.1543-7.15234,3.94336,0,7.15234,3.20898,7.15234,7.15234,0,3.94434-3.20898,7.15332-7.15234,7.15332Z"/>
      <path class="cls-10" d="M1452.44397,984.57731c3.34766,0,6.06091,2.71368,6.06091,6.06128s-2.71326,6.06097-6.06091,6.06097c-3.34802,0-6.06189-2.71326-6.06189-6.06097s2.71387-6.06128,6.06189-6.06128M1452.44397,982.39457c-4.54614,0-8.24463,3.69824-8.24463,8.24402s3.69849,8.24371,8.24463,8.24371c4.54553,0,8.24365-3.69812,8.24365-8.24371s-3.69812-8.24402-8.24365-8.24402h0Z"/>
    </g>
    <g>
      <path class="cls-11" d="M1420.3291,1057.23497c-3.94434,0-7.15332-3.20898-7.15332-7.15234,0-3.94434,3.20898-7.15332,7.15332-7.15332s7.15332,3.20898,7.15332,7.15332c0,3.94336-3.20898,7.15234-7.15332,7.15234Z"/>
      <path class="cls-10" d="M1420.32922,1044.02086c3.34766,0,6.0614,2.71375,6.0614,6.06146s-2.71375,6.06079-6.0614,6.06079-6.0614-2.7132-6.0614-6.06079,2.71375-6.06146,6.0614-6.06146M1420.32922,1041.83812c-4.54578,0-8.24414,3.69836-8.24414,8.2442,0,4.54547,3.69836,8.24353,8.24414,8.24353s8.24414-3.69806,8.24414-8.24353c0-4.54584-3.69836-8.2442-8.24414-8.2442h0Z"/>
    </g>
    <g>
      <circle class="cls-11" cx="1489.38477" cy="1057.31309" r="7.15332"/>
      <path class="cls-10" d="M1489.38525,1051.252c3.34753,0,6.06091,2.71368,6.06091,6.0614s-2.71338,6.06134-6.06091,6.06134-6.06189-2.71375-6.06189-6.06134,2.71423-6.0614,6.06189-6.0614M1489.38525,1049.06926c-4.54614,0-8.24463,3.6983-8.24463,8.24414s3.69849,8.24408,8.24463,8.24408c4.54553,0,8.24365-3.6983,8.24365-8.24408s-3.69812-8.24414-8.24365-8.24414h0Z"/>
    </g>
  </g>
  <path class="cls-11" d="M1162.35726,150.38251l1.3873-.15275c1.10801,2.13918-1.53493,10.7139-1.56743,14.09535-.03942,4.10122.15264,9.21619,4.87022,10.4352-6.67585-6.14522-1.90486-15.95518-1.08662-23.51509,2.49795-23.07917-10.45058-39.40281-32.40484-44.86424-.75338-.18741-3.38878-1.22036-3.72652-.5145l11.86934,8.1486c13.15044,12.52508,17.62006,29.81214,12.27192,47.08071-2.93436,9.47473-12.07567,21.09406-3.77462,30.26367,6.51545,7.19718,26.32538,3.06294,31.37873,11.1878.62634,1.00704,2.1175,5.96165,2.67154,5.74219,2.45976-3.32833,2.59772-10.10884,1.05558-13.78992-5.22199-12.4648-21.22146-5.46683-26.33339-13.05502-6.70763-9.95685,2.35928-21.01936,3.38881-31.06201Z"/>
  <path class="cls-15" d="M1453.34576,414.17093c-2.45677,7.98451-.57358,11.59631,2.62086,15.50677-.14146.0791-12.3045-2.92862-18.12764-16.38039-4.1869-8.32259-1.79381-18.9102,2.32865-26.9532,2.73667-5.33928,13.51271-21.19688,15.73716-24.93064,1.93594-3.24949,1.97913-6.91128.63938-10.51546-.21463-.57741-.36424-1.17897-.6254-2.03716,4.0172,2.28116,7.20357,5.12355,9.86211,8.54291,5.99179,7.70651,7.55382,19.0451,6.32886,28.6075,0,0,3.15841-3.92079,3.15841-12.63365.0895.05056,3.55676,5.79945,3.66791,5.94649,3.62076,4.79044,6.53994,9.92248,7.72709,15.89845,1.23995,6.24176-.08671,12.03228-3.14355,17.48441-6.36767,14.13147-16.2315,16.84196-15.9775,16.53392,2.26091-2.74193,3.63276-4.70435,3.49448-8.2994-.21841-5.67854-3.44088-7.60051-6.11535-12.23069-1.98972-3.74415-3.14016-7.57069-2.62086-10.04664-4.02689,2.5553-7.20737,9.82824-8.95462,15.50677Z"/>
  <path class="cls-11" d="M1455.96663,429.6777s-6.32669-4.34014-2.62086-15.50677c4.88234-14.71177,8.95462-15.50677,8.95462-15.50677,0,0,.04905,6.10048,2.62086,10.04664,3.45187,5.29651,5.72025,7.36579,6.11535,12.23069.4485,5.52243-3.49448,8.2994-3.49448,8.2994l-11.57548.43681Z"/>
</svg>
