<?xml version="1.0" encoding="UTF-8"?>
<svg id="Ebene_2" data-name="Ebene 2" xmlns="http://www.w3.org/2000/svg" viewBox="0 0 1920 1280">
  <defs>
    <style>
      .cls-1, .cls-2, .cls-3 {
        fill: none;
      }

      .cls-2 {
        stroke: #0d435c;
        stroke-width: 5.20085px;
      }

      .cls-2, .cls-3 {
        stroke-miterlimit: 10;
      }

      .cls-4 {
        fill: #0d435c;
      }

      .cls-5 {
        fill: #f3f5f7;
      }

      .cls-6 {
        fill: #0c425b;
      }

      .cls-7 {
        fill: #0d425b;
      }

      .cls-8 {
        fill: #fac100;
      }

      .cls-3 {
        stroke: #fac102;
        stroke-width: 6.63862px;
      }

      .cls-9 {
        fill: #fac102;
      }
    </style>
  </defs>
  <rect class="cls-5" x=".39966" width="1919.60034" height="1280"/>
  <g>
    <polygon class="cls-1" points="1042.67329 439.72504 1136.9232 439.72504 1136.9232 566.29321 1147.33975 566.29321 1147.33975 430.91119 1042.67329 430.91119 1042.67329 439.72504"/>
    <path class="cls-6" d="M1156.55442,421.69653h-123.09579v18.02851h-19.63122v153.81135h123.09579v-18.02851h19.63122v-153.81135ZM1127.70853,584.32172h-104.66646v-135.38202h104.66646v135.38202ZM1147.33975,566.29321h-10.41655v-126.56817h-94.24991v-8.81385h104.66646v135.38202Z"/>
  </g>
  <rect class="cls-6" x="1040.77876" y="482.7058" width="58.94713" height="7.67889"/>
  <rect class="cls-6" x="1040.77876" y="499.55619" width="66.16406" height="7.67889"/>
  <rect class="cls-6" x="1040.77876" y="516.40659" width="43.59473" height="7.67889"/>
  <path class="cls-8" d="M1117.37659,556.46382c0,2.03675-.90688,3.55533-2.72048,4.55082,1.51138,1.142,2.26699,2.75411,2.26699,4.83632,0,1.95996-.77006,3.49528-2.31014,4.61086-1.53777,1.11298-3.66314,1.66954-6.37161,1.66954-2.87638,0-5.11939-.59726-6.72671-1.7944-1.60489-1.19699-2.40843-2.93149-2.40843-5.20091l4.85306-.01674c0,.99795.35738,1.76568,1.07474,2.29814.71721.53506,1.78473.80137,3.20734.80137,1.25473,0,2.20458-.21117,2.85468-.63105.65025-.42219.97402-.98597.97402-1.69366,0-.73164-.35986-1.3266-1.08426-1.78718-.71969-.46058-2.10389-.97399-4.1454-1.53777-2.04397-.56609-3.58404-1.15629-4.62039-1.77275-1.03401-.61661-1.80638-1.3435-2.31733-2.18311-.50865-.83961-.76297-1.85199-.76297-3.03946,0-2.01509.90688-3.54319,2.7205-4.5843-1.52336-1.15398-2.28388-2.76609-2.28388-4.83632,0-1.91435.78693-3.45934,2.36067-4.63482,1.57123-1.17548,3.69674-1.76323,6.37146-1.76323,2.76609,0,4.90834.63335,6.43168,1.89761,1.52334,1.26425,2.28385,3.02272,2.28385,5.27294h-4.85321c0-.97399-.3454-1.76092-1.0314-2.35819-.69097-.59972-1.63379-.89966-2.83092-.89966-1.23062,0-2.18295.21839-2.8547.65486-.67175.43662-1.00747,1.03634-1.00747,1.79686,0,.81811.31176,1.43227.93068,1.84723.62383.41497,1.96963.89474,4.03986,1.44409,2.07038.54935,3.65116,1.13003,4.74509,1.74649,1.08917.61646,1.90006,1.35056,2.42545,2.20937.52524.85405.78924,1.88808.78924,3.09705ZM1105.25224,552.71913c-.83958.47026-1.25949,1.25949-1.25949,2.36771,0,.7725.23282,1.36991.69816,1.78734.46304.42219,1.38896.85389,2.77794,1.30249l3.72792,1.12511c.91886-.52524,1.37713-1.30971,1.37713-2.35097,0-.69325-.25432-1.26179-.76297-1.70318-.51095-.44384-1.42489-.88768-2.74674-1.33628l-3.81195-1.19222Z"/>
  <g>
    <path class="cls-7" d="M1559.57116,471.79014c-.05282,1.14693-.36219,2.15992-.9281,3.03898-.56592.87906-1.36009,1.56005-2.38251,2.04296-1.02242.48292-2.1901.72437-3.50303.72437-2.16558,0-3.87088-.70551-5.11589-2.11653-1.24502-1.41102-1.86753-3.40305-1.86753-5.97609v-.81492c0-1.61475.28107-3.02766.84322-4.23872.56214-1.21106,1.37141-2.14671,2.42779-2.80695,1.05638-.66024,2.27876-.99036,3.66715-.99036,1.99957,0,3.60678.5263,4.82162,1.57891,1.21484,1.05261,1.90526,2.50324,2.07126,4.35191h-3.96142c-.03018-1.00356-.28296-1.72416-.75833-2.1618s-1.19974-.65646-2.17312-.65646c-.98847,0-1.71284.36973-2.17312,1.1092s-.70174,1.92035-.72437,3.54264v1.16579c0,1.75812.22071,3.01445.66212,3.76901.44142.75456,1.20163,1.13183,2.28065,1.13183.91301,0,1.61098-.21505,2.09389-.64515s.73947-1.11297.76965-2.04862h3.9501Z"/>
    <path class="cls-7" d="M1574.21711,471.22423l1.89016-10.33365h3.93879l-3.49737,16.47952h-4.11988l-2.20708-9.39423-2.1618,9.39423h-4.10856l-3.50869-16.47952h3.9501l1.89016,10.33365,2.26367-10.33365h3.37287l2.29762,10.33365Z"/>
    <path class="cls-7" d="M1594.92968,471.79014c-.05282,1.14693-.36219,2.15992-.9281,3.03898-.56592.87906-1.36009,1.56005-2.38251,2.04296-1.02242.48292-2.1901.72437-3.50303.72437-2.16558,0-3.87088-.70551-5.11589-2.11653-1.24502-1.41102-1.86753-3.40305-1.86753-5.97609v-.81492c0-1.61475.28107-3.02766.84322-4.23872s1.37141-2.14671,2.42779-2.80695c1.05638-.66024,2.27876-.99036,3.66715-.99036,1.99957,0,3.60678.5263,4.82162,1.57891,1.21484,1.05261,1.90526,2.50324,2.07126,4.35191h-3.96142c-.03018-1.00356-.28296-1.72416-.75833-2.1618s-1.19974-.65646-2.17312-.65646c-.98847,0-1.71284.36973-2.17312,1.1092-.46028.73947-.70174,1.92035-.72437,3.54264v1.16579c0,1.75812.22071,3.01445.66212,3.76901.44142.75456,1.20163,1.13183,2.28065,1.13183.91301,0,1.61098-.21505,2.09389-.64515s.73947-1.11297.76965-2.04862h3.9501Z"/>
  </g>
  <path class="cls-6" d="M1666.36043,417.75751h-120.16313v17.599h-19.16343v150.14691h120.16322v-17.599h19.16334v-150.14691ZM1536.029,576.50828v-132.15664h102.17296v132.15664h-102.17296ZM1657.3653,558.90928h-10.1682v-123.55278h-92.00466v-8.60387h102.17286v132.15664Z"/>
  <rect class="cls-6" x="1546.20431" y="490.11567" width="64.58775" height="7.49594"/>
  <rect class="cls-6" x="1546.20431" y="508.15822" width="26.45065" height="7.57025"/>
  <g>
    <path class="cls-8" d="M1599.89484,551.20565c-3.63977,0-6.53018-2.89041-6.53018-6.53018s2.89041-6.53018,6.53018-6.53018,6.53018,2.89041,6.53018,6.53018c0,3.53272-2.89041,6.53018-6.53018,6.53018Z"/>
    <path class="cls-8" d="M1599.89484,510.28107c5.21584,0,9.4112,4.19535,9.4112,9.4112,0,4.30874-2.94809,8.05054-7.14344,9.07103h-.22678v8.27732c-.68033-.22678-1.36065-.22678-2.04098-.22678s-1.36065.11339-2.04098.22678v-8.27732h-.22678c-4.19535-1.02049-7.14344-4.76229-7.14344-9.07103,0-5.10246,4.19535-9.4112,9.4112-9.4112"/>
    <path class="cls-8" d="M1607.45491,546.90536l7.03005,4.08196.22678.11339.11339-.11339c1.81421-1.81421,4.19535-2.8347,6.80327-2.8347,1.58743,0,3.28825.45355,4.6489,1.24727,2.15437,1.24727,3.7418,3.28825,4.42213,5.66939.68033,2.38115.34016,4.98907-.9071,7.14344-1.70082,2.94809-4.76229,4.6489-8.16393,4.6489-1.58743,0-3.28825-.45355-4.6489-1.24727-3.7418-2.15437-5.55601-6.5765-4.30874-10.77185l.11339-.22678-.22678-.11339-7.14344-4.08196c1.02049-1.02049,1.70082-2.15437,2.04098-3.51502"/>
    <path class="cls-8" d="M1592.14754,546.79197c.34016,1.36065,1.02049,2.60792,2.04098,3.51502l-7.25683,4.19535-.22678.11339.11339.22678c1.13388,4.19535-.56694,8.50409-4.30874,10.77185-1.47404.79372-3.06147,1.24727-4.6489,1.24727-3.40164,0-6.46311-1.81421-8.16393-4.6489-1.24727-2.15437-1.58743-4.6489-.9071-7.14344.68033-2.38115,2.15437-4.42213,4.42213-5.66939,1.47404-.79372,3.06147-1.24727,4.6489-1.24727,2.49453,0,4.98907,1.02049,6.80327,2.8347l.11339.11339.22678-.11339,7.14344-4.19535"/>
    <g>
      <path class="cls-8" d="M1603.03278,534.09253c4.76229,1.36065,8.05054,5.78278,8.05054,10.77185,0,.9071-.11339,1.70082-.34016,2.60792l-3.06147-1.81421v-.9071c0-3.17486-1.81421-6.00956-4.76229-7.25683v-3.40164"/>
      <path class="cls-8" d="M1596.68306,534.09253v3.51502c-2.8347,1.24727-4.76229,4.08196-4.76229,7.25683v.79372l-3.06147,1.70082c-.22678-.79372-.34016-1.70082-.34016-2.49453.11339-4.98907,3.40164-9.4112,8.16393-10.77185"/>
      <path class="cls-8" d="M1595.09563,551.10071c1.36065,1.02049,3.06147,1.58743,4.76229,1.58743s3.28825-.56694,4.6489-1.47404l3.06147,1.70082c-2.15437,2.04098-4.87568,3.06147-7.71038,3.06147-2.94809,0-5.66939-1.13388-7.71038-3.17486l2.94809-1.70082"/>
    </g>
  </g>
  <path class="cls-4" d="M515.84632,546.45795c.19732-7.85412.31352-30.94181-.50411-37.94681-1.79166-15.35663-5.40752-29.14097-29.64162-29.14097-23.49309,0-27.7429,15.79956-28.89641,27.68518-.32997,3.4079-.46799,14.89789-.4756,25.55712l6.45403,6.18061c-.04093-11.63286.09912-27.59071.4409-31.11532,1.50617-15.52561,8.01786-21.85887,22.47708-21.85887,19.12153,0,21.53455,8.85544,23.23699,23.43956.64025,5.49253.65285,28.10357.48911,37.18572l6.41963.01378Z"/>
  <path class="cls-4" d="M485.83635,472.73959c-16.0735,0-29.14936-13.12939-29.14936-29.26692s13.07586-29.26692,29.14936-29.26692c15.80061,0,29.14936,13.8746,29.14936,30.29762,0,15.83315-12.80401,28.23621-29.14936,28.23621ZM485.83635,420.65447c-12.51747,0-22.70065,10.2367-22.70065,22.8182s10.18317,22.8182,22.70065,22.8182c12.72949,0,22.70065-9.57021,22.70065-21.7875,0-12.92787-10.39519-23.84891-22.70065-23.84891Z"/>
  <path class="cls-4" d="M286.0617,553.62269h-59.19718l-.07137-3.15089c-.22146-9.7245-.19627-39.24302.34532-44.83631,1.15351-11.88562,5.40332-27.68518,28.89641-27.68518,24.23411,0,27.84996,13.78434,29.64162,29.14097.81763,7.005.66125,35.53375.46392,43.38787l-.07872,3.14354ZM233.18099,547.17398h46.57999c.16374-9.08215.15114-33.84285-.48911-39.33538-1.70244-14.58413-4.11546-23.43956-23.23699-23.43956-14.45923,0-20.97092,6.33326-22.47708,21.85887-.42719,4.40515-.53949,30.38863-.3768,40.91607Z"/>
  <path class="cls-4" d="M256.17061,471.31969c-16.0735,0-29.14936-13.12939-29.14936-29.26692s13.07586-29.26692,29.14936-29.26692c15.80061,0,29.14936,13.8746,29.14936,30.29762,0,15.83315-12.80401,28.23621-29.14936,28.23621ZM256.17061,419.23457c-12.51747,0-22.70065,10.2367-22.70065,22.8182s10.18317,22.8182,22.70065,22.8182c12.72949,0,22.70065-9.57021,22.70065-21.7875,0-12.92787-10.39519-23.84891-22.70065-23.84891Z"/>
  <path class="cls-4" d="M620.65842,491.11311h-.00105c-16.34535,0-29.14831-12.40307-29.14831-28.23621,0-16.42302,13.34875-30.29762,29.14831-30.29762,16.0735,0,29.14936,13.12939,29.14936,29.26692s-13.07586,29.26692-29.14831,29.26692ZM620.65842,439.02799c-12.30546,0-22.70065,10.92104-22.70065,23.84891,0,12.21729,9.97116,21.7875,22.6996,21.7875,12.51747,0,22.70065-10.2367,22.70065-22.8182s-10.18317-22.8182-22.6996-22.8182Z"/>
  <path class="cls-4" d="M562.74175,661.25567c-10.3742,0-17.68358-5.07689-17.81268-12.40727-.05248-3.04698-.21307-7.13935-.39885-11.87827-.71372-18.24197-1.79271-45.80854,1.53976-59.13525.93729-3.75335,4.94569-7.67674,27.56237-8.31175,7.74811-.21727,15.28421.01994,19.59175.20782-.55838-8.93835-1.76017-31.97067-.2666-44.77364,1.99108-17.06642,5.37498-29.14936,30.92528-29.184h.06403c16.72845,0,25.73818,9.0685,27.54873,27.72506,1.06219,10.94728-.32642,44.46716-.47547,47.96651,1.27001,11.94335-1.99633,34.84237-23.41752,37.69832-19.23908,2.56521-38.76995,1.9365-46.48868,1.53241-.13855,7.60957-.45762,26.41412-.45657,38.36586,0,7.08792-7.25165,12.10078-17.63425,12.1921-.09446.00105-.18788.0021-.28129.0021ZM552.29827,579.50793c-3.07531,12.48179-2.02152,39.38817-1.32354,57.21029.18683,4.77566.34847,8.90057.40304,12.01682.07032,4.00316,5.74653,6.07086,11.38601,6.07086h.20257c5.52612-.04933,11.24222-2.21045,11.24222-5.74444-.00105-15.25692.5164-41.59022.52165-41.85471l.06717-3.41014,3.40069.25925c.2498.01994,25.04439,1.84939,48.55218-1.2847,20.69697-2.75939,17.96068-29.69515,17.83367-30.84026l-.02729-.24665.0105-.2519c.01574-.36316,1.5639-36.4493.50905-47.31051-1.48938-15.34718-7.80899-21.89981-21.12835-21.89981h-.05668c-20.82292.02834-22.73109,8.07139-24.52904,23.4826-1.76962,15.17505.51325,46.88018.53634,47.1982l.2687,3.68618-3.68828-.23301c-21.31623-1.34768-41.87151.12595-44.18062,3.15193Z"/>
  <path class="cls-4" d="M104.2409,460.41006c0-16.13753,13.07586-29.26692,29.14936-29.26692,15.79956,0,29.14831,13.8746,29.14831,30.29762,0,15.83315-12.80296,28.23621-29.14831,28.23621h-.00105c-16.07245,0-29.14831-13.12939-29.14831-29.26692ZM110.68961,460.41006c0,12.5815,10.18317,22.8182,22.70065,22.8182,12.72844,0,22.6996-9.57021,22.6996-21.7875,0-12.92787-10.39519-23.84891-22.70065-23.84891-12.51642,0-22.6996,10.2367-22.6996,22.8182Z"/>
  <path class="cls-4" d="M191.02459,659.81743c-10.3826-.09131-17.63425-5.10418-17.63425-12.1921.00105-11.95174-.31803-30.75629-.45657-38.36586-7.71872.40409-27.24959,1.0328-46.48868-1.53241-21.42119-2.85595-24.68753-25.75497-23.41752-37.69832-.14904-3.49935-1.53766-37.01923-.47547-47.96651,1.81055-18.65656,10.82028-27.72506,27.54873-27.72506h.06403c25.5503.03464,28.9342,12.11758,30.92528,29.184,1.49357,12.80296.29179,35.83528-.2666,44.77364,4.30754-.18788,11.84363-.42509,19.59175-.20782,22.61668.63501,26.62509,4.55839,27.56237,8.31175,3.33247,13.32671,2.25348,40.89328,1.53976,59.13525-.18578,4.73892-.34637,8.8313-.39885,11.87827-.1291,7.33037-7.43848,12.40727-17.81268,12.40727-.09341,0-.18683-.00105-.28129-.0021ZM157.56874,574.91986l-3.68828.23301.2687-3.68618c.02309-.31803,2.30596-32.02315.53634-47.1982-1.79796-15.41121-3.70612-23.45426-24.52904-23.4826h-.05668c-13.31937,0-19.63898,6.55262-21.12835,21.89981-1.05484,10.86121.49331,46.94735.50905,47.31051l.0105.2519-.02729.24665c-.127,1.14511-2.8633,28.08087,17.83367,30.84026,23.50779,3.13409,48.30238,1.30465,48.55218,1.2847l3.40069-.25925.06717,3.41014c.00525.2645.5227,26.5978.52165,41.85471,0,3.53399,5.7161,5.6951,11.24222,5.74444h.20257c5.63948,0,11.31569-2.0677,11.38601-6.07086.05458-3.11625.21622-7.24116.40304-12.01682.69798-17.82213,1.75177-44.72851-1.32354-57.21029-2.30911-3.02598-22.86439-4.49962-44.18062-3.15193Z"/>
  <path class="cls-2" d="M582.40799,416.10343l.69433-1.3674c4.03754-7.95552,7.27625-20.9688,3.11561-31.46427-7.41175-18.69542-28.65154-27.8784-47.34785-20.46577-9.04128,3.58321-16.15192,10.48839-20.02207,19.44199-3.87015,8.95361-4.0278,18.86457-.44281,27.90674,6.44199,16.25111,23.58492,25.6617,40.75973,22.36276l.20901-.03985,32.54738-1.09817-9.51332-15.27604Z"/>
  <path class="cls-4" d="M541.93485,397.46031c0,2.25358-1.82735,4.08093-4.08093,4.08093-2.25358,0-4.08093-1.82735-4.08093-4.08093s1.82736-4.08093,4.08093-4.08093,4.08093,1.82736,4.08093,4.08093"/>
  <path class="cls-4" d="M555.3603,397.46031c0,2.25358-1.82735,4.08093-4.08093,4.08093-2.25358,0-4.08093-1.82735-4.08093-4.08093,0-2.25358,1.82735-4.08093,4.08093-4.08093s4.08093,1.82736,4.08093,4.08093"/>
  <path class="cls-4" d="M568.91235,397.46031c0,2.25358-1.82735,4.08093-4.08093,4.08093-2.25358,0-4.08093-1.82735-4.08093-4.08093,0-2.25358,1.82735-4.08093,4.08093-4.08093,2.25358,0,4.08093,1.82736,4.08093,4.08093"/>
  <path class="cls-2" d="M161.84865,424.38549l32.54738,1.09817.20901.03985c17.17481,3.29893,34.31773-6.11166,40.75973-22.36276,3.58499-9.04217,3.42735-18.95313-.44281-27.90674-3.87015-8.95361-10.98079-15.85878-20.02207-19.44199-18.6963-7.41263-39.9361,1.77035-47.34785,20.46577-4.16064,10.49547-.92193,23.50876,3.11561,31.46427l.69433,1.3674-9.51332,15.27604Z"/>
  <path class="cls-4" d="M211.8351,390.46632c0,2.25358,1.82735,4.08093,4.08093,4.08093,2.25358,0,4.08093-1.82735,4.08093-4.08093s-1.82736-4.08093-4.08093-4.08093c-2.25358,0-4.08093,1.82736-4.08093,4.08093"/>
  <path class="cls-4" d="M198.40965,390.46632c0,2.25358,1.82735,4.08093,4.08093,4.08093,2.25358,0,4.08093-1.82735,4.08093-4.08093s-1.82735-4.08093-4.08093-4.08093c-2.25358,0-4.08093,1.82736-4.08093,4.08093"/>
  <path class="cls-4" d="M184.8576,390.46632c0,2.25358,1.82735,4.08093,4.08093,4.08093,2.25358,0,4.08093-1.82735,4.08093-4.08093s-1.82735-4.08093-4.08093-4.08093c-2.25358,0-4.08093,1.82736-4.08093,4.08093"/>
  <rect class="cls-4" x="104.44225" y="614.03476" width="61.54115" height="13.10594"/>
  <rect class="cls-4" x="590.24641" y="615.45466" width="61.54008" height="13.10594"/>
  <g>
    <path class="cls-4" d="M476.03117,655.04197h-4.79199c-8.48947,0-15.39685-6.90738-15.39685-15.39685v-60.82808c0-8.48947,6.90738-15.39685,15.39685-15.39685h4.79199c8.48947,0,15.39685,6.90738,15.39685,15.39685v60.82808c0,8.48947-6.90738,15.39685-15.39685,15.39685ZM471.23918,570.37329c-4.65486,0-8.44376,3.7889-8.44376,8.44376v60.82808c0,4.65486,3.7889,8.44376,8.44376,8.44376h4.79199c4.65486,0,8.44376-3.7889,8.44376-8.44376v-60.82808c0-4.65486-3.7889-8.44376-8.44376-8.44376h-4.79199Z"/>
    <path class="cls-4" d="M504.66123,655.04197h-4.78945c-8.48947,0-15.39685-6.90738-15.39685-15.39685v-60.82808c0-8.48947,6.90738-15.39685,15.39685-15.39685h4.78945c8.48947,0,15.39685,6.90738,15.39685,15.39685v60.82808c0,8.48947-6.90738,15.39685-15.39685,15.39685ZM499.87178,570.37329c-4.65486,0-8.44376,3.7889-8.44376,8.44376v60.82808c0,4.65486,3.7889,8.44376,8.44376,8.44376h4.78945c4.65486,0,8.44376-3.7889,8.44376-8.44376v-60.82808c0-4.65486-3.7889-8.44376-8.44376-8.44376h-4.78945Z"/>
  </g>
  <g>
    <path class="cls-4" d="M246.92214,655.04197h-4.78945c-8.48947,0-15.39685-6.90738-15.39685-15.39685v-60.82808c0-8.48947,6.90738-15.39685,15.39685-15.39685h4.78945c8.48947,0,15.39685,6.90738,15.39685,15.39685v60.82808c0,8.48947-6.90738,15.39685-15.39685,15.39685ZM242.13269,570.37329c-4.65486,0-8.44376,3.7889-8.44376,8.44376v60.82808c0,4.65486,3.7889,8.44376,8.44376,8.44376h4.78945c4.65486,0,8.44376-3.7889,8.44376-8.44376v-60.82808c0-4.65486-3.7889-8.44376-8.44376-8.44376h-4.78945Z"/>
    <path class="cls-4" d="M275.55474,655.04197h-4.79199c-8.48947,0-15.39685-6.90738-15.39685-15.39685v-60.82808c0-8.48947,6.90738-15.39685,15.39685-15.39685h4.79199c8.48947,0,15.39685,6.90738,15.39685,15.39685v60.82808c0,8.48947-6.90738,15.39685-15.39685,15.39685ZM270.76274,570.37329c-4.65486,0-8.44376,3.7889-8.44376,8.44376v60.82808c0,4.65486,3.7889,8.44376,8.44376,8.44376h4.79199c4.65486,0,8.44376-3.7889,8.44376-8.44376v-60.82808c0-4.65486-3.7889-8.44376-8.44376-8.44376h-4.79199Z"/>
  </g>
  <g>
    <polygon class="cls-7" points="317.33552 545.73884 182.09437 545.73884 182.09437 560.93849 207.73231 560.93849 317.33552 560.93849 317.33552 545.73884"/>
    <rect class="cls-6" x="338.92219" y="532.08269" width="59.51768" height="7.88178"/>
    <path class="cls-9" d="M464.74069,543.34837l-33.27332-33.27332c6.13389-7.05908,9.8776-16.24758,9.8776-26.31196,0-22.16455-18.02902-40.19723-40.19357-40.19723s-40.19723,18.03267-40.19723,40.19723,18.03267,40.19723,40.19723,40.19723c8.73252,0,16.799-2.83016,23.398-7.57831l33.57882,33.57882s2.18791.54236,4.82726-2.097c2.63935-2.63935,1.78521-4.51547,1.78521-4.51547ZM401.1514,514.60789c-17.0061,0-30.84479-13.83869-30.84479-30.84479s13.83869-30.84479,30.84479-30.84479,30.84113,13.83869,30.84113,30.84479-13.83504,30.84479-30.84113,30.84479Z"/>
    <g>
      <path class="cls-9" d="M428.3635,525.48666v44.10605h-107.43211v-137.38281h107.43211v17.12347c3.67022,2.9074,6.87148,6.37326,9.45819,10.29052v-36.87218h-126.3485v156.29896h126.3485v-44.10581l-9.45819-9.45819Z"/>
      <path class="cls-9" d="M437.82169,511.1389v-3.31442c-.43701.66381-.86671,1.33201-1.34079,1.97363l1.34079,1.34079Z"/>
    </g>
    <path class="cls-6" d="M369.25357,514.59671h-30.33138v7.88183h40.84309c-3.89312-2.09459-7.4314-4.75982-10.51171-7.88183Z"/>
    <path class="cls-6" d="M359.30057,497.11086h-20.37838v7.88183h23.78644c-1.38103-2.49087-2.52697-5.12636-3.40806-7.88183Z"/>
    <path class="cls-6" d="M357.21305,483.76296c0-1.39688.0817-2.77425.20973-4.13796h-18.50059v7.88158h18.4806c-.10511-1.2369-.18973-2.4799-.18973-3.74362Z"/>
    <path class="cls-6" d="M362.94846,462.1389h-24.02617v7.88183h20.52299c.91182-2.75913,2.08898-5.39364,3.50317-7.88183Z"/>
    <path class="cls-6" d="M410.72717,471.6983v-11.80665h-21.81257c-4.99857,2.61378-9.05874,6.75735-11.58692,11.80665h33.39949Z"/>
    <path class="cls-6" d="M401.82085,477.35483h-26.56142c-.48871,2.02143-.77599,4.12065-.77599,6.2901,0,1.8912.20241,3.73509.57675,5.51655h26.76066v-11.80665Z"/>
    <path class="cls-6" d="M411.07639,494.46854h-34.29034c2.16189,4.87469,5.73554,8.97558,10.20029,11.80665h24.09006v-11.80665Z"/>
  </g>
  <path class="cls-7" d="M465.96092,545.75544c-.06986.14944-.11782.28617-.18551.45535-.14543.36355-1.80455,2.68153-3.22673,3.66417-1.63278,1.12815-3.27198,1.59965-4.28996,1.38146-.76765-.16452-3.90994-3.77612-5.80663-5.53472l-14.63037.01712v15.19965h135.85037v-15.19965l-107.71118.01661Z"/>
  <g>
    <line class="cls-3" x1="723.6281" y1="517.11336" x2="937.9113" y2="517.11336"/>
    <polyline class="cls-3" points="916.03561 495.28128 937.9199 517.1123 916.03771 538.9454"/>
  </g>
  <g>
    <line class="cls-3" x1="1229.58016" y1="517.11336" x2="1454.44844" y2="517.11336"/>
    <polyline class="cls-3" points="1432.57275 495.28128 1454.45705 517.1123 1432.57485 538.9454"/>
  </g>
  <g>
    <path class="cls-4" d="M290.32179,751.344h-6.85659l-13.34749-21.89537v21.89537h-6.85659v-33.2773h6.85659l13.37034,21.94108v-21.94108h6.83373v33.2773Z"/>
    <path class="cls-4" d="M307.25756,751.80111c-3.62637,0-6.57978-1.11229-8.85515-3.33687-2.28045-2.22458-3.41814-5.18815-3.41814-8.89071v-.63995c0-2.48361.47996-4.70311,1.43988-6.66105.95992-1.95794,2.31854-3.46639,4.08094-4.52535,1.75732-1.05896,3.76604-1.58971,6.0211-1.58971,3.38258,0,6.04649,1.06658,7.98665,3.19974,1.94524,2.13316,2.91532,5.15768,2.91532,9.07355v2.69692h-15.74729c.21332,1.61511.8558,2.91024,1.93254,3.8854,1.07166.97516,2.43282,1.46274,4.0784,1.46274,2.54456,0,4.53297-.92183,5.96523-2.76549l3.24545,3.63399c-.9904,1.40179-2.33124,2.49631-4.02253,3.27846-1.69129.7847-3.56543,1.17832-5.6224,1.17832ZM306.50334,731.48276c-1.31037,0-2.37441.44441-3.18958,1.33069-.81517.88882-1.33576,2.15856-1.56432,3.81175h9.18783v-.52821c-.03047-1.47036-.42663-2.6055-1.18848-3.40798-.76184-.80501-1.84366-1.20625-3.24545-1.20625Z"/>
    <path class="cls-4" d="M320.21651,738.79645c0-3.79398.90151-6.84897,2.70962-9.16497,1.80303-2.316,4.23839-3.474,7.301-3.474,2.71216,0,4.82247.92945,6.33092,2.78835l.27426-2.33124h5.98809v23.90663c0,2.16363-.49266,4.04539-1.4729,5.64526-.98532,1.59987-2.36679,2.81882-4.1495,3.65685s-3.87016,1.25704-6.26235,1.25704c-1.81319,0-3.58066-.36315-5.30243-1.0869s-3.02452-1.65574-3.90825-2.7985l2.92548-4.02253c1.64558,1.84366,3.64161,2.76549,5.98809,2.76549,1.75224,0,3.11594-.4698,4.0911-1.40433.97516-.93961,1.46274-2.26775,1.46274-3.98952v-1.32561c-1.52369,1.72177-3.52733,2.58265-6.01094,2.58265-2.97119,0-5.37607-1.16054-7.20957-3.48416-1.83858-2.32362-2.75533-5.40655-2.75533-9.24623v-.27426ZM326.82169,739.26625c0,2.24998.44949,4.01491,1.34846,5.29227s2.13316,1.9173,3.70256,1.9173c2.01127,0,3.45115-.75676,4.31965-2.27283v-10.44741c-.88374-1.51607-2.30838-2.27283-4.27394-2.27283-1.58463,0-2.83152.65011-3.73557,1.95286-.90913,1.30021-1.36116,3.24291-1.36116,5.83064Z"/>
    <path class="cls-4" d="M346.86578,738.75074c0-2.45313.47234-4.63962,1.41703-6.55947s2.30331-3.40544,4.0784-4.45678,3.83715-1.57701,6.18363-1.57701c3.33687,0,6.05919,1.02087,8.1695,3.06261,2.11031,2.04174,3.28862,4.81485,3.53241,8.31933l.04571,1.69129c0,3.79398-1.05896,6.83881-3.17689,9.13196-2.11792,2.29315-4.9596,3.43845-8.52502,3.43845s-6.41218-1.14276-8.53518-3.42829c-2.12808-2.28553-3.18958-5.39385-3.18958-9.32496v-.29712ZM353.47096,739.22054c0,2.34902.44187,4.14697,1.32561,5.38877.88374,1.24434,2.1484,1.86652,3.79398,1.86652,1.59987,0,2.84929-.61455,3.74827-1.84366.89897-1.22657,1.34846-3.19212,1.34846-5.89413,0-2.30331-.44949-4.08856-1.34846-5.35576s-2.16363-1.89953-3.79398-1.89953c-1.61511,0-2.86453.62979-3.74827,1.88937-.88374,1.25704-1.32561,3.20736-1.32561,5.84841Z"/>
    <path class="cls-4" d="M382.26862,720.53507v6.07951h4.22823v4.84532h-4.22823v12.34186c0,.91421.17522,1.5694.52567,1.96555s1.02087.59424,2.01127.59424c.73137,0,1.37894-.05333,1.9427-.15999v5.00531c-1.29513.39616-2.62836.59424-3.99968.59424-4.63201,0-6.99372-2.33886-7.08514-7.01657v-13.32463h-3.61114v-4.84532h3.61114v-6.07951h6.60518Z"/>
    <path class="cls-4" d="M390.13084,720.2151c0-.9904.33267-1.80557.99294-2.44552.66534-.63995,1.56686-.95992,2.70962-.95992,1.12753,0,2.0265.31997,2.69692.95992s1.00563,1.45512,1.00563,2.44552c0,1.00563-.34029,1.82842-1.01833,2.46837s-1.57194.95992-2.68423.95992-2.00873-.31997-2.68423-.95992c-.68058-.63995-1.01833-1.46274-1.01833-2.46837ZM397.14741,751.344h-6.62803v-24.72942h6.62803v24.72942Z"/>
    <path class="cls-4" d="M416.91724,751.344c-.30474-.59424-.52567-1.33323-.6628-2.21696-1.59987,1.78271-3.6797,2.67407-6.23949,2.67407-2.42266,0-4.43139-.7009-6.02364-2.10269s-2.38711-3.16927-2.38711-5.30243c0-2.62074.97008-4.63201,2.91532-6.0338,1.94016-1.40179,4.74882-2.11031,8.4209-2.12554h3.03975v-1.41703c0-1.14276-.29458-2.05698-.8812-2.74263s-1.51099-1.02849-2.77565-1.02849c-1.11229,0-1.98587.26665-2.6182.79994s-.94722,1.26466-.94722,2.19411h-6.60518c0-1.43226.44187-2.75787,1.32561-3.97682s2.13316-2.17379,3.74827-2.86707,3.42829-1.04119,5.43956-1.04119c3.04737,0,5.46495.76692,7.25782,2.29569,1.78779,1.53384,2.68423,3.68478,2.68423,6.45789v10.71913c.01524,2.34648.34283,4.12157.98278,5.32528v.38854h-6.67374ZM411.45482,746.75009c.97516,0,1.87413-.21586,2.69692-.65265.82279-.43171,1.43226-1.01579,1.82842-1.74716v-4.25108h-2.46837c-3.3064,0-5.06626,1.14276-5.27957,3.42829l-.02286.38854c0,.82279.2895,1.50083.8685,2.03412s1.37132.79994,2.37695.79994Z"/>
    <path class="cls-4" d="M435.59001,720.53507v6.07951h4.22823v4.84532h-4.22823v12.34186c0,.91421.17522,1.5694.52567,1.96555s1.02087.59424,2.01127.59424c.73137,0,1.37894-.05333,1.9427-.15999v5.00531c-1.29513.39616-2.62836.59424-3.99968.59424-4.63201,0-6.99372-2.33886-7.08514-7.01657v-13.32463h-3.61114v-4.84532h3.61114v-6.07951h6.60518Z"/>
    <path class="cls-4" d="M454.87987,751.80111c-3.62637,0-6.57978-1.11229-8.85515-3.33687-2.28045-2.22458-3.41814-5.18815-3.41814-8.89071v-.63995c0-2.48361.47996-4.70311,1.43988-6.66105s2.31854-3.46639,4.08094-4.52535c1.75732-1.05896,3.76604-1.58971,6.0211-1.58971,3.38258,0,6.04649,1.06658,7.98665,3.19974,1.94524,2.13316,2.91532,5.15768,2.91532,9.07355v2.69692h-15.74729c.21332,1.61511.8558,2.91024,1.93254,3.8854,1.07166.97516,2.43282,1.46274,4.0784,1.46274,2.54456,0,4.53297-.92183,5.96523-2.76549l3.24545,3.63399c-.9904,1.40179-2.33124,2.49631-4.02253,3.27846-1.69129.7847-3.56543,1.17832-5.6224,1.17832ZM454.12565,731.48276c-1.31037,0-2.37441.44441-3.18958,1.33069-.81517.88882-1.33576,2.15856-1.56432,3.81175h9.18783v-.52821c-.03047-1.47036-.42663-2.6055-1.18848-3.40798-.76184-.80501-1.84366-1.20625-3.24545-1.20625Z"/>
    <path class="cls-4" d="M467.77026,738.79645c0-3.85493.86342-6.92515,2.59535-9.21068,1.72684-2.28553,4.09364-3.42829,7.0953-3.42829,2.40742,0,4.39583.89897,5.96523,2.69692v-12.61612h6.62803v35.10572h-5.96523l-.31997-2.62836c-1.64558,2.05698-3.7635,3.08546-6.35377,3.08546-2.91024,0-5.24656-1.1453-7.00388-3.43845-1.7624-2.29315-2.64106-5.48273-2.64106-9.56621ZM474.37543,739.26625c0,2.32616.40378,4.10887,1.21133,5.35068.80755,1.23926,1.98079,1.8589,3.51971,1.8589,2.04174,0,3.48162-.86342,4.31965-2.59535v-9.80238c-.82279-1.72938-2.24744-2.59535-4.27394-2.59535-3.1845,0-4.77676,2.59535-4.77676,7.7835Z"/>
    <path class="cls-4" d="M331.22768,823.11469h-8.44122v-32.57894l-10.07664,3.11086v-6.80326l17.61127-6.30806h.90659v42.5794Z"/>
    <path class="cls-4" d="M364.78178,806.11797c-2.19919,2.16109-4.76914,3.24291-7.70985,3.24291-3.75589,0-6.76517-1.29005-9.02276-3.87016s-3.38766-6.05919-3.38766-10.44233c0-2.78327.60947-5.33798,1.82588-7.66414s2.91532-4.13681,5.09419-5.43194c2.18141-1.29513,4.63454-1.9427,7.3594-1.9427,2.80358,0,5.29735.7009,7.47622,2.10269,2.18141,1.40179,3.87524,3.41814,5.08403,6.04395,1.20625,2.6309,1.81827,5.63764,1.83858,9.0253v3.12356c0,7.08768-1.7624,12.65675-5.28719,16.70468-3.52225,4.05047-8.5174,6.21156-14.98037,6.48582l-2.07475.02793v-7.03689l1.86905-.03047c7.34163-.33013,11.31337-3.7762,11.91522-10.33821ZM359.14669,802.90554c1.3637,0,2.53694-.35045,3.51971-1.05134s1.72684-1.54908,2.2322-2.53948v-3.47654c0-2.86199-.54345-5.08149-1.63542-6.65851-1.08944-1.57701-2.54963-2.36425-4.37806-2.36425-1.69637,0-3.088.772-4.17744,2.32108-1.08944,1.54654-1.63542,3.48924-1.63542,5.82556,0,2.316.53075,4.22061,1.59225,5.70874,1.0615,1.49067,2.55471,2.23474,4.48218,2.23474Z"/>
    <path class="cls-4" d="M399.09519,806.11797c-2.19919,2.16109-4.76914,3.24291-7.70985,3.24291-3.75589,0-6.76517-1.29005-9.02276-3.87016-2.25759-2.58011-3.38766-6.05919-3.38766-10.44233,0-2.78327.60947-5.33798,1.82588-7.66414s2.91532-4.13681,5.09419-5.43194c2.18141-1.29513,4.63454-1.9427,7.3594-1.9427,2.80358,0,5.29735.7009,7.47622,2.10269,2.18141,1.40179,3.87524,3.41814,5.08403,6.04395,1.20625,2.6309,1.81827,5.63764,1.83858,9.0253v3.12356c0,7.08768-1.7624,12.65675-5.28719,16.70468-3.52225,4.05047-8.5174,6.21156-14.98037,6.48582l-2.07475.02793v-7.03689l1.86905-.03047c7.34163-.33013,11.31337-3.7762,11.91522-10.33821ZM393.46009,802.90554c1.3637,0,2.53694-.35045,3.51971-1.05134s1.72684-1.54908,2.2322-2.53948v-3.47654c0-2.86199-.54345-5.08149-1.63542-6.65851-1.08944-1.57701-2.54963-2.36425-4.37806-2.36425-1.69637,0-3.088.772-4.17744,2.32108-1.08944,1.54654-1.63542,3.48924-1.63542,5.82556,0,2.316.53075,4.22061,1.59225,5.70874,1.0615,1.49067,2.55471,2.23474,4.48218,2.23474Z"/>
    <path class="cls-4" d="M442.81482,823.11469h-29.14811v-5.78239l13.75634-14.6604c1.88937-2.06459,3.28608-3.86508,4.19014-5.40401.90659-1.53638,1.35862-2.99658,1.35862-4.37806,0-1.88937-.47742-3.37496-1.43226-4.45424-.9523-1.08182-2.316-1.62019-4.08856-1.62019-1.90715,0-3.41052.65518-4.51011,1.97063-1.09959,1.31291-1.65066,3.04229-1.65066,5.18307h-8.46915c0-2.59027.61709-4.95452,1.85382-7.09784,1.23673-2.14078,2.98388-3.81937,5.24402-5.03578,2.25759-1.21641,4.81739-1.82588,7.67938-1.82588,4.3806,0,7.7835,1.05134,10.20616,3.15403,2.4252,2.10269,3.63653,5.07133,3.63653,8.90848,0,2.10269-.54599,4.24347-1.63542,6.42488-1.08944,2.17887-2.95849,4.72089-5.60716,7.62097l-9.66779,10.19092h18.28423v6.8058Z"/>
  </g>
  <g>
    <path class="cls-4" d="M861.2012,735.45958c0,3.27592-.579,6.14807-1.737,8.61644s-2.81882,4.37298-4.9723,5.71382c-2.15856,1.34084-4.62693,2.01127-7.41527,2.01127-2.75787,0-5.22116-.6628-7.3848-1.98841s-3.83969-3.21752-5.02816-5.68081c-1.18848-2.45821-1.78779-5.28973-1.80303-8.48947v-1.64558c0-3.27592.58916-6.15823,1.77255-8.652,1.17832-2.48869,2.84421-4.40091,5.00277-5.73414,2.15348-1.33323,4.62185-2.00111,7.39496-2.00111s5.2364.66788,7.39496,2.00111c2.15348,1.33323,3.81937,3.24545,5.00277,5.73414,1.17832,2.49377,1.77255,5.36845,1.77255,8.62914v1.48559ZM854.25319,733.95113c0-3.48924-.62471-6.14045-1.87413-7.95364s-3.03213-2.71978-5.34814-2.71978c-2.30077,0-4.0784.89644-5.32782,2.68677s-1.87921,4.41361-1.89445,7.87238v1.62273c0,3.39782.62471,6.0338,1.87413,7.90793,1.24942,1.87413,3.04737,2.8112,5.39385,2.8112,2.30077,0,4.06824-.90405,5.30243-2.70708,1.23419-1.80811,1.8589-4.439,1.87413-7.89777v-1.62273Z"/>
    <path class="cls-4" d="M888.00791,739.20785c0,3.80921-.86342,6.86167-2.59027,9.15481-1.73192,2.29315-4.06824,3.43845-7.00896,3.43845-2.49884,0-4.51519-.8685-6.05411-2.6055v11.6562h-6.60772v-34.23722h6.12522l.22855,2.42266c1.59987-1.91984,3.68732-2.87977,6.26235-2.87977,3.04737,0,5.41924,1.12753,7.11053,3.38258,1.69129,2.25506,2.5344,5.36337,2.5344,9.32496v.34283ZM881.40527,738.70503c0-2.30838-.4114-4.08856-1.22403-5.34306-.81771-1.25196-2.00111-1.87921-3.55527-1.87921-2.07221,0-3.49432.79486-4.2714,2.38457v10.15537c.80755,1.63542,2.2449,2.45313,4.31711,2.45313,3.15403,0,4.73358-2.59027,4.73358-7.7708Z"/>
    <path class="cls-4" d="M903.48348,751.80111c-3.62637,0-6.58232-1.11229-8.85769-3.33687-2.28045-2.22458-3.41814-5.18815-3.41814-8.89071v-.63995c0-2.48361.4825-4.70311,1.44242-6.66105.95992-1.95794,2.316-3.46639,4.0784-4.52535,1.75732-1.05896,3.76858-1.58971,6.02364-1.58971,3.38258,0,6.04395,1.06658,7.98411,3.19974,1.94524,2.13316,2.91532,5.15768,2.91532,9.07355v2.69692h-15.74475c.21332,1.61511.85326,2.91024,1.93,3.8854,1.07166.97516,2.43282,1.46274,4.0784,1.46274,2.54456,0,4.53551-.92183,5.96777-2.76549l3.24545,3.63399c-.9904,1.40179-2.33124,2.49631-4.02253,3.27846-1.69129.7847-3.56543,1.17832-5.6224,1.17832ZM902.72672,731.48276c-1.31037,0-2.37187.44441-3.18958,1.33069-.81263.88882-1.33576,2.15856-1.56432,3.81175h9.18783v-.52821c-.03047-1.47036-.42663-2.6055-1.18848-3.40798-.76184-.80501-1.84366-1.20625-3.24545-1.20625Z"/>
    <path class="cls-4" d="M923.47932,726.61458l.20824,2.85691c1.76748-2.20934,4.13427-3.31402,7.10546-3.31402,2.62074,0,4.57106.76946,5.85095,2.30838s1.93508,3.83969,1.96555,6.9023v15.97585h-6.60264v-15.85141c0-1.40687-.30474-2.4252-.91421-3.06007-.60947-.63233-1.62526-.94976-3.04229-.94976-1.8589,0-3.25053.79486-4.17998,2.38203v17.47922h-6.60772v-24.72942h6.21664Z"/>
    <path class="cls-4" d="M954.9993,751.80111c-3.62637,0-6.58232-1.11229-8.85769-3.33687-2.28045-2.22458-3.41814-5.18815-3.41814-8.89071v-.63995c0-2.48361.4825-4.70311,1.44242-6.66105s2.316-3.46639,4.0784-4.52535c1.75732-1.05896,3.76858-1.58971,6.02364-1.58971,3.38258,0,6.04395,1.06658,7.98411,3.19974,1.94524,2.13316,2.91532,5.15768,2.91532,9.07355v2.69692h-15.74475c.21332,1.61511.85326,2.91024,1.93,3.8854,1.07166.97516,2.43282,1.46274,4.0784,1.46274,2.54456,0,4.53551-.92183,5.96777-2.76549l3.24545,3.63399c-.9904,1.40179-2.33124,2.49631-4.02253,3.27846-1.69129.7847-3.56543,1.17832-5.6224,1.17832ZM954.24254,731.48276c-1.31037,0-2.37187.44441-3.18958,1.33069-.81263.88882-1.33576,2.15856-1.56432,3.81175h9.18783v-.52821c-.03047-1.47036-.42663-2.6055-1.18848-3.40798-.76184-.80501-1.84366-1.20625-3.24545-1.20625Z"/>
    <path class="cls-4" d="M967.88969,738.79645c0-3.85493.86342-6.92515,2.59535-9.21068,1.72684-2.28553,4.09364-3.42829,7.0953-3.42829,2.40742,0,4.39329.89897,5.96269,2.69692v-12.61612h6.62803v35.10572h-5.96269l-.31997-2.62836c-1.64558,2.05698-3.7635,3.08546-6.35377,3.08546-2.91024,0-5.24656-1.1453-7.00388-3.43845-1.7624-2.29315-2.64106-5.48273-2.64106-9.56621ZM974.49233,739.26625c0,2.32616.40632,4.10887,1.21387,5.35068.80755,1.23926,1.98079,1.8589,3.51971,1.8589,2.04174,0,3.47908-.86342,4.31711-2.59535v-9.80238c-.82279-1.72938-2.2449-2.59535-4.2714-2.59535-3.1845,0-4.77929,2.59535-4.77929,7.7835Z"/>
    <path class="cls-4" d="M1008.75494,751.344v-19.8841h-3.68224v-4.84532h3.68224v-2.10269c0-2.77311.79232-4.92658,2.38711-6.45535,1.58971-1.53384,3.81937-2.29823,6.6839-2.29823.91421,0,2.03666.14983,3.36227.45203l-.07111,5.07895c-.54853-.13713-1.21895-.2057-2.01127-.2057-2.48361,0-3.72287,1.17578-3.72287,3.52733v2.00365h4.91135v4.84532h-4.91135v19.8841h-6.62803Z"/>
    <path class="cls-4" d="M1022.69667,738.75074c0-2.45313.47234-4.63962,1.41703-6.55947s2.30077-3.40544,4.0784-4.45678c1.77255-1.05134,3.83461-1.57701,6.18109-1.57701,3.33687,0,6.05919,1.02087,8.17204,3.06261,2.10777,2.04174,3.28608,4.81485,3.52987,8.31933l.04571,1.69129c0,3.79398-1.05642,6.83881-3.17435,9.13196-2.11792,2.29315-4.96214,3.43845-8.52756,3.43845s-6.40964-1.14276-8.53264-3.42829c-2.12808-2.28553-3.18958-5.39385-3.18958-9.32496v-.29712ZM1029.29931,739.22054c0,2.34902.44187,4.14697,1.32561,5.38877.88374,1.24434,2.1484,1.86652,3.79398,1.86652,1.59987,0,2.84929-.61455,3.74827-1.84366.89897-1.22657,1.351-3.19212,1.351-5.89413,0-2.30331-.45203-4.08856-1.351-5.35576s-2.16363-1.89953-3.79398-1.89953c-1.61511,0-2.86453.62979-3.74827,1.88937-.88374,1.25704-1.32561,3.20736-1.32561,5.84841Z"/>
    <path class="cls-4" d="M1064.08506,732.80836c-.89897-.12189-1.69129-.18284-2.37695-.18284-2.49884,0-4.13427.84565-4.91135,2.53694v16.18154h-6.60772v-24.72942h6.24203l.18284,2.94833c1.32561-2.27029,3.15911-3.40544,5.50559-3.40544.73137,0,1.41703.09904,2.05698.29712l-.09142,6.35377Z"/>
    <path class="cls-4" d="M1096.61067,742.61328c0-1.29513-.45711-2.28807-1.37132-2.98135s-2.55979-1.42465-4.93674-2.19411-4.26124-1.52876-5.6478-2.27537c-3.77874-2.04174-5.66811-4.79199-5.66811-8.25076,0-1.79795.5079-3.40036,1.51861-4.81231,1.01579-1.40687,2.46837-2.509,4.3679-3.30132,1.89445-.79232,4.02761-1.18848,6.38932-1.18848,2.37695,0,4.49487.43171,6.35377,1.29005,1.8589.86342,3.30132,2.07729,4.32727,3.64669,1.03103,1.5694,1.544,3.35211,1.544,5.34814h-6.85659c0-1.52369-.47742-2.70708-1.43734-3.55527-.95992-.84311-2.31092-1.2672-4.04793-1.2672-1.67605,0-2.97627.35299-3.90571,1.06404-.92945.70597-1.39671,1.6405-1.39671,2.7985,0,1.08182.54345,1.98841,1.63542,2.71978,1.0869.73137,2.69185,1.41703,4.80977,2.05698,3.90064,1.17324,6.74485,2.62836,8.52756,4.36536s2.67153,3.90064,2.67153,6.4909c0,2.87977-1.0869,5.1399-3.26577,6.77532-2.17887,1.6405-5.11451,2.45821-8.80183,2.45821-2.55979,0-4.89103-.46726-6.99372-1.40687-2.10269-.93453-3.70764-2.2195-4.80977-3.84985-1.10721-1.63034-1.65574-3.51971-1.65574-5.66811h6.8769c0,3.67208,2.19411,5.50812,6.58232,5.50812,1.63034,0,2.90516-.33267,3.81937-.99294.91421-.66534,1.37132-1.58971,1.37132-2.77819Z"/>
    <path class="cls-4" d="M1107.64724,720.2151c0-.9904.33521-1.80557.99547-2.44552.66534-.63995,1.56432-.95992,2.70708-.95992,1.12753,0,2.0265.31997,2.69692.95992s1.00563,1.45512,1.00563,2.44552c0,1.00563-.34029,1.82842-1.01579,2.46837-.68058.63995-1.57448.95992-2.68677.95992s-2.00619-.31997-2.68169-.95992c-.68058-.63995-1.02087-1.46274-1.02087-2.46837ZM1114.66635,751.344h-6.62803v-24.72942h6.62803v24.72942Z"/>
    <path class="cls-4" d="M1119.14599,738.79645c0-3.79398.89897-6.84897,2.70708-9.16497,1.80303-2.316,4.24093-3.474,7.30353-3.474,2.71216,0,4.81993.92945,6.32838,2.78835l.27426-2.33124h5.98809v23.90663c0,2.16363-.49266,4.04539-1.4729,5.64526-.98532,1.59987-2.36679,2.81882-4.1495,3.65685s-3.87016,1.25704-6.26235,1.25704c-1.81319,0-3.58066-.36315-5.30243-1.0869s-3.02198-1.65574-3.90571-2.7985l2.92548-4.02253c1.64558,1.84366,3.64161,2.76549,5.98809,2.76549,1.75224,0,3.1134-.4698,4.08856-1.40433.97516-.93961,1.46274-2.26775,1.46274-3.98952v-1.32561c-1.52369,1.72177-3.52479,2.58265-6.0084,2.58265-2.97119,0-5.37861-1.16054-7.21211-3.48416-1.83858-2.32362-2.75279-5.40655-2.75279-9.24623v-.27426ZM1125.74863,739.26625c0,2.24998.45203,4.01491,1.351,5.29227.89897,1.27736,2.13316,1.9173,3.70256,1.9173,2.01127,0,3.44861-.75676,4.31711-2.27283v-10.44741c-.88374-1.51607-2.30584-2.27283-4.2714-2.27283-1.58463,0-2.83406.65011-3.73811,1.95286-.90913,1.30021-1.36116,3.24291-1.36116,5.83064Z"/>
    <path class="cls-4" d="M1152.90071,726.61458l.20824,2.85691c1.76748-2.20934,4.13427-3.31402,7.10546-3.31402,2.62074,0,4.57106.76946,5.85095,2.30838s1.93508,3.83969,1.96555,6.9023v15.97585h-6.60264v-15.85141c0-1.40687-.30474-2.4252-.91421-3.06007-.60947-.63233-1.62526-.94976-3.04229-.94976-1.8589,0-3.25053.79486-4.17998,2.38203v17.47922h-6.60772v-24.72942h6.21664Z"/>
    <path class="cls-4" d="M1187.36649,751.344c-.30474-.59424-.52313-1.33323-.66026-2.21696-1.59987,1.78271-3.68224,2.67407-6.24203,2.67407-2.42266,0-4.42885-.7009-6.02364-2.10269-1.58971-1.40179-2.38711-3.16927-2.38711-5.30243,0-2.62074.97008-4.63201,2.91532-6.0338,1.94016-1.40179,4.74882-2.11031,8.4209-2.12554h3.04229v-1.41703c0-1.14276-.29458-2.05698-.88374-2.74263-.58408-.68566-1.50845-1.02849-2.77311-1.02849-1.11229,0-1.98587.26665-2.62074.79994-.62979.53329-.94469,1.26466-.94469,2.19411h-6.60772c0-1.43226.44187-2.75787,1.32561-3.97682s2.13316-2.17379,3.74827-2.86707,3.42829-1.04119,5.43956-1.04119c3.04737,0,5.46495.76692,7.25782,2.29569,1.78779,1.53384,2.68677,3.68478,2.68677,6.45789v10.71913c.01524,2.34648.34029,4.12157.98024,5.32528v.38854h-6.67374ZM1181.90661,746.75009c.97516,0,1.87413-.21586,2.69692-.65265.82279-.43171,1.43226-1.01579,1.82842-1.74716v-4.25108h-2.46837c-3.3064,0-5.0688,1.14276-5.28211,3.42829l-.02032.38854c0,.82279.2895,1.50083.8685,2.03412s1.37132.79994,2.37695.79994Z"/>
    <path class="cls-4" d="M1206.0418,720.53507v6.07951h4.22569v4.84532h-4.22569v12.34186c0,.91421.17268,1.5694.52313,1.96555s1.02087.59424,2.01127.59424c.73137,0,1.38148-.05333,1.94524-.15999v5.00531c-1.29513.39616-2.6309.59424-4.00222.59424-4.63201,0-6.99372-2.33886-7.08514-7.01657v-13.32463h-3.61114v-4.84532h3.61114v-6.07951h6.60772Z"/>
    <path class="cls-4" d="M1228.75995,748.82992c-1.63034,1.98079-3.8854,2.97119-6.76517,2.97119-2.65121,0-4.67772-.76184-6.06935-2.28553-1.39671-1.52369-2.10777-3.75589-2.13824-6.6966v-16.2044h6.60772v15.99362c0,2.57757,1.17324,3.86762,3.51971,3.86762,2.23982,0,3.77874-.77708,4.61677-2.33378v-17.52747h6.62803v24.72942h-6.21664l-.18284-2.51408Z"/>
    <path class="cls-4" d="M1254.0379,732.80836c-.89897-.12189-1.69129-.18284-2.37695-.18284-2.49884,0-4.13935.84565-4.91643,2.53694v16.18154h-6.60264v-24.72942h6.23695l.18284,2.94833c1.32561-2.27029,3.16419-3.40544,5.51066-3.40544.73137,0,1.41703.09904,2.05698.29712l-.09142,6.35377Z"/>
    <path class="cls-4" d="M1268.16247,751.80111c-3.62637,0-6.58232-1.11229-8.85769-3.33687-2.28045-2.22458-3.41814-5.18815-3.41814-8.89071v-.63995c0-2.48361.4825-4.70311,1.44242-6.66105s2.316-3.46639,4.0784-4.52535c1.75732-1.05896,3.76858-1.58971,6.02364-1.58971,3.38258,0,6.04395,1.06658,7.98411,3.19974,1.94524,2.13316,2.91532,5.15768,2.91532,9.07355v2.69692h-15.74475c.21332,1.61511.85326,2.91024,1.93,3.8854,1.07166.97516,2.43282,1.46274,4.0784,1.46274,2.54456,0,4.53551-.92183,5.96777-2.76549l3.24545,3.63399c-.9904,1.40179-2.33124,2.49631-4.02253,3.27846-1.69129.7847-3.56543,1.17832-5.6224,1.17832ZM1267.40571,731.48276c-1.31037,0-2.37187.44441-3.18958,1.33069-.81263.88882-1.33576,2.15856-1.56432,3.81175h9.18783v-.52821c-.03047-1.47036-.42663-2.6055-1.18848-3.40798-.76184-.80501-1.84366-1.20625-3.24545-1.20625Z"/>
    <path class="cls-4" d="M1009.98405,823.11469h-8.44122v-32.57894l-10.07664,3.11086v-6.80326l17.60873-6.30806h.90913v42.5794Z"/>
    <path class="cls-4" d="M1043.53561,806.11797c-2.19919,2.16109-4.76914,3.24291-7.70985,3.24291-3.75335,0-6.76517-1.29005-9.02022-3.87016-2.26013-2.58011-3.38766-6.05919-3.38766-10.44233,0-2.78327.60947-5.33798,1.82334-7.66414,1.21895-2.32616,2.91532-4.13681,5.09419-5.43194,2.18395-1.29513,4.63708-1.9427,7.3594-1.9427,2.80358,0,5.29735.7009,7.47622,2.10269,2.18395,1.40179,3.87524,3.41814,5.08403,6.04395,1.20879,2.6309,1.81827,5.63764,1.83858,9.0253v3.12356c0,7.08768-1.7624,12.65675-5.28719,16.70468-3.51971,4.05047-8.5174,6.21156-14.97783,6.48582l-2.07729.02793v-7.03689l1.86905-.03047c7.34417-.33013,11.31591-3.7762,11.91522-10.33821ZM1037.90305,802.90554c1.36116,0,2.5344-.35045,3.51971-1.05134.98024-.7009,1.72684-1.54908,2.22966-2.53948v-3.47654c0-2.86199-.54345-5.08149-1.63542-6.65851-1.0869-1.57701-2.54963-2.36425-4.37806-2.36425-1.69637,0-3.088.772-4.1749,2.32108-1.09197,1.54654-1.63542,3.48924-1.63542,5.82556,0,2.316.52821,4.22061,1.58971,5.70874,1.0615,1.49067,2.55471,2.23474,4.48472,2.23474Z"/>
    <path class="cls-4" d="M1077.84902,806.11797c-2.19919,2.16109-4.76914,3.24291-7.70985,3.24291-3.75335,0-6.76517-1.29005-9.02022-3.87016-2.26013-2.58011-3.38766-6.05919-3.38766-10.44233,0-2.78327.60947-5.33798,1.82334-7.66414,1.21895-2.32616,2.91532-4.13681,5.09419-5.43194,2.18395-1.29513,4.63708-1.9427,7.3594-1.9427,2.80358,0,5.29735.7009,7.47622,2.10269,2.18395,1.40179,3.87524,3.41814,5.08403,6.04395,1.20879,2.6309,1.81827,5.63764,1.83858,9.0253v3.12356c0,7.08768-1.7624,12.65675-5.28719,16.70468-3.51971,4.05047-8.5174,6.21156-14.97783,6.48582l-2.07729.02793v-7.03689l1.86905-.03047c7.34417-.33013,11.31591-3.7762,11.91522-10.33821ZM1072.21646,802.90554c1.36116,0,2.5344-.35045,3.51971-1.05134.98024-.7009,1.72684-1.54908,2.22966-2.53948v-3.47654c0-2.86199-.54345-5.08149-1.63542-6.65851-1.0869-1.57701-2.54963-2.36425-4.37806-2.36425-1.69637,0-3.088.772-4.1749,2.32108-1.09197,1.54654-1.63542,3.48924-1.63542,5.82556,0,2.316.52821,4.22061,1.58971,5.70874,1.0615,1.49067,2.55471,2.23474,4.48472,2.23474Z"/>
    <path class="cls-4" d="M1101.00905,798.11608h4.49487c2.14332,0,3.73303-.53583,4.76406-1.60495,1.03103-1.07166,1.544-2.49377,1.544-4.26632,0-1.71161-.5079-3.04483-1.52876-3.99968-1.02595-.95484-2.43282-1.42973-4.22061-1.42973-1.61511,0-2.97119.44187-4.06316,1.32815-1.0869.88628-1.63542,2.0392-1.63542,3.46131h-8.43614c0-2.2195.59932-4.21045,1.79287-5.97285,1.19863-1.7624,2.87469-3.13879,5.02308-4.13427,2.15348-.9904,4.52535-1.48813,7.11053-1.48813,4.49995,0,8.02475,1.07674,10.57438,3.22767s3.82445,5.11451,3.82445,8.89071c0,1.94778-.59424,3.73811-1.78271,5.37353-1.1834,1.63542-2.74263,2.89246-4.67264,3.76858,2.39727.8558,4.18506,2.14078,5.36337,3.85493s1.7624,3.73811,1.7624,6.07443c0,3.7762-1.3764,6.8058-4.12919,9.08117-2.75787,2.28045-6.39948,3.41814-10.94006,3.41814-4.24093,0-7.70985-1.11991-10.40677-3.35719-2.69692-2.23982-4.04793-5.20085-4.04793-8.87801h8.44122c0,1.59479.59932,2.90008,1.79795,3.91079,1.19355,1.01325,2.67153,1.51861,4.42377,1.51861,2.00619,0,3.57558-.52821,4.71327-1.58971,1.14276-1.0615,1.71161-2.46837,1.71161-4.22061,0-4.24347-2.33632-6.36647-7.00896-6.36647h-4.46948v-6.6001Z"/>
  </g>
  <g>
    <path class="cls-4" d="M1452.82813,736.87661h-13.16465v8.95927h15.45018v5.50812h-22.30676v-33.2773h22.26105v5.55384h-15.40446v7.93079h13.16465v5.32528Z"/>
    <path class="cls-4" d="M1464.78144,726.61458l.2057,2.85691c1.76748-2.20934,4.13681-3.31402,7.10799-3.31402,2.62074,0,4.57106.76946,5.85095,2.30838s1.93508,3.83969,1.96555,6.9023v15.97585h-6.60518v-15.85141c0-1.40687-.30474-2.4252-.91421-3.06007-.60947-.63233-1.62273-.94976-3.03975-.94976-1.8589,0-3.25307.79486-4.18252,2.38203v17.47922h-6.60518v-24.72942h6.21664Z"/>
    <path class="cls-4" d="M1492.82488,720.53507v6.07951h4.22823v4.84532h-4.22823v12.34186c0,.91421.17522,1.5694.52567,1.96555s1.02087.59424,2.01127.59424c.73137,0,1.37894-.05333,1.9427-.15999v5.00531c-1.29513.39616-2.62836.59424-3.99968.59424-4.63201,0-6.99372-2.33886-7.08514-7.01657v-13.32463h-3.61114v-4.84532h3.61114v-6.07951h6.60518Z"/>
    <path class="cls-4" d="M1512.11475,751.80111c-3.62637,0-6.57978-1.11229-8.85515-3.33687-2.28045-2.22458-3.41814-5.18815-3.41814-8.89071v-.63995c0-2.48361.47996-4.70311,1.43988-6.66105s2.31854-3.46639,4.08094-4.52535c1.75732-1.05896,3.76604-1.58971,6.0211-1.58971,3.38258,0,6.04649,1.06658,7.98665,3.19974,1.94524,2.13316,2.91532,5.15768,2.91532,9.07355v2.69692h-15.74729c.21332,1.61511.8558,2.91024,1.93254,3.8854,1.07166.97516,2.43282,1.46274,4.0784,1.46274,2.54456,0,4.53297-.92183,5.96523-2.76549l3.24545,3.63399c-.9904,1.40179-2.33124,2.49631-4.02253,3.27846-1.69129.7847-3.56543,1.17832-5.6224,1.17832ZM1511.36052,731.48276c-1.31037,0-2.37441.44441-3.18958,1.33069-.81517.88882-1.33576,2.15856-1.56432,3.81175h9.18783v-.52821c-.03047-1.47036-.42663-2.6055-1.18848-3.40798-.76184-.80501-1.84366-1.20625-3.24545-1.20625Z"/>
    <path class="cls-4" d="M1539.92963,732.80836c-.89897-.12189-1.69129-.18284-2.37695-.18284-2.49884,0-4.13681.84565-4.91389,2.53694v16.18154h-6.60518v-24.72942h6.23949l.18284,2.94833c1.32561-2.27029,3.16165-3.40544,5.50812-3.40544.73137,0,1.41703.09904,2.05698.29712l-.09142,6.35377Z"/>
    <path class="cls-4" d="M1554.0542,751.80111c-3.62637,0-6.57978-1.11229-8.85515-3.33687-2.28045-2.22458-3.41814-5.18815-3.41814-8.89071v-.63995c0-2.48361.47996-4.70311,1.43988-6.66105.95992-1.95794,2.31854-3.46639,4.08094-4.52535,1.75732-1.05896,3.76604-1.58971,6.0211-1.58971,3.38258,0,6.04649,1.06658,7.98665,3.19974,1.94524,2.13316,2.91532,5.15768,2.91532,9.07355v2.69692h-15.74729c.21332,1.61511.8558,2.91024,1.93254,3.8854,1.07166.97516,2.43282,1.46274,4.0784,1.46274,2.54456,0,4.53297-.92183,5.96523-2.76549l3.24545,3.63399c-.9904,1.40179-2.33124,2.49631-4.02253,3.27846-1.69129.7847-3.56543,1.17832-5.6224,1.17832ZM1553.29998,731.48276c-1.31037,0-2.37441.44441-3.18958,1.33069-.81517.88882-1.33576,2.15856-1.56432,3.81175h9.18783v-.52821c-.03047-1.47036-.42663-2.6055-1.18848-3.40798-.76184-.80501-1.84366-1.20625-3.24545-1.20625Z"/>
    <path class="cls-4" d="M1566.94458,738.79645c0-3.85493.86342-6.92515,2.59535-9.21068,1.72684-2.28553,4.09364-3.42829,7.0953-3.42829,2.40742,0,4.39583.89897,5.96523,2.69692v-12.61612h6.62803v35.10572h-5.96523l-.31997-2.62836c-1.64558,2.05698-3.7635,3.08546-6.35377,3.08546-2.91024,0-5.24656-1.1453-7.00388-3.43845-1.7624-2.29315-2.64106-5.48273-2.64106-9.56621ZM1573.54976,739.26625c0,2.32616.40378,4.10887,1.21133,5.35068.80755,1.23926,1.98079,1.8589,3.51971,1.8589,2.04174,0,3.48162-.86342,4.31965-2.59535v-9.80238c-.82279-1.72938-2.24744-2.59535-4.27394-2.59535-3.1845,0-4.77676,2.59535-4.77676,7.7835Z"/>
    <path class="cls-4" d="M1605.95856,720.2151c0-.9904.33267-1.80557.99294-2.44552.66534-.63995,1.56686-.95992,2.70962-.95992,1.12753,0,2.0265.31997,2.69692.95992s1.00563,1.45512,1.00563,2.44552c0,1.00563-.34029,1.82842-1.01833,2.46837s-1.57194.95992-2.68423.95992-2.00873-.31997-2.68423-.95992c-.68058-.63995-1.01833-1.46274-1.01833-2.46837ZM1612.97514,751.344h-6.62803v-24.72942h6.62803v24.72942Z"/>
    <path class="cls-4" d="M1624.4942,726.61458l.2057,2.85691c1.76748-2.20934,4.13681-3.31402,7.10799-3.31402,2.62074,0,4.57106.76946,5.85095,2.30838s1.93508,3.83969,1.96555,6.9023v15.97585h-6.60518v-15.85141c0-1.40687-.30474-2.4252-.91421-3.06007-.60947-.63233-1.62273-.94976-3.03975-.94976-1.8589,0-3.25307.79486-4.18252,2.38203v17.47922h-6.60518v-24.72942h6.21664Z"/>
    <path class="cls-4" d="M1652.53764,720.53507v6.07951h4.22823v4.84532h-4.22823v12.34186c0,.91421.17522,1.5694.52567,1.96555s1.02087.59424,2.01127.59424c.73137,0,1.37894-.05333,1.9427-.15999v5.00531c-1.29513.39616-2.62836.59424-3.99968.59424-4.63201,0-6.99372-2.33886-7.08514-7.01657v-13.32463h-3.61114v-4.84532h3.61114v-6.07951h6.60518Z"/>
    <path class="cls-4" d="M1658.73142,738.75074c0-2.45313.47234-4.63962,1.41703-6.55947s2.30331-3.40544,4.0784-4.45678,3.83715-1.57701,6.18363-1.57701c3.33687,0,6.05919,1.02087,8.1695,3.06261,2.11031,2.04174,3.28862,4.81485,3.53241,8.31933l.04571,1.69129c0,3.79398-1.05896,6.83881-3.17689,9.13196-2.11792,2.29315-4.9596,3.43845-8.52502,3.43845s-6.41218-1.14276-8.53518-3.42829c-2.12808-2.28553-3.18958-5.39385-3.18958-9.32496v-.29712ZM1665.3366,739.22054c0,2.34902.44187,4.14697,1.32561,5.38877.88374,1.24434,2.1484,1.86652,3.79398,1.86652,1.59987,0,2.84929-.61455,3.74827-1.84366.89897-1.22657,1.34846-3.19212,1.34846-5.89413,0-2.30331-.44949-4.08856-1.34846-5.35576s-2.16363-1.89953-3.79398-1.89953c-1.61511,0-2.86453.62979-3.74827,1.88937-.88374,1.25704-1.32561,3.20736-1.32561,5.84841Z"/>
    <path class="cls-4" d="M1718.33802,737.74511h-13.16465v13.5989h-6.85659v-33.2773h21.66681v5.55384h-14.81023v8.59359h13.16465v5.53098Z"/>
    <path class="cls-4" d="M1722.01772,738.75074c0-2.45313.47234-4.63962,1.41703-6.55947s2.30331-3.40544,4.0784-4.45678,3.83715-1.57701,6.18363-1.57701c3.33687,0,6.05919,1.02087,8.1695,3.06261,2.11031,2.04174,3.28862,4.81485,3.53241,8.31933l.04571,1.69129c0,3.79398-1.05896,6.83881-3.17689,9.13196-2.11792,2.29315-4.9596,3.43845-8.52502,3.43845s-6.41218-1.14276-8.53518-3.42829c-2.12808-2.28553-3.18958-5.39385-3.18958-9.32496v-.29712ZM1728.6229,739.22054c0,2.34902.44187,4.14697,1.32561,5.38877.88374,1.24434,2.1484,1.86652,3.79398,1.86652,1.59987,0,2.84929-.61455,3.74827-1.84366.89897-1.22657,1.34846-3.19212,1.34846-5.89413,0-2.30331-.44949-4.08856-1.34846-5.35576-.89897-1.2672-2.16363-1.89953-3.79398-1.89953-1.61511,0-2.86453.62979-3.74827,1.88937-.88374,1.25704-1.32561,3.20736-1.32561,5.84841Z"/>
    <path class="cls-4" d="M1763.40865,732.80836c-.89897-.12189-1.69129-.18284-2.37695-.18284-2.49884,0-4.13681.84565-4.91389,2.53694v16.18154h-6.60518v-24.72942h6.23949l.18284,2.94833c1.32561-2.27029,3.16165-3.40544,5.50812-3.40544.73137,0,1.41703.09904,2.05698.29712l-.09142,6.35377Z"/>
    <path class="cls-4" d="M1776.43616,746.47583c1.21895,0,2.20934-.33521,2.97119-1.00563s1.158-1.56178,1.18848-2.67407h6.19378c-.01524,1.67605-.47234,3.2099-1.37132,4.60661-.89897,1.39163-2.13062,2.47599-3.6924,3.24545-1.56178.76692-3.28608,1.15292-5.17545,1.15292-3.53495,0-6.3233-1.12245-8.36504-3.37242-2.04174-2.2449-3.06261-5.35068-3.06261-9.31226v-.43425c0-3.80921,1.01325-6.84897,3.03975-9.11926s4.80723-3.40544,8.34218-3.40544c3.09308,0,5.57161.87866,7.44067,2.64106,1.86398,1.75732,2.81374,4.10125,2.84421,7.02673h-6.19378c-.03047-1.28751-.42663-2.33124-1.18848-3.13625s-1.76748-1.20625-3.0169-1.20625c-1.53892,0-2.702.56122-3.4867,1.68113-.7847,1.12245-1.17578,2.94325-1.17578,5.45987v.6882c0,2.54709.38854,4.37806,1.16562,5.49289s1.95794,1.67098,3.54257,1.67098Z"/>
    <path class="cls-4" d="M1801.94266,751.80111c-3.62637,0-6.57978-1.11229-8.85515-3.33687-2.28045-2.22458-3.41814-5.18815-3.41814-8.89071v-.63995c0-2.48361.47996-4.70311,1.43988-6.66105.95992-1.95794,2.31854-3.46639,4.08094-4.52535,1.75732-1.05896,3.76604-1.58971,6.0211-1.58971,3.38258,0,6.04649,1.06658,7.98665,3.19974,1.94524,2.13316,2.91532,5.15768,2.91532,9.07355v2.69692h-15.74729c.21332,1.61511.8558,2.91024,1.93254,3.8854,1.07166.97516,2.43282,1.46274,4.0784,1.46274,2.54456,0,4.53297-.92183,5.96523-2.76549l3.24545,3.63399c-.9904,1.40179-2.33124,2.49631-4.02253,3.27846-1.69129.7847-3.56543,1.17832-5.6224,1.17832ZM1801.18844,731.48276c-1.31037,0-2.37441.44441-3.18958,1.33069-.81517.88882-1.33576,2.15856-1.56432,3.81175h9.18783v-.52821c-.03047-1.47036-.42663-2.6055-1.18848-3.40798-.76184-.80501-1.84366-1.20625-3.24545-1.20625Z"/>
    <path class="cls-4" d="M1576.34573,823.11469h-8.44122v-32.57894l-10.07664,3.11086v-6.80326l17.61127-6.30806h.90659v42.5794Z"/>
    <path class="cls-4" d="M1609.89983,806.11797c-2.19919,2.16109-4.76914,3.24291-7.70985,3.24291-3.75589,0-6.76517-1.29005-9.02276-3.87016s-3.38766-6.05919-3.38766-10.44233c0-2.78327.60947-5.33798,1.82588-7.66414s2.91532-4.13681,5.09419-5.43194c2.18141-1.29513,4.63454-1.9427,7.3594-1.9427,2.80358,0,5.29735.7009,7.47622,2.10269,2.18141,1.40179,3.87524,3.41814,5.08403,6.04395,1.20625,2.6309,1.81827,5.63764,1.83858,9.0253v3.12356c0,7.08768-1.7624,12.65675-5.28719,16.70468-3.52225,4.05047-8.5174,6.21156-14.98037,6.48582l-2.07475.02793v-7.03689l1.86905-.03047c7.34163-.33013,11.31337-3.7762,11.91522-10.33821ZM1604.26473,802.90554c1.3637,0,2.53694-.35045,3.51971-1.05134s1.72684-1.54908,2.2322-2.53948v-3.47654c0-2.86199-.54345-5.08149-1.63542-6.65851-1.08944-1.57701-2.54963-2.36425-4.37806-2.36425-1.69637,0-3.088.772-4.17744,2.32108-1.08944,1.54654-1.63542,3.48924-1.63542,5.82556,0,2.316.53075,4.22061,1.59225,5.70874,1.0615,1.49067,2.55471,2.23474,4.48218,2.23474Z"/>
    <path class="cls-4" d="M1644.21324,806.11797c-2.19919,2.16109-4.76914,3.24291-7.70985,3.24291-3.75589,0-6.76517-1.29005-9.02276-3.87016s-3.38766-6.05919-3.38766-10.44233c0-2.78327.60947-5.33798,1.82588-7.66414s2.91532-4.13681,5.09419-5.43194c2.18141-1.29513,4.63454-1.9427,7.3594-1.9427,2.80358,0,5.29735.7009,7.47622,2.10269,2.18141,1.40179,3.87524,3.41814,5.08403,6.04395,1.20625,2.6309,1.81827,5.63764,1.83858,9.0253v3.12356c0,7.08768-1.7624,12.65675-5.28719,16.70468-3.52225,4.05047-8.5174,6.21156-14.98037,6.48582l-2.07475.02793v-7.03689l1.86905-.03047c7.34163-.33013,11.31337-3.7762,11.91522-10.33821ZM1638.57814,802.90554c1.3637,0,2.53694-.35045,3.51971-1.05134s1.72684-1.54908,2.2322-2.53948v-3.47654c0-2.86199-.54345-5.08149-1.63542-6.65851-1.08944-1.57701-2.54963-2.36425-4.37806-2.36425-1.69637,0-3.088.772-4.17744,2.32108-1.08944,1.54654-1.63542,3.48924-1.63542,5.82556,0,2.316.53075,4.22061,1.59225,5.70874,1.0615,1.49067,2.55471,2.23474,4.48218,2.23474Z"/>
    <path class="cls-4" d="M1687.69923,785.30442l-16.44311,37.81027h-8.90594l16.47104-35.7152h-21.14368v-6.8058h30.02169v4.71073Z"/>
  </g>
</svg>