<?xml version="1.0" encoding="UTF-8"?>
<svg id="Ebene_2" xmlns="http://www.w3.org/2000/svg" version="1.1" viewBox="0 0 1920 869.5">
  <!-- Generator: Adobe Illustrator 29.0.1, SVG Export Plug-In . SVG Version: 2.1.0 Build 192)  -->
  <defs>
    <style>
      .st0 {
        fill: none;
        stroke: #7996a5;
        stroke-width: 4.8px;
      }

      .st0, .st1, .st2, .st3, .st4, .st5, .st6, .st7, .st8, .st9, .st10 {
        stroke-miterlimit: 10;
      }

      .st1 {
        stroke-width: .5px;
      }

      .st1, .st2 {
        stroke: #fff;
      }

      .st1, .st2, .st11 {
        fill: #0d425b;
      }

      .st2 {
        stroke-width: .9px;
      }

      .st12 {
        fill: #0d435c;
      }

      .st13, .st3, .st4, .st5, .st6, .st7, .st8, .st9 {
        fill: #fff;
      }

      .st3 {
        stroke-width: 3.3px;
      }

      .st3, .st4, .st5, .st6, .st7, .st8, .st10 {
        stroke: #0d425b;
      }

      .st4 {
        stroke-width: 3.8px;
      }

      .st5, .st9 {
        stroke-width: 3.7px;
      }

      .st6, .st10 {
        stroke-width: 3.6px;
      }

      .st7 {
        stroke-width: 5.6px;
      }

      .st14, .st10 {
        fill: #f3f5f7;
      }

      .st8 {
        stroke-width: 3.3px;
      }

      .st9 {
        stroke: #fac102;
      }
    </style>
  </defs>
  <rect class="st14" y="-.7" width="1920.7" height="870.1"/>
  <path class="st13" d="M1208.9,497.1c-9.1,0-16.6,7.2-17,16.2h33.9c-.4-9-7.9-16.2-17-16.2h0Z"/>
  <circle class="st13" cx="1256.4" cy="482.9" r="8.1"/>
  <path class="st13" d="M1302.2,497.1c-9.1,0-16.6,7.2-17,16.2h33.9c-.4-9-7.9-16.2-17-16.2h0Z"/>
  <circle class="st13" cx="1347.2" cy="482.9" r="8.1"/>
  <path class="st13" d="M1347,497.1c-9.1,0-16.6,7.2-17,16.2h33.9c-.4-9-7.9-16.2-17-16.2h0Z"/>
  <circle class="st13" cx="1740.1" cy="101.5" r="8.1"/>
  <path class="st13" d="M1739.9,115.7c-9.1,0-16.6,7.2-17,16.2h33.9c-.4-9-7.9-16.2-17-16.2h0Z"/>
  <circle class="st13" cx="1693.5" cy="100.6" r="8.1"/>
  <path class="st13" d="M1693.3,114.9c-9.1,0-16.6,7.2-17,16.2h33.9c-.4-9-7.9-16.2-17-16.2h0Z"/>
  <circle class="st13" cx="1646.6" cy="101.1" r="8.1"/>
  <path class="st13" d="M1646.5,115.3c-9.1,0-16.6,7.2-17,16.2h33.9c-.4-9-7.9-16.2-17-16.2h0Z"/>
  <circle class="st13" cx="267" cy="105.3" r="8.1"/>
  <circle class="st13" cx="327.3" cy="57.4" r="8.1"/>
  <circle class="st13" cx="392.5" cy="105.7" r="8.1"/>
  <path class="st13" d="M267,119.8c-9.1,0-16.6,7.2-17,16.2h33.9c-.4-9-7.9-16.2-17-16.2Z"/>
  <path class="st13" d="M327.4,71c-9.1,0-16.6,7.2-17,16.2h33.9c-.4-9-7.9-16.2-17-16.2Z"/>
  <path class="st13" d="M392.4,120c-9.1,0-16.6,7.2-17,16.2h33.9c-.4-9-7.9-16.2-17-16.2h0Z"/>
  <rect class="st9" x="1449.1" y="141.9" width="365.9" height="229.3"/>
  <rect class="st9" x="953.6" y="141.9" width="350.6" height="160.2"/>
  <g>
    <line class="st0" x1="473.7" y1="184.2" x2="566.6" y2="184.2"/>
    <polyline class="st0" points="551 168.6 566.7 184.2 551 199.9"/>
  </g>
  <g>
    <line class="st0" x1="823.4" y1="184.2" x2="916.4" y2="184.2"/>
    <polyline class="st0" points="900.7 168.6 916.4 184.2 900.7 199.9"/>
  </g>
  <g>
    <line class="st0" x1="1331.1" y1="184.2" x2="1424" y2="184.2"/>
    <polyline class="st0" points="1408.4 168.6 1424 184.2 1408.4 199.9"/>
  </g>
  <g>
    <line class="st0" x1="1116.9" y1="323.1" x2="1116.9" y2="500.1"/>
    <polyline class="st0" points="1132.6 484.4 1116.9 500.1 1101.3 484.4"/>
  </g>
  <g>
    <line class="st0" x1="470" y1="281.1" x2="916.4" y2="281.1"/>
    <polyline class="st0" points="900.7 265.5 916.4 281.1 900.7 296.8"/>
  </g>
  <rect class="st9" x="104.7" y="141.8" width="344.7" height="160.2"/>
  <rect class="st9" x="581.6" y="141.8" width="223.6" height="107.2"/>
  <rect class="st9" x="870.6" y="522.3" width="533.2" height="280.5"/>
  <g>
    <path class="st12" d="M145,195.7c-.2,2.6-1.1,4.6-2.8,6.1s-4,2.2-6.8,2.2-5.5-1-7.2-3.1-2.6-4.9-2.6-8.5v-1.5c0-2.3.4-4.3,1.2-6.1s2-3.1,3.5-4c1.5-.9,3.2-1.4,5.2-1.4s5,.7,6.6,2.2,2.7,3.5,2.9,6.2h-4.9c-.1-1.5-.5-2.7-1.3-3.3s-1.9-1-3.4-1-2.9.6-3.7,1.8-1.2,3-1.3,5.5v1.8c0,2.6.4,4.5,1.2,5.6s2,1.8,3.7,1.8,2.6-.3,3.4-1,1.2-1.8,1.3-3.2h4.9Z"/>
    <path class="st12" d="M147.2,194.6c0-1.8.3-3.3,1-4.7s1.7-2.4,2.9-3.2,2.7-1.1,4.4-1.1c2.4,0,4.3.7,5.9,2.2s2.4,3.4,2.5,6v1.2c0,2.7-.7,4.9-2.2,6.5s-3.6,2.5-6.1,2.5-4.6-.8-6.1-2.5-2.3-3.9-2.3-6.7v-.2h0ZM151.9,194.9c0,1.7.3,3,.9,3.9.6.9,1.5,1.3,2.7,1.3s2-.4,2.7-1.3c.6-.9,1-2.3,1-4.2s-.3-2.9-1-3.8-1.6-1.4-2.7-1.4-2.1.5-2.7,1.4c-.6.9-.9,2.3-.9,4.2Z"/>
    <path class="st12" d="M171.2,185.9v2c1.4-1.6,3.1-2.4,5.2-2.4s3.3.6,4.2,1.7,1.4,2.8,1.4,4.9v11.4h-4.7v-11.4c0-1-.2-1.7-.7-2.2-.4-.5-1.2-.7-2.2-.7s-2.3.6-3,1.7v12.5h-4.7v-17.7h4.5Z"/>
    <path class="st12" d="M186.9,203.6v-14.2h-2.6v-3.5h2.6v-1.5c0-2,.6-3.5,1.7-4.6,1.1-1.1,2.7-1.6,4.8-1.6s1.5.1,2.4.3v3.6c-.4,0-.9-.1-1.5-.1-1.8,0-2.7.8-2.7,2.5v1.4h3.5v3.5h-3.5v14.2h-4.7Z"/>
    <path class="st12" d="M205.4,204c-2.6,0-4.7-.8-6.3-2.4s-2.4-3.7-2.4-6.4v-.5c0-1.8.3-3.4,1-4.8s1.7-2.5,2.9-3.2,2.7-1.1,4.3-1.1c2.4,0,4.3.8,5.7,2.3,1.4,1.5,2.1,3.7,2.1,6.5v1.9h-11.3c.2,1.2.6,2.1,1.4,2.8.8.7,1.7,1,2.9,1,1.8,0,3.2-.7,4.3-2l2.3,2.6c-.7,1-1.7,1.8-2.9,2.3-1.2.6-2.6.8-4,.8ZM204.9,189.4c-.9,0-1.7.3-2.3,1-.6.6-1,1.5-1.1,2.7h6.6v-.4c0-1.1-.3-1.9-.9-2.4-.5-.6-1.3-.9-2.3-.9h0Z"/>
    <path class="st12" d="M225.4,190.4c-.6,0-1.2-.1-1.7-.1-1.8,0-3,.6-3.5,1.8v11.6h-4.7v-17.7h4.5v2.1c1.1-1.6,2.4-2.4,4.1-2.4s1,0,1.5.2v4.6q0,0,0,0Z"/>
    <path class="st12" d="M235.5,204c-2.6,0-4.7-.8-6.3-2.4-1.6-1.6-2.4-3.7-2.4-6.4v-.5c0-1.8.3-3.4,1-4.8s1.7-2.5,2.9-3.2c1.3-.8,2.7-1.1,4.3-1.1,2.4,0,4.3.8,5.7,2.3,1.4,1.5,2.1,3.7,2.1,6.5v1.9h-11.3c.2,1.2.6,2.1,1.4,2.8.8.7,1.7,1,2.9,1,1.8,0,3.2-.7,4.3-2l2.3,2.6c-.7,1-1.7,1.8-2.9,2.3-1.2.6-2.6.8-4,.8ZM234.9,189.4c-.9,0-1.7.3-2.3,1-.6.6-1,1.5-1.1,2.7h6.6v-.4c0-1.1-.3-1.9-.9-2.4-.5-.6-1.3-.9-2.3-.9h0Z"/>
    <path class="st12" d="M249.8,185.9v2c1.4-1.6,3.1-2.4,5.2-2.4s3.3.6,4.2,1.7,1.4,2.8,1.4,4.9v11.4h-4.7v-11.4c0-1-.2-1.7-.7-2.2-.4-.5-1.2-.7-2.2-.7s-2.3.6-3,1.7v12.5h-4.7v-17.7h4.5Z"/>
    <path class="st12" d="M271.6,200.1c.9,0,1.6-.2,2.1-.7s.8-1.1.9-1.9h4.4c0,1.2-.3,2.3-1,3.3-.6,1-1.5,1.8-2.6,2.3-1.1.5-2.4.8-3.7.8-2.5,0-4.5-.8-6-2.4-1.5-1.6-2.2-3.8-2.2-6.7v-.3c0-2.7.7-4.9,2.2-6.5s3.4-2.4,6-2.4,4,.6,5.3,1.9c1.3,1.3,2,2.9,2,5h-4.4c0-.9-.3-1.7-.9-2.2s-1.3-.9-2.2-.9-1.9.4-2.5,1.2c-.6.8-.8,2.1-.8,3.9v.5c0,1.8.3,3.1.8,3.9s1.4,1.2,2.5,1.2h0Z"/>
    <path class="st12" d="M289.9,204c-2.6,0-4.7-.8-6.3-2.4-1.6-1.6-2.4-3.7-2.4-6.4v-.5c0-1.8.3-3.4,1-4.8s1.7-2.5,2.9-3.2c1.3-.8,2.7-1.1,4.3-1.1,2.4,0,4.3.8,5.7,2.3,1.4,1.5,2.1,3.7,2.1,6.5v1.9h-11.3c.2,1.2.6,2.1,1.4,2.8.8.7,1.7,1,2.9,1,1.8,0,3.2-.7,4.3-2l2.3,2.6c-.7,1-1.7,1.8-2.9,2.3-1.2.6-2.6.8-4,.8h0ZM289.3,189.4c-.9,0-1.7.3-2.3,1-.6.6-1,1.5-1.1,2.7h6.6v-.4c0-1.1-.3-1.9-.9-2.4-.5-.6-1.3-.9-2.3-.9Z"/>
    <path class="st12" d="M307.5,194.6c0-1.8.3-3.3,1-4.7s1.7-2.4,2.9-3.2,2.7-1.1,4.4-1.1c2.4,0,4.3.7,5.9,2.2s2.4,3.4,2.5,6v1.2c0,2.7-.7,4.9-2.2,6.5s-3.6,2.5-6.1,2.5-4.6-.8-6.1-2.5c-1.5-1.6-2.3-3.9-2.3-6.7v-.2h0ZM312.2,194.9c0,1.7.3,3,.9,3.9.6.9,1.5,1.3,2.7,1.3s2-.4,2.7-1.3c.6-.9,1-2.3,1-4.2s-.3-2.9-1-3.8-1.6-1.4-2.7-1.4-2.1.5-2.7,1.4c-.6.9-.9,2.3-.9,4.2Z"/>
    <path class="st12" d="M328.5,203.6v-14.2h-2.6v-3.5h2.6v-1.5c0-2,.6-3.5,1.7-4.6,1.1-1.1,2.7-1.6,4.8-1.6s1.5.1,2.4.3v3.6c-.4,0-.9-.1-1.5-.1-1.8,0-2.7.8-2.7,2.5v1.4h3.5v3.5h-3.5v14.2h-4.7Z"/>
    <path class="st12" d="M360.2,197.4c0-.9-.3-1.6-1-2.1s-1.8-1-3.5-1.6-3.1-1.1-4-1.6c-2.7-1.5-4.1-3.4-4.1-5.9s.4-2.4,1.1-3.4c.7-1,1.8-1.8,3.1-2.4,1.4-.6,2.9-.9,4.6-.9s3.2.3,4.6.9c1.3.6,2.4,1.5,3.1,2.6.7,1.1,1.1,2.4,1.1,3.8h-4.9c0-1.1-.3-1.9-1-2.5-.7-.6-1.7-.9-2.9-.9s-2.1.3-2.8.8c-.7.5-1,1.2-1,2s.4,1.4,1.2,1.9c.8.5,1.9,1,3.4,1.5,2.8.8,4.8,1.9,6.1,3.1s1.9,2.8,1.9,4.7-.8,3.7-2.3,4.9c-1.6,1.2-3.7,1.8-6.3,1.8s-3.5-.3-5-1c-1.5-.7-2.7-1.6-3.4-2.8-.8-1.2-1.2-2.5-1.2-4.1h4.9c0,2.6,1.6,3.9,4.7,3.9s2.1-.2,2.7-.7c.7-.5,1-1.1,1-2Z"/>
    <path class="st12" d="M373.8,181.6v4.4h3v3.5h-3v8.8c0,.7.1,1.1.4,1.4s.7.4,1.4.4,1,0,1.4-.1v3.6c-.9.3-1.9.4-2.9.4-3.3,0-5-1.7-5.1-5v-9.5h-2.6v-3.5h2.6v-4.4h4.7Z"/>
    <path class="st12" d="M389.7,203.6c-.2-.4-.4-1-.5-1.6-1.1,1.3-2.6,1.9-4.5,1.9s-3.2-.5-4.3-1.5-1.7-2.3-1.7-3.8.7-3.3,2.1-4.3c1.4-1,3.4-1.5,6-1.5h2.2v-1c0-.8-.2-1.5-.6-2s-1.1-.7-2-.7-1.4.2-1.9.6-.7.9-.7,1.6h-4.7c0-1,.3-2,.9-2.8s1.5-1.6,2.7-2.1,2.5-.7,3.9-.7c2.2,0,3.9.5,5.2,1.6,1.3,1.1,1.9,2.6,1.9,4.6v7.7c0,1.7.2,3,.7,3.8v.3h-4.8ZM385.8,200.3c.7,0,1.3-.2,1.9-.5.6-.3,1-.7,1.3-1.3v-3h-1.8c-2.4,0-3.6.8-3.8,2.5v.3c0,.6.2,1.1.6,1.5s1,.6,1.7.6h0Z"/>
    <path class="st12" d="M403.1,181.6v4.4h3v3.5h-3v8.8c0,.7.1,1.1.4,1.4s.7.4,1.4.4,1,0,1.4-.1v3.6c-.9.3-1.9.4-2.9.4-3.3,0-5-1.7-5.1-5v-9.5h-2.6v-3.5h2.6v-4.4h4.7Z"/>
    <path class="st12" d="M416.9,204c-2.6,0-4.7-.8-6.3-2.4-1.6-1.6-2.4-3.7-2.4-6.4v-.5c0-1.8.3-3.4,1-4.8s1.7-2.5,2.9-3.2c1.3-.8,2.7-1.1,4.3-1.1,2.4,0,4.3.8,5.7,2.3,1.4,1.5,2.1,3.7,2.1,6.5v1.9h-11.3c.2,1.2.6,2.1,1.4,2.8.8.7,1.7,1,2.9,1,1.8,0,3.2-.7,4.3-2l2.3,2.6c-.7,1-1.7,1.8-2.9,2.3-1.2.6-2.6.8-4,.8h0ZM416.4,189.4c-.9,0-1.7.3-2.3,1-.6.6-1,1.5-1.1,2.7h6.6v-.4c0-1.1-.3-1.9-.9-2.4-.5-.6-1.3-.9-2.3-.9Z"/>
    <path class="st12" d="M131.2,236.2v8.4h-4.9v-23.8h9.3c1.8,0,3.4.3,4.7,1s2.4,1.6,3.1,2.8c.7,1.2,1.1,2.6,1.1,4.1,0,2.3-.8,4.2-2.4,5.5s-3.8,2-6.6,2h-4.3ZM131.2,232.2h4.4c1.3,0,2.3-.3,3-.9s1-1.5,1-2.6-.3-2.1-1-2.8-1.6-1.1-2.8-1.1h-4.5v7.5h0Z"/>
    <path class="st12" d="M157.7,244.6c-.2-.4-.4-1-.5-1.6-1.1,1.3-2.6,1.9-4.5,1.9s-3.2-.5-4.3-1.5-1.7-2.3-1.7-3.8.7-3.3,2.1-4.3,3.4-1.5,6-1.5h2.2v-1c0-.8-.2-1.5-.6-2s-1.1-.7-2-.7-1.4.2-1.9.6-.7.9-.7,1.6h-4.7c0-1,.3-2,.9-2.8s1.5-1.6,2.7-2.1,2.5-.7,3.9-.7c2.2,0,3.9.5,5.2,1.6,1.3,1.1,1.9,2.6,1.9,4.6v7.7c0,1.7.2,3,.7,3.8v.3h-4.8ZM153.8,241.3c.7,0,1.3-.2,1.9-.5.6-.3,1-.7,1.3-1.3v-3h-1.8c-2.4,0-3.6.8-3.8,2.5v.3c0,.6.2,1.1.6,1.5s1,.6,1.7.6Z"/>
    <path class="st12" d="M175.3,231.3c-.6,0-1.2-.1-1.7-.1-1.8,0-3,.6-3.5,1.8v11.6h-4.7v-17.7h4.5v2.1c1.1-1.6,2.4-2.4,4.1-2.4s1,0,1.5.2v4.6q0,0,0,0Z"/>
    <path class="st12" d="M184.1,222.5v4.4h3v3.5h-3v8.8c0,.7.1,1.1.4,1.4s.7.4,1.4.4,1,0,1.4-.1v3.6c-.9.3-1.9.4-2.9.4-3.3,0-5-1.7-5.1-5v-9.5h-2.6v-3.5h2.6v-4.4h4.7Z"/>
    <path class="st12" d="M189.7,222.3c0-.7.2-1.3.7-1.8s1.1-.7,1.9-.7,1.5.2,1.9.7.7,1,.7,1.8-.2,1.3-.7,1.8-1.1.7-1.9.7-1.4-.2-1.9-.7-.7-1-.7-1.8h0ZM194.8,244.6h-4.7v-17.7h4.7v17.7Z"/>
    <path class="st12" d="M206.8,244.9c-2.6,0-4.7-.8-6.3-2.4s-2.4-3.7-2.4-6.4v-.5c0-1.8.3-3.4,1-4.8s1.7-2.5,2.9-3.2c1.3-.8,2.7-1.1,4.3-1.1,2.4,0,4.3.8,5.7,2.3,1.4,1.5,2.1,3.7,2.1,6.5v1.9h-11.3c.2,1.2.6,2.1,1.4,2.8.8.7,1.7,1,2.9,1,1.8,0,3.2-.7,4.3-2l2.3,2.6c-.7,1-1.7,1.8-2.9,2.3-1.2.6-2.6.8-4,.8h0ZM206.3,230.4c-.9,0-1.7.3-2.3,1-.6.6-1,1.5-1.1,2.7h6.6v-.4c0-1.1-.3-1.9-.9-2.4-.5-.6-1.3-.9-2.3-.9h0Z"/>
    <path class="st12" d="M226.4,239.7c0-.6-.3-1-.9-1.4-.6-.3-1.5-.6-2.8-.9-4.2-.9-6.3-2.7-6.3-5.4s.7-2.9,2-3.9c1.3-1.1,3-1.6,5.1-1.6s4,.5,5.4,1.6c1.3,1.1,2,2.4,2,4.1h-4.7c0-.7-.2-1.2-.7-1.7-.4-.4-1.1-.7-2-.7s-1.4.2-1.9.5-.7.8-.7,1.4.2.9.7,1.3c.5.3,1.3.6,2.5.8s2.2.5,3,.8c2.5.9,3.7,2.5,3.7,4.8s-.7,2.9-2.1,3.9c-1.4,1-3.2,1.5-5.4,1.5s-2.8-.3-4-.8c-1.2-.5-2.1-1.3-2.7-2.2-.7-.9-1-1.9-1-3h4.5c0,.8.4,1.5.9,1.9s1.4.7,2.3.7,1.6-.2,2.1-.5c.5-.3.7-.8.7-1.4h0Z"/>
    <path class="st12" d="M242.6,234.9c0-2.5.3-4.9,1-7.1s1.6-4.3,2.9-6,2.7-3,4.2-3.6l.9,2.6c-1.6,1.2-2.8,3-3.7,5.5s-1.3,5.3-1.3,8.6v.5c0,3.3.4,6.2,1.3,8.7s2.1,4.3,3.7,5.6l-.9,2.5c-1.5-.7-2.9-1.8-4.2-3.5-1.3-1.7-2.3-3.6-2.9-5.8s-1-4.5-1.1-6.9v-.9h0Z"/>
    <path class="st12" d="M273.2,236.7c-.2,2.6-1.1,4.6-2.8,6.1-1.7,1.5-4,2.2-6.8,2.2s-5.5-1-7.2-3.1c-1.8-2.1-2.6-4.9-2.6-8.5v-1.5c0-2.3.4-4.3,1.2-6.1.8-1.7,2-3.1,3.5-4,1.5-.9,3.2-1.4,5.2-1.4s5,.7,6.6,2.2,2.7,3.5,2.9,6.2h-4.9c-.1-1.5-.5-2.7-1.3-3.3-.7-.7-1.9-1-3.4-1s-2.9.6-3.7,1.8-1.2,3-1.3,5.5v1.8c0,2.6.4,4.5,1.2,5.6.8,1.2,2,1.8,3.7,1.8s2.6-.3,3.4-1,1.2-1.8,1.3-3.2h4.9Z"/>
    <path class="st12" d="M288.8,238.4c0-.9-.3-1.6-1-2.1s-1.8-1-3.5-1.6-3.1-1.1-4-1.6c-2.7-1.5-4.1-3.4-4.1-5.9s.4-2.4,1.1-3.4c.7-1,1.8-1.8,3.1-2.4,1.4-.6,2.9-.9,4.6-.9s3.2.3,4.6.9c1.3.6,2.4,1.5,3.1,2.6.7,1.1,1.1,2.4,1.1,3.8h-4.9c0-1.1-.3-1.9-1-2.5-.7-.6-1.7-.9-2.9-.9s-2.1.3-2.8.8c-.7.5-1,1.2-1,2s.4,1.4,1.2,1.9c.8.5,1.9,1,3.4,1.5,2.8.8,4.8,1.9,6.1,3.1s1.9,2.8,1.9,4.7-.8,3.7-2.3,4.9c-1.6,1.2-3.7,1.8-6.3,1.8s-3.5-.3-5-1c-1.5-.7-2.7-1.6-3.4-2.8-.8-1.2-1.2-2.5-1.2-4.1h4.9c0,2.6,1.6,3.9,4.7,3.9s2.1-.2,2.7-.7c.7-.5,1-1.1,1-2Z"/>
    <path class="st12" d="M301.9,236.2v8.4h-4.9v-23.8h9.3c1.8,0,3.4.3,4.7,1,1.4.7,2.4,1.6,3.1,2.8.7,1.2,1.1,2.6,1.1,4.1,0,2.3-.8,4.2-2.4,5.5s-3.8,2-6.6,2h-4.3ZM301.9,232.2h4.4c1.3,0,2.3-.3,3-.9.7-.6,1-1.5,1-2.6s-.3-2.1-1-2.8-1.6-1.1-2.8-1.1h-4.5v7.5Z"/>
    <path class="st12" d="M326.5,235.3c0,2.5-.4,4.8-1.1,7.1s-1.7,4.3-3.1,6c-1.3,1.7-2.8,2.9-4.3,3.6l-.9-2.5c1.6-1.2,2.8-3,3.7-5.4s1.4-5.2,1.4-8.4v-.9c0-3.3-.4-6.1-1.3-8.6-.9-2.5-2.1-4.4-3.7-5.6l.9-2.5c1.5.6,2.9,1.8,4.2,3.5s2.3,3.7,3.1,5.9c.7,2.2,1.1,4.6,1.1,7v.7h0Z"/>
  </g>
  <g>
    <path class="st12" d="M617.2,175h-9.4v6.4h11.1v3.9h-16v-23.8h15.9v4h-11v5.7h9.4v3.8Z"/>
    <path class="st12" d="M628.2,173l3-5.3h5.1l-5,8.7,5.3,9h-5.1l-3.2-5.6-3.1,5.6h-5.1l5.3-9-5-8.7h5.1l2.9,5.3h0Z"/>
    <path class="st12" d="M646.3,185.7c-2.6,0-4.7-.8-6.3-2.4-1.6-1.6-2.4-3.7-2.4-6.4v-.5c0-1.8.3-3.4,1-4.8.7-1.4,1.7-2.5,2.9-3.2,1.3-.8,2.7-1.1,4.3-1.1,2.4,0,4.3.8,5.7,2.3s2.1,3.7,2.1,6.5v1.9h-11.3c.2,1.2.6,2.1,1.4,2.8s1.7,1,2.9,1c1.8,0,3.2-.7,4.3-2l2.3,2.6c-.7,1-1.7,1.8-2.9,2.3-1.2.6-2.6.8-4,.8h0ZM645.8,171.2c-.9,0-1.7.3-2.3,1s-1,1.5-1.1,2.7h6.6v-.4c0-1.1-.3-1.9-.9-2.4s-1.3-.9-2.3-.9Z"/>
    <path class="st12" d="M663.6,181.9c.9,0,1.6-.2,2.1-.7s.8-1.1.9-1.9h4.4c0,1.2-.3,2.3-1,3.3-.6,1-1.5,1.8-2.6,2.3s-2.4.8-3.7.8c-2.5,0-4.5-.8-6-2.4-1.5-1.6-2.2-3.8-2.2-6.7v-.3c0-2.7.7-4.9,2.2-6.5s3.4-2.4,6-2.4,4,.6,5.3,1.9c1.3,1.3,2,2.9,2,5h-4.4c0-.9-.3-1.7-.9-2.2-.5-.6-1.3-.9-2.2-.9s-1.9.4-2.5,1.2-.8,2.1-.8,3.9v.5c0,1.8.3,3.1.8,3.9.6.8,1.4,1.2,2.5,1.2h0Z"/>
    <path class="st12" d="M684.4,183.6c-1.2,1.4-2.8,2.1-4.8,2.1s-3.3-.5-4.3-1.6-1.5-2.7-1.5-4.8v-11.6h4.7v11.5c0,1.8.8,2.8,2.5,2.8s2.7-.6,3.3-1.7v-12.6h4.7v17.7h-4.5v-1.8h-.1Z"/>
    <path class="st12" d="M698.2,163.3v4.4h3v3.5h-3v8.8c0,.7.1,1.1.4,1.4s.7.4,1.4.4,1,0,1.4-.1v3.6c-.9.3-1.9.4-2.9.4-3.3,0-5-1.7-5.1-5v-9.5h-2.6v-3.5h2.6v-4.4h4.7Z"/>
    <path class="st12" d="M703.8,163.1c0-.7.2-1.3.7-1.8.5-.5,1.1-.7,1.9-.7s1.5.2,1.9.7.7,1,.7,1.8-.2,1.3-.7,1.8-1.1.7-1.9.7-1.4-.2-1.9-.7c-.5-.5-.7-1-.7-1.8h0ZM708.9,185.4h-4.7v-17.7h4.7v17.7Z"/>
    <path class="st12" d="M719.4,179.6l3.3-11.9h4.9l-6,17.7h-4.5l-6-17.7h4.9l3.3,11.9h0Z"/>
    <path class="st12" d="M737.6,185.7c-2.6,0-4.7-.8-6.3-2.4-1.6-1.6-2.4-3.7-2.4-6.4v-.5c0-1.8.3-3.4,1-4.8.7-1.4,1.7-2.5,2.9-3.2,1.3-.8,2.7-1.1,4.3-1.1,2.4,0,4.3.8,5.7,2.3,1.4,1.5,2.1,3.7,2.1,6.5v1.9h-11.3c.2,1.2.6,2.1,1.4,2.8.8.7,1.7,1,2.9,1,1.8,0,3.2-.7,4.3-2l2.3,2.6c-.7,1-1.7,1.8-2.9,2.3-1.2.6-2.6.8-4,.8ZM737.1,171.2c-.9,0-1.7.3-2.3,1s-1,1.5-1.1,2.7h6.6v-.4c0-1.1-.3-1.9-.9-2.4s-1.3-.9-2.3-.9h0Z"/>
    <path class="st12" d="M621.6,218.5c-.2,2.6-1.1,4.6-2.8,6.1s-4,2.2-6.8,2.2-5.5-1-7.2-3.1c-1.8-2.1-2.6-4.9-2.6-8.5v-1.5c0-2.3.4-4.3,1.2-6.1s2-3.1,3.5-4c1.5-.9,3.2-1.4,5.2-1.4s5,.7,6.6,2.2,2.7,3.5,2.9,6.2h-4.9c-.1-1.5-.5-2.7-1.3-3.3-.7-.7-1.9-1-3.4-1s-2.9.6-3.7,1.8c-.8,1.2-1.2,3-1.3,5.5v1.8c0,2.6.4,4.5,1.2,5.6s2,1.8,3.7,1.8,2.7-.3,3.4-1c.7-.7,1.2-1.8,1.3-3.2h4.9Z"/>
    <path class="st12" d="M623.8,217.4c0-1.8.3-3.3,1-4.7s1.7-2.4,2.9-3.2,2.7-1.1,4.4-1.1c2.4,0,4.3.7,5.9,2.2s2.4,3.4,2.5,6v1.2c0,2.7-.7,4.9-2.2,6.5-1.5,1.6-3.6,2.5-6.1,2.5s-4.6-.8-6.1-2.5-2.3-3.9-2.3-6.7v-.2h0ZM628.5,217.7c0,1.7.3,3,.9,3.9.6.9,1.5,1.3,2.7,1.3s2-.4,2.7-1.3,1-2.3,1-4.2-.3-2.9-1-3.8c-.6-.9-1.6-1.4-2.7-1.4s-2.1.5-2.7,1.4c-.6.9-.9,2.3-.9,4.2Z"/>
    <path class="st12" d="M654.1,224.6c-1.2,1.4-2.8,2.1-4.8,2.1s-3.3-.5-4.3-1.6-1.5-2.7-1.5-4.8v-11.6h4.7v11.5c0,1.8.8,2.8,2.5,2.8s2.7-.6,3.3-1.7v-12.6h4.7v17.7h-4.5v-1.8h-.1Z"/>
    <path class="st12" d="M666.6,208.7v2c1.4-1.6,3.1-2.4,5.2-2.4s3.3.6,4.2,1.7,1.4,2.8,1.4,4.9v11.4h-4.7v-11.4c0-1-.2-1.7-.7-2.2-.4-.5-1.2-.7-2.2-.7s-2.3.6-3,1.7v12.5h-4.7v-17.7h4.5,0Z"/>
    <path class="st12" d="M688.4,222.9c.9,0,1.6-.2,2.1-.7s.8-1.1.9-1.9h4.4c0,1.2-.3,2.3-1,3.3-.6,1-1.5,1.8-2.6,2.3s-2.4.8-3.7.8c-2.5,0-4.5-.8-6-2.4-1.5-1.6-2.2-3.8-2.2-6.7v-.3c0-2.7.7-4.9,2.2-6.5s3.4-2.4,6-2.4,4,.6,5.3,1.9c1.3,1.3,2,2.9,2,5h-4.4c0-.9-.3-1.7-.9-2.2-.5-.6-1.3-.9-2.2-.9s-1.9.4-2.5,1.2-.8,2.1-.8,3.9v.5c0,1.8.3,3.1.8,3.9.6.8,1.4,1.2,2.5,1.2h0Z"/>
    <path class="st12" d="M698.5,204.1c0-.7.2-1.3.7-1.8.5-.5,1.1-.7,1.9-.7s1.5.2,1.9.7.7,1,.7,1.8-.2,1.3-.7,1.8-1.1.7-1.9.7-1.4-.2-1.9-.7c-.5-.5-.7-1-.7-1.8h0ZM703.5,226.4h-4.7v-17.7h4.7v17.7Z"/>
    <path class="st12" d="M712.4,226.4h-4.7v-25.2h4.7v25.2Z"/>
    <path class="st12" d="M724.8,216.7c0-2.5.3-4.9,1-7.1.7-2.3,1.6-4.3,2.9-6,1.3-1.7,2.7-3,4.2-3.6l.9,2.6c-1.6,1.2-2.8,3-3.7,5.5s-1.3,5.3-1.3,8.6v.5c0,3.3.4,6.2,1.3,8.7s2.1,4.3,3.7,5.5l-.9,2.5c-1.5-.7-2.9-1.8-4.2-3.5-1.3-1.7-2.3-3.6-2.9-5.8s-1-4.5-1.1-6.9v-.9h0Z"/>
    <path class="st12" d="M751.1,216h-9.4v6.4h11.1v3.9h-16v-23.8h15.9v4h-11v5.7h9.4v3.8Z"/>
    <path class="st12" d="M774.3,218.5c-.2,2.6-1.1,4.6-2.8,6.1-1.7,1.5-4,2.2-6.8,2.2s-5.5-1-7.2-3.1c-1.8-2.1-2.6-4.9-2.6-8.5v-1.5c0-2.3.4-4.3,1.2-6.1s2-3.1,3.5-4c1.5-.9,3.2-1.4,5.2-1.4s5,.7,6.6,2.2,2.7,3.5,2.9,6.2h-4.9c-.1-1.5-.5-2.7-1.3-3.3-.7-.7-1.9-1-3.4-1s-2.9.6-3.7,1.8c-.8,1.2-1.2,3-1.3,5.5v1.8c0,2.6.4,4.5,1.2,5.6.8,1.2,2,1.8,3.7,1.8s2.6-.3,3.4-1c.7-.7,1.2-1.8,1.3-3.2h4.9Z"/>
    <path class="st12" d="M784.9,217.1c0,2.5-.4,4.8-1.1,7.1s-1.7,4.3-3.1,6-2.8,2.9-4.3,3.6l-.9-2.5c1.6-1.2,2.8-3,3.7-5.4s1.4-5.2,1.4-8.4v-.9c0-3.3-.4-6.1-1.3-8.6-.9-2.5-2.1-4.4-3.7-5.6l.9-2.5c1.5.6,2.9,1.8,4.2,3.5s2.3,3.7,3.1,5.9c.7,2.2,1.1,4.6,1.1,7v.7h0Z"/>
  </g>
  <g>
    <path class="st12" d="M974.1,192.3v-23.8h7.3c2.1,0,4,.5,5.6,1.4,1.7.9,2.9,2.3,3.9,4,.9,1.7,1.4,3.7,1.4,5.9v1.1c0,2.2-.5,4.2-1.4,5.9s-2.2,3.1-3.9,4-3.5,1.4-5.6,1.4h-7.4ZM979,172.4v15.9h2.4c1.9,0,3.4-.6,4.4-1.9s1.5-3.1,1.6-5.4v-1.3c0-2.4-.5-4.3-1.5-5.5s-2.5-1.9-4.4-1.9h-2.4Z"/>
    <path class="st12" d="M995.5,170c0-.7.2-1.3.7-1.8s1.1-.7,1.9-.7,1.5.2,1.9.7.7,1,.7,1.8-.2,1.3-.7,1.8-1.1.7-1.9.7-1.4-.2-1.9-.7-.7-1-.7-1.8ZM1000.6,192.3h-4.7v-17.7h4.7v17.7Z"/>
    <path class="st12" d="M1014.4,179c-.6,0-1.2-.1-1.7-.1-1.8,0-3,.6-3.5,1.8v11.6h-4.7v-17.7h4.5v2.1c1.1-1.6,2.4-2.4,4.1-2.4s1,0,1.5.2v4.6q0,0,0,0Z"/>
    <path class="st12" d="M1024.5,192.6c-2.6,0-4.7-.8-6.3-2.4s-2.4-3.7-2.4-6.4v-.5c0-1.8.3-3.4,1-4.8s1.7-2.5,2.9-3.2,2.7-1.1,4.3-1.1c2.4,0,4.3.8,5.7,2.3s2.1,3.7,2.1,6.5v1.9h-11.3c.2,1.2.6,2.1,1.4,2.8s1.7,1,2.9,1c1.8,0,3.2-.7,4.3-2l2.3,2.6c-.7,1-1.7,1.8-2.9,2.3-1.2.6-2.6.8-4,.8ZM1024,178c-.9,0-1.7.3-2.3,1-.6.6-1,1.5-1.1,2.7h6.6v-.4c0-1.1-.3-1.9-.9-2.4-.5-.6-1.3-.9-2.3-.9h0Z"/>
    <path class="st12" d="M1041.9,188.8c.9,0,1.6-.2,2.1-.7s.8-1.1.9-1.9h4.4c0,1.2-.3,2.3-1,3.3-.6,1-1.5,1.8-2.6,2.3-1.1.5-2.4.8-3.7.8-2.5,0-4.5-.8-6-2.4-1.5-1.6-2.2-3.8-2.2-6.7v-.3c0-2.7.7-4.9,2.2-6.5s3.4-2.4,6-2.4,4,.6,5.3,1.9c1.3,1.3,2,2.9,2,5h-4.4c0-.9-.3-1.7-.9-2.2s-1.3-.9-2.2-.9-1.9.4-2.5,1.2c-.6.8-.8,2.1-.8,3.9v.5c0,1.8.3,3.1.8,3.9s1.4,1.2,2.5,1.2h0Z"/>
    <path class="st12" d="M1057.7,170.2v4.4h3v3.5h-3v8.8c0,.7.1,1.1.4,1.4s.7.4,1.4.4,1,0,1.4-.1v3.6c-.9.3-1.9.4-2.9.4-3.3,0-5-1.7-5.1-5v-9.5h-2.6v-3.5h2.6v-4.4h4.7Z"/>
    <path class="st12" d="M1062.1,183.3c0-1.8.3-3.3,1-4.7s1.7-2.4,2.9-3.2,2.7-1.1,4.4-1.1c2.4,0,4.3.7,5.9,2.2s2.4,3.4,2.5,6v1.2c0,2.7-.7,4.9-2.2,6.5s-3.6,2.5-6.1,2.5-4.6-.8-6.1-2.5c-1.5-1.6-2.3-3.9-2.3-6.7v-.2h0ZM1066.8,183.6c0,1.7.3,3,.9,3.9.6.9,1.5,1.3,2.7,1.3s2-.4,2.7-1.3c.6-.9,1-2.3,1-4.2s-.3-2.9-1-3.8-1.6-1.4-2.7-1.4-2.1.5-2.7,1.4c-.6.9-.9,2.3-.9,4.2Z"/>
    <path class="st12" d="M1091.7,179c-.6,0-1.2-.1-1.7-.1-1.8,0-3,.6-3.5,1.8v11.6h-4.7v-17.7h4.5v2.1c1.1-1.6,2.4-2.4,4.1-2.4s1,0,1.5.2v4.6c0,0,0,0,0,0Z"/>
    <path class="st12" d="M1103.2,184h-9.2v-3.8h9.2v3.8Z"/>
    <path class="st12" d="M1126.2,189.3c-.9,1.1-2.1,1.9-3.7,2.5-1.6.6-3.4.9-5.4.9s-3.9-.5-5.4-1.4c-1.6-.9-2.8-2.2-3.6-3.9-.8-1.7-1.3-3.7-1.3-6v-1.6c0-2.4.4-4.4,1.2-6.2.8-1.7,2-3.1,3.5-4,1.5-.9,3.3-1.4,5.3-1.4s5,.7,6.6,2,2.5,3.3,2.8,5.9h-4.8c-.2-1.4-.7-2.4-1.4-3-.7-.6-1.8-.9-3.1-.9s-2.9.6-3.8,1.9-1.3,3.1-1.3,5.6v1.5c0,2.5.5,4.4,1.4,5.7s2.3,1.9,4.2,1.9,3.2-.4,3.9-1.2v-4.1h-4.5v-3.6h9.4v9.5h0Z"/>
    <path class="st12" d="M1138,192.6c-2.6,0-4.7-.8-6.3-2.4-1.6-1.6-2.4-3.7-2.4-6.4v-.5c0-1.8.3-3.4,1-4.8s1.7-2.5,2.9-3.2c1.3-.8,2.7-1.1,4.3-1.1,2.4,0,4.3.8,5.7,2.3,1.4,1.5,2.1,3.7,2.1,6.5v1.9h-11.3c.2,1.2.6,2.1,1.4,2.8.8.7,1.7,1,2.9,1,1.8,0,3.2-.7,4.3-2l2.3,2.6c-.7,1-1.7,1.8-2.9,2.3-1.2.6-2.6.8-4,.8h0ZM1137.5,178c-.9,0-1.7.3-2.3,1-.6.6-1,1.5-1.1,2.7h6.6v-.4c0-1.1-.3-1.9-.9-2.4-.5-.6-1.3-.9-2.3-.9h0Z"/>
    <path class="st12" d="M1152.4,174.6v2c1.4-1.6,3.1-2.4,5.2-2.4s3.3.6,4.2,1.7,1.4,2.8,1.4,4.9v11.4h-4.7v-11.4c0-1-.2-1.7-.7-2.2-.4-.5-1.2-.7-2.2-.7s-2.3.6-3,1.7v12.5h-4.7v-17.7h4.5Z"/>
    <path class="st12" d="M1174.9,192.6c-2.6,0-4.7-.8-6.3-2.4-1.6-1.6-2.4-3.7-2.4-6.4v-.5c0-1.8.3-3.4,1-4.8s1.7-2.5,2.9-3.2c1.3-.8,2.7-1.1,4.3-1.1,2.4,0,4.3.8,5.7,2.3,1.4,1.5,2.1,3.7,2.1,6.5v1.9h-11.3c.2,1.2.6,2.1,1.4,2.8.8.7,1.7,1,2.9,1,1.8,0,3.2-.7,4.3-2l2.3,2.6c-.7,1-1.7,1.8-2.9,2.3-1.2.6-2.6.8-4,.8h0ZM1174.4,178c-.9,0-1.7.3-2.3,1-.6.6-1,1.5-1.1,2.7h6.6v-.4c0-1.1-.3-1.9-.9-2.4-.5-.6-1.3-.9-2.3-.9h0Z"/>
    <path class="st12" d="M1194.9,179c-.6,0-1.2-.1-1.7-.1-1.8,0-3,.6-3.5,1.8v11.6h-4.7v-17.7h4.5v2.1c1.1-1.6,2.4-2.4,4.1-2.4s1,0,1.5.2v4.6c0,0,0,0,0,0Z"/>
    <path class="st12" d="M1206.9,192.3c-.2-.4-.4-1-.5-1.6-1.1,1.3-2.6,1.9-4.5,1.9s-3.2-.5-4.3-1.5-1.7-2.3-1.7-3.8.7-3.3,2.1-4.3c1.4-1,3.4-1.5,6-1.5h2.2v-1c0-.8-.2-1.5-.6-2s-1.1-.7-2-.7-1.4.2-1.9.6-.7.9-.7,1.6h-4.7c0-1,.3-2,.9-2.8s1.5-1.6,2.7-2.1,2.5-.7,3.9-.7c2.2,0,3.9.5,5.2,1.6,1.3,1.1,1.9,2.6,1.9,4.6v7.7c0,1.7.2,3,.7,3.8v.3h-4.8ZM1203,189c.7,0,1.3-.2,1.9-.5.6-.3,1-.7,1.3-1.3v-3h-1.8c-2.4,0-3.6.8-3.8,2.5v.3c0,.6.2,1.1.6,1.5s1,.6,1.7.6Z"/>
    <path class="st12" d="M1219.6,192.3h-4.7v-25.2h4.7v25.2Z"/>
    <path class="st12" d="M973,224.2c0-1.8.3-3.3,1-4.7s1.7-2.4,2.9-3.2,2.7-1.1,4.4-1.1c2.4,0,4.3.7,5.9,2.2s2.4,3.4,2.5,6v1.2c0,2.7-.7,4.9-2.2,6.5s-3.6,2.5-6.1,2.5-4.6-.8-6.1-2.5-2.3-3.9-2.3-6.7v-.2h0ZM977.8,224.6c0,1.7.3,3,.9,3.9.6.9,1.5,1.3,2.7,1.3s2-.4,2.7-1.3c.6-.9,1-2.3,1-4.2s-.3-2.9-1-3.8-1.6-1.4-2.7-1.4-2.1.5-2.7,1.4c-.6.9-.9,2.3-.9,4.2Z"/>
    <path class="st12" d="M994,233.3v-14.2h-2.6v-3.5h2.6v-1.5c0-2,.6-3.5,1.7-4.6,1.1-1.1,2.7-1.6,4.8-1.6s1.5.1,2.4.3v3.6c-.4,0-.9-.1-1.5-.1-1.8,0-2.7.8-2.7,2.5v1.4h3.5v3.5h-3.5v14.2h-4.7Z"/>
    <path class="st12" d="M1018.8,211.2v4.4h3v3.5h-3v8.8c0,.7.1,1.1.4,1.4s.7.4,1.4.4,1,0,1.4-.1v3.6c-.9.3-1.9.4-2.9.4-3.3,0-5-1.7-5.1-5v-9.5h-2.6v-3.5h2.6v-4.4h4.7Z"/>
    <path class="st12" d="M1029,217.5c1.3-1.5,2.8-2.3,4.7-2.3,3.8,0,5.8,2.2,5.8,6.7v11.3h-4.7v-11.2c0-1-.2-1.8-.7-2.3-.4-.5-1.2-.7-2.2-.7s-2.4.5-3,1.6v12.6h-4.7v-25.2h4.7v9.4Z"/>
    <path class="st12" d="M1051.4,233.6c-2.6,0-4.7-.8-6.3-2.4s-2.4-3.7-2.4-6.4v-.5c0-1.8.3-3.4,1-4.8s1.7-2.5,2.9-3.2,2.7-1.1,4.3-1.1c2.4,0,4.3.8,5.7,2.3,1.4,1.5,2.1,3.7,2.1,6.5v1.9h-11.3c.2,1.2.6,2.1,1.4,2.8.8.7,1.7,1,2.9,1,1.8,0,3.2-.7,4.3-2l2.3,2.6c-.7,1-1.7,1.8-2.9,2.3-1.2.6-2.6.8-4,.8h0ZM1050.8,219c-.9,0-1.7.3-2.3,1-.6.6-1,1.5-1.1,2.7h6.6v-.4c0-1.1-.3-1.9-.9-2.4-.5-.6-1.3-.9-2.3-.9h0Z"/>
    <path class="st12" d="M1087,213.4h-7.3v19.9h-4.9v-19.9h-7.2v-4h19.4v4Z"/>
    <path class="st12" d="M1096.1,233.6c-2.6,0-4.7-.8-6.3-2.4-1.6-1.6-2.4-3.7-2.4-6.4v-.5c0-1.8.3-3.4,1-4.8s1.7-2.5,2.9-3.2c1.3-.8,2.7-1.1,4.3-1.1,2.4,0,4.3.8,5.7,2.3,1.4,1.5,2.1,3.7,2.1,6.5v1.9h-11.3c.2,1.2.6,2.1,1.4,2.8.8.7,1.7,1,2.9,1,1.8,0,3.2-.7,4.3-2l2.3,2.6c-.7,1-1.7,1.8-2.9,2.3-1.2.6-2.6.8-4,.8h0ZM1095.6,219c-.9,0-1.7.3-2.3,1-.6.6-1,1.5-1.1,2.7h6.6v-.4c0-1.1-.3-1.9-.9-2.4-.5-.6-1.3-.9-2.3-.9h0Z"/>
    <path class="st12" d="M1113.5,229.8c.9,0,1.6-.2,2.1-.7s.8-1.1.9-1.9h4.4c0,1.2-.3,2.3-1,3.3-.6,1-1.5,1.8-2.6,2.3-1.1.5-2.4.8-3.7.8-2.5,0-4.5-.8-6-2.4-1.5-1.6-2.2-3.8-2.2-6.7v-.3c0-2.7.7-4.9,2.2-6.5s3.4-2.4,6-2.4,4,.6,5.3,1.9c1.3,1.3,2,2.9,2,5h-4.4c0-.9-.3-1.7-.9-2.2s-1.3-.9-2.2-.9-1.9.4-2.5,1.2c-.6.8-.8,2.1-.8,3.9v.5c0,1.8.3,3.1.8,3.9s1.4,1.2,2.5,1.2h0Z"/>
    <path class="st12" d="M1128.2,217.5c1.3-1.5,2.8-2.3,4.7-2.3,3.8,0,5.8,2.2,5.8,6.7v11.3h-4.7v-11.2c0-1-.2-1.8-.7-2.3-.4-.5-1.2-.7-2.2-.7s-2.4.5-3,1.6v12.6h-4.7v-25.2h4.7v9.4Z"/>
    <path class="st12" d="M1146.7,215.5v2c1.4-1.6,3.1-2.4,5.2-2.4s3.3.6,4.2,1.7,1.4,2.8,1.4,4.9v11.4h-4.7v-11.4c0-1-.2-1.7-.7-2.2-.4-.5-1.2-.7-2.2-.7s-2.3.6-3,1.7v12.5h-4.7v-17.7h4.5Z"/>
    <path class="st12" d="M1161.1,211c0-.7.2-1.3.7-1.8.5-.5,1.1-.7,1.9-.7s1.5.2,1.9.7.7,1,.7,1.8-.2,1.3-.7,1.8-1.1.7-1.9.7-1.4-.2-1.9-.7c-.5-.5-.7-1-.7-1.8ZM1166.1,233.3h-4.7v-17.7h4.7v17.7Z"/>
    <path class="st12" d="M1177.4,229.8c.9,0,1.6-.2,2.1-.7s.8-1.1.9-1.9h4.4c0,1.2-.3,2.3-1,3.3-.6,1-1.5,1.8-2.6,2.3-1.1.5-2.4.8-3.7.8-2.5,0-4.5-.8-6-2.4-1.5-1.6-2.2-3.8-2.2-6.7v-.3c0-2.7.7-4.9,2.2-6.5s3.4-2.4,6-2.4,4,.6,5.3,1.9c1.3,1.3,2,2.9,2,5h-4.4c0-.9-.3-1.7-.9-2.2s-1.3-.9-2.2-.9-1.9.4-2.5,1.2c-.6.8-.8,2.1-.8,3.9v.5c0,1.8.3,3.1.8,3.9s1.4,1.2,2.5,1.2h0Z"/>
    <path class="st12" d="M1197.8,233.3c-.2-.4-.4-1-.5-1.6-1.1,1.3-2.6,1.9-4.5,1.9s-3.2-.5-4.3-1.5-1.7-2.3-1.7-3.8.7-3.3,2.1-4.3c1.4-1,3.4-1.5,6-1.5h2.2v-1c0-.8-.2-1.5-.6-2s-1.1-.7-2-.7-1.4.2-1.9.6-.7.9-.7,1.6h-4.7c0-1,.3-2,.9-2.8s1.5-1.6,2.7-2.1,2.5-.7,3.9-.7c2.2,0,3.9.5,5.2,1.6,1.3,1.1,1.9,2.6,1.9,4.6v7.7c0,1.7.2,3,.7,3.8v.3h-4.8ZM1193.9,230c.7,0,1.3-.2,1.9-.5.6-.3,1-.7,1.3-1.3v-3h-1.8c-2.4,0-3.6.8-3.8,2.5v.3c0,.6.2,1.1.6,1.5s1,.6,1.7.6Z"/>
    <path class="st12" d="M1210.5,233.3h-4.7v-25.2h4.7v25.2Z"/>
    <path class="st12" d="M986.4,268c0-.9-.3-1.6-1-2.1s-1.8-1-3.5-1.6-3.1-1.1-4-1.6c-2.7-1.5-4.1-3.4-4.1-5.9s.4-2.4,1.1-3.4c.7-1,1.8-1.8,3.1-2.4,1.4-.6,2.9-.9,4.6-.9s3.2.3,4.6.9c1.3.6,2.4,1.5,3.1,2.6s1.1,2.4,1.1,3.8h-4.9c0-1.1-.3-1.9-1-2.5-.7-.6-1.7-.9-2.9-.9s-2.1.3-2.8.8c-.7.5-1,1.2-1,2s.4,1.4,1.2,1.9,1.9,1,3.4,1.5c2.8.8,4.8,1.9,6.1,3.1s1.9,2.8,1.9,4.7-.8,3.7-2.3,4.9c-1.6,1.2-3.7,1.8-6.3,1.8s-3.5-.3-5-1c-1.5-.7-2.7-1.6-3.4-2.8s-1.2-2.5-1.2-4.1h4.9c0,2.6,1.6,3.9,4.7,3.9s2.1-.2,2.7-.7c.7-.5,1-1.1,1-2h0Z"/>
    <path class="st12" d="M1002.5,274.6c-2.6,0-4.7-.8-6.3-2.4s-2.4-3.7-2.4-6.4v-.5c0-1.8.3-3.4,1-4.8s1.7-2.5,2.9-3.2,2.7-1.1,4.3-1.1c2.4,0,4.3.8,5.7,2.3s2.1,3.7,2.1,6.5v1.9h-11.3c.2,1.2.6,2.1,1.4,2.8s1.7,1,2.9,1c1.8,0,3.2-.7,4.3-2l2.3,2.6c-.7,1-1.7,1.8-2.9,2.3-1.2.6-2.6.8-4,.8ZM1002,260c-.9,0-1.7.3-2.3,1-.6.6-1,1.5-1.1,2.7h6.6v-.4c0-1.1-.3-1.9-.9-2.4-.5-.6-1.3-.9-2.3-.9Z"/>
    <path class="st12" d="M1019.9,270.8c.9,0,1.6-.2,2.1-.7.5-.5.8-1.1.9-1.9h4.4c0,1.2-.3,2.3-1,3.3-.6,1-1.5,1.8-2.6,2.3-1.1.5-2.4.8-3.7.8-2.5,0-4.5-.8-6-2.4-1.5-1.6-2.2-3.8-2.2-6.7v-.3c0-2.7.7-4.9,2.2-6.5s3.4-2.4,6-2.4,4,.6,5.3,1.9c1.3,1.3,2,2.9,2,5h-4.4c0-.9-.3-1.7-.9-2.2s-1.3-.9-2.2-.9-1.9.4-2.5,1.2c-.6.8-.8,2.1-.8,3.9v.5c0,1.8.3,3.1.8,3.9s1.4,1.2,2.5,1.2h0Z"/>
    <path class="st12" d="M1040,261c-.6,0-1.2-.1-1.7-.1-1.8,0-3,.6-3.5,1.8v11.6h-4.7v-17.7h4.5v2.1c1.1-1.6,2.4-2.4,4.1-2.4s1,0,1.5.2v4.6q0,0,0,0Z"/>
    <path class="st12" d="M1050.1,274.6c-2.6,0-4.7-.8-6.3-2.4s-2.4-3.7-2.4-6.4v-.5c0-1.8.3-3.4,1-4.8s1.7-2.5,2.9-3.2,2.7-1.1,4.3-1.1c2.4,0,4.3.8,5.7,2.3,1.4,1.5,2.1,3.7,2.1,6.5v1.9h-11.3c.2,1.2.6,2.1,1.4,2.8s1.7,1,2.9,1c1.8,0,3.2-.7,4.3-2l2.3,2.6c-.7,1-1.7,1.8-2.9,2.3-1.2.6-2.6.8-4,.8h0ZM1049.5,260c-.9,0-1.7.3-2.3,1-.6.6-1,1.5-1.1,2.7h6.6v-.4c0-1.1-.3-1.9-.9-2.4-.5-.6-1.3-.9-2.3-.9h0Z"/>
    <path class="st12" d="M1065.7,252.2v4.4h3v3.5h-3v8.8c0,.7.1,1.1.4,1.4s.7.4,1.4.4,1,0,1.4-.1v3.6c-.9.3-1.9.4-2.9.4-3.3,0-5-1.7-5.1-5v-9.5h-2.6v-3.5h2.6v-4.4h4.7Z"/>
    <path class="st12" d="M1081.6,274.3c-.2-.4-.4-1-.5-1.6-1.1,1.3-2.6,1.9-4.5,1.9s-3.2-.5-4.3-1.5-1.7-2.3-1.7-3.8.7-3.3,2.1-4.3c1.4-1,3.4-1.5,6-1.5h2.2v-1c0-.8-.2-1.5-.6-2s-1.1-.7-2-.7-1.4.2-1.9.6-.7.9-.7,1.6h-4.7c0-1,.3-2,.9-2.8s1.5-1.6,2.7-2.1,2.5-.7,3.9-.7c2.2,0,3.9.5,5.2,1.6,1.3,1.1,1.9,2.6,1.9,4.6v7.7c0,1.7.2,3,.7,3.8v.3h-4.8ZM1077.7,271c.7,0,1.3-.2,1.9-.5.6-.3,1-.7,1.3-1.3v-3h-1.8c-2.4,0-3.6.8-3.8,2.5v.3c0,.6.2,1.1.6,1.5s1,.6,1.7.6Z"/>
    <path class="st12" d="M1099.3,261c-.6,0-1.2-.1-1.7-.1-1.8,0-3,.6-3.5,1.8v11.6h-4.7v-17.7h4.5v2.1c1.1-1.6,2.4-2.4,4.1-2.4s1,0,1.5.2v4.6c0,0,0,0,0,0Z"/>
    <path class="st12" d="M1101.6,252c0-.7.2-1.3.7-1.8.5-.5,1.1-.7,1.9-.7s1.5.2,1.9.7.7,1,.7,1.8-.2,1.3-.7,1.8-1.1.7-1.9.7-1.4-.2-1.9-.7c-.5-.5-.7-1-.7-1.8ZM1106.6,274.3h-4.7v-17.7h4.7v17.7Z"/>
    <path class="st12" d="M1120.7,274.3c-.2-.4-.4-1-.5-1.6-1.1,1.3-2.6,1.9-4.5,1.9s-3.2-.5-4.3-1.5-1.7-2.3-1.7-3.8.7-3.3,2.1-4.3c1.4-1,3.4-1.5,6-1.5h2.2v-1c0-.8-.2-1.5-.6-2s-1.1-.7-2-.7-1.4.2-1.9.6-.7.9-.7,1.6h-4.7c0-1,.3-2,.9-2.8s1.5-1.6,2.7-2.1,2.5-.7,3.9-.7c2.2,0,3.9.5,5.2,1.6,1.3,1.1,1.9,2.6,1.9,4.6v7.7c0,1.7.2,3,.7,3.8v.3h-4.8ZM1116.8,271c.7,0,1.3-.2,1.9-.5.6-.3,1-.7,1.3-1.3v-3h-1.8c-2.4,0-3.6.8-3.8,2.5v.3c0,.6.2,1.1.6,1.5s1,.6,1.7.6Z"/>
    <path class="st12" d="M1134.1,252.2v4.4h3v3.5h-3v8.8c0,.7.1,1.1.4,1.4s.7.4,1.4.4,1,0,1.4-.1v3.6c-.9.3-1.9.4-2.9.4-3.3,0-5-1.7-5.1-5v-9.5h-2.6v-3.5h2.6v-4.4h4.7Z"/>
    <path class="st12" d="M1148.4,264.6c0-2.5.3-4.9,1-7.1s1.6-4.3,2.9-6,2.7-3,4.2-3.6l.9,2.6c-1.6,1.2-2.8,3-3.7,5.5s-1.3,5.3-1.3,8.6v.5c0,3.3.4,6.2,1.3,8.7s2.1,4.3,3.7,5.6l-.9,2.5c-1.5-.7-2.9-1.8-4.2-3.5-1.3-1.7-2.3-3.6-2.9-5.8s-1-4.5-1.1-6.9v-.9h0Z"/>
    <path class="st12" d="M1160.2,274.3v-23.8h7.3c2.1,0,4,.5,5.6,1.4,1.7.9,2.9,2.3,3.9,4,.9,1.7,1.4,3.7,1.4,5.9v1.1c0,2.2-.5,4.2-1.4,5.9-.9,1.7-2.2,3.1-3.9,4s-3.5,1.4-5.6,1.4h-7.4ZM1165.1,254.4v15.9h2.4c1.9,0,3.4-.6,4.4-1.9s1.5-3.1,1.6-5.4v-1.3c0-2.4-.5-4.3-1.5-5.5s-2.5-1.9-4.4-1.9h-2.4Z"/>
    <path class="st12" d="M1200.9,271.2c-.9,1.1-2.1,1.9-3.7,2.5-1.6.6-3.4.9-5.4.9s-3.9-.5-5.4-1.4c-1.6-.9-2.8-2.2-3.6-3.9-.8-1.7-1.3-3.7-1.3-6v-1.6c0-2.4.4-4.4,1.2-6.2.8-1.7,2-3.1,3.5-4,1.5-.9,3.3-1.4,5.3-1.4s5,.7,6.6,2,2.5,3.3,2.8,5.9h-4.8c-.2-1.4-.7-2.4-1.4-3-.7-.6-1.8-.9-3.1-.9s-2.9.6-3.8,1.9-1.3,3.1-1.3,5.6v1.5c0,2.5.5,4.4,1.4,5.7s2.3,1.9,4.2,1.9,3.2-.4,3.9-1.2v-4.1h-4.5v-3.6h9.4v9.5h0Z"/>
    <path class="st12" d="M1212.7,264.9c0,2.5-.4,4.8-1.1,7.1s-1.7,4.3-3.1,6-2.8,2.9-4.3,3.6l-.9-2.5c1.6-1.2,2.8-3,3.7-5.4s1.4-5.2,1.4-8.4v-.9c0-3.3-.4-6.1-1.3-8.6-.9-2.5-2.1-4.4-3.7-5.6l.9-2.5c1.5.6,2.9,1.8,4.2,3.5s2.3,3.7,3.1,5.9c.7,2.2,1.1,4.6,1.1,7v.7h0Z"/>
  </g>
  <g>
    <path class="st12" d="M1490.3,172.3h-7.3v19.9h-4.9v-19.9h-7.2v-4h19.4v4Z"/>
    <path class="st12" d="M1499.5,192.5c-2.6,0-4.7-.8-6.3-2.4-1.6-1.6-2.4-3.7-2.4-6.4v-.5c0-1.8.3-3.4,1-4.8s1.7-2.5,2.9-3.2c1.3-.8,2.7-1.1,4.3-1.1,2.4,0,4.3.8,5.7,2.3,1.4,1.5,2.1,3.7,2.1,6.5v1.9h-11.3c.2,1.2.6,2.1,1.4,2.8.8.7,1.7,1,2.9,1,1.8,0,3.2-.7,4.3-2l2.3,2.6c-.7,1-1.7,1.8-2.9,2.3-1.2.6-2.6.8-4,.8h0ZM1498.9,177.9c-.9,0-1.7.3-2.3,1-.6.6-1,1.5-1.1,2.7h6.6v-.4c0-1.1-.3-1.9-.9-2.4-.5-.6-1.3-.9-2.3-.9h0Z"/>
    <path class="st12" d="M1516.8,188.6c.9,0,1.6-.2,2.1-.7s.8-1.1.9-1.9h4.4c0,1.2-.3,2.3-1,3.3-.6,1-1.5,1.8-2.6,2.3-1.1.5-2.4.8-3.7.8-2.5,0-4.5-.8-6-2.4-1.5-1.6-2.2-3.8-2.2-6.7v-.3c0-2.7.7-4.9,2.2-6.5s3.4-2.4,6-2.4,4,.6,5.3,1.9c1.3,1.3,2,2.9,2,5h-4.4c0-.9-.3-1.7-.9-2.2s-1.3-.9-2.2-.9-1.9.4-2.5,1.2c-.6.8-.8,2.1-.8,3.9v.5c0,1.8.3,3.1.8,3.9s1.4,1.2,2.5,1.2h0Z"/>
    <path class="st12" d="M1531.5,176.4c1.3-1.5,2.8-2.3,4.7-2.3,3.8,0,5.8,2.2,5.8,6.7v11.3h-4.7v-11.2c0-1-.2-1.8-.7-2.3-.4-.5-1.2-.7-2.2-.7s-2.4.5-3,1.6v12.6h-4.7v-25.2h4.7v9.4Z"/>
    <path class="st12" d="M1550,174.4v2c1.4-1.6,3.1-2.4,5.2-2.4s3.3.6,4.2,1.7,1.4,2.8,1.4,4.9v11.4h-4.7v-11.4c0-1-.2-1.7-.7-2.2-.4-.5-1.2-.7-2.2-.7s-2.3.6-3,1.7v12.5h-4.7v-17.7h4.5Z"/>
    <path class="st12" d="M1564.4,169.8c0-.7.2-1.3.7-1.8.5-.5,1.1-.7,1.9-.7s1.5.2,1.9.7.7,1,.7,1.8-.2,1.3-.7,1.8-1.1.7-1.9.7-1.4-.2-1.9-.7c-.5-.5-.7-1-.7-1.8ZM1569.5,192.1h-4.7v-17.7h4.7v17.7Z"/>
    <path class="st12" d="M1580.7,188.6c.9,0,1.6-.2,2.1-.7s.8-1.1.9-1.9h4.4c0,1.2-.3,2.3-1,3.3-.6,1-1.5,1.8-2.6,2.3-1.1.5-2.4.8-3.7.8-2.5,0-4.5-.8-6-2.4-1.5-1.6-2.2-3.8-2.2-6.7v-.3c0-2.7.7-4.9,2.2-6.5s3.4-2.4,6-2.4,4,.6,5.3,1.9c1.3,1.3,2,2.9,2,5h-4.4c0-.9-.3-1.7-.9-2.2s-1.3-.9-2.2-.9-1.9.4-2.5,1.2c-.6.8-.8,2.1-.8,3.9v.5c0,1.8.3,3.1.8,3.9s1.4,1.2,2.5,1.2h0Z"/>
    <path class="st12" d="M1601.1,192.1c-.2-.4-.4-1-.5-1.6-1.1,1.3-2.6,1.9-4.5,1.9s-3.2-.5-4.3-1.5-1.7-2.3-1.7-3.8.7-3.3,2.1-4.3c1.4-1,3.4-1.5,6-1.5h2.2v-1c0-.8-.2-1.5-.6-2s-1.1-.7-2-.7-1.4.2-1.9.6-.7.9-.7,1.6h-4.7c0-1,.3-2,.9-2.8s1.5-1.6,2.7-2.1,2.5-.7,3.9-.7c2.2,0,3.9.5,5.2,1.6,1.3,1.1,1.9,2.6,1.9,4.6v7.7c0,1.7.2,3,.7,3.8v.3h-4.8ZM1597.2,188.8c.7,0,1.3-.2,1.9-.5.6-.3,1-.7,1.3-1.3v-3h-1.8c-2.4,0-3.6.8-3.8,2.5v.3c0,.6.2,1.1.6,1.5s1,.6,1.7.6Z"/>
    <path class="st12" d="M1613.8,192.1h-4.7v-25.2h4.7v25.2Z"/>
    <path class="st12" d="M1638.7,185.9c0-.9-.3-1.6-1-2.1s-1.8-1-3.5-1.6-3.1-1.1-4-1.6c-2.7-1.5-4.1-3.4-4.1-5.9s.4-2.4,1.1-3.4c.7-1,1.8-1.8,3.1-2.4,1.4-.6,2.9-.9,4.6-.9s3.2.3,4.6.9c1.3.6,2.4,1.5,3.1,2.6.7,1.1,1.1,2.4,1.1,3.8h-4.9c0-1.1-.3-1.9-1-2.5-.7-.6-1.7-.9-2.9-.9s-2.1.3-2.8.8c-.7.5-1,1.2-1,2s.4,1.4,1.2,1.9c.8.5,1.9,1,3.4,1.5,2.8.8,4.8,1.9,6.1,3.1s1.9,2.8,1.9,4.7-.8,3.7-2.3,4.9c-1.6,1.2-3.7,1.8-6.3,1.8s-3.5-.3-5-1c-1.5-.7-2.7-1.6-3.4-2.8-.8-1.2-1.2-2.5-1.2-4.1h4.9c0,2.6,1.6,3.9,4.7,3.9s2.1-.2,2.7-.7c.7-.5,1-1.1,1-2h0Z"/>
    <path class="st12" d="M1654.8,192.5c-2.6,0-4.7-.8-6.3-2.4-1.6-1.6-2.4-3.7-2.4-6.4v-.5c0-1.8.3-3.4,1-4.8s1.7-2.5,2.9-3.2c1.3-.8,2.7-1.1,4.3-1.1,2.4,0,4.3.8,5.7,2.3,1.4,1.5,2.1,3.7,2.1,6.5v1.9h-11.3c.2,1.2.6,2.1,1.4,2.8.8.7,1.7,1,2.9,1,1.8,0,3.2-.7,4.3-2l2.3,2.6c-.7,1-1.7,1.8-2.9,2.3-1.2.6-2.6.8-4,.8ZM1654.3,177.9c-.9,0-1.7.3-2.3,1-.6.6-1,1.5-1.1,2.7h6.6v-.4c0-1.1-.3-1.9-.9-2.4-.5-.6-1.3-.9-2.3-.9h0Z"/>
    <path class="st12" d="M1672.2,188.6c.9,0,1.6-.2,2.1-.7s.8-1.1.9-1.9h4.4c0,1.2-.3,2.3-1,3.3-.6,1-1.5,1.8-2.6,2.3-1.1.5-2.4.8-3.7.8-2.5,0-4.5-.8-6-2.4-1.5-1.6-2.2-3.8-2.2-6.7v-.3c0-2.7.7-4.9,2.2-6.5s3.4-2.4,6-2.4,4,.6,5.3,1.9c1.3,1.3,2,2.9,2,5h-4.4c0-.9-.3-1.7-.9-2.2s-1.3-.9-2.2-.9-1.9.4-2.5,1.2c-.6.8-.8,2.1-.8,3.9v.5c0,1.8.3,3.1.8,3.9s1.4,1.2,2.5,1.2h0Z"/>
    <path class="st12" d="M1692.3,178.9c-.6,0-1.2-.1-1.7-.1-1.8,0-3,.6-3.5,1.8v11.6h-4.7v-17.7h4.5v2.1c1.1-1.6,2.4-2.4,4.1-2.4s1,0,1.5.2v4.6c0,0,0,0,0,0Z"/>
    <path class="st12" d="M1702.4,192.5c-2.6,0-4.7-.8-6.3-2.4-1.6-1.6-2.4-3.7-2.4-6.4v-.5c0-1.8.3-3.4,1-4.8s1.7-2.5,2.9-3.2c1.3-.8,2.7-1.1,4.3-1.1,2.4,0,4.3.8,5.7,2.3,1.4,1.5,2.1,3.7,2.1,6.5v1.9h-11.3c.2,1.2.6,2.1,1.4,2.8.8.7,1.7,1,2.9,1,1.8,0,3.2-.7,4.3-2l2.3,2.6c-.7,1-1.7,1.8-2.9,2.3-1.2.6-2.6.8-4,.8h0ZM1701.8,177.9c-.9,0-1.7.3-2.3,1-.6.6-1,1.5-1.1,2.7h6.6v-.4c0-1.1-.3-1.9-.9-2.4-.5-.6-1.3-.9-2.3-.9h0Z"/>
    <path class="st12" d="M1718,170.1v4.4h3v3.5h-3v8.8c0,.7.1,1.1.4,1.4s.7.4,1.4.4,1,0,1.4-.1v3.6c-.9.3-1.9.4-2.9.4-3.3,0-5-1.7-5.1-5v-9.5h-2.6v-3.5h2.6v-4.4h4.7Z"/>
    <path class="st12" d="M1733.9,192.1c-.2-.4-.4-1-.5-1.6-1.1,1.3-2.6,1.9-4.5,1.9s-3.2-.5-4.3-1.5-1.7-2.3-1.7-3.8.7-3.3,2.1-4.3c1.4-1,3.4-1.5,6-1.5h2.2v-1c0-.8-.2-1.5-.6-2s-1.1-.7-2-.7-1.4.2-1.9.6-.7.9-.7,1.6h-4.7c0-1,.3-2,.9-2.8s1.5-1.6,2.7-2.1,2.5-.7,3.9-.7c2.2,0,3.9.5,5.2,1.6,1.3,1.1,1.9,2.6,1.9,4.6v7.7c0,1.7.2,3,.7,3.8v.3h-4.8ZM1730,188.8c.7,0,1.3-.2,1.9-.5.6-.3,1-.7,1.3-1.3v-3h-1.8c-2.4,0-3.6.8-3.8,2.5v.3c0,.6.2,1.1.6,1.5s1,.6,1.7.6Z"/>
    <path class="st12" d="M1751.6,178.9c-.6,0-1.2-.1-1.7-.1-1.8,0-3,.6-3.5,1.8v11.6h-4.7v-17.7h4.5v2.1c1.1-1.6,2.4-2.4,4.1-2.4s1,0,1.5.2v4.6c0,0,0,0,0,0Z"/>
    <path class="st12" d="M1753.9,169.8c0-.7.2-1.3.7-1.8.5-.5,1.1-.7,1.9-.7s1.5.2,1.9.7.7,1,.7,1.8-.2,1.3-.7,1.8-1.1.7-1.9.7-1.4-.2-1.9-.7c-.5-.5-.7-1-.7-1.8ZM1758.9,192.1h-4.7v-17.7h4.7v17.7Z"/>
    <path class="st12" d="M1773,192.1c-.2-.4-.4-1-.5-1.6-1.1,1.3-2.6,1.9-4.5,1.9s-3.2-.5-4.3-1.5-1.7-2.3-1.7-3.8.7-3.3,2.1-4.3c1.4-1,3.4-1.5,6-1.5h2.2v-1c0-.8-.2-1.5-.6-2s-1.1-.7-2-.7-1.4.2-1.9.6-.7.9-.7,1.6h-4.7c0-1,.3-2,.9-2.8s1.5-1.6,2.7-2.1,2.5-.7,3.9-.7c2.2,0,3.9.5,5.2,1.6,1.3,1.1,1.9,2.6,1.9,4.6v7.7c0,1.7.2,3,.7,3.8v.3h-4.8ZM1769.1,188.8c.7,0,1.3-.2,1.9-.5.6-.3,1-.7,1.3-1.3v-3h-1.8c-2.4,0-3.6.8-3.8,2.5v.3c0,.6.2,1.1.6,1.5s1,.6,1.7.6Z"/>
    <path class="st12" d="M1786.4,170.1v4.4h3v3.5h-3v8.8c0,.7.1,1.1.4,1.4s.7.4,1.4.4,1,0,1.4-.1v3.6c-.9.3-1.9.4-2.9.4-3.3,0-5-1.7-5.1-5v-9.5h-2.6v-3.5h2.6v-4.4h4.7Z"/>
    <path class="st12" d="M1476.3,243.4h-3.1v-23.8h3.1v23.8Z"/>
    <path class="st12" d="M1484.5,225.7v2.2c1.5-1.7,3.2-2.6,5.4-2.6,3.7,0,5.6,2.1,5.7,6.3v11.7h-3v-11.7c0-1.3-.3-2.2-.9-2.8-.6-.6-1.5-.9-2.7-.9s-1.8.3-2.6.8-1.3,1.2-1.7,2.1v12.6h-3v-17.7h2.9Z"/>
    <path class="st12" d="M1510.4,238.7c0-.8-.3-1.5-.9-1.9-.6-.5-1.7-.8-3.2-1.2s-2.8-.7-3.6-1.2c-.9-.5-1.6-1-2-1.6-.4-.6-.6-1.4-.6-2.3,0-1.5.6-2.7,1.8-3.7,1.2-1,2.8-1.5,4.7-1.5s3.6.5,4.9,1.6,1.9,2.4,1.9,4h-3c0-.8-.4-1.5-1.1-2.1-.7-.6-1.6-.9-2.7-.9s-2,.2-2.6.7-.9,1.1-.9,1.9.3,1.3.9,1.7,1.6.7,3.1,1.1c1.5.3,2.7.7,3.7,1.2s1.6,1,2.1,1.7c.5.7.7,1.5.7,2.4,0,1.6-.6,2.9-1.9,3.8-1.3,1-2.9,1.4-4.9,1.4s-2.7-.3-3.8-.8-1.9-1.2-2.6-2.1c-.6-.9-.9-1.9-.9-2.9h3c0,1,.5,1.8,1.2,2.4.8.6,1.8.9,3,.9s2.1-.2,2.8-.7c.7-.5,1-1.1,1-1.9h0Z"/>
    <path class="st12" d="M1532.4,234.7c0,2.7-.6,4.9-1.9,6.5s-2.9,2.5-5,2.5-3.8-.7-5.1-2v8.5h-3v-24.5h2.8v2c1.4-1.5,3.1-2.3,5.3-2.3s3.8.8,5.1,2.4,1.9,3.8,1.9,6.7v.3h0ZM1529.3,234.4c0-2-.4-3.6-1.3-4.7s-2-1.7-3.5-1.7-3.2.8-4.1,2.4v8.5c.9,1.6,2.3,2.4,4.2,2.4s2.6-.6,3.5-1.7,1.3-2.9,1.3-5.1h0Z"/>
    <path class="st12" d="M1543.6,243.7c-2.4,0-4.4-.8-5.9-2.4s-2.3-3.7-2.3-6.3v-.6c0-1.8.3-3.3,1-4.7.7-1.4,1.6-2.5,2.8-3.2s2.5-1.2,3.9-1.2c2.3,0,4.1.8,5.4,2.3s1.9,3.7,1.9,6.5v1.3h-12c0,1.7.6,3.2,1.5,4.2,1,1.1,2.2,1.6,3.7,1.6s2-.2,2.7-.7,1.4-1,1.9-1.7l1.9,1.4c-1.5,2.3-3.7,3.4-6.7,3.4h0ZM1543.2,227.8c-1.2,0-2.2.4-3.1,1.3s-1.3,2.1-1.5,3.7h8.9v-.2c0-1.5-.5-2.7-1.2-3.6s-1.7-1.3-3-1.3Z"/>
    <path class="st12" d="M1561.1,241.2c1.1,0,2-.3,2.8-1s1.3-1.5,1.3-2.5h2.9c0,1-.4,2-1,2.9s-1.5,1.6-2.6,2.2-2.2.8-3.4.8c-2.4,0-4.3-.8-5.8-2.4-1.4-1.6-2.1-3.8-2.1-6.6v-.5c0-1.7.3-3.3.9-4.6s1.5-2.4,2.7-3.1,2.6-1.1,4.2-1.1,3.6.6,5,1.8c1.3,1.2,2,2.7,2.1,4.6h-2.9c0-1.1-.5-2.1-1.3-2.8-.8-.7-1.7-1.1-2.9-1.1s-2.7.6-3.6,1.7-1.3,2.7-1.3,4.8v.6c0,2,.4,3.6,1.3,4.7s2,1.7,3.6,1.7h0Z"/>
    <path class="st12" d="M1575.7,221.4v4.3h3.3v2.3h-3.3v11c0,.7.1,1.2.4,1.6s.8.5,1.5.5.8,0,1.4-.2v2.4c-.8.2-1.6.3-2.3.3-1.4,0-2.4-.4-3.1-1.2s-1-2-1-3.5v-11h-3.2v-2.3h3.2v-4.3h3Z"/>
    <path class="st12" d="M1581.4,234.3c0-1.7.3-3.3,1-4.7.7-1.4,1.6-2.5,2.8-3.2,1.2-.8,2.6-1.1,4.2-1.1,2.4,0,4.4.8,5.9,2.5,1.5,1.7,2.2,3.9,2.2,6.7v.2c0,1.7-.3,3.3-1,4.6-.7,1.4-1.6,2.4-2.8,3.2-1.2.8-2.6,1.1-4.2,1.1-2.4,0-4.3-.8-5.8-2.5-1.5-1.7-2.2-3.9-2.2-6.6v-.2h0ZM1584.4,234.7c0,2,.5,3.5,1.4,4.7s2.1,1.8,3.7,1.8,2.8-.6,3.7-1.8c.9-1.2,1.4-2.9,1.4-5.1s-.5-3.5-1.4-4.7c-.9-1.2-2.1-1.8-3.7-1.8s-2.7.6-3.6,1.8-1.4,2.9-1.4,5.1h0Z"/>
    <path class="st12" d="M1609.9,228.4c-.5,0-1-.1-1.5-.1-2,0-3.3.8-4,2.5v12.6h-3v-17.7h2.9v2c1-1.6,2.5-2.4,4.3-2.4s1,0,1.3.2v2.8h0Z"/>
    <path class="st12" d="M1622.9,243.4c-.2-.3-.3-1-.4-1.9-1.4,1.5-3.1,2.2-5,2.2s-3.2-.5-4.3-1.5c-1.1-1-1.7-2.2-1.7-3.8s.7-3.3,2.1-4.3c1.4-1,3.4-1.5,5.9-1.5h2.9v-1.4c0-1.1-.3-1.9-.9-2.5-.6-.6-1.6-.9-2.8-.9s-2,.3-2.7.8-1.1,1.2-1.1,2h-3c0-.9.3-1.7.9-2.6s1.5-1.5,2.6-2,2.3-.7,3.5-.7c2,0,3.6.5,4.8,1.5s1.8,2.4,1.8,4.2v8.2c0,1.6.2,2.9.6,3.9v.3h-3.2ZM1617.9,241.1c.9,0,1.9-.2,2.7-.7s1.5-1.1,1.9-1.9v-3.6h-2.4c-3.7,0-5.6,1.1-5.6,3.3s.3,1.7.9,2.2,1.4.8,2.4.8h0Z"/>
    <path class="st12" d="M1634.3,221.4v4.3h3.3v2.3h-3.3v11c0,.7.1,1.2.4,1.6s.8.5,1.5.5.8,0,1.4-.2v2.4c-.8.2-1.6.3-2.3.3-1.4,0-2.4-.4-3.1-1.2s-1-2-1-3.5v-11h-3.2v-2.3h3.2v-4.3h3Z"/>
    <path class="st12" d="M1648.5,243.7c-2.4,0-4.4-.8-5.9-2.4s-2.3-3.7-2.3-6.3v-.6c0-1.8.3-3.3,1-4.7.7-1.4,1.6-2.5,2.8-3.2s2.5-1.2,3.9-1.2c2.3,0,4.1.8,5.4,2.3s1.9,3.7,1.9,6.5v1.3h-12c0,1.7.6,3.2,1.5,4.2,1,1.1,2.2,1.6,3.7,1.6s2-.2,2.7-.7,1.4-1,1.9-1.7l1.9,1.4c-1.5,2.3-3.7,3.4-6.7,3.4h0ZM1648.2,227.8c-1.2,0-2.2.4-3.1,1.3s-1.3,2.1-1.5,3.7h8.9v-.2c0-1.5-.5-2.7-1.2-3.6s-1.7-1.3-3-1.3Z"/>
    <path class="st12" d="M1489.4,273.3h-7.7v21.3h-3.1v-21.3h-7.6v-2.6h18.4v2.6Z"/>
    <path class="st12" d="M1498.2,294.9c-2.4,0-4.4-.8-5.9-2.4s-2.3-3.7-2.3-6.3v-.6c0-1.8.3-3.3,1-4.7.7-1.4,1.6-2.5,2.8-3.2s2.5-1.2,3.9-1.2c2.3,0,4.1.8,5.4,2.3,1.3,1.5,1.9,3.7,1.9,6.5v1.3h-12c0,1.7.6,3.2,1.5,4.2,1,1.1,2.2,1.6,3.7,1.6s2-.2,2.7-.7,1.4-1,1.9-1.7l1.9,1.4c-1.5,2.3-3.7,3.4-6.7,3.4h0ZM1497.9,279c-1.2,0-2.2.4-3.1,1.3s-1.3,2.1-1.5,3.7h8.9v-.2c0-1.5-.5-2.7-1.2-3.6s-1.7-1.3-3-1.3Z"/>
    <path class="st12" d="M1515.8,292.5c1.1,0,2-.3,2.8-1s1.3-1.5,1.3-2.5h2.9c0,1-.4,2-1,2.9s-1.5,1.6-2.6,2.2-2.2.8-3.4.8c-2.4,0-4.3-.8-5.8-2.4-1.4-1.6-2.1-3.8-2.1-6.6v-.5c0-1.7.3-3.3.9-4.6s1.5-2.4,2.7-3.1,2.6-1.1,4.2-1.1,3.6.6,5,1.8c1.3,1.2,2,2.7,2.1,4.6h-2.9c0-1.1-.5-2.1-1.3-2.8-.8-.7-1.7-1.1-2.9-1.1s-2.7.6-3.6,1.7-1.3,2.7-1.3,4.8v.6c0,2,.4,3.6,1.3,4.7s2,1.7,3.6,1.7h0Z"/>
    <path class="st12" d="M1529.2,279c1.3-1.6,3.1-2.5,5.2-2.5,3.7,0,5.6,2.1,5.7,6.3v11.7h-3v-11.7c0-1.3-.3-2.2-.9-2.8-.6-.6-1.5-.9-2.7-.9s-1.8.3-2.6.8-1.3,1.2-1.7,2.1v12.6h-3v-25.2h3v9.6h0Z"/>
    <path class="st12" d="M1547.5,276.9v2.2c1.5-1.7,3.2-2.6,5.4-2.6,3.7,0,5.6,2.1,5.7,6.3v11.7h-3v-11.7c0-1.3-.3-2.2-.9-2.8-.6-.6-1.5-.9-2.7-.9s-1.8.3-2.6.8-1.3,1.2-1.7,2.1v12.6h-3v-17.7h2.9,0Z"/>
    <path class="st12" d="M1563.2,272.2c0-.5.1-.9.4-1.2s.7-.5,1.3-.5,1,.2,1.3.5.5.8.5,1.2-.2.9-.5,1.2-.8.5-1.3.5-1-.2-1.3-.5-.4-.7-.4-1.2ZM1566.5,294.6h-3v-17.7h3v17.7Z"/>
    <path class="st12" d="M1578.4,292.5c1.1,0,2-.3,2.8-1s1.3-1.5,1.3-2.5h2.9c0,1-.4,2-1,2.9s-1.5,1.6-2.6,2.2-2.2.8-3.4.8c-2.4,0-4.3-.8-5.8-2.4-1.4-1.6-2.1-3.8-2.1-6.6v-.5c0-1.7.3-3.3.9-4.6s1.5-2.4,2.7-3.1,2.6-1.1,4.2-1.1,3.6.6,5,1.8c1.3,1.2,2,2.7,2.1,4.6h-2.9c0-1.1-.5-2.1-1.3-2.8-.8-.7-1.7-1.1-2.9-1.1s-2.7.6-3.6,1.7-1.3,2.7-1.3,4.8v.6c0,2,.4,3.6,1.3,4.7s2,1.7,3.6,1.7Z"/>
    <path class="st12" d="M1599.8,294.6c-.2-.3-.3-1-.4-1.9-1.4,1.5-3.1,2.2-5,2.2s-3.2-.5-4.3-1.5c-1.1-1-1.7-2.2-1.7-3.8s.7-3.3,2.1-4.3c1.4-1,3.4-1.5,5.9-1.5h2.9v-1.4c0-1.1-.3-1.9-.9-2.5-.6-.6-1.6-.9-2.8-.9s-2,.3-2.7.8-1.1,1.2-1.1,2h-3c0-.9.3-1.7.9-2.6s1.5-1.5,2.6-2,2.3-.7,3.5-.7c2,0,3.6.5,4.8,1.5s1.8,2.4,1.8,4.2v8.2c0,1.6.2,2.9.6,3.9v.3h-3.2ZM1594.8,292.3c.9,0,1.9-.2,2.7-.7s1.5-1.1,1.9-1.9v-3.6h-2.4c-3.7,0-5.6,1.1-5.6,3.3s.3,1.7.9,2.2,1.4.8,2.4.8h0Z"/>
    <path class="st12" d="M1610.4,294.6h-3v-25.2h3v25.2Z"/>
    <path class="st12" d="M1631,284c-2.7-.8-4.7-1.7-5.9-2.9-1.2-1.1-1.8-2.5-1.8-4.2s.7-3.4,2.3-4.7c1.5-1.2,3.5-1.8,5.9-1.8s3.1.3,4.4.9,2.3,1.5,3,2.6c.7,1.1,1.1,2.3,1.1,3.7h-3.2c0-1.4-.5-2.6-1.4-3.4s-2.2-1.2-3.9-1.2-2.8.3-3.6,1c-.9.7-1.3,1.6-1.3,2.8s.4,1.8,1.2,2.5c.8.7,2.2,1.3,4.2,1.8,2,.6,3.5,1.2,4.7,1.8,1.1.7,2,1.5,2.5,2.3.5.9.8,1.9.8,3.2,0,1.9-.8,3.5-2.3,4.6-1.5,1.2-3.5,1.7-6,1.7s-3.2-.3-4.6-.9c-1.4-.6-2.5-1.5-3.3-2.6-.8-1.1-1.2-2.3-1.2-3.7h3.2c0,1.4.5,2.6,1.6,3.4,1.1.8,2.5,1.3,4.3,1.3s2.9-.3,3.8-1,1.3-1.6,1.3-2.8-.4-2.1-1.2-2.7c-.8-.6-2.3-1.3-4.5-1.9h0Z"/>
    <path class="st12" d="M1647.6,272.6v4.3h3.3v2.3h-3.3v11c0,.7.1,1.2.4,1.6s.8.5,1.5.5.8,0,1.4-.2v2.4c-.8.2-1.6.3-2.3.3-1.4,0-2.4-.4-3.1-1.2s-1-2-1-3.5v-11h-3.2v-2.3h3.2v-4.3h3Z"/>
    <path class="st12" d="M1665.3,294.6c-.2-.3-.3-1-.4-1.9-1.4,1.5-3.1,2.2-5,2.2s-3.2-.5-4.3-1.5c-1.1-1-1.7-2.2-1.7-3.8s.7-3.3,2.1-4.3c1.4-1,3.4-1.5,5.9-1.5h2.9v-1.4c0-1.1-.3-1.9-.9-2.5-.6-.6-1.6-.9-2.8-.9s-2,.3-2.7.8-1.1,1.2-1.1,2h-3c0-.9.3-1.7.9-2.6s1.5-1.5,2.6-2,2.3-.7,3.5-.7c2,0,3.6.5,4.8,1.5s1.8,2.4,1.8,4.2v8.2c0,1.6.2,2.9.6,3.9v.3h-3.2ZM1660.3,292.3c.9,0,1.9-.2,2.7-.7s1.5-1.1,1.9-1.9v-3.6h-2.4c-3.7,0-5.6,1.1-5.6,3.3s.3,1.7.9,2.2,1.4.8,2.4.8h0Z"/>
    <path class="st12" d="M1674.1,294.6v-15.4h-2.8v-2.3h2.8v-1.8c0-1.9.5-3.4,1.5-4.4s2.5-1.6,4.3-1.6,1.4,0,2.1.3l-.2,2.4c-.5,0-1.1-.1-1.6-.1-1,0-1.7.3-2.3.9s-.8,1.4-.8,2.5v1.9h3.8v2.3h-3.8v15.4h-3Z"/>
    <path class="st12" d="M1685.8,294.6v-15.4h-2.8v-2.3h2.8v-1.8c0-1.9.5-3.4,1.5-4.4s2.5-1.6,4.3-1.6,1.4,0,2.1.3l-.2,2.4c-.5,0-1.1-.1-1.6-.1-1,0-1.7.3-2.3.9s-.8,1.4-.8,2.5v1.9h3.8v2.3h-3.8v15.4h-3Z"/>
    <path class="st12" d="M1486.1,339.6h-10l-2.2,6.2h-3.2l9.1-23.8h2.8l9.1,23.8h-3.2l-2.3-6.2h0ZM1477.1,337h8.1l-4.1-11.2-4,11.2h0Z"/>
    <path class="st12" d="M1493.6,336.8c0-2.7.6-4.9,1.9-6.6,1.3-1.7,3-2.5,5.1-2.5s3.7.7,4.9,2.1v-9.2h3v25.2h-2.8v-1.9c-1.4,1.5-3,2.2-5.2,2.2s-3.7-.8-5-2.5c-1.3-1.7-1.9-3.9-1.9-6.6v-.2h0ZM1496.7,337.2c0,2,.4,3.6,1.2,4.7s2,1.7,3.4,1.7,3.3-.9,4.2-2.6v-8.1c-.9-1.7-2.3-2.5-4.2-2.5s-2.6.6-3.5,1.7-1.2,2.8-1.2,5.1h0Z"/>
    <path class="st12" d="M1516.1,328.1v2c1.4-1.5,3.1-2.3,5.3-2.3s4.2.9,5.1,2.8c.6-.9,1.4-1.5,2.3-2.1.9-.5,2.1-.8,3.3-.8,3.9,0,5.9,2.1,5.9,6.2v11.9h-3v-11.7c0-1.3-.3-2.2-.9-2.8-.6-.6-1.6-.9-2.9-.9s-2.1.3-2.8,1c-.7.7-1.2,1.6-1.3,2.7v11.8h-3v-11.6c0-2.6-1.3-3.9-3.8-3.9s-3.3.8-4.1,2.5v12.9h-3v-17.7h2.9,0Z"/>
    <path class="st12" d="M1542.7,323.4c0-.5.1-.9.4-1.2s.7-.5,1.3-.5,1,.2,1.3.5.5.8.5,1.2-.2.9-.5,1.2-.8.5-1.3.5-1-.2-1.3-.5-.4-.7-.4-1.2ZM1546,345.8h-3v-17.7h3v17.7Z"/>
    <path class="st12" d="M1553.7,328.1v2.2c1.5-1.7,3.2-2.6,5.4-2.6,3.7,0,5.6,2.1,5.7,6.3v11.7h-3v-11.7c0-1.3-.3-2.2-.9-2.8-.6-.6-1.5-.9-2.7-.9s-1.8.3-2.6.8-1.3,1.2-1.7,2.1v12.6h-3v-17.7h2.9Z"/>
    <path class="st12" d="M1569.3,323.4c0-.5.1-.9.4-1.2s.7-.5,1.3-.5,1,.2,1.3.5.5.8.5,1.2-.2.9-.5,1.2-.8.5-1.3.5-1-.2-1.3-.5-.4-.7-.4-1.2ZM1572.6,345.8h-3v-17.7h3v17.7Z"/>
    <path class="st12" d="M1587.8,341.1c0-.8-.3-1.5-.9-1.9-.6-.5-1.7-.8-3.2-1.2s-2.8-.7-3.6-1.2c-.9-.5-1.6-1-2-1.6-.4-.6-.6-1.4-.6-2.3,0-1.5.6-2.7,1.8-3.7,1.2-1,2.8-1.5,4.7-1.5s3.6.5,4.9,1.6,1.9,2.4,1.9,4h-3c0-.8-.4-1.5-1.1-2.1-.7-.6-1.6-.9-2.7-.9s-2,.2-2.6.7-.9,1.1-.9,1.9.3,1.3.9,1.7,1.6.7,3.1,1.1c1.5.3,2.7.7,3.7,1.2s1.6,1,2.1,1.7c.5.7.7,1.5.7,2.4,0,1.6-.6,2.9-1.9,3.8-1.3,1-2.9,1.4-4.9,1.4s-2.7-.3-3.8-.8-1.9-1.2-2.6-2.1c-.6-.9-.9-1.9-.9-2.9h3c0,1,.5,1.8,1.2,2.4.8.6,1.8.9,3,.9s2.1-.2,2.8-.7c.7-.5,1-1.1,1-1.9h0Z"/>
    <path class="st12" d="M1598.9,323.8v4.3h3.3v2.3h-3.3v11c0,.7.1,1.2.4,1.6s.8.5,1.5.5.8,0,1.4-.2v2.4c-.8.2-1.6.3-2.3.3-1.4,0-2.4-.4-3.1-1.2s-1-2-1-3.5v-11h-3.2v-2.3h3.2v-4.3h3Z"/>
    <path class="st12" d="M1614.3,330.8c-.5,0-1-.1-1.5-.1-2,0-3.3.8-4,2.5v12.6h-3v-17.7h2.9v2c1-1.6,2.5-2.4,4.3-2.4s1,0,1.3.2v2.8h0Z"/>
    <path class="st12" d="M1627.3,345.8c-.2-.3-.3-1-.4-1.9-1.4,1.5-3.1,2.2-5,2.2s-3.2-.5-4.3-1.5c-1.1-1-1.7-2.2-1.7-3.8s.7-3.3,2.1-4.3c1.4-1,3.4-1.5,5.9-1.5h2.9v-1.4c0-1.1-.3-1.9-.9-2.5-.6-.6-1.6-.9-2.8-.9s-2,.3-2.7.8-1.1,1.2-1.1,2h-3c0-.9.3-1.7.9-2.6s1.5-1.5,2.6-2,2.3-.7,3.5-.7c2,0,3.6.5,4.8,1.5s1.8,2.4,1.8,4.2v8.2c0,1.6.2,2.9.6,3.9v.3h-3.2ZM1622.3,343.5c.9,0,1.9-.2,2.7-.7s1.5-1.1,1.9-1.9v-3.6h-2.4c-3.7,0-5.6,1.1-5.6,3.3s.3,1.7.9,2.2,1.4.8,2.4.8h0Z"/>
    <path class="st12" d="M1638.7,323.8v4.3h3.3v2.3h-3.3v11c0,.7.1,1.2.4,1.6s.8.5,1.5.5.8,0,1.4-.2v2.4c-.8.2-1.6.3-2.3.3-1.4,0-2.4-.4-3.1-1.2s-1-2-1-3.5v-11h-3.2v-2.3h3.2v-4.3h3Z"/>
    <path class="st12" d="M1645.6,323.4c0-.5.1-.9.4-1.2s.7-.5,1.3-.5,1,.2,1.3.5.5.8.5,1.2-.2.9-.5,1.2-.8.5-1.3.5-1-.2-1.3-.5-.4-.7-.4-1.2ZM1648.9,345.8h-3v-17.7h3v17.7Z"/>
    <path class="st12" d="M1659.6,341.7l4.4-13.6h3.1l-6.4,17.7h-2.3l-6.4-17.7h3.1l4.5,13.6Z"/>
    <path class="st12" d="M1677.1,346.2c-2.4,0-4.4-.8-5.9-2.4s-2.3-3.7-2.3-6.3v-.6c0-1.8.3-3.3,1-4.7.7-1.4,1.6-2.5,2.8-3.2s2.5-1.2,3.9-1.2c2.3,0,4.1.8,5.4,2.3s1.9,3.7,1.9,6.5v1.3h-12c0,1.7.6,3.2,1.5,4.2,1,1.1,2.2,1.6,3.7,1.6s2-.2,2.7-.7,1.4-1,1.9-1.7l1.9,1.4c-1.5,2.3-3.7,3.4-6.7,3.4h0ZM1676.7,330.3c-1.2,0-2.2.4-3.1,1.3s-1.3,2.1-1.5,3.7h8.9v-.2c0-1.5-.5-2.7-1.2-3.6s-1.7-1.3-3-1.3Z"/>
    <path class="st12" d="M1703.3,335.2c-2.7-.8-4.7-1.7-5.9-2.9-1.2-1.1-1.8-2.5-1.8-4.2s.7-3.4,2.3-4.7c1.5-1.2,3.5-1.8,5.9-1.8s3.1.3,4.4.9,2.3,1.5,3,2.6c.7,1.1,1.1,2.3,1.1,3.7h-3.2c0-1.4-.5-2.6-1.4-3.4s-2.2-1.2-3.9-1.2-2.8.3-3.6,1c-.9.7-1.3,1.6-1.3,2.8s.4,1.8,1.2,2.5c.8.7,2.2,1.3,4.2,1.8,2,.6,3.5,1.2,4.7,1.8,1.1.7,2,1.5,2.5,2.3.5.9.8,1.9.8,3.2,0,1.9-.8,3.5-2.3,4.6-1.5,1.2-3.5,1.7-6,1.7s-3.2-.3-4.6-.9c-1.4-.6-2.5-1.5-3.3-2.6-.8-1.1-1.2-2.3-1.2-3.7h3.2c0,1.4.5,2.6,1.6,3.4,1.1.8,2.5,1.3,4.3,1.3s2.9-.3,3.8-1,1.3-1.6,1.3-2.8-.4-2.1-1.2-2.7c-.8-.6-2.3-1.3-4.5-1.9h0Z"/>
    <path class="st12" d="M1719.8,323.8v4.3h3.3v2.3h-3.3v11c0,.7.1,1.2.4,1.6s.8.5,1.5.5.8,0,1.4-.2v2.4c-.8.2-1.6.3-2.3.3-1.4,0-2.4-.4-3.1-1.2s-1-2-1-3.5v-11h-3.2v-2.3h3.2v-4.3h3Z"/>
    <path class="st12" d="M1737.6,345.8c-.2-.3-.3-1-.4-1.9-1.4,1.5-3.1,2.2-5,2.2s-3.2-.5-4.3-1.5c-1.1-1-1.7-2.2-1.7-3.8s.7-3.3,2.1-4.3c1.4-1,3.4-1.5,5.9-1.5h2.9v-1.4c0-1.1-.3-1.9-.9-2.5-.6-.6-1.6-.9-2.8-.9s-2,.3-2.7.8-1.1,1.2-1.1,2h-3c0-.9.3-1.7.9-2.6s1.5-1.5,2.6-2,2.3-.7,3.5-.7c2,0,3.6.5,4.8,1.5s1.8,2.4,1.8,4.2v8.2c0,1.6.2,2.9.6,3.9v.3h-3.2ZM1732.6,343.5c.9,0,1.9-.2,2.7-.7s1.5-1.1,1.9-1.9v-3.6h-2.4c-3.7,0-5.6,1.1-5.6,3.3s.3,1.7.9,2.2,1.4.8,2.4.8h0Z"/>
    <path class="st12" d="M1746.4,345.8v-15.4h-2.8v-2.3h2.8v-1.8c0-1.9.5-3.4,1.5-4.4s2.5-1.6,4.3-1.6,1.4,0,2.1.3l-.2,2.4c-.5,0-1.1-.1-1.6-.1-1,0-1.7.3-2.3.9s-.8,1.4-.8,2.5v1.9h3.8v2.3h-3.8v15.4h-3Z"/>
    <path class="st12" d="M1758.1,345.8v-15.4h-2.8v-2.3h2.8v-1.8c0-1.9.5-3.4,1.5-4.4s2.5-1.6,4.3-1.6,1.4,0,2.1.3l-.2,2.4c-.5,0-1.1-.1-1.6-.1-1,0-1.7.3-2.3.9s-.8,1.4-.8,2.5v1.9h3.8v2.3h-3.8v15.4h-3Z"/>
  </g>
  <g>
    <path class="st12" d="M905.6,571.3c0-.9-.3-1.6-1-2.1s-1.8-1-3.5-1.6-3.1-1.1-4-1.6c-2.7-1.5-4.1-3.4-4.1-5.9s.4-2.4,1.1-3.4c.7-1,1.8-1.8,3.1-2.4,1.4-.6,2.9-.9,4.6-.9s3.2.3,4.6.9c1.3.6,2.4,1.5,3.1,2.6.7,1.1,1.1,2.4,1.1,3.8h-4.9c0-1.1-.3-1.9-1-2.5-.7-.6-1.7-.9-2.9-.9s-2.1.3-2.8.8c-.7.5-1,1.2-1,2s.4,1.4,1.2,1.9c.8.5,1.9,1,3.4,1.5,2.8.8,4.8,1.9,6.1,3.1s1.9,2.8,1.9,4.7-.8,3.7-2.3,4.9c-1.6,1.2-3.7,1.8-6.3,1.8s-3.5-.3-5-1c-1.5-.7-2.7-1.6-3.4-2.8-.8-1.2-1.2-2.5-1.2-4.1h4.9c0,2.6,1.6,3.9,4.7,3.9s2.1-.2,2.7-.7c.7-.5,1-1.1,1-2h0Z"/>
    <path class="st12" d="M924.1,575.8c-1.2,1.4-2.8,2.1-4.8,2.1s-3.3-.5-4.3-1.6c-1-1.1-1.5-2.7-1.5-4.8v-11.6h4.7v11.5c0,1.8.8,2.8,2.5,2.8s2.7-.6,3.3-1.7v-12.6h4.7v17.7h-4.5v-1.8q-.1,0-.1,0Z"/>
    <path class="st12" d="M948.2,568.9c0,2.8-.6,5.1-1.8,6.6-1.2,1.6-2.9,2.4-5.1,2.4s-3.5-.7-4.6-2.2l-.2,1.9h-4.3v-25.2h4.7v9c1.1-1.3,2.5-1.9,4.3-1.9s3.9.8,5.1,2.4c1.2,1.6,1.8,3.8,1.8,6.7v.3h0ZM943.5,568.5c0-1.8-.3-3.1-.9-3.9-.6-.8-1.4-1.2-2.5-1.2s-2.5.6-3.1,1.9v7c.6,1.2,1.6,1.9,3.1,1.9s2.5-.8,3-2.3c.2-.7.3-1.8.3-3.3Z"/>
    <path class="st12" d="M960.7,572.7c0-.6-.3-1-.9-1.4-.6-.3-1.5-.6-2.8-.9-4.2-.9-6.3-2.7-6.3-5.4s.7-2.9,2-3.9c1.3-1.1,3-1.6,5.1-1.6s4,.5,5.4,1.6c1.3,1.1,2,2.4,2,4.1h-4.7c0-.7-.2-1.2-.7-1.7-.4-.4-1.1-.7-2-.7s-1.4.2-1.9.5-.7.8-.7,1.4.2.9.7,1.3c.5.3,1.3.6,2.5.8s2.2.5,3,.8c2.5.9,3.7,2.5,3.7,4.8s-.7,2.9-2.1,3.9c-1.4,1-3.2,1.5-5.4,1.5s-2.8-.3-4-.8c-1.2-.5-2.1-1.3-2.7-2.2-.7-.9-1-1.9-1-3h4.5c0,.8.4,1.5.9,1.9s1.4.7,2.3.7,1.6-.2,2.1-.5c.5-.3.7-.8.7-1.4h0Z"/>
    <path class="st12" d="M968.4,555.2c0-.7.2-1.3.7-1.8.5-.5,1.1-.7,1.9-.7s1.5.2,1.9.7.7,1,.7,1.8-.2,1.3-.7,1.8-1.1.7-1.9.7-1.4-.2-1.9-.7c-.5-.5-.7-1-.7-1.8h0ZM973.4,577.6h-4.7v-17.7h4.7v17.7Z"/>
    <path class="st12" d="M976.5,568.6c0-2.8.6-5,1.9-6.6,1.2-1.6,2.9-2.5,5.1-2.5s3.1.6,4.3,1.9v-9h4.7v25.2h-4.3l-.2-1.9c-1.2,1.5-2.7,2.2-4.6,2.2s-3.8-.8-5-2.5c-1.3-1.6-1.9-3.9-1.9-6.9h0ZM981.3,568.9c0,1.7.3,2.9.9,3.8.6.9,1.4,1.3,2.5,1.3s2.5-.6,3.1-1.9v-7c-.6-1.2-1.6-1.9-3.1-1.9-2.3,0-3.4,1.9-3.4,5.6h0Z"/>
    <path class="st12" d="M996.1,555.2c0-.7.2-1.3.7-1.8.5-.5,1.1-.7,1.9-.7s1.5.2,1.9.7.7,1,.7,1.8-.2,1.3-.7,1.8-1.1.7-1.9.7-1.4-.2-1.9-.7c-.5-.5-.7-1-.7-1.8h0ZM1001.2,577.6h-4.7v-17.7h4.7v17.7Z"/>
    <path class="st12" d="M1015.3,577.6c-.2-.4-.4-1-.5-1.6-1.1,1.3-2.6,1.9-4.5,1.9s-3.2-.5-4.3-1.5-1.7-2.3-1.7-3.8.7-3.3,2.1-4.3c1.4-1,3.4-1.5,6-1.5h2.2v-1c0-.8-.2-1.5-.6-2s-1.1-.7-2-.7-1.4.2-1.9.6-.7.9-.7,1.6h-4.7c0-1,.3-2,.9-2.8s1.5-1.6,2.7-2.1,2.5-.7,3.9-.7c2.2,0,3.9.5,5.2,1.6,1.3,1.1,1.9,2.6,1.9,4.6v7.7c0,1.7.2,3,.7,3.8v.3h-4.8ZM1011.4,574.3c.7,0,1.3-.2,1.9-.5.6-.3,1-.7,1.3-1.3v-3h-1.8c-2.4,0-3.6.8-3.8,2.5v.3c0,.6.2,1.1.6,1.5s1,.6,1.7.6h0Z"/>
    <path class="st12" d="M1033,564.3c-.6,0-1.2-.1-1.7-.1-1.8,0-3,.6-3.5,1.8v11.6h-4.7v-17.7h4.5v2.1c1.1-1.6,2.4-2.4,4.1-2.4s1,0,1.5.2v4.6c0,0,0,0,0,0Z"/>
    <path class="st12" d="M1042.2,570.9l3.3-11h5.1l-7.1,20.5-.4.9c-1.1,2.3-2.8,3.5-5.2,3.5s-1.4-.1-2.1-.3v-3.6h.7c.9,0,1.6-.1,2-.4.4-.3.8-.7,1-1.4l.6-1.5-6.2-17.8h5.1l3.3,11h0Z"/>
    <path class="st12" d="M1061.1,577.6v-23.8h8.4c2.9,0,5.1.6,6.6,1.7s2.2,2.7,2.2,4.9-.3,2.2-.9,3.1-1.4,1.5-2.5,2c1.2.3,2.2.9,2.9,1.9.7.9,1.1,2.1,1.1,3.4,0,2.3-.7,4-2.2,5.2s-3.5,1.8-6.3,1.8h-9.3ZM1066,563.7h3.6c2.5,0,3.7-1,3.7-3s-.3-1.9-.9-2.3c-.6-.5-1.6-.7-3-.7h-3.4v6ZM1066,567.2v6.4h4.2c1.2,0,2.1-.3,2.7-.8.6-.5,1-1.3,1-2.3,0-2.2-1.1-3.3-3.4-3.3h-4.5Z"/>
    <path class="st12" d="M1081.4,568.5c0-1.8.3-3.3,1-4.7s1.7-2.4,2.9-3.2,2.7-1.1,4.4-1.1c2.4,0,4.3.7,5.9,2.2s2.4,3.4,2.5,6v1.2c0,2.7-.7,4.9-2.2,6.5s-3.6,2.5-6.1,2.5-4.6-.8-6.1-2.5c-1.5-1.6-2.3-3.9-2.3-6.7v-.2h0ZM1086.2,568.9c0,1.7.3,3,.9,3.9.6.9,1.5,1.3,2.7,1.3s2-.4,2.7-1.3c.6-.9,1-2.3,1-4.2s-.3-2.9-1-3.8-1.6-1.4-2.7-1.4-2.1.5-2.7,1.4c-.6.9-.9,2.3-.9,4.2Z"/>
    <path class="st12" d="M1100.4,568.6c0-2.8.6-5,1.9-6.6,1.2-1.6,2.9-2.5,5.1-2.5s3.1.6,4.3,1.9v-9h4.7v25.2h-4.3l-.2-1.9c-1.2,1.5-2.7,2.2-4.6,2.2s-3.8-.8-5-2.5c-1.3-1.6-1.9-3.9-1.9-6.9h0ZM1105.1,568.9c0,1.7.3,2.9.9,3.8.6.9,1.4,1.3,2.5,1.3s2.5-.6,3.1-1.9v-7c-.6-1.2-1.6-1.9-3.1-1.9-2.3,0-3.4,1.9-3.4,5.6h0Z"/>
    <path class="st12" d="M1120,555.2c0-.7.2-1.3.7-1.8.5-.5,1.1-.7,1.9-.7s1.5.2,1.9.7.7,1,.7,1.8-.2,1.3-.7,1.8-1.1.7-1.9.7-1.4-.2-1.9-.7c-.5-.5-.7-1-.7-1.8ZM1125,577.6h-4.7v-17.7h4.7v17.7Z"/>
    <path class="st12" d="M1137.1,577.9c-2.6,0-4.7-.8-6.3-2.4-1.6-1.6-2.4-3.7-2.4-6.4v-.5c0-1.8.3-3.4,1-4.8s1.7-2.5,2.9-3.2c1.3-.8,2.7-1.1,4.3-1.1,2.4,0,4.3.8,5.7,2.3,1.4,1.5,2.1,3.7,2.1,6.5v1.9h-11.3c.2,1.2.6,2.1,1.4,2.8.8.7,1.7,1,2.9,1,1.8,0,3.2-.7,4.3-2l2.3,2.6c-.7,1-1.7,1.8-2.9,2.3-1.2.6-2.6.8-4,.8h0ZM1136.5,563.3c-.9,0-1.7.3-2.3,1-.6.6-1,1.5-1.1,2.7h6.6v-.4c0-1.1-.3-1.9-.9-2.4-.5-.6-1.3-.9-2.3-.9h0Z"/>
    <path class="st12" d="M1156.6,572.7c0-.6-.3-1-.9-1.4-.6-.3-1.5-.6-2.8-.9-4.2-.9-6.3-2.7-6.3-5.4s.7-2.9,2-3.9c1.3-1.1,3-1.6,5.1-1.6s4,.5,5.4,1.6c1.3,1.1,2,2.4,2,4.1h-4.7c0-.7-.2-1.2-.7-1.7-.4-.4-1.1-.7-2-.7s-1.4.2-1.9.5-.7.8-.7,1.4.2.9.7,1.3c.5.3,1.3.6,2.5.8s2.2.5,3,.8c2.5.9,3.7,2.5,3.7,4.8s-.7,2.9-2.1,3.9c-1.4,1-3.2,1.5-5.4,1.5s-2.8-.3-4-.8c-1.2-.5-2.1-1.3-2.7-2.2-.7-.9-1-1.9-1-3h4.5c0,.8.4,1.5.9,1.9s1.4.7,2.3.7,1.6-.2,2.1-.5c.5-.3.7-.8.7-1.4h0Z"/>
    <path class="st12" d="M911.4,621.2c-.3,2.5-1.2,4.5-2.8,5.8-1.6,1.4-3.6,2.1-6.2,2.1s-5.1-1-6.8-3-2.5-4.7-2.5-8.1v-2.3c0-2.2.4-4.2,1.2-5.8.8-1.7,1.9-3,3.4-3.9,1.5-.9,3.1-1.4,5-1.4s4.6.7,6.1,2.1,2.4,3.4,2.7,5.9h-3.2c-.3-1.9-.9-3.3-1.8-4.1-.9-.9-2.2-1.3-3.8-1.3s-3.6.7-4.7,2.2-1.7,3.6-1.7,6.3v2.3c0,2.6.5,4.6,1.6,6.2s2.6,2.3,4.5,2.3,3.1-.4,4-1.2c.9-.8,1.6-2.2,1.9-4.1h3.2Z"/>
    <path class="st12" d="M914.4,619.8c0-1.7.3-3.3,1-4.7.7-1.4,1.6-2.5,2.8-3.2,1.2-.8,2.6-1.1,4.2-1.1,2.4,0,4.4.8,5.9,2.5,1.5,1.7,2.2,3.9,2.2,6.7v.2c0,1.7-.3,3.3-1,4.6-.7,1.4-1.6,2.4-2.8,3.2-1.2.8-2.6,1.1-4.2,1.1-2.4,0-4.3-.8-5.8-2.5-1.5-1.7-2.2-3.9-2.2-6.6v-.2h0ZM917.4,620.1c0,2,.5,3.5,1.4,4.7s2.1,1.8,3.7,1.8,2.8-.6,3.7-1.8c.9-1.2,1.4-2.9,1.4-5.1s-.5-3.5-1.4-4.7c-.9-1.2-2.1-1.8-3.7-1.8s-2.7.6-3.6,1.8-1.4,2.9-1.4,5.1h0Z"/>
    <path class="st12" d="M937.2,611.1v2.2c1.5-1.7,3.2-2.6,5.4-2.6,3.7,0,5.6,2.1,5.7,6.3v11.7h-3v-11.7c0-1.3-.3-2.2-.9-2.8-.6-.6-1.5-.9-2.7-.9s-1.8.3-2.6.8-1.3,1.2-1.7,2.1v12.6h-3v-17.7h2.9Z"/>
    <path class="st12" d="M954.3,628.8v-15.4h-2.8v-2.3h2.8v-1.8c0-1.9.5-3.4,1.5-4.4s2.5-1.6,4.3-1.6,1.4,0,2.1.3l-.2,2.4c-.5,0-1.1-.1-1.6-.1-1,0-1.7.3-2.3.9s-.8,1.4-.8,2.5v1.9h3.8v2.3h-3.8v15.4h-3Z"/>
    <path class="st12" d="M964.5,606.4c0-.5.1-.9.4-1.2s.7-.5,1.3-.5,1,.2,1.3.5.5.8.5,1.2-.2.9-.5,1.2-.8.5-1.3.5-1-.2-1.3-.5-.4-.7-.4-1.2ZM967.7,628.8h-3v-17.7h3v17.7Z"/>
    <path class="st12" d="M971.9,619.8c0-2.7.6-4.9,1.9-6.6,1.3-1.7,3-2.5,5.1-2.5s3.7.7,4.9,2.1v-9.2h3v25.2h-2.8v-1.9c-1.4,1.5-3,2.2-5.2,2.2s-3.7-.8-5-2.5c-1.3-1.7-1.9-3.9-1.9-6.6v-.2h0ZM974.9,620.1c0,2,.4,3.6,1.2,4.7s2,1.7,3.4,1.7,3.3-.9,4.2-2.6v-8.1c-.9-1.7-2.3-2.5-4.2-2.5s-2.6.6-3.5,1.7-1.2,2.8-1.2,5.1h0Z"/>
    <path class="st12" d="M998.9,629.1c-2.4,0-4.4-.8-5.9-2.4s-2.3-3.7-2.3-6.3v-.6c0-1.8.3-3.3,1-4.7.7-1.4,1.6-2.5,2.8-3.2s2.5-1.2,3.9-1.2c2.3,0,4.1.8,5.4,2.3s1.9,3.7,1.9,6.5v1.3h-12c0,1.7.6,3.2,1.5,4.2,1,1.1,2.2,1.6,3.7,1.6s2-.2,2.7-.7,1.4-1,1.9-1.7l1.9,1.4c-1.5,2.3-3.7,3.4-6.7,3.4h0ZM998.5,613.2c-1.2,0-2.2.4-3.1,1.3s-1.3,2.1-1.5,3.7h8.9v-.2c0-1.5-.5-2.7-1.2-3.6s-1.7-1.3-3-1.3Z"/>
    <path class="st12" d="M1012.1,611.1v2.2c1.5-1.7,3.2-2.6,5.4-2.6,3.7,0,5.6,2.1,5.7,6.3v11.7h-3v-11.7c0-1.3-.3-2.2-.9-2.8-.6-.6-1.5-.9-2.7-.9s-1.8.3-2.6.8-1.3,1.2-1.7,2.1v12.6h-3v-17.7h2.9Z"/>
    <path class="st12" d="M1031.9,606.8v4.3h3.3v2.3h-3.3v11c0,.7.1,1.2.4,1.6s.8.5,1.5.5.8,0,1.4-.2v2.4c-.8.2-1.6.3-2.3.3-1.4,0-2.4-.4-3.1-1.2s-1-2-1-3.5v-11h-3.2v-2.3h3.2v-4.3h3Z"/>
    <path class="st12" d="M1038.7,606.4c0-.5.1-.9.4-1.2s.7-.5,1.3-.5,1,.2,1.3.5.5.8.5,1.2-.2.9-.5,1.2-.8.5-1.3.5-1-.2-1.3-.5-.4-.7-.4-1.2ZM1042,628.8h-3v-17.7h3v17.7Z"/>
    <path class="st12" d="M1057.8,628.8c-.2-.3-.3-1-.4-1.9-1.4,1.5-3.1,2.2-5,2.2s-3.2-.5-4.3-1.5c-1.1-1-1.7-2.2-1.7-3.8s.7-3.3,2.1-4.3c1.4-1,3.4-1.5,5.9-1.5h2.9v-1.4c0-1.1-.3-1.9-.9-2.5-.6-.6-1.6-.9-2.8-.9s-2,.3-2.7.8-1.1,1.2-1.1,2h-3c0-.9.3-1.7.9-2.6s1.5-1.5,2.6-2,2.3-.7,3.5-.7c2,0,3.6.5,4.8,1.5s1.8,2.4,1.8,4.2v8.2c0,1.6.2,2.9.6,3.9v.3h-3.2ZM1052.8,626.5c.9,0,1.9-.2,2.7-.7s1.5-1.1,1.9-1.9v-3.6h-2.4c-3.7,0-5.6,1.1-5.6,3.3s.3,1.7.9,2.2,1.4.8,2.4.8h0Z"/>
    <path class="st12" d="M1068.4,628.8h-3v-25.2h3v25.2Z"/>
    <path class="st12" d="M1073.3,606.4c0-.5.1-.9.4-1.2s.7-.5,1.3-.5,1,.2,1.3.5.5.8.5,1.2-.2.9-.5,1.2-.8.5-1.3.5-1-.2-1.3-.5-.4-.7-.4-1.2ZM1076.5,628.8h-3v-17.7h3v17.7Z"/>
    <path class="st12" d="M1085.5,606.8v4.3h3.3v2.3h-3.3v11c0,.7.1,1.2.4,1.6s.8.5,1.5.5.8,0,1.4-.2v2.4c-.8.2-1.6.3-2.3.3-1.4,0-2.4-.4-3.1-1.2s-1-2-1-3.5v-11h-3.2v-2.3h3.2v-4.3h3Z"/>
    <path class="st12" d="M1098.1,624.3l4.1-13.3h3.2l-7.1,20.5c-1.1,2.9-2.9,4.4-5.3,4.4h-.6s-1.1-.3-1.1-.3v-2.5h.8c1,0,1.8-.1,2.4-.6.6-.4,1-1.2,1.4-2.3l.7-1.8-6.3-17.5h3.3l4.4,13.3h0Z"/>
    <path class="st12" d="M1134.5,621.2c-.3,2.5-1.2,4.5-2.8,5.8-1.6,1.4-3.6,2.1-6.2,2.1s-5.1-1-6.8-3-2.5-4.7-2.5-8.1v-2.3c0-2.2.4-4.2,1.2-5.8.8-1.7,1.9-3,3.4-3.9,1.5-.9,3.1-1.4,5-1.4s4.6.7,6.1,2.1,2.4,3.4,2.7,5.9h-3.2c-.3-1.9-.9-3.3-1.8-4.1-.9-.9-2.2-1.3-3.8-1.3s-3.6.7-4.7,2.2-1.7,3.6-1.7,6.3v2.3c0,2.6.5,4.6,1.6,6.2s2.6,2.3,4.5,2.3,3.1-.4,4-1.2c.9-.8,1.6-2.2,1.9-4.1h3.2Z"/>
    <path class="st12" d="M1137.5,619.8c0-1.7.3-3.3,1-4.7.7-1.4,1.6-2.5,2.8-3.2,1.2-.8,2.6-1.1,4.2-1.1,2.4,0,4.4.8,5.9,2.5,1.5,1.7,2.2,3.9,2.2,6.7v.2c0,1.7-.3,3.3-1,4.6-.7,1.4-1.6,2.4-2.8,3.2-1.2.8-2.6,1.1-4.2,1.1-2.4,0-4.3-.8-5.8-2.5-1.5-1.7-2.2-3.9-2.2-6.6v-.2h0ZM1140.6,620.1c0,2,.5,3.5,1.4,4.7s2.1,1.8,3.7,1.8,2.8-.6,3.7-1.8c.9-1.2,1.4-2.9,1.4-5.1s-.5-3.5-1.4-4.7c-.9-1.2-2.1-1.8-3.7-1.8s-2.7.6-3.6,1.8-1.4,2.9-1.4,5.1h0Z"/>
    <path class="st12" d="M1160.3,611.1v2c1.4-1.5,3.1-2.3,5.3-2.3s4.2.9,5.1,2.8c.6-.9,1.4-1.5,2.3-2.1.9-.5,2.1-.8,3.3-.8,3.9,0,5.9,2.1,5.9,6.2v11.9h-3v-11.7c0-1.3-.3-2.2-.9-2.8-.6-.6-1.6-.9-2.9-.9s-2.1.3-2.8,1c-.7.7-1.2,1.6-1.3,2.7v11.8h-3v-11.6c0-2.6-1.3-3.9-3.8-3.9s-3.3.8-4.1,2.5v12.9h-3v-17.7h2.9,0Z"/>
    <path class="st12" d="M1189.7,611.1v2c1.4-1.5,3.1-2.3,5.3-2.3s4.2.9,5.1,2.8c.6-.9,1.4-1.5,2.3-2.1.9-.5,2.1-.8,3.3-.8,3.9,0,5.9,2.1,5.9,6.2v11.9h-3v-11.7c0-1.3-.3-2.2-.9-2.8-.6-.6-1.6-.9-2.9-.9s-2.1.3-2.8,1c-.7.7-1.2,1.6-1.3,2.7v11.8h-3v-11.6c0-2.6-1.3-3.9-3.8-3.9s-3.3.8-4.1,2.5v12.9h-3v-17.7h2.9,0Z"/>
    <path class="st12" d="M1216.3,606.4c0-.5.1-.9.4-1.2s.7-.5,1.3-.5,1,.2,1.3.5.5.8.5,1.2-.2.9-.5,1.2-.8.5-1.3.5-1-.2-1.3-.5-.4-.7-.4-1.2ZM1219.5,628.8h-3v-17.7h3v17.7Z"/>
    <path class="st12" d="M1234.7,624.1c0-.8-.3-1.5-.9-1.9-.6-.5-1.7-.8-3.2-1.2s-2.8-.7-3.6-1.2c-.9-.5-1.6-1-2-1.6-.4-.6-.6-1.4-.6-2.3,0-1.5.6-2.7,1.8-3.7,1.2-1,2.8-1.5,4.7-1.5s3.6.5,4.9,1.6,1.9,2.4,1.9,4h-3c0-.8-.4-1.5-1.1-2.1-.7-.6-1.6-.9-2.7-.9s-2,.2-2.6.7-.9,1.1-.9,1.9.3,1.3.9,1.7,1.6.7,3.1,1.1c1.5.3,2.7.7,3.7,1.2s1.6,1,2.1,1.7c.5.7.7,1.5.7,2.4,0,1.6-.6,2.9-1.9,3.8-1.3,1-2.9,1.4-4.9,1.4s-2.7-.3-3.8-.8-1.9-1.2-2.6-2.1c-.6-.9-.9-1.9-.9-2.9h3c0,1,.5,1.8,1.2,2.4.8.6,1.8.9,3,.9s2.1-.2,2.8-.7c.7-.5,1-1.1,1-1.9h0Z"/>
    <path class="st12" d="M1252,624.1c0-.8-.3-1.5-.9-1.9-.6-.5-1.7-.8-3.2-1.2s-2.8-.7-3.6-1.2c-.9-.5-1.6-1-2-1.6-.4-.6-.6-1.4-.6-2.3,0-1.5.6-2.7,1.8-3.7,1.2-1,2.8-1.5,4.7-1.5s3.6.5,4.9,1.6,1.9,2.4,1.9,4h-3c0-.8-.4-1.5-1.1-2.1-.7-.6-1.6-.9-2.7-.9s-2,.2-2.6.7-.9,1.1-.9,1.9.3,1.3.9,1.7,1.6.7,3.1,1.1c1.5.3,2.7.7,3.7,1.2s1.6,1,2.1,1.7c.5.7.7,1.5.7,2.4,0,1.6-.6,2.9-1.9,3.8-1.3,1-2.9,1.4-4.9,1.4s-2.7-.3-3.8-.8-1.9-1.2-2.6-2.1c-.6-.9-.9-1.9-.9-2.9h3c0,1,.5,1.8,1.2,2.4.8.6,1.8.9,3,.9s2.1-.2,2.8-.7c.7-.5,1-1.1,1-1.9h0Z"/>
    <path class="st12" d="M1259,606.4c0-.5.1-.9.4-1.2s.7-.5,1.3-.5,1,.2,1.3.5.5.8.5,1.2-.2.9-.5,1.2-.8.5-1.3.5-1-.2-1.3-.5-.4-.7-.4-1.2ZM1262.3,628.8h-3v-17.7h3v17.7Z"/>
    <path class="st12" d="M1266.3,619.8c0-1.7.3-3.3,1-4.7.7-1.4,1.6-2.5,2.8-3.2,1.2-.8,2.6-1.1,4.2-1.1,2.4,0,4.4.8,5.9,2.5,1.5,1.7,2.2,3.9,2.2,6.7v.2c0,1.7-.3,3.3-1,4.6-.7,1.4-1.6,2.4-2.8,3.2-1.2.8-2.6,1.1-4.2,1.1-2.4,0-4.3-.8-5.8-2.5-1.5-1.7-2.2-3.9-2.2-6.6v-.2h0ZM1269.4,620.1c0,2,.5,3.5,1.4,4.7s2.1,1.8,3.7,1.8,2.8-.6,3.7-1.8c.9-1.2,1.4-2.9,1.4-5.1s-.5-3.5-1.4-4.7c-.9-1.2-2.1-1.8-3.7-1.8s-2.7.6-3.6,1.8-1.4,2.9-1.4,5.1h0Z"/>
    <path class="st12" d="M1289.1,611.1v2.2c1.5-1.7,3.2-2.6,5.4-2.6,3.7,0,5.6,2.1,5.7,6.3v11.7h-3v-11.7c0-1.3-.3-2.2-.9-2.8-.6-.6-1.5-.9-2.7-.9s-1.8.3-2.6.8-1.3,1.2-1.7,2.1v12.6h-3v-17.7h2.9Z"/>
    <path class="st12" d="M900.9,669.4c-2.7-.8-4.7-1.7-5.9-2.9-1.2-1.1-1.8-2.5-1.8-4.2s.7-3.4,2.3-4.7c1.5-1.2,3.5-1.8,5.9-1.8s3.1.3,4.4.9,2.3,1.5,3,2.6c.7,1.1,1.1,2.3,1.1,3.7h-3.2c0-1.4-.5-2.6-1.4-3.4s-2.2-1.2-3.9-1.2-2.8.3-3.6,1c-.9.7-1.3,1.6-1.3,2.8s.4,1.8,1.2,2.5c.8.7,2.2,1.3,4.2,1.8,2,.6,3.5,1.2,4.7,1.8,1.1.7,2,1.5,2.5,2.3.5.9.8,1.9.8,3.2,0,1.9-.8,3.5-2.3,4.6-1.5,1.2-3.5,1.7-6,1.7s-3.2-.3-4.6-.9c-1.4-.6-2.5-1.5-3.3-2.6-.8-1.1-1.2-2.3-1.2-3.7h3.2c0,1.4.5,2.6,1.6,3.4,1.1.8,2.5,1.3,4.3,1.3s2.9-.3,3.8-1,1.3-1.6,1.3-2.8-.4-2.1-1.2-2.7c-.8-.6-2.3-1.3-4.5-1.9h0Z"/>
    <path class="st12" d="M920.4,677.9c1.1,0,2-.3,2.8-1s1.3-1.5,1.3-2.5h2.9c0,1-.4,2-1,2.9s-1.5,1.6-2.6,2.2-2.2.8-3.4.8c-2.4,0-4.3-.8-5.8-2.4-1.4-1.6-2.1-3.8-2.1-6.6v-.5c0-1.7.3-3.3.9-4.6s1.5-2.4,2.7-3.1,2.6-1.1,4.2-1.1,3.6.6,5,1.8c1.3,1.2,2,2.7,2.1,4.6h-2.9c0-1.1-.5-2.1-1.3-2.8-.8-.7-1.7-1.1-2.9-1.1s-2.7.6-3.6,1.7-1.3,2.7-1.3,4.8v.6c0,2,.4,3.6,1.3,4.7s2,1.7,3.6,1.7h0Z"/>
    <path class="st12" d="M930.8,657.6c0-.5.1-.9.4-1.2s.7-.5,1.3-.5,1,.2,1.3.5.5.8.5,1.2-.2.9-.5,1.2-.8.5-1.3.5-1-.2-1.3-.5-.4-.7-.4-1.2ZM934.1,680h-3v-17.7h3v17.7Z"/>
    <path class="st12" d="M946.3,680.3c-2.4,0-4.4-.8-5.9-2.4s-2.3-3.7-2.3-6.3v-.6c0-1.8.3-3.3,1-4.7.7-1.4,1.6-2.5,2.8-3.2s2.5-1.2,3.9-1.2c2.3,0,4.1.8,5.4,2.3,1.3,1.5,1.9,3.7,1.9,6.5v1.3h-12c0,1.7.6,3.2,1.5,4.2,1,1.1,2.2,1.6,3.7,1.6s2-.2,2.7-.7,1.4-1,1.9-1.7l1.9,1.4c-1.5,2.3-3.7,3.4-6.7,3.4h0ZM945.9,664.5c-1.2,0-2.2.4-3.1,1.3s-1.3,2.1-1.5,3.7h8.9v-.2c0-1.5-.5-2.7-1.2-3.6s-1.7-1.3-3-1.3Z"/>
    <path class="st12" d="M959.6,662.3v2.2c1.5-1.7,3.2-2.6,5.4-2.6,3.7,0,5.6,2.1,5.7,6.3v11.7h-3v-11.7c0-1.3-.3-2.2-.9-2.8-.6-.6-1.5-.9-2.7-.9s-1.8.3-2.6.8-1.3,1.2-1.7,2.1v12.6h-3v-17.7h2.9Z"/>
    <path class="st12" d="M979.3,658v4.3h3.3v2.3h-3.3v11c0,.7.1,1.2.4,1.6s.8.5,1.5.5.8,0,1.4-.2v2.4c-.8.2-1.6.3-2.3.3-1.4,0-2.4-.4-3.1-1.2s-1-2-1-3.5v-11h-3.2v-2.3h3.2v-4.3h3,0Z"/>
    <path class="st12" d="M986.2,657.6c0-.5.1-.9.4-1.2s.7-.5,1.3-.5,1,.2,1.3.5.5.8.5,1.2-.2.9-.5,1.2-.8.5-1.3.5-1-.2-1.3-.5-.4-.7-.4-1.2ZM989.5,680h-3v-17.7h3v17.7Z"/>
    <path class="st12" d="M995.8,680v-15.4h-2.8v-2.3h2.8v-1.8c0-1.9.5-3.4,1.5-4.4s2.5-1.6,4.3-1.6,1.4,0,2.1.3l-.2,2.4c-.5,0-1.1-.1-1.6-.1-1,0-1.7.3-2.3.9s-.8,1.4-.8,2.5v1.9h3.8v2.3h-3.8v15.4h-3Z"/>
    <path class="st12" d="M1006,657.6c0-.5.1-.9.4-1.2s.7-.5,1.3-.5,1,.2,1.3.5.5.8.5,1.2-.2.9-.5,1.2-.8.5-1.3.5-1-.2-1.3-.5-.4-.7-.4-1.2ZM1009.2,680h-3v-17.7h3v17.7Z"/>
    <path class="st12" d="M1021.2,677.9c1.1,0,2-.3,2.8-1s1.3-1.5,1.3-2.5h2.9c0,1-.4,2-1,2.9s-1.5,1.6-2.6,2.2-2.2.8-3.4.8c-2.4,0-4.3-.8-5.8-2.4-1.4-1.6-2.1-3.8-2.1-6.6v-.5c0-1.7.3-3.3.9-4.6s1.5-2.4,2.7-3.1,2.6-1.1,4.2-1.1,3.6.6,5,1.8c1.3,1.2,2,2.7,2.1,4.6h-2.9c0-1.1-.5-2.1-1.3-2.8-.8-.7-1.7-1.1-2.9-1.1s-2.7.6-3.6,1.7-1.3,2.7-1.3,4.8v.6c0,2,.4,3.6,1.3,4.7s2,1.7,3.6,1.7h0Z"/>
    <path class="st12" d="M1053.6,673.8h-10l-2.2,6.2h-3.2l9.1-23.8h2.8l9.1,23.8h-3.2l-2.3-6.2h0ZM1044.5,671.2h8.1l-4.1-11.2-4,11.2h0Z"/>
    <path class="st12" d="M1061.1,671c0-2.7.6-4.9,1.9-6.6,1.3-1.7,3-2.5,5.1-2.5s3.7.7,4.9,2.1v-9.2h3v25.2h-2.8v-1.9c-1.4,1.5-3,2.2-5.2,2.2s-3.7-.8-5-2.5c-1.3-1.7-1.9-3.9-1.9-6.6v-.2h0ZM1064.1,671.4c0,2,.4,3.6,1.2,4.7s2,1.7,3.4,1.7,3.3-.9,4.2-2.6v-8.1c-.9-1.7-2.3-2.5-4.2-2.5s-2.6.6-3.5,1.7c-.8,1.1-1.2,2.8-1.2,5.1h0Z"/>
    <path class="st12" d="M1086.6,675.9l4.4-13.6h3.1l-6.4,17.7h-2.3l-6.4-17.7h3.1l4.5,13.6Z"/>
    <path class="st12" d="M1097,657.6c0-.5.1-.9.4-1.2s.7-.5,1.3-.5,1,.2,1.3.5.5.8.5,1.2-.2.9-.5,1.2-.8.5-1.3.5-1-.2-1.3-.5-.4-.7-.4-1.2ZM1100.3,680h-3v-17.7h3v17.7Z"/>
    <path class="st12" d="M1115.4,675.3c0-.8-.3-1.5-.9-1.9-.6-.5-1.7-.8-3.2-1.2s-2.8-.7-3.6-1.2c-.9-.5-1.6-1-2-1.6-.4-.6-.6-1.4-.6-2.3,0-1.5.6-2.7,1.8-3.7,1.2-1,2.8-1.5,4.7-1.5s3.6.5,4.9,1.6,1.9,2.4,1.9,4h-3c0-.8-.4-1.5-1.1-2.1-.7-.6-1.6-.9-2.7-.9s-2,.2-2.6.7-.9,1.1-.9,1.9.3,1.3.9,1.7,1.6.7,3.1,1.1c1.5.3,2.7.7,3.7,1.2s1.6,1,2.1,1.7c.5.7.7,1.5.7,2.4,0,1.6-.6,2.9-1.9,3.8-1.3,1-2.9,1.4-4.9,1.4s-2.7-.3-3.8-.8-1.9-1.2-2.6-2.1c-.6-.9-.9-1.9-.9-2.9h3c0,1,.5,1.8,1.2,2.4.8.6,1.8.9,3,.9s2.1-.2,2.8-.7c.7-.5,1-1.1,1-1.9h0Z"/>
    <path class="st12" d="M1121.6,671c0-1.7.3-3.3,1-4.7.7-1.4,1.6-2.5,2.8-3.2,1.2-.8,2.6-1.1,4.2-1.1,2.4,0,4.4.8,5.9,2.5,1.5,1.7,2.2,3.9,2.2,6.7v.2c0,1.7-.3,3.3-1,4.6-.7,1.4-1.6,2.4-2.8,3.2-1.2.8-2.6,1.1-4.2,1.1-2.4,0-4.3-.8-5.8-2.5-1.5-1.7-2.2-3.9-2.2-6.6v-.2h0ZM1124.7,671.4c0,2,.5,3.5,1.4,4.7s2.1,1.8,3.7,1.8,2.8-.6,3.7-1.8c.9-1.2,1.4-2.9,1.4-5.1s-.5-3.5-1.4-4.7c-.9-1.2-2.1-1.8-3.7-1.8s-2.7.6-3.6,1.8-1.4,2.9-1.4,5.1h0Z"/>
    <path class="st12" d="M1150.1,665c-.5,0-1-.1-1.5-.1-2,0-3.3.8-4,2.5v12.6h-3v-17.7h2.9v2c1-1.6,2.5-2.4,4.3-2.4s1,0,1.3.2v2.8h0Z"/>
    <path class="st12" d="M1159,675.6l4.1-13.3h3.2l-7.1,20.5c-1.1,2.9-2.9,4.4-5.3,4.4h-.6s-1.1-.3-1.1-.3v-2.5h.8c1,0,1.8-.1,2.4-.6.6-.4,1-1.2,1.4-2.3l.7-1.8-6.3-17.5h3.3l4.4,13.3h0Z"/>
    <path class="st12" d="M1177.8,680v-23.8h7.8c2.6,0,4.5.5,5.8,1.6,1.3,1.1,2,2.7,2,4.7s-.3,2.1-.9,3c-.6.9-1.5,1.5-2.6,2,1.3.4,2.3,1,3.1,2.1.7,1,1.1,2.2,1.1,3.6,0,2.1-.7,3.8-2.1,5s-3.3,1.8-5.9,1.8h-8.3ZM1181,666.3h4.7c1.4,0,2.5-.3,3.3-1s1.2-1.6,1.2-2.8-.4-2.3-1.1-2.9c-.8-.6-1.9-.9-3.5-.9h-4.7v7.6ZM1181,668.9v8.6h5.2c1.5,0,2.6-.4,3.5-1.1.8-.8,1.3-1.8,1.3-3.1,0-2.9-1.6-4.3-4.7-4.3h-5.2Z"/>
    <path class="st12" d="M1197.4,671c0-1.7.3-3.3,1-4.7.7-1.4,1.6-2.5,2.8-3.2,1.2-.8,2.6-1.1,4.2-1.1,2.4,0,4.4.8,5.9,2.5,1.5,1.7,2.2,3.9,2.2,6.7v.2c0,1.7-.3,3.3-1,4.6-.7,1.4-1.6,2.4-2.8,3.2-1.2.8-2.6,1.1-4.2,1.1-2.4,0-4.3-.8-5.8-2.5-1.5-1.7-2.2-3.9-2.2-6.6v-.2h0ZM1200.5,671.4c0,2,.5,3.5,1.4,4.7s2.1,1.8,3.7,1.8,2.8-.6,3.7-1.8c.9-1.2,1.4-2.9,1.4-5.1s-.5-3.5-1.4-4.7c-.9-1.2-2.1-1.8-3.7-1.8s-2.7.6-3.6,1.8-1.4,2.9-1.4,5.1h0Z"/>
    <path class="st12" d="M1228.3,680c-.2-.3-.3-1-.4-1.9-1.4,1.5-3.1,2.2-5,2.2s-3.2-.5-4.3-1.5c-1.1-1-1.7-2.2-1.7-3.8s.7-3.3,2.1-4.3c1.4-1,3.4-1.5,5.9-1.5h2.9v-1.4c0-1.1-.3-1.9-.9-2.5-.6-.6-1.6-.9-2.8-.9s-2,.3-2.7.8-1.1,1.2-1.1,2h-3c0-.9.3-1.7.9-2.6s1.5-1.5,2.6-2,2.3-.7,3.5-.7c2,0,3.6.5,4.8,1.5s1.8,2.4,1.8,4.2v8.2c0,1.6.2,2.9.6,3.9v.3h-3.2ZM1223.3,677.7c.9,0,1.9-.2,2.7-.7s1.5-1.1,1.9-1.9v-3.6h-2.4c-3.7,0-5.6,1.1-5.6,3.3s.3,1.7.9,2.2,1.4.8,2.4.8h0Z"/>
    <path class="st12" d="M1244.2,665c-.5,0-1-.1-1.5-.1-2,0-3.3.8-4,2.5v12.6h-3v-17.7h2.9v2c1-1.6,2.5-2.4,4.3-2.4s1,0,1.3.2v2.8h0Z"/>
    <path class="st12" d="M1245.9,671c0-2.7.6-4.9,1.9-6.6,1.3-1.7,3-2.5,5.1-2.5s3.7.7,4.9,2.1v-9.2h3v25.2h-2.8v-1.9c-1.4,1.5-3,2.2-5.2,2.2s-3.7-.8-5-2.5c-1.3-1.7-1.9-3.9-1.9-6.6v-.2h0ZM1248.9,671.4c0,2,.4,3.6,1.2,4.7s2,1.7,3.4,1.7,3.3-.9,4.2-2.6v-8.1c-.9-1.7-2.3-2.5-4.2-2.5s-2.6.6-3.5,1.7-1.2,2.8-1.2,5.1h0Z"/>
    <path class="st12" d="M907,725h-10l-2.2,6.2h-3.2l9.1-23.8h2.8l9.1,23.8h-3.2l-2.3-6.2h0ZM898,722.4h8.1l-4.1-11.2-4,11.2Z"/>
    <path class="st12" d="M914.5,722.3c0-2.7.6-4.9,1.9-6.6,1.3-1.7,3-2.5,5.1-2.5s3.7.7,4.9,2.1v-9.2h3v25.2h-2.8v-1.9c-1.4,1.5-3,2.2-5.2,2.2s-3.7-.8-5-2.5c-1.3-1.7-1.9-3.9-1.9-6.6v-.2h0ZM917.5,722.6c0,2,.4,3.6,1.2,4.7s2,1.7,3.4,1.7,3.3-.9,4.2-2.6v-8.1c-.9-1.7-2.3-2.5-4.2-2.5s-2.6.6-3.5,1.7-1.2,2.8-1.2,5.1h0Z"/>
    <path class="st12" d="M940,727.1l4.4-13.6h3.1l-6.4,17.7h-2.3l-6.4-17.7h3.1l4.5,13.6Z"/>
    <path class="st12" d="M950.4,708.8c0-.5.1-.9.4-1.2s.7-.5,1.3-.5,1,.2,1.3.5.5.8.5,1.2-.2.9-.5,1.2-.8.5-1.3.5-1-.2-1.3-.5-.4-.7-.4-1.2ZM953.7,731.3h-3v-17.7h3v17.7Z"/>
    <path class="st12" d="M968.8,726.6c0-.8-.3-1.5-.9-1.9-.6-.5-1.7-.8-3.2-1.2s-2.8-.7-3.6-1.2c-.9-.5-1.6-1-2-1.6-.4-.6-.6-1.4-.6-2.3,0-1.5.6-2.7,1.8-3.7,1.2-1,2.8-1.5,4.7-1.5s3.6.5,4.9,1.6,1.9,2.4,1.9,4h-3c0-.8-.4-1.5-1.1-2.1-.7-.6-1.6-.9-2.7-.9s-2,.2-2.6.7-.9,1.1-.9,1.9.3,1.3.9,1.7,1.6.7,3.1,1.1c1.5.3,2.7.7,3.7,1.2s1.6,1,2.1,1.7c.5.7.7,1.5.7,2.4,0,1.6-.6,2.9-1.9,3.8-1.3,1-2.9,1.4-4.9,1.4s-2.7-.3-3.8-.8-1.9-1.2-2.6-2.1c-.6-.9-.9-1.9-.9-2.9h3c0,1,.5,1.8,1.2,2.4.8.6,1.8.9,3,.9s2.1-.2,2.8-.7c.7-.5,1-1.1,1-1.9h0Z"/>
    <path class="st12" d="M975,722.2c0-1.7.3-3.3,1-4.7.7-1.4,1.6-2.5,2.8-3.2,1.2-.8,2.6-1.1,4.2-1.1,2.4,0,4.4.8,5.9,2.5,1.5,1.7,2.2,3.9,2.2,6.7v.2c0,1.7-.3,3.3-1,4.6-.7,1.4-1.6,2.4-2.8,3.2-1.2.8-2.6,1.1-4.2,1.1-2.4,0-4.3-.8-5.8-2.5-1.5-1.7-2.2-3.9-2.2-6.6v-.2h0ZM978.1,722.6c0,2,.5,3.5,1.4,4.7s2.1,1.8,3.7,1.8,2.8-.6,3.7-1.8c.9-1.2,1.4-2.9,1.4-5.1s-.5-3.5-1.4-4.7c-.9-1.2-2.1-1.8-3.7-1.8s-2.7.6-3.6,1.8-1.4,2.9-1.4,5.1h0Z"/>
    <path class="st12" d="M1003.5,716.3c-.5,0-1-.1-1.5-.1-2,0-3.3.8-4,2.5v12.6h-3v-17.7h2.9v2c1-1.6,2.5-2.4,4.3-2.4s1,0,1.3.2v2.8h0Z"/>
    <path class="st12" d="M1012.4,726.8l4.1-13.3h3.2l-7.1,20.5c-1.1,2.9-2.9,4.4-5.3,4.4h-.6s-1.1-.3-1.1-.3v-2.5h.8c1,0,1.8-.1,2.4-.6.6-.4,1-1.2,1.4-2.3l.7-1.8-6.3-17.5h3.3l4.4,13.3h0Z"/>
    <path class="st12" d="M1031.2,731.3v-23.8h7.8c2.6,0,4.5.5,5.8,1.6,1.3,1.1,2,2.7,2,4.7s-.3,2.1-.9,3c-.6.9-1.5,1.5-2.6,2,1.3.4,2.3,1,3.1,2.1.7,1,1.1,2.2,1.1,3.6,0,2.1-.7,3.8-2.1,5s-3.3,1.8-5.9,1.8h-8.3ZM1034.4,717.6h4.7c1.4,0,2.5-.3,3.3-1s1.2-1.6,1.2-2.8-.4-2.3-1.1-2.9c-.8-.6-1.9-.9-3.5-.9h-4.7v7.6ZM1034.4,720.1v8.6h5.2c1.5,0,2.6-.4,3.5-1.1.8-.8,1.3-1.8,1.3-3.1,0-2.9-1.6-4.3-4.7-4.3h-5.2Z"/>
    <path class="st12" d="M1050.8,722.2c0-1.7.3-3.3,1-4.7.7-1.4,1.6-2.5,2.8-3.2,1.2-.8,2.6-1.1,4.2-1.1,2.4,0,4.4.8,5.9,2.5,1.5,1.7,2.2,3.9,2.2,6.7v.2c0,1.7-.3,3.3-1,4.6-.7,1.4-1.6,2.4-2.8,3.2-1.2.8-2.6,1.1-4.2,1.1-2.4,0-4.3-.8-5.8-2.5-1.5-1.7-2.2-3.9-2.2-6.6v-.2h0ZM1053.9,722.6c0,2,.5,3.5,1.4,4.7s2.1,1.8,3.7,1.8,2.8-.6,3.7-1.8c.9-1.2,1.4-2.9,1.4-5.1s-.5-3.5-1.4-4.7c-.9-1.2-2.1-1.8-3.7-1.8s-2.7.6-3.6,1.8-1.4,2.9-1.4,5.1h0Z"/>
    <path class="st12" d="M1070,722.3c0-2.7.6-4.9,1.9-6.6,1.3-1.7,3-2.5,5.1-2.5s3.7.7,4.9,2.1v-9.2h3v25.2h-2.8v-1.9c-1.4,1.5-3,2.2-5.2,2.2s-3.7-.8-5-2.5c-1.3-1.7-1.9-3.9-1.9-6.6v-.2h0ZM1073.1,722.6c0,2,.4,3.6,1.2,4.7s2,1.7,3.4,1.7,3.3-.9,4.2-2.6v-8.1c-.9-1.7-2.3-2.5-4.2-2.5s-2.6.6-3.5,1.7-1.2,2.8-1.2,5.1h0Z"/>
    <path class="st12" d="M1095.5,726.8l4.1-13.3h3.2l-7.1,20.5c-1.1,2.9-2.9,4.4-5.3,4.4h-.6s-1.1-.3-1.1-.3v-2.5h.8c1,0,1.8-.1,2.4-.6.6-.4,1-1.2,1.4-2.3l.7-1.8-6.3-17.5h3.3l4.4,13.3h0Z"/>
    <path class="st12" d="M1113,722.2c0-1.7.3-3.3,1-4.7.7-1.4,1.6-2.5,2.8-3.2,1.2-.8,2.6-1.1,4.2-1.1,2.4,0,4.4.8,5.9,2.5,1.5,1.7,2.2,3.9,2.2,6.7v.2c0,1.7-.3,3.3-1,4.6-.7,1.4-1.6,2.4-2.8,3.2-1.2.8-2.6,1.1-4.2,1.1-2.4,0-4.3-.8-5.8-2.5-1.5-1.7-2.2-3.9-2.2-6.6v-.2h0ZM1116.1,722.6c0,2,.5,3.5,1.4,4.7s2.1,1.8,3.7,1.8,2.8-.6,3.7-1.8c.9-1.2,1.4-2.9,1.4-5.1s-.5-3.5-1.4-4.7c-.9-1.2-2.1-1.8-3.7-1.8s-2.7.6-3.6,1.8-1.4,2.9-1.4,5.1h0Z"/>
    <path class="st12" d="M1135.8,713.5v2.2c1.5-1.7,3.2-2.6,5.4-2.6,3.7,0,5.6,2.1,5.7,6.3v11.7h-3v-11.7c0-1.3-.3-2.2-.9-2.8-.6-.6-1.5-.9-2.7-.9s-1.8.3-2.6.8-1.3,1.2-1.7,2.1v12.6h-3v-17.7h2.9Z"/>
    <path class="st12" d="M1173.4,725h-10l-2.2,6.2h-3.2l9.1-23.8h2.8l9.1,23.8h-3.2l-2.3-6.2h0ZM1164.4,722.4h8.1l-4.1-11.2-4,11.2h0Z"/>
    <path class="st12" d="M1180.9,722.3c0-2.7.6-4.9,1.9-6.6,1.3-1.7,3-2.5,5.1-2.5s3.7.7,4.9,2.1v-9.2h3v25.2h-2.8v-1.9c-1.4,1.5-3,2.2-5.2,2.2s-3.7-.8-5-2.5c-1.3-1.7-1.9-3.9-1.9-6.6v-.2h0ZM1183.9,722.6c0,2,.4,3.6,1.2,4.7s2,1.7,3.4,1.7,3.3-.9,4.2-2.6v-8.1c-.9-1.7-2.3-2.5-4.2-2.5s-2.6.6-3.5,1.7-1.2,2.8-1.2,5.1h0Z"/>
    <path class="st12" d="M1203.4,713.5v2c1.4-1.5,3.1-2.3,5.3-2.3s4.2.9,5.1,2.8c.6-.9,1.4-1.5,2.3-2.1.9-.5,2.1-.8,3.3-.8,3.9,0,5.9,2.1,5.9,6.2v11.9h-3v-11.7c0-1.3-.3-2.2-.9-2.8-.6-.6-1.6-.9-2.9-.9s-2.1.3-2.8,1c-.7.7-1.2,1.6-1.3,2.7v11.8h-3v-11.6c0-2.6-1.3-3.9-3.8-3.9s-3.3.8-4.1,2.5v12.9h-3v-17.7h2.9,0Z"/>
    <path class="st12" d="M1230,708.8c0-.5.1-.9.4-1.2s.7-.5,1.3-.5,1,.2,1.3.5.5.8.5,1.2-.2.9-.5,1.2-.8.5-1.3.5-1-.2-1.3-.5-.4-.7-.4-1.2ZM1233.2,731.3h-3v-17.7h3v17.7Z"/>
    <path class="st12" d="M1241,713.5v2.2c1.5-1.7,3.2-2.6,5.4-2.6,3.7,0,5.6,2.1,5.7,6.3v11.7h-3v-11.7c0-1.3-.3-2.2-.9-2.8-.6-.6-1.5-.9-2.7-.9s-1.8.3-2.6.8-1.3,1.2-1.7,2.1v12.6h-3v-17.7h2.9Z"/>
    <path class="st12" d="M1256.6,708.8c0-.5.1-.9.4-1.2s.7-.5,1.3-.5,1,.2,1.3.5.5.8.5,1.2-.2.9-.5,1.2-.8.5-1.3.5-1-.2-1.3-.5-.4-.7-.4-1.2ZM1259.9,731.3h-3v-17.7h3v17.7Z"/>
    <path class="st12" d="M1275.1,726.6c0-.8-.3-1.5-.9-1.9-.6-.5-1.7-.8-3.2-1.2s-2.8-.7-3.6-1.2c-.9-.5-1.6-1-2-1.6-.4-.6-.6-1.4-.6-2.3,0-1.5.6-2.7,1.8-3.7,1.2-1,2.8-1.5,4.7-1.5s3.6.5,4.9,1.6,1.9,2.4,1.9,4h-3c0-.8-.4-1.5-1.1-2.1-.7-.6-1.6-.9-2.7-.9s-2,.2-2.6.7-.9,1.1-.9,1.9.3,1.3.9,1.7,1.6.7,3.1,1.1c1.5.3,2.7.7,3.7,1.2s1.6,1,2.1,1.7c.5.7.7,1.5.7,2.4,0,1.6-.6,2.9-1.9,3.8-1.3,1-2.9,1.4-4.9,1.4s-2.7-.3-3.8-.8-1.9-1.2-2.6-2.1c-.6-.9-.9-1.9-.9-2.9h3c0,1,.5,1.8,1.2,2.4.8.6,1.8.9,3,.9s2.1-.2,2.8-.7c.7-.5,1-1.1,1-1.9h0Z"/>
    <path class="st12" d="M1286.1,709.2v4.3h3.3v2.3h-3.3v11c0,.7.1,1.2.4,1.6s.8.5,1.5.5.8,0,1.4-.2v2.4c-.8.2-1.6.3-2.3.3-1.4,0-2.4-.4-3.1-1.2s-1-2-1-3.5v-11h-3.2v-2.3h3.2v-4.3h3Z"/>
    <path class="st12" d="M1301.5,716.3c-.5,0-1-.1-1.5-.1-2,0-3.3.8-4,2.5v12.6h-3v-17.7h2.9v2c1-1.6,2.5-2.4,4.3-2.4s1,0,1.3.2v2.8h0Z"/>
    <path class="st12" d="M1314.6,731.3c-.2-.3-.3-1-.4-1.9-1.4,1.5-3.1,2.2-5,2.2s-3.2-.5-4.3-1.5c-1.1-1-1.7-2.2-1.7-3.8s.7-3.3,2.1-4.3c1.4-1,3.4-1.5,5.9-1.5h2.9v-1.4c0-1.1-.3-1.9-.9-2.5-.6-.6-1.6-.9-2.8-.9s-2,.3-2.7.8-1.1,1.2-1.1,2h-3c0-.9.3-1.7.9-2.6s1.5-1.5,2.6-2,2.3-.7,3.5-.7c2,0,3.6.5,4.8,1.5s1.8,2.4,1.8,4.2v8.2c0,1.6.2,2.9.6,3.9v.3h-3.2ZM1309.6,728.9c.9,0,1.9-.2,2.7-.7s1.5-1.1,1.9-1.9v-3.6h-2.4c-3.7,0-5.6,1.1-5.6,3.3s.3,1.7.9,2.2,1.4.8,2.4.8h0Z"/>
    <path class="st12" d="M1326,709.2v4.3h3.3v2.3h-3.3v11c0,.7.1,1.2.4,1.6s.8.5,1.5.5.8,0,1.4-.2v2.4c-.8.2-1.6.3-2.3.3-1.4,0-2.4-.4-3.1-1.2s-1-2-1-3.5v-11h-3.2v-2.3h3.2v-4.3h3Z"/>
    <path class="st12" d="M1332.9,708.8c0-.5.1-.9.4-1.2s.7-.5,1.3-.5,1,.2,1.3.5.5.8.5,1.2-.2.9-.5,1.2-.8.5-1.3.5-1-.2-1.3-.5-.4-.7-.4-1.2ZM1336.2,731.3h-3v-17.7h3v17.7Z"/>
    <path class="st12" d="M1346.9,727.1l4.4-13.6h3.1l-6.4,17.7h-2.3l-6.4-17.7h3.1l4.5,13.6Z"/>
    <path class="st12" d="M1364.4,731.6c-2.4,0-4.4-.8-5.9-2.4s-2.3-3.7-2.3-6.3v-.6c0-1.8.3-3.3,1-4.7.7-1.4,1.6-2.5,2.8-3.2s2.5-1.2,3.9-1.2c2.3,0,4.1.8,5.4,2.3s1.9,3.7,1.9,6.5v1.3h-12c0,1.7.6,3.2,1.5,4.2,1,1.1,2.2,1.6,3.7,1.6s2-.2,2.7-.7,1.4-1,1.9-1.7l1.9,1.4c-1.5,2.3-3.7,3.4-6.7,3.4h0ZM1364,715.7c-1.2,0-2.2.4-3.1,1.3s-1.3,2.1-1.5,3.7h8.9v-.2c0-1.5-.5-2.7-1.2-3.6s-1.7-1.3-3-1.3Z"/>
    <path class="st12" d="M904.3,772.2c-.2-.3-.3-1-.4-1.9-1.4,1.5-3.1,2.2-5,2.2s-3.2-.5-4.3-1.5c-1.1-1-1.7-2.2-1.7-3.8s.7-3.3,2.1-4.3c1.4-1,3.4-1.5,5.9-1.5h2.9v-1.4c0-1.1-.3-1.9-.9-2.5-.6-.6-1.6-.9-2.8-.9s-2,.3-2.7.8-1.1,1.2-1.1,2h-3c0-.9.3-1.7.9-2.6s1.5-1.5,2.6-2,2.3-.7,3.5-.7c2,0,3.6.5,4.8,1.5s1.8,2.4,1.8,4.2v8.2c0,1.6.2,2.9.6,3.9v.3h-3.2,0ZM899.3,769.9c.9,0,1.9-.2,2.7-.7s1.5-1.1,1.9-1.9v-3.6h-2.4c-3.7,0-5.6,1.1-5.6,3.3s.3,1.7.9,2.2,1.4.8,2.4.8h0Z"/>
    <path class="st12" d="M914.5,754.5v2.2c1.5-1.7,3.2-2.6,5.4-2.6,3.7,0,5.6,2.1,5.7,6.3v11.7h-3v-11.7c0-1.3-.3-2.2-.9-2.8-.6-.6-1.5-.9-2.7-.9s-1.8.3-2.6.8-1.3,1.2-1.7,2.1v12.6h-3v-17.7h2.9Z"/>
    <path class="st12" d="M929.4,763.2c0-2.7.6-4.9,1.9-6.6,1.3-1.7,3-2.5,5.1-2.5s3.7.7,4.9,2.1v-9.2h3v25.2h-2.8v-1.9c-1.4,1.5-3,2.2-5.2,2.2s-3.7-.8-5-2.5c-1.3-1.7-1.9-3.9-1.9-6.6v-.2h0ZM932.4,763.6c0,2,.4,3.6,1.2,4.7s2,1.7,3.4,1.7,3.3-.9,4.2-2.6v-8.1c-.9-1.7-2.3-2.5-4.2-2.5s-2.6.6-3.5,1.7-1.2,2.8-1.2,5.1h0Z"/>
    <path class="st12" d="M970.9,761.7h-10v10.5h-3.1v-23.8h14.8v2.6h-11.6v8.2h10v2.6Z"/>
    <path class="st12" d="M975.9,749.8c0-.5.1-.9.4-1.2s.7-.5,1.3-.5,1,.2,1.3.5.5.8.5,1.2-.2.9-.5,1.2-.8.5-1.3.5-1-.2-1.3-.5-.4-.7-.4-1.2ZM979.1,772.2h-3v-17.7h3v17.7Z"/>
    <path class="st12" d="M986.9,754.5v2.2c1.5-1.7,3.2-2.6,5.4-2.6,3.7,0,5.6,2.1,5.7,6.3v11.7h-3v-11.7c0-1.3-.3-2.2-.9-2.8-.6-.6-1.5-.9-2.7-.9s-1.8.3-2.6.8-1.3,1.2-1.7,2.1v12.6h-3v-17.7h2.9Z"/>
    <path class="st12" d="M1013.4,772.2c-.2-.3-.3-1-.4-1.9-1.4,1.5-3.1,2.2-5,2.2s-3.2-.5-4.3-1.5c-1.1-1-1.7-2.2-1.7-3.8s.7-3.3,2.1-4.3c1.4-1,3.4-1.5,5.9-1.5h2.9v-1.4c0-1.1-.3-1.9-.9-2.5-.6-.6-1.6-.9-2.8-.9s-2,.3-2.7.8-1.1,1.2-1.1,2h-3c0-.9.3-1.7.9-2.6s1.5-1.5,2.6-2,2.3-.7,3.5-.7c2,0,3.6.5,4.8,1.5s1.8,2.4,1.8,4.2v8.2c0,1.6.2,2.9.6,3.9v.3h-3.2,0ZM1008.4,769.9c.9,0,1.9-.2,2.7-.7s1.5-1.1,1.9-1.9v-3.6h-2.4c-3.7,0-5.6,1.1-5.6,3.3s.3,1.7.9,2.2,1.4.8,2.4.8h0Z"/>
    <path class="st12" d="M1023.6,754.5v2.2c1.5-1.7,3.2-2.6,5.4-2.6,3.7,0,5.6,2.1,5.7,6.3v11.7h-3v-11.7c0-1.3-.3-2.2-.9-2.8-.6-.6-1.5-.9-2.7-.9s-1.8.3-2.6.8-1.3,1.2-1.7,2.1v12.6h-3v-17.7h2.9Z"/>
    <path class="st12" d="M1046.3,770.1c1.1,0,2-.3,2.8-1s1.3-1.5,1.3-2.5h2.9c0,1-.4,2-1,2.9s-1.5,1.6-2.6,2.2-2.2.8-3.4.8c-2.4,0-4.3-.8-5.8-2.4-1.4-1.6-2.1-3.8-2.1-6.6v-.5c0-1.7.3-3.3.9-4.6s1.5-2.4,2.7-3.1,2.6-1.1,4.2-1.1,3.6.6,5,1.8c1.3,1.2,2,2.7,2.1,4.6h-2.9c0-1.1-.5-2.1-1.3-2.8-.8-.7-1.7-1.1-2.9-1.1s-2.7.6-3.6,1.7-1.3,2.7-1.3,4.8v.6c0,2,.4,3.6,1.3,4.7s2,1.7,3.6,1.7h0Z"/>
    <path class="st12" d="M1056.8,749.8c0-.5.1-.9.4-1.2s.7-.5,1.3-.5,1,.2,1.3.5.5.8.5,1.2-.2.9-.5,1.2-.8.5-1.3.5-1-.2-1.3-.5-.4-.7-.4-1.2ZM1060.1,772.2h-3v-17.7h3v17.7Z"/>
    <path class="st12" d="M1075.9,772.2c-.2-.3-.3-1-.4-1.9-1.4,1.5-3.1,2.2-5,2.2s-3.2-.5-4.3-1.5c-1.1-1-1.7-2.2-1.7-3.8s.7-3.3,2.1-4.3c1.4-1,3.4-1.5,5.9-1.5h2.9v-1.4c0-1.1-.3-1.9-.9-2.5-.6-.6-1.6-.9-2.8-.9s-2,.3-2.7.8-1.1,1.2-1.1,2h-3c0-.9.3-1.7.9-2.6s1.5-1.5,2.6-2,2.3-.7,3.5-.7c2,0,3.6.5,4.8,1.5s1.8,2.4,1.8,4.2v8.2c0,1.6.2,2.9.6,3.9v.3h-3.2ZM1070.8,769.9c.9,0,1.9-.2,2.7-.7s1.5-1.1,1.9-1.9v-3.6h-2.4c-3.7,0-5.6,1.1-5.6,3.3s.3,1.7.9,2.2,1.4.8,2.4.8h0Z"/>
    <path class="st12" d="M1086.5,772.2h-3v-25.2h3v25.2Z"/>
    <path class="st12" d="M1104.1,748.4l7.8,19.5,7.8-19.5h4.1v23.8h-3.1v-9.3l.3-10-7.8,19.3h-2.4l-7.8-19.3.3,10v9.3h-3.1v-23.8h4.1,0Z"/>
    <path class="st12" d="M1139.8,772.2c-.2-.3-.3-1-.4-1.9-1.4,1.5-3.1,2.2-5,2.2s-3.2-.5-4.3-1.5c-1.1-1-1.7-2.2-1.7-3.8s.7-3.3,2.1-4.3c1.4-1,3.4-1.5,5.9-1.5h2.9v-1.4c0-1.1-.3-1.9-.9-2.5-.6-.6-1.6-.9-2.8-.9s-2,.3-2.7.8-1.1,1.2-1.1,2h-3c0-.9.3-1.7.9-2.6s1.5-1.5,2.6-2,2.3-.7,3.5-.7c2,0,3.6.5,4.8,1.5s1.8,2.4,1.8,4.2v8.2c0,1.6.2,2.9.6,3.9v.3h-3.2ZM1134.8,769.9c.9,0,1.9-.2,2.7-.7s1.5-1.1,1.9-1.9v-3.6h-2.4c-3.7,0-5.6,1.1-5.6,3.3s.3,1.7.9,2.2,1.4.8,2.4.8h0Z"/>
    <path class="st12" d="M1151.2,750.2v4.3h3.3v2.3h-3.3v11c0,.7.1,1.2.4,1.6s.8.5,1.5.5.8,0,1.4-.2v2.4c-.8.2-1.6.3-2.3.3-1.4,0-2.4-.4-3.1-1.2s-1-2-1-3.5v-11h-3.2v-2.3h3.2v-4.3h3Z"/>
    <path class="st12" d="M1162.2,750.2v4.3h3.3v2.3h-3.3v11c0,.7.1,1.2.4,1.6s.8.5,1.5.5.8,0,1.4-.2v2.4c-.8.2-1.6.3-2.3.3-1.4,0-2.4-.4-3.1-1.2s-1-2-1-3.5v-11h-3.2v-2.3h3.2v-4.3h3Z"/>
    <path class="st12" d="M1176.4,772.6c-2.4,0-4.4-.8-5.9-2.4s-2.3-3.7-2.3-6.3v-.6c0-1.8.3-3.3,1-4.7.7-1.4,1.6-2.5,2.8-3.2s2.5-1.2,3.9-1.2c2.3,0,4.1.8,5.4,2.3s1.9,3.7,1.9,6.5v1.3h-12c0,1.7.6,3.2,1.5,4.2,1,1.1,2.2,1.6,3.7,1.6s2-.2,2.7-.7,1.4-1,1.9-1.7l1.9,1.4c-1.5,2.3-3.7,3.4-6.7,3.4h0ZM1176,756.7c-1.2,0-2.2.4-3.1,1.3s-1.3,2.1-1.5,3.7h8.9v-.2c0-1.5-.5-2.7-1.2-3.6s-1.7-1.3-3-1.3Z"/>
    <path class="st12" d="M1195.4,757.2c-.5,0-1-.1-1.5-.1-2,0-3.3.8-4,2.5v12.6h-3v-17.7h2.9v2c1-1.6,2.5-2.4,4.3-2.4s1,0,1.3.2v2.8h0Z"/>
    <path class="st12" d="M1208.5,767.5c0-.8-.3-1.5-.9-1.9-.6-.5-1.7-.8-3.2-1.2s-2.8-.7-3.6-1.2c-.9-.5-1.6-1-2-1.6-.4-.6-.6-1.4-.6-2.3,0-1.5.6-2.7,1.8-3.7,1.2-1,2.8-1.5,4.7-1.5s3.6.5,4.9,1.6,1.9,2.4,1.9,4h-3c0-.8-.4-1.5-1.1-2.1-.7-.6-1.6-.9-2.7-.9s-2,.2-2.6.7-.9,1.1-.9,1.9.3,1.3.9,1.7,1.6.7,3.1,1.1c1.5.3,2.7.7,3.7,1.2s1.6,1,2.1,1.7c.5.7.7,1.5.7,2.4,0,1.6-.6,2.9-1.9,3.8-1.3,1-2.9,1.4-4.9,1.4s-2.7-.3-3.8-.8-1.9-1.2-2.6-2.1c-.6-.9-.9-1.9-.9-2.9h3c0,1,.5,1.8,1.2,2.4.8.6,1.8.9,3,.9s2.1-.2,2.8-.7c.7-.5,1-1.1,1-1.9h0Z"/>
  </g>
  <path class="st11" d="M1645.9,113.9c-10.2,0-18.6,8.1-19,18.2h5.2c.5-7.2,6.5-13,13.8-13s13.4,5.7,13.8,13h5.2c-.5-10.1-8.8-18.2-19-18.2Z"/>
  <path class="st11" d="M1645.9,90.8c-5.9,0-10.8,4.8-10.8,10.8s4.8,10.8,10.8,10.8,10.8-4.8,10.8-10.8-4.8-10.8-10.8-10.8ZM1645.9,107.1c-3.1,0-5.6-2.5-5.6-5.5s2.5-5.5,5.6-5.5,5.5,2.5,5.5,5.5-2.5,5.5-5.5,5.5Z"/>
  <path class="st11" d="M1739.2,113.9c-10.2,0-18.6,8.1-19,18.2h5.2c.5-7.2,6.5-13,13.8-13s13.4,5.7,13.8,13h5.2c-.5-10.1-8.8-18.2-19-18.2Z"/>
  <path class="st11" d="M1739.2,90.8c-5.9,0-10.8,4.8-10.8,10.8s4.8,10.8,10.8,10.8,10.8-4.8,10.8-10.8-4.8-10.8-10.8-10.8ZM1739.2,107.1c-3.1,0-5.6-2.5-5.6-5.5s2.5-5.5,5.6-5.5,5.5,2.5,5.5,5.5-2.5,5.5-5.5,5.5Z"/>
  <path class="st11" d="M1693,113.6c-10.2,0-18.6,8.1-19,18.2h5.2c.5-7.2,6.5-13,13.8-13s13.4,5.7,13.8,13h5.2c-.5-10.1-8.8-18.2-19-18.2Z"/>
  <path class="st11" d="M1693,90.5c-5.9,0-10.8,4.8-10.8,10.8s4.8,10.8,10.8,10.8,10.8-4.8,10.8-10.8-4.8-10.8-10.8-10.8ZM1693,106.8c-3.1,0-5.6-2.5-5.6-5.5s2.5-5.5,5.6-5.5,5.5,2.5,5.5,5.5-2.5,5.5-5.5,5.5Z"/>
  <path class="st11" d="M1209,495.1c-10.2,0-18.6,8.1-19,18.2h5.2c.5-7.2,6.5-13,13.8-13s13.4,5.7,13.8,13h5.2c-.5-10.1-8.8-18.2-19-18.2Z"/>
  <path class="st11" d="M1302.3,495.1c-10.2,0-18.6,8.1-19,18.2h5.2c.5-7.2,6.5-13,13.8-13s13.4,5.7,13.8,13h5.2c-.5-10.1-8.8-18.2-19-18.2Z"/>
  <path class="st11" d="M1347.2,495.1c-10.2,0-18.6,8.1-19,18.2h5.2c.5-7.2,6.5-13,13.8-13s13.4,5.7,13.8,13h5.2c-.5-10.1-8.8-18.2-19-18.2Z"/>
  <path class="st11" d="M1347.2,472c-5.9,0-10.8,4.8-10.8,10.8s4.8,10.8,10.8,10.8,10.8-4.8,10.8-10.8-4.8-10.8-10.8-10.8ZM1347.2,488.3c-3.1,0-5.6-2.5-5.6-5.5s2.5-5.5,5.6-5.5,5.5,2.5,5.5,5.5-2.5,5.5-5.5,5.5Z"/>
  <path class="st11" d="M1256,471.7c-5.9,0-10.8,4.8-10.8,10.8s4.8,10.8,10.8,10.8,10.8-4.8,10.8-10.8-4.8-10.8-10.8-10.8ZM1256,488c-3.1,0-5.6-2.5-5.6-5.5s2.5-5.5,5.6-5.5,5.5,2.5,5.5,5.5-2.5,5.5-5.5,5.5Z"/>
  <path class="st11" d="M266.8,117.8c-10.2,0-18.6,8.1-19,18.2h5.2c.5-7.2,6.5-13,13.8-13s13.4,5.7,13.8,13h5.2c-.5-10.1-8.8-18.2-19-18.2Z"/>
  <path class="st11" d="M266.8,94.7c-5.9,0-10.8,4.8-10.8,10.8s4.8,10.8,10.8,10.8,10.8-4.8,10.8-10.8-4.8-10.8-10.8-10.8ZM266.8,111c-3.1,0-5.5-2.5-5.5-5.5s2.5-5.5,5.5-5.5,5.5,2.5,5.5,5.5-2.5,5.5-5.5,5.5Z"/>
  <path class="st11" d="M392.3,117.8c-10.2,0-18.6,8.1-19,18.2h5.2c.5-7.2,6.5-13,13.8-13s13.4,5.7,13.8,13h5.2c-.5-10.1-8.8-18.2-19-18.2Z"/>
  <path class="st11" d="M392.3,94.7c-5.9,0-10.8,4.8-10.8,10.8s4.8,10.8,10.8,10.8,10.8-4.8,10.8-10.8-4.8-10.8-10.8-10.8ZM392.3,111c-3.1,0-5.5-2.5-5.5-5.5s2.5-5.5,5.5-5.5,5.5,2.5,5.5,5.5-2.5,5.5-5.5,5.5Z"/>
  <path class="st11" d="M327.3,69.7c-10.2,0-18.6,8.1-19,18.2h5.2c.5-7.2,6.5-13,13.8-13s13.4,5.7,13.8,13h5.2c-.5-10.1-8.8-18.2-19-18.2Z"/>
  <path class="st11" d="M327.3,46.5c-5.9,0-10.8,4.8-10.8,10.8s4.8,10.8,10.8,10.8,10.8-4.8,10.8-10.8-4.8-10.8-10.8-10.8ZM327.3,62.9c-3.1,0-5.5-2.5-5.5-5.5s2.5-5.5,5.5-5.5,5.5,2.5,5.5,5.5-2.5,5.5-5.5,5.5Z"/>
  <rect class="st8" x="296.8" y="137.8" width="59.2" height="6.3"/>
  <rect class="st4" x="1182" y="518.4" width="195.1" height="7.3"/>
  <rect class="st10" x="1120.8" y="139" width="169.4" height="7.3"/>
  <rect class="st6" x="1609.2" y="137.2" width="169.4" height="7.3"/>
  <rect class="st5" x="313.1" y="88.6" width="27" height="48.3"/>
  <polygon class="st1" points="338.9 92.3 336.5 92.3 336.5 83.1 329.1 79.5 330.2 77.4 338.9 81.6 338.9 92.3"/>
  <path class="st2" d="M331.4,82.5l-1.8-9.6c.2-.2,1-1.2,1.2-1.4,1.2-2.1.6-4.7-1.4-5.8-2-1.1-4.5-.4-5.7,1.7-1.2,2.1-.6,4.7,1.4,5.8.4.2.8.3,1.1.4l2.4,9.6,2.8-.8h0Z"/>
  <rect class="st3" x="302.8" y="88.8" width="47.7" height="10.1"/>
  <rect class="st13" x="736.5" y="139.1" width="21.2" height="5.8"/>
  <g>
    <path class="st11" d="M790.8,127.2l-18.6-15.4,1.2-1.3,1.2,1,2.4-2.9,3.2-3.9,1.9-2.3-1.9-2.4c-.1-.2-3.2-4-6.8-7-3.6-3-7.9-5.3-8.1-5.4l-2.7-1.4-1.9,2.3-3.2,3.9-2.4,2.9,1,.8-10,11.7-1.1-.9-2.4,2.9-3.2,3.9-1.9,2.3,1.8,2.4c.1.2,2.9,3.7,6.4,6.6,3.2,2.6,8.3,5.6,8.5,5.7l2.7,1.6,2-2.4,3.2-3.9,2.4-2.9-1-.8,1.1-1.2,18.8,15.5,1.7,1.4,2-.7c.4-.1,2.2-.9,3.5-2.7,1.4-1.9,1.6-3.7,1.6-4.2v-1.8c0,0-1.4-1.2-1.4-1.2h0Z"/>
    <path class="st13" d="M787.5,132.2c-.8,1-1.8,1.4-1.8,1.4l-21.6-17.8-6,6.8,1.1.9-3.2,3.9s-5-2.9-8-5.4c-3.2-2.7-5.8-6-5.8-6l3.2-3.9,1,.9,14.8-17.3-1-.9,3.2-3.9s4.1,2.2,7.5,4.9c3.3,2.8,6.3,6.4,6.3,6.4l-3.2,3.9-1.1-.9-6.1,6.9,21.6,17.8s0,1-.9,2.1h0Z"/>
    <path class="st11" d="M756.5,122c-.2,0-.4,0-.6-.1,0,0-2-.9-4.2-2.7-2.5-2-3.8-3.9-3.9-4-.5-.6-.3-1.5.3-1.9.6-.5,1.5-.3,2,.3,0,0,1.2,1.7,3.4,3.5,1.9,1.6,3.6,2.3,3.6,2.3.7.3,1,1.1.7,1.8-.2.5-.7.8-1.3.8h0Z"/>
    <path class="st11" d="M734.8,136.2v10.9h24.4v-10.9h-24.4ZM754.8,143.9h-15.4v-4.2h15.4v4.2Z"/>
  </g>
  <path class="st7" d="M1249.4,106.9h0c4.6,0,8.4-3.8,8.4-8.4s-3.7-8.4-8.4-8.4h0c-4.6,0-8.4,4.1-8.4,8.7s3.7,8.1,8.4,8.1h0Z"/>
  <g>
    <path class="st13" d="M1254,192c-1.9,0-3.8-.8-5.1-2.2-.3-.3-.5-.6-.7-.9-1.2,1.8-3.3,3-5.6,3h-.2c-1.9,0-3.7-.8-5-2.2-1.1-1.2-1.7-2.7-1.7-4.2v-35.1c.1,0-.2.8-.2.8-.8,2.2-2.8,3.6-5.3,3.6s-1.6-.2-2.4-.4c-1.5-.5-2.6-1.6-3.3-3.1-.7-1.6-.8-3.5-.2-5.1.3-1,5.4-17,7.2-22.3,1.9-5.6,8.2-9,16.8-9s13.8,3.4,16.2,8.6h0c0,0,9,24.2,9,24.2.5,1.5.5,3.1,0,4.6-.6,1.7-1.9,3-3.5,3.6-.8.3-1.6.4-2.4.4h0c-2.6,0-4.8-1.4-5.6-3.7l-1.4-3.1v36.3c-.2,3.4-3.1,6.1-6.5,6.1h-.2Z"/>
    <path class="st11" d="M1248.5,117.8c6,0,11.6,2.5,13.7,7l9,24c.6,1.6,0,3.9-1.9,4.6-.5.2-1,.3-1.5.3-1.4,0-2.6-.8-3.1-2l-6.8-14.9v49.1c-.2,1.7-1.7,3.4-3.8,3.4s0,0-.1,0c-2.3,0-4-1.7-4-3.4l.2-29.8h-3.8v29.9c0,1.7-1.7,3.4-3.8,3.4s0,0-.1,0c-2.3,0-4-1.8-3.9-3.5l.2-49.9-5.7,14.5c-.4,1.2-1.4,1.8-2.7,1.8s-1,0-1.5-.3c-2-.7-2.4-3-1.8-4.7,0,0,5.4-16.9,7.2-22.3s8.5-7.1,14.1-7.1M1248.5,112.2c-9.9,0-17.1,4.1-19.4,10.9-1.8,5.3-6.7,20.8-7.2,22.3-.8,2.4-.7,5,.3,7.2,1,2.1,2.7,3.7,4.9,4.5,1.1.4,2.2.6,3.4.6s1.9-.2,2.7-.4v28.4c-.1,2.2.7,4.4,2.3,6.1,1.8,1.9,4.3,3,6.9,3,0,0,.2,0,.2,0,2.1,0,4-.7,5.6-1.9,1.6,1.1,3.6,1.8,5.6,1.8,0,0,.2,0,.2,0,5,0,9.1-3.9,9.3-8.8h0c0,0,0-.1,0-.1v-27.7c1.3.7,2.8,1,4.3,1s2.3-.2,3.4-.6c2.4-.9,4.3-2.8,5.2-5.2.8-2.1.8-4.4,0-6.5h0s0,0,0,0l-9-24v-.2c0,0-.2-.2-.2-.2-2.9-6.2-10.2-10.2-18.8-10.2h0Z"/>
  </g>
  <circle class="st13" cx="1209.1" cy="482.9" r="8.1"/>
  <path class="st13" d="M1256.2,497.1c-9.1,0-16.6,7.2-17,16.2h33.9c-.4-9-7.9-16.2-17-16.2h0Z"/>
  <circle class="st13" cx="1302.3" cy="482.9" r="8.1"/>
  <path class="st11" d="M1209,472c-5.9,0-10.8,4.8-10.8,10.8s4.8,10.8,10.8,10.8,10.8-4.8,10.8-10.8-4.8-10.8-10.8-10.8ZM1209,488.3c-3.1,0-5.6-2.5-5.6-5.5s2.5-5.5,5.6-5.5,5.5,2.5,5.5,5.5-2.5,5.5-5.5,5.5Z"/>
  <path class="st11" d="M1302.3,472c-5.9,0-10.8,4.8-10.8,10.8s4.8,10.8,10.8,10.8,10.8-4.8,10.8-10.8-4.8-10.8-10.8-10.8ZM1302.3,488.3c-3.1,0-5.6-2.5-5.6-5.5s2.5-5.5,5.6-5.5,5.5,2.5,5.5,5.5-2.5,5.5-5.5,5.5Z"/>
  <path class="st11" d="M1256,494.8c-10.2,0-18.6,8.1-19,18.2h5.2c.5-7.2,6.5-13,13.8-13s13.4,5.7,13.8,13h5.2c-.5-10.1-8.8-18.2-19-18.2Z"/>
</svg>