<svg xmlns="http://www.w3.org/2000/svg" viewBox="0 0 420 485"><defs><style>.a{fill:#09425b;}.b,.j{fill:none;stroke-miterlimit:10;stroke-width:0.5px;}.b{stroke:#0d425b;}.c{fill:#fff;}.d{fill:#0d425b;}.e{fill:#fbc202;}.f{fill:#afc0c8;}.g{fill:#f08b00;}.h{fill:#7996a5;}.i{fill:#e8eef0;}.j{stroke:#e8eef0;}</style></defs><path class="a" d="M355.23,197.36a1.7,1.7,0,0,1-.27.95,1.9,1.9,0,0,1-.74.66,2.12,2.12,0,0,1,.85.71,1.79,1.79,0,0,1,.31,1.06,1.93,1.93,0,0,1-.66,1.54,3.16,3.16,0,0,1-3.62,0,1.9,1.9,0,0,1-.67-1.54,1.84,1.84,0,0,1,.31-1.07,2.14,2.14,0,0,1,.84-.7,1.87,1.87,0,0,1-.73-.66,1.7,1.7,0,0,1-.27-.95,1.89,1.89,0,0,1,.63-1.49,2.44,2.44,0,0,1,1.69-.56,2.52,2.52,0,0,1,1.7.55A1.9,1.9,0,0,1,355.23,197.36Zm-1.31,3.27a1,1,0,0,0-.28-.76.94.94,0,0,0-.74-.29,1,1,0,0,0-.74.28,1,1,0,0,0-.28.77,1.07,1.07,0,0,0,.27.76,1.16,1.16,0,0,0,1.5,0A1.06,1.06,0,0,0,353.92,200.63Zm-.15-3.2a1,1,0,0,0-.23-.68.78.78,0,0,0-.64-.26.79.79,0,0,0-.63.25,1,1,0,0,0-.23.69,1.06,1.06,0,0,0,.23.71.78.78,0,0,0,.64.26.79.79,0,0,0,.64-.26A1.06,1.06,0,0,0,353.77,197.43Z"/><path class="a" d="M359.9,202.75h-1.45v-5.61l-1.74.53v-1.18l3-1.09h.16Z"/><path class="a" d="M362.26,196.82a1.45,1.45,0,0,1,.44-1.09,1.6,1.6,0,0,1,1.15-.42,1.64,1.64,0,0,1,1.16.41,1.51,1.51,0,0,1,.44,1.13v.36a1.43,1.43,0,0,1-.44,1.09,1.6,1.6,0,0,1-1.15.42,1.62,1.62,0,0,1-1.16-.42,1.47,1.47,0,0,1-.44-1.12Zm1,.39a.73.73,0,0,0,.17.49.62.62,0,0,0,.46.18.58.58,0,0,0,.45-.18.75.75,0,0,0,.16-.5v-.38a.72.72,0,0,0-.16-.49.6.6,0,0,0-.46-.18.61.61,0,0,0-.45.18.75.75,0,0,0-.17.51Zm.92,5-.71-.38,3.58-5.74.71.39Zm1.62-1.25a1.47,1.47,0,0,1,.44-1.1,1.65,1.65,0,0,1,1.15-.41,1.62,1.62,0,0,1,1.16.41A1.48,1.48,0,0,1,369,201v.36a1.46,1.46,0,0,1-.43,1.09,1.81,1.81,0,0,1-2.32,0,1.48,1.48,0,0,1-.44-1.11Zm1,.39a.68.68,0,0,0,.18.48.58.58,0,0,0,.45.19c.41,0,.62-.22.62-.68V201a.69.69,0,0,0-.18-.49.65.65,0,0,0-.9,0,.69.69,0,0,0-.17.5Z"/><path class="a" d="M376.81,199.46h-3.08V202h3.58v.77H372.8v-7.11h4.46v.76h-3.53v2.3h3.08Z"/><path class="a" d="M381.44,201.35a.66.66,0,0,0-.27-.57,2.69,2.69,0,0,0-1-.35,5,5,0,0,1-1.09-.35,1.59,1.59,0,0,1-.6-.49,1.16,1.16,0,0,1-.19-.68,1.35,1.35,0,0,1,.55-1.09,2.12,2.12,0,0,1,1.4-.45,2.2,2.2,0,0,1,1.46.46,1.49,1.49,0,0,1,.56,1.19h-.91a.82.82,0,0,0-.32-.64,1.17,1.17,0,0,0-.79-.27,1.26,1.26,0,0,0-.77.21.68.68,0,0,0-.28.57.56.56,0,0,0,.26.49,3.19,3.19,0,0,0,.94.32,4.78,4.78,0,0,1,1.09.36,1.6,1.6,0,0,1,.62.5,1.22,1.22,0,0,1,.21.72,1.37,1.37,0,0,1-.57,1.14,2.42,2.42,0,0,1-1.47.43,2.63,2.63,0,0,1-1.12-.23,1.85,1.85,0,0,1-.77-.63,1.54,1.54,0,0,1-.27-.87h.9a1,1,0,0,0,.36.72,1.67,1.67,0,0,0,1.72.06A.63.63,0,0,0,381.44,201.35Z"/><path class="a" d="M388,200.16a3.22,3.22,0,0,1-.55,2,1.79,1.79,0,0,1-1.5.74,1.94,1.94,0,0,1-1.51-.61v2.54h-.91v-7.32h.83l0,.59a1.85,1.85,0,0,1,1.54-.68,1.81,1.81,0,0,1,1.5.71,3.21,3.21,0,0,1,.56,2Zm-.91-.1a2.31,2.31,0,0,0-.38-1.41,1.23,1.23,0,0,0-1-.52,1.33,1.33,0,0,0-1.23.73v2.53a1.33,1.33,0,0,0,1.24.72,1.2,1.2,0,0,0,1-.52A2.5,2.5,0,0,0,387.11,200.06Z"/><path class="a" d="M389.2,196.06a.54.54,0,0,1,.13-.37.52.52,0,0,1,.4-.15.51.51,0,0,1,.4.15.55.55,0,0,1,.14.37.53.53,0,0,1-.14.37.51.51,0,0,1-.4.15.48.48,0,0,1-.53-.52Zm1,6.69h-.91v-5.29h.91Z"/><path class="a" d="M391.41,200.06a3,3,0,0,1,.31-1.4,2.27,2.27,0,0,1,.85-1,2.32,2.32,0,0,1,1.24-.33,2.27,2.27,0,0,1,1.75.74,2.9,2.9,0,0,1,.66,2v.06a3.26,3.26,0,0,1-.29,1.39,2.18,2.18,0,0,1-.85.95,2.32,2.32,0,0,1-1.26.35,2.21,2.21,0,0,1-1.74-.75,2.84,2.84,0,0,1-.67-2Zm.91.1a2.3,2.3,0,0,0,.41,1.42,1.31,1.31,0,0,0,1.09.53,1.29,1.29,0,0,0,1.09-.54,2.49,2.49,0,0,0,.41-1.51,2.29,2.29,0,0,0-.41-1.41,1.32,1.32,0,0,0-1.1-.54,1.3,1.3,0,0,0-1.08.53A2.48,2.48,0,0,0,392.32,200.16Z"/><path class="a" d="M398.24,197.46l0,.67a1.91,1.91,0,0,1,1.58-.76c1.12,0,1.68.63,1.69,1.89v3.49h-.9v-3.5a1.19,1.19,0,0,0-.27-.84,1,1,0,0,0-.79-.28,1.26,1.26,0,0,0-.77.24,1.47,1.47,0,0,0-.52.61v3.77h-.91v-5.29Z"/><path class="a" d="M406.19,202.75a2,2,0,0,1-.12-.56,2,2,0,0,1-1.51.66,1.84,1.84,0,0,1-1.28-.45,1.42,1.42,0,0,1-.5-1.12,1.5,1.5,0,0,1,.63-1.28,3,3,0,0,1,1.76-.46h.88v-.41a1,1,0,0,0-.28-.76,1.18,1.18,0,0,0-.84-.28,1.35,1.35,0,0,0-.81.25.7.7,0,0,0-.32.59h-.91a1.21,1.21,0,0,1,.28-.76,2,2,0,0,1,.76-.59,2.61,2.61,0,0,1,1.06-.21,2.11,2.11,0,0,1,1.43.45,1.71,1.71,0,0,1,.54,1.26v2.43a3.07,3.07,0,0,0,.18,1.16v.08Zm-1.49-.69a1.53,1.53,0,0,0,.8-.22,1.37,1.37,0,0,0,.55-.57v-1.09h-.71c-1.1,0-1.66.33-1.66,1a.82.82,0,0,0,.29.66A1.09,1.09,0,0,0,404.7,202.06Z"/><path class="a" d="M408.19,200.06a3.09,3.09,0,0,1,.57-2,2,2,0,0,1,3,0l0-.59h.83v5.16a2.16,2.16,0,0,1-.61,1.62,2.25,2.25,0,0,1-1.63.59,2.61,2.61,0,0,1-1.12-.25,2,2,0,0,1-.84-.67l.47-.54a1.77,1.77,0,0,0,1.42.72,1.37,1.37,0,0,0,1-.37,1.42,1.42,0,0,0,.37-1.05v-.45a1.84,1.84,0,0,1-1.48.63,1.79,1.79,0,0,1-1.5-.75A3.29,3.29,0,0,1,408.19,200.06Zm.9.1a2.41,2.41,0,0,0,.37,1.41,1.19,1.19,0,0,0,1,.51,1.32,1.32,0,0,0,1.25-.78v-2.41a1.35,1.35,0,0,0-1.24-.76,1.18,1.18,0,0,0-1,.52A2.53,2.53,0,0,0,409.09,200.16Z"/><path class="a" d="M416.23,202.85a2.31,2.31,0,0,1-1.74-.71,2.62,2.62,0,0,1-.68-1.89v-.16a3.18,3.18,0,0,1,.3-1.41,2.31,2.31,0,0,1,.84-1,2.06,2.06,0,0,1,1.17-.35,2,2,0,0,1,1.6.68,2.93,2.93,0,0,1,.57,1.94v.37h-3.57a1.87,1.87,0,0,0,.45,1.27,1.43,1.43,0,0,0,1.11.48,1.57,1.57,0,0,0,.81-.2,1.89,1.89,0,0,0,.58-.51l.56.42A2.22,2.22,0,0,1,416.23,202.85Zm-.11-4.74a1.21,1.21,0,0,0-.92.4,2,2,0,0,0-.46,1.11h2.65v-.07a1.69,1.69,0,0,0-.37-1.06A1.14,1.14,0,0,0,416.12,198.11Z"/><path class="a" d="M377.26,111.17h-5v-1l2.37-2.53a6.4,6.4,0,0,0,.73-.93,1.58,1.58,0,0,0,.23-.76,1.12,1.12,0,0,0-.25-.77.9.9,0,0,0-.7-.28,1,1,0,0,0-.78.34,1.37,1.37,0,0,0-.29.9h-1.46a2.45,2.45,0,0,1,.32-1.23,2.36,2.36,0,0,1,.91-.86,2.74,2.74,0,0,1,1.32-.32,2.54,2.54,0,0,1,1.76.55,1.91,1.91,0,0,1,.63,1.53,2.47,2.47,0,0,1-.28,1.11,6.3,6.3,0,0,1-1,1.32L374.1,110h3.16Z"/><path class="a" d="M378.13,105.24a1.45,1.45,0,0,1,.44-1.09,1.8,1.8,0,0,1,2.3,0,1.46,1.46,0,0,1,.44,1.13v.36a1.4,1.4,0,0,1-.44,1.09,1.57,1.57,0,0,1-1.14.42,1.6,1.6,0,0,1-1.16-.42,1.48,1.48,0,0,1-.44-1.12Zm1,.39a.68.68,0,0,0,.17.49.62.62,0,0,0,.46.18.55.55,0,0,0,.44-.19.72.72,0,0,0,.17-.5v-.37a.73.73,0,0,0-.17-.49.65.65,0,0,0-.9,0,.69.69,0,0,0-.17.51Zm.91,5-.71-.38,3.58-5.74.71.38Zm1.62-1.25a1.42,1.42,0,0,1,.45-1.1,1.63,1.63,0,0,1,1.15-.41,1.59,1.59,0,0,1,1.15.41,1.44,1.44,0,0,1,.44,1.13v.36a1.44,1.44,0,0,1-.43,1.09,1.58,1.58,0,0,1-1.15.42,1.61,1.61,0,0,1-1.17-.42,1.48,1.48,0,0,1-.44-1.11Zm1,.39a.7.7,0,0,0,.18.48.6.6,0,0,0,.46.19c.41,0,.61-.23.61-.68v-.38a.71.71,0,0,0-.17-.49.6.6,0,0,0-.45-.18.62.62,0,0,0-.46.18.72.72,0,0,0-.17.5Z"/><path class="a" d="M388.66,111.17v-7.11h2a3.17,3.17,0,0,1,1.64.41,2.8,2.8,0,0,1,1.1,1.16,3.78,3.78,0,0,1,.39,1.74v.46a3.8,3.8,0,0,1-.39,1.76,2.68,2.68,0,0,1-1.1,1.16,3.48,3.48,0,0,1-1.68.42Zm.94-6.35v5.58h1a2.13,2.13,0,0,0,1.68-.67,2.8,2.8,0,0,0,.6-1.92v-.42a2.8,2.8,0,0,0-.56-1.88,2,2,0,0,0-1.62-.69Z"/><path class="a" d="M394.87,108.48a3.16,3.16,0,0,1,.3-1.4,2.41,2.41,0,0,1,.85-1,2.38,2.38,0,0,1,1.25-.33,2.21,2.21,0,0,1,1.74.74,2.9,2.9,0,0,1,.67,2v.06a3.12,3.12,0,0,1-.3,1.39,2.16,2.16,0,0,1-.84,1,2.33,2.33,0,0,1-1.26.34,2.23,2.23,0,0,1-1.75-.74,2.89,2.89,0,0,1-.66-2Zm.91.1a2.25,2.25,0,0,0,.4,1.41,1.32,1.32,0,0,0,1.1.54,1.3,1.3,0,0,0,1.09-.54,2.49,2.49,0,0,0,.4-1.51,2.23,2.23,0,0,0-.41-1.41,1.37,1.37,0,0,0-2.17,0A2.39,2.39,0,0,0,395.78,108.58Z"/><path class="a" d="M402.51,107.81l1.17-1.93h1.06L403,108.5l1.78,2.67h-1l-1.22-2-1.23,2h-1.05L402,108.5l-1.73-2.62h1Z"/><path class="a" d="M405.73,104.48a.54.54,0,0,1,.13-.37.52.52,0,0,1,.4-.15.51.51,0,0,1,.4.15.55.55,0,0,1,.14.37.53.53,0,0,1-.14.37.5.5,0,0,1-.4.14.52.52,0,0,1-.4-.14A.52.52,0,0,1,405.73,104.48Zm1,6.69h-.9v-5.29h.9Z"/><path class="a" d="M409,105.88l0,.67a1.94,1.94,0,0,1,1.59-.76c1.11,0,1.68.63,1.69,1.89v3.49h-.91v-3.5a1.19,1.19,0,0,0-.26-.84,1,1,0,0,0-.8-.28,1.28,1.28,0,0,0-.77.24,1.63,1.63,0,0,0-.52.61v3.77h-.9v-5.29Z"/><path class="a" d="M413.51,108.48a3.09,3.09,0,0,1,.57-2,1.84,1.84,0,0,1,1.52-.73,1.81,1.81,0,0,1,1.51.68l0-.59H418V111a2.19,2.19,0,0,1-.61,1.62,2.26,2.26,0,0,1-1.63.59,2.58,2.58,0,0,1-1.12-.25,1.84,1.84,0,0,1-.84-.67l.47-.54a1.77,1.77,0,0,0,1.42.72,1.38,1.38,0,0,0,1-.37,1.42,1.42,0,0,0,.37-1v-.45a1.85,1.85,0,0,1-1.48.62,1.79,1.79,0,0,1-1.5-.74A3.23,3.23,0,0,1,413.51,108.48Zm.91.1a2.34,2.34,0,0,0,.37,1.41,1.18,1.18,0,0,0,1,.51,1.33,1.33,0,0,0,1.26-.78v-2.41a1.34,1.34,0,0,0-1.25-.76,1.19,1.19,0,0,0-1,.52A2.53,2.53,0,0,0,414.42,108.58Z"/><path class="a" d="M382.16,149.57v1.2H382a2.48,2.48,0,0,0-1.59.51,2.15,2.15,0,0,0-.73,1.39,2,2,0,0,1,1.48-.6,1.85,1.85,0,0,1,1.52.69,2.73,2.73,0,0,1,.57,1.8,2.8,2.8,0,0,1-.31,1.3,2.31,2.31,0,0,1-.88.9,2.59,2.59,0,0,1-1.28.32,2.39,2.39,0,0,1-1.87-.8,3.13,3.13,0,0,1-.72-2.16v-.52a4.71,4.71,0,0,1,.45-2.11,3.35,3.35,0,0,1,1.3-1.41,3.69,3.69,0,0,1,2-.51Zm-1.42,3.68a1.17,1.17,0,0,0-.64.18,1.14,1.14,0,0,0-.43.49v.44a2,2,0,0,0,.29,1.14.94.94,0,0,0,.81.41,1,1,0,0,0,.76-.37,1.54,1.54,0,0,0,.29-1,1.5,1.5,0,0,0-.3-1A.94.94,0,0,0,380.74,153.25Z"/><path class="a" d="M384.11,151.06a1.43,1.43,0,0,1,.44-1.1,1.57,1.57,0,0,1,1.14-.42,1.6,1.6,0,0,1,1.16.42,1.43,1.43,0,0,1,.44,1.12v.36a1.42,1.42,0,0,1-.44,1.1,1.62,1.62,0,0,1-1.15.41,1.6,1.6,0,0,1-1.15-.42,1.43,1.43,0,0,1-.44-1.12Zm1,.38a.66.66,0,0,0,.18.49.6.6,0,0,0,.45.18.58.58,0,0,0,.45-.18.74.74,0,0,0,.17-.5v-.37a.69.69,0,0,0-.17-.49.56.56,0,0,0-.46-.19.55.55,0,0,0-.44.19.69.69,0,0,0-.18.51Zm.92,5-.71-.38,3.58-5.73.71.38Zm1.62-1.25a1.4,1.4,0,0,1,.45-1.09,1.6,1.6,0,0,1,1.15-.42,1.63,1.63,0,0,1,1.15.41,1.49,1.49,0,0,1,.44,1.13v.36a1.45,1.45,0,0,1-.43,1.1,1.83,1.83,0,0,1-2.32,0,1.48,1.48,0,0,1-.44-1.11Zm1,.39a.68.68,0,0,0,.18.48.59.59,0,0,0,.46.19c.41,0,.61-.22.61-.68v-.38a.69.69,0,0,0-.17-.48.58.58,0,0,0-.45-.19.59.59,0,0,0-.46.19.72.72,0,0,0-.17.5Z"/><path class="a" d="M394.64,157v-7.11h2a3.27,3.27,0,0,1,1.64.41,2.77,2.77,0,0,1,1.1,1.17,3.72,3.72,0,0,1,.39,1.74v.45a3.77,3.77,0,0,1-.39,1.76,2.7,2.7,0,0,1-1.1,1.17,3.48,3.48,0,0,1-1.68.41Zm.94-6.34v5.57h1a2.14,2.14,0,0,0,1.69-.67,2.8,2.8,0,0,0,.6-1.92v-.42a2.89,2.89,0,0,0-.56-1.88,2,2,0,0,0-1.62-.68Z"/><path class="a" d="M401.23,157v-7.11h2a3.3,3.3,0,0,1,1.64.41,2.77,2.77,0,0,1,1.1,1.17,3.72,3.72,0,0,1,.39,1.74v.45a3.77,3.77,0,0,1-.39,1.76,2.79,2.79,0,0,1-1.11,1.17,3.47,3.47,0,0,1-1.67.41Zm.94-6.34v5.57h1a2.15,2.15,0,0,0,1.69-.67,2.8,2.8,0,0,0,.6-1.92v-.42a2.83,2.83,0,0,0-.57-1.88,2,2,0,0,0-1.61-.68Z"/><path class="a" d="M407.44,154.29a3.19,3.19,0,0,1,.3-1.4,2.37,2.37,0,0,1,3.84-.54,2.87,2.87,0,0,1,.66,2v.07a3.1,3.1,0,0,1-.29,1.38,2.27,2.27,0,0,1-.85,1,2.37,2.37,0,0,1-1.26.34,2.23,2.23,0,0,1-1.74-.75,2.89,2.89,0,0,1-.66-2Zm.9.11a2.29,2.29,0,0,0,.41,1.41,1.39,1.39,0,0,0,2.19,0,2.47,2.47,0,0,0,.4-1.51,2.29,2.29,0,0,0-.41-1.41,1.38,1.38,0,0,0-2.18,0A2.51,2.51,0,0,0,408.34,154.4Z"/><path class="a" d="M415.64,153.81a4.31,4.31,0,0,1-1.75-.85,1.62,1.62,0,0,1-.55-1.25,1.72,1.72,0,0,1,.67-1.39,2.71,2.71,0,0,1,1.75-.55,2.89,2.89,0,0,1,1.3.29,2.12,2.12,0,0,1,.89.78,2,2,0,0,1,.32,1.09h-.95a1.28,1.28,0,0,0-.41-1,1.64,1.64,0,0,0-1.15-.37,1.68,1.68,0,0,0-1.09.31,1,1,0,0,0-.38.84.93.93,0,0,0,.36.74,3.78,3.78,0,0,0,1.26.55,6.16,6.16,0,0,1,1.39.55,2.09,2.09,0,0,1,.74.7,1.8,1.8,0,0,1,.24.94,1.67,1.67,0,0,1-.67,1.39,2.93,2.93,0,0,1-1.81.52,3.45,3.45,0,0,1-1.36-.28,2.33,2.33,0,0,1-1-.77,1.9,1.9,0,0,1-.35-1.11h.95a1.24,1.24,0,0,0,.47,1,2,2,0,0,0,1.27.37,1.84,1.84,0,0,0,1.14-.3,1.07,1.07,0,0,0,0-1.64A4.61,4.61,0,0,0,415.64,153.81Z"/><path class="a" d="M352.17,88.28h-1.46V82.67l-1.73.54V82l3-1.09h.16Z"/><path class="a" d="M354.53,82.36a1.47,1.47,0,0,1,.44-1.1,1.8,1.8,0,0,1,2.31,0,1.48,1.48,0,0,1,.44,1.12v.37a1.43,1.43,0,0,1-.44,1.09,1.59,1.59,0,0,1-1.15.41,1.66,1.66,0,0,1-1.16-.41,1.48,1.48,0,0,1-.44-1.12Zm1,.39a.69.69,0,0,0,.17.48.59.59,0,0,0,.46.19.55.55,0,0,0,.45-.19.72.72,0,0,0,.16-.5v-.37a.72.72,0,0,0-.16-.49.61.61,0,0,0-.46-.19.59.59,0,0,0-.45.19.73.73,0,0,0-.17.51Zm.92,5-.71-.39,3.58-5.73L360,82ZM358,86.49a1.45,1.45,0,0,1,.44-1.1,1.61,1.61,0,0,1,1.15-.42,1.66,1.66,0,0,1,1.16.41,1.51,1.51,0,0,1,.44,1.14v.36a1.45,1.45,0,0,1-.44,1.09,1.57,1.57,0,0,1-1.15.41,1.6,1.6,0,0,1-1.16-.41,1.44,1.44,0,0,1-.44-1.11Zm1,.39a.67.67,0,0,0,.18.47.59.59,0,0,0,.45.2c.41,0,.61-.23.61-.68v-.38a.65.65,0,0,0-.17-.49.65.65,0,0,0-.9,0,.68.68,0,0,0-.17.5Z"/><path class="a" d="M365.07,88.28V81.17h2a3.25,3.25,0,0,1,1.64.41,2.82,2.82,0,0,1,1.1,1.17,3.91,3.91,0,0,1,.4,1.74v.45a3.85,3.85,0,0,1-.39,1.77,2.76,2.76,0,0,1-1.11,1.16,3.37,3.37,0,0,1-1.68.41Zm.93-6.34v5.58h1a2.17,2.17,0,0,0,1.69-.68,2.8,2.8,0,0,0,.6-1.92v-.41a2.84,2.84,0,0,0-.57-1.89,2,2,0,0,0-1.61-.68Z"/><path class="a" d="M373.7,88.38a2.32,2.32,0,0,1-1.75-.7,2.66,2.66,0,0,1-.67-1.89v-.17a3.16,3.16,0,0,1,.3-1.4,2.41,2.41,0,0,1,.84-1,2.14,2.14,0,0,1,1.17-.35,2,2,0,0,1,1.6.68,3,3,0,0,1,.57,2v.37h-3.58a1.92,1.92,0,0,0,.46,1.26,1.43,1.43,0,0,0,1.11.48,1.57,1.57,0,0,0,.81-.19,1.91,1.91,0,0,0,.58-.52l.56.43A2.24,2.24,0,0,1,373.7,88.38Zm-.11-4.73a1.23,1.23,0,0,0-.92.39,2,2,0,0,0-.46,1.12h2.65v-.07a1.78,1.78,0,0,0-.37-1.07A1.13,1.13,0,0,0,373.59,83.65Z"/><path class="a" d="M377.28,88.28V83.7h-.83V83h.83v-.54a1.74,1.74,0,0,1,.46-1.31,1.71,1.71,0,0,1,1.28-.47,2.57,2.57,0,0,1,.62.08l-.05.73a2.49,2.49,0,0,0-.49,0,.87.87,0,0,0-.67.25,1.06,1.06,0,0,0-.24.74V83h1.12v.7h-1.12v4.58Z"/><path class="a" d="M383.6,88.28a1.9,1.9,0,0,1-.12-.55,2.05,2.05,0,0,1-1.51.65,1.88,1.88,0,0,1-1.28-.44,1.44,1.44,0,0,1-.5-1.12,1.48,1.48,0,0,1,.63-1.28,2.9,2.9,0,0,1,1.76-.46h.88v-.41a1,1,0,0,0-.28-.76,1.14,1.14,0,0,0-.84-.28,1.34,1.34,0,0,0-.81.24.73.73,0,0,0-.33.6h-.9a1.24,1.24,0,0,1,.28-.77,1.88,1.88,0,0,1,.76-.58,2.45,2.45,0,0,1,1.06-.22,2.13,2.13,0,0,1,1.43.46,1.64,1.64,0,0,1,.53,1.26v2.43a3.08,3.08,0,0,0,.19,1.16v.07Zm-1.5-.68a1.67,1.67,0,0,0,.81-.22,1.33,1.33,0,0,0,.55-.58V85.72h-.71c-1.1,0-1.66.32-1.66,1a.83.83,0,0,0,.29.67A1.06,1.06,0,0,0,382.1,87.6Z"/><path class="a" d="M387.93,87.64a1.26,1.26,0,0,0,.84-.29,1,1,0,0,0,.4-.73H390a1.67,1.67,0,0,1-.31.86,2.15,2.15,0,0,1-.77.66,2.25,2.25,0,0,1-1,.24,2.19,2.19,0,0,1-1.72-.72,2.89,2.89,0,0,1-.63-2v-.15a3.17,3.17,0,0,1,.28-1.37,2.17,2.17,0,0,1,.81-.93,2.25,2.25,0,0,1,1.25-.34,2.09,2.09,0,0,1,1.48.54,1.91,1.91,0,0,1,.63,1.38h-.86a1.2,1.2,0,0,0-.38-.84,1.18,1.18,0,0,0-.87-.33,1.26,1.26,0,0,0-1.06.49,2.34,2.34,0,0,0-.38,1.43v.17a2.23,2.23,0,0,0,.38,1.41A1.25,1.25,0,0,0,387.93,87.64Z"/><path class="a" d="M393.27,88.38a2.31,2.31,0,0,1-1.75-.7,2.62,2.62,0,0,1-.68-1.89v-.17a3.17,3.17,0,0,1,.31-1.4,2.33,2.33,0,0,1,.84-1,2.08,2.08,0,0,1,1.16-.35,2,2,0,0,1,1.61.68,3,3,0,0,1,.57,2v.37h-3.58a1.86,1.86,0,0,0,.45,1.26,1.47,1.47,0,0,0,1.12.48,1.62,1.62,0,0,0,.81-.19,2,2,0,0,0,.58-.52l.55.43A2.22,2.22,0,0,1,393.27,88.38Zm-.12-4.73a1.2,1.2,0,0,0-.91.39,2,2,0,0,0-.46,1.12h2.64v-.07a1.72,1.72,0,0,0-.37-1.07A1.13,1.13,0,0,0,393.15,83.65Z"/><path class="a" d="M397.25,83l0,.59a1.93,1.93,0,0,1,1.56-.69,1.51,1.51,0,0,1,1.51.85,2,2,0,0,1,.69-.61,2,2,0,0,1,1-.24c1.16,0,1.74.62,1.76,1.84v3.54h-.9V84.8a1.19,1.19,0,0,0-.26-.85,1.12,1.12,0,0,0-.87-.28,1.19,1.19,0,0,0-.83.3,1.25,1.25,0,0,0-.39.81v3.5h-.91V84.82a1,1,0,0,0-1.12-1.15,1.2,1.2,0,0,0-1.22.76v3.85h-.9V83Z"/><path class="a" d="M407.39,88.38a2.31,2.31,0,0,1-1.75-.7,2.62,2.62,0,0,1-.67-1.89v-.17a3.16,3.16,0,0,1,.3-1.4,2.41,2.41,0,0,1,.84-1,2.14,2.14,0,0,1,1.17-.35,2,2,0,0,1,1.6.68,3,3,0,0,1,.57,2v.37h-3.58a1.87,1.87,0,0,0,.46,1.26,1.43,1.43,0,0,0,1.11.48,1.57,1.57,0,0,0,.81-.19,2,2,0,0,0,.58-.52l.55.43A2.22,2.22,0,0,1,407.39,88.38Zm-.11-4.73a1.22,1.22,0,0,0-.92.39,2,2,0,0,0-.46,1.12h2.65v-.07a1.78,1.78,0,0,0-.37-1.07A1.16,1.16,0,0,0,407.28,83.65Z"/><path class="a" d="M411.38,83l0,.66A1.94,1.94,0,0,1,413,82.9c1.12,0,1.68.63,1.69,1.89v3.49h-.9V84.79a1.29,1.29,0,0,0-.26-.85,1.07,1.07,0,0,0-.8-.27,1.32,1.32,0,0,0-.77.23,1.56,1.56,0,0,0-.52.62v3.76h-.9V83Z"/><path class="a" d="M417.3,81.72V83h1v.7h-1V87a.74.74,0,0,0,.13.48.58.58,0,0,0,.45.15,2,2,0,0,0,.43,0v.72a2.47,2.47,0,0,1-.7.1,1.14,1.14,0,0,1-.91-.36,1.63,1.63,0,0,1-.31-1V83.7h-1V83h1V81.72Z"/><path class="a" d="M364.49,172.45v1.2h-.14a2.43,2.43,0,0,0-1.59.52,2.07,2.07,0,0,0-.72,1.38,2,2,0,0,1,1.47-.59,1.87,1.87,0,0,1,1.52.68,3,3,0,0,1,.26,3.1,2.18,2.18,0,0,1-.88.9,2.49,2.49,0,0,1-1.28.33,2.37,2.37,0,0,1-1.87-.81,3.12,3.12,0,0,1-.72-2.15v-.52a4.71,4.71,0,0,1,.46-2.11,3.35,3.35,0,0,1,1.29-1.42,3.91,3.91,0,0,1,2-.51Zm-1.42,3.68a1.1,1.1,0,0,0-.64.19,1.08,1.08,0,0,0-.42.48v.44a2,2,0,0,0,.28,1.14.94.94,0,0,0,.81.41.92.92,0,0,0,.76-.37,1.5,1.5,0,0,0,.29-1,1.52,1.52,0,0,0-.29-1A1,1,0,0,0,363.07,176.13Z"/><path class="a" d="M366.44,173.94a1.41,1.41,0,0,1,.44-1.09,1.77,1.77,0,0,1,2.3,0,1.46,1.46,0,0,1,.44,1.13v.36a1.4,1.4,0,0,1-.44,1.09,1.57,1.57,0,0,1-1.14.41,1.6,1.6,0,0,1-1.16-.41,1.48,1.48,0,0,1-.44-1.12Zm1,.39a.68.68,0,0,0,.17.49.62.62,0,0,0,.46.18.55.55,0,0,0,.44-.19.68.68,0,0,0,.17-.5v-.37a.68.68,0,0,0-.17-.49.65.65,0,0,0-.9,0,.69.69,0,0,0-.17.51Zm.91,5-.71-.39,3.58-5.73.71.38Zm1.63-1.25a1.42,1.42,0,0,1,.44-1.1,1.82,1.82,0,0,1,2.3,0,1.44,1.44,0,0,1,.44,1.13v.36a1.44,1.44,0,0,1-.43,1.09,1.58,1.58,0,0,1-1.15.42,1.63,1.63,0,0,1-1.17-.42,1.47,1.47,0,0,1-.43-1.11Zm1,.39a.67.67,0,0,0,.18.47.6.6,0,0,0,.46.2c.41,0,.61-.23.61-.68v-.38a.69.69,0,0,0-.17-.49.6.6,0,0,0-.45-.18.62.62,0,0,0-.46.18.72.72,0,0,0-.17.5Z"/><path class="a" d="M379.07,176.7a4.49,4.49,0,0,1-1.76-.86,1.63,1.63,0,0,1-.55-1.24,1.73,1.73,0,0,1,.67-1.39,2.66,2.66,0,0,1,1.75-.55,2.86,2.86,0,0,1,1.3.28,2.13,2.13,0,0,1,.89.78,2,2,0,0,1,.32,1.09h-.94a1.33,1.33,0,0,0-.41-1,2,2,0,0,0-2.24-.06,1,1,0,0,0-.39.85.93.93,0,0,0,.37.74,3.62,3.62,0,0,0,1.25.55,5.2,5.2,0,0,1,1.39.55,2,2,0,0,1,.74.7,1.78,1.78,0,0,1,.24.94,1.65,1.65,0,0,1-.67,1.38,2.85,2.85,0,0,1-1.8.52,3.29,3.29,0,0,1-1.37-.28,2.32,2.32,0,0,1-1-.77,1.85,1.85,0,0,1-.34-1.11h.94a1.24,1.24,0,0,0,.47,1,2,2,0,0,0,1.28.38,1.77,1.77,0,0,0,1.13-.31,1.06,1.06,0,0,0,0-1.63A4,4,0,0,0,379.07,176.7Z"/><path class="a" d="M386.05,179.86a1.9,1.9,0,0,1-.12-.55,2,2,0,0,1-1.51.65,1.83,1.83,0,0,1-1.28-.44,1.44,1.44,0,0,1-.5-1.12,1.48,1.48,0,0,1,.63-1.28,2.92,2.92,0,0,1,1.76-.46h.88v-.41a1,1,0,0,0-.28-.76,1.18,1.18,0,0,0-.84-.28,1.28,1.28,0,0,0-.81.25.73.73,0,0,0-.32.59h-.91a1.24,1.24,0,0,1,.28-.77,2,2,0,0,1,.76-.58,2.61,2.61,0,0,1,1.06-.22,2.12,2.12,0,0,1,1.43.46,1.68,1.68,0,0,1,.54,1.26v2.43a3.1,3.1,0,0,0,.18,1.16v.07Zm-1.5-.68a1.64,1.64,0,0,0,.81-.22,1.37,1.37,0,0,0,.55-.57V177.3h-.71c-1.1,0-1.66.33-1.66,1a.83.83,0,0,0,.29.67A1.08,1.08,0,0,0,384.55,179.18Z"/><path class="a" d="M392.73,177.28a3.15,3.15,0,0,1-.55,1.95,1.78,1.78,0,0,1-1.5.73,1.81,1.81,0,0,1-1.54-.71l-.05.61h-.83v-7.5h.91v2.8a2,2,0,0,1,3,.05,3.29,3.29,0,0,1,.54,2Zm-.9-.1a2.44,2.44,0,0,0-.36-1.43,1.17,1.17,0,0,0-1-.5,1.32,1.32,0,0,0-1.28.83v2.29a1.35,1.35,0,0,0,1.29.83,1.17,1.17,0,0,0,1-.51A2.59,2.59,0,0,0,391.83,177.18Z"/><path class="a" d="M393.66,177.17a3,3,0,0,1,.31-1.39,2.21,2.21,0,0,1,.85-1,2.35,2.35,0,0,1,1.24-.34,2.24,2.24,0,0,1,1.75.75,2.9,2.9,0,0,1,.66,2v.06a3.26,3.26,0,0,1-.29,1.39,2.27,2.27,0,0,1-2.11,1.29,2.23,2.23,0,0,1-1.74-.74,2.84,2.84,0,0,1-.67-2Zm.91.11a2.25,2.25,0,0,0,.41,1.41,1.37,1.37,0,0,0,2.18,0,2.5,2.5,0,0,0,.41-1.52,2.28,2.28,0,0,0-.41-1.4,1.32,1.32,0,0,0-1.1-.54,1.27,1.27,0,0,0-1.08.53A2.46,2.46,0,0,0,394.57,177.28Z"/><path class="a" d="M400.86,173.3v1.28h1v.7h-1v3.28a.74.74,0,0,0,.13.48.58.58,0,0,0,.45.16,2.07,2.07,0,0,0,.43-.06v.73a2.84,2.84,0,0,1-.69.09,1.13,1.13,0,0,1-.91-.36,1.56,1.56,0,0,1-.31-1v-3.28h-1v-.7h1V173.3Z"/><path class="a" d="M406.19,179.86a1.9,1.9,0,0,1-.12-.55,2,2,0,0,1-1.51.65,1.83,1.83,0,0,1-1.28-.44,1.44,1.44,0,0,1-.5-1.12,1.48,1.48,0,0,1,.63-1.28,2.9,2.9,0,0,1,1.76-.46h.88v-.41a1,1,0,0,0-.28-.76,1.18,1.18,0,0,0-.84-.28,1.28,1.28,0,0,0-.81.25.7.7,0,0,0-.32.59h-.91a1.24,1.24,0,0,1,.28-.77,2,2,0,0,1,.76-.58,2.61,2.61,0,0,1,1.06-.22,2.12,2.12,0,0,1,1.43.46,1.64,1.64,0,0,1,.53,1.26v2.43a3.08,3.08,0,0,0,.19,1.16v.07Zm-1.49-.68a1.63,1.63,0,0,0,.8-.22,1.37,1.37,0,0,0,.55-.57V177.3h-.71c-1.1,0-1.66.33-1.66,1a.83.83,0,0,0,.29.67A1.09,1.09,0,0,0,404.7,179.18Z"/><path class="a" d="M408.19,177.18a3.14,3.14,0,0,1,.57-2,1.83,1.83,0,0,1,1.51-.73,1.8,1.8,0,0,1,1.51.69l0-.59h.83v5.16a2.12,2.12,0,0,1-.61,1.61,2.21,2.21,0,0,1-1.63.6,2.76,2.76,0,0,1-1.12-.25,2,2,0,0,1-.84-.67l.47-.54a1.77,1.77,0,0,0,1.43.72,1.4,1.4,0,0,0,1-.37,1.42,1.42,0,0,0,.37-1.05v-.45a1.87,1.87,0,0,1-1.48.62,1.81,1.81,0,0,1-1.5-.74A3.29,3.29,0,0,1,408.19,177.18Zm.91.1a2.41,2.41,0,0,0,.36,1.41,1.19,1.19,0,0,0,1,.51,1.32,1.32,0,0,0,1.25-.78V176a1.33,1.33,0,0,0-1.24-.76,1.19,1.19,0,0,0-1,.51A2.58,2.58,0,0,0,409.1,177.28Z"/><path class="a" d="M416.23,180a2.3,2.3,0,0,1-1.74-.7,2.62,2.62,0,0,1-.68-1.89v-.17a3.16,3.16,0,0,1,.3-1.4,2.41,2.41,0,0,1,.84-1,2.14,2.14,0,0,1,1.17-.35,2,2,0,0,1,1.6.68,3,3,0,0,1,.57,2v.37h-3.57a1.86,1.86,0,0,0,.45,1.26,1.41,1.41,0,0,0,1.11.49,1.57,1.57,0,0,0,.81-.2,1.91,1.91,0,0,0,.58-.52l.56.43A2.24,2.24,0,0,1,416.23,180Zm-.11-4.73a1.23,1.23,0,0,0-.92.39,2,2,0,0,0-.46,1.12h2.65v-.07a1.72,1.72,0,0,0-.37-1.06A1.11,1.11,0,0,0,416.12,175.23Z"/><path class="a" d="M332.4,131.29h.84v1.17h-.84v1.59H331v-1.59h-3l-.07-.91,3.06-4.84h1.47Zm-3.07,0H331V128.7l-.1.17Z"/><path class="a" d="M334,128.13a1.46,1.46,0,0,1,.43-1.1,1.8,1.8,0,0,1,2.31,0,1.47,1.47,0,0,1,.44,1.12v.36a1.45,1.45,0,0,1-.44,1.1,1.62,1.62,0,0,1-1.15.41,1.58,1.58,0,0,1-1.15-.42,1.43,1.43,0,0,1-.44-1.12Zm1,.38a.67.67,0,0,0,.18.49.65.65,0,0,0,.9,0,.74.74,0,0,0,.17-.5v-.37a.69.69,0,0,0-.17-.49.56.56,0,0,0-.46-.19.61.61,0,0,0-.45.18.77.77,0,0,0-.17.52Zm.92,5-.71-.38,3.58-5.74.71.39Zm1.62-1.25a1.44,1.44,0,0,1,.45-1.1,1.61,1.61,0,0,1,1.14-.41,1.64,1.64,0,0,1,1.16.41,1.48,1.48,0,0,1,.44,1.13v.36a1.46,1.46,0,0,1-.43,1.1,1.64,1.64,0,0,1-1.16.41,1.6,1.6,0,0,1-1.16-.42,1.48,1.48,0,0,1-.44-1.11Zm1,.39a.68.68,0,0,0,.18.48.58.58,0,0,0,.45.19c.41,0,.62-.22.62-.68v-.38a.69.69,0,0,0-.17-.48.59.59,0,0,0-.46-.19.57.57,0,0,0-.45.19.7.7,0,0,0-.17.5Z"/><path class="a" d="M344.53,134.05v-7.11h2a3.31,3.31,0,0,1,1.65.41,2.77,2.77,0,0,1,1.1,1.17,3.85,3.85,0,0,1,.39,1.74v.45a3.77,3.77,0,0,1-.39,1.76,2.71,2.71,0,0,1-1.11,1.16,3.47,3.47,0,0,1-1.67.42Zm.94-6.34v5.57h1a2.15,2.15,0,0,0,1.69-.67,2.8,2.8,0,0,0,.6-1.92v-.42a2.82,2.82,0,0,0-.57-1.88,2,2,0,0,0-1.61-.68Z"/><path class="a" d="M354.24,134.05a1.57,1.57,0,0,1-.13-.56,2,2,0,0,1-1.5.66,1.9,1.9,0,0,1-1.29-.44,1.46,1.46,0,0,1-.5-1.13,1.5,1.5,0,0,1,.63-1.28,3,3,0,0,1,1.76-.45h.88v-.42a1,1,0,0,0-.28-.75,1.13,1.13,0,0,0-.83-.28,1.3,1.3,0,0,0-.81.24.71.71,0,0,0-.33.59h-.91a1.21,1.21,0,0,1,.28-.76,2,2,0,0,1,.76-.59,2.64,2.64,0,0,1,1.06-.21,2.07,2.07,0,0,1,1.43.46,1.64,1.64,0,0,1,.54,1.25v2.43a3,3,0,0,0,.18,1.16v.08Zm-1.5-.69a1.53,1.53,0,0,0,.8-.22,1.31,1.31,0,0,0,.55-.57v-1.08h-.7c-1.11,0-1.66.32-1.66,1a.81.81,0,0,0,.28.66A1.09,1.09,0,0,0,352.74,133.36Z"/><path class="a" d="M357.67,127.49v1.28h1v.69h-1v3.28a.71.71,0,0,0,.13.48.55.55,0,0,0,.45.16,2.16,2.16,0,0,0,.43-.06v.73a2.88,2.88,0,0,1-.69.1,1.12,1.12,0,0,1-.92-.37,1.59,1.59,0,0,1-.3-1v-3.28h-1v-.69h1v-1.28Z"/><path class="a" d="M363,134.05a2.19,2.19,0,0,1-.13-.56,2,2,0,0,1-1.5.66,1.88,1.88,0,0,1-1.28-.44,1.46,1.46,0,0,1-.5-1.13,1.5,1.5,0,0,1,.63-1.28,3,3,0,0,1,1.76-.45h.88v-.42a1,1,0,0,0-.28-.75,1.14,1.14,0,0,0-.84-.28,1.34,1.34,0,0,0-.81.24.71.71,0,0,0-.33.59h-.9a1.21,1.21,0,0,1,.28-.76,1.9,1.9,0,0,1,.76-.59,2.61,2.61,0,0,1,1.06-.21,2.08,2.08,0,0,1,1.43.46,1.63,1.63,0,0,1,.53,1.25v2.43A3,3,0,0,0,364,134v.08Zm-1.5-.69a1.57,1.57,0,0,0,.81-.22,1.37,1.37,0,0,0,.55-.57v-1.08h-.71c-1.11,0-1.66.32-1.66,1a.82.82,0,0,0,.29.66A1.06,1.06,0,0,0,361.5,133.36Z"/><path class="a" d="M367.86,134.05v-7.11h2a3.25,3.25,0,0,1,1.64.41,2.73,2.73,0,0,1,1.11,1.17,4,4,0,0,1,.39,1.74v.45a3.77,3.77,0,0,1-.39,1.76,2.71,2.71,0,0,1-1.11,1.16,3.48,3.48,0,0,1-1.68.42Zm.93-6.34v5.57h1a2.15,2.15,0,0,0,1.69-.67,2.8,2.8,0,0,0,.6-1.92v-.42a2.82,2.82,0,0,0-.57-1.88,2,2,0,0,0-1.61-.68Z"/><path class="a" d="M376.5,134.15a2.31,2.31,0,0,1-1.75-.71,2.62,2.62,0,0,1-.68-1.89v-.16a3.13,3.13,0,0,1,.3-1.4,2.28,2.28,0,0,1,.84-1,2.06,2.06,0,0,1,1.17-.35,2,2,0,0,1,1.6.68,2.94,2.94,0,0,1,.58,1.94v.38H375a1.86,1.86,0,0,0,.45,1.26,1.45,1.45,0,0,0,1.11.48,1.63,1.63,0,0,0,.82-.2,2.15,2.15,0,0,0,.58-.51l.55.43A2.23,2.23,0,0,1,376.5,134.15Zm-.12-4.74a1.21,1.21,0,0,0-.92.4,1.91,1.91,0,0,0-.45,1.11h2.64v-.06a1.69,1.69,0,0,0-.37-1.07A1.14,1.14,0,0,0,376.38,129.41Z"/><path class="a" d="M382.71,132.65a.67.67,0,0,0-.28-.57,2.55,2.55,0,0,0-1-.35,4.51,4.51,0,0,1-1.09-.35,1.59,1.59,0,0,1-.6-.49,1.23,1.23,0,0,1-.19-.67,1.38,1.38,0,0,1,.55-1.1,2.14,2.14,0,0,1,1.4-.45,2.2,2.2,0,0,1,1.46.46,1.49,1.49,0,0,1,.56,1.19h-.91a.81.81,0,0,0-.31-.64,1.19,1.19,0,0,0-.8-.27,1.21,1.21,0,0,0-.77.22.69.69,0,0,0-.28.56.56.56,0,0,0,.26.49,3.3,3.3,0,0,0,.94.32,4.62,4.62,0,0,1,1.09.36,1.72,1.72,0,0,1,.63.5,1.29,1.29,0,0,1,.2.72,1.34,1.34,0,0,1-.57,1.14,2.38,2.38,0,0,1-1.47.43,2.67,2.67,0,0,1-1.12-.23,1.81,1.81,0,0,1-.76-.62,1.49,1.49,0,0,1-.28-.88h.9a.92.92,0,0,0,.37.72,1.37,1.37,0,0,0,.89.27,1.46,1.46,0,0,0,.83-.21A.65.65,0,0,0,382.71,132.65Z"/><path class="a" d="M386,127.49v1.28h1v.69h-1v3.28a.76.76,0,0,0,.13.48.55.55,0,0,0,.45.16,2.07,2.07,0,0,0,.43-.06v.73a2.81,2.81,0,0,1-.69.1,1.1,1.1,0,0,1-.91-.37,1.54,1.54,0,0,1-.31-1v-3.28h-1v-.69h1v-1.28Z"/><path class="a" d="M390.67,129.58a2.15,2.15,0,0,0-.45,0,1.18,1.18,0,0,0-1.2.76v3.75h-.91v-5.28H389l0,.61a1.38,1.38,0,0,1,1.26-.71.87.87,0,0,1,.4.07Z"/><path class="a" d="M394.79,133.53a1.93,1.93,0,0,1-1.55.62,1.69,1.69,0,0,1-1.29-.49,2.14,2.14,0,0,1-.44-1.46v-3.43h.9v3.41c0,.8.33,1.2,1,1.2a1.34,1.34,0,0,0,1.37-.77v-3.84h.91v5.28h-.86Z"/><path class="a" d="M399.19,133.41a1.32,1.32,0,0,0,.84-.29,1,1,0,0,0,.4-.74h.86a1.67,1.67,0,0,1-.31.87,2.25,2.25,0,0,1-1.79.9,2.19,2.19,0,0,1-1.72-.72,2.89,2.89,0,0,1-.63-2v-.15a3.18,3.18,0,0,1,.28-1.38,2.17,2.17,0,0,1,.81-.93,2.31,2.31,0,0,1,1.25-.33,2.13,2.13,0,0,1,1.48.53,2,2,0,0,1,.63,1.38h-.86a1.21,1.21,0,0,0-1.25-1.17,1.26,1.26,0,0,0-1.06.5,2.26,2.26,0,0,0-.38,1.43v.17a2.3,2.3,0,0,0,.37,1.41A1.27,1.27,0,0,0,399.19,133.41Z"/><path class="a" d="M403.56,127.49v1.28h1v.69h-1v3.28a.71.71,0,0,0,.13.48.55.55,0,0,0,.45.16,2.16,2.16,0,0,0,.43-.06v.73a2.88,2.88,0,0,1-.69.1,1.12,1.12,0,0,1-.92-.37,1.59,1.59,0,0,1-.3-1v-3.28h-1v-.69h1v-1.28Z"/><path class="a" d="M405.64,127.36a.54.54,0,0,1,.13-.37.51.51,0,0,1,.4-.15.52.52,0,0,1,.4.15.54.54,0,0,1,.13.37.48.48,0,0,1-.53.52.51.51,0,0,1-.4-.15A.52.52,0,0,1,405.64,127.36Zm1,6.69h-.9v-5.28h.9Z"/><path class="a" d="M407.85,131.36a3.19,3.19,0,0,1,.3-1.4,2.26,2.26,0,0,1,2.1-1.29,2.22,2.22,0,0,1,1.74.75,2.83,2.83,0,0,1,.67,2v.07a3.11,3.11,0,0,1-.3,1.38,2.25,2.25,0,0,1-.84,1,2.42,2.42,0,0,1-1.26.34,2.21,2.21,0,0,1-1.74-.75,2.84,2.84,0,0,1-.67-2Zm.91.11a2.29,2.29,0,0,0,.4,1.41,1.34,1.34,0,0,0,1.1.53,1.3,1.3,0,0,0,1.09-.54,2.47,2.47,0,0,0,.4-1.51,2.23,2.23,0,0,0-.41-1.41,1.37,1.37,0,0,0-2.17,0A2.44,2.44,0,0,0,408.76,131.47Z"/><path class="a" d="M414.68,128.77l0,.66a1.94,1.94,0,0,1,1.59-.76c1.11,0,1.68.63,1.69,1.89v3.49h-.91v-3.5a1.19,1.19,0,0,0-.26-.84,1.06,1.06,0,0,0-.8-.27,1.27,1.27,0,0,0-.77.23,1.71,1.71,0,0,0-.52.61v3.77h-.9v-5.28Z"/><polyline class="b" points="365.18 110.7 255 110.7 100.06 100.8"/><polyline class="b" points="371.99 156.52 216.86 156.52 100.06 100.8"/><polyline class="b" points="343.43 87.82 265.6 87.82 100.06 100.8"/><polyline class="b" points="353.55 179.4 186.96 179.4 100.06 100.8"/><polyline class="b" points="321.88 133.63 238.8 133.63 100.06 100.8"/><polyline class="b" points="343.43 202.28 143.81 202.28 100.06 100.8"/><path class="a" d="M348.32,59h-2.18v5.93h-1.46V59h-2.15V57.82h5.79Z"/><path class="a" d="M347.82,62.24a3.18,3.18,0,0,1,.31-1.41,2.22,2.22,0,0,1,.87-.95,2.59,2.59,0,0,1,1.32-.33,2.42,2.42,0,0,1,1.75.65,2.63,2.63,0,0,1,.75,1.78v.36a2.77,2.77,0,0,1-.68,2,2.63,2.63,0,0,1-3.64,0,2.78,2.78,0,0,1-.69-2Zm1.42.1a2,2,0,0,0,.28,1.15,1,1,0,0,0,.81.4.92.92,0,0,0,.8-.4,2.17,2.17,0,0,0,.29-1.26,2,2,0,0,0-.29-1.14,1,1,0,0,0-1.61,0A2.18,2.18,0,0,0,349.24,62.34Z"/><path class="a" d="M355.39,58.34v1.3h.9v1h-.9v2.64a.68.68,0,0,0,.11.42.6.6,0,0,0,.43.12,2.58,2.58,0,0,0,.42,0V64.9a3.13,3.13,0,0,1-.86.12A1.34,1.34,0,0,1,354,63.53V60.68h-.77v-1H354v-1.3Z"/><path class="a" d="M360.14,64.93a1.51,1.51,0,0,1-.14-.48,1.72,1.72,0,0,1-1.34.57,1.87,1.87,0,0,1-1.28-.45,1.42,1.42,0,0,1-.51-1.13,1.48,1.48,0,0,1,.62-1.29,3,3,0,0,1,1.8-.45h.65v-.3a.85.85,0,0,0-.19-.59.71.71,0,0,0-.59-.22.85.85,0,0,0-.56.17.57.57,0,0,0-.2.47H357a1.4,1.4,0,0,1,.28-.85,1.86,1.86,0,0,1,.8-.61,2.86,2.86,0,0,1,1.16-.22,2.29,2.29,0,0,1,1.55.49,1.71,1.71,0,0,1,.58,1.38v2.29a2.39,2.39,0,0,0,.21,1.13v.09ZM359,64a1.27,1.27,0,0,0,.58-.14,1,1,0,0,0,.39-.38v-.91h-.53c-.7,0-1.08.25-1.13.74v.08a.55.55,0,0,0,.18.43A.72.72,0,0,0,359,64Z"/><path class="a" d="M363.93,64.93h-1.42v-7.5h1.42Z"/><path class="a" d="M367.36,62.25a3.18,3.18,0,0,1,.56-2,1.77,1.77,0,0,1,1.51-.73,1.64,1.64,0,0,1,1.28.57V57.43h1.41v7.5h-1.27l-.07-.57a1.65,1.65,0,0,1-1.36.66,1.77,1.77,0,0,1-1.49-.73A3.26,3.26,0,0,1,367.36,62.25Zm1.41.1a2.09,2.09,0,0,0,.26,1.14.85.85,0,0,0,.75.4,1,1,0,0,0,.93-.56V61.25a.94.94,0,0,0-.92-.56C369.11,60.69,368.77,61.25,368.77,62.35Z"/><path class="a" d="M373.21,58.28a.71.71,0,0,1,.21-.53.82.82,0,0,1,.58-.2.81.81,0,0,1,.57.2.68.68,0,0,1,.22.53.66.66,0,0,1-.22.52A.79.79,0,0,1,374,59a.81.81,0,0,1-.58-.21A.69.69,0,0,1,373.21,58.28Zm1.49,6.65h-1.41V59.64h1.41Z"/><path class="a" d="M378.73,63.47a.46.46,0,0,0-.26-.41,2.87,2.87,0,0,0-.82-.27c-1.26-.26-1.89-.8-1.89-1.6a1.44,1.44,0,0,1,.59-1.17,2.32,2.32,0,0,1,1.52-.47,2.51,2.51,0,0,1,1.61.47,1.49,1.49,0,0,1,.61,1.23h-1.42a.68.68,0,0,0-.19-.5.83.83,0,0,0-.61-.2.88.88,0,0,0-.55.16.53.53,0,0,0-.2.41.45.45,0,0,0,.22.38,2.22,2.22,0,0,0,.75.25A5.57,5.57,0,0,1,379,62a1.45,1.45,0,0,1,1.12,1.42,1.39,1.39,0,0,1-.62,1.17,2.66,2.66,0,0,1-1.6.44,2.76,2.76,0,0,1-1.18-.23,2.1,2.1,0,0,1-.81-.65,1.55,1.55,0,0,1-.29-.89h1.34a.71.71,0,0,0,.27.57,1.1,1.1,0,0,0,.7.2,1,1,0,0,0,.61-.15A.48.48,0,0,0,378.73,63.47Z"/><path class="a" d="M382.7,58.34v1.3h.9v1h-.9v2.64a.68.68,0,0,0,.11.42.6.6,0,0,0,.43.12,2.46,2.46,0,0,0,.41,0V64.9a3,3,0,0,1-.85.12,1.34,1.34,0,0,1-1.51-1.49V60.68h-.77v-1h.77v-1.3Z"/><path class="a" d="M387.36,61a3.44,3.44,0,0,0-.51,0,1,1,0,0,0-1.05.54v3.46h-1.41V59.64h1.33l0,.63a1.31,1.31,0,0,1,1.18-.72,1.61,1.61,0,0,1,.44.06Z"/><path class="a" d="M388,58.28a.71.71,0,0,1,.21-.53.82.82,0,0,1,.58-.2.81.81,0,0,1,.57.2.68.68,0,0,1,.22.53.69.69,0,0,1-.22.52.89.89,0,0,1-1.15,0A.69.69,0,0,1,388,58.28Zm1.49,6.65h-1.41V59.64h1.41Z"/><path class="a" d="M395.45,62.33a3.13,3.13,0,0,1-.55,2,1.77,1.77,0,0,1-1.51.71,1.65,1.65,0,0,1-1.37-.66l-.06.57h-1.27v-7.5h1.41v2.69a1.59,1.59,0,0,1,1.28-.57,1.8,1.8,0,0,1,1.52.71,3.24,3.24,0,0,1,.55,2Zm-1.41-.1a2.11,2.11,0,0,0-.26-1.17.87.87,0,0,0-.75-.37.94.94,0,0,0-.93.55v2.09a.94.94,0,0,0,.93.56.87.87,0,0,0,.9-.68A3.33,3.33,0,0,0,394,62.23Z"/><path class="a" d="M399.48,64.39A1.78,1.78,0,0,1,398,65a1.68,1.68,0,0,1-1.29-.48,2.11,2.11,0,0,1-.46-1.43V59.64h1.41v3.42c0,.55.25.83.76.83a1,1,0,0,0,1-.5V59.64h1.42v5.29h-1.33Z"/><path class="a" d="M403.6,58.34v1.3h.9v1h-.9v2.64a.68.68,0,0,0,.11.42.6.6,0,0,0,.43.12,2.58,2.58,0,0,0,.42,0V64.9a3.08,3.08,0,0,1-.86.12,1.34,1.34,0,0,1-1.51-1.49V60.68h-.77v-1h.77v-1.3Z"/><path class="a" d="M405.28,58.28a.71.71,0,0,1,.21-.53.94.94,0,0,1,1.16,0,.71.71,0,0,1,.21.53.69.69,0,0,1-.21.52.81.81,0,0,1-.58.21.77.77,0,0,1-.57-.21A.66.66,0,0,1,405.28,58.28Zm1.5,6.65h-1.42V59.64h1.42Z"/><path class="a" d="M407.72,62.24a3,3,0,0,1,.31-1.41,2.22,2.22,0,0,1,.87-.95,2.59,2.59,0,0,1,1.32-.33,2.38,2.38,0,0,1,1.74.65,2.64,2.64,0,0,1,.76,1.78v.36a2.77,2.77,0,0,1-.68,2,2.35,2.35,0,0,1-1.82.73,2.39,2.39,0,0,1-1.83-.73,2.82,2.82,0,0,1-.68-2Zm1.41.1a2,2,0,0,0,.29,1.15,1,1,0,0,0,.81.4.92.92,0,0,0,.8-.4,2.17,2.17,0,0,0,.29-1.26,2,2,0,0,0-.29-1.14.94.94,0,0,0-.81-.41.92.92,0,0,0-.8.41A2.17,2.17,0,0,0,409.13,62.34Z"/><path class="a" d="M414.9,59.64l0,.61a1.84,1.84,0,0,1,1.52-.7,1.54,1.54,0,0,1,1.25.49,2.34,2.34,0,0,1,.42,1.47v3.42h-1.41V61.55a.9.9,0,0,0-.2-.65.86.86,0,0,0-.65-.21,1,1,0,0,0-.89.51v3.73h-1.41V59.64Z"/><circle class="c" cx="100.05" cy="100.8" r="104.06" transform="translate(-17.3 20.8) rotate(-10.93)"/><path class="d" d="M146.62,186.64a98.39,98.39,0,1,1,51.07-95.37l-98,8.89Z"/><path class="e" d="M175.41,162.94a98.42,98.42,0,0,1-28.79,23.7l-47-86.43Z"/><path class="f" d="M197.61,109a98.77,98.77,0,0,1-4.93,23.12L99.62,100.21Z"/><path class="g" d="M197.69,91.27q.26,3,.35,5.91l-98.33,3Z"/><path class="h" d="M192.74,132.16A98.49,98.49,0,0,1,175.42,163L99.71,100.16Z"/><path class="i" d="M198,97.18a99.52,99.52,0,0,1-.35,11.84l-98-8.81Z"/><circle class="c" cx="100.05" cy="100.8" r="47.68"/><path class="a" d="M6.24,254A1.68,1.68,0,0,1,6,255a1.84,1.84,0,0,1-.71.64,2.05,2.05,0,0,1,.82.69,1.75,1.75,0,0,1,.3,1,1.86,1.86,0,0,1-.64,1.5,2.61,2.61,0,0,1-1.76.55,2.59,2.59,0,0,1-1.75-.55,1.85,1.85,0,0,1-.65-1.5,1.81,1.81,0,0,1,.3-1,2,2,0,0,1,.81-.68A1.91,1.91,0,0,1,2,255a1.67,1.67,0,0,1-.25-.92,1.86,1.86,0,0,1,.6-1.45A2.41,2.41,0,0,1,4,252a2.37,2.37,0,0,1,1.64.54A1.82,1.82,0,0,1,6.24,254ZM5,257.2a1,1,0,0,0-.27-.74,1,1,0,0,0-.73-.28.92.92,0,0,0-.71.28,1,1,0,0,0-.27.74,1,1,0,0,0,.26.73,1,1,0,0,0,.73.28.94.94,0,0,0,.72-.27A1,1,0,0,0,5,257.2Zm-.15-3.1a1,1,0,0,0-.22-.67.8.8,0,0,0-.62-.25.79.79,0,0,0-.62.25,1,1,0,0,0-.22.67,1,1,0,0,0,.22.68A.76.76,0,0,0,4,255a.74.74,0,0,0,.62-.26A1,1,0,0,0,4.83,254.1Z"/><path class="a" d="M12.13,256.31a3.58,3.58,0,0,1-.61,2.26,2.13,2.13,0,0,1-1.79.78A2.16,2.16,0,0,1,8,258.58a3.48,3.48,0,0,1-.63-2.19v-1.31a3.54,3.54,0,0,1,.62-2.26A2.14,2.14,0,0,1,9.72,252a2.15,2.15,0,0,1,1.78.77,3.48,3.48,0,0,1,.63,2.19Zm-1.41-1.44a2.56,2.56,0,0,0-.24-1.28.83.83,0,0,0-.76-.41.79.79,0,0,0-.73.39,2.28,2.28,0,0,0-.25,1.2v1.73A2.7,2.7,0,0,0,9,257.79a.81.81,0,0,0,.76.42.8.8,0,0,0,.75-.4,2.78,2.78,0,0,0,.24-1.25Z"/><path class="a" d="M5.43,301.07v1.16H5.3a2.41,2.41,0,0,0-1.54.5,2,2,0,0,0-.7,1.34,1.91,1.91,0,0,1,1.43-.57,1.8,1.8,0,0,1,1.47.66,2.64,2.64,0,0,1,.55,1.75,2.6,2.6,0,0,1-.3,1.25,2.18,2.18,0,0,1-.85.88,2.56,2.56,0,0,1-1.24.31,2.32,2.32,0,0,1-1.82-.78,3,3,0,0,1-.69-2.09V305a4.58,4.58,0,0,1,.44-2.05,3.2,3.2,0,0,1,1.25-1.37,3.71,3.71,0,0,1,1.9-.49Zm-1.37,3.56a1.1,1.1,0,0,0-.62.18,1,1,0,0,0-.41.47v.43a1.85,1.85,0,0,0,.28,1.1.88.88,0,0,0,.78.4.89.89,0,0,0,.73-.36,1.42,1.42,0,0,0,.28-.92,1.46,1.46,0,0,0-.28-.94A.92.92,0,0,0,4.06,304.63Z"/><path class="a" d="M12.13,305.31a3.58,3.58,0,0,1-.61,2.26,2.13,2.13,0,0,1-1.79.78A2.16,2.16,0,0,1,8,307.58a3.48,3.48,0,0,1-.63-2.19v-1.31a3.54,3.54,0,0,1,.62-2.26A2.14,2.14,0,0,1,9.72,301a2.15,2.15,0,0,1,1.78.77,3.48,3.48,0,0,1,.63,2.19Zm-1.41-1.44a2.56,2.56,0,0,0-.24-1.28.83.83,0,0,0-.76-.41.79.79,0,0,0-.73.39,2.28,2.28,0,0,0-.25,1.2v1.73A2.7,2.7,0,0,0,9,306.79a.81.81,0,0,0,.76.42.8.8,0,0,0,.75-.4,2.78,2.78,0,0,0,.24-1.25Z"/><path class="a" d="M5.78,354.58h.81v1.13H5.78v1.54H4.37v-1.54H1.45l-.06-.89,3-4.68H5.78Zm-3,0H4.37v-2.51l-.09.16Z"/><path class="a" d="M12.13,354.31a3.58,3.58,0,0,1-.61,2.26,2.13,2.13,0,0,1-1.79.78A2.16,2.16,0,0,1,8,356.58a3.48,3.48,0,0,1-.63-2.19v-1.31a3.54,3.54,0,0,1,.62-2.26A2.14,2.14,0,0,1,9.72,350a2.15,2.15,0,0,1,1.78.77,3.48,3.48,0,0,1,.63,2.19Zm-1.41-1.44a2.56,2.56,0,0,0-.24-1.28.83.83,0,0,0-.76-.41.79.79,0,0,0-.73.39,2.28,2.28,0,0,0-.25,1.2v1.73A2.7,2.7,0,0,0,9,355.79a.81.81,0,0,0,.76.42.8.8,0,0,0,.75-.4,2.78,2.78,0,0,0,.24-1.25Z"/><path class="a" d="M6.48,406.25H1.61v-1l2.3-2.45a6.2,6.2,0,0,0,.7-.9,1.45,1.45,0,0,0,.22-.73,1.09,1.09,0,0,0-.24-.75.84.84,0,0,0-.68-.27.92.92,0,0,0-.75.33,1.28,1.28,0,0,0-.28.87H1.46a2.33,2.33,0,0,1,.32-1.19,2.07,2.07,0,0,1,.87-.84A2.73,2.73,0,0,1,3.94,399a2.51,2.51,0,0,1,1.7.53,1.85,1.85,0,0,1,.61,1.49A2.46,2.46,0,0,1,6,402.14,6.66,6.66,0,0,1,5,403.41l-1.62,1.7H6.48Z"/><path class="a" d="M12.13,403.31a3.58,3.58,0,0,1-.61,2.26,2.13,2.13,0,0,1-1.79.78A2.16,2.16,0,0,1,8,405.58a3.48,3.48,0,0,1-.63-2.19v-1.31a3.54,3.54,0,0,1,.62-2.26A2.14,2.14,0,0,1,9.72,399a2.15,2.15,0,0,1,1.78.77,3.48,3.48,0,0,1,.63,2.19Zm-1.41-1.44a2.56,2.56,0,0,0-.24-1.28.83.83,0,0,0-.76-.41.79.79,0,0,0-.73.39,2.28,2.28,0,0,0-.25,1.2v1.73A2.7,2.7,0,0,0,9,404.79a.81.81,0,0,0,.76.42.8.8,0,0,0,.75-.4,2.78,2.78,0,0,0,.24-1.25Z"/><path class="a" d="M5.7,474.54H1.51v-1l1.93-2.45a6.41,6.41,0,0,0,.54-.89,1.89,1.89,0,0,0,.17-.74,1.43,1.43,0,0,0-.16-.74.53.53,0,0,0-.47-.27.62.62,0,0,0-.54.31,1.69,1.69,0,0,0-.2.88H1.4a2.63,2.63,0,0,1,.27-1.19,1.94,1.94,0,0,1,.76-.84,2,2,0,0,1,1.11-.31,2,2,0,0,1,1.48.53,2,2,0,0,1,.52,1.49,2.76,2.76,0,0,1-.29,1.22,7.22,7.22,0,0,1-1,1.52l-.91,1.3H5.7Z"/><path class="a" d="M10.46,471.6a4,4,0,0,1-.53,2.26,1.75,1.75,0,0,1-1.53.78,1.72,1.72,0,0,1-1.51-.76,3.8,3.8,0,0,1-.56-2.18v-1.34a4,4,0,0,1,.53-2.25,1.75,1.75,0,0,1,1.53-.78,1.73,1.73,0,0,1,1.53.78,3.78,3.78,0,0,1,.54,2.2Zm-1.38-1.44a3.62,3.62,0,0,0-.17-1.26.55.55,0,0,0-.52-.42c-.44,0-.66.51-.68,1.54v1.77a3.44,3.44,0,0,0,.17,1.28.55.55,0,0,0,.52.42.53.53,0,0,0,.5-.39,3.43,3.43,0,0,0,.18-1.2Z"/><path class="a" d="M15.4,471.6a4,4,0,0,1-.54,2.26,1.72,1.72,0,0,1-1.52.78,1.74,1.74,0,0,1-1.52-.76,3.89,3.89,0,0,1-.55-2.18v-1.34a4,4,0,0,1,.53-2.25,1.73,1.73,0,0,1,1.53-.78,1.75,1.75,0,0,1,1.53.78,3.94,3.94,0,0,1,.54,2.2ZM14,470.16a3.66,3.66,0,0,0-.16-1.26.56.56,0,0,0-.52-.42c-.44,0-.67.51-.68,1.54v1.77a3.72,3.72,0,0,0,.16,1.28.57.57,0,0,0,.53.42.54.54,0,0,0,.5-.39,3.25,3.25,0,0,0,.17-1.2Z"/><path class="a" d="M16.27,471.05l.35-3.62h3.45v1.18H17.76l-.13,1.53a1.46,1.46,0,0,1,.82-.27,1.62,1.62,0,0,1,1.36.62,2.87,2.87,0,0,1,.48,1.77,2.56,2.56,0,0,1-.57,1.73,1.92,1.92,0,0,1-1.51.65,2.07,2.07,0,0,1-1-.27,1.93,1.93,0,0,1-.76-.74,2.11,2.11,0,0,1-.28-1.07H17.5a1.23,1.23,0,0,0,.22.69.59.59,0,0,0,1-.09,2,2,0,0,0,.19-1,1.68,1.68,0,0,0-.22-.93.73.73,0,0,0-.63-.31.72.72,0,0,0-.6.27l-.09.12Z"/><path class="a" d="M33.09,474.54H28.9v-1l1.92-2.45a5.56,5.56,0,0,0,.54-.89,1.73,1.73,0,0,0,.17-.74,1.43,1.43,0,0,0-.16-.74.53.53,0,0,0-.47-.27.63.63,0,0,0-.54.31,1.69,1.69,0,0,0-.19.88H28.78a2.63,2.63,0,0,1,.27-1.19,2,2,0,0,1,3.88.87,2.78,2.78,0,0,1-.3,1.22,7.22,7.22,0,0,1-1.05,1.52l-.91,1.3h2.42Z"/><path class="a" d="M37.85,471.6a4,4,0,0,1-.54,2.26,1.89,1.89,0,0,1-3,0,3.88,3.88,0,0,1-.56-2.18v-1.34a3.94,3.94,0,0,1,.54-2.25,1.88,1.88,0,0,1,3,0,3.86,3.86,0,0,1,.55,2.2Zm-1.39-1.44a3.62,3.62,0,0,0-.17-1.26q-.16-.42-.51-.42c-.44,0-.67.51-.69,1.54v1.77a3.67,3.67,0,0,0,.17,1.28.56.56,0,0,0,.52.42.54.54,0,0,0,.51-.39,3.74,3.74,0,0,0,.17-1.2Z"/><path class="a" d="M42.78,471.6a4,4,0,0,1-.53,2.26,1.9,1.9,0,0,1-3,0,3.89,3.89,0,0,1-.55-2.18v-1.34a4,4,0,0,1,.53-2.25,1.75,1.75,0,0,1,1.53-.78,1.73,1.73,0,0,1,1.53.78,3.86,3.86,0,0,1,.54,2.2Zm-1.38-1.44a3.62,3.62,0,0,0-.17-1.26.55.55,0,0,0-.52-.42c-.44,0-.67.51-.68,1.54v1.77a3.44,3.44,0,0,0,.17,1.28.55.55,0,0,0,.52.42.53.53,0,0,0,.5-.39,3.43,3.43,0,0,0,.18-1.2Z"/><path class="a" d="M46.82,467.36v1.17h-.08a1.67,1.67,0,0,0-1.23.47,2.13,2.13,0,0,0-.55,1.29,1.39,1.39,0,0,1,1.11-.51,1.41,1.41,0,0,1,1.23.66,3,3,0,0,1,.47,1.76,2.91,2.91,0,0,1-.27,1.26,2,2,0,0,1-.74.87,1.89,1.89,0,0,1-1.07.31,1.82,1.82,0,0,1-1.55-.78,3.37,3.37,0,0,1-.59-2.09v-.51a5.26,5.26,0,0,1,.37-2.06A3,3,0,0,1,45,467.84a2.77,2.77,0,0,1,1.62-.48Zm-1.18,3.56a.64.64,0,0,0-.45.16,1.19,1.19,0,0,0-.26.42V472a2.38,2.38,0,0,0,.2,1.13.59.59,0,0,0,.53.37.6.6,0,0,0,.53-.36,1.9,1.9,0,0,0,.2-.92,1.83,1.83,0,0,0-.21-.93A.62.62,0,0,0,45.64,470.92Z"/><path class="a" d="M61.71,474.54H57.53v-1l1.92-2.45a6.41,6.41,0,0,0,.54-.89,1.89,1.89,0,0,0,.17-.74,1.43,1.43,0,0,0-.16-.74.53.53,0,0,0-.47-.27.62.62,0,0,0-.54.31,1.69,1.69,0,0,0-.2.88H57.41a2.63,2.63,0,0,1,.27-1.19,1.94,1.94,0,0,1,.76-.84,2,2,0,0,1,1.11-.31,1.83,1.83,0,0,1,2,2,2.76,2.76,0,0,1-.29,1.22,7.22,7.22,0,0,1-1,1.52l-.91,1.3h2.41Z"/><path class="a" d="M66.47,471.6a4,4,0,0,1-.53,2.26,1.75,1.75,0,0,1-1.53.78,1.72,1.72,0,0,1-1.51-.76,3.88,3.88,0,0,1-.56-2.18v-1.34a4,4,0,0,1,.53-2.25,1.75,1.75,0,0,1,1.53-.78,1.73,1.73,0,0,1,1.53.78,3.78,3.78,0,0,1,.54,2.2Zm-1.38-1.44a3.62,3.62,0,0,0-.17-1.26.55.55,0,0,0-.52-.42c-.44,0-.66.51-.68,1.54v1.77a3.67,3.67,0,0,0,.17,1.28.56.56,0,0,0,.52.42.53.53,0,0,0,.5-.39,3.43,3.43,0,0,0,.18-1.2Z"/><path class="a" d="M71.41,471.6a4,4,0,0,1-.53,2.26,1.9,1.9,0,0,1-3,0,3.89,3.89,0,0,1-.55-2.18v-1.34a4,4,0,0,1,.53-2.25,1.89,1.89,0,0,1,3.06,0,3.94,3.94,0,0,1,.54,2.2ZM70,470.16a3.66,3.66,0,0,0-.16-1.26.56.56,0,0,0-.52-.42c-.44,0-.67.51-.68,1.54v1.77a3.72,3.72,0,0,0,.16,1.28.57.57,0,0,0,.53.42.54.54,0,0,0,.5-.39,3.25,3.25,0,0,0,.17-1.2Z"/><path class="a" d="M76.29,468.23,74,474.54H72.58l2.26-6H72v-1.15h4.3Z"/><path class="a" d="M90.34,474.54H86.15v-1l1.93-2.45a6.41,6.41,0,0,0,.54-.89,1.89,1.89,0,0,0,.17-.74,1.53,1.53,0,0,0-.16-.74.53.53,0,0,0-.48-.27.62.62,0,0,0-.53.31,1.69,1.69,0,0,0-.2.88H86a2.64,2.64,0,0,1,.28-1.19,1.94,1.94,0,0,1,.76-.84,2,2,0,0,1,1.11-.31,1.84,1.84,0,0,1,2,2,2.9,2.9,0,0,1-.29,1.22,7.22,7.22,0,0,1-1,1.52l-.92,1.3h2.42Z"/><path class="a" d="M95.1,471.6a4,4,0,0,1-.53,2.26,1.9,1.9,0,0,1-3,0A3.89,3.89,0,0,1,91,471.7v-1.34a4,4,0,0,1,.53-2.25,1.89,1.89,0,0,1,3.06,0,3.94,3.94,0,0,1,.54,2.2Zm-1.39-1.44a3.66,3.66,0,0,0-.16-1.26.56.56,0,0,0-.52-.42c-.44,0-.67.51-.68,1.54v1.77a3.44,3.44,0,0,0,.17,1.28.55.55,0,0,0,.52.42.54.54,0,0,0,.5-.39,3.25,3.25,0,0,0,.17-1.2Z"/><path class="a" d="M100,471.6a4,4,0,0,1-.54,2.26,1.72,1.72,0,0,1-1.52.78,1.74,1.74,0,0,1-1.52-.76,3.81,3.81,0,0,1-.55-2.18v-1.34a3.94,3.94,0,0,1,.53-2.25,1.88,1.88,0,0,1,3,0,3.86,3.86,0,0,1,.55,2.2Zm-1.39-1.44a3.62,3.62,0,0,0-.17-1.26q-.17-.42-.51-.42c-.44,0-.67.51-.69,1.54v1.77a3.67,3.67,0,0,0,.17,1.28.56.56,0,0,0,.53.42.54.54,0,0,0,.5-.39,3.47,3.47,0,0,0,.17-1.2Z"/><path class="a" d="M104.75,469.32a1.84,1.84,0,0,1-.22.92,1.68,1.68,0,0,1-.6.64,1.83,1.83,0,0,1,.69.69,2,2,0,0,1,.25,1,2,2,0,0,1-.54,1.5,2,2,0,0,1-1.49.55,1.91,1.91,0,0,1-2.06-2.05,2,2,0,0,1,.26-1,1.76,1.76,0,0,1,.7-.68,1.66,1.66,0,0,1-.62-.64,2,2,0,0,1-.22-.92,2,2,0,0,1,.53-1.46,2.11,2.11,0,0,1,2.81,0A2,2,0,0,1,104.75,469.32Zm-1.91,4.17a.54.54,0,0,0,.48-.26,1.42,1.42,0,0,0,.17-.74,1.34,1.34,0,0,0-.18-.75.55.55,0,0,0-.48-.26.57.57,0,0,0-.49.26,1.34,1.34,0,0,0-.18.75,1.33,1.33,0,0,0,.18.74A.59.59,0,0,0,102.84,473.49Zm.54-4.09a1.42,1.42,0,0,0-.14-.67.45.45,0,0,0-.41-.25.43.43,0,0,0-.4.24,1.44,1.44,0,0,0-.14.68,1.42,1.42,0,0,0,.14.67.45.45,0,0,0,.41.26.42.42,0,0,0,.4-.26A1.42,1.42,0,0,0,103.38,469.4Z"/><path class="a" d="M119,474.54h-4.19v-1l1.92-2.45a4.9,4.9,0,0,0,.54-.89,1.75,1.75,0,0,0,.18-.74,1.42,1.42,0,0,0-.17-.74.51.51,0,0,0-.47-.27.62.62,0,0,0-.53.31,1.59,1.59,0,0,0-.2.88h-1.39a2.63,2.63,0,0,1,.27-1.19,2,2,0,0,1,.76-.84,2,2,0,0,1,1.12-.31,2,2,0,0,1,1.47.53,2,2,0,0,1,.53,1.49,2.9,2.9,0,0,1-.29,1.22,7.75,7.75,0,0,1-1.06,1.52l-.91,1.3H119Z"/><path class="a" d="M123.73,471.6a4,4,0,0,1-.54,2.26,1.72,1.72,0,0,1-1.52.78,1.74,1.74,0,0,1-1.52-.76,3.81,3.81,0,0,1-.55-2.18v-1.34a3.94,3.94,0,0,1,.53-2.25,1.73,1.73,0,0,1,1.53-.78,1.75,1.75,0,0,1,1.53.78,3.94,3.94,0,0,1,.54,2.2Zm-1.39-1.44a3.62,3.62,0,0,0-.17-1.26q-.17-.42-.51-.42c-.44,0-.67.51-.69,1.54v1.77a3.67,3.67,0,0,0,.17,1.28.56.56,0,0,0,.53.42.54.54,0,0,0,.5-.39,3.47,3.47,0,0,0,.17-1.2Z"/><path class="a" d="M128.66,471.6a4,4,0,0,1-.53,2.26,1.75,1.75,0,0,1-1.53.78,1.72,1.72,0,0,1-1.51-.76,3.88,3.88,0,0,1-.56-2.18v-1.34a3.94,3.94,0,0,1,.54-2.25,1.88,1.88,0,0,1,3.05,0,3.78,3.78,0,0,1,.54,2.2Zm-1.38-1.44a3.62,3.62,0,0,0-.17-1.26.55.55,0,0,0-.52-.42c-.44,0-.66.51-.68,1.54v1.77a3.67,3.67,0,0,0,.17,1.28.56.56,0,0,0,.52.42.53.53,0,0,0,.5-.39,3.43,3.43,0,0,0,.18-1.2Z"/><path class="a" d="M132.11,471.79a1.31,1.31,0,0,1-1,.45,1.5,1.5,0,0,1-1.28-.65,3,3,0,0,1-.47-1.74,3,3,0,0,1,.27-1.29,2.05,2.05,0,0,1,.73-.9,1.81,1.81,0,0,1,1-.33,1.69,1.69,0,0,1,1.07.36,2.24,2.24,0,0,1,.73,1,4.25,4.25,0,0,1,.26,1.52v.5a4.52,4.52,0,0,1-.8,2.84,2.74,2.74,0,0,1-2.26,1h-.14v-1.19h.09a1.63,1.63,0,0,0,1.22-.42A2,2,0,0,0,132.11,471.79Zm-.61-.63c.27,0,.48-.18.63-.55V470a2.56,2.56,0,0,0-.19-1.1c-.13-.27-.29-.4-.49-.4s-.36.13-.49.4a2.27,2.27,0,0,0-.18.95,2,2,0,0,0,.19,1A.58.58,0,0,0,131.5,471.16Z"/><path class="a" d="M147.6,474.54h-4.19v-1l1.92-2.45a6.41,6.41,0,0,0,.54-.89,1.73,1.73,0,0,0,.17-.74,1.43,1.43,0,0,0-.16-.74.53.53,0,0,0-.47-.27.63.63,0,0,0-.54.31,1.69,1.69,0,0,0-.19.88h-1.39a2.63,2.63,0,0,1,.27-1.19,2,2,0,0,1,3.88.87,2.78,2.78,0,0,1-.3,1.22,7.22,7.22,0,0,1-1,1.52l-.91,1.3h2.42Z"/><path class="a" d="M152.36,471.6a4,4,0,0,1-.54,2.26,1.89,1.89,0,0,1-3,0,3.88,3.88,0,0,1-.56-2.18v-1.34a3.94,3.94,0,0,1,.54-2.25,1.88,1.88,0,0,1,3.05,0,3.86,3.86,0,0,1,.55,2.2ZM151,470.16a3.62,3.62,0,0,0-.17-1.26.55.55,0,0,0-.52-.42c-.43,0-.66.51-.68,1.54v1.77a3.67,3.67,0,0,0,.17,1.28.56.56,0,0,0,.52.42.54.54,0,0,0,.51-.39,3.74,3.74,0,0,0,.17-1.2Z"/><path class="a" d="M156,474.54h-1.38v-5.43l-1.36.52v-1.15l2.6-1.06H156Z"/><path class="a" d="M161.56,471.6a4,4,0,0,1-.54,2.26,1.89,1.89,0,0,1-3,0,3.88,3.88,0,0,1-.56-2.18v-1.34a3.94,3.94,0,0,1,.54-2.25,1.88,1.88,0,0,1,3,0,3.86,3.86,0,0,1,.55,2.2Zm-1.39-1.44a3.62,3.62,0,0,0-.17-1.26q-.17-.42-.51-.42c-.44,0-.67.51-.69,1.54v1.77a3.67,3.67,0,0,0,.17,1.28.56.56,0,0,0,.52.42.54.54,0,0,0,.51-.39,3.74,3.74,0,0,0,.17-1.2Z"/><path class="a" d="M176.22,474.54H172v-1l1.93-2.45a6.41,6.41,0,0,0,.54-.89,1.89,1.89,0,0,0,.17-.74,1.43,1.43,0,0,0-.16-.74.53.53,0,0,0-.47-.27.62.62,0,0,0-.54.31,1.69,1.69,0,0,0-.2.88h-1.38a2.63,2.63,0,0,1,.27-1.19,1.94,1.94,0,0,1,.76-.84,2,2,0,0,1,1.11-.31,1.83,1.83,0,0,1,2,2,2.76,2.76,0,0,1-.29,1.22,7.22,7.22,0,0,1-1.05,1.52l-.91,1.3h2.41Z"/><path class="a" d="M181,471.6a4,4,0,0,1-.53,2.26,1.9,1.9,0,0,1-3,0,3.89,3.89,0,0,1-.55-2.18v-1.34a4,4,0,0,1,.53-2.25,1.75,1.75,0,0,1,1.53-.78,1.73,1.73,0,0,1,1.53.78,3.86,3.86,0,0,1,.54,2.2Zm-1.38-1.44a3.62,3.62,0,0,0-.17-1.26.55.55,0,0,0-.52-.42c-.44,0-.67.51-.68,1.54v1.77a3.44,3.44,0,0,0,.17,1.28.55.55,0,0,0,.52.42.53.53,0,0,0,.5-.39,3.43,3.43,0,0,0,.18-1.2Z"/><path class="a" d="M184.62,474.54h-1.39v-5.43l-1.35.52v-1.15l2.59-1.06h.15Z"/><path class="a" d="M188.83,474.54h-1.38v-5.43l-1.36.52v-1.15l2.6-1.06h.14Z"/><path class="a" d="M204.85,474.54h-4.19v-1l1.93-2.45a6.41,6.41,0,0,0,.54-.89,1.89,1.89,0,0,0,.17-.74,1.53,1.53,0,0,0-.16-.74.53.53,0,0,0-.48-.27.62.62,0,0,0-.53.31,1.69,1.69,0,0,0-.2.88h-1.39a2.64,2.64,0,0,1,.28-1.19,1.94,1.94,0,0,1,.76-.84,2,2,0,0,1,1.11-.31,1.84,1.84,0,0,1,2,2,2.9,2.9,0,0,1-.29,1.22,7.22,7.22,0,0,1-1.05,1.52l-.92,1.3h2.42Z"/><path class="a" d="M209.61,471.6a4,4,0,0,1-.53,2.26,1.9,1.9,0,0,1-3.05,0,3.89,3.89,0,0,1-.55-2.18v-1.34a4,4,0,0,1,.53-2.25,1.89,1.89,0,0,1,3.06,0,3.94,3.94,0,0,1,.54,2.2Zm-1.39-1.44a3.66,3.66,0,0,0-.16-1.26.56.56,0,0,0-.52-.42c-.44,0-.67.51-.68,1.54v1.77a3.44,3.44,0,0,0,.17,1.28.55.55,0,0,0,.52.42.54.54,0,0,0,.5-.39,3.25,3.25,0,0,0,.17-1.2Z"/><path class="a" d="M213.25,474.54h-1.39v-5.43l-1.35.52v-1.15l2.59-1.06h.15Z"/><path class="a" d="M218.81,474.54h-4.19v-1l1.93-2.45a6.41,6.41,0,0,0,.54-.89,1.89,1.89,0,0,0,.17-.74,1.53,1.53,0,0,0-.16-.74.53.53,0,0,0-.48-.27.62.62,0,0,0-.53.31,1.69,1.69,0,0,0-.2.88H214.5a2.64,2.64,0,0,1,.28-1.19,1.94,1.94,0,0,1,.76-.84,2,2,0,0,1,1.11-.31,1.84,1.84,0,0,1,2,2,2.9,2.9,0,0,1-.29,1.22,7.22,7.22,0,0,1-1.05,1.52l-.92,1.3h2.42Z"/><path class="a" d="M233.48,474.54h-4.19v-1l1.92-2.45a4.9,4.9,0,0,0,.54-.89,1.75,1.75,0,0,0,.18-.74,1.42,1.42,0,0,0-.17-.74.51.51,0,0,0-.47-.27.62.62,0,0,0-.53.31,1.59,1.59,0,0,0-.2.88h-1.39a2.63,2.63,0,0,1,.27-1.19,2,2,0,0,1,.76-.84,2,2,0,0,1,1.12-.31,2,2,0,0,1,1.47.53,2,2,0,0,1,.53,1.49,2.9,2.9,0,0,1-.29,1.22,8.08,8.08,0,0,1-1.05,1.52l-.92,1.3h2.42Z"/><path class="a" d="M238.24,471.6a4,4,0,0,1-.54,2.26,1.72,1.72,0,0,1-1.52.78,1.74,1.74,0,0,1-1.52-.76,3.89,3.89,0,0,1-.55-2.18v-1.34a3.94,3.94,0,0,1,.53-2.25,1.73,1.73,0,0,1,1.53-.78,1.75,1.75,0,0,1,1.53.78,3.94,3.94,0,0,1,.54,2.2Zm-1.39-1.44a3.66,3.66,0,0,0-.16-1.26c-.12-.28-.29-.42-.52-.42-.44,0-.67.51-.69,1.54v1.77a3.67,3.67,0,0,0,.17,1.28.56.56,0,0,0,.53.42.54.54,0,0,0,.5-.39,3.47,3.47,0,0,0,.17-1.2Z"/><path class="a" d="M241.87,474.54h-1.38v-5.43l-1.35.52v-1.15l2.59-1.06h.14Z"/><path class="a" d="M244.49,470.36h.67a.63.63,0,0,0,.56-.27,1.24,1.24,0,0,0,.18-.71,1.08,1.08,0,0,0-.19-.66.58.58,0,0,0-.49-.24.58.58,0,0,0-.47.23.87.87,0,0,0-.18.56h-1.38a2,2,0,0,1,.25-1,1.84,1.84,0,0,1,.72-.69,2.2,2.2,0,0,1,1-.25,2.11,2.11,0,0,1,1.54.55,2,2,0,0,1,.56,1.48,1.79,1.79,0,0,1-.25.9,1.76,1.76,0,0,1-.67.63,1.49,1.49,0,0,1,.75.64,2,2,0,0,1,.25,1,2,2,0,0,1-.6,1.52,2.21,2.21,0,0,1-1.59.57,2,2,0,0,1-1.48-.57,2,2,0,0,1-.57-1.48h1.38a1,1,0,0,0,.2.64.62.62,0,0,0,.51.26.7.7,0,0,0,.57-.26,1.16,1.16,0,0,0,.2-.7c0-.71-.27-1.06-.81-1.06h-.68Z"/><path class="a" d="M262.11,474.54h-4.19v-1l1.92-2.45a6.41,6.41,0,0,0,.54-.89,1.73,1.73,0,0,0,.17-.74,1.43,1.43,0,0,0-.16-.74.53.53,0,0,0-.47-.27.63.63,0,0,0-.54.31,1.69,1.69,0,0,0-.19.88H257.8a2.63,2.63,0,0,1,.27-1.19,2,2,0,0,1,3.88.87,2.78,2.78,0,0,1-.3,1.22,7.22,7.22,0,0,1-1,1.52l-.91,1.3h2.42Z"/><path class="a" d="M266.86,471.6a4,4,0,0,1-.53,2.26,1.89,1.89,0,0,1-3,0,3.88,3.88,0,0,1-.56-2.18v-1.34a3.94,3.94,0,0,1,.54-2.25,1.88,1.88,0,0,1,3.05,0,3.78,3.78,0,0,1,.54,2.2Zm-1.38-1.44a3.62,3.62,0,0,0-.17-1.26.55.55,0,0,0-.52-.42c-.43,0-.66.51-.68,1.54v1.77a3.67,3.67,0,0,0,.17,1.28.56.56,0,0,0,.52.42.54.54,0,0,0,.51-.39,3.74,3.74,0,0,0,.17-1.2Z"/><path class="a" d="M270.5,474.54h-1.39v-5.43l-1.35.52v-1.15l2.6-1.06h.14Z"/><path class="a" d="M275.54,471.86h.6V473h-.6v1.54h-1.38V473H271.8l-.06-.89,2.41-4.68h1.39Zm-2.46,0h1.08v-2.38l0,0Z"/><path class="a" d="M290.73,474.54h-4.19v-1l1.93-2.45a6.41,6.41,0,0,0,.54-.89,1.89,1.89,0,0,0,.17-.74,1.43,1.43,0,0,0-.16-.74.53.53,0,0,0-.47-.27.62.62,0,0,0-.54.31,1.69,1.69,0,0,0-.2.88h-1.38a2.63,2.63,0,0,1,.27-1.19,1.94,1.94,0,0,1,.76-.84,2,2,0,0,1,1.11-.31,1.83,1.83,0,0,1,2,2,2.76,2.76,0,0,1-.29,1.22,7.22,7.22,0,0,1-1,1.52l-.91,1.3h2.41Z"/><path class="a" d="M295.49,471.6a4,4,0,0,1-.53,2.26,1.75,1.75,0,0,1-1.53.78,1.72,1.72,0,0,1-1.51-.76,3.8,3.8,0,0,1-.56-2.18v-1.34a4,4,0,0,1,.53-2.25,1.75,1.75,0,0,1,1.53-.78,1.73,1.73,0,0,1,1.53.78,3.78,3.78,0,0,1,.54,2.2Zm-1.38-1.44a3.62,3.62,0,0,0-.17-1.26.55.55,0,0,0-.52-.42c-.44,0-.66.51-.68,1.54v1.77a3.44,3.44,0,0,0,.17,1.28.56.56,0,0,0,.52.42.53.53,0,0,0,.5-.39,3.43,3.43,0,0,0,.18-1.2Z"/><path class="a" d="M299.13,474.54h-1.39v-5.43l-1.35.52v-1.15l2.59-1.06h.15Z"/><path class="a" d="M300.62,471.05l.35-3.62h3.45v1.18h-2.31l-.13,1.53a1.46,1.46,0,0,1,.83-.27,1.62,1.62,0,0,1,1.35.62,2.87,2.87,0,0,1,.48,1.77,2.56,2.56,0,0,1-.57,1.73,1.92,1.92,0,0,1-1.51.65,2.07,2.07,0,0,1-1-.27,1.93,1.93,0,0,1-.76-.74,2.11,2.11,0,0,1-.28-1.07h1.37a1.23,1.23,0,0,0,.22.69.59.59,0,0,0,1-.09,2,2,0,0,0,.19-1,1.6,1.6,0,0,0-.22-.93.73.73,0,0,0-.63-.31.72.72,0,0,0-.6.27l-.09.12Z"/><path class="a" d="M319.36,474.54h-4.19v-1l1.93-2.45a6.41,6.41,0,0,0,.54-.89,1.89,1.89,0,0,0,.17-.74,1.53,1.53,0,0,0-.16-.74.53.53,0,0,0-.48-.27.62.62,0,0,0-.53.31,1.69,1.69,0,0,0-.2.88h-1.38a2.63,2.63,0,0,1,.27-1.19,1.94,1.94,0,0,1,.76-.84,1.94,1.94,0,0,1,3.11,1.71,2.9,2.9,0,0,1-.29,1.22,7.22,7.22,0,0,1-1.05,1.52l-.91,1.3h2.41Z"/><path class="a" d="M324.12,471.6a4,4,0,0,1-.53,2.26,1.9,1.9,0,0,1-3,0,3.89,3.89,0,0,1-.55-2.18v-1.34a4,4,0,0,1,.53-2.25,1.89,1.89,0,0,1,3.06,0,3.94,3.94,0,0,1,.54,2.2Zm-1.39-1.44a3.66,3.66,0,0,0-.16-1.26.56.56,0,0,0-.52-.42c-.44,0-.67.51-.68,1.54v1.77a3.44,3.44,0,0,0,.17,1.28.55.55,0,0,0,.52.42.54.54,0,0,0,.5-.39,3.25,3.25,0,0,0,.17-1.2Z"/><path class="a" d="M327.76,474.54h-1.39v-5.43l-1.35.52v-1.15l2.59-1.06h.15Z"/><path class="a" d="M332.41,467.36v1.17h-.08a1.65,1.65,0,0,0-1.23.47,2.13,2.13,0,0,0-.55,1.29,1.39,1.39,0,0,1,1.11-.51,1.42,1.42,0,0,1,1.23.66,3,3,0,0,1,.46,1.76,2.9,2.9,0,0,1-.26,1.26,2.11,2.11,0,0,1-.74.87,1.92,1.92,0,0,1-1.08.31,1.85,1.85,0,0,1-1.55-.78,3.37,3.37,0,0,1-.58-2.09v-.51a5.26,5.26,0,0,1,.37-2.06,3,3,0,0,1,1.06-1.36,2.82,2.82,0,0,1,1.63-.48Zm-1.18,3.56a.64.64,0,0,0-.45.16,1.07,1.07,0,0,0-.26.42V472a2.38,2.38,0,0,0,.2,1.13.59.59,0,0,0,.52.37.61.61,0,0,0,.54-.36,1.9,1.9,0,0,0,.2-.92,1.83,1.83,0,0,0-.21-.93A.62.62,0,0,0,331.23,470.92Z"/><path class="a" d="M348,474.54H343.8v-1l1.92-2.45a4.9,4.9,0,0,0,.54-.89,1.75,1.75,0,0,0,.18-.74,1.42,1.42,0,0,0-.17-.74.51.51,0,0,0-.47-.27.62.62,0,0,0-.53.31,1.59,1.59,0,0,0-.2.88h-1.39a2.63,2.63,0,0,1,.27-1.19,2,2,0,0,1,3.88.87,2.9,2.9,0,0,1-.29,1.22,7.75,7.75,0,0,1-1.06,1.52l-.91,1.3H348Z"/><path class="a" d="M352.75,471.6a4,4,0,0,1-.54,2.26,1.72,1.72,0,0,1-1.52.78,1.74,1.74,0,0,1-1.52-.76,3.81,3.81,0,0,1-.55-2.18v-1.34a3.94,3.94,0,0,1,.53-2.25,1.88,1.88,0,0,1,3.05,0,3.86,3.86,0,0,1,.55,2.2Zm-1.39-1.44a3.62,3.62,0,0,0-.17-1.26q-.17-.42-.51-.42c-.44,0-.67.51-.69,1.54v1.77a3.67,3.67,0,0,0,.17,1.28.56.56,0,0,0,.53.42.54.54,0,0,0,.5-.39,3.47,3.47,0,0,0,.17-1.2Z"/><path class="a" d="M356.38,474.54H355v-5.43l-1.36.52v-1.15l2.6-1.06h.14Z"/><path class="a" d="M361.93,468.23l-2.24,6.31h-1.46l2.25-6h-2.85v-1.15h4.3Z"/><path class="a" d="M376.62,474.54h-4.19v-1l1.92-2.45a6.41,6.41,0,0,0,.54-.89,1.73,1.73,0,0,0,.17-.74,1.43,1.43,0,0,0-.16-.74.53.53,0,0,0-.47-.27.63.63,0,0,0-.54.31,1.69,1.69,0,0,0-.19.88h-1.39a2.63,2.63,0,0,1,.27-1.19,2,2,0,0,1,3.87.87,2.76,2.76,0,0,1-.29,1.22,7.22,7.22,0,0,1-1.05,1.52l-.91,1.3h2.42Z"/><path class="a" d="M381.37,471.6a4,4,0,0,1-.53,2.26,1.89,1.89,0,0,1-3,0,3.88,3.88,0,0,1-.56-2.18v-1.34a3.94,3.94,0,0,1,.54-2.25,1.88,1.88,0,0,1,3.05,0,3.78,3.78,0,0,1,.54,2.2ZM380,470.16a3.62,3.62,0,0,0-.17-1.26.55.55,0,0,0-.52-.42c-.44,0-.66.51-.68,1.54v1.77a3.67,3.67,0,0,0,.17,1.28.56.56,0,0,0,.52.42.54.54,0,0,0,.51-.39,3.74,3.74,0,0,0,.17-1.2Z"/><path class="a" d="M385,474.54h-1.39v-5.43l-1.35.52v-1.15l2.59-1.06H385Z"/><path class="a" d="M390.37,469.32a1.84,1.84,0,0,1-.22.92,1.61,1.61,0,0,1-.6.64,1.83,1.83,0,0,1,.69.69,2,2,0,0,1,.26,1,2,2,0,0,1-.55,1.5,2,2,0,0,1-1.49.55,1.91,1.91,0,0,1-2.06-2.05,2,2,0,0,1,.26-1,1.76,1.76,0,0,1,.7-.68,1.63,1.63,0,0,1-.61-.64,1.84,1.84,0,0,1-.22-.92,2,2,0,0,1,.52-1.46,2.11,2.11,0,0,1,2.81,0A2,2,0,0,1,390.37,469.32Zm-1.91,4.17a.54.54,0,0,0,.48-.26,1.42,1.42,0,0,0,.17-.74,1.34,1.34,0,0,0-.18-.75.55.55,0,0,0-.48-.26.57.57,0,0,0-.49.26,1.72,1.72,0,0,0,0,1.49A.59.59,0,0,0,388.46,473.49Zm.54-4.09a1.42,1.42,0,0,0-.14-.67.44.44,0,0,0-.41-.25.43.43,0,0,0-.4.24,1.44,1.44,0,0,0-.14.68,1.42,1.42,0,0,0,.14.67.45.45,0,0,0,.41.26.42.42,0,0,0,.4-.26A1.42,1.42,0,0,0,389,469.4Z"/><path class="a" d="M405.05,474.54h-4.19v-1l1.93-2.45a6.41,6.41,0,0,0,.54-.89,1.89,1.89,0,0,0,.17-.74,1.43,1.43,0,0,0-.16-.74.53.53,0,0,0-.47-.27.62.62,0,0,0-.54.31,1.69,1.69,0,0,0-.2.88h-1.38a2.63,2.63,0,0,1,.27-1.19,1.94,1.94,0,0,1,.76-.84,2,2,0,0,1,1.11-.31,1.83,1.83,0,0,1,2,2,2.76,2.76,0,0,1-.29,1.22,7.22,7.22,0,0,1-1.05,1.52l-.91,1.3h2.41Z"/><path class="a" d="M409.81,471.6a4,4,0,0,1-.53,2.26,1.75,1.75,0,0,1-1.53.78,1.72,1.72,0,0,1-1.51-.76,3.88,3.88,0,0,1-.56-2.18v-1.34a4,4,0,0,1,.53-2.25,1.75,1.75,0,0,1,1.53-.78,1.73,1.73,0,0,1,1.53.78,3.78,3.78,0,0,1,.54,2.2Zm-1.38-1.44a3.62,3.62,0,0,0-.17-1.26.55.55,0,0,0-.52-.42c-.44,0-.66.51-.68,1.54v1.77a3.44,3.44,0,0,0,.17,1.28.56.56,0,0,0,.52.42.53.53,0,0,0,.5-.39,3.43,3.43,0,0,0,.18-1.2Z"/><path class="a" d="M413.45,474.54h-1.39v-5.43l-1.35.52v-1.15l2.59-1.06h.15Z"/><path class="a" d="M417.46,471.79a1.31,1.31,0,0,1-1,.45,1.5,1.5,0,0,1-1.28-.65,3,3,0,0,1-.46-1.74,3.2,3.2,0,0,1,.26-1.29,2.07,2.07,0,0,1,.74-.9,1.77,1.77,0,0,1,1.05-.33,1.71,1.71,0,0,1,1.07.36,2.4,2.4,0,0,1,.73,1,4.25,4.25,0,0,1,.25,1.52v.5a4.52,4.52,0,0,1-.79,2.84,2.77,2.77,0,0,1-2.27,1h-.14v-1.19h.09A1.63,1.63,0,0,0,417,473,1.93,1.93,0,0,0,417.46,471.79Zm-.61-.63c.27,0,.48-.18.63-.55V470a2.56,2.56,0,0,0-.19-1.1c-.13-.27-.29-.4-.49-.4s-.36.13-.48.4a2.26,2.26,0,0,0-.19.95,2.14,2.14,0,0,0,.19,1A.59.59,0,0,0,416.85,471.16Z"/><path class="j" d="M17.11,258.36H274.66M2.11,283.61H417.66M17.11,307.38H417.66M2.11,332.63H417.66M17.11,356.39H417.66M2.11,380.16H417.66M17.11,405.41H417.66M2.11,429.17H417.66"/><line class="j" x1="417.66" y1="454.42" x2="2.11" y2="454.42"/><rect class="d" x="2.39" y="444.77" width="15" height="8.91"/><rect class="d" x="30.99" y="446.25" width="15" height="7.43"/><rect class="d" x="59.6" y="437.34" width="15" height="16.34"/><rect class="e" x="59.6" y="429.91" width="15" height="7.43"/><rect class="d" x="88.21" y="438.83" width="15" height="14.85"/><rect class="e" x="88.21" y="437.34" width="15" height="1.49"/><rect class="d" x="116.81" y="446.25" width="15" height="7.43"/><rect class="e" x="116.81" y="444.77" width="15" height="1.49"/><rect class="d" x="145.42" y="438.83" width="15" height="14.85"/><rect class="e" x="145.42" y="434.37" width="15" height="4.46"/><rect class="g" x="145.42" y="429.91" width="15" height="2.97"/><rect class="h" x="145.42" y="432.88" width="15" height="1.49"/><rect class="d" x="174.03" y="423.97" width="15" height="29.71"/><rect class="e" x="174.03" y="419.52" width="15" height="4.46"/><rect class="d" x="202.63" y="437.34" width="15" height="16.34"/><rect class="e" x="202.63" y="431.4" width="15" height="5.94"/><rect class="h" x="202.63" y="423.97" width="15" height="7.43"/><rect class="d" x="231.24" y="410.6" width="15" height="43.07"/><rect class="e" x="231.24" y="407.63" width="15" height="2.97"/><rect class="d" x="288.45" y="380.9" width="15" height="72.78"/><rect class="e" x="288.45" y="377.93" width="15" height="2.97"/><rect class="g" x="288.45" y="373.47" width="15" height="1.49"/><rect class="h" x="288.45" y="374.96" width="15" height="2.97"/><rect class="d" x="317.06" y="391.3" width="15" height="62.38"/><rect class="e" x="317.06" y="383.87" width="15" height="7.43"/><rect class="f" x="317.06" y="373.47" width="15" height="7.43"/><rect class="h" x="317.06" y="380.9" width="15" height="2.97"/><rect class="d" x="345.67" y="366.05" width="15" height="87.63"/><rect class="e" x="345.67" y="357.13" width="15" height="8.91"/><rect class="f" x="345.67" y="345.25" width="15" height="5.94"/><rect class="g" x="345.67" y="343.77" width="15" height="1.49"/><rect class="h" x="345.67" y="351.19" width="15" height="5.94"/><rect class="d" x="402.88" y="317.03" width="15" height="136.65"/><rect class="e" x="402.88" y="309.6" width="15" height="7.43"/><rect class="f" x="402.88" y="296.24" width="15" height="8.91"/><rect class="h" x="402.88" y="305.15" width="15" height="4.46"/><rect class="d" x="259.85" y="377.93" width="15" height="75.75"/><rect class="e" x="259.85" y="376.44" width="15" height="1.49"/><rect class="f" x="259.85" y="373.47" width="15" height="2.97"/><rect class="i" x="259.85" y="370.5" width="15" height="2.97"/><rect class="d" x="374.27" y="293.27" width="15" height="160.41"/><rect class="e" x="374.27" y="281.38" width="15" height="11.88"/><rect class="i" x="374.27" y="269.5" width="15" height="11.88"/><path class="a" d="M282.41,259.25h-1.47v-7.11h1.47Z"/><path class="a" d="M285,254l0,.61a1.83,1.83,0,0,1,1.51-.71,1.52,1.52,0,0,1,1.25.49,2.23,2.23,0,0,1,.42,1.48v3.41h-1.41v-3.38a.92.92,0,0,0-.19-.65.86.86,0,0,0-.65-.2,1,1,0,0,0-.9.51v3.72h-1.41V254Z"/><path class="a" d="M289.05,256.57a3.2,3.2,0,0,1,.56-2,1.78,1.78,0,0,1,1.51-.73,1.61,1.61,0,0,1,1.28.58v-2.7h1.41v7.5h-1.27l-.07-.56a1.65,1.65,0,0,1-1.36.66,1.78,1.78,0,0,1-1.49-.74A3.26,3.26,0,0,1,289.05,256.57Zm1.41.11a2.08,2.08,0,0,0,.26,1.13.85.85,0,0,0,.76.4.94.94,0,0,0,.92-.55v-2.09a.93.93,0,0,0-.91-.55C290.8,255,290.46,255.57,290.46,256.68Z"/><path class="a" d="M294.9,252.6a.69.69,0,0,1,.21-.52.79.79,0,0,1,.58-.21.81.81,0,0,1,.58.21.75.75,0,0,1,0,1,.91.91,0,0,1-1.14,0A.68.68,0,0,1,294.9,252.6Zm1.5,6.65H295V254h1.42Z"/><path class="a" d="M299.54,257.53l1-3.56H302l-1.78,5.28h-1.35L297.08,254h1.48Z"/><path class="a" d="M302.6,252.6a.66.66,0,0,1,.22-.52.77.77,0,0,1,.57-.21.78.78,0,0,1,.58.21.69.69,0,0,1,.22.52.72.72,0,0,1-.22.53.93.93,0,0,1-1.15,0A.72.72,0,0,1,302.6,252.6Zm1.5,6.65h-1.41V254h1.41Z"/><path class="a" d="M305,256.57a3.2,3.2,0,0,1,.56-2,1.78,1.78,0,0,1,1.51-.73,1.61,1.61,0,0,1,1.28.58v-2.7h1.42v7.5h-1.28l-.07-.56a1.65,1.65,0,0,1-1.35.66,1.79,1.79,0,0,1-1.5-.74A3.26,3.26,0,0,1,305,256.57Zm1.42.11a2.08,2.08,0,0,0,.25,1.13.85.85,0,0,0,.76.4.94.94,0,0,0,.92-.55v-2.09a.93.93,0,0,0-.91-.55C306.8,255,306.46,255.57,306.46,256.68Z"/><path class="a" d="M314.06,258.71a1.75,1.75,0,0,1-1.44.64,1.66,1.66,0,0,1-1.3-.49,2.09,2.09,0,0,1-.46-1.43V254h1.42v3.41c0,.56.25.83.75.83a1,1,0,0,0,1-.5V254h1.42v5.28H314.1Z"/><path class="a" d="M319.56,259.25a1.44,1.44,0,0,1-.15-.47,1.7,1.7,0,0,1-1.33.57,1.9,1.9,0,0,1-1.29-.45,1.45,1.45,0,0,1-.51-1.13,1.49,1.49,0,0,1,.63-1.29,3.1,3.1,0,0,1,1.8-.46h.65v-.3a.93.93,0,0,0-.19-.59.77.77,0,0,0-.6-.22.79.79,0,0,0-.55.18.56.56,0,0,0-.21.46H316.4a1.45,1.45,0,0,1,.29-.85,1.8,1.8,0,0,1,.8-.61,2.86,2.86,0,0,1,1.16-.22,2.29,2.29,0,0,1,1.55.49,1.73,1.73,0,0,1,.57,1.38V258a2.75,2.75,0,0,0,.21,1.14v.08Zm-1.17-1a1.27,1.27,0,0,0,.58-.14,1,1,0,0,0,.39-.37v-.91h-.53c-.71,0-1.08.24-1.13.73v.08a.59.59,0,0,0,.18.44A.75.75,0,0,0,318.39,258.27Z"/><path class="a" d="M323.35,259.25h-1.42v-7.5h1.42Z"/><path class="a" d="M326.78,256.56a3.16,3.16,0,0,1,.3-1.4,2.17,2.17,0,0,1,.87-.95,2.5,2.5,0,0,1,1.32-.34,2.43,2.43,0,0,1,1.75.65,2.63,2.63,0,0,1,.75,1.78v.36a2.73,2.73,0,0,1-.68,1.95,2.36,2.36,0,0,1-1.82.74,2.39,2.39,0,0,1-1.82-.73,2.81,2.81,0,0,1-.68-2Zm1.41.1a2,2,0,0,0,.28,1.15.93.93,0,0,0,.81.4.94.94,0,0,0,.8-.39,2.13,2.13,0,0,0,.29-1.26,1.92,1.92,0,0,0-.29-1.15,1,1,0,0,0-1.61,0A2.2,2.2,0,0,0,328.19,256.66Z"/><path class="a" d="M337.41,256.66a3.16,3.16,0,0,1-.56,1.95,1.77,1.77,0,0,1-1.49.74,1.66,1.66,0,0,1-1.3-.56v2.49h-1.41V254H334l.05.52a1.64,1.64,0,0,1,1.34-.62,1.81,1.81,0,0,1,1.52.72,3.27,3.27,0,0,1,.54,2Zm-1.41-.1a2.09,2.09,0,0,0-.26-1.14.85.85,0,0,0-.76-.4.93.93,0,0,0-.92.51v2.16a1,1,0,0,0,.93.52C335.66,258.21,336,257.66,336,256.56Z"/><path class="a" d="M340.71,259.35a2.62,2.62,0,0,1-1.89-.71,2.53,2.53,0,0,1-.73-1.9v-.14a3.09,3.09,0,0,1,.31-1.42,2.22,2.22,0,0,1,.87-1,2.44,2.44,0,0,1,1.29-.34,2.19,2.19,0,0,1,1.7.68,2.76,2.76,0,0,1,.63,1.94v.58h-3.37a1.31,1.31,0,0,0,.42.83,1.2,1.2,0,0,0,.87.31,1.52,1.52,0,0,0,1.27-.59l.69.78a2.07,2.07,0,0,1-.86.7A2.93,2.93,0,0,1,340.71,259.35Zm-.16-4.34a.88.88,0,0,0-.68.28,1.51,1.51,0,0,0-.33.82h2V256a1.06,1.06,0,0,0-.25-.72A.91.91,0,0,0,340.55,255Z"/><path class="a" d="M346.66,255.29a3.44,3.44,0,0,0-.51,0,1,1,0,0,0-1,.54v3.46h-1.41V254H345l0,.63a1.3,1.3,0,0,1,1.18-.73,1.61,1.61,0,0,1,.44.06Z"/><path class="a" d="M350.25,259.25a1.45,1.45,0,0,1-.14-.47,1.71,1.71,0,0,1-1.33.57,1.88,1.88,0,0,1-1.29-.45,1.45,1.45,0,0,1-.51-1.13,1.51,1.51,0,0,1,.62-1.29,3.14,3.14,0,0,1,1.8-.46h.65v-.3a.87.87,0,0,0-.19-.59.75.75,0,0,0-.59-.22.8.8,0,0,0-.56.18.55.55,0,0,0-.2.46H347.1a1.44,1.44,0,0,1,.28-.85,1.86,1.86,0,0,1,.8-.61,2.86,2.86,0,0,1,1.16-.22,2.29,2.29,0,0,1,1.55.49,1.74,1.74,0,0,1,.58,1.38V258a2.46,2.46,0,0,0,.21,1.14v.08Zm-1.17-1a1.27,1.27,0,0,0,.58-.14,1,1,0,0,0,.39-.37v-.91h-.53c-.7,0-1.08.24-1.13.73v.08a.59.59,0,0,0,.18.44A.77.77,0,0,0,349.08,258.27Z"/><path class="a" d="M354.24,252.67V254h.9v1h-.9v2.64a.68.68,0,0,0,.11.42.59.59,0,0,0,.43.13,2.5,2.5,0,0,0,.42,0v1.07a2.8,2.8,0,0,1-.86.13,1.35,1.35,0,0,1-1.51-1.5V255h-.77v-1h.77v-1.3Z"/><path class="a" d="M355.92,252.6a.69.69,0,0,1,.21-.52.79.79,0,0,1,.58-.21.81.81,0,0,1,.58.21.75.75,0,0,1,0,1,.91.91,0,0,1-1.14,0A.68.68,0,0,1,355.92,252.6Zm1.5,6.65H356V254h1.42Z"/><path class="a" d="M358.36,256.56a3.16,3.16,0,0,1,.3-1.4,2.17,2.17,0,0,1,.87-.95,2.51,2.51,0,0,1,1.33-.34,2.42,2.42,0,0,1,1.74.65,2.68,2.68,0,0,1,.76,1.78v.36a2.77,2.77,0,0,1-.67,1.95,2.63,2.63,0,0,1-3.65,0,2.85,2.85,0,0,1-.68-2Zm1.41.1a2,2,0,0,0,.28,1.15.93.93,0,0,0,.81.4,1,1,0,0,0,.81-.39,2.22,2.22,0,0,0,.28-1.26,2,2,0,0,0-.28-1.15,1,1,0,0,0-.81-.4.93.93,0,0,0-.81.4A2.29,2.29,0,0,0,359.77,256.66Z"/><path class="a" d="M365.53,254l.05.61a1.84,1.84,0,0,1,1.52-.71,1.55,1.55,0,0,1,1.25.49,2.35,2.35,0,0,1,.42,1.48v3.41h-1.42v-3.38a.92.92,0,0,0-.19-.65.86.86,0,0,0-.65-.2,1,1,0,0,0-.89.51v3.72H364.2V254Z"/><path class="a" d="M372.7,257.79a.47.47,0,0,0-.26-.41,3,3,0,0,0-.82-.26c-1.26-.27-1.89-.8-1.89-1.6a1.46,1.46,0,0,1,.59-1.18,2.34,2.34,0,0,1,1.52-.47,2.57,2.57,0,0,1,1.61.47,1.51,1.51,0,0,1,.6,1.23h-1.41a.69.69,0,0,0-.19-.5,1.07,1.07,0,0,0-1.17,0,.49.49,0,0,0-.19.41.42.42,0,0,0,.22.37,2.22,2.22,0,0,0,.75.25,5.88,5.88,0,0,1,.89.24,1.46,1.46,0,0,1,1.12,1.42,1.39,1.39,0,0,1-.62,1.17,2.68,2.68,0,0,1-1.6.45,2.73,2.73,0,0,1-1.18-.24,1.89,1.89,0,0,1-.81-.65,1.46,1.46,0,0,1-.29-.89h1.33a.79.79,0,0,0,.28.58,1.16,1.16,0,0,0,.7.2,1,1,0,0,0,.61-.16A.46.46,0,0,0,372.7,257.79Z"/><path class="a" d="M377.25,256.56a3.16,3.16,0,0,1,.3-1.4,2.17,2.17,0,0,1,.87-.95,2.5,2.5,0,0,1,1.32-.34,2.44,2.44,0,0,1,1.75.65,2.63,2.63,0,0,1,.75,1.78v.36a2.73,2.73,0,0,1-.68,1.95,2.36,2.36,0,0,1-1.82.74,2.39,2.39,0,0,1-1.82-.73,2.81,2.81,0,0,1-.68-2Zm1.41.1a2,2,0,0,0,.28,1.15.93.93,0,0,0,.81.4.94.94,0,0,0,.8-.39,2.21,2.21,0,0,0,.29-1.26,2,2,0,0,0-.29-1.15,1,1,0,0,0-1.61,0A2.2,2.2,0,0,0,378.66,256.66Z"/><path class="a" d="M385,257.53l1-3.56h1.47l-1.78,5.28h-1.35L382.57,254H384Z"/><path class="a" d="M390.47,259.35a2.61,2.61,0,0,1-1.89-.71,2.53,2.53,0,0,1-.73-1.9v-.14a3.22,3.22,0,0,1,.3-1.42,2.3,2.3,0,0,1,.88-1,2.38,2.38,0,0,1,1.28-.34,2.2,2.2,0,0,1,1.71.68,2.76,2.76,0,0,1,.62,1.94v.58h-3.36a1.3,1.3,0,0,0,.41.83,1.24,1.24,0,0,0,.87.31,1.54,1.54,0,0,0,1.28-.59l.69.78a2.13,2.13,0,0,1-.86.7A2.93,2.93,0,0,1,390.47,259.35Zm-.16-4.34a.87.87,0,0,0-.68.28,1.44,1.44,0,0,0-.34.82h2V256a1.06,1.06,0,0,0-.26-.72A.87.87,0,0,0,390.31,255Z"/><path class="a" d="M396.41,255.29a3.25,3.25,0,0,0-.51,0,1,1,0,0,0-1,.54v3.46h-1.41V254h1.34l0,.63a1.29,1.29,0,0,1,1.17-.73,1.56,1.56,0,0,1,.44.06Z"/><path class="a" d="M401.27,252.67V254h.9v1h-.9v2.64a.68.68,0,0,0,.11.42.59.59,0,0,0,.43.13,2.5,2.5,0,0,0,.42,0v1.07a2.76,2.76,0,0,1-.86.13,1.35,1.35,0,0,1-1.51-1.5V255h-.77v-1h.77v-1.3Z"/><path class="a" d="M403,252.6a.69.69,0,0,1,.21-.52.79.79,0,0,1,.58-.21.81.81,0,0,1,.58.21.75.75,0,0,1,0,1,.91.91,0,0,1-1.14,0A.68.68,0,0,1,403,252.6Zm1.5,6.65H403V254h1.42Z"/><path class="a" d="M406.93,254l.05.59a1.85,1.85,0,0,1,1.52-.69,1.41,1.41,0,0,1,1.4.81,1.81,1.81,0,0,1,1.59-.81,1.57,1.57,0,0,1,1.27.5,2.31,2.31,0,0,1,.42,1.51v3.37h-1.41v-3.37a1,1,0,0,0-.18-.65A.76.76,0,0,0,411,255a.89.89,0,0,0-.88.6v3.63h-1.41v-3.36a1,1,0,0,0-.18-.67.82.82,0,0,0-.62-.2.91.91,0,0,0-.87.5v3.73h-1.41V254Z"/><path class="a" d="M416.7,259.35a2.61,2.61,0,0,1-1.89-.71,2.53,2.53,0,0,1-.73-1.9v-.14a3.09,3.09,0,0,1,.31-1.42,2.22,2.22,0,0,1,.87-1,2.38,2.38,0,0,1,1.28-.34,2.2,2.2,0,0,1,1.71.68,2.76,2.76,0,0,1,.62,1.94v.58h-3.36a1.3,1.3,0,0,0,.41.83,1.24,1.24,0,0,0,.87.31,1.54,1.54,0,0,0,1.28-.59l.69.78a2.13,2.13,0,0,1-.86.7A2.93,2.93,0,0,1,416.7,259.35Zm-.16-4.34a.87.87,0,0,0-.68.28,1.44,1.44,0,0,0-.34.82h2V256a1,1,0,0,0-.26-.72A.87.87,0,0,0,416.54,255Z"/></svg>