<?xml version="1.0" encoding="UTF-8"?>
<svg id="Ebene_2" data-name="Ebene 2" xmlns="http://www.w3.org/2000/svg" viewBox="0 0 1920 1077.07403">
  <defs>
    <style>
      .cls-1 {
        stroke: #0d425b;
        stroke-miterlimit: 10;
        stroke-width: 14px;
      }

      .cls-1, .cls-2 {
        fill: #fff;
      }

      .cls-3 {
        fill: #f3f5f7;
      }

      .cls-4 {
        fill: #0d425b;
      }
    </style>
  </defs>
  <rect class="cls-3" x="-19.45861" y="-12.47662" width="1953.01137" height="1110.2687"/>
  <g>
    <path class="cls-1" d="M999.80181,185.12898h.00173c25.64803,0,46.43969-20.8864,46.43969-46.65123s-20.79166-46.65209-46.43969-46.65209h-.00173c-25.64717,0-46.43969,22.7323-46.43969,48.498s20.79252,44.80532,46.43969,44.80532Z"/>
    <g>
      <path class="cls-2" d="M1023.99805,568.59367c-.24316,0-.48926-.00391-.7334-.01074-7.79785-.19336-15.17871-3.35742-20.22656-8.67969-4.18066-4.40723-6.40527-9.88965-6.27148-15.44629l1.01562-139.86426h-4.89453l-.15234,140.65234c-.35742,12.65625-12.01562,23.34863-25.45703,23.34863-.24316,0-.48926-.00391-.7334-.01074-7.58594-.1875-14.79297-3.29395-19.75098-8.52148-4.26758-4.49902-6.53906-10.11621-6.40527-15.82812l.71289-209.21875-14.69531,37.11426c-3.0752,8.24609-10.60449,13.36328-19.67285,13.36328-3.16699,0-6.41504-.60449-9.65234-1.79688-5.63379-2.05078-9.97754-6.05469-12.53711-11.56934-2.86133-6.16602-3.15039-13.74609-.78223-20.31152,1.21777-3.81641,26.78223-83.89062,35.50293-109.95801,4.69922-14.04688,15.67283-25.04883,31.73438-31.81543,15.71191-6.62012,32.91797-8.00977,44.58496-8.00977,34.01074,0,63.00391,15.14551,73.8623,38.58594l.11035.23828,44.49023,118.59473c2.03613,5.63086,1.98145,12.11621-.12012,17.87402-2.39746,6.57129-7.10254,11.41309-13.24902,13.63379-3.15918,1.15527-6.41699,1.74609-9.6582,1.74609h-.00293c-9.88965-.00098-18.31055-5.51172-21.54395-14.06836l-19.91504-43.85254-.44531,210.46191c-.35742,12.65625-11.8584,23.34863-25.11426,23.34863Z"/>
      <path class="cls-4" d="M995.58356,209.03166c29.69391,0,57.31732,12.52393,67.51154,34.52734l44.39771,118.34961c2.89172,8.00146-.20459,19.21826-9.19373,22.46631-2.47583.90527-4.93652,1.32861-7.28162,1.32861-6.96912,0-12.9032-3.74609-15.06775-9.7334l-33.32458-73.38037-.50989,242.45752c-.23828,8.42432-7.98914,16.54639-18.11615,16.54639-.17798,0-.35754-.00293-.53699-.00781-11.38062-.28223-19.9375-8.43848-19.69623-17.01221l1.06702-146.98047h-18.93719l-.15729,147.4541c-.23779,8.42432-8.32007,16.54639-18.45844,16.54639-.17822,0-.35785-.00293-.53729-.00781-11.38104-.28223-19.59485-8.67529-19.35358-17.24854l.83795-246.33398-28.35663,71.61914c-2.1416,5.81543-7.14264,8.86963-13.13715,8.86963-2.29987,0-4.74615-.44922-7.23297-1.36523-9.83862-3.58105-12.0755-15.00146-9.11304-23.05029,0,0,26.53888-83.16602,35.51599-110,8.97699-26.8335,41.966-35.04492,69.6803-35.04492M995.58356,195.03166c-12.31238,0-30.51343,1.48486-47.30231,8.55811-17.96942,7.5708-30.29865,20.03516-35.65472,36.04492-8.66107,25.88916-33.87683,104.86084-35.49683,109.93604-2.92938,8.23438-2.5376,17.74023,1.06482,25.50244,3.30646,7.12451,9.15778,12.51953,16.47955,15.19531,4.01068,1.47559,8.06805,2.22363,12.0592,2.22363,12.04437,0,22.06781-6.83301,26.20636-17.84814l1.03552-2.61523-.58545,172.11865c-.15656,7.5459,2.79504,14.90039,8.32495,20.73096,6.22882,6.56738,15.22479,10.46875,24.68091,10.70312.26288.00781.57489.01221.8844.01221,8.34521,0,16.32642-3.14648,22.47308-8.85938,1.93298-1.79688,3.61792-3.79932,5.02618-5.94629.93671,1.37109,1.99866,2.68652,3.17975,3.93213,6.31921,6.6626,15.48828,10.62158,25.15607,10.86133.26294.00781.57483.01221.88409.01221,8.38904,0,16.35425-3.19043,22.42822-8.98291,5.93274-5.65771,9.46179-13.37305,9.68225-21.16797l.00525-.18311.00037-.18311.37451-178.09912,6.52173,14.36035c4.33203,11.1792,15.25134,18.36572,28.00598,18.36572,4.0509,0,8.10413-.72803,12.04773-2.16504,8.00781-2.89648,14.36353-9.38965,17.43799-17.81543,2.65442-7.2749,2.7113-15.50244.15613-22.57275l-.02869-.07959-.02979-.07959-44.39771-118.34961-.18433-.49121-.2207-.47656c-6.24695-13.4834-17.63733-24.61035-32.93994-32.17871-13.84045-6.84521-30.18774-10.46338-47.2746-10.46338h0Z"/>
    </g>
  </g>
  <g>
    <path class="cls-1" d="M1192.31422,172.782h.00173c25.64803,0,46.43969-20.8864,46.43969-46.65123s-20.79166-46.65209-46.43969-46.65209h-.00173c-25.64717,0-46.43969,22.7323-46.43969,48.498s20.79252,44.80532,46.43969,44.80532Z"/>
    <g>
      <path class="cls-2" d="M1217.45703,555.19719c-.24316,0-.48926-.00391-.7334-.01074-7.79883-.19434-15.17969-3.3584-20.22754-8.68164-4.17969-4.40723-6.4043-9.88867-6.27051-15.44434l1.01465-139.86426h-4.89453l-.15137,140.65137c-.35742,12.65723-12.01562,23.34961-25.45703,23.34961-.24316,0-.48926-.00391-.7334-.01074-7.58691-.18848-14.79492-3.29492-19.75195-8.52344-4.2666-4.49805-6.53809-10.11523-6.4043-15.82617l.71191-209.21777-14.69336,37.1123c-3.07715,8.24609-10.60742,13.36426-19.6748,13.36426-3.16699,0-6.41406-.60449-9.65039-1.7959-5.63477-2.05078-9.97949-6.05566-12.53906-11.57031-2.86133-6.16699-3.15137-13.74707-.78223-20.3125,1.21875-3.81641,26.7832-83.88965,35.50293-109.95801,4.7002-14.04688,15.67383-25.04785,31.73438-31.81543,15.71191-6.61914,32.91797-8.00879,44.58496-8.00879,34.01074,0,63.00391,15.14551,73.86328,38.58496l.11035.23828,44.48926,118.59473c2.03516,5.63086,1.98145,12.11621-.11914,17.87402-2.39844,6.57129-7.10352,11.41309-13.24902,13.63379-3.16016,1.15527-6.41895,1.74609-9.66113,1.74609h-.00098c-9.88965-.00098-18.31055-5.51074-21.54395-14.06641l-19.91504-43.85449-.44531,210.46191c-.35742,12.65723-11.8584,23.34961-25.11328,23.34961Z"/>
      <path class="cls-4" d="M1189.04187,195.6342c29.69385,0,57.31738,12.52441,67.5116,34.52783l44.39771,118.34961c2.8916,8.00146-.20459,19.21826-9.19373,22.46631-2.47583.90527-4.93652,1.32861-7.28162,1.32861-6.96912,0-12.9032-3.74609-15.06775-9.7334l-33.32458-73.38037-.50989,242.45752c-.2384,8.42432-7.98914,16.54639-18.11609,16.54639-.1781,0-.35754-.00293-.53699-.00781-11.38074-.28223-19.93762-8.43848-19.69629-17.01221l1.06702-146.98096h-18.93726l-.15723,147.45459c-.23792,8.42432-8.32007,16.54639-18.4585,16.54639-.17822,0-.35779-.00293-.53723-.00781-11.3811-.28223-19.59485-8.67529-19.35364-17.24902l.83801-246.3335-28.35669,71.61865c-2.1416,5.81592-7.1427,8.87012-13.13708,8.87012-2.29993,0-4.74609-.44922-7.23303-1.36523-9.83862-3.58105-12.07544-15.00146-9.11292-23.05029,0,0,26.53882-83.16602,35.51587-110,8.97705-26.8335,41.96606-35.04541,69.6803-35.04541M1189.04187,181.6342c-12.31226,0-30.51331,1.48486-47.30237,8.55859-17.96936,7.5708-30.29858,20.03516-35.65466,36.04492-8.6604,25.8877-33.87341,104.85059-35.49622,109.93408-2.93005,8.23535-2.53845,17.7417,1.06421,25.50439,3.31067,7.1333,9.17346,12.53369,16.5083,15.20605,4.00146,1.46875,8.04883,2.21289,12.0304,2.21289,12.04382,0,22.06738-6.8335,26.2063-17.84814l1.03564-2.61572-.58545,172.11914c-.15649,7.5459,2.79517,14.90039,8.3252,20.73096,6.22888,6.56738,15.22461,10.46875,24.68079,10.70312.26282.00781.57483.01221.8844.01221,8.34521,0,16.32629-3.14648,22.47302-8.85986,1.93298-1.79639,3.61792-3.79883,5.02612-5.94629.93677,1.37158,1.99866,2.68701,3.17969,3.93262,6.31921,6.6626,15.48828,10.62158,25.15613,10.86133.26294.00781.57495.01221.88416.01221,8.38904,0,16.35425-3.19043,22.42822-8.98291,5.93262-5.65771,9.46167-13.37305,9.68225-21.16748l.00525-.18311.00037-.18359.37451-178.09912,6.52173,14.36035c4.33203,11.1792,15.25134,18.36572,28.00598,18.36572,4.0509,0,8.10413-.72803,12.04773-2.16504,8.00781-2.89648,14.36353-9.38965,17.43799-17.81543,2.6543-7.2749,2.7113-15.50244.15625-22.57275l-.02881-.07959-.02979-.07959-44.39771-118.34961-.18433-.49121-.2207-.47656c-6.24695-13.4834-17.63733-24.61035-32.93994-32.1792-13.84058-6.84521-30.18787-10.46338-47.27466-10.46338h0Z"/>
    </g>
  </g>
  <g>
    <path class="cls-1" d="M654.18594,214.4895h.00173c25.64803,0,46.43969-20.8864,46.43969-46.65123s-20.79166-46.65209-46.43969-46.65209h-.00173c-25.64717,0-46.43969,22.7323-46.43969,48.498s20.79252,44.80532,46.43969,44.80532Z"/>
    <g>
      <path class="cls-2" d="M679.32812,599.25969c-.24316,0-.48926-.00391-.7334-.01074-7.79883-.19434-15.17969-3.3584-20.22754-8.68164-4.1797-4.40723-6.4043-9.88867-6.27051-15.44531l1.01562-139.86328h-4.89453l-.15234,140.65137c-.35742,12.65723-12.01562,23.34961-25.45703,23.34961-.24316,0-.48926-.00391-.7334-.01074-7.58691-.18848-14.79492-3.29492-19.75195-8.52344-4.2666-4.49805-6.53809-10.11523-6.4043-15.82617l.71191-209.21777-14.69336,37.1123c-3.07617,8.24609-10.60645,13.36426-19.67482,13.36426-3.16698,0-6.41405-.60449-9.65135-1.79688-5.63379-2.05078-9.97754-6.05469-12.53711-11.56934-2.86133-6.16699-3.15039-13.74707-.78125-20.31348,1.2207-3.8252,26.78125-83.89062,35.50195-109.95703,4.69922-14.04688,15.67285-25.04785,31.73438-31.81543,15.71191-6.61914,32.91797-8.00879,44.58496-8.00879,34.01074,0,63.00391,15.14551,73.8623,38.58496l.11035.23828,44.49023,118.59473c4.13379,11.43652-.27148,26.77539-13.36816,31.50879-3.16016,1.15527-6.41797,1.74512-9.66016,1.74512h-.00098c-9.89062,0-18.31152-5.51074-21.54395-14.06641l-19.91602-43.85352-.44531,210.46094c-.35742,12.65723-11.8584,23.34961-25.11426,23.34961Z"/>
      <path class="cls-4" d="M650.91357,239.69719c29.69391,0,57.31738,12.52393,67.51166,34.52734l44.39764,118.3501c2.89166,8.00098-.20459,19.21777-9.19373,22.46582-2.47577.90527-4.93652,1.32861-7.28156,1.32861-6.96918,0-12.9032-3.74609-15.06775-9.7334l-33.32465-73.38037-.50995,242.45752c-.23822,8.42432-7.98914,16.54639-18.11609,16.54639-.17798,0-.35754-.00293-.53699-.00781-11.38062-.28223-19.9375-8.43848-19.69623-17.01172l1.06696-146.98096h-18.93713l-.15729,147.4541c-.23785,8.42432-8.32007,16.54639-18.45844,16.54639-.17822,0-.35785-.00293-.53729-.00781-11.3811-.28223-19.59485-8.67529-19.35358-17.24854l.83795-246.33398-28.35663,71.61914c-2.1416,5.81592-7.14282,8.87012-13.13727,8.87012-2.29987,0-4.74603-.44971-7.23285-1.36523-9.83862-3.58105-12.0755-15.00195-9.11304-23.05078,0,0,26.53888-83.16602,35.51593-109.99951,8.97705-26.83398,41.96606-35.04541,69.6803-35.04541M650.91357,225.69719c-12.31238,0-30.51343,1.48486-47.30231,8.55811-17.96942,7.57129-30.29871,20.03564-35.65479,36.0459-8.66095,25.88867-33.87671,104.85986-35.4967,109.93506-2.92944,8.23438-2.5376,17.74072,1.06488,25.50293,3.30859,7.12891,9.16553,12.52637,16.49347,15.20068,4.00604,1.47217,8.05829,2.21826,12.0451,2.21826,12.04395,0,22.06708-6.83252,26.20587-17.84717l1.03613-2.6167-.58545,172.11865c-.15656,7.5459,2.79504,14.90039,8.32495,20.73096,6.22882,6.56738,15.22467,10.46875,24.68091,10.70312.26288.00781.57489.01221.8844.01221,8.34521,0,16.32629-3.14648,22.47308-8.85986,1.93292-1.79639,3.61786-3.79883,5.02612-5.9458.93671,1.37109,1.9986,2.68652,3.17975,3.93213,6.31921,6.6626,15.48828,10.62158,25.15613,10.86133.26294.00781.57483.01221.88409.01221,8.38904,0,16.35419-3.19043,22.42822-8.98291,5.93268-5.65771,9.46173-13.37305,9.68219-21.16748l.00525-.18311.00037-.18359.37457-178.09912,6.52167,14.36035c4.33209,11.1792,15.25146,18.36572,28.0061,18.36572,4.05084,0,8.10413-.72803,12.04767-2.16504,8.00775-2.89648,14.36346-9.38916,17.43787-17.81543,2.65454-7.2749,2.71149-15.50244.15631-22.57227l-.02875-.07959-.02979-.07959-44.39771-118.3501-.18439-.49121-.2207-.47656c-6.24683-13.4834-17.63727-24.61035-32.93988-32.17871-13.84052-6.84521-30.18781-10.46338-47.27466-10.46338h0Z"/>
    </g>
  </g>
  <g>
    <path class="cls-1" d="M850.31441,291.72615h.00173c25.64803,0,46.43969-20.8864,46.43969-46.65123s-20.79166-46.65209-46.43969-46.65209h-.00173c-25.64717,0-46.43969,22.7323-46.43969,48.498s20.79252,44.80532,46.43969,44.80532Z"/>
    <g>
      <path class="cls-2" d="M875.45703,673.31633c-.24316,0-.48926-.00391-.7334-.01074-7.79785-.19336-15.17871-3.35742-20.22656-8.67969-4.17969-4.40723-6.40527-9.88965-6.27148-15.44629l1.01465-139.86426h-4.89355l-.15234,140.65137c-.35742,12.65723-12.01562,23.34961-25.45703,23.34961-.24316,0-.48926-.00391-.7334-.01074-7.58594-.1875-14.79297-3.29395-19.75098-8.52148-4.26758-4.49902-6.53906-10.11621-6.40527-15.82812l.71191-209.21777-14.69336,37.1123c-3.07715,8.24609-10.60742,13.36426-19.6748,13.36426-3.16699,0-6.41406-.60449-9.65137-1.79688-5.63379-2.0498-9.97756-6.05371-12.53711-11.56836-2.8623-6.16602-3.15137-13.74707-.7832-20.31348,1.21875-3.81641,26.7832-83.88965,35.50293-109.95801,4.7002-14.04688,15.67383-25.04785,31.73535-31.81543,15.71191-6.61914,32.91699-8.00879,44.58398-8.00879,34.01074,0,63.00293,15.14551,73.86328,38.58496l.11035.23828,44.48926,118.59473c2.03613,5.63086,1.98145,12.11719-.11914,17.87402-2.39746,6.57227-7.10254,11.41406-13.24902,13.63477-3.15918,1.15527-6.41797,1.74512-9.65918,1.74512h-.00098c-9.89062,0-18.3125-5.51074-21.5459-14.06738l-19.91406-43.85156-.44531,210.46094c-.35938,12.65625-11.86035,23.34863-25.11426,23.34863Z"/>
      <path class="cls-4" d="M847.04205,313.75383c29.69385,0,57.31744,12.52393,67.5116,34.52783l44.39777,118.34961c2.8916,8.00098-.20465,19.21777-9.19379,22.46582-2.47577.90527-4.93652,1.32861-7.28156,1.32861-6.96918,0-12.90326-3.74609-15.06775-9.7334l-33.32465-73.38037-.51001,242.45752c-.23816,8.4248-7.98895,16.54639-18.11682,16.54639-.17737,0-.35736-.00244-.53613-.00732-11.38074-.28271-19.93756-8.43896-19.69635-17.01221l1.06702-146.98096h-18.93719l-.15729,147.4541c-.23779,8.4248-8.31989,16.54639-18.45929,16.54639-.17755,0-.35767-.00244-.53644-.00732-11.38104-.28271-19.59485-8.67578-19.35358-17.24902l.83801-246.33398-28.35663,71.61914c-2.1416,5.81592-7.14276,8.87012-13.13727,8.87012-2.29987,0-4.74603-.44971-7.23291-1.36523-9.83856-3.58105-12.07544-15.00195-9.11298-23.05078,0,0,26.53888-83.16602,35.51593-109.99951,8.97711-26.8335,41.96613-35.04541,69.6803-35.04541M847.04205,299.75383c-12.31226,0-30.51331,1.48486-47.30237,8.55859-17.96936,7.5708-30.29852,20.03516-35.6546,36.04492-8.66101,25.88916-33.87683,104.86035-35.49683,109.93555-2.92944,8.23438-2.5376,17.74072,1.06488,25.50293,3.30731,7.12598,9.16162,12.52246,16.4856,15.19775,4.00861,1.47363,8.06384,2.22119,12.05298,2.22119,12.04395,0,22.06708-6.83252,26.20587-17.84717l1.03613-2.6167-.58551,172.11865c-.15656,7.5459,2.79492,14.8999,8.32458,20.73047,6.22876,6.56787,15.22455,10.46924,24.68073,10.7041.26141.00781.57501.01172.88409.01172,8.3457,0,16.32703-3.146,22.47375-8.85889,1.93298-1.79688,3.61816-3.7998,5.02643-5.94678.93671,1.37109,1.99829,2.68652,3.17938,3.93164,6.31903,6.66309,15.48804,10.62207,25.15588,10.8623.26147.00781.57495.01172.88379.01172,8.38953,0,16.35492-3.18994,22.42896-8.98242,5.9328-5.65771,9.46191-13.37305,9.68225-21.16846l.00525-.18311.00037-.18311.37463-178.09912,6.52167,14.36035c4.33215,11.1792,15.25146,18.36572,28.0061,18.36572,4.05084,0,8.10413-.72803,12.04767-2.16504,8.00775-2.89648,14.36346-9.38916,17.43787-17.81543,2.65454-7.2749,2.71149-15.50244.15631-22.57227l-.02875-.07959-.02979-.07959-44.39777-118.34961-.18439-.49121-.22064-.47656c-6.24677-13.4834-17.63721-24.61084-32.93982-32.1792-13.84052-6.84521-30.18787-10.46338-47.27472-10.46338h0Z"/>
    </g>
  </g>
  <path class="cls-1" d="M1359.52413,440.25812l45.51197-137.8698c1.40079-4.54223,9.83612-26.1663,18.13764-30.84207,15.54633-8.75636,35.25555-3.62344,44.29425,11.76046.09683.1648.19287.32893.28812.49235,4.21394,7.22948,5.82524,15.66524,4.49476,23.92674l-33.47899,207.88574-136.38957,215.36654s-153.89082,128.50652-168.88216,138.23408c-14.99134,9.72756-7.78709,102.68134-7.78709,102.68134l-177.33281,9.36975,36.70319-269.37144c1.90103-13.66186,7.79682-26.45693,16.94705-36.77838l85.00316-95.88196c6.34486-7.15688,14.41344-12.57358,23.43993-15.73598l15.02496-5.26394,79.85742-28.97183,110.31173-87.13204c5.57464-4.40325,12.80585-6.18303,19.76057-4.7349.99133.20642,2.0216.42989,3.07941.6708,16.91402,3.85205,34.22276,17.9432,33.10643,35.25436v2.45944c0,12.22243-4.35502,24.18152-12.74391,33.07052-.503.53298-.97624,1.0105-1.40864,1.4208l-202.74985,192.38243"/>
  <path class="cls-1" d="M489.5208,439.77576l-45.51197-137.8698c-1.40079-4.54223-9.83612-26.1663-18.13764-30.84207-15.54633-8.75636-35.25555-3.62344-44.29425,11.76046-.09683.1648-.19287.32893-.28812.49235-4.21394,7.22948-5.82524,15.66524-4.49476,23.92674l33.47899,207.88574,136.38957,215.36654s153.89082,128.50652,168.88216,138.23408c14.99134,9.72756,7.78709,102.68134,7.78709,102.68134l177.33281,9.36975-36.70319-269.37144c-1.90103-13.66186-7.79682-26.45693-16.94705-36.77838l-85.00316-95.88196c-6.34486-7.15688-14.41344-12.57358-23.43993-15.73598l-15.02496-5.26394-79.85742-28.97183-110.31173-87.13204c-5.57464-4.40325-12.80585-6.18303-19.76057-4.7349-.99133.20642-2.0216.42989-3.07941.6708-16.91402,3.85205-34.22276,17.9432-33.10643,35.25436v2.45944c0,12.22243,4.35502,24.18152,12.74391,33.07052.503.53298.97624,1.0105,1.40864,1.4208l202.74985,192.38243"/>
</svg>