<?xml version="1.0" encoding="UTF-8"?>
<svg id="Ebene_2" data-name="Ebene 2" xmlns="http://www.w3.org/2000/svg" viewBox="0 0 1920 1162.50704">
  <defs>
    <style>
      .cls-1 {
        fill: #0b425b;
      }

      .cls-2, .cls-3, .cls-4 {
        fill: #fff;
      }

      .cls-3 {
        stroke: #0d425b;
        stroke-linecap: round;
        stroke-linejoin: round;
      }

      .cls-3, .cls-4 {
        stroke-width: 13.96855px;
      }

      .cls-5 {
        fill: #aebfc7;
      }

      .cls-6 {
        fill: #f3f5f7;
      }

      .cls-7 {
        fill: #0d425b;
      }

      .cls-4 {
        stroke: #0d435c;
        stroke-miterlimit: 10;
      }

      .cls-8 {
        fill: #fac102;
      }
    </style>
  </defs>
  <rect class="cls-6" x="-19.45861" y="-25.77826" width="1953.01137" height="1210.30282"/>
  <g>
    <ellipse class="cls-2" cx="978.60769" cy="574.64227" rx="526.68174" ry="522.75451"/>
    <g>
      <path class="cls-5" d="M673.18118,638.27902c.78979-1.27244.00894-2.01185-.57639-2.40114-1.17798-.77562-3.49272-1.64335-6.74306-.72715-2.19598-4.27077-4.69493-8.28946-7.2763-12.09-3.47091-5.09971-6.7673-9.94735-8.78392-15.35731l-.42659-5.77838c-1.10526-16.03598-2.32686-34.01101-20.99996-42.03869,7.11633-11.78945,22.08583-38.68413,16.50135-47.58439-.77562-1.24099-2.0554-2.07479-3.50969-2.26869-10.97505-1.59002-16.11354,6.34071-19.91409,12.08031-4.16897,6.30193-6.26314,8.47367-10.4515,7.73683-.6205-.2133-14.77559-4.94459-16.07476-24.16061.42659-.77562.95014-1.78393,1.6482-3.10249,30.38498-58.30736,42.67858-61.77826,45.9168-61.54558,2.01662.19391,4.07201,3.21883,5.64265,8.29915.52354,1.6482,2.44321,3.04431,4.13019,3.47091l2.75346.38781c1.27978.09695,2.42382-.05817,3.45152-.79501,2.03601-1.10526,12.31299-2.59833,19.11907-3.58725,9.88918-1.4349,16.34623-2.4626,20.57336-3.66481,1.37673,4.78946,1.88088,14.11631-3.29639,31.54841-.79501,2.71468-.29086,4.44043.60111,5.54569.58172,2.13296,1.53185,7.32962,2.17174,10.93627,2.32686,12.75898,2.79224,14.93072,5.23545,16.52074,1.16343.73684,2.67589.95014,3.99445.67867,1.68698-.42659,3.04431-1.68698,3.54847-3.35456,2.85041-9.15234,4.82824-18.69248,6.74791-27.94177,5.39057-26.0415,10.49028-50.6287,34.10796-61.56497.50415-.23269.98892-.56233,1.39612-.96953,2.88919-2.85041,4.80885-6.28254,6.39888-9.86979.52354-.09695,1.06648-.27147,1.55124-.54294,4.59556-2.55955,6.39888-4.11079,11.16895-12.75898,1.14404-.17451,2.21052-.75623,2.98614-1.66759,5.93351-6.90303,13.61216-11.71189,17.64539-13.9418.03878-.01939.09695-.05817.13573-.07756.44598-.09695,1.06648-.23269,1.18282-.23269,1.60941.6205,3.52908.27147,4.90581-.85318.19391-.15512.42659-.32964.69806-.48476,1.12465.79501,2.48199,1.14404,3.81994.87257,5.99168-1.10526,6.88364-1.35734,10.33516-4.38226,1.10526-.96953,1.72576-2.36565,1.68698-3.83933,0-.05817-.11634-2.36565-.11634-2.42382,0-.83379-.2133-1.6482-.60111-2.34626,2.34626-1.72576,5.93351-4.22714,10.83931-7.60109.17451-.01939.34903-.05817.52354-.09695,1.76454-.4072,4.01384-1.10526,6.47644-1.91966-.23269.79501-.32964,1.6482-.38781,2.67589-.09695,1.4349.42659,2.83102,1.4349,3.83933,1.0277,1.00831,2.52077,1.6482,3.83933,1.4349,13.98058-.93075,38.25754-17.78113,43.82262-24.37391,1.08587-1.29917,1.41551-3.04431.93075-4.65373-.50415-1.60941-1.78393-2.8698-3.41274-3.33517-3.56786-.98892-7.21328-2.01662-11.8864-.73684-.2133-1.06648-.46537-2.42382-.8144-4.20775-.01939-.11634-.03878-.23269-.07756-.34903.77562-.58172,1.55124-1.24099,2.36565-1.95844,20.7091-4.0914,41.84479-8.49306,49.69796-22.37668,3.91689-6.94181,4.07201-15.55121.46537-25.55673-.58172-1.60941-1.93905-2.79224-3.60664-3.16066l-4.01384-.85318c-.79501-3.06371.2133-6.3601,1.82271-11.01383,2.09418-6.04985,4.69251-13.57338.13573-21.44594-.17451-.29086-.36842-.56233-.58172-.79501.65928-.52354,1.14404-1.20221,1.45429-1.93905,1.26039.42659,2.63711.34903,3.83933-.25208,1.26039-.6205,2.19113-1.74515,2.57894-3.10249.19391-.75623.36842-1.51246.52354-2.28808,1.80332-.71745,3.04431-2.4626,3.12188-4.44043.03393-1.018.03636-1.59002.06302-2.44806,1.02285-.7126,1.82756-1.70152,2.08933-3.00069,0-.01939.01939-.05817.01939-.09695.27147-1.20221.17451-2.61772-.36842-3.66481-.31025-.61565-1.03255-.84349-1.57063-1.28947.61565,0,1.23857.01454,1.90027.04848,4.42104.11634,9.831.31025,14.63986-4.03323,1.51246-1.35734,2.03601-3.50969,1.31856-5.42935-1.20221-3.18005-1.70637-4.03323-7.48475-9.24929.58172-.50415,1.04709-1.16343,1.33795-1.91966.25208-.67867.36842-1.39612.31025-2.11357.52354-.58172.91136-1.27978,1.12465-2.07479.44598-1.76454-.09695-3.64542-1.4349-4.88642-.87257-.79501-1.6482-1.99723-2.50138-3.25761-1.4349-2.19113-3.0831-4.65373-5.85594-6.53461-.71745-.46537-1.51246-.73684-2.34626-.8144-.05817-.2133-.13573-.44598-.19391-.65928-.71745-2.32686-1.51246-4.94459-3.31578-7.36841-.83379-1.12465-2.07479-1.8421-3.45152-1.97784-1.06648-.17451-2.2493-.07756-3.39334.13573-.44598-.19391-.93075-.31025-1.41551-.36842-.67867-.09695-2.34626-.2133-4.67312.05817-.50415-.4072-1.10526-.71745-1.76454-.91136l-3.19944-.93075c-.85318-.25208-1.76454-.27147-2.6565-.05817-1.6482.42659-3.66481,1.00831-5.87533,1.8421-.56233-.19391-1.16343-.2133-1.78393-.23269-.29086.01939-26.81712,3.43213-34.88358,14.7562-8.35732-.31025-11.072,1.18282-14.349,4.82824-.52354.58172-.79501,1.27978-.87257,2.03601-2.03601.85318-3.50969,1.0277-4.63434.87257.05817-1.41551-.48476-2.85041-1.59002-3.85872-3.62603-3.39334-6.9612-5.00276-10.2576-4.47921-2.50138.27147-4.40165,1.51246-5.89472,3.00553h-2.4626c.01939-.4072-.01939-.83379-.11634-1.24099-.2133-1.00831-.60111-2.38504-.91136-3.39334-.38781-1.24099-1.24099-2.30747-2.40443-2.92797-2.13296-1.14404-4.32409-1.62881-6.30193-1.99723,0-.36842-.03878-.77562-.11634-1.14404-.38781-1.78393-1.68698-3.16066-3.35456-3.6842-.15512-1.55124-1.0277-2.92797-2.34626-3.74237-1.49307-.91136-3.33517-.98892-4.86703-.19391-6.1468,3.21883-14.91133-1.72576-24.99441-7.40719-15.72573-8.8227-36.84203-20.72849-58.75334-3.04431-7.31023-2.2493-11.32408-.8144-14.32961.93075-.65928.38781-1.2216.89196-1.62881,1.51246-3.277.96953-4.67312,2.07479-6.61217,5.7396-.23269.44598-.38781.89196-.48476,1.37673-21.38777,3.97506-23.3656,4.98337-32.55672,12.25482-.85318.67867-1.4349,1.59002-1.70637,2.57894-1.00831.44598-1.99723.91136-3.00553,1.37673-1.31856.6205-2.30747,1.80332-2.67589,3.21883-.2133.73684-.23269,1.51246-.07756,2.26869-4.44043,1.00831-12.23543,2.6565-26.37114,5.60387-2.03601.42659-3.56786,2.09418-3.87811,4.14958-.29086,2.0554.71745,4.0914,2.55955,5.08032,2.17174,1.20221,4.47921,2.50138,20.36007,1.6482.13573.27147.47992.35388.66413.59626.3054.39751.6205.63504,1.03255.93075.36357.26662.54778.7126.97922.87742,8.18281,3.02492,15.9972-1.55124,18.96395-3.6842.85318-.60111,1.47368-1.45429,1.80332-2.42382.15512-.05817.32964-.11634.48476-.17451.71745.23269,1.55124.29086,2.30747.13573,2.13296-.4072,4.40165.15512,7.03877.75623.38781.09695.77562.17451,1.18282.27147-.09695.8144,0,1.66759.32964,2.48199.75623,1.80332,2.50138,3.00553,4.45982,3.06371.27147,0,.54294.01939.8144.01939-3.04431,4.47921-7.21328,8.18281-11.57615,12.06092-4.67312,4.14958-9.52076,8.45428-13.26313,14.01936-1.12465,1.66759-1.14404,3.83933-.01939,5.5263.01939.01939.03878.05817.05817.09695-4.63434,5.13849-9.48197,10.76175-13.16618,15.60939l-1.26039-.29086c-1.76454-.46537-3.54847.13573-4.75068,1.41551-73.72284,78.29901-79.21036,97.08844-87.50951,125.53436-3.04431,10.41272-6.47644,22.20217-13.92241,38.9556-.42659.96953-.54294,2.0554-.31025,3.0831.96953,4.38226-.77562,15.7839-2.17174,24.95563-2.50138,16.52074-3.66481,25.34344-.34903,29.76448,1.10526,1.47368,2.71468,2.42382,4.49861,2.6565,2.2493.19391,4.32409-.95014,5.21606-2.98614,4.94459-11.71189,6.554-24.12183,8.10525-36.12458.13573-1.00831.27147-2.01662.38781-3.02492-.05817.91136-.11634,1.8421-.17451,2.75346-3.66481,53.11069-8.22159,119.19366,66.16053,153.65065,7.93073,5.39057,8.33793,14.01936,8.8227,24.02488.54294,11.03322,1.14404,23.55951,13.14679,31.74232.85318.58172,1.82271.87257,2.79224.87257h.03878c.2133,1.00831.73684,1.91966,1.51246,2.63711l2.15235,1.8421c.93075.79501,2.09418,1.2216,3.277,1.2216.71745,0,1.4349-.15512,2.09418-.46537,2.96675-1.39612,5.77838-3.02492,8.59001-4.67312l3.14127-1.79363c.63019.43144.93364.8858,2.07445.53478,1.00918-.83367,5.9673-8.55606,5.9673-8.55606ZM842.72771,219.13637c.01454-.02909.05332-.02909.06787-.05817.6205-.13573,1.27978-.31025,1.99723-.50415.01939.27147.05817.56233.13573.83379.48476,1.93905,2.09418,3.39334,4.07201,3.6842,9.28807,1.39612,14.38778,2.17174,17.56783,2.34626-5.40996,4.47921-9.90857,11.36286-13.61216,17.0249-13.82546,21.34899-28.65922,34.67029-38.45144,41.96113,3.0831-5.25484,6.39888-9.57893,8.14403-11.73128,1.14404-1.41551,1.4349-3.35456.71745-5.04154-3.10249-7.3878-11.82823-13.30191-20.28251-17.50966,1.37673-1.60941,2.28808-2.77285,3.74237-4.67312.89196-1.14404,1.08587-2.69529.79501-4.0914-.09695-.46537-.27147-.93075-.50415-1.35734,10.95566-7.56231,27.63152-16.86977,32.73123-18.4404.04605-.01454.05817-.07271.10422-.08726,1.27735-.4072,2.17901-1.18282,2.77527-2.35595ZM900.57939,196.81785c-.85318,1.27978-1.04709,2.85041-.60111,4.24653-1.62881,1.55124-3.25761,3.18005-4.75068,4.98337-15.51243,1.55124-15.90024,1.72576-17.97503,5.15788-.06302.10665-.04363.23269-.09695.33933-.05817.09211-.11877.15028-.17451.24238-.29086.46537-.52354.95014-.63989,1.31856v.03878c-.79501,2.63711.69806,5.39057,3.31578,6.18558.46537.13573.95014.2133,1.4349.2133.46537,0,.8653-.24238,1.30401-.36842,3.81509.67382,6.41342,3.26731,9.86494,7.71744,3.14127,4.05262,6.63157,8.55123,12.23543,10.68419-4.0914,3.78116-8.02768,6.84486-11.30469,8.86148.31994-1.37673.92347-2.99099,1.5464-4.69736,1.31371-.61565,2.41412-1.51246,2.91343-2.74861.23269-.58172.32964-.79501.32964-1.4349.07756-.69806-.01939-1.66759-.23269-2.34626-.63504-1.93905-2.5038-3.0831-4.47437-3.19944-.03878-.99377-.27632-1.97784-.9162-2.81163-4.45982-5.81716-9.81161-8.49306-14.89194-8.45428-.61807.03878-1.21676.09695-1.8009.19875.18663-.52354.42417-1.03255.42417-1.61426,0-1.09557-.56233-1.98268-1.16343-2.80678-.15997-.52839-.32964-2.49653-.54294-5.74445,1.80332-1.35734,3.99445-2.52077,6.30193-3.72298,5.23545-2.77285,11.55676-6.12741,14.71742-13.24374,1.45429.11634,2.83102.17451,4.16897.05817.09695.4072.2133.79501.36842,1.12465l.77562,1.62881c-.03878.05817-.09695.13573-.13573.19391ZM893.26915,232.65157l-.07029.2036c.0097-.07271.01212-.14058.01697-.2133.01697.00485.03878.00485.05332.0097ZM895.15003,240.85377c-.05332.05332-.09211.02909-.14543.07756.02424-.06302.02909-.1018.05332-.16967l.09211.09211Z"/>
      <path class="cls-5" d="M1048.23836,171.59076c-.13573-.77562-.4072-1.66759-.98892-2.57894.2133-.29086.44598-.6205.63989-.96953.03878-.07756.07756-.15512.11634-.25208,1.4349-.95014,2.28808-2.07479,2.75346-4.11079.27147-1.27978.05817-2.59833-.6205-3.70359-.56233-.9162-1.24584-1.36219-1.96572-1.83241.35873-.87257.5187-1.82756.41447-2.72437-.07756-.6205-.25208-1.2216-.56233-1.76454-.07756-.14543-.31994-.34903-.47507-.55263-.6617-3.11218-1.53185-5.70082-4.04293-7.00968-.29086-.4072-.63989-.87257-1.08587-1.33795,2.54016-1.76454,5.37118-4.01384,5.89472-7.56231.23269-1.53185.07756-3.8975-1.90027-6.3601-1.33795-1.62881-3.56786-2.22991-5.5263-1.53185-.11634.03878-.23269.07756-.34903.13573-1.72576.25208-6.61217-.09695-9.36563-.42659-3.277-3.25761-5.02215-3.31578-17.37392-.91136-5.40996-3.74237-11.13017-.91136-14.98889,1.00831-3.39334,1.68698-5.04154,2.30747-5.89472,1.60941-1.68698-1.20221-3.91689-1.24099-5.64265-.11634-.42659.29086-.79501.6205-1.10526,1.00831-2.26869-.03878-3.85872.65928-4.86703,2.57894-9.34624.98892-26.11906,3.56786-27.99994,9.40441-4.18836.13573-9.79222.44598-13.78667,6.01107-.96953,1.33795-1.16343,3.02492-.65928,4.518-.17451.42659-.27147.87257-.32964,1.33795-.4072,4.0914,1.12465,6.554,2.4626,7.89195,3.52908,3.47091,8.76452,2.92797,13.88363,2.34626,1.90027-.2133,5.31301-.58172,6.30193.15512-1.24099,3.43213-1.04709,5.91412-.38781,7.63987-.36842.63989-.73684,1.33795-1.00831,2.15235-.23269.65928-.31025,1.35734-.25208,2.03601-.73684,2.03601-.79501,4.03323-.09695,5.79777.05817.19391.15512.38781.23269.56233-2.13296,3.18005-3.47091,7.01938-1.86149,10.29638.29086.58172.71745,1.24099,1.33795,1.8421-3.29639,4.69251-3.95567,6.88364-3.41274,9.98613.03878.27147.11634.54294.2133.79501-5.15788,15.45426.75623,22.39607,13.92241,37.85034.96953,1.12465,2.34626,1.74515,3.78116,1.74515.56233,0,1.14404-.09695,1.68698-.29086,11.77006-4.26592,37.24923-26.75895,47.11901-45.02484,11.28529,3.66481,21.75619-8.55123,26.13845-13.74789.46537-.19391.93075-.44598,1.37673-.71745,1.8421-1.12465,2.73407-3.31578,2.22991-5.39057-.48476-1.95844-1.14404-3.37395-4.55678-6.47644.48476-1.12465.73684-2.36565.60111-3.31578Z"/>
      <path class="cls-5" d="M1170.45694,287.85644c.01939-1.60941-.52354-3.66481-2.81163-5.39057-.25208-6.57339-.77562-10.37394-4.32409-12.27421-2.11357-1.10526-4.22714-.83379-6.06924-.17451-1.90027-2.30747-4.3047-6.10802-6.3601-9.34624-5.7396-9.0166-11.18834-17.56783-17.99442-19.40993.09695-2.88919-.4072-5.91412-2.11357-8.06647-.60111-.73684-1.41551-1.31856-2.32686-1.60941l-1.88088-.6205c-2.03601-.69806-4.38226.07756-5.62326,1.88088-1.86149,2.67589-2.34626,5.7396-2.73407,8.2022-.60111,3.8975-.91136,4.49861-2.52077,5.06093-1.49307.50415-2.6565,1.68698-3.14127,3.19944-.48476,1.49307-.2133,3.14127.71745,4.42104.23269.32964.46537,1.12465.69806,1.90027.50415,1.74515,1.20221,4.14958,3.21883,6.20497.48476.50415,1.06648.87257,1.68698,1.12465.13573,1.0277.4072,1.93905.85318,2.67589.75623,1.20221,2.07479,2.07479,3.4903,2.36565.63989.98892,1.49307,1.57063,2.83102,2.07479.54294.2133,1.12465.31025,1.68698.31025.63989.63989,1.4349,1.16343,2.42382,1.53185.69806.23269,1.37673.36842,2.0554.36842-.01939.89196-.0606,1.67243-.13089,2.29778-.82167.90166-1.42036,1.97299-1.42036,3.24792,0,.77562.19391,1.55124.56233,2.2493.01454.02909.0509.04848.06544.07756.01212.02424-.00242.05332.01212.07756.91136,1.8421,1.80332,2.96675,2.8698,3.70359-.44598,3.12188.23269,5.68143,2.03601,7.67865.54294.58172,1.2216,1.16343,2.11357,1.6482-3.277,4.16897-3.31578,5.19667-2.83102,7.795.31025,1.66759,1.51246,3.00553,3.0831,3.64542.58172.23269,1.20221.34903,1.82271.34903,1.04709,0,2.09418-.31025,2.96675-.93075.96953-.65928,5.13849-2.17174,8.18281-3.277,12.04153-4.38226,18.84761-7.13572,18.90578-12.99166Z"/>
      <path class="cls-5" d="M1108.67867,250.85929c-1.12465-.52354-4.80885-1.8421-8.31854,2.15235-.07756.05817-.13573.11634-.19391.17451,0,0-.13573.17451-.34903.46537-.6205.85318-1.91966,2.73407-3.04431,5.00276-.52354.56233-.89196,1.24099-1.10526,2.01662-.09695.36842-.17451.73684-.2133,1.06648-.95014,2.81163-1.26039,5.75899.29086,7.93073.31025.44598.69806.85318,1.12465,1.16343.13573,1.35734.50415,2.59833,1.24099,3.4903.46537.58172,1.08587,1.04709,1.74515,1.35734.46537.87257,1.10526,1.41551,2.13296,1.99723.36842.19391.73684.34903,1.12465.46537.67867.75623,1.55124,1.35734,2.73407,1.70637.58172.17451,1.16343.25208,1.70637.25208,2.07479,0,3.78116-1.12465,4.96398-2.21052,1.27978-.65928,2.26869-1.8421,2.61772-3.29639.05817-.17451,1.10526-20.0886-6.45705-23.73402Z"/>
      <path class="cls-5" d="M1198.43749,100.07844c-2.21052-1.00831-4.84764-.31025-6.22436,1.70637-.38781.60111-.65928,1.24099-.77562,1.90027-1.51246-.52354-3.21883-.29086-4.53739.65928l-3.18005,2.36565c-1.08587.79501-1.80332,1.99723-1.97784,3.33517-.17451,1.33795.19391,2.69529,1.04709,3.76176,12.89471,16.15232,14.62047,18.30467,20.86422,20.34068.11634.23269.2133.44598.32964.65928-1.26039.34903-2.36565,1.16343-3.04431,2.36565-1.10526,2.01662-.69806,4.53739,1.00831,6.08863,6.63157,6.04985,11.55676,9.50137,16.24927,11.94457-.19391.29086-.34903.6205-.46537.96953-.73684,2.13296.05817,4.47921,1.93905,5.7396.50415.32964,1.04709.69806,1.62881,1.04709,0,.03878.01939.07756.01939.13573.42659,1.47368.34903,3.21883.27147,5.23545-.01939.83379-.05817,1.70637-.05817,2.61772-1.74515-.85318-3.58725-1.4349-5.29362-1.68698-2.30747-.36842-4.42104.89196-5.27423,2.94736-.09695.19391-.15512.38781-.2133.58172-7.73683-2.48199-16.42379-2.52077-20.39885-2.2493-2.38504-1.62881-5.60387-3.00553-8.62879-3.25761-1.04709-1.08587-2.57894-1.66759-4.05262-1.51246-1.66759.15512-3.16066,1.16343-3.93628,2.63711h-1.74515c-2.01662,0-3.85872,1.2216-4.61495,3.12188-2.81163,7.01938-3.6842,9.17173-3.54847,12.31299-.46537.31025-.95014.6205-1.49307.96953-1.72576,1.12465-2.59833,3.19944-2.15235,5.21606.25208,1.18282.56233,2.81163.75623,4.01384.31025,1.78393,1.53185,3.25761,3.23822,3.85872,1.31856.48476,2.96675,1.06648,4.518,1.62881.77562,4.73129.42659,10.76175.09695,16.5983-.69806,12.17726-1.4349,24.76172,6.49583,32.57611,4.65373,4.57617,11.42103,6.41827,20.63154,6.26314.85318,4.16897,3.18005,8.72574,11.8864,22.99718-2.83102,5.50691-9.13294,16.01659-24.33513,30.17168-1.0277.93075-1.59002,2.38504-1.59002,3.76176q.01939,4.36287-6.94181,9.4238c-2.13296,1.53185-2.69529,4.45982-1.27978,6.67035,2.79224,4.38226,6.554,7.81439,10.21882,11.13017,5.02215,4.53739,13.58445,13.49721,14.80606,19.23681-5.30427,4.54652-18.30983.73586-22.3537,2.08382-5.11483,1.70494-19.10032-.25175-19.89101,11.17685-.12875,1.86093,3.25557,11.90194,3.40989,14.20786.56406,8.42895-.18944,23.49033,1.51551,30.68898.47698,2.0139,6.92327,7.78832,8.97866,8.05978,5.39574.68958,10.28687,1.1403,14.71302,1.34713,4.42622.20684,5.9241,6.22352,9.45999,5.93757,2.05991-.16658,6.43882-6.47136,8.21785-6.80789,5.33721-1.00959,9.44567-2.78842,12.53702-5.36324,7.25206-6.03046,10.18771-18.38993,10.69186-27.23201.71745-13.03044-.95781-23.26095,17.56015-34.236,1.18282-.6205,2.85041-.56233,4.9252.15512,11.24651,3.78116,27.63152,23.44316,33.13843,31.45146-.13573.09695-.25208.17451-.36842.25208-4.05262,2.67589-9.59832,6.34071-10.19942,12.21604-.34903,3.33517.96953,6.51522,3.8975,9.50137,1.33795,1.33795,3.31578,1.8421,5.06093,1.2216,9.75344-3.18005,19.33237-9.98613,23.21048-15.06645.34903-.25208.67867-.56233.95014-.93075,2.2493-2.94736.54294-5.72021-1.27978-8.64818-.27147-.4072-.54294-.83379-.77562-1.2216-.09695-.96953-.48476-1.90027-1.14404-2.67589-3.47091-4.05262-7.40719-8.00829-11.42103-12.04153-7.71744-7.73683-15.62878-15.66756-20.82544-25.18831,6.10802,4.38226,13.80607,12.08031,20.43763,18.73126,13.43764,13.45704,27.34066,27.37944,40.68136,30.9473,1.39612.36842,2.8698.13573,4.07201-.67867,1.18282-.8144,1.97784-2.09418,2.13296-3.52908.69806-5.97229-3.91689-13.51521-17.18002-27.36005,2.71468.36842,5.62326.48476,8.57062-.11634l.25208.15512c1.24099,7.27145,1.86149,9.40441,5.56509,12.44873.07756.79501.15512,1.60941.23269,2.38504.19391,1.99723,1.57063,3.66481,3.4903,4.26592,1.37673.42659,5.60387,1.72576,6.39888,9.30746.25208,2.28808,2.0554,4.13019,4.34348,4.40165.85318.05817,1.78393-.01939,2.55955-.36842.48476.44598.98892.87257,1.51246,1.24099,1.60941,1.14404,3.78116,1.2216,5.42935.19391,1.39612-.83379,2.2493-2.26869,2.38504-3.83933,7.42658-.25208,12.64263-3.02492,16.17171-5.79777,15.90024,28.15507,7.44597,33.95284,4.14958,36.22153-2.2493,1.55124-2.83102,4.63434-1.27978,6.90303,1.57063,2.2493,4.67312,2.81163,6.90303,1.27978.19391-.13573.27874-.31025.46537-.44598l2.58621,2.88919c-1.76696,1.61911-2.34383,4.2126-.9768,6.28254q5.75899,8.68696,9.81161,13.86424c1.04709,1.33795,2.69529,2.0554,4.45982,1.86149.96953-.09695,1.88088-.48476,2.59833-1.08587,17.80052,27.4764,47.87525,77.2907,54.50681,109.16875.48476,2.28808,2.48199,3.93628,4.80885,3.95567h.05817c2.30747,0,4.32409-1.59002,4.84764-3.85872,17.49027-76.39873,17.81991-77.8918,10.27699-112.29062-.01939-.15512-.05817-.29086-.09695-.42659,0-.01939-.01939-.01939-.01939-.01939-.07756-.31025-.2133-.58172-.34903-.85318v-.01939c-.09695-.15512-.17451-.31025-.27147-.44598-8.93904-13.10801-10.99444-16.63708-12.66202-20.37946,6.86425,3.81994,10.27699,10.16064,13.22435,19.04151.83379,2.50138,3.47091,3.8975,5.99168,3.21883,2.54016-.65928,4.11079-3.19944,3.58725-5.77838-29.68692-146.90274-138.08004-277.24596-289.92737-348.64193ZM1222.13273,190.01177c.34903-.17451.65928-.38781.95014-.63989.11634.50415.29086.98892.56233,1.45429-.46537-.25208-.96953-.50415-1.51246-.8144ZM1218.97207,236.18065c-1.12465-1.76454-2.21052-3.47091-3.23822-5.17727,3.87811,2.19113,7.83378,2.98614,11.45981,3.0831-.52354.96953-.71745,2.09418-.52354,3.19944.58172,3.4903,2.57894,8.29915,5.66204,11.18834,1.12465,1.04709,2.73407,1.45429,4.13019,1.27978,1.06648-.15512,2.0554-.65928,2.79224-1.41551.19391.19391.36842.38781.54294.56233l-1.4349,5.54569c-2.42382,9.4238-4.518,17.56783-6.92242,18.71187-.50415.25208-1.24099.32964-2.32686.15512.09695-.2133.17451-.46537.23269-.69806,3.4903-14.54291-3.87811-26.17723-10.37394-36.43483Z"/>
    </g>
    <path class="cls-5" d="M1473.00755,595.02201c-.77562-.6205-1.68698-.98892-2.61772-1.08587-.98892-.60111-2.96675-2.28808-4.45982-3.54847-6.45705-5.44874-17.56783-14.71742-28.73678-12.42934-6.34071-36.97776-15.43487-57.2021-27.76725-84.6591-4.03323-8.91965-8.3961-18.6537-13.47643-30.65645l-15.14401-25.22709c-.69806-1.16343-1.86149-1.99723-3.19944-2.28808-1.33795-.29086-2.73407,0-3.85872.75623-4.84764,3.33517-7.65926,6.70913-10.14125,9.67588-3.45152,4.13019-6.24375,7.46536-14.349,10.33516-1.59002-1.14404-4.11079-3.12188-5.93351-4.55678-5.79777-4.59556-8.59001-6.78669-10.91687-7.09694-5.99168-2.69529-11.94457-2.98614-18.77004-3.31578-8.55123-.4072-19.21603-.93075-35.75616-6.47644l-2.07479-.42659c-19.64262-4.03323-43.09332-3.82892-57.42293,1.2514-4.46355,1.58392-18.75438-1.70494-23.86921-.37888-2.94902.76456-7.79038,9.97632-10.4191,11.55573-57.34881,34.45675-82.9171,111.88301-66.37984,187.00346,40.00269,91.98873,85.62863,76.28239,122.29614,63.63976,25.8282-8.88087,46.34339-15.90024,64.18269,7.96951-.19391,21.58167.17451,38.87803.46537,52.85862,1.35734,65.4043,1.49307,72.22977-58.30736,195.47605-.98892,2.03601-.48476,4.45982,1.2216,5.93351l3.74237,3.25761c.91136.8144,2.09418,1.24099,3.277,1.24099.50415,0,.98892-.07756,1.49307-.23269,117.6618-36.86142,218.62835-231.34855,218.76408-364.71669,0-1.49307-.67867-2.92797-1.8421-3.85872Z"/>
    <path class="cls-5" d="M668.48632,647.49323c-1.44795,5.13363.42278,14.38377,3.0326,35.11585-13.68972,16.32684-19.25481,36.33787-16.54013,59.50957,5.97229,50.86139,51.50128,107.15213,92.64801,135.85013,9.79222,10.2576,9.92796,12.37117,8.90026,23.92793-1.6482,3.33517-.85318,7.81439.09695,11.53737,5.83655,22.93901,43.22152,90.84469,60.76996,96.7588l.4072.11634q5.56509,8.08586,7.50414,10.68419c.85318,1.10526,2.11357,1.82271,3.50969,1.95844,7.62048.69806,13.30191,5.42935,19.29359,10.4515,2.21052,1.8421,4.44043,3.70359,6.84486,5.42935.32964.71745.83379,1.35734,1.49307,1.86149,6.72852,5.09971,37.22984,11.14956,40.11903,11.14956h.11634c1.8421-.17451,3.64542-1.8421,4.34348-3.54847l.69806-1.72576c.95014-2.55955-.32964-5.40996-2.88919-6.37949-25.8282-9.81161-34.51516-21.27142-37.44313-27.90299.60111-.29086,1.14404-.69806,1.59002-1.2216,1.62881-1.86149,1.62881-4.63434.01939-6.49583-1.72576-1.99723-3.74237-3.31578-5.66204-4.40165,2.44321-1.49307,3.72298-2.98614,4.57617-4.80885,9.61771-1.62881,10.27699-1.90027,13.37947-3.62603,1.31856-.73684,2.22991-2.01662,2.48199-3.4903.27147-1.47368-.15512-2.98614-1.14404-4.11079l-2.63711-3.04431c4.86703-2.07479,8.86148-6.53461,12.02214-10.0443,3.37395-3.78116,6.88364-7.65926,10.21882-8.47367,1.51246-.36842,2.75346-1.41551,3.37395-2.81163,1.4349-3.23822,2.85041-6.98059,4.34348-10.93627,4.90581-12.99166,11.01383-29.16337,21.65923-32.71184,20.53458-10.58724,21.83375-88.59538,21.85314-106.43468,3.37395-9.73405,3.277-18.42101-.27147-25.84759-6.01107-12.58446-20.67032-19.19664-34.72846-24.1994-.01939-4.38226-.54294-5.93351-2.2493-9.98613-.63989-1.49307-1.95844-2.57894-3.54847-2.92797-21.3296-4.45982-28.32958-5.93351-34.45699.75623-8.51245-22.35729-31.14121-75.97214-53.45972-81.16881-2.98614-.69806-6.78669-.8144-10.91687,1.18282-6.7673-20.88361-33.83649-32.53733-54.23534-41.34063-8.79846-3.78116-18.74581-8.08101-20.52246-10.79568-.73926-1.82756-2.21779-3.28185-4.29743-3.28185h-.42659c-1.20949.04848-2.3002.65928-3.21883,1.47853-3.31821-3.47575-6.82547-5.40027-11.03322-5.14334-9.50137.31025-17.14124,10.89748-24.50964,21.13569-3.4903,4.84764-7.36841,10.23821-10.47089,12.79776-1.08102-.33449-2.13538-.78532-3.69147-1.52216-.28628-1.05417-.0535-1.83172-1.5892-1.61233-1.49183,1.00918-5.35302,8.29279-5.35302,8.29279Z"/>
  </g>
  <g>
    <path class="cls-2" d="M1001.71505,636.07851c3.01016,6.72704,10.66642,10.12983,22.78557,10.12983,19.76233,0,47.58663-9.26604,67.21808-18.00858l1.04701-.52351.96848.64129c15.73133,10.45702,48.09705,14.17391,73.13369,14.17391l3.07559-.01309c21.46372-.26175,41.6972-3.19338,56.97046-8.21903,1.51817-.49733,2.84002-1.03392,4.16187-1.55743l1.54434-.61512.58894.13088c18.2049,3.84776,37.15579,4.42362,46.84064,4.42362l3.07576-.01309c17.41948-.22249,34.65589-2.29034,48.55495-5.81091l.73291-.18323.66747.34028c.2094.1047.39263.22249.79835.47115l1.11245.54968v5.10418c.11779,9.51471,9.48853,16.94848,27.86357,22.07884,14.64506,4.09643,33.92314,6.3475,54.26132,6.3475l3.45514-.02618c41.64485-.53659,83.68248-11.43859,83.45983-31.24018l-.01309-2.04167h.11779c.19631-3.78233.56277-12.52486.51042-18.8331l-.03926-1.60978c-.11779-5.66694-3.66454-10.67951-10.52246-14.89373l-1.62287-.99466.90305-1.67522c1.25641-2.31651,1.84536-4.60685,1.81918-7.1982.05235-.82452.65438-12.32855.60203-20.32509l-.06544-1.97623c0-.44498-.07853-.8507-.14396-1.28259l-.1047-.91613c.13088-2.99707.58894-13.29703.45807-20.2073.05235-4.20113.17014-14.06921.06544-20.94021l-.06544-1.97623c-.19631-9.38383-9.46236-16.72599-27.52329-21.83017-15.16857-4.29274-35.46748-6.46529-57.00973-6.32133-13.48026.15705-26.69877,1.34803-39.28907,3.52057l-3.82159.66747,1.66213-3.50749c1.12554-2.35577,1.67522-4.38436,1.64904-6.0334v-.8507l.05235-.05235c.14396-2.77458.60203-12.60339.56277-19.60527l-.05235-1.97623c-.06544-2.90545-1.03392-5.61459-2.98398-8.29756l-.4188-.56277.13088-3.53366.58894-.56277c3.90011-3.72998,5.77165-7.617,5.7193-11.87048l-.01309-2.04167h.11779c.18323-3.71689.53659-12.18459.49733-18.46665l-.05235-1.97623c0-.28793-.06544-.56277-.11779-.82452-.05235-.27484-.1047-.54968-.14396-1.1648.39263-8.75563.54968-15.69207.45807-20.44288.05235-4.18804.17014-14.04303.07853-20.91404l-.06544-1.97623c-.49733-23.03423-55.557-28.68809-84.54611-28.16459-29.17233.35337-84.49376,6.97571-85.03035,29.53879l-.07853,1.00775c.05235,5.40519.03926,18.21798.02618,22.13119l-.07853,1.41346c.05235,4.84242.05235,14.73667.03926,19.81468l-.19631,2.30342c.02618,2.4343.03926,6.16427.03926,9.89425v.90305s-.68056.60203-.68056.60203c-4.00482,3.53366-5.99414,7.27672-6.08558,11.45168l-.07869,1.03392c.06544,6.29515.06544,22.94262.06544,22.94262.02618,2.84002.9554,5.49681,2.81384,8.14051l.37954.52351v6.00722s-.47115.56277-.47115.56277c-2.3296,2.81384-3.50749,5.7193-3.57292,8.8865l-.07853,1.03392c.05235,5.31358.06544,18.00858.02618,22.1181l-.07853,1.51817c.06544,6.59617.06544,22.51073.06544,22.52382v2.23799s-2.2249-.23558-2.2249-.23558c-9.78955-1.04701-20.41671-1.79301-29.99685-1.46581-7.64318.09161-15.6659.57586-24.5524,1.50508l-.60203.06544-.53659-.28793c-15.79677-8.12742-52.52067,1.38729-81.86314,14.48801-19.69689,8.79489-37.3521,19.33043-49.71992,29.66966h-.01309c-14.51418,12.11915-20.14187,22.58925-16.69982,31.14857l.26175.69364c2.44739,5.54916,9.22678,21.30667,9.22678,21.30667Z"/>
    <path class="cls-1" d="M1001.79358,635.07076c3.01016,6.72704,10.66642,10.12983,22.78557,10.12983,19.76233,0,47.58663-9.26604,67.21808-18.00858l1.04701-.52351.96848.64129c15.73133,10.45702,48.09705,14.17391,73.13369,14.17391l3.07559-.01309c21.46372-.26175,41.6972-3.19338,56.97046-8.21903,1.51817-.49733,2.84002-1.03392,4.16187-1.55743l1.54434-.61512.58894.13088c18.2049,3.84776,37.15579,4.42362,46.84064,4.42362l3.07576-.01309c17.41948-.22249,34.65589-2.29034,48.55495-5.81091l.73291-.18323.66747.34028c.2094.1047.39263.22249.79835.47115l1.11245.54968v5.10418c.11779,9.51471,9.48853,16.94848,27.86357,22.07884,14.64506,4.09643,33.92314,6.3475,54.26132,6.3475l3.45514-.02618c41.64485-.53659,83.68248-11.43859,83.45983-31.24018l-.01309-2.04167h.11779c.19631-3.78233.56277-12.52486.51042-18.8331l-.03926-1.60978c-.11779-5.66694-3.66454-10.67951-10.52246-14.89373l-1.62287-.99466.90305-1.67522c1.25641-2.31651,1.84536-4.60685,1.81918-7.1982.05235-.82452.65438-12.32855.60203-20.32509l-.06544-1.97623c0-.44498-.07853-.8507-.14396-1.28259l-.1047-.91613c.13088-2.99707.58894-13.29703.45807-20.2073.05235-4.20113.17014-14.06921.06544-20.94021l-.06544-1.97623c-.19631-9.38383-9.46236-16.72599-27.52329-21.83017-15.16857-4.29274-35.46748-6.46529-57.00973-6.32133-13.48026.15705-26.69877,1.34803-39.28907,3.52057l-3.82159.66747,1.66213-3.50749c1.12554-2.35577,1.67522-4.38436,1.64904-6.0334v-.8507l.05235-.05235c.14396-2.77458.60203-12.60339.56277-19.60527l-.05235-1.97623c-.06544-2.90545-1.03392-5.61459-2.98398-8.29756l-.4188-.56277.13088-3.53366.58894-.56277c3.90011-3.72998,5.77165-7.617,5.7193-11.87048l-.01309-2.04167h.11779c.18323-3.71689.53659-12.18459.49733-18.46665l-.05235-1.97623c0-.28793-.06544-.56277-.11779-.82452-.05235-.27484-.1047-.54968-.14396-1.1648.39263-8.75563.54968-15.69207.45807-20.44288.05235-4.18804.17014-14.04303.07853-20.91404l-.06544-1.97623c-.49733-23.03423-55.557-28.68809-84.54611-28.16459-29.17233.35337-84.49376,6.97571-85.03035,29.53879l-.07853,1.00775c.05235,5.40519.03926,18.21798.02618,22.13119l-.07853,1.41346c.05235,4.84242.05235,14.73667.03926,19.81468l-.19631,2.30342c.02618,2.4343.03926,6.16427.03926,9.89425v.90305s-.68056.60203-.68056.60203c-4.00482,3.53366-5.99414,7.27672-6.08558,11.45168l-.07869,1.03392c.06544,6.29515.06544,22.94262.06544,22.94262.02618,2.84002.9554,5.49681,2.81384,8.14051l.37954.52351v6.00722s-.47115.56277-.47115.56277c-2.3296,2.81384-3.50749,5.7193-3.57292,8.8865l-.07853,1.03392c.05235,5.31358.06544,18.00858.02618,22.1181l-.07853,1.51817c.06544,6.59617.06544,22.51073.06544,22.52382v2.23799s-2.2249-.23558-2.2249-.23558c-9.78955-1.04701-20.41671-1.79301-29.99685-1.46581-7.64318.09161-15.6659.57586-24.5524,1.50508l-.60203.06544-.53659-.28793c-15.79677-8.12742-52.52067,1.38729-81.86314,14.48801-19.69689,8.79489-37.3521,19.33043-49.71992,29.66966h-.01309c-14.51418,12.11915-20.14187,22.58925-16.69982,31.14857l.26175.69364c2.44739,5.54916,9.22678,21.30667,9.22678,21.30667ZM1238.3918,564.54151l.27484.73291-.30102.73291c-2.34269,5.73238-28.23002,16.25484-71.48465,16.80452-.44498,0-.88996,0-1.33494,0-2.40812,0-4.72464-.06544-7.02806-.13088l-4.88169-.14396,1.30876-2.77458c2.48665-5.2874,2.81384-10.07748.96848-14.23934l-.56277-1.25641.06544-.06544c-.81143-2.17255-2.68296-7.10658-4.6592-12.01445l-1.04701-2.57826,2.77458-.18323c4.9733-.32719,9.54088-.51042,13.9645-.56277l3.53366-.02618c43.5949,0,66.39356,10.39158,68.40906,15.70516ZM1163.64833,595.21892l3.3897-.02618c21.25432-.26175,50.29577-3.57292,68.08186-12.05371l3.03633-1.43964-.24867,5.09109-.07853.49733c-1.75374,6.41294-27.03905,18.13946-71.17055,18.70223-1.07319.01309-2.14637.01309-3.21956.01309-9.0959,0-17.94314-.45807-26.31923-1.3742l-4.82934-.53659,3.79541-3.03633c2.35577-1.88462,4.61993-3.87394,6.94953-6.08575l.65438-.61512.88996.06544c7.28981.54968,13.34939.79835,19.06868.79835ZM1210.69837,536.03664l.15705-.62821c.01309-.26175.01309-1.54434.01309-3.36352v-3.16721s2.86619,1.34803,2.86619,1.34803c3.58601,1.67522,7.85258,3.21956,12.695,4.58067,11.5302,3.21956,26.14909,5.30049,42.3254,6.00722,4.54141.22249,8.86033.34028,12.7997.34028l2.7484-.01309c13.78128-.17014,27.14375-1.43964,39.73405-3.75615l2.38195-.43189-.1047,7.34216.02618,2.94472-1.59669.35337c-12.1715,2.68296-25.90042,4.14878-40.80724,4.34509-1.20406.01309-2.39504.01309-3.58601.01309-16.22866,0-31.04386-1.4789-44.41943-4.51523-5.06491-2.40812-11.30771-4.4498-18.55826-6.08575l-.48424-.18323c-4.98639-2.61753-5.66694-4.31892-5.88943-4.88169l-.30102-.24867ZM1214.65083,458.61021c17.61595,8.29756,46.59197,11.24228,67.8332,11.24228l2.7484-.01309c13.27086-.17014,26.2407-1.3742,38.63469-3.57292,11.43859-1.70139,21.3721-4.17495,29.51261-7.35525l2.84002-1.11245-.19631,4.13569c-1.75374,6.39985-27.05214,18.12637-71.15746,18.70223-1.50508.01309-2.97089.02618-4.43671.02618-41.42236,0-66.18416-9.86807-68.52684-15.67898l-.28793-.24867.15705-.62821c.01309-.26175.01309-1.70139.01309-3.67762v-3.16721s2.86619,1.34803,2.86619,1.34803ZM1338.77394,539.53104v-3.16721s2.86619,1.34803,2.86619,1.34803c3.7038,1.74066,8.04889,3.32426,12.91749,4.71155,14.86755,4.22731,34.13255,6.54382,54.27441,6.54382l3.3897-.02618c21.41137-.26175,41.5925-3.02324,56.8265-7.76097,4.38436-1.3742,8.32373-2.90545,11.71343-4.5545l2.93163-1.43964-.07853,6.43912-.11779.62821c-1.89771,5.61459-25.57323,16.88305-71.65479,17.48508-1.33494.01309-2.6437.02618-3.93938.02618-43.72578,0-66.82545-10.24762-69.01109-15.67898l-.28793-.24867.15705-.62821c.01309-.26175.01309-1.70139.01309-3.67762ZM1483.30067,558.28562l-.26175,5.31358-.07853.64129c-1.77992,6.39985-27.07831,18.12637-71.17055,18.70223-.96848,0-1.91079.01309-2.8531.01309-44.45869,0-67.91173-10.27379-70.08427-15.6659l-.30102-.26175.15705-.62821c.01309-.26175.01309-1.54434.01309-3.35043v-3.16721s2.86619,1.34803,2.86619,1.34803c3.58601,1.67522,7.85258,3.21956,12.695,4.58067,11.01979,3.06251,24.68328,5.11726,39.53774,5.9287,5.02565.28793,10.0513.43189,14.95916.43189l5.27432-.11779c3.4944-.06544,7.17202-.19631,11.03287-.44498,2.19872-.14396,4.34509-.3141,6.47838-.49733,2.4343-.22249,4.90786-.48424,7.38142-.77217,2.539-.28793,4.99948-.62821,7.44686-1.00775,2.56518-.39263,5.11726-.83761,7.63009-1.32185,1.57052-.30102,3.10177-.61512,4.60685-.9554,3.18029-.69364,6.33441-1.51817,9.39692-2.42121l2.76149-.87687c1.20406-.39263,2.36886-.79835,3.50749-1.21715.86378-.3141,1.67522-.65438,2.48665-.98157,1.08627-.44498,2.13328-.90305,3.15412-1.38729l3.36352-1.88462ZM1483.10435,580.92722l-.30102,5.43137c-1.75374,6.41294-27.03905,18.13946-71.17055,18.70223-1.03392,0-2.04167.01309-3.03633.01309-44.38016,0-67.74159-10.27379-69.91413-15.6659l-.36645-.19631.23558-.70673c.01309-.2094.01309-1.09936.01309-2.31651v-3.16721s2.86619,1.34803,2.86619,1.34803c3.66454,1.71448,7.97037,3.27191,12.7997,4.63302,14.64506,4.09643,33.92314,6.3475,54.26132,6.3475l3.45514-.02618c21.46372-.26175,41.6972-3.19338,56.97046-8.21903,3.92629-1.29568,7.45995-2.76149,11.1114-4.61993l3.07559-1.55743ZM1358.22216,484.53681l1.07319.03926-.06544.45807c-1.77992,6.39985-27.07831,18.12637-71.18363,18.70223h-2.13328c-45.03454,0-68.65772-10.29997-70.80409-15.6659l-.26175-.68056.18323-5.06491,2.73532,1.11245c3.16721,1.28259,6.29515,2.35577,9.5278,3.27191,14.64506,4.08334,33.88388,6.33441,54.1828,6.33441l6.96262-.1047c21.25432-.26175,50.29577-3.57292,68.08186-12.05371l3.03633-1.43964-.23558,4.8686-1.12554.1047.05235.1047q-.01309,0-.02618.01309ZM1218.40699,440.51001l.15705-.64129c.01309-.2094.01309-1.11245.01309-2.3296v-3.16721s2.87928,1.34803,2.87928,1.34803c21.58151,10.19527,57.06208,10.98052,67.42748,10.98052l3.07559-.01309c27.60182-.36645,53.07035-5.13035,68.10804-12.74735l3.12794-1.5836-.36645,5.37902c-1.75374,6.39985-27.05214,18.12637-71.18363,18.68914-1.23024.01309-2.46047.01309-3.66454.01309-41.95895,0-66.96942-9.89425-69.28593-15.6659l-.28793-.26175ZM1363.31325,410.00274l-.24867,5.078-.07853.53659c-1.77992,6.39985-27.0914,18.11328-71.18363,18.68914-1.21715.01309-2.40812.01309-3.58601.01309-41.98513,0-67.03485-9.89425-69.36445-15.6659l-.28793-.24867.15705-.62821c.01309-.26175.01309-1.55743.01309-3.3897v-3.16721s2.86619,1.34803,2.86619,1.34803c9.10899,4.27966,22.23589,7.48613,38.11119,9.27913,4.05717.45807,8.08816.82452,12.0668,1.07319l3.88703.24867c3.69071.17014,7.23746.26175,10.67951.28793l1.15171.03926c.43189.02618.86378.03926,1.29568.03926l3.3897-.02618c21.2674-.26175,50.32195-3.57292,68.09495-12.0668l3.03633-1.43964ZM1291.86787,411.1021c-1.59669.02618-3.15412.03926-4.71155.03926-41.23913,0-65.90932-9.86807-68.252-15.69207l-.28793-.24867.15705-.62821c.01309-.26175.02618-1.70139.02618-3.67762l.02618-3.14103,2.84002,1.33494c3.75615,1.76683,8.10124,3.35043,12.91749,4.71155,14.86755,4.21422,34.13255,6.53073,54.26132,6.53073l3.3897-.02618c21.54224-.27484,50.85854-3.65145,68.53993-12.2762l2.93163-1.43964-.07853,6.41294-.11779.61512c-1.89771,5.61459-25.56015,16.88305-71.6417,17.48508ZM1363.86293,370.38648l-.30102.73291c-2.34269,5.74547-28.23002,16.25484-71.48465,16.80452-1.24333.01309-2.48665.02618-3.71689.02618-37.23431,0-65.21567-8.82106-69.18123-15.45649l-.61512-1.03392.61512-1.02084c3.88703-6.56999,31.24018-15.94074,72.46622-16.46424l3.53366-.02618c43.5949,0,66.39356,10.39158,68.40906,15.70516l.27484.73291ZM1483.83726,519.02272l-.30102.73291c-2.35577,5.74547-28.26929,16.25484-71.48465,16.80452-.79835,0-1.5836,0-2.38195,0-39.52465,0-66.69458-9.03047-70.50308-15.45649l-.61512-1.02084.61512-1.02084c3.90011-6.56999,31.26635-15.94074,72.46622-16.45115l3.53366-.02618c43.55564,0,66.36738,10.39158,68.38288,15.69207l.28793.746ZM1341.15589,634.16771l12.60339,2.78767c13.57187,2.99707,31.12239,4.71155,48.1494,4.71155l3.07559-.01309c3.42896-.05235,6.87101-.18323,10.41776-.37954.37954,0,.75908.02618,1.13862.03926l.94231.02618,3.3897-.02618c21.25432-.26175,50.30886-3.57292,68.08186-12.0668l3.03633-1.43964-.24867,4.92095-.07853.68056c-1.77992,6.39985-27.07831,18.12637-71.17055,18.70223h-.01309c-.78526,0-1.57052,0-2.34269,0-33.92314,0-56.19813-5.86326-65.8177-11.45168l-11.16375-6.49147ZM1331.58883,613.37147l.15705-.62821c.01309-.26175.02618-1.70139.02618-3.69071l.02618-3.15412,2.8531,1.34803c3.67762,1.74066,8.02272,3.32426,12.90441,4.71155,14.85446,4.22731,34.11946,6.54382,54.26132,6.54382l3.3897-.02618c14.10847-.17014,29.46026-1.67522,42.16851-4.1226,10.01188-1.70139,18.75442-3.99173,25.99188-6.80557l2.84002-1.11245-.09161,3.04942-.1047,1.09936c-1.76683,6.39985-27.05214,18.11328-71.18363,18.68914-1.23024.01309-2.44739.01309-3.63836.01309-43.93518,0-67.12647-10.24762-69.3121-15.6659l-.28793-.24867ZM1326.87728,516.60151c-.27484,1.04701-.43189,2.10711-.44498,3.14103l-.07853,1.00775.03926,3.5991-1.62287.32719c-12.1715,2.49974-25.90042,3.86085-40.79415,4.05717-1.36111.01309-2.69605.02618-4.00482.02618-43.67327,0-66.74693-10.24762-68.93256-15.67898l-.28793-.24867.15705-.62821c.01309-.26175.01309-1.70139.01309-3.67762v-3.16721s2.86619,1.34803,2.86619,1.34803c17.64213,8.29756,46.63123,11.25536,67.88555,11.25536l2.68296-.01309c13.82054-.18323,27.71961-1.51817,40.21829-3.84776l3.12794-.58894-.82452,3.08868ZM1324.56077,572.13234c-11.71343,2.34269-24.46079,3.62527-37.92796,3.8085-.83761,0-1.67522,0-2.51283,0-11.08522,0-21.42445-.66747-31.54119-2.02858l-1.77992-.23558.03926-1.79301c.05235-2.39504.06544-4.69846.02618-6.74013l-.03926-2.31651,2.30342.28793c10.54863,1.32185,21.60768,2.04167,31.13548,2.04167l2.7484-.01309c12.55104-.15705,24.99738-1.2695,36.98565-3.285l2.68296-.23558-.37954,2.72223c-.03926.24867-.07853.49733-.07853.746l-.03926,6.71396-1.62287.32719ZM1319.3519,590.74295c.01309,1.02084.02618,2.27725.02618,3.61219v1.64904s-1.62287.32719-1.62287.32719c-11.66108,2.35577-24.42152,3.63836-37.91487,3.82159-1.07319.01309-2.13328.01309-3.19338.01309-6.79248,0-13.48026-.28793-20.80934-.90305l-1.89771-.15705.05235-1.89771c.06544-2.30342.1047-4.60685.1047-6.75322v-2.18563s2.18563.18323,2.18563.18323c7.80023.64129,14.33096.92922,20.54758.92922l3.3897-.02618c12.02753-.15705,25.18061-1.32185,37.038-3.29808l2.57826-.4188-.24867,2.60444c-.02618.23558-.06544.45807-.15705.99466l-.07853,1.50508ZM1249.03205,621.23713l1.81918-2.72223c1.13862-1.70139,1.91079-3.4944,2.30342-5.32667l.36645-1.72757,1.76683.14396c7.87875.65438,14.64506.9554,21.25432.9554l6.88409-.11779c10.96744-.14396,22.91644-1.09936,33.66139-2.70914l2.31651-.34028v3.87394c.01309,1.36111.40572,2.66988.82452,3.99173l.70673,2.17255-2.25107.4188c-11.30771,2.10711-22.9688,3.21956-35.63762,3.3897h-.01309c-.54968,0-1.09936,0-1.63595,0-10.22144,0-19.9979-.54968-29.10689-1.60978l-3.25882-.39263ZM1106.38994,620.1116l3.96555-2.18563c2.10711-1.17789,4.18804-2.35577,6.21663-3.57292l.68056-.40572.75908.17014c13.46717,2.80075,29.11998,4.27966,45.27012,4.27966l6.96262-.1047c21.25432-.26175,50.29577-3.57292,68.08186-12.05371l3.03633-1.43964-.24867,4.8686-.07853.71982c-1.77992,6.39985-27.07831,18.12637-71.17055,18.70223-1.29568.01309-2.56518.02618-3.82159.02618-29.01528,0-47.03695-4.67228-55.37377-7.53848l-4.27966-1.46581ZM1010.22201,623.30498l3.15412.1047c.39263.02618.75908.06544,1.11245.1047.30102.02618.60203.06544.94231.06544,3.52057,0,7.45995-.27484,11.70034-.83761,16.25484-2.13328,35.9779-8.11433,55.51774-16.8307,19.43513-8.69019,44.81205-23.24364,57.75572-38.05884l2.23799-2.55209,1.5836,4.29274c.30102.81143.34028.91613.3141,1.00775.91613,6.58308-17.6683,27.36624-57.95204,45.33556-28.58339,12.76044-49.99476,16.84378-62.19243,16.84378-5.87618,0-9.60632-.94231-10.99361-2.31651l-.32719-.19631-.13088-.53659c-.09161-.22249-.66747-1.60978-1.4789-3.52057l-1.24333-2.90545ZM1003.59967,608.5683l.15705-1.19097c.98157-7.57774,22.37985-27.01287,60.0068-43.79122,33.38655-14.90681,54.10427-16.51659,61.45952-16.51659,5.61459,0,9.25296.81143,10.81038,2.40812l.54968.56277.02618.79835c.11779,6.19045-19.50057,26.12291-58.99905,43.75196-26.7773,11.94901-49.6283,16.64747-62.66358,16.64747-5.05183,0-8.62475-.70673-10.37849-1.96314l-.96848-.70673Z"/>
    <path class="cls-3" d="M1151.42043,661.24301l-126.4877-57.82379c-4.103-1.97434-24.78661-10.13255-33.47779-7.34648-16.27608,5.21751-25.50693,22.40521-20.5874,38.77382.0527.17535.10544.34972.1582.52305,2.33382,7.66857,7.21006,14.29456,13.87985,18.74063l167.83314,111.87713,240.11284,44.46017s190.49678-24.40475,207.0936-28.59988c16.59683-4.19513,165.47952,10.36257,165.47952,10.36257l61.67265-122.2396-240.99863-94.83922c-10.83484-7.56249-23.66258-11.75434-36.87231-12.04907l-122.71379-2.73701c-9.15968-.2043-18.21962,1.93559-26.31992,6.21657l-13.48327,7.12586-72.36165,37.22642-133.05072,20.73966c-6.72377,1.04809-12.68359,4.96846-16.19591,10.79694-.50065.8308-1.01467,1.70005-1.53439,2.60001-8.31011,14.39-9.68488,35.72591,3.20233,46.21637l1.72763,1.60181c8.5856,7.96037,19.82261,12.69007,31.53027,12.58665.70199-.0062,1.34564-.02762,1.91547-.06414l267.18766-17.12372"/>
  </g>
  <g>
    <path class="cls-4" d="M302.68718,372.92355l56.52088,19.29031,5.34606,31.84188,86.02607,28.40857-.34082,10.36302c-.93719,28.44523,9.18455,60.85493,23.80255,69.6927,6.32204,3.81185,56.56755,25.32482,100.63256,43.61932l7.42655,3.08631,1.00135,7.97496c.09357.73321,2.29214,18.12228,3.28944,33.33047,1.85669,27.88083,1.22046,39.57301-3.56311,65.87914-.95403,5.2365-5.89831,16.69167-10.02625,25.66499l5.77661,12.046c7.98861,2.23459,22.09932,6.09589,30.36928,7.83941,12.9964,2.76745,26.08552,5.1376,39.17465,7.50775l13.99498,2.56454c3.1332.5806,5.66193-.00171,8.48608-1.91403,4.14819-2.81946,20.8454-15.07519,28.64815-21.15318l1.45705-4.27906c-.13258-11.28209-7.66569-51.50391-12.26191-76.00088-3.06116-16.36769-5.80815-31.01318-7.02903-39.43489-1.20873-8.28871-1.22238-17.44364-.06437-26.42805,1.40696-11.1005,8.97525-20.64675,20.76334-26.21064,5.12993-2.42813,13.29438-5.58009,19.07312-7.73028l1.01605-3.57057-18.40832-73.90526c-46.70414-15.87575-308.68585-104.96107-393.70439-133.64161l-7.40651,45.15907ZM503.30158,467.53379l71.57709,23.47388-6.44717,29.3649c-16.58531-6.30563-41.18629-16.11959-57.02219-24.5251-8.04701-4.28077-8.30383-21.23051-8.10774-28.31368Z"/>
    <g>
      <g>
        <path class="cls-8" d="M909.34051,493.86189l-21.16953-16.93867-5.16984,20.43354,11.23858,7.35089s-10.17575,42.93293,12.67354,66.86081l-1.37355,12.09451,7.93679,2.84156,7.61169-13.60404c-16.32682-23.0524-17.9249-50.3165-11.74768-79.03861Z"/>
        <rect class="cls-8" x="752.22781" y="629.44129" width="13.3392" height="81.53684" transform="translate(-148.27327 1119.81809) rotate(-67.81264)"/>
        <path class="cls-2" d="M813.83708,466.59713l52.45302,21.39218,7.45305-26.00233-45.02844-18.36418c3.15196-16.67015-5.74134-33.8539-22.04461-40.50294-18.60639-7.58834-39.91706,1.37537-47.5054,19.98177-7.58834,18.60639,1.37537,39.91706,19.98177,47.5054,11.90391,4.85483,24.87457,2.87635,34.69061-4.0099Z"/>
        <path class="cls-2" d="M871.97137,504.79669l-.29878-.55989-75.4727-30.78042-.56785.15447c-.48661.12821-48.92689,13.53685-70.99356,67.64371-23.62692,57.93253.285,97.93119.52548,98.33366l.30565.48844,79.04694,32.23812.60252-.18488c.45797-.13989,45.85385-14.73075,66.09289-64.35628,23.86057-58.50543.99328-102.54004.75942-102.97694Z"/>
      </g>
      <g>
        <path class="cls-7" d="M909.19807,493.85895l-21.16953-16.93867-5.16984,20.43354,11.23858,7.35089s-10.17575,42.93293,12.67354,66.86081l-1.37355,12.09451,7.93679,2.84156,7.61169-13.60404c-16.32682-23.0524-17.9249-50.3165-11.74768-79.03861Z"/>
        <rect class="cls-7" x="752.08538" y="629.43836" width="13.3392" height="81.53684" transform="translate(-148.35921 1119.68438) rotate(-67.81264)"/>
        <path class="cls-7" d="M813.69465,466.5942l52.45302,21.39218,7.45305-26.00233-45.02844-18.36418c3.15196-16.67015-5.74134-33.8539-22.04461-40.50294-18.60639-7.58834-39.91706,1.37537-47.5054,19.98177-7.58834,18.60639,1.37537,39.91706,19.98177,47.5054,11.90391,4.85483,24.87457,2.87635,34.69061-4.0099ZM815.04515,445.94679c-5.01043,12.28544-19.08013,18.20345-31.36557,13.19302-12.28544-5.01043-18.20345-19.08013-13.19302-31.36557,5.01043-12.28544,19.08013-18.20345,31.36557-13.19302,12.28544,5.01043,18.20345,19.08013,13.19302,31.36557Z"/>
        <path class="cls-7" d="M871.82894,504.79376l-.29878-.55989-75.4727-30.78042-.56785.15447c-.48661.12821-48.92689,13.53685-70.99356,67.64371-23.62692,57.93253.285,97.93119.52548,98.33366l.30565.48844,79.04694,32.23812.60252-.18488c.45797-.13989,45.85385-14.73075,66.09289-64.35628,23.86057-58.50543.99328-102.54004.75942-102.97694ZM838.77246,565.94108l26.68741,10.88406c-1.49191,6.85295-3.60772,13.65191-6.29207,20.23385-2.68694,6.58831-5.92944,12.92776-9.65565,18.86949l-27.75045-11.31761c4.37479-7.94162,8.35984-16.30204,11.85936-24.88275,1.81726-4.45586,3.50603-8.97897,5.1514-13.78705ZM759.20781,579.0992l-27.86503-11.36434c1.49191-6.85295,3.60772-13.65191,6.29466-20.24022,2.68435-6.58194,5.92685-12.9214,9.65306-18.86312l26.73197,10.90224c-2.19163,4.60015-4.14457,9.01552-5.95664,13.45864-3.49692,8.57435-6.47304,17.34624-8.85802,26.1068ZM843.33853,551.11349c4.98297-18.72607,5.63456-32.16556,5.08385-40.8093l11.28605,4.60285c6.49377,12.93102,9.33172,29.21913,8.0673,46.1728l-24.4372-9.96635ZM802.09883,656.16413l-14.42743-5.88401c5.94556-5.74933,15.75239-16.36075,26.0423-32.26171l26.44234,10.78411c-10.95273,13.00244-24.3723,22.66016-38.05721,27.36161ZM801.03996,612.84962c-10.6876,15.61997-21.04402,26.42301-26.82526,31.94239l-8.47886-3.45798c-.37195-8.08083-.40095-23.20108,2.68405-41.78802l32.62007,13.30361ZM755.67932,594.34996c-3.61057,18.52851-3.86243,33.08133-3.53703,41.44015l-15.04807-6.13713c-6.49754-12.93998-9.3323-29.22679-8.0673-46.1728l26.6524,10.86979ZM809.41579,599.57578l-37.83024-15.4285c2.25958-9.19034,5.1052-18.01546,8.46972-26.26516,1.83802-4.50678,3.8413-8.90905,6.09668-13.40153l40.51967,16.52534c-1.55341,4.80104-3.20977,9.34479-5.04,13.83248-3.36971,8.26244-7.47571,16.57353-12.21583,24.73737ZM793.748,530.88873c10.56432-17.0289,21.08411-27.06743,26.96212-31.88657l13.97867,5.70099c.56431,7.57276.64294,22.05249-3.84258,41.31553l-37.09821-15.12995ZM806.17447,493.07401c-6.45697,5.6744-15.42201,15.6417-25.0461,32.66799l-24.48176-9.98452c10.94695-12.99737,24.36334-22.65639,38.05721-27.36161l11.47065,4.67814Z"/>
      </g>
    </g>
    <path class="cls-3" d="M761.49163,661.22577l126.4877-57.82379c4.103-1.97434,24.78661-10.13255,33.47779-7.34648,16.27608,5.21751,25.50693,22.40521,20.5874,38.77382-.0527.17535-.10544.34972-.1582.52305-2.33382,7.66857-7.21006,14.29456-13.87985,18.74063l-167.83314,111.87713-240.11284,44.46017s-190.49678-24.40475-207.0936-28.59988c-16.59683-4.19513-165.47952,10.36257-165.47952,10.36257l-61.67265-122.2396,240.99863-94.83922c10.83484-7.56249,23.66258-11.75434,36.87231-12.04907l122.71379-2.73701c9.15968-.2043,18.21962,1.93559,26.31992,6.21657l13.48327,7.12586,72.36165,37.22642,133.05072,20.73966c6.72377,1.04809,12.68359,4.96846,16.19591,10.79694.50065.8308,1.01467,1.70005,1.53439,2.60001,8.31011,14.39,9.68488,35.72591-3.20233,46.21637l-1.72763,1.60181c-8.5856,7.96037-19.82261,12.69007-31.53027,12.58665-.70199-.0062-1.34564-.02762-1.91547-.06414l-267.18766-17.12372"/>
  </g>
</svg>