<svg width="24" height="24" viewBox="0 0 24 24" fill="none" xmlns="http://www.w3.org/2000/svg">
<mask id="mask0_511_367" style="mask-type:alpha" maskUnits="userSpaceOnUse" x="0" y="0" width="24" height="24">
<rect width="24" height="24" fill="#D9D9D9"/>
</mask>
<g mask="url(#mask0_511_367)">
<path d="M0 19.1341V16.1828H18.5189V19.1341H0ZM0 13.5882V10.6044H18.5189V13.5882H0ZM0 8.00982V5.05847H18.5189V8.00982H0ZM22.5405 19.1341C22.1081 19.1341 21.7513 18.988 21.4703 18.6957C21.1892 18.4042 21.0486 18.0531 21.0486 17.6423C21.0486 17.2314 21.1892 16.8855 21.4703 16.6044C21.7513 16.3233 22.1081 16.1828 22.5405 16.1828C22.9514 16.1828 23.2973 16.3233 23.5784 16.6044C23.8595 16.8855 24 17.2314 24 17.6423C24 18.0531 23.8595 18.4042 23.5784 18.6957C23.2973 18.988 22.9514 19.1341 22.5405 19.1341ZM22.5405 13.5882C22.1081 13.5882 21.7513 13.442 21.4703 13.1497C21.1892 12.8583 21.0486 12.5071 21.0486 12.0963C21.0486 11.6855 21.1892 11.3344 21.4703 11.0429C21.7513 10.7506 22.1081 10.6044 22.5405 10.6044C22.9514 10.6044 23.2973 10.7506 23.5784 11.0429C23.8595 11.3344 24 11.6855 24 12.0963C24 12.5071 23.8595 12.8583 23.5784 13.1497C23.2973 13.442 22.9514 13.5882 22.5405 13.5882ZM22.5405 8.00982C22.1081 8.00982 21.7513 7.86928 21.4703 7.5882C21.1892 7.30712 21.0486 6.96117 21.0486 6.55036C21.0486 6.13955 21.1892 5.78799 21.4703 5.49566C21.7513 5.2042 22.1081 5.05847 22.5405 5.05847C22.9514 5.05847 23.2973 5.2042 23.5784 5.49566C23.8595 5.78799 24 6.13955 24 6.55036C24 6.96117 23.8595 7.30712 23.5784 7.5882C23.2973 7.86928 22.9514 8.00982 22.5405 8.00982Z" fill="black"/>
</g>
</svg>
