<svg width="24" height="24" viewBox="0 0 24 24" fill="none" xmlns="http://www.w3.org/2000/svg">
<mask id="mask0_511_367" style="mask-type:alpha" maskUnits="userSpaceOnUse" x="0" y="0" width="24" height="24">
<rect width="24" height="24" fill="#D9D9D9"/>
</mask>
<g mask="url(#mask0_511_367)">
<path d="M1.50714 18.1539V15.5732H17.7002V18.1539H1.50714ZM1.50714 13.3045V10.6955H17.7002V13.3045H1.50714ZM1.50714 8.42675V5.84607H17.7002V8.42675H1.50714ZM21.2167 18.1539C20.8386 18.1539 20.5267 18.0261 20.2809 17.7705C20.0351 17.5157 19.9122 17.2086 19.9122 16.8494C19.9122 16.4902 20.0351 16.1877 20.2809 15.9419C20.5267 15.6961 20.8386 15.5732 21.2167 15.5732C21.5759 15.5732 21.8784 15.6961 22.1242 15.9419C22.37 16.1877 22.4929 16.4902 22.4929 16.8494C22.4929 17.2086 22.37 17.5157 22.1242 17.7705C21.8784 18.0261 21.5759 18.1539 21.2167 18.1539ZM21.2167 13.3045C20.8386 13.3045 20.5267 13.1767 20.2809 12.9211C20.0351 12.6662 19.9122 12.3592 19.9122 12C19.9122 11.6408 20.0351 11.3337 20.2809 11.0789C20.5267 10.8233 20.8386 10.6955 21.2167 10.6955C21.5759 10.6955 21.8784 10.8233 22.1242 11.0789C22.37 11.3337 22.4929 11.6408 22.4929 12C22.4929 12.3592 22.37 12.6662 22.1242 12.9211C21.8784 13.1767 21.5759 13.3045 21.2167 13.3045ZM21.2167 8.42675C20.8386 8.42675 20.5267 8.30386 20.2809 8.05808C20.0351 7.8123 19.9122 7.5098 19.9122 7.15059C19.9122 6.79137 20.0351 6.48396 20.2809 6.22835C20.5267 5.9735 20.8386 5.84607 21.2167 5.84607C21.5759 5.84607 21.8784 5.9735 22.1242 6.22835C22.37 6.48396 22.4929 6.79137 22.4929 7.15059C22.4929 7.5098 22.37 7.8123 22.1242 8.05808C21.8784 8.30386 21.5759 8.42675 21.2167 8.42675Z" fill="black"/>
</g>
</svg>
