<svg width="868" height="400" viewBox="0 0 868 400" fill="none" xmlns="http://www.w3.org/2000/svg">
<rect x="0.25" y="1.00598" width="867.5" height="398.5" rx="19.75" stroke="#B4B4B4" stroke-width="0.5"/>
<path d="M417.2 196.056H431.8C432.9 196.056 433.8 195.156 433.8 194.056C433.8 192.956 432.9 192.056 431.8 192.056H417.2C416.1 192.056 415.2 192.956 415.2 194.056C415.2 195.156 416.1 196.056 417.2 196.056Z" fill="black"/>
<path d="M434 1.02161V399.49" stroke="#B4B4B4"/>
<path d="M297.121 212.841L251.864 164.066C251.381 163.549 250.631 163.377 249.967 163.635C249.303 163.894 248.872 164.532 248.872 165.239V192.893H75.6019C74.6536 192.893 73.8778 193.669 73.8778 194.617V232.547C73.8778 233.495 74.6536 234.271 75.6019 234.271H248.872V244.616V251.081H249.519C250.26 251.081 250.924 251.391 251.381 251.952C251.838 252.512 252.01 253.21 251.881 253.926L251.209 257.762C251.734 257.607 252.286 257.529 252.872 257.529C254.364 257.529 255.355 258.089 255.984 258.667L269.277 244.616L297.104 215.194C297.733 214.539 297.733 213.513 297.121 212.841Z" fill="black"/>
<path d="M262.665 113.585C272.663 113.585 280.768 105.48 280.768 95.4824C280.768 85.4845 272.663 77.3795 262.665 77.3795C252.667 77.3795 244.562 85.4845 244.562 95.4824C244.562 105.48 252.667 113.585 262.665 113.585Z" fill="white"/>
<path d="M157.496 149.791H80.7743C79.826 149.791 79.0502 149.015 79.0502 148.067C79.0502 147.119 79.826 146.343 80.7743 146.343H157.496C158.444 146.343 159.22 147.119 159.22 148.067C159.22 149.015 158.444 149.791 157.496 149.791Z" fill="white"/>
<path d="M142.841 165.308H114.394C113.446 165.308 112.67 164.532 112.67 163.584C112.67 162.636 113.446 161.86 114.394 161.86H142.841C143.79 161.86 144.565 162.636 144.565 163.584C144.565 164.532 143.79 165.308 142.841 165.308Z" fill="white"/>
<path d="M166.116 88.5861H118.704C117.756 88.5861 116.98 87.8103 116.98 86.862C116.98 85.9138 117.756 85.1379 118.704 85.1379H166.116C167.065 85.1379 167.84 85.9138 167.84 86.862C167.84 87.8103 167.065 88.5861 166.116 88.5861Z" fill="white"/>
<path d="M95.0323 208.341C95.0323 209.168 94.9202 209.918 94.6875 210.599C94.4547 211.28 94.1789 211.909 93.8427 212.487C93.5151 213.065 93.153 213.565 92.7565 213.996C92.36 214.427 92.0065 214.797 91.6876 215.099C91.041 215.685 90.3773 216.254 89.679 216.806C88.9894 217.358 88.317 217.814 87.6704 218.177H92.3427C92.5668 218.177 92.7479 218.263 92.8858 218.435C93.0237 218.608 93.0754 218.806 93.041 219.021L92.7393 220.745C92.6962 220.97 92.5927 221.159 92.4117 221.332C92.2306 221.504 92.0324 221.59 91.8082 221.59H82.7568C82.5327 221.59 82.3516 221.504 82.2137 221.332C82.0758 221.159 82.0241 220.961 82.0672 220.745L82.2827 219.539C82.3258 219.254 82.3861 219.021 82.4809 218.832C82.5671 218.642 82.7309 218.452 82.9464 218.271C83.3085 217.987 83.7223 217.651 84.1878 217.263C84.6533 216.866 85.136 216.452 85.636 216.013C86.136 215.573 86.636 215.116 87.1274 214.651C87.6187 214.185 88.067 213.746 88.4721 213.323C89.179 212.556 89.7566 211.806 90.2048 211.073C90.6531 210.341 90.8859 209.53 90.8859 208.642C90.8859 207.875 90.6962 207.358 90.3255 207.073C89.9549 206.789 89.498 206.651 88.9549 206.651C88.3687 206.651 87.817 206.754 87.2825 206.953C86.7481 207.151 86.2998 207.358 85.9377 207.556C85.7395 207.66 85.5326 207.685 85.3343 207.642C85.136 207.599 84.9809 207.461 84.8774 207.22L84.2999 205.565C84.2223 205.341 84.2309 205.134 84.343 204.944C84.455 204.755 84.6102 204.599 84.8085 204.479C85.1878 204.237 85.7826 203.953 86.5756 203.634C87.3687 203.315 88.3084 203.151 89.3945 203.151C91.0841 203.151 92.4462 203.582 93.4806 204.444C94.5151 205.306 95.0323 206.608 95.0323 208.341Z" fill="white"/>
<path d="M108.523 209.03C108.523 209.815 108.463 210.677 108.36 211.608C108.256 212.539 108.101 213.47 107.911 214.384C107.722 215.297 107.48 216.16 107.204 216.961C106.92 217.763 106.61 218.418 106.273 218.918C105.989 219.34 105.687 219.728 105.368 220.082C105.049 220.435 104.679 220.737 104.265 220.987C103.851 221.237 103.394 221.435 102.894 221.573C102.394 221.711 101.808 221.789 101.144 221.789C99.2909 221.789 97.9892 221.28 97.2393 220.263C96.4807 219.246 96.11 217.797 96.11 215.901C96.11 214.935 96.1789 213.944 96.3083 212.927C96.4376 211.91 96.6272 210.927 96.8686 209.987C97.11 209.039 97.403 208.16 97.7479 207.349C98.0927 206.539 98.4806 205.832 98.9289 205.255C99.9978 203.85 101.515 203.143 103.48 203.143C106.834 203.151 108.523 205.108 108.523 209.03ZM104.601 209.151C104.601 208.125 104.489 207.393 104.274 206.944C104.049 206.505 103.739 206.281 103.343 206.281C103.024 206.281 102.748 206.367 102.524 206.548C102.299 206.729 102.093 206.987 101.894 207.332C101.67 207.712 101.455 208.255 101.231 208.961C101.006 209.668 100.817 210.427 100.644 211.237C100.472 212.048 100.334 212.858 100.222 213.668C100.11 214.47 100.058 215.168 100.058 215.754C100.058 216.78 100.162 217.513 100.36 217.944C100.558 218.375 100.86 218.591 101.265 218.591C101.61 218.591 101.92 218.461 102.213 218.211C102.506 217.961 102.765 217.599 102.98 217.142C103.144 216.823 103.317 216.349 103.506 215.737C103.696 215.125 103.877 214.444 104.032 213.703C104.196 212.961 104.325 212.186 104.437 211.392C104.549 210.608 104.601 209.858 104.601 209.151Z" fill="white"/>
<path d="M122.187 208.341C122.187 209.168 122.075 209.918 121.842 210.599C121.609 211.28 121.333 211.91 120.997 212.487C120.67 213.065 120.308 213.565 119.911 213.996C119.514 214.427 119.161 214.798 118.842 215.099C118.196 215.685 117.532 216.254 116.834 216.806C116.144 217.358 115.472 217.815 114.825 218.177H119.497C119.721 218.177 119.902 218.263 120.04 218.435C120.178 218.608 120.23 218.806 120.196 219.022L119.894 220.746C119.851 220.97 119.747 221.159 119.566 221.332C119.385 221.504 119.187 221.59 118.963 221.59H109.911C109.687 221.59 109.506 221.504 109.368 221.332C109.23 221.159 109.179 220.961 109.222 220.746L109.437 219.539C109.48 219.254 109.541 219.022 109.635 218.832C109.722 218.642 109.885 218.453 110.101 218.272C110.463 217.987 110.877 217.651 111.342 217.263C111.808 216.866 112.291 216.453 112.791 216.013C113.291 215.573 113.791 215.117 114.282 214.651C114.773 214.186 115.222 213.746 115.627 213.323C116.334 212.556 116.911 211.806 117.359 211.074C117.808 210.341 118.04 209.53 118.04 208.643C118.04 207.875 117.851 207.358 117.48 207.074C117.109 206.789 116.653 206.651 116.109 206.651C115.523 206.651 114.972 206.755 114.437 206.953C113.903 207.151 113.454 207.358 113.092 207.556C112.894 207.66 112.687 207.686 112.489 207.643C112.291 207.6 112.135 207.462 112.032 207.22L111.454 205.565C111.377 205.341 111.385 205.134 111.497 204.944C111.61 204.755 111.765 204.6 111.963 204.479C112.342 204.238 112.937 203.953 113.73 203.634C114.523 203.315 115.463 203.151 116.549 203.151C118.239 203.151 119.601 203.582 120.635 204.444C121.67 205.306 122.187 206.608 122.187 208.341Z" fill="white"/>
<path d="M135.048 216.815C135.005 217.039 134.911 217.229 134.764 217.384C134.617 217.548 134.428 217.625 134.204 217.625H133.031L132.488 220.763C132.445 220.987 132.35 221.177 132.204 221.341C132.057 221.504 131.868 221.582 131.643 221.582H129.169C128.945 221.582 128.773 221.504 128.643 221.341C128.514 221.177 128.462 220.987 128.506 220.763L129.049 217.625H123.049C122.825 217.625 122.652 217.548 122.523 217.384C122.394 217.22 122.351 217.03 122.385 216.815L122.687 215.125C122.73 214.927 122.782 214.66 122.851 214.323C122.92 213.987 122.997 213.711 123.075 213.496L126.092 204.048C126.169 203.824 126.325 203.66 126.557 203.548C126.79 203.436 127.023 203.384 127.264 203.384H130.402C130.661 203.384 130.816 203.47 130.85 203.643C130.893 203.815 130.859 204.031 130.764 204.289L127.23 214.065H129.764L131.092 209.936C131.169 209.712 131.299 209.522 131.471 209.358C131.643 209.194 131.842 209.117 132.057 209.117H133.712C133.936 209.117 134.109 209.194 134.238 209.358C134.367 209.522 134.411 209.712 134.376 209.936L133.652 214.065H134.712C134.936 214.065 135.109 214.142 135.238 214.306C135.367 214.47 135.411 214.66 135.376 214.884L135.048 216.815Z" fill="white"/>
<path d="M346.257 264.563L301 215.772C300.517 215.255 299.768 215.082 299.104 215.341C298.44 215.599 298.009 216.237 298.009 216.944V244.616H269.277L255.984 258.667C255.355 258.089 254.364 257.529 252.872 257.529C252.295 257.529 251.734 257.607 251.209 257.762L251.881 253.926C252.01 253.21 251.838 252.512 251.381 251.952C250.924 251.391 250.26 251.081 249.519 251.081H248.873V244.616H124.738C123.79 244.616 123.014 245.392 123.014 246.34V284.27C123.014 285.218 123.79 285.994 124.738 285.994H298.009V313.579C298.009 314.286 298.44 314.924 299.095 315.183C299.302 315.269 299.518 315.303 299.733 315.303C300.199 315.303 300.655 315.114 300.983 314.76L346.24 266.917C346.87 266.262 346.87 265.236 346.257 264.563Z" fill="white"/>
<path d="M252.321 232.547C252.321 231.599 251.545 230.823 250.597 230.823H77.3261V196.341H145.815C142.315 200.574 138.091 206.281 142.048 210.246C148.031 216.246 152.677 211.47 157.082 206.988C160.565 203.445 164.056 199.893 167.539 196.35H203.021C202.624 196.721 202.227 197.091 201.831 197.462C198.486 200.565 193.555 204.195 194.469 209.677C194.814 211.772 196.288 213.668 198.279 214.401C202.883 216.117 208.046 211.6 211.546 208.884C215.813 205.574 219.96 202.1 224.21 198.764C225.235 197.962 226.261 197.152 227.296 196.35H250.597C251.545 196.35 252.321 195.574 252.321 194.626V169.635L293.492 214.005L264.536 244.616H269.286L297.112 215.194C297.733 214.53 297.742 213.505 297.121 212.841L251.864 164.067C251.381 163.549 250.631 163.377 249.967 163.635C249.304 163.894 248.873 164.532 248.873 165.239V192.893H231.683C234.882 190.367 238.054 187.816 241.114 185.135C242.933 183.54 244.545 181.523 244.674 179.006C244.787 176.782 243.692 174.644 242.243 172.954C239.209 169.42 235.106 166.954 231.494 164.092C228.382 161.627 225.27 159.161 222.158 156.696L242.847 134.283C246.011 137.119 249.174 139.955 252.338 142.791C256.372 146.412 259.984 151.041 264.26 154.317C268.941 157.903 272.389 154.808 276.467 152.386C278.992 150.886 281.734 149.403 284.328 148.041C287.027 146.627 289.733 145.248 292.423 143.808C294.492 142.705 296.673 141.791 298.707 140.619C300.242 139.731 301.699 138.593 302.561 137.041C304.69 133.214 301.509 128.637 297.199 129.128C295.225 129.352 293.388 130.205 291.656 131.128C290.277 131.869 288.906 132.602 287.527 133.343C282.113 136.24 276.708 139.136 271.294 142.041C262.183 129.981 252.097 118.663 241.433 107.965C235.451 101.965 229.278 96.1462 222.925 90.5343C219.701 87.6895 216.425 84.8965 213.098 82.1724C211.486 80.8535 209.012 78.6553 207.365 77.3795C206.124 76.4226 205.089 75.7847 203.969 75.5347C202.822 75.2847 201.59 75.4485 199.978 76.1123C196.124 77.6898 192.262 79.8363 188.547 81.6897C185.099 83.4138 181.65 85.9999 178.694 87.8188C175.866 89.5515 170.72 94.2238 173.03 98.0685C176.004 103.025 180.401 100.905 184.59 99.2926C191.15 96.7668 196.659 92.9221 203.202 90.3101L218.718 110.137C212.313 117.602 207.658 121.645 201.305 129.145C188.685 144.033 176.116 158.955 163.755 174.058C158.66 180.282 153.582 186.531 148.66 192.893H75.602C74.6538 192.893 73.8779 193.669 73.8779 194.617V232.547C73.8779 233.495 74.6538 234.271 75.602 234.271H248.873V244.616H252.321V232.547ZM198.874 164.446L221.287 179.101C220.865 178.825 211.572 188.316 210.891 188.962C209.494 190.281 208.098 191.583 206.693 192.893H170.927C180.245 183.411 189.555 173.928 198.874 164.446Z" fill="white"/>
<path d="M141.384 263.21L145.729 273.046C145.893 273.391 145.901 273.658 145.772 273.865C145.643 274.063 145.401 274.167 145.065 274.167H142.505C142.203 274.167 141.945 274.123 141.72 274.029C141.496 273.934 141.341 273.753 141.238 273.468L137.669 264.244L136.074 273.356C136.031 273.58 135.928 273.77 135.755 273.934C135.583 274.098 135.384 274.175 135.169 274.175H132.695C132.471 274.175 132.29 274.098 132.152 273.934C132.014 273.77 131.962 273.58 132.005 273.356L135.264 254.771C135.307 254.546 135.41 254.357 135.583 254.193C135.755 254.029 135.953 253.952 136.169 253.952H138.643C138.867 253.952 139.048 254.029 139.186 254.193C139.324 254.357 139.376 254.546 139.333 254.771L138.065 262.012L143.591 254.65C143.815 254.365 144.022 254.184 144.212 254.09C144.401 253.995 144.651 253.952 144.953 253.952H147.875C148.22 253.952 148.436 254.064 148.522 254.296C148.608 254.529 148.539 254.788 148.298 255.064L141.384 263.21Z" fill="black"/>
<path d="M151.126 273.356C151.082 273.58 150.979 273.77 150.798 273.934C150.617 274.098 150.419 274.175 150.195 274.175H147.876C147.651 274.175 147.479 274.098 147.35 273.934C147.22 273.77 147.177 273.58 147.212 273.356L150.686 253.624C150.729 253.4 150.824 253.21 150.97 253.046C151.117 252.883 151.315 252.805 151.557 252.805H153.944C154.169 252.805 154.341 252.883 154.47 253.046C154.6 253.21 154.643 253.4 154.608 253.624L151.126 273.356Z" fill="black"/>
<path d="M165.28 273.356C165.237 273.58 165.142 273.77 164.996 273.934C164.84 274.098 164.659 274.175 164.435 274.175H162.047C161.823 274.175 161.642 274.106 161.504 273.977C161.366 273.848 161.315 273.641 161.358 273.356L161.634 271.848C161.496 272.167 161.315 272.477 161.108 272.779C160.892 273.08 160.651 273.356 160.366 273.589C160.082 273.83 159.772 274.02 159.435 274.166C159.099 274.313 158.711 274.382 158.289 274.382C157.789 274.382 157.306 274.287 156.841 274.098C156.375 273.908 155.97 273.58 155.608 273.132C155.246 272.675 154.961 272.089 154.746 271.348C154.53 270.615 154.427 269.701 154.427 268.615C154.427 267.391 154.574 266.21 154.867 265.081C155.16 263.951 155.582 262.96 156.151 262.098C156.711 261.236 157.41 260.546 158.237 260.029C159.065 259.52 160.013 259.262 161.099 259.262C161.685 259.262 162.203 259.391 162.651 259.641C163.108 259.891 163.444 260.132 163.659 260.348L163.78 260.012C163.884 259.753 164.134 259.615 164.539 259.615H166.892C167.116 259.615 167.289 259.693 167.418 259.857C167.547 260.02 167.59 260.21 167.556 260.434L165.28 273.356ZM161.927 255.124C161.927 255.71 161.711 256.21 161.289 256.633C160.866 257.055 160.366 257.27 159.78 257.27C159.194 257.27 158.694 257.055 158.272 256.633C157.849 256.21 157.642 255.71 157.642 255.124C157.642 254.538 157.858 254.038 158.272 253.615C158.694 253.193 159.194 252.986 159.78 252.986C160.366 252.986 160.866 253.193 161.289 253.615C161.72 254.046 161.927 254.546 161.927 255.124ZM163.134 263.158C162.996 263.02 162.789 262.865 162.53 262.701C162.272 262.538 161.935 262.46 161.53 262.46C161.108 262.46 160.711 262.65 160.349 263.02C159.987 263.391 159.677 263.874 159.418 264.451C159.16 265.037 158.953 265.675 158.798 266.382C158.651 267.089 158.573 267.77 158.573 268.434C158.573 269.339 158.651 269.968 158.798 270.339C158.953 270.701 159.185 270.882 159.504 270.882C159.789 270.882 160.099 270.684 160.453 270.296C160.806 269.899 161.151 269.382 161.496 268.744C161.841 268.098 162.142 267.374 162.418 266.555C162.694 265.736 162.884 264.9 163.004 264.037L163.134 263.158ZM167.875 255.124C167.875 255.71 167.668 256.21 167.246 256.633C166.823 257.055 166.323 257.27 165.737 257.27C165.151 257.27 164.651 257.055 164.228 256.633C163.806 256.21 163.591 255.71 163.591 255.124C163.591 254.538 163.806 254.038 164.228 253.615C164.651 253.193 165.151 252.986 165.737 252.986C166.323 252.986 166.823 253.193 167.246 253.615C167.668 254.038 167.875 254.546 167.875 255.124Z" fill="black"/>
<path d="M177.831 263.124C177.607 263.65 177.28 263.805 176.831 263.606C176.694 263.546 176.547 263.469 176.409 263.365C176.271 263.262 176.056 263.21 175.771 263.21C175.487 263.21 175.176 263.451 174.84 263.934C174.495 264.417 174.159 265.072 173.832 265.9C173.504 266.727 173.185 267.693 172.883 268.796C172.582 269.899 172.323 271.08 172.099 272.322L171.918 273.348C171.875 273.572 171.763 273.761 171.573 273.925C171.383 274.089 171.176 274.167 170.952 274.167H168.659C168.435 274.167 168.263 274.089 168.133 273.925C168.004 273.761 167.961 273.572 167.996 273.348L170.254 260.434C170.358 259.891 170.659 259.615 171.159 259.615H173.392C173.616 259.615 173.797 259.693 173.935 259.857C174.073 260.02 174.125 260.219 174.082 260.46L173.78 262.089C174.263 261.124 174.763 260.408 175.288 259.951C175.814 259.486 176.409 259.253 177.073 259.253C177.297 259.253 177.547 259.296 177.831 259.374C178.116 259.451 178.366 259.572 178.59 259.736C178.995 260.038 179.081 260.426 178.866 260.908L177.831 263.124Z" fill="black"/>
<path d="M189.262 273.356C189.219 273.58 189.133 273.77 188.995 273.934C188.857 274.097 188.641 274.175 188.357 274.175H186.004C185.779 274.175 185.607 274.097 185.478 273.934C185.348 273.77 185.305 273.58 185.34 273.356L185.667 271.391C185.167 272.417 184.564 273.192 183.857 273.727C183.15 274.261 182.348 274.529 181.443 274.529C180.521 274.529 179.797 274.235 179.288 273.641C178.78 273.046 178.521 272.158 178.521 270.968C178.521 270.71 178.53 270.434 178.555 270.158C178.573 269.873 178.616 269.572 178.676 269.253L180.219 260.443C180.323 259.9 180.616 259.624 181.099 259.624H183.478C183.702 259.624 183.874 259.701 184.004 259.865C184.133 260.029 184.176 260.219 184.142 260.443L182.754 268.468C182.693 268.83 182.642 269.175 182.59 269.511C182.538 269.839 182.521 270.132 182.529 270.382C182.538 270.632 182.59 270.839 182.676 271.003C182.771 271.167 182.935 271.244 183.176 271.244C183.495 271.244 183.857 271.011 184.245 270.537C184.641 270.063 185.029 269.399 185.426 268.529C185.822 267.667 186.193 266.632 186.538 265.434C186.891 264.236 187.185 262.925 187.426 261.494L187.607 260.443C187.71 259.9 188.003 259.624 188.478 259.624H190.865C191.09 259.624 191.262 259.701 191.391 259.865C191.521 260.029 191.564 260.219 191.529 260.443L189.262 273.356Z" fill="black"/>
<path d="M203.598 273.356C203.494 273.899 203.201 274.166 202.727 274.166H200.339C200.115 274.166 199.943 274.089 199.813 273.925C199.684 273.761 199.641 273.572 199.676 273.348L201.063 265.322C201.124 264.96 201.175 264.615 201.227 264.279C201.279 263.943 201.296 263.658 201.288 263.4C201.279 263.15 201.227 262.943 201.141 262.779C201.055 262.615 200.882 262.538 200.641 262.538C200.296 262.538 199.934 262.779 199.555 263.262C199.176 263.744 198.788 264.417 198.391 265.27C197.995 266.124 197.624 267.149 197.279 268.348C196.926 269.546 196.633 270.856 196.391 272.287L196.21 273.348C196.107 273.891 195.814 274.158 195.339 274.158H192.96C192.736 274.158 192.564 274.08 192.434 273.916C192.305 273.753 192.262 273.563 192.296 273.339L194.555 260.426C194.598 260.201 194.684 260.012 194.831 259.848C194.969 259.684 195.184 259.607 195.46 259.607H197.814C198.038 259.607 198.21 259.684 198.339 259.848C198.469 260.012 198.512 260.201 198.477 260.426L198.176 262.262C198.701 261.279 199.305 260.529 199.986 260.012C200.667 259.494 201.469 259.245 202.374 259.245C203.296 259.245 204.02 259.538 204.529 260.132C205.046 260.727 205.296 261.615 205.296 262.805C205.296 263.063 205.287 263.339 205.262 263.624C205.244 263.908 205.201 264.21 205.141 264.529L203.598 273.356Z" fill="black"/>
<path d="M218.141 271.968L217.813 274.201C217.649 275.27 217.434 276.192 217.149 276.977C216.865 277.761 216.485 278.408 216.003 278.908C215.52 279.408 214.925 279.778 214.218 280.02C213.511 280.261 212.658 280.382 211.658 280.382C210.331 280.382 209.244 280.218 208.4 279.882C207.555 279.554 206.822 279.192 206.201 278.813C206.038 278.709 205.951 278.572 205.943 278.391C205.934 278.21 205.969 278.028 206.046 277.847L206.831 276.123C207.055 275.641 207.374 275.511 207.796 275.727C207.994 275.848 208.236 275.977 208.52 276.123C208.805 276.261 209.098 276.391 209.408 276.52C209.718 276.641 210.037 276.744 210.374 276.822C210.71 276.899 211.029 276.942 211.356 276.942C212.141 276.942 212.718 276.701 213.08 276.235C213.442 275.77 213.701 275.046 213.865 274.08L214.322 271.546C214.123 271.865 213.899 272.184 213.658 272.477C213.417 272.779 213.149 273.054 212.856 273.296C212.563 273.537 212.236 273.727 211.874 273.873C211.511 274.011 211.106 274.089 210.667 274.089C210.184 274.089 209.71 273.994 209.236 273.813C208.762 273.632 208.348 273.322 207.986 272.882C207.624 272.442 207.331 271.865 207.098 271.149C206.865 270.434 206.753 269.546 206.753 268.477C206.753 267.313 206.9 266.175 207.193 265.072C207.486 263.969 207.925 262.986 208.503 262.132C209.089 261.279 209.813 260.589 210.675 260.064C211.537 259.538 212.546 259.279 213.692 259.279C214.313 259.279 214.856 259.408 215.322 259.676C215.787 259.934 216.106 260.176 216.287 260.4L216.348 260.184C216.408 259.986 216.485 259.839 216.589 259.762C216.692 259.684 216.873 259.641 217.132 259.641H219.511C219.796 259.641 219.985 259.719 220.089 259.882C220.192 260.046 220.218 260.236 220.184 260.46L218.141 271.968ZM215.753 263.158C215.615 263.02 215.408 262.865 215.149 262.701C214.891 262.538 214.555 262.46 214.149 262.46C213.649 262.46 213.192 262.65 212.796 263.02C212.391 263.391 212.055 263.857 211.77 264.425C211.486 264.986 211.27 265.606 211.124 266.279C210.977 266.951 210.899 267.589 210.899 268.193C210.899 269.115 210.994 269.744 211.184 270.08C211.374 270.417 211.632 270.58 211.951 270.58C212.27 270.58 212.624 270.408 213.003 270.072C213.382 269.727 213.744 269.262 214.089 268.667C214.434 268.072 214.736 267.391 215.011 266.615C215.279 265.839 215.477 265.029 215.598 264.184L215.753 263.158Z" fill="black"/>
<path d="M243.148 259.115C243.148 260.365 242.95 261.426 242.545 262.296C242.14 263.176 241.597 263.882 240.899 264.425C240.2 264.969 239.381 265.365 238.442 265.615C237.502 265.865 236.476 265.994 235.39 265.994H233.218L231.925 273.322C231.882 273.546 231.795 273.736 231.649 273.908C231.502 274.08 231.295 274.167 231.011 274.167H228.537C228.313 274.167 228.132 274.08 227.994 273.908C227.856 273.736 227.804 273.537 227.847 273.322L231.106 254.796C231.149 254.572 231.252 254.383 231.425 254.21C231.597 254.038 231.795 253.952 232.011 253.952H237.718C239.511 253.952 240.864 254.409 241.778 255.314C242.692 256.219 243.148 257.486 243.148 259.115ZM239.08 259.598C239.08 258.15 238.338 257.426 236.847 257.426H234.735L233.83 262.529H235.64C236.123 262.529 236.571 262.477 236.985 262.365C237.399 262.253 237.761 262.081 238.071 261.857C238.381 261.624 238.631 261.322 238.812 260.951C238.985 260.564 239.08 260.115 239.08 259.598Z" fill="black"/>
<path d="M254.105 273.356C254.062 273.58 253.967 273.77 253.821 273.934C253.674 274.098 253.476 274.175 253.234 274.175H250.846C250.622 274.175 250.45 274.098 250.321 273.934C250.191 273.77 250.148 273.58 250.183 273.356L251.571 265.331C251.631 264.986 251.683 264.667 251.734 264.365C251.786 264.063 251.812 263.779 251.812 263.52C251.812 263.236 251.769 263.003 251.674 262.822C251.588 262.641 251.407 262.555 251.148 262.555C250.803 262.555 250.441 262.796 250.062 263.279C249.683 263.762 249.295 264.434 248.898 265.287C248.502 266.141 248.131 267.167 247.786 268.365C247.433 269.563 247.14 270.873 246.898 272.304L246.717 273.365C246.614 273.908 246.321 274.175 245.847 274.175H243.467C243.243 274.175 243.071 274.098 242.942 273.934C242.812 273.77 242.769 273.58 242.804 273.356L246.278 253.624C246.321 253.4 246.416 253.21 246.579 253.046C246.743 252.883 246.933 252.805 247.157 252.805H249.545C249.769 252.805 249.941 252.883 250.071 253.046C250.2 253.21 250.243 253.4 250.209 253.624L248.7 262.253C249.226 261.288 249.829 260.546 250.51 260.038C251.191 259.529 251.993 259.27 252.898 259.27C253.821 259.27 254.545 259.563 255.053 260.158C255.57 260.753 255.82 261.641 255.82 262.831C255.82 263.089 255.812 263.365 255.786 263.65C255.769 263.934 255.726 264.236 255.665 264.555L254.105 273.356Z" fill="black"/>
<path d="M268.105 273.356C268.061 273.58 267.967 273.77 267.82 273.934C267.665 274.097 267.484 274.175 267.26 274.175H264.872C264.648 274.175 264.467 274.106 264.329 273.977C264.191 273.847 264.139 273.641 264.182 273.356L264.458 271.848C264.32 272.167 264.139 272.477 263.932 272.779C263.717 273.08 263.475 273.356 263.191 273.589C262.906 273.83 262.596 274.02 262.26 274.166C261.924 274.313 261.536 274.382 261.113 274.382C260.613 274.382 260.131 274.287 259.665 274.097C259.2 273.908 258.795 273.58 258.432 273.132C258.07 272.675 257.786 272.089 257.57 271.348C257.355 270.615 257.251 269.701 257.251 268.615C257.251 267.391 257.398 266.21 257.691 265.081C257.984 263.951 258.407 262.96 258.976 262.098C259.536 261.236 260.234 260.546 261.062 260.029C261.889 259.52 262.838 259.262 263.924 259.262C264.51 259.262 265.027 259.391 265.475 259.641C265.932 259.891 266.268 260.132 266.484 260.348L266.605 260.012C266.708 259.753 266.958 259.615 267.363 259.615H269.717C269.941 259.615 270.113 259.693 270.242 259.857C270.372 260.02 270.415 260.21 270.38 260.434L268.105 273.356ZM265.967 263.158C265.829 263.02 265.622 262.865 265.363 262.701C265.105 262.537 264.768 262.46 264.363 262.46C263.941 262.46 263.544 262.65 263.182 263.02C262.82 263.391 262.51 263.874 262.251 264.451C261.993 265.037 261.786 265.675 261.631 266.382C261.484 267.089 261.407 267.77 261.407 268.434C261.407 269.339 261.484 269.968 261.631 270.339C261.786 270.701 262.019 270.882 262.338 270.882C262.622 270.882 262.932 270.684 263.286 270.296C263.639 269.899 263.984 269.382 264.329 268.744C264.674 268.098 264.975 267.374 265.251 266.555C265.527 265.736 265.717 264.899 265.837 264.037L265.967 263.158Z" fill="black"/>
<path d="M280.509 262.762C280.406 262.925 280.251 263.055 280.044 263.158C279.828 263.262 279.622 263.244 279.423 263.124C279.199 262.986 278.889 262.805 278.475 262.581C278.061 262.356 277.578 262.244 277.01 262.244C276.665 262.244 276.38 262.331 276.147 262.503C275.915 262.675 275.803 262.917 275.803 263.244C275.803 263.624 276.018 263.96 276.449 264.253C276.88 264.546 277.372 264.882 277.915 265.262C278.234 265.486 278.553 265.727 278.863 265.986C279.173 266.244 279.458 266.555 279.708 266.908C279.958 267.261 280.165 267.649 280.328 268.08C280.492 268.511 280.57 269.003 280.57 269.546C280.57 271.279 280.096 272.511 279.147 273.253C278.199 273.994 276.923 274.365 275.32 274.365C274.216 274.365 273.242 274.201 272.406 273.865C271.57 273.537 270.872 273.21 270.311 272.882C269.889 272.623 269.803 272.261 270.044 271.796L270.829 270.253C270.932 270.029 271.061 269.873 271.225 269.77C271.389 269.667 271.587 269.684 271.829 269.805C272.027 269.925 272.268 270.054 272.536 270.201C272.811 270.339 273.087 270.477 273.38 270.598C273.673 270.718 273.975 270.822 274.285 270.917C274.596 271.011 274.898 271.054 275.173 271.054C276.079 271.054 276.535 270.684 276.535 269.942C276.535 269.537 276.354 269.201 275.992 268.934C275.63 268.667 275.199 268.356 274.699 268.011C274.354 267.787 274.018 267.546 273.673 267.287C273.329 267.029 273.018 266.727 272.742 266.399C272.458 266.072 272.234 265.684 272.053 265.253C271.872 264.822 271.777 264.331 271.777 263.787C271.777 263.003 271.906 262.322 272.173 261.753C272.432 261.175 272.794 260.71 273.26 260.339C273.725 259.969 274.268 259.693 274.889 259.52C275.51 259.348 276.182 259.262 276.906 259.262C277.872 259.262 278.691 259.382 279.346 259.624C280.009 259.865 280.509 260.115 280.854 260.382C281.035 260.52 281.173 260.693 281.277 260.882C281.38 261.072 281.371 261.279 281.242 261.503L280.509 262.762Z" fill="black"/>
<path d="M294.38 263.486C294.38 264.615 294.19 265.52 293.802 266.218C293.423 266.917 292.88 267.46 292.173 267.848C291.466 268.244 290.621 268.511 289.638 268.658C288.656 268.813 287.552 268.908 286.354 268.943C286.371 269.201 286.423 269.451 286.501 269.701C286.578 269.942 286.707 270.158 286.88 270.348C287.052 270.537 287.276 270.692 287.544 270.805C287.82 270.917 288.164 270.968 288.587 270.968C289.268 270.968 289.854 270.891 290.337 270.744C290.819 270.598 291.285 270.434 291.725 270.279C292.207 270.115 292.492 270.279 292.569 270.761L292.837 272.33C292.88 272.589 292.828 272.804 292.699 272.977C292.569 273.149 292.414 273.287 292.233 273.382C291.707 273.641 291.069 273.873 290.302 274.08C289.535 274.279 288.664 274.382 287.682 274.382C286.035 274.382 284.716 273.891 283.733 272.917C282.751 271.942 282.251 270.434 282.251 268.408C282.251 267.305 282.389 266.201 282.673 265.106C282.958 264.012 283.389 263.029 283.983 262.167C284.578 261.305 285.32 260.607 286.199 260.072C287.087 259.538 288.13 259.27 289.337 259.27C290.923 259.27 292.164 259.624 293.044 260.331C293.94 261.02 294.38 262.081 294.38 263.486ZM290.613 263.787C290.613 263.322 290.5 262.969 290.285 262.719C290.069 262.469 289.725 262.339 289.259 262.339C288.88 262.339 288.535 262.451 288.233 262.684C287.932 262.917 287.673 263.219 287.449 263.589C287.225 263.96 287.035 264.382 286.871 264.856C286.707 265.331 286.587 265.805 286.509 266.287C287.957 266.149 289.001 265.882 289.647 265.503C290.294 265.124 290.613 264.555 290.613 263.787Z" fill="black"/>
<path d="M306.267 273.322C306.224 273.546 306.112 273.736 305.922 273.908C305.733 274.08 305.526 274.167 305.302 274.167H302.767C302.543 274.167 302.362 274.08 302.224 273.908C302.086 273.736 302.035 273.537 302.078 273.322L305.336 254.796C305.379 254.572 305.491 254.383 305.681 254.21C305.871 254.038 306.078 253.952 306.302 253.952H308.836C309.06 253.952 309.241 254.038 309.379 254.21C309.517 254.383 309.569 254.581 309.534 254.796L306.267 273.322Z" fill="black"/>
<path d="M313.482 273.322C313.439 273.546 313.327 273.736 313.138 273.908C312.948 274.08 312.741 274.167 312.517 274.167H309.983C309.758 274.167 309.577 274.08 309.439 273.908C309.302 273.736 309.25 273.537 309.293 273.322L312.551 254.796C312.594 254.572 312.707 254.383 312.896 254.21C313.086 254.038 313.293 253.952 313.517 253.952H316.051C316.275 253.952 316.456 254.038 316.594 254.21C316.732 254.383 316.784 254.581 316.75 254.796L313.482 273.322Z" fill="black"/>
<path d="M161.409 367.664C160.735 367.664 160.141 367.442 159.625 366.998C159.11 366.554 158.598 365.935 158.089 365.14C157.251 365.433 156.342 365.58 155.361 365.58C154.165 365.58 153.094 365.358 152.149 364.914C151.203 364.47 150.401 363.861 149.743 363.088C149.084 362.315 148.582 361.423 148.239 360.413C147.895 359.403 147.723 358.329 147.723 357.191C147.723 355.987 147.906 354.877 148.271 353.86C148.636 352.836 149.155 351.945 149.828 351.186C150.509 350.427 151.314 349.839 152.245 349.424C153.184 349.001 154.222 348.79 155.361 348.79C156.571 348.79 157.649 349.016 158.594 349.467C159.539 349.911 160.338 350.527 160.99 351.315C161.641 352.095 162.135 352.99 162.472 354C162.816 355.01 162.988 356.073 162.988 357.191C162.988 358.523 162.741 359.797 162.246 361.015C161.752 362.232 161.04 363.224 160.109 363.99C160.467 364.52 160.786 364.921 161.065 365.193C161.351 365.466 161.648 365.602 161.956 365.602C162.408 365.602 162.773 365.333 163.052 364.796C163.331 364.252 163.471 363.596 163.471 362.83V362.583H164.771V362.83C164.771 363.783 164.689 364.621 164.524 365.344C164.366 366.074 164.048 366.644 163.568 367.052C163.088 367.46 162.368 367.664 161.409 367.664ZM158.852 362.186C159.303 361.577 159.647 360.829 159.883 359.941C160.12 359.053 160.238 358.143 160.238 357.212C160.238 356.396 160.137 355.579 159.937 354.763C159.736 353.946 159.432 353.202 159.024 352.528C158.616 351.855 158.107 351.315 157.498 350.906C156.89 350.498 156.177 350.294 155.361 350.294C154.544 350.294 153.832 350.495 153.223 350.896C152.614 351.297 152.106 351.83 151.698 352.496C151.289 353.155 150.981 353.893 150.774 354.709C150.573 355.518 150.473 356.338 150.473 357.169C150.473 358.036 150.577 358.888 150.785 359.726C150.992 360.564 151.286 361.29 151.665 361.906C151.973 361.326 152.396 360.846 152.933 360.467C153.477 360.087 154.183 359.898 155.049 359.898C155.837 359.898 156.532 360.105 157.133 360.521C157.735 360.929 158.308 361.484 158.852 362.186ZM155.361 364.076C156.034 364.076 156.643 363.937 157.187 363.657C156.729 362.891 156.288 362.3 155.866 361.885C155.45 361.47 154.988 361.262 154.48 361.262C153.742 361.262 153.073 361.806 152.471 362.895C153.259 363.682 154.222 364.076 155.361 364.076ZM173.665 365.602V363.174C172.763 364.778 171.47 365.58 169.787 365.58C168.577 365.58 167.671 365.211 167.07 364.474C166.475 363.736 166.178 362.719 166.178 361.423V354.967H164.159V353.764H168.488V361.401C168.488 362.354 168.638 363.041 168.939 363.464C169.247 363.879 169.719 364.087 170.357 364.087C170.829 364.087 171.316 363.951 171.818 363.679C172.319 363.4 172.738 363.045 173.075 362.615C173.418 362.179 173.59 361.727 173.59 361.262V354.967H171.635V353.764H175.911V364.076L177.995 364.302V365.29L173.665 365.602ZM178.585 365.29V364.033H180.659V354.967H178.564V353.764H182.968V364.033H185.074V365.29H178.585ZM181.636 351.723C181.199 351.723 180.823 351.565 180.508 351.25C180.2 350.935 180.046 350.563 180.046 350.133C180.046 349.689 180.2 349.313 180.508 349.005C180.823 348.69 181.199 348.532 181.636 348.532C182.066 348.532 182.438 348.69 182.753 349.005C183.076 349.32 183.237 349.696 183.237 350.133C183.237 350.563 183.076 350.935 182.753 351.25C182.438 351.565 182.066 351.723 181.636 351.723ZM191.594 365.58C190.484 365.58 189.51 365.326 188.672 364.818C187.842 364.309 187.193 363.614 186.728 362.734C186.262 361.853 186.03 360.857 186.03 359.747C186.03 358.609 186.255 357.563 186.706 356.61C187.158 355.658 187.816 354.895 188.683 354.322C189.557 353.742 190.613 353.452 191.852 353.452C192.368 353.452 192.89 353.531 193.42 353.689C193.957 353.839 194.452 354.068 194.903 354.376C195.354 354.684 195.716 355.074 195.988 355.547C196.267 356.02 196.407 356.575 196.407 357.212C196.407 357.642 196.256 358.039 195.955 358.404C195.662 358.77 195.25 358.952 194.72 358.952C194.255 358.952 193.861 358.816 193.538 358.544C193.223 358.265 193.066 357.896 193.066 357.438C193.066 356.972 193.231 356.61 193.56 356.353C193.889 356.095 194.276 355.966 194.72 355.966C194.484 355.586 194.147 355.275 193.71 355.031C193.281 354.788 192.786 354.666 192.228 354.666C191.39 354.666 190.692 354.895 190.133 355.354C189.582 355.805 189.166 356.392 188.887 357.115C188.608 357.832 188.468 358.591 188.468 359.393C188.468 360.775 188.787 361.863 189.424 362.658C190.062 363.446 190.946 363.84 192.078 363.84C192.665 363.84 193.195 363.693 193.667 363.4C194.14 363.106 194.53 362.762 194.838 362.368C195.146 361.967 195.347 361.613 195.44 361.305L196.654 361.702C196.382 362.877 195.805 363.818 194.924 364.527C194.043 365.229 192.933 365.58 191.594 365.58ZM209.383 365.505C208.617 365.505 207.958 365.304 207.407 364.903C206.855 364.502 206.357 363.919 205.913 363.152L203.754 359.436L201.971 360.8V364.087H203.797V365.29H197.492V364.087H199.661V350.444H197.492V349.123H201.971V359.156L206.461 354.967H204.442V353.764H210.887V354.967H208.835L205.119 358.533C205.326 358.82 205.609 359.253 205.967 359.833C206.318 360.399 206.626 360.882 206.891 361.283C207.163 361.677 207.464 362.085 207.793 362.508C208.488 363.382 209.183 363.818 209.877 363.818C210.293 363.818 210.665 363.743 210.995 363.593L211.306 365.043C210.955 365.244 210.64 365.369 210.361 365.419C210.089 365.476 209.763 365.505 209.383 365.505ZM223.627 365.58C221.909 365.58 220.398 365.269 219.094 364.646C218.457 364.338 217.948 363.929 217.569 363.421C217.189 362.905 216.999 362.325 216.999 361.681C216.999 361.086 217.193 360.599 217.579 360.22C217.973 359.833 218.428 359.64 218.944 359.64C219.424 359.64 219.828 359.822 220.158 360.188C220.487 360.553 220.652 360.965 220.652 361.423C220.652 361.896 220.516 362.261 220.244 362.519C219.971 362.769 219.603 362.923 219.137 362.981C219.631 363.332 220.193 363.604 220.824 363.797C221.461 363.983 222.277 364.076 223.273 364.076C223.967 364.076 224.623 363.987 225.239 363.808C225.862 363.629 226.367 363.342 226.753 362.948C227.147 362.554 227.344 362.039 227.344 361.401C227.344 360.864 227.219 360.431 226.968 360.102C226.725 359.772 226.392 359.504 225.969 359.296C225.554 359.088 225.092 358.909 224.583 358.759C224.369 358.694 224.125 358.626 223.853 358.555C223.588 358.476 223.291 358.397 222.961 358.318C222.195 358.125 221.465 357.907 220.77 357.663C220.082 357.413 219.47 357.105 218.933 356.739C218.396 356.367 217.973 355.909 217.665 355.364C217.357 354.813 217.203 354.14 217.203 353.345C217.203 352.464 217.465 351.683 217.988 351.003C218.51 350.316 219.234 349.775 220.158 349.381C221.089 348.987 222.163 348.79 223.38 348.79C223.975 348.79 224.619 348.855 225.314 348.984C226.016 349.112 226.678 349.32 227.301 349.607C227.931 349.886 228.443 350.251 228.837 350.702C229.238 351.146 229.439 351.691 229.439 352.335C229.439 352.965 229.278 353.481 228.955 353.882C228.64 354.283 228.193 354.484 227.613 354.484C227.133 354.484 226.71 354.347 226.345 354.075C225.987 353.796 225.808 353.427 225.808 352.969C225.808 352.396 225.955 351.973 226.248 351.701C226.542 351.429 226.886 351.293 227.28 351.293C226.435 350.627 225.224 350.294 223.649 350.294C223.033 350.294 222.428 350.391 221.833 350.584C221.239 350.77 220.745 351.057 220.351 351.443C219.964 351.83 219.771 352.317 219.771 352.904C219.771 353.527 219.957 354.025 220.329 354.398C220.709 354.77 221.185 355.06 221.758 355.268C222.338 355.468 222.933 355.633 223.541 355.762C224.594 355.998 225.504 356.256 226.27 356.535C227.043 356.815 227.674 357.112 228.161 357.427C228.87 357.878 229.367 358.401 229.654 358.995C229.947 359.582 230.094 360.259 230.094 361.026C230.094 362.443 229.536 363.557 228.418 364.366C227.301 365.176 225.704 365.58 223.627 365.58ZM236.196 365.58C235.587 365.58 235.018 365.451 234.488 365.193C233.958 364.936 233.528 364.553 233.199 364.044C232.876 363.528 232.715 362.887 232.715 362.121V354.967H230.524V354.462C231.075 354.297 231.577 354.004 232.028 353.581C232.479 353.151 232.837 352.69 233.102 352.195C233.324 351.794 233.485 351.479 233.585 351.25C233.686 351.014 233.786 350.777 233.886 350.541C233.986 350.305 234.14 349.986 234.348 349.585C234.498 349.277 234.631 349.123 234.745 349.123C234.932 349.123 235.025 349.248 235.025 349.499V353.764H239.257V354.988H235.025V362.186C235.025 362.816 235.168 363.289 235.454 363.604C235.741 363.919 236.12 364.076 236.593 364.076C237.166 364.076 237.599 363.89 237.893 363.518C238.187 363.138 238.333 362.476 238.333 361.53V359.984H239.622V361.305C239.622 362.723 239.368 363.79 238.86 364.506C238.358 365.222 237.47 365.58 236.196 365.58ZM244.145 365.58C243.264 365.58 242.544 365.347 241.986 364.882C241.434 364.409 241.159 363.761 241.159 362.938C241.159 362.508 241.255 362.118 241.449 361.767C241.642 361.409 241.9 361.111 242.222 360.875C242.888 360.381 243.661 359.969 244.542 359.64C245.402 359.332 246.175 358.977 246.863 358.576C247.178 358.39 247.432 358.165 247.625 357.9C247.819 357.627 247.915 357.327 247.915 356.997C247.915 356.181 247.715 355.576 247.314 355.182C246.913 354.781 246.351 354.58 245.627 354.58C245.119 354.58 244.635 354.663 244.177 354.827C243.719 354.985 243.364 355.203 243.114 355.483C243.572 355.483 243.934 355.608 244.199 355.859C244.471 356.102 244.607 356.392 244.607 356.729C244.607 357.18 244.46 357.549 244.166 357.835C243.873 358.114 243.522 358.254 243.114 358.254C242.691 358.254 242.322 358.107 242.007 357.814C241.692 357.513 241.535 357.08 241.535 356.514C241.535 355.891 241.903 355.243 242.641 354.569C242.999 354.247 243.479 353.982 244.08 353.775C244.689 353.56 245.359 353.452 246.089 353.452C246.676 353.452 247.21 353.517 247.69 353.646C248.17 353.775 248.606 353.986 249 354.279C249.387 354.566 249.688 354.967 249.903 355.483C250.118 355.998 250.225 356.607 250.225 357.309V362.25C250.225 362.529 250.257 362.798 250.322 363.056C250.393 363.306 250.529 363.536 250.73 363.743C250.938 363.951 251.192 364.055 251.493 364.055C252.402 364.055 252.857 363.417 252.857 362.143V360.542H254.028V361.928C254.028 363.36 253.734 364.341 253.147 364.871C252.86 365.129 252.549 365.312 252.212 365.419C251.876 365.526 251.482 365.58 251.031 365.58C250.551 365.58 250.103 365.487 249.688 365.301C249.273 365.115 248.918 364.814 248.624 364.399C248.316 363.976 248.137 363.475 248.087 362.895C247.779 363.675 247.257 364.32 246.519 364.828C245.788 365.33 244.997 365.58 244.145 365.58ZM244.703 364.033C245.176 364.033 245.663 363.894 246.164 363.614C246.673 363.328 247.092 362.97 247.421 362.54C247.751 362.118 247.915 361.706 247.915 361.305V359.017C247.457 359.468 246.927 359.873 246.326 360.231C245.731 360.589 245.244 360.854 244.865 361.026C244.478 361.197 244.145 361.434 243.866 361.734C243.586 362.035 243.447 362.401 243.447 362.83C243.447 363.188 243.55 363.478 243.758 363.7C243.973 363.922 244.288 364.033 244.703 364.033ZM254.468 365.29V364.087H256.563V354.967H254.468V353.764L258.539 353.581L258.829 356.095C259.009 355.486 259.334 354.913 259.807 354.376C260.058 354.097 260.366 353.875 260.731 353.71C261.096 353.538 261.494 353.452 261.923 353.452C262.503 353.452 263.001 353.613 263.416 353.936C263.839 354.258 264.05 354.713 264.05 355.3C264.05 355.859 263.885 356.292 263.556 356.6C263.234 356.908 262.851 357.062 262.407 357.062C261.991 357.062 261.633 356.933 261.332 356.675C261.032 356.417 260.881 356.07 260.881 355.633C260.881 355.483 260.917 355.329 260.989 355.171C261.06 355.013 261.132 354.892 261.203 354.806L261.322 354.688C260.892 354.688 260.512 354.824 260.183 355.096C259.861 355.361 259.606 355.715 259.42 356.159C259.055 357.047 258.872 358.032 258.872 359.113V364.087H261.289V365.29H254.468ZM269.647 365.58C269.038 365.58 268.469 365.451 267.939 365.193C267.409 364.936 266.979 364.553 266.65 364.044C266.328 363.528 266.166 362.887 266.166 362.121V354.967H263.975V354.462C264.526 354.297 265.028 354.004 265.479 353.581C265.93 353.151 266.288 352.69 266.553 352.195C266.775 351.794 266.936 351.479 267.036 351.25C267.137 351.014 267.237 350.777 267.337 350.541C267.438 350.305 267.592 349.986 267.799 349.585C267.95 349.277 268.082 349.123 268.197 349.123C268.383 349.123 268.476 349.248 268.476 349.499V353.764H272.708V354.988H268.476V362.186C268.476 362.816 268.619 363.289 268.906 363.604C269.192 363.919 269.572 364.076 270.044 364.076C270.617 364.076 271.05 363.89 271.344 363.518C271.638 363.138 271.785 362.476 271.785 361.53V359.984H273.074V361.305C273.074 362.723 272.819 363.79 272.311 364.506C271.81 365.222 270.922 365.58 269.647 365.58Z" fill="white"/>
<path d="M592.85 365.29V363.754H595.438V350.659H592.85V349.123H598.65L606.288 362.433V350.659H603.667V349.123H610.8V350.659H608.34V365.29H605.472L597.49 351.411V363.754H599.95V365.29H592.85ZM617.374 365.58C616.5 365.58 615.702 365.415 614.979 365.086C614.262 364.749 613.672 364.302 613.206 363.743C612.246 362.583 611.767 361.226 611.767 359.672C611.767 359.027 611.842 358.401 611.992 357.792C612.143 357.183 612.372 356.618 612.68 356.095C612.988 355.572 613.356 355.114 613.786 354.72C614.216 354.319 614.728 354.007 615.322 353.785C615.902 353.563 616.543 353.452 617.245 353.452C618.742 353.452 619.974 353.954 620.94 354.956C621.413 355.45 621.789 356.077 622.068 356.836C622.348 357.588 622.494 358.433 622.509 359.371H614.227V359.457C614.227 360.703 614.492 361.752 615.021 362.605C615.286 363.027 615.637 363.36 616.074 363.604C616.518 363.847 617.027 363.969 617.6 363.969C618.344 363.969 619.043 363.736 619.694 363.271C620.353 362.805 620.797 362.15 621.026 361.305L622.283 361.702C622.004 362.884 621.435 363.826 620.575 364.527C619.716 365.229 618.649 365.58 617.374 365.58ZM614.302 358.211H620.146C620.117 357.173 619.83 356.335 619.286 355.697C618.749 355.053 618.09 354.731 617.31 354.731C616.522 354.731 615.845 355.053 615.279 355.697C614.714 356.335 614.388 357.173 614.302 358.211ZM628.761 365.709C628.417 365.709 628.141 365.591 627.934 365.355C627.726 365.125 627.547 364.732 627.396 364.173L624.958 354.967H623.153V353.764H629.18V354.967H627.45L629.244 362.938L631.758 354.999H633.713L636.044 363.002L638.053 354.967H636.248V353.764H641.2V354.967H639.675L637.236 364.119C637.072 364.735 636.893 365.154 636.699 365.376C636.513 365.598 636.223 365.709 635.829 365.709C635.464 365.709 635.174 365.595 634.959 365.365C634.751 365.136 634.572 364.746 634.422 364.194L632.531 357.255L630.308 364.098C630.114 364.699 629.907 365.118 629.685 365.355C629.47 365.591 629.162 365.709 628.761 365.709ZM646.711 365.29V363.754H649.321V350.659H646.711V349.123H654.316V350.659H651.856V356.138H658.635V350.659H656.143V349.123H663.78V350.659H661.159V363.754H663.78V365.29H656.143V363.754H658.635V357.502H651.856V363.754H654.316V365.29H646.711ZM670.548 365.58C669.402 365.58 668.407 365.319 667.562 364.796C666.724 364.273 666.072 363.557 665.606 362.648C665.148 361.731 664.919 360.689 664.919 359.522C664.919 358.354 665.145 357.316 665.596 356.406C666.047 355.49 666.691 354.77 667.529 354.247C668.374 353.717 669.373 353.452 670.526 353.452C671.687 353.452 672.682 353.717 673.513 354.247C674.351 354.77 674.992 355.49 675.436 356.406C675.887 357.316 676.112 358.354 676.112 359.522C676.112 360.675 675.887 361.709 675.436 362.626C674.992 363.543 674.354 364.266 673.523 364.796C672.693 365.319 671.701 365.58 670.548 365.58ZM670.548 364.216C671.507 364.216 672.263 363.801 672.814 362.97C673.373 362.132 673.652 361.029 673.652 359.661C673.652 358.816 673.556 358.018 673.362 357.266C673.169 356.514 672.843 355.905 672.385 355.44C671.934 354.967 671.314 354.731 670.526 354.731C669.724 354.731 669.094 354.974 668.636 355.461C668.177 355.948 667.852 356.568 667.658 357.319C667.472 358.071 667.379 358.852 667.379 359.661C667.379 361.036 667.662 362.139 668.228 362.97C668.793 363.801 669.567 364.216 670.548 364.216ZM677.025 365.29V364.087H679.12V354.967H677.025V353.764L681.097 353.581L681.387 356.095C681.566 355.486 681.892 354.913 682.364 354.376C682.615 354.097 682.923 353.875 683.288 353.71C683.653 353.538 684.051 353.452 684.48 353.452C685.061 353.452 685.558 353.613 685.974 353.936C686.396 354.258 686.607 354.713 686.607 355.3C686.607 355.859 686.443 356.292 686.113 356.6C685.791 356.908 685.408 357.062 684.964 357.062C684.549 357.062 684.19 356.933 683.89 356.675C683.589 356.417 683.438 356.07 683.438 355.633C683.438 355.483 683.474 355.329 683.546 355.171C683.618 355.013 683.689 354.892 683.761 354.806L683.879 354.688C683.449 354.688 683.07 354.824 682.74 355.096C682.418 355.361 682.164 355.715 681.978 356.159C681.612 357.047 681.43 358.032 681.43 359.113V364.087H683.847V365.29H677.025ZM687.316 365.29V364.033H689.39V354.967H687.295V353.764H691.699V364.033H693.805V365.29H687.316ZM690.367 351.723C689.93 351.723 689.554 351.565 689.239 351.25C688.931 350.935 688.777 350.563 688.777 350.133C688.777 349.689 688.931 349.313 689.239 349.005C689.554 348.69 689.93 348.532 690.367 348.532C690.797 348.532 691.169 348.69 691.484 349.005C691.807 349.32 691.968 349.696 691.968 350.133C691.968 350.563 691.807 350.935 691.484 351.25C691.169 351.565 690.797 351.723 690.367 351.723ZM695.33 365.29L695.158 363.593L702.001 354.967H697.006V357.921H695.244V353.764H704.063L704.375 355.364L697.446 364.087H703.054V360.8H704.815V365.29H695.33ZM711.927 365.58C710.781 365.58 709.785 365.319 708.94 364.796C708.103 364.273 707.451 363.557 706.985 362.648C706.527 361.731 706.298 360.689 706.298 359.522C706.298 358.354 706.523 357.316 706.975 356.406C707.426 355.49 708.07 354.77 708.908 354.247C709.753 353.717 710.752 353.452 711.905 353.452C713.065 353.452 714.061 353.717 714.892 354.247C715.729 354.77 716.37 355.49 716.814 356.406C717.266 357.316 717.491 358.354 717.491 359.522C717.491 360.675 717.266 361.709 716.814 362.626C716.37 363.543 715.733 364.266 714.902 364.796C714.072 365.319 713.08 365.58 711.927 365.58ZM711.927 364.216C712.886 364.216 713.642 363.801 714.193 362.97C714.752 362.132 715.031 361.029 715.031 359.661C715.031 358.816 714.935 358.018 714.741 357.266C714.548 356.514 714.222 355.905 713.764 355.44C713.312 354.967 712.693 354.731 711.905 354.731C711.103 354.731 710.473 354.974 710.015 355.461C709.556 355.948 709.23 356.568 709.037 357.319C708.851 358.071 708.758 358.852 708.758 359.661C708.758 361.036 709.041 362.139 709.606 362.97C710.172 363.801 710.946 364.216 711.927 364.216ZM718.812 365.29V364.087H720.907V354.967H718.812V353.764L722.884 353.581L723.152 355.923C723.503 355.121 724.04 354.509 724.764 354.086C725.494 353.664 726.232 353.452 726.977 353.452C727.872 353.452 728.577 353.642 729.093 354.022C729.616 354.394 729.988 354.895 730.21 355.526C730.432 356.156 730.543 356.858 730.543 357.631V364.087H732.745V365.29H726.268V364.087H728.233V357.652C728.233 356.721 728.051 356.034 727.686 355.59C727.32 355.146 726.819 354.924 726.182 354.924C725.437 354.924 724.846 355.139 724.409 355.568C723.979 355.991 723.672 356.517 723.485 357.148C723.306 357.771 723.217 358.387 723.217 358.995V364.087H725.172V365.29H718.812ZM738.009 365.58C737.486 365.58 736.949 365.526 736.397 365.419C735.853 365.312 735.348 365.143 734.883 364.914C734.417 364.685 734.041 364.388 733.755 364.023C733.476 363.65 733.336 363.203 733.336 362.68C733.336 362.214 733.483 361.831 733.776 361.53C734.07 361.23 734.414 361.079 734.808 361.079C735.209 361.079 735.549 361.19 735.828 361.412C736.115 361.634 736.258 361.957 736.258 362.379C736.258 362.744 736.15 363.049 735.936 363.292C735.721 363.528 735.477 363.647 735.205 363.647C735.477 363.847 735.846 364.015 736.312 364.151C736.784 364.28 737.257 364.345 737.729 364.345C738.231 364.345 738.714 364.291 739.18 364.184C739.645 364.069 740.028 363.876 740.329 363.604C740.63 363.324 740.78 362.941 740.78 362.454C740.78 362.11 740.673 361.806 740.458 361.541C740.25 361.269 739.975 361.054 739.631 360.897C739.287 360.739 738.893 360.582 738.449 360.424C738.012 360.266 737.565 360.13 737.106 360.016C736.505 359.858 735.921 359.651 735.355 359.393C734.797 359.128 734.335 358.78 733.97 358.351C733.612 357.921 733.433 357.38 733.433 356.729C733.433 355.991 733.655 355.382 734.099 354.902C734.55 354.415 735.119 354.054 735.807 353.818C736.501 353.574 737.214 353.452 737.944 353.452C738.403 353.452 738.893 353.506 739.416 353.613C739.946 353.714 740.444 353.871 740.909 354.086C741.382 354.301 741.769 354.573 742.069 354.902C742.37 355.232 742.521 355.626 742.521 356.084C742.521 356.564 742.381 356.954 742.102 357.255C741.829 357.549 741.507 357.695 741.135 357.695C740.727 357.695 740.379 357.574 740.093 357.33C739.806 357.08 739.663 356.739 739.663 356.31C739.663 356.016 739.735 355.787 739.878 355.622C740.028 355.45 740.229 355.282 740.479 355.117C739.771 354.774 738.968 354.602 738.073 354.602C737.336 354.602 736.713 354.763 736.204 355.085C735.696 355.407 735.441 355.862 735.441 356.449C735.441 356.729 735.545 356.979 735.753 357.201C735.968 357.416 736.251 357.588 736.602 357.717C736.945 357.853 737.336 357.996 737.772 358.147C738.216 358.29 738.671 358.422 739.137 358.544C739.602 358.673 740.053 358.845 740.49 359.06C740.934 359.267 741.332 359.497 741.683 359.747C742.026 359.998 742.302 360.327 742.51 360.735C742.725 361.144 742.832 361.606 742.832 362.121C742.832 362.802 742.689 363.367 742.402 363.818C742.123 364.262 741.747 364.613 741.274 364.871C740.802 365.129 740.283 365.312 739.717 365.419C739.151 365.526 738.582 365.58 738.009 365.58Z" fill="white"/>
<g clip-path="url(#clip0_1_4590)">
<path d="M580.078 206.92C574.763 212.793 568.478 217.536 561.204 221.081C547.42 227.805 535.109 227.561 534.936 227.561H503.734C502.78 227.561 502 228.343 502 229.299V267.525C502 268.48 502.78 269.262 503.734 269.262H535.629C536.531 269.253 558.014 269.01 581.404 259.888C588.331 257.186 594.669 253.981 600.39 250.306C599.177 247.656 598.188 244.859 597.486 241.922C594.07 227.614 588.227 215.929 580.078 206.92Z" fill="black"/>
<path d="M803.266 203.514H776.2C778.853 194.861 780.214 185.861 780.214 176.721C780.214 126.463 739.415 85.5795 689.262 85.5795C643.799 85.5795 606.026 119.175 599.359 162.891C593.906 159.485 587.915 156.497 581.396 153.951C558.014 144.829 536.531 144.586 535.612 144.577H503.734C502.78 144.577 502 145.359 502 146.315V184.54C502 185.496 502.78 186.278 503.734 186.278H534.988C535.118 186.278 547.42 186.026 561.204 192.759C567.021 195.6 572.206 199.188 576.775 203.514H503.734C502.78 203.514 502 204.296 502 205.252C502 206.207 502.78 206.989 503.734 206.989H580.017C574.72 212.827 568.452 217.545 561.213 221.081C547.428 227.805 535.118 227.561 534.944 227.561H503.734C502.78 227.561 502 228.343 502 229.299V267.525C502 268.48 502.78 269.262 503.734 269.262H535.629C536.531 269.253 558.014 269.01 581.404 259.888C588.331 257.186 594.669 253.981 600.39 250.297C607.612 266.03 623.382 276.429 641.293 276.429H704V302.51C704 303.213 704.425 303.848 705.075 304.117C705.292 304.204 705.508 304.247 705.734 304.247C706.193 304.247 706.636 304.065 706.974 303.726L752.489 257.23C753.148 256.561 753.148 255.484 752.497 254.806L740.759 242.591H773.79C774.743 242.591 775.524 241.809 775.524 240.854C775.524 239.898 774.743 239.116 773.79 239.116H737.421L706.982 207.432C706.766 207.206 706.505 207.067 706.219 206.98H803.266C804.22 206.98 805 206.199 805 205.243C805 204.287 804.22 203.514 803.266 203.514ZM580.234 256.613C557.433 265.526 535.82 265.787 535.612 265.787H505.468V231.037H534.892C535.412 231.054 548.053 231.323 562.574 224.278C568.738 221.289 575.778 216.641 582.297 209.509C589.293 218.127 594.382 228.952 597.478 241.913C597.902 243.686 598.431 245.415 599.055 247.091C593.438 250.723 587.161 253.902 580.234 256.613ZM705.084 207.033C704.425 207.293 704 207.936 704 208.64V234.729H656.69C646.92 234.729 638.623 227.831 636.976 218.318C636.3 214.408 635.372 210.629 634.219 206.98H705.266C705.205 207.007 705.144 207.007 705.084 207.033Z" fill="white"/>
<path d="M790.357 178.068H803.023C803.977 178.068 804.757 177.286 804.757 176.331C804.757 175.375 803.977 174.593 803.023 174.593H790.357C789.404 174.593 788.623 175.375 788.623 176.331C788.623 177.286 789.404 178.068 790.357 178.068Z" fill="white"/>
<path d="M689.47 75.4237C690.424 75.4237 691.204 74.6418 691.204 73.6861V60.9935C691.204 60.0379 690.424 59.256 689.47 59.256C688.516 59.256 687.736 60.0379 687.736 60.9935V73.6861C687.736 74.6505 688.516 75.4237 689.47 75.4237Z" fill="white"/>
<path d="M763.889 107.924C764.331 107.924 764.773 107.75 765.112 107.411L774.067 98.4372C774.743 97.7595 774.743 96.6562 774.067 95.9786C773.391 95.3009 772.29 95.3009 771.614 95.9786L762.658 104.953C761.982 105.631 761.982 106.734 762.658 107.411C762.996 107.75 763.438 107.924 763.889 107.924Z" fill="white"/>
<path d="M614.695 107.411C615.033 107.75 615.475 107.924 615.918 107.924C616.36 107.924 616.802 107.75 617.14 107.411C617.816 106.734 617.816 105.631 617.14 104.953L608.184 95.9786C607.508 95.3009 606.407 95.3009 605.731 95.9786C605.055 96.6562 605.055 97.7595 605.731 98.4372L614.695 107.411Z" fill="white"/>
<path d="M677.731 250.167C677.731 251.001 677.619 251.757 677.385 252.443C677.15 253.129 676.873 253.763 676.535 254.345C676.206 254.928 675.841 255.431 675.443 255.866C675.044 256.3 674.688 256.674 674.368 256.978C673.717 257.569 673.05 258.142 672.348 258.698C671.654 259.254 670.978 259.714 670.328 260.079H675.026C675.252 260.079 675.434 260.166 675.573 260.34C675.711 260.514 675.763 260.713 675.729 260.931L675.425 262.668C675.382 262.894 675.278 263.085 675.096 263.259C674.914 263.433 674.714 263.52 674.489 263.52H665.386C665.161 263.52 664.978 263.433 664.84 263.259C664.701 263.085 664.649 262.885 664.692 262.668L664.909 261.452C664.952 261.165 665.013 260.931 665.109 260.74C665.195 260.548 665.36 260.357 665.577 260.175C665.941 259.888 666.357 259.549 666.825 259.158C667.293 258.759 667.779 258.342 668.282 257.899C668.784 257.456 669.287 256.995 669.781 256.535C670.276 256.066 670.726 255.623 671.134 255.197C671.845 254.424 672.426 253.668 672.876 252.929C673.327 252.191 673.561 251.374 673.561 250.479C673.561 249.706 673.371 249.185 672.998 248.898C672.625 248.612 672.165 248.473 671.619 248.473C671.03 248.473 670.475 248.577 669.937 248.777C669.4 248.976 668.949 249.185 668.585 249.385C668.386 249.489 668.178 249.515 667.978 249.48C667.779 249.437 667.623 249.298 667.519 249.055L666.938 247.387C666.86 247.161 666.868 246.952 666.981 246.761C667.094 246.57 667.25 246.414 667.449 246.292C667.831 246.049 668.429 245.762 669.227 245.441C670.024 245.119 670.969 244.954 672.061 244.954C673.761 244.954 675.13 245.388 676.171 246.257C677.211 247.126 677.731 248.42 677.731 250.167Z" fill="black"/>
<path d="M691.299 250.862C691.299 251.652 691.239 252.521 691.134 253.459C691.03 254.398 690.874 255.336 690.684 256.257C690.493 257.178 690.25 258.046 689.973 258.854C689.687 259.662 689.375 260.323 689.036 260.835C688.75 261.261 688.447 261.652 688.126 262.008C687.805 262.364 687.433 262.668 687.016 262.92C686.6 263.172 686.141 263.372 685.638 263.511C685.135 263.65 684.546 263.728 683.878 263.728C682.014 263.728 680.705 263.216 679.951 262.19C679.197 261.165 678.815 259.706 678.815 257.794C678.815 256.821 678.884 255.822 679.014 254.797C679.145 253.772 679.335 252.782 679.578 251.835C679.821 250.879 680.116 249.993 680.462 249.176C680.809 248.36 681.199 247.656 681.65 247.065C682.725 245.649 684.251 244.937 686.228 244.937C689.6 244.937 691.299 246.909 691.299 250.862ZM687.355 250.983C687.355 249.95 687.242 249.211 687.025 248.759C686.8 248.316 686.488 248.09 686.089 248.09C685.768 248.09 685.491 248.177 685.265 248.36C685.04 248.542 684.832 248.803 684.632 249.15C684.407 249.533 684.19 250.08 683.965 250.792C683.739 251.505 683.549 252.269 683.375 253.086C683.202 253.902 683.063 254.719 682.95 255.536C682.838 256.344 682.786 257.047 682.786 257.638C682.786 258.672 682.89 259.41 683.089 259.845C683.289 260.279 683.592 260.496 683.999 260.496C684.346 260.496 684.658 260.366 684.953 260.114C685.248 259.862 685.508 259.497 685.725 259.037C685.889 258.715 686.063 258.238 686.254 257.621C686.444 257.004 686.626 256.318 686.782 255.57C686.938 254.823 687.077 254.041 687.19 253.242C687.303 252.443 687.355 251.696 687.355 250.983Z" fill="black"/>
<path d="M705.04 250.167C705.04 251.001 704.928 251.757 704.694 252.443C704.46 253.129 704.182 253.763 703.844 254.345C703.515 254.928 703.15 255.431 702.752 255.866C702.353 256.3 701.997 256.674 701.677 256.978C701.026 257.569 700.359 258.142 699.657 258.698C698.963 259.254 698.287 259.714 697.637 260.079H702.336C702.561 260.079 702.743 260.166 702.882 260.34C703.02 260.514 703.072 260.713 703.038 260.931L702.734 262.668C702.691 262.894 702.587 263.085 702.405 263.259C702.223 263.433 702.023 263.52 701.798 263.52H692.695C692.47 263.52 692.288 263.433 692.149 263.259C692.01 263.085 691.958 262.885 692.001 262.668L692.218 261.452C692.262 261.165 692.322 260.931 692.418 260.74C692.504 260.548 692.669 260.357 692.886 260.175C693.25 259.888 693.666 259.549 694.134 259.158C694.602 258.759 695.088 258.342 695.591 257.899C696.093 257.456 696.596 256.995 697.09 256.535C697.585 256.066 698.035 255.623 698.443 255.197C699.154 254.424 699.735 253.668 700.185 252.929C700.636 252.191 700.87 251.374 700.87 250.479C700.87 249.706 700.68 249.185 700.307 248.898C699.934 248.612 699.475 248.473 698.928 248.473C698.339 248.473 697.784 248.577 697.247 248.777C696.709 248.976 696.258 249.185 695.894 249.385C695.695 249.489 695.487 249.515 695.287 249.48C695.088 249.437 694.932 249.298 694.828 249.055L694.247 247.387C694.169 247.161 694.178 246.952 694.29 246.761C694.403 246.57 694.559 246.414 694.758 246.292C695.14 246.049 695.738 245.762 696.536 245.441C697.333 245.119 698.278 244.954 699.371 244.954C701.07 244.954 702.44 245.388 703.48 246.257C704.52 247.126 705.04 248.42 705.04 250.167Z" fill="black"/>
<path d="M714.828 254.111L718.027 262.538C718.131 262.807 718.123 263.033 718.001 263.224C717.88 263.415 717.672 263.511 717.386 263.511H714.863C714.612 263.511 714.403 263.45 714.247 263.337C714.083 263.224 713.979 263.077 713.927 262.894L712.21 256.995L708.526 262.894C708.404 263.094 708.257 263.242 708.092 263.355C707.927 263.459 707.728 263.52 707.476 263.52H704.685C704.399 263.52 704.208 263.433 704.104 263.25C704.009 263.068 704.052 262.842 704.251 262.547L710.381 253.928L707.615 246.44C707.529 246.17 707.546 245.944 707.685 245.753C707.823 245.562 708.031 245.467 708.317 245.467H710.875C711.126 245.467 711.326 245.527 711.464 245.64C711.612 245.753 711.707 245.901 711.759 246.084L713.103 250.983L715.955 246.084C716.189 245.675 716.536 245.467 717.004 245.467H719.692C719.978 245.467 720.169 245.554 720.273 245.736C720.368 245.918 720.325 246.153 720.125 246.44L714.828 254.111Z" fill="black"/>
<path d="M526.777 243.79C526.751 244.563 526.587 245.258 526.283 245.892C525.98 246.518 525.59 247.065 525.104 247.508C524.627 247.96 524.081 248.316 523.474 248.577C522.868 248.837 522.252 248.994 521.619 249.037C522.122 249.194 522.564 249.48 522.954 249.906C523.344 250.332 523.63 250.853 523.813 251.487C523.917 251.896 524.047 252.408 524.185 253.016C524.324 253.633 524.463 254.259 524.593 254.901C524.723 255.544 524.844 256.161 524.957 256.735C525.07 257.317 525.148 257.768 525.2 258.099C525.269 258.446 525.252 258.733 525.156 258.95C525.061 259.167 524.81 259.271 524.402 259.263L522.009 259.184C521.706 259.176 521.463 259.098 521.29 258.967C521.116 258.828 521.004 258.568 520.952 258.177C520.9 257.786 520.848 257.36 520.778 256.891C520.709 256.422 520.639 255.935 520.57 255.44C520.492 254.936 520.405 254.441 520.301 253.937C520.197 253.433 520.076 252.973 519.955 252.538C519.755 251.887 519.469 251.34 519.114 250.896C518.758 250.453 518.169 250.228 517.362 250.201L516.695 250.175L515.039 258.125C514.987 258.342 514.874 258.533 514.701 258.689C514.527 258.846 514.328 258.924 514.103 258.915L511.614 258.837C511.389 258.828 511.216 258.741 511.077 258.576C510.938 258.411 510.895 258.211 510.947 257.994L514.831 239.385C514.874 239.168 514.987 238.977 515.169 238.821C515.342 238.664 515.542 238.586 515.767 238.595L521.316 238.777C522.425 238.812 523.344 238.994 524.064 239.307C524.784 239.629 525.347 240.028 525.754 240.506C526.162 240.984 526.439 241.514 526.587 242.087C526.734 242.652 526.795 243.225 526.777 243.79ZM522.443 244.502C522.469 243.833 522.321 243.303 522.009 242.904C521.697 242.504 521.177 242.296 520.449 242.278L518.385 242.209L517.345 247.161L519.131 247.222C520.041 247.256 520.813 247.03 521.446 246.553C522.087 246.075 522.417 245.397 522.443 244.502Z" fill="white"/>
<path d="M539.426 247.943C539.47 249.081 539.314 250.002 538.958 250.714C538.603 251.426 538.074 252 537.389 252.417C536.695 252.842 535.855 253.147 534.875 253.338C533.895 253.529 532.794 253.668 531.58 253.755C531.615 254.015 531.667 254.267 531.762 254.51C531.849 254.754 531.988 254.962 532.17 255.153C532.352 255.345 532.577 255.484 532.855 255.579C533.132 255.683 533.479 255.718 533.904 255.709C534.589 255.683 535.178 255.579 535.655 255.414C536.132 255.24 536.591 255.067 537.034 254.884C537.51 254.702 537.805 254.849 537.901 255.336L538.239 256.908C538.291 257.169 538.256 257.386 538.126 257.569C537.996 257.751 537.849 257.89 537.675 257.994C537.164 258.281 536.522 258.533 535.759 258.767C534.996 259.002 534.121 259.132 533.132 259.176C531.476 259.237 530.133 258.802 529.101 257.855C528.069 256.908 527.514 255.414 527.436 253.372C527.393 252.26 527.488 251.148 527.731 250.028C527.974 248.916 528.373 247.908 528.936 247.013C529.5 246.118 530.211 245.388 531.086 244.815C531.953 244.242 532.994 243.938 534.207 243.886C535.802 243.825 537.06 244.129 537.979 244.806C538.889 245.475 539.374 246.527 539.426 247.943ZM535.655 248.394C535.638 247.925 535.508 247.578 535.282 247.326C535.048 247.083 534.701 246.97 534.233 246.987C533.852 247.004 533.514 247.135 533.219 247.378C532.924 247.621 532.673 247.934 532.465 248.316C532.257 248.698 532.083 249.133 531.936 249.619C531.788 250.097 531.693 250.584 531.632 251.079C533.08 250.879 534.121 250.575 534.753 250.167C535.378 249.75 535.681 249.159 535.655 248.394Z" fill="white"/>
<path d="M550.506 246.249C550.428 246.44 550.307 246.57 550.151 246.64C549.994 246.709 549.812 246.692 549.596 246.596C549.422 246.518 549.128 246.388 548.711 246.223C548.295 246.057 547.853 246.005 547.394 246.057C546.873 246.118 546.44 246.335 546.093 246.718C545.746 247.091 545.478 247.56 545.278 248.116C545.079 248.672 544.949 249.281 544.897 249.941C544.845 250.601 544.853 251.244 544.923 251.87C545.027 252.773 545.261 253.459 545.634 253.911C546.006 254.372 546.631 254.545 547.515 254.441C547.853 254.398 548.209 254.328 548.573 254.206C548.937 254.094 549.266 253.972 549.552 253.833C549.769 253.746 549.96 253.729 550.142 253.781C550.324 253.833 550.428 253.998 550.463 254.276L550.688 255.935C550.749 256.422 550.575 256.769 550.168 256.978C549.726 257.23 549.232 257.456 548.685 257.638C548.139 257.821 547.532 257.96 546.865 258.038C545.235 258.229 543.891 257.899 542.825 257.039C541.758 256.187 541.108 254.728 540.865 252.677C540.718 251.392 540.744 250.167 540.943 249.011C541.143 247.856 541.507 246.831 542.027 245.945C542.547 245.058 543.215 244.329 544.047 243.747C544.879 243.173 545.842 242.817 546.951 242.687C547.836 242.582 548.581 242.617 549.18 242.782C549.778 242.947 550.298 243.147 550.731 243.382C551.191 243.634 551.338 243.972 551.182 244.398L550.506 246.249Z" fill="white"/>
<path d="M564.689 253.485C564.698 253.711 564.655 253.92 564.542 254.111C564.429 254.302 564.256 254.424 564.022 254.485L561.69 255.032C561.473 255.084 561.282 255.041 561.117 254.919C560.953 254.789 560.866 254.615 560.857 254.389L560.381 246.197C560.363 245.849 560.346 245.519 560.32 245.215C560.303 244.911 560.259 244.624 560.198 244.372C560.129 244.094 560.034 243.877 559.904 243.721C559.774 243.564 559.583 243.512 559.323 243.573C558.985 243.651 558.69 243.972 558.421 244.528C558.161 245.093 557.936 245.832 557.745 246.761C557.554 247.691 557.424 248.785 557.355 250.036C557.286 251.296 557.294 252.651 557.381 254.102L557.45 255.18C557.476 255.736 557.251 256.066 556.783 256.179L554.451 256.726C554.234 256.778 554.043 256.735 553.878 256.613C553.714 256.491 553.627 256.309 553.618 256.083L552.5 235.919C552.491 235.693 552.543 235.485 552.665 235.285C552.786 235.094 552.951 234.963 553.168 234.92L555.5 234.373C555.716 234.321 555.907 234.364 556.072 234.486C556.237 234.616 556.323 234.79 556.332 235.016L556.835 243.833C557.129 242.765 557.546 241.905 558.1 241.245C558.655 240.584 559.375 240.15 560.259 239.941C561.161 239.733 561.941 239.855 562.574 240.324C563.215 240.793 563.666 241.601 563.935 242.765C563.996 243.026 564.048 243.295 564.091 243.573C564.134 243.851 564.169 244.155 564.178 244.485L564.689 253.485Z" fill="white"/>
<path d="M572.449 237.908C572.561 238.456 572.396 238.812 571.972 238.986L570.68 239.516L572.266 247.004C572.353 247.491 572.57 247.665 572.908 247.534C573.038 247.482 573.159 247.421 573.272 247.352C573.385 247.282 573.48 247.213 573.558 247.135C573.697 247.039 573.853 246.996 574.035 247.022C574.217 247.048 574.356 247.169 574.451 247.395L575.162 249.072C575.318 249.446 575.223 249.793 574.893 250.097C574.668 250.297 574.408 250.523 574.096 250.766C573.792 251.009 573.428 251.218 573.021 251.383C572.136 251.739 571.347 251.8 570.637 251.565C569.926 251.331 569.379 250.731 568.998 249.776C568.885 249.489 568.781 249.15 568.686 248.759L567.021 240.993L566.094 241.366C565.886 241.453 565.686 241.444 565.496 241.349C565.305 241.253 565.183 241.097 565.14 240.871L564.863 239.542C564.819 239.316 564.828 239.107 564.897 238.899C564.967 238.699 565.123 238.543 565.366 238.447L566.38 238.039L565.686 234.781C565.617 234.503 565.591 234.242 565.617 233.99C565.643 233.738 565.773 233.53 566.033 233.365L567.975 232.018C568.278 231.81 568.539 231.758 568.747 231.871C568.955 231.984 569.093 232.209 569.171 232.548L570.038 236.562L571.243 236.075C571.452 235.989 571.642 235.997 571.824 236.101C572.006 236.206 572.119 236.362 572.171 236.588L572.449 237.908Z" fill="white"/>
<path d="M634.193 206.92C635.355 203.253 636.291 199.448 636.976 195.513C638.623 186.009 646.92 179.102 656.69 179.102H704V205.234C704 205.947 704.434 206.581 705.084 206.85C705.205 206.902 705.335 206.92 705.465 206.937C705.656 206.911 705.847 206.902 706.029 206.937C706.384 206.876 706.714 206.711 706.974 206.442L752.489 159.025C753.139 158.347 753.13 157.27 752.48 156.601L706.965 110.122C706.471 109.618 705.725 109.462 705.075 109.731C704.425 110 704 110.635 704 111.338V137.401H641.293C623.382 137.401 607.612 147.8 600.391 163.534C617.019 174.219 628.48 188.893 634.193 206.92Z" fill="black"/>
<path d="M677.688 155.941C677.688 156.775 677.575 157.53 677.341 158.217C677.107 158.903 676.83 159.537 676.492 160.119C676.162 160.701 675.798 161.205 675.399 161.64C675 162.074 674.645 162.448 674.324 162.752C673.674 163.342 673.006 163.916 672.304 164.472C671.611 165.028 670.934 165.488 670.284 165.853H674.983C675.209 165.853 675.391 165.94 675.529 166.114C675.668 166.288 675.72 166.487 675.685 166.705L675.382 168.442C675.339 168.668 675.235 168.859 675.052 169.033C674.87 169.207 674.671 169.294 674.446 169.294H665.343C665.117 169.294 664.935 169.207 664.796 169.033C664.658 168.859 664.606 168.659 664.649 168.442L664.866 167.226C664.909 166.939 664.97 166.705 665.065 166.513C665.152 166.322 665.317 166.131 665.533 165.949C665.897 165.662 666.314 165.323 666.782 164.932C667.25 164.533 667.735 164.116 668.238 163.673C668.741 163.23 669.244 162.769 669.738 162.309C670.232 161.84 670.683 161.396 671.09 160.971C671.801 160.198 672.382 159.442 672.833 158.703C673.284 157.965 673.518 157.148 673.518 156.253C673.518 155.48 673.327 154.959 672.954 154.672C672.582 154.386 672.122 154.247 671.576 154.247C670.986 154.247 670.432 154.351 669.894 154.551C669.357 154.75 668.906 154.959 668.542 155.159C668.342 155.263 668.134 155.289 667.935 155.246C667.735 155.202 667.579 155.063 667.475 154.82L666.894 153.152C666.816 152.926 666.825 152.718 666.938 152.526C667.05 152.335 667.207 152.179 667.406 152.057C667.787 151.814 668.386 151.527 669.183 151.206C669.981 150.884 670.926 150.719 672.018 150.719C673.717 150.719 675.087 151.154 676.127 152.023C677.168 152.891 677.688 154.203 677.688 155.941Z" fill="white"/>
<path d="M691.256 156.644C691.256 157.435 691.195 158.304 691.091 159.242C690.987 160.18 690.831 161.118 690.64 162.039C690.45 162.96 690.207 163.829 689.929 164.637C689.643 165.445 689.331 166.105 688.993 166.609C688.707 167.035 688.404 167.426 688.083 167.782C687.762 168.138 687.389 168.442 686.973 168.694C686.557 168.946 686.097 169.146 685.595 169.285C685.092 169.424 684.502 169.502 683.835 169.502C681.971 169.502 680.662 168.989 679.907 167.964C679.145 166.939 678.772 165.48 678.772 163.568C678.772 162.595 678.841 161.596 678.971 160.571C679.101 159.546 679.292 158.556 679.535 157.609C679.777 156.653 680.072 155.767 680.419 154.95C680.766 154.134 681.156 153.421 681.607 152.839C682.682 151.423 684.208 150.711 686.184 150.711C689.557 150.719 691.256 152.691 691.256 156.644ZM687.311 156.766C687.311 155.732 687.199 154.994 686.982 154.542C686.756 154.099 686.444 153.873 686.045 153.873C685.725 153.873 685.447 153.96 685.222 154.142C684.996 154.325 684.788 154.585 684.589 154.933C684.364 155.315 684.147 155.862 683.921 156.575C683.696 157.287 683.505 158.052 683.332 158.868C683.159 159.685 683.02 160.502 682.907 161.318C682.794 162.126 682.742 162.83 682.742 163.421C682.742 164.455 682.846 165.193 683.046 165.627C683.245 166.062 683.549 166.279 683.956 166.279C684.303 166.279 684.615 166.149 684.91 165.897C685.205 165.645 685.465 165.28 685.681 164.819C685.846 164.498 686.019 164.02 686.21 163.403C686.401 162.787 686.583 162.1 686.739 161.353C686.895 160.606 687.034 159.824 687.146 159.025C687.251 158.234 687.311 157.478 687.311 156.766Z" fill="white"/>
<path d="M704.997 155.941C704.997 156.775 704.884 157.53 704.65 158.217C704.416 158.903 704.139 159.537 703.801 160.119C703.471 160.701 703.107 161.205 702.708 161.64C702.309 162.074 701.954 162.448 701.633 162.752C700.983 163.342 700.315 163.916 699.613 164.472C698.92 165.028 698.243 165.488 697.593 165.853H702.292C702.517 165.853 702.7 165.94 702.838 166.114C702.977 166.288 703.029 166.487 702.994 166.705L702.691 168.442C702.648 168.668 702.543 168.859 702.361 169.033C702.179 169.207 701.98 169.294 701.755 169.294H692.652C692.426 169.294 692.244 169.207 692.105 169.033C691.967 168.859 691.915 168.659 691.958 168.442L692.175 167.226C692.218 166.939 692.279 166.705 692.374 166.513C692.461 166.322 692.626 166.131 692.842 165.949C693.206 165.662 693.623 165.323 694.091 164.932C694.559 164.533 695.044 164.116 695.547 163.673C696.05 163.23 696.553 162.769 697.047 162.309C697.541 161.84 697.992 161.396 698.399 160.971C699.11 160.198 699.691 159.442 700.142 158.703C700.593 157.965 700.827 157.148 700.827 156.253C700.827 155.48 700.636 154.959 700.263 154.672C699.891 154.386 699.431 154.247 698.885 154.247C698.295 154.247 697.741 154.351 697.203 154.551C696.666 154.75 696.215 154.959 695.851 155.159C695.651 155.263 695.443 155.289 695.244 155.246C695.044 155.202 694.888 155.063 694.784 154.82L694.203 153.152C694.125 152.926 694.134 152.718 694.247 152.526C694.359 152.335 694.516 152.179 694.715 152.057C695.096 151.814 695.695 151.527 696.492 151.206C697.29 150.884 698.235 150.719 699.327 150.719C701.026 150.719 702.396 151.154 703.436 152.023C704.477 152.891 704.997 154.203 704.997 155.941Z" fill="white"/>
<path d="M714.785 159.893L717.984 168.32C718.088 168.59 718.079 168.816 717.958 169.007C717.837 169.198 717.629 169.293 717.342 169.293H714.82C714.568 169.293 714.36 169.233 714.204 169.12C714.039 169.007 713.935 168.859 713.883 168.677L712.167 162.778L708.482 168.677C708.361 168.876 708.213 169.024 708.049 169.137C707.884 169.241 707.685 169.302 707.433 169.302H704.642C704.355 169.302 704.165 169.215 704.061 169.033C703.965 168.85 704.009 168.616 704.208 168.329L710.337 159.711L707.572 152.222C707.485 151.953 707.502 151.727 707.641 151.536C707.78 151.345 707.988 151.249 708.274 151.249H710.832C711.083 151.249 711.282 151.31 711.421 151.423C711.56 151.536 711.664 151.692 711.716 151.866L713.06 156.766L715.912 151.866C716.146 151.449 716.493 151.249 716.961 151.249H719.649C719.935 151.249 720.125 151.336 720.229 151.519C720.325 151.701 720.281 151.936 720.082 152.222L714.785 159.893Z" fill="white"/>
<path d="M526.249 158.677C525.98 159.077 525.642 159.138 525.217 158.851C525.096 158.773 524.922 158.643 524.706 158.486C524.489 158.33 524.22 158.156 523.917 157.991C523.613 157.826 523.258 157.687 522.842 157.557C522.425 157.426 521.966 157.365 521.463 157.365C520.492 157.357 519.669 157.67 518.984 158.304C518.299 158.938 517.735 159.728 517.284 160.667C516.834 161.605 516.504 162.621 516.296 163.716C516.088 164.811 515.975 165.801 515.975 166.696C515.967 168.277 516.218 169.433 516.73 170.154C517.241 170.875 518.056 171.24 519.166 171.248C519.426 171.248 519.721 171.231 520.05 171.196C520.371 171.161 520.648 171.109 520.874 171.048L521.784 166.218L519.721 166.201C519.46 166.201 519.27 166.114 519.148 165.94C519.027 165.766 518.992 165.567 519.027 165.349L519.339 163.56C519.382 163.299 519.495 163.091 519.677 162.943C519.859 162.795 520.067 162.717 520.284 162.717L525.625 162.752C525.85 162.752 526.032 162.839 526.171 163.012C526.309 163.186 526.361 163.386 526.318 163.603L524.68 172.595C524.619 172.942 524.506 173.238 524.341 173.49C524.177 173.742 523.839 173.95 523.336 174.107C522.807 174.263 522.165 174.419 521.402 174.584C520.64 174.741 519.79 174.819 518.836 174.81C517.545 174.802 516.443 174.61 515.533 174.228C514.623 173.846 513.886 173.307 513.314 172.621C512.742 171.926 512.325 171.118 512.074 170.18C511.814 169.241 511.693 168.208 511.701 167.078C511.71 165.514 511.909 163.951 512.291 162.387C512.672 160.814 513.262 159.407 514.059 158.156C514.857 156.905 515.88 155.889 517.128 155.107C518.377 154.325 519.868 153.943 521.611 153.951C522.46 153.96 523.197 154.038 523.821 154.194C524.445 154.351 524.983 154.533 525.425 154.733C525.867 154.942 526.231 155.15 526.509 155.376C526.795 155.602 527.012 155.776 527.176 155.897C527.575 156.227 527.645 156.592 527.384 156.992L526.249 158.677Z" fill="black"/>
<path d="M539.843 164.255C539.808 165.393 539.582 166.296 539.175 166.983C538.768 167.669 538.204 168.199 537.484 168.572C536.765 168.946 535.907 169.189 534.91 169.311C533.913 169.433 532.812 169.493 531.598 169.493C531.607 169.754 531.65 170.015 531.728 170.258C531.797 170.501 531.919 170.727 532.083 170.927C532.248 171.127 532.465 171.283 532.734 171.405C533.002 171.526 533.349 171.596 533.774 171.604C534.459 171.631 535.048 171.57 535.542 171.431C536.037 171.292 536.505 171.153 536.956 171.005C537.45 170.857 537.727 171.031 537.788 171.518L538.005 173.107C538.039 173.377 537.987 173.585 537.849 173.759C537.71 173.924 537.554 174.054 537.363 174.15C536.826 174.393 536.175 174.61 535.404 174.784C534.632 174.958 533.748 175.036 532.76 175.001C531.104 174.949 529.795 174.411 528.832 173.394C527.87 172.378 527.428 170.849 527.497 168.798C527.532 167.686 527.714 166.583 528.035 165.488C528.355 164.394 528.824 163.421 529.448 162.569C530.072 161.718 530.835 161.04 531.745 160.528C532.656 160.024 533.713 159.789 534.927 159.824C536.522 159.876 537.753 160.276 538.62 161.014C539.478 161.761 539.895 162.839 539.843 164.255ZM536.045 164.428C536.063 163.959 535.959 163.603 535.751 163.343C535.534 163.082 535.196 162.943 534.736 162.926C534.355 162.917 534.008 163.021 533.696 163.238C533.384 163.464 533.115 163.76 532.881 164.124C532.647 164.489 532.439 164.915 532.265 165.384C532.083 165.853 531.953 166.331 531.858 166.818C533.314 166.722 534.381 166.496 535.04 166.131C535.673 165.766 536.019 165.202 536.045 164.428Z" fill="black"/>
<path d="M550.87 164.819C550.749 164.967 550.575 165.08 550.359 165.158C550.133 165.236 549.934 165.202 549.743 165.054C549.535 164.889 549.24 164.672 548.859 164.394C548.469 164.124 548.001 163.951 547.437 163.89C547.099 163.846 546.795 163.899 546.544 164.046C546.293 164.194 546.145 164.42 546.111 164.741C546.067 165.123 546.241 165.488 546.639 165.827C547.038 166.175 547.48 166.566 547.983 167.009C548.278 167.269 548.564 167.547 548.85 167.843C549.128 168.138 549.379 168.486 549.587 168.868C549.795 169.25 549.951 169.667 550.064 170.119C550.177 170.571 550.194 171.066 550.133 171.613C549.925 173.342 549.31 174.524 548.278 175.158C547.246 175.792 545.929 176.009 544.316 175.818C543.215 175.688 542.261 175.401 541.464 174.975C540.666 174.55 540.007 174.133 539.487 173.742C539.097 173.429 539.045 173.055 539.348 172.621L540.311 171.17C540.441 170.962 540.588 170.814 540.761 170.736C540.935 170.658 541.134 170.692 541.36 170.84C541.542 170.988 541.767 171.144 542.019 171.318C542.27 171.492 542.539 171.657 542.816 171.813C543.094 171.969 543.38 172.108 543.683 172.239C543.987 172.369 544.273 172.447 544.559 172.482C545.46 172.586 545.955 172.273 546.05 171.526C546.093 171.127 545.955 170.762 545.625 170.449C545.296 170.136 544.897 169.78 544.437 169.372C544.125 169.111 543.813 168.824 543.501 168.529C543.189 168.225 542.912 167.895 542.669 167.53C542.426 167.165 542.244 166.757 542.114 166.296C541.984 165.845 541.949 165.341 542.019 164.802C542.114 164.02 542.322 163.351 542.651 162.813C542.981 162.274 543.397 161.84 543.909 161.527C544.411 161.205 544.992 161.006 545.634 160.901C546.275 160.806 546.96 160.797 547.68 160.884C548.642 160.997 549.44 161.214 550.081 161.536C550.714 161.857 551.191 162.17 551.494 162.474C551.659 162.639 551.78 162.821 551.858 163.021C551.937 163.221 551.902 163.429 551.754 163.638L550.87 164.819Z" fill="black"/>
<path d="M564.941 169.354C564.646 170.449 564.213 171.283 563.658 171.856C563.103 172.43 562.435 172.812 561.646 173.003C560.857 173.194 559.964 173.238 558.976 173.125C557.979 173.012 556.887 172.812 555.708 172.525C555.656 172.786 555.638 173.047 555.656 173.299C555.673 173.551 555.734 173.802 555.846 174.028C555.959 174.263 556.133 174.463 556.367 174.645C556.601 174.828 556.921 174.975 557.329 175.08C557.988 175.262 558.577 175.34 559.089 175.323C559.6 175.305 560.086 175.279 560.563 175.236C561.074 175.21 561.308 175.436 561.256 175.931L561.1 177.529C561.065 177.799 560.97 177.99 560.797 178.12C560.623 178.251 560.433 178.346 560.233 178.39C559.652 178.502 558.967 178.555 558.179 178.555C557.381 178.546 556.505 178.416 555.552 178.146C553.948 177.712 552.803 176.887 552.11 175.67C551.416 174.463 551.33 172.864 551.876 170.892C552.171 169.815 552.595 168.781 553.159 167.791C553.722 166.8 554.407 165.966 555.214 165.28C556.02 164.594 556.921 164.116 557.918 163.829C558.915 163.542 560.008 163.568 561.178 163.89C562.721 164.316 563.822 164.985 564.499 165.905C565.166 166.844 565.314 167.99 564.941 169.354ZM561.196 168.651C561.317 168.199 561.308 167.825 561.161 167.521C561.013 167.217 560.71 167.009 560.268 166.878C559.895 166.774 559.531 166.8 559.184 166.939C558.829 167.087 558.499 167.304 558.187 167.608C557.875 167.912 557.572 168.268 557.294 168.685C557.008 169.102 556.765 169.537 556.566 169.98C558.005 170.232 559.089 170.249 559.817 170.049C560.528 169.867 560.996 169.389 561.196 168.651Z" fill="black"/>
<path d="M574.616 171.483C574.321 171.952 573.957 172.108 573.524 171.935L572.223 171.431L568.253 177.973C567.984 178.39 568.019 178.668 568.357 178.798C568.487 178.85 568.617 178.893 568.747 178.92C568.877 178.946 568.998 178.963 569.102 178.963C569.267 178.98 569.406 179.067 569.527 179.206C569.648 179.345 569.657 179.536 569.57 179.762L568.937 181.474C568.79 181.856 568.487 182.038 568.036 182.038C567.732 182.03 567.386 182.012 567.004 181.978C566.614 181.943 566.215 181.847 565.799 181.691C564.915 181.343 564.291 180.839 563.944 180.179C563.588 179.519 563.606 178.711 563.979 177.747C564.091 177.46 564.247 177.147 564.447 176.791L568.547 170.006L567.611 169.641C567.403 169.563 567.264 169.415 567.186 169.215C567.117 169.016 567.134 168.816 567.256 168.625L567.967 167.469C568.088 167.278 568.235 167.13 568.435 167.026C568.625 166.931 568.842 166.922 569.085 167.017L570.099 167.417L571.824 164.568C571.963 164.316 572.128 164.107 572.31 163.942C572.492 163.777 572.735 163.716 573.047 163.768L575.388 164.124C575.752 164.185 575.977 164.324 576.055 164.55C576.133 164.776 576.081 165.037 575.899 165.332L573.784 168.851L574.997 169.328C575.206 169.407 575.344 169.546 575.405 169.745C575.466 169.945 575.44 170.136 575.327 170.336L574.616 171.483Z" fill="black"/>
<path d="M586.493 177.877C586.328 178.085 586.155 178.251 585.956 178.364C585.756 178.476 585.566 178.572 585.384 178.659L576.879 182.23C576.61 182.342 576.298 182.429 575.925 182.49C575.552 182.551 575.275 182.594 575.084 182.603C575.197 182.647 575.37 182.716 575.596 182.829C575.821 182.942 576.02 183.037 576.176 183.124L579.904 185.157C580.104 185.261 580.225 185.427 580.268 185.635C580.312 185.844 580.268 186.035 580.13 186.217L579.28 187.277C579.141 187.451 578.942 187.564 578.699 187.616C578.457 187.668 578.231 187.642 578.04 187.529L570.498 183.42C570.299 183.315 570.186 183.159 570.151 182.951C570.116 182.742 570.168 182.551 570.307 182.377L571.191 181.265C571.33 181.091 571.495 180.944 571.677 180.822C571.859 180.7 572.067 180.588 572.31 180.492L580.849 176.982C581.101 176.861 581.396 176.774 581.751 176.713C582.106 176.652 582.375 176.617 582.566 176.609C582.453 176.565 582.28 176.496 582.046 176.391C581.812 176.287 581.621 176.192 581.456 176.105L578.179 174.315C577.98 174.211 577.858 174.054 577.815 173.837C577.772 173.629 577.815 173.438 577.954 173.255L578.803 172.195C578.951 172.004 579.15 171.883 579.384 171.83C579.618 171.787 579.826 171.813 580.026 171.917L587.117 175.783C587.308 175.888 587.43 176.044 587.464 176.252C587.499 176.461 587.447 176.652 587.308 176.826L586.493 177.877Z" fill="black"/>
<path d="M582.809 189.961C582.592 190.083 582.349 190.126 582.08 190.1C581.812 190.074 581.586 189.996 581.404 189.857L580.26 188.997C580.017 188.815 579.93 188.615 579.991 188.398C580.052 188.18 580.216 187.989 580.485 187.842L598.527 178.216C598.743 178.094 598.986 178.051 599.255 178.077C599.524 178.103 599.749 178.181 599.931 178.32L601.075 179.18C601.318 179.362 601.405 179.562 601.344 179.78C601.283 179.997 601.119 180.188 600.85 180.336L582.809 189.961Z" fill="black"/>
<path d="M593.646 199.813C593.412 199.891 593.169 199.9 592.909 199.831C592.649 199.761 592.441 199.648 592.285 199.483L589.831 196.911C589.675 196.746 589.588 196.555 589.562 196.321C589.536 196.095 589.597 195.886 589.727 195.704L601.726 181.439C601.899 181.213 602.124 181.083 602.393 181.057C602.662 181.03 602.896 181.126 603.104 181.343L604.881 183.211C605.289 183.637 605.289 184.062 604.899 184.506L596.411 193.602C596.134 193.897 595.813 194.21 595.449 194.548C595.085 194.887 594.738 195.2 594.409 195.504C594.079 195.808 593.784 196.069 593.524 196.286C593.29 196.477 593.134 196.625 593.039 196.703L593.646 196.373C593.975 196.19 594.357 195.991 594.773 195.773C595.189 195.556 595.631 195.33 596.09 195.104C596.55 194.879 596.957 194.696 597.339 194.566L609.728 189.649C610.361 189.405 610.881 189.492 611.288 189.918L613.135 191.855C613.343 192.072 613.404 192.29 613.299 192.489C613.204 192.698 613.005 192.854 612.719 192.959L593.646 199.813Z" fill="black"/>
<path d="M611.063 207.702C610.1 208.31 609.225 208.631 608.436 208.683C607.638 208.727 606.884 208.562 606.173 208.171C605.462 207.78 604.777 207.206 604.118 206.451C603.46 205.695 602.792 204.809 602.107 203.801C601.899 203.957 601.708 204.14 601.544 204.339C601.379 204.539 601.266 204.765 601.197 205.008C601.127 205.252 601.119 205.53 601.171 205.816C601.223 206.103 601.362 206.433 601.587 206.789C601.951 207.371 602.332 207.832 602.723 208.162C603.113 208.492 603.494 208.805 603.867 209.092C604.266 209.413 604.274 209.743 603.91 210.073L602.723 211.151C602.523 211.324 602.315 211.402 602.098 211.385C601.882 211.368 601.682 211.307 601.5 211.203C600.997 210.899 600.451 210.473 599.87 209.934C599.289 209.387 598.735 208.701 598.206 207.858C597.322 206.451 597.027 205.069 597.33 203.705C597.634 202.341 598.648 201.108 600.373 200.022C601.309 199.422 602.324 198.953 603.408 198.606C604.491 198.258 605.558 198.102 606.615 198.145C607.673 198.189 608.661 198.441 609.589 198.91C610.517 199.379 611.305 200.126 611.956 201.151C612.805 202.506 613.169 203.749 613.048 204.878C612.918 205.999 612.259 206.937 611.063 207.702ZM608.783 204.644C609.173 204.392 609.424 204.105 609.511 203.783C609.606 203.462 609.528 203.097 609.285 202.706C609.077 202.376 608.8 202.15 608.436 202.02C608.08 201.89 607.682 201.829 607.248 201.837C606.815 201.846 606.346 201.916 605.861 202.029C605.376 202.141 604.899 202.298 604.448 202.489C605.349 203.644 606.13 204.4 606.797 204.739C607.465 205.078 608.132 205.061 608.783 204.644Z" fill="black"/>
<path d="M615.423 218.466C614.851 218.448 614.583 218.196 614.609 217.71C614.617 217.553 614.635 217.397 614.678 217.223C614.721 217.05 614.687 216.841 614.591 216.572C614.487 216.311 614.149 216.103 613.568 215.964C612.987 215.825 612.259 215.746 611.357 215.738C610.464 215.729 609.441 215.79 608.297 215.911C607.153 216.033 605.956 216.224 604.708 216.476L603.685 216.685C603.46 216.728 603.243 216.693 603.017 216.572C602.792 216.45 602.645 216.285 602.567 216.077L601.726 213.922C601.648 213.713 601.656 213.522 601.76 213.34C601.864 213.157 602.02 213.045 602.246 213.001L615.172 210.377C615.718 210.273 616.082 210.456 616.264 210.925L617.088 213.018C617.166 213.227 617.157 213.427 617.062 213.618C616.958 213.809 616.793 213.931 616.551 213.983L614.912 214.296C615.996 214.391 616.845 214.6 617.469 214.921C618.094 215.243 618.527 215.712 618.77 216.337C618.848 216.546 618.909 216.798 618.935 217.093C618.961 217.388 618.943 217.666 618.874 217.936C618.735 218.422 618.406 218.657 617.868 218.622L615.423 218.466Z" fill="black"/>
<path d="M618.952 227.692C618.397 227.727 618.059 227.527 617.946 227.075L617.6 225.72L609.979 226.319C609.485 226.345 609.285 226.536 609.372 226.884C609.407 227.023 609.45 227.153 609.502 227.275C609.554 227.396 609.615 227.501 609.676 227.588C609.754 227.735 609.771 227.9 609.728 228.074C609.684 228.248 609.537 228.378 609.303 228.439L607.552 228.926C607.161 229.03 606.832 228.891 606.572 228.526C606.399 228.274 606.216 227.987 606.017 227.648C605.818 227.31 605.662 226.927 605.549 226.502C605.306 225.581 605.358 224.782 605.679 224.113C606.008 223.444 606.667 222.974 607.664 222.714C607.959 222.636 608.306 222.575 608.713 222.531L616.603 221.889L616.351 220.916C616.29 220.698 616.325 220.499 616.446 220.325C616.568 220.151 616.741 220.047 616.967 220.029L618.319 219.925C618.545 219.908 618.753 219.951 618.943 220.047C619.134 220.142 619.264 220.316 619.333 220.577L619.611 221.637L622.931 221.367C623.217 221.333 623.477 221.341 623.72 221.393C623.963 221.445 624.154 221.611 624.284 221.889L625.367 223.991C625.541 224.321 625.549 224.59 625.411 224.782C625.272 224.973 625.029 225.086 624.683 225.112L620.599 225.45L620.929 226.719C620.981 226.936 620.955 227.127 620.825 227.292C620.703 227.457 620.53 227.553 620.304 227.57L618.952 227.692Z" fill="black"/>
<path d="M621.327 237.24C620.755 237.222 620.486 236.97 620.512 236.484C620.521 236.327 620.538 236.171 620.582 235.997C620.625 235.832 620.59 235.615 620.486 235.346C620.382 235.085 620.044 234.877 619.463 234.738C618.883 234.59 618.154 234.52 617.253 234.512C616.36 234.503 615.337 234.564 614.192 234.685C613.048 234.807 611.852 234.998 610.603 235.25L609.58 235.459C609.355 235.502 609.138 235.467 608.913 235.346C608.687 235.224 608.54 235.059 608.462 234.85L607.621 232.696C607.543 232.487 607.552 232.296 607.656 232.114C607.76 231.931 607.916 231.818 608.141 231.775L621.059 229.143C621.605 229.038 621.969 229.221 622.151 229.69L622.975 231.784C623.053 231.992 623.044 232.192 622.949 232.383C622.853 232.574 622.68 232.696 622.437 232.748L620.799 233.07C621.882 233.165 622.732 233.374 623.356 233.695C623.98 234.016 624.414 234.486 624.656 235.111C624.735 235.32 624.795 235.572 624.821 235.867C624.847 236.162 624.83 236.44 624.761 236.71C624.622 237.196 624.292 237.431 623.755 237.396L621.327 237.24Z" fill="black"/>
<path d="M621.076 253.251C620.894 253.381 620.686 253.451 620.46 253.459C620.235 253.468 620.053 253.39 619.888 253.234L618.198 251.531C618.042 251.374 617.955 251.201 617.955 251.001C617.946 250.81 618.059 250.627 618.284 250.453L619.55 249.576C619.221 249.706 618.874 249.802 618.51 249.863C618.146 249.924 617.773 249.941 617.4 249.915C617.027 249.889 616.672 249.802 616.325 249.654C615.978 249.507 615.658 249.289 615.363 248.985C615.007 248.629 614.73 248.212 614.539 247.752C614.348 247.283 614.279 246.761 614.348 246.179C614.409 245.597 614.635 244.972 615.007 244.294C615.38 243.616 615.952 242.895 616.724 242.122C617.6 241.245 618.536 240.515 619.55 239.924C620.556 239.333 621.57 238.925 622.584 238.708C623.599 238.491 624.587 238.499 625.532 238.717C626.486 238.942 627.344 239.438 628.116 240.211C628.532 240.628 628.809 241.088 628.948 241.583C629.095 242.087 629.165 242.496 629.165 242.808L629.485 242.661C629.746 242.548 630.014 242.635 630.3 242.921L631.974 244.598C632.13 244.754 632.199 244.937 632.173 245.145C632.147 245.354 632.052 245.519 631.861 245.649L621.076 253.251ZM626.815 244.459C626.815 244.259 626.781 244.007 626.711 243.703C626.642 243.399 626.46 243.112 626.174 242.826C625.87 242.522 625.463 242.374 624.943 242.383C624.422 242.391 623.859 242.504 623.261 242.739C622.663 242.965 622.056 243.278 621.449 243.677C620.842 244.068 620.304 244.502 619.828 244.98C619.186 245.623 618.787 246.127 618.64 246.492C618.492 246.857 618.527 247.152 618.753 247.387C618.952 247.587 619.316 247.673 619.845 247.647C620.374 247.621 620.989 247.5 621.692 247.283C622.394 247.065 623.131 246.77 623.902 246.379C624.674 245.988 625.411 245.536 626.113 245.006L626.815 244.459Z" fill="black"/>
<path d="M638.875 259.801L638.034 261.912C637.626 262.92 637.201 263.78 636.742 264.484C636.282 265.188 635.762 265.735 635.173 266.117C634.583 266.5 633.916 266.725 633.17 266.804C632.424 266.873 631.558 266.795 630.578 266.569C629.277 266.265 628.254 265.848 627.5 265.327C626.746 264.805 626.113 264.284 625.593 263.772C625.454 263.633 625.411 263.476 625.437 263.294C625.472 263.111 625.541 262.946 625.662 262.79L626.824 261.287C627.153 260.861 627.5 260.809 627.856 261.122C628.02 261.287 628.228 261.469 628.471 261.678C628.714 261.878 628.974 262.078 629.251 262.269C629.529 262.46 629.824 262.634 630.127 262.79C630.43 262.946 630.743 263.059 631.055 263.137C631.826 263.32 632.442 263.216 632.901 262.842C633.369 262.46 633.786 261.817 634.167 260.905L635.199 258.524C634.93 258.794 634.635 259.046 634.332 259.289C634.028 259.532 633.699 259.732 633.361 259.906C633.023 260.071 632.659 260.184 632.268 260.244C631.878 260.297 631.471 260.279 631.037 260.175C630.569 260.062 630.118 259.862 629.694 259.575C629.269 259.289 628.939 258.889 628.679 258.368C628.419 257.847 628.272 257.212 628.211 256.457C628.15 255.701 628.246 254.806 628.489 253.755C628.757 252.608 629.165 251.531 629.702 250.514C630.24 249.498 630.899 248.638 631.67 247.934C632.442 247.23 633.309 246.726 634.271 246.405C635.242 246.092 636.282 246.066 637.409 246.336C638.016 246.483 638.519 246.735 638.909 247.1C639.299 247.465 639.559 247.778 639.69 248.03L639.794 247.838C639.898 247.656 640.01 247.534 640.123 247.482C640.236 247.43 640.426 247.43 640.687 247.491L643.019 248.038C643.296 248.108 643.461 248.229 643.521 248.403C643.582 248.586 643.565 248.777 643.478 248.985L638.875 259.801ZM638.571 250.61C638.467 250.436 638.302 250.245 638.086 250.028C637.869 249.811 637.557 249.654 637.167 249.559C636.673 249.446 636.187 249.524 635.71 249.793C635.233 250.063 634.791 250.445 634.384 250.931C633.976 251.418 633.621 251.974 633.317 252.599C633.014 253.225 632.797 253.833 632.659 254.424C632.442 255.327 632.39 255.97 632.502 256.344C632.615 256.717 632.823 256.934 633.144 257.013C633.456 257.082 633.846 257.004 634.297 256.752C634.748 256.509 635.207 256.126 635.684 255.631C636.152 255.127 636.612 254.528 637.054 253.833C637.496 253.138 637.878 252.391 638.19 251.583L638.571 250.61Z" fill="black"/>
</g>
<defs>
<clipPath id="clip0_1_4590">
<rect width="303" height="245" fill="white" transform="translate(502 59.256)"/>
</clipPath>
</defs>
</svg>
