<svg width="868" height="400" viewBox="0 0 868 400" fill="none" xmlns="http://www.w3.org/2000/svg">
<rect x="0.25" y="0.75" width="867.5" height="398.5" rx="19.75" stroke="#B4B4B4" stroke-width="0.5"/>
<path d="M417.2 195.8H431.8C432.9 195.8 433.8 194.9 433.8 193.8C433.8 192.7 432.9 191.8 431.8 191.8H417.2C416.1 191.8 415.2 192.7 415.2 193.8C415.2 194.9 416.1 195.8 417.2 195.8Z" fill="black"/>
<path d="M434 0.765625V399.234" stroke="#B4B4B4"/>
<path d="M297.121 212.585L251.864 163.811C251.381 163.293 250.631 163.121 249.967 163.38C249.304 163.638 248.873 164.276 248.873 164.983V192.637H75.602C74.6538 192.637 73.8779 193.413 73.8779 194.361V232.291C73.8779 233.24 74.6538 234.015 75.602 234.015H248.873V244.36V250.825H249.519C250.26 250.825 250.924 251.136 251.381 251.696C251.838 252.256 252.01 252.954 251.881 253.67L251.209 257.506C251.735 257.351 252.286 257.273 252.872 257.273C254.364 257.273 255.355 257.834 255.984 258.411L269.277 244.36L297.104 214.938C297.733 214.283 297.733 213.257 297.121 212.585Z" fill="black"/>
<path d="M262.665 113.329C272.663 113.329 280.768 105.224 280.768 95.2264C280.768 85.2285 272.663 77.1235 262.665 77.1235C252.667 77.1235 244.562 85.2285 244.562 95.2264C244.562 105.224 252.667 113.329 262.665 113.329Z" fill="white"/>
<path d="M157.496 149.535H80.7741C79.8259 149.535 79.05 148.759 79.05 147.811C79.05 146.863 79.8259 146.087 80.7741 146.087H157.496C158.444 146.087 159.22 146.863 159.22 147.811C159.22 148.759 158.444 149.535 157.496 149.535Z" fill="white"/>
<path d="M142.841 165.052H114.394C113.446 165.052 112.67 164.276 112.67 163.328C112.67 162.38 113.446 161.604 114.394 161.604H142.841C143.789 161.604 144.565 162.38 144.565 163.328C144.565 164.276 143.789 165.052 142.841 165.052Z" fill="white"/>
<path d="M166.116 88.33H118.704C117.756 88.33 116.98 87.5542 116.98 86.6059C116.98 85.6577 117.756 84.8818 118.704 84.8818H166.116C167.065 84.8818 167.841 85.6577 167.841 86.6059C167.841 87.5542 167.065 88.33 166.116 88.33Z" fill="white"/>
<path d="M95.0324 208.085C95.0324 208.912 94.9203 209.662 94.6876 210.343C94.4548 211.024 94.179 211.653 93.8428 212.231C93.5152 212.809 93.1532 213.308 92.7566 213.74C92.3601 214.171 92.0066 214.541 91.6877 214.843C91.0412 215.429 90.3774 215.998 89.6791 216.55C88.9895 217.101 88.3171 217.558 87.6706 217.92H92.3428C92.567 217.92 92.748 218.007 92.8859 218.179C93.0238 218.351 93.0756 218.55 93.0411 218.765L92.7394 220.489C92.6963 220.713 92.5928 220.903 92.4118 221.075C92.2308 221.248 92.0325 221.334 91.8084 221.334H82.7569C82.5328 221.334 82.3518 221.248 82.2138 221.075C82.0759 220.903 82.0242 220.705 82.0673 220.489L82.2828 219.282C82.3259 218.998 82.3862 218.765 82.4811 218.576C82.5673 218.386 82.7311 218.196 82.9466 218.015C83.3086 217.731 83.7224 217.395 84.1879 217.007C84.6534 216.61 85.1362 216.196 85.6361 215.757C86.1361 215.317 86.6361 214.86 87.1275 214.395C87.6188 213.929 88.0671 213.49 88.4723 213.067C89.1791 212.3 89.7567 211.55 90.205 210.817C90.6532 210.084 90.886 209.274 90.886 208.386C90.886 207.619 90.6963 207.102 90.3257 206.817C89.955 206.533 89.4981 206.395 88.955 206.395C88.3688 206.395 87.8171 206.498 87.2826 206.697C86.7482 206.895 86.2999 207.102 85.9379 207.3C85.7396 207.404 85.5327 207.429 85.3344 207.386C85.1362 207.343 84.981 207.205 84.8775 206.964L84.3 205.309C84.2224 205.085 84.231 204.878 84.3431 204.688C84.4551 204.498 84.6103 204.343 84.8086 204.223C85.1879 203.981 85.7827 203.697 86.5758 203.378C87.3688 203.059 88.3085 202.895 89.3946 202.895C91.0843 202.895 92.4463 203.326 93.4807 204.188C94.5152 205.05 95.0324 206.352 95.0324 208.085Z" fill="white"/>
<path d="M108.523 208.774C108.523 209.559 108.463 210.421 108.359 211.352C108.256 212.283 108.101 213.214 107.911 214.128C107.722 215.042 107.48 215.904 107.204 216.705C106.92 217.507 106.61 218.162 106.273 218.662C105.989 219.085 105.687 219.472 105.368 219.826C105.049 220.179 104.679 220.481 104.265 220.731C103.851 220.981 103.394 221.179 102.894 221.317C102.394 221.455 101.808 221.533 101.144 221.533C99.2908 221.533 97.9891 221.024 97.2391 220.007C96.4805 218.99 96.1099 217.541 96.1099 215.645C96.1099 214.679 96.1788 213.688 96.3081 212.671C96.4374 211.654 96.6271 210.671 96.8685 209.731C97.1098 208.783 97.4029 207.904 97.7477 207.093C98.0926 206.283 98.4805 205.576 98.9287 204.999C99.9977 203.594 101.515 202.887 103.48 202.887C106.834 202.895 108.523 204.852 108.523 208.774ZM104.601 208.895C104.601 207.869 104.489 207.137 104.273 206.688C104.049 206.249 103.739 206.025 103.342 206.025C103.023 206.025 102.748 206.111 102.523 206.292C102.299 206.473 102.092 206.731 101.894 207.076C101.67 207.456 101.455 207.999 101.23 208.706C101.006 209.412 100.817 210.171 100.644 210.981C100.472 211.792 100.334 212.602 100.222 213.412C100.11 214.214 100.058 214.912 100.058 215.498C100.058 216.524 100.161 217.257 100.36 217.688C100.558 218.119 100.86 218.335 101.265 218.335C101.61 218.335 101.92 218.205 102.213 217.955C102.506 217.705 102.765 217.343 102.98 216.886C103.144 216.567 103.317 216.093 103.506 215.481C103.696 214.869 103.877 214.188 104.032 213.447C104.196 212.705 104.325 211.93 104.437 211.136C104.549 210.352 104.601 209.602 104.601 208.895Z" fill="white"/>
<path d="M122.187 208.085C122.187 208.912 122.075 209.662 121.842 210.343C121.609 211.024 121.333 211.654 120.997 212.231C120.67 212.809 120.307 213.309 119.911 213.74C119.514 214.171 119.161 214.541 118.842 214.843C118.195 215.429 117.532 215.998 116.833 216.55C116.144 217.102 115.471 217.559 114.825 217.921H119.497C119.721 217.921 119.902 218.007 120.04 218.179C120.178 218.352 120.23 218.55 120.195 218.765L119.894 220.49C119.851 220.714 119.747 220.903 119.566 221.076C119.385 221.248 119.187 221.334 118.963 221.334H109.911C109.687 221.334 109.506 221.248 109.368 221.076C109.23 220.903 109.178 220.705 109.222 220.49L109.437 219.283C109.48 218.998 109.541 218.765 109.635 218.576C109.722 218.386 109.885 218.197 110.101 218.015C110.463 217.731 110.877 217.395 111.342 217.007C111.808 216.61 112.29 216.197 112.79 215.757C113.29 215.317 113.79 214.86 114.282 214.395C114.773 213.929 115.221 213.49 115.627 213.067C116.333 212.3 116.911 211.55 117.359 210.817C117.808 210.085 118.04 209.274 118.04 208.386C118.04 207.619 117.851 207.102 117.48 206.818C117.109 206.533 116.652 206.395 116.109 206.395C115.523 206.395 114.971 206.499 114.437 206.697C113.902 206.895 113.454 207.102 113.092 207.3C112.894 207.404 112.687 207.43 112.489 207.387C112.29 207.343 112.135 207.205 112.032 206.964L111.454 205.309C111.377 205.085 111.385 204.878 111.497 204.688C111.609 204.499 111.765 204.344 111.963 204.223C112.342 203.981 112.937 203.697 113.73 203.378C114.523 203.059 115.463 202.895 116.549 202.895C118.239 202.895 119.601 203.326 120.635 204.188C121.669 205.05 122.187 206.352 122.187 208.085Z" fill="white"/>
<path d="M135.049 216.559C135.005 216.783 134.911 216.972 134.764 217.127C134.618 217.291 134.428 217.369 134.204 217.369H133.031L132.488 220.507C132.445 220.731 132.35 220.92 132.204 221.084C132.057 221.248 131.868 221.326 131.644 221.326H129.169C128.945 221.326 128.773 221.248 128.644 221.084C128.514 220.92 128.463 220.731 128.506 220.507L129.049 217.369H123.049C122.825 217.369 122.652 217.291 122.523 217.127C122.394 216.964 122.351 216.774 122.385 216.559L122.687 214.869C122.73 214.671 122.782 214.403 122.851 214.067C122.92 213.731 122.997 213.455 123.075 213.24L126.092 203.792C126.17 203.568 126.325 203.404 126.557 203.292C126.79 203.18 127.023 203.128 127.264 203.128H130.402C130.661 203.128 130.816 203.214 130.85 203.387C130.894 203.559 130.859 203.774 130.764 204.033L127.23 213.809H129.764L131.092 209.679C131.169 209.455 131.299 209.266 131.471 209.102C131.644 208.938 131.842 208.861 132.057 208.861H133.712C133.937 208.861 134.109 208.938 134.238 209.102C134.368 209.266 134.411 209.455 134.376 209.679L133.652 213.809H134.712C134.937 213.809 135.109 213.886 135.238 214.05C135.368 214.214 135.411 214.403 135.376 214.628L135.049 216.559Z" fill="white"/>
<path d="M346.258 264.308L301 215.516C300.518 214.999 299.768 214.826 299.104 215.085C298.44 215.343 298.009 215.981 298.009 216.688V244.36H269.277L255.984 258.411C255.355 257.834 254.364 257.273 252.873 257.273C252.295 257.273 251.735 257.351 251.209 257.506L251.881 253.67C252.01 252.954 251.838 252.256 251.381 251.696C250.924 251.136 250.261 250.825 249.519 250.825H248.873V244.36H124.738C123.79 244.36 123.014 245.136 123.014 246.084V284.014C123.014 284.962 123.79 285.738 124.738 285.738H298.009V313.323C298.009 314.03 298.44 314.668 299.095 314.927C299.302 315.013 299.518 315.047 299.733 315.047C300.199 315.047 300.656 314.858 300.983 314.504L346.24 266.661C346.87 266.006 346.87 264.98 346.258 264.308Z" fill="white"/>
<path d="M252.321 232.291C252.321 231.343 251.545 230.567 250.597 230.567H77.3261V196.085H145.815C142.315 200.318 138.091 206.025 142.048 209.99C148.031 215.99 152.677 211.214 157.082 206.732C160.565 203.189 164.056 199.637 167.539 196.094H203.021C202.624 196.465 202.227 196.835 201.831 197.206C198.486 200.309 193.555 203.939 194.469 209.421C194.814 211.516 196.288 213.412 198.279 214.145C202.883 215.861 208.046 211.344 211.546 208.628C215.813 205.318 219.96 201.844 224.21 198.508C225.235 197.706 226.261 196.896 227.296 196.094H250.597C251.545 196.094 252.321 195.318 252.321 194.37V169.379L293.492 213.749L264.536 244.36H269.286L297.112 214.938C297.733 214.275 297.742 213.249 297.121 212.585L251.864 163.811C251.381 163.293 250.631 163.121 249.967 163.379C249.304 163.638 248.873 164.276 248.873 164.983V192.637H231.683C234.882 190.111 238.054 187.56 241.114 184.879C242.933 183.284 244.545 181.267 244.674 178.75C244.787 176.526 243.692 174.388 242.243 172.698C239.209 169.164 235.106 166.698 231.494 163.836C228.382 161.371 225.27 158.905 222.158 156.44L242.847 134.027C246.011 136.863 249.174 139.699 252.338 142.535C256.372 146.156 259.984 150.785 264.26 154.061C268.941 157.647 272.389 154.552 276.467 152.13C278.992 150.63 281.734 149.147 284.328 147.785C287.027 146.371 289.733 144.992 292.423 143.553C294.492 142.449 296.673 141.535 298.707 140.363C300.242 139.475 301.699 138.337 302.561 136.785C304.69 132.958 301.509 128.381 297.199 128.872C295.225 129.096 293.388 129.949 291.656 130.872C290.277 131.613 288.906 132.346 287.527 133.087C282.113 135.984 276.708 138.88 271.294 141.785C262.183 129.725 252.097 118.407 241.433 107.709C235.451 101.709 229.278 95.8902 222.925 90.2783C219.701 87.4335 216.425 84.6405 213.098 81.9165C211.486 80.5975 209.012 78.3993 207.365 77.1235C206.124 76.1666 205.089 75.5287 203.969 75.2787C202.822 75.0287 201.59 75.1925 199.978 75.8563C196.124 77.4338 192.262 79.5803 188.547 81.4337C185.099 83.1578 181.651 85.7439 178.694 87.5628C175.866 89.2955 170.72 93.9678 173.03 97.8125C176.004 102.769 180.401 100.649 184.59 99.0366C191.15 96.5108 196.659 92.6661 203.202 90.0541L218.718 109.881C212.313 117.346 207.658 121.389 201.305 128.889C188.685 143.777 176.116 158.699 163.754 173.802C158.66 180.026 153.582 186.275 148.66 192.637H75.602C74.6538 192.637 73.8779 193.413 73.8779 194.361V232.291C73.8779 233.239 74.6538 234.015 75.602 234.015H248.873V244.36H252.321V232.291ZM198.874 164.19L221.287 178.845C220.865 178.569 211.572 188.06 210.891 188.706C209.494 190.025 208.098 191.327 206.693 192.637H170.927C180.245 183.155 189.555 173.672 198.874 164.19Z" fill="white"/>
<path d="M141.385 262.954L145.729 272.79C145.893 273.135 145.902 273.402 145.772 273.609C145.643 273.807 145.402 273.911 145.065 273.911H142.505C142.203 273.911 141.945 273.868 141.721 273.773C141.497 273.678 141.341 273.497 141.238 273.212L137.669 263.989L136.074 273.1C136.031 273.325 135.928 273.514 135.755 273.678C135.583 273.842 135.385 273.919 135.169 273.919H132.695C132.471 273.919 132.29 273.842 132.152 273.678C132.014 273.514 131.962 273.325 132.006 273.1L135.264 254.515C135.307 254.291 135.411 254.101 135.583 253.937C135.755 253.773 135.954 253.696 136.169 253.696H138.643C138.867 253.696 139.048 253.773 139.186 253.937C139.324 254.101 139.376 254.291 139.333 254.515L138.066 261.756L143.591 254.394C143.816 254.11 144.022 253.929 144.212 253.834C144.402 253.739 144.652 253.696 144.953 253.696H147.876C148.221 253.696 148.436 253.808 148.522 254.041C148.608 254.273 148.539 254.532 148.298 254.808L141.385 262.954Z" fill="black"/>
<path d="M151.126 273.1C151.082 273.325 150.979 273.514 150.798 273.678C150.617 273.842 150.419 273.919 150.195 273.919H147.876C147.651 273.919 147.479 273.842 147.35 273.678C147.22 273.514 147.177 273.325 147.212 273.1L150.686 253.368C150.729 253.144 150.824 252.954 150.97 252.791C151.117 252.627 151.315 252.549 151.557 252.549H153.944C154.169 252.549 154.341 252.627 154.47 252.791C154.6 252.954 154.643 253.144 154.608 253.368L151.126 273.1Z" fill="black"/>
<path d="M165.28 273.1C165.237 273.324 165.142 273.514 164.996 273.678C164.84 273.842 164.659 273.919 164.435 273.919H162.047C161.823 273.919 161.642 273.85 161.504 273.721C161.366 273.592 161.315 273.385 161.358 273.1L161.634 271.592C161.496 271.911 161.315 272.221 161.108 272.523C160.892 272.824 160.651 273.1 160.366 273.333C160.082 273.574 159.772 273.764 159.435 273.911C159.099 274.057 158.711 274.126 158.289 274.126C157.789 274.126 157.306 274.031 156.841 273.842C156.375 273.652 155.97 273.324 155.608 272.876C155.246 272.419 154.961 271.833 154.746 271.092C154.53 270.359 154.427 269.445 154.427 268.359C154.427 267.135 154.574 265.954 154.867 264.825C155.16 263.695 155.582 262.704 156.151 261.842C156.711 260.98 157.41 260.29 158.237 259.773C159.065 259.265 160.013 259.006 161.099 259.006C161.685 259.006 162.203 259.135 162.651 259.385C163.108 259.635 163.444 259.877 163.659 260.092L163.78 259.756C163.884 259.497 164.134 259.359 164.539 259.359H166.892C167.116 259.359 167.289 259.437 167.418 259.601C167.547 259.764 167.59 259.954 167.556 260.178L165.28 273.1ZM161.927 254.868C161.927 255.454 161.711 255.954 161.289 256.377C160.866 256.799 160.366 257.015 159.78 257.015C159.194 257.015 158.694 256.799 158.272 256.377C157.849 255.954 157.642 255.454 157.642 254.868C157.642 254.282 157.858 253.782 158.272 253.36C158.694 252.937 159.194 252.73 159.78 252.73C160.366 252.73 160.866 252.937 161.289 253.36C161.72 253.791 161.927 254.291 161.927 254.868ZM163.134 262.902C162.996 262.764 162.789 262.609 162.53 262.445C162.272 262.282 161.935 262.204 161.53 262.204C161.108 262.204 160.711 262.394 160.349 262.764C159.987 263.135 159.677 263.618 159.418 264.195C159.16 264.782 158.953 265.42 158.798 266.126C158.651 266.833 158.573 267.514 158.573 268.178C158.573 269.083 158.651 269.712 158.798 270.083C158.953 270.445 159.185 270.626 159.504 270.626C159.789 270.626 160.099 270.428 160.453 270.04C160.806 269.644 161.151 269.126 161.496 268.488C161.841 267.842 162.142 267.118 162.418 266.299C162.694 265.48 162.884 264.644 163.004 263.782L163.134 262.902ZM167.875 254.868C167.875 255.454 167.668 255.954 167.246 256.377C166.823 256.799 166.323 257.015 165.737 257.015C165.151 257.015 164.651 256.799 164.228 256.377C163.806 255.954 163.591 255.454 163.591 254.868C163.591 254.282 163.806 253.782 164.228 253.36C164.651 252.937 165.151 252.73 165.737 252.73C166.323 252.73 166.823 252.937 167.246 253.36C167.668 253.782 167.875 254.291 167.875 254.868Z" fill="black"/>
<path d="M177.832 262.868C177.608 263.394 177.28 263.549 176.832 263.351C176.694 263.29 176.547 263.213 176.409 263.109C176.271 263.006 176.056 262.954 175.771 262.954C175.487 262.954 175.177 263.195 174.84 263.678C174.496 264.161 174.159 264.816 173.832 265.644C173.504 266.471 173.185 267.437 172.884 268.54C172.582 269.644 172.323 270.825 172.099 272.066L171.918 273.092C171.875 273.316 171.763 273.505 171.573 273.669C171.384 273.833 171.177 273.911 170.953 273.911H168.66C168.435 273.911 168.263 273.833 168.134 273.669C168.004 273.505 167.961 273.316 167.996 273.092L170.254 260.178C170.358 259.635 170.659 259.359 171.159 259.359H173.392C173.616 259.359 173.797 259.437 173.935 259.601C174.073 259.765 174.125 259.963 174.082 260.204L173.78 261.833C174.263 260.868 174.763 260.152 175.289 259.696C175.815 259.23 176.409 258.997 177.073 258.997C177.297 258.997 177.547 259.04 177.832 259.118C178.116 259.196 178.366 259.316 178.59 259.48C178.995 259.782 179.082 260.17 178.866 260.652L177.832 262.868Z" fill="black"/>
<path d="M189.262 273.1C189.219 273.324 189.133 273.514 188.995 273.678C188.857 273.842 188.642 273.919 188.357 273.919H186.004C185.78 273.919 185.607 273.842 185.478 273.678C185.349 273.514 185.306 273.324 185.34 273.1L185.668 271.135C185.168 272.161 184.564 272.936 183.857 273.471C183.15 274.005 182.349 274.273 181.444 274.273C180.521 274.273 179.797 273.98 179.288 273.385C178.78 272.79 178.521 271.902 178.521 270.712C178.521 270.454 178.53 270.178 178.556 269.902C178.573 269.618 178.616 269.316 178.676 268.997L180.219 260.187C180.323 259.644 180.616 259.368 181.099 259.368H183.478C183.702 259.368 183.875 259.446 184.004 259.609C184.133 259.773 184.176 259.963 184.142 260.187L182.754 268.212C182.694 268.575 182.642 268.919 182.59 269.256C182.538 269.583 182.521 269.876 182.53 270.126C182.538 270.376 182.59 270.583 182.676 270.747C182.771 270.911 182.935 270.988 183.176 270.988C183.495 270.988 183.857 270.756 184.245 270.281C184.642 269.807 185.03 269.143 185.426 268.273C185.823 267.411 186.193 266.376 186.538 265.178C186.892 263.98 187.185 262.67 187.426 261.239L187.607 260.187C187.711 259.644 188.004 259.368 188.478 259.368H190.866C191.09 259.368 191.262 259.446 191.392 259.609C191.521 259.773 191.564 259.963 191.529 260.187L189.262 273.1Z" fill="black"/>
<path d="M203.598 273.1C203.494 273.643 203.201 273.911 202.727 273.911H200.339C200.115 273.911 199.943 273.833 199.814 273.669C199.684 273.506 199.641 273.316 199.676 273.092L201.064 265.066C201.124 264.704 201.176 264.359 201.227 264.023C201.279 263.687 201.296 263.402 201.288 263.144C201.279 262.894 201.227 262.687 201.141 262.523C201.055 262.359 200.883 262.282 200.641 262.282C200.296 262.282 199.934 262.523 199.555 263.006C199.176 263.489 198.788 264.161 198.391 265.014C197.995 265.868 197.624 266.894 197.279 268.092C196.926 269.29 196.633 270.6 196.391 272.031L196.21 273.092C196.107 273.635 195.814 273.902 195.34 273.902H192.96C192.736 273.902 192.564 273.825 192.434 273.661C192.305 273.497 192.262 273.307 192.297 273.083L194.555 260.17C194.598 259.946 194.684 259.756 194.831 259.592C194.969 259.428 195.184 259.351 195.46 259.351H197.814C198.038 259.351 198.21 259.428 198.339 259.592C198.469 259.756 198.512 259.946 198.477 260.17L198.176 262.006C198.702 261.023 199.305 260.273 199.986 259.756C200.667 259.239 201.469 258.989 202.374 258.989C203.296 258.989 204.02 259.282 204.529 259.877C205.046 260.471 205.296 261.359 205.296 262.549C205.296 262.808 205.288 263.083 205.262 263.368C205.244 263.652 205.201 263.954 205.141 264.273L203.598 273.1Z" fill="black"/>
<path d="M218.141 271.712L217.813 273.945C217.649 275.014 217.434 275.936 217.149 276.721C216.865 277.505 216.485 278.152 216.003 278.652C215.52 279.152 214.925 279.523 214.218 279.764C213.511 280.005 212.658 280.126 211.658 280.126C210.331 280.126 209.244 279.962 208.4 279.626C207.555 279.298 206.822 278.936 206.201 278.557C206.038 278.454 205.951 278.316 205.943 278.135C205.934 277.954 205.969 277.773 206.046 277.592L206.831 275.868C207.055 275.385 207.374 275.255 207.796 275.471C207.994 275.592 208.236 275.721 208.52 275.868C208.805 276.005 209.098 276.135 209.408 276.264C209.718 276.385 210.037 276.488 210.374 276.566C210.71 276.643 211.029 276.686 211.356 276.686C212.141 276.686 212.718 276.445 213.08 275.98C213.442 275.514 213.701 274.79 213.865 273.824L214.322 271.29C214.123 271.609 213.899 271.928 213.658 272.221C213.417 272.523 213.149 272.799 212.856 273.04C212.563 273.281 212.236 273.471 211.874 273.618C211.511 273.756 211.106 273.833 210.667 273.833C210.184 273.833 209.71 273.738 209.236 273.557C208.762 273.376 208.348 273.066 207.986 272.626C207.624 272.187 207.331 271.609 207.098 270.894C206.865 270.178 206.753 269.29 206.753 268.221C206.753 267.057 206.9 265.92 207.193 264.816C207.486 263.713 207.925 262.73 208.503 261.877C209.089 261.023 209.813 260.334 210.675 259.808C211.537 259.282 212.546 259.023 213.692 259.023C214.313 259.023 214.856 259.153 215.322 259.42C215.787 259.678 216.106 259.92 216.287 260.144L216.348 259.928C216.408 259.73 216.485 259.584 216.589 259.506C216.692 259.428 216.873 259.385 217.132 259.385H219.511C219.796 259.385 219.985 259.463 220.089 259.627C220.192 259.79 220.218 259.98 220.184 260.204L218.141 271.712ZM215.753 262.902C215.615 262.764 215.408 262.609 215.149 262.446C214.891 262.282 214.555 262.204 214.149 262.204C213.649 262.204 213.192 262.394 212.796 262.764C212.391 263.135 212.055 263.601 211.77 264.17C211.486 264.73 211.27 265.351 211.124 266.023C210.977 266.695 210.899 267.333 210.899 267.937C210.899 268.859 210.994 269.488 211.184 269.825C211.374 270.161 211.632 270.325 211.951 270.325C212.27 270.325 212.624 270.152 213.003 269.816C213.382 269.471 213.744 269.006 214.089 268.411C214.434 267.816 214.736 267.135 215.011 266.359C215.279 265.583 215.477 264.773 215.598 263.928L215.753 262.902Z" fill="black"/>
<path d="M243.149 258.859C243.149 260.109 242.95 261.17 242.545 262.04C242.14 262.92 241.597 263.627 240.899 264.17C240.2 264.713 239.381 265.109 238.442 265.359C237.502 265.609 236.476 265.739 235.39 265.739H233.218L231.925 273.066C231.882 273.29 231.795 273.48 231.649 273.652C231.502 273.824 231.295 273.911 231.011 273.911H228.537C228.313 273.911 228.132 273.824 227.994 273.652C227.856 273.48 227.804 273.281 227.847 273.066L231.106 254.541C231.149 254.316 231.252 254.127 231.425 253.954C231.597 253.782 231.795 253.696 232.011 253.696H237.718C239.511 253.696 240.864 254.153 241.778 255.058C242.692 255.963 243.149 257.23 243.149 258.859ZM239.08 259.342C239.08 257.894 238.338 257.17 236.847 257.17H234.735L233.83 262.273H235.64C236.123 262.273 236.571 262.221 236.985 262.109C237.399 261.997 237.761 261.825 238.071 261.601C238.381 261.368 238.631 261.066 238.813 260.696C238.985 260.308 239.08 259.859 239.08 259.342Z" fill="black"/>
<path d="M254.105 273.1C254.062 273.325 253.967 273.514 253.821 273.678C253.674 273.842 253.476 273.919 253.235 273.919H250.847C250.623 273.919 250.45 273.842 250.321 273.678C250.192 273.514 250.148 273.325 250.183 273.1L251.571 265.075C251.631 264.73 251.683 264.411 251.735 264.109C251.786 263.808 251.812 263.523 251.812 263.265C251.812 262.98 251.769 262.747 251.674 262.566C251.588 262.385 251.407 262.299 251.148 262.299C250.804 262.299 250.442 262.54 250.062 263.023C249.683 263.506 249.295 264.178 248.899 265.032C248.502 265.885 248.131 266.911 247.786 268.109C247.433 269.307 247.14 270.618 246.899 272.049L246.718 273.109C246.614 273.652 246.321 273.919 245.847 273.919H243.468C243.244 273.919 243.071 273.842 242.942 273.678C242.812 273.514 242.769 273.325 242.804 273.1L246.278 253.368C246.321 253.144 246.416 252.954 246.58 252.791C246.743 252.627 246.933 252.549 247.157 252.549H249.545C249.769 252.549 249.942 252.627 250.071 252.791C250.2 252.954 250.243 253.144 250.209 253.368L248.7 261.997C249.226 261.032 249.83 260.29 250.511 259.782C251.192 259.273 251.993 259.015 252.898 259.015C253.821 259.015 254.545 259.308 255.054 259.903C255.571 260.497 255.821 261.385 255.821 262.575C255.821 262.833 255.812 263.109 255.786 263.394C255.769 263.678 255.726 263.98 255.666 264.299L254.105 273.1Z" fill="black"/>
<path d="M268.105 273.1C268.061 273.324 267.967 273.514 267.82 273.678C267.665 273.842 267.484 273.919 267.26 273.919H264.872C264.648 273.919 264.467 273.85 264.329 273.721C264.191 273.592 264.139 273.385 264.182 273.1L264.458 271.592C264.32 271.911 264.139 272.221 263.932 272.523C263.717 272.824 263.475 273.1 263.191 273.333C262.906 273.574 262.596 273.764 262.26 273.911C261.924 274.057 261.536 274.126 261.113 274.126C260.613 274.126 260.131 274.031 259.665 273.842C259.2 273.652 258.795 273.324 258.432 272.876C258.07 272.419 257.786 271.833 257.57 271.092C257.355 270.359 257.251 269.445 257.251 268.359C257.251 267.135 257.398 265.954 257.691 264.825C257.984 263.695 258.407 262.704 258.976 261.842C259.536 260.98 260.234 260.29 261.062 259.773C261.889 259.264 262.838 259.006 263.924 259.006C264.51 259.006 265.027 259.135 265.475 259.385C265.932 259.635 266.268 259.877 266.484 260.092L266.605 259.756C266.708 259.497 266.958 259.359 267.363 259.359H269.717C269.941 259.359 270.113 259.437 270.242 259.601C270.372 259.764 270.415 259.954 270.38 260.178L268.105 273.1ZM265.967 262.902C265.829 262.764 265.622 262.609 265.363 262.445C265.105 262.282 264.768 262.204 264.363 262.204C263.941 262.204 263.544 262.394 263.182 262.764C262.82 263.135 262.51 263.618 262.251 264.195C261.993 264.782 261.786 265.419 261.631 266.126C261.484 266.833 261.407 267.514 261.407 268.178C261.407 269.083 261.484 269.712 261.631 270.083C261.786 270.445 262.019 270.626 262.338 270.626C262.622 270.626 262.932 270.428 263.286 270.04C263.639 269.643 263.984 269.126 264.329 268.488C264.674 267.842 264.975 267.118 265.251 266.299C265.527 265.48 265.717 264.644 265.837 263.782L265.967 262.902Z" fill="black"/>
<path d="M280.51 262.506C280.406 262.67 280.251 262.799 280.044 262.902C279.829 263.006 279.622 262.989 279.423 262.868C279.199 262.73 278.889 262.549 278.475 262.325C278.061 262.101 277.579 261.989 277.01 261.989C276.665 261.989 276.38 262.075 276.148 262.247C275.915 262.42 275.803 262.661 275.803 262.989C275.803 263.368 276.018 263.704 276.449 263.997C276.88 264.29 277.372 264.626 277.915 265.006C278.234 265.23 278.553 265.471 278.863 265.73C279.173 265.988 279.458 266.299 279.708 266.652C279.958 267.006 280.165 267.394 280.329 267.825C280.492 268.256 280.57 268.747 280.57 269.29C280.57 271.023 280.096 272.255 279.148 272.997C278.199 273.738 276.923 274.109 275.32 274.109C274.217 274.109 273.243 273.945 272.406 273.609C271.57 273.281 270.872 272.954 270.312 272.626C269.889 272.368 269.803 272.005 270.044 271.54L270.829 269.997C270.932 269.773 271.062 269.618 271.225 269.514C271.389 269.411 271.587 269.428 271.829 269.549C272.027 269.669 272.268 269.799 272.536 269.945C272.811 270.083 273.087 270.221 273.38 270.342C273.674 270.462 273.975 270.566 274.286 270.661C274.596 270.756 274.898 270.799 275.173 270.799C276.079 270.799 276.536 270.428 276.536 269.687C276.536 269.281 276.354 268.945 275.992 268.678C275.63 268.411 275.199 268.1 274.699 267.756C274.355 267.531 274.018 267.29 273.674 267.031C273.329 266.773 273.018 266.471 272.743 266.144C272.458 265.816 272.234 265.428 272.053 264.997C271.872 264.566 271.777 264.075 271.777 263.532C271.777 262.747 271.906 262.066 272.174 261.497C272.432 260.92 272.794 260.454 273.26 260.083C273.725 259.713 274.268 259.437 274.889 259.264C275.51 259.092 276.182 259.006 276.906 259.006C277.872 259.006 278.691 259.127 279.346 259.368C280.01 259.609 280.51 259.859 280.854 260.127C281.035 260.264 281.173 260.437 281.277 260.627C281.38 260.816 281.372 261.023 281.242 261.247L280.51 262.506Z" fill="black"/>
<path d="M294.38 263.23C294.38 264.359 294.19 265.264 293.802 265.963C293.423 266.661 292.88 267.204 292.173 267.592C291.466 267.989 290.621 268.256 289.638 268.402C288.656 268.557 287.552 268.652 286.354 268.687C286.371 268.945 286.423 269.195 286.501 269.445C286.578 269.687 286.707 269.902 286.88 270.092C287.052 270.282 287.276 270.437 287.544 270.549C287.82 270.661 288.164 270.713 288.587 270.713C289.268 270.713 289.854 270.635 290.337 270.488C290.819 270.342 291.285 270.178 291.725 270.023C292.207 269.859 292.492 270.023 292.569 270.506L292.837 272.075C292.88 272.333 292.828 272.549 292.699 272.721C292.569 272.894 292.414 273.031 292.233 273.126C291.707 273.385 291.069 273.618 290.302 273.825C289.535 274.023 288.664 274.126 287.682 274.126C286.035 274.126 284.716 273.635 283.733 272.661C282.751 271.687 282.251 270.178 282.251 268.152C282.251 267.049 282.389 265.945 282.673 264.851C282.958 263.756 283.389 262.773 283.983 261.911C284.578 261.049 285.32 260.351 286.199 259.816C287.087 259.282 288.13 259.015 289.337 259.015C290.923 259.015 292.164 259.368 293.044 260.075C293.94 260.765 294.38 261.825 294.38 263.23ZM290.613 263.532C290.613 263.066 290.5 262.713 290.285 262.463C290.069 262.213 289.725 262.084 289.259 262.084C288.88 262.084 288.535 262.196 288.233 262.428C287.932 262.661 287.673 262.963 287.449 263.333C287.225 263.704 287.035 264.127 286.871 264.601C286.707 265.075 286.587 265.549 286.509 266.032C287.957 265.894 289.001 265.627 289.647 265.247C290.294 264.868 290.613 264.299 290.613 263.532Z" fill="black"/>
<path d="M306.267 273.066C306.224 273.29 306.112 273.48 305.922 273.652C305.733 273.824 305.526 273.911 305.302 273.911H302.767C302.543 273.911 302.362 273.824 302.224 273.652C302.086 273.48 302.035 273.281 302.078 273.066L305.336 254.541C305.379 254.316 305.491 254.127 305.681 253.954C305.871 253.782 306.078 253.696 306.302 253.696H308.836C309.06 253.696 309.241 253.782 309.379 253.954C309.517 254.127 309.569 254.325 309.534 254.541L306.267 273.066Z" fill="black"/>
<path d="M313.483 273.066C313.44 273.29 313.327 273.48 313.138 273.652C312.948 273.824 312.741 273.911 312.517 273.911H309.983C309.759 273.911 309.578 273.824 309.44 273.652C309.302 273.48 309.25 273.281 309.293 273.066L312.552 254.541C312.595 254.316 312.707 254.127 312.896 253.954C313.086 253.782 313.293 253.696 313.517 253.696H316.052C316.276 253.696 316.457 253.782 316.595 253.954C316.733 254.127 316.784 254.325 316.75 254.541L313.483 273.066Z" fill="black"/>
<path d="M165.587 367.408C164.914 367.408 164.32 367.186 163.804 366.742C163.288 366.298 162.776 365.679 162.268 364.884C161.43 365.177 160.52 365.324 159.539 365.324C158.343 365.324 157.273 365.102 156.327 364.658C155.382 364.214 154.58 363.605 153.921 362.832C153.262 362.059 152.761 361.167 152.417 360.157C152.073 359.147 151.902 358.073 151.902 356.935C151.902 355.731 152.084 354.621 152.449 353.604C152.815 352.58 153.334 351.689 154.007 350.93C154.687 350.171 155.493 349.583 156.424 349.168C157.362 348.745 158.401 348.534 159.539 348.534C160.75 348.534 161.827 348.76 162.773 349.211C163.718 349.655 164.517 350.271 165.168 351.059C165.82 351.839 166.314 352.734 166.651 353.744C166.994 354.754 167.166 355.817 167.166 356.935C167.166 358.267 166.919 359.541 166.425 360.759C165.931 361.976 165.218 362.968 164.287 363.734C164.645 364.264 164.964 364.665 165.243 364.938C165.53 365.21 165.827 365.346 166.135 365.346C166.586 365.346 166.951 365.077 167.231 364.54C167.51 363.996 167.65 363.34 167.65 362.574V362.327H168.949V362.574C168.949 363.527 168.867 364.365 168.702 365.088C168.545 365.818 168.226 366.388 167.746 366.796C167.267 367.204 166.547 367.408 165.587 367.408ZM163.031 361.93C163.482 361.321 163.825 360.573 164.062 359.685C164.298 358.797 164.416 357.887 164.416 356.956C164.416 356.14 164.316 355.323 164.115 354.507C163.915 353.69 163.611 352.946 163.202 352.272C162.794 351.599 162.286 351.059 161.677 350.65C161.068 350.242 160.356 350.038 159.539 350.038C158.723 350.038 158.01 350.239 157.402 350.64C156.793 351.041 156.284 351.574 155.876 352.24C155.468 352.899 155.16 353.637 154.952 354.453C154.752 355.262 154.652 356.082 154.652 356.913C154.652 357.78 154.755 358.632 154.963 359.47C155.171 360.308 155.464 361.035 155.844 361.65C156.152 361.07 156.574 360.59 157.112 360.211C157.656 359.831 158.361 359.642 159.228 359.642C160.016 359.642 160.71 359.849 161.312 360.265C161.913 360.673 162.486 361.228 163.031 361.93ZM159.539 363.82C160.212 363.82 160.821 363.681 161.365 363.401C160.907 362.635 160.467 362.044 160.044 361.629C159.629 361.214 159.167 361.006 158.658 361.006C157.921 361.006 157.251 361.55 156.65 362.639C157.437 363.426 158.401 363.82 159.539 363.82ZM177.844 365.346V362.918C176.942 364.522 175.649 365.324 173.966 365.324C172.756 365.324 171.85 364.955 171.248 364.218C170.654 363.48 170.357 362.463 170.357 361.167V354.711H168.337V353.508H172.666V361.146C172.666 362.098 172.817 362.785 173.117 363.208C173.425 363.623 173.898 363.831 174.535 363.831C175.008 363.831 175.495 363.695 175.996 363.423C176.498 363.144 176.917 362.789 177.253 362.359C177.597 361.923 177.769 361.471 177.769 361.006V354.711H175.814V353.508H180.089V363.82L182.173 364.046V365.034L177.844 365.346ZM182.764 365.034V363.777H184.837V354.711H182.742V353.508H187.147V363.777H189.252V365.034H182.764ZM185.815 351.467C185.378 351.467 185.002 351.309 184.687 350.994C184.379 350.679 184.225 350.307 184.225 349.877C184.225 349.433 184.379 349.057 184.687 348.749C185.002 348.434 185.378 348.276 185.815 348.276C186.244 348.276 186.617 348.434 186.932 348.749C187.254 349.064 187.415 349.44 187.415 349.877C187.415 350.307 187.254 350.679 186.932 350.994C186.617 351.309 186.244 351.467 185.815 351.467ZM195.773 365.324C194.663 365.324 193.689 365.07 192.851 364.562C192.02 364.053 191.372 363.358 190.906 362.478C190.441 361.597 190.208 360.601 190.208 359.491C190.208 358.353 190.434 357.307 190.885 356.354C191.336 355.402 191.995 354.639 192.862 354.066C193.735 353.486 194.792 353.196 196.031 353.196C196.546 353.196 197.069 353.275 197.599 353.433C198.136 353.583 198.63 353.812 199.081 354.12C199.532 354.428 199.894 354.818 200.166 355.291C200.446 355.764 200.585 356.319 200.585 356.956C200.585 357.386 200.435 357.783 200.134 358.148C199.84 358.514 199.429 358.696 198.899 358.696C198.433 358.696 198.039 358.56 197.717 358.288C197.402 358.009 197.244 357.64 197.244 357.182C197.244 356.716 197.409 356.354 197.739 356.097C198.068 355.839 198.455 355.71 198.899 355.71C198.662 355.33 198.326 355.019 197.889 354.775C197.459 354.532 196.965 354.41 196.406 354.41C195.569 354.41 194.87 354.639 194.312 355.098C193.76 355.549 193.345 356.136 193.066 356.859C192.786 357.576 192.647 358.335 192.647 359.137C192.647 360.519 192.965 361.607 193.603 362.402C194.24 363.19 195.125 363.584 196.256 363.584C196.843 363.584 197.373 363.437 197.846 363.144C198.319 362.85 198.709 362.506 199.017 362.112C199.325 361.711 199.525 361.357 199.618 361.049L200.832 361.446C200.56 362.621 199.984 363.562 199.103 364.271C198.222 364.973 197.112 365.324 195.773 365.324ZM213.562 365.249C212.795 365.249 212.137 365.049 211.585 364.647C211.034 364.246 210.536 363.663 210.092 362.896L207.933 359.18L206.15 360.544V363.831H207.976V365.034H201.67V363.831H203.84V350.188H201.67V348.867H206.15V358.9L210.64 354.711H208.62V353.508H215.066V354.711H213.014L209.297 358.277C209.505 358.564 209.788 358.997 210.146 359.577C210.497 360.143 210.805 360.626 211.07 361.027C211.342 361.421 211.642 361.829 211.972 362.252C212.667 363.126 213.361 363.562 214.056 363.562C214.471 363.562 214.844 363.487 215.173 363.337L215.485 364.787C215.134 364.988 214.819 365.113 214.539 365.163C214.267 365.22 213.941 365.249 213.562 365.249ZM220.909 365.324C220.387 365.324 219.85 365.271 219.298 365.163C218.754 365.056 218.249 364.887 217.783 364.658C217.318 364.429 216.942 364.132 216.656 363.767C216.376 363.394 216.237 362.947 216.237 362.424C216.237 361.958 216.383 361.575 216.677 361.274C216.971 360.974 217.314 360.823 217.708 360.823C218.109 360.823 218.449 360.934 218.729 361.156C219.015 361.378 219.158 361.701 219.158 362.123C219.158 362.488 219.051 362.793 218.836 363.036C218.621 363.272 218.378 363.391 218.106 363.391C218.378 363.591 218.747 363.759 219.212 363.896C219.685 364.024 220.157 364.089 220.63 364.089C221.131 364.089 221.615 364.035 222.08 363.928C222.546 363.813 222.929 363.62 223.23 363.348C223.531 363.068 223.681 362.685 223.681 362.198C223.681 361.854 223.573 361.55 223.359 361.285C223.151 361.013 222.875 360.798 222.531 360.641C222.188 360.483 221.794 360.326 221.35 360.168C220.913 360.01 220.465 359.874 220.007 359.76C219.406 359.602 218.822 359.395 218.256 359.137C217.698 358.872 217.236 358.524 216.87 358.095C216.512 357.665 216.333 357.124 216.333 356.473C216.333 355.735 216.555 355.126 216.999 354.646C217.45 354.16 218.02 353.798 218.707 353.562C219.402 353.318 220.115 353.196 220.845 353.196C221.303 353.196 221.794 353.25 222.317 353.357C222.847 353.458 223.344 353.615 223.81 353.83C224.282 354.045 224.669 354.317 224.97 354.646C225.271 354.976 225.421 355.37 225.421 355.828C225.421 356.308 225.281 356.698 225.002 356.999C224.73 357.293 224.408 357.439 224.035 357.439C223.627 357.439 223.28 357.318 222.993 357.074C222.707 356.824 222.564 356.483 222.564 356.054C222.564 355.76 222.635 355.531 222.779 355.366C222.929 355.194 223.129 355.026 223.38 354.861C222.671 354.518 221.869 354.346 220.974 354.346C220.236 354.346 219.613 354.507 219.105 354.829C218.596 355.151 218.342 355.606 218.342 356.193C218.342 356.473 218.446 356.723 218.654 356.945C218.868 357.16 219.151 357.332 219.502 357.461C219.846 357.597 220.236 357.74 220.673 357.891C221.117 358.034 221.572 358.166 222.037 358.288C222.503 358.417 222.954 358.589 223.391 358.804C223.835 359.011 224.232 359.241 224.583 359.491C224.927 359.742 225.203 360.071 225.41 360.479C225.625 360.888 225.733 361.35 225.733 361.865C225.733 362.546 225.589 363.111 225.303 363.562C225.024 364.007 224.648 364.357 224.175 364.615C223.702 364.873 223.183 365.056 222.617 365.163C222.052 365.271 221.482 365.324 220.909 365.324ZM232.017 365.324C231.408 365.324 230.839 365.195 230.309 364.938C229.779 364.68 229.349 364.297 229.02 363.788C228.698 363.272 228.536 362.632 228.536 361.865V354.711H226.345V354.206C226.896 354.041 227.398 353.748 227.849 353.325C228.3 352.896 228.658 352.434 228.923 351.939C229.145 351.538 229.306 351.223 229.406 350.994C229.507 350.758 229.607 350.521 229.707 350.285C229.808 350.049 229.962 349.73 230.169 349.329C230.32 349.021 230.452 348.867 230.567 348.867C230.753 348.867 230.846 348.993 230.846 349.243V353.508H235.078V354.732H230.846V361.93C230.846 362.56 230.989 363.033 231.276 363.348C231.562 363.663 231.942 363.82 232.414 363.82C232.987 363.82 233.42 363.634 233.714 363.262C234.008 362.882 234.155 362.22 234.155 361.274V359.728H235.444V361.049C235.444 362.467 235.189 363.534 234.681 364.25C234.18 364.966 233.292 365.324 232.017 365.324ZM239.966 365.324C239.085 365.324 238.365 365.091 237.807 364.626C237.255 364.153 236.98 363.505 236.98 362.682C236.98 362.252 237.076 361.862 237.27 361.511C237.463 361.153 237.721 360.855 238.043 360.619C238.709 360.125 239.483 359.713 240.364 359.384C241.223 359.076 241.996 358.721 242.684 358.32C242.999 358.134 243.253 357.909 243.447 357.644C243.64 357.371 243.737 357.071 243.737 356.741C243.737 355.925 243.536 355.32 243.135 354.926C242.734 354.525 242.172 354.324 241.448 354.324C240.94 354.324 240.457 354.407 239.998 354.571C239.54 354.729 239.185 354.947 238.935 355.227C239.393 355.227 239.755 355.352 240.02 355.603C240.292 355.846 240.428 356.136 240.428 356.473C240.428 356.924 240.281 357.293 239.988 357.579C239.694 357.858 239.343 357.998 238.935 357.998C238.512 357.998 238.143 357.851 237.828 357.558C237.513 357.257 237.356 356.824 237.356 356.258C237.356 355.635 237.725 354.987 238.462 354.313C238.82 353.991 239.3 353.726 239.902 353.519C240.51 353.304 241.18 353.196 241.91 353.196C242.498 353.196 243.031 353.261 243.511 353.39C243.991 353.519 244.428 353.73 244.822 354.023C245.208 354.31 245.509 354.711 245.724 355.227C245.939 355.742 246.046 356.351 246.046 357.053V361.994C246.046 362.273 246.078 362.542 246.143 362.8C246.214 363.05 246.351 363.28 246.551 363.487C246.759 363.695 247.013 363.799 247.314 363.799C248.223 363.799 248.678 363.161 248.678 361.887V360.286H249.849V361.672C249.849 363.104 249.555 364.085 248.968 364.615C248.682 364.873 248.37 365.056 248.033 365.163C247.697 365.271 247.303 365.324 246.852 365.324C246.372 365.324 245.924 365.231 245.509 365.045C245.094 364.859 244.739 364.558 244.446 364.143C244.138 363.72 243.959 363.219 243.908 362.639C243.601 363.419 243.078 364.064 242.34 364.572C241.61 365.074 240.818 365.324 239.966 365.324ZM240.525 363.777C240.997 363.777 241.484 363.638 241.986 363.358C242.494 363.072 242.913 362.714 243.242 362.284C243.572 361.862 243.737 361.45 243.737 361.049V358.761C243.278 359.212 242.748 359.617 242.147 359.975C241.552 360.333 241.065 360.598 240.686 360.77C240.299 360.941 239.966 361.178 239.687 361.479C239.407 361.779 239.268 362.145 239.268 362.574C239.268 362.932 239.372 363.222 239.579 363.444C239.794 363.666 240.109 363.777 240.525 363.777ZM250.289 365.034V363.831H252.384V354.711H250.289V353.508L254.361 353.325L254.651 355.839C254.83 355.23 255.156 354.657 255.628 354.12C255.879 353.841 256.187 353.619 256.552 353.454C256.917 353.282 257.315 353.196 257.744 353.196C258.324 353.196 258.822 353.357 259.238 353.68C259.66 354.002 259.871 354.457 259.871 355.044C259.871 355.603 259.707 356.036 259.377 356.344C259.055 356.652 258.672 356.806 258.228 356.806C257.812 356.806 257.454 356.677 257.154 356.419C256.853 356.161 256.702 355.814 256.702 355.377C256.702 355.227 256.738 355.073 256.81 354.915C256.881 354.757 256.953 354.636 257.025 354.55L257.143 354.432C256.713 354.432 256.334 354.568 256.004 354.84C255.682 355.105 255.428 355.459 255.241 355.903C254.876 356.791 254.694 357.776 254.694 358.857V363.831H257.111V365.034H250.289ZM265.468 365.324C264.859 365.324 264.29 365.195 263.76 364.938C263.23 364.68 262.8 364.297 262.471 363.788C262.149 363.272 261.988 362.632 261.988 361.865V354.711H259.796V354.206C260.348 354.041 260.849 353.748 261.3 353.325C261.751 352.896 262.109 352.434 262.374 351.939C262.596 351.538 262.757 351.223 262.858 350.994C262.958 350.758 263.058 350.521 263.158 350.285C263.259 350.049 263.413 349.73 263.62 349.329C263.771 349.021 263.903 348.867 264.018 348.867C264.204 348.867 264.297 348.993 264.297 349.243V353.508H268.53V354.732H264.297V361.93C264.297 362.56 264.44 363.033 264.727 363.348C265.013 363.663 265.393 363.82 265.865 363.82C266.438 363.82 266.872 363.634 267.165 363.262C267.459 362.882 267.606 362.22 267.606 361.274V359.728H268.895V361.049C268.895 362.467 268.641 363.534 268.132 364.25C267.631 364.966 266.743 365.324 265.468 365.324Z" fill="white"/>
<path d="M592.85 365.034V363.498H595.438V350.403H592.85V348.867H598.65L606.288 362.177V350.403H603.667V348.867H610.8V350.403H608.34V365.034H605.472L597.49 351.155V363.498H599.95V365.034H592.85ZM617.374 365.324C616.5 365.324 615.702 365.16 614.979 364.83C614.262 364.493 613.672 364.046 613.206 363.487C612.246 362.327 611.767 360.97 611.767 359.416C611.767 358.771 611.842 358.145 611.992 357.536C612.143 356.927 612.372 356.362 612.68 355.839C612.988 355.316 613.356 354.858 613.786 354.464C614.216 354.063 614.728 353.751 615.322 353.529C615.902 353.307 616.543 353.196 617.245 353.196C618.742 353.196 619.974 353.698 620.94 354.7C621.413 355.194 621.789 355.821 622.068 356.58C622.348 357.332 622.494 358.177 622.509 359.115H614.227V359.201C614.227 360.447 614.492 361.496 615.021 362.349C615.286 362.771 615.637 363.104 616.074 363.348C616.518 363.591 617.027 363.713 617.6 363.713C618.344 363.713 619.043 363.48 619.694 363.015C620.353 362.549 620.797 361.894 621.026 361.049L622.283 361.446C622.004 362.628 621.435 363.57 620.575 364.271C619.716 364.973 618.649 365.324 617.374 365.324ZM614.302 357.955H620.146C620.117 356.917 619.83 356.079 619.286 355.441C618.749 354.797 618.09 354.475 617.31 354.475C616.522 354.475 615.845 354.797 615.279 355.441C614.714 356.079 614.388 356.917 614.302 357.955ZM628.761 365.453C628.417 365.453 628.141 365.335 627.934 365.099C627.726 364.869 627.547 364.476 627.396 363.917L624.958 354.711H623.153V353.508H629.18V354.711H627.45L629.244 362.682L631.758 354.743H633.713L636.044 362.746L638.053 354.711H636.248V353.508H641.2V354.711H639.675L637.236 363.863C637.072 364.479 636.893 364.898 636.699 365.12C636.513 365.342 636.223 365.453 635.829 365.453C635.464 365.453 635.174 365.339 634.959 365.109C634.751 364.88 634.572 364.49 634.422 363.938L632.531 356.999L630.308 363.842C630.114 364.443 629.907 364.862 629.685 365.099C629.47 365.335 629.162 365.453 628.761 365.453ZM646.711 365.034V363.498H649.321V350.403H646.711V348.867H654.316V350.403H651.856V355.882H658.635V350.403H656.143V348.867H663.78V350.403H661.159V363.498H663.78V365.034H656.143V363.498H658.635V357.246H651.856V363.498H654.316V365.034H646.711ZM670.548 365.324C669.402 365.324 668.407 365.063 667.562 364.54C666.724 364.017 666.072 363.301 665.606 362.392C665.148 361.475 664.919 360.433 664.919 359.266C664.919 358.098 665.145 357.06 665.596 356.15C666.047 355.234 666.691 354.514 667.529 353.991C668.374 353.461 669.373 353.196 670.526 353.196C671.687 353.196 672.682 353.461 673.513 353.991C674.351 354.514 674.992 355.234 675.436 356.15C675.887 357.06 676.112 358.098 676.112 359.266C676.112 360.419 675.887 361.453 675.436 362.37C674.992 363.287 674.354 364.01 673.523 364.54C672.693 365.063 671.701 365.324 670.548 365.324ZM670.548 363.96C671.507 363.96 672.263 363.545 672.814 362.714C673.373 361.876 673.652 360.773 673.652 359.405C673.652 358.56 673.556 357.762 673.362 357.01C673.169 356.258 672.843 355.649 672.385 355.184C671.934 354.711 671.314 354.475 670.526 354.475C669.724 354.475 669.094 354.718 668.636 355.205C668.177 355.692 667.852 356.312 667.658 357.063C667.472 357.815 667.379 358.596 667.379 359.405C667.379 360.78 667.662 361.883 668.228 362.714C668.793 363.545 669.567 363.96 670.548 363.96ZM677.025 365.034V363.831H679.12V354.711H677.025V353.508L681.097 353.325L681.387 355.839C681.566 355.23 681.892 354.657 682.364 354.12C682.615 353.841 682.923 353.619 683.288 353.454C683.653 353.282 684.051 353.196 684.48 353.196C685.061 353.196 685.558 353.357 685.974 353.68C686.396 354.002 686.607 354.457 686.607 355.044C686.607 355.603 686.443 356.036 686.113 356.344C685.791 356.652 685.408 356.806 684.964 356.806C684.549 356.806 684.19 356.677 683.89 356.419C683.589 356.161 683.438 355.814 683.438 355.377C683.438 355.227 683.474 355.073 683.546 354.915C683.618 354.757 683.689 354.636 683.761 354.55L683.879 354.432C683.449 354.432 683.07 354.568 682.74 354.84C682.418 355.105 682.164 355.459 681.978 355.903C681.612 356.791 681.43 357.776 681.43 358.857V363.831H683.847V365.034H677.025ZM687.316 365.034V363.777H689.39V354.711H687.295V353.508H691.699V363.777H693.805V365.034H687.316ZM690.367 351.467C689.93 351.467 689.554 351.309 689.239 350.994C688.931 350.679 688.777 350.307 688.777 349.877C688.777 349.433 688.931 349.057 689.239 348.749C689.554 348.434 689.93 348.276 690.367 348.276C690.797 348.276 691.169 348.434 691.484 348.749C691.807 349.064 691.968 349.44 691.968 349.877C691.968 350.307 691.807 350.679 691.484 350.994C691.169 351.309 690.797 351.467 690.367 351.467ZM695.33 365.034L695.158 363.337L702.001 354.711H697.006V357.665H695.244V353.508H704.063L704.375 355.108L697.446 363.831H703.054V360.544H704.815V365.034H695.33ZM711.927 365.324C710.781 365.324 709.785 365.063 708.94 364.54C708.103 364.017 707.451 363.301 706.985 362.392C706.527 361.475 706.298 360.433 706.298 359.266C706.298 358.098 706.523 357.06 706.975 356.15C707.426 355.234 708.07 354.514 708.908 353.991C709.753 353.461 710.752 353.196 711.905 353.196C713.065 353.196 714.061 353.461 714.892 353.991C715.729 354.514 716.37 355.234 716.814 356.15C717.266 357.06 717.491 358.098 717.491 359.266C717.491 360.419 717.266 361.453 716.814 362.37C716.37 363.287 715.733 364.01 714.902 364.54C714.072 365.063 713.08 365.324 711.927 365.324ZM711.927 363.96C712.886 363.96 713.642 363.545 714.193 362.714C714.752 361.876 715.031 360.773 715.031 359.405C715.031 358.56 714.935 357.762 714.741 357.01C714.548 356.258 714.222 355.649 713.764 355.184C713.312 354.711 712.693 354.475 711.905 354.475C711.103 354.475 710.473 354.718 710.015 355.205C709.556 355.692 709.23 356.312 709.037 357.063C708.851 357.815 708.758 358.596 708.758 359.405C708.758 360.78 709.041 361.883 709.606 362.714C710.172 363.545 710.946 363.96 711.927 363.96ZM718.812 365.034V363.831H720.907V354.711H718.812V353.508L722.884 353.325L723.152 355.667C723.503 354.865 724.04 354.253 724.764 353.83C725.494 353.408 726.232 353.196 726.977 353.196C727.872 353.196 728.577 353.386 729.093 353.766C729.616 354.138 729.988 354.639 730.21 355.27C730.432 355.9 730.543 356.602 730.543 357.375V363.831H732.745V365.034H726.268V363.831H728.233V357.396C728.233 356.465 728.051 355.778 727.686 355.334C727.32 354.89 726.819 354.668 726.182 354.668C725.437 354.668 724.846 354.883 724.409 355.312C723.979 355.735 723.672 356.261 723.485 356.892C723.306 357.515 723.217 358.131 723.217 358.739V363.831H725.172V365.034H718.812ZM738.009 365.324C737.486 365.324 736.949 365.271 736.397 365.163C735.853 365.056 735.348 364.887 734.883 364.658C734.417 364.429 734.041 364.132 733.755 363.767C733.476 363.394 733.336 362.947 733.336 362.424C733.336 361.958 733.483 361.575 733.776 361.274C734.07 360.974 734.414 360.823 734.808 360.823C735.209 360.823 735.549 360.934 735.828 361.156C736.115 361.378 736.258 361.701 736.258 362.123C736.258 362.488 736.15 362.793 735.936 363.036C735.721 363.272 735.477 363.391 735.205 363.391C735.477 363.591 735.846 363.759 736.312 363.896C736.784 364.024 737.257 364.089 737.729 364.089C738.231 364.089 738.714 364.035 739.18 363.928C739.645 363.813 740.028 363.62 740.329 363.348C740.63 363.068 740.78 362.685 740.78 362.198C740.78 361.854 740.673 361.55 740.458 361.285C740.25 361.013 739.975 360.798 739.631 360.641C739.287 360.483 738.893 360.326 738.449 360.168C738.012 360.01 737.565 359.874 737.106 359.76C736.505 359.602 735.921 359.395 735.355 359.137C734.797 358.872 734.335 358.524 733.97 358.095C733.612 357.665 733.433 357.124 733.433 356.473C733.433 355.735 733.655 355.126 734.099 354.646C734.55 354.16 735.119 353.798 735.807 353.562C736.501 353.318 737.214 353.196 737.944 353.196C738.403 353.196 738.893 353.25 739.416 353.357C739.946 353.458 740.444 353.615 740.909 353.83C741.382 354.045 741.769 354.317 742.069 354.646C742.37 354.976 742.521 355.37 742.521 355.828C742.521 356.308 742.381 356.698 742.102 356.999C741.829 357.293 741.507 357.439 741.135 357.439C740.727 357.439 740.379 357.318 740.093 357.074C739.806 356.824 739.663 356.483 739.663 356.054C739.663 355.76 739.735 355.531 739.878 355.366C740.028 355.194 740.229 355.026 740.479 354.861C739.771 354.518 738.968 354.346 738.073 354.346C737.336 354.346 736.713 354.507 736.204 354.829C735.696 355.151 735.441 355.606 735.441 356.193C735.441 356.473 735.545 356.723 735.753 356.945C735.968 357.16 736.251 357.332 736.602 357.461C736.945 357.597 737.336 357.74 737.772 357.891C738.216 358.034 738.671 358.166 739.137 358.288C739.602 358.417 740.053 358.589 740.49 358.804C740.934 359.011 741.332 359.241 741.683 359.491C742.026 359.742 742.302 360.071 742.51 360.479C742.725 360.888 742.832 361.35 742.832 361.865C742.832 362.546 742.689 363.111 742.402 363.562C742.123 364.007 741.747 364.357 741.274 364.615C740.802 364.873 740.283 365.056 739.717 365.163C739.151 365.271 738.582 365.324 738.009 365.324Z" fill="white"/>
<g clip-path="url(#clip0_1506_434)">
<path d="M580.078 206.664C574.763 212.537 568.478 217.28 561.204 220.825C547.42 227.549 535.109 227.306 534.936 227.306H503.734C502.78 227.306 502 228.088 502 229.043V267.269C502 268.224 502.78 269.006 503.734 269.006H535.629C536.531 268.998 558.014 268.754 581.404 259.632C588.331 256.93 594.669 253.725 600.39 250.05C599.177 247.4 598.188 244.603 597.486 241.666C594.07 227.358 588.227 215.673 580.078 206.664Z" fill="black"/>
<path d="M803.266 203.258H776.2C778.853 194.605 780.214 185.605 780.214 176.465C780.214 126.208 739.415 85.3235 689.262 85.3235C643.799 85.3235 606.026 118.919 599.359 162.635C593.906 159.229 587.915 156.241 581.396 153.695C558.014 144.573 536.531 144.33 535.612 144.321H503.734C502.78 144.321 502 145.103 502 146.059V184.284C502 185.24 502.78 186.022 503.734 186.022H534.988C535.118 186.022 547.42 185.77 561.204 192.503C567.021 195.344 572.206 198.932 576.775 203.258H503.734C502.78 203.258 502 204.04 502 204.996C502 205.951 502.78 206.733 503.734 206.733H580.017C574.72 212.571 568.452 217.289 561.213 220.825C547.428 227.549 535.118 227.305 534.944 227.305H503.734C502.78 227.305 502 228.087 502 229.043V267.269C502 268.224 502.78 269.006 503.734 269.006H535.629C536.531 268.997 558.014 268.754 581.404 259.632C588.331 256.93 594.669 253.725 600.39 250.041C607.612 265.774 623.382 276.173 641.293 276.173H704V302.254C704 302.957 704.425 303.592 705.075 303.861C705.292 303.948 705.508 303.991 705.734 303.991C706.193 303.991 706.636 303.809 706.974 303.47L752.489 256.974C753.148 256.305 753.148 255.228 752.497 254.55L740.759 242.335H773.79C774.743 242.335 775.524 241.553 775.524 240.598C775.524 239.642 774.743 238.86 773.79 238.86H737.421L706.982 207.176C706.766 206.95 706.505 206.811 706.219 206.724H803.266C804.22 206.724 805 205.943 805 204.987C805 204.031 804.22 203.258 803.266 203.258ZM580.234 256.357C557.433 265.27 535.82 265.531 535.612 265.531H505.468V230.781H534.892C535.412 230.798 548.053 231.067 562.574 224.022C568.738 221.033 575.778 216.385 582.297 209.253C589.293 217.871 594.382 228.696 597.478 241.657C597.902 243.43 598.431 245.159 599.055 246.835C593.438 250.467 587.161 253.646 580.234 256.357ZM705.084 206.777C704.425 207.037 704 207.68 704 208.384V234.473H656.69C646.92 234.473 638.623 227.575 636.976 218.062C636.3 214.152 635.372 210.373 634.219 206.724H705.266C705.205 206.751 705.144 206.751 705.084 206.777Z" fill="white"/>
<path d="M790.357 177.812H803.023C803.977 177.812 804.757 177.03 804.757 176.074C804.757 175.119 803.977 174.337 803.023 174.337H790.357C789.403 174.337 788.623 175.119 788.623 176.074C788.623 177.03 789.403 177.812 790.357 177.812Z" fill="white"/>
<path d="M689.47 75.1677C690.423 75.1677 691.204 74.3858 691.204 73.4302V60.7375C691.204 59.7819 690.423 59 689.47 59C688.516 59 687.736 59.7819 687.736 60.7375V73.4302C687.736 74.3945 688.516 75.1677 689.47 75.1677Z" fill="white"/>
<path d="M763.889 107.668C764.331 107.668 764.773 107.494 765.112 107.156L774.067 98.1812C774.743 97.5035 774.743 96.4002 774.067 95.7226C773.391 95.0449 772.29 95.0449 771.614 95.7226L762.658 104.697C761.982 105.375 761.982 106.478 762.658 107.156C762.996 107.494 763.438 107.668 763.889 107.668Z" fill="white"/>
<path d="M614.695 107.156C615.033 107.494 615.475 107.668 615.917 107.668C616.36 107.668 616.802 107.494 617.14 107.156C617.816 106.478 617.816 105.375 617.14 104.697L608.184 95.7226C607.508 95.0449 606.407 95.0449 605.731 95.7226C605.055 96.4002 605.055 97.5035 605.731 98.1812L614.695 107.156Z" fill="white"/>
<path d="M677.731 249.911C677.731 250.745 677.618 251.501 677.384 252.187C677.15 252.873 676.873 253.508 676.535 254.09C676.205 254.672 675.841 255.176 675.442 255.61C675.044 256.044 674.688 256.418 674.367 256.722C673.717 257.313 673.05 257.886 672.347 258.442C671.654 258.998 670.978 259.459 670.327 259.823H675.026C675.252 259.823 675.434 259.91 675.572 260.084C675.711 260.258 675.763 260.458 675.728 260.675L675.425 262.412C675.382 262.638 675.278 262.829 675.096 263.003C674.914 263.177 674.714 263.264 674.489 263.264H665.386C665.16 263.264 664.978 263.177 664.84 263.003C664.701 262.829 664.649 262.63 664.692 262.412L664.909 261.196C664.952 260.909 665.013 260.675 665.108 260.484C665.195 260.293 665.36 260.101 665.576 259.919C665.941 259.632 666.357 259.293 666.825 258.903C667.293 258.503 667.778 258.086 668.281 257.643C668.784 257.2 669.287 256.739 669.781 256.279C670.275 255.81 670.726 255.367 671.134 254.941C671.844 254.168 672.425 253.412 672.876 252.673C673.327 251.935 673.561 251.118 673.561 250.224C673.561 249.45 673.37 248.929 672.998 248.642C672.625 248.356 672.165 248.217 671.619 248.217C671.03 248.217 670.475 248.321 669.937 248.521C669.4 248.721 668.949 248.929 668.585 249.129C668.385 249.233 668.177 249.259 667.978 249.225C667.778 249.181 667.622 249.042 667.518 248.799L666.938 247.131C666.86 246.905 666.868 246.696 666.981 246.505C667.094 246.314 667.25 246.158 667.449 246.036C667.83 245.793 668.429 245.506 669.226 245.185C670.024 244.863 670.969 244.698 672.061 244.698C673.76 244.698 675.13 245.133 676.171 246.001C677.211 246.87 677.731 248.165 677.731 249.911Z" fill="black"/>
<path d="M691.299 250.606C691.299 251.396 691.238 252.265 691.134 253.203C691.03 254.142 690.874 255.08 690.684 256.001C690.493 256.922 690.25 257.791 689.973 258.598C689.687 259.406 689.374 260.067 689.036 260.579C688.75 261.005 688.447 261.396 688.126 261.752C687.805 262.108 687.432 262.412 687.016 262.664C686.6 262.916 686.141 263.116 685.638 263.255C685.135 263.394 684.545 263.472 683.878 263.472C682.014 263.472 680.705 262.96 679.951 261.935C679.196 260.909 678.815 259.45 678.815 257.539C678.815 256.566 678.884 255.567 679.014 254.541C679.144 253.516 679.335 252.526 679.578 251.579C679.821 250.623 680.115 249.737 680.462 248.92C680.809 248.104 681.199 247.4 681.65 246.809C682.725 245.393 684.251 244.681 686.227 244.681C689.6 244.681 691.299 246.653 691.299 250.606ZM687.354 250.728C687.354 249.694 687.242 248.955 687.025 248.503C686.8 248.06 686.487 247.835 686.089 247.835C685.768 247.835 685.49 247.921 685.265 248.104C685.04 248.286 684.832 248.547 684.632 248.894C684.407 249.277 684.19 249.824 683.965 250.536C683.739 251.249 683.549 252.013 683.375 252.83C683.202 253.647 683.063 254.463 682.95 255.28C682.838 256.088 682.786 256.791 682.786 257.382C682.786 258.416 682.89 259.155 683.089 259.589C683.288 260.023 683.592 260.24 683.999 260.24C684.346 260.24 684.658 260.11 684.953 259.858C685.248 259.606 685.508 259.241 685.725 258.781C685.889 258.46 686.063 257.982 686.253 257.365C686.444 256.748 686.626 256.062 686.782 255.315C686.938 254.567 687.077 253.786 687.19 252.986C687.302 252.187 687.354 251.44 687.354 250.728Z" fill="black"/>
<path d="M705.04 249.911C705.04 250.745 704.927 251.501 704.693 252.187C704.459 252.873 704.182 253.508 703.844 254.09C703.514 254.672 703.15 255.176 702.751 255.61C702.353 256.044 701.997 256.418 701.676 256.722C701.026 257.313 700.359 257.886 699.656 258.442C698.963 258.998 698.287 259.459 697.636 259.823H702.335C702.561 259.823 702.743 259.91 702.881 260.084C703.02 260.258 703.072 260.458 703.038 260.675L702.734 262.412C702.691 262.638 702.587 262.829 702.405 263.003C702.223 263.177 702.023 263.264 701.798 263.264H692.695C692.469 263.264 692.287 263.177 692.149 263.003C692.01 262.829 691.958 262.63 692.001 262.412L692.218 261.196C692.261 260.909 692.322 260.675 692.417 260.484C692.504 260.293 692.669 260.101 692.885 259.919C693.25 259.632 693.666 259.293 694.134 258.903C694.602 258.503 695.088 258.086 695.59 257.643C696.093 257.2 696.596 256.739 697.09 256.279C697.584 255.81 698.035 255.367 698.443 254.941C699.154 254.168 699.734 253.412 700.185 252.673C700.636 251.935 700.87 251.118 700.87 250.224C700.87 249.45 700.679 248.929 700.307 248.642C699.934 248.356 699.474 248.217 698.928 248.217C698.339 248.217 697.784 248.321 697.246 248.521C696.709 248.721 696.258 248.929 695.894 249.129C695.694 249.233 695.486 249.259 695.287 249.225C695.088 249.181 694.932 249.042 694.827 248.799L694.247 247.131C694.169 246.905 694.177 246.696 694.29 246.505C694.403 246.314 694.559 246.158 694.758 246.036C695.14 245.793 695.738 245.506 696.535 245.185C697.333 244.863 698.278 244.698 699.37 244.698C701.07 244.698 702.439 245.133 703.48 246.001C704.52 246.87 705.04 248.165 705.04 249.911Z" fill="black"/>
<path d="M714.828 253.855L718.027 262.282C718.131 262.551 718.122 262.777 718.001 262.968C717.88 263.16 717.671 263.255 717.385 263.255H714.863C714.611 263.255 714.403 263.194 714.247 263.081C714.082 262.968 713.978 262.821 713.926 262.638L712.21 256.739L708.525 262.638C708.404 262.838 708.256 262.986 708.092 263.099C707.927 263.203 707.728 263.264 707.476 263.264H704.685C704.398 263.264 704.208 263.177 704.104 262.995C704.008 262.812 704.052 262.586 704.251 262.291L710.38 253.673L707.615 246.184C707.528 245.915 707.545 245.689 707.684 245.498C707.823 245.307 708.031 245.211 708.317 245.211H710.875C711.126 245.211 711.325 245.272 711.464 245.385C711.611 245.498 711.707 245.645 711.759 245.828L713.103 250.728L715.955 245.828C716.189 245.419 716.536 245.211 717.004 245.211H719.691C719.978 245.211 720.168 245.298 720.272 245.48C720.368 245.663 720.324 245.897 720.125 246.184L714.828 253.855Z" fill="black"/>
<path d="M526.778 243.534C526.752 244.307 526.587 245.002 526.283 245.637C525.98 246.262 525.59 246.809 525.104 247.253C524.628 247.704 524.081 248.06 523.475 248.321C522.868 248.582 522.252 248.738 521.619 248.782C522.122 248.938 522.564 249.225 522.954 249.65C523.344 250.076 523.631 250.597 523.813 251.231C523.917 251.64 524.047 252.152 524.185 252.761C524.324 253.377 524.463 254.003 524.593 254.646C524.723 255.289 524.844 255.905 524.957 256.479C525.07 257.061 525.148 257.513 525.2 257.843C525.269 258.19 525.252 258.477 525.156 258.694C525.061 258.911 524.81 259.016 524.402 259.007L522.009 258.929C521.706 258.92 521.463 258.842 521.29 258.712C521.116 258.573 521.004 258.312 520.952 257.921C520.9 257.53 520.848 257.104 520.778 256.635C520.709 256.166 520.64 255.68 520.57 255.184C520.492 254.68 520.406 254.185 520.301 253.681C520.197 253.178 520.076 252.717 519.955 252.283C519.755 251.631 519.469 251.084 519.114 250.641C518.758 250.198 518.169 249.972 517.363 249.946L516.695 249.92L515.039 257.869C514.987 258.086 514.874 258.277 514.701 258.434C514.528 258.59 514.328 258.668 514.103 258.659L511.615 258.581C511.389 258.573 511.216 258.486 511.077 258.321C510.938 258.156 510.895 257.956 510.947 257.739L514.831 239.13C514.874 238.912 514.987 238.721 515.169 238.565C515.343 238.409 515.542 238.33 515.767 238.339L521.316 238.521C522.426 238.556 523.344 238.739 524.064 239.051C524.784 239.373 525.347 239.773 525.755 240.25C526.162 240.728 526.44 241.258 526.587 241.831C526.734 242.396 526.795 242.97 526.778 243.534ZM522.443 244.247C522.469 243.578 522.321 243.048 522.009 242.648C521.697 242.248 521.177 242.04 520.449 242.023L518.386 241.953L517.345 246.905L519.131 246.966C520.041 247.001 520.813 246.775 521.446 246.297C522.087 245.819 522.417 245.141 522.443 244.247Z" fill="white"/>
<path d="M539.426 247.687C539.47 248.825 539.314 249.746 538.958 250.458C538.603 251.171 538.074 251.744 537.389 252.161C536.695 252.587 535.855 252.891 534.875 253.082C533.895 253.273 532.794 253.412 531.58 253.499C531.615 253.759 531.667 254.011 531.762 254.255C531.849 254.498 531.988 254.706 532.17 254.898C532.352 255.089 532.577 255.228 532.855 255.323C533.132 255.427 533.479 255.462 533.904 255.454C534.589 255.427 535.178 255.323 535.655 255.158C536.132 254.984 536.591 254.811 537.034 254.628C537.51 254.446 537.805 254.593 537.901 255.08L538.239 256.652C538.291 256.913 538.256 257.13 538.126 257.313C537.996 257.495 537.849 257.634 537.675 257.738C537.164 258.025 536.522 258.277 535.759 258.512C534.996 258.746 534.121 258.876 533.132 258.92C531.476 258.981 530.133 258.546 529.101 257.599C528.069 256.652 527.514 255.158 527.436 253.117C527.393 252.005 527.488 250.893 527.731 249.772C527.974 248.66 528.373 247.652 528.936 246.757C529.5 245.862 530.211 245.133 531.086 244.559C531.953 243.986 532.994 243.682 534.207 243.63C535.802 243.569 537.06 243.873 537.979 244.551C538.889 245.22 539.374 246.271 539.426 247.687ZM535.655 248.139C535.638 247.669 535.508 247.322 535.282 247.07C535.048 246.827 534.701 246.714 534.233 246.731C533.852 246.749 533.514 246.879 533.219 247.122C532.924 247.365 532.673 247.678 532.465 248.06C532.257 248.443 532.083 248.877 531.936 249.363C531.788 249.841 531.693 250.328 531.632 250.823C533.08 250.623 534.121 250.319 534.753 249.911C535.378 249.494 535.681 248.903 535.655 248.139Z" fill="white"/>
<path d="M550.506 245.993C550.428 246.184 550.307 246.314 550.151 246.384C549.994 246.453 549.812 246.436 549.596 246.34C549.422 246.262 549.128 246.132 548.711 245.967C548.295 245.801 547.853 245.749 547.394 245.801C546.873 245.862 546.44 246.079 546.093 246.462C545.746 246.835 545.478 247.304 545.278 247.86C545.079 248.416 544.949 249.025 544.897 249.685C544.845 250.345 544.853 250.988 544.923 251.614C545.027 252.517 545.261 253.203 545.634 253.655C546.006 254.116 546.631 254.289 547.515 254.185C547.853 254.142 548.209 254.072 548.573 253.95C548.937 253.838 549.266 253.716 549.552 253.577C549.769 253.49 549.96 253.473 550.142 253.525C550.324 253.577 550.428 253.742 550.463 254.02L550.688 255.679C550.749 256.166 550.575 256.513 550.168 256.722C549.726 256.974 549.232 257.2 548.685 257.382C548.139 257.565 547.532 257.704 546.865 257.782C545.235 257.973 543.891 257.643 542.825 256.783C541.758 255.931 541.108 254.472 540.865 252.421C540.718 251.136 540.744 249.911 540.943 248.755C541.143 247.6 541.507 246.575 542.027 245.689C542.547 244.802 543.215 244.073 544.047 243.491C544.879 242.917 545.842 242.561 546.951 242.431C547.836 242.326 548.581 242.361 549.18 242.526C549.778 242.691 550.298 242.891 550.731 243.126C551.191 243.378 551.338 243.716 551.182 244.142L550.506 245.993Z" fill="white"/>
<path d="M564.689 253.229C564.698 253.455 564.655 253.664 564.542 253.855C564.429 254.046 564.256 254.168 564.022 254.229L561.69 254.776C561.473 254.828 561.282 254.785 561.117 254.663C560.953 254.533 560.866 254.359 560.857 254.133L560.381 245.941C560.363 245.593 560.346 245.263 560.32 244.959C560.303 244.655 560.259 244.368 560.198 244.116C560.129 243.838 560.034 243.621 559.904 243.465C559.774 243.308 559.583 243.256 559.323 243.317C558.985 243.395 558.69 243.716 558.421 244.272C558.161 244.837 557.936 245.576 557.745 246.505C557.554 247.435 557.424 248.529 557.355 249.78C557.286 251.04 557.294 252.395 557.381 253.846L557.45 254.924C557.476 255.48 557.251 255.81 556.783 255.923L554.451 256.47C554.234 256.522 554.043 256.479 553.878 256.357C553.714 256.235 553.627 256.053 553.618 255.827L552.5 235.663C552.491 235.437 552.543 235.229 552.665 235.029C552.786 234.838 552.951 234.707 553.168 234.664L555.5 234.117C555.716 234.065 555.907 234.108 556.072 234.23C556.237 234.36 556.323 234.534 556.332 234.76L556.835 243.577C557.129 242.509 557.546 241.649 558.1 240.989C558.655 240.328 559.375 239.894 560.259 239.685C561.161 239.477 561.941 239.599 562.574 240.068C563.215 240.537 563.666 241.345 563.935 242.509C563.996 242.77 564.048 243.039 564.091 243.317C564.134 243.595 564.169 243.899 564.178 244.229L564.689 253.229Z" fill="white"/>
<path d="M572.449 237.653C572.561 238.2 572.397 238.556 571.972 238.73L570.68 239.26L572.267 246.749C572.353 247.235 572.57 247.409 572.908 247.279C573.038 247.226 573.16 247.166 573.272 247.096C573.385 247.027 573.48 246.957 573.558 246.879C573.697 246.783 573.853 246.74 574.035 246.766C574.217 246.792 574.356 246.914 574.451 247.14L575.162 248.816C575.318 249.19 575.223 249.537 574.894 249.841C574.668 250.041 574.408 250.267 574.096 250.51C573.793 250.754 573.428 250.962 573.021 251.127C572.137 251.483 571.348 251.544 570.637 251.31C569.926 251.075 569.38 250.476 568.998 249.52C568.886 249.233 568.782 248.894 568.686 248.503L567.022 240.737L566.094 241.11C565.886 241.197 565.687 241.188 565.496 241.093C565.305 240.997 565.184 240.841 565.14 240.615L564.863 239.286C564.82 239.06 564.828 238.852 564.898 238.643C564.967 238.443 565.123 238.287 565.366 238.191L566.38 237.783L565.687 234.525C565.617 234.247 565.591 233.986 565.617 233.734C565.643 233.483 565.773 233.274 566.033 233.109L567.975 231.762C568.279 231.554 568.539 231.502 568.747 231.615C568.955 231.728 569.094 231.954 569.172 232.292L570.039 236.306L571.244 235.82C571.452 235.733 571.642 235.741 571.825 235.846C572.007 235.95 572.119 236.106 572.171 236.332L572.449 237.653Z" fill="white"/>
<path d="M634.193 206.664C635.355 202.997 636.291 199.192 636.976 195.257C638.623 185.753 646.92 178.846 656.691 178.846H704V204.978C704 205.691 704.434 206.325 705.084 206.594C705.205 206.646 705.335 206.664 705.465 206.681C705.656 206.655 705.847 206.646 706.029 206.681C706.384 206.62 706.714 206.455 706.974 206.186L752.489 158.769C753.139 158.091 753.13 157.014 752.48 156.345L706.965 109.866C706.471 109.362 705.725 109.206 705.075 109.475C704.425 109.744 704 110.379 704 111.082V137.145H641.293C623.382 137.145 607.612 147.544 600.391 163.278C617.019 173.963 628.48 188.637 634.193 206.664Z" fill="black"/>
<path d="M677.688 155.685C677.688 156.519 677.575 157.275 677.341 157.961C677.107 158.647 676.83 159.282 676.492 159.864C676.162 160.446 675.798 160.95 675.399 161.384C675.001 161.818 674.645 162.192 674.324 162.496C673.674 163.087 673.007 163.66 672.304 164.216C671.611 164.772 670.935 165.233 670.284 165.597H674.983C675.209 165.597 675.391 165.684 675.529 165.858C675.668 166.032 675.72 166.232 675.685 166.449L675.382 168.186C675.339 168.412 675.235 168.603 675.053 168.777C674.871 168.951 674.671 169.038 674.446 169.038H665.343C665.117 169.038 664.935 168.951 664.797 168.777C664.658 168.603 664.606 168.404 664.649 168.186L664.866 166.97C664.909 166.683 664.97 166.449 665.065 166.258C665.152 166.067 665.317 165.875 665.533 165.693C665.898 165.406 666.314 165.068 666.782 164.677C667.25 164.277 667.736 163.86 668.238 163.417C668.741 162.974 669.244 162.513 669.738 162.053C670.232 161.584 670.683 161.141 671.091 160.715C671.802 159.942 672.382 159.186 672.833 158.448C673.284 157.709 673.518 156.892 673.518 155.998C673.518 155.224 673.327 154.703 672.955 154.417C672.582 154.13 672.122 153.991 671.576 153.991C670.987 153.991 670.432 154.095 669.894 154.295C669.357 154.495 668.906 154.703 668.542 154.903C668.342 155.007 668.134 155.033 667.935 154.99C667.736 154.946 667.579 154.807 667.475 154.564L666.895 152.896C666.817 152.67 666.825 152.462 666.938 152.271C667.051 152.08 667.207 151.923 667.406 151.802C667.788 151.558 668.386 151.272 669.183 150.95C669.981 150.629 670.926 150.464 672.018 150.464C673.717 150.464 675.087 150.898 676.128 151.767C677.168 152.636 677.688 153.947 677.688 155.685Z" fill="white"/>
<path d="M691.256 156.388C691.256 157.179 691.195 158.048 691.091 158.986C690.987 159.924 690.831 160.863 690.641 161.784C690.45 162.704 690.207 163.573 689.93 164.381C689.644 165.189 689.331 165.849 688.993 166.353C688.707 166.779 688.404 167.17 688.083 167.526C687.762 167.882 687.389 168.186 686.973 168.438C686.557 168.69 686.098 168.89 685.595 169.029C685.092 169.168 684.503 169.246 683.835 169.246C681.971 169.246 680.662 168.734 679.908 167.708C679.145 166.683 678.772 165.224 678.772 163.313C678.772 162.34 678.841 161.34 678.971 160.315C679.101 159.29 679.292 158.3 679.535 157.353C679.778 156.397 680.072 155.511 680.419 154.694C680.766 153.878 681.156 153.165 681.607 152.583C682.682 151.167 684.208 150.455 686.184 150.455C689.557 150.464 691.256 152.436 691.256 156.388ZM687.311 156.51C687.311 155.476 687.199 154.738 686.982 154.286C686.757 153.843 686.445 153.617 686.046 153.617C685.725 153.617 685.448 153.704 685.222 153.886C684.997 154.069 684.789 154.33 684.589 154.677C684.364 155.059 684.147 155.607 683.922 156.319C683.696 157.031 683.506 157.796 683.332 158.613C683.159 159.429 683.02 160.246 682.907 161.062C682.795 161.87 682.743 162.574 682.743 163.165C682.743 164.199 682.847 164.937 683.046 165.372C683.245 165.806 683.549 166.023 683.956 166.023C684.303 166.023 684.615 165.893 684.91 165.641C685.205 165.389 685.465 165.024 685.682 164.564C685.846 164.242 686.02 163.764 686.21 163.147C686.401 162.531 686.583 161.844 686.739 161.097C686.895 160.35 687.034 159.568 687.147 158.769C687.251 157.978 687.311 157.223 687.311 156.51Z" fill="white"/>
<path d="M704.997 155.685C704.997 156.519 704.885 157.275 704.65 157.961C704.416 158.647 704.139 159.282 703.801 159.864C703.471 160.446 703.107 160.95 702.708 161.384C702.31 161.818 701.954 162.192 701.633 162.496C700.983 163.087 700.316 163.66 699.613 164.216C698.92 164.772 698.244 165.233 697.593 165.597H702.292C702.518 165.597 702.7 165.684 702.839 165.858C702.977 166.032 703.029 166.232 702.995 166.449L702.691 168.186C702.648 168.412 702.544 168.603 702.362 168.777C702.18 168.951 701.98 169.038 701.755 169.038H692.652C692.426 169.038 692.244 168.951 692.106 168.777C691.967 168.603 691.915 168.404 691.958 168.186L692.175 166.97C692.218 166.683 692.279 166.449 692.374 166.258C692.461 166.067 692.626 165.875 692.843 165.693C693.207 165.406 693.623 165.068 694.091 164.677C694.559 164.277 695.045 163.86 695.547 163.417C696.05 162.974 696.553 162.513 697.047 162.053C697.541 161.584 697.992 161.141 698.4 160.715C699.111 159.942 699.691 159.186 700.142 158.448C700.593 157.709 700.827 156.892 700.827 155.998C700.827 155.224 700.636 154.703 700.264 154.417C699.891 154.13 699.431 153.991 698.885 153.991C698.296 153.991 697.741 154.095 697.203 154.295C696.666 154.495 696.215 154.703 695.851 154.903C695.651 155.007 695.443 155.033 695.244 154.99C695.045 154.946 694.889 154.807 694.785 154.564L694.204 152.896C694.126 152.67 694.134 152.462 694.247 152.271C694.36 152.08 694.516 151.923 694.715 151.802C695.097 151.558 695.695 151.272 696.492 150.95C697.29 150.629 698.235 150.464 699.327 150.464C701.027 150.464 702.396 150.898 703.437 151.767C704.477 152.636 704.997 153.947 704.997 155.685Z" fill="white"/>
<path d="M714.785 159.638L717.984 168.065C718.088 168.334 718.079 168.56 717.958 168.751C717.837 168.942 717.629 169.038 717.342 169.038H714.82C714.568 169.038 714.36 168.977 714.204 168.864C714.039 168.751 713.935 168.603 713.883 168.421L712.167 162.522L708.482 168.421C708.361 168.621 708.213 168.768 708.049 168.881C707.884 168.986 707.685 169.046 707.433 169.046H704.642C704.355 169.046 704.165 168.959 704.061 168.777C703.965 168.595 704.009 168.36 704.208 168.073L710.337 159.455L707.572 151.966C707.485 151.697 707.502 151.471 707.641 151.28C707.78 151.089 707.988 150.993 708.274 150.993H710.832C711.083 150.993 711.282 151.054 711.421 151.167C711.56 151.28 711.664 151.436 711.716 151.61L713.06 156.51L715.912 151.61C716.146 151.193 716.493 150.993 716.961 150.993H719.649C719.935 150.993 720.125 151.08 720.229 151.263C720.325 151.445 720.281 151.68 720.082 151.966L714.785 159.638Z" fill="white"/>
<path d="M526.249 158.421C525.98 158.821 525.642 158.882 525.217 158.595C525.096 158.517 524.922 158.387 524.705 158.23C524.489 158.074 524.22 157.9 523.916 157.735C523.613 157.57 523.258 157.431 522.841 157.301C522.425 157.17 521.966 157.109 521.463 157.109C520.492 157.101 519.668 157.414 518.984 158.048C518.299 158.682 517.735 159.472 517.284 160.411C516.833 161.349 516.504 162.365 516.296 163.46C516.088 164.555 515.975 165.545 515.975 166.44C515.967 168.021 516.218 169.177 516.729 169.898C517.241 170.619 518.056 170.984 519.166 170.992C519.426 170.992 519.72 170.975 520.05 170.94C520.371 170.905 520.648 170.853 520.873 170.792L521.784 165.962L519.72 165.945C519.46 165.945 519.27 165.858 519.148 165.684C519.027 165.51 518.992 165.311 519.027 165.093L519.339 163.304C519.382 163.043 519.495 162.835 519.677 162.687C519.859 162.539 520.067 162.461 520.284 162.461L525.624 162.496C525.85 162.496 526.032 162.583 526.171 162.756C526.309 162.93 526.361 163.13 526.318 163.347L524.679 172.339C524.619 172.686 524.506 172.982 524.341 173.234C524.177 173.486 523.838 173.694 523.336 173.851C522.807 174.007 522.165 174.163 521.402 174.328C520.639 174.485 519.79 174.563 518.836 174.554C517.544 174.546 516.443 174.354 515.533 173.972C514.623 173.59 513.886 173.051 513.314 172.365C512.741 171.67 512.325 170.862 512.074 169.924C511.814 168.985 511.692 167.952 511.701 166.822C511.71 165.258 511.909 163.695 512.291 162.131C512.672 160.558 513.262 159.151 514.059 157.9C514.857 156.649 515.88 155.633 517.128 154.851C518.377 154.069 519.868 153.687 521.61 153.695C522.46 153.704 523.197 153.782 523.821 153.938C524.445 154.095 524.983 154.277 525.425 154.477C525.867 154.686 526.231 154.894 526.509 155.12C526.795 155.346 527.012 155.52 527.176 155.641C527.575 155.971 527.644 156.336 527.384 156.736L526.249 158.421Z" fill="black"/>
<path d="M539.842 163.999C539.808 165.137 539.582 166.04 539.175 166.727C538.767 167.413 538.204 167.943 537.484 168.317C536.765 168.69 535.906 168.933 534.909 169.055C533.912 169.177 532.811 169.237 531.597 169.237C531.606 169.498 531.65 169.759 531.728 170.002C531.797 170.245 531.918 170.471 532.083 170.671C532.248 170.871 532.464 171.027 532.733 171.149C533.002 171.27 533.349 171.34 533.774 171.348C534.458 171.375 535.048 171.314 535.542 171.175C536.036 171.036 536.504 170.897 536.955 170.749C537.449 170.601 537.727 170.775 537.788 171.262L538.004 172.851C538.039 173.121 537.987 173.329 537.848 173.503C537.71 173.668 537.553 173.798 537.363 173.894C536.825 174.137 536.175 174.354 535.403 174.528C534.632 174.702 533.748 174.78 532.759 174.745C531.103 174.693 529.794 174.155 528.832 173.138C527.87 172.122 527.427 170.593 527.497 168.542C527.531 167.43 527.714 166.327 528.034 165.232C528.355 164.138 528.823 163.165 529.447 162.313C530.072 161.462 530.835 160.784 531.745 160.272C532.655 159.768 533.713 159.533 534.927 159.568C536.522 159.62 537.753 160.02 538.62 160.758C539.478 161.505 539.894 162.583 539.842 163.999ZM536.045 164.173C536.062 163.703 535.958 163.347 535.75 163.087C535.533 162.826 535.195 162.687 534.736 162.67C534.354 162.661 534.008 162.765 533.696 162.982C533.383 163.208 533.115 163.504 532.881 163.868C532.646 164.233 532.438 164.659 532.265 165.128C532.083 165.597 531.953 166.075 531.858 166.562C533.314 166.466 534.38 166.24 535.039 165.875C535.672 165.51 536.019 164.946 536.045 164.173Z" fill="black"/>
<path d="M550.87 164.563C550.749 164.711 550.576 164.824 550.359 164.902C550.133 164.98 549.934 164.946 549.743 164.798C549.535 164.633 549.24 164.416 548.859 164.138C548.469 163.868 548.001 163.695 547.437 163.634C547.099 163.59 546.796 163.643 546.544 163.79C546.293 163.938 546.145 164.164 546.111 164.485C546.067 164.868 546.241 165.232 546.64 165.571C547.038 165.919 547.48 166.31 547.983 166.753C548.278 167.013 548.564 167.291 548.85 167.587C549.128 167.882 549.379 168.23 549.587 168.612C549.795 168.994 549.951 169.411 550.064 169.863C550.177 170.315 550.194 170.81 550.133 171.357C549.925 173.086 549.31 174.268 548.278 174.902C547.246 175.536 545.929 175.753 544.316 175.562C543.215 175.432 542.261 175.145 541.464 174.719C540.666 174.294 540.007 173.877 539.487 173.486C539.097 173.173 539.045 172.799 539.348 172.365L540.311 170.914C540.441 170.706 540.588 170.558 540.762 170.48C540.935 170.402 541.134 170.436 541.36 170.584C541.542 170.732 541.767 170.888 542.019 171.062C542.27 171.236 542.539 171.401 542.816 171.557C543.094 171.713 543.38 171.852 543.683 171.983C543.987 172.113 544.273 172.191 544.559 172.226C545.46 172.33 545.955 172.017 546.05 171.27C546.093 170.871 545.955 170.506 545.625 170.193C545.296 169.88 544.897 169.524 544.437 169.116C544.125 168.855 543.813 168.568 543.501 168.273C543.189 167.969 542.912 167.639 542.669 167.274C542.426 166.909 542.244 166.501 542.114 166.04C541.984 165.589 541.949 165.085 542.019 164.546C542.114 163.764 542.322 163.095 542.652 162.557C542.981 162.018 543.397 161.584 543.909 161.271C544.411 160.949 544.992 160.75 545.634 160.645C546.275 160.55 546.96 160.541 547.68 160.628C548.642 160.741 549.44 160.958 550.081 161.28C550.714 161.601 551.191 161.914 551.494 162.218C551.659 162.383 551.781 162.565 551.859 162.765C551.937 162.965 551.902 163.173 551.755 163.382L550.87 164.563Z" fill="black"/>
<path d="M564.941 169.098C564.646 170.193 564.212 171.027 563.658 171.6C563.103 172.174 562.435 172.556 561.646 172.747C560.857 172.938 559.964 172.982 558.976 172.869C557.979 172.756 556.887 172.556 555.708 172.269C555.656 172.53 555.638 172.791 555.656 173.043C555.673 173.295 555.734 173.546 555.846 173.772C555.959 174.007 556.132 174.207 556.366 174.389C556.601 174.572 556.921 174.719 557.329 174.824C557.988 175.006 558.577 175.084 559.089 175.067C559.6 175.049 560.086 175.023 560.563 174.98C561.074 174.954 561.308 175.18 561.256 175.675L561.1 177.273C561.065 177.543 560.97 177.734 560.797 177.864C560.623 177.995 560.432 178.09 560.233 178.134C559.652 178.246 558.967 178.299 558.178 178.299C557.381 178.29 556.505 178.16 555.552 177.89C553.948 177.456 552.803 176.631 552.11 175.414C551.416 174.207 551.329 172.608 551.876 170.636C552.17 169.559 552.595 168.525 553.159 167.535C553.722 166.544 554.407 165.71 555.213 165.024C556.02 164.338 556.921 163.86 557.918 163.573C558.915 163.286 560.008 163.312 561.178 163.634C562.721 164.06 563.822 164.729 564.498 165.649C565.166 166.588 565.313 167.734 564.941 169.098ZM561.195 168.395C561.317 167.943 561.308 167.569 561.161 167.265C561.013 166.961 560.71 166.753 560.268 166.622C559.895 166.518 559.531 166.544 559.184 166.683C558.829 166.831 558.499 167.048 558.187 167.352C557.875 167.656 557.572 168.012 557.294 168.429C557.008 168.846 556.765 169.281 556.566 169.724C558.005 169.976 559.089 169.993 559.817 169.793C560.528 169.611 560.996 169.133 561.195 168.395Z" fill="black"/>
<path d="M574.616 171.227C574.321 171.696 573.957 171.852 573.523 171.679L572.223 171.175L568.252 177.717C567.984 178.134 568.018 178.412 568.356 178.542C568.486 178.594 568.616 178.637 568.747 178.664C568.877 178.69 568.998 178.707 569.102 178.707C569.267 178.724 569.405 178.811 569.527 178.95C569.648 179.089 569.657 179.28 569.57 179.506L568.937 181.218C568.79 181.6 568.486 181.782 568.036 181.782C567.732 181.774 567.385 181.756 567.004 181.722C566.614 181.687 566.215 181.591 565.799 181.435C564.915 181.087 564.29 180.583 563.944 179.923C563.588 179.263 563.605 178.455 563.978 177.491C564.091 177.204 564.247 176.891 564.446 176.535L568.547 169.75L567.611 169.385C567.403 169.307 567.264 169.159 567.186 168.959C567.117 168.76 567.134 168.56 567.255 168.369L567.966 167.213C568.088 167.022 568.235 166.874 568.434 166.77C568.625 166.675 568.842 166.666 569.085 166.761L570.099 167.161L571.824 164.312C571.963 164.06 572.128 163.851 572.31 163.686C572.492 163.521 572.735 163.46 573.047 163.512L575.387 163.868C575.751 163.929 575.977 164.068 576.055 164.294C576.133 164.52 576.081 164.781 575.899 165.076L573.784 168.595L574.997 169.072C575.205 169.151 575.344 169.29 575.405 169.489C575.465 169.689 575.439 169.88 575.327 170.08L574.616 171.227Z" fill="black"/>
<path d="M586.493 177.621C586.328 177.829 586.155 177.994 585.956 178.107C585.756 178.22 585.565 178.316 585.383 178.403L576.879 181.973C576.61 182.086 576.298 182.173 575.925 182.234C575.552 182.295 575.275 182.338 575.084 182.347C575.197 182.39 575.37 182.46 575.595 182.573C575.821 182.686 576.02 182.781 576.176 182.868L579.904 184.901C580.104 185.005 580.225 185.17 580.268 185.379C580.312 185.587 580.268 185.779 580.13 185.961L579.28 187.021C579.141 187.195 578.942 187.308 578.699 187.36C578.456 187.412 578.231 187.386 578.04 187.273L570.498 183.164C570.298 183.059 570.186 182.903 570.151 182.694C570.116 182.486 570.168 182.295 570.307 182.121L571.191 181.009C571.33 180.835 571.495 180.688 571.677 180.566C571.859 180.444 572.067 180.331 572.31 180.236L580.849 176.726C581.101 176.604 581.395 176.518 581.751 176.457C582.106 176.396 582.375 176.361 582.566 176.353C582.453 176.309 582.28 176.24 582.046 176.135C581.812 176.031 581.621 175.935 581.456 175.849L578.179 174.059C577.98 173.955 577.858 173.798 577.815 173.581C577.772 173.373 577.815 173.182 577.954 172.999L578.803 171.939C578.951 171.748 579.15 171.626 579.384 171.574C579.618 171.531 579.826 171.557 580.026 171.661L587.117 175.527C587.308 175.631 587.429 175.788 587.464 175.996C587.499 176.205 587.447 176.396 587.308 176.57L586.493 177.621Z" fill="black"/>
<path d="M582.808 189.705C582.592 189.827 582.349 189.871 582.08 189.844C581.811 189.818 581.586 189.74 581.404 189.601L580.26 188.741C580.017 188.559 579.93 188.359 579.991 188.142C580.052 187.924 580.216 187.733 580.485 187.586L598.526 177.96C598.743 177.838 598.986 177.795 599.255 177.821C599.523 177.847 599.749 177.925 599.931 178.064L601.075 178.924C601.318 179.107 601.405 179.306 601.344 179.524C601.283 179.741 601.118 179.932 600.85 180.08L582.808 189.705Z" fill="black"/>
<path d="M593.645 199.557C593.411 199.635 593.169 199.644 592.909 199.575C592.648 199.505 592.44 199.392 592.284 199.227L589.831 196.656C589.675 196.49 589.588 196.299 589.562 196.065C589.536 195.839 589.597 195.63 589.727 195.448L601.725 181.183C601.899 180.957 602.124 180.827 602.393 180.801C602.662 180.775 602.896 180.87 603.104 181.087L604.881 182.955C605.289 183.381 605.289 183.806 604.898 184.25L596.411 193.346C596.134 193.641 595.813 193.954 595.449 194.292C595.085 194.631 594.738 194.944 594.408 195.248C594.079 195.552 593.784 195.813 593.524 196.03C593.29 196.221 593.134 196.369 593.039 196.447L593.645 196.117C593.975 195.934 594.356 195.735 594.772 195.517C595.189 195.3 595.631 195.074 596.09 194.848C596.55 194.623 596.957 194.44 597.339 194.31L609.727 189.393C610.36 189.149 610.88 189.236 611.288 189.662L613.135 191.599C613.343 191.817 613.403 192.034 613.299 192.234C613.204 192.442 613.004 192.598 612.718 192.703L593.645 199.557Z" fill="black"/>
<path d="M611.062 207.446C610.1 208.054 609.225 208.375 608.436 208.427C607.638 208.471 606.884 208.306 606.173 207.915C605.462 207.524 604.777 206.95 604.118 206.195C603.459 205.439 602.792 204.553 602.107 203.545C601.899 203.701 601.708 203.884 601.543 204.083C601.379 204.283 601.266 204.509 601.197 204.752C601.127 204.996 601.119 205.274 601.171 205.56C601.223 205.847 601.361 206.177 601.587 206.533C601.951 207.115 602.332 207.576 602.722 207.906C603.113 208.236 603.494 208.549 603.867 208.836C604.266 209.157 604.274 209.487 603.91 209.817L602.722 210.895C602.523 211.068 602.315 211.147 602.098 211.129C601.881 211.112 601.682 211.051 601.5 210.947C600.997 210.643 600.451 210.217 599.87 209.678C599.289 209.131 598.734 208.445 598.206 207.602C597.321 206.195 597.027 204.813 597.33 203.449C597.633 202.085 598.648 200.852 600.373 199.766C601.309 199.166 602.324 198.697 603.407 198.35C604.491 198.002 605.557 197.846 606.615 197.889C607.673 197.933 608.661 198.185 609.589 198.654C610.516 199.123 611.305 199.87 611.955 200.895C612.805 202.25 613.169 203.493 613.048 204.622C612.918 205.743 612.259 206.681 611.062 207.446ZM608.782 204.388C609.173 204.136 609.424 203.849 609.511 203.527C609.606 203.206 609.528 202.841 609.285 202.45C609.077 202.12 608.8 201.894 608.436 201.764C608.08 201.634 607.681 201.573 607.248 201.581C606.814 201.59 606.346 201.66 605.861 201.773C605.375 201.885 604.898 202.042 604.448 202.233C605.349 203.388 606.13 204.144 606.797 204.483C607.465 204.822 608.132 204.805 608.782 204.388Z" fill="black"/>
<path d="M615.424 218.21C614.851 218.192 614.583 217.94 614.609 217.454C614.617 217.297 614.635 217.141 614.678 216.967C614.721 216.794 614.687 216.585 614.591 216.316C614.487 216.055 614.149 215.847 613.568 215.708C612.987 215.569 612.259 215.49 611.358 215.482C610.465 215.473 609.442 215.534 608.297 215.655C607.153 215.777 605.956 215.968 604.708 216.22L603.685 216.429C603.46 216.472 603.243 216.437 603.017 216.316C602.792 216.194 602.645 216.029 602.567 215.821L601.726 213.666C601.648 213.458 601.656 213.266 601.76 213.084C601.864 212.901 602.02 212.789 602.246 212.745L615.172 210.121C615.718 210.017 616.082 210.2 616.265 210.669L617.088 212.762C617.166 212.971 617.157 213.171 617.062 213.362C616.958 213.553 616.793 213.675 616.551 213.727L614.912 214.04C615.996 214.135 616.845 214.344 617.47 214.665C618.094 214.987 618.527 215.456 618.77 216.081C618.848 216.29 618.909 216.542 618.935 216.837C618.961 217.132 618.943 217.41 618.874 217.68C618.735 218.166 618.406 218.401 617.868 218.366L615.424 218.21Z" fill="black"/>
<path d="M618.952 227.436C618.397 227.471 618.059 227.271 617.946 226.819L617.599 225.464L609.979 226.063C609.485 226.089 609.285 226.28 609.372 226.628C609.407 226.767 609.45 226.897 609.502 227.019C609.554 227.14 609.615 227.245 609.675 227.332C609.753 227.479 609.771 227.644 609.727 227.818C609.684 227.992 609.537 228.122 609.303 228.183L607.551 228.669C607.161 228.774 606.832 228.635 606.572 228.27C606.398 228.018 606.216 227.731 606.017 227.392C605.818 227.054 605.661 226.671 605.549 226.246C605.306 225.325 605.358 224.525 605.679 223.856C606.008 223.188 606.667 222.718 607.664 222.458C607.959 222.38 608.306 222.319 608.713 222.275L616.602 221.632L616.351 220.659C616.29 220.442 616.325 220.242 616.446 220.069C616.568 219.895 616.741 219.791 616.967 219.773L618.319 219.669C618.544 219.652 618.752 219.695 618.943 219.791C619.134 219.886 619.264 220.06 619.333 220.321L619.611 221.38L622.931 221.111C623.217 221.076 623.477 221.085 623.72 221.137C623.963 221.189 624.154 221.354 624.284 221.632L625.367 223.735C625.541 224.065 625.549 224.334 625.411 224.525C625.272 224.717 625.029 224.829 624.682 224.856L620.599 225.194L620.929 226.463C620.981 226.68 620.955 226.871 620.824 227.036C620.703 227.201 620.53 227.297 620.304 227.314L618.952 227.436Z" fill="black"/>
<path d="M621.327 236.983C620.755 236.966 620.486 236.714 620.512 236.228C620.521 236.071 620.538 235.915 620.582 235.741C620.625 235.576 620.59 235.359 620.486 235.09C620.382 234.829 620.044 234.62 619.463 234.481C618.882 234.334 618.154 234.264 617.253 234.256C616.36 234.247 615.337 234.308 614.192 234.429C613.048 234.551 611.851 234.742 610.603 234.994L609.58 235.203C609.355 235.246 609.138 235.211 608.913 235.09C608.687 234.968 608.54 234.803 608.462 234.594L607.621 232.44C607.543 232.231 607.551 232.04 607.655 231.858C607.759 231.675 607.916 231.562 608.141 231.519L621.059 228.887C621.605 228.782 621.969 228.965 622.151 229.434L622.974 231.528C623.053 231.736 623.044 231.936 622.948 232.127C622.853 232.318 622.68 232.44 622.437 232.492L620.798 232.813C621.882 232.909 622.732 233.117 623.356 233.439C623.98 233.76 624.414 234.229 624.656 234.855C624.734 235.063 624.795 235.315 624.821 235.611C624.847 235.906 624.83 236.184 624.76 236.454C624.622 236.94 624.292 237.175 623.755 237.14L621.327 236.983Z" fill="black"/>
<path d="M621.076 252.995C620.894 253.125 620.686 253.195 620.461 253.203C620.235 253.212 620.053 253.134 619.888 252.978L618.198 251.275C618.042 251.118 617.955 250.945 617.955 250.745C617.946 250.554 618.059 250.371 618.285 250.198L619.55 249.32C619.221 249.45 618.874 249.546 618.51 249.607C618.146 249.668 617.773 249.685 617.4 249.659C617.027 249.633 616.672 249.546 616.325 249.398C615.978 249.251 615.658 249.033 615.363 248.729C615.007 248.373 614.73 247.956 614.539 247.496C614.349 247.027 614.279 246.505 614.349 245.923C614.409 245.341 614.635 244.716 615.007 244.038C615.38 243.36 615.952 242.639 616.724 241.866C617.6 240.989 618.536 240.259 619.55 239.668C620.556 239.077 621.57 238.669 622.585 238.452C623.599 238.235 624.587 238.243 625.532 238.461C626.486 238.686 627.344 239.182 628.116 239.955C628.532 240.372 628.809 240.832 628.948 241.327C629.095 241.831 629.165 242.24 629.165 242.552L629.486 242.405C629.746 242.292 630.014 242.379 630.3 242.665L631.974 244.342C632.13 244.498 632.199 244.681 632.173 244.889C632.147 245.098 632.052 245.263 631.861 245.393L621.076 252.995ZM626.815 244.203C626.815 244.003 626.781 243.751 626.711 243.447C626.642 243.143 626.46 242.856 626.174 242.57C625.87 242.266 625.463 242.118 624.943 242.127C624.423 242.135 623.859 242.248 623.261 242.483C622.663 242.709 622.056 243.022 621.449 243.421C620.842 243.812 620.305 244.246 619.828 244.724C619.186 245.367 618.787 245.871 618.64 246.236C618.493 246.601 618.527 246.896 618.753 247.131C618.952 247.331 619.316 247.417 619.845 247.391C620.374 247.365 620.989 247.244 621.692 247.027C622.394 246.809 623.131 246.514 623.902 246.123C624.674 245.732 625.411 245.28 626.113 244.75L626.815 244.203Z" fill="black"/>
<path d="M638.875 259.545L638.034 261.656C637.626 262.664 637.201 263.524 636.742 264.228C636.282 264.932 635.762 265.479 635.173 265.861C634.583 266.244 633.916 266.469 633.17 266.548C632.424 266.617 631.558 266.539 630.578 266.313C629.277 266.009 628.254 265.592 627.5 265.071C626.746 264.549 626.113 264.028 625.593 263.516C625.454 263.377 625.411 263.22 625.437 263.038C625.472 262.855 625.541 262.69 625.662 262.534L626.824 261.031C627.153 260.605 627.5 260.553 627.856 260.866C628.02 261.031 628.228 261.213 628.471 261.422C628.714 261.622 628.974 261.822 629.251 262.013C629.529 262.204 629.824 262.378 630.127 262.534C630.43 262.69 630.743 262.803 631.055 262.881C631.826 263.064 632.442 262.96 632.901 262.586C633.369 262.204 633.786 261.561 634.167 260.649L635.199 258.268C634.93 258.538 634.635 258.79 634.332 259.033C634.028 259.276 633.699 259.476 633.361 259.65C633.023 259.815 632.659 259.928 632.268 259.988C631.878 260.041 631.471 260.023 631.037 259.919C630.569 259.806 630.118 259.606 629.694 259.319C629.269 259.033 628.939 258.633 628.679 258.112C628.419 257.591 628.272 256.956 628.211 256.201C628.15 255.445 628.246 254.55 628.489 253.499C628.757 252.352 629.165 251.275 629.702 250.258C630.24 249.242 630.899 248.382 631.67 247.678C632.442 246.974 633.309 246.47 634.271 246.149C635.242 245.836 636.282 245.81 637.409 246.08C638.016 246.227 638.519 246.479 638.909 246.844C639.299 247.209 639.559 247.522 639.69 247.774L639.794 247.582C639.898 247.4 640.01 247.278 640.123 247.226C640.236 247.174 640.426 247.174 640.687 247.235L643.019 247.782C643.296 247.852 643.461 247.973 643.521 248.147C643.582 248.33 643.565 248.521 643.478 248.729L638.875 259.545ZM638.571 250.354C638.467 250.18 638.302 249.989 638.086 249.772C637.869 249.555 637.557 249.398 637.167 249.303C636.673 249.19 636.187 249.268 635.71 249.537C635.233 249.807 634.791 250.189 634.384 250.675C633.976 251.162 633.621 251.718 633.317 252.343C633.014 252.969 632.797 253.577 632.659 254.168C632.442 255.071 632.39 255.714 632.502 256.088C632.615 256.461 632.823 256.678 633.144 256.757C633.456 256.826 633.846 256.748 634.297 256.496C634.748 256.253 635.207 255.87 635.684 255.375C636.152 254.871 636.612 254.272 637.054 253.577C637.496 252.882 637.878 252.135 638.19 251.327L638.571 250.354Z" fill="black"/>
</g>
<defs>
<clipPath id="clip0_1506_434">
<rect width="303" height="245" fill="white" transform="translate(502 59)"/>
</clipPath>
</defs>
</svg>
