<svg width="695" height="629" viewBox="0 0 695 629" fill="none" xmlns="http://www.w3.org/2000/svg">
<rect x="0.5" y="0.5" width="694" height="628" rx="19.5" stroke="#B4B4B4"/>
<path d="M0 181H695" stroke="white"/>
<path d="M413.478 71.0911L366.754 109.038L298.407 44.0993L253.397 35L198.75 180.862H471.423L413.478 71.0911Z" fill="white"/>
<path d="M198.75 180.862L253.397 35L298.407 44.0993L366.754 109.038L413.478 71.0911L471.423 180.862M198.75 180.862L176.98 253.697L151 375.691L182.174 517.154L208.174 544.654L252.674 564.654L371.174 594.654L490.174 564.654L543.347 447.912L520.729 239.863L507.151 248.836L471.423 180.862M198.75 180.862H471.423" stroke="white"/>
<path d="M172.859 273.497L523.28 273.497" stroke="#B4B4B4"/>
<path d="M162.426 323.963L528.894 323.963" stroke="#B4B4B4"/>
<path d="M286.283 220.502C285.316 220.502 284.41 220.345 283.565 220.03C282.727 219.707 282.011 219.263 281.417 218.698C280.837 218.146 280.339 217.509 279.923 216.785C279.508 216.055 279.204 215.289 279.01 214.487C278.817 213.692 278.72 212.879 278.72 212.048C278.72 210.967 278.91 209.928 279.29 208.933C279.676 207.93 280.217 207.039 280.912 206.258C281.614 205.47 282.494 204.851 283.554 204.4C284.614 203.941 285.764 203.712 287.003 203.712C288.177 203.712 289.244 203.931 290.204 204.367C291.163 204.804 291.908 205.392 292.438 206.129C292.961 206.867 293.222 207.676 293.222 208.557C293.222 208.858 293.144 209.144 292.986 209.416C292.836 209.688 292.617 209.91 292.331 210.082C292.051 210.247 291.733 210.329 291.375 210.329C291.038 210.329 290.73 210.251 290.451 210.093C290.179 209.928 289.964 209.717 289.806 209.459C289.649 209.201 289.57 208.929 289.57 208.643C289.57 208.328 289.642 208.041 289.785 207.783C289.928 207.518 290.107 207.311 290.322 207.16C290.537 207.003 290.741 206.924 290.934 206.924H290.977C290.691 206.523 290.308 206.183 289.828 205.904C289.355 205.624 288.897 205.438 288.453 205.345C288.037 205.259 287.622 205.216 287.207 205.216C286.068 205.216 285.062 205.517 284.188 206.118C283.314 206.72 282.652 207.54 282.201 208.578C281.757 209.61 281.535 210.759 281.535 212.027C281.535 212.872 281.667 213.692 281.932 214.487C282.204 215.281 282.58 215.983 283.06 216.592C283.54 217.208 284.12 217.695 284.8 218.053C285.488 218.404 286.211 218.579 286.97 218.579C287.507 218.579 288.034 218.479 288.549 218.279C289.065 218.071 289.502 217.802 289.86 217.473C290.211 217.151 290.487 216.807 290.687 216.442C290.895 216.076 290.999 215.736 290.999 215.421V213.917H287.959V212.295H294.952V213.917H293.201V220.212H291.901L291.375 217.946C291.138 218.411 290.82 218.819 290.419 219.17C290.025 219.521 289.588 219.79 289.108 219.976C288.199 220.327 287.257 220.502 286.283 220.502ZM301.408 220.502C300.548 220.502 299.757 220.341 299.034 220.019C298.311 219.689 297.713 219.238 297.24 218.665C296.774 218.107 296.416 217.476 296.166 216.775C295.922 216.073 295.8 215.346 295.8 214.594C295.8 213.942 295.876 213.312 296.026 212.703C296.184 212.095 296.413 211.532 296.714 211.017C297.372 209.892 298.253 209.123 299.356 208.707C299.936 208.485 300.577 208.374 301.279 208.374C302.009 208.374 302.69 208.503 303.32 208.761C303.95 209.019 304.502 209.391 304.974 209.878C305.454 210.379 305.83 211.01 306.102 211.769C306.382 212.528 306.528 213.369 306.543 214.293H298.26V214.379C298.26 215.625 298.525 216.674 299.055 217.527C299.32 217.956 299.675 218.293 300.119 218.536C300.563 218.773 301.068 218.891 301.633 218.891C302.135 218.891 302.618 218.787 303.084 218.579C303.556 218.365 303.965 218.057 304.308 217.656C304.659 217.247 304.91 216.771 305.06 216.227L306.317 216.624C306.131 217.412 305.812 218.1 305.361 218.687C304.91 219.267 304.348 219.714 303.674 220.03C303.001 220.345 302.246 220.502 301.408 220.502ZM304.179 213.133C304.165 212.453 304.029 211.851 303.771 211.328C303.52 210.798 303.18 210.387 302.751 210.093C302.328 209.799 301.859 209.653 301.343 209.653C300.821 209.653 300.341 209.799 299.904 210.093C299.467 210.387 299.109 210.798 298.83 211.328C298.558 211.851 298.393 212.453 298.336 213.133H304.179ZM307.907 219.009H310.002V209.889H307.907V208.686H310.002C310.002 207.411 310.134 206.373 310.399 205.571C310.671 204.768 311.104 204.174 311.699 203.787C312.293 203.401 313.077 203.207 314.051 203.207C314.796 203.207 315.448 203.315 316.007 203.53C316.565 203.737 316.991 204.02 317.285 204.378C317.578 204.729 317.725 205.109 317.725 205.517C317.725 205.882 317.654 206.208 317.51 206.494C317.374 206.774 317.181 206.989 316.93 207.139C316.687 207.289 316.415 207.365 316.114 207.365C315.856 207.365 315.616 207.3 315.394 207.171C315.172 207.042 314.993 206.87 314.857 206.656C314.728 206.434 314.664 206.186 314.664 205.914C314.664 205.642 314.775 205.377 314.997 205.119C315.226 204.854 315.512 204.679 315.856 204.593C315.706 204.45 315.487 204.335 315.201 204.249C314.922 204.156 314.646 204.11 314.374 204.11C313.693 204.11 313.167 204.339 312.795 204.797C312.429 205.248 312.247 205.936 312.247 206.86V208.686H315.759L315.673 209.889H312.311V219.009H314.997V220.212H307.907V219.009ZM320.11 207.279C319.845 207.279 319.598 207.214 319.369 207.085C319.147 206.949 318.968 206.77 318.832 206.548C318.703 206.319 318.638 206.072 318.638 205.807C318.638 205.542 318.703 205.295 318.832 205.066C318.968 204.837 319.147 204.654 319.369 204.518C319.598 204.382 319.845 204.314 320.11 204.314C320.375 204.314 320.618 204.382 320.84 204.518C321.07 204.654 321.249 204.837 321.378 205.066C321.514 205.295 321.582 205.542 321.582 205.807C321.582 206.065 321.514 206.308 321.378 206.537C321.242 206.759 321.059 206.938 320.83 207.074C320.608 207.211 320.368 207.279 320.11 207.279ZM325.213 207.279C324.948 207.279 324.701 207.214 324.471 207.085C324.249 206.949 324.07 206.77 323.934 206.548C323.805 206.319 323.741 206.072 323.741 205.807C323.741 205.542 323.805 205.295 323.934 205.066C324.07 204.837 324.249 204.654 324.471 204.518C324.701 204.382 324.948 204.314 325.213 204.314C325.478 204.314 325.725 204.382 325.954 204.518C326.183 204.654 326.366 204.837 326.502 205.066C326.645 205.295 326.716 205.542 326.716 205.807C326.716 206.065 326.645 206.308 326.502 206.537C326.366 206.759 326.183 206.938 325.954 207.074C325.725 207.211 325.478 207.279 325.213 207.279ZM325.266 218.096C324.364 219.7 323.071 220.502 321.388 220.502C321.131 220.502 320.887 220.484 320.658 220.448C320.429 220.413 320.171 220.348 319.884 220.255C319.354 220.09 318.871 219.697 318.434 219.073C318.227 218.78 318.065 218.4 317.951 217.935C317.836 217.462 317.779 216.932 317.779 216.345V209.889H315.759V208.686H320.089V216.323C320.089 217.269 320.239 217.953 320.54 218.375C320.84 218.798 321.313 219.009 321.958 219.009C322.416 219.009 322.896 218.873 323.397 218.601C323.906 218.329 324.332 217.971 324.675 217.527C325.019 217.083 325.191 216.635 325.191 216.184V209.889H323.236V208.686H327.511V218.998L329.595 219.224V220.212L325.266 220.524V218.096ZM330.1 219.009H332.077V205.366H329.971V204.045H334.386V210.727C334.651 210.19 335.002 209.735 335.439 209.363C335.876 208.99 336.331 208.729 336.803 208.578C337.233 208.442 337.684 208.374 338.157 208.374C338.501 208.374 338.801 208.399 339.059 208.449C339.324 208.5 339.618 208.6 339.94 208.75C340.305 208.929 340.606 209.158 340.842 209.438C341.086 209.717 341.29 210.107 341.455 210.609C341.627 211.131 341.713 211.744 341.713 212.446V219.009H344.022V220.212H337.319V219.009H339.403V212.36C339.403 211.55 339.249 210.938 338.941 210.523C338.64 210.1 338.225 209.889 337.695 209.889C337.337 209.889 336.961 209.989 336.567 210.19C336.18 210.39 335.822 210.662 335.493 211.006C335.156 211.364 334.888 211.79 334.687 212.284C334.487 212.771 334.386 213.273 334.386 213.788V219.009H336.481V220.212H330.1V219.009ZM344.581 220.212V219.009H346.976V205.366H344.581V204.045H349.286V219.009H351.595V220.212H344.581ZM358.191 220.502C357.332 220.502 356.54 220.341 355.817 220.019C355.094 219.689 354.496 219.238 354.023 218.665C353.558 218.107 353.2 217.476 352.949 216.775C352.705 216.073 352.584 215.346 352.584 214.594C352.584 213.942 352.659 213.312 352.809 212.703C352.967 212.095 353.196 211.532 353.497 211.017C354.156 209.892 355.036 209.123 356.139 208.707C356.719 208.485 357.36 208.374 358.062 208.374C358.793 208.374 359.473 208.503 360.103 208.761C360.733 209.019 361.285 209.391 361.757 209.878C362.237 210.379 362.613 211.01 362.885 211.769C363.165 212.528 363.312 213.369 363.326 214.293H355.044V214.379C355.044 215.625 355.309 216.674 355.839 217.527C356.104 217.956 356.458 218.293 356.902 218.536C357.346 218.773 357.851 218.891 358.417 218.891C358.918 218.891 359.401 218.787 359.867 218.579C360.34 218.365 360.748 218.057 361.091 217.656C361.442 217.247 361.693 216.771 361.843 216.227L363.1 216.624C362.914 217.412 362.595 218.1 362.144 218.687C361.693 219.267 361.131 219.714 360.458 220.03C359.784 220.345 359.029 220.502 358.191 220.502ZM360.963 213.133C360.948 212.453 360.812 211.851 360.554 211.328C360.304 210.798 359.964 210.387 359.534 210.093C359.111 209.799 358.642 209.653 358.127 209.653C357.604 209.653 357.124 209.799 356.687 210.093C356.25 210.387 355.892 210.798 355.613 211.328C355.341 211.851 355.176 212.453 355.119 213.133H360.963ZM378.762 218.096C377.86 219.7 376.567 220.502 374.884 220.502C374.627 220.502 374.383 220.484 374.154 220.448C373.925 220.413 373.667 220.348 373.381 220.255C372.851 220.09 372.367 219.697 371.93 219.073C371.723 218.78 371.562 218.4 371.447 217.935C371.332 217.462 371.275 216.932 371.275 216.345V209.889H369.256V208.686H373.585V216.323C373.585 217.269 373.735 217.953 374.036 218.375C374.337 218.798 374.809 219.009 375.454 219.009C375.912 219.009 376.392 218.873 376.893 218.601C377.402 218.329 377.828 217.971 378.172 217.527C378.515 217.083 378.687 216.635 378.687 216.184V209.889H376.732V208.686H381.007V218.998L383.091 219.224V220.212L378.762 220.524V218.096ZM383.639 219.009H385.734V209.889H383.639V208.686L387.711 208.503L387.979 210.845C388.201 210.329 388.516 209.885 388.924 209.513C389.333 209.141 389.787 208.858 390.289 208.664C390.79 208.471 391.295 208.374 391.803 208.374C392.047 208.374 392.262 208.385 392.448 208.406C392.641 208.428 392.853 208.475 393.082 208.546C393.34 208.625 393.565 208.725 393.758 208.847C393.959 208.969 394.163 209.133 394.371 209.341C394.586 209.563 394.761 209.817 394.897 210.104C395.033 210.383 395.148 210.73 395.241 211.146C395.327 211.561 395.37 212.03 395.37 212.553V219.009H397.572V220.212H391.094V219.009H393.06V212.574C393.06 211.665 392.881 210.985 392.523 210.533C392.165 210.075 391.66 209.846 391.008 209.846C390.607 209.846 390.235 209.921 389.891 210.072C389.555 210.222 389.272 210.43 389.043 210.695C388.821 210.952 388.631 211.26 388.473 211.618C388.323 211.969 388.215 212.338 388.151 212.725C388.079 213.083 388.044 213.48 388.044 213.917V219.009H389.999V220.212H383.639V219.009ZM402.771 220.502C401.833 220.502 401.006 220.252 400.29 219.75C399.574 219.249 399.019 218.54 398.625 217.623C398.238 216.707 398.045 215.647 398.045 214.444C398.045 213.233 398.242 212.17 398.635 211.253C399.036 210.337 399.606 209.628 400.343 209.126C401.081 208.625 401.944 208.374 402.932 208.374C403.534 208.374 404.121 208.528 404.694 208.836C405.267 209.144 405.732 209.563 406.09 210.093V205.366H403.566V204.045H408.4V219.009H410.344V220.212H406.531L406.112 218.386C405.754 219.045 405.267 219.564 404.651 219.944C404.042 220.316 403.416 220.502 402.771 220.502ZM403.233 219.138C403.806 219.138 404.322 218.93 404.78 218.515C405.245 218.1 405.607 217.527 405.865 216.796C406.123 216.059 406.252 215.231 406.252 214.315C406.252 213.119 406.022 212.059 405.564 211.135C405.328 210.655 405.013 210.279 404.619 210.007C404.232 209.728 403.799 209.588 403.319 209.588C402.839 209.588 402.409 209.728 402.03 210.007C401.658 210.286 401.36 210.673 401.138 211.167C400.716 212.12 400.505 213.23 400.505 214.497C400.505 216.266 400.906 217.58 401.708 218.44C402.13 218.905 402.639 219.138 403.233 219.138ZM296.842 249.502C295.876 249.502 294.97 249.345 294.125 249.03C293.287 248.707 292.571 248.263 291.976 247.698C291.396 247.146 290.898 246.509 290.483 245.785C290.068 245.055 289.763 244.289 289.57 243.487C289.377 242.692 289.28 241.879 289.28 241.048C289.28 239.967 289.47 238.928 289.849 237.933C290.236 236.93 290.777 236.039 291.471 235.258C292.173 234.47 293.054 233.851 294.114 233.4C295.174 232.941 296.323 232.712 297.562 232.712C298.737 232.712 299.804 232.931 300.763 233.367C301.723 233.804 302.468 234.392 302.998 235.129C303.52 235.867 303.782 236.676 303.782 237.557C303.782 237.858 303.703 238.144 303.546 238.416C303.395 238.688 303.177 238.91 302.89 239.082C302.611 239.247 302.292 239.329 301.934 239.329C301.598 239.329 301.29 239.251 301.01 239.093C300.738 238.928 300.523 238.717 300.366 238.459C300.208 238.201 300.13 237.929 300.13 237.643C300.13 237.328 300.201 237.041 300.344 236.783C300.488 236.518 300.667 236.311 300.882 236.16C301.096 236.003 301.3 235.924 301.494 235.924H301.537C301.25 235.523 300.867 235.183 300.387 234.904C299.915 234.624 299.456 234.438 299.012 234.345C298.597 234.259 298.182 234.216 297.766 234.216C296.628 234.216 295.621 234.517 294.748 235.118C293.874 235.72 293.212 236.54 292.76 237.578C292.316 238.61 292.094 239.759 292.094 241.027C292.094 241.872 292.227 242.692 292.492 243.487C292.764 244.281 293.14 244.983 293.62 245.592C294.1 246.208 294.68 246.695 295.36 247.053C296.048 247.404 296.771 247.579 297.53 247.579C298.067 247.579 298.593 247.479 299.109 247.279C299.625 247.071 300.062 246.802 300.42 246.473C300.77 246.151 301.046 245.807 301.247 245.442C301.454 245.076 301.558 244.736 301.558 244.421V242.917H298.518V241.295H305.511V242.917H303.76V249.212H302.461L301.934 246.946C301.698 247.411 301.379 247.819 300.978 248.17C300.584 248.521 300.147 248.79 299.668 248.976C298.758 249.327 297.816 249.502 296.842 249.502ZM311.967 249.502C311.108 249.502 310.317 249.341 309.593 249.019C308.87 248.689 308.272 248.238 307.799 247.665C307.334 247.107 306.976 246.476 306.725 245.775C306.482 245.073 306.36 244.346 306.36 243.594C306.36 242.942 306.435 242.312 306.586 241.703C306.743 241.095 306.972 240.532 307.273 240.017C307.932 238.892 308.813 238.123 309.916 237.707C310.496 237.485 311.137 237.374 311.839 237.374C312.569 237.374 313.249 237.503 313.88 237.761C314.51 238.019 315.061 238.391 315.534 238.878C316.014 239.379 316.39 240.01 316.662 240.769C316.941 241.528 317.088 242.369 317.102 243.293H308.82V243.379C308.82 244.625 309.085 245.674 309.615 246.527C309.88 246.956 310.234 247.293 310.678 247.536C311.122 247.773 311.627 247.891 312.193 247.891C312.694 247.891 313.178 247.787 313.643 247.579C314.116 247.365 314.524 247.057 314.868 246.656C315.219 246.247 315.469 245.771 315.62 245.227L316.877 245.624C316.69 246.412 316.372 247.1 315.921 247.687C315.469 248.267 314.907 248.714 314.234 249.03C313.561 249.345 312.805 249.502 311.967 249.502ZM314.739 242.133C314.725 241.453 314.589 240.851 314.331 240.328C314.08 239.798 313.74 239.387 313.31 239.093C312.888 238.799 312.419 238.653 311.903 238.653C311.38 238.653 310.9 238.799 310.464 239.093C310.027 239.387 309.669 239.798 309.389 240.328C309.117 240.851 308.952 241.453 308.895 242.133H314.739ZM323.505 249.502C322.566 249.502 321.739 249.252 321.023 248.75C320.307 248.249 319.752 247.54 319.358 246.623C318.971 245.707 318.778 244.647 318.778 243.444C318.778 242.233 318.975 241.17 319.369 240.253C319.77 239.337 320.339 238.628 321.077 238.126C321.814 237.625 322.677 237.374 323.666 237.374C324.267 237.374 324.854 237.528 325.427 237.836C326 238.144 326.466 238.563 326.824 239.093V234.366H324.299V233.045H329.133V248.009H331.078V249.212H327.264L326.845 247.386C326.487 248.045 326 248.564 325.384 248.944C324.776 249.316 324.149 249.502 323.505 249.502ZM323.966 248.138C324.539 248.138 325.055 247.93 325.513 247.515C325.979 247.1 326.34 246.527 326.598 245.796C326.856 245.059 326.985 244.231 326.985 243.315C326.985 242.119 326.756 241.059 326.298 240.135C326.061 239.655 325.746 239.279 325.352 239.007C324.965 238.728 324.532 238.588 324.052 238.588C323.573 238.588 323.143 238.728 322.763 239.007C322.391 239.286 322.094 239.673 321.872 240.167C321.449 241.12 321.238 242.23 321.238 243.497C321.238 245.266 321.639 246.58 322.441 247.44C322.864 247.905 323.372 248.138 323.966 248.138ZM335.02 249.502C334.433 249.502 333.914 249.398 333.463 249.191C333.011 248.976 332.66 248.668 332.41 248.267C332.159 247.866 332.034 247.397 332.034 246.86C332.034 246.437 332.127 246.05 332.313 245.699C332.507 245.341 332.768 245.041 333.097 244.797C333.412 244.561 333.77 244.335 334.172 244.12C334.58 243.906 334.995 243.719 335.418 243.562C336.277 243.254 337.05 242.899 337.738 242.498C338.067 242.305 338.325 242.072 338.511 241.8C338.698 241.528 338.791 241.234 338.791 240.919C338.791 240.117 338.594 239.516 338.2 239.115C337.806 238.706 337.24 238.502 336.503 238.502C335.987 238.502 335.5 238.585 335.042 238.749C334.59 238.907 334.24 239.125 333.989 239.405C334.433 239.405 334.791 239.526 335.063 239.77C335.342 240.006 335.482 240.3 335.482 240.651C335.482 240.944 335.414 241.209 335.278 241.446C335.149 241.675 334.97 241.854 334.741 241.983C334.512 242.112 334.261 242.176 333.989 242.176C333.545 242.176 333.169 242.022 332.861 241.714C332.56 241.406 332.41 240.98 332.41 240.436C332.41 240.142 332.507 239.827 332.7 239.49C332.893 239.147 333.165 238.814 333.516 238.491C333.882 238.155 334.368 237.886 334.977 237.686C335.593 237.478 336.256 237.374 336.965 237.374C337.559 237.374 338.096 237.442 338.576 237.578C339.056 237.707 339.489 237.915 339.876 238.201C340.27 238.495 340.57 238.9 340.778 239.415C340.993 239.931 341.1 240.536 341.1 241.231V246.172C341.1 246.48 341.136 246.759 341.208 247.01C341.286 247.253 341.419 247.472 341.605 247.665C341.813 247.873 342.067 247.977 342.368 247.977C343.277 247.977 343.732 247.339 343.732 246.065V244.464H344.903V245.85C344.903 246.559 344.828 247.164 344.677 247.665C344.527 248.159 344.309 248.535 344.022 248.793C343.743 249.044 343.435 249.223 343.098 249.33C342.762 249.445 342.364 249.502 341.906 249.502C341.412 249.502 340.957 249.406 340.542 249.212C340.133 249.019 339.786 248.722 339.5 248.321C339.192 247.898 339.013 247.397 338.963 246.817C338.762 247.332 338.458 247.794 338.049 248.202C337.648 248.611 337.183 248.929 336.653 249.158C336.123 249.388 335.579 249.502 335.02 249.502ZM335.579 247.955C336.044 247.955 336.531 247.816 337.04 247.536C337.548 247.257 337.967 246.899 338.297 246.462C338.626 246.04 338.791 245.628 338.791 245.227V242.939C338.382 243.347 337.888 243.73 337.308 244.088C336.735 244.446 336.213 244.733 335.74 244.948C335.317 245.134 334.974 245.381 334.709 245.689C334.451 245.99 334.322 246.344 334.322 246.752C334.322 247.117 334.429 247.411 334.644 247.633C334.866 247.848 335.178 247.955 335.579 247.955ZM345.343 248.009H347.438V238.889H345.343V237.686L349.415 237.503L349.683 239.845C349.905 239.329 350.22 238.885 350.629 238.513C351.037 238.141 351.492 237.858 351.993 237.664C352.494 237.471 352.999 237.374 353.507 237.374C353.751 237.374 353.966 237.385 354.152 237.406C354.345 237.428 354.557 237.475 354.786 237.546C355.044 237.625 355.269 237.725 355.463 237.847C355.663 237.969 355.867 238.133 356.075 238.341C356.29 238.563 356.465 238.817 356.601 239.104C356.737 239.383 356.852 239.73 356.945 240.146C357.031 240.561 357.074 241.03 357.074 241.553V248.009H359.276V249.212H352.798V248.009H354.764V241.574C354.764 240.665 354.585 239.985 354.227 239.533C353.869 239.075 353.364 238.846 352.713 238.846C352.312 238.846 351.939 238.921 351.595 239.072C351.259 239.222 350.976 239.43 350.747 239.695C350.525 239.952 350.335 240.26 350.177 240.618C350.027 240.969 349.92 241.338 349.855 241.725C349.784 242.083 349.748 242.48 349.748 242.917V248.009H351.703V249.212H345.343V248.009ZM371.565 249.427C370.82 249.427 370.172 249.234 369.621 248.847C369.069 248.46 368.561 247.869 368.095 247.074L365.936 243.358L364.153 244.722V248.009H365.979V249.212H359.673V248.009H361.843V234.366H359.673V233.045H364.153V243.078L368.643 238.889H366.624V237.686H373.069V238.889H371.017L367.3 242.455C367.508 242.742 367.791 243.175 368.149 243.755C368.529 244.371 368.847 244.872 369.105 245.259C369.37 245.646 369.66 246.036 369.975 246.43C370.312 246.852 370.656 247.178 371.007 247.407C371.365 247.629 371.715 247.74 372.059 247.74C372.475 247.74 372.847 247.665 373.176 247.515L373.488 248.965C373.159 249.151 372.858 249.273 372.586 249.33C372.313 249.395 371.973 249.427 371.565 249.427ZM379.342 249.502C378.483 249.502 377.692 249.341 376.968 249.019C376.245 248.689 375.647 248.238 375.174 247.665C374.709 247.107 374.351 246.476 374.1 245.775C373.857 245.073 373.735 244.346 373.735 243.594C373.735 242.942 373.81 242.312 373.961 241.703C374.118 241.095 374.347 240.532 374.648 240.017C375.307 238.892 376.188 238.123 377.291 237.707C377.871 237.485 378.512 237.374 379.214 237.374C379.944 237.374 380.624 237.503 381.255 237.761C381.885 238.019 382.436 238.391 382.909 238.878C383.389 239.379 383.765 240.01 384.037 240.769C384.316 241.528 384.463 242.369 384.477 243.293H376.195V243.379C376.195 244.625 376.46 245.674 376.99 246.527C377.255 246.956 377.609 247.293 378.053 247.536C378.497 247.773 379.002 247.891 379.568 247.891C380.069 247.891 380.553 247.787 381.018 247.579C381.491 247.365 381.899 247.057 382.243 246.656C382.594 246.247 382.844 245.771 382.995 245.227L384.252 245.624C384.065 246.412 383.747 247.1 383.296 247.687C382.844 248.267 382.282 248.714 381.609 249.03C380.936 249.345 380.18 249.502 379.342 249.502ZM382.114 242.133C382.1 241.453 381.964 240.851 381.706 240.328C381.455 239.798 381.115 239.387 380.685 239.093C380.263 238.799 379.794 238.653 379.278 238.653C378.755 238.653 378.275 238.799 377.839 239.093C377.402 239.387 377.044 239.798 376.764 240.328C376.492 240.851 376.327 241.453 376.27 242.133H382.114ZM385.82 248.009H387.915V238.889H385.82V237.686L389.891 237.503L390.16 239.845C390.382 239.329 390.697 238.885 391.105 238.513C391.513 238.141 391.968 237.858 392.469 237.664C392.971 237.471 393.476 237.374 393.984 237.374C394.228 237.374 394.442 237.385 394.629 237.406C394.822 237.428 395.033 237.475 395.262 237.546C395.52 237.625 395.746 237.725 395.939 237.847C396.14 237.969 396.344 238.133 396.551 238.341C396.766 238.563 396.942 238.817 397.078 239.104C397.214 239.383 397.328 239.73 397.422 240.146C397.507 240.561 397.55 241.03 397.55 241.553V248.009H399.753V249.212H393.275V248.009H395.241V241.574C395.241 240.665 395.062 239.985 394.704 239.533C394.346 239.075 393.841 238.846 393.189 238.846C392.788 238.846 392.416 238.921 392.072 239.072C391.735 239.222 391.452 239.43 391.223 239.695C391.001 239.952 390.812 240.26 390.654 240.618C390.504 240.969 390.396 241.338 390.332 241.725C390.26 242.083 390.224 242.48 390.224 242.917V248.009H392.179V249.212H385.82V248.009Z" fill="white"/>
<path d="M334.805 290.063V291.599H332.85L329.101 305.091C328.958 305.506 328.829 305.818 328.715 306.026C328.607 306.226 328.475 306.373 328.317 306.466C328.167 306.559 327.966 306.606 327.715 306.606C327.472 306.606 327.279 306.559 327.135 306.466C326.999 306.38 326.881 306.237 326.781 306.036C326.681 305.829 326.57 305.514 326.448 305.091L323.601 295.359C323.601 295.373 323.454 295.903 323.161 296.948L322.935 297.786L322.688 298.656C322.373 299.795 322.001 301.131 321.571 302.663L320.894 305.091C320.744 305.635 320.558 306.022 320.336 306.251C320.114 306.488 319.809 306.606 319.423 306.606C319.057 306.606 318.771 306.495 318.563 306.273C318.355 306.051 318.166 305.657 317.994 305.091L313.837 291.599H311.377V290.063H318.853V291.599H316.587L319.713 302.932L322.817 291.599H324.965L328.091 302.932L331.024 291.599H328.843V290.063H334.805ZM339.489 306.52C338.63 306.52 337.838 306.359 337.115 306.036C336.392 305.707 335.794 305.256 335.321 304.683C334.855 304.124 334.497 303.494 334.247 302.792C334.003 302.09 333.882 301.364 333.882 300.612C333.882 299.96 333.957 299.33 334.107 298.721C334.265 298.112 334.494 297.55 334.795 297.034C335.453 295.91 336.334 295.14 337.437 294.725C338.017 294.503 338.658 294.392 339.36 294.392C340.09 294.392 340.771 294.521 341.401 294.779C342.031 295.036 342.583 295.409 343.055 295.896C343.535 296.397 343.911 297.027 344.183 297.786C344.463 298.545 344.609 299.387 344.624 300.311H336.341V300.397C336.341 301.643 336.606 302.692 337.136 303.544C337.401 303.974 337.756 304.31 338.2 304.554C338.644 304.79 339.149 304.908 339.715 304.908C340.216 304.908 340.699 304.805 341.165 304.597C341.637 304.382 342.046 304.074 342.389 303.673C342.74 303.265 342.991 302.789 343.141 302.244L344.398 302.642C344.212 303.43 343.893 304.117 343.442 304.704C342.991 305.284 342.429 305.732 341.756 306.047C341.082 306.362 340.327 306.52 339.489 306.52ZM342.26 299.151C342.246 298.47 342.11 297.869 341.852 297.346C341.602 296.816 341.261 296.404 340.832 296.111C340.409 295.817 339.94 295.67 339.424 295.67C338.902 295.67 338.422 295.817 337.985 296.111C337.548 296.404 337.19 296.816 336.911 297.346C336.639 297.869 336.474 298.47 336.417 299.151H342.26ZM345.558 305.027H347.653V295.906H345.558V294.703L349.63 294.521L349.92 297.034C350.099 296.426 350.424 295.853 350.897 295.316C351.148 295.029 351.456 294.804 351.821 294.639C352.193 294.474 352.591 294.392 353.013 294.392C353.407 294.392 353.765 294.467 354.088 294.617C354.41 294.761 354.664 294.972 354.85 295.251C355.044 295.531 355.14 295.86 355.14 296.24C355.14 296.598 355.065 296.913 354.915 297.185C354.771 297.45 354.575 297.654 354.324 297.797C354.073 297.933 353.798 298.001 353.497 298.001C353.074 298.001 352.713 297.869 352.412 297.604C352.118 297.339 351.971 296.995 351.971 296.573C351.971 296.436 352.004 296.29 352.068 296.132C352.14 295.975 352.215 295.846 352.294 295.745L352.412 295.627C351.989 295.627 351.613 295.76 351.284 296.025C350.954 296.282 350.697 296.641 350.51 297.099C350.145 297.987 349.963 298.972 349.963 300.053V305.027H352.38V306.23H345.558V305.027ZM360.737 306.52C359.813 306.52 359.022 306.248 358.363 305.703C358.019 305.424 357.747 305.055 357.547 304.597C357.353 304.139 357.257 303.627 357.257 303.061V295.906H355.065V295.402C355.595 295.244 356.086 294.958 356.537 294.542C356.988 294.127 357.357 293.658 357.643 293.135C357.908 292.662 358.145 292.183 358.352 291.696C358.617 291.087 358.796 290.697 358.889 290.525C359.04 290.217 359.172 290.063 359.287 290.063C359.373 290.063 359.441 290.095 359.491 290.159C359.541 290.224 359.566 290.317 359.566 290.439V294.703H363.798V295.928H359.566V303.125C359.566 303.741 359.706 304.21 359.985 304.532C360.264 304.855 360.647 305.016 361.134 305.016C361.729 305.016 362.166 304.823 362.445 304.436C362.731 304.042 362.875 303.387 362.875 302.47V300.923H364.164V302.244C364.164 303.218 364.053 304.017 363.831 304.64C363.609 305.263 363.247 305.732 362.746 306.047C362.244 306.362 361.575 306.52 360.737 306.52ZM371.264 306.52C370.405 306.52 369.614 306.359 368.89 306.036C368.167 305.707 367.569 305.256 367.096 304.683C366.631 304.124 366.273 303.494 366.022 302.792C365.779 302.09 365.657 301.364 365.657 300.612C365.657 299.96 365.732 299.33 365.882 298.721C366.04 298.112 366.269 297.55 366.57 297.034C367.229 295.91 368.11 295.14 369.213 294.725C369.793 294.503 370.434 294.392 371.135 294.392C371.866 294.392 372.546 294.521 373.176 294.779C373.807 295.036 374.358 295.409 374.831 295.896C375.311 296.397 375.687 297.027 375.959 297.786C376.238 298.545 376.385 299.387 376.399 300.311H368.117V300.397C368.117 301.643 368.382 302.692 368.912 303.544C369.177 303.974 369.531 304.31 369.975 304.554C370.419 304.79 370.924 304.908 371.49 304.908C371.991 304.908 372.475 304.805 372.94 304.597C373.413 304.382 373.821 304.074 374.165 303.673C374.516 303.265 374.766 302.789 374.917 302.244L376.173 302.642C375.987 303.43 375.669 304.117 375.217 304.704C374.766 305.284 374.204 305.732 373.531 306.047C372.858 306.362 372.102 306.52 371.264 306.52ZM374.036 299.151C374.021 298.47 373.885 297.869 373.628 297.346C373.377 296.816 373.037 296.404 372.607 296.111C372.185 295.817 371.715 295.67 371.2 295.67C370.677 295.67 370.197 295.817 369.76 296.111C369.324 296.404 368.965 296.816 368.686 297.346C368.414 297.869 368.249 298.47 368.192 299.151H374.036Z" fill="white"/>
<path d="M279.429 358.051H282.072V344.956H279.429V343.42H286.465C287.425 343.42 288.374 343.513 289.312 343.699C290.293 343.892 291.145 344.279 291.869 344.859C292.22 345.146 292.492 345.511 292.685 345.955C292.879 346.392 292.975 346.879 292.975 347.416C292.975 348.318 292.728 349.052 292.234 349.618C291.74 350.184 290.999 350.61 290.01 350.896C291.257 351.204 292.205 351.716 292.857 352.432C293.509 353.141 293.835 354.051 293.835 355.161C293.835 355.719 293.749 356.232 293.577 356.697C293.412 357.163 293.187 357.553 292.9 357.868C292.642 358.154 292.306 358.412 291.89 358.641C291.475 358.871 291.052 359.046 290.623 359.168C290.25 359.275 289.803 359.365 289.28 359.436C288.757 359.501 288.284 359.544 287.862 359.565C287.361 359.58 286.924 359.587 286.551 359.587H279.429V358.051ZM286.927 350.327C287.873 350.327 288.711 350.137 289.441 349.758C289.813 349.564 290.107 349.296 290.322 348.952C290.537 348.608 290.644 348.214 290.644 347.77C290.644 347.09 290.494 346.535 290.193 346.105C289.942 345.761 289.498 345.482 288.861 345.267C288.424 345.131 287.729 345.035 286.777 344.977C286.29 344.963 285.85 344.956 285.456 344.956H284.596V350.327H286.927ZM285.875 358.051C286.813 358.051 287.601 358.018 288.238 357.954C288.589 357.918 288.893 357.868 289.151 357.803C289.416 357.739 289.677 357.653 289.935 357.546C290.172 357.453 290.368 357.334 290.526 357.191C290.684 357.048 290.83 356.869 290.966 356.654C291.196 356.289 291.31 355.762 291.31 355.075C291.31 354.531 291.188 354.044 290.945 353.614C290.701 353.177 290.365 352.823 289.935 352.551C289.513 352.293 289.044 352.096 288.528 351.96C288.02 351.824 287.486 351.756 286.927 351.756H284.596V358.051H285.875ZM301.01 359.877C300.151 359.877 299.36 359.716 298.636 359.393C297.913 359.064 297.315 358.613 296.842 358.04C296.377 357.481 296.019 356.851 295.768 356.149C295.525 355.447 295.403 354.72 295.403 353.969C295.403 353.317 295.478 352.687 295.629 352.078C295.786 351.469 296.015 350.907 296.316 350.391C296.975 349.267 297.856 348.497 298.959 348.082C299.539 347.86 300.18 347.749 300.882 347.749C301.612 347.749 302.292 347.878 302.923 348.135C303.553 348.393 304.104 348.766 304.577 349.253C305.057 349.754 305.433 350.384 305.705 351.143C305.984 351.902 306.131 352.744 306.145 353.668H297.863V353.754C297.863 355 298.128 356.049 298.658 356.901C298.923 357.331 299.277 357.667 299.721 357.911C300.165 358.147 300.67 358.265 301.236 358.265C301.737 358.265 302.221 358.162 302.686 357.954C303.159 357.739 303.567 357.431 303.911 357.03C304.262 356.622 304.512 356.146 304.663 355.601L305.92 355.999C305.733 356.787 305.415 357.474 304.964 358.061C304.512 358.641 303.95 359.089 303.277 359.404C302.604 359.719 301.848 359.877 301.01 359.877ZM303.782 352.508C303.768 351.827 303.632 351.226 303.374 350.703C303.123 350.173 302.783 349.761 302.353 349.468C301.931 349.174 301.462 349.027 300.946 349.027C300.423 349.027 299.943 349.174 299.507 349.468C299.07 349.761 298.712 350.173 298.432 350.703C298.16 351.226 297.995 351.827 297.938 352.508H303.782ZM312.548 359.877C311.609 359.877 310.782 359.626 310.066 359.125C309.35 358.623 308.795 357.914 308.401 356.998C308.014 356.081 307.821 355.021 307.821 353.818C307.821 352.608 308.018 351.544 308.412 350.628C308.813 349.711 309.382 349.002 310.12 348.501C310.857 347.999 311.72 347.749 312.709 347.749C313.31 347.749 313.897 347.903 314.47 348.211C315.043 348.519 315.509 348.938 315.867 349.468V344.741H313.342V343.42H318.176V358.384H320.121V359.587H316.307L315.888 357.76C315.53 358.419 315.043 358.939 314.427 359.318C313.819 359.691 313.192 359.877 312.548 359.877ZM313.009 358.512C313.582 358.512 314.098 358.305 314.556 357.889C315.022 357.474 315.383 356.901 315.641 356.171C315.899 355.433 316.028 354.606 316.028 353.689C316.028 352.493 315.799 351.433 315.34 350.51C315.104 350.03 314.789 349.654 314.395 349.382C314.008 349.102 313.575 348.963 313.095 348.963C312.616 348.963 312.186 349.102 311.806 349.382C311.434 349.661 311.137 350.048 310.915 350.542C310.492 351.494 310.281 352.604 310.281 353.872C310.281 355.641 310.682 356.955 311.484 357.814C311.907 358.28 312.415 358.512 313.009 358.512ZM324.547 346.653C324.282 346.653 324.034 346.589 323.805 346.46C323.583 346.324 323.404 346.145 323.268 345.923C323.139 345.693 323.075 345.446 323.075 345.181C323.075 344.916 323.139 344.669 323.268 344.44C323.404 344.211 323.583 344.028 323.805 343.892C324.034 343.756 324.282 343.688 324.547 343.688C324.812 343.688 325.055 343.756 325.277 343.892C325.506 344.028 325.685 344.211 325.814 344.44C325.95 344.669 326.018 344.916 326.018 345.181C326.018 345.439 325.95 345.683 325.814 345.912C325.678 346.134 325.495 346.313 325.266 346.449C325.044 346.585 324.804 346.653 324.547 346.653ZM329.649 346.653C329.384 346.653 329.137 346.589 328.908 346.46C328.686 346.324 328.507 346.145 328.371 345.923C328.242 345.693 328.177 345.446 328.177 345.181C328.177 344.916 328.242 344.669 328.371 344.44C328.507 344.211 328.686 344.028 328.908 343.892C329.137 343.756 329.384 343.688 329.649 343.688C329.914 343.688 330.161 343.756 330.39 343.892C330.619 344.028 330.802 344.211 330.938 344.44C331.081 344.669 331.153 344.916 331.153 345.181C331.153 345.439 331.081 345.683 330.938 345.912C330.802 346.134 330.619 346.313 330.39 346.449C330.161 346.585 329.914 346.653 329.649 346.653ZM329.703 357.47C328.8 359.075 327.508 359.877 325.825 359.877C325.567 359.877 325.324 359.859 325.094 359.823C324.865 359.787 324.607 359.723 324.321 359.63C323.791 359.465 323.308 359.071 322.871 358.448C322.663 358.154 322.502 357.775 322.387 357.309C322.273 356.837 322.215 356.307 322.215 355.719V349.263H320.196V348.06H324.525V355.698C324.525 356.643 324.675 357.327 324.976 357.75C325.277 358.172 325.75 358.384 326.394 358.384C326.853 358.384 327.332 358.247 327.834 357.975C328.342 357.703 328.768 357.345 329.112 356.901C329.456 356.457 329.628 356.01 329.628 355.558V349.263H327.673V348.06H331.948V358.373L334.032 358.598V359.587L329.703 359.898V357.47ZM334.58 358.384H336.674V349.263H334.58V348.06L338.651 347.878L338.941 350.391C339.12 349.783 339.446 349.21 339.919 348.673C340.169 348.386 340.477 348.161 340.842 347.996C341.215 347.831 341.612 347.749 342.035 347.749C342.429 347.749 342.787 347.824 343.109 347.974C343.431 348.118 343.686 348.329 343.872 348.608C344.065 348.887 344.162 349.217 344.162 349.596C344.162 349.955 344.087 350.27 343.936 350.542C343.793 350.807 343.596 351.011 343.345 351.154C343.095 351.29 342.819 351.358 342.518 351.358C342.096 351.358 341.734 351.226 341.433 350.961C341.14 350.696 340.993 350.352 340.993 349.929C340.993 349.793 341.025 349.647 341.09 349.489C341.161 349.331 341.236 349.203 341.315 349.102L341.433 348.984C341.011 348.984 340.635 349.117 340.305 349.382C339.976 349.639 339.718 349.997 339.532 350.456C339.167 351.344 338.984 352.329 338.984 353.41V358.384H341.401V359.587H334.58V358.384ZM344.849 358.384H346.944V349.263H344.849V348.06H346.944C346.944 346.786 347.076 345.747 347.341 344.945C347.614 344.143 348.047 343.549 348.641 343.162C349.236 342.775 350.02 342.582 350.994 342.582C351.739 342.582 352.39 342.689 352.949 342.904C353.507 343.112 353.934 343.395 354.227 343.753C354.521 344.104 354.668 344.483 354.668 344.891C354.668 345.257 354.596 345.582 354.453 345.869C354.317 346.148 354.123 346.363 353.873 346.513C353.629 346.664 353.357 346.739 353.056 346.739C352.798 346.739 352.559 346.675 352.337 346.546C352.115 346.417 351.936 346.245 351.799 346.03C351.671 345.808 351.606 345.561 351.606 345.289C351.606 345.017 351.717 344.752 351.939 344.494C352.168 344.229 352.455 344.053 352.798 343.968C352.648 343.824 352.43 343.71 352.143 343.624C351.864 343.531 351.588 343.484 351.316 343.484C350.636 343.484 350.109 343.713 349.737 344.172C349.372 344.623 349.189 345.31 349.189 346.234V348.06H352.702L352.616 349.263H349.254V358.384H351.939V359.587H344.849V358.384ZM353.271 358.384H355.366V349.263H353.271V348.06L357.342 347.878L357.611 350.219C357.833 349.704 358.148 349.26 358.556 348.887C358.965 348.515 359.419 348.232 359.921 348.039C360.422 347.845 360.927 347.749 361.435 347.749C361.679 347.749 361.894 347.76 362.08 347.781C362.273 347.802 362.484 347.849 362.714 347.921C362.971 347.999 363.197 348.1 363.39 348.221C363.591 348.343 363.795 348.508 364.003 348.716C364.217 348.938 364.393 349.192 364.529 349.478C364.665 349.758 364.78 350.105 364.873 350.52C364.959 350.936 365.002 351.405 365.002 351.927V358.384H367.204V359.587H360.726V358.384H362.692V351.949C362.692 351.039 362.513 350.359 362.155 349.908C361.797 349.45 361.292 349.22 360.64 349.22C360.239 349.22 359.867 349.296 359.523 349.446C359.187 349.596 358.904 349.804 358.674 350.069C358.452 350.327 358.263 350.635 358.105 350.993C357.955 351.344 357.847 351.713 357.783 352.099C357.711 352.457 357.675 352.855 357.675 353.292V358.384H359.631V359.587H353.271V358.384ZM370.964 346.03C370.677 346.03 370.412 345.958 370.169 345.815C369.925 345.672 369.732 345.479 369.589 345.235C369.445 344.992 369.374 344.73 369.374 344.451C369.374 344.157 369.445 343.889 369.589 343.645C369.732 343.395 369.925 343.198 370.169 343.054C370.412 342.911 370.677 342.84 370.964 342.84C371.243 342.84 371.504 342.915 371.748 343.065C371.998 343.208 372.195 343.405 372.339 343.656C372.489 343.899 372.564 344.164 372.564 344.451C372.564 344.73 372.489 344.992 372.339 345.235C372.195 345.479 371.998 345.672 371.748 345.815C371.504 345.958 371.243 346.03 370.964 346.03ZM367.945 359.587V358.384H370.018V349.263H367.923V348.06H372.328V358.384H374.433V359.587H367.945ZM380.03 359.877C378.877 359.877 377.839 359.658 376.915 359.221C376.435 358.999 376.055 358.695 375.776 358.308C375.497 357.914 375.357 357.47 375.357 356.976C375.357 356.676 375.425 356.403 375.561 356.16C375.697 355.909 375.876 355.716 376.098 355.58C376.327 355.444 376.571 355.376 376.829 355.376C377.251 355.376 377.599 355.49 377.871 355.719C378.143 355.949 378.279 356.267 378.279 356.676C378.279 356.912 378.229 357.127 378.129 357.32C378.035 357.513 377.907 357.667 377.742 357.782C377.577 357.889 377.405 357.943 377.226 357.943C377.506 358.144 377.878 358.312 378.343 358.448C378.816 358.577 379.285 358.641 379.751 358.641C380.345 358.641 380.85 358.584 381.265 358.469C381.688 358.355 382.046 358.158 382.34 357.879C382.647 357.592 382.801 357.216 382.801 356.751C382.801 356.414 382.698 356.11 382.49 355.838C382.282 355.566 382.003 355.351 381.652 355.193C380.871 354.842 380.03 354.549 379.128 354.312C378.662 354.191 378.207 354.037 377.763 353.85C377.326 353.664 376.94 353.456 376.603 353.227C376.245 352.991 375.962 352.683 375.755 352.303C375.554 351.924 375.454 351.498 375.454 351.025C375.454 350.552 375.554 350.123 375.755 349.736C375.962 349.342 376.234 349.02 376.571 348.769C376.886 348.54 377.248 348.343 377.656 348.178C378.071 348.014 378.476 347.899 378.87 347.835C379.271 347.777 379.636 347.749 379.965 347.749C380.481 347.749 381 347.806 381.523 347.921C382.053 348.035 382.547 348.196 383.006 348.404C383.471 348.626 383.843 348.913 384.123 349.263C384.402 349.607 384.542 349.98 384.542 350.381C384.542 350.689 384.477 350.968 384.348 351.219C384.227 351.462 384.058 351.652 383.843 351.788C383.629 351.924 383.399 351.992 383.156 351.992C382.733 351.992 382.382 351.867 382.103 351.616C381.824 351.365 381.684 351.029 381.684 350.606C381.684 350.42 381.731 350.241 381.824 350.069C381.917 349.89 382.017 349.758 382.125 349.672L382.501 349.414C381.792 349.07 380.99 348.898 380.094 348.898C379.6 348.898 379.153 348.973 378.752 349.124C378.351 349.267 378.035 349.478 377.806 349.758C377.577 350.037 377.463 350.366 377.463 350.746C377.463 351.018 377.566 351.265 377.774 351.487C377.982 351.709 378.265 351.885 378.623 352.013C379.453 352.336 380.298 352.611 381.158 352.841C381.616 352.969 382.067 353.138 382.511 353.345C382.955 353.553 383.353 353.786 383.704 354.044C384.062 354.302 384.341 354.638 384.542 355.053C384.749 355.462 384.853 355.916 384.853 356.418C384.853 356.926 384.76 357.385 384.574 357.793C384.388 358.201 384.137 358.538 383.822 358.802C383.528 359.053 383.17 359.264 382.748 359.436C382.325 359.601 381.885 359.716 381.426 359.78C380.99 359.844 380.524 359.877 380.03 359.877ZM391.202 359.877C390.049 359.877 389.01 359.658 388.087 359.221C387.607 358.999 387.227 358.695 386.948 358.308C386.669 357.914 386.529 357.47 386.529 356.976C386.529 356.676 386.597 356.403 386.733 356.16C386.869 355.909 387.048 355.716 387.27 355.58C387.499 355.444 387.743 355.376 388.001 355.376C388.423 355.376 388.77 355.49 389.043 355.719C389.315 355.949 389.451 356.267 389.451 356.676C389.451 356.912 389.401 357.127 389.3 357.32C389.207 357.513 389.078 357.667 388.914 357.782C388.749 357.889 388.577 357.943 388.398 357.943C388.677 358.144 389.05 358.312 389.515 358.448C389.988 358.577 390.457 358.641 390.923 358.641C391.517 358.641 392.022 358.584 392.437 358.469C392.86 358.355 393.218 358.158 393.511 357.879C393.819 357.592 393.973 357.216 393.973 356.751C393.973 356.414 393.869 356.11 393.662 355.838C393.454 355.566 393.175 355.351 392.824 355.193C392.043 354.842 391.202 354.549 390.299 354.312C389.834 354.191 389.379 354.037 388.935 353.85C388.498 353.664 388.112 353.456 387.775 353.227C387.417 352.991 387.134 352.683 386.926 352.303C386.726 351.924 386.626 351.498 386.626 351.025C386.626 350.552 386.726 350.123 386.926 349.736C387.134 349.342 387.406 349.02 387.743 348.769C388.058 348.54 388.42 348.343 388.828 348.178C389.243 348.014 389.648 347.899 390.042 347.835C390.443 347.777 390.808 347.749 391.137 347.749C391.653 347.749 392.172 347.806 392.695 347.921C393.225 348.035 393.719 348.196 394.177 348.404C394.643 348.626 395.015 348.913 395.295 349.263C395.574 349.607 395.714 349.98 395.714 350.381C395.714 350.689 395.649 350.968 395.52 351.219C395.398 351.462 395.23 351.652 395.015 351.788C394.8 351.924 394.571 351.992 394.328 351.992C393.905 351.992 393.554 351.867 393.275 351.616C392.996 351.365 392.856 351.029 392.856 350.606C392.856 350.42 392.903 350.241 392.996 350.069C393.089 349.89 393.189 349.758 393.297 349.672L393.673 349.414C392.964 349.07 392.161 348.898 391.266 348.898C390.772 348.898 390.325 348.973 389.923 349.124C389.522 349.267 389.207 349.478 388.978 349.758C388.749 350.037 388.634 350.366 388.634 350.746C388.634 351.018 388.738 351.265 388.946 351.487C389.154 351.709 389.437 351.885 389.795 352.013C390.625 352.336 391.47 352.611 392.33 352.841C392.788 352.969 393.239 353.138 393.683 353.345C394.127 353.553 394.525 353.786 394.876 354.044C395.234 354.302 395.513 354.638 395.714 355.053C395.921 355.462 396.025 355.916 396.025 356.418C396.025 356.926 395.932 357.385 395.746 357.793C395.56 358.201 395.309 358.538 394.994 358.802C394.7 359.053 394.342 359.264 393.92 359.436C393.497 359.601 393.057 359.716 392.598 359.78C392.161 359.844 391.696 359.877 391.202 359.877ZM403.255 359.877C402.395 359.877 401.604 359.716 400.881 359.393C400.157 359.064 399.559 358.613 399.087 358.04C398.621 357.481 398.263 356.851 398.012 356.149C397.769 355.447 397.647 354.72 397.647 353.969C397.647 353.317 397.722 352.687 397.873 352.078C398.03 351.469 398.259 350.907 398.56 350.391C399.219 349.267 400.1 348.497 401.203 348.082C401.783 347.86 402.424 347.749 403.126 347.749C403.856 347.749 404.536 347.878 405.167 348.135C405.797 348.393 406.348 348.766 406.821 349.253C407.301 349.754 407.677 350.384 407.949 351.143C408.228 351.902 408.375 352.744 408.389 353.668H400.107V353.754C400.107 355 400.372 356.049 400.902 356.901C401.167 357.331 401.521 357.667 401.965 357.911C402.409 358.147 402.914 358.265 403.48 358.265C403.981 358.265 404.465 358.162 404.93 357.954C405.403 357.739 405.811 357.431 406.155 357.03C406.506 356.622 406.757 356.146 406.907 355.601L408.164 355.999C407.978 356.787 407.659 357.474 407.208 358.061C406.757 358.641 406.194 359.089 405.521 359.404C404.848 359.719 404.092 359.877 403.255 359.877ZM406.026 352.508C406.012 351.827 405.876 351.226 405.618 350.703C405.367 350.173 405.027 349.761 404.597 349.468C404.175 349.174 403.706 349.027 403.19 349.027C402.667 349.027 402.187 349.174 401.751 349.468C401.314 349.761 400.956 350.173 400.676 350.703C400.404 351.226 400.24 351.827 400.182 352.508H406.026Z" fill="white"/>
<path d="M402.808 394.774H404.328C404.328 397.074 405.808 398.114 408.228 398.114C410.428 398.114 411.948 397.174 411.948 395.474C411.948 393.994 410.908 393.154 408.948 392.694L406.648 392.114C404.228 391.514 403.088 390.374 403.088 388.514C403.088 386.274 404.828 384.694 408.008 384.694C410.988 384.694 412.888 385.974 412.928 388.834H411.468C411.468 387.114 410.528 385.934 407.888 385.934C405.828 385.934 404.528 387.014 404.528 388.374C404.528 389.834 405.708 390.474 407.788 390.954L409.728 391.434C412.068 392.014 413.388 393.194 413.388 395.354C413.388 398.014 411.128 399.374 408.228 399.374C405.228 399.374 402.808 398.154 402.808 394.774ZM415.775 389.154H417.115V399.154H415.775V389.154ZM415.475 385.994C415.475 385.474 415.935 385.034 416.455 385.034C416.975 385.034 417.415 385.474 417.415 385.994C417.415 386.514 416.975 386.974 416.455 386.974C415.935 386.974 415.475 386.514 415.475 385.994ZM424.137 399.374C421.277 399.374 419.497 397.154 419.497 394.194C419.497 391.034 421.517 388.934 424.157 388.934C426.257 388.934 427.937 390.194 428.077 392.334H426.717C426.477 390.774 425.557 390.094 424.157 390.094C422.377 390.094 420.917 391.614 420.917 394.194C420.917 396.374 422.077 398.214 424.137 398.214C425.377 398.214 426.537 397.474 426.777 395.894H428.097C427.777 398.234 426.117 399.374 424.137 399.374ZM435.093 388.934C436.853 388.934 438.273 389.894 438.273 392.074V399.154H436.933V392.714C436.933 391.114 436.253 390.134 434.673 390.134C433.033 390.134 431.773 391.674 431.593 393.654V399.154H430.273V384.914H431.593V391.114C432.473 389.474 433.773 388.934 435.093 388.934ZM444.889 399.374C441.889 399.374 440.249 397.114 440.249 394.014C440.249 390.994 442.009 388.934 444.769 388.934C447.249 388.934 448.929 390.874 448.969 393.834C448.969 393.974 448.969 394.074 448.949 394.214H441.689C441.689 396.234 442.669 398.214 444.869 398.214C446.129 398.214 447.209 397.474 447.449 395.894H448.849C448.509 398.234 446.889 399.374 444.889 399.374ZM441.729 393.214H447.469C447.409 391.054 446.129 390.114 444.769 390.114C443.069 390.114 441.809 391.334 441.729 393.194V393.214ZM451.161 399.154V389.154H452.481V391.074C453.001 389.814 453.701 389.274 454.621 389.014C455.001 388.914 455.361 388.874 455.781 388.874V390.214C455.541 390.214 455.281 390.214 455.061 390.254C453.281 390.574 452.481 392.314 452.481 394.094V399.154H451.161ZM462.412 388.934C464.172 388.934 465.592 389.894 465.592 392.074V399.154H464.252V392.714C464.252 391.114 463.572 390.134 461.992 390.134C460.352 390.134 459.092 391.674 458.912 393.654V399.154H457.592V384.914H458.912V391.114C459.792 389.474 461.092 388.934 462.412 388.934ZM472.207 399.374C469.207 399.374 467.567 397.114 467.567 394.014C467.567 390.994 469.327 388.934 472.087 388.934C474.567 388.934 476.247 390.874 476.287 393.834C476.287 393.974 476.287 394.074 476.267 394.214H469.007C469.007 396.234 469.987 398.214 472.187 398.214C473.447 398.214 474.527 397.474 474.767 395.894H476.167C475.827 398.234 474.207 399.374 472.207 399.374ZM469.047 393.214H474.787C474.727 391.054 473.447 390.114 472.087 390.114C470.387 390.114 469.127 391.334 469.047 393.194V393.214ZM478.679 389.154H480.019V399.154H478.679V389.154ZM478.379 385.994C478.379 385.474 478.839 385.034 479.359 385.034C479.879 385.034 480.319 385.474 480.319 385.994C480.319 386.514 479.879 386.974 479.359 386.974C478.839 386.974 478.379 386.514 478.379 385.994ZM487.041 399.154C485.941 399.574 484.841 399.394 484.181 398.794C483.621 398.274 483.361 397.514 483.361 396.774V390.274H481.921V389.154H483.361V385.834L484.621 384.794H484.701V389.154H486.781V390.274H484.701V396.394C484.701 397.934 485.641 398.474 487.041 397.934V399.154ZM378.349 421.154L373.049 406.914H374.569L379.029 419.174L383.489 406.914H385.029L379.729 421.154H378.349ZM389.515 421.394C386.895 421.394 385.035 419.454 385.035 416.194C385.035 413.034 386.895 410.934 389.515 410.934C392.135 410.934 393.975 413.034 393.975 416.194C393.975 419.454 392.135 421.394 389.515 421.394ZM386.455 416.194C386.455 418.754 387.775 420.234 389.515 420.234C391.255 420.234 392.555 418.754 392.555 416.194C392.555 413.614 391.255 412.094 389.515 412.094C387.775 412.094 386.455 413.614 386.455 416.194ZM396.162 421.154V411.154H397.482V413.074C398.002 411.814 398.702 411.274 399.622 411.014C400.002 410.914 400.362 410.874 400.782 410.874V412.214C400.542 412.214 400.282 412.214 400.062 412.254C398.282 412.574 397.482 414.314 397.482 416.094V421.154H396.162ZM407.413 410.934C409.173 410.934 410.593 411.894 410.593 414.074V421.154H409.253V414.714C409.253 413.114 408.573 412.134 406.993 412.134C405.353 412.134 404.093 413.674 403.913 415.654V421.154H402.593V406.914H403.913V413.114C404.793 411.474 406.093 410.934 407.413 410.934ZM417.209 421.374C414.209 421.374 412.569 419.114 412.569 416.014C412.569 412.994 414.329 410.934 417.089 410.934C419.569 410.934 421.249 412.874 421.289 415.834C421.289 415.974 421.289 416.074 421.269 416.214H414.009C414.009 418.234 414.989 420.214 417.189 420.214C418.449 420.214 419.529 419.474 419.769 417.894H421.169C420.829 420.234 419.209 421.374 417.209 421.374ZM414.049 415.214H419.789C419.729 413.054 418.449 412.114 417.089 412.114C415.389 412.114 414.129 413.334 414.049 415.194V415.214ZM423.481 421.154V411.154H424.801V413.074C425.321 411.814 426.021 411.274 426.941 411.014C427.321 410.914 427.681 410.874 428.101 410.874V412.214C427.861 412.214 427.601 412.214 427.381 412.254C425.601 412.574 424.801 414.314 424.801 416.094V421.154H423.481ZM433.832 421.374C430.812 421.374 429.432 420.154 429.392 418.214H430.812C430.812 419.394 431.732 420.234 433.772 420.234C435.692 420.234 436.292 419.454 436.292 418.594C436.292 417.614 435.712 417.114 434.192 416.754L432.412 416.354C430.912 416.014 429.752 415.374 429.752 413.754C429.752 412.034 431.232 410.934 433.492 410.934C435.952 410.934 437.432 411.894 437.432 413.834H436.112C436.112 412.714 435.232 412.074 433.512 412.074C432.012 412.074 431.152 412.754 431.152 413.634C431.152 414.794 432.192 415.054 433.572 415.394L434.992 415.754C436.652 416.154 437.692 416.914 437.692 418.534C437.692 420.234 436.312 421.374 433.832 421.374ZM442.359 421.374C440.859 421.374 439.419 420.514 439.419 418.654C439.419 416.874 440.799 415.854 442.559 415.454L446.139 414.654V414.274C446.139 412.954 445.139 412.034 443.419 412.034C442.099 412.034 440.939 412.634 440.859 414.434H439.519C439.599 411.994 441.419 410.934 443.419 410.934C446.059 410.934 447.479 412.334 447.479 414.454V418.394C447.479 419.654 447.499 420.574 447.639 421.114V421.154H446.319C446.199 420.674 446.179 419.934 446.159 419.354V418.554C446.159 418.554 446.159 418.574 446.139 418.574C445.499 420.174 444.279 421.374 442.359 421.374ZM440.879 418.614C440.879 419.694 441.719 420.294 442.699 420.294C444.579 420.294 446.159 418.514 446.159 415.954V415.654L442.959 416.454C441.519 416.814 440.879 417.594 440.879 418.614ZM453.639 425.574C451.659 425.574 449.959 424.414 449.679 422.034H451.059C451.319 423.654 452.399 424.394 453.659 424.394C455.859 424.394 456.879 422.894 456.879 420.494V419.414V418.934C456.259 420.074 455.239 420.834 453.739 420.834C451.239 420.834 449.439 418.894 449.439 415.794C449.439 412.814 451.239 410.874 453.739 410.874C455.319 410.874 456.299 411.514 456.879 412.474V411.154H458.199V420.374C458.199 423.874 456.499 425.574 453.639 425.574ZM450.839 415.814C450.839 418.394 452.099 419.714 453.999 419.714C455.719 419.714 456.919 418.394 456.919 415.834C456.919 413.214 455.899 411.994 453.999 411.994C452.259 411.994 450.839 413.214 450.839 415.814ZM464.893 421.474C463.613 421.474 462.493 420.814 461.753 419.794L461.733 421.154H460.433V406.914H461.753V412.654C461.753 412.674 461.753 412.674 461.753 412.654C462.333 411.734 463.453 410.954 464.853 410.954C467.353 410.954 469.093 412.974 469.093 416.194C469.093 419.514 467.333 421.474 464.893 421.474ZM461.713 416.214C461.713 418.774 462.813 420.314 464.733 420.314C466.473 420.314 467.713 418.934 467.713 416.214C467.713 413.474 466.313 412.114 464.733 412.114C462.813 412.114 461.713 413.654 461.713 416.214ZM473.877 421.374C472.377 421.374 470.937 420.514 470.937 418.654C470.937 416.874 472.317 415.854 474.077 415.454L477.657 414.654V414.274C477.657 412.954 476.657 412.034 474.937 412.034C473.617 412.034 472.457 412.634 472.377 414.434H471.037C471.117 411.994 472.937 410.934 474.937 410.934C477.577 410.934 478.997 412.334 478.997 414.454V418.394C478.997 419.654 479.017 420.574 479.157 421.114V421.154H477.837C477.717 420.674 477.697 419.934 477.677 419.354V418.554C477.677 418.554 477.677 418.574 477.657 418.574C477.017 420.174 475.797 421.374 473.877 421.374ZM472.397 418.614C472.397 419.694 473.237 420.294 474.217 420.294C476.097 420.294 477.677 418.514 477.677 415.954V415.654L474.477 416.454C473.037 416.814 472.397 417.594 472.397 418.614ZM481.497 421.154V411.154H482.817V413.074C483.337 411.814 484.037 411.274 484.957 411.014C485.337 410.914 485.697 410.874 486.117 410.874V412.214C485.877 412.214 485.617 412.214 485.397 412.254C483.617 412.574 482.817 414.314 482.817 416.094V421.154H481.497ZM493.688 411.154H495.428L491.528 414.934L495.908 421.154H494.388L490.668 415.774L489.248 417.134V421.154H487.928V406.914H489.248V415.534L493.688 411.154ZM501.587 421.374C498.587 421.374 496.947 419.114 496.947 416.014C496.947 412.994 498.707 410.934 501.467 410.934C503.947 410.934 505.627 412.874 505.667 415.834C505.667 415.974 505.667 416.074 505.647 416.214H498.387C498.387 418.234 499.367 420.214 501.567 420.214C502.827 420.214 503.907 419.474 504.147 417.894H505.547C505.207 420.234 503.587 421.374 501.587 421.374ZM498.427 415.214H504.167C504.107 413.054 502.827 412.114 501.467 412.114C499.767 412.114 498.507 413.334 498.427 415.194V415.214ZM508.059 411.154H509.399V421.154H508.059V411.154ZM507.759 407.994C507.759 407.474 508.219 407.034 508.739 407.034C509.259 407.034 509.699 407.474 509.699 407.994C509.699 408.514 509.259 408.974 508.739 408.974C508.219 408.974 507.759 408.514 507.759 407.994ZM516.42 421.154C515.32 421.574 514.22 421.394 513.56 420.794C513 420.274 512.74 419.514 512.74 418.774V412.274H511.3V411.154H512.74V407.834L514 406.794H514.08V411.154H516.16V412.274H514.08V418.394C514.08 419.934 515.02 420.474 516.42 419.934V421.154Z" fill="white"/>
<path d="M385.65 510.154H384.21L382.57 505.774H376.31L374.67 510.154H373.23L378.63 495.914H380.25L385.65 510.154ZM376.77 504.554H382.11L379.45 497.414L376.77 504.554ZM395.291 510.154H393.971V508.154C393.091 509.834 391.771 510.374 390.451 510.374C388.691 510.374 387.271 509.414 387.271 507.234V500.154H388.611V506.594C388.611 508.194 389.291 509.174 390.871 509.174C392.631 509.174 393.971 507.394 393.971 505.194V500.154H395.291V510.154ZM402.107 510.154C401.007 510.574 399.907 510.394 399.247 509.794C398.687 509.274 398.427 508.514 398.427 507.774V501.274H396.987V500.154H398.427V496.834L399.687 495.794H399.767V500.154H401.847V501.274H399.767V507.394C399.767 508.934 400.707 509.474 402.107 508.934V510.154ZM407.928 510.394C405.308 510.394 403.448 508.454 403.448 505.194C403.448 502.034 405.308 499.934 407.928 499.934C410.548 499.934 412.388 502.034 412.388 505.194C412.388 508.454 410.548 510.394 407.928 510.394ZM404.868 505.194C404.868 507.754 406.188 509.234 407.928 509.234C409.668 509.234 410.968 507.754 410.968 505.194C410.968 502.614 409.668 501.094 407.928 501.094C406.188 501.094 404.868 502.614 404.868 505.194ZM414.575 500.154H415.895V502.154C416.775 500.474 418.095 499.934 419.415 499.934C421.175 499.934 422.595 500.894 422.595 503.074V510.154H421.255V503.714C421.255 502.114 420.575 501.134 418.995 501.134C417.235 501.134 415.895 502.914 415.895 505.114V510.154H414.575V500.154ZM429.051 510.394C426.431 510.394 424.571 508.454 424.571 505.194C424.571 502.034 426.431 499.934 429.051 499.934C431.671 499.934 433.511 502.034 433.511 505.194C433.511 508.454 431.671 510.394 429.051 510.394ZM425.991 505.194C425.991 507.754 427.311 509.234 429.051 509.234C430.791 509.234 432.091 507.754 432.091 505.194C432.091 502.614 430.791 501.094 429.051 501.094C427.311 501.094 425.991 502.614 425.991 505.194ZM449.098 503.714C449.098 502.114 448.418 501.134 446.818 501.134C444.798 501.134 443.738 502.914 443.718 505.114V510.154H442.378V503.714C442.378 502.114 441.698 501.134 440.118 501.134C438.358 501.134 437.018 502.914 437.018 505.114V510.154H435.698V500.154H437.018V502.154C437.898 500.474 439.218 499.934 440.538 499.934C442.038 499.934 443.298 500.634 443.638 502.194C444.538 500.374 445.878 499.934 447.238 499.934C448.998 499.934 450.418 501.074 450.418 503.254V510.154H449.098V503.714ZM452.973 500.154H454.313V510.154H452.973V500.154ZM452.673 496.994C452.673 496.474 453.133 496.034 453.653 496.034C454.173 496.034 454.613 496.474 454.613 496.994C454.613 497.514 454.173 497.974 453.653 497.974C453.133 497.974 452.673 497.514 452.673 496.994ZM461.334 510.374C458.334 510.374 456.694 508.114 456.694 505.014C456.694 501.994 458.454 499.934 461.214 499.934C463.694 499.934 465.374 501.874 465.414 504.834C465.414 504.974 465.414 505.074 465.394 505.214H458.134C458.134 507.234 459.114 509.214 461.314 509.214C462.574 509.214 463.654 508.474 463.894 506.894H465.294C464.954 509.234 463.334 510.374 461.334 510.374ZM458.174 504.214H463.914C463.854 502.054 462.574 501.114 461.214 501.114C459.514 501.114 458.254 502.334 458.174 504.194V504.214ZM354.516 527.774H356.036C356.036 530.074 357.516 531.114 359.936 531.114C362.136 531.114 363.656 530.174 363.656 528.474C363.656 526.994 362.616 526.154 360.656 525.694L358.356 525.114C355.936 524.514 354.796 523.374 354.796 521.514C354.796 519.274 356.536 517.694 359.716 517.694C362.696 517.694 364.596 518.974 364.636 521.834H363.176C363.176 520.114 362.236 518.934 359.596 518.934C357.536 518.934 356.236 520.014 356.236 521.374C356.236 522.834 357.416 523.474 359.496 523.954L361.436 524.434C363.776 525.014 365.096 526.194 365.096 528.354C365.096 531.014 362.836 532.374 359.936 532.374C356.936 532.374 354.516 531.154 354.516 527.774ZM371.544 532.374C368.544 532.374 366.904 530.114 366.904 527.014C366.904 523.994 368.664 521.934 371.424 521.934C373.904 521.934 375.584 523.874 375.624 526.834C375.624 526.974 375.624 527.074 375.604 527.214H368.344C368.344 529.234 369.324 531.214 371.524 531.214C372.784 531.214 373.864 530.474 374.104 528.894H375.504C375.164 531.234 373.544 532.374 371.544 532.374ZM368.384 526.214H374.124C374.064 524.054 372.784 523.114 371.424 523.114C369.724 523.114 368.464 524.334 368.384 526.194V526.214ZM377.836 517.914H379.156V532.154H377.836V517.914ZM386.207 532.474C384.927 532.474 383.807 531.814 383.067 530.794L383.047 532.154H381.747V517.914H383.067V523.654C383.067 523.674 383.067 523.674 383.067 523.654C383.647 522.734 384.767 521.954 386.167 521.954C388.667 521.954 390.407 523.974 390.407 527.194C390.407 530.514 388.647 532.474 386.207 532.474ZM383.027 527.214C383.027 529.774 384.127 531.314 386.047 531.314C387.787 531.314 389.027 529.934 389.027 527.214C389.027 524.474 387.627 523.114 386.047 523.114C384.127 523.114 383.027 524.654 383.027 527.214ZM396.531 532.374C393.511 532.374 392.131 531.154 392.091 529.214H393.511C393.511 530.394 394.431 531.234 396.471 531.234C398.391 531.234 398.991 530.454 398.991 529.594C398.991 528.614 398.411 528.114 396.891 527.754L395.111 527.354C393.611 527.014 392.451 526.374 392.451 524.754C392.451 523.034 393.931 521.934 396.191 521.934C398.651 521.934 400.131 522.894 400.131 524.834H398.811C398.811 523.714 397.931 523.074 396.211 523.074C394.711 523.074 393.851 523.754 393.851 524.634C393.851 525.794 394.891 526.054 396.271 526.394L397.691 526.754C399.351 527.154 400.391 527.914 400.391 529.534C400.391 531.234 399.011 532.374 396.531 532.374ZM406.387 532.154C405.287 532.574 404.187 532.394 403.527 531.794C402.967 531.274 402.707 530.514 402.707 529.774V523.274H401.267V522.154H402.707V518.834L403.967 517.794H404.047V522.154H406.127V523.274H404.047V529.394C404.047 530.934 404.987 531.474 406.387 530.934V532.154ZM410.708 532.374C409.208 532.374 407.768 531.514 407.768 529.654C407.768 527.874 409.148 526.854 410.908 526.454L414.488 525.654V525.274C414.488 523.954 413.488 523.034 411.768 523.034C410.448 523.034 409.288 523.634 409.208 525.434H407.868C407.948 522.994 409.768 521.934 411.768 521.934C414.408 521.934 415.828 523.334 415.828 525.454V529.394C415.828 530.654 415.848 531.574 415.988 532.114V532.154H414.668C414.548 531.674 414.528 530.934 414.508 530.354V529.554C414.508 529.554 414.508 529.574 414.488 529.574C413.848 531.174 412.628 532.374 410.708 532.374ZM409.228 529.614C409.228 530.694 410.068 531.294 411.048 531.294C412.928 531.294 414.508 529.514 414.508 526.954V526.654L411.308 527.454C409.868 527.814 409.228 528.594 409.228 529.614ZM426.148 532.154H424.828V530.154C423.948 531.834 422.628 532.374 421.308 532.374C419.548 532.374 418.128 531.414 418.128 529.234V522.154H419.468V528.594C419.468 530.194 420.148 531.174 421.728 531.174C423.488 531.174 424.828 529.394 424.828 527.194V522.154H426.148V532.154ZM432.643 532.374C429.623 532.374 428.243 531.154 428.203 529.214H429.623C429.623 530.394 430.543 531.234 432.583 531.234C434.503 531.234 435.103 530.454 435.103 529.594C435.103 528.614 434.523 528.114 433.003 527.754L431.223 527.354C429.723 527.014 428.563 526.374 428.563 524.754C428.563 523.034 430.043 521.934 432.303 521.934C434.763 521.934 436.243 522.894 436.243 524.834H434.923C434.923 523.714 434.043 523.074 432.323 523.074C430.823 523.074 429.963 523.754 429.963 524.634C429.963 525.794 431.003 526.054 432.383 526.394L433.803 526.754C435.463 527.154 436.503 527.914 436.503 529.534C436.503 531.234 435.123 532.374 432.643 532.374ZM442.411 532.474C439.971 532.474 438.191 530.514 438.191 527.194C438.191 523.974 439.931 521.954 442.451 521.954C443.771 521.954 444.911 522.674 445.531 523.654V517.914H446.851V532.154H445.551V530.794C444.831 531.814 443.671 532.474 442.411 532.474ZM439.571 527.214C439.571 529.934 440.811 531.314 442.551 531.314C444.471 531.314 445.591 529.774 445.591 527.214C445.591 524.654 444.471 523.114 442.551 523.114C440.991 523.114 439.571 524.474 439.571 527.214ZM449.435 532.154V522.154H450.755V524.074C451.275 522.814 451.975 522.274 452.895 522.014C453.275 521.914 453.635 521.874 454.055 521.874V523.214C453.815 523.214 453.555 523.214 453.335 523.254C451.555 523.574 450.755 525.314 450.755 527.094V532.154H449.435ZM463.666 532.154H462.346V530.154C461.466 531.834 460.146 532.374 458.826 532.374C457.066 532.374 455.646 531.414 455.646 529.234V522.154H456.986V528.594C456.986 530.194 457.666 531.174 459.246 531.174C461.006 531.174 462.346 529.394 462.346 527.194V522.154H463.666V532.154ZM470.482 532.374C467.622 532.374 465.842 530.154 465.842 527.194C465.842 524.034 467.862 521.934 470.502 521.934C472.602 521.934 474.282 523.194 474.422 525.334H473.062C472.822 523.774 471.902 523.094 470.502 523.094C468.722 523.094 467.262 524.614 467.262 527.194C467.262 529.374 468.422 531.214 470.482 531.214C471.722 531.214 472.882 530.474 473.122 528.894H474.442C474.122 531.234 472.462 532.374 470.482 532.374ZM482.378 522.154H484.118L480.218 525.934L484.598 532.154H483.078L479.358 526.774L477.938 528.134V532.154H476.618V517.914H477.938V526.534L482.378 522.154Z" fill="white"/>
<path d="M221.687 505L217.347 490.76H218.847L222.627 503.68L226.607 490.76H228.207L232.187 503.72L235.987 490.76H237.467L233.127 505H231.247L227.407 492.54L223.567 505H221.687ZM240.867 505.22C239.367 505.22 237.927 504.36 237.927 502.5C237.927 500.72 239.307 499.7 241.067 499.3L244.647 498.5V498.12C244.647 496.8 243.647 495.88 241.927 495.88C240.607 495.88 239.447 496.48 239.367 498.28H238.027C238.107 495.84 239.927 494.78 241.927 494.78C244.567 494.78 245.987 496.18 245.987 498.3V502.24C245.987 503.5 246.007 504.42 246.147 504.96V505H244.827C244.707 504.52 244.687 503.78 244.667 503.2V502.4C244.667 502.4 244.667 502.42 244.647 502.42C244.007 504.02 242.787 505.22 240.867 505.22ZM239.387 502.46C239.387 503.54 240.227 504.14 241.207 504.14C243.087 504.14 244.667 502.36 244.667 499.8V499.5L241.467 500.3C240.027 500.66 239.387 501.44 239.387 502.46ZM252.747 505.22C249.887 505.22 248.107 503 248.107 500.04C248.107 496.88 250.127 494.78 252.767 494.78C254.867 494.78 256.547 496.04 256.687 498.18H255.327C255.087 496.62 254.167 495.94 252.767 495.94C250.987 495.94 249.527 497.46 249.527 500.04C249.527 502.22 250.687 504.06 252.747 504.06C253.987 504.06 255.147 503.32 255.387 501.74H256.707C256.387 504.08 254.727 505.22 252.747 505.22ZM263.703 494.78C265.463 494.78 266.883 495.74 266.883 497.92V505H265.543V498.56C265.543 496.96 264.863 495.98 263.283 495.98C261.643 495.98 260.383 497.52 260.203 499.5V505H258.883V490.76H260.203V496.96C261.083 495.32 262.383 494.78 263.703 494.78ZM273.179 505.22C270.159 505.22 268.779 504 268.739 502.06H270.159C270.159 503.24 271.079 504.08 273.119 504.08C275.039 504.08 275.639 503.3 275.639 502.44C275.639 501.46 275.059 500.96 273.539 500.6L271.759 500.2C270.259 499.86 269.099 499.22 269.099 497.6C269.099 495.88 270.579 494.78 272.839 494.78C275.299 494.78 276.779 495.74 276.779 497.68H275.459C275.459 496.56 274.579 495.92 272.859 495.92C271.359 495.92 270.499 496.6 270.499 497.48C270.499 498.64 271.539 498.9 272.919 499.24L274.339 499.6C275.999 500 277.039 500.76 277.039 502.38C277.039 504.08 275.659 505.22 273.179 505.22ZM283.034 505C281.934 505.42 280.834 505.24 280.174 504.64C279.614 504.12 279.354 503.36 279.354 502.62V496.12H277.914V495H279.354V491.68L280.614 490.64H280.694V495H282.774V496.12H280.694V502.24C280.694 503.78 281.634 504.32 283.034 503.78V505ZM292.576 505H291.256V503C290.376 504.68 289.056 505.22 287.736 505.22C285.976 505.22 284.556 504.26 284.556 502.08V495H285.896V501.44C285.896 503.04 286.576 504.02 288.156 504.02C289.916 504.02 291.256 502.24 291.256 500.04V495H292.576V505ZM308.532 498.56C308.532 496.96 307.852 495.98 306.252 495.98C304.232 495.98 303.172 497.76 303.152 499.96V505H301.812V498.56C301.812 496.96 301.132 495.98 299.552 495.98C297.792 495.98 296.452 497.76 296.452 499.96V505H295.132V495H296.452V497C297.332 495.32 298.652 494.78 299.972 494.78C301.472 494.78 302.732 495.48 303.072 497.04C303.972 495.22 305.312 494.78 306.672 494.78C308.432 494.78 309.852 495.92 309.852 498.1V505H308.532V498.56ZM216.948 522.62H218.468C218.468 524.92 219.948 525.96 222.368 525.96C224.568 525.96 226.088 525.02 226.088 523.32C226.088 521.84 225.048 521 223.088 520.54L220.788 519.96C218.368 519.36 217.228 518.22 217.228 516.36C217.228 514.12 218.968 512.54 222.148 512.54C225.128 512.54 227.028 513.82 227.068 516.68H225.608C225.608 514.96 224.668 513.78 222.028 513.78C219.968 513.78 218.668 514.86 218.668 516.22C218.668 517.68 219.848 518.32 221.928 518.8L223.868 519.28C226.208 519.86 227.528 521.04 227.528 523.2C227.528 525.86 225.268 527.22 222.368 527.22C219.368 527.22 216.948 526 216.948 522.62ZM233.976 527C232.876 527.42 231.776 527.24 231.116 526.64C230.556 526.12 230.296 525.36 230.296 524.62V518.12H228.856V517H230.296V513.68L231.556 512.64H231.636V517H233.716V518.12H231.636V524.24C231.636 525.78 232.576 526.32 233.976 525.78V527ZM235.897 517H237.237V527H235.897V517ZM235.597 513.84C235.597 513.32 236.057 512.88 236.577 512.88C237.097 512.88 237.537 513.32 237.537 513.84C237.537 514.36 237.097 514.82 236.577 514.82C236.057 514.82 235.597 514.36 235.597 513.84ZM253.398 520.56C253.398 518.96 252.718 517.98 251.118 517.98C249.098 517.98 248.038 519.76 248.018 521.96V527H246.678V520.56C246.678 518.96 245.998 517.98 244.418 517.98C242.658 517.98 241.318 519.76 241.318 521.96V527H239.998V517H241.318V519C242.198 517.32 243.518 516.78 244.838 516.78C246.338 516.78 247.598 517.48 247.938 519.04C248.838 517.22 250.178 516.78 251.538 516.78C253.298 516.78 254.718 517.92 254.718 520.1V527H253.398V520.56ZM264.893 527H263.573V525C262.693 526.68 261.373 527.22 260.053 527.22C258.293 527.22 256.873 526.26 256.873 524.08V517H258.213V523.44C258.213 525.04 258.893 526.02 260.473 526.02C262.233 526.02 263.573 524.24 263.573 522.04V517H264.893V527ZM267.469 512.76H268.789V527H267.469V512.76ZM273.96 527.22C272.46 527.22 271.02 526.36 271.02 524.5C271.02 522.72 272.4 521.7 274.16 521.3L277.74 520.5V520.12C277.74 518.8 276.74 517.88 275.02 517.88C273.7 517.88 272.54 518.48 272.46 520.28H271.12C271.2 517.84 273.02 516.78 275.02 516.78C277.66 516.78 279.08 518.18 279.08 520.3V524.24C279.08 525.5 279.1 526.42 279.24 526.96V527H277.92C277.8 526.52 277.78 525.78 277.76 525.2V524.4C277.76 524.4 277.76 524.42 277.74 524.42C277.1 526.02 275.88 527.22 273.96 527.22ZM272.48 524.46C272.48 525.54 273.32 526.14 274.3 526.14C276.18 526.14 277.76 524.36 277.76 521.8V521.5L274.56 522.3C273.12 522.66 272.48 523.44 272.48 524.46ZM285.84 527C284.74 527.42 283.64 527.24 282.98 526.64C282.42 526.12 282.16 525.36 282.16 524.62V518.12H280.72V517H282.16V513.68L283.42 512.64H283.5V517H285.58V518.12H283.5V524.24C283.5 525.78 284.44 526.32 285.84 525.78V527ZM287.761 517H289.101V527H287.761V517ZM287.461 513.84C287.461 513.32 287.921 512.88 288.441 512.88C288.961 512.88 289.401 513.32 289.401 513.84C289.401 514.36 288.961 514.82 288.441 514.82C287.921 514.82 287.461 514.36 287.461 513.84ZM295.962 527.24C293.342 527.24 291.482 525.3 291.482 522.04C291.482 518.88 293.342 516.78 295.962 516.78C298.582 516.78 300.422 518.88 300.422 522.04C300.422 525.3 298.582 527.24 295.962 527.24ZM292.902 522.04C292.902 524.6 294.222 526.08 295.962 526.08C297.702 526.08 299.002 524.6 299.002 522.04C299.002 519.46 297.702 517.94 295.962 517.94C294.222 517.94 292.902 519.46 292.902 522.04ZM302.609 517H303.929V519C304.809 517.32 306.129 516.78 307.449 516.78C309.209 516.78 310.629 517.74 310.629 519.92V527H309.289V520.56C309.289 518.96 308.609 517.98 307.029 517.98C305.269 517.98 303.929 519.76 303.929 521.96V527H302.609V517Z" fill="white"/>
<path d="M232.313 397.934H239.353V399.154H230.913V384.914H232.313V397.934ZM241.401 389.154H242.741V399.154H241.401V389.154ZM241.101 385.994C241.101 385.474 241.561 385.034 242.081 385.034C242.601 385.034 243.041 385.474 243.041 385.994C243.041 386.514 242.601 386.974 242.081 386.974C241.561 386.974 241.101 386.514 241.101 385.994ZM249.762 399.374C246.762 399.374 245.122 397.114 245.122 394.014C245.122 390.994 246.882 388.934 249.642 388.934C252.122 388.934 253.802 390.874 253.842 393.834C253.842 393.974 253.842 394.074 253.822 394.214H246.562C246.562 396.234 247.542 398.214 249.742 398.214C251.002 398.214 252.082 397.474 252.322 395.894H253.722C253.382 398.234 251.762 399.374 249.762 399.374ZM246.602 393.214H252.342C252.282 391.054 251.002 390.114 249.642 390.114C247.942 390.114 246.682 391.334 246.602 393.194V393.214ZM260.514 399.474C259.234 399.474 258.114 398.814 257.374 397.794L257.354 399.154H256.054V384.914H257.374V390.654C257.374 390.674 257.374 390.674 257.374 390.654C257.954 389.734 259.074 388.954 260.474 388.954C262.974 388.954 264.714 390.974 264.714 394.194C264.714 397.514 262.954 399.474 260.514 399.474ZM257.334 394.214C257.334 396.774 258.434 398.314 260.354 398.314C262.094 398.314 263.334 396.934 263.334 394.214C263.334 391.474 261.934 390.114 260.354 390.114C258.434 390.114 257.334 391.654 257.334 394.214ZM271.158 399.374C268.158 399.374 266.518 397.114 266.518 394.014C266.518 390.994 268.278 388.934 271.038 388.934C273.518 388.934 275.198 390.874 275.238 393.834C275.238 393.974 275.238 394.074 275.218 394.214H267.958C267.958 396.234 268.938 398.214 271.138 398.214C272.398 398.214 273.478 397.474 273.718 395.894H275.118C274.778 398.234 273.158 399.374 271.158 399.374ZM267.998 393.214H273.738C273.678 391.054 272.398 390.114 271.038 390.114C269.338 390.114 268.078 391.334 267.998 393.194V393.214ZM194.944 408.154V406.914H205.204V408.154L196.604 419.914H205.204V421.154H194.944V419.914L203.544 408.154H194.944ZM214.971 421.154H213.651V419.154C212.771 420.834 211.451 421.374 210.131 421.374C208.371 421.374 206.951 420.414 206.951 418.234V411.154H208.291V417.594C208.291 419.194 208.971 420.174 210.551 420.174C212.311 420.174 213.651 418.394 213.651 416.194V411.154H214.971V421.154ZM221.187 425.574C219.207 425.574 217.507 424.414 217.227 422.034H218.607C218.867 423.654 219.947 424.394 221.207 424.394C223.407 424.394 224.427 422.894 224.427 420.494V419.414V418.934C223.807 420.074 222.787 420.834 221.287 420.834C218.787 420.834 216.987 418.894 216.987 415.794C216.987 412.814 218.787 410.874 221.287 410.874C222.867 410.874 223.847 411.514 224.427 412.474V411.154H225.747V420.374C225.747 423.874 224.047 425.574 221.187 425.574ZM218.387 415.814C218.387 418.394 219.647 419.714 221.547 419.714C223.267 419.714 224.467 418.394 224.467 415.834C224.467 413.214 223.447 411.994 221.547 411.994C219.807 411.994 218.387 413.214 218.387 415.814ZM232.221 421.374C229.221 421.374 227.581 419.114 227.581 416.014C227.581 412.994 229.341 410.934 232.101 410.934C234.581 410.934 236.261 412.874 236.301 415.834C236.301 415.974 236.301 416.074 236.281 416.214H229.021C229.021 418.234 230.001 420.214 232.201 420.214C233.461 420.214 234.541 419.474 234.781 417.894H236.181C235.841 420.234 234.221 421.374 232.221 421.374ZM229.061 415.214H234.801C234.741 413.054 233.461 412.114 232.101 412.114C230.401 412.114 229.141 413.334 229.061 415.194V415.214ZM243.333 410.934C245.093 410.934 246.513 411.894 246.513 414.074V421.154H245.173V414.714C245.173 413.114 244.493 412.134 242.913 412.134C241.273 412.134 240.013 413.674 239.833 415.654V421.154H238.513V406.914H239.833V413.114C240.713 411.474 242.013 410.934 243.333 410.934ZM258.709 415.774C258.709 416.667 258.589 417.46 258.349 418.154C258.122 418.834 257.789 419.414 257.349 419.894C256.922 420.374 256.396 420.74 255.769 420.994C255.156 421.234 254.469 421.354 253.709 421.354C253.002 421.354 252.349 421.234 251.749 420.994C251.149 420.74 250.629 420.374 250.189 419.894C249.749 419.414 249.402 418.834 249.149 418.154C248.909 417.46 248.789 416.667 248.789 415.774C248.789 414.587 248.989 413.587 249.389 412.774C249.789 411.947 250.362 411.32 251.109 410.894C251.856 410.454 252.742 410.234 253.769 410.234C254.742 410.234 255.596 410.454 256.329 410.894C257.076 411.32 257.656 411.947 258.069 412.774C258.496 413.587 258.709 414.587 258.709 415.774ZM250.609 415.774C250.609 416.614 250.716 417.347 250.929 417.974C251.156 418.587 251.502 419.06 251.969 419.394C252.436 419.727 253.029 419.894 253.749 419.894C254.469 419.894 255.062 419.727 255.529 419.394C255.996 419.06 256.336 418.587 256.549 417.974C256.776 417.347 256.889 416.614 256.889 415.774C256.889 414.92 256.776 414.194 256.549 413.594C256.322 412.994 255.976 412.534 255.509 412.214C255.056 411.88 254.462 411.714 253.729 411.714C252.636 411.714 251.842 412.074 251.349 412.794C250.856 413.514 250.609 414.507 250.609 415.774ZM250.949 407.534C250.949 407.187 251.042 406.94 251.229 406.794C251.416 406.634 251.636 406.554 251.889 406.554C252.142 406.554 252.362 406.634 252.549 406.794C252.736 406.94 252.829 407.187 252.829 407.534C252.829 407.867 252.736 408.12 252.549 408.294C252.362 408.454 252.142 408.534 251.889 408.534C251.636 408.534 251.416 408.454 251.229 408.294C251.042 408.12 250.949 407.867 250.949 407.534ZM254.709 407.534C254.709 407.187 254.796 406.94 254.969 406.794C255.156 406.634 255.376 406.554 255.629 406.554C255.882 406.554 256.102 406.634 256.289 406.794C256.476 406.94 256.569 407.187 256.569 407.534C256.569 407.867 256.476 408.12 256.289 408.294C256.102 408.454 255.882 408.534 255.629 408.534C255.376 408.534 255.156 408.454 254.969 408.294C254.796 408.12 254.709 407.867 254.709 407.534ZM261.178 421.154V411.154H262.498V413.074C263.018 411.814 263.718 411.274 264.638 411.014C265.018 410.914 265.378 410.874 265.798 410.874V412.214C265.558 412.214 265.298 412.214 265.078 412.254C263.298 412.574 262.498 414.314 262.498 416.094V421.154H261.178ZM267.789 411.154H269.129V421.154H267.789V411.154ZM267.489 407.994C267.489 407.474 267.949 407.034 268.469 407.034C268.989 407.034 269.429 407.474 269.429 407.994C269.429 408.514 268.989 408.974 268.469 408.974C267.949 408.974 267.489 408.514 267.489 407.994ZM275.551 425.574C273.571 425.574 271.871 424.414 271.591 422.034H272.971C273.231 423.654 274.311 424.394 275.571 424.394C277.771 424.394 278.791 422.894 278.791 420.494V419.414V418.934C278.171 420.074 277.151 420.834 275.651 420.834C273.151 420.834 271.351 418.894 271.351 415.794C271.351 412.814 273.151 410.874 275.651 410.874C277.231 410.874 278.211 411.514 278.791 412.474V411.154H280.111V420.374C280.111 423.874 278.411 425.574 275.551 425.574ZM272.751 415.814C272.751 418.394 274.011 419.714 275.911 419.714C277.631 419.714 278.831 418.394 278.831 415.834C278.831 413.214 277.811 411.994 275.911 411.994C274.171 411.994 272.751 413.214 272.751 415.814ZM288.105 411.154H289.845L285.945 414.934L290.325 421.154H288.805L285.085 415.774L283.665 417.134V421.154H282.345V406.914H283.665V415.534L288.105 411.154ZM296.004 421.374C293.004 421.374 291.364 419.114 291.364 416.014C291.364 412.994 293.124 410.934 295.884 410.934C298.364 410.934 300.044 412.874 300.084 415.834C300.084 415.974 300.084 416.074 300.064 416.214H292.804C292.804 418.234 293.784 420.214 295.984 420.214C297.244 420.214 298.324 419.474 298.564 417.894H299.964C299.624 420.234 298.004 421.374 296.004 421.374ZM292.844 415.214H298.584C298.524 413.054 297.244 412.114 295.884 412.114C294.184 412.114 292.924 413.334 292.844 415.194V415.214ZM302.476 411.154H303.816V421.154H302.476V411.154ZM302.176 407.994C302.176 407.474 302.636 407.034 303.156 407.034C303.676 407.034 304.116 407.474 304.116 407.994C304.116 408.514 303.676 408.974 303.156 408.974C302.636 408.974 302.176 408.514 302.176 407.994ZM310.838 421.154C309.738 421.574 308.638 421.394 307.978 420.794C307.418 420.274 307.158 419.514 307.158 418.774V412.274H305.718V411.154H307.158V407.834L308.418 406.794H308.498V411.154H310.578V412.274H308.498V418.394C308.498 419.934 309.438 420.474 310.838 419.934V421.154Z" fill="white"/>
<path d="M331.804 441.488H333.324C333.324 443.788 334.804 444.828 337.224 444.828C339.424 444.828 340.944 443.888 340.944 442.188C340.944 440.708 339.904 439.868 337.944 439.408L335.644 438.828C333.224 438.228 332.084 437.088 332.084 435.228C332.084 432.988 333.824 431.408 337.004 431.408C339.984 431.408 341.884 432.688 341.924 435.548H340.464C340.464 433.828 339.524 432.648 336.884 432.648C334.824 432.648 333.524 433.728 333.524 435.088C333.524 436.548 334.704 437.188 336.784 437.668L338.724 438.148C341.064 438.728 342.384 439.908 342.384 442.068C342.384 444.728 340.124 446.088 337.224 446.088C334.224 446.088 331.804 444.868 331.804 441.488ZM344.772 435.868H346.112V445.868H344.772V435.868ZM344.472 432.708C344.472 432.188 344.932 431.748 345.452 431.748C345.972 431.748 346.412 432.188 346.412 432.708C346.412 433.228 345.972 433.688 345.452 433.688C344.932 433.688 344.472 433.228 344.472 432.708ZM348.873 435.868H350.193V437.868C351.073 436.188 352.393 435.648 353.713 435.648C355.473 435.648 356.893 436.608 356.893 438.788V445.868H355.553V439.428C355.553 437.828 354.873 436.848 353.293 436.848C351.533 436.848 350.193 438.628 350.193 440.828V445.868H348.873V435.868ZM359.249 435.868H360.569V437.868C361.449 436.188 362.769 435.648 364.089 435.648C365.849 435.648 367.269 436.608 367.269 438.788V445.868H365.929V439.428C365.929 437.828 365.249 436.848 363.669 436.848C361.909 436.848 360.569 438.628 360.569 440.828V445.868H359.249V435.868ZM305.21 467.868V453.628H311.07C313.35 453.628 314.89 454.868 314.89 457.168C314.89 459.128 313.69 460.308 312.49 460.468C313.99 460.628 315.25 461.788 315.25 463.888C315.25 466.868 313.47 467.868 311.23 467.868H305.21ZM306.61 466.628H311.05C312.81 466.628 313.79 465.788 313.79 463.808C313.79 462.148 312.79 461.068 310.89 461.068H306.61V466.628ZM306.61 459.908H311.05C312.47 459.908 313.47 459.148 313.47 457.348C313.47 455.848 312.61 454.868 310.87 454.868H306.61V459.908ZM321.808 468.088C318.808 468.088 317.168 465.828 317.168 462.728C317.168 459.708 318.928 457.648 321.688 457.648C324.168 457.648 325.848 459.588 325.888 462.548C325.888 462.688 325.888 462.788 325.868 462.928H318.608C318.608 464.948 319.588 466.928 321.788 466.928C323.048 466.928 324.128 466.188 324.368 464.608H325.768C325.428 466.948 323.808 468.088 321.808 468.088ZM318.648 461.928H324.388C324.328 459.768 323.048 458.828 321.688 458.828C319.988 458.828 318.728 460.048 318.648 461.908V461.928ZM331.92 468.188C329.48 468.188 327.7 466.228 327.7 462.908C327.7 459.688 329.44 457.668 331.96 457.668C333.28 457.668 334.42 458.388 335.04 459.368V453.628H336.36V467.868H335.06V466.508C334.34 467.528 333.18 468.188 331.92 468.188ZM329.08 462.928C329.08 465.648 330.32 467.028 332.06 467.028C333.98 467.028 335.1 465.488 335.1 462.928C335.1 460.368 333.98 458.828 332.06 458.828C330.5 458.828 329.08 460.188 329.08 462.928ZM343.204 468.088C340.204 468.088 338.564 465.828 338.564 462.728C338.564 459.708 340.324 457.648 343.084 457.648C345.564 457.648 347.244 459.588 347.284 462.548C347.284 462.688 347.284 462.788 347.264 462.928H340.004C340.004 464.948 340.984 466.928 343.184 466.928C344.444 466.928 345.524 466.188 345.764 464.608H347.164C346.824 466.948 345.204 468.088 343.204 468.088ZM340.044 461.928H345.784C345.724 459.768 344.444 458.828 343.084 458.828C341.384 458.828 340.124 460.048 340.044 461.908V461.928ZM357.296 467.868H355.976V465.868C355.096 467.548 353.776 468.088 352.456 468.088C350.696 468.088 349.276 467.128 349.276 464.948V457.868H350.616V464.308C350.616 465.908 351.296 466.888 352.876 466.888C354.636 466.888 355.976 465.108 355.976 462.908V457.868H357.296V467.868ZM364.112 467.868C363.012 468.288 361.912 468.108 361.252 467.508C360.692 466.988 360.432 466.228 360.432 465.488V458.988H358.992V457.868H360.432V454.548L361.692 453.508H361.772V457.868H363.852V458.988H361.772V465.108C361.772 466.648 362.712 467.188 364.112 466.648V467.868ZM373.653 467.868H372.333V465.868C371.453 467.548 370.133 468.088 368.813 468.088C367.053 468.088 365.633 467.128 365.633 464.948V457.868H366.973V464.308C366.973 465.908 367.653 466.888 369.233 466.888C370.993 466.888 372.333 465.108 372.333 462.908V457.868H373.653V467.868ZM376.209 457.868H377.529V459.868C378.409 458.188 379.729 457.648 381.049 457.648C382.809 457.648 384.229 458.608 384.229 460.788V467.868H382.889V461.428C382.889 459.828 382.209 458.848 380.629 458.848C378.869 458.848 377.529 460.628 377.529 462.828V467.868H376.209V457.868ZM390.245 472.288C388.265 472.288 386.565 471.128 386.285 468.748H387.665C387.925 470.368 389.005 471.108 390.265 471.108C392.465 471.108 393.485 469.608 393.485 467.208V466.128V465.648C392.865 466.788 391.845 467.548 390.345 467.548C387.845 467.548 386.045 465.608 386.045 462.508C386.045 459.528 387.845 457.588 390.345 457.588C391.925 457.588 392.905 458.228 393.485 459.188V457.868H394.805V467.088C394.805 470.588 393.105 472.288 390.245 472.288ZM387.445 462.528C387.445 465.108 388.705 466.428 390.605 466.428C392.325 466.428 393.525 465.108 393.525 462.548C393.525 459.928 392.505 458.708 390.605 458.708C388.865 458.708 387.445 459.928 387.445 462.528Z" fill="#80BA9E"/>
<path d="M297.932 154.019C297.553 154.019 297.245 153.904 297.008 153.675C296.779 153.446 296.568 153.055 296.375 152.504L291.53 139.012H289.07V137.476H296.772V139.012H294.506L298.416 150.495L302.208 139.012H299.361V137.476H306.644V139.012H304.034L299.404 152.504C299.268 152.891 299.135 153.191 299.007 153.406C298.885 153.621 298.738 153.775 298.566 153.868C298.401 153.968 298.19 154.019 297.932 154.019ZM310.383 153.933C309.523 153.933 308.732 153.771 308.008 153.449C307.285 153.12 306.687 152.669 306.215 152.096C305.749 151.537 305.391 150.907 305.14 150.205C304.897 149.503 304.775 148.776 304.775 148.024C304.775 147.373 304.85 146.743 305.001 146.134C305.158 145.525 305.387 144.963 305.688 144.447C306.347 143.323 307.228 142.553 308.331 142.138C308.911 141.916 309.552 141.805 310.254 141.805C310.984 141.805 311.664 141.934 312.295 142.191C312.925 142.449 313.476 142.822 313.949 143.309C314.429 143.81 314.805 144.44 315.077 145.199C315.356 145.958 315.503 146.8 315.517 147.724H307.235V147.81C307.235 149.056 307.5 150.105 308.03 150.957C308.295 151.387 308.649 151.723 309.093 151.967C309.537 152.203 310.042 152.321 310.608 152.321C311.109 152.321 311.593 152.217 312.058 152.01C312.531 151.795 312.939 151.487 313.283 151.086C313.634 150.678 313.884 150.201 314.035 149.657L315.292 150.055C315.105 150.842 314.787 151.53 314.336 152.117C313.884 152.697 313.322 153.145 312.649 153.46C311.976 153.775 311.22 153.933 310.383 153.933ZM313.154 146.563C313.14 145.883 313.004 145.282 312.746 144.759C312.495 144.229 312.155 143.817 311.725 143.523C311.303 143.23 310.834 143.083 310.318 143.083C309.795 143.083 309.315 143.23 308.879 143.523C308.442 143.817 308.084 144.229 307.804 144.759C307.532 145.282 307.368 145.883 307.31 146.563H313.154ZM316.452 152.439H318.547V143.319H316.452V142.116L320.523 141.934L320.813 144.447C320.992 143.839 321.318 143.266 321.791 142.729C322.041 142.442 322.349 142.216 322.715 142.052C323.087 141.887 323.484 141.805 323.907 141.805C324.301 141.805 324.659 141.88 324.981 142.03C325.303 142.174 325.558 142.385 325.744 142.664C325.937 142.943 326.034 143.273 326.034 143.652C326.034 144.01 325.959 144.326 325.808 144.598C325.665 144.863 325.468 145.067 325.217 145.21C324.967 145.346 324.691 145.414 324.39 145.414C323.968 145.414 323.606 145.282 323.305 145.017C323.012 144.752 322.865 144.408 322.865 143.985C322.865 143.849 322.897 143.702 322.962 143.545C323.033 143.387 323.108 143.258 323.187 143.158L323.305 143.04C322.883 143.04 322.507 143.173 322.177 143.438C321.848 143.695 321.59 144.053 321.404 144.512C321.039 145.4 320.856 146.384 320.856 147.466V152.439H323.273V153.643H316.452V152.439ZM326.657 152.439H328.633V138.797H326.528V137.476H330.943V144.157C331.208 143.62 331.559 143.165 331.996 142.793C332.433 142.421 332.887 142.159 333.36 142.009C333.79 141.873 334.241 141.805 334.714 141.805C335.057 141.805 335.358 141.83 335.616 141.88C335.881 141.93 336.174 142.03 336.497 142.181C336.862 142.36 337.163 142.589 337.399 142.868C337.643 143.147 337.847 143.538 338.011 144.039C338.183 144.562 338.269 145.174 338.269 145.876V152.439H340.579V153.643H333.876V152.439H335.96V145.79C335.96 144.981 335.806 144.368 335.498 143.953C335.197 143.531 334.782 143.319 334.252 143.319C333.894 143.319 333.518 143.42 333.124 143.62C332.737 143.821 332.379 144.093 332.049 144.437C331.713 144.795 331.444 145.221 331.244 145.715C331.043 146.202 330.943 146.703 330.943 147.219V152.439H333.038V153.643H326.657V152.439ZM344.22 153.933C343.633 153.933 343.114 153.829 342.663 153.621C342.212 153.406 341.861 153.098 341.61 152.697C341.359 152.296 341.234 151.827 341.234 151.29C341.234 150.868 341.327 150.481 341.513 150.13C341.707 149.772 341.968 149.471 342.298 149.228C342.613 148.991 342.971 148.766 343.372 148.551C343.78 148.336 344.195 148.15 344.618 147.992C345.477 147.684 346.251 147.33 346.938 146.929C347.268 146.735 347.525 146.503 347.712 146.23C347.898 145.958 347.991 145.665 347.991 145.35C347.991 144.548 347.794 143.946 347.4 143.545C347.006 143.137 346.44 142.933 345.703 142.933C345.187 142.933 344.7 143.015 344.242 143.18C343.791 143.337 343.44 143.556 343.189 143.835C343.633 143.835 343.991 143.957 344.263 144.2C344.543 144.437 344.682 144.73 344.682 145.081C344.682 145.375 344.614 145.64 344.478 145.876C344.349 146.105 344.17 146.284 343.941 146.413C343.712 146.542 343.461 146.606 343.189 146.606C342.745 146.606 342.369 146.452 342.061 146.145C341.76 145.837 341.61 145.41 341.61 144.866C341.61 144.573 341.707 144.257 341.9 143.921C342.093 143.577 342.366 143.244 342.716 142.922C343.082 142.585 343.569 142.317 344.177 142.116C344.793 141.909 345.456 141.805 346.165 141.805C346.759 141.805 347.296 141.873 347.776 142.009C348.256 142.138 348.689 142.345 349.076 142.632C349.47 142.925 349.771 143.33 349.978 143.846C350.193 144.361 350.3 144.966 350.3 145.661V150.603C350.3 150.91 350.336 151.19 350.408 151.44C350.487 151.684 350.619 151.902 350.805 152.096C351.013 152.303 351.267 152.407 351.568 152.407C352.478 152.407 352.932 151.77 352.932 150.495V148.895H354.103V150.28C354.103 150.989 354.028 151.594 353.878 152.096C353.727 152.59 353.509 152.966 353.222 153.224C352.943 153.474 352.635 153.653 352.299 153.761C351.962 153.875 351.564 153.933 351.106 153.933C350.612 153.933 350.157 153.836 349.742 153.643C349.334 153.449 348.986 153.152 348.7 152.751C348.392 152.328 348.213 151.827 348.163 151.247C347.962 151.763 347.658 152.225 347.25 152.633C346.849 153.041 346.383 153.36 345.853 153.589C345.323 153.818 344.779 153.933 344.22 153.933ZM344.779 152.386C345.244 152.386 345.731 152.246 346.24 151.967C346.748 151.688 347.167 151.329 347.497 150.893C347.826 150.47 347.991 150.058 347.991 149.657V147.369C347.583 147.777 347.089 148.16 346.508 148.519C345.936 148.877 345.413 149.163 344.94 149.378C344.518 149.564 344.174 149.811 343.909 150.119C343.651 150.42 343.522 150.774 343.522 151.183C343.522 151.548 343.63 151.841 343.844 152.063C344.066 152.278 344.378 152.386 344.779 152.386ZM354.415 153.643V152.439H356.81V138.797H354.415V137.476H359.12V152.439H361.429V153.643H354.415ZM367.08 153.933C366.156 153.933 365.365 153.66 364.706 153.116C364.362 152.837 364.09 152.468 363.889 152.01C363.696 151.551 363.599 151.039 363.599 150.474V143.319H361.408V142.814C361.938 142.657 362.428 142.37 362.88 141.955C363.331 141.54 363.7 141.071 363.986 140.548C364.251 140.075 364.487 139.595 364.695 139.108C364.96 138.5 365.139 138.109 365.232 137.938C365.383 137.63 365.515 137.476 365.63 137.476C365.716 137.476 365.784 137.508 365.834 137.572C365.884 137.637 365.909 137.73 365.909 137.852V142.116H370.141V143.341H365.909V150.538C365.909 151.154 366.049 151.623 366.328 151.945C366.607 152.268 366.99 152.429 367.477 152.429C368.072 152.429 368.508 152.235 368.788 151.849C369.074 151.455 369.217 150.799 369.217 149.883V148.336H370.507V149.657C370.507 150.631 370.396 151.43 370.174 152.053C369.952 152.676 369.59 153.145 369.089 153.46C368.587 153.775 367.918 153.933 367.08 153.933ZM377.607 153.933C376.748 153.933 375.956 153.771 375.233 153.449C374.51 153.12 373.912 152.669 373.439 152.096C372.974 151.537 372.616 150.907 372.365 150.205C372.121 149.503 372 148.776 372 148.024C372 147.373 372.075 146.743 372.225 146.134C372.383 145.525 372.612 144.963 372.913 144.447C373.572 143.323 374.452 142.553 375.555 142.138C376.135 141.916 376.776 141.805 377.478 141.805C378.209 141.805 378.889 141.934 379.519 142.191C380.149 142.449 380.701 142.822 381.174 143.309C381.653 143.81 382.029 144.44 382.301 145.199C382.581 145.958 382.728 146.8 382.742 147.724H374.46V147.81C374.46 149.056 374.725 150.105 375.255 150.957C375.52 151.387 375.874 151.723 376.318 151.967C376.762 152.203 377.267 152.321 377.833 152.321C378.334 152.321 378.817 152.217 379.283 152.01C379.756 151.795 380.164 151.487 380.508 151.086C380.858 150.678 381.109 150.201 381.259 149.657L382.516 150.055C382.33 150.842 382.011 151.53 381.56 152.117C381.109 152.697 380.547 153.145 379.874 153.46C379.201 153.775 378.445 153.933 377.607 153.933ZM380.379 146.563C380.364 145.883 380.228 145.282 379.97 144.759C379.72 144.229 379.38 143.817 378.95 143.523C378.527 143.23 378.058 143.083 377.543 143.083C377.02 143.083 376.54 143.23 376.103 143.523C375.666 143.817 375.308 144.229 375.029 144.759C374.757 145.282 374.592 145.883 374.535 146.563H380.379ZM384.085 152.439H386.179V143.319H384.085V142.116L388.156 141.934L388.424 144.275C388.647 143.76 388.962 143.316 389.37 142.943C389.778 142.571 390.233 142.288 390.734 142.095C391.235 141.901 391.74 141.805 392.249 141.805C392.492 141.805 392.707 141.815 392.893 141.837C393.087 141.858 393.298 141.905 393.527 141.977C393.785 142.055 394.01 142.156 394.204 142.277C394.404 142.399 394.608 142.564 394.816 142.771C395.031 142.993 395.206 143.248 395.342 143.534C395.479 143.813 395.593 144.161 395.686 144.576C395.772 144.992 395.815 145.461 395.815 145.983V152.439H398.017V153.643H391.54V152.439H393.506V146.005C393.506 145.095 393.327 144.415 392.968 143.964C392.61 143.506 392.105 143.276 391.454 143.276C391.053 143.276 390.68 143.352 390.337 143.502C390 143.652 389.717 143.86 389.488 144.125C389.266 144.383 389.076 144.691 388.919 145.049C388.768 145.4 388.661 145.769 388.596 146.155C388.525 146.513 388.489 146.911 388.489 147.348V152.439H390.444V153.643H384.085V152.439Z" fill="black"/>
<path d="M581.967 247.348L581.987 261.588H580.607L580.587 247.348H581.967ZM584.976 251.588H586.296V253.588C587.176 251.908 588.496 251.368 589.816 251.368C591.576 251.368 592.996 252.328 592.996 254.508V261.588H591.656V255.148C591.656 253.548 590.976 252.568 589.396 252.568C587.636 252.568 586.296 254.348 586.296 256.548V261.588H584.976V251.588ZM595.352 251.588H596.672V253.588C597.552 251.908 598.872 251.368 600.192 251.368C601.952 251.368 603.372 252.328 603.372 254.508V261.588H602.032V255.148C602.032 253.548 601.352 252.568 599.772 252.568C598.012 252.568 596.672 254.348 596.672 256.548V261.588H595.352V251.588ZM609.988 261.808C606.988 261.808 605.348 259.548 605.348 256.448C605.348 253.428 607.108 251.368 609.868 251.368C612.348 251.368 614.028 253.308 614.068 256.268C614.068 256.408 614.068 256.508 614.048 256.648H606.788C606.788 258.668 607.768 260.648 609.968 260.648C611.228 260.648 612.308 259.908 612.548 258.328H613.948C613.608 260.668 611.988 261.808 609.988 261.808ZM606.828 255.648H612.568C612.508 253.488 611.228 252.548 609.868 252.548C608.168 252.548 606.908 253.768 606.828 255.628V255.648ZM616.26 261.588V251.588H617.58V253.508C618.1 252.248 618.8 251.708 619.72 251.448C620.1 251.348 620.46 251.308 620.88 251.308V252.648C620.64 252.648 620.38 252.648 620.16 252.688C618.38 253.008 617.58 254.748 617.58 256.528V261.588H616.26ZM626.931 261.808C623.931 261.808 622.291 259.548 622.291 256.448C622.291 253.428 624.051 251.368 626.811 251.368C629.291 251.368 630.971 253.308 631.011 256.268C631.011 256.408 631.011 256.508 630.991 256.648H623.731C623.731 258.668 624.711 260.648 626.911 260.648C628.171 260.648 629.251 259.908 629.491 258.328H630.891C630.551 260.668 628.931 261.808 626.931 261.808ZM623.771 255.648H629.511C629.451 253.488 628.171 252.548 626.811 252.548C625.111 252.548 623.851 253.768 623.771 255.628V255.648ZM580.587 269.348H581.987V275.568H589.247V269.348H590.627V283.588H589.247V276.828H581.987V283.588H580.587V269.348ZM596.209 283.808C594.709 283.808 593.269 282.948 593.269 281.088C593.269 279.308 594.649 278.288 596.409 277.888L599.989 277.088V276.708C599.989 275.388 598.989 274.468 597.269 274.468C595.949 274.468 594.789 275.068 594.709 276.868H593.369C593.449 274.428 595.269 273.368 597.269 273.368C599.909 273.368 601.329 274.768 601.329 276.888V280.828C601.329 282.088 601.349 283.008 601.489 283.548V283.588H600.169C600.049 283.108 600.029 282.368 600.009 281.788V280.988C600.009 280.988 600.009 281.008 599.989 281.008C599.349 282.608 598.129 283.808 596.209 283.808ZM594.729 281.048C594.729 282.128 595.569 282.728 596.549 282.728C598.429 282.728 600.009 280.948 600.009 278.388V278.088L596.809 278.888C595.369 279.248 594.729 280.028 594.729 281.048ZM603.849 269.348H605.169V283.588H603.849V269.348ZM612 283.588C610.9 284.008 609.8 283.828 609.14 283.228C608.58 282.708 608.32 281.948 608.32 281.208V274.708H606.88V273.588H608.32V270.268L609.58 269.228H609.66V273.588H611.74V274.708H609.66V280.828C609.66 282.368 610.6 282.908 612 282.368V283.588ZM621.541 283.588H620.221V281.588C619.341 283.268 618.021 283.808 616.701 283.808C614.941 283.808 613.521 282.848 613.521 280.668V273.588H614.861V280.028C614.861 281.628 615.541 282.608 617.121 282.608C618.881 282.608 620.221 280.828 620.221 278.628V273.588H621.541V283.588ZM624.097 273.588H625.417V275.588C626.297 273.908 627.617 273.368 628.937 273.368C630.697 273.368 632.117 274.328 632.117 276.508V283.588H630.777V277.148C630.777 275.548 630.097 274.568 628.517 274.568C626.757 274.568 625.417 276.348 625.417 278.548V283.588H624.097V273.588ZM638.132 288.008C636.152 288.008 634.452 286.848 634.172 284.468H635.552C635.812 286.088 636.892 286.828 638.152 286.828C640.352 286.828 641.372 285.328 641.372 282.928V281.848V281.368C640.752 282.508 639.732 283.268 638.232 283.268C635.732 283.268 633.932 281.328 633.932 278.228C633.932 275.248 635.732 273.308 638.232 273.308C639.812 273.308 640.792 273.948 641.372 274.908V273.588H642.692V282.808C642.692 286.308 640.992 288.008 638.132 288.008ZM635.332 278.248C635.332 280.828 636.592 282.148 638.492 282.148C640.212 282.148 641.412 280.828 641.412 278.268C641.412 275.648 640.392 274.428 638.492 274.428C636.752 274.428 635.332 275.648 635.332 278.248Z" fill="white"/>
<path d="M551 324.245H561.187V263.123M551 202H561.187V263.123M561.187 263.123H565.987" stroke="#B4B4B4"/>
</svg>
