<svg width="529" height="385" viewBox="0 0 529 385" fill="none" xmlns="http://www.w3.org/2000/svg">
<g clip-path="url(#clip0_1363_459)">
<rect x="200.549" y="225.351" width="159" height="159" rx="79.5" fill="white"/>
<rect x="200.549" y="225.351" width="159" height="159" rx="79.5" stroke="white"/>
<path d="M216.702 313.641C215.728 313.641 214.819 313.487 213.974 313.179C213.129 312.864 212.402 312.43 211.793 311.879C211.206 311.342 210.701 310.715 210.279 309.999C209.863 309.276 209.559 308.513 209.365 307.711C209.165 306.916 209.065 306.096 209.065 305.251C209.065 303.504 209.469 301.924 210.279 300.514C210.708 299.769 211.22 299.132 211.815 298.602C212.416 298.064 213.125 297.638 213.942 297.323C214.801 297.008 215.721 296.851 216.702 296.851C217.676 296.851 218.586 297.008 219.431 297.323C220.283 297.638 221.01 298.072 221.612 298.623C222.199 299.16 222.7 299.79 223.115 300.514C223.531 301.23 223.839 301.989 224.039 302.791C224.233 303.593 224.329 304.413 224.329 305.251C224.329 306.998 223.925 308.577 223.115 309.988C222.686 310.733 222.174 311.37 221.579 311.9C220.985 312.43 220.28 312.849 219.463 313.157C218.618 313.479 217.698 313.641 216.702 313.641ZM216.702 312.137C217.454 312.137 218.145 311.947 218.776 311.567C219.413 311.181 219.936 310.654 220.344 309.988C220.745 309.344 221.049 308.617 221.257 307.808C221.472 306.991 221.579 306.146 221.579 305.272C221.579 304.571 221.511 303.887 221.375 303.221C221.246 302.555 221.046 301.935 220.774 301.362C220.179 300.102 219.395 299.228 218.421 298.741C217.898 298.483 217.325 298.354 216.702 298.354C215.95 298.354 215.259 298.548 214.629 298.935C213.999 299.314 213.476 299.837 213.061 300.503C212.66 301.155 212.352 301.889 212.137 302.705C211.922 303.514 211.815 304.356 211.815 305.229C211.815 306.712 212.087 308.022 212.631 309.161C212.918 309.777 213.251 310.303 213.63 310.74C214.017 311.17 214.468 311.507 214.984 311.75C215.514 312.008 216.087 312.137 216.702 312.137ZM225.769 312.147H227.864V303.027H225.769V301.824L229.84 301.642L230.13 304.155C230.309 303.547 230.635 302.974 231.108 302.437C231.358 302.15 231.666 301.924 232.031 301.76C232.404 301.595 232.801 301.513 233.224 301.513C233.618 301.513 233.976 301.588 234.298 301.738C234.62 301.882 234.875 302.093 235.061 302.372C235.254 302.651 235.351 302.981 235.351 303.36C235.351 303.718 235.276 304.034 235.125 304.306C234.982 304.571 234.785 304.775 234.534 304.918C234.284 305.054 234.008 305.122 233.707 305.122C233.285 305.122 232.923 304.99 232.622 304.725C232.329 304.46 232.182 304.116 232.182 303.693C232.182 303.557 232.214 303.41 232.279 303.253C232.35 303.095 232.425 302.966 232.504 302.866L232.622 302.748C232.2 302.748 231.824 302.881 231.494 303.146C231.165 303.403 230.907 303.761 230.721 304.22C230.356 305.108 230.173 306.092 230.173 307.174V312.147H232.59V313.351H225.769V312.147ZM241.323 319.098C239.777 319.098 238.634 318.725 237.897 317.98C237.496 317.579 237.295 317.092 237.295 316.52C237.295 315.99 237.463 315.578 237.8 315.284C238.144 314.991 238.577 314.844 239.1 314.844C239.365 314.844 239.608 314.908 239.83 315.037C240.052 315.166 240.228 315.345 240.357 315.574C240.486 315.803 240.55 316.061 240.55 316.348C240.55 316.62 240.453 316.896 240.26 317.175C240.074 317.461 239.87 317.647 239.648 317.733C240.099 317.891 240.539 317.97 240.969 317.97C242.072 317.97 242.903 317.547 243.461 316.702C244.027 315.857 244.31 314.658 244.31 313.104V311.191C244.152 311.65 243.905 312.065 243.569 312.438C243.239 312.81 242.845 313.104 242.387 313.318C241.936 313.533 241.456 313.641 240.948 313.641C240.353 313.641 239.798 313.533 239.282 313.318C238.767 313.096 238.326 312.788 237.961 312.395C237.596 312.015 237.284 311.571 237.027 311.062C236.776 310.554 236.59 310.006 236.468 309.419C236.346 308.825 236.285 308.23 236.285 307.636C236.285 306.855 236.386 306.107 236.586 305.391C236.787 304.667 237.08 304.016 237.467 303.436C237.861 302.841 238.366 302.372 238.982 302.028C239.598 301.685 240.274 301.513 241.012 301.513C241.449 301.513 241.893 301.613 242.344 301.813C242.802 302.007 243.207 302.283 243.558 302.641C243.909 302.999 244.159 303.414 244.31 303.887L244.578 301.824H248.166V303.103H246.619V312.803C246.619 314.199 246.369 315.402 245.867 316.412C245.588 316.971 245.244 317.443 244.836 317.83C244.435 318.217 243.941 318.521 243.354 318.743C242.738 318.979 242.061 319.098 241.323 319.098ZM241.409 312.276C242.025 312.276 242.566 312.062 243.031 311.632C243.504 311.202 243.851 310.647 244.073 309.967C244.281 309.301 244.385 308.595 244.385 307.851C244.385 306.884 244.263 306.032 244.02 305.294C243.776 304.549 243.433 303.973 242.989 303.564C242.545 303.149 242.032 302.941 241.452 302.941C240.887 302.941 240.382 303.156 239.938 303.586C239.494 304.008 239.164 304.563 238.949 305.251C238.742 305.931 238.638 306.658 238.638 307.432C238.638 308.706 238.838 309.802 239.24 310.719C239.454 311.206 239.748 311.589 240.12 311.868C240.493 312.14 240.922 312.276 241.409 312.276ZM252.098 313.641C251.511 313.641 250.991 313.537 250.54 313.329C250.089 313.114 249.738 312.806 249.488 312.405C249.237 312.004 249.112 311.535 249.112 310.998C249.112 310.576 249.205 310.189 249.391 309.838C249.584 309.48 249.846 309.179 250.175 308.936C250.49 308.699 250.848 308.474 251.249 308.259C251.657 308.044 252.073 307.858 252.495 307.7C253.355 307.392 254.128 307.038 254.816 306.637C255.145 306.443 255.403 306.211 255.589 305.938C255.775 305.666 255.868 305.373 255.868 305.058C255.868 304.256 255.671 303.654 255.278 303.253C254.884 302.845 254.318 302.641 253.58 302.641C253.065 302.641 252.578 302.723 252.119 302.888C251.668 303.045 251.317 303.264 251.067 303.543C251.511 303.543 251.869 303.665 252.141 303.908C252.42 304.145 252.56 304.438 252.56 304.789C252.56 305.083 252.492 305.348 252.356 305.584C252.227 305.813 252.048 305.992 251.819 306.121C251.589 306.25 251.339 306.314 251.067 306.314C250.623 306.314 250.247 306.16 249.939 305.853C249.638 305.545 249.488 305.118 249.488 304.574C249.488 304.281 249.584 303.965 249.778 303.629C249.971 303.285 250.243 302.952 250.594 302.63C250.959 302.293 251.446 302.025 252.055 301.824C252.671 301.617 253.333 301.513 254.042 301.513C254.637 301.513 255.174 301.581 255.654 301.717C256.133 301.846 256.567 302.053 256.953 302.34C257.347 302.633 257.648 303.038 257.856 303.554C258.071 304.069 258.178 304.674 258.178 305.369V310.311C258.178 310.618 258.214 310.898 258.285 311.148C258.364 311.392 258.497 311.61 258.683 311.804C258.891 312.011 259.145 312.115 259.446 312.115C260.355 312.115 260.81 311.478 260.81 310.203V308.603H261.981V309.988C261.981 310.697 261.906 311.302 261.755 311.804C261.605 312.298 261.386 312.674 261.1 312.932C260.821 313.182 260.513 313.361 260.176 313.469C259.839 313.583 259.442 313.641 258.984 313.641C258.49 313.641 258.035 313.544 257.619 313.351C257.211 313.157 256.864 312.86 256.577 312.459C256.269 312.036 256.09 311.535 256.04 310.955C255.84 311.471 255.535 311.933 255.127 312.341C254.726 312.749 254.261 313.068 253.731 313.297C253.201 313.526 252.656 313.641 252.098 313.641ZM252.656 312.094C253.122 312.094 253.609 311.954 254.117 311.675C254.626 311.396 255.045 311.037 255.374 310.601C255.704 310.178 255.868 309.766 255.868 309.365V307.077C255.46 307.485 254.966 307.868 254.386 308.227C253.813 308.585 253.29 308.871 252.818 309.086C252.395 309.272 252.051 309.519 251.786 309.827C251.529 310.128 251.4 310.482 251.4 310.891C251.4 311.256 251.507 311.549 251.722 311.771C251.944 311.986 252.255 312.094 252.656 312.094ZM262.421 312.147H264.516V303.027H262.421V301.824L266.492 301.642L266.761 303.983C266.983 303.468 267.298 303.024 267.706 302.651C268.115 302.279 268.569 301.996 269.071 301.803C269.572 301.609 270.077 301.513 270.585 301.513C270.829 301.513 271.044 301.523 271.23 301.545C271.423 301.566 271.634 301.613 271.864 301.685C272.121 301.763 272.347 301.864 272.54 301.985C272.741 302.107 272.945 302.272 273.153 302.479C273.367 302.701 273.543 302.956 273.679 303.242C273.815 303.521 273.93 303.869 274.023 304.284C274.109 304.7 274.152 305.169 274.152 305.691V312.147H276.354V313.351H269.876V312.147H271.842V305.713C271.842 304.803 271.663 304.123 271.305 303.672C270.947 303.214 270.442 302.984 269.79 302.984C269.389 302.984 269.017 303.06 268.673 303.21C268.337 303.36 268.054 303.568 267.824 303.833C267.602 304.091 267.413 304.399 267.255 304.757C267.105 305.108 266.997 305.477 266.933 305.863C266.861 306.221 266.825 306.619 266.825 307.056V312.147H268.781V313.351H262.421V312.147ZM280.114 299.794C279.827 299.794 279.562 299.722 279.319 299.579C279.075 299.436 278.882 299.243 278.739 298.999C278.595 298.756 278.524 298.494 278.524 298.215C278.524 297.921 278.595 297.653 278.739 297.409C278.882 297.159 279.075 296.962 279.319 296.818C279.562 296.675 279.827 296.604 280.114 296.604C280.393 296.604 280.654 296.679 280.898 296.829C281.148 296.972 281.345 297.169 281.489 297.42C281.639 297.663 281.714 297.928 281.714 298.215C281.714 298.494 281.639 298.756 281.489 298.999C281.345 299.243 281.148 299.436 280.898 299.579C280.654 299.722 280.393 299.794 280.114 299.794ZM277.095 313.351V312.147H279.168V303.027H277.073V301.824H281.478V312.147H283.583V313.351H277.095ZM289.18 313.641C288.027 313.641 286.989 313.422 286.065 312.985C285.585 312.763 285.205 312.459 284.926 312.072C284.647 311.678 284.507 311.234 284.507 310.74C284.507 310.439 284.575 310.167 284.711 309.924C284.847 309.673 285.026 309.48 285.248 309.344C285.477 309.208 285.721 309.14 285.979 309.14C286.401 309.14 286.749 309.254 287.021 309.483C287.293 309.713 287.429 310.031 287.429 310.439C287.429 310.676 287.379 310.891 287.279 311.084C287.185 311.277 287.057 311.431 286.892 311.546C286.727 311.653 286.555 311.707 286.376 311.707C286.656 311.908 287.028 312.076 287.493 312.212C287.966 312.341 288.435 312.405 288.901 312.405C289.495 312.405 290 312.348 290.415 312.233C290.838 312.119 291.196 311.922 291.49 311.643C291.797 311.356 291.951 310.98 291.951 310.515C291.951 310.178 291.848 309.874 291.64 309.602C291.432 309.329 291.153 309.115 290.802 308.957C290.021 308.606 289.18 308.312 288.278 308.076C287.812 307.954 287.357 307.8 286.913 307.614C286.476 307.428 286.09 307.22 285.753 306.991C285.395 306.755 285.112 306.447 284.905 306.067C284.704 305.688 284.604 305.262 284.604 304.789C284.604 304.316 284.704 303.887 284.905 303.5C285.112 303.106 285.384 302.784 285.721 302.533C286.036 302.304 286.398 302.107 286.806 301.942C287.221 301.778 287.626 301.663 288.02 301.599C288.421 301.541 288.786 301.513 289.115 301.513C289.631 301.513 290.15 301.57 290.673 301.685C291.203 301.799 291.697 301.96 292.156 302.168C292.621 302.39 292.993 302.676 293.273 303.027C293.552 303.371 293.692 303.743 293.692 304.145C293.692 304.452 293.627 304.732 293.498 304.982C293.377 305.226 293.208 305.416 292.993 305.552C292.779 305.688 292.549 305.756 292.306 305.756C291.883 305.756 291.532 305.631 291.253 305.38C290.974 305.129 290.834 304.793 290.834 304.37C290.834 304.184 290.881 304.005 290.974 303.833C291.067 303.654 291.167 303.521 291.275 303.436L291.651 303.178C290.942 302.834 290.14 302.662 289.244 302.662C288.75 302.662 288.303 302.737 287.902 302.888C287.501 303.031 287.185 303.242 286.956 303.521C286.727 303.801 286.613 304.13 286.613 304.51C286.613 304.782 286.716 305.029 286.924 305.251C287.132 305.473 287.415 305.648 287.773 305.777C288.603 306.1 289.448 306.375 290.308 306.604C290.766 306.733 291.217 306.902 291.661 307.109C292.105 307.317 292.503 307.55 292.854 307.808C293.212 308.065 293.491 308.402 293.692 308.817C293.899 309.226 294.003 309.68 294.003 310.182C294.003 310.69 293.91 311.148 293.724 311.557C293.538 311.965 293.287 312.301 292.972 312.566C292.678 312.817 292.32 313.028 291.898 313.2C291.475 313.365 291.035 313.479 290.576 313.544C290.14 313.608 289.674 313.641 289.18 313.641ZM298.655 313.641C298.067 313.641 297.548 313.537 297.097 313.329C296.646 313.114 296.295 312.806 296.044 312.405C295.794 312.004 295.668 311.535 295.668 310.998C295.668 310.576 295.761 310.189 295.948 309.838C296.141 309.48 296.402 309.179 296.732 308.936C297.047 308.699 297.405 308.474 297.806 308.259C298.214 308.044 298.629 307.858 299.052 307.7C299.911 307.392 300.685 307.038 301.372 306.637C301.702 306.443 301.96 306.211 302.146 305.938C302.332 305.666 302.425 305.373 302.425 305.058C302.425 304.256 302.228 303.654 301.834 303.253C301.44 302.845 300.875 302.641 300.137 302.641C299.621 302.641 299.134 302.723 298.676 302.888C298.225 303.045 297.874 303.264 297.623 303.543C298.067 303.543 298.425 303.665 298.698 303.908C298.977 304.145 299.116 304.438 299.116 304.789C299.116 305.083 299.048 305.348 298.912 305.584C298.783 305.813 298.604 305.992 298.375 306.121C298.146 306.25 297.895 306.314 297.623 306.314C297.179 306.314 296.803 306.16 296.495 305.853C296.195 305.545 296.044 305.118 296.044 304.574C296.044 304.281 296.141 303.965 296.334 303.629C296.528 303.285 296.8 302.952 297.151 302.63C297.516 302.293 298.003 302.025 298.612 301.824C299.227 301.617 299.89 301.513 300.599 301.513C301.193 301.513 301.73 301.581 302.21 301.717C302.69 301.846 303.123 302.053 303.51 302.34C303.904 302.633 304.205 303.038 304.412 303.554C304.627 304.069 304.735 304.674 304.735 305.369V310.311C304.735 310.618 304.77 310.898 304.842 311.148C304.921 311.392 305.053 311.61 305.24 311.804C305.447 312.011 305.701 312.115 306.002 312.115C306.912 312.115 307.366 311.478 307.366 310.203V308.603H308.537V309.988C308.537 310.697 308.462 311.302 308.312 311.804C308.161 312.298 307.943 312.674 307.656 312.932C307.377 313.182 307.069 313.361 306.733 313.469C306.396 313.583 305.999 313.641 305.54 313.641C305.046 313.641 304.591 313.544 304.176 313.351C303.768 313.157 303.42 312.86 303.134 312.459C302.826 312.036 302.647 311.535 302.597 310.955C302.396 311.471 302.092 311.933 301.684 312.341C301.283 312.749 300.817 313.068 300.287 313.297C299.757 313.526 299.213 313.641 298.655 313.641ZM299.213 312.094C299.679 312.094 300.166 311.954 300.674 311.675C301.183 311.396 301.601 311.037 301.931 310.601C302.26 310.178 302.425 309.766 302.425 309.365V307.077C302.017 307.485 301.523 307.868 300.943 308.227C300.37 308.585 299.847 308.871 299.374 309.086C298.952 309.272 298.608 309.519 298.343 309.827C298.085 310.128 297.956 310.482 297.956 310.891C297.956 311.256 298.064 311.549 298.279 311.771C298.501 311.986 298.812 312.094 299.213 312.094ZM313.264 313.641C312.34 313.641 311.549 313.368 310.89 312.824C310.546 312.545 310.274 312.176 310.073 311.718C309.88 311.259 309.783 310.747 309.783 310.182V303.027H307.592V302.522C308.122 302.365 308.613 302.078 309.064 301.663C309.515 301.248 309.884 300.779 310.17 300.256C310.435 299.783 310.671 299.303 310.879 298.816C311.144 298.208 311.323 297.817 311.416 297.646C311.567 297.338 311.699 297.184 311.814 297.184C311.9 297.184 311.968 297.216 312.018 297.28C312.068 297.345 312.093 297.438 312.093 297.56V301.824H316.325V303.049H312.093V310.246C312.093 310.862 312.233 311.331 312.512 311.653C312.791 311.976 313.174 312.137 313.661 312.137C314.256 312.137 314.693 311.943 314.972 311.557C315.258 311.163 315.402 310.507 315.402 309.591V308.044H316.691V309.365C316.691 310.339 316.58 311.138 316.358 311.761C316.136 312.384 315.774 312.853 315.273 313.168C314.771 313.483 314.102 313.641 313.264 313.641ZM320.998 299.794C320.712 299.794 320.447 299.722 320.203 299.579C319.96 299.436 319.767 299.243 319.623 298.999C319.48 298.756 319.408 298.494 319.408 298.215C319.408 297.921 319.48 297.653 319.623 297.409C319.767 297.159 319.96 296.962 320.203 296.818C320.447 296.675 320.712 296.604 320.998 296.604C321.278 296.604 321.539 296.679 321.782 296.829C322.033 296.972 322.23 297.169 322.373 297.42C322.524 297.663 322.599 297.928 322.599 298.215C322.599 298.494 322.524 298.756 322.373 298.999C322.23 299.243 322.033 299.436 321.782 299.579C321.539 299.722 321.278 299.794 320.998 299.794ZM317.98 313.351V312.147H320.053V303.027H317.958V301.824H322.363V312.147H324.468V313.351H317.98ZM330.967 313.641C329.843 313.641 328.854 313.383 328.002 312.867C327.15 312.344 326.491 311.625 326.026 310.708C325.567 309.791 325.338 308.749 325.338 307.582C325.338 306.422 325.557 305.387 325.993 304.478C326.437 303.568 327.086 302.848 327.938 302.318C328.797 301.781 329.8 301.513 330.946 301.513C331.791 301.513 332.568 301.667 333.277 301.975C333.993 302.283 334.591 302.712 335.071 303.264C335.543 303.808 335.905 304.452 336.156 305.197C336.406 305.935 336.531 306.73 336.531 307.582C336.531 308.735 336.313 309.766 335.876 310.676C335.439 311.578 334.798 312.294 333.953 312.824C333.108 313.368 332.113 313.641 330.967 313.641ZM330.967 312.276C331.597 312.276 332.145 312.09 332.611 311.718C333.083 311.338 333.445 310.805 333.696 310.117C333.946 309.43 334.072 308.631 334.072 307.722C334.072 306.726 333.964 305.874 333.749 305.165C333.534 304.449 333.194 303.876 332.729 303.446C332.249 303.009 331.655 302.791 330.946 302.791C330.251 302.791 329.66 303.006 329.173 303.436C328.686 303.865 328.335 304.452 328.12 305.197C327.906 305.913 327.798 306.755 327.798 307.722C327.798 308.631 327.923 309.43 328.174 310.117C328.432 310.805 328.801 311.338 329.281 311.718C329.76 312.09 330.323 312.276 330.967 312.276ZM337.853 312.147H339.948V303.027H337.853V301.824L341.924 301.642L342.193 303.983C342.415 303.468 342.73 303.024 343.138 302.651C343.546 302.279 344.001 301.996 344.502 301.803C345.003 301.609 345.508 301.513 346.017 301.513C346.26 301.513 346.475 301.523 346.661 301.545C346.855 301.566 347.066 301.613 347.295 301.685C347.553 301.763 347.779 301.864 347.972 301.985C348.172 302.107 348.377 302.272 348.584 302.479C348.799 302.701 348.975 302.956 349.111 303.242C349.247 303.521 349.361 303.869 349.454 304.284C349.54 304.7 349.583 305.169 349.583 305.691V312.147H351.785V313.351H345.308V312.147H347.274V305.713C347.274 304.803 347.095 304.123 346.737 303.672C346.378 303.214 345.874 302.984 345.222 302.984C344.821 302.984 344.448 303.06 344.105 303.21C343.768 303.36 343.485 303.568 343.256 303.833C343.034 304.091 342.844 304.399 342.687 304.757C342.536 305.108 342.429 305.477 342.365 305.863C342.293 306.221 342.257 306.619 342.257 307.056V312.147H344.212V313.351H337.853V312.147Z" fill="#040404"/>
<rect x="164.774" y="23.4102" width="135" height="38" rx="19" transform="rotate(-9.7373 164.774 23.4102)" stroke="white"/>
<path d="M194.285 44.6893L196.604 44.2914L194.389 31.3854L191.88 31.816L191.62 30.3019L198.036 29.2009L203.528 38.591L205.32 27.951L211.281 26.9281L211.541 28.4421L209.074 28.8654L211.289 41.7715L213.914 41.3209L214.174 42.8349L206.837 44.094L206.577 42.58L208.907 42.1803L206.752 29.6236L204.569 41.6713C204.463 42.2416 204.251 42.5541 203.934 42.6086C203.771 42.6364 203.601 42.5966 203.423 42.4892C203.25 42.3734 203.103 42.2134 202.981 42.0092L196.33 31.0741L198.541 43.959L201.209 43.5011L201.469 45.0151L194.545 46.2033L194.285 44.6893ZM220.883 41.978C220.036 42.1233 219.229 42.0984 218.461 41.9031C217.693 41.7007 217.027 41.3572 216.464 40.8725C215.911 40.4006 215.451 39.8401 215.086 39.1908C214.727 38.5402 214.484 37.8444 214.357 37.1033C214.247 36.461 214.214 35.8271 214.259 35.2017C214.312 34.5751 214.443 33.9823 214.652 33.4232C215.111 32.2037 215.849 31.2959 216.866 30.7C217.4 30.3831 218.013 30.1653 218.704 30.0466C219.424 29.923 220.117 29.935 220.782 30.0825C221.446 30.23 222.053 30.5038 222.601 30.9038C223.159 31.3168 223.636 31.8743 224.032 32.5764C224.436 33.2774 224.723 34.0819 224.893 34.99L216.73 36.3908L216.745 36.4755C216.956 37.7036 217.394 38.6928 218.061 39.4432C218.395 39.8218 218.801 40.0936 219.28 40.2585C219.757 40.4163 220.275 40.4474 220.833 40.3517C221.327 40.2669 221.786 40.0828 222.209 39.7994C222.639 39.5077 222.989 39.1352 223.26 38.6818C223.537 38.2201 223.703 37.7083 223.759 37.1465L225.065 37.3256C225.015 38.1335 224.817 38.865 224.472 39.5201C224.125 40.1681 223.647 40.7044 223.037 41.1288C222.427 41.5532 221.709 41.8363 220.883 41.978ZM222.368 34.2463C222.239 33.5781 222.003 33.0083 221.66 32.5366C221.324 32.0567 220.919 31.7084 220.446 31.4917C219.98 31.2737 219.492 31.2084 218.984 31.2956C218.469 31.384 218.021 31.6098 217.64 31.9731C217.259 32.3364 216.976 32.8028 216.79 33.3724C216.61 33.9336 216.55 34.5544 216.608 35.2346L222.368 34.2463ZM227.014 39.4108L229.079 39.0565L227.536 30.0678L225.472 30.422L225.268 29.2363L229.25 28.3677L229.911 30.6303C230.043 30.0846 230.278 29.5937 230.617 29.1576C230.957 28.7215 231.357 28.3658 231.818 28.0905C232.28 27.8151 232.761 27.6344 233.262 27.5484C233.502 27.5072 233.716 27.4815 233.903 27.4712C234.097 27.4596 234.313 27.4698 234.551 27.5016C234.819 27.5357 235.058 27.5963 235.269 27.6836C235.487 27.7697 235.716 27.8975 235.956 28.0671C236.205 28.2495 236.421 28.4704 236.604 28.7297C236.785 28.982 236.957 29.305 237.119 29.6986C237.274 30.0934 237.396 30.5485 237.484 31.0637L238.576 37.4268L240.746 37.0543L240.95 38.2401L234.566 39.3357L234.362 38.1499L236.3 37.8174L235.211 31.4755C235.057 30.5791 234.766 29.9389 234.337 29.5548C233.906 29.1636 233.37 29.0231 232.728 29.1333C232.332 29.2012 231.978 29.3383 231.665 29.5446C231.358 29.7498 231.115 30.0023 230.934 30.3022C230.758 30.5939 230.624 30.9295 230.529 31.309C230.44 31.6803 230.396 32.062 230.398 32.4541C230.388 32.8191 230.42 33.2169 230.494 33.6474L231.355 38.6659L233.282 38.3352L233.486 39.521L227.218 40.5966L227.014 39.4108ZM246.187 37.6357C245.05 37.8307 243.99 37.7911 243.006 37.5168C242.495 37.3791 242.07 37.1434 241.729 36.8094C241.387 36.4685 241.174 36.0545 241.091 35.5675C241.04 35.271 241.061 34.9913 241.154 34.7283C241.245 34.4582 241.389 34.2374 241.585 34.0657C241.788 33.8929 242.016 33.7846 242.27 33.741C242.687 33.6696 243.049 33.7237 243.356 33.9036C243.662 34.0834 243.85 34.3745 243.92 34.7768C243.96 35.0098 243.946 35.23 243.88 35.4375C243.821 35.6438 243.72 35.8174 243.577 35.9582C243.433 36.0919 243.273 36.1739 243.096 36.2042C243.406 36.3546 243.801 36.4575 244.283 36.5129C244.77 36.56 245.244 36.5442 245.702 36.4654C246.288 36.3649 246.776 36.223 247.166 36.0398C247.563 35.8555 247.883 35.6008 248.125 35.2759C248.38 34.9414 248.468 34.5448 248.39 34.0861C248.333 33.7543 248.179 33.4719 247.928 33.2388C247.677 33.0057 247.366 32.8412 246.993 32.7453C246.165 32.5314 245.286 32.3844 244.356 32.3041C243.877 32.2628 243.403 32.188 242.934 32.0795C242.471 31.9699 242.055 31.8306 241.685 31.6617C241.292 31.4893 240.961 31.2337 240.692 30.8947C240.43 30.5545 240.259 30.1515 240.179 29.6857C240.099 29.2198 240.126 28.7794 240.258 28.3643C240.396 27.941 240.61 27.5773 240.899 27.2734C241.171 26.9942 241.494 26.7389 241.868 26.5075C242.25 26.275 242.629 26.0936 243.007 25.9634C243.392 25.8392 243.747 25.7491 244.072 25.6934C244.58 25.6062 245.102 25.5749 245.636 25.5994C246.178 25.6227 246.692 25.6979 247.179 25.8251C247.675 25.9652 248.091 26.1845 248.425 26.4831C248.759 26.7747 248.96 27.1181 249.027 27.5134C249.079 27.8169 249.063 28.1031 248.978 28.3719C248.9 28.6325 248.766 28.848 248.577 29.0184C248.388 29.1889 248.174 29.2947 247.934 29.3359C247.518 29.4073 247.151 29.3432 246.833 29.1434C246.515 28.9436 246.321 28.6354 246.249 28.219C246.218 28.0355 246.233 27.8511 246.296 27.666C246.358 27.4738 246.434 27.3263 246.525 27.2234L246.852 26.9057C246.095 26.6868 245.276 26.6531 244.393 26.8045C243.906 26.8881 243.478 27.0379 243.108 27.2539C242.737 27.4629 242.462 27.7244 242.284 28.0385C242.105 28.3525 242.048 28.6966 242.112 29.0706C242.158 29.3389 242.302 29.5648 242.544 29.7485C242.787 29.9322 243.095 30.0573 243.47 30.1237C244.343 30.3009 245.223 30.4297 246.108 30.5102C246.582 30.5597 247.055 30.6493 247.528 30.7789C248.001 30.9085 248.432 31.0707 248.821 31.2654C249.218 31.4589 249.55 31.7434 249.818 32.1189C250.091 32.4861 250.271 32.9167 250.355 33.4108C250.441 33.912 250.427 34.3794 250.313 34.8133C250.198 35.2471 250.008 35.6212 249.742 35.9357C249.495 36.2324 249.178 36.5011 248.791 36.742C248.402 36.9758 247.988 37.1632 247.547 37.3043C247.127 37.4417 246.674 37.5522 246.187 37.6357ZM258.023 35.6045C257.275 35.7329 256.539 35.7211 255.816 35.5692C255.099 35.416 254.451 35.1348 253.873 34.7255C253.287 34.3174 252.79 33.7741 252.383 33.0956C251.975 32.41 251.698 31.6437 251.553 30.7967C251.412 29.9779 251.402 29.1803 251.523 28.4038C251.645 27.6274 251.888 26.9063 252.253 26.2405C252.624 25.5664 253.152 25 253.836 24.541C254.526 24.0739 255.323 23.7627 256.226 23.6077C256.742 23.5193 257.27 23.5085 257.812 23.5754C258.36 23.634 258.877 23.7704 259.365 23.9847C259.875 24.2095 260.307 24.5459 260.66 24.9939C261.019 25.4337 261.25 25.9501 261.351 26.543C261.401 26.8324 261.382 27.1227 261.294 27.4139C261.204 27.6981 261.047 27.9431 260.82 28.1491C260.594 28.355 260.315 28.4864 259.983 28.5434C259.518 28.6233 259.106 28.5523 258.748 28.3303C258.39 28.1083 258.173 27.775 258.097 27.3303C258.02 26.8857 258.115 26.5061 258.381 26.1917C258.654 25.876 259.02 25.6788 259.478 25.6001C259.172 25.253 258.783 25 258.313 24.841C257.842 24.6819 257.339 24.6484 256.802 24.7405C256.202 24.8434 255.678 25.0714 255.23 25.4244C254.788 25.7692 254.458 26.1964 254.24 26.706C254.027 27.2003 253.89 27.7361 253.829 28.3133C253.775 28.8822 253.797 29.4561 253.896 30.0349C254.051 30.9383 254.326 31.694 254.721 32.302C255.116 32.91 255.608 33.345 256.198 33.6071C256.795 33.8679 257.464 33.9348 258.206 33.8076C258.622 33.7361 259.013 33.5818 259.38 33.3446C259.752 33.0991 260.058 32.8103 260.299 32.4783C260.521 32.1641 260.701 31.8571 260.839 31.5574C260.975 31.2506 261.059 30.9783 261.091 30.7403L262.354 30.9267C262.304 31.7346 262.102 32.4632 261.748 33.1124C261.395 33.7617 260.903 34.3039 260.273 34.739C259.641 35.167 258.892 35.4555 258.023 35.6045ZM263.816 33.0954L265.764 32.7612L263.457 19.3151L261.382 19.6712L261.158 18.369L265.51 17.6222L266.64 24.2076C266.81 23.6334 267.079 23.1259 267.447 22.685C267.814 22.2441 268.218 21.9095 268.659 21.6813C269.059 21.4746 269.492 21.3312 269.958 21.2513C270.297 21.1931 270.598 21.167 270.86 21.1728C271.13 21.1774 271.436 21.2265 271.779 21.3202C272.17 21.4349 272.505 21.6099 272.785 21.8452C273.072 22.0793 273.339 22.4295 273.586 22.8957C273.844 23.3819 274.033 23.9708 274.151 24.6625L275.261 31.1314L277.538 30.7408L277.741 31.9266L271.135 33.0603L270.931 31.8745L272.985 31.5221L271.86 24.9684C271.724 24.1709 271.468 23.5934 271.094 23.2361C270.727 22.8706 270.281 22.7326 269.759 22.8222C269.406 22.8828 269.053 23.0452 268.698 23.3094C268.351 23.5725 268.044 23.9012 267.778 24.2958C267.507 24.7056 267.314 25.171 267.2 25.6919C267.085 26.2058 267.071 26.7168 267.158 27.225L268.041 32.3705L270.105 32.0162L270.309 33.202L264.02 34.2812L263.816 33.0954Z" fill="white"/>
<rect x="341.593" y="178.743" width="183" height="38" rx="19" transform="rotate(-9.7373 341.593 178.743)" stroke="white"/>
<path d="M374.616 200.978L374.356 199.464L376.823 199.04L374.609 186.134L370.554 186.83L371.398 191.753L369.429 192.091L368.324 185.654L382.787 183.172L383.892 189.609L381.912 189.949L381.067 185.026L377.107 185.706L379.322 198.612L381.852 198.177L382.112 199.691L374.616 200.978ZM392.039 198.282C391.192 198.428 390.385 198.403 389.618 198.207C388.849 198.005 388.183 197.661 387.621 197.177C387.067 196.705 386.608 196.144 386.242 195.495C385.883 194.844 385.641 194.149 385.513 193.407C385.403 192.765 385.371 192.131 385.416 191.506C385.468 190.879 385.599 190.287 385.808 189.727C386.267 188.508 387.005 187.6 388.022 187.004C388.556 186.687 389.169 186.469 389.861 186.351C390.581 186.227 391.273 186.239 391.938 186.387C392.603 186.534 393.209 186.808 393.757 187.208C394.315 187.621 394.792 188.178 395.189 188.881C395.593 189.582 395.88 190.386 396.05 191.294L387.887 192.695L387.902 192.78C388.112 194.008 388.551 194.997 389.217 195.747C389.551 196.126 389.957 196.398 390.436 196.563C390.914 196.721 391.431 196.752 391.989 196.656C392.483 196.571 392.942 196.387 393.366 196.104C393.795 195.812 394.145 195.439 394.416 194.986C394.693 194.524 394.86 194.013 394.916 193.451L396.222 193.63C396.172 194.438 395.974 195.169 395.628 195.824C395.282 196.472 394.803 197.009 394.193 197.433C393.583 197.857 392.865 198.14 392.039 198.282ZM393.524 190.55C393.395 189.882 393.159 189.312 392.817 188.841C392.48 188.361 392.075 188.013 391.602 187.796C391.136 187.578 390.649 187.513 390.141 187.6C389.625 187.688 389.177 187.914 388.796 188.277C388.416 188.641 388.132 189.107 387.947 189.677C387.767 190.238 387.706 190.859 387.765 191.539L393.524 190.55ZM404.172 196.2C403.424 196.328 402.688 196.317 401.965 196.165C401.248 196.012 400.6 195.73 400.022 195.321C399.436 194.913 398.939 194.37 398.532 193.691C398.124 193.006 397.847 192.239 397.702 191.392C397.561 190.573 397.551 189.776 397.672 188.999C397.794 188.223 398.037 187.502 398.402 186.836C398.773 186.162 399.301 185.596 399.985 185.137C400.675 184.669 401.472 184.358 402.375 184.203C402.891 184.115 403.419 184.104 403.961 184.171C404.509 184.23 405.026 184.366 405.514 184.58C406.024 184.805 406.456 185.141 406.809 185.59C407.168 186.029 407.399 186.546 407.5 187.139C407.55 187.428 407.531 187.718 407.443 188.009C407.353 188.294 407.196 188.539 406.969 188.745C406.743 188.951 406.464 189.082 406.132 189.139C405.667 189.219 405.255 189.148 404.897 188.926C404.539 188.704 404.322 188.371 404.246 187.926C404.169 187.481 404.264 187.102 404.53 186.787C404.803 186.472 405.169 186.274 405.627 186.196C405.321 185.849 404.932 185.596 404.462 185.437C403.991 185.277 403.488 185.244 402.951 185.336C402.351 185.439 401.827 185.667 401.379 186.02C400.937 186.365 400.607 186.792 400.389 187.302C400.176 187.796 400.039 188.332 399.978 188.909C399.923 189.478 399.946 190.052 400.045 190.63C400.2 191.534 400.475 192.29 400.87 192.898C401.265 193.506 401.757 193.941 402.347 194.203C402.944 194.463 403.613 194.53 404.355 194.403C404.771 194.332 405.162 194.177 405.528 193.94C405.901 193.695 406.207 193.406 406.448 193.074C406.67 192.76 406.85 192.453 406.987 192.153C407.124 191.846 407.208 191.574 407.24 191.336L408.503 191.522C408.453 192.33 408.251 193.059 407.897 193.708C407.544 194.357 407.052 194.899 406.422 195.335C405.79 195.763 405.041 196.051 404.172 196.2ZM409.965 193.691L411.913 193.357L409.606 179.911L407.531 180.267L407.307 178.965L411.659 178.218L412.789 184.803C412.959 184.229 413.228 183.721 413.596 183.281C413.963 182.84 414.367 182.505 414.808 182.277C415.208 182.07 415.641 181.927 416.107 181.847C416.446 181.789 416.747 181.763 417.009 181.768C417.279 181.773 417.585 181.822 417.928 181.916C418.319 182.03 418.654 182.205 418.934 182.441C419.221 182.675 419.488 183.025 419.735 183.491C419.993 183.977 420.182 184.566 420.3 185.258L421.41 191.727L423.687 191.336L423.89 192.522L417.284 193.656L417.08 192.47L419.134 192.118L418.009 185.564C417.873 184.766 417.617 184.189 417.243 183.832C416.876 183.466 416.43 183.328 415.908 183.418C415.555 183.478 415.202 183.641 414.847 183.905C414.5 184.168 414.193 184.497 413.927 184.891C413.655 185.301 413.463 185.767 413.349 186.287C413.234 186.801 413.22 187.312 413.307 187.821L414.19 192.966L416.254 192.612L416.458 193.798L410.169 194.877L409.965 193.691ZM424.364 191.22L426.429 190.866L424.886 181.877L422.822 182.231L422.618 181.046L426.6 180.177L427.261 182.44C427.392 181.894 427.628 181.403 427.967 180.967C428.306 180.531 428.707 180.175 429.168 179.9C429.63 179.624 430.111 179.444 430.612 179.358C430.852 179.317 431.066 179.291 431.253 179.281C431.447 179.269 431.663 179.279 431.901 179.311C432.168 179.345 432.408 179.406 432.619 179.493C432.837 179.579 433.066 179.707 433.306 179.876C433.555 180.059 433.771 180.28 433.954 180.539C434.135 180.791 434.307 181.114 434.469 181.508C434.624 181.903 434.745 182.358 434.834 182.873L435.926 189.236L438.096 188.864L438.3 190.049L431.915 191.145L431.712 189.959L433.649 189.627L432.561 183.285C432.407 182.388 432.116 181.748 431.687 181.364C431.256 180.973 430.72 180.832 430.077 180.943C429.682 181.011 429.328 181.148 429.015 181.354C428.708 181.559 428.465 181.812 428.283 182.112C428.108 182.403 427.973 182.739 427.879 183.118C427.79 183.49 427.746 183.871 427.748 184.263C427.738 184.628 427.77 185.026 427.844 185.457L428.705 190.475L430.632 190.145L430.835 191.33L424.568 192.406L424.364 191.22ZM444.299 189.314C443.191 189.504 442.173 189.417 441.246 189.053C440.318 188.682 439.546 188.084 438.933 187.26C438.326 186.434 437.924 185.445 437.726 184.295C437.53 183.152 437.57 182.095 437.847 181.124C438.131 180.153 438.648 179.334 439.398 178.667C440.154 177.993 441.097 177.558 442.226 177.365C443.059 177.222 443.851 177.242 444.602 177.426C445.36 177.608 446.022 177.93 446.588 178.393C447.146 178.849 447.611 179.423 447.984 180.115C448.356 180.8 448.614 181.562 448.758 182.402C448.953 183.538 448.913 184.592 448.636 185.562C448.358 186.525 447.847 187.339 447.104 188.005C446.363 188.684 445.428 189.12 444.299 189.314ZM444.068 187.97C444.689 187.863 445.198 187.587 445.593 187.141C445.995 186.687 446.261 186.1 446.392 185.38C446.523 184.66 446.511 183.852 446.357 182.956C446.189 181.974 445.939 181.153 445.607 180.49C445.275 179.821 444.842 179.314 444.311 178.969C443.764 178.619 443.141 178.505 442.443 178.625C441.758 178.742 441.212 179.054 440.805 179.56C440.397 180.065 440.151 180.704 440.065 181.474C439.974 182.216 440.011 183.064 440.174 184.017C440.328 184.913 440.587 185.679 440.95 186.314C441.321 186.948 441.774 187.411 442.311 187.704C442.847 187.99 443.433 188.079 444.068 187.97ZM450.549 187.947L450.346 186.762L452.707 186.356L450.399 172.91L448.038 173.316L447.815 172.013L452.452 171.218L454.983 185.966L457.259 185.575L457.463 186.761L450.549 187.947ZM464.034 185.928C462.926 186.118 461.908 186.031 460.981 185.667C460.052 185.296 459.281 184.698 458.668 183.873C458.061 183.047 457.659 182.059 457.461 180.908C457.265 179.765 457.305 178.708 457.582 177.738C457.866 176.766 458.383 175.947 459.133 175.281C459.889 174.606 460.832 174.172 461.961 173.978C462.794 173.835 463.586 173.856 464.337 174.039C465.095 174.221 465.757 174.544 466.323 175.006C466.881 175.463 467.346 176.037 467.719 176.728C468.091 177.413 468.349 178.175 468.493 179.015C468.688 180.152 468.648 181.205 468.371 182.175C468.093 183.138 467.582 183.953 466.839 184.618C466.098 185.297 465.163 185.734 464.034 185.928ZM463.803 184.583C464.424 184.476 464.933 184.2 465.328 183.755C465.73 183.301 465.996 182.714 466.127 181.994C466.258 181.274 466.246 180.465 466.092 179.569C465.924 178.588 465.674 177.766 465.342 177.104C465.01 176.434 464.577 175.927 464.046 175.582C463.499 175.233 462.876 175.118 462.178 175.238C461.493 175.356 460.947 175.667 460.54 176.173C460.132 176.679 459.886 177.317 459.8 178.087C459.709 178.83 459.746 179.677 459.909 180.63C460.063 181.526 460.322 182.292 460.685 182.927C461.055 183.561 461.509 184.025 462.046 184.318C462.582 184.604 463.168 184.692 463.803 184.583ZM477.058 189.229C475.534 189.491 474.345 189.317 473.492 188.708C473.029 188.38 472.749 187.934 472.652 187.37C472.562 186.847 472.658 186.413 472.941 186.067C473.23 185.719 473.632 185.501 474.147 185.413C474.408 185.368 474.659 185.39 474.9 185.48C475.14 185.569 475.344 185.716 475.509 185.92C475.675 186.124 475.782 186.368 475.831 186.65C475.877 186.918 475.828 187.206 475.685 187.514C475.55 187.828 475.38 188.046 475.176 188.168C475.647 188.247 476.095 188.25 476.518 188.178C477.605 187.991 478.352 187.434 478.76 186.507C479.175 185.578 479.251 184.348 478.988 182.817L478.664 180.932C478.587 181.41 478.413 181.862 478.144 182.286C477.883 182.708 477.544 183.064 477.129 183.354C476.721 183.642 476.266 183.829 475.765 183.915C475.179 184.015 474.614 184.003 474.069 183.879C473.523 183.747 473.037 183.518 472.611 183.192C472.186 182.879 471.804 182.494 471.464 182.037C471.131 181.578 470.855 181.07 470.636 180.511C470.415 179.946 470.255 179.371 470.154 178.785C470.022 178.015 469.994 177.261 470.071 176.521C470.146 175.774 470.325 175.082 470.608 174.445C470.896 173.793 471.314 173.245 471.863 172.802C472.412 172.359 473.05 172.075 473.777 171.951C474.208 171.877 474.662 171.9 475.141 172.022C475.625 172.135 476.071 172.338 476.477 172.632C476.883 172.925 477.201 173.292 477.429 173.733L477.345 171.654L480.881 171.048L481.097 172.307L479.572 172.569L481.213 182.13C481.449 183.506 481.406 184.734 481.082 185.814C480.902 186.412 480.643 186.936 480.306 187.386C479.976 187.835 479.54 188.219 478.999 188.537C478.432 188.874 477.785 189.105 477.058 189.229ZM475.989 182.492C476.596 182.388 477.093 182.085 477.479 181.582C477.872 181.079 478.12 180.473 478.224 179.765C478.316 179.073 478.299 178.361 478.173 177.627C478.01 176.674 477.746 175.854 477.381 175.169C477.015 174.476 476.579 173.966 476.072 173.638C475.564 173.304 475.024 173.186 474.453 173.284C473.895 173.38 473.434 173.677 473.069 174.176C472.703 174.667 472.472 175.27 472.376 175.984C472.287 176.689 472.307 177.423 472.438 178.186C472.654 179.442 473.037 180.488 473.587 181.324C473.881 181.767 474.235 182.095 474.65 182.308C475.063 182.513 475.509 182.574 475.989 182.492ZM484.201 168.418C483.918 168.466 483.645 168.441 483.381 168.341C483.117 168.241 482.893 168.083 482.711 167.867C482.529 167.651 482.414 167.406 482.367 167.13C482.317 166.841 482.342 166.564 482.442 166.3C482.541 166.029 482.698 165.802 482.914 165.62C483.13 165.437 483.379 165.322 483.661 165.273C483.936 165.226 484.207 165.256 484.472 165.363C484.743 165.462 484.971 165.623 485.154 165.846C485.344 166.06 485.463 166.308 485.511 166.591C485.558 166.866 485.529 167.136 485.421 167.402C485.322 167.666 485.16 167.89 484.937 168.074C484.722 168.256 484.476 168.371 484.201 168.418ZM483.519 182.29L483.315 181.104L485.358 180.753L483.816 171.765L481.751 172.119L481.548 170.933L485.889 170.188L487.635 180.363L489.71 180.007L489.913 181.192L483.519 182.29ZM496.347 180.383C495.5 180.528 494.692 180.503 493.925 180.308C493.156 180.105 492.491 179.762 491.928 179.277C491.375 178.805 490.915 178.245 490.55 177.595C490.191 176.945 489.948 176.249 489.821 175.508C489.71 174.866 489.678 174.232 489.723 173.606C489.776 172.98 489.906 172.387 490.116 171.828C490.575 170.608 491.313 169.701 492.33 169.105C492.864 168.788 493.477 168.57 494.168 168.451C494.888 168.328 495.581 168.34 496.245 168.487C496.91 168.635 497.517 168.909 498.065 169.309C498.622 169.721 499.1 170.279 499.496 170.981C499.9 171.682 500.187 172.487 500.357 173.395L492.194 174.795L492.209 174.88C492.42 176.108 492.858 177.098 493.525 177.848C493.859 178.227 494.265 178.498 494.744 178.663C495.221 178.821 495.739 178.852 496.296 178.756C496.791 178.672 497.249 178.488 497.673 178.204C498.103 177.912 498.453 177.54 498.724 177.086C499.001 176.625 499.167 176.113 499.223 175.551L500.529 175.73C500.479 176.538 500.281 177.27 499.936 177.925C499.589 178.573 499.111 179.109 498.501 179.533C497.89 179.958 497.172 180.241 496.347 180.383ZM497.832 172.651C497.703 171.983 497.467 171.413 497.124 170.941C496.788 170.461 496.383 170.113 495.91 169.896C495.443 169.678 494.956 169.613 494.448 169.7C493.933 169.789 493.485 170.015 493.104 170.378C492.723 170.741 492.44 171.208 492.254 171.777C492.074 172.338 492.014 172.959 492.072 173.639L497.832 172.651Z" fill="white"/>
<rect x="0.577362" y="237.262" width="183" height="38" rx="19" transform="rotate(-9.7373 0.577362 237.262)" stroke="white"/>
<path d="M46.6619 257.55C45.6172 257.729 44.679 257.745 43.847 257.597C43.0222 257.448 42.3308 257.145 41.7729 256.689C40.6926 255.813 40.0065 254.525 39.7146 252.824L38.1775 243.867L35.8907 244.259L35.6309 242.745L42.7456 241.524L43.0054 243.038L40.6656 243.44L42.2281 252.545C42.6992 255.291 44.17 256.452 46.6404 256.028C47.8545 255.819 48.7156 255.312 49.2239 254.505C49.7309 253.692 49.8658 252.593 49.6284 251.21L48.0768 242.168L45.6735 242.58L45.4136 241.066L52.179 239.906L52.4388 241.42L50.226 241.799L51.7068 250.428C51.8352 251.176 51.889 251.85 51.8683 252.449C51.8547 253.047 51.7539 253.624 51.5658 254.18C51.3756 254.765 51.0807 255.269 50.6813 255.694C50.2889 256.117 49.7573 256.492 49.0866 256.818C48.4018 257.146 47.5936 257.39 46.6619 257.55ZM55.451 254.527L57.5155 254.172L55.973 245.184L53.9085 245.538L53.705 244.352L57.6868 243.484L58.3475 245.746C58.4172 245.306 58.5583 244.9 58.7708 244.529C58.9821 244.151 59.2408 243.838 59.5469 243.589C60.1345 243.118 60.7882 242.821 61.5082 242.697C61.7835 242.65 62.0188 242.624 62.2142 242.619C62.4084 242.608 62.6322 242.62 62.8855 242.657C63.1695 242.703 63.42 242.787 63.6373 242.909C63.8615 243.031 64.0897 243.217 64.3216 243.468C64.5465 243.72 64.7541 244.04 64.9444 244.429C65.1465 243.617 65.5084 242.973 66.03 242.499C66.5587 242.023 67.1972 241.721 67.9453 241.592C68.1853 241.551 68.3989 241.525 68.586 241.515C68.7803 241.504 68.9963 241.514 69.2343 241.546C69.5017 241.58 69.741 241.64 69.9522 241.728C70.1704 241.814 70.3994 241.941 70.6393 242.111C70.8886 242.293 71.1045 242.514 71.287 242.774C71.4684 243.026 71.6401 243.349 71.8021 243.743C71.957 244.137 72.0787 244.592 72.1671 245.108L73.259 251.471L75.2071 251.136L75.4106 252.322L69.4711 253.341L69.2676 252.156L70.9827 251.861L69.8945 245.519C69.7406 244.623 69.4491 243.983 69.0199 243.599C68.5895 243.208 68.0531 243.067 67.4108 243.177C66.9238 243.261 66.5184 243.439 66.1948 243.713C65.8712 243.986 65.6462 244.327 65.5198 244.733C65.3934 245.14 65.3714 245.584 65.4538 246.064L66.5784 252.617L68.3994 252.305L68.6029 253.49L62.6845 254.506L62.481 253.32L64.3021 253.008L63.2138 246.666C63.06 245.769 62.7684 245.129 62.3392 244.745C61.9088 244.354 61.3724 244.213 60.7301 244.324C60.3349 244.392 59.9953 244.53 59.7113 244.738C59.4333 244.939 59.2243 245.182 59.0844 245.467C58.9562 245.736 58.8665 246.06 58.8153 246.44C58.77 246.811 58.7583 247.187 58.7801 247.568C58.8139 247.977 58.864 248.375 58.9307 248.763L59.7918 253.782L61.6129 253.469L61.8164 254.655L55.6545 255.712L55.451 254.527ZM81.9728 257.027C80.4482 257.289 79.2594 257.115 78.4064 256.506C77.9434 256.178 77.6634 255.732 77.5665 255.168C77.4768 254.645 77.5731 254.211 77.8551 253.865C78.1443 253.517 78.5465 253.299 79.0617 253.211C79.3229 253.166 79.5738 253.188 79.8144 253.278C80.055 253.367 80.2582 253.514 80.424 253.718C80.5898 253.922 80.6969 254.165 80.7454 254.448C80.7914 254.716 80.7428 255.004 80.5994 255.312C80.4644 255.626 80.2947 255.844 80.0904 255.966C80.5617 256.045 81.0091 256.048 81.4326 255.975C82.5196 255.789 83.2669 255.232 83.6745 254.305C84.0892 253.376 84.1651 252.146 83.9023 250.614L83.5789 248.73C83.5011 249.208 83.3279 249.659 83.0591 250.083C82.7974 250.506 82.4589 250.862 82.0435 251.151C81.6352 251.439 81.1804 251.626 80.6793 251.712C80.0934 251.813 79.5283 251.801 78.9837 251.676C78.438 251.545 77.9518 251.316 77.5252 250.989C77.101 250.677 76.7189 250.292 76.3788 249.835C76.0458 249.376 75.7696 248.867 75.5503 248.309C75.3298 247.744 75.1693 247.168 75.0687 246.583C74.9367 245.813 74.9089 245.059 74.9854 244.319C75.0607 243.572 75.2399 242.88 75.523 242.243C75.8106 241.591 76.2289 241.043 76.7778 240.6C77.3266 240.157 77.9646 239.873 78.6916 239.748C79.1221 239.674 79.5767 239.698 80.0553 239.819C80.5397 239.932 80.9852 240.136 81.3916 240.429C81.798 240.723 82.1153 241.09 82.3435 241.53L82.2593 239.452L85.7955 238.845L86.0117 240.105L84.4871 240.367L86.1277 249.927C86.3639 251.304 86.3204 252.532 85.9971 253.612C85.8163 254.21 85.5574 254.734 85.2205 255.184C84.8906 255.633 84.4551 256.016 83.9139 256.334C83.3468 256.672 82.6998 256.902 81.9728 257.027ZM80.9038 250.29C81.5108 250.185 82.0074 249.882 82.3935 249.38C82.7867 248.877 83.0351 248.271 83.1389 247.563C83.2309 246.871 83.2139 246.158 83.088 245.424C82.9245 244.471 82.6603 243.652 82.2956 242.966C81.9296 242.273 81.4933 241.763 80.9867 241.436C80.4788 241.102 79.939 240.984 79.3673 241.082C78.8097 241.178 78.3484 241.475 77.9835 241.973C77.6173 242.465 77.3865 243.068 77.2911 243.782C77.2014 244.487 77.222 245.221 77.3528 245.983C77.5684 247.24 77.9514 248.286 78.5017 249.121C78.7958 249.565 79.15 249.893 79.5643 250.105C79.9773 250.311 80.4238 250.372 80.9038 250.29ZM94.21 249.39C93.363 249.536 92.5558 249.511 91.7884 249.316C91.0198 249.113 90.3542 248.77 89.7914 248.285C89.2381 247.813 88.7786 247.253 88.4129 246.603C88.0542 245.953 87.8113 245.257 87.6841 244.516C87.5739 243.873 87.5414 243.24 87.5867 242.614C87.639 241.988 87.7698 241.395 87.979 240.836C88.4382 239.616 89.1762 238.708 90.1929 238.112C90.7271 237.796 91.34 237.578 92.0318 237.459C92.7517 237.336 93.444 237.347 94.1088 237.495C94.7735 237.643 95.38 237.916 95.9282 238.316C96.4859 238.729 96.963 239.287 97.3596 239.989C97.7633 240.69 98.0503 241.494 98.2207 242.402L90.0578 243.803L90.0723 243.888C90.2831 245.116 90.7217 246.105 91.3881 246.856C91.7219 247.234 92.1282 247.506 92.607 247.671C93.0846 247.829 93.6022 247.86 94.1598 247.764C94.6539 247.679 95.1128 247.495 95.5364 247.212C95.9659 246.92 96.3162 246.548 96.5872 246.094C96.864 245.633 97.0305 245.121 97.0866 244.559L98.3926 244.738C98.3423 245.546 98.1445 246.277 97.7991 246.933C97.4526 247.581 96.9742 248.117 96.364 248.541C95.7538 248.966 95.0358 249.249 94.21 249.39ZM95.6952 241.659C95.566 240.991 95.3302 240.421 94.9877 239.949C94.651 239.469 94.2461 239.121 93.7729 238.904C93.3068 238.686 92.8197 238.621 92.3115 238.708C91.7962 238.796 91.3482 239.022 90.9673 239.386C90.5864 239.749 90.3031 240.215 90.1174 240.785C89.9377 241.346 89.8771 241.967 89.9357 242.647L95.6952 241.659ZM107.031 247.19C106.22 247.33 105.444 247.256 104.704 246.968C103.964 246.674 103.36 246.164 102.894 245.437L102.43 247.686L101.456 247.853L98.9448 233.221L96.7532 233.597L96.5298 232.295L100.998 231.528L102.021 237.489C102.29 236.898 102.674 236.407 103.174 236.016C103.679 235.617 104.246 235.363 104.874 235.255C105.841 235.089 106.739 235.197 107.567 235.578C108.394 235.952 109.087 236.56 109.646 237.401C110.203 238.235 110.582 239.235 110.782 240.4C110.974 241.522 110.947 242.569 110.7 243.542C110.459 244.513 110.021 245.322 109.383 245.969C108.747 246.623 107.963 247.03 107.031 247.19ZM106.377 245.984C106.935 245.888 107.395 245.584 107.758 245.071C108.127 244.557 108.357 243.929 108.448 243.187C108.534 242.46 108.512 241.716 108.381 240.953C108.166 239.704 107.771 238.631 107.196 237.734C106.893 237.278 106.53 236.94 106.107 236.722C105.683 236.497 105.231 236.426 104.751 236.508C104.3 236.585 103.907 236.795 103.573 237.135C103.238 237.469 103 237.88 102.858 238.37C102.715 238.845 102.627 239.332 102.597 239.831C102.566 240.331 102.591 240.813 102.671 241.279C102.837 242.246 103.1 243.102 103.46 243.847C103.819 244.584 104.25 245.146 104.752 245.532C105.264 245.931 105.806 246.082 106.377 245.984ZM121.341 242.293C120.723 244.027 119.585 245.036 117.926 245.321C117.672 245.364 117.429 245.388 117.197 245.391C116.965 245.395 116.7 245.375 116.402 245.332C115.852 245.259 115.309 244.952 114.773 244.412C114.518 244.158 114.295 243.811 114.104 243.372C113.911 242.925 113.765 242.413 113.665 241.834L112.573 235.471L110.583 235.812L110.38 234.627L114.646 233.894L115.938 241.422C116.098 242.354 116.362 243.002 116.73 243.368C117.098 243.734 117.599 243.862 118.234 243.753C118.686 243.675 119.136 243.46 119.584 243.107C120.039 242.753 120.399 242.328 120.662 241.832C120.926 241.336 121.02 240.866 120.943 240.421L119.879 234.217L117.952 234.548L117.748 233.362L121.962 232.639L123.706 242.803L125.798 242.673L125.966 243.647L121.752 244.686L121.341 242.293ZM126.302 242.368L128.367 242.014L126.824 233.025L124.76 233.38L124.556 232.194L128.538 231.325L129.199 233.588C129.33 233.042 129.566 232.551 129.905 232.115C130.244 231.679 130.645 231.323 131.106 231.048C131.567 230.773 132.049 230.592 132.55 230.506C132.79 230.465 133.003 230.439 133.191 230.429C133.385 230.417 133.601 230.427 133.839 230.459C134.106 230.493 134.346 230.554 134.557 230.641C134.775 230.727 135.004 230.855 135.244 231.025C135.493 231.207 135.709 231.428 135.892 231.687C136.073 231.94 136.245 232.263 136.407 232.656C136.562 233.051 136.683 233.506 136.772 234.021L137.864 240.384L140.034 240.012L140.237 241.198L133.853 242.293L133.65 241.107L135.587 240.775L134.499 234.433C134.345 233.537 134.054 232.896 133.624 232.512C133.194 232.121 132.658 231.981 132.015 232.091C131.62 232.159 131.266 232.296 130.952 232.502C130.646 232.707 130.402 232.96 130.221 233.26C130.046 233.551 129.911 233.887 129.816 234.267C129.728 234.638 129.684 235.02 129.686 235.412C129.676 235.777 129.708 236.174 129.782 236.605L130.643 241.623L132.57 241.293L132.773 242.479L126.506 243.554L126.302 242.368ZM146.789 245.905C145.264 246.166 144.076 245.992 143.223 245.383C142.76 245.056 142.48 244.61 142.383 244.045C142.293 243.523 142.389 243.088 142.671 242.742C142.961 242.394 143.363 242.176 143.878 242.088C144.139 242.043 144.39 242.066 144.631 242.155C144.871 242.245 145.074 242.391 145.24 242.595C145.406 242.799 145.513 243.043 145.562 243.325C145.608 243.593 145.559 243.881 145.416 244.189C145.281 244.503 145.111 244.721 144.907 244.843C145.378 244.922 145.825 244.925 146.249 244.853C147.336 244.666 148.083 244.109 148.491 243.182C148.905 242.253 148.981 241.023 148.719 239.492L148.395 237.607C148.317 238.085 148.144 238.537 147.875 238.961C147.614 239.383 147.275 239.739 146.86 240.029C146.451 240.317 145.997 240.504 145.496 240.59C144.91 240.69 144.345 240.678 143.8 240.554C143.254 240.422 142.768 240.193 142.341 239.867C141.917 239.554 141.535 239.169 141.195 238.712C140.862 238.253 140.586 237.745 140.367 237.186C140.146 236.621 139.986 236.046 139.885 235.46C139.753 234.69 139.725 233.936 139.802 233.196C139.877 232.449 140.056 231.757 140.339 231.12C140.627 230.468 141.045 229.92 141.594 229.477C142.143 229.034 142.781 228.75 143.508 228.626C143.938 228.552 144.393 228.575 144.872 228.697C145.356 228.81 145.801 229.013 146.208 229.307C146.614 229.6 146.932 229.967 147.16 230.408L147.076 228.329L150.612 227.723L150.828 228.983L149.303 229.244L150.944 238.805C151.18 240.181 151.137 241.409 150.813 242.489C150.633 243.087 150.374 243.611 150.037 244.061C149.707 244.51 149.271 244.894 148.73 245.212C148.163 245.549 147.516 245.78 146.789 245.905ZM145.72 239.167C146.327 239.063 146.824 238.76 147.21 238.257C147.603 237.754 147.851 237.148 147.955 236.44C148.047 235.749 148.03 235.036 147.904 234.302C147.741 233.349 147.477 232.529 147.112 231.844C146.746 231.151 146.31 230.641 145.803 230.313C145.295 229.979 144.755 229.861 144.184 229.959C143.626 230.055 143.165 230.352 142.8 230.851C142.434 231.342 142.203 231.945 142.107 232.659C142.018 233.365 142.038 234.098 142.169 234.861C142.385 236.117 142.768 237.163 143.318 237.999C143.612 238.442 143.966 238.77 144.381 238.983C144.794 239.188 145.24 239.249 145.72 239.167Z" fill="white"/>
<path d="M83.2 205.328C83.4491 206.78 84.8277 207.754 86.2793 207.505C87.7308 207.256 88.7056 205.877 88.4565 204.426C88.2074 202.974 86.8288 202 85.3772 202.249C83.9257 202.498 82.9509 203.876 83.2 205.328ZM179.895 74.083C180.145 75.5345 181.523 76.5093 182.975 76.2602C184.426 76.0111 185.401 74.6325 185.152 73.181C184.903 71.7294 183.524 70.7546 182.073 71.0037C180.621 71.2528 179.646 72.6315 179.895 74.083ZM86.2308 205.174L182.926 73.9286L182.121 73.3354L85.4257 204.58L86.2308 205.174Z" fill="white"/>
<path d="M429.965 145.822C430.214 147.273 429.239 148.652 427.787 148.901C426.336 149.15 424.957 148.176 424.708 146.724C424.459 145.272 425.434 143.894 426.885 143.645C428.337 143.396 429.716 144.37 429.965 145.822ZM295.046 54.3228C295.295 55.7743 294.32 57.1529 292.868 57.402C291.417 57.6511 290.038 56.6763 289.789 55.2248C289.54 53.7733 290.515 52.3946 291.966 52.1455C293.418 51.8964 294.797 52.8712 295.046 54.3228ZM427.056 146.687L292.137 55.1876L292.698 54.36L427.617 145.859L427.056 146.687Z" fill="white"/>
<path d="M334.214 199.794C333.964 198.343 332.586 197.368 331.134 197.617C329.683 197.866 328.708 199.245 328.957 200.696C329.206 202.148 330.585 203.122 332.036 202.873C333.488 202.624 334.463 201.246 334.214 199.794ZM200.173 222.796C199.924 221.344 198.545 220.37 197.094 220.619C195.642 220.868 194.667 222.246 194.916 223.698C195.165 225.149 196.544 226.124 197.996 225.875C199.447 225.626 200.422 224.247 200.173 222.796ZM331.501 199.752L197.46 222.754L197.629 223.74L331.67 200.738L331.501 199.752Z" fill="white"/>
<path d="M127.098 185.129L193.862 90.7044C196.732 86.6459 202.348 85.6821 206.407 88.5517L300.831 155.316C307.378 159.945 305.06 170.178 297.157 171.535L135.969 199.195C128.066 200.551 122.469 191.676 127.098 185.129Z" stroke="#E66346"/>
</g>
<defs>
<clipPath id="clip0_1363_459">
<rect width="528.961" height="384.85" fill="white"/>
</clipPath>
</defs>
</svg>
