<svg width="530" height="382" viewBox="0 0 530 382" fill="none" xmlns="http://www.w3.org/2000/svg">
<g clip-path="url(#clip0_1363_426)">
<rect x="198.5" y="0.5" width="135" height="38" rx="19" stroke="white"/>
<path d="M223.987 26.4639H226.34V13.3691H223.794V11.833H230.304L234.128 22.0166L237.694 11.833H243.742V13.3691H241.239V26.4639H243.903V28H236.459V26.4639H238.822V13.7236L234.633 25.2285C234.432 25.7728 234.171 26.0449 233.849 26.0449C233.684 26.0449 233.523 25.9769 233.365 25.8408C233.215 25.6976 233.097 25.515 233.011 25.293L228.306 13.3906V26.4639H231.013V28H223.987V26.4639ZM250.66 28.29C249.801 28.29 249.009 28.1289 248.286 27.8066C247.563 27.4772 246.965 27.026 246.492 26.4531C246.027 25.8945 245.669 25.2643 245.418 24.5625C245.174 23.8607 245.053 23.1338 245.053 22.3818C245.053 21.7301 245.128 21.0999 245.278 20.4912C245.436 19.8825 245.665 19.3203 245.966 18.8047C246.625 17.6803 247.506 16.9105 248.608 16.4951C249.188 16.2731 249.829 16.1621 250.531 16.1621C251.262 16.1621 251.942 16.291 252.572 16.5488C253.202 16.8066 253.754 17.179 254.227 17.666C254.706 18.1673 255.082 18.7975 255.354 19.5566C255.634 20.3158 255.781 21.1572 255.795 22.0811H247.513V22.167C247.513 23.4131 247.778 24.4622 248.308 25.3145C248.573 25.7441 248.927 26.0807 249.371 26.3242C249.815 26.5605 250.32 26.6787 250.886 26.6787C251.387 26.6787 251.87 26.5749 252.336 26.3672C252.809 26.1523 253.217 25.8444 253.561 25.4434C253.911 25.0352 254.162 24.5589 254.312 24.0146L255.569 24.4121C255.383 25.1999 255.064 25.8874 254.613 26.4746C254.162 27.0547 253.6 27.5023 252.927 27.8174C252.254 28.1325 251.498 28.29 250.66 28.29ZM253.432 20.9209C253.417 20.2406 253.281 19.639 253.023 19.1162C252.773 18.5863 252.433 18.1745 252.003 17.8809C251.58 17.5872 251.111 17.4404 250.596 17.4404C250.073 17.4404 249.593 17.5872 249.156 17.8809C248.719 18.1745 248.361 18.5863 248.082 19.1162C247.81 19.639 247.645 20.2406 247.588 20.9209H253.432ZM257.138 26.7969H259.232V17.6768H257.138V16.4736L261.209 16.291L261.478 18.6328C261.7 18.1172 262.015 17.6732 262.423 17.3008C262.831 16.9284 263.286 16.6455 263.787 16.4521C264.288 16.2588 264.793 16.1621 265.302 16.1621C265.545 16.1621 265.76 16.1729 265.946 16.1943C266.14 16.2158 266.351 16.2624 266.58 16.334C266.838 16.4128 267.063 16.513 267.257 16.6348C267.457 16.7565 267.661 16.9212 267.869 17.1289C268.084 17.3509 268.259 17.6051 268.396 17.8916C268.532 18.1709 268.646 18.5182 268.739 18.9336C268.825 19.349 268.868 19.818 268.868 20.3408V26.7969H271.07V28H264.593V26.7969H266.559V20.3623C266.559 19.4528 266.38 18.7725 266.021 18.3213C265.663 17.863 265.159 17.6338 264.507 17.6338C264.106 17.6338 263.733 17.709 263.39 17.8594C263.053 18.0098 262.77 18.2174 262.541 18.4824C262.319 18.7402 262.129 19.0482 261.972 19.4062C261.821 19.7572 261.714 20.126 261.649 20.5127C261.578 20.8708 261.542 21.2682 261.542 21.7051V26.7969H263.497V28H257.138V26.7969ZM276.334 28.29C275.181 28.29 274.143 28.0716 273.219 27.6348C272.739 27.4128 272.359 27.1084 272.08 26.7217C271.801 26.3278 271.661 25.8838 271.661 25.3896C271.661 25.0889 271.729 24.8167 271.865 24.5732C272.001 24.3226 272.18 24.1292 272.402 23.9932C272.632 23.8571 272.875 23.7891 273.133 23.7891C273.555 23.7891 273.903 23.9036 274.175 24.1328C274.447 24.362 274.583 24.6807 274.583 25.0889C274.583 25.3252 274.533 25.54 274.433 25.7334C274.34 25.9268 274.211 26.0807 274.046 26.1953C273.881 26.3027 273.709 26.3564 273.53 26.3564C273.81 26.557 274.182 26.7253 274.647 26.8613C275.12 26.9902 275.589 27.0547 276.055 27.0547C276.649 27.0547 277.154 26.9974 277.569 26.8828C277.992 26.7682 278.35 26.5713 278.644 26.292C278.951 26.0055 279.105 25.6296 279.105 25.1641C279.105 24.8275 279.002 24.5231 278.794 24.251C278.586 23.9788 278.307 23.764 277.956 23.6064C277.175 23.2555 276.334 22.9619 275.432 22.7256C274.966 22.6038 274.511 22.4499 274.067 22.2637C273.631 22.0775 273.244 21.8698 272.907 21.6406C272.549 21.4043 272.266 21.0964 272.059 20.7168C271.858 20.3372 271.758 19.9111 271.758 19.4385C271.758 18.9658 271.858 18.5361 272.059 18.1494C272.266 17.7555 272.538 17.4333 272.875 17.1826C273.19 16.9535 273.552 16.7565 273.96 16.5918C274.375 16.4271 274.78 16.3125 275.174 16.248C275.575 16.1908 275.94 16.1621 276.27 16.1621C276.785 16.1621 277.304 16.2194 277.827 16.334C278.357 16.4486 278.851 16.6097 279.31 16.8174C279.775 17.0394 280.147 17.3258 280.427 17.6768C280.706 18.0205 280.846 18.3929 280.846 18.7939C280.846 19.1019 280.781 19.3812 280.652 19.6318C280.531 19.8753 280.362 20.0651 280.147 20.2012C279.933 20.3372 279.703 20.4053 279.46 20.4053C279.037 20.4053 278.687 20.2799 278.407 20.0293C278.128 19.7786 277.988 19.4421 277.988 19.0195C277.988 18.8333 278.035 18.6543 278.128 18.4824C278.221 18.3034 278.321 18.1709 278.429 18.085L278.805 17.8271C278.096 17.4834 277.294 17.3115 276.398 17.3115C275.904 17.3115 275.457 17.3867 275.056 17.5371C274.655 17.6803 274.34 17.8916 274.11 18.1709C273.881 18.4502 273.767 18.7796 273.767 19.1592C273.767 19.4313 273.87 19.6784 274.078 19.9004C274.286 20.1224 274.569 20.2979 274.927 20.4268C275.757 20.749 276.603 21.0247 277.462 21.2539C277.92 21.3828 278.371 21.5511 278.815 21.7588C279.259 21.9665 279.657 22.1992 280.008 22.457C280.366 22.7148 280.645 23.0514 280.846 23.4668C281.053 23.875 281.157 24.3298 281.157 24.8311C281.157 25.3395 281.064 25.7979 280.878 26.2061C280.692 26.6143 280.441 26.9508 280.126 27.2158C279.832 27.4665 279.474 27.6777 279.052 27.8496C278.629 28.0143 278.189 28.1289 277.73 28.1934C277.294 28.2578 276.828 28.29 276.334 28.29ZM288.344 28.29C287.585 28.29 286.861 28.154 286.174 27.8818C285.493 27.6097 284.903 27.223 284.401 26.7217C283.893 26.2204 283.495 25.6009 283.209 24.8633C282.923 24.1185 282.779 23.3164 282.779 22.457C282.779 21.6263 282.905 20.8385 283.155 20.0938C283.406 19.349 283.768 18.6794 284.24 18.085C284.72 17.4834 285.336 17.0143 286.088 16.6777C286.847 16.334 287.685 16.1621 288.602 16.1621C289.124 16.1621 289.647 16.2409 290.17 16.3984C290.7 16.5488 291.187 16.7708 291.631 17.0645C292.096 17.3724 292.465 17.777 292.737 18.2783C293.017 18.7725 293.156 19.3203 293.156 19.9219C293.156 20.2155 293.088 20.4984 292.952 20.7705C292.816 21.0355 292.619 21.2503 292.361 21.415C292.104 21.5798 291.806 21.6621 291.47 21.6621C290.997 21.6621 290.603 21.5225 290.288 21.2432C289.973 20.9639 289.815 20.5986 289.815 20.1475C289.815 19.6963 289.973 19.3382 290.288 19.0732C290.61 18.8083 291.004 18.6758 291.47 18.6758C291.226 18.2819 290.886 17.9668 290.449 17.7305C290.012 17.4941 289.522 17.376 288.978 17.376C288.369 17.376 287.814 17.512 287.312 17.7842C286.818 18.0492 286.421 18.4144 286.12 18.8799C285.826 19.3311 285.601 19.8359 285.443 20.3945C285.293 20.946 285.218 21.5153 285.218 22.1025C285.218 23.0192 285.361 23.8105 285.647 24.4766C285.934 25.1426 286.346 25.6546 286.883 26.0127C287.427 26.3708 288.075 26.5498 288.827 26.5498C289.25 26.5498 289.661 26.4639 290.062 26.292C290.471 26.113 290.822 25.8802 291.115 25.5938C291.387 25.3216 291.617 25.0495 291.803 24.7773C291.989 24.498 292.118 24.2438 292.189 24.0146L293.403 24.4121C293.217 25.1999 292.895 25.8838 292.437 26.4639C291.978 27.0439 291.402 27.4951 290.707 27.8174C290.012 28.1325 289.225 28.29 288.344 28.29ZM294.478 26.7969H296.454V13.1543H294.349V11.833H298.764V18.5146C299.029 17.9775 299.38 17.5228 299.816 17.1504C300.253 16.778 300.708 16.5166 301.181 16.3662C301.61 16.2301 302.062 16.1621 302.534 16.1621C302.878 16.1621 303.179 16.1872 303.437 16.2373C303.701 16.2874 303.995 16.3877 304.317 16.5381C304.683 16.7171 304.983 16.9463 305.22 17.2256C305.463 17.5049 305.667 17.8952 305.832 18.3965C306.004 18.9193 306.09 19.5316 306.09 20.2334V26.7969H308.399V28H301.696V26.7969H303.78V20.1475C303.78 19.3382 303.626 18.7259 303.318 18.3105C303.018 17.888 302.602 17.6768 302.072 17.6768C301.714 17.6768 301.338 17.777 300.944 17.9775C300.558 18.1781 300.2 18.4502 299.87 18.7939C299.534 19.152 299.265 19.5781 299.064 20.0723C298.864 20.5592 298.764 21.0605 298.764 21.5762V26.7969H300.858V28H294.478V26.7969Z" fill="white"/>
<rect x="186.5" y="222.5" width="159" height="159" rx="79.5" fill="white"/>
<rect x="186.5" y="222.5" width="159" height="159" rx="79.5" stroke="white"/>
<path d="M202.653 310.79C201.679 310.79 200.77 310.636 199.925 310.328C199.08 310.013 198.353 309.58 197.744 309.028C197.157 308.491 196.652 307.865 196.229 307.148C195.814 306.425 195.51 305.662 195.316 304.86C195.116 304.065 195.016 303.245 195.016 302.4C195.016 300.653 195.42 299.074 196.229 297.663C196.659 296.918 197.171 296.281 197.766 295.751C198.367 295.214 199.076 294.788 199.893 294.473C200.752 294.158 201.672 294 202.653 294C203.627 294 204.537 294.158 205.382 294.473C206.234 294.788 206.961 295.221 207.562 295.772C208.15 296.31 208.651 296.94 209.066 297.663C209.482 298.379 209.79 299.138 209.99 299.94C210.184 300.743 210.28 301.562 210.28 302.4C210.28 304.148 209.876 305.727 209.066 307.138C208.637 307.882 208.125 308.52 207.53 309.05C206.936 309.58 206.23 309.999 205.414 310.307C204.569 310.629 203.649 310.79 202.653 310.79ZM202.653 309.286C203.405 309.286 204.096 309.096 204.727 308.717C205.364 308.33 205.887 307.804 206.295 307.138C206.696 306.493 207 305.766 207.208 304.957C207.423 304.141 207.53 303.296 207.53 302.422C207.53 301.72 207.462 301.036 207.326 300.37C207.197 299.704 206.997 299.085 206.725 298.512C206.13 297.251 205.346 296.378 204.372 295.891C203.849 295.633 203.276 295.504 202.653 295.504C201.901 295.504 201.21 295.697 200.58 296.084C199.95 296.464 199.427 296.986 199.012 297.652C198.611 298.304 198.303 299.038 198.088 299.854C197.873 300.664 197.766 301.505 197.766 302.379C197.766 303.861 198.038 305.172 198.582 306.311C198.868 306.926 199.201 307.453 199.581 307.89C199.968 308.319 200.419 308.656 200.935 308.899C201.465 309.157 202.037 309.286 202.653 309.286ZM211.72 309.297H213.814V300.177H211.72V298.974L215.791 298.791L216.081 301.305C216.26 300.696 216.586 300.123 217.059 299.586C217.309 299.299 217.617 299.074 217.982 298.909C218.355 298.744 218.752 298.662 219.175 298.662C219.569 298.662 219.927 298.737 220.249 298.888C220.571 299.031 220.826 299.242 221.012 299.521C221.205 299.801 221.302 300.13 221.302 300.51C221.302 300.868 221.227 301.183 221.076 301.455C220.933 301.72 220.736 301.924 220.485 302.067C220.235 302.203 219.959 302.271 219.658 302.271C219.236 302.271 218.874 302.139 218.573 301.874C218.28 301.609 218.133 301.265 218.133 300.843C218.133 300.707 218.165 300.56 218.229 300.402C218.301 300.245 218.376 300.116 218.455 300.016L218.573 299.897C218.151 299.897 217.775 300.03 217.445 300.295C217.116 300.553 216.858 300.911 216.672 301.369C216.307 302.257 216.124 303.242 216.124 304.323V309.297H218.541V310.5H211.72V309.297ZM227.274 316.247C225.728 316.247 224.585 315.875 223.848 315.13C223.447 314.729 223.246 314.242 223.246 313.669C223.246 313.139 223.414 312.727 223.751 312.434C224.095 312.14 224.528 311.993 225.051 311.993C225.316 311.993 225.559 312.058 225.781 312.187C226.003 312.315 226.179 312.494 226.308 312.724C226.437 312.953 226.501 313.211 226.501 313.497C226.501 313.769 226.404 314.045 226.211 314.324C226.025 314.611 225.821 314.797 225.599 314.883C226.05 315.04 226.49 315.119 226.92 315.119C228.023 315.119 228.854 314.697 229.412 313.852C229.978 313.007 230.261 311.807 230.261 310.253V308.341C230.103 308.799 229.856 309.215 229.52 309.587C229.19 309.959 228.796 310.253 228.338 310.468C227.887 310.683 227.407 310.79 226.898 310.79C226.304 310.79 225.749 310.683 225.233 310.468C224.718 310.246 224.277 309.938 223.912 309.544C223.547 309.164 223.235 308.72 222.978 308.212C222.727 307.703 222.541 307.156 222.419 306.568C222.297 305.974 222.236 305.38 222.236 304.785C222.236 304.005 222.337 303.256 222.537 302.54C222.738 301.817 223.031 301.165 223.418 300.585C223.812 299.991 224.317 299.521 224.933 299.178C225.549 298.834 226.225 298.662 226.963 298.662C227.4 298.662 227.844 298.762 228.295 298.963C228.753 299.156 229.158 299.432 229.509 299.79C229.86 300.148 230.11 300.563 230.261 301.036L230.529 298.974H234.117V300.252H232.57V309.952C232.57 311.349 232.32 312.552 231.818 313.562C231.539 314.12 231.195 314.593 230.787 314.979C230.386 315.366 229.892 315.671 229.305 315.893C228.689 316.129 228.012 316.247 227.274 316.247ZM227.36 309.426C227.976 309.426 228.517 309.211 228.982 308.781C229.455 308.352 229.802 307.797 230.024 307.116C230.232 306.45 230.336 305.745 230.336 305C230.336 304.033 230.214 303.181 229.971 302.443C229.727 301.699 229.383 301.122 228.939 300.714C228.495 300.299 227.983 300.091 227.403 300.091C226.838 300.091 226.333 300.306 225.889 300.735C225.445 301.158 225.115 301.713 224.9 302.4C224.693 303.081 224.589 303.808 224.589 304.581C224.589 305.856 224.789 306.951 225.19 307.868C225.405 308.355 225.699 308.738 226.071 309.018C226.444 309.29 226.873 309.426 227.36 309.426ZM238.049 310.79C237.462 310.79 236.942 310.686 236.491 310.479C236.04 310.264 235.689 309.956 235.438 309.555C235.188 309.154 235.062 308.685 235.062 308.147C235.062 307.725 235.156 307.338 235.342 306.987C235.535 306.629 235.797 306.328 236.126 306.085C236.441 305.849 236.799 305.623 237.2 305.408C237.608 305.193 238.024 305.007 238.446 304.85C239.306 304.542 240.079 304.187 240.767 303.786C241.096 303.593 241.354 303.36 241.54 303.088C241.726 302.816 241.819 302.522 241.819 302.207C241.819 301.405 241.622 300.803 241.229 300.402C240.835 299.994 240.269 299.79 239.531 299.79C239.016 299.79 238.529 299.872 238.07 300.037C237.619 300.195 237.268 300.413 237.018 300.692C237.462 300.692 237.82 300.814 238.092 301.058C238.371 301.294 238.511 301.588 238.511 301.938C238.511 302.232 238.443 302.497 238.307 302.733C238.178 302.963 237.999 303.142 237.77 303.271C237.54 303.399 237.29 303.464 237.018 303.464C236.574 303.464 236.198 303.31 235.89 303.002C235.589 302.694 235.438 302.268 235.438 301.724C235.438 301.43 235.535 301.115 235.729 300.778C235.922 300.435 236.194 300.102 236.545 299.779C236.91 299.443 237.397 299.174 238.006 298.974C238.622 298.766 239.284 298.662 239.993 298.662C240.588 298.662 241.125 298.73 241.604 298.866C242.084 298.995 242.518 299.203 242.904 299.489C243.298 299.783 243.599 300.188 243.807 300.703C244.021 301.219 244.129 301.824 244.129 302.519V307.46C244.129 307.768 244.165 308.047 244.236 308.298C244.315 308.541 244.448 308.76 244.634 308.953C244.841 309.161 245.096 309.265 245.396 309.265C246.306 309.265 246.761 308.627 246.761 307.353V305.752H247.932V307.138C247.932 307.847 247.856 308.452 247.706 308.953C247.556 309.447 247.337 309.823 247.051 310.081C246.771 310.332 246.464 310.511 246.127 310.618C245.79 310.733 245.393 310.79 244.935 310.79C244.44 310.79 243.986 310.693 243.57 310.5C243.162 310.307 242.815 310.009 242.528 309.608C242.22 309.186 242.041 308.685 241.991 308.104C241.791 308.62 241.486 309.082 241.078 309.49C240.677 309.898 240.212 310.217 239.682 310.446C239.152 310.675 238.607 310.79 238.049 310.79ZM238.607 309.243C239.073 309.243 239.56 309.104 240.068 308.824C240.577 308.545 240.996 308.187 241.325 307.75C241.655 307.327 241.819 306.916 241.819 306.515V304.227C241.411 304.635 240.917 305.018 240.337 305.376C239.764 305.734 239.241 306.021 238.769 306.235C238.346 306.422 238.002 306.669 237.737 306.977C237.479 307.277 237.351 307.632 237.351 308.04C237.351 308.405 237.458 308.699 237.673 308.921C237.895 309.136 238.206 309.243 238.607 309.243ZM248.372 309.297H250.467V300.177H248.372V298.974L252.443 298.791L252.712 301.133C252.934 300.617 253.249 300.173 253.657 299.801C254.065 299.428 254.52 299.146 255.021 298.952C255.523 298.759 256.028 298.662 256.536 298.662C256.78 298.662 256.994 298.673 257.181 298.694C257.374 298.716 257.585 298.762 257.814 298.834C258.072 298.913 258.298 299.013 258.491 299.135C258.692 299.257 258.896 299.421 259.104 299.629C259.318 299.851 259.494 300.105 259.63 300.392C259.766 300.671 259.881 301.018 259.974 301.434C260.06 301.849 260.103 302.318 260.103 302.841V309.297H262.305V310.5H255.827V309.297H257.793V302.862C257.793 301.953 257.614 301.272 257.256 300.821C256.898 300.363 256.393 300.134 255.741 300.134C255.34 300.134 254.968 300.209 254.624 300.359C254.287 300.51 254.005 300.717 253.775 300.982C253.553 301.24 253.364 301.548 253.206 301.906C253.056 302.257 252.948 302.626 252.884 303.013C252.812 303.371 252.776 303.768 252.776 304.205V309.297H254.731V310.5H248.372V309.297ZM266.064 296.943C265.778 296.943 265.513 296.872 265.27 296.729C265.026 296.585 264.833 296.392 264.689 296.148C264.546 295.905 264.475 295.644 264.475 295.364C264.475 295.071 264.546 294.802 264.689 294.559C264.833 294.308 265.026 294.111 265.27 293.968C265.513 293.825 265.778 293.753 266.064 293.753C266.344 293.753 266.605 293.828 266.849 293.979C267.099 294.122 267.296 294.319 267.439 294.569C267.59 294.813 267.665 295.078 267.665 295.364C267.665 295.644 267.59 295.905 267.439 296.148C267.296 296.392 267.099 296.585 266.849 296.729C266.605 296.872 266.344 296.943 266.064 296.943ZM263.046 310.5V309.297H265.119V300.177H263.024V298.974H267.429V309.297H269.534V310.5H263.046ZM275.131 310.79C273.978 310.79 272.939 310.572 272.016 310.135C271.536 309.913 271.156 309.608 270.877 309.222C270.598 308.828 270.458 308.384 270.458 307.89C270.458 307.589 270.526 307.317 270.662 307.073C270.798 306.823 270.977 306.629 271.199 306.493C271.428 306.357 271.672 306.289 271.93 306.289C272.352 306.289 272.7 306.404 272.972 306.633C273.244 306.862 273.38 307.181 273.38 307.589C273.38 307.825 273.33 308.04 273.229 308.233C273.136 308.427 273.007 308.581 272.843 308.695C272.678 308.803 272.506 308.856 272.327 308.856C272.606 309.057 272.979 309.225 273.444 309.361C273.917 309.49 274.386 309.555 274.852 309.555C275.446 309.555 275.951 309.497 276.366 309.383C276.789 309.268 277.147 309.071 277.44 308.792C277.748 308.506 277.902 308.13 277.902 307.664C277.902 307.327 277.799 307.023 277.591 306.751C277.383 306.479 277.104 306.264 276.753 306.106C275.972 305.756 275.131 305.462 274.229 305.226C273.763 305.104 273.308 304.95 272.864 304.764C272.427 304.577 272.041 304.37 271.704 304.141C271.346 303.904 271.063 303.596 270.855 303.217C270.655 302.837 270.555 302.411 270.555 301.938C270.555 301.466 270.655 301.036 270.855 300.649C271.063 300.256 271.335 299.933 271.672 299.683C271.987 299.453 272.349 299.257 272.757 299.092C273.172 298.927 273.577 298.812 273.971 298.748C274.372 298.691 274.737 298.662 275.066 298.662C275.582 298.662 276.101 298.719 276.624 298.834C277.154 298.949 277.648 299.11 278.106 299.317C278.572 299.539 278.944 299.826 279.224 300.177C279.503 300.521 279.643 300.893 279.643 301.294C279.643 301.602 279.578 301.881 279.449 302.132C279.327 302.375 279.159 302.565 278.944 302.701C278.729 302.837 278.5 302.905 278.257 302.905C277.834 302.905 277.483 302.78 277.204 302.529C276.925 302.279 276.785 301.942 276.785 301.52C276.785 301.333 276.832 301.154 276.925 300.982C277.018 300.803 277.118 300.671 277.226 300.585L277.602 300.327C276.893 299.983 276.09 299.812 275.195 299.812C274.701 299.812 274.254 299.887 273.853 300.037C273.451 300.18 273.136 300.392 272.907 300.671C272.678 300.95 272.563 301.28 272.563 301.659C272.563 301.931 272.667 302.178 272.875 302.4C273.083 302.622 273.366 302.798 273.724 302.927C274.554 303.249 275.399 303.525 276.259 303.754C276.717 303.883 277.168 304.051 277.612 304.259C278.056 304.466 278.454 304.699 278.805 304.957C279.163 305.215 279.442 305.551 279.643 305.967C279.85 306.375 279.954 306.83 279.954 307.331C279.954 307.84 279.861 308.298 279.675 308.706C279.489 309.114 279.238 309.451 278.923 309.716C278.629 309.966 278.271 310.178 277.849 310.35C277.426 310.514 276.986 310.629 276.527 310.693C276.09 310.758 275.625 310.79 275.131 310.79ZM284.605 310.79C284.018 310.79 283.499 310.686 283.048 310.479C282.597 310.264 282.246 309.956 281.995 309.555C281.744 309.154 281.619 308.685 281.619 308.147C281.619 307.725 281.712 307.338 281.898 306.987C282.092 306.629 282.353 306.328 282.683 306.085C282.998 305.849 283.356 305.623 283.757 305.408C284.165 305.193 284.58 305.007 285.003 304.85C285.862 304.542 286.636 304.187 287.323 303.786C287.653 303.593 287.91 303.36 288.097 303.088C288.283 302.816 288.376 302.522 288.376 302.207C288.376 301.405 288.179 300.803 287.785 300.402C287.391 299.994 286.826 299.79 286.088 299.79C285.572 299.79 285.085 299.872 284.627 300.037C284.176 300.195 283.825 300.413 283.574 300.692C284.018 300.692 284.376 300.814 284.648 301.058C284.928 301.294 285.067 301.588 285.067 301.938C285.067 302.232 284.999 302.497 284.863 302.733C284.734 302.963 284.555 303.142 284.326 303.271C284.097 303.399 283.846 303.464 283.574 303.464C283.13 303.464 282.754 303.31 282.446 303.002C282.146 302.694 281.995 302.268 281.995 301.724C281.995 301.43 282.092 301.115 282.285 300.778C282.479 300.435 282.751 300.102 283.102 299.779C283.467 299.443 283.954 299.174 284.562 298.974C285.178 298.766 285.841 298.662 286.55 298.662C287.144 298.662 287.681 298.73 288.161 298.866C288.641 298.995 289.074 299.203 289.461 299.489C289.855 299.783 290.156 300.188 290.363 300.703C290.578 301.219 290.686 301.824 290.686 302.519V307.46C290.686 307.768 290.721 308.047 290.793 308.298C290.872 308.541 291.004 308.76 291.19 308.953C291.398 309.161 291.652 309.265 291.953 309.265C292.863 309.265 293.317 308.627 293.317 307.353V305.752H294.488V307.138C294.488 307.847 294.413 308.452 294.263 308.953C294.112 309.447 293.894 309.823 293.607 310.081C293.328 310.332 293.02 310.511 292.684 310.618C292.347 310.733 291.95 310.79 291.491 310.79C290.997 310.79 290.542 310.693 290.127 310.5C289.719 310.307 289.371 310.009 289.085 309.608C288.777 309.186 288.598 308.685 288.548 308.104C288.347 308.62 288.043 309.082 287.635 309.49C287.234 309.898 286.768 310.217 286.238 310.446C285.708 310.675 285.164 310.79 284.605 310.79ZM285.164 309.243C285.63 309.243 286.117 309.104 286.625 308.824C287.133 308.545 287.552 308.187 287.882 307.75C288.211 307.327 288.376 306.916 288.376 306.515V304.227C287.968 304.635 287.474 305.018 286.894 305.376C286.321 305.734 285.798 306.021 285.325 306.235C284.903 306.422 284.559 306.669 284.294 306.977C284.036 307.277 283.907 307.632 283.907 308.04C283.907 308.405 284.015 308.699 284.229 308.921C284.451 309.136 284.763 309.243 285.164 309.243ZM299.215 310.79C298.291 310.79 297.5 310.518 296.841 309.974C296.497 309.694 296.225 309.326 296.024 308.867C295.831 308.409 295.734 307.897 295.734 307.331V300.177H293.543V299.672C294.073 299.514 294.563 299.228 295.015 298.812C295.466 298.397 295.835 297.928 296.121 297.405C296.386 296.933 296.622 296.453 296.83 295.966C297.095 295.357 297.274 294.967 297.367 294.795C297.518 294.487 297.65 294.333 297.765 294.333C297.851 294.333 297.919 294.365 297.969 294.43C298.019 294.494 298.044 294.587 298.044 294.709V298.974H302.276V300.198H298.044V307.396C298.044 308.011 298.184 308.48 298.463 308.803C298.742 309.125 299.125 309.286 299.612 309.286C300.207 309.286 300.644 309.093 300.923 308.706C301.209 308.312 301.353 307.657 301.353 306.74V305.193H302.642V306.515C302.642 307.489 302.531 308.287 302.309 308.91C302.087 309.533 301.725 310.002 301.224 310.317C300.722 310.632 300.053 310.79 299.215 310.79ZM306.949 296.943C306.663 296.943 306.398 296.872 306.154 296.729C305.911 296.585 305.717 296.392 305.574 296.148C305.431 295.905 305.359 295.644 305.359 295.364C305.359 295.071 305.431 294.802 305.574 294.559C305.717 294.308 305.911 294.111 306.154 293.968C306.398 293.825 306.663 293.753 306.949 293.753C307.229 293.753 307.49 293.828 307.733 293.979C307.984 294.122 308.181 294.319 308.324 294.569C308.475 294.813 308.55 295.078 308.55 295.364C308.55 295.644 308.475 295.905 308.324 296.148C308.181 296.392 307.984 296.585 307.733 296.729C307.49 296.872 307.229 296.943 306.949 296.943ZM303.931 310.5V309.297H306.004V300.177H303.909V298.974H308.313V309.297H310.419V310.5H303.931ZM316.918 310.79C315.794 310.79 314.805 310.532 313.953 310.017C313.101 309.494 312.442 308.774 311.977 307.857C311.518 306.941 311.289 305.899 311.289 304.731C311.289 303.571 311.507 302.536 311.944 301.627C312.388 300.717 313.036 299.998 313.889 299.468C314.748 298.931 315.751 298.662 316.896 298.662C317.742 298.662 318.519 298.816 319.228 299.124C319.944 299.432 320.542 299.862 321.021 300.413C321.494 300.957 321.856 301.602 322.106 302.347C322.357 303.084 322.482 303.879 322.482 304.731C322.482 305.884 322.264 306.916 321.827 307.825C321.39 308.728 320.749 309.444 319.904 309.974C319.059 310.518 318.064 310.79 316.918 310.79ZM316.918 309.426C317.548 309.426 318.096 309.24 318.562 308.867C319.034 308.488 319.396 307.954 319.646 307.267C319.897 306.579 320.022 305.781 320.022 304.871C320.022 303.876 319.915 303.023 319.7 302.314C319.485 301.598 319.145 301.025 318.68 300.596C318.2 300.159 317.605 299.94 316.896 299.94C316.202 299.94 315.611 300.155 315.124 300.585C314.637 301.015 314.286 301.602 314.071 302.347C313.856 303.063 313.749 303.904 313.749 304.871C313.749 305.781 313.874 306.579 314.125 307.267C314.383 307.954 314.752 308.488 315.231 308.867C315.711 309.24 316.273 309.426 316.918 309.426ZM323.804 309.297H325.898V300.177H323.804V298.974L327.875 298.791L328.144 301.133C328.366 300.617 328.681 300.173 329.089 299.801C329.497 299.428 329.952 299.146 330.453 298.952C330.954 298.759 331.459 298.662 331.968 298.662C332.211 298.662 332.426 298.673 332.612 298.694C332.806 298.716 333.017 298.762 333.246 298.834C333.504 298.913 333.729 299.013 333.923 299.135C334.123 299.257 334.327 299.421 334.535 299.629C334.75 299.851 334.925 300.105 335.062 300.392C335.198 300.671 335.312 301.018 335.405 301.434C335.491 301.849 335.534 302.318 335.534 302.841V309.297H337.736V310.5H331.259V309.297H333.225V302.862C333.225 301.953 333.046 301.272 332.688 300.821C332.329 300.363 331.825 300.134 331.173 300.134C330.772 300.134 330.399 300.209 330.056 300.359C329.719 300.51 329.436 300.717 329.207 300.982C328.985 301.24 328.795 301.548 328.638 301.906C328.487 302.257 328.38 302.626 328.315 303.013C328.244 303.371 328.208 303.768 328.208 304.205V309.297H330.163V310.5H323.804V309.297Z" fill="#040404"/>
<rect x="346.5" y="183.5" width="183" height="38" rx="19" stroke="white"/>
<path d="M375.287 211V209.464H377.79V196.369H373.676V201.364H371.678V194.833H386.352V201.364H384.343V196.369H380.325V209.464H382.893V211H375.287ZM392.915 211.29C392.056 211.29 391.264 211.129 390.541 210.807C389.818 210.477 389.22 210.026 388.747 209.453C388.282 208.895 387.924 208.264 387.673 207.562C387.429 206.861 387.308 206.134 387.308 205.382C387.308 204.73 387.383 204.1 387.533 203.491C387.691 202.882 387.92 202.32 388.221 201.805C388.88 200.68 389.76 199.91 390.863 199.495C391.443 199.273 392.084 199.162 392.786 199.162C393.517 199.162 394.197 199.291 394.827 199.549C395.457 199.807 396.009 200.179 396.481 200.666C396.961 201.167 397.337 201.798 397.609 202.557C397.889 203.316 398.035 204.157 398.05 205.081H389.768V205.167C389.768 206.413 390.033 207.462 390.562 208.314C390.827 208.744 391.182 209.081 391.626 209.324C392.07 209.561 392.575 209.679 393.141 209.679C393.642 209.679 394.125 209.575 394.591 209.367C395.063 209.152 395.472 208.844 395.815 208.443C396.166 208.035 396.417 207.559 396.567 207.015L397.824 207.412C397.638 208.2 397.319 208.887 396.868 209.475C396.417 210.055 395.855 210.502 395.182 210.817C394.508 211.132 393.753 211.29 392.915 211.29ZM395.687 203.921C395.672 203.241 395.536 202.639 395.278 202.116C395.028 201.586 394.688 201.174 394.258 200.881C393.835 200.587 393.366 200.44 392.851 200.44C392.328 200.44 391.848 200.587 391.411 200.881C390.974 201.174 390.616 201.586 390.337 202.116C390.065 202.639 389.9 203.241 389.843 203.921H395.687ZM405.226 211.29C404.466 211.29 403.743 211.154 403.056 210.882C402.375 210.61 401.785 210.223 401.283 209.722C400.775 209.22 400.377 208.601 400.091 207.863C399.804 207.118 399.661 206.316 399.661 205.457C399.661 204.626 399.786 203.839 400.037 203.094C400.288 202.349 400.649 201.679 401.122 201.085C401.602 200.483 402.218 200.014 402.97 199.678C403.729 199.334 404.567 199.162 405.483 199.162C406.006 199.162 406.529 199.241 407.052 199.398C407.582 199.549 408.069 199.771 408.513 200.064C408.978 200.372 409.347 200.777 409.619 201.278C409.898 201.772 410.038 202.32 410.038 202.922C410.038 203.215 409.97 203.498 409.834 203.771C409.698 204.035 409.501 204.25 409.243 204.415C408.985 204.58 408.688 204.662 408.352 204.662C407.879 204.662 407.485 204.522 407.17 204.243C406.855 203.964 406.697 203.599 406.697 203.147C406.697 202.696 406.855 202.338 407.17 202.073C407.492 201.808 407.886 201.676 408.352 201.676C408.108 201.282 407.768 200.967 407.331 200.73C406.894 200.494 406.404 200.376 405.859 200.376C405.251 200.376 404.696 200.512 404.194 200.784C403.7 201.049 403.303 201.414 403.002 201.88C402.708 202.331 402.483 202.836 402.325 203.395C402.175 203.946 402.1 204.515 402.1 205.103C402.1 206.019 402.243 206.811 402.529 207.477C402.816 208.143 403.228 208.655 403.765 209.013C404.309 209.371 404.957 209.55 405.709 209.55C406.132 209.55 406.543 209.464 406.944 209.292C407.353 209.113 407.703 208.88 407.997 208.594C408.269 208.322 408.498 208.049 408.685 207.777C408.871 207.498 409 207.244 409.071 207.015L410.285 207.412C410.099 208.2 409.777 208.884 409.318 209.464C408.86 210.044 408.284 210.495 407.589 210.817C406.894 211.132 406.106 211.29 405.226 211.29ZM411.359 209.797H413.336V196.154H411.23V194.833H415.646V201.515C415.91 200.978 416.261 200.523 416.698 200.15C417.135 199.778 417.59 199.517 418.062 199.366C418.492 199.23 418.943 199.162 419.416 199.162C419.76 199.162 420.061 199.187 420.318 199.237C420.583 199.287 420.877 199.388 421.199 199.538C421.564 199.717 421.865 199.946 422.102 200.226C422.345 200.505 422.549 200.895 422.714 201.396C422.886 201.919 422.972 202.532 422.972 203.233V209.797H425.281V211H418.578V209.797H420.662V203.147C420.662 202.338 420.508 201.726 420.2 201.311C419.899 200.888 419.484 200.677 418.954 200.677C418.596 200.677 418.22 200.777 417.826 200.978C417.439 201.178 417.081 201.45 416.752 201.794C416.415 202.152 416.147 202.578 415.946 203.072C415.746 203.559 415.646 204.061 415.646 204.576V209.797H417.74V211H411.359V209.797ZM425.969 209.797H428.063V200.677H425.969V199.474L430.04 199.291L430.309 201.633C430.531 201.117 430.846 200.673 431.254 200.301C431.662 199.928 432.117 199.646 432.618 199.452C433.119 199.259 433.624 199.162 434.133 199.162C434.376 199.162 434.591 199.173 434.777 199.194C434.971 199.216 435.182 199.262 435.411 199.334C435.669 199.413 435.895 199.513 436.088 199.635C436.288 199.757 436.493 199.921 436.7 200.129C436.915 200.351 437.09 200.605 437.227 200.892C437.363 201.171 437.477 201.518 437.57 201.934C437.656 202.349 437.699 202.818 437.699 203.341V209.797H439.901V211H433.424V209.797H435.39V203.362C435.39 202.453 435.211 201.772 434.853 201.321C434.494 200.863 433.99 200.634 433.338 200.634C432.937 200.634 432.564 200.709 432.221 200.859C431.884 201.01 431.601 201.217 431.372 201.482C431.15 201.74 430.96 202.048 430.803 202.406C430.652 202.757 430.545 203.126 430.48 203.513C430.409 203.871 430.373 204.268 430.373 204.705V209.797H432.328V211H425.969V209.797ZM445.938 211.29C444.814 211.29 443.826 211.032 442.974 210.517C442.121 209.994 441.463 209.274 440.997 208.357C440.539 207.441 440.31 206.399 440.31 205.231C440.31 204.071 440.528 203.036 440.965 202.127C441.409 201.217 442.057 200.498 442.909 199.968C443.769 199.431 444.771 199.162 445.917 199.162C446.762 199.162 447.539 199.316 448.248 199.624C448.964 199.932 449.562 200.362 450.042 200.913C450.515 201.457 450.876 202.102 451.127 202.847C451.378 203.584 451.503 204.379 451.503 205.231C451.503 206.384 451.285 207.416 450.848 208.325C450.411 209.228 449.77 209.944 448.925 210.474C448.08 211.018 447.084 211.29 445.938 211.29ZM445.938 209.926C446.569 209.926 447.117 209.74 447.582 209.367C448.055 208.988 448.416 208.454 448.667 207.767C448.918 207.079 449.043 206.281 449.043 205.371C449.043 204.376 448.936 203.523 448.721 202.814C448.506 202.098 448.166 201.525 447.7 201.096C447.22 200.659 446.626 200.44 445.917 200.44C445.222 200.44 444.632 200.655 444.145 201.085C443.658 201.515 443.307 202.102 443.092 202.847C442.877 203.563 442.77 204.404 442.77 205.371C442.77 206.281 442.895 207.079 443.146 207.767C443.403 208.454 443.772 208.988 444.252 209.367C444.732 209.74 445.294 209.926 445.938 209.926ZM452.33 211V209.797H454.726V196.154H452.33V194.833H457.035V209.797H459.345V211H452.33ZM465.962 211.29C464.838 211.29 463.849 211.032 462.997 210.517C462.145 209.994 461.486 209.274 461.021 208.357C460.562 207.441 460.333 206.399 460.333 205.231C460.333 204.071 460.551 203.036 460.988 202.127C461.432 201.217 462.08 200.498 462.933 199.968C463.792 199.431 464.795 199.162 465.94 199.162C466.785 199.162 467.562 199.316 468.271 199.624C468.988 199.932 469.586 200.362 470.065 200.913C470.538 201.457 470.9 202.102 471.15 202.847C471.401 203.584 471.526 204.379 471.526 205.231C471.526 206.384 471.308 207.416 470.871 208.325C470.434 209.228 469.793 209.944 468.948 210.474C468.103 211.018 467.108 211.29 465.962 211.29ZM465.962 209.926C466.592 209.926 467.14 209.74 467.605 209.367C468.078 208.988 468.44 208.454 468.69 207.767C468.941 207.079 469.066 206.281 469.066 205.371C469.066 204.376 468.959 203.523 468.744 202.814C468.529 202.098 468.189 201.525 467.724 201.096C467.244 200.659 466.649 200.44 465.94 200.44C465.246 200.44 464.655 200.655 464.168 201.085C463.681 201.515 463.33 202.102 463.115 202.847C462.9 203.563 462.793 204.404 462.793 205.371C462.793 206.281 462.918 207.079 463.169 207.767C463.427 208.454 463.796 208.988 464.275 209.367C464.755 209.74 465.317 209.926 465.962 209.926ZM478.24 216.747C476.693 216.747 475.551 216.375 474.813 215.63C474.412 215.229 474.212 214.742 474.212 214.169C474.212 213.639 474.38 213.227 474.717 212.934C475.061 212.64 475.494 212.493 476.017 212.493C476.282 212.493 476.525 212.558 476.747 212.687C476.969 212.815 477.145 212.994 477.273 213.224C477.402 213.453 477.467 213.711 477.467 213.997C477.467 214.269 477.37 214.545 477.177 214.824C476.991 215.111 476.786 215.297 476.564 215.383C477.016 215.54 477.456 215.619 477.886 215.619C478.989 215.619 479.819 215.197 480.378 214.352C480.944 213.507 481.227 212.307 481.227 210.753V208.841C481.069 209.299 480.822 209.715 480.485 210.087C480.156 210.459 479.762 210.753 479.304 210.968C478.853 211.183 478.373 211.29 477.864 211.29C477.27 211.29 476.715 211.183 476.199 210.968C475.684 210.746 475.243 210.438 474.878 210.044C474.513 209.664 474.201 209.22 473.943 208.712C473.693 208.203 473.507 207.656 473.385 207.068C473.263 206.474 473.202 205.88 473.202 205.285C473.202 204.505 473.302 203.756 473.503 203.04C473.703 202.317 473.997 201.665 474.384 201.085C474.778 200.491 475.283 200.021 475.898 199.678C476.514 199.334 477.191 199.162 477.929 199.162C478.366 199.162 478.81 199.262 479.261 199.463C479.719 199.656 480.124 199.932 480.475 200.29C480.826 200.648 481.076 201.063 481.227 201.536L481.495 199.474H485.083V200.752H483.536V210.452C483.536 211.849 483.285 213.052 482.784 214.062C482.505 214.62 482.161 215.093 481.753 215.479C481.352 215.866 480.858 216.171 480.271 216.393C479.655 216.629 478.978 216.747 478.24 216.747ZM478.326 209.926C478.942 209.926 479.483 209.711 479.948 209.281C480.421 208.852 480.768 208.297 480.99 207.616C481.198 206.95 481.302 206.245 481.302 205.5C481.302 204.533 481.18 203.681 480.937 202.943C480.693 202.199 480.349 201.622 479.905 201.214C479.461 200.799 478.949 200.591 478.369 200.591C477.803 200.591 477.299 200.806 476.854 201.235C476.41 201.658 476.081 202.213 475.866 202.9C475.659 203.581 475.555 204.308 475.555 205.081C475.555 206.356 475.755 207.451 476.156 208.368C476.371 208.855 476.665 209.238 477.037 209.518C477.41 209.79 477.839 209.926 478.326 209.926ZM488.8 197.443C488.513 197.443 488.248 197.372 488.005 197.229C487.761 197.085 487.568 196.892 487.425 196.648C487.282 196.405 487.21 196.144 487.21 195.864C487.21 195.571 487.282 195.302 487.425 195.059C487.568 194.808 487.761 194.611 488.005 194.468C488.248 194.325 488.513 194.253 488.8 194.253C489.079 194.253 489.34 194.328 489.584 194.479C489.835 194.622 490.032 194.819 490.175 195.069C490.325 195.313 490.4 195.578 490.4 195.864C490.4 196.144 490.325 196.405 490.175 196.648C490.032 196.892 489.835 197.085 489.584 197.229C489.34 197.372 489.079 197.443 488.8 197.443ZM485.781 211V209.797H487.854V200.677H485.76V199.474H490.164V209.797H492.27V211H485.781ZM498.747 211.29C497.888 211.29 497.096 211.129 496.373 210.807C495.65 210.477 495.052 210.026 494.579 209.453C494.114 208.895 493.756 208.264 493.505 207.562C493.261 206.861 493.14 206.134 493.14 205.382C493.14 204.73 493.215 204.1 493.365 203.491C493.523 202.882 493.752 202.32 494.053 201.805C494.712 200.68 495.592 199.91 496.695 199.495C497.275 199.273 497.916 199.162 498.618 199.162C499.349 199.162 500.029 199.291 500.659 199.549C501.289 199.807 501.841 200.179 502.313 200.666C502.793 201.167 503.169 201.798 503.441 202.557C503.721 203.316 503.868 204.157 503.882 205.081H495.6V205.167C495.6 206.413 495.865 207.462 496.395 208.314C496.66 208.744 497.014 209.081 497.458 209.324C497.902 209.561 498.407 209.679 498.973 209.679C499.474 209.679 499.957 209.575 500.423 209.367C500.896 209.152 501.304 208.844 501.647 208.443C501.998 208.035 502.249 207.559 502.399 207.015L503.656 207.412C503.47 208.2 503.151 208.887 502.7 209.475C502.249 210.055 501.687 210.502 501.014 210.817C500.34 211.132 499.585 211.29 498.747 211.29ZM501.519 203.921C501.504 203.241 501.368 202.639 501.11 202.116C500.86 201.586 500.52 201.174 500.09 200.881C499.667 200.587 499.198 200.44 498.683 200.44C498.16 200.44 497.68 200.587 497.243 200.881C496.806 201.174 496.448 201.586 496.169 202.116C495.897 202.639 495.732 203.241 495.675 203.921H501.519Z" fill="white"/>
<rect x="0.5" y="183.5" width="183" height="38" rx="19" stroke="white"/>
<path d="M42.4893 211.29C41.4294 211.29 40.502 211.147 39.707 210.86C38.9193 210.574 38.2891 210.159 37.8164 209.614C36.8997 208.569 36.4414 207.183 36.4414 205.457V196.369H34.1211V194.833H41.3398V196.369H38.9658V205.607C38.9658 208.393 40.2191 209.786 42.7256 209.786C43.9574 209.786 44.8919 209.432 45.5293 208.723C46.1667 208.007 46.4854 206.947 46.4854 205.543V196.369H44.0469V194.833H50.9111V196.369H48.666V205.124C48.666 205.883 48.6051 206.556 48.4834 207.144C48.3688 207.731 48.1719 208.282 47.8926 208.798C47.6061 209.342 47.2301 209.79 46.7646 210.141C46.3063 210.492 45.7191 210.771 45.0029 210.979C44.2725 211.186 43.4346 211.29 42.4893 211.29ZM51.6631 209.797H53.7578V200.677H51.6631V199.474L55.7344 199.291L56.0029 201.633C56.1462 201.21 56.3538 200.834 56.626 200.505C56.8981 200.168 57.2061 199.903 57.5498 199.71C58.2087 199.345 58.9033 199.162 59.6338 199.162C59.9131 199.162 60.1494 199.176 60.3428 199.205C60.5361 199.227 60.7546 199.277 60.998 199.355C61.2702 199.449 61.5029 199.574 61.6963 199.731C61.8968 199.889 62.0902 200.111 62.2764 200.397C62.4554 200.684 62.6058 201.035 62.7275 201.45C63.0641 200.684 63.5296 200.111 64.124 199.731C64.7256 199.352 65.4059 199.162 66.165 199.162C66.4085 199.162 66.6234 199.173 66.8096 199.194C67.0029 199.216 67.2142 199.262 67.4434 199.334C67.7012 199.413 67.9268 199.513 68.1201 199.635C68.3206 199.757 68.5247 199.921 68.7324 200.129C68.9473 200.351 69.1227 200.605 69.2588 200.892C69.3949 201.171 69.5094 201.518 69.6025 201.934C69.6885 202.349 69.7314 202.818 69.7314 203.341V209.797H71.708V211H65.6816V209.797H67.4219V203.362C67.4219 202.453 67.2428 201.772 66.8848 201.321C66.5267 200.863 66.0218 200.634 65.3701 200.634C64.876 200.634 64.4463 200.741 64.0811 200.956C63.7158 201.171 63.4365 201.468 63.2432 201.848C63.0498 202.227 62.9531 202.66 62.9531 203.147V209.797H64.8008V211H58.7959V209.797H60.6436V203.362C60.6436 202.453 60.4645 201.772 60.1064 201.321C59.7484 200.863 59.2435 200.634 58.5918 200.634C58.1908 200.634 57.8327 200.713 57.5176 200.87C57.2096 201.021 56.9626 201.225 56.7764 201.482C56.6045 201.726 56.4613 202.03 56.3467 202.396C56.2393 202.754 56.1641 203.122 56.1211 203.502C56.0853 203.91 56.0674 204.311 56.0674 204.705V209.797H57.915V211H51.6631V209.797ZM77.3799 216.747C75.833 216.747 74.6908 216.375 73.9531 215.63C73.5521 215.229 73.3516 214.742 73.3516 214.169C73.3516 213.639 73.5199 213.227 73.8564 212.934C74.2002 212.64 74.6335 212.493 75.1562 212.493C75.4212 212.493 75.6647 212.558 75.8867 212.687C76.1087 212.815 76.2842 212.994 76.4131 213.224C76.542 213.453 76.6064 213.711 76.6064 213.997C76.6064 214.269 76.5098 214.545 76.3164 214.824C76.1302 215.111 75.9261 215.297 75.7041 215.383C76.1553 215.54 76.5957 215.619 77.0254 215.619C78.1283 215.619 78.959 215.197 79.5176 214.352C80.0833 213.507 80.3662 212.307 80.3662 210.753V208.841C80.2087 209.299 79.9616 209.715 79.625 210.087C79.2956 210.459 78.9017 210.753 78.4434 210.968C77.9922 211.183 77.5124 211.29 77.0039 211.29C76.4095 211.29 75.8545 211.183 75.3389 210.968C74.8232 210.746 74.3828 210.438 74.0176 210.044C73.6523 209.664 73.3408 209.22 73.083 208.712C72.8324 208.203 72.6462 207.656 72.5244 207.068C72.4027 206.474 72.3418 205.88 72.3418 205.285C72.3418 204.505 72.4421 203.756 72.6426 203.04C72.8431 202.317 73.1367 201.665 73.5234 201.085C73.9173 200.491 74.4222 200.021 75.0381 199.678C75.654 199.334 76.3307 199.162 77.0684 199.162C77.5052 199.162 77.9492 199.262 78.4004 199.463C78.8587 199.656 79.2633 199.932 79.6143 200.29C79.9652 200.648 80.2158 201.063 80.3662 201.536L80.6348 199.474H84.2227V200.752H82.6758V210.452C82.6758 211.849 82.4251 213.052 81.9238 214.062C81.6445 214.62 81.3008 215.093 80.8926 215.479C80.4915 215.866 79.9974 216.171 79.4102 216.393C78.7943 216.629 78.1175 216.747 77.3799 216.747ZM77.4658 209.926C78.0817 209.926 78.6224 209.711 79.0879 209.281C79.5605 208.852 79.9079 208.297 80.1299 207.616C80.3376 206.95 80.4414 206.245 80.4414 205.5C80.4414 204.533 80.3197 203.681 80.0762 202.943C79.8327 202.199 79.4889 201.622 79.0449 201.214C78.6009 200.799 78.0889 200.591 77.5088 200.591C76.943 200.591 76.4382 200.806 75.9941 201.235C75.5501 201.658 75.2207 202.213 75.0059 202.9C74.7982 203.581 74.6943 204.308 74.6943 205.081C74.6943 206.356 74.8949 207.451 75.2959 208.368C75.5107 208.855 75.8044 209.238 76.1768 209.518C76.5492 209.79 76.9788 209.926 77.4658 209.926ZM90.7324 211.29C89.873 211.29 89.0817 211.129 88.3584 210.807C87.6351 210.477 87.0371 210.026 86.5645 209.453C86.099 208.895 85.7409 208.264 85.4902 207.562C85.2467 206.861 85.125 206.134 85.125 205.382C85.125 204.73 85.2002 204.1 85.3506 203.491C85.5081 202.882 85.7373 202.32 86.0381 201.805C86.6969 200.68 87.5778 199.91 88.6807 199.495C89.2607 199.273 89.9017 199.162 90.6035 199.162C91.334 199.162 92.0143 199.291 92.6445 199.549C93.2747 199.807 93.8262 200.179 94.2988 200.666C94.7786 201.167 95.1546 201.798 95.4268 202.557C95.7061 203.316 95.8529 204.157 95.8672 205.081H87.585V205.167C87.585 206.413 87.8499 207.462 88.3799 208.314C88.6449 208.744 88.9993 209.081 89.4434 209.324C89.8874 209.561 90.3923 209.679 90.958 209.679C91.4593 209.679 91.9427 209.575 92.4082 209.367C92.8809 209.152 93.2891 208.844 93.6328 208.443C93.9837 208.035 94.2344 207.559 94.3848 207.015L95.6416 207.412C95.4554 208.2 95.1367 208.887 94.6855 209.475C94.2344 210.055 93.6722 210.502 92.999 210.817C92.3258 211.132 91.5703 211.29 90.7324 211.29ZM93.5039 203.921C93.4896 203.241 93.3535 202.639 93.0957 202.116C92.8451 201.586 92.5049 201.174 92.0752 200.881C91.6527 200.587 91.1836 200.44 90.668 200.44C90.1452 200.44 89.6654 200.587 89.2285 200.881C88.7917 201.174 88.4336 201.586 88.1543 202.116C87.8822 202.639 87.7174 203.241 87.6602 203.921H93.5039ZM103.741 211.29C102.918 211.29 102.166 211.086 101.485 210.678C100.805 210.262 100.297 209.657 99.96 208.862L99.1221 211H98.1338V196.154H95.9102V194.833H100.443V200.881C100.809 200.344 101.271 199.925 101.829 199.624C102.395 199.316 102.996 199.162 103.634 199.162C104.615 199.162 105.481 199.42 106.233 199.936C106.985 200.444 107.565 201.16 107.974 202.084C108.382 203.001 108.586 204.05 108.586 205.231C108.586 206.37 108.382 207.398 107.974 208.314C107.573 209.231 107.003 209.954 106.266 210.484C105.528 211.021 104.687 211.29 103.741 211.29ZM103.301 209.99C103.867 209.99 104.371 209.768 104.815 209.324C105.267 208.88 105.6 208.3 105.814 207.584C106.022 206.882 106.126 206.145 106.126 205.371C106.126 204.104 105.918 202.979 105.503 201.998C105.281 201.497 104.98 201.103 104.601 200.816C104.221 200.523 103.788 200.376 103.301 200.376C102.842 200.376 102.42 200.516 102.033 200.795C101.646 201.067 101.342 201.432 101.12 201.891C100.898 202.335 100.73 202.8 100.615 203.287C100.501 203.774 100.443 204.254 100.443 204.727C100.443 205.708 100.558 206.596 100.787 207.391C101.016 208.178 101.346 208.805 101.775 209.271C102.212 209.75 102.721 209.99 103.301 209.99ZM118.673 208.884C117.771 210.488 116.478 211.29 114.795 211.29C114.537 211.29 114.294 211.272 114.064 211.236C113.835 211.201 113.577 211.136 113.291 211.043C112.761 210.878 112.278 210.484 111.841 209.861C111.633 209.568 111.472 209.188 111.357 208.723C111.243 208.25 111.186 207.72 111.186 207.133V200.677H109.166V199.474H113.495V207.111C113.495 208.057 113.646 208.741 113.946 209.163C114.247 209.586 114.72 209.797 115.364 209.797C115.823 209.797 116.302 209.661 116.804 209.389C117.312 209.117 117.738 208.758 118.082 208.314C118.426 207.87 118.598 207.423 118.598 206.972V200.677H116.643V199.474H120.918V209.786L123.002 210.012V211L118.673 211.312V208.884ZM123.55 209.797H125.645V200.677H123.55V199.474L127.621 199.291L127.89 201.633C128.112 201.117 128.427 200.673 128.835 200.301C129.243 199.928 129.698 199.646 130.199 199.452C130.701 199.259 131.205 199.162 131.714 199.162C131.957 199.162 132.172 199.173 132.358 199.194C132.552 199.216 132.763 199.262 132.992 199.334C133.25 199.413 133.476 199.513 133.669 199.635C133.869 199.757 134.074 199.921 134.281 200.129C134.496 200.351 134.672 200.605 134.808 200.892C134.944 201.171 135.058 201.518 135.151 201.934C135.237 202.349 135.28 202.818 135.28 203.341V209.797H137.482V211H131.005V209.797H132.971V203.362C132.971 202.453 132.792 201.772 132.434 201.321C132.076 200.863 131.571 200.634 130.919 200.634C130.518 200.634 130.146 200.709 129.802 200.859C129.465 201.01 129.182 201.217 128.953 201.482C128.731 201.74 128.541 202.048 128.384 202.406C128.233 202.757 128.126 203.126 128.062 203.513C127.99 203.871 127.954 204.268 127.954 204.705V209.797H129.909V211H123.55V209.797ZM143.144 216.747C141.597 216.747 140.454 216.375 139.717 215.63C139.316 215.229 139.115 214.742 139.115 214.169C139.115 213.639 139.284 213.227 139.62 212.934C139.964 212.64 140.397 212.493 140.92 212.493C141.185 212.493 141.428 212.558 141.65 212.687C141.872 212.815 142.048 212.994 142.177 213.224C142.306 213.453 142.37 213.711 142.37 213.997C142.37 214.269 142.273 214.545 142.08 214.824C141.894 215.111 141.69 215.297 141.468 215.383C141.919 215.54 142.359 215.619 142.789 215.619C143.892 215.619 144.723 215.197 145.281 214.352C145.847 213.507 146.13 212.307 146.13 210.753V208.841C145.972 209.299 145.725 209.715 145.389 210.087C145.059 210.459 144.665 210.753 144.207 210.968C143.756 211.183 143.276 211.29 142.768 211.29C142.173 211.29 141.618 211.183 141.103 210.968C140.587 210.746 140.146 210.438 139.781 210.044C139.416 209.664 139.104 209.22 138.847 208.712C138.596 208.203 138.41 207.656 138.288 207.068C138.166 206.474 138.105 205.88 138.105 205.285C138.105 204.505 138.206 203.756 138.406 203.04C138.607 202.317 138.9 201.665 139.287 201.085C139.681 200.491 140.186 200.021 140.802 199.678C141.418 199.334 142.094 199.162 142.832 199.162C143.269 199.162 143.713 199.262 144.164 199.463C144.622 199.656 145.027 199.932 145.378 200.29C145.729 200.648 145.979 201.063 146.13 201.536L146.398 199.474H149.986V200.752H148.439V210.452C148.439 211.849 148.189 213.052 147.688 214.062C147.408 214.62 147.064 215.093 146.656 215.479C146.255 215.866 145.761 216.171 145.174 216.393C144.558 216.629 143.881 216.747 143.144 216.747ZM143.229 209.926C143.845 209.926 144.386 209.711 144.852 209.281C145.324 208.852 145.672 208.297 145.894 207.616C146.101 206.95 146.205 206.245 146.205 205.5C146.205 204.533 146.083 203.681 145.84 202.943C145.596 202.199 145.253 201.622 144.809 201.214C144.365 200.799 143.853 200.591 143.272 200.591C142.707 200.591 142.202 200.806 141.758 201.235C141.314 201.658 140.984 202.213 140.77 202.9C140.562 203.581 140.458 204.308 140.458 205.081C140.458 206.356 140.659 207.451 141.06 208.368C141.274 208.855 141.568 209.238 141.94 209.518C142.313 209.79 142.743 209.926 143.229 209.926Z" fill="white"/>
<path d="M87.3333 166C87.3333 167.473 88.5272 168.667 90 168.667C91.4728 168.667 92.6667 167.473 92.6667 166C92.6667 164.527 91.4728 163.333 90 163.333C88.5272 163.333 87.3333 164.527 87.3333 166ZM204.833 53C204.833 54.4728 206.027 55.6667 207.5 55.6667C208.973 55.6667 210.167 54.4728 210.167 53C210.167 51.5272 208.973 50.3333 207.5 50.3333C206.027 50.3333 204.833 51.5272 204.833 53ZM90.3466 166.36L207.847 53.3604L207.153 52.6396L89.6534 165.64L90.3466 166.36Z" fill="white"/>
<path d="M439.167 166C439.167 167.473 437.973 168.667 436.5 168.667C435.027 168.667 433.833 167.473 433.833 166C433.833 164.527 435.027 163.333 436.5 163.333C437.973 163.333 439.167 164.527 439.167 166ZM321.667 53C321.667 54.4728 320.473 55.6667 319 55.6667C317.527 55.6667 316.333 54.4728 316.333 53C316.333 51.5272 317.527 50.3333 319 50.3333C320.473 50.3333 321.667 51.5272 321.667 53ZM436.153 166.36L318.653 53.3604L319.347 52.6396L436.847 165.64L436.153 166.36Z" fill="white"/>
<path d="M335.667 203C335.667 201.527 334.473 200.333 333 200.333C331.527 200.333 330.333 201.527 330.333 203C330.333 204.473 331.527 205.667 333 205.667C334.473 205.667 335.667 204.473 335.667 203ZM199.667 203C199.667 201.527 198.473 200.333 197 200.333C195.527 200.333 194.333 201.527 194.333 203C194.333 204.473 195.527 205.667 197 205.667C198.473 205.667 199.667 204.473 199.667 203ZM333 202.5L197 202.5V203.5L333 203.5V202.5Z" fill="white"/>
<path d="M177.364 146.136L259.136 64.364C262.651 60.8492 268.349 60.8492 271.864 64.364L353.636 146.136C359.306 151.806 355.29 161.5 347.272 161.5H183.728C175.71 161.5 171.694 151.806 177.364 146.136Z" stroke="#80BA9E"/>
</g>
<defs>
<clipPath id="clip0_1363_426">
<rect width="530" height="382" fill="white"/>
</clipPath>
</defs>
</svg>
