<svg width="760" height="486" viewBox="0 0 760 486" fill="none" xmlns="http://www.w3.org/2000/svg">
<rect x="0.25" y="0.25" width="759.5" height="485.5" rx="19.75" stroke="#B4B4B4" stroke-width="0.5"/>
<rect x="89.5674" y="20.1313" width="576.027" height="140.474" fill="url(#paint0_linear_1489_9)"/>
<rect x="19.9177" y="230.003" width="200.34" height="119.55" rx="5" fill="#232D50"/>
<rect x="229.993" y="229.856" width="160.097" height="120.073" rx="5" fill="#232D50"/>
<path d="M140 160.376H25.2351C22.4737 160.376 20.2351 158.138 20.2351 155.376V25C20.2351 22.2386 22.4737 20 25.2351 20H140M140 160.376V110.198M140 160.376H180M140 70.0055V20M140 20H259.765M259.765 20V70.0055M259.765 20L380.042 20.0002M259.765 110.198V160.376M259.765 160.376H220.137M259.765 160.376H300.628M340.137 160.376H380.042M380.042 160.376V110.198M380.042 160.376H420.489M380.042 70.0055V20.0002M380.042 20.0002H500M500 20.0002V70.0055M500 20.0002L620.199 20M500 110.198V160.376M500 160.376H460.565M500 160.376H540M620.199 20V70.0055M620.199 20H735C737.761 20 740 22.2386 740 25V155.376C740 158.138 737.761 160.376 735 160.376H620.199M620.199 110.198V160.376M620.199 160.376H580.069M189.783 230.101H215.137C217.898 230.101 220.137 232.34 220.137 235.101V344.588C220.137 347.35 217.898 349.588 215.137 349.588H120.444M150.964 230.101H120.444M90.4249 230.101H120.444M120.444 230.101V349.588M120.444 349.588H25C22.2386 349.588 20 347.35 20 344.588V235.101C20 232.34 22.2386 230.101 25 230.101H49.8987M230 349.588V234.87C230 232.108 232.239 229.87 235 229.87H384.867C387.629 229.87 389.867 232.108 389.867 234.87V266.396M230 349.588H389.867M230 349.588V461.256C230 464.018 232.239 466.256 235 466.256H384.867C387.629 466.256 389.867 464.018 389.867 461.256V433.416M389.867 349.588V307.884M389.867 349.588V384.462" stroke="white" stroke-width="0.5"/>
<path d="M191 82.3016V83.3816H184.64C182.96 83.3816 181.256 84.2696 181.232 86.4296V86.4536C181.232 88.7816 182.744 89.5736 184.64 89.5736H190.28V90.6776H181.328V99.3896H180.176V82.3016H191ZM193.882 82.3016H194.962V99.3896H193.882V82.3016ZM202.931 99.6296C199.427 99.6296 197.603 96.8696 197.603 93.1976C197.603 89.5976 199.619 87.1496 202.787 87.1496C205.667 87.1496 207.587 89.5496 207.587 93.1016V93.3416H198.803C198.803 95.8856 200.003 98.5496 202.931 98.5496C204.587 98.5496 206.003 97.5656 206.291 95.4776H207.443C207.083 98.2856 205.163 99.6296 202.931 99.6296ZM199.763 89.6456C199.211 90.3416 198.635 92.3336 201.083 92.3336H206.315C206.243 89.5016 204.563 88.2536 202.787 88.2536C201.515 88.2536 200.459 88.7816 199.763 89.6456ZM217.44 87.3896H218.904L215.4 92.0456C214.584 93.1496 214.68 93.7256 215.4 94.7096L218.904 99.3896H217.56L214.68 95.4776C214.128 94.7096 213.384 94.6856 212.832 95.4776L210 99.3896H208.656L213.096 93.3656L208.656 87.3896H210.12L212.832 91.2056C213.36 91.9496 214.128 91.9496 214.68 91.2056L217.44 87.3896ZM221.186 87.3896H222.266V99.3896H221.186V87.3896ZM220.802 83.7896C220.802 83.2856 221.234 82.8536 221.738 82.8536C222.242 82.8536 222.65 83.2856 222.65 83.7896C222.65 84.2936 222.242 84.7256 221.738 84.7256C221.234 84.7256 220.802 84.2936 220.802 83.7896Z" fill="white"/>
<path d="M309.955 82.3016V83.3816H303.595C301.915 83.3816 300.211 84.2696 300.187 86.4296V86.4536C300.187 88.7816 301.699 89.5736 303.595 89.5736H309.235V90.6776H300.283V99.3896H299.131V82.3016H309.955ZM312.836 82.3016H313.916V99.3896H312.836V82.3016ZM321.885 99.6296C318.381 99.6296 316.557 96.8696 316.557 93.1976C316.557 89.5976 318.573 87.1496 321.741 87.1496C324.621 87.1496 326.541 89.5496 326.541 93.1016V93.3416H317.757C317.757 95.8856 318.957 98.5496 321.885 98.5496C323.541 98.5496 324.957 97.5656 325.245 95.4776H326.397C326.037 98.2856 324.117 99.6296 321.885 99.6296ZM318.717 89.6456C318.165 90.3416 317.589 92.3336 320.037 92.3336H325.269C325.197 89.5016 323.517 88.2536 321.741 88.2536C320.469 88.2536 319.413 88.7816 318.717 89.6456ZM336.395 87.3896H337.859L334.355 92.0456C333.539 93.1496 333.635 93.7256 334.355 94.7096L337.859 99.3896H336.515L333.635 95.4776C333.083 94.7096 332.339 94.6856 331.787 95.4776L328.955 99.3896H327.611L332.051 93.3656L327.611 87.3896H329.075L331.787 91.2056C332.315 91.9496 333.083 91.9496 333.635 91.2056L336.395 87.3896ZM340.14 87.3896H341.22V99.3896H340.14V87.3896ZM339.756 83.7896C339.756 83.2856 340.188 82.8536 340.692 82.8536C341.196 82.8536 341.604 83.2856 341.604 83.7896C341.604 84.2936 341.196 84.7256 340.692 84.7256C340.188 84.7256 339.756 84.2936 339.756 83.7896Z" fill="white"/>
<path d="M58.7327 286.256C58.7327 289.64 56.1167 291.392 53.5487 291.392H48.1007V298.256H46.9487V281.168H53.5487C56.1167 281.168 58.7327 282.872 58.7327 286.256ZM48.1487 286.088C48.1487 289.28 49.9007 290.288 52.0367 290.288H53.2367C56.0927 290.288 57.5087 288.416 57.5087 286.256C57.5087 284.096 56.0927 282.272 53.2367 282.272H52.0367C49.9727 282.272 48.2927 283.112 48.1487 286.088ZM65.1928 298.52C62.2168 298.52 60.0568 296.216 60.0568 292.304C60.0568 288.512 62.2168 286.016 65.1928 286.016C68.1688 286.016 70.3048 288.512 70.3048 292.304C70.3048 296.216 68.1688 298.52 65.1928 298.52ZM61.2568 292.304C61.2568 295.52 62.9368 297.44 65.1928 297.44C67.4488 297.44 69.1048 295.52 69.1048 292.304C69.1048 289.064 67.4488 287.096 65.1928 287.096C62.9368 287.096 61.2568 289.064 61.2568 292.304ZM77.5969 298.52C74.6209 298.52 72.4609 296.216 72.4609 292.304C72.4609 288.512 74.6209 286.016 77.5969 286.016C80.5729 286.016 82.7089 288.512 82.7089 292.304C82.7089 296.216 80.5729 298.52 77.5969 298.52ZM73.6609 292.304C73.6609 295.52 75.3409 297.44 77.5969 297.44C79.8529 297.44 81.5089 295.52 81.5089 292.304C81.5089 289.064 79.8529 287.096 77.5969 287.096C75.3409 287.096 73.6609 289.064 73.6609 292.304ZM85.3449 281.168H86.4249V298.256H85.3449V281.168Z" fill="white"/>
<path d="M150.004 283.168H151.588L144.724 290.2L151.828 300.256H150.34L145.348 293.128C144.436 291.832 143.116 291.808 142.084 292.912L141.652 293.368V300.256H140.5V283.168H141.652V291.808L150.004 283.168ZM162.328 297.326V287.576H163.734V300.256H162.387L162.328 297.326ZM162.586 294.982L163.313 294.959C163.313 295.756 163.219 296.49 163.031 297.162C162.844 297.834 162.551 298.42 162.152 298.92C161.754 299.42 161.238 299.807 160.606 300.08C159.973 300.354 159.211 300.49 158.32 300.49C157.703 300.49 157.137 300.404 156.621 300.232C156.113 300.053 155.676 299.771 155.309 299.389C154.942 299.006 154.656 298.51 154.453 297.9C154.258 297.291 154.16 296.553 154.16 295.686V287.576H155.555V295.709C155.555 296.389 155.629 296.955 155.777 297.408C155.934 297.861 156.145 298.225 156.41 298.498C156.684 298.771 156.996 298.967 157.348 299.084C157.699 299.201 158.078 299.26 158.484 299.26C159.516 299.26 160.328 299.061 160.922 298.662C161.524 298.264 161.949 297.74 162.199 297.092C162.457 296.436 162.586 295.732 162.586 294.982ZM155.59 283.896C155.59 283.631 155.676 283.408 155.848 283.229C156.02 283.041 156.254 282.947 156.551 282.947C156.848 282.947 157.082 283.041 157.254 283.229C157.426 283.408 157.512 283.631 157.512 283.896C157.512 284.154 157.426 284.373 157.254 284.553C157.082 284.732 156.848 284.822 156.551 284.822C156.254 284.822 156.02 284.732 155.848 284.553C155.676 284.373 155.59 284.154 155.59 283.896ZM160.723 283.908C160.723 283.643 160.805 283.416 160.969 283.229C161.141 283.041 161.379 282.947 161.684 282.947C161.981 282.947 162.215 283.041 162.387 283.229C162.559 283.416 162.645 283.643 162.645 283.908C162.645 284.166 162.559 284.385 162.387 284.564C162.215 284.744 161.981 284.834 161.684 284.834C161.379 284.834 161.141 284.744 160.969 284.564C160.805 284.385 160.723 284.166 160.723 283.908ZM172.115 300.496C168.803 300.496 166.763 297.784 166.763 294.304C166.763 290.512 169.139 288.016 172.139 288.016C174.515 288.016 176.459 289.48 176.579 292H175.475C175.187 289.984 174.011 289.096 172.139 289.096C169.835 289.096 167.963 291.064 167.963 294.304C167.963 296.968 169.427 299.416 172.115 299.416C173.771 299.416 175.283 298.432 175.571 296.344H176.627C176.267 299.152 174.347 300.496 172.115 300.496ZM184.792 288.016C186.496 288.016 188.296 289.12 188.296 291.688V300.256H187.216V292.48C187.216 290.104 186.016 289.072 184.504 289.072C182.368 289.072 180.352 291.16 180.352 294.04V300.256H179.272V283.168H180.352V288.256V289.504C180.352 289.984 180.832 290.128 181.144 289.744C181.6 289.168 182.68 288.016 184.792 288.016ZM196.032 300.496C192.528 300.496 190.704 297.736 190.704 294.064C190.704 290.464 192.72 288.016 195.888 288.016C198.768 288.016 200.688 290.416 200.688 293.968V294.208H191.904C191.904 296.752 193.104 299.416 196.032 299.416C197.688 299.416 199.104 298.432 199.392 296.344H200.544C200.184 299.152 198.264 300.496 196.032 300.496ZM192.864 290.512C192.312 291.208 191.736 293.2 194.184 293.2H199.416C199.344 290.368 197.664 289.12 195.888 289.12C194.616 289.12 193.56 289.648 192.864 290.512Z" fill="white"/>
<path d="M251.2 281.168H266.368V282.272H259.36V298.256H258.208V284.216C258.208 282.896 257.512 282.272 256 282.272H251.2V281.168ZM269.809 298.496C266.305 298.496 264.481 295.736 264.481 292.064C264.481 288.464 266.497 286.016 269.665 286.016C272.545 286.016 274.465 288.416 274.465 291.968V292.208H265.681C265.681 294.752 266.881 297.416 269.809 297.416C271.465 297.416 272.881 296.432 273.169 294.344H274.321C273.961 297.152 272.041 298.496 269.809 298.496ZM266.641 288.512C266.089 289.208 265.513 291.2 267.961 291.2H273.193C273.121 288.368 271.441 287.12 269.665 287.12C268.393 287.12 267.337 287.648 266.641 288.512ZM277.108 281.168H278.188V298.256H277.108V281.168ZM286.157 298.496C282.653 298.496 280.829 295.736 280.829 292.064C280.829 288.464 282.845 286.016 286.013 286.016C288.893 286.016 290.813 288.416 290.813 291.968V292.208H282.029C282.029 294.752 283.229 297.416 286.157 297.416C287.813 297.416 289.229 296.432 289.517 294.344H290.669C290.309 297.152 288.389 298.496 286.157 298.496ZM282.989 288.512C282.437 289.208 281.861 291.2 284.309 291.2H289.541C289.469 288.368 287.789 287.12 286.013 287.12C284.741 287.12 283.685 287.648 282.989 288.512ZM294.151 289.064C294.151 287.96 293.527 287.264 292.399 287.264H292.375V286.256C293.527 286.256 294.151 285.56 294.151 284.432V283.712C294.151 282.08 295.207 280.832 297.079 280.832C297.439 280.832 297.799 280.88 298.207 281V282.08C296.383 281.528 295.231 282.104 295.231 283.952V286.256H297.967V287.264H296.767C295.615 287.264 295.231 287.96 295.231 289.064V298.256H294.151V289.064ZM304.187 298.52C301.211 298.52 299.051 296.216 299.051 292.304C299.051 288.512 301.211 286.016 304.187 286.016C307.163 286.016 309.299 288.512 309.299 292.304C309.299 296.216 307.163 298.52 304.187 298.52ZM300.251 292.304C300.251 295.52 301.931 297.44 304.187 297.44C306.443 297.44 308.099 295.52 308.099 292.304C308.099 289.064 306.443 287.096 304.187 287.096C301.931 287.096 300.251 289.064 300.251 292.304ZM311.935 286.256H313.015V287.504C313.015 287.984 313.495 288.128 313.807 287.744C314.263 287.168 315.343 286.016 317.455 286.016C319.159 286.016 320.959 287.12 320.959 289.688V298.256H319.879V290.48C319.879 288.104 318.679 287.072 317.167 287.072C315.031 287.072 313.015 289.16 313.015 292.04V298.256H311.935V286.256ZM323.247 287.264V286.256H332.679V287.696L326.151 295.304C325.623 295.928 325.719 297.248 326.991 297.248H332.679V298.256H323.247V296.984L330.183 288.944C330.855 288.176 330.615 287.264 329.679 287.264H323.247ZM340.044 298.496C336.54 298.496 334.716 295.736 334.716 292.064C334.716 288.464 336.732 286.016 339.9 286.016C342.78 286.016 344.7 288.416 344.7 291.968V292.208H335.916C335.916 294.752 337.116 297.416 340.044 297.416C341.7 297.416 343.116 296.432 343.404 294.344H344.556C344.196 297.152 342.276 298.496 340.044 298.496ZM336.876 288.512C336.324 289.208 335.748 291.2 338.196 291.2H343.428C343.356 288.368 341.676 287.12 339.9 287.12C338.628 287.12 337.572 287.648 336.876 288.512ZM347.342 281.168H348.422V298.256H347.342V281.168ZM351.543 281.168H352.623V298.256H351.543V281.168ZM360.592 298.496C357.088 298.496 355.264 295.736 355.264 292.064C355.264 288.464 357.28 286.016 360.448 286.016C363.328 286.016 365.248 288.416 365.248 291.968V292.208H356.464C356.464 294.752 357.664 297.416 360.592 297.416C362.248 297.416 363.664 296.432 363.952 294.344H365.104C364.744 297.152 362.824 298.496 360.592 298.496ZM357.424 288.512C356.872 289.208 356.296 291.2 358.744 291.2H363.976C363.904 288.368 362.224 287.12 360.448 287.12C359.176 287.12 358.12 287.648 357.424 288.512Z" fill="white"/>
<path d="M415.443 85.8896V68.8016H417.219L422.163 82.1216C422.403 82.7696 423.147 82.7696 423.387 82.1216L428.379 68.8016H430.155V85.8896H429.003V73.8896C429.003 73.0976 428.091 72.9296 427.731 73.8896L423.171 85.8896H422.427L417.867 73.8896C417.507 72.9296 416.595 73.0976 416.595 73.8896V85.8896H415.443ZM442.549 85.8896H441.469V84.6416C441.469 84.1616 440.989 84.0176 440.677 84.4016C440.221 84.9776 439.141 86.1296 437.029 86.1296C435.325 86.1296 433.525 85.0256 433.525 82.4576V73.8896H434.605V81.6656C434.605 84.0416 435.805 85.0736 437.317 85.0736C439.453 85.0736 441.469 82.9856 441.469 80.1056V73.8896H442.549V85.8896ZM445.677 68.8016H446.757V85.8896H445.677V68.8016ZM454.414 85.9856C453.118 86.3696 452.11 86.0816 451.462 85.4576C450.886 84.9056 450.598 84.1136 450.598 83.2496V76.6976C450.598 75.5936 449.902 74.8976 448.798 74.8976V73.8896C449.902 73.8896 450.598 73.1936 450.598 72.0896V69.4976L451.606 68.7056H451.678V72.0896C451.678 73.1936 452.374 73.8896 453.478 73.8896H454.174V74.8976H451.678V82.9136C451.678 84.7616 452.83 85.3376 454.414 84.7856V85.9856ZM456.71 73.8896H457.79V85.8896H456.71V73.8896ZM456.326 70.2896C456.326 69.7856 456.758 69.3536 457.262 69.3536C457.766 69.3536 458.174 69.7856 458.174 70.2896C458.174 70.7936 457.766 71.2256 457.262 71.2256C456.758 71.2256 456.326 70.7936 456.326 70.2896ZM468.075 78.5456C468.675 78.5456 468.675 79.5536 468.075 79.5536H460.923C460.323 79.5536 460.323 78.5456 460.923 78.5456H468.075ZM411.706 92.8016V93.8816H405.346C403.666 93.8816 401.962 94.7696 401.938 96.9296V96.9536C401.938 99.2816 403.45 100.074 405.346 100.074H410.986V101.178H402.034V109.89H400.882V92.8016H411.706ZM423.372 109.89H422.292V108.642C422.292 108.162 421.812 108.018 421.5 108.402C421.044 108.978 419.964 110.13 417.852 110.13C416.148 110.13 414.348 109.026 414.348 106.458V97.8896H415.428V105.666C415.428 108.042 416.628 109.074 418.14 109.074C420.276 109.074 422.292 106.986 422.292 104.106V97.8896H423.372V109.89ZM426.499 97.8896H427.579V99.1376C427.579 99.6176 428.059 99.7616 428.371 99.3776C428.827 98.8016 429.907 97.6496 432.019 97.6496C433.723 97.6496 435.523 98.7536 435.523 101.322V109.89H434.443V102.114C434.443 99.7376 433.243 98.7056 431.731 98.7056C429.595 98.7056 427.579 100.794 427.579 103.674V109.89H426.499V97.8896ZM445.035 97.8896H446.715L442.083 102.378L447.411 109.89H446.067L441.963 103.986C441.531 103.386 440.907 103.506 440.451 103.962L439.491 104.874V109.89H438.411V92.8016H439.491V101.202C439.491 102.186 440.451 102.522 441.291 101.682L445.035 97.8896ZM454.461 109.986C453.165 110.37 452.157 110.082 451.509 109.458C450.933 108.906 450.645 108.114 450.645 107.25V100.698C450.645 99.5936 449.949 98.8976 448.845 98.8976V97.8896C449.949 97.8896 450.645 97.1936 450.645 96.0896V93.4976L451.653 92.7056H451.725V96.0896C451.725 97.1936 452.421 97.8896 453.525 97.8896H454.221V98.8976H451.725V106.914C451.725 108.762 452.877 109.338 454.461 108.786V109.986ZM456.757 97.8896H457.837V109.89H456.757V97.8896ZM456.373 94.2896C456.373 93.7856 456.805 93.3536 457.309 93.3536C457.813 93.3536 458.221 93.7856 458.221 94.2896C458.221 94.7936 457.813 95.2256 457.309 95.2256C456.805 95.2256 456.373 94.7936 456.373 94.2896ZM465.865 110.154C462.889 110.154 460.729 107.85 460.729 103.938C460.729 100.146 462.889 97.6496 465.865 97.6496C468.841 97.6496 470.977 100.146 470.977 103.938C470.977 107.85 468.841 110.154 465.865 110.154ZM461.929 103.938C461.929 107.154 463.609 109.074 465.865 109.074C468.121 109.074 469.777 107.154 469.777 103.938C469.777 100.698 468.121 98.7296 465.865 98.7296C463.609 98.7296 461.929 100.698 461.929 103.938ZM473.613 97.8896H474.693V99.1376C474.693 99.6176 475.173 99.7616 475.485 99.3776C475.941 98.8016 477.021 97.6496 479.133 97.6496C480.837 97.6496 482.637 98.7536 482.637 101.322V109.89H481.557V102.114C481.557 99.7376 480.357 98.7056 478.845 98.7056C476.709 98.7056 474.693 100.794 474.693 103.674V109.89H473.613V97.8896Z" fill="white"/>
<path d="M533.506 85.8896V68.8016H535.282L540.226 82.1216C540.466 82.7696 541.21 82.7696 541.45 82.1216L546.442 68.8016H548.218V85.8896H547.066V73.8896C547.066 73.0976 546.154 72.9296 545.794 73.8896L541.234 85.8896H540.49L535.93 73.8896C535.57 72.9296 534.658 73.0976 534.658 73.8896V85.8896H533.506ZM560.613 85.8896H559.533V84.6416C559.533 84.1616 559.053 84.0176 558.741 84.4016C558.285 84.9776 557.205 86.1296 555.093 86.1296C553.389 86.1296 551.589 85.0256 551.589 82.4576V73.8896H552.669V81.6656C552.669 84.0416 553.869 85.0736 555.381 85.0736C557.517 85.0736 559.533 82.9856 559.533 80.1056V73.8896H560.613V85.8896ZM563.74 68.8016H564.82V85.8896H563.74V68.8016ZM572.477 85.9856C571.181 86.3696 570.173 86.0816 569.525 85.4576C568.949 84.9056 568.661 84.1136 568.661 83.2496V76.6976C568.661 75.5936 567.965 74.8976 566.861 74.8976V73.8896C567.965 73.8896 568.661 73.1936 568.661 72.0896V69.4976L569.669 68.7056H569.741V72.0896C569.741 73.1936 570.437 73.8896 571.541 73.8896H572.237V74.8976H569.741V82.9136C569.741 84.7616 570.893 85.3376 572.477 84.7856V85.9856ZM574.773 73.8896H575.853V85.8896H574.773V73.8896ZM574.389 70.2896C574.389 69.7856 574.821 69.3536 575.325 69.3536C575.829 69.3536 576.237 69.7856 576.237 70.2896C576.237 70.7936 575.829 71.2256 575.325 71.2256C574.821 71.2256 574.389 70.7936 574.389 70.2896ZM586.138 78.5456C586.738 78.5456 586.738 79.5536 586.138 79.5536H578.986C578.386 79.5536 578.386 78.5456 578.986 78.5456H586.138ZM529.77 92.8016V93.8816H523.41C521.73 93.8816 520.026 94.7696 520.002 96.9296V96.9536C520.002 99.2816 521.514 100.074 523.41 100.074H529.05V101.178H520.098V109.89H518.946V92.8016H529.77ZM541.435 109.89H540.355V108.642C540.355 108.162 539.875 108.018 539.563 108.402C539.107 108.978 538.027 110.13 535.915 110.13C534.211 110.13 532.411 109.026 532.411 106.458V97.8896H533.491V105.666C533.491 108.042 534.691 109.074 536.203 109.074C538.339 109.074 540.355 106.986 540.355 104.106V97.8896H541.435V109.89ZM544.563 97.8896H545.643V99.1376C545.643 99.6176 546.123 99.7616 546.435 99.3776C546.891 98.8016 547.971 97.6496 550.083 97.6496C551.787 97.6496 553.587 98.7536 553.587 101.322V109.89H552.507V102.114C552.507 99.7376 551.307 98.7056 549.795 98.7056C547.659 98.7056 545.643 100.794 545.643 103.674V109.89H544.563V97.8896ZM563.099 97.8896H564.779L560.147 102.378L565.475 109.89H564.131L560.027 103.986C559.595 103.386 558.971 103.506 558.515 103.962L557.555 104.874V109.89H556.475V92.8016H557.555V101.202C557.555 102.186 558.515 102.522 559.355 101.682L563.099 97.8896ZM572.524 109.986C571.228 110.37 570.22 110.082 569.572 109.458C568.996 108.906 568.708 108.114 568.708 107.25V100.698C568.708 99.5936 568.012 98.8976 566.908 98.8976V97.8896C568.012 97.8896 568.708 97.1936 568.708 96.0896V93.4976L569.716 92.7056H569.788V96.0896C569.788 97.1936 570.484 97.8896 571.588 97.8896H572.284V98.8976H569.788V106.914C569.788 108.762 570.94 109.338 572.524 108.786V109.986ZM574.82 97.8896H575.9V109.89H574.82V97.8896ZM574.436 94.2896C574.436 93.7856 574.868 93.3536 575.372 93.3536C575.876 93.3536 576.284 93.7856 576.284 94.2896C576.284 94.7936 575.876 95.2256 575.372 95.2256C574.868 95.2256 574.436 94.7936 574.436 94.2896ZM583.929 110.154C580.953 110.154 578.793 107.85 578.793 103.938C578.793 100.146 580.953 97.6496 583.929 97.6496C586.905 97.6496 589.041 100.146 589.041 103.938C589.041 107.85 586.905 110.154 583.929 110.154ZM579.993 103.938C579.993 107.154 581.673 109.074 583.929 109.074C586.185 109.074 587.841 107.154 587.841 103.938C587.841 100.698 586.185 98.7296 583.929 98.7296C581.673 98.7296 579.993 100.698 579.993 103.938ZM591.677 97.8896H592.757V99.1376C592.757 99.6176 593.237 99.7616 593.549 99.3776C594.005 98.8016 595.085 97.6496 597.197 97.6496C598.901 97.6496 600.701 98.7536 600.701 101.322V109.89H599.621V102.114C599.621 99.7376 598.421 98.7056 596.909 98.7056C594.773 98.7056 592.757 100.794 592.757 103.674V109.89H591.677V97.8896Z" fill="white"/>
<path d="M34.1489 197.875L39.1489 200.762V194.989L34.1489 197.875ZM526.923 197.875L521.923 194.989V200.762L526.923 197.875ZM433.199 383.39L436.086 378.39H430.312L433.199 383.39ZM38.6489 198.375H433.199V197.375H38.6489V198.375ZM433.199 198.375H522.423V197.375H433.199V198.375ZM432.699 197.875V378.89H433.699V197.875H432.699Z" fill="#B4B4B4"/>
<defs>
<linearGradient id="paint0_linear_1489_9" x1="89.5674" y1="90.3685" x2="665.594" y2="90.3685" gradientUnits="userSpaceOnUse">
<stop/>
<stop offset="0.13" stop-color="#232D50"/>
<stop offset="0.905" stop-color="#232D50"/>
<stop offset="1"/>
</linearGradient>
</defs>
</svg>
