<svg width="13" height="13" viewBox="0 0 13 13" fill="none" xmlns="http://www.w3.org/2000/svg">
<g clip-path="url(#clip0_1225_493)">
<path d="M1.10639 13C0.802131 13 0.541672 12.8917 0.325014 12.675C0.108341 12.4583 3.8147e-06 12.1979 3.8147e-06 11.8936C3.8147e-06 11.5894 0.108341 11.3289 0.325014 11.1122C0.541672 10.8956 0.802131 10.7872 1.10639 10.7872C1.41065 10.7872 1.67111 10.8956 1.88777 11.1122C2.10444 11.3289 2.21278 11.5894 2.21278 11.8936C2.21278 12.1979 2.10444 12.4583 1.88777 12.675C1.67111 12.8917 1.41065 13 1.10639 13ZM6.5 13C6.19574 13 5.93528 12.8917 5.71862 12.675C5.50195 12.4583 5.39361 12.1979 5.39361 11.8936C5.39361 11.5894 5.50195 11.3289 5.71862 11.1122C5.93528 10.8956 6.19574 10.7872 6.5 10.7872C6.80426 10.7872 7.06472 10.8956 7.28138 11.1122C7.49805 11.3289 7.60639 11.5894 7.60639 11.8936C7.60639 12.1979 7.49805 12.4583 7.28138 12.675C7.06472 12.8917 6.80426 13 6.5 13ZM11.8936 13C11.5894 13 11.3289 12.8917 11.1122 12.675C10.8956 12.4583 10.7872 12.1979 10.7872 11.8936C10.7872 11.5894 10.8956 11.3289 11.1122 11.1122C11.3289 10.8956 11.5894 10.7872 11.8936 10.7872C12.1979 10.7872 12.4583 10.8956 12.675 11.1122C12.8917 11.3289 13 11.5894 13 11.8936C13 12.1979 12.8917 12.4583 12.675 12.675C12.4583 12.8917 12.1979 13 11.8936 13ZM1.10639 7.60639C0.802131 7.60639 0.541672 7.49806 0.325014 7.28138C0.108341 7.06472 3.8147e-06 6.80426 3.8147e-06 6.5C3.8147e-06 6.19574 0.108341 5.93529 0.325014 5.71863C0.541672 5.50195 0.802131 5.39362 1.10639 5.39362C1.41065 5.39362 1.67111 5.50195 1.88777 5.71863C2.10444 5.93529 2.21278 6.19574 2.21278 6.5C2.21278 6.80426 2.10444 7.06472 1.88777 7.28138C1.67111 7.49806 1.41065 7.60639 1.10639 7.60639ZM6.5 7.60639C6.19574 7.60639 5.93528 7.49806 5.71862 7.28138C5.50195 7.06472 5.39361 6.80426 5.39361 6.5C5.39361 6.19574 5.50195 5.93529 5.71862 5.71863C5.93528 5.50195 6.19574 5.39362 6.5 5.39362C6.80426 5.39362 7.06472 5.50195 7.28138 5.71863C7.49805 5.93529 7.60639 6.19574 7.60639 6.5C7.60639 6.80426 7.49805 7.06472 7.28138 7.28138C7.06472 7.49806 6.80426 7.60639 6.5 7.60639ZM11.8936 7.60639C11.5894 7.60639 11.3289 7.49806 11.1122 7.28138C10.8956 7.06472 10.7872 6.80426 10.7872 6.5C10.7872 6.19574 10.8956 5.93529 11.1122 5.71863C11.3289 5.50195 11.5894 5.39362 11.8936 5.39362C12.1979 5.39362 12.4583 5.50195 12.675 5.71863C12.8917 5.93529 13 6.19574 13 6.5C13 6.80426 12.8917 7.06472 12.675 7.28138C12.4583 7.49806 12.1979 7.60639 11.8936 7.60639ZM1.10639 2.21278C0.802131 2.21278 0.541672 2.10444 0.325014 1.88777C0.108341 1.67111 3.8147e-06 1.41065 3.8147e-06 1.10639C3.8147e-06 0.802135 0.108341 0.541677 0.325014 0.325018C0.541672 0.108345 0.802131 7.62939e-06 1.10639 7.62939e-06C1.41065 7.62939e-06 1.67111 0.108345 1.88777 0.325018C2.10444 0.541677 2.21278 0.802135 2.21278 1.10639C2.21278 1.41065 2.10444 1.67111 1.88777 1.88777C1.67111 2.10444 1.41065 2.21278 1.10639 2.21278ZM6.5 2.21278C6.19574 2.21278 5.93528 2.10444 5.71862 1.88777C5.50195 1.67111 5.39361 1.41065 5.39361 1.10639C5.39361 0.802135 5.50195 0.541677 5.71862 0.325018C5.93528 0.108345 6.19574 7.62939e-06 6.5 7.62939e-06C6.80426 7.62939e-06 7.06472 0.108345 7.28138 0.325018C7.49805 0.541677 7.60639 0.802135 7.60639 1.10639C7.60639 1.41065 7.49805 1.67111 7.28138 1.88777C7.06472 2.10444 6.80426 2.21278 6.5 2.21278ZM11.8936 2.21278C11.5894 2.21278 11.3289 2.10444 11.1122 1.88777C10.8956 1.67111 10.7872 1.41065 10.7872 1.10639C10.7872 0.802135 10.8956 0.541677 11.1122 0.325018C11.3289 0.108345 11.5894 7.62939e-06 11.8936 7.62939e-06C12.1979 7.62939e-06 12.4583 0.108345 12.675 0.325018C12.8917 0.541677 13 0.802135 13 1.10639C13 1.41065 12.8917 1.67111 12.675 1.88777C12.4583 2.10444 12.1979 2.21278 11.8936 2.21278Z" fill="#1C1B1F"/>
</g>
<defs>
<clipPath id="clip0_1225_493">
<rect width="13" height="13" fill="white"/>
</clipPath>
</defs>
</svg>
