<?xml version="1.0" encoding="UTF-8"?>
<svg xmlns="http://www.w3.org/2000/svg" viewBox="0 0 419.529 133.2283">
  <defs>
    <style>
      .c {
        fill: #224663;
      }

      .d {
        fill: #0083b5;
      }
    </style>
  </defs>
  <g id="a" data-name="Primaer Farbe">
    <g>
      <path class="c" d="m296.3643,111.1056c0-4.2802-1.3252-6.497-3.0056-7.6499h6.4329v-24.9331l7.6779.3399v-11.837h-29.2894v11.837l7.6803-.3399v23.7026h-2.1332v30.9994h4.5371v-14.3047h.0599l3.9911,14.3047h4.7791l-3.9911-14.1004c2.2552-1.6859,3.2608-4.6045,3.2608-8.0186Zm-7.3097,4.4825l-.7902-.0421v-8.2653h.606c2.2841-.1621,3.0766,1.6459,3.0766,3.8672,0,2.55-.8213,4.4402-2.8924,4.4402Z"/>
      <polygon class="c" points="19.6318 47.8199 44.5794 47.8199 44.5794 34.8302 33.0012 34.8302 33.0012 30.1643 43.2221 30.1643 43.2221 30.1634 43.2232 30.1634 43.2232 17.8091 33.0012 17.8091 33.0012 13.2698 44.1921 13.2698 44.1921 13.2689 44.1932 13.2689 44.1932 .2791 19.6318 .2791 19.6318 .2799 19.6305 .2799 19.6305 47.8186 19.6318 47.8186 19.6318 47.8199"/>
      <polygon class="c" points="344.7546 20.1744 352.0677 19.7325 352.0677 47.8214 352.0688 47.8214 365.3406 47.8214 365.3418 47.8214 365.3418 19.7326 369.2151 19.9665 372.658 20.1744 372.658 15.7293 372.6592 15.7293 372.6592 .2806 372.658 .2806 344.7546 .2806 344.7537 .2806 344.7537 20.1744 344.7546 15.7293 344.7546 20.1744"/>
      <path class="c" d="m161.9814,20.015s-.0001.0003-.0003.0004l-10.0132,27.8031h.001l-.0006.0013h23.8911v-11.4185h3.7089c4.697,0,9.0522.3999,11.951,2.6033v-.001s.0003.0001.0004.0003v-5.8752h-11.2541l8.0549-20.3038,4.9769-12.5451h0l.0003-.0008h-37.8267v.0008h-.0004v14.3759h6.4041c1.2404,0,3.714-.3775,3.7155-.3778-1.294,1.8922-2.5301,3.6557-3.6087,5.7367v.0003Z"/>
      <path class="c" d="m96.0717,34.706c0-5.673-2.5193-9.4579-6.4927-11.2882v-.3754c3.1988-1.3239,4.799-5.4243,4.799-9.5846,0-2.3524-.3485-4.2802-.9388-5.8907-7.1698-4.1071-15.7779-6.5215-25.3429-7.2878h-3.4649v38.4693c2.637,1.5772,4.4128,4.2027,4.4128,8.6052,0,.1643-.0222.3064-.0267.4663h13.6848c6.395,0,13.3694-3.3428,13.3694-13.1141Zm-19.1342-22.9518h.9212c1.9379,0,4.4062-.2511,4.4062,3.2785,0,3.2785-2.1798,3.5318-4.1176,3.5318h-1.2099v-6.8103Zm1.5006,24.7155h-1.5006v-7.8808h1.3052c2.1332,0,5.525-.0645,5.525,3.9115,0,3.905-3.1497,3.9693-5.3295,3.9693Z"/>
      <path class="c" d="m27.3308,93.503h-12.1531v-3.5782h11.4228v-9.4669h-11.4228v-3.4784h11.7492v-9.9535H2.1723v35.1997H.0115l-.0079,30.9996h3.4383v-12.8676h4.1731v-5.7597H3.442v-6.617h4.6304v-4.5247h1.3074v29.769h4.5372v-14.3071h.0621l3.9866,14.3071h4.7814l-3.9868-14.1028c2.251-1.6837,3.2587-4.6023,3.2587-8.0186,0-4.278-1.3231-6.497-3.0056-7.6477h4.9811v29.769h4.5372v-30.9996h-1.2009v-8.7228Zm-12.6215,22.0835l-.7923-.0421v-8.2631h.6081c2.2841-.1621,3.0787,1.6461,3.0787,3.8672,0,2.5477-.8234,4.438-2.8945,4.438Z"/>
      <path class="c" d="m139.1947,67.0253h-10.6546v66.199h2.2242v-14.2247l-.0312-1.2727-.2042-3.1275.0599-.08,5.3207,18.7049h4.0754v-30.9994h-.7903v-35.1996Zm-3.2274,53.9068l-5.0256-17.4743h4.7347v12.7031c0,1.6059.0889,3.2096.3486,4.689l-.0577.0821Z"/>
      <path class="c" d="m182.6741,102.436l4.7456,9.5779c-.7567-5.342-2.5947-8.334-4.7456-9.5779Z"/>
      <path class="c" d="m175.86,131.533v-27.6097c-1.9756,2.3456-3.3942,6.717-3.3942,13.8028s1.4185,11.4592,3.3942,13.8069Z"/>
      <polygon class="c" points="248.3745 133.2248 252.9096 133.2248 252.9096 132.001 248.3745 125.2217 248.3745 133.2248"/>
      <path class="c" d="m279.0456,91.0357c0-6.1839-4.2709-9.1758-10.171-10.433l-3.1519-.6797c-1.0699-.2399-2.7948-.4332-2.7948-1.7859,0-1.4992,1.7802-1.9323,3.0013-1.9323,2.9987,0,5.6959,1.2038,8.082,2.7543l3.7647-9.3269c-3.7647-2.1746-7.7803-3.1875-12.1531-3.1875-1.0322,0-2.0644.0755-3.0788.2221v23.5383c1.1433.2109,2.3663.5509,2.3663,1.8968,0,1.2107-1.1897,1.8149-2.3663,2.0502v13.8271h3.6739v-4.2647c6.8544-1.1217,12.8279-5.322,12.8279-12.6788Z"/>
      <rect class="c" x="262.5446" y="114.5997" width="3.2141" height="5.7595"/>
      <path class="c" d="m274.7745,101.7307c-4.0511,0-8.0711,4.3581-8.0711,15.9949,0,9.4313,2.6415,14.0781,5.7979,15.5019h4.5462c3.1543-1.4238,5.7958-6.0706,5.7958-15.5019,0-11.6368-4.0201-15.9949-8.0688-15.9949Zm0,26.3126c-3.0146,0-3.2277-7.852-3.2277-10.3177,0-2.7564.2132-10.3197,3.2277-10.3197s3.2295,7.5633,3.2295,10.3197c0,2.4656-.2152,10.3177-3.2295,10.3177Z"/>
      <path class="c" d="m302.2079,110.2808c0-1.8901.8812-3.0385,2.2841-3.0385,1.2476,0,2.3774.9039,3.2875,1.9723v-5.9618c-1.2454-.9862-2.5572-1.5216-4.0178-1.5216-3.8957,0-5.9999,4.236-5.9999,9.127,0,4.5225,1.6136,6.8238,4.2307,9.2115,1.2829,1.2329,2.6815,2.1368,2.6815,4.5225,0,2.0523-1.1565,3.3717-2.6193,3.3717-1.3384,0-2.3751-.6596-3.4385-1.6458v5.8373c.4663.4642,1.0522.813,1.6648,1.0729h4.5706c2.7702-1.2483,4.2686-4.7735,4.2686-9.1715,0-8.3873-6.9123-8.6761-6.9123-13.776Z"/>
      <path class="c" d="m310.927,126.2144v-17.0878c-.9946,2.5122-1.5338,5.4219-1.5338,8.3117,0,3.0919.5259,6.1595,1.5338,8.7761Z"/>
      <path class="c" d="m343.7709,123.6073c-.0289,2.2989-.0289,4.5623-2.2531,4.5623-2.4683,0-2.2531-3.5361-2.2531-5.8816v-18.8316h3.2541v-24.9331l7.6805.3376v-11.8347h-19.8379v66.1991h2.7813v-29.7689h1.5848v21.7924c0,4.3759,1.4406,6.9681,3.9646,7.9787h5.7159c3.707-1.4283,3.9001-5.6842,3.9001-8.3917v-22.6099h-4.5372v21.3815Z"/>
      <path class="c" d="m74.5699,84.7572v-.2909c3.3584-1.0151,5.0388-4.156,5.0388-7.3456,0-8.4074-7.5804-10.0954-15.0055-10.0954h-16.2219v26.0926h12.919v-4.398h1.3739c2.2376,0,5.7957-.0488,5.7957,2.9964,0,.5665-.1198,1.0262-.3262,1.4016h3.1941c3.494,0,6.817-.2909,9.96-.8441-.426-3.7139-2.9322-6.2439-6.7279-7.5166Zm-11.9956-3.7227h-1.274v-5.2177h.9655c2.0334,0,4.626-.1931,4.626,2.5123,0,2.5143-2.2886,2.7054-4.3175,2.7054Z"/>
      <path class="c" d="m108.2809,75.2332c1.6224-2.5055,2.9832-5.2444,4.0575-8.2074h-4.0575v8.2074Z"/>
      <path class="c" d="m83.1671,67.0255v24.8888c4.7702-1.0262,9.0831-2.7052,12.8988-4.9643,0,.0003.0001.0004.0001.0007.3969-.2376.7965-.473,1.1846-.7215l.0007.001c2.7325-1.7571,5.1853-3.8339,7.3407-6.2018l-8.0556-13.003h-13.3694Zm12.861,17.2953h-.4081s-.0001-.0006-.0001-.0009h.4083l.4317.6742-.4317-.6733Z"/>
      <polygon class="c" points="180.8591 98.7748 180.8591 92.1976 177.6007 92.1976 180.8591 98.7748"/>
      <path class="c" d="m229.6023,74.9779c3.3561-2.2146,6.0109-4.8046,8.0133-7.9519h-8.0133v7.9519Z"/>
      <rect class="c" x="308.6886" y="67.0255" width="2.2376" height="36.4302"/>
      <path class="c" d="m372.6731,87.3208c0,2.8455-.1022,5.3576-3.8159,5.3576-3.7114,0-3.8112-2.5121-3.8112-5.3576v-20.2953h-13.9333v21.5482c0,7.1323,3.1698,11.6437,8.4906,13.8448v13.7426c0,1.606.091,3.2097.3684,4.6892l-.0621.0821-5.6649-18.7072h-4.3552v30.9994h4.5372v-14.2247l-.0288-1.275-.2154-3.1252.0622-.08,5.6027,18.7049h4.2951v-29.5599c1.3474.2154,2.7769.3375,4.2842.3575-2.6238,3.1342-3.434,8.9404-3.434,13.8671,0,5.924,1.5028,13.3963,5.8846,15.3376h4.5949c.4806-.2194.9072-.5242,1.3049-.873-.3975.3491-.824.6542-1.3047.8736h3.6226v-4.478c-.081.2157-.1844.4051-.2737.6112.0893-.2063.1927-.3958.2736-.6118v-12.792h-5.9712v5.7552h2.8946c0,2.1389-.3686,6.3325-2.6815,6.3325-3.3518,0-3.5004-7.1123-3.5004-10.3197,0-2.9186.304-10.5663,3.3784-10.3199,1.7358,0,2.0997,2.4279,2.3129,3.9872l3.5672-1.857v-3.1563c-.6148-1.4505-1.4272-2.6277-2.4373-3.4342.8635-.2709,1.6715-.6018,2.4373-.9794v-15.3864h7.5116v-19.5535h-13.9333v20.2953Z"/>
      <polygon class="c" points="387.5704 78.8614 395.2465 78.5239 395.2465 86.5803 409.1786 86.5803 409.1797 86.5803 414.5859 86.5803 414.5871 67.0246 387.5704 67.0246 387.5704 78.8614"/>
      <polygon class="c" points="18.6165 32.5607 14.4365 32.5607 14.4365 .2797 .0015 .2797 .0015 47.8207 18.6165 47.8207 18.6165 32.5607"/>
      <rect class="c" x="128.5385" y=".2799" width="5.8512" height="47.5409"/>
      <path class="c" d="m110.4585,32.371c0-2.6322-.2753-5.2243-.6195-7.9165-2.9722-5.6997-7.0676-10.3865-12.0732-14.0759v37.4409h12.6926v-15.4485Z"/>
      <polygon class="c" points="151.1445 47.8186 151.1465 47.8186 151.1465 .2778 151.1445 .2778 137.8725 .2778 137.8704 .2778 137.8704 47.8186 137.8725 47.8186 151.1445 47.8186"/>
      <path class="c" d="m224.4748,32.372c0-3.1519-.3886-6.2416-.8235-9.5202h.3884l11.6758,24.9687h6.6948c.0089-.502.0178-1.0084.0178-1.5259,0-10-2.2702-18.1374-6.2329-24.6537-.0001-.0013-.0004-.0027-.0006-.004-1.4337-2.3541-3.076-4.5081-4.9292-6.4473l-.0004-.0009c-5.1541-5.391-11.8401-9.1982-19.4826-11.6549v44.2868h12.6925v-15.4485Zm12.3528-5.7352h-.0003c-.0292-.2202-.0552-.446-.0844-.6667.0292.2207.0553.4466.0847.6667Z"/>
      <path class="c" d="m289.0797,31.6145c0-8.0696-4.0712-11.9768-9.6894-13.616l-3.0032-.8863c-1.0188-.3109-2.6637-.5642-2.6637-2.3301,0-1.9546,1.6937-2.521,2.8567-2.521,2.8591,0,5.4252,1.5749,7.7027,3.5917l3.5869-12.1677c-2.3706-1.8749-4.85-3.0764-7.4582-3.685h-7.8203c-4.0931,1.0283-7.8313,3.7493-10.0465,7.9941v16.7769c1.7625,2.6521,4.4662,4.2647,7.4472,4.951l2.6637.633c1.2099.3155,2.9544.5042,2.9544,2.6477,0,2.1458-2.0821,2.8366-3.3895,2.8366-3.0543,0-5.9134-1.9547-8.284-4.3493l-.6793-.6906-.7125,2.3524v12.9296c3.4339,1.5838,7.2652,2.4945,10.6925,2.4945,7.8957,0,15.8425-5.6109,15.8425-16.9613Z"/>
      <polygon class="c" points="295.57 47.8214 308.842 47.8214 308.842 19.7325 310.9264 19.859 310.9264 .2806 288.2538 .2806 288.2538 20.1744 295.57 19.7325 295.57 47.8214"/>
      <rect class="c" x="330.3605" y=".2823" width="13.1832" height="47.5385"/>
      <path class="c" d="m379.0948,38.1665h26.7658c.9545-2.7031,1.4807-5.9351,1.4807-9.7645V.2812h-13.2742v26.4816c0,3.7206-.0955,6.9968-3.6337,6.9968-3.536,0-3.6315-3.2761-3.6315-6.9968V.2812h-13.2741v28.1208c0,7.6389,2.0377,12.972,5.567,16.2305v-6.466Z"/>
      <polygon class="c" points="408.2572 .2806 408.2572 20.1744 415.5712 19.7325 415.5712 38.168 419.529 38.168 419.529 .2806 408.2572 .2806"/>
      <path class="c" d="m60.998,37.2896v-.0006s.0007,0,.0009.0001V.2791h-13.2739v.0005h-.0012v36.1214h3.485c3.2098,0,6.726.1,9.7892.8886Z"/>
      <path class="c" d="m208.2489,47.8205V2.4966c-4.2065-1.0884-8.6591-1.8014-13.2742-2.1768v45.4262c.0755.6485.1266,1.3328.1289,2.0746h13.1453Z"/>
      <path class="c" d="m164.6287,92.3906l-.1665-.1931,18.2307-25.1711h-39.0186v11.0129h11.3916c1.2808,0,2.4506-.1911,3.6161-.4311l.2197.1423c-1.332,1.4505-2.6172,2.8009-3.7249,4.3959l-15.1186,21.3103h1.5183v29.7687h3.8446c6.7969,0,9.1919-6.4148,9.1919-15.253,0-8.9206-2.3951-12.8232-4.8191-14.5158h9.5316v29.7687h4.3085v-15.7884h.0576l3.9602,15.7884h4.5415l-4.5415-16.6923,3.6736-13.0764h4.5351v-11.2592h-7.6738c-1.1721,0-2.3908.0954-3.5582.1931Zm-14.3197,25.5396c0,3.8648-.9589,10.0354-4.4261,9.7867v-19.9799c3.556,0,4.4261,6.2482,4.4261,10.1932Zm13.3828-1.8504h-.0576v-12.6231h3.3253l-3.2677,12.6231Z"/>
      <path class="c" d="m45.2606,127.6182v-19.9798c.5063,0,.9525.1382,1.3551.3669v-5.6542c-.8569-.1733-1.5871-.1733-2.0465-.1512v-35.1753h-13.9335v35.202h-.3974v30.9972h9.1964v-5.7552h-4.657v-6.9879h4.0488v-5.7552h-4.0488v-6.7457h4.5949v-4.5224h1.2786v29.7665h4.0509c.6838,0,1.3141-.0754,1.9134-.1888v-5.6041l.0016-.0007v-.0994c-.4039.2102-.8507.3239-1.3568.2875Z"/>
      <path class="c" d="m200.7689,102.2261v-35.1997h-13.9333v36.4303h2.5616v12.5455l4.535,9.1536v-6.1572l-.031-1.2729-.2109-3.1273.0577-.0779,5.6049,18.7049h4.2929v-30.9992h-2.8767Zm-6.5806,1.2317h4.7345l.3487,17.3922-5.0833-17.3922Z"/>
      <path class="c" d="m240.6399,116.532l.5904-1.9901-3.0853-4.611.0003-.001-.2739-.4097-1.475,5.5989v-7.8028l-11.6233-17.3767c-2.6481-3.8872-6.118-9.7066-6.118-9.7066,2.8881-.9641,3.5077-1.2974,5.8805-2.4258l-6.6815-10.7819h-13.3694v36.4302h.8345v29.7689h4.5372v-12.8676h4.1731v-5.7573h-4.1731v-6.6193h4.6304v-4.5247h1.3095v29.7689h9.2876v-5.7552h-4.7504v-25.2442h-2.5304v-15.1668l3.0342,2.7125,7.9779,12.4543h-3.1876v30.9994h4.5393v-29.7689h1.7048v29.7689h4.535v-15.7863h.0622l4.1709,15.7863h4.7836l-4.7836-16.6926Z"/>
    </g>
  </g>
  <g id="b" data-name="Sekundaer Farbe">
    <g>
      <g>
        <polygon class="d" points="128.537 .6899 128.537 1.8673 132.2488 1.8673 128.537 11.1665 128.537 14.3379 133.9833 .6899 128.537 .6899"/>
        <polygon class="d" points="134.8591 38.9101 134.3885 37.6924 128.537 22.5529 128.537 25.7586 133.1439 37.7327 128.537 37.7327 128.537 38.9101 134.3885 38.9101 134.8591 38.9101"/>
        <path class="d" d="m112.7438,37.7327v-7.1808l-.017-.0972c-.1844-.5438-.381-1.0754-.5823-1.6071l-.5774-1.5075v11.57h3.2484l-.1964-1.1774h-1.8753Z"/>
        <path class="d" d="m145.4388,39.4029c2.467,0,4.2888-.7197,5.7063-1.8031,3.589-2.743,4.3082-8.0537,4.3082-11.658,0-3.6184-.7193-8.9491-4.3082-11.7021-1.4175-1.0872-3.2393-1.8101-5.7063-1.8101-3.7557,0-6.0789,1.6108-7.57,3.8042-1.9685,2.8958-2.4444,6.8361-2.4444,9.7079,0,2.8606.476,6.7861,2.4444,9.6714,1.491,2.185,3.8142,3.7897,7.57,3.7897Zm-8.8378-13.4611c0-2.1029.2768-4.8375,1.2679-7.2092,1.1805-2.8242,3.3897-5.1255,7.57-5.1255,2.5929,0,4.3942.9203,5.7063,2.2613,2.5801,2.6364,3.1317,7.0191,3.1317,10.0733,0,3.0415-.5516,7.406-3.1317,10.0318-1.3122,1.3354-3.1135,2.2519-5.7063,2.2519-2.775,0-5.8809-1.0824-7.57-5.0222-.7648-1.7843-1.2679-4.0969-1.2679-7.2615Z"/>
        <path class="d" d="m145.4388,33.2125c2.6904,0,3.0932-4.5566,3.0932-7.2706,0-2.7165-.4027-7.273-3.0932-7.273s-3.0932,4.5565-3.0932,7.273c0,2.714.4027,7.2706,3.0932,7.2706Zm0-13.3663c1.4169,0,1.919,3.2845,1.919,6.0957,0,2.8088-.5021,6.0909-1.919,6.0909-1.4118,0-1.914-3.2821-1.914-6.0909,0-2.8112.5022-6.0957,1.914-6.0957Z"/>
        <path class="d" d="m170.6231,12.4297c-2.0402,0-3.9447,1.0366-5.2523,2.8161v-2.3256h-8.1028v25.9924h8.1028v-16.0684c0-2.2625.9608-2.2625,1.2761-2.2625.2911,0,.5046.08.6696.2524.5919.6191.5216,2.2528.4803,3.2312l-.0024.0849c-.0097.2136-.017.403-.017.5632v14.1992h8.0956v-16.6024l.0048-.806c.0243-2.6461.0558-5.9403-1.7661-7.778-.8516-.8594-2.0258-1.2965-3.4886-1.2965Zm4.0733,25.303h-5.7424v-13.0193c0-.1481.0073-.3252.0146-.5218l.0048-.0778c.0534-1.2405.1335-3.1122-.8102-4.0954-.3905-.4078-.9024-.6141-1.5162-.6141-1.5576,0-2.4527,1.255-2.4527,3.4399v14.8885h-5.7496V14.0999h5.7496v3.8332h1.0795l.1529-.3714c.9485-2.4034,2.9864-3.9545,5.1965-3.9545,1.1548,0,2.0232.3106,2.654.9515,1.4725,1.4834,1.446,4.5081,1.424,6.9381l-.0048,16.2359Z"/>
        <path class="d" d="m179.8516,36.4094v2.5007h8.1004v-19.1126h3.1903v-6.875h-3.1903l-.0048-4.2677c-.0122-.9687-.0267-2.1752.4973-2.7045.2014-.2063.4827-.3009.8854-.3009.3323,0,.5216.0873.9364.3179l.6341.3499.2418.1333V.279h-1.1791v4.2708c-.2014-.0534-.4075-.0778-.6332-.0778-.7181,0-1.2979.2209-1.7224.6556-.871.8787-.8516,2.3621-.8369,3.5491l.0048,5.4232h3.1877v4.5226h-3.1877v19.1102h-5.7472v-19.1102h-2.5522v-4.5226h2.5522v-7.5644c0-3.2105.518-5.0825,1.7103-6.2566h-1.4952c-.9393,1.3956-1.3917,3.3361-1.3917,6.2566v6.387h-2.5545v6.875h2.5545v16.6118Z"/>
        <path class="d" d="m201.2077,38.9101V1.0735c-.3854-.0602-.7882-.0878-1.1766-.1424v36.8016h-5.7472V.3179l-1.1766-.0776v38.6698h8.1004Z"/>
        <path class="d" d="m208.2477,11.1368c.0276.0006.0503.0161.0779.0161,1.3289,0,2.5483-.5563,3.4552-1.429.9443-.9086,1.5496-2.1611,1.5496-3.5332,0-.7911-.2305-1.5725-.6032-2.2986-.0561-.1096-1.9839-.7823-1.9839-.7823l.4279.4932c.2648.3064.4488.6591.6095,1.0184.2236.4994.3731,1.0241.3731,1.5693,0,.5539-.1456,1.0736-.3731,1.5535-.6153,1.2966-1.941,2.2312-3.4552,2.2312-.0276,0-.0503-.0154-.0779-.016-2.0458-.0452-3.7019-1.7531-3.7019-3.8657,0-1.6605,1.0505-3.0661,2.6783-3.5784l.4445-.1399c-.6377-.1593-1.3073-.267-1.9555-.409-1.4393.8997-2.3439,2.4291-2.3439,4.1272,0,2.761,2.1849,4.9978,4.8785,5.0431Z"/>
        <path class="d" d="m208.2477,12.9226h-3.9444v25.9875h8.098V12.9226h-4.1536Zm2.9744,24.8101h-5.7447V14.0999h5.7447v23.6328Z"/>
        <path class="d" d="m226.3847,14.0999h3.6756c-.4218-.4054-.8609-.7914-1.301-1.1774h-3.1487l-2.9039,6.6832v-11.1734c-.3811-.2287-.7868-.4263-1.1766-.6451v15.0085h1.0747l3.7798-8.6958Z"/>
        <path class="d" d="m232.474,16.6053c-.2733-.3169-.5325-.6479-.8161-.9547l-4.3294,7.8223-.0753.1336,6.56,14.1262h-6.2979l-3.1478-7.369-1.7625-4.1257h-1.0747v11.4947h-5.7448V5.0504c-.3863-.1566-.7844-.297-1.1766-.4457v34.3054h8.098v-9.4385l1.7665,4.1327,2.268,5.3058h8.9179l-7.0864-15.2551,3.901-7.0498Z"/>
        <path class="d" d="m239.5457,37.7327v-8.7943c-.369-1.0281-.7384-2.0543-1.1742-3.0215v12.9932h3.5954c-.0519-.4111-.1602-.7738-.2205-1.1774h-2.2007Z"/>
        <polygon class="d" points="267.5564 34.3818 267.5564 28.8954 267.5564 22.1135 274.764 22.1135 274.764 16.5321 274.764 13.4566 274.1026 13.4566 267.5564 13.4566 267.5564 6.2661 275.5523 6.2661 275.5523 .0002 274.2691 .0002 274.2691 4.9795 266.2706 4.9795 266.2706 14.7409 273.4806 14.7409 273.4806 20.8268 266.2706 20.8268 266.2706 28.2241 266.2706 33.5018 266.2706 37.3055 262.5433 37.3055 262.5433 38.5898 267.5564 38.5898 267.5564 34.3818"/>
        <path class="d" d="m287.716,39.044c.2624.0158.4973.0749.7694.0749,2.9606,0,5.3142-.9902,7.0832-2.7889,2.3712-2.411,3.6615-6.3173,3.6615-11.6504,0-5.4112-1.3973-14.488-10.7447-14.488-.0865,0-.1477.0282-.2328.0297-.878.0161-1.6612.1378-2.4012.3055-2.1479.4873-3.7745,1.5257-4.9472,2.9298-1.0456,1.2521-1.7664,2.7524-2.2461,4.326-.7224,2.3694-.9199,4.8859-.9199,6.8969,0,8.9468,3.5548,13.9793,9.9779,14.3644Zm-7.8092-20.8607c.46-1.4816,1.1608-2.8725,2.1703-4.012.8592-.9702,1.9595-1.7334,3.3466-2.1937.8349-.277,1.768-.4463,2.8289-.4688.0849-.0018.1463-.0306.2328-.0306,8.2313,0,9.4589,8.2709,9.4589,13.2014,0,4.6398-.9661,7.6484-2.3757,9.6494-1.8932,2.6873-4.6094,3.5033-7.0832,3.5033-.1335,0-.2724-.0249-.4069-.0294-4.2268-.1424-9.0545-2.5885-9.0545-13.1233,0-1.8935.1928-4.2751.8829-6.4963Z"/>
        <path class="d" d="m288.4854,32.4843c.1953,0,.352-.074.5255-.1166,2.3978-.5858,2.8005-4.9692,2.8005-7.6881,0-1.368-.1068-3.1613-.5073-4.6893-.4527-1.7261-1.2834-3.1106-2.8187-3.1106-.0865,0-.1508.043-.2328.0515-1.7568.183-2.5407,2.241-2.8659,4.4571-.1683,1.1483-.2273,2.327-.2273,3.2914,0,2.9155.4318,7.8047,3.326,7.8047Zm-1.9545-9.7924c.1838-2.2055.7048-4.1815,1.7216-4.458.0781-.0212.1485-.07.2328-.07.7039,0,1.1887.782,1.5126,1.9053.3693,1.2805.5276,3.0092.5276,4.6104,0,2.6033-.4027,5.5734-1.4871,6.3281-.1686.1172-.3505.19-.5531.19-1.5065,0-2.0402-3.5103-2.0402-6.5181,0-.6533.0309-1.328.0858-1.9877Z"/>
        <path class="d" d="m309.8535,12.6749v-1.9567h-8.7045v27.8715h8.7045v-13.9102c0-2.0794.0704-3.7227.6414-4.8468.114-.2242.271-.4066.43-.5875v-1.7102l-.1544.0972c-.819.5091-1.2685,1.2729-1.5908,2.1212-.1165.3064-.2674.5893-.3393.9251-.263,1.229-.2677,2.6255-.2677,4.0011v12.6284h-6.1378V12.0049h6.1378v3.2118h1.1159l.1796-.3157c.3241-.5488.6844-1.0044,1.0568-1.448v-1.8862l-.2029.1881c-.3009.2791-.592.5875-.8686.92Z"/>
        <path class="d" d="m332.128,12.5803h-.0049c-.524-.3836-1.0674-.7259-1.6205-1.0172l-.1435-.0758v1.4787c.1872.1084.3725.2172.5413.3305l-.5413.9832v2.6606l2.2201-4.025-.4512-.3349Z"/>
        <path class="d" d="m332.2784,29.156c0-2.1241-.5482-3.8429-1.6836-5.2582l-.2357-.294v2.4946c.3948.8977.6432,1.8835.6432,3.0576,0,1.3298-.2514,2.5244-.6432,3.629v2.8439l.2503-.3845c1.0916-1.6628,1.669-3.77,1.669-6.0884Z"/>
        <path class="d" d="m343.5423,39.0064c.2985.0267.5622.1126.8757.1126,1.6109,0,3.052-.3205,4.5366-1.0099l.3689-.1722v-8.4214l-1.0045.6944c-.6696.4612-1.2712.6748-1.897.6748-1.4419,0-2.3311-.8075-2.8797-1.9588-.6053-1.2699-.7933-2.961-.7933-4.5084,0-.8469.1087-2.7468.7933-4.2738.2853-.6363.6796-1.1862,1.21-1.5822,0,0,.0003,0,.0003-.0003.0003,0,.0006-.0003.0006-.0003.4767-.3557,1.0395-.6057,1.7707-.6057.7521,0,1.1742.1627,1.7224.6724l1.0772.9856v-8.4092l-.3833-.1699c-1.3198-.573-2.5715-.84-3.9398-.84-.0898,0-.1596.0282-.2481.03-.4315.0091-.8082.0954-1.21.1472-6.9205.8923-9.493,7.8525-9.493,14.4686,0,6.7973,2.9704,13.5798,9.493,14.1666Zm0-27.3449c.3969-.0602.7791-.1415,1.21-.1521.0882-.0021.1583-.0312.2481-.0312,1.0577,0,2.0282.1845,3.0422.5778v4.8916c-.4415-.1942-.9218-.2791-1.5186-.2791-.6754,0-1.2464.1684-1.7707.4054,0,0,0,.0003-.0003.0003,0,0-.0003.0003-.0006.0003-.4546.206-.8601.4797-1.21.8284-1.4742,1.4696-2.0743,4.0356-2.0743,6.5145,0,3.67.8944,5.6452,2.0743,6.6917.8797.7805,1.9137,1.0598,2.8797,1.0598.5482,0,1.0819-.1116,1.6205-.3399v5.28c-1.179.4952-2.3387.7258-3.6245.7258-.3205,0-.5758-.0973-.8757-.1289-6.4083-.6754-8.212-8.2556-8.212-12.866,0-5.9816,2.2301-12.2691,8.212-13.1782Z"/>
        <path class="d" d="m371.0508,20.7904l.0039-.7127.0009-.1418c.0292-2.8403.0583-6.3773-1.8923-8.3508-.917-.9226-2.1785-1.3911-3.7505-1.3911-2.1737,0-4.2164,1.1021-5.6235,2.9933V.2805h-1.2761v15.8296h1.1839l.1553-.4054c1.0189-2.5685,3.2024-4.2265,5.5605-4.2265,1.2324,0,2.1591.3302,2.8335,1.0147,1.5819,1.5901,1.5479,4.8286,1.5285,7.4359v.0718l-.0049,17.305h-6.1426v-13.9393c0-.119.0097-.2549.0146-.4054l.0097-.2452c.0582-1.328.1407-3.3331-.8636-4.3842-.4221-.4394-.9752-.6627-1.64-.6627-1.6739,0-2.6346,1.3472-2.6346,3.6972v15.9397h-6.1426V.2805h-1.2809v38.3117h8.6996v-17.2263c0-2.4131,1.0238-2.4131,1.3586-2.4131.3106,0,.5386.0851.7133.267.6356.6629.5531,2.4058.5095,3.4473l-.0049.0922c-.0097.2306-.0146.4345-.0146.6069v15.226h8.6997v-17.8017Z"/>
        <path class="d" d="m384.6072,10.7183l-.0534,16.8598v.2793c.0049.8375.0195,2.2358-.5191,2.7819-.1699.1676-.3881.2452-.6793.2452-.3105,0-.5386-.0875-.723-.2767-.6938-.7282-.6065-2.7724-.558-3.8818.0146-.2985.0243-.5655.0243-.7817v-15.226h-8.6996v16.5951c0,1.0768.0157,2.7274.3644,4.4541.5313,2.6303,1.8562,5.4391,5.2396,6.679l.0904.0003v-.2803h8.7483c2.1607-.9378,3.6541-2.6173,4.5115-4.9108.5355-1.4323.9001-3.0272.9001-4.9396V10.7183h-8.6463Zm7.3653,1.2842v16.3135c0,1.8032-.2986,3.7317-1.1299,5.3918-1.1711,2.3385-3.4328,4.1269-7.7006,4.1269-4.1873,0-8.4667-1.2502-8.4667-10.5212v-15.3109h6.1426v13.9417c0,.1991-.0099.4443-.0293.7623-.0582,1.4614-.1504,3.673.917,4.7872.4221.4467.9752.6749,1.6497.6749.6405,0,1.1742-.2112,1.5914-.6239.917-.9273.9024-2.5952.888-3.6948l.0485-15.8475h6.0892Z"/>
        <path class="d" d="m409.9735,10.1915c-.5868,0-1.16.094-1.7176.2485-.3155.087-.615.2239-.9162.3575-1.1393.5059-2.177,1.296-2.9898,2.3897v-2.4689h-8.6996v27.4482h8.6996v-16.803c0-2.4107,1.0238-2.4107,1.3586-2.4107.3105,0,.5386.0851.7133.267.6356.6629.5531,2.4083.5094,3.4521l-.0048.0996c-.0097.2258-.0146.4273-.0146.5948v14.8018h8.6997v-17.3799l.0097-.9006c.0194-2.8257.0437-6.3409-1.8972-8.3023-.917-.925-2.1785-1.3935-3.7505-1.3935Zm4.3619,9.7275l-.0049,17.0886h-6.1377v-13.6414c0-.1554.0097-.3424.0194-.5511v-.0972c.0582-1.3304.1407-3.3379-.8686-4.389-.0012-.0013-.0027-.0016-.0039-.0028-.4118-.4297-.9781-.66-1.6312-.66-1.6739,0-2.6347,1.3474-2.6347,3.6973v15.9421h-6.1426V12.0049h6.1426v4.1075h1.1791l.1601-.4078c.6153-1.551,1.68-2.7074,2.9267-3.4296.3026-.1754.5922-.3839.9162-.4984.5513-.1951,1.129-.2985,1.7176-.2985,1.2324,0,2.1591.3326,2.8335,1.0123,1.5599,1.5756,1.5476,4.7384,1.5282,7.3168-.0003.0358.0006.076.0003.1118Z"/>
        <path class="d" d="m419.5276,14.0465l-.2722.6045c-1.5429,3.4133-1.771,7.982-1.771,10.3999,0,2.5636.3056,6.2463,1.7758,9.2298l.2674.5468v-3.6252c-.595-2.2213-.7624-4.5172-.7624-6.1513,0-1.5774.1353-4.4092.7624-7.0747v-3.9297Z"/>
        <polygon class="d" points="5.9513 22.2179 11.1551 22.2179 11.1551 14.2116 5.9513 14.2116 5.9513 7.4047 11.7252 7.4047 11.7252 .2799 0 .2799 0 1.0395 10.6117 1.0395 10.6117 6.2903 4.8378 6.2903 4.8378 15.3284 10.0416 15.3284 10.0416 21.1037 4.8378 21.1037 4.8378 36.5068 0 36.5068 0 37.6211 5.9513 37.6211 5.9513 22.2179"/>
        <path class="d" d="m19.6291,37.8493h.4561v-12.8396c0-4.2581.2863-6.1249,3.0202-6.1249.2427,0,.4538.0364.7279.0875l.655.1213v-7.9699l-.6186.0728c-1.5138.1773-2.7608.9857-3.7845,2.4592v-1.5366h-6.4144v25.7302h5.9583Zm-4.8495-1.1118V13.2284h4.197v2.9739h.9922l.1406-.3252c.9123-1.998,1.931-3.0807,3.2678-3.457v5.365c-.0873-.0072-.1771-.0121-.2718-.0121-1.9214,0-2.9272.8154-3.4764,2.0258-.6311,1.3908-.6526,3.3096-.6526,5.211v11.7277h-4.197Z"/>
        <path class="d" d="m25.5243,37.8493h6.4119V12.1191h-6.4119v25.7302Zm1.1087-24.6209h4.1944v23.509h-4.1944V13.2284Z"/>
        <path class="d" d="m28.712,10.3032c2.135,0,3.9398-2.2407,3.9398-4.8941,0-2.7528-1.7176-4.9911-3.8282-4.9911-2.2513,0-4.015,2.1508-4.015,4.8941,0,2.7528,1.7516,4.9911,3.9034,4.9911Zm.1116-8.7758c1.4751,0,2.7195,1.777,2.7195,3.8817,0,2.0514-1.2955,3.7847-2.8311,3.7847-1.5405,0-2.7947-1.7405-2.7947-3.8817,0-2.1217,1.2761-3.7847,2.9063-3.7847Z"/>
        <path class="d" d="m43.2632,23.1259v-1.1411c0-.2782-.0146-.6351-.0413-1.0141-.0734-1.0454-.298-2.3126-.8739-3.1616-.3632-.5352-.8534-.9124-1.5593-.9124-.6562,0-1.1171.3917-1.4977.9124-.6926.9483-1.0131,2.4883-1.0131,4.0302v1.2866h4.9854Zm-3.8767-1.1095v-.1772c0-1.3256.2936-3.8333,1.4021-3.8333,1.0092,0,1.3659,2.1437,1.3659,3.9788l-2.768.0316Z"/>
        <path class="d" d="m45.7303,35.747c.9487-1.4226,1.5599-3.4423,1.8196-6.001l.063-.6118h-5.6841v.5536c0,.206-.0356.3061-.0485.4767-.1262,1.7105-.8073,1.7978-1.0917,1.7978-.6732,0-1.0183-.8035-1.2054-1.7978-.1741-.9265-.212-2.0177-.226-2.7976h8.3625l.0027-.0685.1308-3.2913c.0479-1.2371-.0064-2.3977-.1308-3.4957-.3405-3.006-1.299-5.4537-2.829-7.045-.214-.2227-.4721-.324-.7014-.5073-1.0083-.8054-2.1206-1.3278-3.3282-1.3278-1.639,0-2.9439.6381-4.0159,1.6386-1.183,1.1045-2.0578,2.6785-2.6494,4.5393-.7394,2.3247-1.0761,5.0325-1.0761,7.686,0,1.8283.1766,3.322.423,4.6693.3604,1.9699.9123,3.5333,1.6057,4.6657,1.9224,3.1387,4.6798,3.5046,5.8267,3.5046,1.4296,0,2.6244-.4503,3.6002-1.2887.4236-.3639.8182-.7796,1.1523-1.2992Zm-4.7524,1.4784c-2.0472,0-3.4313-1.0062-4.428-2.3952-.9581-1.3342-1.5499-3.0119-1.8732-4.6657-.3689-1.8873-.4432-3.6818-.4432-4.6693,0-2.6852.3581-5.4195,1.1348-7.686.721-2.1041,1.8265-3.7585,3.4097-4.5393.6275-.3096,1.3025-.5293,2.0857-.5293.6657,0,1.3004.2076,1.9069.5293.4634.2458.9156.5411,1.3222.9638,1.8778,1.9541,2.819,5.4086,2.6516,9.7299l-.0898,2.294h-8.423l.017.9274c.0127.8291.0379,1.9413.2137,2.9797.2607,1.5375.8622,2.9073,2.3262,2.9073.9437,0,2.0792-.5,2.2319-2.8282h3.3552c-.2694,2.0926-.7982,3.7385-1.5745,4.8989-.0609.0948-.1583.1257-.2232.214-.8798,1.1995-2.0657,1.8689-3.6002,1.8689Z"/>
        <path class="d" d="m75.2087,21.9848c0-1.5293-.2427-5.0882-2.4746-5.0882-1.8509,0-2.5108,2.5539-2.5108,4.9426v1.2866h4.9854v-1.1411Zm-3.8767.0316v-.1772c0-1.3256.2936-3.8333,1.4021-3.8333,1.0068,0,1.3635,2.1437,1.3635,3.9788l-2.7656.0316Z"/>
        <path class="d" d="m72.9234,38.3348c1.7203,0,3.1026-.6518,4.1606-1.865.2011-.2306.4112-.4464.5871-.7205.9534-1.4225,1.5647-3.4423,1.8219-6.0034l.0631-.6118h-5.6817v.5536c0,2.2746-.8273,2.2746-1.1402,2.2746-1.3002,0-1.4021-2.9689-1.4313-4.5954h8.3601l.1359-3.3599c.0791-2.0379-.1198-3.8656-.5019-5.5021-.4694-2.0116-1.2497-3.6961-2.3608-4.9029-.0364-.0394-.0601-.097-.0971-.1357-1.1547-1.2016-2.5472-1.8352-4.0295-1.8352-5.7084,0-7.7415,7.1614-7.7415,13.8639,0,11.9124,6.0117,12.8397,7.8555,12.8397Zm-.114-25.5944c1.1741,0,2.2901.5172,3.2289,1.493.3426.3566.6187.8151.8977,1.2675.5361.869.9667,1.8801,1.2576,3.0621.3878,1.5759.5734,3.3814.494,5.4003l-.0898,2.294h-8.4256l.0219.9274c.0291,2.0562.08,5.887,2.5399,5.887.9437,0,2.0766-.5,2.2295-2.8282h3.3576c-.243,1.8856-.7266,3.3523-1.3853,4.4875-.0713.1231-.1156.2973-.1917.4114-.888,1.3814-2.1737,2.0829-3.8209,2.0829-6.2615,0-6.7467-8.9773-6.7467-11.7303,0-6.1661,1.7419-12.7546,6.6328-12.7546Z"/>
        <path class="d" d="m87.4356,21.9363c0-.8496.1141-2.2722.8759-2.2722.1407,0,.2425.0412.3347.1334.5362.556.4731,2.4471.4391,3.4278-.0048.2137-.0121.4055-.0121.5633v14.0607h6.4143v-16.4447l.0049-.7987c.0145-2.423-.0364-5.2891-1.1166-7.1381-.1709-.2924-.3001-.6266-.5307-.8584-.6453-.6481-1.4822-.9783-2.4865-.9783-1.4994,0-2.9112.9054-3.923,2.4713v-1.9834h-6.4143v25.7302h6.4143v-15.913Zm-1.1086,0v14.8035h-4.197V13.2284h4.197v3.8017h1.0383l.1237-.3908c.7181-2.367,2.2392-3.8963,3.8696-3.8963.7084,0,1.2639.2112,1.7006.6481.5847.5881.8827,1.5534,1.0668,2.6319.2448,1.4319.265,3.0894.2554,4.5805l-.0012,7.1796-.0012,8.9567h-4.1971v-12.9512c0-.1457.0049-.3229.0122-.522l.0024-.0778c.0058-.1781.007-.3893.0112-.5881.0258-1.252-.0221-2.8013-.7633-3.5703-.3032-.3155-.6841-.4759-1.1329-.4759-.905,0-1.9844.5875-1.9844,3.3817Z"/>
        <path class="d" d="m105.4608,21.4581l-.1674.2476.165-.2476-.0024-.0024c-1.0142-.675-1.7467-1.1604-1.7661-1.9567,0-.5705.1527-1.2478.8757-1.2478.5119,0,.9582.2185,1.4945.7308l.1659-.1478c-.4118-.5487-.8128-1.1077-1.2494-1.632-.1374-.0206-.2712-.0628-.4109-.0628-1.2057,0-1.9844.9297-1.9844,2.3741.0388,1.3935,1.1184,2.1073,2.2659,2.867,1.6884,1.1265,3.7918,2.5273,3.7918,6.7731,0,4.9037-2.1737,8.0717-5.5411,8.0717-1.6812,0-3.5565-.886-5.0533-2.3791l1.8195-3.8041c.6502.6336,1.4458,1.1993,2.4818,1.1993,1.0432,0,2.0986-.8909,2.0986-2.5879.0339-1.5852-1.0941-2.3718-2.295-3.2069-1.6764-1.1629-3.7628-2.6121-3.7628-7.045,0-2.7092,1.0626-4.809,2.9913-5.9112l.0767-.044c-.2824-.2627-.5922-.4958-.8821-.7511-1.361.8571-2.2898,2.1695-2.8081,3.7767-.2886.8962-.4888,1.8544-.4888,2.9295,0,1.3586.1905,2.4577.4888,3.3869.8025,2.4977,2.4494,3.6651,3.7543,4.5708,1.2082.8351,1.8365,1.3159,1.8147,2.2795,0,.9808-.4973,1.4954-.9875,1.4954-.7811,0-1.4288-.5461-2.2222-1.4298l-.5555-.6118-1.8038,3.7679-1.0492,2.1919.2572.2791c.2469.2664.5255.4803.792.7153,1.6175,1.4244,3.5384,2.2901,5.3336,2.2901,4.0393,0,6.6496-3.6049,6.6496-9.1836,0-4.8431-2.4768-6.4915-4.2867-7.6956Z"/>
        <path class="d" d="m63.8817,37.8493V.2911l-1.1087-.0242v36.4729h-2.8626l-.037.2955h-.0213c.7254.1433,1.4718.3066,1.9894.8139h2.0402Z"/>
        <path class="d" d="m52.6872,36.4455l-.2052-.2348c-2.0792-2.3791-2.6346-8.1932-2.6346-11.252,0-2.0392.2184-12.2157,4.5245-12.2157,1.339,0,2.4477,1.1336,3.0469,3.1146l.1189.3932h1.0409V.279h-1.1111v13.1048c-.8031-1.1386-1.8754-1.7526-3.0956-1.7526-5.0849,0-5.6332,9.3196-5.6332,13.3275,0,3.8357.679,8.7955,2.531,11.4444.46.0003.9473.0364,1.4176.0424Z"/>
        <path class="d" d="m56.4799,17.7244c-2.0135,0-2.4357,3.8817-2.4357,7.1371,0,4.7678.8443,7.1859,2.5109,7.1859,2.0865,0,2.3969-4.5034,2.3969-7.1859,0-2.6655-.3203-7.1371-2.4721-7.1371Zm.0752,13.2111c-.6987,0-1.4021-1.879-1.4021-6.074,0-3.4375.5701-6.0278,1.3269-6.0278.7764,0,1.3635,2.5903,1.3635,6.0278,0,3.5808-.6793,6.074-1.2883,6.074Z"/>
        <path class="d" d="m58.576,36.8109v-2.8506h-1.0043l-.1407.3496-.0025.0048c-.3347.8715-.7375,1.5634-1.1984,2.0538l-.1677.1784c.4533.0325.8719.0628,1.321.1113.0279-.0376.0561.0037.084-.0348v.0458c.3772.0418.7375.0864,1.1086.1416Z"/>
        <path class="d" d="m20.2186,87.1952c0-4.1463-3.7117-4.1463-5.7059-4.1463h-1.2883v8.2685h1.3125c.1735,0,.3921-.0003.6396-.0082,1.1378-.0355,2.8906-.2679,4.0032-1.3842.6062-.6082,1.0389-1.4554,1.0389-2.7297Zm-5.0421,2.8137c-.226.0106-.3907.0509-.6396.0509h-.0631v-5.7558h.0389c3.3745,0,4.4565.7015,4.4565,2.8912,0,1.609-.8481,2.4422-2.7417,2.7297-.311.0473-.6793.0667-1.051.084Z"/>
        <path class="d" d="m24.0759,81.0291v20.3195l-5.7017-7.8455-.4506-.6199c1.7737-.4106,3.0453-1.4943,3.7895-2.9584.4306-.8471.7301-1.7874.7301-2.8849,0-4.0445-2.5933-6.0109-7.9305-6.0109h-3.5105v20.7634h3.4716v-8.0086l5.5532,7.8823.0874.1263h3.9616v.0024h3.474v-20.7658h-3.474Zm-3.3139,19.5084l-4.9581-7.0344-.6274-.89-.3605-.5117-.0874-.1261h-1.5041v8.5622h-.9728v-18.2509h2.2611c4.6215,0,6.6811,1.4663,6.6811,4.7534,0,1.1563-.366,2.1065-.9352,2.8849-.7618,1.0414-1.931,1.7396-3.4946,1.8731l-1.1111.0922,1.1724,1.6129,5.1133,7.0344h-1.1766Zm5.5385,0h-.9728v-18.2509h.9728v18.2509Z"/>
        <path class="d" d="m29.0299,81.0291v20.7658h11.5987v-3.2724h-8.1296v-6.404h7.8895v-3.2748h-7.8895v-4.5396h8.1296v-3.2749h-11.5987Zm10.3468,1.2551v.7623h-8.1271v7.0521h7.8895v.7623h-7.8895v8.9167h8.1271v.7599h-9.0974v-18.2533h9.0974Z"/>
        <path class="d" d="m128.4739,81.0291v12.2498l.0024.3034c.0024.8812.0623,2.391.0201,2.588l.0421,2.0697.2387-.3293c.9582-1.3183.9534-2.9909.9485-4.3333l-.0024-11.2908h.9802v11.5846c0,1.9129-.1165,3.4933-1.577,4.9741-.1559.1633-.3687.3357-.588.5123v1.5586l.1609-.1045c.4925-.3179.9364-.6869,1.3198-1.0923,1.788-1.8038,1.9336-3.7167,1.9336-5.8482v-12.8421h-3.4789Z"/>
        <path class="d" d="m149.0172,90.8267v4.404l-1.8098-1.8532-8.014-8.2053-5.7414-5.8786v22.5014h3.4764v-14.1262l2.265,2.3159,6.0399,6.1755,7.1357,7.2965.1222.1251v-22.5526h-3.474v9.7976Zm1.2518-8.5401h.9728v18.2289l-5.2735-5.3915-6.7749-6.9262-3.5168-3.5954v15.935h-.9752v-18.1707l4.492,4.5984,7.2778,7.4504,3.286,3.364.5118.522v-16.0149Z"/>
        <path class="d" d="m166.6396,83.5297c-2.4914-2.0756-5.0727-2.5006-8.1829-2.5006h-4.3837v20.7634h4.3279c3.2751,0,5.8078-.4369,8.2994-2.6073,2.0775-1.8122,3.2092-4.2283,3.3955-6.9878.0172-.2567.0761-.4982.0761-.7611,0-1.9602-.5013-3.7054-1.3698-5.2326-.5641-.992-1.2531-1.9102-2.1625-2.674Zm2.2829,7.9066c0,.2649-.0549.5047-.0737.7611-.1778,2.4049-1.1421,4.4483-2.9661,6.0386-2.2198,1.9276-4.4226,2.3039-7.4818,2.3039h-3.0785v-18.2557h3.1343c2.9209,0,5.1771.369,7.3823,2.2091.9397.7878,1.6503,1.7425,2.1655,2.8112.5913,1.2269.9179,2.6085.9179,4.1318Z"/>
        <path class="d" d="m165.138,85.0905c-1.953-1.6944-4.0515-2.0416-6.6012-2.0416h-2.2416v16.7287h2.2416c2.6127,0,4.7574-.3715,6.7175-2.1825,1.5403-1.4059,2.4242-3.3012,2.6167-5.3807.0249-.2693.081-.5296.081-.8048,0-1.1157-.2349-2.182-.6244-3.1707-.4785-1.2144-1.2042-2.3053-2.1897-3.1484Zm-.7254,11.5749v.0024c-1.6691,1.5392-3.5566,1.8547-5.8758,1.8547h-.9922v-14.2185h.9922c2.2683,0,4.1193.2938,5.786,1.7358,1.0365.889,1.7412,2.1007,2.0997,3.4493.1639.6181.2777,1.2554.2777,1.9205,0,.2987-.0534.5833-.0877.873-.1999,1.6952-.9403,3.2342-2.2,4.3827Z"/>
        <path class="d" d="m202.3964,82.7116c-.5576,0-1.0995.0643-1.6287.1628-4.0769.7587-7.1753,4.2917-7.1753,8.5376s3.0984,7.779,7.1753,8.5377c.5292.0985,1.0711.1628,1.6287.1628.7227,0,1.4147-.1108,2.0871-.2736,3.847-.932,6.7193-4.3436,6.7193-8.427s-2.8723-7.4948-6.7193-8.4268c-.6724-.1628-1.3644-.2736-2.0871-.2736Zm7.557,8.7004c0,3.3872-2.3214,6.2199-5.4699,7.1184-.6672.1906-1.3583.3246-2.0871.3246-.5604,0-1.1029-.0697-1.6287-.1845-3.3827-.7371-5.9234-3.7057-5.9234-7.2586s2.5407-6.5214,5.9234-7.2586c.5258-.1146,1.0683-.1845,1.6287-.1845.7288,0,1.4199.1342,2.0871.3248,3.1485.8984,5.4699,3.7312,5.4699,7.1183Z"/>
        <path class="d" d="m204.4835,80.8996c-.6772-.1272-1.3723-.2054-2.0871-.2054-.5576,0-1.0929.0819-1.6287.1602-5.306.7742-9.3999,5.2019-9.3999,10.582,0,5.3559,4.0939,9.7651,9.3999,10.5362.5358.0779,1.0711.1599,1.6287.1599.7148,0,1.4099-.0782,2.0871-.2048,5.0857-.9502,8.944-5.2874,8.944-10.4912,0-5.2273-3.8584-9.5827-8.944-10.5368Zm0,19.7502c-.6739.1422-1.3696.2276-2.0871.2276-.5576,0-1.0962-.0719-1.6287-.1591-4.614-.7547-8.148-4.6157-8.148-9.2819,0-4.688,3.5339-8.567,8.148-9.3251.5325-.0873,1.0711-.1596,1.6287-.1596.7175,0,1.4132.0858,2.0871.2288,4.3913.9315,7.6921,4.7226,7.6921,9.2558,0,4.5123-3.3008,8.2861-7.6921,9.2134Z"/>
        <path class="d" d="m310.7366,81.0291h-3.5031v20.7658h3.4691v-8.0062l.2224.3137v-2.1271h-1.4692v8.5622h-.9801v-18.2509l.2117.0006,2.2377.0058v-1.2566h-.0719c-.034-.0048-.0728-.0073-.1165-.0073Z"/>
        <polygon class="d" points="309.4557 91.3174 310.925 91.3174 310.925 90.0493 310.6978 90.0599 310.6978 84.304 310.925 84.3061 310.925 83.051 309.4557 83.0489 309.4557 91.3174"/>
        <path class="d" d="m342.5176,80.9779c-.6241-.1066-1.2181-.2837-1.8889-.2837-4.5527,0-8.6524,2.8406-10.2687,6.9715v7.5972c1.6194,4.0697,5.7154,6.8694,10.2687,6.8694.635,0,1.2585-.1848,1.8889-.3002,1.5666-.2864,3.1031-.7938,4.4284-1.7268l.2619-.1918v-4.5032l-1.0577,1.0365c-1.0495,1.0257-2.3156,1.7261-3.6327,2.0985-.6498.1839-1.3076.3123-1.9666.3123-4.0514,0-7.4769-3.4084-7.4769-7.4456s3.4012-7.4454,7.4235-7.4454c.6845,0,1.3586.1275,2.02.3096,1.345.3699,2.6114,1.0678,3.623,2.0913l1.0674,1.0754v-4.5274l-.2572-.1845c-1.3419-.9854-2.8411-1.4819-4.4332-1.7531Zm3.4483,3.5761c-1.0368-.7702-2.2237-1.2181-3.4483-1.506-.6668-.1569-1.3325-.334-2.02-.334-4.7016,0-8.6705,3.9836-8.6705,8.698,0,4.7169,3.9932,8.7006,8.7239,8.7006.6614,0,1.314-.179,1.9666-.3358,1.2094-.2908,2.3924-.7441,3.4483-1.526v1.005c-1.0486.6894-2.2356,1.0845-3.4483,1.3345-.6277.1293-1.2551.2846-1.8889.2846-5.3906,0-9.7817-4.2095-9.7817-9.3851,0-5.2607,4.3912-9.5381,9.7817-9.5381.6699,0,1.2729.1481,1.8889.2667,1.2267.2367,2.3921.6221,3.4483,1.3428v.9929Z"/>
        <path class="d" d="m360.944,88.948h-8.9713v-7.9189h-3.4692v20.7658h3.4692v-9.5745h8.9713v9.5745h3.4692v-20.7658h-3.4692v7.9189Zm1.247-6.6638h.9801v18.2533h-.9801v-9.5745h-11.4604v9.5745h-.9849v-18.2533h.9849v7.9189h11.4604v-7.9189Z"/>
        <path class="d" d="m377.9405,93.5727c.0049,1.3716.0097,2.7869-.8346,3.7724-.7859.92-2.1397,1.5125-3.4449,1.5125-1.3731,0-2.819-.6627-3.5226-1.6095-.7519-1.0148-.7519-2.4665-.7519-3.7482v-12.4707h-3.4644v12.8421c0,2.1532.1602,4.2386,2.1494,6.0957,1.4169,1.3547,3.508,2.1655,5.5896,2.1655,2.0381,0,3.9947-.7662,5.4322-2.0768v-1.8116l-.2842.3466c-.068.0825-.1359.1675-.2184.2524-1.2324,1.2916-3.0277,2.0319-4.9296,2.0319-1.771,0-3.5371-.6821-4.7307-1.8255-1.6303-1.5149-1.7613-3.1705-1.7613-5.1782v-11.5846h.9752v11.2107c-.0048,1.4008-.0145,3.1487.9948,4.4984,1.0722,1.4614,3.0469,2.1168,4.522,2.1168,1.6594,0,3.3867-.7647,4.3959-1.9493.6668-.782.9236-1.6959,1.0362-2.6227.0805-.6644.0964-1.335.0943-1.9704v-11.2835h.9752v4.2923h1.247v-5.5498h-3.4692v12.5436Z"/>
        <polygon class="d" points="398.479 86.5803 399.726 86.5803 399.726 82.2866 400.7013 82.2866 400.7013 86.5803 401.9483 86.5803 401.9483 81.0291 398.479 81.0291 398.479 86.5803"/>
        <polygon class="d" points="382.9139 79.2959 382.9139 86.5789 384.1609 86.5789 384.1609 82.3692 386.605 84.8715 388.3099 86.5789 390.0665 86.5789 386.605 83.0741 382.9139 79.2959"/>
        <polygon class="d" points="385.1361 86.5789 386.605 86.5789 386.605 86.1038 385.1361 84.6002 385.1361 86.5789"/>
        <path class="d" d="m403.6999,86.4379l-.0783.1424h1.4663c1.7779-2.8525,4.9326-4.631,8.3111-4.631.3638,0,.7424.0194,1.1596.0606l.0261.0027v-1.2547c-.4191-.0413-.8125-.0637-1.1857-.0637-4.0514,0-7.768,2.2019-9.6991,5.7437Z"/>
        <path class="d" d="m406.2374,86.4064l-.1247.1739h1.6418c1.4431-1.6514,3.4634-2.6113,5.6153-2.6113.3638,0,.7375.0293,1.1742.0948l.0406.0057v-1.2687c-.4503-.0585-.8398-.0891-1.2148-.0891-2.8093,0-5.473,1.3813-7.1325,3.6948Z"/>
        <path class="d" d="m299.7902,83.9596c-1.1624-.5593-2.4503-.9009-3.828-.9009-4.8545,0-8.804,3.9012-8.804,8.6982s3.9495,8.7006,8.804,8.7006c1.3777,0,2.6655-.3417,3.828-.9012,2.9349-1.4129,4.9784-4.363,4.9784-7.7993s-2.0435-6.3852-4.9784-7.7972Zm0,14.1801c-1.1269.659-2.4254,1.0626-3.828,1.0626-4.1653,0-7.5521-3.3403-7.5521-7.4454s3.3867-7.443,7.5521-7.443c1.4026,0,2.701.4036,3.828,1.0624,2.2195,1.2975,3.7266,3.6578,3.7266,6.3806s-1.5071,5.0843-3.7266,6.3828Z"/>
        <path class="d" d="m299.7902,81.7469c-1.1972-.4349-2.477-.7056-3.828-.7056-4.5187,0-8.4012,2.6652-10.1033,6.462-.5889,1.3136-.9252,2.7577-.9252,4.2802,0,1.5158.3363,2.9534.9252,4.2611,1.7021,3.78,5.5846,6.4349,10.1033,6.4349,1.351,0,2.6308-.2697,3.828-.7029,4.1925-1.5167,7.2006-5.4065,7.2006-9.9932,0-4.6077-3.0081-8.514-7.2006-10.0366Zm0,18.7193c-1.1766.4849-2.4697.7559-3.828.7559-5.3906,0-9.7768-4.2338-9.7768-9.4385,0-5.2316,4.3863-9.4872,9.7768-9.4872,1.3583,0,2.6514.2726,3.828.7599,3.4947,1.4481,5.9512,4.8134,5.9512,8.7273,0,3.8939-2.4565,7.2419-5.9512,8.6827Z"/>
        <polygon class="d" points="216.1712 84.5759 216.1712 100.5108 215.196 100.5108 215.196 82.3401 228.3304 95.7891 228.5599 95.6028 225.6409 91.2389 213.9466 79.2668 213.9466 101.7683 217.4207 101.7683 217.4207 87.642 217.8018 88.032 223.3682 93.7241 231.819 102.3655 231.9112 102.4578 233.1233 102.4249 232.0231 100.7802 216.1712 84.5759"/>
        <polygon class="d" points="183.3669 90.7639 186.8342 87.4023 193.4081 81.0291 188.6168 81.0291 186.8342 82.7816 180.9967 88.5208 180.9967 81.0291 177.5275 81.0291 177.5275 92.0258 178.7769 94.6184 178.7769 94.5744 178.7769 92.1977 178.7769 82.2866 179.7474 82.2866 179.7474 91.5092 186.8342 84.5385 189.1238 82.2866 190.3125 82.2866 186.8342 85.6577 181.824 90.5139 181.6153 90.7178 186.8342 96.3331 190.7419 100.5375 189.3834 100.5375 186.8342 97.7481 180.9531 91.3126 180.0503 92.1977 179.7474 92.4947 179.7474 96.5332 179.7474 96.5103 180.9967 99.0982 180.9967 93.2158 186.8342 99.6037 188.7478 101.6979 188.8376 101.7949 193.6167 101.7949 186.8342 94.4954 183.3669 90.7639"/>
        <path class="d" d="m48.4087,81.1263c-.0088-.0009-.02-.0003-.0288-.0012-.6499-.0634-1.355-.096-2.157-.096h-4.3837v20.7658h3.4716v-17.4885h.9922c.689,0,1.3536.0437,2.0379.1384.0145.0021.0245.0082.0391.0103,1.5332.2115,2.6828.6997,3.7114,1.5871,1.5091,1.2916,2.3727,3.2482,2.3727,5.3698,0,.5099-.068,1.0463-.2063,1.6387l-.0155.067h1.2658c.1365-.6281.2078-1.1753.2078-1.7058,0-2.4882-1.0238-4.792-2.8093-6.3239-1.2615-1.0875-2.6467-1.6774-4.4905-1.9056-.0124-.0015-.0237-.0009-.0361-.0025-.7069-.0864-1.3877-.1311-2.0769-.1311h-2.2416v17.4886h-.9728v-18.2509h3.1343c.8296,0,1.5065.0291,2.1276.0899.0112.0012.0185.0055.0294.0067,2.147.2191,3.7146.8493,5.2253,2.1126,2.0185,1.6944,3.0859,4.0953,3.0859,6.9429,0,.5099-.0534,1.0269-.1697,1.6241l-.0107.0549h1.261c.1131-.6184.1712-1.1577.1712-1.679,0-3.231-1.2227-5.967-3.5371-7.909-1.7079-1.4251-3.5589-2.1679-5.9971-2.4034Z"/>
        <polygon class="d" points="61.2989 81.0291 58.4596 81.0291 58.4596 93.1178 59.7114 93.1178 59.7114 82.2866 68.8137 82.2866 68.8137 83.0489 60.6842 83.0489 60.6842 90.1012 61.2989 90.1012 67.9573 90.1012 68.5711 90.1012 68.5711 90.8635 68.3349 90.8635 61.2989 90.8635 60.6842 90.8635 60.6842 93.1178 61.2989 93.1178 61.936 93.1178 61.936 92.121 68.3744 92.121 69.8229 92.121 69.8229 88.8437 65.2942 88.8437 61.936 88.8437 61.936 88.7198 61.936 84.304 70.0631 84.304 70.0631 81.0291 62.6869 81.0291 61.2989 81.0291"/>
        <path class="d" d="m73.6294,93.0216c.4175-.0158.8369-.0282,1.2494-.0525v-5.3004l4.7192,4.8258c.5152-.074,1.0519-.1146,1.5581-.2024l-7.5267-7.6895v8.4191Z"/>
        <path class="d" d="m75.827,83.8224l-4.4222-4.5265v13.8192c.4275-.0006.8293-.0437,1.2518-.0528v-10.6931l2.0047,2.0495.6763.6914,5.5549,5.6788,1.3028,1.3322.9703-.2322v.0255c.1541-.0331.2867-.0958.4394-.1305l-.4394-.4497-7.3386-7.5117Z"/>
        <path class="d" d="m86.97,90.7854c.4139-.1269.8434-.2327,1.2494-.3705v-8.1283h.9728v7.8396c.4184-.1528.8423-.2955,1.2518-.4594v-8.6377h-3.474v9.7563Z"/>
        <path class="d" d="m98.2654,82.7116c-2.2052,0-3.935,1.6046-3.935,3.6535,0,.4515.1192.8745.3223,1.2675.3619-.1954.7676-.3366,1.1208-.542-.1298-.237-.1938-.4739-.1938-.7256,0-.5123.1747-1.0002.5022-1.4056l.2184-.2124.158.2464-.158-.2464.2184-.2124c.4827-.3666,1.0941-.5657,1.7467-.5657.6174,0,1.0899.1457,1.5198.3882.3545-.2731.7382-.5141,1.0817-.7993l-.0761-.0549c-.7303-.5317-1.5552-.7914-2.5255-.7914Z"/>
        <path class="d" d="m98.3162,80.6942c-3.5395,0-6.2105,2.4058-6.2105,5.5956,0,.8433.1944,1.594.5616,2.3023.3813-.18.7633-.3588,1.1363-.5493-.2847-.5341-.4461-1.1042-.4461-1.7531,0-2.8185,2.5547-4.3381,4.9587-4.3381,1.149,0,2.2401.3778,3.1618,1.0778.3183-.2764.601-.5899.9094-.8769l-.0294-.0237c-1.1694-.9394-2.5668-1.4347-4.0418-1.4347Z"/>
      </g>
      <path class="d" d="m277.8813,84.304h6.8534v-3.2749h-14.2672l-7.9251,7.7884v1.7699l.3368-.3049,8.0977-7.9983h1.1912l-8.4934,8.232-.004.0036-.2047.2003,1.4084,1.5151,7.7182,8.3022h-1.3562l-6.7733-7.3719-1.9208-2.0662v1.7096l.9001,1.0756,7.156,7.8132.0898.097h4.1339v-.0024h3.0592v-9.6715h6.6448v-3.2773h-6.6448v-4.5396Zm-3.4765-1.6286v17.9712l-.1841-.1981-9.0007-9.687,8.6429-8.3777.5419-.5252v.8169Zm4.5553,7.4257h4.3142v.7623h-6.6447v9.6764h-.9752v-18.2557h7.831v.7647h-6.8558v7.0523h2.3305Z"/>
      <g>
        <path class="d" d="m156.1094,44.5126c-7.0565,0-12.7991,5.8885-12.7991,13.1275,0,7.2035,5.7426,13.063,12.7991,13.063s12.7946-5.8595,12.7946-13.063c0-7.239-5.7403-13.1275-12.7946-13.1275Zm0,21.9391c-4.7371,0-8.5883-3.9671-8.5883-8.8427s3.8512-8.8471,8.5883-8.8471,8.5904,3.9693,8.5904,8.8471-3.8534,8.8427-8.5904,8.8427Z"/>
        <polygon class="d" points=".0012 70.2665 3.3065 70.2665 3.3065 58.9315 10.4961 58.9315 10.4961 54.6846 3.3065 54.6846 3.3065 49.8312 10.727 49.8312 10.727 45.5843 .0012 45.5843 .0012 70.2665"/>
        <path class="d" d="m26.6868,45.5844v23.2493l-6.142-9.0937c2.9122-.8663,4.7457-3.4961,4.7457-6.9414,0-4.7866-2.9433-7.2144-8.7503-7.2144h-3.9622v24.6178h4.0888v-8.9627l5.6159,8.574.2507.3887h8.2397v-24.6178h-4.0864v.0002Zm-10.0199,10.5151v-6.2684c3.4294.0178,4.5371.7929,4.5371,3.1475,0,1.857-.7746,3.0987-4.5371,3.1209Z"/>
        <path class="d" d="m107.4739,62.9312l-.1399-1.0417-4.0377,1.1907.1777.8906c.7701,3.9605,3.6624,6.5282,7.3827,6.606.7058-1.4993,1.3319-3.0654,1.8735-4.6957-.5239.2866-1.1189.4644-1.7625.4644-1.7823,0-3.2208-1.4038-3.4938-3.4142Z"/>
        <path class="d" d="m111.4547,45.1925c-3.9267,0-6.8877,2.8943-6.8877,6.7347,0,3.8762,2.6948,5.4843,5.2274,6.6903l1.3918.6442c1.3008.622,2.2864,1.1327,2.8502,1.8814.3419-1.5528.6193-3.1519.8235-4.8001-.6216-.3709-1.2721-.693-1.9134-.9884l-1.4385-.662c-1.2719-.6042-2.8523-1.3572-2.8523-2.6765,0-1.446,1.2052-2.5789,2.7435-2.5789,1.3674,0,2.2109.5687,3.0123,2.0258l.4372.793.3731-.2531c.0488-1.0063.082-2.0214.082-3.0566,0-.8906-.0243-1.7637-.0577-2.6276-1.1011-.7285-2.3908-1.1262-3.7914-1.1262Z"/>
        <polygon class="d" points="218.167 65.9675 211.8322 65.9675 211.8322 44.8419 211.8318 44.8419 211.8318 44.8414 207.6275 44.8414 207.6275 70.2211 218.167 70.2211 218.167 70.2194 218.1673 70.2194 218.1673 65.968 218.167 65.968 218.167 65.9675"/>
        <path class="d" d="m239.799,44.8408l-8.6302,8.9092v-8.9092h-4.2043v25.3797h4.2043v-10.2021l6.2952,7.2345c.8301-1.2707,1.5537-2.63,2.1687-4.0959l-5.6693-6.4039,8.4396-8.5873c.0155-.6108.0243-1.2348.0243-1.8702,0-.4954-.0243-.9684-.0355-1.4548h-2.5927Z"/>
        <polygon class="d" points="262.5429 70.3035 265.9214 70.3035 265.9214 58.8509 273.2288 58.8509 273.2288 54.4596 265.9214 54.4596 265.9214 49.6018 273.4618 49.6018 273.4618 45.2104 262.5429 45.2104 262.5429 70.3035"/>
        <path class="d" d="m286.1689,44.8125c-6.8013,0-12.333,5.8218-12.333,12.9763,0,7.119,5.5317,12.9121,12.333,12.9121s12.3306-5.7931,12.3306-12.9121c0-7.1545-5.5315-12.9763-12.3306-12.9763Zm0,21.4969c-4.4707,0-8.1066-3.836-8.1066-8.5516s3.636-8.554,8.1066-8.554,8.1086,3.8384,8.1086,8.554-3.6381,8.5516-8.1086,8.5516Z"/>
        <path class="d" d="m299.5516,45.2116v25.0931h4.2198v-9.0315l5.6469,8.6206.2642.4109h1.2431v-5.9285l-3.1876-4.7201c1.3029-.3976,2.3773-1.1595,3.1876-2.1725v-9.8066c-1.4585-1.6371-3.8979-2.4655-7.3141-2.4655h-4.0599Zm4.2198,4.3913c3.4361.0222,4.5437.8041,4.5437,3.1607,0,1.8593-.7768,3.1054-4.5437,3.1321v-6.2928Z"/>
        <path class="d" d="m331.2621,52.0791l3.4473-2.3256-.4373-.8596c-.899-1.7502-2.2708-2.983-3.9134-3.6096v5.2667c.1508.2066.2974.4308.4418.693l.4617.8351Z"/>
        <path class="d" d="m330.3588,55.6288v5.3731s.0003.0012.0007.0015v3.7197c-.0004.0006-.0004.0012-.0007.0016v5.3798c2.8523-1.1972,4.8191-4.0826,4.8191-7.5411,0-3.8493-2.3353-5.6664-4.8191-6.9347Z"/>
        <path class="d" d="m354.8026,47.5556l-.3819-.3021c-2.0977-1.6414-4.4062-2.441-7.0588-2.441-6.8013,0-12.333,5.8485-12.333,13.0363,0,2.9158.9469,5.5986,2.5225,7.7572,2.2544,3.089,5.8072,5.0958,9.8105,5.0958,2.4751,0,4.979-.8639,7.0479-2.4343l.2149-.1642.1778-.1346v-.0009h.0001v-6.0198h-.0001s0-.001,0-.001l-1.4918,1.5681c-.8435.8874-1.8156,1.5862-2.8454,2.0628-1.0296.4763-2.1168.7305-3.19.7305-4.3506,0-8.0221-3.916-8.0221-8.5516s3.6469-8.5518,7.9644-8.5518c1.0833,0,2.1592.2473,3.1685.6932,1.075.4752,2.0742,1.1768,2.9136,2.0889l.9105.989.5925.6447v-6.064h-.0001v-.001Z"/>
        <polygon class="d" points="373.7295 45.2102 369.5054 45.2102 369.5054 54.5793 360.0433 54.5793 360.0433 45.2111 360.0427 45.2111 360.0427 45.2102 355.8185 45.2102 355.8185 70.3034 355.8192 70.3034 355.8192 70.3043 360.0433 70.3043 360.0433 58.9737 369.5054 58.9737 369.5054 70.3034 369.5062 70.3034 369.5062 70.3043 373.7304 70.3043 373.7304 45.2111 373.7295 45.2111 373.7295 45.2102"/>
        <path class="d" d="m388.0919,60.3625c.0043,1.6328.0088,3.1742-.848,4.2583-.8278,1.0417-2.2619,1.7168-3.6515,1.7168-1.4384,0-3.0055-.7641-3.7268-1.819-.777-1.1262-.7749-2.7877-.7704-4.2559v-8.314h-.0021v-6.7103h-4.222v15.4575c0,2.5121.1909,5.1532,2.4463,7.4121,1.5914,1.6414,3.9377,2.6233,6.2751,2.6233,2.5107,0,4.8946-1.0662,6.5306-2.9143,2.0243-2.2079,2.193-4.6268,2.193-7.1211v-8.7471h-4.2241v8.4138Z"/>
        <polygon class="d" points="410.7925 51.95 410.7925 61.7188 401.9269 51.95 393.6717 51.95 393.6717 70.3037 397.8913 70.3037 397.8913 53.8845 414.5861 72.2474 414.5861 51.95 410.7925 51.95"/>
        <path class="d" d="m65.502,56.0942v-.0009c-1.1344.9574-2.4883,1.6547-3.9822,2.1634-.0158.4048-.0835.7941-.1512,1.1832-.2041,1.1708-.6125,2.2694-1.2571,3.22-.2865.4221-.6145.8168-.9824,1.1789-.704.6966-1.4482,1.1669-2.2421,1.4887-1.2052.4878-2.5277.6241-4.0211.6241h-.9079v-6.4105h-.0009v-.0004c-.1909.0022-.3839.0066-.5726.0066h-3.514v.0006h-.0012v10.6529h4.8501c3.5693,0,6.3307-.5153,9.0789-3.0807,2.5038-2.3524,3.8267-5.531,3.8267-9.196,0-.6285-.051-1.235-.1222-1.8302-.0003.0002-.0007.0002-.0009.0005Z"/>
        <polygon class="d" points="32.6475 45.9033 32.6475 70.5188 32.6475 70.5191 45.531 70.5191 45.531 66.2699 45.5309 66.2699 45.5309 66.2696 36.7318 66.2696 36.7318 59.2485 45.2757 59.2485 45.2757 55.0016 45.2734 55.0016 45.2734 55.0013 36.7318 55.0013 36.7318 50.1481 45.531 50.1481 45.531 45.9012 32.6475 45.9012 32.6475 45.9033"/>
        <path class="d" d="m68.9342,45.5838h-.0009c.0688.5575.1087,1.1439.1087,1.7702,0,3.0387-.748,5.311-1.9867,7.0391v15.8084h12.8834s.001-.0001.001-.0001v-4.2492h-8.7979v-7.0212h8.5394v-4.2469h-.0013s-8.538-.0001-8.538-.0001v-4.8532h8.7968v-.0003h.001v-4.2469h-11.0056v.0003Z"/>
        <polygon class="d" points="98.1067 45.5843 98.1067 61.8785 93.1514 56.4194 81.2587 43.3164 81.2587 43.3181 81.2587 70.2014 81.2587 70.202 85.3453 70.202 85.3453 70.2014 85.3453 53.9938 102.1931 72.5254 102.1931 72.5247 102.1932 72.5248 102.1932 45.5835 98.1067 45.5835 98.1067 45.5843"/>
        <polygon class="d" points="147.4081 44.8419 141.5323 44.8419 132.9064 53.749 132.9064 44.8419 128.7023 44.8419 128.7023 70.2194 132.9064 70.2194 132.9064 60.0217 141.7809 70.2194 147.6211 70.2194 135.7009 56.7521 147.4081 44.8419"/>
        <polygon class="d" points="170.6058 70.2201 174.8122 70.2201 174.8122 53.3055 175.8578 54.4273 175.8578 48.241 170.6058 42.597 170.6058 70.2201"/>
        <path class="d" d="m195.1051,47.8844c0,1.7059-.2509,3.1387-.6815,4.369v17.9674h4.202v-11.6879h7.6469v-4.2536h-7.6469v-5.1867h7.8913v-4.2514h-11.6804c.1665.9196.2686,1.917.2686,3.0431Z"/>
        <path class="d" d="m188.5179,61.8481l-3.0278-3.2563c-1.707.2821-3.525.3931-5.3628.4175l12.597,13.5162v-17.3587c-1.1121,1.2393-2.5526,2.0946-4.2064,2.6743v4.0071Z"/>
        <polygon class="d" points="219.1161 44.8422 219.1159 44.8422 219.1159 70.2195 219.1161 70.2195 223.3224 70.2195 223.3226 70.2195 223.3226 44.8422 223.3224 44.8422 219.1161 44.8422"/>
      </g>
      <path class="d" d="m10.0026,84.304v-3.2749H.0112v20.7658h3.1357v-9.6764h6.6449v-3.2748H3.1469v-4.5396h6.8558Zm-7.8316,5.7972h6.3688v.7597H1.8975v9.6766h-.9752v-18.2509h7.831v.7623H1.8975v7.0523h.2736Z"/>
    </g>
  </g>
</svg>