<svg viewBox="0 0 715 431" fill="none" xmlns="http://www.w3.org/2000/svg">
  <g clip-path="url(#clip0_1029_2)">
    <path d="M804.575 234.637C631.281 373.751 753.743 54.862 689.573 63.1893C619.055 72.3404 766.765 405.437 697.662 405.437C628.56 405.437 691.567 3.53045 605.092 33.8497C518.617 64.169 688.536 358.499 621.389 370.886C554.243 383.272 608.225 186.722 535.989 211.168C463.754 235.615 595.462 405.433 516.167 409.51C430.979 413.891 542.815 138.49 463.754 142.544C387.338 146.463 499.069 377.042 414.971 377.042C332.128 377.042 426.036 171.084 354.518 177.323C283.001 183.563 370.25 395.954 312.391 392.856C254.532 389.757 344.721 298.091 296.227 283.62C247.732 269.149 282.969 424.621 243.686 418.944C186.377 410.663 334.036 195.509 268.056 185.092C186.609 172.234 258.305 432.388 162.176 399.24C73.8516 368.783 285.541 112.133 191.239 89.8115C126.657 74.5248 136.486 323.909 74.7441 298.091C13.0021 272.273 197.309 33.8498 114.984 21.0626C57.8668 12.1909 99.0835 189.953 44.446 177.323C-10.1916 164.694 90.3843 45.6618 46.6493 33.8497C2.91425 22.0377 26.8115 140.585 -36.8684 114.133" stroke="black" />
  </g>
  <defs>
    <clipPath id="clip0_1029_2">
      <rect width="715" height="431" fill="white" />
    </clipPath>
  </defs>
</svg>