<svg width="715" height="431" viewBox="0 0 715 431" fill="none" xmlns="http://www.w3.org/2000/svg">
<g clip-path="url(#clip0_1029_2)">
<rect width="715" height="431" fill="white"/>
<path d="M-12.8181 106.325C-6.87961 154.913 6.77902 288.53 59.2541 285.291C124.848 281.242 179.105 51.2584 124.848 51.2584C17.1445 51.2584 53.5855 411.62 151.571 411.62C249.557 411.62 319.2 94.1778 243.889 94.1778C134.566 94.1778 150.762 380.037 290.047 349.265C429.333 318.493 437.431 70.6936 367.788 64.2152C298.145 57.7368 324.059 221.317 424.474 226.175C524.889 231.034 578.336 30.2036 523.27 31.8232C468.203 33.4428 455.246 310.395 537.036 366.271C618.826 422.147 664.175 106.325 597.771 106.325C531.368 106.325 566.999 347.645 628.544 354.124C677.78 359.306 714.383 233.733 726.53 170.299" stroke="black"/>
</g>
<defs>
<clipPath id="clip0_1029_2">
<rect width="715" height="431" fill="white"/>
</clipPath>
</defs>
</svg>
