<?xml version="1.0" encoding="UTF-8"?>
<svg id="Ebene_2" data-name="Ebene 2" xmlns="http://www.w3.org/2000/svg" viewBox="0 0 1920 1280">
  <defs>
    <style>
      .cls-1, .cls-2, .cls-3 {
        fill: none;
      }

      .cls-4 {
        fill: #0e435c;
      }

      .cls-2 {
        stroke-width: 6px;
      }

      .cls-2, .cls-5, .cls-6, .cls-7 {
        stroke: #0d435c;
      }

      .cls-2, .cls-5, .cls-6, .cls-7, .cls-3 {
        stroke-miterlimit: 10;
      }

      .cls-8 {
        fill: #90172f;
      }

      .cls-9, .cls-10 {
        fill: #0d435c;
      }

      .cls-11, .cls-6, .cls-7 {
        fill: #fff;
      }

      .cls-5 {
        fill: #bb172b;
        stroke-width: 1.37914px;
      }

      .cls-10 {
        fill-rule: evenodd;
      }

      .cls-12 {
        fill: #f3f5f7;
      }

      .cls-6 {
        stroke-width: 7px;
      }

      .cls-7 {
        stroke-width: 6.83013px;
      }

      .cls-3 {
        stroke: #0e435c;
        stroke-width: 6.12944px;
      }
    </style>
  </defs>
  <rect class="cls-12" x=".0465" y=".37441" width="1912.50121" height="1279.22083"/>
  <g>
    <rect class="cls-1" x="99.64494" y="228.31309" width="597.01415" height="125.42047"/>
    <path class="cls-9" d="M103.07234,268.8126v-38.39062h13.44727c4.65723,0,8.19043.89258,10.59961,2.67578,2.4082,1.78516,3.6123,4.39941,3.6123,7.84473,0,1.88086-.48438,3.53809-1.4502,4.96973-.9668,1.43359-2.31152,2.4834-4.03418,3.15137,1.96777.49219,3.51953,1.48535,4.65332,2.97949s1.70117,3.32227,1.70117,5.48438c0,3.69141-1.17773,6.48633-3.5332,8.38477-2.35645,1.89844-5.71289,2.86523-10.07227,2.90039h-14.92383ZM110.9825,246.50596h5.85352c3.99023-.07031,5.98535-1.66113,5.98535-4.77246,0-1.74023-.50586-2.99316-1.5166-3.75684-1.01074-.76562-2.60645-1.14746-4.78516-1.14746h-5.53711v9.67676ZM110.9825,252.09581v10.3623h6.77637c1.8623,0,3.31738-.44336,4.36328-1.33105s1.56934-2.11426,1.56934-3.67871c0-3.51562-1.81934-5.2998-5.45801-5.35254h-7.25098Z"/>
    <path class="cls-9" d="M136.98055,232.90049c0-1.14258.38184-2.08301,1.14648-2.82129s1.80664-1.10742,3.125-1.10742c1.30078,0,2.33691.36914,3.11133,1.10742.77344.73828,1.16016,1.67871,1.16016,2.82129,0,1.16016-.3916,2.10938-1.17383,2.84766s-1.81543,1.10742-3.09766,1.10742c-1.2832,0-2.31641-.36914-3.09863-1.10742s-1.17285-1.6875-1.17285-2.84766ZM145.07527,268.8126h-7.64648v-28.5293h7.64648v28.5293Z"/>
    <path class="cls-9" d="M150.16414,254.28428c0-2.83008.54492-5.35254,1.63477-7.56738s2.6582-3.92871,4.70703-5.1416c2.04688-1.21289,4.4248-1.81934,7.13184-1.81934,3.84961,0,6.99121,1.17773,9.42676,3.5332,2.43359,2.35547,3.79199,5.55469,4.07324,9.59766l.05273,1.95117c0,4.37695-1.22168,7.88867-3.66504,10.5332-2.44336,2.64648-5.72168,3.96875-9.83496,3.96875s-7.39551-1.31836-9.84863-3.95508c-2.45117-2.63672-3.67773-6.22266-3.67773-10.75781v-.34277ZM157.78426,254.8253c0,2.71094.50977,4.78418,1.5293,6.21875,1.01953,1.43555,2.47852,2.15234,4.37695,2.15234,1.8457,0,3.28711-.70898,4.32422-2.12598s1.55566-3.68359,1.55566-6.7998c0-2.6582-.51855-4.71777-1.55566-6.17969-1.03711-1.46094-2.49609-2.19141-4.37695-2.19141-1.86328,0-3.30469.72656-4.32422,2.17871s-1.5293,3.70117-1.5293,6.74707Z"/>
    <path class="cls-9" d="M189.92586,268.8126h-7.64648v-40.5h7.64648v40.5Z"/>
    <path class="cls-9" d="M195.01473,254.28428c0-2.83008.54492-5.35254,1.63477-7.56738s2.6582-3.92871,4.70703-5.1416c2.04688-1.21289,4.4248-1.81934,7.13184-1.81934,3.84961,0,6.99121,1.17773,9.42676,3.5332,2.43359,2.35547,3.79199,5.55469,4.07324,9.59766l.05273,1.95117c0,4.37695-1.22168,7.88867-3.66504,10.5332-2.44336,2.64648-5.72168,3.96875-9.83496,3.96875s-7.39551-1.31836-9.84863-3.95508c-2.45117-2.63672-3.67773-6.22266-3.67773-10.75781v-.34277ZM202.63484,254.8253c0,2.71094.50977,4.78418,1.5293,6.21875,1.01953,1.43555,2.47852,2.15234,4.37695,2.15234,1.8457,0,3.28711-.70898,4.32422-2.12598s1.55566-3.68359,1.55566-6.7998c0-2.6582-.51855-4.71777-1.55566-6.17969-1.03711-1.46094-2.49609-2.19141-4.37695-2.19141-1.86328,0-3.30469.72656-4.32422,2.17871s-1.5293,3.70117-1.5293,6.74707Z"/>
    <path class="cls-9" d="M225.62703,254.33702c0-4.37695,1.04199-7.90137,3.12402-10.57324,2.08398-2.67188,4.8916-4.00781,8.4248-4.00781,3.12891,0,5.56348,1.07227,7.30371,3.2168l.31641-2.68945h6.9082v27.58008c0,2.49609-.56641,4.66699-1.70117,6.5127-1.13281,1.8457-2.72852,3.25195-4.78516,4.21924-2.05664.9668-4.46484,1.4502-7.22461,1.4502-2.0918,0-4.13086-.41797-6.11719-1.25195-1.98633-.83643-3.48926-1.9126-4.50879-3.23096l3.375-4.64062c1.89844,2.12695,4.20117,3.19043,6.9082,3.19043,2.02148,0,3.59473-.54004,4.71973-1.62207,1.125-1.08008,1.6875-2.61426,1.6875-4.60059v-1.5293c-1.75781,1.98633-4.06934,2.97949-6.93457,2.97949-3.42773,0-6.20117-1.33984-8.31934-4.02148-2.11816-2.67969-3.17676-6.23535-3.17676-10.66504v-.31641ZM233.24715,254.87901c0,2.5957.51855,4.63086,1.55566,6.10547s2.46094,2.21191,4.27148,2.21191c2.32031,0,3.98145-.87402,4.9834-2.62207v-12.05273c-1.01953-1.74805-2.66309-2.62207-4.93066-2.62207-1.82812,0-3.26562.75098-4.31152,2.25195s-1.56836,3.74316-1.56836,6.72754Z"/>
    <path class="cls-9" d="M257.50496,232.90049c0-1.14258.38184-2.08301,1.14746-2.82129.76367-.73828,1.80566-1.10742,3.12402-1.10742,1.30078,0,2.33789.36914,3.11133,1.10742s1.16016,1.67871,1.16016,2.82129c0,1.16016-.3916,2.10938-1.17285,2.84766-.7832.73828-1.81543,1.10742-3.09863,1.10742s-2.31641-.36914-3.09863-1.10742-1.17285-1.6875-1.17285-2.84766ZM265.59969,268.8126h-7.64648v-28.5293h7.64648v28.5293Z"/>
    <path class="cls-9" d="M283.74031,263.19639c1.40625,0,2.54883-.38672,3.42773-1.16016s1.33594-1.80176,1.37109-3.08496h7.14551c-.01758,1.93359-.54492,3.70508-1.58203,5.3125-1.03711,1.60938-2.45703,2.85742-4.25781,3.74414-1.80273.8877-3.79297,1.33203-5.97266,1.33203-4.07812,0-7.29492-1.2959-9.65039-3.88867s-3.5332-6.1748-3.5332-10.74512v-.50098c0-4.39453,1.16895-7.90137,3.50684-10.52051s5.5459-3.92871,9.62402-3.92871c3.56836,0,6.42871,1.01562,8.58203,3.04492,2.15332,2.03125,3.24805,4.7334,3.2832,8.1084h-7.14551c-.03516-1.48438-.49219-2.69043-1.37109-3.61816s-2.03906-1.3916-3.48047-1.3916c-1.77539,0-3.11621.64746-4.02051,1.94043-.90625,1.29492-1.3584,3.39355-1.3584,6.29883v.79199c0,2.94043.44824,5.05273,1.34473,6.33789s2.25879,1.92773,4.08691,1.92773Z"/>
    <path class="cls-9" d="M316.56746,268.8126c-.35156-.68555-.60645-1.53809-.76465-2.55762-1.8457,2.05664-4.24512,3.08496-7.19824,3.08496-2.79492,0-5.11133-.80859-6.94727-2.42578-1.83789-1.61719-2.75586-3.65625-2.75586-6.11719,0-3.02344,1.12109-5.34375,3.36133-6.96094,2.24219-1.61719,5.48047-2.43457,9.7168-2.45215h3.50684v-1.63477c0-1.31836-.33887-2.37305-1.01465-3.16406-.67773-.79102-1.74512-1.18652-3.2041-1.18652-1.2832,0-2.29004.30762-3.01855.92285-.73047.61523-1.09473,1.45898-1.09473,2.53125h-7.62012c0-1.65234.50977-3.18164,1.5293-4.58789s2.46094-2.50879,4.32422-3.30957c1.86328-.79883,3.95508-1.19922,6.27539-1.19922,3.51562,0,6.30566.88281,8.37109,2.65039,2.06543,1.76562,3.09863,4.24902,3.09863,7.44824v12.36621c.01758,2.70703.39551,4.75488,1.13379,6.14355v.44824h-7.69922ZM310.2657,263.5128c1.125,0,2.16211-.25098,3.11133-.75098.94922-.50195,1.65234-1.17383,2.10938-2.01758v-4.9043h-2.84766c-3.81445,0-5.84473,1.31836-6.09082,3.95508l-.02637.44824c0,.94922.33398,1.73145,1.00195,2.34668s1.58203.92285,2.74219.92285Z"/>
    <path class="cls-9" d="M337.0284,268.8126h-7.64648v-40.5h7.64648v40.5Z"/>
    <path class="cls-9" d="M378.92586,260.90245h-13.86914l-2.63672,7.91016h-8.41113l14.29102-38.39062h7.33008l14.37012,38.39062h-8.41113l-2.66309-7.91016ZM367.19246,254.49522h9.59766l-4.8252-14.37012-4.77246,14.37012Z"/>
    <path class="cls-9" d="M391.97762,254.33702c0-4.37695,1.04199-7.90137,3.12402-10.57324,2.08398-2.67188,4.8916-4.00781,8.4248-4.00781,3.12891,0,5.56348,1.07227,7.30371,3.2168l.31641-2.68945h6.9082v27.58008c0,2.49609-.56641,4.66699-1.70117,6.5127-1.13281,1.8457-2.72852,3.25195-4.78516,4.21924-2.05664.9668-4.46484,1.4502-7.22461,1.4502-2.0918,0-4.13086-.41797-6.11719-1.25195-1.98633-.83643-3.48926-1.9126-4.50879-3.23096l3.375-4.64062c1.89844,2.12695,4.20117,3.19043,6.9082,3.19043,2.02148,0,3.59473-.54004,4.71973-1.62207,1.125-1.08008,1.6875-2.61426,1.6875-4.60059v-1.5293c-1.75781,1.98633-4.06934,2.97949-6.93457,2.97949-3.42773,0-6.20117-1.33984-8.31934-4.02148-2.11816-2.67969-3.17676-6.23535-3.17676-10.66504v-.31641ZM399.59773,254.87901c0,2.5957.51855,4.63086,1.55566,6.10547s2.46094,2.21191,4.27148,2.21191c2.32031,0,3.98145-.87402,4.9834-2.62207v-12.05273c-1.01953-1.74805-2.66309-2.62207-4.93066-2.62207-1.82812,0-3.26562.75098-4.31152,2.25195s-1.56836,3.74316-1.56836,6.72754Z"/>
    <path class="cls-9" d="M437.03914,269.33995c-4.18359,0-7.58984-1.2832-10.21777-3.84961s-3.94141-5.98535-3.94141-10.25684v-.73828c0-2.86523.55371-5.42676,1.66113-7.68652,1.10742-2.25781,2.67676-3.99805,4.70605-5.2207,2.03125-1.2207,4.34668-1.83203,6.94824-1.83203,3.90234,0,6.97363,1.23047,9.21582,3.69141,2.24023,2.46094,3.36133,5.9502,3.36133,10.46777v3.11133h-18.16699c.24609,1.86328.98926,3.35742,2.22754,4.48242,1.24023,1.125,2.80859,1.6875,4.70703,1.6875,2.93555,0,5.22949-1.06348,6.88184-3.19043l3.74414,4.19238c-1.14258,1.61719-2.68945,2.87891-4.64062,3.78418-1.95117.9043-4.11328,1.35742-6.48633,1.35742ZM436.16902,245.89952c-1.51172,0-2.73828.51172-3.67773,1.53613-.94141,1.02441-1.54297,2.49023-1.80664,4.39648h10.59961v-.60938c-.03516-1.69531-.49219-3.00586-1.37109-3.93262s-2.12695-1.39062-3.74414-1.39062Z"/>
    <path class="cls-9" d="M460.11043,240.28331l.2373,3.2959c2.03906-2.54883,4.77246-3.82324,8.2002-3.82324,3.02344,0,5.27344.8877,6.75,2.66309s2.23242,4.42969,2.26758,7.96289v18.43066h-7.62012v-18.28809c0-1.62109-.35156-2.79688-1.05469-3.52832-.70312-.73047-1.87207-1.09668-3.50684-1.09668-2.14453,0-3.75293.91602-4.8252,2.74805v20.16504h-7.62012v-28.5293h7.17188Z"/>
    <path class="cls-9" d="M492.46297,233.26963v7.01367h4.87793v5.58984h-4.87793v14.23828c0,1.05469.20215,1.81055.60645,2.26758s1.17773.68555,2.32031.68555c.84375,0,1.59082-.06152,2.24121-.18457v5.77441c-1.49414.45703-3.03223.68555-4.61426.68555-5.34375,0-8.06836-2.69824-8.17383-8.09473v-15.37207h-4.16602v-5.58984h4.16602v-7.01367h7.62012Z"/>
  </g>
  <g>
    <rect class="cls-1" x="101.138" y="628.43375" width="623.45733" height="70.08969"/>
    <path class="cls-9" d="M104.56551,668.93419v-38.39062h11.8125c3.375,0,6.39453.76074,9.05664,2.28125,2.66406,1.52051,4.74219,3.68262,6.23633,6.48633s2.24121,5.98926,2.24121,9.55762v1.7666c0,3.56836-.73438,6.74121-2.20215,9.51855s-3.53711,4.93066-6.20898,6.45996-5.68652,2.30273-9.04395,2.32031h-11.8916ZM112.47566,636.95079v25.62891h3.82324c3.09375,0,5.45801-1.01074,7.09277-3.03223s2.46973-4.91309,2.50488-8.6748v-2.03027c0-3.90234-.80859-6.85938-2.42578-8.87305-1.61719-2.01172-3.98145-3.01855-7.09277-3.01855h-3.90234Z"/>
    <path class="cls-9" d="M152.29012,669.46153c-4.18359,0-7.58984-1.2832-10.21777-3.84961s-3.94141-5.98535-3.94141-10.25684v-.73828c0-2.86523.55371-5.42676,1.66113-7.68652,1.10742-2.25781,2.67676-3.99805,4.70605-5.2207,2.03125-1.2207,4.34668-1.83203,6.94824-1.83203,3.90234,0,6.97363,1.23047,9.21582,3.69141,2.24023,2.46094,3.36133,5.9502,3.36133,10.46777v3.11133h-18.16699c.24609,1.86328.98926,3.35742,2.22754,4.48242,1.24023,1.125,2.80859,1.6875,4.70703,1.6875,2.93555,0,5.22949-1.06348,6.88184-3.19043l3.74414,4.19238c-1.14258,1.61719-2.68945,2.87891-4.64062,3.78418-1.95117.9043-4.11328,1.35742-6.48633,1.35742ZM151.42,646.0211c-1.51172,0-2.73828.51172-3.67773,1.53613-.94141,1.02441-1.54297,2.49023-1.80664,4.39648h10.59961v-.60938c-.03516-1.69531-.49219-3.00586-1.37109-3.93262s-2.12695-1.39062-3.74414-1.39062Z"/>
    <path class="cls-9" d="M176.38973,668.93419h-7.64648v-40.5h7.64648v40.5Z"/>
    <path class="cls-9" d="M182.61238,633.02208c0-1.14258.38184-2.08301,1.14746-2.82129.76367-.73828,1.80566-1.10742,3.12402-1.10742,1.30078,0,2.33789.36914,3.11133,1.10742s1.16016,1.67871,1.16016,2.82129c0,1.16016-.3916,2.10938-1.17285,2.84766-.7832.73828-1.81543,1.10742-3.09863,1.10742s-2.31641-.36914-3.09863-1.10742-1.17285-1.6875-1.17285-2.84766ZM190.70711,668.93419h-7.64648v-28.5293h7.64648v28.5293Z"/>
    <path class="cls-9" d="M207.66121,659.62657l5.2998-19.22168h7.96289l-9.62402,28.5293h-7.27734l-9.62402-28.5293h7.96289l5.2998,19.22168Z"/>
    <path class="cls-9" d="M237.06062,669.46153c-4.18359,0-7.58984-1.2832-10.21777-3.84961s-3.94141-5.98535-3.94141-10.25684v-.73828c0-2.86523.55371-5.42676,1.66113-7.68652,1.10742-2.25781,2.67676-3.99805,4.70605-5.2207,2.03125-1.2207,4.34668-1.83203,6.94824-1.83203,3.90234,0,6.97363,1.23047,9.21582,3.69141,2.24023,2.46094,3.36133,5.9502,3.36133,10.46777v3.11133h-18.16699c.24609,1.86328.98926,3.35742,2.22754,4.48242,1.24023,1.125,2.80859,1.6875,4.70703,1.6875,2.93555,0,5.22949-1.06348,6.88184-3.19043l3.74414,4.19238c-1.14258,1.61719-2.68945,2.87891-4.64062,3.78418-1.95117.9043-4.11328,1.35742-6.48633,1.35742ZM236.19051,646.0211c-1.51172,0-2.73828.51172-3.67773,1.53613-.94141,1.02441-1.54297,2.49023-1.80664,4.39648h10.59961v-.60938c-.03516-1.69531-.49219-3.00586-1.37109-3.93262s-2.12695-1.39062-3.74414-1.39062Z"/>
    <path class="cls-9" d="M269.14949,647.5504c-1.03711-.14062-1.95117-.21094-2.74219-.21094-2.88281,0-4.77246.97559-5.66895,2.92676v18.66797h-7.62012v-28.5293h7.19824l.21094,3.40137c1.5293-2.61914,3.64746-3.92871,6.35449-3.92871.84375,0,1.63477.11426,2.37305.34277l-.10547,7.33008Z"/>
    <path class="cls-9" d="M283.94148,658.15001l5.27344-17.74512h8.17383l-11.46973,32.95898-.63281,1.50293c-1.70508,3.72656-4.51758,5.58984-8.4375,5.58984-1.10742,0-2.23242-.16699-3.375-.50098v-5.77441l1.16016.02637c1.44141,0,2.51758-.21973,3.23047-.65918.71094-.43945,1.26953-1.16895,1.67383-2.18848l.89648-2.34668-9.99316-28.6084h8.2002l5.2998,17.74512Z"/>
    <path class="cls-9" d="M324.67879,630.54356l9.86133,27.84375,9.80859-27.84375h10.38867v38.39062h-7.93652v-10.49414l.79102-18.11426-10.3623,28.6084h-5.43164l-10.33594-28.58203.79102,18.08789v10.49414h-7.91016v-38.39062h10.33594Z"/>
    <path class="cls-9" d="M374.27547,669.46153c-4.18359,0-7.58984-1.2832-10.21777-3.84961s-3.94141-5.98535-3.94141-10.25684v-.73828c0-2.86523.55371-5.42676,1.66113-7.68652,1.10742-2.25781,2.67676-3.99805,4.70605-5.2207,2.03125-1.2207,4.34668-1.83203,6.94824-1.83203,3.90234,0,6.97363,1.23047,9.21582,3.69141,2.24023,2.46094,3.36133,5.9502,3.36133,10.46777v3.11133h-18.16699c.24609,1.86328.98926,3.35742,2.22754,4.48242,1.24023,1.125,2.80859,1.6875,4.70703,1.6875,2.93555,0,5.22949-1.06348,6.88184-3.19043l3.74414,4.19238c-1.14258,1.61719-2.68945,2.87891-4.64062,3.78418-1.95117.9043-4.11328,1.35742-6.48633,1.35742ZM373.40535,646.0211c-1.51172,0-2.73828.51172-3.67773,1.53613-.94141,1.02441-1.54297,2.49023-1.80664,4.39648h10.59961v-.60938c-.03516-1.69531-.49219-3.00586-1.37109-3.93262s-2.12695-1.39062-3.74414-1.39062Z"/>
    <path class="cls-9" d="M402.19832,663.31797c1.40625,0,2.54883-.38672,3.42773-1.16016s1.33594-1.80176,1.37109-3.08496h7.14551c-.01758,1.93359-.54492,3.70508-1.58203,5.3125-1.03711,1.60938-2.45703,2.85742-4.25781,3.74414-1.80273.8877-3.79297,1.33203-5.97266,1.33203-4.07812,0-7.29492-1.2959-9.65039-3.88867s-3.5332-6.1748-3.5332-10.74512v-.50098c0-4.39453,1.16895-7.90137,3.50684-10.52051s5.5459-3.92871,9.62402-3.92871c3.56836,0,6.42871,1.01562,8.58203,3.04492,2.15332,2.03125,3.24805,4.7334,3.2832,8.1084h-7.14551c-.03516-1.48438-.49219-2.69043-1.37109-3.61816s-2.03906-1.3916-3.48047-1.3916c-1.77539,0-3.11621.64746-4.02051,1.94043-.90625,1.29492-1.3584,3.39355-1.3584,6.29883v.79199c0,2.94043.44824,5.05273,1.34473,6.33789s2.25879,1.92773,4.08691,1.92773Z"/>
    <path class="cls-9" d="M425.92879,643.51622c2.02148-2.42578,4.56152-3.63867,7.62012-3.63867,6.1875,0,9.3252,3.59473,9.41309,10.78418v18.27246h-7.62012v-18.10352c0-1.6377-.35156-2.84961-1.05469-3.63379-.70312-.7832-1.87207-1.17578-3.50684-1.17578-2.23242,0-3.84961.86328-4.85156,2.58984v20.32324h-7.62012v-40.5h7.62012v15.08203Z"/>
    <path class="cls-9" d="M465.24226,668.93419c-.35156-.68555-.60645-1.53809-.76465-2.55762-1.8457,2.05664-4.24512,3.08496-7.19824,3.08496-2.79492,0-5.11133-.80859-6.94727-2.42578-1.83789-1.61719-2.75586-3.65625-2.75586-6.11719,0-3.02344,1.12109-5.34375,3.36133-6.96094,2.24219-1.61719,5.48047-2.43457,9.7168-2.45215h3.50684v-1.63477c0-1.31836-.33887-2.37305-1.01465-3.16406-.67773-.79102-1.74512-1.18652-3.2041-1.18652-1.2832,0-2.29004.30762-3.01855.92285-.73047.61523-1.09473,1.45898-1.09473,2.53125h-7.62012c0-1.65234.50977-3.18164,1.5293-4.58789s2.46094-2.50879,4.32422-3.30957c1.86328-.79883,3.95508-1.19922,6.27539-1.19922,3.51562,0,6.30566.88281,8.37109,2.65039,2.06543,1.76562,3.09863,4.24902,3.09863,7.44824v12.36621c.01758,2.70703.39551,4.75488,1.13379,6.14355v.44824h-7.69922ZM458.94051,663.63438c1.125,0,2.16211-.25098,3.11133-.75098.94922-.50195,1.65234-1.17383,2.10938-2.01758v-4.9043h-2.84766c-3.81445,0-5.84473,1.31836-6.09082,3.95508l-.02637.44824c0,.94922.33398,1.73145,1.00195,2.34668s1.58203.92285,2.74219.92285Z"/>
    <path class="cls-9" d="M484.67488,640.40489l.2373,3.2959c2.03906-2.54883,4.77246-3.82324,8.2002-3.82324,3.02344,0,5.27344.8877,6.75,2.66309s2.23242,4.42969,2.26758,7.96289v18.43066h-7.62012v-18.28809c0-1.62109-.35156-2.79688-1.05469-3.52832-.70312-.73047-1.87207-1.09668-3.50684-1.09668-2.14453,0-3.75293.91602-4.8252,2.74805v20.16504h-7.62012v-28.5293h7.17188Z"/>
    <path class="cls-9" d="M507.85164,633.02208c0-1.14258.38184-2.08301,1.14746-2.82129.76367-.73828,1.80566-1.10742,3.12402-1.10742,1.30078,0,2.33789.36914,3.11133,1.10742s1.16016,1.67871,1.16016,2.82129c0,1.16016-.3916,2.10938-1.17285,2.84766-.7832.73828-1.81543,1.10742-3.09863,1.10742s-2.31641-.36914-3.09863-1.10742-1.17285-1.6875-1.17285-2.84766ZM515.94637,668.93419h-7.64648v-28.5293h7.64648v28.5293Z"/>
    <path class="cls-9" d="M537.67293,661.0504c0-.93164-.46191-1.66504-1.38379-2.20215-.92383-.53516-2.4043-1.01465-4.44336-1.43652-6.78516-1.42383-10.17773-4.30664-10.17773-8.64844,0-2.53125,1.0498-4.64453,3.15039-6.34082s4.84766-2.54492,8.24023-2.54492c3.62109,0,6.5166.85254,8.6875,2.55762s3.25684,3.91992,3.25684,6.64453h-7.62012c0-1.08984-.35156-1.99121-1.05469-2.70215-.70312-.71289-1.80176-1.06836-3.2959-1.06836-1.2832,0-2.27637.29004-2.97949.87012s-1.05469,1.31836-1.05469,2.21484c0,.84375.39941,1.52539,1.19922,2.04395s2.14941.9668,4.04785,1.34375c1.89844.37891,3.49805.80469,4.79883,1.2793,4.02539,1.47656,6.03809,4.03418,6.03809,7.67285,0,2.60156-1.11621,4.70605-3.34863,6.31543-2.23242,1.60742-5.11523,2.41211-8.64844,2.41211-2.39062,0-4.51367-.42676-6.36816-1.2793-1.85449-.85156-3.30859-2.02051-4.36328-3.50586s-1.58203-3.08984-1.58203-4.8125h7.22461c.07031,1.35352.57129,2.39062,1.50293,3.11133s2.17969,1.08105,3.74414,1.08105c1.45898,0,2.56152-.27637,3.30957-.83105.74609-.55273,1.12012-1.27832,1.12012-2.1748Z"/>
    <path class="cls-9" d="M557.13191,640.40489l.2373,3.19043c2.02148-2.47852,4.75488-3.71777,8.2002-3.71777,3.67383,0,6.19629,1.4502,7.56738,4.35059,2.00391-2.90039,4.86035-4.35059,8.56934-4.35059,3.09375,0,5.39648.90137,6.9082,2.70312s2.26758,4.5127,2.26758,8.13379v18.21973h-7.64648v-18.23535c0-1.62109-.31641-2.80566-.94922-3.55469s-1.74902-1.12305-3.34863-1.12305c-2.28516,0-3.86719,1.09277-4.74609,3.27734l.02637,19.63574h-7.62012v-18.20898c0-1.65625-.3252-2.85449-.97559-3.59375-.65039-.74023-1.75781-1.11035-3.32227-1.11035-2.16211,0-3.72656.89844-4.69336,2.69531v20.21777h-7.62012v-28.5293h7.14551Z"/>
  </g>
  <g>
    <rect class="cls-1" x="99.43329" y="978.64779" width="519.40342" height="79.06053"/>
    <path class="cls-9" d="M102.8614,1019.14805v-38.39062h13.44727c4.6582,0,8.19141.89258,10.59961,2.67578,2.4082,1.78516,3.6123,4.39941,3.6123,7.84473,0,1.88086-.4834,3.53809-1.4502,4.96973-.9668,1.43359-2.31152,2.4834-4.03418,3.15137,1.96875.49219,3.52051,1.48535,4.65332,2.97949,1.13477,1.49414,1.70117,3.32227,1.70117,5.48438,0,3.69141-1.17773,6.48633-3.5332,8.38477s-5.71289,2.86523-10.07227,2.90039h-14.92383ZM110.77156,996.84141h5.85352c3.99023-.07031,5.98535-1.66113,5.98535-4.77246,0-1.74023-.50586-2.99316-1.5166-3.75684-1.01074-.76562-2.60547-1.14746-4.78516-1.14746h-5.53711v9.67676ZM110.77156,1002.43126v10.3623h6.77637c1.86328,0,3.31738-.44336,4.36426-1.33105,1.04492-.8877,1.56836-2.11426,1.56836-3.67871,0-3.51562-1.81934-5.2998-5.45801-5.35254h-7.25098Z"/>
    <path class="cls-9" d="M136.76961,983.23594c0-1.14258.38184-2.08301,1.14746-2.82129.76367-.73828,1.80566-1.10742,3.12402-1.10742,1.30078,0,2.33789.36914,3.11133,1.10742s1.16016,1.67871,1.16016,2.82129c0,1.16016-.3916,2.10938-1.17285,2.84766-.7832.73828-1.81543,1.10742-3.09863,1.10742s-2.31641-.36914-3.09863-1.10742-1.17285-1.6875-1.17285-2.84766ZM144.86433,1019.14805h-7.64648v-28.5293h7.64648v28.5293Z"/>
    <path class="cls-9" d="M149.9532,1004.61973c0-2.83008.54492-5.35254,1.63477-7.56738s2.6582-3.92871,4.70703-5.1416c2.04688-1.21289,4.4248-1.81934,7.13184-1.81934,3.84961,0,6.99121,1.17773,9.42676,3.5332,2.43359,2.35547,3.79199,5.55469,4.07324,9.59766l.05273,1.95117c0,4.37695-1.22168,7.88867-3.66504,10.5332-2.44336,2.64648-5.72168,3.96875-9.83496,3.96875s-7.39551-1.31836-9.84863-3.95508c-2.45117-2.63672-3.67773-6.22266-3.67773-10.75781v-.34277ZM157.57332,1005.16075c0,2.71094.50977,4.78418,1.5293,6.21875,1.01953,1.43555,2.47852,2.15234,4.37695,2.15234,1.8457,0,3.28711-.70898,4.32422-2.12598s1.55566-3.68359,1.55566-6.7998c0-2.6582-.51855-4.71777-1.55566-6.17969-1.03711-1.46094-2.49609-2.19141-4.37695-2.19141-1.86328,0-3.30469.72656-4.32422,2.17871s-1.5293,3.70117-1.5293,6.74707Z"/>
    <path class="cls-9" d="M189.71492,1019.14805h-7.64648v-40.5h7.64648v40.5Z"/>
    <path class="cls-9" d="M194.80379,1004.61973c0-2.83008.54492-5.35254,1.63477-7.56738s2.6582-3.92871,4.70703-5.1416c2.04688-1.21289,4.4248-1.81934,7.13184-1.81934,3.84961,0,6.99121,1.17773,9.42676,3.5332,2.43359,2.35547,3.79199,5.55469,4.07324,9.59766l.05273,1.95117c0,4.37695-1.22168,7.88867-3.66504,10.5332-2.44336,2.64648-5.72168,3.96875-9.83496,3.96875s-7.39551-1.31836-9.84863-3.95508c-2.45117-2.63672-3.67773-6.22266-3.67773-10.75781v-.34277ZM202.4239,1005.16075c0,2.71094.50977,4.78418,1.5293,6.21875,1.01953,1.43555,2.47852,2.15234,4.37695,2.15234,1.8457,0,3.28711-.70898,4.32422-2.12598s1.55566-3.68359,1.55566-6.7998c0-2.6582-.51855-4.71777-1.55566-6.17969-1.03711-1.46094-2.49609-2.19141-4.37695-2.19141-1.86328,0-3.30469.72656-4.32422,2.17871s-1.5293,3.70117-1.5293,6.74707Z"/>
    <path class="cls-9" d="M225.41609,1004.67247c0-4.37695,1.04199-7.90137,3.12402-10.57324,2.08398-2.67188,4.8916-4.00781,8.4248-4.00781,3.12891,0,5.56348,1.07227,7.30371,3.2168l.31641-2.68945h6.9082v27.58008c0,2.49609-.56641,4.66699-1.70117,6.5127-1.13281,1.8457-2.72852,3.25195-4.78516,4.21875s-4.46484,1.4502-7.22461,1.4502c-2.0918,0-4.13086-.41797-6.11719-1.25195-1.98633-.83594-3.48926-1.91211-4.50879-3.23047l3.375-4.64062c1.89844,2.12695,4.20117,3.19043,6.9082,3.19043,2.02148,0,3.59473-.54004,4.71973-1.62207,1.125-1.08008,1.6875-2.61426,1.6875-4.60059v-1.5293c-1.75781,1.98633-4.06934,2.97949-6.93457,2.97949-3.42773,0-6.20117-1.33984-8.31934-4.02148-2.11816-2.67969-3.17676-6.23535-3.17676-10.66504v-.31641ZM233.03621,1005.21446c0,2.5957.51855,4.63086,1.55566,6.10547s2.46094,2.21191,4.27148,2.21191c2.32031,0,3.98145-.87402,4.9834-2.62207v-12.05273c-1.01953-1.74805-2.66309-2.62207-4.93066-2.62207-1.82812,0-3.26562.75098-4.31152,2.25195s-1.56836,3.74316-1.56836,6.72754Z"/>
    <path class="cls-9" d="M257.29402,983.23594c0-1.14258.38184-2.08301,1.14746-2.82129.76367-.73828,1.80566-1.10742,3.12402-1.10742,1.30078,0,2.33789.36914,3.11133,1.10742s1.16016,1.67871,1.16016,2.82129c0,1.16016-.3916,2.10938-1.17285,2.84766-.7832.73828-1.81543,1.10742-3.09863,1.10742s-2.31641-.36914-3.09863-1.10742-1.17285-1.6875-1.17285-2.84766ZM265.38875,1019.14805h-7.64648v-28.5293h7.64648v28.5293Z"/>
    <path class="cls-9" d="M283.52937,1013.53184c1.40625,0,2.54883-.38672,3.42773-1.16016s1.33594-1.80176,1.37109-3.08496h7.14551c-.01758,1.93359-.54492,3.70508-1.58203,5.3125-1.03711,1.60938-2.45703,2.85742-4.25781,3.74414-1.80273.8877-3.79297,1.33203-5.97266,1.33203-4.07812,0-7.29492-1.2959-9.65039-3.88867s-3.5332-6.1748-3.5332-10.74512v-.50098c0-4.39453,1.16895-7.90137,3.50684-10.52051s5.5459-3.92871,9.62402-3.92871c3.56836,0,6.42871,1.01562,8.58203,3.04492,2.15332,2.03125,3.24805,4.7334,3.2832,8.1084h-7.14551c-.03516-1.48438-.49219-2.69043-1.37109-3.61816s-2.03906-1.3916-3.48047-1.3916c-1.77539,0-3.11621.64746-4.02051,1.94043-.90625,1.29492-1.3584,3.39355-1.3584,6.29883v.79199c0,2.94043.44824,5.05273,1.34473,6.33789s2.25879,1.92773,4.08691,1.92773Z"/>
    <path class="cls-9" d="M316.35652,1019.14805c-.35156-.68555-.60645-1.53809-.76465-2.55762-1.8457,2.05664-4.24512,3.08496-7.19824,3.08496-2.79492,0-5.11133-.80859-6.94727-2.42578-1.83789-1.61719-2.75586-3.65625-2.75586-6.11719,0-3.02344,1.12109-5.34375,3.36133-6.96094,2.24219-1.61719,5.48047-2.43457,9.7168-2.45215h3.50684v-1.63477c0-1.31836-.33887-2.37305-1.01465-3.16406-.67773-.79102-1.74512-1.18652-3.2041-1.18652-1.2832,0-2.29004.30762-3.01855.92285-.73047.61523-1.09473,1.45898-1.09473,2.53125h-7.62012c0-1.65234.50977-3.18164,1.5293-4.58789s2.46094-2.50879,4.32422-3.30957c1.86328-.79883,3.95508-1.19922,6.27539-1.19922,3.51562,0,6.30566.88281,8.37109,2.65039,2.06543,1.76562,3.09863,4.24902,3.09863,7.44824v12.36621c.01758,2.70703.39551,4.75488,1.13379,6.14355v.44824h-7.69922ZM310.05476,1013.84825c1.125,0,2.16211-.25098,3.11133-.75098.94922-.50195,1.65234-1.17383,2.10938-2.01758v-4.9043h-2.84766c-3.81445,0-5.84473,1.31836-6.09082,3.95508l-.02637.44824c0,.94922.33398,1.73145,1.00195,2.34668s1.58203.92285,2.74219.92285Z"/>
    <path class="cls-9" d="M336.81746,1019.14805h-7.64648v-40.5h7.64648v40.5Z"/>
    <path class="cls-9" d="M386.94148,1008.07383l5.16797-27.31641h7.88379l-8.5166,38.39062h-7.96289l-6.24902-25.68164-6.24902,25.68164h-7.96289l-8.5166-38.39062h7.88379l5.19434,27.26367,6.32812-27.26367h6.69727l6.30176,27.31641Z"/>
    <path class="cls-9" d="M416.07723,1019.6754c-4.18359,0-7.58984-1.2832-10.21777-3.84961s-3.94141-5.98535-3.94141-10.25684v-.73828c0-2.86523.55371-5.42676,1.66113-7.68652,1.10742-2.25781,2.67676-3.99805,4.70605-5.2207,2.03125-1.2207,4.34668-1.83203,6.94824-1.83203,3.90234,0,6.97363,1.23047,9.21582,3.69141,2.24023,2.46094,3.36133,5.9502,3.36133,10.46777v3.11133h-18.16699c.24609,1.86328.98926,3.35742,2.22754,4.48242,1.24023,1.125,2.80859,1.6875,4.70703,1.6875,2.93555,0,5.22949-1.06348,6.88184-3.19043l3.74414,4.19238c-1.14258,1.61719-2.68945,2.87891-4.64062,3.78418-1.95117.9043-4.11328,1.35742-6.48633,1.35742ZM415.20711,996.23497c-1.51172,0-2.73828.51172-3.67773,1.53613-.94141,1.02441-1.54297,2.49023-1.80664,4.39648h10.59961v-.60938c-.03516-1.69531-.49219-3.00586-1.37109-3.93262s-2.12695-1.39062-3.74414-1.39062Z"/>
    <path class="cls-9" d="M448.66707,1019.14805c-.35156-.68555-.60645-1.53809-.76465-2.55762-1.8457,2.05664-4.24512,3.08496-7.19824,3.08496-2.79492,0-5.11133-.80859-6.94727-2.42578-1.83789-1.61719-2.75586-3.65625-2.75586-6.11719,0-3.02344,1.12109-5.34375,3.36133-6.96094,2.24219-1.61719,5.48047-2.43457,9.7168-2.45215h3.50684v-1.63477c0-1.31836-.33887-2.37305-1.01465-3.16406-.67773-.79102-1.74512-1.18652-3.2041-1.18652-1.2832,0-2.29004.30762-3.01855.92285-.73047.61523-1.09473,1.45898-1.09473,2.53125h-7.62012c0-1.65234.50977-3.18164,1.5293-4.58789s2.46094-2.50879,4.32422-3.30957c1.86328-.79883,3.95508-1.19922,6.27539-1.19922,3.51562,0,6.30566.88281,8.37109,2.65039,2.06543,1.76562,3.09863,4.24902,3.09863,7.44824v12.36621c.01758,2.70703.39551,4.75488,1.13379,6.14355v.44824h-7.69922ZM442.36531,1013.84825c1.125,0,2.16211-.25098,3.11133-.75098.94922-.50195,1.65234-1.17383,2.10938-2.01758v-4.9043h-2.84766c-3.81445,0-5.84473,1.31836-6.09082,3.95508l-.02637.44824c0,.94922.33398,1.73145,1.00195,2.34668s1.58203.92285,2.74219.92285Z"/>
    <path class="cls-9" d="M486.76765,1005.14708c0,4.39453-.99805,7.91504-2.99316,10.55957-1.99512,2.64648-4.68848,3.96875-8.08105,3.96875-2.88281,0-5.21191-1.00195-6.9873-3.00586v13.44727h-7.62012v-39.49805h7.06641l.26367,2.79492c1.8457-2.21484,4.25391-3.32227,7.22461-3.32227,3.51562,0,6.24902,1.30078,8.2002,3.90234s2.92676,6.1875,2.92676,10.75781v.39551ZM479.14754,1004.56602c0-2.66211-.4707-4.71582-1.41016-6.16211-.94141-1.44629-2.30762-2.16895-4.10059-2.16895-2.39062,0-4.03418.91699-4.93066,2.75v11.7168c.93164,1.88672,2.59277,2.83008,4.9834,2.83008,3.63867,0,5.45801-2.98828,5.45801-8.96582Z"/>
    <path class="cls-9" d="M490.30086,1004.61973c0-2.83008.54492-5.35254,1.63477-7.56738s2.6582-3.92871,4.70703-5.1416c2.04688-1.21289,4.4248-1.81934,7.13184-1.81934,3.84961,0,6.99121,1.17773,9.42676,3.5332,2.43359,2.35547,3.79199,5.55469,4.07324,9.59766l.05273,1.95117c0,4.37695-1.22168,7.88867-3.66504,10.5332-2.44336,2.64648-5.72168,3.96875-9.83496,3.96875s-7.39551-1.31836-9.84863-3.95508c-2.45117-2.63672-3.67773-6.22266-3.67773-10.75781v-.34277ZM497.92098,1005.16075c0,2.71094.50977,4.78418,1.5293,6.21875,1.01953,1.43555,2.47852,2.15234,4.37695,2.15234,1.8457,0,3.28711-.70898,4.32422-2.12598s1.55566-3.68359,1.55566-6.7998c0-2.6582-.51855-4.71777-1.55566-6.17969-1.03711-1.46094-2.49609-2.19141-4.37695-2.19141-1.86328,0-3.30469.72656-4.32422,2.17871s-1.5293,3.70117-1.5293,6.74707Z"/>
    <path class="cls-9" d="M529.03426,990.61876l.2373,3.2959c2.03906-2.54883,4.77246-3.82324,8.2002-3.82324,3.02344,0,5.27344.8877,6.75,2.66309s2.23242,4.42969,2.26758,7.96289v18.43066h-7.62012v-18.28809c0-1.62109-.35156-2.79688-1.05469-3.52832-.70312-.73047-1.87207-1.09668-3.50684-1.09668-2.14453,0-3.75293.91602-4.8252,2.74805v20.16504h-7.62012v-28.5293h7.17188Z"/>
  </g>
  <circle class="cls-8" cx="1126.02843" cy="215.59689" r="110.62781"/>
  <g>
    <path class="cls-11" d="M1044.98017,259.70088l7.7708-4.49088-.49357-1.51198c-4.69462-14.44284,1.45487-30.44329,14.62621-38.04765,4.92705-2.84662,10.51698-4.3474,16.17004-4.3474,10.94283,0,21.12091,5.61317,27.07843,14.69364l6.00372-3.52756c-.49012-1.20436-.77191-2.51633-.77191-3.89659,0-5.14916,3.76832-9.38666,8.69165-10.18583v-6.40517c-17.11814-.84509-30.79768-14.99782-30.79768-32.32171,0-15.02508,10.63176-28.32009,25.27806-31.60862l1.53235-.34435v-8.99295l-2.29853.39284c-22.16744,3.82514-38.25713,22.94538-38.25713,45.46578,0,7.17938,1.67583,14.24742,4.86679,20.62935-7.05628.45024-13.95473,2.53096-20.1157,6.08636-19.68239,11.36637-28.13615,35.02025-20.10135,56.24935l.81783,2.16337Z"/>
    <g>
      <path class="cls-11" d="M1158.06426,169.65974c0,17.43925-13.85888,31.66745-31.13916,32.33893v6.34233c5.14342.60491,9.14676,4.92677,9.14676,10.23146,0,1.47439-.31795,2.87101-.87321,4.14051l5.8832,3.44492c5.94145-9.17689,16.17865-14.85491,27.18948-14.85491,5.65306,0,11.24298,1.50079,16.16717,4.3474,13.17133,7.60437,19.32369,23.60481,14.6262,38.04765l-.4907,1.51198,7.7708,4.49088.81783-2.16337c8.03193-21.22909-.42183-44.88584-20.10421-56.24935-6.1581-3.5554-13.05942-5.63613-20.1157-6.08636,3.19383-6.38193,4.86679-13.44997,4.86679-20.62935,0-22.7273-16.25899-41.87882-38.66174-45.53437l-2.27844-.37333v8.97602l1.55531.33029c14.85577,3.1505,25.63962,16.47995,25.63962,31.68868Z"/>
      <path class="cls-11" d="M1125.66249,183.33469c8.43367,0,16.16975,2.95595,22.25783,7.87181,3.09856-3.19297,5.4783-7.06517,6.96818-11.35891-8.14958-6.12367-18.24617-9.79672-29.22602-9.79672-10.97611,0-21.07012,3.67044-29.21855,9.79069,1.49505,4.28513,3.88425,8.15131,6.98569,11.346,6.08435-4.90381,13.81039-7.85287,22.23287-7.85287Z"/>
    </g>
    <g>
      <path class="cls-11" d="M1192.04859,265.68681c-6.10644,6.62871-14.80124,10.42831-23.85187,10.42831-5.64732,0-11.23724-1.50079-16.16143-4.34166-7.49532-4.32731-12.85568-11.31788-15.09682-19.67665-2.1298-7.95445-1.15845-16.23374,2.66612-23.47654l-5.94288-3.47993c-1.89908,2.29422-4.73278,3.78697-7.9447,3.78697-3.30804,0-6.21951-1.58027-8.11458-3.9953l-5.97789,3.51204c8.20439,15.33072,2.82854,34.5732-12.33772,43.32942-4.92419,2.84088-10.51124,4.34166-16.15856,4.34166-9.0535,0-17.74543-3.7996-23.85188-10.42831l-1.06461-1.15615-7.79089,4.49949,1.49218,1.79033c8.77802,10.54309,21.71118,16.58641,35.47939,16.58641,8.05202,0,16.00934-2.14099,23.01971-6.1868,6.11506-3.52957,11.33768-8.41961,15.24891-14.25603,3.9141,5.83642,9.13098,10.72646,15.24891,14.25603,7.01036,4.04581,14.97056,6.1868,23.01971,6.1868,13.77108,0,26.70136-6.04332,35.47938-16.58641l1.49218-1.79033-7.78802-4.49949-1.06461,1.15615Z"/>
      <g>
        <path class="cls-11" d="M1106.6929,263.73977c2.96742-3.47933,5.10095-7.51882,6.27891-11.83466-13.31453-5.11042-22.78297-17.98217-22.78297-33.09735,0-1.74671.16873-3.4498.41264-5.12907-2.43799-.61555-4.96838-.94093-7.54669-.94093-1.96365,0-3.90692.25424-5.82781.62668-.19886,1.78921-.32168,3.60106-.32168,5.44332,0,20.20121,12.28234,37.53228,29.78759,44.93201Z"/>
        <path class="cls-11" d="M1138.379,251.89564c1.21584,4.43263,3.37146,8.43654,6.26313,11.84043,17.49951-7.40235,29.77726-24.73112,29.77726-44.92831,0-1.84255-.12282-3.6544-.32168-5.44386-1.92032-.37218-3.8633-.62614-5.82724-.62614-2.58061,0-5.11042.32771-7.54755.94179.24391,1.6787.41264,3.38208.41264,5.12821,0,15.10514-9.45581,27.97029-22.75657,33.08788Z"/>
      </g>
    </g>
  </g>
  <path class="cls-7" d="M1180.84953,980.46127h-33.61169c-16.32074,0-32.10708,6.6092-43.53762,18.18527l-8.2257,13.82783-14.64399-3.87609-12.11048-27.69416-90.39197-.10719,27.087,59.88261-26.75055,59.83567,90.51403-.05321,11.22163-28.12137,13.78175-3.44512,9.51828,13.80139c11.43054,11.56043,27.21688,18.17041,43.53762,18.17041h33.61169l.07668,7.89239,43.51493-.17526-.19091-7.77893c32.19862-1.4741,58.0705-28.04939,58.0705-60.13377,0-32.09925-25.89457-58.68236-58.10884-60.1416l.03051-8.28282-43.31619-.17605-.07668,8.39001Z"/>
  <path class="cls-6" d="M1180.84953,595.34024h-33.61169c-16.32074,0-32.10708,6.6092-43.53762,18.18527l-8.2257,13.82783-14.64399-3.87609-12.11048-27.69416-90.39197-.10719,27.087,59.88261-26.75055,59.83567,90.51403-.05321,11.22163-28.12137,13.78175-3.44512,9.51828,13.80139c11.43054,11.56043,27.21688,18.17041,43.53762,18.17041h33.61169l.07668,7.89239,43.51493-.17526-.19091-7.77893c32.19862-1.4741,58.0705-28.04939,58.0705-60.13377,0-32.09925-25.89457-58.68236-58.10884-60.1416l.03051-8.28282-43.31619-.17605-.07668,8.39001Z"/>
  <g>
    <g>
      <path class="cls-11" d="M712.2325,630.24473c-.32031.03516-.68848.0625-1.06348.0625-1.23926,0-2.19141-.30664-2.91016-.93848-1.29688-1.14062-1.35938-2.96582-1.19629-7.16992.0127-.32227.02344-.57129.02344-.69922h.01074c.00391-.91895.13574-4.84473,1.84766-6.18164.99805-.77832,2.61426-2.42188,3.79492-3.62109,1.2793-1.30078,1.86621-1.89062,2.35352-2.2373.89355-.63477,1.72559-1.02344,2.42773-1.25977.18848-.28711.4209-.58203.70996-.87207,1.31738-1.32227,2.92676-1.32227,3.53223-1.32227.1748,0,1.15039.01758,1.15039.01758.95703,0,5.63379.46289,8.6416.79688,8.625.95703,8.80762,1.21094,9.57812,2.27832.03613.0498,3.83594,5.69922,4.2666,8.0293l.0918.52344c2.25879.20215,5.9043.4873,6.3252.51172,2.49219.08984,5.38086,5.40723,5.50781,6.0957.30078,1.63867-.51172,2.80762-4.13965,5.95898l-.74121.64355-.98145.03027c-1.30566.04102-2.85059.09766-3.4209.12988l-.70703.20801-1.27832-.56641-28.38867-1.99902-2.60645,2.93164-2.82812-1.35059Z"/>
      <path class="cls-4" d="M721.76375,608.76368c.31519.00003.65991.01828,1.03882.01828.03198,0,.0647-.00012.09717-.00043.00415-.00003.00854-.00006.01318-.00006,1.2771.00009,15.62573,1.43503,15.98364,1.93054.35938.49734,3.52075,5.45496,3.79077,6.91739.17285.93695.38794,2.43079.54565,2.54416.15747.11337,8.177.73404,8.44629.74387.26904.00986,2.84229,3.35382,2.93237,3.84131.08984.48749-3.2356,3.3757-3.2356,3.3757,0,0-3.68555.11502-3.84912.16284l-.7959-.35193-30.22412-2.12842-2.13037,2.39581-1.71704-.8208s-.7688.15753-1.49048.15753c-.44385,0-.87012-.05957-1.08887-.25192-.57471-.50522-.19922-5.51651-.23926-5.89456s.33447-3.54626.80127-3.91058c1.94604-1.51895,5.29956-5.25156,6.04932-5.78461,1.54028-1.09503,2.71362-1.11432,2.79443-1.11432.00293,0,.00439.00003.00439.00003,0,0,.02368-.64471.69531-1.31952.43555-.43741.94824-.51031,1.57812-.51031M721.75301,603.24717c-.84253,0-3.36035.00912-5.47656,2.13455-.17456.17526-.33594.35199-.48511.52908-.71631.30853-1.4917.72891-2.29614,1.30078-.67749.48172-1.32373,1.12985-2.72095,2.54999-1.06348,1.08081-2.67065,2.71417-3.52637,3.38211-3.27319,2.55466-2.89917,8.77951-2.89282,8.8403-.00977-.09109-.03052-.26141-.02759-.50098-.00171.1293-.01099.34216-.02124.60773-.16333,4.19656-.28149,7.22864,2.13159,9.35004,1.22681,1.0784,2.8186,1.62524,4.7312,1.62524.18335,0,.3645-.00491.54102-.01346l.28735.13727,3.7439,1.78983,2.75781-3.10117.32715-.36801,26.55566,1.87009,1.75781.77731,1.36182-.39807c.67993-.03134,1.96338-.0777,3.04663-.11151l1.96265-.06125,1.48267-1.28766c3.06079-2.65842,5.70435-4.95432,5.04346-8.5405-.23315-1.26144-.82739-2.34332-2.44556-4.45517-1.41626-1.84848-2.88037-3.75925-5.62939-3.89566-.48608-.0311-2.46729-.18527-4.32178-.34009-1.2478-3.20343-4.23755-7.5387-4.27222-7.58694-1.66895-2.31104-3.55835-2.52066-11.51025-3.40295-1.90088-.21094-7.62451-.81305-8.94434-.81314h-.02612l-.03906.00031h-.01172c-.18677,0-.32397-.00418-.45508-.00766-.21509-.00568-.42065-.01041-.61743-.01041h-.01099Z"/>
    </g>
    <g>
      <path class="cls-11" d="M730.20711,712.04258c-4.25391,0-10.0293-.44629-15.07324-1.16504-8.90039-1.26758-10.07422-2.44727-10.68457-3.85742-.90527-2.09473-.79883-3.875-.76855-4.21094l.17578-1.92969,1.87402-.48926c1.24512-.3252,30.57324-7.95898,38.8877-7.95898.82227,0,1.49121.06836,2.04297.20898,5.36719,1.37207,11.27637,6.93359,12.29102,7.91699.61621.54492.99219,1.3457.99512,2.19043.00781,2.17871-2.20508,3.30078-3.39453,3.90332-2.45605,1.24512-12.20312,4.90234-24.3623,5.35645-.62695.02344-1.29102.03516-1.9834.03516Z"/>
      <path class="cls-4" d="M744.61824,695.18931c.57104-.00012,1.02954.03931,1.36035.12384,4.99878,1.2774,11.13037,7.29999,11.13037,7.29999,0,0,.66113.32861-1.80298,1.57794-2.46387,1.24927-11.92041,4.63751-23.21899,5.06-.59424.02222-1.22363.03284-1.88037.03284-8.81592,0-22.60034-1.91254-23.22559-3.3595-.67188-1.55469-.55322-2.86572-.55322-2.86572,0,0,30.13257-7.86841,38.19043-7.86938M744.62019,689.67277v5.51654l-.00024-5.51654h-.00244c-8.51978.00098-36.4292,7.22467-39.5835,8.04834l-3.75098.97949-.34937,3.8609c-.05737.63544-.15649,2.91357.9834,5.55127,1.3103,3.03204,4.1875,4.26465,12.82739,5.49542,5.24072.74658,11.021,1.19226,15.46216,1.19226.7334,0,1.43555-.01233,2.08643-.03668,12.65479-.47321,22.91211-4.33643,25.50757-5.65247,1.34595-.68231,4.9209-2.49493,4.90552-6.37549-.00659-1.67462-.72925-3.21509-1.94995-4.27051-1.61353-1.55402-7.59082-7.00946-13.41187-8.49695-.78906-.20166-1.65479-.29559-2.72412-.29559h0Z"/>
    </g>
    <g>
      <path class="cls-11" d="M708.04793,644.60997c-1.05078,0-3.00586,0-3.71289-1.90332l-.66699-1.79883,1.24805-1.09473c-.00098-.02246-.00195-.04297-.00293-.06348-.00879-.30176-.02051-.72559.09277-1.20312.04199-.57617.05566-2.40332.06445-3.52344.0166-2.13867.02832-2.99121.08887-3.46777.21973-1.71387,1.3623-3.58887,3.13379-5.14355,1.76562-1.55176,5.72656-3.77832,7.11523-4.3457,4.16016-1.70312,11.19043-1.99316,14.96777-2.14844.37207-.01562.78809-.02441,1.23633-.02441,2.04395,0,9.04004.19922,13.22656,2.7627,1.68262,1.03027,3.54688,2.32715,4.62207,4.13184.97168,1.63379,1.55371,4.10547,1.72852,7.34668.0459.83105.61523,2.65625,1.00488,3.68652l1.28809,3.40625-3.62598.31934c-1.42676.125-35.00781,3.06348-41.80859,3.06348-.00098,0,0,0,0,0Z"/>
      <path class="cls-4" d="M731.60799,622.65132c3.38135,0,8.81421.53421,11.79028,2.35712,1.66333,1.01871,2.98926,2.00977,3.69214,3.19034.96924,1.62814,1.25635,4.4425,1.3457,6.08514.08911,1.64264,1.17896,4.51416,1.17896,4.51416,0,0-34.81665,3.05414-41.5686,3.05414-.81738,0-1.22339-.04477-1.10693-.14508,1.07959-.9292.60107-2.13901.7666-2.58005s.08496-6.40533.18945-7.22122c.10474-.81586.75024-2.13351,2.21655-3.42117,1.46606-1.28763,5.13428-3.37305,6.34009-3.86636,3.71265-1.51883,10.62476-1.80383,14.03687-1.94531.33838-.01404.71387-.0217,1.1189-.0217M731.60799,617.13478c-.48779,0-.93994.00952-1.34741.02643-5.87183.24347-11.85181.69641-15.89722,2.35132-1.53979.62997-5.81104,3.00006-7.8916,4.8273-2.26807,1.99173-3.74365,4.4935-4.04785,6.86362-.08105.63358-.09375,1.4462-.11182,3.79556-.00732.97717-.01929,2.54337-.04907,3.19159-.01978.10474-.03613.20679-.0498.30588l-1.78052,1.53253,1.31665,3.63718c.91162,2.45685,3.03027,3.70258,6.29712,3.70258,6.91406,0,40.61914-2.94968,42.05054-3.07526l7.26245-.63705-2.58691-6.81586c-.38232-1.01413-.78638-2.41592-.82959-2.87906-.20215-3.72186-.89355-6.53732-2.1123-8.58463-1.38159-2.3204-3.58154-3.86649-5.55127-5.07285-4.80078-2.94073-12.44336-3.16928-14.67139-3.16928h0Z"/>
    </g>
    <g>
      <path class="cls-11" d="M701.05183,640.73985l1.45898-.83105c.45117-.25684,11.20117-6.30078,23.64062-6.77148,1.06348-.04102,2.10352-.05957,3.12305-.05957,13.87988,0,23.5625,3.43945,23.96777,3.58496l1.67285.60449,5.1416,65.10352-3.91699-1.25586c-.10352-.0332-10.48242-3.32031-21.3877-3.32031-1.14648,0-2.27441.03711-3.35059.10938-14.16113.95117-24.09375,4.86328-24.19238,4.90234l-3.62402,1.44727-2.5332-63.51367Z"/>
      <path class="cls-4" d="M729.27889,635.83662c13.55469.00015,23.02686,3.42111,23.02686,3.42111l4.67749,59.23138s-10.73169-3.45288-22.23242-3.45264c-1.17358,0-2.3562.03595-3.53516.11523-14.82397.99677-25.03223,5.09399-25.03223,5.09399l-2.30884-57.93939s10.47339-5.96213,22.38135-6.41269c1.02808-.03891,2.03589-.05704,3.02295-.05701M729.27889,630.32005h0c-1.07471,0-2.16211.02051-3.23145.06097-13.10547.49588-24.42651,6.86044-24.9021,7.13113l-2.9165,1.66034.13354,3.35349,2.30884,57.93939.31128,7.81207,7.25586-2.91217c.08569-.034,9.67822-3.79034,23.34741-4.70947,1.01465-.06818,2.07959-.10278,3.16504-.10278,10.44434-.00024,20.44824,3.15735,20.5481,3.18921l7.82495,2.50006-.64111-8.18744-4.67749-59.23138-.28003-3.54599-3.3457-1.20825c-.42383-.15311-10.54517-3.74899-24.90063-3.74918h0Z"/>
    </g>
  </g>
  <g>
    <path class="cls-3" d="M1497.02311,710.36181s15.26225-14.11262,15.68418-62.75971c.41235-47.54205-15.92192-71.01088-15.92192-71.01088"/>
    <g>
      <path class="cls-11" d="M1747.74715,713.1793c-6.9873,0-26.47168-.26562-49.0332-.57324-28.9375-.39453-61.73633-.84277-76.74219-.84277-1.1123,0-2.12598.00293-3.03125.00781l-25.6377.24219c-32.31055.30664-81.1377.76855-90.6416.83984l-.125.00098c-16.65234,0-26.77539-24.08594-27.0791-64.42871-.2627-34.91406,7.28223-70.69434,24.73145-71.92578,6.50781-.45898,13.28906-1.66895,14.54785-1.90039.26758-.63477.66309-1.77441,1.12305-3.74219.67676-2.89844,2.24512-5.08984,7.70117-6.35742,5.2373-1.2168,14.92578-1.83789,30.49023-1.95508,2.16504-.0166,4.18848-.02441,6.08691-.02441,24.70996,0,27.75684,1.35449,29.58496,3.41992,1.37207,1.55078,1.15918,3.28906,1.05664,4.12402-.0127.10547-.03223.21289-.03711.32324.45898,1.82422.84961,2.91699,1.12109,3.55078,12.41016.02539,149.73438.31543,156.99902.68652,8.05176.41113,14.83984,9.77148,20.17578,27.82227,4.41699,14.94336,6.52344,31.58203,6.65234,41.44336.25391,19.4873-5.63184,52.84863-17.3418,64.7998-2.8916,2.95215-6.02246,4.46094-9.30664,4.48535l-1.29492.00391Z"/>
      <path class="cls-4" d="M1560.14412,565.58519c33.24097.00027,26.85352,2.45667,27.60083,5.44995,1.32422,5.3045,2.41772,6.16629,2.98901,6.16629.27515,0,.4292-.20013.4292-.20013,0,0,150.08472.30283,157.54297.68378,14.7583.75381,23.64966,45.51144,23.91943,66.24557.32056,24.63028-9.11548,66.07147-23.60571,66.18073-.35669.00269-.77734.00403-1.26147.00403-15.94385,0-99.12183-1.41638-125.78369-1.41638-1.11865,0-2.1416.0025-3.052.00769-23.27075.21796-103.68945.987-116.28467,1.08197-.03442.00024-.06714.00037-.10156.00037-14.43115,0-23.72705-23.25458-24.0144-61.38718-.28394-37.64447,8.16724-67.87637,21.88232-68.84485,7.44995-.526,15.11133-1.98541,15.11133-1.98541,0,0,.15356.1937.42358.1937.56885,0,1.65405-.86087,2.90405-6.21075.74194-3.17532,1.94409-5.69421,35.2312-5.94516,2.15942-.01627,4.17603-.02423,6.06958-.0242M1560.14412,559.45576h0c-1.90796,0-3.93994.008-6.11572.02438-16.01294.12073-25.62329.74826-31.16089,2.03473-5.90918,1.37283-8.89771,3.95825-9.99292,8.64505-.16333.69971-.31396,1.27039-.44751,1.73233-2.65527.44635-7.64014,1.21063-12.45435,1.55057-11.80103.83331-18.27075,14.04895-21.62012,24.98874-3.98828,13.02682-6.10498,30.78967-5.95972,50.01651.146,19.3938,2.61108,35.71243,7.12891,47.19174,6.59595,16.7605,16.15601,20.27863,23.01465,20.27863l.14844-.00049c9.59448-.07233,58.92505-.53943,91.56812-.84851l24.72705-.23358c.87769-.00494,1.88892-.00739,2.99463-.00739,14.99341,0,47.80127.44763,76.74707.84265,22.55908.30786,42.04199.57367,49.03662.57367.50195,0,.93799-.00134,1.30762-.00415,4.12915-.03107,7.98901-1.84985,11.47241-5.40558,7.04053-7.18671,11.38892-20.55688,13.79712-30.50745,2.90796-12.0159,4.55981-25.65207,4.41895-36.47675-.1311-10.07196-2.27734-27.04932-6.77734-42.2731-5.74365-19.43121-13.46802-29.52942-22.9585-30.01416-7.03271-.35919-133.54028-.64062-154.97144-.68579-.06201-.21487-.12695-.44907-.19482-.70425.12915-1.17258.27393-3.88116-1.83472-6.26428-2.73999-3.09637-6.58276-4.45337-31.87354-4.45352h0Z"/>
    </g>
  </g>
  <path class="cls-10" d="M1698.76,705.55153c.01187-.00205.01003-.10008.02192-.21387-.21389-.01003-.43471-.06201-.63548-.02394-.23699.04195-.25478.23372-.02906.29368.19588.04994.42671-.02599.64262-.05587Z"/>
  <g>
    <rect class="cls-11" x="1476.10848" y="712.41856" width="295.45898" height="12.47266"/>
    <path class="cls-4" d="M1770.08308,713.90318v9.50397h-292.49023v-9.50397h292.49023M1773.05086,710.93534h-298.42578v15.43964h298.42578v-15.43964h0Z"/>
  </g>
  <ellipse class="cls-4" cx="1548.90795" cy="745.18085" rx="22.20756" ry="19.61375"/>
  <ellipse class="cls-4" cx="1700.15006" cy="745.48454" rx="22.20756" ry="19.61375"/>
  <g>
    <path class="cls-11" d="M1548.90828,760.1793c-9.03906,0-16.39355-6.72852-16.39355-14.99805,0-8.27051,7.35449-14.99902,16.39355-14.99902s16.39355,6.72852,16.39355,14.99902c0,8.26953-7.35449,14.99805-16.39355,14.99805Z"/>
    <path class="cls-9" d="M1548.90804,734.6342c6.59497,0,11.94141,4.72186,11.94141,10.54663s-5.34644,10.54669-11.94141,10.54669-11.94141-4.72192-11.94141-10.54669,5.34619-10.54663,11.94141-10.54663M1548.90804,725.73069c-11.4939,0-20.84497,8.72534-20.84497,19.45013s9.35107,19.45013,20.84497,19.45013,20.84497-8.72528,20.84497-19.45013-9.35107-19.45013-20.84497-19.45013h0Z"/>
  </g>
  <g>
    <path class="cls-11" d="M1700.37703,760.63536c-9.03906,0-16.39355-6.72852-16.39355-14.99902,0-8.26953,7.35449-14.99805,16.39355-14.99805s16.39355,6.72852,16.39355,14.99805c0,8.27051-7.35449,14.99902-16.39355,14.99902Z"/>
    <path class="cls-9" d="M1700.37679,735.09001c6.59521,0,11.94141,4.72192,11.94141,10.54669s-5.34619,10.54663-11.94141,10.54663-11.94141-4.72186-11.94141-10.54663,5.34644-10.54669,11.94141-10.54669M1700.37679,726.1865c-11.4939,0-20.84497,8.72534-20.84497,19.4502s9.35107,19.45007,20.84497,19.45007,20.84497-8.72522,20.84497-19.45007-9.35107-19.4502-20.84497-19.4502h0Z"/>
  </g>
  <g>
    <g>
      <g>
        <path class="cls-11" d="M680.07137,1013.28379c-.32031.03613-.68945.06348-1.06348.06348-1.24121,0-2.19336-.30762-2.91211-.94141-1.29492-1.13672-1.3584-2.95996-1.19531-7.15918.0127-.32422.02344-.57617.02344-.70508h.01074c.00391-.92871.1377-4.84863,1.84863-6.18457.99805-.77832,2.61426-2.42188,3.79492-3.62109,1.2793-1.30078,1.86621-1.89062,2.35352-2.2373.89355-.63477,1.72559-1.02344,2.42773-1.25977.18848-.28711.42188-.58203.70996-.87207,1.31445-1.32227,2.92578-1.32227,3.53125-1.32227.17383,0,1.15137.01758,1.15137.01758.95703,0,5.63379.46289,8.6416.79688,8.625.95703,8.80762,1.21094,9.57812,2.27832.03809.05273,3.83887,5.71582,4.2666,8.03125l.09082.52148c2.25879.20312,5.90527.4873,6.3252.51172,2.49414.08984,5.38184,5.40918,5.50879,6.09766.30176,1.63574-.51074,2.80566-4.13965,5.95703l-.74121.64355-.98145.03027c-1.30664.04102-2.85059.09766-3.42188.12988l-.70508.20703-1.27832-.56445-28.39062-2-2.60742,2.93164-2.82617-1.35059Z"/>
        <path class="cls-4" d="M689.60213,991.80302c.31543,0,.65991.01825,1.03882.01825.03198,0,.0647-.00012.09717-.00043.00415,0,.00854-.00006.01318-.00006,1.2771.00006,15.62573,1.435,15.98389,1.93054.35913.49731,3.52051,5.45496,3.79053,6.91736.1731.93695.38818,2.43079.54565,2.54419.15771.11334,8.177.73401,8.44629.7439.26929.00983,2.84229,3.35382,2.93237,3.84125.08984.48749-3.2356,3.37573-3.2356,3.37573,0,0-3.68555.11505-3.84912.16284l-.7959-.35193-30.22412-2.12842-2.13037,2.39581-1.71704-.8208s-.76855.15753-1.49048.15753c-.44385,0-.87012-.05957-1.08887-.25195-.57446-.50519-.19922-5.51648-.23926-5.89453s.33447-3.54626.80127-3.91058c1.94604-1.51898,5.29956-5.25153,6.04956-5.78461,1.54028-1.09509,2.71362-1.11438,2.79443-1.11432h.00439s.02344-.64471.69531-1.31946c.4353-.43738.948-.51031,1.57788-.51031M689.60213,986.28648c-.83154,0-3.36255,0-5.48779,2.13531-.17432.17505-.33545.35144-.48462.52838-.71631.30859-1.4917.729-2.29614,1.3009-.67725.48132-1.32373,1.12976-2.72192,2.5506-1.06323,1.08057-2.66992,2.71356-3.52539,3.38135-3.27319,2.55463-2.89917,8.77948-2.89282,8.84027-.00977-.09106-.03052-.26135-.02759-.50085-.00146.12933-.01099.34229-.02124.60791-.16333,4.19611-.28125,7.22784,2.13086,9.34906,1.22729,1.07898,2.81909,1.62592,4.73193,1.62592.18335,0,.3645-.00488.54102-.01343l.28735.13727,3.7439,1.78979,2.75781-3.1012.32715-.36798,26.55566,1.87006,1.75757.77722,1.3623-.39807c.68213-.03156,1.96484-.07764,3.04639-.11139l1.96265-.06128,1.48267-1.2876c3.06079-2.65845,5.70435-4.95435,5.04346-8.54053-.2334-1.26154-.82739-2.34338-2.44531-4.45508-1.41626-1.84839-2.88037-3.75909-5.62915-3.89569-.48633-.03113-2.46753-.18536-4.32227-.34021-1.24731-3.20062-4.23608-7.53723-4.271-7.58551-1.67114-2.31256-3.5603-2.52216-11.51123-3.40436-1.90112-.21094-7.625-.81305-8.94482-.81311h-.02588l-.03906.00031h-.01172c-.18677,0-.32397-.00421-.45508-.00763-.21509-.00574-.42065-.01044-.61768-.01044h0Z"/>
      </g>
      <g>
        <path class="cls-11" d="M698.04598,1095.08165c-4.25391,0-10.03027-.44629-15.07324-1.16504-8.90137-1.26758-10.0752-2.44824-10.68555-3.85938-.9043-2.09277-.79785-3.87305-.76758-4.20898l.17578-1.92969,1.87402-.48926c1.24512-.3252,30.57324-7.95898,38.8877-7.95898.82227,0,1.49121.06836,2.04297.20898,5.36621,1.37207,11.27637,6.93359,12.29004,7.91699.61719.54492.99316,1.3457.99609,2.19043.00781,2.17871-2.20508,3.30078-3.39453,3.90332-2.45312,1.24512-12.19727,4.90137-24.36328,5.35645-.62695.02344-1.29102.03516-1.98242.03516Z"/>
        <path class="cls-4" d="M712.45686,1078.22862c.57104-.00012,1.02954.03931,1.36035.12384,4.99878,1.2774,11.13013,7.29999,11.13013,7.29999,0,0,.66113.32861-1.80273,1.57788-2.46411,1.24933-11.92065,4.63757-23.21924,5.06006-.59351.02216-1.22388.03284-1.88013.03284-8.81567,0-22.60034-1.91248-23.22583-3.3595-.67188-1.55469-.55322-2.86572-.55322-2.86572,0,0,30.13281-7.86841,38.19067-7.86938M712.45882,1072.71208v5.51654l-.00024-5.51654h-.00244c-8.51978.00098-36.42944,7.22467-39.58374,8.04834l-3.75098.97943-.34937,3.86096c-.05737.63538-.15649,2.91357.9834,5.55127,1.31079,3.03229,4.18799,4.26477,12.82764,5.49542,5.24097.74658,11.02124,1.19226,15.46216,1.19226.73364,0,1.43555-.01239,2.08618-.03668,12.65454-.47321,22.91211-4.33643,25.50781-5.65247,1.34595-.68243,4.92065-2.495,4.90527-6.37549-.00659-1.6745-.72925-3.21497-1.94971-4.27045-1.61377-1.55402-7.59082-7.00952-13.41187-8.49701-.78906-.20166-1.65479-.29559-2.72412-.29559h0Z"/>
      </g>
      <g>
        <path class="cls-11" d="M675.88387,1027.65001c-1.0498,0-3.00391,0-3.70996-1.9043l-.66699-1.7998,1.24805-1.09277c-.00195-.02246-.00293-.04395-.00293-.06445-.00879-.30176-.02148-.72656.0918-1.2041.04199-.57715.05664-2.4082.06543-3.5293.0166-2.13379.02832-2.98438.08887-3.46094.21973-1.71191,1.36133-3.58691,3.13184-5.14258,1.7666-1.55273,5.72754-3.7793,7.11719-4.34668,4.1543-1.7002,11.17871-1.99121,14.95312-2.14844.38672-.01562.80176-.02441,1.25-.02441,2.04492,0,9.04102.19922,13.22656,2.7627,1.68262,1.03027,3.54688,2.32715,4.62207,4.13184.97266,1.63281,1.55469,4.10449,1.72949,7.34668.04492.83203.61426,2.65625,1.00391,3.68652l1.28809,3.40625-3.62598.31934c-1.42676.125-35.01562,3.06445-41.80957,3.06445h-.00098Z"/>
        <path class="cls-4" d="M699.44637,1005.69065c3.38135,0,8.81445.53418,11.79053,2.35712,1.66309,1.01868,2.98901,2.00977,3.69189,3.19031.96948,1.62817,1.25635,4.4425,1.3457,6.08514.08911,1.64264,1.17896,4.51416,1.17896,4.51416,0,0-34.81665,3.05414-41.5686,3.05414-.81738,0-1.22339-.04474-1.10693-.14508,1.07959-.9292.60107-2.13898.7666-2.58002.16553-.4411.08496-6.4054.1897-7.22125.10449-.81586.75024-2.13354,2.21631-3.42114,1.46606-1.28766,5.13428-3.37311,6.34009-3.86639,3.71289-1.5188,10.62476-1.80383,14.03687-1.94531.33838-.01404.71387-.02167,1.1189-.02167M699.44637,1000.17405c-.48779,0-.93994.00952-1.34741.02649-5.87134.24341-11.85156.69635-15.89697,2.3512-1.53979.62994-5.81128,3-7.89185,4.82745-2.2688,1.99261-3.74414,4.49487-4.04785,6.86511-.08105.63129-.09351,1.44476-.11157,3.79663-.00757.97638-.01953,2.54114-.04932,3.1889-.01978.10474-.03613.20685-.0498.30591l-1.78052,1.53259,1.31665,3.63715c.91162,2.45685,3.03027,3.70258,6.29712,3.70258,6.91406,0,40.61914-2.94971,42.05054-3.07526l7.26245-.63702-2.58691-6.81586c-.38232-1.01416-.78638-2.41595-.82959-2.87909-.20215-3.72235-.8938-6.53802-2.11255-8.58508-1.38135-2.31976-3.58081-3.86584-5.55054-5.0722-4.80127-2.94092-12.44385-3.16949-14.67188-3.16949h0Z"/>
      </g>
      <g>
        <path class="cls-11" d="M668.88973,1023.77794l1.45898-.83008c.45117-.25684,11.20215-6.30078,23.64062-6.77051,1.06348-.04102,2.10645-.05957,3.12793-.05957,13.87793,0,23.55859,3.43945,23.96387,3.58496l1.67285.60449,5.14062,65.10254-3.91699-1.25586c-.10352-.0332-10.48145-3.32031-21.38672-3.32031-1.14746,0-2.27539.03711-3.35156.10938-14.16016.95215-24.09375,4.86328-24.19336,4.90234l-3.62305,1.44629-2.5332-63.51367Z"/>
        <path class="cls-4" d="M697.11751,1018.87596c13.55469.00006,23.02686,3.42108,23.02686,3.42108l4.67725,59.23138s-10.73145-3.45288-22.23242-3.45264c-1.17358,0-2.3562.03595-3.53516.11523-14.82373.9967-25.03223,5.09399-25.03223,5.09399l-2.30859-57.93939s10.47314-5.9621,22.3811-6.41266c1.02832-.03894,2.03613-.05707,3.02319-.05701M697.11751,1013.35942c-.00098,0,.00073,0,0,0-1.07495-.00006-2.16211.02045-3.23193.06091-13.10522.49591-24.42603,6.86047-24.90161,7.13116l-2.9165,1.66034.13354,3.35345,2.30859,57.93939.31128,7.81207,7.25562-2.91217c.08594-.034,9.67871-3.79041,23.34766-4.70947,1.01465-.06818,2.07959-.10278,3.16504-.10278,10.44458-.00024,20.44824,3.15735,20.5481,3.18921l7.82495,2.50006-.64111-8.18744-4.67725-59.23138-.28003-3.54596-3.34546-1.20831c-.42383-.15302-10.54688-3.74854-24.90088-3.74908h0Z"/>
      </g>
    </g>
    <circle class="cls-5" cx="819.87594" cy="954.51588" r="5.23672"/>
    <circle class="cls-5" cx="775.82364" cy="1021.82755" r="5.23672"/>
    <circle class="cls-5" cx="796.73714" cy="1023.04117" r="5.23672"/>
    <circle class="cls-5" cx="747.259" cy="1001.29672" r="5.23672"/>
    <circle class="cls-5" cx="843.97735" cy="1017.89368" r="5.23672"/>
    <circle class="cls-5" cx="817.84793" cy="1017.15595" r="5.23672"/>
    <circle class="cls-5" cx="789.21331" cy="975.41001" r="5.23672"/>
    <circle class="cls-5" cx="756.7654" cy="955.24247" r="5.23672"/>
    <circle class="cls-5" cx="766.00454" cy="1002.18936" r="5.23672"/>
    <circle class="cls-5" cx="766.89719" cy="981.65853" r="5.23672"/>
    <circle class="cls-5" cx="776.434" cy="991.48321" r="5.23672"/>
    <circle class="cls-5" cx="796.35447" cy="987.90704" r="5.23672"/>
    <circle class="cls-5" cx="811.52944" cy="979.87324" r="5.23672"/>
    <circle class="cls-5" cx="812.05879" cy="1032.2266" r="5.23672"/>
    <circle class="cls-5" cx="828.48169" cy="981.7499" r="5.23672"/>
    <circle class="cls-5" cx="843.66466" cy="950.41595" r="5.23672"/>
    <circle class="cls-5" cx="820.45589" cy="895.96461" r="5.23672"/>
    <circle class="cls-5" cx="803.49563" cy="900.42783" r="5.23672"/>
    <circle class="cls-5" cx="819.63322" cy="877.01068" r="5.23672"/>
    <circle class="cls-5" cx="863.30285" cy="988.79969" r="5.23672"/>
    <circle class="cls-5" cx="784.17014" cy="896.49396" r="5.23672"/>
    <circle class="cls-5" cx="837.41615" cy="936.13363" r="5.23672"/>
    <circle class="cls-5" cx="859.36898" cy="1007.23254" r="5.23672"/>
    <circle class="cls-5" cx="885.25568" cy="1048.29421" r="5.23672"/>
    <circle class="cls-5" cx="763.32661" cy="1041.46574" r="5.23672"/>
    <circle class="cls-5" cx="799.99503" cy="1042.15001" r="5.23672"/>
    <circle class="cls-5" cx="810.25729" cy="1053.30501" r="5.23672"/>
    <circle class="cls-5" cx="831.16763" cy="1029.86136" r="5.23672"/>
    <circle class="cls-5" cx="826.77438" cy="1001.98098" r="5.23672"/>
    <circle class="cls-5" cx="759.51367" cy="940.42839" r="5.23672"/>
    <circle class="cls-5" cx="782.9648" cy="937.91892" r="5.23672"/>
    <circle class="cls-5" cx="795.89865" cy="1004.88903" r="5.23672"/>
    <circle class="cls-5" cx="809.95814" cy="998.23528" r="5.23672"/>
    <circle class="cls-5" cx="755.2928" cy="1020.04226" r="5.23672"/>
    <circle class="cls-5" cx="800.8177" cy="884.36022" r="5.23672"/>
    <circle class="cls-5" cx="807.95886" cy="916.49544" r="5.23672"/>
    <circle class="cls-5" cx="794.56918" cy="912.03222" r="5.23672"/>
    <circle class="cls-5" cx="807.78947" cy="965.01277" r="5.23672"/>
    <circle class="cls-5" cx="847.86063" cy="975.57607" r="5.23672"/>
    <circle class="cls-5" cx="857.94698" cy="1041.46574" r="5.23672"/>
    <circle class="cls-5" cx="875.12389" cy="1037.05312" r="5.23672"/>
    <circle class="cls-5" cx="879.37046" cy="1020.93491" r="5.23672"/>
    <circle class="cls-5" cx="866.87343" cy="1053.96277" r="5.23672"/>
    <circle class="cls-5" cx="876.69253" cy="1004.8673" r="5.23672"/>
    <circle class="cls-5" cx="783.49415" cy="1039.36776" r="5.23672"/>
    <circle class="cls-5" cx="818.6706" cy="933.4557" r="5.23672"/>
    <circle class="cls-5" cx="859.73227" cy="1021.82755" r="5.23672"/>
    <circle class="cls-5" cx="779.92357" cy="1009.01783" r="5.23672"/>
    <circle class="cls-5" cx="844.34892" cy="1038.71784" r="5.23672"/>
    <circle class="cls-5" cx="746.00306" cy="975.98996" r="5.23672"/>
    <circle class="cls-5" cx="829.91169" cy="966.17087" r="5.23672"/>
    <circle class="cls-5" cx="829.5484" cy="915.87006" r="5.23672"/>
    <circle class="cls-5" cx="847.30521" cy="921.64293" r="5.23672"/>
    <circle class="cls-5" cx="842.77202" cy="994.15556" r="5.23672"/>
    <circle class="cls-5" cx="843.66466" cy="1060.21129" r="5.23672"/>
    <circle class="cls-5" cx="826.70441" cy="1047.71426" r="5.23672"/>
    <circle class="cls-5" cx="760.96137" cy="969.69085" r="5.23672"/>
    <circle class="cls-5" cx="777.23117" cy="963.15759" r="5.23672"/>
    <circle class="cls-5" cx="780.81621" cy="920.64597" r="5.23672"/>
    <circle class="cls-5" cx="798.49512" cy="933.13857" r="5.23672"/>
    <circle class="cls-5" cx="775.46034" cy="949.21061" r="5.23672"/>
    <circle class="cls-5" cx="800.84791" cy="945.71983" r="5.23672"/>
    <circle class="cls-5" cx="790.18878" cy="960.73442" r="5.23672"/>
  </g>
  <g>
    <path class="cls-3" d="M1497.02311,1087.42476s15.26225-14.11262,15.68418-62.75971c.41235-47.54205-15.92192-71.01088-15.92192-71.01088"/>
    <g>
      <path class="cls-11" d="M1747.7618,1090.24278c-6.96484,0-26.41406-.26465-48.93457-.57227-28.9668-.39551-61.79785-.84375-76.83301-.84375-1.12012,0-2.14258.00293-3.05371.00781l-24.79199.23438c-32.61426.30859-81.90234.77441-91.4873.84668l-.125.00098c-16.65234,0-26.77539-24.08594-27.0791-64.42871-.2627-34.91309,7.28223-70.69238,24.73145-71.9248,6.50879-.45996,13.29102-1.66992,14.54785-1.90137.26758-.63379.66309-1.77441,1.12305-3.74121.67676-2.89941,2.24512-5.08984,7.70117-6.35742,5.2373-1.2168,14.92578-1.83789,30.49023-1.95508,2.16504-.0166,4.19043-.02441,6.08887-.02441,24.70898,0,27.75586,1.35352,29.58301,3.41992,1.37305,1.55078,1.15918,3.28906,1.05664,4.12402-.0127.10547-.03223.21387-.03711.32324.45898,1.82324.84863,2.91602,1.12109,3.5498,12.40918.02539,149.73438.31543,156.99902.68652,8.05176.41113,14.83984,9.77148,20.17578,27.82227,4.41699,14.94336,6.52344,31.58301,6.65234,41.44434.25391,19.48633-5.63184,52.84668-17.3418,64.7998-2.8916,2.95117-6.02246,4.46094-9.30566,4.48535l-1.28125.00391Z"/>
      <path class="cls-4" d="M1560.14412,942.64811c33.24097.00024,26.85352,2.4566,27.60083,5.44995,1.32397,5.30408,2.41772,6.16632,2.98901,6.16632.27515,0,.4292-.20013.4292-.20013,0,0,150.08472.30286,157.54297.68378,14.7583.75378,23.64966,45.51141,23.91943,66.24554.32056,24.63031-9.11548,66.07153-23.60571,66.18079-.35669.00269-.77661.00403-1.26074.00403-15.94385,0-99.12231-1.41638-125.78442-1.41638-1.11841,0-2.1416.0025-3.052.00769-23.27075.21796-103.68945.98694-116.28467,1.08191-.03442.00024-.06714.00037-.10156.00037-14.43115,0-23.72705-23.25452-24.0144-61.38715-.28394-37.64447,8.16724-67.8764,21.88232-68.84485,7.44995-.526,15.11133-1.98541,15.11133-1.98541,0,0,.15356.19366.42358.19366.56885,0,1.65405-.86084,2.90405-6.21069.74194-3.17535,1.94409-5.69427,35.2312-5.94519,2.15942-.0163,4.17603-.02423,6.06958-.02423M1560.14412,936.51872h0c-1.90796,0-3.93994.008-6.11572.02435-16.01294.12073-25.62329.74823-31.16089,2.03479-5.90918,1.3728-8.89771,3.95819-9.99292,8.64502-.16333.69971-.31396,1.27039-.44751,1.7323-2.65503.44635-7.64014,1.21063-12.45435,1.5506-11.80103.83331-18.27075,14.04895-21.62012,24.98871-3.98828,13.02686-6.10498,30.78967-5.95972,50.01654.146,19.39386,2.61108,35.71246,7.12891,47.19171,6.59595,16.7605,16.15601,20.27863,23.01465,20.27863l.14844-.00049c9.59912-.07239,58.95581-.53967,91.61621-.84894l24.67896-.23309c.87769-.00494,1.88892-.00739,2.99463-.00739,14.99341,0,47.80151.44763,76.74731.84265,22.55957.30786,42.04248.57367,49.03711.57367.50195,0,.93701-.00134,1.30688-.00415,4.12915-.03107,7.98901-1.84985,11.47241-5.40558,7.04053-7.18671,11.38892-20.55688,13.79712-30.50751,2.90796-12.01587,4.55981-25.65204,4.41895-36.47675-.1311-10.07196-2.27734-27.04932-6.77734-42.27307-5.74365-19.43121-13.46802-29.52942-22.9585-30.01416-7.03271-.35919-133.54028-.64062-154.97144-.68579-.06201-.2149-.12695-.44904-.19482-.70422.12915-1.17255.27393-3.88123-1.83472-6.26434-2.73975-3.09637-6.58276-4.45337-31.87354-4.45349h0Z"/>
    </g>
  </g>
  <path class="cls-10" d="M1698.76,1082.61448c.01187-.00205.01003-.10008.02192-.21387-.21389-.01003-.43471-.06201-.63548-.02394-.23699.04195-.25478.23372-.02906.29368.19588.04994.42671-.02599.64262-.05587Z"/>
  <g>
    <rect class="cls-11" x="1476.10848" y="1089.48204" width="295.45898" height="12.47266"/>
    <path class="cls-4" d="M1770.08308,1090.96611v9.50403h-292.49023v-9.50403h292.49023M1773.05086,1087.99827h-298.42578v15.4397h298.42578v-15.4397h0Z"/>
  </g>
  <ellipse class="cls-4" cx="1548.90795" cy="1122.24379" rx="22.20756" ry="19.61375"/>
  <ellipse class="cls-4" cx="1700.15006" cy="1122.54748" rx="22.20756" ry="19.61375"/>
  <g>
    <path class="cls-11" d="M1548.90828,1137.24278c-9.03906,0-16.39355-6.72852-16.39355-14.99902s7.35449-14.99902,16.39355-14.99902,16.39355,6.72852,16.39355,14.99902-7.35449,14.99902-16.39355,14.99902Z"/>
    <path class="cls-9" d="M1548.90804,1111.69712c6.59497,0,11.94141,4.72192,11.94141,10.54669s-5.34644,10.54663-11.94141,10.54663-11.94141-4.72186-11.94141-10.54663,5.34619-10.54669,11.94141-10.54669M1548.90804,1102.79368c-11.4939,0-20.84497,8.72528-20.84497,19.45013s9.35107,19.45013,20.84497,19.45013,20.84497-8.72534,20.84497-19.45013-9.35107-19.45013-20.84497-19.45013h0Z"/>
  </g>
  <g>
    <path class="cls-11" d="M1700.37703,1137.69883c-9.03906,0-16.39355-6.72852-16.39355-14.99902s7.35449-14.99902,16.39355-14.99902,16.39355,6.72852,16.39355,14.99902-7.35449,14.99902-16.39355,14.99902Z"/>
    <path class="cls-9" d="M1700.37679,1112.15294c6.59521,0,11.94141,4.72192,11.94141,10.54669s-5.34619,10.54669-11.94141,10.54669-11.94141-4.72192-11.94141-10.54669,5.34644-10.54669,11.94141-10.54669M1700.37679,1103.24943c-11.4939,0-20.84497,8.72534-20.84497,19.4502s9.35107,19.4502,20.84497,19.4502,20.84497-8.72534,20.84497-19.4502-9.35107-19.4502-20.84497-19.4502h0Z"/>
  </g>
  <g>
    <circle class="cls-8" cx="697.0317" cy="1048.44986" r="22.99052"/>
    <g>
      <path class="cls-11" d="M680.60603,1058.34451l1.57248-1.00313-.11624-.30942c-1.10617-2.95587.02492-6.33385,2.69032-8.03257.99704-.63587,2.14395-.99834,3.31763-1.04981,2.27194-.09962,4.4362.97313,5.75576,2.80417l1.21437-.78704c-.11272-.24559-.18317-.51541-.19574-.80198-.04688-1.06906.69692-1.98315,1.71183-2.1939l-.05831-1.32984c-3.56175-.01962-6.53072-2.83347-6.68843-6.43024-.13678-3.11949,1.94955-5.97658,4.96046-6.79267l.31501-.08544-.08187-1.86711-.47364.10249c-4.56756.99597-7.73403,5.11217-7.52902,9.78784.06536,1.49058.47764,2.94278,1.19824,4.23874-1.46092.15771-2.87423.65251-4.121,1.44677-3.98297,2.53905-5.5228,7.52701-3.66136,11.86143l.18949.44171Z"/>
      <g>
        <path class="cls-11" d="M703.26477,1038.62079c.15876,3.62072-2.58909,6.70093-6.17069,6.99765l.05774,1.31679c1.07338.07877,1.94389.93962,1.99218,2.04098.01342.30611-.03988.59897-.1436.8676l1.25282.66167c1.15002-1.95939,3.22377-3.23145,5.50983-3.33168,1.17368-.05146,2.34792.20924,3.39619.75543,2.80385,1.45891,4.22685,4.7249,3.38304,7.76627l-.08811.31838,1.65425.86165.1501-.4566c1.47432-4.48068-.4962-9.31532-4.68608-11.49542-1.31091-.68211-2.76269-1.05128-4.23181-1.08052.605-1.35409.888-2.83678.82264-4.32735-.2069-4.71862-3.75692-8.54683-8.44144-9.10185l-.47645-.05677.08171,1.86359.32592.05442c3.11302.51887,5.4733,3.18814,5.61175,6.34577Z"/>
        <path class="cls-11" d="M696.66203,1041.75494c1.75099-.07678,3.38406.46651,4.69281,1.43171.61425-.69113,1.07308-1.51674,1.34332-2.42176-1.74776-1.1972-3.87744-1.86788-6.15706-1.76793-2.27885.09992-4.34115.95386-5.9772,2.29872.34941.87607.88065,1.65701,1.55365,2.29205,1.21859-1.07351,2.79581-1.75613,4.54448-1.8328Z"/>
      </g>
      <g>
        <path class="cls-11" d="M711.19475,1058.24847c-1.20747,1.43184-2.97809,2.29986-4.85717,2.38225-1.17249.05141-2.34673-.20929-3.39495-.75429-1.59557-.8302-2.77212-2.23278-3.31351-3.94782-.5146-1.63211-.3883-3.35989.33982-4.89845l-1.26554-.6684c-.3734.49361-.94814.82933-1.615.85857-.68681.03011-1.30568-.27148-1.72111-.75563l-1.20915.78359c1.84295,3.10826.90199,7.15231-2.1671,9.10833-.99649.63465-2.14281.9971-3.3153,1.04851-1.87968.08242-3.71888-.62732-5.04704-1.94798l-.23156-.23035-1.57658,1.0051.3261.35812c1.91846,2.10904,4.65865,3.24601,7.51719,3.12067,1.67175-.0733,3.30436-.59025,4.72301-1.49406,1.23747-.78848,2.27727-1.85128,3.03619-3.09864.86577,1.17612,1.99341,2.14389,3.29574,2.82101,1.49232.77617,3.1645,1.14821,4.83565,1.07494,2.85914-.12536,5.4887-1.49778,7.2152-3.76664l.29351-.38529-1.6579-.86328-.21051.24973Z"/>
        <g>
          <path class="cls-11" d="M693.45555,1058.62126c.58442-.74939.99061-1.60749,1.19589-2.51426-2.81087-.93981-4.89388-3.52604-5.03148-6.66424-.0159-.36265.00363-.71778.03898-1.06865-.51178-.10561-1.0401-.15013-1.5754-.12665-.40769.01788-.80884.08835-1.20426.18316-.025.37328-.034.75058-.01723,1.13307.1839,4.19416,2.89172,7.68061,6.59351,9.05758Z"/>
          <path class="cls-11" d="M699.92636,1055.87374c.29278.90923.77678,1.7209,1.40813,2.40128,3.56585-1.69618,5.95719-5.40573,5.77333-9.59905-.01677-.38255-.05877-.75761-.11634-1.12732-.40208-.05979-.8078-.09483-1.21555-.07695-.53578.02349-1.05804.11456-1.55844.26424.06592.34631.11646.69843.13236,1.06096.13751,3.13612-1.70858,5.89325-4.42348,7.07684Z"/>
        </g>
      </g>
    </g>
  </g>
  <g>
    <circle class="cls-8" cx="1174.47187" cy="1041.29437" r="40.9015"/>
    <g>
      <path class="cls-11" d="M1144.15488,1056.93698l2.90889-1.59673-.17013-.56289c-1.61773-5.37675.78554-11.24098,5.71598-13.94459,1.84437-1.0121,3.9228-1.52134,6.01235-1.47533,4.04482.08906,7.76128,2.24671,9.88947,5.65163l2.24788-1.25504c-.17136-.44916-.26484-.9364-.25361-1.44659.04191-1.90329,1.46929-3.43894,3.29561-3.69427l.05213-2.36756c-6.32054-.45169-11.26175-5.79433-11.12075-12.1978.12229-5.55375,4.16033-10.38148,9.60084-11.47783l.56921-.11481.07319-3.32408-.85281.1265c-8.22493,1.23348-14.32781,8.16998-14.5111,16.49424-.05843,2.65373.50348,5.27994,1.63102,7.66488-2.61189.10899-5.17871.82195-7.48494,2.086-7.36775,4.04118-10.68505,12.71561-7.88791,20.62796l.28469.80631Z"/>
      <g>
        <path class="cls-11" d="M1186.68722,1024.57526c-.14194,6.44611-5.38043,11.59251-11.77324,11.70007l-.05162,2.34433c1.89625.26545,3.34084,1.89554,3.29766,3.85632-.012.54498-.14089,1.05863-.35647,1.52336l2.14658,1.32124c2.27084-3.34372,6.10105-5.35918,10.17101-5.26956,2.08955.04601,4.14355.64624,5.94052,1.73852,4.80665,2.91802,6.95054,8.88237,5.09665,14.18268l-.19368.55488,2.83579,1.72322.3199-.79299c3.14164-7.78158.2094-16.59468-6.97336-20.95519-2.2473-1.36431-4.78131-2.18958-7.38587-2.41343,1.23249-2.33297,1.90839-4.93193,1.96682-7.58566.18497-8.40074-5.669-15.61209-13.92002-17.14563l-.83915-.15654-.07305,3.31783.5722.13474c5.46553,1.28544,9.3431,6.3002,9.21932,11.92183Z"/>
        <path class="cls-11" d="M1174.59919,1029.36625c3.11736.06864,5.9528,1.22422,8.16314,3.09083,1.17132-1.15501,2.08246-2.56693,2.66811-4.14191-2.96251-2.32983-6.66464-3.76968-10.72314-3.85905-4.05712-.08933-7.81807,1.18522-10.8798,3.38115.51774,1.59609,1.3694,3.0446,2.48979,4.2507,2.28888-1.76309,5.16868-2.79027,8.2819-2.72172Z"/>
      </g>
      <g>
        <path class="cls-11" d="M1198.46737,1060.34654c-2.31109,2.40048-5.55589,3.73417-8.90129,3.66051-2.08743-.04596-4.14143-.6462-5.93845-1.73635-2.73529-1.66052-4.65976-4.28808-5.42012-7.39599-.7225-2.95756-.29607-6.00994,1.17656-8.65598l-2.16836-1.33466c-.72063.83256-1.78021,1.36127-2.96744,1.33513-1.22276-.02692-2.28607-.63474-2.96689-1.54284l-2.2382,1.24951c2.90783,5.7335.76413,12.80239-4.91307,15.91553-1.84326,1.01-3.92063,1.51927-6.00806,1.47331-3.34646-.07369-6.52836-1.54888-8.73155-4.04877l-.3841-.43602-2.91638,1.59975.53699.67391c3.15883,3.96851,7.89016,6.30758,12.97933,6.41963,2.97628.06553,5.93499-.66108,8.55918-2.09948,2.28905-1.25487,4.2593-3.01988,5.75251-5.14538,1.39927,2.18919,3.2878,4.03916,5.52046,5.3936,2.55833,1.55252,5.48325,2.40868,8.45847,2.47419,5.09023.11208,9.91887-2.01649,13.24931-5.84211l.56613-.64962-2.84208-1.72654-.40292.41869Z"/>
        <g>
          <path class="cls-11" d="M1166.93301,1058.93216c1.12517-1.26192,1.94667-2.73768,2.41721-4.32337-4.87988-1.99734-8.27496-6.83222-8.15194-12.41927.01422-.64564.09045-1.27378.19427-1.89251-.89615-.24737-1.82881-.38824-2.78184-.40922-.72583-.01598-1.44619.06218-2.15925.18421-.08807.65973-.14821,1.32845-.16321,2.00941-.16441,7.46702,4.23448,13.9731,10.64475,16.85075Z"/>
          <path class="cls-11" d="M1178.74161,1054.81208c.41334,1.64834,1.17754,3.14586,2.21869,4.42758,6.52863-2.59372,11.20792-8.89906,11.3723-16.36459.015-.68107-.01565-1.35178-.0746-2.01485-.70678-.1532-1.42291-.26288-2.14884-.27887-.95387-.021-1.89164.07954-2.79748.28669.0765.62249.125,1.25348.11079,1.89891-.12294,5.58334-3.72282,10.26176-8.68086,12.04513Z"/>
        </g>
      </g>
    </g>
  </g>
  <g>
    <circle class="cls-8" cx="1633.28402" cy="1020.35408" r="47.06703"/>
    <g>
      <path class="cls-11" d="M1598.68407,1038.90044l3.3181-1.88977-.20593-.64459c-1.95855-6.15724.70066-12.94805,6.32475-16.14795,2.10383-1.19786,4.48607-1.82136,6.89113-1.80619,4.65557.02936,8.97073,2.44477,11.48096,6.324l2.56372-1.48468c-.20529-.5137-.32166-1.07263-.31795-1.65986.01382-2.19069,1.6284-3.9834,3.72515-4.31019l.01719-2.72505c-7.28057-.40547-13.06249-6.46339-13.016-13.83376.04032-6.39235,4.59923-12.02012,10.83925-13.37991l.65286-.14239.02413-3.82601-.97895.16097c-9.4413,1.5679-16.33789,9.65935-16.39832,19.24055-.01927,3.05443.67474,6.066,2.0152,8.78972-3.00327.17262-5.94377,1.03934-8.57446,2.53544-8.40428,4.78296-12.06437,14.82371-8.70297,23.87709l.34214.92259Z"/>
      <g>
        <path class="cls-11" d="M1647.03679,1000.8963c-.0468,7.41945-5.98117,13.43558-13.33479,13.67489l-.01702,2.69831c2.18662.27116,3.87823,2.12062,3.86399,4.37747-.00396.62727-.14297,1.2206-.38261,1.75922l2.49373,1.48141c2.55239-3.88832,6.92299-6.27654,11.6075-6.24699,2.40507.01517,4.77925.66867,6.86658,1.89296,5.58328,3.27059,8.15783,10.09441,6.12055,16.22645l-.21282.64195,3.294,1.93148.35375-.9182c3.47411-9.01027-.05902-19.09761-8.40231-23.98497-2.6104-1.52915-5.54095-2.43291-8.5418-2.64339,1.37593-2.70659,2.10665-5.70917,2.12591-8.7636.06099-9.66922-6.80494-17.86078-16.32627-19.47613l-.96835-.16495-.02409,3.81881.66081.14469c6.31187,1.38023,10.86404,7.08012,10.82323,13.5506Z"/>
        <path class="cls-11" d="M1633.21491,1006.62729c3.58807.02263,6.87141,1.30098,9.44837,3.40875,1.32684-1.35012,2.34968-2.99114,2.99506-4.8139-3.45077-2.62715-7.73646-4.21693-12.40779-4.24639-4.66974-.02945-8.97403,1.50503-12.45717,4.087.62456,1.8271,1.63066,3.47836,2.94158,4.84585,2.60172-2.06998,5.89664-3.30391,9.47994-3.28131Z"/>
      </g>
      <g>
        <path class="cls-11" d="M1661.23759,1041.84176c-2.61574,2.80377-6.3251,4.39696-10.17565,4.37267-2.40263-.01515-4.77681-.66866-6.86416-1.89051-3.17724-1.86115-5.43902-4.84964-6.37007-8.41185-.88477-3.3899-.44929-6.90968,1.19728-9.98083l-2.51903-1.49647c-.81411.97097-2.0237,1.59845-3.3902,1.58983-1.40739-.00888-2.64182-.68901-3.44159-1.72156l-2.55269,1.47814c3.44938,6.5444,1.11061,14.7166-5.3653,18.40119-2.1026,1.19542-4.48361,1.81893-6.88623,1.80378-3.85177-.02429-7.53952-1.66414-10.11969-4.50068l-.44983-.49474-3.32667,1.89338.63004.76569c3.70628,4.50907,9.19241,7.11487,15.05003,7.15182,3.42569.02161,6.81685-.86791,9.81023-2.57037,2.61109-1.48523,4.84616-3.55166,6.52583-6.02424,1.64957,2.49358,3.85595,4.58802,6.44932,6.10608,2.97167,1.74008,6.35255,2.67232,9.77703,2.69392,5.85884.03695,11.37619-2.49945,15.13905-6.96141l.63964-.75768-3.3013-1.93518-.45604.48902Z"/>
        <g>
          <path class="cls-11" d="M1624.92862,1040.78436c1.27181-1.4723,2.19035-3.18516,2.70309-5.01815-5.65089-2.20993-9.64465-7.71157-9.60409-14.14225.00469-.74313.08104-1.46725.18932-2.18103-1.03558-.26843-2.11125-.41365-3.20818-.42057-.83543-.00527-1.66286.09768-2.4811.25098-.08941.76068-.14652,1.53119-.15146,2.31497-.05421,8.59451,5.12475,16.00089,12.55242,19.19605Z"/>
          <path class="cls-11" d="M1638.44111,1035.83036c.50538,1.8891,1.41173,3.59833,2.63285,5.05426,7.46495-3.10234,12.73496-10.44184,12.78916-19.03464.00494-.78391-.04245-1.55508-.12225-2.31693-.81599-.1635-1.64194-.27676-2.47749-.28203-1.09791-.00692-2.17508.12571-3.2136.38043.09927.71485.16648,1.44.1618,2.18288-.04053,6.42641-4.09799,11.87446-9.77046,14.01602Z"/>
        </g>
      </g>
    </g>
  </g>
  <line class="cls-2" x1="1128.97536" y1="365.28864" x2="1128.97536" y2="526.91975"/>
  <line class="cls-2" x1="1128.97536" y1="792.31404" x2="1128.97536" y2="908.04989"/>
  <line class="cls-2" x1="721.90443" y1="792.31404" x2="721.90443" y2="908.04989"/>
  <line class="cls-2" x1="1630.119" y1="792.31404" x2="1630.119" y2="893.65633"/>
  <line class="cls-2" x1="1003.29943" y1="352.38634" x2="789.67606" y2="554.996"/>
  <line class="cls-2" x1="1244.63769" y1="350.39089" x2="1458.26106" y2="553.00056"/>
</svg>