<?xml version="1.0" encoding="UTF-8"?>
<svg id="Ebene_2" data-name="Ebene 2" xmlns="http://www.w3.org/2000/svg" viewBox="0 0 1920 620.23858">
  <defs>
    <style>
      .cls-1 {
        fill: none;
      }

      .cls-2 {
        fill: #90172f;
      }

      .cls-3 {
        fill: #0d435c;
      }

      .cls-4, .cls-5 {
        fill: #fff;
      }

      .cls-6 {
        fill: #f3f5f7;
      }

      .cls-5 {
        stroke: #0d435c;
        stroke-miterlimit: 10;
        stroke-width: 10px;
      }
    </style>
  </defs>
  <rect class="cls-6" x="1.50259" width="1918.49741" height="619.16151"/>
  <path class="cls-5" d="M1625.03726,198.56652h-49.21091c-23.89521,0-47.008,9.67653-63.74347,26.62508l-12.04326,20.24534-21.44028-5.67498-17.73096-40.54705-132.34296-.15694,39.6581,87.67419-39.16551,87.60546,132.52167-.0779,16.4296-41.17253,20.17787-5.04401,13.93572,20.20662c16.73547,16.92563,39.84826,26.60331,63.74347,26.60331h49.21091l.11226,11.55525,63.71025-.25661-.27952-11.38914c47.14203-2.15823,85.02108-41.06713,85.02108-88.04191,0-46.99655-37.91227-85.9169-85.07721-88.05337l.04468-12.12688-63.41928-.25775-.11226,12.28383Z"/>
  <circle class="cls-2" cx="255.771" cy="278.5112" r="110.62781"/>
  <circle class="cls-2" cx="1621.01859" cy="284.89001" r="63.84605"/>
  <g>
    <rect class="cls-1" x="103.46347" y="451.66608" width="426.97151" height="125.42047"/>
    <path class="cls-3" d="M106.51025,487.66563v-34.125h11.95312c4.14062,0,7.28125.79297,9.42188,2.37891s3.21094,3.91016,3.21094,6.97266c0,1.67188-.42969,3.14453-1.28906,4.41797s-2.05469,2.20703-3.58594,2.80078c1.75.4375,3.12891,1.32031,4.13672,2.64844s1.51172,2.95312,1.51172,4.875c0,3.28125-1.04688,5.76562-3.14062,7.45312s-5.07812,2.54688-8.95312,2.57812h-13.26562ZM113.5415,467.83751h5.20312c3.54688-.0625,5.32031-1.47656,5.32031-4.24219,0-1.54688-.44922-2.66016-1.34766-3.33984s-2.31641-1.01953-4.25391-1.01953h-4.92188v8.60156ZM113.5415,472.80626v9.21094h6.02344c1.65625,0,2.94922-.39453,3.87891-1.18359s1.39453-1.87891,1.39453-3.26953c0-3.125-1.61719-4.71094-4.85156-4.75781h-6.44531Z"/>
    <path class="cls-3" d="M136.65088,455.74376c0-1.01562.33984-1.85156,1.01953-2.50781s1.60547-.98438,2.77734-.98438c1.15625,0,2.07812.32812,2.76562.98438s1.03125,1.49219,1.03125,2.50781c0,1.03125-.34766,1.875-1.04297,2.53125s-1.61328.98438-2.75391.98438-2.05859-.32812-2.75391-.98438-1.04297-1.5-1.04297-2.53125ZM143.84619,487.66563h-6.79688v-25.35938h6.79688v25.35938Z"/>
    <path class="cls-3" d="M148.36963,474.75157c0-2.51562.48438-4.75781,1.45312-6.72656.96826-1.96875,2.36279-3.49219,4.18311-4.57031s3.93359-1.61719,6.33984-1.61719c3.42188,0,6.21484,1.04688,8.37891,3.14062s3.37109,4.9375,3.62109,8.53125l.04688,1.73438c0,3.89062-1.08594,7.01172-3.25781,9.36328s-5.08594,3.52734-8.74219,3.52734-6.57422-1.17188-8.75391-3.51562c-2.1792-2.34375-3.26904-5.53125-3.26904-9.5625v-.30469ZM155.14258,475.23204c0,2.41016.45312,4.25293,1.35938,5.52832s2.20312,1.91309,3.89062,1.91309c1.64062,0,2.92188-.62988,3.84375-1.88965s1.38281-3.27441,1.38281-6.04395c0-2.36328-.46094-4.19434-1.38281-5.49316s-2.21875-1.94824-3.89062-1.94824c-1.65625,0-2.9375.64551-3.84375,1.93652s-1.35938,3.29004-1.35938,5.99707Z"/>
    <path class="cls-3" d="M183.71289,487.66563h-6.79688v-36h6.79688v36Z"/>
    <path class="cls-3" d="M188.23633,474.75157c0-2.51562.48438-4.75781,1.45312-6.72656s2.36328-3.49219,4.18359-4.57031,3.93359-1.61719,6.33984-1.61719c3.42188,0,6.21484,1.04688,8.37891,3.14062s3.37109,4.9375,3.62109,8.53125l.04688,1.73438c0,3.89062-1.08594,7.01172-3.25781,9.36328s-5.08594,3.52734-8.74219,3.52734-6.57422-1.17188-8.75391-3.51562-3.26953-5.53125-3.26953-9.5625v-.30469ZM195.00977,475.23204c0,2.41016.45312,4.25293,1.35938,5.52832s2.20312,1.91309,3.89062,1.91309c1.64062,0,2.92188-.62988,3.84375-1.88965s1.38281-3.27441,1.38281-6.04395c0-2.36328-.46094-4.19434-1.38281-5.49316s-2.21875-1.94824-3.89062-1.94824c-1.65625,0-2.9375.64551-3.84375,1.93652s-1.35938,3.29004-1.35938,5.99707Z"/>
    <path class="cls-3" d="M215.44727,474.79844c0-3.89062.92578-7.02344,2.77734-9.39844s4.34766-3.5625,7.48828-3.5625c2.78125,0,4.94531.95312,6.49219,2.85938l.28125-2.39062h6.14062v24.51562c0,2.21875-.50391,4.14844-1.51172,5.78906s-2.42578,2.89062-4.25391,3.75-3.96875,1.28906-6.42188,1.28906c-1.85938,0-3.67188-.37109-5.4375-1.11328s-3.10156-1.69922-4.00781-2.87109l3-4.125c1.6875,1.89062,3.73438,2.83594,6.14062,2.83594,1.79688,0,3.19531-.48047,4.19531-1.44141s1.5-2.32422,1.5-4.08984v-1.35938c-1.5625,1.76562-3.61719,2.64844-6.16406,2.64844-3.04688,0-5.51172-1.19141-7.39453-3.57422s-2.82422-5.54297-2.82422-9.48047v-.28125ZM222.2207,475.28086c0,2.30664.46094,4.11621,1.38281,5.42676s2.1875,1.96582,3.79688,1.96582c2.0625,0,3.53906-.77637,4.42969-2.33105v-10.71289c-.90625-1.55371-2.36719-2.33105-4.38281-2.33105-1.625,0-2.90234.66699-3.83203,2.00098-.92969,1.33496-1.39453,3.32812-1.39453,5.98145Z"/>
    <path class="cls-3" d="M243.7832,455.74376c0-1.01562.33984-1.85156,1.01953-2.50781s1.60547-.98438,2.77734-.98438c1.15625,0,2.07812.32812,2.76562.98438s1.03125,1.49219,1.03125,2.50781c0,1.03125-.34766,1.875-1.04297,2.53125s-1.61328.98438-2.75391.98438-2.05859-.32812-2.75391-.98438-1.04297-1.5-1.04297-2.53125ZM250.97852,487.66563h-6.79688v-25.35938h6.79688v25.35938Z"/>
    <path class="cls-3" d="M267.10352,482.67344c1.25,0,2.26562-.34375,3.04688-1.03125s1.1875-1.60156,1.21875-2.74219h6.35156c-.01562,1.71875-.48438,3.29297-1.40625,4.72266s-2.18359,2.53906-3.78516,3.32812-3.37109,1.18359-5.30859,1.18359c-3.625,0-6.48438-1.15234-8.57812-3.45703s-3.14062-5.48828-3.14062-9.55078v-.44531c0-3.90625,1.03906-7.02344,3.11719-9.35156s4.92969-3.49219,8.55469-3.49219c3.17188,0,5.71484.90234,7.62891,2.70703s2.88672,4.20703,2.91797,7.20703h-6.35156c-.03125-1.31934-.4375-2.3916-1.21875-3.21582-.78125-.8252-1.8125-1.2373-3.09375-1.2373-1.57812,0-2.76953.5752-3.57422,1.72559-.80469,1.14941-1.20703,3.0166-1.20703,5.59766v.7041c0,2.61426.39844,4.49219,1.19531,5.63379.79688,1.14258,2.00781,1.71387,3.63281,1.71387Z"/>
    <path class="cls-3" d="M296.2832,487.66563c-.3125-.60938-.53906-1.36719-.67969-2.27344-1.64062,1.82812-3.77344,2.74219-6.39844,2.74219-2.48438,0-4.54297-.71875-6.17578-2.15625s-2.44922-3.25-2.44922-5.4375c0-2.6875.99609-4.75,2.98828-6.1875s4.87109-2.16406,8.63672-2.17969h3.11719v-1.45312c0-1.17188-.30078-2.10938-.90234-2.8125s-1.55078-1.05469-2.84766-1.05469c-1.14062,0-2.03516.27344-2.68359.82031s-.97266,1.29688-.97266,2.25h-6.77344c0-1.46875.45312-2.82812,1.35938-4.07812s2.1875-2.23047,3.84375-2.94141,3.51562-1.06641,5.57812-1.06641c3.125,0,5.60547.78516,7.44141,2.35547s2.75391,3.77734,2.75391,6.62109v10.99219c.01562,2.40625.35156,4.22656,1.00781,5.46094v.39844h-6.84375ZM290.68164,482.95469c1,0,1.92188-.22266,2.76562-.66797s1.46875-1.04297,1.875-1.79297v-4.35938h-2.53125c-3.39062,0-5.19531,1.17188-5.41406,3.51562l-.02344.39844c0,.84375.29688,1.53906.89062,2.08594s1.40625.82031,2.4375.82031Z"/>
    <path class="cls-3" d="M314.4707,487.66563h-6.79688v-36h6.79688v36Z"/>
    <path class="cls-3" d="M351.71289,480.63438h-12.32812l-2.34375,7.03125h-7.47656l12.70312-34.125h6.51562l12.77344,34.125h-7.47656l-2.36719-7.03125ZM341.2832,474.93907h8.53125l-4.28906-12.77344-4.24219,12.77344Z"/>
    <path class="cls-3" d="M363.31445,474.79844c0-3.89062.92578-7.02344,2.77734-9.39844s4.34766-3.5625,7.48828-3.5625c2.78125,0,4.94531.95312,6.49219,2.85938l.28125-2.39062h6.14062v24.51562c0,2.21875-.50391,4.14844-1.51172,5.78906s-2.42578,2.89062-4.25391,3.75-3.96875,1.28906-6.42188,1.28906c-1.85938,0-3.67188-.37109-5.4375-1.11328s-3.10156-1.69922-4.00781-2.87109l3-4.125c1.6875,1.89062,3.73438,2.83594,6.14062,2.83594,1.79688,0,3.19531-.48047,4.19531-1.44141s1.5-2.32422,1.5-4.08984v-1.35938c-1.5625,1.76562-3.61719,2.64844-6.16406,2.64844-3.04688,0-5.51172-1.19141-7.39453-3.57422s-2.82422-5.54297-2.82422-9.48047v-.28125ZM370.08789,475.28086c0,2.30664.46094,4.11621,1.38281,5.42676s2.1875,1.96582,3.79688,1.96582c2.0625,0,3.53906-.77637,4.42969-2.33105v-10.71289c-.90625-1.55371-2.36719-2.33105-4.38281-2.33105-1.625,0-2.90234.66699-3.83203,2.00098-.92969,1.33496-1.39453,3.32812-1.39453,5.98145Z"/>
    <path class="cls-3" d="M403.36914,488.13438c-3.71875,0-6.74609-1.14062-9.08203-3.42188s-3.50391-5.32031-3.50391-9.11719v-.65625c0-2.54688.49219-4.82422,1.47656-6.83203s2.37891-3.55469,4.18359-4.64062,3.86328-1.62891,6.17578-1.62891c3.46875,0,6.19922,1.09375,8.19141,3.28125s2.98828,5.28906,2.98828,9.30469v2.76562h-16.14844c.21875,1.65625.87891,2.98438,1.98047,3.98438s2.49609,1.5,4.18359,1.5c2.60938,0,4.64844-.94531,6.11719-2.83594l3.32812,3.72656c-1.01562,1.4375-2.39062,2.55859-4.125,3.36328s-3.65625,1.20703-5.76562,1.20703ZM402.5957,467.29844c-1.34375,0-2.43359.45508-3.26953,1.36523-.83594.91113-1.37109,2.21289-1.60547,3.9082h9.42188v-.54199c-.03125-1.50586-.4375-2.67188-1.21875-3.49512-.78125-.82422-1.89062-1.23633-3.32812-1.23633Z"/>
    <path class="cls-3" d="M423.87695,462.30626l.21094,2.92969c1.8125-2.26562,4.24219-3.39844,7.28906-3.39844,2.6875,0,4.6875.78906,6,2.36719s1.98438,3.9375,2.01562,7.07812v16.38281h-6.77344v-16.25586c0-1.44141-.3125-2.48633-.9375-3.13672-.625-.64941-1.66406-.97461-3.11719-.97461-1.90625,0-3.33594.81445-4.28906,2.44336v17.92383h-6.77344v-25.35938h6.375Z"/>
    <path class="cls-3" d="M452.63477,456.07188v6.23438h4.33594v4.96875h-4.33594v12.65625c0,.9375.17969,1.60938.53906,2.01562s1.04688.60938,2.0625.60938c.75,0,1.41406-.05469,1.99219-.16406v5.13281c-1.32812.40625-2.69531.60938-4.10156.60938-4.75,0-7.17188-2.39844-7.26562-7.19531v-13.66406h-3.70312v-4.96875h3.70312v-6.23438h6.77344Z"/>
  </g>
  <g>
    <rect class="cls-1" x="624.22094" y="451.66608" width="474.99826" height="69.26734"/>
    <path class="cls-3" d="M627.26758,487.66563v-34.125h10.5c3,0,5.68359.67578,8.05078,2.02734s4.21484,3.27344,5.54297,5.76562,1.99219,5.32422,1.99219,8.49609v1.57031c0,3.17188-.65234,5.99219-1.95703,8.46094s-3.14453,4.38281-5.51953,5.74219-5.05469,2.04688-8.03906,2.0625h-10.57031ZM634.29883,459.23594v22.78125h3.39844c2.75,0,4.85156-.89844,6.30469-2.69531s2.19531-4.36719,2.22656-7.71094v-1.80469c0-3.46875-.71875-6.09766-2.15625-7.88672s-3.53906-2.68359-6.30469-2.68359h-3.46875Z"/>
    <path class="cls-3" d="M669.68945,488.13438c-3.71875,0-6.74609-1.14062-9.08203-3.42188s-3.50391-5.32031-3.50391-9.11719v-.65625c0-2.54688.49219-4.82422,1.47656-6.83203s2.37891-3.55469,4.18359-4.64062,3.86328-1.62891,6.17578-1.62891c3.46875,0,6.19922,1.09375,8.19141,3.28125s2.98828,5.28906,2.98828,9.30469v2.76562h-16.14844c.21875,1.65625.87891,2.98438,1.98047,3.98438s2.49609,1.5,4.18359,1.5c2.60938,0,4.64844-.94531,6.11719-2.83594l3.32812,3.72656c-1.01562,1.4375-2.39062,2.55859-4.125,3.36328s-3.65625,1.20703-5.76562,1.20703ZM668.91602,467.29844c-1.34375,0-2.43359.45508-3.26953,1.36523-.83594.91113-1.37109,2.21289-1.60547,3.9082h9.42188v-.54199c-.03125-1.50586-.4375-2.67188-1.21875-3.49512-.78125-.82422-1.89062-1.23633-3.32812-1.23633Z"/>
    <path class="cls-3" d="M691.11133,487.66563h-6.79688v-36h6.79688v36Z"/>
    <path class="cls-3" d="M696.64258,455.74376c0-1.01562.33984-1.85156,1.01953-2.50781s1.60547-.98438,2.77734-.98438c1.15625,0,2.07812.32812,2.76562.98438s1.03125,1.49219,1.03125,2.50781c0,1.03125-.34766,1.875-1.04297,2.53125s-1.61328.98438-2.75391.98438-2.05859-.32812-2.75391-.98438-1.04297-1.5-1.04297-2.53125ZM703.83789,487.66563h-6.79688v-25.35938h6.79688v25.35938Z"/>
    <path class="cls-3" d="M718.9082,479.39219l4.71094-17.08594h7.07812l-8.55469,25.35938h-6.46875l-8.55469-25.35938h7.07812l4.71094,17.08594Z"/>
    <path class="cls-3" d="M745.04102,488.13438c-3.71875,0-6.74609-1.14062-9.08203-3.42188s-3.50391-5.32031-3.50391-9.11719v-.65625c0-2.54688.49219-4.82422,1.47656-6.83203s2.37891-3.55469,4.18359-4.64062,3.86328-1.62891,6.17578-1.62891c3.46875,0,6.19922,1.09375,8.19141,3.28125s2.98828,5.28906,2.98828,9.30469v2.76562h-16.14844c.21875,1.65625.87891,2.98438,1.98047,3.98438s2.49609,1.5,4.18359,1.5c2.60938,0,4.64844-.94531,6.11719-2.83594l3.32812,3.72656c-1.01562,1.4375-2.39062,2.55859-4.125,3.36328s-3.65625,1.20703-5.76562,1.20703ZM744.26758,467.29844c-1.34375,0-2.43359.45508-3.26953,1.36523-.83594.91113-1.37109,2.21289-1.60547,3.9082h9.42188v-.54199c-.03125-1.50586-.4375-2.67188-1.21875-3.49512-.78125-.82422-1.89062-1.23633-3.32812-1.23633Z"/>
    <path class="cls-3" d="M773.56445,468.65782c-.92188-.125-1.73438-.1875-2.4375-.1875-2.5625,0-4.24219.86719-5.03906,2.60156v16.59375h-6.77344v-25.35938h6.39844l.1875,3.02344c1.35938-2.32812,3.24219-3.49219,5.64844-3.49219.75,0,1.45312.10156,2.10938.30469l-.09375,6.51562Z"/>
    <path class="cls-3" d="M786.71289,478.07969l4.6875-15.77344h7.26562l-10.19531,29.29688-.5625,1.33594c-1.51562,3.3125-4.01562,4.96875-7.5,4.96875-.98438,0-1.98438-.14844-3-.44531v-5.13281l1.03125.02344c1.28125,0,2.23828-.19531,2.87109-.58594s1.12891-1.03906,1.48828-1.94531l.79688-2.08594-8.88281-25.42969h7.28906l4.71094,15.77344Z"/>
    <path class="cls-3" d="M822.92383,453.54063l8.76562,24.75,8.71875-24.75h9.23438v34.125h-7.05469v-9.32812l.70312-16.10156-9.21094,25.42969h-4.82812l-9.1875-25.40625.70312,16.07812v9.32812h-7.03125v-34.125h9.1875Z"/>
    <path class="cls-3" d="M867.00977,488.13438c-3.71875,0-6.74609-1.14062-9.08203-3.42188s-3.50391-5.32031-3.50391-9.11719v-.65625c0-2.54688.49219-4.82422,1.47656-6.83203s2.37891-3.55469,4.18359-4.64062,3.86328-1.62891,6.17578-1.62891c3.46875,0,6.19922,1.09375,8.19141,3.28125s2.98828,5.28906,2.98828,9.30469v2.76562h-16.14844c.21875,1.65625.87891,2.98438,1.98047,3.98438s2.49609,1.5,4.18359,1.5c2.60938,0,4.64844-.94531,6.11719-2.83594l3.32812,3.72656c-1.01562,1.4375-2.39062,2.55859-4.125,3.36328s-3.65625,1.20703-5.76562,1.20703ZM866.23633,467.29844c-1.34375,0-2.43359.45508-3.26953,1.36523-.83594.91113-1.37109,2.21289-1.60547,3.9082h9.42188v-.54199c-.03125-1.50586-.4375-2.67188-1.21875-3.49512-.78125-.82422-1.89062-1.23633-3.32812-1.23633Z"/>
    <path class="cls-3" d="M891.83008,482.67344c1.25,0,2.26562-.34375,3.04688-1.03125s1.1875-1.60156,1.21875-2.74219h6.35156c-.01562,1.71875-.48438,3.29297-1.40625,4.72266s-2.18359,2.53906-3.78516,3.32812-3.37109,1.18359-5.30859,1.18359c-3.625,0-6.48438-1.15234-8.57812-3.45703s-3.14062-5.48828-3.14062-9.55078v-.44531c0-3.90625,1.03906-7.02344,3.11719-9.35156s4.92969-3.49219,8.55469-3.49219c3.17188,0,5.71484.90234,7.62891,2.70703s2.88672,4.20703,2.91797,7.20703h-6.35156c-.03125-1.31934-.4375-2.3916-1.21875-3.21582-.78125-.8252-1.8125-1.2373-3.09375-1.2373-1.57812,0-2.76953.5752-3.57422,1.72559-.80469,1.14941-1.20703,3.0166-1.20703,5.59766v.7041c0,2.61426.39844,4.49219,1.19531,5.63379.79688,1.14258,2.00781,1.71387,3.63281,1.71387Z"/>
    <path class="cls-3" d="M912.92383,465.07188c1.79688-2.15625,4.05469-3.23438,6.77344-3.23438,5.5,0,8.28906,3.19531,8.36719,9.58594v16.24219h-6.77344v-16.0918c0-1.45605-.3125-2.5332-.9375-3.22949-.625-.69727-1.66406-1.0459-3.11719-1.0459-1.98438,0-3.42188.76758-4.3125,2.30176v18.06543h-6.77344v-36h6.77344v13.40625Z"/>
    <path class="cls-3" d="M947.86914,487.66563c-.3125-.60938-.53906-1.36719-.67969-2.27344-1.64062,1.82812-3.77344,2.74219-6.39844,2.74219-2.48438,0-4.54297-.71875-6.17578-2.15625s-2.44922-3.25-2.44922-5.4375c0-2.6875.99609-4.75,2.98828-6.1875s4.87109-2.16406,8.63672-2.17969h3.11719v-1.45312c0-1.17188-.30078-2.10938-.90234-2.8125s-1.55078-1.05469-2.84766-1.05469c-1.14062,0-2.03516.27344-2.68359.82031s-.97266,1.29688-.97266,2.25h-6.77344c0-1.46875.45312-2.82812,1.35938-4.07812s2.1875-2.23047,3.84375-2.94141,3.51562-1.06641,5.57812-1.06641c3.125,0,5.60547.78516,7.44141,2.35547s2.75391,3.77734,2.75391,6.62109v10.99219c.01562,2.40625.35156,4.22656,1.00781,5.46094v.39844h-6.84375ZM942.26758,482.95469c1,0,1.92188-.22266,2.76562-.66797s1.46875-1.04297,1.875-1.79297v-4.35938h-2.53125c-3.39062,0-5.19531,1.17188-5.41406,3.51562l-.02344.39844c0,.84375.29688,1.53906.89062,2.08594s1.40625.82031,2.4375.82031Z"/>
    <path class="cls-3" d="M965.14258,462.30626l.21094,2.92969c1.8125-2.26562,4.24219-3.39844,7.28906-3.39844,2.6875,0,4.6875.78906,6,2.36719s1.98438,3.9375,2.01562,7.07812v16.38281h-6.77344v-16.25586c0-1.44141-.3125-2.48633-.9375-3.13672-.625-.64941-1.66406-.97461-3.11719-.97461-1.90625,0-3.33594.81445-4.28906,2.44336v17.92383h-6.77344v-25.35938h6.375Z"/>
    <path class="cls-3" d="M985.74414,455.74376c0-1.01562.33984-1.85156,1.01953-2.50781s1.60547-.98438,2.77734-.98438c1.15625,0,2.07812.32812,2.76562.98438s1.03125,1.49219,1.03125,2.50781c0,1.03125-.34766,1.875-1.04297,2.53125s-1.61328.98438-2.75391.98438-2.05859-.32812-2.75391-.98438-1.04297-1.5-1.04297-2.53125ZM992.93945,487.66563h-6.79688v-25.35938h6.79688v25.35938Z"/>
    <path class="cls-3" d="M1012.25195,480.65782c0-.82812-.41016-1.48047-1.23047-1.95703s-2.13672-.90234-3.94922-1.27734c-6.03125-1.26562-9.04688-3.82812-9.04688-7.6875,0-2.25.93359-4.12891,2.80078-5.63672s4.30859-2.26172,7.32422-2.26172c3.21875,0,5.79297.75781,7.72266,2.27344s2.89453,3.48438,2.89453,5.90625h-6.77344c0-.96875-.3125-1.76953-.9375-2.40234s-1.60156-.94922-2.92969-.94922c-1.14062,0-2.02344.25781-2.64844.77344s-.9375,1.17188-.9375,1.96875c0,.75.35547,1.35547,1.06641,1.81641s1.91016.85938,3.59766,1.19531,3.10938.71484,4.26562,1.13672c3.57812,1.3125,5.36719,3.58594,5.36719,6.82031,0,2.3125-.99219,4.18359-2.97656,5.61328s-4.54688,2.14453-7.6875,2.14453c-2.125,0-4.01172-.37891-5.66016-1.13672s-2.94141-1.79688-3.87891-3.11719-1.40625-2.74609-1.40625-4.27734h6.42188c.0625,1.20312.50781,2.125,1.33594,2.76562s1.9375.96094,3.32812.96094c1.29688,0,2.27734-.24609,2.94141-.73828s.99609-1.13672.99609-1.93359Z"/>
    <path class="cls-3" d="M1029.54883,462.30626l.21094,2.83594c1.79688-2.20312,4.22656-3.30469,7.28906-3.30469,3.26562,0,5.50781,1.28906,6.72656,3.86719,1.78125-2.57812,4.32031-3.86719,7.61719-3.86719,2.75,0,4.79688.80078,6.14062,2.40234s2.01562,4.01172,2.01562,7.23047v16.19531h-6.79688v-16.20898c0-1.44141-.28125-2.49414-.84375-3.15918-.5625-.66602-1.55469-.99902-2.97656-.99902-2.03125,0-3.4375.9707-4.21875,2.91309l.02344,17.4541h-6.77344v-16.18555c0-1.47266-.28906-2.53711-.86719-3.19531-.57812-.65723-1.5625-.98633-2.95312-.98633-1.92188,0-3.3125.79883-4.17188,2.39648v17.9707h-6.77344v-25.35938h6.35156Z"/>
  </g>
  <g>
    <rect class="cls-1" x="1345.74947" y="462.74124" width="412.50698" height="70.08969"/>
    <path class="cls-3" d="M1348.7959,498.74083v-34.125h11.95312c4.14062,0,7.28125.79297,9.42188,2.37891s3.21094,3.91016,3.21094,6.97266c0,1.67188-.42969,3.14453-1.28906,4.41797s-2.05469,2.20703-3.58594,2.80078c1.75.4375,3.12891,1.32031,4.13672,2.64844s1.51172,2.95312,1.51172,4.875c0,3.28125-1.04688,5.76562-3.14062,7.45312s-5.07812,2.54688-8.95312,2.57812h-13.26562ZM1355.82715,478.9127h5.20312c3.54688-.0625,5.32031-1.47656,5.32031-4.24219,0-1.54688-.44922-2.66016-1.34766-3.33984s-2.31641-1.01953-4.25391-1.01953h-4.92188v8.60156ZM1355.82715,483.88145v9.21094h6.02344c1.65625,0,2.94922-.39453,3.87891-1.18359s1.39453-1.87891,1.39453-3.26953c0-3.125-1.61719-4.71094-4.85156-4.75781h-6.44531Z"/>
    <path class="cls-3" d="M1378.93652,466.81895c0-1.01562.33984-1.85156,1.01953-2.50781s1.60547-.98438,2.77734-.98438c1.15625,0,2.07812.32812,2.76562.98438s1.03125,1.49219,1.03125,2.50781c0,1.03125-.34766,1.875-1.04297,2.53125s-1.61328.98438-2.75391.98438-2.05859-.32812-2.75391-.98438-1.04297-1.5-1.04297-2.53125ZM1386.13184,498.74083h-6.79688v-25.35938h6.79688v25.35938Z"/>
    <path class="cls-3" d="M1390.65527,485.82676c0-2.51562.48438-4.75781,1.45312-6.72656s2.36328-3.49219,4.18359-4.57031,3.93359-1.61719,6.33984-1.61719c3.42188,0,6.21484,1.04688,8.37891,3.14062s3.37109,4.9375,3.62109,8.53125l.04688,1.73438c0,3.89062-1.08594,7.01172-3.25781,9.36328s-5.08594,3.52734-8.74219,3.52734-6.57422-1.17188-8.75391-3.51562-3.26953-5.53125-3.26953-9.5625v-.30469ZM1397.42871,486.30723c0,2.41016.45312,4.25293,1.35938,5.52832s2.20312,1.91309,3.89062,1.91309c1.64062,0,2.92188-.62988,3.84375-1.88965s1.38281-3.27441,1.38281-6.04395c0-2.36328-.46094-4.19434-1.38281-5.49316s-2.21875-1.94824-3.89062-1.94824c-1.65625,0-2.9375.64551-3.84375,1.93652s-1.35938,3.29004-1.35938,5.99707Z"/>
    <path class="cls-3" d="M1425.99902,498.74083h-6.79688v-36h6.79688v36Z"/>
    <path class="cls-3" d="M1430.52246,485.82676c0-2.51562.48438-4.75781,1.45312-6.72656s2.36328-3.49219,4.18359-4.57031,3.93359-1.61719,6.33984-1.61719c3.42188,0,6.21484,1.04688,8.37891,3.14062s3.37109,4.9375,3.62109,8.53125l.04688,1.73438c0,3.89062-1.08594,7.01172-3.25781,9.36328s-5.08594,3.52734-8.74219,3.52734-6.57422-1.17188-8.75391-3.51562-3.26953-5.53125-3.26953-9.5625v-.30469ZM1437.2959,486.30723c0,2.41016.45312,4.25293,1.35938,5.52832s2.20312,1.91309,3.89062,1.91309c1.64062,0,2.92188-.62988,3.84375-1.88965s1.38281-3.27441,1.38281-6.04395c0-2.36328-.46094-4.19434-1.38281-5.49316s-2.21875-1.94824-3.89062-1.94824c-1.65625,0-2.9375.64551-3.84375,1.93652s-1.35938,3.29004-1.35938,5.99707Z"/>
    <path class="cls-3" d="M1457.7334,485.87364c0-3.89062.92578-7.02344,2.77734-9.39844s4.34766-3.5625,7.48828-3.5625c2.78125,0,4.94531.95312,6.49219,2.85938l.28125-2.39062h6.14062v24.51562c0,2.21875-.50391,4.14844-1.51172,5.78906s-2.42578,2.89062-4.25391,3.75-3.96875,1.28906-6.42188,1.28906c-1.85938,0-3.67188-.37109-5.4375-1.11328s-3.10156-1.69922-4.00781-2.87109l3-4.125c1.6875,1.89062,3.73438,2.83594,6.14062,2.83594,1.79688,0,3.19531-.48047,4.19531-1.44141s1.5-2.32422,1.5-4.08984v-1.35938c-1.5625,1.76562-3.61719,2.64844-6.16406,2.64844-3.04688,0-5.51172-1.19141-7.39453-3.57422s-2.82422-5.54297-2.82422-9.48047v-.28125ZM1464.50684,486.35606c0,2.30664.46094,4.11621,1.38281,5.42676s2.1875,1.96582,3.79688,1.96582c2.0625,0,3.53906-.77637,4.42969-2.33105v-10.71289c-.90625-1.55371-2.36719-2.33105-4.38281-2.33105-1.625,0-2.90234.66699-3.83203,2.00098-.92969,1.33496-1.39453,3.32812-1.39453,5.98145Z"/>
    <path class="cls-3" d="M1486.06934,466.81895c0-1.01562.33984-1.85156,1.01953-2.50781s1.60547-.98438,2.77734-.98438c1.15625,0,2.07812.32812,2.76562.98438s1.03125,1.49219,1.03125,2.50781c0,1.03125-.34766,1.875-1.04297,2.53125s-1.61328.98438-2.75391.98438-2.05859-.32812-2.75391-.98438-1.04297-1.5-1.04297-2.53125ZM1493.26465,498.74083h-6.79688v-25.35938h6.79688v25.35938Z"/>
    <path class="cls-3" d="M1509.38965,493.74864c1.25,0,2.26562-.34375,3.04688-1.03125s1.1875-1.60156,1.21875-2.74219h6.35156c-.01562,1.71875-.48438,3.29297-1.40625,4.72266s-2.18359,2.53906-3.78516,3.32812-3.37109,1.18359-5.30859,1.18359c-3.625,0-6.48438-1.15234-8.57812-3.45703s-3.14062-5.48828-3.14062-9.55078v-.44531c0-3.90625,1.03906-7.02344,3.11719-9.35156s4.92969-3.49219,8.55469-3.49219c3.17188,0,5.71484.90234,7.62891,2.70703s2.88672,4.20703,2.91797,7.20703h-6.35156c-.03125-1.31934-.4375-2.3916-1.21875-3.21582-.78125-.8252-1.8125-1.2373-3.09375-1.2373-1.57812,0-2.76953.5752-3.57422,1.72559-.80469,1.14941-1.20703,3.0166-1.20703,5.59766v.7041c0,2.61426.39844,4.49219,1.19531,5.63379.79688,1.14258,2.00781,1.71387,3.63281,1.71387Z"/>
    <path class="cls-3" d="M1538.56934,498.74083c-.3125-.60938-.53906-1.36719-.67969-2.27344-1.64062,1.82812-3.77344,2.74219-6.39844,2.74219-2.48438,0-4.54297-.71875-6.17578-2.15625s-2.44922-3.25-2.44922-5.4375c0-2.6875.99609-4.75,2.98828-6.1875s4.87109-2.16406,8.63672-2.17969h3.11719v-1.45312c0-1.17188-.30078-2.10938-.90234-2.8125s-1.55078-1.05469-2.84766-1.05469c-1.14062,0-2.03516.27344-2.68359.82031s-.97266,1.29688-.97266,2.25h-6.77344c0-1.46875.45312-2.82812,1.35938-4.07812s2.1875-2.23047,3.84375-2.94141,3.51562-1.06641,5.57812-1.06641c3.125,0,5.60547.78516,7.44141,2.35547s2.75391,3.77734,2.75391,6.62109v10.99219c.01562,2.40625.35156,4.22656,1.00781,5.46094v.39844h-6.84375ZM1532.96777,494.02989c1,0,1.92188-.22266,2.76562-.66797s1.46875-1.04297,1.875-1.79297v-4.35938h-2.53125c-3.39062,0-5.19531,1.17188-5.41406,3.51562l-.02344.39844c0,.84375.29688,1.53906.89062,2.08594s1.40625.82031,2.4375.82031Z"/>
    <path class="cls-3" d="M1556.75684,498.74083h-6.79688v-36h6.79688v36Z"/>
    <path class="cls-3" d="M1601.31152,488.89708l4.59375-24.28125h7.00781l-7.57031,34.125h-7.07812l-5.55469-22.82812-5.55469,22.82812h-7.07812l-7.57031-34.125h7.00781l4.61719,24.23438,5.625-24.23438h5.95312l5.60156,24.28125Z"/>
    <path class="cls-3" d="M1627.20996,499.20958c-3.71875,0-6.74609-1.14062-9.08203-3.42188s-3.50391-5.32031-3.50391-9.11719v-.65625c0-2.54688.49219-4.82422,1.47656-6.83203s2.37891-3.55469,4.18359-4.64062,3.86328-1.62891,6.17578-1.62891c3.46875,0,6.19922,1.09375,8.19141,3.28125s2.98828,5.28906,2.98828,9.30469v2.76562h-16.14844c.21875,1.65625.87891,2.98438,1.98047,3.98438s2.49609,1.5,4.18359,1.5c2.60938,0,4.64844-.94531,6.11719-2.83594l3.32812,3.72656c-1.01562,1.4375-2.39062,2.55859-4.125,3.36328s-3.65625,1.20703-5.76562,1.20703ZM1626.43652,478.37364c-1.34375,0-2.43359.45508-3.26953,1.36523-.83594.91113-1.37109,2.21289-1.60547,3.9082h9.42188v-.54199c-.03125-1.50586-.4375-2.67188-1.21875-3.49512-.78125-.82422-1.89062-1.23633-3.32812-1.23633Z"/>
    <path class="cls-3" d="M1656.17871,498.74083c-.3125-.60938-.53906-1.36719-.67969-2.27344-1.64062,1.82812-3.77344,2.74219-6.39844,2.74219-2.48438,0-4.54297-.71875-6.17578-2.15625s-2.44922-3.25-2.44922-5.4375c0-2.6875.99609-4.75,2.98828-6.1875s4.87109-2.16406,8.63672-2.17969h3.11719v-1.45312c0-1.17188-.30078-2.10938-.90234-2.8125s-1.55078-1.05469-2.84766-1.05469c-1.14062,0-2.03516.27344-2.68359.82031s-.97266,1.29688-.97266,2.25h-6.77344c0-1.46875.45312-2.82812,1.35938-4.07812s2.1875-2.23047,3.84375-2.94141,3.51562-1.06641,5.57812-1.06641c3.125,0,5.60547.78516,7.44141,2.35547s2.75391,3.77734,2.75391,6.62109v10.99219c.01562,2.40625.35156,4.22656,1.00781,5.46094v.39844h-6.84375ZM1650.57715,494.02989c1,0,1.92188-.22266,2.76562-.66797s1.46875-1.04297,1.875-1.79297v-4.35938h-2.53125c-3.39062,0-5.19531,1.17188-5.41406,3.51562l-.02344.39844c0,.84375.29688,1.53906.89062,2.08594s1.40625.82031,2.4375.82031Z"/>
    <path class="cls-3" d="M1690.0459,486.29551c0,3.90625-.88672,7.03516-2.66016,9.38672s-4.16797,3.52734-7.18359,3.52734c-2.5625,0-4.63281-.89062-6.21094-2.67188v11.95312h-6.77344v-35.10938h6.28125l.23438,2.48438c1.64062-1.96875,3.78125-2.95312,6.42188-2.95312,3.125,0,5.55469,1.15625,7.28906,3.46875s2.60156,5.5,2.60156,9.5625v.35156ZM1683.27246,485.77891c0-2.36621-.41797-4.19238-1.25391-5.47754s-2.05078-1.92773-3.64453-1.92773c-2.125,0-3.58594.81543-4.38281,2.44531v10.41406c.82812,1.67773,2.30469,2.51562,4.42969,2.51562,3.23438,0,4.85156-2.65625,4.85156-7.96973Z"/>
    <path class="cls-3" d="M1693.18652,485.82676c0-2.51562.48438-4.75781,1.45312-6.72656s2.36328-3.49219,4.18359-4.57031,3.93359-1.61719,6.33984-1.61719c3.42188,0,6.21484,1.04688,8.37891,3.14062s3.37109,4.9375,3.62109,8.53125l.04688,1.73438c0,3.89062-1.08594,7.01172-3.25781,9.36328s-5.08594,3.52734-8.74219,3.52734-6.57422-1.17188-8.75391-3.51562-3.26953-5.53125-3.26953-9.5625v-.30469ZM1699.95996,486.30723c0,2.41016.45312,4.25293,1.35938,5.52832s2.20312,1.91309,3.89062,1.91309c1.64062,0,2.92188-.62988,3.84375-1.88965s1.38281-3.27441,1.38281-6.04395c0-2.36328-.46094-4.19434-1.38281-5.49316s-2.21875-1.94824-3.89062-1.94824c-1.65625,0-2.9375.64551-3.84375,1.93652s-1.35938,3.29004-1.35938,5.99707Z"/>
    <path class="cls-3" d="M1727.61621,473.38145l.21094,2.92969c1.8125-2.26562,4.24219-3.39844,7.28906-3.39844,2.6875,0,4.6875.78906,6,2.36719s1.98438,3.9375,2.01562,7.07812v16.38281h-6.77344v-16.25586c0-1.44141-.3125-2.48633-.9375-3.13672-.625-.64941-1.66406-.97461-3.11719-.97461-1.90625,0-3.33594.81445-4.28906,2.44336v17.92383h-6.77344v-25.35938h6.375Z"/>
  </g>
  <g>
    <path class="cls-4" d="M174.72274,322.6152l7.7708-4.49088-.49357-1.51198c-4.69462-14.44284,1.45487-30.44329,14.62621-38.04765,4.92705-2.84662,10.51698-4.3474,16.17004-4.3474,10.94283,0,21.12091,5.61317,27.07843,14.69364l6.00372-3.52756c-.49012-1.20436-.77191-2.51633-.77191-3.89659,0-5.14916,3.76832-9.38666,8.69165-10.18583v-6.40517c-17.11814-.84509-30.79768-14.99782-30.79768-32.32171,0-15.02508,10.63176-28.32009,25.27806-31.60862l1.53235-.34435v-8.99295l-2.29853.39284c-22.16744,3.82514-38.25713,22.94538-38.25713,45.46578,0,7.17938,1.67583,14.24742,4.86679,20.62935-7.05628.45024-13.95473,2.53096-20.1157,6.08636-19.68239,11.36637-28.13615,35.02025-20.10135,56.24935l.81783,2.16337Z"/>
    <g>
      <path class="cls-4" d="M287.80683,232.57406c0,17.43925-13.85888,31.66745-31.13916,32.33893v6.34233c5.14342.60491,9.14676,4.92677,9.14676,10.23146,0,1.47439-.31795,2.87101-.87321,4.14051l5.8832,3.44492c5.94145-9.17689,16.17865-14.85491,27.18948-14.85491,5.65306,0,11.24298,1.50079,16.16717,4.3474,13.17133,7.60437,19.32369,23.60481,14.6262,38.04765l-.4907,1.51198,7.7708,4.49088.81783-2.16337c8.03193-21.22909-.42183-44.88584-20.10421-56.24935-6.1581-3.5554-13.05942-5.63613-20.1157-6.08636,3.19383-6.38193,4.86679-13.44997,4.86679-20.62935,0-22.7273-16.25899-41.87882-38.66174-45.53437l-2.27844-.37333v8.97602l1.55531.33029c14.85577,3.1505,25.63962,16.47995,25.63962,31.68868Z"/>
      <path class="cls-4" d="M255.40506,246.249c8.43367,0,16.16975,2.95595,22.25783,7.87181,3.09856-3.19297,5.4783-7.06517,6.96818-11.35891-8.14958-6.12367-18.24617-9.79672-29.22602-9.79672-10.97611,0-21.07012,3.67044-29.21855,9.79069,1.49505,4.28513,3.88425,8.15131,6.98569,11.346,6.08435-4.90381,13.81039-7.85287,22.23287-7.85287Z"/>
    </g>
    <g>
      <path class="cls-4" d="M321.79117,328.60112c-6.10644,6.62871-14.80124,10.42831-23.85187,10.42831-5.64732,0-11.23724-1.50079-16.16143-4.34166-7.49532-4.32731-12.85568-11.31788-15.09682-19.67665-2.1298-7.95445-1.15845-16.23374,2.66612-23.47654l-5.94288-3.47993c-1.89908,2.29422-4.73278,3.78697-7.9447,3.78697-3.30804,0-6.21951-1.58027-8.11458-3.9953l-5.97789,3.51204c8.20439,15.33072,2.82854,34.5732-12.33772,43.32942-4.92419,2.84088-10.51124,4.34166-16.15856,4.34166-9.0535,0-17.74543-3.7996-23.85188-10.42831l-1.06461-1.15615-7.79089,4.49949,1.49218,1.79033c8.77802,10.54309,21.71118,16.58641,35.47939,16.58641,8.05202,0,16.00934-2.14099,23.01971-6.1868,6.11506-3.52957,11.33768-8.41961,15.24891-14.25603,3.9141,5.83642,9.13098,10.72646,15.24891,14.25603,7.01036,4.04581,14.97056,6.1868,23.01971,6.1868,13.77108,0,26.70136-6.04332,35.47938-16.58641l1.49218-1.79033-7.78802-4.49949-1.06461,1.15615Z"/>
      <g>
        <path class="cls-4" d="M236.43547,326.65409c2.96742-3.47933,5.10095-7.51882,6.27891-11.83466-13.31453-5.11042-22.78297-17.98217-22.78297-33.09735,0-1.74671.16873-3.4498.41264-5.12907-2.43799-.61555-4.96838-.94093-7.54669-.94093-1.96365,0-3.90692.25424-5.82781.62668-.19886,1.78921-.32168,3.60106-.32168,5.44332,0,20.20121,12.28234,37.53228,29.78759,44.93201Z"/>
        <path class="cls-4" d="M268.12157,314.80996c1.21584,4.43263,3.37146,8.43654,6.26313,11.84043,17.49951-7.40235,29.77726-24.73112,29.77726-44.92831,0-1.84255-.12282-3.6544-.32168-5.44386-1.92032-.37218-3.8633-.62614-5.82724-.62614-2.58061,0-5.11042.32771-7.54755.94179.24391,1.6787.41264,3.38208.41264,5.12821,0,15.10514-9.45581,27.97029-22.75657,33.08788Z"/>
      </g>
    </g>
  </g>
  <path class="cls-5" d="M943.99322,198.56652h-49.21091c-23.89521,0-47.008,9.67653-63.74347,26.62508l-12.04326,20.24534-21.44028-5.67498-17.73096-40.54705-132.34296-.15694,39.6581,87.67419-39.16551,87.60546,132.52167-.0779,16.4296-41.17253,20.17787-5.04401,13.93572,20.20662c16.73547,16.92563,39.84826,26.60331,63.74347,26.60331h49.21091l.11226,11.55525,63.71025-.25661-.27952-11.38914c47.14203-2.15823,85.02108-41.06713,85.02108-88.04191,0-46.99655-37.91227-85.9169-85.07721-88.05337l.04468-12.12688-63.41928-.25775-.11226,12.28383Z"/>
  <g>
    <path class="cls-4" d="M1575.59553,308.92019l4.47363-2.58539-.28415-.87044c-2.70268-8.31471.83757-17.52613,8.42027-21.90395,2.83649-1.63879,6.0546-2.50279,9.30905-2.50279,6.29976,0,12.15926,3.23149,15.58899,8.4591l3.45633-2.03081c-.28216-.69335-.44439-1.44864-.44439-2.24326,0-2.96436,2.16941-5.40388,5.00376-5.86396v-3.68744c-9.85488-.48652-17.73015-8.63421-17.73015-18.60753,0-8.6499,6.12068-16.30381,14.55252-18.19701l.88217-.19824v-5.17722l-1.32326.22616c-12.76175,2.20212-22.02454,13.2096-22.02454,26.17455,0,4.13315.96477,8.20221,2.8018,11.87627-4.06228.2592-8.0337,1.45707-11.58056,3.5039-11.33111,6.5436-16.19792,20.16108-11.5723,32.38262l.47082,1.24545Z"/>
    <g>
      <path class="cls-4" d="M1640.69778,257.08372c0,10.03974-7.97853,18.23088-17.92674,18.61745v3.65126c2.96106.34824,5.26577,2.83633,5.26577,5.89023,0,.8488-.18304,1.65283-.50271,2.38368l3.38694,1.98323c3.42048-5.28311,9.31401-8.55194,15.65292-8.55194,3.25445,0,6.47256.864,9.3074,2.50279,7.5827,4.37782,11.1246,13.58924,8.42027,21.90395l-.28249.87044,4.47363,2.58539.47082-1.24545c4.62396-12.22154-.24284-25.84068-11.57395-32.38262-3.5452-2.04684-7.51828-3.2447-11.58056-3.5039,1.83868-3.67406,2.8018-7.74312,2.8018-11.87627,0-13.08405-9.36027-24.10954-22.25748-26.21403l-1.31169-.21493v5.16747l.89539.19015c8.55243,1.81374,14.76067,9.48747,14.76067,18.2431Z"/>
      <path class="cls-4" d="M1622.04415,264.95635c4.85525,0,9.30889,1.70173,12.81378,4.53178,1.78384-1.83819,3.15384-4.0674,4.01157-6.5393-4.6917-3.52538-10.50428-5.63995-16.82535-5.63995-6.31892,0-12.13002,2.11306-16.82105,5.63648.8607,2.46694,2.23616,4.69269,4.02164,6.53187,3.50275-2.82311,7.95061-4.52088,12.79941-4.52088Z"/>
    </g>
    <g>
      <path class="cls-4" d="M1660.26248,312.36628c-3.51546,3.81613-8.52104,6.00355-13.73147,6.00355-3.25115,0-6.46926-.864-9.3041-2.49948-4.31504-2.49122-7.40099-6.51568-8.6912-11.3278-1.22612-4.57936-.66691-9.34573,1.53488-13.51539l-3.4213-2.00339c-1.0933,1.32078-2.72465,2.18015-4.57374,2.18015-1.90443,0-3.58056-.90976-4.67154-2.30009l-3.44146,2.02187c4.72325,8.82586,1.62838,19.90371-7.1028,24.94465-2.83484,1.63549-6.0513,2.49948-9.30245,2.49948-5.21208,0-10.216-2.18742-13.73147-6.00355l-.61289-.66559-4.4852,2.59035.85904,1.03069c5.05349,6.06963,12.49908,9.54876,20.4254,9.54876,4.63553,0,9.21654-1.23256,13.25239-3.56172,3.52042-2.03197,6.52708-4.84715,8.77876-8.20717,2.25334,3.36001,5.25668,6.1752,8.77876,8.20717,4.03585,2.32916,8.61851,3.56172,13.25239,3.56172,7.92798,0,15.37191-3.47912,20.4254-9.54876l.85904-1.03069-4.48354-2.59035-.61289.66559Z"/>
      <g>
        <path class="cls-4" d="M1611.1234,311.24537c1.70834-2.00304,2.93661-4.32857,3.61475-6.81319-7.66514-2.94206-13.1161-10.35229-13.1161-19.05407,0-1.00558.09714-1.98604.23756-2.9528-1.40354-.35437-2.86028-.54169-4.34461-.54169-1.13047,0-2.24921.14637-3.35506.36078-.11448,1.03004-.18519,2.07312-.18519,3.13371,0,11.62979,7.07092,21.60725,17.14865,25.86726Z"/>
        <path class="cls-4" d="M1629.36502,304.42674c.69995,2.55185,1.94094,4.8569,3.60567,6.81651,10.07443-4.26151,17.1427-14.23765,17.1427-25.86513,0-1.06075-.07071-2.10383-.18519-3.13402-1.10552-.21427-2.2241-.36047-3.35473-.36047-1.48565,0-2.94206.18866-4.34511.54219.14042.96642.23756,1.94705.23756,2.9523,0,8.69599-5.44369,16.10243-13.1009,19.04862Z"/>
      </g>
    </g>
  </g>
  <g>
    <rect class="cls-3" x="455.24486" y="283.10644" width="78.13781" height="11.4348"/>
    <rect class="cls-3" x="455.24486" y="283.10644" width="78.13781" height="11.4348" transform="translate(783.13761 -205.48992) rotate(90)"/>
  </g>
  <rect class="cls-3" x="1170.3352" y="270.35557" width="78.13781" height="11.4348"/>
  <rect class="cls-3" x="1170.3352" y="293.89564" width="78.13781" height="11.4348" transform="translate(2418.8082 599.22608) rotate(180)"/>
</svg>