<?xml version="1.0" encoding="UTF-8"?>
<svg id="Ebene_2" data-name="Ebene 2" xmlns="http://www.w3.org/2000/svg" viewBox="0 0 1920 1280">
  <defs>
    <style>
      .cls-1, .cls-2, .cls-3, .cls-4 {
        fill: none;
      }

      .cls-2 {
        stroke: #f08b00;
      }

      .cls-2, .cls-3, .cls-4 {
        stroke-miterlimit: 10;
      }

      .cls-2, .cls-4 {
        stroke-width: 8px;
      }

      .cls-3 {
        stroke: #fff;
        stroke-width: 19.59625px;
      }

      .cls-4 {
        stroke: #bbcf12;
      }

      .cls-5 {
        fill: #f08b00;
      }

      .cls-6 {
        fill: #90172f;
      }

      .cls-7 {
        fill: #0d435c;
      }

      .cls-8 {
        fill: #fff;
      }

      .cls-9 {
        fill: #f3f5f7;
      }

      .cls-10 {
        fill: #bbcf12;
      }

      .cls-11 {
        fill: #98ba00;
      }

      .cls-12 {
        fill: #fac102;
      }
    </style>
  </defs>
  <rect class="cls-9" x=".9753" y="-2.28592" width="1912.50121" height="1279.22083"/>
  <path class="cls-6" d="M1379.39631,727.2625c-144.30177,0-261.69776-117.39599-261.69776-261.69776s117.39599-261.70065,261.69776-261.70065,261.69776,117.39888,261.69776,261.70065-117.39599,261.69776-261.69776,261.69776Z"/>
  <path class="cls-10" d="M733.13654,1166.22777c-96.55611,0-175.10886-78.55275-175.10886-175.10886s78.55275-175.11079,175.10886-175.11079,175.10886,78.55468,175.10886,175.11079-78.55275,175.10886-175.10886,175.10886Z"/>
  <path class="cls-5" d="M1168.52934,1166.22777c-96.55611,0-175.10886-78.55275-175.10886-175.10886s78.55275-175.11079,175.10886-175.11079,175.10886,78.55468,175.10886,175.11079-78.55275,175.10886-175.10886,175.10886Z"/>
  <g>
    <path class="cls-8" d="M1194.58566,988.28076c0,13.41109-10.90784,24.32205-24.31893,24.32205s-24.32257-10.91096-24.32257-24.32205c0-13.40901,10.91201-24.31893,24.32257-24.31893s24.31893,10.90992,24.31893,24.31893Z"/>
    <path class="cls-8" d="M1137.4104,988.28076c0-12.84023,7.4759-23.8663,18.2405-29.26709l-38.28577-66.30436-1.71311.99276c-33.68919,19.49212-54.61628,55.73248-54.61628,94.57818v1.9777h76.57467c-.04063-.66722-.20001-1.30007-.20001-1.97718Z"/>
    <path class="cls-8" d="M1203.11942,988.28076c0,.6766-.15938,1.30892-.20001,1.97562h76.57311v-1.9777c0-38.8457-20.92813-75.08605-54.62097-94.5787l-1.71102-.99224-38.28525,66.3028c10.76616,5.39975,18.24414,16.42791,18.24414,29.27022Z"/>
    <path class="cls-8" d="M1152.17156,1015.66026l-38.23056,66.2179,1.71519.98859c16.86595,9.71403,35.76117,14.57365,54.65326,14.57365,18.87595,0,37.74877-4.85545,54.56992-14.56583l1.71154-.98911-38.23837-66.22155c-5.19401,3.44236-11.40213,5.47267-18.0858,5.47267-6.68731,0-12.8996-2.03135-18.09518-5.47632Z"/>
  </g>
  <circle class="cls-11" cx="521.02847" cy="462.56723" r="261.80282"/>
  <path class="cls-8" d="M359.24448,548.45709l15.78581-9.12289-1.00264-3.07147c-9.53678-29.33958,2.95547-61.84331,29.71207-77.29102,10.00895-5.78269,21.36448-8.83143,32.84825-8.83143,22.22955,0,42.90558,11.40274,55.00785,29.84906l12.19611-7.16599c-.99565-2.44657-1.56809-5.11174-1.56809-7.91564,0-10.46014,7.65507-19.06831,17.65644-20.69177v-13.01168c-34.77426-1.71669-62.56324-30.46692-62.56324-65.65914,0-30.52235,21.59765-57.53019,51.35053-64.2106l3.11286-.69952v-18.26852l-4.66929.79803c-45.03154,7.77049-77.71657,46.61187-77.71657,92.36041,0,14.58439,3.40433,28.9426,9.88654,41.90702-14.33431.91462-28.34801,5.14146-40.86357,12.364-39.98334,23.08996-57.15654,71.14109-40.83442,114.26644l1.66136,4.39473Z"/>
  <g>
    <path class="cls-8" d="M588.96654,365.54511c0,35.42656-28.15331,64.33006-63.25693,65.69412v12.88402c10.44848,1.22878,18.58097,10.00837,18.58097,20.78446,0,2.99511-.64589,5.83224-1.77386,8.41113l11.95128,6.99811c12.06962-18.64218,32.86574-30.17667,55.23344-30.17667,11.48377,0,22.8393,3.04874,32.84242,8.83143,26.75659,15.44771,39.25466,47.95145,29.71206,77.29102l-.99681,3.07147,15.78581,9.12289,1.66136-4.39473c16.31628-43.12535-.85691-91.18289-40.84024-114.26644-12.50973-7.22253-26.52926-11.44938-40.86357-12.364,6.48804-12.96442,9.88654-27.32263,9.88654-41.90702,0-46.16884-33.02896-85.07376-78.5385-92.50032l-4.62848-.75781v18.23413l3.15949.67096c30.17842,6.40002,52.08502,33.47782,52.08502,64.37324Z"/>
    <path class="cls-8" d="M523.14471,393.32476c17.13239,0,32.84767,6.00474,45.21516,15.99101,6.29451-6.48629,11.12877-14.35243,14.15535-23.0748-16.55528-12.43978-37.06577-19.90132-59.37051-19.90132-22.29717,0-42.80241,7.45629-59.35536,19.88908,3.03708,8.70493,7.89057,16.5582,14.19091,23.04857,12.35992-9.96173,28.05479-15.95253,45.16445-15.95253Z"/>
  </g>
  <g>
    <path class="cls-8" d="M658.00323,560.61707c-12.40479,13.46574-30.06765,21.18435-48.45334,21.18435-11.47211,0-22.82764-3.04874-32.83076-8.81977-15.2262-8.79062-26.11538-22.99144-30.66808-39.97168-4.32653-16.15889-2.3533-32.97766,5.41603-47.69088l-12.07253-7.06922c-3.85785,4.6605-9.61431,7.69296-16.13907,7.69296-6.72005,0-12.63448-3.21021-16.48417-8.11617l-12.14365,7.13451c16.66662,31.14317,5.74597,70.23283-25.06318,88.02048-10.00312,5.77103-21.35282,8.81977-32.82493,8.81977-18.39152,0-36.04855-7.71861-48.45335-21.18435l-2.16268-2.34864-15.82662,9.14038,3.03125,3.63692c17.83191,21.41752,44.10468,33.69408,72.07378,33.69408,16.35709,0,32.52181-4.34926,46.76285-12.56803,12.42229-7.17007,23.03166-17.10382,30.97704-28.96009,7.9512,11.85626,18.54891,21.79002,30.97704,28.96009,14.24104,8.21877,30.41159,12.56803,46.76285,12.56803,27.97493,0,54.24186-12.27656,72.07376-33.69408l3.03125-3.63692-15.82079-9.14038-2.16268,2.34864Z"/>
    <g>
      <path class="cls-8" d="M484.60937,556.66187c6.02811-7.06806,10.36221-15.274,12.75515-24.0413-27.04749-10.38145-46.28193-36.52947-46.28193-67.23486,0-3.54836.34276-7.00801.83826-10.41934-4.95259-1.25039-10.09289-1.91144-15.33054-1.91144-3.98901,0-7.93663.51643-11.83878,1.27312-.40397,3.63458-.65347,7.31522-.65347,11.05765,0,41.03728,24.95068,76.24408,60.51131,91.27616Z"/>
      <path class="cls-8" d="M548.97737,532.60133c2.46989,9.00452,6.84887,17.13822,12.72309,24.05296,35.54898-15.03733,60.49033-50.23946,60.49033-91.26858,0-3.74301-.2495-7.42365-.65347-11.05881-3.90098-.75606-7.84802-1.27196-11.83761-1.27196-5.24231,0-10.38145.66571-15.33229,1.91318.49549,3.41016.83826,6.87044.83826,10.41759,0,30.68499-19.20879,56.8196-46.2283,67.21562Z"/>
    </g>
  </g>
  <circle class="cls-12" cx="950.04271" cy="462.56723" r="261.80282"/>
  <g>
    <path class="cls-8" d="M951.03182,516.7098c-20.32487,0-36.46521-16.14034-36.46521-36.46521s16.14034-36.46521,36.46521-36.46521,36.46521,16.14034,36.46521,36.46521c0,19.72708-16.14034,36.46521-36.46521,36.46521Z"/>
    <path class="cls-8" d="M951.03182,288.18275c29.12581,0,52.55308,23.42728,52.55308,52.55308,0,24.06045-16.46241,44.95505-39.88969,50.65357h-1.26634v46.22139c-3.79902-1.26634-7.59804-1.26634-11.39705-1.26634s-7.59804.63317-11.39705,1.26634v-46.22139h-1.26634c-23.42728-5.69853-39.88969-26.59313-39.88969-50.65357,0-28.49264,23.42728-52.55308,52.55308-52.55308"/>
    <path class="cls-8" d="M993.24804,492.69655l39.25652,22.79411,1.26634.63317.63317-.63317c10.13071-10.13071,23.42728-15.82924,37.99018-15.82924,8.86438,0,18.36192,2.53268,25.95996,6.96487,12.03022,6.96487,20.8946,18.36192,24.69362,31.65848,3.79902,13.29656,1.89951,27.85947-5.06536,39.88969-9.49755,16.46241-26.59313,25.95996-45.58822,25.95996-8.86438,0-18.36192-2.53268-25.95996-6.96487-20.8946-12.03022-31.02531-36.72384-24.06045-60.15112l.63317-1.26634-1.26634-.63317-39.88969-22.79411c5.69853-5.69853,9.49755-12.03022,11.39705-19.62826"/>
    <path class="cls-8" d="M907.77013,492.06339c1.89951,7.59804,5.69853,14.5629,11.39705,19.62826l-40.52286,23.42728-1.26634.63317.63317,1.26634c6.3317,23.42728-3.16585,47.48773-24.06045,60.15112-8.23121,4.43219-17.09558,6.96487-25.95996,6.96487-18.99509,0-36.09067-10.13071-45.58822-25.95996-6.96487-12.03022-8.86438-25.95996-5.06536-39.88969,3.79902-13.29656,12.03022-24.69362,24.69362-31.65848,8.23121-4.43219,17.09558-6.96487,25.95996-6.96487,13.92973,0,27.85947,5.69853,37.99018,15.82924l.63317.63317,1.26634-.63317,39.88969-23.42728"/>
    <g>
      <path class="cls-8" d="M968.55442,421.14838c26.59313,7.59804,44.95505,32.29165,44.95505,60.15112,0,5.06536-.63317,9.49755-1.89951,14.5629l-17.09558-10.13071v-5.06536c0-17.72875-10.13071-33.55799-26.59313-40.52286v-18.99509"/>
      <path class="cls-8" d="M933.09692,421.14838v19.62826c-15.82924,6.96487-26.59313,22.79411-26.59313,40.52286v4.43219l-17.09558,9.49755c-1.26634-4.43219-1.89951-9.49755-1.89951-13.92973.63317-27.85947,18.99509-52.55308,45.58822-60.15112"/>
      <path class="cls-8" d="M924.23254,516.12383c7.59804,5.69853,17.09558,8.86438,26.59313,8.86438s18.36192-3.16585,25.95996-8.23121l17.09558,9.49755c-12.03022,11.39705-27.2263,17.09558-43.05554,17.09558-16.46241,0-31.65848-6.3317-43.05554-17.72875l16.46241-9.49755"/>
    </g>
  </g>
  <g>
    <path class="cls-8" d="M1430.76218,469.10629c0,24.60505-19.94375,44.54619-44.54749,44.54619-24.60113,0-44.54358-19.94114-44.54358-44.54619,0-24.60244,19.94245-44.54619,44.54358-44.54619,24.60374,0,44.54749,19.94375,44.54749,44.54619Z"/>
    <path class="cls-3" d="M1543.47195,558.9603c-23.65528,42.2678-113.5903,36.92586-200.87198-11.92758-87.28168-48.85475-138.86162-122.72084-115.20372-164.98472,23.65659-42.2678,113.58899-36.92456,200.87067,11.92889,87.2843,48.85344,138.86292,122.71954,115.20503,164.98342Z"/>
    <path class="cls-3" d="M1544.96388,379.67163c23.31431,42.45592-28.86005,115.90266-116.53627,164.04802-87.67491,48.14406-177.64651,52.75832-200.96082,10.30371-23.31431-42.45331,28.86024-115.90135,116.53496-164.04802,87.67753-48.14537,177.65043-52.75702,200.96212-10.30371Z"/>
    <path class="cls-3" d="M1384.21215,288.00038c48.43258-.3253,88.24301,80.49354,88.91842,180.5154.67562,100.02186-38.04154,181.37111-86.47543,181.6964-48.43297.32922-88.24602-80.49224-88.92013-180.5141-.6728-100.02186,38.04285-181.37111,86.47713-181.69771Z"/>
    <g>
      <path class="cls-8" d="M1360.82617,330.41711c-17.60449,0-31.92676-14.31934-31.92676-31.9209,0-17.60254,14.32227-31.92383,31.92676-31.92383,17.60156,0,31.9209,14.32129,31.9209,31.92383,0,17.60156-14.31934,31.9209-31.9209,31.9209Z"/>
      <path class="cls-6" d="M1360.82581,273.10461c14.02307,0,25.38892,11.36841,25.38892,25.39148s-11.36584,25.38892-25.38892,25.38892c-14.02576,0-25.39417-11.36584-25.39417-25.38892s11.36841-25.39148,25.39417-25.39148M1360.82581,260.0404c-21.20593,0-38.45837,17.2511-38.45837,38.45569,0,21.20312,17.25244,38.45312,38.45837,38.45312,21.20312,0,38.453-17.25,38.453-38.45312,0-21.20459-17.24988-38.45569-38.453-38.45569h0Z"/>
    </g>
    <g>
      <path class="cls-8" d="M1226.29492,579.43078c-17.60254,0-31.92383-14.31934-31.92383-31.9209,0-17.60352,14.32129-31.92578,31.92383-31.92578s31.92383,14.32227,31.92383,31.92578c0,17.60156-14.32129,31.9209-31.92383,31.9209Z"/>
      <path class="cls-6" d="M1226.29492,522.11669c14.02307,0,25.39148,11.36853,25.39148,25.39282,0,14.02307-11.36841,25.38892-25.39148,25.38892s-25.39148-11.36584-25.39148-25.38892c0-14.02429,11.36841-25.39282,25.39148-25.39282M1226.29492,509.05248c-21.20447,0-38.45557,17.25183-38.45557,38.45703,0,21.20312,17.2511,38.45312,38.45557,38.45312s38.45557-17.25,38.45557-38.45312c0-21.2052-17.2511-38.45703-38.45557-38.45703h0Z"/>
    </g>
    <g>
      <path class="cls-8" d="M1515.5752,609.72375c-17.60352,0-31.92578-14.32129-31.92578-31.92383s14.32227-31.92383,31.92578-31.92383c17.60156,0,31.9209,14.32129,31.9209,31.92383s-14.31934,31.92383-31.9209,31.92383Z"/>
      <path class="cls-6" d="M1515.57471,552.40869c14.02307,0,25.38892,11.36841,25.38892,25.39148s-11.36584,25.39148-25.38892,25.39148-25.39282-11.36841-25.39282-25.39148,11.36975-25.39148,25.39282-25.39148M1515.57471,539.3446c-21.2052,0-38.45703,17.2511-38.45703,38.45557s17.25183,38.45557,38.45703,38.45557c21.20312,0,38.45312-17.2511,38.45312-38.45557s-17.25-38.45557-38.45312-38.45557h0Z"/>
    </g>
  </g>
  <path class="cls-5" d="M1163.93358,613.94006c30.25168-42.70043,48.03531-94.85767,48.03531-151.17062,0-55.00463-16.97677-106.0372-45.95692-148.1723-30.33643,42.72237-48.19014,94.89978-48.19014,151.16974,0,54.96534,17.04719,106.01632,46.11175,148.17318Z"/>
  <path class="cls-10" d="M732.59678,611.40585c30.25168-42.70043,48.03531-94.85767,48.03531-151.17062,0-55.00463-16.97677-106.0372-45.95692-148.1723-30.33643,42.72237-48.19014,94.89978-48.19014,151.16974,0,54.96534,17.04719,106.01632,46.11175,148.17318Z"/>
  <g>
    <rect class="cls-1" x="196.03015" y="114.34222" width="427.91851" height="87.63003"/>
    <path class="cls-7" d="M199.07715,150.34191v-34.125h11.95312c4.14062,0,7.28125.79297,9.42188,2.37891s3.21094,3.91016,3.21094,6.97266c0,1.67188-.42969,3.14453-1.28906,4.41797s-2.05469,2.20703-3.58594,2.80078c1.75.4375,3.12891,1.32031,4.13672,2.64844s1.51172,2.95312,1.51172,4.875c0,3.28125-1.04688,5.76562-3.14062,7.45312s-5.07812,2.54688-8.95312,2.57812h-13.26562ZM206.1084,130.51379h5.20312c3.54688-.0625,5.32031-1.47656,5.32031-4.24219,0-1.54688-.44922-2.66016-1.34766-3.33984s-2.31641-1.01953-4.25391-1.01953h-4.92188v8.60156ZM206.1084,135.48254v9.21094h6.02344c1.65625,0,2.94922-.39453,3.87891-1.18359s1.39453-1.87891,1.39453-3.26953c0-3.125-1.61719-4.71094-4.85156-4.75781h-6.44531Z"/>
    <path class="cls-7" d="M229.21777,118.42004c0-1.01562.33984-1.85156,1.01953-2.50781s1.60547-.98438,2.77734-.98438c1.15625,0,2.07812.32812,2.76562.98438s1.03125,1.49219,1.03125,2.50781c0,1.03125-.34766,1.875-1.04297,2.53125s-1.61328.98438-2.75391.98438-2.05859-.32812-2.75391-.98438-1.04297-1.5-1.04297-2.53125ZM236.41309,150.34191h-6.79688v-25.35938h6.79688v25.35938Z"/>
    <path class="cls-7" d="M240.93652,137.42785c0-2.51562.48438-4.75781,1.45312-6.72656s2.36328-3.49219,4.18359-4.57031,3.93359-1.61719,6.33984-1.61719c3.42188,0,6.21484,1.04688,8.37891,3.14062s3.37109,4.9375,3.62109,8.53125l.04688,1.73438c0,3.89062-1.08594,7.01172-3.25781,9.36328s-5.08594,3.52734-8.74219,3.52734-6.57422-1.17188-8.75391-3.51562-3.26953-5.53125-3.26953-9.5625v-.30469ZM247.70996,137.90832c0,2.41016.45312,4.25293,1.35938,5.52832s2.20312,1.91309,3.89062,1.91309c1.64062,0,2.92188-.62988,3.84375-1.88965s1.38281-3.27441,1.38281-6.04395c0-2.36328-.46094-4.19434-1.38281-5.49316s-2.21875-1.94824-3.89062-1.94824c-1.65625,0-2.9375.64551-3.84375,1.93652s-1.35938,3.29004-1.35938,5.99707Z"/>
    <path class="cls-7" d="M276.28027,150.34191h-6.79688v-36h6.79688v36Z"/>
    <path class="cls-7" d="M280.80371,137.42785c0-2.51562.48438-4.75781,1.45312-6.72656s2.36328-3.49219,4.18359-4.57031,3.93359-1.61719,6.33984-1.61719c3.42188,0,6.21484,1.04688,8.37891,3.14062s3.37109,4.9375,3.62109,8.53125l.04688,1.73438c0,3.89062-1.08594,7.01172-3.25781,9.36328s-5.08594,3.52734-8.74219,3.52734-6.57422-1.17188-8.75391-3.51562-3.26953-5.53125-3.26953-9.5625v-.30469ZM287.57715,137.90832c0,2.41016.45312,4.25293,1.35938,5.52832s2.20312,1.91309,3.89062,1.91309c1.64062,0,2.92188-.62988,3.84375-1.88965s1.38281-3.27441,1.38281-6.04395c0-2.36328-.46094-4.19434-1.38281-5.49316s-2.21875-1.94824-3.89062-1.94824c-1.65625,0-2.9375.64551-3.84375,1.93652s-1.35938,3.29004-1.35938,5.99707Z"/>
    <path class="cls-7" d="M308.01465,137.47473c0-3.89062.92578-7.02344,2.77734-9.39844s4.34766-3.5625,7.48828-3.5625c2.78125,0,4.94531.95312,6.49219,2.85938l.28125-2.39062h6.14062v24.51562c0,2.21875-.50391,4.14844-1.51172,5.78906s-2.42578,2.89062-4.25391,3.75-3.96875,1.28906-6.42188,1.28906c-1.85938,0-3.67188-.37109-5.4375-1.11328s-3.10156-1.69922-4.00781-2.87109l3-4.125c1.6875,1.89062,3.73438,2.83594,6.14062,2.83594,1.79688,0,3.19531-.48047,4.19531-1.44141s1.5-2.32422,1.5-4.08984v-1.35938c-1.5625,1.76562-3.61719,2.64844-6.16406,2.64844-3.04688,0-5.51172-1.19141-7.39453-3.57422s-2.82422-5.54297-2.82422-9.48047v-.28125ZM314.78809,137.95715c0,2.30664.46094,4.11621,1.38281,5.42676s2.1875,1.96582,3.79688,1.96582c2.0625,0,3.53906-.77637,4.42969-2.33105v-10.71289c-.90625-1.55371-2.36719-2.33105-4.38281-2.33105-1.625,0-2.90234.66699-3.83203,2.00098-.92969,1.33496-1.39453,3.32812-1.39453,5.98145Z"/>
    <path class="cls-7" d="M336.35059,118.42004c0-1.01562.33984-1.85156,1.01953-2.50781s1.60547-.98438,2.77734-.98438c1.15625,0,2.07812.32812,2.76562.98438s1.03125,1.49219,1.03125,2.50781c0,1.03125-.34766,1.875-1.04297,2.53125s-1.61328.98438-2.75391.98438-2.05859-.32812-2.75391-.98438-1.04297-1.5-1.04297-2.53125ZM343.5459,150.34191h-6.79688v-25.35938h6.79688v25.35938Z"/>
    <path class="cls-7" d="M359.6709,145.34973c1.25,0,2.26562-.34375,3.04688-1.03125s1.1875-1.60156,1.21875-2.74219h6.35156c-.01562,1.71875-.48438,3.29297-1.40625,4.72266s-2.18359,2.53906-3.78516,3.32812-3.37109,1.18359-5.30859,1.18359c-3.625,0-6.48438-1.15234-8.57812-3.45703s-3.14062-5.48828-3.14062-9.55078v-.44531c0-3.90625,1.03906-7.02344,3.11719-9.35156s4.92969-3.49219,8.55469-3.49219c3.17188,0,5.71484.90234,7.62891,2.70703s2.88672,4.20703,2.91797,7.20703h-6.35156c-.03125-1.31934-.4375-2.3916-1.21875-3.21582-.78125-.8252-1.8125-1.2373-3.09375-1.2373-1.57812,0-2.76953.5752-3.57422,1.72559-.80469,1.14941-1.20703,3.0166-1.20703,5.59766v.7041c0,2.61426.39844,4.49219,1.19531,5.63379.79688,1.14258,2.00781,1.71387,3.63281,1.71387Z"/>
    <path class="cls-7" d="M388.85059,150.34191c-.3125-.60938-.53906-1.36719-.67969-2.27344-1.64062,1.82812-3.77344,2.74219-6.39844,2.74219-2.48438,0-4.54297-.71875-6.17578-2.15625s-2.44922-3.25-2.44922-5.4375c0-2.6875.99609-4.75,2.98828-6.1875s4.87109-2.16406,8.63672-2.17969h3.11719v-1.45312c0-1.17188-.30078-2.10938-.90234-2.8125s-1.55078-1.05469-2.84766-1.05469c-1.14062,0-2.03516.27344-2.68359.82031s-.97266,1.29688-.97266,2.25h-6.77344c0-1.46875.45312-2.82812,1.35938-4.07812s2.1875-2.23047,3.84375-2.94141,3.51562-1.06641,5.57812-1.06641c3.125,0,5.60547.78516,7.44141,2.35547s2.75391,3.77734,2.75391,6.62109v10.99219c.01562,2.40625.35156,4.22656,1.00781,5.46094v.39844h-6.84375ZM383.24902,145.63098c1,0,1.92188-.22266,2.76562-.66797s1.46875-1.04297,1.875-1.79297v-4.35938h-2.53125c-3.39062,0-5.19531,1.17188-5.41406,3.51562l-.02344.39844c0,.84375.29688,1.53906.89062,2.08594s1.40625.82031,2.4375.82031Z"/>
    <path class="cls-7" d="M407.03809,150.34191h-6.79688v-36h6.79688v36Z"/>
    <path class="cls-7" d="M451.59277,140.49816l4.59375-24.28125h7.00781l-7.57031,34.125h-7.07812l-5.55469-22.82812-5.55469,22.82812h-7.07812l-7.57031-34.125h7.00781l4.61719,24.23438,5.625-24.23438h5.95312l5.60156,24.28125Z"/>
    <path class="cls-7" d="M477.49121,150.81066c-3.71875,0-6.74609-1.14062-9.08203-3.42188s-3.50391-5.32031-3.50391-9.11719v-.65625c0-2.54688.49219-4.82422,1.47656-6.83203s2.37891-3.55469,4.18359-4.64062,3.86328-1.62891,6.17578-1.62891c3.46875,0,6.19922,1.09375,8.19141,3.28125s2.98828,5.28906,2.98828,9.30469v2.76562h-16.14844c.21875,1.65625.87891,2.98438,1.98047,3.98438s2.49609,1.5,4.18359,1.5c2.60938,0,4.64844-.94531,6.11719-2.83594l3.32812,3.72656c-1.01562,1.4375-2.39062,2.55859-4.125,3.36328s-3.65625,1.20703-5.76562,1.20703ZM476.71777,129.97473c-1.34375,0-2.43359.45508-3.26953,1.36523-.83594.91113-1.37109,2.21289-1.60547,3.9082h9.42188v-.54199c-.03125-1.50586-.4375-2.67188-1.21875-3.49512-.78125-.82422-1.89062-1.23633-3.32812-1.23633Z"/>
    <path class="cls-7" d="M506.45996,150.34191c-.3125-.60938-.53906-1.36719-.67969-2.27344-1.64062,1.82812-3.77344,2.74219-6.39844,2.74219-2.48438,0-4.54297-.71875-6.17578-2.15625s-2.44922-3.25-2.44922-5.4375c0-2.6875.99609-4.75,2.98828-6.1875s4.87109-2.16406,8.63672-2.17969h3.11719v-1.45312c0-1.17188-.30078-2.10938-.90234-2.8125s-1.55078-1.05469-2.84766-1.05469c-1.14062,0-2.03516.27344-2.68359.82031s-.97266,1.29688-.97266,2.25h-6.77344c0-1.46875.45312-2.82812,1.35938-4.07812s2.1875-2.23047,3.84375-2.94141,3.51562-1.06641,5.57812-1.06641c3.125,0,5.60547.78516,7.44141,2.35547s2.75391,3.77734,2.75391,6.62109v10.99219c.01562,2.40625.35156,4.22656,1.00781,5.46094v.39844h-6.84375ZM500.8584,145.63098c1,0,1.92188-.22266,2.76562-.66797s1.46875-1.04297,1.875-1.79297v-4.35938h-2.53125c-3.39062,0-5.19531,1.17188-5.41406,3.51562l-.02344.39844c0,.84375.29688,1.53906.89062,2.08594s1.40625.82031,2.4375.82031Z"/>
    <path class="cls-7" d="M540.32715,137.8966c0,3.90625-.88672,7.03516-2.66016,9.38672s-4.16797,3.52734-7.18359,3.52734c-2.5625,0-4.63281-.89062-6.21094-2.67188v11.95312h-6.77344v-35.10938h6.28125l.23438,2.48438c1.64062-1.96875,3.78125-2.95312,6.42188-2.95312,3.125,0,5.55469,1.15625,7.28906,3.46875s2.60156,5.5,2.60156,9.5625v.35156ZM533.55371,137.38c0-2.36621-.41797-4.19238-1.25391-5.47754s-2.05078-1.92773-3.64453-1.92773c-2.125,0-3.58594.81543-4.38281,2.44531v10.41406c.82812,1.67773,2.30469,2.51562,4.42969,2.51562,3.23438,0,4.85156-2.65625,4.85156-7.96973Z"/>
    <path class="cls-7" d="M543.46777,137.42785c0-2.51562.48438-4.75781,1.45312-6.72656s2.36328-3.49219,4.18359-4.57031,3.93359-1.61719,6.33984-1.61719c3.42188,0,6.21484,1.04688,8.37891,3.14062s3.37109,4.9375,3.62109,8.53125l.04688,1.73438c0,3.89062-1.08594,7.01172-3.25781,9.36328s-5.08594,3.52734-8.74219,3.52734-6.57422-1.17188-8.75391-3.51562-3.26953-5.53125-3.26953-9.5625v-.30469ZM550.24121,137.90832c0,2.41016.45312,4.25293,1.35938,5.52832s2.20312,1.91309,3.89062,1.91309c1.64062,0,2.92188-.62988,3.84375-1.88965s1.38281-3.27441,1.38281-6.04395c0-2.36328-.46094-4.19434-1.38281-5.49316s-2.21875-1.94824-3.89062-1.94824c-1.65625,0-2.9375.64551-3.84375,1.93652s-1.35938,3.29004-1.35938,5.99707Z"/>
    <path class="cls-7" d="M577.89746,124.98254l.21094,2.92969c1.8125-2.26562,4.24219-3.39844,7.28906-3.39844,2.6875,0,4.6875.78906,6,2.36719s1.98438,3.9375,2.01562,7.07812v16.38281h-6.77344v-16.25586c0-1.44141-.3125-2.48633-.9375-3.13672-.625-.64941-1.66406-.97461-3.11719-.97461-1.90625,0-3.33594.81445-4.28906,2.44336v17.92383h-6.77344v-25.35938h6.375Z"/>
    <path class="cls-7" d="M612.28027,143.3341c0-.82812-.41016-1.48047-1.23047-1.95703s-2.13672-.90234-3.94922-1.27734c-6.03125-1.26562-9.04688-3.82812-9.04688-7.6875,0-2.25.93359-4.12891,2.80078-5.63672s4.30859-2.26172,7.32422-2.26172c3.21875,0,5.79297.75781,7.72266,2.27344s2.89453,3.48438,2.89453,5.90625h-6.77344c0-.96875-.3125-1.76953-.9375-2.40234s-1.60156-.94922-2.92969-.94922c-1.14062,0-2.02344.25781-2.64844.77344s-.9375,1.17188-.9375,1.96875c0,.75.35547,1.35547,1.06641,1.81641s1.91016.85938,3.59766,1.19531,3.10938.71484,4.26562,1.13672c3.57812,1.3125,5.36719,3.58594,5.36719,6.82031,0,2.3125-.99219,4.18359-2.97656,5.61328s-4.54688,2.14453-7.6875,2.14453c-2.125,0-4.01172-.37891-5.66016-1.13672s-2.94141-1.79688-3.87891-3.11719-1.40625-2.74609-1.40625-4.27734h6.42188c.0625,1.20312.50781,2.125,1.33594,2.76562s1.9375.96094,3.32812.96094c1.29688,0,2.27734-.24609,2.94141-.73828s.99609-1.13672.99609-1.93359Z"/>
  </g>
  <g>
    <rect class="cls-1" x="139.62041" y="1011.57658" width="401.92881" height="107.75231"/>
    <path class="cls-7" d="M164.7627,1018.20031h-9.14648v24.87598h-6.15186v-24.87598h-9.02344v-4.9834h24.32178v4.9834Z"/>
    <path class="cls-7" d="M162.69141,1031.77648c0-2.20117.42383-4.16309,1.27148-5.88574s2.06836-3.05566,3.66113-3.99902,3.44141-1.41504,5.54688-1.41504c2.99414,0,5.43848.91602,7.33203,2.74805s2.94922,4.32031,3.16797,7.46484l.04102,1.51758c0,3.4043-.9502,6.13574-2.85059,8.19336s-4.4502,3.08594-7.64941,3.08594-5.75195-1.02539-7.65918-3.07617-2.86133-4.83984-2.86133-8.36719v-.2666ZM168.61816,1032.19738c0,2.1084.39648,3.7207,1.18945,4.83691s1.92773,1.67383,3.4043,1.67383c1.43555,0,2.55664-.55078,3.36328-1.65332s1.20996-2.86523,1.20996-5.28906c0-2.06738-.40332-3.66992-1.20996-4.80566-.80664-1.13672-1.94141-1.70508-3.4043-1.70508-1.44922,0-2.57031.56445-3.36328,1.69434s-1.18945,2.87891-1.18945,5.24805Z"/>
    <path class="cls-7" d="M195.38086,1027.51086l3.73242-6.62402h6.33691l-6.31641,10.86914,6.58301,11.32031h-6.35742l-3.95801-6.97266-3.9375,6.97266h-6.37793l6.58301-11.32031-6.2959-10.86914h6.35742l3.65039,6.62402Z"/>
    <path class="cls-7" d="M208.25977,1015.14465c0-.88867.29785-1.62012.8916-2.19434.5957-.57422,1.40527-.86133,2.43066-.86133,1.01172,0,1.81836.28711,2.41992.86133s.90234,1.30566.90234,2.19434c0,.90234-.30469,1.64062-.91309,2.21484s-1.41113.86133-2.40918.86133-1.80176-.28711-2.40918-.86133c-.60938-.57422-.91309-1.3125-.91309-2.21484ZM214.55566,1043.07629h-5.94727v-22.18945h5.94727v22.18945Z"/>
    <path class="cls-7" d="M224.8916,1020.88683l.18457,2.56348c1.58594-1.98242,3.71191-2.97363,6.37793-2.97363,2.35156,0,4.10156.69043,5.25,2.07129s1.73633,3.44531,1.76367,6.19336v14.33496h-5.92676v-14.22363c0-1.26074-.27344-2.17578-.82031-2.74512-.54688-.56836-1.45605-.85254-2.72754-.85254-1.66797,0-2.91895.71289-3.75293,2.1377v15.68359h-5.92676v-22.18945h5.57812Z"/>
    <path class="cls-7" d="M254.97656,1036.94445c0-.72461-.3584-1.29492-1.07715-1.71191-.7168-.41699-1.86914-.79004-3.45508-1.11816-5.27734-1.10742-7.91602-3.34961-7.91602-6.72656,0-1.96875.81641-3.6123,2.45117-4.93262,1.63281-1.31836,3.76953-1.97852,6.4082-1.97852,2.81641,0,5.06836.66309,6.75781,1.98926,1.6875,1.32617,2.53223,3.04883,2.53223,5.16797h-5.92676c0-.84766-.27344-1.54785-.82031-2.10254-.54688-.55273-1.40137-.83008-2.56348-.83008-.99805,0-1.77051.22559-2.31738.67676s-.82031,1.02539-.82031,1.72266c0,.65625.31055,1.18652.93359,1.58887.62109.4043,1.6709.75293,3.14746,1.04688s2.7207.625,3.73242.99414c3.13086,1.14844,4.69629,3.1377,4.69629,5.96777,0,2.02344-.86816,3.66113-2.60449,4.91113-1.73633,1.25195-3.97852,1.87695-6.72656,1.87695-1.85938,0-3.51074-.33203-4.95215-.99414-1.44336-.66309-2.57422-1.57227-3.39453-2.72852-.82031-1.1543-1.23047-2.40234-1.23047-3.74219h5.61914c.05469,1.05273.44434,1.85938,1.16895,2.41992s1.69531.84082,2.91211.84082c1.13477,0,1.99219-.21582,2.57324-.64551.58105-.43164.87207-.99512.87207-1.69238Z"/>
    <path class="cls-7" d="M274.19238,1035.03723c0-1.38086.38574-2.65918,1.15918-3.83496.77148-1.17578,2.19043-2.48145,4.25488-3.91699-.88867-1.18945-1.58594-2.30664-2.0918-3.35352-.50586-1.04492-.75879-2.13574-.75879-3.27051,0-2.32422.73438-4.21387,2.20508-5.6709,1.46875-1.45508,3.44824-2.18359,5.93652-2.18359,2.22852,0,4.05664.66309,5.48535,1.98926s2.14355,2.98047,2.14355,4.96289c0,2.37891-1.20312,4.47754-3.60938,6.2959l-2.29688,1.66113,5.14746,5.98828c.80664-1.58594,1.20996-3.33594,1.20996-5.25h5.04492c0,3.88281-.89551,7.02734-2.68652,9.43359l4.4707,5.18848h-6.72656l-1.53809-1.76367c-2.20117,1.44922-4.73047,2.17383-7.58789,2.17383-2.95312,0-5.31836-.77539-7.0957-2.32812-1.77734-1.55078-2.66602-3.5918-2.66602-6.12109ZM284.24121,1038.70812c1.42188,0,2.76855-.39551,4.04004-1.18652l-5.88574-6.79102-.43066.30664c-1.2168,1.03711-1.8252,2.25684-1.8252,3.66211,0,1.18652.37988,2.15137,1.1377,2.89355.75977.74414,1.74707,1.11523,2.96387,1.11523ZM282.06738,1020.57922c0,1.02539.60156,2.31738,1.80469,3.87598l1.5791-1.0459c.80664-.51953,1.36328-1.02539,1.67188-1.51758.30664-.49219.46094-1.08008.46094-1.76367s-.25293-1.27832-.75879-1.78418-1.15527-.75879-1.94824-.75879c-.84766,0-1.52734.27344-2.04102.82031-.51172.54688-.76855,1.27148-.76855,2.17383Z"/>
    <path class="cls-7" d="M142.28662,1093.47668v-29.85938h10.4585c3.62305,0,6.37109.69434,8.24414,2.08203s2.80957,3.4209,2.80957,6.10059c0,1.46289-.37598,2.75195-1.12793,3.86621s-1.79785,1.93066-3.1377,2.4502c1.53125.38281,2.73828,1.15527,3.62012,2.31738s1.32227,2.58398,1.32227,4.26562c0,2.87109-.91602,5.04492-2.74805,6.52148s-4.44336,2.22852-7.83398,2.25586h-11.60693ZM148.43896,1076.12707h4.55225c3.10352-.05469,4.65527-1.29199,4.65527-3.71191,0-1.35352-.39258-2.32715-1.17871-2.92285-.78613-.59375-2.02734-.8916-3.72266-.8916h-4.30615v7.52637ZM148.43896,1080.47473v8.05957h5.27002c1.44922,0,2.58105-.34473,3.39453-1.03613.81348-.68945,1.21973-1.64355,1.21973-2.86035,0-2.73438-1.41504-4.12207-4.24512-4.16309h-5.63916Z"/>
    <path class="cls-7" d="M168.65918,1065.54504c0-.88867.29785-1.62012.89258-2.19434s1.4043-.86133,2.42969-.86133c1.01172,0,1.81836.28711,2.41992.86133s.90234,1.30566.90234,2.19434c0,.90234-.30371,1.64062-.91211,2.21484s-1.41211.86133-2.41016.86133-1.80078-.28711-2.40918-.86133-.91309-1.3125-.91309-2.21484ZM174.95508,1093.47668h-5.94727v-22.18945h5.94727v22.18945Z"/>
    <path class="cls-7" d="M178.91309,1082.17687c0-2.20117.42383-4.16309,1.27148-5.88574s2.06836-3.05566,3.66113-3.99902c1.5918-.94336,3.44141-1.41504,5.54688-1.41504,2.99414,0,5.4375.91602,7.33105,2.74805s2.9502,4.32031,3.16895,7.46484l.04102,1.51758c0,3.4043-.9502,6.13574-2.85059,8.19336s-4.4502,3.08594-7.64941,3.08594-5.75195-1.02539-7.65918-3.07617-2.86133-4.83984-2.86133-8.36719v-.2666ZM184.83984,1082.59777c0,2.1084.39648,3.7207,1.18945,4.83691s1.92773,1.67383,3.4043,1.67383c1.43555,0,2.55664-.55078,3.36328-1.65332s1.20996-2.86523,1.20996-5.28906c0-2.06738-.40332-3.66992-1.20996-4.80566-.80664-1.13672-1.94141-1.70508-3.4043-1.70508-1.44922,0-2.57031.56445-3.36328,1.69434s-1.18945,2.87891-1.18945,5.24805Z"/>
    <path class="cls-7" d="M216.44238,1093.47668c-.27344-.5332-.47168-1.19629-.59473-1.98926-1.43555,1.59961-3.30176,2.39941-5.59863,2.39941-2.17383,0-3.97559-.62891-5.4043-1.88672s-2.14258-2.84375-2.14258-4.75781c0-2.35156.87109-4.15625,2.61523-5.41406,1.74219-1.25781,4.26172-1.89355,7.55664-1.90723h2.72754v-1.27148c0-1.02539-.26367-1.8457-.79004-2.46094s-1.35645-.92285-2.49121-.92285c-.99805,0-1.78125.23926-2.34863.71777s-.85059,1.13477-.85059,1.96875h-5.92676c0-1.28516.39648-2.47461,1.18945-3.56836s1.91406-1.95117,3.36328-2.57324,3.07617-.93359,4.88086-.93359c2.73438,0,4.9043.6875,6.51172,2.06055,1.60547,1.375,2.40918,3.30566,2.40918,5.79395v9.61816c.01367,2.10547.30762,3.69824.88184,4.77832v.34863h-5.98828ZM211.54102,1089.35461c.875,0,1.68164-.19434,2.41992-.58496.73828-.38867,1.28516-.91211,1.64062-1.56836v-3.81445h-2.21484c-2.9668,0-4.5459,1.02539-4.7373,3.07617l-.02051.34863c0,.73828.25977,1.34668.7793,1.8252s1.23047.71777,2.13281.71777Z"/>
    <path class="cls-7" d="M235.33008,1089.10851c1.09375,0,1.98242-.30078,2.66602-.90234s1.03906-1.40137,1.06641-2.39941h5.55762c-.01367,1.50391-.42383,2.88086-1.23047,4.13281-.80664,1.25-1.91113,2.22168-3.3125,2.91211-1.40137.68945-2.94922,1.03516-4.64453,1.03516-3.17188,0-5.67383-1.00781-7.50586-3.02539-1.83203-2.01562-2.74805-4.80176-2.74805-8.35645v-.38965c0-3.41797.90918-6.14551,2.72754-8.18262s4.31348-3.05566,7.48535-3.05566c2.77539,0,5,.78906,6.67578,2.36914,1.67383,1.57812,2.52539,3.68066,2.55273,6.30566h-5.55762c-.02734-1.1543-.38281-2.09277-1.06641-2.81445s-1.58594-1.08203-2.70703-1.08203c-1.38086,0-2.42383.50293-3.12793,1.50977-.7041,1.00586-1.05566,2.63965-1.05566,4.89844v.61621c0,2.28711.34863,3.92969,1.0459,4.92969.69727.99902,1.75684,1.49902,3.17871,1.49902Z"/>
    <path class="cls-7" d="M255.09961,1065.83215v5.45508h3.79395v4.34766h-3.79395v11.07422c0,.82031.15723,1.4082.47168,1.76367s.91602.5332,1.80469.5332c.65625,0,1.2373-.04785,1.74316-.14355v4.49121c-1.16211.35547-2.3584.5332-3.58887.5332-4.15625,0-6.27539-2.09863-6.35742-6.2959v-11.95605h-3.24023v-4.34766h3.24023v-5.45508h5.92676Z"/>
    <path class="cls-7" d="M262.1543,1065.54504c0-.88867.29785-1.62012.8916-2.19434.5957-.57422,1.40527-.86133,2.43066-.86133,1.01172,0,1.81836.28711,2.41992.86133s.90234,1.30566.90234,2.19434c0,.90234-.30469,1.64062-.91309,2.21484s-1.41113.86133-2.40918.86133-1.80176-.28711-2.40918-.86133c-.60938-.57422-.91309-1.3125-.91309-2.21484ZM268.4502,1093.47668h-5.94727v-22.18945h5.94727v22.18945Z"/>
    <path class="cls-7" d="M281.63672,1086.23742l4.12207-14.9502h6.19336l-7.48535,22.18945h-5.66016l-7.48535-22.18945h6.19336l4.12207,14.9502Z"/>
    <path class="cls-7" d="M304.50293,1093.88683c-3.25391,0-5.90332-.99805-7.94629-2.99414-2.04492-1.99609-3.06641-4.65527-3.06641-7.97754v-.57422c0-2.22852.43066-4.2207,1.29199-5.97754s2.08105-3.11035,3.66113-4.06055c1.57812-.9502,3.37988-1.42578,5.40332-1.42578,3.03516,0,5.4248.95703,7.16699,2.87109,1.74414,1.91406,2.61523,4.62793,2.61523,8.1416v2.41992h-14.12988c.19141,1.44922.76855,2.61133,1.7334,3.48633.96289.875,2.18359,1.3125,3.66016,1.3125,2.2832,0,4.06738-.82715,5.35254-2.48145l2.91211,3.26074c-.88867,1.25781-2.0918,2.23926-3.60938,2.94238-1.51758.7041-3.19922,1.05664-5.04492,1.05664ZM303.82617,1075.65539c-1.17578,0-2.12988.39844-2.86133,1.19531-.73145.7959-1.19922,1.93555-1.4043,3.41895h8.24414v-.47363c-.02734-1.31836-.38281-2.33789-1.06641-3.05957-.68359-.7207-1.6543-1.08105-2.91211-1.08105Z"/>
    <path class="cls-7" d="M335.87988,1063.6173l7.66992,21.65625,7.62891-21.65625h8.08008v29.85938h-6.17285v-8.16211l.61523-14.08887-8.05957,22.25098h-4.22461l-8.03906-22.23047.61523,14.06836v8.16211h-6.15234v-29.85938h8.03906Z"/>
    <path class="cls-7" d="M363.31934,1082.17687c0-2.20117.42383-4.16309,1.27148-5.88574s2.06738-3.05566,3.66016-3.99902,3.44238-1.41504,5.54785-1.41504c2.99414,0,5.4375.91602,7.33105,2.74805s2.9502,4.32031,3.16895,7.46484l.04102,1.51758c0,3.4043-.9502,6.13574-2.85059,8.19336s-4.4502,3.08594-7.64941,3.08594-5.75293-1.02539-7.65918-3.07617c-1.9082-2.05078-2.86133-4.83984-2.86133-8.36719v-.2666ZM369.24609,1082.59777c0,2.1084.39648,3.7207,1.18945,4.83691s1.92773,1.67383,3.4043,1.67383c1.43555,0,2.55664-.55078,3.36328-1.65332s1.20996-2.86523,1.20996-5.28906c0-2.06738-.40332-3.66992-1.20996-4.80566-.80664-1.13672-1.94141-1.70508-3.4043-1.70508-1.44922,0-2.57031.56445-3.36328,1.69434s-1.18945,2.87891-1.18945,5.24805Z"/>
    <path class="cls-7" d="M394.24512,1093.47668h-5.94727v-31.5h5.94727v31.5Z"/>
    <path class="cls-7" d="M409.33887,1093.88683c-3.25391,0-5.90332-.99805-7.94629-2.99414-2.04492-1.99609-3.06641-4.65527-3.06641-7.97754v-.57422c0-2.22852.43066-4.2207,1.29199-5.97754s2.08105-3.11035,3.66113-4.06055c1.57812-.9502,3.37988-1.42578,5.40332-1.42578,3.03516,0,5.4248.95703,7.16699,2.87109,1.74414,1.91406,2.61523,4.62793,2.61523,8.1416v2.41992h-14.12988c.19141,1.44922.76855,2.61133,1.7334,3.48633.96289.875,2.18359,1.3125,3.66016,1.3125,2.2832,0,4.06738-.82715,5.35254-2.48145l2.91211,3.26074c-.88867,1.25781-2.0918,2.23926-3.60938,2.94238-1.51758.7041-3.19922,1.05664-5.04492,1.05664ZM408.66211,1075.65539c-1.17578,0-2.12988.39844-2.86133,1.19531-.73145.7959-1.19922,1.93555-1.4043,3.41895h8.24414v-.47363c-.02734-1.31836-.38281-2.33789-1.06641-3.05957-.68359-.7207-1.6543-1.08105-2.91211-1.08105Z"/>
    <path class="cls-7" d="M431.05664,1089.10851c1.09375,0,1.98242-.30078,2.66602-.90234s1.03906-1.40137,1.06641-2.39941h5.55762c-.01367,1.50391-.42383,2.88086-1.23047,4.13281-.80664,1.25-1.91113,2.22168-3.3125,2.91211-1.40137.68945-2.94922,1.03516-4.64453,1.03516-3.17188,0-5.67383-1.00781-7.50586-3.02539-1.83203-2.01562-2.74805-4.80176-2.74805-8.35645v-.38965c0-3.41797.90918-6.14551,2.72754-8.18262s4.31348-3.05566,7.48535-3.05566c2.77539,0,5,.78906,6.67578,2.36914,1.67383,1.57812,2.52539,3.68066,2.55273,6.30566h-5.55762c-.02734-1.1543-.38281-2.09277-1.06641-2.81445s-1.58594-1.08203-2.70703-1.08203c-1.38086,0-2.42383.50293-3.12793,1.50977-.7041,1.00586-1.05566,2.63965-1.05566,4.89844v.61621c0,2.28711.34863,3.92969,1.0459,4.92969.69727.99902,1.75684,1.49902,3.17871,1.49902Z"/>
    <path class="cls-7" d="M457.01953,1091.22082c-1.46289,1.77734-3.48633,2.66602-6.07031,2.66602-2.37891,0-4.19434-.68359-5.44434-2.05078-1.25195-1.36719-1.89062-3.37012-1.91797-6.00879v-14.54004h5.92676v14.35156c0,2.31348,1.05273,3.46973,3.1582,3.46973,2.00977,0,3.39062-.69824,4.14258-2.09473v-15.72656h5.94727v22.18945h-5.57812l-.16406-2.25586Z"/>
    <path class="cls-7" d="M473.4873,1093.47668h-5.94727v-31.5h5.94727v31.5Z"/>
    <path class="cls-7" d="M488.58105,1093.88683c-3.25391,0-5.90332-.99805-7.94629-2.99414-2.04492-1.99609-3.06641-4.65527-3.06641-7.97754v-.57422c0-2.22852.43066-4.2207,1.29199-5.97754s2.08105-3.11035,3.66113-4.06055c1.57812-.9502,3.37988-1.42578,5.40332-1.42578,3.03516,0,5.4248.95703,7.16699,2.87109,1.74414,1.91406,2.61523,4.62793,2.61523,8.1416v2.41992h-14.12988c.19141,1.44922.76855,2.61133,1.7334,3.48633.96289.875,2.18359,1.3125,3.66016,1.3125,2.2832,0,4.06738-.82715,5.35254-2.48145l2.91211,3.26074c-.88867,1.25781-2.0918,2.23926-3.60938,2.94238-1.51758.7041-3.19922,1.05664-5.04492,1.05664ZM487.9043,1075.65539c-1.17578,0-2.12988.39844-2.86133,1.19531-.73145.7959-1.19922,1.93555-1.4043,3.41895h8.24414v-.47363c-.02734-1.31836-.38281-2.33789-1.06641-3.05957-.68359-.7207-1.6543-1.08105-2.91211-1.08105Z"/>
    <path class="cls-7" d="M513.08789,1087.34484c0-.72461-.3584-1.29492-1.07715-1.71191-.7168-.41699-1.86914-.79004-3.45508-1.11816-5.27734-1.10742-7.91602-3.34961-7.91602-6.72656,0-1.96875.81641-3.6123,2.45117-4.93262,1.63281-1.31836,3.76953-1.97852,6.4082-1.97852,2.81641,0,5.06836.66309,6.75781,1.98926,1.6875,1.32617,2.53223,3.04883,2.53223,5.16797h-5.92676c0-.84766-.27344-1.54785-.82031-2.10254-.54688-.55273-1.40137-.83008-2.56348-.83008-.99805,0-1.77051.22559-2.31738.67676s-.82031,1.02539-.82031,1.72266c0,.65625.31055,1.18652.93359,1.58887.62109.4043,1.6709.75293,3.14746,1.04688s2.7207.625,3.73242.99414c3.13086,1.14844,4.69629,3.1377,4.69629,5.96777,0,2.02344-.86816,3.66113-2.60449,4.91113-1.73633,1.25195-3.97852,1.87695-6.72656,1.87695-1.85938,0-3.51074-.33203-4.95215-.99414-1.44336-.66309-2.57422-1.57227-3.39453-2.72852-.82031-1.1543-1.23047-2.40234-1.23047-3.74219h5.61914c.05469,1.05273.44434,1.85938,1.16895,2.41992s1.69531.84082,2.91211.84082c1.13477,0,1.99219-.21582,2.57324-.64551.58105-.43164.87207-.99512.87207-1.69238Z"/>
  </g>
  <g>
    <rect class="cls-1" x="1359.81991" y="1056.3207" width="727.91851" height="87.63003"/>
    <path class="cls-7" d="M1375.5,1079.82824h-5.60156v12.49219h-7.03125v-34.125h12.67969c4.03125,0,7.14062.89844,9.32812,2.69531s3.28125,4.33594,3.28125,7.61719c0,2.32812-.50391,4.26953-1.51172,5.82422s-2.53516,2.79297-4.58203,3.71484l7.38281,13.94531v.32812h-7.54688l-6.39844-12.49219ZM1369.89844,1074.13293h5.67188c1.76562,0,3.13281-.44922,4.10156-1.34766s1.45312-2.13672,1.45312-3.71484c0-1.60938-.45703-2.875-1.37109-3.79688s-2.31641-1.38281-4.20703-1.38281h-5.64844v10.24219Z"/>
    <path class="cls-7" d="M1407.75,1092.32043c-.3125-.60938-.53906-1.36719-.67969-2.27344-1.64062,1.82812-3.77344,2.74219-6.39844,2.74219-2.48438,0-4.54297-.71875-6.17578-2.15625s-2.44922-3.25-2.44922-5.4375c0-2.6875.99609-4.75,2.98828-6.1875s4.87109-2.16406,8.63672-2.17969h3.11719v-1.45312c0-1.17188-.30078-2.10938-.90234-2.8125s-1.55078-1.05469-2.84766-1.05469c-1.14062,0-2.03516.27344-2.68359.82031s-.97266,1.29688-.97266,2.25h-6.77344c0-1.46875.45312-2.82812,1.35938-4.07812s2.1875-2.23047,3.84375-2.94141,3.51562-1.06641,5.57812-1.06641c3.125,0,5.60547.78516,7.44141,2.35547s2.75391,3.77734,2.75391,6.62109v10.99219c.01562,2.40625.35156,4.22656,1.00781,5.46094v.39844h-6.84375ZM1402.14844,1087.60949c1,0,1.92188-.22266,2.76562-.66797s1.46875-1.04297,1.875-1.79297v-4.35938h-2.53125c-3.39062,0-5.19531,1.17188-5.41406,3.51562l-.02344.39844c0,.84375.29688,1.53906.89062,2.08594s1.40625.82031,2.4375.82031Z"/>
    <path class="cls-7" d="M1417.73438,1079.45324c0-3.95312.88672-7.10156,2.66016-9.44531s4.19922-3.51562,7.27734-3.51562c2.46875,0,4.50781.92188,6.11719,2.76562v-12.9375h6.79688v36h-6.11719l-.32812-2.69531c-1.6875,2.10938-3.85938,3.16406-6.51562,3.16406-2.98438,0-5.37891-1.17578-7.18359-3.52734s-2.70703-5.62109-2.70703-9.80859ZM1424.50781,1079.93566c0,2.38574.41406,4.21387,1.24219,5.48535s2.03125,1.90723,3.60938,1.90723c2.09375,0,3.57031-.88672,4.42969-2.66016v-10.05469c-.84375-1.77344-2.30469-2.66016-4.38281-2.66016-3.26562,0-4.89844,2.66113-4.89844,7.98242Z"/>
    <path class="cls-7" d="M1445.78906,1060.39855c0-1.01562.33984-1.85156,1.01953-2.50781s1.60547-.98438,2.77734-.98438c1.15625,0,2.07812.32812,2.76562.98438s1.03125,1.49219,1.03125,2.50781c0,1.03125-.34766,1.875-1.04297,2.53125s-1.61328.98438-2.75391.98438-2.05859-.32812-2.75391-.98438-1.04297-1.5-1.04297-2.53125ZM1452.98438,1092.32043h-6.79688v-25.35938h6.79688v25.35938Z"/>
    <path class="cls-7" d="M1457.50781,1079.40637c0-2.51562.48438-4.75781,1.45312-6.72656s2.36328-3.49219,4.18359-4.57031,3.93359-1.61719,6.33984-1.61719c3.42188,0,6.21484,1.04688,8.37891,3.14062s3.37109,4.9375,3.62109,8.53125l.04688,1.73438c0,3.89062-1.08594,7.01172-3.25781,9.36328s-5.08594,3.52734-8.74219,3.52734-6.57422-1.17188-8.75391-3.51562-3.26953-5.53125-3.26953-9.5625v-.30469ZM1464.28125,1079.88683c0,2.41016.45312,4.25293,1.35938,5.52832s2.20312,1.91309,3.89062,1.91309c1.64062,0,2.92188-.62988,3.84375-1.88965s1.38281-3.27441,1.38281-6.04395c0-2.36328-.46094-4.19434-1.38281-5.49316s-2.21875-1.94824-3.89062-1.94824c-1.65625,0-2.9375.64551-3.84375,1.93652s-1.35938,3.29004-1.35938,5.99707Z"/>
    <path class="cls-7" d="M1492.85156,1092.32043h-6.79688v-36h6.79688v36Z"/>
    <path class="cls-7" d="M1497.375,1079.40637c0-2.51562.48438-4.75781,1.45312-6.72656s2.36328-3.49219,4.18359-4.57031,3.93359-1.61719,6.33984-1.61719c3.42188,0,6.21484,1.04688,8.37891,3.14062s3.37109,4.9375,3.62109,8.53125l.04688,1.73438c0,3.89062-1.08594,7.01172-3.25781,9.36328s-5.08594,3.52734-8.74219,3.52734-6.57422-1.17188-8.75391-3.51562-3.26953-5.53125-3.26953-9.5625v-.30469ZM1504.14844,1079.88683c0,2.41016.45312,4.25293,1.35938,5.52832s2.20312,1.91309,3.89062,1.91309c1.64062,0,2.92188-.62988,3.84375-1.88965s1.38281-3.27441,1.38281-6.04395c0-2.36328-.46094-4.19434-1.38281-5.49316s-2.21875-1.94824-3.89062-1.94824c-1.65625,0-2.9375.64551-3.84375,1.93652s-1.35938,3.29004-1.35938,5.99707Z"/>
    <path class="cls-7" d="M1524.58594,1079.45324c0-3.89062.92578-7.02344,2.77734-9.39844s4.34766-3.5625,7.48828-3.5625c2.78125,0,4.94531.95312,6.49219,2.85938l.28125-2.39062h6.14062v24.51562c0,2.21875-.50391,4.14844-1.51172,5.78906s-2.42578,2.89062-4.25391,3.75-3.96875,1.28906-6.42188,1.28906c-1.85938,0-3.67188-.37109-5.4375-1.11328s-3.10156-1.69922-4.00781-2.87109l3-4.125c1.6875,1.89062,3.73438,2.83594,6.14062,2.83594,1.79688,0,3.19531-.48047,4.19531-1.44141s1.5-2.32422,1.5-4.08984v-1.35938c-1.5625,1.76562-3.61719,2.64844-6.16406,2.64844-3.04688,0-5.51172-1.19141-7.39453-3.57422s-2.82422-5.54297-2.82422-9.48047v-.28125ZM1531.35938,1079.93566c0,2.30664.46094,4.11621,1.38281,5.42676s2.1875,1.96582,3.79688,1.96582c2.0625,0,3.53906-.77637,4.42969-2.33105v-10.71289c-.90625-1.55371-2.36719-2.33105-4.38281-2.33105-1.625,0-2.90234.66699-3.83203,2.00098-.92969,1.33496-1.39453,3.32812-1.39453,5.98145Z"/>
    <path class="cls-7" d="M1552.92188,1060.39855c0-1.01562.33984-1.85156,1.01953-2.50781s1.60547-.98438,2.77734-.98438c1.15625,0,2.07812.32812,2.76562.98438s1.03125,1.49219,1.03125,2.50781c0,1.03125-.34766,1.875-1.04297,2.53125s-1.61328.98438-2.75391.98438-2.05859-.32812-2.75391-.98438-1.04297-1.5-1.04297-2.53125ZM1560.11719,1092.32043h-6.79688v-25.35938h6.79688v25.35938Z"/>
    <path class="cls-7" d="M1576.24219,1087.32824c1.25,0,2.26562-.34375,3.04688-1.03125s1.1875-1.60156,1.21875-2.74219h6.35156c-.01562,1.71875-.48438,3.29297-1.40625,4.72266s-2.18359,2.53906-3.78516,3.32812-3.37109,1.18359-5.30859,1.18359c-3.625,0-6.48438-1.15234-8.57812-3.45703s-3.14062-5.48828-3.14062-9.55078v-.44531c0-3.90625,1.03906-7.02344,3.11719-9.35156s4.92969-3.49219,8.55469-3.49219c3.17188,0,5.71484.90234,7.62891,2.70703s2.88672,4.20703,2.91797,7.20703h-6.35156c-.03125-1.31934-.4375-2.3916-1.21875-3.21582-.78125-.8252-1.8125-1.2373-3.09375-1.2373-1.57812,0-2.76953.5752-3.57422,1.72559-.80469,1.14941-1.20703,3.0166-1.20703,5.59766v.7041c0,2.61426.39844,4.49219,1.19531,5.63379.79688,1.14258,2.00781,1.71387,3.63281,1.71387Z"/>
    <path class="cls-7" d="M1605.42188,1092.32043c-.3125-.60938-.53906-1.36719-.67969-2.27344-1.64062,1.82812-3.77344,2.74219-6.39844,2.74219-2.48438,0-4.54297-.71875-6.17578-2.15625s-2.44922-3.25-2.44922-5.4375c0-2.6875.99609-4.75,2.98828-6.1875s4.87109-2.16406,8.63672-2.17969h3.11719v-1.45312c0-1.17188-.30078-2.10938-.90234-2.8125s-1.55078-1.05469-2.84766-1.05469c-1.14062,0-2.03516.27344-2.68359.82031s-.97266,1.29688-.97266,2.25h-6.77344c0-1.46875.45312-2.82812,1.35938-4.07812s2.1875-2.23047,3.84375-2.94141,3.51562-1.06641,5.57812-1.06641c3.125,0,5.60547.78516,7.44141,2.35547s2.75391,3.77734,2.75391,6.62109v10.99219c.01562,2.40625.35156,4.22656,1.00781,5.46094v.39844h-6.84375ZM1599.82031,1087.60949c1,0,1.92188-.22266,2.76562-.66797s1.46875-1.04297,1.875-1.79297v-4.35938h-2.53125c-3.39062,0-5.19531,1.17188-5.41406,3.51562l-.02344.39844c0,.84375.29688,1.53906.89062,2.08594s1.40625.82031,2.4375.82031Z"/>
    <path class="cls-7" d="M1623.60938,1092.32043h-6.79688v-36h6.79688v36Z"/>
    <path class="cls-7" d="M1642.92188,1085.31262c0-.82812-.41016-1.48047-1.23047-1.95703s-2.13672-.90234-3.94922-1.27734c-6.03125-1.26562-9.04688-3.82812-9.04688-7.6875,0-2.25.93359-4.12891,2.80078-5.63672s4.30859-2.26172,7.32422-2.26172c3.21875,0,5.79297.75781,7.72266,2.27344s2.89453,3.48438,2.89453,5.90625h-6.77344c0-.96875-.3125-1.76953-.9375-2.40234s-1.60156-.94922-2.92969-.94922c-1.14062,0-2.02344.25781-2.64844.77344s-.9375,1.17188-.9375,1.96875c0,.75.35547,1.35547,1.06641,1.81641s1.91016.85938,3.59766,1.19531,3.10938.71484,4.26562,1.13672c3.57812,1.3125,5.36719,3.58594,5.36719,6.82031,0,2.3125-.99219,4.18359-2.97656,5.61328s-4.54688,2.14453-7.6875,2.14453c-2.125,0-4.01172-.37891-5.66016-1.13672s-2.94141-1.79688-3.87891-3.11719-1.40625-2.74609-1.40625-4.27734h6.42188c.0625,1.20312.50781,2.125,1.33594,2.76562s1.9375.96094,3.32812.96094c1.29688,0,2.27734-.24609,2.94141-.73828s.99609-1.13672.99609-1.93359Z"/>
  </g>
  <g>
    <rect class="cls-1" x="760.12486" y="114.34222" width="427.91851" height="87.63003"/>
    <path class="cls-7" d="M789.96094,138.97473c-.26562,3.67188-1.62109,6.5625-4.06641,8.67188s-5.66797,3.16406-9.66797,3.16406c-4.375,0-7.81641-1.47266-10.32422-4.41797s-3.76172-6.98828-3.76172-12.12891v-2.08594c0-3.28125.57812-6.17188,1.73438-8.67188s2.80859-4.41797,4.95703-5.75391,4.64453-2.00391,7.48828-2.00391c3.9375,0,7.10938,1.05469,9.51562,3.16406s3.79688,5.07031,4.17188,8.88281h-7.03125c-.17188-2.20312-.78516-3.80078-1.83984-4.79297s-2.66016-1.48828-4.81641-1.48828c-2.34375,0-4.09766.83984-5.26172,2.51953s-1.76172,4.28516-1.79297,7.81641v2.57812c0,3.6875.55859,6.38281,1.67578,8.08594s2.87891,2.55469,5.28516,2.55469c2.17188,0,3.79297-.49609,4.86328-1.48828s1.68359-2.52734,1.83984-4.60547h7.03125Z"/>
    <path class="cls-7" d="M800.74219,127.74816c1.79688-2.15625,4.05469-3.23438,6.77344-3.23438,5.5,0,8.28906,3.19531,8.36719,9.58594v16.24219h-6.77344v-16.0918c0-1.45605-.3125-2.5332-.9375-3.22949-.625-.69727-1.66406-1.0459-3.11719-1.0459-1.98438,0-3.42188.76758-4.3125,2.30176v18.06543h-6.77344v-36h6.77344v13.40625Z"/>
    <path class="cls-7" d="M832.66406,150.81066c-3.71875,0-6.74609-1.14062-9.08203-3.42188s-3.50391-5.32031-3.50391-9.11719v-.65625c0-2.54688.49219-4.82422,1.47656-6.83203s2.37891-3.55469,4.18359-4.64062,3.86328-1.62891,6.17578-1.62891c3.46875,0,6.19922,1.09375,8.19141,3.28125s2.98828,5.28906,2.98828,9.30469v2.76562h-16.14844c.21875,1.65625.87891,2.98438,1.98047,3.98438s2.49609,1.5,4.18359,1.5c2.60938,0,4.64844-.94531,6.11719-2.83594l3.32812,3.72656c-1.01562,1.4375-2.39062,2.55859-4.125,3.36328s-3.65625,1.20703-5.76562,1.20703ZM831.89062,129.97473c-1.34375,0-2.43359.45508-3.26953,1.36523-.83594.91113-1.37109,2.21289-1.60547,3.9082h9.42188v-.54199c-.03125-1.50586-.4375-2.67188-1.21875-3.49512-.78125-.82422-1.89062-1.23633-3.32812-1.23633Z"/>
    <path class="cls-7" d="M853.28906,124.98254l.21094,2.83594c1.79688-2.20312,4.22656-3.30469,7.28906-3.30469,3.26562,0,5.50781,1.28906,6.72656,3.86719,1.78125-2.57812,4.32031-3.86719,7.61719-3.86719,2.75,0,4.79688.80078,6.14062,2.40234s2.01562,4.01172,2.01562,7.23047v16.19531h-6.79688v-16.20898c0-1.44141-.28125-2.49414-.84375-3.15918-.5625-.66602-1.55469-.99902-2.97656-.99902-2.03125,0-3.4375.9707-4.21875,2.91309l.02344,17.4541h-6.77344v-16.18555c0-1.47266-.28906-2.53711-.86719-3.19531-.57812-.65723-1.5625-.98633-2.95312-.98633-1.92188,0-3.3125.79883-4.17188,2.39648v17.9707h-6.77344v-25.35938h6.35156Z"/>
    <path class="cls-7" d="M888.44531,118.42004c0-1.01562.33984-1.85156,1.01953-2.50781s1.60547-.98438,2.77734-.98438c1.15625,0,2.07812.32812,2.76562.98438s1.03125,1.49219,1.03125,2.50781c0,1.03125-.34766,1.875-1.04297,2.53125s-1.61328.98438-2.75391.98438-2.05859-.32812-2.75391-.98438-1.04297-1.5-1.04297-2.53125ZM895.64062,150.34191h-6.79688v-25.35938h6.79688v25.35938Z"/>
    <path class="cls-7" d="M911.76562,145.34973c1.25,0,2.26562-.34375,3.04688-1.03125s1.1875-1.60156,1.21875-2.74219h6.35156c-.01562,1.71875-.48438,3.29297-1.40625,4.72266s-2.18359,2.53906-3.78516,3.32812-3.37109,1.18359-5.30859,1.18359c-3.625,0-6.48438-1.15234-8.57812-3.45703s-3.14062-5.48828-3.14062-9.55078v-.44531c0-3.90625,1.03906-7.02344,3.11719-9.35156s4.92969-3.49219,8.55469-3.49219c3.17188,0,5.71484.90234,7.62891,2.70703s2.88672,4.20703,2.91797,7.20703h-6.35156c-.03125-1.31934-.4375-2.3916-1.21875-3.21582-.78125-.8252-1.8125-1.2373-3.09375-1.2373-1.57812,0-2.76953.5752-3.57422,1.72559-.80469,1.14941-1.20703,3.0166-1.20703,5.59766v.7041c0,2.61426.39844,4.49219,1.19531,5.63379.79688,1.14258,2.00781,1.71387,3.63281,1.71387Z"/>
    <path class="cls-7" d="M940.94531,150.34191c-.3125-.60938-.53906-1.36719-.67969-2.27344-1.64062,1.82812-3.77344,2.74219-6.39844,2.74219-2.48438,0-4.54297-.71875-6.17578-2.15625s-2.44922-3.25-2.44922-5.4375c0-2.6875.99609-4.75,2.98828-6.1875s4.87109-2.16406,8.63672-2.17969h3.11719v-1.45312c0-1.17188-.30078-2.10938-.90234-2.8125s-1.55078-1.05469-2.84766-1.05469c-1.14062,0-2.03516.27344-2.68359.82031s-.97266,1.29688-.97266,2.25h-6.77344c0-1.46875.45312-2.82812,1.35938-4.07812s2.1875-2.23047,3.84375-2.94141,3.51562-1.06641,5.57812-1.06641c3.125,0,5.60547.78516,7.44141,2.35547s2.75391,3.77734,2.75391,6.62109v10.99219c.01562,2.40625.35156,4.22656,1.00781,5.46094v.39844h-6.84375ZM935.34375,145.63098c1,0,1.92188-.22266,2.76562-.66797s1.46875-1.04297,1.875-1.79297v-4.35938h-2.53125c-3.39062,0-5.19531,1.17188-5.41406,3.51562l-.02344.39844c0,.84375.29688,1.53906.89062,2.08594s1.40625.82031,2.4375.82031Z"/>
    <path class="cls-7" d="M959.13281,150.34191h-6.79688v-36h6.79688v36Z"/>
    <path class="cls-7" d="M1003.6875,140.49816l4.59375-24.28125h7.00781l-7.57031,34.125h-7.07812l-5.55469-22.82812-5.55469,22.82812h-7.07812l-7.57031-34.125h7.00781l4.61719,24.23438,5.625-24.23438h5.95312l5.60156,24.28125Z"/>
    <path class="cls-7" d="M1029.58594,150.81066c-3.71875,0-6.74609-1.14062-9.08203-3.42188s-3.50391-5.32031-3.50391-9.11719v-.65625c0-2.54688.49219-4.82422,1.47656-6.83203s2.37891-3.55469,4.18359-4.64062,3.86328-1.62891,6.17578-1.62891c3.46875,0,6.19922,1.09375,8.19141,3.28125s2.98828,5.28906,2.98828,9.30469v2.76562h-16.14844c.21875,1.65625.87891,2.98438,1.98047,3.98438s2.49609,1.5,4.18359,1.5c2.60938,0,4.64844-.94531,6.11719-2.83594l3.32812,3.72656c-1.01562,1.4375-2.39062,2.55859-4.125,3.36328s-3.65625,1.20703-5.76562,1.20703ZM1028.8125,129.97473c-1.34375,0-2.43359.45508-3.26953,1.36523-.83594.91113-1.37109,2.21289-1.60547,3.9082h9.42188v-.54199c-.03125-1.50586-.4375-2.67188-1.21875-3.49512-.78125-.82422-1.89062-1.23633-3.32812-1.23633Z"/>
    <path class="cls-7" d="M1058.55469,150.34191c-.3125-.60938-.53906-1.36719-.67969-2.27344-1.64062,1.82812-3.77344,2.74219-6.39844,2.74219-2.48438,0-4.54297-.71875-6.17578-2.15625s-2.44922-3.25-2.44922-5.4375c0-2.6875.99609-4.75,2.98828-6.1875s4.87109-2.16406,8.63672-2.17969h3.11719v-1.45312c0-1.17188-.30078-2.10938-.90234-2.8125s-1.55078-1.05469-2.84766-1.05469c-1.14062,0-2.03516.27344-2.68359.82031s-.97266,1.29688-.97266,2.25h-6.77344c0-1.46875.45312-2.82812,1.35938-4.07812s2.1875-2.23047,3.84375-2.94141,3.51562-1.06641,5.57812-1.06641c3.125,0,5.60547.78516,7.44141,2.35547s2.75391,3.77734,2.75391,6.62109v10.99219c.01562,2.40625.35156,4.22656,1.00781,5.46094v.39844h-6.84375ZM1052.95312,145.63098c1,0,1.92188-.22266,2.76562-.66797s1.46875-1.04297,1.875-1.79297v-4.35938h-2.53125c-3.39062,0-5.19531,1.17188-5.41406,3.51562l-.02344.39844c0,.84375.29688,1.53906.89062,2.08594s1.40625.82031,2.4375.82031Z"/>
    <path class="cls-7" d="M1092.42188,137.8966c0,3.90625-.88672,7.03516-2.66016,9.38672s-4.16797,3.52734-7.18359,3.52734c-2.5625,0-4.63281-.89062-6.21094-2.67188v11.95312h-6.77344v-35.10938h6.28125l.23438,2.48438c1.64062-1.96875,3.78125-2.95312,6.42188-2.95312,3.125,0,5.55469,1.15625,7.28906,3.46875s2.60156,5.5,2.60156,9.5625v.35156ZM1085.64844,137.38c0-2.36621-.41797-4.19238-1.25391-5.47754s-2.05078-1.92773-3.64453-1.92773c-2.125,0-3.58594.81543-4.38281,2.44531v10.41406c.82812,1.67773,2.30469,2.51562,4.42969,2.51562,3.23438,0,4.85156-2.65625,4.85156-7.96973Z"/>
    <path class="cls-7" d="M1095.5625,137.42785c0-2.51562.48438-4.75781,1.45312-6.72656s2.36328-3.49219,4.18359-4.57031,3.93359-1.61719,6.33984-1.61719c3.42188,0,6.21484,1.04688,8.37891,3.14062s3.37109,4.9375,3.62109,8.53125l.04688,1.73438c0,3.89062-1.08594,7.01172-3.25781,9.36328s-5.08594,3.52734-8.74219,3.52734-6.57422-1.17188-8.75391-3.51562-3.26953-5.53125-3.26953-9.5625v-.30469ZM1102.33594,137.90832c0,2.41016.45312,4.25293,1.35938,5.52832s2.20312,1.91309,3.89062,1.91309c1.64062,0,2.92188-.62988,3.84375-1.88965s1.38281-3.27441,1.38281-6.04395c0-2.36328-.46094-4.19434-1.38281-5.49316s-2.21875-1.94824-3.89062-1.94824c-1.65625,0-2.9375.64551-3.84375,1.93652s-1.35938,3.29004-1.35938,5.99707Z"/>
    <path class="cls-7" d="M1129.99219,124.98254l.21094,2.92969c1.8125-2.26562,4.24219-3.39844,7.28906-3.39844,2.6875,0,4.6875.78906,6,2.36719s1.98438,3.9375,2.01562,7.07812v16.38281h-6.77344v-16.25586c0-1.44141-.3125-2.48633-.9375-3.13672-.625-.64941-1.66406-.97461-3.11719-.97461-1.90625,0-3.33594.81445-4.28906,2.44336v17.92383h-6.77344v-25.35938h6.375Z"/>
    <path class="cls-7" d="M1164.375,143.3341c0-.82812-.41016-1.48047-1.23047-1.95703s-2.13672-.90234-3.94922-1.27734c-6.03125-1.26562-9.04688-3.82812-9.04688-7.6875,0-2.25.93359-4.12891,2.80078-5.63672s4.30859-2.26172,7.32422-2.26172c3.21875,0,5.79297.75781,7.72266,2.27344s2.89453,3.48438,2.89453,5.90625h-6.77344c0-.96875-.3125-1.76953-.9375-2.40234s-1.60156-.94922-2.92969-.94922c-1.14062,0-2.02344.25781-2.64844.77344s-.9375,1.17188-.9375,1.96875c0,.75.35547,1.35547,1.06641,1.81641s1.91016.85938,3.59766,1.19531,3.10938.71484,4.26562,1.13672c3.57812,1.3125,5.36719,3.58594,5.36719,6.82031,0,2.3125-.99219,4.18359-2.97656,5.61328s-4.54688,2.14453-7.6875,2.14453c-2.125,0-4.01172-.37891-5.66016-1.13672s-2.94141-1.79688-3.87891-3.11719-1.40625-2.74609-1.40625-4.27734h6.42188c.0625,1.20312.50781,2.125,1.33594,2.76562s1.9375.96094,3.32812.96094c1.29688,0,2.27734-.24609,2.94141-.73828s.99609-1.13672.99609-1.93359Z"/>
  </g>
  <g>
    <rect class="cls-1" x="1302.60688" y="114.34222" width="427.91851" height="87.63003"/>
    <path class="cls-7" d="M1333.4043,150.34191h-7.03125l-13.6875-22.45312v22.45312h-7.03125v-34.125h7.03125l13.71094,22.5v-22.5h7.00781v34.125Z"/>
    <path class="cls-7" d="M1354.28711,147.76379c-1.67188,2.03125-3.98438,3.04688-6.9375,3.04688-2.71875,0-4.79297-.78125-6.22266-2.34375s-2.16016-3.85156-2.19141-6.86719v-16.61719h6.77344v16.40234c0,2.64355,1.20312,3.96484,3.60938,3.96484,2.29688,0,3.875-.79785,4.73438-2.39355v-17.97363h6.79688v25.35938h-6.375l-.1875-2.57812Z"/>
    <path class="cls-7" d="M1376.50586,145.34973c1.25,0,2.26562-.34375,3.04688-1.03125s1.1875-1.60156,1.21875-2.74219h6.35156c-.01562,1.71875-.48438,3.29297-1.40625,4.72266s-2.18359,2.53906-3.78516,3.32812-3.37109,1.18359-5.30859,1.18359c-3.625,0-6.48438-1.15234-8.57812-3.45703s-3.14062-5.48828-3.14062-9.55078v-.44531c0-3.90625,1.03906-7.02344,3.11719-9.35156s4.92969-3.49219,8.55469-3.49219c3.17188,0,5.71484.90234,7.62891,2.70703s2.88672,4.20703,2.91797,7.20703h-6.35156c-.03125-1.31934-.4375-2.3916-1.21875-3.21582-.78125-.8252-1.8125-1.2373-3.09375-1.2373-1.57812,0-2.76953.5752-3.57422,1.72559-.80469,1.14941-1.20703,3.0166-1.20703,5.59766v.7041c0,2.61426.39844,4.49219,1.19531,5.63379.79688,1.14258,2.00781,1.71387,3.63281,1.71387Z"/>
    <path class="cls-7" d="M1398.13867,150.34191h-6.79688v-36h6.79688v36Z"/>
    <path class="cls-7" d="M1415.38867,150.81066c-3.71875,0-6.74609-1.14062-9.08203-3.42188s-3.50391-5.32031-3.50391-9.11719v-.65625c0-2.54688.49219-4.82422,1.47656-6.83203s2.37891-3.55469,4.18359-4.64062,3.86328-1.62891,6.17578-1.62891c3.46875,0,6.19922,1.09375,8.19141,3.28125s2.98828,5.28906,2.98828,9.30469v2.76562h-16.14844c.21875,1.65625.87891,2.98438,1.98047,3.98438s2.49609,1.5,4.18359,1.5c2.60938,0,4.64844-.94531,6.11719-2.83594l3.32812,3.72656c-1.01562,1.4375-2.39062,2.55859-4.125,3.36328s-3.65625,1.20703-5.76562,1.20703ZM1414.61523,129.97473c-1.34375,0-2.43359.45508-3.26953,1.36523-.83594.91113-1.37109,2.21289-1.60547,3.9082h9.42188v-.54199c-.03125-1.50586-.4375-2.67188-1.21875-3.49512-.78125-.82422-1.89062-1.23633-3.32812-1.23633Z"/>
    <path class="cls-7" d="M1444.35742,150.34191c-.3125-.60938-.53906-1.36719-.67969-2.27344-1.64062,1.82812-3.77344,2.74219-6.39844,2.74219-2.48438,0-4.54297-.71875-6.17578-2.15625s-2.44922-3.25-2.44922-5.4375c0-2.6875.99609-4.75,2.98828-6.1875s4.87109-2.16406,8.63672-2.17969h3.11719v-1.45312c0-1.17188-.30078-2.10938-.90234-2.8125s-1.55078-1.05469-2.84766-1.05469c-1.14062,0-2.03516.27344-2.68359.82031s-.97266,1.29688-.97266,2.25h-6.77344c0-1.46875.45312-2.82812,1.35938-4.07812s2.1875-2.23047,3.84375-2.94141,3.51562-1.06641,5.57812-1.06641c3.125,0,5.60547.78516,7.44141,2.35547s2.75391,3.77734,2.75391,6.62109v10.99219c.01562,2.40625.35156,4.22656,1.00781,5.46094v.39844h-6.84375ZM1438.75586,145.63098c1,0,1.92188-.22266,2.76562-.66797s1.46875-1.04297,1.875-1.79297v-4.35938h-2.53125c-3.39062,0-5.19531,1.17188-5.41406,3.51562l-.02344.39844c0,.84375.29688,1.53906.89062,2.08594s1.40625.82031,2.4375.82031Z"/>
    <path class="cls-7" d="M1469.64648,131.3341c-.92188-.125-1.73438-.1875-2.4375-.1875-2.5625,0-4.24219.86719-5.03906,2.60156v16.59375h-6.77344v-25.35938h6.39844l.1875,3.02344c1.35938-2.32812,3.24219-3.49219,5.64844-3.49219.75,0,1.45312.10156,2.10938.30469l-.09375,6.51562Z"/>
    <path class="cls-7" d="M1511.88086,140.49816l4.59375-24.28125h7.00781l-7.57031,34.125h-7.07812l-5.55469-22.82812-5.55469,22.82812h-7.07812l-7.57031-34.125h7.00781l4.61719,24.23438,5.625-24.23438h5.95312l5.60156,24.28125Z"/>
    <path class="cls-7" d="M1537.7793,150.81066c-3.71875,0-6.74609-1.14062-9.08203-3.42188s-3.50391-5.32031-3.50391-9.11719v-.65625c0-2.54688.49219-4.82422,1.47656-6.83203s2.37891-3.55469,4.18359-4.64062,3.86328-1.62891,6.17578-1.62891c3.46875,0,6.19922,1.09375,8.19141,3.28125s2.98828,5.28906,2.98828,9.30469v2.76562h-16.14844c.21875,1.65625.87891,2.98438,1.98047,3.98438s2.49609,1.5,4.18359,1.5c2.60938,0,4.64844-.94531,6.11719-2.83594l3.32812,3.72656c-1.01562,1.4375-2.39062,2.55859-4.125,3.36328s-3.65625,1.20703-5.76562,1.20703ZM1537.00586,129.97473c-1.34375,0-2.43359.45508-3.26953,1.36523-.83594.91113-1.37109,2.21289-1.60547,3.9082h9.42188v-.54199c-.03125-1.50586-.4375-2.67188-1.21875-3.49512-.78125-.82422-1.89062-1.23633-3.32812-1.23633Z"/>
    <path class="cls-7" d="M1566.74805,150.34191c-.3125-.60938-.53906-1.36719-.67969-2.27344-1.64062,1.82812-3.77344,2.74219-6.39844,2.74219-2.48438,0-4.54297-.71875-6.17578-2.15625s-2.44922-3.25-2.44922-5.4375c0-2.6875.99609-4.75,2.98828-6.1875s4.87109-2.16406,8.63672-2.17969h3.11719v-1.45312c0-1.17188-.30078-2.10938-.90234-2.8125s-1.55078-1.05469-2.84766-1.05469c-1.14062,0-2.03516.27344-2.68359.82031s-.97266,1.29688-.97266,2.25h-6.77344c0-1.46875.45312-2.82812,1.35938-4.07812s2.1875-2.23047,3.84375-2.94141,3.51562-1.06641,5.57812-1.06641c3.125,0,5.60547.78516,7.44141,2.35547s2.75391,3.77734,2.75391,6.62109v10.99219c.01562,2.40625.35156,4.22656,1.00781,5.46094v.39844h-6.84375ZM1561.14648,145.63098c1,0,1.92188-.22266,2.76562-.66797s1.46875-1.04297,1.875-1.79297v-4.35938h-2.53125c-3.39062,0-5.19531,1.17188-5.41406,3.51562l-.02344.39844c0,.84375.29688,1.53906.89062,2.08594s1.40625.82031,2.4375.82031Z"/>
    <path class="cls-7" d="M1600.61523,137.8966c0,3.90625-.88672,7.03516-2.66016,9.38672s-4.16797,3.52734-7.18359,3.52734c-2.5625,0-4.63281-.89062-6.21094-2.67188v11.95312h-6.77344v-35.10938h6.28125l.23438,2.48438c1.64062-1.96875,3.78125-2.95312,6.42188-2.95312,3.125,0,5.55469,1.15625,7.28906,3.46875s2.60156,5.5,2.60156,9.5625v.35156ZM1593.8418,137.38c0-2.36621-.41797-4.19238-1.25391-5.47754s-2.05078-1.92773-3.64453-1.92773c-2.125,0-3.58594.81543-4.38281,2.44531v10.41406c.82812,1.67773,2.30469,2.51562,4.42969,2.51562,3.23438,0,4.85156-2.65625,4.85156-7.96973Z"/>
    <path class="cls-7" d="M1603.75586,137.42785c0-2.51562.48438-4.75781,1.45312-6.72656s2.36328-3.49219,4.18359-4.57031,3.93359-1.61719,6.33984-1.61719c3.42188,0,6.21484,1.04688,8.37891,3.14062s3.37109,4.9375,3.62109,8.53125l.04688,1.73438c0,3.89062-1.08594,7.01172-3.25781,9.36328s-5.08594,3.52734-8.74219,3.52734-6.57422-1.17188-8.75391-3.51562-3.26953-5.53125-3.26953-9.5625v-.30469ZM1610.5293,137.90832c0,2.41016.45312,4.25293,1.35938,5.52832s2.20312,1.91309,3.89062,1.91309c1.64062,0,2.92188-.62988,3.84375-1.88965s1.38281-3.27441,1.38281-6.04395c0-2.36328-.46094-4.19434-1.38281-5.49316s-2.21875-1.94824-3.89062-1.94824c-1.65625,0-2.9375.64551-3.84375,1.93652s-1.35938,3.29004-1.35938,5.99707Z"/>
    <path class="cls-7" d="M1638.18555,124.98254l.21094,2.92969c1.8125-2.26562,4.24219-3.39844,7.28906-3.39844,2.6875,0,4.6875.78906,6,2.36719s1.98438,3.9375,2.01562,7.07812v16.38281h-6.77344v-16.25586c0-1.44141-.3125-2.48633-.9375-3.13672-.625-.64941-1.66406-.97461-3.11719-.97461-1.90625,0-3.33594.81445-4.28906,2.44336v17.92383h-6.77344v-25.35938h6.375Z"/>
    <path class="cls-7" d="M1672.56836,143.3341c0-.82812-.41016-1.48047-1.23047-1.95703s-2.13672-.90234-3.94922-1.27734c-6.03125-1.26562-9.04688-3.82812-9.04688-7.6875,0-2.25.93359-4.12891,2.80078-5.63672s4.30859-2.26172,7.32422-2.26172c3.21875,0,5.79297.75781,7.72266,2.27344s2.89453,3.48438,2.89453,5.90625h-6.77344c0-.96875-.3125-1.76953-.9375-2.40234s-1.60156-.94922-2.92969-.94922c-1.14062,0-2.02344.25781-2.64844.77344s-.9375,1.17188-.9375,1.96875c0,.75.35547,1.35547,1.06641,1.81641s1.91016.85938,3.59766,1.19531,3.10938.71484,4.26562,1.13672c3.57812,1.3125,5.36719,3.58594,5.36719,6.82031,0,2.3125-.99219,4.18359-2.97656,5.61328s-4.54688,2.14453-7.6875,2.14453c-2.125,0-4.01172-.37891-5.66016-1.13672s-2.94141-1.79688-3.87891-3.11719-1.40625-2.74609-1.40625-4.27734h6.42188c.0625,1.20312.50781,2.125,1.33594,2.76562s1.9375.96094,3.32812.96094c1.29688,0,2.27734-.24609,2.94141-.73828s.99609-1.13672.99609-1.93359Z"/>
  </g>
  <path class="cls-4" d="M735.75318,571.30126v300.6171"/>
  <path class="cls-2" d="M1164.06604,571.30126v300.6171"/>
  <g>
    <path class="cls-8" d="M755.31892,970.08783c-6.91567,0-14.52176-8.1824-14.52176-14.57627,0-6.39784,7.6061-8.58667,14.52176-8.58667,6.91853,0,12.52656,5.18221,12.52656,11.57948,0,6.39784-5.60802,11.58346-12.52656,11.58346M734.16425,987.56948h0c-4.77794,0-7.76678-5.17142-5.37639-9.31003l3.22504-5.58988c.95786-1.65227,3.34544-1.65227,4.30384,0l3.22447,5.58988c2.39096,4.13861-.59845,9.31003-5.37696,9.31003M713.01071,970.08783c-6.91907,0-12.52712-5.18561-12.52712-11.58346,0-6.39728,5.60805-11.57948,12.52712-11.57948,6.91567,0,14.5212,2.18883,14.5212,8.58667,0,6.39387-7.60553,14.57627-14.5212,14.57627M734.16425,897.6465c-26.07456,0-47.2105,21.13594-47.2105,47.21107v11.07642c0,13.71323,7.90703,25.57207,19.40588,31.28232v12.36928c0,4.63486,3.76103,8.39589,8.39589,8.39589h38.81858c4.63486,0,8.39589-3.76103,8.39589-8.39589v-12.36928c11.49832-5.71025,19.40532-17.56909,19.40532-31.28232v-11.07642c0-26.07513-21.13537-47.21107-47.21107-47.21107"/>
    <path class="cls-8" d="M798.69969,1013.68378c2.74072,3.57593,7.06954,5.70968,11.57721,5.70968,8.04841,0,14.59728-6.54888,14.59728-14.59728,0-7.04342-5.01017-13.0722-11.91789-14.33326l-1.58867-.29014-.26573-1.59435c-.7421-4.53323-4.62234-7.82413-9.22089-7.82413-5.15723,0-9.34978,4.19255-9.34978,9.34694,0,1.15999.20838,2.28649.624,3.3545l.75005,1.93332-132.33793,67.42548-1.13331-1.6886c-1.73232-2.5823-4.62975-4.12101-7.74634-4.12101-5.15439,0-9.34694,4.19255-9.34694,9.34978,0,2.7833,1.2162,5.39059,3.33917,7.15527l1.24119,1.03281-.55246,1.51713c-.58085,1.59946-.87494,3.27784-.87494,4.98859,0,8.04784,6.54488,14.59331,14.58988,14.59331,8.04786,0,14.59671-6.54547,14.59671-14.59331,0-1.47739-.22257-2.92638-.65636-4.30725l-.58425-1.85383,123.0983-62.72078,1.1617,1.51713Z"/>
    <g>
      <path class="cls-8" d="M657.9335,1018.96195c5.38037,0,10.06238-3.00076,12.45728-7.42611l40.38057,20.5761,17.33232-8.83139-54.64285-27.84152c1.11684-1.48761,1.78853-3.33122,1.78853-5.33665,0-4.92443-3.99155-8.91655-8.92053-8.91655-4.92498,0-8.91712,3.99212-8.91712,8.91655,0,.18737.01874.37133.02953.5587-7.59474.26062-13.67235,6.48188-13.67235,14.13908,0,7.82299,6.3422,14.16179,14.16463,14.16179Z"/>
      <path class="cls-8" d="M815.5227,1057.43191c-3.93304,0-7.26429,2.55221-8.4504,6.08499l-49.63266-25.28874-17.33348,8.83082,54.34703,27.69219c-.94366,1.89869-1.49101,4.033-1.49101,6.29848,0,7.81902,6.34277,14.16179,14.16519,14.16179,7.81845,0,14.16122-6.34277,14.16122-14.16179,0-2.44944-.62116-4.75182-1.71529-6.76123,2.88664-1.47625,4.86992-4.47304,4.86992-7.93598,0-4.925-3.99553-8.92053-8.92053-8.92053Z"/>
    </g>
  </g>
</svg>