<?xml version="1.0" encoding="UTF-8"?>
<svg id="Ebene_2" data-name="Ebene 2" xmlns="http://www.w3.org/2000/svg" viewBox="0 0 1920 414.28571">
  <defs>
    <style>
      .cls-1, .cls-2 {
        fill: none;
      }

      .cls-3 {
        stroke-width: 1.82211px;
      }

      .cls-3, .cls-4, .cls-5, .cls-6 {
        fill: #0d435c;
      }

      .cls-3, .cls-4, .cls-2, .cls-7, .cls-8, .cls-9, .cls-10, .cls-11, .cls-6 {
        stroke-miterlimit: 10;
      }

      .cls-3, .cls-8, .cls-9, .cls-10, .cls-11 {
        stroke: #0d435c;
      }

      .cls-4 {
        stroke: #f3f5f7;
        stroke-width: 4.82012px;
      }

      .cls-12, .cls-7, .cls-8, .cls-9, .cls-10 {
        fill: #fff;
      }

      .cls-2, .cls-7 {
        stroke: #0d425b;
      }

      .cls-2, .cls-7, .cls-10 {
        stroke-width: 6.48268px;
      }

      .cls-13, .cls-11 {
        fill: #f3f5f7;
      }

      .cls-14 {
        fill: #0d425b;
      }

      .cls-15 {
        fill: #426b7e;
      }

      .cls-8 {
        stroke-width: 5.04083px;
      }

      .cls-9 {
        stroke-width: 5.77365px;
      }

      .cls-11 {
        stroke-width: 5.15726px;
      }

      .cls-6 {
        stroke: #426b7e;
        stroke-width: .63186px;
      }
    </style>
  </defs>
  <rect class="cls-13" x="-16.1757" y="-11.65656" width="1945.37501" height="438.10566"/>
  <g>
    <path class="cls-12" d="M1318.20295,205.41116c-2.62305,0-4.82617-1.83496-5.3916-4.28906-.12207.00098-.24609.00098-.37109.00098-3.53125,0-4.73047-.19727-5.32422-.34668-1.9248-.47949-3.2168-1.62207-2.21582-11.7998-2.49609-5.77148-5.63965-12.33984-6.80176-13.83008-.44043-.16113-1.13965-.33105-1.96973-.46582-.80469,1.27441-2.22559,2.12305-3.8418,2.12305h-22.30469c-1.60547,0-3.01855-.83691-3.8252-2.09766-.77148.13184-1.40723.29102-1.81445.44043-1.16211,1.49121-4.30566,8.05957-6.80078,13.83008,1.00098,10.17773-.29102,11.32031-2.21777,11.80078-.5918.14844-1.79102.3457-5.32227.3457-.125,0-.24902,0-.37207-.00098-.56543,2.4541-2.76758,4.28906-5.39062,4.28906h-.13086c-3.05078,0-5.53223-2.48145-5.53223-5.53223v-13.40332c0-3.05078,2.48145-5.53223,5.53223-5.53223h.13086c2.72754,0,5.00098,1.98535,5.45117,4.58691,1.3584-3.0752,3.74805-10.48438,4.35547-13.09082-.23145-.09766-.52148-.19336-.78711-.25684-4.65918-.15332-8.40137-3.99121-8.40137-8.68652v-13.02246c0-2.11035.75586-4.04883,2.0127-5.55566-49.28418-3.2959-50.1084-3.69629-50.66016-3.96484-1.62598-.79199-2.57812-2.49805-2.67871-4.80371-.07129-1.61816.35645-5.0166,2.48047-6.29199,1.10156-.65918,2.72656-.99316,4.83203-.99316.34277,0,.55566.00977.55566.00977.19336.00098,28.31348.31152,41.2168.31152,4.53809,0,5.75977-.03906,6.08398-.0625,2.34863-.16699,6.78516-1.59082,8.72266-2.40234-.00293-.08496-.00586-.17188-.00977-.26074h-13.63184c-6.86621,0-12.45117-5.58496-12.45117-12.45117v-3.72754c0-6.86621,5.58496-12.45117,12.45117-12.45117h19.04688v-2.91504c0-2.61035,2.12305-4.7334,4.7334-4.7334h4.91113v-14.28418c-.92285.00684-1.84863.01172-2.71875.01172-4.69531,0-5.6084,0-6.43848-.86133-1.54004-.69434-7.99707-1.13477-11.92578-1.13477-.66113.00293-75.29492,1.87402-107.65039,7.60254-11.62598,2.05957-14.14648,3.34863-19.08496,7.54688l-.78418.66602-38.66895-1.75488,16.57031-4.36328c.19727-.05176,19.84277-5.21875,32.82227-8.06934,23.2373-5.10449,93.56445-9.15918,107.48438-9.36621,3.9873-.05957,6.76172-.19629,7.9209-.2998,1.29102-1.11914,2.75977-1.66504,4.46484-1.66504.38184,0,.74902.02734,1.09668.05566.17871.01367.34863.03125.50879.03125.2168-.0332.34668-.07129.41602-.0957.02441-.0459.04492-.09082.06641-.13281.28711-.56348,1.16016-2.28027,3.50293-2.28027,1.21387.01465,8.2627.14355,12.41797.2207v-12.01758h-7.64844c-5.71191,0-10.3584-4.64648-10.3584-10.3584s4.64648-10.3584,10.3584-10.3584h33.01758c5.71191,0,10.3584,4.64648,10.3584,10.3584s-4.64648,10.3584-10.3584,10.3584h-8.01465v11.94824c4.13379-.07617,11.32617-.20801,12.50879-.22168,2.39941-.00098,3.27246,1.71484,3.55957,2.27832.02148.04297.04199.08789.06641.13281.06836.02539.19629.06445.40625.09863.16992-.00293.33984-.02051.51855-.03418.34766-.02832.71387-.05566,1.09668-.05566,1.7041,0,3.17383.54688,4.46582,1.66602,1.15918.10352,3.93164.23926,7.91992.29883,13.9248.20801,84.26074,4.26465,107.48438,9.36621,12.97949,2.85156,32.625,8.01758,32.82227,8.06934l16.57031,4.3623-38.66895,1.75781-.78418-.66699c-4.93848-4.19922-7.45898-5.48828-19.08496-7.54688-32.35156-5.72949-106.98926-7.59961-107.65332-7.60254-3.92578,0-10.37988.43945-11.92188,1.13379-.82812.8623-1.74414.8623-6.4502.8623-.91309,0-1.8877-.00488-2.85547-.0127v14.35645h5.20801c2.61035,0,4.7334,2.12305,4.7334,4.7334v2.91504h18.1543c6.86621,0,12.45117,5.58496,12.45117,12.45117v3.72754c0,6.86621-5.58496,12.45117-12.45117,12.45117h-13.4834c-.00391.08887-.00684.17578-.00977.26074,1.9375.81152,6.37402,2.23535,8.72266,2.40234.32422.02344,1.54688.0625,6.08496.0625,12.76172,0,40.40625-.30371,41.28613-.31348.01562-.00098.20801-.00781.48535-.00781,2.10547,0,3.73047.33398,4.83008.99219,2.12598,1.27637,2.55371,4.6748,2.48242,6.29297-.10059,2.30566-1.05273,4.01172-2.67969,4.80371-.53516.26074-1.20215.58594-27.27832,2.52246-7.61719.56543-16.55176,1.19141-22.89453,1.56836,1.19336,1.48926,1.9082,3.37695,1.9082,5.42969v13.02246c0,3.82715-2.43262,7.0625-5.87012,8.22754v.04297l-.29688.05273c-.62695.1875-1.28516.30664-1.96582.34961-.27734.06055-.59766.16406-.84961.27148.60645,2.5957,2.99805,10.00977,4.35742,13.08789.4502-2.60059,2.72363-4.58496,5.45117-4.58496h.12988c3.05078,0,5.53223,2.48145,5.53223,5.53223v13.40332c0,3.05078-2.48145,5.53223-5.53223,5.53223h-.12988ZM1299.02034,75.0303h0Z"/>
    <path class="cls-5" d="M1297.84162,31.88919c4.27686,0,7.7439,3.4668,7.7439,7.74365s-3.46704,7.74414-7.7439,7.74414h-10.62854v17.22559c1.87524-.03516,13.6145-.25195,15.15356-.27051h.02673c1.68457,0,.53455,1.97949,3.5498,2.47607.13806.02295.28259.03125.43335.03125.47852,0,1.01868-.08691,1.60645-.08691.96777,0,2.06421.23584,3.22449,1.48389.20874.22412,4.76843.41553,9.1228.48047,15.41467.22998,84.50134,4.37207,106.96265,9.30615,13.07629,2.87256,32.71716,8.04346,32.71716,8.04346l-20.52344.93262c-5.50232-4.67725-8.62671-6.05811-20.32275-8.12939-32.51636-5.75781-106.73071-7.64258-108.10632-7.64258s-12.34705.18506-13.72949,1.84424c-.09619.11523-2.13965.15137-4.65576.15137-1.75671,0-3.7439-.01758-5.45923-.03809v19.61133h7.82227c1.17029,0,2.11902.94873,2.11902,2.11914v5.5293h20.76868c5.43274,0,9.83667,4.4043,9.83667,9.83691v3.72754c0,5.43262-4.40393,9.83691-9.83667,9.83691h-15.85132c-.22668,1.14307-.38159,4.10059-.14832,4.45068.49072.73584,7.60706,3.18994,11.04248,3.43506.68774.04932,3.00684.06885,6.27856.06885,13.07043,0,41.32642-.31396,41.32642-.31396,0,0,.16809-.00781.43958-.00781.81555,0,2.56348.06934,3.48413.62158,1.22693.73584,1.98352,5.53711.00244,6.50244-.97998.47754-50.36475,4.17188-56.56738,4.17188-.04077,0-.07996,0-.11694-.00049-.08264-.00049-.16211-.00098-.23975-.00098-5.23816,0,1.1123,1.62305,1.1123,1.62305,3.35657,0,6.07764,2.72119,6.07764,6.07764v13.02246c0,3.28711-2.61011,5.96289-5.87073,6.07227l.00037.00537s-3.43677.59863-3.22534,2.50146,4.65112,16.06738,5.91956,16.49023c1.11377.37109,3.20483.57959,3.69849.625v-2.71436c0-1.61182,1.3064-2.91797,2.91785-2.91797h.13025c1.61145,0,2.91785,1.30615,2.91785,2.91797v13.40283c0,1.61133-1.3064,2.91748-2.91785,2.91748h-.13025c-1.61145,0-2.91785-1.30615-2.91785-2.91748v-1.40869c-.57703.01514-1.66357.03809-2.85254.03809-1.79504,0-3.82324-.05273-4.68225-.26758-1.15918-.29004-.18054-9.67529-.18054-9.67529,0,0-6.34241-14.79883-8.03369-15.64453-1.17334-.58643-3.46545-.96973-5.32434-1.07861v.42285c0,1.0625-.86145,1.92432-1.92444,1.92432h-22.30505c-1.06287,0-1.92456-.86182-1.92456-1.92432v-.41211c-1.82617.12207-4.01489.49902-5.15222,1.06787-1.69128.8457-8.03369,15.64453-8.03369,15.64453,0,0,.97864,9.38525-.18054,9.67529-.85913.21484-2.88708.26758-4.68225.26758-1.18872,0-2.27563-.02295-2.85266-.03809v1.40869c0,1.61133-1.30627,2.91748-2.91772,2.91748h-.13025c-1.61145,0-2.91772-1.30615-2.91772-2.91748v-13.40283c0-1.61182,1.30627-2.91797,2.91772-2.91797h.13025c1.61145,0,2.91772,1.30615,2.91772,2.91797v2.71436c.49377-.04541,2.58496-.25391,3.69861-.625,1.26855-.42285,5.70813-14.5874,5.91956-16.49023s-3.22534-2.50146-3.22534-2.50146c-3.35657,0-6.07764-2.72119-6.07764-6.07764v-13.02246c0-3.35645,2.72107-6.07764,6.07764-6.07764,2.7771-1.4668,1.58496-1.63818.87671-1.63818-.21582,0-.38672.01611-.38672.01611,0,0-55.69775-3.69092-56.68433-4.17139-1.98096-.96533-1.22437-5.7666.00256-6.50244.92053-.55225,2.66846-.62158,3.48401-.62158.27136,0,.43958.00781.43958.00781,0,0,28.2572.31396,41.32654.31396,3.27002,0,5.59106-.01953,6.27856-.06885,3.43542-.24512,10.55164-2.69922,11.04236-3.43506.23328-.3501.07837-3.30762-.14819-4.45068h-15.99951c-5.43262,0-9.83679-4.4043-9.83679-9.83691v-3.72754c0-5.43262,4.40417-9.83691,9.83679-9.83691h21.66162v-5.5293c0-1.17041.94873-2.11914,2.11914-2.11914h7.52515v-19.5376c-1.68262.01953-3.60815.03613-5.31604.03613-2.51392,0-4.55554-.03613-4.65161-.15137-1.38257-1.65869-12.354-1.84424-13.72961-1.84424s-75.59009,1.88477-108.10632,7.64258c-11.69617,2.07129-14.82031,3.45215-20.32275,8.12939l-20.52344-.93262s19.64099-5.1709,32.71716-8.04346c22.4613-4.93408,91.54785-9.07617,106.96265-9.30615,4.35425-.06494,8.91406-.25586,9.1228-.48047,1.16052-1.24805,2.25671-1.48389,3.22461-1.48389.58765,0,1.12781.08691,1.60632.08691.15063,0,.29541-.00879.43335-.03125,3.0155-.49658,1.86475-2.47656,3.5498-2.47607h.02673c1.50342.01807,12.73853.22559,15.00635.26758v-17.29443h-10.26257c-4.27673,0-7.74377-3.46729-7.74377-7.74414s3.46704-7.74365,7.74377-7.74365h33.01746M1297.84162,26.6597h-33.01746c-7.15332,0-12.97302,5.81982-12.97302,12.97314,0,7.15381,5.8197,12.97363,12.97302,12.97363h5.03333v6.73877c-4.15991-.07617-8.77136-.15918-9.71423-.17041l-.03149-.00049h-.05811c-1.51648,0-3.51111.45654-5.03406,2.43359-.17395-.00781-.36011-.0127-.55554-.0127-2.02612,0-3.85339.58154-5.45508,1.73291-1.35107.08545-3.7832.18408-6.97021.23193-16.87878.25146-85.67249,4.521-108.00659,9.42725-13.03076,2.8623-32.72913,8.04199-32.92651,8.09375l-33.14172,8.72559,34.23572,1.55566,20.52344.93213,2.05591.09375,1.56824-1.33301c4.58142-3.89453,6.7771-5.00391,17.84778-6.96436,30.22217-5.35205,100.60291-7.50391,107.21533-7.56299,3.55066.00049,8.75549.3667,10.5769.8418,1.47253,1.1543,3.34497,1.1543,7.78333,1.1543h.08691v9.04248h-2.2959c-4.052,0-7.34839,3.29688-7.34839,7.34863v.2998h-16.43237c-8.3075,0-15.06604,6.75879-15.06604,15.06641v3.72754c0,5.2251,2.67346,9.8374,6.72461,12.54102-13.58826-.06836-32.72449-.27734-34.03149-.2915-.11377-.00391-.31018-.00879-.56641-.00879-3.89722,0-5.61157,1.02881-6.17493,1.3667-2.96582,1.77881-3.8728,5.76807-3.74792,8.64404.14148,3.26123,1.65247,5.82812,4.14551,7.04297,1.23657.60254,1.53015.74512,30.63794,2.78174,6.03735.42236,12.08521.83594,17.00708,1.16943-.30371,1.02051-.4668,2.10107-.4668,3.21924v13.02246c0,5.27686,3.63379,9.72119,8.53027,10.96191-.48511,1.62061-1.12,3.59521-1.75,5.42676-1.34412-.97803-2.99792-1.55615-4.78394-1.55615h-.13025c-4.49231,0-8.14697,3.65527-8.14697,8.14746v13.40283c0,4.49219,3.65466,8.14697,8.14697,8.14697h.13025c3.10156,0,5.80408-1.74268,7.17993-4.2998,2.70312-.04688,3.81726-.23145,4.54102-.41211,4.85913-1.21582,4.62268-6.86377,4.48132-10.23828-.05701-1.36377-.15723-2.70361-.23877-3.66113,1.88623-4.32227,4.13574-9.08594,5.46155-11.44971,1.20081.91211,2.69775,1.4541,4.3186,1.4541h22.30505c1.67517,0,3.21777-.5791,4.43823-1.54688,1.31836,2.33008,3.60278,7.16309,5.51392,11.54248-.08154.95752-.18176,2.29736-.23877,3.66113-.14136,3.37451-.37781,9.02246,4.48035,10.23779.72485.18115,1.83948.36572,4.54187.4126,1.37598,2.55713,4.07837,4.2998,7.18005,4.2998h.13025c4.49243,0,8.14709-3.65479,8.14709-8.14697v-13.40283c0-4.49219-3.65466-8.14746-8.14709-8.14746h-.13025c-1.78613,0-3.43982.57812-4.78394,1.55615-.63123-1.83496-1.2677-3.81445-1.75305-5.43652l2.89453-.42773-.07532-.80127c3.31372-1.96826,5.50684-5.5791,5.50684-9.72314v-13.02246c0-1.06201-.14709-2.08984-.42212-3.06543,5.83179-.37354,12.84094-.86914,18.98901-1.32568,26.57397-1.97314,27.12671-2.24219,28.22791-2.77881,2.4939-1.21533,4.00488-3.78223,4.14648-7.04346.12488-2.87598-.7821-6.86523-3.74927-8.64453-.56201-.3374-2.27649-1.36621-6.17371-1.36621-.25647,0-.453.00488-.56677.00879-1.31421.01416-20.58411.22461-34.18042.29199,4.05176-2.70312,6.72571-7.31592,6.72571-12.5415v-3.72754c0-8.30762-6.75854-15.06641-15.06592-15.06641h-15.53943v-.2998c0-4.05176-3.29639-7.34863-7.34827-7.34863h-2.5929v-9.11475c.07703.00049.15356.00049.22986.00049,4.43872,0,6.31067,0,7.7854-1.15381,1.81885-.4751,7.02808-.8418,10.59985-.8418,6.59143.05859,76.97217,2.21094,107.19458,7.5625,11.07068,1.96045,13.26636,3.06982,17.84766,6.96436l1.56812,1.33301,2.05603-.09375,20.52356-.93213,34.23523-1.55566-33.14124-8.72559c-.19751-.05176-19.89575-5.23145-32.92651-8.09375-22.33362-4.90625-91.12769-9.17578-108.00671-9.42725-3.18591-.04785-5.61804-.14648-6.96985-.23242-1.60071-1.15039-3.42847-1.73242-5.45544-1.73242-.19556,0-.38184.00488-.55579.01318-1.52295-1.97705-3.51697-2.43408-5.03345-2.43408h-.03406l-.06091.00049c-.98047.01172-5.86572.1001-9.85632.17285v-6.66943h5.39917c7.15344,0,12.97314-5.81982,12.97314-12.97363,0-7.15332-5.8197-12.97314-12.97314-12.97314h0Z"/>
  </g>
  <g>
    <polygon class="cls-5" points="1270.56819 130.61722 1272.11213 123.92581 1290.41096 123.92581 1291.95491 130.61722 1270.56819 130.61722"/>
    <path class="cls-5" d="M1288.98664,125.71731l.71777,3.10938h-16.88562l.71753-3.10938h15.45032M1290.93269,122.13626h-19.34229c-.52844,0-.98682.36426-1.10559.87939l-1.84668,8.00244c-.16406.71094.37598,1.38965,1.10559,1.38965h23.03577c.72974,0,1.26965-.67871,1.10559-1.38965l-1.84692-8.00244c-.11877-.51514-.57715-.87939-1.10547-.87939h0Z"/>
  </g>
  <path class="cls-5" d="M1298.36495,135.73248l-2.5774-9.97522c-.00539-.02086-.01539-.04024-.02927-.05672l-2.35572-2.79742c-.09876-.11728-.28801-.01948-.24949.12892l2.18537,8.41771c.00373.01438.12319.60508.13111.61764l2.63424,3.77794c.08767.13895.30227.04623.26116-.11285Z"/>
  <path class="cls-5" d="M1264.27643,135.73248l2.5774-9.97522c.00539-.02086.01539-.04024.02927-.05672l2.35572-2.79742c.09876-.11728.28801-.01948.24949.12892l-2.18537,8.41771c-.00373.01438-.12319.60508-.13111.61764l-2.63424,3.77794c-.08767.13895-.30227.04623-.26116-.11285Z"/>
  <polygon class="cls-4" points="608.88184 59.2813 560.07924 80.82151 559.10955 78.53564 538.45679 87.59449 544.46289 101.802 565.32699 92.68568 564.08504 89.89534 614.00844 68.08068 608.88184 59.2813"/>
  <polygon class="cls-10" points="464.68208 110.9676 464.71102 99.84529 488.43333 83.43484 528.87604 83.51744 551.40789 99.03773 551.30949 110.83224 464.68208 110.9676"/>
  <path class="cls-10" d="M362.34625,110.13508s-10.89246,8.66076-12.97825,24.19919c-2.08579,15.53843,2.78105,29.29375,5.79386,33.11468,3.01281,3.82092,10.6607,14.26478,16.91807,14.77424,6.25737.50946,9.50193,0,9.50193,0l241.95159.25473,30.82333-47.63419-36.61719-7.13239s-19.46737-17.83098-21.78491-18.08571c-2.31754-.25473-233.60843.50946-233.60843.50946Z"/>
  <rect class="cls-3" x="385.01458" y="130.66166" width="39.7093" height="7.83269" rx="3.15694" ry="3.15694"/>
  <rect class="cls-3" x="438.30776" y="130.66166" width="39.7093" height="7.83269" rx="3.15694" ry="3.15694"/>
  <rect class="cls-3" x="489.32161" y="130.66166" width="39.7093" height="7.83269" rx="3.15694" ry="3.15694"/>
  <rect class="cls-3" x="541.85501" y="130.66166" width="39.7093" height="7.83269" rx="3.15694" ry="3.15694"/>
  <rect class="cls-6" x="375.58326" y="96.6226" width="74.48172" height="6.66097"/>
  <g>
    <rect class="cls-1" x="41.50286" y="338.6058" width="231.37415" height="48.16905"/>
    <path class="cls-5" d="M43.32893,364.10745v-24.17188h8.68262c3.10986,0,5.47559.57031,7.09717,1.70996,1.62109,1.14062,2.43213,2.79492,2.43213,4.96387,0,1.25098-.28809,2.31934-.86328,3.2041-.57568.88574-1.42236,1.53906-2.54004,1.95898,1.26172.33203,2.22998.95215,2.90527,1.85938.6748.9082,1.0127,2.01465,1.0127,3.32031,0,2.36914-.75,4.14844-2.24951,5.33789-1.5,1.18945-3.72168,1.79492-6.66553,1.81738h-9.81152ZM49.15608,350.01272h3.03809c1.27246-.01074,2.18018-.24414,2.72266-.69922.54199-.45508.81348-1.12695.81348-2.01465,0-1.02148-.29346-1.75684-.87988-2.20605-.58691-.44922-1.5332-.6748-2.83887-.6748h-2.85547v5.59473ZM49.15608,353.83108v5.79395h3.81836c1.05127,0,1.85938-.24121,2.42383-.72168.56445-.48242.84668-1.16016.84668-2.03418,0-2.01465-1.00195-3.02637-3.00488-3.03809h-4.08398Z"/>
    <path class="cls-5" d="M76.82112,364.10745c-.19922-.36523-.37646-.90137-.53125-1.61035-1.0293,1.29492-2.46826,1.94238-4.31641,1.94238-1.69336,0-3.13232-.51172-4.31641-1.53613-1.18457-1.02344-1.77637-2.30957-1.77637-3.85938,0-1.94727.71924-3.41992,2.1582-4.41602,1.43848-.99609,3.53027-1.49414,6.27539-1.49414h1.72656v-.95117c0-1.65625-.71387-2.48535-2.1416-2.48535-1.32812,0-1.99219.65625-1.99219,1.96875h-5.59473c0-1.73535.73877-3.14551,2.21631-4.22852s3.36182-1.625,5.65283-1.625,4.10059.55957,5.42871,1.67676c1.32812,1.11816,2.00879,2.65039,2.04199,4.59863v7.95215c.02197,1.64941.27637,2.91113.76367,3.78516v.28223h-5.59473ZM73.31819,360.45511c.69727,0,1.27539-.14941,1.73486-.44824.45898-.29883.78857-.63672.98779-1.0127v-2.87207h-1.62695c-1.94824,0-2.92188.875-2.92188,2.62305,0,.50977.17139.92188.51465,1.23633.34277.31641.78027.47363,1.31152.47363Z"/>
    <path class="cls-5" d="M92.96418,341.67874v4.46582h2.95508v3.88477h-2.95508v8.21777c0,.67578.12158,1.14551.36523,1.41113.24316.26562.72461.39844,1.44434.39844.55322,0,1.01807-.0332,1.39453-.09961v4.00098c-1.00732.32031-2.05859.48145-3.1543.48145-1.92578,0-3.34814-.4541-4.2666-1.36133-.91895-.90723-1.37793-2.28516-1.37793-4.13379v-8.91504h-2.29102v-3.88477h2.29102v-4.46582h5.59473Z"/>
    <path class="cls-5" d="M106.33528,341.67874v4.46582h2.95508v3.88477h-2.95508v8.21777c0,.67578.12158,1.14551.36523,1.41113.24316.26562.72461.39844,1.44434.39844.55322,0,1.01807-.0332,1.39453-.09961v4.00098c-1.00732.32031-2.05859.48145-3.1543.48145-1.92578,0-3.34814-.4541-4.2666-1.36133-.91895-.90723-1.37793-2.28516-1.37793-4.13379v-8.91504h-2.29102v-3.88477h2.29102v-4.46582h5.59473Z"/>
    <path class="cls-5" d="M119.09162,364.10745h-5.61133v-25.5h5.61133v25.5Z"/>
    <path class="cls-5" d="M132.92756,364.43948c-2.75586,0-4.98633-.82129-6.69043-2.46582-1.70459-1.64258-2.55664-3.78125-2.55664-6.41602v-.46484c0-1.83691.34033-3.45898,1.021-4.86426s1.67383-2.49316,2.97998-3.2627c1.30566-.76855,2.85547-1.15332,4.64844-1.15332,2.52344,0,4.51562.7832,5.97656,2.34863,1.46094,1.56641,2.19141,3.75,2.19141,6.5498v2.1748h-11.12305c.19922,1.00781.63623,1.79883,1.31152,2.37402.6748.5752,1.54932.86328,2.62305.86328,1.77051,0,3.1543-.62012,4.15039-1.85938l2.55664,3.02148c-.69727.96289-1.68506,1.72949-2.96338,2.2998-1.27832.56934-2.65381.85449-4.12549.85449ZM132.2967,350.12893c-1.63818,0-2.6123,1.08496-2.92188,3.25391h5.64453v-.43164c.02197-.89648-.20508-1.59082-.68066-2.08301-.47607-.49219-1.15674-.73926-2.04199-.73926Z"/>
    <path class="cls-5" d="M172.85139,344.4346h-7.25586v19.67285h-5.82617v-19.67285h-7.12305v-4.49902h20.20508v4.49902Z"/>
    <path class="cls-5" d="M184.07991,364.10745c-.19922-.36523-.37598-.90137-.53125-1.61035-1.0293,1.29492-2.46777,1.94238-4.31641,1.94238-1.69336,0-3.13184-.51172-4.31641-1.53613-1.18359-1.02344-1.77539-2.30957-1.77539-3.85938,0-1.94727.71875-3.41992,2.1582-4.41602,1.4375-.99609,3.5293-1.49414,6.27539-1.49414h1.72656v-.95117c0-1.65625-.71484-2.48535-2.14258-2.48535-1.32812,0-1.99219.65625-1.99219,1.96875h-5.59375c0-1.73535.73828-3.14551,2.21582-4.22852s3.3623-1.625,5.65332-1.625,4.09961.55957,5.42773,1.67676c1.32812,1.11816,2.00977,2.65039,2.04297,4.59863v7.95215c.02148,1.64941.27539,2.91113.76367,3.78516v.28223h-5.5957ZM180.57795,360.45511c.69727,0,1.27539-.14941,1.73438-.44824s.78906-.63672.98828-1.0127v-2.87207h-1.62695c-1.94922,0-2.92188.875-2.92188,2.62305,0,.50977.1709.92188.51367,1.23633.34375.31641.78125.47363,1.3125.47363Z"/>
    <path class="cls-5" d="M198.84553,346.14456l.18262,2.1084c1.23926-1.62695,2.94922-2.44043,5.12988-2.44043,1.87012,0,3.26758.55957,4.19141,1.67676.92383,1.11816,1.40332,2.80078,1.43652,5.04688v11.57129h-5.61133v-11.33887c0-.90723-.18262-1.57422-.54785-2s-1.0293-.63965-1.99219-.63965c-1.0957,0-1.90918.43164-2.44043,1.29492v12.68359h-5.59473v-17.96289h5.24609Z"/>
    <path class="cls-5" d="M221.79573,357.41702l-1.57715,1.57715v5.11328h-5.59473v-25.5166h5.59473v13.54688l.56445-.74707,4.2168-5.24609h6.70703l-6.29199,7.3877,6.70703,10.5752h-6.4082l-3.91797-6.69043Z"/>
    <path class="cls-5" d="M244.28108,359.06057c0-.47559-.24902-.85742-.74707-1.14551-.49805-.28711-1.44434-.58594-2.83887-.89648-1.39453-.30957-2.5459-.7168-3.45312-1.2207-.9082-.50293-1.59961-1.11426-2.0752-1.83398-.47559-.71875-.71387-1.54395-.71387-2.47363,0-1.64941.68066-3.00684,2.04199-4.0752s3.14355-1.60254,5.3457-1.60254c2.36816,0,4.27246.53711,5.71094,1.61035,1.43848,1.07422,2.1582,2.48438,2.1582,4.2334h-5.61133c0-1.43848-.75879-2.1582-2.27441-2.1582-.58691,0-1.0791.16309-1.47754.48926-.39844.32715-.59766.73438-.59766,1.2207,0,.49805.24316.90234.73047,1.21191s1.26465.56445,2.33301.76367c1.06738.19922,2.00586.4375,2.81348.71387,2.7002.92969,4.05078,2.5957,4.05078,4.99707,0,1.6377-.72754,2.97168-2.18262,4.00098-1.45605,1.0293-3.33984,1.54395-5.65332,1.54395-1.53809,0-2.91113-.27637-4.11719-.83008s-2.14746-1.30566-2.82227-2.25781-1.0127-1.95312-1.0127-3.00488h5.22949c.02246.83008.29883,1.43555.83008,1.81836.53125.38086,1.21191.57227,2.04199.57227.76367,0,1.33594-.1543,1.71875-.46484.38086-.30957.57227-.71387.57227-1.21191Z"/>
  </g>
  <g>
    <rect class="cls-1" x="41.50286" y="234.50651" width="231.37415" height="48.16905"/>
    <path class="cls-5" d="M63.79866,248.42093c0,2.35742-.4375,4.44336-1.31152,6.25781-.87451,1.81641-2.1167,3.21289-3.72705,4.19238s-3.44482,1.46973-5.50342,1.46973-3.88477-.47363-5.47852-1.41992-2.83643-2.29883-3.72705-4.05859c-.89111-1.75977-1.35889-3.7793-1.40283-6.06055v-1.36133c0-2.36719.43408-4.45703,1.30322-6.2666.86865-1.80957,2.11377-3.20605,3.73535-4.19238,1.62109-.98438,3.4668-1.47656,5.53662-1.47656,2.04736,0,3.87354.48633,5.47852,1.46094,1.60449.97363,2.85254,2.35938,3.74365,4.1582.89062,1.79883,1.3418,3.85938,1.35303,6.18359v1.11328ZM57.8719,247.40725c0-2.40039-.40137-4.22461-1.20361-5.46973-.80273-1.24512-1.95068-1.86816-3.44482-1.86816-2.92188,0-4.46582,2.19141-4.63184,6.57422l-.0166,1.77734c0,2.36816.39258,4.18945,1.17871,5.46094.78564,1.27344,1.95312,1.91016,3.50293,1.91016,1.47168,0,2.60645-.625,3.40332-1.87695.79688-1.25,1.20068-3.04883,1.21191-5.39453v-1.11328Z"/>
    <path class="cls-5" d="M75.40998,253.35061l2.83887-11.30469h5.89355l-5.86035,17.96289h-5.71094l-5.86035-17.96289h5.91016l2.78906,11.30469Z"/>
    <path class="cls-5" d="M95.98567,260.34085c-2.75586,0-4.98633-.82227-6.69043-2.46582-1.70459-1.64355-2.55664-3.78223-2.55664-6.41699v-.46484c0-1.83594.34033-3.45801,1.021-4.86328.68066-1.40625,1.67383-2.49316,2.97998-3.2627,1.30566-.76855,2.85547-1.15332,4.64844-1.15332,2.52344,0,4.51562.7832,5.97656,2.34863,1.46094,1.56641,2.19141,3.74902,2.19141,6.5498v2.17383h-11.12305c.19922,1.00781.63623,1.79883,1.31152,2.375.6748.5752,1.54932.86328,2.62305.86328,1.77051,0,3.1543-.62012,4.15039-1.85938l2.55664,3.02148c-.69727.96289-1.68506,1.72852-2.96338,2.29883s-2.65381.85547-4.12549.85547ZM95.35481,246.0303c-1.63818,0-2.6123,1.08398-2.92188,3.25391h5.64453v-.43164c.02197-.89648-.20508-1.5918-.68066-2.08398-.47607-.49219-1.15674-.73828-2.04199-.73828Z"/>
    <path class="cls-5" d="M118.37141,247.10843l-1.84277-.13281c-1.75977,0-2.88867.55469-3.38672,1.66016v11.37305h-5.59473v-17.96289h5.24609l.18262,2.30664c.94043-1.75977,2.25195-2.63867,3.93457-2.63867.59766,0,1.11768.06641,1.56055.19922l-.09961,5.19531Z"/>
  </g>
  <g>
    <rect class="cls-1" x="334.3779" y="234.50651" width="231.37415" height="48.16905"/>
    <path class="cls-5" d="M356.67366,248.42093c0,2.35742-.4375,4.44336-1.31152,6.25781-.87402,1.81641-2.11621,3.21289-3.72754,4.19238-1.60938.97949-3.44434,1.46973-5.50293,1.46973s-3.88477-.47363-5.47852-1.41992-2.83691-2.29883-3.72754-4.05859-1.3584-3.7793-1.40234-6.06055v-1.36133c0-2.36719.43359-4.45703,1.30273-6.2666s2.11426-3.20605,3.73633-4.19238c1.62109-.98438,3.4668-1.47656,5.53613-1.47656,2.04785,0,3.87402.48633,5.47852,1.46094,1.60449.97363,2.85254,2.35938,3.74316,4.1582s1.3418,3.85938,1.35352,6.18359v1.11328ZM350.7469,247.40725c0-2.40039-.40137-4.22461-1.2041-5.46973s-1.9502-1.86816-3.44434-1.86816c-2.92188,0-4.46582,2.19141-4.63184,6.57422l-.0166,1.77734c0,2.36816.39258,4.18945,1.17871,5.46094.78516,1.27344,1.95312,1.91016,3.50293,1.91016,1.47168,0,2.60645-.625,3.40332-1.87695.79688-1.25,1.20117-3.04883,1.21191-5.39453v-1.11328Z"/>
    <path class="cls-5" d="M368.28498,253.35061l2.83887-11.30469h5.89355l-5.86035,17.96289h-5.71094l-5.86035-17.96289h5.91016l2.78906,11.30469Z"/>
    <path class="cls-5" d="M388.86116,260.34085c-2.75586,0-4.98633-.82227-6.69141-2.46582-1.7041-1.64355-2.55664-3.78223-2.55664-6.41699v-.46484c0-1.83594.34082-3.45801,1.02148-4.86328.68066-1.40625,1.67383-2.49316,2.98047-3.2627,1.30469-.76855,2.85547-1.15332,4.64844-1.15332,2.52344,0,4.51562.7832,5.97656,2.34863,1.46094,1.56641,2.19141,3.74902,2.19141,6.5498v2.17383h-11.12305c.19922,1.00781.63574,1.79883,1.31055,2.375.67578.5752,1.5498.86328,2.62305.86328,1.77148,0,3.1543-.62012,4.15039-1.85938l2.55664,3.02148c-.69727.96289-1.68457,1.72852-2.96289,2.29883s-2.6543.85547-4.125.85547ZM388.2303,246.0303c-1.63867,0-2.61328,1.08398-2.92188,3.25391h5.64453v-.43164c.02148-.89648-.20508-1.5918-.68164-2.08398-.47559-.49219-1.15625-.73828-2.04102-.73828Z"/>
    <path class="cls-5" d="M411.24592,247.10843l-1.8418-.13281c-1.75977,0-2.88867.55469-3.38672,1.66016v11.37305h-5.5957v-17.96289h5.24609l.18359,2.30664c.93945-1.75977,2.25195-2.63867,3.93359-2.63867.59766,0,1.11816.06641,1.56055.19922l-.09961,5.19531Z"/>
  </g>
  <g>
    <rect class="cls-1" x="715.82358" y="234.50651" width="231.37415" height="48.16905"/>
    <path class="cls-5" d="M738.11897,248.42093c0,2.35742-.4375,4.44336-1.31152,6.25781-.87402,1.81641-2.11621,3.21289-3.72656,4.19238s-3.44531,1.46973-5.50391,1.46973-3.88477-.47363-5.47852-1.41992-2.83594-2.29883-3.72656-4.05859c-.8916-1.75977-1.35938-3.7793-1.40332-6.06055v-1.36133c0-2.36719.43457-4.45703,1.30371-6.2666.86816-1.80957,2.11328-3.20605,3.73535-4.19238,1.62109-.98438,3.4668-1.47656,5.53613-1.47656,2.04785,0,3.87402.48633,5.47852,1.46094,1.60449.97363,2.85254,2.35938,3.74414,4.1582.89062,1.79883,1.3418,3.85938,1.35254,6.18359v1.11328ZM732.19221,247.40725c0-2.40039-.40137-4.22461-1.20312-5.46973-.80273-1.24512-1.95117-1.86816-3.44531-1.86816-2.92188,0-4.46582,2.19141-4.63184,6.57422l-.0166,1.77734c0,2.36816.39258,4.18945,1.17871,5.46094.78613,1.27344,1.95312,1.91016,3.50293,1.91016,1.47168,0,2.60645-.625,3.40332-1.87695.79688-1.25,1.20117-3.04883,1.21191-5.39453v-1.11328Z"/>
    <path class="cls-5" d="M749.7303,253.35061l2.83887-11.30469h5.89355l-5.86035,17.96289h-5.71094l-5.86035-17.96289h5.91016l2.78906,11.30469Z"/>
    <path class="cls-5" d="M770.30647,260.34085c-2.75586,0-4.98633-.82227-6.69043-2.46582-1.70508-1.64355-2.55664-3.78223-2.55664-6.41699v-.46484c0-1.83594.33984-3.45801,1.02051-4.86328.68066-1.40625,1.67383-2.49316,2.98047-3.2627,1.30566-.76855,2.85547-1.15332,4.64844-1.15332,2.52344,0,4.51562.7832,5.97656,2.34863,1.46094,1.56641,2.19141,3.74902,2.19141,6.5498v2.17383h-11.12305c.19922,1.00781.63574,1.79883,1.31152,2.375.6748.5752,1.54883.86328,2.62305.86328,1.77051,0,3.1543-.62012,4.15039-1.85938l2.55664,3.02148c-.69727.96289-1.68555,1.72852-2.96387,2.29883s-2.65332.85547-4.125.85547ZM769.67561,246.0303c-1.63867,0-2.6123,1.08398-2.92188,3.25391h5.64453v-.43164c.02148-.89648-.20508-1.5918-.68066-2.08398-.47656-.49219-1.15723-.73828-2.04199-.73828Z"/>
    <path class="cls-5" d="M792.69221,247.10843l-1.84277-.13281c-1.75977,0-2.88867.55469-3.38672,1.66016v11.37305h-5.59473v-17.96289h5.24609l.18262,2.30664c.94043-1.75977,2.25195-2.63867,3.93457-2.63867.59766,0,1.11719.06641,1.56055.19922l-.09961,5.19531Z"/>
  </g>
  <g>
    <rect class="cls-1" x="1148.58418" y="234.50651" width="231.37415" height="48.16905"/>
    <path class="cls-5" d="M1170.87971,248.42093c0,2.35742-.4375,4.44336-1.31152,6.25781-.875,1.81641-2.11719,3.21289-3.72656,4.19238-1.61133.97949-3.44531,1.46973-5.50391,1.46973s-3.88477-.47363-5.47852-1.41992-2.83594-2.29883-3.72656-4.05859c-.8916-1.75977-1.35938-3.7793-1.40332-6.06055v-1.36133c0-2.36719.43457-4.45703,1.30371-6.2666.86816-1.80957,2.11328-3.20605,3.73438-4.19238,1.62109-.98438,3.4668-1.47656,5.53711-1.47656,2.04688,0,3.87305.48633,5.47852,1.46094,1.60449.97363,2.85254,2.35938,3.74414,4.1582.89062,1.79883,1.3418,3.85938,1.35254,6.18359v1.11328ZM1164.95295,247.40725c0-2.40039-.40137-4.22461-1.20312-5.46973-.80273-1.24512-1.95117-1.86816-3.44531-1.86816-2.92188,0-4.46582,2.19141-4.63184,6.57422l-.0166,1.77734c0,2.36816.39258,4.18945,1.17871,5.46094.78613,1.27344,1.95312,1.91016,3.50293,1.91016,1.47168,0,2.60645-.625,3.40332-1.87695.79688-1.25,1.2002-3.04883,1.21191-5.39453v-1.11328Z"/>
    <path class="cls-5" d="M1182.49104,253.35061l2.83887-11.30469h5.89355l-5.86035,17.96289h-5.71094l-5.86035-17.96289h5.91016l2.78906,11.30469Z"/>
    <path class="cls-5" d="M1203.06623,260.34085c-2.75586,0-4.98633-.82227-6.68945-2.46582-1.70508-1.64355-2.55664-3.78223-2.55664-6.41699v-.46484c0-1.83594.33984-3.45801,1.02051-4.86328.68066-1.40625,1.67383-2.49316,2.97949-3.2627,1.30664-.76855,2.85547-1.15332,4.64844-1.15332,2.52344,0,4.51562.7832,5.97656,2.34863,1.46094,1.56641,2.19141,3.74902,2.19141,6.5498v2.17383h-11.12305c.19922,1.00781.63672,1.79883,1.3125,2.375.67383.5752,1.54883.86328,2.62305.86328,1.76953,0,3.1543-.62012,4.15039-1.85938l2.55664,3.02148c-.69727.96289-1.68555,1.72852-2.96387,2.29883s-2.65332.85547-4.12598.85547ZM1202.43537,246.0303c-1.6377,0-2.61133,1.08398-2.92188,3.25391h5.64453v-.43164c.02246-.89648-.20508-1.5918-.67969-2.08398-.47656-.49219-1.15723-.73828-2.04297-.73828Z"/>
    <path class="cls-5" d="M1225.45295,247.10843l-1.84375-.13281c-1.75977,0-2.88867.55469-3.38672,1.66016v11.37305h-5.59375v-17.96289h5.24609l.18164,2.30664c.94141-1.75977,2.25195-2.63867,3.93555-2.63867.59766,0,1.11719.06641,1.56055.19922l-.09961,5.19531Z"/>
  </g>
  <g>
    <rect class="cls-1" x="1542.80943" y="234.50651" width="231.37415" height="48.16905"/>
    <path class="cls-5" d="M1565.1053,248.42093c0,2.35742-.4375,4.44336-1.3125,6.25781-.87402,1.81641-2.11621,3.21289-3.72656,4.19238s-3.44531,1.46973-5.50391,1.46973-3.88477-.47363-5.47852-1.41992-2.83594-2.29883-3.72656-4.05859-1.35938-3.7793-1.40234-6.06055v-1.36133c0-2.36719.43359-4.45703,1.30273-6.2666s2.11328-3.20605,3.73535-4.19238c1.62109-.98438,3.4668-1.47656,5.53613-1.47656,2.04785,0,3.87402.48633,5.47852,1.46094,1.60547.97363,2.85352,2.35938,3.74414,4.1582s1.3418,3.85938,1.35352,6.18359v1.11328ZM1559.17756,247.40725c0-2.40039-.40039-4.22461-1.20312-5.46973s-1.95117-1.86816-3.44531-1.86816c-2.92188,0-4.46484,2.19141-4.63086,6.57422l-.01758,1.77734c0,2.36816.39258,4.18945,1.17969,5.46094.78516,1.27344,1.95312,1.91016,3.50195,1.91016,1.47266,0,2.60742-.625,3.4043-1.87695.79688-1.25,1.2002-3.04883,1.21094-5.39453v-1.11328Z"/>
    <path class="cls-5" d="M1576.71662,253.35061l2.83789-11.30469h5.89453l-5.86133,17.96289h-5.71094l-5.85938-17.96289h5.91016l2.78906,11.30469Z"/>
    <path class="cls-5" d="M1597.29182,260.34085c-2.75586,0-4.98633-.82227-6.69043-2.46582-1.70508-1.64355-2.55664-3.78223-2.55664-6.41699v-.46484c0-1.83594.33984-3.45801,1.02148-4.86328.67969-1.40625,1.67383-2.49316,2.97949-3.2627,1.30566-.76855,2.85547-1.15332,4.64844-1.15332,2.52344,0,4.51562.7832,5.97656,2.34863,1.46094,1.56641,2.19141,3.74902,2.19141,6.5498v2.17383h-11.12305c.19922,1.00781.63574,1.79883,1.31152,2.375.6748.5752,1.54883.86328,2.62305.86328,1.77051,0,3.1543-.62012,4.15039-1.85938l2.55664,3.02148c-.69727.96289-1.68555,1.72852-2.96289,2.29883-1.2793.57031-2.6543.85547-4.12598.85547ZM1596.66096,246.0303c-1.6377,0-2.6123,1.08398-2.92188,3.25391h5.64453v-.43164c.02246-.89648-.20508-1.5918-.68066-2.08398-.47656-.49219-1.15625-.73828-2.04199-.73828Z"/>
    <path class="cls-5" d="M1619.67756,247.10843l-1.84277-.13281c-1.75977,0-2.88867.55469-3.38672,1.66016v11.37305h-5.59473v-17.96289h5.24609l.18262,2.30664c.94043-1.75977,2.25195-2.63867,3.93457-2.63867.59766,0,1.11719.06641,1.56055.19922l-.09961,5.19531Z"/>
  </g>
  <g>
    <rect class="cls-1" x="69.09386" y="279.11262" width="181.74959" height="42.13742"/>
    <path class="cls-15" d="M93.57795,313.14847h-22.51172v-4.87402l10.36914-10.90234c2.55566-2.91016,3.83301-5.2207,3.83301-6.93555,0-1.3877-.30273-2.44434-.9082-3.16797s-1.48438-1.08594-2.63672-1.08594c-1.1377,0-2.06055.48438-2.76953,1.45117-.70898.96777-1.06348,2.17578-1.06348,3.62305h-7.48926c0-1.97949.49512-3.80762,1.48438-5.48438.98926-1.67578,2.36328-2.9873,4.12109-3.93262s3.72266-1.41797,5.89453-1.41797c3.48535,0,6.1709.80566,8.05371,2.41504,1.88379,1.61035,2.8252,3.92188,2.8252,6.93555,0,1.27051-.23633,2.50781-.70898,3.71094-.47266,1.2041-1.20703,2.4668-2.2041,3.78906s-2.60352,3.09082-4.81934,5.30664l-4.16602,4.80859h12.69629v5.76074Z"/>
    <path class="cls-15" d="M117.65022,280.4219v5.87207h-.33301c-2.79102,0-5.08496.66797-6.87988,2.00488-1.79395,1.33691-2.89844,3.19434-3.3125,5.57227,1.68457-1.65332,3.81152-2.48145,6.38184-2.48145,2.79199,0,5.01465,1.01953,6.66895,3.05762s2.48242,4.71191,2.48242,8.02051c0,2.05469-.48438,3.9375-1.45215,5.65039-.9668,1.71484-2.31934,3.05469-4.05469,4.02148-1.73535.96875-3.65918,1.45215-5.77148,1.45215-2.29004,0-4.33594-.52051-6.1377-1.5625-1.80273-1.04102-3.20605-2.5293-4.20996-4.46387-1.00488-1.93555-1.52148-4.16602-1.55176-6.69238v-2.99121c0-3.32422.71289-6.31055,2.13867-8.96289,1.42578-2.65137,3.45996-4.73047,6.10449-6.2373,2.64355-1.50684,5.57617-2.25977,8.79688-2.25977h1.12988ZM110.91389,297.1514c-.98926,0-1.81641.22754-2.48145.68359s-1.16016,1.01562-1.48438,1.67676v2.22852c0,4.06055,1.41016,6.09082,4.23145,6.09082,1.1377,0,2.08691-.50781,2.84766-1.52344.76074-1.01465,1.1416-2.28711,1.1416-3.81641,0-1.57422-.38867-2.8584-1.16406-3.85156-.77539-.99219-1.80566-1.48828-3.09082-1.48828Z"/>
    <path class="cls-15" d="M132.90315,305.90335c1.18164,0,2.16406.35059,2.94727,1.05273.78223.70117,1.17383,1.59863,1.17383,2.69141,0,1.09375-.3916,1.99023-1.17383,2.69238-.7832.70215-1.76562,1.05176-2.94727,1.05176-1.19629,0-2.18262-.35352-2.95801-1.0625s-1.16309-1.60352-1.16309-2.68164.3877-1.97266,1.16309-2.68164,1.76172-1.0625,2.95801-1.0625Z"/>
    <path class="cls-15" d="M160.69709,313.14847h-7.48926v-23.8418l-7.35645,2.14941v-5.67188l14.15918-4.89648h.68652v32.26074Z"/>
    <path class="cls-15" d="M195.09455,299.96487c0,4.35742-.97852,7.71777-2.93555,10.08105-1.95801,2.36426-4.7168,3.5459-8.27637,3.5459-3.58887,0-6.36621-1.18848-8.33105-3.56738s-2.94727-5.73145-2.94727-10.05957v-5.89355c0-4.35742.97852-7.71875,2.93652-10.08203,1.95703-2.36328,4.72266-3.54492,8.29785-3.54492,3.57422,0,6.34375,1.18945,8.30859,3.56641,1.96484,2.37891,2.94727,5.73926,2.94727,10.08203v5.87207ZM187.62776,293.11819c0-2.31934-.30273-4.05078-.90918-5.19629-.60547-1.14453-1.56543-1.71777-2.87988-1.71777-1.28516,0-2.21973.5332-2.80273,1.5957-.58398,1.06445-.89746,2.67383-.94238,4.83008v8.24316c0,2.4082.30273,4.16895.90918,5.28418.60547,1.11621,1.56543,1.67383,2.87988,1.67383,1.27051,0,2.20801-.54297,2.81445-1.62891.60547-1.08594.91602-2.78809.93066-5.10742v-7.97656Z"/>
    <path class="cls-15" d="M223.64241,299.96487c0,4.35742-.97852,7.71777-2.93555,10.08105-1.95801,2.36426-4.7168,3.5459-8.27637,3.5459-3.58887,0-6.36621-1.18848-8.33105-3.56738s-2.94727-5.73145-2.94727-10.05957v-5.89355c0-4.35742.97852-7.71875,2.93652-10.08203,1.95703-2.36328,4.72266-3.54492,8.29785-3.54492,3.57422,0,6.34375,1.18945,8.30859,3.56641,1.96484,2.37891,2.94727,5.73926,2.94727,10.08203v5.87207ZM216.17561,293.11819c0-2.31934-.30273-4.05078-.90918-5.19629-.60547-1.14453-1.56543-1.71777-2.87988-1.71777-1.28516,0-2.21973.5332-2.80273,1.5957-.58398,1.06445-.89746,2.67383-.94238,4.83008v8.24316c0,2.4082.30273,4.16895.90918,5.28418.60547,1.11621,1.56543,1.67383,2.87988,1.67383,1.27051,0,2.20801-.54297,2.81445-1.62891.60547-1.08594.91602-2.78809.93066-5.10742v-7.97656Z"/>
  </g>
  <g>
    <rect class="cls-1" x="715.82358" y="338.6058" width="400.14446" height="32.40154"/>
    <path class="cls-5" d="M737.85334,364.10745h-5.79297v-10.09375h-8.58398v10.09375h-5.82617v-24.17188h5.82617v9.5957h8.58398v-9.5957h5.79297v24.17188Z"/>
    <path class="cls-5" d="M751.67366,364.43948c-2.75586,0-4.98633-.82129-6.69141-2.46582-1.7041-1.64258-2.55664-3.78125-2.55664-6.41602v-.46484c0-1.83691.34082-3.45898,1.02148-4.86426s1.67383-2.49316,2.98047-3.2627c1.30469-.76855,2.85547-1.15332,4.64844-1.15332,2.52344,0,4.51562.7832,5.97656,2.34863,1.46094,1.56641,2.19141,3.75,2.19141,6.5498v2.1748h-11.12305c.19922,1.00781.63574,1.79883,1.31055,2.37402.67578.5752,1.5498.86328,2.62305.86328,1.77148,0,3.1543-.62012,4.15039-1.85938l2.55664,3.02148c-.69727.96289-1.68457,1.72949-2.96289,2.2998-1.27832.56934-2.6543.85449-4.125.85449ZM751.0428,350.12893c-1.63867,0-2.61328,1.08496-2.92188,3.25391h5.64453v-.43164c.02148-.89648-.20508-1.59082-.68164-2.08301-.47559-.49219-1.15625-.73926-2.04102-.73926Z"/>
    <path class="cls-5" d="M773.31135,364.10745c-.19922-.36523-.37598-.90137-.53125-1.61035-1.0293,1.29492-2.46777,1.94238-4.31641,1.94238-1.69336,0-3.13184-.51172-4.31641-1.53613-1.18457-1.02344-1.77637-2.30957-1.77637-3.85938,0-1.94727.71875-3.41992,2.1582-4.41602,1.43848-.99609,3.53027-1.49414,6.27539-1.49414h1.72656v-.95117c0-1.65625-.71387-2.48535-2.1416-2.48535-1.32812,0-1.99219.65625-1.99219,1.96875h-5.59473c0-1.73535.73828-3.14551,2.2168-4.22852,1.47656-1.08301,3.36133-1.625,5.65234-1.625s4.10059.55957,5.42871,1.67676c1.32812,1.11816,2.00879,2.65039,2.04199,4.59863v7.95215c.02148,1.64941.27637,2.91113.76367,3.78516v.28223h-5.59473ZM769.80842,360.45511c.69727,0,1.27539-.14941,1.73438-.44824s.78906-.63672.98828-1.0127v-2.87207h-1.62695c-1.94824,0-2.92188.875-2.92188,2.62305,0,.50977.17188.92188.51465,1.23633.34277.31641.78027.47363,1.31152.47363Z"/>
    <path class="cls-5" d="M789.85334,357.45022l2.83887-11.30566h5.89355l-5.86035,17.96289h-5.71094l-5.86035-17.96289h5.91016l2.78906,11.30566Z"/>
    <path class="cls-5" d="M809.13459,356.27151l2.98828-10.12695h5.99219l-7.32031,20.96777-.31641.76367c-1.04004,2.32422-2.87695,3.48633-5.51172,3.48633-.73047,0-1.5-.11035-2.30664-.33008v-3.98633h.73047c.78516,0,1.38574-.11328,1.80078-.34082s.72266-.63379.92188-1.22168l.44727-1.19531-6.24219-18.14355h5.97656l2.83984,10.12695Z"/>
    <path class="cls-5" d="M841.55452,364.10745c-.19922-.36523-.37695-.90137-.53125-1.61035-1.0293,1.29492-2.46875,1.94238-4.31641,1.94238-1.69336,0-3.13281-.51172-4.31641-1.53613-1.18555-1.02344-1.77734-2.30957-1.77734-3.85938,0-1.94727.71973-3.41992,2.1582-4.41602,1.43945-.99609,3.53125-1.49414,6.27539-1.49414h1.72656v-.95117c0-1.65625-.71289-2.48535-2.14062-2.48535-1.32812,0-1.99219.65625-1.99219,1.96875h-5.5957c0-1.73535.73926-3.14551,2.2168-4.22852s3.36133-1.625,5.65234-1.625,4.10156.55957,5.42969,1.67676c1.32812,1.11816,2.00781,2.65039,2.04102,4.59863v7.95215c.02246,1.64941.27734,2.91113.76367,3.78516v.28223h-5.59375ZM838.05061,360.45511c.69727,0,1.27539-.14941,1.73535-.44824.45898-.29883.78809-.63672.9873-1.0127v-2.87207h-1.62695c-1.94727,0-2.92188.875-2.92188,2.62305,0,.50977.17188.92188.51562,1.23633.3418.31641.7793.47363,1.31055.47363Z"/>
    <path class="cls-5" d="M862.0467,351.20804l-1.84277-.13281c-1.75977,0-2.88867.55371-3.38672,1.66016v11.37207h-5.59473v-17.96289h5.24609l.18262,2.30762c.94043-1.75977,2.25195-2.63965,3.93457-2.63965.59766,0,1.11719.06641,1.56055.19922l-.09961,5.19629Z"/>
    <path class="cls-5" d="M873.11018,341.67874v4.46582h2.95508v3.88477h-2.95508v8.21777c0,.67578.12207,1.14551.36523,1.41113s.72461.39844,1.44434.39844c.55273,0,1.01758-.0332,1.39453-.09961v4.00098c-1.00781.32031-2.05859.48145-3.1543.48145-1.92578,0-3.34766-.4541-4.2666-1.36133s-1.37793-2.28516-1.37793-4.13379v-8.91504h-2.29102v-3.88477h2.29102v-4.46582h5.59473Z"/>
    <path class="cls-5" d="M879.92366,341.49612c0-.80176.28711-1.45801.86328-1.9707.57422-.5127,1.32227-.76855,2.24023-.76855.91895,0,1.66602.25586,2.24219.76855.57422.5127.86328,1.16895.86328,1.9707s-.28906,1.45898-.86328,1.9707c-.57617.5127-1.32324.76855-2.24219.76855-.91797,0-1.66602-.25586-2.24023-.76855-.57617-.51172-.86328-1.16895-.86328-1.9707ZM885.86702,364.10745h-5.61133v-17.96289h5.61133v17.96289Z"/>
    <path class="cls-5" d="M896.91389,364.10745h-5.61133v-25.5h5.61133v25.5Z"/>
    <path class="cls-5" d="M907.96077,364.10745h-5.61133v-25.5h5.61133v25.5Z"/>
    <path class="cls-5" d="M921.79573,364.43948c-2.75586,0-4.98633-.82129-6.69043-2.46582-1.70508-1.64258-2.55664-3.78125-2.55664-6.41602v-.46484c0-1.83691.33984-3.45898,1.02148-4.86426.67969-1.40527,1.67383-2.49316,2.97949-3.2627,1.30566-.76855,2.85547-1.15332,4.64844-1.15332,2.52344,0,4.51562.7832,5.97656,2.34863,1.46094,1.56641,2.19141,3.75,2.19141,6.5498v2.1748h-11.12305c.19922,1.00781.63574,1.79883,1.31152,2.37402.6748.5752,1.54883.86328,2.62305.86328,1.77051,0,3.1543-.62012,4.15039-1.85938l2.55664,3.02148c-.69727.96289-1.68555,1.72949-2.96289,2.2998-1.2793.56934-2.6543.85449-4.12598.85449ZM921.16487,350.12893c-1.6377,0-2.6123,1.08496-2.92188,3.25391h5.64453v-.43164c.02246-.89648-.20508-1.59082-.68066-2.08301-.47656-.49219-1.15625-.73926-2.04199-.73926Z"/>
    <path class="cls-5" d="M944.18147,351.20804l-1.84277-.13281c-1.75977,0-2.88867.55371-3.38672,1.66016v11.37207h-5.59473v-17.96289h5.24609l.18262,2.30762c.94043-1.75977,2.25195-2.63965,3.93457-2.63965.59766,0,1.11719.06641,1.56055.19922l-.09961,5.19629Z"/>
    <path class="cls-5" d="M955.37678,356.27151l2.98828-10.12695h5.99414l-7.32227,20.96777-.31445.76367c-1.04102,2.32422-2.87891,3.48633-5.51172,3.48633-.73047,0-1.5-.11035-2.30859-.33008v-3.98633h.73047c.78613,0,1.38672-.11328,1.80176-.34082s.72168-.63379.9209-1.22168l.44922-1.19531-6.24219-18.14355h5.97656l2.83789,10.12695Z"/>
    <path class="cls-5" d="M994.3553,355.25882c0,2.78906-.62891,5.0166-1.88477,6.68164-1.25586,1.66602-2.95312,2.49902-5.08789,2.49902-1.65039,0-3.00586-.60254-4.06836-1.80957v8.38379h-5.59375v-24.86914h5.22852l.16602,1.66016c1.07422-1.32812,2.48438-1.99219,4.23438-1.99219,2.21289,0,3.93359.81641,5.16211,2.44824,1.22852,1.63281,1.84375,3.87695,1.84375,6.73242v.26562ZM988.75959,354.91018c0-3.1875-.92969-4.78125-2.78906-4.78125-1.32812,0-2.21289.47559-2.65625,1.42773v7.07227c.4873.99609,1.38379,1.49414,2.68945,1.49414,1.78223,0,2.70117-1.53809,2.75586-4.61523v-.59766Z"/>
    <path class="cls-5" d="M998.47834,341.49612c0-.80176.28711-1.45801.86328-1.9707.5752-.5127,1.32227-.76855,2.24121-.76855s1.66504.25586,2.24121.76855c.5752.5127.86328,1.16895.86328,1.9707s-.28809,1.45898-.86328,1.9707c-.57617.5127-1.32227.76855-2.24121.76855s-1.66602-.25586-2.24121-.76855c-.57617-.51172-.86328-1.16895-.86328-1.9707ZM1004.4217,364.10745h-5.61133v-17.96289h5.61133v17.96289Z"/>
    <path class="cls-5" d="M1018.25764,364.43948c-2.75586,0-4.98633-.82129-6.69043-2.46582-1.7041-1.64258-2.55664-3.78125-2.55664-6.41602v-.46484c0-1.83691.34082-3.45898,1.02051-4.86426.68164-1.40527,1.67383-2.49316,2.98047-3.2627,1.30566-.76855,2.85547-1.15332,4.64844-1.15332,2.52344,0,4.51562.7832,5.97656,2.34863,1.46094,1.56641,2.19141,3.75,2.19141,6.5498v2.1748h-11.12305c.19922,1.00781.63672,1.79883,1.31152,2.37402s1.5498.86328,2.62305.86328c1.77051,0,3.1543-.62012,4.15039-1.85938l2.55664,3.02148c-.69727.96289-1.68457,1.72949-2.96387,2.2998-1.27734.56934-2.65332.85449-4.125.85449ZM1017.62678,350.12893c-1.63867,0-2.6123,1.08496-2.92188,3.25391h5.64453v-.43164c.02148-.89648-.20508-1.59082-.68066-2.08301s-1.15723-.73926-2.04199-.73926Z"/>
    <path class="cls-5" d="M1037.37287,360.12307c.78516,0,1.39453-.21289,1.82617-.63965.43164-.42578.64062-1.02051.63086-1.78418h5.24609c0,1.96973-.70605,3.58594-2.11719,4.84766s-3.22852,1.89258-5.45312,1.89258c-2.61328,0-4.67188-.81934-6.17578-2.45703-1.50586-1.6377-2.25781-3.90723-2.25781-6.80664v-.23242c0-1.81543.33398-3.41699,1.00391-4.80566s1.63477-2.45703,2.89648-3.20508c1.26172-.74609,2.75586-1.12012,4.48242-1.12012,2.33594,0,4.18945.64746,5.5625,1.94238,1.37109,1.29492,2.05859,3.04883,2.05859,5.2627h-5.24609c0-.92969-.22754-1.64355-.68164-2.1416-.45312-.49805-1.0625-.74707-1.82617-.74707-1.44922,0-2.29688.9248-2.53906,2.77246-.07812.58691-.11719,1.39453-.11719,2.42383,0,1.80469.2168,3.05469.64844,3.75195s1.11719,1.0459,2.05859,1.0459Z"/>
    <path class="cls-5" d="M1057.83186,364.43948c-2.75586,0-4.98633-.82129-6.68945-2.46582-1.70508-1.64258-2.55664-3.78125-2.55664-6.41602v-.46484c0-1.83691.33984-3.45898,1.02051-4.86426s1.67383-2.49316,2.97949-3.2627c1.30664-.76855,2.85547-1.15332,4.64844-1.15332,2.52344,0,4.51562.7832,5.97656,2.34863,1.46094,1.56641,2.19141,3.75,2.19141,6.5498v2.1748h-11.12305c.19922,1.00781.63672,1.79883,1.3125,2.37402.67383.5752,1.54883.86328,2.62305.86328,1.76953,0,3.1543-.62012,4.15039-1.85938l2.55664,3.02148c-.69727.96289-1.68555,1.72949-2.96387,2.2998-1.27832.56934-2.65332.85449-4.12598.85449ZM1057.201,350.12893c-1.6377,0-2.61133,1.08496-2.92188,3.25391h5.64453v-.43164c.02246-.89648-.20508-1.59082-.67969-2.08301-.47656-.49219-1.15723-.73926-2.04297-.73926Z"/>
    <path class="cls-5" d="M1078.75764,359.06057c0-.47559-.25-.85742-.74805-1.14551-.49805-.28711-1.44336-.58594-2.83789-.89648-1.39453-.30957-2.54688-.7168-3.45312-1.2207-.9082-.50293-1.59961-1.11426-2.07617-1.83398-.47559-.71875-.71289-1.54395-.71289-2.47363,0-1.64941.67969-3.00684,2.04102-4.0752s3.14355-1.60254,5.3457-1.60254c2.36914,0,4.27246.53711,5.71094,1.61035,1.43945,1.07422,2.1582,2.48438,2.1582,4.2334h-5.61133c0-1.43848-.75781-2.1582-2.27344-2.1582-.58789,0-1.08008.16309-1.47852.48926-.39844.32715-.59766.73438-.59766,1.2207,0,.49805.24414.90234.73047,1.21191.4873.30957,1.26465.56445,2.33301.76367,1.06738.19922,2.00586.4375,2.81348.71387,2.70117.92969,4.05078,2.5957,4.05078,4.99707,0,1.6377-.72754,2.97168-2.18262,4.00098-1.45605,1.0293-3.33984,1.54395-5.65332,1.54395-1.53809,0-2.91016-.27637-4.11719-.83008-1.20605-.55371-2.14648-1.30566-2.82227-2.25781-.6748-.95215-1.01172-1.95312-1.01172-3.00488h5.22852c.02246.83008.29883,1.43555.83008,1.81836.53125.38086,1.21289.57227,2.04297.57227.76367,0,1.33594-.1543,1.71777-.46484.38184-.30957.57324-.71387.57324-1.21191Z"/>
  </g>
  <g>
    <rect class="cls-1" x="818.84599" y="279.11262" width="222.03791" height="42.13742"/>
    <path class="cls-15" d="M837.36995,313.14847h-7.48926v-23.8418l-7.35645,2.14941v-5.67188l14.1582-4.89648h.6875v32.26074Z"/>
    <path class="cls-15" d="M867.40217,280.4219v5.87207h-.33301c-2.79102,0-5.08496.66797-6.87988,2.00488-1.79395,1.33691-2.89844,3.19434-3.3125,5.57227,1.68457-1.65332,3.81152-2.48145,6.38184-2.48145,2.79199,0,5.01465,1.01953,6.66895,3.05762s2.48242,4.71191,2.48242,8.02051c0,2.05469-.48438,3.9375-1.45215,5.65039-.9668,1.71484-2.31934,3.05469-4.05469,4.02148-1.73535.96875-3.65918,1.45215-5.77148,1.45215-2.29004,0-4.33594-.52051-6.1377-1.5625-1.80273-1.04102-3.20605-2.5293-4.20996-4.46387-1.00488-1.93555-1.52148-4.16602-1.55176-6.69238v-2.99121c0-3.32422.71289-6.31055,2.13867-8.96289,1.42578-2.65137,3.45996-4.73047,6.10449-6.2373,2.64355-1.50684,5.57617-2.25977,8.79688-2.25977h1.12988ZM860.66584,297.1514c-.98926,0-1.81641.22754-2.48145.68359s-1.16016,1.01562-1.48438,1.67676v2.22852c0,4.06055,1.41016,6.09082,4.23145,6.09082,1.1377,0,2.08691-.50781,2.84766-1.52344.76074-1.01465,1.1416-2.28711,1.1416-3.81641,0-1.57422-.38867-2.8584-1.16406-3.85156-.77539-.99219-1.80566-1.48828-3.09082-1.48828Z"/>
    <path class="cls-15" d="M882.6551,305.90335c1.18164,0,2.16406.35059,2.94727,1.05273.78223.70117,1.17383,1.59863,1.17383,2.69141,0,1.09375-.3916,1.99023-1.17383,2.69238-.7832.70215-1.76562,1.05176-2.94727,1.05176-1.19629,0-2.18262-.35352-2.95801-1.0625s-1.16309-1.60352-1.16309-2.68164.3877-1.97266,1.16309-2.68164,1.76172-1.0625,2.95801-1.0625Z"/>
    <path class="cls-15" d="M916.32112,284.876l-12.05371,28.27246h-7.88867l12.07617-26.50098h-15.37695v-5.75977h23.24316v3.98828Z"/>
    <path class="cls-15" d="M944.84651,299.96487c0,4.35742-.97852,7.71777-2.93555,10.08105-1.95801,2.36426-4.7168,3.5459-8.27637,3.5459-3.58887,0-6.36621-1.18848-8.33105-3.56738s-2.94727-5.73145-2.94727-10.05957v-5.89355c0-4.35742.97852-7.71875,2.93652-10.08203,1.95703-2.36328,4.72266-3.54492,8.29785-3.54492,3.57422,0,6.34375,1.18945,8.30859,3.56641,1.96484,2.37891,2.94727,5.73926,2.94727,10.08203v5.87207ZM937.37971,293.11819c0-2.31934-.30273-4.05078-.90918-5.19629-.60547-1.14453-1.56543-1.71777-2.87988-1.71777-1.28516,0-2.21973.5332-2.80273,1.5957-.58398,1.06445-.89746,2.67383-.94238,4.83008v8.24316c0,2.4082.30273,4.16895.90918,5.28418.60547,1.11621,1.56543,1.67383,2.87988,1.67383,1.27051,0,2.20801-.54297,2.81445-1.62891.60547-1.08594.91602-2.78809.93066-5.10742v-7.97656Z"/>
    <path class="cls-15" d="M973.39436,299.96487c0,4.35742-.97852,7.71777-2.93555,10.08105-1.95801,2.36426-4.7168,3.5459-8.27637,3.5459-3.58887,0-6.36621-1.18848-8.33105-3.56738s-2.94727-5.73145-2.94727-10.05957v-5.89355c0-4.35742.97852-7.71875,2.93652-10.08203,1.95703-2.36328,4.72266-3.54492,8.29785-3.54492,3.57422,0,6.34375,1.18945,8.30859,3.56641,1.96484,2.37891,2.94727,5.73926,2.94727,10.08203v5.87207ZM965.92756,293.11819c0-2.31934-.30273-4.05078-.90918-5.19629-.60547-1.14453-1.56543-1.71777-2.87988-1.71777-1.28516,0-2.21973.5332-2.80273,1.5957-.58398,1.06445-.89746,2.67383-.94238,4.83008v8.24316c0,2.4082.30273,4.16895.90918,5.28418.60547,1.11621,1.56543,1.67383,2.87988,1.67383,1.27051,0,2.20801-.54297,2.81445-1.62891.60547-1.08594.91602-2.78809.93066-5.10742v-7.97656Z"/>
  </g>
  <g>
    <rect class="cls-1" x="1542.80943" y="338.6058" width="293.87008" height="42.13742"/>
    <path class="cls-5" d="M1564.19221,355.92288c-.07812,1.68359-.53125,3.16895-1.36133,4.45801-.83008,1.29004-1.99512,2.28809-3.49512,2.99707-1.5.70801-3.21191,1.0625-5.1377,1.0625-3.17676,0-5.67773-1.03516-7.50391-3.10547-1.82617-2.06836-2.73926-4.99023-2.73926-8.76562v-1.19531c0-2.36719.41211-4.44043,1.23633-6.2168s2.01172-3.14844,3.56152-4.11719c1.54883-.96875,3.3418-1.45312,5.37891-1.45312,2.93262,0,5.29004.77246,7.07227,2.31641,1.78125,1.54395,2.79395,3.67188,3.03809,6.38281h-5.81055c-.04492-1.4707-.41504-2.52832-1.1123-3.16992-.69727-.64258-1.75977-.96289-3.1875-.96289-1.4502,0-2.5127.54199-3.1875,1.62695-.67578,1.08398-1.0293,2.81641-1.0625,5.19531v1.71094c0,2.57812.32324,4.42188.9707,5.52734.64746,1.10742,1.7627,1.66016,3.3457,1.66016,1.33887,0,2.3623-.31445,3.07129-.94531.70801-.63086,1.08398-1.63281,1.12891-3.00586h5.79395Z"/>
    <path class="cls-5" d="M1567.68537,354.95999c0-1.79297.34863-3.38867,1.0459-4.78906s1.69824-2.47656,3.00488-3.22852c1.30566-.75293,2.83887-1.12891,4.59863-1.12891,2.68945,0,4.80859.83203,6.3584,2.49805,1.54883,1.66602,2.32422,3.93164,2.32422,6.79883v.19922c0,2.7998-.77832,5.02148-2.33301,6.66504s-3.66016,2.46582-6.31641,2.46582c-2.55664,0-4.61035-.7666-6.15918-2.2998-1.5498-1.53223-2.38574-3.61035-2.50684-6.2334l-.0166-.94727ZM1573.2801,355.3096c0,1.66016.25977,2.87695.78027,3.65234.51953.77441,1.28906,1.16211,2.30762,1.16211,1.99219,0,3.00977-1.5332,3.05469-4.59961v-.56445c0-3.2207-1.0293-4.83008-3.08789-4.83008-1.87109,0-2.88379,1.38867-3.03809,4.16602l-.0166,1.01367Z"/>
    <path class="cls-5" d="M1594.46955,346.14554l.18262,2.10742c1.27246-1.62695,2.98242-2.43945,5.12988-2.43945,2.26855,0,3.80176.90234,4.59863,2.70508,1.21777-1.80273,2.97754-2.70508,5.2793-2.70508,3.6416,0,5.51172,2.20215,5.61133,6.60742v11.6875h-5.61133v-11.33984c0-.91797-.15527-1.58789-.46484-2.00781-.30957-.4209-.87402-.63086-1.69336-.63086-1.10645,0-1.93164.49219-2.47363,1.47656l.0166.23242v12.26953h-5.61133v-11.30664c0-.93945-.14941-1.62109-.44824-2.04102-.29883-.4209-.86914-.63086-1.70996-.63086-1.07324,0-1.89258.49219-2.45703,1.47656v12.50195h-5.59473v-17.96289h5.24609Z"/>
    <path class="cls-5" d="M1636.84358,355.2764c0,2.94336-.6084,5.20703-1.82617,6.78906-1.21777,1.58398-2.93262,2.375-5.14648,2.375-1.82617,0-3.29785-.72461-4.41602-2.17578l-.23242,1.84375h-5.01367v-25.5h5.59473v8.98047c1.04004-1.18359,2.38477-1.77539,4.03418-1.77539,2.23535,0,3.96191.80273,5.17969,2.40625,1.21777,1.60547,1.82617,3.86328,1.82617,6.77344v.2832ZM1631.23225,354.91897c0-1.72266-.22949-2.95312-.68848-3.6875-.45996-.73438-1.16504-1.10156-2.11719-1.10156-1.26172,0-2.13574.48047-2.62305,1.44141v7.12695c.47559.9502,1.36133,1.42578,2.65625,1.42578,1.31738,0,2.15234-.64062,2.50684-1.92383.17676-.62891.26562-1.72266.26562-3.28125Z"/>
    <path class="cls-5" d="M1651.12776,364.10843c-.19922-.36523-.37695-.90234-.53125-1.61133-1.0293,1.29492-2.46875,1.94336-4.31641,1.94336-1.69336,0-3.13281-.51172-4.31641-1.53613-1.18457-1.02344-1.77637-2.30957-1.77637-3.86035,0-1.94727.71875-3.41992,2.1582-4.41602,1.43848-.99609,3.53027-1.49414,6.27539-1.49414h1.72656v-.95117c0-1.65625-.71387-2.48438-2.1416-2.48438-1.32812,0-1.99219.65625-1.99219,1.96875h-5.59473c0-1.73633.73828-3.14551,2.21582-4.22852,1.47754-1.08398,3.3623-1.625,5.65332-1.625s4.10059.55859,5.42871,1.67578c1.32812,1.11914,2.00879,2.65137,2.04199,4.59961v7.95117c.02148,1.65039.27637,2.91211.76367,3.78516v.2832h-5.59473ZM1647.62483,360.45608c.69727,0,1.27539-.15039,1.73438-.44922s.78906-.63574.98828-1.01172v-2.87305h-1.62695c-1.94824,0-2.92188.875-2.92188,2.62305,0,.50977.1709.92188.51465,1.2373.34277.31543.78027.47363,1.31152.47363Z"/>
    <path class="cls-5" d="M1667.27131,341.67874v4.4668h2.95508v3.88477h-2.95508v8.2168c0,.67578.12109,1.14648.36523,1.41211.24316.26562.72461.39844,1.44434.39844.55273,0,1.01758-.0332,1.39453-.09961v4c-1.00781.32129-2.05859.48242-3.1543.48242-1.92578,0-3.34863-.4541-4.2666-1.36133-.91895-.9082-1.37793-2.28516-1.37793-4.13477v-8.91406h-2.29102v-3.88477h2.29102v-4.4668h5.59473Z"/>
    <path class="cls-5" d="M1698.27912,359.5928h-7.98535l-1.39453,4.51562h-6.22559l8.86523-24.17188h5.47852l8.93164,24.17188h-6.25879l-1.41113-4.51562ZM1691.6883,355.0928h5.19629l-2.60645-8.38281-2.58984,8.38281Z"/>
    <path class="cls-5" d="M1709.11018,341.4971c0-.80273.28809-1.45898.86328-1.9707.5752-.5127,1.32227-.76953,2.24121-.76953s1.66602.25684,2.24121.76953c.5752.51172.86328,1.16797.86328,1.9707,0,.80078-.28809,1.45898-.86328,1.9707s-1.32227.76758-2.24121.76758-1.66602-.25586-2.24121-.76758-.86328-1.16992-.86328-1.9707ZM1715.05354,364.10843h-5.61133v-17.96289h5.61133v17.96289Z"/>
    <path class="cls-5" d="M1731.06428,351.20804l-1.84277-.13281c-1.75977,0-2.88867.55469-3.38672,1.66016v11.37305h-5.59473v-17.96289h5.24609l.18262,2.30664c.94043-1.75977,2.25195-2.63867,3.93457-2.63867.59766,0,1.11719.06641,1.56055.19922l-.09961,5.19531Z"/>
    <path class="cls-5" d="M1742.06135,360.12405c.78516,0,1.39453-.21289,1.82617-.63965.43164-.42578.6416-1.02051.63086-1.78418h5.24609c0,1.96973-.70605,3.58594-2.11719,4.84766s-3.22852,1.89258-5.45312,1.89258c-2.6123,0-4.6709-.81934-6.17578-2.45703-1.50586-1.63867-2.25781-3.90723-2.25781-6.80664v-.23242c0-1.81543.33398-3.41797,1.00391-4.80664s1.63574-2.45703,2.89746-3.2041,2.75586-1.12012,4.48242-1.12012c2.33496,0,4.18848.64648,5.56152,1.94141,1.37207,1.29492,2.05859,3.0498,2.05859,5.26367h-5.24609c0-.92969-.22754-1.64453-.68066-2.14258-.4541-.49805-1.0625-.74609-1.82617-.74609-1.4502,0-2.29688.92383-2.54004,2.77148-.07812.58789-.11621,1.39453-.11621,2.42383,0,1.80469.21582,3.05469.64746,3.75195s1.11719,1.04688,2.05859,1.04688Z"/>
    <path class="cls-5" d="M1764.69612,351.20804l-1.84277-.13281c-1.75977,0-2.88867.55469-3.38672,1.66016v11.37305h-5.59473v-17.96289h5.24609l.18262,2.30664c.94043-1.75977,2.25195-2.63867,3.93457-2.63867.59766,0,1.11719.06641,1.56055.19922l-.09961,5.19531Z"/>
    <path class="cls-5" d="M1778.03303,364.10843c-.19922-.36523-.37598-.90234-.53125-1.61133-1.0293,1.29492-2.46777,1.94336-4.31641,1.94336-1.69336,0-3.13184-.51172-4.31641-1.53613-1.18457-1.02344-1.77637-2.30957-1.77637-3.86035,0-1.94727.71973-3.41992,2.1582-4.41602s3.53027-1.49414,6.27539-1.49414h1.72656v-.95117c0-1.65625-.71387-2.48438-2.1416-2.48438-1.32812,0-1.99219.65625-1.99219,1.96875h-5.59473c0-1.73633.73926-3.14551,2.2168-4.22852,1.47754-1.08398,3.36133-1.625,5.65234-1.625s4.10059.55859,5.42871,1.67578c1.32812,1.11914,2.00879,2.65137,2.04199,4.59961v7.95117c.02246,1.65039.27637,2.91211.76367,3.78516v.2832h-5.59473ZM1774.5301,360.45608c.69727,0,1.27539-.15039,1.73535-.44922.45898-.29883.78809-.63574.9873-1.01172v-2.87305h-1.62695c-1.94824,0-2.92188.875-2.92188,2.62305,0,.50977.17188.92188.51465,1.2373s.78027.47363,1.31152.47363Z"/>
    <path class="cls-5" d="M1788.89729,364.10843v-14.07812h-2.60645v-3.88477h2.60645v-1.42773c0-2.04785.60352-3.63672,1.80957-4.76562s2.89941-1.69336,5.08008-1.69336c.79688,0,1.6709.11719,2.62305.34961l.0166,4.11719c-.34277-.09961-.80273-.15039-1.37793-.15039-1.69336,0-2.54004.73047-2.54004,2.19141v1.37891h3.50293v3.88477h-3.50293v14.07812h-5.61133Z"/>
    <path class="cls-5" d="M1808.19514,341.67874v4.4668h2.95508v3.88477h-2.95508v8.2168c0,.67578.12109,1.14648.36523,1.41211.24316.26562.72461.39844,1.44434.39844.55273,0,1.01758-.0332,1.39453-.09961v4c-1.00781.32129-2.05859.48242-3.1543.48242-1.92578,0-3.34863-.4541-4.2666-1.36133-.91895-.9082-1.37793-2.28516-1.37793-4.13477v-8.91406h-2.29102v-3.88477h2.29102v-4.4668h5.59473Z"/>
    <path class="cls-5" d="M1824.45491,359.06155c0-.47656-.24902-.85742-.74707-1.14648-.49805-.28711-1.44434-.58594-2.83887-.89648-1.39453-.30859-2.5459-.71582-3.45312-1.21973-.9082-.50293-1.59961-1.11426-2.0752-1.83496-.47656-.71875-.71387-1.54297-.71387-2.47266,0-1.64941.68066-3.00781,2.04199-4.07617s3.14258-1.60156,5.3457-1.60156c2.36816,0,4.27148.53711,5.71094,1.60938,1.43848,1.07422,2.1582,2.48535,2.1582,4.23438h-5.61133c0-1.43945-.75879-2.1582-2.27441-2.1582-.58691,0-1.0791.16309-1.47754.48926-.39844.32715-.59766.7334-.59766,1.21973,0,.49805.24316.90234.73047,1.21289.48633.30957,1.26367.56445,2.33203.76367s2.00586.4375,2.81445.71289c2.7002.92969,4.05078,2.5957,4.05078,4.99805,0,1.6377-.72852,2.9707-2.18359,4s-3.33984,1.54492-5.65234,1.54492c-1.53906,0-2.91113-.27734-4.11719-.83008-1.20703-.55371-2.14746-1.30664-2.82227-2.25781-.67578-.95215-1.0127-1.95312-1.0127-3.00586h5.22949c.02148.83008.29883,1.43652.83008,1.81836s1.21191.57227,2.04199.57227c.76367,0,1.33594-.1543,1.71777-.46484.38184-.30859.57324-.71289.57324-1.21094Z"/>
  </g>
  <g>
    <rect class="cls-1" x="1230.64215" y="279.11262" width="149.91197" height="42.13742"/>
    <path class="cls-15" d="M1255.12678,313.14847h-22.5127v-4.87402l10.37012-10.90234c2.55469-2.91016,3.83301-5.2207,3.83301-6.93555,0-1.3877-.30273-2.44434-.9082-3.16797-.60645-.72363-1.48438-1.08594-2.63672-1.08594-1.1377,0-2.06055.48438-2.76953,1.45117-.70996.96777-1.06445,2.17578-1.06445,3.62305h-7.48926c0-1.97949.49512-3.80762,1.48535-5.48438.98926-1.67578,2.36328-2.9873,4.12109-3.93262s3.72266-1.41797,5.89355-1.41797c3.48633,0,6.1709.80566,8.05469,2.41504,1.88281,1.61035,2.8252,3.92188,2.8252,6.93555,0,1.27051-.23633,2.50781-.70898,3.71094-.47363,1.2041-1.20801,2.4668-2.20508,3.78906s-2.60352,3.09082-4.81934,5.30664l-4.16504,4.80859h12.69629v5.76074Z"/>
    <path class="cls-15" d="M1265.90412,305.90335c1.18164,0,2.16309.35059,2.94629,1.05273.7832.70117,1.1748,1.59863,1.1748,2.69141,0,1.09375-.3916,1.99023-1.1748,2.69238s-1.76465,1.05176-2.94629,1.05176c-1.19727,0-2.18262-.35352-2.95801-1.0625-.77637-.70898-1.16406-1.60352-1.16406-2.68164s.3877-1.97266,1.16406-2.68164c.77539-.70898,1.76074-1.0625,2.95801-1.0625Z"/>
    <path class="cls-15" d="M1295.18245,280.4219v5.87207h-.33203c-2.79199,0-5.08496.66797-6.87988,2.00488s-2.89941,3.19434-3.3125,5.57227c1.68359-1.65332,3.81055-2.48145,6.38086-2.48145,2.79199,0,5.01562,1.01953,6.66992,3.05762s2.48145,4.71191,2.48145,8.02051c0,2.05469-.48438,3.9375-1.45117,5.65039-.96777,1.71484-2.31934,3.05469-4.05469,4.02148-1.73633.96875-3.66016,1.45215-5.77246,1.45215-2.29004,0-4.33594-.52051-6.1377-1.5625-1.80176-1.04102-3.20508-2.5293-4.20996-4.46387-1.00488-1.93555-1.52148-4.16602-1.55078-6.69238v-2.99121c0-3.32422.71289-6.31055,2.1377-8.96289,1.42578-2.65137,3.46094-4.73047,6.10449-6.2373,2.64453-1.50684,5.57617-2.25977,8.79688-2.25977h1.12988ZM1288.44709,297.1514c-.99023,0-1.81738.22754-2.48242.68359-.66406.45605-1.15918,1.01562-1.48438,1.67676v2.22852c0,4.06055,1.41113,6.09082,4.23242,6.09082,1.1377,0,2.08594-.50781,2.84766-1.52344.75977-1.01465,1.14062-2.28711,1.14062-3.81641,0-1.57422-.3877-2.8584-1.16309-3.85156-.77539-.99219-1.80566-1.48828-3.09082-1.48828Z"/>
    <path class="cls-15" d="M1328.09553,299.96487c0,4.35742-.97949,7.71777-2.93652,10.08105-1.95703,2.36426-4.71582,3.5459-8.27539,3.5459-3.58984,0-6.36719-1.18848-8.33105-3.56738-1.96484-2.37891-2.94727-5.73145-2.94727-10.05957v-5.89355c0-4.35742.97852-7.71875,2.93555-10.08203s4.72363-3.54492,8.29785-3.54492c3.5752,0,6.34473,1.18945,8.30957,3.56641,1.96387,2.37891,2.94727,5.73926,2.94727,10.08203v5.87207ZM1320.62776,293.11819c0-2.31934-.30273-4.05078-.9082-5.19629-.60547-1.14453-1.56641-1.71777-2.88086-1.71777-1.28516,0-2.21875.5332-2.80273,1.5957-.58398,1.06445-.89746,2.67383-.94141,4.83008v8.24316c0,2.4082.30273,4.16895.9082,5.28418.60547,1.11621,1.56543,1.67383,2.88086,1.67383,1.26953,0,2.20801-.54297,2.81348-1.62891s.91602-2.78809.93066-5.10742v-7.97656Z"/>
    <path class="cls-15" d="M1356.64338,299.96487c0,4.35742-.97949,7.71777-2.93652,10.08105-1.95703,2.36426-4.71582,3.5459-8.27539,3.5459-3.58984,0-6.36719-1.18848-8.33105-3.56738-1.96484-2.37891-2.94727-5.73145-2.94727-10.05957v-5.89355c0-4.35742.97852-7.71875,2.93555-10.08203s4.72363-3.54492,8.29785-3.54492c3.5752,0,6.34473,1.18945,8.30957,3.56641,1.96387,2.37891,2.94727,5.73926,2.94727,10.08203v5.87207ZM1349.17561,293.11819c0-2.31934-.30273-4.05078-.9082-5.19629-.60547-1.14453-1.56641-1.71777-2.88086-1.71777-1.28516,0-2.21875.5332-2.80273,1.5957-.58398,1.06445-.89746,2.67383-.94141,4.83008v8.24316c0,2.4082.30273,4.16895.9082,5.28418.60547,1.11621,1.56543,1.67383,2.88086,1.67383,1.26953,0,2.20801-.54297,2.81348-1.62891s.91602-2.78809.93066-5.10742v-7.97656Z"/>
  </g>
  <g>
    <rect class="cls-1" x="1145.60368" y="338.6058" width="351.51672" height="42.13742"/>
    <path class="cls-5" d="M1161.15998,359.59182h-7.98633l-1.39453,4.51562h-6.22461l8.86523-24.17188h5.47852l8.93164,24.17188h-6.25977l-1.41016-4.51562ZM1154.56819,355.0928h5.19727l-2.60742-8.38379-2.58984,8.38379Z"/>
    <path class="cls-5" d="M1178.26545,341.67874v4.46582h2.95508v3.88477h-2.95508v8.21777c0,.67578.12207,1.14551.36523,1.41113.24414.26562.72461.39844,1.44531.39844.55273,0,1.01758-.0332,1.39453-.09961v4.00098c-1.00781.32031-2.05859.48145-3.1543.48145-1.92578,0-3.34863-.4541-4.26758-1.36133-.91797-.90723-1.37695-2.28516-1.37695-4.13379v-8.91504h-2.29102v-3.88477h2.29102v-4.46582h5.59375Z"/>
    <path class="cls-5" d="M1191.63655,341.67874v4.46582h2.95508v3.88477h-2.95508v8.21777c0,.67578.12109,1.14551.36523,1.41113.24316.26562.72461.39844,1.44434.39844.55371,0,1.01855-.0332,1.39453-.09961v4.00098c-1.00684.32031-2.05859.48145-3.1543.48145-1.92578,0-3.34863-.4541-4.2666-1.36133-.91895-.90723-1.37793-2.28516-1.37793-4.13379v-8.91504h-2.29102v-3.88477h2.29102v-4.46582h5.59473Z"/>
    <path class="cls-5" d="M1208.61018,364.10745c-.19922-.36523-.37598-.90137-.53125-1.61035-1.0293,1.29492-2.46777,1.94238-4.31641,1.94238-1.69336,0-3.13184-.51172-4.31641-1.53613-1.18457-1.02344-1.77637-2.30957-1.77637-3.85938,0-1.94727.71875-3.41992,2.1582-4.41602,1.43848-.99609,3.53027-1.49414,6.27539-1.49414h1.72656v-.95117c0-1.65625-.71387-2.48535-2.1416-2.48535-1.32812,0-1.99219.65625-1.99219,1.96875h-5.59473c0-1.73535.73828-3.14551,2.2168-4.22852,1.47656-1.08301,3.36133-1.625,5.65234-1.625s4.10059.55957,5.42871,1.67676c1.32812,1.11816,2.00879,2.65039,2.04199,4.59863v7.95215c.02148,1.64941.27637,2.91113.76367,3.78516v.28223h-5.59473ZM1205.10725,360.45511c.69727,0,1.27539-.14941,1.73438-.44824s.78906-.63672.98828-1.0127v-2.87207h-1.62695c-1.94824,0-2.92188.875-2.92188,2.62305,0,.50977.17188.92188.51465,1.23633.34277.31641.78027.47363,1.31152.47363Z"/>
    <path class="cls-5" d="M1225.83186,360.12307c.78613,0,1.39453-.21289,1.82617-.63965.43164-.42578.64258-1.02051.63086-1.78418h5.24609c0,1.96973-.70508,3.58594-2.11621,4.84766s-3.22949,1.89258-5.4541,1.89258c-2.61133,0-4.66992-.81934-6.17578-2.45703-1.50488-1.6377-2.25781-3.90723-2.25781-6.80664v-.23242c0-1.81543.33496-3.41699,1.00488-4.80566.66895-1.38867,1.63574-2.45703,2.89746-3.20508,1.26172-.74609,2.75586-1.12012,4.48242-1.12012,2.33398,0,4.18848.64746,5.56055,1.94238,1.37305,1.29492,2.05859,3.04883,2.05859,5.2627h-5.24609c0-.92969-.22656-1.64355-.67969-2.1416-.45508-.49805-1.0625-.74707-1.82617-.74707-1.45117,0-2.29688.9248-2.54102,2.77246-.07715.58691-.11523,1.39453-.11523,2.42383,0,1.80469.21484,3.05469.64648,3.75195s1.11816,1.0459,2.05859,1.0459Z"/>
    <path class="cls-5" d="M1244.81428,357.41702l-1.57617,1.57715v5.11328h-5.5957v-25.5166h5.5957v13.54688l.56445-.74707,4.2168-5.24609h6.70703l-6.29297,7.3877,6.70703,10.5752h-6.4082l-3.91797-6.69043Z"/>
    <path class="cls-5" d="M1288.52327,364.10745h-5.79395v-10.09375h-8.58301v10.09375h-5.82715v-24.17188h5.82715v9.5957h8.58301v-9.5957h5.79395v24.17188Z"/>
    <path class="cls-5" d="M1302.3426,364.43948c-2.75586,0-4.98633-.82129-6.69043-2.46582-1.70508-1.64258-2.55664-3.78125-2.55664-6.41602v-.46484c0-1.83691.33984-3.45898,1.02148-4.86426.67969-1.40527,1.67383-2.49316,2.97949-3.2627,1.30566-.76855,2.85547-1.15332,4.64844-1.15332,2.52344,0,4.51562.7832,5.97656,2.34863,1.46094,1.56641,2.19141,3.75,2.19141,6.5498v2.1748h-11.12305c.19922,1.00781.63574,1.79883,1.31152,2.37402.6748.5752,1.54883.86328,2.62305.86328,1.77051,0,3.1543-.62012,4.15039-1.85938l2.55664,3.02148c-.69727.96289-1.68555,1.72949-2.96289,2.2998-1.2793.56934-2.6543.85449-4.12598.85449ZM1301.71174,350.12893c-1.6377,0-2.6123,1.08496-2.92188,3.25391h5.64453v-.43164c.02246-.89648-.20508-1.59082-.68066-2.08301-.47656-.49219-1.15625-.73926-2.04199-.73926Z"/>
    <path class="cls-5" d="M1319.7635,364.10745h-5.61133v-25.5h5.61133v25.5Z"/>
    <path class="cls-5" d="M1324.86702,341.49612c0-.80176.28809-1.45801.86328-1.9707.57617-.5127,1.32227-.76855,2.24219-.76855.91797,0,1.66504.25586,2.24023.76855.57617.5127.86328,1.16895.86328,1.9707s-.28711,1.45898-.86328,1.9707c-.5752.5127-1.32227.76855-2.24023.76855-.91992,0-1.66602-.25586-2.24219-.76855-.5752-.51172-.86328-1.16895-.86328-1.9707ZM1330.81037,364.10745h-5.61133v-17.96289h5.61133v17.96289Z"/>
    <path class="cls-5" d="M1343.55061,360.12307c.78613,0,1.39453-.21289,1.82617-.63965.43164-.42578.64258-1.02051.63086-1.78418h5.24609c0,1.96973-.70508,3.58594-2.11621,4.84766s-3.22949,1.89258-5.4541,1.89258c-2.61133,0-4.66992-.81934-6.17578-2.45703-1.50488-1.6377-2.25781-3.90723-2.25781-6.80664v-.23242c0-1.81543.33496-3.41699,1.00488-4.80566.66895-1.38867,1.63574-2.45703,2.89746-3.20508,1.26172-.74609,2.75586-1.12012,4.48242-1.12012,2.33398,0,4.18848.64746,5.56055,1.94238,1.37305,1.29492,2.05859,3.04883,2.05859,5.2627h-5.24609c0-.92969-.22656-1.64355-.67969-2.1416-.45508-.49805-1.0625-.74707-1.82617-.74707-1.45117,0-2.29688.9248-2.54102,2.77246-.07715.58691-.11523,1.39453-.11523,2.42383,0,1.80469.21484,3.05469.64648,3.75195s1.11816,1.0459,2.05859,1.0459Z"/>
    <path class="cls-5" d="M1354.61409,354.95999c0-1.79297.34863-3.38867,1.0459-4.78906s1.69922-2.47656,3.00488-3.22949,2.83887-1.12891,4.59863-1.12891c2.68945,0,4.80859.83301,6.3584,2.49902s2.32422,3.93164,2.32422,6.79785v.19922c0,2.7998-.77832,5.02246-2.33301,6.66504-1.55469,1.64453-3.66016,2.46582-6.31641,2.46582-2.55664,0-4.60938-.7666-6.15918-2.2998-1.5498-1.53223-2.38574-3.61035-2.50684-6.2334l-.0166-.94629ZM1360.20881,355.30862c0,1.66016.25977,2.87793.78027,3.65234s1.28906,1.16211,2.30762,1.16211c1.99219,0,3.00977-1.53223,3.05469-4.59863v-.56445c0-3.2207-1.0293-4.83105-3.08789-4.83105-1.87109,0-2.88281,1.38965-3.03809,4.16699l-.0166,1.0127Z"/>
    <path class="cls-5" d="M1392.78791,355.25882c0,2.78906-.62793,5.0166-1.88379,6.68164-1.25684,1.66602-2.95312,2.49902-5.08887,2.49902-1.64941,0-3.00488-.60254-4.06738-1.80957v8.38379h-5.59473v-24.86914h5.22949l.16602,1.66016c1.07324-1.32812,2.48438-1.99219,4.2334-1.99219,2.21387,0,3.93457.81641,5.16309,2.44824,1.22852,1.63281,1.84277,3.87695,1.84277,6.73242v.26562ZM1387.19319,354.91018c0-3.1875-.92969-4.78125-2.78906-4.78125-1.32812,0-2.21387.47559-2.65625,1.42773v7.07227c.48633.99609,1.38281,1.49414,2.68945,1.49414,1.78125,0,2.7002-1.53809,2.75586-4.61523v-.59766Z"/>
    <path class="cls-5" d="M1403.46858,341.67874v4.46582h2.95508v3.88477h-2.95508v8.21777c0,.67578.12207,1.14551.36523,1.41113.24414.26562.72461.39844,1.44531.39844.55273,0,1.01758-.0332,1.39453-.09961v4.00098c-1.00781.32031-2.05859.48145-3.1543.48145-1.92578,0-3.34863-.4541-4.26758-1.36133-.91797-.90723-1.37695-2.28516-1.37695-4.13379v-8.91504h-2.29102v-3.88477h2.29102v-4.46582h5.59375Z"/>
    <path class="cls-5" d="M1419.01545,364.43948c-2.75586,0-4.98633-.82129-6.69141-2.46582-1.7041-1.64258-2.55664-3.78125-2.55664-6.41602v-.46484c0-1.83691.34082-3.45898,1.02148-4.86426s1.67383-2.49316,2.98047-3.2627c1.30469-.76855,2.85547-1.15332,4.64844-1.15332,2.52344,0,4.51562.7832,5.97656,2.34863,1.46094,1.56641,2.19141,3.75,2.19141,6.5498v2.1748h-11.12305c.19922,1.00781.63574,1.79883,1.31055,2.37402.67578.5752,1.5498.86328,2.62305.86328,1.77148,0,3.1543-.62012,4.15039-1.85938l2.55664,3.02148c-.69727.96289-1.68457,1.72949-2.96289,2.2998-1.27832.56934-2.6543.85449-4.125.85449ZM1418.38459,350.12893c-1.63867,0-2.61328,1.08496-2.92188,3.25391h5.64453v-.43164c.02148-.89648-.20508-1.59082-.68164-2.08301-.47559-.49219-1.15625-.73926-2.04102-.73926Z"/>
    <path class="cls-5" d="M1441.40022,351.20804l-1.8418-.13281c-1.75977,0-2.88867.55371-3.38672,1.66016v11.37207h-5.5957v-17.96289h5.24609l.18359,2.30762c.93945-1.75977,2.25195-2.63965,3.93359-2.63965.59766,0,1.11816.06641,1.56055.19922l-.09961,5.19629Z"/>
    <path class="cls-5" d="M1454.52229,359.06057c0-.47559-.24902-.85742-.74707-1.14551-.49805-.28711-1.44434-.58594-2.83887-.89648-1.39453-.30957-2.5459-.7168-3.45312-1.2207-.90723-.50293-1.59961-1.11426-2.0752-1.83398-.47656-.71875-.71387-1.54395-.71387-2.47363,0-1.64941.68066-3.00684,2.04199-4.0752s3.14258-1.60254,5.3457-1.60254c2.36816,0,4.27148.53711,5.71094,1.61035,1.43848,1.07422,2.1582,2.48438,2.1582,4.2334h-5.61133c0-1.43848-.75781-2.1582-2.27441-2.1582-.58691,0-1.0791.16309-1.47754.48926-.39844.32715-.59766.73438-.59766,1.2207,0,.49805.24316.90234.73047,1.21191.48633.30957,1.26367.56445,2.33203.76367s2.00586.4375,2.81445.71387c2.7002.92969,4.05078,2.5957,4.05078,4.99707,0,1.6377-.72852,2.97168-2.18359,4.00098s-3.33984,1.54395-5.65234,1.54395c-1.53906,0-2.91113-.27637-4.11719-.83008-1.20703-.55371-2.14746-1.30566-2.82227-2.25781-.67578-.95215-1.0127-1.95312-1.0127-3.00488h5.22949c.02148.83008.29883,1.43555.83008,1.81836.53125.38086,1.21191.57227,2.04199.57227.76367,0,1.33691-.1543,1.71777-.46484.38281-.30957.57324-.71387.57324-1.21191Z"/>
  </g>
  <g>
    <rect class="cls-1" x="1616.01187" y="279.11262" width="149.91197" height="42.13742"/>
    <path class="cls-15" d="M1624.80842,293.89358h3.52344c2.79102,0,4.1875-1.36621,4.1875-4.09961,0-1.0625-.33301-1.93066-.99707-2.60352-.66504-.67188-1.60352-1.00781-2.81445-1.00781-.98926,0-1.84961.28809-2.58105.86426s-1.09668,1.29199-1.09668,2.14941h-7.4668c0-1.69922.47168-3.21289,1.41797-4.54297.94434-1.3291,2.25586-2.36719,3.93262-3.11328,1.67676-.74512,3.51953-1.11816,5.52832-1.11816,3.58984,0,6.41113.81934,8.46387,2.45996,2.05371,1.63867,3.08008,3.8916,3.08008,6.75781,0,1.38867-.4248,2.69922-1.27344,3.93262-.84961,1.2334-2.08691,2.23438-3.71191,3.00293,1.71387.61914,3.05762,1.56152,4.0332,2.82422.97461,1.26367,1.46191,2.8252,1.46191,4.68652,0,2.87988-1.10742,5.18457-3.32324,6.91309s-5.12598,2.59277-8.73047,2.59277c-2.1123,0-4.07324-.40332-5.88281-1.20801s-3.17969-1.91992-4.11035-3.3457-1.39551-3.04688-1.39551-4.86328h7.51074c0,.99023.39941,1.84668,1.19727,2.57031.79688.72363,1.7793,1.08594,2.94629,1.08594,1.31445,0,2.36328-.36621,3.14648-1.09766.7832-.73047,1.1748-1.66504,1.1748-2.80273,0-1.625-.40723-2.77734-1.21875-3.45703-.8125-.67871-1.93555-1.01855-3.36816-1.01855h-3.63379v-5.56152Z"/>
    <path class="cls-15" d="M1668.93342,299.96487c0,4.35742-.97949,7.71777-2.93652,10.08105-1.95703,2.36426-4.71582,3.5459-8.27539,3.5459-3.58984,0-6.36719-1.18848-8.33105-3.56738-1.96484-2.37891-2.94727-5.73145-2.94727-10.05957v-5.89355c0-4.35742.97852-7.71875,2.93555-10.08203s4.72363-3.54492,8.29785-3.54492c3.5752,0,6.34473,1.18945,8.30957,3.56641,1.96387,2.37891,2.94727,5.73926,2.94727,10.08203v5.87207ZM1661.46565,293.11819c0-2.31934-.30273-4.05078-.9082-5.19629-.60547-1.14453-1.56641-1.71777-2.88086-1.71777-1.28516,0-2.21875.5332-2.80273,1.5957-.58398,1.06445-.89746,2.67383-.94141,4.83008v8.24316c0,2.4082.30273,4.16895.9082,5.28418.60547,1.11621,1.56543,1.67383,2.88086,1.67383,1.26953,0,2.20801-.54297,2.81348-1.62891s.91602-2.78809.93066-5.10742v-7.97656Z"/>
    <path class="cls-15" d="M1697.48127,299.96487c0,4.35742-.97949,7.71777-2.93652,10.08105-1.95703,2.36426-4.71582,3.5459-8.27539,3.5459-3.58984,0-6.36719-1.18848-8.33105-3.56738-1.96484-2.37891-2.94727-5.73145-2.94727-10.05957v-5.89355c0-4.35742.97852-7.71875,2.93555-10.08203s4.72363-3.54492,8.29785-3.54492c3.5752,0,6.34473,1.18945,8.30957,3.56641,1.96387,2.37891,2.94727,5.73926,2.94727,10.08203v5.87207ZM1690.0135,293.11819c0-2.31934-.30273-4.05078-.9082-5.19629-.60547-1.14453-1.56641-1.71777-2.88086-1.71777-1.28516,0-2.21875.5332-2.80273,1.5957-.58398,1.06445-.89746,2.67383-.94141,4.83008v8.24316c0,2.4082.30273,4.16895.9082,5.28418.60547,1.11621,1.56543,1.67383,2.88086,1.67383,1.26953,0,2.20801-.54297,2.81348-1.62891s.91602-2.78809.93066-5.10742v-7.97656Z"/>
  </g>
  <g>
    <rect class="cls-1" x="330.37668" y="338.6058" width="305.60216" height="42.13742"/>
    <path class="cls-5" d="M345.93245,359.59182h-7.98535l-1.39453,4.51562h-6.22559l8.86523-24.17188h5.47852l8.93164,24.17188h-6.25879l-1.41113-4.51562ZM339.34162,355.0928h5.19629l-2.60645-8.38379-2.58984,8.38379Z"/>
    <path class="cls-5" d="M367.67073,351.20804l-1.84277-.13281c-1.75977,0-2.88867.55371-3.38672,1.66016v11.37207h-5.59473v-17.96289h5.24609l.18262,2.30762c.94043-1.75977,2.25195-2.63965,3.93457-2.63965.59766,0,1.11719.06641,1.56055.19922l-.09961,5.19629Z"/>
    <path class="cls-5" d="M376.67463,346.14456l.18262,2.1084c1.27246-1.62695,2.98242-2.44043,5.12988-2.44043,2.26855,0,3.80176.90234,4.59863,2.70605,1.21777-1.80371,2.97754-2.70605,5.2793-2.70605,3.6416,0,5.51172,2.20215,5.61133,6.60742v11.6875h-5.61133v-11.33887c0-.91797-.15527-1.58789-.46484-2.00879s-.87402-.63086-1.69336-.63086c-1.10645,0-1.93164.49316-2.47363,1.47754l.0166.23242v12.26855h-5.61133v-11.30566c0-.94043-.14941-1.62109-.44824-2.04199s-.86914-.63086-1.70996-.63086c-1.07324,0-1.89258.49316-2.45703,1.47754v12.50098h-5.59473v-17.96289h5.24609Z"/>
    <path class="cls-5" d="M401.66682,354.95999c0-1.79297.34863-3.38867,1.0459-4.78906s1.69922-2.47656,3.00488-3.22949,2.83887-1.12891,4.59863-1.12891c2.68945,0,4.80859.83301,6.3584,2.49902s2.32422,3.93164,2.32422,6.79785v.19922c0,2.7998-.77734,5.02246-2.33203,6.66504-1.55566,1.64453-3.66113,2.46582-6.31738,2.46582-2.55664,0-4.60938-.7666-6.15918-2.2998-1.5498-1.53223-2.38477-3.61035-2.50684-6.2334l-.0166-.94629ZM407.26155,355.30862c0,1.66016.25977,2.87793.78027,3.65234s1.28906,1.16211,2.30762,1.16211c1.99219,0,3.01074-1.53223,3.05469-4.59863v-.56445c0-3.2207-1.0293-4.83105-3.08789-4.83105-1.87012,0-2.88281,1.38965-3.03809,4.16699l-.0166,1.0127Z"/>
    <path class="cls-5" d="M434.0301,351.20804l-1.84277-.13281c-1.75977,0-2.88867.55371-3.38672,1.66016v11.37207h-5.59473v-17.96289h5.24609l.18262,2.30762c.94043-1.75977,2.25195-2.63965,3.93457-2.63965.59766,0,1.11719.06641,1.56055.19922l-.09961,5.19629Z"/>
    <path class="cls-5" d="M446.12287,364.43948c-2.75586,0-4.98633-.82129-6.69043-2.46582-1.70508-1.64258-2.55664-3.78125-2.55664-6.41602v-.46484c0-1.83691.33984-3.45898,1.02051-4.86426s1.67383-2.49316,2.98047-3.2627c1.30566-.76855,2.85547-1.15332,4.64844-1.15332,2.52344,0,4.51562.7832,5.97656,2.34863,1.46094,1.56641,2.19141,3.75,2.19141,6.5498v2.1748h-11.12305c.19922,1.00781.63574,1.79883,1.31152,2.37402.6748.5752,1.54883.86328,2.62305.86328,1.77051,0,3.1543-.62012,4.15039-1.85938l2.55664,3.02148c-.69727.96289-1.68555,1.72949-2.96387,2.2998-1.27832.56934-2.65332.85449-4.125.85449ZM445.49202,350.12893c-1.63867,0-2.6123,1.08496-2.92188,3.25391h5.64453v-.43164c.02148-.89648-.20508-1.59082-.68066-2.08301-.47656-.49219-1.15723-.73926-2.04199-.73926Z"/>
    <path class="cls-5" d="M456.93733,354.99319c0-2.84375.61426-5.08594,1.84277-6.72363s2.94336-2.45703,5.14648-2.45703c1.60449,0,2.95508.63086,4.05078,1.89258v-9.09766h5.61133v25.5h-5.03027l-.28223-1.92578c-1.15137,1.50488-2.6123,2.25781-4.38281,2.25781-2.13672,0-3.83008-.81934-5.08008-2.45703-1.25098-1.6377-1.87598-3.96777-1.87598-6.98926ZM462.53205,355.34182c0,3.1875.92969,4.78125,2.78906,4.78125,1.23926,0,2.125-.52051,2.65625-1.56055v-6.83984c-.50977-1.0625-1.38379-1.59375-2.62305-1.59375-1.72656,0-2.66211,1.39453-2.80566,4.18359l-.0166,1.0293Z"/>
    <path class="cls-5" d="M498.27131,357.53323l4.81445-17.59766h6.50781l-8.13477,24.17188h-6.375l-8.06836-24.17188h6.45801l4.79785,17.59766Z"/>
    <path class="cls-5" d="M520.75666,364.43948c-2.75586,0-4.98633-.82129-6.69043-2.46582-1.70508-1.64258-2.55664-3.78125-2.55664-6.41602v-.46484c0-1.83691.33984-3.45898,1.02051-4.86426s1.67383-2.49316,2.98047-3.2627c1.30566-.76855,2.85547-1.15332,4.64844-1.15332,2.52344,0,4.51562.7832,5.97656,2.34863,1.46094,1.56641,2.19141,3.75,2.19141,6.5498v2.1748h-11.12305c.19922,1.00781.63574,1.79883,1.31152,2.37402.6748.5752,1.54883.86328,2.62305.86328,1.77051,0,3.1543-.62012,4.15039-1.85938l2.55664,3.02148c-.69727.96289-1.68555,1.72949-2.96387,2.2998-1.27832.56934-2.65332.85449-4.125.85449ZM520.1258,350.12893c-1.63867,0-2.6123,1.08496-2.92188,3.25391h5.64453v-.43164c.02148-.89648-.20508-1.59082-.68066-2.08301-.47656-.49219-1.15723-.73926-2.04199-.73926Z"/>
    <path class="cls-5" d="M537.7469,348.07034c1.19531-1.50488,2.72266-2.25781,4.58203-2.25781,1.98047,0,3.47461.58691,4.48242,1.75977,1.00684,1.17285,1.52148,2.90527,1.54395,5.19629v11.33887h-5.61133v-11.20605c0-.95117-.19434-1.65234-.58105-2.09961-.3877-.44922-1.0459-.67285-1.97559-.67285-1.15137,0-1.96484.36523-2.44043,1.0957v12.88281h-5.59473v-25.5h5.59473v9.46289Z"/>
    <path class="cls-5" d="M553.12678,341.49612c0-.80176.28711-1.45801.86328-1.9707.5752-.5127,1.32227-.76855,2.24121-.76855.91797,0,1.66504.25586,2.24121.76855.5752.5127.86328,1.16895.86328,1.9707s-.28809,1.45898-.86328,1.9707c-.57617.5127-1.32324.76855-2.24121.76855-.91895,0-1.66602-.25586-2.24121-.76855-.57617-.51172-.86328-1.16895-.86328-1.9707ZM559.07014,364.10745h-5.61133v-17.96289h5.61133v17.96289Z"/>
    <path class="cls-5" d="M571.8094,360.12307c.78613,0,1.39453-.21289,1.82617-.63965.43164-.42578.6416-1.02051.63086-1.78418h5.24609c0,1.96973-.70508,3.58594-2.11621,4.84766s-3.22949,1.89258-5.4541,1.89258c-2.6123,0-4.6709-.81934-6.17578-2.45703s-2.25781-3.90723-2.25781-6.80664v-.23242c0-1.81543.33496-3.41699,1.00488-4.80566.66895-1.38867,1.63477-2.45703,2.89648-3.20508,1.26172-.74609,2.75586-1.12012,4.48242-1.12012,2.33496,0,4.18945.64746,5.56152,1.94238s2.05859,3.04883,2.05859,5.2627h-5.24609c0-.92969-.22656-1.64355-.68066-2.1416s-1.0625-.74707-1.82617-.74707c-1.4502,0-2.29688.9248-2.54004,2.77246-.07715.58691-.11621,1.39453-.11621,2.42383,0,1.80469.21582,3.05469.64746,3.75195s1.11816,1.0459,2.05859,1.0459Z"/>
    <path class="cls-5" d="M589.4803,364.10745h-5.61133v-25.5h5.61133v25.5Z"/>
    <path class="cls-5" d="M603.31623,364.43948c-2.75586,0-4.98633-.82129-6.69043-2.46582-1.70508-1.64258-2.55664-3.78125-2.55664-6.41602v-.46484c0-1.83691.33984-3.45898,1.02051-4.86426s1.67383-2.49316,2.98047-3.2627c1.30566-.76855,2.85547-1.15332,4.64844-1.15332,2.52344,0,4.51562.7832,5.97656,2.34863,1.46094,1.56641,2.19141,3.75,2.19141,6.5498v2.1748h-11.12305c.19922,1.00781.63574,1.79883,1.31152,2.37402.6748.5752,1.54883.86328,2.62305.86328,1.77051,0,3.1543-.62012,4.15039-1.85938l2.55664,3.02148c-.69727.96289-1.68555,1.72949-2.96387,2.2998-1.27832.56934-2.65332.85449-4.125.85449ZM602.68537,350.12893c-1.63867,0-2.6123,1.08496-2.92188,3.25391h5.64453v-.43164c.02148-.89648-.20508-1.59082-.68066-2.08301-.47656-.49219-1.15723-.73926-2.04199-.73926Z"/>
    <path class="cls-5" d="M624.24104,359.06057c0-.47559-.24902-.85742-.74707-1.14551-.49805-.28711-1.44434-.58594-2.83887-.89648-1.39453-.30957-2.5459-.7168-3.45312-1.2207-.9082-.50293-1.59961-1.11426-2.0752-1.83398-.47656-.71875-.71387-1.54395-.71387-2.47363,0-1.64941.68066-3.00684,2.04199-4.0752s3.14258-1.60254,5.3457-1.60254c2.36816,0,4.27148.53711,5.71094,1.61035,1.43848,1.07422,2.1582,2.48438,2.1582,4.2334h-5.61133c0-1.43848-.75879-2.1582-2.27441-2.1582-.58691,0-1.0791.16309-1.47754.48926-.39844.32715-.59766.73438-.59766,1.2207,0,.49805.24316.90234.73047,1.21191.48633.30957,1.26367.56445,2.33203.76367s2.00586.4375,2.81445.71387c2.7002.92969,4.05078,2.5957,4.05078,4.99707,0,1.6377-.72852,2.97168-2.18359,4.00098s-3.33984,1.54395-5.65234,1.54395c-1.53906,0-2.91113-.27637-4.11719-.83008-1.20703-.55371-2.14746-1.30566-2.82227-2.25781-.67578-.95215-1.0127-1.95312-1.0127-3.00488h5.22949c.02148.83008.29883,1.43555.83008,1.81836.53125.38086,1.21191.57227,2.04199.57227.76367,0,1.33594-.1543,1.71777-.46484.38184-.30957.57324-.71387.57324-1.21191Z"/>
  </g>
  <g>
    <rect class="cls-1" x="412.82412" y="279.11262" width="208.2443" height="42.13742"/>
    <path class="cls-15" d="M437.30842,313.14847h-22.51172v-4.87402l10.36914-10.90234c2.55566-2.91016,3.83301-5.2207,3.83301-6.93555,0-1.3877-.30273-2.44434-.9082-3.16797s-1.48438-1.08594-2.63672-1.08594c-1.1377,0-2.06055.48438-2.76953,1.45117-.70898.96777-1.06348,2.17578-1.06348,3.62305h-7.48926c0-1.97949.49512-3.80762,1.48438-5.48438.98926-1.67578,2.36328-2.9873,4.12109-3.93262s3.72266-1.41797,5.89453-1.41797c3.48535,0,6.1709.80566,8.05371,2.41504,1.88379,1.61035,2.8252,3.92188,2.8252,6.93555,0,1.27051-.23633,2.50781-.70898,3.71094-.47266,1.2041-1.20703,2.4668-2.2041,3.78906s-2.60352,3.09082-4.81934,5.30664l-4.16602,4.80859h12.69629v5.76074Z"/>
    <path class="cls-15" d="M450.16877,293.89358h3.52344c2.79102,0,4.1875-1.36621,4.1875-4.09961,0-1.0625-.33301-1.93066-.99707-2.60352-.66504-.67188-1.60352-1.00781-2.81445-1.00781-.98926,0-1.84961.28809-2.58105.86426s-1.09668,1.29199-1.09668,2.14941h-7.4668c0-1.69922.47168-3.21289,1.41797-4.54297.94434-1.3291,2.25586-2.36719,3.93262-3.11328,1.67676-.74512,3.51953-1.11816,5.52832-1.11816,3.58984,0,6.41113.81934,8.46387,2.45996,2.05371,1.63867,3.08008,3.8916,3.08008,6.75781,0,1.38867-.4248,2.69922-1.27344,3.93262-.84961,1.2334-2.08691,2.23438-3.71191,3.00293,1.71387.61914,3.05762,1.56152,4.0332,2.82422.97461,1.26367,1.46191,2.8252,1.46191,4.68652,0,2.87988-1.10742,5.18457-3.32324,6.91309s-5.12598,2.59277-8.73047,2.59277c-2.1123,0-4.07324-.40332-5.88281-1.20801s-3.17969-1.91992-4.11035-3.3457-1.39551-3.04688-1.39551-4.86328h7.51074c0,.99023.39941,1.84668,1.19727,2.57031.79688.72363,1.7793,1.08594,2.94629,1.08594,1.31445,0,2.36328-.36621,3.14648-1.09766.7832-.73047,1.1748-1.66504,1.1748-2.80273,0-1.625-.40723-2.77734-1.21875-3.45703-.8125-.67871-1.93555-1.01855-3.36816-1.01855h-3.63379v-5.56152Z"/>
    <path class="cls-15" d="M476.63362,305.90335c1.18164,0,2.16406.35059,2.94727,1.05273.78223.70117,1.17383,1.59863,1.17383,2.69141,0,1.09375-.3916,1.99023-1.17383,2.69238-.7832.70215-1.76562,1.05176-2.94727,1.05176-1.19629,0-2.18262-.35352-2.95801-1.0625s-1.16309-1.60352-1.16309-2.68164.3877-1.97266,1.16309-2.68164,1.76172-1.0625,2.95801-1.0625Z"/>
    <path class="cls-15" d="M494.70002,293.89358h3.52344c2.79199,0,4.1875-1.36621,4.1875-4.09961,0-1.0625-.33203-1.93066-.99707-2.60352-.66406-.67188-1.60254-1.00781-2.81348-1.00781-.99023,0-1.85059.28809-2.58203.86426-.73047.57617-1.09668,1.29199-1.09668,2.14941h-7.4668c0-1.69922.47266-3.21289,1.41797-4.54297.94531-1.3291,2.25684-2.36719,3.93262-3.11328,1.67676-.74512,3.51953-1.11816,5.52832-1.11816,3.58984,0,6.41113.81934,8.46484,2.45996,2.05273,1.63867,3.08008,3.8916,3.08008,6.75781,0,1.38867-.4248,2.69922-1.27441,3.93262s-2.08691,2.23438-3.71094,3.00293c1.71289.61914,3.05762,1.56152,4.03223,2.82422.97461,1.26367,1.46289,2.8252,1.46289,4.68652,0,2.87988-1.1084,5.18457-3.32422,6.91309s-5.12598,2.59277-8.73047,2.59277c-2.1123,0-4.07324-.40332-5.88281-1.20801s-3.17871-1.91992-4.10938-3.3457-1.39648-3.04688-1.39648-4.86328h7.51172c0,.99023.39844,1.84668,1.19629,2.57031s1.78027,1.08594,2.94727,1.08594c1.31445,0,2.36328-.36621,3.14648-1.09766.78223-.73047,1.17383-1.66504,1.17383-2.80273,0-1.625-.40625-2.77734-1.21875-3.45703-.8125-.67871-1.93457-1.01855-3.36816-1.01855h-3.63379v-5.56152Z"/>
    <path class="cls-15" d="M538.82502,299.96487c0,4.35742-.97852,7.71777-2.93555,10.08105-1.95801,2.36426-4.7168,3.5459-8.27637,3.5459-3.58887,0-6.36621-1.18848-8.33105-3.56738s-2.94727-5.73145-2.94727-10.05957v-5.89355c0-4.35742.97852-7.71875,2.93652-10.08203,1.95703-2.36328,4.72266-3.54492,8.29785-3.54492,3.57422,0,6.34375,1.18945,8.30859,3.56641,1.96484,2.37891,2.94727,5.73926,2.94727,10.08203v5.87207ZM531.35823,293.11819c0-2.31934-.30273-4.05078-.90918-5.19629-.60547-1.14453-1.56543-1.71777-2.87988-1.71777-1.28516,0-2.21973.5332-2.80273,1.5957-.58398,1.06445-.89746,2.67383-.94238,4.83008v8.24316c0,2.4082.30273,4.16895.90918,5.28418.60547,1.11621,1.56543,1.67383,2.87988,1.67383,1.27051,0,2.20801-.54297,2.81445-1.62891.60547-1.08594.91602-2.78809.93066-5.10742v-7.97656Z"/>
    <path class="cls-15" d="M567.37287,299.96487c0,4.35742-.97852,7.71777-2.93555,10.08105-1.95801,2.36426-4.7168,3.5459-8.27637,3.5459-3.58887,0-6.36621-1.18848-8.33105-3.56738s-2.94727-5.73145-2.94727-10.05957v-5.89355c0-4.35742.97852-7.71875,2.93652-10.08203,1.95703-2.36328,4.72266-3.54492,8.29785-3.54492,3.57422,0,6.34375,1.18945,8.30859,3.56641,1.96484,2.37891,2.94727,5.73926,2.94727,10.08203v5.87207ZM559.90608,293.11819c0-2.31934-.30273-4.05078-.90918-5.19629-.60547-1.14453-1.56543-1.71777-2.87988-1.71777-1.28516,0-2.21973.5332-2.80273,1.5957-.58398,1.06445-.89746,2.67383-.94238,4.83008v8.24316c0,2.4082.30273,4.16895.90918,5.28418.60547,1.11621,1.56543,1.67383,2.87988,1.67383,1.27051,0,2.20801-.54297,2.81445-1.62891.60547-1.08594.91602-2.78809.93066-5.10742v-7.97656Z"/>
  </g>
  <path class="cls-12" d="M87.01831,145.58128l-10.54639-5.92578s-16.00395,13.00293-13.92906,22.68575,9.16409,25.5903,23.86123,28.70264c14.69713,3.11233,130.24835,2.4207,134.02779,1.03744,3.77944-1.38326,39.9314-18.09844,36.18018-39.76871-1.80879-10.44909-16.99193-5.88441-26.17188-6.84803-6.80067-.71387-9.99707-.71387-9.99707-.71387l-78.36282-4.54162-43.39977-.51872,4.2831,4.89881"/>
  <path class="cls-14" d="M65.21362,147.6638c-4.7124,5.75049-6.46533,13.11133-4.93604,20.72656,3.23047,16.0166,20.18066,28.56299,38.58789,28.56299h113.74951c15.91602,0,30.82324-9.14697,41.97607-25.75635l1.83252-2.72168c4.24561-6.7998,4.96924-14.63281,1.87842-20.42822v-.00049c-3.6748-6.90283-9.99121-10.57471-18.27588-10.62744l-9.58594,8.04541,9.4082.06055c6.38623,0,8.62891,3.21582,10.22949,6.23047,1.57764,2.95068,2.12451,8.03516-.4043,12.22217l-1.80371,2.69629c-6.79736,10.11572-18.43066,22.17236-35.25488,22.17236h-113.74951c-14.44189,0-28.18604-9.89697-30.63721-22.06201-1.04541-5.1709.10986-10.1377,3.25293-13.98486,3.47021-4.2334,9.06396-6.81299,15.53711-7.21826l-10.54639-5.92578c-4.51562,1.75537-8.40479,4.52051-11.2583,8.0083Z"/>
  <polygon class="cls-12" points="116.14417 113.06262 116.14417 98.71131 139.14086 85.74325 169.22676 85.74325 187.87411 98.71131 190.84019 115.48333 116.14417 113.06262"/>
  <polygon class="cls-12" points="89.34082 132.77407 97.81598 115.65624 206.57476 115.65624 225.26489 134.578 217.81375 140.90072 100.40959 140.90072 89.34082 132.77407"/>
  <path class="cls-14" d="M111.75561,111.36204h-15.89209l-11.93115,24.12793,15.76904,9.09473,120.7417.16602,11.35498-9.76953-23.27637-23.61914h-16.1333l.01123-8.51758h42.61963l-.02441,3.01221,21.47998-.04932.13721-12.7959-21.68506.02783.03076,3.7251-42.22266.0835-24.60156-13.86865h-32.73242l-23.56836,14.76221-.07715,13.62061ZM205.43969,118.71751l14.99219,15.2124-4.68848,3.29883h-113.06006l-8.73535-4.91309,6.47852-13.59814h105.01318ZM119.17456,100.15404l18.59619-10.81982.13525.00049,29.45752.05566,17.78125,10.30518-.11426,11.58594-63.76025.08057h-2.12402l.02832-11.20801Z"/>
  <g>
    <path class="cls-14" d="M89.339,150.45191c-7.78466,0-14.12085,6.33619-14.12085,14.12461,0,7.78466,6.33619,14.12085,14.12085,14.12085,7.78842,0,14.12464-6.33619,14.12464-14.12085,0-7.78842-6.33622-14.12461-14.12464-14.12461Z"/>
    <path class="cls-12" d="M89.33911,179.19749c-8.06201,0-14.62109-6.55908-14.62109-14.62109,0-8.06396,6.55908-14.62451,14.62109-14.62451,8.06396,0,14.62451,6.56055,14.62451,14.62451,0,8.06201-6.56055,14.62109-14.62451,14.62109ZM89.33911,150.95189c-7.51074,0-13.62109,6.11182-13.62109,13.62451,0,7.51074,6.11035,13.62109,13.62109,13.62109,7.5127,0,13.62451-6.11035,13.62451-13.62109,0-7.5127-6.11182-13.62451-13.62451-13.62451Z"/>
  </g>
  <g>
    <path class="cls-14" d="M110.84009,166.60029c0,9.38396,7.63384,17.01738,17.0178,17.01738s17.02156-7.63342,17.02156-17.01738-7.63757-17.02156-17.02156-17.02156-17.0178,7.6376-17.0178,17.02156Z"/>
    <path class="cls-12" d="M127.85766,184.1179c-9.65918,0-17.51758-7.8584-17.51758-17.51758,0-9.66162,7.8584-17.52148,17.51758-17.52148,9.66162,0,17.52197,7.85986,17.52197,17.52148,0,9.65918-7.86035,17.51758-17.52197,17.51758ZM127.85766,150.07884c-9.10791,0-16.51758,7.41162-16.51758,16.52148,0,9.10791,7.40967,16.51758,16.51758,16.51758,9.11035,0,16.52197-7.40967,16.52197-16.51758,0-9.10986-7.41162-16.52148-16.52197-16.52148Z"/>
  </g>
  <g>
    <path class="cls-14" d="M149.35522,166.60029c0,9.38396,7.6376,17.01738,17.02156,17.01738s17.0178-7.63342,17.0178-17.01738-7.63384-17.02156-17.0178-17.02156-17.02156,7.6376-17.02156,17.02156Z"/>
    <path class="cls-12" d="M166.3767,184.1179c-9.66162,0-17.52148-7.8584-17.52148-17.51758,0-9.66162,7.85986-17.52148,17.52148-17.52148,9.65967,0,17.51807,7.85986,17.51807,17.52148,0,9.65918-7.8584,17.51758-17.51807,17.51758ZM166.3767,150.07884c-9.10986,0-16.52148,7.41162-16.52148,16.52148,0,9.10791,7.41162,16.51758,16.52148,16.51758,9.10791,0,16.51807-7.40967,16.51807-16.51758,0-9.10986-7.41016-16.52148-16.51807-16.52148Z"/>
  </g>
  <g>
    <path class="cls-14" d="M204.89191,149.57873c-9.38396,0-17.0178,7.6376-17.0178,17.02156s7.63384,17.01738,17.0178,17.01738,17.02156-7.63342,17.02156-17.01738-7.6376-17.02156-17.02156-17.02156Z"/>
    <path class="cls-12" d="M204.89184,184.1179c-9.65918,0-17.51758-7.8584-17.51758-17.51758,0-9.66162,7.8584-17.52148,17.51758-17.52148,9.66162,0,17.52148,7.85986,17.52148,17.52148,0,9.65918-7.85986,17.51758-17.52148,17.51758ZM204.89184,150.07884c-9.10791,0-16.51758,7.41162-16.51758,16.52148,0,9.10791,7.40967,16.51758,16.51758,16.51758,9.10986,0,16.52148-7.40967,16.52148-16.51758,0-9.10986-7.41162-16.52148-16.52148-16.52148Z"/>
  </g>
  <g>
    <path class="cls-14" d="M235.05502,168.15488c5.12042,0,9.28578-4.16577,9.28578-9.2862,0-5.1246-4.16536-9.28996-9.28578-9.28996-5.1246,0-9.28996,4.16536-9.28996,9.28996,0,5.12042,4.16536,9.2862,9.28996,9.2862Z"/>
    <path class="cls-12" d="M235.05493,168.65501c-5.39844,0-9.79004-4.39014-9.79004-9.78613,0-5.39844,4.3916-9.79004,9.79004-9.79004,5.396,0,9.78564,4.3916,9.78564,9.79004,0,5.396-4.38965,9.78613-9.78564,9.78613ZM235.05493,150.07884c-4.84668,0-8.79004,3.94336-8.79004,8.79004,0,4.84473,3.94336,8.78613,8.79004,8.78613,4.84424,0,8.78564-3.94141,8.78564-8.78613,0-4.84668-3.94141-8.79004-8.78564-8.79004Z"/>
  </g>
  <g>
    <path class="cls-12" d="M611.8717,185.51152h-4.05924c.54443-1.84375.6198-3.37555.56121-5.27594-.19043-6.1084-3.18359-11.54395-8.2124-14.91211-5.03027-3.36963-11.19629-4.06738-16.91895-1.91846-7.22754,2.71533-12.10645,10.00293-11.86377,17.72168.0376,1.19092.46223,2.91117.71077,4.04838l-4.18684.31441c-.30127-1.37598-.47705-2.80176-.52197-4.23682-.29541-9.40479,5.64893-18.28369,14.45557-21.5918,6.94531-2.60889,14.43604-1.75635,20.55127,2.33887,6.11426,4.0957,9.75342,10.69678,9.98438,18.11133.07178,2.32666.16502,3.1485-.50002,5.40045Z"/>
    <path class="cls-5" d="M569.68961,178.20516c-2.31441,14.00351,9.67846,25.99479,23.68236,23.67761,8.48244-1.40356,15.32538-8.24231,16.72952-16.72465,2.31819-14.00409-9.6861-26.00462-23.69009-23.68441-8.48194,1.4053-15.31986,8.24896-16.72179,16.73146Z"/>
  </g>
  <g>
    <path class="cls-12" d="M550.44319,185.51152h-4.05924c.54443-1.84375.6198-3.37555.56121-5.27594-.19043-6.1084-3.18359-11.54395-8.2124-14.91211-5.03027-3.36963-11.19629-4.06738-16.91895-1.91846-7.22754,2.71533-12.10645,10.00293-11.86377,17.72168.0376,1.19092.46223,2.91117.71077,4.04838l-4.18684.31441c-.30127-1.37598-.47705-2.80176-.52197-4.23682-.29541-9.40479,5.64893-18.28369,14.45557-21.5918,6.94531-2.60889,14.43604-1.75635,20.55127,2.33887,6.11426,4.0957,9.75342,10.69678,9.98438,18.11133.07178,2.32666.16502,3.1485-.50002,5.40045Z"/>
    <path class="cls-5" d="M508.2611,178.20516c-2.31441,14.00351,9.67846,25.99479,23.68236,23.67761,8.48244-1.40356,15.32538-8.24231,16.72952-16.72465,2.31819-14.00409-9.6861-26.00462-23.69009-23.68441-8.48194,1.4053-15.31986,8.24896-16.72179,16.73146Z"/>
  </g>
  <g>
    <path class="cls-12" d="M489.01467,185.51152h-4.05924c.54443-1.84375.6198-3.37555.56121-5.27594-.19043-6.1084-3.18359-11.54395-8.2124-14.91211-5.03027-3.36963-11.19629-4.06738-16.91895-1.91846-7.22754,2.71533-12.10645,10.00293-11.86377,17.72168.0376,1.19092.46223,2.91117.71077,4.04838l-4.18684.31441c-.30127-1.37598-.47705-2.80176-.52197-4.23682-.29541-9.40479,5.64893-18.28369,14.45557-21.5918,6.94531-2.60889,14.43604-1.75635,20.55127,2.33887,6.11426,4.0957,9.75342,10.69678,9.98438,18.11133.07178,2.32666.16502,3.1485-.50002,5.40045Z"/>
    <path class="cls-5" d="M446.83258,178.20516c-2.31441,14.00351,9.67846,25.99479,23.68236,23.67761,8.48244-1.40356,15.32538-8.24231,16.72952-16.72465,2.31819-14.00409-9.6861-26.00462-23.69009-23.68441-8.48194,1.4053-15.31986,8.24896-16.72179,16.73146Z"/>
  </g>
  <g>
    <path class="cls-12" d="M427.58616,185.51152h-4.05924c.54443-1.84375.6198-3.37555.56121-5.27594-.19043-6.1084-3.18359-11.54395-8.2124-14.91211-5.03027-3.36963-11.19629-4.06738-16.91895-1.91846-7.22754,2.71533-12.10645,10.00293-11.86377,17.72168.0376,1.19092.46223,2.91117.71077,4.04838l-4.18684.31441c-.30127-1.37598-.47705-2.80176-.52197-4.23682-.29541-9.40479,5.64893-18.28369,14.45557-21.5918,6.94531-2.60889,14.43604-1.75635,20.55127,2.33887,6.11426,4.0957,9.75342,10.69678,9.98438,18.11133.07178,2.32666.16502,3.1485-.50002,5.40045Z"/>
    <path class="cls-5" d="M385.40407,178.20516c-2.31441,14.00351,9.67846,25.99479,23.68236,23.67761,8.48244-1.40356,15.32538-8.24231,16.72952-16.72465,2.31819-14.00409-9.6861-26.00462-23.69009-23.68441-8.48194,1.4053-15.31986,8.24896-16.72179,16.73146Z"/>
  </g>
  <g>
    <g>
      <rect class="cls-8" x="819.23146" y="114.2234" width="69.63501" height="26.56376" transform="translate(59.95953 -211.72797) rotate(14.64081)"/>
      <polygon class="cls-9" points="820.31121 90.50615 750.74244 73.8513 751.40211 71.27771 722.00402 64.18267 717.88111 80.16371 747.55353 87.36048 748.29508 84.17779 819.29584 101.39712 820.31121 90.50615"/>
      <path class="cls-9" d="M817.09159,85.95508l-4.53528,20.08479,69.32492,16.19741,1.29579,17.49321,34.98641,34.33851s25.91586,0,29.15534,1.94369,44.70486,24.62007,44.70486,24.62007l27.21165-1.29579-.6479-16.19741h-23.32427l-42.76117-30.45114-21.38058-3.23948-2.59159-39.52169-111.4382-23.97217Z"/>
      <g>
        <path class="cls-12" d="M918.9884,176.94853c.54857-1.62518.89495-3.0751,1.17977-4.79564,3.76172-22.7244-15.71761-42.19765-38.44187-38.43265-8.15756,1.35156-15.37799,5.80311-20.38019,12.07099l2.76763.72518,51.59814,29.17289,1.26312,1.27359,2.0134-.01435Z"/>
        <path class="cls-5" d="M887.39524,135.83006c-1.7348,0-3.48715.14335-5.24828.43443-12.63653,2.09463-22.92245,12.38494-25.01123,25.02586v.00146c-1.65289,9.99923,1.46858,19.80391,8.56429,26.89815,7.09424,7.09278,16.89746,10.21278,26.89961,8.55844,12.64238-2.0917,22.93269-12.37909,25.02439-25.01708,1.65581-9.99923-1.46712-19.80391-8.56575-26.90254-5.85092-5.84946-13.54196-8.99872-21.66304-8.99872Z"/>
      </g>
      <g>
        <polygon class="cls-12" points="848.65127 142.43172 858.05607 144.8862 870.33227 94.45059 860.78291 92.40052 848.65127 142.43172"/>
        <path class="cls-5" d="M845.98826,165.74729l4.43792,1.05609,22.64307-95.20327-4.43792-1.05463-22.64307,95.20181Z"/>
      </g>
    </g>
    <circle class="cls-11" cx="886.41652" cy="166.94214" r="13.60583"/>
  </g>
  <g>
    <path class="cls-12" d="M1696.57958,111.23039l40.19255-.98031-8.00583,14.05105s-8.16922-3.1043-10.94675-2.45077-11.50235,2.84254-11.50235,2.84254l-9.73761-13.46252Z"/>
    <g>
      <path class="cls-7" d="M1744.93006,102.37014l-14.02579,22.75591s-.78712,1.37272-1.43128,2.28962c-3.31995-3.16802-6.4426-3.11579-10.60507-3.71721-3.33525-.48589-6.56869-.15088-9.56685,1.4508-1.21443.65682-1.96885.45318-2.98388-.45634-15.23549-13.59003-25.76671-28.00621-39.59519-43.60995-3.8797-4.54654-5.55629-8.17195-17.5056-13.95615-8.69846-4.21101-14.36713-3.6787-19.56046-2.67844-11.40222,2.19572-21.24708,11.90288-23.0081,19.44334-2.81822,11.51828,2.16198,17.51984,5.94302,21.40851,3.77682,3.88603,13.78153,13.45919,13.78153,13.45919,0,0-127.70561,13.28509-137.01604,13.68921l8.84776,7.38377c17.51296.96175,165.59255,15.17377,170.98372,16.8472l.6067.40622c2.73119,3.01766,5.46925,6.03216,8.63937,9.5452-19.57314.98021-38.57172,1.92983-57.99817,2.9016,1.46346,2.68688,2.48482,4.93799,3.86387,6.93904.46109.66948,1.80849.92535,2.78184,1.00026,11.03504.83988,22.08168,1.62806,33.12252,2.38142,12.92424.87681,25.86589,1.50989,38.76322,2.67686,3.21655.28647,6.28961,2.18939,9.42175,3.37429,3.45237,1.29358,6.92901,2.52808,10.32072,3.99154,1.6613.71116,3.07939,1.98733,4.71956,2.7639,1.73517.80823,3.77421,2.15193,5.37747,1.80268,4.59138-.97283,8.94272.17779,13.40221.49327,2.48639.17884,5.04983-.03798,7.52199-.43524,3.34264-.53706,5.29673-2.71853,6.01264-6.02952.25429-1.18702-.0647-3.09189.81034-3.20811,29.30629-3.89229,37.70067-5.41854,53.62731-7.47926l-.87101-13.22495s-53.21193,2.31253-59.4189,2.23951l-1.9462-.37562c1.19653-4.27062,2.34029-8.34183,3.49829-12.42464l2.21682-7.32785c2.01635-6.26798,82.25974-28.09537,86.34941-30.69257l.65629-10.24158c-6.91002-.10551-143.09515,3.2271-148.92631,3.27669"/>
      <path class="cls-2" d="M1753.38066,147.54326c1.14534-4.04272,7.36308-26.3713,8.43986-30.26999,2.90054-10.53332,5.76099-21.06243,8.7222-31.57623.57557-2.03112.25903-3.44129-1.62067-4.50592-1.82801-1.03666-3.52781-2.29859-5.41121-3.21444-1.62648-.80084-2.9744-.12556-3.97097,1.38802-1.82748,2.82035-16.69275,26.23375-18.46642,29.07679"/>
      <polygon class="cls-12" points="1767.63879 84.16533 1760.05893 111.48007 1742.06195 113.18249 1762.38346 80.91667 1767.63879 84.16533"/>
    </g>
  </g>
</svg>