<?xml version="1.0" encoding="UTF-8"?>
<svg id="Ebene_2" data-name="Ebene 2" xmlns="http://www.w3.org/2000/svg" viewBox="0 0 1920 947.49779">
  <defs>
    <style>
      .cls-1 {
        fill: #90172f;
      }

      .cls-2 {
        fill: #f3f5f7;
      }

      .cls-3 {
        fill: #0d425b;
      }

      .cls-4 {
        fill: #426b7e;
      }
    </style>
  </defs>
  <rect class="cls-2" x="-12.68751" y="-6.60547" width="1945.37501" height="962.80892"/>
  <g>
    <path class="cls-1" d="M1052.88817,669.49936c4.39849-8.26224,11.97496-12.62776,21.90708-12.62776l12.48247,10.476-12.48247.08039c-7.08005,0-9.49189,3.41483-11.35065,6.91442-1.75464,3.28262-2.36002,8.93881.45379,13.59734l2.07621,3.10294c7.79924,11.60588,21.13652,25.44489,40.38566,25.44489h131.85978c16.4775,0,32.1559-11.26106,34.94647-25.10927,1.17783-5.82667-.12305-11.41216-3.65117-15.73022-4.28029-5.22177-11.45042-8.22011-19.66084-8.22011l14.27776-8.02251c5.40294,2.05248,10.06631,5.30217,13.54601,9.55485,5.57632,6.80594,7.64769,15.51277,5.84123,24.50825-3.79792,18.82832-23.69994,33.5754-45.29945,33.5754h-131.85978c-18.6486,0-36.10053-10.69394-49.13995-30.11311l-2.12372-3.15476c-5.04161-8.07336-5.88814-17.37637-2.20843-24.27675Z"/>
    <path class="cls-1" d="M1237.4069,666.33782l18.88446-10.89202-14.23126-28.77933h-18.20599s-.08814-15.53117-.08814-15.53117l-27.73226-17.37008h-38.26202s-28.51781,16.07601-28.51781,16.07601l-48.20916-.09492.03535-4.31903-26.30695-.03342.17144,15.99175,26.05705.05957-.02809-3.49281h48.2416s.01211,8.7141.01211,8.7141h-18.36435s-27.58746,27.99427-27.58746,27.99427l13.79587,11.87031,140.33559-.19324ZM1214.12927,626.66647h-1.88059s-73.33828-.0925-73.33828-.0925l-.12298-12.51928,20.18534-11.69935,33.99239-.06344,21.13358,12.29602.03055,12.07856ZM1243.16431,651.29628l-9.52192,5.35544h-130.72501s-4.72488-3.32475-4.72488-3.32475l16.72837-16.9744h121.12367s7.11977,14.94371,7.11977,14.94371Z"/>
    <path class="cls-1" d="M1249.26317,672.55968c9.02405,0,16.36902,7.34497,16.36902,16.37338s-7.34497,16.36902-16.36902,16.36902c-9.02841,0-16.37341-7.34497-16.37341-16.36902,0-9.02841,7.345-16.37338,16.37341-16.37338Z"/>
    <path class="cls-1" d="M1224.3389,691.27903c0,10.87797-8.84922,19.7267-19.72719,19.7267s-19.73155-8.84873-19.73155-19.7267c0-10.87797,8.85354-19.73155,19.73155-19.73155s19.72719,8.85358,19.72719,19.73155Z"/>
    <path class="cls-1" d="M1179.69181,691.27903c0,10.87797-8.85358,19.7267-19.73155,19.7267-10.87797,0-19.72719-8.84873-19.72719-19.7267s8.84922-19.73155,19.72719-19.73155,19.73155,8.85358,19.73155,19.73155Z"/>
    <path class="cls-1" d="M1115.31317,671.54749c10.87797,0,19.72719,8.85358,19.72719,19.73155s-8.84922,19.7267-19.72719,19.7267-19.73155-8.84873-19.73155-19.7267c0-10.87797,8.85358-19.73155,19.73155-19.73155Z"/>
    <path class="cls-1" d="M1080.34781,693.08113c-5.93564,0-10.76416-4.829-10.76416-10.76464,0-5.94048,4.82852-10.769,10.76416-10.769,5.94048,0,10.769,4.82852,10.769,10.769,0,5.93564-4.82852,10.76464-10.769,10.76464Z"/>
  </g>
  <g>
    <path class="cls-1" d="M1323.13428,669.49936c4.39849-8.26224,11.97496-12.62776,21.90708-12.62776l12.48247,10.476-12.48247.08039c-7.08005,0-9.49189,3.41483-11.35065,6.91442-1.75464,3.28262-2.36002,8.93881.45379,13.59734l2.07621,3.10294c7.79924,11.60588,21.13652,25.44489,40.38566,25.44489h131.85978c16.4775,0,32.1559-11.26106,34.94647-25.10927,1.17783-5.82667-.12305-11.41216-3.65117-15.73022-4.28029-5.22177-11.45042-8.22011-19.66084-8.22011l14.27776-8.02251c5.40294,2.05248,10.06631,5.30217,13.54601,9.55485,5.57632,6.80594,7.64769,15.51277,5.84123,24.50825-3.79792,18.82832-23.69994,33.5754-45.29945,33.5754h-131.85978c-18.6486,0-36.10053-10.69394-49.13995-30.11311l-2.12372-3.15476c-5.04161-8.07336-5.88814-17.37637-2.20843-24.27675Z"/>
    <path class="cls-1" d="M1507.65301,666.33782l18.88446-10.89202-14.23126-28.77933h-18.20599s-.08814-15.53117-.08814-15.53117l-27.73226-17.37008h-38.26202s-28.51781,16.07601-28.51781,16.07601l-48.20916-.09492.03535-4.31903-26.30695-.03342.17144,15.99175,26.05705.05957-.02809-3.49281h48.2416s.01211,8.7141.01211,8.7141h-18.36435s-27.58746,27.99427-27.58746,27.99427l13.79587,11.87031,140.33559-.19324ZM1484.37538,626.66647h-1.88059s-73.33828-.0925-73.33828-.0925l-.12298-12.51928,20.18534-11.69935,33.99239-.06344,21.13358,12.29602.03055,12.07856ZM1513.41042,651.29628l-9.52192,5.35544h-130.72501s-4.72488-3.32475-4.72488-3.32475l16.72837-16.9744h121.12367s7.11977,14.94371,7.11977,14.94371Z"/>
    <path class="cls-1" d="M1519.50927,672.55968c9.02405,0,16.36902,7.34497,16.36902,16.37338,0,9.02405-7.34497,16.36902-16.36902,16.36902-9.02841,0-16.37341-7.34497-16.37341-16.36902,0-9.02841,7.345-16.37338,16.37341-16.37338Z"/>
    <path class="cls-1" d="M1494.58501,691.27903c0,10.87797-8.84922,19.7267-19.72719,19.7267s-19.73155-8.84873-19.73155-19.7267c0-10.87797,8.85354-19.73155,19.73155-19.73155s19.72719,8.85358,19.72719,19.73155Z"/>
    <path class="cls-1" d="M1449.93792,691.27903c0,10.87797-8.85358,19.7267-19.73155,19.7267-10.87797,0-19.72719-8.84873-19.72719-19.7267,0-10.87797,8.84922-19.73155,19.72719-19.73155s19.73155,8.85358,19.73155,19.73155Z"/>
    <path class="cls-1" d="M1385.55928,671.54749c10.87797,0,19.72719,8.85358,19.72719,19.73155,0,10.87797-8.84922,19.7267-19.72719,19.7267s-19.73155-8.84873-19.73155-19.7267,8.85358-19.73155,19.73155-19.73155Z"/>
    <path class="cls-1" d="M1350.59392,693.08113c-5.93564,0-10.76416-4.829-10.76416-10.76464,0-5.94048,4.82852-10.769,10.76416-10.769,5.94048,0,10.769,4.82852,10.769,10.769,0,5.93564-4.82852,10.76464-10.769,10.76464Z"/>
  </g>
  <g>
    <path class="cls-1" d="M1593.77603,669.49936c4.39849-8.26224,11.97496-12.62776,21.90708-12.62776l12.48247,10.476-12.48247.08039c-7.08005,0-9.49189,3.41483-11.35065,6.91442-1.75464,3.28262-2.36002,8.93881.45379,13.59734l2.07621,3.10294c7.79924,11.60588,21.13652,25.44489,40.38566,25.44489h131.85978c16.4775,0,32.1559-11.26106,34.94647-25.10927,1.17783-5.82667-.12305-11.41216-3.65117-15.73022-4.28029-5.22177-11.45042-8.22011-19.66084-8.22011l14.27776-8.02251c5.40294,2.05248,10.06631,5.30217,13.54601,9.55485,5.57632,6.80594,7.64769,15.51277,5.84123,24.50825-3.79792,18.82832-23.69994,33.5754-45.29945,33.5754h-131.85978c-18.6486,0-36.10053-10.69394-49.13995-30.11311l-2.12372-3.15476c-5.04161-8.07336-5.88814-17.37637-2.20843-24.27675Z"/>
    <path class="cls-1" d="M1778.29475,666.33782l18.88446-10.89202-14.23126-28.77933h-18.20599s-.08814-15.53117-.08814-15.53117l-27.73226-17.37008h-38.26202s-28.51781,16.07601-28.51781,16.07601l-48.20916-.09492.03535-4.31903-26.30695-.03342.17144,15.99175,26.05705.05957-.02809-3.49281h48.2416s.01211,8.7141.01211,8.7141h-18.36435s-27.58746,27.99427-27.58746,27.99427l13.79587,11.87031,140.33559-.19324ZM1755.01713,626.66647h-1.88059s-73.33828-.0925-73.33828-.0925l-.12298-12.51928,20.18534-11.69935,33.99239-.06344,21.13358,12.29602.03055,12.07856ZM1784.05217,651.29628l-9.52192,5.35544h-130.72501s-4.72488-3.32475-4.72488-3.32475l16.72837-16.9744h121.12367s7.11977,14.94371,7.11977,14.94371Z"/>
    <path class="cls-1" d="M1790.15102,672.55968c9.02405,0,16.36902,7.34497,16.36902,16.37338,0,9.02405-7.34497,16.36902-16.36902,16.36902-9.02841,0-16.37341-7.34497-16.37341-16.36902,0-9.02841,7.345-16.37338,16.37341-16.37338Z"/>
    <path class="cls-1" d="M1765.22676,691.27903c0,10.87797-8.84922,19.7267-19.72719,19.7267s-19.73155-8.84873-19.73155-19.7267c0-10.87797,8.85354-19.73155,19.73155-19.73155s19.72719,8.85358,19.72719,19.73155Z"/>
    <path class="cls-1" d="M1720.57966,691.27903c0,10.87797-8.85358,19.7267-19.73155,19.7267-10.87797,0-19.72719-8.84873-19.72719-19.7267,0-10.87797,8.84922-19.73155,19.72719-19.73155s19.73155,8.85358,19.73155,19.73155Z"/>
    <path class="cls-1" d="M1656.20102,671.54749c10.87797,0,19.72719,8.85358,19.72719,19.73155,0,10.87797-8.84922,19.7267-19.72719,19.7267s-19.73155-8.84873-19.73155-19.7267,8.85358-19.73155,19.73155-19.73155Z"/>
    <path class="cls-1" d="M1621.23567,693.08113c-5.93564,0-10.76416-4.829-10.76416-10.76464,0-5.94048,4.82852-10.769,10.76416-10.769,5.94048,0,10.769,4.82852,10.769,10.769,0,5.93564-4.82852,10.76464-10.769,10.76464Z"/>
  </g>
  <g>
    <path class="cls-1" d="M1052.88817,837.65382c4.39849-8.26224,11.97496-12.62776,21.90708-12.62776l12.48247,10.476-12.48247.08039c-7.08005,0-9.49189,3.41483-11.35065,6.91442-1.75464,3.28262-2.36002,8.93881.45379,13.59734l2.07621,3.10294c7.79924,11.60588,21.13652,25.44489,40.38566,25.44489h131.85978c16.4775,0,32.1559-11.26106,34.94647-25.10927,1.17783-5.82667-.12305-11.41216-3.65117-15.73022-4.28029-5.22177-11.45042-8.22011-19.66084-8.22011l14.27776-8.02251c5.40294,2.05248,10.06631,5.30217,13.54601,9.55485,5.57632,6.80594,7.64769,15.51277,5.84123,24.50825-3.79792,18.82832-23.69994,33.5754-45.29945,33.5754h-131.85978c-18.6486,0-36.10053-10.69394-49.13995-30.11311l-2.12372-3.15476c-5.04161-8.07336-5.88814-17.37637-2.20843-24.27675Z"/>
    <path class="cls-1" d="M1237.4069,834.49228l18.88446-10.89202-14.23126-28.77933h-18.20599s-.08814-15.53117-.08814-15.53117l-27.73226-17.37008h-38.26202s-28.51781,16.07601-28.51781,16.07601l-48.20916-.09492.03535-4.31903-26.30695-.03342.17144,15.99175,26.05705.05957-.02809-3.49281h48.2416s.01211,8.7141.01211,8.7141h-18.36435s-27.58746,27.99427-27.58746,27.99427l13.79587,11.87031,140.33559-.19324ZM1214.12927,794.82093h-1.88059s-73.33828-.0925-73.33828-.0925l-.12298-12.51928,20.18534-11.69935,33.99239-.06344,21.13358,12.29602.03055,12.07856ZM1243.16431,819.45074l-9.52192,5.35544h-130.72501s-4.72488-3.32475-4.72488-3.32475l16.72837-16.9744h121.12367s7.11977,14.94371,7.11977,14.94371Z"/>
    <path class="cls-1" d="M1249.26317,840.71414c9.02405,0,16.36902,7.34497,16.36902,16.37338s-7.34497,16.36902-16.36902,16.36902c-9.02841,0-16.37341-7.34497-16.37341-16.36902,0-9.02841,7.345-16.37338,16.37341-16.37338Z"/>
    <path class="cls-1" d="M1224.3389,859.43349c0,10.87797-8.84922,19.7267-19.72719,19.7267-10.87801,0-19.73155-8.84873-19.73155-19.7267,0-10.87797,8.85354-19.73155,19.73155-19.73155s19.72719,8.85358,19.72719,19.73155Z"/>
    <path class="cls-1" d="M1179.69181,859.43349c0,10.87797-8.85358,19.7267-19.73155,19.7267s-19.72719-8.84873-19.72719-19.7267,8.84922-19.73155,19.72719-19.73155c10.87797,0,19.73155,8.85358,19.73155,19.73155Z"/>
    <path class="cls-1" d="M1115.31317,839.70195c10.87797,0,19.72719,8.85358,19.72719,19.73155s-8.84922,19.7267-19.72719,19.7267c-10.87797,0-19.73155-8.84873-19.73155-19.7267,0-10.87797,8.85358-19.73155,19.73155-19.73155Z"/>
    <path class="cls-1" d="M1080.34781,861.23559c-5.93564,0-10.76416-4.829-10.76416-10.76464,0-5.94048,4.82852-10.769,10.76416-10.769,5.94048,0,10.769,4.82852,10.769,10.769,0,5.93564-4.82852,10.76464-10.769,10.76464Z"/>
  </g>
  <g>
    <path class="cls-1" d="M1323.13428,837.65382c4.39849-8.26224,11.97496-12.62776,21.90708-12.62776l12.48247,10.476-12.48247.08039c-7.08005,0-9.49189,3.41483-11.35065,6.91442-1.75464,3.28262-2.36002,8.93881.45379,13.59734l2.07621,3.10294c7.79924,11.60588,21.13652,25.44489,40.38566,25.44489h131.85978c16.4775,0,32.1559-11.26106,34.94647-25.10927,1.17783-5.82667-.12305-11.41216-3.65117-15.73022-4.28029-5.22177-11.45042-8.22011-19.66084-8.22011l14.27776-8.02251c5.40294,2.05248,10.06631,5.30217,13.54601,9.55485,5.57632,6.80594,7.64769,15.51277,5.84123,24.50825-3.79792,18.82832-23.69994,33.5754-45.29945,33.5754h-131.85978c-18.6486,0-36.10053-10.69394-49.13995-30.11311l-2.12372-3.15476c-5.04161-8.07336-5.88814-17.37637-2.20843-24.27675Z"/>
    <path class="cls-1" d="M1507.65301,834.49228l18.88446-10.89202-14.23126-28.77933h-18.20599s-.08814-15.53117-.08814-15.53117l-27.73226-17.37008h-38.26202s-28.51781,16.07601-28.51781,16.07601l-48.20916-.09492.03535-4.31903-26.30695-.03342.17144,15.99175,26.05705.05957-.02809-3.49281h48.2416s.01211,8.7141.01211,8.7141h-18.36435s-27.58746,27.99427-27.58746,27.99427l13.79587,11.87031,140.33559-.19324ZM1484.37538,794.82093h-1.88059s-73.33828-.0925-73.33828-.0925l-.12298-12.51928,20.18534-11.69935,33.99239-.06344,21.13358,12.29602.03055,12.07856ZM1513.41042,819.45074l-9.52192,5.35544h-130.72501s-4.72488-3.32475-4.72488-3.32475l16.72837-16.9744h121.12367s7.11977,14.94371,7.11977,14.94371Z"/>
    <path class="cls-1" d="M1519.50927,840.71414c9.02405,0,16.36902,7.34497,16.36902,16.37338,0,9.02405-7.34497,16.36902-16.36902,16.36902-9.02841,0-16.37341-7.34497-16.37341-16.36902,0-9.02841,7.345-16.37338,16.37341-16.37338Z"/>
    <path class="cls-1" d="M1494.58501,859.43349c0,10.87797-8.84922,19.7267-19.72719,19.7267-10.87801,0-19.73155-8.84873-19.73155-19.7267,0-10.87797,8.85354-19.73155,19.73155-19.73155s19.72719,8.85358,19.72719,19.73155Z"/>
    <path class="cls-1" d="M1449.93792,859.43349c0,10.87797-8.85358,19.7267-19.73155,19.7267s-19.72719-8.84873-19.72719-19.7267c0-10.87797,8.84922-19.73155,19.72719-19.73155,10.87797,0,19.73155,8.85358,19.73155,19.73155Z"/>
    <path class="cls-1" d="M1385.55928,839.70195c10.87797,0,19.72719,8.85358,19.72719,19.73155,0,10.87797-8.84922,19.7267-19.72719,19.7267-10.87797,0-19.73155-8.84873-19.73155-19.7267s8.85358-19.73155,19.73155-19.73155Z"/>
    <path class="cls-1" d="M1350.59392,861.23559c-5.93564,0-10.76416-4.829-10.76416-10.76464,0-5.94048,4.82852-10.769,10.76416-10.769,5.94048,0,10.769,4.82852,10.769,10.769,0,5.93564-4.82852,10.76464-10.769,10.76464Z"/>
  </g>
  <g>
    <path class="cls-4" d="M875.47261,669.49936c-4.39849-8.26224-11.97496-12.62776-21.90708-12.62776l-12.48247,10.476,12.48247.08039c7.08005,0,9.49189,3.41483,11.35065,6.91442,1.75464,3.28262,2.36002,8.93881-.45379,13.59734l-2.07621,3.10294c-7.79924,11.60588-21.13652,25.44489-40.38566,25.44489h-131.85978c-16.4775,0-32.1559-11.26106-34.94647-25.10927-1.17783-5.82667.12305-11.41216,3.65117-15.73022,4.28029-5.22177,11.45042-8.22011,19.66084-8.22011l-14.27776-8.02251c-5.40294,2.05248-10.06631,5.30217-13.54601,9.55485-5.57632,6.80594-7.64769,15.51277-5.84123,24.50825,3.79792,18.82832,23.69994,33.5754,45.29945,33.5754h131.85978c18.6486,0,36.10053-10.69394,49.13995-30.11311l2.12372-3.15476c5.04161-8.07336,5.88814-17.37637,2.20843-24.27675Z"/>
    <path class="cls-4" d="M831.28947,666.53106l13.79587-11.87031-27.58746-27.99427h-18.36435s.01211-8.7141.01211-8.7141h48.2416s-.02809,3.49281-.02809,3.49281l26.05705-.05957.17144-15.99175-26.30695.03342.03535,4.31903-48.20916.09492-28.51781-16.07601h-38.26202s-27.73226,17.37008-27.73226,17.37008l-.08814,15.53117h-18.20599s-14.23126,28.77933-14.23126,28.77933l18.88446,10.89202,140.33559.19324ZM714.26205,614.58791l21.13358-12.29602,33.99239.06344,20.18534,11.69935-.12298,12.51928-73.33828.0925h-1.88059l.03055-12.07856ZM692.31623,636.35257h121.12367s16.72837,16.9744,16.72837,16.9744l-4.72488,3.32475h-130.72501s-9.52192-5.35544-9.52192-5.35544l7.11977-14.94371Z"/>
    <path class="cls-4" d="M679.09761,672.55968c-9.02405,0-16.36902,7.34497-16.36902,16.37338,0,9.02405,7.34497,16.36902,16.36902,16.36902,9.02841,0,16.37341-7.34497,16.37341-16.36902,0-9.02841-7.345-16.37338-16.37341-16.37338Z"/>
    <path class="cls-4" d="M704.02188,691.27903c0,10.87797,8.84922,19.7267,19.72719,19.7267,10.87801,0,19.73155-8.84873,19.73155-19.7267,0-10.87797-8.85354-19.73155-19.73155-19.73155s-19.72719,8.85358-19.72719,19.73155Z"/>
    <path class="cls-4" d="M748.66897,691.27903c0,10.87797,8.85358,19.7267,19.73155,19.7267,10.87797,0,19.72719-8.84873,19.72719-19.7267s-8.84922-19.73155-19.72719-19.73155c-10.87797,0-19.73155,8.85358-19.73155,19.73155Z"/>
    <path class="cls-4" d="M813.04761,671.54749c-10.87797,0-19.72719,8.85358-19.72719,19.73155,0,10.87797,8.84922,19.7267,19.72719,19.7267,10.87797,0,19.73155-8.84873,19.73155-19.7267,0-10.87797-8.85358-19.73155-19.73155-19.73155Z"/>
    <path class="cls-4" d="M848.01297,693.08113c5.93564,0,10.76416-4.829,10.76416-10.76464s-4.82852-10.769-10.76416-10.769c-5.94048,0-10.769,4.82852-10.769,10.769,0,5.93564,4.82852,10.76464,10.769,10.76464Z"/>
  </g>
  <g>
    <path class="cls-4" d="M605.2265,669.49936c-4.39849-8.26224-11.97496-12.62776-21.90708-12.62776l-12.48247,10.476,12.48247.08039c7.08005,0,9.49189,3.41483,11.35065,6.91442,1.75464,3.28262,2.36002,8.93881-.45379,13.59734l-2.07621,3.10294c-7.79924,11.60588-21.13652,25.44489-40.38566,25.44489h-131.85978c-16.4775,0-32.1559-11.26106-34.94647-25.10927-1.17783-5.82667.12305-11.41216,3.65117-15.73022,4.28029-5.22177,11.45042-8.22011,19.66084-8.22011l-14.27776-8.02251c-5.40294,2.05248-10.06631,5.30217-13.54601,9.55485-5.57632,6.80594-7.64769,15.51277-5.84123,24.50825,3.79792,18.82832,23.69994,33.5754,45.29945,33.5754h131.85978c18.6486,0,36.10053-10.69394,49.13995-30.11311l2.12372-3.15476c5.04161-8.07336,5.88814-17.37637,2.20843-24.27675Z"/>
    <path class="cls-4" d="M561.04337,666.53106l13.79587-11.87031-27.58746-27.99427h-18.36435s.01211-8.7141.01211-8.7141h48.2416s-.02809,3.49281-.02809,3.49281l26.05705-.05957.17144-15.99175-26.30695.03342.03535,4.31903-48.20916.09492-28.51781-16.07601h-38.26202s-27.73226,17.37008-27.73226,17.37008l-.08814,15.53117h-18.20599s-14.23126,28.77933-14.23126,28.77933l18.88446,10.89202,140.33559.19324ZM444.01594,614.58791l21.13358-12.29602,33.99239.06344,20.18534,11.69935-.12298,12.51928-73.33828.0925h-1.88059l.03055-12.07856ZM422.07012,636.35257h121.12367s16.72837,16.9744,16.72837,16.9744l-4.72488,3.32475h-130.72501s-9.52192-5.35544-9.52192-5.35544l7.11977-14.94371Z"/>
    <path class="cls-4" d="M408.8515,672.55968c-9.02405,0-16.36902,7.34497-16.36902,16.37338,0,9.02405,7.34497,16.36902,16.36902,16.36902,9.02841,0,16.37341-7.34497,16.37341-16.36902,0-9.02841-7.345-16.37338-16.37341-16.37338Z"/>
    <path class="cls-4" d="M433.77577,691.27903c0,10.87797,8.84922,19.7267,19.72719,19.7267,10.87801,0,19.73155-8.84873,19.73155-19.7267,0-10.87797-8.85354-19.73155-19.73155-19.73155-10.87797,0-19.72719,8.85358-19.72719,19.73155Z"/>
    <path class="cls-4" d="M478.42286,691.27903c0,10.87797,8.85358,19.7267,19.73155,19.7267,10.87797,0,19.72719-8.84873,19.72719-19.7267,0-10.87797-8.84922-19.73155-19.72719-19.73155s-19.73155,8.85358-19.73155,19.73155Z"/>
    <path class="cls-4" d="M542.8015,671.54749c-10.87797,0-19.72719,8.85358-19.72719,19.73155,0,10.87797,8.84922,19.7267,19.72719,19.7267s19.73155-8.84873,19.73155-19.7267c0-10.87797-8.85358-19.73155-19.73155-19.73155Z"/>
    <path class="cls-4" d="M577.76686,693.08113c5.93564,0,10.76416-4.829,10.76416-10.76464,0-5.94048-4.82852-10.769-10.76416-10.769-5.94048,0-10.769,4.82852-10.769,10.769,0,5.93564,4.82852,10.76464,10.769,10.76464Z"/>
  </g>
  <g>
    <path class="cls-4" d="M875.47261,837.65382c-4.39849-8.26224-11.97496-12.62776-21.90708-12.62776l-12.48247,10.476,12.48247.08039c7.08005,0,9.49189,3.41483,11.35065,6.91442,1.75464,3.28262,2.36002,8.93881-.45379,13.59734l-2.07621,3.10294c-7.79924,11.60588-21.13652,25.44489-40.38566,25.44489h-131.85978c-16.4775,0-32.1559-11.26106-34.94647-25.10927-1.17783-5.82667.12305-11.41216,3.65117-15.73022,4.28029-5.22177,11.45042-8.22011,19.66084-8.22011l-14.27776-8.02251c-5.40294,2.05248-10.06631,5.30217-13.54601,9.55485-5.57632,6.80594-7.64769,15.51277-5.84123,24.50825,3.79792,18.82832,23.69994,33.5754,45.29945,33.5754h131.85978c18.6486,0,36.10053-10.69394,49.13995-30.11311l2.12372-3.15476c5.04161-8.07336,5.88814-17.37637,2.20843-24.27675Z"/>
    <path class="cls-4" d="M831.28947,834.68552l13.79587-11.87031-27.58746-27.99427h-18.36435s.01211-8.7141.01211-8.7141h48.2416s-.02809,3.49281-.02809,3.49281l26.05705-.05957.17144-15.99175-26.30695.03342.03535,4.31903-48.20916.09492-28.51781-16.07601h-38.26202s-27.73226,17.37008-27.73226,17.37008l-.08814,15.53117h-18.20599s-14.23126,28.77933-14.23126,28.77933l18.88446,10.89202,140.33559.19324ZM714.26205,782.74237l21.13358-12.29602,33.99239.06344,20.18534,11.69935-.12298,12.51928-73.33828.0925h-1.88059l.03055-12.07856ZM692.31623,804.50703h121.12367s16.72837,16.9744,16.72837,16.9744l-4.72488,3.32475h-130.72501s-9.52192-5.35544-9.52192-5.35544l7.11977-14.94371Z"/>
    <path class="cls-4" d="M679.09761,840.71414c-9.02405,0-16.36902,7.34497-16.36902,16.37338,0,9.02405,7.34497,16.36902,16.36902,16.36902,9.02841,0,16.37341-7.34497,16.37341-16.36902,0-9.02841-7.345-16.37338-16.37341-16.37338Z"/>
    <path class="cls-4" d="M704.02188,859.43349c0,10.87797,8.84922,19.7267,19.72719,19.7267,10.87801,0,19.73155-8.84873,19.73155-19.7267,0-10.87797-8.85354-19.73155-19.73155-19.73155s-19.72719,8.85358-19.72719,19.73155Z"/>
    <path class="cls-4" d="M748.66897,859.43349c0,10.87797,8.85358,19.7267,19.73155,19.7267,10.87797,0,19.72719-8.84873,19.72719-19.7267,0-10.87797-8.84922-19.73155-19.72719-19.73155s-19.73155,8.85358-19.73155,19.73155Z"/>
    <path class="cls-4" d="M813.04761,839.70195c-10.87797,0-19.72719,8.85358-19.72719,19.73155,0,10.87797,8.84922,19.7267,19.72719,19.7267,10.87797,0,19.73155-8.84873,19.73155-19.7267s-8.85358-19.73155-19.73155-19.73155Z"/>
    <path class="cls-4" d="M848.01297,861.23559c5.93564,0,10.76416-4.829,10.76416-10.76464,0-5.94048-4.82852-10.769-10.76416-10.769-5.94048,0-10.769,4.82852-10.769,10.769,0,5.93564,4.82852,10.76464,10.769,10.76464Z"/>
  </g>
  <g>
    <path class="cls-4" d="M605.2265,837.65382c-4.39849-8.26224-11.97496-12.62776-21.90708-12.62776l-12.48247,10.476,12.48247.08039c7.08005,0,9.49189,3.41483,11.35065,6.91442,1.75464,3.28262,2.36002,8.93881-.45379,13.59734l-2.07621,3.10294c-7.79924,11.60588-21.13652,25.44489-40.38566,25.44489h-131.85978c-16.4775,0-32.1559-11.26106-34.94647-25.10927-1.17783-5.82667.12305-11.41216,3.65117-15.73022,4.28029-5.22177,11.45042-8.22011,19.66084-8.22011l-14.27776-8.02251c-5.40294,2.05248-10.06631,5.30217-13.54601,9.55485-5.57632,6.80594-7.64769,15.51277-5.84123,24.50825,3.79792,18.82832,23.69994,33.5754,45.29945,33.5754h131.85978c18.6486,0,36.10053-10.69394,49.13995-30.11311l2.12372-3.15476c5.04161-8.07336,5.88814-17.37637,2.20843-24.27675Z"/>
    <path class="cls-4" d="M561.04337,834.68552l13.79587-11.87031-27.58746-27.99427h-18.36435s.01211-8.7141.01211-8.7141h48.2416s-.02809,3.49281-.02809,3.49281l26.05705-.05957.17144-15.99175-26.30695.03342.03535,4.31903-48.20916.09492-28.51781-16.07601h-38.26202s-27.73226,17.37008-27.73226,17.37008l-.08814,15.53117h-18.20599s-14.23126,28.77933-14.23126,28.77933l18.88446,10.89202,140.33559.19324ZM444.01594,782.74237l21.13358-12.29602,33.99239.06344,20.18534,11.69935-.12298,12.51928-73.33828.0925h-1.88059l.03055-12.07856ZM422.07012,804.50703h121.12367s16.72837,16.9744,16.72837,16.9744l-4.72488,3.32475h-130.72501s-9.52192-5.35544-9.52192-5.35544l7.11977-14.94371Z"/>
    <path class="cls-4" d="M408.8515,840.71414c-9.02405,0-16.36902,7.34497-16.36902,16.37338,0,9.02405,7.34497,16.36902,16.36902,16.36902,9.02841,0,16.37341-7.34497,16.37341-16.36902s-7.345-16.37338-16.37341-16.37338Z"/>
    <path class="cls-4" d="M433.77577,859.43349c0,10.87797,8.84922,19.7267,19.72719,19.7267s19.73155-8.84873,19.73155-19.7267c0-10.87797-8.85354-19.73155-19.73155-19.73155-10.87797,0-19.72719,8.85358-19.72719,19.73155Z"/>
    <path class="cls-4" d="M478.42286,859.43349c0,10.87797,8.85358,19.7267,19.73155,19.7267s19.72719-8.84873,19.72719-19.7267c0-10.87797-8.84922-19.73155-19.72719-19.73155-10.87797,0-19.73155,8.85358-19.73155,19.73155Z"/>
    <path class="cls-4" d="M542.8015,839.70195c-10.87797,0-19.72719,8.85358-19.72719,19.73155,0,10.87797,8.84922,19.7267,19.72719,19.7267,10.87797,0,19.73155-8.84873,19.73155-19.7267,0-10.87797-8.85358-19.73155-19.73155-19.73155Z"/>
    <path class="cls-4" d="M577.76686,861.23559c5.93564,0,10.76416-4.829,10.76416-10.76464,0-5.94048-4.82852-10.769-10.76416-10.769-5.94048,0-10.769,4.82852-10.769,10.769,0,5.93564,4.82852,10.76464,10.769,10.76464Z"/>
  </g>
  <g>
    <path class="cls-4" d="M326.22397,669.49936c-4.39849-8.26224-11.97496-12.62776-21.90708-12.62776l-12.48247,10.476,12.48247.08039c7.08005,0,9.49189,3.41483,11.35065,6.91442,1.75464,3.28262,2.36002,8.93881-.45379,13.59734l-2.07621,3.10294c-7.79924,11.60588-21.13652,25.44489-40.38566,25.44489h-131.85978c-16.4775,0-32.1559-11.26106-34.94647-25.10927-1.17783-5.82667.12305-11.41216,3.65117-15.73022,4.28029-5.22177,11.45042-8.22011,19.66084-8.22011l-14.27776-8.02251c-5.40294,2.05248-10.06631,5.30217-13.54601,9.55485-5.57632,6.80594-7.64769,15.51277-5.84123,24.50825,3.79792,18.82832,23.69994,33.5754,45.29945,33.5754h131.85978c18.6486,0,36.10053-10.69394,49.13995-30.11311l2.12372-3.15476c5.04161-8.07336,5.88814-17.37637,2.20843-24.27675Z"/>
    <path class="cls-4" d="M282.04084,666.53106l13.79587-11.87031-27.58746-27.99427h-18.36435s.01211-8.7141.01211-8.7141h48.2416s-.02809,3.49281-.02809,3.49281l26.05705-.05957.17144-15.99175-26.30695.03342.03535,4.31903-48.20916.09492-28.51781-16.07601h-38.26202s-27.73226,17.37008-27.73226,17.37008l-.08814,15.53117h-18.20599s-14.23126,28.77933-14.23126,28.77933l18.88446,10.89202,140.33559.19324ZM165.01342,614.58791l21.13358-12.29602,33.99239.06344,20.18534,11.69935-.12298,12.51928-73.33828.0925h-1.88059l.03055-12.07856ZM143.0676,636.35257h121.12367s16.72837,16.9744,16.72837,16.9744l-4.72488,3.32475h-130.72501s-9.52192-5.35544-9.52192-5.35544l7.11977-14.94371Z"/>
    <path class="cls-4" d="M129.84898,672.55968c-9.02405,0-16.36902,7.34497-16.36902,16.37338,0,9.02405,7.34497,16.36902,16.36902,16.36902,9.02841,0,16.37341-7.34497,16.37341-16.36902,0-9.02841-7.345-16.37338-16.37341-16.37338Z"/>
    <path class="cls-4" d="M154.77324,691.27903c0,10.87797,8.84922,19.7267,19.72719,19.7267,10.87801,0,19.73155-8.84873,19.73155-19.7267,0-10.87797-8.85354-19.73155-19.73155-19.73155-10.87797,0-19.72719,8.85358-19.72719,19.73155Z"/>
    <path class="cls-4" d="M199.42034,691.27903c0,10.87797,8.85358,19.7267,19.73155,19.7267,10.87797,0,19.72719-8.84873,19.72719-19.7267,0-10.87797-8.84922-19.73155-19.72719-19.73155s-19.73155,8.85358-19.73155,19.73155Z"/>
    <path class="cls-4" d="M263.79898,671.54749c-10.87797,0-19.72719,8.85358-19.72719,19.73155,0,10.87797,8.84922,19.7267,19.72719,19.7267s19.73155-8.84873,19.73155-19.7267c0-10.87797-8.85358-19.73155-19.73155-19.73155Z"/>
    <path class="cls-4" d="M298.76433,693.08113c5.93564,0,10.76416-4.829,10.76416-10.76464,0-5.94048-4.82852-10.769-10.76416-10.769-5.94048,0-10.769,4.82852-10.769,10.769,0,5.93564,4.82852,10.76464,10.769,10.76464Z"/>
  </g>
  <g>
    <path class="cls-4" d="M326.22397,837.65382c-4.39849-8.26224-11.97496-12.62776-21.90708-12.62776l-12.48247,10.476,12.48247.08039c7.08005,0,9.49189,3.41483,11.35065,6.91442,1.75464,3.28262,2.36002,8.93881-.45379,13.59734l-2.07621,3.10294c-7.79924,11.60588-21.13652,25.44489-40.38566,25.44489h-131.85978c-16.4775,0-32.1559-11.26106-34.94647-25.10927-1.17783-5.82667.12305-11.41216,3.65117-15.73022,4.28029-5.22177,11.45042-8.22011,19.66084-8.22011l-14.27776-8.02251c-5.40294,2.05248-10.06631,5.30217-13.54601,9.55485-5.57632,6.80594-7.64769,15.51277-5.84123,24.50825,3.79792,18.82832,23.69994,33.5754,45.29945,33.5754h131.85978c18.6486,0,36.10053-10.69394,49.13995-30.11311l2.12372-3.15476c5.04161-8.07336,5.88814-17.37637,2.20843-24.27675Z"/>
    <path class="cls-4" d="M282.04084,834.68552l13.79587-11.87031-27.58746-27.99427h-18.36435s.01211-8.7141.01211-8.7141h48.2416s-.02809,3.49281-.02809,3.49281l26.05705-.05957.17144-15.99175-26.30695.03342.03535,4.31903-48.20916.09492-28.51781-16.07601h-38.26202s-27.73226,17.37008-27.73226,17.37008l-.08814,15.53117h-18.20599s-14.23126,28.77933-14.23126,28.77933l18.88446,10.89202,140.33559.19324ZM165.01342,782.74237l21.13358-12.29602,33.99239.06344,20.18534,11.69935-.12298,12.51928-73.33828.0925h-1.88059l.03055-12.07856ZM143.0676,804.50703h121.12367s16.72837,16.9744,16.72837,16.9744l-4.72488,3.32475h-130.72501s-9.52192-5.35544-9.52192-5.35544l7.11977-14.94371Z"/>
    <path class="cls-4" d="M129.84898,840.71414c-9.02405,0-16.36902,7.34497-16.36902,16.37338,0,9.02405,7.34497,16.36902,16.36902,16.36902,9.02841,0,16.37341-7.34497,16.37341-16.36902s-7.345-16.37338-16.37341-16.37338Z"/>
    <path class="cls-4" d="M154.77324,859.43349c0,10.87797,8.84922,19.7267,19.72719,19.7267s19.73155-8.84873,19.73155-19.7267c0-10.87797-8.85354-19.73155-19.73155-19.73155-10.87797,0-19.72719,8.85358-19.72719,19.73155Z"/>
    <path class="cls-4" d="M199.42034,859.43349c0,10.87797,8.85358,19.7267,19.73155,19.7267s19.72719-8.84873,19.72719-19.7267c0-10.87797-8.84922-19.73155-19.72719-19.73155-10.87797,0-19.73155,8.85358-19.73155,19.73155Z"/>
    <path class="cls-4" d="M263.79898,839.70195c-10.87797,0-19.72719,8.85358-19.72719,19.73155,0,10.87797,8.84922,19.7267,19.72719,19.7267,10.87797,0,19.73155-8.84873,19.73155-19.7267,0-10.87797-8.85358-19.73155-19.73155-19.73155Z"/>
    <path class="cls-4" d="M298.76433,861.23559c5.93564,0,10.76416-4.829,10.76416-10.76464,0-5.94048-4.82852-10.769-10.76416-10.769-5.94048,0-10.769,4.82852-10.769,10.769,0,5.93564,4.82852,10.76464,10.769,10.76464Z"/>
  </g>
  <g>
    <path class="cls-1" d="M1593.77603,837.65382c4.39849-8.26224,11.97496-12.62776,21.90708-12.62776l12.48247,10.476-12.48247.08039c-7.08005,0-9.49189,3.41483-11.35065,6.91442-1.75464,3.28262-2.36002,8.93881.45379,13.59734l2.07621,3.10294c7.79924,11.60588,21.13652,25.44489,40.38566,25.44489h131.85978c16.4775,0,32.1559-11.26106,34.94647-25.10927,1.17783-5.82667-.12305-11.41216-3.65117-15.73022-4.28029-5.22177-11.45042-8.22011-19.66084-8.22011l14.27776-8.02251c5.40294,2.05248,10.06631,5.30217,13.54601,9.55485,5.57632,6.80594,7.64769,15.51277,5.84123,24.50825-3.79792,18.82832-23.69994,33.5754-45.29945,33.5754h-131.85978c-18.6486,0-36.10053-10.69394-49.13995-30.11311l-2.12372-3.15476c-5.04161-8.07336-5.88814-17.37637-2.20843-24.27675Z"/>
    <path class="cls-1" d="M1778.29475,834.49228l18.88446-10.89202-14.23126-28.77933h-18.20599s-.08814-15.53117-.08814-15.53117l-27.73226-17.37008h-38.26202s-28.51781,16.07601-28.51781,16.07601l-48.20916-.09492.03535-4.31903-26.30695-.03342.17144,15.99175,26.05705.05957-.02809-3.49281h48.2416s.01211,8.7141.01211,8.7141h-18.36435s-27.58746,27.99427-27.58746,27.99427l13.79587,11.87031,140.33559-.19324ZM1755.01713,794.82093h-1.88059s-73.33828-.0925-73.33828-.0925l-.12298-12.51928,20.18534-11.69935,33.99239-.06344,21.13358,12.29602.03055,12.07856ZM1784.05217,819.45074l-9.52192,5.35544h-130.72501s-4.72488-3.32475-4.72488-3.32475l16.72837-16.9744h121.12367s7.11977,14.94371,7.11977,14.94371Z"/>
    <path class="cls-1" d="M1790.15102,840.71414c9.02405,0,16.36902,7.34497,16.36902,16.37338,0,9.02405-7.34497,16.36902-16.36902,16.36902-9.02841,0-16.37341-7.34497-16.37341-16.36902,0-9.02841,7.345-16.37338,16.37341-16.37338Z"/>
    <path class="cls-1" d="M1765.22676,859.43349c0,10.87797-8.84922,19.7267-19.72719,19.7267-10.87801,0-19.73155-8.84873-19.73155-19.7267,0-10.87797,8.85354-19.73155,19.73155-19.73155s19.72719,8.85358,19.72719,19.73155Z"/>
    <path class="cls-1" d="M1720.57966,859.43349c0,10.87797-8.85358,19.7267-19.73155,19.7267s-19.72719-8.84873-19.72719-19.7267c0-10.87797,8.84922-19.73155,19.72719-19.73155,10.87797,0,19.73155,8.85358,19.73155,19.73155Z"/>
    <path class="cls-1" d="M1656.20102,839.70195c10.87797,0,19.72719,8.85358,19.72719,19.73155,0,10.87797-8.84922,19.7267-19.72719,19.7267-10.87797,0-19.73155-8.84873-19.73155-19.7267s8.85358-19.73155,19.73155-19.73155Z"/>
    <path class="cls-1" d="M1621.23567,861.23559c-5.93564,0-10.76416-4.829-10.76416-10.76464,0-5.94048,4.82852-10.769,10.76416-10.769,5.94048,0,10.769,4.82852,10.769,10.769,0,5.93564-4.82852,10.76464-10.769,10.76464Z"/>
  </g>
  <polygon class="cls-3" points="936.58162 58.54388 936.58162 466.02234 857.6924 466.02234 849.96305 466.02234 849.96305 504.16907 857.6924 504.16907 1069.65727 504.16907 1077.38669 504.16907 1077.38669 466.02234 1069.65727 466.02234 990.76805 466.02234 990.76805 58.54388 936.58162 58.54388"/>
  <line class="cls-3" x1="1276.38233" y1="349.34092" x2="1125.06786" y2="353.73477"/>
  <g>
    <g>
      <path class="cls-1" d="M1333.45938,326.12469c-2.7976-5.25911-7.59951-8.0374-13.88973-8.0374h-.59936l-10.98243,9.21682,11.58179.07108c3.1258,0,4.03494,1.26278,4.98882,3.04858.80558,1.51464.9925,4.09285-.17463,6.01993l-1.1724,1.75947c-4.20869,6.25775-11.36324,13.7151-21.55329,13.7151h-74.82269c-8.60429,0-16.77684-5.80055-18.20723-12.92882-.57391-2.80989.04475-5.49165,1.727-7.55388,2.114-2.57822,5.71718-4.06038,9.88024-4.06038h6.3104l-14.27672-8.0181-.72134.2773c-3.35221,1.2698-6.24546,3.31886-8.37877,5.91638-3.48033,4.25432-4.77646,9.68104-3.65492,15.28151,2.30793,11.4212,14.30827,20.37388,27.32134,20.37388h74.82269c11.15706,0,21.54627-6.32971,29.25548-17.81497l1.23733-1.83669c3.17056-5.08535,3.67339-10.99559,1.30841-15.42981Z"/>
      <path class="cls-1" d="M1307.54295,326.86621l9.6354-8.28926-17.38234-17.62717h-9.46165l.00614-1.64978h24.06043l-.01931,1.99114,18.08525-.04475.13518-12.36895-18.25992.01931.01931,2.44922-25.25827.05177-16.1845-9.12029h-22.616l-16.90584,10.59017-.05177,8.08216h-9.71263l-9.21682,18.63284,12.43915,7.1739,80.68818.10969ZM1242.16264,300.94978l.01225-4.25432,10.78937-6.27705,18.39502.03159,10.24793,5.93657-.04475,4.51144-39.39981.05177ZM1229.86474,317.96531l-3.68041-2.07539,2.93274-6.14893h66.99853l7.64426,7.7601-.6643.46422h-73.23083Z"/>
    </g>
    <path class="cls-1" d="M1220.57157,328.63972c-5.12045,0-9.28878,4.16744-9.28878,9.29053,0,5.12133,4.16832,9.28878,9.28878,9.28878,5.12309,0,9.29141-4.16744,9.29141-9.28878,0-5.12309-4.16832-9.29053-9.29141-9.29053Z"/>
    <path class="cls-1" d="M1234.71491,339.26148c0,6.17263,5.02129,11.19392,11.19392,11.19392s11.19655-5.02129,11.19655-11.19392-5.02392-11.19655-11.19655-11.19655-11.19392,5.02392-11.19392,11.19655Z"/>
    <path class="cls-1" d="M1260.04953,339.26148c0,6.17263,5.02392,11.19392,11.19655,11.19392s11.19392-5.02129,11.19392-11.19392-5.02129-11.19655-11.19392-11.19655-11.19655,5.02392-11.19655,11.19655Z"/>
    <path class="cls-1" d="M1296.5807,328.06493c-6.17263,0-11.19392,5.02392-11.19392,11.19655s5.02129,11.19392,11.19392,11.19392,11.19655-5.02129,11.19655-11.19392-5.02392-11.19655-11.19655-11.19655Z"/>
    <path class="cls-1" d="M1316.42191,340.2847c3.36805,0,6.10857-2.74056,6.10857-6.10857,0-3.37064-2.74052-6.1112-6.10857-6.1112-3.37064,0-6.1112,2.74056-6.1112,6.1112,0,3.368,2.74056,6.10857,6.1112,6.10857Z"/>
  </g>
  <g>
    <g>
      <path class="cls-1" d="M1196.71561,326.12469c-2.7976-5.25911-7.59951-8.0374-13.88973-8.0374h-.59932l-10.98247,9.21682,11.58179.07108c3.1258,0,4.03494,1.26278,4.98882,3.04858.80558,1.51464.9925,4.09285-.17463,6.01993l-1.1724,1.75947c-4.20869,6.25775-11.36328,13.7151-21.55329,13.7151h-74.82269c-8.60429,0-16.7768-5.80055-18.20811-12.92882-.57303-2.80989.04563-5.49165,1.72788-7.55388,2.114-2.57822,5.71718-4.06038,9.88024-4.06038h6.3104l-14.27672-8.0181-.72134.2773c-3.35221,1.2698-6.24543,3.31886-8.37877,5.91638-3.48121,4.25432-4.77646,9.68104-3.65496,15.28151,2.30793,11.4212,14.30831,20.37388,27.32137,20.37388h74.82269c11.15706,0,21.54627-6.32971,29.2546-17.81497l1.23825-1.83669c3.17052-5.08535,3.67335-10.99559,1.30838-15.42981Z"/>
      <path class="cls-1" d="M1170.79918,326.86621l9.6354-8.28926-17.38322-17.62717h-9.46077l.00614-1.64978h24.05955l-.01927,1.99114,18.08521-.04475.13602-12.36895-18.25988.01931.01931,2.44922-25.25827.05177-16.1845-9.12029h-22.61596l-16.90587,10.59017-.05177,8.08216h-9.71263l-9.21682,18.63284,12.43919,7.1739,80.68814.10969ZM1105.41883,300.94978l.01229-4.25432,10.78937-6.27705,18.39502.03159,10.24793,5.93657-.04563,4.51144-39.39898.05177ZM1093.121,317.96531l-3.68044-2.07539,2.93274-6.14893h66.99853l7.64339,7.7601-.66338.46422h-73.23083Z"/>
    </g>
    <path class="cls-1" d="M1083.82784,328.63972c-5.12049,0-9.28881,4.16744-9.28881,9.29053,0,5.12133,4.16832,9.28878,9.28881,9.28878,5.12305,0,9.2905-4.16744,9.2905-9.28878,0-5.12309-4.16744-9.29053-9.2905-9.29053Z"/>
    <path class="cls-1" d="M1097.97114,339.26148c0,6.17263,5.02129,11.19392,11.19392,11.19392s11.19655-5.02129,11.19655-11.19392-5.02392-11.19655-11.19655-11.19655-11.19392,5.02392-11.19392,11.19655Z"/>
    <path class="cls-1" d="M1123.30576,339.26148c0,6.17263,5.02392,11.19392,11.19655,11.19392s11.19392-5.02129,11.19392-11.19392-5.02125-11.19655-11.19392-11.19655-11.19655,5.02392-11.19655,11.19655Z"/>
    <path class="cls-1" d="M1159.83693,328.06493c-6.17263,0-11.19388,5.02392-11.19388,11.19655s5.02125,11.19392,11.19388,11.19392,11.19655-5.02129,11.19655-11.19392-5.02389-11.19655-11.19655-11.19655Z"/>
    <path class="cls-1" d="M1179.67814,340.2847c3.368,0,6.10769-2.74056,6.10769-6.10857,0-3.37064-2.73968-6.1112-6.10769-6.1112-3.37064,0-6.1112,2.74056-6.1112,6.1112,0,3.368,2.74056,6.10857,6.1112,6.10857Z"/>
  </g>
  <path class="cls-1" d="M1178.80587,281.35603c-.62569,0-1.26366-.09653-1.92708-.33522-.82489-.29661-1.9341-.30889-3.21619-.32206-.69589-.00614-1.39266-.01931-2.08153-.06494-1.43127-.08951-2.9266-.37998-4.57638-.87579-2.73263-.82577-4.64746-2.88097-5.31088-5.62065-7.86365-2.14647-8.52707-2.20438-10.04785-2.33338-1.50849-.129-3.78392-.32206-11.07984-1.74016l-3.42855-.66342-.04563-3.49349c-.05792-4.96952,4.00247-7.14143,5.34335-7.85049l.98639-.52828,1.11448.02545c.47735.00702.94774.01316,1.42509.02633-2.12102-.21939-4.02177-.41946-4.76944-.48353l-31.99425-2.9968c-2.40446-.23255-4.81511-.43263-7.21869-.61252-3.30658-.27116-5.26613-1.86302-6.33585-3.14511-2.33338-2.81077-1.46988-5.27929-.9925-6.20685,1.94024-3.77694,7.19935-3.41013,11.36943-3.11966l.98636.05792,36.80847.52214c5.69788.09039,11.38873.21237,17.08573.32908l2.90729.05792-.65114-4.80191c-.53438-3.9893-1.06358-7.97948-1.63047-11.96879-.42561-3.0556.96705-5.54343,3.73131-6.65176l.92844-.4063c.70291-.32206,1.412-.63797,2.14647-.88281,2.83621-.93458,5.67769.31591,7.03788,3.14511l.91531,1.86916c.43877.87666.87663,1.75947,1.27591,2.6493l6.51666,14.53384c1.41105-.26414,2.70016-.2773,3.67335-.28959,1.62433-.02633,3.57072.32206,5.11782,1.01181,4.87913-3.46102,9.05535-7.24498,13.45798-11.23429,2.12628-1.92708,4.30526-3.89892,6.6386-5.9041l.75381-.70905c2.29477-2.16489,4.35699-3.84714,10.07418-5.7163,5.52325-1.79194,9.19049-1.05744,12.32946,0,6.47099,2.17806,12.18817,8.70697,12.7419,14.55315.83191,7.92771-3.48647,11.81434-5.54255,13.45798,17.13136,3.42241,53.76608,10.52435,66.57292,12.53568l.92756.1483c.98636.15445,1.96569.30889,2.95205.48353,1.39266-.05792,4.48599-.16761,6.08399,2.58436,1.08289,1.86916.90299,4.02792-.55373,6.42624-1.88847,3.1258-5.0406,4.85895-8.86843,4.49828-4.31224-.24483-8.61746-.6055-12.9297-.96705l-34.82962-2.75197c-13.09029-.91528-21.52083-1.52692-23.02932-1.727-.00614.06406-10.94382-.31591-13.77916-.34838l-1.24435-.01931c-1.34699-.01931-2.70019-.04475-4.03494-.01229l19.23308,3.59002-4.72464,6.47713c-.65118.91528-1.23733,1.727-1.90167,2.46238-.79238.86964-2.17191,1.84898-4.82736,1.71384-5.41355-.32206-10.81482-.66342-16.20991-1.02497l-6.0972-.43175c-4.23414-.30889-8.46827-.61165-12.70329-.80558-.33522.05177-1.20486.23255-1.88847.43175-.57387.17463-1.14695.34224-1.72086.47738l-1.1215.25098c-1.31456.29047-2.62911.58708-3.92524.95389l-.62477.27116c-.55464.27028-1.11539.52214-1.69545.70905-1.06358.36681-2.27459.79242-3.57686.79242ZM1179.72729,272.92549c.02633.00702.05177.01931.07108.02633-.01931-.00702-.04475-.01931-.07108-.02633ZM1169.98833,271.68816c.79944.21939,1.51467.34838,2.14032.387.54759.03159,1.08903.03861,1.63047.04475,1.47602.01316,3.26796.03861,5.15643.55461l.88281-.29047c1.23119-.58005,1.90778-.87666,2.61069-1.06972,1.41109-.39928,2.87395-.72836,4.34383-1.05656l1.07587-.24571c.39314-.08951.79944-.21237,1.1996-.33434,1.30139-.38085,2.95117-.84507,4.71766-.78013.53442.02545,1.06972.05177,1.60502.07722l12.6129-10.29268,3.35835-.69677c2.01747-.37383,4.04108-.74064,6.07785-.92142,2.4422-.21237,4.91072-.17375,7.3538-.14128l1.22417.01229c2.9266.03861,14.35394.39314,14.35394.39314,1.95253.23869,16.66104,1.2698,22.94508,1.70857,2.62911.18692,4.49828.32206,4.82121.34751l10.30585.81875c-5.70402-1.07674-10.8666-2.06924-14.31533-2.73968q-34.20481-6.61227-35.049-9.27386l-.79242-2.52732,1.89461-1.84284c1.93322-1.88233,3.7708-3.10035,5.39425-4.17008.75469-.49669,1.46988-.96705,2.13418-1.48217,1.727-1.36019,3.02225-2.6686,2.65544-6.12963-.17463-1.83055-2.93274-5.92955-6.94223-7.27657-1.90778-.65728-3.64092-1.06358-6.92205.02545-4.33067,1.41196-5.3881,2.41061-6.84482,3.7901l-.9986.92142c-2.32728,2.01132-4.45356,3.93841-6.52891,5.81985-5.07311,4.59568-9.86799,8.93337-15.90723,13.01306-2.06924,1.3795-4.38946,1.37335-6.36744-.04475-.32294-.23255-.84507-.52916-1.90159-.52916-.02549,0-.05181.00702-.07112.00702-1.76561.01229-2.72652.10969-3.42241.61867l-4.02792,2.91958-2.30091-4.41491c-.41946-.78628-.60638-1.1408-.76697-1.50147l-6.29109-14.04417c.20622,1.56553.41946,3.13195.62569,4.7045l2.05612,14.68917-9.57753-.16147c7.54071.65728,7.97246,1.11536,8.93951,2.15875l1.03725,1.8051.20626.83103,1.5146,10.87976-5.61363.30275-3.94455-.05792c.13514.03861.27734.07722.42561.11671l2.77128.76697.34751,2.85464c.07108.57391.12904,1.03111.16761,1.45672ZM1167.62336,224.09646c0,.00702.00614.01316.00614.02633l-.00614-.02633Z"/>
  <line class="cls-3" x1="806.41854" y1="349.34092" x2="655.10319" y2="353.73477"/>
  <path class="cls-3" d="M1082.00164,77.17233h-324.53412l30.99389,134.85004-29.97945-4.48687-29.50031-130.32807-27.51707,130.15695c-8.95531.78628-21.37601,5.2047-29.19405,6.29373l30.6613-136.48577h-19.71221l-.00527-29.41431h559.81705l-.00618,29.41431h-19.71134l30.6613,133.24414c-7.81802-1.08991-20.23874-2.26581-29.19405-3.05209l-27.51794-130.15695-29.72584,131.32671-30.89999,8.47881,32.13995-139.84061h-324.53412,237.75844Z"/>
  <g>
    <g>
      <path class="cls-4" d="M863.49474,326.12469c-2.79675-5.25911-7.59866-8.0374-13.88976-8.0374h-.59936l-10.98243,9.21682,11.58179.07108c3.12668,0,4.03497,1.26278,4.98882,3.04858.80558,1.51464.9925,4.09285-.17375,6.01993l-1.17327,1.75947c-4.20869,6.25775-11.36241,13.7151-21.55242,13.7151h-74.82269c-8.60429,0-16.77681-5.80055-18.20811-12.92882-.57391-2.80989.04478-5.49165,1.727-7.55388,2.114-2.57822,5.71718-4.06038,9.88112-4.06038h6.30952l-14.27584-8.0181-.72222.2773c-3.35133,1.2698-6.24546,3.31886-8.37877,5.91638-3.48033,4.25432-4.77558,9.68104-3.65408,15.28151,2.30706,11.4212,14.30831,20.37388,27.32137,20.37388h74.82269c11.15618,0,21.54627-6.32971,29.2546-17.81497l1.23733-1.83669c3.17143-5.08535,3.67427-10.99559,1.30844-15.42981Z"/>
      <path class="cls-4" d="M837.57828,326.86621l9.63628-8.28926-17.38322-17.62717h-9.46165l.00614-1.64978h24.06043l-.01928,1.99114,18.08522-.04475.13514-12.36895-18.259.01931.01931,2.44922-25.25915.05177-16.18362-9.12029h-22.61597l-16.90586,10.59017-.05177,8.08216h-9.71351l-9.21594,18.63284,12.43918,7.1739,80.68727.10969ZM772.19793,300.94978l.01316-4.25432,10.78937-6.27705,18.39415.03159,10.24793,5.93657-.04475,4.51144-39.39985.05177ZM759.90097,317.96531l-3.68044-2.07539,2.93274-6.14893h66.99765l7.64426,7.7601-.66339.46422h-73.23083Z"/>
    </g>
    <path class="cls-4" d="M750.6069,328.63972c-5.12045,0-9.2879,4.16744-9.2879,9.29053,0,5.12133,4.16744,9.28878,9.2879,9.28878,5.12396,0,9.29141-4.16744,9.29141-9.28878,0-5.12309-4.16744-9.29053-9.29141-9.29053Z"/>
    <path class="cls-4" d="M764.75024,339.26148c0,6.17263,5.02129,11.19392,11.19392,11.19392s11.19743-5.02129,11.19743-11.19392-5.0248-11.19655-11.19743-11.19655-11.19392,5.02392-11.19392,11.19655Z"/>
    <path class="cls-4" d="M790.08486,339.26148c0,6.17263,5.0248,11.19392,11.19743,11.19392s11.19392-5.02129,11.19392-11.19392-5.02126-11.19655-11.19392-11.19655-11.19743,5.02392-11.19743,11.19655Z"/>
    <path class="cls-4" d="M826.61691,328.06493c-6.17263,0-11.19389,5.02392-11.19389,11.19655s5.02126,11.19392,11.19389,11.19392,11.19655-5.02129,11.19655-11.19392-5.0239-11.19655-11.19655-11.19655Z"/>
    <path class="cls-4" d="M846.45724,340.2847c3.36888,0,6.10857-2.74056,6.10857-6.10857,0-3.37064-2.73968-6.1112-6.10857-6.1112-3.37064,0-6.11032,2.74056-6.11032,6.1112,0,3.368,2.73968,6.10857,6.11032,6.10857Z"/>
  </g>
  <g>
    <g>
      <path class="cls-4" d="M726.75094,326.12469c-2.7976-5.25911-7.59863-8.0374-13.88973-8.0374h-.59936l-10.98243,9.21682,11.58179.07108c3.1258,0,4.03494,1.26278,4.98882,3.04858.80558,1.51464.9925,4.09285-.17375,6.01993l-1.17327,1.75947c-4.20866,6.25775-11.36328,13.7151-21.55242,13.7151h-74.82269c-8.60429,0-16.77771-5.80055-18.20811-12.92882-.57391-2.80989.04475-5.49165,1.727-7.55388,2.11402-2.57822,5.71718-4.06038,9.88112-4.06038h6.30952l-14.27584-8.0181-.72219.2773c-3.35135,1.2698-6.24549,3.31886-8.37879,5.91638-3.48033,4.25432-4.77556,9.68104-3.65408,15.28151,2.30706,11.4212,14.30831,20.37388,27.32137,20.37388h74.82269c11.15618,0,21.54627-6.32971,29.2546-17.81497l1.23733-1.83669c3.17143-5.08535,3.67429-10.99559,1.30841-15.42981Z"/>
      <path class="cls-4" d="M700.83451,326.86621l9.6354-8.28926-17.38234-17.62717h-9.46165l.00614-1.64978h24.06043l-.01931,1.99114,18.08525-.04475.13514-12.36895-18.25898.01931.01928,2.44922-25.25915.05177-16.18362-9.12029h-22.61687l-16.90584,10.59017-.05087,8.08216h-9.71353l-9.21682,18.63284,12.44003,7.1739,80.6873.10969ZM635.45416,300.94978l.01316-4.25432,10.78937-6.27705,18.39415.03159,10.24793,5.93657-.04475,4.51144-39.39985.05177ZM623.15718,317.96531l-3.68038-2.07539,2.93272-6.14893h66.99765l7.64429,7.7601-.66432.46422h-73.22995Z"/>
    </g>
    <path class="cls-4" d="M613.86314,328.63972c-5.12045,0-9.2879,4.16744-9.2879,9.29053,0,5.12133,4.16744,9.28878,9.2879,9.28878,5.12309,0,9.29141-4.16744,9.29141-9.28878,0-5.12309-4.16832-9.29053-9.29141-9.29053Z"/>
    <path class="cls-4" d="M628.0065,339.26148c0,6.17263,5.02127,11.19392,11.19389,11.19392s11.19655-5.02129,11.19655-11.19392-5.0239-11.19655-11.19655-11.19655-11.19389,5.02392-11.19389,11.19655Z"/>
    <path class="cls-4" d="M653.34112,339.26148c0,6.17263,5.0239,11.19392,11.19653,11.19392,6.1735,0,11.1948-5.02129,11.1948-11.19392s-5.02129-11.19655-11.1948-11.19655c-6.17263,0-11.19653,5.02392-11.19653,11.19655Z"/>
    <path class="cls-4" d="M689.87317,328.06493c-6.17265,0-11.19394,5.02392-11.19394,11.19655s5.02129,11.19392,11.19394,11.19392,11.19652-5.02129,11.19652-11.19392-5.02392-11.19655-11.19652-11.19655Z"/>
    <path class="cls-4" d="M709.71347,340.2847c3.368,0,6.10859-2.74056,6.10859-6.10857,0-3.37064-2.74059-6.1112-6.10859-6.1112-3.37064,0-6.11032,2.74056-6.11032,6.1112,0,3.368,2.73968,6.10857,6.11032,6.10857Z"/>
  </g>
  <path class="cls-4" d="M708.8412,281.35603c-.62481,0-1.26278-.09653-1.92708-.33522-.82489-.29661-1.93322-.30889-3.21619-.32206-.69589-.00614-1.39178-.01931-2.08153-.06494-1.43039-.08951-2.92572-.37998-4.57638-.87579-2.73266-.82577-4.64658-2.88097-5.31088-5.62065-7.86277-2.14647-8.52707-2.20438-10.04785-2.33338-1.50849-.129-3.78308-.32206-11.07893-1.74016l-3.42946-.66342-.04475-3.49349c-.05792-4.96952,4.00247-7.14143,5.34338-7.85049l.98545-.52828,1.11536.02545c.4765.00702.94774.01316,1.42425.02633-2.12014-.21939-4.02177-.41946-4.76944-.48353l-31.99428-2.9968c-2.40359-.23255-4.81419-.43263-7.21866-.61252-3.30658-.27116-5.26525-1.86302-6.33585-3.14511-2.33251-2.81077-1.469-5.27929-.9925-6.20685,1.94024-3.77694,7.19937-3.41013,11.36943-3.11966l.98636.05792,36.80847.52214c5.69788.09039,11.38873.21237,17.08661.32908l2.90642.05792-.65026-4.80191c-.5353-3.9893-1.06358-7.97948-1.63135-11.96879-.4247-3.0556.96705-5.54343,3.73218-6.65176l.92844-.4063c.70203-.32206,1.41109-.63797,2.14561-.88281,2.83619-.93458,5.67854.31591,7.03873,3.14511l.91528,1.86916c.43789.87666.87666,1.75947,1.27595,2.6493l6.51574,14.53384c1.41196-.26414,2.70107-.2773,3.67429-.28959,1.6243-.02633,3.57069.32206,5.11692,1.01181,4.87913-3.46102,9.05623-7.24498,13.45798-11.23429,2.12716-1.92708,4.30522-3.89892,6.6386-5.9041l.75381-.70905c2.29477-2.16489,4.35699-3.84714,10.07418-5.7163,5.52325-1.79194,9.19049-1.05744,12.32946,0,6.47099,2.17806,12.1882,8.70697,12.74278,14.55315.83103,7.92771-3.48735,11.81434-5.54343,13.45798,17.13136,3.42241,53.76608,10.52435,66.57292,12.53568l.92844.1483c.98548.15445,1.96569.30889,2.95208.48353,1.39175-.05792,4.48508-.16761,6.08396,2.58436,1.08289,1.86916.90211,4.02792-.55461,6.42624-1.88847,3.1258-5.03972,4.85895-8.86843,4.49828-4.31136-.24483-8.61746-.6055-12.92882-.96705l-34.8305-2.75197c-13.09029-.91528-21.52083-1.52692-23.02844-1.727-.00614.06406-10.94382-.31591-13.78003-.34838l-1.24435-.01931c-1.34703-.01931-2.70019-.04475-4.03406-.01229l19.2322,3.59002-4.72381,6.47713c-.65114.91528-1.23821,1.727-1.90163,2.46238-.7933.86964-2.17191,1.84898-4.82736,1.71384-5.41443-.32206-10.8157-.66342-16.20994-1.02497l-6.09716-.43175c-4.23499-.30889-8.46915-.61165-12.70326-.80558-.33525.05177-1.20577.23255-1.8885.43175-.57391.17463-1.1478.34224-1.72086.47738l-1.1215.25098c-1.31541.29047-2.62999.58708-3.92524.95389l-.62569.27116c-.55373.27028-1.11448.52214-1.69453.70905-1.06355.36681-2.27546.79242-3.57774.79242ZM709.76349,272.92549c.02545.00702.0509.01931.0702.02633-.01931-.00702-.04475-.01931-.0702-.02633ZM700.02454,271.68816c.79944.21939,1.51464.34838,2.13945.387.54846.03159,1.08991.03861,1.63135.04475,1.47515.01316,3.26709.03861,5.15558.55461l.88278-.29047c1.23119-.58005,1.9078-.87666,2.61069-1.06972,1.41199-.39928,2.87483-.72836,4.34383-1.05656l1.07674-.24571c.39314-.08951.79944-.21237,1.19872-.33434,1.30227-.38085,2.95205-.84507,4.71769-.78013.5353.02545,1.0706.05177,1.605.07722l12.61378-10.29268,3.35747-.69677c2.01747-.37383,4.04108-.74064,6.07785-.92142,2.44308-.21237,4.9116-.17375,7.3538-.14128l1.22505.01229c2.92572.03861,14.35307.39314,14.35307.39314,1.95341.23869,16.661,1.2698,22.94508,1.70857,2.62999.18692,4.49915.32206,4.82121.34751l10.30585.81875c-5.70402-1.07674-10.8666-2.06924-14.31443-2.73968q-34.20484-6.61227-35.049-9.27386l-.79333-2.52732,1.89461-1.84284c1.9341-1.88233,3.7708-3.10035,5.39512-4.17008.75381-.49669,1.46988-.96705,2.1333-1.48217,1.727-1.36019,3.02313-2.6686,2.65547-6.12963-.17378-1.83055-2.93277-5.92955-6.94135-7.27657-1.9078-.65728-3.6418-1.06358-6.92207.02545-4.33154,1.41196-5.3881,2.41061-6.84482,3.7901l-.99952.92142c-2.32636,2.01132-4.45352,3.93841-6.52891,5.81985-5.07219,4.59568-9.86795,8.93337-15.90632,13.01306-2.06924,1.3795-4.38946,1.37335-6.36829-.04475-.32208-.23255-.84422-.52916-1.90166-.52916-.02545,0-.0509.00702-.0702.00702-1.76646.01229-2.72652.10969-3.42241.61867l-4.02879,2.91958-2.30089-4.41491c-.41861-.78628-.6055-1.1408-.767-1.50147l-6.29022-14.04417c.20622,1.56553.41859,3.13195.62484,4.7045l2.05605,14.68917-9.57749-.16147c7.54071.65728,7.97246,1.11536,8.93951,2.15875l1.03813,1.8051.20622.83103,1.51466,10.87976-5.61454.30275-3.94455-.05792c.13602.03861.2773.07722.42561.11671l2.7713.76697.34836,2.85464c.07108.57391.129,1.03111.16761,1.45672ZM697.65869,224.09646c0,.00702.00705.01316.00705.02633l-.00705-.02633Z"/>
  <path class="cls-3" d="M1240.76117,350.30534l-168.05006,1.23295c-.00172,42.80472,64.0535,44.15876,129.43209,44.10786,62.82933-.04914,121.45085,2.63613,121.45261-45.19075l-82.83464-.15006Z"/>
  <path class="cls-3" d="M770.79738,350.30534l-168.05006,1.23295c-.00263,42.80472,70.65788,44.15876,136.03559,44.10786,62.82933-.04914,114.84735,2.63613,114.84911-45.19075l-82.83464-.15006Z"/>
</svg>