<svg aria-label="filled heart" viewBox="0 0 24 24" fill="none" xmlns="http://www.w3.org/2000/svg">
    <path d="M12 21L10.55 19.7C8.86667 18.1833 7.475 16.875 6.375 15.775C5.275 14.675 4.4 13.6873 3.75 12.812C3.1 11.9373 2.646 11.1333 2.388 10.4C2.12933 9.66666 2 8.91666 2 8.14999C2 6.58333 2.525 5.27499 3.575 4.22499C4.625 3.17499 5.93333 2.64999 7.5 2.64999C8.36667 2.64999 9.19167 2.83333 9.975 3.19999C10.7583 3.56666 11.4333 4.08333 12 4.74999C12.5667 4.08333 13.2417 3.56666 14.025 3.19999C14.8083 2.83333 15.6333 2.64999 16.5 2.64999C18.0667 2.64999 19.375 3.17499 20.425 4.22499C21.475 5.27499 22 6.58333 22 8.14999C22 8.91666 21.871 9.66666 21.613 10.4C21.3543 11.1333 20.9 11.9373 20.25 12.812C19.6 13.6873 18.725 14.675 17.625 15.775C16.525 16.875 15.1333 18.1833 13.45 19.7L12 21Z" fill="currentColor" />
</svg>