<svg width="176" height="176" viewBox="0 0 176 176" fill="none" xmlns="http://www.w3.org/2000/svg">
  <path d="M87.9083 165.059C86.1798 165.059 84.4824 164.774 82.816 164.205C81.1496 163.635 79.6851 162.688 78.4227 161.361L67.4839 151.305C49.2785 134.715 33.4798 118.793 20.0879 103.541C6.69596 88.2875 0 72.4285 0 55.9635C0 43.1858 4.31939 32.4876 12.9582 23.8688C21.5969 15.25 32.2892 10.9407 45.035 10.9407C52.2964 10.9407 59.7012 12.7596 67.2494 16.3974C74.7975 20.0354 81.7144 26.4553 88 35.6573C94.7205 26.4553 101.716 20.0354 108.988 16.3974C116.259 12.7596 123.6 10.9407 131.012 10.9407C143.74 10.9407 154.42 15.25 163.052 23.8688C171.684 32.4876 176 43.1858 176 55.9635C176 72.6089 169.16 88.6173 155.481 103.988C141.801 119.36 126.198 135.091 108.672 151.182L97.5653 161.402C96.2413 162.713 94.741 163.65 93.0644 164.214C91.3878 164.777 89.6691 165.059 87.9083 165.059ZM82.9363 47.9637C78.1945 39.5868 72.5335 33.1936 65.9533 28.7841C59.373 24.3744 52.3663 22.1696 44.9332 22.1696C35.2096 22.1696 27.1613 25.3489 20.7884 31.7077C14.4154 38.0664 11.2289 46.1658 11.2289 56.0059C11.2289 63.9329 13.6915 72.183 18.6168 80.7563C23.5421 89.3294 29.7519 97.818 37.2463 106.222C44.7408 114.626 52.8586 122.846 61.5996 130.881C70.3405 138.917 78.5092 146.349 86.1056 153.178C86.6469 153.699 87.2783 153.96 88 153.96C88.7216 153.96 89.3531 153.699 89.8943 153.178C97.4908 146.361 105.659 138.932 114.4 130.89C123.141 122.849 131.253 114.602 138.735 106.15C146.217 97.6979 152.427 89.1846 157.365 80.6104C162.302 72.0362 164.771 63.8248 164.771 55.9761C164.771 46.1559 161.567 38.0664 155.159 31.7077C148.751 25.3489 140.715 22.1696 131.051 22.1696C123.524 22.1696 116.485 24.3583 109.933 28.7358C103.38 33.1134 97.6924 39.5312 92.8691 47.9893C92.226 49.0303 91.4665 49.7817 90.5906 50.2434C89.7148 50.7052 88.801 50.9361 87.8492 50.9361C86.8974 50.9361 85.9612 50.7031 85.0405 50.237C84.1198 49.771 83.4184 49.0132 82.9363 47.9637Z" fill="currentColor" />
</svg>