<svg viewBox="0 0 176 176" fill="none" xmlns="http://www.w3.org/2000/svg">
  <path d="M87.9083 165.059C86.1595 165.059 84.4533 164.763 82.7897 164.171C81.1261 163.579 79.68 162.66 78.4513 161.416L67.4839 151.305C49.2785 134.715 33.4798 118.793 20.0879 103.541C6.69596 88.2876 0 72.4285 0 55.9635C0 43.186 4.31634 32.4877 12.949 23.8688C21.5819 15.25 32.2654 10.9407 44.9996 10.9407C52.2846 10.9407 59.7012 12.7596 67.2494 16.3974C74.7976 20.0354 81.7144 26.4553 88 35.6573C94.7205 26.4553 101.719 20.0354 108.994 16.3974C116.27 12.7596 123.609 10.9407 131.012 10.9407C143.739 10.9407 154.419 15.25 163.051 23.8688C171.684 32.4877 176 43.186 176 55.9635C176 72.6089 169.16 88.6173 155.481 103.988C141.801 119.36 126.198 135.091 108.673 151.182L97.5742 161.42C96.2683 162.662 94.7681 163.579 93.0736 164.171C91.379 164.763 89.6573 165.059 87.9083 165.059Z" fill="currentColor" />
</svg>