<svg aria-label="outlined heart" viewBox="0 0 24 24" fill="none" xmlns="http://www.w3.org/2000/svg">
    <path d="M11.975 21.65L10.2 20.05C8.48333 18.5 7.06267 17.1627 5.938 16.038C4.81267 14.9127 3.925 13.9 3.275 13C2.625 12.1 2.16667 11.2707 1.9 10.512C1.63333 9.75402 1.5 8.96669 1.5 8.15002C1.5 6.45002 2.071 5.02502 3.213 3.87502C4.35433 2.72502 5.775 2.15002 7.475 2.15002C8.34167 2.15002 9.16267 2.31669 9.938 2.65002C10.7127 2.98336 11.3917 3.45836 11.975 4.07502C12.575 3.45836 13.2627 2.98336 14.038 2.65002C14.8127 2.31669 15.625 2.15002 16.475 2.15002C18.1917 2.15002 19.625 2.72502 20.775 3.87502C21.925 5.02502 22.5 6.45002 22.5 8.15002C22.5 8.95002 22.371 9.73336 22.113 10.5C21.8543 11.2667 21.396 12.0957 20.738 12.987C20.0793 13.879 19.1833 14.8917 18.05 16.025C16.9167 17.1584 15.4833 18.5 13.75 20.05L11.975 21.65ZM11.975 18.1C13.5583 16.6667 14.8627 15.446 15.888 14.438C16.9127 13.4294 17.7167 12.554 18.3 11.812C18.8833 11.0707 19.2877 10.4167 19.513 9.85002C19.7377 9.28336 19.85 8.71669 19.85 8.15002C19.85 7.18336 19.5293 6.38336 18.888 5.75002C18.246 5.11669 17.45 4.80002 16.5 4.80002C15.75 4.80002 15.05 5.02069 14.4 5.46202C13.75 5.90402 13.3 6.46669 13.05 7.15002H10.925C10.6917 6.46669 10.246 5.90402 9.588 5.46202C8.92933 5.02069 8.23333 4.80002 7.5 4.80002C6.55 4.80002 5.75833 5.11669 5.125 5.75002C4.49167 6.38336 4.175 7.18336 4.175 8.15002C4.175 8.71669 4.28767 9.29169 4.513 9.87502C4.73767 10.4584 5.146 11.121 5.738 11.863C6.32933 12.6044 7.129 13.475 8.137 14.475C9.14567 15.475 10.425 16.6834 11.975 18.1Z" fill="currentColor" />
</svg>