<?xml version="1.0" encoding="UTF-8"?>
<svg id="a" data-name="Layer 1" xmlns="http://www.w3.org/2000/svg" viewBox="0 0 300 299.9267">
  <defs>
    <style>
      .b {
        fill: #fff;
        stroke-width: 0px;
      }
    </style>
  </defs>
  <path class="b" d="m300,107.9735h-11.997v-23.9942h-11.9971v-23.994h-11.997v-11.9971h-11.997v-11.9969h-11.9971v-11.9971h-11.9963v-11.9971h-23.9943V0h-108.0481v11.9971h-23.9939v11.9971h-11.9971v11.9971h-11.997v11.9969h-11.997v11.9971h-11.997v23.994h-11.9971v23.9942H0v84.054h11.9969v23.9942h11.9971v23.9938h11.997v11.9971h11.997v11.9971h11.997v11.9969h11.9971v11.9971h23.994v11.9971h108.0482v-11.9971h23.9941v-11.9971h11.9963v-11.9969h11.9971v-11.9971h11.997v-11.9971h11.997v-23.9938h11.9971v-23.9942h11.997v-84.054ZM36.066,239.9407v-23.9942h-11.9971v-23.9938h-11.9969v-83.9043h11.9969v-23.994h11.9971v-23.994h23.994v-23.9942h11.9971v-11.9971h23.9941v-11.9967h47.9129v23.9192h-11.9967v11.9967h-11.9971v11.9971h-11.9971v24.069h11.9971v11.9971h11.9969v11.9219h-11.9969v23.994h-11.9971v23.9942h-11.997v23.994h-11.9221v-11.9971h-11.997v-11.9969h-12.072v12.0721h11.9971v11.9969h11.997v11.9969h11.997v11.9221h-11.997v23.994h-11.997v23.994h-11.9222v-11.9969h-23.994ZM167.9583,95.9764h-35.9161v-47.9134h35.9161v47.9134Zm23.994,60.06v35.9161h-35.9161v-11.9969h-12.0719v11.9969h-35.9161v-35.9161h11.9969v-23.994h11.9971v-23.994h35.9161v23.994h11.997v23.994h11.997Zm23.9934,71.9822v23.994h11.997v23.9192h-23.9933v11.9969h-107.8982v-11.9969h-23.9943v-23.9192h11.9972v-23.994h11.997v-23.994h47.9132v11.9971h12.0719v-11.9971h47.9132v23.994h11.9963Zm23.9941,11.9221v11.9969h-11.9221v-23.994h-11.9964v-23.994h-11.997v-11.9221h11.9964v-11.9969h11.997v-11.9969h11.997v-12.0721h-12.072v11.9969h-11.997v11.9971h-11.9214v-23.994h-11.997v-23.9942h-11.997v-23.994h-11.9971v-11.9219h11.9971v-11.9971h11.997v-24.069h-11.997v-11.9971h-11.9969v-11.9967h-11.9972V12.0723h47.9132v11.9967h23.9933v11.9971h11.9971v23.9942h23.9939v23.994h11.9972v23.994h11.997v83.9043h-11.997v23.9938h-11.9972v23.9942h-23.9939Z"/>
</svg>