<?xml version="1.0" encoding="UTF-8"?>
<svg id="a" data-name="Layer 1" xmlns="http://www.w3.org/2000/svg" viewBox="0 0 300 299.9267">
  <defs>
    <style>
      .b {
        fill: #fff;
        stroke-width: 0px;
      }
    </style>
  </defs>
  <path class="b" d="m300,107.9729h-11.9974v-23.994h-11.9969v-23.9941h-11.9973v-11.9967h-11.9969v-11.9971h-11.9969v-11.9971h-11.9969v-11.9971h-23.9942V0h-108.0478v11.9969h-23.9938v11.9971h-11.997v11.9971h-11.9971v11.9971h-11.997v11.9967h-11.9969v23.9941h-11.997v23.994H0v84.054h11.997v23.994h11.997v23.9941h11.9969v11.9971h11.997v11.9969h11.9971v11.9969h11.997v11.9973h23.9936v11.9969h108.0482v-11.9969h23.994v-11.9973h11.9969v-11.9969h11.9969v-11.9969h11.9969v-11.9971h11.9973v-23.9941h11.9969v-23.994h11.9974v-84.054Zm-96.0512-47.9129v11.9969h23.9939v23.994h11.997v11.9973h11.997v83.9037h-11.997v11.9971h-23.994v11.9971h-11.9969v23.994h-11.9972v11.9971h-11.997v11.9969h-11.997v11.9971h-35.9159v-11.9971h-11.997v-11.9969h-11.997v-11.9971h-11.9968v-23.994h-11.997v-11.9971h-23.994v-11.9971h-11.997v-83.9037h11.9969v-11.9973h11.997v-23.994h23.994v-11.9969h11.997v-11.9971h23.994v-23.994h35.9159v23.994h23.9939v11.9971h11.9972Zm-107.8979,227.8682v-11.9973h-23.994v-11.9969h-11.9971v-23.9941h-23.9938v-23.994h-11.997v-23.9941h-11.997v-83.9039h11.997v-23.9941h11.997v-23.9938h23.9938v-23.9941h11.9971v-11.9969h23.994v-11.9967h35.9161v11.9218h-11.9973v11.9969h-11.997v11.9971h-23.994v11.9969h-11.9969v11.9971h-11.997v11.9969h-11.997v23.994h-11.9969v84.054h11.997v11.9969h11.997v11.9971h23.994v23.9941h11.9968v23.994h11.997v11.9969h23.9941v11.9224h-35.9159Zm143.8888-47.9883v23.9941h-11.997v11.9969h-23.9939v11.9973h-35.916v-11.9224h23.9938v-11.9969h11.9969v-23.994h11.9972v-23.9941h23.9939v-11.9971h11.997v-11.9969h11.997v-84.054h-11.9971v-23.994h-11.997v-11.9969h-11.997v-11.9971h-11.9969v-11.9969h-23.994v-11.9971h-11.997v-11.9969h-11.9967v-11.9218h35.9158v11.9967h23.9939v11.9969h11.997v23.9941h23.994v23.9938h11.997v23.9941h11.9971v83.9039h-11.9971v23.9941h-11.997v23.994h-23.994Z"/>
  <polygon class="b" points="180.0297 71.9821 119.9697 71.9821 119.9697 119.97 71.9818 119.97 71.9818 180.03 119.9697 180.03 119.9697 228.0179 180.0297 228.0179 180.0297 180.03 228.0176 180.03 228.0176 119.97 180.0297 119.97 180.0297 71.9821"/>
</svg>