<?xml version="1.0" encoding="UTF-8"?>
<svg id="a" data-name="Layer 1" xmlns="http://www.w3.org/2000/svg" viewBox="0 0 300 299.9267">
  <defs>
    <style>
      .b {
        fill: #fff;
        stroke-width: 0px;
      }
    </style>
  </defs>
  <path class="b" d="m300,107.9731h-11.9973v-23.994h-11.9969v-23.994h-11.9971v-11.9971h-11.9969v-11.9969h-11.9971v-11.9971h-11.9969v-11.9971h-23.9942V0h-108.0479v11.9971h-23.9938v11.9971h-11.997v11.9971h-11.997v11.9969h-11.997v11.9971h-11.997v23.994h-11.997v23.994H0v84.054h11.9972v23.9941h11.997v23.9938h11.997v11.9969h11.997v11.9971h11.997v11.9971h11.997v11.9971h23.9938v11.9969h108.0479v-11.9969h23.9942v-11.9971h11.9969v-11.9971h11.9971v-11.9971h11.9969v-11.9969h11.9971v-23.9938h11.9969v-23.9941h11.9973v-84.054Zm-36.0661-47.9131v23.9941h11.997v23.994h11.9971v35.9158h-47.9128v-23.9936h-11.9972v-35.991h-11.9969v-11.9222h23.9939v-11.9971h23.919Zm-59.9849-47.9879v11.9969h23.9939v11.9971h11.997v23.9191h-35.916v-23.9941h-11.9969v-11.9969h-11.9971v-11.922h23.9191Zm-47.9131,0h11.922v11.9969h11.9971v11.9971h11.997v23.994h11.997v11.9222h-23.994v11.9969h-23.9191V12.0721Zm0,83.9793h23.994v-11.9973h35.9161v35.991h11.9969v23.9187h-71.9069v-47.9125Zm0,59.9846h71.9069v23.9193h-11.9969v35.9907h-35.9161v-11.9969h-23.994v-47.9131ZM119.9698,23.9941h-11.9968v11.9969h-11.997v23.9941h-35.9161v-23.9191h11.9971v-11.9971h23.994v-11.9969h23.9188v11.922Zm-59.9848,36.0659v11.9971h23.994v11.9222h-11.997v35.991h-11.9972v23.9936H12.072v-35.9158h11.9971v-23.994h11.997v-23.9941h23.919Zm-23.919,179.8801v-23.9941h-11.997v-23.9938h-11.9971v-35.9162h47.9129v23.994h11.9972v35.9912h11.997v11.9218h-23.994v11.9971h-23.919Zm59.9849,47.9879v-11.9969h-23.994v-11.9971h-11.9971v-23.9191h35.9161v23.9941h11.997v11.9969h11.9968v11.922h-23.9188Zm47.9127,0h-11.9216v-11.9969h-11.9972v-11.9971h-11.997v-23.994h-11.9971v-11.9222h23.9941v-11.9969h23.9188v71.907Zm0-83.979h-23.994v11.9969h-35.9158v-35.9907h-11.9971v-23.9193h71.9069v47.9131Zm0-59.9852h-71.9069v-23.9187h11.9971v-35.991h35.9158v11.9973h23.994v47.9125Zm0-59.9848h-23.9188v-11.9969h-23.9941v-11.9222h11.9971v-23.994h11.997v-11.9971h11.9972v-11.9969h11.9216v71.907Zm23.994,203.9489h-11.922v-71.907h23.9191v11.9969h23.994v11.9222h-11.997v23.994h-11.997v11.9971h-11.9971v11.9969Zm12.072-11.922h11.9971v-11.9969h11.9969v-23.9941h35.916v23.9191h-11.997v11.9971h-23.9939v11.9969h-23.9191v-11.922Zm59.985-36.0659v-11.9971h-23.9939v-11.9218h11.9969v-35.9912h11.9972v-23.994h47.9128v35.9162h-11.9971v23.9938h-11.997v23.9941h-23.919Z"/>
</svg>