<?xml version="1.0" encoding="UTF-8"?>
<svg id="a" data-name="Layer 1" xmlns="http://www.w3.org/2000/svg" viewBox="0 0 300 299.9267">
  <defs>
    <style>
      .b {
        fill: #fff;
        stroke-width: 0px;
      }
    </style>
  </defs>
  <path class="b" d="m288.003,107.973v-23.994h-11.9971v-23.994h-11.997v-11.9971h-11.997v-11.9969h-11.9971v-11.9971h-11.997v-11.9969h-23.9941V0h-108.0479v11.9971h-23.994v11.9969h-11.9969v11.9971h-11.9971v11.9969h-11.997v11.9971h-11.997v23.994h-11.997v23.994H0v84.054h11.9971v23.994h11.997v23.994h11.997v11.9971h11.997v11.9971h11.9971v11.9969h11.9969v11.9971h23.994v11.9969h108.0479v-11.9969h23.9941v-11.9971h11.997v-11.9969h11.9971v-11.9971h11.997v-11.9971h11.997v-23.994h11.9971v-23.994h11.997v-84.054h-11.997Zm-.0749,83.979h-11.997v23.994h-11.9971v23.9942h-23.9941v23.994h-11.997v11.9971h-23.9941v11.9969h-107.898v-11.9969h-23.994v-11.9971h-11.997v-23.994h-23.9941v-23.9942h-11.997v-23.994h-11.997v-83.904h11.997v-23.994h11.997v-23.994h23.9941v-23.9942h11.997v-11.9969h23.994v-11.9971h107.898v11.9971h23.9941v11.9969h11.997v23.9942h23.9941v23.994h11.9971v23.994h11.997v83.904Z"/>
  <polygon class="b" points="227.943 179.9551 215.9459 179.9551 215.9459 191.952 203.9489 191.952 203.9489 203.9491 191.952 203.9491 191.952 215.946 179.9549 215.946 179.9549 227.943 120.045 227.943 120.045 215.946 108.048 215.946 108.048 203.9491 96.051 203.9491 96.051 191.952 84.0541 191.952 84.0541 179.9551 72.057 179.9551 72.057 155.9611 59.9851 155.9611 59.9851 180.0301 71.982 180.0301 71.982 204.0241 83.979 204.0241 83.979 216.021 95.9759 216.021 95.9759 228.0181 107.973 228.0181 107.973 240.015 131.967 240.015 131.967 252.0121 168.033 252.0121 168.033 240.015 192.027 240.015 192.027 228.0181 204.0239 228.0181 204.0239 216.021 216.021 216.021 216.021 204.0241 228.0179 204.0241 228.0179 180.0301 240.0149 180.0301 240.0149 155.9611 227.943 155.9611 227.943 179.9551"/>
  <polygon class="b" points="179.9549 120.0449 191.952 120.0449 191.952 132.042 204.0239 132.042 204.0239 120.0449 216.021 120.0449 216.021 108.048 228.0179 108.048 228.0179 95.9759 216.021 95.9759 216.021 83.979 204.0239 83.979 204.0239 71.9819 191.952 71.9819 191.952 83.979 179.9549 83.979 179.9549 95.9759 167.958 95.9759 167.958 108.048 179.9549 108.048 179.9549 120.0449"/>
  <polygon class="b" points="83.979 120.0449 95.9759 120.0449 95.9759 132.042 108.048 132.042 108.048 120.0449 120.045 120.0449 120.045 108.048 132.042 108.048 132.042 95.9759 120.045 95.9759 120.045 83.979 108.048 83.979 108.048 71.9819 95.9759 71.9819 95.9759 83.979 83.979 83.979 83.979 95.9759 71.982 95.9759 71.982 108.048 83.979 108.048 83.979 120.0449"/>
</svg>