<?xml version="1.0" encoding="UTF-8"?>
<svg id="a" data-name="Layer 1" xmlns="http://www.w3.org/2000/svg" viewBox="0 0 300 299.9267">
  <defs>
    <style>
      .b {
        fill: #fff;
        stroke: #fff;
        stroke-miterlimit: 10;
        stroke-width: .075px;
      }
    </style>
  </defs>
  <polygon class="b" points="288.0001 108 288.0001 120.0002 288.0001 132.0001 288.0001 144 288.0001 156 288.0001 168.0001 288.0001 180 288.0001 192 300 192 300 180 300 168.0001 300 156 300 144 300 132.0001 300 120.0002 300 108 288.0001 108"/>
  <polygon class="b" points="276.0001 203.9999 276.0001 216 288.0001 216 288.0001 203.9999 288.0001 192 276.0001 192 276.0001 203.9999"/>
  <polygon class="b" points="288.0001 84 276.0001 84 276.0001 96.0001 276.0001 108 288.0001 108 288.0001 96.0001 288.0001 84"/>
  <polygon class="b" points="264 72 264 84 275.9999 84 275.9999 72 275.9999 60.0001 264 60.0001 264 72"/>
  <polygon class="b" points="252 203.9999 252 216 264 216 264 228 264 239.9999 275.9999 239.9999 275.9999 228 275.9999 216 264 216 264 203.9999 264 192 252 192 252 203.9999"/>
  <polygon class="b" points="252 108 252 120.0002 264 120.0002 264 132.0001 264 144 264 156 264 168.0001 264 180 264 192 275.9999 192 275.9999 180 275.9999 168.0001 275.9999 156 275.9999 144 275.9999 132.0001 275.9999 120.0002 275.9999 108 264 108 252 108"/>
  <polygon class="b" points="240.0001 239.9999 240.0001 252.0001 240.0001 264 252 264 252 252.0001 264 252.0001 264 239.9999 252 239.9999 240.0001 239.9999"/>
  <rect class="b" x="240.0001" y="216" width="11.9999" height="11.9999"/>
  <rect class="b" x="240.0001" y="120.0002" width="11.9999" height="11.9999"/>
  <polygon class="b" points="240.0001 60.0001 252 60.0001 264 60.0001 264 48.0001 252 48.0001 252 36 240.0001 36 240.0001 48.0001 240.0001 60.0001"/>
  <rect class="b" x="228" y="264" width="12.0001" height="11.9999"/>
  <rect class="b" x="228" y="228" width="12.0001" height="11.9999"/>
  <rect class="b" x="228" y="24.0001" width="12.0001" height="11.9999"/>
  <polygon class="b" points="216 264 228 264 228 251.9999 228 239.9999 216 239.9999 216 251.9999 203.9999 251.9999 203.9999 264 192 264 180 264 168.0001 264 168.0001 252.0001 168.0001 239.9999 168.0001 228 168.0001 216 168.0001 204.0001 180 204.0001 180 192 168.0001 192 168.0001 204.0001 156 204.0001 156 216 156 228 156 239.9999 156 252.0001 156 264 168.0001 264 168.0001 275.9999 180 275.9999 192 275.9999 204.0001 275.9999 204.0001 264 216 264"/>
  <rect class="b" x="216" y="192" width="11.9999" height="12.0001"/>
  <polygon class="b" points="228.0001 144 228.0001 156 216 156 204.0001 156 204.0001 167.9999 216 167.9999 228.0001 167.9999 228.0001 180 228.0001 192 240.0001 192 240.0001 180 240.0001 167.9999 240.0001 156 240.0001 144 240.0001 132.0001 228.0001 132.0001 228.0001 144"/>
  <polygon class="b" points="228 84 228 72 228 60.0001 216 60.0001 216 72 216 84 216 96.0001 228 96.0001 228 84"/>
  <polygon class="b" points="204.0001 275.9999 204.0001 287.9999 192 287.9999 180 287.9999 168.0001 287.9999 156 287.9999 144 287.9999 132 287.9999 120 287.9999 108 287.9999 96 287.9999 96 275.9999 108 275.9999 120 275.9999 131.9999 275.9999 131.9999 264 120 264 108 264 96 264 96 251.9999 84.0001 251.9999 84.0001 239.9999 71.9999 239.9999 71.9999 251.9999 71.9999 264 84.0001 264 95.9999 264 95.9999 275.9999 84.0001 275.9999 71.9999 275.9999 71.9999 288.0001 84.0001 288.0001 96 288.0001 96 300 108 300 120 300 132 300 144 300 156 300 168.0001 300 180 300 192 300 204.0001 300 204.0001 288.0001 216 288.0001 228 288.0001 228 275.9999 216 275.9999 204.0001 275.9999"/>
  <rect class="b" x="204.0001" y="204.0001" width="11.9999" height="11.9999"/>
  <rect class="b" x="204.0001" y="96.0001" width="11.9999" height="11.9999"/>
  <rect class="b" x="204.0001" y="48.0001" width="11.9999" height="11.9999"/>
  <rect class="b" x="192" y="168.0001" width="12" height="11.9999"/>
  <rect class="b" x="192" y="108" width="12" height="12.0001"/>
  <rect class="b" x="180" y="180" width="12" height="11.9999"/>
  <rect class="b" x="180" y="120.0002" width="12" height="11.9999"/>
  <polygon class="b" points="192 48.0001 204.0001 48.0001 204.0001 36 192 36 180 36 168.0001 36 168.0001 48.0001 180 48.0001 192 48.0001"/>
  <rect class="b" x="168.0001" y="132.0001" width="11.9999" height="11.9999"/>
  <rect class="b" x="156" y="144" width="12" height="11.9999"/>
  <rect class="b" x="156" y="48.0001" width="12" height="11.9999"/>
  <rect class="b" x="144" y="156" width="12" height="12.0001"/>
  <rect class="b" x="144" y="60.0001" width="12" height="11.9999"/>
  <polygon class="b" points="132 228 132 239.9999 132 251.9999 132 264 144 264 144 251.9999 144 239.9999 144 228 144 216 144 203.9999 132 203.9999 132 192 120 192 120 204.0001 132 204.0001 132 216 132 228"/>
  <rect class="b" x="132" y="144" width="11.9999" height="11.9999"/>
  <rect class="b" x="132" y="48.0001" width="11.9999" height="11.9999"/>
  <rect class="b" x="120" y="132.0001" width="12" height="11.9999"/>
  <rect class="b" x="108" y="180" width="12" height="11.9999"/>
  <rect class="b" x="108" y="120.0002" width="12" height="11.9999"/>
  <polygon class="b" points="108 36 96 36 96 48.0001 108 48.0001 120.0001 48.0001 132 48.0001 132 36 120.0001 36 108 36"/>
  <polygon class="b" points="120.0001 11.9999 132 11.9999 144 11.9999 156 11.9999 168.0001 11.9999 180 11.9999 192 11.9999 203.9999 11.9999 203.9999 23.9999 216 23.9999 228 23.9999 228 11.9999 216 11.9999 204.0001 11.9999 204.0001 0 192 0 180 0 168.0001 0 156 0 144 0 132 0 120.0001 0 108 0 96 0 96 11.9999 108 11.9999 120.0001 11.9999"/>
  <rect class="b" x="96" y="168.0001" width="11.9999" height="11.9999"/>
  <rect class="b" x="96" y="108" width="11.9999" height="12.0001"/>
  <rect class="b" x="84.0001" y="204.0001" width="11.9999" height="11.9999"/>
  <rect class="b" x="84.0001" y="96.0001" width="11.9999" height="11.9999"/>
  <polygon class="b" points="96 23.9999 96 11.9999 83.9999 11.9999 71.9999 11.9999 71.9999 23.9999 83.9999 23.9999 96 23.9999"/>
  <rect class="b" x="71.9999" y="192" width="12.0001" height="12.0001"/>
  <polygon class="b" points="84.0001 84 84.0001 72 84.0001 60.0001 96 60.0001 96 48.0001 84.0001 48.0001 84.0001 60.0001 71.9999 60.0001 71.9999 72 71.9999 84 71.9999 96.0001 84.0001 96.0001 84.0001 84"/>
  <rect class="b" x="60" y="264" width="11.9999" height="11.9999"/>
  <rect class="b" x="60" y="228" width="11.9999" height="11.9999"/>
  <polygon class="b" points="60 156 60 168.0001 60 180 60 192 71.9999 192 71.9999 180 71.9999 168.0001 83.9999 168.0001 95.9999 168.0001 95.9999 156 83.9999 156 71.9999 156 71.9999 144 71.9999 132.0001 60 132.0001 60 144 60 156"/>
  <rect class="b" x="60" y="24.0001" width="11.9999" height="11.9999"/>
  <path class="b" d="m60,239.9999h-24v-23.9999h12v-24.0001h-12v-71.9998h12v-12.0001h-24v84h-12v-84h12v-24.0001h11.9999v-23.9999h24v-24.0001h-12.0001v12.0001h-11.9999v11.9999h-11.9999v23.9999h-11.9999v24.0001H0v84h12v24.0001h11.9999v23.9999h11.9999v12.0001h11.9999v11.9999h12.0001v-24.0001Zm-35.9999-23.9999v-23.9999h11.9998v23.9999h-11.9998Z"/>
  <rect class="b" x="48.0001" y="216" width="11.9999" height="11.9999"/>
  <rect class="b" x="48.0001" y="120.0002" width="11.9999" height="11.9999"/>
</svg>