<?xml version="1.0" encoding="UTF-8"?>
<svg id="a" data-name="Layer 1" xmlns="http://www.w3.org/2000/svg" viewBox="0 0 300 299.9267">
  <defs>
    <style>
      .b {
        fill: #fff;
        stroke-width: 0px;
      }
    </style>
  </defs>
  <path class="b" d="m300,107.9729h-11.997v-23.994h-11.9971v-23.9941h-11.997v-11.9969h-11.997v-11.9969h-11.9971v-11.9971h-11.9963v-11.9971h-23.9941V0h-108.0482v11.9969h-23.994v11.9971h-11.9971v11.9971h-11.997v11.9969h-11.997v11.9969h-11.997v23.9941h-11.9971v23.994H0v84.054h11.9969v23.994h11.9971v23.9941h11.997v11.9969h11.997v11.9971h11.997v11.9969h11.9971v11.9973h23.994v11.9969h108.0482v-11.9969h23.9941v-11.9973h11.9963v-11.9969h11.9971v-11.9971h11.997v-11.9969h11.997v-23.9941h11.9971v-23.994h11.997v-84.054ZM60.06,60.06v-23.9941h11.9971v-11.9969h23.9941v-11.9971h107.8982v11.9971h23.9933v11.9969h11.9971v23.9941h23.9939v23.9938h11.9972v23.9941h11.997v83.9039h-11.9221v-35.9908h-11.997v-23.9941h-23.9941v-11.9969h-11.997v-11.922h11.997v-36.0659h-11.997v-11.9971h-11.9964v-11.9971h-36.0661v11.9971h-11.997v11.9969h-35.9161v-11.9969h-11.9971v-11.9971h-36.066v11.9971h-11.997v11.9971h-11.9971v36.0659h11.9971v11.922h-11.9971v11.9969h-23.994v23.9941h-11.997v35.9908h-11.9221v-83.9039h11.9969v-23.9941h11.9971v-23.9938h23.994Zm203.8738,131.8918h-11.9969v11.9971h-35.9161v-23.9941h-11.9964v-11.9969h-23.994v-11.9969h-11.9971v-11.922h11.9971v-11.9971h35.9904v-11.9971h11.922v11.9971h11.9971v11.9971h11.997v11.9969h11.9969v35.916Zm-179.8797,47.9881v-23.9191h11.9971v-23.994h11.997v-11.9969h11.9971v-11.9971h11.9969v-11.9971h35.9161v11.9971h11.997v11.9971h11.997v11.9969h11.9971v23.994h11.9963v23.9191H84.0541Zm-47.9881-47.9881v-35.916h11.9969v-11.9969h11.9971v-11.9971h11.9971v-11.9971h11.9221v11.9971h35.9911v11.9971h11.9969v11.922h-11.9969v11.9969h-23.9941v11.9969h-11.997v23.9941h-35.9162v-11.9971h-11.997Zm35.9911-119.895h11.997v-11.9969h35.9162v11.9969h11.9969v11.922h-11.9969v11.9969h-11.9971v23.9941h-23.9191v-11.9971h-11.997v-35.916Zm95.9761,0h11.9971v-11.9969h35.9154v11.9969h11.997v35.916h-11.997v11.9971h-23.9184v-23.9941h-11.997v-11.9969h-11.9971v-11.922Zm11.9221,23.994v35.916h-11.997v11.9971h-35.9161v-11.9971h-11.9969v-35.916h11.9969v-11.9971h35.9161v11.9971h11.997Zm59.9846,143.8891v23.9941h-11.9971v11.9969h-23.9933v11.9969h-107.8982v-11.9969h-23.9941v-11.9969h-11.9971v-23.9941h-23.994v-23.994h-11.9971v-23.9191h11.9222v11.9969h11.997v11.9971h23.9941v23.994h11.997v11.9973h132.0422v-11.9973h11.9964v-23.994h23.9941v-11.9971h11.997v-11.9969h11.9221v23.9191h-11.9972v23.994h-23.9939Z"/>
</svg>