<?xml version="1.0" encoding="UTF-8"?>
<svg id="a" data-name="Layer 1" xmlns="http://www.w3.org/2000/svg" viewBox="0 0 300 299.9267">
  <defs>
    <style>
      .b {
        fill: #fff;
        stroke-width: 0px;
      }
    </style>
  </defs>
  <path class="b" d="m300,107.9729h-11.997v-23.994h-11.9971v-23.9941h-11.997v-11.9969h-11.997v-11.9969h-11.9971v-11.9971h-11.997v-11.9971h-23.9941V0h-108.0479v11.9969h-23.994v11.9971h-11.9969v11.9971h-11.9971v11.9969h-11.997v11.9969h-11.997v23.9941h-11.997v23.994H0v84.054h11.9971v23.994h11.997v23.9941h11.997v11.9969h11.997v11.9971h11.9971v11.9969h11.9969v11.9973h23.994v11.9969h108.0479v-11.9969h23.9941v-11.9973h11.997v-11.9969h11.9971v-11.9971h11.997v-11.9969h11.997v-23.9941h11.9971v-23.994h11.997v-84.054Zm-60.06,131.9671v23.9941h-11.997v11.9969h-23.9941v11.9969h-107.898v-11.9969h-23.994v-11.9969h-11.997v-23.9941h-23.9941v-23.994h-11.997v-23.9941h-11.997v-83.9039h11.997v-23.9941h11.997v-23.9938h23.9941v-23.9941h11.997v-11.9969h23.994v-11.9971h107.898v11.9971h23.9941v11.9969h11.997v23.9941h23.9941v23.9938h11.9971v23.9941h11.997v83.9039h-11.997v23.9941h-11.9971v23.994h-23.9941Z"/>
  <path class="b" d="m156.0361,107.9731v-11.9222h11.997v-24.0688h-11.9971v-11.9971h-11.997v-11.9971h-48.063v11.9971h-11.9969v11.9971h-11.9971v24.0688h11.9971v83.9041h-11.9971v12.0719h11.9971v11.9969h11.9969v11.9971h48.063v-11.9971h11.997v-11.9969h11.9969v-12.0719h-11.9968v-11.922h95.9759v-60.0598h-95.9759Zm-12.072,95.9758h-47.9131v-11.9971h-11.9971v-11.9218h71.907v11.9218h-11.9969v11.9971Zm-59.91-131.892h11.9969v-11.9969h47.9131v11.9969h11.9969v11.922h-71.9068v-11.922Z"/>
  <path class="b" d="m204.0239,239.94h-11.997v-11.9969h-84.0539v11.9969h-11.9971v11.9971h-11.9969v12.0719h132.0419v-12.0719h-11.9971v-11.9971Zm-95.9758,11.9971v-11.922h83.9039v11.922h-83.9039Z"/>
</svg>