<?xml version="1.0" encoding="UTF-8"?>
<svg id="a" data-name="Layer 1" xmlns="http://www.w3.org/2000/svg" viewBox="0 0 300 299.9267">
  <defs>
    <style>
      .b {
        fill: #fff;
        stroke-width: 0px;
      }
    </style>
  </defs>
  <path class="b" d="m300,107.973h-11.997v-23.994h-11.9971v-23.994h-11.997v-11.9971h-11.997v-11.9969h-11.9971v-11.9971h-11.9963v-11.9969h-23.9943V0h-108.0481v11.9971h-23.9939v11.9969h-11.9971v11.9971h-11.997v11.9969h-11.997v11.9971h-11.997v23.994h-11.9971v23.994H0v84.054h11.9969v23.994h11.9971v23.994h11.997v11.9971h11.997v11.9971h11.997v11.9969h11.9971v11.9971h23.9939v11.9969h108.0481v-11.9969h23.9943v-11.9971h11.9963v-11.9969h11.9971v-11.9971h11.997v-11.9971h11.997v-23.994h11.9971v-23.994h11.997v-84.054Zm-59.9852,131.9671v-11.9971h-12.072v12.0719h11.9971v23.9191h-11.9971v11.9971h-23.9933v11.9969h-47.9132v-35.9909h-12.0721v35.9909h-47.9129v-11.9969h-23.9941v-11.9971h-11.9971v-23.9191h11.9971v-12.0719h-12.072v11.9971h-23.9191v-23.9942h-11.9971v-23.994h-11.9968v-35.916h35.9907v-12.0717H12.072v-35.9162h11.9968v-23.994h11.9971v-23.994h23.9191v11.9969h12.072v-12.0719h-11.9971v-23.9191h11.9971v-11.9969h23.9941v-11.9971h47.9129v35.9909h12.0721V12.0719h47.9132v11.9971h23.9933v11.9969h11.9971v23.9191h-11.9971v12.0719h12.072v-11.9969h23.919v23.994h11.9972v23.994h11.997v35.9162h-35.9911v12.0717h35.9911v35.916h-11.997v23.994h-11.9972v23.9942h-23.919Z"/>
  <polygon class="b" points="192.0273 191.9522 180.0303 191.9522 180.0303 179.9551 168.0332 179.9551 168.0332 167.958 156.0362 167.958 156.0362 83.979 143.9643 83.979 143.9643 168.033 155.9612 168.033 155.9612 180.0301 167.9583 180.0301 167.9583 192.027 179.9553 192.027 179.9553 204.0241 191.9523 204.0241 191.9523 216.021 204.0242 216.021 204.0242 203.9491 192.0273 203.9491 192.0273 191.9522"/>
</svg>