<?xml version="1.0" encoding="UTF-8"?>
<svg id="a" data-name="Layer 1" xmlns="http://www.w3.org/2000/svg" viewBox="0 0 300 299.9267">
  <defs>
    <style>
      .b {
        fill: #fff;
        stroke-width: 0px;
      }
    </style>
  </defs>
  <path class="b" d="m300,107.9732h-11.9969v-23.9941h-11.9969v-23.9939h-11.9971v-11.9971h-11.9971v-11.9969h-11.9969v-11.9969h-11.9971v-11.9973h-23.9942V0h-108.0478v11.9973h-23.9942v11.9971h-11.9969v11.9969h-11.9969v11.9969h-11.9969v11.9971h-11.9973v23.9939h-11.9969v23.9941H0v84.0537h11.9971v23.9941h11.9969v23.9938h11.9973v11.9971h11.9969v11.9971h11.9969v11.9969h11.9969v11.9971h23.9942v11.9971h108.0478v-11.9971h23.9942v-11.9971h11.9971v-11.9969h11.9969v-11.9971h11.9971v-11.9971h11.9971v-23.9938h11.9969v-23.9941h11.9969v-84.0537Zm-72.057-11.922v59.9099h-11.9969v11.9969h-11.9971v23.9941h-11.9969v11.9969h-23.9942v11.9969h-23.9189v-11.9218h11.9971v-11.9971h11.9969v-23.9938h11.9971v-35.9912h11.9969v-35.9908h11.9971v-35.991h11.922v35.991h11.9969Zm-119.8948,95.9009v-47.913h11.9969v-11.9971h11.9969v-11.9969h11.9971v-11.9971h11.9971v-11.9969h11.9969v-11.9971h11.9971v-23.9939h11.922v35.916h-11.9971v35.991h-11.9971v35.9908h-11.9969v23.9941h-11.9971v11.9969h-23.9189v-11.9969h-11.9969ZM192.027,48.0633h11.922v11.922h-11.922v-11.922Zm-108.048,227.8677h-11.9219v-11.9971h-11.9969v-23.9939h-23.9942v-23.9941h-11.9969v-23.9938h-11.9971v-83.9041h11.9971v-23.9939h11.9969v-23.9939h23.9942v-23.9939h11.9969v-11.9971h23.9938v-11.9969h107.8981v23.9189h-11.9969v11.9969h-11.9971v11.9971h-11.9971v23.9941h-11.9969v11.9969h-11.9971v11.9971h-11.9971v11.9969h-11.9969v11.9971h-11.9971v11.9971h-11.9969v48.0627h11.9969v11.9971h11.9971v11.9971h11.9969v11.9218h-11.9969v11.9971h-11.9971v11.9969h-11.9969v11.9971h-11.9971v11.9971Zm155.9611-35.991v23.9939h-11.9971v11.9971h-23.994v11.9969h-107.8981v-11.922h11.9973v-11.9969h11.9969v-11.9971h11.9969v-23.9939h35.9911v-11.9969h23.994v-11.9971h11.9971v-11.9971h11.9971v-23.9938h11.9969v-11.9973h11.9971v-60.0598h-11.9971v-47.9881h-11.9969v-23.9189h11.9219v11.9971h11.9971v23.9939h23.994v23.9939h11.9969v23.9939h11.9971v83.9041h-11.9971v23.9938h-11.9969v23.9941h-23.994Z"/>
</svg>