<?xml version="1.0" encoding="UTF-8"?>
<svg id="a" data-name="Layer 1" xmlns="http://www.w3.org/2000/svg" viewBox="0 0 300 299.9267">
  <defs>
    <style>
      .b {
        fill: #fff;
        stroke-width: 0px;
      }
    </style>
  </defs>
  <rect class="b" x="264" y="263.9986" width="11.9999" height="12.0001"/>
  <polygon class="b" points="252.0001 95.9995 240.0002 95.9995 240.0002 107.9994 240.0002 119.9994 252.0001 119.9994 252.0001 107.9994 252.0001 95.9995"/>
  <polygon class="b" points="240.0003 47.9995 240.0002 47.9995 240.0002 59.9994 240.0003 59.9994 240.0003 60.001 252.0005 60.001 264.0004 60.001 264.0004 48.0011 264 47.9995 264 35.9998 275.9999 35.9998 275.9999 24 264 24 264 35.9997 252.0001 35.9997 252.0001 36.001 240.0003 36.001 240.0003 24.0013 228.0006 24.0013 228.0006 36.0014 240.0003 36.0014 240.0003 47.9995"/>
  <rect class="b" x="228.0002" y="203.999" width="11.9999" height="11.9999"/>
  <rect class="b" x="228.0002" y="83.9996" width="11.9999" height="11.9999"/>
  <rect class="b" x="228.0002" y="59.9996" width="11.9999" height="12.0001"/>
  <rect class="b" x="216.0001" y="215.9989" width="12.0001" height="11.9999"/>
  <rect class="b" x="216.0001" y="71.9997" width="12.0001" height="11.9999"/>
  <rect class="b" x="204.0002" y="227.9988" width="11.9999" height="11.9999"/>
  <rect class="b" x="204.0002" y="203.999" width="11.9999" height="11.9999"/>
  <rect class="b" x="204.0002" y="83.9996" width="11.9999" height="11.9999"/>
  <rect class="b" x="204.0002" y="59.9996" width="11.9999" height="12.0001"/>
  <rect class="b" x="192" y="191.9991" width="12.0001" height="11.9999"/>
  <polygon class="b" points="192 107.9995 204 107.9995 204 119.9994 204 131.9993 216.0001 131.9993 216.0001 119.9994 216.0001 107.9994 204.0002 107.9994 204.0002 95.9995 192 95.9995 192 107.9995"/>
  <polygon class="b" points="180.0003 239.9987 180.0003 251.9987 192 251.9987 204.0002 251.9987 204.0002 239.9987 192 239.9987 180.0003 239.9987"/>
  <polygon class="b" points="168 203.999 168 215.9989 180.0001 215.9989 192 215.9989 192 203.999 180.0001 203.999 168 203.999"/>
  <rect class="b" x="180.0001" y="179.999" width="11.9999" height="12.0001"/>
  <rect class="b" x="180.0001" y="107.9995" width="11.9999" height="11.9999"/>
  <polygon class="b" points="192 59.9996 204 59.9996 204 47.9997 192 47.9997 180.0001 47.9997 180.0001 35.9998 168.0002 35.9998 168.0002 47.9997 180.0001 47.9997 180.0001 59.9996 192 59.9996"/>
  <rect class="b" x="168.0002" y="251.9987" width="11.9999" height="11.9999"/>
  <rect class="b" x="168.0002" y="167.9992" width="11.9999" height="11.9999"/>
  <rect class="b" x="168.0002" y="119.9994" width="11.9999" height="11.9999"/>
  <polygon class="b" points="180.0003 83.9996 168.0002 83.9996 168.0002 95.9995 180.0003 95.9995 192 95.9995 192 83.9996 180.0003 83.9996"/>
  <polygon class="b" points="108.0003 251.9987 120.0001 251.9987 120.0001 239.9987 108.0003 239.9987 96.0002 239.9987 96.0002 251.9987 108.0003 251.9987"/>
  <rect class="b" x="108.0003" y="179.999" width="11.9997" height="12.0001"/>
  <rect class="b" x="108.0003" y="107.9995" width="11.9997" height="11.9999"/>
  <polygon class="b" points="96.0002 203.999 108.0003 203.999 108.0003 215.9989 120.0005 215.9989 132.0002 215.9989 132.0002 203.999 120.0005 203.999 108.0003 203.999 108.0003 191.9991 96.0002 191.9991 96.0002 203.999"/>
  <polygon class="b" points="96.0002 95.9995 96.0002 107.9994 84.0003 107.9994 84.0003 119.9994 84.0003 131.9993 96.0002 131.9993 96.0002 119.9994 96.0002 107.9995 108.0003 107.9995 108.0003 95.9995 96.0002 95.9995"/>
  <rect class="b" x="84.0003" y="227.9988" width="11.9999" height="11.9999"/>
  <rect class="b" x="84.0003" y="203.999" width="11.9999" height="11.9999"/>
  <polygon class="b" points="96.0002 179.999 96.0002 167.9992 84.0003 167.9992 84.0003 179.999 84.0003 191.9989 96.0002 191.9989 96.0002 179.999"/>
  <rect class="b" x="84.0003" y="83.9996" width="11.9999" height="11.9999"/>
  <rect class="b" x="84.0003" y="59.9996" width="11.9999" height="12.0001"/>
  <rect class="b" x="72.0004" y="215.9989" width="11.9999" height="11.9999"/>
  <rect class="b" x="72.0004" y="71.9997" width="11.9999" height="11.9999"/>
  <rect class="b" x="60.0002" y="227.9988" width="12.0001" height="11.9999"/>
  <rect class="b" x="60.0002" y="203.999" width="12.0001" height="11.9999"/>
  <rect class="b" x="60.0002" y="83.9996" width="12.0001" height="11.9999"/>
  <polygon class="b" points="60.0002 179.999 48.0003 179.999 48.0003 167.9992 36.0004 167.9992 36.0004 179.999 48.0001 179.999 48.0001 191.9989 48.0001 203.999 60.0002 203.999 60.0002 191.9989 60.0002 179.999"/>
  <polygon class="b" points="48.0001 107.9994 48.0001 119.9994 36.0004 119.9994 36.0004 131.9993 48.0003 131.9993 48.0003 119.9994 60.0002 119.9994 60.0002 107.9994 60.0002 95.9995 48.0001 95.9995 48.0001 107.9994"/>
  <rect class="b" x="24.0002" y="24" width="12.0001" height="11.9999"/>
  <polygon class="b" points="288.0001 108.0009 288.0001 120.001 288.0001 132.0008 288.0001 143.9992 287.9997 143.9992 275.9996 143.9992 275.9996 131.9993 264 131.9993 264 119.9994 252.0001 119.9994 252.0001 131.9993 263.9998 131.9993 263.9998 143.9992 251.9997 143.9992 239.9996 143.9992 227.9998 143.9992 227.9998 131.9993 215.9997 131.9993 215.9997 143.9992 203.9998 143.9992 191.9997 143.9992 179.9997 143.9992 167.9998 143.9992 167.9998 131.9993 155.9999 131.9993 155.9999 119.9994 155.9999 107.9995 155.9999 95.9995 155.9999 83.9996 167.9998 83.9996 167.9998 71.9995 155.9999 71.9995 155.9999 59.9996 155.9999 47.9997 155.9999 35.9998 167.9998 35.9998 167.9998 24 155.9999 24 155.9999 12.0014 156.0003 12.0014 168 12.0014 180.0001 12.0014 192 12.0014 204 12.0014 204 .0013 192 .0013 180.0001 .0013 168 .0013 156.0003 .0013 155.9999 .0013 155.9999 0 143.9997 0 143.9997 .0013 132.0002 .0013 120.0001 .0013 108.0001 .0013 96.0002 .0013 96.0002 12.0014 108.0001 12.0014 120.0001 12.0014 132.0002 12.0014 143.9997 12.0014 143.9997 24 131.9998 24 131.9998 35.9998 120.0001 35.9998 120.0001 47.9997 108.0003 47.9997 96.0002 47.9997 96.0002 59.9996 108.0003 59.9996 120.0005 59.9996 120.0005 47.9997 132.0002 47.9997 132.0002 35.9998 143.9997 35.9998 143.9997 47.9997 143.9997 59.9996 143.9997 71.9995 131.9998 71.9995 131.9998 83.9994 120.0001 83.9994 108.0003 83.9994 108.0003 95.9995 120.0001 95.9995 132.0002 95.9995 132.0002 83.9996 143.9997 83.9996 143.9997 95.9995 143.9997 107.9995 143.9997 119.9994 143.9997 131.9993 132.0002 131.9993 132.0002 119.9994 120.0001 119.9994 120.0001 131.9993 131.9998 131.9993 131.9998 143.9992 119.9997 143.9992 108 143.9992 95.9998 143.9992 83.9999 143.9992 83.9999 131.9993 72 131.9993 72 143.9992 59.9998 143.9992 48.0001 143.9992 36 143.9992 36 131.9993 23.9999 131.9993 23.9999 143.9992 12.0001 143.9992 12.0001 132.0008 12.0001 120.001 12.0001 108.0009 .0004 108.0009 .0004 120.001 .0004 132.0008 .0004 143.9992 0 143.9992 0 155.9993 .0004 155.9993 .0004 156.0006 .0004 168.0007 .0004 180.0006 .0004 192.0005 12.0001 192.0005 12.0001 180.0006 12.0001 168.0007 12.0001 156.0006 12.0001 155.9993 23.9999 155.9993 23.9999 167.9992 36 167.9992 36 155.9993 48.0001 155.9993 59.9998 155.9993 72 155.9993 72 167.9992 83.9999 167.9992 83.9999 155.9993 95.9998 155.9993 108 155.9993 119.9997 155.9993 131.9998 155.9993 131.9998 167.9992 120.0001 167.9992 120.0001 179.999 132.0002 179.999 132.0002 167.9992 143.9997 167.9992 143.9997 179.999 143.9997 191.9989 143.9997 203.999 143.9997 215.9989 131.9998 215.9989 131.9998 227.9988 143.9997 227.9988 143.9997 239.9987 143.9997 251.9987 143.9997 263.9986 132.0002 263.9986 132.0002 251.9987 120.0001 251.9987 120.0001 263.9986 131.9998 263.9986 131.9998 275.9987 143.9997 275.9987 143.9997 287.9986 143.9997 288.0001 132.0002 288.0001 120.0001 288.0001 108.0001 288.0001 96.0002 288.0001 96.0002 300 108.0001 300 120.0001 300 132.0002 300 144.0001 300 156.0003 300 168 300 180.0001 300 192 300 204 300 204 288.0001 192 288.0001 180.0001 288.0001 168 288.0001 156.0003 288.0001 155.9999 288.0001 155.9999 287.9986 155.9999 275.9987 167.9998 275.9987 167.9998 263.9986 155.9999 263.9986 155.9999 251.9987 155.9999 239.9987 155.9999 227.9988 167.9998 227.9988 167.9998 215.9989 155.9999 215.9989 155.9999 203.999 155.9999 191.9989 155.9999 179.999 155.9999 167.9992 167.9998 167.9992 167.9998 155.9993 179.9997 155.9993 191.9997 155.9993 203.9998 155.9993 215.9997 155.9993 215.9997 167.9992 204.0002 167.9992 204.0002 179.999 204.0002 191.9989 216.0001 191.9989 216.0001 179.999 216.0001 167.9992 227.9998 167.9992 227.9998 155.9993 239.9996 155.9993 251.9997 155.9993 263.9998 155.9993 263.9998 167.9992 252.0001 167.9992 252.0001 179.999 240.0002 179.999 240.0002 191.9989 240.0002 203.999 252.0001 203.999 252.0001 191.9989 252.0001 179.999 264 179.999 264 167.9992 275.9996 167.9992 275.9996 155.9993 287.9997 155.9993 288.0001 155.9993 288.0001 156.0006 288.0001 168.0007 288.0001 180.0006 288.0001 192.0005 300 192.0005 300 180.0006 300 168.0007 300 156.0006 300 144.0007 300 132.0008 300 120.001 300 108.0009 288.0001 108.0009"/>
  <polygon class="b" points="276.0001 204.0005 276.0001 216.0004 288.0001 216.0004 288.0001 204.0005 288.0001 192.0005 276.0001 192.0005 276.0001 204.0005"/>
  <polygon class="b" points="288.0001 84.0011 276.0001 84.0011 276.0001 96.001 276.0001 108.0009 288.0001 108.0009 288.0001 96.001 288.0001 84.0011"/>
  <polygon class="b" points="264 228.0003 264 240.0002 252.0003 240.0002 252.0001 240.0002 252.0001 239.9987 240.0002 239.9987 240.0002 227.9988 228.0002 227.9988 228.0002 239.9987 240 239.9987 240 251.9987 240.0003 251.9987 240.0003 252.0003 240.0003 264.0002 252.0003 264.0002 252.0003 263.9986 264 263.9986 264 252.0003 264.0004 252.0003 264.0004 240.0002 275.9999 240.0002 275.9999 228.0003 275.9999 216.0004 264 216.0004 264 228.0003"/>
  <polygon class="b" points="264 72.001 264 84.0009 275.9999 84.0009 275.9999 72.001 275.9999 60.0011 264 60.0011 264 72.001"/>
  <rect class="b" x="228.0006" y="264.0002" width="11.9997" height="12.0001"/>
  <polygon class="b" points="204.0002 276.0002 204.0002 288.0001 216.0001 288.0001 228.0002 288.0001 228.0002 276.0002 216.0001 276.0002 204.0002 276.0002"/>
  <polygon class="b" points="216.0001 24.0013 227.9998 24.0013 227.9998 12.0014 216.0001 12.0014 204 12.0014 204 24.0013 216.0001 24.0013"/>
  <polygon class="b" points="84.0003 276.0002 72.0007 276.0002 72.0007 264.0002 60.0006 264.0002 60.0006 276.0002 72.0004 276.0002 72.0004 288.0001 84.0003 288.0001 96.0002 288.0001 96.0002 276.0002 84.0003 276.0002"/>
  <polygon class="b" points="72.0002 12.0014 72.0002 24.0013 60.0006 24.0013 60.0006 36.0014 72.0007 36.0014 72.0007 24.0013 84.0003 24.0013 96.0002 24.0013 96.0002 12.0014 84.0003 12.0014 72.0002 12.0014"/>
  <polygon class="b" points="59.9998 239.9987 47.9997 239.9987 47.9997 240.0002 36.0004 240.0002 36.0004 228.0003 36.0004 216.0004 24.0004 216.0004 24.0004 204.0005 24.0004 192.0005 12.0003 192.0005 12.0003 204.0005 12.0003 216.0004 24.0002 216.0004 24.0002 228.0003 24.0002 240.0002 36.0002 240.0002 36.0002 251.9987 36 251.9987 36 263.9986 24.0002 263.9986 24.0002 275.9987 36.0004 275.9987 36.0004 263.9986 60.0002 264.0002 60.0002 252.0003 60.0002 240.0002 59.9998 240.0002 59.9998 239.9987"/>
  <polygon class="b" points="36.0006 60.0011 48.0005 60.0011 60.0002 60.0011 60.0002 71.9995 72.0002 71.9995 72.0002 59.9996 60.0004 59.9996 60.0004 48.0013 60.0004 36.0014 48.0005 36.0014 36.0004 35.9998 36.0006 48.0013 36.0006 60.0011"/>
  <polygon class="b" points="24.0004 96.001 24.0004 84.0009 36.0004 84.0009 36.0004 72.001 36.0004 60.0011 24.0002 60.0011 24.0002 72.001 24.0002 84.0009 12.0003 84.0009 12.0003 96.001 12.0003 108.0009 24.0004 108.0009 24.0004 96.001"/>
</svg>