<?xml version="1.0" encoding="UTF-8"?>
<svg id="a" data-name="Layer 1" xmlns="http://www.w3.org/2000/svg" viewBox="0 0 300 299.9267">
  <defs>
    <style>
      .b {
        fill: #fff;
        stroke-width: 0px;
      }
    </style>
  </defs>
  <path class="b" d="m300,107.9733h-11.9971v-23.9941h-11.9971v-23.9939h-11.9969v-11.9971h-11.9971v-11.9969h-11.9969v-11.9971h-11.9971v-11.9971h-23.994V0h-108.0481v11.9973h-23.9938v11.9971h-11.9971v11.9971h-11.9971v11.9969h-11.9969v11.9971h-11.9971v23.9939h-11.9969v23.9941H0v84.0537h11.9971v23.9941h11.9969v23.9937h11.9971v11.9971h11.9969v11.9971h11.9971v11.9969h11.9971v11.9971h23.9938v11.9971h108.0481v-11.9971h23.994v-11.9971h11.9971v-11.9969h11.9969v-11.9971h11.9971v-11.9971h11.9969v-23.9937h11.9971v-23.9941h11.9971v-84.0537Zm-60.06-47.9879h-11.922v-11.9973h-36.0661v11.9973h-11.922V23.9945h-60.0598v35.991h-11.922v-11.9973h-36.0659v11.9973h-11.922v-23.9193h11.9971v-11.9971h23.994v-11.9969h107.8979v11.9969h23.994v11.9971h11.9971v23.9193Zm0,47.9879h-11.9971v12.0719h11.9971v11.9969h23.9938v35.916h-23.9938v11.9973h-11.9971v12.0717h11.9971v35.916h-11.9971v11.9971h-35.916v-11.9971h-24.069v23.9939h-35.9158v-23.9939h-24.0692v11.9971h-35.9158v-11.9971h-11.9971v-35.916h11.9971v-12.0717h-11.9971v-11.9973h-23.994v-35.916h23.994v-11.9969h11.9971v-12.0719h-11.9971v-35.9161h11.9971v-11.9971h35.9158v11.9971h12.0719v-11.9969h11.9973v-23.9939h35.9158v23.9939h11.9971v11.9969h12.0719v-11.9971h35.916v11.9971h11.9971v35.9161Zm-11.9971,167.9577h-23.994v11.9969h-107.8979v-11.9969h-23.994v-11.9971h-11.9971v-23.9191h11.922v11.9971h36.0659v-11.9971h11.922v23.9941h60.0598v-23.9941h11.922v11.9971h36.0661v-11.9971h11.922v23.9191h-11.9971v11.9971Zm-191.8768-35.991v-23.9941h-11.9971v-23.9937h-11.9971v-83.904h11.9971v-23.9939h11.9971v-23.9939h23.9189v11.922h-11.9971v36.0658h11.9971v11.922H23.994v60.06h35.991v11.922h-11.9971v36.0658h11.9971v11.922h-23.9189Zm203.9489,0v-11.922h11.9969v-36.0658h-11.9969v-11.922h35.9908v-60.06h-35.9908v-11.922h11.9969v-36.0658h-11.9969v-11.922h23.9187v23.9939h11.9973v23.9939h11.9969v83.904h-11.9969v23.9937h-11.9973v23.9941h-23.9187Z"/>
  <path class="b" d="m204.024,107.9732h-11.9971v-11.9969h-23.994v-11.9969h-36.0661v11.9969h-23.994v11.9969h-11.9971v23.9941h-11.9969v36.066h11.9969v23.9937h11.9971v11.9971h23.994v11.9971h36.0661v-11.9971h23.994v-11.9971h11.9971v-23.9937h11.9969v-36.066h-11.9969v-23.9941Zm-12.0721,83.979h-23.994v11.9969h-35.916v-11.9969h-23.994v-23.9941h-11.9969v-35.916h11.9969v-23.9939h23.994v-11.9969h35.916v11.9969h23.994v23.9939h11.9971v35.916h-11.9971v23.9941Z"/>
  <polygon class="b" points="168.0329 155.9612 156.0359 155.9612 156.0359 107.9732 143.9639 107.9732 143.9639 156.036 155.9608 156.036 155.9608 168.0333 167.9579 168.0333 167.9579 180.0302 180.03 180.0302 180.03 167.9581 168.0329 167.9581 168.0329 155.9612"/>
</svg>