<?xml version="1.0" encoding="UTF-8"?>
<svg id="a" data-name="Layer 1" xmlns="http://www.w3.org/2000/svg" viewBox="0 0 300 299.9267">
  <defs>
    <style>
      .b {
        fill: #fff;
        stroke-width: 0px;
      }
    </style>
  </defs>
  <polygon class="b" points="288.0001 108 288.0001 120.0002 288.0001 132.0001 288.0001 144 288.0001 156 288.0001 168.0001 288.0001 180 288.0001 192 300 192 300 180 300 168.0001 300 156 300 144 300 132.0001 300 120.0002 300 108 288.0001 108"/>
  <polygon class="b" points="276.0001 204.0001 276.0001 216 288.0001 216 288.0001 204.0001 288.0001 192 276.0001 192 276.0001 204.0001"/>
  <polygon class="b" points="288.0001 84.0001 276.0001 84.0001 276.0001 96.0001 276.0001 108 288.0001 108 288.0001 96.0001 288.0001 84.0001"/>
  <polygon class="b" points="264.0002 228 264.0002 239.9999 276.0001 239.9999 276.0001 228 276.0001 216 264.0002 216 264.0002 228"/>
  <polygon class="b" points="264.0002 72 264.0002 84 276.0001 84 276.0001 72 276.0001 60.0001 264.0002 60.0001 264.0002 72"/>
  <polygon class="b" points="240.0001 239.9999 240.0001 252.0001 240.0001 264 252 264 252 252.0001 264.0002 252.0001 264.0002 239.9999 252 239.9999 240.0001 239.9999"/>
  <polygon class="b" points="240.0001 60.0001 252 60.0001 264.0002 60.0001 264.0002 48.0001 252 48.0001 252 36.0002 240.0001 36.0002 240.0001 48.0001 240.0001 60.0001"/>
  <polygon class="b" points="228.0001 276.0001 216 276.0001 204 276.0001 204 288.0001 216 288.0001 228.0001 288.0001 228.0001 276.0001 240.0001 276.0001 240.0001 264 228.0001 264 228.0001 276.0001"/>
  <polygon class="b" points="239.9999 216 239.9999 204.0001 239.9999 192 228.0001 192 228.0001 204.0001 228.0001 216 228.0001 228 239.9999 228 239.9999 216"/>
  <rect class="b" x="228.0001" y="24.0001" width="11.9999" height="12.0001"/>
  <rect class="b" x="216" y="228" width="12.0001" height="11.9999"/>
  <rect class="b" x="216" y="180" width="12.0001" height="11.9999"/>
  <polygon class="b" points="204 24.0001 216.0002 24.0001 228.0001 24.0001 228.0001 12.0001 216.0002 12.0001 204 12.0001 204 24.0001"/>
  <polygon class="b" points="180.0002 288.0001 168 288.0001 155.9999 288.0001 144.0001 288.0001 132 288.0001 120 288.0001 108.0001 288.0001 96 288.0001 96 300 108.0001 300 120 300 132 300 144.0001 300 155.9999 300 168 300 180.0002 300 192.0001 300 204 300 204 288.0001 192.0001 288.0001 180.0002 288.0001"/>
  <polygon class="b" points="108.0001 264 120 264 132 264 144.0001 264 155.9999 264 168 264 180.0002 264 192.0001 264 204 264 204 252.0001 216 252.0001 216 239.9999 204 239.9999 204 252.0001 192.0001 252.0001 180.0002 252.0001 168 252.0001 155.9999 252.0001 144.0001 252.0001 132 252.0001 120 252.0001 108.0001 252.0001 96 252.0001 96 239.9999 84.0002 239.9999 84.0002 252.0001 96 252.0001 96 264 108.0001 264"/>
  <polygon class="b" points="216 156 204 156 204 144 192.0001 144 192.0001 156 180.0002 156 168 156 168 167.9999 155.9999 167.9999 144.0001 167.9999 132 167.9999 132 180 144.0001 180 155.9999 180 168 180 168 168.0001 180.0002 168.0001 192.0001 168.0001 204 168.0001 204 180 216 180 216 168.0001 216 156"/>
  <rect class="b" x="180" y="132.0001" width="12.0001" height="11.9999"/>
  <polygon class="b" points="167.9998 120.0002 167.9998 132.0001 180 132.0001 180 120.0002 180 108 180 96.0001 180 84 180 72 180 60.0001 180 48.0001 192.0001 48.0001 192.0001 36 180 36 167.9998 36 155.9999 36 143.9999 36 132 36 120 36 107.9999 36 107.9999 48.0001 120 48.0001 120 60.0001 120 72 120 84 120 96.0001 120 108 120 120.0002 120 132.0001 132 132.0001 132 120.0002 132 108 132 96.0001 132 84 132 72 132 60.0001 132 48.0001 143.9999 48.0001 155.9999 48.0001 167.9998 48.0001 167.9998 60.0001 155.9999 60.0001 143.9999 60.0001 143.9999 72 155.9999 72 167.9998 72 167.9998 84 155.9999 84 143.9999 84 143.9999 96.0001 155.9999 96.0001 167.9998 96.0001 167.9998 108 167.9998 120.0002"/>
  <rect class="b" x="108.0001" y="132.0001" width="11.9999" height="11.9999"/>
  <polygon class="b" points="120 12.0001 132 12.0001 144.0001 12.0001 155.9999 12.0001 168 12.0001 180.0002 12.0001 192.0001 12.0001 204 12.0001 204 0 192.0001 0 180.0002 0 168 0 155.9999 0 144.0001 0 132 0 120 0 108.0001 0 96 0 96 12.0001 108.0001 12.0001 120 12.0001"/>
  <polyline class="b" points="72.0001 276.0001 72.0001 264 59.9999 264 59.9999 276.0001 72.0001 276.0001 72.0001 288.0001 84.0002 288.0001 96 288.0001 96 276.0001"/>
  <rect class="b" x="72.0001" y="228" width="12.0001" height="11.9999"/>
  <polygon class="b" points="84.0002 180 96 180 96 167.9999 107.9999 167.9999 120 167.9999 131.9998 167.9999 131.9998 156 120 156 107.9999 156 107.9999 144 96 144 96 156 83.9998 156 83.9998 167.9999 83.9998 180 72.0001 180 72.0001 192 84.0002 192 84.0002 180"/>
  <polygon class="b" points="72.0001 204.0001 72.0001 192 59.9999 192 59.9999 204.0001 59.9999 216 59.9999 228 72.0001 228 72.0001 216 72.0001 204.0001"/>
  <polygon class="b" points="60.0001 264 60.0001 252.0001 60.0001 239.9999 48 239.9999 36 239.9999 36 252.0001 48 252.0001 48 264 60.0001 264"/>
  <polygon class="b" points="60.0001 60.0001 60.0001 48.0001 60.0001 36.0002 72.0001 36.0002 72.0001 24.0001 83.9998 24.0001 96 24.0001 96 12.0001 83.9998 12.0001 71.9999 12.0001 71.9999 24.0001 59.9999 24.0001 59.9999 36.0002 48 36.0002 48 48.0001 36 48.0001 36 60.0001 48 60.0001 60.0001 60.0001"/>
  <polygon class="b" points="36 216 24.0001 216 24.0001 204.0001 24.0001 192 12.0001 192 12.0001 204.0001 12.0001 216 23.9999 216 23.9999 228 23.9999 239.9999 36 239.9999 36 228 36 216"/>
  <polygon class="b" points="12.0001 167.9999 12.0001 156 12.0001 144 12.0001 132.0001 12.0001 120.0002 12.0001 108.0002 24.0001 108.0002 24.0001 96.0001 24.0001 84.0001 36 84.0001 36 72 36 60.0001 23.9999 60.0001 23.9999 72 23.9999 84.0001 12.0001 84.0001 12.0001 96.0001 12.0001 108 0 108 0 120.0002 0 132.0001 0 144 0 156 0 167.9999 0 180 0 192 12.0001 192 12.0001 180 12.0001 167.9999"/>
</svg>