<?xml version="1.0" encoding="UTF-8"?>
<svg id="a" data-name="Layer 1" xmlns="http://www.w3.org/2000/svg" viewBox="0 0 300 299.9267">
  <defs>
    <style>
      .b {
        fill: #fff;
        stroke-width: 0px;
      }
    </style>
  </defs>
  <path class="b" d="m216.0191,156.0368h11.9969v-12.072h-11.9969v-11.9969h-11.9971v-11.9969h-12.072v11.9971h-11.9971v11.9969h-11.9954v12.0718h11.9954v11.9969h11.9971v11.9969h12.0346l.0389-.0015v-11.9956h11.9956v-11.9968Zm-12.0706-.0764h-11.9204v-11.9221h11.9204v11.9221Z"/>
  <path class="b" d="m131.9662,120.046h11.9969v11.9969h12.072v-11.9969h11.9971v-11.9969h11.9956v-12.0718h-11.9956v-11.9969h-11.9969v-11.9971h-12.0722v11.9952h-11.958l-.0389.0019v11.9969h-11.9969v12.0718h11.9969v11.9969Zm23.9956-23.9956v11.9219h-11.9221v-11.9219h11.9221Z"/>
  <path class="b" d="m120.0441,168.0336v-11.9968h11.9969v-12.072h-11.9969v-11.9969h-11.9956v-11.9985h-12.0346l-.0389.0015v11.9971h-11.9969v11.9969h-11.9971v12.0718h11.9971v11.9969h11.9593v12.0344h12.1472v-12.0346h11.9595Zm-12.0705-12.0731h-11.9221v-11.9221h11.9221v11.9221Z"/>
  <path class="b" d="m300,107.9725h-11.9971v-23.9941h-11.9973v-23.9939h-11.9968v-11.9968h-11.9969v-11.9969h-11.9973v-11.9971h-11.9956v-11.9969h-23.9954V0h-108.047v11.9593h-24.0317v11.9969h-11.9969v12.0346h-11.9597v11.9969h-11.9956v11.9968h-11.9969v23.9939h-11.9969v23.9941H.0015v23.9952h-.0015v36.0284l.0015.0374v23.9924h11.9971v23.9939h11.9969v23.9937h11.9969v11.9969h11.9956v11.9969h11.9971v11.9969h11.9971v11.9969h23.9941v11.9973h35.9897v.0013h36.0286l.0374-.0013h35.9912v-11.9973h23.9954v-11.9969h11.9956v-11.9969h11.9973v-11.9969h11.9969v-11.9969h11.9968v-23.9939h11.9973v-23.9937h11.9971v-84.0535Zm-36.0678,71.9832v11.9971h-11.9969v11.9968h-23.9194v-23.9189h11.9973v-11.9971h11.9595l.0391-.0015v-12.0344l-.0015-.0372v-23.9926h-11.9971v-11.9969h-11.9973v-23.9189h23.9194v11.9595l.0015.0374v11.995h11.9954v.0019h11.9969v11.9969h11.9973v35.9158h-11.9973v11.9969h-11.9969Zm12.072.075h11.9238v11.9202h-11.9238v-11.9202Zm11.9238-60.0598h-11.9236v-11.9236h11.9236v11.9236Zm-83.9811-71.9066v23.9189h-23.9177v-11.9969h-11.9973v-11.9968h-36.0657v11.9968h-11.9969v11.9969h-23.9194v-23.9189h11.9969v-11.9969h11.9971v-11.9969h11.9971v-11.9969h35.9164v11.9969h11.9954v11.9969h11.9971v11.9969h11.9969ZM36.0661,120.046v-11.9969h11.9956v-11.9969h23.9192v23.9189h-11.9971v11.9971h-11.9969v36.0657h11.9969v11.9969h11.9971v23.9189h-23.9192v-11.9968h-11.9969v-11.9973h-11.9971v-11.9969h-11.9939v-35.9154h11.9939v-11.9971h11.9985Zm-12.072-.0748h-11.9204v-11.9238h11.9204v11.9238Zm-11.9204,71.9798v-11.9204h11.919v11.9204h-11.919Zm155.8837,83.9801v11.9956h-35.9164v-11.9956h-11.9971v-11.9968h-11.9971v-11.9969h-11.9969v-23.9189h23.9194v11.9969h11.9969v11.9968h36.0657v-11.9968h11.9973v-11.9969h23.9177v23.9189h-11.9969v11.9969h-11.9971v11.9968h-11.9954Zm71.9822-35.9924v23.9939h-11.9969v11.9969h-23.9927v11.9971h-23.9221v-11.9204h11.9969v-11.9969h11.9971v-11.9971h11.9969v-24.0689h-11.9969v-11.9968h-24.0691v11.9969h-11.9954v11.9968h-35.9164v-11.9968h-11.9971v-11.9969h-24.0689v11.9968h-11.9969v24.0689h11.9969v11.9971h11.9969v11.9969h11.9973v11.9204h-23.9179v-11.9971h-23.9941v-11.9969h-11.9969v-23.9939h-23.9927v-23.9939h-11.9969v-23.9173h11.919v11.9971h11.9971v11.9969h24.0687v-11.9969h11.9973v-24.0687h-11.9973v-11.9971h-11.9969v-35.9158h11.9969v-11.9969h11.9973v-24.0687h-11.9973v-11.9969h-24.0687v11.9969h-11.9971v11.9968h-11.9192v-23.9208h11.9971v-23.9935h23.9927v-23.9565h12.0346v-11.9969h23.9943v-12.0344h23.8801v11.9234h-11.9973v11.9971h-11.9969v11.9969h-11.9969v24.0687h11.9969v11.9969h24.0689v-11.9969h11.9971v-11.9969h35.9164v11.9969h11.9954v11.9969h24.0691v-11.9969h11.9969v-24.0687h-11.9969v-11.9969h-11.9971v-11.9971h-11.9956v-11.9234h23.9208v11.9968h23.9927v11.9968h11.9969v23.9943h23.9941v23.9935h11.9971v23.9208h-11.9236v-11.9968h-11.9971v-11.9969h-24.0689v11.9969h-11.9971v24.0687h11.9971v11.9969h11.9969v35.9158h-11.9969v11.9971h-11.9971v24.0687h11.9971v11.9969h24.0689v-11.9969h11.9969v-11.9969h11.9238v23.9171h-11.9971v23.9939h-23.9941Z"/>
  <path class="b" d="m168.0323,179.9557h-11.9969v-11.9969h-12.0722v11.9968h-11.9969v11.9973h-11.9969v12.0718h11.9969v11.9969h11.9969v11.9969h12.072v-11.9971h11.9971v-11.9969h11.9956v-12.072h-11.9956v-11.9968Zm-12.0705,23.9924h-11.9221v-11.9219h11.9221v11.9219Z"/>
</svg>