<?xml version="1.0" encoding="UTF-8"?>
<svg id="a" data-name="Layer 1" xmlns="http://www.w3.org/2000/svg" viewBox="0 0 300 299.9267">
  <defs>
    <style>
      .b {
        fill: #fff;
        stroke-width: 0px;
      }
    </style>
  </defs>
  <path class="b" d="m299.9251,107.9723h-11.9192v-23.994h-11.9941v-23.9938h-11.9939v-11.9968h-11.9939v-11.997h-11.9941v-11.9968h-11.9939v-11.9972h-23.988V0h-108.096v11.9966h-23.9878v11.9972h-11.994v11.9968h-11.994v11.997h-11.994v11.9968h-11.994v23.9938h-11.994v23.994H0v84.1282h11.9941v23.994h11.994v23.9938h12.0689v11.9222h11.9931v.0015h.0012v11.9955h11.9928v11.9987h11.9949v11.9951h11.9931v.0017h11.9936v-.0017h.0012v-11.997h-11.9949v-47.9859h-11.994v-23.9938h11.994v11.997h11.9936v11.9968h11.9193v12.0719h12.1439v-12.1471h-12.0689v-35.9154h11.9937v-23.9938h11.9943v-11.997h11.9937v-35.991h11.9943v47.988h-11.9943v23.9938h11.9943v11.9968h11.9939v11.997h11.994v11.9968h11.994v-11.9968h11.9937v-11.997h11.9943v-23.9938h11.9937v35.9908h-11.9937v23.9936h-11.9943v35.991h-11.9937v11.9951h-95.951v.0017h-.0012v11.997h11.9943v-.0019h71.964v.0019h11.994v-.0019h11.9949v-11.9951h11.9931v-.0017h11.9949v-11.997h11.994v-11.9222h12.0691v-11.9968h11.9939v-11.997h11.9939v-23.9938h11.9941v-23.994h11.9942v-84.1282h-.0749ZM144.0017,24.0704v35.991h-11.9937v11.9968h-11.9943v11.9968h-11.9937v23.994h-11.9943v23.9938h-11.9927v-11.9987h-23.913v-12.0719h-12.1438v12.1469h12.0689v18.2411l-.0009.0002v17.6764h-11.994v11.9951h-11.9931v35.9908h11.9931v23.9955h11.994v11.9953h-23.9121v-24.0689h-11.994v-23.994h-11.994v-83.8286h11.994v-23.9938h11.994v-23.994h23.988v-23.9936h11.994v-11.997h23.988v-11.9968h23.8371l.075.0013h23.9877v11.9222Zm143.8543,95.9739v71.9064h-11.9939v23.994h-11.9941v23.9938h-23.914v-11.9203h11.9939v-95.9755h-11.9939v-11.997h-11.9943v-11.9968h-11.9937v47.9878h-11.9943v11.997h-11.9937v-23.9944h11.9937v-59.9845h-11.9937v-11.9968h-11.994v-35.991h-11.994v-11.9968h-11.9939v-11.9235h47.902v11.9968h23.988v11.997h11.994v23.9936h23.988v23.994h11.9941v23.9938h11.9939v11.9222Z"/>
</svg>