<?xml version="1.0" encoding="UTF-8"?>
<svg id="a" data-name="Layer 1" xmlns="http://www.w3.org/2000/svg" viewBox="0 0 300 299.9267">
  <defs>
    <style>
      .b {
        fill: #fff;
        stroke: #fff;
        stroke-miterlimit: 10;
        stroke-width: .075px;
      }
    </style>
  </defs>
  <polygon class="b" points="24.0001 95.9999 24.0001 84.0001 36 84.0001 36 72 36 60.0001 48 60.0001 59.9999 60.0001 59.9999 48.0001 59.9999 36.0002 48 36.0002 48 48.0001 35.9998 48.0001 35.9998 60.0001 23.9999 60.0001 23.9999 72 23.9999 84 11.9999 84 11.9999 95.9999 11.9999 108 24.0001 108 24.0001 95.9999"/>
  <polygon class="b" points="59.9999 239.9999 48 239.9999 36 239.9999 36 228 36 216 24.0001 216 24.0001 204.0001 24.0001 192 11.9999 192 11.9999 204.0001 11.9999 216 23.9999 216 23.9999 228 23.9999 239.9999 35.9998 239.9999 35.9998 252.0001 48 252.0001 48 264 59.9999 264 59.9999 252.0001 59.9999 239.9999"/>
  <polygon class="b" points="11.9999 167.9999 11.9999 156 11.9999 144 11.9999 132.0001 11.9999 120.0002 11.9999 108 0 108 0 120.0002 0 132.0001 0 144 0 156 0 167.9999 0 180 0 192 11.9999 192 11.9999 180 11.9999 167.9999"/>
  <polygon class="b" points="72.0001 24.0001 84 24.0001 96 24.0001 96 12.0001 84 12.0001 71.9999 12.0001 71.9999 24.0001 59.9999 24.0001 59.9999 36.0002 72.0001 36.0002 72.0001 24.0001"/>
  <polygon class="b" points="120.0002 12.0001 132.0002 12.0001 144.0001 12.0001 156.0001 12.0001 168 12.0001 180.0002 12.0001 192.0001 12.0001 203.9999 12.0001 203.9999 24.0001 216 24.0001 227.9999 24.0001 227.9999 12.0001 216 12.0001 204.0002 12.0001 204.0002 0 192.0001 0 180.0002 0 168 0 156.0001 0 144.0001 0 132.0002 0 120.0002 0 108.0001 0 96 0 96 12.0001 108.0001 12.0001 120.0002 12.0001"/>
  <polygon class="b" points="120.0002 275.9999 120.0002 264 132.0002 264 132.0002 252.0001 120.0002 252.0001 120.0002 239.9999 108.0001 239.9999 108.0001 252.0001 96 252.0001 96 264 108.0001 264 108.0001 275.9999 120.0002 275.9999"/>
  <polygon class="b" points="180.0002 251.9999 168 251.9999 168 264 180.0002 264 192.0001 264 204.0002 264 204.0002 251.9999 192.0001 251.9999 180.0002 251.9999"/>
  <rect class="b" x="228.0001" y="24.0001" width="11.9999" height="12.0001"/>
  <polygon class="b" points="216.0002 72 216.0002 60.0001 204.0002 60.0001 204.0002 47.9999 192.0001 47.9999 192.0001 36 180.0003 36 168.0002 36 156.0001 36 144.0001 36 132.0002 36 120.0002 36 108.0003 36 108.0003 47.9999 96.0001 47.9999 96.0001 60.0001 84.0002 60.0001 84.0002 72 72.0001 72 72.0001 84 60.0001 84 60.0001 95.9999 48.0002 95.9999 48.0002 108 48.0002 120 48.0002 132.0001 48.0002 144 48.0002 156 48.0002 167.9999 48.0002 180 48.0002 192 48.0002 203.9999 48.0002 216 48.0002 228 60.0001 228 72.0001 228 84.0002 228 96.0001 228 108.0003 228 120.0002 228 120.0002 216 120.0002 203.9999 120.0002 192 120.0002 180 120.0002 167.9999 120.0002 156 120.0002 144 120.0002 132.0001 120.0002 120 132.0002 120 132.0002 108 144.0001 108 156.0001 108 168.0002 108 168.0002 120 180.0003 120 180.0003 132.0001 180.0003 144 180.0003 156 180.0003 167.9999 180.0003 180 180.0003 192 180.0003 203.9999 180.0003 216 180.0003 228 192.0001 228 204.0002 228 216.0002 228 228.0001 228 240.0003 228 252.0002 228 252.0002 216 252.0002 203.9999 252.0002 192 252.0002 180 252.0002 167.9999 252.0002 156 252.0002 144 252.0002 132.0001 252.0002 120 252.0002 108 252.0002 95.9999 240.0003 95.9999 240.0003 84 228.0001 84 228.0001 72 216.0002 72"/>
  <polygon class="b" points="228.0001 275.9999 216 275.9999 204.0002 275.9999 204.0002 287.9999 192.0001 287.9999 180.0002 287.9999 168 287.9999 156.0001 287.9999 144.0001 287.9999 132.0002 287.9999 120 287.9999 108.0001 287.9999 96 287.9999 96 275.9999 84.0002 275.9999 72.0001 275.9999 72.0001 264 59.9999 264 59.9999 276.0001 72.0001 276.0001 72.0001 288.0001 84.0002 288.0001 96 288.0001 96 300 108.0001 300 120 300 132.0002 300 144.0001 300 156.0001 300 168 300 180.0002 300 192.0001 300 204.0002 300 204.0002 288.0001 216 288.0001 228.0001 288.0001 228.0001 276.0001 240.0001 276.0001 240.0001 264 228.0001 264 228.0001 275.9999"/>
  <polygon class="b" points="252 48.0001 252 36.0002 240.0001 36.0002 240.0001 48.0001 240.0001 60.0001 252 60.0001 264.0002 60.0001 264.0002 48.0001 252 48.0001"/>
  <polygon class="b" points="264.0002 72 264.0002 84 275.9999 84 275.9999 72 275.9999 60.0001 264.0002 60.0001 264.0002 72"/>
  <polygon class="b" points="264.0002 228 264.0002 239.9999 275.9999 239.9999 275.9999 228 275.9999 216 264.0002 216 264.0002 228"/>
  <polygon class="b" points="240.0001 239.9999 240.0001 251.9999 240.0001 264 252 264 252 251.9999 264.0002 251.9999 264.0002 239.9999 252 239.9999 240.0001 239.9999"/>
  <polygon class="b" points="288.0001 84.0001 276.0003 84.0001 276.0003 96.0001 276.0003 108 288.0001 108 288.0001 96.0001 288.0001 84.0001"/>
  <polygon class="b" points="288.0001 108 288.0001 120.0002 288.0001 132.0001 288.0001 144 288.0001 156 288.0001 168.0001 288.0001 180 288.0001 192 300 192 300 180 300 168.0001 300 156 300 144 300 132.0001 300 120.0002 300 108 288.0001 108"/>
  <polygon class="b" points="276.0003 203.9999 276.0003 216 288.0001 216 288.0001 203.9999 288.0001 192 276.0003 192 276.0003 203.9999"/>
</svg>