<?xml version="1.0" encoding="utf-8"?>
<svg version="1.1" xmlns="http://www.w3.org/2000/svg" xmlns:xlink="http://www.w3.org/1999/xlink" viewBox="0 0 1111.2 197.4" xml:space="preserve">
  <rect x="776.1" y="45.5" class="st0" width="6.4" height="101.9" />
  <path class="st0" d="M809.2,105.4h31.2c-0.4-16.9-10.5-24.3-21-24.3c-7.6,0-13.9,3.2-18,8.3C798,93.5,794.6,105.4,809.2,105.4
	 M788.4,110.5c0-21.5,12-36.1,30.9-36.1c17.2,0,28.6,14.3,28.6,35.5v1.4h-52.4c0,15.2,7.2,31.1,24.6,31.1c9.9,0,18.3-5.9,20-18.3
	h6.9c-2.2,16.7-13.6,24.8-26.9,24.8C799.3,148.9,788.4,132.4,788.4,110.5" />
  <path class="st0" d="M861.8,147.5h-6.4V75.9h6.4V147.5z M858.7,48.8c3,0,5.4,2.6,5.4,5.6s-2.4,5.6-5.4,5.6s-5.6-2.6-5.6-5.6
	S855.7,48.8,858.7,48.8" />
  <path class="st0" d="M901.5,143.3c13.5,0,22.9-10.7,22.9-31.2s-10.9-30.9-22.9-30.9c-14.7,0-23.3,11.7-23.3,30.9
	S886.8,143.3,901.5,143.3 M882,141.3c-1.9-1.9-3.6-0.6-3.6,1.6v4.6H872V45.5h6.4V78c0,4.4,3.4,4.9,6,2.9c4.6-3.6,10.2-6.2,16.5-6.2
	c18.5,0,30.3,14.6,30.3,37.2s-12.2,37.7-30.1,37.7C893.9,149.6,887,146.5,882,141.3" />
  <path class="st0" d="M943.6,75.9v7.4c0,2.9,2.9,3.7,4.7,1.4c2.7-3.4,9.2-10.3,21.8-10.3c10.2,0,20.9,6.6,20.9,21.9v51.1h-6.4v-46.4
	c0-14.2-7.2-20.3-16.2-20.3c-12.7,0-24.8,12.4-24.8,29.6v37.1h-6.4V75.9L943.6,75.9L943.6,75.9z" />
  <path class="st0" d="M1006.3,147.5h-6.4V75.9h6.4V147.5z M1003.1,48.8c3,0,5.4,2.6,5.4,5.6s-2.4,5.6-5.4,5.6s-5.6-2.6-5.6-5.6
	S1000.1,48.8,1003.1,48.8" />
  <path class="st0" d="M1012.9,75.9h56.3v8.6l-38.9,45.4c-3.2,3.7-2.6,11.6,5,11.6h33.9v6h-56.3v-7.6l41.4-48c4-4.6,2.6-10-3-10h-38.4
	L1012.9,75.9L1012.9,75.9z" />
  <path class="st0" d="M718.2,43.7c-14.9,0-27.7,5.9-36.9,15.5l4.1-13.6h-7l-20.9,69.7c-3.2,10.5-12.9,11-16.3,0l-21.8-69.7h-8.5
	L589,115.2c-3.4,10.9-13,10.5-16.2,0l-20.8-69.7h-2.9h-4.3h-56.6h-3.7h0h-3.1l-20.2,73.6c-1.7,6.3-8.3,6.7-10.3-0.1l-23.3-73.4h0
	h-8.6l-26,94.9l-37.4-53l40.9-41.9h-9.4l-49.8,51.5V45.5h-6.9v101.6c-1.7-4.1-2.9-10-4.9-18.7l-4.9-20.8c-1.4-6.3-6.2-9.6-12.5-10
	c6.9-2.1,18.3-9.3,18.3-25.9c0-18-12-26.2-29.8-26.2h-39.1l0,0v36.3c-4.3-23-19.7-38-43.4-38c-17.9,0-31,8.6-38.2,22.6l6.3-20.9h-7
	l-20.9,69.7c-3.2,10.5-12.9,11-16.3,0l-21.8-69.7H108l-21.9,69.7c-3.4,10.9-13,10.5-16.2,0L49.2,45.5H42l0,0l30.8,101.9H83l22.9-73
	c2-6.3,11-6.3,12.9,0l22.8,73h10.2l18.7-62c-0.5,3.4-0.7,6.8-0.7,10.5c0,31.9,16.5,53.7,44.7,53.7c23.7,0,39-16.1,43.4-39.5v37.3
	h6.9v-46.4h37.1c8.5,0,11.5,4.4,12.6,9.9l7.4,36.5h8.7h0h6.9v-41.1l2.6-2.7c6.2-6.6,14-6.4,19.5,1.3l29.8,42.5h2l0,0h6.9l0,0h0l0,0
	l20.3-73.6c1.3-5.3,8.3-6.9,10.5,0l23.2,73.6h8.5l24.2-88.3v88.3h63.1v-6.6h-56.3V95.3h53.4v-6.4h-33.6c-11.3,0-20.3-4.7-20.3-18.6
	v-0.1c0.1-12.9,10.3-18.2,20.3-18.2h35.6l28.8,95.5h10.2l22.9-73c2-6.3,11-6.3,13,0l22.7,73h10.2l12-39.7c3.8,26.1,24.3,46,51.6,46
	h16.5l0,0v-5.8h-16.5c-26.8,0-46.5-22.4-46.5-49.2s19.6-49.2,46.5-49.2s47.6,22.5,47.6,50.8c0,14.9-2.6,26.8-12.5,26.8
	c-4.3,0-8.4-3.3-8.4-11.5V64.9h-6.2v9.8c-3.9-7-10.7-11.8-22.1-11.8c-17.3,0-29.5,13.4-29.5,33.9c0,20.5,12.2,34.7,29.5,34.7
	c10.8,0,18-5.5,22.1-13.7c0.3,9.4,7,14.7,14.8,14.7c16.5,0,18.4-17.3,18.4-32.5C771.9,68.3,748.6,43.7,718.2,43.7z M214.4,142.7
	c-20,0-37.5-15.8-37.5-46.7c0-30.9,17.5-45.4,37.5-45.4s37.5,14.9,37.5,45.4C251.9,126.6,234.4,142.7,214.4,142.7z M294.1,94.3h-5.4
	c-12.7,0-23.2-5.3-23.2-21.3v-0.1c0.1-13.9,11.7-20.8,23.2-20.8h7.6c12.5,0,22.8,5.4,22.8,20.9C319,87.6,308.6,94.3,294.1,94.3z
	 M717.4,125.9c-14.4,0-23.5-10.5-23.5-28.9c0-18.4,10.5-28.6,23.5-28.6c14.2,0,21.8,10.1,21.8,28.6
	C739.2,115.6,730.2,125.9,717.4,125.9z" />
</svg>