<svg width="295" height="273" viewBox="0 0 295 273" fill="none" xmlns="http://www.w3.org/2000/svg">
<g clip-path="url(#clip0_1_5003)">
<path d="M294.07 81.4547C294.07 62.6447 286.97 44.7447 274.08 31.0547C260.03 16.1347 241.02 7.91475 220.53 7.91475H220.52C198.9 7.91475 179.43 17.3047 165.96 32.2147L157.25 27.0547L177.74 15.3147L166.47 8.05475L136.91 14.9847L122.14 6.23475C121.25 5.70475 120.18 5.08475 118.93 4.41475C112.66 1.08475 108 -0.0252545 104.66 1.01475C102.94 1.55475 101.6 2.68475 100.76 4.29475C99.2 7.30475 100.1 10.7847 100.92 13.1247C102.41 17.4347 106.07 20.1147 108.69 21.7547C110.39 22.8147 112.14 23.8447 113.82 24.8447C115.56 25.8747 117.36 26.9447 119.1 28.0347L119.97 28.5847L132.18 69.4947L144.08 75.6647V42.7847L155.08 47.9847C150.2 57.4847 147.33 68.1747 147.03 79.5047H32.45C28.27 79.5047 24.89 82.8947 24.89 87.0647V197.765L0 259.815V272.105H247.36V259.815L222.48 197.755V154.935C262.13 153.905 294.07 121.355 294.07 81.4547Z" fill="black"/>
<path d="M102.59 130.145C95.52 130.145 89.77 124.395 89.77 117.325C89.77 116.225 90.67 115.325 91.77 115.325C92.87 115.325 93.77 116.225 93.77 117.325C93.77 122.185 97.73 126.145 102.59 126.145C107.45 126.145 111.41 122.185 111.41 117.325C111.41 116.225 112.31 115.325 113.41 115.325C114.51 115.325 115.41 116.225 115.41 117.325C115.41 124.395 109.66 130.145 102.59 130.145Z" fill="white"/>
<path d="M141.64 130.145C134.57 130.145 128.82 124.395 128.82 117.325C128.82 116.225 129.72 115.325 130.82 115.325C131.92 115.325 132.82 116.225 132.82 117.325C132.82 122.185 136.78 126.145 141.64 126.145C146.5 126.145 150.46 122.185 150.46 117.325C150.46 116.225 151.36 115.325 152.46 115.325C153.56 115.325 154.46 116.225 154.46 117.325C154.46 124.395 148.71 130.145 141.64 130.145Z" fill="white"/>
<path d="M122.47 169.765C106.67 169.765 93.8199 156.915 93.8199 141.115C93.8199 140.015 94.7199 139.115 95.8199 139.115C96.9199 139.115 97.8199 140.015 97.8199 141.115C97.8199 154.705 108.88 165.765 122.47 165.765C136.06 165.765 147.12 154.705 147.12 141.115C147.12 140.015 148.02 139.115 149.12 139.115C150.22 139.115 151.12 140.015 151.12 141.115C151.12 156.915 138.27 169.765 122.47 169.765Z" fill="white"/>
<path d="M294.07 81.4547C294.07 62.6447 286.97 44.7447 274.08 31.0547C260.03 16.1347 241.02 7.91475 220.53 7.91475H220.52C198.9 7.91475 179.44 17.3247 165.99 32.2347L157.26 27.0547L177.75 15.3147L166.48 8.05475L136.92 14.9847L122.14 6.23475C121.25 5.70475 120.18 5.08475 118.93 4.41475C112.66 1.08475 108 -0.0252545 104.66 1.01475C102.94 1.55475 101.6 2.68475 100.76 4.29475C99.2 7.30475 100.1 10.7847 100.92 13.1247C102.41 17.4347 106.07 20.1147 108.69 21.7547C110.39 22.8147 112.14 23.8447 113.82 24.8447C115.56 25.8747 117.36 26.9447 119.1 28.0347L119.97 28.5847L132.18 69.4947L144.08 75.6647V42.7847L155.09 47.9847C150.21 57.4847 147.34 68.1747 147.04 79.4947H32.45C28.27 79.4947 24.89 82.8847 24.89 87.0547V197.755L0 259.815V272.105H247.36V259.815L222.48 197.755V154.935C262.13 153.905 294.07 121.355 294.07 81.4547ZM236.84 149.045C241.68 145.325 246.11 139.925 249.89 133.005C257.16 119.675 261.27 102.155 261.54 83.4647H290.02C289.11 115.295 266.72 141.835 236.84 149.045ZM271.17 33.7947C282.9 46.2547 289.54 62.4047 290.03 79.4547H261.55C261.28 61.5747 257.48 44.6147 250.74 31.5047C246.77 23.7847 242.05 17.8347 236.84 13.8347C249.86 16.9347 261.71 23.7447 271.17 33.7947ZM222.53 12.0347C231.76 13.0047 240.65 20.6447 247.17 33.3447C253.62 45.9047 257.27 62.2147 257.54 79.4647H222.53V12.0347ZM222.53 83.4547H257.54C256.99 119.615 241.67 148.955 222.53 150.885V83.4547ZM204.21 13.8747C199.37 17.5947 194.95 22.9847 191.17 29.9147C190.74 30.6947 190.33 31.4947 189.92 32.3047L175.48 37.8647L169.5 34.3147C178.66 24.4047 190.66 17.1447 204.21 13.8747ZM165.73 12.3447L170.04 15.1147L153.3 24.7147L141.88 17.9347L165.73 12.3447ZM140.09 36.4647V69.0747L135.54 66.7147L123.38 25.9847L121.23 24.6347C119.45 23.5147 117.63 22.4347 115.86 21.3947C114.19 20.4047 112.47 19.3947 110.81 18.3547C107.41 16.2347 105.53 14.2147 104.7 11.8047C104.13 10.1547 103.47 7.76475 104.32 6.11475C104.66 5.44475 105.15 5.03475 105.85 4.81475C107.11 4.42475 110.23 4.30475 117.04 7.93475C118.21 8.55475 119.24 9.15475 120.09 9.66475L131.29 16.3047L136.25 19.2447L149.31 26.9847L153.26 29.3247L163.34 35.3047L166.8 37.3547L175.1 42.2747L187.54 37.4847L191.68 35.8947L192.37 36.3247L194.74 37.7947L190.39 41.0647L184.71 45.3347L174.74 52.8347L160.64 46.1747L157.02 44.4647L140.09 36.4647ZM158.72 49.6947L175.23 57.4947L182.97 51.6747C180.85 60.3347 179.66 69.7347 179.52 79.4547H151.06C151.35 68.7547 154.09 58.6647 158.72 49.6947ZM100.02 253.675L104.56 238.065H142.81L147.35 253.675H100.02ZM205.84 145.265V153.515V190.045H41.52V93.8347H148.06H152.14H180.07H184.09H205.84V145.265ZM218.53 79.4547H183.51C183.68 67.9947 185.35 57.2147 188.14 47.7747L201.84 37.4847L194.14 32.7247C200.43 20.7247 209.01 12.9747 218.53 12.0247V79.4547Z" fill="white"/>
</g>
<defs>
<clipPath id="clip0_1_5003">
<rect width="294.07" height="271.48" fill="white" transform="translate(0 0.634766)"/>
</clipPath>
</defs>
</svg>
