<svg width="279" height="283" viewBox="0 0 279 283" fill="none" xmlns="http://www.w3.org/2000/svg">
<g clip-path="url(#clip0_1_4775)">
<path d="M61.69 214.645C61.69 214.115 61.48 213.605 61.1 213.225L50.47 202.595C52.04 202.245 53.48 201.465 54.64 200.295L58.58 196.355C59.77 195.165 60.52 193.715 60.87 192.195L71.5 202.825C71.88 203.205 72.38 203.415 72.91 203.415C73.44 203.415 73.95 203.205 74.33 202.825L86.68 190.445C87.43 189.685 87.46 188.475 86.74 187.685C85.66 186.505 60.14 158.735 42.93 158.345C39.88 158.275 37.22 159.055 35 160.655L18.58 144.235C15.23 140.895 9.79 140.885 6.45 144.235L2.51 148.175C0.89 149.795 0 151.945 0 154.235C0 156.525 0.89 158.685 2.51 160.305L18.93 176.725C17.33 178.945 16.54 181.595 16.61 184.665C17 201.865 44.77 227.395 45.95 228.475C46.33 228.825 46.82 228.995 47.3 228.995C47.81 228.995 48.32 228.795 48.71 228.415L61.09 216.065C61.48 215.685 61.69 215.175 61.69 214.645Z" fill="black"/>
<path d="M138.19 263.825L121.77 247.405C123.36 245.195 124.15 242.535 124.08 239.475C123.69 222.275 95.92 196.745 94.74 195.665C93.95 194.945 92.74 194.975 91.98 195.725L79.6 208.075C79.22 208.455 79.01 208.955 79.01 209.495C79.01 210.035 79.22 210.535 79.6 210.915L90.23 221.545C88.7 221.895 87.25 222.645 86.07 223.835L82.13 227.775C80.97 228.935 80.18 230.385 79.83 231.945L69.2 221.315C68.82 220.935 68.32 220.725 67.79 220.725C67.26 220.725 66.75 220.935 66.37 221.315L54 233.695C53.25 234.455 53.22 235.665 53.94 236.455C55.02 237.635 80.54 265.395 97.75 265.795C97.88 265.795 98 265.795 98.13 265.795C101.04 265.795 103.57 265.005 105.69 263.475L122.11 279.895C123.73 281.515 125.88 282.405 128.18 282.405C130.47 282.405 132.63 281.515 134.25 279.895L138.19 275.955C141.53 272.615 141.53 267.165 138.19 263.825Z" fill="black"/>
<path d="M37.81 241.765L30.25 249.325C29.47 250.105 29.47 251.375 30.25 252.155C30.64 252.545 31.15 252.745 31.66 252.745C32.17 252.745 32.68 252.545 33.07 252.155L40.63 244.595C41.41 243.815 41.41 242.545 40.63 241.765C39.85 240.985 38.59 240.985 37.81 241.765Z" fill="black"/>
<path d="M35.65 225.885C35.65 224.785 34.75 223.885 33.65 223.885H22.95C21.85 223.885 20.95 224.785 20.95 225.885C20.95 226.985 21.85 227.885 22.95 227.885H33.65C34.76 227.885 35.65 226.985 35.65 225.885Z" fill="black"/>
<path d="M56.51 246.735C55.41 246.735 54.51 247.635 54.51 248.735V259.435C54.51 260.535 55.41 261.435 56.51 261.435C57.61 261.435 58.51 260.535 58.51 259.435V248.735C58.51 247.635 57.61 246.735 56.51 246.735Z" fill="black"/>
<path d="M78.24 198.905C80.02 200.645 81.86 202.315 83.76 203.925L79.59 208.085C79.21 208.465 79 208.965 79 209.505C79 210.045 79.21 210.545 79.59 210.925L90.22 221.555C88.69 221.905 87.24 222.655 86.06 223.845L82.12 227.785C80.96 228.945 80.17 230.395 79.82 231.955L69.19 221.325C68.81 220.945 68.31 220.735 67.78 220.735C67.25 220.735 66.74 220.945 66.36 221.325L54 233.695C53.25 234.455 53.22 235.665 53.94 236.455C55.02 237.635 80.54 265.395 97.75 265.795C97.88 265.795 98 265.795 98.13 265.795C101.04 265.795 103.57 265.005 105.69 263.475L122.11 279.895C123.73 281.515 125.88 282.405 128.18 282.405C130.47 282.405 132.63 281.515 134.25 279.895L138.19 275.955C141.54 272.605 141.54 267.165 138.19 263.825L126.97 252.605C133.97 253.785 141 254.365 148 254.365C181.25 254.365 213.74 241.315 237.85 217.205C238.63 216.425 238.63 215.155 237.85 214.375C237.07 213.595 235.8 213.595 235.02 214.375C205.37 244.025 162.62 256.395 121.92 247.545L121.77 247.395C123.36 245.185 124.15 242.525 124.08 239.465C123.96 234.355 121.42 228.515 117.89 222.795C127.47 225.845 137.67 227.505 148.25 227.505C203.48 227.505 248.41 182.575 248.41 127.345C248.41 101.725 238.74 77.3348 221.18 58.6948C202.05 38.3748 176.14 27.1848 148.25 27.1848C93.02 27.1848 48.09 72.1148 48.09 127.345C48.09 139.325 50.21 150.815 54.08 161.475C50.21 159.615 46.41 158.415 42.95 158.345C39.9 158.275 37.24 159.055 35.02 160.655L28.01 153.645C22.41 127.915 25.16 100.795 36.31 76.4148L51.25 86.0748L53.24 46.2448L17.74 64.4248L32.91 74.2248C22.06 97.6848 18.74 123.625 22.95 148.595L18.59 144.235C15.24 140.895 9.8 140.885 6.46 144.235L2.52 148.175C0.89 149.795 0 151.945 0 154.235C0 156.525 0.89 158.685 2.51 160.305L18.93 176.725C17.33 178.945 16.54 181.595 16.61 184.665C17 201.865 44.77 227.395 45.95 228.475C46.33 228.825 46.82 228.995 47.3 228.995C47.81 228.995 48.32 228.795 48.71 228.415L61.09 216.065C61.47 215.685 61.68 215.185 61.68 214.645C61.68 214.105 61.47 213.605 61.09 213.225L50.46 202.595C52.03 202.245 53.47 201.465 54.63 200.295L58.57 196.355C59.76 195.165 60.51 193.715 60.86 192.195L71.49 202.825C71.87 203.205 72.37 203.415 72.9 203.415C73.43 203.415 73.94 203.205 74.32 202.825L78.24 198.905ZM56.86 214.635L47.27 224.205C41.66 218.815 20.93 198.035 20.62 184.565C20.58 182.635 20.97 180.995 21.81 179.595L42.51 200.295C42.53 200.315 42.56 200.345 42.59 200.365L56.86 214.635ZM55.76 193.525L51.82 197.465C50.95 198.335 49.8 198.805 48.58 198.805C47.37 198.805 46.24 198.335 45.38 197.495L23.06 175.175C23.06 175.175 23.05 175.175 23.05 175.165L5.35 157.465C4.48 156.615 4 155.465 4 154.235C4 153.015 4.48 151.865 5.34 150.995L9.28 147.055C10.17 146.165 11.35 145.715 12.52 145.715C13.69 145.715 14.87 146.165 15.76 147.055L33.37 164.665C33.4 164.705 33.43 164.745 33.47 164.785L55.89 187.205C57.53 188.995 57.5 191.795 55.76 193.525ZM72.92 198.585L58.85 184.515C58.76 184.415 58.68 184.315 58.59 184.225L37.89 163.525C39.29 162.685 40.94 162.285 42.85 162.345C56.32 162.655 77.1 183.375 82.49 188.995L72.92 198.585ZM83.83 209.505L93.42 199.935C99.03 205.325 119.76 226.105 120.07 239.565C120.11 241.485 119.72 243.125 118.89 244.525L98.19 223.825C98.1 223.735 97.99 223.645 97.9 223.555L83.83 209.505ZM97.84 261.795C84.37 261.485 63.59 240.765 58.2 235.145L67.77 225.555L82.04 239.825C82.06 239.855 82.09 239.875 82.11 239.905L102.81 260.605C101.41 261.455 99.76 261.845 97.84 261.795ZM135.36 266.655C137.15 268.445 137.15 271.345 135.36 273.135L131.42 277.075C130.55 277.945 129.4 278.415 128.18 278.415C126.96 278.415 125.81 277.935 124.94 277.075L107.24 259.375L107.23 259.365L84.91 237.035C84.07 236.175 83.6 235.045 83.6 233.835C83.6 232.615 84.08 231.465 84.94 230.595L88.88 226.655C89.77 225.765 90.95 225.315 92.12 225.315C93.23 225.315 94.33 225.735 95.21 226.535L117.63 248.955C117.67 248.995 117.71 249.015 117.75 249.055L135.36 266.655Z" fill="white"/>
<path d="M260.33 177.665L245.39 168.135L243.62 207.985L279.01 189.605L263.73 179.855C270.58 164.685 274.46 148.025 274.96 131.325C276.02 95.9848 262.84 62.7548 237.85 37.7548C188.86 -11.2352 109.45 -11.7152 59.86 36.3048C59.04 37.0948 59.04 38.4148 59.85 39.2148C60.61 39.9748 61.83 39.9748 62.6 39.2248C110.62 -7.33524 187.57 -6.87523 235.03 40.5848C259.24 64.7948 272 96.9748 270.97 131.205C270.48 147.175 266.82 163.115 260.33 177.665Z" fill="white"/>
<path d="M198.55 155.385L150.22 126.105V77.3448C150.22 76.2448 149.32 75.3448 148.22 75.3448C147.12 75.3448 146.22 76.2448 146.22 77.3448V127.235C146.22 127.935 146.59 128.585 147.18 128.945L196.47 158.815C196.79 159.015 197.15 159.105 197.5 159.105C198.18 159.105 198.84 158.765 199.21 158.145C199.79 157.195 199.49 155.965 198.55 155.385Z" fill="black"/>
<path d="M183.09 66.9848C183.41 67.1648 183.75 67.2548 184.09 67.2548C184.78 67.2548 185.45 66.8948 185.82 66.2548L192.21 55.1848C192.76 54.2248 192.43 53.0048 191.48 52.4548C190.52 51.8948 189.3 52.2348 188.75 53.1848L182.36 64.2548C181.8 65.2048 182.13 66.4248 183.09 66.9848Z" fill="black"/>
<path d="M113.38 187.715C112.42 187.165 111.2 187.495 110.65 188.445L104.26 199.515C103.71 200.475 104.04 201.695 104.99 202.245C105.3 202.425 105.65 202.515 105.99 202.515C106.68 202.515 107.35 202.155 107.72 201.515L114.11 190.445C114.67 189.495 114.34 188.275 113.38 187.715Z" fill="black"/>
<path d="M210.34 93.4948C210.68 93.4948 211.02 93.4048 211.34 93.2248L222.41 86.8348C223.37 86.2848 223.69 85.0548 223.14 84.1048C222.59 83.1448 221.37 82.8148 220.41 83.3748L209.34 89.7648C208.38 90.3148 208.06 91.5448 208.61 92.4948C208.97 93.1348 209.65 93.4948 210.34 93.4948Z" fill="black"/>
<path d="M85.1299 161.475L74.0599 167.865C73.0999 168.415 72.7799 169.645 73.3299 170.595C73.6999 171.235 74.3699 171.595 75.0599 171.595C75.3999 171.595 75.7399 171.505 76.0599 171.325L87.1299 164.935C88.0899 164.385 88.4099 163.155 87.8599 162.205C87.3099 161.245 86.0899 160.915 85.1299 161.475Z" fill="black"/>
<path d="M222.41 167.865L211.34 161.475C210.38 160.925 209.16 161.255 208.61 162.205C208.06 163.165 208.39 164.385 209.34 164.935L220.41 171.325C220.73 171.505 221.07 171.595 221.41 171.595C222.1 171.595 222.77 171.235 223.14 170.595C223.69 169.645 223.37 168.415 222.41 167.865Z" fill="black"/>
<path d="M87.1299 89.7648L76.0599 83.3748C75.0999 82.8248 73.88 83.1548 73.33 84.1048C72.78 85.0648 73.1099 86.2848 74.0599 86.8348L85.1299 93.2248C85.4399 93.4048 85.7899 93.4948 86.1299 93.4948C86.8199 93.4948 87.49 93.1348 87.86 92.4948C88.42 91.5348 88.0899 90.3148 87.1299 89.7648Z" fill="black"/>
<path d="M185.82 188.455C185.27 187.495 184.04 187.165 183.09 187.725C182.13 188.275 181.81 189.505 182.36 190.455L188.75 201.525C189.12 202.165 189.79 202.525 190.48 202.525C190.82 202.525 191.16 202.435 191.48 202.255C192.44 201.705 192.76 200.475 192.21 199.525L185.82 188.455Z" fill="black"/>
<path d="M107.72 53.1748C107.17 52.2148 105.95 51.8848 104.99 52.4448C104.03 52.9948 103.71 54.2248 104.26 55.1748L110.65 66.2448C111.02 66.8848 111.69 67.2448 112.38 67.2448C112.72 67.2448 113.06 67.1548 113.38 66.9748C114.34 66.4248 114.66 65.1948 114.11 64.2448L107.72 53.1748Z" fill="black"/>
<path d="M148.24 55.6448C149.34 55.6448 150.24 54.7448 150.24 53.6448V40.8548C150.24 39.7548 149.34 38.8548 148.24 38.8548C147.14 38.8548 146.24 39.7548 146.24 40.8548V53.6448C146.24 54.7448 147.13 55.6448 148.24 55.6448Z" fill="black"/>
<path d="M148.24 195.055C147.14 195.055 146.24 195.955 146.24 197.055V209.845C146.24 210.945 147.14 211.845 148.24 211.845C149.34 211.845 150.24 210.945 150.24 209.845V197.055C150.24 195.955 149.34 195.055 148.24 195.055Z" fill="black"/>
<path d="M232.73 123.345H219.94C218.84 123.345 217.94 124.245 217.94 125.345C217.94 126.445 218.84 127.345 219.94 127.345H232.73C233.83 127.345 234.73 126.445 234.73 125.345C234.73 124.245 233.83 123.345 232.73 123.345Z" fill="black"/>
<path d="M78.53 125.345C78.53 124.245 77.63 123.345 76.53 123.345H63.74C62.64 123.345 61.74 124.245 61.74 125.345C61.74 126.445 62.64 127.345 63.74 127.345H76.53C77.63 127.345 78.53 126.455 78.53 125.345Z" fill="black"/>
</g>
<defs>
<clipPath id="clip0_1_4775">
<rect width="279.01" height="281.78" fill="white" transform="translate(0 0.634766)"/>
</clipPath>
</defs>
</svg>
