<?xml version="1.0" encoding="UTF-8"?>
<svg id="Ebene_2" data-name="Ebene 2" xmlns="http://www.w3.org/2000/svg" viewBox="0 0 1920 622.02949">
  <defs>
    <style>
      .cls-1 {
        stroke: #0d435c;
        stroke-width: 6.27824px;
      }

      .cls-1, .cls-2 {
        fill: none;
        stroke-miterlimit: 10;
      }

      .cls-3 {
        fill: #0d435c;
      }

      .cls-4 {
        fill: #fff;
      }

      .cls-5 {
        fill: #f3f5f7;
      }

      .cls-6, .cls-7 {
        fill: #426b7e;
      }

      .cls-2 {
        stroke: #fac102;
        stroke-width: 8.37099px;
      }

      .cls-7 {
        opacity: .1;
      }
    </style>
  </defs>
  <rect class="cls-5" x="-6.77376" y="-13.25105" width="1937.32" height="649.1703"/>
  <polygon class="cls-7" points="1831.00349 536.27163 595.62392 536.27163 457.34275 380.33137 1831.00349 380.33137 1831.00349 536.27163"/>
  <polygon class="cls-7" points="1821.87538 225.3258 407.72273 225.3258 273.5386 69.38554 1821.87538 69.38554 1821.87538 225.3258"/>
  <polygon class="cls-4" points="1322.25975 381.26606 83.2076 381.26606 83.2076 225.3258 1456.64402 225.3258 1322.25975 381.26606"/>
  <g>
    <path class="cls-6" d="M1257.34863,165.97715h-8.55957l-12.6543-22.21875v22.21875h-8.6084v-35.70703h8.6084l12.62988,22.21875v-22.21875h8.58398v35.70703Z"/>
    <path class="cls-6" d="M1294.28711,148.85899c0,3.48242-.64648,6.56445-1.9375,9.24609-1.29199,2.68164-3.12695,4.74512-5.50586,6.19238-2.37891,1.44629-5.08887,2.16992-8.12988,2.16992s-5.73828-.69824-8.09277-2.09668c-2.35449-1.39746-4.19043-3.39648-5.50586-5.99609-1.31641-2.59961-2.00684-5.58301-2.07227-8.95117v-2.01172c0-3.49805.6416-6.58398,1.9248-9.25781,1.2832-2.67285,3.12305-4.73633,5.51855-6.19238,2.39453-1.45508,5.12109-2.18262,8.17871-2.18262,3.02441,0,5.72168.71973,8.09277,2.1582,2.37012,1.43945,4.21387,3.4873,5.53027,6.14355,1.31543,2.65723,1.98242,5.70215,1.99902,9.13574v1.64258ZM1285.53125,147.3629c0-3.54688-.59277-6.24121-1.77734-8.08008-1.18555-1.83984-2.88184-2.75977-5.08887-2.75977-4.31641,0-6.59766,3.2373-6.84277,9.71191l-.02441,2.62402c0,3.49902.58008,6.18848,1.74121,8.06836,1.16113,1.88086,2.88574,2.82031,5.1748,2.82031,2.17383,0,3.85059-.92285,5.02734-2.77051,1.17773-1.84766,1.77441-4.50488,1.79004-7.9707v-1.64355Z"/>
    <path class="cls-6" d="M1329.80371,165.97715h-8.55957l-12.6543-22.21875v22.21875h-8.6084v-35.70703h8.6084l12.62988,22.21875v-22.21875h8.58398v35.70703Z"/>
    <path class="cls-6" d="M1352.27148,153.76426h-14.73926v-6.37695h14.73926v6.37695Z"/>
    <path class="cls-6" d="M1368.95312,153.86192v12.11523h-8.6084v-35.70703h14.24902c2.73047,0,5.14551.50195,7.24707,1.50781,2.10059,1.00586,3.72754,2.43652,4.87988,4.29199,1.15332,1.85547,1.72949,3.95996,1.72949,6.31445,0,3.48242-1.24707,6.2666-3.74023,8.35059-2.49316,2.08496-5.91406,3.12695-10.26367,3.12695h-5.49316ZM1368.95312,147.21641h5.64062c1.66797,0,2.93848-.41699,3.81348-1.25098s1.3125-2.01074,1.3125-3.53125c0-1.66797-.4502-3-1.34961-3.99805-.89844-.99707-2.125-1.50391-3.67773-1.52051h-5.73926v10.30078Z"/>
    <path class="cls-6" d="M1407.56055,153.34727h-4.66016v12.62988h-8.6084v-35.70703h14.05273c4.23438,0,7.54492.93848,9.93262,2.81641,2.38672,1.87891,3.58008,4.5332,3.58008,7.96191,0,2.4834-.50195,4.54102-1.50781,6.17383-1.00586,1.63379-2.5791,2.95703-4.7207,3.96875l7.45508,14.41797v.36816h-9.2207l-6.30273-12.62988ZM1402.90039,146.7252h5.44434c1.63477,0,2.86523-.42969,3.69141-1.29004.8252-.86133,1.23828-2.06152,1.23828-3.60254,0-1.54004-.41699-2.74902-1.25098-3.62598s-2.05957-1.31543-3.67871-1.31543h-5.44434v9.83398Z"/>
    <path class="cls-6" d="M1458.55176,148.85899c0,3.48242-.64648,6.56445-1.9375,9.24609-1.29199,2.68164-3.12695,4.74512-5.50586,6.19238-2.37891,1.44629-5.08887,2.16992-8.12988,2.16992s-5.73828-.69824-8.09277-2.09668c-2.35449-1.39746-4.19043-3.39648-5.50586-5.99609-1.31641-2.59961-2.00684-5.58301-2.07227-8.95117v-2.01172c0-3.49805.6416-6.58398,1.9248-9.25781,1.2832-2.67285,3.12305-4.73633,5.51855-6.19238,2.39453-1.45508,5.12109-2.18262,8.17871-2.18262,3.02441,0,5.72168.71973,8.09277,2.1582,2.37012,1.43945,4.21387,3.4873,5.53027,6.14355,1.31543,2.65723,1.98242,5.70215,1.99902,9.13574v1.64258ZM1449.7959,147.3629c0-3.54688-.59277-6.24121-1.77734-8.08008-1.18555-1.83984-2.88184-2.75977-5.08887-2.75977-4.31641,0-6.59766,3.2373-6.84277,9.71191l-.02441,2.62402c0,3.49902.58008,6.18848,1.74121,8.06836,1.16113,1.88086,2.88574,2.82031,5.1748,2.82031,2.17383,0,3.85059-.92285,5.02734-2.77051,1.17773-1.84766,1.77441-4.50488,1.79004-7.9707v-1.64355Z"/>
    <path class="cls-6" d="M1472.85352,159.35508h14.98438v6.62207h-23.59277v-35.70703h8.6084v29.08496Z"/>
    <path class="cls-6" d="M1501.89551,165.97715h-8.58398v-35.70703h8.58398v35.70703Z"/>
    <path class="cls-6" d="M1531.62402,151.75255h-13.88086v14.22461h-8.6084v-35.70703h23.88672v6.64551h-15.27832v8.21582h13.88086v6.62109Z"/>
    <path class="cls-6" d="M1560.00391,150.8209h-13.53711v8.53418h15.99023v6.62207h-24.59863v-35.70703h24.64746v6.64551h-16.03906v7.5293h13.53711v6.37598Z"/>
    <path class="cls-6" d="M1580.4873,153.34727h-4.66016v12.62988h-8.6084v-35.70703h14.05273c4.23438,0,7.54492.93848,9.93262,2.81641,2.38672,1.87891,3.58008,4.5332,3.58008,7.96191,0,2.4834-.50195,4.54102-1.50781,6.17383-1.00586,1.63379-2.5791,2.95703-4.7207,3.96875l7.45508,14.41797v.36816h-9.2207l-6.30273-12.62988ZM1575.82715,146.7252h5.44434c1.63477,0,2.86523-.42969,3.69141-1.29004.8252-.86133,1.23828-2.06152,1.23828-3.60254,0-1.54004-.41699-2.74902-1.25098-3.62598s-2.05957-1.31543-3.67871-1.31543h-5.44434v9.83398Z"/>
    <path class="cls-6" d="M1621.52051,159.30626h-11.7959l-2.06055,6.6709h-9.19629l13.0957-35.70703h8.09277l13.19434,35.70703h-9.24609l-2.08398-6.6709ZM1611.78418,152.66075h7.67578l-3.84961-12.38477-3.82617,12.38477Z"/>
    <path class="cls-6" d="M1661.79492,136.91563h-10.71777v29.06152h-8.60742v-29.06152h-10.52148v-6.64551h29.84668v6.64551Z"/>
    <path class="cls-6" d="M1675.85254,165.97715h-8.58398v-35.70703h8.58398v35.70703Z"/>
    <path class="cls-6" d="M1713.33105,148.85899c0,3.48242-.64648,6.56445-1.9375,9.24609-1.29199,2.68164-3.12695,4.74512-5.50586,6.19238-2.37891,1.44629-5.08887,2.16992-8.12988,2.16992s-5.73828-.69824-8.09277-2.09668c-2.35449-1.39746-4.19043-3.39648-5.50586-5.99609-1.31641-2.59961-2.00684-5.58301-2.07227-8.95117v-2.01172c0-3.49805.6416-6.58398,1.9248-9.25781,1.2832-2.67285,3.12305-4.73633,5.51855-6.19238,2.39453-1.45508,5.12109-2.18262,8.17871-2.18262,3.02441,0,5.72168.71973,8.09277,2.1582,2.37012,1.43945,4.21387,3.4873,5.53027,6.14355,1.31543,2.65723,1.98242,5.70215,1.99902,9.13574v1.64258ZM1704.5752,147.3629c0-3.54688-.59277-6.24121-1.77734-8.08008-1.18555-1.83984-2.88184-2.75977-5.08887-2.75977-4.31641,0-6.59766,3.2373-6.84277,9.71191l-.02441,2.62402c0,3.49902.58008,6.18848,1.74121,8.06836,1.16113,1.88086,2.88574,2.82031,5.1748,2.82031,2.17383,0,3.85059-.92285,5.02734-2.77051,1.17773-1.84766,1.77441-4.50488,1.79004-7.9707v-1.64355Z"/>
    <path class="cls-6" d="M1748.84766,165.97715h-8.55957l-12.6543-22.21875v22.21875h-8.6084v-35.70703h8.6084l12.62988,22.21875v-22.21875h8.58398v35.70703Z"/>
  </g>
  <g>
    <path class="cls-3" d="M607.10938,475.85313c-3.24316,0-5.88281-.99512-7.91992-2.98438-2.03613-1.98926-3.05469-4.63867-3.05469-7.9502v-.57227c0-2.2207.42871-4.20605,1.28711-5.95703s2.07422-3.09961,3.64844-4.04688c1.57324-.94629,3.36816-1.41992,5.38477-1.41992,3.02441,0,5.40527.9541,7.14258,2.86133s2.60645,4.6123,2.60645,8.11328v2.41113h-14.08105c.19043,1.44434.76562,2.60254,1.72656,3.47461.95996.87207,2.17676,1.30762,3.64746,1.30762,2.27539,0,4.05371-.82422,5.33496-2.47266l2.90137,3.25c-.88574,1.25293-2.08398,2.23047-3.59668,2.93262-1.5127.70117-3.18848,1.05273-5.02734,1.05273ZM606.43457,457.68419c-1.17188,0-2.12207.39648-2.85059,1.19043-.72949.79395-1.19531,1.92969-1.40039,3.4082h8.21582v-.47266c-.02734-1.31348-.38184-2.33008-1.0625-3.04785-.68164-.71875-1.64844-1.07812-2.90234-1.07812Z"/>
    <path class="cls-3" d="M624.99219,453.33067l.18359,2.55469c1.58008-1.97461,3.69922-2.96289,6.35547-2.96289,2.34375,0,4.08789.68848,5.23242,2.06445s1.73047,3.43262,1.75781,6.17188v14.28516h-5.90625v-14.1748c0-1.25684-.27344-2.16797-.81738-2.73535-.5459-.56641-1.45117-.84961-2.71875-.84961-1.66211,0-2.90918.70996-3.74023,2.12988v15.62988h-5.90625v-22.11328h5.55957Z"/>
    <path class="cls-3" d="M644.61133,475.44395v-17.78027h-3.29004v-4.33301h3.29004v-1.87988c0-2.47949.71191-4.4043,2.13574-5.77344s3.41602-2.05371,5.97754-2.05371c.81836,0,1.81934.13477,3.00488.40527l-.06152,4.54004c-.49023-.12207-1.08984-.18359-1.79883-.18359-2.2207,0-3.33105,1.05078-3.33105,3.15332v1.79199h4.39453v4.33301h-4.39453v17.78027h-5.92676Z"/>
    <path class="cls-3" d="M657.07812,464.18321c0-2.19336.42188-4.14844,1.26758-5.86523.84473-1.7168,2.06055-3.04492,3.64746-3.98535s3.42969-1.41016,5.52832-1.41016c2.98438,0,5.41895.91309,7.30664,2.73828,1.88672,1.82617,2.93945,4.30566,3.15723,7.43945l.04102,1.51172c0,3.39258-.94727,6.11426-2.84082,8.16504s-4.43457,3.07617-7.62305,3.07617-5.73242-1.02246-7.63281-3.06641c-1.90137-2.04297-2.85156-4.82227-2.85156-8.33789v-.26562ZM662.98438,464.60215c0,2.10156.39551,3.70898,1.18555,4.82031.79004,1.1123,1.9209,1.66797,3.39258,1.66797,1.43066,0,2.54785-.54883,3.35156-1.64746s1.20605-2.85449,1.20605-5.27051c0-2.06055-.40234-3.65723-1.20605-4.78906-.80371-1.13281-1.93457-1.69922-3.39258-1.69922-1.44434,0-2.56152.56348-3.35156,1.68848-.79004,1.12598-1.18555,2.86914-1.18555,5.22949Z"/>
    <path class="cls-3" d="M694.08984,458.86973c-.80469-.10938-1.5127-.16406-2.12598-.16406-2.23438,0-3.69824.75684-4.39355,2.26855v14.46973h-5.90625v-22.11328h5.5791l.16406,2.63672c1.18457-2.03027,2.82617-3.04492,4.9248-3.04492.6543,0,1.26758.08887,1.83984.26562l-.08203,5.68164Z"/>
    <path class="cls-3" d="M705.73828,471.09044c1.08984,0,1.97559-.29883,2.65723-.89844.68066-.59961,1.03516-1.39648,1.0625-2.3916h5.53809c-.01367,1.49902-.42188,2.87109-1.22559,4.11816-.80469,1.24707-1.9043,2.21387-3.30078,2.90234-1.39648.6875-2.93945,1.03223-4.62891,1.03223-3.16113,0-5.6543-1.00488-7.48047-3.01465-1.8252-2.00977-2.73828-4.78613-2.73828-8.32812v-.38867c0-3.40625.90625-6.12402,2.71875-8.1543,1.81152-2.03027,4.29785-3.04492,7.45898-3.04492,2.76562,0,4.9834.78711,6.65234,2.36035s2.5166,3.66895,2.54395,6.28418h-5.53809c-.02734-1.15039-.38184-2.08496-1.0625-2.80371-.68164-.71973-1.58105-1.0791-2.69824-1.0791-1.37598,0-2.41504.50195-3.11621,1.50391-.70215,1.00391-1.05273,2.63086-1.05273,4.88184v.61426c0,2.2793.34766,3.91699,1.04297,4.91211.69434.99707,1.75,1.49414,3.16699,1.49414Z"/>
    <path class="cls-3" d="M728.54688,475.85313c-3.24316,0-5.88281-.99512-7.91992-2.98438-2.03613-1.98926-3.05469-4.63867-3.05469-7.9502v-.57227c0-2.2207.42871-4.20605,1.28711-5.95703s2.07422-3.09961,3.64844-4.04688c1.57324-.94629,3.36816-1.41992,5.38477-1.41992,3.02441,0,5.40527.9541,7.14258,2.86133s2.60645,4.6123,2.60645,8.11328v2.41113h-14.08105c.19043,1.44434.76562,2.60254,1.72656,3.47461.95996.87207,2.17676,1.30762,3.64746,1.30762,2.27539,0,4.05371-.82422,5.33496-2.47266l2.90137,3.25c-.88574,1.25293-2.08398,2.23047-3.59668,2.93262-1.5127.70117-3.18848,1.05273-5.02734,1.05273ZM727.87207,457.68419c-1.17188,0-2.12207.39648-2.85059,1.19043-.72949.79395-1.19531,1.92969-1.40039,3.4082h8.21582v-.47266c-.02734-1.31348-.38184-2.33008-1.0625-3.04785-.68164-.71875-1.64844-1.07812-2.90234-1.07812Z"/>
    <path class="cls-3" d="M746.53125,453.33067l.18457,2.47363c1.56641-1.9209,3.68457-2.88184,6.35547-2.88184,2.84766,0,4.80273,1.12402,5.86523,3.37207,1.55371-2.24805,3.76758-3.37207,6.64258-3.37207,2.39746,0,4.18262.69824,5.35449,2.09473,1.1709,1.39648,1.75684,3.49805,1.75684,6.30469v14.12207h-5.92676v-14.13379c0-1.25684-.24512-2.1748-.73535-2.75488-.49023-.58105-1.35547-.87109-2.5957-.87109-1.77148,0-2.99707.84668-3.67871,2.54004l.02051,15.21973h-5.90625v-14.11328c0-1.28418-.25195-2.21289-.75586-2.78613s-1.3623-.86035-2.5752-.86035c-1.67578,0-2.88867.69629-3.6377,2.08984v15.66992h-5.90625v-22.11328h5.53809Z"/>
    <path class="cls-3" d="M787.40527,475.85313c-3.24316,0-5.88281-.99512-7.91992-2.98438-2.03613-1.98926-3.05469-4.63867-3.05469-7.9502v-.57227c0-2.2207.42871-4.20605,1.28711-5.95703s2.07422-3.09961,3.64844-4.04688c1.57324-.94629,3.36816-1.41992,5.38477-1.41992,3.02441,0,5.40527.9541,7.14258,2.86133s2.60645,4.6123,2.60645,8.11328v2.41113h-14.08105c.19043,1.44434.76562,2.60254,1.72656,3.47461.95996.87207,2.17676,1.30762,3.64746,1.30762,2.27539,0,4.05371-.82422,5.33496-2.47266l2.90137,3.25c-.88574,1.25293-2.08398,2.23047-3.59668,2.93262-1.5127.70117-3.18848,1.05273-5.02734,1.05273ZM786.73047,457.68419c-1.17188,0-2.12207.39648-2.85059,1.19043-.72949.79395-1.19531,1.92969-1.40039,3.4082h8.21582v-.47266c-.02734-1.31348-.38184-2.33008-1.0625-3.04785-.68164-.71875-1.64844-1.07812-2.90234-1.07812Z"/>
    <path class="cls-3" d="M805.28809,453.33067l.18359,2.55469c1.58008-1.97461,3.69922-2.96289,6.35547-2.96289,2.34375,0,4.08789.68848,5.23242,2.06445s1.73047,3.43262,1.75781,6.17188v14.28516h-5.90625v-14.1748c0-1.25684-.27344-2.16797-.81738-2.73535-.5459-.56641-1.45117-.84961-2.71875-.84961-1.66211,0-2.90918.70996-3.74023,2.12988v15.62988h-5.90625v-22.11328h5.55957Z"/>
    <path class="cls-3" d="M830.36426,447.89512v5.43555h3.78027v4.33301h-3.78027v11.03613c0,.81738.15625,1.40332.46973,1.75781s.91309.53125,1.79883.53125c.65332,0,1.23242-.04785,1.7373-.14355v4.47559c-1.1582.35449-2.35059.53223-3.57715.53223-4.1416,0-6.25293-2.0918-6.33496-6.27441v-11.91504h-3.22949v-4.33301h3.22949v-5.43555h5.90625Z"/>
  </g>
  <g>
    <path class="cls-3" d="M1013.05859,470.19786l4.10742-14.89941h6.17188l-7.45898,22.11328h-5.64062l-7.45996-22.11328h6.17188l4.1084,14.89941Z"/>
    <path class="cls-3" d="M1035.8457,477.8209c-3.24316,0-5.88281-.99512-7.91992-2.98438-2.03613-1.98926-3.05469-4.63867-3.05469-7.9502v-.57227c0-2.2207.42871-4.20605,1.28711-5.95703s2.07422-3.09961,3.64844-4.04688c1.57324-.94629,3.36816-1.41992,5.38477-1.41992,3.02441,0,5.40527.9541,7.14258,2.86133s2.60645,4.6123,2.60645,8.11328v2.41113h-14.08105c.19043,1.44434.76562,2.60254,1.72656,3.47461.95996.87207,2.17676,1.30762,3.64746,1.30762,2.27539,0,4.05371-.82422,5.33496-2.47266l2.90137,3.25c-.88574,1.25293-2.08398,2.23047-3.59668,2.93262-1.5127.70117-3.18848,1.05273-5.02734,1.05273ZM1035.1709,459.65196c-1.17188,0-2.12207.39648-2.85059,1.19043-.72949.79395-1.19531,1.92969-1.40039,3.4082h8.21582v-.47266c-.02734-1.31348-.38184-2.33008-1.0625-3.04785-.68164-.71875-1.64844-1.07812-2.90234-1.07812Z"/>
    <path class="cls-3" d="M1060.71777,460.83751c-.80469-.10938-1.5127-.16406-2.12598-.16406-2.23438,0-3.69824.75684-4.39355,2.26855v14.46973h-5.90625v-22.11328h5.5791l.16406,2.63672c1.18457-2.03027,2.82617-3.04492,4.9248-3.04492.6543,0,1.26758.08887,1.83984.26562l-.08203,5.68164Z"/>
    <path class="cls-3" d="M1063.51758,449.57676c0-.88574.29688-1.61426.88867-2.18652.59277-.57227,1.40039-.8584,2.42188-.8584,1.00879,0,1.8125.28613,2.41211.8584s.89941,1.30078.89941,2.18652c0,.89941-.30371,1.63477-.91016,2.20703s-1.40625.8584-2.40137.8584c-.99414,0-1.79492-.28613-2.40137-.8584s-.90918-1.30762-.90918-2.20703ZM1069.79199,477.41172h-5.92676v-22.11328h5.92676v22.11328Z"/>
    <path class="cls-3" d="M1076.27051,477.41172v-17.78027h-3.29004v-4.33301h3.29004v-1.87988c0-2.47949.71191-4.4043,2.13574-5.77344s3.41602-2.05371,5.97754-2.05371c.81836,0,1.81934.13477,3.00488.40527l-.06152,4.54004c-.49023-.12207-1.08984-.18359-1.79883-.18359-2.2207,0-3.33105,1.05078-3.33105,3.15332v1.79199h4.39453v4.33301h-4.39453v17.78027h-5.92676Z"/>
    <path class="cls-3" d="M1089.61621,449.57676c0-.88574.29688-1.61426.88867-2.18652.59277-.57227,1.40039-.8584,2.42188-.8584,1.00879,0,1.8125.28613,2.41211.8584s.89941,1.30078.89941,2.18652c0,.89941-.30371,1.63477-.91016,2.20703s-1.40625.8584-2.40137.8584c-.99414,0-1.79492-.28613-2.40137-.8584s-.90918-1.30762-.90918-2.20703ZM1095.89062,477.41172h-5.92676v-22.11328h5.92676v22.11328Z"/>
    <path class="cls-3" d="M1109.95117,473.05821c1.08984,0,1.97559-.29883,2.65723-.89844.68066-.59961,1.03516-1.39648,1.0625-2.3916h5.53809c-.01367,1.49902-.42188,2.87109-1.22559,4.11816-.80469,1.24707-1.9043,2.21387-3.30078,2.90234-1.39648.6875-2.93945,1.03223-4.62891,1.03223-3.16113,0-5.6543-1.00488-7.48047-3.01465-1.8252-2.00977-2.73828-4.78613-2.73828-8.32812v-.38867c0-3.40625.90625-6.12402,2.71875-8.1543,1.81152-2.03027,4.29785-3.04492,7.45898-3.04492,2.76562,0,4.9834.78711,6.65234,2.36035s2.5166,3.66895,2.54395,6.28418h-5.53809c-.02734-1.15039-.38184-2.08496-1.0625-2.80371-.68164-.71973-1.58105-1.0791-2.69824-1.0791-1.37598,0-2.41504.50195-3.11621,1.50391-.70215,1.00391-1.05273,2.63086-1.05273,4.88184v.61426c0,2.2793.34766,3.91699,1.04297,4.91211.69434.99707,1.75,1.49414,3.16699,1.49414Z"/>
    <path class="cls-3" d="M1135.39551,477.41172c-.27246-.53125-.46973-1.19238-.5918-1.98242-1.43066,1.59375-3.29102,2.3916-5.58008,2.3916-2.16602,0-3.96094-.62695-5.38477-1.88086-1.42383-1.25293-2.13574-2.83398-2.13574-4.74121,0-2.34277.86816-4.1416,2.60547-5.39551,1.7373-1.25293,4.24805-1.88672,7.53125-1.90039h2.71777v-1.26758c0-1.02148-.26172-1.83887-.78613-2.45215-.52539-.61328-1.35254-.91992-2.4834-.91992-.99512,0-1.77441.23926-2.33984.71582s-.84863,1.13086-.84863,1.96191h-5.90625c0-1.28027.39551-2.46582,1.18555-3.55566s1.90723-1.94531,3.35156-2.56543,3.06543-.92969,4.86426-.92969c2.72461,0,4.8877.68457,6.48828,2.05371,1.60156,1.36914,2.40137,3.29395,2.40137,5.77344v9.58496c.01367,2.09863.30664,3.68555.87891,4.76172v.34766h-5.96777ZM1130.51172,473.3043c.87109,0,1.67578-.19434,2.41113-.58301.73633-.3877,1.28027-.90918,1.63477-1.56348v-3.80078h-2.20703c-2.95605,0-4.53027,1.02148-4.7207,3.06543l-.02051.34766c0,.73535.25879,1.3418.77637,1.81836.51758.47754,1.22656.71582,2.12598.71582Z"/>
    <path class="cls-3" d="M1152.09277,449.8629v5.43555h3.78027v4.33301h-3.78027v11.03613c0,.81738.15625,1.40332.46973,1.75781s.91309.53125,1.79883.53125c.65332,0,1.23242-.04785,1.7373-.14355v4.47559c-1.1582.35449-2.35059.53223-3.57715.53223-4.1416,0-6.25293-2.0918-6.33496-6.27441v-11.91504h-3.22949v-4.33301h3.22949v-5.43555h5.90625Z"/>
    <path class="cls-3" d="M1159.12305,449.57676c0-.88574.29688-1.61426.88867-2.18652.59277-.57227,1.40039-.8584,2.42188-.8584,1.00879,0,1.8125.28613,2.41211.8584s.89941,1.30078.89941,2.18652c0,.89941-.30371,1.63477-.91016,2.20703s-1.40625.8584-2.40137.8584c-.99414,0-1.79492-.28613-2.40137-.8584s-.90918-1.30762-.90918-2.20703ZM1165.39746,477.41172h-5.92676v-22.11328h5.92676v22.11328Z"/>
    <path class="cls-3" d="M1169.3418,466.15098c0-2.19336.42188-4.14844,1.26758-5.86523.84473-1.7168,2.06055-3.04492,3.64746-3.98535s3.42969-1.41016,5.52832-1.41016c2.98438,0,5.41895.91309,7.30664,2.73828,1.88672,1.82617,2.93945,4.30566,3.15723,7.43945l.04102,1.51172c0,3.39258-.94727,6.11426-2.84082,8.16504s-4.43457,3.07617-7.62305,3.07617-5.73242-1.02246-7.63281-3.06641c-1.90137-2.04297-2.85156-4.82227-2.85156-8.33789v-.26562ZM1175.24805,466.56993c0,2.10156.39551,3.70898,1.18555,4.82031.79004,1.1123,1.9209,1.66797,3.39258,1.66797,1.43066,0,2.54785-.54883,3.35156-1.64746s1.20605-2.85449,1.20605-5.27051c0-2.06055-.40234-3.65723-1.20605-4.78906-.80371-1.13281-1.93457-1.69922-3.39258-1.69922-1.44434,0-2.56152.56348-3.35156,1.68848-.79004,1.12598-1.18555,2.86914-1.18555,5.22949Z"/>
    <path class="cls-3" d="M1199.36426,455.29844l.18359,2.55469c1.58008-1.97461,3.69922-2.96289,6.35547-2.96289,2.34375,0,4.08789.68848,5.23242,2.06445s1.73047,3.43262,1.75781,6.17188v14.28516h-5.90625v-14.1748c0-1.25684-.27344-2.16797-.81738-2.73535-.5459-.56641-1.45117-.84961-2.71875-.84961-1.66211,0-2.90918.70996-3.74023,2.12988v15.62988h-5.90625v-22.11328h5.55957Z"/>
  </g>
  <g>
    <path class="cls-3" d="M788.57812,265.65489c1.16113,0,2.06055-.31445,2.69824-.94434.6377-.62891.94824-1.50781.93164-2.63672h7.75c0,2.91113-1.04297,5.29785-3.12695,7.16113-2.08496,1.86426-4.77051,2.7959-8.05664,2.7959-3.8584,0-6.89941-1.20996-9.12305-3.62891-2.22363-2.41992-3.33496-5.77148-3.33496-10.05566v-.34277c0-2.68164.49414-5.04785,1.4834-7.10059.98926-2.05078,2.41602-3.62891,4.2793-4.73242,1.86426-1.10352,4.07129-1.65527,6.62207-1.65527,3.44922,0,6.18848.95605,8.21582,2.86914s3.04102,4.50391,3.04102,7.77441h-7.75c0-1.37402-.33496-2.42871-1.00586-3.16406-.66992-.73535-1.56934-1.10352-2.69727-1.10352-2.1416,0-3.39258,1.36523-3.75195,4.0957-.11523.86621-.17188,2.05957-.17188,3.58008,0,2.66504.31836,4.5127.95605,5.54297s1.65137,1.54492,3.04102,1.54492Z"/>
    <path class="cls-3" d="M802.41016,258.02794c0-2.64844.51465-5.00684,1.54492-7.0752s2.50977-3.6582,4.43848-4.77051c1.92969-1.11133,4.19434-1.66699,6.79395-1.66699,3.97266,0,7.10352,1.22949,9.39258,3.69043s3.43359,5.80859,3.43359,10.04297v.29395c0,4.13672-1.14941,7.41895-3.44629,9.84668s-5.40723,3.6416-9.33105,3.6416c-3.77637,0-6.80957-1.13184-9.09863-3.39648s-3.52344-5.33398-3.70312-9.20898l-.02441-1.39746ZM810.6748,258.54258c0,2.45215.38379,4.25098,1.15234,5.39551s1.9043,1.7168,3.40918,1.7168c2.94336,0,4.44727-2.26465,4.5127-6.79297v-.83398c0-4.75781-1.52051-7.13672-4.56152-7.13672-2.76367,0-4.25977,2.05176-4.48828,6.15527l-.02441,1.49609Z"/>
    <path class="cls-3" d="M839.4668,245.00547l.26953,3.11426c1.87988-2.40332,4.40625-3.60449,7.57812-3.60449,3.35156,0,5.61621,1.33203,6.79297,3.99707,1.79883-2.66504,4.39844-3.99707,7.79883-3.99707,5.37891,0,8.14258,3.25293,8.28906,9.75977v17.26562h-8.28906v-16.75c0-1.35742-.22949-2.3457-.68652-2.96777-.45801-.62109-1.29199-.93164-2.50195-.93164-1.63477,0-2.85254.72754-3.65332,2.18262l.02441.34375v18.12305h-8.29004v-16.70117c0-1.38965-.2207-2.39453-.66211-3.0166-.44141-.62109-1.2832-.93164-2.52539-.93164-1.58594,0-2.7959.72754-3.62988,2.18262v18.4668h-8.26465v-26.53516h7.75Z"/>
    <path class="cls-3" d="M899.55078,258.46934c0,4.12012-.92773,7.41016-2.7832,9.87109-1.85645,2.46094-4.36133,3.69043-7.5166,3.69043-2.43652,0-4.43945-.89062-6.00879-2.67285v12.38477h-8.26465v-36.7373h7.72559l.24512,2.45215c1.58496-1.96191,3.66992-2.94238,6.25293-2.94238,3.27051,0,5.8125,1.20508,7.62793,3.61719,1.81445,2.41113,2.72168,5.72656,2.72168,9.94434v.39258ZM891.28613,257.95372c0-4.70801-1.37305-7.0625-4.12012-7.0625-1.96191,0-3.27051.70312-3.92383,2.10938v10.44727c.71973,1.4707,2.04395,2.20703,3.97266,2.20703,2.63281,0,3.98926-2.27246,4.07129-6.81836v-.88281Z"/>
    <path class="cls-3" d="M911.91113,271.54063h-8.28906v-37.66992h8.28906v37.66992Z"/>
    <path class="cls-3" d="M916.93848,238.13829c0-1.18359.42578-2.1543,1.27539-2.91113.85059-.75684,1.9541-1.13477,3.31152-1.13477,1.35645,0,2.45996.37793,3.31055,1.13477.84961.75684,1.27539,1.72754,1.27539,2.91113,0,1.18457-.42578,2.15527-1.27539,2.91211-.85059.75586-1.9541,1.13477-3.31055,1.13477-1.35742,0-2.46094-.37891-3.31152-1.13477-.84961-.75684-1.27539-1.72754-1.27539-2.91211ZM925.71875,271.54063h-8.28906v-26.53516h8.28906v26.53516Z"/>
    <path class="cls-3" d="M945.75586,271.54063c-.29492-.53906-.55664-1.33203-.78516-2.37891-1.52051,1.91309-3.64648,2.86914-6.37598,2.86914-2.50195,0-4.62793-.75586-6.37695-2.26855-1.74902-1.51172-2.62402-3.41211-2.62402-5.70117,0-2.87793,1.0625-5.05273,3.18848-6.52441,2.125-1.4707,5.21484-2.20703,9.26953-2.20703h2.55078v-1.4043c0-2.44824-1.05469-3.67188-3.16309-3.67188-1.96191,0-2.94336.96973-2.94336,2.9082h-8.26465c0-2.56348,1.0918-4.64648,3.27441-6.24609,2.18262-1.60059,4.96582-2.40039,8.35059-2.40039,3.38379,0,6.05664.8252,8.01953,2.47656,1.96191,1.65137,2.9668,3.91602,3.01562,6.79297v11.74707c.0332,2.43652.40918,4.30078,1.12891,5.5918v.41699h-8.26465ZM940.58105,266.14512c1.0293,0,1.88379-.2207,2.5625-.66211s1.16504-.93945,1.45898-1.49609v-4.24219h-2.40332c-2.87793,0-4.31641,1.29102-4.31641,3.875,0,.75195.25391,1.36035.76074,1.82617.50684.4668,1.15234.69922,1.9375.69922Z"/>
    <path class="cls-3" d="M965.05664,245.00547l.26953,3.11426c1.83105-2.40332,4.35645-3.60449,7.57812-3.60449,2.7627,0,4.82715.8252,6.19238,2.47656s2.07227,4.13672,2.12109,7.45508v17.09375h-8.28906v-16.75c0-1.34082-.26953-2.32617-.80957-2.95508-.53906-.62988-1.52051-.94434-2.94238-.94434-1.61914,0-2.82031.6377-3.60547,1.91309v18.73633h-8.26465v-26.53516h7.75Z"/>
    <path class="cls-3" d="M997.01074,265.65489c1.16113,0,2.06055-.31445,2.69824-.94434.6377-.62891.94824-1.50781.93164-2.63672h7.75c0,2.91113-1.04297,5.29785-3.12695,7.16113-2.08496,1.86426-4.77051,2.7959-8.05664,2.7959-3.8584,0-6.89941-1.20996-9.12305-3.62891-2.22363-2.41992-3.33496-5.77148-3.33496-10.05566v-.34277c0-2.68164.49414-5.04785,1.4834-7.10059.98926-2.05078,2.41602-3.62891,4.2793-4.73242,1.86426-1.10352,4.07129-1.65527,6.62207-1.65527,3.44922,0,6.18848.95605,8.21582,2.86914s3.04102,4.50391,3.04102,7.77441h-7.75c0-1.37402-.33496-2.42871-1.00586-3.16406-.66992-.73535-1.56934-1.10352-2.69727-1.10352-2.1416,0-3.39258,1.36523-3.75195,4.0957-.11523.86621-.17188,2.05957-.17188,3.58008,0,2.66504.31836,4.5127.95605,5.54297s1.65137,1.54492,3.04102,1.54492Z"/>
    <path class="cls-3" d="M1024.72363,272.03087c-4.07129,0-7.36621-1.21387-9.88379-3.6416s-3.77637-5.58691-3.77637-9.47852v-.68652c0-2.71387.50293-5.10938,1.50781-7.18555,1.00586-2.07617,2.47266-3.68262,4.40234-4.81934,1.92871-1.13672,4.21875-1.7041,6.86719-1.7041,3.72754,0,6.66992,1.15625,8.82812,3.46973s3.2373,5.53906,3.2373,9.6748v3.21289h-16.43066c.29395,1.48828.93945,2.65723,1.9375,3.50684.99707.85059,2.28809,1.27539,3.87402,1.27539,2.61621,0,4.66016-.91602,6.13184-2.74707l3.77637,4.46387c-1.03027,1.42188-2.48926,2.55469-4.37793,3.39648-1.8877.8418-3.91992,1.2627-6.09375,1.2627ZM1023.79199,250.89122c-2.41992,0-3.85938,1.60254-4.31641,4.80664h8.33789v-.6377c.03223-1.32422-.30273-2.34961-1.00586-3.07812-.70312-.72656-1.70801-1.09082-3.01562-1.09082Z"/>
  </g>
  <g>
    <path class="cls-6" d="M151.9541,312.01231h-11.79639l-2.06006,6.6709h-9.19678l13.09619-35.70703h8.09277l13.19434,35.70703h-9.24609l-2.08398-6.6709ZM142.21777,305.3668h7.67627l-3.85059-12.38477-3.82568,12.38477Z"/>
    <path class="cls-6" d="M180.40723,306.05333h-4.66016v12.62988h-8.60742v-35.70703h14.05176c4.23438,0,7.54492.93848,9.93262,2.81641,2.38672,1.87891,3.58008,4.5332,3.58008,7.96191,0,2.4834-.50195,4.54102-1.50781,6.17383-1.00586,1.63379-2.5791,2.95703-4.7207,3.96875l7.45508,14.41797v.36816h-9.2207l-6.30273-12.62988ZM175.74707,299.43126h5.44434c1.63477,0,2.86523-.42969,3.69141-1.29004.8252-.86133,1.23828-2.06152,1.23828-3.60254,0-1.54004-.41699-2.74902-1.25098-3.62598s-2.05957-1.31543-3.67871-1.31543h-5.44434v9.83398Z"/>
    <path class="cls-6" d="M212.46582,282.97618l7.96973,24.84277,7.94629-24.84277h11.33008v35.70703h-8.63281v-8.33789l.83398-17.06934-8.63281,25.40723h-5.68945l-8.65723-25.43164.83398,17.09375v8.33789h-8.6084v-35.70703h11.30664Z"/>
    <path class="cls-6" d="M264.85352,309.192c0-1.25879-.44531-2.23926-1.33594-2.94238-.8916-.70312-2.45703-1.43066-4.69727-2.18262-2.23926-.75195-4.07031-1.47949-5.49316-2.18262-4.62695-2.27246-6.94043-5.39551-6.94043-9.36914,0-1.97754.57617-3.72266,1.72949-5.23535,1.15234-1.5127,2.7832-2.68945,4.89258-3.53125,2.1084-.84277,4.47949-1.26367,7.11133-1.26367,2.56738,0,4.86816.45801,6.9043,1.37402,2.03516.91504,3.61719,2.21875,4.74512,3.91113s1.69238,3.62598,1.69238,5.7998h-8.58398c0-1.45508-.44531-2.58301-1.33594-3.38379-.8916-.80078-2.09668-1.20215-3.61719-1.20215-1.53711,0-2.75098.33984-3.64258,1.01758-.89062.67871-1.33594,1.54199-1.33594,2.58789,0,.91602.49023,1.74512,1.4707,2.48926.98145.74414,2.70605,1.5127,5.1748,2.30469,2.46875.79395,4.49609,1.64746,6.08203,2.56348,3.8584,2.22363,5.78809,5.28906,5.78809,9.19629,0,3.12305-1.17773,5.5752-3.53125,7.35742-2.35449,1.78223-5.58398,2.67285-9.6875,2.67285-2.89355,0-5.51367-.51855-7.86035-1.55664-2.3457-1.03809-4.11133-2.46094-5.29688-4.26758s-1.77832-3.88672-1.77832-6.24121h8.63281c0,1.91211.49414,3.32227,1.4834,4.23047.98926.90723,2.5957,1.36035,4.81934,1.36035,1.42285,0,2.5459-.30566,3.37207-.91895.8252-.61328,1.23828-1.47559,1.23828-2.58789Z"/>
    <path class="cls-6" d="M321.78516,306.59239c-.11426,2.48535-.78418,4.68066-2.01074,6.58496-1.22559,1.90527-2.94727,3.38086-5.16211,4.42676-2.21582,1.04688-4.74512,1.56934-7.59082,1.56934-4.69238,0-8.38672-1.52832-11.08496-4.58594-2.69727-3.05664-4.0459-7.37305-4.0459-12.94922v-1.76562c0-3.49805.6084-6.55957,1.82715-9.18359,1.21777-2.625,2.9707-4.65137,5.25977-6.08203s4.9375-2.14648,7.94629-2.14648c4.33203,0,7.81445,1.14062,10.44727,3.4209,2.63184,2.28125,4.12793,5.4248,4.48828,9.42969h-8.58398c-.06543-2.17383-.61328-3.73535-1.64258-4.68359-1.03027-.94824-2.59961-1.42285-4.70898-1.42285-2.1416,0-3.71191.80176-4.70898,2.40332-.99707,1.60254-1.52051,4.16113-1.56934,7.67676v2.52539c0,3.80957.47852,6.53223,1.43457,8.16699.95703,1.63477,2.60352,2.45215,4.94141,2.45215,1.97852,0,3.49121-.46582,4.53711-1.39746,1.04688-.93262,1.60254-2.41211,1.66797-4.43945h8.55859Z"/>
    <path class="cls-6" d="M357.35156,301.56505c0,3.48242-.64648,6.56445-1.9375,9.24609-1.29199,2.68164-3.12695,4.74512-5.50586,6.19238-2.37891,1.44629-5.08887,2.16992-8.12988,2.16992s-5.73828-.69824-8.09277-2.09668c-2.35449-1.39746-4.19043-3.39648-5.50586-5.99609-1.31641-2.59961-2.00684-5.58301-2.07227-8.95117v-2.01172c0-3.49805.6416-6.58398,1.9248-9.25781,1.2832-2.67285,3.12305-4.73633,5.51855-6.19238,2.39453-1.45508,5.12109-2.18262,8.17871-2.18262,3.02441,0,5.72168.71973,8.09277,2.1582,2.37012,1.43945,4.21387,3.4873,5.53027,6.14355,1.31543,2.65723,1.98242,5.70215,1.99902,9.13574v1.64258ZM348.5957,300.06895c0-3.54688-.59277-6.24121-1.77734-8.08008-1.18555-1.83984-2.88184-2.75977-5.08887-2.75977-4.31641,0-6.59766,3.2373-6.84277,9.71191l-.02441,2.62402c0,3.49902.58008,6.18848,1.74121,8.06836,1.16113,1.88086,2.88574,2.82031,5.1748,2.82031,2.17383,0,3.85059-.92285,5.02734-2.77051,1.17773-1.84766,1.77441-4.50488,1.79004-7.9707v-1.64355Z"/>
    <path class="cls-6" d="M392.86719,318.68321h-8.55957l-12.6543-22.21875v22.21875h-8.6084v-35.70703h8.6084l12.62988,22.21875v-22.21875h8.58398v35.70703Z"/>
    <path class="cls-6" d="M426.8877,289.62169h-10.71777v29.06152h-8.60742v-29.06152h-10.52148v-6.64551h29.84668v6.64551Z"/>
    <path class="cls-6" d="M445.04102,306.05333h-4.66016v12.62988h-8.6084v-35.70703h14.05273c4.23438,0,7.54492.93848,9.93262,2.81641,2.38672,1.87891,3.58008,4.5332,3.58008,7.96191,0,2.4834-.50195,4.54102-1.50781,6.17383-1.00586,1.63379-2.5791,2.95703-4.7207,3.96875l7.45508,14.41797v.36816h-9.2207l-6.30273-12.62988ZM440.38086,299.43126h5.44434c1.63477,0,2.86523-.42969,3.69141-1.29004.8252-.86133,1.23828-2.06152,1.23828-3.60254,0-1.54004-.41699-2.74902-1.25098-3.62598s-2.05957-1.31543-3.67871-1.31543h-5.44434v9.83398Z"/>
    <path class="cls-6" d="M496.03223,301.56505c0,3.48242-.64648,6.56445-1.9375,9.24609-1.29199,2.68164-3.12695,4.74512-5.50586,6.19238-2.37891,1.44629-5.08887,2.16992-8.12988,2.16992s-5.73828-.69824-8.09277-2.09668c-2.35449-1.39746-4.19043-3.39648-5.50586-5.99609-1.31641-2.59961-2.00684-5.58301-2.07227-8.95117v-2.01172c0-3.49805.6416-6.58398,1.9248-9.25781,1.2832-2.67285,3.12305-4.73633,5.51855-6.19238,2.39453-1.45508,5.12109-2.18262,8.17871-2.18262,3.02441,0,5.72168.71973,8.09277,2.1582,2.37012,1.43945,4.21387,3.4873,5.53027,6.14355,1.31543,2.65723,1.98242,5.70215,1.99902,9.13574v1.64258ZM487.27637,300.06895c0-3.54688-.59277-6.24121-1.77734-8.08008-1.18555-1.83984-2.88184-2.75977-5.08887-2.75977-4.31641,0-6.59766,3.2373-6.84277,9.71191l-.02441,2.62402c0,3.49902.58008,6.18848,1.74121,8.06836,1.16113,1.88086,2.88574,2.82031,5.1748,2.82031,2.17383,0,3.85059-.92285,5.02734-2.77051,1.17773-1.84766,1.77441-4.50488,1.79004-7.9707v-1.64355Z"/>
    <path class="cls-6" d="M510.33496,312.06114h14.98438v6.62207h-23.59277v-35.70703h8.6084v29.08496Z"/>
  </g>
  <g>
    <path class="cls-6" d="M1387.80371,473.27305v-35.70703h11.50195c3.15527,0,5.99219.71484,8.51074,2.14551,2.51758,1.43066,4.4834,3.4502,5.89746,6.05762s2.12988,5.53027,2.14648,8.76758v1.64258c0,3.27051-.69141,6.20117-2.07227,8.79199-1.38184,2.5918-3.32812,4.61914-5.83691,6.08203-2.50977,1.46387-5.30957,2.2041-8.39941,2.21973h-11.74805ZM1396.41211,444.21153v22.43945h2.99219c2.46875,0,4.36523-.87793,5.68945-2.63574s1.98633-4.36914,1.98633-7.83594v-1.54492c0-3.44922-.66211-6.04883-1.98633-7.79883-1.32422-1.74902-3.25391-2.62402-5.78809-2.62402h-2.89355Z"/>
    <path class="cls-6" d="M1430.70312,473.27305h-8.58398v-35.70703h8.58398v35.70703Z"/>
    <path class="cls-6" d="M1456.36035,463.78184c0-1.25879-.44531-2.23926-1.33594-2.94238-.8916-.70312-2.45703-1.43066-4.69727-2.18262-2.23926-.75195-4.07031-1.47949-5.49316-2.18262-4.62695-2.27246-6.94043-5.39551-6.94043-9.36914,0-1.97754.57617-3.72266,1.72949-5.23535,1.15234-1.5127,2.7832-2.68945,4.89258-3.53125,2.1084-.84277,4.47949-1.26367,7.11133-1.26367,2.56738,0,4.86816.45801,6.9043,1.37402,2.03516.91504,3.61719,2.21875,4.74512,3.91113s1.69238,3.62598,1.69238,5.7998h-8.58398c0-1.45508-.44531-2.58301-1.33594-3.38379-.8916-.80078-2.09668-1.20215-3.61719-1.20215-1.53711,0-2.75098.33984-3.64258,1.01758-.89062.67871-1.33594,1.54199-1.33594,2.58789,0,.91602.49023,1.74512,1.4707,2.48926.98145.74414,2.70605,1.5127,5.1748,2.30469,2.46875.79395,4.49609,1.64746,6.08203,2.56348,3.8584,2.22363,5.78809,5.28906,5.78809,9.19629,0,3.12305-1.17773,5.5752-3.53125,7.35742-2.35449,1.78223-5.58398,2.67285-9.6875,2.67285-2.89355,0-5.51367-.51855-7.86035-1.55664-2.3457-1.03809-4.11133-2.46094-5.29688-4.26758s-1.77832-3.88672-1.77832-6.24121h8.63281c0,1.91211.49414,3.32227,1.4834,4.23047.98926.90723,2.5957,1.36035,4.81934,1.36035,1.42285,0,2.5459-.30566,3.37207-.91895.8252-.61328,1.23828-1.47559,1.23828-2.58789Z"/>
    <path class="cls-6" d="M1490.91992,466.60215h-11.7959l-2.06055,6.6709h-9.19629l13.0957-35.70703h8.09277l13.19434,35.70703h-9.24609l-2.08398-6.6709ZM1481.18359,459.95665h7.67578l-3.84961-12.38477-3.82617,12.38477Z"/>
    <path class="cls-6" d="M1519.37402,460.64317h-4.66016v12.62988h-8.6084v-35.70703h14.05273c4.23438,0,7.54492.93848,9.93262,2.81641,2.38672,1.87891,3.58008,4.5332,3.58008,7.96191,0,2.4834-.50195,4.54102-1.50781,6.17383-1.00586,1.63379-2.5791,2.95703-4.7207,3.96875l7.45508,14.41797v.36816h-9.2207l-6.30273-12.62988ZM1514.71387,454.0211h5.44434c1.63477,0,2.86523-.42969,3.69141-1.29004.8252-.86133,1.23828-2.06152,1.23828-3.60254,0-1.54004-.41699-2.74902-1.25098-3.62598s-2.05957-1.31543-3.67871-1.31543h-5.44434v9.83398Z"/>
    <path class="cls-6" d="M1551.43262,437.56602l7.96973,24.84277,7.94629-24.84277h11.33008v35.70703h-8.63281v-8.33789l.83398-17.06934-8.63281,25.40723h-5.68945l-8.65723-25.43164.83398,17.09375v8.33789h-8.6084v-35.70703h11.30664Z"/>
    <path class="cls-6" d="M1606.12695,466.60215h-11.7959l-2.06055,6.6709h-9.19629l13.0957-35.70703h8.09277l13.19434,35.70703h-9.24609l-2.08398-6.6709ZM1596.39062,459.95665h7.67578l-3.84961-12.38477-3.82617,12.38477Z"/>
    <path class="cls-6" d="M1632.61816,437.56602l7.96973,24.84277,7.94629-24.84277h11.33008v35.70703h-8.63281v-8.33789l.83398-17.06934-8.63281,25.40723h-5.68945l-8.65723-25.43164.83398,17.09375v8.33789h-8.6084v-35.70703h11.30664Z"/>
    <path class="cls-6" d="M1688.73438,458.1168h-13.53711v8.53418h15.99023v6.62207h-24.59863v-35.70703h24.64746v6.64551h-16.03906v7.5293h13.53711v6.37598Z"/>
    <path class="cls-6" d="M1725.77148,473.27305h-8.55957l-12.6543-22.21875v22.21875h-8.6084v-35.70703h8.6084l12.62988,22.21875v-22.21875h8.58398v35.70703Z"/>
    <path class="cls-6" d="M1759.79199,444.21153h-10.71777v29.06152h-8.60742v-29.06152h-10.52148v-6.64551h29.84668v6.64551Z"/>
  </g>
  <line class="cls-1" x1="716.67122" y1="430.45419" x2="849.70296" y2="298.81271"/>
  <polyline class="cls-1" points="832.61433 299.42227 849.72532 298.81271 850.28113 315.92544"/>
  <polyline class="cls-1" points="733.56153 429.45309 716.46898 430.45419 715.52157 413.35867"/>
  <line class="cls-1" x1="954.29151" y1="298.40332" x2="1085.93299" y2="431.43506"/>
  <polyline class="cls-1" points="1085.32342 414.34643 1085.93299 431.45742 1068.82025 432.01323"/>
  <polyline class="cls-1" points="955.29261 315.29363 954.29151 298.20108 971.38703 297.25367"/>
  <line class="cls-1" x1="859.50693" y1="466.13875" x2="983.18389" y2="466.87131"/>
  <polyline class="cls-1" points="974.46865 455.22348 986.92057 466.97538 975.12967 479.39026"/>
  <polyline class="cls-1" points="869.42001 477.39549 856.70233 465.93172 868.20594 453.25017"/>
  <polygon class="cls-2" points="422.63661 536.53021 914.50199 69.12695 1406.36737 536.53021 422.63661 536.53021"/>
</svg>