<?xml version="1.0" encoding="UTF-8"?>
<svg id="Ebene_2" data-name="Ebene 2" xmlns="http://www.w3.org/2000/svg" viewBox="0 0 1920 898.25114">
  <defs>
    <style>
      .cls-1 {
        fill: #0d435c;
      }

      .cls-2 {
        fill: #fff;
      }

      .cls-3 {
        fill: #f3f5f7;
      }

      .cls-4 {
        fill: #0c425b;
      }

      .cls-5 {
        fill: #7996a5;
      }

      .cls-6 {
        fill: #fac102;
      }
    </style>
  </defs>
  <rect class="cls-3" x="-6.77376" y="-9.45497" width="1937.32" height="938.78375"/>
  <polygon class="cls-2" points="1297.99109 122.3826 804.38922 122.3826 804.38922 175.78689 740.21277 175.78689 740.21277 789.51248 1215.76538 789.51248 1215.76538 728.47928 1297.99109 728.47928 1297.99109 122.3826"/>
  <g>
    <path class="cls-1" d="M944.99311,387.51318c-1.7419,1.93544-4.29023,3.49455-7.64499,4.67732-3.35477,1.18277-7.0321,1.77415-11.03202,1.77415-6.1504,0-11.06428-1.88168-14.74161-5.64504-3.67734-3.76336-5.64504-8.9998-5.9031-15.70934l-.03226-4.06443c0-4.62356.81719-8.66218,2.45156-12.11156,1.63437-3.45369,3.97196-6.10739,7.0149-7.96972,3.04294-1.85802,6.56545-2.78919,10.56536-2.78919,5.84933,0,10.39117,1.33976,13.62766,4.01497,3.23649,2.67951,5.12462,6.67297,5.66224,11.98469h-10.90299c-.38709-2.6236-1.22578-4.49453-2.51607-5.61278-1.29029-1.11826-3.11821-1.67738-5.48375-1.67738-2.83865,0-5.03215,1.20427-6.5805,3.61282-1.54835,2.40855-2.33328,5.84933-2.35479,10.32236v2.83865c0,4.68807.79998,8.20842,2.40425,10.56536,1.59997,2.35264,4.12249,3.53111,7.56328,3.53111,2.94617,0,5.13967-.6559,6.5805-1.9677v-7.29016h-7.8708v-7.77402h19.19313v19.2899Z"/>
    <path class="cls-1" d="M978.25045,384.5455h-15.51579l-2.70962,8.774h-12.09651l17.22543-46.96672h10.64493l17.35446,46.96672h-12.16103l-2.74188-8.774ZM965.44427,375.80376h10.09655l-5.06441-16.28997-5.03215,16.28997Z"/>
    <path class="cls-1" d="M1029.57191,355.09453h-14.09647v38.22497h-11.32233v-38.22497h-13.83841v-8.74175h39.25721v8.74175Z"/>
    <path class="cls-1" d="M1046.41025,393.3195h-11.29008v-46.96672h11.29008v46.96672Z"/>
    <path class="cls-1" d="M1094.05437,370.80386c0,4.58055-.84944,8.63422-2.54833,12.16103-1.69889,3.5268-4.11174,6.24287-7.24285,8.14391-3.12681,1.90533-6.69233,2.85585-10.69224,2.85585s-7.54822-.92041-10.64493-2.75693c-3.09671-1.84082-5.51171-4.46872-7.24285-7.888-1.73115-3.41928-2.63865-7.34393-2.72467-11.77394v-2.6451c0-4.60205.84299-8.66003,2.53113-12.17823,1.68814-3.5139,4.10744-6.22997,7.26006-8.14391,3.14832-1.91394,6.73534-2.87091,10.75675-2.87091,3.97841,0,7.52672.94622,10.64493,2.83865,3.11821,1.89243,5.54181,4.587,7.27296,8.08154s2.60855,7.49876,2.63005,12.01479v2.16124ZM1082.5385,368.83617c0-4.66656-.78063-8.20842-2.33973-10.62988-1.55911-2.41715-3.78916-3.62788-6.69233-3.62788-5.6773,0-8.67723,4.25797-8.9998,12.77392l-.03226,3.45154c0,4.60205.76342,8.13961,2.29027,10.61267s3.79562,3.7096,6.8063,3.7096c2.86015,0,5.06441-1.21503,6.61276-3.64508,1.54835-2.43005,2.33328-5.9246,2.35479-10.48364v-2.16124Z"/>
    <path class="cls-1" d="M1139.11791,393.3195h-11.25782l-16.6448-29.22517v29.22517h-11.32233v-46.96672h11.32233l16.61254,29.22517v-29.22517h11.29008v46.96672Z"/>
    <path class="cls-1" d="M1170.50432,380.8359c0-1.65588-.58708-2.94617-1.75695-3.87088-1.17417-.92471-3.23219-1.88168-6.17836-2.87091s-5.35472-1.94619-7.22565-2.87091c-6.08589-2.98918-9.12883-7.09662-9.12883-12.32231,0-2.60209.75697-4.89667,2.27522-6.88802,1.51395-1.98705,3.66014-3.53541,6.43427-4.64506,2.77413-1.10535,5.89234-1.66018,9.35463-1.66018,3.37627,0,6.40416.60214,9.07937,1.80641,2.67951,1.20427,4.75904,2.92037,6.24287,5.14397,1.48384,2.22791,2.22576,4.76979,2.22576,7.62994h-11.29008c0-1.91394-.58708-3.39778-1.7591-4.45152-1.17202-1.05374-2.75693-1.58061-4.75689-1.58061-2.02146,0-3.61928.4473-4.79129,1.33976-1.17202.89245-1.75695,2.02576-1.75695,3.40208,0,1.20427.64515,2.29672,1.93544,3.27305,1.29029.98062,3.55906,1.99135,6.8063,3.03219,3.24724,1.04514,5.91385,2.16769,7.99983,3.37197,5.07516,2.92467,7.61274,6.95684,7.61274,12.09651,0,4.10744-1.54835,7.33317-4.64506,9.67721-3.09671,2.34403-7.34393,3.51605-12.74166,3.51605-3.80637,0-7.25361-.68171-10.33741-2.04727-3.0881-1.36556-5.41063-3.23649-6.96759-5.61278-1.56126-2.37629-2.33973-5.11387-2.33973-8.21057h11.35459c0,2.51607.64945,4.3698,1.95265,5.56547,1.2989,1.19137,3.41283,1.78921,6.3375,1.78921,1.87093,0,3.34831-.40429,4.43646-1.20858,1.08385-.80858,1.62792-1.94189,1.62792-3.40423Z"/>
  </g>
  <path class="cls-4" d="M1307.89004,107.48372h-520.82322v56.48092h-61.50168v636.36257h501.51143v-56.48092h80.81347V107.48372ZM1198.20806,771.4587h-443.77441V192.83314h443.77441v578.62555ZM1279.02153,714.97778h-51.94496V163.96463h-411.14124v-27.6124h463.0862v578.62555Z"/>
  <rect class="cls-4" x="778.53279" y="465.91474" width="163.25707" height="24.05628"/>
  <rect class="cls-4" x="777.24737" y="512.84173" width="341.36232" height="24.0575"/>
  <rect class="cls-4" x="778.59835" y="559.76994" width="224.91887" height="24.05628"/>
  <g>
    <path class="cls-1" d="M968.51767,297.75711h-13.92391v37.75706h-11.18374v-37.75706h-13.66901v-8.63474h38.77666v8.63474Z"/>
    <path class="cls-1" d="M990.72583,309.25947l8.53915-20.1371h12.07589l-14.94351,29.72771v16.66409h-11.34305v-16.66409l-14.91165-29.72771h12.01216l8.57101,20.1371Z"/>
  </g>
  <g>
    <path class="cls-1" d="M802.35211,300.4265h-9.8914v26.82221h-7.94481v-26.82221h-9.71032v-6.13402h27.54652v6.13402Z"/>
    <path class="cls-1" d="M817.94747,315.59179h-4.30061v11.65691h-7.94481v-32.95623h12.96972c3.90827,0,6.96396.86767,9.16708,2.59923,2.20312,1.73533,3.30468,4.18366,3.30468,7.34876,0,2.29177-.46401,4.19121-1.39204,5.6983-.92803,1.5071-2.38042,2.72938-4.35719,3.66306l6.88097,13.30736v.33952h-8.51067l-5.81714-11.65691ZM813.64686,309.48041h5.02492c1.50898,0,2.6445-.39611,3.40653-1.1921.76204-.7941,1.14306-1.90132,1.14306-3.32354s-.38479-2.53698-1.15437-3.34617c-.76958-.80919-1.90132-1.21473-3.39522-1.21473h-5.02492v9.07654Z"/>
    <path class="cls-1" d="M856.38131,313.26041h-12.49439v7.8769h14.75787v6.11139h-22.70268v-32.95623h22.74795v6.13402h-14.80314v6.94888h12.49439v5.88504Z"/>
    <path class="cls-1" d="M880.60052,321.09204h-10.88733l-1.90132,6.15666h-8.48804l12.08697-32.95623h7.46947l12.17751,32.95623h-8.53331l-1.92396-6.15666ZM871.61452,314.95802h7.08468l-3.55366-11.43056-3.53102,11.43056Z"/>
    <path class="cls-1" d="M804.38924,367.07647c0,3.21414-.59605,6.05857-1.78815,8.53331s-2.88593,4.37983-5.08151,5.71528c-2.19557,1.33545-4.69672,2.00318-7.50343,2.00318s-5.29654-.64509-7.46947-1.93527-3.86677-3.13492-5.08151-5.5342c-1.21473-2.39929-1.85228-5.15318-1.91264-8.26169v-1.85605c0-3.22923.59228-6.07744,1.77683-8.54463,1.18455-2.46719,2.88216-4.37228,5.09282-5.71528,2.21066-1.343,4.72689-2.01449,7.5487-2.01449,2.79162,0,5.28145.66395,7.46947,1.99186,2.18803,1.32791,3.88941,3.21791,5.10414,5.67001,1.21473,2.4521,1.82964,5.26258,1.84473,8.43145v1.51653ZM796.30863,365.69575c0-3.2745-.54701-5.76055-1.64102-7.45816-1.09401-1.69761-2.65959-2.54641-4.69672-2.54641-3.98372,0-6.08875,2.98779-6.3151,8.96337l-.02263,2.42192c0,3.22923.53569,5.71151,1.60707,7.44684s2.66336,2.603,4.77594,2.603c2.00695,0,3.55366-.85258,4.64013-2.55773,1.08647-1.70515,1.63725-4.15725,1.65234-7.3563v-1.51653Z"/>
    <path class="cls-1" d="M808.48614,382.87554v-32.95623h11.83799c4.24025,0,7.4657.77713,9.67637,2.33138,2.21066,1.55425,3.31599,3.81019,3.31599,6.7678,0,1.70515-.39234,3.16132-1.17701,4.36851-.78467,1.20719-1.93905,2.09749-3.46312,2.6709,1.72024.4527,3.0406,1.29773,3.96109,2.53509.92048,1.23737,1.38072,2.74635,1.38072,4.52695,0,3.22923-1.02234,5.65492-3.06701,7.27708-2.04467,1.62216-5.07396,2.44833-9.08786,2.47851h-13.37715ZM816.43094,363.65862h4.14216c1.73533-.01509,2.9727-.33198,3.7121-.95443.7394-.61868,1.1091-1.53539,1.1091-2.74635,0-1.39204-.39988-2.39551-1.19964-3.00665-.79976-.61303-2.08994-.92048-3.87055-.92048h-3.89318v7.62792ZM816.43094,368.86462v7.89954h5.206c1.43354,0,2.53509-.3282,3.30468-.98461s1.15437-1.58066,1.15437-2.77276c0-2.74635-1.36563-4.12707-4.09689-4.14216h-5.56815Z"/>
    <path class="cls-1" d="M846.33147,376.76415h13.82985v6.11139h-21.77465v-32.95623h7.94481v26.84484Z"/>
    <path class="cls-1" d="M871.97667,382.87554h-7.92217v-32.95623h7.92217v32.95623Z"/>
  </g>
  <path class="cls-6" d="M1345.94299,634.71138l-150.92013-150.91985c27.8222-32.01945,44.8015-73.69657,44.8015-119.34622,0-100.53289-81.77392-182.32493-182.30862-182.32493s-182.32493,81.79205-182.32493,182.32493,81.79205,182.32675,182.32493,182.32675c39.6093,0,76.19752-12.83823,106.1295-34.37361l152.30443,152.30624s9.92379,2.45927,21.89574-9.51268c11.97195-11.97195,8.09758-20.48063,8.09758-20.48063ZM1057.51574,504.3501c-77.13447,0-139.90478-62.76849-139.90478-139.90478s62.7703-139.90478,139.90478-139.90478,139.88846,62.7703,139.88846,139.90478-62.75218,139.90478-139.88846,139.90478Z"/>
  <path class="cls-5" d="M1120.4349,653.14044c0,8.44911-3.7619,14.74857-11.2857,18.87862,6.26983,4.73705,9.40451,11.42487,9.40451,20.06253,0,8.1308-3.19439,14.49984-9.58318,19.12781-6.37938,4.61715-15.19618,6.9262-26.43204,6.9262-11.93266,0-21.2375-2.47784-27.90511-7.44387-6.65773-4.96556-9.9913-12.16117-9.9913-21.57556l20.13258-.06959c0,4.13992,1.48247,7.32491,4.45823,9.53381,2.97529,2.21971,7.4039,3.32416,13.30559,3.32416,5.20488,0,9.14545-.87594,11.84239-2.61795,2.69749-1.75142,4.04025-4.09008,4.04025-7.02588,0-3.035-1.49282-5.50297-4.49766-7.41378-2.98563-1.91081-8.728-4.04072-17.19686-6.37938-8.4792-2.34854-14.86799-4.79676-19.1673-7.35407-4.28944-2.55777-7.49324-5.5735-9.6128-9.05658-2.11016-3.48261-3.16524-7.68272-3.16524-12.60878,0-8.35931,3.7619-14.69826,11.2857-19.01732-6.31967-4.78736-9.47457-11.47471-9.47457-20.063,0-7.94132,3.26445-14.35079,9.79288-19.22702,6.51809-4.87622,15.33582-7.31457,26.43157-7.31457,11.47471,0,20.36156,2.62736,26.68123,7.8722,6.3192,5.24437,9.4741,12.5392,9.4741,21.87412h-20.13305c0-4.04072-1.43263-7.30517-4.27863-9.78254-2.86621-2.48819-6.77755-3.73228-11.74365-3.73228-5.10513,0-9.05564.90603-11.84239,2.71669-2.78675,1.81113-4.17942,4.29884-4.17942,7.45374,0,3.39422,1.29299,5.94165,3.86064,7.66344,2.58786,1.72132,8.17077,3.71159,16.75905,5.99055,8.58875,2.27896,15.14634,4.68768,19.6845,7.24498,4.51842,2.5573,7.88208,5.60265,10.06182,9.16519,2.17881,3.54327,3.27385,7.83271,3.27385,12.8481ZM1070.13847,637.60573c-3.48308,1.95077-5.22503,5.2251-5.22503,9.8225,0,3.20427.96615,5.68258,2.8963,7.41425,1.92108,1.75142,5.76197,3.54233,11.52408,5.40329l15.46505,4.66746c3.81174-2.17881,5.71267-5.43339,5.71267-9.75292,0-2.87561-1.05508-5.23403-3.16517-7.06538-2.11964-1.84122-5.91116-3.68244-11.39438-5.54341l-15.81352-4.94581Z"/>
</svg>