<?xml version="1.0" encoding="UTF-8"?>
<svg id="Ebene_2" data-name="Ebene 2" xmlns="http://www.w3.org/2000/svg" viewBox="0 0 1920 875.48115">
  <defs>
    <style>
      .cls-1 {
        stroke: #c38490;
      }

      .cls-1, .cls-2, .cls-3, .cls-4, .cls-5, .cls-6 {
        stroke-miterlimit: 10;
      }

      .cls-1, .cls-3, .cls-4 {
        stroke-width: 12.17331px;
      }

      .cls-1, .cls-4, .cls-7 {
        fill: #fff;
      }

      .cls-2 {
        stroke: #90172f;
        stroke-width: 7.30399px;
      }

      .cls-2, .cls-8 {
        fill: #90172f;
      }

      .cls-9 {
        fill: #90172e;
      }

      .cls-9, .cls-10 {
        opacity: .65;
      }

      .cls-3 {
        fill: none;
      }

      .cls-3, .cls-4 {
        stroke: #7996a5;
      }

      .cls-11 {
        fill: #f3f5f7;
      }

      .cls-12 {
        fill: #0d425b;
      }

      .cls-5 {
        stroke-width: 4.91515px;
      }

      .cls-5, .cls-6 {
        fill: #0d435c;
        stroke: #0d435c;
      }

      .cls-6 {
        stroke-width: 5.13849px;
      }

      .cls-10 {
        fill: #426b7e;
      }

      .cls-13 {
        fill: #fac102;
      }
    </style>
  </defs>
  <rect class="cls-11" x="-6.77376" y="-13.44699" width="1937.32" height="910.22567"/>
  <path class="cls-1" d="M676.66367,177.23868c-15.03962-2.1229-27.69351-2.44763-31.62156,27.33322l-8.18063,60.06524-95.52697-8.62208c-12.05139-.80077-22.8272,8.53464-23.60725,25.82597-1.9241,16.45493,7.992,27.91679,20.03924,28.70328l114.00126,6.64869c16.29597.24993,24.52544-8.35757,25.96929-21.3895l14.74651-85.00967c2.79447-17.13551.66321-31.30672-15.8199-33.55514Z"/>
  <path class="cls-1" d="M531.18972,230.61947h.00185c33.70952,0,61.03611-27.45066,61.03611-61.31366s-27.3266-61.31459-61.03611-61.31459h-.00185c-33.7085,0-61.03611,29.87645-61.03611,63.74038s27.32761,58.88787,61.03611,58.88787Z"/>
  <path class="cls-1" d="M614.20744,543.71339c-.12735-1.44677-2.00075-16.57127-2.3143-17.95385l-12.97605-80.79083c-.584-3.49626-1.06502-16.82687-1.04704-20.49134l.68891-137.9822c.13939-25.25486-28.44709-36.22689-63.8592-36.41294-35.39651-.18724-64.183,10.47927-64.30708,35.73354l-.68906,137.98161c-.00862,1.56327.09421,3.10871.30047,4.63335-.01739.39528-.03745.7858-.04369,1.20247l2.25946,215.1359c-.30909,19.95281,10.45222,26.68974,26.44842,26.93345,15.98371.24133,29.32516-6.48609,30.99914-26.3545l-1.63549-175.6832c1.81886.12007,3.65452.19853,5.5141.20863,3.46936.01902,6.8723-.16584,10.19425-.52664l12.54317,79.0962-12.06483,89.84592c-2.25084,16.33173,7.93019,31.22145,22.74233,33.26559,14.80308,2.0382,28.63506-9.5627,30.87447-25.89562,0,0,17.79514-93.39627,16.372-101.94552Z"/>
  <g>
    <path class="cls-2" d="M599.31208,217.42622s96.60386,57.65651,104.02377,60.82321c10.68025,4.55816,25.92722-.20122,35.2668-12.89176,6.63638-9.01745,13.05658-26.68044,3.56882-34.64975-6.94569-5.83408-119.86137-50.45423-119.86137-50.45423-2.17333,1.3065-4.07828,3.95535-4.07828,3.95535l-16.74807-6.90916s-5.30306.269-12.45605,8.42412c-4.08317,4.65522-3.79279,14.65711-3.79279,14.65711l15.35755,9.75597s-2.0409,4.99856-1.28038,7.28914Z"/>
    <path class="cls-7" d="M734.37359,262.78571c-8.48159,10.91942-20.55041,15.30416-27.91914,11.17356-5.74271-3.21912-4.04537-16.29035,4.43622-27.20977,8.48159-10.91942,19.34061-17.08137,26.27833-12.33294,6.93772,4.74843,5.68617,17.44973-2.79542,28.36915Z"/>
    <path class="cls-2" d="M570.15428,206.62393s95.86652,60.45845,103.25866,63.73069c10.64028,4.71007,26.08789-.81178,35.77397-14.81904,6.88259-9.95308,13.74547-29.29824,4.38289-37.74324-6.85405-6.18232-119.42877-52.09813-119.42877-52.09813-2.21629,1.46978-4.1933,4.39245-4.1933,4.39245l-16.69085-7.12663s-5.34114.41368-12.72372,9.44129c-4.21423,5.15327-4.15089,16.01791-4.15089,16.01791l15.22683,10.25269s-2.16752,5.47974-1.45482,7.95202Z"/>
    <path class="cls-7" d="M704.99124,252.83679c-8.78242,12.06257-21.02418,17.10451-28.34278,12.78342-5.70364-3.36758-3.69709-17.61382,5.08533-29.67639,8.78242-12.06257,19.84775-19.00854,26.71862-14.00605,6.87087,5.00248,5.32125,18.83645-3.46117,30.89902Z"/>
  </g>
  <path class="cls-1" d="M531.19064,334.09951l77.79732,2.67441c7.70571,1.46383,24.76361-.99139,29.64872-8.06234,4.58117-4.01169,7.03582-12.03163,8.76921-27.36717l6.5362-81.14832c-.26838-16.58671-7.20017-24.60761-23.24379-23.94321-14.63911.55892-23.02404,5.09916-24.49307,21.87815l-6.74912,68.78636-55.32191-1.2822"/>
  <path class="cls-3" d="M1215.92349,180.05806c15.03962-2.1229,27.69351-2.44763,31.62156,27.33322l8.18063,60.06524,95.52697-8.62208c12.05139-.80077,22.8272,8.53464,23.60725,25.82597,1.9241,16.45493-7.992,27.91679-20.03924,28.70328l-114.00126,6.64869c-16.29597.24993-24.52544-8.35757-25.96929-21.3895l-14.74651-85.00967c-2.79447-17.13551-.66321-31.30672,15.8199-33.55514Z"/>
  <path class="cls-4" d="M1354.92567,234.73085h-.00185c-33.70952,0-61.03611-27.45066-61.03611-61.31366,0-33.86393,27.3266-61.31459,61.03611-61.31459h.00185c33.7085,0,61.03611,29.87645,61.03611,63.74038,0,33.863-27.32761,58.88787-61.03611,58.88787Z"/>
  <path class="cls-4" d="M1278.37971,550.99264c.12735-1.44677,2.00075-16.57127,2.3143-17.95385l12.97605-80.79083c.584-3.49626,1.06502-16.82687,1.04704-20.49134l-.68891-137.9822c-.13939-25.25486,28.44709-36.22689,63.8592-36.41294,35.39651-.18724,64.183,10.47927,64.30708,35.73354l.68906,137.98161c.00862,1.56327-.09421,3.10871-.30047,4.63335.01739.39528.03745.7858.04369,1.20247l-2.25946,215.1359c.30909,19.95281-10.45222,26.68974-26.44842,26.93345-15.98371.24133-29.32516-6.48609-30.99914-26.3545l1.63549-175.6832c-1.81886.12007-3.65452.19853-5.5141.20863-3.46936.01902-6.8723-.16584-10.19425-.52664l-12.54317,79.0962,12.06483,89.84592c2.25084,16.33173-7.93019,31.22145-22.74233,33.26559-14.80308,2.0382-28.63506-9.5627-30.87447-25.89562,0,0-17.79514-93.39627-16.372-101.94552Z"/>
  <g>
    <path class="cls-5" d="M1293.27508,220.2456s-96.60386,57.65651-104.02377,60.82321c-10.68025,4.55816-25.92722-.20122-35.2668-12.89176-6.63638-9.01745-13.05658-26.68044-3.56882-34.64975,6.94569-5.83408,119.86137-50.45423,119.86137-50.45423,2.17333,1.3065,4.07828,3.95535,4.07828,3.95535l16.74807-6.90916s5.30306.269,12.45605,8.42412c4.08317,4.65522,3.79279,14.65711,3.79279,14.65711l-15.35755,9.75597s2.0409,4.99856,1.28038,7.28914Z"/>
    <path class="cls-7" d="M1158.21356,265.60509c8.48159,10.91942,20.55041,15.30416,27.91914,11.17356,5.74271-3.21912,4.04537-16.29035-4.43622-27.20977-8.48159-10.91942-19.34061-17.08137-26.27833-12.33294s-5.68617,17.44973,2.79542,28.36915Z"/>
    <path class="cls-6" d="M1322.43287,209.44331s-95.86652,60.45845-103.25866,63.73069c-10.64028,4.71007-26.08789-.81178-35.77397-14.81904-6.88259-9.95308-13.74547-29.29824-4.38289-37.74324,6.85405-6.18232,119.42877-52.09813,119.42877-52.09813,2.21629,1.46978,4.1933,4.39245,4.1933,4.39245l16.69085-7.12663s5.34114.41368,12.72372,9.44129c4.21423,5.15327,4.15089,16.01791,4.15089,16.01791l-15.22683,10.25269s2.16752,5.47974,1.45482,7.95202Z"/>
    <path class="cls-7" d="M1187.59592,255.65617c8.78242,12.06257,21.02418,17.10451,28.34278,12.78342,5.70364-3.36758,3.69709-17.61382-5.08533-29.67639-8.78242-12.06257-19.84775-19.00854-26.71862-14.00605-6.87087,5.00248-5.32125,18.83645,3.46117,30.89902Z"/>
  </g>
  <path class="cls-4" d="M1361.39652,336.91889l-77.79732,2.67441c-7.70571,1.46383-24.76361-.99139-29.64872-8.06234-4.58117-4.01169-7.03582-12.03163-8.76921-27.36717l-6.5362-81.14832c.26838-16.58671,7.20017-24.60761,23.24379-23.94321,14.63911.55892,23.02404,5.09916,24.49307,21.87815l6.74912,68.78636,55.32191-1.2822"/>
  <path class="cls-13" d="M384.03351,311.77812c0,15.01874-6.68697,26.21635-20.06092,33.55773,11.14496,8.42036,16.71702,20.30831,16.71702,35.66219,0,14.45293-5.6782,25.77423-17.03461,34.00069-11.33969,8.20724-27.012,12.31169-46.98433,12.31169-21.21094,0-37.75078-4.40449-49.60279-13.23187-11.83447-8.82654-17.76006-21.61712-17.76006-38.35169l35.78672-.12369c0,7.35893,2.63517,13.02042,7.92475,16.94686,5.28874,3.94566,13.16083,5.90888,23.65138,5.90888,9.25194,0,16.25651-1.55703,21.05047-4.65355,4.79492-3.11323,7.18175-7.27034,7.18175-12.48887,0-5.39488-2.65356-9.78182-7.99482-13.17838-5.30712-3.39656-15.51448-7.18258-30.56832-11.33969-15.07223-4.17466-26.42864-8.5265-34.07089-13.07224-7.62471-4.54657-13.31962-9.90719-17.08726-16.09855-3.75092-6.19053-5.62639-13.65644-5.62639-22.41277,0-14.85911,6.68697-26.12692,20.06092-33.80428-11.23355-8.50978-16.84155-20.3969-16.84155-35.66303,0-14.11611,5.80273-25.50929,17.40736-34.17704,11.58624-8.66774,27.26022-13.00203,46.9835-13.00203,20.3969,0,36.19374,4.67027,47.42729,13.99325,11.23271,9.32215,16.84071,22.28908,16.84071,38.88241h-35.78756c0-7.18258-2.54658-12.98532-7.60548-17.38898-5.09484-4.42288-12.04746-6.63432-20.87496-6.63432-9.07464,0-16.09688,1.61052-21.05047,4.82906-4.95359,3.21938-7.42914,7.64142-7.42914,13.24942,0,6.0334,2.29836,10.56159,6.86249,13.62217,4.60006,3.05974,14.52397,6.59755,29.79009,10.64851,15.26696,4.05096,26.92341,8.3326,34.99024,12.87834,8.03172,4.54574,14.0108,9.959,17.88542,16.29161,3.87295,6.29834,5.81945,13.92305,5.81945,22.83818ZM294.62897,284.16436c-6.19136,3.4676-9.28776,9.28788-9.28776,17.46002,0,5.69575,1.71738,10.10108,5.14833,13.17922,3.41482,3.11323,10.2422,6.29667,20.48466,9.60464l27.48993,8.29666c6.77557-3.87295,10.15457-9.65813,10.15457-17.33632,0-5.11155-1.87546-9.30376-5.62626-12.55908-3.76777-3.27287-10.50739-6.54573-20.25411-9.8537l-28.10936-8.79144Z"/>
  <path class="cls-13" d="M1643.51862,312.94933c0,15.01874-6.68697,26.21635-20.06092,33.55773,11.14496,8.42036,16.71702,20.30831,16.71702,35.66219,0,14.45293-5.6782,25.77423-17.03461,34.00069-11.33969,8.20724-27.012,12.31169-46.98433,12.31169-21.21094,0-37.75078-4.40449-49.60279-13.23187-11.83447-8.82654-17.76006-21.61712-17.76006-38.35169l35.78672-.12369c0,7.35893,2.63517,13.02042,7.92475,16.94686,5.28874,3.94566,13.16083,5.90888,23.65138,5.90888,9.25194,0,16.25651-1.55703,21.05047-4.65355,4.79492-3.11323,7.18175-7.27034,7.18175-12.48887,0-5.39488-2.65356-9.78182-7.99482-13.17838-5.30712-3.39656-15.51448-7.18258-30.56832-11.33969-15.07223-4.17466-26.42864-8.5265-34.07089-13.07224-7.62471-4.54657-13.31962-9.90719-17.08726-16.09855-3.75092-6.19053-5.62639-13.65644-5.62639-22.41277,0-14.85911,6.68697-26.12692,20.06092-33.80428-11.23355-8.50978-16.84155-20.3969-16.84155-35.66303,0-14.11611,5.80273-25.50929,17.40736-34.17704,11.58624-8.66774,27.26022-13.00203,46.9835-13.00203,20.3969,0,36.19374,4.67027,47.42729,13.99325,11.23271,9.32215,16.84071,22.28908,16.84071,38.88241h-35.78756c0-7.18258-2.54658-12.98532-7.60548-17.38898-5.09484-4.42288-12.04746-6.63432-20.87496-6.63432-9.07464,0-16.09688,1.61052-21.05047,4.82906-4.95359,3.21938-7.42914,7.64142-7.42914,13.24942,0,6.0334,2.29836,10.56159,6.86249,13.62217,4.60006,3.05974,14.52397,6.59755,29.79009,10.64851,15.26696,4.05096,26.92341,8.3326,34.99024,12.87834,8.03172,4.54574,14.0108,9.959,17.88542,16.29161,3.87295,6.29834,5.81945,13.92305,5.81945,22.83818ZM1554.11407,285.33557c-6.19136,3.4676-9.28776,9.28788-9.28776,17.46002,0,5.69575,1.71738,10.10108,5.14833,13.17922,3.41482,3.11323,10.2422,6.29667,20.48466,9.60464l27.48993,8.29666c6.77557-3.87295,10.15457-9.65813,10.15457-17.33632,0-5.11155-1.87546-9.30376-5.62626-12.55908-3.76777-3.27287-10.50739-6.54573-20.25411-9.8537l-28.10936-8.79144Z"/>
  <g>
    <path class="cls-7" d="M96.0373,730.51721l12.45194-24.38441h15.92971l.07712-13.15939,24.26492-14.71747h33.47815l24.95224,13.62103.02331,14.25584h16.06827l24.13822,23.71924,16.50267,3.5038s12.47596,12.82505,6.29479,32.31121c-6.18117,19.48616-42.99602,25.5145-42.99602,25.5145,0,0-105.74113,1.08867-115.37344,0-9.63231-1.08867-45.14657-26.58428-39.83568-37.89895,5.31089-11.31468,24.0238-22.76539,24.0238-22.76539Z"/>
    <g>
      <path class="cls-8" d="M276.64527,742.38784c-3.93985-7.40071-10.72629-11.31103-19.62276-11.31103l-11.18088,9.38363,11.18088.07201c6.34179,0,8.50214,3.05876,10.16708,6.19343,1.57167,2.94033,2.11393,8.00674-.40648,12.1795l-1.85972,2.77939c-6.98599,10.3957-18.93254,22.79167-36.17452,22.79167h-118.11033c-14.75934,0-28.8029-10.08683-31.30249-22.49104-1.05501-5.21911.11022-10.22218,3.27045-14.08998,3.83397-4.67728,10.25645-7.36297,17.61074-7.36297l-12.78897-7.18598c-4.83956,1.83846-9.01666,4.7493-12.13352,8.55854-4.99486,6.09626-6.85024,13.8952-5.23215,21.95269,3.4019,16.86503,21.22867,30.07439,40.57593,30.07439h118.11033c16.70405,0,32.33621-9.57884,44.01597-26.97312l1.90227-2.8258c4.51591-7.23153,5.27416-15.56448,1.97815-21.74533Z"/>
      <path class="cls-8" d="M237.06926,739.72905l12.35733-10.63256-24.71082-25.07522h-16.44944l.01085-7.80545h43.2113l-.02516,3.1286,23.34-.05336.15357-14.32423-23.56384.02993.03167,3.86867-43.18223.08503-25.54416-14.39972h-34.27231l-24.84053,15.55884-.07895,13.91169h-16.30759l-12.74732,25.77842,16.91532,9.75627,125.70235.17309ZM132.24466,693.20218l18.92991-11.01387,30.44789.05683,18.08055,10.47942-.11015,11.21385-65.69106.08286h-1.68449l.02736-10.81909ZM112.5872,712.69737h108.49371l14.98405,15.20442-4.2322,2.97807h-117.09389l-8.52904-4.79701,6.37736-13.38548Z"/>
      <path class="cls-8" d="M100.74693,745.12905c-8.08308,0-14.66217,6.57908-14.66217,14.66607,0,8.08308,6.57908,14.66217,14.66217,14.66217,8.08699,0,14.6661-6.57908,14.6661-14.66217,0-8.08699-6.57911-14.66607-14.6661-14.66607Z"/>
      <path class="cls-8" d="M123.07226,761.89647c0,9.74369,7.92648,17.66974,17.67017,17.66974s17.67408-7.92605,17.67408-17.66974-7.93035-17.67408-17.67408-17.67408-17.67017,7.93039-17.67017,17.67408Z"/>
      <path class="cls-8" d="M163.06386,761.89647c0,9.74369,7.93039,17.66974,17.67408,17.66974s17.67017-7.92605,17.67017-17.66974-7.92648-17.67408-17.67017-17.67408-17.67408,7.93039-17.67408,17.67408Z"/>
      <path class="cls-8" d="M220.72953,744.2224c-9.74369,0-17.67017,7.93039-17.67017,17.67408s7.92648,17.66974,17.67017,17.66974,17.67408-7.92605,17.67408-17.66974-7.93039-17.67408-17.67408-17.67408Z"/>
      <path class="cls-8" d="M252.04894,763.51066c5.31671,0,9.64175-4.32547,9.64175-9.64218,0-5.32105-4.32503-9.64608-9.64175-9.64608-5.32105,0-9.64608,4.32503-9.64608,9.64608,0,5.31671,4.32503,9.64218,9.64608,9.64218Z"/>
    </g>
  </g>
  <g>
    <path class="cls-7" d="M377.35224,742.97001l12.45194-24.38441h15.92971l.07712-13.15939,24.26492-14.71747h33.47815l24.95224,13.62103.02331,14.25584h16.06827l24.13822,23.71924,16.50267,3.5038s12.47596,12.82505,6.29479,32.31121c-6.18117,19.48616-42.99602,25.5145-42.99602,25.5145,0,0-105.74113,1.08867-115.37344,0-9.63231-1.08867-45.14657-26.58428-39.83568-37.89895,5.31089-11.31468,24.0238-22.76539,24.0238-22.76539Z"/>
    <g>
      <path class="cls-8" d="M557.96021,754.84064c-3.93985-7.40071-10.72629-11.31103-19.62276-11.31103l-11.18088,9.38363,11.18088.07201c6.34179,0,8.50214,3.05876,10.16708,6.19343,1.57167,2.94033,2.11393,8.00674-.40648,12.1795l-1.85972,2.77939c-6.98599,10.3957-18.93254,22.79167-36.17452,22.79167h-118.11033c-14.75934,0-28.8029-10.08683-31.30249-22.49104-1.05501-5.21911.11022-10.22218,3.27045-14.08998,3.83397-4.67728,10.25645-7.36297,17.61074-7.36297l-12.78897-7.18598c-4.83956,1.83846-9.01666,4.7493-12.13352,8.55854-4.99486,6.09626-6.85024,13.8952-5.23215,21.95269,3.4019,16.86503,21.22867,30.07439,40.57593,30.07439h118.11033c16.70405,0,32.33621-9.57884,44.01597-26.97312l1.90227-2.8258c4.51591-7.23153,5.27416-15.56448,1.97815-21.74533Z"/>
      <path class="cls-8" d="M518.3842,752.18185l12.35733-10.63256-24.71082-25.07522h-16.44944l.01085-7.80545h43.2113l-.02516,3.1286,23.34-.05336.15357-14.32423-23.56384.02993.03167,3.86867-43.18223.08503-25.54416-14.39972h-34.27231l-24.84053,15.55884-.07895,13.91169h-16.30759l-12.74732,25.77842,16.91532,9.75627,125.70235.17309ZM413.5596,705.65498l18.92991-11.01387,30.44789.05683,18.08055,10.47942-.11015,11.21385-65.69106.08286h-1.68449l.02736-10.81909ZM393.90214,725.15017h108.49371l14.98405,15.20442-4.2322,2.97807h-117.09389l-8.52904-4.79701,6.37736-13.38548Z"/>
      <path class="cls-8" d="M382.06187,757.58185c-8.08308,0-14.66217,6.57908-14.66217,14.66607,0,8.08308,6.57908,14.66217,14.66217,14.66217,8.08699,0,14.6661-6.57908,14.6661-14.66217,0-8.08699-6.57911-14.66607-14.6661-14.66607Z"/>
      <path class="cls-8" d="M404.3872,774.34927c0,9.74369,7.92648,17.66974,17.67017,17.66974s17.67408-7.92605,17.67408-17.66974-7.93035-17.67408-17.67408-17.67408-17.67017,7.93039-17.67017,17.67408Z"/>
      <path class="cls-8" d="M444.3788,774.34927c0,9.74369,7.93039,17.66974,17.67408,17.66974s17.67017-7.92605,17.67017-17.66974-7.92648-17.67408-17.67017-17.67408-17.67408,7.93039-17.67408,17.67408Z"/>
      <path class="cls-8" d="M502.04447,756.6752c-9.74369,0-17.67017,7.93039-17.67017,17.67408s7.92648,17.66974,17.67017,17.66974,17.67408-7.92605,17.67408-17.66974-7.93039-17.67408-17.67408-17.67408Z"/>
      <path class="cls-8" d="M533.36388,775.96346c5.31671,0,9.64175-4.32547,9.64175-9.64218,0-5.32105-4.32503-9.64608-9.64175-9.64608-5.32105,0-9.64608,4.32503-9.64608,9.64608,0,5.31671,4.32503,9.64218,9.64608,9.64218Z"/>
    </g>
  </g>
  <g>
    <path class="cls-7" d="M655.37058,742.97001l12.45194-24.38441h15.92971l.07712-13.15939,24.26492-14.71747h33.47815l24.95224,13.62103.02331,14.25584h16.06827l24.13822,23.71924,16.50267,3.5038s12.47596,12.82505,6.29479,32.31121c-6.18117,19.48616-42.99602,25.5145-42.99602,25.5145,0,0-105.74113,1.08867-115.37344,0-9.63231-1.08867-45.14657-26.58428-39.83568-37.89895,5.31089-11.31468,24.0238-22.76539,24.0238-22.76539Z"/>
    <g>
      <path class="cls-8" d="M835.97855,754.84064c-3.93985-7.40071-10.72629-11.31103-19.62276-11.31103l-11.18088,9.38363,11.18088.07201c6.34179,0,8.50214,3.05876,10.16708,6.19343,1.57167,2.94033,2.11393,8.00674-.40648,12.1795l-1.85972,2.77939c-6.98599,10.3957-18.93254,22.79167-36.17452,22.79167h-118.11033c-14.75934,0-28.8029-10.08683-31.30249-22.49104-1.05501-5.21911.11022-10.22218,3.27045-14.08998,3.83397-4.67728,10.25645-7.36297,17.61074-7.36297l-12.78897-7.18598c-4.83956,1.83846-9.01666,4.7493-12.13352,8.55854-4.99486,6.09626-6.85024,13.8952-5.23215,21.95269,3.4019,16.86503,21.22867,30.07439,40.57593,30.07439h118.11033c16.70405,0,32.33621-9.57884,44.01597-26.97312l1.90227-2.8258c4.51591-7.23153,5.27416-15.56448,1.97815-21.74533Z"/>
      <path class="cls-8" d="M796.40254,752.18185l12.35733-10.63256-24.71082-25.07522h-16.44944l.01085-7.80545h43.2113l-.02516,3.1286,23.34-.05336.15357-14.32423-23.56384.02993.03167,3.86867-43.18223.08503-25.54416-14.39972h-34.27231l-24.84053,15.55884-.07895,13.91169h-16.30759l-12.74732,25.77842,16.91532,9.75627,125.70235.17309ZM691.57795,705.65498l18.92991-11.01387,30.44789.05683,18.08055,10.47942-.11015,11.21385-65.69106.08286h-1.68449l.02736-10.81909ZM671.92049,725.15017h108.49371l14.98405,15.20442-4.2322,2.97807h-117.09389l-8.52904-4.79701,6.37736-13.38548Z"/>
      <path class="cls-8" d="M660.08022,757.58185c-8.08308,0-14.66217,6.57908-14.66217,14.66607,0,8.08308,6.57908,14.66217,14.66217,14.66217,8.08699,0,14.6661-6.57908,14.6661-14.66217,0-8.08699-6.57911-14.66607-14.6661-14.66607Z"/>
      <path class="cls-8" d="M682.40555,774.34927c0,9.74369,7.92648,17.66974,17.67017,17.66974s17.67408-7.92605,17.67408-17.66974-7.93035-17.67408-17.67408-17.67408-17.67017,7.93039-17.67017,17.67408Z"/>
      <path class="cls-8" d="M722.39714,774.34927c0,9.74369,7.93039,17.66974,17.67408,17.66974s17.67017-7.92605,17.67017-17.66974-7.92648-17.67408-17.67017-17.67408-17.67408,7.93039-17.67408,17.67408Z"/>
      <path class="cls-8" d="M780.06282,756.6752c-9.74369,0-17.67017,7.93039-17.67017,17.67408s7.92648,17.66974,17.67017,17.66974,17.67408-7.92605,17.67408-17.66974-7.93039-17.67408-17.67408-17.67408Z"/>
      <path class="cls-8" d="M811.38222,775.96346c5.31671,0,9.64175-4.32547,9.64175-9.64218,0-5.32105-4.32503-9.64608-9.64175-9.64608-5.32105,0-9.64608,4.32503-9.64608,9.64608,0,5.31671,4.32503,9.64218,9.64608,9.64218Z"/>
    </g>
  </g>
  <g>
    <path class="cls-7" d="M269.20341,596.07447l12.45194-24.38441h15.92971l.07712-13.15939,24.26492-14.71747h33.47815l24.95224,13.62103.02331,14.25584h16.06827l24.13822,23.71924,16.50267,3.5038s12.47596,12.82505,6.29479,32.31121c-6.18117,19.48616-42.99602,25.5145-42.99602,25.5145,0,0-105.74113,1.08867-115.37344,0-9.63231-1.08867-45.14657-26.58428-39.83568-37.89895,5.31089-11.31468,24.0238-22.76539,24.0238-22.76539Z"/>
    <g>
      <path class="cls-8" d="M449.81138,607.94509c-3.93985-7.40071-10.72629-11.31103-19.62276-11.31103l-11.18088,9.38363,11.18088.07201c6.34179,0,8.50214,3.05876,10.16708,6.19343,1.57167,2.94033,2.11393,8.00674-.40648,12.1795l-1.85972,2.77939c-6.98599,10.3957-18.93254,22.79167-36.17452,22.79167h-118.11033c-14.75934,0-28.8029-10.08683-31.30249-22.49104-1.05501-5.21911.11022-10.22218,3.27045-14.08998,3.83397-4.67728,10.25645-7.36297,17.61074-7.36297l-12.78897-7.18598c-4.83956,1.83846-9.01666,4.7493-12.13352,8.55854-4.99486,6.09626-6.85024,13.8952-5.23215,21.95269,3.4019,16.86503,21.22867,30.07439,40.57593,30.07439h118.11033c16.70405,0,32.33621-9.57884,44.01597-26.97312l1.90227-2.8258c4.51591-7.23153,5.27416-15.56448,1.97815-21.74533Z"/>
      <path class="cls-8" d="M410.23537,605.2863l12.35733-10.63256-24.71082-25.07522h-16.44944l.01085-7.80545h43.2113l-.02516,3.1286,23.34-.05336.15357-14.32423-23.56384.02993.03167,3.86867-43.18223.08503-25.54416-14.39972h-34.27231l-24.84053,15.55884-.07895,13.91169h-16.30759l-12.74732,25.77842,16.91532,9.75627,125.70235.17309ZM305.41078,558.75943l18.92991-11.01387,30.44789.05683,18.08055,10.47942-.11015,11.21385-65.69106.08286h-1.68449l.02736-10.81909ZM285.75332,578.25462h108.49371l14.98405,15.20442-4.2322,2.97807h-117.09389l-8.52904-4.79701,6.37736-13.38548Z"/>
      <path class="cls-8" d="M273.91305,610.6863c-8.08308,0-14.66217,6.57908-14.66217,14.66607,0,8.08308,6.57908,14.66217,14.66217,14.66217,8.08699,0,14.6661-6.57908,14.6661-14.66217,0-8.08699-6.57911-14.66607-14.6661-14.66607Z"/>
      <path class="cls-8" d="M296.23838,627.45373c0,9.74369,7.92648,17.66974,17.67017,17.66974s17.67408-7.92605,17.67408-17.66974-7.93035-17.67408-17.67408-17.67408-17.67017,7.93039-17.67017,17.67408Z"/>
      <path class="cls-8" d="M336.22997,627.45373c0,9.74369,7.93039,17.66974,17.67408,17.66974s17.67017-7.92605,17.67017-17.66974-7.92648-17.67408-17.67017-17.67408-17.67408,7.93039-17.67408,17.67408Z"/>
      <path class="cls-8" d="M393.89565,609.77965c-9.74369,0-17.67017,7.93039-17.67017,17.67408s7.92648,17.66974,17.67017,17.66974,17.67408-7.92605,17.67408-17.66974-7.93039-17.67408-17.67408-17.67408Z"/>
      <path class="cls-8" d="M425.21505,629.06792c5.31671,0,9.64175-4.32547,9.64175-9.64218,0-5.32105-4.32503-9.64608-9.64175-9.64608-5.32105,0-9.64608,4.32503-9.64608,9.64608,0,5.31671,4.32503,9.64218,9.64608,9.64218Z"/>
    </g>
  </g>
  <g>
    <path class="cls-7" d="M535.02852,596.07447l12.45194-24.38441h15.92971l.07712-13.15939,24.26492-14.71747h33.47815l24.95224,13.62103.02331,14.25584h16.06827l24.13822,23.71924,16.50267,3.5038s12.47596,12.82505,6.29479,32.31121c-6.18117,19.48616-42.99602,25.5145-42.99602,25.5145,0,0-105.74113,1.08867-115.37344,0-9.63231-1.08867-45.14657-26.58428-39.83568-37.89895,5.31089-11.31468,24.0238-22.76539,24.0238-22.76539Z"/>
    <g>
      <path class="cls-8" d="M715.63649,607.94509c-3.93985-7.40071-10.72629-11.31103-19.62276-11.31103l-11.18088,9.38363,11.18088.07201c6.34179,0,8.50214,3.05876,10.16708,6.19343,1.57167,2.94033,2.11393,8.00674-.40648,12.1795l-1.85972,2.77939c-6.98599,10.3957-18.93254,22.79167-36.17452,22.79167h-118.11033c-14.75934,0-28.8029-10.08683-31.30249-22.49104-1.05501-5.21911.11022-10.22218,3.27045-14.08998,3.83397-4.67728,10.25645-7.36297,17.61074-7.36297l-12.78897-7.18598c-4.83956,1.83846-9.01666,4.7493-12.13352,8.55854-4.99486,6.09626-6.85024,13.8952-5.23215,21.95269,3.4019,16.86503,21.22867,30.07439,40.57593,30.07439h118.11033c16.70405,0,32.33621-9.57884,44.01597-26.97312l1.90227-2.8258c4.51591-7.23153,5.27416-15.56448,1.97815-21.74533Z"/>
      <path class="cls-8" d="M676.06048,605.2863l12.35733-10.63256-24.71082-25.07522h-16.44944l.01085-7.80545h43.2113l-.02516,3.1286,23.34-.05336.15357-14.32423-23.56384.02993.03167,3.86867-43.18223.08503-25.54416-14.39972h-34.27231l-24.84053,15.55884-.07895,13.91169h-16.30759l-12.74732,25.77842,16.91532,9.75627,125.70235.17309ZM571.23589,558.75943l18.92991-11.01387,30.44789.05683,18.08055,10.47942-.11015,11.21385-65.69106.08286h-1.68449l.02736-10.81909ZM551.57843,578.25462h108.49371l14.98405,15.20442-4.2322,2.97807h-117.09389l-8.52904-4.79701,6.37736-13.38548Z"/>
      <path class="cls-8" d="M539.73816,610.6863c-8.08308,0-14.66217,6.57908-14.66217,14.66607,0,8.08308,6.57908,14.66217,14.66217,14.66217,8.08699,0,14.6661-6.57908,14.6661-14.66217,0-8.08699-6.57911-14.66607-14.6661-14.66607Z"/>
      <path class="cls-8" d="M562.06349,627.45373c0,9.74369,7.92648,17.66974,17.67017,17.66974s17.67408-7.92605,17.67408-17.66974-7.93035-17.67408-17.67408-17.67408-17.67017,7.93039-17.67017,17.67408Z"/>
      <path class="cls-8" d="M602.05508,627.45373c0,9.74369,7.93039,17.66974,17.67408,17.66974s17.67017-7.92605,17.67017-17.66974-7.92648-17.67408-17.67017-17.67408-17.67408,7.93039-17.67408,17.67408Z"/>
      <path class="cls-8" d="M659.72076,609.77965c-9.74369,0-17.67017,7.93039-17.67017,17.67408s7.92648,17.66974,17.67017,17.66974,17.67408-7.92605,17.67408-17.66974-7.93039-17.67408-17.67408-17.67408Z"/>
      <path class="cls-8" d="M691.04016,629.06792c5.31671,0,9.64175-4.32547,9.64175-9.64218,0-5.32105-4.32503-9.64608-9.64175-9.64608-5.32105,0-9.64608,4.32503-9.64608,9.64608,0,5.31671,4.32503,9.64218,9.64608,9.64218Z"/>
    </g>
  </g>
  <g>
    <path class="cls-7" d="M1393.67137,600.58708l-12.45194-24.38441h-15.92971s-.07712-13.15939-.07712-13.15939l-24.26492-14.71747h-33.47815s-24.95224,13.62103-24.95224,13.62103l-.02331,14.25584h-16.06827s-24.13822,23.71924-24.13822,23.71924l-16.50267,3.5038s-12.47596,12.82505-6.29479,32.31121c6.18117,19.48616,42.99602,25.5145,42.99602,25.5145,0,0,105.74113,1.08867,115.37344,0,9.63231-1.08867,45.14657-26.58428,39.83568-37.89895-5.31089-11.31468-24.0238-22.76539-24.0238-22.76539Z"/>
    <g>
      <path class="cls-12" d="M1213.0634,612.45771c3.93985-7.40071,10.72629-11.31103,19.62276-11.31103l11.18088,9.38363-11.18088.07201c-6.34179,0-8.50214,3.05876-10.16708,6.19343-1.57167,2.94033-2.11393,8.00674.40648,12.1795l1.85972,2.77939c6.98599,10.3957,18.93254,22.79167,36.17452,22.79167h118.11033c14.75934,0,28.8029-10.08683,31.30249-22.49104,1.05501-5.21911-.11022-10.22218-3.27045-14.08998-3.83397-4.67728-10.25645-7.36297-17.61074-7.36297l12.78897-7.18598c4.83956,1.83846,9.01666,4.7493,12.13352,8.55854,4.99486,6.09626,6.85024,13.8952,5.23215,21.95269-3.4019,16.86503-21.22867,30.07439-40.57593,30.07439h-118.11033c-16.70405,0-32.33621-9.57884-44.01597-26.97312l-1.90227-2.8258c-4.51591-7.23153-5.27416-15.56448-1.97815-21.74533Z"/>
      <path class="cls-12" d="M1378.34176,609.62583l16.91532-9.75627-12.74732-25.77842h-16.30759s-.07895-13.91169-.07895-13.91169l-24.84053-15.55884h-34.27231s-25.54416,14.39972-25.54416,14.39972l-43.18223-.08503.03167-3.86867-23.56384-.02993.15357,14.32423,23.34.05336-.02516-3.1286h43.2113s.01085,7.80545.01085,7.80545h-16.44944s-24.71082,25.07522-24.71082,25.07522l12.35733,10.63256,125.70235-.17309ZM1357.49137,574.09114h-1.68449s-65.69106-.08286-65.69106-.08286l-.11015-11.21385,18.08055-10.47942,30.44789-.05683,18.92991,11.01387.02736,10.81909ZM1383.49883,596.15272l-8.52904,4.79701h-117.09389s-4.2322-2.97807-4.2322-2.97807l14.98405-15.20442h108.49371s6.37736,13.38548,6.37736,13.38548Z"/>
      <path class="cls-12" d="M1388.96174,615.19892c8.08308,0,14.66217,6.57908,14.66217,14.66607,0,8.08308-6.57908,14.66217-14.66217,14.66217-8.08699,0-14.6661-6.57908-14.6661-14.66217,0-8.08699,6.57911-14.66607,14.6661-14.66607Z"/>
      <path class="cls-12" d="M1366.63641,631.96634c0,9.74369-7.92648,17.66974-17.67017,17.66974-9.74372,0-17.67408-7.92605-17.67408-17.66974,0-9.74369,7.93035-17.67408,17.67408-17.67408,9.74369,0,17.67017,7.93039,17.67017,17.67408Z"/>
      <path class="cls-12" d="M1326.64481,631.96634c0,9.74369-7.93039,17.66974-17.67408,17.66974-9.74369,0-17.67017-7.92605-17.67017-17.66974s7.92648-17.67408,17.67017-17.67408c9.74369,0,17.67408,7.93039,17.67408,17.67408Z"/>
      <path class="cls-12" d="M1268.97914,614.29227c9.74369,0,17.67017,7.93039,17.67017,17.67408,0,9.74369-7.92648,17.66974-17.67017,17.66974-9.74369,0-17.67408-7.92605-17.67408-17.66974,0-9.74369,7.93039-17.67408,17.67408-17.67408Z"/>
      <path class="cls-12" d="M1237.65973,633.58053c-5.31671,0-9.64175-4.32547-9.64175-9.64218s4.32503-9.64608,9.64175-9.64608c5.32105,0,9.64608,4.32503,9.64608,9.64608s-4.32503,9.64218-9.64608,9.64218Z"/>
    </g>
  </g>
  <g>
    <path class="cls-7" d="M1668.82847,600.58708l-12.45194-24.38441h-15.92971s-.07712-13.15939-.07712-13.15939l-24.26492-14.71747h-33.47815s-24.95224,13.62103-24.95224,13.62103l-.02331,14.25584h-16.06827s-24.13822,23.71924-24.13822,23.71924l-16.50267,3.5038s-12.47596,12.82505-6.29479,32.31121c6.18117,19.48616,42.99602,25.5145,42.99602,25.5145,0,0,105.74113,1.08867,115.37344,0,9.63231-1.08867,45.14657-26.58428,39.83568-37.89895-5.31089-11.31468-24.0238-22.76539-24.0238-22.76539Z"/>
    <g>
      <path class="cls-12" d="M1488.2205,612.45771c3.93985-7.40071,10.72629-11.31103,19.62276-11.31103l11.18088,9.38363-11.18088.07201c-6.34179,0-8.50214,3.05876-10.16708,6.19343-1.57167,2.94033-2.11393,8.00674.40648,12.1795l1.85972,2.77939c6.98599,10.3957,18.93254,22.79167,36.17452,22.79167h118.11033c14.75934,0,28.8029-10.08683,31.30249-22.49104,1.05501-5.21911-.11022-10.22218-3.27045-14.08998-3.83397-4.67728-10.25645-7.36297-17.61074-7.36297l12.78897-7.18598c4.83956,1.83846,9.01666,4.7493,12.13352,8.55854,4.99486,6.09626,6.85024,13.8952,5.23215,21.95269-3.4019,16.86503-21.22867,30.07439-40.57593,30.07439h-118.11033c-16.70405,0-32.33621-9.57884-44.01597-26.97312l-1.90227-2.8258c-4.51591-7.23153-5.27416-15.56448-1.97815-21.74533Z"/>
      <path class="cls-12" d="M1653.49887,609.62583l16.91532-9.75627-12.74732-25.77842h-16.30759s-.07895-13.91169-.07895-13.91169l-24.84053-15.55884h-34.27231s-25.54416,14.39972-25.54416,14.39972l-43.18223-.08503.03167-3.86867-23.56384-.02993.15357,14.32423,23.34.05336-.02516-3.1286h43.2113s.01085,7.80545.01085,7.80545h-16.44944s-24.71082,25.07522-24.71082,25.07522l12.35733,10.63256,125.70235-.17309ZM1632.64847,574.09114h-1.68449s-65.69106-.08286-65.69106-.08286l-.11015-11.21385,18.08055-10.47942,30.44789-.05683,18.92991,11.01387.02736,10.81909ZM1658.65594,596.15272l-8.52904,4.79701h-117.09389s-4.2322-2.97807-4.2322-2.97807l14.98405-15.20442h108.49371s6.37736,13.38548,6.37736,13.38548Z"/>
      <path class="cls-12" d="M1664.11884,615.19892c8.08308,0,14.66217,6.57908,14.66217,14.66607,0,8.08308-6.57908,14.66217-14.66217,14.66217-8.08699,0-14.6661-6.57908-14.6661-14.66217,0-8.08699,6.57911-14.66607,14.6661-14.66607Z"/>
      <path class="cls-12" d="M1641.79351,631.96634c0,9.74369-7.92648,17.66974-17.67017,17.66974-9.74372,0-17.67408-7.92605-17.67408-17.66974,0-9.74369,7.93035-17.67408,17.67408-17.67408,9.74369,0,17.67017,7.93039,17.67017,17.67408Z"/>
      <path class="cls-12" d="M1601.80191,631.96634c0,9.74369-7.93039,17.66974-17.67408,17.66974-9.74369,0-17.67017-7.92605-17.67017-17.66974s7.92648-17.67408,17.67017-17.67408c9.74369,0,17.67408,7.93039,17.67408,17.67408Z"/>
      <path class="cls-12" d="M1544.13624,614.29227c9.74369,0,17.67017,7.93039,17.67017,17.67408,0,9.74369-7.92648,17.66974-17.67017,17.66974-9.74369,0-17.67408-7.92605-17.67408-17.66974,0-9.74369,7.93039-17.67408,17.67408-17.67408Z"/>
      <path class="cls-12" d="M1512.81684,633.58053c-5.31671,0-9.64175-4.32547-9.64175-9.64218s4.32503-9.64608,9.64175-9.64608c5.32105,0,9.64608,4.32503,9.64608,9.64608s-4.32503,9.64218-9.64608,9.64218Z"/>
    </g>
  </g>
  <g>
    <path class="cls-7" d="M1278.46014,743.68927l-12.45194-24.38441h-15.92971s-.07712-13.15939-.07712-13.15939l-24.26492-14.71747h-33.47815s-24.95224,13.62103-24.95224,13.62103l-.02331,14.25584h-16.06827s-24.13822,23.71924-24.13822,23.71924l-16.50267,3.5038s-12.47596,12.82505-6.29479,32.31121c6.18117,19.48616,42.99602,25.5145,42.99602,25.5145,0,0,105.74113,1.08867,115.37344,0,9.63231-1.08867,45.14657-26.58428,39.83568-37.89895-5.31089-11.31468-24.0238-22.76539-24.0238-22.76539Z"/>
    <g>
      <path class="cls-12" d="M1097.85217,755.55989c3.93985-7.40071,10.72629-11.31103,19.62276-11.31103l11.18088,9.38363-11.18088.07201c-6.34179,0-8.50214,3.05876-10.16708,6.19343-1.57167,2.94033-2.11393,8.00674.40648,12.1795l1.85972,2.77939c6.98599,10.3957,18.93254,22.79167,36.17452,22.79167h118.11033c14.75934,0,28.8029-10.08683,31.30249-22.49104,1.05501-5.21911-.11022-10.22218-3.27045-14.08998-3.83397-4.67728-10.25645-7.36297-17.61074-7.36297l12.78897-7.18598c4.83956,1.83846,9.01666,4.7493,12.13352,8.55854,4.99486,6.09626,6.85024,13.8952,5.23215,21.95269-3.4019,16.86503-21.22867,30.07439-40.57593,30.07439h-118.11033c-16.70405,0-32.33621-9.57884-44.01597-26.97312l-1.90227-2.8258c-4.51591-7.23153-5.27416-15.56448-1.97815-21.74533Z"/>
      <path class="cls-12" d="M1263.13053,752.72802l16.91532-9.75627-12.74732-25.77842h-16.30759s-.07895-13.91169-.07895-13.91169l-24.84053-15.55884h-34.27231s-25.54416,14.39972-25.54416,14.39972l-43.18223-.08503.03167-3.86867-23.56384-.02993.15357,14.32423,23.34.05336-.02516-3.1286h43.2113s.01085,7.80545.01085,7.80545h-16.44944s-24.71082,25.07522-24.71082,25.07522l12.35733,10.63256,125.70235-.17309ZM1242.28014,717.19333h-1.68449s-65.69106-.08286-65.69106-.08286l-.11015-11.21385,18.08055-10.47942,30.44789-.05683,18.92991,11.01387.02736,10.81909ZM1268.2876,739.25491l-8.52904,4.79701h-117.09389s-4.2322-2.97807-4.2322-2.97807l14.98405-15.20442h108.49371s6.37736,13.38548,6.37736,13.38548Z"/>
      <path class="cls-12" d="M1273.7505,758.30111c8.08308,0,14.66217,6.57908,14.66217,14.66607,0,8.08308-6.57908,14.66217-14.66217,14.66217-8.08699,0-14.6661-6.57908-14.6661-14.66217,0-8.08699,6.57911-14.66607,14.6661-14.66607Z"/>
      <path class="cls-12" d="M1251.42517,775.06853c0,9.74369-7.92648,17.66974-17.67017,17.66974s-17.67408-7.92605-17.67408-17.66974,7.93035-17.67408,17.67408-17.67408,17.67017,7.93039,17.67017,17.67408Z"/>
      <path class="cls-12" d="M1211.43358,775.06853c0,9.74369-7.93039,17.66974-17.67408,17.66974-9.74369,0-17.67017-7.92605-17.67017-17.66974,0-9.74369,7.92648-17.67408,17.67017-17.67408,9.74369,0,17.67408,7.93039,17.67408,17.67408Z"/>
      <path class="cls-12" d="M1153.76791,757.39446c9.74369,0,17.67017,7.93039,17.67017,17.67408,0,9.74369-7.92648,17.66974-17.67017,17.66974s-17.67408-7.92605-17.67408-17.66974c0-9.74369,7.93039-17.67408,17.67408-17.67408Z"/>
      <path class="cls-12" d="M1122.4485,776.68272c-5.31671,0-9.64175-4.32547-9.64175-9.64218,0-5.32105,4.32503-9.64608,9.64175-9.64608,5.32105,0,9.64608,4.32503,9.64608,9.64608s-4.32503,9.64218-9.64608,9.64218Z"/>
    </g>
  </g>
  <g>
    <path class="cls-7" d="M1552.00176,743.68927l-12.45194-24.38441h-15.92971s-.07712-13.15939-.07712-13.15939l-24.26492-14.71747h-33.47815s-24.95224,13.62103-24.95224,13.62103l-.02331,14.25584h-16.06827s-24.13822,23.71924-24.13822,23.71924l-16.50267,3.5038s-12.47596,12.82505-6.29479,32.31121c6.18117,19.48616,42.99602,25.5145,42.99602,25.5145,0,0,105.74113,1.08867,115.37344,0,9.63231-1.08867,45.14657-26.58428,39.83568-37.89895-5.31089-11.31468-24.0238-22.76539-24.0238-22.76539Z"/>
    <g>
      <path class="cls-12" d="M1371.39379,755.55989c3.93985-7.40071,10.72629-11.31103,19.62276-11.31103l11.18088,9.38363-11.18088.07201c-6.34179,0-8.50214,3.05876-10.16708,6.19343-1.57167,2.94033-2.11393,8.00674.40648,12.1795l1.85972,2.77939c6.98599,10.3957,18.93254,22.79167,36.17452,22.79167h118.11033c14.75934,0,28.8029-10.08683,31.30249-22.49104,1.05501-5.21911-.11022-10.22218-3.27045-14.08998-3.83397-4.67728-10.25645-7.36297-17.61074-7.36297l12.78897-7.18598c4.83956,1.83846,9.01666,4.7493,12.13352,8.55854,4.99486,6.09626,6.85024,13.8952,5.23215,21.95269-3.4019,16.86503-21.22867,30.07439-40.57593,30.07439h-118.11033c-16.70405,0-32.33621-9.57884-44.01597-26.97312l-1.90227-2.8258c-4.51591-7.23153-5.27416-15.56448-1.97815-21.74533Z"/>
      <path class="cls-12" d="M1536.67215,752.72802l16.91532-9.75627-12.74732-25.77842h-16.30759s-.07895-13.91169-.07895-13.91169l-24.84053-15.55884h-34.27231s-25.54416,14.39972-25.54416,14.39972l-43.18223-.08503.03167-3.86867-23.56384-.02993.15357,14.32423,23.34.05336-.02516-3.1286h43.2113s.01085,7.80545.01085,7.80545h-16.44944s-24.71082,25.07522-24.71082,25.07522l12.35733,10.63256,125.70235-.17309ZM1515.82176,717.19333h-1.68449s-65.69106-.08286-65.69106-.08286l-.11015-11.21385,18.08055-10.47942,30.44789-.05683,18.92991,11.01387.02736,10.81909ZM1541.82922,739.25491l-8.52904,4.79701h-117.09389s-4.2322-2.97807-4.2322-2.97807l14.98405-15.20442h108.49371s6.37736,13.38548,6.37736,13.38548Z"/>
      <path class="cls-12" d="M1547.29213,758.30111c8.08308,0,14.66217,6.57908,14.66217,14.66607,0,8.08308-6.57908,14.66217-14.66217,14.66217-8.08699,0-14.6661-6.57908-14.6661-14.66217,0-8.08699,6.57911-14.66607,14.6661-14.66607Z"/>
      <path class="cls-12" d="M1524.9668,775.06853c0,9.74369-7.92648,17.66974-17.67017,17.66974s-17.67408-7.92605-17.67408-17.66974c0-9.74369,7.93035-17.67408,17.67408-17.67408s17.67017,7.93039,17.67017,17.67408Z"/>
      <path class="cls-12" d="M1484.9752,775.06853c0,9.74369-7.93039,17.66974-17.67408,17.66974-9.74369,0-17.67017-7.92605-17.67017-17.66974,0-9.74369,7.92648-17.67408,17.67017-17.67408,9.74369,0,17.67408,7.93039,17.67408,17.67408Z"/>
      <path class="cls-12" d="M1427.30953,757.39446c9.74369,0,17.67017,7.93039,17.67017,17.67408s-7.92648,17.66974-17.67017,17.66974-17.67408-7.92605-17.67408-17.66974c0-9.74369,7.93039-17.67408,17.67408-17.67408Z"/>
      <path class="cls-12" d="M1395.99012,776.68272c-5.31671,0-9.64175-4.32547-9.64175-9.64218s4.32503-9.64608,9.64175-9.64608c5.32105,0,9.64608,4.32503,9.64608,9.64608s-4.32503,9.64218-9.64608,9.64218Z"/>
    </g>
  </g>
  <g>
    <path class="cls-7" d="M1824.43154,743.68927l-12.45194-24.38441h-15.92971s-.07712-13.15939-.07712-13.15939l-24.26492-14.71747h-33.47815s-24.95224,13.62103-24.95224,13.62103l-.02331,14.25584h-16.06827s-24.13822,23.71924-24.13822,23.71924l-16.50267,3.5038s-12.47596,12.82505-6.29479,32.31121c6.18117,19.48616,42.99602,25.5145,42.99602,25.5145,0,0,105.74113,1.08867,115.37344,0,9.63231-1.08867,45.14657-26.58428,39.83568-37.89895-5.31089-11.31468-24.0238-22.76539-24.0238-22.76539Z"/>
    <g>
      <path class="cls-12" d="M1643.82357,755.55989c3.93985-7.40071,10.72629-11.31103,19.62276-11.31103l11.18088,9.38363-11.18088.07201c-6.34179,0-8.50214,3.05876-10.16708,6.19343-1.57167,2.94033-2.11393,8.00674.40648,12.1795l1.85972,2.77939c6.98599,10.3957,18.93254,22.79167,36.17452,22.79167h118.11033c14.75934,0,28.8029-10.08683,31.30249-22.49104,1.05501-5.21911-.11022-10.22218-3.27045-14.08998-3.83397-4.67728-10.25645-7.36297-17.61074-7.36297l12.78897-7.18598c4.83956,1.83846,9.01666,4.7493,12.13352,8.55854,4.99486,6.09626,6.85024,13.8952,5.23215,21.95269-3.4019,16.86503-21.22867,30.07439-40.57593,30.07439h-118.11033c-16.70405,0-32.33621-9.57884-44.01597-26.97312l-1.90227-2.8258c-4.51591-7.23153-5.27416-15.56448-1.97815-21.74533Z"/>
      <path class="cls-12" d="M1809.10193,752.72802l16.91532-9.75627-12.74732-25.77842h-16.30759s-.07895-13.91169-.07895-13.91169l-24.84053-15.55884h-34.27231s-25.54416,14.39972-25.54416,14.39972l-43.18223-.08503.03167-3.86867-23.56384-.02993.15357,14.32423,23.34.05336-.02516-3.1286h43.2113s.01085,7.80545.01085,7.80545h-16.44944s-24.71082,25.07522-24.71082,25.07522l12.35733,10.63256,125.70235-.17309ZM1788.25154,717.19333h-1.68449s-65.69106-.08286-65.69106-.08286l-.11015-11.21385,18.08055-10.47942,30.44789-.05683,18.92991,11.01387.02736,10.81909ZM1814.259,739.25491l-8.52904,4.79701h-117.09389s-4.2322-2.97807-4.2322-2.97807l14.98405-15.20442h108.49371s6.37736,13.38548,6.37736,13.38548Z"/>
      <path class="cls-12" d="M1819.72191,758.30111c8.08308,0,14.66217,6.57908,14.66217,14.66607,0,8.08308-6.57908,14.66217-14.66217,14.66217-8.08699,0-14.6661-6.57908-14.6661-14.66217,0-8.08699,6.57911-14.66607,14.6661-14.66607Z"/>
      <path class="cls-12" d="M1797.39658,775.06853c0,9.74369-7.92648,17.66974-17.67017,17.66974s-17.67408-7.92605-17.67408-17.66974c0-9.74369,7.93035-17.67408,17.67408-17.67408s17.67017,7.93039,17.67017,17.67408Z"/>
      <path class="cls-12" d="M1757.40498,775.06853c0,9.74369-7.93039,17.66974-17.67408,17.66974-9.74369,0-17.67017-7.92605-17.67017-17.66974,0-9.74369,7.92648-17.67408,17.67017-17.67408,9.74369,0,17.67408,7.93039,17.67408,17.67408Z"/>
      <path class="cls-12" d="M1699.73931,757.39446c9.74369,0,17.67017,7.93039,17.67017,17.67408,0,9.74369-7.92648,17.66974-17.67017,17.66974s-17.67408-7.92605-17.67408-17.66974c0-9.74369,7.93039-17.67408,17.67408-17.67408Z"/>
      <path class="cls-12" d="M1668.4199,776.68272c-5.31671,0-9.64175-4.32547-9.64175-9.64218,0-5.32105,4.32503-9.64608,9.64175-9.64608,5.32105,0,9.64608,4.32503,9.64608,9.64608s-4.32503,9.64218-9.64608,9.64218Z"/>
    </g>
  </g>
  <path class="cls-9" d="M1315.62275,508.08545c-53.45418,0-96.94333,43.48915-96.94333,96.94333,0,53.45735,43.48915,96.94685,96.94333,96.94685,53.45738,0,96.94685-43.48951,96.94685-96.94685,0-53.45418-43.48947-96.94333-96.94685-96.94333ZM1239.80519,605.02878c0-23.03659,10.36325-43.66908,26.6322-57.58532l82.0465,125.80888c-9.95798,4.81738-21.07785,7.59753-32.86113,7.59753-41.80473,0-75.81756-34.01319-75.81756-75.82109ZM1366.03904,661.50078l-81.7863-125.41101c9.5742-4.3755,20.1744-6.87855,31.37-6.87855,41.80789,0,75.82108,34.01284,75.82108,75.81757,0,22.44261-9.85799,42.57723-25.40479,56.472Z"/>
  <path class="cls-9" d="M1593.70274,504.20158c-53.45418,0-96.94333,43.48915-96.94333,96.94333,0,53.45735,43.48915,96.94685,96.94333,96.94685,53.45738,0,96.94685-43.48951,96.94685-96.94685,0-53.45418-43.48947-96.94333-96.94685-96.94333ZM1517.88518,601.14492c0-23.03659,10.36325-43.66908,26.6322-57.58532l82.0465,125.80888c-9.95798,4.81738-21.07785,7.59753-32.86113,7.59753-41.80473,0-75.81756-34.01319-75.81756-75.82109ZM1644.11904,657.61691l-81.7863-125.41101c9.5742-4.3755,20.1744-6.87855,31.37-6.87855,41.80789,0,75.82108,34.01284,75.82108,75.81757,0,22.44261-9.85799,42.57723-25.40479,56.472Z"/>
  <path class="cls-10" d="M612.1961,503.57283c-53.45418,0-96.94333,43.48915-96.94333,96.94333,0,53.45735,43.48915,96.94685,96.94333,96.94685,53.45738,0,96.94685-43.48951,96.94685-96.94685,0-53.45418-43.48947-96.94333-96.94685-96.94333ZM536.37853,600.51617c0-23.03659,10.36325-43.66908,26.6322-57.58532l82.0465,125.80888c-9.95798,4.81738-21.07785,7.59753-32.86113,7.59753-41.80473,0-75.81756-34.01319-75.81756-75.82109ZM662.61239,656.98816l-81.7863-125.41101c9.5742-4.3755,20.1744-6.87855,31.37-6.87855,41.80789,0,75.82108,34.01284,75.82108,75.81757,0,22.44261-9.85799,42.57723-25.40479,56.472Z"/>
  <path class="cls-10" d="M347.24852,503.57283c-53.45418,0-96.94333,43.48915-96.94333,96.94333,0,53.45735,43.48915,96.94685,96.94333,96.94685,53.45738,0,96.94685-43.48951,96.94685-96.94685,0-53.45418-43.48947-96.94333-96.94685-96.94333ZM271.43095,600.51617c0-23.03659,10.36325-43.66908,26.6322-57.58532l82.0465,125.80888c-9.95798,4.81738-21.07785,7.59753-32.86113,7.59753-41.80473,0-75.81756-34.01319-75.81756-75.82109ZM397.66481,656.98816l-81.7863-125.41101c9.5742-4.3755,20.1744-6.87855,31.37-6.87855,41.80789,0,75.82108,34.01284,75.82108,75.81757,0,22.44261-9.85799,42.57723-25.40479,56.472Z"/>
</svg>