<?xml version="1.0" encoding="UTF-8"?>
<svg id="Ebene_2" data-name="Ebene 2" xmlns="http://www.w3.org/2000/svg" viewBox="0 0 1920 732.788">
  <defs>
    <style>
      .cls-1, .cls-2, .cls-3, .cls-4, .cls-5, .cls-6, .cls-7 {
        fill: none;
        stroke-miterlimit: 10;
      }

      .cls-1, .cls-3, .cls-4, .cls-6, .cls-7 {
        stroke-width: 9.20627px;
      }

      .cls-1, .cls-6 {
        stroke: #f08b00;
      }

      .cls-8 {
        fill: #ced9de;
        opacity: .44;
      }

      .cls-9 {
        fill: #f08b00;
      }

      .cls-2 {
        stroke-dasharray: 19.14319 19.14319;
      }

      .cls-2, .cls-5 {
        stroke: #90172f;
        stroke-width: 10.97089px;
      }

      .cls-3 {
        stroke: #0d435c;
      }

      .cls-10 {
        fill: #90172f;
      }

      .cls-4 {
        stroke-dasharray: 29.34 29.34;
      }

      .cls-4, .cls-7 {
        stroke: #fac102;
      }

      .cls-11 {
        fill: #0d435c;
      }

      .cls-12 {
        fill: #f3f5f7;
      }

      .cls-6 {
        stroke-dasharray: 21.68454 21.68454;
      }

      .cls-13 {
        fill: #fac102;
      }
    </style>
  </defs>
  <rect class="cls-12" x="-8.66" y="-3.02268" width="1937.32" height="735.81068"/>
  <polygon class="cls-8" points="1694.06209 677.23058 95.97801 677.23058 95.97801 196.58077 1694.06209 677.23058"/>
  <g>
    <path class="cls-13" d="M342.6582,220.72911l.20215,2.71973c1.72266-2.11279,4.05371-3.16943,6.99023-3.16943,3.13184,0,5.28223,1.23633,6.45117,3.70898,1.70801-2.47266,4.14258-3.70898,7.30469-3.70898,2.63672,0,4.59961.76807,5.88867,2.3042,1.28809,1.53613,1.93262,3.84717,1.93262,6.93359v15.53125h-6.51758v-15.54443c0-1.38135-.27051-2.39111-.80957-3.02979-.53906-.63818-1.49121-.95752-2.85449-.95752-1.94824,0-3.29688.93115-4.0459,2.79346l.02246,16.73828h-6.49512v-15.52197c0-1.41162-.27734-2.43311-.83203-3.06396-.55469-.63037-1.49805-.9458-2.83203-.9458-1.84277,0-3.17676.76562-4.00098,2.29785v17.23389h-6.49512v-24.31934h6.09082Z"/>
    <path class="cls-13" d="M376.37305,214.43565c0-.97363.3252-1.77539.97754-2.40479.65137-.62939,1.53906-.94385,2.66309-.94385,1.10938,0,1.99316.31445,2.65234.94385s.98926,1.43115.98926,2.40479c0,.98926-.33398,1.79834-1,2.42773-.66699.62939-1.54785.94385-2.6416.94385s-1.97461-.31445-2.64062-.94385c-.66699-.62939-1-1.43848-1-2.42773ZM383.27344,245.04844h-6.51855v-24.31934h6.51855v24.31934Z"/>
    <path class="cls-13" d="M394.60156,220.72911l.20215,2.80957c1.73828-2.17236,4.06836-3.25928,6.99023-3.25928,2.57715,0,4.49512.75684,5.75391,2.27051s1.90234,3.77588,1.93262,6.7876v15.71094h-6.49512v-15.58936c0-1.38184-.2998-2.38428-.89941-3.00781-.59961-.62305-1.5957-.93457-2.98926-.93457-1.82812,0-3.19922.78076-4.11328,2.34277v17.18896h-6.49512v-24.31934h6.11328Z"/>
    <path class="cls-13" d="M413.3916,232.66417c0-2.4126.46387-4.56299,1.39355-6.45068.92871-1.88818,2.2666-3.34912,4.01172-4.38281,1.74609-1.03418,3.77246-1.55127,6.08008-1.55127,3.28125,0,5.95996,1.00439,8.03516,3.01221s3.23242,4.73486,3.47266,8.18115l.04492,1.66309c0,3.73145-1.04199,6.72461-3.12402,8.97949-2.08301,2.25537-4.87695,3.38281-8.38379,3.38281-3.50586,0-6.30469-1.12402-8.39453-3.37158-2.09082-2.24756-3.13574-5.3042-3.13574-9.17041v-.29199ZM419.8877,233.1251c0,2.31104.43359,4.07861,1.30273,5.30127.86914,1.22314,2.11328,1.83447,3.73145,1.83447,1.57324,0,2.80176-.604,3.68652-1.81201.88379-1.20801,1.32617-3.14014,1.32617-5.79639,0-2.26611-.44238-4.02197-1.32617-5.26758-.88477-1.24512-2.12793-1.86816-3.73145-1.86816-1.58887,0-2.81738.61914-3.68652,1.85693-.86914,1.23828-1.30273,3.15527-1.30273,5.75146Z"/>
    <path class="cls-13" d="M454.0957,226.82042c-.88379-.12012-1.66309-.18018-2.33691-.18018-2.45801,0-4.06836.83154-4.83301,2.49512v15.91309h-6.49512v-24.31934h6.13574l.17969,2.89941c1.30371-2.23242,3.10938-3.34912,5.41699-3.34912.71875,0,1.39355.09766,2.02246.29248l-.08984,6.24854Z"/>
    <path class="cls-13" d="M468.63867,214.43565c0-.97363.3252-1.77539.97754-2.40479.65137-.62939,1.53906-.94385,2.66309-.94385,1.10938,0,1.99316.31445,2.65234.94385s.98926,1.43115.98926,2.40479c0,.98926-.33398,1.79834-1,2.42773-.66699.62939-1.54785.94385-2.6416.94385s-1.97461-.31445-2.64062-.94385c-.66699-.62939-1-1.43848-1-2.42773ZM475.53906,245.04844h-6.51855v-24.31934h6.51855v24.31934Z"/>
    <path class="cls-13" d="M486.86719,220.72911l.20215,2.80957c1.73828-2.17236,4.06836-3.25928,6.99023-3.25928,2.57715,0,4.49512.75684,5.75391,2.27051s1.90234,3.77588,1.93262,6.7876v15.71094h-6.49512v-15.58936c0-1.38184-.2998-2.38428-.89941-3.00781-.59961-.62305-1.5957-.93457-2.98926-.93457-1.82812,0-3.19922.78076-4.11328,2.34277v17.18896h-6.49512v-24.31934h6.11328Z"/>
    <path class="cls-13" d="M508.44434,245.04844v-19.5542h-3.61914v-4.76514h3.61914v-2.06787c0-2.72705.7832-4.84375,2.34863-6.34961s3.75684-2.25879,6.57422-2.25879c.89941,0,2.00098.14844,3.30469.4458l-.06836,4.99365c-.53906-.13477-1.19824-.20264-1.97754-.20264-2.44238,0-3.66309,1.15625-3.66309,3.46777v1.97168h4.83203v4.76514h-4.83203v19.5542h-6.51855Z"/>
    <path class="cls-13" d="M536.83203,226.82042c-.88379-.12012-1.66309-.18018-2.33691-.18018-2.45801,0-4.06836.83154-4.83301,2.49512v15.91309h-6.49512v-24.31934h6.13574l.17969,2.89941c1.30371-2.23242,3.10938-3.34912,5.41699-3.34912.71875,0,1.39355.09766,2.02246.29248l-.08984,6.24854Z"/>
    <path class="cls-13" d="M553.37598,245.04844c-.30078-.58447-.51758-1.31104-.65234-2.18018-1.57324,1.75293-3.61816,2.62988-6.13574,2.62988-2.38281,0-4.35742-.68945-5.92285-2.06787s-2.34863-3.1167-2.34863-5.21484c0-2.57666.95508-4.55469,2.86621-5.93359,1.91016-1.37842,4.6709-2.0752,8.28223-2.09033h2.98926v-1.39355c0-1.12354-.28906-2.02295-.86523-2.69678-.57715-.67432-1.4873-1.01172-2.73145-1.01172-1.09375,0-1.95117.26221-2.57324.78662-.62207.5249-.93262,1.24414-.93262,2.15771h-6.49609c0-1.4082.43457-2.71191,1.30371-3.91064s2.09766-2.13867,3.68652-2.8208c1.58789-.68164,3.37109-1.02295,5.34961-1.02295,2.99609,0,5.375.75293,7.13574,2.25928,1.76074,1.50586,2.64062,3.62256,2.64062,6.34912v10.5415c.01562,2.30762.33789,4.05371.9668,5.23682v.38232h-6.5625ZM548.00391,240.53086c.95898,0,1.84277-.21387,2.65234-.64062.80859-.42725,1.4082-1.00049,1.79785-1.71973v-4.18018h-2.42773c-3.25098,0-4.98242,1.12354-5.19141,3.37109l-.02246.38232c0,.80908.28418,1.47607.85352,2.00049s1.34863.78662,2.33789.78662Z"/>
    <path class="cls-13" d="M574.07617,240.26085c1.19824,0,2.17188-.3291,2.92188-.98877.74902-.65918,1.13867-1.53564,1.16895-2.62988h6.09082c-.01562,1.64844-.46484,3.1582-1.34863,4.5293-.88477,1.37109-2.09375,2.43506-3.62988,3.19141s-3.2334,1.13525-5.09082,1.13525c-3.47656,0-6.21875-1.10498-8.22656-3.31543-2.00781-2.20996-3.01172-5.26318-3.01172-9.15918v-.42676c0-3.74609.99609-6.73535,2.98926-8.96826,1.99316-2.23242,4.72754-3.34912,8.2041-3.34912,3.04199,0,5.48047.86572,7.31543,2.59619,1.83594,1.73047,2.76855,4.03467,2.79883,6.91162h-6.09082c-.03027-1.26514-.41992-2.29346-1.16895-3.08447-.75-.79053-1.73828-1.18604-2.9668-1.18604-1.51367,0-2.65625.55176-3.42773,1.6543-.77246,1.10303-1.15723,2.89258-1.15723,5.36865v.67529c0,2.50635.38184,4.30762,1.14551,5.40283.76465,1.0957,1.92578,1.64307,3.48438,1.64307Z"/>
    <path class="cls-13" d="M595.74316,214.75059v5.97852h4.1582v4.76514h-4.1582v12.13721c0,.89893.17188,1.54346.51758,1.93262.34375.39014,1.00293.58447,1.97754.58447.71875,0,1.35547-.05225,1.91016-.15723v4.92236c-1.27344.38916-2.58496.58447-3.93359.58447-4.55469,0-6.87695-2.30029-6.9668-6.90039v-13.10352h-3.55176v-4.76514h3.55176v-5.97852h6.49512Z"/>
    <path class="cls-13" d="M603.47559,214.43565c0-.97363.3252-1.77539.97754-2.40479.65137-.62939,1.53906-.94385,2.66309-.94385,1.10938,0,1.99316.31445,2.65234.94385s.98926,1.43115.98926,2.40479c0,.98926-.33398,1.79834-1,2.42773-.66699.62939-1.54785.94385-2.6416.94385s-1.97461-.31445-2.64062-.94385c-.66699-.62939-1-1.43848-1-2.42773ZM610.37598,245.04844h-6.51855v-24.31934h6.51855v24.31934Z"/>
    <path class="cls-13" d="M614.71387,232.66417c0-2.4126.46387-4.56299,1.39355-6.45068.92871-1.88818,2.2666-3.34912,4.01172-4.38281,1.74609-1.03418,3.77246-1.55127,6.08008-1.55127,3.28125,0,5.95996,1.00439,8.03516,3.01221s3.23242,4.73486,3.47266,8.18115l.04492,1.66309c0,3.73145-1.04199,6.72461-3.12402,8.97949-2.08301,2.25537-4.87695,3.38281-8.38379,3.38281-3.50586,0-6.30469-1.12402-8.39453-3.37158-2.09082-2.24756-3.13574-5.3042-3.13574-9.17041v-.29199ZM621.20996,233.1251c0,2.31104.43359,4.07861,1.30273,5.30127.86914,1.22314,2.11328,1.83447,3.73145,1.83447,1.57324,0,2.80176-.604,3.68652-1.81201.88379-1.20801,1.32617-3.14014,1.32617-5.79639,0-2.26611-.44238-4.02197-1.32617-5.26758-.88477-1.24512-2.12793-1.86816-3.73145-1.86816-1.58887,0-2.81738.61914-3.68652,1.85693-.86914,1.23828-1.30273,3.15527-1.30273,5.75146Z"/>
    <path class="cls-13" d="M647.73145,220.72911l.20215,2.80957c1.73828-2.17236,4.06836-3.25928,6.99023-3.25928,2.57715,0,4.49512.75684,5.75391,2.27051s1.90234,3.77588,1.93262,6.7876v15.71094h-6.49512v-15.58936c0-1.38184-.2998-2.38428-.89941-3.00781-.59961-.62305-1.5957-.93457-2.98926-.93457-1.82812,0-3.19922.78076-4.11328,2.34277v17.18896h-6.49512v-24.31934h6.11328Z"/>
  </g>
  <g>
    <path class="cls-11" d="M125.59961,103.31797v-19.5542h-3.61865v-4.76514h3.61865v-2.06787c0-2.72705.78271-4.84375,2.34863-6.34961s3.75732-2.25879,6.57422-2.25879c.89941,0,2.00049.14844,3.3042.4458l-.06738,4.99365c-.53955-.13477-1.19922-.20264-1.97803-.20264-2.44238,0-3.66357,1.15625-3.66357,3.46777v1.97168h4.83252v4.76514h-4.83252v19.5542h-6.51807Z"/>
    <path class="cls-11" d="M154.88574,100.84581c-1.60352,1.94775-3.82129,2.92188-6.65234,2.92188-2.60742,0-4.59668-.74951-5.96777-2.24805-1.37109-1.49805-2.07178-3.69336-2.10156-6.58545v-15.93555h6.49561v15.729c0,2.53564,1.15381,3.80273,3.46143,3.80273,2.20215,0,3.71582-.76465,4.54004-2.29541v-17.23633h6.51855v24.31934h-6.11426l-.17969-2.47217Z"/>
    <path class="cls-11" d="M172.93457,103.31797h-6.51855v-34.52344h6.51855v34.52344Z"/>
    <path class="cls-11" d="M185.13867,103.31797h-6.51758v-34.52344h6.51758v34.52344Z"/>
  </g>
  <g>
    <path class="cls-11" d="M1729.20801,630.67735l.20215,2.80957c1.73828-2.17285,4.06836-3.25879,6.99023-3.25879,2.57715,0,4.49512.75684,5.75391,2.26953,1.25879,1.51367,1.90234,3.77637,1.93262,6.78809v15.71094h-6.49512v-15.58984c0-1.38086-.2998-2.38379-.89941-3.00684s-1.5957-.93555-2.98926-.93555c-1.82812,0-3.19922.78125-4.11328,2.34277v17.18945h-6.49512v-24.31934h6.11328Z"/>
    <path class="cls-11" d="M1747.99805,642.61192c0-2.41211.46387-4.5625,1.39355-6.4502.92871-1.8877,2.2666-3.34863,4.01172-4.38281,1.74609-1.03418,3.77246-1.55078,6.08008-1.55078,3.28125,0,5.95996,1.00391,8.03516,3.01172s3.23242,4.73535,3.47266,8.18164l.04492,1.66309c0,3.73047-1.04199,6.72363-3.12402,8.97852-2.08301,2.25586-4.87695,3.38281-8.38379,3.38281-3.50586,0-6.30469-1.12305-8.39453-3.37109-2.09082-2.24805-3.13574-5.30469-3.13574-9.16992v-.29297ZM1754.49414,643.07383c0,2.31055.43359,4.07812,1.30273,5.30078.86914,1.22363,2.11328,1.83496,3.73145,1.83496,1.57324,0,2.80176-.60449,3.68652-1.8125.88379-1.20801,1.32617-3.13965,1.32617-5.79688,0-2.26562-.44238-4.02148-1.32617-5.2666-.88477-1.24609-2.12793-1.86914-3.73145-1.86914-1.58887,0-2.81738.61914-3.68652,1.85742s-1.30273,3.15527-1.30273,5.75195Z"/>
    <path class="cls-11" d="M1781.01562,630.67735l.20215,2.80957c1.73828-2.17285,4.06836-3.25879,6.99023-3.25879,2.57715,0,4.49512.75684,5.75391,2.26953,1.25879,1.51367,1.90234,3.77637,1.93262,6.78809v15.71094h-6.49512v-15.58984c0-1.38086-.2998-2.38379-.89941-3.00684s-1.5957-.93555-2.98926-.93555c-1.82812,0-3.19922.78125-4.11328,2.34277v17.18945h-6.49512v-24.31934h6.11328Z"/>
    <path class="cls-11" d="M1812.01074,655.4459c-3.56641,0-6.46973-1.09375-8.70996-3.28125s-3.36035-5.10254-3.36035-8.74316v-.62988c0-2.44141.47168-4.62598,1.41602-6.55176.94434-1.9248,2.28125-3.4082,4.01172-4.4502,1.73145-1.04102,3.70508-1.56152,5.92285-1.56152,3.32617,0,5.94531,1.04883,7.85547,3.14648s2.86621,5.07227,2.86621,8.92285v2.65234h-15.48633c.20898,1.58887.84277,2.8623,1.89941,3.82129,1.05566.95898,2.39355,1.43848,4.01172,1.43848,2.50195,0,4.45801-.90723,5.86621-2.71973l3.19141,3.57324c-.97363,1.37891-2.29199,2.4541-3.95605,3.22559-1.66309.77148-3.50586,1.15723-5.52832,1.15723ZM1811.26855,635.46446c-1.28906,0-2.33398.43652-3.13574,1.30957s-1.31445,2.12305-1.53906,3.74805h9.03516v-.51953c-.03027-1.44434-.41992-2.5625-1.16895-3.35254s-1.8125-1.18555-3.19141-1.18555Z"/>
  </g>
  <g>
    <path class="cls-9" d="M831.02051,371.73692l.20215,2.71973c1.72266-2.11328,4.05371-3.16895,6.99023-3.16895,3.13184,0,5.28223,1.23633,6.45117,3.70801,1.70801-2.47168,4.14258-3.70801,7.30469-3.70801,2.63672,0,4.59961.76758,5.88867,2.30371,1.28809,1.53613,1.93262,3.84668,1.93262,6.93359v15.53125h-6.51758v-15.54492c0-1.38086-.27051-2.39062-.80957-3.0293s-1.49121-.95801-2.85449-.95801c-1.94824,0-3.29688.93164-4.0459,2.79395l.02246,16.73828h-6.49512v-15.52148c0-1.41211-.27734-2.43359-.83203-3.06445s-1.49805-.94629-2.83203-.94629c-1.84277,0-3.17676.7666-4.00098,2.29785v17.23438h-6.49512v-24.31934h6.09082Z"/>
    <path class="cls-9" d="M878.87305,396.05626c-.30078-.58398-.51758-1.31055-.65234-2.18066-1.57324,1.75391-3.61816,2.62988-6.13574,2.62988-2.38281,0-4.35742-.68848-5.92285-2.06738s-2.34863-3.11621-2.34863-5.21484c0-2.57715.95508-4.55469,2.86621-5.93359,1.91016-1.37793,4.6709-2.0752,8.28223-2.08984h2.98926v-1.39355c0-1.12402-.28906-2.02344-.86523-2.69727-.57715-.6748-1.4873-1.01172-2.73145-1.01172-1.09375,0-1.95117.2627-2.57324.78711s-.93262,1.24316-.93262,2.15723h-6.49609c0-1.4082.43457-2.71191,1.30371-3.91113.86914-1.19824,2.09766-2.13867,3.68652-2.82031,1.58789-.68164,3.37109-1.02246,5.34961-1.02246,2.99609,0,5.375.75293,7.13574,2.25879s2.64062,3.62207,2.64062,6.34961v10.54102c.01562,2.30762.33789,4.05371.9668,5.2373v.38184h-6.5625ZM873.50098,391.53868c.95898,0,1.84277-.21387,2.65234-.64062.80859-.42676,1.4082-1,1.79785-1.71973v-4.18066h-2.42773c-3.25098,0-4.98242,1.12402-5.19141,3.37207l-.02246.38184c0,.80859.28418,1.47559.85352,2,.56934.52539,1.34863.78711,2.33789.78711Z"/>
    <path class="cls-9" d="M896.33691,371.73692v25.64551c0,2.68164-.71191,4.76855-2.13574,6.25977-1.42383,1.49023-3.47656,2.23633-6.1582,2.23633-1.12402,0-2.19531-.12793-3.21387-.38184v-5.14746c.7793.13477,1.46094.20215,2.04492.20215,1.96289,0,2.94434-1.04102,2.94434-3.12402v-25.69043h6.51855ZM889.30176,365.44395c0-.97461.3252-1.77637.97754-2.40527.65137-.62891,1.53906-.94434,2.66309-.94434s2.01172.31543,2.66406.94434c.65137.62891.97754,1.43066.97754,2.40527,0,.98828-.33398,1.79785-1,2.42676-.66699.62988-1.54785.94434-2.6416.94434s-1.97461-.31445-2.64062-.94434c-.66699-.62891-1-1.43848-1-2.42676Z"/>
    <path class="cls-9" d="M900.4043,383.67149c0-2.41211.46387-4.5625,1.39355-6.4502.92871-1.8877,2.2666-3.34863,4.01172-4.38281,1.74609-1.03418,3.77246-1.55078,6.08008-1.55078,3.28125,0,5.95996,1.00391,8.03516,3.01172s3.23242,4.73535,3.47266,8.18164l.04492,1.66309c0,3.73047-1.04199,6.72363-3.12402,8.97852-2.08301,2.25586-4.87695,3.38281-8.38379,3.38281-3.50586,0-6.30469-1.12305-8.39453-3.37109-2.09082-2.24805-3.13574-5.30469-3.13574-9.16992v-.29297ZM906.90039,384.1334c0,2.31055.43359,4.07812,1.30273,5.30078.86914,1.22363,2.11328,1.83496,3.73145,1.83496,1.57324,0,2.80176-.60449,3.68652-1.8125.88379-1.20801,1.32617-3.13965,1.32617-5.79688,0-2.26562-.44238-4.02148-1.32617-5.2666-.88477-1.24609-2.12793-1.86914-3.73145-1.86914-1.58887,0-2.81738.61914-3.68652,1.85742s-1.30273,3.15527-1.30273,5.75195Z"/>
    <path class="cls-9" d="M941.1084,377.82774c-.88379-.11914-1.66309-.17969-2.33691-.17969-2.45801,0-4.06836.83203-4.83301,2.49512v15.91309h-6.49512v-24.31934h6.13574l.17969,2.89941c1.30371-2.23242,3.10938-3.34863,5.41699-3.34863.71875,0,1.39355.09766,2.02246.29199l-.08984,6.24805Z"/>
    <path class="cls-9" d="M955.65137,365.44395c0-.97461.3252-1.77637.97754-2.40527.65137-.62891,1.53906-.94434,2.66309-.94434,1.10938,0,1.99316.31543,2.65234.94434s.98926,1.43066.98926,2.40527c0,.98828-.33398,1.79785-1,2.42676-.66699.62988-1.54785.94434-2.6416.94434s-1.97461-.31445-2.64062-.94434c-.66699-.62891-1-1.43848-1-2.42676ZM962.55176,396.05626h-6.51855v-24.31934h6.51855v24.31934Z"/>
    <path class="cls-9" d="M973.87988,371.73692l.20215,2.80957c1.73828-2.17285,4.06836-3.25879,6.99023-3.25879,2.57715,0,4.49512.75684,5.75391,2.26953,1.25879,1.51367,1.90234,3.77637,1.93262,6.78809v15.71094h-6.49512v-15.58984c0-1.38086-.2998-2.38379-.89941-3.00684s-1.5957-.93555-2.98926-.93555c-1.82812,0-3.19922.78125-4.11328,2.34277v17.18945h-6.49512v-24.31934h6.11328Z"/>
    <path class="cls-9" d="M995.45703,396.05626v-19.55469h-3.61914v-4.76465h3.61914v-2.06738c0-2.72754.7832-4.84375,2.34863-6.34961s3.75684-2.25879,6.57422-2.25879c.89941,0,2.00098.14844,3.30469.44531l-.06836,4.99316c-.53906-.13477-1.19824-.20215-1.97754-.20215-2.44238,0-3.66309,1.15625-3.66309,3.46777v1.97168h4.83203v4.76465h-4.83203v19.55469h-6.51855Z"/>
    <path class="cls-9" d="M1023.84375,377.82774c-.88379-.11914-1.66309-.17969-2.33691-.17969-2.45801,0-4.06836.83203-4.83301,2.49512v15.91309h-6.49512v-24.31934h6.13574l.17969,2.89941c1.30371-2.23242,3.10938-3.34863,5.41699-3.34863.71875,0,1.39355.09766,2.02246.29199l-.08984,6.24805Z"/>
    <path class="cls-9" d="M1040.3877,396.05626c-.30078-.58398-.51758-1.31055-.65234-2.18066-1.57324,1.75391-3.61816,2.62988-6.13574,2.62988-2.38281,0-4.35742-.68848-5.92285-2.06738s-2.34863-3.11621-2.34863-5.21484c0-2.57715.95508-4.55469,2.86621-5.93359,1.91016-1.37793,4.6709-2.0752,8.28223-2.08984h2.98926v-1.39355c0-1.12402-.28906-2.02344-.86523-2.69727-.57715-.6748-1.4873-1.01172-2.73145-1.01172-1.09375,0-1.95117.2627-2.57324.78711s-.93262,1.24316-.93262,2.15723h-6.49609c0-1.4082.43457-2.71191,1.30371-3.91113.86914-1.19824,2.09766-2.13867,3.68652-2.82031,1.58789-.68164,3.37109-1.02246,5.34961-1.02246,2.99609,0,5.375.75293,7.13574,2.25879s2.64062,3.62207,2.64062,6.34961v10.54102c.01562,2.30762.33789,4.05371.9668,5.2373v.38184h-6.5625ZM1035.01562,391.53868c.95898,0,1.84277-.21387,2.65234-.64062.80859-.42676,1.4082-1,1.79785-1.71973v-4.18066h-2.42773c-3.25098,0-4.98242,1.12402-5.19141,3.37207l-.02246.38184c0,.80859.28418,1.47559.85352,2,.56934.52539,1.34863.78711,2.33789.78711Z"/>
    <path class="cls-9" d="M1061.08789,391.26915c1.19824,0,2.17188-.33008,2.92188-.98926.74902-.65918,1.13867-1.53613,1.16895-2.62988h6.09082c-.01562,1.64844-.46484,3.1582-1.34863,4.5293-.88477,1.37109-2.09375,2.43457-3.62988,3.19141s-3.2334,1.13477-5.09082,1.13477c-3.47656,0-6.21875-1.10449-8.22656-3.31445-2.00781-2.21094-3.01172-5.26367-3.01172-9.15918v-.42773c0-3.74512.99609-6.73438,2.98926-8.96777,1.99316-2.23242,4.72754-3.34863,8.2041-3.34863,3.04199,0,5.48047.86523,7.31543,2.5957,1.83594,1.73047,2.76855,4.03418,2.79883,6.91113h-6.09082c-.03027-1.26465-.41992-2.29297-1.16895-3.08398-.75-.79102-1.73828-1.18652-2.9668-1.18652-1.51367,0-2.65625.55176-3.42773,1.65527-.77246,1.10254-1.15723,2.89258-1.15723,5.36816v.67578c0,2.50586.38184,4.30664,1.14551,5.40234.76465,1.0957,1.92578,1.64355,3.48438,1.64355Z"/>
    <path class="cls-9" d="M1082.75488,365.7584v5.97852h4.1582v4.76465h-4.1582v12.1377c0,.89844.17188,1.54297.51758,1.93262.34375.38965,1.00293.58496,1.97754.58496.71875,0,1.35547-.05273,1.91016-.1582v4.92285c-1.27344.38965-2.58496.58398-3.93359.58398-4.55469,0-6.87695-2.2998-6.9668-6.90039v-13.10352h-3.55176v-4.76465h3.55176v-5.97852h6.49512Z"/>
    <path class="cls-9" d="M1090.4873,365.44395c0-.97461.3252-1.77637.97754-2.40527.65137-.62891,1.53906-.94434,2.66309-.94434,1.10938,0,1.99316.31543,2.65234.94434s.98926,1.43066.98926,2.40527c0,.98828-.33398,1.79785-1,2.42676-.66699.62988-1.54785.94434-2.6416.94434s-1.97461-.31445-2.64062-.94434c-.66699-.62891-1-1.43848-1-2.42676ZM1097.3877,396.05626h-6.51855v-24.31934h6.51855v24.31934Z"/>
    <path class="cls-9" d="M1101.72559,383.67149c0-2.41211.46387-4.5625,1.39355-6.4502.92871-1.8877,2.2666-3.34863,4.01172-4.38281,1.74609-1.03418,3.77246-1.55078,6.08008-1.55078,3.28125,0,5.95996,1.00391,8.03516,3.01172s3.23242,4.73535,3.47266,8.18164l.04492,1.66309c0,3.73047-1.04199,6.72363-3.12402,8.97852-2.08301,2.25586-4.87695,3.38281-8.38379,3.38281-3.50586,0-6.30469-1.12305-8.39453-3.37109-2.09082-2.24805-3.13574-5.30469-3.13574-9.16992v-.29297ZM1108.22168,384.1334c0,2.31055.43359,4.07812,1.30273,5.30078.86914,1.22363,2.11328,1.83496,3.73145,1.83496,1.57324,0,2.80176-.60449,3.68652-1.8125.88379-1.20801,1.32617-3.13965,1.32617-5.79688,0-2.26562-.44238-4.02148-1.32617-5.2666-.88477-1.24609-2.12793-1.86914-3.73145-1.86914-1.58887,0-2.81738.61914-3.68652,1.85742s-1.30273,3.15527-1.30273,5.75195Z"/>
    <path class="cls-9" d="M1134.74316,371.73692l.20215,2.80957c1.73828-2.17285,4.06836-3.25879,6.99023-3.25879,2.57715,0,4.49512.75684,5.75391,2.26953,1.25879,1.51367,1.90234,3.77637,1.93262,6.78809v15.71094h-6.49512v-15.58984c0-1.38086-.2998-2.38379-.89941-3.00684s-1.5957-.93555-2.98926-.93555c-1.82812,0-3.19922.78125-4.11328,2.34277v17.18945h-6.49512v-24.31934h6.11328Z"/>
  </g>
  <g>
    <path class="cls-10" d="M1325.4541,534.82872c0-.79395-.39355-1.41895-1.17969-1.87598-.78711-.45703-2.0498-.86621-3.78809-1.22559-5.7832-1.21387-8.67578-3.6709-8.67578-7.37207,0-2.1582.89551-3.95898,2.68652-5.40527,1.79004-1.44629,4.13184-2.16895,7.02344-2.16895,3.08691,0,5.55566.72656,7.40625,2.17969,1.85059,1.4541,2.77539,3.3418,2.77539,5.66406h-6.49512c0-.92871-.2998-1.69629-.89941-2.30371-.59961-.60645-1.53613-.91016-2.80957-.91016-1.09375,0-1.94043.24707-2.54004.74121-.59863.49512-.89844,1.12402-.89844,1.88867,0,.71875.34082,1.2998,1.02246,1.74121.68164.44238,1.83203.8252,3.4502,1.14648,1.61816.32227,2.98145.68555,4.09082,1.09082,3.43066,1.25781,5.14648,3.43848,5.14648,6.54004,0,2.21777-.95117,4.01172-2.85449,5.38281-1.90234,1.37109-4.36035,2.05664-7.37207,2.05664-2.03809,0-3.84668-.36328-5.42773-1.08984s-2.82129-1.72266-3.71973-2.98926c-.89941-1.26562-1.34863-2.63281-1.34863-4.10156h6.1582c.05957,1.15332.4873,2.03711,1.28125,2.65137.79395.61523,1.85742.92188,3.19141.92188,1.24414,0,2.18359-.23633,2.82129-.70801.63672-.47168.95508-1.08984.95508-1.85449Z"/>
    <path class="cls-10" d="M1335.90625,510.93711c0-.97461.3252-1.77637.97754-2.40527.65137-.62891,1.53906-.94434,2.66309-.94434,1.10938,0,1.99316.31543,2.65234.94434s.98926,1.43066.98926,2.40527c0,.98828-.33398,1.79785-1,2.42676-.66699.62988-1.54785.94434-2.6416.94434s-1.97461-.31445-2.64062-.94434c-.66699-.62891-1-1.43848-1-2.42676ZM1342.80664,541.54942h-6.51855v-24.31934h6.51855v24.31934Z"/>
    <path class="cls-10" d="M1347.21191,529.20958c0-3.73047.8877-6.73438,2.66309-9.0127,1.77637-2.27734,4.16992-3.41602,7.18164-3.41602,2.66699,0,4.74219.91406,6.22559,2.74219l.26953-2.29297h5.88965v23.50977c0,2.12793-.4834,3.97852-1.4502,5.55176s-2.32617,2.77246-4.0791,3.59668c-1.75293.82324-3.80664,1.23633-6.15918,1.23633-1.7832,0-3.52051-.35645-5.21387-1.06836s-2.97461-1.62891-3.84375-2.75293l2.87695-3.95605c1.61816,1.81348,3.58105,2.71973,5.88867,2.71973,1.72363,0,3.06445-.46094,4.02344-1.38184.95898-.92188,1.43848-2.22949,1.43848-3.92285v-1.30273c-1.49805,1.69336-3.46875,2.53906-5.91113,2.53906-2.92188,0-5.28613-1.14258-7.0918-3.42773-1.80566-2.28418-2.70801-5.31543-2.70801-9.09082v-.27051ZM1353.70801,529.67247c0,2.21289.44141,3.94727,1.32617,5.2041.88379,1.25684,2.09766,1.88574,3.64062,1.88574,1.97754,0,3.39355-.74512,4.24805-2.23535v-10.27441c-.86914-1.49023-2.27051-2.23535-4.20312-2.23535-1.55859,0-2.7832.64062-3.6748,1.91992s-1.33691,3.19141-1.33691,5.73535Z"/>
    <path class="cls-10" d="M1380.40918,517.23008l.20215,2.80957c1.73828-2.17285,4.06836-3.25879,6.99023-3.25879,2.57715,0,4.49512.75684,5.75391,2.26953,1.25879,1.51367,1.90234,3.77637,1.93262,6.78809v15.71094h-6.49512v-15.58984c0-1.38086-.2998-2.38379-.89941-3.00684s-1.5957-.93555-2.98926-.93555c-1.82812,0-3.19922.78125-4.11328,2.34277v17.18945h-6.49512v-24.31934h6.11328Z"/>
    <path class="cls-10" d="M1400.16602,510.93711c0-.97461.3252-1.77637.97754-2.40527.65137-.62891,1.53906-.94434,2.66309-.94434,1.10938,0,1.99316.31543,2.65234.94434s.98926,1.43066.98926,2.40527c0,.98828-.33398,1.79785-1,2.42676-.66699.62988-1.54785.94434-2.6416.94434s-1.97461-.31445-2.64062-.94434c-.66699-.62891-1-1.43848-1-2.42676ZM1407.06641,541.54942h-6.51855v-24.31934h6.51855v24.31934Z"/>
    <path class="cls-10" d="M1414.19141,541.54942v-19.55469h-3.61914v-4.76465h3.61914v-2.06738c0-2.72754.7832-4.84375,2.34863-6.34961s3.75684-2.25879,6.57422-2.25879c.89941,0,2.00098.14844,3.30469.44531l-.06836,4.99316c-.53906-.13477-1.19824-.20215-1.97754-.20215-2.44238,0-3.66309,1.15625-3.66309,3.46777v1.97168h4.83203v4.76465h-4.83203v19.55469h-6.51855Z"/>
    <path class="cls-10" d="M1428.86816,510.93711c0-.97461.3252-1.77637.97754-2.40527.65137-.62891,1.53906-.94434,2.66309-.94434,1.10938,0,1.99316.31543,2.65234.94434s.98926,1.43066.98926,2.40527c0,.98828-.33398,1.79785-1,2.42676-.66699.62988-1.54785.94434-2.6416.94434s-1.97461-.31445-2.64062-.94434c-.66699-.62891-1-1.43848-1-2.42676ZM1435.76855,541.54942h-6.51855v-24.31934h6.51855v24.31934Z"/>
    <path class="cls-10" d="M1451.23242,536.76231c1.19824,0,2.17188-.33008,2.92188-.98926.74902-.65918,1.13867-1.53613,1.16895-2.62988h6.09082c-.01562,1.64844-.46484,3.1582-1.34863,4.5293-.88477,1.37109-2.09375,2.43457-3.62988,3.19141s-3.2334,1.13477-5.09082,1.13477c-3.47656,0-6.21875-1.10449-8.22656-3.31445-2.00781-2.21094-3.01172-5.26367-3.01172-9.15918v-.42773c0-3.74512.99609-6.73438,2.98926-8.96777,1.99316-2.23242,4.72754-3.34863,8.2041-3.34863,3.04199,0,5.48047.86523,7.31543,2.5957,1.83594,1.73047,2.76855,4.03418,2.79883,6.91113h-6.09082c-.03027-1.26465-.41992-2.29297-1.16895-3.08398-.75-.79102-1.73828-1.18652-2.9668-1.18652-1.51367,0-2.65625.55176-3.42773,1.65527-.77246,1.10254-1.15723,2.89258-1.15723,5.36816v.67578c0,2.50586.38184,4.30664,1.14551,5.40234.76465,1.0957,1.92578,1.64355,3.48438,1.64355Z"/>
    <path class="cls-10" d="M1479.21582,541.54942c-.30078-.58398-.51758-1.31055-.65234-2.18066-1.57324,1.75391-3.61816,2.62988-6.13574,2.62988-2.38281,0-4.35742-.68848-5.92285-2.06738s-2.34863-3.11621-2.34863-5.21484c0-2.57715.95508-4.55469,2.86621-5.93359,1.91016-1.37793,4.6709-2.0752,8.28223-2.08984h2.98926v-1.39355c0-1.12402-.28906-2.02344-.86523-2.69727-.57715-.6748-1.4873-1.01172-2.73145-1.01172-1.09375,0-1.95117.2627-2.57324.78711s-.93262,1.24316-.93262,2.15723h-6.49609c0-1.4082.43457-2.71191,1.30371-3.91113.86914-1.19824,2.09766-2.13867,3.68652-2.82031,1.58789-.68164,3.37109-1.02246,5.34961-1.02246,2.99609,0,5.375.75293,7.13574,2.25879s2.64062,3.62207,2.64062,6.34961v10.54102c.01562,2.30762.33789,4.05371.9668,5.2373v.38184h-6.5625ZM1473.84375,537.03184c.95898,0,1.84277-.21387,2.65234-.64062.80859-.42676,1.4082-1,1.79785-1.71973v-4.18066h-2.42773c-3.25098,0-4.98242,1.12402-5.19141,3.37207l-.02246.38184c0,.80859.28418,1.47559.85352,2,.56934.52539,1.34863.78711,2.33789.78711Z"/>
    <path class="cls-10" d="M1495.78027,517.23008l.20215,2.80957c1.73828-2.17285,4.06836-3.25879,6.99023-3.25879,2.57715,0,4.49512.75684,5.75391,2.26953,1.25879,1.51367,1.90234,3.77637,1.93262,6.78809v15.71094h-6.49512v-15.58984c0-1.38086-.2998-2.38379-.89941-3.00684s-1.5957-.93555-2.98926-.93555c-1.82812,0-3.19922.78125-4.11328,2.34277v17.18945h-6.49512v-24.31934h6.11328Z"/>
    <path class="cls-10" d="M1523.3584,511.25157v5.97852h4.1582v4.76465h-4.1582v12.1377c0,.89844.17188,1.54297.51758,1.93262.34375.38965,1.00293.58496,1.97754.58496.71875,0,1.35547-.05273,1.91016-.1582v4.92285c-1.27344.38965-2.58496.58398-3.93359.58398-4.55469,0-6.87695-2.2998-6.9668-6.90039v-13.10352h-3.55176v-4.76465h3.55176v-5.97852h6.49512Z"/>
    <path class="cls-10" d="M1564.5127,529.61485c0,3.89551-.83203,6.93359-2.49512,9.11426-1.66309,2.17969-3.98535,3.26953-6.96777,3.26953-2.63672,0-4.74219-1.01074-6.31543-3.03418l-.29199,2.58496h-5.84375v-34.52344h6.49512v12.38477c1.49805-1.75391,3.46875-2.62988,5.91113-2.62988,2.9668,0,5.29395,1.08984,6.97949,3.26953,1.68555,2.18066,2.52832,5.24902,2.52832,9.2041v.36035ZM1558.01758,529.11973c0-2.46484-.39062-4.26465-1.16895-5.40039-.7793-1.13379-1.94141-1.70215-3.48438-1.70215-2.06738,0-3.49121.84961-4.27051,2.54785v9.62695c.79395,1.71387,2.23242,2.57031,4.31543,2.57031,2.09766,0,3.47656-1.03711,4.13574-3.11133.31445-.99219.47266-2.50293.47266-4.53125Z"/>
    <path class="cls-10" d="M1582.17871,523.3209c-.88379-.11914-1.66309-.17969-2.33691-.17969-2.45801,0-4.06836.83203-4.83301,2.49512v15.91309h-6.49512v-24.31934h6.13574l.17969,2.89941c1.30371-2.23242,3.10938-3.34863,5.41699-3.34863.71875,0,1.39355.09766,2.02246.29199l-.08984,6.24805Z"/>
    <path class="cls-10" d="M1596.07031,541.99864c-3.56641,0-6.46973-1.09375-8.70996-3.28125s-3.36035-5.10254-3.36035-8.74316v-.62988c0-2.44141.47168-4.62598,1.41602-6.55176.94434-1.9248,2.28125-3.4082,4.01172-4.4502,1.73145-1.04102,3.70508-1.56152,5.92285-1.56152,3.32617,0,5.94531,1.04883,7.85547,3.14648s2.86621,5.07227,2.86621,8.92285v2.65234h-15.48633c.20898,1.58887.84277,2.8623,1.89941,3.82129,1.05566.95898,2.39355,1.43848,4.01172,1.43848,2.50195,0,4.45801-.90723,5.86621-2.71973l3.19141,3.57324c-.97363,1.37891-2.29199,2.4541-3.95605,3.22559-1.66309.77148-3.50586,1.15723-5.52832,1.15723ZM1595.32812,522.01719c-1.28906,0-2.33398.43652-3.13574,1.30957s-1.31445,2.12305-1.53906,3.74805h9.03516v-.51953c-.03027-1.44434-.41992-2.5625-1.16895-3.35254s-1.8125-1.18555-3.19141-1.18555Z"/>
    <path class="cls-10" d="M1623.85059,541.54942c-.30078-.58398-.51758-1.31055-.65234-2.18066-1.57324,1.75391-3.61816,2.62988-6.13574,2.62988-2.38281,0-4.35742-.68848-5.92285-2.06738s-2.34863-3.11621-2.34863-5.21484c0-2.57715.95508-4.55469,2.86621-5.93359,1.91016-1.37793,4.6709-2.0752,8.28223-2.08984h2.98926v-1.39355c0-1.12402-.28906-2.02344-.86523-2.69727-.57715-.6748-1.4873-1.01172-2.73145-1.01172-1.09375,0-1.95117.2627-2.57324.78711s-.93262,1.24316-.93262,2.15723h-6.49609c0-1.4082.43457-2.71191,1.30371-3.91113.86914-1.19824,2.09766-2.13867,3.68652-2.82031,1.58789-.68164,3.37109-1.02246,5.34961-1.02246,2.99609,0,5.375.75293,7.13574,2.25879s2.64062,3.62207,2.64062,6.34961v10.54102c.01562,2.30762.33789,4.05371.9668,5.2373v.38184h-6.5625ZM1618.47852,537.03184c.95898,0,1.84277-.21387,2.65234-.64062.80859-.42676,1.4082-1,1.79785-1.71973v-4.18066h-2.42773c-3.25098,0-4.98242,1.12402-5.19141,3.37207l-.02246.38184c0,.80859.28418,1.47559.85352,2,.56934.52539,1.34863.78711,2.33789.78711Z"/>
    <path class="cls-10" d="M1644.55078,536.76231c1.19824,0,2.17188-.33008,2.92188-.98926.74902-.65918,1.13867-1.53613,1.16895-2.62988h6.09082c-.01562,1.64844-.46484,3.1582-1.34863,4.5293-.88477,1.37109-2.09375,2.43457-3.62988,3.19141s-3.2334,1.13477-5.09082,1.13477c-3.47656,0-6.21875-1.10449-8.22656-3.31445-2.00781-2.21094-3.01172-5.26367-3.01172-9.15918v-.42773c0-3.74512.99609-6.73438,2.98926-8.96777,1.99316-2.23242,4.72754-3.34863,8.2041-3.34863,3.04199,0,5.48047.86523,7.31543,2.5957,1.83594,1.73047,2.76855,4.03418,2.79883,6.91113h-6.09082c-.03027-1.26465-.41992-2.29297-1.16895-3.08398-.75-.79102-1.73828-1.18652-2.9668-1.18652-1.51367,0-2.65625.55176-3.42773,1.65527-.77246,1.10254-1.15723,2.89258-1.15723,5.36816v.67578c0,2.50586.38184,4.30664,1.14551,5.40234.76465,1.0957,1.92578,1.64355,3.48438,1.64355Z"/>
    <path class="cls-10" d="M1664.7793,519.88243c1.72266-2.06836,3.88867-3.10156,6.49609-3.10156,5.27344,0,7.94824,3.06445,8.02344,9.19238v15.57617h-6.49512v-15.43164c0-1.39648-.2998-2.42969-.89941-3.09766s-1.5957-1.00293-2.98926-1.00293c-1.90332,0-3.28125.73633-4.13574,2.20801v17.32422h-6.49512v-34.52344h6.49512v12.85645Z"/>
  </g>
  <line class="cls-3" x1="96.6187" y1="677.23058" x2="96.6187" y2="68.79508"/>
  <line class="cls-3" x1="1694.06209" y1="677.23058" x2="1694.06209" y2="632.45891"/>
  <g>
    <line class="cls-7" x1="334.07324" y1="677.23057" x2="334.07324" y2="663.42118"/>
    <line class="cls-4" x1="334.07324" y1="634.08119" x2="334.07324" y2="296.6712"/>
    <line class="cls-7" x1="334.07324" y1="282.0012" x2="334.07324" y2="268.19179"/>
  </g>
  <g>
    <line class="cls-1" x1="822.43622" y1="677.23057" x2="822.43622" y2="666.20863"/>
    <line class="cls-6" x1="822.43622" y1="644.52409" x2="822.43622" y2="438.52098"/>
    <line class="cls-1" x1="822.43622" y1="427.67872" x2="822.43622" y2="416.65678"/>
  </g>
  <g>
    <line class="cls-5" x1="1316.05737" y1="677.23057" x2="1316.05737" y2="669.06395"/>
    <line class="cls-2" x1="1316.05737" y1="649.92076" x2="1316.05737" y2="582.9196"/>
    <line class="cls-5" x1="1316.05737" y1="573.348" x2="1316.05737" y2="565.18138"/>
  </g>
  <line class="cls-3" x1="96.61917" y1="672.75165" x2="1694.06254" y2="672.75165"/>
</svg>